  0
SECTION
  2
HEADER
  9
$ACADVER
  1
AC1027
  9
$ACADMAINTVER
 70
105
  9
$DWGCODEPAGE
  3
ANSI_1252
  9
$LASTSAVEDBY
  1
ezdxf
  9
$REQUIREDVERSIONS
160
0
  9
$INSBASE
 10
0.0
 20
0.0
 30
0.0
  9
$EXTMIN
 10
1e+20
 20
1e+20
 30
1e+20
  9
$EXTMAX
 10
-1e+20
 20
-1e+20
 30
-1e+20
  9
$LIMMIN
 10
0.0
 20
0.0
  9
$LIMMAX
 10
420.0
 20
297.0
  9
$ORTHOMODE
 70
0
  9
$REGENMODE
 70
1
  9
$FILLMODE
 70
1
  9
$QTEXTMODE
 70
0
  9
$MIRRTEXT
 70
1
  9
$LTSCALE
 40
1.0
  9
$ATTMODE
 70
1
  9
$TEXTSIZE
 40
2.5
  9
$TRACEWID
 40
1.0
  9
$TEXTSTYLE
  7
Standard
  9
$CLAYER
  8
0
  9
$CELTYPE
  6
ByLayer
  9
$CECOLOR
 62
256
  9
$CELTSCALE
 40
1.0
  9
$DISPSILH
 70
0
  9
$DIMSCALE
 40
1.0
  9
$DIMASZ
 40
2.5
  9
$DIMEXO
 40
0.625
  9
$DIMDLI
 40
3.75
  9
$DIMRND
 40
0.0
  9
$DIMDLE
 40
0.0
  9
$DIMEXE
 40
1.25
  9
$DIMTP
 40
0.0
  9
$DIMTM
 40
0.0
  9
$DIMTXT
 40
2.5
  9
$DIMCEN
 40
2.5
  9
$DIMTSZ
 40
0.0
  9
$DIMTOL
 70
0
  9
$DIMLIM
 70
0
  9
$DIMTIH
 70
0
  9
$DIMTOH
 70
0
  9
$DIMSE1
 70
0
  9
$DIMSE2
 70
0
  9
$DIMTAD
 70
1
  9
$DIMZIN
 70
8
  9
$DIMBLK
  1

  9
$DIMASO
 70
1
  9
$DIMSHO
 70
1
  9
$DIMPOST
  1

  9
$DIMAPOST
  1

  9
$DIMALT
 70
0
  9
$DIMALTD
 70
3
  9
$DIMALTF
 40
0.03937007874
  9
$DIMLFAC
 40
1.0
  9
$DIMTOFL
 70
1
  9
$DIMTVP
 40
0.0
  9
$DIMTIX
 70
0
  9
$DIMSOXD
 70
0
  9
$DIMSAH
 70
0
  9
$DIMBLK1
  1

  9
$DIMBLK2
  1

  9
$DIMSTYLE
  2
ISO-25
  9
$DIMCLRD
 70
0
  9
$DIMCLRE
 70
0
  9
$DIMCLRT
 70
0
  9
$DIMTFAC
 40
1.0
  9
$DIMGAP
 40
0.625
  9
$DIMJUST
 70
0
  9
$DIMSD1
 70
0
  9
$DIMSD2
 70
0
  9
$DIMTOLJ
 70
0
  9
$DIMTZIN
 70
8
  9
$DIMALTZ
 70
0
  9
$DIMALTTZ
 70
0
  9
$DIMUPT
 70
0
  9
$DIMDEC
 70
2
  9
$DIMTDEC
 70
2
  9
$DIMALTU
 70
2
  9
$DIMALTTD
 70
3
  9
$DIMTXSTY
  7
Standard
  9
$DIMAUNIT
 70
0
  9
$DIMADEC
 70
0
  9
$DIMALTRND
 40
0.0
  9
$DIMAZIN
 70
0
  9
$DIMDSEP
 70
44
  9
$DIMATFIT
 70
3
  9
$DIMFRAC
 70
0
  9
$DIMLDRBLK
  1

  9
$DIMLUNIT
 70
2
  9
$DIMLWD
 70
-2
  9
$DIMLWE
 70
-2
  9
$DIMTMOVE
 70
0
  9
$DIMFXL
 40
1.0
  9
$DIMFXLON
 70
0
  9
$DIMJOGANG
 40
0.785398163397
  9
$DIMTFILL
 70
0
  9
$DIMTFILLCLR
 70
0
  9
$DIMARCSYM
 70
0
  9
$DIMLTYPE
  6

  9
$DIMLTEX1
  6

  9
$DIMLTEX2
  6

  9
$DIMTXTDIRECTION
 70
0
  9
$LUNITS
 70
2
  9
$LUPREC
 70
4
  9
$SKETCHINC
 40
1.0
  9
$FILLETRAD
 40
10.0
  9
$AUNITS
 70
0
  9
$AUPREC
 70
2
  9
$MENU
  1
.
  9
$ELEVATION
 40
0.0
  9
$PELEVATION
 40
0.0
  9
$THICKNESS
 40
0.0
  9
$LIMCHECK
 70
0
  9
$CHAMFERA
 40
0.0
  9
$CHAMFERB
 40
0.0
  9
$CHAMFERC
 40
0.0
  9
$CHAMFERD
 40
0.0
  9
$SKPOLY
 70
0
  9
$TDCREATE
 40
2460707.6215625
  9
$TDUCREATE
 40
2458532.153996898
  9
$TDUPDATE
 40
2460707.6215625
  9
$TDUUPDATE
 40
2458532.1544311
  9
$TDINDWG
 40
0.0
  9
$TDUSRTIMER
 40
0.0
  9
$USRTIMER
 70
1
  9
$ANGBASE
 50
0.0
  9
$ANGDIR
 70
0
  9
$PDMODE
 70
0
  9
$PDSIZE
 40
0.0
  9
$PLINEWID
 40
0.0
  9
$SPLFRAME
 70
0
  9
$SPLINETYPE
 70
6
  9
$SPLINESEGS
 70
8
  9
$HANDSEED
  5
38
  9
$SURFTAB1
 70
6
  9
$SURFTAB2
 70
6
  9
$SURFTYPE
 70
6
  9
$SURFU
 70
6
  9
$SURFV
 70
6
  9
$UCSBASE
  2

  9
$UCSNAME
  2

  9
$UCSORG
 10
0.0
 20
0.0
 30
0.0
  9
$UCSXDIR
 10
1.0
 20
0.0
 30
0.0
  9
$UCSYDIR
 10
0.0
 20
1.0
 30
0.0
  9
$UCSORTHOREF
  2

  9
$UCSORTHOVIEW
 70
0
  9
$UCSORGTOP
 10
0.0
 20
0.0
 30
0.0
  9
$UCSORGBOTTOM
 10
0.0
 20
0.0
 30
0.0
  9
$UCSORGLEFT
 10
0.0
 20
0.0
 30
0.0
  9
$UCSORGRIGHT
 10
0.0
 20
0.0
 30
0.0
  9
$UCSORGFRONT
 10
0.0
 20
0.0
 30
0.0
  9
$UCSORGBACK
 10
0.0
 20
0.0
 30
0.0
  9
$PUCSBASE
  2

  9
$PUCSNAME
  2

  9
$PUCSORG
 10
0.0
 20
0.0
 30
0.0
  9
$PUCSXDIR
 10
1.0
 20
0.0
 30
0.0
  9
$PUCSYDIR
 10
0.0
 20
1.0
 30
0.0
  9
$PUCSORTHOREF
  2

  9
$PUCSORTHOVIEW
 70
0
  9
$PUCSORGTOP
 10
0.0
 20
0.0
 30
0.0
  9
$PUCSORGBOTTOM
 10
0.0
 20
0.0
 30
0.0
  9
$PUCSORGLEFT
 10
0.0
 20
0.0
 30
0.0
  9
$PUCSORGRIGHT
 10
0.0
 20
0.0
 30
0.0
  9
$PUCSORGFRONT
 10
0.0
 20
0.0
 30
0.0
  9
$PUCSORGBACK
 10
0.0
 20
0.0
 30
0.0
  9
$USERI1
 70
0
  9
$USERI2
 70
0
  9
$USERI3
 70
0
  9
$USERI4
 70
0
  9
$USERI5
 70
0
  9
$USERR1
 40
0.0
  9
$USERR2
 40
0.0
  9
$USERR3
 40
0.0
  9
$USERR4
 40
0.0
  9
$USERR5
 40
0.0
  9
$WORLDVIEW
 70
1
  9
$SHADEDGE
 70
3
  9
$SHADEDIF
 70
70
  9
$TILEMODE
 70
1
  9
$MAXACTVP
 70
64
  9
$PINSBASE
 10
0.0
 20
0.0
 30
0.0
  9
$PLIMCHECK
 70
0
  9
$PEXTMIN
 10
1e+20
 20
1e+20
 30
1e+20
  9
$PEXTMAX
 10
-1e+20
 20
-1e+20
 30
-1e+20
  9
$PLIMMIN
 10
0.0
 20
0.0
  9
$PLIMMAX
 10
420.0
 20
297.0
  9
$UNITMODE
 70
0
  9
$VISRETAIN
 70
1
  9
$PLINEGEN
 70
0
  9
$PSLTSCALE
 70
1
  9
$TREEDEPTH
 70
3020
  9
$CMLSTYLE
  2
Standard
  9
$CMLJUST
 70
0
  9
$CMLSCALE
 40
20.0
  9
$PROXYGRAPHICS
 70
1
  9
$MEASUREMENT
 70
1
  9
$CELWEIGHT
370
-1
  9
$ENDCAPS
280
0
  9
$JOINSTYLE
280
0
  9
$LWDISPLAY
290
0
  9
$INSUNITS
 70
6
  9
$HYPERLINKBASE
  1

  9
$STYLESHEET
  1

  9
$XEDIT
290
1
  9
$CEPSNTYPE
380
0
  9
$PSTYLEMODE
290
1
  9
$FINGERPRINTGUID
  2
{1A764CF0-4C06-4CB1-AB94-C5960492FCFE}
  9
$VERSIONGUID
  2
{715B84FE-A82C-4531-B9F8-B4C35F19F418}
  9
$EXTNAMES
290
1
  9
$PSVPSCALE
 40
0.0
  9
$OLESTARTUP
290
0
  9
$SORTENTS
280
127
  9
$INDEXCTL
280
0
  9
$HIDETEXT
280
1
  9
$XCLIPFRAME
280
0
  9
$HALOGAP
280
0
  9
$OBSCOLOR
 70
257
  9
$OBSLTYPE
280
0
  9
$INTERSECTIONDISPLAY
280
0
  9
$INTERSECTIONCOLOR
 70
257
  9
$DIMASSOC
280
2
  9
$PROJECTNAME
  1

  9
$CAMERADISPLAY
290
0
  9
$LENSLENGTH
 40
50.0
  9
$CAMERAHEIGHT
 40
0.0
  9
$STEPSPERSEC
 40
24.0
  9
$STEPSIZE
 40
100.0
  9
$3DDWFPREC
 40
2.0
  9
$PSOLWIDTH
 40
0.005
  9
$PSOLHEIGHT
 40
0.08
  9
$LOFTANG1
 40
1.570796326795
  9
$LOFTANG2
 40
1.570796326795
  9
$LOFTMAG1
 40
0.0
  9
$LOFTMAG2
 40
0.0
  9
$LOFTPARAM
 70
7
  9
$LOFTNORMALS
280
1
  9
$LATITUDE
 40
37.795
  9
$LONGITUDE
 40
-122.394
  9
$NORTHDIRECTION
 40
0.0
  9
$TIMEZONE
 70
-8000
  9
$LIGHTGLYPHDISPLAY
280
1
  9
$TILEMODELIGHTSYNCH
280
1
  9
$CMATERIAL
347
20
  9
$SOLIDHIST
280
0
  9
$SHOWHIST
280
1
  9
$DWFFRAME
280
2
  9
$DGNFRAME
280
2
  9
$REALWORLDSCALE
290
1
  9
$INTERFERECOLOR
 62
256
  9
$CSHADOW
280
0
  9
$SHADOWPLANELOCATION
 40
0.0
  0
ENDSEC
  0
SECTION
  2
CLASSES
  0
CLASS
  1
ACDBDICTIONARYWDFLT
  2
AcDbDictionaryWithDefault
  3
ObjectDBX Classes
 90
0
 91
0
280
0
281
0
  0
CLASS
  1
SUN
  2
AcDbSun
  3
SCENEOE
 90
1153
 91
0
280
0
281
0
  0
CLASS
  1
VISUALSTYLE
  2
AcDbVisualStyle
  3
ObjectDBX Classes
 90
4095
 91
0
280
0
281
0
  0
CLASS
  1
MATERIAL
  2
AcDbMaterial
  3
ObjectDBX Classes
 90
1153
 91
0
280
0
281
0
  0
CLASS
  1
SCALE
  2
AcDbScale
  3
ObjectDBX Classes
 90
1153
 91
0
280
0
281
0
  0
CLASS
  1
TABLESTYLE
  2
AcDbTableStyle
  3
ObjectDBX Classes
 90
4095
 91
0
280
0
281
0
  0
CLASS
  1
MLEADERSTYLE
  2
AcDbMLeaderStyle
  3
ACDB_MLEADERSTYLE_CLASS
 90
4095
 91
0
280
0
281
0
  0
CLASS
  1
DICTIONARYVAR
  2
AcDbDictionaryVar
  3
ObjectDBX Classes
 90
0
 91
0
280
0
281
0
  0
CLASS
  1
CELLSTYLEMAP
  2
AcDbCellStyleMap
  3
ObjectDBX Classes
 90
1152
 91
0
280
0
281
0
  0
CLASS
  1
MENTALRAYRENDERSETTINGS
  2
AcDbMentalRayRenderSettings
  3
SCENEOE
 90
1024
 91
0
280
0
281
0
  0
CLASS
  1
ACDBDETAILVIEWSTYLE
  2
AcDbDetailViewStyle
  3
ObjectDBX Classes
 90
1025
 91
0
280
0
281
0
  0
CLASS
  1
ACDBSECTIONVIEWSTYLE
  2
AcDbSectionViewStyle
  3
ObjectDBX Classes
 90
1025
 91
0
280
0
281
0
  0
CLASS
  1
RASTERVARIABLES
  2
AcDbRasterVariables
  3
ISM
 90
0
 91
0
280
0
281
0
  0
CLASS
  1
ACDBPLACEHOLDER
  2
AcDbPlaceHolder
  3
ObjectDBX Classes
 90
0
 91
0
280
0
281
0
  0
CLASS
  1
LAYOUT
  2
AcDbLayout
  3
ObjectDBX Classes
 90
0
 91
0
280
0
281
0
  0
ENDSEC
  0
SECTION
  2
TABLES
  0
TABLE
  2
VPORT
  5
8
330
0
100
AcDbSymbolTable
 70
1
  0
VPORT
  5
23
330
8
100
AcDbSymbolTableRecord
100
AcDbViewportTableRecord
  2
*Active
 70
0
 10
0.0
 20
0.0
 11
1.0
 21
1.0
 12
0.0
 22
0.0
 13
0.0
 23
0.0
 14
0.5
 24
0.5
 15
0.5
 25
0.5
 16
0.0
 26
0.0
 36
1.0
 17
0.0
 27
0.0
 37
0.0
 40
1000.0
 41
1.34
 42
50.0
 43
0.0
 44
0.0
 50
0.0
 51
0.0
 71
0
 72
1000
 73
1
 74
3
 75
0
 76
0
 77
0
 78
0
281
0
 65
0
146
0.0
  0
ENDTAB
  0
TABLE
  2
LTYPE
  5
2
330
0
100
AcDbSymbolTable
 70
3
  0
LTYPE
  5
24
330
2
100
AcDbSymbolTableRecord
100
AcDbLinetypeTableRecord
  2
ByBlock
 70
0
  3

 72
65
 73
0
 40
0.0
  0
LTYPE
  5
25
330
2
100
AcDbSymbolTableRecord
100
AcDbLinetypeTableRecord
  2
ByLayer
 70
0
  3

 72
65
 73
0
 40
0.0
  0
LTYPE
  5
26
330
2
100
AcDbSymbolTableRecord
100
AcDbLinetypeTableRecord
  2
Continuous
 70
0
  3

 72
65
 73
0
 40
0.0
  0
ENDTAB
  0
TABLE
  2
LAYER
  5
1
330
0
100
AcDbSymbolTable
 70
5
  0
LAYER
  5
27
330
1
100
AcDbSymbolTableRecord
100
AcDbLayerTableRecord
  2
0
 70
0
 62
7
  6
Continuous
370
-3
390
13
347
21
  0
LAYER
  5
28
330
1
100
AcDbSymbolTableRecord
100
AcDbLayerTableRecord
  2
Defpoints
 70
0
 62
7
  6
Continuous
290
0
370
-3
390
13
347
21
  0
LAYER
  5
2F
330
1
100
AcDbSymbolTableRecord
100
AcDbLayerTableRecord
  2
conductor
 70
0
 62
1
  6
Continuous
370
-3
390
13
347
21
  0
LAYER
  5
30
330
1
100
AcDbSymbolTableRecord
100
AcDbLayerTableRecord
  2
dielectric
 70
0
 62
8
  6
Continuous
370
-3
390
13
347
21
  0
LAYER
  5
31
330
1
100
AcDbSymbolTableRecord
100
AcDbLayerTableRecord
  2
substrate
 70
0
 62
5
  6
Continuous
370
-3
390
13
347
21
  0
ENDTAB
  0
TABLE
  2
STYLE
  5
5
330
0
100
AcDbSymbolTable
 70
1
  0
STYLE
  5
29
330
5
100
AcDbSymbolTableRecord
100
AcDbTextStyleTableRecord
  2
Standard
 70
0
 40
0.0
 41
1.0
 50
0.0
 71
0
 42
2.5
  3
txt
  4

  0
ENDTAB
  0
TABLE
  2
VIEW
  5
7
330
0
100
AcDbSymbolTable
 70
0
  0
ENDTAB
  0
TABLE
  2
UCS
  5
6
330
0
100
AcDbSymbolTable
 70
0
  0
ENDTAB
  0
TABLE
  2
APPID
  5
3
330
0
100
AcDbSymbolTable
 70
3
  0
APPID
  5
2A
330
3
100
AcDbSymbolTableRecord
100
AcDbRegAppTableRecord
  2
ACAD
 70
0
  0
APPID
  5
35
330
3
100
AcDbSymbolTableRecord
100
AcDbRegAppTableRecord
  2
HATCHBACKGROUNDCOLOR
 70
0
  0
APPID
  5
36
330
3
100
AcDbSymbolTableRecord
100
AcDbRegAppTableRecord
  2
EZDXF
 70
0
  0
ENDTAB
  0
TABLE
  2
DIMSTYLE
  5
4
330
0
100
AcDbSymbolTable
 70
1
100
AcDbDimStyleTable
  0
DIMSTYLE
105
2B
330
4
100
AcDbSymbolTableRecord
100
AcDbDimStyleTableRecord
  2
Standard
 70
0
 40
1.0
 41
2.5
 42
0.625
 43
3.75
 44
1.25
 45
0.0
 46
0.0
 47
0.0
 48
0.0
 49
2.5
140
2.5
141
2.5
142
0.0
143
0.03937007874
144
1.0
145
0.0
146
1.0
147
0.625
148
0.0
 69
0
 70
0
 71
0
 72
0
 73
0
 74
0
 75
0
 76
0
 77
1
 78
8
 79
3
170
0
171
3
172
1
173
0
174
0
175
0
176
0
177
0
178
0
179
2
271
2
272
2
273
2
274
3
275
0
276
0
277
2
278
44
279
0
280
0
281
0
282
0
283
0
284
8
285
0
286
0
288
0
289
3
290
0
371
-2
372
-2
  0
ENDTAB
  0
TABLE
  2
BLOCK_RECORD
  5
9
330
0
100
AcDbSymbolTable
 70
2
  0
BLOCK_RECORD
  5
17
330
9
100
AcDbSymbolTableRecord
100
AcDbBlockTableRecord
  2
*Model_Space
340
1A
 70
0
280
1
281
0
  0
BLOCK_RECORD
  5
1B
330
9
100
AcDbSymbolTableRecord
100
AcDbBlockTableRecord
  2
*Paper_Space
340
1E
 70
0
280
1
281
0
  0
ENDTAB
  0
ENDSEC
  0
SECTION
  2
BLOCKS
  0
BLOCK
  5
18
330
17
100
AcDbEntity
  8
0
100
AcDbBlockBegin
  2
*Model_Space
 70
0
 10
0.0
 20
0.0
 30
0.0
  3
*Model_Space
  1

  0
ENDBLK
  5
19
330
17
100
AcDbEntity
  8
0
100
AcDbBlockEnd
  0
BLOCK
  5
1C
330
1B
100
AcDbEntity
  8
0
100
AcDbBlockBegin
  2
*Paper_Space
 70
0
 10
0.0
 20
0.0
 30
0.0
  3
*Paper_Space
  1

  0
ENDBLK
  5
1D
330
1B
100
AcDbEntity
  8
0
100
AcDbBlockEnd
  0
ENDSEC
  0
SECTION
  2
ENTITIES
  0
LWPOLYLINE
  5
32
330
17
100
AcDbEntity
  8
conductor
100
AcDbPolyline
 90
263
 70
1
 43
0.5
 10
2419.806640625
 20
-2008.53515625
 10
2410.2421875
 20
-2018.099609375
 10
2400.677734375
 20
-2018.099609375
 10
2391.11328125
 20
-2018.099609375
 10
2381.548828125
 20
-2018.099609375
 10
2371.984375
 20
-2018.099609375
 10
2362.419921875
 20
-2018.099609375
 10
2352.85546875
 20
-2018.099609375
 10
2343.291015625
 20
-2018.099609375
 10
2333.7265625
 20
-2018.099609375
 10
2324.162109375
 20
-2018.099609375
 10
2314.59765625
 20
-2027.6640625
 10
2305.033203125
 20
-2027.6640625
 10
2295.46875
 20
-2037.228515625
 10
2285.904296875
 20
-2037.228515625
 10
2276.33984375
 20
-2046.79296875
 10
2266.775390625
 20
-2046.79296875
 10
2257.2109375
 20
-2056.357421875
 10
2247.646484375
 20
-2056.357421875
 10
2238.08203125
 20
-2065.921875
 10
2228.517578125
 20
-2065.921875
 10
2218.953125
 20
-2075.486328125
 10
2209.388671875
 20
-2075.486328125
 10
2209.388671875
 20
-2085.05078125
 10
2199.82421875
 20
-2094.615234375
 10
2190.259765625
 20
-2094.615234375
 10
2180.6953125
 20
-2104.1796875
 10
2171.130859375
 20
-2104.1796875
 10
2161.56640625
 20
-2113.744140625
 10
2152.001953125
 20
-2123.30859375
 10
2142.4375
 20
-2132.873046875
 10
2132.873046875
 20
-2142.4375
 10
2123.30859375
 20
-2152.001953125
 10
2113.744140625
 20
-2161.56640625
 10
2104.1796875
 20
-2171.130859375
 10
2094.615234375
 20
-2180.6953125
 10
2085.05078125
 20
-2190.259765625
 10
2085.05078125
 20
-2199.82421875
 10
2075.486328125
 20
-2209.388671875
 10
2065.921875
 20
-2218.953125
 10
2056.357421875
 20
-2228.517578125
 10
2056.357421875
 20
-2238.08203125
 10
2056.357421875
 20
-2247.646484375
 10
2056.357421875
 20
-2257.2109375
 10
2046.79296875
 20
-2266.775390625
 10
2046.79296875
 20
-2276.33984375
 10
2037.228515625
 20
-2285.904296875
 10
2037.228515625
 20
-2295.46875
 10
2027.6640625
 20
-2305.033203125
 10
2027.6640625
 20
-2314.59765625
 10
2018.099609375
 20
-2324.162109375
 10
2018.099609375
 20
-2333.7265625
 10
2018.099609375
 20
-2343.291015625
 10
2018.099609375
 20
-2352.85546875
 10
2018.099609375
 20
-2362.419921875
 10
2018.099609375
 20
-2371.984375
 10
2018.099609375
 20
-2381.548828125
 10
2018.099609375
 20
-2391.11328125
 10
2008.53515625
 20
-2400.677734375
 10
2008.53515625
 20
-2410.2421875
 10
2008.53515625
 20
-2419.806640625
 10
2018.099609375
 20
-2429.37109375
 10
2008.53515625
 20
-2438.935546875
 10
2018.099609375
 20
-2448.5
 10
2018.099609375
 20
-2458.064453125
 10
2018.099609375
 20
-2467.62890625
 10
2018.099609375
 20
-2477.193359375
 10
2018.099609375
 20
-2486.7578125
 10
2018.099609375
 20
-2496.322265625
 10
2018.099609375
 20
-2505.88671875
 10
2018.099609375
 20
-2515.451171875
 10
2018.099609375
 20
-2525.015625
 10
2018.099609375
 20
-2534.580078125
 10
2018.099609375
 20
-2544.14453125
 10
2027.6640625
 20
-2553.708984375
 10
2018.099609375
 20
-2563.2734375
 10
2027.6640625
 20
-2572.837890625
 10
2037.228515625
 20
-2582.40234375
 10
2037.228515625
 20
-2591.966796875
 10
2037.228515625
 20
-2601.53125
 10
2046.79296875
 20
-2611.095703125
 10
2046.79296875
 20
-2620.66015625
 10
2056.357421875
 20
-2630.224609375
 10
2056.357421875
 20
-2639.7890625
 10
2065.921875
 20
-2649.353515625
 10
2075.486328125
 20
-2658.91796875
 10
2075.486328125
 20
-2668.482421875
 10
2085.05078125
 20
-2678.046875
 10
2094.615234375
 20
-2687.611328125
 10
2094.615234375
 20
-2697.17578125
 10
2104.1796875
 20
-2706.740234375
 10
2113.744140625
 20
-2716.3046875
 10
2123.30859375
 20
-2725.869140625
 10
2132.873046875
 20
-2735.43359375
 10
2132.873046875
 20
-2744.998046875
 10
2142.4375
 20
-2744.998046875
 10
2152.001953125
 20
-2754.5625
 10
2161.56640625
 20
-2764.126953125
 10
2161.56640625
 20
-2773.69140625
 10
2171.130859375
 20
-2783.255859375
 10
2180.6953125
 20
-2783.255859375
 10
2190.259765625
 20
-2792.8203125
 10
2199.82421875
 20
-2792.8203125
 10
2209.388671875
 20
-2802.384765625
 10
2218.953125
 20
-2811.94921875
 10
2228.517578125
 20
-2821.513671875
 10
2238.08203125
 20
-2831.078125
 10
2247.646484375
 20
-2831.078125
 10
2257.2109375
 20
-2840.642578125
 10
2266.775390625
 20
-2840.642578125
 10
2276.33984375
 20
-2840.642578125
 10
2285.904296875
 20
-2850.20703125
 10
2295.46875
 20
-2850.20703125
 10
2305.033203125
 20
-2850.20703125
 10
2314.59765625
 20
-2850.20703125
 10
2324.162109375
 20
-2859.771484375
 10
2333.7265625
 20
-2859.771484375
 10
2343.291015625
 20
-2859.771484375
 10
2352.85546875
 20
-2859.771484375
 10
2362.419921875
 20
-2869.3359375
 10
2371.984375
 20
-2869.3359375
 10
2381.548828125
 20
-2869.3359375
 10
2391.11328125
 20
-2869.3359375
 10
2400.677734375
 20
-2878.900390625
 10
2410.2421875
 20
-2878.900390625
 10
2419.806640625
 20
-2878.900390625
 10
2429.37109375
 20
-2888.46484375
 10
2438.935546875
 20
-2888.46484375
 10
2448.5
 20
-2888.46484375
 10
2458.064453125
 20
-2888.46484375
 10
2467.62890625
 20
-2878.900390625
 10
2477.193359375
 20
-2878.900390625
 10
2486.7578125
 20
-2878.900390625
 10
2496.322265625
 20
-2888.46484375
 10
2505.88671875
 20
-2878.900390625
 10
2515.451171875
 20
-2878.900390625
 10
2525.015625
 20
-2878.900390625
 10
2534.580078125
 20
-2869.3359375
 10
2544.14453125
 20
-2869.3359375
 10
2553.708984375
 20
-2869.3359375
 10
2563.2734375
 20
-2869.3359375
 10
2572.837890625
 20
-2859.771484375
 10
2582.40234375
 20
-2859.771484375
 10
2591.966796875
 20
-2859.771484375
 10
2601.53125
 20
-2850.20703125
 10
2611.095703125
 20
-2850.20703125
 10
2620.66015625
 20
-2850.20703125
 10
2630.224609375
 20
-2840.642578125
 10
2639.7890625
 20
-2840.642578125
 10
2649.353515625
 20
-2831.078125
 10
2658.91796875
 20
-2821.513671875
 10
2668.482421875
 20
-2821.513671875
 10
2668.482421875
 20
-2811.94921875
 10
2678.046875
 20
-2802.384765625
 10
2687.611328125
 20
-2802.384765625
 10
2697.17578125
 20
-2792.8203125
 10
2706.740234375
 20
-2792.8203125
 10
2716.3046875
 20
-2783.255859375
 10
2725.869140625
 20
-2773.69140625
 10
2725.869140625
 20
-2764.126953125
 10
2735.43359375
 20
-2754.5625
 10
2744.998046875
 20
-2754.5625
 10
2754.5625
 20
-2744.998046875
 10
2764.126953125
 20
-2744.998046875
 10
2773.69140625
 20
-2735.43359375
 10
2773.69140625
 20
-2725.869140625
 10
2783.255859375
 20
-2716.3046875
 10
2783.255859375
 20
-2706.740234375
 10
2792.8203125
 20
-2697.17578125
 10
2802.384765625
 20
-2687.611328125
 10
2811.94921875
 20
-2678.046875
 10
2821.513671875
 20
-2668.482421875
 10
2831.078125
 20
-2668.482421875
 10
2831.078125
 20
-2658.91796875
 10
2831.078125
 20
-2649.353515625
 10
2840.642578125
 20
-2639.7890625
 10
2840.642578125
 20
-2630.224609375
 10
2840.642578125
 20
-2620.66015625
 10
2840.642578125
 20
-2611.095703125
 10
2850.20703125
 20
-2601.53125
 10
2850.20703125
 20
-2591.966796875
 10
2859.771484375
 20
-2582.40234375
 10
2869.3359375
 20
-2572.837890625
 10
2859.771484375
 20
-2563.2734375
 10
2869.3359375
 20
-2553.708984375
 10
2869.3359375
 20
-2544.14453125
 10
2869.3359375
 20
-2534.580078125
 10
2869.3359375
 20
-2525.015625
 10
2878.900390625
 20
-2515.451171875
 10
2878.900390625
 20
-2505.88671875
 10
2878.900390625
 20
-2496.322265625
 10
2878.900390625
 20
-2486.7578125
 10
2888.46484375
 20
-2477.193359375
 10
2878.900390625
 20
-2467.62890625
 10
2888.46484375
 20
-2458.064453125
 10
2878.900390625
 20
-2448.5
 10
2878.900390625
 20
-2438.935546875
 10
2878.900390625
 20
-2429.37109375
 10
2878.900390625
 20
-2419.806640625
 10
2878.900390625
 20
-2410.2421875
 10
2878.900390625
 20
-2400.677734375
 10
2878.900390625
 20
-2391.11328125
 10
2878.900390625
 20
-2381.548828125
 10
2878.900390625
 20
-2371.984375
 10
2878.900390625
 20
-2362.419921875
 10
2869.3359375
 20
-2352.85546875
 10
2869.3359375
 20
-2343.291015625
 10
2869.3359375
 20
-2333.7265625
 10
2859.771484375
 20
-2324.162109375
 10
2859.771484375
 20
-2314.59765625
 10
2859.771484375
 20
-2305.033203125
 10
2850.20703125
 20
-2295.46875
 10
2840.642578125
 20
-2285.904296875
 10
2840.642578125
 20
-2276.33984375
 10
2840.642578125
 20
-2266.775390625
 10
2840.642578125
 20
-2257.2109375
 10
2831.078125
 20
-2247.646484375
 10
2831.078125
 20
-2238.08203125
 10
2821.513671875
 20
-2228.517578125
 10
2811.94921875
 20
-2218.953125
 10
2811.94921875
 20
-2209.388671875
 10
2802.384765625
 20
-2199.82421875
 10
2792.8203125
 20
-2190.259765625
 10
2792.8203125
 20
-2180.6953125
 10
2783.255859375
 20
-2171.130859375
 10
2773.69140625
 20
-2161.56640625
 10
2773.69140625
 20
-2152.001953125
 10
2764.126953125
 20
-2142.4375
 10
2754.5625
 20
-2142.4375
 10
2744.998046875
 20
-2132.873046875
 10
2735.43359375
 20
-2123.30859375
 10
2725.869140625
 20
-2113.744140625
 10
2716.3046875
 20
-2104.1796875
 10
2706.740234375
 20
-2094.615234375
 10
2697.17578125
 20
-2085.05078125
 10
2687.611328125
 20
-2085.05078125
 10
2678.046875
 20
-2075.486328125
 10
2668.482421875
 20
-2065.921875
 10
2658.91796875
 20
-2065.921875
 10
2649.353515625
 20
-2056.357421875
 10
2639.7890625
 20
-2056.357421875
 10
2630.224609375
 20
-2056.357421875
 10
2620.66015625
 20
-2046.79296875
 10
2611.095703125
 20
-2046.79296875
 10
2601.53125
 20
-2046.79296875
 10
2591.966796875
 20
-2037.228515625
 10
2582.40234375
 20
-2037.228515625
 10
2572.837890625
 20
-2027.6640625
 10
2563.2734375
 20
-2027.6640625
 10
2553.708984375
 20
-2018.099609375
 10
2544.14453125
 20
-2018.099609375
 10
2534.580078125
 20
-2018.099609375
 10
2525.015625
 20
-2018.099609375
 10
2515.451171875
 20
-2018.099609375
 10
2505.88671875
 20
-2008.53515625
 10
2496.322265625
 20
-2008.53515625
 10
2486.7578125
 20
-2008.53515625
 10
2477.193359375
 20
-2008.53515625
 10
2467.62890625
 20
-2008.53515625
 10
2458.064453125
 20
-2008.53515625
 10
2448.5
 20
-2008.53515625
 10
2438.935546875
 20
-2008.53515625
 10
2429.37109375
 20
-2008.53515625
  0
LWPOLYLINE
  5
33
330
17
100
AcDbEntity
  8
substrate
100
AcDbPolyline
 90
2044
 70
1
 43
0.5
 10
0.0
 20
-0.0
 10
0.0
 20
-9.564453125
 10
0.0
 20
-19.12890625
 10
0.0
 20
-28.693359375
 10
0.0
 20
-38.2578125
 10
0.0
 20
-47.822265625
 10
0.0
 20
-57.38671875
 10
0.0
 20
-66.951171875
 10
0.0
 20
-76.515625
 10
0.0
 20
-86.080078125
 10
0.0
 20
-95.64453125
 10
0.0
 20
-105.208984375
 10
0.0
 20
-114.7734375
 10
0.0
 20
-124.337890625
 10
0.0
 20
-133.90234375
 10
0.0
 20
-143.466796875
 10
0.0
 20
-153.03125
 10
0.0
 20
-162.595703125
 10
0.0
 20
-172.16015625
 10
0.0
 20
-181.724609375
 10
0.0
 20
-191.2890625
 10
0.0
 20
-200.853515625
 10
0.0
 20
-210.41796875
 10
0.0
 20
-219.982421875
 10
0.0
 20
-229.546875
 10
0.0
 20
-239.111328125
 10
0.0
 20
-248.67578125
 10
0.0
 20
-258.240234375
 10
0.0
 20
-267.8046875
 10
0.0
 20
-277.369140625
 10
0.0
 20
-286.93359375
 10
0.0
 20
-296.498046875
 10
0.0
 20
-306.0625
 10
0.0
 20
-315.626953125
 10
0.0
 20
-325.19140625
 10
0.0
 20
-334.755859375
 10
0.0
 20
-344.3203125
 10
0.0
 20
-353.884765625
 10
0.0
 20
-363.44921875
 10
0.0
 20
-373.013671875
 10
0.0
 20
-382.578125
 10
0.0
 20
-392.142578125
 10
0.0
 20
-401.70703125
 10
0.0
 20
-411.271484375
 10
0.0
 20
-420.8359375
 10
0.0
 20
-430.400390625
 10
0.0
 20
-439.96484375
 10
0.0
 20
-449.529296875
 10
0.0
 20
-459.09375
 10
0.0
 20
-468.658203125
 10
0.0
 20
-478.22265625
 10
0.0
 20
-487.787109375
 10
0.0
 20
-497.3515625
 10
0.0
 20
-506.916015625
 10
0.0
 20
-516.48046875
 10
0.0
 20
-526.044921875
 10
0.0
 20
-535.609375
 10
0.0
 20
-545.173828125
 10
0.0
 20
-554.73828125
 10
0.0
 20
-564.302734375
 10
0.0
 20
-573.8671875
 10
0.0
 20
-583.431640625
 10
0.0
 20
-592.99609375
 10
0.0
 20
-602.560546875
 10
0.0
 20
-612.125
 10
0.0
 20
-621.689453125
 10
0.0
 20
-631.25390625
 10
0.0
 20
-640.818359375
 10
0.0
 20
-650.3828125
 10
0.0
 20
-659.947265625
 10
0.0
 20
-669.51171875
 10
0.0
 20
-679.076171875
 10
0.0
 20
-688.640625
 10
0.0
 20
-698.205078125
 10
0.0
 20
-707.76953125
 10
0.0
 20
-717.333984375
 10
0.0
 20
-726.8984375
 10
0.0
 20
-736.462890625
 10
0.0
 20
-746.02734375
 10
0.0
 20
-755.591796875
 10
0.0
 20
-765.15625
 10
0.0
 20
-774.720703125
 10
0.0
 20
-784.28515625
 10
0.0
 20
-793.849609375
 10
0.0
 20
-803.4140625
 10
0.0
 20
-812.978515625
 10
0.0
 20
-822.54296875
 10
0.0
 20
-832.107421875
 10
0.0
 20
-841.671875
 10
0.0
 20
-851.236328125
 10
0.0
 20
-860.80078125
 10
0.0
 20
-870.365234375
 10
0.0
 20
-879.9296875
 10
0.0
 20
-889.494140625
 10
0.0
 20
-899.05859375
 10
0.0
 20
-908.623046875
 10
0.0
 20
-918.1875
 10
0.0
 20
-927.751953125
 10
0.0
 20
-937.31640625
 10
0.0
 20
-946.880859375
 10
0.0
 20
-956.4453125
 10
0.0
 20
-966.009765625
 10
0.0
 20
-975.57421875
 10
0.0
 20
-985.138671875
 10
0.0
 20
-994.703125
 10
0.0
 20
-1004.267578125
 10
0.0
 20
-1013.83203125
 10
0.0
 20
-1023.396484375
 10
0.0
 20
-1032.9609375
 10
0.0
 20
-1042.525390625
 10
0.0
 20
-1052.08984375
 10
0.0
 20
-1061.654296875
 10
0.0
 20
-1071.21875
 10
0.0
 20
-1080.783203125
 10
0.0
 20
-1090.34765625
 10
0.0
 20
-1099.912109375
 10
0.0
 20
-1109.4765625
 10
0.0
 20
-1119.041015625
 10
0.0
 20
-1128.60546875
 10
0.0
 20
-1138.169921875
 10
0.0
 20
-1147.734375
 10
0.0
 20
-1157.298828125
 10
0.0
 20
-1166.86328125
 10
0.0
 20
-1176.427734375
 10
0.0
 20
-1185.9921875
 10
0.0
 20
-1195.556640625
 10
0.0
 20
-1205.12109375
 10
0.0
 20
-1214.685546875
 10
0.0
 20
-1224.25
 10
0.0
 20
-1233.814453125
 10
0.0
 20
-1243.37890625
 10
0.0
 20
-1252.943359375
 10
0.0
 20
-1262.5078125
 10
0.0
 20
-1272.072265625
 10
0.0
 20
-1281.63671875
 10
0.0
 20
-1291.201171875
 10
0.0
 20
-1300.765625
 10
0.0
 20
-1310.330078125
 10
0.0
 20
-1319.89453125
 10
0.0
 20
-1329.458984375
 10
0.0
 20
-1339.0234375
 10
0.0
 20
-1348.587890625
 10
0.0
 20
-1358.15234375
 10
0.0
 20
-1367.716796875
 10
0.0
 20
-1377.28125
 10
0.0
 20
-1386.845703125
 10
0.0
 20
-1396.41015625
 10
0.0
 20
-1405.974609375
 10
0.0
 20
-1415.5390625
 10
0.0
 20
-1425.103515625
 10
0.0
 20
-1434.66796875
 10
0.0
 20
-1444.232421875
 10
0.0
 20
-1453.796875
 10
0.0
 20
-1463.361328125
 10
0.0
 20
-1472.92578125
 10
0.0
 20
-1482.490234375
 10
0.0
 20
-1492.0546875
 10
0.0
 20
-1501.619140625
 10
0.0
 20
-1511.18359375
 10
0.0
 20
-1520.748046875
 10
0.0
 20
-1530.3125
 10
0.0
 20
-1539.876953125
 10
0.0
 20
-1549.44140625
 10
0.0
 20
-1559.005859375
 10
0.0
 20
-1568.5703125
 10
0.0
 20
-1578.134765625
 10
0.0
 20
-1587.69921875
 10
0.0
 20
-1597.263671875
 10
0.0
 20
-1606.828125
 10
0.0
 20
-1616.392578125
 10
0.0
 20
-1625.95703125
 10
0.0
 20
-1635.521484375
 10
0.0
 20
-1645.0859375
 10
0.0
 20
-1654.650390625
 10
0.0
 20
-1664.21484375
 10
0.0
 20
-1673.779296875
 10
0.0
 20
-1683.34375
 10
0.0
 20
-1692.908203125
 10
0.0
 20
-1702.47265625
 10
0.0
 20
-1712.037109375
 10
0.0
 20
-1721.6015625
 10
0.0
 20
-1731.166015625
 10
0.0
 20
-1740.73046875
 10
0.0
 20
-1750.294921875
 10
0.0
 20
-1759.859375
 10
0.0
 20
-1769.423828125
 10
0.0
 20
-1778.98828125
 10
0.0
 20
-1788.552734375
 10
0.0
 20
-1798.1171875
 10
0.0
 20
-1807.681640625
 10
0.0
 20
-1817.24609375
 10
0.0
 20
-1826.810546875
 10
0.0
 20
-1836.375
 10
0.0
 20
-1845.939453125
 10
0.0
 20
-1855.50390625
 10
0.0
 20
-1865.068359375
 10
0.0
 20
-1874.6328125
 10
0.0
 20
-1884.197265625
 10
0.0
 20
-1893.76171875
 10
0.0
 20
-1903.326171875
 10
0.0
 20
-1912.890625
 10
0.0
 20
-1922.455078125
 10
0.0
 20
-1932.01953125
 10
0.0
 20
-1941.583984375
 10
0.0
 20
-1951.1484375
 10
0.0
 20
-1960.712890625
 10
0.0
 20
-1970.27734375
 10
0.0
 20
-1979.841796875
 10
0.0
 20
-1989.40625
 10
0.0
 20
-1998.970703125
 10
0.0
 20
-2008.53515625
 10
0.0
 20
-2018.099609375
 10
0.0
 20
-2027.6640625
 10
0.0
 20
-2037.228515625
 10
0.0
 20
-2046.79296875
 10
0.0
 20
-2056.357421875
 10
0.0
 20
-2065.921875
 10
0.0
 20
-2075.486328125
 10
0.0
 20
-2085.05078125
 10
0.0
 20
-2094.615234375
 10
0.0
 20
-2104.1796875
 10
0.0
 20
-2113.744140625
 10
0.0
 20
-2123.30859375
 10
0.0
 20
-2132.873046875
 10
0.0
 20
-2142.4375
 10
0.0
 20
-2152.001953125
 10
0.0
 20
-2161.56640625
 10
0.0
 20
-2171.130859375
 10
0.0
 20
-2180.6953125
 10
0.0
 20
-2190.259765625
 10
0.0
 20
-2199.82421875
 10
0.0
 20
-2209.388671875
 10
0.0
 20
-2218.953125
 10
0.0
 20
-2228.517578125
 10
0.0
 20
-2238.08203125
 10
0.0
 20
-2247.646484375
 10
0.0
 20
-2257.2109375
 10
0.0
 20
-2266.775390625
 10
0.0
 20
-2276.33984375
 10
0.0
 20
-2285.904296875
 10
0.0
 20
-2295.46875
 10
0.0
 20
-2305.033203125
 10
0.0
 20
-2314.59765625
 10
0.0
 20
-2324.162109375
 10
0.0
 20
-2333.7265625
 10
0.0
 20
-2343.291015625
 10
0.0
 20
-2352.85546875
 10
0.0
 20
-2362.419921875
 10
0.0
 20
-2371.984375
 10
0.0
 20
-2381.548828125
 10
0.0
 20
-2391.11328125
 10
0.0
 20
-2400.677734375
 10
0.0
 20
-2410.2421875
 10
0.0
 20
-2419.806640625
 10
0.0
 20
-2429.37109375
 10
0.0
 20
-2438.935546875
 10
0.0
 20
-2448.5
 10
0.0
 20
-2458.064453125
 10
0.0
 20
-2467.62890625
 10
0.0
 20
-2477.193359375
 10
0.0
 20
-2486.7578125
 10
0.0
 20
-2496.322265625
 10
0.0
 20
-2505.88671875
 10
0.0
 20
-2515.451171875
 10
0.0
 20
-2525.015625
 10
0.0
 20
-2534.580078125
 10
0.0
 20
-2544.14453125
 10
0.0
 20
-2553.708984375
 10
0.0
 20
-2563.2734375
 10
0.0
 20
-2572.837890625
 10
0.0
 20
-2582.40234375
 10
0.0
 20
-2591.966796875
 10
0.0
 20
-2601.53125
 10
0.0
 20
-2611.095703125
 10
0.0
 20
-2620.66015625
 10
0.0
 20
-2630.224609375
 10
0.0
 20
-2639.7890625
 10
0.0
 20
-2649.353515625
 10
0.0
 20
-2658.91796875
 10
0.0
 20
-2668.482421875
 10
0.0
 20
-2678.046875
 10
0.0
 20
-2687.611328125
 10
0.0
 20
-2697.17578125
 10
0.0
 20
-2706.740234375
 10
0.0
 20
-2716.3046875
 10
0.0
 20
-2725.869140625
 10
0.0
 20
-2735.43359375
 10
0.0
 20
-2744.998046875
 10
0.0
 20
-2754.5625
 10
0.0
 20
-2764.126953125
 10
0.0
 20
-2773.69140625
 10
0.0
 20
-2783.255859375
 10
0.0
 20
-2792.8203125
 10
0.0
 20
-2802.384765625
 10
0.0
 20
-2811.94921875
 10
0.0
 20
-2821.513671875
 10
0.0
 20
-2831.078125
 10
0.0
 20
-2840.642578125
 10
0.0
 20
-2850.20703125
 10
0.0
 20
-2859.771484375
 10
0.0
 20
-2869.3359375
 10
0.0
 20
-2878.900390625
 10
0.0
 20
-2888.46484375
 10
0.0
 20
-2898.029296875
 10
0.0
 20
-2907.59375
 10
0.0
 20
-2917.158203125
 10
0.0
 20
-2926.72265625
 10
0.0
 20
-2936.287109375
 10
0.0
 20
-2945.8515625
 10
0.0
 20
-2955.416015625
 10
0.0
 20
-2964.98046875
 10
0.0
 20
-2974.544921875
 10
0.0
 20
-2984.109375
 10
0.0
 20
-2993.673828125
 10
0.0
 20
-3003.23828125
 10
0.0
 20
-3012.802734375
 10
0.0
 20
-3022.3671875
 10
0.0
 20
-3031.931640625
 10
0.0
 20
-3041.49609375
 10
0.0
 20
-3051.060546875
 10
0.0
 20
-3060.625
 10
0.0
 20
-3070.189453125
 10
0.0
 20
-3079.75390625
 10
0.0
 20
-3089.318359375
 10
0.0
 20
-3098.8828125
 10
0.0
 20
-3108.447265625
 10
0.0
 20
-3118.01171875
 10
0.0
 20
-3127.576171875
 10
0.0
 20
-3137.140625
 10
0.0
 20
-3146.705078125
 10
0.0
 20
-3156.26953125
 10
0.0
 20
-3165.833984375
 10
0.0
 20
-3175.3984375
 10
0.0
 20
-3184.962890625
 10
0.0
 20
-3194.52734375
 10
0.0
 20
-3204.091796875
 10
0.0
 20
-3213.65625
 10
0.0
 20
-3223.220703125
 10
0.0
 20
-3232.78515625
 10
0.0
 20
-3242.349609375
 10
0.0
 20
-3251.9140625
 10
0.0
 20
-3261.478515625
 10
0.0
 20
-3271.04296875
 10
0.0
 20
-3280.607421875
 10
0.0
 20
-3290.171875
 10
0.0
 20
-3299.736328125
 10
0.0
 20
-3309.30078125
 10
0.0
 20
-3318.865234375
 10
0.0
 20
-3328.4296875
 10
0.0
 20
-3337.994140625
 10
0.0
 20
-3347.55859375
 10
0.0
 20
-3357.123046875
 10
0.0
 20
-3366.6875
 10
0.0
 20
-3376.251953125
 10
0.0
 20
-3385.81640625
 10
0.0
 20
-3395.380859375
 10
0.0
 20
-3404.9453125
 10
0.0
 20
-3414.509765625
 10
0.0
 20
-3424.07421875
 10
0.0
 20
-3433.638671875
 10
0.0
 20
-3443.203125
 10
0.0
 20
-3452.767578125
 10
0.0
 20
-3462.33203125
 10
0.0
 20
-3471.896484375
 10
0.0
 20
-3481.4609375
 10
0.0
 20
-3491.025390625
 10
0.0
 20
-3500.58984375
 10
0.0
 20
-3510.154296875
 10
0.0
 20
-3519.71875
 10
0.0
 20
-3529.283203125
 10
0.0
 20
-3538.84765625
 10
0.0
 20
-3548.412109375
 10
0.0
 20
-3557.9765625
 10
0.0
 20
-3567.541015625
 10
0.0
 20
-3577.10546875
 10
0.0
 20
-3586.669921875
 10
0.0
 20
-3596.234375
 10
0.0
 20
-3605.798828125
 10
0.0
 20
-3615.36328125
 10
0.0
 20
-3624.927734375
 10
0.0
 20
-3634.4921875
 10
0.0
 20
-3644.056640625
 10
0.0
 20
-3653.62109375
 10
0.0
 20
-3663.185546875
 10
0.0
 20
-3672.75
 10
0.0
 20
-3682.314453125
 10
0.0
 20
-3691.87890625
 10
0.0
 20
-3701.443359375
 10
0.0
 20
-3711.0078125
 10
0.0
 20
-3720.572265625
 10
0.0
 20
-3730.13671875
 10
0.0
 20
-3739.701171875
 10
0.0
 20
-3749.265625
 10
0.0
 20
-3758.830078125
 10
0.0
 20
-3768.39453125
 10
0.0
 20
-3777.958984375
 10
0.0
 20
-3787.5234375
 10
0.0
 20
-3797.087890625
 10
0.0
 20
-3806.65234375
 10
0.0
 20
-3816.216796875
 10
0.0
 20
-3825.78125
 10
0.0
 20
-3835.345703125
 10
0.0
 20
-3844.91015625
 10
0.0
 20
-3854.474609375
 10
0.0
 20
-3864.0390625
 10
0.0
 20
-3873.603515625
 10
0.0
 20
-3883.16796875
 10
0.0
 20
-3892.732421875
 10
0.0
 20
-3902.296875
 10
0.0
 20
-3911.861328125
 10
0.0
 20
-3921.42578125
 10
0.0
 20
-3930.990234375
 10
0.0
 20
-3940.5546875
 10
0.0
 20
-3950.119140625
 10
0.0
 20
-3959.68359375
 10
0.0
 20
-3969.248046875
 10
0.0
 20
-3978.8125
 10
0.0
 20
-3988.376953125
 10
0.0
 20
-3997.94140625
 10
0.0
 20
-4007.505859375
 10
0.0
 20
-4017.0703125
 10
0.0
 20
-4026.634765625
 10
0.0
 20
-4036.19921875
 10
0.0
 20
-4045.763671875
 10
0.0
 20
-4055.328125
 10
0.0
 20
-4064.892578125
 10
0.0
 20
-4074.45703125
 10
0.0
 20
-4084.021484375
 10
0.0
 20
-4093.5859375
 10
0.0
 20
-4103.150390625
 10
0.0
 20
-4112.71484375
 10
0.0
 20
-4122.279296875
 10
0.0
 20
-4131.84375
 10
0.0
 20
-4141.408203125
 10
0.0
 20
-4150.97265625
 10
0.0
 20
-4160.537109375
 10
0.0
 20
-4170.1015625
 10
0.0
 20
-4179.666015625
 10
0.0
 20
-4189.23046875
 10
0.0
 20
-4198.794921875
 10
0.0
 20
-4208.359375
 10
0.0
 20
-4217.923828125
 10
0.0
 20
-4227.48828125
 10
0.0
 20
-4237.052734375
 10
0.0
 20
-4246.6171875
 10
0.0
 20
-4256.181640625
 10
0.0
 20
-4265.74609375
 10
0.0
 20
-4275.310546875
 10
0.0
 20
-4284.875
 10
0.0
 20
-4294.439453125
 10
0.0
 20
-4304.00390625
 10
0.0
 20
-4313.568359375
 10
0.0
 20
-4323.1328125
 10
0.0
 20
-4332.697265625
 10
0.0
 20
-4342.26171875
 10
0.0
 20
-4351.826171875
 10
0.0
 20
-4361.390625
 10
0.0
 20
-4370.955078125
 10
0.0
 20
-4380.51953125
 10
0.0
 20
-4390.083984375
 10
0.0
 20
-4399.6484375
 10
0.0
 20
-4409.212890625
 10
0.0
 20
-4418.77734375
 10
0.0
 20
-4428.341796875
 10
0.0
 20
-4437.90625
 10
0.0
 20
-4447.470703125
 10
0.0
 20
-4457.03515625
 10
0.0
 20
-4466.599609375
 10
0.0
 20
-4476.1640625
 10
0.0
 20
-4485.728515625
 10
0.0
 20
-4495.29296875
 10
0.0
 20
-4504.857421875
 10
0.0
 20
-4514.421875
 10
0.0
 20
-4523.986328125
 10
0.0
 20
-4533.55078125
 10
0.0
 20
-4543.115234375
 10
0.0
 20
-4552.6796875
 10
0.0
 20
-4562.244140625
 10
0.0
 20
-4571.80859375
 10
0.0
 20
-4581.373046875
 10
0.0
 20
-4590.9375
 10
0.0
 20
-4600.501953125
 10
0.0
 20
-4610.06640625
 10
0.0
 20
-4619.630859375
 10
0.0
 20
-4629.1953125
 10
0.0
 20
-4638.759765625
 10
0.0
 20
-4648.32421875
 10
0.0
 20
-4657.888671875
 10
0.0
 20
-4667.453125
 10
0.0
 20
-4677.017578125
 10
0.0
 20
-4686.58203125
 10
0.0
 20
-4696.146484375
 10
0.0
 20
-4705.7109375
 10
0.0
 20
-4715.275390625
 10
0.0
 20
-4724.83984375
 10
0.0
 20
-4734.404296875
 10
0.0
 20
-4743.96875
 10
0.0
 20
-4753.533203125
 10
0.0
 20
-4763.09765625
 10
0.0
 20
-4772.662109375
 10
0.0
 20
-4782.2265625
 10
0.0
 20
-4791.791015625
 10
0.0
 20
-4801.35546875
 10
0.0
 20
-4810.919921875
 10
0.0
 20
-4820.484375
 10
0.0
 20
-4830.048828125
 10
0.0
 20
-4839.61328125
 10
0.0
 20
-4849.177734375
 10
0.0
 20
-4858.7421875
 10
0.0
 20
-4868.306640625
 10
0.0
 20
-4877.87109375
 10
0.0
 20
-4887.435546875
 10
9.564453125
 20
-4887.435546875
 10
19.12890625
 20
-4887.435546875
 10
28.693359375
 20
-4887.435546875
 10
38.2578125
 20
-4887.435546875
 10
47.822265625
 20
-4887.435546875
 10
57.38671875
 20
-4887.435546875
 10
66.951171875
 20
-4887.435546875
 10
76.515625
 20
-4887.435546875
 10
86.080078125
 20
-4887.435546875
 10
95.64453125
 20
-4887.435546875
 10
105.208984375
 20
-4887.435546875
 10
114.7734375
 20
-4887.435546875
 10
124.337890625
 20
-4887.435546875
 10
133.90234375
 20
-4887.435546875
 10
143.466796875
 20
-4887.435546875
 10
153.03125
 20
-4887.435546875
 10
162.595703125
 20
-4887.435546875
 10
172.16015625
 20
-4887.435546875
 10
181.724609375
 20
-4887.435546875
 10
191.2890625
 20
-4887.435546875
 10
200.853515625
 20
-4887.435546875
 10
210.41796875
 20
-4887.435546875
 10
219.982421875
 20
-4887.435546875
 10
229.546875
 20
-4887.435546875
 10
239.111328125
 20
-4887.435546875
 10
248.67578125
 20
-4887.435546875
 10
258.240234375
 20
-4887.435546875
 10
267.8046875
 20
-4887.435546875
 10
277.369140625
 20
-4887.435546875
 10
286.93359375
 20
-4887.435546875
 10
296.498046875
 20
-4887.435546875
 10
306.0625
 20
-4887.435546875
 10
315.626953125
 20
-4887.435546875
 10
325.19140625
 20
-4887.435546875
 10
334.755859375
 20
-4887.435546875
 10
344.3203125
 20
-4887.435546875
 10
353.884765625
 20
-4887.435546875
 10
363.44921875
 20
-4887.435546875
 10
373.013671875
 20
-4887.435546875
 10
382.578125
 20
-4887.435546875
 10
392.142578125
 20
-4887.435546875
 10
401.70703125
 20
-4887.435546875
 10
411.271484375
 20
-4887.435546875
 10
420.8359375
 20
-4887.435546875
 10
430.400390625
 20
-4887.435546875
 10
439.96484375
 20
-4887.435546875
 10
449.529296875
 20
-4887.435546875
 10
459.09375
 20
-4887.435546875
 10
468.658203125
 20
-4887.435546875
 10
478.22265625
 20
-4887.435546875
 10
487.787109375
 20
-4887.435546875
 10
497.3515625
 20
-4887.435546875
 10
506.916015625
 20
-4887.435546875
 10
516.48046875
 20
-4887.435546875
 10
526.044921875
 20
-4887.435546875
 10
535.609375
 20
-4887.435546875
 10
545.173828125
 20
-4887.435546875
 10
554.73828125
 20
-4887.435546875
 10
564.302734375
 20
-4887.435546875
 10
573.8671875
 20
-4887.435546875
 10
583.431640625
 20
-4887.435546875
 10
592.99609375
 20
-4887.435546875
 10
602.560546875
 20
-4887.435546875
 10
612.125
 20
-4887.435546875
 10
621.689453125
 20
-4887.435546875
 10
631.25390625
 20
-4887.435546875
 10
640.818359375
 20
-4887.435546875
 10
650.3828125
 20
-4887.435546875
 10
659.947265625
 20
-4887.435546875
 10
669.51171875
 20
-4887.435546875
 10
679.076171875
 20
-4887.435546875
 10
688.640625
 20
-4887.435546875
 10
698.205078125
 20
-4887.435546875
 10
707.76953125
 20
-4887.435546875
 10
717.333984375
 20
-4887.435546875
 10
726.8984375
 20
-4887.435546875
 10
736.462890625
 20
-4887.435546875
 10
746.02734375
 20
-4887.435546875
 10
755.591796875
 20
-4887.435546875
 10
765.15625
 20
-4887.435546875
 10
774.720703125
 20
-4887.435546875
 10
784.28515625
 20
-4887.435546875
 10
793.849609375
 20
-4887.435546875
 10
803.4140625
 20
-4887.435546875
 10
812.978515625
 20
-4887.435546875
 10
822.54296875
 20
-4887.435546875
 10
832.107421875
 20
-4887.435546875
 10
841.671875
 20
-4887.435546875
 10
851.236328125
 20
-4887.435546875
 10
860.80078125
 20
-4887.435546875
 10
870.365234375
 20
-4887.435546875
 10
879.9296875
 20
-4887.435546875
 10
889.494140625
 20
-4887.435546875
 10
899.05859375
 20
-4887.435546875
 10
908.623046875
 20
-4887.435546875
 10
918.1875
 20
-4887.435546875
 10
927.751953125
 20
-4887.435546875
 10
937.31640625
 20
-4887.435546875
 10
946.880859375
 20
-4887.435546875
 10
956.4453125
 20
-4887.435546875
 10
966.009765625
 20
-4887.435546875
 10
975.57421875
 20
-4887.435546875
 10
985.138671875
 20
-4887.435546875
 10
994.703125
 20
-4887.435546875
 10
1004.267578125
 20
-4887.435546875
 10
1013.83203125
 20
-4887.435546875
 10
1023.396484375
 20
-4887.435546875
 10
1032.9609375
 20
-4887.435546875
 10
1042.525390625
 20
-4887.435546875
 10
1052.08984375
 20
-4887.435546875
 10
1061.654296875
 20
-4887.435546875
 10
1071.21875
 20
-4887.435546875
 10
1080.783203125
 20
-4887.435546875
 10
1090.34765625
 20
-4887.435546875
 10
1099.912109375
 20
-4887.435546875
 10
1109.4765625
 20
-4887.435546875
 10
1119.041015625
 20
-4887.435546875
 10
1128.60546875
 20
-4887.435546875
 10
1138.169921875
 20
-4887.435546875
 10
1147.734375
 20
-4887.435546875
 10
1157.298828125
 20
-4887.435546875
 10
1166.86328125
 20
-4887.435546875
 10
1176.427734375
 20
-4887.435546875
 10
1185.9921875
 20
-4887.435546875
 10
1195.556640625
 20
-4887.435546875
 10
1205.12109375
 20
-4887.435546875
 10
1214.685546875
 20
-4887.435546875
 10
1224.25
 20
-4887.435546875
 10
1233.814453125
 20
-4887.435546875
 10
1243.37890625
 20
-4887.435546875
 10
1252.943359375
 20
-4887.435546875
 10
1262.5078125
 20
-4887.435546875
 10
1272.072265625
 20
-4887.435546875
 10
1281.63671875
 20
-4887.435546875
 10
1291.201171875
 20
-4887.435546875
 10
1300.765625
 20
-4887.435546875
 10
1310.330078125
 20
-4887.435546875
 10
1319.89453125
 20
-4887.435546875
 10
1329.458984375
 20
-4887.435546875
 10
1339.0234375
 20
-4887.435546875
 10
1348.587890625
 20
-4887.435546875
 10
1358.15234375
 20
-4887.435546875
 10
1367.716796875
 20
-4887.435546875
 10
1377.28125
 20
-4887.435546875
 10
1386.845703125
 20
-4887.435546875
 10
1396.41015625
 20
-4887.435546875
 10
1405.974609375
 20
-4887.435546875
 10
1415.5390625
 20
-4887.435546875
 10
1425.103515625
 20
-4887.435546875
 10
1434.66796875
 20
-4887.435546875
 10
1444.232421875
 20
-4887.435546875
 10
1453.796875
 20
-4887.435546875
 10
1463.361328125
 20
-4887.435546875
 10
1472.92578125
 20
-4887.435546875
 10
1482.490234375
 20
-4887.435546875
 10
1492.0546875
 20
-4887.435546875
 10
1501.619140625
 20
-4887.435546875
 10
1511.18359375
 20
-4887.435546875
 10
1520.748046875
 20
-4887.435546875
 10
1530.3125
 20
-4887.435546875
 10
1539.876953125
 20
-4887.435546875
 10
1549.44140625
 20
-4887.435546875
 10
1559.005859375
 20
-4887.435546875
 10
1568.5703125
 20
-4887.435546875
 10
1578.134765625
 20
-4887.435546875
 10
1587.69921875
 20
-4887.435546875
 10
1597.263671875
 20
-4887.435546875
 10
1606.828125
 20
-4887.435546875
 10
1616.392578125
 20
-4887.435546875
 10
1625.95703125
 20
-4887.435546875
 10
1635.521484375
 20
-4887.435546875
 10
1645.0859375
 20
-4887.435546875
 10
1654.650390625
 20
-4887.435546875
 10
1664.21484375
 20
-4887.435546875
 10
1673.779296875
 20
-4887.435546875
 10
1683.34375
 20
-4887.435546875
 10
1692.908203125
 20
-4887.435546875
 10
1702.47265625
 20
-4887.435546875
 10
1712.037109375
 20
-4887.435546875
 10
1721.6015625
 20
-4887.435546875
 10
1731.166015625
 20
-4887.435546875
 10
1740.73046875
 20
-4887.435546875
 10
1750.294921875
 20
-4887.435546875
 10
1759.859375
 20
-4887.435546875
 10
1769.423828125
 20
-4887.435546875
 10
1778.98828125
 20
-4887.435546875
 10
1788.552734375
 20
-4887.435546875
 10
1798.1171875
 20
-4887.435546875
 10
1807.681640625
 20
-4887.435546875
 10
1817.24609375
 20
-4887.435546875
 10
1826.810546875
 20
-4887.435546875
 10
1836.375
 20
-4887.435546875
 10
1845.939453125
 20
-4887.435546875
 10
1855.50390625
 20
-4887.435546875
 10
1865.068359375
 20
-4887.435546875
 10
1874.6328125
 20
-4887.435546875
 10
1884.197265625
 20
-4887.435546875
 10
1893.76171875
 20
-4887.435546875
 10
1903.326171875
 20
-4887.435546875
 10
1912.890625
 20
-4887.435546875
 10
1922.455078125
 20
-4887.435546875
 10
1932.01953125
 20
-4887.435546875
 10
1941.583984375
 20
-4887.435546875
 10
1951.1484375
 20
-4887.435546875
 10
1960.712890625
 20
-4887.435546875
 10
1970.27734375
 20
-4887.435546875
 10
1979.841796875
 20
-4887.435546875
 10
1989.40625
 20
-4887.435546875
 10
1998.970703125
 20
-4887.435546875
 10
2008.53515625
 20
-4887.435546875
 10
2018.099609375
 20
-4887.435546875
 10
2027.6640625
 20
-4887.435546875
 10
2037.228515625
 20
-4887.435546875
 10
2046.79296875
 20
-4887.435546875
 10
2056.357421875
 20
-4887.435546875
 10
2065.921875
 20
-4887.435546875
 10
2075.486328125
 20
-4887.435546875
 10
2085.05078125
 20
-4887.435546875
 10
2094.615234375
 20
-4887.435546875
 10
2104.1796875
 20
-4887.435546875
 10
2113.744140625
 20
-4887.435546875
 10
2123.30859375
 20
-4887.435546875
 10
2132.873046875
 20
-4887.435546875
 10
2142.4375
 20
-4887.435546875
 10
2152.001953125
 20
-4887.435546875
 10
2161.56640625
 20
-4887.435546875
 10
2171.130859375
 20
-4887.435546875
 10
2180.6953125
 20
-4887.435546875
 10
2190.259765625
 20
-4887.435546875
 10
2199.82421875
 20
-4887.435546875
 10
2209.388671875
 20
-4887.435546875
 10
2218.953125
 20
-4887.435546875
 10
2228.517578125
 20
-4887.435546875
 10
2238.08203125
 20
-4887.435546875
 10
2247.646484375
 20
-4887.435546875
 10
2257.2109375
 20
-4887.435546875
 10
2266.775390625
 20
-4887.435546875
 10
2276.33984375
 20
-4887.435546875
 10
2285.904296875
 20
-4887.435546875
 10
2295.46875
 20
-4887.435546875
 10
2305.033203125
 20
-4887.435546875
 10
2314.59765625
 20
-4887.435546875
 10
2324.162109375
 20
-4887.435546875
 10
2333.7265625
 20
-4887.435546875
 10
2343.291015625
 20
-4887.435546875
 10
2352.85546875
 20
-4887.435546875
 10
2362.419921875
 20
-4887.435546875
 10
2371.984375
 20
-4887.435546875
 10
2381.548828125
 20
-4887.435546875
 10
2391.11328125
 20
-4887.435546875
 10
2400.677734375
 20
-4887.435546875
 10
2410.2421875
 20
-4887.435546875
 10
2419.806640625
 20
-4887.435546875
 10
2429.37109375
 20
-4887.435546875
 10
2438.935546875
 20
-4887.435546875
 10
2448.5
 20
-4887.435546875
 10
2458.064453125
 20
-4887.435546875
 10
2467.62890625
 20
-4887.435546875
 10
2477.193359375
 20
-4887.435546875
 10
2486.7578125
 20
-4887.435546875
 10
2496.322265625
 20
-4887.435546875
 10
2505.88671875
 20
-4887.435546875
 10
2515.451171875
 20
-4887.435546875
 10
2525.015625
 20
-4887.435546875
 10
2534.580078125
 20
-4887.435546875
 10
2544.14453125
 20
-4887.435546875
 10
2553.708984375
 20
-4887.435546875
 10
2563.2734375
 20
-4887.435546875
 10
2572.837890625
 20
-4887.435546875
 10
2582.40234375
 20
-4887.435546875
 10
2591.966796875
 20
-4887.435546875
 10
2601.53125
 20
-4887.435546875
 10
2611.095703125
 20
-4887.435546875
 10
2620.66015625
 20
-4887.435546875
 10
2630.224609375
 20
-4887.435546875
 10
2639.7890625
 20
-4887.435546875
 10
2649.353515625
 20
-4887.435546875
 10
2658.91796875
 20
-4887.435546875
 10
2668.482421875
 20
-4887.435546875
 10
2678.046875
 20
-4887.435546875
 10
2687.611328125
 20
-4887.435546875
 10
2697.17578125
 20
-4887.435546875
 10
2706.740234375
 20
-4887.435546875
 10
2716.3046875
 20
-4887.435546875
 10
2725.869140625
 20
-4887.435546875
 10
2735.43359375
 20
-4887.435546875
 10
2744.998046875
 20
-4887.435546875
 10
2754.5625
 20
-4887.435546875
 10
2764.126953125
 20
-4887.435546875
 10
2773.69140625
 20
-4887.435546875
 10
2783.255859375
 20
-4887.435546875
 10
2792.8203125
 20
-4887.435546875
 10
2802.384765625
 20
-4887.435546875
 10
2811.94921875
 20
-4887.435546875
 10
2821.513671875
 20
-4887.435546875
 10
2831.078125
 20
-4887.435546875
 10
2840.642578125
 20
-4887.435546875
 10
2850.20703125
 20
-4887.435546875
 10
2859.771484375
 20
-4887.435546875
 10
2869.3359375
 20
-4887.435546875
 10
2878.900390625
 20
-4887.435546875
 10
2888.46484375
 20
-4887.435546875
 10
2898.029296875
 20
-4887.435546875
 10
2907.59375
 20
-4887.435546875
 10
2917.158203125
 20
-4887.435546875
 10
2926.72265625
 20
-4887.435546875
 10
2936.287109375
 20
-4887.435546875
 10
2945.8515625
 20
-4887.435546875
 10
2955.416015625
 20
-4887.435546875
 10
2964.98046875
 20
-4887.435546875
 10
2974.544921875
 20
-4887.435546875
 10
2984.109375
 20
-4887.435546875
 10
2993.673828125
 20
-4887.435546875
 10
3003.23828125
 20
-4887.435546875
 10
3012.802734375
 20
-4887.435546875
 10
3022.3671875
 20
-4887.435546875
 10
3031.931640625
 20
-4887.435546875
 10
3041.49609375
 20
-4887.435546875
 10
3051.060546875
 20
-4887.435546875
 10
3060.625
 20
-4887.435546875
 10
3070.189453125
 20
-4887.435546875
 10
3079.75390625
 20
-4887.435546875
 10
3089.318359375
 20
-4887.435546875
 10
3098.8828125
 20
-4887.435546875
 10
3108.447265625
 20
-4887.435546875
 10
3118.01171875
 20
-4887.435546875
 10
3127.576171875
 20
-4887.435546875
 10
3137.140625
 20
-4887.435546875
 10
3146.705078125
 20
-4887.435546875
 10
3156.26953125
 20
-4887.435546875
 10
3165.833984375
 20
-4887.435546875
 10
3175.3984375
 20
-4887.435546875
 10
3184.962890625
 20
-4887.435546875
 10
3194.52734375
 20
-4887.435546875
 10
3204.091796875
 20
-4887.435546875
 10
3213.65625
 20
-4887.435546875
 10
3223.220703125
 20
-4887.435546875
 10
3232.78515625
 20
-4887.435546875
 10
3242.349609375
 20
-4887.435546875
 10
3251.9140625
 20
-4887.435546875
 10
3261.478515625
 20
-4887.435546875
 10
3271.04296875
 20
-4887.435546875
 10
3280.607421875
 20
-4887.435546875
 10
3290.171875
 20
-4887.435546875
 10
3299.736328125
 20
-4887.435546875
 10
3309.30078125
 20
-4887.435546875
 10
3318.865234375
 20
-4887.435546875
 10
3328.4296875
 20
-4887.435546875
 10
3337.994140625
 20
-4887.435546875
 10
3347.55859375
 20
-4887.435546875
 10
3357.123046875
 20
-4887.435546875
 10
3366.6875
 20
-4887.435546875
 10
3376.251953125
 20
-4887.435546875
 10
3385.81640625
 20
-4887.435546875
 10
3395.380859375
 20
-4887.435546875
 10
3404.9453125
 20
-4887.435546875
 10
3414.509765625
 20
-4887.435546875
 10
3424.07421875
 20
-4887.435546875
 10
3433.638671875
 20
-4887.435546875
 10
3443.203125
 20
-4887.435546875
 10
3452.767578125
 20
-4887.435546875
 10
3462.33203125
 20
-4887.435546875
 10
3471.896484375
 20
-4887.435546875
 10
3481.4609375
 20
-4887.435546875
 10
3491.025390625
 20
-4887.435546875
 10
3500.58984375
 20
-4887.435546875
 10
3510.154296875
 20
-4887.435546875
 10
3519.71875
 20
-4887.435546875
 10
3529.283203125
 20
-4887.435546875
 10
3538.84765625
 20
-4887.435546875
 10
3548.412109375
 20
-4887.435546875
 10
3557.9765625
 20
-4887.435546875
 10
3567.541015625
 20
-4887.435546875
 10
3577.10546875
 20
-4887.435546875
 10
3586.669921875
 20
-4887.435546875
 10
3596.234375
 20
-4887.435546875
 10
3605.798828125
 20
-4887.435546875
 10
3615.36328125
 20
-4887.435546875
 10
3624.927734375
 20
-4887.435546875
 10
3634.4921875
 20
-4887.435546875
 10
3644.056640625
 20
-4887.435546875
 10
3653.62109375
 20
-4887.435546875
 10
3663.185546875
 20
-4887.435546875
 10
3672.75
 20
-4887.435546875
 10
3682.314453125
 20
-4887.435546875
 10
3691.87890625
 20
-4887.435546875
 10
3701.443359375
 20
-4887.435546875
 10
3711.0078125
 20
-4887.435546875
 10
3720.572265625
 20
-4887.435546875
 10
3730.13671875
 20
-4887.435546875
 10
3739.701171875
 20
-4887.435546875
 10
3749.265625
 20
-4887.435546875
 10
3758.830078125
 20
-4887.435546875
 10
3768.39453125
 20
-4887.435546875
 10
3777.958984375
 20
-4887.435546875
 10
3787.5234375
 20
-4887.435546875
 10
3797.087890625
 20
-4887.435546875
 10
3806.65234375
 20
-4887.435546875
 10
3816.216796875
 20
-4887.435546875
 10
3825.78125
 20
-4887.435546875
 10
3835.345703125
 20
-4887.435546875
 10
3844.91015625
 20
-4887.435546875
 10
3854.474609375
 20
-4887.435546875
 10
3864.0390625
 20
-4887.435546875
 10
3873.603515625
 20
-4887.435546875
 10
3883.16796875
 20
-4887.435546875
 10
3892.732421875
 20
-4887.435546875
 10
3902.296875
 20
-4887.435546875
 10
3911.861328125
 20
-4887.435546875
 10
3921.42578125
 20
-4887.435546875
 10
3930.990234375
 20
-4887.435546875
 10
3940.5546875
 20
-4887.435546875
 10
3950.119140625
 20
-4887.435546875
 10
3959.68359375
 20
-4887.435546875
 10
3969.248046875
 20
-4887.435546875
 10
3978.8125
 20
-4887.435546875
 10
3988.376953125
 20
-4887.435546875
 10
3997.94140625
 20
-4887.435546875
 10
4007.505859375
 20
-4887.435546875
 10
4017.0703125
 20
-4887.435546875
 10
4026.634765625
 20
-4887.435546875
 10
4036.19921875
 20
-4887.435546875
 10
4045.763671875
 20
-4887.435546875
 10
4055.328125
 20
-4887.435546875
 10
4064.892578125
 20
-4887.435546875
 10
4074.45703125
 20
-4887.435546875
 10
4084.021484375
 20
-4887.435546875
 10
4093.5859375
 20
-4887.435546875
 10
4103.150390625
 20
-4887.435546875
 10
4112.71484375
 20
-4887.435546875
 10
4122.279296875
 20
-4887.435546875
 10
4131.84375
 20
-4887.435546875
 10
4141.408203125
 20
-4887.435546875
 10
4150.97265625
 20
-4887.435546875
 10
4160.537109375
 20
-4887.435546875
 10
4170.1015625
 20
-4887.435546875
 10
4179.666015625
 20
-4887.435546875
 10
4189.23046875
 20
-4887.435546875
 10
4198.794921875
 20
-4887.435546875
 10
4208.359375
 20
-4887.435546875
 10
4217.923828125
 20
-4887.435546875
 10
4227.48828125
 20
-4887.435546875
 10
4237.052734375
 20
-4887.435546875
 10
4246.6171875
 20
-4887.435546875
 10
4256.181640625
 20
-4887.435546875
 10
4265.74609375
 20
-4887.435546875
 10
4275.310546875
 20
-4887.435546875
 10
4284.875
 20
-4887.435546875
 10
4294.439453125
 20
-4887.435546875
 10
4304.00390625
 20
-4887.435546875
 10
4313.568359375
 20
-4887.435546875
 10
4323.1328125
 20
-4887.435546875
 10
4332.697265625
 20
-4887.435546875
 10
4342.26171875
 20
-4887.435546875
 10
4351.826171875
 20
-4887.435546875
 10
4361.390625
 20
-4887.435546875
 10
4370.955078125
 20
-4887.435546875
 10
4380.51953125
 20
-4887.435546875
 10
4390.083984375
 20
-4887.435546875
 10
4399.6484375
 20
-4887.435546875
 10
4409.212890625
 20
-4887.435546875
 10
4418.77734375
 20
-4887.435546875
 10
4428.341796875
 20
-4887.435546875
 10
4437.90625
 20
-4887.435546875
 10
4447.470703125
 20
-4887.435546875
 10
4457.03515625
 20
-4887.435546875
 10
4466.599609375
 20
-4887.435546875
 10
4476.1640625
 20
-4887.435546875
 10
4485.728515625
 20
-4887.435546875
 10
4495.29296875
 20
-4887.435546875
 10
4504.857421875
 20
-4887.435546875
 10
4514.421875
 20
-4887.435546875
 10
4523.986328125
 20
-4887.435546875
 10
4533.55078125
 20
-4887.435546875
 10
4543.115234375
 20
-4887.435546875
 10
4552.6796875
 20
-4887.435546875
 10
4562.244140625
 20
-4887.435546875
 10
4571.80859375
 20
-4887.435546875
 10
4581.373046875
 20
-4887.435546875
 10
4590.9375
 20
-4887.435546875
 10
4600.501953125
 20
-4887.435546875
 10
4610.06640625
 20
-4887.435546875
 10
4619.630859375
 20
-4887.435546875
 10
4629.1953125
 20
-4887.435546875
 10
4638.759765625
 20
-4887.435546875
 10
4648.32421875
 20
-4887.435546875
 10
4657.888671875
 20
-4887.435546875
 10
4667.453125
 20
-4887.435546875
 10
4677.017578125
 20
-4887.435546875
 10
4686.58203125
 20
-4887.435546875
 10
4696.146484375
 20
-4887.435546875
 10
4705.7109375
 20
-4887.435546875
 10
4715.275390625
 20
-4887.435546875
 10
4724.83984375
 20
-4887.435546875
 10
4734.404296875
 20
-4887.435546875
 10
4743.96875
 20
-4887.435546875
 10
4753.533203125
 20
-4887.435546875
 10
4763.09765625
 20
-4887.435546875
 10
4772.662109375
 20
-4887.435546875
 10
4782.2265625
 20
-4887.435546875
 10
4791.791015625
 20
-4887.435546875
 10
4801.35546875
 20
-4887.435546875
 10
4810.919921875
 20
-4887.435546875
 10
4820.484375
 20
-4887.435546875
 10
4830.048828125
 20
-4887.435546875
 10
4839.61328125
 20
-4887.435546875
 10
4849.177734375
 20
-4887.435546875
 10
4858.7421875
 20
-4887.435546875
 10
4868.306640625
 20
-4887.435546875
 10
4877.87109375
 20
-4887.435546875
 10
4887.435546875
 20
-4887.435546875
 10
4887.435546875
 20
-4877.87109375
 10
4887.435546875
 20
-4868.306640625
 10
4887.435546875
 20
-4858.7421875
 10
4887.435546875
 20
-4849.177734375
 10
4887.435546875
 20
-4839.61328125
 10
4887.435546875
 20
-4830.048828125
 10
4887.435546875
 20
-4820.484375
 10
4887.435546875
 20
-4810.919921875
 10
4887.435546875
 20
-4801.35546875
 10
4887.435546875
 20
-4791.791015625
 10
4887.435546875
 20
-4782.2265625
 10
4887.435546875
 20
-4772.662109375
 10
4887.435546875
 20
-4763.09765625
 10
4887.435546875
 20
-4753.533203125
 10
4887.435546875
 20
-4743.96875
 10
4887.435546875
 20
-4734.404296875
 10
4887.435546875
 20
-4724.83984375
 10
4887.435546875
 20
-4715.275390625
 10
4887.435546875
 20
-4705.7109375
 10
4887.435546875
 20
-4696.146484375
 10
4887.435546875
 20
-4686.58203125
 10
4887.435546875
 20
-4677.017578125
 10
4887.435546875
 20
-4667.453125
 10
4887.435546875
 20
-4657.888671875
 10
4887.435546875
 20
-4648.32421875
 10
4887.435546875
 20
-4638.759765625
 10
4887.435546875
 20
-4629.1953125
 10
4887.435546875
 20
-4619.630859375
 10
4887.435546875
 20
-4610.06640625
 10
4887.435546875
 20
-4600.501953125
 10
4887.435546875
 20
-4590.9375
 10
4887.435546875
 20
-4581.373046875
 10
4887.435546875
 20
-4571.80859375
 10
4887.435546875
 20
-4562.244140625
 10
4887.435546875
 20
-4552.6796875
 10
4887.435546875
 20
-4543.115234375
 10
4887.435546875
 20
-4533.55078125
 10
4887.435546875
 20
-4523.986328125
 10
4887.435546875
 20
-4514.421875
 10
4887.435546875
 20
-4504.857421875
 10
4887.435546875
 20
-4495.29296875
 10
4887.435546875
 20
-4485.728515625
 10
4887.435546875
 20
-4476.1640625
 10
4887.435546875
 20
-4466.599609375
 10
4887.435546875
 20
-4457.03515625
 10
4887.435546875
 20
-4447.470703125
 10
4887.435546875
 20
-4437.90625
 10
4887.435546875
 20
-4428.341796875
 10
4887.435546875
 20
-4418.77734375
 10
4887.435546875
 20
-4409.212890625
 10
4887.435546875
 20
-4399.6484375
 10
4887.435546875
 20
-4390.083984375
 10
4887.435546875
 20
-4380.51953125
 10
4887.435546875
 20
-4370.955078125
 10
4887.435546875
 20
-4361.390625
 10
4887.435546875
 20
-4351.826171875
 10
4887.435546875
 20
-4342.26171875
 10
4887.435546875
 20
-4332.697265625
 10
4887.435546875
 20
-4323.1328125
 10
4887.435546875
 20
-4313.568359375
 10
4887.435546875
 20
-4304.00390625
 10
4887.435546875
 20
-4294.439453125
 10
4887.435546875
 20
-4284.875
 10
4887.435546875
 20
-4275.310546875
 10
4887.435546875
 20
-4265.74609375
 10
4887.435546875
 20
-4256.181640625
 10
4887.435546875
 20
-4246.6171875
 10
4887.435546875
 20
-4237.052734375
 10
4887.435546875
 20
-4227.48828125
 10
4887.435546875
 20
-4217.923828125
 10
4887.435546875
 20
-4208.359375
 10
4887.435546875
 20
-4198.794921875
 10
4887.435546875
 20
-4189.23046875
 10
4887.435546875
 20
-4179.666015625
 10
4887.435546875
 20
-4170.1015625
 10
4887.435546875
 20
-4160.537109375
 10
4887.435546875
 20
-4150.97265625
 10
4887.435546875
 20
-4141.408203125
 10
4887.435546875
 20
-4131.84375
 10
4887.435546875
 20
-4122.279296875
 10
4887.435546875
 20
-4112.71484375
 10
4887.435546875
 20
-4103.150390625
 10
4887.435546875
 20
-4093.5859375
 10
4887.435546875
 20
-4084.021484375
 10
4887.435546875
 20
-4074.45703125
 10
4887.435546875
 20
-4064.892578125
 10
4887.435546875
 20
-4055.328125
 10
4887.435546875
 20
-4045.763671875
 10
4887.435546875
 20
-4036.19921875
 10
4887.435546875
 20
-4026.634765625
 10
4887.435546875
 20
-4017.0703125
 10
4887.435546875
 20
-4007.505859375
 10
4887.435546875
 20
-3997.94140625
 10
4887.435546875
 20
-3988.376953125
 10
4887.435546875
 20
-3978.8125
 10
4887.435546875
 20
-3969.248046875
 10
4887.435546875
 20
-3959.68359375
 10
4887.435546875
 20
-3950.119140625
 10
4887.435546875
 20
-3940.5546875
 10
4887.435546875
 20
-3930.990234375
 10
4887.435546875
 20
-3921.42578125
 10
4887.435546875
 20
-3911.861328125
 10
4887.435546875
 20
-3902.296875
 10
4887.435546875
 20
-3892.732421875
 10
4887.435546875
 20
-3883.16796875
 10
4887.435546875
 20
-3873.603515625
 10
4887.435546875
 20
-3864.0390625
 10
4887.435546875
 20
-3854.474609375
 10
4887.435546875
 20
-3844.91015625
 10
4887.435546875
 20
-3835.345703125
 10
4887.435546875
 20
-3825.78125
 10
4887.435546875
 20
-3816.216796875
 10
4887.435546875
 20
-3806.65234375
 10
4887.435546875
 20
-3797.087890625
 10
4887.435546875
 20
-3787.5234375
 10
4887.435546875
 20
-3777.958984375
 10
4887.435546875
 20
-3768.39453125
 10
4887.435546875
 20
-3758.830078125
 10
4887.435546875
 20
-3749.265625
 10
4887.435546875
 20
-3739.701171875
 10
4887.435546875
 20
-3730.13671875
 10
4887.435546875
 20
-3720.572265625
 10
4887.435546875
 20
-3711.0078125
 10
4887.435546875
 20
-3701.443359375
 10
4887.435546875
 20
-3691.87890625
 10
4887.435546875
 20
-3682.314453125
 10
4887.435546875
 20
-3672.75
 10
4887.435546875
 20
-3663.185546875
 10
4887.435546875
 20
-3653.62109375
 10
4887.435546875
 20
-3644.056640625
 10
4887.435546875
 20
-3634.4921875
 10
4887.435546875
 20
-3624.927734375
 10
4887.435546875
 20
-3615.36328125
 10
4887.435546875
 20
-3605.798828125
 10
4887.435546875
 20
-3596.234375
 10
4887.435546875
 20
-3586.669921875
 10
4887.435546875
 20
-3577.10546875
 10
4887.435546875
 20
-3567.541015625
 10
4887.435546875
 20
-3557.9765625
 10
4887.435546875
 20
-3548.412109375
 10
4887.435546875
 20
-3538.84765625
 10
4887.435546875
 20
-3529.283203125
 10
4887.435546875
 20
-3519.71875
 10
4887.435546875
 20
-3510.154296875
 10
4887.435546875
 20
-3500.58984375
 10
4887.435546875
 20
-3491.025390625
 10
4887.435546875
 20
-3481.4609375
 10
4887.435546875
 20
-3471.896484375
 10
4887.435546875
 20
-3462.33203125
 10
4887.435546875
 20
-3452.767578125
 10
4887.435546875
 20
-3443.203125
 10
4887.435546875
 20
-3433.638671875
 10
4887.435546875
 20
-3424.07421875
 10
4887.435546875
 20
-3414.509765625
 10
4887.435546875
 20
-3404.9453125
 10
4887.435546875
 20
-3395.380859375
 10
4887.435546875
 20
-3385.81640625
 10
4887.435546875
 20
-3376.251953125
 10
4887.435546875
 20
-3366.6875
 10
4887.435546875
 20
-3357.123046875
 10
4887.435546875
 20
-3347.55859375
 10
4887.435546875
 20
-3337.994140625
 10
4887.435546875
 20
-3328.4296875
 10
4887.435546875
 20
-3318.865234375
 10
4887.435546875
 20
-3309.30078125
 10
4887.435546875
 20
-3299.736328125
 10
4887.435546875
 20
-3290.171875
 10
4887.435546875
 20
-3280.607421875
 10
4887.435546875
 20
-3271.04296875
 10
4887.435546875
 20
-3261.478515625
 10
4887.435546875
 20
-3251.9140625
 10
4887.435546875
 20
-3242.349609375
 10
4887.435546875
 20
-3232.78515625
 10
4887.435546875
 20
-3223.220703125
 10
4887.435546875
 20
-3213.65625
 10
4887.435546875
 20
-3204.091796875
 10
4887.435546875
 20
-3194.52734375
 10
4887.435546875
 20
-3184.962890625
 10
4887.435546875
 20
-3175.3984375
 10
4887.435546875
 20
-3165.833984375
 10
4887.435546875
 20
-3156.26953125
 10
4887.435546875
 20
-3146.705078125
 10
4887.435546875
 20
-3137.140625
 10
4887.435546875
 20
-3127.576171875
 10
4887.435546875
 20
-3118.01171875
 10
4887.435546875
 20
-3108.447265625
 10
4887.435546875
 20
-3098.8828125
 10
4887.435546875
 20
-3089.318359375
 10
4887.435546875
 20
-3079.75390625
 10
4887.435546875
 20
-3070.189453125
 10
4887.435546875
 20
-3060.625
 10
4887.435546875
 20
-3051.060546875
 10
4887.435546875
 20
-3041.49609375
 10
4887.435546875
 20
-3031.931640625
 10
4887.435546875
 20
-3022.3671875
 10
4887.435546875
 20
-3012.802734375
 10
4887.435546875
 20
-3003.23828125
 10
4887.435546875
 20
-2993.673828125
 10
4887.435546875
 20
-2984.109375
 10
4887.435546875
 20
-2974.544921875
 10
4887.435546875
 20
-2964.98046875
 10
4887.435546875
 20
-2955.416015625
 10
4887.435546875
 20
-2945.8515625
 10
4887.435546875
 20
-2936.287109375
 10
4887.435546875
 20
-2926.72265625
 10
4887.435546875
 20
-2917.158203125
 10
4887.435546875
 20
-2907.59375
 10
4887.435546875
 20
-2898.029296875
 10
4887.435546875
 20
-2888.46484375
 10
4887.435546875
 20
-2878.900390625
 10
4887.435546875
 20
-2869.3359375
 10
4887.435546875
 20
-2859.771484375
 10
4887.435546875
 20
-2850.20703125
 10
4887.435546875
 20
-2840.642578125
 10
4887.435546875
 20
-2831.078125
 10
4887.435546875
 20
-2821.513671875
 10
4887.435546875
 20
-2811.94921875
 10
4887.435546875
 20
-2802.384765625
 10
4887.435546875
 20
-2792.8203125
 10
4887.435546875
 20
-2783.255859375
 10
4887.435546875
 20
-2773.69140625
 10
4887.435546875
 20
-2764.126953125
 10
4887.435546875
 20
-2754.5625
 10
4887.435546875
 20
-2744.998046875
 10
4887.435546875
 20
-2735.43359375
 10
4887.435546875
 20
-2725.869140625
 10
4887.435546875
 20
-2716.3046875
 10
4887.435546875
 20
-2706.740234375
 10
4887.435546875
 20
-2697.17578125
 10
4887.435546875
 20
-2687.611328125
 10
4887.435546875
 20
-2678.046875
 10
4887.435546875
 20
-2668.482421875
 10
4887.435546875
 20
-2658.91796875
 10
4887.435546875
 20
-2649.353515625
 10
4887.435546875
 20
-2639.7890625
 10
4887.435546875
 20
-2630.224609375
 10
4887.435546875
 20
-2620.66015625
 10
4887.435546875
 20
-2611.095703125
 10
4887.435546875
 20
-2601.53125
 10
4887.435546875
 20
-2591.966796875
 10
4887.435546875
 20
-2582.40234375
 10
4887.435546875
 20
-2572.837890625
 10
4887.435546875
 20
-2563.2734375
 10
4887.435546875
 20
-2553.708984375
 10
4887.435546875
 20
-2544.14453125
 10
4887.435546875
 20
-2534.580078125
 10
4887.435546875
 20
-2525.015625
 10
4887.435546875
 20
-2515.451171875
 10
4887.435546875
 20
-2505.88671875
 10
4887.435546875
 20
-2496.322265625
 10
4887.435546875
 20
-2486.7578125
 10
4887.435546875
 20
-2477.193359375
 10
4887.435546875
 20
-2467.62890625
 10
4887.435546875
 20
-2458.064453125
 10
4887.435546875
 20
-2448.5
 10
4887.435546875
 20
-2438.935546875
 10
4887.435546875
 20
-2429.37109375
 10
4887.435546875
 20
-2419.806640625
 10
4887.435546875
 20
-2410.2421875
 10
4887.435546875
 20
-2400.677734375
 10
4887.435546875
 20
-2391.11328125
 10
4887.435546875
 20
-2381.548828125
 10
4887.435546875
 20
-2371.984375
 10
4887.435546875
 20
-2362.419921875
 10
4887.435546875
 20
-2352.85546875
 10
4887.435546875
 20
-2343.291015625
 10
4887.435546875
 20
-2333.7265625
 10
4887.435546875
 20
-2324.162109375
 10
4887.435546875
 20
-2314.59765625
 10
4887.435546875
 20
-2305.033203125
 10
4887.435546875
 20
-2295.46875
 10
4887.435546875
 20
-2285.904296875
 10
4887.435546875
 20
-2276.33984375
 10
4887.435546875
 20
-2266.775390625
 10
4887.435546875
 20
-2257.2109375
 10
4887.435546875
 20
-2247.646484375
 10
4887.435546875
 20
-2238.08203125
 10
4887.435546875
 20
-2228.517578125
 10
4887.435546875
 20
-2218.953125
 10
4887.435546875
 20
-2209.388671875
 10
4887.435546875
 20
-2199.82421875
 10
4887.435546875
 20
-2190.259765625
 10
4887.435546875
 20
-2180.6953125
 10
4887.435546875
 20
-2171.130859375
 10
4887.435546875
 20
-2161.56640625
 10
4887.435546875
 20
-2152.001953125
 10
4887.435546875
 20
-2142.4375
 10
4887.435546875
 20
-2132.873046875
 10
4887.435546875
 20
-2123.30859375
 10
4887.435546875
 20
-2113.744140625
 10
4887.435546875
 20
-2104.1796875
 10
4887.435546875
 20
-2094.615234375
 10
4887.435546875
 20
-2085.05078125
 10
4887.435546875
 20
-2075.486328125
 10
4887.435546875
 20
-2065.921875
 10
4887.435546875
 20
-2056.357421875
 10
4887.435546875
 20
-2046.79296875
 10
4887.435546875
 20
-2037.228515625
 10
4887.435546875
 20
-2027.6640625
 10
4887.435546875
 20
-2018.099609375
 10
4887.435546875
 20
-2008.53515625
 10
4887.435546875
 20
-1998.970703125
 10
4887.435546875
 20
-1989.40625
 10
4887.435546875
 20
-1979.841796875
 10
4887.435546875
 20
-1970.27734375
 10
4887.435546875
 20
-1960.712890625
 10
4887.435546875
 20
-1951.1484375
 10
4887.435546875
 20
-1941.583984375
 10
4887.435546875
 20
-1932.01953125
 10
4887.435546875
 20
-1922.455078125
 10
4887.435546875
 20
-1912.890625
 10
4887.435546875
 20
-1903.326171875
 10
4887.435546875
 20
-1893.76171875
 10
4887.435546875
 20
-1884.197265625
 10
4887.435546875
 20
-1874.6328125
 10
4887.435546875
 20
-1865.068359375
 10
4887.435546875
 20
-1855.50390625
 10
4887.435546875
 20
-1845.939453125
 10
4887.435546875
 20
-1836.375
 10
4887.435546875
 20
-1826.810546875
 10
4887.435546875
 20
-1817.24609375
 10
4887.435546875
 20
-1807.681640625
 10
4887.435546875
 20
-1798.1171875
 10
4887.435546875
 20
-1788.552734375
 10
4887.435546875
 20
-1778.98828125
 10
4887.435546875
 20
-1769.423828125
 10
4887.435546875
 20
-1759.859375
 10
4887.435546875
 20
-1750.294921875
 10
4887.435546875
 20
-1740.73046875
 10
4887.435546875
 20
-1731.166015625
 10
4887.435546875
 20
-1721.6015625
 10
4887.435546875
 20
-1712.037109375
 10
4887.435546875
 20
-1702.47265625
 10
4887.435546875
 20
-1692.908203125
 10
4887.435546875
 20
-1683.34375
 10
4887.435546875
 20
-1673.779296875
 10
4887.435546875
 20
-1664.21484375
 10
4887.435546875
 20
-1654.650390625
 10
4887.435546875
 20
-1645.0859375
 10
4887.435546875
 20
-1635.521484375
 10
4887.435546875
 20
-1625.95703125
 10
4887.435546875
 20
-1616.392578125
 10
4887.435546875
 20
-1606.828125
 10
4887.435546875
 20
-1597.263671875
 10
4887.435546875
 20
-1587.69921875
 10
4887.435546875
 20
-1578.134765625
 10
4887.435546875
 20
-1568.5703125
 10
4887.435546875
 20
-1559.005859375
 10
4887.435546875
 20
-1549.44140625
 10
4887.435546875
 20
-1539.876953125
 10
4887.435546875
 20
-1530.3125
 10
4887.435546875
 20
-1520.748046875
 10
4887.435546875
 20
-1511.18359375
 10
4887.435546875
 20
-1501.619140625
 10
4887.435546875
 20
-1492.0546875
 10
4887.435546875
 20
-1482.490234375
 10
4887.435546875
 20
-1472.92578125
 10
4887.435546875
 20
-1463.361328125
 10
4887.435546875
 20
-1453.796875
 10
4887.435546875
 20
-1444.232421875
 10
4887.435546875
 20
-1434.66796875
 10
4887.435546875
 20
-1425.103515625
 10
4887.435546875
 20
-1415.5390625
 10
4887.435546875
 20
-1405.974609375
 10
4887.435546875
 20
-1396.41015625
 10
4887.435546875
 20
-1386.845703125
 10
4887.435546875
 20
-1377.28125
 10
4887.435546875
 20
-1367.716796875
 10
4887.435546875
 20
-1358.15234375
 10
4887.435546875
 20
-1348.587890625
 10
4887.435546875
 20
-1339.0234375
 10
4887.435546875
 20
-1329.458984375
 10
4887.435546875
 20
-1319.89453125
 10
4887.435546875
 20
-1310.330078125
 10
4887.435546875
 20
-1300.765625
 10
4887.435546875
 20
-1291.201171875
 10
4887.435546875
 20
-1281.63671875
 10
4887.435546875
 20
-1272.072265625
 10
4887.435546875
 20
-1262.5078125
 10
4887.435546875
 20
-1252.943359375
 10
4887.435546875
 20
-1243.37890625
 10
4887.435546875
 20
-1233.814453125
 10
4887.435546875
 20
-1224.25
 10
4887.435546875
 20
-1214.685546875
 10
4887.435546875
 20
-1205.12109375
 10
4887.435546875
 20
-1195.556640625
 10
4887.435546875
 20
-1185.9921875
 10
4887.435546875
 20
-1176.427734375
 10
4887.435546875
 20
-1166.86328125
 10
4887.435546875
 20
-1157.298828125
 10
4887.435546875
 20
-1147.734375
 10
4887.435546875
 20
-1138.169921875
 10
4887.435546875
 20
-1128.60546875
 10
4887.435546875
 20
-1119.041015625
 10
4887.435546875
 20
-1109.4765625
 10
4887.435546875
 20
-1099.912109375
 10
4887.435546875
 20
-1090.34765625
 10
4887.435546875
 20
-1080.783203125
 10
4887.435546875
 20
-1071.21875
 10
4887.435546875
 20
-1061.654296875
 10
4887.435546875
 20
-1052.08984375
 10
4887.435546875
 20
-1042.525390625
 10
4887.435546875
 20
-1032.9609375
 10
4887.435546875
 20
-1023.396484375
 10
4887.435546875
 20
-1013.83203125
 10
4887.435546875
 20
-1004.267578125
 10
4887.435546875
 20
-994.703125
 10
4887.435546875
 20
-985.138671875
 10
4887.435546875
 20
-975.57421875
 10
4887.435546875
 20
-966.009765625
 10
4887.435546875
 20
-956.4453125
 10
4887.435546875
 20
-946.880859375
 10
4887.435546875
 20
-937.31640625
 10
4887.435546875
 20
-927.751953125
 10
4887.435546875
 20
-918.1875
 10
4887.435546875
 20
-908.623046875
 10
4887.435546875
 20
-899.05859375
 10
4887.435546875
 20
-889.494140625
 10
4887.435546875
 20
-879.9296875
 10
4887.435546875
 20
-870.365234375
 10
4887.435546875
 20
-860.80078125
 10
4887.435546875
 20
-851.236328125
 10
4887.435546875
 20
-841.671875
 10
4887.435546875
 20
-832.107421875
 10
4887.435546875
 20
-822.54296875
 10
4887.435546875
 20
-812.978515625
 10
4887.435546875
 20
-803.4140625
 10
4887.435546875
 20
-793.849609375
 10
4887.435546875
 20
-784.28515625
 10
4887.435546875
 20
-774.720703125
 10
4887.435546875
 20
-765.15625
 10
4887.435546875
 20
-755.591796875
 10
4887.435546875
 20
-746.02734375
 10
4887.435546875
 20
-736.462890625
 10
4887.435546875
 20
-726.8984375
 10
4887.435546875
 20
-717.333984375
 10
4887.435546875
 20
-707.76953125
 10
4887.435546875
 20
-698.205078125
 10
4887.435546875
 20
-688.640625
 10
4887.435546875
 20
-679.076171875
 10
4887.435546875
 20
-669.51171875
 10
4887.435546875
 20
-659.947265625
 10
4887.435546875
 20
-650.3828125
 10
4887.435546875
 20
-640.818359375
 10
4887.435546875
 20
-631.25390625
 10
4887.435546875
 20
-621.689453125
 10
4887.435546875
 20
-612.125
 10
4887.435546875
 20
-602.560546875
 10
4887.435546875
 20
-592.99609375
 10
4887.435546875
 20
-583.431640625
 10
4887.435546875
 20
-573.8671875
 10
4887.435546875
 20
-564.302734375
 10
4887.435546875
 20
-554.73828125
 10
4887.435546875
 20
-545.173828125
 10
4887.435546875
 20
-535.609375
 10
4887.435546875
 20
-526.044921875
 10
4887.435546875
 20
-516.48046875
 10
4887.435546875
 20
-506.916015625
 10
4887.435546875
 20
-497.3515625
 10
4887.435546875
 20
-487.787109375
 10
4887.435546875
 20
-478.22265625
 10
4887.435546875
 20
-468.658203125
 10
4887.435546875
 20
-459.09375
 10
4887.435546875
 20
-449.529296875
 10
4887.435546875
 20
-439.96484375
 10
4887.435546875
 20
-430.400390625
 10
4887.435546875
 20
-420.8359375
 10
4887.435546875
 20
-411.271484375
 10
4887.435546875
 20
-401.70703125
 10
4887.435546875
 20
-392.142578125
 10
4887.435546875
 20
-382.578125
 10
4887.435546875
 20
-373.013671875
 10
4887.435546875
 20
-363.44921875
 10
4887.435546875
 20
-353.884765625
 10
4887.435546875
 20
-344.3203125
 10
4887.435546875
 20
-334.755859375
 10
4887.435546875
 20
-325.19140625
 10
4887.435546875
 20
-315.626953125
 10
4887.435546875
 20
-306.0625
 10
4887.435546875
 20
-296.498046875
 10
4887.435546875
 20
-286.93359375
 10
4887.435546875
 20
-277.369140625
 10
4887.435546875
 20
-267.8046875
 10
4887.435546875
 20
-258.240234375
 10
4887.435546875
 20
-248.67578125
 10
4887.435546875
 20
-239.111328125
 10
4887.435546875
 20
-229.546875
 10
4887.435546875
 20
-219.982421875
 10
4887.435546875
 20
-210.41796875
 10
4887.435546875
 20
-200.853515625
 10
4887.435546875
 20
-191.2890625
 10
4887.435546875
 20
-181.724609375
 10
4887.435546875
 20
-172.16015625
 10
4887.435546875
 20
-162.595703125
 10
4887.435546875
 20
-153.03125
 10
4887.435546875
 20
-143.466796875
 10
4887.435546875
 20
-133.90234375
 10
4887.435546875
 20
-124.337890625
 10
4887.435546875
 20
-114.7734375
 10
4887.435546875
 20
-105.208984375
 10
4887.435546875
 20
-95.64453125
 10
4887.435546875
 20
-86.080078125
 10
4887.435546875
 20
-76.515625
 10
4887.435546875
 20
-66.951171875
 10
4887.435546875
 20
-57.38671875
 10
4887.435546875
 20
-47.822265625
 10
4887.435546875
 20
-38.2578125
 10
4887.435546875
 20
-28.693359375
 10
4887.435546875
 20
-19.12890625
 10
4887.435546875
 20
-9.564453125
 10
4887.435546875
 20
-0.0
 10
4877.87109375
 20
-0.0
 10
4868.306640625
 20
-0.0
 10
4858.7421875
 20
-0.0
 10
4849.177734375
 20
-0.0
 10
4839.61328125
 20
-0.0
 10
4830.048828125
 20
-0.0
 10
4820.484375
 20
-0.0
 10
4810.919921875
 20
-0.0
 10
4801.35546875
 20
-0.0
 10
4791.791015625
 20
-0.0
 10
4782.2265625
 20
-0.0
 10
4772.662109375
 20
-0.0
 10
4763.09765625
 20
-0.0
 10
4753.533203125
 20
-0.0
 10
4743.96875
 20
-0.0
 10
4734.404296875
 20
-0.0
 10
4724.83984375
 20
-0.0
 10
4715.275390625
 20
-0.0
 10
4705.7109375
 20
-0.0
 10
4696.146484375
 20
-0.0
 10
4686.58203125
 20
-0.0
 10
4677.017578125
 20
-0.0
 10
4667.453125
 20
-0.0
 10
4657.888671875
 20
-0.0
 10
4648.32421875
 20
-0.0
 10
4638.759765625
 20
-0.0
 10
4629.1953125
 20
-0.0
 10
4619.630859375
 20
-0.0
 10
4610.06640625
 20
-0.0
 10
4600.501953125
 20
-0.0
 10
4590.9375
 20
-0.0
 10
4581.373046875
 20
-0.0
 10
4571.80859375
 20
-0.0
 10
4562.244140625
 20
-0.0
 10
4552.6796875
 20
-0.0
 10
4543.115234375
 20
-0.0
 10
4533.55078125
 20
-0.0
 10
4523.986328125
 20
-0.0
 10
4514.421875
 20
-0.0
 10
4504.857421875
 20
-0.0
 10
4495.29296875
 20
-0.0
 10
4485.728515625
 20
-0.0
 10
4476.1640625
 20
-0.0
 10
4466.599609375
 20
-0.0
 10
4457.03515625
 20
-0.0
 10
4447.470703125
 20
-0.0
 10
4437.90625
 20
-0.0
 10
4428.341796875
 20
-0.0
 10
4418.77734375
 20
-0.0
 10
4409.212890625
 20
-0.0
 10
4399.6484375
 20
-0.0
 10
4390.083984375
 20
-0.0
 10
4380.51953125
 20
-0.0
 10
4370.955078125
 20
-0.0
 10
4361.390625
 20
-0.0
 10
4351.826171875
 20
-0.0
 10
4342.26171875
 20
-0.0
 10
4332.697265625
 20
-0.0
 10
4323.1328125
 20
-0.0
 10
4313.568359375
 20
-0.0
 10
4304.00390625
 20
-0.0
 10
4294.439453125
 20
-0.0
 10
4284.875
 20
-0.0
 10
4275.310546875
 20
-0.0
 10
4265.74609375
 20
-0.0
 10
4256.181640625
 20
-0.0
 10
4246.6171875
 20
-0.0
 10
4237.052734375
 20
-0.0
 10
4227.48828125
 20
-0.0
 10
4217.923828125
 20
-0.0
 10
4208.359375
 20
-0.0
 10
4198.794921875
 20
-0.0
 10
4189.23046875
 20
-0.0
 10
4179.666015625
 20
-0.0
 10
4170.1015625
 20
-0.0
 10
4160.537109375
 20
-0.0
 10
4150.97265625
 20
-0.0
 10
4141.408203125
 20
-0.0
 10
4131.84375
 20
-0.0
 10
4122.279296875
 20
-0.0
 10
4112.71484375
 20
-0.0
 10
4103.150390625
 20
-0.0
 10
4093.5859375
 20
-0.0
 10
4084.021484375
 20
-0.0
 10
4074.45703125
 20
-0.0
 10
4064.892578125
 20
-0.0
 10
4055.328125
 20
-0.0
 10
4045.763671875
 20
-0.0
 10
4036.19921875
 20
-0.0
 10
4026.634765625
 20
-0.0
 10
4017.0703125
 20
-0.0
 10
4007.505859375
 20
-0.0
 10
3997.94140625
 20
-0.0
 10
3988.376953125
 20
-0.0
 10
3978.8125
 20
-0.0
 10
3969.248046875
 20
-0.0
 10
3959.68359375
 20
-0.0
 10
3950.119140625
 20
-0.0
 10
3940.5546875
 20
-0.0
 10
3930.990234375
 20
-0.0
 10
3921.42578125
 20
-0.0
 10
3911.861328125
 20
-0.0
 10
3902.296875
 20
-0.0
 10
3892.732421875
 20
-0.0
 10
3883.16796875
 20
-0.0
 10
3873.603515625
 20
-0.0
 10
3864.0390625
 20
-0.0
 10
3854.474609375
 20
-0.0
 10
3844.91015625
 20
-0.0
 10
3835.345703125
 20
-0.0
 10
3825.78125
 20
-0.0
 10
3816.216796875
 20
-0.0
 10
3806.65234375
 20
-0.0
 10
3797.087890625
 20
-0.0
 10
3787.5234375
 20
-0.0
 10
3777.958984375
 20
-0.0
 10
3768.39453125
 20
-0.0
 10
3758.830078125
 20
-0.0
 10
3749.265625
 20
-0.0
 10
3739.701171875
 20
-0.0
 10
3730.13671875
 20
-0.0
 10
3720.572265625
 20
-0.0
 10
3711.0078125
 20
-0.0
 10
3701.443359375
 20
-0.0
 10
3691.87890625
 20
-0.0
 10
3682.314453125
 20
-0.0
 10
3672.75
 20
-0.0
 10
3663.185546875
 20
-0.0
 10
3653.62109375
 20
-0.0
 10
3644.056640625
 20
-0.0
 10
3634.4921875
 20
-0.0
 10
3624.927734375
 20
-0.0
 10
3615.36328125
 20
-0.0
 10
3605.798828125
 20
-0.0
 10
3596.234375
 20
-0.0
 10
3586.669921875
 20
-0.0
 10
3577.10546875
 20
-0.0
 10
3567.541015625
 20
-0.0
 10
3557.9765625
 20
-0.0
 10
3548.412109375
 20
-0.0
 10
3538.84765625
 20
-0.0
 10
3529.283203125
 20
-0.0
 10
3519.71875
 20
-0.0
 10
3510.154296875
 20
-0.0
 10
3500.58984375
 20
-0.0
 10
3491.025390625
 20
-0.0
 10
3481.4609375
 20
-0.0
 10
3471.896484375
 20
-0.0
 10
3462.33203125
 20
-0.0
 10
3452.767578125
 20
-0.0
 10
3443.203125
 20
-0.0
 10
3433.638671875
 20
-0.0
 10
3424.07421875
 20
-0.0
 10
3414.509765625
 20
-0.0
 10
3404.9453125
 20
-0.0
 10
3395.380859375
 20
-0.0
 10
3385.81640625
 20
-0.0
 10
3376.251953125
 20
-0.0
 10
3366.6875
 20
-0.0
 10
3357.123046875
 20
-0.0
 10
3347.55859375
 20
-0.0
 10
3337.994140625
 20
-0.0
 10
3328.4296875
 20
-0.0
 10
3318.865234375
 20
-0.0
 10
3309.30078125
 20
-0.0
 10
3299.736328125
 20
-0.0
 10
3290.171875
 20
-0.0
 10
3280.607421875
 20
-0.0
 10
3271.04296875
 20
-0.0
 10
3261.478515625
 20
-0.0
 10
3251.9140625
 20
-0.0
 10
3242.349609375
 20
-0.0
 10
3232.78515625
 20
-0.0
 10
3223.220703125
 20
-0.0
 10
3213.65625
 20
-0.0
 10
3204.091796875
 20
-0.0
 10
3194.52734375
 20
-0.0
 10
3184.962890625
 20
-0.0
 10
3175.3984375
 20
-0.0
 10
3165.833984375
 20
-0.0
 10
3156.26953125
 20
-0.0
 10
3146.705078125
 20
-0.0
 10
3137.140625
 20
-0.0
 10
3127.576171875
 20
-0.0
 10
3118.01171875
 20
-0.0
 10
3108.447265625
 20
-0.0
 10
3098.8828125
 20
-0.0
 10
3089.318359375
 20
-0.0
 10
3079.75390625
 20
-0.0
 10
3070.189453125
 20
-0.0
 10
3060.625
 20
-0.0
 10
3051.060546875
 20
-0.0
 10
3041.49609375
 20
-0.0
 10
3031.931640625
 20
-0.0
 10
3022.3671875
 20
-0.0
 10
3012.802734375
 20
-0.0
 10
3003.23828125
 20
-0.0
 10
2993.673828125
 20
-0.0
 10
2984.109375
 20
-0.0
 10
2974.544921875
 20
-0.0
 10
2964.98046875
 20
-0.0
 10
2955.416015625
 20
-0.0
 10
2945.8515625
 20
-0.0
 10
2936.287109375
 20
-0.0
 10
2926.72265625
 20
-0.0
 10
2917.158203125
 20
-0.0
 10
2907.59375
 20
-0.0
 10
2898.029296875
 20
-0.0
 10
2888.46484375
 20
-0.0
 10
2878.900390625
 20
-0.0
 10
2869.3359375
 20
-0.0
 10
2859.771484375
 20
-0.0
 10
2850.20703125
 20
-0.0
 10
2840.642578125
 20
-0.0
 10
2831.078125
 20
-0.0
 10
2821.513671875
 20
-0.0
 10
2811.94921875
 20
-0.0
 10
2802.384765625
 20
-0.0
 10
2792.8203125
 20
-0.0
 10
2783.255859375
 20
-0.0
 10
2773.69140625
 20
-0.0
 10
2764.126953125
 20
-0.0
 10
2754.5625
 20
-0.0
 10
2744.998046875
 20
-0.0
 10
2735.43359375
 20
-0.0
 10
2725.869140625
 20
-0.0
 10
2716.3046875
 20
-0.0
 10
2706.740234375
 20
-0.0
 10
2697.17578125
 20
-0.0
 10
2687.611328125
 20
-0.0
 10
2678.046875
 20
-0.0
 10
2668.482421875
 20
-0.0
 10
2658.91796875
 20
-0.0
 10
2649.353515625
 20
-0.0
 10
2639.7890625
 20
-0.0
 10
2630.224609375
 20
-0.0
 10
2620.66015625
 20
-0.0
 10
2611.095703125
 20
-0.0
 10
2601.53125
 20
-0.0
 10
2591.966796875
 20
-0.0
 10
2582.40234375
 20
-0.0
 10
2572.837890625
 20
-0.0
 10
2563.2734375
 20
-0.0
 10
2553.708984375
 20
-0.0
 10
2544.14453125
 20
-0.0
 10
2534.580078125
 20
-0.0
 10
2525.015625
 20
-0.0
 10
2515.451171875
 20
-0.0
 10
2505.88671875
 20
-0.0
 10
2496.322265625
 20
-0.0
 10
2486.7578125
 20
-0.0
 10
2477.193359375
 20
-0.0
 10
2467.62890625
 20
-0.0
 10
2458.064453125
 20
-0.0
 10
2448.5
 20
-0.0
 10
2438.935546875
 20
-0.0
 10
2429.37109375
 20
-0.0
 10
2419.806640625
 20
-0.0
 10
2410.2421875
 20
-0.0
 10
2400.677734375
 20
-0.0
 10
2391.11328125
 20
-0.0
 10
2381.548828125
 20
-0.0
 10
2371.984375
 20
-0.0
 10
2362.419921875
 20
-0.0
 10
2352.85546875
 20
-0.0
 10
2343.291015625
 20
-0.0
 10
2333.7265625
 20
-0.0
 10
2324.162109375
 20
-0.0
 10
2314.59765625
 20
-0.0
 10
2305.033203125
 20
-0.0
 10
2295.46875
 20
-0.0
 10
2285.904296875
 20
-0.0
 10
2276.33984375
 20
-0.0
 10
2266.775390625
 20
-0.0
 10
2257.2109375
 20
-0.0
 10
2247.646484375
 20
-0.0
 10
2238.08203125
 20
-0.0
 10
2228.517578125
 20
-0.0
 10
2218.953125
 20
-0.0
 10
2209.388671875
 20
-0.0
 10
2199.82421875
 20
-0.0
 10
2190.259765625
 20
-0.0
 10
2180.6953125
 20
-0.0
 10
2171.130859375
 20
-0.0
 10
2161.56640625
 20
-0.0
 10
2152.001953125
 20
-0.0
 10
2142.4375
 20
-0.0
 10
2132.873046875
 20
-0.0
 10
2123.30859375
 20
-0.0
 10
2113.744140625
 20
-0.0
 10
2104.1796875
 20
-0.0
 10
2094.615234375
 20
-0.0
 10
2085.05078125
 20
-0.0
 10
2075.486328125
 20
-0.0
 10
2065.921875
 20
-0.0
 10
2056.357421875
 20
-0.0
 10
2046.79296875
 20
-0.0
 10
2037.228515625
 20
-0.0
 10
2027.6640625
 20
-0.0
 10
2018.099609375
 20
-0.0
 10
2008.53515625
 20
-0.0
 10
1998.970703125
 20
-0.0
 10
1989.40625
 20
-0.0
 10
1979.841796875
 20
-0.0
 10
1970.27734375
 20
-0.0
 10
1960.712890625
 20
-0.0
 10
1951.1484375
 20
-0.0
 10
1941.583984375
 20
-0.0
 10
1932.01953125
 20
-0.0
 10
1922.455078125
 20
-0.0
 10
1912.890625
 20
-0.0
 10
1903.326171875
 20
-0.0
 10
1893.76171875
 20
-0.0
 10
1884.197265625
 20
-0.0
 10
1874.6328125
 20
-0.0
 10
1865.068359375
 20
-0.0
 10
1855.50390625
 20
-0.0
 10
1845.939453125
 20
-0.0
 10
1836.375
 20
-0.0
 10
1826.810546875
 20
-0.0
 10
1817.24609375
 20
-0.0
 10
1807.681640625
 20
-0.0
 10
1798.1171875
 20
-0.0
 10
1788.552734375
 20
-0.0
 10
1778.98828125
 20
-0.0
 10
1769.423828125
 20
-0.0
 10
1759.859375
 20
-0.0
 10
1750.294921875
 20
-0.0
 10
1740.73046875
 20
-0.0
 10
1731.166015625
 20
-0.0
 10
1721.6015625
 20
-0.0
 10
1712.037109375
 20
-0.0
 10
1702.47265625
 20
-0.0
 10
1692.908203125
 20
-0.0
 10
1683.34375
 20
-0.0
 10
1673.779296875
 20
-0.0
 10
1664.21484375
 20
-0.0
 10
1654.650390625
 20
-0.0
 10
1645.0859375
 20
-0.0
 10
1635.521484375
 20
-0.0
 10
1625.95703125
 20
-0.0
 10
1616.392578125
 20
-0.0
 10
1606.828125
 20
-0.0
 10
1597.263671875
 20
-0.0
 10
1587.69921875
 20
-0.0
 10
1578.134765625
 20
-0.0
 10
1568.5703125
 20
-0.0
 10
1559.005859375
 20
-0.0
 10
1549.44140625
 20
-0.0
 10
1539.876953125
 20
-0.0
 10
1530.3125
 20
-0.0
 10
1520.748046875
 20
-0.0
 10
1511.18359375
 20
-0.0
 10
1501.619140625
 20
-0.0
 10
1492.0546875
 20
-0.0
 10
1482.490234375
 20
-0.0
 10
1472.92578125
 20
-0.0
 10
1463.361328125
 20
-0.0
 10
1453.796875
 20
-0.0
 10
1444.232421875
 20
-0.0
 10
1434.66796875
 20
-0.0
 10
1425.103515625
 20
-0.0
 10
1415.5390625
 20
-0.0
 10
1405.974609375
 20
-0.0
 10
1396.41015625
 20
-0.0
 10
1386.845703125
 20
-0.0
 10
1377.28125
 20
-0.0
 10
1367.716796875
 20
-0.0
 10
1358.15234375
 20
-0.0
 10
1348.587890625
 20
-0.0
 10
1339.0234375
 20
-0.0
 10
1329.458984375
 20
-0.0
 10
1319.89453125
 20
-0.0
 10
1310.330078125
 20
-0.0
 10
1300.765625
 20
-0.0
 10
1291.201171875
 20
-0.0
 10
1281.63671875
 20
-0.0
 10
1272.072265625
 20
-0.0
 10
1262.5078125
 20
-0.0
 10
1252.943359375
 20
-0.0
 10
1243.37890625
 20
-0.0
 10
1233.814453125
 20
-0.0
 10
1224.25
 20
-0.0
 10
1214.685546875
 20
-0.0
 10
1205.12109375
 20
-0.0
 10
1195.556640625
 20
-0.0
 10
1185.9921875
 20
-0.0
 10
1176.427734375
 20
-0.0
 10
1166.86328125
 20
-0.0
 10
1157.298828125
 20
-0.0
 10
1147.734375
 20
-0.0
 10
1138.169921875
 20
-0.0
 10
1128.60546875
 20
-0.0
 10
1119.041015625
 20
-0.0
 10
1109.4765625
 20
-0.0
 10
1099.912109375
 20
-0.0
 10
1090.34765625
 20
-0.0
 10
1080.783203125
 20
-0.0
 10
1071.21875
 20
-0.0
 10
1061.654296875
 20
-0.0
 10
1052.08984375
 20
-0.0
 10
1042.525390625
 20
-0.0
 10
1032.9609375
 20
-0.0
 10
1023.396484375
 20
-0.0
 10
1013.83203125
 20
-0.0
 10
1004.267578125
 20
-0.0
 10
994.703125
 20
-0.0
 10
985.138671875
 20
-0.0
 10
975.57421875
 20
-0.0
 10
966.009765625
 20
-0.0
 10
956.4453125
 20
-0.0
 10
946.880859375
 20
-0.0
 10
937.31640625
 20
-0.0
 10
927.751953125
 20
-0.0
 10
918.1875
 20
-0.0
 10
908.623046875
 20
-0.0
 10
899.05859375
 20
-0.0
 10
889.494140625
 20
-0.0
 10
879.9296875
 20
-0.0
 10
870.365234375
 20
-0.0
 10
860.80078125
 20
-0.0
 10
851.236328125
 20
-0.0
 10
841.671875
 20
-0.0
 10
832.107421875
 20
-0.0
 10
822.54296875
 20
-0.0
 10
812.978515625
 20
-0.0
 10
803.4140625
 20
-0.0
 10
793.849609375
 20
-0.0
 10
784.28515625
 20
-0.0
 10
774.720703125
 20
-0.0
 10
765.15625
 20
-0.0
 10
755.591796875
 20
-0.0
 10
746.02734375
 20
-0.0
 10
736.462890625
 20
-0.0
 10
726.8984375
 20
-0.0
 10
717.333984375
 20
-0.0
 10
707.76953125
 20
-0.0
 10
698.205078125
 20
-0.0
 10
688.640625
 20
-0.0
 10
679.076171875
 20
-0.0
 10
669.51171875
 20
-0.0
 10
659.947265625
 20
-0.0
 10
650.3828125
 20
-0.0
 10
640.818359375
 20
-0.0
 10
631.25390625
 20
-0.0
 10
621.689453125
 20
-0.0
 10
612.125
 20
-0.0
 10
602.560546875
 20
-0.0
 10
592.99609375
 20
-0.0
 10
583.431640625
 20
-0.0
 10
573.8671875
 20
-0.0
 10
564.302734375
 20
-0.0
 10
554.73828125
 20
-0.0
 10
545.173828125
 20
-0.0
 10
535.609375
 20
-0.0
 10
526.044921875
 20
-0.0
 10
516.48046875
 20
-0.0
 10
506.916015625
 20
-0.0
 10
497.3515625
 20
-0.0
 10
487.787109375
 20
-0.0
 10
478.22265625
 20
-0.0
 10
468.658203125
 20
-0.0
 10
459.09375
 20
-0.0
 10
449.529296875
 20
-0.0
 10
439.96484375
 20
-0.0
 10
430.400390625
 20
-0.0
 10
420.8359375
 20
-0.0
 10
411.271484375
 20
-0.0
 10
401.70703125
 20
-0.0
 10
392.142578125
 20
-0.0
 10
382.578125
 20
-0.0
 10
373.013671875
 20
-0.0
 10
363.44921875
 20
-0.0
 10
353.884765625
 20
-0.0
 10
344.3203125
 20
-0.0
 10
334.755859375
 20
-0.0
 10
325.19140625
 20
-0.0
 10
315.626953125
 20
-0.0
 10
306.0625
 20
-0.0
 10
296.498046875
 20
-0.0
 10
286.93359375
 20
-0.0
 10
277.369140625
 20
-0.0
 10
267.8046875
 20
-0.0
 10
258.240234375
 20
-0.0
 10
248.67578125
 20
-0.0
 10
239.111328125
 20
-0.0
 10
229.546875
 20
-0.0
 10
219.982421875
 20
-0.0
 10
210.41796875
 20
-0.0
 10
200.853515625
 20
-0.0
 10
191.2890625
 20
-0.0
 10
181.724609375
 20
-0.0
 10
172.16015625
 20
-0.0
 10
162.595703125
 20
-0.0
 10
153.03125
 20
-0.0
 10
143.466796875
 20
-0.0
 10
133.90234375
 20
-0.0
 10
124.337890625
 20
-0.0
 10
114.7734375
 20
-0.0
 10
105.208984375
 20
-0.0
 10
95.64453125
 20
-0.0
 10
86.080078125
 20
-0.0
 10
76.515625
 20
-0.0
 10
66.951171875
 20
-0.0
 10
57.38671875
 20
-0.0
 10
47.822265625
 20
-0.0
 10
38.2578125
 20
-0.0
 10
28.693359375
 20
-0.0
 10
19.12890625
 20
-0.0
 10
9.564453125
 20
-0.0
  0
LWPOLYLINE
  5
34
330
17
100
AcDbEntity
  8
substrate
100
AcDbPolyline
 90
266
 70
1
 43
0.5
 10
2324.162109375
 20
-2008.53515625
 10
2333.7265625
 20
-1998.970703125
 10
2343.291015625
 20
-1998.970703125
 10
2352.85546875
 20
-1998.970703125
 10
2362.419921875
 20
-2008.53515625
 10
2371.984375
 20
-1998.970703125
 10
2381.548828125
 20
-1998.970703125
 10
2391.11328125
 20
-1998.970703125
 10
2400.677734375
 20
-1998.970703125
 10
2410.2421875
 20
-1998.970703125
 10
2419.806640625
 20
-1998.970703125
 10
2429.37109375
 20
-1998.970703125
 10
2438.935546875
 20
-1998.970703125
 10
2448.5
 20
-1998.970703125
 10
2458.064453125
 20
-1998.970703125
 10
2467.62890625
 20
-1998.970703125
 10
2477.193359375
 20
-1998.970703125
 10
2486.7578125
 20
-1998.970703125
 10
2496.322265625
 20
-1998.970703125
 10
2505.88671875
 20
-1998.970703125
 10
2515.451171875
 20
-1998.970703125
 10
2525.015625
 20
-1998.970703125
 10
2534.580078125
 20
-1998.970703125
 10
2544.14453125
 20
-2008.53515625
 10
2553.708984375
 20
-2008.53515625
 10
2563.2734375
 20
-2008.53515625
 10
2572.837890625
 20
-2018.099609375
 10
2582.40234375
 20
-2018.099609375
 10
2591.966796875
 20
-2018.099609375
 10
2601.53125
 20
-2027.6640625
 10
2611.095703125
 20
-2027.6640625
 10
2620.66015625
 20
-2027.6640625
 10
2630.224609375
 20
-2037.228515625
 10
2639.7890625
 20
-2037.228515625
 10
2649.353515625
 20
-2037.228515625
 10
2658.91796875
 20
-2046.79296875
 10
2668.482421875
 20
-2056.357421875
 10
2678.046875
 20
-2056.357421875
 10
2687.611328125
 20
-2065.921875
 10
2697.17578125
 20
-2075.486328125
 10
2706.740234375
 20
-2085.05078125
 10
2716.3046875
 20
-2085.05078125
 10
2725.869140625
 20
-2094.615234375
 10
2735.43359375
 20
-2104.1796875
 10
2744.998046875
 20
-2113.744140625
 10
2754.5625
 20
-2123.30859375
 10
2764.126953125
 20
-2132.873046875
 10
2773.69140625
 20
-2132.873046875
 10
2783.255859375
 20
-2142.4375
 10
2792.8203125
 20
-2152.001953125
 10
2792.8203125
 20
-2161.56640625
 10
2802.384765625
 20
-2171.130859375
 10
2802.384765625
 20
-2180.6953125
 10
2811.94921875
 20
-2190.259765625
 10
2821.513671875
 20
-2199.82421875
 10
2821.513671875
 20
-2209.388671875
 10
2831.078125
 20
-2218.953125
 10
2831.078125
 20
-2228.517578125
 10
2840.642578125
 20
-2238.08203125
 10
2850.20703125
 20
-2247.646484375
 10
2850.20703125
 20
-2257.2109375
 10
2859.771484375
 20
-2266.775390625
 10
2859.771484375
 20
-2276.33984375
 10
2859.771484375
 20
-2285.904296875
 10
2859.771484375
 20
-2295.46875
 10
2869.3359375
 20
-2305.033203125
 10
2869.3359375
 20
-2314.59765625
 10
2878.900390625
 20
-2324.162109375
 10
2878.900390625
 20
-2333.7265625
 10
2878.900390625
 20
-2343.291015625
 10
2888.46484375
 20
-2352.85546875
 10
2888.46484375
 20
-2362.419921875
 10
2888.46484375
 20
-2371.984375
 10
2888.46484375
 20
-2381.548828125
 10
2898.029296875
 20
-2391.11328125
 10
2898.029296875
 20
-2400.677734375
 10
2898.029296875
 20
-2410.2421875
 10
2898.029296875
 20
-2419.806640625
 10
2888.46484375
 20
-2429.37109375
 10
2888.46484375
 20
-2438.935546875
 10
2898.029296875
 20
-2448.5
 10
2898.029296875
 20
-2458.064453125
 10
2898.029296875
 20
-2467.62890625
 10
2898.029296875
 20
-2477.193359375
 10
2898.029296875
 20
-2486.7578125
 10
2898.029296875
 20
-2496.322265625
 10
2888.46484375
 20
-2505.88671875
 10
2888.46484375
 20
-2515.451171875
 10
2888.46484375
 20
-2525.015625
 10
2888.46484375
 20
-2534.580078125
 10
2888.46484375
 20
-2544.14453125
 10
2888.46484375
 20
-2553.708984375
 10
2888.46484375
 20
-2563.2734375
 10
2878.900390625
 20
-2572.837890625
 10
2878.900390625
 20
-2582.40234375
 10
2869.3359375
 20
-2591.966796875
 10
2869.3359375
 20
-2601.53125
 10
2859.771484375
 20
-2611.095703125
 10
2859.771484375
 20
-2620.66015625
 10
2859.771484375
 20
-2630.224609375
 10
2850.20703125
 20
-2639.7890625
 10
2850.20703125
 20
-2649.353515625
 10
2850.20703125
 20
-2658.91796875
 10
2840.642578125
 20
-2668.482421875
 10
2831.078125
 20
-2678.046875
 10
2821.513671875
 20
-2687.611328125
 10
2811.94921875
 20
-2697.17578125
 10
2802.384765625
 20
-2706.740234375
 10
2802.384765625
 20
-2716.3046875
 10
2792.8203125
 20
-2725.869140625
 10
2783.255859375
 20
-2735.43359375
 10
2773.69140625
 20
-2744.998046875
 10
2764.126953125
 20
-2754.5625
 10
2754.5625
 20
-2764.126953125
 10
2744.998046875
 20
-2773.69140625
 10
2735.43359375
 20
-2783.255859375
 10
2725.869140625
 20
-2792.8203125
 10
2716.3046875
 20
-2802.384765625
 10
2706.740234375
 20
-2811.94921875
 10
2697.17578125
 20
-2811.94921875
 10
2687.611328125
 20
-2821.513671875
 10
2678.046875
 20
-2821.513671875
 10
2668.482421875
 20
-2831.078125
 10
2658.91796875
 20
-2840.642578125
 10
2649.353515625
 20
-2850.20703125
 10
2639.7890625
 20
-2850.20703125
 10
2630.224609375
 20
-2859.771484375
 10
2620.66015625
 20
-2869.3359375
 10
2611.095703125
 20
-2869.3359375
 10
2601.53125
 20
-2869.3359375
 10
2591.966796875
 20
-2878.900390625
 10
2582.40234375
 20
-2878.900390625
 10
2572.837890625
 20
-2878.900390625
 10
2563.2734375
 20
-2878.900390625
 10
2553.708984375
 20
-2888.46484375
 10
2544.14453125
 20
-2888.46484375
 10
2534.580078125
 20
-2888.46484375
 10
2525.015625
 20
-2898.029296875
 10
2515.451171875
 20
-2888.46484375
 10
2505.88671875
 20
-2888.46484375
 10
2496.322265625
 20
-2898.029296875
 10
2486.7578125
 20
-2898.029296875
 10
2477.193359375
 20
-2898.029296875
 10
2467.62890625
 20
-2898.029296875
 10
2458.064453125
 20
-2898.029296875
 10
2448.5
 20
-2907.59375
 10
2438.935546875
 20
-2898.029296875
 10
2429.37109375
 20
-2898.029296875
 10
2419.806640625
 20
-2898.029296875
 10
2410.2421875
 20
-2888.46484375
 10
2400.677734375
 20
-2888.46484375
 10
2391.11328125
 20
-2888.46484375
 10
2381.548828125
 20
-2888.46484375
 10
2371.984375
 20
-2888.46484375
 10
2362.419921875
 20
-2878.900390625
 10
2352.85546875
 20
-2878.900390625
 10
2343.291015625
 20
-2878.900390625
 10
2333.7265625
 20
-2869.3359375
 10
2324.162109375
 20
-2869.3359375
 10
2314.59765625
 20
-2869.3359375
 10
2305.033203125
 20
-2869.3359375
 10
2295.46875
 20
-2869.3359375
 10
2285.904296875
 20
-2859.771484375
 10
2276.33984375
 20
-2859.771484375
 10
2266.775390625
 20
-2850.20703125
 10
2257.2109375
 20
-2850.20703125
 10
2247.646484375
 20
-2840.642578125
 10
2238.08203125
 20
-2840.642578125
 10
2228.517578125
 20
-2831.078125
 10
2218.953125
 20
-2831.078125
 10
2209.388671875
 20
-2821.513671875
 10
2199.82421875
 20
-2811.94921875
 10
2190.259765625
 20
-2802.384765625
 10
2180.6953125
 20
-2802.384765625
 10
2171.130859375
 20
-2802.384765625
 10
2161.56640625
 20
-2792.8203125
 10
2161.56640625
 20
-2783.255859375
 10
2152.001953125
 20
-2773.69140625
 10
2142.4375
 20
-2764.126953125
 10
2132.873046875
 20
-2754.5625
 10
2123.30859375
 20
-2744.998046875
 10
2113.744140625
 20
-2735.43359375
 10
2104.1796875
 20
-2725.869140625
 10
2094.615234375
 20
-2716.3046875
 10
2085.05078125
 20
-2706.740234375
 10
2075.486328125
 20
-2697.17578125
 10
2075.486328125
 20
-2687.611328125
 10
2065.921875
 20
-2678.046875
 10
2056.357421875
 20
-2668.482421875
 10
2056.357421875
 20
-2658.91796875
 10
2046.79296875
 20
-2649.353515625
 10
2046.79296875
 20
-2639.7890625
 10
2037.228515625
 20
-2630.224609375
 10
2027.6640625
 20
-2620.66015625
 10
2018.099609375
 20
-2611.095703125
 10
2018.099609375
 20
-2601.53125
 10
2008.53515625
 20
-2591.966796875
 10
1998.970703125
 20
-2582.40234375
 10
2008.53515625
 20
-2572.837890625
 10
1998.970703125
 20
-2563.2734375
 10
2008.53515625
 20
-2553.708984375
 10
2008.53515625
 20
-2544.14453125
 10
2008.53515625
 20
-2534.580078125
 10
1998.970703125
 20
-2525.015625
 10
1998.970703125
 20
-2515.451171875
 10
1998.970703125
 20
-2505.88671875
 10
1998.970703125
 20
-2496.322265625
 10
1998.970703125
 20
-2486.7578125
 10
1998.970703125
 20
-2477.193359375
 10
1998.970703125
 20
-2467.62890625
 10
1998.970703125
 20
-2458.064453125
 10
1998.970703125
 20
-2448.5
 10
1998.970703125
 20
-2438.935546875
 10
1998.970703125
 20
-2429.37109375
 10
1998.970703125
 20
-2419.806640625
 10
1998.970703125
 20
-2410.2421875
 10
1998.970703125
 20
-2400.677734375
 10
1998.970703125
 20
-2391.11328125
 10
1998.970703125
 20
-2381.548828125
 10
1998.970703125
 20
-2371.984375
 10
1998.970703125
 20
-2362.419921875
 10
1998.970703125
 20
-2352.85546875
 10
1998.970703125
 20
-2343.291015625
 10
1998.970703125
 20
-2333.7265625
 10
1998.970703125
 20
-2324.162109375
 10
2008.53515625
 20
-2314.59765625
 10
2018.099609375
 20
-2305.033203125
 10
2018.099609375
 20
-2295.46875
 10
2027.6640625
 20
-2285.904296875
 10
2027.6640625
 20
-2276.33984375
 10
2037.228515625
 20
-2266.775390625
 10
2037.228515625
 20
-2257.2109375
 10
2037.228515625
 20
-2247.646484375
 10
2037.228515625
 20
-2238.08203125
 10
2037.228515625
 20
-2228.517578125
 10
2046.79296875
 20
-2218.953125
 10
2046.79296875
 20
-2209.388671875
 10
2056.357421875
 20
-2199.82421875
 10
2065.921875
 20
-2190.259765625
 10
2075.486328125
 20
-2180.6953125
 10
2085.05078125
 20
-2171.130859375
 10
2094.615234375
 20
-2161.56640625
 10
2104.1796875
 20
-2152.001953125
 10
2113.744140625
 20
-2142.4375
 10
2123.30859375
 20
-2132.873046875
 10
2132.873046875
 20
-2123.30859375
 10
2142.4375
 20
-2113.744140625
 10
2152.001953125
 20
-2104.1796875
 10
2161.56640625
 20
-2104.1796875
 10
2171.130859375
 20
-2094.615234375
 10
2180.6953125
 20
-2085.05078125
 10
2190.259765625
 20
-2085.05078125
 10
2190.259765625
 20
-2075.486328125
 10
2199.82421875
 20
-2065.921875
 10
2209.388671875
 20
-2065.921875
 10
2218.953125
 20
-2056.357421875
 10
2228.517578125
 20
-2056.357421875
 10
2238.08203125
 20
-2046.79296875
 10
2247.646484375
 20
-2046.79296875
 10
2257.2109375
 20
-2037.228515625
 10
2266.775390625
 20
-2037.228515625
 10
2276.33984375
 20
-2027.6640625
 10
2285.904296875
 20
-2027.6640625
 10
2295.46875
 20
-2018.099609375
 10
2305.033203125
 20
-2008.53515625
 10
2314.59765625
 20
-2008.53515625
  0
ENDSEC
  0
SECTION
  2
OBJECTS
  0
DICTIONARY
  5
A
330
0
100
AcDbDictionary
280
0
281
1
  3
ACAD_COLOR
350
B
  3
ACAD_GROUP
350
C
  3
ACAD_LAYOUT
350
D
  3
ACAD_MATERIAL
350
E
  3
ACAD_MLEADERSTYLE
350
F
  3
ACAD_MLINESTYLE
350
10
  3
ACAD_PLOTSETTINGS
350
11
  3
ACAD_PLOTSTYLENAME
350
12
  3
ACAD_SCALELIST
350
14
  3
ACAD_TABLESTYLE
350
15
  3
ACAD_VISUALSTYLE
350
16
  3
EZDXF_META
350
2D
  0
DICTIONARY
  5
B
330
A
100
AcDbDictionary
280
0
281
1
  0
DICTIONARY
  5
C
330
A
100
AcDbDictionary
280
0
281
1
  0
DICTIONARY
  5
D
330
A
100
AcDbDictionary
280
0
281
1
  3
Model
350
1A
  3
Layout1
350
1E
  0
DICTIONARY
  5
E
330
A
100
AcDbDictionary
280
0
281
1
  3
ByBlock
350
1F
  3
ByLayer
350
20
  3
Global
350
21
  0
DICTIONARY
  5
F
330
A
100
AcDbDictionary
280
0
281
1
  3
Standard
350
2C
  0
DICTIONARY
  5
10
330
A
100
AcDbDictionary
280
0
281
1
  3
Standard
350
22
  0
DICTIONARY
  5
11
330
A
100
AcDbDictionary
280
0
281
1
  0
ACDBDICTIONARYWDFLT
  5
12
330
A
100
AcDbDictionary
280
0
281
1
  3
Normal
350
13
100
AcDbDictionaryWithDefault
340
13
  0
ACDBPLACEHOLDER
  5
13
330
12
  0
DICTIONARY
  5
14
330
A
100
AcDbDictionary
280
0
281
1
  0
DICTIONARY
  5
15
330
A
100
AcDbDictionary
280
0
281
1
  0
DICTIONARY
  5
16
330
A
100
AcDbDictionary
280
0
281
1
  0
LAYOUT
  5
1A
330
D
100
AcDbPlotSettings
  1

  2
Adobe PDF
  4
A3
  6

 40
7.5
 41
20.0
 42
7.5
 43
20.0
 44
420.0
 45
297.0
 46
0.0
 47
0.0
 48
0.0
 49
0.0
140
0.0
141
0.0
142
1.0
143
1.0
 70
1024
 72
1
 73
0
 74
5
  7

 75
16
 76
0
 77
2
 78
300
147
1.0
148
0.0
149
0.0
100
AcDbLayout
  1
Model
 70
1
 71
0
 10
0.0
 20
0.0
 11
420.0
 21
297.0
 12
0.0
 22
0.0
 32
0.0
 14
1e+20
 24
1e+20
 34
1e+20
 15
-1e+20
 25
-1e+20
 35
-1e+20
146
0.0
 13
0.0
 23
0.0
 33
0.0
 16
1.0
 26
0.0
 36
0.0
 17
0.0
 27
1.0
 37
0.0
 76
1
330
17
  0
LAYOUT
  5
1E
330
D
100
AcDbPlotSettings
  1

  2
Adobe PDF
  4
A3
  6

 40
7.5
 41
20.0
 42
7.5
 43
20.0
 44
420.0
 45
297.0
 46
0.0
 47
0.0
 48
0.0
 49
0.0
140
0.0
141
0.0
142
1.0
143
1.0
 70
0
 72
1
 73
0
 74
5
  7

 75
16
 76
0
 77
2
 78
300
147
1.0
148
0.0
149
0.0
100
AcDbLayout
  1
Layout1
 70
1
 71
1
 10
0.0
 20
0.0
 11
420.0
 21
297.0
 12
0.0
 22
0.0
 32
0.0
 14
1e+20
 24
1e+20
 34
1e+20
 15
-1e+20
 25
-1e+20
 35
-1e+20
146
0.0
 13
0.0
 23
0.0
 33
0.0
 16
1.0
 26
0.0
 36
0.0
 17
0.0
 27
1.0
 37
0.0
 76
1
330
1B
  0
MATERIAL
  5
1F
102
{ACAD_REACTORS
330
E
102
}
330
E
100
AcDbMaterial
  1
ByBlock
  2

 70
0
 40
1.0
 71
1
 41
1.0
 91
-1023410177
 42
1.0
 72
1
  3

 73
1
 74
1
 75
1
 44
0.5
 73
0
 45
1.0
 46
1.0
 77
1
  4

 78
1
 79
1
170
1
 48
1.0
171
1
  6

172
1
173
1
174
1
140
1.0
141
1.0
175
1
  7

176
1
177
1
178
1
143
1.0
179
1
  8

270
1
271
1
272
1
145
1.0
146
1.0
273
1
  9

274
1
275
1
276
1
 42
1.0
 72
1
  3

 73
1
 74
1
 75
1
 94
63
  0
MATERIAL
  5
20
102
{ACAD_REACTORS
330
E
102
}
330
E
100
AcDbMaterial
  1
ByLayer
  2

 70
0
 40
1.0
 71
1
 41
1.0
 91
-1023410177
 42
1.0
 72
1
  3

 73
1
 74
1
 75
1
 44
0.5
 73
0
 45
1.0
 46
1.0
 77
1
  4

 78
1
 79
1
170
1
 48
1.0
171
1
  6

172
1
173
1
174
1
140
1.0
141
1.0
175
1
  7

176
1
177
1
178
1
143
1.0
179
1
  8

270
1
271
1
272
1
145
1.0
146
1.0
273
1
  9

274
1
275
1
276
1
 42
1.0
 72
1
  3

 73
1
 74
1
 75
1
 94
63
  0
MATERIAL
  5
21
102
{ACAD_REACTORS
330
E
102
}
330
E
100
AcDbMaterial
  1
Global
  2

 70
0
 40
1.0
 71
1
 41
1.0
 91
-1023410177
 42
1.0
 72
1
  3

 73
1
 74
1
 75
1
 44
0.5
 73
0
 45
1.0
 46
1.0
 77
1
  4

 78
1
 79
1
170
1
 48
1.0
171
1
  6

172
1
173
1
174
1
140
1.0
141
1.0
175
1
  7

176
1
177
1
178
1
143
1.0
179
1
  8

270
1
271
1
272
1
145
1.0
146
1.0
273
1
  9

274
1
275
1
276
1
 42
1.0
 72
1
  3

 73
1
 74
1
 75
1
 94
63
  0
MLINESTYLE
  5
22
102
{ACAD_REACTORS
330
10
102
}
330
10
100
AcDbMlineStyle
  2
Standard
 70
0
  3

 62
256
 51
90.0
 52
90.0
 71
2
 49
0.5
 62
256
  6
BYLAYER
 49
-0.5
 62
256
  6
BYLAYER
  0
MLEADERSTYLE
  5
2C
102
{ACAD_REACTORS
330
F
102
}
330
F
100
AcDbMLeaderStyle
179
2
170
2
171
1
172
0
 90
2
 40
0.0
 41
0.0
173
1
 91
-1056964608
 92
-2
290
1
 42
2.0
291
1
 43
8.0
  3
Standard
 44
4.0
300

342
29
174
1
175
1
176
0
178
1
 93
-1056964608
 45
4.0
292
0
297
0
 46
4.0
 94
-1056964608
 47
1.0
 49
1.0
140
1.0
294
1
141
0.0
177
0
142
1.0
295
0
296
0
143
3.75
271
0
272
9
273
9
  0
DICTIONARY
  5
2D
330
A
100
AcDbDictionary
281
1
  3
CREATED_BY_EZDXF
350
2E
  3
WRITTEN_BY_EZDXF
350
37
  0
DICTIONARYVAR
  5
2E
330
2D
100
DictionaryVariables
280
0
  1
1.1.0 @ 2025-01-31T17:55:03.764872+00:00
  0
DICTIONARYVAR
  5
37
330
2D
100
DictionaryVariables
280
0
  1
1.1.0 @ 2025-01-31T17:55:03.771983+00:00
  0
ENDSEC
  0
EOF
