  0
SECTION
  2
HEADER
  9
$ACADVER
  1
AC1027
  9
$ACADMAINTVER
 70
105
  9
$DWGCODEPAGE
  3
ANSI_1252
  9
$LASTSAVEDBY
  1
ezdxf
  9
$REQUIREDVERSIONS
160
0
  9
$INSBASE
 10
0.0
 20
0.0
 30
0.0
  9
$EXTMIN
 10
1e+20
 20
1e+20
 30
1e+20
  9
$EXTMAX
 10
-1e+20
 20
-1e+20
 30
-1e+20
  9
$LIMMIN
 10
0.0
 20
0.0
  9
$LIMMAX
 10
420.0
 20
297.0
  9
$ORTHOMODE
 70
0
  9
$REGENMODE
 70
1
  9
$FILLMODE
 70
1
  9
$QTEXTMODE
 70
0
  9
$MIRRTEXT
 70
1
  9
$LTSCALE
 40
1.0
  9
$ATTMODE
 70
1
  9
$TEXTSIZE
 40
2.5
  9
$TRACEWID
 40
1.0
  9
$TEXTSTYLE
  7
Standard
  9
$CLAYER
  8
0
  9
$CELTYPE
  6
ByLayer
  9
$CECOLOR
 62
256
  9
$CELTSCALE
 40
1.0
  9
$DISPSILH
 70
0
  9
$DIMSCALE
 40
1.0
  9
$DIMASZ
 40
2.5
  9
$DIMEXO
 40
0.625
  9
$DIMDLI
 40
3.75
  9
$DIMRND
 40
0.0
  9
$DIMDLE
 40
0.0
  9
$DIMEXE
 40
1.25
  9
$DIMTP
 40
0.0
  9
$DIMTM
 40
0.0
  9
$DIMTXT
 40
2.5
  9
$DIMCEN
 40
2.5
  9
$DIMTSZ
 40
0.0
  9
$DIMTOL
 70
0
  9
$DIMLIM
 70
0
  9
$DIMTIH
 70
0
  9
$DIMTOH
 70
0
  9
$DIMSE1
 70
0
  9
$DIMSE2
 70
0
  9
$DIMTAD
 70
1
  9
$DIMZIN
 70
8
  9
$DIMBLK
  1

  9
$DIMASO
 70
1
  9
$DIMSHO
 70
1
  9
$DIMPOST
  1

  9
$DIMAPOST
  1

  9
$DIMALT
 70
0
  9
$DIMALTD
 70
3
  9
$DIMALTF
 40
0.03937007874
  9
$DIMLFAC
 40
1.0
  9
$DIMTOFL
 70
1
  9
$DIMTVP
 40
0.0
  9
$DIMTIX
 70
0
  9
$DIMSOXD
 70
0
  9
$DIMSAH
 70
0
  9
$DIMBLK1
  1

  9
$DIMBLK2
  1

  9
$DIMSTYLE
  2
ISO-25
  9
$DIMCLRD
 70
0
  9
$DIMCLRE
 70
0
  9
$DIMCLRT
 70
0
  9
$DIMTFAC
 40
1.0
  9
$DIMGAP
 40
0.625
  9
$DIMJUST
 70
0
  9
$DIMSD1
 70
0
  9
$DIMSD2
 70
0
  9
$DIMTOLJ
 70
0
  9
$DIMTZIN
 70
8
  9
$DIMALTZ
 70
0
  9
$DIMALTTZ
 70
0
  9
$DIMUPT
 70
0
  9
$DIMDEC
 70
2
  9
$DIMTDEC
 70
2
  9
$DIMALTU
 70
2
  9
$DIMALTTD
 70
3
  9
$DIMTXSTY
  7
Standard
  9
$DIMAUNIT
 70
0
  9
$DIMADEC
 70
0
  9
$DIMALTRND
 40
0.0
  9
$DIMAZIN
 70
0
  9
$DIMDSEP
 70
44
  9
$DIMATFIT
 70
3
  9
$DIMFRAC
 70
0
  9
$DIMLDRBLK
  1

  9
$DIMLUNIT
 70
2
  9
$DIMLWD
 70
-2
  9
$DIMLWE
 70
-2
  9
$DIMTMOVE
 70
0
  9
$DIMFXL
 40
1.0
  9
$DIMFXLON
 70
0
  9
$DIMJOGANG
 40
0.785398163397
  9
$DIMTFILL
 70
0
  9
$DIMTFILLCLR
 70
0
  9
$DIMARCSYM
 70
0
  9
$DIMLTYPE
  6

  9
$DIMLTEX1
  6

  9
$DIMLTEX2
  6

  9
$DIMTXTDIRECTION
 70
0
  9
$LUNITS
 70
2
  9
$LUPREC
 70
4
  9
$SKETCHINC
 40
1.0
  9
$FILLETRAD
 40
10.0
  9
$AUNITS
 70
0
  9
$AUPREC
 70
2
  9
$MENU
  1
.
  9
$ELEVATION
 40
0.0
  9
$PELEVATION
 40
0.0
  9
$THICKNESS
 40
0.0
  9
$LIMCHECK
 70
0
  9
$CHAMFERA
 40
0.0
  9
$CHAMFERB
 40
0.0
  9
$CHAMFERC
 40
0.0
  9
$CHAMFERD
 40
0.0
  9
$SKPOLY
 70
0
  9
$TDCREATE
 40
2460709.935173611
  9
$TDUCREATE
 40
2458532.153996898
  9
$TDUPDATE
 40
2460709.935173611
  9
$TDUUPDATE
 40
2458532.1544311
  9
$TDINDWG
 40
0.0
  9
$TDUSRTIMER
 40
0.0
  9
$USRTIMER
 70
1
  9
$ANGBASE
 50
0.0
  9
$ANGDIR
 70
0
  9
$PDMODE
 70
0
  9
$PDSIZE
 40
0.0
  9
$PLINEWID
 40
0.0
  9
$SPLFRAME
 70
0
  9
$SPLINETYPE
 70
6
  9
$SPLINESEGS
 70
8
  9
$HANDSEED
  5
3E
  9
$SURFTAB1
 70
6
  9
$SURFTAB2
 70
6
  9
$SURFTYPE
 70
6
  9
$SURFU
 70
6
  9
$SURFV
 70
6
  9
$UCSBASE
  2

  9
$UCSNAME
  2

  9
$UCSORG
 10
0.0
 20
0.0
 30
0.0
  9
$UCSXDIR
 10
1.0
 20
0.0
 30
0.0
  9
$UCSYDIR
 10
0.0
 20
1.0
 30
0.0
  9
$UCSORTHOREF
  2

  9
$UCSORTHOVIEW
 70
0
  9
$UCSORGTOP
 10
0.0
 20
0.0
 30
0.0
  9
$UCSORGBOTTOM
 10
0.0
 20
0.0
 30
0.0
  9
$UCSORGLEFT
 10
0.0
 20
0.0
 30
0.0
  9
$UCSORGRIGHT
 10
0.0
 20
0.0
 30
0.0
  9
$UCSORGFRONT
 10
0.0
 20
0.0
 30
0.0
  9
$UCSORGBACK
 10
0.0
 20
0.0
 30
0.0
  9
$PUCSBASE
  2

  9
$PUCSNAME
  2

  9
$PUCSORG
 10
0.0
 20
0.0
 30
0.0
  9
$PUCSXDIR
 10
1.0
 20
0.0
 30
0.0
  9
$PUCSYDIR
 10
0.0
 20
1.0
 30
0.0
  9
$PUCSORTHOREF
  2

  9
$PUCSORTHOVIEW
 70
0
  9
$PUCSORGTOP
 10
0.0
 20
0.0
 30
0.0
  9
$PUCSORGBOTTOM
 10
0.0
 20
0.0
 30
0.0
  9
$PUCSORGLEFT
 10
0.0
 20
0.0
 30
0.0
  9
$PUCSORGRIGHT
 10
0.0
 20
0.0
 30
0.0
  9
$PUCSORGFRONT
 10
0.0
 20
0.0
 30
0.0
  9
$PUCSORGBACK
 10
0.0
 20
0.0
 30
0.0
  9
$USERI1
 70
0
  9
$USERI2
 70
0
  9
$USERI3
 70
0
  9
$USERI4
 70
0
  9
$USERI5
 70
0
  9
$USERR1
 40
0.0
  9
$USERR2
 40
0.0
  9
$USERR3
 40
0.0
  9
$USERR4
 40
0.0
  9
$USERR5
 40
0.0
  9
$WORLDVIEW
 70
1
  9
$SHADEDGE
 70
3
  9
$SHADEDIF
 70
70
  9
$TILEMODE
 70
1
  9
$MAXACTVP
 70
64
  9
$PINSBASE
 10
0.0
 20
0.0
 30
0.0
  9
$PLIMCHECK
 70
0
  9
$PEXTMIN
 10
1e+20
 20
1e+20
 30
1e+20
  9
$PEXTMAX
 10
-1e+20
 20
-1e+20
 30
-1e+20
  9
$PLIMMIN
 10
0.0
 20
0.0
  9
$PLIMMAX
 10
420.0
 20
297.0
  9
$UNITMODE
 70
0
  9
$VISRETAIN
 70
1
  9
$PLINEGEN
 70
0
  9
$PSLTSCALE
 70
1
  9
$TREEDEPTH
 70
3020
  9
$CMLSTYLE
  2
Standard
  9
$CMLJUST
 70
0
  9
$CMLSCALE
 40
20.0
  9
$PROXYGRAPHICS
 70
1
  9
$MEASUREMENT
 70
1
  9
$CELWEIGHT
370
-1
  9
$ENDCAPS
280
0
  9
$JOINSTYLE
280
0
  9
$LWDISPLAY
290
0
  9
$INSUNITS
 70
6
  9
$HYPERLINKBASE
  1

  9
$STYLESHEET
  1

  9
$XEDIT
290
1
  9
$CEPSNTYPE
380
0
  9
$PSTYLEMODE
290
1
  9
$FINGERPRINTGUID
  2
{C08342E8-80AB-42D4-A19D-E9C680282101}
  9
$VERSIONGUID
  2
{5E4FBA8B-E5EB-4E67-AEE4-4A2B44882F38}
  9
$EXTNAMES
290
1
  9
$PSVPSCALE
 40
0.0
  9
$OLESTARTUP
290
0
  9
$SORTENTS
280
127
  9
$INDEXCTL
280
0
  9
$HIDETEXT
280
1
  9
$XCLIPFRAME
280
0
  9
$HALOGAP
280
0
  9
$OBSCOLOR
 70
257
  9
$OBSLTYPE
280
0
  9
$INTERSECTIONDISPLAY
280
0
  9
$INTERSECTIONCOLOR
 70
257
  9
$DIMASSOC
280
2
  9
$PROJECTNAME
  1

  9
$CAMERADISPLAY
290
0
  9
$LENSLENGTH
 40
50.0
  9
$CAMERAHEIGHT
 40
0.0
  9
$STEPSPERSEC
 40
24.0
  9
$STEPSIZE
 40
100.0
  9
$3DDWFPREC
 40
2.0
  9
$PSOLWIDTH
 40
0.005
  9
$PSOLHEIGHT
 40
0.08
  9
$LOFTANG1
 40
1.570796326795
  9
$LOFTANG2
 40
1.570796326795
  9
$LOFTMAG1
 40
0.0
  9
$LOFTMAG2
 40
0.0
  9
$LOFTPARAM
 70
7
  9
$LOFTNORMALS
280
1
  9
$LATITUDE
 40
37.795
  9
$LONGITUDE
 40
-122.394
  9
$NORTHDIRECTION
 40
0.0
  9
$TIMEZONE
 70
-8000
  9
$LIGHTGLYPHDISPLAY
280
1
  9
$TILEMODELIGHTSYNCH
280
1
  9
$CMATERIAL
347
20
  9
$SOLIDHIST
280
0
  9
$SHOWHIST
280
1
  9
$DWFFRAME
280
2
  9
$DGNFRAME
280
2
  9
$REALWORLDSCALE
290
1
  9
$INTERFERECOLOR
 62
256
  9
$CSHADOW
280
0
  9
$SHADOWPLANELOCATION
 40
0.0
  0
ENDSEC
  0
SECTION
  2
CLASSES
  0
CLASS
  1
ACDBDICTIONARYWDFLT
  2
AcDbDictionaryWithDefault
  3
ObjectDBX Classes
 90
0
 91
0
280
0
281
0
  0
CLASS
  1
SUN
  2
AcDbSun
  3
SCENEOE
 90
1153
 91
0
280
0
281
0
  0
CLASS
  1
VISUALSTYLE
  2
AcDbVisualStyle
  3
ObjectDBX Classes
 90
4095
 91
0
280
0
281
0
  0
CLASS
  1
MATERIAL
  2
AcDbMaterial
  3
ObjectDBX Classes
 90
1153
 91
0
280
0
281
0
  0
CLASS
  1
SCALE
  2
AcDbScale
  3
ObjectDBX Classes
 90
1153
 91
0
280
0
281
0
  0
CLASS
  1
TABLESTYLE
  2
AcDbTableStyle
  3
ObjectDBX Classes
 90
4095
 91
0
280
0
281
0
  0
CLASS
  1
MLEADERSTYLE
  2
AcDbMLeaderStyle
  3
ACDB_MLEADERSTYLE_CLASS
 90
4095
 91
0
280
0
281
0
  0
CLASS
  1
DICTIONARYVAR
  2
AcDbDictionaryVar
  3
ObjectDBX Classes
 90
0
 91
0
280
0
281
0
  0
CLASS
  1
CELLSTYLEMAP
  2
AcDbCellStyleMap
  3
ObjectDBX Classes
 90
1152
 91
0
280
0
281
0
  0
CLASS
  1
MENTALRAYRENDERSETTINGS
  2
AcDbMentalRayRenderSettings
  3
SCENEOE
 90
1024
 91
0
280
0
281
0
  0
CLASS
  1
ACDBDETAILVIEWSTYLE
  2
AcDbDetailViewStyle
  3
ObjectDBX Classes
 90
1025
 91
0
280
0
281
0
  0
CLASS
  1
ACDBSECTIONVIEWSTYLE
  2
AcDbSectionViewStyle
  3
ObjectDBX Classes
 90
1025
 91
0
280
0
281
0
  0
CLASS
  1
RASTERVARIABLES
  2
AcDbRasterVariables
  3
ISM
 90
0
 91
0
280
0
281
0
  0
CLASS
  1
ACDBPLACEHOLDER
  2
AcDbPlaceHolder
  3
ObjectDBX Classes
 90
0
 91
0
280
0
281
0
  0
CLASS
  1
LAYOUT
  2
AcDbLayout
  3
ObjectDBX Classes
 90
0
 91
0
280
0
281
0
  0
ENDSEC
  0
SECTION
  2
TABLES
  0
TABLE
  2
VPORT
  5
8
330
0
100
AcDbSymbolTable
 70
1
  0
VPORT
  5
23
330
8
100
AcDbSymbolTableRecord
100
AcDbViewportTableRecord
  2
*Active
 70
0
 10
0.0
 20
0.0
 11
1.0
 21
1.0
 12
0.0
 22
0.0
 13
0.0
 23
0.0
 14
0.5
 24
0.5
 15
0.5
 25
0.5
 16
0.0
 26
0.0
 36
1.0
 17
0.0
 27
0.0
 37
0.0
 40
1000.0
 41
1.34
 42
50.0
 43
0.0
 44
0.0
 50
0.0
 51
0.0
 71
0
 72
1000
 73
1
 74
3
 75
0
 76
0
 77
0
 78
0
281
0
 65
0
146
0.0
  0
ENDTAB
  0
TABLE
  2
LTYPE
  5
2
330
0
100
AcDbSymbolTable
 70
3
  0
LTYPE
  5
24
330
2
100
AcDbSymbolTableRecord
100
AcDbLinetypeTableRecord
  2
ByBlock
 70
0
  3

 72
65
 73
0
 40
0.0
  0
LTYPE
  5
25
330
2
100
AcDbSymbolTableRecord
100
AcDbLinetypeTableRecord
  2
ByLayer
 70
0
  3

 72
65
 73
0
 40
0.0
  0
LTYPE
  5
26
330
2
100
AcDbSymbolTableRecord
100
AcDbLinetypeTableRecord
  2
Continuous
 70
0
  3

 72
65
 73
0
 40
0.0
  0
ENDTAB
  0
TABLE
  2
LAYER
  5
1
330
0
100
AcDbSymbolTable
 70
5
  0
LAYER
  5
27
330
1
100
AcDbSymbolTableRecord
100
AcDbLayerTableRecord
  2
0
 70
0
 62
7
  6
Continuous
370
-3
390
13
347
21
  0
LAYER
  5
28
330
1
100
AcDbSymbolTableRecord
100
AcDbLayerTableRecord
  2
Defpoints
 70
0
 62
7
  6
Continuous
290
0
370
-3
390
13
347
21
  0
LAYER
  5
2F
330
1
100
AcDbSymbolTableRecord
100
AcDbLayerTableRecord
  2
conductor
 70
0
 62
1
  6
Continuous
370
-3
390
13
347
21
  0
LAYER
  5
30
330
1
100
AcDbSymbolTableRecord
100
AcDbLayerTableRecord
  2
dielectric
 70
0
 62
8
  6
Continuous
370
-3
390
13
347
21
  0
LAYER
  5
31
330
1
100
AcDbSymbolTableRecord
100
AcDbLayerTableRecord
  2
substrate
 70
0
 62
5
  6
Continuous
370
-3
390
13
347
21
  0
ENDTAB
  0
TABLE
  2
STYLE
  5
5
330
0
100
AcDbSymbolTable
 70
1
  0
STYLE
  5
29
330
5
100
AcDbSymbolTableRecord
100
AcDbTextStyleTableRecord
  2
Standard
 70
0
 40
0.0
 41
1.0
 50
0.0
 71
0
 42
2.5
  3
txt
  4

  0
ENDTAB
  0
TABLE
  2
VIEW
  5
7
330
0
100
AcDbSymbolTable
 70
0
  0
ENDTAB
  0
TABLE
  2
UCS
  5
6
330
0
100
AcDbSymbolTable
 70
0
  0
ENDTAB
  0
TABLE
  2
APPID
  5
3
330
0
100
AcDbSymbolTable
 70
3
  0
APPID
  5
2A
330
3
100
AcDbSymbolTableRecord
100
AcDbRegAppTableRecord
  2
ACAD
 70
0
  0
APPID
  5
3B
330
3
100
AcDbSymbolTableRecord
100
AcDbRegAppTableRecord
  2
HATCHBACKGROUNDCOLOR
 70
0
  0
APPID
  5
3C
330
3
100
AcDbSymbolTableRecord
100
AcDbRegAppTableRecord
  2
EZDXF
 70
0
  0
ENDTAB
  0
TABLE
  2
DIMSTYLE
  5
4
330
0
100
AcDbSymbolTable
 70
1
100
AcDbDimStyleTable
  0
DIMSTYLE
105
2B
330
4
100
AcDbSymbolTableRecord
100
AcDbDimStyleTableRecord
  2
Standard
 70
0
 40
1.0
 41
2.5
 42
0.625
 43
3.75
 44
1.25
 45
0.0
 46
0.0
 47
0.0
 48
0.0
 49
2.5
140
2.5
141
2.5
142
0.0
143
0.03937007874
144
1.0
145
0.0
146
1.0
147
0.625
148
0.0
 69
0
 70
0
 71
0
 72
0
 73
0
 74
0
 75
0
 76
0
 77
1
 78
8
 79
3
170
0
171
3
172
1
173
0
174
0
175
0
176
0
177
0
178
0
179
2
271
2
272
2
273
2
274
3
275
0
276
0
277
2
278
44
279
0
280
0
281
0
282
0
283
0
284
8
285
0
286
0
288
0
289
3
290
0
371
-2
372
-2
  0
ENDTAB
  0
TABLE
  2
BLOCK_RECORD
  5
9
330
0
100
AcDbSymbolTable
 70
2
  0
BLOCK_RECORD
  5
17
330
9
100
AcDbSymbolTableRecord
100
AcDbBlockTableRecord
  2
*Model_Space
340
1A
 70
0
280
1
281
0
  0
BLOCK_RECORD
  5
1B
330
9
100
AcDbSymbolTableRecord
100
AcDbBlockTableRecord
  2
*Paper_Space
340
1E
 70
0
280
1
281
0
  0
ENDTAB
  0
ENDSEC
  0
SECTION
  2
BLOCKS
  0
BLOCK
  5
18
330
17
100
AcDbEntity
  8
0
100
AcDbBlockBegin
  2
*Model_Space
 70
0
 10
0.0
 20
0.0
 30
0.0
  3
*Model_Space
  1

  0
ENDBLK
  5
19
330
17
100
AcDbEntity
  8
0
100
AcDbBlockEnd
  0
BLOCK
  5
1C
330
1B
100
AcDbEntity
  8
0
100
AcDbBlockBegin
  2
*Paper_Space
 70
0
 10
0.0
 20
0.0
 30
0.0
  3
*Paper_Space
  1

  0
ENDBLK
  5
1D
330
1B
100
AcDbEntity
  8
0
100
AcDbBlockEnd
  0
ENDSEC
  0
SECTION
  2
ENTITIES
  0
LWPOLYLINE
  5
32
330
17
100
AcDbEntity
  8
conductor
100
AcDbPolyline
 90
231
 70
1
 43
0.5
 10
2407.2890625
 20
-2063.390625
 10
2397.736328125
 20
-2072.943359375
 10
2388.18359375
 20
-2072.943359375
 10
2378.630859375
 20
-2082.49609375
 10
2369.078125
 20
-2072.943359375
 10
2359.525390625
 20
-2082.49609375
 10
2349.97265625
 20
-2082.49609375
 10
2340.419921875
 20
-2082.49609375
 10
2330.8671875
 20
-2092.048828125
 10
2321.314453125
 20
-2092.048828125
 10
2311.76171875
 20
-2092.048828125
 10
2302.208984375
 20
-2092.048828125
 10
2292.65625
 20
-2092.048828125
 10
2283.103515625
 20
-2101.6015625
 10
2273.55078125
 20
-2111.154296875
 10
2263.998046875
 20
-2111.154296875
 10
2254.4453125
 20
-2111.154296875
 10
2244.892578125
 20
-2120.70703125
 10
2235.33984375
 20
-2130.259765625
 10
2225.787109375
 20
-2130.259765625
 10
2216.234375
 20
-2139.8125
 10
2206.681640625
 20
-2149.365234375
 10
2197.12890625
 20
-2158.91796875
 10
2187.576171875
 20
-2168.470703125
 10
2178.0234375
 20
-2178.0234375
 10
2168.470703125
 20
-2187.576171875
 10
2168.470703125
 20
-2197.12890625
 10
2158.91796875
 20
-2206.681640625
 10
2149.365234375
 20
-2206.681640625
 10
2139.8125
 20
-2216.234375
 10
2139.8125
 20
-2225.787109375
 10
2130.259765625
 20
-2235.33984375
 10
2120.70703125
 20
-2244.892578125
 10
2120.70703125
 20
-2254.4453125
 10
2120.70703125
 20
-2263.998046875
 10
2111.154296875
 20
-2273.55078125
 10
2101.6015625
 20
-2283.103515625
 10
2111.154296875
 20
-2292.65625
 10
2101.6015625
 20
-2302.208984375
 10
2101.6015625
 20
-2311.76171875
 10
2092.048828125
 20
-2321.314453125
 10
2092.048828125
 20
-2330.8671875
 10
2092.048828125
 20
-2340.419921875
 10
2082.49609375
 20
-2349.97265625
 10
2082.49609375
 20
-2359.525390625
 10
2082.49609375
 20
-2369.078125
 10
2072.943359375
 20
-2378.630859375
 10
2072.943359375
 20
-2388.18359375
 10
2072.943359375
 20
-2397.736328125
 10
2072.943359375
 20
-2407.2890625
 10
2072.943359375
 20
-2416.841796875
 10
2063.390625
 20
-2426.39453125
 10
2063.390625
 20
-2435.947265625
 10
2063.390625
 20
-2445.5
 10
2063.390625
 20
-2455.052734375
 10
2063.390625
 20
-2464.60546875
 10
2063.390625
 20
-2474.158203125
 10
2072.943359375
 20
-2483.7109375
 10
2063.390625
 20
-2493.263671875
 10
2072.943359375
 20
-2502.81640625
 10
2072.943359375
 20
-2512.369140625
 10
2072.943359375
 20
-2521.921875
 10
2072.943359375
 20
-2531.474609375
 10
2082.49609375
 20
-2541.02734375
 10
2082.49609375
 20
-2550.580078125
 10
2082.49609375
 20
-2560.1328125
 10
2092.048828125
 20
-2569.685546875
 10
2092.048828125
 20
-2579.23828125
 10
2092.048828125
 20
-2588.791015625
 10
2101.6015625
 20
-2598.34375
 10
2101.6015625
 20
-2607.896484375
 10
2111.154296875
 20
-2617.44921875
 10
2111.154296875
 20
-2627.001953125
 10
2120.70703125
 20
-2636.5546875
 10
2130.259765625
 20
-2646.107421875
 10
2130.259765625
 20
-2655.66015625
 10
2130.259765625
 20
-2665.212890625
 10
2139.8125
 20
-2665.212890625
 10
2149.365234375
 20
-2674.765625
 10
2149.365234375
 20
-2684.318359375
 10
2158.91796875
 20
-2693.87109375
 10
2168.470703125
 20
-2703.423828125
 10
2168.470703125
 20
-2712.9765625
 10
2178.0234375
 20
-2703.423828125
 10
2187.576171875
 20
-2712.9765625
 10
2187.576171875
 20
-2722.529296875
 10
2197.12890625
 20
-2722.529296875
 10
2206.681640625
 20
-2732.08203125
 10
2206.681640625
 20
-2741.634765625
 10
2216.234375
 20
-2741.634765625
 10
2225.787109375
 20
-2751.1875
 10
2235.33984375
 20
-2760.740234375
 10
2244.892578125
 20
-2760.740234375
 10
2254.4453125
 20
-2770.29296875
 10
2263.998046875
 20
-2779.845703125
 10
2273.55078125
 20
-2779.845703125
 10
2283.103515625
 20
-2779.845703125
 10
2292.65625
 20
-2789.3984375
 10
2302.208984375
 20
-2789.3984375
 10
2311.76171875
 20
-2798.951171875
 10
2321.314453125
 20
-2798.951171875
 10
2330.8671875
 20
-2808.50390625
 10
2340.419921875
 20
-2808.50390625
 10
2349.97265625
 20
-2808.50390625
 10
2359.525390625
 20
-2808.50390625
 10
2369.078125
 20
-2818.056640625
 10
2378.630859375
 20
-2818.056640625
 10
2388.18359375
 20
-2818.056640625
 10
2397.736328125
 20
-2808.50390625
 10
2407.2890625
 20
-2818.056640625
 10
2416.841796875
 20
-2818.056640625
 10
2426.39453125
 20
-2818.056640625
 10
2435.947265625
 20
-2818.056640625
 10
2445.5
 20
-2827.609375
 10
2455.052734375
 20
-2818.056640625
 10
2464.60546875
 20
-2827.609375
 10
2474.158203125
 20
-2818.056640625
 10
2483.7109375
 20
-2818.056640625
 10
2493.263671875
 20
-2808.50390625
 10
2502.81640625
 20
-2818.056640625
 10
2512.369140625
 20
-2808.50390625
 10
2521.921875
 20
-2808.50390625
 10
2531.474609375
 20
-2808.50390625
 10
2541.02734375
 20
-2808.50390625
 10
2550.580078125
 20
-2798.951171875
 10
2560.1328125
 20
-2798.951171875
 10
2569.685546875
 20
-2789.3984375
 10
2579.23828125
 20
-2789.3984375
 10
2588.791015625
 20
-2779.845703125
 10
2598.34375
 20
-2779.845703125
 10
2607.896484375
 20
-2779.845703125
 10
2617.44921875
 20
-2770.29296875
 10
2627.001953125
 20
-2770.29296875
 10
2636.5546875
 20
-2760.740234375
 10
2646.107421875
 20
-2751.1875
 10
2655.66015625
 20
-2751.1875
 10
2665.212890625
 20
-2751.1875
 10
2674.765625
 20
-2741.634765625
 10
2684.318359375
 20
-2732.08203125
 10
2693.87109375
 20
-2722.529296875
 10
2703.423828125
 20
-2712.9765625
 10
2712.9765625
 20
-2703.423828125
 10
2722.529296875
 20
-2703.423828125
 10
2722.529296875
 20
-2693.87109375
 10
2732.08203125
 20
-2684.318359375
 10
2741.634765625
 20
-2684.318359375
 10
2741.634765625
 20
-2674.765625
 10
2751.1875
 20
-2665.212890625
 10
2751.1875
 20
-2655.66015625
 10
2760.740234375
 20
-2646.107421875
 10
2760.740234375
 20
-2636.5546875
 10
2770.29296875
 20
-2627.001953125
 10
2779.845703125
 20
-2627.001953125
 10
2770.29296875
 20
-2617.44921875
 10
2779.845703125
 20
-2607.896484375
 10
2789.3984375
 20
-2607.896484375
 10
2779.845703125
 20
-2598.34375
 10
2789.3984375
 20
-2588.791015625
 10
2798.951171875
 20
-2579.23828125
 10
2798.951171875
 20
-2569.685546875
 10
2798.951171875
 20
-2560.1328125
 10
2808.50390625
 20
-2550.580078125
 10
2808.50390625
 20
-2541.02734375
 10
2808.50390625
 20
-2531.474609375
 10
2808.50390625
 20
-2521.921875
 10
2808.50390625
 20
-2512.369140625
 10
2808.50390625
 20
-2502.81640625
 10
2818.056640625
 20
-2493.263671875
 10
2818.056640625
 20
-2483.7109375
 10
2818.056640625
 20
-2474.158203125
 10
2818.056640625
 20
-2464.60546875
 10
2818.056640625
 20
-2455.052734375
 10
2818.056640625
 20
-2445.5
 10
2818.056640625
 20
-2435.947265625
 10
2808.50390625
 20
-2426.39453125
 10
2808.50390625
 20
-2416.841796875
 10
2808.50390625
 20
-2407.2890625
 10
2808.50390625
 20
-2397.736328125
 10
2808.50390625
 20
-2388.18359375
 10
2808.50390625
 20
-2378.630859375
 10
2808.50390625
 20
-2369.078125
 10
2798.951171875
 20
-2359.525390625
 10
2798.951171875
 20
-2349.97265625
 10
2798.951171875
 20
-2340.419921875
 10
2798.951171875
 20
-2330.8671875
 10
2798.951171875
 20
-2321.314453125
 10
2798.951171875
 20
-2311.76171875
 10
2789.3984375
 20
-2302.208984375
 10
2789.3984375
 20
-2292.65625
 10
2789.3984375
 20
-2283.103515625
 10
2779.845703125
 20
-2273.55078125
 10
2770.29296875
 20
-2263.998046875
 10
2760.740234375
 20
-2254.4453125
 10
2760.740234375
 20
-2244.892578125
 10
2751.1875
 20
-2235.33984375
 10
2741.634765625
 20
-2225.787109375
 10
2732.08203125
 20
-2216.234375
 10
2732.08203125
 20
-2206.681640625
 10
2722.529296875
 20
-2197.12890625
 10
2712.9765625
 20
-2187.576171875
 10
2703.423828125
 20
-2178.0234375
 10
2693.87109375
 20
-2168.470703125
 10
2684.318359375
 20
-2158.91796875
 10
2674.765625
 20
-2149.365234375
 10
2665.212890625
 20
-2149.365234375
 10
2655.66015625
 20
-2139.8125
 10
2646.107421875
 20
-2130.259765625
 10
2636.5546875
 20
-2120.70703125
 10
2627.001953125
 20
-2120.70703125
 10
2617.44921875
 20
-2120.70703125
 10
2607.896484375
 20
-2111.154296875
 10
2598.34375
 20
-2111.154296875
 10
2588.791015625
 20
-2101.6015625
 10
2579.23828125
 20
-2101.6015625
 10
2569.685546875
 20
-2101.6015625
 10
2560.1328125
 20
-2092.048828125
 10
2550.580078125
 20
-2092.048828125
 10
2541.02734375
 20
-2092.048828125
 10
2531.474609375
 20
-2082.49609375
 10
2521.921875
 20
-2082.49609375
 10
2512.369140625
 20
-2082.49609375
 10
2502.81640625
 20
-2072.943359375
 10
2493.263671875
 20
-2072.943359375
 10
2483.7109375
 20
-2072.943359375
 10
2474.158203125
 20
-2072.943359375
 10
2464.60546875
 20
-2072.943359375
 10
2455.052734375
 20
-2072.943359375
 10
2445.5
 20
-2063.390625
 10
2435.947265625
 20
-2063.390625
 10
2426.39453125
 20
-2063.390625
 10
2416.841796875
 20
-2063.390625
  0
LWPOLYLINE
  5
33
330
17
100
AcDbEntity
  8
dielectric
100
AcDbPolyline
 90
1
 70
1
 43
0.5
 10
296.134765625
 20
-4757.26171875
  0
LWPOLYLINE
  5
34
330
17
100
AcDbEntity
  8
substrate
100
AcDbPolyline
 90
2044
 70
1
 43
0.5
 10
0.0
 20
-0.0
 10
0.0
 20
-9.552734375
 10
0.0
 20
-19.10546875
 10
0.0
 20
-28.658203125
 10
0.0
 20
-38.2109375
 10
0.0
 20
-47.763671875
 10
0.0
 20
-57.31640625
 10
0.0
 20
-66.869140625
 10
0.0
 20
-76.421875
 10
0.0
 20
-85.974609375
 10
0.0
 20
-95.52734375
 10
0.0
 20
-105.080078125
 10
0.0
 20
-114.6328125
 10
0.0
 20
-124.185546875
 10
0.0
 20
-133.73828125
 10
0.0
 20
-143.291015625
 10
0.0
 20
-152.84375
 10
0.0
 20
-162.396484375
 10
0.0
 20
-171.94921875
 10
0.0
 20
-181.501953125
 10
0.0
 20
-191.0546875
 10
0.0
 20
-200.607421875
 10
0.0
 20
-210.16015625
 10
0.0
 20
-219.712890625
 10
0.0
 20
-229.265625
 10
0.0
 20
-238.818359375
 10
0.0
 20
-248.37109375
 10
0.0
 20
-257.923828125
 10
0.0
 20
-267.4765625
 10
0.0
 20
-277.029296875
 10
0.0
 20
-286.58203125
 10
0.0
 20
-296.134765625
 10
0.0
 20
-305.6875
 10
0.0
 20
-315.240234375
 10
0.0
 20
-324.79296875
 10
0.0
 20
-334.345703125
 10
0.0
 20
-343.8984375
 10
0.0
 20
-353.451171875
 10
0.0
 20
-363.00390625
 10
0.0
 20
-372.556640625
 10
0.0
 20
-382.109375
 10
0.0
 20
-391.662109375
 10
0.0
 20
-401.21484375
 10
0.0
 20
-410.767578125
 10
0.0
 20
-420.3203125
 10
0.0
 20
-429.873046875
 10
0.0
 20
-439.42578125
 10
0.0
 20
-448.978515625
 10
0.0
 20
-458.53125
 10
0.0
 20
-468.083984375
 10
0.0
 20
-477.63671875
 10
0.0
 20
-487.189453125
 10
0.0
 20
-496.7421875
 10
0.0
 20
-506.294921875
 10
0.0
 20
-515.84765625
 10
0.0
 20
-525.400390625
 10
0.0
 20
-534.953125
 10
0.0
 20
-544.505859375
 10
0.0
 20
-554.05859375
 10
0.0
 20
-563.611328125
 10
0.0
 20
-573.1640625
 10
0.0
 20
-582.716796875
 10
0.0
 20
-592.26953125
 10
0.0
 20
-601.822265625
 10
0.0
 20
-611.375
 10
0.0
 20
-620.927734375
 10
0.0
 20
-630.48046875
 10
0.0
 20
-640.033203125
 10
0.0
 20
-649.5859375
 10
0.0
 20
-659.138671875
 10
0.0
 20
-668.69140625
 10
0.0
 20
-678.244140625
 10
0.0
 20
-687.796875
 10
0.0
 20
-697.349609375
 10
0.0
 20
-706.90234375
 10
0.0
 20
-716.455078125
 10
0.0
 20
-726.0078125
 10
0.0
 20
-735.560546875
 10
0.0
 20
-745.11328125
 10
0.0
 20
-754.666015625
 10
0.0
 20
-764.21875
 10
0.0
 20
-773.771484375
 10
0.0
 20
-783.32421875
 10
0.0
 20
-792.876953125
 10
0.0
 20
-802.4296875
 10
0.0
 20
-811.982421875
 10
0.0
 20
-821.53515625
 10
0.0
 20
-831.087890625
 10
0.0
 20
-840.640625
 10
0.0
 20
-850.193359375
 10
0.0
 20
-859.74609375
 10
0.0
 20
-869.298828125
 10
0.0
 20
-878.8515625
 10
0.0
 20
-888.404296875
 10
0.0
 20
-897.95703125
 10
0.0
 20
-907.509765625
 10
0.0
 20
-917.0625
 10
0.0
 20
-926.615234375
 10
0.0
 20
-936.16796875
 10
0.0
 20
-945.720703125
 10
0.0
 20
-955.2734375
 10
0.0
 20
-964.826171875
 10
0.0
 20
-974.37890625
 10
0.0
 20
-983.931640625
 10
0.0
 20
-993.484375
 10
0.0
 20
-1003.037109375
 10
0.0
 20
-1012.58984375
 10
0.0
 20
-1022.142578125
 10
0.0
 20
-1031.6953125
 10
0.0
 20
-1041.248046875
 10
0.0
 20
-1050.80078125
 10
0.0
 20
-1060.353515625
 10
0.0
 20
-1069.90625
 10
0.0
 20
-1079.458984375
 10
0.0
 20
-1089.01171875
 10
0.0
 20
-1098.564453125
 10
0.0
 20
-1108.1171875
 10
0.0
 20
-1117.669921875
 10
0.0
 20
-1127.22265625
 10
0.0
 20
-1136.775390625
 10
0.0
 20
-1146.328125
 10
0.0
 20
-1155.880859375
 10
0.0
 20
-1165.43359375
 10
0.0
 20
-1174.986328125
 10
0.0
 20
-1184.5390625
 10
0.0
 20
-1194.091796875
 10
0.0
 20
-1203.64453125
 10
0.0
 20
-1213.197265625
 10
0.0
 20
-1222.75
 10
0.0
 20
-1232.302734375
 10
0.0
 20
-1241.85546875
 10
0.0
 20
-1251.408203125
 10
0.0
 20
-1260.9609375
 10
0.0
 20
-1270.513671875
 10
0.0
 20
-1280.06640625
 10
0.0
 20
-1289.619140625
 10
0.0
 20
-1299.171875
 10
0.0
 20
-1308.724609375
 10
0.0
 20
-1318.27734375
 10
0.0
 20
-1327.830078125
 10
0.0
 20
-1337.3828125
 10
0.0
 20
-1346.935546875
 10
0.0
 20
-1356.48828125
 10
0.0
 20
-1366.041015625
 10
0.0
 20
-1375.59375
 10
0.0
 20
-1385.146484375
 10
0.0
 20
-1394.69921875
 10
0.0
 20
-1404.251953125
 10
0.0
 20
-1413.8046875
 10
0.0
 20
-1423.357421875
 10
0.0
 20
-1432.91015625
 10
0.0
 20
-1442.462890625
 10
0.0
 20
-1452.015625
 10
0.0
 20
-1461.568359375
 10
0.0
 20
-1471.12109375
 10
0.0
 20
-1480.673828125
 10
0.0
 20
-1490.2265625
 10
0.0
 20
-1499.779296875
 10
0.0
 20
-1509.33203125
 10
0.0
 20
-1518.884765625
 10
0.0
 20
-1528.4375
 10
0.0
 20
-1537.990234375
 10
0.0
 20
-1547.54296875
 10
0.0
 20
-1557.095703125
 10
0.0
 20
-1566.6484375
 10
0.0
 20
-1576.201171875
 10
0.0
 20
-1585.75390625
 10
0.0
 20
-1595.306640625
 10
0.0
 20
-1604.859375
 10
0.0
 20
-1614.412109375
 10
0.0
 20
-1623.96484375
 10
0.0
 20
-1633.517578125
 10
0.0
 20
-1643.0703125
 10
0.0
 20
-1652.623046875
 10
0.0
 20
-1662.17578125
 10
0.0
 20
-1671.728515625
 10
0.0
 20
-1681.28125
 10
0.0
 20
-1690.833984375
 10
0.0
 20
-1700.38671875
 10
0.0
 20
-1709.939453125
 10
0.0
 20
-1719.4921875
 10
0.0
 20
-1729.044921875
 10
0.0
 20
-1738.59765625
 10
0.0
 20
-1748.150390625
 10
0.0
 20
-1757.703125
 10
0.0
 20
-1767.255859375
 10
0.0
 20
-1776.80859375
 10
0.0
 20
-1786.361328125
 10
0.0
 20
-1795.9140625
 10
0.0
 20
-1805.466796875
 10
0.0
 20
-1815.01953125
 10
0.0
 20
-1824.572265625
 10
0.0
 20
-1834.125
 10
0.0
 20
-1843.677734375
 10
0.0
 20
-1853.23046875
 10
0.0
 20
-1862.783203125
 10
0.0
 20
-1872.3359375
 10
0.0
 20
-1881.888671875
 10
0.0
 20
-1891.44140625
 10
0.0
 20
-1900.994140625
 10
0.0
 20
-1910.546875
 10
0.0
 20
-1920.099609375
 10
0.0
 20
-1929.65234375
 10
0.0
 20
-1939.205078125
 10
0.0
 20
-1948.7578125
 10
0.0
 20
-1958.310546875
 10
0.0
 20
-1967.86328125
 10
0.0
 20
-1977.416015625
 10
0.0
 20
-1986.96875
 10
0.0
 20
-1996.521484375
 10
0.0
 20
-2006.07421875
 10
0.0
 20
-2015.626953125
 10
0.0
 20
-2025.1796875
 10
0.0
 20
-2034.732421875
 10
0.0
 20
-2044.28515625
 10
0.0
 20
-2053.837890625
 10
0.0
 20
-2063.390625
 10
0.0
 20
-2072.943359375
 10
0.0
 20
-2082.49609375
 10
0.0
 20
-2092.048828125
 10
0.0
 20
-2101.6015625
 10
0.0
 20
-2111.154296875
 10
0.0
 20
-2120.70703125
 10
0.0
 20
-2130.259765625
 10
0.0
 20
-2139.8125
 10
0.0
 20
-2149.365234375
 10
0.0
 20
-2158.91796875
 10
0.0
 20
-2168.470703125
 10
0.0
 20
-2178.0234375
 10
0.0
 20
-2187.576171875
 10
0.0
 20
-2197.12890625
 10
0.0
 20
-2206.681640625
 10
0.0
 20
-2216.234375
 10
0.0
 20
-2225.787109375
 10
0.0
 20
-2235.33984375
 10
0.0
 20
-2244.892578125
 10
0.0
 20
-2254.4453125
 10
0.0
 20
-2263.998046875
 10
0.0
 20
-2273.55078125
 10
0.0
 20
-2283.103515625
 10
0.0
 20
-2292.65625
 10
0.0
 20
-2302.208984375
 10
0.0
 20
-2311.76171875
 10
0.0
 20
-2321.314453125
 10
0.0
 20
-2330.8671875
 10
0.0
 20
-2340.419921875
 10
0.0
 20
-2349.97265625
 10
0.0
 20
-2359.525390625
 10
0.0
 20
-2369.078125
 10
0.0
 20
-2378.630859375
 10
0.0
 20
-2388.18359375
 10
0.0
 20
-2397.736328125
 10
0.0
 20
-2407.2890625
 10
0.0
 20
-2416.841796875
 10
0.0
 20
-2426.39453125
 10
0.0
 20
-2435.947265625
 10
0.0
 20
-2445.5
 10
0.0
 20
-2455.052734375
 10
0.0
 20
-2464.60546875
 10
0.0
 20
-2474.158203125
 10
0.0
 20
-2483.7109375
 10
0.0
 20
-2493.263671875
 10
0.0
 20
-2502.81640625
 10
0.0
 20
-2512.369140625
 10
0.0
 20
-2521.921875
 10
0.0
 20
-2531.474609375
 10
0.0
 20
-2541.02734375
 10
0.0
 20
-2550.580078125
 10
0.0
 20
-2560.1328125
 10
0.0
 20
-2569.685546875
 10
0.0
 20
-2579.23828125
 10
0.0
 20
-2588.791015625
 10
0.0
 20
-2598.34375
 10
0.0
 20
-2607.896484375
 10
0.0
 20
-2617.44921875
 10
0.0
 20
-2627.001953125
 10
0.0
 20
-2636.5546875
 10
0.0
 20
-2646.107421875
 10
0.0
 20
-2655.66015625
 10
0.0
 20
-2665.212890625
 10
0.0
 20
-2674.765625
 10
0.0
 20
-2684.318359375
 10
0.0
 20
-2693.87109375
 10
0.0
 20
-2703.423828125
 10
0.0
 20
-2712.9765625
 10
0.0
 20
-2722.529296875
 10
0.0
 20
-2732.08203125
 10
0.0
 20
-2741.634765625
 10
0.0
 20
-2751.1875
 10
0.0
 20
-2760.740234375
 10
0.0
 20
-2770.29296875
 10
0.0
 20
-2779.845703125
 10
0.0
 20
-2789.3984375
 10
0.0
 20
-2798.951171875
 10
0.0
 20
-2808.50390625
 10
0.0
 20
-2818.056640625
 10
0.0
 20
-2827.609375
 10
0.0
 20
-2837.162109375
 10
0.0
 20
-2846.71484375
 10
0.0
 20
-2856.267578125
 10
0.0
 20
-2865.8203125
 10
0.0
 20
-2875.373046875
 10
0.0
 20
-2884.92578125
 10
0.0
 20
-2894.478515625
 10
0.0
 20
-2904.03125
 10
0.0
 20
-2913.583984375
 10
0.0
 20
-2923.13671875
 10
0.0
 20
-2932.689453125
 10
0.0
 20
-2942.2421875
 10
0.0
 20
-2951.794921875
 10
0.0
 20
-2961.34765625
 10
0.0
 20
-2970.900390625
 10
0.0
 20
-2980.453125
 10
0.0
 20
-2990.005859375
 10
0.0
 20
-2999.55859375
 10
0.0
 20
-3009.111328125
 10
0.0
 20
-3018.6640625
 10
0.0
 20
-3028.216796875
 10
0.0
 20
-3037.76953125
 10
0.0
 20
-3047.322265625
 10
0.0
 20
-3056.875
 10
0.0
 20
-3066.427734375
 10
0.0
 20
-3075.98046875
 10
0.0
 20
-3085.533203125
 10
0.0
 20
-3095.0859375
 10
0.0
 20
-3104.638671875
 10
0.0
 20
-3114.19140625
 10
0.0
 20
-3123.744140625
 10
0.0
 20
-3133.296875
 10
0.0
 20
-3142.849609375
 10
0.0
 20
-3152.40234375
 10
0.0
 20
-3161.955078125
 10
0.0
 20
-3171.5078125
 10
0.0
 20
-3181.060546875
 10
0.0
 20
-3190.61328125
 10
0.0
 20
-3200.166015625
 10
0.0
 20
-3209.71875
 10
0.0
 20
-3219.271484375
 10
0.0
 20
-3228.82421875
 10
0.0
 20
-3238.376953125
 10
0.0
 20
-3247.9296875
 10
0.0
 20
-3257.482421875
 10
0.0
 20
-3267.03515625
 10
0.0
 20
-3276.587890625
 10
0.0
 20
-3286.140625
 10
0.0
 20
-3295.693359375
 10
0.0
 20
-3305.24609375
 10
0.0
 20
-3314.798828125
 10
0.0
 20
-3324.3515625
 10
0.0
 20
-3333.904296875
 10
0.0
 20
-3343.45703125
 10
0.0
 20
-3353.009765625
 10
0.0
 20
-3362.5625
 10
0.0
 20
-3372.115234375
 10
0.0
 20
-3381.66796875
 10
0.0
 20
-3391.220703125
 10
0.0
 20
-3400.7734375
 10
0.0
 20
-3410.326171875
 10
0.0
 20
-3419.87890625
 10
0.0
 20
-3429.431640625
 10
0.0
 20
-3438.984375
 10
0.0
 20
-3448.537109375
 10
0.0
 20
-3458.08984375
 10
0.0
 20
-3467.642578125
 10
0.0
 20
-3477.1953125
 10
0.0
 20
-3486.748046875
 10
0.0
 20
-3496.30078125
 10
0.0
 20
-3505.853515625
 10
0.0
 20
-3515.40625
 10
0.0
 20
-3524.958984375
 10
0.0
 20
-3534.51171875
 10
0.0
 20
-3544.064453125
 10
0.0
 20
-3553.6171875
 10
0.0
 20
-3563.169921875
 10
0.0
 20
-3572.72265625
 10
0.0
 20
-3582.275390625
 10
0.0
 20
-3591.828125
 10
0.0
 20
-3601.380859375
 10
0.0
 20
-3610.93359375
 10
0.0
 20
-3620.486328125
 10
0.0
 20
-3630.0390625
 10
0.0
 20
-3639.591796875
 10
0.0
 20
-3649.14453125
 10
0.0
 20
-3658.697265625
 10
0.0
 20
-3668.25
 10
0.0
 20
-3677.802734375
 10
0.0
 20
-3687.35546875
 10
0.0
 20
-3696.908203125
 10
0.0
 20
-3706.4609375
 10
0.0
 20
-3716.013671875
 10
0.0
 20
-3725.56640625
 10
0.0
 20
-3735.119140625
 10
0.0
 20
-3744.671875
 10
0.0
 20
-3754.224609375
 10
0.0
 20
-3763.77734375
 10
0.0
 20
-3773.330078125
 10
0.0
 20
-3782.8828125
 10
0.0
 20
-3792.435546875
 10
0.0
 20
-3801.98828125
 10
0.0
 20
-3811.541015625
 10
0.0
 20
-3821.09375
 10
0.0
 20
-3830.646484375
 10
0.0
 20
-3840.19921875
 10
0.0
 20
-3849.751953125
 10
0.0
 20
-3859.3046875
 10
0.0
 20
-3868.857421875
 10
0.0
 20
-3878.41015625
 10
0.0
 20
-3887.962890625
 10
0.0
 20
-3897.515625
 10
0.0
 20
-3907.068359375
 10
0.0
 20
-3916.62109375
 10
0.0
 20
-3926.173828125
 10
0.0
 20
-3935.7265625
 10
0.0
 20
-3945.279296875
 10
0.0
 20
-3954.83203125
 10
0.0
 20
-3964.384765625
 10
0.0
 20
-3973.9375
 10
0.0
 20
-3983.490234375
 10
0.0
 20
-3993.04296875
 10
0.0
 20
-4002.595703125
 10
0.0
 20
-4012.1484375
 10
0.0
 20
-4021.701171875
 10
0.0
 20
-4031.25390625
 10
0.0
 20
-4040.806640625
 10
0.0
 20
-4050.359375
 10
0.0
 20
-4059.912109375
 10
0.0
 20
-4069.46484375
 10
0.0
 20
-4079.017578125
 10
0.0
 20
-4088.5703125
 10
0.0
 20
-4098.123046875
 10
0.0
 20
-4107.67578125
 10
0.0
 20
-4117.228515625
 10
0.0
 20
-4126.78125
 10
0.0
 20
-4136.333984375
 10
0.0
 20
-4145.88671875
 10
0.0
 20
-4155.439453125
 10
0.0
 20
-4164.9921875
 10
0.0
 20
-4174.544921875
 10
0.0
 20
-4184.09765625
 10
0.0
 20
-4193.650390625
 10
0.0
 20
-4203.203125
 10
0.0
 20
-4212.755859375
 10
0.0
 20
-4222.30859375
 10
0.0
 20
-4231.861328125
 10
0.0
 20
-4241.4140625
 10
0.0
 20
-4250.966796875
 10
0.0
 20
-4260.51953125
 10
0.0
 20
-4270.072265625
 10
0.0
 20
-4279.625
 10
0.0
 20
-4289.177734375
 10
0.0
 20
-4298.73046875
 10
0.0
 20
-4308.283203125
 10
0.0
 20
-4317.8359375
 10
0.0
 20
-4327.388671875
 10
0.0
 20
-4336.94140625
 10
0.0
 20
-4346.494140625
 10
0.0
 20
-4356.046875
 10
0.0
 20
-4365.599609375
 10
0.0
 20
-4375.15234375
 10
0.0
 20
-4384.705078125
 10
0.0
 20
-4394.2578125
 10
0.0
 20
-4403.810546875
 10
0.0
 20
-4413.36328125
 10
0.0
 20
-4422.916015625
 10
0.0
 20
-4432.46875
 10
0.0
 20
-4442.021484375
 10
0.0
 20
-4451.57421875
 10
0.0
 20
-4461.126953125
 10
0.0
 20
-4470.6796875
 10
0.0
 20
-4480.232421875
 10
0.0
 20
-4489.78515625
 10
0.0
 20
-4499.337890625
 10
0.0
 20
-4508.890625
 10
0.0
 20
-4518.443359375
 10
0.0
 20
-4527.99609375
 10
0.0
 20
-4537.548828125
 10
0.0
 20
-4547.1015625
 10
0.0
 20
-4556.654296875
 10
0.0
 20
-4566.20703125
 10
0.0
 20
-4575.759765625
 10
0.0
 20
-4585.3125
 10
0.0
 20
-4594.865234375
 10
0.0
 20
-4604.41796875
 10
0.0
 20
-4613.970703125
 10
0.0
 20
-4623.5234375
 10
0.0
 20
-4633.076171875
 10
0.0
 20
-4642.62890625
 10
0.0
 20
-4652.181640625
 10
0.0
 20
-4661.734375
 10
0.0
 20
-4671.287109375
 10
0.0
 20
-4680.83984375
 10
0.0
 20
-4690.392578125
 10
0.0
 20
-4699.9453125
 10
0.0
 20
-4709.498046875
 10
0.0
 20
-4719.05078125
 10
0.0
 20
-4728.603515625
 10
0.0
 20
-4738.15625
 10
0.0
 20
-4747.708984375
 10
0.0
 20
-4757.26171875
 10
0.0
 20
-4766.814453125
 10
0.0
 20
-4776.3671875
 10
0.0
 20
-4785.919921875
 10
0.0
 20
-4795.47265625
 10
0.0
 20
-4805.025390625
 10
0.0
 20
-4814.578125
 10
0.0
 20
-4824.130859375
 10
0.0
 20
-4833.68359375
 10
0.0
 20
-4843.236328125
 10
0.0
 20
-4852.7890625
 10
0.0
 20
-4862.341796875
 10
0.0
 20
-4871.89453125
 10
0.0
 20
-4881.447265625
 10
9.552734375
 20
-4881.447265625
 10
19.10546875
 20
-4881.447265625
 10
28.658203125
 20
-4881.447265625
 10
38.2109375
 20
-4881.447265625
 10
47.763671875
 20
-4881.447265625
 10
57.31640625
 20
-4881.447265625
 10
66.869140625
 20
-4881.447265625
 10
76.421875
 20
-4881.447265625
 10
85.974609375
 20
-4881.447265625
 10
95.52734375
 20
-4881.447265625
 10
105.080078125
 20
-4881.447265625
 10
114.6328125
 20
-4881.447265625
 10
124.185546875
 20
-4881.447265625
 10
133.73828125
 20
-4881.447265625
 10
143.291015625
 20
-4881.447265625
 10
152.84375
 20
-4881.447265625
 10
162.396484375
 20
-4881.447265625
 10
171.94921875
 20
-4881.447265625
 10
181.501953125
 20
-4881.447265625
 10
191.0546875
 20
-4881.447265625
 10
200.607421875
 20
-4881.447265625
 10
210.16015625
 20
-4881.447265625
 10
219.712890625
 20
-4881.447265625
 10
229.265625
 20
-4881.447265625
 10
238.818359375
 20
-4881.447265625
 10
248.37109375
 20
-4881.447265625
 10
257.923828125
 20
-4881.447265625
 10
267.4765625
 20
-4881.447265625
 10
277.029296875
 20
-4881.447265625
 10
286.58203125
 20
-4881.447265625
 10
296.134765625
 20
-4881.447265625
 10
305.6875
 20
-4881.447265625
 10
315.240234375
 20
-4881.447265625
 10
324.79296875
 20
-4881.447265625
 10
334.345703125
 20
-4881.447265625
 10
343.8984375
 20
-4881.447265625
 10
353.451171875
 20
-4881.447265625
 10
363.00390625
 20
-4881.447265625
 10
372.556640625
 20
-4881.447265625
 10
382.109375
 20
-4881.447265625
 10
391.662109375
 20
-4881.447265625
 10
401.21484375
 20
-4881.447265625
 10
410.767578125
 20
-4881.447265625
 10
420.3203125
 20
-4881.447265625
 10
429.873046875
 20
-4881.447265625
 10
439.42578125
 20
-4881.447265625
 10
448.978515625
 20
-4881.447265625
 10
458.53125
 20
-4881.447265625
 10
468.083984375
 20
-4881.447265625
 10
477.63671875
 20
-4881.447265625
 10
487.189453125
 20
-4881.447265625
 10
496.7421875
 20
-4881.447265625
 10
506.294921875
 20
-4881.447265625
 10
515.84765625
 20
-4881.447265625
 10
525.400390625
 20
-4881.447265625
 10
534.953125
 20
-4881.447265625
 10
544.505859375
 20
-4881.447265625
 10
554.05859375
 20
-4881.447265625
 10
563.611328125
 20
-4881.447265625
 10
573.1640625
 20
-4881.447265625
 10
582.716796875
 20
-4881.447265625
 10
592.26953125
 20
-4881.447265625
 10
601.822265625
 20
-4881.447265625
 10
611.375
 20
-4881.447265625
 10
620.927734375
 20
-4881.447265625
 10
630.48046875
 20
-4881.447265625
 10
640.033203125
 20
-4881.447265625
 10
649.5859375
 20
-4881.447265625
 10
659.138671875
 20
-4881.447265625
 10
668.69140625
 20
-4881.447265625
 10
678.244140625
 20
-4881.447265625
 10
687.796875
 20
-4881.447265625
 10
697.349609375
 20
-4881.447265625
 10
706.90234375
 20
-4881.447265625
 10
716.455078125
 20
-4881.447265625
 10
726.0078125
 20
-4881.447265625
 10
735.560546875
 20
-4881.447265625
 10
745.11328125
 20
-4881.447265625
 10
754.666015625
 20
-4881.447265625
 10
764.21875
 20
-4881.447265625
 10
773.771484375
 20
-4881.447265625
 10
783.32421875
 20
-4881.447265625
 10
792.876953125
 20
-4881.447265625
 10
802.4296875
 20
-4881.447265625
 10
811.982421875
 20
-4881.447265625
 10
821.53515625
 20
-4881.447265625
 10
831.087890625
 20
-4881.447265625
 10
840.640625
 20
-4881.447265625
 10
850.193359375
 20
-4881.447265625
 10
859.74609375
 20
-4881.447265625
 10
869.298828125
 20
-4881.447265625
 10
878.8515625
 20
-4881.447265625
 10
888.404296875
 20
-4881.447265625
 10
897.95703125
 20
-4881.447265625
 10
907.509765625
 20
-4881.447265625
 10
917.0625
 20
-4881.447265625
 10
926.615234375
 20
-4881.447265625
 10
936.16796875
 20
-4881.447265625
 10
945.720703125
 20
-4881.447265625
 10
955.2734375
 20
-4881.447265625
 10
964.826171875
 20
-4881.447265625
 10
974.37890625
 20
-4881.447265625
 10
983.931640625
 20
-4881.447265625
 10
993.484375
 20
-4881.447265625
 10
1003.037109375
 20
-4881.447265625
 10
1012.58984375
 20
-4881.447265625
 10
1022.142578125
 20
-4881.447265625
 10
1031.6953125
 20
-4881.447265625
 10
1041.248046875
 20
-4881.447265625
 10
1050.80078125
 20
-4881.447265625
 10
1060.353515625
 20
-4881.447265625
 10
1069.90625
 20
-4881.447265625
 10
1079.458984375
 20
-4881.447265625
 10
1089.01171875
 20
-4881.447265625
 10
1098.564453125
 20
-4881.447265625
 10
1108.1171875
 20
-4881.447265625
 10
1117.669921875
 20
-4881.447265625
 10
1127.22265625
 20
-4881.447265625
 10
1136.775390625
 20
-4881.447265625
 10
1146.328125
 20
-4881.447265625
 10
1155.880859375
 20
-4881.447265625
 10
1165.43359375
 20
-4881.447265625
 10
1174.986328125
 20
-4881.447265625
 10
1184.5390625
 20
-4881.447265625
 10
1194.091796875
 20
-4881.447265625
 10
1203.64453125
 20
-4881.447265625
 10
1213.197265625
 20
-4881.447265625
 10
1222.75
 20
-4881.447265625
 10
1232.302734375
 20
-4881.447265625
 10
1241.85546875
 20
-4881.447265625
 10
1251.408203125
 20
-4881.447265625
 10
1260.9609375
 20
-4881.447265625
 10
1270.513671875
 20
-4881.447265625
 10
1280.06640625
 20
-4881.447265625
 10
1289.619140625
 20
-4881.447265625
 10
1299.171875
 20
-4881.447265625
 10
1308.724609375
 20
-4881.447265625
 10
1318.27734375
 20
-4881.447265625
 10
1327.830078125
 20
-4881.447265625
 10
1337.3828125
 20
-4881.447265625
 10
1346.935546875
 20
-4881.447265625
 10
1356.48828125
 20
-4881.447265625
 10
1366.041015625
 20
-4881.447265625
 10
1375.59375
 20
-4881.447265625
 10
1385.146484375
 20
-4881.447265625
 10
1394.69921875
 20
-4881.447265625
 10
1404.251953125
 20
-4881.447265625
 10
1413.8046875
 20
-4881.447265625
 10
1423.357421875
 20
-4881.447265625
 10
1432.91015625
 20
-4881.447265625
 10
1442.462890625
 20
-4881.447265625
 10
1452.015625
 20
-4881.447265625
 10
1461.568359375
 20
-4881.447265625
 10
1471.12109375
 20
-4881.447265625
 10
1480.673828125
 20
-4881.447265625
 10
1490.2265625
 20
-4881.447265625
 10
1499.779296875
 20
-4881.447265625
 10
1509.33203125
 20
-4881.447265625
 10
1518.884765625
 20
-4881.447265625
 10
1528.4375
 20
-4881.447265625
 10
1537.990234375
 20
-4881.447265625
 10
1547.54296875
 20
-4881.447265625
 10
1557.095703125
 20
-4881.447265625
 10
1566.6484375
 20
-4881.447265625
 10
1576.201171875
 20
-4881.447265625
 10
1585.75390625
 20
-4881.447265625
 10
1595.306640625
 20
-4881.447265625
 10
1604.859375
 20
-4881.447265625
 10
1614.412109375
 20
-4881.447265625
 10
1623.96484375
 20
-4881.447265625
 10
1633.517578125
 20
-4881.447265625
 10
1643.0703125
 20
-4881.447265625
 10
1652.623046875
 20
-4881.447265625
 10
1662.17578125
 20
-4881.447265625
 10
1671.728515625
 20
-4881.447265625
 10
1681.28125
 20
-4881.447265625
 10
1690.833984375
 20
-4881.447265625
 10
1700.38671875
 20
-4881.447265625
 10
1709.939453125
 20
-4881.447265625
 10
1719.4921875
 20
-4881.447265625
 10
1729.044921875
 20
-4881.447265625
 10
1738.59765625
 20
-4881.447265625
 10
1748.150390625
 20
-4881.447265625
 10
1757.703125
 20
-4881.447265625
 10
1767.255859375
 20
-4881.447265625
 10
1776.80859375
 20
-4881.447265625
 10
1786.361328125
 20
-4881.447265625
 10
1795.9140625
 20
-4881.447265625
 10
1805.466796875
 20
-4881.447265625
 10
1815.01953125
 20
-4881.447265625
 10
1824.572265625
 20
-4881.447265625
 10
1834.125
 20
-4881.447265625
 10
1843.677734375
 20
-4881.447265625
 10
1853.23046875
 20
-4881.447265625
 10
1862.783203125
 20
-4881.447265625
 10
1872.3359375
 20
-4881.447265625
 10
1881.888671875
 20
-4881.447265625
 10
1891.44140625
 20
-4881.447265625
 10
1900.994140625
 20
-4881.447265625
 10
1910.546875
 20
-4881.447265625
 10
1920.099609375
 20
-4881.447265625
 10
1929.65234375
 20
-4881.447265625
 10
1939.205078125
 20
-4881.447265625
 10
1948.7578125
 20
-4881.447265625
 10
1958.310546875
 20
-4881.447265625
 10
1967.86328125
 20
-4881.447265625
 10
1977.416015625
 20
-4881.447265625
 10
1986.96875
 20
-4881.447265625
 10
1996.521484375
 20
-4881.447265625
 10
2006.07421875
 20
-4881.447265625
 10
2015.626953125
 20
-4881.447265625
 10
2025.1796875
 20
-4881.447265625
 10
2034.732421875
 20
-4881.447265625
 10
2044.28515625
 20
-4881.447265625
 10
2053.837890625
 20
-4881.447265625
 10
2063.390625
 20
-4881.447265625
 10
2072.943359375
 20
-4881.447265625
 10
2082.49609375
 20
-4881.447265625
 10
2092.048828125
 20
-4881.447265625
 10
2101.6015625
 20
-4881.447265625
 10
2111.154296875
 20
-4881.447265625
 10
2120.70703125
 20
-4881.447265625
 10
2130.259765625
 20
-4881.447265625
 10
2139.8125
 20
-4881.447265625
 10
2149.365234375
 20
-4881.447265625
 10
2158.91796875
 20
-4881.447265625
 10
2168.470703125
 20
-4881.447265625
 10
2178.0234375
 20
-4881.447265625
 10
2187.576171875
 20
-4881.447265625
 10
2197.12890625
 20
-4881.447265625
 10
2206.681640625
 20
-4881.447265625
 10
2216.234375
 20
-4881.447265625
 10
2225.787109375
 20
-4881.447265625
 10
2235.33984375
 20
-4881.447265625
 10
2244.892578125
 20
-4881.447265625
 10
2254.4453125
 20
-4881.447265625
 10
2263.998046875
 20
-4881.447265625
 10
2273.55078125
 20
-4881.447265625
 10
2283.103515625
 20
-4881.447265625
 10
2292.65625
 20
-4881.447265625
 10
2302.208984375
 20
-4881.447265625
 10
2311.76171875
 20
-4881.447265625
 10
2321.314453125
 20
-4881.447265625
 10
2330.8671875
 20
-4881.447265625
 10
2340.419921875
 20
-4881.447265625
 10
2349.97265625
 20
-4881.447265625
 10
2359.525390625
 20
-4881.447265625
 10
2369.078125
 20
-4881.447265625
 10
2378.630859375
 20
-4881.447265625
 10
2388.18359375
 20
-4881.447265625
 10
2397.736328125
 20
-4881.447265625
 10
2407.2890625
 20
-4881.447265625
 10
2416.841796875
 20
-4881.447265625
 10
2426.39453125
 20
-4881.447265625
 10
2435.947265625
 20
-4881.447265625
 10
2445.5
 20
-4881.447265625
 10
2455.052734375
 20
-4881.447265625
 10
2464.60546875
 20
-4881.447265625
 10
2474.158203125
 20
-4881.447265625
 10
2483.7109375
 20
-4881.447265625
 10
2493.263671875
 20
-4881.447265625
 10
2502.81640625
 20
-4881.447265625
 10
2512.369140625
 20
-4881.447265625
 10
2521.921875
 20
-4881.447265625
 10
2531.474609375
 20
-4881.447265625
 10
2541.02734375
 20
-4881.447265625
 10
2550.580078125
 20
-4881.447265625
 10
2560.1328125
 20
-4881.447265625
 10
2569.685546875
 20
-4881.447265625
 10
2579.23828125
 20
-4881.447265625
 10
2588.791015625
 20
-4881.447265625
 10
2598.34375
 20
-4881.447265625
 10
2607.896484375
 20
-4881.447265625
 10
2617.44921875
 20
-4881.447265625
 10
2627.001953125
 20
-4881.447265625
 10
2636.5546875
 20
-4881.447265625
 10
2646.107421875
 20
-4881.447265625
 10
2655.66015625
 20
-4881.447265625
 10
2665.212890625
 20
-4881.447265625
 10
2674.765625
 20
-4881.447265625
 10
2684.318359375
 20
-4881.447265625
 10
2693.87109375
 20
-4881.447265625
 10
2703.423828125
 20
-4881.447265625
 10
2712.9765625
 20
-4881.447265625
 10
2722.529296875
 20
-4881.447265625
 10
2732.08203125
 20
-4881.447265625
 10
2741.634765625
 20
-4881.447265625
 10
2751.1875
 20
-4881.447265625
 10
2760.740234375
 20
-4881.447265625
 10
2770.29296875
 20
-4881.447265625
 10
2779.845703125
 20
-4881.447265625
 10
2789.3984375
 20
-4881.447265625
 10
2798.951171875
 20
-4881.447265625
 10
2808.50390625
 20
-4881.447265625
 10
2818.056640625
 20
-4881.447265625
 10
2827.609375
 20
-4881.447265625
 10
2837.162109375
 20
-4881.447265625
 10
2846.71484375
 20
-4881.447265625
 10
2856.267578125
 20
-4881.447265625
 10
2865.8203125
 20
-4881.447265625
 10
2875.373046875
 20
-4881.447265625
 10
2884.92578125
 20
-4881.447265625
 10
2894.478515625
 20
-4881.447265625
 10
2904.03125
 20
-4881.447265625
 10
2913.583984375
 20
-4881.447265625
 10
2923.13671875
 20
-4881.447265625
 10
2932.689453125
 20
-4881.447265625
 10
2942.2421875
 20
-4881.447265625
 10
2951.794921875
 20
-4881.447265625
 10
2961.34765625
 20
-4881.447265625
 10
2970.900390625
 20
-4881.447265625
 10
2980.453125
 20
-4881.447265625
 10
2990.005859375
 20
-4881.447265625
 10
2999.55859375
 20
-4881.447265625
 10
3009.111328125
 20
-4881.447265625
 10
3018.6640625
 20
-4881.447265625
 10
3028.216796875
 20
-4881.447265625
 10
3037.76953125
 20
-4881.447265625
 10
3047.322265625
 20
-4881.447265625
 10
3056.875
 20
-4881.447265625
 10
3066.427734375
 20
-4881.447265625
 10
3075.98046875
 20
-4881.447265625
 10
3085.533203125
 20
-4881.447265625
 10
3095.0859375
 20
-4881.447265625
 10
3104.638671875
 20
-4881.447265625
 10
3114.19140625
 20
-4881.447265625
 10
3123.744140625
 20
-4881.447265625
 10
3133.296875
 20
-4881.447265625
 10
3142.849609375
 20
-4881.447265625
 10
3152.40234375
 20
-4881.447265625
 10
3161.955078125
 20
-4881.447265625
 10
3171.5078125
 20
-4881.447265625
 10
3181.060546875
 20
-4881.447265625
 10
3190.61328125
 20
-4881.447265625
 10
3200.166015625
 20
-4881.447265625
 10
3209.71875
 20
-4881.447265625
 10
3219.271484375
 20
-4881.447265625
 10
3228.82421875
 20
-4881.447265625
 10
3238.376953125
 20
-4881.447265625
 10
3247.9296875
 20
-4881.447265625
 10
3257.482421875
 20
-4881.447265625
 10
3267.03515625
 20
-4881.447265625
 10
3276.587890625
 20
-4881.447265625
 10
3286.140625
 20
-4881.447265625
 10
3295.693359375
 20
-4881.447265625
 10
3305.24609375
 20
-4881.447265625
 10
3314.798828125
 20
-4881.447265625
 10
3324.3515625
 20
-4881.447265625
 10
3333.904296875
 20
-4881.447265625
 10
3343.45703125
 20
-4881.447265625
 10
3353.009765625
 20
-4881.447265625
 10
3362.5625
 20
-4881.447265625
 10
3372.115234375
 20
-4881.447265625
 10
3381.66796875
 20
-4881.447265625
 10
3391.220703125
 20
-4881.447265625
 10
3400.7734375
 20
-4881.447265625
 10
3410.326171875
 20
-4881.447265625
 10
3419.87890625
 20
-4881.447265625
 10
3429.431640625
 20
-4881.447265625
 10
3438.984375
 20
-4881.447265625
 10
3448.537109375
 20
-4881.447265625
 10
3458.08984375
 20
-4881.447265625
 10
3467.642578125
 20
-4881.447265625
 10
3477.1953125
 20
-4881.447265625
 10
3486.748046875
 20
-4881.447265625
 10
3496.30078125
 20
-4881.447265625
 10
3505.853515625
 20
-4881.447265625
 10
3515.40625
 20
-4881.447265625
 10
3524.958984375
 20
-4881.447265625
 10
3534.51171875
 20
-4881.447265625
 10
3544.064453125
 20
-4881.447265625
 10
3553.6171875
 20
-4881.447265625
 10
3563.169921875
 20
-4881.447265625
 10
3572.72265625
 20
-4881.447265625
 10
3582.275390625
 20
-4881.447265625
 10
3591.828125
 20
-4881.447265625
 10
3601.380859375
 20
-4881.447265625
 10
3610.93359375
 20
-4881.447265625
 10
3620.486328125
 20
-4881.447265625
 10
3630.0390625
 20
-4881.447265625
 10
3639.591796875
 20
-4881.447265625
 10
3649.14453125
 20
-4881.447265625
 10
3658.697265625
 20
-4881.447265625
 10
3668.25
 20
-4881.447265625
 10
3677.802734375
 20
-4881.447265625
 10
3687.35546875
 20
-4881.447265625
 10
3696.908203125
 20
-4881.447265625
 10
3706.4609375
 20
-4881.447265625
 10
3716.013671875
 20
-4881.447265625
 10
3725.56640625
 20
-4881.447265625
 10
3735.119140625
 20
-4881.447265625
 10
3744.671875
 20
-4881.447265625
 10
3754.224609375
 20
-4881.447265625
 10
3763.77734375
 20
-4881.447265625
 10
3773.330078125
 20
-4881.447265625
 10
3782.8828125
 20
-4881.447265625
 10
3792.435546875
 20
-4881.447265625
 10
3801.98828125
 20
-4881.447265625
 10
3811.541015625
 20
-4881.447265625
 10
3821.09375
 20
-4881.447265625
 10
3830.646484375
 20
-4881.447265625
 10
3840.19921875
 20
-4881.447265625
 10
3849.751953125
 20
-4881.447265625
 10
3859.3046875
 20
-4881.447265625
 10
3868.857421875
 20
-4881.447265625
 10
3878.41015625
 20
-4881.447265625
 10
3887.962890625
 20
-4881.447265625
 10
3897.515625
 20
-4881.447265625
 10
3907.068359375
 20
-4881.447265625
 10
3916.62109375
 20
-4881.447265625
 10
3926.173828125
 20
-4881.447265625
 10
3935.7265625
 20
-4881.447265625
 10
3945.279296875
 20
-4881.447265625
 10
3954.83203125
 20
-4881.447265625
 10
3964.384765625
 20
-4881.447265625
 10
3973.9375
 20
-4881.447265625
 10
3983.490234375
 20
-4881.447265625
 10
3993.04296875
 20
-4881.447265625
 10
4002.595703125
 20
-4881.447265625
 10
4012.1484375
 20
-4881.447265625
 10
4021.701171875
 20
-4881.447265625
 10
4031.25390625
 20
-4881.447265625
 10
4040.806640625
 20
-4881.447265625
 10
4050.359375
 20
-4881.447265625
 10
4059.912109375
 20
-4881.447265625
 10
4069.46484375
 20
-4881.447265625
 10
4079.017578125
 20
-4881.447265625
 10
4088.5703125
 20
-4881.447265625
 10
4098.123046875
 20
-4881.447265625
 10
4107.67578125
 20
-4881.447265625
 10
4117.228515625
 20
-4881.447265625
 10
4126.78125
 20
-4881.447265625
 10
4136.333984375
 20
-4881.447265625
 10
4145.88671875
 20
-4881.447265625
 10
4155.439453125
 20
-4881.447265625
 10
4164.9921875
 20
-4881.447265625
 10
4174.544921875
 20
-4881.447265625
 10
4184.09765625
 20
-4881.447265625
 10
4193.650390625
 20
-4881.447265625
 10
4203.203125
 20
-4881.447265625
 10
4212.755859375
 20
-4881.447265625
 10
4222.30859375
 20
-4881.447265625
 10
4231.861328125
 20
-4881.447265625
 10
4241.4140625
 20
-4881.447265625
 10
4250.966796875
 20
-4881.447265625
 10
4260.51953125
 20
-4881.447265625
 10
4270.072265625
 20
-4881.447265625
 10
4279.625
 20
-4881.447265625
 10
4289.177734375
 20
-4881.447265625
 10
4298.73046875
 20
-4881.447265625
 10
4308.283203125
 20
-4881.447265625
 10
4317.8359375
 20
-4881.447265625
 10
4327.388671875
 20
-4881.447265625
 10
4336.94140625
 20
-4881.447265625
 10
4346.494140625
 20
-4881.447265625
 10
4356.046875
 20
-4881.447265625
 10
4365.599609375
 20
-4881.447265625
 10
4375.15234375
 20
-4881.447265625
 10
4384.705078125
 20
-4881.447265625
 10
4394.2578125
 20
-4881.447265625
 10
4403.810546875
 20
-4881.447265625
 10
4413.36328125
 20
-4881.447265625
 10
4422.916015625
 20
-4881.447265625
 10
4432.46875
 20
-4881.447265625
 10
4442.021484375
 20
-4881.447265625
 10
4451.57421875
 20
-4881.447265625
 10
4461.126953125
 20
-4881.447265625
 10
4470.6796875
 20
-4881.447265625
 10
4480.232421875
 20
-4881.447265625
 10
4489.78515625
 20
-4881.447265625
 10
4499.337890625
 20
-4881.447265625
 10
4508.890625
 20
-4881.447265625
 10
4518.443359375
 20
-4881.447265625
 10
4527.99609375
 20
-4881.447265625
 10
4537.548828125
 20
-4881.447265625
 10
4547.1015625
 20
-4881.447265625
 10
4556.654296875
 20
-4881.447265625
 10
4566.20703125
 20
-4881.447265625
 10
4575.759765625
 20
-4881.447265625
 10
4585.3125
 20
-4881.447265625
 10
4594.865234375
 20
-4881.447265625
 10
4604.41796875
 20
-4881.447265625
 10
4613.970703125
 20
-4881.447265625
 10
4623.5234375
 20
-4881.447265625
 10
4633.076171875
 20
-4881.447265625
 10
4642.62890625
 20
-4881.447265625
 10
4652.181640625
 20
-4881.447265625
 10
4661.734375
 20
-4881.447265625
 10
4671.287109375
 20
-4881.447265625
 10
4680.83984375
 20
-4881.447265625
 10
4690.392578125
 20
-4881.447265625
 10
4699.9453125
 20
-4881.447265625
 10
4709.498046875
 20
-4881.447265625
 10
4719.05078125
 20
-4881.447265625
 10
4728.603515625
 20
-4881.447265625
 10
4738.15625
 20
-4881.447265625
 10
4747.708984375
 20
-4881.447265625
 10
4757.26171875
 20
-4881.447265625
 10
4766.814453125
 20
-4881.447265625
 10
4776.3671875
 20
-4881.447265625
 10
4785.919921875
 20
-4881.447265625
 10
4795.47265625
 20
-4881.447265625
 10
4805.025390625
 20
-4881.447265625
 10
4814.578125
 20
-4881.447265625
 10
4824.130859375
 20
-4881.447265625
 10
4833.68359375
 20
-4881.447265625
 10
4843.236328125
 20
-4881.447265625
 10
4852.7890625
 20
-4881.447265625
 10
4862.341796875
 20
-4881.447265625
 10
4871.89453125
 20
-4881.447265625
 10
4881.447265625
 20
-4881.447265625
 10
4881.447265625
 20
-4871.89453125
 10
4881.447265625
 20
-4862.341796875
 10
4881.447265625
 20
-4852.7890625
 10
4881.447265625
 20
-4843.236328125
 10
4881.447265625
 20
-4833.68359375
 10
4881.447265625
 20
-4824.130859375
 10
4881.447265625
 20
-4814.578125
 10
4881.447265625
 20
-4805.025390625
 10
4881.447265625
 20
-4795.47265625
 10
4881.447265625
 20
-4785.919921875
 10
4881.447265625
 20
-4776.3671875
 10
4881.447265625
 20
-4766.814453125
 10
4881.447265625
 20
-4757.26171875
 10
4881.447265625
 20
-4747.708984375
 10
4881.447265625
 20
-4738.15625
 10
4881.447265625
 20
-4728.603515625
 10
4881.447265625
 20
-4719.05078125
 10
4881.447265625
 20
-4709.498046875
 10
4881.447265625
 20
-4699.9453125
 10
4881.447265625
 20
-4690.392578125
 10
4881.447265625
 20
-4680.83984375
 10
4881.447265625
 20
-4671.287109375
 10
4881.447265625
 20
-4661.734375
 10
4881.447265625
 20
-4652.181640625
 10
4881.447265625
 20
-4642.62890625
 10
4881.447265625
 20
-4633.076171875
 10
4881.447265625
 20
-4623.5234375
 10
4881.447265625
 20
-4613.970703125
 10
4881.447265625
 20
-4604.41796875
 10
4881.447265625
 20
-4594.865234375
 10
4881.447265625
 20
-4585.3125
 10
4881.447265625
 20
-4575.759765625
 10
4881.447265625
 20
-4566.20703125
 10
4881.447265625
 20
-4556.654296875
 10
4881.447265625
 20
-4547.1015625
 10
4881.447265625
 20
-4537.548828125
 10
4881.447265625
 20
-4527.99609375
 10
4881.447265625
 20
-4518.443359375
 10
4881.447265625
 20
-4508.890625
 10
4881.447265625
 20
-4499.337890625
 10
4881.447265625
 20
-4489.78515625
 10
4881.447265625
 20
-4480.232421875
 10
4881.447265625
 20
-4470.6796875
 10
4881.447265625
 20
-4461.126953125
 10
4881.447265625
 20
-4451.57421875
 10
4881.447265625
 20
-4442.021484375
 10
4881.447265625
 20
-4432.46875
 10
4881.447265625
 20
-4422.916015625
 10
4881.447265625
 20
-4413.36328125
 10
4881.447265625
 20
-4403.810546875
 10
4881.447265625
 20
-4394.2578125
 10
4881.447265625
 20
-4384.705078125
 10
4881.447265625
 20
-4375.15234375
 10
4881.447265625
 20
-4365.599609375
 10
4881.447265625
 20
-4356.046875
 10
4881.447265625
 20
-4346.494140625
 10
4881.447265625
 20
-4336.94140625
 10
4881.447265625
 20
-4327.388671875
 10
4881.447265625
 20
-4317.8359375
 10
4881.447265625
 20
-4308.283203125
 10
4881.447265625
 20
-4298.73046875
 10
4881.447265625
 20
-4289.177734375
 10
4881.447265625
 20
-4279.625
 10
4881.447265625
 20
-4270.072265625
 10
4881.447265625
 20
-4260.51953125
 10
4881.447265625
 20
-4250.966796875
 10
4881.447265625
 20
-4241.4140625
 10
4881.447265625
 20
-4231.861328125
 10
4881.447265625
 20
-4222.30859375
 10
4881.447265625
 20
-4212.755859375
 10
4881.447265625
 20
-4203.203125
 10
4881.447265625
 20
-4193.650390625
 10
4881.447265625
 20
-4184.09765625
 10
4881.447265625
 20
-4174.544921875
 10
4881.447265625
 20
-4164.9921875
 10
4881.447265625
 20
-4155.439453125
 10
4881.447265625
 20
-4145.88671875
 10
4881.447265625
 20
-4136.333984375
 10
4881.447265625
 20
-4126.78125
 10
4881.447265625
 20
-4117.228515625
 10
4881.447265625
 20
-4107.67578125
 10
4881.447265625
 20
-4098.123046875
 10
4881.447265625
 20
-4088.5703125
 10
4881.447265625
 20
-4079.017578125
 10
4881.447265625
 20
-4069.46484375
 10
4881.447265625
 20
-4059.912109375
 10
4881.447265625
 20
-4050.359375
 10
4881.447265625
 20
-4040.806640625
 10
4881.447265625
 20
-4031.25390625
 10
4881.447265625
 20
-4021.701171875
 10
4881.447265625
 20
-4012.1484375
 10
4881.447265625
 20
-4002.595703125
 10
4881.447265625
 20
-3993.04296875
 10
4881.447265625
 20
-3983.490234375
 10
4881.447265625
 20
-3973.9375
 10
4881.447265625
 20
-3964.384765625
 10
4881.447265625
 20
-3954.83203125
 10
4881.447265625
 20
-3945.279296875
 10
4881.447265625
 20
-3935.7265625
 10
4881.447265625
 20
-3926.173828125
 10
4881.447265625
 20
-3916.62109375
 10
4881.447265625
 20
-3907.068359375
 10
4881.447265625
 20
-3897.515625
 10
4881.447265625
 20
-3887.962890625
 10
4881.447265625
 20
-3878.41015625
 10
4881.447265625
 20
-3868.857421875
 10
4881.447265625
 20
-3859.3046875
 10
4881.447265625
 20
-3849.751953125
 10
4881.447265625
 20
-3840.19921875
 10
4881.447265625
 20
-3830.646484375
 10
4881.447265625
 20
-3821.09375
 10
4881.447265625
 20
-3811.541015625
 10
4881.447265625
 20
-3801.98828125
 10
4881.447265625
 20
-3792.435546875
 10
4881.447265625
 20
-3782.8828125
 10
4881.447265625
 20
-3773.330078125
 10
4881.447265625
 20
-3763.77734375
 10
4881.447265625
 20
-3754.224609375
 10
4881.447265625
 20
-3744.671875
 10
4881.447265625
 20
-3735.119140625
 10
4881.447265625
 20
-3725.56640625
 10
4881.447265625
 20
-3716.013671875
 10
4881.447265625
 20
-3706.4609375
 10
4881.447265625
 20
-3696.908203125
 10
4881.447265625
 20
-3687.35546875
 10
4881.447265625
 20
-3677.802734375
 10
4881.447265625
 20
-3668.25
 10
4881.447265625
 20
-3658.697265625
 10
4881.447265625
 20
-3649.14453125
 10
4881.447265625
 20
-3639.591796875
 10
4881.447265625
 20
-3630.0390625
 10
4881.447265625
 20
-3620.486328125
 10
4881.447265625
 20
-3610.93359375
 10
4881.447265625
 20
-3601.380859375
 10
4881.447265625
 20
-3591.828125
 10
4881.447265625
 20
-3582.275390625
 10
4881.447265625
 20
-3572.72265625
 10
4881.447265625
 20
-3563.169921875
 10
4881.447265625
 20
-3553.6171875
 10
4881.447265625
 20
-3544.064453125
 10
4881.447265625
 20
-3534.51171875
 10
4881.447265625
 20
-3524.958984375
 10
4881.447265625
 20
-3515.40625
 10
4881.447265625
 20
-3505.853515625
 10
4881.447265625
 20
-3496.30078125
 10
4881.447265625
 20
-3486.748046875
 10
4881.447265625
 20
-3477.1953125
 10
4881.447265625
 20
-3467.642578125
 10
4881.447265625
 20
-3458.08984375
 10
4881.447265625
 20
-3448.537109375
 10
4881.447265625
 20
-3438.984375
 10
4881.447265625
 20
-3429.431640625
 10
4881.447265625
 20
-3419.87890625
 10
4881.447265625
 20
-3410.326171875
 10
4881.447265625
 20
-3400.7734375
 10
4881.447265625
 20
-3391.220703125
 10
4881.447265625
 20
-3381.66796875
 10
4881.447265625
 20
-3372.115234375
 10
4881.447265625
 20
-3362.5625
 10
4881.447265625
 20
-3353.009765625
 10
4881.447265625
 20
-3343.45703125
 10
4881.447265625
 20
-3333.904296875
 10
4881.447265625
 20
-3324.3515625
 10
4881.447265625
 20
-3314.798828125
 10
4881.447265625
 20
-3305.24609375
 10
4881.447265625
 20
-3295.693359375
 10
4881.447265625
 20
-3286.140625
 10
4881.447265625
 20
-3276.587890625
 10
4881.447265625
 20
-3267.03515625
 10
4881.447265625
 20
-3257.482421875
 10
4881.447265625
 20
-3247.9296875
 10
4881.447265625
 20
-3238.376953125
 10
4881.447265625
 20
-3228.82421875
 10
4881.447265625
 20
-3219.271484375
 10
4881.447265625
 20
-3209.71875
 10
4881.447265625
 20
-3200.166015625
 10
4881.447265625
 20
-3190.61328125
 10
4881.447265625
 20
-3181.060546875
 10
4881.447265625
 20
-3171.5078125
 10
4881.447265625
 20
-3161.955078125
 10
4881.447265625
 20
-3152.40234375
 10
4881.447265625
 20
-3142.849609375
 10
4881.447265625
 20
-3133.296875
 10
4881.447265625
 20
-3123.744140625
 10
4881.447265625
 20
-3114.19140625
 10
4881.447265625
 20
-3104.638671875
 10
4881.447265625
 20
-3095.0859375
 10
4881.447265625
 20
-3085.533203125
 10
4881.447265625
 20
-3075.98046875
 10
4881.447265625
 20
-3066.427734375
 10
4881.447265625
 20
-3056.875
 10
4881.447265625
 20
-3047.322265625
 10
4881.447265625
 20
-3037.76953125
 10
4881.447265625
 20
-3028.216796875
 10
4881.447265625
 20
-3018.6640625
 10
4881.447265625
 20
-3009.111328125
 10
4881.447265625
 20
-2999.55859375
 10
4881.447265625
 20
-2990.005859375
 10
4881.447265625
 20
-2980.453125
 10
4881.447265625
 20
-2970.900390625
 10
4881.447265625
 20
-2961.34765625
 10
4881.447265625
 20
-2951.794921875
 10
4881.447265625
 20
-2942.2421875
 10
4881.447265625
 20
-2932.689453125
 10
4881.447265625
 20
-2923.13671875
 10
4881.447265625
 20
-2913.583984375
 10
4881.447265625
 20
-2904.03125
 10
4881.447265625
 20
-2894.478515625
 10
4881.447265625
 20
-2884.92578125
 10
4881.447265625
 20
-2875.373046875
 10
4881.447265625
 20
-2865.8203125
 10
4881.447265625
 20
-2856.267578125
 10
4881.447265625
 20
-2846.71484375
 10
4881.447265625
 20
-2837.162109375
 10
4881.447265625
 20
-2827.609375
 10
4881.447265625
 20
-2818.056640625
 10
4881.447265625
 20
-2808.50390625
 10
4881.447265625
 20
-2798.951171875
 10
4881.447265625
 20
-2789.3984375
 10
4881.447265625
 20
-2779.845703125
 10
4881.447265625
 20
-2770.29296875
 10
4881.447265625
 20
-2760.740234375
 10
4881.447265625
 20
-2751.1875
 10
4881.447265625
 20
-2741.634765625
 10
4881.447265625
 20
-2732.08203125
 10
4881.447265625
 20
-2722.529296875
 10
4881.447265625
 20
-2712.9765625
 10
4881.447265625
 20
-2703.423828125
 10
4881.447265625
 20
-2693.87109375
 10
4881.447265625
 20
-2684.318359375
 10
4881.447265625
 20
-2674.765625
 10
4881.447265625
 20
-2665.212890625
 10
4881.447265625
 20
-2655.66015625
 10
4881.447265625
 20
-2646.107421875
 10
4881.447265625
 20
-2636.5546875
 10
4881.447265625
 20
-2627.001953125
 10
4881.447265625
 20
-2617.44921875
 10
4881.447265625
 20
-2607.896484375
 10
4881.447265625
 20
-2598.34375
 10
4881.447265625
 20
-2588.791015625
 10
4881.447265625
 20
-2579.23828125
 10
4881.447265625
 20
-2569.685546875
 10
4881.447265625
 20
-2560.1328125
 10
4881.447265625
 20
-2550.580078125
 10
4881.447265625
 20
-2541.02734375
 10
4881.447265625
 20
-2531.474609375
 10
4881.447265625
 20
-2521.921875
 10
4881.447265625
 20
-2512.369140625
 10
4881.447265625
 20
-2502.81640625
 10
4881.447265625
 20
-2493.263671875
 10
4881.447265625
 20
-2483.7109375
 10
4881.447265625
 20
-2474.158203125
 10
4881.447265625
 20
-2464.60546875
 10
4881.447265625
 20
-2455.052734375
 10
4881.447265625
 20
-2445.5
 10
4881.447265625
 20
-2435.947265625
 10
4881.447265625
 20
-2426.39453125
 10
4881.447265625
 20
-2416.841796875
 10
4881.447265625
 20
-2407.2890625
 10
4881.447265625
 20
-2397.736328125
 10
4881.447265625
 20
-2388.18359375
 10
4881.447265625
 20
-2378.630859375
 10
4881.447265625
 20
-2369.078125
 10
4881.447265625
 20
-2359.525390625
 10
4881.447265625
 20
-2349.97265625
 10
4881.447265625
 20
-2340.419921875
 10
4881.447265625
 20
-2330.8671875
 10
4881.447265625
 20
-2321.314453125
 10
4881.447265625
 20
-2311.76171875
 10
4881.447265625
 20
-2302.208984375
 10
4881.447265625
 20
-2292.65625
 10
4881.447265625
 20
-2283.103515625
 10
4881.447265625
 20
-2273.55078125
 10
4881.447265625
 20
-2263.998046875
 10
4881.447265625
 20
-2254.4453125
 10
4881.447265625
 20
-2244.892578125
 10
4881.447265625
 20
-2235.33984375
 10
4881.447265625
 20
-2225.787109375
 10
4881.447265625
 20
-2216.234375
 10
4881.447265625
 20
-2206.681640625
 10
4881.447265625
 20
-2197.12890625
 10
4881.447265625
 20
-2187.576171875
 10
4881.447265625
 20
-2178.0234375
 10
4881.447265625
 20
-2168.470703125
 10
4881.447265625
 20
-2158.91796875
 10
4881.447265625
 20
-2149.365234375
 10
4881.447265625
 20
-2139.8125
 10
4881.447265625
 20
-2130.259765625
 10
4881.447265625
 20
-2120.70703125
 10
4881.447265625
 20
-2111.154296875
 10
4881.447265625
 20
-2101.6015625
 10
4881.447265625
 20
-2092.048828125
 10
4881.447265625
 20
-2082.49609375
 10
4881.447265625
 20
-2072.943359375
 10
4881.447265625
 20
-2063.390625
 10
4881.447265625
 20
-2053.837890625
 10
4881.447265625
 20
-2044.28515625
 10
4881.447265625
 20
-2034.732421875
 10
4881.447265625
 20
-2025.1796875
 10
4881.447265625
 20
-2015.626953125
 10
4881.447265625
 20
-2006.07421875
 10
4881.447265625
 20
-1996.521484375
 10
4881.447265625
 20
-1986.96875
 10
4881.447265625
 20
-1977.416015625
 10
4881.447265625
 20
-1967.86328125
 10
4881.447265625
 20
-1958.310546875
 10
4881.447265625
 20
-1948.7578125
 10
4881.447265625
 20
-1939.205078125
 10
4881.447265625
 20
-1929.65234375
 10
4881.447265625
 20
-1920.099609375
 10
4881.447265625
 20
-1910.546875
 10
4881.447265625
 20
-1900.994140625
 10
4881.447265625
 20
-1891.44140625
 10
4881.447265625
 20
-1881.888671875
 10
4881.447265625
 20
-1872.3359375
 10
4881.447265625
 20
-1862.783203125
 10
4881.447265625
 20
-1853.23046875
 10
4881.447265625
 20
-1843.677734375
 10
4881.447265625
 20
-1834.125
 10
4881.447265625
 20
-1824.572265625
 10
4881.447265625
 20
-1815.01953125
 10
4881.447265625
 20
-1805.466796875
 10
4881.447265625
 20
-1795.9140625
 10
4881.447265625
 20
-1786.361328125
 10
4881.447265625
 20
-1776.80859375
 10
4881.447265625
 20
-1767.255859375
 10
4881.447265625
 20
-1757.703125
 10
4881.447265625
 20
-1748.150390625
 10
4881.447265625
 20
-1738.59765625
 10
4881.447265625
 20
-1729.044921875
 10
4881.447265625
 20
-1719.4921875
 10
4881.447265625
 20
-1709.939453125
 10
4881.447265625
 20
-1700.38671875
 10
4881.447265625
 20
-1690.833984375
 10
4881.447265625
 20
-1681.28125
 10
4881.447265625
 20
-1671.728515625
 10
4881.447265625
 20
-1662.17578125
 10
4881.447265625
 20
-1652.623046875
 10
4881.447265625
 20
-1643.0703125
 10
4881.447265625
 20
-1633.517578125
 10
4881.447265625
 20
-1623.96484375
 10
4881.447265625
 20
-1614.412109375
 10
4881.447265625
 20
-1604.859375
 10
4881.447265625
 20
-1595.306640625
 10
4881.447265625
 20
-1585.75390625
 10
4881.447265625
 20
-1576.201171875
 10
4881.447265625
 20
-1566.6484375
 10
4881.447265625
 20
-1557.095703125
 10
4881.447265625
 20
-1547.54296875
 10
4881.447265625
 20
-1537.990234375
 10
4881.447265625
 20
-1528.4375
 10
4881.447265625
 20
-1518.884765625
 10
4881.447265625
 20
-1509.33203125
 10
4881.447265625
 20
-1499.779296875
 10
4881.447265625
 20
-1490.2265625
 10
4881.447265625
 20
-1480.673828125
 10
4881.447265625
 20
-1471.12109375
 10
4881.447265625
 20
-1461.568359375
 10
4881.447265625
 20
-1452.015625
 10
4881.447265625
 20
-1442.462890625
 10
4881.447265625
 20
-1432.91015625
 10
4881.447265625
 20
-1423.357421875
 10
4881.447265625
 20
-1413.8046875
 10
4881.447265625
 20
-1404.251953125
 10
4881.447265625
 20
-1394.69921875
 10
4881.447265625
 20
-1385.146484375
 10
4881.447265625
 20
-1375.59375
 10
4881.447265625
 20
-1366.041015625
 10
4881.447265625
 20
-1356.48828125
 10
4881.447265625
 20
-1346.935546875
 10
4881.447265625
 20
-1337.3828125
 10
4881.447265625
 20
-1327.830078125
 10
4881.447265625
 20
-1318.27734375
 10
4881.447265625
 20
-1308.724609375
 10
4881.447265625
 20
-1299.171875
 10
4881.447265625
 20
-1289.619140625
 10
4881.447265625
 20
-1280.06640625
 10
4881.447265625
 20
-1270.513671875
 10
4881.447265625
 20
-1260.9609375
 10
4881.447265625
 20
-1251.408203125
 10
4881.447265625
 20
-1241.85546875
 10
4881.447265625
 20
-1232.302734375
 10
4881.447265625
 20
-1222.75
 10
4881.447265625
 20
-1213.197265625
 10
4881.447265625
 20
-1203.64453125
 10
4881.447265625
 20
-1194.091796875
 10
4881.447265625
 20
-1184.5390625
 10
4881.447265625
 20
-1174.986328125
 10
4881.447265625
 20
-1165.43359375
 10
4881.447265625
 20
-1155.880859375
 10
4881.447265625
 20
-1146.328125
 10
4881.447265625
 20
-1136.775390625
 10
4881.447265625
 20
-1127.22265625
 10
4881.447265625
 20
-1117.669921875
 10
4881.447265625
 20
-1108.1171875
 10
4881.447265625
 20
-1098.564453125
 10
4881.447265625
 20
-1089.01171875
 10
4881.447265625
 20
-1079.458984375
 10
4881.447265625
 20
-1069.90625
 10
4881.447265625
 20
-1060.353515625
 10
4881.447265625
 20
-1050.80078125
 10
4881.447265625
 20
-1041.248046875
 10
4881.447265625
 20
-1031.6953125
 10
4881.447265625
 20
-1022.142578125
 10
4881.447265625
 20
-1012.58984375
 10
4881.447265625
 20
-1003.037109375
 10
4881.447265625
 20
-993.484375
 10
4881.447265625
 20
-983.931640625
 10
4881.447265625
 20
-974.37890625
 10
4881.447265625
 20
-964.826171875
 10
4881.447265625
 20
-955.2734375
 10
4881.447265625
 20
-945.720703125
 10
4881.447265625
 20
-936.16796875
 10
4881.447265625
 20
-926.615234375
 10
4881.447265625
 20
-917.0625
 10
4881.447265625
 20
-907.509765625
 10
4881.447265625
 20
-897.95703125
 10
4881.447265625
 20
-888.404296875
 10
4881.447265625
 20
-878.8515625
 10
4881.447265625
 20
-869.298828125
 10
4881.447265625
 20
-859.74609375
 10
4881.447265625
 20
-850.193359375
 10
4881.447265625
 20
-840.640625
 10
4881.447265625
 20
-831.087890625
 10
4881.447265625
 20
-821.53515625
 10
4881.447265625
 20
-811.982421875
 10
4881.447265625
 20
-802.4296875
 10
4881.447265625
 20
-792.876953125
 10
4881.447265625
 20
-783.32421875
 10
4881.447265625
 20
-773.771484375
 10
4881.447265625
 20
-764.21875
 10
4881.447265625
 20
-754.666015625
 10
4881.447265625
 20
-745.11328125
 10
4881.447265625
 20
-735.560546875
 10
4881.447265625
 20
-726.0078125
 10
4881.447265625
 20
-716.455078125
 10
4881.447265625
 20
-706.90234375
 10
4881.447265625
 20
-697.349609375
 10
4881.447265625
 20
-687.796875
 10
4881.447265625
 20
-678.244140625
 10
4881.447265625
 20
-668.69140625
 10
4881.447265625
 20
-659.138671875
 10
4881.447265625
 20
-649.5859375
 10
4881.447265625
 20
-640.033203125
 10
4881.447265625
 20
-630.48046875
 10
4881.447265625
 20
-620.927734375
 10
4881.447265625
 20
-611.375
 10
4881.447265625
 20
-601.822265625
 10
4881.447265625
 20
-592.26953125
 10
4881.447265625
 20
-582.716796875
 10
4881.447265625
 20
-573.1640625
 10
4881.447265625
 20
-563.611328125
 10
4881.447265625
 20
-554.05859375
 10
4881.447265625
 20
-544.505859375
 10
4881.447265625
 20
-534.953125
 10
4881.447265625
 20
-525.400390625
 10
4881.447265625
 20
-515.84765625
 10
4881.447265625
 20
-506.294921875
 10
4881.447265625
 20
-496.7421875
 10
4881.447265625
 20
-487.189453125
 10
4881.447265625
 20
-477.63671875
 10
4881.447265625
 20
-468.083984375
 10
4881.447265625
 20
-458.53125
 10
4881.447265625
 20
-448.978515625
 10
4881.447265625
 20
-439.42578125
 10
4881.447265625
 20
-429.873046875
 10
4881.447265625
 20
-420.3203125
 10
4881.447265625
 20
-410.767578125
 10
4881.447265625
 20
-401.21484375
 10
4881.447265625
 20
-391.662109375
 10
4881.447265625
 20
-382.109375
 10
4881.447265625
 20
-372.556640625
 10
4881.447265625
 20
-363.00390625
 10
4881.447265625
 20
-353.451171875
 10
4881.447265625
 20
-343.8984375
 10
4881.447265625
 20
-334.345703125
 10
4881.447265625
 20
-324.79296875
 10
4881.447265625
 20
-315.240234375
 10
4881.447265625
 20
-305.6875
 10
4881.447265625
 20
-296.134765625
 10
4881.447265625
 20
-286.58203125
 10
4881.447265625
 20
-277.029296875
 10
4881.447265625
 20
-267.4765625
 10
4881.447265625
 20
-257.923828125
 10
4881.447265625
 20
-248.37109375
 10
4881.447265625
 20
-238.818359375
 10
4881.447265625
 20
-229.265625
 10
4881.447265625
 20
-219.712890625
 10
4881.447265625
 20
-210.16015625
 10
4881.447265625
 20
-200.607421875
 10
4881.447265625
 20
-191.0546875
 10
4881.447265625
 20
-181.501953125
 10
4881.447265625
 20
-171.94921875
 10
4881.447265625
 20
-162.396484375
 10
4881.447265625
 20
-152.84375
 10
4881.447265625
 20
-143.291015625
 10
4881.447265625
 20
-133.73828125
 10
4881.447265625
 20
-124.185546875
 10
4881.447265625
 20
-114.6328125
 10
4881.447265625
 20
-105.080078125
 10
4881.447265625
 20
-95.52734375
 10
4881.447265625
 20
-85.974609375
 10
4881.447265625
 20
-76.421875
 10
4881.447265625
 20
-66.869140625
 10
4881.447265625
 20
-57.31640625
 10
4881.447265625
 20
-47.763671875
 10
4881.447265625
 20
-38.2109375
 10
4881.447265625
 20
-28.658203125
 10
4881.447265625
 20
-19.10546875
 10
4881.447265625
 20
-9.552734375
 10
4881.447265625
 20
-0.0
 10
4871.89453125
 20
-0.0
 10
4862.341796875
 20
-0.0
 10
4852.7890625
 20
-0.0
 10
4843.236328125
 20
-0.0
 10
4833.68359375
 20
-0.0
 10
4824.130859375
 20
-0.0
 10
4814.578125
 20
-0.0
 10
4805.025390625
 20
-0.0
 10
4795.47265625
 20
-0.0
 10
4785.919921875
 20
-0.0
 10
4776.3671875
 20
-0.0
 10
4766.814453125
 20
-0.0
 10
4757.26171875
 20
-0.0
 10
4747.708984375
 20
-0.0
 10
4738.15625
 20
-0.0
 10
4728.603515625
 20
-0.0
 10
4719.05078125
 20
-0.0
 10
4709.498046875
 20
-0.0
 10
4699.9453125
 20
-0.0
 10
4690.392578125
 20
-0.0
 10
4680.83984375
 20
-0.0
 10
4671.287109375
 20
-0.0
 10
4661.734375
 20
-0.0
 10
4652.181640625
 20
-0.0
 10
4642.62890625
 20
-0.0
 10
4633.076171875
 20
-0.0
 10
4623.5234375
 20
-0.0
 10
4613.970703125
 20
-0.0
 10
4604.41796875
 20
-0.0
 10
4594.865234375
 20
-0.0
 10
4585.3125
 20
-0.0
 10
4575.759765625
 20
-0.0
 10
4566.20703125
 20
-0.0
 10
4556.654296875
 20
-0.0
 10
4547.1015625
 20
-0.0
 10
4537.548828125
 20
-0.0
 10
4527.99609375
 20
-0.0
 10
4518.443359375
 20
-0.0
 10
4508.890625
 20
-0.0
 10
4499.337890625
 20
-0.0
 10
4489.78515625
 20
-0.0
 10
4480.232421875
 20
-0.0
 10
4470.6796875
 20
-0.0
 10
4461.126953125
 20
-0.0
 10
4451.57421875
 20
-0.0
 10
4442.021484375
 20
-0.0
 10
4432.46875
 20
-0.0
 10
4422.916015625
 20
-0.0
 10
4413.36328125
 20
-0.0
 10
4403.810546875
 20
-0.0
 10
4394.2578125
 20
-0.0
 10
4384.705078125
 20
-0.0
 10
4375.15234375
 20
-0.0
 10
4365.599609375
 20
-0.0
 10
4356.046875
 20
-0.0
 10
4346.494140625
 20
-0.0
 10
4336.94140625
 20
-0.0
 10
4327.388671875
 20
-0.0
 10
4317.8359375
 20
-0.0
 10
4308.283203125
 20
-0.0
 10
4298.73046875
 20
-0.0
 10
4289.177734375
 20
-0.0
 10
4279.625
 20
-0.0
 10
4270.072265625
 20
-0.0
 10
4260.51953125
 20
-0.0
 10
4250.966796875
 20
-0.0
 10
4241.4140625
 20
-0.0
 10
4231.861328125
 20
-0.0
 10
4222.30859375
 20
-0.0
 10
4212.755859375
 20
-0.0
 10
4203.203125
 20
-0.0
 10
4193.650390625
 20
-0.0
 10
4184.09765625
 20
-0.0
 10
4174.544921875
 20
-0.0
 10
4164.9921875
 20
-0.0
 10
4155.439453125
 20
-0.0
 10
4145.88671875
 20
-0.0
 10
4136.333984375
 20
-0.0
 10
4126.78125
 20
-0.0
 10
4117.228515625
 20
-0.0
 10
4107.67578125
 20
-0.0
 10
4098.123046875
 20
-0.0
 10
4088.5703125
 20
-0.0
 10
4079.017578125
 20
-0.0
 10
4069.46484375
 20
-0.0
 10
4059.912109375
 20
-0.0
 10
4050.359375
 20
-0.0
 10
4040.806640625
 20
-0.0
 10
4031.25390625
 20
-0.0
 10
4021.701171875
 20
-0.0
 10
4012.1484375
 20
-0.0
 10
4002.595703125
 20
-0.0
 10
3993.04296875
 20
-0.0
 10
3983.490234375
 20
-0.0
 10
3973.9375
 20
-0.0
 10
3964.384765625
 20
-0.0
 10
3954.83203125
 20
-0.0
 10
3945.279296875
 20
-0.0
 10
3935.7265625
 20
-0.0
 10
3926.173828125
 20
-0.0
 10
3916.62109375
 20
-0.0
 10
3907.068359375
 20
-0.0
 10
3897.515625
 20
-0.0
 10
3887.962890625
 20
-0.0
 10
3878.41015625
 20
-0.0
 10
3868.857421875
 20
-0.0
 10
3859.3046875
 20
-0.0
 10
3849.751953125
 20
-0.0
 10
3840.19921875
 20
-0.0
 10
3830.646484375
 20
-0.0
 10
3821.09375
 20
-0.0
 10
3811.541015625
 20
-0.0
 10
3801.98828125
 20
-0.0
 10
3792.435546875
 20
-0.0
 10
3782.8828125
 20
-0.0
 10
3773.330078125
 20
-0.0
 10
3763.77734375
 20
-0.0
 10
3754.224609375
 20
-0.0
 10
3744.671875
 20
-0.0
 10
3735.119140625
 20
-0.0
 10
3725.56640625
 20
-0.0
 10
3716.013671875
 20
-0.0
 10
3706.4609375
 20
-0.0
 10
3696.908203125
 20
-0.0
 10
3687.35546875
 20
-0.0
 10
3677.802734375
 20
-0.0
 10
3668.25
 20
-0.0
 10
3658.697265625
 20
-0.0
 10
3649.14453125
 20
-0.0
 10
3639.591796875
 20
-0.0
 10
3630.0390625
 20
-0.0
 10
3620.486328125
 20
-0.0
 10
3610.93359375
 20
-0.0
 10
3601.380859375
 20
-0.0
 10
3591.828125
 20
-0.0
 10
3582.275390625
 20
-0.0
 10
3572.72265625
 20
-0.0
 10
3563.169921875
 20
-0.0
 10
3553.6171875
 20
-0.0
 10
3544.064453125
 20
-0.0
 10
3534.51171875
 20
-0.0
 10
3524.958984375
 20
-0.0
 10
3515.40625
 20
-0.0
 10
3505.853515625
 20
-0.0
 10
3496.30078125
 20
-0.0
 10
3486.748046875
 20
-0.0
 10
3477.1953125
 20
-0.0
 10
3467.642578125
 20
-0.0
 10
3458.08984375
 20
-0.0
 10
3448.537109375
 20
-0.0
 10
3438.984375
 20
-0.0
 10
3429.431640625
 20
-0.0
 10
3419.87890625
 20
-0.0
 10
3410.326171875
 20
-0.0
 10
3400.7734375
 20
-0.0
 10
3391.220703125
 20
-0.0
 10
3381.66796875
 20
-0.0
 10
3372.115234375
 20
-0.0
 10
3362.5625
 20
-0.0
 10
3353.009765625
 20
-0.0
 10
3343.45703125
 20
-0.0
 10
3333.904296875
 20
-0.0
 10
3324.3515625
 20
-0.0
 10
3314.798828125
 20
-0.0
 10
3305.24609375
 20
-0.0
 10
3295.693359375
 20
-0.0
 10
3286.140625
 20
-0.0
 10
3276.587890625
 20
-0.0
 10
3267.03515625
 20
-0.0
 10
3257.482421875
 20
-0.0
 10
3247.9296875
 20
-0.0
 10
3238.376953125
 20
-0.0
 10
3228.82421875
 20
-0.0
 10
3219.271484375
 20
-0.0
 10
3209.71875
 20
-0.0
 10
3200.166015625
 20
-0.0
 10
3190.61328125
 20
-0.0
 10
3181.060546875
 20
-0.0
 10
3171.5078125
 20
-0.0
 10
3161.955078125
 20
-0.0
 10
3152.40234375
 20
-0.0
 10
3142.849609375
 20
-0.0
 10
3133.296875
 20
-0.0
 10
3123.744140625
 20
-0.0
 10
3114.19140625
 20
-0.0
 10
3104.638671875
 20
-0.0
 10
3095.0859375
 20
-0.0
 10
3085.533203125
 20
-0.0
 10
3075.98046875
 20
-0.0
 10
3066.427734375
 20
-0.0
 10
3056.875
 20
-0.0
 10
3047.322265625
 20
-0.0
 10
3037.76953125
 20
-0.0
 10
3028.216796875
 20
-0.0
 10
3018.6640625
 20
-0.0
 10
3009.111328125
 20
-0.0
 10
2999.55859375
 20
-0.0
 10
2990.005859375
 20
-0.0
 10
2980.453125
 20
-0.0
 10
2970.900390625
 20
-0.0
 10
2961.34765625
 20
-0.0
 10
2951.794921875
 20
-0.0
 10
2942.2421875
 20
-0.0
 10
2932.689453125
 20
-0.0
 10
2923.13671875
 20
-0.0
 10
2913.583984375
 20
-0.0
 10
2904.03125
 20
-0.0
 10
2894.478515625
 20
-0.0
 10
2884.92578125
 20
-0.0
 10
2875.373046875
 20
-0.0
 10
2865.8203125
 20
-0.0
 10
2856.267578125
 20
-0.0
 10
2846.71484375
 20
-0.0
 10
2837.162109375
 20
-0.0
 10
2827.609375
 20
-0.0
 10
2818.056640625
 20
-0.0
 10
2808.50390625
 20
-0.0
 10
2798.951171875
 20
-0.0
 10
2789.3984375
 20
-0.0
 10
2779.845703125
 20
-0.0
 10
2770.29296875
 20
-0.0
 10
2760.740234375
 20
-0.0
 10
2751.1875
 20
-0.0
 10
2741.634765625
 20
-0.0
 10
2732.08203125
 20
-0.0
 10
2722.529296875
 20
-0.0
 10
2712.9765625
 20
-0.0
 10
2703.423828125
 20
-0.0
 10
2693.87109375
 20
-0.0
 10
2684.318359375
 20
-0.0
 10
2674.765625
 20
-0.0
 10
2665.212890625
 20
-0.0
 10
2655.66015625
 20
-0.0
 10
2646.107421875
 20
-0.0
 10
2636.5546875
 20
-0.0
 10
2627.001953125
 20
-0.0
 10
2617.44921875
 20
-0.0
 10
2607.896484375
 20
-0.0
 10
2598.34375
 20
-0.0
 10
2588.791015625
 20
-0.0
 10
2579.23828125
 20
-0.0
 10
2569.685546875
 20
-0.0
 10
2560.1328125
 20
-0.0
 10
2550.580078125
 20
-0.0
 10
2541.02734375
 20
-0.0
 10
2531.474609375
 20
-0.0
 10
2521.921875
 20
-0.0
 10
2512.369140625
 20
-0.0
 10
2502.81640625
 20
-0.0
 10
2493.263671875
 20
-0.0
 10
2483.7109375
 20
-0.0
 10
2474.158203125
 20
-0.0
 10
2464.60546875
 20
-0.0
 10
2455.052734375
 20
-0.0
 10
2445.5
 20
-0.0
 10
2435.947265625
 20
-0.0
 10
2426.39453125
 20
-0.0
 10
2416.841796875
 20
-0.0
 10
2407.2890625
 20
-0.0
 10
2397.736328125
 20
-0.0
 10
2388.18359375
 20
-0.0
 10
2378.630859375
 20
-0.0
 10
2369.078125
 20
-0.0
 10
2359.525390625
 20
-0.0
 10
2349.97265625
 20
-0.0
 10
2340.419921875
 20
-0.0
 10
2330.8671875
 20
-0.0
 10
2321.314453125
 20
-0.0
 10
2311.76171875
 20
-0.0
 10
2302.208984375
 20
-0.0
 10
2292.65625
 20
-0.0
 10
2283.103515625
 20
-0.0
 10
2273.55078125
 20
-0.0
 10
2263.998046875
 20
-0.0
 10
2254.4453125
 20
-0.0
 10
2244.892578125
 20
-0.0
 10
2235.33984375
 20
-0.0
 10
2225.787109375
 20
-0.0
 10
2216.234375
 20
-0.0
 10
2206.681640625
 20
-0.0
 10
2197.12890625
 20
-0.0
 10
2187.576171875
 20
-0.0
 10
2178.0234375
 20
-0.0
 10
2168.470703125
 20
-0.0
 10
2158.91796875
 20
-0.0
 10
2149.365234375
 20
-0.0
 10
2139.8125
 20
-0.0
 10
2130.259765625
 20
-0.0
 10
2120.70703125
 20
-0.0
 10
2111.154296875
 20
-0.0
 10
2101.6015625
 20
-0.0
 10
2092.048828125
 20
-0.0
 10
2082.49609375
 20
-0.0
 10
2072.943359375
 20
-0.0
 10
2063.390625
 20
-0.0
 10
2053.837890625
 20
-0.0
 10
2044.28515625
 20
-0.0
 10
2034.732421875
 20
-0.0
 10
2025.1796875
 20
-0.0
 10
2015.626953125
 20
-0.0
 10
2006.07421875
 20
-0.0
 10
1996.521484375
 20
-0.0
 10
1986.96875
 20
-0.0
 10
1977.416015625
 20
-0.0
 10
1967.86328125
 20
-0.0
 10
1958.310546875
 20
-0.0
 10
1948.7578125
 20
-0.0
 10
1939.205078125
 20
-0.0
 10
1929.65234375
 20
-0.0
 10
1920.099609375
 20
-0.0
 10
1910.546875
 20
-0.0
 10
1900.994140625
 20
-0.0
 10
1891.44140625
 20
-0.0
 10
1881.888671875
 20
-0.0
 10
1872.3359375
 20
-0.0
 10
1862.783203125
 20
-0.0
 10
1853.23046875
 20
-0.0
 10
1843.677734375
 20
-0.0
 10
1834.125
 20
-0.0
 10
1824.572265625
 20
-0.0
 10
1815.01953125
 20
-0.0
 10
1805.466796875
 20
-0.0
 10
1795.9140625
 20
-0.0
 10
1786.361328125
 20
-0.0
 10
1776.80859375
 20
-0.0
 10
1767.255859375
 20
-0.0
 10
1757.703125
 20
-0.0
 10
1748.150390625
 20
-0.0
 10
1738.59765625
 20
-0.0
 10
1729.044921875
 20
-0.0
 10
1719.4921875
 20
-0.0
 10
1709.939453125
 20
-0.0
 10
1700.38671875
 20
-0.0
 10
1690.833984375
 20
-0.0
 10
1681.28125
 20
-0.0
 10
1671.728515625
 20
-0.0
 10
1662.17578125
 20
-0.0
 10
1652.623046875
 20
-0.0
 10
1643.0703125
 20
-0.0
 10
1633.517578125
 20
-0.0
 10
1623.96484375
 20
-0.0
 10
1614.412109375
 20
-0.0
 10
1604.859375
 20
-0.0
 10
1595.306640625
 20
-0.0
 10
1585.75390625
 20
-0.0
 10
1576.201171875
 20
-0.0
 10
1566.6484375
 20
-0.0
 10
1557.095703125
 20
-0.0
 10
1547.54296875
 20
-0.0
 10
1537.990234375
 20
-0.0
 10
1528.4375
 20
-0.0
 10
1518.884765625
 20
-0.0
 10
1509.33203125
 20
-0.0
 10
1499.779296875
 20
-0.0
 10
1490.2265625
 20
-0.0
 10
1480.673828125
 20
-0.0
 10
1471.12109375
 20
-0.0
 10
1461.568359375
 20
-0.0
 10
1452.015625
 20
-0.0
 10
1442.462890625
 20
-0.0
 10
1432.91015625
 20
-0.0
 10
1423.357421875
 20
-0.0
 10
1413.8046875
 20
-0.0
 10
1404.251953125
 20
-0.0
 10
1394.69921875
 20
-0.0
 10
1385.146484375
 20
-0.0
 10
1375.59375
 20
-0.0
 10
1366.041015625
 20
-0.0
 10
1356.48828125
 20
-0.0
 10
1346.935546875
 20
-0.0
 10
1337.3828125
 20
-0.0
 10
1327.830078125
 20
-0.0
 10
1318.27734375
 20
-0.0
 10
1308.724609375
 20
-0.0
 10
1299.171875
 20
-0.0
 10
1289.619140625
 20
-0.0
 10
1280.06640625
 20
-0.0
 10
1270.513671875
 20
-0.0
 10
1260.9609375
 20
-0.0
 10
1251.408203125
 20
-0.0
 10
1241.85546875
 20
-0.0
 10
1232.302734375
 20
-0.0
 10
1222.75
 20
-0.0
 10
1213.197265625
 20
-0.0
 10
1203.64453125
 20
-0.0
 10
1194.091796875
 20
-0.0
 10
1184.5390625
 20
-0.0
 10
1174.986328125
 20
-0.0
 10
1165.43359375
 20
-0.0
 10
1155.880859375
 20
-0.0
 10
1146.328125
 20
-0.0
 10
1136.775390625
 20
-0.0
 10
1127.22265625
 20
-0.0
 10
1117.669921875
 20
-0.0
 10
1108.1171875
 20
-0.0
 10
1098.564453125
 20
-0.0
 10
1089.01171875
 20
-0.0
 10
1079.458984375
 20
-0.0
 10
1069.90625
 20
-0.0
 10
1060.353515625
 20
-0.0
 10
1050.80078125
 20
-0.0
 10
1041.248046875
 20
-0.0
 10
1031.6953125
 20
-0.0
 10
1022.142578125
 20
-0.0
 10
1012.58984375
 20
-0.0
 10
1003.037109375
 20
-0.0
 10
993.484375
 20
-0.0
 10
983.931640625
 20
-0.0
 10
974.37890625
 20
-0.0
 10
964.826171875
 20
-0.0
 10
955.2734375
 20
-0.0
 10
945.720703125
 20
-0.0
 10
936.16796875
 20
-0.0
 10
926.615234375
 20
-0.0
 10
917.0625
 20
-0.0
 10
907.509765625
 20
-0.0
 10
897.95703125
 20
-0.0
 10
888.404296875
 20
-0.0
 10
878.8515625
 20
-0.0
 10
869.298828125
 20
-0.0
 10
859.74609375
 20
-0.0
 10
850.193359375
 20
-0.0
 10
840.640625
 20
-0.0
 10
831.087890625
 20
-0.0
 10
821.53515625
 20
-0.0
 10
811.982421875
 20
-0.0
 10
802.4296875
 20
-0.0
 10
792.876953125
 20
-0.0
 10
783.32421875
 20
-0.0
 10
773.771484375
 20
-0.0
 10
764.21875
 20
-0.0
 10
754.666015625
 20
-0.0
 10
745.11328125
 20
-0.0
 10
735.560546875
 20
-0.0
 10
726.0078125
 20
-0.0
 10
716.455078125
 20
-0.0
 10
706.90234375
 20
-0.0
 10
697.349609375
 20
-0.0
 10
687.796875
 20
-0.0
 10
678.244140625
 20
-0.0
 10
668.69140625
 20
-0.0
 10
659.138671875
 20
-0.0
 10
649.5859375
 20
-0.0
 10
640.033203125
 20
-0.0
 10
630.48046875
 20
-0.0
 10
620.927734375
 20
-0.0
 10
611.375
 20
-0.0
 10
601.822265625
 20
-0.0
 10
592.26953125
 20
-0.0
 10
582.716796875
 20
-0.0
 10
573.1640625
 20
-0.0
 10
563.611328125
 20
-0.0
 10
554.05859375
 20
-0.0
 10
544.505859375
 20
-0.0
 10
534.953125
 20
-0.0
 10
525.400390625
 20
-0.0
 10
515.84765625
 20
-0.0
 10
506.294921875
 20
-0.0
 10
496.7421875
 20
-0.0
 10
487.189453125
 20
-0.0
 10
477.63671875
 20
-0.0
 10
468.083984375
 20
-0.0
 10
458.53125
 20
-0.0
 10
448.978515625
 20
-0.0
 10
439.42578125
 20
-0.0
 10
429.873046875
 20
-0.0
 10
420.3203125
 20
-0.0
 10
410.767578125
 20
-0.0
 10
401.21484375
 20
-0.0
 10
391.662109375
 20
-0.0
 10
382.109375
 20
-0.0
 10
372.556640625
 20
-0.0
 10
363.00390625
 20
-0.0
 10
353.451171875
 20
-0.0
 10
343.8984375
 20
-0.0
 10
334.345703125
 20
-0.0
 10
324.79296875
 20
-0.0
 10
315.240234375
 20
-0.0
 10
305.6875
 20
-0.0
 10
296.134765625
 20
-0.0
 10
286.58203125
 20
-0.0
 10
277.029296875
 20
-0.0
 10
267.4765625
 20
-0.0
 10
257.923828125
 20
-0.0
 10
248.37109375
 20
-0.0
 10
238.818359375
 20
-0.0
 10
229.265625
 20
-0.0
 10
219.712890625
 20
-0.0
 10
210.16015625
 20
-0.0
 10
200.607421875
 20
-0.0
 10
191.0546875
 20
-0.0
 10
181.501953125
 20
-0.0
 10
171.94921875
 20
-0.0
 10
162.396484375
 20
-0.0
 10
152.84375
 20
-0.0
 10
143.291015625
 20
-0.0
 10
133.73828125
 20
-0.0
 10
124.185546875
 20
-0.0
 10
114.6328125
 20
-0.0
 10
105.080078125
 20
-0.0
 10
95.52734375
 20
-0.0
 10
85.974609375
 20
-0.0
 10
76.421875
 20
-0.0
 10
66.869140625
 20
-0.0
 10
57.31640625
 20
-0.0
 10
47.763671875
 20
-0.0
 10
38.2109375
 20
-0.0
 10
28.658203125
 20
-0.0
 10
19.10546875
 20
-0.0
 10
9.552734375
 20
-0.0
  0
LWPOLYLINE
  5
35
330
17
100
AcDbEntity
  8
substrate
100
AcDbPolyline
 90
4
 70
1
 43
0.5
 10
296.134765625
 20
-4738.15625
 10
305.6875
 20
-4728.603515625
 10
315.240234375
 20
-4738.15625
 10
305.6875
 20
-4747.708984375
  0
LWPOLYLINE
  5
36
330
17
100
AcDbEntity
  8
substrate
100
AcDbPolyline
 90
4
 70
1
 43
0.5
 10
3066.427734375
 20
-2416.841796875
 10
3075.98046875
 20
-2407.2890625
 10
3085.533203125
 20
-2416.841796875
 10
3075.98046875
 20
-2426.39453125
  0
LWPOLYLINE
  5
37
330
17
100
AcDbEntity
  8
substrate
100
AcDbPolyline
 90
4
 70
1
 43
0.5
 10
2053.837890625
 20
-2120.70703125
 10
2063.390625
 20
-2111.154296875
 10
2072.943359375
 20
-2120.70703125
 10
2063.390625
 20
-2130.259765625
  0
LWPOLYLINE
  5
38
330
17
100
AcDbEntity
  8
substrate
100
AcDbPolyline
 90
6
 70
1
 43
0.5
 10
2034.732421875
 20
-2120.70703125
 10
2044.28515625
 20
-2111.154296875
 10
2053.837890625
 20
-2120.70703125
 10
2053.837890625
 20
-2130.259765625
 10
2044.28515625
 20
-2139.8125
 10
2034.732421875
 20
-2130.259765625
  0
LWPOLYLINE
  5
39
330
17
100
AcDbEntity
  8
substrate
100
AcDbPolyline
 90
4
 70
1
 43
0.5
 10
2015.626953125
 20
-2120.70703125
 10
2025.1796875
 20
-2111.154296875
 10
2034.732421875
 20
-2120.70703125
 10
2025.1796875
 20
-2130.259765625
  0
LWPOLYLINE
  5
3A
330
17
100
AcDbEntity
  8
substrate
100
AcDbPolyline
 90
235
 70
1
 43
0.5
 10
2397.736328125
 20
-2053.837890625
 10
2407.2890625
 20
-2044.28515625
 10
2416.841796875
 20
-2044.28515625
 10
2426.39453125
 20
-2053.837890625
 10
2435.947265625
 20
-2053.837890625
 10
2445.5
 20
-2053.837890625
 10
2455.052734375
 20
-2053.837890625
 10
2464.60546875
 20
-2053.837890625
 10
2474.158203125
 20
-2053.837890625
 10
2483.7109375
 20
-2063.390625
 10
2493.263671875
 20
-2063.390625
 10
2502.81640625
 20
-2063.390625
 10
2512.369140625
 20
-2063.390625
 10
2521.921875
 20
-2063.390625
 10
2531.474609375
 20
-2063.390625
 10
2541.02734375
 20
-2072.943359375
 10
2550.580078125
 20
-2072.943359375
 10
2560.1328125
 20
-2082.49609375
 10
2569.685546875
 20
-2082.49609375
 10
2579.23828125
 20
-2082.49609375
 10
2588.791015625
 20
-2082.49609375
 10
2598.34375
 20
-2082.49609375
 10
2607.896484375
 20
-2092.048828125
 10
2617.44921875
 20
-2101.6015625
 10
2627.001953125
 20
-2101.6015625
 10
2636.5546875
 20
-2111.154296875
 10
2646.107421875
 20
-2111.154296875
 10
2655.66015625
 20
-2120.70703125
 10
2665.212890625
 20
-2130.259765625
 10
2674.765625
 20
-2139.8125
 10
2684.318359375
 20
-2139.8125
 10
2693.87109375
 20
-2149.365234375
 10
2703.423828125
 20
-2158.91796875
 10
2712.9765625
 20
-2168.470703125
 10
2722.529296875
 20
-2178.0234375
 10
2732.08203125
 20
-2187.576171875
 10
2732.08203125
 20
-2197.12890625
 10
2741.634765625
 20
-2206.681640625
 10
2751.1875
 20
-2216.234375
 10
2760.740234375
 20
-2225.787109375
 10
2770.29296875
 20
-2235.33984375
 10
2779.845703125
 20
-2244.892578125
 10
2789.3984375
 20
-2254.4453125
 10
2789.3984375
 20
-2263.998046875
 10
2798.951171875
 20
-2273.55078125
 10
2798.951171875
 20
-2283.103515625
 10
2808.50390625
 20
-2292.65625
 10
2808.50390625
 20
-2302.208984375
 10
2808.50390625
 20
-2311.76171875
 10
2808.50390625
 20
-2321.314453125
 10
2808.50390625
 20
-2330.8671875
 10
2818.056640625
 20
-2340.419921875
 10
2818.056640625
 20
-2349.97265625
 10
2818.056640625
 20
-2359.525390625
 10
2818.056640625
 20
-2369.078125
 10
2818.056640625
 20
-2378.630859375
 10
2827.609375
 20
-2388.18359375
 10
2827.609375
 20
-2397.736328125
 10
2827.609375
 20
-2407.2890625
 10
2827.609375
 20
-2416.841796875
 10
2827.609375
 20
-2426.39453125
 10
2827.609375
 20
-2435.947265625
 10
2837.162109375
 20
-2445.5
 10
2837.162109375
 20
-2455.052734375
 10
2837.162109375
 20
-2464.60546875
 10
2837.162109375
 20
-2474.158203125
 10
2827.609375
 20
-2483.7109375
 10
2837.162109375
 20
-2493.263671875
 10
2827.609375
 20
-2502.81640625
 10
2827.609375
 20
-2512.369140625
 10
2818.056640625
 20
-2521.921875
 10
2827.609375
 20
-2531.474609375
 10
2818.056640625
 20
-2541.02734375
 10
2818.056640625
 20
-2550.580078125
 10
2818.056640625
 20
-2560.1328125
 10
2818.056640625
 20
-2569.685546875
 10
2808.50390625
 20
-2579.23828125
 10
2808.50390625
 20
-2588.791015625
 10
2798.951171875
 20
-2598.34375
 10
2798.951171875
 20
-2607.896484375
 10
2798.951171875
 20
-2617.44921875
 10
2789.3984375
 20
-2627.001953125
 10
2779.845703125
 20
-2636.5546875
 10
2779.845703125
 20
-2646.107421875
 10
2779.845703125
 20
-2655.66015625
 10
2770.29296875
 20
-2665.212890625
 10
2760.740234375
 20
-2674.765625
 10
2751.1875
 20
-2684.318359375
 10
2741.634765625
 20
-2693.87109375
 10
2732.08203125
 20
-2703.423828125
 10
2732.08203125
 20
-2712.9765625
 10
2722.529296875
 20
-2722.529296875
 10
2712.9765625
 20
-2722.529296875
 10
2703.423828125
 20
-2732.08203125
 10
2693.87109375
 20
-2741.634765625
 10
2684.318359375
 20
-2751.1875
 10
2674.765625
 20
-2760.740234375
 10
2665.212890625
 20
-2770.29296875
 10
2655.66015625
 20
-2770.29296875
 10
2646.107421875
 20
-2770.29296875
 10
2646.107421875
 20
-2779.845703125
 10
2636.5546875
 20
-2789.3984375
 10
2627.001953125
 20
-2789.3984375
 10
2617.44921875
 20
-2789.3984375
 10
2607.896484375
 20
-2798.951171875
 10
2598.34375
 20
-2798.951171875
 10
2588.791015625
 20
-2798.951171875
 10
2579.23828125
 20
-2808.50390625
 10
2569.685546875
 20
-2808.50390625
 10
2560.1328125
 20
-2818.056640625
 10
2550.580078125
 20
-2818.056640625
 10
2541.02734375
 20
-2818.056640625
 10
2531.474609375
 20
-2827.609375
 10
2521.921875
 20
-2827.609375
 10
2512.369140625
 20
-2818.056640625
 10
2502.81640625
 20
-2827.609375
 10
2493.263671875
 20
-2827.609375
 10
2483.7109375
 20
-2827.609375
 10
2474.158203125
 20
-2837.162109375
 10
2464.60546875
 20
-2837.162109375
 10
2455.052734375
 20
-2837.162109375
 10
2445.5
 20
-2837.162109375
 10
2435.947265625
 20
-2837.162109375
 10
2426.39453125
 20
-2837.162109375
 10
2416.841796875
 20
-2837.162109375
 10
2407.2890625
 20
-2837.162109375
 10
2397.736328125
 20
-2837.162109375
 10
2388.18359375
 20
-2827.609375
 10
2378.630859375
 20
-2837.162109375
 10
2369.078125
 20
-2827.609375
 10
2359.525390625
 20
-2827.609375
 10
2349.97265625
 20
-2827.609375
 10
2340.419921875
 20
-2818.056640625
 10
2330.8671875
 20
-2818.056640625
 10
2321.314453125
 20
-2818.056640625
 10
2311.76171875
 20
-2808.50390625
 10
2302.208984375
 20
-2808.50390625
 10
2292.65625
 20
-2798.951171875
 10
2283.103515625
 20
-2798.951171875
 10
2273.55078125
 20
-2798.951171875
 10
2263.998046875
 20
-2798.951171875
 10
2254.4453125
 20
-2798.951171875
 10
2244.892578125
 20
-2789.3984375
 10
2244.892578125
 20
-2779.845703125
 10
2235.33984375
 20
-2779.845703125
 10
2225.787109375
 20
-2770.29296875
 10
2216.234375
 20
-2770.29296875
 10
2206.681640625
 20
-2760.740234375
 10
2197.12890625
 20
-2751.1875
 10
2187.576171875
 20
-2741.634765625
 10
2178.0234375
 20
-2732.08203125
 10
2168.470703125
 20
-2722.529296875
 10
2158.91796875
 20
-2712.9765625
 10
2149.365234375
 20
-2703.423828125
 10
2149.365234375
 20
-2693.87109375
 10
2139.8125
 20
-2693.87109375
 10
2130.259765625
 20
-2684.318359375
 10
2130.259765625
 20
-2674.765625
 10
2120.70703125
 20
-2665.212890625
 10
2111.154296875
 20
-2655.66015625
 10
2111.154296875
 20
-2646.107421875
 10
2101.6015625
 20
-2636.5546875
 10
2092.048828125
 20
-2627.001953125
 10
2092.048828125
 20
-2617.44921875
 10
2092.048828125
 20
-2607.896484375
 10
2082.49609375
 20
-2598.34375
 10
2082.49609375
 20
-2588.791015625
 10
2072.943359375
 20
-2579.23828125
 10
2072.943359375
 20
-2569.685546875
 10
2072.943359375
 20
-2560.1328125
 10
2063.390625
 20
-2550.580078125
 10
2063.390625
 20
-2541.02734375
 10
2053.837890625
 20
-2531.474609375
 10
2053.837890625
 20
-2521.921875
 10
2053.837890625
 20
-2512.369140625
 10
2053.837890625
 20
-2502.81640625
 10
2053.837890625
 20
-2493.263671875
 10
2053.837890625
 20
-2483.7109375
 10
2053.837890625
 20
-2474.158203125
 10
2053.837890625
 20
-2464.60546875
 10
2044.28515625
 20
-2455.052734375
 10
2053.837890625
 20
-2445.5
 10
2053.837890625
 20
-2435.947265625
 10
2044.28515625
 20
-2426.39453125
 10
2053.837890625
 20
-2416.841796875
 10
2053.837890625
 20
-2407.2890625
 10
2053.837890625
 20
-2397.736328125
 10
2053.837890625
 20
-2388.18359375
 10
2053.837890625
 20
-2378.630859375
 10
2063.390625
 20
-2369.078125
 10
2063.390625
 20
-2359.525390625
 10
2072.943359375
 20
-2349.97265625
 10
2072.943359375
 20
-2340.419921875
 10
2072.943359375
 20
-2330.8671875
 10
2072.943359375
 20
-2321.314453125
 10
2082.49609375
 20
-2311.76171875
 10
2082.49609375
 20
-2302.208984375
 10
2082.49609375
 20
-2292.65625
 10
2092.048828125
 20
-2283.103515625
 10
2092.048828125
 20
-2273.55078125
 10
2101.6015625
 20
-2263.998046875
 10
2101.6015625
 20
-2254.4453125
 10
2111.154296875
 20
-2244.892578125
 10
2120.70703125
 20
-2235.33984375
 10
2120.70703125
 20
-2225.787109375
 10
2130.259765625
 20
-2216.234375
 10
2139.8125
 20
-2206.681640625
 10
2149.365234375
 20
-2197.12890625
 10
2149.365234375
 20
-2187.576171875
 10
2158.91796875
 20
-2178.0234375
 10
2168.470703125
 20
-2168.470703125
 10
2178.0234375
 20
-2168.470703125
 10
2178.0234375
 20
-2158.91796875
 10
2187.576171875
 20
-2149.365234375
 10
2197.12890625
 20
-2139.8125
 10
2206.681640625
 20
-2130.259765625
 10
2216.234375
 20
-2120.70703125
 10
2225.787109375
 20
-2111.154296875
 10
2235.33984375
 20
-2111.154296875
 10
2244.892578125
 20
-2101.6015625
 10
2254.4453125
 20
-2101.6015625
 10
2263.998046875
 20
-2092.048828125
 10
2273.55078125
 20
-2092.048828125
 10
2283.103515625
 20
-2092.048828125
 10
2292.65625
 20
-2082.49609375
 10
2302.208984375
 20
-2072.943359375
 10
2311.76171875
 20
-2072.943359375
 10
2321.314453125
 20
-2072.943359375
 10
2330.8671875
 20
-2072.943359375
 10
2340.419921875
 20
-2063.390625
 10
2349.97265625
 20
-2063.390625
 10
2359.525390625
 20
-2063.390625
 10
2369.078125
 20
-2063.390625
 10
2378.630859375
 20
-2053.837890625
 10
2388.18359375
 20
-2063.390625
  0
ENDSEC
  0
SECTION
  2
OBJECTS
  0
DICTIONARY
  5
A
330
0
100
AcDbDictionary
280
0
281
1
  3
ACAD_COLOR
350
B
  3
ACAD_GROUP
350
C
  3
ACAD_LAYOUT
350
D
  3
ACAD_MATERIAL
350
E
  3
ACAD_MLEADERSTYLE
350
F
  3
ACAD_MLINESTYLE
350
10
  3
ACAD_PLOTSETTINGS
350
11
  3
ACAD_PLOTSTYLENAME
350
12
  3
ACAD_SCALELIST
350
14
  3
ACAD_TABLESTYLE
350
15
  3
ACAD_VISUALSTYLE
350
16
  3
EZDXF_META
350
2D
  0
DICTIONARY
  5
B
330
A
100
AcDbDictionary
280
0
281
1
  0
DICTIONARY
  5
C
330
A
100
AcDbDictionary
280
0
281
1
  0
DICTIONARY
  5
D
330
A
100
AcDbDictionary
280
0
281
1
  3
Model
350
1A
  3
Layout1
350
1E
  0
DICTIONARY
  5
E
330
A
100
AcDbDictionary
280
0
281
1
  3
ByBlock
350
1F
  3
ByLayer
350
20
  3
Global
350
21
  0
DICTIONARY
  5
F
330
A
100
AcDbDictionary
280
0
281
1
  3
Standard
350
2C
  0
DICTIONARY
  5
10
330
A
100
AcDbDictionary
280
0
281
1
  3
Standard
350
22
  0
DICTIONARY
  5
11
330
A
100
AcDbDictionary
280
0
281
1
  0
ACDBDICTIONARYWDFLT
  5
12
330
A
100
AcDbDictionary
280
0
281
1
  3
Normal
350
13
100
AcDbDictionaryWithDefault
340
13
  0
ACDBPLACEHOLDER
  5
13
330
12
  0
DICTIONARY
  5
14
330
A
100
AcDbDictionary
280
0
281
1
  0
DICTIONARY
  5
15
330
A
100
AcDbDictionary
280
0
281
1
  0
DICTIONARY
  5
16
330
A
100
AcDbDictionary
280
0
281
1
  0
LAYOUT
  5
1A
330
D
100
AcDbPlotSettings
  1

  2
Adobe PDF
  4
A3
  6

 40
7.5
 41
20.0
 42
7.5
 43
20.0
 44
420.0
 45
297.0
 46
0.0
 47
0.0
 48
0.0
 49
0.0
140
0.0
141
0.0
142
1.0
143
1.0
 70
1024
 72
1
 73
0
 74
5
  7

 75
16
 76
0
 77
2
 78
300
147
1.0
148
0.0
149
0.0
100
AcDbLayout
  1
Model
 70
1
 71
0
 10
0.0
 20
0.0
 11
420.0
 21
297.0
 12
0.0
 22
0.0
 32
0.0
 14
1e+20
 24
1e+20
 34
1e+20
 15
-1e+20
 25
-1e+20
 35
-1e+20
146
0.0
 13
0.0
 23
0.0
 33
0.0
 16
1.0
 26
0.0
 36
0.0
 17
0.0
 27
1.0
 37
0.0
 76
1
330
17
  0
LAYOUT
  5
1E
330
D
100
AcDbPlotSettings
  1

  2
Adobe PDF
  4
A3
  6

 40
7.5
 41
20.0
 42
7.5
 43
20.0
 44
420.0
 45
297.0
 46
0.0
 47
0.0
 48
0.0
 49
0.0
140
0.0
141
0.0
142
1.0
143
1.0
 70
0
 72
1
 73
0
 74
5
  7

 75
16
 76
0
 77
2
 78
300
147
1.0
148
0.0
149
0.0
100
AcDbLayout
  1
Layout1
 70
1
 71
1
 10
0.0
 20
0.0
 11
420.0
 21
297.0
 12
0.0
 22
0.0
 32
0.0
 14
1e+20
 24
1e+20
 34
1e+20
 15
-1e+20
 25
-1e+20
 35
-1e+20
146
0.0
 13
0.0
 23
0.0
 33
0.0
 16
1.0
 26
0.0
 36
0.0
 17
0.0
 27
1.0
 37
0.0
 76
1
330
1B
  0
MATERIAL
  5
1F
102
{ACAD_REACTORS
330
E
102
}
330
E
100
AcDbMaterial
  1
ByBlock
  2

 70
0
 40
1.0
 71
1
 41
1.0
 91
-1023410177
 42
1.0
 72
1
  3

 73
1
 74
1
 75
1
 44
0.5
 73
0
 45
1.0
 46
1.0
 77
1
  4

 78
1
 79
1
170
1
 48
1.0
171
1
  6

172
1
173
1
174
1
140
1.0
141
1.0
175
1
  7

176
1
177
1
178
1
143
1.0
179
1
  8

270
1
271
1
272
1
145
1.0
146
1.0
273
1
  9

274
1
275
1
276
1
 42
1.0
 72
1
  3

 73
1
 74
1
 75
1
 94
63
  0
MATERIAL
  5
20
102
{ACAD_REACTORS
330
E
102
}
330
E
100
AcDbMaterial
  1
ByLayer
  2

 70
0
 40
1.0
 71
1
 41
1.0
 91
-1023410177
 42
1.0
 72
1
  3

 73
1
 74
1
 75
1
 44
0.5
 73
0
 45
1.0
 46
1.0
 77
1
  4

 78
1
 79
1
170
1
 48
1.0
171
1
  6

172
1
173
1
174
1
140
1.0
141
1.0
175
1
  7

176
1
177
1
178
1
143
1.0
179
1
  8

270
1
271
1
272
1
145
1.0
146
1.0
273
1
  9

274
1
275
1
276
1
 42
1.0
 72
1
  3

 73
1
 74
1
 75
1
 94
63
  0
MATERIAL
  5
21
102
{ACAD_REACTORS
330
E
102
}
330
E
100
AcDbMaterial
  1
Global
  2

 70
0
 40
1.0
 71
1
 41
1.0
 91
-1023410177
 42
1.0
 72
1
  3

 73
1
 74
1
 75
1
 44
0.5
 73
0
 45
1.0
 46
1.0
 77
1
  4

 78
1
 79
1
170
1
 48
1.0
171
1
  6

172
1
173
1
174
1
140
1.0
141
1.0
175
1
  7

176
1
177
1
178
1
143
1.0
179
1
  8

270
1
271
1
272
1
145
1.0
146
1.0
273
1
  9

274
1
275
1
276
1
 42
1.0
 72
1
  3

 73
1
 74
1
 75
1
 94
63
  0
MLINESTYLE
  5
22
102
{ACAD_REACTORS
330
10
102
}
330
10
100
AcDbMlineStyle
  2
Standard
 70
0
  3

 62
256
 51
90.0
 52
90.0
 71
2
 49
0.5
 62
256
  6
BYLAYER
 49
-0.5
 62
256
  6
BYLAYER
  0
MLEADERSTYLE
  5
2C
102
{ACAD_REACTORS
330
F
102
}
330
F
100
AcDbMLeaderStyle
179
2
170
2
171
1
172
0
 90
2
 40
0.0
 41
0.0
173
1
 91
-1056964608
 92
-2
290
1
 42
2.0
291
1
 43
8.0
  3
Standard
 44
4.0
300

342
29
174
1
175
1
176
0
178
1
 93
-1056964608
 45
4.0
292
0
297
0
 46
4.0
 94
-1056964608
 47
1.0
 49
1.0
140
1.0
294
1
141
0.0
177
0
142
1.0
295
0
296
0
143
3.75
271
0
272
9
273
9
  0
DICTIONARY
  5
2D
330
A
100
AcDbDictionary
281
1
  3
CREATED_BY_EZDXF
350
2E
  3
WRITTEN_BY_EZDXF
350
3D
  0
DICTIONARYVAR
  5
2E
330
2D
100
DictionaryVariables
280
0
  1
1.1.0 @ 2025-02-03T01:26:39.973275+00:00
  0
DICTIONARYVAR
  5
3D
330
2D
100
DictionaryVariables
280
0
  1
1.1.0 @ 2025-02-03T01:26:39.978249+00:00
  0
ENDSEC
  0
EOF
