  0
SECTION
  2
HEADER
  9
$ACADVER
  1
AC1027
  9
$ACADMAINTVER
 70
105
  9
$DWGCODEPAGE
  3
ANSI_1252
  9
$LASTSAVEDBY
  1
ezdxf
  9
$REQUIREDVERSIONS
160
0
  9
$INSBASE
 10
0.0
 20
0.0
 30
0.0
  9
$EXTMIN
 10
1e+20
 20
1e+20
 30
1e+20
  9
$EXTMAX
 10
-1e+20
 20
-1e+20
 30
-1e+20
  9
$LIMMIN
 10
0.0
 20
0.0
  9
$LIMMAX
 10
420.0
 20
297.0
  9
$ORTHOMODE
 70
0
  9
$REGENMODE
 70
1
  9
$FILLMODE
 70
1
  9
$QTEXTMODE
 70
0
  9
$MIRRTEXT
 70
1
  9
$LTSCALE
 40
1.0
  9
$ATTMODE
 70
1
  9
$TEXTSIZE
 40
2.5
  9
$TRACEWID
 40
1.0
  9
$TEXTSTYLE
  7
Standard
  9
$CLAYER
  8
0
  9
$CELTYPE
  6
ByLayer
  9
$CECOLOR
 62
256
  9
$CELTSCALE
 40
1.0
  9
$DISPSILH
 70
0
  9
$DIMSCALE
 40
1.0
  9
$DIMASZ
 40
2.5
  9
$DIMEXO
 40
0.625
  9
$DIMDLI
 40
3.75
  9
$DIMRND
 40
0.0
  9
$DIMDLE
 40
0.0
  9
$DIMEXE
 40
1.25
  9
$DIMTP
 40
0.0
  9
$DIMTM
 40
0.0
  9
$DIMTXT
 40
2.5
  9
$DIMCEN
 40
2.5
  9
$DIMTSZ
 40
0.0
  9
$DIMTOL
 70
0
  9
$DIMLIM
 70
0
  9
$DIMTIH
 70
0
  9
$DIMTOH
 70
0
  9
$DIMSE1
 70
0
  9
$DIMSE2
 70
0
  9
$DIMTAD
 70
1
  9
$DIMZIN
 70
8
  9
$DIMBLK
  1

  9
$DIMASO
 70
1
  9
$DIMSHO
 70
1
  9
$DIMPOST
  1

  9
$DIMAPOST
  1

  9
$DIMALT
 70
0
  9
$DIMALTD
 70
3
  9
$DIMALTF
 40
0.03937007874
  9
$DIMLFAC
 40
1.0
  9
$DIMTOFL
 70
1
  9
$DIMTVP
 40
0.0
  9
$DIMTIX
 70
0
  9
$DIMSOXD
 70
0
  9
$DIMSAH
 70
0
  9
$DIMBLK1
  1

  9
$DIMBLK2
  1

  9
$DIMSTYLE
  2
ISO-25
  9
$DIMCLRD
 70
0
  9
$DIMCLRE
 70
0
  9
$DIMCLRT
 70
0
  9
$DIMTFAC
 40
1.0
  9
$DIMGAP
 40
0.625
  9
$DIMJUST
 70
0
  9
$DIMSD1
 70
0
  9
$DIMSD2
 70
0
  9
$DIMTOLJ
 70
0
  9
$DIMTZIN
 70
8
  9
$DIMALTZ
 70
0
  9
$DIMALTTZ
 70
0
  9
$DIMUPT
 70
0
  9
$DIMDEC
 70
2
  9
$DIMTDEC
 70
2
  9
$DIMALTU
 70
2
  9
$DIMALTTD
 70
3
  9
$DIMTXSTY
  7
Standard
  9
$DIMAUNIT
 70
0
  9
$DIMADEC
 70
0
  9
$DIMALTRND
 40
0.0
  9
$DIMAZIN
 70
0
  9
$DIMDSEP
 70
44
  9
$DIMATFIT
 70
3
  9
$DIMFRAC
 70
0
  9
$DIMLDRBLK
  1

  9
$DIMLUNIT
 70
2
  9
$DIMLWD
 70
-2
  9
$DIMLWE
 70
-2
  9
$DIMTMOVE
 70
0
  9
$DIMFXL
 40
1.0
  9
$DIMFXLON
 70
0
  9
$DIMJOGANG
 40
0.785398163397
  9
$DIMTFILL
 70
0
  9
$DIMTFILLCLR
 70
0
  9
$DIMARCSYM
 70
0
  9
$DIMLTYPE
  6

  9
$DIMLTEX1
  6

  9
$DIMLTEX2
  6

  9
$DIMTXTDIRECTION
 70
0
  9
$LUNITS
 70
2
  9
$LUPREC
 70
4
  9
$SKETCHINC
 40
1.0
  9
$FILLETRAD
 40
10.0
  9
$AUNITS
 70
0
  9
$AUPREC
 70
2
  9
$MENU
  1
.
  9
$ELEVATION
 40
0.0
  9
$PELEVATION
 40
0.0
  9
$THICKNESS
 40
0.0
  9
$LIMCHECK
 70
0
  9
$CHAMFERA
 40
0.0
  9
$CHAMFERB
 40
0.0
  9
$CHAMFERC
 40
0.0
  9
$CHAMFERD
 40
0.0
  9
$SKPOLY
 70
0
  9
$TDCREATE
 40
2460677.9231828703
  9
$TDUCREATE
 40
2458532.153996898
  9
$TDUPDATE
 40
2460677.9231828703
  9
$TDUUPDATE
 40
2458532.1544311
  9
$TDINDWG
 40
0.0
  9
$TDUSRTIMER
 40
0.0
  9
$USRTIMER
 70
1
  9
$ANGBASE
 50
0.0
  9
$ANGDIR
 70
0
  9
$PDMODE
 70
0
  9
$PDSIZE
 40
0.0
  9
$PLINEWID
 40
0.0
  9
$SPLFRAME
 70
0
  9
$SPLINETYPE
 70
6
  9
$SPLINESEGS
 70
8
  9
$HANDSEED
  5
6C
  9
$SURFTAB1
 70
6
  9
$SURFTAB2
 70
6
  9
$SURFTYPE
 70
6
  9
$SURFU
 70
6
  9
$SURFV
 70
6
  9
$UCSBASE
  2

  9
$UCSNAME
  2

  9
$UCSORG
 10
0.0
 20
0.0
 30
0.0
  9
$UCSXDIR
 10
1.0
 20
0.0
 30
0.0
  9
$UCSYDIR
 10
0.0
 20
1.0
 30
0.0
  9
$UCSORTHOREF
  2

  9
$UCSORTHOVIEW
 70
0
  9
$UCSORGTOP
 10
0.0
 20
0.0
 30
0.0
  9
$UCSORGBOTTOM
 10
0.0
 20
0.0
 30
0.0
  9
$UCSORGLEFT
 10
0.0
 20
0.0
 30
0.0
  9
$UCSORGRIGHT
 10
0.0
 20
0.0
 30
0.0
  9
$UCSORGFRONT
 10
0.0
 20
0.0
 30
0.0
  9
$UCSORGBACK
 10
0.0
 20
0.0
 30
0.0
  9
$PUCSBASE
  2

  9
$PUCSNAME
  2

  9
$PUCSORG
 10
0.0
 20
0.0
 30
0.0
  9
$PUCSXDIR
 10
1.0
 20
0.0
 30
0.0
  9
$PUCSYDIR
 10
0.0
 20
1.0
 30
0.0
  9
$PUCSORTHOREF
  2

  9
$PUCSORTHOVIEW
 70
0
  9
$PUCSORGTOP
 10
0.0
 20
0.0
 30
0.0
  9
$PUCSORGBOTTOM
 10
0.0
 20
0.0
 30
0.0
  9
$PUCSORGLEFT
 10
0.0
 20
0.0
 30
0.0
  9
$PUCSORGRIGHT
 10
0.0
 20
0.0
 30
0.0
  9
$PUCSORGFRONT
 10
0.0
 20
0.0
 30
0.0
  9
$PUCSORGBACK
 10
0.0
 20
0.0
 30
0.0
  9
$USERI1
 70
0
  9
$USERI2
 70
0
  9
$USERI3
 70
0
  9
$USERI4
 70
0
  9
$USERI5
 70
0
  9
$USERR1
 40
0.0
  9
$USERR2
 40
0.0
  9
$USERR3
 40
0.0
  9
$USERR4
 40
0.0
  9
$USERR5
 40
0.0
  9
$WORLDVIEW
 70
1
  9
$SHADEDGE
 70
3
  9
$SHADEDIF
 70
70
  9
$TILEMODE
 70
1
  9
$MAXACTVP
 70
64
  9
$PINSBASE
 10
0.0
 20
0.0
 30
0.0
  9
$PLIMCHECK
 70
0
  9
$PEXTMIN
 10
1e+20
 20
1e+20
 30
1e+20
  9
$PEXTMAX
 10
-1e+20
 20
-1e+20
 30
-1e+20
  9
$PLIMMIN
 10
0.0
 20
0.0
  9
$PLIMMAX
 10
420.0
 20
297.0
  9
$UNITMODE
 70
0
  9
$VISRETAIN
 70
1
  9
$PLINEGEN
 70
0
  9
$PSLTSCALE
 70
1
  9
$TREEDEPTH
 70
3020
  9
$CMLSTYLE
  2
Standard
  9
$CMLJUST
 70
0
  9
$CMLSCALE
 40
20.0
  9
$PROXYGRAPHICS
 70
1
  9
$MEASUREMENT
 70
1
  9
$CELWEIGHT
370
-1
  9
$ENDCAPS
280
0
  9
$JOINSTYLE
280
0
  9
$LWDISPLAY
290
0
  9
$INSUNITS
 70
6
  9
$HYPERLINKBASE
  1

  9
$STYLESHEET
  1

  9
$XEDIT
290
1
  9
$CEPSNTYPE
380
0
  9
$PSTYLEMODE
290
1
  9
$FINGERPRINTGUID
  2
{81CD2607-D49C-4A16-B9D7-452839797F70}
  9
$VERSIONGUID
  2
{CD62C8B3-5D12-41E4-B518-AA3A99ED4D3D}
  9
$EXTNAMES
290
1
  9
$PSVPSCALE
 40
0.0
  9
$OLESTARTUP
290
0
  9
$SORTENTS
280
127
  9
$INDEXCTL
280
0
  9
$HIDETEXT
280
1
  9
$XCLIPFRAME
280
0
  9
$HALOGAP
280
0
  9
$OBSCOLOR
 70
257
  9
$OBSLTYPE
280
0
  9
$INTERSECTIONDISPLAY
280
0
  9
$INTERSECTIONCOLOR
 70
257
  9
$DIMASSOC
280
2
  9
$PROJECTNAME
  1

  9
$CAMERADISPLAY
290
0
  9
$LENSLENGTH
 40
50.0
  9
$CAMERAHEIGHT
 40
0.0
  9
$STEPSPERSEC
 40
24.0
  9
$STEPSIZE
 40
100.0
  9
$3DDWFPREC
 40
2.0
  9
$PSOLWIDTH
 40
0.005
  9
$PSOLHEIGHT
 40
0.08
  9
$LOFTANG1
 40
1.570796326795
  9
$LOFTANG2
 40
1.570796326795
  9
$LOFTMAG1
 40
0.0
  9
$LOFTMAG2
 40
0.0
  9
$LOFTPARAM
 70
7
  9
$LOFTNORMALS
280
1
  9
$LATITUDE
 40
37.795
  9
$LONGITUDE
 40
-122.394
  9
$NORTHDIRECTION
 40
0.0
  9
$TIMEZONE
 70
-8000
  9
$LIGHTGLYPHDISPLAY
280
1
  9
$TILEMODELIGHTSYNCH
280
1
  9
$CMATERIAL
347
20
  9
$SOLIDHIST
280
0
  9
$SHOWHIST
280
1
  9
$DWFFRAME
280
2
  9
$DGNFRAME
280
2
  9
$REALWORLDSCALE
290
1
  9
$INTERFERECOLOR
 62
256
  9
$CSHADOW
280
0
  9
$SHADOWPLANELOCATION
 40
0.0
  0
ENDSEC
  0
SECTION
  2
CLASSES
  0
CLASS
  1
ACDBDICTIONARYWDFLT
  2
AcDbDictionaryWithDefault
  3
ObjectDBX Classes
 90
0
 91
0
280
0
281
0
  0
CLASS
  1
SUN
  2
AcDbSun
  3
SCENEOE
 90
1153
 91
0
280
0
281
0
  0
CLASS
  1
VISUALSTYLE
  2
AcDbVisualStyle
  3
ObjectDBX Classes
 90
4095
 91
0
280
0
281
0
  0
CLASS
  1
MATERIAL
  2
AcDbMaterial
  3
ObjectDBX Classes
 90
1153
 91
0
280
0
281
0
  0
CLASS
  1
SCALE
  2
AcDbScale
  3
ObjectDBX Classes
 90
1153
 91
0
280
0
281
0
  0
CLASS
  1
TABLESTYLE
  2
AcDbTableStyle
  3
ObjectDBX Classes
 90
4095
 91
0
280
0
281
0
  0
CLASS
  1
MLEADERSTYLE
  2
AcDbMLeaderStyle
  3
ACDB_MLEADERSTYLE_CLASS
 90
4095
 91
0
280
0
281
0
  0
CLASS
  1
DICTIONARYVAR
  2
AcDbDictionaryVar
  3
ObjectDBX Classes
 90
0
 91
0
280
0
281
0
  0
CLASS
  1
CELLSTYLEMAP
  2
AcDbCellStyleMap
  3
ObjectDBX Classes
 90
1152
 91
0
280
0
281
0
  0
CLASS
  1
MENTALRAYRENDERSETTINGS
  2
AcDbMentalRayRenderSettings
  3
SCENEOE
 90
1024
 91
0
280
0
281
0
  0
CLASS
  1
ACDBDETAILVIEWSTYLE
  2
AcDbDetailViewStyle
  3
ObjectDBX Classes
 90
1025
 91
0
280
0
281
0
  0
CLASS
  1
ACDBSECTIONVIEWSTYLE
  2
AcDbSectionViewStyle
  3
ObjectDBX Classes
 90
1025
 91
0
280
0
281
0
  0
CLASS
  1
RASTERVARIABLES
  2
AcDbRasterVariables
  3
ISM
 90
0
 91
0
280
0
281
0
  0
CLASS
  1
ACDBPLACEHOLDER
  2
AcDbPlaceHolder
  3
ObjectDBX Classes
 90
0
 91
0
280
0
281
0
  0
CLASS
  1
LAYOUT
  2
AcDbLayout
  3
ObjectDBX Classes
 90
0
 91
0
280
0
281
0
  0
ENDSEC
  0
SECTION
  2
TABLES
  0
TABLE
  2
VPORT
  5
8
330
0
100
AcDbSymbolTable
 70
1
  0
VPORT
  5
23
330
8
100
AcDbSymbolTableRecord
100
AcDbViewportTableRecord
  2
*Active
 70
0
 10
0.0
 20
0.0
 11
1.0
 21
1.0
 12
0.0
 22
0.0
 13
0.0
 23
0.0
 14
0.5
 24
0.5
 15
0.5
 25
0.5
 16
0.0
 26
0.0
 36
1.0
 17
0.0
 27
0.0
 37
0.0
 40
1000.0
 41
1.34
 42
50.0
 43
0.0
 44
0.0
 50
0.0
 51
0.0
 71
0
 72
1000
 73
1
 74
3
 75
0
 76
0
 77
0
 78
0
281
0
 65
0
146
0.0
  0
ENDTAB
  0
TABLE
  2
LTYPE
  5
2
330
0
100
AcDbSymbolTable
 70
3
  0
LTYPE
  5
24
330
2
100
AcDbSymbolTableRecord
100
AcDbLinetypeTableRecord
  2
ByBlock
 70
0
  3

 72
65
 73
0
 40
0.0
  0
LTYPE
  5
25
330
2
100
AcDbSymbolTableRecord
100
AcDbLinetypeTableRecord
  2
ByLayer
 70
0
  3

 72
65
 73
0
 40
0.0
  0
LTYPE
  5
26
330
2
100
AcDbSymbolTableRecord
100
AcDbLinetypeTableRecord
  2
Continuous
 70
0
  3

 72
65
 73
0
 40
0.0
  0
ENDTAB
  0
TABLE
  2
LAYER
  5
1
330
0
100
AcDbSymbolTable
 70
5
  0
LAYER
  5
27
330
1
100
AcDbSymbolTableRecord
100
AcDbLayerTableRecord
  2
0
 70
0
 62
7
  6
Continuous
370
-3
390
13
347
21
  0
LAYER
  5
28
330
1
100
AcDbSymbolTableRecord
100
AcDbLayerTableRecord
  2
Defpoints
 70
0
 62
7
  6
Continuous
290
0
370
-3
390
13
347
21
  0
LAYER
  5
2F
330
1
100
AcDbSymbolTableRecord
100
AcDbLayerTableRecord
  2
conductor
 70
0
 62
1
  6
Continuous
370
-3
390
13
347
21
  0
LAYER
  5
30
330
1
100
AcDbSymbolTableRecord
100
AcDbLayerTableRecord
  2
dielectric
 70
0
 62
8
  6
Continuous
370
-3
390
13
347
21
  0
LAYER
  5
31
330
1
100
AcDbSymbolTableRecord
100
AcDbLayerTableRecord
  2
substrate
 70
0
 62
5
  6
Continuous
370
-3
390
13
347
21
  0
ENDTAB
  0
TABLE
  2
STYLE
  5
5
330
0
100
AcDbSymbolTable
 70
1
  0
STYLE
  5
29
330
5
100
AcDbSymbolTableRecord
100
AcDbTextStyleTableRecord
  2
Standard
 70
0
 40
0.0
 41
1.0
 50
0.0
 71
0
 42
2.5
  3
txt
  4

  0
ENDTAB
  0
TABLE
  2
VIEW
  5
7
330
0
100
AcDbSymbolTable
 70
0
  0
ENDTAB
  0
TABLE
  2
UCS
  5
6
330
0
100
AcDbSymbolTable
 70
0
  0
ENDTAB
  0
TABLE
  2
APPID
  5
3
330
0
100
AcDbSymbolTable
 70
3
  0
APPID
  5
2A
330
3
100
AcDbSymbolTableRecord
100
AcDbRegAppTableRecord
  2
ACAD
 70
0
  0
APPID
  5
69
330
3
100
AcDbSymbolTableRecord
100
AcDbRegAppTableRecord
  2
HATCHBACKGROUNDCOLOR
 70
0
  0
APPID
  5
6A
330
3
100
AcDbSymbolTableRecord
100
AcDbRegAppTableRecord
  2
EZDXF
 70
0
  0
ENDTAB
  0
TABLE
  2
DIMSTYLE
  5
4
330
0
100
AcDbSymbolTable
 70
1
100
AcDbDimStyleTable
  0
DIMSTYLE
105
2B
330
4
100
AcDbSymbolTableRecord
100
AcDbDimStyleTableRecord
  2
Standard
 70
0
 40
1.0
 41
2.5
 42
0.625
 43
3.75
 44
1.25
 45
0.0
 46
0.0
 47
0.0
 48
0.0
 49
2.5
140
2.5
141
2.5
142
0.0
143
0.03937007874
144
1.0
145
0.0
146
1.0
147
0.625
148
0.0
 69
0
 70
0
 71
0
 72
0
 73
0
 74
0
 75
0
 76
0
 77
1
 78
8
 79
3
170
0
171
3
172
1
173
0
174
0
175
0
176
0
177
0
178
0
179
2
271
2
272
2
273
2
274
3
275
0
276
0
277
2
278
44
279
0
280
0
281
0
282
0
283
0
284
8
285
0
286
0
288
0
289
3
290
0
371
-2
372
-2
  0
ENDTAB
  0
TABLE
  2
BLOCK_RECORD
  5
9
330
0
100
AcDbSymbolTable
 70
2
  0
BLOCK_RECORD
  5
17
330
9
100
AcDbSymbolTableRecord
100
AcDbBlockTableRecord
  2
*Model_Space
340
1A
 70
0
280
1
281
0
  0
BLOCK_RECORD
  5
1B
330
9
100
AcDbSymbolTableRecord
100
AcDbBlockTableRecord
  2
*Paper_Space
340
1E
 70
0
280
1
281
0
  0
ENDTAB
  0
ENDSEC
  0
SECTION
  2
BLOCKS
  0
BLOCK
  5
18
330
17
100
AcDbEntity
  8
0
100
AcDbBlockBegin
  2
*Model_Space
 70
0
 10
0.0
 20
0.0
 30
0.0
  3
*Model_Space
  1

  0
ENDBLK
  5
19
330
17
100
AcDbEntity
  8
0
100
AcDbBlockEnd
  0
BLOCK
  5
1C
330
1B
100
AcDbEntity
  8
0
100
AcDbBlockBegin
  2
*Paper_Space
 70
0
 10
0.0
 20
0.0
 30
0.0
  3
*Paper_Space
  1

  0
ENDBLK
  5
1D
330
1B
100
AcDbEntity
  8
0
100
AcDbBlockEnd
  0
ENDSEC
  0
SECTION
  2
ENTITIES
  0
LWPOLYLINE
  5
32
330
17
100
AcDbEntity
  8
conductor
100
AcDbPolyline
 90
1
 70
1
 43
0.5
 10
2816.044921875
 20
-2312.12109375
  0
LWPOLYLINE
  5
33
330
17
100
AcDbEntity
  8
conductor
100
AcDbPolyline
 90
1
 70
1
 43
0.5
 10
2272.59765625
 20
-2262.716796875
  0
LWPOLYLINE
  5
34
330
17
100
AcDbEntity
  8
conductor
100
AcDbPolyline
 90
254
 70
1
 43
0.5
 10
2470.21484375
 20
-2223.193359375
 10
2470.21484375
 20
-2233.07421875
 10
2460.333984375
 20
-2242.955078125
 10
2450.453125
 20
-2242.955078125
 10
2440.572265625
 20
-2242.955078125
 10
2430.69140625
 20
-2242.955078125
 10
2420.810546875
 20
-2242.955078125
 10
2410.9296875
 20
-2242.955078125
 10
2401.048828125
 20
-2252.8359375
 10
2391.16796875
 20
-2242.955078125
 10
2401.048828125
 20
-2252.8359375
 10
2391.16796875
 20
-2262.716796875
 10
2381.287109375
 20
-2272.59765625
 10
2371.40625
 20
-2262.716796875
 10
2361.525390625
 20
-2252.8359375
 10
2351.64453125
 20
-2242.955078125
 10
2341.763671875
 20
-2252.8359375
 10
2331.8828125
 20
-2242.955078125
 10
2322.001953125
 20
-2252.8359375
 10
2312.12109375
 20
-2242.955078125
 10
2302.240234375
 20
-2252.8359375
 10
2292.359375
 20
-2262.716796875
 10
2292.359375
 20
-2272.59765625
 10
2292.359375
 20
-2282.478515625
 10
2282.478515625
 20
-2292.359375
 10
2272.59765625
 20
-2282.478515625
 10
2262.716796875
 20
-2292.359375
 10
2252.8359375
 20
-2292.359375
 10
2252.8359375
 20
-2302.240234375
 10
2252.8359375
 20
-2312.12109375
 10
2252.8359375
 20
-2322.001953125
 10
2242.955078125
 20
-2331.8828125
 10
2233.07421875
 20
-2322.001953125
 10
2233.07421875
 20
-2312.12109375
 10
2233.07421875
 20
-2322.001953125
 10
2242.955078125
 20
-2331.8828125
 10
2233.07421875
 20
-2341.763671875
 10
2223.193359375
 20
-2351.64453125
 10
2213.3125
 20
-2351.64453125
 10
2203.431640625
 20
-2351.64453125
 10
2213.3125
 20
-2361.525390625
 10
2203.431640625
 20
-2371.40625
 10
2193.55078125
 20
-2371.40625
 10
2193.55078125
 20
-2381.287109375
 10
2183.669921875
 20
-2391.16796875
 10
2173.7890625
 20
-2401.048828125
 10
2163.908203125
 20
-2410.9296875
 10
2173.7890625
 20
-2420.810546875
 10
2183.669921875
 20
-2430.69140625
 10
2173.7890625
 20
-2440.572265625
 10
2163.908203125
 20
-2450.453125
 10
2173.7890625
 20
-2460.333984375
 10
2173.7890625
 20
-2470.21484375
 10
2173.7890625
 20
-2480.095703125
 10
2163.908203125
 20
-2489.9765625
 10
2154.02734375
 20
-2480.095703125
 10
2144.146484375
 20
-2489.9765625
 10
2154.02734375
 20
-2480.095703125
 10
2163.908203125
 20
-2489.9765625
 10
2173.7890625
 20
-2499.857421875
 10
2163.908203125
 20
-2509.73828125
 10
2154.02734375
 20
-2519.619140625
 10
2163.908203125
 20
-2529.5
 10
2154.02734375
 20
-2539.380859375
 10
2163.908203125
 20
-2549.26171875
 10
2154.02734375
 20
-2559.142578125
 10
2163.908203125
 20
-2569.0234375
 10
2173.7890625
 20
-2578.904296875
 10
2173.7890625
 20
-2588.78515625
 10
2173.7890625
 20
-2598.666015625
 10
2163.908203125
 20
-2608.546875
 10
2173.7890625
 20
-2618.427734375
 10
2173.7890625
 20
-2628.30859375
 10
2173.7890625
 20
-2638.189453125
 10
2163.908203125
 20
-2648.0703125
 10
2173.7890625
 20
-2657.951171875
 10
2183.669921875
 20
-2667.83203125
 10
2193.55078125
 20
-2677.712890625
 10
2203.431640625
 20
-2687.59375
 10
2213.3125
 20
-2697.474609375
 10
2203.431640625
 20
-2707.35546875
 10
2213.3125
 20
-2707.35546875
 10
2223.193359375
 20
-2707.35546875
 10
2233.07421875
 20
-2717.236328125
 10
2242.955078125
 20
-2727.1171875
 10
2242.955078125
 20
-2736.998046875
 10
2242.955078125
 20
-2746.87890625
 10
2252.8359375
 20
-2756.759765625
 10
2242.955078125
 20
-2766.640625
 10
2252.8359375
 20
-2776.521484375
 10
2262.716796875
 20
-2776.521484375
 10
2272.59765625
 20
-2776.521484375
 10
2282.478515625
 20
-2786.40234375
 10
2292.359375
 20
-2796.283203125
 10
2282.478515625
 20
-2806.1640625
 10
2292.359375
 20
-2806.1640625
 10
2302.240234375
 20
-2796.283203125
 10
2312.12109375
 20
-2806.1640625
 10
2312.12109375
 20
-2816.044921875
 10
2322.001953125
 20
-2825.92578125
 10
2331.8828125
 20
-2825.92578125
 10
2341.763671875
 20
-2825.92578125
 10
2351.64453125
 20
-2835.806640625
 10
2361.525390625
 20
-2845.6875
 10
2371.40625
 20
-2855.568359375
 10
2381.287109375
 20
-2845.6875
 10
2391.16796875
 20
-2855.568359375
 10
2401.048828125
 20
-2845.6875
 10
2410.9296875
 20
-2835.806640625
 10
2420.810546875
 20
-2845.6875
 10
2430.69140625
 20
-2835.806640625
 10
2440.572265625
 20
-2845.6875
 10
2430.69140625
 20
-2835.806640625
 10
2440.572265625
 20
-2825.92578125
 10
2450.453125
 20
-2825.92578125
 10
2460.333984375
 20
-2835.806640625
 10
2460.333984375
 20
-2845.6875
 10
2470.21484375
 20
-2855.568359375
 10
2480.095703125
 20
-2845.6875
 10
2489.9765625
 20
-2845.6875
 10
2499.857421875
 20
-2845.6875
 10
2509.73828125
 20
-2845.6875
 10
2519.619140625
 20
-2845.6875
 10
2529.5
 20
-2835.806640625
 10
2539.380859375
 20
-2845.6875
 10
2549.26171875
 20
-2855.568359375
 10
2539.380859375
 20
-2865.44921875
 10
2529.5
 20
-2865.44921875
 10
2519.619140625
 20
-2865.44921875
 10
2529.5
 20
-2865.44921875
 10
2539.380859375
 20
-2865.44921875
 10
2549.26171875
 20
-2855.568359375
 10
2559.142578125
 20
-2865.44921875
 10
2569.0234375
 20
-2865.44921875
 10
2578.904296875
 20
-2865.44921875
 10
2588.78515625
 20
-2855.568359375
 10
2598.666015625
 20
-2845.6875
 10
2608.546875
 20
-2855.568359375
 10
2618.427734375
 20
-2845.6875
 10
2628.30859375
 20
-2845.6875
 10
2638.189453125
 20
-2845.6875
 10
2648.0703125
 20
-2835.806640625
 10
2657.951171875
 20
-2835.806640625
 10
2667.83203125
 20
-2835.806640625
 10
2677.712890625
 20
-2845.6875
 10
2667.83203125
 20
-2835.806640625
 10
2677.712890625
 20
-2825.92578125
 10
2687.59375
 20
-2825.92578125
 10
2687.59375
 20
-2816.044921875
 10
2697.474609375
 20
-2806.1640625
 10
2707.35546875
 20
-2796.283203125
 10
2717.236328125
 20
-2806.1640625
 10
2727.1171875
 20
-2796.283203125
 10
2736.998046875
 20
-2806.1640625
 10
2746.87890625
 20
-2796.283203125
 10
2756.759765625
 20
-2786.40234375
 10
2766.640625
 20
-2776.521484375
 10
2776.521484375
 20
-2766.640625
 10
2786.40234375
 20
-2756.759765625
 10
2796.283203125
 20
-2746.87890625
 10
2806.1640625
 20
-2736.998046875
 10
2816.044921875
 20
-2727.1171875
 10
2816.044921875
 20
-2717.236328125
 10
2816.044921875
 20
-2707.35546875
 10
2825.92578125
 20
-2697.474609375
 10
2816.044921875
 20
-2687.59375
 10
2825.92578125
 20
-2677.712890625
 10
2825.92578125
 20
-2667.83203125
 10
2825.92578125
 20
-2657.951171875
 10
2816.044921875
 20
-2648.0703125
 10
2825.92578125
 20
-2638.189453125
 10
2816.044921875
 20
-2628.30859375
 10
2825.92578125
 20
-2618.427734375
 10
2816.044921875
 20
-2608.546875
 10
2825.92578125
 20
-2598.666015625
 10
2835.806640625
 20
-2588.78515625
 10
2845.6875
 20
-2578.904296875
 10
2855.568359375
 20
-2569.0234375
 10
2865.44921875
 20
-2578.904296875
 10
2855.568359375
 20
-2569.0234375
 10
2865.44921875
 20
-2559.142578125
 10
2855.568359375
 20
-2569.0234375
 10
2845.6875
 20
-2559.142578125
 10
2835.806640625
 20
-2569.0234375
 10
2825.92578125
 20
-2559.142578125
 10
2816.044921875
 20
-2549.26171875
 10
2825.92578125
 20
-2539.380859375
 10
2816.044921875
 20
-2529.5
 10
2816.044921875
 20
-2519.619140625
 10
2816.044921875
 20
-2509.73828125
 10
2825.92578125
 20
-2499.857421875
 10
2816.044921875
 20
-2489.9765625
 10
2806.1640625
 20
-2480.095703125
 10
2816.044921875
 20
-2470.21484375
 10
2825.92578125
 20
-2460.333984375
 10
2835.806640625
 20
-2450.453125
 10
2825.92578125
 20
-2440.572265625
 10
2835.806640625
 20
-2430.69140625
 10
2845.6875
 20
-2430.69140625
 10
2845.6875
 20
-2420.810546875
 10
2835.806640625
 20
-2430.69140625
 10
2825.92578125
 20
-2420.810546875
 10
2816.044921875
 20
-2410.9296875
 10
2806.1640625
 20
-2401.048828125
 10
2816.044921875
 20
-2391.16796875
 10
2806.1640625
 20
-2381.287109375
 10
2796.283203125
 20
-2371.40625
 10
2806.1640625
 20
-2361.525390625
 10
2816.044921875
 20
-2351.64453125
 10
2806.1640625
 20
-2341.763671875
 10
2816.044921875
 20
-2331.8828125
 10
2806.1640625
 20
-2331.8828125
 10
2796.283203125
 20
-2331.8828125
 10
2786.40234375
 20
-2322.001953125
 10
2796.283203125
 20
-2312.12109375
 10
2786.40234375
 20
-2312.12109375
 10
2776.521484375
 20
-2312.12109375
 10
2766.640625
 20
-2302.240234375
 10
2756.759765625
 20
-2292.359375
 10
2746.87890625
 20
-2292.359375
 10
2736.998046875
 20
-2292.359375
 10
2727.1171875
 20
-2282.478515625
 10
2736.998046875
 20
-2272.59765625
 10
2727.1171875
 20
-2262.716796875
 10
2717.236328125
 20
-2272.59765625
 10
2707.35546875
 20
-2262.716796875
 10
2707.35546875
 20
-2252.8359375
 10
2707.35546875
 20
-2242.955078125
 10
2707.35546875
 20
-2252.8359375
 10
2697.474609375
 20
-2262.716796875
 10
2687.59375
 20
-2262.716796875
 10
2677.712890625
 20
-2272.59765625
 10
2667.83203125
 20
-2262.716796875
 10
2667.83203125
 20
-2252.8359375
 10
2667.83203125
 20
-2242.955078125
 10
2657.951171875
 20
-2233.07421875
 10
2648.0703125
 20
-2242.955078125
 10
2638.189453125
 20
-2233.07421875
 10
2628.30859375
 20
-2223.193359375
 10
2618.427734375
 20
-2233.07421875
 10
2608.546875
 20
-2233.07421875
 10
2598.666015625
 20
-2233.07421875
 10
2588.78515625
 20
-2233.07421875
 10
2578.904296875
 20
-2233.07421875
 10
2569.0234375
 20
-2233.07421875
 10
2559.142578125
 20
-2233.07421875
 10
2549.26171875
 20
-2233.07421875
 10
2539.380859375
 20
-2233.07421875
 10
2529.5
 20
-2233.07421875
 10
2519.619140625
 20
-2233.07421875
 10
2509.73828125
 20
-2233.07421875
 10
2499.857421875
 20
-2233.07421875
 10
2489.9765625
 20
-2233.07421875
 10
2480.095703125
 20
-2233.07421875
  0
LWPOLYLINE
  5
35
330
17
100
AcDbEntity
  8
conductor
100
AcDbPolyline
 90
4
 70
1
 43
0.5
 10
2598.666015625
 20
-2845.6875
 10
2608.546875
 20
-2835.806640625
 10
2618.427734375
 20
-2845.6875
 10
2608.546875
 20
-2855.568359375
  0
LWPOLYLINE
  5
36
330
17
100
AcDbEntity
  8
conductor
100
AcDbPolyline
 90
4
 70
1
 43
0.5
 10
2529.5
 20
-2835.806640625
 10
2539.380859375
 20
-2825.92578125
 10
2549.26171875
 20
-2835.806640625
 10
2539.380859375
 20
-2845.6875
  0
LWPOLYLINE
  5
37
330
17
100
AcDbEntity
  8
conductor
100
AcDbPolyline
 90
4
 70
1
 43
0.5
 10
2509.73828125
 20
-2825.92578125
 10
2519.619140625
 20
-2816.044921875
 10
2529.5
 20
-2825.92578125
 10
2519.619140625
 20
-2835.806640625
  0
LWPOLYLINE
  5
38
330
17
100
AcDbEntity
  8
conductor
100
AcDbPolyline
 90
4
 70
1
 43
0.5
 10
2756.759765625
 20
-2766.640625
 10
2766.640625
 20
-2756.759765625
 10
2776.521484375
 20
-2766.640625
 10
2766.640625
 20
-2776.521484375
  0
LWPOLYLINE
  5
39
330
17
100
AcDbEntity
  8
conductor
100
AcDbPolyline
 90
4
 70
1
 43
0.5
 10
2242.955078125
 20
-2766.640625
 10
2252.8359375
 20
-2756.759765625
 10
2262.716796875
 20
-2766.640625
 10
2252.8359375
 20
-2776.521484375
  0
LWPOLYLINE
  5
3A
330
17
100
AcDbEntity
  8
conductor
100
AcDbPolyline
 90
4
 70
1
 43
0.5
 10
2796.283203125
 20
-2727.1171875
 10
2806.1640625
 20
-2717.236328125
 10
2816.044921875
 20
-2727.1171875
 10
2806.1640625
 20
-2736.998046875
  0
LWPOLYLINE
  5
3B
330
17
100
AcDbEntity
  8
conductor
100
AcDbPolyline
 90
4
 70
1
 43
0.5
 10
2173.7890625
 20
-2598.666015625
 10
2183.669921875
 20
-2588.78515625
 10
2193.55078125
 20
-2598.666015625
 10
2183.669921875
 20
-2608.546875
  0
LWPOLYLINE
  5
3C
330
17
100
AcDbEntity
  8
conductor
100
AcDbPolyline
 90
4
 70
1
 43
0.5
 10
2825.92578125
 20
-2578.904296875
 10
2835.806640625
 20
-2569.0234375
 10
2845.6875
 20
-2578.904296875
 10
2835.806640625
 20
-2588.78515625
  0
LWPOLYLINE
  5
3D
330
17
100
AcDbEntity
  8
conductor
100
AcDbPolyline
 90
4
 70
1
 43
0.5
 10
2835.806640625
 20
-2569.0234375
 10
2845.6875
 20
-2559.142578125
 10
2855.568359375
 20
-2569.0234375
 10
2845.6875
 20
-2578.904296875
  0
LWPOLYLINE
  5
3E
330
17
100
AcDbEntity
  8
conductor
100
AcDbPolyline
 90
4
 70
1
 43
0.5
 10
2816.044921875
 20
-2569.0234375
 10
2825.92578125
 20
-2559.142578125
 10
2835.806640625
 20
-2569.0234375
 10
2825.92578125
 20
-2578.904296875
  0
LWPOLYLINE
  5
3F
330
17
100
AcDbEntity
  8
conductor
100
AcDbPolyline
 90
4
 70
1
 43
0.5
 10
2806.1640625
 20
-2559.142578125
 10
2816.044921875
 20
-2549.26171875
 10
2825.92578125
 20
-2559.142578125
 10
2816.044921875
 20
-2569.0234375
  0
LWPOLYLINE
  5
40
330
17
100
AcDbEntity
  8
conductor
100
AcDbPolyline
 90
4
 70
1
 43
0.5
 10
2154.02734375
 20
-2539.380859375
 10
2163.908203125
 20
-2529.5
 10
2173.7890625
 20
-2539.380859375
 10
2163.908203125
 20
-2549.26171875
  0
LWPOLYLINE
  5
41
330
17
100
AcDbEntity
  8
conductor
100
AcDbPolyline
 90
4
 70
1
 43
0.5
 10
2163.908203125
 20
-2529.5
 10
2173.7890625
 20
-2519.619140625
 10
2183.669921875
 20
-2529.5
 10
2173.7890625
 20
-2539.380859375
  0
LWPOLYLINE
  5
42
330
17
100
AcDbEntity
  8
conductor
100
AcDbPolyline
 90
4
 70
1
 43
0.5
 10
2154.02734375
 20
-2519.619140625
 10
2163.908203125
 20
-2509.73828125
 10
2173.7890625
 20
-2519.619140625
 10
2163.908203125
 20
-2529.5
  0
LWPOLYLINE
  5
43
330
17
100
AcDbEntity
  8
conductor
100
AcDbPolyline
 90
4
 70
1
 43
0.5
 10
2806.1640625
 20
-2499.857421875
 10
2816.044921875
 20
-2489.9765625
 10
2825.92578125
 20
-2499.857421875
 10
2816.044921875
 20
-2509.73828125
  0
LWPOLYLINE
  5
44
330
17
100
AcDbEntity
  8
conductor
100
AcDbPolyline
 90
4
 70
1
 43
0.5
 10
2806.1640625
 20
-2460.333984375
 10
2816.044921875
 20
-2450.453125
 10
2825.92578125
 20
-2460.333984375
 10
2816.044921875
 20
-2470.21484375
  0
LWPOLYLINE
  5
45
330
17
100
AcDbEntity
  8
conductor
100
AcDbPolyline
 90
4
 70
1
 43
0.5
 10
2816.044921875
 20
-2450.453125
 10
2825.92578125
 20
-2440.572265625
 10
2835.806640625
 20
-2450.453125
 10
2825.92578125
 20
-2460.333984375
  0
LWPOLYLINE
  5
46
330
17
100
AcDbEntity
  8
conductor
100
AcDbPolyline
 90
4
 70
1
 43
0.5
 10
2163.908203125
 20
-2450.453125
 10
2173.7890625
 20
-2440.572265625
 10
2183.669921875
 20
-2450.453125
 10
2173.7890625
 20
-2460.333984375
  0
LWPOLYLINE
  5
47
330
17
100
AcDbEntity
  8
conductor
100
AcDbPolyline
 90
4
 70
1
 43
0.5
 10
2816.044921875
 20
-2430.69140625
 10
2825.92578125
 20
-2420.810546875
 10
2835.806640625
 20
-2430.69140625
 10
2825.92578125
 20
-2440.572265625
  0
LWPOLYLINE
  5
48
330
17
100
AcDbEntity
  8
conductor
100
AcDbPolyline
 90
4
 70
1
 43
0.5
 10
2233.07421875
 20
-2430.69140625
 10
2242.955078125
 20
-2420.810546875
 10
2252.8359375
 20
-2430.69140625
 10
2242.955078125
 20
-2440.572265625
  0
LWPOLYLINE
  5
49
330
17
100
AcDbEntity
  8
conductor
100
AcDbPolyline
 90
4
 70
1
 43
0.5
 10
2806.1640625
 20
-2420.810546875
 10
2816.044921875
 20
-2410.9296875
 10
2825.92578125
 20
-2420.810546875
 10
2816.044921875
 20
-2430.69140625
  0
LWPOLYLINE
  5
4A
330
17
100
AcDbEntity
  8
conductor
100
AcDbPolyline
 90
4
 70
1
 43
0.5
 10
2796.283203125
 20
-2410.9296875
 10
2806.1640625
 20
-2401.048828125
 10
2816.044921875
 20
-2410.9296875
 10
2806.1640625
 20
-2420.810546875
  0
LWPOLYLINE
  5
4B
330
17
100
AcDbEntity
  8
conductor
100
AcDbPolyline
 90
4
 70
1
 43
0.5
 10
2163.908203125
 20
-2410.9296875
 10
2173.7890625
 20
-2401.048828125
 10
2183.669921875
 20
-2410.9296875
 10
2173.7890625
 20
-2420.810546875
  0
LWPOLYLINE
  5
4C
330
17
100
AcDbEntity
  8
conductor
100
AcDbPolyline
 90
4
 70
1
 43
0.5
 10
2233.07421875
 20
-2381.287109375
 10
2242.955078125
 20
-2371.40625
 10
2252.8359375
 20
-2381.287109375
 10
2242.955078125
 20
-2391.16796875
  0
LWPOLYLINE
  5
4D
330
17
100
AcDbEntity
  8
conductor
100
AcDbPolyline
 90
4
 70
1
 43
0.5
 10
2786.40234375
 20
-2341.763671875
 10
2796.283203125
 20
-2331.8828125
 10
2806.1640625
 20
-2341.763671875
 10
2796.283203125
 20
-2351.64453125
  0
LWPOLYLINE
  5
4E
330
17
100
AcDbEntity
  8
conductor
100
AcDbPolyline
 90
4
 70
1
 43
0.5
 10
2272.59765625
 20
-2312.12109375
 10
2282.478515625
 20
-2302.240234375
 10
2292.359375
 20
-2312.12109375
 10
2282.478515625
 20
-2322.001953125
  0
LWPOLYLINE
  5
4F
330
17
100
AcDbEntity
  8
conductor
100
AcDbPolyline
 90
4
 70
1
 43
0.5
 10
2746.87890625
 20
-2302.240234375
 10
2756.759765625
 20
-2292.359375
 10
2766.640625
 20
-2302.240234375
 10
2756.759765625
 20
-2312.12109375
  0
LWPOLYLINE
  5
50
330
17
100
AcDbEntity
  8
conductor
100
AcDbPolyline
 90
4
 70
1
 43
0.5
 10
2282.478515625
 20
-2292.359375
 10
2292.359375
 20
-2282.478515625
 10
2302.240234375
 20
-2292.359375
 10
2292.359375
 20
-2302.240234375
  0
LWPOLYLINE
  5
51
330
17
100
AcDbEntity
  8
substrate
100
AcDbPolyline
 90
2044
 70
1
 43
0.5
 10
0.0
 20
-0.0
 10
0.0
 20
-9.880859375
 10
0.0
 20
-19.76171875
 10
0.0
 20
-29.642578125
 10
0.0
 20
-39.5234375
 10
0.0
 20
-49.404296875
 10
0.0
 20
-59.28515625
 10
0.0
 20
-69.166015625
 10
0.0
 20
-79.046875
 10
0.0
 20
-88.927734375
 10
0.0
 20
-98.80859375
 10
0.0
 20
-108.689453125
 10
0.0
 20
-118.5703125
 10
0.0
 20
-128.451171875
 10
0.0
 20
-138.33203125
 10
0.0
 20
-148.212890625
 10
0.0
 20
-158.09375
 10
0.0
 20
-167.974609375
 10
0.0
 20
-177.85546875
 10
0.0
 20
-187.736328125
 10
0.0
 20
-197.6171875
 10
0.0
 20
-207.498046875
 10
0.0
 20
-217.37890625
 10
0.0
 20
-227.259765625
 10
0.0
 20
-237.140625
 10
0.0
 20
-247.021484375
 10
0.0
 20
-256.90234375
 10
0.0
 20
-266.783203125
 10
0.0
 20
-276.6640625
 10
0.0
 20
-286.544921875
 10
0.0
 20
-296.42578125
 10
0.0
 20
-306.306640625
 10
0.0
 20
-316.1875
 10
0.0
 20
-326.068359375
 10
0.0
 20
-335.94921875
 10
0.0
 20
-345.830078125
 10
0.0
 20
-355.7109375
 10
0.0
 20
-365.591796875
 10
0.0
 20
-375.47265625
 10
0.0
 20
-385.353515625
 10
0.0
 20
-395.234375
 10
0.0
 20
-405.115234375
 10
0.0
 20
-414.99609375
 10
0.0
 20
-424.876953125
 10
0.0
 20
-434.7578125
 10
0.0
 20
-444.638671875
 10
0.0
 20
-454.51953125
 10
0.0
 20
-464.400390625
 10
0.0
 20
-474.28125
 10
0.0
 20
-484.162109375
 10
0.0
 20
-494.04296875
 10
0.0
 20
-503.923828125
 10
0.0
 20
-513.8046875
 10
0.0
 20
-523.685546875
 10
0.0
 20
-533.56640625
 10
0.0
 20
-543.447265625
 10
0.0
 20
-553.328125
 10
0.0
 20
-563.208984375
 10
0.0
 20
-573.08984375
 10
0.0
 20
-582.970703125
 10
0.0
 20
-592.8515625
 10
0.0
 20
-602.732421875
 10
0.0
 20
-612.61328125
 10
0.0
 20
-622.494140625
 10
0.0
 20
-632.375
 10
0.0
 20
-642.255859375
 10
0.0
 20
-652.13671875
 10
0.0
 20
-662.017578125
 10
0.0
 20
-671.8984375
 10
0.0
 20
-681.779296875
 10
0.0
 20
-691.66015625
 10
0.0
 20
-701.541015625
 10
0.0
 20
-711.421875
 10
0.0
 20
-721.302734375
 10
0.0
 20
-731.18359375
 10
0.0
 20
-741.064453125
 10
0.0
 20
-750.9453125
 10
0.0
 20
-760.826171875
 10
0.0
 20
-770.70703125
 10
0.0
 20
-780.587890625
 10
0.0
 20
-790.46875
 10
0.0
 20
-800.349609375
 10
0.0
 20
-810.23046875
 10
0.0
 20
-820.111328125
 10
0.0
 20
-829.9921875
 10
0.0
 20
-839.873046875
 10
0.0
 20
-849.75390625
 10
0.0
 20
-859.634765625
 10
0.0
 20
-869.515625
 10
0.0
 20
-879.396484375
 10
0.0
 20
-889.27734375
 10
0.0
 20
-899.158203125
 10
0.0
 20
-909.0390625
 10
0.0
 20
-918.919921875
 10
0.0
 20
-928.80078125
 10
0.0
 20
-938.681640625
 10
0.0
 20
-948.5625
 10
0.0
 20
-958.443359375
 10
0.0
 20
-968.32421875
 10
0.0
 20
-978.205078125
 10
0.0
 20
-988.0859375
 10
0.0
 20
-997.966796875
 10
0.0
 20
-1007.84765625
 10
0.0
 20
-1017.728515625
 10
0.0
 20
-1027.609375
 10
0.0
 20
-1037.490234375
 10
0.0
 20
-1047.37109375
 10
0.0
 20
-1057.251953125
 10
0.0
 20
-1067.1328125
 10
0.0
 20
-1077.013671875
 10
0.0
 20
-1086.89453125
 10
0.0
 20
-1096.775390625
 10
0.0
 20
-1106.65625
 10
0.0
 20
-1116.537109375
 10
0.0
 20
-1126.41796875
 10
0.0
 20
-1136.298828125
 10
0.0
 20
-1146.1796875
 10
0.0
 20
-1156.060546875
 10
0.0
 20
-1165.94140625
 10
0.0
 20
-1175.822265625
 10
0.0
 20
-1185.703125
 10
0.0
 20
-1195.583984375
 10
0.0
 20
-1205.46484375
 10
0.0
 20
-1215.345703125
 10
0.0
 20
-1225.2265625
 10
0.0
 20
-1235.107421875
 10
0.0
 20
-1244.98828125
 10
0.0
 20
-1254.869140625
 10
0.0
 20
-1264.75
 10
0.0
 20
-1274.630859375
 10
0.0
 20
-1284.51171875
 10
0.0
 20
-1294.392578125
 10
0.0
 20
-1304.2734375
 10
0.0
 20
-1314.154296875
 10
0.0
 20
-1324.03515625
 10
0.0
 20
-1333.916015625
 10
0.0
 20
-1343.796875
 10
0.0
 20
-1353.677734375
 10
0.0
 20
-1363.55859375
 10
0.0
 20
-1373.439453125
 10
0.0
 20
-1383.3203125
 10
0.0
 20
-1393.201171875
 10
0.0
 20
-1403.08203125
 10
0.0
 20
-1412.962890625
 10
0.0
 20
-1422.84375
 10
0.0
 20
-1432.724609375
 10
0.0
 20
-1442.60546875
 10
0.0
 20
-1452.486328125
 10
0.0
 20
-1462.3671875
 10
0.0
 20
-1472.248046875
 10
0.0
 20
-1482.12890625
 10
0.0
 20
-1492.009765625
 10
0.0
 20
-1501.890625
 10
0.0
 20
-1511.771484375
 10
0.0
 20
-1521.65234375
 10
0.0
 20
-1531.533203125
 10
0.0
 20
-1541.4140625
 10
0.0
 20
-1551.294921875
 10
0.0
 20
-1561.17578125
 10
0.0
 20
-1571.056640625
 10
0.0
 20
-1580.9375
 10
0.0
 20
-1590.818359375
 10
0.0
 20
-1600.69921875
 10
0.0
 20
-1610.580078125
 10
0.0
 20
-1620.4609375
 10
0.0
 20
-1630.341796875
 10
0.0
 20
-1640.22265625
 10
0.0
 20
-1650.103515625
 10
0.0
 20
-1659.984375
 10
0.0
 20
-1669.865234375
 10
0.0
 20
-1679.74609375
 10
0.0
 20
-1689.626953125
 10
0.0
 20
-1699.5078125
 10
0.0
 20
-1709.388671875
 10
0.0
 20
-1719.26953125
 10
0.0
 20
-1729.150390625
 10
0.0
 20
-1739.03125
 10
0.0
 20
-1748.912109375
 10
0.0
 20
-1758.79296875
 10
0.0
 20
-1768.673828125
 10
0.0
 20
-1778.5546875
 10
0.0
 20
-1788.435546875
 10
0.0
 20
-1798.31640625
 10
0.0
 20
-1808.197265625
 10
0.0
 20
-1818.078125
 10
0.0
 20
-1827.958984375
 10
0.0
 20
-1837.83984375
 10
0.0
 20
-1847.720703125
 10
0.0
 20
-1857.6015625
 10
0.0
 20
-1867.482421875
 10
0.0
 20
-1877.36328125
 10
0.0
 20
-1887.244140625
 10
0.0
 20
-1897.125
 10
0.0
 20
-1907.005859375
 10
0.0
 20
-1916.88671875
 10
0.0
 20
-1926.767578125
 10
0.0
 20
-1936.6484375
 10
0.0
 20
-1946.529296875
 10
0.0
 20
-1956.41015625
 10
0.0
 20
-1966.291015625
 10
0.0
 20
-1976.171875
 10
0.0
 20
-1986.052734375
 10
0.0
 20
-1995.93359375
 10
0.0
 20
-2005.814453125
 10
0.0
 20
-2015.6953125
 10
0.0
 20
-2025.576171875
 10
0.0
 20
-2035.45703125
 10
0.0
 20
-2045.337890625
 10
0.0
 20
-2055.21875
 10
0.0
 20
-2065.099609375
 10
0.0
 20
-2074.98046875
 10
0.0
 20
-2084.861328125
 10
0.0
 20
-2094.7421875
 10
0.0
 20
-2104.623046875
 10
0.0
 20
-2114.50390625
 10
0.0
 20
-2124.384765625
 10
0.0
 20
-2134.265625
 10
0.0
 20
-2144.146484375
 10
0.0
 20
-2154.02734375
 10
0.0
 20
-2163.908203125
 10
0.0
 20
-2173.7890625
 10
0.0
 20
-2183.669921875
 10
0.0
 20
-2193.55078125
 10
0.0
 20
-2203.431640625
 10
0.0
 20
-2213.3125
 10
0.0
 20
-2223.193359375
 10
0.0
 20
-2233.07421875
 10
0.0
 20
-2242.955078125
 10
0.0
 20
-2252.8359375
 10
0.0
 20
-2262.716796875
 10
0.0
 20
-2272.59765625
 10
0.0
 20
-2282.478515625
 10
0.0
 20
-2292.359375
 10
0.0
 20
-2302.240234375
 10
0.0
 20
-2312.12109375
 10
0.0
 20
-2322.001953125
 10
0.0
 20
-2331.8828125
 10
0.0
 20
-2341.763671875
 10
0.0
 20
-2351.64453125
 10
0.0
 20
-2361.525390625
 10
0.0
 20
-2371.40625
 10
0.0
 20
-2381.287109375
 10
0.0
 20
-2391.16796875
 10
0.0
 20
-2401.048828125
 10
0.0
 20
-2410.9296875
 10
0.0
 20
-2420.810546875
 10
0.0
 20
-2430.69140625
 10
0.0
 20
-2440.572265625
 10
0.0
 20
-2450.453125
 10
0.0
 20
-2460.333984375
 10
0.0
 20
-2470.21484375
 10
0.0
 20
-2480.095703125
 10
0.0
 20
-2489.9765625
 10
0.0
 20
-2499.857421875
 10
0.0
 20
-2509.73828125
 10
0.0
 20
-2519.619140625
 10
0.0
 20
-2529.5
 10
0.0
 20
-2539.380859375
 10
0.0
 20
-2549.26171875
 10
0.0
 20
-2559.142578125
 10
0.0
 20
-2569.0234375
 10
0.0
 20
-2578.904296875
 10
0.0
 20
-2588.78515625
 10
0.0
 20
-2598.666015625
 10
0.0
 20
-2608.546875
 10
0.0
 20
-2618.427734375
 10
0.0
 20
-2628.30859375
 10
0.0
 20
-2638.189453125
 10
0.0
 20
-2648.0703125
 10
0.0
 20
-2657.951171875
 10
0.0
 20
-2667.83203125
 10
0.0
 20
-2677.712890625
 10
0.0
 20
-2687.59375
 10
0.0
 20
-2697.474609375
 10
0.0
 20
-2707.35546875
 10
0.0
 20
-2717.236328125
 10
0.0
 20
-2727.1171875
 10
0.0
 20
-2736.998046875
 10
0.0
 20
-2746.87890625
 10
0.0
 20
-2756.759765625
 10
0.0
 20
-2766.640625
 10
0.0
 20
-2776.521484375
 10
0.0
 20
-2786.40234375
 10
0.0
 20
-2796.283203125
 10
0.0
 20
-2806.1640625
 10
0.0
 20
-2816.044921875
 10
0.0
 20
-2825.92578125
 10
0.0
 20
-2835.806640625
 10
0.0
 20
-2845.6875
 10
0.0
 20
-2855.568359375
 10
0.0
 20
-2865.44921875
 10
0.0
 20
-2875.330078125
 10
0.0
 20
-2885.2109375
 10
0.0
 20
-2895.091796875
 10
0.0
 20
-2904.97265625
 10
0.0
 20
-2914.853515625
 10
0.0
 20
-2924.734375
 10
0.0
 20
-2934.615234375
 10
0.0
 20
-2944.49609375
 10
0.0
 20
-2954.376953125
 10
0.0
 20
-2964.2578125
 10
0.0
 20
-2974.138671875
 10
0.0
 20
-2984.01953125
 10
0.0
 20
-2993.900390625
 10
0.0
 20
-3003.78125
 10
0.0
 20
-3013.662109375
 10
0.0
 20
-3023.54296875
 10
0.0
 20
-3033.423828125
 10
0.0
 20
-3043.3046875
 10
0.0
 20
-3053.185546875
 10
0.0
 20
-3063.06640625
 10
0.0
 20
-3072.947265625
 10
0.0
 20
-3082.828125
 10
0.0
 20
-3092.708984375
 10
0.0
 20
-3102.58984375
 10
0.0
 20
-3112.470703125
 10
0.0
 20
-3122.3515625
 10
0.0
 20
-3132.232421875
 10
0.0
 20
-3142.11328125
 10
0.0
 20
-3151.994140625
 10
0.0
 20
-3161.875
 10
0.0
 20
-3171.755859375
 10
0.0
 20
-3181.63671875
 10
0.0
 20
-3191.517578125
 10
0.0
 20
-3201.3984375
 10
0.0
 20
-3211.279296875
 10
0.0
 20
-3221.16015625
 10
0.0
 20
-3231.041015625
 10
0.0
 20
-3240.921875
 10
0.0
 20
-3250.802734375
 10
0.0
 20
-3260.68359375
 10
0.0
 20
-3270.564453125
 10
0.0
 20
-3280.4453125
 10
0.0
 20
-3290.326171875
 10
0.0
 20
-3300.20703125
 10
0.0
 20
-3310.087890625
 10
0.0
 20
-3319.96875
 10
0.0
 20
-3329.849609375
 10
0.0
 20
-3339.73046875
 10
0.0
 20
-3349.611328125
 10
0.0
 20
-3359.4921875
 10
0.0
 20
-3369.373046875
 10
0.0
 20
-3379.25390625
 10
0.0
 20
-3389.134765625
 10
0.0
 20
-3399.015625
 10
0.0
 20
-3408.896484375
 10
0.0
 20
-3418.77734375
 10
0.0
 20
-3428.658203125
 10
0.0
 20
-3438.5390625
 10
0.0
 20
-3448.419921875
 10
0.0
 20
-3458.30078125
 10
0.0
 20
-3468.181640625
 10
0.0
 20
-3478.0625
 10
0.0
 20
-3487.943359375
 10
0.0
 20
-3497.82421875
 10
0.0
 20
-3507.705078125
 10
0.0
 20
-3517.5859375
 10
0.0
 20
-3527.466796875
 10
0.0
 20
-3537.34765625
 10
0.0
 20
-3547.228515625
 10
0.0
 20
-3557.109375
 10
0.0
 20
-3566.990234375
 10
0.0
 20
-3576.87109375
 10
0.0
 20
-3586.751953125
 10
0.0
 20
-3596.6328125
 10
0.0
 20
-3606.513671875
 10
0.0
 20
-3616.39453125
 10
0.0
 20
-3626.275390625
 10
0.0
 20
-3636.15625
 10
0.0
 20
-3646.037109375
 10
0.0
 20
-3655.91796875
 10
0.0
 20
-3665.798828125
 10
0.0
 20
-3675.6796875
 10
0.0
 20
-3685.560546875
 10
0.0
 20
-3695.44140625
 10
0.0
 20
-3705.322265625
 10
0.0
 20
-3715.203125
 10
0.0
 20
-3725.083984375
 10
0.0
 20
-3734.96484375
 10
0.0
 20
-3744.845703125
 10
0.0
 20
-3754.7265625
 10
0.0
 20
-3764.607421875
 10
0.0
 20
-3774.48828125
 10
0.0
 20
-3784.369140625
 10
0.0
 20
-3794.25
 10
0.0
 20
-3804.130859375
 10
0.0
 20
-3814.01171875
 10
0.0
 20
-3823.892578125
 10
0.0
 20
-3833.7734375
 10
0.0
 20
-3843.654296875
 10
0.0
 20
-3853.53515625
 10
0.0
 20
-3863.416015625
 10
0.0
 20
-3873.296875
 10
0.0
 20
-3883.177734375
 10
0.0
 20
-3893.05859375
 10
0.0
 20
-3902.939453125
 10
0.0
 20
-3912.8203125
 10
0.0
 20
-3922.701171875
 10
0.0
 20
-3932.58203125
 10
0.0
 20
-3942.462890625
 10
0.0
 20
-3952.34375
 10
0.0
 20
-3962.224609375
 10
0.0
 20
-3972.10546875
 10
0.0
 20
-3981.986328125
 10
0.0
 20
-3991.8671875
 10
0.0
 20
-4001.748046875
 10
0.0
 20
-4011.62890625
 10
0.0
 20
-4021.509765625
 10
0.0
 20
-4031.390625
 10
0.0
 20
-4041.271484375
 10
0.0
 20
-4051.15234375
 10
0.0
 20
-4061.033203125
 10
0.0
 20
-4070.9140625
 10
0.0
 20
-4080.794921875
 10
0.0
 20
-4090.67578125
 10
0.0
 20
-4100.556640625
 10
0.0
 20
-4110.4375
 10
0.0
 20
-4120.318359375
 10
0.0
 20
-4130.19921875
 10
0.0
 20
-4140.080078125
 10
0.0
 20
-4149.9609375
 10
0.0
 20
-4159.841796875
 10
0.0
 20
-4169.72265625
 10
0.0
 20
-4179.603515625
 10
0.0
 20
-4189.484375
 10
0.0
 20
-4199.365234375
 10
0.0
 20
-4209.24609375
 10
0.0
 20
-4219.126953125
 10
0.0
 20
-4229.0078125
 10
0.0
 20
-4238.888671875
 10
0.0
 20
-4248.76953125
 10
0.0
 20
-4258.650390625
 10
0.0
 20
-4268.53125
 10
0.0
 20
-4278.412109375
 10
0.0
 20
-4288.29296875
 10
0.0
 20
-4298.173828125
 10
0.0
 20
-4308.0546875
 10
0.0
 20
-4317.935546875
 10
0.0
 20
-4327.81640625
 10
0.0
 20
-4337.697265625
 10
0.0
 20
-4347.578125
 10
0.0
 20
-4357.458984375
 10
0.0
 20
-4367.33984375
 10
0.0
 20
-4377.220703125
 10
0.0
 20
-4387.1015625
 10
0.0
 20
-4396.982421875
 10
0.0
 20
-4406.86328125
 10
0.0
 20
-4416.744140625
 10
0.0
 20
-4426.625
 10
0.0
 20
-4436.505859375
 10
0.0
 20
-4446.38671875
 10
0.0
 20
-4456.267578125
 10
0.0
 20
-4466.1484375
 10
0.0
 20
-4476.029296875
 10
0.0
 20
-4485.91015625
 10
0.0
 20
-4495.791015625
 10
0.0
 20
-4505.671875
 10
0.0
 20
-4515.552734375
 10
0.0
 20
-4525.43359375
 10
0.0
 20
-4535.314453125
 10
0.0
 20
-4545.1953125
 10
0.0
 20
-4555.076171875
 10
0.0
 20
-4564.95703125
 10
0.0
 20
-4574.837890625
 10
0.0
 20
-4584.71875
 10
0.0
 20
-4594.599609375
 10
0.0
 20
-4604.48046875
 10
0.0
 20
-4614.361328125
 10
0.0
 20
-4624.2421875
 10
0.0
 20
-4634.123046875
 10
0.0
 20
-4644.00390625
 10
0.0
 20
-4653.884765625
 10
0.0
 20
-4663.765625
 10
0.0
 20
-4673.646484375
 10
0.0
 20
-4683.52734375
 10
0.0
 20
-4693.408203125
 10
0.0
 20
-4703.2890625
 10
0.0
 20
-4713.169921875
 10
0.0
 20
-4723.05078125
 10
0.0
 20
-4732.931640625
 10
0.0
 20
-4742.8125
 10
0.0
 20
-4752.693359375
 10
0.0
 20
-4762.57421875
 10
0.0
 20
-4772.455078125
 10
0.0
 20
-4782.3359375
 10
0.0
 20
-4792.216796875
 10
0.0
 20
-4802.09765625
 10
0.0
 20
-4811.978515625
 10
0.0
 20
-4821.859375
 10
0.0
 20
-4831.740234375
 10
0.0
 20
-4841.62109375
 10
0.0
 20
-4851.501953125
 10
0.0
 20
-4861.3828125
 10
0.0
 20
-4871.263671875
 10
0.0
 20
-4881.14453125
 10
0.0
 20
-4891.025390625
 10
0.0
 20
-4900.90625
 10
0.0
 20
-4910.787109375
 10
0.0
 20
-4920.66796875
 10
0.0
 20
-4930.548828125
 10
0.0
 20
-4940.4296875
 10
0.0
 20
-4950.310546875
 10
0.0
 20
-4960.19140625
 10
0.0
 20
-4970.072265625
 10
0.0
 20
-4979.953125
 10
0.0
 20
-4989.833984375
 10
0.0
 20
-4999.71484375
 10
0.0
 20
-5009.595703125
 10
0.0
 20
-5019.4765625
 10
0.0
 20
-5029.357421875
 10
0.0
 20
-5039.23828125
 10
0.0
 20
-5049.119140625
 10
9.880859375
 20
-5049.119140625
 10
19.76171875
 20
-5049.119140625
 10
29.642578125
 20
-5049.119140625
 10
39.5234375
 20
-5049.119140625
 10
49.404296875
 20
-5049.119140625
 10
59.28515625
 20
-5049.119140625
 10
69.166015625
 20
-5049.119140625
 10
79.046875
 20
-5049.119140625
 10
88.927734375
 20
-5049.119140625
 10
98.80859375
 20
-5049.119140625
 10
108.689453125
 20
-5049.119140625
 10
118.5703125
 20
-5049.119140625
 10
128.451171875
 20
-5049.119140625
 10
138.33203125
 20
-5049.119140625
 10
148.212890625
 20
-5049.119140625
 10
158.09375
 20
-5049.119140625
 10
167.974609375
 20
-5049.119140625
 10
177.85546875
 20
-5049.119140625
 10
187.736328125
 20
-5049.119140625
 10
197.6171875
 20
-5049.119140625
 10
207.498046875
 20
-5049.119140625
 10
217.37890625
 20
-5049.119140625
 10
227.259765625
 20
-5049.119140625
 10
237.140625
 20
-5049.119140625
 10
247.021484375
 20
-5049.119140625
 10
256.90234375
 20
-5049.119140625
 10
266.783203125
 20
-5049.119140625
 10
276.6640625
 20
-5049.119140625
 10
286.544921875
 20
-5049.119140625
 10
296.42578125
 20
-5049.119140625
 10
306.306640625
 20
-5049.119140625
 10
316.1875
 20
-5049.119140625
 10
326.068359375
 20
-5049.119140625
 10
335.94921875
 20
-5049.119140625
 10
345.830078125
 20
-5049.119140625
 10
355.7109375
 20
-5049.119140625
 10
365.591796875
 20
-5049.119140625
 10
375.47265625
 20
-5049.119140625
 10
385.353515625
 20
-5049.119140625
 10
395.234375
 20
-5049.119140625
 10
405.115234375
 20
-5049.119140625
 10
414.99609375
 20
-5049.119140625
 10
424.876953125
 20
-5049.119140625
 10
434.7578125
 20
-5049.119140625
 10
444.638671875
 20
-5049.119140625
 10
454.51953125
 20
-5049.119140625
 10
464.400390625
 20
-5049.119140625
 10
474.28125
 20
-5049.119140625
 10
484.162109375
 20
-5049.119140625
 10
494.04296875
 20
-5049.119140625
 10
503.923828125
 20
-5049.119140625
 10
513.8046875
 20
-5049.119140625
 10
523.685546875
 20
-5049.119140625
 10
533.56640625
 20
-5049.119140625
 10
543.447265625
 20
-5049.119140625
 10
553.328125
 20
-5049.119140625
 10
563.208984375
 20
-5049.119140625
 10
573.08984375
 20
-5049.119140625
 10
582.970703125
 20
-5049.119140625
 10
592.8515625
 20
-5049.119140625
 10
602.732421875
 20
-5049.119140625
 10
612.61328125
 20
-5049.119140625
 10
622.494140625
 20
-5049.119140625
 10
632.375
 20
-5049.119140625
 10
642.255859375
 20
-5049.119140625
 10
652.13671875
 20
-5049.119140625
 10
662.017578125
 20
-5049.119140625
 10
671.8984375
 20
-5049.119140625
 10
681.779296875
 20
-5049.119140625
 10
691.66015625
 20
-5049.119140625
 10
701.541015625
 20
-5049.119140625
 10
711.421875
 20
-5049.119140625
 10
721.302734375
 20
-5049.119140625
 10
731.18359375
 20
-5049.119140625
 10
741.064453125
 20
-5049.119140625
 10
750.9453125
 20
-5049.119140625
 10
760.826171875
 20
-5049.119140625
 10
770.70703125
 20
-5049.119140625
 10
780.587890625
 20
-5049.119140625
 10
790.46875
 20
-5049.119140625
 10
800.349609375
 20
-5049.119140625
 10
810.23046875
 20
-5049.119140625
 10
820.111328125
 20
-5049.119140625
 10
829.9921875
 20
-5049.119140625
 10
839.873046875
 20
-5049.119140625
 10
849.75390625
 20
-5049.119140625
 10
859.634765625
 20
-5049.119140625
 10
869.515625
 20
-5049.119140625
 10
879.396484375
 20
-5049.119140625
 10
889.27734375
 20
-5049.119140625
 10
899.158203125
 20
-5049.119140625
 10
909.0390625
 20
-5049.119140625
 10
918.919921875
 20
-5049.119140625
 10
928.80078125
 20
-5049.119140625
 10
938.681640625
 20
-5049.119140625
 10
948.5625
 20
-5049.119140625
 10
958.443359375
 20
-5049.119140625
 10
968.32421875
 20
-5049.119140625
 10
978.205078125
 20
-5049.119140625
 10
988.0859375
 20
-5049.119140625
 10
997.966796875
 20
-5049.119140625
 10
1007.84765625
 20
-5049.119140625
 10
1017.728515625
 20
-5049.119140625
 10
1027.609375
 20
-5049.119140625
 10
1037.490234375
 20
-5049.119140625
 10
1047.37109375
 20
-5049.119140625
 10
1057.251953125
 20
-5049.119140625
 10
1067.1328125
 20
-5049.119140625
 10
1077.013671875
 20
-5049.119140625
 10
1086.89453125
 20
-5049.119140625
 10
1096.775390625
 20
-5049.119140625
 10
1106.65625
 20
-5049.119140625
 10
1116.537109375
 20
-5049.119140625
 10
1126.41796875
 20
-5049.119140625
 10
1136.298828125
 20
-5049.119140625
 10
1146.1796875
 20
-5049.119140625
 10
1156.060546875
 20
-5049.119140625
 10
1165.94140625
 20
-5049.119140625
 10
1175.822265625
 20
-5049.119140625
 10
1185.703125
 20
-5049.119140625
 10
1195.583984375
 20
-5049.119140625
 10
1205.46484375
 20
-5049.119140625
 10
1215.345703125
 20
-5049.119140625
 10
1225.2265625
 20
-5049.119140625
 10
1235.107421875
 20
-5049.119140625
 10
1244.98828125
 20
-5049.119140625
 10
1254.869140625
 20
-5049.119140625
 10
1264.75
 20
-5049.119140625
 10
1274.630859375
 20
-5049.119140625
 10
1284.51171875
 20
-5049.119140625
 10
1294.392578125
 20
-5049.119140625
 10
1304.2734375
 20
-5049.119140625
 10
1314.154296875
 20
-5049.119140625
 10
1324.03515625
 20
-5049.119140625
 10
1333.916015625
 20
-5049.119140625
 10
1343.796875
 20
-5049.119140625
 10
1353.677734375
 20
-5049.119140625
 10
1363.55859375
 20
-5049.119140625
 10
1373.439453125
 20
-5049.119140625
 10
1383.3203125
 20
-5049.119140625
 10
1393.201171875
 20
-5049.119140625
 10
1403.08203125
 20
-5049.119140625
 10
1412.962890625
 20
-5049.119140625
 10
1422.84375
 20
-5049.119140625
 10
1432.724609375
 20
-5049.119140625
 10
1442.60546875
 20
-5049.119140625
 10
1452.486328125
 20
-5049.119140625
 10
1462.3671875
 20
-5049.119140625
 10
1472.248046875
 20
-5049.119140625
 10
1482.12890625
 20
-5049.119140625
 10
1492.009765625
 20
-5049.119140625
 10
1501.890625
 20
-5049.119140625
 10
1511.771484375
 20
-5049.119140625
 10
1521.65234375
 20
-5049.119140625
 10
1531.533203125
 20
-5049.119140625
 10
1541.4140625
 20
-5049.119140625
 10
1551.294921875
 20
-5049.119140625
 10
1561.17578125
 20
-5049.119140625
 10
1571.056640625
 20
-5049.119140625
 10
1580.9375
 20
-5049.119140625
 10
1590.818359375
 20
-5049.119140625
 10
1600.69921875
 20
-5049.119140625
 10
1610.580078125
 20
-5049.119140625
 10
1620.4609375
 20
-5049.119140625
 10
1630.341796875
 20
-5049.119140625
 10
1640.22265625
 20
-5049.119140625
 10
1650.103515625
 20
-5049.119140625
 10
1659.984375
 20
-5049.119140625
 10
1669.865234375
 20
-5049.119140625
 10
1679.74609375
 20
-5049.119140625
 10
1689.626953125
 20
-5049.119140625
 10
1699.5078125
 20
-5049.119140625
 10
1709.388671875
 20
-5049.119140625
 10
1719.26953125
 20
-5049.119140625
 10
1729.150390625
 20
-5049.119140625
 10
1739.03125
 20
-5049.119140625
 10
1748.912109375
 20
-5049.119140625
 10
1758.79296875
 20
-5049.119140625
 10
1768.673828125
 20
-5049.119140625
 10
1778.5546875
 20
-5049.119140625
 10
1788.435546875
 20
-5049.119140625
 10
1798.31640625
 20
-5049.119140625
 10
1808.197265625
 20
-5049.119140625
 10
1818.078125
 20
-5049.119140625
 10
1827.958984375
 20
-5049.119140625
 10
1837.83984375
 20
-5049.119140625
 10
1847.720703125
 20
-5049.119140625
 10
1857.6015625
 20
-5049.119140625
 10
1867.482421875
 20
-5049.119140625
 10
1877.36328125
 20
-5049.119140625
 10
1887.244140625
 20
-5049.119140625
 10
1897.125
 20
-5049.119140625
 10
1907.005859375
 20
-5049.119140625
 10
1916.88671875
 20
-5049.119140625
 10
1926.767578125
 20
-5049.119140625
 10
1936.6484375
 20
-5049.119140625
 10
1946.529296875
 20
-5049.119140625
 10
1956.41015625
 20
-5049.119140625
 10
1966.291015625
 20
-5049.119140625
 10
1976.171875
 20
-5049.119140625
 10
1986.052734375
 20
-5049.119140625
 10
1995.93359375
 20
-5049.119140625
 10
2005.814453125
 20
-5049.119140625
 10
2015.6953125
 20
-5049.119140625
 10
2025.576171875
 20
-5049.119140625
 10
2035.45703125
 20
-5049.119140625
 10
2045.337890625
 20
-5049.119140625
 10
2055.21875
 20
-5049.119140625
 10
2065.099609375
 20
-5049.119140625
 10
2074.98046875
 20
-5049.119140625
 10
2084.861328125
 20
-5049.119140625
 10
2094.7421875
 20
-5049.119140625
 10
2104.623046875
 20
-5049.119140625
 10
2114.50390625
 20
-5049.119140625
 10
2124.384765625
 20
-5049.119140625
 10
2134.265625
 20
-5049.119140625
 10
2144.146484375
 20
-5049.119140625
 10
2154.02734375
 20
-5049.119140625
 10
2163.908203125
 20
-5049.119140625
 10
2173.7890625
 20
-5049.119140625
 10
2183.669921875
 20
-5049.119140625
 10
2193.55078125
 20
-5049.119140625
 10
2203.431640625
 20
-5049.119140625
 10
2213.3125
 20
-5049.119140625
 10
2223.193359375
 20
-5049.119140625
 10
2233.07421875
 20
-5049.119140625
 10
2242.955078125
 20
-5049.119140625
 10
2252.8359375
 20
-5049.119140625
 10
2262.716796875
 20
-5049.119140625
 10
2272.59765625
 20
-5049.119140625
 10
2282.478515625
 20
-5049.119140625
 10
2292.359375
 20
-5049.119140625
 10
2302.240234375
 20
-5049.119140625
 10
2312.12109375
 20
-5049.119140625
 10
2322.001953125
 20
-5049.119140625
 10
2331.8828125
 20
-5049.119140625
 10
2341.763671875
 20
-5049.119140625
 10
2351.64453125
 20
-5049.119140625
 10
2361.525390625
 20
-5049.119140625
 10
2371.40625
 20
-5049.119140625
 10
2381.287109375
 20
-5049.119140625
 10
2391.16796875
 20
-5049.119140625
 10
2401.048828125
 20
-5049.119140625
 10
2410.9296875
 20
-5049.119140625
 10
2420.810546875
 20
-5049.119140625
 10
2430.69140625
 20
-5049.119140625
 10
2440.572265625
 20
-5049.119140625
 10
2450.453125
 20
-5049.119140625
 10
2460.333984375
 20
-5049.119140625
 10
2470.21484375
 20
-5049.119140625
 10
2480.095703125
 20
-5049.119140625
 10
2489.9765625
 20
-5049.119140625
 10
2499.857421875
 20
-5049.119140625
 10
2509.73828125
 20
-5049.119140625
 10
2519.619140625
 20
-5049.119140625
 10
2529.5
 20
-5049.119140625
 10
2539.380859375
 20
-5049.119140625
 10
2549.26171875
 20
-5049.119140625
 10
2559.142578125
 20
-5049.119140625
 10
2569.0234375
 20
-5049.119140625
 10
2578.904296875
 20
-5049.119140625
 10
2588.78515625
 20
-5049.119140625
 10
2598.666015625
 20
-5049.119140625
 10
2608.546875
 20
-5049.119140625
 10
2618.427734375
 20
-5049.119140625
 10
2628.30859375
 20
-5049.119140625
 10
2638.189453125
 20
-5049.119140625
 10
2648.0703125
 20
-5049.119140625
 10
2657.951171875
 20
-5049.119140625
 10
2667.83203125
 20
-5049.119140625
 10
2677.712890625
 20
-5049.119140625
 10
2687.59375
 20
-5049.119140625
 10
2697.474609375
 20
-5049.119140625
 10
2707.35546875
 20
-5049.119140625
 10
2717.236328125
 20
-5049.119140625
 10
2727.1171875
 20
-5049.119140625
 10
2736.998046875
 20
-5049.119140625
 10
2746.87890625
 20
-5049.119140625
 10
2756.759765625
 20
-5049.119140625
 10
2766.640625
 20
-5049.119140625
 10
2776.521484375
 20
-5049.119140625
 10
2786.40234375
 20
-5049.119140625
 10
2796.283203125
 20
-5049.119140625
 10
2806.1640625
 20
-5049.119140625
 10
2816.044921875
 20
-5049.119140625
 10
2825.92578125
 20
-5049.119140625
 10
2835.806640625
 20
-5049.119140625
 10
2845.6875
 20
-5049.119140625
 10
2855.568359375
 20
-5049.119140625
 10
2865.44921875
 20
-5049.119140625
 10
2875.330078125
 20
-5049.119140625
 10
2885.2109375
 20
-5049.119140625
 10
2895.091796875
 20
-5049.119140625
 10
2904.97265625
 20
-5049.119140625
 10
2914.853515625
 20
-5049.119140625
 10
2924.734375
 20
-5049.119140625
 10
2934.615234375
 20
-5049.119140625
 10
2944.49609375
 20
-5049.119140625
 10
2954.376953125
 20
-5049.119140625
 10
2964.2578125
 20
-5049.119140625
 10
2974.138671875
 20
-5049.119140625
 10
2984.01953125
 20
-5049.119140625
 10
2993.900390625
 20
-5049.119140625
 10
3003.78125
 20
-5049.119140625
 10
3013.662109375
 20
-5049.119140625
 10
3023.54296875
 20
-5049.119140625
 10
3033.423828125
 20
-5049.119140625
 10
3043.3046875
 20
-5049.119140625
 10
3053.185546875
 20
-5049.119140625
 10
3063.06640625
 20
-5049.119140625
 10
3072.947265625
 20
-5049.119140625
 10
3082.828125
 20
-5049.119140625
 10
3092.708984375
 20
-5049.119140625
 10
3102.58984375
 20
-5049.119140625
 10
3112.470703125
 20
-5049.119140625
 10
3122.3515625
 20
-5049.119140625
 10
3132.232421875
 20
-5049.119140625
 10
3142.11328125
 20
-5049.119140625
 10
3151.994140625
 20
-5049.119140625
 10
3161.875
 20
-5049.119140625
 10
3171.755859375
 20
-5049.119140625
 10
3181.63671875
 20
-5049.119140625
 10
3191.517578125
 20
-5049.119140625
 10
3201.3984375
 20
-5049.119140625
 10
3211.279296875
 20
-5049.119140625
 10
3221.16015625
 20
-5049.119140625
 10
3231.041015625
 20
-5049.119140625
 10
3240.921875
 20
-5049.119140625
 10
3250.802734375
 20
-5049.119140625
 10
3260.68359375
 20
-5049.119140625
 10
3270.564453125
 20
-5049.119140625
 10
3280.4453125
 20
-5049.119140625
 10
3290.326171875
 20
-5049.119140625
 10
3300.20703125
 20
-5049.119140625
 10
3310.087890625
 20
-5049.119140625
 10
3319.96875
 20
-5049.119140625
 10
3329.849609375
 20
-5049.119140625
 10
3339.73046875
 20
-5049.119140625
 10
3349.611328125
 20
-5049.119140625
 10
3359.4921875
 20
-5049.119140625
 10
3369.373046875
 20
-5049.119140625
 10
3379.25390625
 20
-5049.119140625
 10
3389.134765625
 20
-5049.119140625
 10
3399.015625
 20
-5049.119140625
 10
3408.896484375
 20
-5049.119140625
 10
3418.77734375
 20
-5049.119140625
 10
3428.658203125
 20
-5049.119140625
 10
3438.5390625
 20
-5049.119140625
 10
3448.419921875
 20
-5049.119140625
 10
3458.30078125
 20
-5049.119140625
 10
3468.181640625
 20
-5049.119140625
 10
3478.0625
 20
-5049.119140625
 10
3487.943359375
 20
-5049.119140625
 10
3497.82421875
 20
-5049.119140625
 10
3507.705078125
 20
-5049.119140625
 10
3517.5859375
 20
-5049.119140625
 10
3527.466796875
 20
-5049.119140625
 10
3537.34765625
 20
-5049.119140625
 10
3547.228515625
 20
-5049.119140625
 10
3557.109375
 20
-5049.119140625
 10
3566.990234375
 20
-5049.119140625
 10
3576.87109375
 20
-5049.119140625
 10
3586.751953125
 20
-5049.119140625
 10
3596.6328125
 20
-5049.119140625
 10
3606.513671875
 20
-5049.119140625
 10
3616.39453125
 20
-5049.119140625
 10
3626.275390625
 20
-5049.119140625
 10
3636.15625
 20
-5049.119140625
 10
3646.037109375
 20
-5049.119140625
 10
3655.91796875
 20
-5049.119140625
 10
3665.798828125
 20
-5049.119140625
 10
3675.6796875
 20
-5049.119140625
 10
3685.560546875
 20
-5049.119140625
 10
3695.44140625
 20
-5049.119140625
 10
3705.322265625
 20
-5049.119140625
 10
3715.203125
 20
-5049.119140625
 10
3725.083984375
 20
-5049.119140625
 10
3734.96484375
 20
-5049.119140625
 10
3744.845703125
 20
-5049.119140625
 10
3754.7265625
 20
-5049.119140625
 10
3764.607421875
 20
-5049.119140625
 10
3774.48828125
 20
-5049.119140625
 10
3784.369140625
 20
-5049.119140625
 10
3794.25
 20
-5049.119140625
 10
3804.130859375
 20
-5049.119140625
 10
3814.01171875
 20
-5049.119140625
 10
3823.892578125
 20
-5049.119140625
 10
3833.7734375
 20
-5049.119140625
 10
3843.654296875
 20
-5049.119140625
 10
3853.53515625
 20
-5049.119140625
 10
3863.416015625
 20
-5049.119140625
 10
3873.296875
 20
-5049.119140625
 10
3883.177734375
 20
-5049.119140625
 10
3893.05859375
 20
-5049.119140625
 10
3902.939453125
 20
-5049.119140625
 10
3912.8203125
 20
-5049.119140625
 10
3922.701171875
 20
-5049.119140625
 10
3932.58203125
 20
-5049.119140625
 10
3942.462890625
 20
-5049.119140625
 10
3952.34375
 20
-5049.119140625
 10
3962.224609375
 20
-5049.119140625
 10
3972.10546875
 20
-5049.119140625
 10
3981.986328125
 20
-5049.119140625
 10
3991.8671875
 20
-5049.119140625
 10
4001.748046875
 20
-5049.119140625
 10
4011.62890625
 20
-5049.119140625
 10
4021.509765625
 20
-5049.119140625
 10
4031.390625
 20
-5049.119140625
 10
4041.271484375
 20
-5049.119140625
 10
4051.15234375
 20
-5049.119140625
 10
4061.033203125
 20
-5049.119140625
 10
4070.9140625
 20
-5049.119140625
 10
4080.794921875
 20
-5049.119140625
 10
4090.67578125
 20
-5049.119140625
 10
4100.556640625
 20
-5049.119140625
 10
4110.4375
 20
-5049.119140625
 10
4120.318359375
 20
-5049.119140625
 10
4130.19921875
 20
-5049.119140625
 10
4140.080078125
 20
-5049.119140625
 10
4149.9609375
 20
-5049.119140625
 10
4159.841796875
 20
-5049.119140625
 10
4169.72265625
 20
-5049.119140625
 10
4179.603515625
 20
-5049.119140625
 10
4189.484375
 20
-5049.119140625
 10
4199.365234375
 20
-5049.119140625
 10
4209.24609375
 20
-5049.119140625
 10
4219.126953125
 20
-5049.119140625
 10
4229.0078125
 20
-5049.119140625
 10
4238.888671875
 20
-5049.119140625
 10
4248.76953125
 20
-5049.119140625
 10
4258.650390625
 20
-5049.119140625
 10
4268.53125
 20
-5049.119140625
 10
4278.412109375
 20
-5049.119140625
 10
4288.29296875
 20
-5049.119140625
 10
4298.173828125
 20
-5049.119140625
 10
4308.0546875
 20
-5049.119140625
 10
4317.935546875
 20
-5049.119140625
 10
4327.81640625
 20
-5049.119140625
 10
4337.697265625
 20
-5049.119140625
 10
4347.578125
 20
-5049.119140625
 10
4357.458984375
 20
-5049.119140625
 10
4367.33984375
 20
-5049.119140625
 10
4377.220703125
 20
-5049.119140625
 10
4387.1015625
 20
-5049.119140625
 10
4396.982421875
 20
-5049.119140625
 10
4406.86328125
 20
-5049.119140625
 10
4416.744140625
 20
-5049.119140625
 10
4426.625
 20
-5049.119140625
 10
4436.505859375
 20
-5049.119140625
 10
4446.38671875
 20
-5049.119140625
 10
4456.267578125
 20
-5049.119140625
 10
4466.1484375
 20
-5049.119140625
 10
4476.029296875
 20
-5049.119140625
 10
4485.91015625
 20
-5049.119140625
 10
4495.791015625
 20
-5049.119140625
 10
4505.671875
 20
-5049.119140625
 10
4515.552734375
 20
-5049.119140625
 10
4525.43359375
 20
-5049.119140625
 10
4535.314453125
 20
-5049.119140625
 10
4545.1953125
 20
-5049.119140625
 10
4555.076171875
 20
-5049.119140625
 10
4564.95703125
 20
-5049.119140625
 10
4574.837890625
 20
-5049.119140625
 10
4584.71875
 20
-5049.119140625
 10
4594.599609375
 20
-5049.119140625
 10
4604.48046875
 20
-5049.119140625
 10
4614.361328125
 20
-5049.119140625
 10
4624.2421875
 20
-5049.119140625
 10
4634.123046875
 20
-5049.119140625
 10
4644.00390625
 20
-5049.119140625
 10
4653.884765625
 20
-5049.119140625
 10
4663.765625
 20
-5049.119140625
 10
4673.646484375
 20
-5049.119140625
 10
4683.52734375
 20
-5049.119140625
 10
4693.408203125
 20
-5049.119140625
 10
4703.2890625
 20
-5049.119140625
 10
4713.169921875
 20
-5049.119140625
 10
4723.05078125
 20
-5049.119140625
 10
4732.931640625
 20
-5049.119140625
 10
4742.8125
 20
-5049.119140625
 10
4752.693359375
 20
-5049.119140625
 10
4762.57421875
 20
-5049.119140625
 10
4772.455078125
 20
-5049.119140625
 10
4782.3359375
 20
-5049.119140625
 10
4792.216796875
 20
-5049.119140625
 10
4802.09765625
 20
-5049.119140625
 10
4811.978515625
 20
-5049.119140625
 10
4821.859375
 20
-5049.119140625
 10
4831.740234375
 20
-5049.119140625
 10
4841.62109375
 20
-5049.119140625
 10
4851.501953125
 20
-5049.119140625
 10
4861.3828125
 20
-5049.119140625
 10
4871.263671875
 20
-5049.119140625
 10
4881.14453125
 20
-5049.119140625
 10
4891.025390625
 20
-5049.119140625
 10
4900.90625
 20
-5049.119140625
 10
4910.787109375
 20
-5049.119140625
 10
4920.66796875
 20
-5049.119140625
 10
4930.548828125
 20
-5049.119140625
 10
4940.4296875
 20
-5049.119140625
 10
4950.310546875
 20
-5049.119140625
 10
4960.19140625
 20
-5049.119140625
 10
4970.072265625
 20
-5049.119140625
 10
4979.953125
 20
-5049.119140625
 10
4989.833984375
 20
-5049.119140625
 10
4999.71484375
 20
-5049.119140625
 10
5009.595703125
 20
-5049.119140625
 10
5019.4765625
 20
-5049.119140625
 10
5029.357421875
 20
-5049.119140625
 10
5039.23828125
 20
-5049.119140625
 10
5049.119140625
 20
-5049.119140625
 10
5049.119140625
 20
-5039.23828125
 10
5049.119140625
 20
-5029.357421875
 10
5049.119140625
 20
-5019.4765625
 10
5049.119140625
 20
-5009.595703125
 10
5049.119140625
 20
-4999.71484375
 10
5049.119140625
 20
-4989.833984375
 10
5049.119140625
 20
-4979.953125
 10
5049.119140625
 20
-4970.072265625
 10
5049.119140625
 20
-4960.19140625
 10
5049.119140625
 20
-4950.310546875
 10
5049.119140625
 20
-4940.4296875
 10
5049.119140625
 20
-4930.548828125
 10
5049.119140625
 20
-4920.66796875
 10
5049.119140625
 20
-4910.787109375
 10
5049.119140625
 20
-4900.90625
 10
5049.119140625
 20
-4891.025390625
 10
5049.119140625
 20
-4881.14453125
 10
5049.119140625
 20
-4871.263671875
 10
5049.119140625
 20
-4861.3828125
 10
5049.119140625
 20
-4851.501953125
 10
5049.119140625
 20
-4841.62109375
 10
5049.119140625
 20
-4831.740234375
 10
5049.119140625
 20
-4821.859375
 10
5049.119140625
 20
-4811.978515625
 10
5049.119140625
 20
-4802.09765625
 10
5049.119140625
 20
-4792.216796875
 10
5049.119140625
 20
-4782.3359375
 10
5049.119140625
 20
-4772.455078125
 10
5049.119140625
 20
-4762.57421875
 10
5049.119140625
 20
-4752.693359375
 10
5049.119140625
 20
-4742.8125
 10
5049.119140625
 20
-4732.931640625
 10
5049.119140625
 20
-4723.05078125
 10
5049.119140625
 20
-4713.169921875
 10
5049.119140625
 20
-4703.2890625
 10
5049.119140625
 20
-4693.408203125
 10
5049.119140625
 20
-4683.52734375
 10
5049.119140625
 20
-4673.646484375
 10
5049.119140625
 20
-4663.765625
 10
5049.119140625
 20
-4653.884765625
 10
5049.119140625
 20
-4644.00390625
 10
5049.119140625
 20
-4634.123046875
 10
5049.119140625
 20
-4624.2421875
 10
5049.119140625
 20
-4614.361328125
 10
5049.119140625
 20
-4604.48046875
 10
5049.119140625
 20
-4594.599609375
 10
5049.119140625
 20
-4584.71875
 10
5049.119140625
 20
-4574.837890625
 10
5049.119140625
 20
-4564.95703125
 10
5049.119140625
 20
-4555.076171875
 10
5049.119140625
 20
-4545.1953125
 10
5049.119140625
 20
-4535.314453125
 10
5049.119140625
 20
-4525.43359375
 10
5049.119140625
 20
-4515.552734375
 10
5049.119140625
 20
-4505.671875
 10
5049.119140625
 20
-4495.791015625
 10
5049.119140625
 20
-4485.91015625
 10
5049.119140625
 20
-4476.029296875
 10
5049.119140625
 20
-4466.1484375
 10
5049.119140625
 20
-4456.267578125
 10
5049.119140625
 20
-4446.38671875
 10
5049.119140625
 20
-4436.505859375
 10
5049.119140625
 20
-4426.625
 10
5049.119140625
 20
-4416.744140625
 10
5049.119140625
 20
-4406.86328125
 10
5049.119140625
 20
-4396.982421875
 10
5049.119140625
 20
-4387.1015625
 10
5049.119140625
 20
-4377.220703125
 10
5049.119140625
 20
-4367.33984375
 10
5049.119140625
 20
-4357.458984375
 10
5049.119140625
 20
-4347.578125
 10
5049.119140625
 20
-4337.697265625
 10
5049.119140625
 20
-4327.81640625
 10
5049.119140625
 20
-4317.935546875
 10
5049.119140625
 20
-4308.0546875
 10
5049.119140625
 20
-4298.173828125
 10
5049.119140625
 20
-4288.29296875
 10
5049.119140625
 20
-4278.412109375
 10
5049.119140625
 20
-4268.53125
 10
5049.119140625
 20
-4258.650390625
 10
5049.119140625
 20
-4248.76953125
 10
5049.119140625
 20
-4238.888671875
 10
5049.119140625
 20
-4229.0078125
 10
5049.119140625
 20
-4219.126953125
 10
5049.119140625
 20
-4209.24609375
 10
5049.119140625
 20
-4199.365234375
 10
5049.119140625
 20
-4189.484375
 10
5049.119140625
 20
-4179.603515625
 10
5049.119140625
 20
-4169.72265625
 10
5049.119140625
 20
-4159.841796875
 10
5049.119140625
 20
-4149.9609375
 10
5049.119140625
 20
-4140.080078125
 10
5049.119140625
 20
-4130.19921875
 10
5049.119140625
 20
-4120.318359375
 10
5049.119140625
 20
-4110.4375
 10
5049.119140625
 20
-4100.556640625
 10
5049.119140625
 20
-4090.67578125
 10
5049.119140625
 20
-4080.794921875
 10
5049.119140625
 20
-4070.9140625
 10
5049.119140625
 20
-4061.033203125
 10
5049.119140625
 20
-4051.15234375
 10
5049.119140625
 20
-4041.271484375
 10
5049.119140625
 20
-4031.390625
 10
5049.119140625
 20
-4021.509765625
 10
5049.119140625
 20
-4011.62890625
 10
5049.119140625
 20
-4001.748046875
 10
5049.119140625
 20
-3991.8671875
 10
5049.119140625
 20
-3981.986328125
 10
5049.119140625
 20
-3972.10546875
 10
5049.119140625
 20
-3962.224609375
 10
5049.119140625
 20
-3952.34375
 10
5049.119140625
 20
-3942.462890625
 10
5049.119140625
 20
-3932.58203125
 10
5049.119140625
 20
-3922.701171875
 10
5049.119140625
 20
-3912.8203125
 10
5049.119140625
 20
-3902.939453125
 10
5049.119140625
 20
-3893.05859375
 10
5049.119140625
 20
-3883.177734375
 10
5049.119140625
 20
-3873.296875
 10
5049.119140625
 20
-3863.416015625
 10
5049.119140625
 20
-3853.53515625
 10
5049.119140625
 20
-3843.654296875
 10
5049.119140625
 20
-3833.7734375
 10
5049.119140625
 20
-3823.892578125
 10
5049.119140625
 20
-3814.01171875
 10
5049.119140625
 20
-3804.130859375
 10
5049.119140625
 20
-3794.25
 10
5049.119140625
 20
-3784.369140625
 10
5049.119140625
 20
-3774.48828125
 10
5049.119140625
 20
-3764.607421875
 10
5049.119140625
 20
-3754.7265625
 10
5049.119140625
 20
-3744.845703125
 10
5049.119140625
 20
-3734.96484375
 10
5049.119140625
 20
-3725.083984375
 10
5049.119140625
 20
-3715.203125
 10
5049.119140625
 20
-3705.322265625
 10
5049.119140625
 20
-3695.44140625
 10
5049.119140625
 20
-3685.560546875
 10
5049.119140625
 20
-3675.6796875
 10
5049.119140625
 20
-3665.798828125
 10
5049.119140625
 20
-3655.91796875
 10
5049.119140625
 20
-3646.037109375
 10
5049.119140625
 20
-3636.15625
 10
5049.119140625
 20
-3626.275390625
 10
5049.119140625
 20
-3616.39453125
 10
5049.119140625
 20
-3606.513671875
 10
5049.119140625
 20
-3596.6328125
 10
5049.119140625
 20
-3586.751953125
 10
5049.119140625
 20
-3576.87109375
 10
5049.119140625
 20
-3566.990234375
 10
5049.119140625
 20
-3557.109375
 10
5049.119140625
 20
-3547.228515625
 10
5049.119140625
 20
-3537.34765625
 10
5049.119140625
 20
-3527.466796875
 10
5049.119140625
 20
-3517.5859375
 10
5049.119140625
 20
-3507.705078125
 10
5049.119140625
 20
-3497.82421875
 10
5049.119140625
 20
-3487.943359375
 10
5049.119140625
 20
-3478.0625
 10
5049.119140625
 20
-3468.181640625
 10
5049.119140625
 20
-3458.30078125
 10
5049.119140625
 20
-3448.419921875
 10
5049.119140625
 20
-3438.5390625
 10
5049.119140625
 20
-3428.658203125
 10
5049.119140625
 20
-3418.77734375
 10
5049.119140625
 20
-3408.896484375
 10
5049.119140625
 20
-3399.015625
 10
5049.119140625
 20
-3389.134765625
 10
5049.119140625
 20
-3379.25390625
 10
5049.119140625
 20
-3369.373046875
 10
5049.119140625
 20
-3359.4921875
 10
5049.119140625
 20
-3349.611328125
 10
5049.119140625
 20
-3339.73046875
 10
5049.119140625
 20
-3329.849609375
 10
5049.119140625
 20
-3319.96875
 10
5049.119140625
 20
-3310.087890625
 10
5049.119140625
 20
-3300.20703125
 10
5049.119140625
 20
-3290.326171875
 10
5049.119140625
 20
-3280.4453125
 10
5049.119140625
 20
-3270.564453125
 10
5049.119140625
 20
-3260.68359375
 10
5049.119140625
 20
-3250.802734375
 10
5049.119140625
 20
-3240.921875
 10
5049.119140625
 20
-3231.041015625
 10
5049.119140625
 20
-3221.16015625
 10
5049.119140625
 20
-3211.279296875
 10
5049.119140625
 20
-3201.3984375
 10
5049.119140625
 20
-3191.517578125
 10
5049.119140625
 20
-3181.63671875
 10
5049.119140625
 20
-3171.755859375
 10
5049.119140625
 20
-3161.875
 10
5049.119140625
 20
-3151.994140625
 10
5049.119140625
 20
-3142.11328125
 10
5049.119140625
 20
-3132.232421875
 10
5049.119140625
 20
-3122.3515625
 10
5049.119140625
 20
-3112.470703125
 10
5049.119140625
 20
-3102.58984375
 10
5049.119140625
 20
-3092.708984375
 10
5049.119140625
 20
-3082.828125
 10
5049.119140625
 20
-3072.947265625
 10
5049.119140625
 20
-3063.06640625
 10
5049.119140625
 20
-3053.185546875
 10
5049.119140625
 20
-3043.3046875
 10
5049.119140625
 20
-3033.423828125
 10
5049.119140625
 20
-3023.54296875
 10
5049.119140625
 20
-3013.662109375
 10
5049.119140625
 20
-3003.78125
 10
5049.119140625
 20
-2993.900390625
 10
5049.119140625
 20
-2984.01953125
 10
5049.119140625
 20
-2974.138671875
 10
5049.119140625
 20
-2964.2578125
 10
5049.119140625
 20
-2954.376953125
 10
5049.119140625
 20
-2944.49609375
 10
5049.119140625
 20
-2934.615234375
 10
5049.119140625
 20
-2924.734375
 10
5049.119140625
 20
-2914.853515625
 10
5049.119140625
 20
-2904.97265625
 10
5049.119140625
 20
-2895.091796875
 10
5049.119140625
 20
-2885.2109375
 10
5049.119140625
 20
-2875.330078125
 10
5049.119140625
 20
-2865.44921875
 10
5049.119140625
 20
-2855.568359375
 10
5049.119140625
 20
-2845.6875
 10
5049.119140625
 20
-2835.806640625
 10
5049.119140625
 20
-2825.92578125
 10
5049.119140625
 20
-2816.044921875
 10
5049.119140625
 20
-2806.1640625
 10
5049.119140625
 20
-2796.283203125
 10
5049.119140625
 20
-2786.40234375
 10
5049.119140625
 20
-2776.521484375
 10
5049.119140625
 20
-2766.640625
 10
5049.119140625
 20
-2756.759765625
 10
5049.119140625
 20
-2746.87890625
 10
5049.119140625
 20
-2736.998046875
 10
5049.119140625
 20
-2727.1171875
 10
5049.119140625
 20
-2717.236328125
 10
5049.119140625
 20
-2707.35546875
 10
5049.119140625
 20
-2697.474609375
 10
5049.119140625
 20
-2687.59375
 10
5049.119140625
 20
-2677.712890625
 10
5049.119140625
 20
-2667.83203125
 10
5049.119140625
 20
-2657.951171875
 10
5049.119140625
 20
-2648.0703125
 10
5049.119140625
 20
-2638.189453125
 10
5049.119140625
 20
-2628.30859375
 10
5049.119140625
 20
-2618.427734375
 10
5049.119140625
 20
-2608.546875
 10
5049.119140625
 20
-2598.666015625
 10
5049.119140625
 20
-2588.78515625
 10
5049.119140625
 20
-2578.904296875
 10
5049.119140625
 20
-2569.0234375
 10
5049.119140625
 20
-2559.142578125
 10
5049.119140625
 20
-2549.26171875
 10
5049.119140625
 20
-2539.380859375
 10
5049.119140625
 20
-2529.5
 10
5049.119140625
 20
-2519.619140625
 10
5049.119140625
 20
-2509.73828125
 10
5049.119140625
 20
-2499.857421875
 10
5049.119140625
 20
-2489.9765625
 10
5049.119140625
 20
-2480.095703125
 10
5049.119140625
 20
-2470.21484375
 10
5049.119140625
 20
-2460.333984375
 10
5049.119140625
 20
-2450.453125
 10
5049.119140625
 20
-2440.572265625
 10
5049.119140625
 20
-2430.69140625
 10
5049.119140625
 20
-2420.810546875
 10
5049.119140625
 20
-2410.9296875
 10
5049.119140625
 20
-2401.048828125
 10
5049.119140625
 20
-2391.16796875
 10
5049.119140625
 20
-2381.287109375
 10
5049.119140625
 20
-2371.40625
 10
5049.119140625
 20
-2361.525390625
 10
5049.119140625
 20
-2351.64453125
 10
5049.119140625
 20
-2341.763671875
 10
5049.119140625
 20
-2331.8828125
 10
5049.119140625
 20
-2322.001953125
 10
5049.119140625
 20
-2312.12109375
 10
5049.119140625
 20
-2302.240234375
 10
5049.119140625
 20
-2292.359375
 10
5049.119140625
 20
-2282.478515625
 10
5049.119140625
 20
-2272.59765625
 10
5049.119140625
 20
-2262.716796875
 10
5049.119140625
 20
-2252.8359375
 10
5049.119140625
 20
-2242.955078125
 10
5049.119140625
 20
-2233.07421875
 10
5049.119140625
 20
-2223.193359375
 10
5049.119140625
 20
-2213.3125
 10
5049.119140625
 20
-2203.431640625
 10
5049.119140625
 20
-2193.55078125
 10
5049.119140625
 20
-2183.669921875
 10
5049.119140625
 20
-2173.7890625
 10
5049.119140625
 20
-2163.908203125
 10
5049.119140625
 20
-2154.02734375
 10
5049.119140625
 20
-2144.146484375
 10
5049.119140625
 20
-2134.265625
 10
5049.119140625
 20
-2124.384765625
 10
5049.119140625
 20
-2114.50390625
 10
5049.119140625
 20
-2104.623046875
 10
5049.119140625
 20
-2094.7421875
 10
5049.119140625
 20
-2084.861328125
 10
5049.119140625
 20
-2074.98046875
 10
5049.119140625
 20
-2065.099609375
 10
5049.119140625
 20
-2055.21875
 10
5049.119140625
 20
-2045.337890625
 10
5049.119140625
 20
-2035.45703125
 10
5049.119140625
 20
-2025.576171875
 10
5049.119140625
 20
-2015.6953125
 10
5049.119140625
 20
-2005.814453125
 10
5049.119140625
 20
-1995.93359375
 10
5049.119140625
 20
-1986.052734375
 10
5049.119140625
 20
-1976.171875
 10
5049.119140625
 20
-1966.291015625
 10
5049.119140625
 20
-1956.41015625
 10
5049.119140625
 20
-1946.529296875
 10
5049.119140625
 20
-1936.6484375
 10
5049.119140625
 20
-1926.767578125
 10
5049.119140625
 20
-1916.88671875
 10
5049.119140625
 20
-1907.005859375
 10
5049.119140625
 20
-1897.125
 10
5049.119140625
 20
-1887.244140625
 10
5049.119140625
 20
-1877.36328125
 10
5049.119140625
 20
-1867.482421875
 10
5049.119140625
 20
-1857.6015625
 10
5049.119140625
 20
-1847.720703125
 10
5049.119140625
 20
-1837.83984375
 10
5049.119140625
 20
-1827.958984375
 10
5049.119140625
 20
-1818.078125
 10
5049.119140625
 20
-1808.197265625
 10
5049.119140625
 20
-1798.31640625
 10
5049.119140625
 20
-1788.435546875
 10
5049.119140625
 20
-1778.5546875
 10
5049.119140625
 20
-1768.673828125
 10
5049.119140625
 20
-1758.79296875
 10
5049.119140625
 20
-1748.912109375
 10
5049.119140625
 20
-1739.03125
 10
5049.119140625
 20
-1729.150390625
 10
5049.119140625
 20
-1719.26953125
 10
5049.119140625
 20
-1709.388671875
 10
5049.119140625
 20
-1699.5078125
 10
5049.119140625
 20
-1689.626953125
 10
5049.119140625
 20
-1679.74609375
 10
5049.119140625
 20
-1669.865234375
 10
5049.119140625
 20
-1659.984375
 10
5049.119140625
 20
-1650.103515625
 10
5049.119140625
 20
-1640.22265625
 10
5049.119140625
 20
-1630.341796875
 10
5049.119140625
 20
-1620.4609375
 10
5049.119140625
 20
-1610.580078125
 10
5049.119140625
 20
-1600.69921875
 10
5049.119140625
 20
-1590.818359375
 10
5049.119140625
 20
-1580.9375
 10
5049.119140625
 20
-1571.056640625
 10
5049.119140625
 20
-1561.17578125
 10
5049.119140625
 20
-1551.294921875
 10
5049.119140625
 20
-1541.4140625
 10
5049.119140625
 20
-1531.533203125
 10
5049.119140625
 20
-1521.65234375
 10
5049.119140625
 20
-1511.771484375
 10
5049.119140625
 20
-1501.890625
 10
5049.119140625
 20
-1492.009765625
 10
5049.119140625
 20
-1482.12890625
 10
5049.119140625
 20
-1472.248046875
 10
5049.119140625
 20
-1462.3671875
 10
5049.119140625
 20
-1452.486328125
 10
5049.119140625
 20
-1442.60546875
 10
5049.119140625
 20
-1432.724609375
 10
5049.119140625
 20
-1422.84375
 10
5049.119140625
 20
-1412.962890625
 10
5049.119140625
 20
-1403.08203125
 10
5049.119140625
 20
-1393.201171875
 10
5049.119140625
 20
-1383.3203125
 10
5049.119140625
 20
-1373.439453125
 10
5049.119140625
 20
-1363.55859375
 10
5049.119140625
 20
-1353.677734375
 10
5049.119140625
 20
-1343.796875
 10
5049.119140625
 20
-1333.916015625
 10
5049.119140625
 20
-1324.03515625
 10
5049.119140625
 20
-1314.154296875
 10
5049.119140625
 20
-1304.2734375
 10
5049.119140625
 20
-1294.392578125
 10
5049.119140625
 20
-1284.51171875
 10
5049.119140625
 20
-1274.630859375
 10
5049.119140625
 20
-1264.75
 10
5049.119140625
 20
-1254.869140625
 10
5049.119140625
 20
-1244.98828125
 10
5049.119140625
 20
-1235.107421875
 10
5049.119140625
 20
-1225.2265625
 10
5049.119140625
 20
-1215.345703125
 10
5049.119140625
 20
-1205.46484375
 10
5049.119140625
 20
-1195.583984375
 10
5049.119140625
 20
-1185.703125
 10
5049.119140625
 20
-1175.822265625
 10
5049.119140625
 20
-1165.94140625
 10
5049.119140625
 20
-1156.060546875
 10
5049.119140625
 20
-1146.1796875
 10
5049.119140625
 20
-1136.298828125
 10
5049.119140625
 20
-1126.41796875
 10
5049.119140625
 20
-1116.537109375
 10
5049.119140625
 20
-1106.65625
 10
5049.119140625
 20
-1096.775390625
 10
5049.119140625
 20
-1086.89453125
 10
5049.119140625
 20
-1077.013671875
 10
5049.119140625
 20
-1067.1328125
 10
5049.119140625
 20
-1057.251953125
 10
5049.119140625
 20
-1047.37109375
 10
5049.119140625
 20
-1037.490234375
 10
5049.119140625
 20
-1027.609375
 10
5049.119140625
 20
-1017.728515625
 10
5049.119140625
 20
-1007.84765625
 10
5049.119140625
 20
-997.966796875
 10
5049.119140625
 20
-988.0859375
 10
5049.119140625
 20
-978.205078125
 10
5049.119140625
 20
-968.32421875
 10
5049.119140625
 20
-958.443359375
 10
5049.119140625
 20
-948.5625
 10
5049.119140625
 20
-938.681640625
 10
5049.119140625
 20
-928.80078125
 10
5049.119140625
 20
-918.919921875
 10
5049.119140625
 20
-909.0390625
 10
5049.119140625
 20
-899.158203125
 10
5049.119140625
 20
-889.27734375
 10
5049.119140625
 20
-879.396484375
 10
5049.119140625
 20
-869.515625
 10
5049.119140625
 20
-859.634765625
 10
5049.119140625
 20
-849.75390625
 10
5049.119140625
 20
-839.873046875
 10
5049.119140625
 20
-829.9921875
 10
5049.119140625
 20
-820.111328125
 10
5049.119140625
 20
-810.23046875
 10
5049.119140625
 20
-800.349609375
 10
5049.119140625
 20
-790.46875
 10
5049.119140625
 20
-780.587890625
 10
5049.119140625
 20
-770.70703125
 10
5049.119140625
 20
-760.826171875
 10
5049.119140625
 20
-750.9453125
 10
5049.119140625
 20
-741.064453125
 10
5049.119140625
 20
-731.18359375
 10
5049.119140625
 20
-721.302734375
 10
5049.119140625
 20
-711.421875
 10
5049.119140625
 20
-701.541015625
 10
5049.119140625
 20
-691.66015625
 10
5049.119140625
 20
-681.779296875
 10
5049.119140625
 20
-671.8984375
 10
5049.119140625
 20
-662.017578125
 10
5049.119140625
 20
-652.13671875
 10
5049.119140625
 20
-642.255859375
 10
5049.119140625
 20
-632.375
 10
5049.119140625
 20
-622.494140625
 10
5049.119140625
 20
-612.61328125
 10
5049.119140625
 20
-602.732421875
 10
5049.119140625
 20
-592.8515625
 10
5049.119140625
 20
-582.970703125
 10
5049.119140625
 20
-573.08984375
 10
5049.119140625
 20
-563.208984375
 10
5049.119140625
 20
-553.328125
 10
5049.119140625
 20
-543.447265625
 10
5049.119140625
 20
-533.56640625
 10
5049.119140625
 20
-523.685546875
 10
5049.119140625
 20
-513.8046875
 10
5049.119140625
 20
-503.923828125
 10
5049.119140625
 20
-494.04296875
 10
5049.119140625
 20
-484.162109375
 10
5049.119140625
 20
-474.28125
 10
5049.119140625
 20
-464.400390625
 10
5049.119140625
 20
-454.51953125
 10
5049.119140625
 20
-444.638671875
 10
5049.119140625
 20
-434.7578125
 10
5049.119140625
 20
-424.876953125
 10
5049.119140625
 20
-414.99609375
 10
5049.119140625
 20
-405.115234375
 10
5049.119140625
 20
-395.234375
 10
5049.119140625
 20
-385.353515625
 10
5049.119140625
 20
-375.47265625
 10
5049.119140625
 20
-365.591796875
 10
5049.119140625
 20
-355.7109375
 10
5049.119140625
 20
-345.830078125
 10
5049.119140625
 20
-335.94921875
 10
5049.119140625
 20
-326.068359375
 10
5049.119140625
 20
-316.1875
 10
5049.119140625
 20
-306.306640625
 10
5049.119140625
 20
-296.42578125
 10
5049.119140625
 20
-286.544921875
 10
5049.119140625
 20
-276.6640625
 10
5049.119140625
 20
-266.783203125
 10
5049.119140625
 20
-256.90234375
 10
5049.119140625
 20
-247.021484375
 10
5049.119140625
 20
-237.140625
 10
5049.119140625
 20
-227.259765625
 10
5049.119140625
 20
-217.37890625
 10
5049.119140625
 20
-207.498046875
 10
5049.119140625
 20
-197.6171875
 10
5049.119140625
 20
-187.736328125
 10
5049.119140625
 20
-177.85546875
 10
5049.119140625
 20
-167.974609375
 10
5049.119140625
 20
-158.09375
 10
5049.119140625
 20
-148.212890625
 10
5049.119140625
 20
-138.33203125
 10
5049.119140625
 20
-128.451171875
 10
5049.119140625
 20
-118.5703125
 10
5049.119140625
 20
-108.689453125
 10
5049.119140625
 20
-98.80859375
 10
5049.119140625
 20
-88.927734375
 10
5049.119140625
 20
-79.046875
 10
5049.119140625
 20
-69.166015625
 10
5049.119140625
 20
-59.28515625
 10
5049.119140625
 20
-49.404296875
 10
5049.119140625
 20
-39.5234375
 10
5049.119140625
 20
-29.642578125
 10
5049.119140625
 20
-19.76171875
 10
5049.119140625
 20
-9.880859375
 10
5049.119140625
 20
-0.0
 10
5039.23828125
 20
-0.0
 10
5029.357421875
 20
-0.0
 10
5019.4765625
 20
-0.0
 10
5009.595703125
 20
-0.0
 10
4999.71484375
 20
-0.0
 10
4989.833984375
 20
-0.0
 10
4979.953125
 20
-0.0
 10
4970.072265625
 20
-0.0
 10
4960.19140625
 20
-0.0
 10
4950.310546875
 20
-0.0
 10
4940.4296875
 20
-0.0
 10
4930.548828125
 20
-0.0
 10
4920.66796875
 20
-0.0
 10
4910.787109375
 20
-0.0
 10
4900.90625
 20
-0.0
 10
4891.025390625
 20
-0.0
 10
4881.14453125
 20
-0.0
 10
4871.263671875
 20
-0.0
 10
4861.3828125
 20
-0.0
 10
4851.501953125
 20
-0.0
 10
4841.62109375
 20
-0.0
 10
4831.740234375
 20
-0.0
 10
4821.859375
 20
-0.0
 10
4811.978515625
 20
-0.0
 10
4802.09765625
 20
-0.0
 10
4792.216796875
 20
-0.0
 10
4782.3359375
 20
-0.0
 10
4772.455078125
 20
-0.0
 10
4762.57421875
 20
-0.0
 10
4752.693359375
 20
-0.0
 10
4742.8125
 20
-0.0
 10
4732.931640625
 20
-0.0
 10
4723.05078125
 20
-0.0
 10
4713.169921875
 20
-0.0
 10
4703.2890625
 20
-0.0
 10
4693.408203125
 20
-0.0
 10
4683.52734375
 20
-0.0
 10
4673.646484375
 20
-0.0
 10
4663.765625
 20
-0.0
 10
4653.884765625
 20
-0.0
 10
4644.00390625
 20
-0.0
 10
4634.123046875
 20
-0.0
 10
4624.2421875
 20
-0.0
 10
4614.361328125
 20
-0.0
 10
4604.48046875
 20
-0.0
 10
4594.599609375
 20
-0.0
 10
4584.71875
 20
-0.0
 10
4574.837890625
 20
-0.0
 10
4564.95703125
 20
-0.0
 10
4555.076171875
 20
-0.0
 10
4545.1953125
 20
-0.0
 10
4535.314453125
 20
-0.0
 10
4525.43359375
 20
-0.0
 10
4515.552734375
 20
-0.0
 10
4505.671875
 20
-0.0
 10
4495.791015625
 20
-0.0
 10
4485.91015625
 20
-0.0
 10
4476.029296875
 20
-0.0
 10
4466.1484375
 20
-0.0
 10
4456.267578125
 20
-0.0
 10
4446.38671875
 20
-0.0
 10
4436.505859375
 20
-0.0
 10
4426.625
 20
-0.0
 10
4416.744140625
 20
-0.0
 10
4406.86328125
 20
-0.0
 10
4396.982421875
 20
-0.0
 10
4387.1015625
 20
-0.0
 10
4377.220703125
 20
-0.0
 10
4367.33984375
 20
-0.0
 10
4357.458984375
 20
-0.0
 10
4347.578125
 20
-0.0
 10
4337.697265625
 20
-0.0
 10
4327.81640625
 20
-0.0
 10
4317.935546875
 20
-0.0
 10
4308.0546875
 20
-0.0
 10
4298.173828125
 20
-0.0
 10
4288.29296875
 20
-0.0
 10
4278.412109375
 20
-0.0
 10
4268.53125
 20
-0.0
 10
4258.650390625
 20
-0.0
 10
4248.76953125
 20
-0.0
 10
4238.888671875
 20
-0.0
 10
4229.0078125
 20
-0.0
 10
4219.126953125
 20
-0.0
 10
4209.24609375
 20
-0.0
 10
4199.365234375
 20
-0.0
 10
4189.484375
 20
-0.0
 10
4179.603515625
 20
-0.0
 10
4169.72265625
 20
-0.0
 10
4159.841796875
 20
-0.0
 10
4149.9609375
 20
-0.0
 10
4140.080078125
 20
-0.0
 10
4130.19921875
 20
-0.0
 10
4120.318359375
 20
-0.0
 10
4110.4375
 20
-0.0
 10
4100.556640625
 20
-0.0
 10
4090.67578125
 20
-0.0
 10
4080.794921875
 20
-0.0
 10
4070.9140625
 20
-0.0
 10
4061.033203125
 20
-0.0
 10
4051.15234375
 20
-0.0
 10
4041.271484375
 20
-0.0
 10
4031.390625
 20
-0.0
 10
4021.509765625
 20
-0.0
 10
4011.62890625
 20
-0.0
 10
4001.748046875
 20
-0.0
 10
3991.8671875
 20
-0.0
 10
3981.986328125
 20
-0.0
 10
3972.10546875
 20
-0.0
 10
3962.224609375
 20
-0.0
 10
3952.34375
 20
-0.0
 10
3942.462890625
 20
-0.0
 10
3932.58203125
 20
-0.0
 10
3922.701171875
 20
-0.0
 10
3912.8203125
 20
-0.0
 10
3902.939453125
 20
-0.0
 10
3893.05859375
 20
-0.0
 10
3883.177734375
 20
-0.0
 10
3873.296875
 20
-0.0
 10
3863.416015625
 20
-0.0
 10
3853.53515625
 20
-0.0
 10
3843.654296875
 20
-0.0
 10
3833.7734375
 20
-0.0
 10
3823.892578125
 20
-0.0
 10
3814.01171875
 20
-0.0
 10
3804.130859375
 20
-0.0
 10
3794.25
 20
-0.0
 10
3784.369140625
 20
-0.0
 10
3774.48828125
 20
-0.0
 10
3764.607421875
 20
-0.0
 10
3754.7265625
 20
-0.0
 10
3744.845703125
 20
-0.0
 10
3734.96484375
 20
-0.0
 10
3725.083984375
 20
-0.0
 10
3715.203125
 20
-0.0
 10
3705.322265625
 20
-0.0
 10
3695.44140625
 20
-0.0
 10
3685.560546875
 20
-0.0
 10
3675.6796875
 20
-0.0
 10
3665.798828125
 20
-0.0
 10
3655.91796875
 20
-0.0
 10
3646.037109375
 20
-0.0
 10
3636.15625
 20
-0.0
 10
3626.275390625
 20
-0.0
 10
3616.39453125
 20
-0.0
 10
3606.513671875
 20
-0.0
 10
3596.6328125
 20
-0.0
 10
3586.751953125
 20
-0.0
 10
3576.87109375
 20
-0.0
 10
3566.990234375
 20
-0.0
 10
3557.109375
 20
-0.0
 10
3547.228515625
 20
-0.0
 10
3537.34765625
 20
-0.0
 10
3527.466796875
 20
-0.0
 10
3517.5859375
 20
-0.0
 10
3507.705078125
 20
-0.0
 10
3497.82421875
 20
-0.0
 10
3487.943359375
 20
-0.0
 10
3478.0625
 20
-0.0
 10
3468.181640625
 20
-0.0
 10
3458.30078125
 20
-0.0
 10
3448.419921875
 20
-0.0
 10
3438.5390625
 20
-0.0
 10
3428.658203125
 20
-0.0
 10
3418.77734375
 20
-0.0
 10
3408.896484375
 20
-0.0
 10
3399.015625
 20
-0.0
 10
3389.134765625
 20
-0.0
 10
3379.25390625
 20
-0.0
 10
3369.373046875
 20
-0.0
 10
3359.4921875
 20
-0.0
 10
3349.611328125
 20
-0.0
 10
3339.73046875
 20
-0.0
 10
3329.849609375
 20
-0.0
 10
3319.96875
 20
-0.0
 10
3310.087890625
 20
-0.0
 10
3300.20703125
 20
-0.0
 10
3290.326171875
 20
-0.0
 10
3280.4453125
 20
-0.0
 10
3270.564453125
 20
-0.0
 10
3260.68359375
 20
-0.0
 10
3250.802734375
 20
-0.0
 10
3240.921875
 20
-0.0
 10
3231.041015625
 20
-0.0
 10
3221.16015625
 20
-0.0
 10
3211.279296875
 20
-0.0
 10
3201.3984375
 20
-0.0
 10
3191.517578125
 20
-0.0
 10
3181.63671875
 20
-0.0
 10
3171.755859375
 20
-0.0
 10
3161.875
 20
-0.0
 10
3151.994140625
 20
-0.0
 10
3142.11328125
 20
-0.0
 10
3132.232421875
 20
-0.0
 10
3122.3515625
 20
-0.0
 10
3112.470703125
 20
-0.0
 10
3102.58984375
 20
-0.0
 10
3092.708984375
 20
-0.0
 10
3082.828125
 20
-0.0
 10
3072.947265625
 20
-0.0
 10
3063.06640625
 20
-0.0
 10
3053.185546875
 20
-0.0
 10
3043.3046875
 20
-0.0
 10
3033.423828125
 20
-0.0
 10
3023.54296875
 20
-0.0
 10
3013.662109375
 20
-0.0
 10
3003.78125
 20
-0.0
 10
2993.900390625
 20
-0.0
 10
2984.01953125
 20
-0.0
 10
2974.138671875
 20
-0.0
 10
2964.2578125
 20
-0.0
 10
2954.376953125
 20
-0.0
 10
2944.49609375
 20
-0.0
 10
2934.615234375
 20
-0.0
 10
2924.734375
 20
-0.0
 10
2914.853515625
 20
-0.0
 10
2904.97265625
 20
-0.0
 10
2895.091796875
 20
-0.0
 10
2885.2109375
 20
-0.0
 10
2875.330078125
 20
-0.0
 10
2865.44921875
 20
-0.0
 10
2855.568359375
 20
-0.0
 10
2845.6875
 20
-0.0
 10
2835.806640625
 20
-0.0
 10
2825.92578125
 20
-0.0
 10
2816.044921875
 20
-0.0
 10
2806.1640625
 20
-0.0
 10
2796.283203125
 20
-0.0
 10
2786.40234375
 20
-0.0
 10
2776.521484375
 20
-0.0
 10
2766.640625
 20
-0.0
 10
2756.759765625
 20
-0.0
 10
2746.87890625
 20
-0.0
 10
2736.998046875
 20
-0.0
 10
2727.1171875
 20
-0.0
 10
2717.236328125
 20
-0.0
 10
2707.35546875
 20
-0.0
 10
2697.474609375
 20
-0.0
 10
2687.59375
 20
-0.0
 10
2677.712890625
 20
-0.0
 10
2667.83203125
 20
-0.0
 10
2657.951171875
 20
-0.0
 10
2648.0703125
 20
-0.0
 10
2638.189453125
 20
-0.0
 10
2628.30859375
 20
-0.0
 10
2618.427734375
 20
-0.0
 10
2608.546875
 20
-0.0
 10
2598.666015625
 20
-0.0
 10
2588.78515625
 20
-0.0
 10
2578.904296875
 20
-0.0
 10
2569.0234375
 20
-0.0
 10
2559.142578125
 20
-0.0
 10
2549.26171875
 20
-0.0
 10
2539.380859375
 20
-0.0
 10
2529.5
 20
-0.0
 10
2519.619140625
 20
-0.0
 10
2509.73828125
 20
-0.0
 10
2499.857421875
 20
-0.0
 10
2489.9765625
 20
-0.0
 10
2480.095703125
 20
-0.0
 10
2470.21484375
 20
-0.0
 10
2460.333984375
 20
-0.0
 10
2450.453125
 20
-0.0
 10
2440.572265625
 20
-0.0
 10
2430.69140625
 20
-0.0
 10
2420.810546875
 20
-0.0
 10
2410.9296875
 20
-0.0
 10
2401.048828125
 20
-0.0
 10
2391.16796875
 20
-0.0
 10
2381.287109375
 20
-0.0
 10
2371.40625
 20
-0.0
 10
2361.525390625
 20
-0.0
 10
2351.64453125
 20
-0.0
 10
2341.763671875
 20
-0.0
 10
2331.8828125
 20
-0.0
 10
2322.001953125
 20
-0.0
 10
2312.12109375
 20
-0.0
 10
2302.240234375
 20
-0.0
 10
2292.359375
 20
-0.0
 10
2282.478515625
 20
-0.0
 10
2272.59765625
 20
-0.0
 10
2262.716796875
 20
-0.0
 10
2252.8359375
 20
-0.0
 10
2242.955078125
 20
-0.0
 10
2233.07421875
 20
-0.0
 10
2223.193359375
 20
-0.0
 10
2213.3125
 20
-0.0
 10
2203.431640625
 20
-0.0
 10
2193.55078125
 20
-0.0
 10
2183.669921875
 20
-0.0
 10
2173.7890625
 20
-0.0
 10
2163.908203125
 20
-0.0
 10
2154.02734375
 20
-0.0
 10
2144.146484375
 20
-0.0
 10
2134.265625
 20
-0.0
 10
2124.384765625
 20
-0.0
 10
2114.50390625
 20
-0.0
 10
2104.623046875
 20
-0.0
 10
2094.7421875
 20
-0.0
 10
2084.861328125
 20
-0.0
 10
2074.98046875
 20
-0.0
 10
2065.099609375
 20
-0.0
 10
2055.21875
 20
-0.0
 10
2045.337890625
 20
-0.0
 10
2035.45703125
 20
-0.0
 10
2025.576171875
 20
-0.0
 10
2015.6953125
 20
-0.0
 10
2005.814453125
 20
-0.0
 10
1995.93359375
 20
-0.0
 10
1986.052734375
 20
-0.0
 10
1976.171875
 20
-0.0
 10
1966.291015625
 20
-0.0
 10
1956.41015625
 20
-0.0
 10
1946.529296875
 20
-0.0
 10
1936.6484375
 20
-0.0
 10
1926.767578125
 20
-0.0
 10
1916.88671875
 20
-0.0
 10
1907.005859375
 20
-0.0
 10
1897.125
 20
-0.0
 10
1887.244140625
 20
-0.0
 10
1877.36328125
 20
-0.0
 10
1867.482421875
 20
-0.0
 10
1857.6015625
 20
-0.0
 10
1847.720703125
 20
-0.0
 10
1837.83984375
 20
-0.0
 10
1827.958984375
 20
-0.0
 10
1818.078125
 20
-0.0
 10
1808.197265625
 20
-0.0
 10
1798.31640625
 20
-0.0
 10
1788.435546875
 20
-0.0
 10
1778.5546875
 20
-0.0
 10
1768.673828125
 20
-0.0
 10
1758.79296875
 20
-0.0
 10
1748.912109375
 20
-0.0
 10
1739.03125
 20
-0.0
 10
1729.150390625
 20
-0.0
 10
1719.26953125
 20
-0.0
 10
1709.388671875
 20
-0.0
 10
1699.5078125
 20
-0.0
 10
1689.626953125
 20
-0.0
 10
1679.74609375
 20
-0.0
 10
1669.865234375
 20
-0.0
 10
1659.984375
 20
-0.0
 10
1650.103515625
 20
-0.0
 10
1640.22265625
 20
-0.0
 10
1630.341796875
 20
-0.0
 10
1620.4609375
 20
-0.0
 10
1610.580078125
 20
-0.0
 10
1600.69921875
 20
-0.0
 10
1590.818359375
 20
-0.0
 10
1580.9375
 20
-0.0
 10
1571.056640625
 20
-0.0
 10
1561.17578125
 20
-0.0
 10
1551.294921875
 20
-0.0
 10
1541.4140625
 20
-0.0
 10
1531.533203125
 20
-0.0
 10
1521.65234375
 20
-0.0
 10
1511.771484375
 20
-0.0
 10
1501.890625
 20
-0.0
 10
1492.009765625
 20
-0.0
 10
1482.12890625
 20
-0.0
 10
1472.248046875
 20
-0.0
 10
1462.3671875
 20
-0.0
 10
1452.486328125
 20
-0.0
 10
1442.60546875
 20
-0.0
 10
1432.724609375
 20
-0.0
 10
1422.84375
 20
-0.0
 10
1412.962890625
 20
-0.0
 10
1403.08203125
 20
-0.0
 10
1393.201171875
 20
-0.0
 10
1383.3203125
 20
-0.0
 10
1373.439453125
 20
-0.0
 10
1363.55859375
 20
-0.0
 10
1353.677734375
 20
-0.0
 10
1343.796875
 20
-0.0
 10
1333.916015625
 20
-0.0
 10
1324.03515625
 20
-0.0
 10
1314.154296875
 20
-0.0
 10
1304.2734375
 20
-0.0
 10
1294.392578125
 20
-0.0
 10
1284.51171875
 20
-0.0
 10
1274.630859375
 20
-0.0
 10
1264.75
 20
-0.0
 10
1254.869140625
 20
-0.0
 10
1244.98828125
 20
-0.0
 10
1235.107421875
 20
-0.0
 10
1225.2265625
 20
-0.0
 10
1215.345703125
 20
-0.0
 10
1205.46484375
 20
-0.0
 10
1195.583984375
 20
-0.0
 10
1185.703125
 20
-0.0
 10
1175.822265625
 20
-0.0
 10
1165.94140625
 20
-0.0
 10
1156.060546875
 20
-0.0
 10
1146.1796875
 20
-0.0
 10
1136.298828125
 20
-0.0
 10
1126.41796875
 20
-0.0
 10
1116.537109375
 20
-0.0
 10
1106.65625
 20
-0.0
 10
1096.775390625
 20
-0.0
 10
1086.89453125
 20
-0.0
 10
1077.013671875
 20
-0.0
 10
1067.1328125
 20
-0.0
 10
1057.251953125
 20
-0.0
 10
1047.37109375
 20
-0.0
 10
1037.490234375
 20
-0.0
 10
1027.609375
 20
-0.0
 10
1017.728515625
 20
-0.0
 10
1007.84765625
 20
-0.0
 10
997.966796875
 20
-0.0
 10
988.0859375
 20
-0.0
 10
978.205078125
 20
-0.0
 10
968.32421875
 20
-0.0
 10
958.443359375
 20
-0.0
 10
948.5625
 20
-0.0
 10
938.681640625
 20
-0.0
 10
928.80078125
 20
-0.0
 10
918.919921875
 20
-0.0
 10
909.0390625
 20
-0.0
 10
899.158203125
 20
-0.0
 10
889.27734375
 20
-0.0
 10
879.396484375
 20
-0.0
 10
869.515625
 20
-0.0
 10
859.634765625
 20
-0.0
 10
849.75390625
 20
-0.0
 10
839.873046875
 20
-0.0
 10
829.9921875
 20
-0.0
 10
820.111328125
 20
-0.0
 10
810.23046875
 20
-0.0
 10
800.349609375
 20
-0.0
 10
790.46875
 20
-0.0
 10
780.587890625
 20
-0.0
 10
770.70703125
 20
-0.0
 10
760.826171875
 20
-0.0
 10
750.9453125
 20
-0.0
 10
741.064453125
 20
-0.0
 10
731.18359375
 20
-0.0
 10
721.302734375
 20
-0.0
 10
711.421875
 20
-0.0
 10
701.541015625
 20
-0.0
 10
691.66015625
 20
-0.0
 10
681.779296875
 20
-0.0
 10
671.8984375
 20
-0.0
 10
662.017578125
 20
-0.0
 10
652.13671875
 20
-0.0
 10
642.255859375
 20
-0.0
 10
632.375
 20
-0.0
 10
622.494140625
 20
-0.0
 10
612.61328125
 20
-0.0
 10
602.732421875
 20
-0.0
 10
592.8515625
 20
-0.0
 10
582.970703125
 20
-0.0
 10
573.08984375
 20
-0.0
 10
563.208984375
 20
-0.0
 10
553.328125
 20
-0.0
 10
543.447265625
 20
-0.0
 10
533.56640625
 20
-0.0
 10
523.685546875
 20
-0.0
 10
513.8046875
 20
-0.0
 10
503.923828125
 20
-0.0
 10
494.04296875
 20
-0.0
 10
484.162109375
 20
-0.0
 10
474.28125
 20
-0.0
 10
464.400390625
 20
-0.0
 10
454.51953125
 20
-0.0
 10
444.638671875
 20
-0.0
 10
434.7578125
 20
-0.0
 10
424.876953125
 20
-0.0
 10
414.99609375
 20
-0.0
 10
405.115234375
 20
-0.0
 10
395.234375
 20
-0.0
 10
385.353515625
 20
-0.0
 10
375.47265625
 20
-0.0
 10
365.591796875
 20
-0.0
 10
355.7109375
 20
-0.0
 10
345.830078125
 20
-0.0
 10
335.94921875
 20
-0.0
 10
326.068359375
 20
-0.0
 10
316.1875
 20
-0.0
 10
306.306640625
 20
-0.0
 10
296.42578125
 20
-0.0
 10
286.544921875
 20
-0.0
 10
276.6640625
 20
-0.0
 10
266.783203125
 20
-0.0
 10
256.90234375
 20
-0.0
 10
247.021484375
 20
-0.0
 10
237.140625
 20
-0.0
 10
227.259765625
 20
-0.0
 10
217.37890625
 20
-0.0
 10
207.498046875
 20
-0.0
 10
197.6171875
 20
-0.0
 10
187.736328125
 20
-0.0
 10
177.85546875
 20
-0.0
 10
167.974609375
 20
-0.0
 10
158.09375
 20
-0.0
 10
148.212890625
 20
-0.0
 10
138.33203125
 20
-0.0
 10
128.451171875
 20
-0.0
 10
118.5703125
 20
-0.0
 10
108.689453125
 20
-0.0
 10
98.80859375
 20
-0.0
 10
88.927734375
 20
-0.0
 10
79.046875
 20
-0.0
 10
69.166015625
 20
-0.0
 10
59.28515625
 20
-0.0
 10
49.404296875
 20
-0.0
 10
39.5234375
 20
-0.0
 10
29.642578125
 20
-0.0
 10
19.76171875
 20
-0.0
 10
9.880859375
 20
-0.0
  0
LWPOLYLINE
  5
52
330
17
100
AcDbEntity
  8
substrate
100
AcDbPolyline
 90
4
 70
1
 43
0.5
 10
2608.546875
 20
-2865.44921875
 10
2618.427734375
 20
-2855.568359375
 10
2628.30859375
 20
-2865.44921875
 10
2618.427734375
 20
-2875.330078125
  0
LWPOLYLINE
  5
53
330
17
100
AcDbEntity
  8
substrate
100
AcDbPolyline
 90
4
 70
1
 43
0.5
 10
2450.453125
 20
-2865.44921875
 10
2460.333984375
 20
-2855.568359375
 10
2470.21484375
 20
-2865.44921875
 10
2460.333984375
 20
-2875.330078125
  0
LWPOLYLINE
  5
54
330
17
100
AcDbEntity
  8
substrate
100
AcDbPolyline
 90
7
 70
1
 43
0.5
 10
2865.44921875
 20
-2549.26171875
 10
2875.330078125
 20
-2539.380859375
 10
2885.2109375
 20
-2539.380859375
 10
2895.091796875
 20
-2549.26171875
 10
2895.091796875
 20
-2559.142578125
 10
2885.2109375
 20
-2569.0234375
 10
2875.330078125
 20
-2559.142578125
  0
LWPOLYLINE
  5
55
330
17
100
AcDbEntity
  8
substrate
100
AcDbPolyline
 90
4
 70
1
 43
0.5
 10
2855.568359375
 20
-2539.380859375
 10
2865.44921875
 20
-2529.5
 10
2875.330078125
 20
-2539.380859375
 10
2865.44921875
 20
-2549.26171875
  0
LWPOLYLINE
  5
56
330
17
100
AcDbEntity
  8
substrate
100
AcDbPolyline
 90
13
 70
1
 43
0.5
 10
2855.568359375
 20
-2499.857421875
 10
2865.44921875
 20
-2489.9765625
 10
2875.330078125
 20
-2489.9765625
 10
2885.2109375
 20
-2499.857421875
 10
2885.2109375
 20
-2509.73828125
 10
2895.091796875
 20
-2519.619140625
 10
2904.97265625
 20
-2529.5
 10
2895.091796875
 20
-2539.380859375
 10
2885.2109375
 20
-2539.380859375
 10
2875.330078125
 20
-2539.380859375
 10
2865.44921875
 20
-2529.5
 10
2855.568359375
 20
-2519.619140625
 10
2865.44921875
 20
-2509.73828125
  0
LWPOLYLINE
  5
57
330
17
100
AcDbEntity
  8
substrate
100
AcDbPolyline
 90
7
 70
1
 43
0.5
 10
2114.50390625
 20
-2480.095703125
 10
2124.384765625
 20
-2470.21484375
 10
2134.265625
 20
-2470.21484375
 10
2144.146484375
 20
-2480.095703125
 10
2134.265625
 20
-2489.9765625
 10
2124.384765625
 20
-2499.857421875
 10
2114.50390625
 20
-2489.9765625
  0
LWPOLYLINE
  5
58
330
17
100
AcDbEntity
  8
substrate
100
AcDbPolyline
 90
4
 70
1
 43
0.5
 10
2084.861328125
 20
-2480.095703125
 10
2094.7421875
 20
-2470.21484375
 10
2104.623046875
 20
-2480.095703125
 10
2094.7421875
 20
-2489.9765625
  0
LWPOLYLINE
  5
59
330
17
100
AcDbEntity
  8
substrate
100
AcDbPolyline
 90
4
 70
1
 43
0.5
 10
2845.6875
 20
-2470.21484375
 10
2855.568359375
 20
-2460.333984375
 10
2865.44921875
 20
-2470.21484375
 10
2855.568359375
 20
-2480.095703125
  0
LWPOLYLINE
  5
5A
330
17
100
AcDbEntity
  8
substrate
100
AcDbPolyline
 90
4
 70
1
 43
0.5
 10
2855.568359375
 20
-2460.333984375
 10
2865.44921875
 20
-2450.453125
 10
2875.330078125
 20
-2460.333984375
 10
2865.44921875
 20
-2470.21484375
  0
LWPOLYLINE
  5
5B
330
17
100
AcDbEntity
  8
substrate
100
AcDbPolyline
 90
4
 70
1
 43
0.5
 10
2114.50390625
 20
-2410.9296875
 10
2124.384765625
 20
-2401.048828125
 10
2134.265625
 20
-2410.9296875
 10
2124.384765625
 20
-2420.810546875
  0
LWPOLYLINE
  5
5C
330
17
100
AcDbEntity
  8
substrate
100
AcDbPolyline
 90
4
 70
1
 43
0.5
 10
2796.283203125
 20
-2282.478515625
 10
2806.1640625
 20
-2272.59765625
 10
2816.044921875
 20
-2282.478515625
 10
2806.1640625
 20
-2292.359375
  0
LWPOLYLINE
  5
5D
330
17
100
AcDbEntity
  8
substrate
100
AcDbPolyline
 90
4
 70
1
 43
0.5
 10
2776.521484375
 20
-2282.478515625
 10
2786.40234375
 20
-2272.59765625
 10
2796.283203125
 20
-2282.478515625
 10
2786.40234375
 20
-2292.359375
  0
LWPOLYLINE
  5
5E
330
17
100
AcDbEntity
  8
substrate
100
AcDbPolyline
 90
4
 70
1
 43
0.5
 10
2727.1171875
 20
-2233.07421875
 10
2736.998046875
 20
-2223.193359375
 10
2746.87890625
 20
-2233.07421875
 10
2736.998046875
 20
-2242.955078125
  0
LWPOLYLINE
  5
5F
330
17
100
AcDbEntity
  8
substrate
100
AcDbPolyline
 90
4
 70
1
 43
0.5
 10
2687.59375
 20
-2233.07421875
 10
2697.474609375
 20
-2223.193359375
 10
2707.35546875
 20
-2233.07421875
 10
2697.474609375
 20
-2242.955078125
  0
LWPOLYLINE
  5
60
330
17
100
AcDbEntity
  8
substrate
100
AcDbPolyline
 90
4
 70
1
 43
0.5
 10
2648.0703125
 20
-2213.3125
 10
2657.951171875
 20
-2203.431640625
 10
2667.83203125
 20
-2213.3125
 10
2657.951171875
 20
-2223.193359375
  0
LWPOLYLINE
  5
61
330
17
100
AcDbEntity
  8
substrate
100
AcDbPolyline
 90
259
 70
1
 43
0.5
 10
2312.12109375
 20
-2213.3125
 10
2322.001953125
 20
-2203.431640625
 10
2331.8828125
 20
-2213.3125
 10
2331.8828125
 20
-2223.193359375
 10
2341.763671875
 20
-2223.193359375
 10
2351.64453125
 20
-2233.07421875
 10
2361.525390625
 20
-2223.193359375
 10
2371.40625
 20
-2233.07421875
 10
2381.287109375
 20
-2242.955078125
 10
2391.16796875
 20
-2233.07421875
 10
2401.048828125
 20
-2223.193359375
 10
2410.9296875
 20
-2233.07421875
 10
2420.810546875
 20
-2223.193359375
 10
2430.69140625
 20
-2213.3125
 10
2440.572265625
 20
-2223.193359375
 10
2450.453125
 20
-2233.07421875
 10
2460.333984375
 20
-2223.193359375
 10
2470.21484375
 20
-2213.3125
 10
2480.095703125
 20
-2223.193359375
 10
2489.9765625
 20
-2223.193359375
 10
2499.857421875
 20
-2223.193359375
 10
2509.73828125
 20
-2213.3125
 10
2519.619140625
 20
-2223.193359375
 10
2529.5
 20
-2213.3125
 10
2539.380859375
 20
-2223.193359375
 10
2549.26171875
 20
-2223.193359375
 10
2559.142578125
 20
-2213.3125
 10
2569.0234375
 20
-2223.193359375
 10
2578.904296875
 20
-2223.193359375
 10
2588.78515625
 20
-2213.3125
 10
2598.666015625
 20
-2203.431640625
 10
2608.546875
 20
-2213.3125
 10
2618.427734375
 20
-2213.3125
 10
2628.30859375
 20
-2213.3125
 10
2638.189453125
 20
-2203.431640625
 10
2648.0703125
 20
-2213.3125
 10
2648.0703125
 20
-2223.193359375
 10
2657.951171875
 20
-2223.193359375
 10
2667.83203125
 20
-2213.3125
 10
2677.712890625
 20
-2223.193359375
 10
2687.59375
 20
-2233.07421875
 10
2697.474609375
 20
-2242.955078125
 10
2707.35546875
 20
-2233.07421875
 10
2717.236328125
 20
-2242.955078125
 10
2727.1171875
 20
-2233.07421875
 10
2736.998046875
 20
-2242.955078125
 10
2746.87890625
 20
-2233.07421875
 10
2756.759765625
 20
-2242.955078125
 10
2766.640625
 20
-2252.8359375
 10
2766.640625
 20
-2262.716796875
 10
2766.640625
 20
-2272.59765625
 10
2776.521484375
 20
-2282.478515625
 10
2786.40234375
 20
-2292.359375
 10
2796.283203125
 20
-2282.478515625
 10
2806.1640625
 20
-2292.359375
 10
2806.1640625
 20
-2302.240234375
 10
2816.044921875
 20
-2302.240234375
 10
2825.92578125
 20
-2312.12109375
 10
2835.806640625
 20
-2322.001953125
 10
2825.92578125
 20
-2331.8828125
 10
2825.92578125
 20
-2341.763671875
 10
2825.92578125
 20
-2351.64453125
 10
2835.806640625
 20
-2361.525390625
 10
2845.6875
 20
-2371.40625
 10
2845.6875
 20
-2381.287109375
 10
2855.568359375
 20
-2391.16796875
 10
2855.568359375
 20
-2401.048828125
 10
2865.44921875
 20
-2410.9296875
 10
2865.44921875
 20
-2420.810546875
 10
2865.44921875
 20
-2430.69140625
 10
2855.568359375
 20
-2440.572265625
 10
2865.44921875
 20
-2450.453125
 10
2855.568359375
 20
-2460.333984375
 10
2845.6875
 20
-2470.21484375
 10
2855.568359375
 20
-2480.095703125
 10
2865.44921875
 20
-2489.9765625
 10
2855.568359375
 20
-2499.857421875
 10
2855.568359375
 20
-2509.73828125
 10
2855.568359375
 20
-2519.619140625
 10
2845.6875
 20
-2529.5
 10
2855.568359375
 20
-2539.380859375
 10
2865.44921875
 20
-2549.26171875
 10
2875.330078125
 20
-2559.142578125
 10
2865.44921875
 20
-2569.0234375
 10
2875.330078125
 20
-2578.904296875
 10
2865.44921875
 20
-2588.78515625
 10
2855.568359375
 20
-2598.666015625
 10
2855.568359375
 20
-2608.546875
 10
2855.568359375
 20
-2618.427734375
 10
2865.44921875
 20
-2628.30859375
 10
2855.568359375
 20
-2638.189453125
 10
2855.568359375
 20
-2648.0703125
 10
2845.6875
 20
-2657.951171875
 10
2855.568359375
 20
-2657.951171875
 10
2865.44921875
 20
-2667.83203125
 10
2855.568359375
 20
-2677.712890625
 10
2845.6875
 20
-2677.712890625
 10
2845.6875
 20
-2687.59375
 10
2835.806640625
 20
-2697.474609375
 10
2825.92578125
 20
-2707.35546875
 10
2835.806640625
 20
-2717.236328125
 10
2825.92578125
 20
-2727.1171875
 10
2816.044921875
 20
-2736.998046875
 10
2825.92578125
 20
-2746.87890625
 10
2816.044921875
 20
-2756.759765625
 10
2806.1640625
 20
-2756.759765625
 10
2806.1640625
 20
-2766.640625
 10
2796.283203125
 20
-2776.521484375
 10
2786.40234375
 20
-2766.640625
 10
2796.283203125
 20
-2776.521484375
 10
2786.40234375
 20
-2786.40234375
 10
2776.521484375
 20
-2786.40234375
 10
2766.640625
 20
-2786.40234375
 10
2766.640625
 20
-2796.283203125
 10
2756.759765625
 20
-2806.1640625
 10
2746.87890625
 20
-2806.1640625
 10
2736.998046875
 20
-2816.044921875
 10
2727.1171875
 20
-2816.044921875
 10
2727.1171875
 20
-2825.92578125
 10
2717.236328125
 20
-2835.806640625
 10
2707.35546875
 20
-2825.92578125
 10
2697.474609375
 20
-2816.044921875
 10
2707.35546875
 20
-2825.92578125
 10
2697.474609375
 20
-2835.806640625
 10
2687.59375
 20
-2845.6875
 10
2677.712890625
 20
-2855.568359375
 10
2667.83203125
 20
-2855.568359375
 10
2657.951171875
 20
-2855.568359375
 10
2648.0703125
 20
-2855.568359375
 10
2638.189453125
 20
-2865.44921875
 10
2628.30859375
 20
-2865.44921875
 10
2618.427734375
 20
-2855.568359375
 10
2608.546875
 20
-2865.44921875
 10
2598.666015625
 20
-2875.330078125
 10
2588.78515625
 20
-2865.44921875
 10
2578.904296875
 20
-2875.330078125
 10
2569.0234375
 20
-2885.2109375
 10
2559.142578125
 20
-2895.091796875
 10
2549.26171875
 20
-2885.2109375
 10
2549.26171875
 20
-2875.330078125
 10
2549.26171875
 20
-2865.44921875
 10
2539.380859375
 20
-2855.568359375
 10
2529.5
 20
-2855.568359375
 10
2539.380859375
 20
-2855.568359375
 10
2549.26171875
 20
-2865.44921875
 10
2539.380859375
 20
-2875.330078125
 10
2529.5
 20
-2885.2109375
 10
2519.619140625
 20
-2895.091796875
 10
2509.73828125
 20
-2885.2109375
 10
2509.73828125
 20
-2875.330078125
 10
2509.73828125
 20
-2865.44921875
 10
2509.73828125
 20
-2855.568359375
 10
2499.857421875
 20
-2855.568359375
 10
2489.9765625
 20
-2855.568359375
 10
2489.9765625
 20
-2865.44921875
 10
2480.095703125
 20
-2875.330078125
 10
2470.21484375
 20
-2865.44921875
 10
2460.333984375
 20
-2855.568359375
 10
2450.453125
 20
-2865.44921875
 10
2440.572265625
 20
-2865.44921875
 10
2430.69140625
 20
-2865.44921875
 10
2420.810546875
 20
-2855.568359375
 10
2410.9296875
 20
-2865.44921875
 10
2401.048828125
 20
-2875.330078125
 10
2391.16796875
 20
-2865.44921875
 10
2381.287109375
 20
-2855.568359375
 10
2391.16796875
 20
-2865.44921875
 10
2381.287109375
 20
-2875.330078125
 10
2371.40625
 20
-2875.330078125
 10
2361.525390625
 20
-2875.330078125
 10
2351.64453125
 20
-2865.44921875
 10
2351.64453125
 20
-2855.568359375
 10
2341.763671875
 20
-2845.6875
 10
2341.763671875
 20
-2835.806640625
 10
2331.8828125
 20
-2845.6875
 10
2322.001953125
 20
-2835.806640625
 10
2312.12109375
 20
-2825.92578125
 10
2302.240234375
 20
-2816.044921875
 10
2302.240234375
 20
-2806.1640625
 10
2292.359375
 20
-2816.044921875
 10
2282.478515625
 20
-2816.044921875
 10
2272.59765625
 20
-2806.1640625
 10
2262.716796875
 20
-2806.1640625
 10
2252.8359375
 20
-2806.1640625
 10
2242.955078125
 20
-2796.283203125
 10
2242.955078125
 20
-2786.40234375
 10
2242.955078125
 20
-2776.521484375
 10
2233.07421875
 20
-2766.640625
 10
2233.07421875
 20
-2756.759765625
 10
2223.193359375
 20
-2756.759765625
 10
2213.3125
 20
-2756.759765625
 10
2203.431640625
 20
-2746.87890625
 10
2213.3125
 20
-2736.998046875
 10
2223.193359375
 20
-2736.998046875
 10
2233.07421875
 20
-2727.1171875
 10
2223.193359375
 20
-2717.236328125
 10
2213.3125
 20
-2727.1171875
 10
2203.431640625
 20
-2717.236328125
 10
2193.55078125
 20
-2707.35546875
 10
2193.55078125
 20
-2697.474609375
 10
2193.55078125
 20
-2687.59375
 10
2183.669921875
 20
-2677.712890625
 10
2173.7890625
 20
-2667.83203125
 10
2163.908203125
 20
-2667.83203125
 10
2154.02734375
 20
-2657.951171875
 10
2154.02734375
 20
-2648.0703125
 10
2144.146484375
 20
-2638.189453125
 10
2154.02734375
 20
-2628.30859375
 10
2154.02734375
 20
-2618.427734375
 10
2154.02734375
 20
-2608.546875
 10
2154.02734375
 20
-2598.666015625
 10
2154.02734375
 20
-2588.78515625
 10
2144.146484375
 20
-2578.904296875
 10
2144.146484375
 20
-2569.0234375
 10
2144.146484375
 20
-2559.142578125
 10
2134.265625
 20
-2549.26171875
 10
2144.146484375
 20
-2539.380859375
 10
2154.02734375
 20
-2529.5
 10
2144.146484375
 20
-2519.619140625
 10
2154.02734375
 20
-2509.73828125
 10
2144.146484375
 20
-2499.857421875
 10
2134.265625
 20
-2489.9765625
 10
2144.146484375
 20
-2480.095703125
 10
2134.265625
 20
-2470.21484375
 10
2144.146484375
 20
-2460.333984375
 10
2154.02734375
 20
-2450.453125
 10
2144.146484375
 20
-2440.572265625
 10
2154.02734375
 20
-2430.69140625
 10
2163.908203125
 20
-2430.69140625
 10
2154.02734375
 20
-2430.69140625
 10
2144.146484375
 20
-2420.810546875
 10
2154.02734375
 20
-2410.9296875
 10
2163.908203125
 20
-2401.048828125
 10
2173.7890625
 20
-2391.16796875
 10
2183.669921875
 20
-2381.287109375
 10
2173.7890625
 20
-2371.40625
 10
2183.669921875
 20
-2361.525390625
 10
2193.55078125
 20
-2351.64453125
 10
2203.431640625
 20
-2341.763671875
 10
2213.3125
 20
-2341.763671875
 10
2223.193359375
 20
-2341.763671875
 10
2213.3125
 20
-2331.8828125
 10
2223.193359375
 20
-2322.001953125
 10
2213.3125
 20
-2312.12109375
 10
2223.193359375
 20
-2302.240234375
 10
2233.07421875
 20
-2292.359375
 10
2223.193359375
 20
-2282.478515625
 10
2233.07421875
 20
-2272.59765625
 10
2242.955078125
 20
-2262.716796875
 10
2252.8359375
 20
-2262.716796875
 10
2262.716796875
 20
-2262.716796875
 10
2272.59765625
 20
-2252.8359375
 10
2272.59765625
 20
-2242.955078125
 10
2272.59765625
 20
-2233.07421875
 10
2282.478515625
 20
-2223.193359375
 10
2292.359375
 20
-2233.07421875
 10
2302.240234375
 20
-2242.955078125
 10
2302.240234375
 20
-2233.07421875
 10
2312.12109375
 20
-2223.193359375
  0
LWPOLYLINE
  5
62
330
17
100
AcDbEntity
  8
substrate
100
AcDbPolyline
 90
1
 70
1
 43
0.5
 10
2539.380859375
 20
-2835.806640625
  0
LWPOLYLINE
  5
63
330
17
100
AcDbEntity
  8
substrate
100
AcDbPolyline
 90
1
 70
1
 43
0.5
 10
2835.806640625
 20
-2598.666015625
  0
LWPOLYLINE
  5
64
330
17
100
AcDbEntity
  8
substrate
100
AcDbPolyline
 90
1
 70
1
 43
0.5
 10
2183.669921875
 20
-2598.666015625
  0
LWPOLYLINE
  5
65
330
17
100
AcDbEntity
  8
substrate
100
AcDbPolyline
 90
1
 70
1
 43
0.5
 10
2825.92578125
 20
-2549.26171875
  0
LWPOLYLINE
  5
66
330
17
100
AcDbEntity
  8
substrate
100
AcDbPolyline
 90
4
 70
1
 43
0.5
 10
2657.951171875
 20
-2203.431640625
 10
2667.83203125
 20
-2193.55078125
 10
2677.712890625
 20
-2203.431640625
 10
2667.83203125
 20
-2213.3125
  0
LWPOLYLINE
  5
67
330
17
100
AcDbEntity
  8
substrate
100
AcDbPolyline
 90
4
 70
1
 43
0.5
 10
2499.857421875
 20
-2144.146484375
 10
2509.73828125
 20
-2134.265625
 10
2519.619140625
 20
-2144.146484375
 10
2509.73828125
 20
-2154.02734375
  0
LWPOLYLINE
  5
68
330
17
100
AcDbEntity
  8
substrate
100
AcDbPolyline
 90
6
 70
1
 43
0.5
 10
2460.333984375
 20
-2134.265625
 10
2470.21484375
 20
-2124.384765625
 10
2480.095703125
 20
-2134.265625
 10
2480.095703125
 20
-2144.146484375
 10
2470.21484375
 20
-2154.02734375
 10
2460.333984375
 20
-2144.146484375
  0
ENDSEC
  0
SECTION
  2
OBJECTS
  0
DICTIONARY
  5
A
330
0
100
AcDbDictionary
280
0
281
1
  3
ACAD_COLOR
350
B
  3
ACAD_GROUP
350
C
  3
ACAD_LAYOUT
350
D
  3
ACAD_MATERIAL
350
E
  3
ACAD_MLEADERSTYLE
350
F
  3
ACAD_MLINESTYLE
350
10
  3
ACAD_PLOTSETTINGS
350
11
  3
ACAD_PLOTSTYLENAME
350
12
  3
ACAD_SCALELIST
350
14
  3
ACAD_TABLESTYLE
350
15
  3
ACAD_VISUALSTYLE
350
16
  3
EZDXF_META
350
2D
  0
DICTIONARY
  5
B
330
A
100
AcDbDictionary
280
0
281
1
  0
DICTIONARY
  5
C
330
A
100
AcDbDictionary
280
0
281
1
  0
DICTIONARY
  5
D
330
A
100
AcDbDictionary
280
0
281
1
  3
Model
350
1A
  3
Layout1
350
1E
  0
DICTIONARY
  5
E
330
A
100
AcDbDictionary
280
0
281
1
  3
ByBlock
350
1F
  3
ByLayer
350
20
  3
Global
350
21
  0
DICTIONARY
  5
F
330
A
100
AcDbDictionary
280
0
281
1
  3
Standard
350
2C
  0
DICTIONARY
  5
10
330
A
100
AcDbDictionary
280
0
281
1
  3
Standard
350
22
  0
DICTIONARY
  5
11
330
A
100
AcDbDictionary
280
0
281
1
  0
ACDBDICTIONARYWDFLT
  5
12
330
A
100
AcDbDictionary
280
0
281
1
  3
Normal
350
13
100
AcDbDictionaryWithDefault
340
13
  0
ACDBPLACEHOLDER
  5
13
330
12
  0
DICTIONARY
  5
14
330
A
100
AcDbDictionary
280
0
281
1
  0
DICTIONARY
  5
15
330
A
100
AcDbDictionary
280
0
281
1
  0
DICTIONARY
  5
16
330
A
100
AcDbDictionary
280
0
281
1
  0
LAYOUT
  5
1A
330
D
100
AcDbPlotSettings
  1

  2
Adobe PDF
  4
A3
  6

 40
7.5
 41
20.0
 42
7.5
 43
20.0
 44
420.0
 45
297.0
 46
0.0
 47
0.0
 48
0.0
 49
0.0
140
0.0
141
0.0
142
1.0
143
1.0
 70
1024
 72
1
 73
0
 74
5
  7

 75
16
 76
0
 77
2
 78
300
147
1.0
148
0.0
149
0.0
100
AcDbLayout
  1
Model
 70
1
 71
0
 10
0.0
 20
0.0
 11
420.0
 21
297.0
 12
0.0
 22
0.0
 32
0.0
 14
1e+20
 24
1e+20
 34
1e+20
 15
-1e+20
 25
-1e+20
 35
-1e+20
146
0.0
 13
0.0
 23
0.0
 33
0.0
 16
1.0
 26
0.0
 36
0.0
 17
0.0
 27
1.0
 37
0.0
 76
1
330
17
  0
LAYOUT
  5
1E
330
D
100
AcDbPlotSettings
  1

  2
Adobe PDF
  4
A3
  6

 40
7.5
 41
20.0
 42
7.5
 43
20.0
 44
420.0
 45
297.0
 46
0.0
 47
0.0
 48
0.0
 49
0.0
140
0.0
141
0.0
142
1.0
143
1.0
 70
0
 72
1
 73
0
 74
5
  7

 75
16
 76
0
 77
2
 78
300
147
1.0
148
0.0
149
0.0
100
AcDbLayout
  1
Layout1
 70
1
 71
1
 10
0.0
 20
0.0
 11
420.0
 21
297.0
 12
0.0
 22
0.0
 32
0.0
 14
1e+20
 24
1e+20
 34
1e+20
 15
-1e+20
 25
-1e+20
 35
-1e+20
146
0.0
 13
0.0
 23
0.0
 33
0.0
 16
1.0
 26
0.0
 36
0.0
 17
0.0
 27
1.0
 37
0.0
 76
1
330
1B
  0
MATERIAL
  5
1F
102
{ACAD_REACTORS
330
E
102
}
330
E
100
AcDbMaterial
  1
ByBlock
  2

 70
0
 40
1.0
 71
1
 41
1.0
 91
-1023410177
 42
1.0
 72
1
  3

 73
1
 74
1
 75
1
 44
0.5
 73
0
 45
1.0
 46
1.0
 77
1
  4

 78
1
 79
1
170
1
 48
1.0
171
1
  6

172
1
173
1
174
1
140
1.0
141
1.0
175
1
  7

176
1
177
1
178
1
143
1.0
179
1
  8

270
1
271
1
272
1
145
1.0
146
1.0
273
1
  9

274
1
275
1
276
1
 42
1.0
 72
1
  3

 73
1
 74
1
 75
1
 94
63
  0
MATERIAL
  5
20
102
{ACAD_REACTORS
330
E
102
}
330
E
100
AcDbMaterial
  1
ByLayer
  2

 70
0
 40
1.0
 71
1
 41
1.0
 91
-1023410177
 42
1.0
 72
1
  3

 73
1
 74
1
 75
1
 44
0.5
 73
0
 45
1.0
 46
1.0
 77
1
  4

 78
1
 79
1
170
1
 48
1.0
171
1
  6

172
1
173
1
174
1
140
1.0
141
1.0
175
1
  7

176
1
177
1
178
1
143
1.0
179
1
  8

270
1
271
1
272
1
145
1.0
146
1.0
273
1
  9

274
1
275
1
276
1
 42
1.0
 72
1
  3

 73
1
 74
1
 75
1
 94
63
  0
MATERIAL
  5
21
102
{ACAD_REACTORS
330
E
102
}
330
E
100
AcDbMaterial
  1
Global
  2

 70
0
 40
1.0
 71
1
 41
1.0
 91
-1023410177
 42
1.0
 72
1
  3

 73
1
 74
1
 75
1
 44
0.5
 73
0
 45
1.0
 46
1.0
 77
1
  4

 78
1
 79
1
170
1
 48
1.0
171
1
  6

172
1
173
1
174
1
140
1.0
141
1.0
175
1
  7

176
1
177
1
178
1
143
1.0
179
1
  8

270
1
271
1
272
1
145
1.0
146
1.0
273
1
  9

274
1
275
1
276
1
 42
1.0
 72
1
  3

 73
1
 74
1
 75
1
 94
63
  0
MLINESTYLE
  5
22
102
{ACAD_REACTORS
330
10
102
}
330
10
100
AcDbMlineStyle
  2
Standard
 70
0
  3

 62
256
 51
90.0
 52
90.0
 71
2
 49
0.5
 62
256
  6
BYLAYER
 49
-0.5
 62
256
  6
BYLAYER
  0
MLEADERSTYLE
  5
2C
102
{ACAD_REACTORS
330
F
102
}
330
F
100
AcDbMLeaderStyle
179
2
170
2
171
1
172
0
 90
2
 40
0.0
 41
0.0
173
1
 91
-1056964608
 92
-2
290
1
 42
2.0
291
1
 43
8.0
  3
Standard
 44
4.0
300

342
29
174
1
175
1
176
0
178
1
 93
-1056964608
 45
4.0
292
0
297
0
 46
4.0
 94
-1056964608
 47
1.0
 49
1.0
140
1.0
294
1
141
0.0
177
0
142
1.0
295
0
296
0
143
3.75
271
0
272
9
273
9
  0
DICTIONARY
  5
2D
330
A
100
AcDbDictionary
281
1
  3
CREATED_BY_EZDXF
350
2E
  3
WRITTEN_BY_EZDXF
350
6B
  0
DICTIONARYVAR
  5
2E
330
2D
100
DictionaryVariables
280
0
  1
1.1.0 @ 2025-01-02T01:09:23.665563+00:00
  0
DICTIONARYVAR
  5
6B
330
2D
100
DictionaryVariables
280
0
  1
1.1.0 @ 2025-01-02T01:09:23.671549+00:00
  0
ENDSEC
  0
EOF
