  0
SECTION
  2
HEADER
  9
$ACADVER
  1
AC1027
  9
$ACADMAINTVER
 70
105
  9
$DWGCODEPAGE
  3
ANSI_1252
  9
$LASTSAVEDBY
  1
ezdxf
  9
$REQUIREDVERSIONS
160
0
  9
$INSBASE
 10
0.0
 20
0.0
 30
0.0
  9
$EXTMIN
 10
1e+20
 20
1e+20
 30
1e+20
  9
$EXTMAX
 10
-1e+20
 20
-1e+20
 30
-1e+20
  9
$LIMMIN
 10
0.0
 20
0.0
  9
$LIMMAX
 10
420.0
 20
297.0
  9
$ORTHOMODE
 70
0
  9
$REGENMODE
 70
1
  9
$FILLMODE
 70
1
  9
$QTEXTMODE
 70
0
  9
$MIRRTEXT
 70
1
  9
$LTSCALE
 40
1.0
  9
$ATTMODE
 70
1
  9
$TEXTSIZE
 40
2.5
  9
$TRACEWID
 40
1.0
  9
$TEXTSTYLE
  7
Standard
  9
$CLAYER
  8
0
  9
$CELTYPE
  6
ByLayer
  9
$CECOLOR
 62
256
  9
$CELTSCALE
 40
1.0
  9
$DISPSILH
 70
0
  9
$DIMSCALE
 40
1.0
  9
$DIMASZ
 40
2.5
  9
$DIMEXO
 40
0.625
  9
$DIMDLI
 40
3.75
  9
$DIMRND
 40
0.0
  9
$DIMDLE
 40
0.0
  9
$DIMEXE
 40
1.25
  9
$DIMTP
 40
0.0
  9
$DIMTM
 40
0.0
  9
$DIMTXT
 40
2.5
  9
$DIMCEN
 40
2.5
  9
$DIMTSZ
 40
0.0
  9
$DIMTOL
 70
0
  9
$DIMLIM
 70
0
  9
$DIMTIH
 70
0
  9
$DIMTOH
 70
0
  9
$DIMSE1
 70
0
  9
$DIMSE2
 70
0
  9
$DIMTAD
 70
1
  9
$DIMZIN
 70
8
  9
$DIMBLK
  1

  9
$DIMASO
 70
1
  9
$DIMSHO
 70
1
  9
$DIMPOST
  1

  9
$DIMAPOST
  1

  9
$DIMALT
 70
0
  9
$DIMALTD
 70
3
  9
$DIMALTF
 40
0.03937007874
  9
$DIMLFAC
 40
1.0
  9
$DIMTOFL
 70
1
  9
$DIMTVP
 40
0.0
  9
$DIMTIX
 70
0
  9
$DIMSOXD
 70
0
  9
$DIMSAH
 70
0
  9
$DIMBLK1
  1

  9
$DIMBLK2
  1

  9
$DIMSTYLE
  2
ISO-25
  9
$DIMCLRD
 70
0
  9
$DIMCLRE
 70
0
  9
$DIMCLRT
 70
0
  9
$DIMTFAC
 40
1.0
  9
$DIMGAP
 40
0.625
  9
$DIMJUST
 70
0
  9
$DIMSD1
 70
0
  9
$DIMSD2
 70
0
  9
$DIMTOLJ
 70
0
  9
$DIMTZIN
 70
8
  9
$DIMALTZ
 70
0
  9
$DIMALTTZ
 70
0
  9
$DIMUPT
 70
0
  9
$DIMDEC
 70
2
  9
$DIMTDEC
 70
2
  9
$DIMALTU
 70
2
  9
$DIMALTTD
 70
3
  9
$DIMTXSTY
  7
Standard
  9
$DIMAUNIT
 70
0
  9
$DIMADEC
 70
0
  9
$DIMALTRND
 40
0.0
  9
$DIMAZIN
 70
0
  9
$DIMDSEP
 70
44
  9
$DIMATFIT
 70
3
  9
$DIMFRAC
 70
0
  9
$DIMLDRBLK
  1

  9
$DIMLUNIT
 70
2
  9
$DIMLWD
 70
-2
  9
$DIMLWE
 70
-2
  9
$DIMTMOVE
 70
0
  9
$DIMFXL
 40
1.0
  9
$DIMFXLON
 70
0
  9
$DIMJOGANG
 40
0.785398163397
  9
$DIMTFILL
 70
0
  9
$DIMTFILLCLR
 70
0
  9
$DIMARCSYM
 70
0
  9
$DIMLTYPE
  6

  9
$DIMLTEX1
  6

  9
$DIMLTEX2
  6

  9
$DIMTXTDIRECTION
 70
0
  9
$LUNITS
 70
2
  9
$LUPREC
 70
4
  9
$SKETCHINC
 40
1.0
  9
$FILLETRAD
 40
10.0
  9
$AUNITS
 70
0
  9
$AUPREC
 70
2
  9
$MENU
  1
.
  9
$ELEVATION
 40
0.0
  9
$PELEVATION
 40
0.0
  9
$THICKNESS
 40
0.0
  9
$LIMCHECK
 70
0
  9
$CHAMFERA
 40
0.0
  9
$CHAMFERB
 40
0.0
  9
$CHAMFERC
 40
0.0
  9
$CHAMFERD
 40
0.0
  9
$SKPOLY
 70
0
  9
$TDCREATE
 40
2460676.4847800927
  9
$TDUCREATE
 40
2458532.153996898
  9
$TDUPDATE
 40
2460676.4847800927
  9
$TDUUPDATE
 40
2458532.1544311
  9
$TDINDWG
 40
0.0
  9
$TDUSRTIMER
 40
0.0
  9
$USRTIMER
 70
1
  9
$ANGBASE
 50
0.0
  9
$ANGDIR
 70
0
  9
$PDMODE
 70
0
  9
$PDSIZE
 40
0.0
  9
$PLINEWID
 40
0.0
  9
$SPLFRAME
 70
0
  9
$SPLINETYPE
 70
6
  9
$SPLINESEGS
 70
8
  9
$HANDSEED
  5
7C
  9
$SURFTAB1
 70
6
  9
$SURFTAB2
 70
6
  9
$SURFTYPE
 70
6
  9
$SURFU
 70
6
  9
$SURFV
 70
6
  9
$UCSBASE
  2

  9
$UCSNAME
  2

  9
$UCSORG
 10
0.0
 20
0.0
 30
0.0
  9
$UCSXDIR
 10
1.0
 20
0.0
 30
0.0
  9
$UCSYDIR
 10
0.0
 20
1.0
 30
0.0
  9
$UCSORTHOREF
  2

  9
$UCSORTHOVIEW
 70
0
  9
$UCSORGTOP
 10
0.0
 20
0.0
 30
0.0
  9
$UCSORGBOTTOM
 10
0.0
 20
0.0
 30
0.0
  9
$UCSORGLEFT
 10
0.0
 20
0.0
 30
0.0
  9
$UCSORGRIGHT
 10
0.0
 20
0.0
 30
0.0
  9
$UCSORGFRONT
 10
0.0
 20
0.0
 30
0.0
  9
$UCSORGBACK
 10
0.0
 20
0.0
 30
0.0
  9
$PUCSBASE
  2

  9
$PUCSNAME
  2

  9
$PUCSORG
 10
0.0
 20
0.0
 30
0.0
  9
$PUCSXDIR
 10
1.0
 20
0.0
 30
0.0
  9
$PUCSYDIR
 10
0.0
 20
1.0
 30
0.0
  9
$PUCSORTHOREF
  2

  9
$PUCSORTHOVIEW
 70
0
  9
$PUCSORGTOP
 10
0.0
 20
0.0
 30
0.0
  9
$PUCSORGBOTTOM
 10
0.0
 20
0.0
 30
0.0
  9
$PUCSORGLEFT
 10
0.0
 20
0.0
 30
0.0
  9
$PUCSORGRIGHT
 10
0.0
 20
0.0
 30
0.0
  9
$PUCSORGFRONT
 10
0.0
 20
0.0
 30
0.0
  9
$PUCSORGBACK
 10
0.0
 20
0.0
 30
0.0
  9
$USERI1
 70
0
  9
$USERI2
 70
0
  9
$USERI3
 70
0
  9
$USERI4
 70
0
  9
$USERI5
 70
0
  9
$USERR1
 40
0.0
  9
$USERR2
 40
0.0
  9
$USERR3
 40
0.0
  9
$USERR4
 40
0.0
  9
$USERR5
 40
0.0
  9
$WORLDVIEW
 70
1
  9
$SHADEDGE
 70
3
  9
$SHADEDIF
 70
70
  9
$TILEMODE
 70
1
  9
$MAXACTVP
 70
64
  9
$PINSBASE
 10
0.0
 20
0.0
 30
0.0
  9
$PLIMCHECK
 70
0
  9
$PEXTMIN
 10
1e+20
 20
1e+20
 30
1e+20
  9
$PEXTMAX
 10
-1e+20
 20
-1e+20
 30
-1e+20
  9
$PLIMMIN
 10
0.0
 20
0.0
  9
$PLIMMAX
 10
420.0
 20
297.0
  9
$UNITMODE
 70
0
  9
$VISRETAIN
 70
1
  9
$PLINEGEN
 70
0
  9
$PSLTSCALE
 70
1
  9
$TREEDEPTH
 70
3020
  9
$CMLSTYLE
  2
Standard
  9
$CMLJUST
 70
0
  9
$CMLSCALE
 40
20.0
  9
$PROXYGRAPHICS
 70
1
  9
$MEASUREMENT
 70
1
  9
$CELWEIGHT
370
-1
  9
$ENDCAPS
280
0
  9
$JOINSTYLE
280
0
  9
$LWDISPLAY
290
0
  9
$INSUNITS
 70
6
  9
$HYPERLINKBASE
  1

  9
$STYLESHEET
  1

  9
$XEDIT
290
1
  9
$CEPSNTYPE
380
0
  9
$PSTYLEMODE
290
1
  9
$FINGERPRINTGUID
  2
{32DB6938-9053-44DD-9E8D-330C8F55084A}
  9
$VERSIONGUID
  2
{ADC41AF4-F979-40F1-8A85-A5BC26E89BB2}
  9
$EXTNAMES
290
1
  9
$PSVPSCALE
 40
0.0
  9
$OLESTARTUP
290
0
  9
$SORTENTS
280
127
  9
$INDEXCTL
280
0
  9
$HIDETEXT
280
1
  9
$XCLIPFRAME
280
0
  9
$HALOGAP
280
0
  9
$OBSCOLOR
 70
257
  9
$OBSLTYPE
280
0
  9
$INTERSECTIONDISPLAY
280
0
  9
$INTERSECTIONCOLOR
 70
257
  9
$DIMASSOC
280
2
  9
$PROJECTNAME
  1

  9
$CAMERADISPLAY
290
0
  9
$LENSLENGTH
 40
50.0
  9
$CAMERAHEIGHT
 40
0.0
  9
$STEPSPERSEC
 40
24.0
  9
$STEPSIZE
 40
100.0
  9
$3DDWFPREC
 40
2.0
  9
$PSOLWIDTH
 40
0.005
  9
$PSOLHEIGHT
 40
0.08
  9
$LOFTANG1
 40
1.570796326795
  9
$LOFTANG2
 40
1.570796326795
  9
$LOFTMAG1
 40
0.0
  9
$LOFTMAG2
 40
0.0
  9
$LOFTPARAM
 70
7
  9
$LOFTNORMALS
280
1
  9
$LATITUDE
 40
37.795
  9
$LONGITUDE
 40
-122.394
  9
$NORTHDIRECTION
 40
0.0
  9
$TIMEZONE
 70
-8000
  9
$LIGHTGLYPHDISPLAY
280
1
  9
$TILEMODELIGHTSYNCH
280
1
  9
$CMATERIAL
347
20
  9
$SOLIDHIST
280
0
  9
$SHOWHIST
280
1
  9
$DWFFRAME
280
2
  9
$DGNFRAME
280
2
  9
$REALWORLDSCALE
290
1
  9
$INTERFERECOLOR
 62
256
  9
$CSHADOW
280
0
  9
$SHADOWPLANELOCATION
 40
0.0
  0
ENDSEC
  0
SECTION
  2
CLASSES
  0
CLASS
  1
ACDBDICTIONARYWDFLT
  2
AcDbDictionaryWithDefault
  3
ObjectDBX Classes
 90
0
 91
0
280
0
281
0
  0
CLASS
  1
SUN
  2
AcDbSun
  3
SCENEOE
 90
1153
 91
0
280
0
281
0
  0
CLASS
  1
VISUALSTYLE
  2
AcDbVisualStyle
  3
ObjectDBX Classes
 90
4095
 91
0
280
0
281
0
  0
CLASS
  1
MATERIAL
  2
AcDbMaterial
  3
ObjectDBX Classes
 90
1153
 91
0
280
0
281
0
  0
CLASS
  1
SCALE
  2
AcDbScale
  3
ObjectDBX Classes
 90
1153
 91
0
280
0
281
0
  0
CLASS
  1
TABLESTYLE
  2
AcDbTableStyle
  3
ObjectDBX Classes
 90
4095
 91
0
280
0
281
0
  0
CLASS
  1
MLEADERSTYLE
  2
AcDbMLeaderStyle
  3
ACDB_MLEADERSTYLE_CLASS
 90
4095
 91
0
280
0
281
0
  0
CLASS
  1
DICTIONARYVAR
  2
AcDbDictionaryVar
  3
ObjectDBX Classes
 90
0
 91
0
280
0
281
0
  0
CLASS
  1
CELLSTYLEMAP
  2
AcDbCellStyleMap
  3
ObjectDBX Classes
 90
1152
 91
0
280
0
281
0
  0
CLASS
  1
MENTALRAYRENDERSETTINGS
  2
AcDbMentalRayRenderSettings
  3
SCENEOE
 90
1024
 91
0
280
0
281
0
  0
CLASS
  1
ACDBDETAILVIEWSTYLE
  2
AcDbDetailViewStyle
  3
ObjectDBX Classes
 90
1025
 91
0
280
0
281
0
  0
CLASS
  1
ACDBSECTIONVIEWSTYLE
  2
AcDbSectionViewStyle
  3
ObjectDBX Classes
 90
1025
 91
0
280
0
281
0
  0
CLASS
  1
RASTERVARIABLES
  2
AcDbRasterVariables
  3
ISM
 90
0
 91
0
280
0
281
0
  0
CLASS
  1
ACDBPLACEHOLDER
  2
AcDbPlaceHolder
  3
ObjectDBX Classes
 90
0
 91
0
280
0
281
0
  0
CLASS
  1
LAYOUT
  2
AcDbLayout
  3
ObjectDBX Classes
 90
0
 91
0
280
0
281
0
  0
ENDSEC
  0
SECTION
  2
TABLES
  0
TABLE
  2
VPORT
  5
8
330
0
100
AcDbSymbolTable
 70
1
  0
VPORT
  5
23
330
8
100
AcDbSymbolTableRecord
100
AcDbViewportTableRecord
  2
*Active
 70
0
 10
0.0
 20
0.0
 11
1.0
 21
1.0
 12
0.0
 22
0.0
 13
0.0
 23
0.0
 14
0.5
 24
0.5
 15
0.5
 25
0.5
 16
0.0
 26
0.0
 36
1.0
 17
0.0
 27
0.0
 37
0.0
 40
1000.0
 41
1.34
 42
50.0
 43
0.0
 44
0.0
 50
0.0
 51
0.0
 71
0
 72
1000
 73
1
 74
3
 75
0
 76
0
 77
0
 78
0
281
0
 65
0
146
0.0
  0
ENDTAB
  0
TABLE
  2
LTYPE
  5
2
330
0
100
AcDbSymbolTable
 70
3
  0
LTYPE
  5
24
330
2
100
AcDbSymbolTableRecord
100
AcDbLinetypeTableRecord
  2
ByBlock
 70
0
  3

 72
65
 73
0
 40
0.0
  0
LTYPE
  5
25
330
2
100
AcDbSymbolTableRecord
100
AcDbLinetypeTableRecord
  2
ByLayer
 70
0
  3

 72
65
 73
0
 40
0.0
  0
LTYPE
  5
26
330
2
100
AcDbSymbolTableRecord
100
AcDbLinetypeTableRecord
  2
Continuous
 70
0
  3

 72
65
 73
0
 40
0.0
  0
ENDTAB
  0
TABLE
  2
LAYER
  5
1
330
0
100
AcDbSymbolTable
 70
5
  0
LAYER
  5
27
330
1
100
AcDbSymbolTableRecord
100
AcDbLayerTableRecord
  2
0
 70
0
 62
7
  6
Continuous
370
-3
390
13
347
21
  0
LAYER
  5
28
330
1
100
AcDbSymbolTableRecord
100
AcDbLayerTableRecord
  2
Defpoints
 70
0
 62
7
  6
Continuous
290
0
370
-3
390
13
347
21
  0
LAYER
  5
2F
330
1
100
AcDbSymbolTableRecord
100
AcDbLayerTableRecord
  2
conductor
 70
0
 62
1
  6
Continuous
370
-3
390
13
347
21
  0
LAYER
  5
30
330
1
100
AcDbSymbolTableRecord
100
AcDbLayerTableRecord
  2
dielectric
 70
0
 62
8
  6
Continuous
370
-3
390
13
347
21
  0
LAYER
  5
31
330
1
100
AcDbSymbolTableRecord
100
AcDbLayerTableRecord
  2
substrate
 70
0
 62
5
  6
Continuous
370
-3
390
13
347
21
  0
ENDTAB
  0
TABLE
  2
STYLE
  5
5
330
0
100
AcDbSymbolTable
 70
1
  0
STYLE
  5
29
330
5
100
AcDbSymbolTableRecord
100
AcDbTextStyleTableRecord
  2
Standard
 70
0
 40
0.0
 41
1.0
 50
0.0
 71
0
 42
2.5
  3
txt
  4

  0
ENDTAB
  0
TABLE
  2
VIEW
  5
7
330
0
100
AcDbSymbolTable
 70
0
  0
ENDTAB
  0
TABLE
  2
UCS
  5
6
330
0
100
AcDbSymbolTable
 70
0
  0
ENDTAB
  0
TABLE
  2
APPID
  5
3
330
0
100
AcDbSymbolTable
 70
3
  0
APPID
  5
2A
330
3
100
AcDbSymbolTableRecord
100
AcDbRegAppTableRecord
  2
ACAD
 70
0
  0
APPID
  5
79
330
3
100
AcDbSymbolTableRecord
100
AcDbRegAppTableRecord
  2
HATCHBACKGROUNDCOLOR
 70
0
  0
APPID
  5
7A
330
3
100
AcDbSymbolTableRecord
100
AcDbRegAppTableRecord
  2
EZDXF
 70
0
  0
ENDTAB
  0
TABLE
  2
DIMSTYLE
  5
4
330
0
100
AcDbSymbolTable
 70
1
100
AcDbDimStyleTable
  0
DIMSTYLE
105
2B
330
4
100
AcDbSymbolTableRecord
100
AcDbDimStyleTableRecord
  2
Standard
 70
0
 40
1.0
 41
2.5
 42
0.625
 43
3.75
 44
1.25
 45
0.0
 46
0.0
 47
0.0
 48
0.0
 49
2.5
140
2.5
141
2.5
142
0.0
143
0.03937007874
144
1.0
145
0.0
146
1.0
147
0.625
148
0.0
 69
0
 70
0
 71
0
 72
0
 73
0
 74
0
 75
0
 76
0
 77
1
 78
8
 79
3
170
0
171
3
172
1
173
0
174
0
175
0
176
0
177
0
178
0
179
2
271
2
272
2
273
2
274
3
275
0
276
0
277
2
278
44
279
0
280
0
281
0
282
0
283
0
284
8
285
0
286
0
288
0
289
3
290
0
371
-2
372
-2
  0
ENDTAB
  0
TABLE
  2
BLOCK_RECORD
  5
9
330
0
100
AcDbSymbolTable
 70
2
  0
BLOCK_RECORD
  5
17
330
9
100
AcDbSymbolTableRecord
100
AcDbBlockTableRecord
  2
*Model_Space
340
1A
 70
0
280
1
281
0
  0
BLOCK_RECORD
  5
1B
330
9
100
AcDbSymbolTableRecord
100
AcDbBlockTableRecord
  2
*Paper_Space
340
1E
 70
0
280
1
281
0
  0
ENDTAB
  0
ENDSEC
  0
SECTION
  2
BLOCKS
  0
BLOCK
  5
18
330
17
100
AcDbEntity
  8
0
100
AcDbBlockBegin
  2
*Model_Space
 70
0
 10
0.0
 20
0.0
 30
0.0
  3
*Model_Space
  1

  0
ENDBLK
  5
19
330
17
100
AcDbEntity
  8
0
100
AcDbBlockEnd
  0
BLOCK
  5
1C
330
1B
100
AcDbEntity
  8
0
100
AcDbBlockBegin
  2
*Paper_Space
 70
0
 10
0.0
 20
0.0
 30
0.0
  3
*Paper_Space
  1

  0
ENDBLK
  5
1D
330
1B
100
AcDbEntity
  8
0
100
AcDbBlockEnd
  0
ENDSEC
  0
SECTION
  2
ENTITIES
  0
LWPOLYLINE
  5
32
330
17
100
AcDbEntity
  8
conductor
100
AcDbPolyline
 90
1469
 70
1
 43
0.5
 10
1897.31640625
 20
-675.484375
 10
1887.3828125
 20
-685.41796875
 10
1887.3828125
 20
-695.3515625
 10
1887.3828125
 20
-705.28515625
 10
1887.3828125
 20
-715.21875
 10
1887.3828125
 20
-725.15234375
 10
1887.3828125
 20
-735.0859375
 10
1887.3828125
 20
-745.01953125
 10
1897.31640625
 20
-754.953125
 10
1897.31640625
 20
-764.88671875
 10
1897.31640625
 20
-774.8203125
 10
1897.31640625
 20
-784.75390625
 10
1897.31640625
 20
-794.6875
 10
1897.31640625
 20
-804.62109375
 10
1897.31640625
 20
-814.5546875
 10
1897.31640625
 20
-824.48828125
 10
1897.31640625
 20
-834.421875
 10
1897.31640625
 20
-844.35546875
 10
1897.31640625
 20
-854.2890625
 10
1897.31640625
 20
-864.22265625
 10
1897.31640625
 20
-874.15625
 10
1897.31640625
 20
-884.08984375
 10
1897.31640625
 20
-894.0234375
 10
1897.31640625
 20
-903.95703125
 10
1897.31640625
 20
-913.890625
 10
1897.31640625
 20
-923.82421875
 10
1897.31640625
 20
-933.7578125
 10
1897.31640625
 20
-943.69140625
 10
1897.31640625
 20
-953.625
 10
1897.31640625
 20
-963.55859375
 10
1897.31640625
 20
-973.4921875
 10
1897.31640625
 20
-983.42578125
 10
1897.31640625
 20
-993.359375
 10
1897.31640625
 20
-1003.29296875
 10
1897.31640625
 20
-1013.2265625
 10
1897.31640625
 20
-1023.16015625
 10
1897.31640625
 20
-1033.09375
 10
1897.31640625
 20
-1043.02734375
 10
1897.31640625
 20
-1052.9609375
 10
1897.31640625
 20
-1062.89453125
 10
1897.31640625
 20
-1072.828125
 10
1897.31640625
 20
-1082.76171875
 10
1897.31640625
 20
-1092.6953125
 10
1897.31640625
 20
-1102.62890625
 10
1897.31640625
 20
-1112.5625
 10
1897.31640625
 20
-1122.49609375
 10
1897.31640625
 20
-1132.4296875
 10
1897.31640625
 20
-1142.36328125
 10
1897.31640625
 20
-1152.296875
 10
1897.31640625
 20
-1162.23046875
 10
1897.31640625
 20
-1172.1640625
 10
1897.31640625
 20
-1182.09765625
 10
1897.31640625
 20
-1192.03125
 10
1897.31640625
 20
-1201.96484375
 10
1897.31640625
 20
-1211.8984375
 10
1897.31640625
 20
-1221.83203125
 10
1897.31640625
 20
-1231.765625
 10
1897.31640625
 20
-1241.69921875
 10
1897.31640625
 20
-1251.6328125
 10
1897.31640625
 20
-1261.56640625
 10
1897.31640625
 20
-1271.5
 10
1897.31640625
 20
-1281.43359375
 10
1897.31640625
 20
-1291.3671875
 10
1897.31640625
 20
-1301.30078125
 10
1897.31640625
 20
-1311.234375
 10
1897.31640625
 20
-1321.16796875
 10
1897.31640625
 20
-1331.1015625
 10
1897.31640625
 20
-1341.03515625
 10
1897.31640625
 20
-1350.96875
 10
1897.31640625
 20
-1360.90234375
 10
1897.31640625
 20
-1370.8359375
 10
1897.31640625
 20
-1380.76953125
 10
1897.31640625
 20
-1390.703125
 10
1897.31640625
 20
-1400.63671875
 10
1897.31640625
 20
-1410.5703125
 10
1897.31640625
 20
-1420.50390625
 10
1897.31640625
 20
-1430.4375
 10
1897.31640625
 20
-1440.37109375
 10
1897.31640625
 20
-1450.3046875
 10
1897.31640625
 20
-1460.23828125
 10
1897.31640625
 20
-1470.171875
 10
1897.31640625
 20
-1480.10546875
 10
1897.31640625
 20
-1490.0390625
 10
1897.31640625
 20
-1499.97265625
 10
1897.31640625
 20
-1509.90625
 10
1897.31640625
 20
-1519.83984375
 10
1897.31640625
 20
-1529.7734375
 10
1897.31640625
 20
-1539.70703125
 10
1897.31640625
 20
-1549.640625
 10
1897.31640625
 20
-1559.57421875
 10
1897.31640625
 20
-1569.5078125
 10
1897.31640625
 20
-1579.44140625
 10
1897.31640625
 20
-1589.375
 10
1897.31640625
 20
-1599.30859375
 10
1897.31640625
 20
-1609.2421875
 10
1897.31640625
 20
-1619.17578125
 10
1887.3828125
 20
-1629.109375
 10
1887.3828125
 20
-1639.04296875
 10
1887.3828125
 20
-1648.9765625
 10
1887.3828125
 20
-1658.91015625
 10
1887.3828125
 20
-1668.84375
 10
1887.3828125
 20
-1678.77734375
 10
1887.3828125
 20
-1688.7109375
 10
1887.3828125
 20
-1698.64453125
 10
1887.3828125
 20
-1708.578125
 10
1887.3828125
 20
-1718.51171875
 10
1887.3828125
 20
-1728.4453125
 10
1887.3828125
 20
-1738.37890625
 10
1887.3828125
 20
-1748.3125
 10
1897.31640625
 20
-1758.24609375
 10
1897.31640625
 20
-1768.1796875
 10
1897.31640625
 20
-1778.11328125
 10
1897.31640625
 20
-1788.046875
 10
1897.31640625
 20
-1797.98046875
 10
1897.31640625
 20
-1807.9140625
 10
1897.31640625
 20
-1817.84765625
 10
1897.31640625
 20
-1827.78125
 10
1897.31640625
 20
-1837.71484375
 10
1897.31640625
 20
-1847.6484375
 10
1897.31640625
 20
-1857.58203125
 10
1897.31640625
 20
-1867.515625
 10
1897.31640625
 20
-1877.44921875
 10
1897.31640625
 20
-1887.3828125
 10
1887.3828125
 20
-1897.31640625
 10
1877.44921875
 20
-1897.31640625
 10
1867.515625
 20
-1897.31640625
 10
1857.58203125
 20
-1897.31640625
 10
1847.6484375
 20
-1897.31640625
 10
1837.71484375
 20
-1897.31640625
 10
1827.78125
 20
-1897.31640625
 10
1817.84765625
 20
-1897.31640625
 10
1807.9140625
 20
-1897.31640625
 10
1797.98046875
 20
-1897.31640625
 10
1788.046875
 20
-1897.31640625
 10
1778.11328125
 20
-1897.31640625
 10
1768.1796875
 20
-1897.31640625
 10
1758.24609375
 20
-1897.31640625
 10
1748.3125
 20
-1897.31640625
 10
1738.37890625
 20
-1897.31640625
 10
1728.4453125
 20
-1897.31640625
 10
1718.51171875
 20
-1897.31640625
 10
1708.578125
 20
-1887.3828125
 10
1698.64453125
 20
-1897.31640625
 10
1688.7109375
 20
-1897.31640625
 10
1678.77734375
 20
-1897.31640625
 10
1668.84375
 20
-1897.31640625
 10
1658.91015625
 20
-1897.31640625
 10
1648.9765625
 20
-1897.31640625
 10
1639.04296875
 20
-1897.31640625
 10
1629.109375
 20
-1897.31640625
 10
1619.17578125
 20
-1887.3828125
 10
1609.2421875
 20
-1897.31640625
 10
1599.30859375
 20
-1897.31640625
 10
1589.375
 20
-1887.3828125
 10
1579.44140625
 20
-1897.31640625
 10
1569.5078125
 20
-1897.31640625
 10
1559.57421875
 20
-1897.31640625
 10
1549.640625
 20
-1897.31640625
 10
1539.70703125
 20
-1897.31640625
 10
1529.7734375
 20
-1897.31640625
 10
1519.83984375
 20
-1897.31640625
 10
1509.90625
 20
-1897.31640625
 10
1499.97265625
 20
-1897.31640625
 10
1490.0390625
 20
-1897.31640625
 10
1480.10546875
 20
-1897.31640625
 10
1470.171875
 20
-1897.31640625
 10
1460.23828125
 20
-1887.3828125
 10
1450.3046875
 20
-1887.3828125
 10
1440.37109375
 20
-1897.31640625
 10
1430.4375
 20
-1887.3828125
 10
1420.50390625
 20
-1897.31640625
 10
1410.5703125
 20
-1897.31640625
 10
1400.63671875
 20
-1897.31640625
 10
1390.703125
 20
-1887.3828125
 10
1380.76953125
 20
-1897.31640625
 10
1370.8359375
 20
-1897.31640625
 10
1360.90234375
 20
-1897.31640625
 10
1350.96875
 20
-1897.31640625
 10
1341.03515625
 20
-1897.31640625
 10
1331.1015625
 20
-1897.31640625
 10
1321.16796875
 20
-1897.31640625
 10
1311.234375
 20
-1897.31640625
 10
1301.30078125
 20
-1887.3828125
 10
1291.3671875
 20
-1897.31640625
 10
1281.43359375
 20
-1897.31640625
 10
1271.5
 20
-1887.3828125
 10
1261.56640625
 20
-1897.31640625
 10
1251.6328125
 20
-1897.31640625
 10
1241.69921875
 20
-1897.31640625
 10
1231.765625
 20
-1897.31640625
 10
1221.83203125
 20
-1897.31640625
 10
1211.8984375
 20
-1897.31640625
 10
1201.96484375
 20
-1897.31640625
 10
1192.03125
 20
-1897.31640625
 10
1182.09765625
 20
-1897.31640625
 10
1172.1640625
 20
-1897.31640625
 10
1162.23046875
 20
-1897.31640625
 10
1152.296875
 20
-1897.31640625
 10
1142.36328125
 20
-1897.31640625
 10
1132.4296875
 20
-1897.31640625
 10
1122.49609375
 20
-1897.31640625
 10
1112.5625
 20
-1887.3828125
 10
1102.62890625
 20
-1897.31640625
 10
1092.6953125
 20
-1897.31640625
 10
1082.76171875
 20
-1897.31640625
 10
1072.828125
 20
-1887.3828125
 10
1062.89453125
 20
-1887.3828125
 10
1052.9609375
 20
-1887.3828125
 10
1043.02734375
 20
-1887.3828125
 10
1033.09375
 20
-1887.3828125
 10
1023.16015625
 20
-1897.31640625
 10
1013.2265625
 20
-1897.31640625
 10
1003.29296875
 20
-1897.31640625
 10
993.359375
 20
-1887.3828125
 10
983.42578125
 20
-1887.3828125
 10
973.4921875
 20
-1887.3828125
 10
963.55859375
 20
-1897.31640625
 10
953.625
 20
-1887.3828125
 10
943.69140625
 20
-1897.31640625
 10
933.7578125
 20
-1897.31640625
 10
923.82421875
 20
-1897.31640625
 10
913.890625
 20
-1887.3828125
 10
903.95703125
 20
-1887.3828125
 10
894.0234375
 20
-1887.3828125
 10
884.08984375
 20
-1897.31640625
 10
874.15625
 20
-1887.3828125
 10
864.22265625
 20
-1897.31640625
 10
854.2890625
 20
-1887.3828125
 10
844.35546875
 20
-1897.31640625
 10
834.421875
 20
-1897.31640625
 10
824.48828125
 20
-1887.3828125
 10
814.5546875
 20
-1887.3828125
 10
804.62109375
 20
-1897.31640625
 10
794.6875
 20
-1897.31640625
 10
784.75390625
 20
-1897.31640625
 10
774.8203125
 20
-1897.31640625
 10
764.88671875
 20
-1897.31640625
 10
754.953125
 20
-1897.31640625
 10
745.01953125
 20
-1897.31640625
 10
735.0859375
 20
-1897.31640625
 10
725.15234375
 20
-1897.31640625
 10
715.21875
 20
-1897.31640625
 10
705.28515625
 20
-1897.31640625
 10
695.3515625
 20
-1907.25
 10
695.3515625
 20
-1917.18359375
 10
685.41796875
 20
-1927.1171875
 10
685.41796875
 20
-1937.05078125
 10
685.41796875
 20
-1946.984375
 10
685.41796875
 20
-1956.91796875
 10
685.41796875
 20
-1966.8515625
 10
685.41796875
 20
-1976.78515625
 10
685.41796875
 20
-1986.71875
 10
685.41796875
 20
-1996.65234375
 10
695.3515625
 20
-2006.5859375
 10
685.41796875
 20
-2016.51953125
 10
685.41796875
 20
-2026.453125
 10
695.3515625
 20
-2036.38671875
 10
695.3515625
 20
-2046.3203125
 10
695.3515625
 20
-2056.25390625
 10
695.3515625
 20
-2066.1875
 10
695.3515625
 20
-2076.12109375
 10
695.3515625
 20
-2086.0546875
 10
695.3515625
 20
-2095.98828125
 10
695.3515625
 20
-2105.921875
 10
695.3515625
 20
-2115.85546875
 10
695.3515625
 20
-2125.7890625
 10
695.3515625
 20
-2135.72265625
 10
695.3515625
 20
-2145.65625
 10
695.3515625
 20
-2155.58984375
 10
695.3515625
 20
-2165.5234375
 10
695.3515625
 20
-2175.45703125
 10
695.3515625
 20
-2185.390625
 10
695.3515625
 20
-2195.32421875
 10
695.3515625
 20
-2205.2578125
 10
695.3515625
 20
-2215.19140625
 10
695.3515625
 20
-2225.125
 10
695.3515625
 20
-2235.05859375
 10
695.3515625
 20
-2244.9921875
 10
695.3515625
 20
-2254.92578125
 10
695.3515625
 20
-2264.859375
 10
695.3515625
 20
-2274.79296875
 10
695.3515625
 20
-2284.7265625
 10
695.3515625
 20
-2294.66015625
 10
685.41796875
 20
-2304.59375
 10
695.3515625
 20
-2314.52734375
 10
695.3515625
 20
-2324.4609375
 10
695.3515625
 20
-2334.39453125
 10
695.3515625
 20
-2344.328125
 10
695.3515625
 20
-2354.26171875
 10
695.3515625
 20
-2364.1953125
 10
695.3515625
 20
-2374.12890625
 10
695.3515625
 20
-2384.0625
 10
695.3515625
 20
-2393.99609375
 10
695.3515625
 20
-2403.9296875
 10
695.3515625
 20
-2413.86328125
 10
695.3515625
 20
-2423.796875
 10
695.3515625
 20
-2433.73046875
 10
695.3515625
 20
-2443.6640625
 10
695.3515625
 20
-2453.59765625
 10
695.3515625
 20
-2463.53125
 10
695.3515625
 20
-2473.46484375
 10
695.3515625
 20
-2483.3984375
 10
695.3515625
 20
-2493.33203125
 10
695.3515625
 20
-2503.265625
 10
695.3515625
 20
-2513.19921875
 10
695.3515625
 20
-2523.1328125
 10
695.3515625
 20
-2533.06640625
 10
695.3515625
 20
-2543.0
 10
695.3515625
 20
-2552.93359375
 10
695.3515625
 20
-2562.8671875
 10
695.3515625
 20
-2572.80078125
 10
695.3515625
 20
-2582.734375
 10
695.3515625
 20
-2592.66796875
 10
695.3515625
 20
-2602.6015625
 10
695.3515625
 20
-2612.53515625
 10
695.3515625
 20
-2622.46875
 10
695.3515625
 20
-2632.40234375
 10
695.3515625
 20
-2642.3359375
 10
695.3515625
 20
-2652.26953125
 10
695.3515625
 20
-2662.203125
 10
695.3515625
 20
-2672.13671875
 10
695.3515625
 20
-2682.0703125
 10
695.3515625
 20
-2692.00390625
 10
695.3515625
 20
-2701.9375
 10
695.3515625
 20
-2711.87109375
 10
695.3515625
 20
-2721.8046875
 10
695.3515625
 20
-2731.73828125
 10
695.3515625
 20
-2741.671875
 10
695.3515625
 20
-2751.60546875
 10
695.3515625
 20
-2761.5390625
 10
695.3515625
 20
-2771.47265625
 10
695.3515625
 20
-2781.40625
 10
695.3515625
 20
-2791.33984375
 10
695.3515625
 20
-2801.2734375
 10
695.3515625
 20
-2811.20703125
 10
695.3515625
 20
-2821.140625
 10
695.3515625
 20
-2831.07421875
 10
695.3515625
 20
-2841.0078125
 10
695.3515625
 20
-2850.94140625
 10
705.28515625
 20
-2860.875
 10
705.28515625
 20
-2870.80859375
 10
705.28515625
 20
-2880.7421875
 10
705.28515625
 20
-2890.67578125
 10
705.28515625
 20
-2900.609375
 10
705.28515625
 20
-2910.54296875
 10
705.28515625
 20
-2920.4765625
 10
705.28515625
 20
-2930.41015625
 10
705.28515625
 20
-2940.34375
 10
705.28515625
 20
-2950.27734375
 10
705.28515625
 20
-2960.2109375
 10
705.28515625
 20
-2970.14453125
 10
695.3515625
 20
-2980.078125
 10
695.3515625
 20
-2990.01171875
 10
705.28515625
 20
-2999.9453125
 10
705.28515625
 20
-3009.87890625
 10
705.28515625
 20
-3019.8125
 10
705.28515625
 20
-3029.74609375
 10
705.28515625
 20
-3039.6796875
 10
705.28515625
 20
-3049.61328125
 10
705.28515625
 20
-3059.546875
 10
705.28515625
 20
-3069.48046875
 10
695.3515625
 20
-3079.4140625
 10
705.28515625
 20
-3089.34765625
 10
705.28515625
 20
-3099.28125
 10
705.28515625
 20
-3109.21484375
 10
705.28515625
 20
-3119.1484375
 10
705.28515625
 20
-3129.08203125
 10
705.28515625
 20
-3139.015625
 10
705.28515625
 20
-3148.94921875
 10
705.28515625
 20
-3158.8828125
 10
715.21875
 20
-3168.81640625
 10
725.15234375
 20
-3168.81640625
 10
735.0859375
 20
-3168.81640625
 10
745.01953125
 20
-3168.81640625
 10
754.953125
 20
-3168.81640625
 10
764.88671875
 20
-3168.81640625
 10
774.8203125
 20
-3168.81640625
 10
784.75390625
 20
-3168.81640625
 10
794.6875
 20
-3168.81640625
 10
804.62109375
 20
-3178.75
 10
814.5546875
 20
-3178.75
 10
824.48828125
 20
-3178.75
 10
834.421875
 20
-3178.75
 10
844.35546875
 20
-3178.75
 10
854.2890625
 20
-3178.75
 10
864.22265625
 20
-3178.75
 10
874.15625
 20
-3178.75
 10
884.08984375
 20
-3178.75
 10
894.0234375
 20
-3178.75
 10
903.95703125
 20
-3178.75
 10
913.890625
 20
-3178.75
 10
923.82421875
 20
-3178.75
 10
933.7578125
 20
-3178.75
 10
943.69140625
 20
-3178.75
 10
953.625
 20
-3178.75
 10
963.55859375
 20
-3178.75
 10
973.4921875
 20
-3178.75
 10
983.42578125
 20
-3178.75
 10
993.359375
 20
-3178.75
 10
1003.29296875
 20
-3178.75
 10
1013.2265625
 20
-3178.75
 10
1023.16015625
 20
-3178.75
 10
1033.09375
 20
-3178.75
 10
1043.02734375
 20
-3178.75
 10
1052.9609375
 20
-3178.75
 10
1062.89453125
 20
-3188.68359375
 10
1072.828125
 20
-3178.75
 10
1082.76171875
 20
-3178.75
 10
1092.6953125
 20
-3178.75
 10
1102.62890625
 20
-3178.75
 10
1112.5625
 20
-3178.75
 10
1122.49609375
 20
-3178.75
 10
1132.4296875
 20
-3178.75
 10
1142.36328125
 20
-3178.75
 10
1152.296875
 20
-3178.75
 10
1162.23046875
 20
-3178.75
 10
1172.1640625
 20
-3178.75
 10
1182.09765625
 20
-3178.75
 10
1192.03125
 20
-3178.75
 10
1201.96484375
 20
-3178.75
 10
1211.8984375
 20
-3178.75
 10
1221.83203125
 20
-3178.75
 10
1231.765625
 20
-3178.75
 10
1241.69921875
 20
-3178.75
 10
1251.6328125
 20
-3178.75
 10
1261.56640625
 20
-3178.75
 10
1271.5
 20
-3178.75
 10
1281.43359375
 20
-3178.75
 10
1291.3671875
 20
-3178.75
 10
1301.30078125
 20
-3178.75
 10
1311.234375
 20
-3178.75
 10
1321.16796875
 20
-3178.75
 10
1331.1015625
 20
-3178.75
 10
1341.03515625
 20
-3178.75
 10
1350.96875
 20
-3178.75
 10
1360.90234375
 20
-3178.75
 10
1370.8359375
 20
-3178.75
 10
1380.76953125
 20
-3178.75
 10
1390.703125
 20
-3178.75
 10
1400.63671875
 20
-3178.75
 10
1410.5703125
 20
-3168.81640625
 10
1420.50390625
 20
-3178.75
 10
1430.4375
 20
-3178.75
 10
1440.37109375
 20
-3178.75
 10
1450.3046875
 20
-3178.75
 10
1460.23828125
 20
-3178.75
 10
1470.171875
 20
-3178.75
 10
1480.10546875
 20
-3178.75
 10
1490.0390625
 20
-3178.75
 10
1499.97265625
 20
-3178.75
 10
1509.90625
 20
-3178.75
 10
1519.83984375
 20
-3178.75
 10
1529.7734375
 20
-3178.75
 10
1539.70703125
 20
-3178.75
 10
1549.640625
 20
-3178.75
 10
1559.57421875
 20
-3178.75
 10
1569.5078125
 20
-3178.75
 10
1579.44140625
 20
-3178.75
 10
1589.375
 20
-3178.75
 10
1599.30859375
 20
-3188.68359375
 10
1609.2421875
 20
-3178.75
 10
1619.17578125
 20
-3188.68359375
 10
1629.109375
 20
-3178.75
 10
1639.04296875
 20
-3178.75
 10
1648.9765625
 20
-3178.75
 10
1658.91015625
 20
-3178.75
 10
1668.84375
 20
-3178.75
 10
1678.77734375
 20
-3178.75
 10
1688.7109375
 20
-3168.81640625
 10
1698.64453125
 20
-3178.75
 10
1708.578125
 20
-3178.75
 10
1718.51171875
 20
-3178.75
 10
1728.4453125
 20
-3178.75
 10
1738.37890625
 20
-3178.75
 10
1748.3125
 20
-3178.75
 10
1758.24609375
 20
-3178.75
 10
1768.1796875
 20
-3178.75
 10
1778.11328125
 20
-3178.75
 10
1788.046875
 20
-3178.75
 10
1797.98046875
 20
-3178.75
 10
1807.9140625
 20
-3178.75
 10
1817.84765625
 20
-3178.75
 10
1827.78125
 20
-3178.75
 10
1837.71484375
 20
-3178.75
 10
1847.6484375
 20
-3178.75
 10
1857.58203125
 20
-3178.75
 10
1867.515625
 20
-3178.75
 10
1877.44921875
 20
-3178.75
 10
1887.3828125
 20
-3168.81640625
 10
1897.31640625
 20
-3168.81640625
 10
1907.25
 20
-3178.75
 10
1907.25
 20
-3188.68359375
 10
1907.25
 20
-3198.6171875
 10
1897.31640625
 20
-3208.55078125
 10
1897.31640625
 20
-3218.484375
 10
1897.31640625
 20
-3228.41796875
 10
1897.31640625
 20
-3238.3515625
 10
1897.31640625
 20
-3248.28515625
 10
1897.31640625
 20
-3258.21875
 10
1897.31640625
 20
-3268.15234375
 10
1897.31640625
 20
-3278.0859375
 10
1897.31640625
 20
-3288.01953125
 10
1897.31640625
 20
-3297.953125
 10
1897.31640625
 20
-3307.88671875
 10
1897.31640625
 20
-3317.8203125
 10
1897.31640625
 20
-3327.75390625
 10
1897.31640625
 20
-3337.6875
 10
1897.31640625
 20
-3347.62109375
 10
1897.31640625
 20
-3357.5546875
 10
1897.31640625
 20
-3367.48828125
 10
1897.31640625
 20
-3377.421875
 10
1897.31640625
 20
-3387.35546875
 10
1897.31640625
 20
-3397.2890625
 10
1897.31640625
 20
-3407.22265625
 10
1897.31640625
 20
-3417.15625
 10
1897.31640625
 20
-3427.08984375
 10
1897.31640625
 20
-3437.0234375
 10
1897.31640625
 20
-3446.95703125
 10
1887.3828125
 20
-3456.890625
 10
1897.31640625
 20
-3466.82421875
 10
1897.31640625
 20
-3476.7578125
 10
1887.3828125
 20
-3486.69140625
 10
1897.31640625
 20
-3496.625
 10
1887.3828125
 20
-3506.55859375
 10
1897.31640625
 20
-3516.4921875
 10
1897.31640625
 20
-3526.42578125
 10
1887.3828125
 20
-3536.359375
 10
1887.3828125
 20
-3546.29296875
 10
1897.31640625
 20
-3556.2265625
 10
1887.3828125
 20
-3566.16015625
 10
1887.3828125
 20
-3576.09375
 10
1887.3828125
 20
-3586.02734375
 10
1897.31640625
 20
-3595.9609375
 10
1887.3828125
 20
-3605.89453125
 10
1887.3828125
 20
-3615.828125
 10
1897.31640625
 20
-3625.76171875
 10
1897.31640625
 20
-3635.6953125
 10
1897.31640625
 20
-3645.62890625
 10
1897.31640625
 20
-3655.5625
 10
1897.31640625
 20
-3665.49609375
 10
1897.31640625
 20
-3675.4296875
 10
1887.3828125
 20
-3685.36328125
 10
1887.3828125
 20
-3695.296875
 10
1887.3828125
 20
-3705.23046875
 10
1887.3828125
 20
-3715.1640625
 10
1887.3828125
 20
-3725.09765625
 10
1887.3828125
 20
-3735.03125
 10
1887.3828125
 20
-3744.96484375
 10
1897.31640625
 20
-3754.8984375
 10
1897.31640625
 20
-3764.83203125
 10
1887.3828125
 20
-3774.765625
 10
1887.3828125
 20
-3784.69921875
 10
1897.31640625
 20
-3794.6328125
 10
1897.31640625
 20
-3804.56640625
 10
1897.31640625
 20
-3814.5
 10
1897.31640625
 20
-3824.43359375
 10
1897.31640625
 20
-3834.3671875
 10
1887.3828125
 20
-3844.30078125
 10
1887.3828125
 20
-3854.234375
 10
1887.3828125
 20
-3864.16796875
 10
1887.3828125
 20
-3874.1015625
 10
1887.3828125
 20
-3884.03515625
 10
1887.3828125
 20
-3893.96875
 10
1887.3828125
 20
-3903.90234375
 10
1897.31640625
 20
-3913.8359375
 10
1897.31640625
 20
-3923.76953125
 10
1887.3828125
 20
-3933.703125
 10
1897.31640625
 20
-3943.63671875
 10
1887.3828125
 20
-3953.5703125
 10
1887.3828125
 20
-3963.50390625
 10
1887.3828125
 20
-3973.4375
 10
1887.3828125
 20
-3983.37109375
 10
1887.3828125
 20
-3993.3046875
 10
1887.3828125
 20
-4003.23828125
 10
1887.3828125
 20
-4013.171875
 10
1887.3828125
 20
-4023.10546875
 10
1887.3828125
 20
-4033.0390625
 10
1887.3828125
 20
-4042.97265625
 10
1887.3828125
 20
-4052.90625
 10
1887.3828125
 20
-4062.83984375
 10
1887.3828125
 20
-4072.7734375
 10
1887.3828125
 20
-4082.70703125
 10
1897.31640625
 20
-4092.640625
 10
1887.3828125
 20
-4102.57421875
 10
1897.31640625
 20
-4112.5078125
 10
1887.3828125
 20
-4122.44140625
 10
1897.31640625
 20
-4132.375
 10
1897.31640625
 20
-4142.30859375
 10
1897.31640625
 20
-4152.2421875
 10
1887.3828125
 20
-4162.17578125
 10
1887.3828125
 20
-4172.109375
 10
1887.3828125
 20
-4182.04296875
 10
1887.3828125
 20
-4191.9765625
 10
1887.3828125
 20
-4201.91015625
 10
1897.31640625
 20
-4211.84375
 10
1897.31640625
 20
-4221.77734375
 10
1897.31640625
 20
-4231.7109375
 10
1897.31640625
 20
-4241.64453125
 10
1897.31640625
 20
-4251.578125
 10
1897.31640625
 20
-4261.51171875
 10
1897.31640625
 20
-4271.4453125
 10
1897.31640625
 20
-4281.37890625
 10
1897.31640625
 20
-4291.3125
 10
1897.31640625
 20
-4301.24609375
 10
1897.31640625
 20
-4311.1796875
 10
1897.31640625
 20
-4321.11328125
 10
1897.31640625
 20
-4331.046875
 10
1897.31640625
 20
-4340.98046875
 10
1897.31640625
 20
-4350.9140625
 10
1897.31640625
 20
-4360.84765625
 10
1907.25
 20
-4370.78125
 10
1917.18359375
 20
-4380.71484375
 10
1927.1171875
 20
-4380.71484375
 10
1937.05078125
 20
-4380.71484375
 10
1946.984375
 20
-4380.71484375
 10
1956.91796875
 20
-4380.71484375
 10
1966.8515625
 20
-4370.78125
 10
1976.78515625
 20
-4370.78125
 10
1986.71875
 20
-4370.78125
 10
1996.65234375
 20
-4370.78125
 10
2006.5859375
 20
-4360.84765625
 10
2016.51953125
 20
-4360.84765625
 10
2026.453125
 20
-4370.78125
 10
2036.38671875
 20
-4360.84765625
 10
2046.3203125
 20
-4360.84765625
 10
2056.25390625
 20
-4360.84765625
 10
2066.1875
 20
-4360.84765625
 10
2076.12109375
 20
-4360.84765625
 10
2086.0546875
 20
-4360.84765625
 10
2095.98828125
 20
-4360.84765625
 10
2105.921875
 20
-4360.84765625
 10
2115.85546875
 20
-4360.84765625
 10
2125.7890625
 20
-4360.84765625
 10
2135.72265625
 20
-4360.84765625
 10
2145.65625
 20
-4360.84765625
 10
2155.58984375
 20
-4360.84765625
 10
2165.5234375
 20
-4360.84765625
 10
2175.45703125
 20
-4360.84765625
 10
2185.390625
 20
-4360.84765625
 10
2195.32421875
 20
-4360.84765625
 10
2205.2578125
 20
-4360.84765625
 10
2215.19140625
 20
-4360.84765625
 10
2225.125
 20
-4350.9140625
 10
2235.05859375
 20
-4360.84765625
 10
2244.9921875
 20
-4360.84765625
 10
2254.92578125
 20
-4360.84765625
 10
2264.859375
 20
-4360.84765625
 10
2274.79296875
 20
-4360.84765625
 10
2284.7265625
 20
-4360.84765625
 10
2294.66015625
 20
-4360.84765625
 10
2304.59375
 20
-4360.84765625
 10
2314.52734375
 20
-4360.84765625
 10
2324.4609375
 20
-4360.84765625
 10
2334.39453125
 20
-4360.84765625
 10
2344.328125
 20
-4360.84765625
 10
2354.26171875
 20
-4360.84765625
 10
2364.1953125
 20
-4360.84765625
 10
2374.12890625
 20
-4360.84765625
 10
2384.0625
 20
-4360.84765625
 10
2393.99609375
 20
-4360.84765625
 10
2403.9296875
 20
-4360.84765625
 10
2413.86328125
 20
-4360.84765625
 10
2423.796875
 20
-4360.84765625
 10
2433.73046875
 20
-4360.84765625
 10
2443.6640625
 20
-4360.84765625
 10
2453.59765625
 20
-4360.84765625
 10
2463.53125
 20
-4360.84765625
 10
2473.46484375
 20
-4360.84765625
 10
2483.3984375
 20
-4360.84765625
 10
2493.33203125
 20
-4360.84765625
 10
2503.265625
 20
-4360.84765625
 10
2513.19921875
 20
-4360.84765625
 10
2523.1328125
 20
-4360.84765625
 10
2533.06640625
 20
-4360.84765625
 10
2543.0
 20
-4360.84765625
 10
2552.93359375
 20
-4360.84765625
 10
2562.8671875
 20
-4360.84765625
 10
2572.80078125
 20
-4360.84765625
 10
2582.734375
 20
-4360.84765625
 10
2592.66796875
 20
-4360.84765625
 10
2602.6015625
 20
-4360.84765625
 10
2612.53515625
 20
-4370.78125
 10
2622.46875
 20
-4360.84765625
 10
2632.40234375
 20
-4370.78125
 10
2642.3359375
 20
-4360.84765625
 10
2652.26953125
 20
-4360.84765625
 10
2662.203125
 20
-4360.84765625
 10
2672.13671875
 20
-4360.84765625
 10
2682.0703125
 20
-4360.84765625
 10
2692.00390625
 20
-4360.84765625
 10
2701.9375
 20
-4360.84765625
 10
2711.87109375
 20
-4360.84765625
 10
2721.8046875
 20
-4360.84765625
 10
2731.73828125
 20
-4360.84765625
 10
2741.671875
 20
-4360.84765625
 10
2751.60546875
 20
-4360.84765625
 10
2761.5390625
 20
-4360.84765625
 10
2771.47265625
 20
-4360.84765625
 10
2781.40625
 20
-4360.84765625
 10
2791.33984375
 20
-4360.84765625
 10
2801.2734375
 20
-4360.84765625
 10
2811.20703125
 20
-4360.84765625
 10
2821.140625
 20
-4360.84765625
 10
2831.07421875
 20
-4360.84765625
 10
2841.0078125
 20
-4360.84765625
 10
2850.94140625
 20
-4360.84765625
 10
2860.875
 20
-4360.84765625
 10
2870.80859375
 20
-4360.84765625
 10
2880.7421875
 20
-4360.84765625
 10
2890.67578125
 20
-4360.84765625
 10
2900.609375
 20
-4360.84765625
 10
2910.54296875
 20
-4360.84765625
 10
2920.4765625
 20
-4360.84765625
 10
2930.41015625
 20
-4360.84765625
 10
2940.34375
 20
-4360.84765625
 10
2950.27734375
 20
-4360.84765625
 10
2960.2109375
 20
-4360.84765625
 10
2970.14453125
 20
-4360.84765625
 10
2980.078125
 20
-4360.84765625
 10
2990.01171875
 20
-4360.84765625
 10
2999.9453125
 20
-4360.84765625
 10
3009.87890625
 20
-4360.84765625
 10
3019.8125
 20
-4360.84765625
 10
3029.74609375
 20
-4360.84765625
 10
3039.6796875
 20
-4360.84765625
 10
3049.61328125
 20
-4360.84765625
 10
3059.546875
 20
-4360.84765625
 10
3069.48046875
 20
-4360.84765625
 10
3079.4140625
 20
-4360.84765625
 10
3089.34765625
 20
-4360.84765625
 10
3099.28125
 20
-4360.84765625
 10
3109.21484375
 20
-4360.84765625
 10
3119.1484375
 20
-4360.84765625
 10
3129.08203125
 20
-4360.84765625
 10
3139.015625
 20
-4370.78125
 10
3148.94921875
 20
-4370.78125
 10
3158.8828125
 20
-4370.78125
 10
3158.8828125
 20
-4360.84765625
 10
3168.81640625
 20
-4350.9140625
 10
3168.81640625
 20
-4340.98046875
 10
3168.81640625
 20
-4331.046875
 10
3168.81640625
 20
-4321.11328125
 10
3168.81640625
 20
-4311.1796875
 10
3168.81640625
 20
-4301.24609375
 10
3168.81640625
 20
-4291.3125
 10
3168.81640625
 20
-4281.37890625
 10
3168.81640625
 20
-4271.4453125
 10
3168.81640625
 20
-4261.51171875
 10
3168.81640625
 20
-4251.578125
 10
3178.75
 20
-4241.64453125
 10
3168.81640625
 20
-4231.7109375
 10
3178.75
 20
-4221.77734375
 10
3168.81640625
 20
-4211.84375
 10
3178.75
 20
-4201.91015625
 10
3178.75
 20
-4191.9765625
 10
3178.75
 20
-4182.04296875
 10
3178.75
 20
-4172.109375
 10
3178.75
 20
-4162.17578125
 10
3178.75
 20
-4152.2421875
 10
3178.75
 20
-4142.30859375
 10
3178.75
 20
-4132.375
 10
3188.68359375
 20
-4122.44140625
 10
3178.75
 20
-4112.5078125
 10
3178.75
 20
-4102.57421875
 10
3178.75
 20
-4092.640625
 10
3178.75
 20
-4082.70703125
 10
3178.75
 20
-4072.7734375
 10
3188.68359375
 20
-4062.83984375
 10
3178.75
 20
-4052.90625
 10
3178.75
 20
-4042.97265625
 10
3178.75
 20
-4033.0390625
 10
3178.75
 20
-4023.10546875
 10
3178.75
 20
-4013.171875
 10
3178.75
 20
-4003.23828125
 10
3188.68359375
 20
-3993.3046875
 10
3188.68359375
 20
-3983.37109375
 10
3178.75
 20
-3973.4375
 10
3188.68359375
 20
-3963.50390625
 10
3188.68359375
 20
-3953.5703125
 10
3188.68359375
 20
-3943.63671875
 10
3188.68359375
 20
-3933.703125
 10
3188.68359375
 20
-3923.76953125
 10
3188.68359375
 20
-3913.8359375
 10
3188.68359375
 20
-3903.90234375
 10
3178.75
 20
-3893.96875
 10
3178.75
 20
-3884.03515625
 10
3178.75
 20
-3874.1015625
 10
3178.75
 20
-3864.16796875
 10
3178.75
 20
-3854.234375
 10
3178.75
 20
-3844.30078125
 10
3178.75
 20
-3834.3671875
 10
3178.75
 20
-3824.43359375
 10
3178.75
 20
-3814.5
 10
3178.75
 20
-3804.56640625
 10
3178.75
 20
-3794.6328125
 10
3168.81640625
 20
-3784.69921875
 10
3178.75
 20
-3774.765625
 10
3178.75
 20
-3764.83203125
 10
3178.75
 20
-3754.8984375
 10
3178.75
 20
-3744.96484375
 10
3178.75
 20
-3735.03125
 10
3178.75
 20
-3725.09765625
 10
3178.75
 20
-3715.1640625
 10
3178.75
 20
-3705.23046875
 10
3178.75
 20
-3695.296875
 10
3178.75
 20
-3685.36328125
 10
3178.75
 20
-3675.4296875
 10
3178.75
 20
-3665.49609375
 10
3178.75
 20
-3655.5625
 10
3178.75
 20
-3645.62890625
 10
3178.75
 20
-3635.6953125
 10
3188.68359375
 20
-3625.76171875
 10
3188.68359375
 20
-3615.828125
 10
3178.75
 20
-3605.89453125
 10
3188.68359375
 20
-3595.9609375
 10
3188.68359375
 20
-3586.02734375
 10
3178.75
 20
-3576.09375
 10
3178.75
 20
-3566.16015625
 10
3178.75
 20
-3556.2265625
 10
3178.75
 20
-3546.29296875
 10
3178.75
 20
-3536.359375
 10
3178.75
 20
-3526.42578125
 10
3188.68359375
 20
-3516.4921875
 10
3178.75
 20
-3506.55859375
 10
3178.75
 20
-3496.625
 10
3188.68359375
 20
-3486.69140625
 10
3188.68359375
 20
-3476.7578125
 10
3188.68359375
 20
-3466.82421875
 10
3178.75
 20
-3456.890625
 10
3178.75
 20
-3446.95703125
 10
3188.68359375
 20
-3437.0234375
 10
3188.68359375
 20
-3427.08984375
 10
3178.75
 20
-3417.15625
 10
3178.75
 20
-3407.22265625
 10
3178.75
 20
-3397.2890625
 10
3178.75
 20
-3387.35546875
 10
3178.75
 20
-3377.421875
 10
3178.75
 20
-3367.48828125
 10
3178.75
 20
-3357.5546875
 10
3178.75
 20
-3347.62109375
 10
3178.75
 20
-3337.6875
 10
3178.75
 20
-3327.75390625
 10
3178.75
 20
-3317.8203125
 10
3178.75
 20
-3307.88671875
 10
3178.75
 20
-3297.953125
 10
3178.75
 20
-3288.01953125
 10
3178.75
 20
-3278.0859375
 10
3178.75
 20
-3268.15234375
 10
3178.75
 20
-3258.21875
 10
3178.75
 20
-3248.28515625
 10
3178.75
 20
-3238.3515625
 10
3168.81640625
 20
-3228.41796875
 10
3168.81640625
 20
-3218.484375
 10
3168.81640625
 20
-3208.55078125
 10
3168.81640625
 20
-3198.6171875
 10
3158.8828125
 20
-3188.68359375
 10
3168.81640625
 20
-3178.75
 10
3178.75
 20
-3168.81640625
 10
3188.68359375
 20
-3168.81640625
 10
3198.6171875
 20
-3168.81640625
 10
3208.55078125
 20
-3168.81640625
 10
3218.484375
 20
-3178.75
 10
3228.41796875
 20
-3178.75
 10
3238.3515625
 20
-3178.75
 10
3248.28515625
 20
-3178.75
 10
3258.21875
 20
-3178.75
 10
3268.15234375
 20
-3178.75
 10
3278.0859375
 20
-3168.81640625
 10
3288.01953125
 20
-3178.75
 10
3297.953125
 20
-3178.75
 10
3307.88671875
 20
-3178.75
 10
3317.8203125
 20
-3178.75
 10
3327.75390625
 20
-3178.75
 10
3337.6875
 20
-3178.75
 10
3347.62109375
 20
-3178.75
 10
3357.5546875
 20
-3178.75
 10
3367.48828125
 20
-3178.75
 10
3377.421875
 20
-3178.75
 10
3387.35546875
 20
-3178.75
 10
3397.2890625
 20
-3178.75
 10
3407.22265625
 20
-3178.75
 10
3417.15625
 20
-3178.75
 10
3427.08984375
 20
-3178.75
 10
3437.0234375
 20
-3178.75
 10
3446.95703125
 20
-3178.75
 10
3456.890625
 20
-3178.75
 10
3466.82421875
 20
-3178.75
 10
3476.7578125
 20
-3178.75
 10
3486.69140625
 20
-3178.75
 10
3496.625
 20
-3178.75
 10
3506.55859375
 20
-3178.75
 10
3516.4921875
 20
-3168.81640625
 10
3526.42578125
 20
-3168.81640625
 10
3536.359375
 20
-3178.75
 10
3546.29296875
 20
-3178.75
 10
3556.2265625
 20
-3168.81640625
 10
3566.16015625
 20
-3168.81640625
 10
3576.09375
 20
-3178.75
 10
3586.02734375
 20
-3178.75
 10
3595.9609375
 20
-3168.81640625
 10
3605.89453125
 20
-3178.75
 10
3615.828125
 20
-3178.75
 10
3625.76171875
 20
-3178.75
 10
3635.6953125
 20
-3168.81640625
 10
3645.62890625
 20
-3178.75
 10
3655.5625
 20
-3178.75
 10
3665.49609375
 20
-3178.75
 10
3675.4296875
 20
-3168.81640625
 10
3685.36328125
 20
-3178.75
 10
3695.296875
 20
-3178.75
 10
3705.23046875
 20
-3178.75
 10
3715.1640625
 20
-3168.81640625
 10
3725.09765625
 20
-3178.75
 10
3735.03125
 20
-3178.75
 10
3744.96484375
 20
-3178.75
 10
3754.8984375
 20
-3178.75
 10
3764.83203125
 20
-3178.75
 10
3774.765625
 20
-3178.75
 10
3784.69921875
 20
-3178.75
 10
3794.6328125
 20
-3168.81640625
 10
3804.56640625
 20
-3178.75
 10
3814.5
 20
-3178.75
 10
3824.43359375
 20
-3178.75
 10
3834.3671875
 20
-3178.75
 10
3844.30078125
 20
-3178.75
 10
3854.234375
 20
-3178.75
 10
3864.16796875
 20
-3178.75
 10
3874.1015625
 20
-3168.81640625
 10
3884.03515625
 20
-3178.75
 10
3893.96875
 20
-3168.81640625
 10
3903.90234375
 20
-3178.75
 10
3913.8359375
 20
-3168.81640625
 10
3923.76953125
 20
-3178.75
 10
3933.703125
 20
-3178.75
 10
3943.63671875
 20
-3178.75
 10
3953.5703125
 20
-3168.81640625
 10
3963.50390625
 20
-3178.75
 10
3973.4375
 20
-3168.81640625
 10
3983.37109375
 20
-3168.81640625
 10
3993.3046875
 20
-3168.81640625
 10
4003.23828125
 20
-3178.75
 10
4013.171875
 20
-3178.75
 10
4023.10546875
 20
-3178.75
 10
4033.0390625
 20
-3178.75
 10
4042.97265625
 20
-3178.75
 10
4052.90625
 20
-3178.75
 10
4062.83984375
 20
-3178.75
 10
4072.7734375
 20
-3178.75
 10
4082.70703125
 20
-3178.75
 10
4092.640625
 20
-3178.75
 10
4102.57421875
 20
-3178.75
 10
4112.5078125
 20
-3168.81640625
 10
4122.44140625
 20
-3178.75
 10
4132.375
 20
-3178.75
 10
4142.30859375
 20
-3178.75
 10
4152.2421875
 20
-3178.75
 10
4162.17578125
 20
-3178.75
 10
4172.109375
 20
-3178.75
 10
4182.04296875
 20
-3178.75
 10
4191.9765625
 20
-3178.75
 10
4201.91015625
 20
-3178.75
 10
4211.84375
 20
-3178.75
 10
4221.77734375
 20
-3178.75
 10
4231.7109375
 20
-3178.75
 10
4241.64453125
 20
-3178.75
 10
4251.578125
 20
-3178.75
 10
4261.51171875
 20
-3178.75
 10
4271.4453125
 20
-3168.81640625
 10
4281.37890625
 20
-3178.75
 10
4291.3125
 20
-3178.75
 10
4301.24609375
 20
-3168.81640625
 10
4311.1796875
 20
-3168.81640625
 10
4321.11328125
 20
-3168.81640625
 10
4331.046875
 20
-3168.81640625
 10
4340.98046875
 20
-3158.8828125
 10
4350.9140625
 20
-3148.94921875
 10
4340.98046875
 20
-3139.015625
 10
4350.9140625
 20
-3129.08203125
 10
4350.9140625
 20
-3119.1484375
 10
4350.9140625
 20
-3109.21484375
 10
4350.9140625
 20
-3099.28125
 10
4350.9140625
 20
-3089.34765625
 10
4350.9140625
 20
-3079.4140625
 10
4350.9140625
 20
-3069.48046875
 10
4350.9140625
 20
-3059.546875
 10
4350.9140625
 20
-3049.61328125
 10
4350.9140625
 20
-3039.6796875
 10
4350.9140625
 20
-3029.74609375
 10
4340.98046875
 20
-3019.8125
 10
4350.9140625
 20
-3009.87890625
 10
4350.9140625
 20
-2999.9453125
 10
4350.9140625
 20
-2990.01171875
 10
4350.9140625
 20
-2980.078125
 10
4350.9140625
 20
-2970.14453125
 10
4350.9140625
 20
-2960.2109375
 10
4350.9140625
 20
-2950.27734375
 10
4350.9140625
 20
-2940.34375
 10
4350.9140625
 20
-2930.41015625
 10
4350.9140625
 20
-2920.4765625
 10
4360.84765625
 20
-2910.54296875
 10
4360.84765625
 20
-2900.609375
 10
4360.84765625
 20
-2890.67578125
 10
4360.84765625
 20
-2880.7421875
 10
4360.84765625
 20
-2870.80859375
 10
4360.84765625
 20
-2860.875
 10
4360.84765625
 20
-2850.94140625
 10
4360.84765625
 20
-2841.0078125
 10
4360.84765625
 20
-2831.07421875
 10
4360.84765625
 20
-2821.140625
 10
4360.84765625
 20
-2811.20703125
 10
4360.84765625
 20
-2801.2734375
 10
4360.84765625
 20
-2791.33984375
 10
4360.84765625
 20
-2781.40625
 10
4350.9140625
 20
-2771.47265625
 10
4350.9140625
 20
-2761.5390625
 10
4350.9140625
 20
-2751.60546875
 10
4360.84765625
 20
-2741.671875
 10
4350.9140625
 20
-2731.73828125
 10
4350.9140625
 20
-2721.8046875
 10
4350.9140625
 20
-2711.87109375
 10
4350.9140625
 20
-2701.9375
 10
4350.9140625
 20
-2692.00390625
 10
4350.9140625
 20
-2682.0703125
 10
4350.9140625
 20
-2672.13671875
 10
4350.9140625
 20
-2662.203125
 10
4350.9140625
 20
-2652.26953125
 10
4350.9140625
 20
-2642.3359375
 10
4350.9140625
 20
-2632.40234375
 10
4350.9140625
 20
-2622.46875
 10
4350.9140625
 20
-2612.53515625
 10
4350.9140625
 20
-2602.6015625
 10
4350.9140625
 20
-2592.66796875
 10
4350.9140625
 20
-2582.734375
 10
4350.9140625
 20
-2572.80078125
 10
4360.84765625
 20
-2562.8671875
 10
4350.9140625
 20
-2552.93359375
 10
4360.84765625
 20
-2543.0
 10
4350.9140625
 20
-2533.06640625
 10
4350.9140625
 20
-2523.1328125
 10
4350.9140625
 20
-2513.19921875
 10
4360.84765625
 20
-2503.265625
 10
4350.9140625
 20
-2493.33203125
 10
4360.84765625
 20
-2483.3984375
 10
4360.84765625
 20
-2473.46484375
 10
4360.84765625
 20
-2463.53125
 10
4350.9140625
 20
-2453.59765625
 10
4360.84765625
 20
-2443.6640625
 10
4360.84765625
 20
-2433.73046875
 10
4360.84765625
 20
-2423.796875
 10
4360.84765625
 20
-2413.86328125
 10
4360.84765625
 20
-2403.9296875
 10
4360.84765625
 20
-2393.99609375
 10
4360.84765625
 20
-2384.0625
 10
4350.9140625
 20
-2374.12890625
 10
4350.9140625
 20
-2364.1953125
 10
4350.9140625
 20
-2354.26171875
 10
4350.9140625
 20
-2344.328125
 10
4350.9140625
 20
-2334.39453125
 10
4350.9140625
 20
-2324.4609375
 10
4350.9140625
 20
-2314.52734375
 10
4350.9140625
 20
-2304.59375
 10
4350.9140625
 20
-2294.66015625
 10
4350.9140625
 20
-2284.7265625
 10
4350.9140625
 20
-2274.79296875
 10
4350.9140625
 20
-2264.859375
 10
4350.9140625
 20
-2254.92578125
 10
4350.9140625
 20
-2244.9921875
 10
4350.9140625
 20
-2235.05859375
 10
4350.9140625
 20
-2225.125
 10
4350.9140625
 20
-2215.19140625
 10
4350.9140625
 20
-2205.2578125
 10
4350.9140625
 20
-2195.32421875
 10
4340.98046875
 20
-2185.390625
 10
4350.9140625
 20
-2175.45703125
 10
4340.98046875
 20
-2165.5234375
 10
4350.9140625
 20
-2155.58984375
 10
4340.98046875
 20
-2145.65625
 10
4350.9140625
 20
-2135.72265625
 10
4340.98046875
 20
-2125.7890625
 10
4350.9140625
 20
-2115.85546875
 10
4350.9140625
 20
-2105.921875
 10
4350.9140625
 20
-2095.98828125
 10
4340.98046875
 20
-2086.0546875
 10
4350.9140625
 20
-2076.12109375
 10
4340.98046875
 20
-2066.1875
 10
4340.98046875
 20
-2056.25390625
 10
4340.98046875
 20
-2046.3203125
 10
4340.98046875
 20
-2036.38671875
 10
4340.98046875
 20
-2026.453125
 10
4350.9140625
 20
-2016.51953125
 10
4350.9140625
 20
-2006.5859375
 10
4350.9140625
 20
-1996.65234375
 10
4350.9140625
 20
-1986.71875
 10
4350.9140625
 20
-1976.78515625
 10
4350.9140625
 20
-1966.8515625
 10
4350.9140625
 20
-1956.91796875
 10
4360.84765625
 20
-1946.984375
 10
4360.84765625
 20
-1937.05078125
 10
4370.78125
 20
-1927.1171875
 10
4360.84765625
 20
-1917.18359375
 10
4360.84765625
 20
-1907.25
 10
4350.9140625
 20
-1907.25
 10
4340.98046875
 20
-1907.25
 10
4331.046875
 20
-1907.25
 10
4321.11328125
 20
-1907.25
 10
4311.1796875
 20
-1897.31640625
 10
4301.24609375
 20
-1897.31640625
 10
4291.3125
 20
-1897.31640625
 10
4281.37890625
 20
-1907.25
 10
4271.4453125
 20
-1897.31640625
 10
4261.51171875
 20
-1907.25
 10
4251.578125
 20
-1897.31640625
 10
4241.64453125
 20
-1897.31640625
 10
4231.7109375
 20
-1897.31640625
 10
4221.77734375
 20
-1897.31640625
 10
4211.84375
 20
-1897.31640625
 10
4201.91015625
 20
-1897.31640625
 10
4191.9765625
 20
-1897.31640625
 10
4182.04296875
 20
-1897.31640625
 10
4172.109375
 20
-1897.31640625
 10
4162.17578125
 20
-1897.31640625
 10
4152.2421875
 20
-1897.31640625
 10
4142.30859375
 20
-1897.31640625
 10
4132.375
 20
-1897.31640625
 10
4122.44140625
 20
-1897.31640625
 10
4112.5078125
 20
-1897.31640625
 10
4102.57421875
 20
-1907.25
 10
4092.640625
 20
-1897.31640625
 10
4082.70703125
 20
-1897.31640625
 10
4072.7734375
 20
-1897.31640625
 10
4062.83984375
 20
-1897.31640625
 10
4052.90625
 20
-1897.31640625
 10
4042.97265625
 20
-1897.31640625
 10
4033.0390625
 20
-1897.31640625
 10
4023.10546875
 20
-1897.31640625
 10
4013.171875
 20
-1897.31640625
 10
4003.23828125
 20
-1897.31640625
 10
3993.3046875
 20
-1897.31640625
 10
3983.37109375
 20
-1897.31640625
 10
3973.4375
 20
-1897.31640625
 10
3963.50390625
 20
-1897.31640625
 10
3953.5703125
 20
-1897.31640625
 10
3943.63671875
 20
-1907.25
 10
3933.703125
 20
-1897.31640625
 10
3923.76953125
 20
-1897.31640625
 10
3913.8359375
 20
-1897.31640625
 10
3903.90234375
 20
-1897.31640625
 10
3893.96875
 20
-1897.31640625
 10
3884.03515625
 20
-1897.31640625
 10
3874.1015625
 20
-1897.31640625
 10
3864.16796875
 20
-1897.31640625
 10
3854.234375
 20
-1897.31640625
 10
3844.30078125
 20
-1897.31640625
 10
3834.3671875
 20
-1897.31640625
 10
3824.43359375
 20
-1897.31640625
 10
3814.5
 20
-1897.31640625
 10
3804.56640625
 20
-1897.31640625
 10
3794.6328125
 20
-1897.31640625
 10
3784.69921875
 20
-1907.25
 10
3774.765625
 20
-1897.31640625
 10
3764.83203125
 20
-1897.31640625
 10
3754.8984375
 20
-1897.31640625
 10
3744.96484375
 20
-1897.31640625
 10
3735.03125
 20
-1897.31640625
 10
3725.09765625
 20
-1907.25
 10
3715.1640625
 20
-1897.31640625
 10
3705.23046875
 20
-1907.25
 10
3695.296875
 20
-1897.31640625
 10
3685.36328125
 20
-1897.31640625
 10
3675.4296875
 20
-1897.31640625
 10
3665.49609375
 20
-1897.31640625
 10
3655.5625
 20
-1897.31640625
 10
3645.62890625
 20
-1897.31640625
 10
3635.6953125
 20
-1897.31640625
 10
3625.76171875
 20
-1897.31640625
 10
3615.828125
 20
-1897.31640625
 10
3605.89453125
 20
-1897.31640625
 10
3595.9609375
 20
-1897.31640625
 10
3586.02734375
 20
-1897.31640625
 10
3576.09375
 20
-1897.31640625
 10
3566.16015625
 20
-1897.31640625
 10
3556.2265625
 20
-1897.31640625
 10
3546.29296875
 20
-1897.31640625
 10
3536.359375
 20
-1897.31640625
 10
3526.42578125
 20
-1897.31640625
 10
3516.4921875
 20
-1897.31640625
 10
3506.55859375
 20
-1907.25
 10
3496.625
 20
-1897.31640625
 10
3486.69140625
 20
-1897.31640625
 10
3476.7578125
 20
-1897.31640625
 10
3466.82421875
 20
-1907.25
 10
3456.890625
 20
-1897.31640625
 10
3446.95703125
 20
-1897.31640625
 10
3437.0234375
 20
-1897.31640625
 10
3427.08984375
 20
-1897.31640625
 10
3417.15625
 20
-1897.31640625
 10
3407.22265625
 20
-1897.31640625
 10
3397.2890625
 20
-1897.31640625
 10
3387.35546875
 20
-1897.31640625
 10
3377.421875
 20
-1897.31640625
 10
3367.48828125
 20
-1897.31640625
 10
3357.5546875
 20
-1897.31640625
 10
3347.62109375
 20
-1897.31640625
 10
3337.6875
 20
-1897.31640625
 10
3327.75390625
 20
-1897.31640625
 10
3317.8203125
 20
-1897.31640625
 10
3307.88671875
 20
-1907.25
 10
3297.953125
 20
-1897.31640625
 10
3288.01953125
 20
-1897.31640625
 10
3278.0859375
 20
-1897.31640625
 10
3268.15234375
 20
-1897.31640625
 10
3258.21875
 20
-1897.31640625
 10
3248.28515625
 20
-1897.31640625
 10
3238.3515625
 20
-1897.31640625
 10
3228.41796875
 20
-1897.31640625
 10
3218.484375
 20
-1897.31640625
 10
3208.55078125
 20
-1897.31640625
 10
3198.6171875
 20
-1887.3828125
 10
3188.68359375
 20
-1897.31640625
 10
3178.75
 20
-1887.3828125
 10
3178.75
 20
-1877.44921875
 10
3178.75
 20
-1867.515625
 10
3178.75
 20
-1857.58203125
 10
3178.75
 20
-1847.6484375
 10
3178.75
 20
-1837.71484375
 10
3178.75
 20
-1827.78125
 10
3178.75
 20
-1817.84765625
 10
3178.75
 20
-1807.9140625
 10
3178.75
 20
-1797.98046875
 10
3178.75
 20
-1788.046875
 10
3178.75
 20
-1778.11328125
 10
3178.75
 20
-1768.1796875
 10
3178.75
 20
-1758.24609375
 10
3178.75
 20
-1748.3125
 10
3178.75
 20
-1738.37890625
 10
3178.75
 20
-1728.4453125
 10
3168.81640625
 20
-1718.51171875
 10
3178.75
 20
-1708.578125
 10
3178.75
 20
-1698.64453125
 10
3178.75
 20
-1688.7109375
 10
3188.68359375
 20
-1678.77734375
 10
3178.75
 20
-1668.84375
 10
3178.75
 20
-1658.91015625
 10
3178.75
 20
-1648.9765625
 10
3178.75
 20
-1639.04296875
 10
3178.75
 20
-1629.109375
 10
3178.75
 20
-1619.17578125
 10
3178.75
 20
-1609.2421875
 10
3178.75
 20
-1599.30859375
 10
3178.75
 20
-1589.375
 10
3178.75
 20
-1579.44140625
 10
3178.75
 20
-1569.5078125
 10
3178.75
 20
-1559.57421875
 10
3178.75
 20
-1549.640625
 10
3178.75
 20
-1539.70703125
 10
3178.75
 20
-1529.7734375
 10
3178.75
 20
-1519.83984375
 10
3178.75
 20
-1509.90625
 10
3178.75
 20
-1499.97265625
 10
3178.75
 20
-1490.0390625
 10
3178.75
 20
-1480.10546875
 10
3178.75
 20
-1470.171875
 10
3178.75
 20
-1460.23828125
 10
3178.75
 20
-1450.3046875
 10
3178.75
 20
-1440.37109375
 10
3178.75
 20
-1430.4375
 10
3178.75
 20
-1420.50390625
 10
3178.75
 20
-1410.5703125
 10
3178.75
 20
-1400.63671875
 10
3178.75
 20
-1390.703125
 10
3178.75
 20
-1380.76953125
 10
3178.75
 20
-1370.8359375
 10
3178.75
 20
-1360.90234375
 10
3178.75
 20
-1350.96875
 10
3168.81640625
 20
-1341.03515625
 10
3178.75
 20
-1331.1015625
 10
3168.81640625
 20
-1321.16796875
 10
3168.81640625
 20
-1311.234375
 10
3168.81640625
 20
-1301.30078125
 10
3178.75
 20
-1291.3671875
 10
3168.81640625
 20
-1281.43359375
 10
3168.81640625
 20
-1271.5
 10
3168.81640625
 20
-1261.56640625
 10
3168.81640625
 20
-1251.6328125
 10
3168.81640625
 20
-1241.69921875
 10
3168.81640625
 20
-1231.765625
 10
3168.81640625
 20
-1221.83203125
 10
3168.81640625
 20
-1211.8984375
 10
3178.75
 20
-1201.96484375
 10
3168.81640625
 20
-1192.03125
 10
3168.81640625
 20
-1182.09765625
 10
3178.75
 20
-1172.1640625
 10
3168.81640625
 20
-1162.23046875
 10
3178.75
 20
-1152.296875
 10
3178.75
 20
-1142.36328125
 10
3178.75
 20
-1132.4296875
 10
3178.75
 20
-1122.49609375
 10
3178.75
 20
-1112.5625
 10
3178.75
 20
-1102.62890625
 10
3178.75
 20
-1092.6953125
 10
3178.75
 20
-1082.76171875
 10
3178.75
 20
-1072.828125
 10
3178.75
 20
-1062.89453125
 10
3178.75
 20
-1052.9609375
 10
3178.75
 20
-1043.02734375
 10
3178.75
 20
-1033.09375
 10
3178.75
 20
-1023.16015625
 10
3178.75
 20
-1013.2265625
 10
3168.81640625
 20
-1003.29296875
 10
3178.75
 20
-993.359375
 10
3178.75
 20
-983.42578125
 10
3178.75
 20
-973.4921875
 10
3178.75
 20
-963.55859375
 10
3178.75
 20
-953.625
 10
3178.75
 20
-943.69140625
 10
3178.75
 20
-933.7578125
 10
3178.75
 20
-923.82421875
 10
3178.75
 20
-913.890625
 10
3178.75
 20
-903.95703125
 10
3178.75
 20
-894.0234375
 10
3178.75
 20
-884.08984375
 10
3178.75
 20
-874.15625
 10
3178.75
 20
-864.22265625
 10
3178.75
 20
-854.2890625
 10
3178.75
 20
-844.35546875
 10
3178.75
 20
-834.421875
 10
3178.75
 20
-824.48828125
 10
3178.75
 20
-814.5546875
 10
3178.75
 20
-804.62109375
 10
3178.75
 20
-794.6875
 10
3178.75
 20
-784.75390625
 10
3178.75
 20
-774.8203125
 10
3178.75
 20
-764.88671875
 10
3178.75
 20
-754.953125
 10
3178.75
 20
-745.01953125
 10
3188.68359375
 20
-735.0859375
 10
3178.75
 20
-725.15234375
 10
3188.68359375
 20
-715.21875
 10
3178.75
 20
-705.28515625
 10
3178.75
 20
-695.3515625
 10
3178.75
 20
-685.41796875
 10
3168.81640625
 20
-685.41796875
 10
3158.8828125
 20
-685.41796875
 10
3148.94921875
 20
-685.41796875
 10
3139.015625
 20
-685.41796875
 10
3129.08203125
 20
-685.41796875
 10
3119.1484375
 20
-685.41796875
 10
3109.21484375
 20
-675.484375
 10
3099.28125
 20
-675.484375
 10
3089.34765625
 20
-675.484375
 10
3079.4140625
 20
-675.484375
 10
3069.48046875
 20
-675.484375
 10
3059.546875
 20
-675.484375
 10
3049.61328125
 20
-685.41796875
 10
3039.6796875
 20
-685.41796875
 10
3029.74609375
 20
-685.41796875
 10
3019.8125
 20
-685.41796875
 10
3009.87890625
 20
-675.484375
 10
2999.9453125
 20
-685.41796875
 10
2990.01171875
 20
-675.484375
 10
2980.078125
 20
-685.41796875
 10
2970.14453125
 20
-685.41796875
 10
2960.2109375
 20
-685.41796875
 10
2950.27734375
 20
-675.484375
 10
2940.34375
 20
-685.41796875
 10
2930.41015625
 20
-675.484375
 10
2920.4765625
 20
-675.484375
 10
2910.54296875
 20
-685.41796875
 10
2900.609375
 20
-675.484375
 10
2890.67578125
 20
-685.41796875
 10
2880.7421875
 20
-685.41796875
 10
2870.80859375
 20
-675.484375
 10
2860.875
 20
-685.41796875
 10
2850.94140625
 20
-675.484375
 10
2841.0078125
 20
-685.41796875
 10
2831.07421875
 20
-685.41796875
 10
2821.140625
 20
-685.41796875
 10
2811.20703125
 20
-685.41796875
 10
2801.2734375
 20
-685.41796875
 10
2791.33984375
 20
-685.41796875
 10
2781.40625
 20
-685.41796875
 10
2771.47265625
 20
-675.484375
 10
2761.5390625
 20
-685.41796875
 10
2751.60546875
 20
-685.41796875
 10
2741.671875
 20
-685.41796875
 10
2731.73828125
 20
-685.41796875
 10
2721.8046875
 20
-685.41796875
 10
2711.87109375
 20
-675.484375
 10
2701.9375
 20
-685.41796875
 10
2692.00390625
 20
-675.484375
 10
2682.0703125
 20
-675.484375
 10
2672.13671875
 20
-675.484375
 10
2662.203125
 20
-675.484375
 10
2652.26953125
 20
-675.484375
 10
2642.3359375
 20
-675.484375
 10
2632.40234375
 20
-675.484375
 10
2622.46875
 20
-675.484375
 10
2612.53515625
 20
-675.484375
 10
2602.6015625
 20
-675.484375
 10
2592.66796875
 20
-675.484375
 10
2582.734375
 20
-675.484375
 10
2572.80078125
 20
-675.484375
 10
2562.8671875
 20
-675.484375
 10
2552.93359375
 20
-675.484375
 10
2543.0
 20
-675.484375
 10
2533.06640625
 20
-675.484375
 10
2523.1328125
 20
-675.484375
 10
2513.19921875
 20
-685.41796875
 10
2503.265625
 20
-675.484375
 10
2493.33203125
 20
-685.41796875
 10
2483.3984375
 20
-685.41796875
 10
2473.46484375
 20
-675.484375
 10
2463.53125
 20
-675.484375
 10
2453.59765625
 20
-675.484375
 10
2443.6640625
 20
-675.484375
 10
2433.73046875
 20
-675.484375
 10
2423.796875
 20
-675.484375
 10
2413.86328125
 20
-675.484375
 10
2403.9296875
 20
-675.484375
 10
2393.99609375
 20
-675.484375
 10
2384.0625
 20
-675.484375
 10
2374.12890625
 20
-675.484375
 10
2364.1953125
 20
-675.484375
 10
2354.26171875
 20
-675.484375
 10
2344.328125
 20
-675.484375
 10
2334.39453125
 20
-685.41796875
 10
2324.4609375
 20
-685.41796875
 10
2314.52734375
 20
-675.484375
 10
2304.59375
 20
-685.41796875
 10
2294.66015625
 20
-675.484375
 10
2284.7265625
 20
-675.484375
 10
2274.79296875
 20
-675.484375
 10
2264.859375
 20
-675.484375
 10
2254.92578125
 20
-675.484375
 10
2244.9921875
 20
-675.484375
 10
2235.05859375
 20
-675.484375
 10
2225.125
 20
-685.41796875
 10
2215.19140625
 20
-675.484375
 10
2205.2578125
 20
-685.41796875
 10
2195.32421875
 20
-685.41796875
 10
2185.390625
 20
-675.484375
 10
2175.45703125
 20
-685.41796875
 10
2165.5234375
 20
-685.41796875
 10
2155.58984375
 20
-675.484375
 10
2145.65625
 20
-685.41796875
 10
2135.72265625
 20
-675.484375
 10
2125.7890625
 20
-675.484375
 10
2115.85546875
 20
-675.484375
 10
2105.921875
 20
-675.484375
 10
2095.98828125
 20
-675.484375
 10
2086.0546875
 20
-675.484375
 10
2076.12109375
 20
-675.484375
 10
2066.1875
 20
-685.41796875
 10
2056.25390625
 20
-675.484375
 10
2046.3203125
 20
-685.41796875
 10
2036.38671875
 20
-675.484375
 10
2026.453125
 20
-685.41796875
 10
2016.51953125
 20
-685.41796875
 10
2006.5859375
 20
-685.41796875
 10
1996.65234375
 20
-685.41796875
 10
1986.71875
 20
-685.41796875
 10
1976.78515625
 20
-675.484375
 10
1966.8515625
 20
-685.41796875
 10
1956.91796875
 20
-685.41796875
 10
1946.984375
 20
-685.41796875
 10
1937.05078125
 20
-675.484375
 10
1927.1171875
 20
-675.484375
 10
1917.18359375
 20
-675.484375
 10
1907.25
 20
-675.484375
  0
LWPOLYLINE
  5
33
330
17
100
AcDbEntity
  8
conductor
100
AcDbPolyline
 90
4
 70
1
 43
0.5
 10
2870.80859375
 20
-3933.703125
 10
2880.7421875
 20
-3923.76953125
 10
2890.67578125
 20
-3933.703125
 10
2880.7421875
 20
-3943.63671875
  0
LWPOLYLINE
  5
34
330
17
100
AcDbEntity
  8
conductor
100
AcDbPolyline
 90
8
 70
1
 43
0.5
 10
2970.14453125
 20
-3774.765625
 10
2980.078125
 20
-3764.83203125
 10
2990.01171875
 20
-3764.83203125
 10
2999.9453125
 20
-3764.83203125
 10
3009.87890625
 20
-3774.765625
 10
2999.9453125
 20
-3784.69921875
 10
2990.01171875
 20
-3784.69921875
 10
2980.078125
 20
-3784.69921875
  0
LWPOLYLINE
  5
35
330
17
100
AcDbEntity
  8
conductor
100
AcDbPolyline
 90
4
 70
1
 43
0.5
 10
2950.27734375
 20
-3774.765625
 10
2960.2109375
 20
-3764.83203125
 10
2970.14453125
 20
-3774.765625
 10
2960.2109375
 20
-3784.69921875
  0
LWPOLYLINE
  5
36
330
17
100
AcDbEntity
  8
conductor
100
AcDbPolyline
 90
8
 70
1
 43
0.5
 10
2970.14453125
 20
-3735.03125
 10
2980.078125
 20
-3725.09765625
 10
2990.01171875
 20
-3725.09765625
 10
2999.9453125
 20
-3725.09765625
 10
3009.87890625
 20
-3735.03125
 10
2999.9453125
 20
-3744.96484375
 10
2990.01171875
 20
-3744.96484375
 10
2980.078125
 20
-3744.96484375
  0
LWPOLYLINE
  5
37
330
17
100
AcDbEntity
  8
conductor
100
AcDbPolyline
 90
4
 70
1
 43
0.5
 10
2950.27734375
 20
-3735.03125
 10
2960.2109375
 20
-3725.09765625
 10
2970.14453125
 20
-3735.03125
 10
2960.2109375
 20
-3744.96484375
  0
LWPOLYLINE
  5
38
330
17
100
AcDbEntity
  8
conductor
100
AcDbPolyline
 90
4
 70
1
 43
0.5
 10
2990.01171875
 20
-3695.296875
 10
2999.9453125
 20
-3685.36328125
 10
3009.87890625
 20
-3695.296875
 10
2999.9453125
 20
-3705.23046875
  0
LWPOLYLINE
  5
39
330
17
100
AcDbEntity
  8
conductor
100
AcDbPolyline
 90
4
 70
1
 43
0.5
 10
2314.52734375
 20
-3576.09375
 10
2324.4609375
 20
-3566.16015625
 10
2334.39453125
 20
-3576.09375
 10
2324.4609375
 20
-3586.02734375
  0
LWPOLYLINE
  5
3A
330
17
100
AcDbEntity
  8
conductor
100
AcDbPolyline
 90
4
 70
1
 43
0.5
 10
2274.79296875
 20
-3536.359375
 10
2284.7265625
 20
-3526.42578125
 10
2294.66015625
 20
-3536.359375
 10
2284.7265625
 20
-3546.29296875
  0
LWPOLYLINE
  5
3B
330
17
100
AcDbEntity
  8
conductor
100
AcDbPolyline
 90
4
 70
1
 43
0.5
 10
2155.58984375
 20
-3496.625
 10
2165.5234375
 20
-3486.69140625
 10
2175.45703125
 20
-3496.625
 10
2165.5234375
 20
-3506.55859375
  0
LWPOLYLINE
  5
3C
330
17
100
AcDbEntity
  8
conductor
100
AcDbPolyline
 90
4
 70
1
 43
0.5
 10
2036.38671875
 20
-3297.953125
 10
2046.3203125
 20
-3288.01953125
 10
2056.25390625
 20
-3297.953125
 10
2046.3203125
 20
-3307.88671875
  0
LWPOLYLINE
  5
3D
330
17
100
AcDbEntity
  8
conductor
100
AcDbPolyline
 90
9
 70
1
 43
0.5
 10
1956.91796875
 20
-3297.953125
 10
1966.8515625
 20
-3288.01953125
 10
1976.78515625
 20
-3288.01953125
 10
1986.71875
 20
-3288.01953125
 10
1996.65234375
 20
-3297.953125
 10
1996.65234375
 20
-3307.88671875
 10
1986.71875
 20
-3317.8203125
 10
1976.78515625
 20
-3307.88671875
 10
1966.8515625
 20
-3307.88671875
  0
LWPOLYLINE
  5
3E
330
17
100
AcDbEntity
  8
conductor
100
AcDbPolyline
 90
11
 70
1
 43
0.5
 10
1996.65234375
 20
-3288.01953125
 10
2006.5859375
 20
-3278.0859375
 10
2016.51953125
 20
-3288.01953125
 10
2026.453125
 20
-3288.01953125
 10
2036.38671875
 20
-3297.953125
 10
2026.453125
 20
-3307.88671875
 10
2016.51953125
 20
-3317.8203125
 10
2006.5859375
 20
-3327.75390625
 10
1996.65234375
 20
-3317.8203125
 10
1996.65234375
 20
-3307.88671875
 10
1996.65234375
 20
-3297.953125
  0
LWPOLYLINE
  5
3F
330
17
100
AcDbEntity
  8
conductor
100
AcDbPolyline
 90
4
 70
1
 43
0.5
 10
2791.33984375
 20
-3139.015625
 10
2801.2734375
 20
-3129.08203125
 10
2811.20703125
 20
-3139.015625
 10
2801.2734375
 20
-3148.94921875
  0
LWPOLYLINE
  5
40
330
17
100
AcDbEntity
  8
conductor
100
AcDbPolyline
 90
4
 70
1
 43
0.5
 10
2314.52734375
 20
-3099.28125
 10
2324.4609375
 20
-3089.34765625
 10
2334.39453125
 20
-3099.28125
 10
2324.4609375
 20
-3109.21484375
  0
LWPOLYLINE
  5
41
330
17
100
AcDbEntity
  8
conductor
100
AcDbPolyline
 90
4
 70
1
 43
0.5
 10
2294.66015625
 20
-3099.28125
 10
2304.59375
 20
-3089.34765625
 10
2314.52734375
 20
-3099.28125
 10
2304.59375
 20
-3109.21484375
  0
LWPOLYLINE
  5
42
330
17
100
AcDbEntity
  8
conductor
100
AcDbPolyline
 90
4
 70
1
 43
0.5
 10
4182.04296875
 20
-3059.546875
 10
4191.9765625
 20
-3049.61328125
 10
4201.91015625
 20
-3059.546875
 10
4191.9765625
 20
-3069.48046875
  0
LWPOLYLINE
  5
43
330
17
100
AcDbEntity
  8
conductor
100
AcDbPolyline
 90
4
 70
1
 43
0.5
 10
4102.57421875
 20
-3059.546875
 10
4112.5078125
 20
-3049.61328125
 10
4122.44140625
 20
-3059.546875
 10
4112.5078125
 20
-3069.48046875
  0
LWPOLYLINE
  5
44
330
17
100
AcDbEntity
  8
conductor
100
AcDbPolyline
 90
4
 70
1
 43
0.5
 10
3387.35546875
 20
-3059.546875
 10
3397.2890625
 20
-3049.61328125
 10
3407.22265625
 20
-3059.546875
 10
3397.2890625
 20
-3069.48046875
  0
LWPOLYLINE
  5
45
330
17
100
AcDbEntity
  8
conductor
100
AcDbPolyline
 90
4
 70
1
 43
0.5
 10
2274.79296875
 20
-3059.546875
 10
2284.7265625
 20
-3049.61328125
 10
2294.66015625
 20
-3059.546875
 10
2284.7265625
 20
-3069.48046875
  0
LWPOLYLINE
  5
46
330
17
100
AcDbEntity
  8
conductor
100
AcDbPolyline
 90
4
 70
1
 43
0.5
 10
3069.48046875
 20
-2622.46875
 10
3079.4140625
 20
-2612.53515625
 10
3089.34765625
 20
-2622.46875
 10
3079.4140625
 20
-2632.40234375
  0
LWPOLYLINE
  5
47
330
17
100
AcDbEntity
  8
conductor
100
AcDbPolyline
 90
4
 70
1
 43
0.5
 10
2950.27734375
 20
-2582.734375
 10
2960.2109375
 20
-2572.80078125
 10
2970.14453125
 20
-2582.734375
 10
2960.2109375
 20
-2592.66796875
  0
LWPOLYLINE
  5
48
330
17
100
AcDbEntity
  8
conductor
100
AcDbPolyline
 90
4
 70
1
 43
0.5
 10
4142.30859375
 20
-2543.0
 10
4152.2421875
 20
-2533.06640625
 10
4162.17578125
 20
-2543.0
 10
4152.2421875
 20
-2552.93359375
  0
LWPOLYLINE
  5
49
330
17
100
AcDbEntity
  8
conductor
100
AcDbPolyline
 90
4
 70
1
 43
0.5
 10
4102.57421875
 20
-2543.0
 10
4112.5078125
 20
-2533.06640625
 10
4122.44140625
 20
-2543.0
 10
4112.5078125
 20
-2552.93359375
  0
LWPOLYLINE
  5
4A
330
17
100
AcDbEntity
  8
conductor
100
AcDbPolyline
 90
4
 70
1
 43
0.5
 10
3506.55859375
 20
-2543.0
 10
3516.4921875
 20
-2533.06640625
 10
3526.42578125
 20
-2543.0
 10
3516.4921875
 20
-2552.93359375
  0
LWPOLYLINE
  5
4B
330
17
100
AcDbEntity
  8
conductor
100
AcDbPolyline
 90
4
 70
1
 43
0.5
 10
4023.10546875
 20
-2463.53125
 10
4033.0390625
 20
-2453.59765625
 10
4042.97265625
 20
-2463.53125
 10
4033.0390625
 20
-2473.46484375
  0
LWPOLYLINE
  5
4C
330
17
100
AcDbEntity
  8
conductor
100
AcDbPolyline
 90
4
 70
1
 43
0.5
 10
3963.50390625
 20
-2463.53125
 10
3973.4375
 20
-2453.59765625
 10
3983.37109375
 20
-2463.53125
 10
3973.4375
 20
-2473.46484375
  0
LWPOLYLINE
  5
4D
330
17
100
AcDbEntity
  8
conductor
100
AcDbPolyline
 90
4
 70
1
 43
0.5
 10
3089.34765625
 20
-2463.53125
 10
3099.28125
 20
-2453.59765625
 10
3109.21484375
 20
-2463.53125
 10
3099.28125
 20
-2473.46484375
  0
LWPOLYLINE
  5
4E
330
17
100
AcDbEntity
  8
conductor
100
AcDbPolyline
 90
4
 70
1
 43
0.5
 10
3069.48046875
 20
-2463.53125
 10
3079.4140625
 20
-2453.59765625
 10
3089.34765625
 20
-2463.53125
 10
3079.4140625
 20
-2473.46484375
  0
LWPOLYLINE
  5
4F
330
17
100
AcDbEntity
  8
conductor
100
AcDbPolyline
 90
4
 70
1
 43
0.5
 10
3953.5703125
 20
-2453.59765625
 10
3963.50390625
 20
-2443.6640625
 10
3973.4375
 20
-2453.59765625
 10
3963.50390625
 20
-2463.53125
  0
LWPOLYLINE
  5
50
330
17
100
AcDbEntity
  8
conductor
100
AcDbPolyline
 90
4
 70
1
 43
0.5
 10
3705.23046875
 20
-2423.796875
 10
3715.1640625
 20
-2413.86328125
 10
3725.09765625
 20
-2423.796875
 10
3715.1640625
 20
-2433.73046875
  0
LWPOLYLINE
  5
51
330
17
100
AcDbEntity
  8
conductor
100
AcDbPolyline
 90
4
 70
1
 43
0.5
 10
3387.35546875
 20
-2423.796875
 10
3397.2890625
 20
-2413.86328125
 10
3407.22265625
 20
-2423.796875
 10
3397.2890625
 20
-2433.73046875
  0
LWPOLYLINE
  5
52
330
17
100
AcDbEntity
  8
conductor
100
AcDbPolyline
 90
4
 70
1
 43
0.5
 10
3069.48046875
 20
-2423.796875
 10
3079.4140625
 20
-2413.86328125
 10
3089.34765625
 20
-2423.796875
 10
3079.4140625
 20
-2433.73046875
  0
LWPOLYLINE
  5
53
330
17
100
AcDbEntity
  8
conductor
100
AcDbPolyline
 90
25
 70
1
 43
0.5
 10
3983.37109375
 20
-2413.86328125
 10
3993.3046875
 20
-2403.9296875
 10
4003.23828125
 20
-2413.86328125
 10
4013.171875
 20
-2413.86328125
 10
4023.10546875
 20
-2413.86328125
 10
4033.0390625
 20
-2413.86328125
 10
4042.97265625
 20
-2423.796875
 10
4033.0390625
 20
-2433.73046875
 10
4023.10546875
 20
-2433.73046875
 10
4013.171875
 20
-2443.6640625
 10
4003.23828125
 20
-2443.6640625
 10
4013.171875
 20
-2453.59765625
 10
4013.171875
 20
-2463.53125
 10
4003.23828125
 20
-2473.46484375
 10
3993.3046875
 20
-2473.46484375
 10
3983.37109375
 20
-2463.53125
 10
3983.37109375
 20
-2453.59765625
 10
3983.37109375
 20
-2443.6640625
 10
3973.4375
 20
-2443.6640625
 10
3963.50390625
 20
-2433.73046875
 10
3953.5703125
 20
-2433.73046875
 10
3943.63671875
 20
-2423.796875
 10
3953.5703125
 20
-2413.86328125
 10
3963.50390625
 20
-2413.86328125
 10
3973.4375
 20
-2413.86328125
  0
LWPOLYLINE
  5
54
330
17
100
AcDbEntity
  8
conductor
100
AcDbPolyline
 90
4
 70
1
 43
0.5
 10
2950.27734375
 20
-2304.59375
 10
2960.2109375
 20
-2294.66015625
 10
2970.14453125
 20
-2304.59375
 10
2960.2109375
 20
-2314.52734375
  0
LWPOLYLINE
  5
55
330
17
100
AcDbEntity
  8
conductor
100
AcDbPolyline
 90
4
 70
1
 43
0.5
 10
2930.41015625
 20
-2304.59375
 10
2940.34375
 20
-2294.66015625
 10
2950.27734375
 20
-2304.59375
 10
2940.34375
 20
-2314.52734375
  0
LWPOLYLINE
  5
56
330
17
100
AcDbEntity
  8
conductor
100
AcDbPolyline
 90
4
 70
1
 43
0.5
 10
3983.37109375
 20
-2145.65625
 10
3993.3046875
 20
-2135.72265625
 10
4003.23828125
 20
-2145.65625
 10
3993.3046875
 20
-2155.58984375
  0
LWPOLYLINE
  5
57
330
17
100
AcDbEntity
  8
conductor
100
AcDbPolyline
 90
8
 70
1
 43
0.5
 10
3307.88671875
 20
-2145.65625
 10
3317.8203125
 20
-2135.72265625
 10
3327.75390625
 20
-2135.72265625
 10
3337.6875
 20
-2135.72265625
 10
3347.62109375
 20
-2145.65625
 10
3337.6875
 20
-2155.58984375
 10
3327.75390625
 20
-2155.58984375
 10
3317.8203125
 20
-2155.58984375
  0
LWPOLYLINE
  5
58
330
17
100
AcDbEntity
  8
conductor
100
AcDbPolyline
 90
8
 70
1
 43
0.5
 10
3953.5703125
 20
-2135.72265625
 10
3963.50390625
 20
-2125.7890625
 10
3973.4375
 20
-2135.72265625
 10
3983.37109375
 20
-2145.65625
 10
3973.4375
 20
-2155.58984375
 10
3963.50390625
 20
-2155.58984375
 10
3953.5703125
 20
-2155.58984375
 10
3943.63671875
 20
-2145.65625
  0
LWPOLYLINE
  5
59
330
17
100
AcDbEntity
  8
conductor
100
AcDbPolyline
 90
6
 70
1
 43
0.5
 10
3943.63671875
 20
-2105.921875
 10
3953.5703125
 20
-2095.98828125
 10
3963.50390625
 20
-2095.98828125
 10
3973.4375
 20
-2105.921875
 10
3963.50390625
 20
-2115.85546875
 10
3953.5703125
 20
-2115.85546875
  0
LWPOLYLINE
  5
5A
330
17
100
AcDbEntity
  8
conductor
100
AcDbPolyline
 90
4
 70
1
 43
0.5
 10
3069.48046875
 20
-1986.71875
 10
3079.4140625
 20
-1976.78515625
 10
3089.34765625
 20
-1986.71875
 10
3079.4140625
 20
-1996.65234375
  0
LWPOLYLINE
  5
5B
330
17
100
AcDbEntity
  8
conductor
100
AcDbPolyline
 90
4
 70
1
 43
0.5
 10
3049.61328125
 20
-1986.71875
 10
3059.546875
 20
-1976.78515625
 10
3069.48046875
 20
-1986.71875
 10
3059.546875
 20
-1996.65234375
  0
LWPOLYLINE
  5
5C
330
17
100
AcDbEntity
  8
conductor
100
AcDbPolyline
 90
4
 70
1
 43
0.5
 10
3029.74609375
 20
-1986.71875
 10
3039.6796875
 20
-1976.78515625
 10
3049.61328125
 20
-1986.71875
 10
3039.6796875
 20
-1996.65234375
  0
LWPOLYLINE
  5
5D
330
17
100
AcDbEntity
  8
conductor
100
AcDbPolyline
 90
4
 70
1
 43
0.5
 10
3049.61328125
 20
-1946.984375
 10
3059.546875
 20
-1937.05078125
 10
3069.48046875
 20
-1946.984375
 10
3059.546875
 20
-1956.91796875
  0
LWPOLYLINE
  5
5E
330
17
100
AcDbEntity
  8
conductor
100
AcDbPolyline
 90
4
 70
1
 43
0.5
 10
2870.80859375
 20
-1827.78125
 10
2880.7421875
 20
-1817.84765625
 10
2890.67578125
 20
-1827.78125
 10
2880.7421875
 20
-1837.71484375
  0
LWPOLYLINE
  5
5F
330
17
100
AcDbEntity
  8
conductor
100
AcDbPolyline
 90
4
 70
1
 43
0.5
 10
2632.40234375
 20
-1827.78125
 10
2642.3359375
 20
-1817.84765625
 10
2652.26953125
 20
-1827.78125
 10
2642.3359375
 20
-1837.71484375
  0
LWPOLYLINE
  5
60
330
17
100
AcDbEntity
  8
conductor
100
AcDbPolyline
 90
4
 70
1
 43
0.5
 10
2910.54296875
 20
-1788.046875
 10
2920.4765625
 20
-1778.11328125
 10
2930.41015625
 20
-1788.046875
 10
2920.4765625
 20
-1797.98046875
  0
LWPOLYLINE
  5
61
330
17
100
AcDbEntity
  8
conductor
100
AcDbPolyline
 90
4
 70
1
 43
0.5
 10
2990.01171875
 20
-1708.578125
 10
2999.9453125
 20
-1698.64453125
 10
3009.87890625
 20
-1708.578125
 10
2999.9453125
 20
-1718.51171875
  0
LWPOLYLINE
  5
62
330
17
100
AcDbEntity
  8
conductor
100
AcDbPolyline
 90
4
 70
1
 43
0.5
 10
3029.74609375
 20
-1470.171875
 10
3039.6796875
 20
-1460.23828125
 10
3049.61328125
 20
-1470.171875
 10
3039.6796875
 20
-1480.10546875
  0
LWPOLYLINE
  5
63
330
17
100
AcDbEntity
  8
conductor
100
AcDbPolyline
 90
4
 70
1
 43
0.5
 10
2990.01171875
 20
-1470.171875
 10
2999.9453125
 20
-1460.23828125
 10
3009.87890625
 20
-1470.171875
 10
2999.9453125
 20
-1480.10546875
  0
LWPOLYLINE
  5
64
330
17
100
AcDbEntity
  8
conductor
100
AcDbPolyline
 90
4
 70
1
 43
0.5
 10
2831.07421875
 20
-1470.171875
 10
2841.0078125
 20
-1460.23828125
 10
2850.94140625
 20
-1470.171875
 10
2841.0078125
 20
-1480.10546875
  0
LWPOLYLINE
  5
65
330
17
100
AcDbEntity
  8
conductor
100
AcDbPolyline
 90
4
 70
1
 43
0.5
 10
2433.73046875
 20
-1112.5625
 10
2443.6640625
 20
-1102.62890625
 10
2453.59765625
 20
-1112.5625
 10
2443.6640625
 20
-1122.49609375
  0
LWPOLYLINE
  5
66
330
17
100
AcDbEntity
  8
conductor
100
AcDbPolyline
 90
4
 70
1
 43
0.5
 10
2354.26171875
 20
-1072.828125
 10
2364.1953125
 20
-1062.89453125
 10
2374.12890625
 20
-1072.828125
 10
2364.1953125
 20
-1082.76171875
  0
LWPOLYLINE
  5
67
330
17
100
AcDbEntity
  8
conductor
100
AcDbPolyline
 90
4
 70
1
 43
0.5
 10
2314.52734375
 20
-1072.828125
 10
2324.4609375
 20
-1062.89453125
 10
2334.39453125
 20
-1072.828125
 10
2324.4609375
 20
-1082.76171875
  0
LWPOLYLINE
  5
68
330
17
100
AcDbEntity
  8
conductor
100
AcDbPolyline
 90
4
 70
1
 43
0.5
 10
2274.79296875
 20
-1072.828125
 10
2284.7265625
 20
-1062.89453125
 10
2294.66015625
 20
-1072.828125
 10
2284.7265625
 20
-1082.76171875
  0
LWPOLYLINE
  5
69
330
17
100
AcDbEntity
  8
conductor
100
AcDbPolyline
 90
6
 70
1
 43
0.5
 10
2870.80859375
 20
-1062.89453125
 10
2880.7421875
 20
-1052.9609375
 10
2890.67578125
 20
-1062.89453125
 10
2890.67578125
 20
-1072.828125
 10
2880.7421875
 20
-1082.76171875
 10
2870.80859375
 20
-1072.828125
  0
LWPOLYLINE
  5
6A
330
17
100
AcDbEntity
  8
conductor
100
AcDbPolyline
 90
4
 70
1
 43
0.5
 10
2711.87109375
 20
-874.15625
 10
2721.8046875
 20
-864.22265625
 10
2731.73828125
 20
-874.15625
 10
2721.8046875
 20
-884.08984375
  0
LWPOLYLINE
  5
6B
330
17
100
AcDbEntity
  8
conductor
100
AcDbPolyline
 90
8
 70
1
 43
0.5
 10
2672.13671875
 20
-874.15625
 10
2682.0703125
 20
-864.22265625
 10
2692.00390625
 20
-864.22265625
 10
2701.9375
 20
-864.22265625
 10
2711.87109375
 20
-874.15625
 10
2701.9375
 20
-884.08984375
 10
2692.00390625
 20
-884.08984375
 10
2682.0703125
 20
-884.08984375
  0
LWPOLYLINE
  5
6C
330
17
100
AcDbEntity
  8
substrate
100
AcDbPolyline
 90
2044
 70
1
 43
0.5
 10
0.0
 20
-0.0
 10
0.0
 20
-9.93359375
 10
0.0
 20
-19.8671875
 10
0.0
 20
-29.80078125
 10
0.0
 20
-39.734375
 10
0.0
 20
-49.66796875
 10
0.0
 20
-59.6015625
 10
0.0
 20
-69.53515625
 10
0.0
 20
-79.46875
 10
0.0
 20
-89.40234375
 10
0.0
 20
-99.3359375
 10
0.0
 20
-109.26953125
 10
0.0
 20
-119.203125
 10
0.0
 20
-129.13671875
 10
0.0
 20
-139.0703125
 10
0.0
 20
-149.00390625
 10
0.0
 20
-158.9375
 10
0.0
 20
-168.87109375
 10
0.0
 20
-178.8046875
 10
0.0
 20
-188.73828125
 10
0.0
 20
-198.671875
 10
0.0
 20
-208.60546875
 10
0.0
 20
-218.5390625
 10
0.0
 20
-228.47265625
 10
0.0
 20
-238.40625
 10
0.0
 20
-248.33984375
 10
0.0
 20
-258.2734375
 10
0.0
 20
-268.20703125
 10
0.0
 20
-278.140625
 10
0.0
 20
-288.07421875
 10
0.0
 20
-298.0078125
 10
0.0
 20
-307.94140625
 10
0.0
 20
-317.875
 10
0.0
 20
-327.80859375
 10
0.0
 20
-337.7421875
 10
0.0
 20
-347.67578125
 10
0.0
 20
-357.609375
 10
0.0
 20
-367.54296875
 10
0.0
 20
-377.4765625
 10
0.0
 20
-387.41015625
 10
0.0
 20
-397.34375
 10
0.0
 20
-407.27734375
 10
0.0
 20
-417.2109375
 10
0.0
 20
-427.14453125
 10
0.0
 20
-437.078125
 10
0.0
 20
-447.01171875
 10
0.0
 20
-456.9453125
 10
0.0
 20
-466.87890625
 10
0.0
 20
-476.8125
 10
0.0
 20
-486.74609375
 10
0.0
 20
-496.6796875
 10
0.0
 20
-506.61328125
 10
0.0
 20
-516.546875
 10
0.0
 20
-526.48046875
 10
0.0
 20
-536.4140625
 10
0.0
 20
-546.34765625
 10
0.0
 20
-556.28125
 10
0.0
 20
-566.21484375
 10
0.0
 20
-576.1484375
 10
0.0
 20
-586.08203125
 10
0.0
 20
-596.015625
 10
0.0
 20
-605.94921875
 10
0.0
 20
-615.8828125
 10
0.0
 20
-625.81640625
 10
0.0
 20
-635.75
 10
0.0
 20
-645.68359375
 10
0.0
 20
-655.6171875
 10
0.0
 20
-665.55078125
 10
0.0
 20
-675.484375
 10
0.0
 20
-685.41796875
 10
0.0
 20
-695.3515625
 10
0.0
 20
-705.28515625
 10
0.0
 20
-715.21875
 10
0.0
 20
-725.15234375
 10
0.0
 20
-735.0859375
 10
0.0
 20
-745.01953125
 10
0.0
 20
-754.953125
 10
0.0
 20
-764.88671875
 10
0.0
 20
-774.8203125
 10
0.0
 20
-784.75390625
 10
0.0
 20
-794.6875
 10
0.0
 20
-804.62109375
 10
0.0
 20
-814.5546875
 10
0.0
 20
-824.48828125
 10
0.0
 20
-834.421875
 10
0.0
 20
-844.35546875
 10
0.0
 20
-854.2890625
 10
0.0
 20
-864.22265625
 10
0.0
 20
-874.15625
 10
0.0
 20
-884.08984375
 10
0.0
 20
-894.0234375
 10
0.0
 20
-903.95703125
 10
0.0
 20
-913.890625
 10
0.0
 20
-923.82421875
 10
0.0
 20
-933.7578125
 10
0.0
 20
-943.69140625
 10
0.0
 20
-953.625
 10
0.0
 20
-963.55859375
 10
0.0
 20
-973.4921875
 10
0.0
 20
-983.42578125
 10
0.0
 20
-993.359375
 10
0.0
 20
-1003.29296875
 10
0.0
 20
-1013.2265625
 10
0.0
 20
-1023.16015625
 10
0.0
 20
-1033.09375
 10
0.0
 20
-1043.02734375
 10
0.0
 20
-1052.9609375
 10
0.0
 20
-1062.89453125
 10
0.0
 20
-1072.828125
 10
0.0
 20
-1082.76171875
 10
0.0
 20
-1092.6953125
 10
0.0
 20
-1102.62890625
 10
0.0
 20
-1112.5625
 10
0.0
 20
-1122.49609375
 10
0.0
 20
-1132.4296875
 10
0.0
 20
-1142.36328125
 10
0.0
 20
-1152.296875
 10
0.0
 20
-1162.23046875
 10
0.0
 20
-1172.1640625
 10
0.0
 20
-1182.09765625
 10
0.0
 20
-1192.03125
 10
0.0
 20
-1201.96484375
 10
0.0
 20
-1211.8984375
 10
0.0
 20
-1221.83203125
 10
0.0
 20
-1231.765625
 10
0.0
 20
-1241.69921875
 10
0.0
 20
-1251.6328125
 10
0.0
 20
-1261.56640625
 10
0.0
 20
-1271.5
 10
0.0
 20
-1281.43359375
 10
0.0
 20
-1291.3671875
 10
0.0
 20
-1301.30078125
 10
0.0
 20
-1311.234375
 10
0.0
 20
-1321.16796875
 10
0.0
 20
-1331.1015625
 10
0.0
 20
-1341.03515625
 10
0.0
 20
-1350.96875
 10
0.0
 20
-1360.90234375
 10
0.0
 20
-1370.8359375
 10
0.0
 20
-1380.76953125
 10
0.0
 20
-1390.703125
 10
0.0
 20
-1400.63671875
 10
0.0
 20
-1410.5703125
 10
0.0
 20
-1420.50390625
 10
0.0
 20
-1430.4375
 10
0.0
 20
-1440.37109375
 10
0.0
 20
-1450.3046875
 10
0.0
 20
-1460.23828125
 10
0.0
 20
-1470.171875
 10
0.0
 20
-1480.10546875
 10
0.0
 20
-1490.0390625
 10
0.0
 20
-1499.97265625
 10
0.0
 20
-1509.90625
 10
0.0
 20
-1519.83984375
 10
0.0
 20
-1529.7734375
 10
0.0
 20
-1539.70703125
 10
0.0
 20
-1549.640625
 10
0.0
 20
-1559.57421875
 10
0.0
 20
-1569.5078125
 10
0.0
 20
-1579.44140625
 10
0.0
 20
-1589.375
 10
0.0
 20
-1599.30859375
 10
0.0
 20
-1609.2421875
 10
0.0
 20
-1619.17578125
 10
0.0
 20
-1629.109375
 10
0.0
 20
-1639.04296875
 10
0.0
 20
-1648.9765625
 10
0.0
 20
-1658.91015625
 10
0.0
 20
-1668.84375
 10
0.0
 20
-1678.77734375
 10
0.0
 20
-1688.7109375
 10
0.0
 20
-1698.64453125
 10
0.0
 20
-1708.578125
 10
0.0
 20
-1718.51171875
 10
0.0
 20
-1728.4453125
 10
0.0
 20
-1738.37890625
 10
0.0
 20
-1748.3125
 10
0.0
 20
-1758.24609375
 10
0.0
 20
-1768.1796875
 10
0.0
 20
-1778.11328125
 10
0.0
 20
-1788.046875
 10
0.0
 20
-1797.98046875
 10
0.0
 20
-1807.9140625
 10
0.0
 20
-1817.84765625
 10
0.0
 20
-1827.78125
 10
0.0
 20
-1837.71484375
 10
0.0
 20
-1847.6484375
 10
0.0
 20
-1857.58203125
 10
0.0
 20
-1867.515625
 10
0.0
 20
-1877.44921875
 10
0.0
 20
-1887.3828125
 10
0.0
 20
-1897.31640625
 10
0.0
 20
-1907.25
 10
0.0
 20
-1917.18359375
 10
0.0
 20
-1927.1171875
 10
0.0
 20
-1937.05078125
 10
0.0
 20
-1946.984375
 10
0.0
 20
-1956.91796875
 10
0.0
 20
-1966.8515625
 10
0.0
 20
-1976.78515625
 10
0.0
 20
-1986.71875
 10
0.0
 20
-1996.65234375
 10
0.0
 20
-2006.5859375
 10
0.0
 20
-2016.51953125
 10
0.0
 20
-2026.453125
 10
0.0
 20
-2036.38671875
 10
0.0
 20
-2046.3203125
 10
0.0
 20
-2056.25390625
 10
0.0
 20
-2066.1875
 10
0.0
 20
-2076.12109375
 10
0.0
 20
-2086.0546875
 10
0.0
 20
-2095.98828125
 10
0.0
 20
-2105.921875
 10
0.0
 20
-2115.85546875
 10
0.0
 20
-2125.7890625
 10
0.0
 20
-2135.72265625
 10
0.0
 20
-2145.65625
 10
0.0
 20
-2155.58984375
 10
0.0
 20
-2165.5234375
 10
0.0
 20
-2175.45703125
 10
0.0
 20
-2185.390625
 10
0.0
 20
-2195.32421875
 10
0.0
 20
-2205.2578125
 10
0.0
 20
-2215.19140625
 10
0.0
 20
-2225.125
 10
0.0
 20
-2235.05859375
 10
0.0
 20
-2244.9921875
 10
0.0
 20
-2254.92578125
 10
0.0
 20
-2264.859375
 10
0.0
 20
-2274.79296875
 10
0.0
 20
-2284.7265625
 10
0.0
 20
-2294.66015625
 10
0.0
 20
-2304.59375
 10
0.0
 20
-2314.52734375
 10
0.0
 20
-2324.4609375
 10
0.0
 20
-2334.39453125
 10
0.0
 20
-2344.328125
 10
0.0
 20
-2354.26171875
 10
0.0
 20
-2364.1953125
 10
0.0
 20
-2374.12890625
 10
0.0
 20
-2384.0625
 10
0.0
 20
-2393.99609375
 10
0.0
 20
-2403.9296875
 10
0.0
 20
-2413.86328125
 10
0.0
 20
-2423.796875
 10
0.0
 20
-2433.73046875
 10
0.0
 20
-2443.6640625
 10
0.0
 20
-2453.59765625
 10
0.0
 20
-2463.53125
 10
0.0
 20
-2473.46484375
 10
0.0
 20
-2483.3984375
 10
0.0
 20
-2493.33203125
 10
0.0
 20
-2503.265625
 10
0.0
 20
-2513.19921875
 10
0.0
 20
-2523.1328125
 10
0.0
 20
-2533.06640625
 10
0.0
 20
-2543.0
 10
0.0
 20
-2552.93359375
 10
0.0
 20
-2562.8671875
 10
0.0
 20
-2572.80078125
 10
0.0
 20
-2582.734375
 10
0.0
 20
-2592.66796875
 10
0.0
 20
-2602.6015625
 10
0.0
 20
-2612.53515625
 10
0.0
 20
-2622.46875
 10
0.0
 20
-2632.40234375
 10
0.0
 20
-2642.3359375
 10
0.0
 20
-2652.26953125
 10
0.0
 20
-2662.203125
 10
0.0
 20
-2672.13671875
 10
0.0
 20
-2682.0703125
 10
0.0
 20
-2692.00390625
 10
0.0
 20
-2701.9375
 10
0.0
 20
-2711.87109375
 10
0.0
 20
-2721.8046875
 10
0.0
 20
-2731.73828125
 10
0.0
 20
-2741.671875
 10
0.0
 20
-2751.60546875
 10
0.0
 20
-2761.5390625
 10
0.0
 20
-2771.47265625
 10
0.0
 20
-2781.40625
 10
0.0
 20
-2791.33984375
 10
0.0
 20
-2801.2734375
 10
0.0
 20
-2811.20703125
 10
0.0
 20
-2821.140625
 10
0.0
 20
-2831.07421875
 10
0.0
 20
-2841.0078125
 10
0.0
 20
-2850.94140625
 10
0.0
 20
-2860.875
 10
0.0
 20
-2870.80859375
 10
0.0
 20
-2880.7421875
 10
0.0
 20
-2890.67578125
 10
0.0
 20
-2900.609375
 10
0.0
 20
-2910.54296875
 10
0.0
 20
-2920.4765625
 10
0.0
 20
-2930.41015625
 10
0.0
 20
-2940.34375
 10
0.0
 20
-2950.27734375
 10
0.0
 20
-2960.2109375
 10
0.0
 20
-2970.14453125
 10
0.0
 20
-2980.078125
 10
0.0
 20
-2990.01171875
 10
0.0
 20
-2999.9453125
 10
0.0
 20
-3009.87890625
 10
0.0
 20
-3019.8125
 10
0.0
 20
-3029.74609375
 10
0.0
 20
-3039.6796875
 10
0.0
 20
-3049.61328125
 10
0.0
 20
-3059.546875
 10
0.0
 20
-3069.48046875
 10
0.0
 20
-3079.4140625
 10
0.0
 20
-3089.34765625
 10
0.0
 20
-3099.28125
 10
0.0
 20
-3109.21484375
 10
0.0
 20
-3119.1484375
 10
0.0
 20
-3129.08203125
 10
0.0
 20
-3139.015625
 10
0.0
 20
-3148.94921875
 10
0.0
 20
-3158.8828125
 10
0.0
 20
-3168.81640625
 10
0.0
 20
-3178.75
 10
0.0
 20
-3188.68359375
 10
0.0
 20
-3198.6171875
 10
0.0
 20
-3208.55078125
 10
0.0
 20
-3218.484375
 10
0.0
 20
-3228.41796875
 10
0.0
 20
-3238.3515625
 10
0.0
 20
-3248.28515625
 10
0.0
 20
-3258.21875
 10
0.0
 20
-3268.15234375
 10
0.0
 20
-3278.0859375
 10
0.0
 20
-3288.01953125
 10
0.0
 20
-3297.953125
 10
0.0
 20
-3307.88671875
 10
0.0
 20
-3317.8203125
 10
0.0
 20
-3327.75390625
 10
0.0
 20
-3337.6875
 10
0.0
 20
-3347.62109375
 10
0.0
 20
-3357.5546875
 10
0.0
 20
-3367.48828125
 10
0.0
 20
-3377.421875
 10
0.0
 20
-3387.35546875
 10
0.0
 20
-3397.2890625
 10
0.0
 20
-3407.22265625
 10
0.0
 20
-3417.15625
 10
0.0
 20
-3427.08984375
 10
0.0
 20
-3437.0234375
 10
0.0
 20
-3446.95703125
 10
0.0
 20
-3456.890625
 10
0.0
 20
-3466.82421875
 10
0.0
 20
-3476.7578125
 10
0.0
 20
-3486.69140625
 10
0.0
 20
-3496.625
 10
0.0
 20
-3506.55859375
 10
0.0
 20
-3516.4921875
 10
0.0
 20
-3526.42578125
 10
0.0
 20
-3536.359375
 10
0.0
 20
-3546.29296875
 10
0.0
 20
-3556.2265625
 10
0.0
 20
-3566.16015625
 10
0.0
 20
-3576.09375
 10
0.0
 20
-3586.02734375
 10
0.0
 20
-3595.9609375
 10
0.0
 20
-3605.89453125
 10
0.0
 20
-3615.828125
 10
0.0
 20
-3625.76171875
 10
0.0
 20
-3635.6953125
 10
0.0
 20
-3645.62890625
 10
0.0
 20
-3655.5625
 10
0.0
 20
-3665.49609375
 10
0.0
 20
-3675.4296875
 10
0.0
 20
-3685.36328125
 10
0.0
 20
-3695.296875
 10
0.0
 20
-3705.23046875
 10
0.0
 20
-3715.1640625
 10
0.0
 20
-3725.09765625
 10
0.0
 20
-3735.03125
 10
0.0
 20
-3744.96484375
 10
0.0
 20
-3754.8984375
 10
0.0
 20
-3764.83203125
 10
0.0
 20
-3774.765625
 10
0.0
 20
-3784.69921875
 10
0.0
 20
-3794.6328125
 10
0.0
 20
-3804.56640625
 10
0.0
 20
-3814.5
 10
0.0
 20
-3824.43359375
 10
0.0
 20
-3834.3671875
 10
0.0
 20
-3844.30078125
 10
0.0
 20
-3854.234375
 10
0.0
 20
-3864.16796875
 10
0.0
 20
-3874.1015625
 10
0.0
 20
-3884.03515625
 10
0.0
 20
-3893.96875
 10
0.0
 20
-3903.90234375
 10
0.0
 20
-3913.8359375
 10
0.0
 20
-3923.76953125
 10
0.0
 20
-3933.703125
 10
0.0
 20
-3943.63671875
 10
0.0
 20
-3953.5703125
 10
0.0
 20
-3963.50390625
 10
0.0
 20
-3973.4375
 10
0.0
 20
-3983.37109375
 10
0.0
 20
-3993.3046875
 10
0.0
 20
-4003.23828125
 10
0.0
 20
-4013.171875
 10
0.0
 20
-4023.10546875
 10
0.0
 20
-4033.0390625
 10
0.0
 20
-4042.97265625
 10
0.0
 20
-4052.90625
 10
0.0
 20
-4062.83984375
 10
0.0
 20
-4072.7734375
 10
0.0
 20
-4082.70703125
 10
0.0
 20
-4092.640625
 10
0.0
 20
-4102.57421875
 10
0.0
 20
-4112.5078125
 10
0.0
 20
-4122.44140625
 10
0.0
 20
-4132.375
 10
0.0
 20
-4142.30859375
 10
0.0
 20
-4152.2421875
 10
0.0
 20
-4162.17578125
 10
0.0
 20
-4172.109375
 10
0.0
 20
-4182.04296875
 10
0.0
 20
-4191.9765625
 10
0.0
 20
-4201.91015625
 10
0.0
 20
-4211.84375
 10
0.0
 20
-4221.77734375
 10
0.0
 20
-4231.7109375
 10
0.0
 20
-4241.64453125
 10
0.0
 20
-4251.578125
 10
0.0
 20
-4261.51171875
 10
0.0
 20
-4271.4453125
 10
0.0
 20
-4281.37890625
 10
0.0
 20
-4291.3125
 10
0.0
 20
-4301.24609375
 10
0.0
 20
-4311.1796875
 10
0.0
 20
-4321.11328125
 10
0.0
 20
-4331.046875
 10
0.0
 20
-4340.98046875
 10
0.0
 20
-4350.9140625
 10
0.0
 20
-4360.84765625
 10
0.0
 20
-4370.78125
 10
0.0
 20
-4380.71484375
 10
0.0
 20
-4390.6484375
 10
0.0
 20
-4400.58203125
 10
0.0
 20
-4410.515625
 10
0.0
 20
-4420.44921875
 10
0.0
 20
-4430.3828125
 10
0.0
 20
-4440.31640625
 10
0.0
 20
-4450.25
 10
0.0
 20
-4460.18359375
 10
0.0
 20
-4470.1171875
 10
0.0
 20
-4480.05078125
 10
0.0
 20
-4489.984375
 10
0.0
 20
-4499.91796875
 10
0.0
 20
-4509.8515625
 10
0.0
 20
-4519.78515625
 10
0.0
 20
-4529.71875
 10
0.0
 20
-4539.65234375
 10
0.0
 20
-4549.5859375
 10
0.0
 20
-4559.51953125
 10
0.0
 20
-4569.453125
 10
0.0
 20
-4579.38671875
 10
0.0
 20
-4589.3203125
 10
0.0
 20
-4599.25390625
 10
0.0
 20
-4609.1875
 10
0.0
 20
-4619.12109375
 10
0.0
 20
-4629.0546875
 10
0.0
 20
-4638.98828125
 10
0.0
 20
-4648.921875
 10
0.0
 20
-4658.85546875
 10
0.0
 20
-4668.7890625
 10
0.0
 20
-4678.72265625
 10
0.0
 20
-4688.65625
 10
0.0
 20
-4698.58984375
 10
0.0
 20
-4708.5234375
 10
0.0
 20
-4718.45703125
 10
0.0
 20
-4728.390625
 10
0.0
 20
-4738.32421875
 10
0.0
 20
-4748.2578125
 10
0.0
 20
-4758.19140625
 10
0.0
 20
-4768.125
 10
0.0
 20
-4778.05859375
 10
0.0
 20
-4787.9921875
 10
0.0
 20
-4797.92578125
 10
0.0
 20
-4807.859375
 10
0.0
 20
-4817.79296875
 10
0.0
 20
-4827.7265625
 10
0.0
 20
-4837.66015625
 10
0.0
 20
-4847.59375
 10
0.0
 20
-4857.52734375
 10
0.0
 20
-4867.4609375
 10
0.0
 20
-4877.39453125
 10
0.0
 20
-4887.328125
 10
0.0
 20
-4897.26171875
 10
0.0
 20
-4907.1953125
 10
0.0
 20
-4917.12890625
 10
0.0
 20
-4927.0625
 10
0.0
 20
-4936.99609375
 10
0.0
 20
-4946.9296875
 10
0.0
 20
-4956.86328125
 10
0.0
 20
-4966.796875
 10
0.0
 20
-4976.73046875
 10
0.0
 20
-4986.6640625
 10
0.0
 20
-4996.59765625
 10
0.0
 20
-5006.53125
 10
0.0
 20
-5016.46484375
 10
0.0
 20
-5026.3984375
 10
0.0
 20
-5036.33203125
 10
0.0
 20
-5046.265625
 10
0.0
 20
-5056.19921875
 10
0.0
 20
-5066.1328125
 10
0.0
 20
-5076.06640625
 10
9.93359375
 20
-5076.06640625
 10
19.8671875
 20
-5076.06640625
 10
29.80078125
 20
-5076.06640625
 10
39.734375
 20
-5076.06640625
 10
49.66796875
 20
-5076.06640625
 10
59.6015625
 20
-5076.06640625
 10
69.53515625
 20
-5076.06640625
 10
79.46875
 20
-5076.06640625
 10
89.40234375
 20
-5076.06640625
 10
99.3359375
 20
-5076.06640625
 10
109.26953125
 20
-5076.06640625
 10
119.203125
 20
-5076.06640625
 10
129.13671875
 20
-5076.06640625
 10
139.0703125
 20
-5076.06640625
 10
149.00390625
 20
-5076.06640625
 10
158.9375
 20
-5076.06640625
 10
168.87109375
 20
-5076.06640625
 10
178.8046875
 20
-5076.06640625
 10
188.73828125
 20
-5076.06640625
 10
198.671875
 20
-5076.06640625
 10
208.60546875
 20
-5076.06640625
 10
218.5390625
 20
-5076.06640625
 10
228.47265625
 20
-5076.06640625
 10
238.40625
 20
-5076.06640625
 10
248.33984375
 20
-5076.06640625
 10
258.2734375
 20
-5076.06640625
 10
268.20703125
 20
-5076.06640625
 10
278.140625
 20
-5076.06640625
 10
288.07421875
 20
-5076.06640625
 10
298.0078125
 20
-5076.06640625
 10
307.94140625
 20
-5076.06640625
 10
317.875
 20
-5076.06640625
 10
327.80859375
 20
-5076.06640625
 10
337.7421875
 20
-5076.06640625
 10
347.67578125
 20
-5076.06640625
 10
357.609375
 20
-5076.06640625
 10
367.54296875
 20
-5076.06640625
 10
377.4765625
 20
-5076.06640625
 10
387.41015625
 20
-5076.06640625
 10
397.34375
 20
-5076.06640625
 10
407.27734375
 20
-5076.06640625
 10
417.2109375
 20
-5076.06640625
 10
427.14453125
 20
-5076.06640625
 10
437.078125
 20
-5076.06640625
 10
447.01171875
 20
-5076.06640625
 10
456.9453125
 20
-5076.06640625
 10
466.87890625
 20
-5076.06640625
 10
476.8125
 20
-5076.06640625
 10
486.74609375
 20
-5076.06640625
 10
496.6796875
 20
-5076.06640625
 10
506.61328125
 20
-5076.06640625
 10
516.546875
 20
-5076.06640625
 10
526.48046875
 20
-5076.06640625
 10
536.4140625
 20
-5076.06640625
 10
546.34765625
 20
-5076.06640625
 10
556.28125
 20
-5076.06640625
 10
566.21484375
 20
-5076.06640625
 10
576.1484375
 20
-5076.06640625
 10
586.08203125
 20
-5076.06640625
 10
596.015625
 20
-5076.06640625
 10
605.94921875
 20
-5076.06640625
 10
615.8828125
 20
-5076.06640625
 10
625.81640625
 20
-5076.06640625
 10
635.75
 20
-5076.06640625
 10
645.68359375
 20
-5076.06640625
 10
655.6171875
 20
-5076.06640625
 10
665.55078125
 20
-5076.06640625
 10
675.484375
 20
-5076.06640625
 10
685.41796875
 20
-5076.06640625
 10
695.3515625
 20
-5076.06640625
 10
705.28515625
 20
-5076.06640625
 10
715.21875
 20
-5076.06640625
 10
725.15234375
 20
-5076.06640625
 10
735.0859375
 20
-5076.06640625
 10
745.01953125
 20
-5076.06640625
 10
754.953125
 20
-5076.06640625
 10
764.88671875
 20
-5076.06640625
 10
774.8203125
 20
-5076.06640625
 10
784.75390625
 20
-5076.06640625
 10
794.6875
 20
-5076.06640625
 10
804.62109375
 20
-5076.06640625
 10
814.5546875
 20
-5076.06640625
 10
824.48828125
 20
-5076.06640625
 10
834.421875
 20
-5076.06640625
 10
844.35546875
 20
-5076.06640625
 10
854.2890625
 20
-5076.06640625
 10
864.22265625
 20
-5076.06640625
 10
874.15625
 20
-5076.06640625
 10
884.08984375
 20
-5076.06640625
 10
894.0234375
 20
-5076.06640625
 10
903.95703125
 20
-5076.06640625
 10
913.890625
 20
-5076.06640625
 10
923.82421875
 20
-5076.06640625
 10
933.7578125
 20
-5076.06640625
 10
943.69140625
 20
-5076.06640625
 10
953.625
 20
-5076.06640625
 10
963.55859375
 20
-5076.06640625
 10
973.4921875
 20
-5076.06640625
 10
983.42578125
 20
-5076.06640625
 10
993.359375
 20
-5076.06640625
 10
1003.29296875
 20
-5076.06640625
 10
1013.2265625
 20
-5076.06640625
 10
1023.16015625
 20
-5076.06640625
 10
1033.09375
 20
-5076.06640625
 10
1043.02734375
 20
-5076.06640625
 10
1052.9609375
 20
-5076.06640625
 10
1062.89453125
 20
-5076.06640625
 10
1072.828125
 20
-5076.06640625
 10
1082.76171875
 20
-5076.06640625
 10
1092.6953125
 20
-5076.06640625
 10
1102.62890625
 20
-5076.06640625
 10
1112.5625
 20
-5076.06640625
 10
1122.49609375
 20
-5076.06640625
 10
1132.4296875
 20
-5076.06640625
 10
1142.36328125
 20
-5076.06640625
 10
1152.296875
 20
-5076.06640625
 10
1162.23046875
 20
-5076.06640625
 10
1172.1640625
 20
-5076.06640625
 10
1182.09765625
 20
-5076.06640625
 10
1192.03125
 20
-5076.06640625
 10
1201.96484375
 20
-5076.06640625
 10
1211.8984375
 20
-5076.06640625
 10
1221.83203125
 20
-5076.06640625
 10
1231.765625
 20
-5076.06640625
 10
1241.69921875
 20
-5076.06640625
 10
1251.6328125
 20
-5076.06640625
 10
1261.56640625
 20
-5076.06640625
 10
1271.5
 20
-5076.06640625
 10
1281.43359375
 20
-5076.06640625
 10
1291.3671875
 20
-5076.06640625
 10
1301.30078125
 20
-5076.06640625
 10
1311.234375
 20
-5076.06640625
 10
1321.16796875
 20
-5076.06640625
 10
1331.1015625
 20
-5076.06640625
 10
1341.03515625
 20
-5076.06640625
 10
1350.96875
 20
-5076.06640625
 10
1360.90234375
 20
-5076.06640625
 10
1370.8359375
 20
-5076.06640625
 10
1380.76953125
 20
-5076.06640625
 10
1390.703125
 20
-5076.06640625
 10
1400.63671875
 20
-5076.06640625
 10
1410.5703125
 20
-5076.06640625
 10
1420.50390625
 20
-5076.06640625
 10
1430.4375
 20
-5076.06640625
 10
1440.37109375
 20
-5076.06640625
 10
1450.3046875
 20
-5076.06640625
 10
1460.23828125
 20
-5076.06640625
 10
1470.171875
 20
-5076.06640625
 10
1480.10546875
 20
-5076.06640625
 10
1490.0390625
 20
-5076.06640625
 10
1499.97265625
 20
-5076.06640625
 10
1509.90625
 20
-5076.06640625
 10
1519.83984375
 20
-5076.06640625
 10
1529.7734375
 20
-5076.06640625
 10
1539.70703125
 20
-5076.06640625
 10
1549.640625
 20
-5076.06640625
 10
1559.57421875
 20
-5076.06640625
 10
1569.5078125
 20
-5076.06640625
 10
1579.44140625
 20
-5076.06640625
 10
1589.375
 20
-5076.06640625
 10
1599.30859375
 20
-5076.06640625
 10
1609.2421875
 20
-5076.06640625
 10
1619.17578125
 20
-5076.06640625
 10
1629.109375
 20
-5076.06640625
 10
1639.04296875
 20
-5076.06640625
 10
1648.9765625
 20
-5076.06640625
 10
1658.91015625
 20
-5076.06640625
 10
1668.84375
 20
-5076.06640625
 10
1678.77734375
 20
-5076.06640625
 10
1688.7109375
 20
-5076.06640625
 10
1698.64453125
 20
-5076.06640625
 10
1708.578125
 20
-5076.06640625
 10
1718.51171875
 20
-5076.06640625
 10
1728.4453125
 20
-5076.06640625
 10
1738.37890625
 20
-5076.06640625
 10
1748.3125
 20
-5076.06640625
 10
1758.24609375
 20
-5076.06640625
 10
1768.1796875
 20
-5076.06640625
 10
1778.11328125
 20
-5076.06640625
 10
1788.046875
 20
-5076.06640625
 10
1797.98046875
 20
-5076.06640625
 10
1807.9140625
 20
-5076.06640625
 10
1817.84765625
 20
-5076.06640625
 10
1827.78125
 20
-5076.06640625
 10
1837.71484375
 20
-5076.06640625
 10
1847.6484375
 20
-5076.06640625
 10
1857.58203125
 20
-5076.06640625
 10
1867.515625
 20
-5076.06640625
 10
1877.44921875
 20
-5076.06640625
 10
1887.3828125
 20
-5076.06640625
 10
1897.31640625
 20
-5076.06640625
 10
1907.25
 20
-5076.06640625
 10
1917.18359375
 20
-5076.06640625
 10
1927.1171875
 20
-5076.06640625
 10
1937.05078125
 20
-5076.06640625
 10
1946.984375
 20
-5076.06640625
 10
1956.91796875
 20
-5076.06640625
 10
1966.8515625
 20
-5076.06640625
 10
1976.78515625
 20
-5076.06640625
 10
1986.71875
 20
-5076.06640625
 10
1996.65234375
 20
-5076.06640625
 10
2006.5859375
 20
-5076.06640625
 10
2016.51953125
 20
-5076.06640625
 10
2026.453125
 20
-5076.06640625
 10
2036.38671875
 20
-5076.06640625
 10
2046.3203125
 20
-5076.06640625
 10
2056.25390625
 20
-5076.06640625
 10
2066.1875
 20
-5076.06640625
 10
2076.12109375
 20
-5076.06640625
 10
2086.0546875
 20
-5076.06640625
 10
2095.98828125
 20
-5076.06640625
 10
2105.921875
 20
-5076.06640625
 10
2115.85546875
 20
-5076.06640625
 10
2125.7890625
 20
-5076.06640625
 10
2135.72265625
 20
-5076.06640625
 10
2145.65625
 20
-5076.06640625
 10
2155.58984375
 20
-5076.06640625
 10
2165.5234375
 20
-5076.06640625
 10
2175.45703125
 20
-5076.06640625
 10
2185.390625
 20
-5076.06640625
 10
2195.32421875
 20
-5076.06640625
 10
2205.2578125
 20
-5076.06640625
 10
2215.19140625
 20
-5076.06640625
 10
2225.125
 20
-5076.06640625
 10
2235.05859375
 20
-5076.06640625
 10
2244.9921875
 20
-5076.06640625
 10
2254.92578125
 20
-5076.06640625
 10
2264.859375
 20
-5076.06640625
 10
2274.79296875
 20
-5076.06640625
 10
2284.7265625
 20
-5076.06640625
 10
2294.66015625
 20
-5076.06640625
 10
2304.59375
 20
-5076.06640625
 10
2314.52734375
 20
-5076.06640625
 10
2324.4609375
 20
-5076.06640625
 10
2334.39453125
 20
-5076.06640625
 10
2344.328125
 20
-5076.06640625
 10
2354.26171875
 20
-5076.06640625
 10
2364.1953125
 20
-5076.06640625
 10
2374.12890625
 20
-5076.06640625
 10
2384.0625
 20
-5076.06640625
 10
2393.99609375
 20
-5076.06640625
 10
2403.9296875
 20
-5076.06640625
 10
2413.86328125
 20
-5076.06640625
 10
2423.796875
 20
-5076.06640625
 10
2433.73046875
 20
-5076.06640625
 10
2443.6640625
 20
-5076.06640625
 10
2453.59765625
 20
-5076.06640625
 10
2463.53125
 20
-5076.06640625
 10
2473.46484375
 20
-5076.06640625
 10
2483.3984375
 20
-5076.06640625
 10
2493.33203125
 20
-5076.06640625
 10
2503.265625
 20
-5076.06640625
 10
2513.19921875
 20
-5076.06640625
 10
2523.1328125
 20
-5076.06640625
 10
2533.06640625
 20
-5076.06640625
 10
2543.0
 20
-5076.06640625
 10
2552.93359375
 20
-5076.06640625
 10
2562.8671875
 20
-5076.06640625
 10
2572.80078125
 20
-5076.06640625
 10
2582.734375
 20
-5076.06640625
 10
2592.66796875
 20
-5076.06640625
 10
2602.6015625
 20
-5076.06640625
 10
2612.53515625
 20
-5076.06640625
 10
2622.46875
 20
-5076.06640625
 10
2632.40234375
 20
-5076.06640625
 10
2642.3359375
 20
-5076.06640625
 10
2652.26953125
 20
-5076.06640625
 10
2662.203125
 20
-5076.06640625
 10
2672.13671875
 20
-5076.06640625
 10
2682.0703125
 20
-5076.06640625
 10
2692.00390625
 20
-5076.06640625
 10
2701.9375
 20
-5076.06640625
 10
2711.87109375
 20
-5076.06640625
 10
2721.8046875
 20
-5076.06640625
 10
2731.73828125
 20
-5076.06640625
 10
2741.671875
 20
-5076.06640625
 10
2751.60546875
 20
-5076.06640625
 10
2761.5390625
 20
-5076.06640625
 10
2771.47265625
 20
-5076.06640625
 10
2781.40625
 20
-5076.06640625
 10
2791.33984375
 20
-5076.06640625
 10
2801.2734375
 20
-5076.06640625
 10
2811.20703125
 20
-5076.06640625
 10
2821.140625
 20
-5076.06640625
 10
2831.07421875
 20
-5076.06640625
 10
2841.0078125
 20
-5076.06640625
 10
2850.94140625
 20
-5076.06640625
 10
2860.875
 20
-5076.06640625
 10
2870.80859375
 20
-5076.06640625
 10
2880.7421875
 20
-5076.06640625
 10
2890.67578125
 20
-5076.06640625
 10
2900.609375
 20
-5076.06640625
 10
2910.54296875
 20
-5076.06640625
 10
2920.4765625
 20
-5076.06640625
 10
2930.41015625
 20
-5076.06640625
 10
2940.34375
 20
-5076.06640625
 10
2950.27734375
 20
-5076.06640625
 10
2960.2109375
 20
-5076.06640625
 10
2970.14453125
 20
-5076.06640625
 10
2980.078125
 20
-5076.06640625
 10
2990.01171875
 20
-5076.06640625
 10
2999.9453125
 20
-5076.06640625
 10
3009.87890625
 20
-5076.06640625
 10
3019.8125
 20
-5076.06640625
 10
3029.74609375
 20
-5076.06640625
 10
3039.6796875
 20
-5076.06640625
 10
3049.61328125
 20
-5076.06640625
 10
3059.546875
 20
-5076.06640625
 10
3069.48046875
 20
-5076.06640625
 10
3079.4140625
 20
-5076.06640625
 10
3089.34765625
 20
-5076.06640625
 10
3099.28125
 20
-5076.06640625
 10
3109.21484375
 20
-5076.06640625
 10
3119.1484375
 20
-5076.06640625
 10
3129.08203125
 20
-5076.06640625
 10
3139.015625
 20
-5076.06640625
 10
3148.94921875
 20
-5076.06640625
 10
3158.8828125
 20
-5076.06640625
 10
3168.81640625
 20
-5076.06640625
 10
3178.75
 20
-5076.06640625
 10
3188.68359375
 20
-5076.06640625
 10
3198.6171875
 20
-5076.06640625
 10
3208.55078125
 20
-5076.06640625
 10
3218.484375
 20
-5076.06640625
 10
3228.41796875
 20
-5076.06640625
 10
3238.3515625
 20
-5076.06640625
 10
3248.28515625
 20
-5076.06640625
 10
3258.21875
 20
-5076.06640625
 10
3268.15234375
 20
-5076.06640625
 10
3278.0859375
 20
-5076.06640625
 10
3288.01953125
 20
-5076.06640625
 10
3297.953125
 20
-5076.06640625
 10
3307.88671875
 20
-5076.06640625
 10
3317.8203125
 20
-5076.06640625
 10
3327.75390625
 20
-5076.06640625
 10
3337.6875
 20
-5076.06640625
 10
3347.62109375
 20
-5076.06640625
 10
3357.5546875
 20
-5076.06640625
 10
3367.48828125
 20
-5076.06640625
 10
3377.421875
 20
-5076.06640625
 10
3387.35546875
 20
-5076.06640625
 10
3397.2890625
 20
-5076.06640625
 10
3407.22265625
 20
-5076.06640625
 10
3417.15625
 20
-5076.06640625
 10
3427.08984375
 20
-5076.06640625
 10
3437.0234375
 20
-5076.06640625
 10
3446.95703125
 20
-5076.06640625
 10
3456.890625
 20
-5076.06640625
 10
3466.82421875
 20
-5076.06640625
 10
3476.7578125
 20
-5076.06640625
 10
3486.69140625
 20
-5076.06640625
 10
3496.625
 20
-5076.06640625
 10
3506.55859375
 20
-5076.06640625
 10
3516.4921875
 20
-5076.06640625
 10
3526.42578125
 20
-5076.06640625
 10
3536.359375
 20
-5076.06640625
 10
3546.29296875
 20
-5076.06640625
 10
3556.2265625
 20
-5076.06640625
 10
3566.16015625
 20
-5076.06640625
 10
3576.09375
 20
-5076.06640625
 10
3586.02734375
 20
-5076.06640625
 10
3595.9609375
 20
-5076.06640625
 10
3605.89453125
 20
-5076.06640625
 10
3615.828125
 20
-5076.06640625
 10
3625.76171875
 20
-5076.06640625
 10
3635.6953125
 20
-5076.06640625
 10
3645.62890625
 20
-5076.06640625
 10
3655.5625
 20
-5076.06640625
 10
3665.49609375
 20
-5076.06640625
 10
3675.4296875
 20
-5076.06640625
 10
3685.36328125
 20
-5076.06640625
 10
3695.296875
 20
-5076.06640625
 10
3705.23046875
 20
-5076.06640625
 10
3715.1640625
 20
-5076.06640625
 10
3725.09765625
 20
-5076.06640625
 10
3735.03125
 20
-5076.06640625
 10
3744.96484375
 20
-5076.06640625
 10
3754.8984375
 20
-5076.06640625
 10
3764.83203125
 20
-5076.06640625
 10
3774.765625
 20
-5076.06640625
 10
3784.69921875
 20
-5076.06640625
 10
3794.6328125
 20
-5076.06640625
 10
3804.56640625
 20
-5076.06640625
 10
3814.5
 20
-5076.06640625
 10
3824.43359375
 20
-5076.06640625
 10
3834.3671875
 20
-5076.06640625
 10
3844.30078125
 20
-5076.06640625
 10
3854.234375
 20
-5076.06640625
 10
3864.16796875
 20
-5076.06640625
 10
3874.1015625
 20
-5076.06640625
 10
3884.03515625
 20
-5076.06640625
 10
3893.96875
 20
-5076.06640625
 10
3903.90234375
 20
-5076.06640625
 10
3913.8359375
 20
-5076.06640625
 10
3923.76953125
 20
-5076.06640625
 10
3933.703125
 20
-5076.06640625
 10
3943.63671875
 20
-5076.06640625
 10
3953.5703125
 20
-5076.06640625
 10
3963.50390625
 20
-5076.06640625
 10
3973.4375
 20
-5076.06640625
 10
3983.37109375
 20
-5076.06640625
 10
3993.3046875
 20
-5076.06640625
 10
4003.23828125
 20
-5076.06640625
 10
4013.171875
 20
-5076.06640625
 10
4023.10546875
 20
-5076.06640625
 10
4033.0390625
 20
-5076.06640625
 10
4042.97265625
 20
-5076.06640625
 10
4052.90625
 20
-5076.06640625
 10
4062.83984375
 20
-5076.06640625
 10
4072.7734375
 20
-5076.06640625
 10
4082.70703125
 20
-5076.06640625
 10
4092.640625
 20
-5076.06640625
 10
4102.57421875
 20
-5076.06640625
 10
4112.5078125
 20
-5076.06640625
 10
4122.44140625
 20
-5076.06640625
 10
4132.375
 20
-5076.06640625
 10
4142.30859375
 20
-5076.06640625
 10
4152.2421875
 20
-5076.06640625
 10
4162.17578125
 20
-5076.06640625
 10
4172.109375
 20
-5076.06640625
 10
4182.04296875
 20
-5076.06640625
 10
4191.9765625
 20
-5076.06640625
 10
4201.91015625
 20
-5076.06640625
 10
4211.84375
 20
-5076.06640625
 10
4221.77734375
 20
-5076.06640625
 10
4231.7109375
 20
-5076.06640625
 10
4241.64453125
 20
-5076.06640625
 10
4251.578125
 20
-5076.06640625
 10
4261.51171875
 20
-5076.06640625
 10
4271.4453125
 20
-5076.06640625
 10
4281.37890625
 20
-5076.06640625
 10
4291.3125
 20
-5076.06640625
 10
4301.24609375
 20
-5076.06640625
 10
4311.1796875
 20
-5076.06640625
 10
4321.11328125
 20
-5076.06640625
 10
4331.046875
 20
-5076.06640625
 10
4340.98046875
 20
-5076.06640625
 10
4350.9140625
 20
-5076.06640625
 10
4360.84765625
 20
-5076.06640625
 10
4370.78125
 20
-5076.06640625
 10
4380.71484375
 20
-5076.06640625
 10
4390.6484375
 20
-5076.06640625
 10
4400.58203125
 20
-5076.06640625
 10
4410.515625
 20
-5076.06640625
 10
4420.44921875
 20
-5076.06640625
 10
4430.3828125
 20
-5076.06640625
 10
4440.31640625
 20
-5076.06640625
 10
4450.25
 20
-5076.06640625
 10
4460.18359375
 20
-5076.06640625
 10
4470.1171875
 20
-5076.06640625
 10
4480.05078125
 20
-5076.06640625
 10
4489.984375
 20
-5076.06640625
 10
4499.91796875
 20
-5076.06640625
 10
4509.8515625
 20
-5076.06640625
 10
4519.78515625
 20
-5076.06640625
 10
4529.71875
 20
-5076.06640625
 10
4539.65234375
 20
-5076.06640625
 10
4549.5859375
 20
-5076.06640625
 10
4559.51953125
 20
-5076.06640625
 10
4569.453125
 20
-5076.06640625
 10
4579.38671875
 20
-5076.06640625
 10
4589.3203125
 20
-5076.06640625
 10
4599.25390625
 20
-5076.06640625
 10
4609.1875
 20
-5076.06640625
 10
4619.12109375
 20
-5076.06640625
 10
4629.0546875
 20
-5076.06640625
 10
4638.98828125
 20
-5076.06640625
 10
4648.921875
 20
-5076.06640625
 10
4658.85546875
 20
-5076.06640625
 10
4668.7890625
 20
-5076.06640625
 10
4678.72265625
 20
-5076.06640625
 10
4688.65625
 20
-5076.06640625
 10
4698.58984375
 20
-5076.06640625
 10
4708.5234375
 20
-5076.06640625
 10
4718.45703125
 20
-5076.06640625
 10
4728.390625
 20
-5076.06640625
 10
4738.32421875
 20
-5076.06640625
 10
4748.2578125
 20
-5076.06640625
 10
4758.19140625
 20
-5076.06640625
 10
4768.125
 20
-5076.06640625
 10
4778.05859375
 20
-5076.06640625
 10
4787.9921875
 20
-5076.06640625
 10
4797.92578125
 20
-5076.06640625
 10
4807.859375
 20
-5076.06640625
 10
4817.79296875
 20
-5076.06640625
 10
4827.7265625
 20
-5076.06640625
 10
4837.66015625
 20
-5076.06640625
 10
4847.59375
 20
-5076.06640625
 10
4857.52734375
 20
-5076.06640625
 10
4867.4609375
 20
-5076.06640625
 10
4877.39453125
 20
-5076.06640625
 10
4887.328125
 20
-5076.06640625
 10
4897.26171875
 20
-5076.06640625
 10
4907.1953125
 20
-5076.06640625
 10
4917.12890625
 20
-5076.06640625
 10
4927.0625
 20
-5076.06640625
 10
4936.99609375
 20
-5076.06640625
 10
4946.9296875
 20
-5076.06640625
 10
4956.86328125
 20
-5076.06640625
 10
4966.796875
 20
-5076.06640625
 10
4976.73046875
 20
-5076.06640625
 10
4986.6640625
 20
-5076.06640625
 10
4996.59765625
 20
-5076.06640625
 10
5006.53125
 20
-5076.06640625
 10
5016.46484375
 20
-5076.06640625
 10
5026.3984375
 20
-5076.06640625
 10
5036.33203125
 20
-5076.06640625
 10
5046.265625
 20
-5076.06640625
 10
5056.19921875
 20
-5076.06640625
 10
5066.1328125
 20
-5076.06640625
 10
5076.06640625
 20
-5076.06640625
 10
5076.06640625
 20
-5066.1328125
 10
5076.06640625
 20
-5056.19921875
 10
5076.06640625
 20
-5046.265625
 10
5076.06640625
 20
-5036.33203125
 10
5076.06640625
 20
-5026.3984375
 10
5076.06640625
 20
-5016.46484375
 10
5076.06640625
 20
-5006.53125
 10
5076.06640625
 20
-4996.59765625
 10
5076.06640625
 20
-4986.6640625
 10
5076.06640625
 20
-4976.73046875
 10
5076.06640625
 20
-4966.796875
 10
5076.06640625
 20
-4956.86328125
 10
5076.06640625
 20
-4946.9296875
 10
5076.06640625
 20
-4936.99609375
 10
5076.06640625
 20
-4927.0625
 10
5076.06640625
 20
-4917.12890625
 10
5076.06640625
 20
-4907.1953125
 10
5076.06640625
 20
-4897.26171875
 10
5076.06640625
 20
-4887.328125
 10
5076.06640625
 20
-4877.39453125
 10
5076.06640625
 20
-4867.4609375
 10
5076.06640625
 20
-4857.52734375
 10
5076.06640625
 20
-4847.59375
 10
5076.06640625
 20
-4837.66015625
 10
5076.06640625
 20
-4827.7265625
 10
5076.06640625
 20
-4817.79296875
 10
5076.06640625
 20
-4807.859375
 10
5076.06640625
 20
-4797.92578125
 10
5076.06640625
 20
-4787.9921875
 10
5076.06640625
 20
-4778.05859375
 10
5076.06640625
 20
-4768.125
 10
5076.06640625
 20
-4758.19140625
 10
5076.06640625
 20
-4748.2578125
 10
5076.06640625
 20
-4738.32421875
 10
5076.06640625
 20
-4728.390625
 10
5076.06640625
 20
-4718.45703125
 10
5076.06640625
 20
-4708.5234375
 10
5076.06640625
 20
-4698.58984375
 10
5076.06640625
 20
-4688.65625
 10
5076.06640625
 20
-4678.72265625
 10
5076.06640625
 20
-4668.7890625
 10
5076.06640625
 20
-4658.85546875
 10
5076.06640625
 20
-4648.921875
 10
5076.06640625
 20
-4638.98828125
 10
5076.06640625
 20
-4629.0546875
 10
5076.06640625
 20
-4619.12109375
 10
5076.06640625
 20
-4609.1875
 10
5076.06640625
 20
-4599.25390625
 10
5076.06640625
 20
-4589.3203125
 10
5076.06640625
 20
-4579.38671875
 10
5076.06640625
 20
-4569.453125
 10
5076.06640625
 20
-4559.51953125
 10
5076.06640625
 20
-4549.5859375
 10
5076.06640625
 20
-4539.65234375
 10
5076.06640625
 20
-4529.71875
 10
5076.06640625
 20
-4519.78515625
 10
5076.06640625
 20
-4509.8515625
 10
5076.06640625
 20
-4499.91796875
 10
5076.06640625
 20
-4489.984375
 10
5076.06640625
 20
-4480.05078125
 10
5076.06640625
 20
-4470.1171875
 10
5076.06640625
 20
-4460.18359375
 10
5076.06640625
 20
-4450.25
 10
5076.06640625
 20
-4440.31640625
 10
5076.06640625
 20
-4430.3828125
 10
5076.06640625
 20
-4420.44921875
 10
5076.06640625
 20
-4410.515625
 10
5076.06640625
 20
-4400.58203125
 10
5076.06640625
 20
-4390.6484375
 10
5076.06640625
 20
-4380.71484375
 10
5076.06640625
 20
-4370.78125
 10
5076.06640625
 20
-4360.84765625
 10
5076.06640625
 20
-4350.9140625
 10
5076.06640625
 20
-4340.98046875
 10
5076.06640625
 20
-4331.046875
 10
5076.06640625
 20
-4321.11328125
 10
5076.06640625
 20
-4311.1796875
 10
5076.06640625
 20
-4301.24609375
 10
5076.06640625
 20
-4291.3125
 10
5076.06640625
 20
-4281.37890625
 10
5076.06640625
 20
-4271.4453125
 10
5076.06640625
 20
-4261.51171875
 10
5076.06640625
 20
-4251.578125
 10
5076.06640625
 20
-4241.64453125
 10
5076.06640625
 20
-4231.7109375
 10
5076.06640625
 20
-4221.77734375
 10
5076.06640625
 20
-4211.84375
 10
5076.06640625
 20
-4201.91015625
 10
5076.06640625
 20
-4191.9765625
 10
5076.06640625
 20
-4182.04296875
 10
5076.06640625
 20
-4172.109375
 10
5076.06640625
 20
-4162.17578125
 10
5076.06640625
 20
-4152.2421875
 10
5076.06640625
 20
-4142.30859375
 10
5076.06640625
 20
-4132.375
 10
5076.06640625
 20
-4122.44140625
 10
5076.06640625
 20
-4112.5078125
 10
5076.06640625
 20
-4102.57421875
 10
5076.06640625
 20
-4092.640625
 10
5076.06640625
 20
-4082.70703125
 10
5076.06640625
 20
-4072.7734375
 10
5076.06640625
 20
-4062.83984375
 10
5076.06640625
 20
-4052.90625
 10
5076.06640625
 20
-4042.97265625
 10
5076.06640625
 20
-4033.0390625
 10
5076.06640625
 20
-4023.10546875
 10
5076.06640625
 20
-4013.171875
 10
5076.06640625
 20
-4003.23828125
 10
5076.06640625
 20
-3993.3046875
 10
5076.06640625
 20
-3983.37109375
 10
5076.06640625
 20
-3973.4375
 10
5076.06640625
 20
-3963.50390625
 10
5076.06640625
 20
-3953.5703125
 10
5076.06640625
 20
-3943.63671875
 10
5076.06640625
 20
-3933.703125
 10
5076.06640625
 20
-3923.76953125
 10
5076.06640625
 20
-3913.8359375
 10
5076.06640625
 20
-3903.90234375
 10
5076.06640625
 20
-3893.96875
 10
5076.06640625
 20
-3884.03515625
 10
5076.06640625
 20
-3874.1015625
 10
5076.06640625
 20
-3864.16796875
 10
5076.06640625
 20
-3854.234375
 10
5076.06640625
 20
-3844.30078125
 10
5076.06640625
 20
-3834.3671875
 10
5076.06640625
 20
-3824.43359375
 10
5076.06640625
 20
-3814.5
 10
5076.06640625
 20
-3804.56640625
 10
5076.06640625
 20
-3794.6328125
 10
5076.06640625
 20
-3784.69921875
 10
5076.06640625
 20
-3774.765625
 10
5076.06640625
 20
-3764.83203125
 10
5076.06640625
 20
-3754.8984375
 10
5076.06640625
 20
-3744.96484375
 10
5076.06640625
 20
-3735.03125
 10
5076.06640625
 20
-3725.09765625
 10
5076.06640625
 20
-3715.1640625
 10
5076.06640625
 20
-3705.23046875
 10
5076.06640625
 20
-3695.296875
 10
5076.06640625
 20
-3685.36328125
 10
5076.06640625
 20
-3675.4296875
 10
5076.06640625
 20
-3665.49609375
 10
5076.06640625
 20
-3655.5625
 10
5076.06640625
 20
-3645.62890625
 10
5076.06640625
 20
-3635.6953125
 10
5076.06640625
 20
-3625.76171875
 10
5076.06640625
 20
-3615.828125
 10
5076.06640625
 20
-3605.89453125
 10
5076.06640625
 20
-3595.9609375
 10
5076.06640625
 20
-3586.02734375
 10
5076.06640625
 20
-3576.09375
 10
5076.06640625
 20
-3566.16015625
 10
5076.06640625
 20
-3556.2265625
 10
5076.06640625
 20
-3546.29296875
 10
5076.06640625
 20
-3536.359375
 10
5076.06640625
 20
-3526.42578125
 10
5076.06640625
 20
-3516.4921875
 10
5076.06640625
 20
-3506.55859375
 10
5076.06640625
 20
-3496.625
 10
5076.06640625
 20
-3486.69140625
 10
5076.06640625
 20
-3476.7578125
 10
5076.06640625
 20
-3466.82421875
 10
5076.06640625
 20
-3456.890625
 10
5076.06640625
 20
-3446.95703125
 10
5076.06640625
 20
-3437.0234375
 10
5076.06640625
 20
-3427.08984375
 10
5076.06640625
 20
-3417.15625
 10
5076.06640625
 20
-3407.22265625
 10
5076.06640625
 20
-3397.2890625
 10
5076.06640625
 20
-3387.35546875
 10
5076.06640625
 20
-3377.421875
 10
5076.06640625
 20
-3367.48828125
 10
5076.06640625
 20
-3357.5546875
 10
5076.06640625
 20
-3347.62109375
 10
5076.06640625
 20
-3337.6875
 10
5076.06640625
 20
-3327.75390625
 10
5076.06640625
 20
-3317.8203125
 10
5076.06640625
 20
-3307.88671875
 10
5076.06640625
 20
-3297.953125
 10
5076.06640625
 20
-3288.01953125
 10
5076.06640625
 20
-3278.0859375
 10
5076.06640625
 20
-3268.15234375
 10
5076.06640625
 20
-3258.21875
 10
5076.06640625
 20
-3248.28515625
 10
5076.06640625
 20
-3238.3515625
 10
5076.06640625
 20
-3228.41796875
 10
5076.06640625
 20
-3218.484375
 10
5076.06640625
 20
-3208.55078125
 10
5076.06640625
 20
-3198.6171875
 10
5076.06640625
 20
-3188.68359375
 10
5076.06640625
 20
-3178.75
 10
5076.06640625
 20
-3168.81640625
 10
5076.06640625
 20
-3158.8828125
 10
5076.06640625
 20
-3148.94921875
 10
5076.06640625
 20
-3139.015625
 10
5076.06640625
 20
-3129.08203125
 10
5076.06640625
 20
-3119.1484375
 10
5076.06640625
 20
-3109.21484375
 10
5076.06640625
 20
-3099.28125
 10
5076.06640625
 20
-3089.34765625
 10
5076.06640625
 20
-3079.4140625
 10
5076.06640625
 20
-3069.48046875
 10
5076.06640625
 20
-3059.546875
 10
5076.06640625
 20
-3049.61328125
 10
5076.06640625
 20
-3039.6796875
 10
5076.06640625
 20
-3029.74609375
 10
5076.06640625
 20
-3019.8125
 10
5076.06640625
 20
-3009.87890625
 10
5076.06640625
 20
-2999.9453125
 10
5076.06640625
 20
-2990.01171875
 10
5076.06640625
 20
-2980.078125
 10
5076.06640625
 20
-2970.14453125
 10
5076.06640625
 20
-2960.2109375
 10
5076.06640625
 20
-2950.27734375
 10
5076.06640625
 20
-2940.34375
 10
5076.06640625
 20
-2930.41015625
 10
5076.06640625
 20
-2920.4765625
 10
5076.06640625
 20
-2910.54296875
 10
5076.06640625
 20
-2900.609375
 10
5076.06640625
 20
-2890.67578125
 10
5076.06640625
 20
-2880.7421875
 10
5076.06640625
 20
-2870.80859375
 10
5076.06640625
 20
-2860.875
 10
5076.06640625
 20
-2850.94140625
 10
5076.06640625
 20
-2841.0078125
 10
5076.06640625
 20
-2831.07421875
 10
5076.06640625
 20
-2821.140625
 10
5076.06640625
 20
-2811.20703125
 10
5076.06640625
 20
-2801.2734375
 10
5076.06640625
 20
-2791.33984375
 10
5076.06640625
 20
-2781.40625
 10
5076.06640625
 20
-2771.47265625
 10
5076.06640625
 20
-2761.5390625
 10
5076.06640625
 20
-2751.60546875
 10
5076.06640625
 20
-2741.671875
 10
5076.06640625
 20
-2731.73828125
 10
5076.06640625
 20
-2721.8046875
 10
5076.06640625
 20
-2711.87109375
 10
5076.06640625
 20
-2701.9375
 10
5076.06640625
 20
-2692.00390625
 10
5076.06640625
 20
-2682.0703125
 10
5076.06640625
 20
-2672.13671875
 10
5076.06640625
 20
-2662.203125
 10
5076.06640625
 20
-2652.26953125
 10
5076.06640625
 20
-2642.3359375
 10
5076.06640625
 20
-2632.40234375
 10
5076.06640625
 20
-2622.46875
 10
5076.06640625
 20
-2612.53515625
 10
5076.06640625
 20
-2602.6015625
 10
5076.06640625
 20
-2592.66796875
 10
5076.06640625
 20
-2582.734375
 10
5076.06640625
 20
-2572.80078125
 10
5076.06640625
 20
-2562.8671875
 10
5076.06640625
 20
-2552.93359375
 10
5076.06640625
 20
-2543.0
 10
5076.06640625
 20
-2533.06640625
 10
5076.06640625
 20
-2523.1328125
 10
5076.06640625
 20
-2513.19921875
 10
5076.06640625
 20
-2503.265625
 10
5076.06640625
 20
-2493.33203125
 10
5076.06640625
 20
-2483.3984375
 10
5076.06640625
 20
-2473.46484375
 10
5076.06640625
 20
-2463.53125
 10
5076.06640625
 20
-2453.59765625
 10
5076.06640625
 20
-2443.6640625
 10
5076.06640625
 20
-2433.73046875
 10
5076.06640625
 20
-2423.796875
 10
5076.06640625
 20
-2413.86328125
 10
5076.06640625
 20
-2403.9296875
 10
5076.06640625
 20
-2393.99609375
 10
5076.06640625
 20
-2384.0625
 10
5076.06640625
 20
-2374.12890625
 10
5076.06640625
 20
-2364.1953125
 10
5076.06640625
 20
-2354.26171875
 10
5076.06640625
 20
-2344.328125
 10
5076.06640625
 20
-2334.39453125
 10
5076.06640625
 20
-2324.4609375
 10
5076.06640625
 20
-2314.52734375
 10
5076.06640625
 20
-2304.59375
 10
5076.06640625
 20
-2294.66015625
 10
5076.06640625
 20
-2284.7265625
 10
5076.06640625
 20
-2274.79296875
 10
5076.06640625
 20
-2264.859375
 10
5076.06640625
 20
-2254.92578125
 10
5076.06640625
 20
-2244.9921875
 10
5076.06640625
 20
-2235.05859375
 10
5076.06640625
 20
-2225.125
 10
5076.06640625
 20
-2215.19140625
 10
5076.06640625
 20
-2205.2578125
 10
5076.06640625
 20
-2195.32421875
 10
5076.06640625
 20
-2185.390625
 10
5076.06640625
 20
-2175.45703125
 10
5076.06640625
 20
-2165.5234375
 10
5076.06640625
 20
-2155.58984375
 10
5076.06640625
 20
-2145.65625
 10
5076.06640625
 20
-2135.72265625
 10
5076.06640625
 20
-2125.7890625
 10
5076.06640625
 20
-2115.85546875
 10
5076.06640625
 20
-2105.921875
 10
5076.06640625
 20
-2095.98828125
 10
5076.06640625
 20
-2086.0546875
 10
5076.06640625
 20
-2076.12109375
 10
5076.06640625
 20
-2066.1875
 10
5076.06640625
 20
-2056.25390625
 10
5076.06640625
 20
-2046.3203125
 10
5076.06640625
 20
-2036.38671875
 10
5076.06640625
 20
-2026.453125
 10
5076.06640625
 20
-2016.51953125
 10
5076.06640625
 20
-2006.5859375
 10
5076.06640625
 20
-1996.65234375
 10
5076.06640625
 20
-1986.71875
 10
5076.06640625
 20
-1976.78515625
 10
5076.06640625
 20
-1966.8515625
 10
5076.06640625
 20
-1956.91796875
 10
5076.06640625
 20
-1946.984375
 10
5076.06640625
 20
-1937.05078125
 10
5076.06640625
 20
-1927.1171875
 10
5076.06640625
 20
-1917.18359375
 10
5076.06640625
 20
-1907.25
 10
5076.06640625
 20
-1897.31640625
 10
5076.06640625
 20
-1887.3828125
 10
5076.06640625
 20
-1877.44921875
 10
5076.06640625
 20
-1867.515625
 10
5076.06640625
 20
-1857.58203125
 10
5076.06640625
 20
-1847.6484375
 10
5076.06640625
 20
-1837.71484375
 10
5076.06640625
 20
-1827.78125
 10
5076.06640625
 20
-1817.84765625
 10
5076.06640625
 20
-1807.9140625
 10
5076.06640625
 20
-1797.98046875
 10
5076.06640625
 20
-1788.046875
 10
5076.06640625
 20
-1778.11328125
 10
5076.06640625
 20
-1768.1796875
 10
5076.06640625
 20
-1758.24609375
 10
5076.06640625
 20
-1748.3125
 10
5076.06640625
 20
-1738.37890625
 10
5076.06640625
 20
-1728.4453125
 10
5076.06640625
 20
-1718.51171875
 10
5076.06640625
 20
-1708.578125
 10
5076.06640625
 20
-1698.64453125
 10
5076.06640625
 20
-1688.7109375
 10
5076.06640625
 20
-1678.77734375
 10
5076.06640625
 20
-1668.84375
 10
5076.06640625
 20
-1658.91015625
 10
5076.06640625
 20
-1648.9765625
 10
5076.06640625
 20
-1639.04296875
 10
5076.06640625
 20
-1629.109375
 10
5076.06640625
 20
-1619.17578125
 10
5076.06640625
 20
-1609.2421875
 10
5076.06640625
 20
-1599.30859375
 10
5076.06640625
 20
-1589.375
 10
5076.06640625
 20
-1579.44140625
 10
5076.06640625
 20
-1569.5078125
 10
5076.06640625
 20
-1559.57421875
 10
5076.06640625
 20
-1549.640625
 10
5076.06640625
 20
-1539.70703125
 10
5076.06640625
 20
-1529.7734375
 10
5076.06640625
 20
-1519.83984375
 10
5076.06640625
 20
-1509.90625
 10
5076.06640625
 20
-1499.97265625
 10
5076.06640625
 20
-1490.0390625
 10
5076.06640625
 20
-1480.10546875
 10
5076.06640625
 20
-1470.171875
 10
5076.06640625
 20
-1460.23828125
 10
5076.06640625
 20
-1450.3046875
 10
5076.06640625
 20
-1440.37109375
 10
5076.06640625
 20
-1430.4375
 10
5076.06640625
 20
-1420.50390625
 10
5076.06640625
 20
-1410.5703125
 10
5076.06640625
 20
-1400.63671875
 10
5076.06640625
 20
-1390.703125
 10
5076.06640625
 20
-1380.76953125
 10
5076.06640625
 20
-1370.8359375
 10
5076.06640625
 20
-1360.90234375
 10
5076.06640625
 20
-1350.96875
 10
5076.06640625
 20
-1341.03515625
 10
5076.06640625
 20
-1331.1015625
 10
5076.06640625
 20
-1321.16796875
 10
5076.06640625
 20
-1311.234375
 10
5076.06640625
 20
-1301.30078125
 10
5076.06640625
 20
-1291.3671875
 10
5076.06640625
 20
-1281.43359375
 10
5076.06640625
 20
-1271.5
 10
5076.06640625
 20
-1261.56640625
 10
5076.06640625
 20
-1251.6328125
 10
5076.06640625
 20
-1241.69921875
 10
5076.06640625
 20
-1231.765625
 10
5076.06640625
 20
-1221.83203125
 10
5076.06640625
 20
-1211.8984375
 10
5076.06640625
 20
-1201.96484375
 10
5076.06640625
 20
-1192.03125
 10
5076.06640625
 20
-1182.09765625
 10
5076.06640625
 20
-1172.1640625
 10
5076.06640625
 20
-1162.23046875
 10
5076.06640625
 20
-1152.296875
 10
5076.06640625
 20
-1142.36328125
 10
5076.06640625
 20
-1132.4296875
 10
5076.06640625
 20
-1122.49609375
 10
5076.06640625
 20
-1112.5625
 10
5076.06640625
 20
-1102.62890625
 10
5076.06640625
 20
-1092.6953125
 10
5076.06640625
 20
-1082.76171875
 10
5076.06640625
 20
-1072.828125
 10
5076.06640625
 20
-1062.89453125
 10
5076.06640625
 20
-1052.9609375
 10
5076.06640625
 20
-1043.02734375
 10
5076.06640625
 20
-1033.09375
 10
5076.06640625
 20
-1023.16015625
 10
5076.06640625
 20
-1013.2265625
 10
5076.06640625
 20
-1003.29296875
 10
5076.06640625
 20
-993.359375
 10
5076.06640625
 20
-983.42578125
 10
5076.06640625
 20
-973.4921875
 10
5076.06640625
 20
-963.55859375
 10
5076.06640625
 20
-953.625
 10
5076.06640625
 20
-943.69140625
 10
5076.06640625
 20
-933.7578125
 10
5076.06640625
 20
-923.82421875
 10
5076.06640625
 20
-913.890625
 10
5076.06640625
 20
-903.95703125
 10
5076.06640625
 20
-894.0234375
 10
5076.06640625
 20
-884.08984375
 10
5076.06640625
 20
-874.15625
 10
5076.06640625
 20
-864.22265625
 10
5076.06640625
 20
-854.2890625
 10
5076.06640625
 20
-844.35546875
 10
5076.06640625
 20
-834.421875
 10
5076.06640625
 20
-824.48828125
 10
5076.06640625
 20
-814.5546875
 10
5076.06640625
 20
-804.62109375
 10
5076.06640625
 20
-794.6875
 10
5076.06640625
 20
-784.75390625
 10
5076.06640625
 20
-774.8203125
 10
5076.06640625
 20
-764.88671875
 10
5076.06640625
 20
-754.953125
 10
5076.06640625
 20
-745.01953125
 10
5076.06640625
 20
-735.0859375
 10
5076.06640625
 20
-725.15234375
 10
5076.06640625
 20
-715.21875
 10
5076.06640625
 20
-705.28515625
 10
5076.06640625
 20
-695.3515625
 10
5076.06640625
 20
-685.41796875
 10
5076.06640625
 20
-675.484375
 10
5076.06640625
 20
-665.55078125
 10
5076.06640625
 20
-655.6171875
 10
5076.06640625
 20
-645.68359375
 10
5076.06640625
 20
-635.75
 10
5076.06640625
 20
-625.81640625
 10
5076.06640625
 20
-615.8828125
 10
5076.06640625
 20
-605.94921875
 10
5076.06640625
 20
-596.015625
 10
5076.06640625
 20
-586.08203125
 10
5076.06640625
 20
-576.1484375
 10
5076.06640625
 20
-566.21484375
 10
5076.06640625
 20
-556.28125
 10
5076.06640625
 20
-546.34765625
 10
5076.06640625
 20
-536.4140625
 10
5076.06640625
 20
-526.48046875
 10
5076.06640625
 20
-516.546875
 10
5076.06640625
 20
-506.61328125
 10
5076.06640625
 20
-496.6796875
 10
5076.06640625
 20
-486.74609375
 10
5076.06640625
 20
-476.8125
 10
5076.06640625
 20
-466.87890625
 10
5076.06640625
 20
-456.9453125
 10
5076.06640625
 20
-447.01171875
 10
5076.06640625
 20
-437.078125
 10
5076.06640625
 20
-427.14453125
 10
5076.06640625
 20
-417.2109375
 10
5076.06640625
 20
-407.27734375
 10
5076.06640625
 20
-397.34375
 10
5076.06640625
 20
-387.41015625
 10
5076.06640625
 20
-377.4765625
 10
5076.06640625
 20
-367.54296875
 10
5076.06640625
 20
-357.609375
 10
5076.06640625
 20
-347.67578125
 10
5076.06640625
 20
-337.7421875
 10
5076.06640625
 20
-327.80859375
 10
5076.06640625
 20
-317.875
 10
5076.06640625
 20
-307.94140625
 10
5076.06640625
 20
-298.0078125
 10
5076.06640625
 20
-288.07421875
 10
5076.06640625
 20
-278.140625
 10
5076.06640625
 20
-268.20703125
 10
5076.06640625
 20
-258.2734375
 10
5076.06640625
 20
-248.33984375
 10
5076.06640625
 20
-238.40625
 10
5076.06640625
 20
-228.47265625
 10
5076.06640625
 20
-218.5390625
 10
5076.06640625
 20
-208.60546875
 10
5076.06640625
 20
-198.671875
 10
5076.06640625
 20
-188.73828125
 10
5076.06640625
 20
-178.8046875
 10
5076.06640625
 20
-168.87109375
 10
5076.06640625
 20
-158.9375
 10
5076.06640625
 20
-149.00390625
 10
5076.06640625
 20
-139.0703125
 10
5076.06640625
 20
-129.13671875
 10
5076.06640625
 20
-119.203125
 10
5076.06640625
 20
-109.26953125
 10
5076.06640625
 20
-99.3359375
 10
5076.06640625
 20
-89.40234375
 10
5076.06640625
 20
-79.46875
 10
5076.06640625
 20
-69.53515625
 10
5076.06640625
 20
-59.6015625
 10
5076.06640625
 20
-49.66796875
 10
5076.06640625
 20
-39.734375
 10
5076.06640625
 20
-29.80078125
 10
5076.06640625
 20
-19.8671875
 10
5076.06640625
 20
-9.93359375
 10
5076.06640625
 20
-0.0
 10
5066.1328125
 20
-0.0
 10
5056.19921875
 20
-0.0
 10
5046.265625
 20
-0.0
 10
5036.33203125
 20
-0.0
 10
5026.3984375
 20
-0.0
 10
5016.46484375
 20
-0.0
 10
5006.53125
 20
-0.0
 10
4996.59765625
 20
-0.0
 10
4986.6640625
 20
-0.0
 10
4976.73046875
 20
-0.0
 10
4966.796875
 20
-0.0
 10
4956.86328125
 20
-0.0
 10
4946.9296875
 20
-0.0
 10
4936.99609375
 20
-0.0
 10
4927.0625
 20
-0.0
 10
4917.12890625
 20
-0.0
 10
4907.1953125
 20
-0.0
 10
4897.26171875
 20
-0.0
 10
4887.328125
 20
-0.0
 10
4877.39453125
 20
-0.0
 10
4867.4609375
 20
-0.0
 10
4857.52734375
 20
-0.0
 10
4847.59375
 20
-0.0
 10
4837.66015625
 20
-0.0
 10
4827.7265625
 20
-0.0
 10
4817.79296875
 20
-0.0
 10
4807.859375
 20
-0.0
 10
4797.92578125
 20
-0.0
 10
4787.9921875
 20
-0.0
 10
4778.05859375
 20
-0.0
 10
4768.125
 20
-0.0
 10
4758.19140625
 20
-0.0
 10
4748.2578125
 20
-0.0
 10
4738.32421875
 20
-0.0
 10
4728.390625
 20
-0.0
 10
4718.45703125
 20
-0.0
 10
4708.5234375
 20
-0.0
 10
4698.58984375
 20
-0.0
 10
4688.65625
 20
-0.0
 10
4678.72265625
 20
-0.0
 10
4668.7890625
 20
-0.0
 10
4658.85546875
 20
-0.0
 10
4648.921875
 20
-0.0
 10
4638.98828125
 20
-0.0
 10
4629.0546875
 20
-0.0
 10
4619.12109375
 20
-0.0
 10
4609.1875
 20
-0.0
 10
4599.25390625
 20
-0.0
 10
4589.3203125
 20
-0.0
 10
4579.38671875
 20
-0.0
 10
4569.453125
 20
-0.0
 10
4559.51953125
 20
-0.0
 10
4549.5859375
 20
-0.0
 10
4539.65234375
 20
-0.0
 10
4529.71875
 20
-0.0
 10
4519.78515625
 20
-0.0
 10
4509.8515625
 20
-0.0
 10
4499.91796875
 20
-0.0
 10
4489.984375
 20
-0.0
 10
4480.05078125
 20
-0.0
 10
4470.1171875
 20
-0.0
 10
4460.18359375
 20
-0.0
 10
4450.25
 20
-0.0
 10
4440.31640625
 20
-0.0
 10
4430.3828125
 20
-0.0
 10
4420.44921875
 20
-0.0
 10
4410.515625
 20
-0.0
 10
4400.58203125
 20
-0.0
 10
4390.6484375
 20
-0.0
 10
4380.71484375
 20
-0.0
 10
4370.78125
 20
-0.0
 10
4360.84765625
 20
-0.0
 10
4350.9140625
 20
-0.0
 10
4340.98046875
 20
-0.0
 10
4331.046875
 20
-0.0
 10
4321.11328125
 20
-0.0
 10
4311.1796875
 20
-0.0
 10
4301.24609375
 20
-0.0
 10
4291.3125
 20
-0.0
 10
4281.37890625
 20
-0.0
 10
4271.4453125
 20
-0.0
 10
4261.51171875
 20
-0.0
 10
4251.578125
 20
-0.0
 10
4241.64453125
 20
-0.0
 10
4231.7109375
 20
-0.0
 10
4221.77734375
 20
-0.0
 10
4211.84375
 20
-0.0
 10
4201.91015625
 20
-0.0
 10
4191.9765625
 20
-0.0
 10
4182.04296875
 20
-0.0
 10
4172.109375
 20
-0.0
 10
4162.17578125
 20
-0.0
 10
4152.2421875
 20
-0.0
 10
4142.30859375
 20
-0.0
 10
4132.375
 20
-0.0
 10
4122.44140625
 20
-0.0
 10
4112.5078125
 20
-0.0
 10
4102.57421875
 20
-0.0
 10
4092.640625
 20
-0.0
 10
4082.70703125
 20
-0.0
 10
4072.7734375
 20
-0.0
 10
4062.83984375
 20
-0.0
 10
4052.90625
 20
-0.0
 10
4042.97265625
 20
-0.0
 10
4033.0390625
 20
-0.0
 10
4023.10546875
 20
-0.0
 10
4013.171875
 20
-0.0
 10
4003.23828125
 20
-0.0
 10
3993.3046875
 20
-0.0
 10
3983.37109375
 20
-0.0
 10
3973.4375
 20
-0.0
 10
3963.50390625
 20
-0.0
 10
3953.5703125
 20
-0.0
 10
3943.63671875
 20
-0.0
 10
3933.703125
 20
-0.0
 10
3923.76953125
 20
-0.0
 10
3913.8359375
 20
-0.0
 10
3903.90234375
 20
-0.0
 10
3893.96875
 20
-0.0
 10
3884.03515625
 20
-0.0
 10
3874.1015625
 20
-0.0
 10
3864.16796875
 20
-0.0
 10
3854.234375
 20
-0.0
 10
3844.30078125
 20
-0.0
 10
3834.3671875
 20
-0.0
 10
3824.43359375
 20
-0.0
 10
3814.5
 20
-0.0
 10
3804.56640625
 20
-0.0
 10
3794.6328125
 20
-0.0
 10
3784.69921875
 20
-0.0
 10
3774.765625
 20
-0.0
 10
3764.83203125
 20
-0.0
 10
3754.8984375
 20
-0.0
 10
3744.96484375
 20
-0.0
 10
3735.03125
 20
-0.0
 10
3725.09765625
 20
-0.0
 10
3715.1640625
 20
-0.0
 10
3705.23046875
 20
-0.0
 10
3695.296875
 20
-0.0
 10
3685.36328125
 20
-0.0
 10
3675.4296875
 20
-0.0
 10
3665.49609375
 20
-0.0
 10
3655.5625
 20
-0.0
 10
3645.62890625
 20
-0.0
 10
3635.6953125
 20
-0.0
 10
3625.76171875
 20
-0.0
 10
3615.828125
 20
-0.0
 10
3605.89453125
 20
-0.0
 10
3595.9609375
 20
-0.0
 10
3586.02734375
 20
-0.0
 10
3576.09375
 20
-0.0
 10
3566.16015625
 20
-0.0
 10
3556.2265625
 20
-0.0
 10
3546.29296875
 20
-0.0
 10
3536.359375
 20
-0.0
 10
3526.42578125
 20
-0.0
 10
3516.4921875
 20
-0.0
 10
3506.55859375
 20
-0.0
 10
3496.625
 20
-0.0
 10
3486.69140625
 20
-0.0
 10
3476.7578125
 20
-0.0
 10
3466.82421875
 20
-0.0
 10
3456.890625
 20
-0.0
 10
3446.95703125
 20
-0.0
 10
3437.0234375
 20
-0.0
 10
3427.08984375
 20
-0.0
 10
3417.15625
 20
-0.0
 10
3407.22265625
 20
-0.0
 10
3397.2890625
 20
-0.0
 10
3387.35546875
 20
-0.0
 10
3377.421875
 20
-0.0
 10
3367.48828125
 20
-0.0
 10
3357.5546875
 20
-0.0
 10
3347.62109375
 20
-0.0
 10
3337.6875
 20
-0.0
 10
3327.75390625
 20
-0.0
 10
3317.8203125
 20
-0.0
 10
3307.88671875
 20
-0.0
 10
3297.953125
 20
-0.0
 10
3288.01953125
 20
-0.0
 10
3278.0859375
 20
-0.0
 10
3268.15234375
 20
-0.0
 10
3258.21875
 20
-0.0
 10
3248.28515625
 20
-0.0
 10
3238.3515625
 20
-0.0
 10
3228.41796875
 20
-0.0
 10
3218.484375
 20
-0.0
 10
3208.55078125
 20
-0.0
 10
3198.6171875
 20
-0.0
 10
3188.68359375
 20
-0.0
 10
3178.75
 20
-0.0
 10
3168.81640625
 20
-0.0
 10
3158.8828125
 20
-0.0
 10
3148.94921875
 20
-0.0
 10
3139.015625
 20
-0.0
 10
3129.08203125
 20
-0.0
 10
3119.1484375
 20
-0.0
 10
3109.21484375
 20
-0.0
 10
3099.28125
 20
-0.0
 10
3089.34765625
 20
-0.0
 10
3079.4140625
 20
-0.0
 10
3069.48046875
 20
-0.0
 10
3059.546875
 20
-0.0
 10
3049.61328125
 20
-0.0
 10
3039.6796875
 20
-0.0
 10
3029.74609375
 20
-0.0
 10
3019.8125
 20
-0.0
 10
3009.87890625
 20
-0.0
 10
2999.9453125
 20
-0.0
 10
2990.01171875
 20
-0.0
 10
2980.078125
 20
-0.0
 10
2970.14453125
 20
-0.0
 10
2960.2109375
 20
-0.0
 10
2950.27734375
 20
-0.0
 10
2940.34375
 20
-0.0
 10
2930.41015625
 20
-0.0
 10
2920.4765625
 20
-0.0
 10
2910.54296875
 20
-0.0
 10
2900.609375
 20
-0.0
 10
2890.67578125
 20
-0.0
 10
2880.7421875
 20
-0.0
 10
2870.80859375
 20
-0.0
 10
2860.875
 20
-0.0
 10
2850.94140625
 20
-0.0
 10
2841.0078125
 20
-0.0
 10
2831.07421875
 20
-0.0
 10
2821.140625
 20
-0.0
 10
2811.20703125
 20
-0.0
 10
2801.2734375
 20
-0.0
 10
2791.33984375
 20
-0.0
 10
2781.40625
 20
-0.0
 10
2771.47265625
 20
-0.0
 10
2761.5390625
 20
-0.0
 10
2751.60546875
 20
-0.0
 10
2741.671875
 20
-0.0
 10
2731.73828125
 20
-0.0
 10
2721.8046875
 20
-0.0
 10
2711.87109375
 20
-0.0
 10
2701.9375
 20
-0.0
 10
2692.00390625
 20
-0.0
 10
2682.0703125
 20
-0.0
 10
2672.13671875
 20
-0.0
 10
2662.203125
 20
-0.0
 10
2652.26953125
 20
-0.0
 10
2642.3359375
 20
-0.0
 10
2632.40234375
 20
-0.0
 10
2622.46875
 20
-0.0
 10
2612.53515625
 20
-0.0
 10
2602.6015625
 20
-0.0
 10
2592.66796875
 20
-0.0
 10
2582.734375
 20
-0.0
 10
2572.80078125
 20
-0.0
 10
2562.8671875
 20
-0.0
 10
2552.93359375
 20
-0.0
 10
2543.0
 20
-0.0
 10
2533.06640625
 20
-0.0
 10
2523.1328125
 20
-0.0
 10
2513.19921875
 20
-0.0
 10
2503.265625
 20
-0.0
 10
2493.33203125
 20
-0.0
 10
2483.3984375
 20
-0.0
 10
2473.46484375
 20
-0.0
 10
2463.53125
 20
-0.0
 10
2453.59765625
 20
-0.0
 10
2443.6640625
 20
-0.0
 10
2433.73046875
 20
-0.0
 10
2423.796875
 20
-0.0
 10
2413.86328125
 20
-0.0
 10
2403.9296875
 20
-0.0
 10
2393.99609375
 20
-0.0
 10
2384.0625
 20
-0.0
 10
2374.12890625
 20
-0.0
 10
2364.1953125
 20
-0.0
 10
2354.26171875
 20
-0.0
 10
2344.328125
 20
-0.0
 10
2334.39453125
 20
-0.0
 10
2324.4609375
 20
-0.0
 10
2314.52734375
 20
-0.0
 10
2304.59375
 20
-0.0
 10
2294.66015625
 20
-0.0
 10
2284.7265625
 20
-0.0
 10
2274.79296875
 20
-0.0
 10
2264.859375
 20
-0.0
 10
2254.92578125
 20
-0.0
 10
2244.9921875
 20
-0.0
 10
2235.05859375
 20
-0.0
 10
2225.125
 20
-0.0
 10
2215.19140625
 20
-0.0
 10
2205.2578125
 20
-0.0
 10
2195.32421875
 20
-0.0
 10
2185.390625
 20
-0.0
 10
2175.45703125
 20
-0.0
 10
2165.5234375
 20
-0.0
 10
2155.58984375
 20
-0.0
 10
2145.65625
 20
-0.0
 10
2135.72265625
 20
-0.0
 10
2125.7890625
 20
-0.0
 10
2115.85546875
 20
-0.0
 10
2105.921875
 20
-0.0
 10
2095.98828125
 20
-0.0
 10
2086.0546875
 20
-0.0
 10
2076.12109375
 20
-0.0
 10
2066.1875
 20
-0.0
 10
2056.25390625
 20
-0.0
 10
2046.3203125
 20
-0.0
 10
2036.38671875
 20
-0.0
 10
2026.453125
 20
-0.0
 10
2016.51953125
 20
-0.0
 10
2006.5859375
 20
-0.0
 10
1996.65234375
 20
-0.0
 10
1986.71875
 20
-0.0
 10
1976.78515625
 20
-0.0
 10
1966.8515625
 20
-0.0
 10
1956.91796875
 20
-0.0
 10
1946.984375
 20
-0.0
 10
1937.05078125
 20
-0.0
 10
1927.1171875
 20
-0.0
 10
1917.18359375
 20
-0.0
 10
1907.25
 20
-0.0
 10
1897.31640625
 20
-0.0
 10
1887.3828125
 20
-0.0
 10
1877.44921875
 20
-0.0
 10
1867.515625
 20
-0.0
 10
1857.58203125
 20
-0.0
 10
1847.6484375
 20
-0.0
 10
1837.71484375
 20
-0.0
 10
1827.78125
 20
-0.0
 10
1817.84765625
 20
-0.0
 10
1807.9140625
 20
-0.0
 10
1797.98046875
 20
-0.0
 10
1788.046875
 20
-0.0
 10
1778.11328125
 20
-0.0
 10
1768.1796875
 20
-0.0
 10
1758.24609375
 20
-0.0
 10
1748.3125
 20
-0.0
 10
1738.37890625
 20
-0.0
 10
1728.4453125
 20
-0.0
 10
1718.51171875
 20
-0.0
 10
1708.578125
 20
-0.0
 10
1698.64453125
 20
-0.0
 10
1688.7109375
 20
-0.0
 10
1678.77734375
 20
-0.0
 10
1668.84375
 20
-0.0
 10
1658.91015625
 20
-0.0
 10
1648.9765625
 20
-0.0
 10
1639.04296875
 20
-0.0
 10
1629.109375
 20
-0.0
 10
1619.17578125
 20
-0.0
 10
1609.2421875
 20
-0.0
 10
1599.30859375
 20
-0.0
 10
1589.375
 20
-0.0
 10
1579.44140625
 20
-0.0
 10
1569.5078125
 20
-0.0
 10
1559.57421875
 20
-0.0
 10
1549.640625
 20
-0.0
 10
1539.70703125
 20
-0.0
 10
1529.7734375
 20
-0.0
 10
1519.83984375
 20
-0.0
 10
1509.90625
 20
-0.0
 10
1499.97265625
 20
-0.0
 10
1490.0390625
 20
-0.0
 10
1480.10546875
 20
-0.0
 10
1470.171875
 20
-0.0
 10
1460.23828125
 20
-0.0
 10
1450.3046875
 20
-0.0
 10
1440.37109375
 20
-0.0
 10
1430.4375
 20
-0.0
 10
1420.50390625
 20
-0.0
 10
1410.5703125
 20
-0.0
 10
1400.63671875
 20
-0.0
 10
1390.703125
 20
-0.0
 10
1380.76953125
 20
-0.0
 10
1370.8359375
 20
-0.0
 10
1360.90234375
 20
-0.0
 10
1350.96875
 20
-0.0
 10
1341.03515625
 20
-0.0
 10
1331.1015625
 20
-0.0
 10
1321.16796875
 20
-0.0
 10
1311.234375
 20
-0.0
 10
1301.30078125
 20
-0.0
 10
1291.3671875
 20
-0.0
 10
1281.43359375
 20
-0.0
 10
1271.5
 20
-0.0
 10
1261.56640625
 20
-0.0
 10
1251.6328125
 20
-0.0
 10
1241.69921875
 20
-0.0
 10
1231.765625
 20
-0.0
 10
1221.83203125
 20
-0.0
 10
1211.8984375
 20
-0.0
 10
1201.96484375
 20
-0.0
 10
1192.03125
 20
-0.0
 10
1182.09765625
 20
-0.0
 10
1172.1640625
 20
-0.0
 10
1162.23046875
 20
-0.0
 10
1152.296875
 20
-0.0
 10
1142.36328125
 20
-0.0
 10
1132.4296875
 20
-0.0
 10
1122.49609375
 20
-0.0
 10
1112.5625
 20
-0.0
 10
1102.62890625
 20
-0.0
 10
1092.6953125
 20
-0.0
 10
1082.76171875
 20
-0.0
 10
1072.828125
 20
-0.0
 10
1062.89453125
 20
-0.0
 10
1052.9609375
 20
-0.0
 10
1043.02734375
 20
-0.0
 10
1033.09375
 20
-0.0
 10
1023.16015625
 20
-0.0
 10
1013.2265625
 20
-0.0
 10
1003.29296875
 20
-0.0
 10
993.359375
 20
-0.0
 10
983.42578125
 20
-0.0
 10
973.4921875
 20
-0.0
 10
963.55859375
 20
-0.0
 10
953.625
 20
-0.0
 10
943.69140625
 20
-0.0
 10
933.7578125
 20
-0.0
 10
923.82421875
 20
-0.0
 10
913.890625
 20
-0.0
 10
903.95703125
 20
-0.0
 10
894.0234375
 20
-0.0
 10
884.08984375
 20
-0.0
 10
874.15625
 20
-0.0
 10
864.22265625
 20
-0.0
 10
854.2890625
 20
-0.0
 10
844.35546875
 20
-0.0
 10
834.421875
 20
-0.0
 10
824.48828125
 20
-0.0
 10
814.5546875
 20
-0.0
 10
804.62109375
 20
-0.0
 10
794.6875
 20
-0.0
 10
784.75390625
 20
-0.0
 10
774.8203125
 20
-0.0
 10
764.88671875
 20
-0.0
 10
754.953125
 20
-0.0
 10
745.01953125
 20
-0.0
 10
735.0859375
 20
-0.0
 10
725.15234375
 20
-0.0
 10
715.21875
 20
-0.0
 10
705.28515625
 20
-0.0
 10
695.3515625
 20
-0.0
 10
685.41796875
 20
-0.0
 10
675.484375
 20
-0.0
 10
665.55078125
 20
-0.0
 10
655.6171875
 20
-0.0
 10
645.68359375
 20
-0.0
 10
635.75
 20
-0.0
 10
625.81640625
 20
-0.0
 10
615.8828125
 20
-0.0
 10
605.94921875
 20
-0.0
 10
596.015625
 20
-0.0
 10
586.08203125
 20
-0.0
 10
576.1484375
 20
-0.0
 10
566.21484375
 20
-0.0
 10
556.28125
 20
-0.0
 10
546.34765625
 20
-0.0
 10
536.4140625
 20
-0.0
 10
526.48046875
 20
-0.0
 10
516.546875
 20
-0.0
 10
506.61328125
 20
-0.0
 10
496.6796875
 20
-0.0
 10
486.74609375
 20
-0.0
 10
476.8125
 20
-0.0
 10
466.87890625
 20
-0.0
 10
456.9453125
 20
-0.0
 10
447.01171875
 20
-0.0
 10
437.078125
 20
-0.0
 10
427.14453125
 20
-0.0
 10
417.2109375
 20
-0.0
 10
407.27734375
 20
-0.0
 10
397.34375
 20
-0.0
 10
387.41015625
 20
-0.0
 10
377.4765625
 20
-0.0
 10
367.54296875
 20
-0.0
 10
357.609375
 20
-0.0
 10
347.67578125
 20
-0.0
 10
337.7421875
 20
-0.0
 10
327.80859375
 20
-0.0
 10
317.875
 20
-0.0
 10
307.94140625
 20
-0.0
 10
298.0078125
 20
-0.0
 10
288.07421875
 20
-0.0
 10
278.140625
 20
-0.0
 10
268.20703125
 20
-0.0
 10
258.2734375
 20
-0.0
 10
248.33984375
 20
-0.0
 10
238.40625
 20
-0.0
 10
228.47265625
 20
-0.0
 10
218.5390625
 20
-0.0
 10
208.60546875
 20
-0.0
 10
198.671875
 20
-0.0
 10
188.73828125
 20
-0.0
 10
178.8046875
 20
-0.0
 10
168.87109375
 20
-0.0
 10
158.9375
 20
-0.0
 10
149.00390625
 20
-0.0
 10
139.0703125
 20
-0.0
 10
129.13671875
 20
-0.0
 10
119.203125
 20
-0.0
 10
109.26953125
 20
-0.0
 10
99.3359375
 20
-0.0
 10
89.40234375
 20
-0.0
 10
79.46875
 20
-0.0
 10
69.53515625
 20
-0.0
 10
59.6015625
 20
-0.0
 10
49.66796875
 20
-0.0
 10
39.734375
 20
-0.0
 10
29.80078125
 20
-0.0
 10
19.8671875
 20
-0.0
 10
9.93359375
 20
-0.0
  0
LWPOLYLINE
  5
6D
330
17
100
AcDbEntity
  8
substrate
100
AcDbPolyline
 90
4
 70
1
 43
0.5
 10
844.35546875
 20
-884.08984375
 10
854.2890625
 20
-874.15625
 10
864.22265625
 20
-884.08984375
 10
854.2890625
 20
-894.0234375
  0
LWPOLYLINE
  5
6E
330
17
100
AcDbEntity
  8
substrate
100
AcDbPolyline
 90
1482
 70
1
 43
0.5
 10
1887.3828125
 20
-665.55078125
 10
1897.31640625
 20
-655.6171875
 10
1907.25
 20
-665.55078125
 10
1917.18359375
 20
-665.55078125
 10
1927.1171875
 20
-665.55078125
 10
1937.05078125
 20
-665.55078125
 10
1946.984375
 20
-665.55078125
 10
1956.91796875
 20
-665.55078125
 10
1966.8515625
 20
-665.55078125
 10
1976.78515625
 20
-665.55078125
 10
1986.71875
 20
-665.55078125
 10
1996.65234375
 20
-665.55078125
 10
2006.5859375
 20
-665.55078125
 10
2016.51953125
 20
-665.55078125
 10
2026.453125
 20
-665.55078125
 10
2036.38671875
 20
-665.55078125
 10
2046.3203125
 20
-665.55078125
 10
2056.25390625
 20
-665.55078125
 10
2066.1875
 20
-665.55078125
 10
2076.12109375
 20
-665.55078125
 10
2086.0546875
 20
-665.55078125
 10
2095.98828125
 20
-665.55078125
 10
2105.921875
 20
-665.55078125
 10
2115.85546875
 20
-665.55078125
 10
2125.7890625
 20
-665.55078125
 10
2135.72265625
 20
-665.55078125
 10
2145.65625
 20
-665.55078125
 10
2155.58984375
 20
-665.55078125
 10
2165.5234375
 20
-665.55078125
 10
2175.45703125
 20
-665.55078125
 10
2185.390625
 20
-665.55078125
 10
2195.32421875
 20
-665.55078125
 10
2205.2578125
 20
-665.55078125
 10
2215.19140625
 20
-665.55078125
 10
2225.125
 20
-665.55078125
 10
2235.05859375
 20
-665.55078125
 10
2244.9921875
 20
-665.55078125
 10
2254.92578125
 20
-665.55078125
 10
2264.859375
 20
-665.55078125
 10
2274.79296875
 20
-665.55078125
 10
2284.7265625
 20
-665.55078125
 10
2294.66015625
 20
-665.55078125
 10
2304.59375
 20
-665.55078125
 10
2314.52734375
 20
-665.55078125
 10
2324.4609375
 20
-665.55078125
 10
2334.39453125
 20
-665.55078125
 10
2344.328125
 20
-665.55078125
 10
2354.26171875
 20
-665.55078125
 10
2364.1953125
 20
-665.55078125
 10
2374.12890625
 20
-665.55078125
 10
2384.0625
 20
-665.55078125
 10
2393.99609375
 20
-665.55078125
 10
2403.9296875
 20
-665.55078125
 10
2413.86328125
 20
-665.55078125
 10
2423.796875
 20
-665.55078125
 10
2433.73046875
 20
-665.55078125
 10
2443.6640625
 20
-665.55078125
 10
2453.59765625
 20
-665.55078125
 10
2463.53125
 20
-665.55078125
 10
2473.46484375
 20
-665.55078125
 10
2483.3984375
 20
-665.55078125
 10
2493.33203125
 20
-665.55078125
 10
2503.265625
 20
-665.55078125
 10
2513.19921875
 20
-665.55078125
 10
2523.1328125
 20
-665.55078125
 10
2533.06640625
 20
-665.55078125
 10
2543.0
 20
-665.55078125
 10
2552.93359375
 20
-665.55078125
 10
2562.8671875
 20
-665.55078125
 10
2572.80078125
 20
-665.55078125
 10
2582.734375
 20
-665.55078125
 10
2592.66796875
 20
-665.55078125
 10
2602.6015625
 20
-665.55078125
 10
2612.53515625
 20
-665.55078125
 10
2622.46875
 20
-665.55078125
 10
2632.40234375
 20
-665.55078125
 10
2642.3359375
 20
-665.55078125
 10
2652.26953125
 20
-665.55078125
 10
2662.203125
 20
-665.55078125
 10
2672.13671875
 20
-665.55078125
 10
2682.0703125
 20
-665.55078125
 10
2692.00390625
 20
-665.55078125
 10
2701.9375
 20
-665.55078125
 10
2711.87109375
 20
-665.55078125
 10
2721.8046875
 20
-665.55078125
 10
2731.73828125
 20
-665.55078125
 10
2741.671875
 20
-665.55078125
 10
2751.60546875
 20
-665.55078125
 10
2761.5390625
 20
-665.55078125
 10
2771.47265625
 20
-665.55078125
 10
2781.40625
 20
-665.55078125
 10
2791.33984375
 20
-665.55078125
 10
2801.2734375
 20
-665.55078125
 10
2811.20703125
 20
-665.55078125
 10
2821.140625
 20
-665.55078125
 10
2831.07421875
 20
-665.55078125
 10
2841.0078125
 20
-665.55078125
 10
2850.94140625
 20
-665.55078125
 10
2860.875
 20
-665.55078125
 10
2870.80859375
 20
-665.55078125
 10
2880.7421875
 20
-665.55078125
 10
2890.67578125
 20
-665.55078125
 10
2900.609375
 20
-665.55078125
 10
2910.54296875
 20
-665.55078125
 10
2920.4765625
 20
-665.55078125
 10
2930.41015625
 20
-665.55078125
 10
2940.34375
 20
-665.55078125
 10
2950.27734375
 20
-665.55078125
 10
2960.2109375
 20
-665.55078125
 10
2970.14453125
 20
-665.55078125
 10
2980.078125
 20
-665.55078125
 10
2990.01171875
 20
-665.55078125
 10
2999.9453125
 20
-665.55078125
 10
3009.87890625
 20
-665.55078125
 10
3019.8125
 20
-665.55078125
 10
3029.74609375
 20
-665.55078125
 10
3039.6796875
 20
-665.55078125
 10
3049.61328125
 20
-665.55078125
 10
3059.546875
 20
-665.55078125
 10
3069.48046875
 20
-665.55078125
 10
3079.4140625
 20
-665.55078125
 10
3089.34765625
 20
-665.55078125
 10
3099.28125
 20
-665.55078125
 10
3109.21484375
 20
-665.55078125
 10
3119.1484375
 20
-665.55078125
 10
3129.08203125
 20
-665.55078125
 10
3139.015625
 20
-665.55078125
 10
3148.94921875
 20
-665.55078125
 10
3158.8828125
 20
-665.55078125
 10
3168.81640625
 20
-665.55078125
 10
3178.75
 20
-665.55078125
 10
3188.68359375
 20
-665.55078125
 10
3198.6171875
 20
-675.484375
 10
3198.6171875
 20
-685.41796875
 10
3198.6171875
 20
-695.3515625
 10
3198.6171875
 20
-705.28515625
 10
3208.55078125
 20
-715.21875
 10
3198.6171875
 20
-725.15234375
 10
3198.6171875
 20
-735.0859375
 10
3198.6171875
 20
-745.01953125
 10
3198.6171875
 20
-754.953125
 10
3198.6171875
 20
-764.88671875
 10
3198.6171875
 20
-774.8203125
 10
3198.6171875
 20
-784.75390625
 10
3198.6171875
 20
-794.6875
 10
3198.6171875
 20
-804.62109375
 10
3198.6171875
 20
-814.5546875
 10
3198.6171875
 20
-824.48828125
 10
3198.6171875
 20
-834.421875
 10
3198.6171875
 20
-844.35546875
 10
3198.6171875
 20
-854.2890625
 10
3198.6171875
 20
-864.22265625
 10
3198.6171875
 20
-874.15625
 10
3198.6171875
 20
-884.08984375
 10
3198.6171875
 20
-894.0234375
 10
3198.6171875
 20
-903.95703125
 10
3198.6171875
 20
-913.890625
 10
3198.6171875
 20
-923.82421875
 10
3198.6171875
 20
-933.7578125
 10
3198.6171875
 20
-943.69140625
 10
3198.6171875
 20
-953.625
 10
3198.6171875
 20
-963.55859375
 10
3198.6171875
 20
-973.4921875
 10
3198.6171875
 20
-983.42578125
 10
3198.6171875
 20
-993.359375
 10
3198.6171875
 20
-1003.29296875
 10
3198.6171875
 20
-1013.2265625
 10
3198.6171875
 20
-1023.16015625
 10
3198.6171875
 20
-1033.09375
 10
3198.6171875
 20
-1043.02734375
 10
3198.6171875
 20
-1052.9609375
 10
3198.6171875
 20
-1062.89453125
 10
3198.6171875
 20
-1072.828125
 10
3198.6171875
 20
-1082.76171875
 10
3198.6171875
 20
-1092.6953125
 10
3198.6171875
 20
-1102.62890625
 10
3198.6171875
 20
-1112.5625
 10
3198.6171875
 20
-1122.49609375
 10
3198.6171875
 20
-1132.4296875
 10
3198.6171875
 20
-1142.36328125
 10
3198.6171875
 20
-1152.296875
 10
3198.6171875
 20
-1162.23046875
 10
3198.6171875
 20
-1172.1640625
 10
3198.6171875
 20
-1182.09765625
 10
3198.6171875
 20
-1192.03125
 10
3198.6171875
 20
-1201.96484375
 10
3188.68359375
 20
-1211.8984375
 10
3198.6171875
 20
-1221.83203125
 10
3188.68359375
 20
-1231.765625
 10
3188.68359375
 20
-1241.69921875
 10
3188.68359375
 20
-1251.6328125
 10
3188.68359375
 20
-1261.56640625
 10
3188.68359375
 20
-1271.5
 10
3198.6171875
 20
-1281.43359375
 10
3198.6171875
 20
-1291.3671875
 10
3198.6171875
 20
-1301.30078125
 10
3198.6171875
 20
-1311.234375
 10
3198.6171875
 20
-1321.16796875
 10
3198.6171875
 20
-1331.1015625
 10
3198.6171875
 20
-1341.03515625
 10
3198.6171875
 20
-1350.96875
 10
3198.6171875
 20
-1360.90234375
 10
3198.6171875
 20
-1370.8359375
 10
3198.6171875
 20
-1380.76953125
 10
3198.6171875
 20
-1390.703125
 10
3198.6171875
 20
-1400.63671875
 10
3198.6171875
 20
-1410.5703125
 10
3198.6171875
 20
-1420.50390625
 10
3198.6171875
 20
-1430.4375
 10
3198.6171875
 20
-1440.37109375
 10
3198.6171875
 20
-1450.3046875
 10
3198.6171875
 20
-1460.23828125
 10
3198.6171875
 20
-1470.171875
 10
3198.6171875
 20
-1480.10546875
 10
3198.6171875
 20
-1490.0390625
 10
3198.6171875
 20
-1499.97265625
 10
3198.6171875
 20
-1509.90625
 10
3198.6171875
 20
-1519.83984375
 10
3198.6171875
 20
-1529.7734375
 10
3198.6171875
 20
-1539.70703125
 10
3198.6171875
 20
-1549.640625
 10
3198.6171875
 20
-1559.57421875
 10
3198.6171875
 20
-1569.5078125
 10
3198.6171875
 20
-1579.44140625
 10
3198.6171875
 20
-1589.375
 10
3198.6171875
 20
-1599.30859375
 10
3198.6171875
 20
-1609.2421875
 10
3198.6171875
 20
-1619.17578125
 10
3198.6171875
 20
-1629.109375
 10
3198.6171875
 20
-1639.04296875
 10
3198.6171875
 20
-1648.9765625
 10
3198.6171875
 20
-1658.91015625
 10
3198.6171875
 20
-1668.84375
 10
3198.6171875
 20
-1678.77734375
 10
3198.6171875
 20
-1688.7109375
 10
3198.6171875
 20
-1698.64453125
 10
3198.6171875
 20
-1708.578125
 10
3198.6171875
 20
-1718.51171875
 10
3198.6171875
 20
-1728.4453125
 10
3198.6171875
 20
-1738.37890625
 10
3198.6171875
 20
-1748.3125
 10
3198.6171875
 20
-1758.24609375
 10
3198.6171875
 20
-1768.1796875
 10
3198.6171875
 20
-1778.11328125
 10
3198.6171875
 20
-1788.046875
 10
3198.6171875
 20
-1797.98046875
 10
3198.6171875
 20
-1807.9140625
 10
3198.6171875
 20
-1817.84765625
 10
3198.6171875
 20
-1827.78125
 10
3198.6171875
 20
-1837.71484375
 10
3198.6171875
 20
-1847.6484375
 10
3198.6171875
 20
-1857.58203125
 10
3198.6171875
 20
-1867.515625
 10
3198.6171875
 20
-1877.44921875
 10
3208.55078125
 20
-1877.44921875
 10
3218.484375
 20
-1877.44921875
 10
3228.41796875
 20
-1877.44921875
 10
3238.3515625
 20
-1877.44921875
 10
3248.28515625
 20
-1877.44921875
 10
3258.21875
 20
-1877.44921875
 10
3268.15234375
 20
-1877.44921875
 10
3278.0859375
 20
-1877.44921875
 10
3288.01953125
 20
-1887.3828125
 10
3297.953125
 20
-1887.3828125
 10
3307.88671875
 20
-1887.3828125
 10
3317.8203125
 20
-1887.3828125
 10
3327.75390625
 20
-1887.3828125
 10
3337.6875
 20
-1887.3828125
 10
3347.62109375
 20
-1887.3828125
 10
3357.5546875
 20
-1887.3828125
 10
3367.48828125
 20
-1887.3828125
 10
3377.421875
 20
-1877.44921875
 10
3387.35546875
 20
-1887.3828125
 10
3397.2890625
 20
-1887.3828125
 10
3407.22265625
 20
-1887.3828125
 10
3417.15625
 20
-1887.3828125
 10
3427.08984375
 20
-1887.3828125
 10
3437.0234375
 20
-1887.3828125
 10
3446.95703125
 20
-1887.3828125
 10
3456.890625
 20
-1887.3828125
 10
3466.82421875
 20
-1887.3828125
 10
3476.7578125
 20
-1887.3828125
 10
3486.69140625
 20
-1887.3828125
 10
3496.625
 20
-1887.3828125
 10
3506.55859375
 20
-1887.3828125
 10
3516.4921875
 20
-1887.3828125
 10
3526.42578125
 20
-1887.3828125
 10
3536.359375
 20
-1887.3828125
 10
3546.29296875
 20
-1887.3828125
 10
3556.2265625
 20
-1887.3828125
 10
3566.16015625
 20
-1887.3828125
 10
3576.09375
 20
-1887.3828125
 10
3586.02734375
 20
-1887.3828125
 10
3595.9609375
 20
-1887.3828125
 10
3605.89453125
 20
-1887.3828125
 10
3615.828125
 20
-1887.3828125
 10
3625.76171875
 20
-1887.3828125
 10
3635.6953125
 20
-1877.44921875
 10
3645.62890625
 20
-1887.3828125
 10
3655.5625
 20
-1887.3828125
 10
3665.49609375
 20
-1887.3828125
 10
3675.4296875
 20
-1887.3828125
 10
3685.36328125
 20
-1887.3828125
 10
3695.296875
 20
-1887.3828125
 10
3705.23046875
 20
-1887.3828125
 10
3715.1640625
 20
-1887.3828125
 10
3725.09765625
 20
-1887.3828125
 10
3735.03125
 20
-1887.3828125
 10
3744.96484375
 20
-1887.3828125
 10
3754.8984375
 20
-1887.3828125
 10
3764.83203125
 20
-1887.3828125
 10
3774.765625
 20
-1887.3828125
 10
3784.69921875
 20
-1887.3828125
 10
3794.6328125
 20
-1887.3828125
 10
3804.56640625
 20
-1887.3828125
 10
3814.5
 20
-1887.3828125
 10
3824.43359375
 20
-1877.44921875
 10
3834.3671875
 20
-1877.44921875
 10
3844.30078125
 20
-1877.44921875
 10
3854.234375
 20
-1877.44921875
 10
3864.16796875
 20
-1877.44921875
 10
3874.1015625
 20
-1877.44921875
 10
3884.03515625
 20
-1877.44921875
 10
3893.96875
 20
-1877.44921875
 10
3903.90234375
 20
-1887.3828125
 10
3913.8359375
 20
-1887.3828125
 10
3923.76953125
 20
-1887.3828125
 10
3933.703125
 20
-1887.3828125
 10
3943.63671875
 20
-1887.3828125
 10
3953.5703125
 20
-1887.3828125
 10
3963.50390625
 20
-1887.3828125
 10
3973.4375
 20
-1887.3828125
 10
3983.37109375
 20
-1887.3828125
 10
3993.3046875
 20
-1887.3828125
 10
4003.23828125
 20
-1887.3828125
 10
4013.171875
 20
-1887.3828125
 10
4023.10546875
 20
-1887.3828125
 10
4033.0390625
 20
-1887.3828125
 10
4042.97265625
 20
-1887.3828125
 10
4052.90625
 20
-1887.3828125
 10
4062.83984375
 20
-1887.3828125
 10
4072.7734375
 20
-1887.3828125
 10
4082.70703125
 20
-1887.3828125
 10
4092.640625
 20
-1887.3828125
 10
4102.57421875
 20
-1887.3828125
 10
4112.5078125
 20
-1887.3828125
 10
4122.44140625
 20
-1887.3828125
 10
4132.375
 20
-1887.3828125
 10
4142.30859375
 20
-1887.3828125
 10
4152.2421875
 20
-1887.3828125
 10
4162.17578125
 20
-1887.3828125
 10
4172.109375
 20
-1887.3828125
 10
4182.04296875
 20
-1887.3828125
 10
4191.9765625
 20
-1877.44921875
 10
4201.91015625
 20
-1877.44921875
 10
4211.84375
 20
-1877.44921875
 10
4221.77734375
 20
-1877.44921875
 10
4231.7109375
 20
-1877.44921875
 10
4241.64453125
 20
-1887.3828125
 10
4251.578125
 20
-1887.3828125
 10
4261.51171875
 20
-1887.3828125
 10
4271.4453125
 20
-1887.3828125
 10
4281.37890625
 20
-1887.3828125
 10
4291.3125
 20
-1887.3828125
 10
4301.24609375
 20
-1887.3828125
 10
4311.1796875
 20
-1887.3828125
 10
4321.11328125
 20
-1887.3828125
 10
4331.046875
 20
-1887.3828125
 10
4340.98046875
 20
-1887.3828125
 10
4350.9140625
 20
-1887.3828125
 10
4360.84765625
 20
-1887.3828125
 10
4370.78125
 20
-1897.31640625
 10
4380.71484375
 20
-1907.25
 10
4390.6484375
 20
-1917.18359375
 10
4380.71484375
 20
-1927.1171875
 10
4380.71484375
 20
-1937.05078125
 10
4380.71484375
 20
-1946.984375
 10
4370.78125
 20
-1956.91796875
 10
4370.78125
 20
-1966.8515625
 10
4360.84765625
 20
-1976.78515625
 10
4360.84765625
 20
-1986.71875
 10
4360.84765625
 20
-1996.65234375
 10
4360.84765625
 20
-2006.5859375
 10
4360.84765625
 20
-2016.51953125
 10
4370.78125
 20
-2026.453125
 10
4360.84765625
 20
-2036.38671875
 10
4360.84765625
 20
-2046.3203125
 10
4360.84765625
 20
-2056.25390625
 10
4370.78125
 20
-2066.1875
 10
4360.84765625
 20
-2076.12109375
 10
4370.78125
 20
-2086.0546875
 10
4370.78125
 20
-2095.98828125
 10
4370.78125
 20
-2105.921875
 10
4370.78125
 20
-2115.85546875
 10
4370.78125
 20
-2125.7890625
 10
4370.78125
 20
-2135.72265625
 10
4370.78125
 20
-2145.65625
 10
4360.84765625
 20
-2155.58984375
 10
4360.84765625
 20
-2165.5234375
 10
4370.78125
 20
-2175.45703125
 10
4370.78125
 20
-2185.390625
 10
4370.78125
 20
-2195.32421875
 10
4370.78125
 20
-2205.2578125
 10
4370.78125
 20
-2215.19140625
 10
4370.78125
 20
-2225.125
 10
4370.78125
 20
-2235.05859375
 10
4370.78125
 20
-2244.9921875
 10
4370.78125
 20
-2254.92578125
 10
4370.78125
 20
-2264.859375
 10
4360.84765625
 20
-2274.79296875
 10
4370.78125
 20
-2284.7265625
 10
4370.78125
 20
-2294.66015625
 10
4370.78125
 20
-2304.59375
 10
4360.84765625
 20
-2314.52734375
 10
4360.84765625
 20
-2324.4609375
 10
4370.78125
 20
-2334.39453125
 10
4370.78125
 20
-2344.328125
 10
4370.78125
 20
-2354.26171875
 10
4370.78125
 20
-2364.1953125
 10
4370.78125
 20
-2374.12890625
 10
4370.78125
 20
-2384.0625
 10
4370.78125
 20
-2393.99609375
 10
4370.78125
 20
-2403.9296875
 10
4370.78125
 20
-2413.86328125
 10
4380.71484375
 20
-2423.796875
 10
4370.78125
 20
-2433.73046875
 10
4370.78125
 20
-2443.6640625
 10
4370.78125
 20
-2453.59765625
 10
4370.78125
 20
-2463.53125
 10
4370.78125
 20
-2473.46484375
 10
4370.78125
 20
-2483.3984375
 10
4370.78125
 20
-2493.33203125
 10
4370.78125
 20
-2503.265625
 10
4370.78125
 20
-2513.19921875
 10
4370.78125
 20
-2523.1328125
 10
4370.78125
 20
-2533.06640625
 10
4370.78125
 20
-2543.0
 10
4370.78125
 20
-2552.93359375
 10
4370.78125
 20
-2562.8671875
 10
4370.78125
 20
-2572.80078125
 10
4370.78125
 20
-2582.734375
 10
4370.78125
 20
-2592.66796875
 10
4370.78125
 20
-2602.6015625
 10
4370.78125
 20
-2612.53515625
 10
4370.78125
 20
-2622.46875
 10
4360.84765625
 20
-2632.40234375
 10
4370.78125
 20
-2642.3359375
 10
4370.78125
 20
-2652.26953125
 10
4370.78125
 20
-2662.203125
 10
4360.84765625
 20
-2672.13671875
 10
4370.78125
 20
-2682.0703125
 10
4370.78125
 20
-2692.00390625
 10
4370.78125
 20
-2701.9375
 10
4370.78125
 20
-2711.87109375
 10
4370.78125
 20
-2721.8046875
 10
4370.78125
 20
-2731.73828125
 10
4370.78125
 20
-2741.671875
 10
4370.78125
 20
-2751.60546875
 10
4370.78125
 20
-2761.5390625
 10
4370.78125
 20
-2771.47265625
 10
4370.78125
 20
-2781.40625
 10
4370.78125
 20
-2791.33984375
 10
4370.78125
 20
-2801.2734375
 10
4380.71484375
 20
-2811.20703125
 10
4380.71484375
 20
-2821.140625
 10
4380.71484375
 20
-2831.07421875
 10
4370.78125
 20
-2841.0078125
 10
4370.78125
 20
-2850.94140625
 10
4370.78125
 20
-2860.875
 10
4370.78125
 20
-2870.80859375
 10
4370.78125
 20
-2880.7421875
 10
4370.78125
 20
-2890.67578125
 10
4370.78125
 20
-2900.609375
 10
4370.78125
 20
-2910.54296875
 10
4370.78125
 20
-2920.4765625
 10
4370.78125
 20
-2930.41015625
 10
4370.78125
 20
-2940.34375
 10
4370.78125
 20
-2950.27734375
 10
4370.78125
 20
-2960.2109375
 10
4370.78125
 20
-2970.14453125
 10
4370.78125
 20
-2980.078125
 10
4370.78125
 20
-2990.01171875
 10
4360.84765625
 20
-2999.9453125
 10
4360.84765625
 20
-3009.87890625
 10
4360.84765625
 20
-3019.8125
 10
4360.84765625
 20
-3029.74609375
 10
4360.84765625
 20
-3039.6796875
 10
4360.84765625
 20
-3049.61328125
 10
4360.84765625
 20
-3059.546875
 10
4360.84765625
 20
-3069.48046875
 10
4360.84765625
 20
-3079.4140625
 10
4360.84765625
 20
-3089.34765625
 10
4360.84765625
 20
-3099.28125
 10
4360.84765625
 20
-3109.21484375
 10
4360.84765625
 20
-3119.1484375
 10
4360.84765625
 20
-3129.08203125
 10
4370.78125
 20
-3139.015625
 10
4370.78125
 20
-3148.94921875
 10
4370.78125
 20
-3158.8828125
 10
4370.78125
 20
-3168.81640625
 10
4360.84765625
 20
-3178.75
 10
4350.9140625
 20
-3178.75
 10
4340.98046875
 20
-3178.75
 10
4331.046875
 20
-3188.68359375
 10
4321.11328125
 20
-3188.68359375
 10
4311.1796875
 20
-3188.68359375
 10
4301.24609375
 20
-3188.68359375
 10
4291.3125
 20
-3188.68359375
 10
4281.37890625
 20
-3188.68359375
 10
4271.4453125
 20
-3188.68359375
 10
4261.51171875
 20
-3188.68359375
 10
4251.578125
 20
-3198.6171875
 10
4241.64453125
 20
-3198.6171875
 10
4231.7109375
 20
-3188.68359375
 10
4221.77734375
 20
-3188.68359375
 10
4211.84375
 20
-3188.68359375
 10
4201.91015625
 20
-3198.6171875
 10
4191.9765625
 20
-3198.6171875
 10
4182.04296875
 20
-3198.6171875
 10
4172.109375
 20
-3198.6171875
 10
4162.17578125
 20
-3198.6171875
 10
4152.2421875
 20
-3188.68359375
 10
4142.30859375
 20
-3188.68359375
 10
4132.375
 20
-3188.68359375
 10
4122.44140625
 20
-3188.68359375
 10
4112.5078125
 20
-3188.68359375
 10
4102.57421875
 20
-3188.68359375
 10
4092.640625
 20
-3188.68359375
 10
4082.70703125
 20
-3198.6171875
 10
4072.7734375
 20
-3198.6171875
 10
4062.83984375
 20
-3198.6171875
 10
4052.90625
 20
-3198.6171875
 10
4042.97265625
 20
-3198.6171875
 10
4033.0390625
 20
-3188.68359375
 10
4023.10546875
 20
-3188.68359375
 10
4013.171875
 20
-3188.68359375
 10
4003.23828125
 20
-3188.68359375
 10
3993.3046875
 20
-3188.68359375
 10
3983.37109375
 20
-3188.68359375
 10
3973.4375
 20
-3188.68359375
 10
3963.50390625
 20
-3188.68359375
 10
3953.5703125
 20
-3188.68359375
 10
3943.63671875
 20
-3188.68359375
 10
3933.703125
 20
-3188.68359375
 10
3923.76953125
 20
-3188.68359375
 10
3913.8359375
 20
-3188.68359375
 10
3903.90234375
 20
-3188.68359375
 10
3893.96875
 20
-3188.68359375
 10
3884.03515625
 20
-3188.68359375
 10
3874.1015625
 20
-3188.68359375
 10
3864.16796875
 20
-3188.68359375
 10
3854.234375
 20
-3188.68359375
 10
3844.30078125
 20
-3188.68359375
 10
3834.3671875
 20
-3198.6171875
 10
3824.43359375
 20
-3198.6171875
 10
3814.5
 20
-3198.6171875
 10
3804.56640625
 20
-3198.6171875
 10
3794.6328125
 20
-3198.6171875
 10
3784.69921875
 20
-3188.68359375
 10
3774.765625
 20
-3198.6171875
 10
3764.83203125
 20
-3198.6171875
 10
3754.8984375
 20
-3198.6171875
 10
3744.96484375
 20
-3188.68359375
 10
3735.03125
 20
-3188.68359375
 10
3725.09765625
 20
-3198.6171875
 10
3715.1640625
 20
-3188.68359375
 10
3705.23046875
 20
-3188.68359375
 10
3695.296875
 20
-3188.68359375
 10
3685.36328125
 20
-3188.68359375
 10
3675.4296875
 20
-3188.68359375
 10
3665.49609375
 20
-3188.68359375
 10
3655.5625
 20
-3188.68359375
 10
3645.62890625
 20
-3198.6171875
 10
3635.6953125
 20
-3198.6171875
 10
3625.76171875
 20
-3188.68359375
 10
3615.828125
 20
-3198.6171875
 10
3605.89453125
 20
-3188.68359375
 10
3595.9609375
 20
-3188.68359375
 10
3586.02734375
 20
-3188.68359375
 10
3576.09375
 20
-3188.68359375
 10
3566.16015625
 20
-3188.68359375
 10
3556.2265625
 20
-3188.68359375
 10
3546.29296875
 20
-3188.68359375
 10
3536.359375
 20
-3188.68359375
 10
3526.42578125
 20
-3188.68359375
 10
3516.4921875
 20
-3188.68359375
 10
3506.55859375
 20
-3188.68359375
 10
3496.625
 20
-3188.68359375
 10
3486.69140625
 20
-3188.68359375
 10
3476.7578125
 20
-3188.68359375
 10
3466.82421875
 20
-3198.6171875
 10
3456.890625
 20
-3198.6171875
 10
3446.95703125
 20
-3198.6171875
 10
3437.0234375
 20
-3198.6171875
 10
3427.08984375
 20
-3198.6171875
 10
3417.15625
 20
-3198.6171875
 10
3407.22265625
 20
-3198.6171875
 10
3397.2890625
 20
-3188.68359375
 10
3387.35546875
 20
-3188.68359375
 10
3377.421875
 20
-3198.6171875
 10
3367.48828125
 20
-3198.6171875
 10
3357.5546875
 20
-3198.6171875
 10
3347.62109375
 20
-3198.6171875
 10
3337.6875
 20
-3198.6171875
 10
3327.75390625
 20
-3198.6171875
 10
3317.8203125
 20
-3198.6171875
 10
3307.88671875
 20
-3198.6171875
 10
3297.953125
 20
-3198.6171875
 10
3288.01953125
 20
-3198.6171875
 10
3278.0859375
 20
-3198.6171875
 10
3268.15234375
 20
-3198.6171875
 10
3258.21875
 20
-3198.6171875
 10
3248.28515625
 20
-3198.6171875
 10
3238.3515625
 20
-3198.6171875
 10
3228.41796875
 20
-3198.6171875
 10
3218.484375
 20
-3198.6171875
 10
3208.55078125
 20
-3188.68359375
 10
3198.6171875
 20
-3188.68359375
 10
3188.68359375
 20
-3188.68359375
 10
3198.6171875
 20
-3198.6171875
 10
3188.68359375
 20
-3208.55078125
 10
3188.68359375
 20
-3218.484375
 10
3198.6171875
 20
-3228.41796875
 10
3198.6171875
 20
-3238.3515625
 10
3198.6171875
 20
-3248.28515625
 10
3198.6171875
 20
-3258.21875
 10
3198.6171875
 20
-3268.15234375
 10
3198.6171875
 20
-3278.0859375
 10
3198.6171875
 20
-3288.01953125
 10
3198.6171875
 20
-3297.953125
 10
3198.6171875
 20
-3307.88671875
 10
3198.6171875
 20
-3317.8203125
 10
3198.6171875
 20
-3327.75390625
 10
3198.6171875
 20
-3337.6875
 10
3198.6171875
 20
-3347.62109375
 10
3198.6171875
 20
-3357.5546875
 10
3198.6171875
 20
-3367.48828125
 10
3198.6171875
 20
-3377.421875
 10
3198.6171875
 20
-3387.35546875
 10
3198.6171875
 20
-3397.2890625
 10
3198.6171875
 20
-3407.22265625
 10
3198.6171875
 20
-3417.15625
 10
3198.6171875
 20
-3427.08984375
 10
3198.6171875
 20
-3437.0234375
 10
3198.6171875
 20
-3446.95703125
 10
3198.6171875
 20
-3456.890625
 10
3198.6171875
 20
-3466.82421875
 10
3198.6171875
 20
-3476.7578125
 10
3198.6171875
 20
-3486.69140625
 10
3198.6171875
 20
-3496.625
 10
3198.6171875
 20
-3506.55859375
 10
3198.6171875
 20
-3516.4921875
 10
3198.6171875
 20
-3526.42578125
 10
3198.6171875
 20
-3536.359375
 10
3198.6171875
 20
-3546.29296875
 10
3198.6171875
 20
-3556.2265625
 10
3198.6171875
 20
-3566.16015625
 10
3198.6171875
 20
-3576.09375
 10
3198.6171875
 20
-3586.02734375
 10
3198.6171875
 20
-3595.9609375
 10
3198.6171875
 20
-3605.89453125
 10
3198.6171875
 20
-3615.828125
 10
3198.6171875
 20
-3625.76171875
 10
3198.6171875
 20
-3635.6953125
 10
3198.6171875
 20
-3645.62890625
 10
3198.6171875
 20
-3655.5625
 10
3198.6171875
 20
-3665.49609375
 10
3198.6171875
 20
-3675.4296875
 10
3198.6171875
 20
-3685.36328125
 10
3198.6171875
 20
-3695.296875
 10
3198.6171875
 20
-3705.23046875
 10
3198.6171875
 20
-3715.1640625
 10
3198.6171875
 20
-3725.09765625
 10
3198.6171875
 20
-3735.03125
 10
3198.6171875
 20
-3744.96484375
 10
3198.6171875
 20
-3754.8984375
 10
3198.6171875
 20
-3764.83203125
 10
3198.6171875
 20
-3774.765625
 10
3198.6171875
 20
-3784.69921875
 10
3198.6171875
 20
-3794.6328125
 10
3198.6171875
 20
-3804.56640625
 10
3198.6171875
 20
-3814.5
 10
3198.6171875
 20
-3824.43359375
 10
3198.6171875
 20
-3834.3671875
 10
3198.6171875
 20
-3844.30078125
 10
3198.6171875
 20
-3854.234375
 10
3198.6171875
 20
-3864.16796875
 10
3198.6171875
 20
-3874.1015625
 10
3198.6171875
 20
-3884.03515625
 10
3198.6171875
 20
-3893.96875
 10
3198.6171875
 20
-3903.90234375
 10
3198.6171875
 20
-3913.8359375
 10
3198.6171875
 20
-3923.76953125
 10
3198.6171875
 20
-3933.703125
 10
3198.6171875
 20
-3943.63671875
 10
3198.6171875
 20
-3953.5703125
 10
3198.6171875
 20
-3963.50390625
 10
3198.6171875
 20
-3973.4375
 10
3198.6171875
 20
-3983.37109375
 10
3198.6171875
 20
-3993.3046875
 10
3198.6171875
 20
-4003.23828125
 10
3198.6171875
 20
-4013.171875
 10
3198.6171875
 20
-4023.10546875
 10
3198.6171875
 20
-4033.0390625
 10
3198.6171875
 20
-4042.97265625
 10
3198.6171875
 20
-4052.90625
 10
3198.6171875
 20
-4062.83984375
 10
3198.6171875
 20
-4072.7734375
 10
3198.6171875
 20
-4082.70703125
 10
3198.6171875
 20
-4092.640625
 10
3198.6171875
 20
-4102.57421875
 10
3198.6171875
 20
-4112.5078125
 10
3198.6171875
 20
-4122.44140625
 10
3198.6171875
 20
-4132.375
 10
3198.6171875
 20
-4142.30859375
 10
3198.6171875
 20
-4152.2421875
 10
3198.6171875
 20
-4162.17578125
 10
3198.6171875
 20
-4172.109375
 10
3198.6171875
 20
-4182.04296875
 10
3198.6171875
 20
-4191.9765625
 10
3198.6171875
 20
-4201.91015625
 10
3188.68359375
 20
-4211.84375
 10
3188.68359375
 20
-4221.77734375
 10
3188.68359375
 20
-4231.7109375
 10
3188.68359375
 20
-4241.64453125
 10
3188.68359375
 20
-4251.578125
 10
3188.68359375
 20
-4261.51171875
 10
3188.68359375
 20
-4271.4453125
 10
3188.68359375
 20
-4281.37890625
 10
3188.68359375
 20
-4291.3125
 10
3188.68359375
 20
-4301.24609375
 10
3188.68359375
 20
-4311.1796875
 10
3188.68359375
 20
-4321.11328125
 10
3188.68359375
 20
-4331.046875
 10
3188.68359375
 20
-4340.98046875
 10
3188.68359375
 20
-4350.9140625
 10
3188.68359375
 20
-4360.84765625
 10
3178.75
 20
-4370.78125
 10
3168.81640625
 20
-4380.71484375
 10
3158.8828125
 20
-4390.6484375
 10
3148.94921875
 20
-4390.6484375
 10
3139.015625
 20
-4390.6484375
 10
3129.08203125
 20
-4380.71484375
 10
3119.1484375
 20
-4380.71484375
 10
3109.21484375
 20
-4380.71484375
 10
3099.28125
 20
-4380.71484375
 10
3089.34765625
 20
-4380.71484375
 10
3079.4140625
 20
-4380.71484375
 10
3069.48046875
 20
-4380.71484375
 10
3059.546875
 20
-4380.71484375
 10
3049.61328125
 20
-4370.78125
 10
3039.6796875
 20
-4370.78125
 10
3029.74609375
 20
-4370.78125
 10
3019.8125
 20
-4370.78125
 10
3009.87890625
 20
-4370.78125
 10
2999.9453125
 20
-4370.78125
 10
2990.01171875
 20
-4370.78125
 10
2980.078125
 20
-4370.78125
 10
2970.14453125
 20
-4370.78125
 10
2960.2109375
 20
-4370.78125
 10
2950.27734375
 20
-4370.78125
 10
2940.34375
 20
-4370.78125
 10
2930.41015625
 20
-4370.78125
 10
2920.4765625
 20
-4370.78125
 10
2910.54296875
 20
-4380.71484375
 10
2900.609375
 20
-4380.71484375
 10
2890.67578125
 20
-4380.71484375
 10
2880.7421875
 20
-4380.71484375
 10
2870.80859375
 20
-4370.78125
 10
2860.875
 20
-4370.78125
 10
2850.94140625
 20
-4370.78125
 10
2841.0078125
 20
-4370.78125
 10
2831.07421875
 20
-4380.71484375
 10
2821.140625
 20
-4380.71484375
 10
2811.20703125
 20
-4380.71484375
 10
2801.2734375
 20
-4380.71484375
 10
2791.33984375
 20
-4380.71484375
 10
2781.40625
 20
-4380.71484375
 10
2771.47265625
 20
-4380.71484375
 10
2761.5390625
 20
-4380.71484375
 10
2751.60546875
 20
-4380.71484375
 10
2741.671875
 20
-4380.71484375
 10
2731.73828125
 20
-4380.71484375
 10
2721.8046875
 20
-4380.71484375
 10
2711.87109375
 20
-4380.71484375
 10
2701.9375
 20
-4380.71484375
 10
2692.00390625
 20
-4380.71484375
 10
2682.0703125
 20
-4380.71484375
 10
2672.13671875
 20
-4380.71484375
 10
2662.203125
 20
-4380.71484375
 10
2652.26953125
 20
-4380.71484375
 10
2642.3359375
 20
-4380.71484375
 10
2632.40234375
 20
-4380.71484375
 10
2622.46875
 20
-4380.71484375
 10
2612.53515625
 20
-4380.71484375
 10
2602.6015625
 20
-4380.71484375
 10
2592.66796875
 20
-4380.71484375
 10
2582.734375
 20
-4380.71484375
 10
2572.80078125
 20
-4380.71484375
 10
2562.8671875
 20
-4380.71484375
 10
2552.93359375
 20
-4380.71484375
 10
2543.0
 20
-4370.78125
 10
2533.06640625
 20
-4370.78125
 10
2523.1328125
 20
-4370.78125
 10
2513.19921875
 20
-4380.71484375
 10
2503.265625
 20
-4370.78125
 10
2493.33203125
 20
-4380.71484375
 10
2483.3984375
 20
-4380.71484375
 10
2473.46484375
 20
-4380.71484375
 10
2463.53125
 20
-4380.71484375
 10
2453.59765625
 20
-4380.71484375
 10
2443.6640625
 20
-4380.71484375
 10
2433.73046875
 20
-4380.71484375
 10
2423.796875
 20
-4380.71484375
 10
2413.86328125
 20
-4380.71484375
 10
2403.9296875
 20
-4380.71484375
 10
2393.99609375
 20
-4380.71484375
 10
2384.0625
 20
-4370.78125
 10
2374.12890625
 20
-4370.78125
 10
2364.1953125
 20
-4380.71484375
 10
2354.26171875
 20
-4380.71484375
 10
2344.328125
 20
-4370.78125
 10
2334.39453125
 20
-4370.78125
 10
2324.4609375
 20
-4370.78125
 10
2314.52734375
 20
-4370.78125
 10
2304.59375
 20
-4370.78125
 10
2294.66015625
 20
-4370.78125
 10
2284.7265625
 20
-4370.78125
 10
2274.79296875
 20
-4380.71484375
 10
2264.859375
 20
-4380.71484375
 10
2254.92578125
 20
-4370.78125
 10
2244.9921875
 20
-4370.78125
 10
2235.05859375
 20
-4370.78125
 10
2225.125
 20
-4370.78125
 10
2215.19140625
 20
-4370.78125
 10
2205.2578125
 20
-4370.78125
 10
2195.32421875
 20
-4370.78125
 10
2185.390625
 20
-4370.78125
 10
2175.45703125
 20
-4370.78125
 10
2165.5234375
 20
-4370.78125
 10
2155.58984375
 20
-4370.78125
 10
2145.65625
 20
-4370.78125
 10
2135.72265625
 20
-4380.71484375
 10
2125.7890625
 20
-4380.71484375
 10
2115.85546875
 20
-4380.71484375
 10
2105.921875
 20
-4380.71484375
 10
2095.98828125
 20
-4380.71484375
 10
2086.0546875
 20
-4380.71484375
 10
2076.12109375
 20
-4380.71484375
 10
2066.1875
 20
-4380.71484375
 10
2056.25390625
 20
-4380.71484375
 10
2046.3203125
 20
-4380.71484375
 10
2036.38671875
 20
-4380.71484375
 10
2026.453125
 20
-4380.71484375
 10
2016.51953125
 20
-4380.71484375
 10
2006.5859375
 20
-4380.71484375
 10
1996.65234375
 20
-4380.71484375
 10
1986.71875
 20
-4380.71484375
 10
1976.78515625
 20
-4390.6484375
 10
1966.8515625
 20
-4390.6484375
 10
1956.91796875
 20
-4390.6484375
 10
1946.984375
 20
-4400.58203125
 10
1937.05078125
 20
-4400.58203125
 10
1927.1171875
 20
-4400.58203125
 10
1917.18359375
 20
-4400.58203125
 10
1907.25
 20
-4400.58203125
 10
1897.31640625
 20
-4390.6484375
 10
1887.3828125
 20
-4380.71484375
 10
1887.3828125
 20
-4370.78125
 10
1877.44921875
 20
-4360.84765625
 10
1877.44921875
 20
-4350.9140625
 10
1877.44921875
 20
-4340.98046875
 10
1887.3828125
 20
-4331.046875
 10
1877.44921875
 20
-4321.11328125
 10
1877.44921875
 20
-4311.1796875
 10
1877.44921875
 20
-4301.24609375
 10
1877.44921875
 20
-4291.3125
 10
1877.44921875
 20
-4281.37890625
 10
1877.44921875
 20
-4271.4453125
 10
1877.44921875
 20
-4261.51171875
 10
1877.44921875
 20
-4251.578125
 10
1877.44921875
 20
-4241.64453125
 10
1877.44921875
 20
-4231.7109375
 10
1877.44921875
 20
-4221.77734375
 10
1877.44921875
 20
-4211.84375
 10
1877.44921875
 20
-4201.91015625
 10
1877.44921875
 20
-4191.9765625
 10
1877.44921875
 20
-4182.04296875
 10
1877.44921875
 20
-4172.109375
 10
1877.44921875
 20
-4162.17578125
 10
1877.44921875
 20
-4152.2421875
 10
1877.44921875
 20
-4142.30859375
 10
1877.44921875
 20
-4132.375
 10
1877.44921875
 20
-4122.44140625
 10
1877.44921875
 20
-4112.5078125
 10
1877.44921875
 20
-4102.57421875
 10
1877.44921875
 20
-4092.640625
 10
1877.44921875
 20
-4082.70703125
 10
1877.44921875
 20
-4072.7734375
 10
1877.44921875
 20
-4062.83984375
 10
1877.44921875
 20
-4052.90625
 10
1867.515625
 20
-4042.97265625
 10
1867.515625
 20
-4033.0390625
 10
1877.44921875
 20
-4023.10546875
 10
1867.515625
 20
-4013.171875
 10
1877.44921875
 20
-4003.23828125
 10
1877.44921875
 20
-3993.3046875
 10
1877.44921875
 20
-3983.37109375
 10
1877.44921875
 20
-3973.4375
 10
1877.44921875
 20
-3963.50390625
 10
1877.44921875
 20
-3953.5703125
 10
1877.44921875
 20
-3943.63671875
 10
1877.44921875
 20
-3933.703125
 10
1877.44921875
 20
-3923.76953125
 10
1877.44921875
 20
-3913.8359375
 10
1877.44921875
 20
-3903.90234375
 10
1877.44921875
 20
-3893.96875
 10
1877.44921875
 20
-3884.03515625
 10
1877.44921875
 20
-3874.1015625
 10
1877.44921875
 20
-3864.16796875
 10
1877.44921875
 20
-3854.234375
 10
1877.44921875
 20
-3844.30078125
 10
1877.44921875
 20
-3834.3671875
 10
1877.44921875
 20
-3824.43359375
 10
1877.44921875
 20
-3814.5
 10
1877.44921875
 20
-3804.56640625
 10
1877.44921875
 20
-3794.6328125
 10
1877.44921875
 20
-3784.69921875
 10
1867.515625
 20
-3774.765625
 10
1877.44921875
 20
-3764.83203125
 10
1877.44921875
 20
-3754.8984375
 10
1877.44921875
 20
-3744.96484375
 10
1867.515625
 20
-3735.03125
 10
1877.44921875
 20
-3725.09765625
 10
1877.44921875
 20
-3715.1640625
 10
1877.44921875
 20
-3705.23046875
 10
1877.44921875
 20
-3695.296875
 10
1877.44921875
 20
-3685.36328125
 10
1877.44921875
 20
-3675.4296875
 10
1877.44921875
 20
-3665.49609375
 10
1877.44921875
 20
-3655.5625
 10
1877.44921875
 20
-3645.62890625
 10
1877.44921875
 20
-3635.6953125
 10
1877.44921875
 20
-3625.76171875
 10
1877.44921875
 20
-3615.828125
 10
1877.44921875
 20
-3605.89453125
 10
1877.44921875
 20
-3595.9609375
 10
1877.44921875
 20
-3586.02734375
 10
1877.44921875
 20
-3576.09375
 10
1877.44921875
 20
-3566.16015625
 10
1877.44921875
 20
-3556.2265625
 10
1877.44921875
 20
-3546.29296875
 10
1877.44921875
 20
-3536.359375
 10
1877.44921875
 20
-3526.42578125
 10
1877.44921875
 20
-3516.4921875
 10
1877.44921875
 20
-3506.55859375
 10
1877.44921875
 20
-3496.625
 10
1877.44921875
 20
-3486.69140625
 10
1877.44921875
 20
-3476.7578125
 10
1877.44921875
 20
-3466.82421875
 10
1877.44921875
 20
-3456.890625
 10
1877.44921875
 20
-3446.95703125
 10
1877.44921875
 20
-3437.0234375
 10
1877.44921875
 20
-3427.08984375
 10
1877.44921875
 20
-3417.15625
 10
1877.44921875
 20
-3407.22265625
 10
1877.44921875
 20
-3397.2890625
 10
1877.44921875
 20
-3387.35546875
 10
1877.44921875
 20
-3377.421875
 10
1877.44921875
 20
-3367.48828125
 10
1877.44921875
 20
-3357.5546875
 10
1877.44921875
 20
-3347.62109375
 10
1877.44921875
 20
-3337.6875
 10
1877.44921875
 20
-3327.75390625
 10
1887.3828125
 20
-3317.8203125
 10
1877.44921875
 20
-3307.88671875
 10
1877.44921875
 20
-3297.953125
 10
1887.3828125
 20
-3288.01953125
 10
1887.3828125
 20
-3278.0859375
 10
1877.44921875
 20
-3268.15234375
 10
1877.44921875
 20
-3258.21875
 10
1877.44921875
 20
-3248.28515625
 10
1877.44921875
 20
-3238.3515625
 10
1877.44921875
 20
-3228.41796875
 10
1887.3828125
 20
-3218.484375
 10
1887.3828125
 20
-3208.55078125
 10
1887.3828125
 20
-3198.6171875
 10
1887.3828125
 20
-3188.68359375
 10
1877.44921875
 20
-3188.68359375
 10
1867.515625
 20
-3188.68359375
 10
1857.58203125
 20
-3188.68359375
 10
1847.6484375
 20
-3198.6171875
 10
1837.71484375
 20
-3198.6171875
 10
1827.78125
 20
-3198.6171875
 10
1817.84765625
 20
-3188.68359375
 10
1807.9140625
 20
-3188.68359375
 10
1797.98046875
 20
-3188.68359375
 10
1788.046875
 20
-3188.68359375
 10
1778.11328125
 20
-3188.68359375
 10
1768.1796875
 20
-3198.6171875
 10
1758.24609375
 20
-3198.6171875
 10
1748.3125
 20
-3198.6171875
 10
1738.37890625
 20
-3198.6171875
 10
1728.4453125
 20
-3188.68359375
 10
1718.51171875
 20
-3188.68359375
 10
1708.578125
 20
-3198.6171875
 10
1698.64453125
 20
-3188.68359375
 10
1688.7109375
 20
-3198.6171875
 10
1678.77734375
 20
-3198.6171875
 10
1668.84375
 20
-3198.6171875
 10
1658.91015625
 20
-3198.6171875
 10
1648.9765625
 20
-3198.6171875
 10
1639.04296875
 20
-3198.6171875
 10
1629.109375
 20
-3198.6171875
 10
1619.17578125
 20
-3198.6171875
 10
1609.2421875
 20
-3198.6171875
 10
1599.30859375
 20
-3198.6171875
 10
1589.375
 20
-3198.6171875
 10
1579.44140625
 20
-3198.6171875
 10
1569.5078125
 20
-3198.6171875
 10
1559.57421875
 20
-3198.6171875
 10
1549.640625
 20
-3198.6171875
 10
1539.70703125
 20
-3198.6171875
 10
1529.7734375
 20
-3198.6171875
 10
1519.83984375
 20
-3198.6171875
 10
1509.90625
 20
-3198.6171875
 10
1499.97265625
 20
-3198.6171875
 10
1490.0390625
 20
-3188.68359375
 10
1480.10546875
 20
-3188.68359375
 10
1470.171875
 20
-3188.68359375
 10
1460.23828125
 20
-3188.68359375
 10
1450.3046875
 20
-3188.68359375
 10
1440.37109375
 20
-3188.68359375
 10
1430.4375
 20
-3198.6171875
 10
1420.50390625
 20
-3198.6171875
 10
1410.5703125
 20
-3198.6171875
 10
1400.63671875
 20
-3198.6171875
 10
1390.703125
 20
-3198.6171875
 10
1380.76953125
 20
-3198.6171875
 10
1370.8359375
 20
-3198.6171875
 10
1360.90234375
 20
-3198.6171875
 10
1350.96875
 20
-3198.6171875
 10
1341.03515625
 20
-3198.6171875
 10
1331.1015625
 20
-3198.6171875
 10
1321.16796875
 20
-3198.6171875
 10
1311.234375
 20
-3198.6171875
 10
1301.30078125
 20
-3198.6171875
 10
1291.3671875
 20
-3198.6171875
 10
1281.43359375
 20
-3198.6171875
 10
1271.5
 20
-3198.6171875
 10
1261.56640625
 20
-3188.68359375
 10
1251.6328125
 20
-3198.6171875
 10
1241.69921875
 20
-3198.6171875
 10
1231.765625
 20
-3198.6171875
 10
1221.83203125
 20
-3198.6171875
 10
1211.8984375
 20
-3198.6171875
 10
1201.96484375
 20
-3198.6171875
 10
1192.03125
 20
-3198.6171875
 10
1182.09765625
 20
-3198.6171875
 10
1172.1640625
 20
-3198.6171875
 10
1162.23046875
 20
-3198.6171875
 10
1152.296875
 20
-3198.6171875
 10
1142.36328125
 20
-3198.6171875
 10
1132.4296875
 20
-3198.6171875
 10
1122.49609375
 20
-3198.6171875
 10
1112.5625
 20
-3198.6171875
 10
1102.62890625
 20
-3198.6171875
 10
1092.6953125
 20
-3198.6171875
 10
1082.76171875
 20
-3198.6171875
 10
1072.828125
 20
-3198.6171875
 10
1062.89453125
 20
-3198.6171875
 10
1052.9609375
 20
-3198.6171875
 10
1043.02734375
 20
-3198.6171875
 10
1033.09375
 20
-3198.6171875
 10
1023.16015625
 20
-3198.6171875
 10
1013.2265625
 20
-3198.6171875
 10
1003.29296875
 20
-3198.6171875
 10
993.359375
 20
-3198.6171875
 10
983.42578125
 20
-3198.6171875
 10
973.4921875
 20
-3198.6171875
 10
963.55859375
 20
-3198.6171875
 10
953.625
 20
-3198.6171875
 10
943.69140625
 20
-3198.6171875
 10
933.7578125
 20
-3198.6171875
 10
923.82421875
 20
-3198.6171875
 10
913.890625
 20
-3198.6171875
 10
903.95703125
 20
-3198.6171875
 10
894.0234375
 20
-3188.68359375
 10
884.08984375
 20
-3188.68359375
 10
874.15625
 20
-3188.68359375
 10
864.22265625
 20
-3188.68359375
 10
854.2890625
 20
-3188.68359375
 10
844.35546875
 20
-3188.68359375
 10
834.421875
 20
-3188.68359375
 10
824.48828125
 20
-3188.68359375
 10
814.5546875
 20
-3188.68359375
 10
804.62109375
 20
-3188.68359375
 10
794.6875
 20
-3188.68359375
 10
784.75390625
 20
-3188.68359375
 10
774.8203125
 20
-3188.68359375
 10
764.88671875
 20
-3188.68359375
 10
754.953125
 20
-3188.68359375
 10
745.01953125
 20
-3188.68359375
 10
735.0859375
 20
-3188.68359375
 10
725.15234375
 20
-3188.68359375
 10
715.21875
 20
-3188.68359375
 10
705.28515625
 20
-3188.68359375
 10
695.3515625
 20
-3188.68359375
 10
685.41796875
 20
-3178.75
 10
685.41796875
 20
-3168.81640625
 10
685.41796875
 20
-3158.8828125
 10
685.41796875
 20
-3148.94921875
 10
685.41796875
 20
-3139.015625
 10
685.41796875
 20
-3129.08203125
 10
685.41796875
 20
-3119.1484375
 10
685.41796875
 20
-3109.21484375
 10
685.41796875
 20
-3099.28125
 10
685.41796875
 20
-3089.34765625
 10
685.41796875
 20
-3079.4140625
 10
685.41796875
 20
-3069.48046875
 10
685.41796875
 20
-3059.546875
 10
685.41796875
 20
-3049.61328125
 10
685.41796875
 20
-3039.6796875
 10
685.41796875
 20
-3029.74609375
 10
685.41796875
 20
-3019.8125
 10
685.41796875
 20
-3009.87890625
 10
685.41796875
 20
-2999.9453125
 10
685.41796875
 20
-2990.01171875
 10
685.41796875
 20
-2980.078125
 10
685.41796875
 20
-2970.14453125
 10
685.41796875
 20
-2960.2109375
 10
685.41796875
 20
-2950.27734375
 10
685.41796875
 20
-2940.34375
 10
685.41796875
 20
-2930.41015625
 10
685.41796875
 20
-2920.4765625
 10
685.41796875
 20
-2910.54296875
 10
685.41796875
 20
-2900.609375
 10
685.41796875
 20
-2890.67578125
 10
685.41796875
 20
-2880.7421875
 10
685.41796875
 20
-2870.80859375
 10
675.484375
 20
-2860.875
 10
675.484375
 20
-2850.94140625
 10
675.484375
 20
-2841.0078125
 10
675.484375
 20
-2831.07421875
 10
675.484375
 20
-2821.140625
 10
675.484375
 20
-2811.20703125
 10
675.484375
 20
-2801.2734375
 10
675.484375
 20
-2791.33984375
 10
675.484375
 20
-2781.40625
 10
675.484375
 20
-2771.47265625
 10
675.484375
 20
-2761.5390625
 10
685.41796875
 20
-2751.60546875
 10
685.41796875
 20
-2741.671875
 10
685.41796875
 20
-2731.73828125
 10
685.41796875
 20
-2721.8046875
 10
675.484375
 20
-2711.87109375
 10
675.484375
 20
-2701.9375
 10
675.484375
 20
-2692.00390625
 10
675.484375
 20
-2682.0703125
 10
675.484375
 20
-2672.13671875
 10
675.484375
 20
-2662.203125
 10
675.484375
 20
-2652.26953125
 10
675.484375
 20
-2642.3359375
 10
675.484375
 20
-2632.40234375
 10
675.484375
 20
-2622.46875
 10
675.484375
 20
-2612.53515625
 10
675.484375
 20
-2602.6015625
 10
675.484375
 20
-2592.66796875
 10
675.484375
 20
-2582.734375
 10
675.484375
 20
-2572.80078125
 10
675.484375
 20
-2562.8671875
 10
675.484375
 20
-2552.93359375
 10
675.484375
 20
-2543.0
 10
675.484375
 20
-2533.06640625
 10
675.484375
 20
-2523.1328125
 10
685.41796875
 20
-2513.19921875
 10
675.484375
 20
-2503.265625
 10
685.41796875
 20
-2493.33203125
 10
685.41796875
 20
-2483.3984375
 10
675.484375
 20
-2473.46484375
 10
675.484375
 20
-2463.53125
 10
675.484375
 20
-2453.59765625
 10
685.41796875
 20
-2443.6640625
 10
685.41796875
 20
-2433.73046875
 10
685.41796875
 20
-2423.796875
 10
685.41796875
 20
-2413.86328125
 10
685.41796875
 20
-2403.9296875
 10
675.484375
 20
-2393.99609375
 10
675.484375
 20
-2384.0625
 10
675.484375
 20
-2374.12890625
 10
675.484375
 20
-2364.1953125
 10
675.484375
 20
-2354.26171875
 10
675.484375
 20
-2344.328125
 10
675.484375
 20
-2334.39453125
 10
675.484375
 20
-2324.4609375
 10
675.484375
 20
-2314.52734375
 10
675.484375
 20
-2304.59375
 10
675.484375
 20
-2294.66015625
 10
675.484375
 20
-2284.7265625
 10
675.484375
 20
-2274.79296875
 10
675.484375
 20
-2264.859375
 10
675.484375
 20
-2254.92578125
 10
675.484375
 20
-2244.9921875
 10
675.484375
 20
-2235.05859375
 10
675.484375
 20
-2225.125
 10
675.484375
 20
-2215.19140625
 10
675.484375
 20
-2205.2578125
 10
675.484375
 20
-2195.32421875
 10
675.484375
 20
-2185.390625
 10
675.484375
 20
-2175.45703125
 10
675.484375
 20
-2165.5234375
 10
675.484375
 20
-2155.58984375
 10
675.484375
 20
-2145.65625
 10
675.484375
 20
-2135.72265625
 10
675.484375
 20
-2125.7890625
 10
675.484375
 20
-2115.85546875
 10
675.484375
 20
-2105.921875
 10
685.41796875
 20
-2095.98828125
 10
675.484375
 20
-2086.0546875
 10
675.484375
 20
-2076.12109375
 10
675.484375
 20
-2066.1875
 10
675.484375
 20
-2056.25390625
 10
675.484375
 20
-2046.3203125
 10
675.484375
 20
-2036.38671875
 10
675.484375
 20
-2026.453125
 10
675.484375
 20
-2016.51953125
 10
675.484375
 20
-2006.5859375
 10
675.484375
 20
-1996.65234375
 10
675.484375
 20
-1986.71875
 10
675.484375
 20
-1976.78515625
 10
675.484375
 20
-1966.8515625
 10
675.484375
 20
-1956.91796875
 10
675.484375
 20
-1946.984375
 10
665.55078125
 20
-1937.05078125
 10
675.484375
 20
-1927.1171875
 10
675.484375
 20
-1917.18359375
 10
675.484375
 20
-1907.25
 10
675.484375
 20
-1897.31640625
 10
685.41796875
 20
-1887.3828125
 10
695.3515625
 20
-1877.44921875
 10
705.28515625
 20
-1877.44921875
 10
715.21875
 20
-1877.44921875
 10
725.15234375
 20
-1877.44921875
 10
735.0859375
 20
-1877.44921875
 10
745.01953125
 20
-1877.44921875
 10
754.953125
 20
-1877.44921875
 10
764.88671875
 20
-1877.44921875
 10
774.8203125
 20
-1877.44921875
 10
784.75390625
 20
-1877.44921875
 10
794.6875
 20
-1877.44921875
 10
804.62109375
 20
-1877.44921875
 10
814.5546875
 20
-1877.44921875
 10
824.48828125
 20
-1877.44921875
 10
834.421875
 20
-1877.44921875
 10
844.35546875
 20
-1877.44921875
 10
854.2890625
 20
-1877.44921875
 10
864.22265625
 20
-1877.44921875
 10
874.15625
 20
-1877.44921875
 10
884.08984375
 20
-1877.44921875
 10
894.0234375
 20
-1877.44921875
 10
903.95703125
 20
-1877.44921875
 10
913.890625
 20
-1877.44921875
 10
923.82421875
 20
-1877.44921875
 10
933.7578125
 20
-1877.44921875
 10
943.69140625
 20
-1877.44921875
 10
953.625
 20
-1877.44921875
 10
963.55859375
 20
-1877.44921875
 10
973.4921875
 20
-1877.44921875
 10
983.42578125
 20
-1877.44921875
 10
993.359375
 20
-1877.44921875
 10
1003.29296875
 20
-1877.44921875
 10
1013.2265625
 20
-1877.44921875
 10
1023.16015625
 20
-1877.44921875
 10
1033.09375
 20
-1877.44921875
 10
1043.02734375
 20
-1877.44921875
 10
1052.9609375
 20
-1877.44921875
 10
1062.89453125
 20
-1877.44921875
 10
1072.828125
 20
-1877.44921875
 10
1082.76171875
 20
-1877.44921875
 10
1092.6953125
 20
-1877.44921875
 10
1102.62890625
 20
-1877.44921875
 10
1112.5625
 20
-1877.44921875
 10
1122.49609375
 20
-1877.44921875
 10
1132.4296875
 20
-1877.44921875
 10
1142.36328125
 20
-1877.44921875
 10
1152.296875
 20
-1877.44921875
 10
1162.23046875
 20
-1877.44921875
 10
1172.1640625
 20
-1877.44921875
 10
1182.09765625
 20
-1877.44921875
 10
1192.03125
 20
-1877.44921875
 10
1201.96484375
 20
-1877.44921875
 10
1211.8984375
 20
-1877.44921875
 10
1221.83203125
 20
-1877.44921875
 10
1231.765625
 20
-1877.44921875
 10
1241.69921875
 20
-1877.44921875
 10
1251.6328125
 20
-1877.44921875
 10
1261.56640625
 20
-1877.44921875
 10
1271.5
 20
-1877.44921875
 10
1281.43359375
 20
-1877.44921875
 10
1291.3671875
 20
-1877.44921875
 10
1301.30078125
 20
-1877.44921875
 10
1311.234375
 20
-1877.44921875
 10
1321.16796875
 20
-1877.44921875
 10
1331.1015625
 20
-1877.44921875
 10
1341.03515625
 20
-1877.44921875
 10
1350.96875
 20
-1877.44921875
 10
1360.90234375
 20
-1877.44921875
 10
1370.8359375
 20
-1877.44921875
 10
1380.76953125
 20
-1877.44921875
 10
1390.703125
 20
-1877.44921875
 10
1400.63671875
 20
-1877.44921875
 10
1410.5703125
 20
-1877.44921875
 10
1420.50390625
 20
-1877.44921875
 10
1430.4375
 20
-1877.44921875
 10
1440.37109375
 20
-1877.44921875
 10
1450.3046875
 20
-1877.44921875
 10
1460.23828125
 20
-1877.44921875
 10
1470.171875
 20
-1877.44921875
 10
1480.10546875
 20
-1877.44921875
 10
1490.0390625
 20
-1877.44921875
 10
1499.97265625
 20
-1877.44921875
 10
1509.90625
 20
-1877.44921875
 10
1519.83984375
 20
-1877.44921875
 10
1529.7734375
 20
-1877.44921875
 10
1539.70703125
 20
-1877.44921875
 10
1549.640625
 20
-1877.44921875
 10
1559.57421875
 20
-1877.44921875
 10
1569.5078125
 20
-1877.44921875
 10
1579.44140625
 20
-1877.44921875
 10
1589.375
 20
-1877.44921875
 10
1599.30859375
 20
-1877.44921875
 10
1609.2421875
 20
-1877.44921875
 10
1619.17578125
 20
-1877.44921875
 10
1629.109375
 20
-1877.44921875
 10
1639.04296875
 20
-1877.44921875
 10
1648.9765625
 20
-1877.44921875
 10
1658.91015625
 20
-1877.44921875
 10
1668.84375
 20
-1877.44921875
 10
1678.77734375
 20
-1877.44921875
 10
1688.7109375
 20
-1877.44921875
 10
1698.64453125
 20
-1877.44921875
 10
1708.578125
 20
-1877.44921875
 10
1718.51171875
 20
-1877.44921875
 10
1728.4453125
 20
-1877.44921875
 10
1738.37890625
 20
-1877.44921875
 10
1748.3125
 20
-1877.44921875
 10
1758.24609375
 20
-1877.44921875
 10
1768.1796875
 20
-1877.44921875
 10
1778.11328125
 20
-1877.44921875
 10
1788.046875
 20
-1877.44921875
 10
1797.98046875
 20
-1877.44921875
 10
1807.9140625
 20
-1877.44921875
 10
1817.84765625
 20
-1877.44921875
 10
1827.78125
 20
-1877.44921875
 10
1837.71484375
 20
-1877.44921875
 10
1847.6484375
 20
-1877.44921875
 10
1857.58203125
 20
-1877.44921875
 10
1867.515625
 20
-1877.44921875
 10
1877.44921875
 20
-1877.44921875
 10
1877.44921875
 20
-1867.515625
 10
1877.44921875
 20
-1857.58203125
 10
1877.44921875
 20
-1847.6484375
 10
1877.44921875
 20
-1837.71484375
 10
1877.44921875
 20
-1827.78125
 10
1877.44921875
 20
-1817.84765625
 10
1877.44921875
 20
-1807.9140625
 10
1877.44921875
 20
-1797.98046875
 10
1877.44921875
 20
-1788.046875
 10
1877.44921875
 20
-1778.11328125
 10
1877.44921875
 20
-1768.1796875
 10
1877.44921875
 20
-1758.24609375
 10
1877.44921875
 20
-1748.3125
 10
1877.44921875
 20
-1738.37890625
 10
1877.44921875
 20
-1728.4453125
 10
1877.44921875
 20
-1718.51171875
 10
1867.515625
 20
-1708.578125
 10
1867.515625
 20
-1698.64453125
 10
1877.44921875
 20
-1688.7109375
 10
1877.44921875
 20
-1678.77734375
 10
1867.515625
 20
-1668.84375
 10
1867.515625
 20
-1658.91015625
 10
1877.44921875
 20
-1648.9765625
 10
1877.44921875
 20
-1639.04296875
 10
1877.44921875
 20
-1629.109375
 10
1877.44921875
 20
-1619.17578125
 10
1877.44921875
 20
-1609.2421875
 10
1877.44921875
 20
-1599.30859375
 10
1877.44921875
 20
-1589.375
 10
1877.44921875
 20
-1579.44140625
 10
1877.44921875
 20
-1569.5078125
 10
1877.44921875
 20
-1559.57421875
 10
1877.44921875
 20
-1549.640625
 10
1877.44921875
 20
-1539.70703125
 10
1877.44921875
 20
-1529.7734375
 10
1877.44921875
 20
-1519.83984375
 10
1877.44921875
 20
-1509.90625
 10
1877.44921875
 20
-1499.97265625
 10
1877.44921875
 20
-1490.0390625
 10
1877.44921875
 20
-1480.10546875
 10
1877.44921875
 20
-1470.171875
 10
1877.44921875
 20
-1460.23828125
 10
1887.3828125
 20
-1450.3046875
 10
1877.44921875
 20
-1440.37109375
 10
1877.44921875
 20
-1430.4375
 10
1877.44921875
 20
-1420.50390625
 10
1877.44921875
 20
-1410.5703125
 10
1877.44921875
 20
-1400.63671875
 10
1877.44921875
 20
-1390.703125
 10
1877.44921875
 20
-1380.76953125
 10
1887.3828125
 20
-1370.8359375
 10
1877.44921875
 20
-1360.90234375
 10
1877.44921875
 20
-1350.96875
 10
1877.44921875
 20
-1341.03515625
 10
1877.44921875
 20
-1331.1015625
 10
1877.44921875
 20
-1321.16796875
 10
1877.44921875
 20
-1311.234375
 10
1877.44921875
 20
-1301.30078125
 10
1877.44921875
 20
-1291.3671875
 10
1877.44921875
 20
-1281.43359375
 10
1877.44921875
 20
-1271.5
 10
1877.44921875
 20
-1261.56640625
 10
1877.44921875
 20
-1251.6328125
 10
1877.44921875
 20
-1241.69921875
 10
1877.44921875
 20
-1231.765625
 10
1877.44921875
 20
-1221.83203125
 10
1877.44921875
 20
-1211.8984375
 10
1877.44921875
 20
-1201.96484375
 10
1877.44921875
 20
-1192.03125
 10
1877.44921875
 20
-1182.09765625
 10
1877.44921875
 20
-1172.1640625
 10
1877.44921875
 20
-1162.23046875
 10
1877.44921875
 20
-1152.296875
 10
1877.44921875
 20
-1142.36328125
 10
1887.3828125
 20
-1132.4296875
 10
1877.44921875
 20
-1122.49609375
 10
1877.44921875
 20
-1112.5625
 10
1877.44921875
 20
-1102.62890625
 10
1877.44921875
 20
-1092.6953125
 10
1877.44921875
 20
-1082.76171875
 10
1877.44921875
 20
-1072.828125
 10
1877.44921875
 20
-1062.89453125
 10
1877.44921875
 20
-1052.9609375
 10
1877.44921875
 20
-1043.02734375
 10
1877.44921875
 20
-1033.09375
 10
1877.44921875
 20
-1023.16015625
 10
1877.44921875
 20
-1013.2265625
 10
1877.44921875
 20
-1003.29296875
 10
1877.44921875
 20
-993.359375
 10
1877.44921875
 20
-983.42578125
 10
1887.3828125
 20
-973.4921875
 10
1877.44921875
 20
-963.55859375
 10
1877.44921875
 20
-953.625
 10
1877.44921875
 20
-943.69140625
 10
1877.44921875
 20
-933.7578125
 10
1877.44921875
 20
-923.82421875
 10
1877.44921875
 20
-913.890625
 10
1877.44921875
 20
-903.95703125
 10
1887.3828125
 20
-894.0234375
 10
1887.3828125
 20
-884.08984375
 10
1887.3828125
 20
-874.15625
 10
1887.3828125
 20
-864.22265625
 10
1887.3828125
 20
-854.2890625
 10
1877.44921875
 20
-844.35546875
 10
1877.44921875
 20
-834.421875
 10
1877.44921875
 20
-824.48828125
 10
1877.44921875
 20
-814.5546875
 10
1877.44921875
 20
-804.62109375
 10
1877.44921875
 20
-794.6875
 10
1877.44921875
 20
-784.75390625
 10
1877.44921875
 20
-774.8203125
 10
1877.44921875
 20
-764.88671875
 10
1877.44921875
 20
-754.953125
 10
1877.44921875
 20
-745.01953125
 10
1877.44921875
 20
-735.0859375
 10
1867.515625
 20
-725.15234375
 10
1867.515625
 20
-715.21875
 10
1857.58203125
 20
-705.28515625
 10
1857.58203125
 20
-695.3515625
 10
1857.58203125
 20
-685.41796875
 10
1857.58203125
 20
-675.484375
 10
1867.515625
 20
-665.55078125
 10
1877.44921875
 20
-665.55078125
  0
LWPOLYLINE
  5
6F
330
17
100
AcDbEntity
  8
substrate
100
AcDbPolyline
 90
2
 70
1
 43
0.5
 10
2980.078125
 20
-3774.765625
 10
2990.01171875
 20
-3774.765625
  0
LWPOLYLINE
  5
70
330
17
100
AcDbEntity
  8
substrate
100
AcDbPolyline
 90
4
 70
1
 43
0.5
 10
2980.078125
 20
-3735.03125
 10
2990.01171875
 20
-3735.03125
 10
2999.9453125
 20
-3735.03125
 10
2990.01171875
 20
-3735.03125
  0
LWPOLYLINE
  5
71
330
17
100
AcDbEntity
  8
substrate
100
AcDbPolyline
 90
6
 70
1
 43
0.5
 10
2006.5859375
 20
-3288.01953125
 10
2006.5859375
 20
-3297.953125
 10
2006.5859375
 20
-3307.88671875
 10
2016.51953125
 20
-3307.88671875
 10
2026.453125
 20
-3297.953125
 10
2016.51953125
 20
-3297.953125
  0
LWPOLYLINE
  5
72
330
17
100
AcDbEntity
  8
substrate
100
AcDbPolyline
 90
1
 70
1
 43
0.5
 10
3963.50390625
 20
-2453.59765625
  0
LWPOLYLINE
  5
73
330
17
100
AcDbEntity
  8
substrate
100
AcDbPolyline
 90
17
 70
1
 43
0.5
 10
3993.3046875
 20
-2413.86328125
 10
3983.37109375
 20
-2423.796875
 10
3973.4375
 20
-2423.796875
 10
3963.50390625
 20
-2423.796875
 10
3973.4375
 20
-2433.73046875
 10
3983.37109375
 20
-2433.73046875
 10
3993.3046875
 20
-2443.6640625
 10
3993.3046875
 20
-2453.59765625
 10
3993.3046875
 20
-2463.53125
 10
4003.23828125
 20
-2463.53125
 10
4003.23828125
 20
-2453.59765625
 10
3993.3046875
 20
-2443.6640625
 10
4003.23828125
 20
-2433.73046875
 10
4013.171875
 20
-2433.73046875
 10
4023.10546875
 20
-2423.796875
 10
4013.171875
 20
-2423.796875
 10
4003.23828125
 20
-2423.796875
  0
LWPOLYLINE
  5
74
330
17
100
AcDbEntity
  8
substrate
100
AcDbPolyline
 90
2
 70
1
 43
0.5
 10
3317.8203125
 20
-2145.65625
 10
3327.75390625
 20
-2145.65625
  0
LWPOLYLINE
  5
75
330
17
100
AcDbEntity
  8
substrate
100
AcDbPolyline
 90
4
 70
1
 43
0.5
 10
3963.50390625
 20
-2135.72265625
 10
3953.5703125
 20
-2145.65625
 10
3963.50390625
 20
-2145.65625
 10
3973.4375
 20
-2145.65625
  0
LWPOLYLINE
  5
76
330
17
100
AcDbEntity
  8
substrate
100
AcDbPolyline
 90
1
 70
1
 43
0.5
 10
3963.50390625
 20
-2105.921875
  0
LWPOLYLINE
  5
77
330
17
100
AcDbEntity
  8
substrate
100
AcDbPolyline
 90
2
 70
1
 43
0.5
 10
2880.7421875
 20
-1062.89453125
 10
2880.7421875
 20
-1072.828125
  0
LWPOLYLINE
  5
78
330
17
100
AcDbEntity
  8
substrate
100
AcDbPolyline
 90
2
 70
1
 43
0.5
 10
2692.00390625
 20
-874.15625
 10
2701.9375
 20
-874.15625
  0
ENDSEC
  0
SECTION
  2
OBJECTS
  0
DICTIONARY
  5
A
330
0
100
AcDbDictionary
280
0
281
1
  3
ACAD_COLOR
350
B
  3
ACAD_GROUP
350
C
  3
ACAD_LAYOUT
350
D
  3
ACAD_MATERIAL
350
E
  3
ACAD_MLEADERSTYLE
350
F
  3
ACAD_MLINESTYLE
350
10
  3
ACAD_PLOTSETTINGS
350
11
  3
ACAD_PLOTSTYLENAME
350
12
  3
ACAD_SCALELIST
350
14
  3
ACAD_TABLESTYLE
350
15
  3
ACAD_VISUALSTYLE
350
16
  3
EZDXF_META
350
2D
  0
DICTIONARY
  5
B
330
A
100
AcDbDictionary
280
0
281
1
  0
DICTIONARY
  5
C
330
A
100
AcDbDictionary
280
0
281
1
  0
DICTIONARY
  5
D
330
A
100
AcDbDictionary
280
0
281
1
  3
Model
350
1A
  3
Layout1
350
1E
  0
DICTIONARY
  5
E
330
A
100
AcDbDictionary
280
0
281
1
  3
ByBlock
350
1F
  3
ByLayer
350
20
  3
Global
350
21
  0
DICTIONARY
  5
F
330
A
100
AcDbDictionary
280
0
281
1
  3
Standard
350
2C
  0
DICTIONARY
  5
10
330
A
100
AcDbDictionary
280
0
281
1
  3
Standard
350
22
  0
DICTIONARY
  5
11
330
A
100
AcDbDictionary
280
0
281
1
  0
ACDBDICTIONARYWDFLT
  5
12
330
A
100
AcDbDictionary
280
0
281
1
  3
Normal
350
13
100
AcDbDictionaryWithDefault
340
13
  0
ACDBPLACEHOLDER
  5
13
330
12
  0
DICTIONARY
  5
14
330
A
100
AcDbDictionary
280
0
281
1
  0
DICTIONARY
  5
15
330
A
100
AcDbDictionary
280
0
281
1
  0
DICTIONARY
  5
16
330
A
100
AcDbDictionary
280
0
281
1
  0
LAYOUT
  5
1A
330
D
100
AcDbPlotSettings
  1

  2
Adobe PDF
  4
A3
  6

 40
7.5
 41
20.0
 42
7.5
 43
20.0
 44
420.0
 45
297.0
 46
0.0
 47
0.0
 48
0.0
 49
0.0
140
0.0
141
0.0
142
1.0
143
1.0
 70
1024
 72
1
 73
0
 74
5
  7

 75
16
 76
0
 77
2
 78
300
147
1.0
148
0.0
149
0.0
100
AcDbLayout
  1
Model
 70
1
 71
0
 10
0.0
 20
0.0
 11
420.0
 21
297.0
 12
0.0
 22
0.0
 32
0.0
 14
1e+20
 24
1e+20
 34
1e+20
 15
-1e+20
 25
-1e+20
 35
-1e+20
146
0.0
 13
0.0
 23
0.0
 33
0.0
 16
1.0
 26
0.0
 36
0.0
 17
0.0
 27
1.0
 37
0.0
 76
1
330
17
  0
LAYOUT
  5
1E
330
D
100
AcDbPlotSettings
  1

  2
Adobe PDF
  4
A3
  6

 40
7.5
 41
20.0
 42
7.5
 43
20.0
 44
420.0
 45
297.0
 46
0.0
 47
0.0
 48
0.0
 49
0.0
140
0.0
141
0.0
142
1.0
143
1.0
 70
0
 72
1
 73
0
 74
5
  7

 75
16
 76
0
 77
2
 78
300
147
1.0
148
0.0
149
0.0
100
AcDbLayout
  1
Layout1
 70
1
 71
1
 10
0.0
 20
0.0
 11
420.0
 21
297.0
 12
0.0
 22
0.0
 32
0.0
 14
1e+20
 24
1e+20
 34
1e+20
 15
-1e+20
 25
-1e+20
 35
-1e+20
146
0.0
 13
0.0
 23
0.0
 33
0.0
 16
1.0
 26
0.0
 36
0.0
 17
0.0
 27
1.0
 37
0.0
 76
1
330
1B
  0
MATERIAL
  5
1F
102
{ACAD_REACTORS
330
E
102
}
330
E
100
AcDbMaterial
  1
ByBlock
  2

 70
0
 40
1.0
 71
1
 41
1.0
 91
-1023410177
 42
1.0
 72
1
  3

 73
1
 74
1
 75
1
 44
0.5
 73
0
 45
1.0
 46
1.0
 77
1
  4

 78
1
 79
1
170
1
 48
1.0
171
1
  6

172
1
173
1
174
1
140
1.0
141
1.0
175
1
  7

176
1
177
1
178
1
143
1.0
179
1
  8

270
1
271
1
272
1
145
1.0
146
1.0
273
1
  9

274
1
275
1
276
1
 42
1.0
 72
1
  3

 73
1
 74
1
 75
1
 94
63
  0
MATERIAL
  5
20
102
{ACAD_REACTORS
330
E
102
}
330
E
100
AcDbMaterial
  1
ByLayer
  2

 70
0
 40
1.0
 71
1
 41
1.0
 91
-1023410177
 42
1.0
 72
1
  3

 73
1
 74
1
 75
1
 44
0.5
 73
0
 45
1.0
 46
1.0
 77
1
  4

 78
1
 79
1
170
1
 48
1.0
171
1
  6

172
1
173
1
174
1
140
1.0
141
1.0
175
1
  7

176
1
177
1
178
1
143
1.0
179
1
  8

270
1
271
1
272
1
145
1.0
146
1.0
273
1
  9

274
1
275
1
276
1
 42
1.0
 72
1
  3

 73
1
 74
1
 75
1
 94
63
  0
MATERIAL
  5
21
102
{ACAD_REACTORS
330
E
102
}
330
E
100
AcDbMaterial
  1
Global
  2

 70
0
 40
1.0
 71
1
 41
1.0
 91
-1023410177
 42
1.0
 72
1
  3

 73
1
 74
1
 75
1
 44
0.5
 73
0
 45
1.0
 46
1.0
 77
1
  4

 78
1
 79
1
170
1
 48
1.0
171
1
  6

172
1
173
1
174
1
140
1.0
141
1.0
175
1
  7

176
1
177
1
178
1
143
1.0
179
1
  8

270
1
271
1
272
1
145
1.0
146
1.0
273
1
  9

274
1
275
1
276
1
 42
1.0
 72
1
  3

 73
1
 74
1
 75
1
 94
63
  0
MLINESTYLE
  5
22
102
{ACAD_REACTORS
330
10
102
}
330
10
100
AcDbMlineStyle
  2
Standard
 70
0
  3

 62
256
 51
90.0
 52
90.0
 71
2
 49
0.5
 62
256
  6
BYLAYER
 49
-0.5
 62
256
  6
BYLAYER
  0
MLEADERSTYLE
  5
2C
102
{ACAD_REACTORS
330
F
102
}
330
F
100
AcDbMLeaderStyle
179
2
170
2
171
1
172
0
 90
2
 40
0.0
 41
0.0
173
1
 91
-1056964608
 92
-2
290
1
 42
2.0
291
1
 43
8.0
  3
Standard
 44
4.0
300

342
29
174
1
175
1
176
0
178
1
 93
-1056964608
 45
4.0
292
0
297
0
 46
4.0
 94
-1056964608
 47
1.0
 49
1.0
140
1.0
294
1
141
0.0
177
0
142
1.0
295
0
296
0
143
3.75
271
0
272
9
273
9
  0
DICTIONARY
  5
2D
330
A
100
AcDbDictionary
281
1
  3
CREATED_BY_EZDXF
350
2E
  3
WRITTEN_BY_EZDXF
350
7B
  0
DICTIONARYVAR
  5
2E
330
2D
100
DictionaryVariables
280
0
  1
1.1.0 @ 2024-12-31T14:38:05.422120+00:00
  0
DICTIONARYVAR
  5
7B
330
2D
100
DictionaryVariables
280
0
  1
1.1.0 @ 2024-12-31T14:38:05.432795+00:00
  0
ENDSEC
  0
EOF
