  0
SECTION
  2
HEADER
  9
$ACADVER
  1
AC1027
  9
$ACADMAINTVER
 70
105
  9
$DWGCODEPAGE
  3
ANSI_1252
  9
$LASTSAVEDBY
  1
ezdxf
  9
$REQUIREDVERSIONS
160
0
  9
$INSBASE
 10
0.0
 20
0.0
 30
0.0
  9
$EXTMIN
 10
1e+20
 20
1e+20
 30
1e+20
  9
$EXTMAX
 10
-1e+20
 20
-1e+20
 30
-1e+20
  9
$LIMMIN
 10
0.0
 20
0.0
  9
$LIMMAX
 10
420.0
 20
297.0
  9
$ORTHOMODE
 70
0
  9
$REGENMODE
 70
1
  9
$FILLMODE
 70
1
  9
$QTEXTMODE
 70
0
  9
$MIRRTEXT
 70
1
  9
$LTSCALE
 40
1.0
  9
$ATTMODE
 70
1
  9
$TEXTSIZE
 40
2.5
  9
$TRACEWID
 40
1.0
  9
$TEXTSTYLE
  7
Standard
  9
$CLAYER
  8
0
  9
$CELTYPE
  6
ByLayer
  9
$CECOLOR
 62
256
  9
$CELTSCALE
 40
1.0
  9
$DISPSILH
 70
0
  9
$DIMSCALE
 40
1.0
  9
$DIMASZ
 40
2.5
  9
$DIMEXO
 40
0.625
  9
$DIMDLI
 40
3.75
  9
$DIMRND
 40
0.0
  9
$DIMDLE
 40
0.0
  9
$DIMEXE
 40
1.25
  9
$DIMTP
 40
0.0
  9
$DIMTM
 40
0.0
  9
$DIMTXT
 40
2.5
  9
$DIMCEN
 40
2.5
  9
$DIMTSZ
 40
0.0
  9
$DIMTOL
 70
0
  9
$DIMLIM
 70
0
  9
$DIMTIH
 70
0
  9
$DIMTOH
 70
0
  9
$DIMSE1
 70
0
  9
$DIMSE2
 70
0
  9
$DIMTAD
 70
1
  9
$DIMZIN
 70
8
  9
$DIMBLK
  1

  9
$DIMASO
 70
1
  9
$DIMSHO
 70
1
  9
$DIMPOST
  1

  9
$DIMAPOST
  1

  9
$DIMALT
 70
0
  9
$DIMALTD
 70
3
  9
$DIMALTF
 40
0.03937007874
  9
$DIMLFAC
 40
1.0
  9
$DIMTOFL
 70
1
  9
$DIMTVP
 40
0.0
  9
$DIMTIX
 70
0
  9
$DIMSOXD
 70
0
  9
$DIMSAH
 70
0
  9
$DIMBLK1
  1

  9
$DIMBLK2
  1

  9
$DIMSTYLE
  2
ISO-25
  9
$DIMCLRD
 70
0
  9
$DIMCLRE
 70
0
  9
$DIMCLRT
 70
0
  9
$DIMTFAC
 40
1.0
  9
$DIMGAP
 40
0.625
  9
$DIMJUST
 70
0
  9
$DIMSD1
 70
0
  9
$DIMSD2
 70
0
  9
$DIMTOLJ
 70
0
  9
$DIMTZIN
 70
8
  9
$DIMALTZ
 70
0
  9
$DIMALTTZ
 70
0
  9
$DIMUPT
 70
0
  9
$DIMDEC
 70
2
  9
$DIMTDEC
 70
2
  9
$DIMALTU
 70
2
  9
$DIMALTTD
 70
3
  9
$DIMTXSTY
  7
Standard
  9
$DIMAUNIT
 70
0
  9
$DIMADEC
 70
0
  9
$DIMALTRND
 40
0.0
  9
$DIMAZIN
 70
0
  9
$DIMDSEP
 70
44
  9
$DIMATFIT
 70
3
  9
$DIMFRAC
 70
0
  9
$DIMLDRBLK
  1

  9
$DIMLUNIT
 70
2
  9
$DIMLWD
 70
-2
  9
$DIMLWE
 70
-2
  9
$DIMTMOVE
 70
0
  9
$DIMFXL
 40
1.0
  9
$DIMFXLON
 70
0
  9
$DIMJOGANG
 40
0.785398163397
  9
$DIMTFILL
 70
0
  9
$DIMTFILLCLR
 70
0
  9
$DIMARCSYM
 70
0
  9
$DIMLTYPE
  6

  9
$DIMLTEX1
  6

  9
$DIMLTEX2
  6

  9
$DIMTXTDIRECTION
 70
0
  9
$LUNITS
 70
2
  9
$LUPREC
 70
4
  9
$SKETCHINC
 40
1.0
  9
$FILLETRAD
 40
10.0
  9
$AUNITS
 70
0
  9
$AUPREC
 70
2
  9
$MENU
  1
.
  9
$ELEVATION
 40
0.0
  9
$PELEVATION
 40
0.0
  9
$THICKNESS
 40
0.0
  9
$LIMCHECK
 70
0
  9
$CHAMFERA
 40
0.0
  9
$CHAMFERB
 40
0.0
  9
$CHAMFERC
 40
0.0
  9
$CHAMFERD
 40
0.0
  9
$SKPOLY
 70
0
  9
$TDCREATE
 40
2460738.3673148146
  9
$TDUCREATE
 40
2458532.153996898
  9
$TDUPDATE
 40
2460738.3673148146
  9
$TDUUPDATE
 40
2458532.1544311
  9
$TDINDWG
 40
0.0
  9
$TDUSRTIMER
 40
0.0
  9
$USRTIMER
 70
1
  9
$ANGBASE
 50
0.0
  9
$ANGDIR
 70
0
  9
$PDMODE
 70
0
  9
$PDSIZE
 40
0.0
  9
$PLINEWID
 40
0.0
  9
$SPLFRAME
 70
0
  9
$SPLINETYPE
 70
6
  9
$SPLINESEGS
 70
8
  9
$HANDSEED
  5
4B
  9
$SURFTAB1
 70
6
  9
$SURFTAB2
 70
6
  9
$SURFTYPE
 70
6
  9
$SURFU
 70
6
  9
$SURFV
 70
6
  9
$UCSBASE
  2

  9
$UCSNAME
  2

  9
$UCSORG
 10
0.0
 20
0.0
 30
0.0
  9
$UCSXDIR
 10
1.0
 20
0.0
 30
0.0
  9
$UCSYDIR
 10
0.0
 20
1.0
 30
0.0
  9
$UCSORTHOREF
  2

  9
$UCSORTHOVIEW
 70
0
  9
$UCSORGTOP
 10
0.0
 20
0.0
 30
0.0
  9
$UCSORGBOTTOM
 10
0.0
 20
0.0
 30
0.0
  9
$UCSORGLEFT
 10
0.0
 20
0.0
 30
0.0
  9
$UCSORGRIGHT
 10
0.0
 20
0.0
 30
0.0
  9
$UCSORGFRONT
 10
0.0
 20
0.0
 30
0.0
  9
$UCSORGBACK
 10
0.0
 20
0.0
 30
0.0
  9
$PUCSBASE
  2

  9
$PUCSNAME
  2

  9
$PUCSORG
 10
0.0
 20
0.0
 30
0.0
  9
$PUCSXDIR
 10
1.0
 20
0.0
 30
0.0
  9
$PUCSYDIR
 10
0.0
 20
1.0
 30
0.0
  9
$PUCSORTHOREF
  2

  9
$PUCSORTHOVIEW
 70
0
  9
$PUCSORGTOP
 10
0.0
 20
0.0
 30
0.0
  9
$PUCSORGBOTTOM
 10
0.0
 20
0.0
 30
0.0
  9
$PUCSORGLEFT
 10
0.0
 20
0.0
 30
0.0
  9
$PUCSORGRIGHT
 10
0.0
 20
0.0
 30
0.0
  9
$PUCSORGFRONT
 10
0.0
 20
0.0
 30
0.0
  9
$PUCSORGBACK
 10
0.0
 20
0.0
 30
0.0
  9
$USERI1
 70
0
  9
$USERI2
 70
0
  9
$USERI3
 70
0
  9
$USERI4
 70
0
  9
$USERI5
 70
0
  9
$USERR1
 40
0.0
  9
$USERR2
 40
0.0
  9
$USERR3
 40
0.0
  9
$USERR4
 40
0.0
  9
$USERR5
 40
0.0
  9
$WORLDVIEW
 70
1
  9
$SHADEDGE
 70
3
  9
$SHADEDIF
 70
70
  9
$TILEMODE
 70
1
  9
$MAXACTVP
 70
64
  9
$PINSBASE
 10
0.0
 20
0.0
 30
0.0
  9
$PLIMCHECK
 70
0
  9
$PEXTMIN
 10
1e+20
 20
1e+20
 30
1e+20
  9
$PEXTMAX
 10
-1e+20
 20
-1e+20
 30
-1e+20
  9
$PLIMMIN
 10
0.0
 20
0.0
  9
$PLIMMAX
 10
420.0
 20
297.0
  9
$UNITMODE
 70
0
  9
$VISRETAIN
 70
1
  9
$PLINEGEN
 70
0
  9
$PSLTSCALE
 70
1
  9
$TREEDEPTH
 70
3020
  9
$CMLSTYLE
  2
Standard
  9
$CMLJUST
 70
0
  9
$CMLSCALE
 40
20.0
  9
$PROXYGRAPHICS
 70
1
  9
$MEASUREMENT
 70
1
  9
$CELWEIGHT
370
-1
  9
$ENDCAPS
280
0
  9
$JOINSTYLE
280
0
  9
$LWDISPLAY
290
0
  9
$INSUNITS
 70
6
  9
$HYPERLINKBASE
  1

  9
$STYLESHEET
  1

  9
$XEDIT
290
1
  9
$CEPSNTYPE
380
0
  9
$PSTYLEMODE
290
1
  9
$FINGERPRINTGUID
  2
{EA1B16FC-4084-4960-83A6-A85F089681D5}
  9
$VERSIONGUID
  2
{21C27D61-9C5B-4CA6-AE31-58F3EA2B3435}
  9
$EXTNAMES
290
1
  9
$PSVPSCALE
 40
0.0
  9
$OLESTARTUP
290
0
  9
$SORTENTS
280
127
  9
$INDEXCTL
280
0
  9
$HIDETEXT
280
1
  9
$XCLIPFRAME
280
0
  9
$HALOGAP
280
0
  9
$OBSCOLOR
 70
257
  9
$OBSLTYPE
280
0
  9
$INTERSECTIONDISPLAY
280
0
  9
$INTERSECTIONCOLOR
 70
257
  9
$DIMASSOC
280
2
  9
$PROJECTNAME
  1

  9
$CAMERADISPLAY
290
0
  9
$LENSLENGTH
 40
50.0
  9
$CAMERAHEIGHT
 40
0.0
  9
$STEPSPERSEC
 40
24.0
  9
$STEPSIZE
 40
100.0
  9
$3DDWFPREC
 40
2.0
  9
$PSOLWIDTH
 40
0.005
  9
$PSOLHEIGHT
 40
0.08
  9
$LOFTANG1
 40
1.570796326795
  9
$LOFTANG2
 40
1.570796326795
  9
$LOFTMAG1
 40
0.0
  9
$LOFTMAG2
 40
0.0
  9
$LOFTPARAM
 70
7
  9
$LOFTNORMALS
280
1
  9
$LATITUDE
 40
37.795
  9
$LONGITUDE
 40
-122.394
  9
$NORTHDIRECTION
 40
0.0
  9
$TIMEZONE
 70
-8000
  9
$LIGHTGLYPHDISPLAY
280
1
  9
$TILEMODELIGHTSYNCH
280
1
  9
$CMATERIAL
347
20
  9
$SOLIDHIST
280
0
  9
$SHOWHIST
280
1
  9
$DWFFRAME
280
2
  9
$DGNFRAME
280
2
  9
$REALWORLDSCALE
290
1
  9
$INTERFERECOLOR
 62
256
  9
$CSHADOW
280
0
  9
$SHADOWPLANELOCATION
 40
0.0
  0
ENDSEC
  0
SECTION
  2
CLASSES
  0
CLASS
  1
ACDBDICTIONARYWDFLT
  2
AcDbDictionaryWithDefault
  3
ObjectDBX Classes
 90
0
 91
0
280
0
281
0
  0
CLASS
  1
SUN
  2
AcDbSun
  3
SCENEOE
 90
1153
 91
0
280
0
281
0
  0
CLASS
  1
VISUALSTYLE
  2
AcDbVisualStyle
  3
ObjectDBX Classes
 90
4095
 91
0
280
0
281
0
  0
CLASS
  1
MATERIAL
  2
AcDbMaterial
  3
ObjectDBX Classes
 90
1153
 91
0
280
0
281
0
  0
CLASS
  1
SCALE
  2
AcDbScale
  3
ObjectDBX Classes
 90
1153
 91
0
280
0
281
0
  0
CLASS
  1
TABLESTYLE
  2
AcDbTableStyle
  3
ObjectDBX Classes
 90
4095
 91
0
280
0
281
0
  0
CLASS
  1
MLEADERSTYLE
  2
AcDbMLeaderStyle
  3
ACDB_MLEADERSTYLE_CLASS
 90
4095
 91
0
280
0
281
0
  0
CLASS
  1
DICTIONARYVAR
  2
AcDbDictionaryVar
  3
ObjectDBX Classes
 90
0
 91
0
280
0
281
0
  0
CLASS
  1
CELLSTYLEMAP
  2
AcDbCellStyleMap
  3
ObjectDBX Classes
 90
1152
 91
0
280
0
281
0
  0
CLASS
  1
MENTALRAYRENDERSETTINGS
  2
AcDbMentalRayRenderSettings
  3
SCENEOE
 90
1024
 91
0
280
0
281
0
  0
CLASS
  1
ACDBDETAILVIEWSTYLE
  2
AcDbDetailViewStyle
  3
ObjectDBX Classes
 90
1025
 91
0
280
0
281
0
  0
CLASS
  1
ACDBSECTIONVIEWSTYLE
  2
AcDbSectionViewStyle
  3
ObjectDBX Classes
 90
1025
 91
0
280
0
281
0
  0
CLASS
  1
RASTERVARIABLES
  2
AcDbRasterVariables
  3
ISM
 90
0
 91
0
280
0
281
0
  0
CLASS
  1
ACDBPLACEHOLDER
  2
AcDbPlaceHolder
  3
ObjectDBX Classes
 90
0
 91
0
280
0
281
0
  0
CLASS
  1
LAYOUT
  2
AcDbLayout
  3
ObjectDBX Classes
 90
0
 91
0
280
0
281
0
  0
ENDSEC
  0
SECTION
  2
TABLES
  0
TABLE
  2
VPORT
  5
8
330
0
100
AcDbSymbolTable
 70
1
  0
VPORT
  5
23
330
8
100
AcDbSymbolTableRecord
100
AcDbViewportTableRecord
  2
*Active
 70
0
 10
0.0
 20
0.0
 11
1.0
 21
1.0
 12
0.0
 22
0.0
 13
0.0
 23
0.0
 14
0.5
 24
0.5
 15
0.5
 25
0.5
 16
0.0
 26
0.0
 36
1.0
 17
0.0
 27
0.0
 37
0.0
 40
1000.0
 41
1.34
 42
50.0
 43
0.0
 44
0.0
 50
0.0
 51
0.0
 71
0
 72
1000
 73
1
 74
3
 75
0
 76
0
 77
0
 78
0
281
0
 65
0
146
0.0
  0
ENDTAB
  0
TABLE
  2
LTYPE
  5
2
330
0
100
AcDbSymbolTable
 70
3
  0
LTYPE
  5
24
330
2
100
AcDbSymbolTableRecord
100
AcDbLinetypeTableRecord
  2
ByBlock
 70
0
  3

 72
65
 73
0
 40
0.0
  0
LTYPE
  5
25
330
2
100
AcDbSymbolTableRecord
100
AcDbLinetypeTableRecord
  2
ByLayer
 70
0
  3

 72
65
 73
0
 40
0.0
  0
LTYPE
  5
26
330
2
100
AcDbSymbolTableRecord
100
AcDbLinetypeTableRecord
  2
Continuous
 70
0
  3

 72
65
 73
0
 40
0.0
  0
ENDTAB
  0
TABLE
  2
LAYER
  5
1
330
0
100
AcDbSymbolTable
 70
5
  0
LAYER
  5
27
330
1
100
AcDbSymbolTableRecord
100
AcDbLayerTableRecord
  2
0
 70
0
 62
7
  6
Continuous
370
-3
390
13
347
21
  0
LAYER
  5
28
330
1
100
AcDbSymbolTableRecord
100
AcDbLayerTableRecord
  2
Defpoints
 70
0
 62
7
  6
Continuous
290
0
370
-3
390
13
347
21
  0
LAYER
  5
2F
330
1
100
AcDbSymbolTableRecord
100
AcDbLayerTableRecord
  2
conductor
 70
0
 62
1
  6
Continuous
370
-3
390
13
347
21
  0
LAYER
  5
30
330
1
100
AcDbSymbolTableRecord
100
AcDbLayerTableRecord
  2
dielectric
 70
0
 62
8
  6
Continuous
370
-3
390
13
347
21
  0
LAYER
  5
31
330
1
100
AcDbSymbolTableRecord
100
AcDbLayerTableRecord
  2
substrate
 70
0
 62
5
  6
Continuous
370
-3
390
13
347
21
  0
ENDTAB
  0
TABLE
  2
STYLE
  5
5
330
0
100
AcDbSymbolTable
 70
1
  0
STYLE
  5
29
330
5
100
AcDbSymbolTableRecord
100
AcDbTextStyleTableRecord
  2
Standard
 70
0
 40
0.0
 41
1.0
 50
0.0
 71
0
 42
2.5
  3
txt
  4

  0
ENDTAB
  0
TABLE
  2
VIEW
  5
7
330
0
100
AcDbSymbolTable
 70
0
  0
ENDTAB
  0
TABLE
  2
UCS
  5
6
330
0
100
AcDbSymbolTable
 70
0
  0
ENDTAB
  0
TABLE
  2
APPID
  5
3
330
0
100
AcDbSymbolTable
 70
3
  0
APPID
  5
2A
330
3
100
AcDbSymbolTableRecord
100
AcDbRegAppTableRecord
  2
ACAD
 70
0
  0
APPID
  5
48
330
3
100
AcDbSymbolTableRecord
100
AcDbRegAppTableRecord
  2
HATCHBACKGROUNDCOLOR
 70
0
  0
APPID
  5
49
330
3
100
AcDbSymbolTableRecord
100
AcDbRegAppTableRecord
  2
EZDXF
 70
0
  0
ENDTAB
  0
TABLE
  2
DIMSTYLE
  5
4
330
0
100
AcDbSymbolTable
 70
1
100
AcDbDimStyleTable
  0
DIMSTYLE
105
2B
330
4
100
AcDbSymbolTableRecord
100
AcDbDimStyleTableRecord
  2
Standard
 70
0
 40
1.0
 41
2.5
 42
0.625
 43
3.75
 44
1.25
 45
0.0
 46
0.0
 47
0.0
 48
0.0
 49
2.5
140
2.5
141
2.5
142
0.0
143
0.03937007874
144
1.0
145
0.0
146
1.0
147
0.625
148
0.0
 69
0
 70
0
 71
0
 72
0
 73
0
 74
0
 75
0
 76
0
 77
1
 78
8
 79
3
170
0
171
3
172
1
173
0
174
0
175
0
176
0
177
0
178
0
179
2
271
2
272
2
273
2
274
3
275
0
276
0
277
2
278
44
279
0
280
0
281
0
282
0
283
0
284
8
285
0
286
0
288
0
289
3
290
0
371
-2
372
-2
  0
ENDTAB
  0
TABLE
  2
BLOCK_RECORD
  5
9
330
0
100
AcDbSymbolTable
 70
2
  0
BLOCK_RECORD
  5
17
330
9
100
AcDbSymbolTableRecord
100
AcDbBlockTableRecord
  2
*Model_Space
340
1A
 70
0
280
1
281
0
  0
BLOCK_RECORD
  5
1B
330
9
100
AcDbSymbolTableRecord
100
AcDbBlockTableRecord
  2
*Paper_Space
340
1E
 70
0
280
1
281
0
  0
ENDTAB
  0
ENDSEC
  0
SECTION
  2
BLOCKS
  0
BLOCK
  5
18
330
17
100
AcDbEntity
  8
0
100
AcDbBlockBegin
  2
*Model_Space
 70
0
 10
0.0
 20
0.0
 30
0.0
  3
*Model_Space
  1

  0
ENDBLK
  5
19
330
17
100
AcDbEntity
  8
0
100
AcDbBlockEnd
  0
BLOCK
  5
1C
330
1B
100
AcDbEntity
  8
0
100
AcDbBlockBegin
  2
*Paper_Space
 70
0
 10
0.0
 20
0.0
 30
0.0
  3
*Paper_Space
  1

  0
ENDBLK
  5
1D
330
1B
100
AcDbEntity
  8
0
100
AcDbBlockEnd
  0
ENDSEC
  0
SECTION
  2
ENTITIES
  0
LWPOLYLINE
  5
32
330
17
100
AcDbEntity
  8
conductor
100
AcDbPolyline
 90
264
 70
1
 43
0.5
 10
2583.796875
 20
-2065.080078125
 10
2574.009765625
 20
-2074.8671875
 10
2564.22265625
 20
-2074.8671875
 10
2554.435546875
 20
-2084.654296875
 10
2544.6484375
 20
-2074.8671875
 10
2534.861328125
 20
-2074.8671875
 10
2525.07421875
 20
-2074.8671875
 10
2515.287109375
 20
-2074.8671875
 10
2505.5
 20
-2074.8671875
 10
2495.712890625
 20
-2074.8671875
 10
2485.92578125
 20
-2074.8671875
 10
2476.138671875
 20
-2074.8671875
 10
2466.3515625
 20
-2074.8671875
 10
2456.564453125
 20
-2074.8671875
 10
2446.77734375
 20
-2074.8671875
 10
2436.990234375
 20
-2074.8671875
 10
2427.203125
 20
-2084.654296875
 10
2417.416015625
 20
-2084.654296875
 10
2407.62890625
 20
-2084.654296875
 10
2397.841796875
 20
-2084.654296875
 10
2388.0546875
 20
-2084.654296875
 10
2378.267578125
 20
-2084.654296875
 10
2368.48046875
 20
-2084.654296875
 10
2358.693359375
 20
-2084.654296875
 10
2348.90625
 20
-2094.44140625
 10
2339.119140625
 20
-2104.228515625
 10
2329.33203125
 20
-2104.228515625
 10
2319.544921875
 20
-2114.015625
 10
2309.7578125
 20
-2123.802734375
 10
2299.970703125
 20
-2123.802734375
 10
2290.18359375
 20
-2133.58984375
 10
2280.396484375
 20
-2133.58984375
 10
2270.609375
 20
-2143.376953125
 10
2260.822265625
 20
-2143.376953125
 10
2251.03515625
 20
-2143.376953125
 10
2241.248046875
 20
-2153.1640625
 10
2231.4609375
 20
-2162.951171875
 10
2221.673828125
 20
-2172.73828125
 10
2211.88671875
 20
-2172.73828125
 10
2211.88671875
 20
-2182.525390625
 10
2202.099609375
 20
-2192.3125
 10
2192.3125
 20
-2202.099609375
 10
2192.3125
 20
-2211.88671875
 10
2182.525390625
 20
-2221.673828125
 10
2172.73828125
 20
-2211.88671875
 10
2172.73828125
 20
-2221.673828125
 10
2162.951171875
 20
-2231.4609375
 10
2153.1640625
 20
-2231.4609375
 10
2153.1640625
 20
-2241.248046875
 10
2143.376953125
 20
-2251.03515625
 10
2143.376953125
 20
-2260.822265625
 10
2143.376953125
 20
-2270.609375
 10
2143.376953125
 20
-2280.396484375
 10
2133.58984375
 20
-2290.18359375
 10
2123.802734375
 20
-2299.970703125
 10
2123.802734375
 20
-2309.7578125
 10
2114.015625
 20
-2319.544921875
 10
2114.015625
 20
-2329.33203125
 10
2114.015625
 20
-2339.119140625
 10
2104.228515625
 20
-2348.90625
 10
2104.228515625
 20
-2358.693359375
 10
2094.44140625
 20
-2368.48046875
 10
2084.654296875
 20
-2378.267578125
 10
2094.44140625
 20
-2388.0546875
 10
2084.654296875
 20
-2397.841796875
 10
2084.654296875
 20
-2407.62890625
 10
2074.8671875
 20
-2417.416015625
 10
2074.8671875
 20
-2427.203125
 10
2074.8671875
 20
-2436.990234375
 10
2074.8671875
 20
-2446.77734375
 10
2065.080078125
 20
-2456.564453125
 10
2074.8671875
 20
-2466.3515625
 10
2065.080078125
 20
-2476.138671875
 10
2074.8671875
 20
-2485.92578125
 10
2074.8671875
 20
-2495.712890625
 10
2074.8671875
 20
-2505.5
 10
2074.8671875
 20
-2515.287109375
 10
2065.080078125
 20
-2525.07421875
 10
2074.8671875
 20
-2534.861328125
 10
2074.8671875
 20
-2544.6484375
 10
2074.8671875
 20
-2554.435546875
 10
2074.8671875
 20
-2564.22265625
 10
2074.8671875
 20
-2574.009765625
 10
2074.8671875
 20
-2583.796875
 10
2074.8671875
 20
-2593.583984375
 10
2084.654296875
 20
-2603.37109375
 10
2084.654296875
 20
-2613.158203125
 10
2084.654296875
 20
-2622.9453125
 10
2084.654296875
 20
-2632.732421875
 10
2094.44140625
 20
-2642.51953125
 10
2094.44140625
 20
-2652.306640625
 10
2094.44140625
 20
-2662.09375
 10
2104.228515625
 20
-2671.880859375
 10
2104.228515625
 20
-2681.66796875
 10
2114.015625
 20
-2691.455078125
 10
2114.015625
 20
-2701.2421875
 10
2123.802734375
 20
-2711.029296875
 10
2123.802734375
 20
-2720.81640625
 10
2133.58984375
 20
-2730.603515625
 10
2143.376953125
 20
-2740.390625
 10
2143.376953125
 20
-2750.177734375
 10
2153.1640625
 20
-2759.96484375
 10
2162.951171875
 20
-2769.751953125
 10
2172.73828125
 20
-2779.5390625
 10
2182.525390625
 20
-2789.326171875
 10
2182.525390625
 20
-2799.11328125
 10
2182.525390625
 20
-2808.900390625
 10
2192.3125
 20
-2808.900390625
 10
2202.099609375
 20
-2808.900390625
 10
2211.88671875
 20
-2818.6875
 10
2221.673828125
 20
-2828.474609375
 10
2231.4609375
 20
-2838.26171875
 10
2241.248046875
 20
-2848.048828125
 10
2251.03515625
 20
-2857.8359375
 10
2260.822265625
 20
-2867.623046875
 10
2270.609375
 20
-2867.623046875
 10
2280.396484375
 20
-2867.623046875
 10
2290.18359375
 20
-2877.41015625
 10
2299.970703125
 20
-2887.197265625
 10
2309.7578125
 20
-2877.41015625
 10
2319.544921875
 20
-2877.41015625
 10
2329.33203125
 20
-2887.197265625
 10
2329.33203125
 20
-2896.984375
 10
2339.119140625
 20
-2896.984375
 10
2348.90625
 20
-2906.771484375
 10
2358.693359375
 20
-2906.771484375
 10
2368.48046875
 20
-2916.55859375
 10
2378.267578125
 20
-2916.55859375
 10
2388.0546875
 20
-2916.55859375
 10
2397.841796875
 20
-2916.55859375
 10
2407.62890625
 20
-2926.345703125
 10
2417.416015625
 20
-2926.345703125
 10
2427.203125
 20
-2926.345703125
 10
2436.990234375
 20
-2926.345703125
 10
2446.77734375
 20
-2926.345703125
 10
2456.564453125
 20
-2936.1328125
 10
2466.3515625
 20
-2936.1328125
 10
2476.138671875
 20
-2936.1328125
 10
2485.92578125
 20
-2926.345703125
 10
2495.712890625
 20
-2936.1328125
 10
2505.5
 20
-2926.345703125
 10
2515.287109375
 20
-2926.345703125
 10
2525.07421875
 20
-2926.345703125
 10
2534.861328125
 20
-2926.345703125
 10
2544.6484375
 20
-2926.345703125
 10
2554.435546875
 20
-2926.345703125
 10
2564.22265625
 20
-2926.345703125
 10
2574.009765625
 20
-2926.345703125
 10
2583.796875
 20
-2926.345703125
 10
2593.583984375
 20
-2916.55859375
 10
2603.37109375
 20
-2916.55859375
 10
2613.158203125
 20
-2916.55859375
 10
2622.9453125
 20
-2916.55859375
 10
2632.732421875
 20
-2916.55859375
 10
2642.51953125
 20
-2906.771484375
 10
2652.306640625
 20
-2896.984375
 10
2662.09375
 20
-2896.984375
 10
2671.880859375
 20
-2896.984375
 10
2681.66796875
 20
-2887.197265625
 10
2691.455078125
 20
-2887.197265625
 10
2701.2421875
 20
-2877.41015625
 10
2711.029296875
 20
-2877.41015625
 10
2720.81640625
 20
-2867.623046875
 10
2730.603515625
 20
-2867.623046875
 10
2740.390625
 20
-2857.8359375
 10
2750.177734375
 20
-2857.8359375
 10
2759.96484375
 20
-2848.048828125
 10
2769.751953125
 20
-2838.26171875
 10
2779.5390625
 20
-2828.474609375
 10
2789.326171875
 20
-2828.474609375
 10
2789.326171875
 20
-2818.6875
 10
2799.11328125
 20
-2808.900390625
 10
2808.900390625
 20
-2808.900390625
 10
2818.6875
 20
-2799.11328125
 10
2818.6875
 20
-2789.326171875
 10
2828.474609375
 20
-2779.5390625
 10
2838.26171875
 20
-2769.751953125
 10
2848.048828125
 20
-2759.96484375
 10
2848.048828125
 20
-2750.177734375
 10
2857.8359375
 20
-2740.390625
 10
2867.623046875
 20
-2740.390625
 10
2867.623046875
 20
-2730.603515625
 10
2867.623046875
 20
-2720.81640625
 10
2867.623046875
 20
-2711.029296875
 10
2877.41015625
 20
-2701.2421875
 10
2887.197265625
 20
-2691.455078125
 10
2887.197265625
 20
-2681.66796875
 10
2896.984375
 20
-2671.880859375
 10
2906.771484375
 20
-2662.09375
 10
2906.771484375
 20
-2652.306640625
 10
2906.771484375
 20
-2642.51953125
 10
2916.55859375
 20
-2632.732421875
 10
2906.771484375
 20
-2622.9453125
 10
2906.771484375
 20
-2613.158203125
 10
2916.55859375
 20
-2603.37109375
 10
2926.345703125
 20
-2593.583984375
 10
2926.345703125
 20
-2583.796875
 10
2926.345703125
 20
-2574.009765625
 10
2936.1328125
 20
-2564.22265625
 10
2926.345703125
 20
-2554.435546875
 10
2936.1328125
 20
-2544.6484375
 10
2936.1328125
 20
-2534.861328125
 10
2936.1328125
 20
-2525.07421875
 10
2945.919921875
 20
-2515.287109375
 10
2936.1328125
 20
-2505.5
 10
2945.919921875
 20
-2495.712890625
 10
2945.919921875
 20
-2485.92578125
 10
2945.919921875
 20
-2476.138671875
 10
2945.919921875
 20
-2466.3515625
 10
2945.919921875
 20
-2456.564453125
 10
2945.919921875
 20
-2446.77734375
 10
2936.1328125
 20
-2436.990234375
 10
2936.1328125
 20
-2427.203125
 10
2926.345703125
 20
-2417.416015625
 10
2926.345703125
 20
-2407.62890625
 10
2926.345703125
 20
-2397.841796875
 10
2926.345703125
 20
-2388.0546875
 10
2926.345703125
 20
-2378.267578125
 10
2926.345703125
 20
-2368.48046875
 10
2916.55859375
 20
-2358.693359375
 10
2916.55859375
 20
-2348.90625
 10
2906.771484375
 20
-2339.119140625
 10
2906.771484375
 20
-2329.33203125
 10
2896.984375
 20
-2329.33203125
 10
2887.197265625
 20
-2319.544921875
 10
2887.197265625
 20
-2309.7578125
 10
2877.41015625
 20
-2299.970703125
 10
2867.623046875
 20
-2290.18359375
 10
2867.623046875
 20
-2280.396484375
 10
2867.623046875
 20
-2270.609375
 10
2867.623046875
 20
-2260.822265625
 10
2857.8359375
 20
-2260.822265625
 10
2848.048828125
 20
-2251.03515625
 10
2848.048828125
 20
-2241.248046875
 10
2838.26171875
 20
-2231.4609375
 10
2828.474609375
 20
-2231.4609375
 10
2818.6875
 20
-2221.673828125
 10
2818.6875
 20
-2211.88671875
 10
2808.900390625
 20
-2202.099609375
 10
2799.11328125
 20
-2202.099609375
 10
2789.326171875
 20
-2192.3125
 10
2789.326171875
 20
-2182.525390625
 10
2779.5390625
 20
-2172.73828125
 10
2779.5390625
 20
-2162.951171875
 10
2769.751953125
 20
-2162.951171875
 10
2759.96484375
 20
-2153.1640625
 10
2750.177734375
 20
-2153.1640625
 10
2740.390625
 20
-2143.376953125
 10
2730.603515625
 20
-2143.376953125
 10
2720.81640625
 20
-2133.58984375
 10
2711.029296875
 20
-2133.58984375
 10
2701.2421875
 20
-2123.802734375
 10
2701.2421875
 20
-2114.015625
 10
2691.455078125
 20
-2114.015625
 10
2681.66796875
 20
-2104.228515625
 10
2671.880859375
 20
-2104.228515625
 10
2662.09375
 20
-2094.44140625
 10
2652.306640625
 20
-2084.654296875
 10
2642.51953125
 20
-2094.44140625
 10
2632.732421875
 20
-2084.654296875
 10
2622.9453125
 20
-2084.654296875
 10
2613.158203125
 20
-2084.654296875
 10
2603.37109375
 20
-2074.8671875
 10
2593.583984375
 20
-2074.8671875
  0
LWPOLYLINE
  5
33
330
17
100
AcDbEntity
  8
conductor
100
AcDbPolyline
 90
242
 70
1
 43
0.5
 10
2534.861328125
 20
-2104.228515625
 10
2544.6484375
 20
-2094.44140625
 10
2554.435546875
 20
-2104.228515625
 10
2564.22265625
 20
-2104.228515625
 10
2574.009765625
 20
-2104.228515625
 10
2583.796875
 20
-2104.228515625
 10
2593.583984375
 20
-2114.015625
 10
2603.37109375
 20
-2123.802734375
 10
2613.158203125
 20
-2114.015625
 10
2622.9453125
 20
-2123.802734375
 10
2632.732421875
 20
-2123.802734375
 10
2642.51953125
 20
-2123.802734375
 10
2652.306640625
 20
-2133.58984375
 10
2652.306640625
 20
-2143.376953125
 10
2662.09375
 20
-2143.376953125
 10
2671.880859375
 20
-2133.58984375
 10
2681.66796875
 20
-2143.376953125
 10
2691.455078125
 20
-2143.376953125
 10
2701.2421875
 20
-2153.1640625
 10
2711.029296875
 20
-2153.1640625
 10
2720.81640625
 20
-2162.951171875
 10
2730.603515625
 20
-2172.73828125
 10
2740.390625
 20
-2182.525390625
 10
2740.390625
 20
-2192.3125
 10
2750.177734375
 20
-2192.3125
 10
2759.96484375
 20
-2202.099609375
 10
2769.751953125
 20
-2202.099609375
 10
2779.5390625
 20
-2202.099609375
 10
2789.326171875
 20
-2211.88671875
 10
2799.11328125
 20
-2221.673828125
 10
2799.11328125
 20
-2231.4609375
 10
2799.11328125
 20
-2241.248046875
 10
2808.900390625
 20
-2251.03515625
 10
2808.900390625
 20
-2260.822265625
 10
2818.6875
 20
-2270.609375
 10
2828.474609375
 20
-2270.609375
 10
2838.26171875
 20
-2280.396484375
 10
2838.26171875
 20
-2290.18359375
 10
2848.048828125
 20
-2299.970703125
 10
2848.048828125
 20
-2309.7578125
 10
2848.048828125
 20
-2319.544921875
 10
2857.8359375
 20
-2329.33203125
 10
2857.8359375
 20
-2339.119140625
 10
2867.623046875
 20
-2348.90625
 10
2877.41015625
 20
-2358.693359375
 10
2877.41015625
 20
-2368.48046875
 10
2877.41015625
 20
-2378.267578125
 10
2877.41015625
 20
-2388.0546875
 10
2877.41015625
 20
-2397.841796875
 10
2887.197265625
 20
-2407.62890625
 10
2887.197265625
 20
-2417.416015625
 10
2896.984375
 20
-2427.203125
 10
2896.984375
 20
-2436.990234375
 10
2896.984375
 20
-2446.77734375
 10
2896.984375
 20
-2456.564453125
 10
2906.771484375
 20
-2466.3515625
 10
2896.984375
 20
-2476.138671875
 10
2906.771484375
 20
-2485.92578125
 10
2896.984375
 20
-2495.712890625
 10
2906.771484375
 20
-2505.5
 10
2896.984375
 20
-2515.287109375
 10
2906.771484375
 20
-2525.07421875
 10
2896.984375
 20
-2534.861328125
 10
2906.771484375
 20
-2544.6484375
 10
2896.984375
 20
-2554.435546875
 10
2896.984375
 20
-2564.22265625
 10
2887.197265625
 20
-2574.009765625
 10
2887.197265625
 20
-2583.796875
 10
2887.197265625
 20
-2593.583984375
 10
2877.41015625
 20
-2603.37109375
 10
2877.41015625
 20
-2613.158203125
 10
2877.41015625
 20
-2622.9453125
 10
2867.623046875
 20
-2632.732421875
 10
2867.623046875
 20
-2642.51953125
 10
2867.623046875
 20
-2652.306640625
 10
2867.623046875
 20
-2662.09375
 10
2867.623046875
 20
-2671.880859375
 10
2857.8359375
 20
-2681.66796875
 10
2848.048828125
 20
-2691.455078125
 10
2848.048828125
 20
-2701.2421875
 10
2838.26171875
 20
-2711.029296875
 10
2838.26171875
 20
-2720.81640625
 10
2828.474609375
 20
-2730.603515625
 10
2818.6875
 20
-2740.390625
 10
2818.6875
 20
-2750.177734375
 10
2808.900390625
 20
-2759.96484375
 10
2799.11328125
 20
-2759.96484375
 10
2789.326171875
 20
-2769.751953125
 10
2779.5390625
 20
-2779.5390625
 10
2769.751953125
 20
-2779.5390625
 10
2769.751953125
 20
-2789.326171875
 10
2759.96484375
 20
-2799.11328125
 10
2750.177734375
 20
-2808.900390625
 10
2740.390625
 20
-2818.6875
 10
2730.603515625
 20
-2828.474609375
 10
2720.81640625
 20
-2828.474609375
 10
2711.029296875
 20
-2838.26171875
 10
2701.2421875
 20
-2848.048828125
 10
2691.455078125
 20
-2848.048828125
 10
2681.66796875
 20
-2848.048828125
 10
2671.880859375
 20
-2857.8359375
 10
2662.09375
 20
-2857.8359375
 10
2652.306640625
 20
-2857.8359375
 10
2642.51953125
 20
-2867.623046875
 10
2632.732421875
 20
-2867.623046875
 10
2622.9453125
 20
-2877.41015625
 10
2613.158203125
 20
-2877.41015625
 10
2603.37109375
 20
-2887.197265625
 10
2593.583984375
 20
-2887.197265625
 10
2583.796875
 20
-2887.197265625
 10
2574.009765625
 20
-2896.984375
 10
2564.22265625
 20
-2896.984375
 10
2554.435546875
 20
-2896.984375
 10
2544.6484375
 20
-2896.984375
 10
2534.861328125
 20
-2896.984375
 10
2525.07421875
 20
-2906.771484375
 10
2515.287109375
 20
-2906.771484375
 10
2505.5
 20
-2896.984375
 10
2495.712890625
 20
-2896.984375
 10
2485.92578125
 20
-2896.984375
 10
2476.138671875
 20
-2896.984375
 10
2466.3515625
 20
-2896.984375
 10
2456.564453125
 20
-2887.197265625
 10
2446.77734375
 20
-2887.197265625
 10
2436.990234375
 20
-2887.197265625
 10
2427.203125
 20
-2887.197265625
 10
2417.416015625
 20
-2887.197265625
 10
2407.62890625
 20
-2887.197265625
 10
2397.841796875
 20
-2887.197265625
 10
2388.0546875
 20
-2887.197265625
 10
2378.267578125
 20
-2877.41015625
 10
2368.48046875
 20
-2877.41015625
 10
2358.693359375
 20
-2867.623046875
 10
2348.90625
 20
-2857.8359375
 10
2339.119140625
 20
-2857.8359375
 10
2329.33203125
 20
-2857.8359375
 10
2319.544921875
 20
-2848.048828125
 10
2309.7578125
 20
-2838.26171875
 10
2299.970703125
 20
-2838.26171875
 10
2290.18359375
 20
-2828.474609375
 10
2280.396484375
 20
-2828.474609375
 10
2270.609375
 20
-2818.6875
 10
2260.822265625
 20
-2818.6875
 10
2251.03515625
 20
-2808.900390625
 10
2241.248046875
 20
-2799.11328125
 10
2231.4609375
 20
-2789.326171875
 10
2221.673828125
 20
-2789.326171875
 10
2211.88671875
 20
-2779.5390625
 10
2202.099609375
 20
-2769.751953125
 10
2202.099609375
 20
-2759.96484375
 10
2192.3125
 20
-2750.177734375
 10
2192.3125
 20
-2740.390625
 10
2182.525390625
 20
-2730.603515625
 10
2172.73828125
 20
-2720.81640625
 10
2162.951171875
 20
-2711.029296875
 10
2153.1640625
 20
-2701.2421875
 10
2153.1640625
 20
-2691.455078125
 10
2143.376953125
 20
-2681.66796875
 10
2133.58984375
 20
-2671.880859375
 10
2143.376953125
 20
-2662.09375
 10
2133.58984375
 20
-2652.306640625
 10
2123.802734375
 20
-2642.51953125
 10
2123.802734375
 20
-2632.732421875
 10
2123.802734375
 20
-2622.9453125
 10
2114.015625
 20
-2613.158203125
 10
2114.015625
 20
-2603.37109375
 10
2114.015625
 20
-2593.583984375
 10
2114.015625
 20
-2583.796875
 10
2114.015625
 20
-2574.009765625
 10
2114.015625
 20
-2564.22265625
 10
2114.015625
 20
-2554.435546875
 10
2104.228515625
 20
-2544.6484375
 10
2114.015625
 20
-2534.861328125
 10
2104.228515625
 20
-2525.07421875
 10
2104.228515625
 20
-2515.287109375
 10
2104.228515625
 20
-2505.5
 10
2104.228515625
 20
-2495.712890625
 10
2104.228515625
 20
-2485.92578125
 10
2104.228515625
 20
-2476.138671875
 10
2104.228515625
 20
-2466.3515625
 10
2104.228515625
 20
-2456.564453125
 10
2104.228515625
 20
-2446.77734375
 10
2104.228515625
 20
-2436.990234375
 10
2114.015625
 20
-2427.203125
 10
2114.015625
 20
-2417.416015625
 10
2114.015625
 20
-2407.62890625
 10
2114.015625
 20
-2397.841796875
 10
2123.802734375
 20
-2388.0546875
 10
2123.802734375
 20
-2378.267578125
 10
2123.802734375
 20
-2368.48046875
 10
2133.58984375
 20
-2358.693359375
 10
2133.58984375
 20
-2348.90625
 10
2133.58984375
 20
-2339.119140625
 10
2143.376953125
 20
-2329.33203125
 10
2153.1640625
 20
-2319.544921875
 10
2143.376953125
 20
-2309.7578125
 10
2153.1640625
 20
-2299.970703125
 10
2162.951171875
 20
-2299.970703125
 10
2162.951171875
 20
-2290.18359375
 10
2153.1640625
 20
-2280.396484375
 10
2162.951171875
 20
-2270.609375
 10
2172.73828125
 20
-2270.609375
 10
2172.73828125
 20
-2260.822265625
 10
2182.525390625
 20
-2251.03515625
 10
2182.525390625
 20
-2241.248046875
 10
2192.3125
 20
-2231.4609375
 10
2202.099609375
 20
-2221.673828125
 10
2211.88671875
 20
-2221.673828125
 10
2211.88671875
 20
-2211.88671875
 10
2221.673828125
 20
-2202.099609375
 10
2231.4609375
 20
-2202.099609375
 10
2241.248046875
 20
-2192.3125
 10
2251.03515625
 20
-2192.3125
 10
2260.822265625
 20
-2182.525390625
 10
2270.609375
 20
-2182.525390625
 10
2280.396484375
 20
-2172.73828125
 10
2290.18359375
 20
-2162.951171875
 10
2299.970703125
 20
-2162.951171875
 10
2299.970703125
 20
-2153.1640625
 10
2309.7578125
 20
-2143.376953125
 10
2319.544921875
 20
-2143.376953125
 10
2329.33203125
 20
-2143.376953125
 10
2339.119140625
 20
-2133.58984375
 10
2348.90625
 20
-2133.58984375
 10
2358.693359375
 20
-2123.802734375
 10
2368.48046875
 20
-2123.802734375
 10
2378.267578125
 20
-2123.802734375
 10
2388.0546875
 20
-2123.802734375
 10
2397.841796875
 20
-2114.015625
 10
2407.62890625
 20
-2114.015625
 10
2417.416015625
 20
-2104.228515625
 10
2427.203125
 20
-2104.228515625
 10
2436.990234375
 20
-2104.228515625
 10
2446.77734375
 20
-2104.228515625
 10
2456.564453125
 20
-2104.228515625
 10
2466.3515625
 20
-2104.228515625
 10
2476.138671875
 20
-2104.228515625
 10
2485.92578125
 20
-2104.228515625
 10
2495.712890625
 20
-2104.228515625
 10
2505.5
 20
-2104.228515625
 10
2515.287109375
 20
-2104.228515625
 10
2525.07421875
 20
-2104.228515625
  0
LWPOLYLINE
  5
34
330
17
100
AcDbEntity
  8
conductor
100
AcDbPolyline
 90
195
 70
1
 43
0.5
 10
2446.77734375
 20
-2202.099609375
 10
2436.990234375
 20
-2211.88671875
 10
2427.203125
 20
-2211.88671875
 10
2417.416015625
 20
-2211.88671875
 10
2407.62890625
 20
-2211.88671875
 10
2397.841796875
 20
-2221.673828125
 10
2388.0546875
 20
-2221.673828125
 10
2378.267578125
 20
-2221.673828125
 10
2368.48046875
 20
-2231.4609375
 10
2358.693359375
 20
-2231.4609375
 10
2348.90625
 20
-2241.248046875
 10
2339.119140625
 20
-2251.03515625
 10
2329.33203125
 20
-2260.822265625
 10
2319.544921875
 20
-2270.609375
 10
2309.7578125
 20
-2270.609375
 10
2299.970703125
 20
-2280.396484375
 10
2290.18359375
 20
-2280.396484375
 10
2280.396484375
 20
-2290.18359375
 10
2270.609375
 20
-2299.970703125
 10
2260.822265625
 20
-2309.7578125
 10
2251.03515625
 20
-2309.7578125
 10
2251.03515625
 20
-2319.544921875
 10
2241.248046875
 20
-2329.33203125
 10
2241.248046875
 20
-2339.119140625
 10
2231.4609375
 20
-2348.90625
 10
2221.673828125
 20
-2348.90625
 10
2211.88671875
 20
-2358.693359375
 10
2202.099609375
 20
-2368.48046875
 10
2202.099609375
 20
-2378.267578125
 10
2202.099609375
 20
-2388.0546875
 10
2202.099609375
 20
-2397.841796875
 10
2192.3125
 20
-2407.62890625
 10
2192.3125
 20
-2417.416015625
 10
2182.525390625
 20
-2427.203125
 10
2182.525390625
 20
-2436.990234375
 10
2182.525390625
 20
-2446.77734375
 10
2182.525390625
 20
-2456.564453125
 10
2182.525390625
 20
-2466.3515625
 10
2182.525390625
 20
-2476.138671875
 10
2182.525390625
 20
-2485.92578125
 10
2172.73828125
 20
-2495.712890625
 10
2182.525390625
 20
-2505.5
 10
2172.73828125
 20
-2515.287109375
 10
2182.525390625
 20
-2525.07421875
 10
2172.73828125
 20
-2534.861328125
 10
2182.525390625
 20
-2544.6484375
 10
2172.73828125
 20
-2554.435546875
 10
2182.525390625
 20
-2564.22265625
 10
2182.525390625
 20
-2574.009765625
 10
2192.3125
 20
-2583.796875
 10
2202.099609375
 20
-2593.583984375
 10
2202.099609375
 20
-2603.37109375
 10
2202.099609375
 20
-2613.158203125
 10
2211.88671875
 20
-2622.9453125
 10
2211.88671875
 20
-2632.732421875
 10
2211.88671875
 20
-2642.51953125
 10
2221.673828125
 20
-2652.306640625
 10
2231.4609375
 20
-2662.09375
 10
2241.248046875
 20
-2671.880859375
 10
2241.248046875
 20
-2681.66796875
 10
2241.248046875
 20
-2691.455078125
 10
2251.03515625
 20
-2701.2421875
 10
2251.03515625
 20
-2711.029296875
 10
2260.822265625
 20
-2720.81640625
 10
2270.609375
 20
-2730.603515625
 10
2270.609375
 20
-2740.390625
 10
2280.396484375
 20
-2750.177734375
 10
2280.396484375
 20
-2759.96484375
 10
2290.18359375
 20
-2759.96484375
 10
2299.970703125
 20
-2759.96484375
 10
2309.7578125
 20
-2769.751953125
 10
2319.544921875
 20
-2769.751953125
 10
2329.33203125
 20
-2779.5390625
 10
2339.119140625
 20
-2789.326171875
 10
2348.90625
 20
-2789.326171875
 10
2358.693359375
 20
-2789.326171875
 10
2368.48046875
 20
-2789.326171875
 10
2378.267578125
 20
-2799.11328125
 10
2388.0546875
 20
-2808.900390625
 10
2397.841796875
 20
-2808.900390625
 10
2407.62890625
 20
-2808.900390625
 10
2417.416015625
 20
-2818.6875
 10
2427.203125
 20
-2818.6875
 10
2436.990234375
 20
-2818.6875
 10
2446.77734375
 20
-2818.6875
 10
2456.564453125
 20
-2828.474609375
 10
2466.3515625
 20
-2818.6875
 10
2476.138671875
 20
-2828.474609375
 10
2485.92578125
 20
-2828.474609375
 10
2495.712890625
 20
-2828.474609375
 10
2505.5
 20
-2818.6875
 10
2515.287109375
 20
-2818.6875
 10
2525.07421875
 20
-2808.900390625
 10
2534.861328125
 20
-2808.900390625
 10
2544.6484375
 20
-2808.900390625
 10
2554.435546875
 20
-2808.900390625
 10
2564.22265625
 20
-2808.900390625
 10
2574.009765625
 20
-2799.11328125
 10
2583.796875
 20
-2799.11328125
 10
2593.583984375
 20
-2789.326171875
 10
2603.37109375
 20
-2789.326171875
 10
2613.158203125
 20
-2789.326171875
 10
2603.37109375
 20
-2779.5390625
 10
2613.158203125
 20
-2769.751953125
 10
2622.9453125
 20
-2769.751953125
 10
2632.732421875
 20
-2779.5390625
 10
2642.51953125
 20
-2779.5390625
 10
2652.306640625
 20
-2769.751953125
 10
2662.09375
 20
-2769.751953125
 10
2671.880859375
 20
-2759.96484375
 10
2681.66796875
 20
-2759.96484375
 10
2691.455078125
 20
-2750.177734375
 10
2701.2421875
 20
-2759.96484375
 10
2711.029296875
 20
-2750.177734375
 10
2711.029296875
 20
-2740.390625
 10
2711.029296875
 20
-2730.603515625
 10
2701.2421875
 20
-2720.81640625
 10
2711.029296875
 20
-2711.029296875
 10
2720.81640625
 20
-2711.029296875
 10
2730.603515625
 20
-2711.029296875
 10
2740.390625
 20
-2701.2421875
 10
2750.177734375
 20
-2701.2421875
 10
2759.96484375
 20
-2691.455078125
 10
2759.96484375
 20
-2681.66796875
 10
2759.96484375
 20
-2671.880859375
 10
2769.751953125
 20
-2662.09375
 10
2769.751953125
 20
-2652.306640625
 10
2769.751953125
 20
-2642.51953125
 10
2779.5390625
 20
-2632.732421875
 10
2789.326171875
 20
-2632.732421875
 10
2779.5390625
 20
-2622.9453125
 10
2789.326171875
 20
-2613.158203125
 10
2779.5390625
 20
-2603.37109375
 10
2789.326171875
 20
-2593.583984375
 10
2799.11328125
 20
-2583.796875
 10
2799.11328125
 20
-2574.009765625
 10
2799.11328125
 20
-2564.22265625
 10
2808.900390625
 20
-2554.435546875
 10
2808.900390625
 20
-2544.6484375
 10
2808.900390625
 20
-2534.861328125
 10
2808.900390625
 20
-2525.07421875
 10
2808.900390625
 20
-2515.287109375
 10
2799.11328125
 20
-2505.5
 10
2808.900390625
 20
-2495.712890625
 10
2808.900390625
 20
-2485.92578125
 10
2808.900390625
 20
-2476.138671875
 10
2808.900390625
 20
-2466.3515625
 10
2808.900390625
 20
-2456.564453125
 10
2808.900390625
 20
-2446.77734375
 10
2799.11328125
 20
-2436.990234375
 10
2799.11328125
 20
-2427.203125
 10
2789.326171875
 20
-2417.416015625
 10
2779.5390625
 20
-2407.62890625
 10
2789.326171875
 20
-2397.841796875
 10
2779.5390625
 20
-2388.0546875
 10
2769.751953125
 20
-2378.267578125
 10
2769.751953125
 20
-2368.48046875
 10
2759.96484375
 20
-2358.693359375
 10
2769.751953125
 20
-2348.90625
 10
2759.96484375
 20
-2339.119140625
 10
2750.177734375
 20
-2329.33203125
 10
2750.177734375
 20
-2319.544921875
 10
2740.390625
 20
-2309.7578125
 10
2730.603515625
 20
-2309.7578125
 10
2720.81640625
 20
-2299.970703125
 10
2711.029296875
 20
-2299.970703125
 10
2701.2421875
 20
-2290.18359375
 10
2701.2421875
 20
-2280.396484375
 10
2691.455078125
 20
-2270.609375
 10
2681.66796875
 20
-2270.609375
 10
2671.880859375
 20
-2270.609375
 10
2662.09375
 20
-2260.822265625
 10
2662.09375
 20
-2251.03515625
 10
2652.306640625
 20
-2241.248046875
 10
2652.306640625
 20
-2231.4609375
 10
2642.51953125
 20
-2231.4609375
 10
2632.732421875
 20
-2231.4609375
 10
2622.9453125
 20
-2221.673828125
 10
2613.158203125
 20
-2211.88671875
 10
2603.37109375
 20
-2202.099609375
 10
2593.583984375
 20
-2211.88671875
 10
2583.796875
 20
-2211.88671875
 10
2574.009765625
 20
-2211.88671875
 10
2564.22265625
 20
-2211.88671875
 10
2554.435546875
 20
-2221.673828125
 10
2544.6484375
 20
-2211.88671875
 10
2534.861328125
 20
-2211.88671875
 10
2525.07421875
 20
-2221.673828125
 10
2515.287109375
 20
-2211.88671875
 10
2505.5
 20
-2211.88671875
 10
2495.712890625
 20
-2211.88671875
 10
2485.92578125
 20
-2202.099609375
 10
2476.138671875
 20
-2202.099609375
 10
2466.3515625
 20
-2202.099609375
 10
2456.564453125
 20
-2202.099609375
  0
LWPOLYLINE
  5
35
330
17
100
AcDbEntity
  8
conductor
100
AcDbPolyline
 90
4
 70
1
 43
0.5
 10
2642.51953125
 20
-2759.96484375
 10
2652.306640625
 20
-2750.177734375
 10
2662.09375
 20
-2759.96484375
 10
2652.306640625
 20
-2769.751953125
  0
LWPOLYLINE
  5
36
330
17
100
AcDbEntity
  8
conductor
100
AcDbPolyline
 90
4
 70
1
 43
0.5
 10
2407.62890625
 20
-2505.5
 10
2417.416015625
 20
-2495.712890625
 10
2427.203125
 20
-2505.5
 10
2417.416015625
 20
-2515.287109375
  0
LWPOLYLINE
  5
37
330
17
100
AcDbEntity
  8
conductor
100
AcDbPolyline
 90
4
 70
1
 43
0.5
 10
2446.77734375
 20
-2466.3515625
 10
2456.564453125
 20
-2456.564453125
 10
2466.3515625
 20
-2466.3515625
 10
2456.564453125
 20
-2476.138671875
  0
LWPOLYLINE
  5
38
330
17
100
AcDbEntity
  8
conductor
100
AcDbPolyline
 90
4
 70
1
 43
0.5
 10
2427.203125
 20
-2466.3515625
 10
2436.990234375
 20
-2456.564453125
 10
2446.77734375
 20
-2466.3515625
 10
2436.990234375
 20
-2476.138671875
  0
LWPOLYLINE
  5
39
330
17
100
AcDbEntity
  8
conductor
100
AcDbPolyline
 90
8
 70
1
 43
0.5
 10
2407.62890625
 20
-2466.3515625
 10
2417.416015625
 20
-2456.564453125
 10
2427.203125
 20
-2466.3515625
 10
2427.203125
 20
-2476.138671875
 10
2427.203125
 20
-2485.92578125
 10
2417.416015625
 20
-2495.712890625
 10
2407.62890625
 20
-2485.92578125
 10
2407.62890625
 20
-2476.138671875
  0
LWPOLYLINE
  5
3A
330
17
100
AcDbEntity
  8
dielectric
100
AcDbPolyline
 90
1
 70
1
 43
0.5
 10
2114.015625
 20
-2290.18359375
  0
LWPOLYLINE
  5
3B
330
17
100
AcDbEntity
  8
substrate
100
AcDbPolyline
 90
2044
 70
1
 43
0.5
 10
0.0
 20
-0.0
 10
0.0
 20
-9.787109375
 10
0.0
 20
-19.57421875
 10
0.0
 20
-29.361328125
 10
0.0
 20
-39.1484375
 10
0.0
 20
-48.935546875
 10
0.0
 20
-58.72265625
 10
0.0
 20
-68.509765625
 10
0.0
 20
-78.296875
 10
0.0
 20
-88.083984375
 10
0.0
 20
-97.87109375
 10
0.0
 20
-107.658203125
 10
0.0
 20
-117.4453125
 10
0.0
 20
-127.232421875
 10
0.0
 20
-137.01953125
 10
0.0
 20
-146.806640625
 10
0.0
 20
-156.59375
 10
0.0
 20
-166.380859375
 10
0.0
 20
-176.16796875
 10
0.0
 20
-185.955078125
 10
0.0
 20
-195.7421875
 10
0.0
 20
-205.529296875
 10
0.0
 20
-215.31640625
 10
0.0
 20
-225.103515625
 10
0.0
 20
-234.890625
 10
0.0
 20
-244.677734375
 10
0.0
 20
-254.46484375
 10
0.0
 20
-264.251953125
 10
0.0
 20
-274.0390625
 10
0.0
 20
-283.826171875
 10
0.0
 20
-293.61328125
 10
0.0
 20
-303.400390625
 10
0.0
 20
-313.1875
 10
0.0
 20
-322.974609375
 10
0.0
 20
-332.76171875
 10
0.0
 20
-342.548828125
 10
0.0
 20
-352.3359375
 10
0.0
 20
-362.123046875
 10
0.0
 20
-371.91015625
 10
0.0
 20
-381.697265625
 10
0.0
 20
-391.484375
 10
0.0
 20
-401.271484375
 10
0.0
 20
-411.05859375
 10
0.0
 20
-420.845703125
 10
0.0
 20
-430.6328125
 10
0.0
 20
-440.419921875
 10
0.0
 20
-450.20703125
 10
0.0
 20
-459.994140625
 10
0.0
 20
-469.78125
 10
0.0
 20
-479.568359375
 10
0.0
 20
-489.35546875
 10
0.0
 20
-499.142578125
 10
0.0
 20
-508.9296875
 10
0.0
 20
-518.716796875
 10
0.0
 20
-528.50390625
 10
0.0
 20
-538.291015625
 10
0.0
 20
-548.078125
 10
0.0
 20
-557.865234375
 10
0.0
 20
-567.65234375
 10
0.0
 20
-577.439453125
 10
0.0
 20
-587.2265625
 10
0.0
 20
-597.013671875
 10
0.0
 20
-606.80078125
 10
0.0
 20
-616.587890625
 10
0.0
 20
-626.375
 10
0.0
 20
-636.162109375
 10
0.0
 20
-645.94921875
 10
0.0
 20
-655.736328125
 10
0.0
 20
-665.5234375
 10
0.0
 20
-675.310546875
 10
0.0
 20
-685.09765625
 10
0.0
 20
-694.884765625
 10
0.0
 20
-704.671875
 10
0.0
 20
-714.458984375
 10
0.0
 20
-724.24609375
 10
0.0
 20
-734.033203125
 10
0.0
 20
-743.8203125
 10
0.0
 20
-753.607421875
 10
0.0
 20
-763.39453125
 10
0.0
 20
-773.181640625
 10
0.0
 20
-782.96875
 10
0.0
 20
-792.755859375
 10
0.0
 20
-802.54296875
 10
0.0
 20
-812.330078125
 10
0.0
 20
-822.1171875
 10
0.0
 20
-831.904296875
 10
0.0
 20
-841.69140625
 10
0.0
 20
-851.478515625
 10
0.0
 20
-861.265625
 10
0.0
 20
-871.052734375
 10
0.0
 20
-880.83984375
 10
0.0
 20
-890.626953125
 10
0.0
 20
-900.4140625
 10
0.0
 20
-910.201171875
 10
0.0
 20
-919.98828125
 10
0.0
 20
-929.775390625
 10
0.0
 20
-939.5625
 10
0.0
 20
-949.349609375
 10
0.0
 20
-959.13671875
 10
0.0
 20
-968.923828125
 10
0.0
 20
-978.7109375
 10
0.0
 20
-988.498046875
 10
0.0
 20
-998.28515625
 10
0.0
 20
-1008.072265625
 10
0.0
 20
-1017.859375
 10
0.0
 20
-1027.646484375
 10
0.0
 20
-1037.43359375
 10
0.0
 20
-1047.220703125
 10
0.0
 20
-1057.0078125
 10
0.0
 20
-1066.794921875
 10
0.0
 20
-1076.58203125
 10
0.0
 20
-1086.369140625
 10
0.0
 20
-1096.15625
 10
0.0
 20
-1105.943359375
 10
0.0
 20
-1115.73046875
 10
0.0
 20
-1125.517578125
 10
0.0
 20
-1135.3046875
 10
0.0
 20
-1145.091796875
 10
0.0
 20
-1154.87890625
 10
0.0
 20
-1164.666015625
 10
0.0
 20
-1174.453125
 10
0.0
 20
-1184.240234375
 10
0.0
 20
-1194.02734375
 10
0.0
 20
-1203.814453125
 10
0.0
 20
-1213.6015625
 10
0.0
 20
-1223.388671875
 10
0.0
 20
-1233.17578125
 10
0.0
 20
-1242.962890625
 10
0.0
 20
-1252.75
 10
0.0
 20
-1262.537109375
 10
0.0
 20
-1272.32421875
 10
0.0
 20
-1282.111328125
 10
0.0
 20
-1291.8984375
 10
0.0
 20
-1301.685546875
 10
0.0
 20
-1311.47265625
 10
0.0
 20
-1321.259765625
 10
0.0
 20
-1331.046875
 10
0.0
 20
-1340.833984375
 10
0.0
 20
-1350.62109375
 10
0.0
 20
-1360.408203125
 10
0.0
 20
-1370.1953125
 10
0.0
 20
-1379.982421875
 10
0.0
 20
-1389.76953125
 10
0.0
 20
-1399.556640625
 10
0.0
 20
-1409.34375
 10
0.0
 20
-1419.130859375
 10
0.0
 20
-1428.91796875
 10
0.0
 20
-1438.705078125
 10
0.0
 20
-1448.4921875
 10
0.0
 20
-1458.279296875
 10
0.0
 20
-1468.06640625
 10
0.0
 20
-1477.853515625
 10
0.0
 20
-1487.640625
 10
0.0
 20
-1497.427734375
 10
0.0
 20
-1507.21484375
 10
0.0
 20
-1517.001953125
 10
0.0
 20
-1526.7890625
 10
0.0
 20
-1536.576171875
 10
0.0
 20
-1546.36328125
 10
0.0
 20
-1556.150390625
 10
0.0
 20
-1565.9375
 10
0.0
 20
-1575.724609375
 10
0.0
 20
-1585.51171875
 10
0.0
 20
-1595.298828125
 10
0.0
 20
-1605.0859375
 10
0.0
 20
-1614.873046875
 10
0.0
 20
-1624.66015625
 10
0.0
 20
-1634.447265625
 10
0.0
 20
-1644.234375
 10
0.0
 20
-1654.021484375
 10
0.0
 20
-1663.80859375
 10
0.0
 20
-1673.595703125
 10
0.0
 20
-1683.3828125
 10
0.0
 20
-1693.169921875
 10
0.0
 20
-1702.95703125
 10
0.0
 20
-1712.744140625
 10
0.0
 20
-1722.53125
 10
0.0
 20
-1732.318359375
 10
0.0
 20
-1742.10546875
 10
0.0
 20
-1751.892578125
 10
0.0
 20
-1761.6796875
 10
0.0
 20
-1771.466796875
 10
0.0
 20
-1781.25390625
 10
0.0
 20
-1791.041015625
 10
0.0
 20
-1800.828125
 10
0.0
 20
-1810.615234375
 10
0.0
 20
-1820.40234375
 10
0.0
 20
-1830.189453125
 10
0.0
 20
-1839.9765625
 10
0.0
 20
-1849.763671875
 10
0.0
 20
-1859.55078125
 10
0.0
 20
-1869.337890625
 10
0.0
 20
-1879.125
 10
0.0
 20
-1888.912109375
 10
0.0
 20
-1898.69921875
 10
0.0
 20
-1908.486328125
 10
0.0
 20
-1918.2734375
 10
0.0
 20
-1928.060546875
 10
0.0
 20
-1937.84765625
 10
0.0
 20
-1947.634765625
 10
0.0
 20
-1957.421875
 10
0.0
 20
-1967.208984375
 10
0.0
 20
-1976.99609375
 10
0.0
 20
-1986.783203125
 10
0.0
 20
-1996.5703125
 10
0.0
 20
-2006.357421875
 10
0.0
 20
-2016.14453125
 10
0.0
 20
-2025.931640625
 10
0.0
 20
-2035.71875
 10
0.0
 20
-2045.505859375
 10
0.0
 20
-2055.29296875
 10
0.0
 20
-2065.080078125
 10
0.0
 20
-2074.8671875
 10
0.0
 20
-2084.654296875
 10
0.0
 20
-2094.44140625
 10
0.0
 20
-2104.228515625
 10
0.0
 20
-2114.015625
 10
0.0
 20
-2123.802734375
 10
0.0
 20
-2133.58984375
 10
0.0
 20
-2143.376953125
 10
0.0
 20
-2153.1640625
 10
0.0
 20
-2162.951171875
 10
0.0
 20
-2172.73828125
 10
0.0
 20
-2182.525390625
 10
0.0
 20
-2192.3125
 10
0.0
 20
-2202.099609375
 10
0.0
 20
-2211.88671875
 10
0.0
 20
-2221.673828125
 10
0.0
 20
-2231.4609375
 10
0.0
 20
-2241.248046875
 10
0.0
 20
-2251.03515625
 10
0.0
 20
-2260.822265625
 10
0.0
 20
-2270.609375
 10
0.0
 20
-2280.396484375
 10
0.0
 20
-2290.18359375
 10
0.0
 20
-2299.970703125
 10
0.0
 20
-2309.7578125
 10
0.0
 20
-2319.544921875
 10
0.0
 20
-2329.33203125
 10
0.0
 20
-2339.119140625
 10
0.0
 20
-2348.90625
 10
0.0
 20
-2358.693359375
 10
0.0
 20
-2368.48046875
 10
0.0
 20
-2378.267578125
 10
0.0
 20
-2388.0546875
 10
0.0
 20
-2397.841796875
 10
0.0
 20
-2407.62890625
 10
0.0
 20
-2417.416015625
 10
0.0
 20
-2427.203125
 10
0.0
 20
-2436.990234375
 10
0.0
 20
-2446.77734375
 10
0.0
 20
-2456.564453125
 10
0.0
 20
-2466.3515625
 10
0.0
 20
-2476.138671875
 10
0.0
 20
-2485.92578125
 10
0.0
 20
-2495.712890625
 10
0.0
 20
-2505.5
 10
0.0
 20
-2515.287109375
 10
0.0
 20
-2525.07421875
 10
0.0
 20
-2534.861328125
 10
0.0
 20
-2544.6484375
 10
0.0
 20
-2554.435546875
 10
0.0
 20
-2564.22265625
 10
0.0
 20
-2574.009765625
 10
0.0
 20
-2583.796875
 10
0.0
 20
-2593.583984375
 10
0.0
 20
-2603.37109375
 10
0.0
 20
-2613.158203125
 10
0.0
 20
-2622.9453125
 10
0.0
 20
-2632.732421875
 10
0.0
 20
-2642.51953125
 10
0.0
 20
-2652.306640625
 10
0.0
 20
-2662.09375
 10
0.0
 20
-2671.880859375
 10
0.0
 20
-2681.66796875
 10
0.0
 20
-2691.455078125
 10
0.0
 20
-2701.2421875
 10
0.0
 20
-2711.029296875
 10
0.0
 20
-2720.81640625
 10
0.0
 20
-2730.603515625
 10
0.0
 20
-2740.390625
 10
0.0
 20
-2750.177734375
 10
0.0
 20
-2759.96484375
 10
0.0
 20
-2769.751953125
 10
0.0
 20
-2779.5390625
 10
0.0
 20
-2789.326171875
 10
0.0
 20
-2799.11328125
 10
0.0
 20
-2808.900390625
 10
0.0
 20
-2818.6875
 10
0.0
 20
-2828.474609375
 10
0.0
 20
-2838.26171875
 10
0.0
 20
-2848.048828125
 10
0.0
 20
-2857.8359375
 10
0.0
 20
-2867.623046875
 10
0.0
 20
-2877.41015625
 10
0.0
 20
-2887.197265625
 10
0.0
 20
-2896.984375
 10
0.0
 20
-2906.771484375
 10
0.0
 20
-2916.55859375
 10
0.0
 20
-2926.345703125
 10
0.0
 20
-2936.1328125
 10
0.0
 20
-2945.919921875
 10
0.0
 20
-2955.70703125
 10
0.0
 20
-2965.494140625
 10
0.0
 20
-2975.28125
 10
0.0
 20
-2985.068359375
 10
0.0
 20
-2994.85546875
 10
0.0
 20
-3004.642578125
 10
0.0
 20
-3014.4296875
 10
0.0
 20
-3024.216796875
 10
0.0
 20
-3034.00390625
 10
0.0
 20
-3043.791015625
 10
0.0
 20
-3053.578125
 10
0.0
 20
-3063.365234375
 10
0.0
 20
-3073.15234375
 10
0.0
 20
-3082.939453125
 10
0.0
 20
-3092.7265625
 10
0.0
 20
-3102.513671875
 10
0.0
 20
-3112.30078125
 10
0.0
 20
-3122.087890625
 10
0.0
 20
-3131.875
 10
0.0
 20
-3141.662109375
 10
0.0
 20
-3151.44921875
 10
0.0
 20
-3161.236328125
 10
0.0
 20
-3171.0234375
 10
0.0
 20
-3180.810546875
 10
0.0
 20
-3190.59765625
 10
0.0
 20
-3200.384765625
 10
0.0
 20
-3210.171875
 10
0.0
 20
-3219.958984375
 10
0.0
 20
-3229.74609375
 10
0.0
 20
-3239.533203125
 10
0.0
 20
-3249.3203125
 10
0.0
 20
-3259.107421875
 10
0.0
 20
-3268.89453125
 10
0.0
 20
-3278.681640625
 10
0.0
 20
-3288.46875
 10
0.0
 20
-3298.255859375
 10
0.0
 20
-3308.04296875
 10
0.0
 20
-3317.830078125
 10
0.0
 20
-3327.6171875
 10
0.0
 20
-3337.404296875
 10
0.0
 20
-3347.19140625
 10
0.0
 20
-3356.978515625
 10
0.0
 20
-3366.765625
 10
0.0
 20
-3376.552734375
 10
0.0
 20
-3386.33984375
 10
0.0
 20
-3396.126953125
 10
0.0
 20
-3405.9140625
 10
0.0
 20
-3415.701171875
 10
0.0
 20
-3425.48828125
 10
0.0
 20
-3435.275390625
 10
0.0
 20
-3445.0625
 10
0.0
 20
-3454.849609375
 10
0.0
 20
-3464.63671875
 10
0.0
 20
-3474.423828125
 10
0.0
 20
-3484.2109375
 10
0.0
 20
-3493.998046875
 10
0.0
 20
-3503.78515625
 10
0.0
 20
-3513.572265625
 10
0.0
 20
-3523.359375
 10
0.0
 20
-3533.146484375
 10
0.0
 20
-3542.93359375
 10
0.0
 20
-3552.720703125
 10
0.0
 20
-3562.5078125
 10
0.0
 20
-3572.294921875
 10
0.0
 20
-3582.08203125
 10
0.0
 20
-3591.869140625
 10
0.0
 20
-3601.65625
 10
0.0
 20
-3611.443359375
 10
0.0
 20
-3621.23046875
 10
0.0
 20
-3631.017578125
 10
0.0
 20
-3640.8046875
 10
0.0
 20
-3650.591796875
 10
0.0
 20
-3660.37890625
 10
0.0
 20
-3670.166015625
 10
0.0
 20
-3679.953125
 10
0.0
 20
-3689.740234375
 10
0.0
 20
-3699.52734375
 10
0.0
 20
-3709.314453125
 10
0.0
 20
-3719.1015625
 10
0.0
 20
-3728.888671875
 10
0.0
 20
-3738.67578125
 10
0.0
 20
-3748.462890625
 10
0.0
 20
-3758.25
 10
0.0
 20
-3768.037109375
 10
0.0
 20
-3777.82421875
 10
0.0
 20
-3787.611328125
 10
0.0
 20
-3797.3984375
 10
0.0
 20
-3807.185546875
 10
0.0
 20
-3816.97265625
 10
0.0
 20
-3826.759765625
 10
0.0
 20
-3836.546875
 10
0.0
 20
-3846.333984375
 10
0.0
 20
-3856.12109375
 10
0.0
 20
-3865.908203125
 10
0.0
 20
-3875.6953125
 10
0.0
 20
-3885.482421875
 10
0.0
 20
-3895.26953125
 10
0.0
 20
-3905.056640625
 10
0.0
 20
-3914.84375
 10
0.0
 20
-3924.630859375
 10
0.0
 20
-3934.41796875
 10
0.0
 20
-3944.205078125
 10
0.0
 20
-3953.9921875
 10
0.0
 20
-3963.779296875
 10
0.0
 20
-3973.56640625
 10
0.0
 20
-3983.353515625
 10
0.0
 20
-3993.140625
 10
0.0
 20
-4002.927734375
 10
0.0
 20
-4012.71484375
 10
0.0
 20
-4022.501953125
 10
0.0
 20
-4032.2890625
 10
0.0
 20
-4042.076171875
 10
0.0
 20
-4051.86328125
 10
0.0
 20
-4061.650390625
 10
0.0
 20
-4071.4375
 10
0.0
 20
-4081.224609375
 10
0.0
 20
-4091.01171875
 10
0.0
 20
-4100.798828125
 10
0.0
 20
-4110.5859375
 10
0.0
 20
-4120.373046875
 10
0.0
 20
-4130.16015625
 10
0.0
 20
-4139.947265625
 10
0.0
 20
-4149.734375
 10
0.0
 20
-4159.521484375
 10
0.0
 20
-4169.30859375
 10
0.0
 20
-4179.095703125
 10
0.0
 20
-4188.8828125
 10
0.0
 20
-4198.669921875
 10
0.0
 20
-4208.45703125
 10
0.0
 20
-4218.244140625
 10
0.0
 20
-4228.03125
 10
0.0
 20
-4237.818359375
 10
0.0
 20
-4247.60546875
 10
0.0
 20
-4257.392578125
 10
0.0
 20
-4267.1796875
 10
0.0
 20
-4276.966796875
 10
0.0
 20
-4286.75390625
 10
0.0
 20
-4296.541015625
 10
0.0
 20
-4306.328125
 10
0.0
 20
-4316.115234375
 10
0.0
 20
-4325.90234375
 10
0.0
 20
-4335.689453125
 10
0.0
 20
-4345.4765625
 10
0.0
 20
-4355.263671875
 10
0.0
 20
-4365.05078125
 10
0.0
 20
-4374.837890625
 10
0.0
 20
-4384.625
 10
0.0
 20
-4394.412109375
 10
0.0
 20
-4404.19921875
 10
0.0
 20
-4413.986328125
 10
0.0
 20
-4423.7734375
 10
0.0
 20
-4433.560546875
 10
0.0
 20
-4443.34765625
 10
0.0
 20
-4453.134765625
 10
0.0
 20
-4462.921875
 10
0.0
 20
-4472.708984375
 10
0.0
 20
-4482.49609375
 10
0.0
 20
-4492.283203125
 10
0.0
 20
-4502.0703125
 10
0.0
 20
-4511.857421875
 10
0.0
 20
-4521.64453125
 10
0.0
 20
-4531.431640625
 10
0.0
 20
-4541.21875
 10
0.0
 20
-4551.005859375
 10
0.0
 20
-4560.79296875
 10
0.0
 20
-4570.580078125
 10
0.0
 20
-4580.3671875
 10
0.0
 20
-4590.154296875
 10
0.0
 20
-4599.94140625
 10
0.0
 20
-4609.728515625
 10
0.0
 20
-4619.515625
 10
0.0
 20
-4629.302734375
 10
0.0
 20
-4639.08984375
 10
0.0
 20
-4648.876953125
 10
0.0
 20
-4658.6640625
 10
0.0
 20
-4668.451171875
 10
0.0
 20
-4678.23828125
 10
0.0
 20
-4688.025390625
 10
0.0
 20
-4697.8125
 10
0.0
 20
-4707.599609375
 10
0.0
 20
-4717.38671875
 10
0.0
 20
-4727.173828125
 10
0.0
 20
-4736.9609375
 10
0.0
 20
-4746.748046875
 10
0.0
 20
-4756.53515625
 10
0.0
 20
-4766.322265625
 10
0.0
 20
-4776.109375
 10
0.0
 20
-4785.896484375
 10
0.0
 20
-4795.68359375
 10
0.0
 20
-4805.470703125
 10
0.0
 20
-4815.2578125
 10
0.0
 20
-4825.044921875
 10
0.0
 20
-4834.83203125
 10
0.0
 20
-4844.619140625
 10
0.0
 20
-4854.40625
 10
0.0
 20
-4864.193359375
 10
0.0
 20
-4873.98046875
 10
0.0
 20
-4883.767578125
 10
0.0
 20
-4893.5546875
 10
0.0
 20
-4903.341796875
 10
0.0
 20
-4913.12890625
 10
0.0
 20
-4922.916015625
 10
0.0
 20
-4932.703125
 10
0.0
 20
-4942.490234375
 10
0.0
 20
-4952.27734375
 10
0.0
 20
-4962.064453125
 10
0.0
 20
-4971.8515625
 10
0.0
 20
-4981.638671875
 10
0.0
 20
-4991.42578125
 10
0.0
 20
-5001.212890625
 10
9.787109375
 20
-5001.212890625
 10
19.57421875
 20
-5001.212890625
 10
29.361328125
 20
-5001.212890625
 10
39.1484375
 20
-5001.212890625
 10
48.935546875
 20
-5001.212890625
 10
58.72265625
 20
-5001.212890625
 10
68.509765625
 20
-5001.212890625
 10
78.296875
 20
-5001.212890625
 10
88.083984375
 20
-5001.212890625
 10
97.87109375
 20
-5001.212890625
 10
107.658203125
 20
-5001.212890625
 10
117.4453125
 20
-5001.212890625
 10
127.232421875
 20
-5001.212890625
 10
137.01953125
 20
-5001.212890625
 10
146.806640625
 20
-5001.212890625
 10
156.59375
 20
-5001.212890625
 10
166.380859375
 20
-5001.212890625
 10
176.16796875
 20
-5001.212890625
 10
185.955078125
 20
-5001.212890625
 10
195.7421875
 20
-5001.212890625
 10
205.529296875
 20
-5001.212890625
 10
215.31640625
 20
-5001.212890625
 10
225.103515625
 20
-5001.212890625
 10
234.890625
 20
-5001.212890625
 10
244.677734375
 20
-5001.212890625
 10
254.46484375
 20
-5001.212890625
 10
264.251953125
 20
-5001.212890625
 10
274.0390625
 20
-5001.212890625
 10
283.826171875
 20
-5001.212890625
 10
293.61328125
 20
-5001.212890625
 10
303.400390625
 20
-5001.212890625
 10
313.1875
 20
-5001.212890625
 10
322.974609375
 20
-5001.212890625
 10
332.76171875
 20
-5001.212890625
 10
342.548828125
 20
-5001.212890625
 10
352.3359375
 20
-5001.212890625
 10
362.123046875
 20
-5001.212890625
 10
371.91015625
 20
-5001.212890625
 10
381.697265625
 20
-5001.212890625
 10
391.484375
 20
-5001.212890625
 10
401.271484375
 20
-5001.212890625
 10
411.05859375
 20
-5001.212890625
 10
420.845703125
 20
-5001.212890625
 10
430.6328125
 20
-5001.212890625
 10
440.419921875
 20
-5001.212890625
 10
450.20703125
 20
-5001.212890625
 10
459.994140625
 20
-5001.212890625
 10
469.78125
 20
-5001.212890625
 10
479.568359375
 20
-5001.212890625
 10
489.35546875
 20
-5001.212890625
 10
499.142578125
 20
-5001.212890625
 10
508.9296875
 20
-5001.212890625
 10
518.716796875
 20
-5001.212890625
 10
528.50390625
 20
-5001.212890625
 10
538.291015625
 20
-5001.212890625
 10
548.078125
 20
-5001.212890625
 10
557.865234375
 20
-5001.212890625
 10
567.65234375
 20
-5001.212890625
 10
577.439453125
 20
-5001.212890625
 10
587.2265625
 20
-5001.212890625
 10
597.013671875
 20
-5001.212890625
 10
606.80078125
 20
-5001.212890625
 10
616.587890625
 20
-5001.212890625
 10
626.375
 20
-5001.212890625
 10
636.162109375
 20
-5001.212890625
 10
645.94921875
 20
-5001.212890625
 10
655.736328125
 20
-5001.212890625
 10
665.5234375
 20
-5001.212890625
 10
675.310546875
 20
-5001.212890625
 10
685.09765625
 20
-5001.212890625
 10
694.884765625
 20
-5001.212890625
 10
704.671875
 20
-5001.212890625
 10
714.458984375
 20
-5001.212890625
 10
724.24609375
 20
-5001.212890625
 10
734.033203125
 20
-5001.212890625
 10
743.8203125
 20
-5001.212890625
 10
753.607421875
 20
-5001.212890625
 10
763.39453125
 20
-5001.212890625
 10
773.181640625
 20
-5001.212890625
 10
782.96875
 20
-5001.212890625
 10
792.755859375
 20
-5001.212890625
 10
802.54296875
 20
-5001.212890625
 10
812.330078125
 20
-5001.212890625
 10
822.1171875
 20
-5001.212890625
 10
831.904296875
 20
-5001.212890625
 10
841.69140625
 20
-5001.212890625
 10
851.478515625
 20
-5001.212890625
 10
861.265625
 20
-5001.212890625
 10
871.052734375
 20
-5001.212890625
 10
880.83984375
 20
-5001.212890625
 10
890.626953125
 20
-5001.212890625
 10
900.4140625
 20
-5001.212890625
 10
910.201171875
 20
-5001.212890625
 10
919.98828125
 20
-5001.212890625
 10
929.775390625
 20
-5001.212890625
 10
939.5625
 20
-5001.212890625
 10
949.349609375
 20
-5001.212890625
 10
959.13671875
 20
-5001.212890625
 10
968.923828125
 20
-5001.212890625
 10
978.7109375
 20
-5001.212890625
 10
988.498046875
 20
-5001.212890625
 10
998.28515625
 20
-5001.212890625
 10
1008.072265625
 20
-5001.212890625
 10
1017.859375
 20
-5001.212890625
 10
1027.646484375
 20
-5001.212890625
 10
1037.43359375
 20
-5001.212890625
 10
1047.220703125
 20
-5001.212890625
 10
1057.0078125
 20
-5001.212890625
 10
1066.794921875
 20
-5001.212890625
 10
1076.58203125
 20
-5001.212890625
 10
1086.369140625
 20
-5001.212890625
 10
1096.15625
 20
-5001.212890625
 10
1105.943359375
 20
-5001.212890625
 10
1115.73046875
 20
-5001.212890625
 10
1125.517578125
 20
-5001.212890625
 10
1135.3046875
 20
-5001.212890625
 10
1145.091796875
 20
-5001.212890625
 10
1154.87890625
 20
-5001.212890625
 10
1164.666015625
 20
-5001.212890625
 10
1174.453125
 20
-5001.212890625
 10
1184.240234375
 20
-5001.212890625
 10
1194.02734375
 20
-5001.212890625
 10
1203.814453125
 20
-5001.212890625
 10
1213.6015625
 20
-5001.212890625
 10
1223.388671875
 20
-5001.212890625
 10
1233.17578125
 20
-5001.212890625
 10
1242.962890625
 20
-5001.212890625
 10
1252.75
 20
-5001.212890625
 10
1262.537109375
 20
-5001.212890625
 10
1272.32421875
 20
-5001.212890625
 10
1282.111328125
 20
-5001.212890625
 10
1291.8984375
 20
-5001.212890625
 10
1301.685546875
 20
-5001.212890625
 10
1311.47265625
 20
-5001.212890625
 10
1321.259765625
 20
-5001.212890625
 10
1331.046875
 20
-5001.212890625
 10
1340.833984375
 20
-5001.212890625
 10
1350.62109375
 20
-5001.212890625
 10
1360.408203125
 20
-5001.212890625
 10
1370.1953125
 20
-5001.212890625
 10
1379.982421875
 20
-5001.212890625
 10
1389.76953125
 20
-5001.212890625
 10
1399.556640625
 20
-5001.212890625
 10
1409.34375
 20
-5001.212890625
 10
1419.130859375
 20
-5001.212890625
 10
1428.91796875
 20
-5001.212890625
 10
1438.705078125
 20
-5001.212890625
 10
1448.4921875
 20
-5001.212890625
 10
1458.279296875
 20
-5001.212890625
 10
1468.06640625
 20
-5001.212890625
 10
1477.853515625
 20
-5001.212890625
 10
1487.640625
 20
-5001.212890625
 10
1497.427734375
 20
-5001.212890625
 10
1507.21484375
 20
-5001.212890625
 10
1517.001953125
 20
-5001.212890625
 10
1526.7890625
 20
-5001.212890625
 10
1536.576171875
 20
-5001.212890625
 10
1546.36328125
 20
-5001.212890625
 10
1556.150390625
 20
-5001.212890625
 10
1565.9375
 20
-5001.212890625
 10
1575.724609375
 20
-5001.212890625
 10
1585.51171875
 20
-5001.212890625
 10
1595.298828125
 20
-5001.212890625
 10
1605.0859375
 20
-5001.212890625
 10
1614.873046875
 20
-5001.212890625
 10
1624.66015625
 20
-5001.212890625
 10
1634.447265625
 20
-5001.212890625
 10
1644.234375
 20
-5001.212890625
 10
1654.021484375
 20
-5001.212890625
 10
1663.80859375
 20
-5001.212890625
 10
1673.595703125
 20
-5001.212890625
 10
1683.3828125
 20
-5001.212890625
 10
1693.169921875
 20
-5001.212890625
 10
1702.95703125
 20
-5001.212890625
 10
1712.744140625
 20
-5001.212890625
 10
1722.53125
 20
-5001.212890625
 10
1732.318359375
 20
-5001.212890625
 10
1742.10546875
 20
-5001.212890625
 10
1751.892578125
 20
-5001.212890625
 10
1761.6796875
 20
-5001.212890625
 10
1771.466796875
 20
-5001.212890625
 10
1781.25390625
 20
-5001.212890625
 10
1791.041015625
 20
-5001.212890625
 10
1800.828125
 20
-5001.212890625
 10
1810.615234375
 20
-5001.212890625
 10
1820.40234375
 20
-5001.212890625
 10
1830.189453125
 20
-5001.212890625
 10
1839.9765625
 20
-5001.212890625
 10
1849.763671875
 20
-5001.212890625
 10
1859.55078125
 20
-5001.212890625
 10
1869.337890625
 20
-5001.212890625
 10
1879.125
 20
-5001.212890625
 10
1888.912109375
 20
-5001.212890625
 10
1898.69921875
 20
-5001.212890625
 10
1908.486328125
 20
-5001.212890625
 10
1918.2734375
 20
-5001.212890625
 10
1928.060546875
 20
-5001.212890625
 10
1937.84765625
 20
-5001.212890625
 10
1947.634765625
 20
-5001.212890625
 10
1957.421875
 20
-5001.212890625
 10
1967.208984375
 20
-5001.212890625
 10
1976.99609375
 20
-5001.212890625
 10
1986.783203125
 20
-5001.212890625
 10
1996.5703125
 20
-5001.212890625
 10
2006.357421875
 20
-5001.212890625
 10
2016.14453125
 20
-5001.212890625
 10
2025.931640625
 20
-5001.212890625
 10
2035.71875
 20
-5001.212890625
 10
2045.505859375
 20
-5001.212890625
 10
2055.29296875
 20
-5001.212890625
 10
2065.080078125
 20
-5001.212890625
 10
2074.8671875
 20
-5001.212890625
 10
2084.654296875
 20
-5001.212890625
 10
2094.44140625
 20
-5001.212890625
 10
2104.228515625
 20
-5001.212890625
 10
2114.015625
 20
-5001.212890625
 10
2123.802734375
 20
-5001.212890625
 10
2133.58984375
 20
-5001.212890625
 10
2143.376953125
 20
-5001.212890625
 10
2153.1640625
 20
-5001.212890625
 10
2162.951171875
 20
-5001.212890625
 10
2172.73828125
 20
-5001.212890625
 10
2182.525390625
 20
-5001.212890625
 10
2192.3125
 20
-5001.212890625
 10
2202.099609375
 20
-5001.212890625
 10
2211.88671875
 20
-5001.212890625
 10
2221.673828125
 20
-5001.212890625
 10
2231.4609375
 20
-5001.212890625
 10
2241.248046875
 20
-5001.212890625
 10
2251.03515625
 20
-5001.212890625
 10
2260.822265625
 20
-5001.212890625
 10
2270.609375
 20
-5001.212890625
 10
2280.396484375
 20
-5001.212890625
 10
2290.18359375
 20
-5001.212890625
 10
2299.970703125
 20
-5001.212890625
 10
2309.7578125
 20
-5001.212890625
 10
2319.544921875
 20
-5001.212890625
 10
2329.33203125
 20
-5001.212890625
 10
2339.119140625
 20
-5001.212890625
 10
2348.90625
 20
-5001.212890625
 10
2358.693359375
 20
-5001.212890625
 10
2368.48046875
 20
-5001.212890625
 10
2378.267578125
 20
-5001.212890625
 10
2388.0546875
 20
-5001.212890625
 10
2397.841796875
 20
-5001.212890625
 10
2407.62890625
 20
-5001.212890625
 10
2417.416015625
 20
-5001.212890625
 10
2427.203125
 20
-5001.212890625
 10
2436.990234375
 20
-5001.212890625
 10
2446.77734375
 20
-5001.212890625
 10
2456.564453125
 20
-5001.212890625
 10
2466.3515625
 20
-5001.212890625
 10
2476.138671875
 20
-5001.212890625
 10
2485.92578125
 20
-5001.212890625
 10
2495.712890625
 20
-5001.212890625
 10
2505.5
 20
-5001.212890625
 10
2515.287109375
 20
-5001.212890625
 10
2525.07421875
 20
-5001.212890625
 10
2534.861328125
 20
-5001.212890625
 10
2544.6484375
 20
-5001.212890625
 10
2554.435546875
 20
-5001.212890625
 10
2564.22265625
 20
-5001.212890625
 10
2574.009765625
 20
-5001.212890625
 10
2583.796875
 20
-5001.212890625
 10
2593.583984375
 20
-5001.212890625
 10
2603.37109375
 20
-5001.212890625
 10
2613.158203125
 20
-5001.212890625
 10
2622.9453125
 20
-5001.212890625
 10
2632.732421875
 20
-5001.212890625
 10
2642.51953125
 20
-5001.212890625
 10
2652.306640625
 20
-5001.212890625
 10
2662.09375
 20
-5001.212890625
 10
2671.880859375
 20
-5001.212890625
 10
2681.66796875
 20
-5001.212890625
 10
2691.455078125
 20
-5001.212890625
 10
2701.2421875
 20
-5001.212890625
 10
2711.029296875
 20
-5001.212890625
 10
2720.81640625
 20
-5001.212890625
 10
2730.603515625
 20
-5001.212890625
 10
2740.390625
 20
-5001.212890625
 10
2750.177734375
 20
-5001.212890625
 10
2759.96484375
 20
-5001.212890625
 10
2769.751953125
 20
-5001.212890625
 10
2779.5390625
 20
-5001.212890625
 10
2789.326171875
 20
-5001.212890625
 10
2799.11328125
 20
-5001.212890625
 10
2808.900390625
 20
-5001.212890625
 10
2818.6875
 20
-5001.212890625
 10
2828.474609375
 20
-5001.212890625
 10
2838.26171875
 20
-5001.212890625
 10
2848.048828125
 20
-5001.212890625
 10
2857.8359375
 20
-5001.212890625
 10
2867.623046875
 20
-5001.212890625
 10
2877.41015625
 20
-5001.212890625
 10
2887.197265625
 20
-5001.212890625
 10
2896.984375
 20
-5001.212890625
 10
2906.771484375
 20
-5001.212890625
 10
2916.55859375
 20
-5001.212890625
 10
2926.345703125
 20
-5001.212890625
 10
2936.1328125
 20
-5001.212890625
 10
2945.919921875
 20
-5001.212890625
 10
2955.70703125
 20
-5001.212890625
 10
2965.494140625
 20
-5001.212890625
 10
2975.28125
 20
-5001.212890625
 10
2985.068359375
 20
-5001.212890625
 10
2994.85546875
 20
-5001.212890625
 10
3004.642578125
 20
-5001.212890625
 10
3014.4296875
 20
-5001.212890625
 10
3024.216796875
 20
-5001.212890625
 10
3034.00390625
 20
-5001.212890625
 10
3043.791015625
 20
-5001.212890625
 10
3053.578125
 20
-5001.212890625
 10
3063.365234375
 20
-5001.212890625
 10
3073.15234375
 20
-5001.212890625
 10
3082.939453125
 20
-5001.212890625
 10
3092.7265625
 20
-5001.212890625
 10
3102.513671875
 20
-5001.212890625
 10
3112.30078125
 20
-5001.212890625
 10
3122.087890625
 20
-5001.212890625
 10
3131.875
 20
-5001.212890625
 10
3141.662109375
 20
-5001.212890625
 10
3151.44921875
 20
-5001.212890625
 10
3161.236328125
 20
-5001.212890625
 10
3171.0234375
 20
-5001.212890625
 10
3180.810546875
 20
-5001.212890625
 10
3190.59765625
 20
-5001.212890625
 10
3200.384765625
 20
-5001.212890625
 10
3210.171875
 20
-5001.212890625
 10
3219.958984375
 20
-5001.212890625
 10
3229.74609375
 20
-5001.212890625
 10
3239.533203125
 20
-5001.212890625
 10
3249.3203125
 20
-5001.212890625
 10
3259.107421875
 20
-5001.212890625
 10
3268.89453125
 20
-5001.212890625
 10
3278.681640625
 20
-5001.212890625
 10
3288.46875
 20
-5001.212890625
 10
3298.255859375
 20
-5001.212890625
 10
3308.04296875
 20
-5001.212890625
 10
3317.830078125
 20
-5001.212890625
 10
3327.6171875
 20
-5001.212890625
 10
3337.404296875
 20
-5001.212890625
 10
3347.19140625
 20
-5001.212890625
 10
3356.978515625
 20
-5001.212890625
 10
3366.765625
 20
-5001.212890625
 10
3376.552734375
 20
-5001.212890625
 10
3386.33984375
 20
-5001.212890625
 10
3396.126953125
 20
-5001.212890625
 10
3405.9140625
 20
-5001.212890625
 10
3415.701171875
 20
-5001.212890625
 10
3425.48828125
 20
-5001.212890625
 10
3435.275390625
 20
-5001.212890625
 10
3445.0625
 20
-5001.212890625
 10
3454.849609375
 20
-5001.212890625
 10
3464.63671875
 20
-5001.212890625
 10
3474.423828125
 20
-5001.212890625
 10
3484.2109375
 20
-5001.212890625
 10
3493.998046875
 20
-5001.212890625
 10
3503.78515625
 20
-5001.212890625
 10
3513.572265625
 20
-5001.212890625
 10
3523.359375
 20
-5001.212890625
 10
3533.146484375
 20
-5001.212890625
 10
3542.93359375
 20
-5001.212890625
 10
3552.720703125
 20
-5001.212890625
 10
3562.5078125
 20
-5001.212890625
 10
3572.294921875
 20
-5001.212890625
 10
3582.08203125
 20
-5001.212890625
 10
3591.869140625
 20
-5001.212890625
 10
3601.65625
 20
-5001.212890625
 10
3611.443359375
 20
-5001.212890625
 10
3621.23046875
 20
-5001.212890625
 10
3631.017578125
 20
-5001.212890625
 10
3640.8046875
 20
-5001.212890625
 10
3650.591796875
 20
-5001.212890625
 10
3660.37890625
 20
-5001.212890625
 10
3670.166015625
 20
-5001.212890625
 10
3679.953125
 20
-5001.212890625
 10
3689.740234375
 20
-5001.212890625
 10
3699.52734375
 20
-5001.212890625
 10
3709.314453125
 20
-5001.212890625
 10
3719.1015625
 20
-5001.212890625
 10
3728.888671875
 20
-5001.212890625
 10
3738.67578125
 20
-5001.212890625
 10
3748.462890625
 20
-5001.212890625
 10
3758.25
 20
-5001.212890625
 10
3768.037109375
 20
-5001.212890625
 10
3777.82421875
 20
-5001.212890625
 10
3787.611328125
 20
-5001.212890625
 10
3797.3984375
 20
-5001.212890625
 10
3807.185546875
 20
-5001.212890625
 10
3816.97265625
 20
-5001.212890625
 10
3826.759765625
 20
-5001.212890625
 10
3836.546875
 20
-5001.212890625
 10
3846.333984375
 20
-5001.212890625
 10
3856.12109375
 20
-5001.212890625
 10
3865.908203125
 20
-5001.212890625
 10
3875.6953125
 20
-5001.212890625
 10
3885.482421875
 20
-5001.212890625
 10
3895.26953125
 20
-5001.212890625
 10
3905.056640625
 20
-5001.212890625
 10
3914.84375
 20
-5001.212890625
 10
3924.630859375
 20
-5001.212890625
 10
3934.41796875
 20
-5001.212890625
 10
3944.205078125
 20
-5001.212890625
 10
3953.9921875
 20
-5001.212890625
 10
3963.779296875
 20
-5001.212890625
 10
3973.56640625
 20
-5001.212890625
 10
3983.353515625
 20
-5001.212890625
 10
3993.140625
 20
-5001.212890625
 10
4002.927734375
 20
-5001.212890625
 10
4012.71484375
 20
-5001.212890625
 10
4022.501953125
 20
-5001.212890625
 10
4032.2890625
 20
-5001.212890625
 10
4042.076171875
 20
-5001.212890625
 10
4051.86328125
 20
-5001.212890625
 10
4061.650390625
 20
-5001.212890625
 10
4071.4375
 20
-5001.212890625
 10
4081.224609375
 20
-5001.212890625
 10
4091.01171875
 20
-5001.212890625
 10
4100.798828125
 20
-5001.212890625
 10
4110.5859375
 20
-5001.212890625
 10
4120.373046875
 20
-5001.212890625
 10
4130.16015625
 20
-5001.212890625
 10
4139.947265625
 20
-5001.212890625
 10
4149.734375
 20
-5001.212890625
 10
4159.521484375
 20
-5001.212890625
 10
4169.30859375
 20
-5001.212890625
 10
4179.095703125
 20
-5001.212890625
 10
4188.8828125
 20
-5001.212890625
 10
4198.669921875
 20
-5001.212890625
 10
4208.45703125
 20
-5001.212890625
 10
4218.244140625
 20
-5001.212890625
 10
4228.03125
 20
-5001.212890625
 10
4237.818359375
 20
-5001.212890625
 10
4247.60546875
 20
-5001.212890625
 10
4257.392578125
 20
-5001.212890625
 10
4267.1796875
 20
-5001.212890625
 10
4276.966796875
 20
-5001.212890625
 10
4286.75390625
 20
-5001.212890625
 10
4296.541015625
 20
-5001.212890625
 10
4306.328125
 20
-5001.212890625
 10
4316.115234375
 20
-5001.212890625
 10
4325.90234375
 20
-5001.212890625
 10
4335.689453125
 20
-5001.212890625
 10
4345.4765625
 20
-5001.212890625
 10
4355.263671875
 20
-5001.212890625
 10
4365.05078125
 20
-5001.212890625
 10
4374.837890625
 20
-5001.212890625
 10
4384.625
 20
-5001.212890625
 10
4394.412109375
 20
-5001.212890625
 10
4404.19921875
 20
-5001.212890625
 10
4413.986328125
 20
-5001.212890625
 10
4423.7734375
 20
-5001.212890625
 10
4433.560546875
 20
-5001.212890625
 10
4443.34765625
 20
-5001.212890625
 10
4453.134765625
 20
-5001.212890625
 10
4462.921875
 20
-5001.212890625
 10
4472.708984375
 20
-5001.212890625
 10
4482.49609375
 20
-5001.212890625
 10
4492.283203125
 20
-5001.212890625
 10
4502.0703125
 20
-5001.212890625
 10
4511.857421875
 20
-5001.212890625
 10
4521.64453125
 20
-5001.212890625
 10
4531.431640625
 20
-5001.212890625
 10
4541.21875
 20
-5001.212890625
 10
4551.005859375
 20
-5001.212890625
 10
4560.79296875
 20
-5001.212890625
 10
4570.580078125
 20
-5001.212890625
 10
4580.3671875
 20
-5001.212890625
 10
4590.154296875
 20
-5001.212890625
 10
4599.94140625
 20
-5001.212890625
 10
4609.728515625
 20
-5001.212890625
 10
4619.515625
 20
-5001.212890625
 10
4629.302734375
 20
-5001.212890625
 10
4639.08984375
 20
-5001.212890625
 10
4648.876953125
 20
-5001.212890625
 10
4658.6640625
 20
-5001.212890625
 10
4668.451171875
 20
-5001.212890625
 10
4678.23828125
 20
-5001.212890625
 10
4688.025390625
 20
-5001.212890625
 10
4697.8125
 20
-5001.212890625
 10
4707.599609375
 20
-5001.212890625
 10
4717.38671875
 20
-5001.212890625
 10
4727.173828125
 20
-5001.212890625
 10
4736.9609375
 20
-5001.212890625
 10
4746.748046875
 20
-5001.212890625
 10
4756.53515625
 20
-5001.212890625
 10
4766.322265625
 20
-5001.212890625
 10
4776.109375
 20
-5001.212890625
 10
4785.896484375
 20
-5001.212890625
 10
4795.68359375
 20
-5001.212890625
 10
4805.470703125
 20
-5001.212890625
 10
4815.2578125
 20
-5001.212890625
 10
4825.044921875
 20
-5001.212890625
 10
4834.83203125
 20
-5001.212890625
 10
4844.619140625
 20
-5001.212890625
 10
4854.40625
 20
-5001.212890625
 10
4864.193359375
 20
-5001.212890625
 10
4873.98046875
 20
-5001.212890625
 10
4883.767578125
 20
-5001.212890625
 10
4893.5546875
 20
-5001.212890625
 10
4903.341796875
 20
-5001.212890625
 10
4913.12890625
 20
-5001.212890625
 10
4922.916015625
 20
-5001.212890625
 10
4932.703125
 20
-5001.212890625
 10
4942.490234375
 20
-5001.212890625
 10
4952.27734375
 20
-5001.212890625
 10
4962.064453125
 20
-5001.212890625
 10
4971.8515625
 20
-5001.212890625
 10
4981.638671875
 20
-5001.212890625
 10
4991.42578125
 20
-5001.212890625
 10
5001.212890625
 20
-5001.212890625
 10
5001.212890625
 20
-4991.42578125
 10
5001.212890625
 20
-4981.638671875
 10
5001.212890625
 20
-4971.8515625
 10
5001.212890625
 20
-4962.064453125
 10
5001.212890625
 20
-4952.27734375
 10
5001.212890625
 20
-4942.490234375
 10
5001.212890625
 20
-4932.703125
 10
5001.212890625
 20
-4922.916015625
 10
5001.212890625
 20
-4913.12890625
 10
5001.212890625
 20
-4903.341796875
 10
5001.212890625
 20
-4893.5546875
 10
5001.212890625
 20
-4883.767578125
 10
5001.212890625
 20
-4873.98046875
 10
5001.212890625
 20
-4864.193359375
 10
5001.212890625
 20
-4854.40625
 10
5001.212890625
 20
-4844.619140625
 10
5001.212890625
 20
-4834.83203125
 10
5001.212890625
 20
-4825.044921875
 10
5001.212890625
 20
-4815.2578125
 10
5001.212890625
 20
-4805.470703125
 10
5001.212890625
 20
-4795.68359375
 10
5001.212890625
 20
-4785.896484375
 10
5001.212890625
 20
-4776.109375
 10
5001.212890625
 20
-4766.322265625
 10
5001.212890625
 20
-4756.53515625
 10
5001.212890625
 20
-4746.748046875
 10
5001.212890625
 20
-4736.9609375
 10
5001.212890625
 20
-4727.173828125
 10
5001.212890625
 20
-4717.38671875
 10
5001.212890625
 20
-4707.599609375
 10
5001.212890625
 20
-4697.8125
 10
5001.212890625
 20
-4688.025390625
 10
5001.212890625
 20
-4678.23828125
 10
5001.212890625
 20
-4668.451171875
 10
5001.212890625
 20
-4658.6640625
 10
5001.212890625
 20
-4648.876953125
 10
5001.212890625
 20
-4639.08984375
 10
5001.212890625
 20
-4629.302734375
 10
5001.212890625
 20
-4619.515625
 10
5001.212890625
 20
-4609.728515625
 10
5001.212890625
 20
-4599.94140625
 10
5001.212890625
 20
-4590.154296875
 10
5001.212890625
 20
-4580.3671875
 10
5001.212890625
 20
-4570.580078125
 10
5001.212890625
 20
-4560.79296875
 10
5001.212890625
 20
-4551.005859375
 10
5001.212890625
 20
-4541.21875
 10
5001.212890625
 20
-4531.431640625
 10
5001.212890625
 20
-4521.64453125
 10
5001.212890625
 20
-4511.857421875
 10
5001.212890625
 20
-4502.0703125
 10
5001.212890625
 20
-4492.283203125
 10
5001.212890625
 20
-4482.49609375
 10
5001.212890625
 20
-4472.708984375
 10
5001.212890625
 20
-4462.921875
 10
5001.212890625
 20
-4453.134765625
 10
5001.212890625
 20
-4443.34765625
 10
5001.212890625
 20
-4433.560546875
 10
5001.212890625
 20
-4423.7734375
 10
5001.212890625
 20
-4413.986328125
 10
5001.212890625
 20
-4404.19921875
 10
5001.212890625
 20
-4394.412109375
 10
5001.212890625
 20
-4384.625
 10
5001.212890625
 20
-4374.837890625
 10
5001.212890625
 20
-4365.05078125
 10
5001.212890625
 20
-4355.263671875
 10
5001.212890625
 20
-4345.4765625
 10
5001.212890625
 20
-4335.689453125
 10
5001.212890625
 20
-4325.90234375
 10
5001.212890625
 20
-4316.115234375
 10
5001.212890625
 20
-4306.328125
 10
5001.212890625
 20
-4296.541015625
 10
5001.212890625
 20
-4286.75390625
 10
5001.212890625
 20
-4276.966796875
 10
5001.212890625
 20
-4267.1796875
 10
5001.212890625
 20
-4257.392578125
 10
5001.212890625
 20
-4247.60546875
 10
5001.212890625
 20
-4237.818359375
 10
5001.212890625
 20
-4228.03125
 10
5001.212890625
 20
-4218.244140625
 10
5001.212890625
 20
-4208.45703125
 10
5001.212890625
 20
-4198.669921875
 10
5001.212890625
 20
-4188.8828125
 10
5001.212890625
 20
-4179.095703125
 10
5001.212890625
 20
-4169.30859375
 10
5001.212890625
 20
-4159.521484375
 10
5001.212890625
 20
-4149.734375
 10
5001.212890625
 20
-4139.947265625
 10
5001.212890625
 20
-4130.16015625
 10
5001.212890625
 20
-4120.373046875
 10
5001.212890625
 20
-4110.5859375
 10
5001.212890625
 20
-4100.798828125
 10
5001.212890625
 20
-4091.01171875
 10
5001.212890625
 20
-4081.224609375
 10
5001.212890625
 20
-4071.4375
 10
5001.212890625
 20
-4061.650390625
 10
5001.212890625
 20
-4051.86328125
 10
5001.212890625
 20
-4042.076171875
 10
5001.212890625
 20
-4032.2890625
 10
5001.212890625
 20
-4022.501953125
 10
5001.212890625
 20
-4012.71484375
 10
5001.212890625
 20
-4002.927734375
 10
5001.212890625
 20
-3993.140625
 10
5001.212890625
 20
-3983.353515625
 10
5001.212890625
 20
-3973.56640625
 10
5001.212890625
 20
-3963.779296875
 10
5001.212890625
 20
-3953.9921875
 10
5001.212890625
 20
-3944.205078125
 10
5001.212890625
 20
-3934.41796875
 10
5001.212890625
 20
-3924.630859375
 10
5001.212890625
 20
-3914.84375
 10
5001.212890625
 20
-3905.056640625
 10
5001.212890625
 20
-3895.26953125
 10
5001.212890625
 20
-3885.482421875
 10
5001.212890625
 20
-3875.6953125
 10
5001.212890625
 20
-3865.908203125
 10
5001.212890625
 20
-3856.12109375
 10
5001.212890625
 20
-3846.333984375
 10
5001.212890625
 20
-3836.546875
 10
5001.212890625
 20
-3826.759765625
 10
5001.212890625
 20
-3816.97265625
 10
5001.212890625
 20
-3807.185546875
 10
5001.212890625
 20
-3797.3984375
 10
5001.212890625
 20
-3787.611328125
 10
5001.212890625
 20
-3777.82421875
 10
5001.212890625
 20
-3768.037109375
 10
5001.212890625
 20
-3758.25
 10
5001.212890625
 20
-3748.462890625
 10
5001.212890625
 20
-3738.67578125
 10
5001.212890625
 20
-3728.888671875
 10
5001.212890625
 20
-3719.1015625
 10
5001.212890625
 20
-3709.314453125
 10
5001.212890625
 20
-3699.52734375
 10
5001.212890625
 20
-3689.740234375
 10
5001.212890625
 20
-3679.953125
 10
5001.212890625
 20
-3670.166015625
 10
5001.212890625
 20
-3660.37890625
 10
5001.212890625
 20
-3650.591796875
 10
5001.212890625
 20
-3640.8046875
 10
5001.212890625
 20
-3631.017578125
 10
5001.212890625
 20
-3621.23046875
 10
5001.212890625
 20
-3611.443359375
 10
5001.212890625
 20
-3601.65625
 10
5001.212890625
 20
-3591.869140625
 10
5001.212890625
 20
-3582.08203125
 10
5001.212890625
 20
-3572.294921875
 10
5001.212890625
 20
-3562.5078125
 10
5001.212890625
 20
-3552.720703125
 10
5001.212890625
 20
-3542.93359375
 10
5001.212890625
 20
-3533.146484375
 10
5001.212890625
 20
-3523.359375
 10
5001.212890625
 20
-3513.572265625
 10
5001.212890625
 20
-3503.78515625
 10
5001.212890625
 20
-3493.998046875
 10
5001.212890625
 20
-3484.2109375
 10
5001.212890625
 20
-3474.423828125
 10
5001.212890625
 20
-3464.63671875
 10
5001.212890625
 20
-3454.849609375
 10
5001.212890625
 20
-3445.0625
 10
5001.212890625
 20
-3435.275390625
 10
5001.212890625
 20
-3425.48828125
 10
5001.212890625
 20
-3415.701171875
 10
5001.212890625
 20
-3405.9140625
 10
5001.212890625
 20
-3396.126953125
 10
5001.212890625
 20
-3386.33984375
 10
5001.212890625
 20
-3376.552734375
 10
5001.212890625
 20
-3366.765625
 10
5001.212890625
 20
-3356.978515625
 10
5001.212890625
 20
-3347.19140625
 10
5001.212890625
 20
-3337.404296875
 10
5001.212890625
 20
-3327.6171875
 10
5001.212890625
 20
-3317.830078125
 10
5001.212890625
 20
-3308.04296875
 10
5001.212890625
 20
-3298.255859375
 10
5001.212890625
 20
-3288.46875
 10
5001.212890625
 20
-3278.681640625
 10
5001.212890625
 20
-3268.89453125
 10
5001.212890625
 20
-3259.107421875
 10
5001.212890625
 20
-3249.3203125
 10
5001.212890625
 20
-3239.533203125
 10
5001.212890625
 20
-3229.74609375
 10
5001.212890625
 20
-3219.958984375
 10
5001.212890625
 20
-3210.171875
 10
5001.212890625
 20
-3200.384765625
 10
5001.212890625
 20
-3190.59765625
 10
5001.212890625
 20
-3180.810546875
 10
5001.212890625
 20
-3171.0234375
 10
5001.212890625
 20
-3161.236328125
 10
5001.212890625
 20
-3151.44921875
 10
5001.212890625
 20
-3141.662109375
 10
5001.212890625
 20
-3131.875
 10
5001.212890625
 20
-3122.087890625
 10
5001.212890625
 20
-3112.30078125
 10
5001.212890625
 20
-3102.513671875
 10
5001.212890625
 20
-3092.7265625
 10
5001.212890625
 20
-3082.939453125
 10
5001.212890625
 20
-3073.15234375
 10
5001.212890625
 20
-3063.365234375
 10
5001.212890625
 20
-3053.578125
 10
5001.212890625
 20
-3043.791015625
 10
5001.212890625
 20
-3034.00390625
 10
5001.212890625
 20
-3024.216796875
 10
5001.212890625
 20
-3014.4296875
 10
5001.212890625
 20
-3004.642578125
 10
5001.212890625
 20
-2994.85546875
 10
5001.212890625
 20
-2985.068359375
 10
5001.212890625
 20
-2975.28125
 10
5001.212890625
 20
-2965.494140625
 10
5001.212890625
 20
-2955.70703125
 10
5001.212890625
 20
-2945.919921875
 10
5001.212890625
 20
-2936.1328125
 10
5001.212890625
 20
-2926.345703125
 10
5001.212890625
 20
-2916.55859375
 10
5001.212890625
 20
-2906.771484375
 10
5001.212890625
 20
-2896.984375
 10
5001.212890625
 20
-2887.197265625
 10
5001.212890625
 20
-2877.41015625
 10
5001.212890625
 20
-2867.623046875
 10
5001.212890625
 20
-2857.8359375
 10
5001.212890625
 20
-2848.048828125
 10
5001.212890625
 20
-2838.26171875
 10
5001.212890625
 20
-2828.474609375
 10
5001.212890625
 20
-2818.6875
 10
5001.212890625
 20
-2808.900390625
 10
5001.212890625
 20
-2799.11328125
 10
5001.212890625
 20
-2789.326171875
 10
5001.212890625
 20
-2779.5390625
 10
5001.212890625
 20
-2769.751953125
 10
5001.212890625
 20
-2759.96484375
 10
5001.212890625
 20
-2750.177734375
 10
5001.212890625
 20
-2740.390625
 10
5001.212890625
 20
-2730.603515625
 10
5001.212890625
 20
-2720.81640625
 10
5001.212890625
 20
-2711.029296875
 10
5001.212890625
 20
-2701.2421875
 10
5001.212890625
 20
-2691.455078125
 10
5001.212890625
 20
-2681.66796875
 10
5001.212890625
 20
-2671.880859375
 10
5001.212890625
 20
-2662.09375
 10
5001.212890625
 20
-2652.306640625
 10
5001.212890625
 20
-2642.51953125
 10
5001.212890625
 20
-2632.732421875
 10
5001.212890625
 20
-2622.9453125
 10
5001.212890625
 20
-2613.158203125
 10
5001.212890625
 20
-2603.37109375
 10
5001.212890625
 20
-2593.583984375
 10
5001.212890625
 20
-2583.796875
 10
5001.212890625
 20
-2574.009765625
 10
5001.212890625
 20
-2564.22265625
 10
5001.212890625
 20
-2554.435546875
 10
5001.212890625
 20
-2544.6484375
 10
5001.212890625
 20
-2534.861328125
 10
5001.212890625
 20
-2525.07421875
 10
5001.212890625
 20
-2515.287109375
 10
5001.212890625
 20
-2505.5
 10
5001.212890625
 20
-2495.712890625
 10
5001.212890625
 20
-2485.92578125
 10
5001.212890625
 20
-2476.138671875
 10
5001.212890625
 20
-2466.3515625
 10
5001.212890625
 20
-2456.564453125
 10
5001.212890625
 20
-2446.77734375
 10
5001.212890625
 20
-2436.990234375
 10
5001.212890625
 20
-2427.203125
 10
5001.212890625
 20
-2417.416015625
 10
5001.212890625
 20
-2407.62890625
 10
5001.212890625
 20
-2397.841796875
 10
5001.212890625
 20
-2388.0546875
 10
5001.212890625
 20
-2378.267578125
 10
5001.212890625
 20
-2368.48046875
 10
5001.212890625
 20
-2358.693359375
 10
5001.212890625
 20
-2348.90625
 10
5001.212890625
 20
-2339.119140625
 10
5001.212890625
 20
-2329.33203125
 10
5001.212890625
 20
-2319.544921875
 10
5001.212890625
 20
-2309.7578125
 10
5001.212890625
 20
-2299.970703125
 10
5001.212890625
 20
-2290.18359375
 10
5001.212890625
 20
-2280.396484375
 10
5001.212890625
 20
-2270.609375
 10
5001.212890625
 20
-2260.822265625
 10
5001.212890625
 20
-2251.03515625
 10
5001.212890625
 20
-2241.248046875
 10
5001.212890625
 20
-2231.4609375
 10
5001.212890625
 20
-2221.673828125
 10
5001.212890625
 20
-2211.88671875
 10
5001.212890625
 20
-2202.099609375
 10
5001.212890625
 20
-2192.3125
 10
5001.212890625
 20
-2182.525390625
 10
5001.212890625
 20
-2172.73828125
 10
5001.212890625
 20
-2162.951171875
 10
5001.212890625
 20
-2153.1640625
 10
5001.212890625
 20
-2143.376953125
 10
5001.212890625
 20
-2133.58984375
 10
5001.212890625
 20
-2123.802734375
 10
5001.212890625
 20
-2114.015625
 10
5001.212890625
 20
-2104.228515625
 10
5001.212890625
 20
-2094.44140625
 10
5001.212890625
 20
-2084.654296875
 10
5001.212890625
 20
-2074.8671875
 10
5001.212890625
 20
-2065.080078125
 10
5001.212890625
 20
-2055.29296875
 10
5001.212890625
 20
-2045.505859375
 10
5001.212890625
 20
-2035.71875
 10
5001.212890625
 20
-2025.931640625
 10
5001.212890625
 20
-2016.14453125
 10
5001.212890625
 20
-2006.357421875
 10
5001.212890625
 20
-1996.5703125
 10
5001.212890625
 20
-1986.783203125
 10
5001.212890625
 20
-1976.99609375
 10
5001.212890625
 20
-1967.208984375
 10
5001.212890625
 20
-1957.421875
 10
5001.212890625
 20
-1947.634765625
 10
5001.212890625
 20
-1937.84765625
 10
5001.212890625
 20
-1928.060546875
 10
5001.212890625
 20
-1918.2734375
 10
5001.212890625
 20
-1908.486328125
 10
5001.212890625
 20
-1898.69921875
 10
5001.212890625
 20
-1888.912109375
 10
5001.212890625
 20
-1879.125
 10
5001.212890625
 20
-1869.337890625
 10
5001.212890625
 20
-1859.55078125
 10
5001.212890625
 20
-1849.763671875
 10
5001.212890625
 20
-1839.9765625
 10
5001.212890625
 20
-1830.189453125
 10
5001.212890625
 20
-1820.40234375
 10
5001.212890625
 20
-1810.615234375
 10
5001.212890625
 20
-1800.828125
 10
5001.212890625
 20
-1791.041015625
 10
5001.212890625
 20
-1781.25390625
 10
5001.212890625
 20
-1771.466796875
 10
5001.212890625
 20
-1761.6796875
 10
5001.212890625
 20
-1751.892578125
 10
5001.212890625
 20
-1742.10546875
 10
5001.212890625
 20
-1732.318359375
 10
5001.212890625
 20
-1722.53125
 10
5001.212890625
 20
-1712.744140625
 10
5001.212890625
 20
-1702.95703125
 10
5001.212890625
 20
-1693.169921875
 10
5001.212890625
 20
-1683.3828125
 10
5001.212890625
 20
-1673.595703125
 10
5001.212890625
 20
-1663.80859375
 10
5001.212890625
 20
-1654.021484375
 10
5001.212890625
 20
-1644.234375
 10
5001.212890625
 20
-1634.447265625
 10
5001.212890625
 20
-1624.66015625
 10
5001.212890625
 20
-1614.873046875
 10
5001.212890625
 20
-1605.0859375
 10
5001.212890625
 20
-1595.298828125
 10
5001.212890625
 20
-1585.51171875
 10
5001.212890625
 20
-1575.724609375
 10
5001.212890625
 20
-1565.9375
 10
5001.212890625
 20
-1556.150390625
 10
5001.212890625
 20
-1546.36328125
 10
5001.212890625
 20
-1536.576171875
 10
5001.212890625
 20
-1526.7890625
 10
5001.212890625
 20
-1517.001953125
 10
5001.212890625
 20
-1507.21484375
 10
5001.212890625
 20
-1497.427734375
 10
5001.212890625
 20
-1487.640625
 10
5001.212890625
 20
-1477.853515625
 10
5001.212890625
 20
-1468.06640625
 10
5001.212890625
 20
-1458.279296875
 10
5001.212890625
 20
-1448.4921875
 10
5001.212890625
 20
-1438.705078125
 10
5001.212890625
 20
-1428.91796875
 10
5001.212890625
 20
-1419.130859375
 10
5001.212890625
 20
-1409.34375
 10
5001.212890625
 20
-1399.556640625
 10
5001.212890625
 20
-1389.76953125
 10
5001.212890625
 20
-1379.982421875
 10
5001.212890625
 20
-1370.1953125
 10
5001.212890625
 20
-1360.408203125
 10
5001.212890625
 20
-1350.62109375
 10
5001.212890625
 20
-1340.833984375
 10
5001.212890625
 20
-1331.046875
 10
5001.212890625
 20
-1321.259765625
 10
5001.212890625
 20
-1311.47265625
 10
5001.212890625
 20
-1301.685546875
 10
5001.212890625
 20
-1291.8984375
 10
5001.212890625
 20
-1282.111328125
 10
5001.212890625
 20
-1272.32421875
 10
5001.212890625
 20
-1262.537109375
 10
5001.212890625
 20
-1252.75
 10
5001.212890625
 20
-1242.962890625
 10
5001.212890625
 20
-1233.17578125
 10
5001.212890625
 20
-1223.388671875
 10
5001.212890625
 20
-1213.6015625
 10
5001.212890625
 20
-1203.814453125
 10
5001.212890625
 20
-1194.02734375
 10
5001.212890625
 20
-1184.240234375
 10
5001.212890625
 20
-1174.453125
 10
5001.212890625
 20
-1164.666015625
 10
5001.212890625
 20
-1154.87890625
 10
5001.212890625
 20
-1145.091796875
 10
5001.212890625
 20
-1135.3046875
 10
5001.212890625
 20
-1125.517578125
 10
5001.212890625
 20
-1115.73046875
 10
5001.212890625
 20
-1105.943359375
 10
5001.212890625
 20
-1096.15625
 10
5001.212890625
 20
-1086.369140625
 10
5001.212890625
 20
-1076.58203125
 10
5001.212890625
 20
-1066.794921875
 10
5001.212890625
 20
-1057.0078125
 10
5001.212890625
 20
-1047.220703125
 10
5001.212890625
 20
-1037.43359375
 10
5001.212890625
 20
-1027.646484375
 10
5001.212890625
 20
-1017.859375
 10
5001.212890625
 20
-1008.072265625
 10
5001.212890625
 20
-998.28515625
 10
5001.212890625
 20
-988.498046875
 10
5001.212890625
 20
-978.7109375
 10
5001.212890625
 20
-968.923828125
 10
5001.212890625
 20
-959.13671875
 10
5001.212890625
 20
-949.349609375
 10
5001.212890625
 20
-939.5625
 10
5001.212890625
 20
-929.775390625
 10
5001.212890625
 20
-919.98828125
 10
5001.212890625
 20
-910.201171875
 10
5001.212890625
 20
-900.4140625
 10
5001.212890625
 20
-890.626953125
 10
5001.212890625
 20
-880.83984375
 10
5001.212890625
 20
-871.052734375
 10
5001.212890625
 20
-861.265625
 10
5001.212890625
 20
-851.478515625
 10
5001.212890625
 20
-841.69140625
 10
5001.212890625
 20
-831.904296875
 10
5001.212890625
 20
-822.1171875
 10
5001.212890625
 20
-812.330078125
 10
5001.212890625
 20
-802.54296875
 10
5001.212890625
 20
-792.755859375
 10
5001.212890625
 20
-782.96875
 10
5001.212890625
 20
-773.181640625
 10
5001.212890625
 20
-763.39453125
 10
5001.212890625
 20
-753.607421875
 10
5001.212890625
 20
-743.8203125
 10
5001.212890625
 20
-734.033203125
 10
5001.212890625
 20
-724.24609375
 10
5001.212890625
 20
-714.458984375
 10
5001.212890625
 20
-704.671875
 10
5001.212890625
 20
-694.884765625
 10
5001.212890625
 20
-685.09765625
 10
5001.212890625
 20
-675.310546875
 10
5001.212890625
 20
-665.5234375
 10
5001.212890625
 20
-655.736328125
 10
5001.212890625
 20
-645.94921875
 10
5001.212890625
 20
-636.162109375
 10
5001.212890625
 20
-626.375
 10
5001.212890625
 20
-616.587890625
 10
5001.212890625
 20
-606.80078125
 10
5001.212890625
 20
-597.013671875
 10
5001.212890625
 20
-587.2265625
 10
5001.212890625
 20
-577.439453125
 10
5001.212890625
 20
-567.65234375
 10
5001.212890625
 20
-557.865234375
 10
5001.212890625
 20
-548.078125
 10
5001.212890625
 20
-538.291015625
 10
5001.212890625
 20
-528.50390625
 10
5001.212890625
 20
-518.716796875
 10
5001.212890625
 20
-508.9296875
 10
5001.212890625
 20
-499.142578125
 10
5001.212890625
 20
-489.35546875
 10
5001.212890625
 20
-479.568359375
 10
5001.212890625
 20
-469.78125
 10
5001.212890625
 20
-459.994140625
 10
5001.212890625
 20
-450.20703125
 10
5001.212890625
 20
-440.419921875
 10
5001.212890625
 20
-430.6328125
 10
5001.212890625
 20
-420.845703125
 10
5001.212890625
 20
-411.05859375
 10
5001.212890625
 20
-401.271484375
 10
5001.212890625
 20
-391.484375
 10
5001.212890625
 20
-381.697265625
 10
5001.212890625
 20
-371.91015625
 10
5001.212890625
 20
-362.123046875
 10
5001.212890625
 20
-352.3359375
 10
5001.212890625
 20
-342.548828125
 10
5001.212890625
 20
-332.76171875
 10
5001.212890625
 20
-322.974609375
 10
5001.212890625
 20
-313.1875
 10
5001.212890625
 20
-303.400390625
 10
5001.212890625
 20
-293.61328125
 10
5001.212890625
 20
-283.826171875
 10
5001.212890625
 20
-274.0390625
 10
5001.212890625
 20
-264.251953125
 10
5001.212890625
 20
-254.46484375
 10
5001.212890625
 20
-244.677734375
 10
5001.212890625
 20
-234.890625
 10
5001.212890625
 20
-225.103515625
 10
5001.212890625
 20
-215.31640625
 10
5001.212890625
 20
-205.529296875
 10
5001.212890625
 20
-195.7421875
 10
5001.212890625
 20
-185.955078125
 10
5001.212890625
 20
-176.16796875
 10
5001.212890625
 20
-166.380859375
 10
5001.212890625
 20
-156.59375
 10
5001.212890625
 20
-146.806640625
 10
5001.212890625
 20
-137.01953125
 10
5001.212890625
 20
-127.232421875
 10
5001.212890625
 20
-117.4453125
 10
5001.212890625
 20
-107.658203125
 10
5001.212890625
 20
-97.87109375
 10
5001.212890625
 20
-88.083984375
 10
5001.212890625
 20
-78.296875
 10
5001.212890625
 20
-68.509765625
 10
5001.212890625
 20
-58.72265625
 10
5001.212890625
 20
-48.935546875
 10
5001.212890625
 20
-39.1484375
 10
5001.212890625
 20
-29.361328125
 10
5001.212890625
 20
-19.57421875
 10
5001.212890625
 20
-9.787109375
 10
5001.212890625
 20
-0.0
 10
4991.42578125
 20
-0.0
 10
4981.638671875
 20
-0.0
 10
4971.8515625
 20
-0.0
 10
4962.064453125
 20
-0.0
 10
4952.27734375
 20
-0.0
 10
4942.490234375
 20
-0.0
 10
4932.703125
 20
-0.0
 10
4922.916015625
 20
-0.0
 10
4913.12890625
 20
-0.0
 10
4903.341796875
 20
-0.0
 10
4893.5546875
 20
-0.0
 10
4883.767578125
 20
-0.0
 10
4873.98046875
 20
-0.0
 10
4864.193359375
 20
-0.0
 10
4854.40625
 20
-0.0
 10
4844.619140625
 20
-0.0
 10
4834.83203125
 20
-0.0
 10
4825.044921875
 20
-0.0
 10
4815.2578125
 20
-0.0
 10
4805.470703125
 20
-0.0
 10
4795.68359375
 20
-0.0
 10
4785.896484375
 20
-0.0
 10
4776.109375
 20
-0.0
 10
4766.322265625
 20
-0.0
 10
4756.53515625
 20
-0.0
 10
4746.748046875
 20
-0.0
 10
4736.9609375
 20
-0.0
 10
4727.173828125
 20
-0.0
 10
4717.38671875
 20
-0.0
 10
4707.599609375
 20
-0.0
 10
4697.8125
 20
-0.0
 10
4688.025390625
 20
-0.0
 10
4678.23828125
 20
-0.0
 10
4668.451171875
 20
-0.0
 10
4658.6640625
 20
-0.0
 10
4648.876953125
 20
-0.0
 10
4639.08984375
 20
-0.0
 10
4629.302734375
 20
-0.0
 10
4619.515625
 20
-0.0
 10
4609.728515625
 20
-0.0
 10
4599.94140625
 20
-0.0
 10
4590.154296875
 20
-0.0
 10
4580.3671875
 20
-0.0
 10
4570.580078125
 20
-0.0
 10
4560.79296875
 20
-0.0
 10
4551.005859375
 20
-0.0
 10
4541.21875
 20
-0.0
 10
4531.431640625
 20
-0.0
 10
4521.64453125
 20
-0.0
 10
4511.857421875
 20
-0.0
 10
4502.0703125
 20
-0.0
 10
4492.283203125
 20
-0.0
 10
4482.49609375
 20
-0.0
 10
4472.708984375
 20
-0.0
 10
4462.921875
 20
-0.0
 10
4453.134765625
 20
-0.0
 10
4443.34765625
 20
-0.0
 10
4433.560546875
 20
-0.0
 10
4423.7734375
 20
-0.0
 10
4413.986328125
 20
-0.0
 10
4404.19921875
 20
-0.0
 10
4394.412109375
 20
-0.0
 10
4384.625
 20
-0.0
 10
4374.837890625
 20
-0.0
 10
4365.05078125
 20
-0.0
 10
4355.263671875
 20
-0.0
 10
4345.4765625
 20
-0.0
 10
4335.689453125
 20
-0.0
 10
4325.90234375
 20
-0.0
 10
4316.115234375
 20
-0.0
 10
4306.328125
 20
-0.0
 10
4296.541015625
 20
-0.0
 10
4286.75390625
 20
-0.0
 10
4276.966796875
 20
-0.0
 10
4267.1796875
 20
-0.0
 10
4257.392578125
 20
-0.0
 10
4247.60546875
 20
-0.0
 10
4237.818359375
 20
-0.0
 10
4228.03125
 20
-0.0
 10
4218.244140625
 20
-0.0
 10
4208.45703125
 20
-0.0
 10
4198.669921875
 20
-0.0
 10
4188.8828125
 20
-0.0
 10
4179.095703125
 20
-0.0
 10
4169.30859375
 20
-0.0
 10
4159.521484375
 20
-0.0
 10
4149.734375
 20
-0.0
 10
4139.947265625
 20
-0.0
 10
4130.16015625
 20
-0.0
 10
4120.373046875
 20
-0.0
 10
4110.5859375
 20
-0.0
 10
4100.798828125
 20
-0.0
 10
4091.01171875
 20
-0.0
 10
4081.224609375
 20
-0.0
 10
4071.4375
 20
-0.0
 10
4061.650390625
 20
-0.0
 10
4051.86328125
 20
-0.0
 10
4042.076171875
 20
-0.0
 10
4032.2890625
 20
-0.0
 10
4022.501953125
 20
-0.0
 10
4012.71484375
 20
-0.0
 10
4002.927734375
 20
-0.0
 10
3993.140625
 20
-0.0
 10
3983.353515625
 20
-0.0
 10
3973.56640625
 20
-0.0
 10
3963.779296875
 20
-0.0
 10
3953.9921875
 20
-0.0
 10
3944.205078125
 20
-0.0
 10
3934.41796875
 20
-0.0
 10
3924.630859375
 20
-0.0
 10
3914.84375
 20
-0.0
 10
3905.056640625
 20
-0.0
 10
3895.26953125
 20
-0.0
 10
3885.482421875
 20
-0.0
 10
3875.6953125
 20
-0.0
 10
3865.908203125
 20
-0.0
 10
3856.12109375
 20
-0.0
 10
3846.333984375
 20
-0.0
 10
3836.546875
 20
-0.0
 10
3826.759765625
 20
-0.0
 10
3816.97265625
 20
-0.0
 10
3807.185546875
 20
-0.0
 10
3797.3984375
 20
-0.0
 10
3787.611328125
 20
-0.0
 10
3777.82421875
 20
-0.0
 10
3768.037109375
 20
-0.0
 10
3758.25
 20
-0.0
 10
3748.462890625
 20
-0.0
 10
3738.67578125
 20
-0.0
 10
3728.888671875
 20
-0.0
 10
3719.1015625
 20
-0.0
 10
3709.314453125
 20
-0.0
 10
3699.52734375
 20
-0.0
 10
3689.740234375
 20
-0.0
 10
3679.953125
 20
-0.0
 10
3670.166015625
 20
-0.0
 10
3660.37890625
 20
-0.0
 10
3650.591796875
 20
-0.0
 10
3640.8046875
 20
-0.0
 10
3631.017578125
 20
-0.0
 10
3621.23046875
 20
-0.0
 10
3611.443359375
 20
-0.0
 10
3601.65625
 20
-0.0
 10
3591.869140625
 20
-0.0
 10
3582.08203125
 20
-0.0
 10
3572.294921875
 20
-0.0
 10
3562.5078125
 20
-0.0
 10
3552.720703125
 20
-0.0
 10
3542.93359375
 20
-0.0
 10
3533.146484375
 20
-0.0
 10
3523.359375
 20
-0.0
 10
3513.572265625
 20
-0.0
 10
3503.78515625
 20
-0.0
 10
3493.998046875
 20
-0.0
 10
3484.2109375
 20
-0.0
 10
3474.423828125
 20
-0.0
 10
3464.63671875
 20
-0.0
 10
3454.849609375
 20
-0.0
 10
3445.0625
 20
-0.0
 10
3435.275390625
 20
-0.0
 10
3425.48828125
 20
-0.0
 10
3415.701171875
 20
-0.0
 10
3405.9140625
 20
-0.0
 10
3396.126953125
 20
-0.0
 10
3386.33984375
 20
-0.0
 10
3376.552734375
 20
-0.0
 10
3366.765625
 20
-0.0
 10
3356.978515625
 20
-0.0
 10
3347.19140625
 20
-0.0
 10
3337.404296875
 20
-0.0
 10
3327.6171875
 20
-0.0
 10
3317.830078125
 20
-0.0
 10
3308.04296875
 20
-0.0
 10
3298.255859375
 20
-0.0
 10
3288.46875
 20
-0.0
 10
3278.681640625
 20
-0.0
 10
3268.89453125
 20
-0.0
 10
3259.107421875
 20
-0.0
 10
3249.3203125
 20
-0.0
 10
3239.533203125
 20
-0.0
 10
3229.74609375
 20
-0.0
 10
3219.958984375
 20
-0.0
 10
3210.171875
 20
-0.0
 10
3200.384765625
 20
-0.0
 10
3190.59765625
 20
-0.0
 10
3180.810546875
 20
-0.0
 10
3171.0234375
 20
-0.0
 10
3161.236328125
 20
-0.0
 10
3151.44921875
 20
-0.0
 10
3141.662109375
 20
-0.0
 10
3131.875
 20
-0.0
 10
3122.087890625
 20
-0.0
 10
3112.30078125
 20
-0.0
 10
3102.513671875
 20
-0.0
 10
3092.7265625
 20
-0.0
 10
3082.939453125
 20
-0.0
 10
3073.15234375
 20
-0.0
 10
3063.365234375
 20
-0.0
 10
3053.578125
 20
-0.0
 10
3043.791015625
 20
-0.0
 10
3034.00390625
 20
-0.0
 10
3024.216796875
 20
-0.0
 10
3014.4296875
 20
-0.0
 10
3004.642578125
 20
-0.0
 10
2994.85546875
 20
-0.0
 10
2985.068359375
 20
-0.0
 10
2975.28125
 20
-0.0
 10
2965.494140625
 20
-0.0
 10
2955.70703125
 20
-0.0
 10
2945.919921875
 20
-0.0
 10
2936.1328125
 20
-0.0
 10
2926.345703125
 20
-0.0
 10
2916.55859375
 20
-0.0
 10
2906.771484375
 20
-0.0
 10
2896.984375
 20
-0.0
 10
2887.197265625
 20
-0.0
 10
2877.41015625
 20
-0.0
 10
2867.623046875
 20
-0.0
 10
2857.8359375
 20
-0.0
 10
2848.048828125
 20
-0.0
 10
2838.26171875
 20
-0.0
 10
2828.474609375
 20
-0.0
 10
2818.6875
 20
-0.0
 10
2808.900390625
 20
-0.0
 10
2799.11328125
 20
-0.0
 10
2789.326171875
 20
-0.0
 10
2779.5390625
 20
-0.0
 10
2769.751953125
 20
-0.0
 10
2759.96484375
 20
-0.0
 10
2750.177734375
 20
-0.0
 10
2740.390625
 20
-0.0
 10
2730.603515625
 20
-0.0
 10
2720.81640625
 20
-0.0
 10
2711.029296875
 20
-0.0
 10
2701.2421875
 20
-0.0
 10
2691.455078125
 20
-0.0
 10
2681.66796875
 20
-0.0
 10
2671.880859375
 20
-0.0
 10
2662.09375
 20
-0.0
 10
2652.306640625
 20
-0.0
 10
2642.51953125
 20
-0.0
 10
2632.732421875
 20
-0.0
 10
2622.9453125
 20
-0.0
 10
2613.158203125
 20
-0.0
 10
2603.37109375
 20
-0.0
 10
2593.583984375
 20
-0.0
 10
2583.796875
 20
-0.0
 10
2574.009765625
 20
-0.0
 10
2564.22265625
 20
-0.0
 10
2554.435546875
 20
-0.0
 10
2544.6484375
 20
-0.0
 10
2534.861328125
 20
-0.0
 10
2525.07421875
 20
-0.0
 10
2515.287109375
 20
-0.0
 10
2505.5
 20
-0.0
 10
2495.712890625
 20
-0.0
 10
2485.92578125
 20
-0.0
 10
2476.138671875
 20
-0.0
 10
2466.3515625
 20
-0.0
 10
2456.564453125
 20
-0.0
 10
2446.77734375
 20
-0.0
 10
2436.990234375
 20
-0.0
 10
2427.203125
 20
-0.0
 10
2417.416015625
 20
-0.0
 10
2407.62890625
 20
-0.0
 10
2397.841796875
 20
-0.0
 10
2388.0546875
 20
-0.0
 10
2378.267578125
 20
-0.0
 10
2368.48046875
 20
-0.0
 10
2358.693359375
 20
-0.0
 10
2348.90625
 20
-0.0
 10
2339.119140625
 20
-0.0
 10
2329.33203125
 20
-0.0
 10
2319.544921875
 20
-0.0
 10
2309.7578125
 20
-0.0
 10
2299.970703125
 20
-0.0
 10
2290.18359375
 20
-0.0
 10
2280.396484375
 20
-0.0
 10
2270.609375
 20
-0.0
 10
2260.822265625
 20
-0.0
 10
2251.03515625
 20
-0.0
 10
2241.248046875
 20
-0.0
 10
2231.4609375
 20
-0.0
 10
2221.673828125
 20
-0.0
 10
2211.88671875
 20
-0.0
 10
2202.099609375
 20
-0.0
 10
2192.3125
 20
-0.0
 10
2182.525390625
 20
-0.0
 10
2172.73828125
 20
-0.0
 10
2162.951171875
 20
-0.0
 10
2153.1640625
 20
-0.0
 10
2143.376953125
 20
-0.0
 10
2133.58984375
 20
-0.0
 10
2123.802734375
 20
-0.0
 10
2114.015625
 20
-0.0
 10
2104.228515625
 20
-0.0
 10
2094.44140625
 20
-0.0
 10
2084.654296875
 20
-0.0
 10
2074.8671875
 20
-0.0
 10
2065.080078125
 20
-0.0
 10
2055.29296875
 20
-0.0
 10
2045.505859375
 20
-0.0
 10
2035.71875
 20
-0.0
 10
2025.931640625
 20
-0.0
 10
2016.14453125
 20
-0.0
 10
2006.357421875
 20
-0.0
 10
1996.5703125
 20
-0.0
 10
1986.783203125
 20
-0.0
 10
1976.99609375
 20
-0.0
 10
1967.208984375
 20
-0.0
 10
1957.421875
 20
-0.0
 10
1947.634765625
 20
-0.0
 10
1937.84765625
 20
-0.0
 10
1928.060546875
 20
-0.0
 10
1918.2734375
 20
-0.0
 10
1908.486328125
 20
-0.0
 10
1898.69921875
 20
-0.0
 10
1888.912109375
 20
-0.0
 10
1879.125
 20
-0.0
 10
1869.337890625
 20
-0.0
 10
1859.55078125
 20
-0.0
 10
1849.763671875
 20
-0.0
 10
1839.9765625
 20
-0.0
 10
1830.189453125
 20
-0.0
 10
1820.40234375
 20
-0.0
 10
1810.615234375
 20
-0.0
 10
1800.828125
 20
-0.0
 10
1791.041015625
 20
-0.0
 10
1781.25390625
 20
-0.0
 10
1771.466796875
 20
-0.0
 10
1761.6796875
 20
-0.0
 10
1751.892578125
 20
-0.0
 10
1742.10546875
 20
-0.0
 10
1732.318359375
 20
-0.0
 10
1722.53125
 20
-0.0
 10
1712.744140625
 20
-0.0
 10
1702.95703125
 20
-0.0
 10
1693.169921875
 20
-0.0
 10
1683.3828125
 20
-0.0
 10
1673.595703125
 20
-0.0
 10
1663.80859375
 20
-0.0
 10
1654.021484375
 20
-0.0
 10
1644.234375
 20
-0.0
 10
1634.447265625
 20
-0.0
 10
1624.66015625
 20
-0.0
 10
1614.873046875
 20
-0.0
 10
1605.0859375
 20
-0.0
 10
1595.298828125
 20
-0.0
 10
1585.51171875
 20
-0.0
 10
1575.724609375
 20
-0.0
 10
1565.9375
 20
-0.0
 10
1556.150390625
 20
-0.0
 10
1546.36328125
 20
-0.0
 10
1536.576171875
 20
-0.0
 10
1526.7890625
 20
-0.0
 10
1517.001953125
 20
-0.0
 10
1507.21484375
 20
-0.0
 10
1497.427734375
 20
-0.0
 10
1487.640625
 20
-0.0
 10
1477.853515625
 20
-0.0
 10
1468.06640625
 20
-0.0
 10
1458.279296875
 20
-0.0
 10
1448.4921875
 20
-0.0
 10
1438.705078125
 20
-0.0
 10
1428.91796875
 20
-0.0
 10
1419.130859375
 20
-0.0
 10
1409.34375
 20
-0.0
 10
1399.556640625
 20
-0.0
 10
1389.76953125
 20
-0.0
 10
1379.982421875
 20
-0.0
 10
1370.1953125
 20
-0.0
 10
1360.408203125
 20
-0.0
 10
1350.62109375
 20
-0.0
 10
1340.833984375
 20
-0.0
 10
1331.046875
 20
-0.0
 10
1321.259765625
 20
-0.0
 10
1311.47265625
 20
-0.0
 10
1301.685546875
 20
-0.0
 10
1291.8984375
 20
-0.0
 10
1282.111328125
 20
-0.0
 10
1272.32421875
 20
-0.0
 10
1262.537109375
 20
-0.0
 10
1252.75
 20
-0.0
 10
1242.962890625
 20
-0.0
 10
1233.17578125
 20
-0.0
 10
1223.388671875
 20
-0.0
 10
1213.6015625
 20
-0.0
 10
1203.814453125
 20
-0.0
 10
1194.02734375
 20
-0.0
 10
1184.240234375
 20
-0.0
 10
1174.453125
 20
-0.0
 10
1164.666015625
 20
-0.0
 10
1154.87890625
 20
-0.0
 10
1145.091796875
 20
-0.0
 10
1135.3046875
 20
-0.0
 10
1125.517578125
 20
-0.0
 10
1115.73046875
 20
-0.0
 10
1105.943359375
 20
-0.0
 10
1096.15625
 20
-0.0
 10
1086.369140625
 20
-0.0
 10
1076.58203125
 20
-0.0
 10
1066.794921875
 20
-0.0
 10
1057.0078125
 20
-0.0
 10
1047.220703125
 20
-0.0
 10
1037.43359375
 20
-0.0
 10
1027.646484375
 20
-0.0
 10
1017.859375
 20
-0.0
 10
1008.072265625
 20
-0.0
 10
998.28515625
 20
-0.0
 10
988.498046875
 20
-0.0
 10
978.7109375
 20
-0.0
 10
968.923828125
 20
-0.0
 10
959.13671875
 20
-0.0
 10
949.349609375
 20
-0.0
 10
939.5625
 20
-0.0
 10
929.775390625
 20
-0.0
 10
919.98828125
 20
-0.0
 10
910.201171875
 20
-0.0
 10
900.4140625
 20
-0.0
 10
890.626953125
 20
-0.0
 10
880.83984375
 20
-0.0
 10
871.052734375
 20
-0.0
 10
861.265625
 20
-0.0
 10
851.478515625
 20
-0.0
 10
841.69140625
 20
-0.0
 10
831.904296875
 20
-0.0
 10
822.1171875
 20
-0.0
 10
812.330078125
 20
-0.0
 10
802.54296875
 20
-0.0
 10
792.755859375
 20
-0.0
 10
782.96875
 20
-0.0
 10
773.181640625
 20
-0.0
 10
763.39453125
 20
-0.0
 10
753.607421875
 20
-0.0
 10
743.8203125
 20
-0.0
 10
734.033203125
 20
-0.0
 10
724.24609375
 20
-0.0
 10
714.458984375
 20
-0.0
 10
704.671875
 20
-0.0
 10
694.884765625
 20
-0.0
 10
685.09765625
 20
-0.0
 10
675.310546875
 20
-0.0
 10
665.5234375
 20
-0.0
 10
655.736328125
 20
-0.0
 10
645.94921875
 20
-0.0
 10
636.162109375
 20
-0.0
 10
626.375
 20
-0.0
 10
616.587890625
 20
-0.0
 10
606.80078125
 20
-0.0
 10
597.013671875
 20
-0.0
 10
587.2265625
 20
-0.0
 10
577.439453125
 20
-0.0
 10
567.65234375
 20
-0.0
 10
557.865234375
 20
-0.0
 10
548.078125
 20
-0.0
 10
538.291015625
 20
-0.0
 10
528.50390625
 20
-0.0
 10
518.716796875
 20
-0.0
 10
508.9296875
 20
-0.0
 10
499.142578125
 20
-0.0
 10
489.35546875
 20
-0.0
 10
479.568359375
 20
-0.0
 10
469.78125
 20
-0.0
 10
459.994140625
 20
-0.0
 10
450.20703125
 20
-0.0
 10
440.419921875
 20
-0.0
 10
430.6328125
 20
-0.0
 10
420.845703125
 20
-0.0
 10
411.05859375
 20
-0.0
 10
401.271484375
 20
-0.0
 10
391.484375
 20
-0.0
 10
381.697265625
 20
-0.0
 10
371.91015625
 20
-0.0
 10
362.123046875
 20
-0.0
 10
352.3359375
 20
-0.0
 10
342.548828125
 20
-0.0
 10
332.76171875
 20
-0.0
 10
322.974609375
 20
-0.0
 10
313.1875
 20
-0.0
 10
303.400390625
 20
-0.0
 10
293.61328125
 20
-0.0
 10
283.826171875
 20
-0.0
 10
274.0390625
 20
-0.0
 10
264.251953125
 20
-0.0
 10
254.46484375
 20
-0.0
 10
244.677734375
 20
-0.0
 10
234.890625
 20
-0.0
 10
225.103515625
 20
-0.0
 10
215.31640625
 20
-0.0
 10
205.529296875
 20
-0.0
 10
195.7421875
 20
-0.0
 10
185.955078125
 20
-0.0
 10
176.16796875
 20
-0.0
 10
166.380859375
 20
-0.0
 10
156.59375
 20
-0.0
 10
146.806640625
 20
-0.0
 10
137.01953125
 20
-0.0
 10
127.232421875
 20
-0.0
 10
117.4453125
 20
-0.0
 10
107.658203125
 20
-0.0
 10
97.87109375
 20
-0.0
 10
88.083984375
 20
-0.0
 10
78.296875
 20
-0.0
 10
68.509765625
 20
-0.0
 10
58.72265625
 20
-0.0
 10
48.935546875
 20
-0.0
 10
39.1484375
 20
-0.0
 10
29.361328125
 20
-0.0
 10
19.57421875
 20
-0.0
 10
9.787109375
 20
-0.0
  0
LWPOLYLINE
  5
3C
330
17
100
AcDbEntity
  8
substrate
100
AcDbPolyline
 90
4
 70
1
 43
0.5
 10
4365.05078125
 20
-4492.283203125
 10
4374.837890625
 20
-4482.49609375
 10
4384.625
 20
-4492.283203125
 10
4374.837890625
 20
-4502.0703125
  0
LWPOLYLINE
  5
3D
330
17
100
AcDbEntity
  8
substrate
100
AcDbPolyline
 90
6
 70
1
 43
0.5
 10
2799.11328125
 20
-4482.49609375
 10
2808.900390625
 20
-4472.708984375
 10
2818.6875
 20
-4482.49609375
 10
2818.6875
 20
-4492.283203125
 10
2808.900390625
 20
-4502.0703125
 10
2799.11328125
 20
-4492.283203125
  0
LWPOLYLINE
  5
3E
330
17
100
AcDbEntity
  8
substrate
100
AcDbPolyline
 90
4
 70
1
 43
0.5
 10
2994.85546875
 20
-4365.05078125
 10
3004.642578125
 20
-4355.263671875
 10
3014.4296875
 20
-4365.05078125
 10
3004.642578125
 20
-4374.837890625
  0
LWPOLYLINE
  5
3F
330
17
100
AcDbEntity
  8
substrate
100
AcDbPolyline
 90
4
 70
1
 43
0.5
 10
2368.48046875
 20
-4365.05078125
 10
2378.267578125
 20
-4355.263671875
 10
2388.0546875
 20
-4365.05078125
 10
2378.267578125
 20
-4374.837890625
  0
LWPOLYLINE
  5
40
330
17
100
AcDbEntity
  8
substrate
100
AcDbPolyline
 90
4
 70
1
 43
0.5
 10
2985.068359375
 20
-4355.263671875
 10
2994.85546875
 20
-4345.4765625
 10
3004.642578125
 20
-4355.263671875
 10
2994.85546875
 20
-4365.05078125
  0
LWPOLYLINE
  5
41
330
17
100
AcDbEntity
  8
substrate
100
AcDbPolyline
 90
4
 70
1
 43
0.5
 10
4707.599609375
 20
-3973.56640625
 10
4717.38671875
 20
-3963.779296875
 10
4727.173828125
 20
-3973.56640625
 10
4717.38671875
 20
-3983.353515625
  0
LWPOLYLINE
  5
42
330
17
100
AcDbEntity
  8
substrate
100
AcDbPolyline
 90
270
 70
1
 43
0.5
 10
2436.990234375
 20
-2065.080078125
 10
2446.77734375
 20
-2055.29296875
 10
2456.564453125
 20
-2055.29296875
 10
2466.3515625
 20
-2055.29296875
 10
2476.138671875
 20
-2055.29296875
 10
2485.92578125
 20
-2055.29296875
 10
2495.712890625
 20
-2055.29296875
 10
2505.5
 20
-2055.29296875
 10
2515.287109375
 20
-2055.29296875
 10
2525.07421875
 20
-2055.29296875
 10
2534.861328125
 20
-2055.29296875
 10
2544.6484375
 20
-2055.29296875
 10
2554.435546875
 20
-2055.29296875
 10
2564.22265625
 20
-2055.29296875
 10
2574.009765625
 20
-2055.29296875
 10
2583.796875
 20
-2055.29296875
 10
2593.583984375
 20
-2055.29296875
 10
2603.37109375
 20
-2065.080078125
 10
2613.158203125
 20
-2065.080078125
 10
2622.9453125
 20
-2074.8671875
 10
2632.732421875
 20
-2074.8671875
 10
2642.51953125
 20
-2074.8671875
 10
2652.306640625
 20
-2074.8671875
 10
2662.09375
 20
-2084.654296875
 10
2671.880859375
 20
-2084.654296875
 10
2681.66796875
 20
-2094.44140625
 10
2691.455078125
 20
-2094.44140625
 10
2701.2421875
 20
-2104.228515625
 10
2711.029296875
 20
-2104.228515625
 10
2720.81640625
 20
-2114.015625
 10
2730.603515625
 20
-2123.802734375
 10
2740.390625
 20
-2123.802734375
 10
2750.177734375
 20
-2123.802734375
 10
2759.96484375
 20
-2133.58984375
 10
2759.96484375
 20
-2143.376953125
 10
2769.751953125
 20
-2143.376953125
 10
2779.5390625
 20
-2143.376953125
 10
2789.326171875
 20
-2153.1640625
 10
2789.326171875
 20
-2162.951171875
 10
2799.11328125
 20
-2172.73828125
 10
2808.900390625
 20
-2182.525390625
 10
2818.6875
 20
-2182.525390625
 10
2828.474609375
 20
-2192.3125
 10
2838.26171875
 20
-2202.099609375
 10
2838.26171875
 20
-2211.88671875
 10
2848.048828125
 20
-2221.673828125
 10
2848.048828125
 20
-2231.4609375
 10
2857.8359375
 20
-2241.248046875
 10
2867.623046875
 20
-2241.248046875
 10
2877.41015625
 20
-2251.03515625
 10
2887.197265625
 20
-2260.822265625
 10
2887.197265625
 20
-2270.609375
 10
2887.197265625
 20
-2280.396484375
 10
2896.984375
 20
-2290.18359375
 10
2896.984375
 20
-2299.970703125
 10
2896.984375
 20
-2309.7578125
 10
2906.771484375
 20
-2319.544921875
 10
2916.55859375
 20
-2329.33203125
 10
2916.55859375
 20
-2339.119140625
 10
2926.345703125
 20
-2348.90625
 10
2936.1328125
 20
-2358.693359375
 10
2936.1328125
 20
-2368.48046875
 10
2936.1328125
 20
-2378.267578125
 10
2936.1328125
 20
-2388.0546875
 10
2945.919921875
 20
-2397.841796875
 10
2945.919921875
 20
-2407.62890625
 10
2955.70703125
 20
-2417.416015625
 10
2945.919921875
 20
-2427.203125
 10
2955.70703125
 20
-2436.990234375
 10
2965.494140625
 20
-2446.77734375
 10
2965.494140625
 20
-2456.564453125
 10
2965.494140625
 20
-2466.3515625
 10
2965.494140625
 20
-2476.138671875
 10
2965.494140625
 20
-2485.92578125
 10
2965.494140625
 20
-2495.712890625
 10
2965.494140625
 20
-2505.5
 10
2955.70703125
 20
-2515.287109375
 10
2955.70703125
 20
-2525.07421875
 10
2955.70703125
 20
-2534.861328125
 10
2955.70703125
 20
-2544.6484375
 10
2955.70703125
 20
-2554.435546875
 10
2955.70703125
 20
-2564.22265625
 10
2955.70703125
 20
-2574.009765625
 10
2945.919921875
 20
-2583.796875
 10
2945.919921875
 20
-2593.583984375
 10
2936.1328125
 20
-2603.37109375
 10
2926.345703125
 20
-2603.37109375
 10
2926.345703125
 20
-2613.158203125
 10
2926.345703125
 20
-2622.9453125
 10
2926.345703125
 20
-2632.732421875
 10
2926.345703125
 20
-2642.51953125
 10
2926.345703125
 20
-2652.306640625
 10
2916.55859375
 20
-2662.09375
 10
2906.771484375
 20
-2671.880859375
 10
2906.771484375
 20
-2681.66796875
 10
2896.984375
 20
-2691.455078125
 10
2887.197265625
 20
-2701.2421875
 10
2887.197265625
 20
-2711.029296875
 10
2887.197265625
 20
-2720.81640625
 10
2877.41015625
 20
-2730.603515625
 10
2877.41015625
 20
-2740.390625
 10
2867.623046875
 20
-2750.177734375
 10
2857.8359375
 20
-2759.96484375
 10
2848.048828125
 20
-2769.751953125
 10
2838.26171875
 20
-2779.5390625
 10
2838.26171875
 20
-2789.326171875
 10
2828.474609375
 20
-2799.11328125
 10
2818.6875
 20
-2808.900390625
 10
2818.6875
 20
-2818.6875
 10
2808.900390625
 20
-2828.474609375
 10
2799.11328125
 20
-2838.26171875
 10
2789.326171875
 20
-2848.048828125
 10
2779.5390625
 20
-2848.048828125
 10
2769.751953125
 20
-2857.8359375
 10
2759.96484375
 20
-2857.8359375
 10
2750.177734375
 20
-2867.623046875
 10
2740.390625
 20
-2877.41015625
 10
2730.603515625
 20
-2877.41015625
 10
2720.81640625
 20
-2877.41015625
 10
2711.029296875
 20
-2887.197265625
 10
2701.2421875
 20
-2896.984375
 10
2691.455078125
 20
-2896.984375
 10
2681.66796875
 20
-2906.771484375
 10
2671.880859375
 20
-2906.771484375
 10
2662.09375
 20
-2906.771484375
 10
2652.306640625
 20
-2916.55859375
 10
2642.51953125
 20
-2926.345703125
 10
2632.732421875
 20
-2926.345703125
 10
2622.9453125
 20
-2926.345703125
 10
2613.158203125
 20
-2926.345703125
 10
2603.37109375
 20
-2936.1328125
 10
2593.583984375
 20
-2936.1328125
 10
2583.796875
 20
-2936.1328125
 10
2574.009765625
 20
-2936.1328125
 10
2564.22265625
 20
-2936.1328125
 10
2554.435546875
 20
-2936.1328125
 10
2544.6484375
 20
-2945.919921875
 10
2534.861328125
 20
-2945.919921875
 10
2525.07421875
 20
-2945.919921875
 10
2515.287109375
 20
-2945.919921875
 10
2505.5
 20
-2945.919921875
 10
2495.712890625
 20
-2945.919921875
 10
2485.92578125
 20
-2945.919921875
 10
2476.138671875
 20
-2945.919921875
 10
2466.3515625
 20
-2945.919921875
 10
2456.564453125
 20
-2945.919921875
 10
2446.77734375
 20
-2945.919921875
 10
2436.990234375
 20
-2945.919921875
 10
2427.203125
 20
-2945.919921875
 10
2417.416015625
 20
-2945.919921875
 10
2407.62890625
 20
-2936.1328125
 10
2397.841796875
 20
-2936.1328125
 10
2388.0546875
 20
-2936.1328125
 10
2378.267578125
 20
-2936.1328125
 10
2368.48046875
 20
-2926.345703125
 10
2358.693359375
 20
-2916.55859375
 10
2348.90625
 20
-2916.55859375
 10
2339.119140625
 20
-2916.55859375
 10
2329.33203125
 20
-2906.771484375
 10
2319.544921875
 20
-2906.771484375
 10
2309.7578125
 20
-2896.984375
 10
2299.970703125
 20
-2896.984375
 10
2290.18359375
 20
-2887.197265625
 10
2280.396484375
 20
-2887.197265625
 10
2270.609375
 20
-2877.41015625
 10
2260.822265625
 20
-2877.41015625
 10
2251.03515625
 20
-2867.623046875
 10
2241.248046875
 20
-2867.623046875
 10
2231.4609375
 20
-2857.8359375
 10
2231.4609375
 20
-2848.048828125
 10
2221.673828125
 20
-2838.26171875
 10
2211.88671875
 20
-2838.26171875
 10
2202.099609375
 20
-2838.26171875
 10
2192.3125
 20
-2828.474609375
 10
2182.525390625
 20
-2828.474609375
 10
2172.73828125
 20
-2818.6875
 10
2172.73828125
 20
-2808.900390625
 10
2162.951171875
 20
-2799.11328125
 10
2153.1640625
 20
-2789.326171875
 10
2143.376953125
 20
-2779.5390625
 10
2143.376953125
 20
-2769.751953125
 10
2143.376953125
 20
-2759.96484375
 10
2133.58984375
 20
-2759.96484375
 10
2123.802734375
 20
-2750.177734375
 10
2123.802734375
 20
-2740.390625
 10
2123.802734375
 20
-2730.603515625
 10
2114.015625
 20
-2730.603515625
 10
2104.228515625
 20
-2720.81640625
 10
2104.228515625
 20
-2711.029296875
 10
2104.228515625
 20
-2701.2421875
 10
2104.228515625
 20
-2691.455078125
 10
2094.44140625
 20
-2681.66796875
 10
2094.44140625
 20
-2671.880859375
 10
2084.654296875
 20
-2662.09375
 10
2084.654296875
 20
-2652.306640625
 10
2074.8671875
 20
-2642.51953125
 10
2074.8671875
 20
-2632.732421875
 10
2065.080078125
 20
-2622.9453125
 10
2065.080078125
 20
-2613.158203125
 10
2065.080078125
 20
-2603.37109375
 10
2065.080078125
 20
-2593.583984375
 10
2065.080078125
 20
-2583.796875
 10
2065.080078125
 20
-2574.009765625
 10
2065.080078125
 20
-2564.22265625
 10
2055.29296875
 20
-2554.435546875
 10
2055.29296875
 20
-2544.6484375
 10
2055.29296875
 20
-2534.861328125
 10
2055.29296875
 20
-2525.07421875
 10
2055.29296875
 20
-2515.287109375
 10
2065.080078125
 20
-2505.5
 10
2055.29296875
 20
-2495.712890625
 10
2055.29296875
 20
-2485.92578125
 10
2055.29296875
 20
-2476.138671875
 10
2055.29296875
 20
-2466.3515625
 10
2055.29296875
 20
-2456.564453125
 10
2055.29296875
 20
-2446.77734375
 10
2055.29296875
 20
-2436.990234375
 10
2065.080078125
 20
-2427.203125
 10
2065.080078125
 20
-2417.416015625
 10
2065.080078125
 20
-2407.62890625
 10
2065.080078125
 20
-2397.841796875
 10
2074.8671875
 20
-2388.0546875
 10
2065.080078125
 20
-2378.267578125
 10
2074.8671875
 20
-2368.48046875
 10
2084.654296875
 20
-2358.693359375
 10
2084.654296875
 20
-2348.90625
 10
2094.44140625
 20
-2339.119140625
 10
2104.228515625
 20
-2329.33203125
 10
2104.228515625
 20
-2319.544921875
 10
2104.228515625
 20
-2309.7578125
 10
2114.015625
 20
-2299.970703125
 10
2114.015625
 20
-2290.18359375
 10
2123.802734375
 20
-2280.396484375
 10
2123.802734375
 20
-2270.609375
 10
2123.802734375
 20
-2260.822265625
 10
2133.58984375
 20
-2251.03515625
 10
2143.376953125
 20
-2241.248046875
 10
2143.376953125
 20
-2231.4609375
 10
2143.376953125
 20
-2221.673828125
 10
2153.1640625
 20
-2211.88671875
 10
2162.951171875
 20
-2211.88671875
 10
2172.73828125
 20
-2202.099609375
 10
2182.525390625
 20
-2192.3125
 10
2182.525390625
 20
-2182.525390625
 10
2192.3125
 20
-2172.73828125
 10
2202.099609375
 20
-2172.73828125
 10
2211.88671875
 20
-2162.951171875
 10
2221.673828125
 20
-2162.951171875
 10
2221.673828125
 20
-2153.1640625
 10
2231.4609375
 20
-2143.376953125
 10
2241.248046875
 20
-2143.376953125
 10
2251.03515625
 20
-2133.58984375
 10
2260.822265625
 20
-2123.802734375
 10
2270.609375
 20
-2123.802734375
 10
2280.396484375
 20
-2114.015625
 10
2290.18359375
 20
-2114.015625
 10
2299.970703125
 20
-2104.228515625
 10
2309.7578125
 20
-2094.44140625
 10
2319.544921875
 20
-2094.44140625
 10
2329.33203125
 20
-2094.44140625
 10
2339.119140625
 20
-2084.654296875
 10
2348.90625
 20
-2074.8671875
 10
2358.693359375
 20
-2065.080078125
 10
2368.48046875
 20
-2074.8671875
 10
2378.267578125
 20
-2065.080078125
 10
2388.0546875
 20
-2074.8671875
 10
2397.841796875
 20
-2065.080078125
 10
2407.62890625
 20
-2065.080078125
 10
2417.416015625
 20
-2065.080078125
 10
2427.203125
 20
-2065.080078125
  0
LWPOLYLINE
  5
43
330
17
100
AcDbEntity
  8
substrate
100
AcDbPolyline
 90
228
 70
1
 43
0.5
 10
2417.416015625
 20
-2114.015625
 10
2407.62890625
 20
-2123.802734375
 10
2397.841796875
 20
-2133.58984375
 10
2388.0546875
 20
-2133.58984375
 10
2378.267578125
 20
-2133.58984375
 10
2368.48046875
 20
-2143.376953125
 10
2358.693359375
 20
-2143.376953125
 10
2348.90625
 20
-2153.1640625
 10
2339.119140625
 20
-2153.1640625
 10
2329.33203125
 20
-2162.951171875
 10
2319.544921875
 20
-2162.951171875
 10
2309.7578125
 20
-2162.951171875
 10
2299.970703125
 20
-2172.73828125
 10
2290.18359375
 20
-2172.73828125
 10
2280.396484375
 20
-2182.525390625
 10
2270.609375
 20
-2192.3125
 10
2260.822265625
 20
-2202.099609375
 10
2251.03515625
 20
-2202.099609375
 10
2241.248046875
 20
-2211.88671875
 10
2231.4609375
 20
-2221.673828125
 10
2221.673828125
 20
-2221.673828125
 10
2211.88671875
 20
-2231.4609375
 10
2202.099609375
 20
-2241.248046875
 10
2192.3125
 20
-2251.03515625
 10
2192.3125
 20
-2260.822265625
 10
2182.525390625
 20
-2270.609375
 10
2172.73828125
 20
-2280.396484375
 10
2172.73828125
 20
-2290.18359375
 10
2172.73828125
 20
-2299.970703125
 10
2162.951171875
 20
-2309.7578125
 10
2162.951171875
 20
-2319.544921875
 10
2162.951171875
 20
-2329.33203125
 10
2153.1640625
 20
-2339.119140625
 10
2143.376953125
 20
-2348.90625
 10
2143.376953125
 20
-2358.693359375
 10
2143.376953125
 20
-2368.48046875
 10
2133.58984375
 20
-2378.267578125
 10
2133.58984375
 20
-2388.0546875
 10
2133.58984375
 20
-2397.841796875
 10
2133.58984375
 20
-2407.62890625
 10
2123.802734375
 20
-2417.416015625
 10
2123.802734375
 20
-2427.203125
 10
2123.802734375
 20
-2436.990234375
 10
2123.802734375
 20
-2446.77734375
 10
2123.802734375
 20
-2456.564453125
 10
2123.802734375
 20
-2466.3515625
 10
2123.802734375
 20
-2476.138671875
 10
2114.015625
 20
-2485.92578125
 10
2123.802734375
 20
-2495.712890625
 10
2114.015625
 20
-2505.5
 10
2123.802734375
 20
-2515.287109375
 10
2123.802734375
 20
-2525.07421875
 10
2123.802734375
 20
-2534.861328125
 10
2123.802734375
 20
-2544.6484375
 10
2123.802734375
 20
-2554.435546875
 10
2123.802734375
 20
-2564.22265625
 10
2123.802734375
 20
-2574.009765625
 10
2133.58984375
 20
-2583.796875
 10
2133.58984375
 20
-2593.583984375
 10
2133.58984375
 20
-2603.37109375
 10
2133.58984375
 20
-2613.158203125
 10
2133.58984375
 20
-2622.9453125
 10
2133.58984375
 20
-2632.732421875
 10
2143.376953125
 20
-2642.51953125
 10
2143.376953125
 20
-2652.306640625
 10
2153.1640625
 20
-2662.09375
 10
2162.951171875
 20
-2671.880859375
 10
2162.951171875
 20
-2681.66796875
 10
2162.951171875
 20
-2691.455078125
 10
2172.73828125
 20
-2701.2421875
 10
2182.525390625
 20
-2711.029296875
 10
2182.525390625
 20
-2720.81640625
 10
2192.3125
 20
-2720.81640625
 10
2202.099609375
 20
-2730.603515625
 10
2202.099609375
 20
-2740.390625
 10
2211.88671875
 20
-2750.177734375
 10
2211.88671875
 20
-2759.96484375
 10
2221.673828125
 20
-2769.751953125
 10
2231.4609375
 20
-2779.5390625
 10
2241.248046875
 20
-2789.326171875
 10
2251.03515625
 20
-2789.326171875
 10
2260.822265625
 20
-2799.11328125
 10
2270.609375
 20
-2808.900390625
 10
2280.396484375
 20
-2808.900390625
 10
2290.18359375
 20
-2818.6875
 10
2299.970703125
 20
-2828.474609375
 10
2309.7578125
 20
-2828.474609375
 10
2319.544921875
 20
-2838.26171875
 10
2329.33203125
 20
-2838.26171875
 10
2339.119140625
 20
-2848.048828125
 10
2348.90625
 20
-2848.048828125
 10
2358.693359375
 20
-2857.8359375
 10
2368.48046875
 20
-2857.8359375
 10
2378.267578125
 20
-2857.8359375
 10
2388.0546875
 20
-2867.623046875
 10
2397.841796875
 20
-2867.623046875
 10
2407.62890625
 20
-2867.623046875
 10
2417.416015625
 20
-2877.41015625
 10
2427.203125
 20
-2877.41015625
 10
2436.990234375
 20
-2877.41015625
 10
2446.77734375
 20
-2877.41015625
 10
2456.564453125
 20
-2877.41015625
 10
2466.3515625
 20
-2877.41015625
 10
2476.138671875
 20
-2877.41015625
 10
2485.92578125
 20
-2877.41015625
 10
2495.712890625
 20
-2887.197265625
 10
2505.5
 20
-2887.197265625
 10
2515.287109375
 20
-2887.197265625
 10
2525.07421875
 20
-2887.197265625
 10
2534.861328125
 20
-2887.197265625
 10
2544.6484375
 20
-2877.41015625
 10
2554.435546875
 20
-2887.197265625
 10
2564.22265625
 20
-2877.41015625
 10
2574.009765625
 20
-2877.41015625
 10
2583.796875
 20
-2877.41015625
 10
2593.583984375
 20
-2877.41015625
 10
2603.37109375
 20
-2867.623046875
 10
2613.158203125
 20
-2867.623046875
 10
2622.9453125
 20
-2857.8359375
 10
2632.732421875
 20
-2857.8359375
 10
2642.51953125
 20
-2848.048828125
 10
2652.306640625
 20
-2848.048828125
 10
2662.09375
 20
-2848.048828125
 10
2671.880859375
 20
-2838.26171875
 10
2681.66796875
 20
-2838.26171875
 10
2691.455078125
 20
-2828.474609375
 10
2701.2421875
 20
-2828.474609375
 10
2711.029296875
 20
-2818.6875
 10
2720.81640625
 20
-2808.900390625
 10
2730.603515625
 20
-2808.900390625
 10
2740.390625
 20
-2799.11328125
 10
2750.177734375
 20
-2789.326171875
 10
2759.96484375
 20
-2779.5390625
 10
2769.751953125
 20
-2769.751953125
 10
2779.5390625
 20
-2759.96484375
 10
2789.326171875
 20
-2759.96484375
 10
2799.11328125
 20
-2750.177734375
 10
2808.900390625
 20
-2740.390625
 10
2808.900390625
 20
-2730.603515625
 10
2818.6875
 20
-2720.81640625
 10
2818.6875
 20
-2711.029296875
 10
2828.474609375
 20
-2701.2421875
 10
2838.26171875
 20
-2691.455078125
 10
2838.26171875
 20
-2681.66796875
 10
2848.048828125
 20
-2671.880859375
 10
2848.048828125
 20
-2662.09375
 10
2857.8359375
 20
-2652.306640625
 10
2857.8359375
 20
-2642.51953125
 10
2857.8359375
 20
-2632.732421875
 10
2857.8359375
 20
-2622.9453125
 10
2867.623046875
 20
-2613.158203125
 10
2867.623046875
 20
-2603.37109375
 10
2867.623046875
 20
-2593.583984375
 10
2877.41015625
 20
-2583.796875
 10
2877.41015625
 20
-2574.009765625
 10
2877.41015625
 20
-2564.22265625
 10
2877.41015625
 20
-2554.435546875
 10
2887.197265625
 20
-2544.6484375
 10
2887.197265625
 20
-2534.861328125
 10
2887.197265625
 20
-2525.07421875
 10
2887.197265625
 20
-2515.287109375
 10
2887.197265625
 20
-2505.5
 10
2887.197265625
 20
-2495.712890625
 10
2887.197265625
 20
-2485.92578125
 10
2887.197265625
 20
-2476.138671875
 10
2877.41015625
 20
-2466.3515625
 10
2877.41015625
 20
-2456.564453125
 10
2877.41015625
 20
-2446.77734375
 10
2877.41015625
 20
-2436.990234375
 10
2867.623046875
 20
-2427.203125
 10
2867.623046875
 20
-2417.416015625
 10
2867.623046875
 20
-2407.62890625
 10
2867.623046875
 20
-2397.841796875
 10
2867.623046875
 20
-2388.0546875
 10
2867.623046875
 20
-2378.267578125
 10
2867.623046875
 20
-2368.48046875
 10
2857.8359375
 20
-2358.693359375
 10
2857.8359375
 20
-2348.90625
 10
2848.048828125
 20
-2339.119140625
 10
2848.048828125
 20
-2329.33203125
 10
2838.26171875
 20
-2319.544921875
 10
2838.26171875
 20
-2309.7578125
 10
2828.474609375
 20
-2299.970703125
 10
2828.474609375
 20
-2290.18359375
 10
2818.6875
 20
-2280.396484375
 10
2808.900390625
 20
-2270.609375
 10
2799.11328125
 20
-2260.822265625
 10
2799.11328125
 20
-2251.03515625
 10
2789.326171875
 20
-2241.248046875
 10
2779.5390625
 20
-2231.4609375
 10
2779.5390625
 20
-2221.673828125
 10
2769.751953125
 20
-2211.88671875
 10
2759.96484375
 20
-2211.88671875
 10
2750.177734375
 20
-2211.88671875
 10
2740.390625
 20
-2202.099609375
 10
2730.603515625
 20
-2192.3125
 10
2720.81640625
 20
-2182.525390625
 10
2711.029296875
 20
-2182.525390625
 10
2701.2421875
 20
-2172.73828125
 10
2701.2421875
 20
-2162.951171875
 10
2691.455078125
 20
-2162.951171875
 10
2681.66796875
 20
-2153.1640625
 10
2671.880859375
 20
-2153.1640625
 10
2662.09375
 20
-2153.1640625
 10
2652.306640625
 20
-2153.1640625
 10
2642.51953125
 20
-2143.376953125
 10
2632.732421875
 20
-2143.376953125
 10
2622.9453125
 20
-2143.376953125
 10
2613.158203125
 20
-2133.58984375
 10
2603.37109375
 20
-2133.58984375
 10
2593.583984375
 20
-2133.58984375
 10
2583.796875
 20
-2123.802734375
 10
2574.009765625
 20
-2123.802734375
 10
2564.22265625
 20
-2114.015625
 10
2554.435546875
 20
-2123.802734375
 10
2544.6484375
 20
-2123.802734375
 10
2534.861328125
 20
-2123.802734375
 10
2525.07421875
 20
-2114.015625
 10
2515.287109375
 20
-2114.015625
 10
2505.5
 20
-2114.015625
 10
2495.712890625
 20
-2114.015625
 10
2485.92578125
 20
-2114.015625
 10
2476.138671875
 20
-2114.015625
 10
2466.3515625
 20
-2114.015625
 10
2456.564453125
 20
-2114.015625
 10
2446.77734375
 20
-2114.015625
 10
2436.990234375
 20
-2114.015625
 10
2427.203125
 20
-2114.015625
  0
LWPOLYLINE
  5
44
330
17
100
AcDbEntity
  8
substrate
100
AcDbPolyline
 90
197
 70
1
 43
0.5
 10
2427.203125
 20
-2192.3125
 10
2436.990234375
 20
-2182.525390625
 10
2446.77734375
 20
-2182.525390625
 10
2456.564453125
 20
-2182.525390625
 10
2466.3515625
 20
-2182.525390625
 10
2476.138671875
 20
-2182.525390625
 10
2485.92578125
 20
-2192.3125
 10
2495.712890625
 20
-2192.3125
 10
2505.5
 20
-2192.3125
 10
2515.287109375
 20
-2192.3125
 10
2525.07421875
 20
-2192.3125
 10
2534.861328125
 20
-2192.3125
 10
2544.6484375
 20
-2192.3125
 10
2554.435546875
 20
-2202.099609375
 10
2564.22265625
 20
-2192.3125
 10
2574.009765625
 20
-2192.3125
 10
2583.796875
 20
-2192.3125
 10
2593.583984375
 20
-2192.3125
 10
2603.37109375
 20
-2192.3125
 10
2613.158203125
 20
-2202.099609375
 10
2622.9453125
 20
-2202.099609375
 10
2632.732421875
 20
-2211.88671875
 10
2642.51953125
 20
-2211.88671875
 10
2652.306640625
 20
-2221.673828125
 10
2662.09375
 20
-2221.673828125
 10
2671.880859375
 20
-2231.4609375
 10
2681.66796875
 20
-2241.248046875
 10
2681.66796875
 20
-2251.03515625
 10
2691.455078125
 20
-2260.822265625
 10
2701.2421875
 20
-2260.822265625
 10
2711.029296875
 20
-2270.609375
 10
2720.81640625
 20
-2280.396484375
 10
2730.603515625
 20
-2290.18359375
 10
2740.390625
 20
-2299.970703125
 10
2750.177734375
 20
-2299.970703125
 10
2759.96484375
 20
-2309.7578125
 10
2759.96484375
 20
-2319.544921875
 10
2769.751953125
 20
-2329.33203125
 10
2769.751953125
 20
-2339.119140625
 10
2779.5390625
 20
-2348.90625
 10
2779.5390625
 20
-2358.693359375
 10
2789.326171875
 20
-2368.48046875
 10
2789.326171875
 20
-2378.267578125
 10
2799.11328125
 20
-2388.0546875
 10
2799.11328125
 20
-2397.841796875
 10
2799.11328125
 20
-2407.62890625
 10
2799.11328125
 20
-2417.416015625
 10
2808.900390625
 20
-2427.203125
 10
2808.900390625
 20
-2436.990234375
 10
2818.6875
 20
-2436.990234375
 10
2828.474609375
 20
-2446.77734375
 10
2828.474609375
 20
-2456.564453125
 10
2828.474609375
 20
-2466.3515625
 10
2828.474609375
 20
-2476.138671875
 10
2818.6875
 20
-2485.92578125
 10
2818.6875
 20
-2495.712890625
 10
2818.6875
 20
-2505.5
 10
2818.6875
 20
-2515.287109375
 10
2818.6875
 20
-2525.07421875
 10
2818.6875
 20
-2534.861328125
 10
2818.6875
 20
-2544.6484375
 10
2818.6875
 20
-2554.435546875
 10
2808.900390625
 20
-2564.22265625
 10
2808.900390625
 20
-2574.009765625
 10
2808.900390625
 20
-2583.796875
 10
2808.900390625
 20
-2593.583984375
 10
2799.11328125
 20
-2603.37109375
 10
2808.900390625
 20
-2613.158203125
 10
2808.900390625
 20
-2622.9453125
 10
2799.11328125
 20
-2632.732421875
 10
2789.326171875
 20
-2642.51953125
 10
2789.326171875
 20
-2652.306640625
 10
2789.326171875
 20
-2662.09375
 10
2789.326171875
 20
-2671.880859375
 10
2779.5390625
 20
-2681.66796875
 10
2769.751953125
 20
-2691.455078125
 10
2769.751953125
 20
-2701.2421875
 10
2759.96484375
 20
-2711.029296875
 10
2750.177734375
 20
-2720.81640625
 10
2740.390625
 20
-2720.81640625
 10
2730.603515625
 20
-2730.603515625
 10
2720.81640625
 20
-2720.81640625
 10
2720.81640625
 20
-2730.603515625
 10
2720.81640625
 20
-2740.390625
 10
2730.603515625
 20
-2750.177734375
 10
2720.81640625
 20
-2759.96484375
 10
2711.029296875
 20
-2759.96484375
 10
2701.2421875
 20
-2769.751953125
 10
2691.455078125
 20
-2779.5390625
 10
2681.66796875
 20
-2779.5390625
 10
2671.880859375
 20
-2779.5390625
 10
2662.09375
 20
-2779.5390625
 10
2652.306640625
 20
-2789.326171875
 10
2642.51953125
 20
-2799.11328125
 10
2632.732421875
 20
-2808.900390625
 10
2622.9453125
 20
-2799.11328125
 10
2613.158203125
 20
-2808.900390625
 10
2603.37109375
 20
-2808.900390625
 10
2593.583984375
 20
-2808.900390625
 10
2583.796875
 20
-2818.6875
 10
2574.009765625
 20
-2818.6875
 10
2564.22265625
 20
-2818.6875
 10
2554.435546875
 20
-2818.6875
 10
2544.6484375
 20
-2818.6875
 10
2534.861328125
 20
-2828.474609375
 10
2525.07421875
 20
-2828.474609375
 10
2515.287109375
 20
-2828.474609375
 10
2505.5
 20
-2838.26171875
 10
2495.712890625
 20
-2848.048828125
 10
2485.92578125
 20
-2848.048828125
 10
2476.138671875
 20
-2848.048828125
 10
2466.3515625
 20
-2848.048828125
 10
2456.564453125
 20
-2838.26171875
 10
2446.77734375
 20
-2838.26171875
 10
2436.990234375
 20
-2838.26171875
 10
2427.203125
 20
-2828.474609375
 10
2417.416015625
 20
-2828.474609375
 10
2407.62890625
 20
-2828.474609375
 10
2397.841796875
 20
-2828.474609375
 10
2388.0546875
 20
-2818.6875
 10
2378.267578125
 20
-2818.6875
 10
2368.48046875
 20
-2808.900390625
 10
2358.693359375
 20
-2808.900390625
 10
2348.90625
 20
-2808.900390625
 10
2339.119140625
 20
-2799.11328125
 10
2329.33203125
 20
-2799.11328125
 10
2319.544921875
 20
-2789.326171875
 10
2309.7578125
 20
-2789.326171875
 10
2299.970703125
 20
-2779.5390625
 10
2290.18359375
 20
-2769.751953125
 10
2280.396484375
 20
-2769.751953125
 10
2270.609375
 20
-2759.96484375
 10
2260.822265625
 20
-2750.177734375
 10
2260.822265625
 20
-2740.390625
 10
2251.03515625
 20
-2730.603515625
 10
2241.248046875
 20
-2720.81640625
 10
2231.4609375
 20
-2711.029296875
 10
2231.4609375
 20
-2701.2421875
 10
2221.673828125
 20
-2691.455078125
 10
2221.673828125
 20
-2681.66796875
 10
2221.673828125
 20
-2671.880859375
 10
2211.88671875
 20
-2662.09375
 10
2202.099609375
 20
-2652.306640625
 10
2192.3125
 20
-2642.51953125
 10
2192.3125
 20
-2632.732421875
 10
2192.3125
 20
-2622.9453125
 10
2182.525390625
 20
-2613.158203125
 10
2182.525390625
 20
-2603.37109375
 10
2172.73828125
 20
-2593.583984375
 10
2172.73828125
 20
-2583.796875
 10
2162.951171875
 20
-2574.009765625
 10
2172.73828125
 20
-2564.22265625
 10
2162.951171875
 20
-2554.435546875
 10
2162.951171875
 20
-2544.6484375
 10
2162.951171875
 20
-2534.861328125
 10
2162.951171875
 20
-2525.07421875
 10
2162.951171875
 20
-2515.287109375
 10
2162.951171875
 20
-2505.5
 10
2162.951171875
 20
-2495.712890625
 10
2162.951171875
 20
-2485.92578125
 10
2162.951171875
 20
-2476.138671875
 10
2162.951171875
 20
-2466.3515625
 10
2162.951171875
 20
-2456.564453125
 10
2172.73828125
 20
-2446.77734375
 10
2172.73828125
 20
-2436.990234375
 10
2172.73828125
 20
-2427.203125
 10
2172.73828125
 20
-2417.416015625
 10
2182.525390625
 20
-2407.62890625
 10
2192.3125
 20
-2397.841796875
 10
2182.525390625
 20
-2388.0546875
 10
2192.3125
 20
-2378.267578125
 10
2192.3125
 20
-2368.48046875
 10
2192.3125
 20
-2358.693359375
 10
2202.099609375
 20
-2348.90625
 10
2211.88671875
 20
-2339.119140625
 10
2221.673828125
 20
-2329.33203125
 10
2231.4609375
 20
-2319.544921875
 10
2241.248046875
 20
-2309.7578125
 10
2251.03515625
 20
-2299.970703125
 10
2251.03515625
 20
-2290.18359375
 10
2260.822265625
 20
-2280.396484375
 10
2270.609375
 20
-2270.609375
 10
2280.396484375
 20
-2260.822265625
 10
2290.18359375
 20
-2260.822265625
 10
2299.970703125
 20
-2260.822265625
 10
2309.7578125
 20
-2251.03515625
 10
2319.544921875
 20
-2251.03515625
 10
2329.33203125
 20
-2241.248046875
 10
2339.119140625
 20
-2241.248046875
 10
2348.90625
 20
-2231.4609375
 10
2358.693359375
 20
-2221.673828125
 10
2368.48046875
 20
-2211.88671875
 10
2378.267578125
 20
-2211.88671875
 10
2388.0546875
 20
-2202.099609375
 10
2397.841796875
 20
-2202.099609375
 10
2407.62890625
 20
-2192.3125
 10
2417.416015625
 20
-2192.3125
  0
LWPOLYLINE
  5
45
330
17
100
AcDbEntity
  8
substrate
100
AcDbPolyline
 90
4
 70
1
 43
0.5
 10
274.0390625
 20
-1213.6015625
 10
283.826171875
 20
-1203.814453125
 10
293.61328125
 20
-1213.6015625
 10
283.826171875
 20
-1223.388671875
  0
LWPOLYLINE
  5
46
330
17
100
AcDbEntity
  8
substrate
100
AcDbPolyline
 90
4
 70
1
 43
0.5
 10
3180.810546875
 20
-1017.859375
 10
3190.59765625
 20
-1008.072265625
 10
3200.384765625
 20
-1017.859375
 10
3190.59765625
 20
-1027.646484375
  0
LWPOLYLINE
  5
47
330
17
100
AcDbEntity
  8
substrate
100
AcDbPolyline
 90
4
 70
1
 43
0.5
 10
3210.171875
 20
-919.98828125
 10
3219.958984375
 20
-910.201171875
 10
3229.74609375
 20
-919.98828125
 10
3219.958984375
 20
-929.775390625
  0
ENDSEC
  0
SECTION
  2
OBJECTS
  0
DICTIONARY
  5
A
330
0
100
AcDbDictionary
280
0
281
1
  3
ACAD_COLOR
350
B
  3
ACAD_GROUP
350
C
  3
ACAD_LAYOUT
350
D
  3
ACAD_MATERIAL
350
E
  3
ACAD_MLEADERSTYLE
350
F
  3
ACAD_MLINESTYLE
350
10
  3
ACAD_PLOTSETTINGS
350
11
  3
ACAD_PLOTSTYLENAME
350
12
  3
ACAD_SCALELIST
350
14
  3
ACAD_TABLESTYLE
350
15
  3
ACAD_VISUALSTYLE
350
16
  3
EZDXF_META
350
2D
  0
DICTIONARY
  5
B
330
A
100
AcDbDictionary
280
0
281
1
  0
DICTIONARY
  5
C
330
A
100
AcDbDictionary
280
0
281
1
  0
DICTIONARY
  5
D
330
A
100
AcDbDictionary
280
0
281
1
  3
Model
350
1A
  3
Layout1
350
1E
  0
DICTIONARY
  5
E
330
A
100
AcDbDictionary
280
0
281
1
  3
ByBlock
350
1F
  3
ByLayer
350
20
  3
Global
350
21
  0
DICTIONARY
  5
F
330
A
100
AcDbDictionary
280
0
281
1
  3
Standard
350
2C
  0
DICTIONARY
  5
10
330
A
100
AcDbDictionary
280
0
281
1
  3
Standard
350
22
  0
DICTIONARY
  5
11
330
A
100
AcDbDictionary
280
0
281
1
  0
ACDBDICTIONARYWDFLT
  5
12
330
A
100
AcDbDictionary
280
0
281
1
  3
Normal
350
13
100
AcDbDictionaryWithDefault
340
13
  0
ACDBPLACEHOLDER
  5
13
330
12
  0
DICTIONARY
  5
14
330
A
100
AcDbDictionary
280
0
281
1
  0
DICTIONARY
  5
15
330
A
100
AcDbDictionary
280
0
281
1
  0
DICTIONARY
  5
16
330
A
100
AcDbDictionary
280
0
281
1
  0
LAYOUT
  5
1A
330
D
100
AcDbPlotSettings
  1

  2
Adobe PDF
  4
A3
  6

 40
7.5
 41
20.0
 42
7.5
 43
20.0
 44
420.0
 45
297.0
 46
0.0
 47
0.0
 48
0.0
 49
0.0
140
0.0
141
0.0
142
1.0
143
1.0
 70
1024
 72
1
 73
0
 74
5
  7

 75
16
 76
0
 77
2
 78
300
147
1.0
148
0.0
149
0.0
100
AcDbLayout
  1
Model
 70
1
 71
0
 10
0.0
 20
0.0
 11
420.0
 21
297.0
 12
0.0
 22
0.0
 32
0.0
 14
1e+20
 24
1e+20
 34
1e+20
 15
-1e+20
 25
-1e+20
 35
-1e+20
146
0.0
 13
0.0
 23
0.0
 33
0.0
 16
1.0
 26
0.0
 36
0.0
 17
0.0
 27
1.0
 37
0.0
 76
1
330
17
  0
LAYOUT
  5
1E
330
D
100
AcDbPlotSettings
  1

  2
Adobe PDF
  4
A3
  6

 40
7.5
 41
20.0
 42
7.5
 43
20.0
 44
420.0
 45
297.0
 46
0.0
 47
0.0
 48
0.0
 49
0.0
140
0.0
141
0.0
142
1.0
143
1.0
 70
0
 72
1
 73
0
 74
5
  7

 75
16
 76
0
 77
2
 78
300
147
1.0
148
0.0
149
0.0
100
AcDbLayout
  1
Layout1
 70
1
 71
1
 10
0.0
 20
0.0
 11
420.0
 21
297.0
 12
0.0
 22
0.0
 32
0.0
 14
1e+20
 24
1e+20
 34
1e+20
 15
-1e+20
 25
-1e+20
 35
-1e+20
146
0.0
 13
0.0
 23
0.0
 33
0.0
 16
1.0
 26
0.0
 36
0.0
 17
0.0
 27
1.0
 37
0.0
 76
1
330
1B
  0
MATERIAL
  5
1F
102
{ACAD_REACTORS
330
E
102
}
330
E
100
AcDbMaterial
  1
ByBlock
  2

 70
0
 40
1.0
 71
1
 41
1.0
 91
-1023410177
 42
1.0
 72
1
  3

 73
1
 74
1
 75
1
 44
0.5
 73
0
 45
1.0
 46
1.0
 77
1
  4

 78
1
 79
1
170
1
 48
1.0
171
1
  6

172
1
173
1
174
1
140
1.0
141
1.0
175
1
  7

176
1
177
1
178
1
143
1.0
179
1
  8

270
1
271
1
272
1
145
1.0
146
1.0
273
1
  9

274
1
275
1
276
1
 42
1.0
 72
1
  3

 73
1
 74
1
 75
1
 94
63
  0
MATERIAL
  5
20
102
{ACAD_REACTORS
330
E
102
}
330
E
100
AcDbMaterial
  1
ByLayer
  2

 70
0
 40
1.0
 71
1
 41
1.0
 91
-1023410177
 42
1.0
 72
1
  3

 73
1
 74
1
 75
1
 44
0.5
 73
0
 45
1.0
 46
1.0
 77
1
  4

 78
1
 79
1
170
1
 48
1.0
171
1
  6

172
1
173
1
174
1
140
1.0
141
1.0
175
1
  7

176
1
177
1
178
1
143
1.0
179
1
  8

270
1
271
1
272
1
145
1.0
146
1.0
273
1
  9

274
1
275
1
276
1
 42
1.0
 72
1
  3

 73
1
 74
1
 75
1
 94
63
  0
MATERIAL
  5
21
102
{ACAD_REACTORS
330
E
102
}
330
E
100
AcDbMaterial
  1
Global
  2

 70
0
 40
1.0
 71
1
 41
1.0
 91
-1023410177
 42
1.0
 72
1
  3

 73
1
 74
1
 75
1
 44
0.5
 73
0
 45
1.0
 46
1.0
 77
1
  4

 78
1
 79
1
170
1
 48
1.0
171
1
  6

172
1
173
1
174
1
140
1.0
141
1.0
175
1
  7

176
1
177
1
178
1
143
1.0
179
1
  8

270
1
271
1
272
1
145
1.0
146
1.0
273
1
  9

274
1
275
1
276
1
 42
1.0
 72
1
  3

 73
1
 74
1
 75
1
 94
63
  0
MLINESTYLE
  5
22
102
{ACAD_REACTORS
330
10
102
}
330
10
100
AcDbMlineStyle
  2
Standard
 70
0
  3

 62
256
 51
90.0
 52
90.0
 71
2
 49
0.5
 62
256
  6
BYLAYER
 49
-0.5
 62
256
  6
BYLAYER
  0
MLEADERSTYLE
  5
2C
102
{ACAD_REACTORS
330
F
102
}
330
F
100
AcDbMLeaderStyle
179
2
170
2
171
1
172
0
 90
2
 40
0.0
 41
0.0
173
1
 91
-1056964608
 92
-2
290
1
 42
2.0
291
1
 43
8.0
  3
Standard
 44
4.0
300

342
29
174
1
175
1
176
0
178
1
 93
-1056964608
 45
4.0
292
0
297
0
 46
4.0
 94
-1056964608
 47
1.0
 49
1.0
140
1.0
294
1
141
0.0
177
0
142
1.0
295
0
296
0
143
3.75
271
0
272
9
273
9
  0
DICTIONARY
  5
2D
330
A
100
AcDbDictionary
281
1
  3
CREATED_BY_EZDXF
350
2E
  3
WRITTEN_BY_EZDXF
350
4A
  0
DICTIONARYVAR
  5
2E
330
2D
100
DictionaryVariables
280
0
  1
1.1.0 @ 2025-03-03T11:48:56.097175+00:00
  0
DICTIONARYVAR
  5
4A
330
2D
100
DictionaryVariables
280
0
  1
1.1.0 @ 2025-03-03T11:48:56.104009+00:00
  0
ENDSEC
  0
EOF
