  0
SECTION
  2
HEADER
  9
$ACADVER
  1
AC1027
  9
$ACADMAINTVER
 70
105
  9
$DWGCODEPAGE
  3
ANSI_1252
  9
$LASTSAVEDBY
  1
ezdxf
  9
$REQUIREDVERSIONS
160
0
  9
$INSBASE
 10
0.0
 20
0.0
 30
0.0
  9
$EXTMIN
 10
1e+20
 20
1e+20
 30
1e+20
  9
$EXTMAX
 10
-1e+20
 20
-1e+20
 30
-1e+20
  9
$LIMMIN
 10
0.0
 20
0.0
  9
$LIMMAX
 10
420.0
 20
297.0
  9
$ORTHOMODE
 70
0
  9
$REGENMODE
 70
1
  9
$FILLMODE
 70
1
  9
$QTEXTMODE
 70
0
  9
$MIRRTEXT
 70
1
  9
$LTSCALE
 40
1.0
  9
$ATTMODE
 70
1
  9
$TEXTSIZE
 40
2.5
  9
$TRACEWID
 40
1.0
  9
$TEXTSTYLE
  7
Standard
  9
$CLAYER
  8
0
  9
$CELTYPE
  6
ByLayer
  9
$CECOLOR
 62
256
  9
$CELTSCALE
 40
1.0
  9
$DISPSILH
 70
0
  9
$DIMSCALE
 40
1.0
  9
$DIMASZ
 40
2.5
  9
$DIMEXO
 40
0.625
  9
$DIMDLI
 40
3.75
  9
$DIMRND
 40
0.0
  9
$DIMDLE
 40
0.0
  9
$DIMEXE
 40
1.25
  9
$DIMTP
 40
0.0
  9
$DIMTM
 40
0.0
  9
$DIMTXT
 40
2.5
  9
$DIMCEN
 40
2.5
  9
$DIMTSZ
 40
0.0
  9
$DIMTOL
 70
0
  9
$DIMLIM
 70
0
  9
$DIMTIH
 70
0
  9
$DIMTOH
 70
0
  9
$DIMSE1
 70
0
  9
$DIMSE2
 70
0
  9
$DIMTAD
 70
1
  9
$DIMZIN
 70
8
  9
$DIMBLK
  1

  9
$DIMASO
 70
1
  9
$DIMSHO
 70
1
  9
$DIMPOST
  1

  9
$DIMAPOST
  1

  9
$DIMALT
 70
0
  9
$DIMALTD
 70
3
  9
$DIMALTF
 40
0.03937007874
  9
$DIMLFAC
 40
1.0
  9
$DIMTOFL
 70
1
  9
$DIMTVP
 40
0.0
  9
$DIMTIX
 70
0
  9
$DIMSOXD
 70
0
  9
$DIMSAH
 70
0
  9
$DIMBLK1
  1

  9
$DIMBLK2
  1

  9
$DIMSTYLE
  2
ISO-25
  9
$DIMCLRD
 70
0
  9
$DIMCLRE
 70
0
  9
$DIMCLRT
 70
0
  9
$DIMTFAC
 40
1.0
  9
$DIMGAP
 40
0.625
  9
$DIMJUST
 70
0
  9
$DIMSD1
 70
0
  9
$DIMSD2
 70
0
  9
$DIMTOLJ
 70
0
  9
$DIMTZIN
 70
8
  9
$DIMALTZ
 70
0
  9
$DIMALTTZ
 70
0
  9
$DIMUPT
 70
0
  9
$DIMDEC
 70
2
  9
$DIMTDEC
 70
2
  9
$DIMALTU
 70
2
  9
$DIMALTTD
 70
3
  9
$DIMTXSTY
  7
Standard
  9
$DIMAUNIT
 70
0
  9
$DIMADEC
 70
0
  9
$DIMALTRND
 40
0.0
  9
$DIMAZIN
 70
0
  9
$DIMDSEP
 70
44
  9
$DIMATFIT
 70
3
  9
$DIMFRAC
 70
0
  9
$DIMLDRBLK
  1

  9
$DIMLUNIT
 70
2
  9
$DIMLWD
 70
-2
  9
$DIMLWE
 70
-2
  9
$DIMTMOVE
 70
0
  9
$DIMFXL
 40
1.0
  9
$DIMFXLON
 70
0
  9
$DIMJOGANG
 40
0.785398163397
  9
$DIMTFILL
 70
0
  9
$DIMTFILLCLR
 70
0
  9
$DIMARCSYM
 70
0
  9
$DIMLTYPE
  6

  9
$DIMLTEX1
  6

  9
$DIMLTEX2
  6

  9
$DIMTXTDIRECTION
 70
0
  9
$LUNITS
 70
2
  9
$LUPREC
 70
4
  9
$SKETCHINC
 40
1.0
  9
$FILLETRAD
 40
10.0
  9
$AUNITS
 70
0
  9
$AUPREC
 70
2
  9
$MENU
  1
.
  9
$ELEVATION
 40
0.0
  9
$PELEVATION
 40
0.0
  9
$THICKNESS
 40
0.0
  9
$LIMCHECK
 70
0
  9
$CHAMFERA
 40
0.0
  9
$CHAMFERB
 40
0.0
  9
$CHAMFERC
 40
0.0
  9
$CHAMFERD
 40
0.0
  9
$SKPOLY
 70
0
  9
$TDCREATE
 40
2460727.4469212964
  9
$TDUCREATE
 40
2458532.153996898
  9
$TDUPDATE
 40
2460727.4469212964
  9
$TDUUPDATE
 40
2458532.1544311
  9
$TDINDWG
 40
0.0
  9
$TDUSRTIMER
 40
0.0
  9
$USRTIMER
 70
1
  9
$ANGBASE
 50
0.0
  9
$ANGDIR
 70
0
  9
$PDMODE
 70
0
  9
$PDSIZE
 40
0.0
  9
$PLINEWID
 40
0.0
  9
$SPLFRAME
 70
0
  9
$SPLINETYPE
 70
6
  9
$SPLINESEGS
 70
8
  9
$HANDSEED
  5
46
  9
$SURFTAB1
 70
6
  9
$SURFTAB2
 70
6
  9
$SURFTYPE
 70
6
  9
$SURFU
 70
6
  9
$SURFV
 70
6
  9
$UCSBASE
  2

  9
$UCSNAME
  2

  9
$UCSORG
 10
0.0
 20
0.0
 30
0.0
  9
$UCSXDIR
 10
1.0
 20
0.0
 30
0.0
  9
$UCSYDIR
 10
0.0
 20
1.0
 30
0.0
  9
$UCSORTHOREF
  2

  9
$UCSORTHOVIEW
 70
0
  9
$UCSORGTOP
 10
0.0
 20
0.0
 30
0.0
  9
$UCSORGBOTTOM
 10
0.0
 20
0.0
 30
0.0
  9
$UCSORGLEFT
 10
0.0
 20
0.0
 30
0.0
  9
$UCSORGRIGHT
 10
0.0
 20
0.0
 30
0.0
  9
$UCSORGFRONT
 10
0.0
 20
0.0
 30
0.0
  9
$UCSORGBACK
 10
0.0
 20
0.0
 30
0.0
  9
$PUCSBASE
  2

  9
$PUCSNAME
  2

  9
$PUCSORG
 10
0.0
 20
0.0
 30
0.0
  9
$PUCSXDIR
 10
1.0
 20
0.0
 30
0.0
  9
$PUCSYDIR
 10
0.0
 20
1.0
 30
0.0
  9
$PUCSORTHOREF
  2

  9
$PUCSORTHOVIEW
 70
0
  9
$PUCSORGTOP
 10
0.0
 20
0.0
 30
0.0
  9
$PUCSORGBOTTOM
 10
0.0
 20
0.0
 30
0.0
  9
$PUCSORGLEFT
 10
0.0
 20
0.0
 30
0.0
  9
$PUCSORGRIGHT
 10
0.0
 20
0.0
 30
0.0
  9
$PUCSORGFRONT
 10
0.0
 20
0.0
 30
0.0
  9
$PUCSORGBACK
 10
0.0
 20
0.0
 30
0.0
  9
$USERI1
 70
0
  9
$USERI2
 70
0
  9
$USERI3
 70
0
  9
$USERI4
 70
0
  9
$USERI5
 70
0
  9
$USERR1
 40
0.0
  9
$USERR2
 40
0.0
  9
$USERR3
 40
0.0
  9
$USERR4
 40
0.0
  9
$USERR5
 40
0.0
  9
$WORLDVIEW
 70
1
  9
$SHADEDGE
 70
3
  9
$SHADEDIF
 70
70
  9
$TILEMODE
 70
1
  9
$MAXACTVP
 70
64
  9
$PINSBASE
 10
0.0
 20
0.0
 30
0.0
  9
$PLIMCHECK
 70
0
  9
$PEXTMIN
 10
1e+20
 20
1e+20
 30
1e+20
  9
$PEXTMAX
 10
-1e+20
 20
-1e+20
 30
-1e+20
  9
$PLIMMIN
 10
0.0
 20
0.0
  9
$PLIMMAX
 10
420.0
 20
297.0
  9
$UNITMODE
 70
0
  9
$VISRETAIN
 70
1
  9
$PLINEGEN
 70
0
  9
$PSLTSCALE
 70
1
  9
$TREEDEPTH
 70
3020
  9
$CMLSTYLE
  2
Standard
  9
$CMLJUST
 70
0
  9
$CMLSCALE
 40
20.0
  9
$PROXYGRAPHICS
 70
1
  9
$MEASUREMENT
 70
1
  9
$CELWEIGHT
370
-1
  9
$ENDCAPS
280
0
  9
$JOINSTYLE
280
0
  9
$LWDISPLAY
290
0
  9
$INSUNITS
 70
6
  9
$HYPERLINKBASE
  1

  9
$STYLESHEET
  1

  9
$XEDIT
290
1
  9
$CEPSNTYPE
380
0
  9
$PSTYLEMODE
290
1
  9
$FINGERPRINTGUID
  2
{FE0AB634-C9C9-4B21-A851-3A8606CB78EC}
  9
$VERSIONGUID
  2
{2FBBA5AA-68C7-4D67-A8C2-2BB0F1854647}
  9
$EXTNAMES
290
1
  9
$PSVPSCALE
 40
0.0
  9
$OLESTARTUP
290
0
  9
$SORTENTS
280
127
  9
$INDEXCTL
280
0
  9
$HIDETEXT
280
1
  9
$XCLIPFRAME
280
0
  9
$HALOGAP
280
0
  9
$OBSCOLOR
 70
257
  9
$OBSLTYPE
280
0
  9
$INTERSECTIONDISPLAY
280
0
  9
$INTERSECTIONCOLOR
 70
257
  9
$DIMASSOC
280
2
  9
$PROJECTNAME
  1

  9
$CAMERADISPLAY
290
0
  9
$LENSLENGTH
 40
50.0
  9
$CAMERAHEIGHT
 40
0.0
  9
$STEPSPERSEC
 40
24.0
  9
$STEPSIZE
 40
100.0
  9
$3DDWFPREC
 40
2.0
  9
$PSOLWIDTH
 40
0.005
  9
$PSOLHEIGHT
 40
0.08
  9
$LOFTANG1
 40
1.570796326795
  9
$LOFTANG2
 40
1.570796326795
  9
$LOFTMAG1
 40
0.0
  9
$LOFTMAG2
 40
0.0
  9
$LOFTPARAM
 70
7
  9
$LOFTNORMALS
280
1
  9
$LATITUDE
 40
37.795
  9
$LONGITUDE
 40
-122.394
  9
$NORTHDIRECTION
 40
0.0
  9
$TIMEZONE
 70
-8000
  9
$LIGHTGLYPHDISPLAY
280
1
  9
$TILEMODELIGHTSYNCH
280
1
  9
$CMATERIAL
347
20
  9
$SOLIDHIST
280
0
  9
$SHOWHIST
280
1
  9
$DWFFRAME
280
2
  9
$DGNFRAME
280
2
  9
$REALWORLDSCALE
290
1
  9
$INTERFERECOLOR
 62
256
  9
$CSHADOW
280
0
  9
$SHADOWPLANELOCATION
 40
0.0
  0
ENDSEC
  0
SECTION
  2
CLASSES
  0
CLASS
  1
ACDBDICTIONARYWDFLT
  2
AcDbDictionaryWithDefault
  3
ObjectDBX Classes
 90
0
 91
0
280
0
281
0
  0
CLASS
  1
SUN
  2
AcDbSun
  3
SCENEOE
 90
1153
 91
0
280
0
281
0
  0
CLASS
  1
VISUALSTYLE
  2
AcDbVisualStyle
  3
ObjectDBX Classes
 90
4095
 91
0
280
0
281
0
  0
CLASS
  1
MATERIAL
  2
AcDbMaterial
  3
ObjectDBX Classes
 90
1153
 91
0
280
0
281
0
  0
CLASS
  1
SCALE
  2
AcDbScale
  3
ObjectDBX Classes
 90
1153
 91
0
280
0
281
0
  0
CLASS
  1
TABLESTYLE
  2
AcDbTableStyle
  3
ObjectDBX Classes
 90
4095
 91
0
280
0
281
0
  0
CLASS
  1
MLEADERSTYLE
  2
AcDbMLeaderStyle
  3
ACDB_MLEADERSTYLE_CLASS
 90
4095
 91
0
280
0
281
0
  0
CLASS
  1
DICTIONARYVAR
  2
AcDbDictionaryVar
  3
ObjectDBX Classes
 90
0
 91
0
280
0
281
0
  0
CLASS
  1
CELLSTYLEMAP
  2
AcDbCellStyleMap
  3
ObjectDBX Classes
 90
1152
 91
0
280
0
281
0
  0
CLASS
  1
MENTALRAYRENDERSETTINGS
  2
AcDbMentalRayRenderSettings
  3
SCENEOE
 90
1024
 91
0
280
0
281
0
  0
CLASS
  1
ACDBDETAILVIEWSTYLE
  2
AcDbDetailViewStyle
  3
ObjectDBX Classes
 90
1025
 91
0
280
0
281
0
  0
CLASS
  1
ACDBSECTIONVIEWSTYLE
  2
AcDbSectionViewStyle
  3
ObjectDBX Classes
 90
1025
 91
0
280
0
281
0
  0
CLASS
  1
RASTERVARIABLES
  2
AcDbRasterVariables
  3
ISM
 90
0
 91
0
280
0
281
0
  0
CLASS
  1
ACDBPLACEHOLDER
  2
AcDbPlaceHolder
  3
ObjectDBX Classes
 90
0
 91
0
280
0
281
0
  0
CLASS
  1
LAYOUT
  2
AcDbLayout
  3
ObjectDBX Classes
 90
0
 91
0
280
0
281
0
  0
ENDSEC
  0
SECTION
  2
TABLES
  0
TABLE
  2
VPORT
  5
8
330
0
100
AcDbSymbolTable
 70
1
  0
VPORT
  5
23
330
8
100
AcDbSymbolTableRecord
100
AcDbViewportTableRecord
  2
*Active
 70
0
 10
0.0
 20
0.0
 11
1.0
 21
1.0
 12
0.0
 22
0.0
 13
0.0
 23
0.0
 14
0.5
 24
0.5
 15
0.5
 25
0.5
 16
0.0
 26
0.0
 36
1.0
 17
0.0
 27
0.0
 37
0.0
 40
1000.0
 41
1.34
 42
50.0
 43
0.0
 44
0.0
 50
0.0
 51
0.0
 71
0
 72
1000
 73
1
 74
3
 75
0
 76
0
 77
0
 78
0
281
0
 65
0
146
0.0
  0
ENDTAB
  0
TABLE
  2
LTYPE
  5
2
330
0
100
AcDbSymbolTable
 70
3
  0
LTYPE
  5
24
330
2
100
AcDbSymbolTableRecord
100
AcDbLinetypeTableRecord
  2
ByBlock
 70
0
  3

 72
65
 73
0
 40
0.0
  0
LTYPE
  5
25
330
2
100
AcDbSymbolTableRecord
100
AcDbLinetypeTableRecord
  2
ByLayer
 70
0
  3

 72
65
 73
0
 40
0.0
  0
LTYPE
  5
26
330
2
100
AcDbSymbolTableRecord
100
AcDbLinetypeTableRecord
  2
Continuous
 70
0
  3

 72
65
 73
0
 40
0.0
  0
ENDTAB
  0
TABLE
  2
LAYER
  5
1
330
0
100
AcDbSymbolTable
 70
5
  0
LAYER
  5
27
330
1
100
AcDbSymbolTableRecord
100
AcDbLayerTableRecord
  2
0
 70
0
 62
7
  6
Continuous
370
-3
390
13
347
21
  0
LAYER
  5
28
330
1
100
AcDbSymbolTableRecord
100
AcDbLayerTableRecord
  2
Defpoints
 70
0
 62
7
  6
Continuous
290
0
370
-3
390
13
347
21
  0
LAYER
  5
2F
330
1
100
AcDbSymbolTableRecord
100
AcDbLayerTableRecord
  2
conductor
 70
0
 62
1
  6
Continuous
370
-3
390
13
347
21
  0
LAYER
  5
30
330
1
100
AcDbSymbolTableRecord
100
AcDbLayerTableRecord
  2
dielectric
 70
0
 62
8
  6
Continuous
370
-3
390
13
347
21
  0
LAYER
  5
31
330
1
100
AcDbSymbolTableRecord
100
AcDbLayerTableRecord
  2
substrate
 70
0
 62
5
  6
Continuous
370
-3
390
13
347
21
  0
ENDTAB
  0
TABLE
  2
STYLE
  5
5
330
0
100
AcDbSymbolTable
 70
1
  0
STYLE
  5
29
330
5
100
AcDbSymbolTableRecord
100
AcDbTextStyleTableRecord
  2
Standard
 70
0
 40
0.0
 41
1.0
 50
0.0
 71
0
 42
2.5
  3
txt
  4

  0
ENDTAB
  0
TABLE
  2
VIEW
  5
7
330
0
100
AcDbSymbolTable
 70
0
  0
ENDTAB
  0
TABLE
  2
UCS
  5
6
330
0
100
AcDbSymbolTable
 70
0
  0
ENDTAB
  0
TABLE
  2
APPID
  5
3
330
0
100
AcDbSymbolTable
 70
3
  0
APPID
  5
2A
330
3
100
AcDbSymbolTableRecord
100
AcDbRegAppTableRecord
  2
ACAD
 70
0
  0
APPID
  5
43
330
3
100
AcDbSymbolTableRecord
100
AcDbRegAppTableRecord
  2
HATCHBACKGROUNDCOLOR
 70
0
  0
APPID
  5
44
330
3
100
AcDbSymbolTableRecord
100
AcDbRegAppTableRecord
  2
EZDXF
 70
0
  0
ENDTAB
  0
TABLE
  2
DIMSTYLE
  5
4
330
0
100
AcDbSymbolTable
 70
1
100
AcDbDimStyleTable
  0
DIMSTYLE
105
2B
330
4
100
AcDbSymbolTableRecord
100
AcDbDimStyleTableRecord
  2
Standard
 70
0
 40
1.0
 41
2.5
 42
0.625
 43
3.75
 44
1.25
 45
0.0
 46
0.0
 47
0.0
 48
0.0
 49
2.5
140
2.5
141
2.5
142
0.0
143
0.03937007874
144
1.0
145
0.0
146
1.0
147
0.625
148
0.0
 69
0
 70
0
 71
0
 72
0
 73
0
 74
0
 75
0
 76
0
 77
1
 78
8
 79
3
170
0
171
3
172
1
173
0
174
0
175
0
176
0
177
0
178
0
179
2
271
2
272
2
273
2
274
3
275
0
276
0
277
2
278
44
279
0
280
0
281
0
282
0
283
0
284
8
285
0
286
0
288
0
289
3
290
0
371
-2
372
-2
  0
ENDTAB
  0
TABLE
  2
BLOCK_RECORD
  5
9
330
0
100
AcDbSymbolTable
 70
2
  0
BLOCK_RECORD
  5
17
330
9
100
AcDbSymbolTableRecord
100
AcDbBlockTableRecord
  2
*Model_Space
340
1A
 70
0
280
1
281
0
  0
BLOCK_RECORD
  5
1B
330
9
100
AcDbSymbolTableRecord
100
AcDbBlockTableRecord
  2
*Paper_Space
340
1E
 70
0
280
1
281
0
  0
ENDTAB
  0
ENDSEC
  0
SECTION
  2
BLOCKS
  0
BLOCK
  5
18
330
17
100
AcDbEntity
  8
0
100
AcDbBlockBegin
  2
*Model_Space
 70
0
 10
0.0
 20
0.0
 30
0.0
  3
*Model_Space
  1

  0
ENDBLK
  5
19
330
17
100
AcDbEntity
  8
0
100
AcDbBlockEnd
  0
BLOCK
  5
1C
330
1B
100
AcDbEntity
  8
0
100
AcDbBlockBegin
  2
*Paper_Space
 70
0
 10
0.0
 20
0.0
 30
0.0
  3
*Paper_Space
  1

  0
ENDBLK
  5
1D
330
1B
100
AcDbEntity
  8
0
100
AcDbBlockEnd
  0
ENDSEC
  0
SECTION
  2
ENTITIES
  0
LWPOLYLINE
  5
32
330
17
100
AcDbEntity
  8
conductor
100
AcDbPolyline
 90
1362
 70
1
 43
0.5
 10
1949.619140625
 20
-779.84765625
 10
1949.619140625
 20
-789.845703125
 10
1939.62109375
 20
-799.84375
 10
1939.62109375
 20
-809.841796875
 10
1939.62109375
 20
-819.83984375
 10
1939.62109375
 20
-829.837890625
 10
1939.62109375
 20
-839.8359375
 10
1939.62109375
 20
-849.833984375
 10
1939.62109375
 20
-859.83203125
 10
1939.62109375
 20
-869.830078125
 10
1939.62109375
 20
-879.828125
 10
1939.62109375
 20
-889.826171875
 10
1939.62109375
 20
-899.82421875
 10
1939.62109375
 20
-909.822265625
 10
1939.62109375
 20
-919.8203125
 10
1939.62109375
 20
-929.818359375
 10
1939.62109375
 20
-939.81640625
 10
1939.62109375
 20
-949.814453125
 10
1939.62109375
 20
-959.8125
 10
1939.62109375
 20
-969.810546875
 10
1939.62109375
 20
-979.80859375
 10
1939.62109375
 20
-989.806640625
 10
1939.62109375
 20
-999.8046875
 10
1939.62109375
 20
-1009.802734375
 10
1939.62109375
 20
-1019.80078125
 10
1939.62109375
 20
-1029.798828125
 10
1939.62109375
 20
-1039.796875
 10
1939.62109375
 20
-1049.794921875
 10
1939.62109375
 20
-1059.79296875
 10
1939.62109375
 20
-1069.791015625
 10
1939.62109375
 20
-1079.7890625
 10
1949.619140625
 20
-1089.787109375
 10
1949.619140625
 20
-1099.78515625
 10
1939.62109375
 20
-1109.783203125
 10
1939.62109375
 20
-1119.78125
 10
1939.62109375
 20
-1129.779296875
 10
1939.62109375
 20
-1139.77734375
 10
1939.62109375
 20
-1149.775390625
 10
1939.62109375
 20
-1159.7734375
 10
1939.62109375
 20
-1169.771484375
 10
1939.62109375
 20
-1179.76953125
 10
1939.62109375
 20
-1189.767578125
 10
1939.62109375
 20
-1199.765625
 10
1939.62109375
 20
-1209.763671875
 10
1939.62109375
 20
-1219.76171875
 10
1939.62109375
 20
-1229.759765625
 10
1939.62109375
 20
-1239.7578125
 10
1939.62109375
 20
-1249.755859375
 10
1939.62109375
 20
-1259.75390625
 10
1939.62109375
 20
-1269.751953125
 10
1939.62109375
 20
-1279.75
 10
1939.62109375
 20
-1289.748046875
 10
1939.62109375
 20
-1299.74609375
 10
1939.62109375
 20
-1309.744140625
 10
1939.62109375
 20
-1319.7421875
 10
1939.62109375
 20
-1329.740234375
 10
1939.62109375
 20
-1339.73828125
 10
1939.62109375
 20
-1349.736328125
 10
1939.62109375
 20
-1359.734375
 10
1939.62109375
 20
-1369.732421875
 10
1939.62109375
 20
-1379.73046875
 10
1939.62109375
 20
-1389.728515625
 10
1939.62109375
 20
-1399.7265625
 10
1939.62109375
 20
-1409.724609375
 10
1949.619140625
 20
-1419.72265625
 10
1949.619140625
 20
-1429.720703125
 10
1949.619140625
 20
-1439.71875
 10
1949.619140625
 20
-1449.716796875
 10
1949.619140625
 20
-1459.71484375
 10
1939.62109375
 20
-1469.712890625
 10
1949.619140625
 20
-1479.7109375
 10
1939.62109375
 20
-1489.708984375
 10
1939.62109375
 20
-1499.70703125
 10
1939.62109375
 20
-1509.705078125
 10
1939.62109375
 20
-1519.703125
 10
1939.62109375
 20
-1529.701171875
 10
1939.62109375
 20
-1539.69921875
 10
1939.62109375
 20
-1549.697265625
 10
1949.619140625
 20
-1559.6953125
 10
1949.619140625
 20
-1569.693359375
 10
1949.619140625
 20
-1579.69140625
 10
1949.619140625
 20
-1589.689453125
 10
1949.619140625
 20
-1599.6875
 10
1949.619140625
 20
-1609.685546875
 10
1949.619140625
 20
-1619.68359375
 10
1949.619140625
 20
-1629.681640625
 10
1949.619140625
 20
-1639.6796875
 10
1949.619140625
 20
-1649.677734375
 10
1949.619140625
 20
-1659.67578125
 10
1949.619140625
 20
-1669.673828125
 10
1949.619140625
 20
-1679.671875
 10
1949.619140625
 20
-1689.669921875
 10
1949.619140625
 20
-1699.66796875
 10
1949.619140625
 20
-1709.666015625
 10
1949.619140625
 20
-1719.6640625
 10
1949.619140625
 20
-1729.662109375
 10
1949.619140625
 20
-1739.66015625
 10
1949.619140625
 20
-1749.658203125
 10
1949.619140625
 20
-1759.65625
 10
1949.619140625
 20
-1769.654296875
 10
1939.62109375
 20
-1779.65234375
 10
1939.62109375
 20
-1789.650390625
 10
1949.619140625
 20
-1799.6484375
 10
1949.619140625
 20
-1809.646484375
 10
1949.619140625
 20
-1819.64453125
 10
1949.619140625
 20
-1829.642578125
 10
1949.619140625
 20
-1839.640625
 10
1949.619140625
 20
-1849.638671875
 10
1949.619140625
 20
-1859.63671875
 10
1949.619140625
 20
-1869.634765625
 10
1949.619140625
 20
-1879.6328125
 10
1949.619140625
 20
-1889.630859375
 10
1949.619140625
 20
-1899.62890625
 10
1949.619140625
 20
-1909.626953125
 10
1939.62109375
 20
-1919.625
 10
1929.623046875
 20
-1929.623046875
 10
1919.625
 20
-1939.62109375
 10
1909.626953125
 20
-1939.62109375
 10
1899.62890625
 20
-1939.62109375
 10
1889.630859375
 20
-1949.619140625
 10
1879.6328125
 20
-1939.62109375
 10
1869.634765625
 20
-1939.62109375
 10
1859.63671875
 20
-1939.62109375
 10
1849.638671875
 20
-1949.619140625
 10
1839.640625
 20
-1939.62109375
 10
1829.642578125
 20
-1939.62109375
 10
1819.64453125
 20
-1939.62109375
 10
1809.646484375
 20
-1949.619140625
 10
1799.6484375
 20
-1949.619140625
 10
1789.650390625
 20
-1939.62109375
 10
1779.65234375
 20
-1939.62109375
 10
1769.654296875
 20
-1939.62109375
 10
1759.65625
 20
-1939.62109375
 10
1749.658203125
 20
-1939.62109375
 10
1739.66015625
 20
-1939.62109375
 10
1729.662109375
 20
-1939.62109375
 10
1719.6640625
 20
-1939.62109375
 10
1709.666015625
 20
-1939.62109375
 10
1699.66796875
 20
-1939.62109375
 10
1689.669921875
 20
-1939.62109375
 10
1679.671875
 20
-1939.62109375
 10
1669.673828125
 20
-1939.62109375
 10
1659.67578125
 20
-1939.62109375
 10
1649.677734375
 20
-1939.62109375
 10
1639.6796875
 20
-1939.62109375
 10
1629.681640625
 20
-1939.62109375
 10
1619.68359375
 20
-1939.62109375
 10
1609.685546875
 20
-1939.62109375
 10
1599.6875
 20
-1939.62109375
 10
1589.689453125
 20
-1939.62109375
 10
1579.69140625
 20
-1939.62109375
 10
1569.693359375
 20
-1939.62109375
 10
1559.6953125
 20
-1939.62109375
 10
1549.697265625
 20
-1939.62109375
 10
1539.69921875
 20
-1939.62109375
 10
1529.701171875
 20
-1939.62109375
 10
1519.703125
 20
-1939.62109375
 10
1509.705078125
 20
-1939.62109375
 10
1499.70703125
 20
-1939.62109375
 10
1489.708984375
 20
-1939.62109375
 10
1479.7109375
 20
-1939.62109375
 10
1469.712890625
 20
-1939.62109375
 10
1459.71484375
 20
-1939.62109375
 10
1449.716796875
 20
-1939.62109375
 10
1439.71875
 20
-1939.62109375
 10
1429.720703125
 20
-1939.62109375
 10
1419.72265625
 20
-1939.62109375
 10
1409.724609375
 20
-1939.62109375
 10
1399.7265625
 20
-1939.62109375
 10
1389.728515625
 20
-1939.62109375
 10
1379.73046875
 20
-1939.62109375
 10
1369.732421875
 20
-1939.62109375
 10
1359.734375
 20
-1939.62109375
 10
1349.736328125
 20
-1939.62109375
 10
1339.73828125
 20
-1939.62109375
 10
1329.740234375
 20
-1939.62109375
 10
1319.7421875
 20
-1939.62109375
 10
1309.744140625
 20
-1939.62109375
 10
1299.74609375
 20
-1939.62109375
 10
1289.748046875
 20
-1939.62109375
 10
1279.75
 20
-1939.62109375
 10
1269.751953125
 20
-1939.62109375
 10
1259.75390625
 20
-1939.62109375
 10
1249.755859375
 20
-1939.62109375
 10
1239.7578125
 20
-1939.62109375
 10
1229.759765625
 20
-1939.62109375
 10
1219.76171875
 20
-1939.62109375
 10
1209.763671875
 20
-1939.62109375
 10
1199.765625
 20
-1939.62109375
 10
1189.767578125
 20
-1939.62109375
 10
1179.76953125
 20
-1939.62109375
 10
1169.771484375
 20
-1939.62109375
 10
1159.7734375
 20
-1939.62109375
 10
1149.775390625
 20
-1939.62109375
 10
1139.77734375
 20
-1939.62109375
 10
1129.779296875
 20
-1949.619140625
 10
1119.78125
 20
-1939.62109375
 10
1109.783203125
 20
-1949.619140625
 10
1099.78515625
 20
-1949.619140625
 10
1089.787109375
 20
-1949.619140625
 10
1079.7890625
 20
-1949.619140625
 10
1069.791015625
 20
-1939.62109375
 10
1059.79296875
 20
-1949.619140625
 10
1049.794921875
 20
-1939.62109375
 10
1039.796875
 20
-1939.62109375
 10
1029.798828125
 20
-1939.62109375
 10
1019.80078125
 20
-1939.62109375
 10
1009.802734375
 20
-1939.62109375
 10
999.8046875
 20
-1939.62109375
 10
989.806640625
 20
-1939.62109375
 10
979.80859375
 20
-1939.62109375
 10
969.810546875
 20
-1939.62109375
 10
959.8125
 20
-1939.62109375
 10
949.814453125
 20
-1939.62109375
 10
939.81640625
 20
-1939.62109375
 10
929.818359375
 20
-1939.62109375
 10
919.8203125
 20
-1939.62109375
 10
909.822265625
 20
-1939.62109375
 10
899.82421875
 20
-1939.62109375
 10
889.826171875
 20
-1939.62109375
 10
879.828125
 20
-1939.62109375
 10
869.830078125
 20
-1939.62109375
 10
859.83203125
 20
-1939.62109375
 10
849.833984375
 20
-1939.62109375
 10
839.8359375
 20
-1939.62109375
 10
829.837890625
 20
-1939.62109375
 10
819.83984375
 20
-1939.62109375
 10
809.841796875
 20
-1949.619140625
 10
799.84375
 20
-1949.619140625
 10
809.841796875
 20
-1959.6171875
 10
799.84375
 20
-1969.615234375
 10
809.841796875
 20
-1979.61328125
 10
799.84375
 20
-1989.611328125
 10
799.84375
 20
-1999.609375
 10
799.84375
 20
-2009.607421875
 10
789.845703125
 20
-2019.60546875
 10
789.845703125
 20
-2029.603515625
 10
789.845703125
 20
-2039.6015625
 10
789.845703125
 20
-2049.599609375
 10
789.845703125
 20
-2059.59765625
 10
789.845703125
 20
-2069.595703125
 10
789.845703125
 20
-2079.59375
 10
789.845703125
 20
-2089.591796875
 10
789.845703125
 20
-2099.58984375
 10
789.845703125
 20
-2109.587890625
 10
789.845703125
 20
-2119.5859375
 10
789.845703125
 20
-2129.583984375
 10
789.845703125
 20
-2139.58203125
 10
789.845703125
 20
-2149.580078125
 10
789.845703125
 20
-2159.578125
 10
789.845703125
 20
-2169.576171875
 10
779.84765625
 20
-2179.57421875
 10
789.845703125
 20
-2189.572265625
 10
789.845703125
 20
-2199.5703125
 10
779.84765625
 20
-2209.568359375
 10
779.84765625
 20
-2219.56640625
 10
779.84765625
 20
-2229.564453125
 10
779.84765625
 20
-2239.5625
 10
769.849609375
 20
-2249.560546875
 10
769.849609375
 20
-2259.55859375
 10
769.849609375
 20
-2269.556640625
 10
769.849609375
 20
-2279.5546875
 10
769.849609375
 20
-2289.552734375
 10
769.849609375
 20
-2299.55078125
 10
779.84765625
 20
-2309.548828125
 10
769.849609375
 20
-2319.546875
 10
769.849609375
 20
-2329.544921875
 10
769.849609375
 20
-2339.54296875
 10
769.849609375
 20
-2349.541015625
 10
769.849609375
 20
-2359.5390625
 10
769.849609375
 20
-2369.537109375
 10
769.849609375
 20
-2379.53515625
 10
769.849609375
 20
-2389.533203125
 10
769.849609375
 20
-2399.53125
 10
769.849609375
 20
-2409.529296875
 10
759.8515625
 20
-2419.52734375
 10
759.8515625
 20
-2429.525390625
 10
759.8515625
 20
-2439.5234375
 10
759.8515625
 20
-2449.521484375
 10
759.8515625
 20
-2459.51953125
 10
759.8515625
 20
-2469.517578125
 10
759.8515625
 20
-2479.515625
 10
759.8515625
 20
-2489.513671875
 10
759.8515625
 20
-2499.51171875
 10
759.8515625
 20
-2509.509765625
 10
759.8515625
 20
-2519.5078125
 10
769.849609375
 20
-2529.505859375
 10
769.849609375
 20
-2539.50390625
 10
769.849609375
 20
-2549.501953125
 10
769.849609375
 20
-2559.5
 10
769.849609375
 20
-2569.498046875
 10
769.849609375
 20
-2579.49609375
 10
759.8515625
 20
-2589.494140625
 10
759.8515625
 20
-2599.4921875
 10
759.8515625
 20
-2609.490234375
 10
759.8515625
 20
-2619.48828125
 10
759.8515625
 20
-2629.486328125
 10
769.849609375
 20
-2639.484375
 10
769.849609375
 20
-2649.482421875
 10
759.8515625
 20
-2659.48046875
 10
759.8515625
 20
-2669.478515625
 10
759.8515625
 20
-2679.4765625
 10
759.8515625
 20
-2689.474609375
 10
759.8515625
 20
-2699.47265625
 10
759.8515625
 20
-2709.470703125
 10
759.8515625
 20
-2719.46875
 10
759.8515625
 20
-2729.466796875
 10
759.8515625
 20
-2739.46484375
 10
759.8515625
 20
-2749.462890625
 10
759.8515625
 20
-2759.4609375
 10
759.8515625
 20
-2769.458984375
 10
759.8515625
 20
-2779.45703125
 10
759.8515625
 20
-2789.455078125
 10
759.8515625
 20
-2799.453125
 10
759.8515625
 20
-2809.451171875
 10
759.8515625
 20
-2819.44921875
 10
759.8515625
 20
-2829.447265625
 10
769.849609375
 20
-2839.4453125
 10
769.849609375
 20
-2849.443359375
 10
769.849609375
 20
-2859.44140625
 10
769.849609375
 20
-2869.439453125
 10
769.849609375
 20
-2879.4375
 10
769.849609375
 20
-2889.435546875
 10
769.849609375
 20
-2899.43359375
 10
759.8515625
 20
-2909.431640625
 10
769.849609375
 20
-2919.4296875
 10
769.849609375
 20
-2929.427734375
 10
769.849609375
 20
-2939.42578125
 10
769.849609375
 20
-2949.423828125
 10
779.84765625
 20
-2959.421875
 10
779.84765625
 20
-2969.419921875
 10
779.84765625
 20
-2979.41796875
 10
789.845703125
 20
-2989.416015625
 10
789.845703125
 20
-2999.4140625
 10
789.845703125
 20
-3009.412109375
 10
789.845703125
 20
-3019.41015625
 10
789.845703125
 20
-3029.408203125
 10
789.845703125
 20
-3039.40625
 10
789.845703125
 20
-3049.404296875
 10
789.845703125
 20
-3059.40234375
 10
789.845703125
 20
-3069.400390625
 10
789.845703125
 20
-3079.3984375
 10
789.845703125
 20
-3089.396484375
 10
799.84375
 20
-3099.39453125
 10
799.84375
 20
-3109.392578125
 10
809.841796875
 20
-3119.390625
 10
809.841796875
 20
-3129.388671875
 10
809.841796875
 20
-3139.38671875
 10
809.841796875
 20
-3149.384765625
 10
819.83984375
 20
-3159.3828125
 10
829.837890625
 20
-3159.3828125
 10
839.8359375
 20
-3159.3828125
 10
849.833984375
 20
-3169.380859375
 10
859.83203125
 20
-3169.380859375
 10
869.830078125
 20
-3169.380859375
 10
879.828125
 20
-3169.380859375
 10
889.826171875
 20
-3169.380859375
 10
899.82421875
 20
-3169.380859375
 10
909.822265625
 20
-3169.380859375
 10
919.8203125
 20
-3159.3828125
 10
929.818359375
 20
-3159.3828125
 10
939.81640625
 20
-3159.3828125
 10
949.814453125
 20
-3159.3828125
 10
959.8125
 20
-3159.3828125
 10
969.810546875
 20
-3159.3828125
 10
979.80859375
 20
-3159.3828125
 10
989.806640625
 20
-3149.384765625
 10
999.8046875
 20
-3159.3828125
 10
1009.802734375
 20
-3159.3828125
 10
1019.80078125
 20
-3159.3828125
 10
1029.798828125
 20
-3159.3828125
 10
1039.796875
 20
-3159.3828125
 10
1049.794921875
 20
-3159.3828125
 10
1059.79296875
 20
-3159.3828125
 10
1069.791015625
 20
-3149.384765625
 10
1079.7890625
 20
-3149.384765625
 10
1089.787109375
 20
-3149.384765625
 10
1099.78515625
 20
-3159.3828125
 10
1109.783203125
 20
-3149.384765625
 10
1119.78125
 20
-3159.3828125
 10
1129.779296875
 20
-3149.384765625
 10
1139.77734375
 20
-3159.3828125
 10
1149.775390625
 20
-3149.384765625
 10
1159.7734375
 20
-3159.3828125
 10
1169.771484375
 20
-3159.3828125
 10
1179.76953125
 20
-3159.3828125
 10
1189.767578125
 20
-3159.3828125
 10
1199.765625
 20
-3159.3828125
 10
1209.763671875
 20
-3159.3828125
 10
1219.76171875
 20
-3159.3828125
 10
1229.759765625
 20
-3149.384765625
 10
1239.7578125
 20
-3159.3828125
 10
1249.755859375
 20
-3159.3828125
 10
1259.75390625
 20
-3159.3828125
 10
1269.751953125
 20
-3159.3828125
 10
1279.75
 20
-3159.3828125
 10
1289.748046875
 20
-3149.384765625
 10
1299.74609375
 20
-3159.3828125
 10
1309.744140625
 20
-3149.384765625
 10
1319.7421875
 20
-3159.3828125
 10
1329.740234375
 20
-3159.3828125
 10
1339.73828125
 20
-3159.3828125
 10
1349.736328125
 20
-3149.384765625
 10
1359.734375
 20
-3159.3828125
 10
1369.732421875
 20
-3149.384765625
 10
1379.73046875
 20
-3159.3828125
 10
1389.728515625
 20
-3149.384765625
 10
1399.7265625
 20
-3159.3828125
 10
1409.724609375
 20
-3159.3828125
 10
1419.72265625
 20
-3159.3828125
 10
1429.720703125
 20
-3159.3828125
 10
1439.71875
 20
-3159.3828125
 10
1449.716796875
 20
-3159.3828125
 10
1459.71484375
 20
-3159.3828125
 10
1469.712890625
 20
-3149.384765625
 10
1479.7109375
 20
-3159.3828125
 10
1489.708984375
 20
-3159.3828125
 10
1499.70703125
 20
-3159.3828125
 10
1509.705078125
 20
-3159.3828125
 10
1519.703125
 20
-3159.3828125
 10
1529.701171875
 20
-3159.3828125
 10
1539.69921875
 20
-3159.3828125
 10
1549.697265625
 20
-3149.384765625
 10
1559.6953125
 20
-3159.3828125
 10
1569.693359375
 20
-3159.3828125
 10
1579.69140625
 20
-3159.3828125
 10
1589.689453125
 20
-3159.3828125
 10
1599.6875
 20
-3159.3828125
 10
1609.685546875
 20
-3159.3828125
 10
1619.68359375
 20
-3159.3828125
 10
1629.681640625
 20
-3159.3828125
 10
1639.6796875
 20
-3159.3828125
 10
1649.677734375
 20
-3159.3828125
 10
1659.67578125
 20
-3159.3828125
 10
1669.673828125
 20
-3159.3828125
 10
1679.671875
 20
-3159.3828125
 10
1689.669921875
 20
-3169.380859375
 10
1699.66796875
 20
-3159.3828125
 10
1709.666015625
 20
-3159.3828125
 10
1719.6640625
 20
-3159.3828125
 10
1729.662109375
 20
-3159.3828125
 10
1739.66015625
 20
-3159.3828125
 10
1749.658203125
 20
-3159.3828125
 10
1759.65625
 20
-3159.3828125
 10
1769.654296875
 20
-3159.3828125
 10
1779.65234375
 20
-3159.3828125
 10
1789.650390625
 20
-3159.3828125
 10
1799.6484375
 20
-3159.3828125
 10
1809.646484375
 20
-3169.380859375
 10
1819.64453125
 20
-3169.380859375
 10
1829.642578125
 20
-3159.3828125
 10
1839.640625
 20
-3169.380859375
 10
1849.638671875
 20
-3169.380859375
 10
1859.63671875
 20
-3169.380859375
 10
1869.634765625
 20
-3159.3828125
 10
1879.6328125
 20
-3159.3828125
 10
1889.630859375
 20
-3159.3828125
 10
1899.62890625
 20
-3159.3828125
 10
1909.626953125
 20
-3159.3828125
 10
1919.625
 20
-3169.380859375
 10
1929.623046875
 20
-3179.37890625
 10
1939.62109375
 20
-3189.376953125
 10
1939.62109375
 20
-3199.375
 10
1939.62109375
 20
-3209.373046875
 10
1939.62109375
 20
-3219.37109375
 10
1939.62109375
 20
-3229.369140625
 10
1949.619140625
 20
-3239.3671875
 10
1949.619140625
 20
-3249.365234375
 10
1949.619140625
 20
-3259.36328125
 10
1949.619140625
 20
-3269.361328125
 10
1949.619140625
 20
-3279.359375
 10
1949.619140625
 20
-3289.357421875
 10
1949.619140625
 20
-3299.35546875
 10
1949.619140625
 20
-3309.353515625
 10
1949.619140625
 20
-3319.3515625
 10
1949.619140625
 20
-3329.349609375
 10
1949.619140625
 20
-3339.34765625
 10
1949.619140625
 20
-3349.345703125
 10
1949.619140625
 20
-3359.34375
 10
1949.619140625
 20
-3369.341796875
 10
1949.619140625
 20
-3379.33984375
 10
1949.619140625
 20
-3389.337890625
 10
1949.619140625
 20
-3399.3359375
 10
1949.619140625
 20
-3409.333984375
 10
1949.619140625
 20
-3419.33203125
 10
1949.619140625
 20
-3429.330078125
 10
1949.619140625
 20
-3439.328125
 10
1939.62109375
 20
-3449.326171875
 10
1939.62109375
 20
-3459.32421875
 10
1949.619140625
 20
-3469.322265625
 10
1949.619140625
 20
-3479.3203125
 10
1949.619140625
 20
-3489.318359375
 10
1949.619140625
 20
-3499.31640625
 10
1949.619140625
 20
-3509.314453125
 10
1949.619140625
 20
-3519.3125
 10
1949.619140625
 20
-3529.310546875
 10
1949.619140625
 20
-3539.30859375
 10
1949.619140625
 20
-3549.306640625
 10
1949.619140625
 20
-3559.3046875
 10
1949.619140625
 20
-3569.302734375
 10
1949.619140625
 20
-3579.30078125
 10
1939.62109375
 20
-3589.298828125
 10
1939.62109375
 20
-3599.296875
 10
1939.62109375
 20
-3609.294921875
 10
1939.62109375
 20
-3619.29296875
 10
1939.62109375
 20
-3629.291015625
 10
1939.62109375
 20
-3639.2890625
 10
1939.62109375
 20
-3649.287109375
 10
1939.62109375
 20
-3659.28515625
 10
1939.62109375
 20
-3669.283203125
 10
1949.619140625
 20
-3679.28125
 10
1939.62109375
 20
-3689.279296875
 10
1939.62109375
 20
-3699.27734375
 10
1939.62109375
 20
-3709.275390625
 10
1939.62109375
 20
-3719.2734375
 10
1939.62109375
 20
-3729.271484375
 10
1939.62109375
 20
-3739.26953125
 10
1939.62109375
 20
-3749.267578125
 10
1939.62109375
 20
-3759.265625
 10
1939.62109375
 20
-3769.263671875
 10
1939.62109375
 20
-3779.26171875
 10
1939.62109375
 20
-3789.259765625
 10
1939.62109375
 20
-3799.2578125
 10
1939.62109375
 20
-3809.255859375
 10
1939.62109375
 20
-3819.25390625
 10
1939.62109375
 20
-3829.251953125
 10
1939.62109375
 20
-3839.25
 10
1939.62109375
 20
-3849.248046875
 10
1939.62109375
 20
-3859.24609375
 10
1939.62109375
 20
-3869.244140625
 10
1949.619140625
 20
-3879.2421875
 10
1949.619140625
 20
-3889.240234375
 10
1949.619140625
 20
-3899.23828125
 10
1949.619140625
 20
-3909.236328125
 10
1949.619140625
 20
-3919.234375
 10
1939.62109375
 20
-3929.232421875
 10
1949.619140625
 20
-3939.23046875
 10
1949.619140625
 20
-3949.228515625
 10
1949.619140625
 20
-3959.2265625
 10
1949.619140625
 20
-3969.224609375
 10
1949.619140625
 20
-3979.22265625
 10
1949.619140625
 20
-3989.220703125
 10
1949.619140625
 20
-3999.21875
 10
1949.619140625
 20
-4009.216796875
 10
1949.619140625
 20
-4019.21484375
 10
1949.619140625
 20
-4029.212890625
 10
1949.619140625
 20
-4039.2109375
 10
1949.619140625
 20
-4049.208984375
 10
1949.619140625
 20
-4059.20703125
 10
1949.619140625
 20
-4069.205078125
 10
1949.619140625
 20
-4079.203125
 10
1949.619140625
 20
-4089.201171875
 10
1949.619140625
 20
-4099.19921875
 10
1949.619140625
 20
-4109.197265625
 10
1949.619140625
 20
-4119.1953125
 10
1949.619140625
 20
-4129.193359375
 10
1939.62109375
 20
-4139.19140625
 10
1949.619140625
 20
-4149.189453125
 10
1949.619140625
 20
-4159.1875
 10
1949.619140625
 20
-4169.185546875
 10
1949.619140625
 20
-4179.18359375
 10
1949.619140625
 20
-4189.181640625
 10
1959.6171875
 20
-4199.1796875
 10
1969.615234375
 20
-4199.1796875
 10
1979.61328125
 20
-4199.1796875
 10
1989.611328125
 20
-4199.1796875
 10
1999.609375
 20
-4199.1796875
 10
2009.607421875
 20
-4209.177734375
 10
2019.60546875
 20
-4209.177734375
 10
2029.603515625
 20
-4209.177734375
 10
2039.6015625
 20
-4209.177734375
 10
2049.599609375
 20
-4209.177734375
 10
2059.59765625
 20
-4209.177734375
 10
2069.595703125
 20
-4209.177734375
 10
2079.59375
 20
-4209.177734375
 10
2089.591796875
 20
-4209.177734375
 10
2099.58984375
 20
-4209.177734375
 10
2109.587890625
 20
-4209.177734375
 10
2119.5859375
 20
-4209.177734375
 10
2129.583984375
 20
-4209.177734375
 10
2139.58203125
 20
-4209.177734375
 10
2149.580078125
 20
-4209.177734375
 10
2159.578125
 20
-4209.177734375
 10
2169.576171875
 20
-4209.177734375
 10
2179.57421875
 20
-4209.177734375
 10
2189.572265625
 20
-4209.177734375
 10
2199.5703125
 20
-4209.177734375
 10
2209.568359375
 20
-4209.177734375
 10
2219.56640625
 20
-4209.177734375
 10
2229.564453125
 20
-4199.1796875
 10
2239.5625
 20
-4199.1796875
 10
2249.560546875
 20
-4199.1796875
 10
2259.55859375
 20
-4199.1796875
 10
2269.556640625
 20
-4199.1796875
 10
2279.5546875
 20
-4199.1796875
 10
2289.552734375
 20
-4209.177734375
 10
2299.55078125
 20
-4199.1796875
 10
2309.548828125
 20
-4199.1796875
 10
2319.546875
 20
-4199.1796875
 10
2329.544921875
 20
-4209.177734375
 10
2339.54296875
 20
-4209.177734375
 10
2349.541015625
 20
-4199.1796875
 10
2359.5390625
 20
-4199.1796875
 10
2369.537109375
 20
-4209.177734375
 10
2379.53515625
 20
-4199.1796875
 10
2389.533203125
 20
-4209.177734375
 10
2399.53125
 20
-4209.177734375
 10
2409.529296875
 20
-4209.177734375
 10
2419.52734375
 20
-4209.177734375
 10
2429.525390625
 20
-4209.177734375
 10
2439.5234375
 20
-4209.177734375
 10
2449.521484375
 20
-4209.177734375
 10
2459.51953125
 20
-4209.177734375
 10
2469.517578125
 20
-4209.177734375
 10
2479.515625
 20
-4209.177734375
 10
2489.513671875
 20
-4209.177734375
 10
2499.51171875
 20
-4209.177734375
 10
2509.509765625
 20
-4209.177734375
 10
2519.5078125
 20
-4199.1796875
 10
2529.505859375
 20
-4209.177734375
 10
2539.50390625
 20
-4209.177734375
 10
2549.501953125
 20
-4209.177734375
 10
2559.5
 20
-4209.177734375
 10
2569.498046875
 20
-4209.177734375
 10
2579.49609375
 20
-4209.177734375
 10
2589.494140625
 20
-4209.177734375
 10
2599.4921875
 20
-4209.177734375
 10
2609.490234375
 20
-4209.177734375
 10
2619.48828125
 20
-4209.177734375
 10
2629.486328125
 20
-4209.177734375
 10
2639.484375
 20
-4209.177734375
 10
2649.482421875
 20
-4209.177734375
 10
2659.48046875
 20
-4209.177734375
 10
2669.478515625
 20
-4209.177734375
 10
2679.4765625
 20
-4209.177734375
 10
2689.474609375
 20
-4209.177734375
 10
2699.47265625
 20
-4219.17578125
 10
2709.470703125
 20
-4209.177734375
 10
2719.46875
 20
-4209.177734375
 10
2729.466796875
 20
-4209.177734375
 10
2739.46484375
 20
-4219.17578125
 10
2749.462890625
 20
-4219.17578125
 10
2759.4609375
 20
-4219.17578125
 10
2769.458984375
 20
-4219.17578125
 10
2779.45703125
 20
-4219.17578125
 10
2789.455078125
 20
-4219.17578125
 10
2799.453125
 20
-4219.17578125
 10
2809.451171875
 20
-4219.17578125
 10
2819.44921875
 20
-4219.17578125
 10
2829.447265625
 20
-4219.17578125
 10
2839.4453125
 20
-4219.17578125
 10
2849.443359375
 20
-4219.17578125
 10
2859.44140625
 20
-4219.17578125
 10
2869.439453125
 20
-4219.17578125
 10
2879.4375
 20
-4219.17578125
 10
2889.435546875
 20
-4209.177734375
 10
2899.43359375
 20
-4219.17578125
 10
2909.431640625
 20
-4219.17578125
 10
2919.4296875
 20
-4219.17578125
 10
2929.427734375
 20
-4219.17578125
 10
2939.42578125
 20
-4219.17578125
 10
2949.423828125
 20
-4209.177734375
 10
2959.421875
 20
-4209.177734375
 10
2969.419921875
 20
-4209.177734375
 10
2979.41796875
 20
-4219.17578125
 10
2989.416015625
 20
-4209.177734375
 10
2999.4140625
 20
-4219.17578125
 10
3009.412109375
 20
-4219.17578125
 10
3019.41015625
 20
-4219.17578125
 10
3029.408203125
 20
-4219.17578125
 10
3039.40625
 20
-4219.17578125
 10
3049.404296875
 20
-4209.177734375
 10
3059.40234375
 20
-4219.17578125
 10
3069.400390625
 20
-4219.17578125
 10
3079.3984375
 20
-4219.17578125
 10
3089.396484375
 20
-4219.17578125
 10
3099.39453125
 20
-4219.17578125
 10
3109.392578125
 20
-4209.177734375
 10
3119.390625
 20
-4219.17578125
 10
3129.388671875
 20
-4209.177734375
 10
3139.38671875
 20
-4219.17578125
 10
3149.384765625
 20
-4209.177734375
 10
3159.3828125
 20
-4209.177734375
 10
3159.3828125
 20
-4199.1796875
 10
3169.380859375
 20
-4189.181640625
 10
3169.380859375
 20
-4179.18359375
 10
3169.380859375
 20
-4169.185546875
 10
3169.380859375
 20
-4159.1875
 10
3169.380859375
 20
-4149.189453125
 10
3169.380859375
 20
-4139.19140625
 10
3169.380859375
 20
-4129.193359375
 10
3169.380859375
 20
-4119.1953125
 10
3169.380859375
 20
-4109.197265625
 10
3169.380859375
 20
-4099.19921875
 10
3169.380859375
 20
-4089.201171875
 10
3169.380859375
 20
-4079.203125
 10
3169.380859375
 20
-4069.205078125
 10
3169.380859375
 20
-4059.20703125
 10
3169.380859375
 20
-4049.208984375
 10
3169.380859375
 20
-4039.2109375
 10
3169.380859375
 20
-4029.212890625
 10
3169.380859375
 20
-4019.21484375
 10
3169.380859375
 20
-4009.216796875
 10
3169.380859375
 20
-3999.21875
 10
3169.380859375
 20
-3989.220703125
 10
3169.380859375
 20
-3979.22265625
 10
3169.380859375
 20
-3969.224609375
 10
3169.380859375
 20
-3959.2265625
 10
3169.380859375
 20
-3949.228515625
 10
3169.380859375
 20
-3939.23046875
 10
3169.380859375
 20
-3929.232421875
 10
3169.380859375
 20
-3919.234375
 10
3169.380859375
 20
-3909.236328125
 10
3169.380859375
 20
-3899.23828125
 10
3169.380859375
 20
-3889.240234375
 10
3169.380859375
 20
-3879.2421875
 10
3169.380859375
 20
-3869.244140625
 10
3169.380859375
 20
-3859.24609375
 10
3169.380859375
 20
-3849.248046875
 10
3169.380859375
 20
-3839.25
 10
3159.3828125
 20
-3829.251953125
 10
3169.380859375
 20
-3819.25390625
 10
3169.380859375
 20
-3809.255859375
 10
3169.380859375
 20
-3799.2578125
 10
3169.380859375
 20
-3789.259765625
 10
3169.380859375
 20
-3779.26171875
 10
3169.380859375
 20
-3769.263671875
 10
3169.380859375
 20
-3759.265625
 10
3169.380859375
 20
-3749.267578125
 10
3169.380859375
 20
-3739.26953125
 10
3169.380859375
 20
-3729.271484375
 10
3169.380859375
 20
-3719.2734375
 10
3169.380859375
 20
-3709.275390625
 10
3169.380859375
 20
-3699.27734375
 10
3169.380859375
 20
-3689.279296875
 10
3169.380859375
 20
-3679.28125
 10
3169.380859375
 20
-3669.283203125
 10
3169.380859375
 20
-3659.28515625
 10
3169.380859375
 20
-3649.287109375
 10
3169.380859375
 20
-3639.2890625
 10
3169.380859375
 20
-3629.291015625
 10
3169.380859375
 20
-3619.29296875
 10
3169.380859375
 20
-3609.294921875
 10
3169.380859375
 20
-3599.296875
 10
3169.380859375
 20
-3589.298828125
 10
3169.380859375
 20
-3579.30078125
 10
3169.380859375
 20
-3569.302734375
 10
3169.380859375
 20
-3559.3046875
 10
3169.380859375
 20
-3549.306640625
 10
3169.380859375
 20
-3539.30859375
 10
3169.380859375
 20
-3529.310546875
 10
3169.380859375
 20
-3519.3125
 10
3159.3828125
 20
-3509.314453125
 10
3159.3828125
 20
-3499.31640625
 10
3159.3828125
 20
-3489.318359375
 10
3169.380859375
 20
-3479.3203125
 10
3169.380859375
 20
-3469.322265625
 10
3169.380859375
 20
-3459.32421875
 10
3169.380859375
 20
-3449.326171875
 10
3169.380859375
 20
-3439.328125
 10
3169.380859375
 20
-3429.330078125
 10
3169.380859375
 20
-3419.33203125
 10
3169.380859375
 20
-3409.333984375
 10
3169.380859375
 20
-3399.3359375
 10
3169.380859375
 20
-3389.337890625
 10
3169.380859375
 20
-3379.33984375
 10
3169.380859375
 20
-3369.341796875
 10
3169.380859375
 20
-3359.34375
 10
3169.380859375
 20
-3349.345703125
 10
3169.380859375
 20
-3339.34765625
 10
3169.380859375
 20
-3329.349609375
 10
3169.380859375
 20
-3319.3515625
 10
3169.380859375
 20
-3309.353515625
 10
3169.380859375
 20
-3299.35546875
 10
3159.3828125
 20
-3289.357421875
 10
3159.3828125
 20
-3279.359375
 10
3159.3828125
 20
-3269.361328125
 10
3169.380859375
 20
-3259.36328125
 10
3159.3828125
 20
-3249.365234375
 10
3169.380859375
 20
-3239.3671875
 10
3169.380859375
 20
-3229.369140625
 10
3169.380859375
 20
-3219.37109375
 10
3169.380859375
 20
-3209.373046875
 10
3169.380859375
 20
-3199.375
 10
3169.380859375
 20
-3189.376953125
 10
3179.37890625
 20
-3179.37890625
 10
3189.376953125
 20
-3169.380859375
 10
3199.375
 20
-3169.380859375
 10
3209.373046875
 20
-3169.380859375
 10
3219.37109375
 20
-3169.380859375
 10
3229.369140625
 20
-3169.380859375
 10
3239.3671875
 20
-3169.380859375
 10
3249.365234375
 20
-3169.380859375
 10
3259.36328125
 20
-3169.380859375
 10
3269.361328125
 20
-3169.380859375
 10
3279.359375
 20
-3169.380859375
 10
3289.357421875
 20
-3169.380859375
 10
3299.35546875
 20
-3169.380859375
 10
3309.353515625
 20
-3169.380859375
 10
3319.3515625
 20
-3169.380859375
 10
3329.349609375
 20
-3169.380859375
 10
3339.34765625
 20
-3169.380859375
 10
3349.345703125
 20
-3169.380859375
 10
3359.34375
 20
-3169.380859375
 10
3369.341796875
 20
-3169.380859375
 10
3379.33984375
 20
-3169.380859375
 10
3389.337890625
 20
-3169.380859375
 10
3399.3359375
 20
-3169.380859375
 10
3409.333984375
 20
-3169.380859375
 10
3419.33203125
 20
-3169.380859375
 10
3429.330078125
 20
-3159.3828125
 10
3439.328125
 20
-3169.380859375
 10
3449.326171875
 20
-3169.380859375
 10
3459.32421875
 20
-3169.380859375
 10
3469.322265625
 20
-3169.380859375
 10
3479.3203125
 20
-3169.380859375
 10
3489.318359375
 20
-3169.380859375
 10
3499.31640625
 20
-3169.380859375
 10
3509.314453125
 20
-3169.380859375
 10
3519.3125
 20
-3169.380859375
 10
3529.310546875
 20
-3159.3828125
 10
3539.30859375
 20
-3169.380859375
 10
3549.306640625
 20
-3169.380859375
 10
3559.3046875
 20
-3169.380859375
 10
3569.302734375
 20
-3169.380859375
 10
3579.30078125
 20
-3169.380859375
 10
3589.298828125
 20
-3169.380859375
 10
3599.296875
 20
-3169.380859375
 10
3609.294921875
 20
-3169.380859375
 10
3619.29296875
 20
-3169.380859375
 10
3629.291015625
 20
-3169.380859375
 10
3639.2890625
 20
-3169.380859375
 10
3649.287109375
 20
-3169.380859375
 10
3659.28515625
 20
-3169.380859375
 10
3669.283203125
 20
-3169.380859375
 10
3679.28125
 20
-3169.380859375
 10
3689.279296875
 20
-3169.380859375
 10
3699.27734375
 20
-3169.380859375
 10
3709.275390625
 20
-3169.380859375
 10
3719.2734375
 20
-3169.380859375
 10
3729.271484375
 20
-3169.380859375
 10
3739.26953125
 20
-3169.380859375
 10
3749.267578125
 20
-3169.380859375
 10
3759.265625
 20
-3169.380859375
 10
3769.263671875
 20
-3169.380859375
 10
3779.26171875
 20
-3169.380859375
 10
3789.259765625
 20
-3169.380859375
 10
3799.2578125
 20
-3169.380859375
 10
3809.255859375
 20
-3169.380859375
 10
3819.25390625
 20
-3169.380859375
 10
3829.251953125
 20
-3169.380859375
 10
3839.25
 20
-3169.380859375
 10
3849.248046875
 20
-3169.380859375
 10
3859.24609375
 20
-3169.380859375
 10
3869.244140625
 20
-3169.380859375
 10
3879.2421875
 20
-3169.380859375
 10
3889.240234375
 20
-3169.380859375
 10
3899.23828125
 20
-3169.380859375
 10
3909.236328125
 20
-3169.380859375
 10
3919.234375
 20
-3169.380859375
 10
3929.232421875
 20
-3169.380859375
 10
3939.23046875
 20
-3169.380859375
 10
3949.228515625
 20
-3169.380859375
 10
3959.2265625
 20
-3169.380859375
 10
3969.224609375
 20
-3169.380859375
 10
3979.22265625
 20
-3169.380859375
 10
3989.220703125
 20
-3169.380859375
 10
3999.21875
 20
-3169.380859375
 10
4009.216796875
 20
-3169.380859375
 10
4019.21484375
 20
-3169.380859375
 10
4029.212890625
 20
-3169.380859375
 10
4039.2109375
 20
-3169.380859375
 10
4049.208984375
 20
-3169.380859375
 10
4059.20703125
 20
-3169.380859375
 10
4069.205078125
 20
-3169.380859375
 10
4079.203125
 20
-3169.380859375
 10
4089.201171875
 20
-3169.380859375
 10
4099.19921875
 20
-3169.380859375
 10
4109.197265625
 20
-3169.380859375
 10
4119.1953125
 20
-3169.380859375
 10
4129.193359375
 20
-3169.380859375
 10
4139.19140625
 20
-3169.380859375
 10
4149.189453125
 20
-3169.380859375
 10
4159.1875
 20
-3169.380859375
 10
4169.185546875
 20
-3169.380859375
 10
4179.18359375
 20
-3169.380859375
 10
4189.181640625
 20
-3169.380859375
 10
4199.1796875
 20
-3169.380859375
 10
4209.177734375
 20
-3169.380859375
 10
4219.17578125
 20
-3169.380859375
 10
4229.173828125
 20
-3169.380859375
 10
4239.171875
 20
-3169.380859375
 10
4249.169921875
 20
-3169.380859375
 10
4259.16796875
 20
-3169.380859375
 10
4269.166015625
 20
-3169.380859375
 10
4279.1640625
 20
-3159.3828125
 10
4289.162109375
 20
-3159.3828125
 10
4299.16015625
 20
-3159.3828125
 10
4299.16015625
 20
-3149.384765625
 10
4299.16015625
 20
-3139.38671875
 10
4299.16015625
 20
-3129.388671875
 10
4299.16015625
 20
-3119.390625
 10
4299.16015625
 20
-3109.392578125
 10
4299.16015625
 20
-3099.39453125
 10
4309.158203125
 20
-3089.396484375
 10
4309.158203125
 20
-3079.3984375
 10
4309.158203125
 20
-3069.400390625
 10
4309.158203125
 20
-3059.40234375
 10
4309.158203125
 20
-3049.404296875
 10
4309.158203125
 20
-3039.40625
 10
4309.158203125
 20
-3029.408203125
 10
4309.158203125
 20
-3019.41015625
 10
4309.158203125
 20
-3009.412109375
 10
4309.158203125
 20
-2999.4140625
 10
4309.158203125
 20
-2989.416015625
 10
4309.158203125
 20
-2979.41796875
 10
4309.158203125
 20
-2969.419921875
 10
4309.158203125
 20
-2959.421875
 10
4309.158203125
 20
-2949.423828125
 10
4309.158203125
 20
-2939.42578125
 10
4309.158203125
 20
-2929.427734375
 10
4309.158203125
 20
-2919.4296875
 10
4309.158203125
 20
-2909.431640625
 10
4309.158203125
 20
-2899.43359375
 10
4309.158203125
 20
-2889.435546875
 10
4309.158203125
 20
-2879.4375
 10
4309.158203125
 20
-2869.439453125
 10
4309.158203125
 20
-2859.44140625
 10
4309.158203125
 20
-2849.443359375
 10
4309.158203125
 20
-2839.4453125
 10
4309.158203125
 20
-2829.447265625
 10
4309.158203125
 20
-2819.44921875
 10
4309.158203125
 20
-2809.451171875
 10
4309.158203125
 20
-2799.453125
 10
4309.158203125
 20
-2789.455078125
 10
4309.158203125
 20
-2779.45703125
 10
4309.158203125
 20
-2769.458984375
 10
4309.158203125
 20
-2759.4609375
 10
4309.158203125
 20
-2749.462890625
 10
4309.158203125
 20
-2739.46484375
 10
4309.158203125
 20
-2729.466796875
 10
4309.158203125
 20
-2719.46875
 10
4309.158203125
 20
-2709.470703125
 10
4309.158203125
 20
-2699.47265625
 10
4309.158203125
 20
-2689.474609375
 10
4309.158203125
 20
-2679.4765625
 10
4309.158203125
 20
-2669.478515625
 10
4299.16015625
 20
-2659.48046875
 10
4299.16015625
 20
-2649.482421875
 10
4309.158203125
 20
-2639.484375
 10
4299.16015625
 20
-2629.486328125
 10
4309.158203125
 20
-2619.48828125
 10
4299.16015625
 20
-2609.490234375
 10
4299.16015625
 20
-2599.4921875
 10
4299.16015625
 20
-2589.494140625
 10
4299.16015625
 20
-2579.49609375
 10
4299.16015625
 20
-2569.498046875
 10
4299.16015625
 20
-2559.5
 10
4299.16015625
 20
-2549.501953125
 10
4299.16015625
 20
-2539.50390625
 10
4299.16015625
 20
-2529.505859375
 10
4299.16015625
 20
-2519.5078125
 10
4299.16015625
 20
-2509.509765625
 10
4299.16015625
 20
-2499.51171875
 10
4299.16015625
 20
-2489.513671875
 10
4289.162109375
 20
-2479.515625
 10
4289.162109375
 20
-2469.517578125
 10
4289.162109375
 20
-2459.51953125
 10
4289.162109375
 20
-2449.521484375
 10
4289.162109375
 20
-2439.5234375
 10
4289.162109375
 20
-2429.525390625
 10
4289.162109375
 20
-2419.52734375
 10
4289.162109375
 20
-2409.529296875
 10
4289.162109375
 20
-2399.53125
 10
4289.162109375
 20
-2389.533203125
 10
4289.162109375
 20
-2379.53515625
 10
4289.162109375
 20
-2369.537109375
 10
4289.162109375
 20
-2359.5390625
 10
4289.162109375
 20
-2349.541015625
 10
4289.162109375
 20
-2339.54296875
 10
4279.1640625
 20
-2329.544921875
 10
4279.1640625
 20
-2319.546875
 10
4279.1640625
 20
-2309.548828125
 10
4279.1640625
 20
-2299.55078125
 10
4279.1640625
 20
-2289.552734375
 10
4279.1640625
 20
-2279.5546875
 10
4279.1640625
 20
-2269.556640625
 10
4279.1640625
 20
-2259.55859375
 10
4279.1640625
 20
-2249.560546875
 10
4279.1640625
 20
-2239.5625
 10
4279.1640625
 20
-2229.564453125
 10
4279.1640625
 20
-2219.56640625
 10
4279.1640625
 20
-2209.568359375
 10
4279.1640625
 20
-2199.5703125
 10
4279.1640625
 20
-2189.572265625
 10
4269.166015625
 20
-2179.57421875
 10
4269.166015625
 20
-2169.576171875
 10
4269.166015625
 20
-2159.578125
 10
4259.16796875
 20
-2149.580078125
 10
4269.166015625
 20
-2139.58203125
 10
4259.16796875
 20
-2129.583984375
 10
4259.16796875
 20
-2119.5859375
 10
4259.16796875
 20
-2109.587890625
 10
4249.169921875
 20
-2099.58984375
 10
4249.169921875
 20
-2089.591796875
 10
4249.169921875
 20
-2079.59375
 10
4249.169921875
 20
-2069.595703125
 10
4249.169921875
 20
-2059.59765625
 10
4249.169921875
 20
-2049.599609375
 10
4249.169921875
 20
-2039.6015625
 10
4249.169921875
 20
-2029.603515625
 10
4249.169921875
 20
-2019.60546875
 10
4249.169921875
 20
-2009.607421875
 10
4239.171875
 20
-1999.609375
 10
4239.171875
 20
-1989.611328125
 10
4239.171875
 20
-1979.61328125
 10
4249.169921875
 20
-1969.615234375
 10
4249.169921875
 20
-1959.6171875
 10
4249.169921875
 20
-1949.619140625
 10
4239.171875
 20
-1949.619140625
 10
4229.173828125
 20
-1949.619140625
 10
4219.17578125
 20
-1949.619140625
 10
4209.177734375
 20
-1949.619140625
 10
4199.1796875
 20
-1939.62109375
 10
4189.181640625
 20
-1939.62109375
 10
4179.18359375
 20
-1939.62109375
 10
4169.185546875
 20
-1939.62109375
 10
4159.1875
 20
-1939.62109375
 10
4149.189453125
 20
-1939.62109375
 10
4139.19140625
 20
-1939.62109375
 10
4129.193359375
 20
-1939.62109375
 10
4119.1953125
 20
-1949.619140625
 10
4109.197265625
 20
-1949.619140625
 10
4099.19921875
 20
-1949.619140625
 10
4089.201171875
 20
-1949.619140625
 10
4079.203125
 20
-1939.62109375
 10
4069.205078125
 20
-1939.62109375
 10
4059.20703125
 20
-1939.62109375
 10
4049.208984375
 20
-1949.619140625
 10
4039.2109375
 20
-1949.619140625
 10
4029.212890625
 20
-1949.619140625
 10
4019.21484375
 20
-1949.619140625
 10
4009.216796875
 20
-1949.619140625
 10
3999.21875
 20
-1939.62109375
 10
3989.220703125
 20
-1949.619140625
 10
3979.22265625
 20
-1939.62109375
 10
3969.224609375
 20
-1949.619140625
 10
3959.2265625
 20
-1949.619140625
 10
3949.228515625
 20
-1949.619140625
 10
3939.23046875
 20
-1949.619140625
 10
3929.232421875
 20
-1939.62109375
 10
3919.234375
 20
-1949.619140625
 10
3909.236328125
 20
-1939.62109375
 10
3899.23828125
 20
-1949.619140625
 10
3889.240234375
 20
-1949.619140625
 10
3879.2421875
 20
-1939.62109375
 10
3869.244140625
 20
-1939.62109375
 10
3859.24609375
 20
-1939.62109375
 10
3849.248046875
 20
-1939.62109375
 10
3839.25
 20
-1939.62109375
 10
3829.251953125
 20
-1939.62109375
 10
3819.25390625
 20
-1939.62109375
 10
3809.255859375
 20
-1939.62109375
 10
3799.2578125
 20
-1939.62109375
 10
3789.259765625
 20
-1939.62109375
 10
3779.26171875
 20
-1939.62109375
 10
3769.263671875
 20
-1939.62109375
 10
3759.265625
 20
-1939.62109375
 10
3749.267578125
 20
-1939.62109375
 10
3739.26953125
 20
-1939.62109375
 10
3729.271484375
 20
-1939.62109375
 10
3719.2734375
 20
-1939.62109375
 10
3709.275390625
 20
-1939.62109375
 10
3699.27734375
 20
-1939.62109375
 10
3689.279296875
 20
-1939.62109375
 10
3679.28125
 20
-1939.62109375
 10
3669.283203125
 20
-1939.62109375
 10
3659.28515625
 20
-1939.62109375
 10
3649.287109375
 20
-1939.62109375
 10
3639.2890625
 20
-1939.62109375
 10
3629.291015625
 20
-1939.62109375
 10
3619.29296875
 20
-1939.62109375
 10
3609.294921875
 20
-1939.62109375
 10
3599.296875
 20
-1939.62109375
 10
3589.298828125
 20
-1939.62109375
 10
3579.30078125
 20
-1939.62109375
 10
3569.302734375
 20
-1949.619140625
 10
3559.3046875
 20
-1939.62109375
 10
3549.306640625
 20
-1939.62109375
 10
3539.30859375
 20
-1939.62109375
 10
3529.310546875
 20
-1939.62109375
 10
3519.3125
 20
-1939.62109375
 10
3509.314453125
 20
-1939.62109375
 10
3499.31640625
 20
-1939.62109375
 10
3489.318359375
 20
-1949.619140625
 10
3479.3203125
 20
-1939.62109375
 10
3469.322265625
 20
-1949.619140625
 10
3459.32421875
 20
-1939.62109375
 10
3449.326171875
 20
-1939.62109375
 10
3439.328125
 20
-1939.62109375
 10
3429.330078125
 20
-1939.62109375
 10
3419.33203125
 20
-1939.62109375
 10
3409.333984375
 20
-1939.62109375
 10
3399.3359375
 20
-1939.62109375
 10
3389.337890625
 20
-1939.62109375
 10
3379.33984375
 20
-1939.62109375
 10
3369.341796875
 20
-1939.62109375
 10
3359.34375
 20
-1939.62109375
 10
3349.345703125
 20
-1939.62109375
 10
3339.34765625
 20
-1939.62109375
 10
3329.349609375
 20
-1939.62109375
 10
3319.3515625
 20
-1949.619140625
 10
3309.353515625
 20
-1939.62109375
 10
3299.35546875
 20
-1949.619140625
 10
3289.357421875
 20
-1939.62109375
 10
3279.359375
 20
-1939.62109375
 10
3269.361328125
 20
-1939.62109375
 10
3259.36328125
 20
-1939.62109375
 10
3249.365234375
 20
-1939.62109375
 10
3239.3671875
 20
-1939.62109375
 10
3229.369140625
 20
-1939.62109375
 10
3219.37109375
 20
-1949.619140625
 10
3209.373046875
 20
-1949.619140625
 10
3199.375
 20
-1949.619140625
 10
3189.376953125
 20
-1939.62109375
 10
3179.37890625
 20
-1939.62109375
 10
3169.380859375
 20
-1929.623046875
 10
3159.3828125
 20
-1919.625
 10
3169.380859375
 20
-1909.626953125
 10
3169.380859375
 20
-1899.62890625
 10
3169.380859375
 20
-1889.630859375
 10
3169.380859375
 20
-1879.6328125
 10
3169.380859375
 20
-1869.634765625
 10
3169.380859375
 20
-1859.63671875
 10
3169.380859375
 20
-1849.638671875
 10
3169.380859375
 20
-1839.640625
 10
3169.380859375
 20
-1829.642578125
 10
3169.380859375
 20
-1819.64453125
 10
3169.380859375
 20
-1809.646484375
 10
3169.380859375
 20
-1799.6484375
 10
3169.380859375
 20
-1789.650390625
 10
3169.380859375
 20
-1779.65234375
 10
3169.380859375
 20
-1769.654296875
 10
3169.380859375
 20
-1759.65625
 10
3159.3828125
 20
-1749.658203125
 10
3169.380859375
 20
-1739.66015625
 10
3159.3828125
 20
-1729.662109375
 10
3169.380859375
 20
-1719.6640625
 10
3169.380859375
 20
-1709.666015625
 10
3169.380859375
 20
-1699.66796875
 10
3169.380859375
 20
-1689.669921875
 10
3169.380859375
 20
-1679.671875
 10
3169.380859375
 20
-1669.673828125
 10
3169.380859375
 20
-1659.67578125
 10
3169.380859375
 20
-1649.677734375
 10
3169.380859375
 20
-1639.6796875
 10
3169.380859375
 20
-1629.681640625
 10
3169.380859375
 20
-1619.68359375
 10
3169.380859375
 20
-1609.685546875
 10
3169.380859375
 20
-1599.6875
 10
3169.380859375
 20
-1589.689453125
 10
3169.380859375
 20
-1579.69140625
 10
3169.380859375
 20
-1569.693359375
 10
3169.380859375
 20
-1559.6953125
 10
3169.380859375
 20
-1549.697265625
 10
3169.380859375
 20
-1539.69921875
 10
3169.380859375
 20
-1529.701171875
 10
3169.380859375
 20
-1519.703125
 10
3169.380859375
 20
-1509.705078125
 10
3169.380859375
 20
-1499.70703125
 10
3169.380859375
 20
-1489.708984375
 10
3169.380859375
 20
-1479.7109375
 10
3169.380859375
 20
-1469.712890625
 10
3169.380859375
 20
-1459.71484375
 10
3169.380859375
 20
-1449.716796875
 10
3169.380859375
 20
-1439.71875
 10
3169.380859375
 20
-1429.720703125
 10
3169.380859375
 20
-1419.72265625
 10
3169.380859375
 20
-1409.724609375
 10
3169.380859375
 20
-1399.7265625
 10
3169.380859375
 20
-1389.728515625
 10
3169.380859375
 20
-1379.73046875
 10
3169.380859375
 20
-1369.732421875
 10
3169.380859375
 20
-1359.734375
 10
3169.380859375
 20
-1349.736328125
 10
3169.380859375
 20
-1339.73828125
 10
3169.380859375
 20
-1329.740234375
 10
3169.380859375
 20
-1319.7421875
 10
3169.380859375
 20
-1309.744140625
 10
3169.380859375
 20
-1299.74609375
 10
3169.380859375
 20
-1289.748046875
 10
3169.380859375
 20
-1279.75
 10
3169.380859375
 20
-1269.751953125
 10
3169.380859375
 20
-1259.75390625
 10
3169.380859375
 20
-1249.755859375
 10
3169.380859375
 20
-1239.7578125
 10
3169.380859375
 20
-1229.759765625
 10
3179.37890625
 20
-1219.76171875
 10
3169.380859375
 20
-1209.763671875
 10
3179.37890625
 20
-1199.765625
 10
3169.380859375
 20
-1189.767578125
 10
3169.380859375
 20
-1179.76953125
 10
3169.380859375
 20
-1169.771484375
 10
3179.37890625
 20
-1159.7734375
 10
3169.380859375
 20
-1149.775390625
 10
3179.37890625
 20
-1139.77734375
 10
3169.380859375
 20
-1129.779296875
 10
3169.380859375
 20
-1119.78125
 10
3169.380859375
 20
-1109.783203125
 10
3169.380859375
 20
-1099.78515625
 10
3169.380859375
 20
-1089.787109375
 10
3169.380859375
 20
-1079.7890625
 10
3169.380859375
 20
-1069.791015625
 10
3179.37890625
 20
-1059.79296875
 10
3179.37890625
 20
-1049.794921875
 10
3179.37890625
 20
-1039.796875
 10
3169.380859375
 20
-1029.798828125
 10
3169.380859375
 20
-1019.80078125
 10
3169.380859375
 20
-1009.802734375
 10
3169.380859375
 20
-999.8046875
 10
3169.380859375
 20
-989.806640625
 10
3179.37890625
 20
-979.80859375
 10
3169.380859375
 20
-969.810546875
 10
3169.380859375
 20
-959.8125
 10
3169.380859375
 20
-949.814453125
 10
3169.380859375
 20
-939.81640625
 10
3169.380859375
 20
-929.818359375
 10
3169.380859375
 20
-919.8203125
 10
3169.380859375
 20
-909.822265625
 10
3179.37890625
 20
-899.82421875
 10
3179.37890625
 20
-889.826171875
 10
3179.37890625
 20
-879.828125
 10
3179.37890625
 20
-869.830078125
 10
3179.37890625
 20
-859.83203125
 10
3179.37890625
 20
-849.833984375
 10
3179.37890625
 20
-839.8359375
 10
3179.37890625
 20
-829.837890625
 10
3179.37890625
 20
-819.83984375
 10
3179.37890625
 20
-809.841796875
 10
3179.37890625
 20
-799.84375
 10
3169.380859375
 20
-789.845703125
 10
3159.3828125
 20
-789.845703125
 10
3149.384765625
 20
-789.845703125
 10
3139.38671875
 20
-789.845703125
 10
3129.388671875
 20
-789.845703125
 10
3119.390625
 20
-789.845703125
 10
3109.392578125
 20
-779.84765625
 10
3099.39453125
 20
-789.845703125
 10
3089.396484375
 20
-789.845703125
 10
3079.3984375
 20
-789.845703125
 10
3069.400390625
 20
-789.845703125
 10
3059.40234375
 20
-789.845703125
 10
3049.404296875
 20
-779.84765625
 10
3039.40625
 20
-779.84765625
 10
3029.408203125
 20
-779.84765625
 10
3019.41015625
 20
-779.84765625
 10
3009.412109375
 20
-779.84765625
 10
2999.4140625
 20
-779.84765625
 10
2989.416015625
 20
-779.84765625
 10
2979.41796875
 20
-789.845703125
 10
2969.419921875
 20
-779.84765625
 10
2959.421875
 20
-789.845703125
 10
2949.423828125
 20
-779.84765625
 10
2939.42578125
 20
-789.845703125
 10
2929.427734375
 20
-779.84765625
 10
2919.4296875
 20
-789.845703125
 10
2909.431640625
 20
-779.84765625
 10
2899.43359375
 20
-779.84765625
 10
2889.435546875
 20
-779.84765625
 10
2879.4375
 20
-779.84765625
 10
2869.439453125
 20
-779.84765625
 10
2859.44140625
 20
-779.84765625
 10
2849.443359375
 20
-779.84765625
 10
2839.4453125
 20
-789.845703125
 10
2829.447265625
 20
-779.84765625
 10
2819.44921875
 20
-789.845703125
 10
2809.451171875
 20
-779.84765625
 10
2799.453125
 20
-789.845703125
 10
2789.455078125
 20
-779.84765625
 10
2779.45703125
 20
-789.845703125
 10
2769.458984375
 20
-779.84765625
 10
2759.4609375
 20
-789.845703125
 10
2749.462890625
 20
-789.845703125
 10
2739.46484375
 20
-789.845703125
 10
2729.466796875
 20
-779.84765625
 10
2719.46875
 20
-789.845703125
 10
2709.470703125
 20
-779.84765625
 10
2699.47265625
 20
-789.845703125
 10
2689.474609375
 20
-779.84765625
 10
2679.4765625
 20
-789.845703125
 10
2669.478515625
 20
-779.84765625
 10
2659.48046875
 20
-789.845703125
 10
2649.482421875
 20
-779.84765625
 10
2639.484375
 20
-789.845703125
 10
2629.486328125
 20
-779.84765625
 10
2619.48828125
 20
-789.845703125
 10
2609.490234375
 20
-779.84765625
 10
2599.4921875
 20
-789.845703125
 10
2589.494140625
 20
-789.845703125
 10
2579.49609375
 20
-789.845703125
 10
2569.498046875
 20
-789.845703125
 10
2559.5
 20
-789.845703125
 10
2549.501953125
 20
-779.84765625
 10
2539.50390625
 20
-779.84765625
 10
2529.505859375
 20
-779.84765625
 10
2519.5078125
 20
-779.84765625
 10
2509.509765625
 20
-779.84765625
 10
2499.51171875
 20
-789.845703125
 10
2489.513671875
 20
-779.84765625
 10
2479.515625
 20
-789.845703125
 10
2469.517578125
 20
-779.84765625
 10
2459.51953125
 20
-789.845703125
 10
2449.521484375
 20
-779.84765625
 10
2439.5234375
 20
-789.845703125
 10
2429.525390625
 20
-779.84765625
 10
2419.52734375
 20
-789.845703125
 10
2409.529296875
 20
-779.84765625
 10
2399.53125
 20
-779.84765625
 10
2389.533203125
 20
-779.84765625
 10
2379.53515625
 20
-779.84765625
 10
2369.537109375
 20
-779.84765625
 10
2359.5390625
 20
-779.84765625
 10
2349.541015625
 20
-779.84765625
 10
2339.54296875
 20
-779.84765625
 10
2329.544921875
 20
-779.84765625
 10
2319.546875
 20
-789.845703125
 10
2309.548828125
 20
-779.84765625
 10
2299.55078125
 20
-789.845703125
 10
2289.552734375
 20
-789.845703125
 10
2279.5546875
 20
-789.845703125
 10
2269.556640625
 20
-779.84765625
 10
2259.55859375
 20
-789.845703125
 10
2249.560546875
 20
-779.84765625
 10
2239.5625
 20
-779.84765625
 10
2229.564453125
 20
-779.84765625
 10
2219.56640625
 20
-779.84765625
 10
2209.568359375
 20
-779.84765625
 10
2199.5703125
 20
-779.84765625
 10
2189.572265625
 20
-779.84765625
 10
2179.57421875
 20
-789.845703125
 10
2169.576171875
 20
-779.84765625
 10
2159.578125
 20
-789.845703125
 10
2149.580078125
 20
-779.84765625
 10
2139.58203125
 20
-789.845703125
 10
2129.583984375
 20
-779.84765625
 10
2119.5859375
 20
-789.845703125
 10
2109.587890625
 20
-779.84765625
 10
2099.58984375
 20
-789.845703125
 10
2089.591796875
 20
-779.84765625
 10
2079.59375
 20
-789.845703125
 10
2069.595703125
 20
-779.84765625
 10
2059.59765625
 20
-779.84765625
 10
2049.599609375
 20
-779.84765625
 10
2039.6015625
 20
-789.845703125
 10
2029.603515625
 20
-789.845703125
 10
2019.60546875
 20
-789.845703125
 10
2009.607421875
 20
-789.845703125
 10
1999.609375
 20
-789.845703125
 10
1989.611328125
 20
-789.845703125
 10
1979.61328125
 20
-789.845703125
 10
1969.615234375
 20
-779.84765625
 10
1959.6171875
 20
-789.845703125
  0
LWPOLYLINE
  5
33
330
17
100
AcDbEntity
  8
conductor
100
AcDbPolyline
 90
4
 70
1
 43
0.5
 10
4219.17578125
 20
-1989.611328125
 10
4229.173828125
 20
-1979.61328125
 10
4239.171875
 20
-1989.611328125
 10
4229.173828125
 20
-1999.609375
  0
LWPOLYLINE
  5
34
330
17
100
AcDbEntity
  8
dielectric
100
AcDbPolyline
 90
1
 70
1
 43
0.5
 10
2469.517578125
 20
-649.873046875
  0
LWPOLYLINE
  5
35
330
17
100
AcDbEntity
  8
dielectric
100
AcDbPolyline
 90
1
 70
1
 43
0.5
 10
2449.521484375
 20
-629.876953125
  0
LWPOLYLINE
  5
36
330
17
100
AcDbEntity
  8
dielectric
100
AcDbPolyline
 90
4
 70
1
 43
0.5
 10
2469.517578125
 20
-609.880859375
 10
2479.515625
 20
-619.87890625
 10
2469.517578125
 20
-629.876953125
 10
2479.515625
 20
-619.87890625
  0
LWPOLYLINE
  5
37
330
17
100
AcDbEntity
  8
substrate
100
AcDbPolyline
 90
2044
 70
1
 43
0.5
 10
0.0
 20
-0.0
 10
0.0
 20
-9.998046875
 10
0.0
 20
-19.99609375
 10
0.0
 20
-29.994140625
 10
0.0
 20
-39.9921875
 10
0.0
 20
-49.990234375
 10
0.0
 20
-59.98828125
 10
0.0
 20
-69.986328125
 10
0.0
 20
-79.984375
 10
0.0
 20
-89.982421875
 10
0.0
 20
-99.98046875
 10
0.0
 20
-109.978515625
 10
0.0
 20
-119.9765625
 10
0.0
 20
-129.974609375
 10
0.0
 20
-139.97265625
 10
0.0
 20
-149.970703125
 10
0.0
 20
-159.96875
 10
0.0
 20
-169.966796875
 10
0.0
 20
-179.96484375
 10
0.0
 20
-189.962890625
 10
0.0
 20
-199.9609375
 10
0.0
 20
-209.958984375
 10
0.0
 20
-219.95703125
 10
0.0
 20
-229.955078125
 10
0.0
 20
-239.953125
 10
0.0
 20
-249.951171875
 10
0.0
 20
-259.94921875
 10
0.0
 20
-269.947265625
 10
0.0
 20
-279.9453125
 10
0.0
 20
-289.943359375
 10
0.0
 20
-299.94140625
 10
0.0
 20
-309.939453125
 10
0.0
 20
-319.9375
 10
0.0
 20
-329.935546875
 10
0.0
 20
-339.93359375
 10
0.0
 20
-349.931640625
 10
0.0
 20
-359.9296875
 10
0.0
 20
-369.927734375
 10
0.0
 20
-379.92578125
 10
0.0
 20
-389.923828125
 10
0.0
 20
-399.921875
 10
0.0
 20
-409.919921875
 10
0.0
 20
-419.91796875
 10
0.0
 20
-429.916015625
 10
0.0
 20
-439.9140625
 10
0.0
 20
-449.912109375
 10
0.0
 20
-459.91015625
 10
0.0
 20
-469.908203125
 10
0.0
 20
-479.90625
 10
0.0
 20
-489.904296875
 10
0.0
 20
-499.90234375
 10
0.0
 20
-509.900390625
 10
0.0
 20
-519.8984375
 10
0.0
 20
-529.896484375
 10
0.0
 20
-539.89453125
 10
0.0
 20
-549.892578125
 10
0.0
 20
-559.890625
 10
0.0
 20
-569.888671875
 10
0.0
 20
-579.88671875
 10
0.0
 20
-589.884765625
 10
0.0
 20
-599.8828125
 10
0.0
 20
-609.880859375
 10
0.0
 20
-619.87890625
 10
0.0
 20
-629.876953125
 10
0.0
 20
-639.875
 10
0.0
 20
-649.873046875
 10
0.0
 20
-659.87109375
 10
0.0
 20
-669.869140625
 10
0.0
 20
-679.8671875
 10
0.0
 20
-689.865234375
 10
0.0
 20
-699.86328125
 10
0.0
 20
-709.861328125
 10
0.0
 20
-719.859375
 10
0.0
 20
-729.857421875
 10
0.0
 20
-739.85546875
 10
0.0
 20
-749.853515625
 10
0.0
 20
-759.8515625
 10
0.0
 20
-769.849609375
 10
0.0
 20
-779.84765625
 10
0.0
 20
-789.845703125
 10
0.0
 20
-799.84375
 10
0.0
 20
-809.841796875
 10
0.0
 20
-819.83984375
 10
0.0
 20
-829.837890625
 10
0.0
 20
-839.8359375
 10
0.0
 20
-849.833984375
 10
0.0
 20
-859.83203125
 10
0.0
 20
-869.830078125
 10
0.0
 20
-879.828125
 10
0.0
 20
-889.826171875
 10
0.0
 20
-899.82421875
 10
0.0
 20
-909.822265625
 10
0.0
 20
-919.8203125
 10
0.0
 20
-929.818359375
 10
0.0
 20
-939.81640625
 10
0.0
 20
-949.814453125
 10
0.0
 20
-959.8125
 10
0.0
 20
-969.810546875
 10
0.0
 20
-979.80859375
 10
0.0
 20
-989.806640625
 10
0.0
 20
-999.8046875
 10
0.0
 20
-1009.802734375
 10
0.0
 20
-1019.80078125
 10
0.0
 20
-1029.798828125
 10
0.0
 20
-1039.796875
 10
0.0
 20
-1049.794921875
 10
0.0
 20
-1059.79296875
 10
0.0
 20
-1069.791015625
 10
0.0
 20
-1079.7890625
 10
0.0
 20
-1089.787109375
 10
0.0
 20
-1099.78515625
 10
0.0
 20
-1109.783203125
 10
0.0
 20
-1119.78125
 10
0.0
 20
-1129.779296875
 10
0.0
 20
-1139.77734375
 10
0.0
 20
-1149.775390625
 10
0.0
 20
-1159.7734375
 10
0.0
 20
-1169.771484375
 10
0.0
 20
-1179.76953125
 10
0.0
 20
-1189.767578125
 10
0.0
 20
-1199.765625
 10
0.0
 20
-1209.763671875
 10
0.0
 20
-1219.76171875
 10
0.0
 20
-1229.759765625
 10
0.0
 20
-1239.7578125
 10
0.0
 20
-1249.755859375
 10
0.0
 20
-1259.75390625
 10
0.0
 20
-1269.751953125
 10
0.0
 20
-1279.75
 10
0.0
 20
-1289.748046875
 10
0.0
 20
-1299.74609375
 10
0.0
 20
-1309.744140625
 10
0.0
 20
-1319.7421875
 10
0.0
 20
-1329.740234375
 10
0.0
 20
-1339.73828125
 10
0.0
 20
-1349.736328125
 10
0.0
 20
-1359.734375
 10
0.0
 20
-1369.732421875
 10
0.0
 20
-1379.73046875
 10
0.0
 20
-1389.728515625
 10
0.0
 20
-1399.7265625
 10
0.0
 20
-1409.724609375
 10
0.0
 20
-1419.72265625
 10
0.0
 20
-1429.720703125
 10
0.0
 20
-1439.71875
 10
0.0
 20
-1449.716796875
 10
0.0
 20
-1459.71484375
 10
0.0
 20
-1469.712890625
 10
0.0
 20
-1479.7109375
 10
0.0
 20
-1489.708984375
 10
0.0
 20
-1499.70703125
 10
0.0
 20
-1509.705078125
 10
0.0
 20
-1519.703125
 10
0.0
 20
-1529.701171875
 10
0.0
 20
-1539.69921875
 10
0.0
 20
-1549.697265625
 10
0.0
 20
-1559.6953125
 10
0.0
 20
-1569.693359375
 10
0.0
 20
-1579.69140625
 10
0.0
 20
-1589.689453125
 10
0.0
 20
-1599.6875
 10
0.0
 20
-1609.685546875
 10
0.0
 20
-1619.68359375
 10
0.0
 20
-1629.681640625
 10
0.0
 20
-1639.6796875
 10
0.0
 20
-1649.677734375
 10
0.0
 20
-1659.67578125
 10
0.0
 20
-1669.673828125
 10
0.0
 20
-1679.671875
 10
0.0
 20
-1689.669921875
 10
0.0
 20
-1699.66796875
 10
0.0
 20
-1709.666015625
 10
0.0
 20
-1719.6640625
 10
0.0
 20
-1729.662109375
 10
0.0
 20
-1739.66015625
 10
0.0
 20
-1749.658203125
 10
0.0
 20
-1759.65625
 10
0.0
 20
-1769.654296875
 10
0.0
 20
-1779.65234375
 10
0.0
 20
-1789.650390625
 10
0.0
 20
-1799.6484375
 10
0.0
 20
-1809.646484375
 10
0.0
 20
-1819.64453125
 10
0.0
 20
-1829.642578125
 10
0.0
 20
-1839.640625
 10
0.0
 20
-1849.638671875
 10
0.0
 20
-1859.63671875
 10
0.0
 20
-1869.634765625
 10
0.0
 20
-1879.6328125
 10
0.0
 20
-1889.630859375
 10
0.0
 20
-1899.62890625
 10
0.0
 20
-1909.626953125
 10
0.0
 20
-1919.625
 10
0.0
 20
-1929.623046875
 10
0.0
 20
-1939.62109375
 10
0.0
 20
-1949.619140625
 10
0.0
 20
-1959.6171875
 10
0.0
 20
-1969.615234375
 10
0.0
 20
-1979.61328125
 10
0.0
 20
-1989.611328125
 10
0.0
 20
-1999.609375
 10
0.0
 20
-2009.607421875
 10
0.0
 20
-2019.60546875
 10
0.0
 20
-2029.603515625
 10
0.0
 20
-2039.6015625
 10
0.0
 20
-2049.599609375
 10
0.0
 20
-2059.59765625
 10
0.0
 20
-2069.595703125
 10
0.0
 20
-2079.59375
 10
0.0
 20
-2089.591796875
 10
0.0
 20
-2099.58984375
 10
0.0
 20
-2109.587890625
 10
0.0
 20
-2119.5859375
 10
0.0
 20
-2129.583984375
 10
0.0
 20
-2139.58203125
 10
0.0
 20
-2149.580078125
 10
0.0
 20
-2159.578125
 10
0.0
 20
-2169.576171875
 10
0.0
 20
-2179.57421875
 10
0.0
 20
-2189.572265625
 10
0.0
 20
-2199.5703125
 10
0.0
 20
-2209.568359375
 10
0.0
 20
-2219.56640625
 10
0.0
 20
-2229.564453125
 10
0.0
 20
-2239.5625
 10
0.0
 20
-2249.560546875
 10
0.0
 20
-2259.55859375
 10
0.0
 20
-2269.556640625
 10
0.0
 20
-2279.5546875
 10
0.0
 20
-2289.552734375
 10
0.0
 20
-2299.55078125
 10
0.0
 20
-2309.548828125
 10
0.0
 20
-2319.546875
 10
0.0
 20
-2329.544921875
 10
0.0
 20
-2339.54296875
 10
0.0
 20
-2349.541015625
 10
0.0
 20
-2359.5390625
 10
0.0
 20
-2369.537109375
 10
0.0
 20
-2379.53515625
 10
0.0
 20
-2389.533203125
 10
0.0
 20
-2399.53125
 10
0.0
 20
-2409.529296875
 10
0.0
 20
-2419.52734375
 10
0.0
 20
-2429.525390625
 10
0.0
 20
-2439.5234375
 10
0.0
 20
-2449.521484375
 10
0.0
 20
-2459.51953125
 10
0.0
 20
-2469.517578125
 10
0.0
 20
-2479.515625
 10
0.0
 20
-2489.513671875
 10
0.0
 20
-2499.51171875
 10
0.0
 20
-2509.509765625
 10
0.0
 20
-2519.5078125
 10
0.0
 20
-2529.505859375
 10
0.0
 20
-2539.50390625
 10
0.0
 20
-2549.501953125
 10
0.0
 20
-2559.5
 10
0.0
 20
-2569.498046875
 10
0.0
 20
-2579.49609375
 10
0.0
 20
-2589.494140625
 10
0.0
 20
-2599.4921875
 10
0.0
 20
-2609.490234375
 10
0.0
 20
-2619.48828125
 10
0.0
 20
-2629.486328125
 10
0.0
 20
-2639.484375
 10
0.0
 20
-2649.482421875
 10
0.0
 20
-2659.48046875
 10
0.0
 20
-2669.478515625
 10
0.0
 20
-2679.4765625
 10
0.0
 20
-2689.474609375
 10
0.0
 20
-2699.47265625
 10
0.0
 20
-2709.470703125
 10
0.0
 20
-2719.46875
 10
0.0
 20
-2729.466796875
 10
0.0
 20
-2739.46484375
 10
0.0
 20
-2749.462890625
 10
0.0
 20
-2759.4609375
 10
0.0
 20
-2769.458984375
 10
0.0
 20
-2779.45703125
 10
0.0
 20
-2789.455078125
 10
0.0
 20
-2799.453125
 10
0.0
 20
-2809.451171875
 10
0.0
 20
-2819.44921875
 10
0.0
 20
-2829.447265625
 10
0.0
 20
-2839.4453125
 10
0.0
 20
-2849.443359375
 10
0.0
 20
-2859.44140625
 10
0.0
 20
-2869.439453125
 10
0.0
 20
-2879.4375
 10
0.0
 20
-2889.435546875
 10
0.0
 20
-2899.43359375
 10
0.0
 20
-2909.431640625
 10
0.0
 20
-2919.4296875
 10
0.0
 20
-2929.427734375
 10
0.0
 20
-2939.42578125
 10
0.0
 20
-2949.423828125
 10
0.0
 20
-2959.421875
 10
0.0
 20
-2969.419921875
 10
0.0
 20
-2979.41796875
 10
0.0
 20
-2989.416015625
 10
0.0
 20
-2999.4140625
 10
0.0
 20
-3009.412109375
 10
0.0
 20
-3019.41015625
 10
0.0
 20
-3029.408203125
 10
0.0
 20
-3039.40625
 10
0.0
 20
-3049.404296875
 10
0.0
 20
-3059.40234375
 10
0.0
 20
-3069.400390625
 10
0.0
 20
-3079.3984375
 10
0.0
 20
-3089.396484375
 10
0.0
 20
-3099.39453125
 10
0.0
 20
-3109.392578125
 10
0.0
 20
-3119.390625
 10
0.0
 20
-3129.388671875
 10
0.0
 20
-3139.38671875
 10
0.0
 20
-3149.384765625
 10
0.0
 20
-3159.3828125
 10
0.0
 20
-3169.380859375
 10
0.0
 20
-3179.37890625
 10
0.0
 20
-3189.376953125
 10
0.0
 20
-3199.375
 10
0.0
 20
-3209.373046875
 10
0.0
 20
-3219.37109375
 10
0.0
 20
-3229.369140625
 10
0.0
 20
-3239.3671875
 10
0.0
 20
-3249.365234375
 10
0.0
 20
-3259.36328125
 10
0.0
 20
-3269.361328125
 10
0.0
 20
-3279.359375
 10
0.0
 20
-3289.357421875
 10
0.0
 20
-3299.35546875
 10
0.0
 20
-3309.353515625
 10
0.0
 20
-3319.3515625
 10
0.0
 20
-3329.349609375
 10
0.0
 20
-3339.34765625
 10
0.0
 20
-3349.345703125
 10
0.0
 20
-3359.34375
 10
0.0
 20
-3369.341796875
 10
0.0
 20
-3379.33984375
 10
0.0
 20
-3389.337890625
 10
0.0
 20
-3399.3359375
 10
0.0
 20
-3409.333984375
 10
0.0
 20
-3419.33203125
 10
0.0
 20
-3429.330078125
 10
0.0
 20
-3439.328125
 10
0.0
 20
-3449.326171875
 10
0.0
 20
-3459.32421875
 10
0.0
 20
-3469.322265625
 10
0.0
 20
-3479.3203125
 10
0.0
 20
-3489.318359375
 10
0.0
 20
-3499.31640625
 10
0.0
 20
-3509.314453125
 10
0.0
 20
-3519.3125
 10
0.0
 20
-3529.310546875
 10
0.0
 20
-3539.30859375
 10
0.0
 20
-3549.306640625
 10
0.0
 20
-3559.3046875
 10
0.0
 20
-3569.302734375
 10
0.0
 20
-3579.30078125
 10
0.0
 20
-3589.298828125
 10
0.0
 20
-3599.296875
 10
0.0
 20
-3609.294921875
 10
0.0
 20
-3619.29296875
 10
0.0
 20
-3629.291015625
 10
0.0
 20
-3639.2890625
 10
0.0
 20
-3649.287109375
 10
0.0
 20
-3659.28515625
 10
0.0
 20
-3669.283203125
 10
0.0
 20
-3679.28125
 10
0.0
 20
-3689.279296875
 10
0.0
 20
-3699.27734375
 10
0.0
 20
-3709.275390625
 10
0.0
 20
-3719.2734375
 10
0.0
 20
-3729.271484375
 10
0.0
 20
-3739.26953125
 10
0.0
 20
-3749.267578125
 10
0.0
 20
-3759.265625
 10
0.0
 20
-3769.263671875
 10
0.0
 20
-3779.26171875
 10
0.0
 20
-3789.259765625
 10
0.0
 20
-3799.2578125
 10
0.0
 20
-3809.255859375
 10
0.0
 20
-3819.25390625
 10
0.0
 20
-3829.251953125
 10
0.0
 20
-3839.25
 10
0.0
 20
-3849.248046875
 10
0.0
 20
-3859.24609375
 10
0.0
 20
-3869.244140625
 10
0.0
 20
-3879.2421875
 10
0.0
 20
-3889.240234375
 10
0.0
 20
-3899.23828125
 10
0.0
 20
-3909.236328125
 10
0.0
 20
-3919.234375
 10
0.0
 20
-3929.232421875
 10
0.0
 20
-3939.23046875
 10
0.0
 20
-3949.228515625
 10
0.0
 20
-3959.2265625
 10
0.0
 20
-3969.224609375
 10
0.0
 20
-3979.22265625
 10
0.0
 20
-3989.220703125
 10
0.0
 20
-3999.21875
 10
0.0
 20
-4009.216796875
 10
0.0
 20
-4019.21484375
 10
0.0
 20
-4029.212890625
 10
0.0
 20
-4039.2109375
 10
0.0
 20
-4049.208984375
 10
0.0
 20
-4059.20703125
 10
0.0
 20
-4069.205078125
 10
0.0
 20
-4079.203125
 10
0.0
 20
-4089.201171875
 10
0.0
 20
-4099.19921875
 10
0.0
 20
-4109.197265625
 10
0.0
 20
-4119.1953125
 10
0.0
 20
-4129.193359375
 10
0.0
 20
-4139.19140625
 10
0.0
 20
-4149.189453125
 10
0.0
 20
-4159.1875
 10
0.0
 20
-4169.185546875
 10
0.0
 20
-4179.18359375
 10
0.0
 20
-4189.181640625
 10
0.0
 20
-4199.1796875
 10
0.0
 20
-4209.177734375
 10
0.0
 20
-4219.17578125
 10
0.0
 20
-4229.173828125
 10
0.0
 20
-4239.171875
 10
0.0
 20
-4249.169921875
 10
0.0
 20
-4259.16796875
 10
0.0
 20
-4269.166015625
 10
0.0
 20
-4279.1640625
 10
0.0
 20
-4289.162109375
 10
0.0
 20
-4299.16015625
 10
0.0
 20
-4309.158203125
 10
0.0
 20
-4319.15625
 10
0.0
 20
-4329.154296875
 10
0.0
 20
-4339.15234375
 10
0.0
 20
-4349.150390625
 10
0.0
 20
-4359.1484375
 10
0.0
 20
-4369.146484375
 10
0.0
 20
-4379.14453125
 10
0.0
 20
-4389.142578125
 10
0.0
 20
-4399.140625
 10
0.0
 20
-4409.138671875
 10
0.0
 20
-4419.13671875
 10
0.0
 20
-4429.134765625
 10
0.0
 20
-4439.1328125
 10
0.0
 20
-4449.130859375
 10
0.0
 20
-4459.12890625
 10
0.0
 20
-4469.126953125
 10
0.0
 20
-4479.125
 10
0.0
 20
-4489.123046875
 10
0.0
 20
-4499.12109375
 10
0.0
 20
-4509.119140625
 10
0.0
 20
-4519.1171875
 10
0.0
 20
-4529.115234375
 10
0.0
 20
-4539.11328125
 10
0.0
 20
-4549.111328125
 10
0.0
 20
-4559.109375
 10
0.0
 20
-4569.107421875
 10
0.0
 20
-4579.10546875
 10
0.0
 20
-4589.103515625
 10
0.0
 20
-4599.1015625
 10
0.0
 20
-4609.099609375
 10
0.0
 20
-4619.09765625
 10
0.0
 20
-4629.095703125
 10
0.0
 20
-4639.09375
 10
0.0
 20
-4649.091796875
 10
0.0
 20
-4659.08984375
 10
0.0
 20
-4669.087890625
 10
0.0
 20
-4679.0859375
 10
0.0
 20
-4689.083984375
 10
0.0
 20
-4699.08203125
 10
0.0
 20
-4709.080078125
 10
0.0
 20
-4719.078125
 10
0.0
 20
-4729.076171875
 10
0.0
 20
-4739.07421875
 10
0.0
 20
-4749.072265625
 10
0.0
 20
-4759.0703125
 10
0.0
 20
-4769.068359375
 10
0.0
 20
-4779.06640625
 10
0.0
 20
-4789.064453125
 10
0.0
 20
-4799.0625
 10
0.0
 20
-4809.060546875
 10
0.0
 20
-4819.05859375
 10
0.0
 20
-4829.056640625
 10
0.0
 20
-4839.0546875
 10
0.0
 20
-4849.052734375
 10
0.0
 20
-4859.05078125
 10
0.0
 20
-4869.048828125
 10
0.0
 20
-4879.046875
 10
0.0
 20
-4889.044921875
 10
0.0
 20
-4899.04296875
 10
0.0
 20
-4909.041015625
 10
0.0
 20
-4919.0390625
 10
0.0
 20
-4929.037109375
 10
0.0
 20
-4939.03515625
 10
0.0
 20
-4949.033203125
 10
0.0
 20
-4959.03125
 10
0.0
 20
-4969.029296875
 10
0.0
 20
-4979.02734375
 10
0.0
 20
-4989.025390625
 10
0.0
 20
-4999.0234375
 10
0.0
 20
-5009.021484375
 10
0.0
 20
-5019.01953125
 10
0.0
 20
-5029.017578125
 10
0.0
 20
-5039.015625
 10
0.0
 20
-5049.013671875
 10
0.0
 20
-5059.01171875
 10
0.0
 20
-5069.009765625
 10
0.0
 20
-5079.0078125
 10
0.0
 20
-5089.005859375
 10
0.0
 20
-5099.00390625
 10
0.0
 20
-5109.001953125
 10
9.998046875
 20
-5109.001953125
 10
19.99609375
 20
-5109.001953125
 10
29.994140625
 20
-5109.001953125
 10
39.9921875
 20
-5109.001953125
 10
49.990234375
 20
-5109.001953125
 10
59.98828125
 20
-5109.001953125
 10
69.986328125
 20
-5109.001953125
 10
79.984375
 20
-5109.001953125
 10
89.982421875
 20
-5109.001953125
 10
99.98046875
 20
-5109.001953125
 10
109.978515625
 20
-5109.001953125
 10
119.9765625
 20
-5109.001953125
 10
129.974609375
 20
-5109.001953125
 10
139.97265625
 20
-5109.001953125
 10
149.970703125
 20
-5109.001953125
 10
159.96875
 20
-5109.001953125
 10
169.966796875
 20
-5109.001953125
 10
179.96484375
 20
-5109.001953125
 10
189.962890625
 20
-5109.001953125
 10
199.9609375
 20
-5109.001953125
 10
209.958984375
 20
-5109.001953125
 10
219.95703125
 20
-5109.001953125
 10
229.955078125
 20
-5109.001953125
 10
239.953125
 20
-5109.001953125
 10
249.951171875
 20
-5109.001953125
 10
259.94921875
 20
-5109.001953125
 10
269.947265625
 20
-5109.001953125
 10
279.9453125
 20
-5109.001953125
 10
289.943359375
 20
-5109.001953125
 10
299.94140625
 20
-5109.001953125
 10
309.939453125
 20
-5109.001953125
 10
319.9375
 20
-5109.001953125
 10
329.935546875
 20
-5109.001953125
 10
339.93359375
 20
-5109.001953125
 10
349.931640625
 20
-5109.001953125
 10
359.9296875
 20
-5109.001953125
 10
369.927734375
 20
-5109.001953125
 10
379.92578125
 20
-5109.001953125
 10
389.923828125
 20
-5109.001953125
 10
399.921875
 20
-5109.001953125
 10
409.919921875
 20
-5109.001953125
 10
419.91796875
 20
-5109.001953125
 10
429.916015625
 20
-5109.001953125
 10
439.9140625
 20
-5109.001953125
 10
449.912109375
 20
-5109.001953125
 10
459.91015625
 20
-5109.001953125
 10
469.908203125
 20
-5109.001953125
 10
479.90625
 20
-5109.001953125
 10
489.904296875
 20
-5109.001953125
 10
499.90234375
 20
-5109.001953125
 10
509.900390625
 20
-5109.001953125
 10
519.8984375
 20
-5109.001953125
 10
529.896484375
 20
-5109.001953125
 10
539.89453125
 20
-5109.001953125
 10
549.892578125
 20
-5109.001953125
 10
559.890625
 20
-5109.001953125
 10
569.888671875
 20
-5109.001953125
 10
579.88671875
 20
-5109.001953125
 10
589.884765625
 20
-5109.001953125
 10
599.8828125
 20
-5109.001953125
 10
609.880859375
 20
-5109.001953125
 10
619.87890625
 20
-5109.001953125
 10
629.876953125
 20
-5109.001953125
 10
639.875
 20
-5109.001953125
 10
649.873046875
 20
-5109.001953125
 10
659.87109375
 20
-5109.001953125
 10
669.869140625
 20
-5109.001953125
 10
679.8671875
 20
-5109.001953125
 10
689.865234375
 20
-5109.001953125
 10
699.86328125
 20
-5109.001953125
 10
709.861328125
 20
-5109.001953125
 10
719.859375
 20
-5109.001953125
 10
729.857421875
 20
-5109.001953125
 10
739.85546875
 20
-5109.001953125
 10
749.853515625
 20
-5109.001953125
 10
759.8515625
 20
-5109.001953125
 10
769.849609375
 20
-5109.001953125
 10
779.84765625
 20
-5109.001953125
 10
789.845703125
 20
-5109.001953125
 10
799.84375
 20
-5109.001953125
 10
809.841796875
 20
-5109.001953125
 10
819.83984375
 20
-5109.001953125
 10
829.837890625
 20
-5109.001953125
 10
839.8359375
 20
-5109.001953125
 10
849.833984375
 20
-5109.001953125
 10
859.83203125
 20
-5109.001953125
 10
869.830078125
 20
-5109.001953125
 10
879.828125
 20
-5109.001953125
 10
889.826171875
 20
-5109.001953125
 10
899.82421875
 20
-5109.001953125
 10
909.822265625
 20
-5109.001953125
 10
919.8203125
 20
-5109.001953125
 10
929.818359375
 20
-5109.001953125
 10
939.81640625
 20
-5109.001953125
 10
949.814453125
 20
-5109.001953125
 10
959.8125
 20
-5109.001953125
 10
969.810546875
 20
-5109.001953125
 10
979.80859375
 20
-5109.001953125
 10
989.806640625
 20
-5109.001953125
 10
999.8046875
 20
-5109.001953125
 10
1009.802734375
 20
-5109.001953125
 10
1019.80078125
 20
-5109.001953125
 10
1029.798828125
 20
-5109.001953125
 10
1039.796875
 20
-5109.001953125
 10
1049.794921875
 20
-5109.001953125
 10
1059.79296875
 20
-5109.001953125
 10
1069.791015625
 20
-5109.001953125
 10
1079.7890625
 20
-5109.001953125
 10
1089.787109375
 20
-5109.001953125
 10
1099.78515625
 20
-5109.001953125
 10
1109.783203125
 20
-5109.001953125
 10
1119.78125
 20
-5109.001953125
 10
1129.779296875
 20
-5109.001953125
 10
1139.77734375
 20
-5109.001953125
 10
1149.775390625
 20
-5109.001953125
 10
1159.7734375
 20
-5109.001953125
 10
1169.771484375
 20
-5109.001953125
 10
1179.76953125
 20
-5109.001953125
 10
1189.767578125
 20
-5109.001953125
 10
1199.765625
 20
-5109.001953125
 10
1209.763671875
 20
-5109.001953125
 10
1219.76171875
 20
-5109.001953125
 10
1229.759765625
 20
-5109.001953125
 10
1239.7578125
 20
-5109.001953125
 10
1249.755859375
 20
-5109.001953125
 10
1259.75390625
 20
-5109.001953125
 10
1269.751953125
 20
-5109.001953125
 10
1279.75
 20
-5109.001953125
 10
1289.748046875
 20
-5109.001953125
 10
1299.74609375
 20
-5109.001953125
 10
1309.744140625
 20
-5109.001953125
 10
1319.7421875
 20
-5109.001953125
 10
1329.740234375
 20
-5109.001953125
 10
1339.73828125
 20
-5109.001953125
 10
1349.736328125
 20
-5109.001953125
 10
1359.734375
 20
-5109.001953125
 10
1369.732421875
 20
-5109.001953125
 10
1379.73046875
 20
-5109.001953125
 10
1389.728515625
 20
-5109.001953125
 10
1399.7265625
 20
-5109.001953125
 10
1409.724609375
 20
-5109.001953125
 10
1419.72265625
 20
-5109.001953125
 10
1429.720703125
 20
-5109.001953125
 10
1439.71875
 20
-5109.001953125
 10
1449.716796875
 20
-5109.001953125
 10
1459.71484375
 20
-5109.001953125
 10
1469.712890625
 20
-5109.001953125
 10
1479.7109375
 20
-5109.001953125
 10
1489.708984375
 20
-5109.001953125
 10
1499.70703125
 20
-5109.001953125
 10
1509.705078125
 20
-5109.001953125
 10
1519.703125
 20
-5109.001953125
 10
1529.701171875
 20
-5109.001953125
 10
1539.69921875
 20
-5109.001953125
 10
1549.697265625
 20
-5109.001953125
 10
1559.6953125
 20
-5109.001953125
 10
1569.693359375
 20
-5109.001953125
 10
1579.69140625
 20
-5109.001953125
 10
1589.689453125
 20
-5109.001953125
 10
1599.6875
 20
-5109.001953125
 10
1609.685546875
 20
-5109.001953125
 10
1619.68359375
 20
-5109.001953125
 10
1629.681640625
 20
-5109.001953125
 10
1639.6796875
 20
-5109.001953125
 10
1649.677734375
 20
-5109.001953125
 10
1659.67578125
 20
-5109.001953125
 10
1669.673828125
 20
-5109.001953125
 10
1679.671875
 20
-5109.001953125
 10
1689.669921875
 20
-5109.001953125
 10
1699.66796875
 20
-5109.001953125
 10
1709.666015625
 20
-5109.001953125
 10
1719.6640625
 20
-5109.001953125
 10
1729.662109375
 20
-5109.001953125
 10
1739.66015625
 20
-5109.001953125
 10
1749.658203125
 20
-5109.001953125
 10
1759.65625
 20
-5109.001953125
 10
1769.654296875
 20
-5109.001953125
 10
1779.65234375
 20
-5109.001953125
 10
1789.650390625
 20
-5109.001953125
 10
1799.6484375
 20
-5109.001953125
 10
1809.646484375
 20
-5109.001953125
 10
1819.64453125
 20
-5109.001953125
 10
1829.642578125
 20
-5109.001953125
 10
1839.640625
 20
-5109.001953125
 10
1849.638671875
 20
-5109.001953125
 10
1859.63671875
 20
-5109.001953125
 10
1869.634765625
 20
-5109.001953125
 10
1879.6328125
 20
-5109.001953125
 10
1889.630859375
 20
-5109.001953125
 10
1899.62890625
 20
-5109.001953125
 10
1909.626953125
 20
-5109.001953125
 10
1919.625
 20
-5109.001953125
 10
1929.623046875
 20
-5109.001953125
 10
1939.62109375
 20
-5109.001953125
 10
1949.619140625
 20
-5109.001953125
 10
1959.6171875
 20
-5109.001953125
 10
1969.615234375
 20
-5109.001953125
 10
1979.61328125
 20
-5109.001953125
 10
1989.611328125
 20
-5109.001953125
 10
1999.609375
 20
-5109.001953125
 10
2009.607421875
 20
-5109.001953125
 10
2019.60546875
 20
-5109.001953125
 10
2029.603515625
 20
-5109.001953125
 10
2039.6015625
 20
-5109.001953125
 10
2049.599609375
 20
-5109.001953125
 10
2059.59765625
 20
-5109.001953125
 10
2069.595703125
 20
-5109.001953125
 10
2079.59375
 20
-5109.001953125
 10
2089.591796875
 20
-5109.001953125
 10
2099.58984375
 20
-5109.001953125
 10
2109.587890625
 20
-5109.001953125
 10
2119.5859375
 20
-5109.001953125
 10
2129.583984375
 20
-5109.001953125
 10
2139.58203125
 20
-5109.001953125
 10
2149.580078125
 20
-5109.001953125
 10
2159.578125
 20
-5109.001953125
 10
2169.576171875
 20
-5109.001953125
 10
2179.57421875
 20
-5109.001953125
 10
2189.572265625
 20
-5109.001953125
 10
2199.5703125
 20
-5109.001953125
 10
2209.568359375
 20
-5109.001953125
 10
2219.56640625
 20
-5109.001953125
 10
2229.564453125
 20
-5109.001953125
 10
2239.5625
 20
-5109.001953125
 10
2249.560546875
 20
-5109.001953125
 10
2259.55859375
 20
-5109.001953125
 10
2269.556640625
 20
-5109.001953125
 10
2279.5546875
 20
-5109.001953125
 10
2289.552734375
 20
-5109.001953125
 10
2299.55078125
 20
-5109.001953125
 10
2309.548828125
 20
-5109.001953125
 10
2319.546875
 20
-5109.001953125
 10
2329.544921875
 20
-5109.001953125
 10
2339.54296875
 20
-5109.001953125
 10
2349.541015625
 20
-5109.001953125
 10
2359.5390625
 20
-5109.001953125
 10
2369.537109375
 20
-5109.001953125
 10
2379.53515625
 20
-5109.001953125
 10
2389.533203125
 20
-5109.001953125
 10
2399.53125
 20
-5109.001953125
 10
2409.529296875
 20
-5109.001953125
 10
2419.52734375
 20
-5109.001953125
 10
2429.525390625
 20
-5109.001953125
 10
2439.5234375
 20
-5109.001953125
 10
2449.521484375
 20
-5109.001953125
 10
2459.51953125
 20
-5109.001953125
 10
2469.517578125
 20
-5109.001953125
 10
2479.515625
 20
-5109.001953125
 10
2489.513671875
 20
-5109.001953125
 10
2499.51171875
 20
-5109.001953125
 10
2509.509765625
 20
-5109.001953125
 10
2519.5078125
 20
-5109.001953125
 10
2529.505859375
 20
-5109.001953125
 10
2539.50390625
 20
-5109.001953125
 10
2549.501953125
 20
-5109.001953125
 10
2559.5
 20
-5109.001953125
 10
2569.498046875
 20
-5109.001953125
 10
2579.49609375
 20
-5109.001953125
 10
2589.494140625
 20
-5109.001953125
 10
2599.4921875
 20
-5109.001953125
 10
2609.490234375
 20
-5109.001953125
 10
2619.48828125
 20
-5109.001953125
 10
2629.486328125
 20
-5109.001953125
 10
2639.484375
 20
-5109.001953125
 10
2649.482421875
 20
-5109.001953125
 10
2659.48046875
 20
-5109.001953125
 10
2669.478515625
 20
-5109.001953125
 10
2679.4765625
 20
-5109.001953125
 10
2689.474609375
 20
-5109.001953125
 10
2699.47265625
 20
-5109.001953125
 10
2709.470703125
 20
-5109.001953125
 10
2719.46875
 20
-5109.001953125
 10
2729.466796875
 20
-5109.001953125
 10
2739.46484375
 20
-5109.001953125
 10
2749.462890625
 20
-5109.001953125
 10
2759.4609375
 20
-5109.001953125
 10
2769.458984375
 20
-5109.001953125
 10
2779.45703125
 20
-5109.001953125
 10
2789.455078125
 20
-5109.001953125
 10
2799.453125
 20
-5109.001953125
 10
2809.451171875
 20
-5109.001953125
 10
2819.44921875
 20
-5109.001953125
 10
2829.447265625
 20
-5109.001953125
 10
2839.4453125
 20
-5109.001953125
 10
2849.443359375
 20
-5109.001953125
 10
2859.44140625
 20
-5109.001953125
 10
2869.439453125
 20
-5109.001953125
 10
2879.4375
 20
-5109.001953125
 10
2889.435546875
 20
-5109.001953125
 10
2899.43359375
 20
-5109.001953125
 10
2909.431640625
 20
-5109.001953125
 10
2919.4296875
 20
-5109.001953125
 10
2929.427734375
 20
-5109.001953125
 10
2939.42578125
 20
-5109.001953125
 10
2949.423828125
 20
-5109.001953125
 10
2959.421875
 20
-5109.001953125
 10
2969.419921875
 20
-5109.001953125
 10
2979.41796875
 20
-5109.001953125
 10
2989.416015625
 20
-5109.001953125
 10
2999.4140625
 20
-5109.001953125
 10
3009.412109375
 20
-5109.001953125
 10
3019.41015625
 20
-5109.001953125
 10
3029.408203125
 20
-5109.001953125
 10
3039.40625
 20
-5109.001953125
 10
3049.404296875
 20
-5109.001953125
 10
3059.40234375
 20
-5109.001953125
 10
3069.400390625
 20
-5109.001953125
 10
3079.3984375
 20
-5109.001953125
 10
3089.396484375
 20
-5109.001953125
 10
3099.39453125
 20
-5109.001953125
 10
3109.392578125
 20
-5109.001953125
 10
3119.390625
 20
-5109.001953125
 10
3129.388671875
 20
-5109.001953125
 10
3139.38671875
 20
-5109.001953125
 10
3149.384765625
 20
-5109.001953125
 10
3159.3828125
 20
-5109.001953125
 10
3169.380859375
 20
-5109.001953125
 10
3179.37890625
 20
-5109.001953125
 10
3189.376953125
 20
-5109.001953125
 10
3199.375
 20
-5109.001953125
 10
3209.373046875
 20
-5109.001953125
 10
3219.37109375
 20
-5109.001953125
 10
3229.369140625
 20
-5109.001953125
 10
3239.3671875
 20
-5109.001953125
 10
3249.365234375
 20
-5109.001953125
 10
3259.36328125
 20
-5109.001953125
 10
3269.361328125
 20
-5109.001953125
 10
3279.359375
 20
-5109.001953125
 10
3289.357421875
 20
-5109.001953125
 10
3299.35546875
 20
-5109.001953125
 10
3309.353515625
 20
-5109.001953125
 10
3319.3515625
 20
-5109.001953125
 10
3329.349609375
 20
-5109.001953125
 10
3339.34765625
 20
-5109.001953125
 10
3349.345703125
 20
-5109.001953125
 10
3359.34375
 20
-5109.001953125
 10
3369.341796875
 20
-5109.001953125
 10
3379.33984375
 20
-5109.001953125
 10
3389.337890625
 20
-5109.001953125
 10
3399.3359375
 20
-5109.001953125
 10
3409.333984375
 20
-5109.001953125
 10
3419.33203125
 20
-5109.001953125
 10
3429.330078125
 20
-5109.001953125
 10
3439.328125
 20
-5109.001953125
 10
3449.326171875
 20
-5109.001953125
 10
3459.32421875
 20
-5109.001953125
 10
3469.322265625
 20
-5109.001953125
 10
3479.3203125
 20
-5109.001953125
 10
3489.318359375
 20
-5109.001953125
 10
3499.31640625
 20
-5109.001953125
 10
3509.314453125
 20
-5109.001953125
 10
3519.3125
 20
-5109.001953125
 10
3529.310546875
 20
-5109.001953125
 10
3539.30859375
 20
-5109.001953125
 10
3549.306640625
 20
-5109.001953125
 10
3559.3046875
 20
-5109.001953125
 10
3569.302734375
 20
-5109.001953125
 10
3579.30078125
 20
-5109.001953125
 10
3589.298828125
 20
-5109.001953125
 10
3599.296875
 20
-5109.001953125
 10
3609.294921875
 20
-5109.001953125
 10
3619.29296875
 20
-5109.001953125
 10
3629.291015625
 20
-5109.001953125
 10
3639.2890625
 20
-5109.001953125
 10
3649.287109375
 20
-5109.001953125
 10
3659.28515625
 20
-5109.001953125
 10
3669.283203125
 20
-5109.001953125
 10
3679.28125
 20
-5109.001953125
 10
3689.279296875
 20
-5109.001953125
 10
3699.27734375
 20
-5109.001953125
 10
3709.275390625
 20
-5109.001953125
 10
3719.2734375
 20
-5109.001953125
 10
3729.271484375
 20
-5109.001953125
 10
3739.26953125
 20
-5109.001953125
 10
3749.267578125
 20
-5109.001953125
 10
3759.265625
 20
-5109.001953125
 10
3769.263671875
 20
-5109.001953125
 10
3779.26171875
 20
-5109.001953125
 10
3789.259765625
 20
-5109.001953125
 10
3799.2578125
 20
-5109.001953125
 10
3809.255859375
 20
-5109.001953125
 10
3819.25390625
 20
-5109.001953125
 10
3829.251953125
 20
-5109.001953125
 10
3839.25
 20
-5109.001953125
 10
3849.248046875
 20
-5109.001953125
 10
3859.24609375
 20
-5109.001953125
 10
3869.244140625
 20
-5109.001953125
 10
3879.2421875
 20
-5109.001953125
 10
3889.240234375
 20
-5109.001953125
 10
3899.23828125
 20
-5109.001953125
 10
3909.236328125
 20
-5109.001953125
 10
3919.234375
 20
-5109.001953125
 10
3929.232421875
 20
-5109.001953125
 10
3939.23046875
 20
-5109.001953125
 10
3949.228515625
 20
-5109.001953125
 10
3959.2265625
 20
-5109.001953125
 10
3969.224609375
 20
-5109.001953125
 10
3979.22265625
 20
-5109.001953125
 10
3989.220703125
 20
-5109.001953125
 10
3999.21875
 20
-5109.001953125
 10
4009.216796875
 20
-5109.001953125
 10
4019.21484375
 20
-5109.001953125
 10
4029.212890625
 20
-5109.001953125
 10
4039.2109375
 20
-5109.001953125
 10
4049.208984375
 20
-5109.001953125
 10
4059.20703125
 20
-5109.001953125
 10
4069.205078125
 20
-5109.001953125
 10
4079.203125
 20
-5109.001953125
 10
4089.201171875
 20
-5109.001953125
 10
4099.19921875
 20
-5109.001953125
 10
4109.197265625
 20
-5109.001953125
 10
4119.1953125
 20
-5109.001953125
 10
4129.193359375
 20
-5109.001953125
 10
4139.19140625
 20
-5109.001953125
 10
4149.189453125
 20
-5109.001953125
 10
4159.1875
 20
-5109.001953125
 10
4169.185546875
 20
-5109.001953125
 10
4179.18359375
 20
-5109.001953125
 10
4189.181640625
 20
-5109.001953125
 10
4199.1796875
 20
-5109.001953125
 10
4209.177734375
 20
-5109.001953125
 10
4219.17578125
 20
-5109.001953125
 10
4229.173828125
 20
-5109.001953125
 10
4239.171875
 20
-5109.001953125
 10
4249.169921875
 20
-5109.001953125
 10
4259.16796875
 20
-5109.001953125
 10
4269.166015625
 20
-5109.001953125
 10
4279.1640625
 20
-5109.001953125
 10
4289.162109375
 20
-5109.001953125
 10
4299.16015625
 20
-5109.001953125
 10
4309.158203125
 20
-5109.001953125
 10
4319.15625
 20
-5109.001953125
 10
4329.154296875
 20
-5109.001953125
 10
4339.15234375
 20
-5109.001953125
 10
4349.150390625
 20
-5109.001953125
 10
4359.1484375
 20
-5109.001953125
 10
4369.146484375
 20
-5109.001953125
 10
4379.14453125
 20
-5109.001953125
 10
4389.142578125
 20
-5109.001953125
 10
4399.140625
 20
-5109.001953125
 10
4409.138671875
 20
-5109.001953125
 10
4419.13671875
 20
-5109.001953125
 10
4429.134765625
 20
-5109.001953125
 10
4439.1328125
 20
-5109.001953125
 10
4449.130859375
 20
-5109.001953125
 10
4459.12890625
 20
-5109.001953125
 10
4469.126953125
 20
-5109.001953125
 10
4479.125
 20
-5109.001953125
 10
4489.123046875
 20
-5109.001953125
 10
4499.12109375
 20
-5109.001953125
 10
4509.119140625
 20
-5109.001953125
 10
4519.1171875
 20
-5109.001953125
 10
4529.115234375
 20
-5109.001953125
 10
4539.11328125
 20
-5109.001953125
 10
4549.111328125
 20
-5109.001953125
 10
4559.109375
 20
-5109.001953125
 10
4569.107421875
 20
-5109.001953125
 10
4579.10546875
 20
-5109.001953125
 10
4589.103515625
 20
-5109.001953125
 10
4599.1015625
 20
-5109.001953125
 10
4609.099609375
 20
-5109.001953125
 10
4619.09765625
 20
-5109.001953125
 10
4629.095703125
 20
-5109.001953125
 10
4639.09375
 20
-5109.001953125
 10
4649.091796875
 20
-5109.001953125
 10
4659.08984375
 20
-5109.001953125
 10
4669.087890625
 20
-5109.001953125
 10
4679.0859375
 20
-5109.001953125
 10
4689.083984375
 20
-5109.001953125
 10
4699.08203125
 20
-5109.001953125
 10
4709.080078125
 20
-5109.001953125
 10
4719.078125
 20
-5109.001953125
 10
4729.076171875
 20
-5109.001953125
 10
4739.07421875
 20
-5109.001953125
 10
4749.072265625
 20
-5109.001953125
 10
4759.0703125
 20
-5109.001953125
 10
4769.068359375
 20
-5109.001953125
 10
4779.06640625
 20
-5109.001953125
 10
4789.064453125
 20
-5109.001953125
 10
4799.0625
 20
-5109.001953125
 10
4809.060546875
 20
-5109.001953125
 10
4819.05859375
 20
-5109.001953125
 10
4829.056640625
 20
-5109.001953125
 10
4839.0546875
 20
-5109.001953125
 10
4849.052734375
 20
-5109.001953125
 10
4859.05078125
 20
-5109.001953125
 10
4869.048828125
 20
-5109.001953125
 10
4879.046875
 20
-5109.001953125
 10
4889.044921875
 20
-5109.001953125
 10
4899.04296875
 20
-5109.001953125
 10
4909.041015625
 20
-5109.001953125
 10
4919.0390625
 20
-5109.001953125
 10
4929.037109375
 20
-5109.001953125
 10
4939.03515625
 20
-5109.001953125
 10
4949.033203125
 20
-5109.001953125
 10
4959.03125
 20
-5109.001953125
 10
4969.029296875
 20
-5109.001953125
 10
4979.02734375
 20
-5109.001953125
 10
4989.025390625
 20
-5109.001953125
 10
4999.0234375
 20
-5109.001953125
 10
5009.021484375
 20
-5109.001953125
 10
5019.01953125
 20
-5109.001953125
 10
5029.017578125
 20
-5109.001953125
 10
5039.015625
 20
-5109.001953125
 10
5049.013671875
 20
-5109.001953125
 10
5059.01171875
 20
-5109.001953125
 10
5069.009765625
 20
-5109.001953125
 10
5079.0078125
 20
-5109.001953125
 10
5089.005859375
 20
-5109.001953125
 10
5099.00390625
 20
-5109.001953125
 10
5109.001953125
 20
-5109.001953125
 10
5109.001953125
 20
-5099.00390625
 10
5109.001953125
 20
-5089.005859375
 10
5109.001953125
 20
-5079.0078125
 10
5109.001953125
 20
-5069.009765625
 10
5109.001953125
 20
-5059.01171875
 10
5109.001953125
 20
-5049.013671875
 10
5109.001953125
 20
-5039.015625
 10
5109.001953125
 20
-5029.017578125
 10
5109.001953125
 20
-5019.01953125
 10
5109.001953125
 20
-5009.021484375
 10
5109.001953125
 20
-4999.0234375
 10
5109.001953125
 20
-4989.025390625
 10
5109.001953125
 20
-4979.02734375
 10
5109.001953125
 20
-4969.029296875
 10
5109.001953125
 20
-4959.03125
 10
5109.001953125
 20
-4949.033203125
 10
5109.001953125
 20
-4939.03515625
 10
5109.001953125
 20
-4929.037109375
 10
5109.001953125
 20
-4919.0390625
 10
5109.001953125
 20
-4909.041015625
 10
5109.001953125
 20
-4899.04296875
 10
5109.001953125
 20
-4889.044921875
 10
5109.001953125
 20
-4879.046875
 10
5109.001953125
 20
-4869.048828125
 10
5109.001953125
 20
-4859.05078125
 10
5109.001953125
 20
-4849.052734375
 10
5109.001953125
 20
-4839.0546875
 10
5109.001953125
 20
-4829.056640625
 10
5109.001953125
 20
-4819.05859375
 10
5109.001953125
 20
-4809.060546875
 10
5109.001953125
 20
-4799.0625
 10
5109.001953125
 20
-4789.064453125
 10
5109.001953125
 20
-4779.06640625
 10
5109.001953125
 20
-4769.068359375
 10
5109.001953125
 20
-4759.0703125
 10
5109.001953125
 20
-4749.072265625
 10
5109.001953125
 20
-4739.07421875
 10
5109.001953125
 20
-4729.076171875
 10
5109.001953125
 20
-4719.078125
 10
5109.001953125
 20
-4709.080078125
 10
5109.001953125
 20
-4699.08203125
 10
5109.001953125
 20
-4689.083984375
 10
5109.001953125
 20
-4679.0859375
 10
5109.001953125
 20
-4669.087890625
 10
5109.001953125
 20
-4659.08984375
 10
5109.001953125
 20
-4649.091796875
 10
5109.001953125
 20
-4639.09375
 10
5109.001953125
 20
-4629.095703125
 10
5109.001953125
 20
-4619.09765625
 10
5109.001953125
 20
-4609.099609375
 10
5109.001953125
 20
-4599.1015625
 10
5109.001953125
 20
-4589.103515625
 10
5109.001953125
 20
-4579.10546875
 10
5109.001953125
 20
-4569.107421875
 10
5109.001953125
 20
-4559.109375
 10
5109.001953125
 20
-4549.111328125
 10
5109.001953125
 20
-4539.11328125
 10
5109.001953125
 20
-4529.115234375
 10
5109.001953125
 20
-4519.1171875
 10
5109.001953125
 20
-4509.119140625
 10
5109.001953125
 20
-4499.12109375
 10
5109.001953125
 20
-4489.123046875
 10
5109.001953125
 20
-4479.125
 10
5109.001953125
 20
-4469.126953125
 10
5109.001953125
 20
-4459.12890625
 10
5109.001953125
 20
-4449.130859375
 10
5109.001953125
 20
-4439.1328125
 10
5109.001953125
 20
-4429.134765625
 10
5109.001953125
 20
-4419.13671875
 10
5109.001953125
 20
-4409.138671875
 10
5109.001953125
 20
-4399.140625
 10
5109.001953125
 20
-4389.142578125
 10
5109.001953125
 20
-4379.14453125
 10
5109.001953125
 20
-4369.146484375
 10
5109.001953125
 20
-4359.1484375
 10
5109.001953125
 20
-4349.150390625
 10
5109.001953125
 20
-4339.15234375
 10
5109.001953125
 20
-4329.154296875
 10
5109.001953125
 20
-4319.15625
 10
5109.001953125
 20
-4309.158203125
 10
5109.001953125
 20
-4299.16015625
 10
5109.001953125
 20
-4289.162109375
 10
5109.001953125
 20
-4279.1640625
 10
5109.001953125
 20
-4269.166015625
 10
5109.001953125
 20
-4259.16796875
 10
5109.001953125
 20
-4249.169921875
 10
5109.001953125
 20
-4239.171875
 10
5109.001953125
 20
-4229.173828125
 10
5109.001953125
 20
-4219.17578125
 10
5109.001953125
 20
-4209.177734375
 10
5109.001953125
 20
-4199.1796875
 10
5109.001953125
 20
-4189.181640625
 10
5109.001953125
 20
-4179.18359375
 10
5109.001953125
 20
-4169.185546875
 10
5109.001953125
 20
-4159.1875
 10
5109.001953125
 20
-4149.189453125
 10
5109.001953125
 20
-4139.19140625
 10
5109.001953125
 20
-4129.193359375
 10
5109.001953125
 20
-4119.1953125
 10
5109.001953125
 20
-4109.197265625
 10
5109.001953125
 20
-4099.19921875
 10
5109.001953125
 20
-4089.201171875
 10
5109.001953125
 20
-4079.203125
 10
5109.001953125
 20
-4069.205078125
 10
5109.001953125
 20
-4059.20703125
 10
5109.001953125
 20
-4049.208984375
 10
5109.001953125
 20
-4039.2109375
 10
5109.001953125
 20
-4029.212890625
 10
5109.001953125
 20
-4019.21484375
 10
5109.001953125
 20
-4009.216796875
 10
5109.001953125
 20
-3999.21875
 10
5109.001953125
 20
-3989.220703125
 10
5109.001953125
 20
-3979.22265625
 10
5109.001953125
 20
-3969.224609375
 10
5109.001953125
 20
-3959.2265625
 10
5109.001953125
 20
-3949.228515625
 10
5109.001953125
 20
-3939.23046875
 10
5109.001953125
 20
-3929.232421875
 10
5109.001953125
 20
-3919.234375
 10
5109.001953125
 20
-3909.236328125
 10
5109.001953125
 20
-3899.23828125
 10
5109.001953125
 20
-3889.240234375
 10
5109.001953125
 20
-3879.2421875
 10
5109.001953125
 20
-3869.244140625
 10
5109.001953125
 20
-3859.24609375
 10
5109.001953125
 20
-3849.248046875
 10
5109.001953125
 20
-3839.25
 10
5109.001953125
 20
-3829.251953125
 10
5109.001953125
 20
-3819.25390625
 10
5109.001953125
 20
-3809.255859375
 10
5109.001953125
 20
-3799.2578125
 10
5109.001953125
 20
-3789.259765625
 10
5109.001953125
 20
-3779.26171875
 10
5109.001953125
 20
-3769.263671875
 10
5109.001953125
 20
-3759.265625
 10
5109.001953125
 20
-3749.267578125
 10
5109.001953125
 20
-3739.26953125
 10
5109.001953125
 20
-3729.271484375
 10
5109.001953125
 20
-3719.2734375
 10
5109.001953125
 20
-3709.275390625
 10
5109.001953125
 20
-3699.27734375
 10
5109.001953125
 20
-3689.279296875
 10
5109.001953125
 20
-3679.28125
 10
5109.001953125
 20
-3669.283203125
 10
5109.001953125
 20
-3659.28515625
 10
5109.001953125
 20
-3649.287109375
 10
5109.001953125
 20
-3639.2890625
 10
5109.001953125
 20
-3629.291015625
 10
5109.001953125
 20
-3619.29296875
 10
5109.001953125
 20
-3609.294921875
 10
5109.001953125
 20
-3599.296875
 10
5109.001953125
 20
-3589.298828125
 10
5109.001953125
 20
-3579.30078125
 10
5109.001953125
 20
-3569.302734375
 10
5109.001953125
 20
-3559.3046875
 10
5109.001953125
 20
-3549.306640625
 10
5109.001953125
 20
-3539.30859375
 10
5109.001953125
 20
-3529.310546875
 10
5109.001953125
 20
-3519.3125
 10
5109.001953125
 20
-3509.314453125
 10
5109.001953125
 20
-3499.31640625
 10
5109.001953125
 20
-3489.318359375
 10
5109.001953125
 20
-3479.3203125
 10
5109.001953125
 20
-3469.322265625
 10
5109.001953125
 20
-3459.32421875
 10
5109.001953125
 20
-3449.326171875
 10
5109.001953125
 20
-3439.328125
 10
5109.001953125
 20
-3429.330078125
 10
5109.001953125
 20
-3419.33203125
 10
5109.001953125
 20
-3409.333984375
 10
5109.001953125
 20
-3399.3359375
 10
5109.001953125
 20
-3389.337890625
 10
5109.001953125
 20
-3379.33984375
 10
5109.001953125
 20
-3369.341796875
 10
5109.001953125
 20
-3359.34375
 10
5109.001953125
 20
-3349.345703125
 10
5109.001953125
 20
-3339.34765625
 10
5109.001953125
 20
-3329.349609375
 10
5109.001953125
 20
-3319.3515625
 10
5109.001953125
 20
-3309.353515625
 10
5109.001953125
 20
-3299.35546875
 10
5109.001953125
 20
-3289.357421875
 10
5109.001953125
 20
-3279.359375
 10
5109.001953125
 20
-3269.361328125
 10
5109.001953125
 20
-3259.36328125
 10
5109.001953125
 20
-3249.365234375
 10
5109.001953125
 20
-3239.3671875
 10
5109.001953125
 20
-3229.369140625
 10
5109.001953125
 20
-3219.37109375
 10
5109.001953125
 20
-3209.373046875
 10
5109.001953125
 20
-3199.375
 10
5109.001953125
 20
-3189.376953125
 10
5109.001953125
 20
-3179.37890625
 10
5109.001953125
 20
-3169.380859375
 10
5109.001953125
 20
-3159.3828125
 10
5109.001953125
 20
-3149.384765625
 10
5109.001953125
 20
-3139.38671875
 10
5109.001953125
 20
-3129.388671875
 10
5109.001953125
 20
-3119.390625
 10
5109.001953125
 20
-3109.392578125
 10
5109.001953125
 20
-3099.39453125
 10
5109.001953125
 20
-3089.396484375
 10
5109.001953125
 20
-3079.3984375
 10
5109.001953125
 20
-3069.400390625
 10
5109.001953125
 20
-3059.40234375
 10
5109.001953125
 20
-3049.404296875
 10
5109.001953125
 20
-3039.40625
 10
5109.001953125
 20
-3029.408203125
 10
5109.001953125
 20
-3019.41015625
 10
5109.001953125
 20
-3009.412109375
 10
5109.001953125
 20
-2999.4140625
 10
5109.001953125
 20
-2989.416015625
 10
5109.001953125
 20
-2979.41796875
 10
5109.001953125
 20
-2969.419921875
 10
5109.001953125
 20
-2959.421875
 10
5109.001953125
 20
-2949.423828125
 10
5109.001953125
 20
-2939.42578125
 10
5109.001953125
 20
-2929.427734375
 10
5109.001953125
 20
-2919.4296875
 10
5109.001953125
 20
-2909.431640625
 10
5109.001953125
 20
-2899.43359375
 10
5109.001953125
 20
-2889.435546875
 10
5109.001953125
 20
-2879.4375
 10
5109.001953125
 20
-2869.439453125
 10
5109.001953125
 20
-2859.44140625
 10
5109.001953125
 20
-2849.443359375
 10
5109.001953125
 20
-2839.4453125
 10
5109.001953125
 20
-2829.447265625
 10
5109.001953125
 20
-2819.44921875
 10
5109.001953125
 20
-2809.451171875
 10
5109.001953125
 20
-2799.453125
 10
5109.001953125
 20
-2789.455078125
 10
5109.001953125
 20
-2779.45703125
 10
5109.001953125
 20
-2769.458984375
 10
5109.001953125
 20
-2759.4609375
 10
5109.001953125
 20
-2749.462890625
 10
5109.001953125
 20
-2739.46484375
 10
5109.001953125
 20
-2729.466796875
 10
5109.001953125
 20
-2719.46875
 10
5109.001953125
 20
-2709.470703125
 10
5109.001953125
 20
-2699.47265625
 10
5109.001953125
 20
-2689.474609375
 10
5109.001953125
 20
-2679.4765625
 10
5109.001953125
 20
-2669.478515625
 10
5109.001953125
 20
-2659.48046875
 10
5109.001953125
 20
-2649.482421875
 10
5109.001953125
 20
-2639.484375
 10
5109.001953125
 20
-2629.486328125
 10
5109.001953125
 20
-2619.48828125
 10
5109.001953125
 20
-2609.490234375
 10
5109.001953125
 20
-2599.4921875
 10
5109.001953125
 20
-2589.494140625
 10
5109.001953125
 20
-2579.49609375
 10
5109.001953125
 20
-2569.498046875
 10
5109.001953125
 20
-2559.5
 10
5109.001953125
 20
-2549.501953125
 10
5109.001953125
 20
-2539.50390625
 10
5109.001953125
 20
-2529.505859375
 10
5109.001953125
 20
-2519.5078125
 10
5109.001953125
 20
-2509.509765625
 10
5109.001953125
 20
-2499.51171875
 10
5109.001953125
 20
-2489.513671875
 10
5109.001953125
 20
-2479.515625
 10
5109.001953125
 20
-2469.517578125
 10
5109.001953125
 20
-2459.51953125
 10
5109.001953125
 20
-2449.521484375
 10
5109.001953125
 20
-2439.5234375
 10
5109.001953125
 20
-2429.525390625
 10
5109.001953125
 20
-2419.52734375
 10
5109.001953125
 20
-2409.529296875
 10
5109.001953125
 20
-2399.53125
 10
5109.001953125
 20
-2389.533203125
 10
5109.001953125
 20
-2379.53515625
 10
5109.001953125
 20
-2369.537109375
 10
5109.001953125
 20
-2359.5390625
 10
5109.001953125
 20
-2349.541015625
 10
5109.001953125
 20
-2339.54296875
 10
5109.001953125
 20
-2329.544921875
 10
5109.001953125
 20
-2319.546875
 10
5109.001953125
 20
-2309.548828125
 10
5109.001953125
 20
-2299.55078125
 10
5109.001953125
 20
-2289.552734375
 10
5109.001953125
 20
-2279.5546875
 10
5109.001953125
 20
-2269.556640625
 10
5109.001953125
 20
-2259.55859375
 10
5109.001953125
 20
-2249.560546875
 10
5109.001953125
 20
-2239.5625
 10
5109.001953125
 20
-2229.564453125
 10
5109.001953125
 20
-2219.56640625
 10
5109.001953125
 20
-2209.568359375
 10
5109.001953125
 20
-2199.5703125
 10
5109.001953125
 20
-2189.572265625
 10
5109.001953125
 20
-2179.57421875
 10
5109.001953125
 20
-2169.576171875
 10
5109.001953125
 20
-2159.578125
 10
5109.001953125
 20
-2149.580078125
 10
5109.001953125
 20
-2139.58203125
 10
5109.001953125
 20
-2129.583984375
 10
5109.001953125
 20
-2119.5859375
 10
5109.001953125
 20
-2109.587890625
 10
5109.001953125
 20
-2099.58984375
 10
5109.001953125
 20
-2089.591796875
 10
5109.001953125
 20
-2079.59375
 10
5109.001953125
 20
-2069.595703125
 10
5109.001953125
 20
-2059.59765625
 10
5109.001953125
 20
-2049.599609375
 10
5109.001953125
 20
-2039.6015625
 10
5109.001953125
 20
-2029.603515625
 10
5109.001953125
 20
-2019.60546875
 10
5109.001953125
 20
-2009.607421875
 10
5109.001953125
 20
-1999.609375
 10
5109.001953125
 20
-1989.611328125
 10
5109.001953125
 20
-1979.61328125
 10
5109.001953125
 20
-1969.615234375
 10
5109.001953125
 20
-1959.6171875
 10
5109.001953125
 20
-1949.619140625
 10
5109.001953125
 20
-1939.62109375
 10
5109.001953125
 20
-1929.623046875
 10
5109.001953125
 20
-1919.625
 10
5109.001953125
 20
-1909.626953125
 10
5109.001953125
 20
-1899.62890625
 10
5109.001953125
 20
-1889.630859375
 10
5109.001953125
 20
-1879.6328125
 10
5109.001953125
 20
-1869.634765625
 10
5109.001953125
 20
-1859.63671875
 10
5109.001953125
 20
-1849.638671875
 10
5109.001953125
 20
-1839.640625
 10
5109.001953125
 20
-1829.642578125
 10
5109.001953125
 20
-1819.64453125
 10
5109.001953125
 20
-1809.646484375
 10
5109.001953125
 20
-1799.6484375
 10
5109.001953125
 20
-1789.650390625
 10
5109.001953125
 20
-1779.65234375
 10
5109.001953125
 20
-1769.654296875
 10
5109.001953125
 20
-1759.65625
 10
5109.001953125
 20
-1749.658203125
 10
5109.001953125
 20
-1739.66015625
 10
5109.001953125
 20
-1729.662109375
 10
5109.001953125
 20
-1719.6640625
 10
5109.001953125
 20
-1709.666015625
 10
5109.001953125
 20
-1699.66796875
 10
5109.001953125
 20
-1689.669921875
 10
5109.001953125
 20
-1679.671875
 10
5109.001953125
 20
-1669.673828125
 10
5109.001953125
 20
-1659.67578125
 10
5109.001953125
 20
-1649.677734375
 10
5109.001953125
 20
-1639.6796875
 10
5109.001953125
 20
-1629.681640625
 10
5109.001953125
 20
-1619.68359375
 10
5109.001953125
 20
-1609.685546875
 10
5109.001953125
 20
-1599.6875
 10
5109.001953125
 20
-1589.689453125
 10
5109.001953125
 20
-1579.69140625
 10
5109.001953125
 20
-1569.693359375
 10
5109.001953125
 20
-1559.6953125
 10
5109.001953125
 20
-1549.697265625
 10
5109.001953125
 20
-1539.69921875
 10
5109.001953125
 20
-1529.701171875
 10
5109.001953125
 20
-1519.703125
 10
5109.001953125
 20
-1509.705078125
 10
5109.001953125
 20
-1499.70703125
 10
5109.001953125
 20
-1489.708984375
 10
5109.001953125
 20
-1479.7109375
 10
5109.001953125
 20
-1469.712890625
 10
5109.001953125
 20
-1459.71484375
 10
5109.001953125
 20
-1449.716796875
 10
5109.001953125
 20
-1439.71875
 10
5109.001953125
 20
-1429.720703125
 10
5109.001953125
 20
-1419.72265625
 10
5109.001953125
 20
-1409.724609375
 10
5109.001953125
 20
-1399.7265625
 10
5109.001953125
 20
-1389.728515625
 10
5109.001953125
 20
-1379.73046875
 10
5109.001953125
 20
-1369.732421875
 10
5109.001953125
 20
-1359.734375
 10
5109.001953125
 20
-1349.736328125
 10
5109.001953125
 20
-1339.73828125
 10
5109.001953125
 20
-1329.740234375
 10
5109.001953125
 20
-1319.7421875
 10
5109.001953125
 20
-1309.744140625
 10
5109.001953125
 20
-1299.74609375
 10
5109.001953125
 20
-1289.748046875
 10
5109.001953125
 20
-1279.75
 10
5109.001953125
 20
-1269.751953125
 10
5109.001953125
 20
-1259.75390625
 10
5109.001953125
 20
-1249.755859375
 10
5109.001953125
 20
-1239.7578125
 10
5109.001953125
 20
-1229.759765625
 10
5109.001953125
 20
-1219.76171875
 10
5109.001953125
 20
-1209.763671875
 10
5109.001953125
 20
-1199.765625
 10
5109.001953125
 20
-1189.767578125
 10
5109.001953125
 20
-1179.76953125
 10
5109.001953125
 20
-1169.771484375
 10
5109.001953125
 20
-1159.7734375
 10
5109.001953125
 20
-1149.775390625
 10
5109.001953125
 20
-1139.77734375
 10
5109.001953125
 20
-1129.779296875
 10
5109.001953125
 20
-1119.78125
 10
5109.001953125
 20
-1109.783203125
 10
5109.001953125
 20
-1099.78515625
 10
5109.001953125
 20
-1089.787109375
 10
5109.001953125
 20
-1079.7890625
 10
5109.001953125
 20
-1069.791015625
 10
5109.001953125
 20
-1059.79296875
 10
5109.001953125
 20
-1049.794921875
 10
5109.001953125
 20
-1039.796875
 10
5109.001953125
 20
-1029.798828125
 10
5109.001953125
 20
-1019.80078125
 10
5109.001953125
 20
-1009.802734375
 10
5109.001953125
 20
-999.8046875
 10
5109.001953125
 20
-989.806640625
 10
5109.001953125
 20
-979.80859375
 10
5109.001953125
 20
-969.810546875
 10
5109.001953125
 20
-959.8125
 10
5109.001953125
 20
-949.814453125
 10
5109.001953125
 20
-939.81640625
 10
5109.001953125
 20
-929.818359375
 10
5109.001953125
 20
-919.8203125
 10
5109.001953125
 20
-909.822265625
 10
5109.001953125
 20
-899.82421875
 10
5109.001953125
 20
-889.826171875
 10
5109.001953125
 20
-879.828125
 10
5109.001953125
 20
-869.830078125
 10
5109.001953125
 20
-859.83203125
 10
5109.001953125
 20
-849.833984375
 10
5109.001953125
 20
-839.8359375
 10
5109.001953125
 20
-829.837890625
 10
5109.001953125
 20
-819.83984375
 10
5109.001953125
 20
-809.841796875
 10
5109.001953125
 20
-799.84375
 10
5109.001953125
 20
-789.845703125
 10
5109.001953125
 20
-779.84765625
 10
5109.001953125
 20
-769.849609375
 10
5109.001953125
 20
-759.8515625
 10
5109.001953125
 20
-749.853515625
 10
5109.001953125
 20
-739.85546875
 10
5109.001953125
 20
-729.857421875
 10
5109.001953125
 20
-719.859375
 10
5109.001953125
 20
-709.861328125
 10
5109.001953125
 20
-699.86328125
 10
5109.001953125
 20
-689.865234375
 10
5109.001953125
 20
-679.8671875
 10
5109.001953125
 20
-669.869140625
 10
5109.001953125
 20
-659.87109375
 10
5109.001953125
 20
-649.873046875
 10
5109.001953125
 20
-639.875
 10
5109.001953125
 20
-629.876953125
 10
5109.001953125
 20
-619.87890625
 10
5109.001953125
 20
-609.880859375
 10
5109.001953125
 20
-599.8828125
 10
5109.001953125
 20
-589.884765625
 10
5109.001953125
 20
-579.88671875
 10
5109.001953125
 20
-569.888671875
 10
5109.001953125
 20
-559.890625
 10
5109.001953125
 20
-549.892578125
 10
5109.001953125
 20
-539.89453125
 10
5109.001953125
 20
-529.896484375
 10
5109.001953125
 20
-519.8984375
 10
5109.001953125
 20
-509.900390625
 10
5109.001953125
 20
-499.90234375
 10
5109.001953125
 20
-489.904296875
 10
5109.001953125
 20
-479.90625
 10
5109.001953125
 20
-469.908203125
 10
5109.001953125
 20
-459.91015625
 10
5109.001953125
 20
-449.912109375
 10
5109.001953125
 20
-439.9140625
 10
5109.001953125
 20
-429.916015625
 10
5109.001953125
 20
-419.91796875
 10
5109.001953125
 20
-409.919921875
 10
5109.001953125
 20
-399.921875
 10
5109.001953125
 20
-389.923828125
 10
5109.001953125
 20
-379.92578125
 10
5109.001953125
 20
-369.927734375
 10
5109.001953125
 20
-359.9296875
 10
5109.001953125
 20
-349.931640625
 10
5109.001953125
 20
-339.93359375
 10
5109.001953125
 20
-329.935546875
 10
5109.001953125
 20
-319.9375
 10
5109.001953125
 20
-309.939453125
 10
5109.001953125
 20
-299.94140625
 10
5109.001953125
 20
-289.943359375
 10
5109.001953125
 20
-279.9453125
 10
5109.001953125
 20
-269.947265625
 10
5109.001953125
 20
-259.94921875
 10
5109.001953125
 20
-249.951171875
 10
5109.001953125
 20
-239.953125
 10
5109.001953125
 20
-229.955078125
 10
5109.001953125
 20
-219.95703125
 10
5109.001953125
 20
-209.958984375
 10
5109.001953125
 20
-199.9609375
 10
5109.001953125
 20
-189.962890625
 10
5109.001953125
 20
-179.96484375
 10
5109.001953125
 20
-169.966796875
 10
5109.001953125
 20
-159.96875
 10
5109.001953125
 20
-149.970703125
 10
5109.001953125
 20
-139.97265625
 10
5109.001953125
 20
-129.974609375
 10
5109.001953125
 20
-119.9765625
 10
5109.001953125
 20
-109.978515625
 10
5109.001953125
 20
-99.98046875
 10
5109.001953125
 20
-89.982421875
 10
5109.001953125
 20
-79.984375
 10
5109.001953125
 20
-69.986328125
 10
5109.001953125
 20
-59.98828125
 10
5109.001953125
 20
-49.990234375
 10
5109.001953125
 20
-39.9921875
 10
5109.001953125
 20
-29.994140625
 10
5109.001953125
 20
-19.99609375
 10
5109.001953125
 20
-9.998046875
 10
5109.001953125
 20
-0.0
 10
5099.00390625
 20
-0.0
 10
5089.005859375
 20
-0.0
 10
5079.0078125
 20
-0.0
 10
5069.009765625
 20
-0.0
 10
5059.01171875
 20
-0.0
 10
5049.013671875
 20
-0.0
 10
5039.015625
 20
-0.0
 10
5029.017578125
 20
-0.0
 10
5019.01953125
 20
-0.0
 10
5009.021484375
 20
-0.0
 10
4999.0234375
 20
-0.0
 10
4989.025390625
 20
-0.0
 10
4979.02734375
 20
-0.0
 10
4969.029296875
 20
-0.0
 10
4959.03125
 20
-0.0
 10
4949.033203125
 20
-0.0
 10
4939.03515625
 20
-0.0
 10
4929.037109375
 20
-0.0
 10
4919.0390625
 20
-0.0
 10
4909.041015625
 20
-0.0
 10
4899.04296875
 20
-0.0
 10
4889.044921875
 20
-0.0
 10
4879.046875
 20
-0.0
 10
4869.048828125
 20
-0.0
 10
4859.05078125
 20
-0.0
 10
4849.052734375
 20
-0.0
 10
4839.0546875
 20
-0.0
 10
4829.056640625
 20
-0.0
 10
4819.05859375
 20
-0.0
 10
4809.060546875
 20
-0.0
 10
4799.0625
 20
-0.0
 10
4789.064453125
 20
-0.0
 10
4779.06640625
 20
-0.0
 10
4769.068359375
 20
-0.0
 10
4759.0703125
 20
-0.0
 10
4749.072265625
 20
-0.0
 10
4739.07421875
 20
-0.0
 10
4729.076171875
 20
-0.0
 10
4719.078125
 20
-0.0
 10
4709.080078125
 20
-0.0
 10
4699.08203125
 20
-0.0
 10
4689.083984375
 20
-0.0
 10
4679.0859375
 20
-0.0
 10
4669.087890625
 20
-0.0
 10
4659.08984375
 20
-0.0
 10
4649.091796875
 20
-0.0
 10
4639.09375
 20
-0.0
 10
4629.095703125
 20
-0.0
 10
4619.09765625
 20
-0.0
 10
4609.099609375
 20
-0.0
 10
4599.1015625
 20
-0.0
 10
4589.103515625
 20
-0.0
 10
4579.10546875
 20
-0.0
 10
4569.107421875
 20
-0.0
 10
4559.109375
 20
-0.0
 10
4549.111328125
 20
-0.0
 10
4539.11328125
 20
-0.0
 10
4529.115234375
 20
-0.0
 10
4519.1171875
 20
-0.0
 10
4509.119140625
 20
-0.0
 10
4499.12109375
 20
-0.0
 10
4489.123046875
 20
-0.0
 10
4479.125
 20
-0.0
 10
4469.126953125
 20
-0.0
 10
4459.12890625
 20
-0.0
 10
4449.130859375
 20
-0.0
 10
4439.1328125
 20
-0.0
 10
4429.134765625
 20
-0.0
 10
4419.13671875
 20
-0.0
 10
4409.138671875
 20
-0.0
 10
4399.140625
 20
-0.0
 10
4389.142578125
 20
-0.0
 10
4379.14453125
 20
-0.0
 10
4369.146484375
 20
-0.0
 10
4359.1484375
 20
-0.0
 10
4349.150390625
 20
-0.0
 10
4339.15234375
 20
-0.0
 10
4329.154296875
 20
-0.0
 10
4319.15625
 20
-0.0
 10
4309.158203125
 20
-0.0
 10
4299.16015625
 20
-0.0
 10
4289.162109375
 20
-0.0
 10
4279.1640625
 20
-0.0
 10
4269.166015625
 20
-0.0
 10
4259.16796875
 20
-0.0
 10
4249.169921875
 20
-0.0
 10
4239.171875
 20
-0.0
 10
4229.173828125
 20
-0.0
 10
4219.17578125
 20
-0.0
 10
4209.177734375
 20
-0.0
 10
4199.1796875
 20
-0.0
 10
4189.181640625
 20
-0.0
 10
4179.18359375
 20
-0.0
 10
4169.185546875
 20
-0.0
 10
4159.1875
 20
-0.0
 10
4149.189453125
 20
-0.0
 10
4139.19140625
 20
-0.0
 10
4129.193359375
 20
-0.0
 10
4119.1953125
 20
-0.0
 10
4109.197265625
 20
-0.0
 10
4099.19921875
 20
-0.0
 10
4089.201171875
 20
-0.0
 10
4079.203125
 20
-0.0
 10
4069.205078125
 20
-0.0
 10
4059.20703125
 20
-0.0
 10
4049.208984375
 20
-0.0
 10
4039.2109375
 20
-0.0
 10
4029.212890625
 20
-0.0
 10
4019.21484375
 20
-0.0
 10
4009.216796875
 20
-0.0
 10
3999.21875
 20
-0.0
 10
3989.220703125
 20
-0.0
 10
3979.22265625
 20
-0.0
 10
3969.224609375
 20
-0.0
 10
3959.2265625
 20
-0.0
 10
3949.228515625
 20
-0.0
 10
3939.23046875
 20
-0.0
 10
3929.232421875
 20
-0.0
 10
3919.234375
 20
-0.0
 10
3909.236328125
 20
-0.0
 10
3899.23828125
 20
-0.0
 10
3889.240234375
 20
-0.0
 10
3879.2421875
 20
-0.0
 10
3869.244140625
 20
-0.0
 10
3859.24609375
 20
-0.0
 10
3849.248046875
 20
-0.0
 10
3839.25
 20
-0.0
 10
3829.251953125
 20
-0.0
 10
3819.25390625
 20
-0.0
 10
3809.255859375
 20
-0.0
 10
3799.2578125
 20
-0.0
 10
3789.259765625
 20
-0.0
 10
3779.26171875
 20
-0.0
 10
3769.263671875
 20
-0.0
 10
3759.265625
 20
-0.0
 10
3749.267578125
 20
-0.0
 10
3739.26953125
 20
-0.0
 10
3729.271484375
 20
-0.0
 10
3719.2734375
 20
-0.0
 10
3709.275390625
 20
-0.0
 10
3699.27734375
 20
-0.0
 10
3689.279296875
 20
-0.0
 10
3679.28125
 20
-0.0
 10
3669.283203125
 20
-0.0
 10
3659.28515625
 20
-0.0
 10
3649.287109375
 20
-0.0
 10
3639.2890625
 20
-0.0
 10
3629.291015625
 20
-0.0
 10
3619.29296875
 20
-0.0
 10
3609.294921875
 20
-0.0
 10
3599.296875
 20
-0.0
 10
3589.298828125
 20
-0.0
 10
3579.30078125
 20
-0.0
 10
3569.302734375
 20
-0.0
 10
3559.3046875
 20
-0.0
 10
3549.306640625
 20
-0.0
 10
3539.30859375
 20
-0.0
 10
3529.310546875
 20
-0.0
 10
3519.3125
 20
-0.0
 10
3509.314453125
 20
-0.0
 10
3499.31640625
 20
-0.0
 10
3489.318359375
 20
-0.0
 10
3479.3203125
 20
-0.0
 10
3469.322265625
 20
-0.0
 10
3459.32421875
 20
-0.0
 10
3449.326171875
 20
-0.0
 10
3439.328125
 20
-0.0
 10
3429.330078125
 20
-0.0
 10
3419.33203125
 20
-0.0
 10
3409.333984375
 20
-0.0
 10
3399.3359375
 20
-0.0
 10
3389.337890625
 20
-0.0
 10
3379.33984375
 20
-0.0
 10
3369.341796875
 20
-0.0
 10
3359.34375
 20
-0.0
 10
3349.345703125
 20
-0.0
 10
3339.34765625
 20
-0.0
 10
3329.349609375
 20
-0.0
 10
3319.3515625
 20
-0.0
 10
3309.353515625
 20
-0.0
 10
3299.35546875
 20
-0.0
 10
3289.357421875
 20
-0.0
 10
3279.359375
 20
-0.0
 10
3269.361328125
 20
-0.0
 10
3259.36328125
 20
-0.0
 10
3249.365234375
 20
-0.0
 10
3239.3671875
 20
-0.0
 10
3229.369140625
 20
-0.0
 10
3219.37109375
 20
-0.0
 10
3209.373046875
 20
-0.0
 10
3199.375
 20
-0.0
 10
3189.376953125
 20
-0.0
 10
3179.37890625
 20
-0.0
 10
3169.380859375
 20
-0.0
 10
3159.3828125
 20
-0.0
 10
3149.384765625
 20
-0.0
 10
3139.38671875
 20
-0.0
 10
3129.388671875
 20
-0.0
 10
3119.390625
 20
-0.0
 10
3109.392578125
 20
-0.0
 10
3099.39453125
 20
-0.0
 10
3089.396484375
 20
-0.0
 10
3079.3984375
 20
-0.0
 10
3069.400390625
 20
-0.0
 10
3059.40234375
 20
-0.0
 10
3049.404296875
 20
-0.0
 10
3039.40625
 20
-0.0
 10
3029.408203125
 20
-0.0
 10
3019.41015625
 20
-0.0
 10
3009.412109375
 20
-0.0
 10
2999.4140625
 20
-0.0
 10
2989.416015625
 20
-0.0
 10
2979.41796875
 20
-0.0
 10
2969.419921875
 20
-0.0
 10
2959.421875
 20
-0.0
 10
2949.423828125
 20
-0.0
 10
2939.42578125
 20
-0.0
 10
2929.427734375
 20
-0.0
 10
2919.4296875
 20
-0.0
 10
2909.431640625
 20
-0.0
 10
2899.43359375
 20
-0.0
 10
2889.435546875
 20
-0.0
 10
2879.4375
 20
-0.0
 10
2869.439453125
 20
-0.0
 10
2859.44140625
 20
-0.0
 10
2849.443359375
 20
-0.0
 10
2839.4453125
 20
-0.0
 10
2829.447265625
 20
-0.0
 10
2819.44921875
 20
-0.0
 10
2809.451171875
 20
-0.0
 10
2799.453125
 20
-0.0
 10
2789.455078125
 20
-0.0
 10
2779.45703125
 20
-0.0
 10
2769.458984375
 20
-0.0
 10
2759.4609375
 20
-0.0
 10
2749.462890625
 20
-0.0
 10
2739.46484375
 20
-0.0
 10
2729.466796875
 20
-0.0
 10
2719.46875
 20
-0.0
 10
2709.470703125
 20
-0.0
 10
2699.47265625
 20
-0.0
 10
2689.474609375
 20
-0.0
 10
2679.4765625
 20
-0.0
 10
2669.478515625
 20
-0.0
 10
2659.48046875
 20
-0.0
 10
2649.482421875
 20
-0.0
 10
2639.484375
 20
-0.0
 10
2629.486328125
 20
-0.0
 10
2619.48828125
 20
-0.0
 10
2609.490234375
 20
-0.0
 10
2599.4921875
 20
-0.0
 10
2589.494140625
 20
-0.0
 10
2579.49609375
 20
-0.0
 10
2569.498046875
 20
-0.0
 10
2559.5
 20
-0.0
 10
2549.501953125
 20
-0.0
 10
2539.50390625
 20
-0.0
 10
2529.505859375
 20
-0.0
 10
2519.5078125
 20
-0.0
 10
2509.509765625
 20
-0.0
 10
2499.51171875
 20
-0.0
 10
2489.513671875
 20
-0.0
 10
2479.515625
 20
-0.0
 10
2469.517578125
 20
-0.0
 10
2459.51953125
 20
-0.0
 10
2449.521484375
 20
-0.0
 10
2439.5234375
 20
-0.0
 10
2429.525390625
 20
-0.0
 10
2419.52734375
 20
-0.0
 10
2409.529296875
 20
-0.0
 10
2399.53125
 20
-0.0
 10
2389.533203125
 20
-0.0
 10
2379.53515625
 20
-0.0
 10
2369.537109375
 20
-0.0
 10
2359.5390625
 20
-0.0
 10
2349.541015625
 20
-0.0
 10
2339.54296875
 20
-0.0
 10
2329.544921875
 20
-0.0
 10
2319.546875
 20
-0.0
 10
2309.548828125
 20
-0.0
 10
2299.55078125
 20
-0.0
 10
2289.552734375
 20
-0.0
 10
2279.5546875
 20
-0.0
 10
2269.556640625
 20
-0.0
 10
2259.55859375
 20
-0.0
 10
2249.560546875
 20
-0.0
 10
2239.5625
 20
-0.0
 10
2229.564453125
 20
-0.0
 10
2219.56640625
 20
-0.0
 10
2209.568359375
 20
-0.0
 10
2199.5703125
 20
-0.0
 10
2189.572265625
 20
-0.0
 10
2179.57421875
 20
-0.0
 10
2169.576171875
 20
-0.0
 10
2159.578125
 20
-0.0
 10
2149.580078125
 20
-0.0
 10
2139.58203125
 20
-0.0
 10
2129.583984375
 20
-0.0
 10
2119.5859375
 20
-0.0
 10
2109.587890625
 20
-0.0
 10
2099.58984375
 20
-0.0
 10
2089.591796875
 20
-0.0
 10
2079.59375
 20
-0.0
 10
2069.595703125
 20
-0.0
 10
2059.59765625
 20
-0.0
 10
2049.599609375
 20
-0.0
 10
2039.6015625
 20
-0.0
 10
2029.603515625
 20
-0.0
 10
2019.60546875
 20
-0.0
 10
2009.607421875
 20
-0.0
 10
1999.609375
 20
-0.0
 10
1989.611328125
 20
-0.0
 10
1979.61328125
 20
-0.0
 10
1969.615234375
 20
-0.0
 10
1959.6171875
 20
-0.0
 10
1949.619140625
 20
-0.0
 10
1939.62109375
 20
-0.0
 10
1929.623046875
 20
-0.0
 10
1919.625
 20
-0.0
 10
1909.626953125
 20
-0.0
 10
1899.62890625
 20
-0.0
 10
1889.630859375
 20
-0.0
 10
1879.6328125
 20
-0.0
 10
1869.634765625
 20
-0.0
 10
1859.63671875
 20
-0.0
 10
1849.638671875
 20
-0.0
 10
1839.640625
 20
-0.0
 10
1829.642578125
 20
-0.0
 10
1819.64453125
 20
-0.0
 10
1809.646484375
 20
-0.0
 10
1799.6484375
 20
-0.0
 10
1789.650390625
 20
-0.0
 10
1779.65234375
 20
-0.0
 10
1769.654296875
 20
-0.0
 10
1759.65625
 20
-0.0
 10
1749.658203125
 20
-0.0
 10
1739.66015625
 20
-0.0
 10
1729.662109375
 20
-0.0
 10
1719.6640625
 20
-0.0
 10
1709.666015625
 20
-0.0
 10
1699.66796875
 20
-0.0
 10
1689.669921875
 20
-0.0
 10
1679.671875
 20
-0.0
 10
1669.673828125
 20
-0.0
 10
1659.67578125
 20
-0.0
 10
1649.677734375
 20
-0.0
 10
1639.6796875
 20
-0.0
 10
1629.681640625
 20
-0.0
 10
1619.68359375
 20
-0.0
 10
1609.685546875
 20
-0.0
 10
1599.6875
 20
-0.0
 10
1589.689453125
 20
-0.0
 10
1579.69140625
 20
-0.0
 10
1569.693359375
 20
-0.0
 10
1559.6953125
 20
-0.0
 10
1549.697265625
 20
-0.0
 10
1539.69921875
 20
-0.0
 10
1529.701171875
 20
-0.0
 10
1519.703125
 20
-0.0
 10
1509.705078125
 20
-0.0
 10
1499.70703125
 20
-0.0
 10
1489.708984375
 20
-0.0
 10
1479.7109375
 20
-0.0
 10
1469.712890625
 20
-0.0
 10
1459.71484375
 20
-0.0
 10
1449.716796875
 20
-0.0
 10
1439.71875
 20
-0.0
 10
1429.720703125
 20
-0.0
 10
1419.72265625
 20
-0.0
 10
1409.724609375
 20
-0.0
 10
1399.7265625
 20
-0.0
 10
1389.728515625
 20
-0.0
 10
1379.73046875
 20
-0.0
 10
1369.732421875
 20
-0.0
 10
1359.734375
 20
-0.0
 10
1349.736328125
 20
-0.0
 10
1339.73828125
 20
-0.0
 10
1329.740234375
 20
-0.0
 10
1319.7421875
 20
-0.0
 10
1309.744140625
 20
-0.0
 10
1299.74609375
 20
-0.0
 10
1289.748046875
 20
-0.0
 10
1279.75
 20
-0.0
 10
1269.751953125
 20
-0.0
 10
1259.75390625
 20
-0.0
 10
1249.755859375
 20
-0.0
 10
1239.7578125
 20
-0.0
 10
1229.759765625
 20
-0.0
 10
1219.76171875
 20
-0.0
 10
1209.763671875
 20
-0.0
 10
1199.765625
 20
-0.0
 10
1189.767578125
 20
-0.0
 10
1179.76953125
 20
-0.0
 10
1169.771484375
 20
-0.0
 10
1159.7734375
 20
-0.0
 10
1149.775390625
 20
-0.0
 10
1139.77734375
 20
-0.0
 10
1129.779296875
 20
-0.0
 10
1119.78125
 20
-0.0
 10
1109.783203125
 20
-0.0
 10
1099.78515625
 20
-0.0
 10
1089.787109375
 20
-0.0
 10
1079.7890625
 20
-0.0
 10
1069.791015625
 20
-0.0
 10
1059.79296875
 20
-0.0
 10
1049.794921875
 20
-0.0
 10
1039.796875
 20
-0.0
 10
1029.798828125
 20
-0.0
 10
1019.80078125
 20
-0.0
 10
1009.802734375
 20
-0.0
 10
999.8046875
 20
-0.0
 10
989.806640625
 20
-0.0
 10
979.80859375
 20
-0.0
 10
969.810546875
 20
-0.0
 10
959.8125
 20
-0.0
 10
949.814453125
 20
-0.0
 10
939.81640625
 20
-0.0
 10
929.818359375
 20
-0.0
 10
919.8203125
 20
-0.0
 10
909.822265625
 20
-0.0
 10
899.82421875
 20
-0.0
 10
889.826171875
 20
-0.0
 10
879.828125
 20
-0.0
 10
869.830078125
 20
-0.0
 10
859.83203125
 20
-0.0
 10
849.833984375
 20
-0.0
 10
839.8359375
 20
-0.0
 10
829.837890625
 20
-0.0
 10
819.83984375
 20
-0.0
 10
809.841796875
 20
-0.0
 10
799.84375
 20
-0.0
 10
789.845703125
 20
-0.0
 10
779.84765625
 20
-0.0
 10
769.849609375
 20
-0.0
 10
759.8515625
 20
-0.0
 10
749.853515625
 20
-0.0
 10
739.85546875
 20
-0.0
 10
729.857421875
 20
-0.0
 10
719.859375
 20
-0.0
 10
709.861328125
 20
-0.0
 10
699.86328125
 20
-0.0
 10
689.865234375
 20
-0.0
 10
679.8671875
 20
-0.0
 10
669.869140625
 20
-0.0
 10
659.87109375
 20
-0.0
 10
649.873046875
 20
-0.0
 10
639.875
 20
-0.0
 10
629.876953125
 20
-0.0
 10
619.87890625
 20
-0.0
 10
609.880859375
 20
-0.0
 10
599.8828125
 20
-0.0
 10
589.884765625
 20
-0.0
 10
579.88671875
 20
-0.0
 10
569.888671875
 20
-0.0
 10
559.890625
 20
-0.0
 10
549.892578125
 20
-0.0
 10
539.89453125
 20
-0.0
 10
529.896484375
 20
-0.0
 10
519.8984375
 20
-0.0
 10
509.900390625
 20
-0.0
 10
499.90234375
 20
-0.0
 10
489.904296875
 20
-0.0
 10
479.90625
 20
-0.0
 10
469.908203125
 20
-0.0
 10
459.91015625
 20
-0.0
 10
449.912109375
 20
-0.0
 10
439.9140625
 20
-0.0
 10
429.916015625
 20
-0.0
 10
419.91796875
 20
-0.0
 10
409.919921875
 20
-0.0
 10
399.921875
 20
-0.0
 10
389.923828125
 20
-0.0
 10
379.92578125
 20
-0.0
 10
369.927734375
 20
-0.0
 10
359.9296875
 20
-0.0
 10
349.931640625
 20
-0.0
 10
339.93359375
 20
-0.0
 10
329.935546875
 20
-0.0
 10
319.9375
 20
-0.0
 10
309.939453125
 20
-0.0
 10
299.94140625
 20
-0.0
 10
289.943359375
 20
-0.0
 10
279.9453125
 20
-0.0
 10
269.947265625
 20
-0.0
 10
259.94921875
 20
-0.0
 10
249.951171875
 20
-0.0
 10
239.953125
 20
-0.0
 10
229.955078125
 20
-0.0
 10
219.95703125
 20
-0.0
 10
209.958984375
 20
-0.0
 10
199.9609375
 20
-0.0
 10
189.962890625
 20
-0.0
 10
179.96484375
 20
-0.0
 10
169.966796875
 20
-0.0
 10
159.96875
 20
-0.0
 10
149.970703125
 20
-0.0
 10
139.97265625
 20
-0.0
 10
129.974609375
 20
-0.0
 10
119.9765625
 20
-0.0
 10
109.978515625
 20
-0.0
 10
99.98046875
 20
-0.0
 10
89.982421875
 20
-0.0
 10
79.984375
 20
-0.0
 10
69.986328125
 20
-0.0
 10
59.98828125
 20
-0.0
 10
49.990234375
 20
-0.0
 10
39.9921875
 20
-0.0
 10
29.994140625
 20
-0.0
 10
19.99609375
 20
-0.0
 10
9.998046875
 20
-0.0
  0
LWPOLYLINE
  5
38
330
17
100
AcDbEntity
  8
substrate
100
AcDbPolyline
 90
1374
 70
1
 43
0.5
 10
2209.568359375
 20
-769.849609375
 10
2219.56640625
 20
-759.8515625
 10
2229.564453125
 20
-769.849609375
 10
2239.5625
 20
-769.849609375
 10
2249.560546875
 20
-769.849609375
 10
2259.55859375
 20
-769.849609375
 10
2269.556640625
 20
-769.849609375
 10
2279.5546875
 20
-769.849609375
 10
2289.552734375
 20
-769.849609375
 10
2299.55078125
 20
-769.849609375
 10
2309.548828125
 20
-769.849609375
 10
2319.546875
 20
-769.849609375
 10
2329.544921875
 20
-769.849609375
 10
2339.54296875
 20
-769.849609375
 10
2349.541015625
 20
-769.849609375
 10
2359.5390625
 20
-769.849609375
 10
2369.537109375
 20
-759.8515625
 10
2379.53515625
 20
-759.8515625
 10
2389.533203125
 20
-759.8515625
 10
2399.53125
 20
-769.849609375
 10
2409.529296875
 20
-769.849609375
 10
2419.52734375
 20
-769.849609375
 10
2429.525390625
 20
-769.849609375
 10
2439.5234375
 20
-769.849609375
 10
2449.521484375
 20
-769.849609375
 10
2459.51953125
 20
-759.8515625
 10
2469.517578125
 20
-759.8515625
 10
2479.515625
 20
-769.849609375
 10
2489.513671875
 20
-769.849609375
 10
2499.51171875
 20
-769.849609375
 10
2509.509765625
 20
-769.849609375
 10
2519.5078125
 20
-769.849609375
 10
2529.505859375
 20
-769.849609375
 10
2539.50390625
 20
-769.849609375
 10
2549.501953125
 20
-769.849609375
 10
2559.5
 20
-769.849609375
 10
2569.498046875
 20
-769.849609375
 10
2579.49609375
 20
-769.849609375
 10
2589.494140625
 20
-769.849609375
 10
2599.4921875
 20
-769.849609375
 10
2609.490234375
 20
-769.849609375
 10
2619.48828125
 20
-769.849609375
 10
2629.486328125
 20
-759.8515625
 10
2639.484375
 20
-769.849609375
 10
2649.482421875
 20
-769.849609375
 10
2659.48046875
 20
-769.849609375
 10
2669.478515625
 20
-769.849609375
 10
2679.4765625
 20
-769.849609375
 10
2689.474609375
 20
-769.849609375
 10
2699.47265625
 20
-769.849609375
 10
2709.470703125
 20
-769.849609375
 10
2719.46875
 20
-769.849609375
 10
2729.466796875
 20
-769.849609375
 10
2739.46484375
 20
-769.849609375
 10
2749.462890625
 20
-769.849609375
 10
2759.4609375
 20
-769.849609375
 10
2769.458984375
 20
-769.849609375
 10
2779.45703125
 20
-769.849609375
 10
2789.455078125
 20
-769.849609375
 10
2799.453125
 20
-769.849609375
 10
2809.451171875
 20
-769.849609375
 10
2819.44921875
 20
-769.849609375
 10
2829.447265625
 20
-769.849609375
 10
2839.4453125
 20
-769.849609375
 10
2849.443359375
 20
-769.849609375
 10
2859.44140625
 20
-759.8515625
 10
2869.439453125
 20
-769.849609375
 10
2879.4375
 20
-769.849609375
 10
2889.435546875
 20
-769.849609375
 10
2899.43359375
 20
-769.849609375
 10
2909.431640625
 20
-769.849609375
 10
2919.4296875
 20
-769.849609375
 10
2929.427734375
 20
-769.849609375
 10
2939.42578125
 20
-759.8515625
 10
2949.423828125
 20
-759.8515625
 10
2959.421875
 20
-769.849609375
 10
2969.419921875
 20
-769.849609375
 10
2979.41796875
 20
-769.849609375
 10
2989.416015625
 20
-769.849609375
 10
2999.4140625
 20
-769.849609375
 10
3009.412109375
 20
-769.849609375
 10
3019.41015625
 20
-759.8515625
 10
3029.408203125
 20
-759.8515625
 10
3039.40625
 20
-769.849609375
 10
3049.404296875
 20
-759.8515625
 10
3059.40234375
 20
-769.849609375
 10
3069.400390625
 20
-769.849609375
 10
3079.3984375
 20
-769.849609375
 10
3089.396484375
 20
-769.849609375
 10
3099.39453125
 20
-769.849609375
 10
3109.392578125
 20
-769.849609375
 10
3119.390625
 20
-769.849609375
 10
3129.388671875
 20
-769.849609375
 10
3139.38671875
 20
-769.849609375
 10
3149.384765625
 20
-769.849609375
 10
3159.3828125
 20
-769.849609375
 10
3169.380859375
 20
-769.849609375
 10
3179.37890625
 20
-759.8515625
 10
3189.376953125
 20
-769.849609375
 10
3189.376953125
 20
-779.84765625
 10
3189.376953125
 20
-789.845703125
 10
3189.376953125
 20
-799.84375
 10
3189.376953125
 20
-809.841796875
 10
3199.375
 20
-819.83984375
 10
3199.375
 20
-829.837890625
 10
3199.375
 20
-839.8359375
 10
3199.375
 20
-849.833984375
 10
3199.375
 20
-859.83203125
 10
3189.376953125
 20
-869.830078125
 10
3199.375
 20
-879.828125
 10
3189.376953125
 20
-889.826171875
 10
3189.376953125
 20
-899.82421875
 10
3189.376953125
 20
-909.822265625
 10
3189.376953125
 20
-919.8203125
 10
3189.376953125
 20
-929.818359375
 10
3189.376953125
 20
-939.81640625
 10
3189.376953125
 20
-949.814453125
 10
3189.376953125
 20
-959.8125
 10
3189.376953125
 20
-969.810546875
 10
3189.376953125
 20
-979.80859375
 10
3189.376953125
 20
-989.806640625
 10
3189.376953125
 20
-999.8046875
 10
3189.376953125
 20
-1009.802734375
 10
3189.376953125
 20
-1019.80078125
 10
3189.376953125
 20
-1029.798828125
 10
3189.376953125
 20
-1039.796875
 10
3189.376953125
 20
-1049.794921875
 10
3189.376953125
 20
-1059.79296875
 10
3189.376953125
 20
-1069.791015625
 10
3189.376953125
 20
-1079.7890625
 10
3189.376953125
 20
-1089.787109375
 10
3189.376953125
 20
-1099.78515625
 10
3189.376953125
 20
-1109.783203125
 10
3189.376953125
 20
-1119.78125
 10
3189.376953125
 20
-1129.779296875
 10
3189.376953125
 20
-1139.77734375
 10
3189.376953125
 20
-1149.775390625
 10
3189.376953125
 20
-1159.7734375
 10
3189.376953125
 20
-1169.771484375
 10
3189.376953125
 20
-1179.76953125
 10
3189.376953125
 20
-1189.767578125
 10
3189.376953125
 20
-1199.765625
 10
3189.376953125
 20
-1209.763671875
 10
3189.376953125
 20
-1219.76171875
 10
3189.376953125
 20
-1229.759765625
 10
3189.376953125
 20
-1239.7578125
 10
3189.376953125
 20
-1249.755859375
 10
3189.376953125
 20
-1259.75390625
 10
3189.376953125
 20
-1269.751953125
 10
3189.376953125
 20
-1279.75
 10
3189.376953125
 20
-1289.748046875
 10
3189.376953125
 20
-1299.74609375
 10
3189.376953125
 20
-1309.744140625
 10
3189.376953125
 20
-1319.7421875
 10
3189.376953125
 20
-1329.740234375
 10
3189.376953125
 20
-1339.73828125
 10
3189.376953125
 20
-1349.736328125
 10
3189.376953125
 20
-1359.734375
 10
3189.376953125
 20
-1369.732421875
 10
3189.376953125
 20
-1379.73046875
 10
3189.376953125
 20
-1389.728515625
 10
3189.376953125
 20
-1399.7265625
 10
3189.376953125
 20
-1409.724609375
 10
3189.376953125
 20
-1419.72265625
 10
3189.376953125
 20
-1429.720703125
 10
3189.376953125
 20
-1439.71875
 10
3189.376953125
 20
-1449.716796875
 10
3189.376953125
 20
-1459.71484375
 10
3189.376953125
 20
-1469.712890625
 10
3189.376953125
 20
-1479.7109375
 10
3189.376953125
 20
-1489.708984375
 10
3189.376953125
 20
-1499.70703125
 10
3189.376953125
 20
-1509.705078125
 10
3179.37890625
 20
-1519.703125
 10
3189.376953125
 20
-1529.701171875
 10
3189.376953125
 20
-1539.69921875
 10
3189.376953125
 20
-1549.697265625
 10
3189.376953125
 20
-1559.6953125
 10
3189.376953125
 20
-1569.693359375
 10
3189.376953125
 20
-1579.69140625
 10
3189.376953125
 20
-1589.689453125
 10
3189.376953125
 20
-1599.6875
 10
3189.376953125
 20
-1609.685546875
 10
3189.376953125
 20
-1619.68359375
 10
3189.376953125
 20
-1629.681640625
 10
3189.376953125
 20
-1639.6796875
 10
3179.37890625
 20
-1649.677734375
 10
3179.37890625
 20
-1659.67578125
 10
3179.37890625
 20
-1669.673828125
 10
3179.37890625
 20
-1679.671875
 10
3179.37890625
 20
-1689.669921875
 10
3179.37890625
 20
-1699.66796875
 10
3179.37890625
 20
-1709.666015625
 10
3179.37890625
 20
-1719.6640625
 10
3179.37890625
 20
-1729.662109375
 10
3179.37890625
 20
-1739.66015625
 10
3179.37890625
 20
-1749.658203125
 10
3189.376953125
 20
-1759.65625
 10
3179.37890625
 20
-1769.654296875
 10
3179.37890625
 20
-1779.65234375
 10
3179.37890625
 20
-1789.650390625
 10
3189.376953125
 20
-1799.6484375
 10
3179.37890625
 20
-1809.646484375
 10
3179.37890625
 20
-1819.64453125
 10
3179.37890625
 20
-1829.642578125
 10
3179.37890625
 20
-1839.640625
 10
3179.37890625
 20
-1849.638671875
 10
3189.376953125
 20
-1859.63671875
 10
3179.37890625
 20
-1869.634765625
 10
3189.376953125
 20
-1879.6328125
 10
3179.37890625
 20
-1889.630859375
 10
3179.37890625
 20
-1899.62890625
 10
3179.37890625
 20
-1909.626953125
 10
3189.376953125
 20
-1919.625
 10
3189.376953125
 20
-1929.623046875
 10
3199.375
 20
-1929.623046875
 10
3209.373046875
 20
-1929.623046875
 10
3219.37109375
 20
-1929.623046875
 10
3229.369140625
 20
-1929.623046875
 10
3239.3671875
 20
-1929.623046875
 10
3249.365234375
 20
-1919.625
 10
3259.36328125
 20
-1919.625
 10
3269.361328125
 20
-1929.623046875
 10
3279.359375
 20
-1929.623046875
 10
3289.357421875
 20
-1929.623046875
 10
3299.35546875
 20
-1929.623046875
 10
3309.353515625
 20
-1929.623046875
 10
3319.3515625
 20
-1929.623046875
 10
3329.349609375
 20
-1929.623046875
 10
3339.34765625
 20
-1929.623046875
 10
3349.345703125
 20
-1929.623046875
 10
3359.34375
 20
-1929.623046875
 10
3369.341796875
 20
-1929.623046875
 10
3379.33984375
 20
-1919.625
 10
3389.337890625
 20
-1929.623046875
 10
3399.3359375
 20
-1929.623046875
 10
3409.333984375
 20
-1919.625
 10
3419.33203125
 20
-1919.625
 10
3429.330078125
 20
-1929.623046875
 10
3439.328125
 20
-1919.625
 10
3449.326171875
 20
-1929.623046875
 10
3459.32421875
 20
-1929.623046875
 10
3469.322265625
 20
-1929.623046875
 10
3479.3203125
 20
-1929.623046875
 10
3489.318359375
 20
-1929.623046875
 10
3499.31640625
 20
-1929.623046875
 10
3509.314453125
 20
-1919.625
 10
3519.3125
 20
-1919.625
 10
3529.310546875
 20
-1919.625
 10
3539.30859375
 20
-1919.625
 10
3549.306640625
 20
-1929.623046875
 10
3559.3046875
 20
-1929.623046875
 10
3569.302734375
 20
-1919.625
 10
3579.30078125
 20
-1929.623046875
 10
3589.298828125
 20
-1929.623046875
 10
3599.296875
 20
-1929.623046875
 10
3609.294921875
 20
-1929.623046875
 10
3619.29296875
 20
-1919.625
 10
3629.291015625
 20
-1929.623046875
 10
3639.2890625
 20
-1919.625
 10
3649.287109375
 20
-1919.625
 10
3659.28515625
 20
-1919.625
 10
3669.283203125
 20
-1919.625
 10
3679.28125
 20
-1919.625
 10
3689.279296875
 20
-1919.625
 10
3699.27734375
 20
-1919.625
 10
3709.275390625
 20
-1929.623046875
 10
3719.2734375
 20
-1919.625
 10
3729.271484375
 20
-1929.623046875
 10
3739.26953125
 20
-1929.623046875
 10
3749.267578125
 20
-1929.623046875
 10
3759.265625
 20
-1929.623046875
 10
3769.263671875
 20
-1919.625
 10
3779.26171875
 20
-1919.625
 10
3789.259765625
 20
-1929.623046875
 10
3799.2578125
 20
-1929.623046875
 10
3809.255859375
 20
-1929.623046875
 10
3819.25390625
 20
-1929.623046875
 10
3829.251953125
 20
-1929.623046875
 10
3839.25
 20
-1929.623046875
 10
3849.248046875
 20
-1929.623046875
 10
3859.24609375
 20
-1929.623046875
 10
3869.244140625
 20
-1929.623046875
 10
3879.2421875
 20
-1929.623046875
 10
3889.240234375
 20
-1929.623046875
 10
3899.23828125
 20
-1929.623046875
 10
3909.236328125
 20
-1929.623046875
 10
3919.234375
 20
-1929.623046875
 10
3929.232421875
 20
-1929.623046875
 10
3939.23046875
 20
-1929.623046875
 10
3949.228515625
 20
-1929.623046875
 10
3959.2265625
 20
-1929.623046875
 10
3969.224609375
 20
-1929.623046875
 10
3979.22265625
 20
-1929.623046875
 10
3989.220703125
 20
-1929.623046875
 10
3999.21875
 20
-1929.623046875
 10
4009.216796875
 20
-1929.623046875
 10
4019.21484375
 20
-1929.623046875
 10
4029.212890625
 20
-1929.623046875
 10
4039.2109375
 20
-1929.623046875
 10
4049.208984375
 20
-1929.623046875
 10
4059.20703125
 20
-1929.623046875
 10
4069.205078125
 20
-1929.623046875
 10
4079.203125
 20
-1929.623046875
 10
4089.201171875
 20
-1919.625
 10
4099.19921875
 20
-1929.623046875
 10
4109.197265625
 20
-1929.623046875
 10
4119.1953125
 20
-1929.623046875
 10
4129.193359375
 20
-1929.623046875
 10
4139.19140625
 20
-1929.623046875
 10
4149.189453125
 20
-1929.623046875
 10
4159.1875
 20
-1929.623046875
 10
4169.185546875
 20
-1929.623046875
 10
4179.18359375
 20
-1929.623046875
 10
4189.181640625
 20
-1929.623046875
 10
4199.1796875
 20
-1929.623046875
 10
4209.177734375
 20
-1929.623046875
 10
4219.17578125
 20
-1929.623046875
 10
4229.173828125
 20
-1929.623046875
 10
4239.171875
 20
-1929.623046875
 10
4249.169921875
 20
-1929.623046875
 10
4259.16796875
 20
-1939.62109375
 10
4269.166015625
 20
-1949.619140625
 10
4269.166015625
 20
-1959.6171875
 10
4259.16796875
 20
-1969.615234375
 10
4259.16796875
 20
-1979.61328125
 10
4249.169921875
 20
-1989.611328125
 10
4259.16796875
 20
-1999.609375
 10
4259.16796875
 20
-2009.607421875
 10
4259.16796875
 20
-2019.60546875
 10
4259.16796875
 20
-2029.603515625
 10
4269.166015625
 20
-2039.6015625
 10
4269.166015625
 20
-2049.599609375
 10
4269.166015625
 20
-2059.59765625
 10
4269.166015625
 20
-2069.595703125
 10
4279.1640625
 20
-2079.59375
 10
4269.166015625
 20
-2089.591796875
 10
4269.166015625
 20
-2099.58984375
 10
4269.166015625
 20
-2109.587890625
 10
4279.1640625
 20
-2119.5859375
 10
4279.1640625
 20
-2129.583984375
 10
4279.1640625
 20
-2139.58203125
 10
4279.1640625
 20
-2149.580078125
 10
4289.162109375
 20
-2159.578125
 10
4289.162109375
 20
-2169.576171875
 10
4289.162109375
 20
-2179.57421875
 10
4289.162109375
 20
-2189.572265625
 10
4299.16015625
 20
-2199.5703125
 10
4299.16015625
 20
-2209.568359375
 10
4299.16015625
 20
-2219.56640625
 10
4299.16015625
 20
-2229.564453125
 10
4299.16015625
 20
-2239.5625
 10
4299.16015625
 20
-2249.560546875
 10
4299.16015625
 20
-2259.55859375
 10
4299.16015625
 20
-2269.556640625
 10
4299.16015625
 20
-2279.5546875
 10
4299.16015625
 20
-2289.552734375
 10
4299.16015625
 20
-2299.55078125
 10
4299.16015625
 20
-2309.548828125
 10
4299.16015625
 20
-2319.546875
 10
4299.16015625
 20
-2329.544921875
 10
4299.16015625
 20
-2339.54296875
 10
4299.16015625
 20
-2349.541015625
 10
4299.16015625
 20
-2359.5390625
 10
4299.16015625
 20
-2369.537109375
 10
4299.16015625
 20
-2379.53515625
 10
4299.16015625
 20
-2389.533203125
 10
4299.16015625
 20
-2399.53125
 10
4309.158203125
 20
-2409.529296875
 10
4309.158203125
 20
-2419.52734375
 10
4309.158203125
 20
-2429.525390625
 10
4309.158203125
 20
-2439.5234375
 10
4309.158203125
 20
-2449.521484375
 10
4309.158203125
 20
-2459.51953125
 10
4309.158203125
 20
-2469.517578125
 10
4309.158203125
 20
-2479.515625
 10
4309.158203125
 20
-2489.513671875
 10
4309.158203125
 20
-2499.51171875
 10
4309.158203125
 20
-2509.509765625
 10
4309.158203125
 20
-2519.5078125
 10
4309.158203125
 20
-2529.505859375
 10
4319.15625
 20
-2539.50390625
 10
4319.15625
 20
-2549.501953125
 10
4319.15625
 20
-2559.5
 10
4319.15625
 20
-2569.498046875
 10
4319.15625
 20
-2579.49609375
 10
4319.15625
 20
-2589.494140625
 10
4319.15625
 20
-2599.4921875
 10
4319.15625
 20
-2609.490234375
 10
4319.15625
 20
-2619.48828125
 10
4319.15625
 20
-2629.486328125
 10
4319.15625
 20
-2639.484375
 10
4319.15625
 20
-2649.482421875
 10
4319.15625
 20
-2659.48046875
 10
4319.15625
 20
-2669.478515625
 10
4319.15625
 20
-2679.4765625
 10
4319.15625
 20
-2689.474609375
 10
4319.15625
 20
-2699.47265625
 10
4329.154296875
 20
-2709.470703125
 10
4329.154296875
 20
-2719.46875
 10
4319.15625
 20
-2729.466796875
 10
4319.15625
 20
-2739.46484375
 10
4319.15625
 20
-2749.462890625
 10
4319.15625
 20
-2759.4609375
 10
4319.15625
 20
-2769.458984375
 10
4319.15625
 20
-2779.45703125
 10
4319.15625
 20
-2789.455078125
 10
4319.15625
 20
-2799.453125
 10
4319.15625
 20
-2809.451171875
 10
4319.15625
 20
-2819.44921875
 10
4319.15625
 20
-2829.447265625
 10
4319.15625
 20
-2839.4453125
 10
4329.154296875
 20
-2849.443359375
 10
4329.154296875
 20
-2859.44140625
 10
4329.154296875
 20
-2869.439453125
 10
4329.154296875
 20
-2879.4375
 10
4319.15625
 20
-2889.435546875
 10
4329.154296875
 20
-2899.43359375
 10
4329.154296875
 20
-2909.431640625
 10
4319.15625
 20
-2919.4296875
 10
4319.15625
 20
-2929.427734375
 10
4329.154296875
 20
-2939.42578125
 10
4319.15625
 20
-2949.423828125
 10
4319.15625
 20
-2959.421875
 10
4319.15625
 20
-2969.419921875
 10
4329.154296875
 20
-2979.41796875
 10
4329.154296875
 20
-2989.416015625
 10
4329.154296875
 20
-2999.4140625
 10
4329.154296875
 20
-3009.412109375
 10
4329.154296875
 20
-3019.41015625
 10
4329.154296875
 20
-3029.408203125
 10
4329.154296875
 20
-3039.40625
 10
4329.154296875
 20
-3049.404296875
 10
4329.154296875
 20
-3059.40234375
 10
4329.154296875
 20
-3069.400390625
 10
4319.15625
 20
-3079.3984375
 10
4319.15625
 20
-3089.396484375
 10
4319.15625
 20
-3099.39453125
 10
4319.15625
 20
-3109.392578125
 10
4319.15625
 20
-3119.390625
 10
4319.15625
 20
-3129.388671875
 10
4319.15625
 20
-3139.38671875
 10
4319.15625
 20
-3149.384765625
 10
4319.15625
 20
-3159.3828125
 10
4309.158203125
 20
-3169.380859375
 10
4299.16015625
 20
-3179.37890625
 10
4289.162109375
 20
-3179.37890625
 10
4279.1640625
 20
-3179.37890625
 10
4269.166015625
 20
-3179.37890625
 10
4259.16796875
 20
-3179.37890625
 10
4249.169921875
 20
-3179.37890625
 10
4239.171875
 20
-3179.37890625
 10
4229.173828125
 20
-3179.37890625
 10
4219.17578125
 20
-3189.376953125
 10
4209.177734375
 20
-3189.376953125
 10
4199.1796875
 20
-3189.376953125
 10
4189.181640625
 20
-3189.376953125
 10
4179.18359375
 20
-3189.376953125
 10
4169.185546875
 20
-3189.376953125
 10
4159.1875
 20
-3189.376953125
 10
4149.189453125
 20
-3189.376953125
 10
4139.19140625
 20
-3189.376953125
 10
4129.193359375
 20
-3189.376953125
 10
4119.1953125
 20
-3189.376953125
 10
4109.197265625
 20
-3179.37890625
 10
4099.19921875
 20
-3189.376953125
 10
4089.201171875
 20
-3189.376953125
 10
4079.203125
 20
-3179.37890625
 10
4069.205078125
 20
-3179.37890625
 10
4059.20703125
 20
-3189.376953125
 10
4049.208984375
 20
-3179.37890625
 10
4039.2109375
 20
-3179.37890625
 10
4029.212890625
 20
-3179.37890625
 10
4019.21484375
 20
-3179.37890625
 10
4009.216796875
 20
-3179.37890625
 10
3999.21875
 20
-3189.376953125
 10
3989.220703125
 20
-3189.376953125
 10
3979.22265625
 20
-3189.376953125
 10
3969.224609375
 20
-3189.376953125
 10
3959.2265625
 20
-3189.376953125
 10
3949.228515625
 20
-3189.376953125
 10
3939.23046875
 20
-3189.376953125
 10
3929.232421875
 20
-3189.376953125
 10
3919.234375
 20
-3189.376953125
 10
3909.236328125
 20
-3179.37890625
 10
3899.23828125
 20
-3189.376953125
 10
3889.240234375
 20
-3189.376953125
 10
3879.2421875
 20
-3189.376953125
 10
3869.244140625
 20
-3189.376953125
 10
3859.24609375
 20
-3189.376953125
 10
3849.248046875
 20
-3179.37890625
 10
3839.25
 20
-3179.37890625
 10
3829.251953125
 20
-3179.37890625
 10
3819.25390625
 20
-3179.37890625
 10
3809.255859375
 20
-3179.37890625
 10
3799.2578125
 20
-3189.376953125
 10
3789.259765625
 20
-3179.37890625
 10
3779.26171875
 20
-3179.37890625
 10
3769.263671875
 20
-3179.37890625
 10
3759.265625
 20
-3179.37890625
 10
3749.267578125
 20
-3179.37890625
 10
3739.26953125
 20
-3179.37890625
 10
3729.271484375
 20
-3179.37890625
 10
3719.2734375
 20
-3179.37890625
 10
3709.275390625
 20
-3179.37890625
 10
3699.27734375
 20
-3179.37890625
 10
3689.279296875
 20
-3179.37890625
 10
3679.28125
 20
-3179.37890625
 10
3669.283203125
 20
-3179.37890625
 10
3659.28515625
 20
-3179.37890625
 10
3649.287109375
 20
-3179.37890625
 10
3639.2890625
 20
-3189.376953125
 10
3629.291015625
 20
-3179.37890625
 10
3619.29296875
 20
-3189.376953125
 10
3609.294921875
 20
-3189.376953125
 10
3599.296875
 20
-3179.37890625
 10
3589.298828125
 20
-3179.37890625
 10
3579.30078125
 20
-3189.376953125
 10
3569.302734375
 20
-3179.37890625
 10
3559.3046875
 20
-3179.37890625
 10
3549.306640625
 20
-3179.37890625
 10
3539.30859375
 20
-3179.37890625
 10
3529.310546875
 20
-3179.37890625
 10
3519.3125
 20
-3179.37890625
 10
3509.314453125
 20
-3179.37890625
 10
3499.31640625
 20
-3179.37890625
 10
3489.318359375
 20
-3179.37890625
 10
3479.3203125
 20
-3179.37890625
 10
3469.322265625
 20
-3179.37890625
 10
3459.32421875
 20
-3179.37890625
 10
3449.326171875
 20
-3179.37890625
 10
3439.328125
 20
-3179.37890625
 10
3429.330078125
 20
-3179.37890625
 10
3419.33203125
 20
-3179.37890625
 10
3409.333984375
 20
-3179.37890625
 10
3399.3359375
 20
-3179.37890625
 10
3389.337890625
 20
-3179.37890625
 10
3379.33984375
 20
-3179.37890625
 10
3369.341796875
 20
-3179.37890625
 10
3359.34375
 20
-3179.37890625
 10
3349.345703125
 20
-3179.37890625
 10
3339.34765625
 20
-3189.376953125
 10
3329.349609375
 20
-3179.37890625
 10
3319.3515625
 20
-3189.376953125
 10
3309.353515625
 20
-3179.37890625
 10
3299.35546875
 20
-3189.376953125
 10
3289.357421875
 20
-3189.376953125
 10
3279.359375
 20
-3189.376953125
 10
3269.361328125
 20
-3179.37890625
 10
3259.36328125
 20
-3189.376953125
 10
3249.365234375
 20
-3189.376953125
 10
3239.3671875
 20
-3189.376953125
 10
3229.369140625
 20
-3189.376953125
 10
3219.37109375
 20
-3179.37890625
 10
3209.373046875
 20
-3179.37890625
 10
3199.375
 20
-3179.37890625
 10
3189.376953125
 20
-3189.376953125
 10
3189.376953125
 20
-3199.375
 10
3179.37890625
 20
-3209.373046875
 10
3179.37890625
 20
-3219.37109375
 10
3179.37890625
 20
-3229.369140625
 10
3179.37890625
 20
-3239.3671875
 10
3179.37890625
 20
-3249.365234375
 10
3179.37890625
 20
-3259.36328125
 10
3179.37890625
 20
-3269.361328125
 10
3179.37890625
 20
-3279.359375
 10
3179.37890625
 20
-3289.357421875
 10
3179.37890625
 20
-3299.35546875
 10
3179.37890625
 20
-3309.353515625
 10
3179.37890625
 20
-3319.3515625
 10
3179.37890625
 20
-3329.349609375
 10
3179.37890625
 20
-3339.34765625
 10
3189.376953125
 20
-3349.345703125
 10
3189.376953125
 20
-3359.34375
 10
3189.376953125
 20
-3369.341796875
 10
3189.376953125
 20
-3379.33984375
 10
3189.376953125
 20
-3389.337890625
 10
3189.376953125
 20
-3399.3359375
 10
3179.37890625
 20
-3409.333984375
 10
3179.37890625
 20
-3419.33203125
 10
3179.37890625
 20
-3429.330078125
 10
3179.37890625
 20
-3439.328125
 10
3189.376953125
 20
-3449.326171875
 10
3189.376953125
 20
-3459.32421875
 10
3179.37890625
 20
-3469.322265625
 10
3179.37890625
 20
-3479.3203125
 10
3179.37890625
 20
-3489.318359375
 10
3179.37890625
 20
-3499.31640625
 10
3179.37890625
 20
-3509.314453125
 10
3179.37890625
 20
-3519.3125
 10
3179.37890625
 20
-3529.310546875
 10
3179.37890625
 20
-3539.30859375
 10
3179.37890625
 20
-3549.306640625
 10
3179.37890625
 20
-3559.3046875
 10
3179.37890625
 20
-3569.302734375
 10
3179.37890625
 20
-3579.30078125
 10
3179.37890625
 20
-3589.298828125
 10
3179.37890625
 20
-3599.296875
 10
3179.37890625
 20
-3609.294921875
 10
3179.37890625
 20
-3619.29296875
 10
3179.37890625
 20
-3629.291015625
 10
3179.37890625
 20
-3639.2890625
 10
3179.37890625
 20
-3649.287109375
 10
3179.37890625
 20
-3659.28515625
 10
3179.37890625
 20
-3669.283203125
 10
3179.37890625
 20
-3679.28125
 10
3179.37890625
 20
-3689.279296875
 10
3179.37890625
 20
-3699.27734375
 10
3179.37890625
 20
-3709.275390625
 10
3179.37890625
 20
-3719.2734375
 10
3179.37890625
 20
-3729.271484375
 10
3179.37890625
 20
-3739.26953125
 10
3179.37890625
 20
-3749.267578125
 10
3179.37890625
 20
-3759.265625
 10
3179.37890625
 20
-3769.263671875
 10
3179.37890625
 20
-3779.26171875
 10
3179.37890625
 20
-3789.259765625
 10
3179.37890625
 20
-3799.2578125
 10
3179.37890625
 20
-3809.255859375
 10
3179.37890625
 20
-3819.25390625
 10
3179.37890625
 20
-3829.251953125
 10
3179.37890625
 20
-3839.25
 10
3179.37890625
 20
-3849.248046875
 10
3179.37890625
 20
-3859.24609375
 10
3179.37890625
 20
-3869.244140625
 10
3179.37890625
 20
-3879.2421875
 10
3179.37890625
 20
-3889.240234375
 10
3179.37890625
 20
-3899.23828125
 10
3179.37890625
 20
-3909.236328125
 10
3179.37890625
 20
-3919.234375
 10
3179.37890625
 20
-3929.232421875
 10
3189.376953125
 20
-3939.23046875
 10
3179.37890625
 20
-3949.228515625
 10
3189.376953125
 20
-3959.2265625
 10
3179.37890625
 20
-3969.224609375
 10
3179.37890625
 20
-3979.22265625
 10
3179.37890625
 20
-3989.220703125
 10
3179.37890625
 20
-3999.21875
 10
3179.37890625
 20
-4009.216796875
 10
3179.37890625
 20
-4019.21484375
 10
3179.37890625
 20
-4029.212890625
 10
3189.376953125
 20
-4039.2109375
 10
3179.37890625
 20
-4049.208984375
 10
3179.37890625
 20
-4059.20703125
 10
3179.37890625
 20
-4069.205078125
 10
3179.37890625
 20
-4079.203125
 10
3189.376953125
 20
-4089.201171875
 10
3189.376953125
 20
-4099.19921875
 10
3189.376953125
 20
-4109.197265625
 10
3189.376953125
 20
-4119.1953125
 10
3179.37890625
 20
-4129.193359375
 10
3179.37890625
 20
-4139.19140625
 10
3179.37890625
 20
-4149.189453125
 10
3179.37890625
 20
-4159.1875
 10
3179.37890625
 20
-4169.185546875
 10
3179.37890625
 20
-4179.18359375
 10
3179.37890625
 20
-4189.181640625
 10
3179.37890625
 20
-4199.1796875
 10
3179.37890625
 20
-4209.177734375
 10
3169.380859375
 20
-4219.17578125
 10
3159.3828125
 20
-4229.173828125
 10
3149.384765625
 20
-4229.173828125
 10
3139.38671875
 20
-4229.173828125
 10
3129.388671875
 20
-4229.173828125
 10
3119.390625
 20
-4229.173828125
 10
3109.392578125
 20
-4229.173828125
 10
3099.39453125
 20
-4229.173828125
 10
3089.396484375
 20
-4229.173828125
 10
3079.3984375
 20
-4229.173828125
 10
3069.400390625
 20
-4229.173828125
 10
3059.40234375
 20
-4229.173828125
 10
3049.404296875
 20
-4239.171875
 10
3039.40625
 20
-4229.173828125
 10
3029.408203125
 20
-4229.173828125
 10
3019.41015625
 20
-4229.173828125
 10
3009.412109375
 20
-4229.173828125
 10
2999.4140625
 20
-4229.173828125
 10
2989.416015625
 20
-4229.173828125
 10
2979.41796875
 20
-4229.173828125
 10
2969.419921875
 20
-4229.173828125
 10
2959.421875
 20
-4229.173828125
 10
2949.423828125
 20
-4229.173828125
 10
2939.42578125
 20
-4229.173828125
 10
2929.427734375
 20
-4229.173828125
 10
2919.4296875
 20
-4229.173828125
 10
2909.431640625
 20
-4229.173828125
 10
2899.43359375
 20
-4229.173828125
 10
2889.435546875
 20
-4239.171875
 10
2879.4375
 20
-4229.173828125
 10
2869.439453125
 20
-4229.173828125
 10
2859.44140625
 20
-4229.173828125
 10
2849.443359375
 20
-4229.173828125
 10
2839.4453125
 20
-4229.173828125
 10
2829.447265625
 20
-4229.173828125
 10
2819.44921875
 20
-4229.173828125
 10
2809.451171875
 20
-4239.171875
 10
2799.453125
 20
-4239.171875
 10
2789.455078125
 20
-4239.171875
 10
2779.45703125
 20
-4239.171875
 10
2769.458984375
 20
-4239.171875
 10
2759.4609375
 20
-4239.171875
 10
2749.462890625
 20
-4229.173828125
 10
2739.46484375
 20
-4229.173828125
 10
2729.466796875
 20
-4229.173828125
 10
2719.46875
 20
-4229.173828125
 10
2709.470703125
 20
-4229.173828125
 10
2699.47265625
 20
-4229.173828125
 10
2689.474609375
 20
-4229.173828125
 10
2679.4765625
 20
-4229.173828125
 10
2669.478515625
 20
-4229.173828125
 10
2659.48046875
 20
-4229.173828125
 10
2649.482421875
 20
-4229.173828125
 10
2639.484375
 20
-4229.173828125
 10
2629.486328125
 20
-4219.17578125
 10
2619.48828125
 20
-4229.173828125
 10
2609.490234375
 20
-4229.173828125
 10
2599.4921875
 20
-4229.173828125
 10
2589.494140625
 20
-4229.173828125
 10
2579.49609375
 20
-4229.173828125
 10
2569.498046875
 20
-4229.173828125
 10
2559.5
 20
-4229.173828125
 10
2549.501953125
 20
-4219.17578125
 10
2539.50390625
 20
-4229.173828125
 10
2529.505859375
 20
-4229.173828125
 10
2519.5078125
 20
-4229.173828125
 10
2509.509765625
 20
-4219.17578125
 10
2499.51171875
 20
-4229.173828125
 10
2489.513671875
 20
-4229.173828125
 10
2479.515625
 20
-4229.173828125
 10
2469.517578125
 20
-4219.17578125
 10
2459.51953125
 20
-4229.173828125
 10
2449.521484375
 20
-4229.173828125
 10
2439.5234375
 20
-4229.173828125
 10
2429.525390625
 20
-4219.17578125
 10
2419.52734375
 20
-4229.173828125
 10
2409.529296875
 20
-4229.173828125
 10
2399.53125
 20
-4219.17578125
 10
2389.533203125
 20
-4219.17578125
 10
2379.53515625
 20
-4219.17578125
 10
2369.537109375
 20
-4219.17578125
 10
2359.5390625
 20
-4219.17578125
 10
2349.541015625
 20
-4219.17578125
 10
2339.54296875
 20
-4219.17578125
 10
2329.544921875
 20
-4219.17578125
 10
2319.546875
 20
-4219.17578125
 10
2309.548828125
 20
-4219.17578125
 10
2299.55078125
 20
-4219.17578125
 10
2289.552734375
 20
-4219.17578125
 10
2279.5546875
 20
-4219.17578125
 10
2269.556640625
 20
-4219.17578125
 10
2259.55859375
 20
-4219.17578125
 10
2249.560546875
 20
-4219.17578125
 10
2239.5625
 20
-4219.17578125
 10
2229.564453125
 20
-4219.17578125
 10
2219.56640625
 20
-4219.17578125
 10
2209.568359375
 20
-4219.17578125
 10
2199.5703125
 20
-4229.173828125
 10
2189.572265625
 20
-4229.173828125
 10
2179.57421875
 20
-4229.173828125
 10
2169.576171875
 20
-4229.173828125
 10
2159.578125
 20
-4219.17578125
 10
2149.580078125
 20
-4219.17578125
 10
2139.58203125
 20
-4229.173828125
 10
2129.583984375
 20
-4229.173828125
 10
2119.5859375
 20
-4219.17578125
 10
2109.587890625
 20
-4219.17578125
 10
2099.58984375
 20
-4229.173828125
 10
2089.591796875
 20
-4229.173828125
 10
2079.59375
 20
-4229.173828125
 10
2069.595703125
 20
-4229.173828125
 10
2059.59765625
 20
-4229.173828125
 10
2049.599609375
 20
-4229.173828125
 10
2039.6015625
 20
-4229.173828125
 10
2029.603515625
 20
-4219.17578125
 10
2019.60546875
 20
-4219.17578125
 10
2009.607421875
 20
-4219.17578125
 10
1999.609375
 20
-4219.17578125
 10
1989.611328125
 20
-4219.17578125
 10
1979.61328125
 20
-4219.17578125
 10
1969.615234375
 20
-4219.17578125
 10
1959.6171875
 20
-4209.177734375
 10
1949.619140625
 20
-4209.177734375
 10
1939.62109375
 20
-4199.1796875
 10
1939.62109375
 20
-4189.181640625
 10
1929.623046875
 20
-4179.18359375
 10
1929.623046875
 20
-4169.185546875
 10
1929.623046875
 20
-4159.1875
 10
1929.623046875
 20
-4149.189453125
 10
1929.623046875
 20
-4139.19140625
 10
1929.623046875
 20
-4129.193359375
 10
1929.623046875
 20
-4119.1953125
 10
1929.623046875
 20
-4109.197265625
 10
1929.623046875
 20
-4099.19921875
 10
1929.623046875
 20
-4089.201171875
 10
1929.623046875
 20
-4079.203125
 10
1939.62109375
 20
-4069.205078125
 10
1939.62109375
 20
-4059.20703125
 10
1939.62109375
 20
-4049.208984375
 10
1939.62109375
 20
-4039.2109375
 10
1929.623046875
 20
-4029.212890625
 10
1929.623046875
 20
-4019.21484375
 10
1929.623046875
 20
-4009.216796875
 10
1929.623046875
 20
-3999.21875
 10
1929.623046875
 20
-3989.220703125
 10
1929.623046875
 20
-3979.22265625
 10
1929.623046875
 20
-3969.224609375
 10
1929.623046875
 20
-3959.2265625
 10
1929.623046875
 20
-3949.228515625
 10
1929.623046875
 20
-3939.23046875
 10
1929.623046875
 20
-3929.232421875
 10
1929.623046875
 20
-3919.234375
 10
1929.623046875
 20
-3909.236328125
 10
1929.623046875
 20
-3899.23828125
 10
1929.623046875
 20
-3889.240234375
 10
1929.623046875
 20
-3879.2421875
 10
1929.623046875
 20
-3869.244140625
 10
1929.623046875
 20
-3859.24609375
 10
1919.625
 20
-3849.248046875
 10
1919.625
 20
-3839.25
 10
1919.625
 20
-3829.251953125
 10
1929.623046875
 20
-3819.25390625
 10
1929.623046875
 20
-3809.255859375
 10
1929.623046875
 20
-3799.2578125
 10
1929.623046875
 20
-3789.259765625
 10
1929.623046875
 20
-3779.26171875
 10
1929.623046875
 20
-3769.263671875
 10
1919.625
 20
-3759.265625
 10
1929.623046875
 20
-3749.267578125
 10
1919.625
 20
-3739.26953125
 10
1929.623046875
 20
-3729.271484375
 10
1929.623046875
 20
-3719.2734375
 10
1929.623046875
 20
-3709.275390625
 10
1929.623046875
 20
-3699.27734375
 10
1929.623046875
 20
-3689.279296875
 10
1929.623046875
 20
-3679.28125
 10
1929.623046875
 20
-3669.283203125
 10
1929.623046875
 20
-3659.28515625
 10
1929.623046875
 20
-3649.287109375
 10
1929.623046875
 20
-3639.2890625
 10
1929.623046875
 20
-3629.291015625
 10
1929.623046875
 20
-3619.29296875
 10
1929.623046875
 20
-3609.294921875
 10
1929.623046875
 20
-3599.296875
 10
1929.623046875
 20
-3589.298828125
 10
1929.623046875
 20
-3579.30078125
 10
1929.623046875
 20
-3569.302734375
 10
1929.623046875
 20
-3559.3046875
 10
1929.623046875
 20
-3549.306640625
 10
1929.623046875
 20
-3539.30859375
 10
1929.623046875
 20
-3529.310546875
 10
1929.623046875
 20
-3519.3125
 10
1929.623046875
 20
-3509.314453125
 10
1929.623046875
 20
-3499.31640625
 10
1929.623046875
 20
-3489.318359375
 10
1929.623046875
 20
-3479.3203125
 10
1929.623046875
 20
-3469.322265625
 10
1929.623046875
 20
-3459.32421875
 10
1929.623046875
 20
-3449.326171875
 10
1929.623046875
 20
-3439.328125
 10
1929.623046875
 20
-3429.330078125
 10
1929.623046875
 20
-3419.33203125
 10
1929.623046875
 20
-3409.333984375
 10
1929.623046875
 20
-3399.3359375
 10
1929.623046875
 20
-3389.337890625
 10
1929.623046875
 20
-3379.33984375
 10
1929.623046875
 20
-3369.341796875
 10
1929.623046875
 20
-3359.34375
 10
1929.623046875
 20
-3349.345703125
 10
1929.623046875
 20
-3339.34765625
 10
1939.62109375
 20
-3329.349609375
 10
1939.62109375
 20
-3319.3515625
 10
1929.623046875
 20
-3309.353515625
 10
1929.623046875
 20
-3299.35546875
 10
1929.623046875
 20
-3289.357421875
 10
1929.623046875
 20
-3279.359375
 10
1929.623046875
 20
-3269.361328125
 10
1929.623046875
 20
-3259.36328125
 10
1929.623046875
 20
-3249.365234375
 10
1929.623046875
 20
-3239.3671875
 10
1929.623046875
 20
-3229.369140625
 10
1929.623046875
 20
-3219.37109375
 10
1929.623046875
 20
-3209.373046875
 10
1919.625
 20
-3199.375
 10
1919.625
 20
-3189.376953125
 10
1919.625
 20
-3179.37890625
 10
1909.626953125
 20
-3179.37890625
 10
1899.62890625
 20
-3179.37890625
 10
1889.630859375
 20
-3179.37890625
 10
1879.6328125
 20
-3179.37890625
 10
1869.634765625
 20
-3179.37890625
 10
1859.63671875
 20
-3179.37890625
 10
1849.638671875
 20
-3179.37890625
 10
1839.640625
 20
-3179.37890625
 10
1829.642578125
 20
-3179.37890625
 10
1819.64453125
 20
-3179.37890625
 10
1809.646484375
 20
-3179.37890625
 10
1799.6484375
 20
-3179.37890625
 10
1789.650390625
 20
-3179.37890625
 10
1779.65234375
 20
-3179.37890625
 10
1769.654296875
 20
-3179.37890625
 10
1759.65625
 20
-3179.37890625
 10
1749.658203125
 20
-3179.37890625
 10
1739.66015625
 20
-3179.37890625
 10
1729.662109375
 20
-3179.37890625
 10
1719.6640625
 20
-3179.37890625
 10
1709.666015625
 20
-3179.37890625
 10
1699.66796875
 20
-3179.37890625
 10
1689.669921875
 20
-3189.376953125
 10
1679.671875
 20
-3179.37890625
 10
1669.673828125
 20
-3179.37890625
 10
1659.67578125
 20
-3179.37890625
 10
1649.677734375
 20
-3179.37890625
 10
1639.6796875
 20
-3179.37890625
 10
1629.681640625
 20
-3179.37890625
 10
1619.68359375
 20
-3179.37890625
 10
1609.685546875
 20
-3179.37890625
 10
1599.6875
 20
-3179.37890625
 10
1589.689453125
 20
-3179.37890625
 10
1579.69140625
 20
-3179.37890625
 10
1569.693359375
 20
-3179.37890625
 10
1559.6953125
 20
-3169.380859375
 10
1549.697265625
 20
-3169.380859375
 10
1539.69921875
 20
-3179.37890625
 10
1529.701171875
 20
-3179.37890625
 10
1519.703125
 20
-3179.37890625
 10
1509.705078125
 20
-3179.37890625
 10
1499.70703125
 20
-3179.37890625
 10
1489.708984375
 20
-3179.37890625
 10
1479.7109375
 20
-3169.380859375
 10
1469.712890625
 20
-3169.380859375
 10
1459.71484375
 20
-3169.380859375
 10
1449.716796875
 20
-3179.37890625
 10
1439.71875
 20
-3169.380859375
 10
1429.720703125
 20
-3169.380859375
 10
1419.72265625
 20
-3169.380859375
 10
1409.724609375
 20
-3179.37890625
 10
1399.7265625
 20
-3169.380859375
 10
1389.728515625
 20
-3169.380859375
 10
1379.73046875
 20
-3169.380859375
 10
1369.732421875
 20
-3179.37890625
 10
1359.734375
 20
-3169.380859375
 10
1349.736328125
 20
-3169.380859375
 10
1339.73828125
 20
-3169.380859375
 10
1329.740234375
 20
-3179.37890625
 10
1319.7421875
 20
-3169.380859375
 10
1309.744140625
 20
-3169.380859375
 10
1299.74609375
 20
-3169.380859375
 10
1289.748046875
 20
-3179.37890625
 10
1279.75
 20
-3169.380859375
 10
1269.751953125
 20
-3179.37890625
 10
1259.75390625
 20
-3169.380859375
 10
1249.755859375
 20
-3179.37890625
 10
1239.7578125
 20
-3169.380859375
 10
1229.759765625
 20
-3179.37890625
 10
1219.76171875
 20
-3179.37890625
 10
1209.763671875
 20
-3179.37890625
 10
1199.765625
 20
-3179.37890625
 10
1189.767578125
 20
-3179.37890625
 10
1179.76953125
 20
-3179.37890625
 10
1169.771484375
 20
-3179.37890625
 10
1159.7734375
 20
-3169.380859375
 10
1149.775390625
 20
-3169.380859375
 10
1139.77734375
 20
-3169.380859375
 10
1129.779296875
 20
-3179.37890625
 10
1119.78125
 20
-3169.380859375
 10
1109.783203125
 20
-3169.380859375
 10
1099.78515625
 20
-3169.380859375
 10
1089.787109375
 20
-3179.37890625
 10
1079.7890625
 20
-3169.380859375
 10
1069.791015625
 20
-3179.37890625
 10
1059.79296875
 20
-3179.37890625
 10
1049.794921875
 20
-3179.37890625
 10
1039.796875
 20
-3179.37890625
 10
1029.798828125
 20
-3179.37890625
 10
1019.80078125
 20
-3179.37890625
 10
1009.802734375
 20
-3179.37890625
 10
999.8046875
 20
-3169.380859375
 10
989.806640625
 20
-3169.380859375
 10
979.80859375
 20
-3179.37890625
 10
969.810546875
 20
-3179.37890625
 10
959.8125
 20
-3179.37890625
 10
949.814453125
 20
-3179.37890625
 10
939.81640625
 20
-3179.37890625
 10
929.818359375
 20
-3179.37890625
 10
919.8203125
 20
-3179.37890625
 10
909.822265625
 20
-3179.37890625
 10
899.82421875
 20
-3189.376953125
 10
889.826171875
 20
-3189.376953125
 10
879.828125
 20
-3189.376953125
 10
869.830078125
 20
-3189.376953125
 10
859.83203125
 20
-3189.376953125
 10
849.833984375
 20
-3189.376953125
 10
839.8359375
 20
-3179.37890625
 10
829.837890625
 20
-3179.37890625
 10
819.83984375
 20
-3179.37890625
 10
809.841796875
 20
-3169.380859375
 10
799.84375
 20
-3159.3828125
 10
789.845703125
 20
-3149.384765625
 10
789.845703125
 20
-3139.38671875
 10
789.845703125
 20
-3129.388671875
 10
789.845703125
 20
-3119.390625
 10
779.84765625
 20
-3109.392578125
 10
779.84765625
 20
-3099.39453125
 10
779.84765625
 20
-3089.396484375
 10
769.849609375
 20
-3079.3984375
 10
769.849609375
 20
-3069.400390625
 10
769.849609375
 20
-3059.40234375
 10
769.849609375
 20
-3049.404296875
 10
769.849609375
 20
-3039.40625
 10
769.849609375
 20
-3029.408203125
 10
769.849609375
 20
-3019.41015625
 10
769.849609375
 20
-3009.412109375
 10
769.849609375
 20
-2999.4140625
 10
769.849609375
 20
-2989.416015625
 10
769.849609375
 20
-2979.41796875
 10
759.8515625
 20
-2969.419921875
 10
759.8515625
 20
-2959.421875
 10
749.853515625
 20
-2949.423828125
 10
749.853515625
 20
-2939.42578125
 10
749.853515625
 20
-2929.427734375
 10
749.853515625
 20
-2919.4296875
 10
749.853515625
 20
-2909.431640625
 10
749.853515625
 20
-2899.43359375
 10
749.853515625
 20
-2889.435546875
 10
749.853515625
 20
-2879.4375
 10
749.853515625
 20
-2869.439453125
 10
749.853515625
 20
-2859.44140625
 10
749.853515625
 20
-2849.443359375
 10
749.853515625
 20
-2839.4453125
 10
749.853515625
 20
-2829.447265625
 10
749.853515625
 20
-2819.44921875
 10
749.853515625
 20
-2809.451171875
 10
749.853515625
 20
-2799.453125
 10
749.853515625
 20
-2789.455078125
 10
749.853515625
 20
-2779.45703125
 10
739.85546875
 20
-2769.458984375
 10
739.85546875
 20
-2759.4609375
 10
739.85546875
 20
-2749.462890625
 10
739.85546875
 20
-2739.46484375
 10
739.85546875
 20
-2729.466796875
 10
739.85546875
 20
-2719.46875
 10
749.853515625
 20
-2709.470703125
 10
749.853515625
 20
-2699.47265625
 10
749.853515625
 20
-2689.474609375
 10
749.853515625
 20
-2679.4765625
 10
749.853515625
 20
-2669.478515625
 10
749.853515625
 20
-2659.48046875
 10
749.853515625
 20
-2649.482421875
 10
749.853515625
 20
-2639.484375
 10
749.853515625
 20
-2629.486328125
 10
749.853515625
 20
-2619.48828125
 10
749.853515625
 20
-2609.490234375
 10
749.853515625
 20
-2599.4921875
 10
749.853515625
 20
-2589.494140625
 10
749.853515625
 20
-2579.49609375
 10
749.853515625
 20
-2569.498046875
 10
749.853515625
 20
-2559.5
 10
749.853515625
 20
-2549.501953125
 10
749.853515625
 20
-2539.50390625
 10
749.853515625
 20
-2529.505859375
 10
739.85546875
 20
-2519.5078125
 10
739.85546875
 20
-2509.509765625
 10
739.85546875
 20
-2499.51171875
 10
739.85546875
 20
-2489.513671875
 10
739.85546875
 20
-2479.515625
 10
739.85546875
 20
-2469.517578125
 10
739.85546875
 20
-2459.51953125
 10
739.85546875
 20
-2449.521484375
 10
739.85546875
 20
-2439.5234375
 10
739.85546875
 20
-2429.525390625
 10
749.853515625
 20
-2419.52734375
 10
749.853515625
 20
-2409.529296875
 10
749.853515625
 20
-2399.53125
 10
749.853515625
 20
-2389.533203125
 10
749.853515625
 20
-2379.53515625
 10
749.853515625
 20
-2369.537109375
 10
749.853515625
 20
-2359.5390625
 10
759.8515625
 20
-2349.541015625
 10
759.8515625
 20
-2339.54296875
 10
759.8515625
 20
-2329.544921875
 10
759.8515625
 20
-2319.546875
 10
759.8515625
 20
-2309.548828125
 10
759.8515625
 20
-2299.55078125
 10
759.8515625
 20
-2289.552734375
 10
759.8515625
 20
-2279.5546875
 10
759.8515625
 20
-2269.556640625
 10
759.8515625
 20
-2259.55859375
 10
759.8515625
 20
-2249.560546875
 10
759.8515625
 20
-2239.5625
 10
769.849609375
 20
-2229.564453125
 10
769.849609375
 20
-2219.56640625
 10
769.849609375
 20
-2209.568359375
 10
769.849609375
 20
-2199.5703125
 10
769.849609375
 20
-2189.572265625
 10
769.849609375
 20
-2179.57421875
 10
769.849609375
 20
-2169.576171875
 10
769.849609375
 20
-2159.578125
 10
769.849609375
 20
-2149.580078125
 10
769.849609375
 20
-2139.58203125
 10
769.849609375
 20
-2129.583984375
 10
769.849609375
 20
-2119.5859375
 10
769.849609375
 20
-2109.587890625
 10
769.849609375
 20
-2099.58984375
 10
779.84765625
 20
-2089.591796875
 10
779.84765625
 20
-2079.59375
 10
779.84765625
 20
-2069.595703125
 10
779.84765625
 20
-2059.59765625
 10
779.84765625
 20
-2049.599609375
 10
779.84765625
 20
-2039.6015625
 10
779.84765625
 20
-2029.603515625
 10
779.84765625
 20
-2019.60546875
 10
779.84765625
 20
-2009.607421875
 10
789.845703125
 20
-1999.609375
 10
789.845703125
 20
-1989.611328125
 10
789.845703125
 20
-1979.61328125
 10
789.845703125
 20
-1969.615234375
 10
789.845703125
 20
-1959.6171875
 10
789.845703125
 20
-1949.619140625
 10
789.845703125
 20
-1939.62109375
 10
799.84375
 20
-1929.623046875
 10
809.841796875
 20
-1919.625
 10
819.83984375
 20
-1919.625
 10
829.837890625
 20
-1929.623046875
 10
839.8359375
 20
-1919.625
 10
849.833984375
 20
-1919.625
 10
859.83203125
 20
-1919.625
 10
869.830078125
 20
-1919.625
 10
879.828125
 20
-1919.625
 10
889.826171875
 20
-1919.625
 10
899.82421875
 20
-1919.625
 10
909.822265625
 20
-1929.623046875
 10
919.8203125
 20
-1919.625
 10
929.818359375
 20
-1919.625
 10
939.81640625
 20
-1919.625
 10
949.814453125
 20
-1919.625
 10
959.8125
 20
-1919.625
 10
969.810546875
 20
-1919.625
 10
979.80859375
 20
-1919.625
 10
989.806640625
 20
-1919.625
 10
999.8046875
 20
-1919.625
 10
1009.802734375
 20
-1919.625
 10
1019.80078125
 20
-1919.625
 10
1029.798828125
 20
-1929.623046875
 10
1039.796875
 20
-1929.623046875
 10
1049.794921875
 20
-1929.623046875
 10
1059.79296875
 20
-1929.623046875
 10
1069.791015625
 20
-1929.623046875
 10
1079.7890625
 20
-1929.623046875
 10
1089.787109375
 20
-1929.623046875
 10
1099.78515625
 20
-1929.623046875
 10
1109.783203125
 20
-1929.623046875
 10
1119.78125
 20
-1929.623046875
 10
1129.779296875
 20
-1919.625
 10
1139.77734375
 20
-1919.625
 10
1149.775390625
 20
-1919.625
 10
1159.7734375
 20
-1919.625
 10
1169.771484375
 20
-1919.625
 10
1179.76953125
 20
-1919.625
 10
1189.767578125
 20
-1919.625
 10
1199.765625
 20
-1919.625
 10
1209.763671875
 20
-1919.625
 10
1219.76171875
 20
-1919.625
 10
1229.759765625
 20
-1929.623046875
 10
1239.7578125
 20
-1919.625
 10
1249.755859375
 20
-1919.625
 10
1259.75390625
 20
-1919.625
 10
1269.751953125
 20
-1919.625
 10
1279.75
 20
-1919.625
 10
1289.748046875
 20
-1919.625
 10
1299.74609375
 20
-1919.625
 10
1309.744140625
 20
-1929.623046875
 10
1319.7421875
 20
-1929.623046875
 10
1329.740234375
 20
-1919.625
 10
1339.73828125
 20
-1929.623046875
 10
1349.736328125
 20
-1929.623046875
 10
1359.734375
 20
-1929.623046875
 10
1369.732421875
 20
-1929.623046875
 10
1379.73046875
 20
-1929.623046875
 10
1389.728515625
 20
-1929.623046875
 10
1399.7265625
 20
-1919.625
 10
1409.724609375
 20
-1919.625
 10
1419.72265625
 20
-1919.625
 10
1429.720703125
 20
-1919.625
 10
1439.71875
 20
-1919.625
 10
1449.716796875
 20
-1919.625
 10
1459.71484375
 20
-1919.625
 10
1469.712890625
 20
-1919.625
 10
1479.7109375
 20
-1919.625
 10
1489.708984375
 20
-1919.625
 10
1499.70703125
 20
-1919.625
 10
1509.705078125
 20
-1929.623046875
 10
1519.703125
 20
-1929.623046875
 10
1529.701171875
 20
-1919.625
 10
1539.69921875
 20
-1919.625
 10
1549.697265625
 20
-1929.623046875
 10
1559.6953125
 20
-1919.625
 10
1569.693359375
 20
-1919.625
 10
1579.69140625
 20
-1929.623046875
 10
1589.689453125
 20
-1929.623046875
 10
1599.6875
 20
-1929.623046875
 10
1609.685546875
 20
-1919.625
 10
1619.68359375
 20
-1919.625
 10
1629.681640625
 20
-1929.623046875
 10
1639.6796875
 20
-1919.625
 10
1649.677734375
 20
-1919.625
 10
1659.67578125
 20
-1919.625
 10
1669.673828125
 20
-1929.623046875
 10
1679.671875
 20
-1929.623046875
 10
1689.669921875
 20
-1929.623046875
 10
1699.66796875
 20
-1929.623046875
 10
1709.666015625
 20
-1929.623046875
 10
1719.6640625
 20
-1929.623046875
 10
1729.662109375
 20
-1929.623046875
 10
1739.66015625
 20
-1929.623046875
 10
1749.658203125
 20
-1929.623046875
 10
1759.65625
 20
-1929.623046875
 10
1769.654296875
 20
-1929.623046875
 10
1779.65234375
 20
-1929.623046875
 10
1789.650390625
 20
-1929.623046875
 10
1799.6484375
 20
-1929.623046875
 10
1809.646484375
 20
-1929.623046875
 10
1819.64453125
 20
-1929.623046875
 10
1829.642578125
 20
-1929.623046875
 10
1839.640625
 20
-1929.623046875
 10
1849.638671875
 20
-1929.623046875
 10
1859.63671875
 20
-1929.623046875
 10
1869.634765625
 20
-1929.623046875
 10
1879.6328125
 20
-1929.623046875
 10
1889.630859375
 20
-1929.623046875
 10
1899.62890625
 20
-1929.623046875
 10
1909.626953125
 20
-1929.623046875
 10
1919.625
 20
-1929.623046875
 10
1929.623046875
 20
-1919.625
 10
1929.623046875
 20
-1909.626953125
 10
1929.623046875
 20
-1899.62890625
 10
1929.623046875
 20
-1889.630859375
 10
1939.62109375
 20
-1879.6328125
 10
1929.623046875
 20
-1869.634765625
 10
1929.623046875
 20
-1859.63671875
 10
1929.623046875
 20
-1849.638671875
 10
1929.623046875
 20
-1839.640625
 10
1929.623046875
 20
-1829.642578125
 10
1929.623046875
 20
-1819.64453125
 10
1929.623046875
 20
-1809.646484375
 10
1929.623046875
 20
-1799.6484375
 10
1929.623046875
 20
-1789.650390625
 10
1929.623046875
 20
-1779.65234375
 10
1929.623046875
 20
-1769.654296875
 10
1929.623046875
 20
-1759.65625
 10
1929.623046875
 20
-1749.658203125
 10
1929.623046875
 20
-1739.66015625
 10
1929.623046875
 20
-1729.662109375
 10
1939.62109375
 20
-1719.6640625
 10
1929.623046875
 20
-1709.666015625
 10
1929.623046875
 20
-1699.66796875
 10
1929.623046875
 20
-1689.669921875
 10
1929.623046875
 20
-1679.671875
 10
1929.623046875
 20
-1669.673828125
 10
1929.623046875
 20
-1659.67578125
 10
1929.623046875
 20
-1649.677734375
 10
1929.623046875
 20
-1639.6796875
 10
1929.623046875
 20
-1629.681640625
 10
1929.623046875
 20
-1619.68359375
 10
1929.623046875
 20
-1609.685546875
 10
1929.623046875
 20
-1599.6875
 10
1929.623046875
 20
-1589.689453125
 10
1939.62109375
 20
-1579.69140625
 10
1929.623046875
 20
-1569.693359375
 10
1929.623046875
 20
-1559.6953125
 10
1929.623046875
 20
-1549.697265625
 10
1929.623046875
 20
-1539.69921875
 10
1929.623046875
 20
-1529.701171875
 10
1929.623046875
 20
-1519.703125
 10
1929.623046875
 20
-1509.705078125
 10
1929.623046875
 20
-1499.70703125
 10
1929.623046875
 20
-1489.708984375
 10
1929.623046875
 20
-1479.7109375
 10
1929.623046875
 20
-1469.712890625
 10
1929.623046875
 20
-1459.71484375
 10
1929.623046875
 20
-1449.716796875
 10
1929.623046875
 20
-1439.71875
 10
1929.623046875
 20
-1429.720703125
 10
1929.623046875
 20
-1419.72265625
 10
1929.623046875
 20
-1409.724609375
 10
1929.623046875
 20
-1399.7265625
 10
1929.623046875
 20
-1389.728515625
 10
1929.623046875
 20
-1379.73046875
 10
1929.623046875
 20
-1369.732421875
 10
1919.625
 20
-1359.734375
 10
1929.623046875
 20
-1349.736328125
 10
1919.625
 20
-1339.73828125
 10
1919.625
 20
-1329.740234375
 10
1919.625
 20
-1319.7421875
 10
1919.625
 20
-1309.744140625
 10
1919.625
 20
-1299.74609375
 10
1929.623046875
 20
-1289.748046875
 10
1929.623046875
 20
-1279.75
 10
1929.623046875
 20
-1269.751953125
 10
1929.623046875
 20
-1259.75390625
 10
1919.625
 20
-1249.755859375
 10
1919.625
 20
-1239.7578125
 10
1919.625
 20
-1229.759765625
 10
1919.625
 20
-1219.76171875
 10
1929.623046875
 20
-1209.763671875
 10
1919.625
 20
-1199.765625
 10
1919.625
 20
-1189.767578125
 10
1919.625
 20
-1179.76953125
 10
1919.625
 20
-1169.771484375
 10
1919.625
 20
-1159.7734375
 10
1919.625
 20
-1149.775390625
 10
1919.625
 20
-1139.77734375
 10
1929.623046875
 20
-1129.779296875
 10
1929.623046875
 20
-1119.78125
 10
1929.623046875
 20
-1109.783203125
 10
1929.623046875
 20
-1099.78515625
 10
1929.623046875
 20
-1089.787109375
 10
1929.623046875
 20
-1079.7890625
 10
1929.623046875
 20
-1069.791015625
 10
1929.623046875
 20
-1059.79296875
 10
1929.623046875
 20
-1049.794921875
 10
1929.623046875
 20
-1039.796875
 10
1929.623046875
 20
-1029.798828125
 10
1929.623046875
 20
-1019.80078125
 10
1919.625
 20
-1009.802734375
 10
1919.625
 20
-999.8046875
 10
1919.625
 20
-989.806640625
 10
1919.625
 20
-979.80859375
 10
1919.625
 20
-969.810546875
 10
1929.623046875
 20
-959.8125
 10
1929.623046875
 20
-949.814453125
 10
1929.623046875
 20
-939.81640625
 10
1929.623046875
 20
-929.818359375
 10
1929.623046875
 20
-919.8203125
 10
1929.623046875
 20
-909.822265625
 10
1929.623046875
 20
-899.82421875
 10
1929.623046875
 20
-889.826171875
 10
1929.623046875
 20
-879.828125
 10
1919.625
 20
-869.830078125
 10
1919.625
 20
-859.83203125
 10
1919.625
 20
-849.833984375
 10
1919.625
 20
-839.8359375
 10
1919.625
 20
-829.837890625
 10
1919.625
 20
-819.83984375
 10
1919.625
 20
-809.841796875
 10
1919.625
 20
-799.84375
 10
1929.623046875
 20
-789.845703125
 10
1929.623046875
 20
-779.84765625
 10
1939.62109375
 20
-769.849609375
 10
1949.619140625
 20
-769.849609375
 10
1959.6171875
 20
-769.849609375
 10
1969.615234375
 20
-769.849609375
 10
1979.61328125
 20
-769.849609375
 10
1989.611328125
 20
-769.849609375
 10
1999.609375
 20
-769.849609375
 10
2009.607421875
 20
-769.849609375
 10
2019.60546875
 20
-769.849609375
 10
2029.603515625
 20
-769.849609375
 10
2039.6015625
 20
-769.849609375
 10
2049.599609375
 20
-769.849609375
 10
2059.59765625
 20
-769.849609375
 10
2069.595703125
 20
-769.849609375
 10
2079.59375
 20
-769.849609375
 10
2089.591796875
 20
-769.849609375
 10
2099.58984375
 20
-769.849609375
 10
2109.587890625
 20
-769.849609375
 10
2119.5859375
 20
-769.849609375
 10
2129.583984375
 20
-769.849609375
 10
2139.58203125
 20
-769.849609375
 10
2149.580078125
 20
-769.849609375
 10
2159.578125
 20
-769.849609375
 10
2169.576171875
 20
-769.849609375
 10
2179.57421875
 20
-769.849609375
 10
2189.572265625
 20
-769.849609375
 10
2199.5703125
 20
-769.849609375
  0
LWPOLYLINE
  5
39
330
17
100
AcDbEntity
  8
substrate
100
AcDbPolyline
 90
4
 70
1
 43
0.5
 10
2799.453125
 20
-699.86328125
 10
2809.451171875
 20
-689.865234375
 10
2819.44921875
 20
-699.86328125
 10
2809.451171875
 20
-709.861328125
  0
LWPOLYLINE
  5
3A
330
17
100
AcDbEntity
  8
substrate
100
AcDbPolyline
 90
6
 70
1
 43
0.5
 10
2479.515625
 20
-689.865234375
 10
2489.513671875
 20
-679.8671875
 10
2499.51171875
 20
-689.865234375
 10
2499.51171875
 20
-699.86328125
 10
2489.513671875
 20
-709.861328125
 10
2479.515625
 20
-699.86328125
  0
LWPOLYLINE
  5
3B
330
17
100
AcDbEntity
  8
substrate
100
AcDbPolyline
 90
4
 70
1
 43
0.5
 10
2469.517578125
 20
-629.876953125
 10
2479.515625
 20
-619.87890625
 10
2489.513671875
 20
-629.876953125
 10
2479.515625
 20
-639.875
  0
LWPOLYLINE
  5
3C
330
17
100
AcDbEntity
  8
substrate
100
AcDbPolyline
 90
4
 70
1
 43
0.5
 10
2149.580078125
 20
-629.876953125
 10
2159.578125
 20
-619.87890625
 10
2169.576171875
 20
-629.876953125
 10
2159.578125
 20
-639.875
  0
LWPOLYLINE
  5
3D
330
17
100
AcDbEntity
  8
substrate
100
AcDbPolyline
 90
4
 70
1
 43
0.5
 10
2479.515625
 20
-619.87890625
 10
2489.513671875
 20
-609.880859375
 10
2499.51171875
 20
-619.87890625
 10
2489.513671875
 20
-629.876953125
  0
LWPOLYLINE
  5
3E
330
17
100
AcDbEntity
  8
substrate
100
AcDbPolyline
 90
4
 70
1
 43
0.5
 10
2459.51953125
 20
-619.87890625
 10
2469.517578125
 20
-609.880859375
 10
2479.515625
 20
-619.87890625
 10
2469.517578125
 20
-629.876953125
  0
LWPOLYLINE
  5
3F
330
17
100
AcDbEntity
  8
substrate
100
AcDbPolyline
 90
4
 70
1
 43
0.5
 10
2439.5234375
 20
-619.87890625
 10
2449.521484375
 20
-609.880859375
 10
2459.51953125
 20
-619.87890625
 10
2449.521484375
 20
-629.876953125
  0
LWPOLYLINE
  5
40
330
17
100
AcDbEntity
  8
substrate
100
AcDbPolyline
 90
4
 70
1
 43
0.5
 10
2419.52734375
 20
-619.87890625
 10
2429.525390625
 20
-609.880859375
 10
2439.5234375
 20
-619.87890625
 10
2429.525390625
 20
-629.876953125
  0
LWPOLYLINE
  5
41
330
17
100
AcDbEntity
  8
substrate
100
AcDbPolyline
 90
4
 70
1
 43
0.5
 10
2359.5390625
 20
-619.87890625
 10
2369.537109375
 20
-609.880859375
 10
2379.53515625
 20
-619.87890625
 10
2369.537109375
 20
-629.876953125
  0
LWPOLYLINE
  5
42
330
17
100
AcDbEntity
  8
substrate
100
AcDbPolyline
 90
4
 70
1
 43
0.5
 10
2159.578125
 20
-619.87890625
 10
2169.576171875
 20
-609.880859375
 10
2179.57421875
 20
-619.87890625
 10
2169.576171875
 20
-629.876953125
  0
ENDSEC
  0
SECTION
  2
OBJECTS
  0
DICTIONARY
  5
A
330
0
100
AcDbDictionary
280
0
281
1
  3
ACAD_COLOR
350
B
  3
ACAD_GROUP
350
C
  3
ACAD_LAYOUT
350
D
  3
ACAD_MATERIAL
350
E
  3
ACAD_MLEADERSTYLE
350
F
  3
ACAD_MLINESTYLE
350
10
  3
ACAD_PLOTSETTINGS
350
11
  3
ACAD_PLOTSTYLENAME
350
12
  3
ACAD_SCALELIST
350
14
  3
ACAD_TABLESTYLE
350
15
  3
ACAD_VISUALSTYLE
350
16
  3
EZDXF_META
350
2D
  0
DICTIONARY
  5
B
330
A
100
AcDbDictionary
280
0
281
1
  0
DICTIONARY
  5
C
330
A
100
AcDbDictionary
280
0
281
1
  0
DICTIONARY
  5
D
330
A
100
AcDbDictionary
280
0
281
1
  3
Model
350
1A
  3
Layout1
350
1E
  0
DICTIONARY
  5
E
330
A
100
AcDbDictionary
280
0
281
1
  3
ByBlock
350
1F
  3
ByLayer
350
20
  3
Global
350
21
  0
DICTIONARY
  5
F
330
A
100
AcDbDictionary
280
0
281
1
  3
Standard
350
2C
  0
DICTIONARY
  5
10
330
A
100
AcDbDictionary
280
0
281
1
  3
Standard
350
22
  0
DICTIONARY
  5
11
330
A
100
AcDbDictionary
280
0
281
1
  0
ACDBDICTIONARYWDFLT
  5
12
330
A
100
AcDbDictionary
280
0
281
1
  3
Normal
350
13
100
AcDbDictionaryWithDefault
340
13
  0
ACDBPLACEHOLDER
  5
13
330
12
  0
DICTIONARY
  5
14
330
A
100
AcDbDictionary
280
0
281
1
  0
DICTIONARY
  5
15
330
A
100
AcDbDictionary
280
0
281
1
  0
DICTIONARY
  5
16
330
A
100
AcDbDictionary
280
0
281
1
  0
LAYOUT
  5
1A
330
D
100
AcDbPlotSettings
  1

  2
Adobe PDF
  4
A3
  6

 40
7.5
 41
20.0
 42
7.5
 43
20.0
 44
420.0
 45
297.0
 46
0.0
 47
0.0
 48
0.0
 49
0.0
140
0.0
141
0.0
142
1.0
143
1.0
 70
1024
 72
1
 73
0
 74
5
  7

 75
16
 76
0
 77
2
 78
300
147
1.0
148
0.0
149
0.0
100
AcDbLayout
  1
Model
 70
1
 71
0
 10
0.0
 20
0.0
 11
420.0
 21
297.0
 12
0.0
 22
0.0
 32
0.0
 14
1e+20
 24
1e+20
 34
1e+20
 15
-1e+20
 25
-1e+20
 35
-1e+20
146
0.0
 13
0.0
 23
0.0
 33
0.0
 16
1.0
 26
0.0
 36
0.0
 17
0.0
 27
1.0
 37
0.0
 76
1
330
17
  0
LAYOUT
  5
1E
330
D
100
AcDbPlotSettings
  1

  2
Adobe PDF
  4
A3
  6

 40
7.5
 41
20.0
 42
7.5
 43
20.0
 44
420.0
 45
297.0
 46
0.0
 47
0.0
 48
0.0
 49
0.0
140
0.0
141
0.0
142
1.0
143
1.0
 70
0
 72
1
 73
0
 74
5
  7

 75
16
 76
0
 77
2
 78
300
147
1.0
148
0.0
149
0.0
100
AcDbLayout
  1
Layout1
 70
1
 71
1
 10
0.0
 20
0.0
 11
420.0
 21
297.0
 12
0.0
 22
0.0
 32
0.0
 14
1e+20
 24
1e+20
 34
1e+20
 15
-1e+20
 25
-1e+20
 35
-1e+20
146
0.0
 13
0.0
 23
0.0
 33
0.0
 16
1.0
 26
0.0
 36
0.0
 17
0.0
 27
1.0
 37
0.0
 76
1
330
1B
  0
MATERIAL
  5
1F
102
{ACAD_REACTORS
330
E
102
}
330
E
100
AcDbMaterial
  1
ByBlock
  2

 70
0
 40
1.0
 71
1
 41
1.0
 91
-1023410177
 42
1.0
 72
1
  3

 73
1
 74
1
 75
1
 44
0.5
 73
0
 45
1.0
 46
1.0
 77
1
  4

 78
1
 79
1
170
1
 48
1.0
171
1
  6

172
1
173
1
174
1
140
1.0
141
1.0
175
1
  7

176
1
177
1
178
1
143
1.0
179
1
  8

270
1
271
1
272
1
145
1.0
146
1.0
273
1
  9

274
1
275
1
276
1
 42
1.0
 72
1
  3

 73
1
 74
1
 75
1
 94
63
  0
MATERIAL
  5
20
102
{ACAD_REACTORS
330
E
102
}
330
E
100
AcDbMaterial
  1
ByLayer
  2

 70
0
 40
1.0
 71
1
 41
1.0
 91
-1023410177
 42
1.0
 72
1
  3

 73
1
 74
1
 75
1
 44
0.5
 73
0
 45
1.0
 46
1.0
 77
1
  4

 78
1
 79
1
170
1
 48
1.0
171
1
  6

172
1
173
1
174
1
140
1.0
141
1.0
175
1
  7

176
1
177
1
178
1
143
1.0
179
1
  8

270
1
271
1
272
1
145
1.0
146
1.0
273
1
  9

274
1
275
1
276
1
 42
1.0
 72
1
  3

 73
1
 74
1
 75
1
 94
63
  0
MATERIAL
  5
21
102
{ACAD_REACTORS
330
E
102
}
330
E
100
AcDbMaterial
  1
Global
  2

 70
0
 40
1.0
 71
1
 41
1.0
 91
-1023410177
 42
1.0
 72
1
  3

 73
1
 74
1
 75
1
 44
0.5
 73
0
 45
1.0
 46
1.0
 77
1
  4

 78
1
 79
1
170
1
 48
1.0
171
1
  6

172
1
173
1
174
1
140
1.0
141
1.0
175
1
  7

176
1
177
1
178
1
143
1.0
179
1
  8

270
1
271
1
272
1
145
1.0
146
1.0
273
1
  9

274
1
275
1
276
1
 42
1.0
 72
1
  3

 73
1
 74
1
 75
1
 94
63
  0
MLINESTYLE
  5
22
102
{ACAD_REACTORS
330
10
102
}
330
10
100
AcDbMlineStyle
  2
Standard
 70
0
  3

 62
256
 51
90.0
 52
90.0
 71
2
 49
0.5
 62
256
  6
BYLAYER
 49
-0.5
 62
256
  6
BYLAYER
  0
MLEADERSTYLE
  5
2C
102
{ACAD_REACTORS
330
F
102
}
330
F
100
AcDbMLeaderStyle
179
2
170
2
171
1
172
0
 90
2
 40
0.0
 41
0.0
173
1
 91
-1056964608
 92
-2
290
1
 42
2.0
291
1
 43
8.0
  3
Standard
 44
4.0
300

342
29
174
1
175
1
176
0
178
1
 93
-1056964608
 45
4.0
292
0
297
0
 46
4.0
 94
-1056964608
 47
1.0
 49
1.0
140
1.0
294
1
141
0.0
177
0
142
1.0
295
0
296
0
143
3.75
271
0
272
9
273
9
  0
DICTIONARY
  5
2D
330
A
100
AcDbDictionary
281
1
  3
CREATED_BY_EZDXF
350
2E
  3
WRITTEN_BY_EZDXF
350
45
  0
DICTIONARYVAR
  5
2E
330
2D
100
DictionaryVariables
280
0
  1
1.1.0 @ 2025-02-20T13:43:34.170023+00:00
  0
DICTIONARYVAR
  5
45
330
2D
100
DictionaryVariables
280
0
  1
1.1.0 @ 2025-02-20T13:43:34.179335+00:00
  0
ENDSEC
  0
EOF
