  0
SECTION
  2
HEADER
  9
$ACADVER
  1
AC1027
  9
$ACADMAINTVER
 70
105
  9
$DWGCODEPAGE
  3
ANSI_1252
  9
$LASTSAVEDBY
  1
ezdxf
  9
$REQUIREDVERSIONS
160
0
  9
$INSBASE
 10
0.0
 20
0.0
 30
0.0
  9
$EXTMIN
 10
1e+20
 20
1e+20
 30
1e+20
  9
$EXTMAX
 10
-1e+20
 20
-1e+20
 30
-1e+20
  9
$LIMMIN
 10
0.0
 20
0.0
  9
$LIMMAX
 10
420.0
 20
297.0
  9
$ORTHOMODE
 70
0
  9
$REGENMODE
 70
1
  9
$FILLMODE
 70
1
  9
$QTEXTMODE
 70
0
  9
$MIRRTEXT
 70
1
  9
$LTSCALE
 40
1.0
  9
$ATTMODE
 70
1
  9
$TEXTSIZE
 40
2.5
  9
$TRACEWID
 40
1.0
  9
$TEXTSTYLE
  7
Standard
  9
$CLAYER
  8
0
  9
$CELTYPE
  6
ByLayer
  9
$CECOLOR
 62
256
  9
$CELTSCALE
 40
1.0
  9
$DISPSILH
 70
0
  9
$DIMSCALE
 40
1.0
  9
$DIMASZ
 40
2.5
  9
$DIMEXO
 40
0.625
  9
$DIMDLI
 40
3.75
  9
$DIMRND
 40
0.0
  9
$DIMDLE
 40
0.0
  9
$DIMEXE
 40
1.25
  9
$DIMTP
 40
0.0
  9
$DIMTM
 40
0.0
  9
$DIMTXT
 40
2.5
  9
$DIMCEN
 40
2.5
  9
$DIMTSZ
 40
0.0
  9
$DIMTOL
 70
0
  9
$DIMLIM
 70
0
  9
$DIMTIH
 70
0
  9
$DIMTOH
 70
0
  9
$DIMSE1
 70
0
  9
$DIMSE2
 70
0
  9
$DIMTAD
 70
1
  9
$DIMZIN
 70
8
  9
$DIMBLK
  1

  9
$DIMASO
 70
1
  9
$DIMSHO
 70
1
  9
$DIMPOST
  1

  9
$DIMAPOST
  1

  9
$DIMALT
 70
0
  9
$DIMALTD
 70
3
  9
$DIMALTF
 40
0.03937007874
  9
$DIMLFAC
 40
1.0
  9
$DIMTOFL
 70
1
  9
$DIMTVP
 40
0.0
  9
$DIMTIX
 70
0
  9
$DIMSOXD
 70
0
  9
$DIMSAH
 70
0
  9
$DIMBLK1
  1

  9
$DIMBLK2
  1

  9
$DIMSTYLE
  2
ISO-25
  9
$DIMCLRD
 70
0
  9
$DIMCLRE
 70
0
  9
$DIMCLRT
 70
0
  9
$DIMTFAC
 40
1.0
  9
$DIMGAP
 40
0.625
  9
$DIMJUST
 70
0
  9
$DIMSD1
 70
0
  9
$DIMSD2
 70
0
  9
$DIMTOLJ
 70
0
  9
$DIMTZIN
 70
8
  9
$DIMALTZ
 70
0
  9
$DIMALTTZ
 70
0
  9
$DIMUPT
 70
0
  9
$DIMDEC
 70
2
  9
$DIMTDEC
 70
2
  9
$DIMALTU
 70
2
  9
$DIMALTTD
 70
3
  9
$DIMTXSTY
  7
Standard
  9
$DIMAUNIT
 70
0
  9
$DIMADEC
 70
0
  9
$DIMALTRND
 40
0.0
  9
$DIMAZIN
 70
0
  9
$DIMDSEP
 70
44
  9
$DIMATFIT
 70
3
  9
$DIMFRAC
 70
0
  9
$DIMLDRBLK
  1

  9
$DIMLUNIT
 70
2
  9
$DIMLWD
 70
-2
  9
$DIMLWE
 70
-2
  9
$DIMTMOVE
 70
0
  9
$DIMFXL
 40
1.0
  9
$DIMFXLON
 70
0
  9
$DIMJOGANG
 40
0.785398163397
  9
$DIMTFILL
 70
0
  9
$DIMTFILLCLR
 70
0
  9
$DIMARCSYM
 70
0
  9
$DIMLTYPE
  6

  9
$DIMLTEX1
  6

  9
$DIMLTEX2
  6

  9
$DIMTXTDIRECTION
 70
0
  9
$LUNITS
 70
2
  9
$LUPREC
 70
4
  9
$SKETCHINC
 40
1.0
  9
$FILLETRAD
 40
10.0
  9
$AUNITS
 70
0
  9
$AUPREC
 70
2
  9
$MENU
  1
.
  9
$ELEVATION
 40
0.0
  9
$PELEVATION
 40
0.0
  9
$THICKNESS
 40
0.0
  9
$LIMCHECK
 70
0
  9
$CHAMFERA
 40
0.0
  9
$CHAMFERB
 40
0.0
  9
$CHAMFERC
 40
0.0
  9
$CHAMFERD
 40
0.0
  9
$SKPOLY
 70
0
  9
$TDCREATE
 40
2460707.5130902776
  9
$TDUCREATE
 40
2458532.153996898
  9
$TDUPDATE
 40
2460707.5130902776
  9
$TDUUPDATE
 40
2458532.1544311
  9
$TDINDWG
 40
0.0
  9
$TDUSRTIMER
 40
0.0
  9
$USRTIMER
 70
1
  9
$ANGBASE
 50
0.0
  9
$ANGDIR
 70
0
  9
$PDMODE
 70
0
  9
$PDSIZE
 40
0.0
  9
$PLINEWID
 40
0.0
  9
$SPLFRAME
 70
0
  9
$SPLINETYPE
 70
6
  9
$SPLINESEGS
 70
8
  9
$HANDSEED
  5
41
  9
$SURFTAB1
 70
6
  9
$SURFTAB2
 70
6
  9
$SURFTYPE
 70
6
  9
$SURFU
 70
6
  9
$SURFV
 70
6
  9
$UCSBASE
  2

  9
$UCSNAME
  2

  9
$UCSORG
 10
0.0
 20
0.0
 30
0.0
  9
$UCSXDIR
 10
1.0
 20
0.0
 30
0.0
  9
$UCSYDIR
 10
0.0
 20
1.0
 30
0.0
  9
$UCSORTHOREF
  2

  9
$UCSORTHOVIEW
 70
0
  9
$UCSORGTOP
 10
0.0
 20
0.0
 30
0.0
  9
$UCSORGBOTTOM
 10
0.0
 20
0.0
 30
0.0
  9
$UCSORGLEFT
 10
0.0
 20
0.0
 30
0.0
  9
$UCSORGRIGHT
 10
0.0
 20
0.0
 30
0.0
  9
$UCSORGFRONT
 10
0.0
 20
0.0
 30
0.0
  9
$UCSORGBACK
 10
0.0
 20
0.0
 30
0.0
  9
$PUCSBASE
  2

  9
$PUCSNAME
  2

  9
$PUCSORG
 10
0.0
 20
0.0
 30
0.0
  9
$PUCSXDIR
 10
1.0
 20
0.0
 30
0.0
  9
$PUCSYDIR
 10
0.0
 20
1.0
 30
0.0
  9
$PUCSORTHOREF
  2

  9
$PUCSORTHOVIEW
 70
0
  9
$PUCSORGTOP
 10
0.0
 20
0.0
 30
0.0
  9
$PUCSORGBOTTOM
 10
0.0
 20
0.0
 30
0.0
  9
$PUCSORGLEFT
 10
0.0
 20
0.0
 30
0.0
  9
$PUCSORGRIGHT
 10
0.0
 20
0.0
 30
0.0
  9
$PUCSORGFRONT
 10
0.0
 20
0.0
 30
0.0
  9
$PUCSORGBACK
 10
0.0
 20
0.0
 30
0.0
  9
$USERI1
 70
0
  9
$USERI2
 70
0
  9
$USERI3
 70
0
  9
$USERI4
 70
0
  9
$USERI5
 70
0
  9
$USERR1
 40
0.0
  9
$USERR2
 40
0.0
  9
$USERR3
 40
0.0
  9
$USERR4
 40
0.0
  9
$USERR5
 40
0.0
  9
$WORLDVIEW
 70
1
  9
$SHADEDGE
 70
3
  9
$SHADEDIF
 70
70
  9
$TILEMODE
 70
1
  9
$MAXACTVP
 70
64
  9
$PINSBASE
 10
0.0
 20
0.0
 30
0.0
  9
$PLIMCHECK
 70
0
  9
$PEXTMIN
 10
1e+20
 20
1e+20
 30
1e+20
  9
$PEXTMAX
 10
-1e+20
 20
-1e+20
 30
-1e+20
  9
$PLIMMIN
 10
0.0
 20
0.0
  9
$PLIMMAX
 10
420.0
 20
297.0
  9
$UNITMODE
 70
0
  9
$VISRETAIN
 70
1
  9
$PLINEGEN
 70
0
  9
$PSLTSCALE
 70
1
  9
$TREEDEPTH
 70
3020
  9
$CMLSTYLE
  2
Standard
  9
$CMLJUST
 70
0
  9
$CMLSCALE
 40
20.0
  9
$PROXYGRAPHICS
 70
1
  9
$MEASUREMENT
 70
1
  9
$CELWEIGHT
370
-1
  9
$ENDCAPS
280
0
  9
$JOINSTYLE
280
0
  9
$LWDISPLAY
290
0
  9
$INSUNITS
 70
6
  9
$HYPERLINKBASE
  1

  9
$STYLESHEET
  1

  9
$XEDIT
290
1
  9
$CEPSNTYPE
380
0
  9
$PSTYLEMODE
290
1
  9
$FINGERPRINTGUID
  2
{D4B6E0B4-8F19-4461-9816-DD164AD79ECF}
  9
$VERSIONGUID
  2
{974BBDCC-BF9A-45B8-8925-A824AA9CA271}
  9
$EXTNAMES
290
1
  9
$PSVPSCALE
 40
0.0
  9
$OLESTARTUP
290
0
  9
$SORTENTS
280
127
  9
$INDEXCTL
280
0
  9
$HIDETEXT
280
1
  9
$XCLIPFRAME
280
0
  9
$HALOGAP
280
0
  9
$OBSCOLOR
 70
257
  9
$OBSLTYPE
280
0
  9
$INTERSECTIONDISPLAY
280
0
  9
$INTERSECTIONCOLOR
 70
257
  9
$DIMASSOC
280
2
  9
$PROJECTNAME
  1

  9
$CAMERADISPLAY
290
0
  9
$LENSLENGTH
 40
50.0
  9
$CAMERAHEIGHT
 40
0.0
  9
$STEPSPERSEC
 40
24.0
  9
$STEPSIZE
 40
100.0
  9
$3DDWFPREC
 40
2.0
  9
$PSOLWIDTH
 40
0.005
  9
$PSOLHEIGHT
 40
0.08
  9
$LOFTANG1
 40
1.570796326795
  9
$LOFTANG2
 40
1.570796326795
  9
$LOFTMAG1
 40
0.0
  9
$LOFTMAG2
 40
0.0
  9
$LOFTPARAM
 70
7
  9
$LOFTNORMALS
280
1
  9
$LATITUDE
 40
37.795
  9
$LONGITUDE
 40
-122.394
  9
$NORTHDIRECTION
 40
0.0
  9
$TIMEZONE
 70
-8000
  9
$LIGHTGLYPHDISPLAY
280
1
  9
$TILEMODELIGHTSYNCH
280
1
  9
$CMATERIAL
347
20
  9
$SOLIDHIST
280
0
  9
$SHOWHIST
280
1
  9
$DWFFRAME
280
2
  9
$DGNFRAME
280
2
  9
$REALWORLDSCALE
290
1
  9
$INTERFERECOLOR
 62
256
  9
$CSHADOW
280
0
  9
$SHADOWPLANELOCATION
 40
0.0
  0
ENDSEC
  0
SECTION
  2
CLASSES
  0
CLASS
  1
ACDBDICTIONARYWDFLT
  2
AcDbDictionaryWithDefault
  3
ObjectDBX Classes
 90
0
 91
0
280
0
281
0
  0
CLASS
  1
SUN
  2
AcDbSun
  3
SCENEOE
 90
1153
 91
0
280
0
281
0
  0
CLASS
  1
VISUALSTYLE
  2
AcDbVisualStyle
  3
ObjectDBX Classes
 90
4095
 91
0
280
0
281
0
  0
CLASS
  1
MATERIAL
  2
AcDbMaterial
  3
ObjectDBX Classes
 90
1153
 91
0
280
0
281
0
  0
CLASS
  1
SCALE
  2
AcDbScale
  3
ObjectDBX Classes
 90
1153
 91
0
280
0
281
0
  0
CLASS
  1
TABLESTYLE
  2
AcDbTableStyle
  3
ObjectDBX Classes
 90
4095
 91
0
280
0
281
0
  0
CLASS
  1
MLEADERSTYLE
  2
AcDbMLeaderStyle
  3
ACDB_MLEADERSTYLE_CLASS
 90
4095
 91
0
280
0
281
0
  0
CLASS
  1
DICTIONARYVAR
  2
AcDbDictionaryVar
  3
ObjectDBX Classes
 90
0
 91
0
280
0
281
0
  0
CLASS
  1
CELLSTYLEMAP
  2
AcDbCellStyleMap
  3
ObjectDBX Classes
 90
1152
 91
0
280
0
281
0
  0
CLASS
  1
MENTALRAYRENDERSETTINGS
  2
AcDbMentalRayRenderSettings
  3
SCENEOE
 90
1024
 91
0
280
0
281
0
  0
CLASS
  1
ACDBDETAILVIEWSTYLE
  2
AcDbDetailViewStyle
  3
ObjectDBX Classes
 90
1025
 91
0
280
0
281
0
  0
CLASS
  1
ACDBSECTIONVIEWSTYLE
  2
AcDbSectionViewStyle
  3
ObjectDBX Classes
 90
1025
 91
0
280
0
281
0
  0
CLASS
  1
RASTERVARIABLES
  2
AcDbRasterVariables
  3
ISM
 90
0
 91
0
280
0
281
0
  0
CLASS
  1
ACDBPLACEHOLDER
  2
AcDbPlaceHolder
  3
ObjectDBX Classes
 90
0
 91
0
280
0
281
0
  0
CLASS
  1
LAYOUT
  2
AcDbLayout
  3
ObjectDBX Classes
 90
0
 91
0
280
0
281
0
  0
ENDSEC
  0
SECTION
  2
TABLES
  0
TABLE
  2
VPORT
  5
8
330
0
100
AcDbSymbolTable
 70
1
  0
VPORT
  5
23
330
8
100
AcDbSymbolTableRecord
100
AcDbViewportTableRecord
  2
*Active
 70
0
 10
0.0
 20
0.0
 11
1.0
 21
1.0
 12
0.0
 22
0.0
 13
0.0
 23
0.0
 14
0.5
 24
0.5
 15
0.5
 25
0.5
 16
0.0
 26
0.0
 36
1.0
 17
0.0
 27
0.0
 37
0.0
 40
1000.0
 41
1.34
 42
50.0
 43
0.0
 44
0.0
 50
0.0
 51
0.0
 71
0
 72
1000
 73
1
 74
3
 75
0
 76
0
 77
0
 78
0
281
0
 65
0
146
0.0
  0
ENDTAB
  0
TABLE
  2
LTYPE
  5
2
330
0
100
AcDbSymbolTable
 70
3
  0
LTYPE
  5
24
330
2
100
AcDbSymbolTableRecord
100
AcDbLinetypeTableRecord
  2
ByBlock
 70
0
  3

 72
65
 73
0
 40
0.0
  0
LTYPE
  5
25
330
2
100
AcDbSymbolTableRecord
100
AcDbLinetypeTableRecord
  2
ByLayer
 70
0
  3

 72
65
 73
0
 40
0.0
  0
LTYPE
  5
26
330
2
100
AcDbSymbolTableRecord
100
AcDbLinetypeTableRecord
  2
Continuous
 70
0
  3

 72
65
 73
0
 40
0.0
  0
ENDTAB
  0
TABLE
  2
LAYER
  5
1
330
0
100
AcDbSymbolTable
 70
5
  0
LAYER
  5
27
330
1
100
AcDbSymbolTableRecord
100
AcDbLayerTableRecord
  2
0
 70
0
 62
7
  6
Continuous
370
-3
390
13
347
21
  0
LAYER
  5
28
330
1
100
AcDbSymbolTableRecord
100
AcDbLayerTableRecord
  2
Defpoints
 70
0
 62
7
  6
Continuous
290
0
370
-3
390
13
347
21
  0
LAYER
  5
2F
330
1
100
AcDbSymbolTableRecord
100
AcDbLayerTableRecord
  2
conductor
 70
0
 62
1
  6
Continuous
370
-3
390
13
347
21
  0
LAYER
  5
30
330
1
100
AcDbSymbolTableRecord
100
AcDbLayerTableRecord
  2
dielectric
 70
0
 62
8
  6
Continuous
370
-3
390
13
347
21
  0
LAYER
  5
31
330
1
100
AcDbSymbolTableRecord
100
AcDbLayerTableRecord
  2
substrate
 70
0
 62
5
  6
Continuous
370
-3
390
13
347
21
  0
ENDTAB
  0
TABLE
  2
STYLE
  5
5
330
0
100
AcDbSymbolTable
 70
1
  0
STYLE
  5
29
330
5
100
AcDbSymbolTableRecord
100
AcDbTextStyleTableRecord
  2
Standard
 70
0
 40
0.0
 41
1.0
 50
0.0
 71
0
 42
2.5
  3
txt
  4

  0
ENDTAB
  0
TABLE
  2
VIEW
  5
7
330
0
100
AcDbSymbolTable
 70
0
  0
ENDTAB
  0
TABLE
  2
UCS
  5
6
330
0
100
AcDbSymbolTable
 70
0
  0
ENDTAB
  0
TABLE
  2
APPID
  5
3
330
0
100
AcDbSymbolTable
 70
3
  0
APPID
  5
2A
330
3
100
AcDbSymbolTableRecord
100
AcDbRegAppTableRecord
  2
ACAD
 70
0
  0
APPID
  5
3E
330
3
100
AcDbSymbolTableRecord
100
AcDbRegAppTableRecord
  2
HATCHBACKGROUNDCOLOR
 70
0
  0
APPID
  5
3F
330
3
100
AcDbSymbolTableRecord
100
AcDbRegAppTableRecord
  2
EZDXF
 70
0
  0
ENDTAB
  0
TABLE
  2
DIMSTYLE
  5
4
330
0
100
AcDbSymbolTable
 70
1
100
AcDbDimStyleTable
  0
DIMSTYLE
105
2B
330
4
100
AcDbSymbolTableRecord
100
AcDbDimStyleTableRecord
  2
Standard
 70
0
 40
1.0
 41
2.5
 42
0.625
 43
3.75
 44
1.25
 45
0.0
 46
0.0
 47
0.0
 48
0.0
 49
2.5
140
2.5
141
2.5
142
0.0
143
0.03937007874
144
1.0
145
0.0
146
1.0
147
0.625
148
0.0
 69
0
 70
0
 71
0
 72
0
 73
0
 74
0
 75
0
 76
0
 77
1
 78
8
 79
3
170
0
171
3
172
1
173
0
174
0
175
0
176
0
177
0
178
0
179
2
271
2
272
2
273
2
274
3
275
0
276
0
277
2
278
44
279
0
280
0
281
0
282
0
283
0
284
8
285
0
286
0
288
0
289
3
290
0
371
-2
372
-2
  0
ENDTAB
  0
TABLE
  2
BLOCK_RECORD
  5
9
330
0
100
AcDbSymbolTable
 70
2
  0
BLOCK_RECORD
  5
17
330
9
100
AcDbSymbolTableRecord
100
AcDbBlockTableRecord
  2
*Model_Space
340
1A
 70
0
280
1
281
0
  0
BLOCK_RECORD
  5
1B
330
9
100
AcDbSymbolTableRecord
100
AcDbBlockTableRecord
  2
*Paper_Space
340
1E
 70
0
280
1
281
0
  0
ENDTAB
  0
ENDSEC
  0
SECTION
  2
BLOCKS
  0
BLOCK
  5
18
330
17
100
AcDbEntity
  8
0
100
AcDbBlockBegin
  2
*Model_Space
 70
0
 10
0.0
 20
0.0
 30
0.0
  3
*Model_Space
  1

  0
ENDBLK
  5
19
330
17
100
AcDbEntity
  8
0
100
AcDbBlockEnd
  0
BLOCK
  5
1C
330
1B
100
AcDbEntity
  8
0
100
AcDbBlockBegin
  2
*Paper_Space
 70
0
 10
0.0
 20
0.0
 30
0.0
  3
*Paper_Space
  1

  0
ENDBLK
  5
1D
330
1B
100
AcDbEntity
  8
0
100
AcDbBlockEnd
  0
ENDSEC
  0
SECTION
  2
ENTITIES
  0
LWPOLYLINE
  5
32
330
17
100
AcDbEntity
  8
conductor
100
AcDbPolyline
 90
293
 70
1
 43
0.5
 10
2368.0390625
 20
-2038.06640625
 10
2358.333984375
 20
-2047.771484375
 10
2348.62890625
 20
-2047.771484375
 10
2338.923828125
 20
-2047.771484375
 10
2329.21875
 20
-2057.4765625
 10
2319.513671875
 20
-2067.181640625
 10
2309.80859375
 20
-2067.181640625
 10
2300.103515625
 20
-2076.88671875
 10
2290.3984375
 20
-2076.88671875
 10
2280.693359375
 20
-2086.591796875
 10
2270.98828125
 20
-2096.296875
 10
2261.283203125
 20
-2096.296875
 10
2251.578125
 20
-2106.001953125
 10
2241.873046875
 20
-2106.001953125
 10
2232.16796875
 20
-2115.70703125
 10
2222.462890625
 20
-2115.70703125
 10
2212.7578125
 20
-2125.412109375
 10
2203.052734375
 20
-2135.1171875
 10
2193.34765625
 20
-2135.1171875
 10
2183.642578125
 20
-2135.1171875
 10
2173.9375
 20
-2144.822265625
 10
2164.232421875
 20
-2154.52734375
 10
2154.52734375
 20
-2164.232421875
 10
2144.822265625
 20
-2173.9375
 10
2135.1171875
 20
-2173.9375
 10
2135.1171875
 20
-2183.642578125
 10
2125.412109375
 20
-2193.34765625
 10
2125.412109375
 20
-2203.052734375
 10
2125.412109375
 20
-2212.7578125
 10
2115.70703125
 20
-2222.462890625
 10
2106.001953125
 20
-2232.16796875
 10
2096.296875
 20
-2241.873046875
 10
2086.591796875
 20
-2251.578125
 10
2086.591796875
 20
-2261.283203125
 10
2086.591796875
 20
-2270.98828125
 10
2086.591796875
 20
-2280.693359375
 10
2086.591796875
 20
-2290.3984375
 10
2076.88671875
 20
-2300.103515625
 10
2076.88671875
 20
-2309.80859375
 10
2067.181640625
 20
-2319.513671875
 10
2067.181640625
 20
-2329.21875
 10
2057.4765625
 20
-2338.923828125
 10
2057.4765625
 20
-2348.62890625
 10
2047.771484375
 20
-2358.333984375
 10
2047.771484375
 20
-2368.0390625
 10
2047.771484375
 20
-2377.744140625
 10
2047.771484375
 20
-2387.44921875
 10
2038.06640625
 20
-2397.154296875
 10
2038.06640625
 20
-2406.859375
 10
2038.06640625
 20
-2416.564453125
 10
2038.06640625
 20
-2426.26953125
 10
2028.361328125
 20
-2435.974609375
 10
2028.361328125
 20
-2445.6796875
 10
2038.06640625
 20
-2455.384765625
 10
2038.06640625
 20
-2465.08984375
 10
2028.361328125
 20
-2474.794921875
 10
2028.361328125
 20
-2484.5
 10
2038.06640625
 20
-2494.205078125
 10
2038.06640625
 20
-2503.91015625
 10
2038.06640625
 20
-2513.615234375
 10
2038.06640625
 20
-2523.3203125
 10
2038.06640625
 20
-2533.025390625
 10
2038.06640625
 20
-2542.73046875
 10
2038.06640625
 20
-2552.435546875
 10
2047.771484375
 20
-2562.140625
 10
2038.06640625
 20
-2571.845703125
 10
2047.771484375
 20
-2581.55078125
 10
2047.771484375
 20
-2591.255859375
 10
2047.771484375
 20
-2600.9609375
 10
2047.771484375
 20
-2610.666015625
 10
2038.06640625
 20
-2620.37109375
 10
2028.361328125
 20
-2620.37109375
 10
2028.361328125
 20
-2630.076171875
 10
2028.361328125
 20
-2639.78125
 10
2028.361328125
 20
-2649.486328125
 10
2028.361328125
 20
-2659.19140625
 10
2038.06640625
 20
-2649.486328125
 10
2047.771484375
 20
-2659.19140625
 10
2057.4765625
 20
-2659.19140625
 10
2067.181640625
 20
-2668.896484375
 10
2067.181640625
 20
-2678.6015625
 10
2076.88671875
 20
-2688.306640625
 10
2086.591796875
 20
-2698.01171875
 10
2086.591796875
 20
-2707.716796875
 10
2096.296875
 20
-2707.716796875
 10
2106.001953125
 20
-2717.421875
 10
2096.296875
 20
-2727.126953125
 10
2106.001953125
 20
-2727.126953125
 10
2115.70703125
 20
-2736.83203125
 10
2106.001953125
 20
-2746.537109375
 10
2106.001953125
 20
-2756.2421875
 10
2106.001953125
 20
-2765.947265625
 10
2096.296875
 20
-2775.65234375
 10
2096.296875
 20
-2785.357421875
 10
2086.591796875
 20
-2795.0625
 10
2076.88671875
 20
-2795.0625
 10
2067.181640625
 20
-2795.0625
 10
2076.88671875
 20
-2795.0625
 10
2086.591796875
 20
-2804.767578125
 10
2096.296875
 20
-2804.767578125
 10
2106.001953125
 20
-2804.767578125
 10
2115.70703125
 20
-2814.47265625
 10
2115.70703125
 20
-2824.177734375
 10
2125.412109375
 20
-2833.8828125
 10
2125.412109375
 20
-2843.587890625
 10
2125.412109375
 20
-2833.8828125
 10
2135.1171875
 20
-2824.177734375
 10
2144.822265625
 20
-2833.8828125
 10
2144.822265625
 20
-2843.587890625
 10
2144.822265625
 20
-2833.8828125
 10
2154.52734375
 20
-2824.177734375
 10
2164.232421875
 20
-2833.8828125
 10
2164.232421875
 20
-2824.177734375
 10
2173.9375
 20
-2814.47265625
 10
2183.642578125
 20
-2824.177734375
 10
2183.642578125
 20
-2833.8828125
 10
2193.34765625
 20
-2833.8828125
 10
2203.052734375
 20
-2843.587890625
 10
2212.7578125
 20
-2843.587890625
 10
2222.462890625
 20
-2853.29296875
 10
2232.16796875
 20
-2853.29296875
 10
2241.873046875
 20
-2862.998046875
 10
2251.578125
 20
-2862.998046875
 10
2261.283203125
 20
-2872.703125
 10
2270.98828125
 20
-2872.703125
 10
2280.693359375
 20
-2882.408203125
 10
2290.3984375
 20
-2882.408203125
 10
2300.103515625
 20
-2892.11328125
 10
2309.80859375
 20
-2892.11328125
 10
2319.513671875
 20
-2892.11328125
 10
2329.21875
 20
-2892.11328125
 10
2338.923828125
 20
-2901.818359375
 10
2348.62890625
 20
-2901.818359375
 10
2358.333984375
 20
-2901.818359375
 10
2368.0390625
 20
-2901.818359375
 10
2377.744140625
 20
-2901.818359375
 10
2387.44921875
 20
-2911.5234375
 10
2397.154296875
 20
-2911.5234375
 10
2406.859375
 20
-2911.5234375
 10
2416.564453125
 20
-2921.228515625
 10
2426.26953125
 20
-2921.228515625
 10
2435.974609375
 20
-2921.228515625
 10
2445.6796875
 20
-2921.228515625
 10
2455.384765625
 20
-2921.228515625
 10
2465.08984375
 20
-2930.93359375
 10
2474.794921875
 20
-2930.93359375
 10
2484.5
 20
-2930.93359375
 10
2494.205078125
 20
-2930.93359375
 10
2503.91015625
 20
-2921.228515625
 10
2513.615234375
 20
-2921.228515625
 10
2523.3203125
 20
-2930.93359375
 10
2533.025390625
 20
-2930.93359375
 10
2542.73046875
 20
-2921.228515625
 10
2552.435546875
 20
-2930.93359375
 10
2562.140625
 20
-2921.228515625
 10
2571.845703125
 20
-2921.228515625
 10
2581.55078125
 20
-2921.228515625
 10
2591.255859375
 20
-2911.5234375
 10
2600.9609375
 20
-2911.5234375
 10
2610.666015625
 20
-2901.818359375
 10
2620.37109375
 20
-2911.5234375
 10
2630.076171875
 20
-2901.818359375
 10
2639.78125
 20
-2892.11328125
 10
2649.486328125
 20
-2892.11328125
 10
2659.19140625
 20
-2892.11328125
 10
2668.896484375
 20
-2882.408203125
 10
2678.6015625
 20
-2882.408203125
 10
2688.306640625
 20
-2872.703125
 10
2698.01171875
 20
-2872.703125
 10
2707.716796875
 20
-2862.998046875
 10
2717.421875
 20
-2862.998046875
 10
2727.126953125
 20
-2853.29296875
 10
2736.83203125
 20
-2853.29296875
 10
2736.83203125
 20
-2843.587890625
 10
2746.537109375
 20
-2833.8828125
 10
2756.2421875
 20
-2824.177734375
 10
2765.947265625
 20
-2824.177734375
 10
2765.947265625
 20
-2814.47265625
 10
2775.65234375
 20
-2804.767578125
 10
2785.357421875
 20
-2795.0625
 10
2795.0625
 20
-2795.0625
 10
2804.767578125
 20
-2785.357421875
 10
2814.47265625
 20
-2775.65234375
 10
2824.177734375
 20
-2765.947265625
 10
2833.8828125
 20
-2756.2421875
 10
2843.587890625
 20
-2746.537109375
 10
2843.587890625
 20
-2736.83203125
 10
2853.29296875
 20
-2727.126953125
 10
2862.998046875
 20
-2717.421875
 10
2872.703125
 20
-2707.716796875
 10
2872.703125
 20
-2698.01171875
 10
2882.408203125
 20
-2688.306640625
 10
2882.408203125
 20
-2678.6015625
 10
2882.408203125
 20
-2668.896484375
 10
2892.11328125
 20
-2659.19140625
 10
2892.11328125
 20
-2649.486328125
 10
2901.818359375
 20
-2639.78125
 10
2901.818359375
 20
-2630.076171875
 10
2911.5234375
 20
-2620.37109375
 10
2921.228515625
 20
-2620.37109375
 10
2921.228515625
 20
-2610.666015625
 10
2911.5234375
 20
-2600.9609375
 10
2921.228515625
 20
-2591.255859375
 10
2921.228515625
 20
-2581.55078125
 10
2921.228515625
 20
-2571.845703125
 10
2921.228515625
 20
-2562.140625
 10
2921.228515625
 20
-2552.435546875
 10
2921.228515625
 20
-2542.73046875
 10
2921.228515625
 20
-2533.025390625
 10
2921.228515625
 20
-2523.3203125
 10
2921.228515625
 20
-2513.615234375
 10
2921.228515625
 20
-2503.91015625
 10
2930.93359375
 20
-2494.205078125
 10
2921.228515625
 20
-2484.5
 10
2930.93359375
 20
-2474.794921875
 10
2921.228515625
 20
-2465.08984375
 10
2930.93359375
 20
-2455.384765625
 10
2930.93359375
 20
-2445.6796875
 10
2930.93359375
 20
-2435.974609375
 10
2930.93359375
 20
-2426.26953125
 10
2930.93359375
 20
-2416.564453125
 10
2930.93359375
 20
-2406.859375
 10
2921.228515625
 20
-2397.154296875
 10
2921.228515625
 20
-2387.44921875
 10
2911.5234375
 20
-2377.744140625
 10
2911.5234375
 20
-2368.0390625
 10
2911.5234375
 20
-2358.333984375
 10
2901.818359375
 20
-2348.62890625
 10
2901.818359375
 20
-2338.923828125
 10
2901.818359375
 20
-2329.21875
 10
2892.11328125
 20
-2319.513671875
 10
2892.11328125
 20
-2309.80859375
 10
2882.408203125
 20
-2300.103515625
 10
2882.408203125
 20
-2290.3984375
 10
2882.408203125
 20
-2280.693359375
 10
2872.703125
 20
-2270.98828125
 10
2872.703125
 20
-2261.283203125
 10
2862.998046875
 20
-2251.578125
 10
2862.998046875
 20
-2241.873046875
 10
2862.998046875
 20
-2232.16796875
 10
2853.29296875
 20
-2232.16796875
 10
2843.587890625
 20
-2222.462890625
 10
2843.587890625
 20
-2212.7578125
 10
2833.8828125
 20
-2203.052734375
 10
2824.177734375
 20
-2193.34765625
 10
2824.177734375
 20
-2183.642578125
 10
2814.47265625
 20
-2183.642578125
 10
2804.767578125
 20
-2173.9375
 10
2795.0625
 20
-2164.232421875
 10
2785.357421875
 20
-2154.52734375
 10
2775.65234375
 20
-2144.822265625
 10
2775.65234375
 20
-2135.1171875
 10
2765.947265625
 20
-2125.412109375
 10
2756.2421875
 20
-2125.412109375
 10
2746.537109375
 20
-2115.70703125
 10
2736.83203125
 20
-2115.70703125
 10
2727.126953125
 20
-2106.001953125
 10
2717.421875
 20
-2096.296875
 10
2707.716796875
 20
-2086.591796875
 10
2698.01171875
 20
-2086.591796875
 10
2688.306640625
 20
-2086.591796875
 10
2678.6015625
 20
-2076.88671875
 10
2668.896484375
 20
-2076.88671875
 10
2659.19140625
 20
-2076.88671875
 10
2649.486328125
 20
-2067.181640625
 10
2639.78125
 20
-2067.181640625
 10
2630.076171875
 20
-2067.181640625
 10
2620.37109375
 20
-2067.181640625
 10
2610.666015625
 20
-2057.4765625
 10
2600.9609375
 20
-2047.771484375
 10
2591.255859375
 20
-2047.771484375
 10
2581.55078125
 20
-2047.771484375
 10
2571.845703125
 20
-2047.771484375
 10
2562.140625
 20
-2047.771484375
 10
2552.435546875
 20
-2047.771484375
 10
2542.73046875
 20
-2047.771484375
 10
2533.025390625
 20
-2047.771484375
 10
2523.3203125
 20
-2047.771484375
 10
2513.615234375
 20
-2047.771484375
 10
2503.91015625
 20
-2038.06640625
 10
2494.205078125
 20
-2038.06640625
 10
2484.5
 20
-2038.06640625
 10
2474.794921875
 20
-2047.771484375
 10
2465.08984375
 20
-2047.771484375
 10
2455.384765625
 20
-2038.06640625
 10
2445.6796875
 20
-2047.771484375
 10
2435.974609375
 20
-2038.06640625
 10
2426.26953125
 20
-2047.771484375
 10
2416.564453125
 20
-2047.771484375
 10
2406.859375
 20
-2047.771484375
 10
2397.154296875
 20
-2047.771484375
 10
2387.44921875
 20
-2038.06640625
 10
2377.744140625
 20
-2038.06640625
  0
LWPOLYLINE
  5
33
330
17
100
AcDbEntity
  8
conductor
100
AcDbPolyline
 90
4
 70
1
 43
0.5
 10
2144.822265625
 20
-2814.47265625
 10
2154.52734375
 20
-2804.767578125
 10
2164.232421875
 20
-2814.47265625
 10
2154.52734375
 20
-2824.177734375
  0
LWPOLYLINE
  5
34
330
17
100
AcDbEntity
  8
conductor
100
AcDbPolyline
 90
4
 70
1
 43
0.5
 10
2115.70703125
 20
-2814.47265625
 10
2125.412109375
 20
-2804.767578125
 10
2135.1171875
 20
-2814.47265625
 10
2125.412109375
 20
-2824.177734375
  0
LWPOLYLINE
  5
35
330
17
100
AcDbEntity
  8
conductor
100
AcDbPolyline
 90
4
 70
1
 43
0.5
 10
2096.296875
 20
-2775.65234375
 10
2106.001953125
 20
-2765.947265625
 10
2115.70703125
 20
-2775.65234375
 10
2106.001953125
 20
-2785.357421875
  0
LWPOLYLINE
  5
36
330
17
100
AcDbEntity
  8
substrate
100
AcDbPolyline
 90
2044
 70
1
 43
0.5
 10
0.0
 20
-0.0
 10
0.0
 20
-9.705078125
 10
0.0
 20
-19.41015625
 10
0.0
 20
-29.115234375
 10
0.0
 20
-38.8203125
 10
0.0
 20
-48.525390625
 10
0.0
 20
-58.23046875
 10
0.0
 20
-67.935546875
 10
0.0
 20
-77.640625
 10
0.0
 20
-87.345703125
 10
0.0
 20
-97.05078125
 10
0.0
 20
-106.755859375
 10
0.0
 20
-116.4609375
 10
0.0
 20
-126.166015625
 10
0.0
 20
-135.87109375
 10
0.0
 20
-145.576171875
 10
0.0
 20
-155.28125
 10
0.0
 20
-164.986328125
 10
0.0
 20
-174.69140625
 10
0.0
 20
-184.396484375
 10
0.0
 20
-194.1015625
 10
0.0
 20
-203.806640625
 10
0.0
 20
-213.51171875
 10
0.0
 20
-223.216796875
 10
0.0
 20
-232.921875
 10
0.0
 20
-242.626953125
 10
0.0
 20
-252.33203125
 10
0.0
 20
-262.037109375
 10
0.0
 20
-271.7421875
 10
0.0
 20
-281.447265625
 10
0.0
 20
-291.15234375
 10
0.0
 20
-300.857421875
 10
0.0
 20
-310.5625
 10
0.0
 20
-320.267578125
 10
0.0
 20
-329.97265625
 10
0.0
 20
-339.677734375
 10
0.0
 20
-349.3828125
 10
0.0
 20
-359.087890625
 10
0.0
 20
-368.79296875
 10
0.0
 20
-378.498046875
 10
0.0
 20
-388.203125
 10
0.0
 20
-397.908203125
 10
0.0
 20
-407.61328125
 10
0.0
 20
-417.318359375
 10
0.0
 20
-427.0234375
 10
0.0
 20
-436.728515625
 10
0.0
 20
-446.43359375
 10
0.0
 20
-456.138671875
 10
0.0
 20
-465.84375
 10
0.0
 20
-475.548828125
 10
0.0
 20
-485.25390625
 10
0.0
 20
-494.958984375
 10
0.0
 20
-504.6640625
 10
0.0
 20
-514.369140625
 10
0.0
 20
-524.07421875
 10
0.0
 20
-533.779296875
 10
0.0
 20
-543.484375
 10
0.0
 20
-553.189453125
 10
0.0
 20
-562.89453125
 10
0.0
 20
-572.599609375
 10
0.0
 20
-582.3046875
 10
0.0
 20
-592.009765625
 10
0.0
 20
-601.71484375
 10
0.0
 20
-611.419921875
 10
0.0
 20
-621.125
 10
0.0
 20
-630.830078125
 10
0.0
 20
-640.53515625
 10
0.0
 20
-650.240234375
 10
0.0
 20
-659.9453125
 10
0.0
 20
-669.650390625
 10
0.0
 20
-679.35546875
 10
0.0
 20
-689.060546875
 10
0.0
 20
-698.765625
 10
0.0
 20
-708.470703125
 10
0.0
 20
-718.17578125
 10
0.0
 20
-727.880859375
 10
0.0
 20
-737.5859375
 10
0.0
 20
-747.291015625
 10
0.0
 20
-756.99609375
 10
0.0
 20
-766.701171875
 10
0.0
 20
-776.40625
 10
0.0
 20
-786.111328125
 10
0.0
 20
-795.81640625
 10
0.0
 20
-805.521484375
 10
0.0
 20
-815.2265625
 10
0.0
 20
-824.931640625
 10
0.0
 20
-834.63671875
 10
0.0
 20
-844.341796875
 10
0.0
 20
-854.046875
 10
0.0
 20
-863.751953125
 10
0.0
 20
-873.45703125
 10
0.0
 20
-883.162109375
 10
0.0
 20
-892.8671875
 10
0.0
 20
-902.572265625
 10
0.0
 20
-912.27734375
 10
0.0
 20
-921.982421875
 10
0.0
 20
-931.6875
 10
0.0
 20
-941.392578125
 10
0.0
 20
-951.09765625
 10
0.0
 20
-960.802734375
 10
0.0
 20
-970.5078125
 10
0.0
 20
-980.212890625
 10
0.0
 20
-989.91796875
 10
0.0
 20
-999.623046875
 10
0.0
 20
-1009.328125
 10
0.0
 20
-1019.033203125
 10
0.0
 20
-1028.73828125
 10
0.0
 20
-1038.443359375
 10
0.0
 20
-1048.1484375
 10
0.0
 20
-1057.853515625
 10
0.0
 20
-1067.55859375
 10
0.0
 20
-1077.263671875
 10
0.0
 20
-1086.96875
 10
0.0
 20
-1096.673828125
 10
0.0
 20
-1106.37890625
 10
0.0
 20
-1116.083984375
 10
0.0
 20
-1125.7890625
 10
0.0
 20
-1135.494140625
 10
0.0
 20
-1145.19921875
 10
0.0
 20
-1154.904296875
 10
0.0
 20
-1164.609375
 10
0.0
 20
-1174.314453125
 10
0.0
 20
-1184.01953125
 10
0.0
 20
-1193.724609375
 10
0.0
 20
-1203.4296875
 10
0.0
 20
-1213.134765625
 10
0.0
 20
-1222.83984375
 10
0.0
 20
-1232.544921875
 10
0.0
 20
-1242.25
 10
0.0
 20
-1251.955078125
 10
0.0
 20
-1261.66015625
 10
0.0
 20
-1271.365234375
 10
0.0
 20
-1281.0703125
 10
0.0
 20
-1290.775390625
 10
0.0
 20
-1300.48046875
 10
0.0
 20
-1310.185546875
 10
0.0
 20
-1319.890625
 10
0.0
 20
-1329.595703125
 10
0.0
 20
-1339.30078125
 10
0.0
 20
-1349.005859375
 10
0.0
 20
-1358.7109375
 10
0.0
 20
-1368.416015625
 10
0.0
 20
-1378.12109375
 10
0.0
 20
-1387.826171875
 10
0.0
 20
-1397.53125
 10
0.0
 20
-1407.236328125
 10
0.0
 20
-1416.94140625
 10
0.0
 20
-1426.646484375
 10
0.0
 20
-1436.3515625
 10
0.0
 20
-1446.056640625
 10
0.0
 20
-1455.76171875
 10
0.0
 20
-1465.466796875
 10
0.0
 20
-1475.171875
 10
0.0
 20
-1484.876953125
 10
0.0
 20
-1494.58203125
 10
0.0
 20
-1504.287109375
 10
0.0
 20
-1513.9921875
 10
0.0
 20
-1523.697265625
 10
0.0
 20
-1533.40234375
 10
0.0
 20
-1543.107421875
 10
0.0
 20
-1552.8125
 10
0.0
 20
-1562.517578125
 10
0.0
 20
-1572.22265625
 10
0.0
 20
-1581.927734375
 10
0.0
 20
-1591.6328125
 10
0.0
 20
-1601.337890625
 10
0.0
 20
-1611.04296875
 10
0.0
 20
-1620.748046875
 10
0.0
 20
-1630.453125
 10
0.0
 20
-1640.158203125
 10
0.0
 20
-1649.86328125
 10
0.0
 20
-1659.568359375
 10
0.0
 20
-1669.2734375
 10
0.0
 20
-1678.978515625
 10
0.0
 20
-1688.68359375
 10
0.0
 20
-1698.388671875
 10
0.0
 20
-1708.09375
 10
0.0
 20
-1717.798828125
 10
0.0
 20
-1727.50390625
 10
0.0
 20
-1737.208984375
 10
0.0
 20
-1746.9140625
 10
0.0
 20
-1756.619140625
 10
0.0
 20
-1766.32421875
 10
0.0
 20
-1776.029296875
 10
0.0
 20
-1785.734375
 10
0.0
 20
-1795.439453125
 10
0.0
 20
-1805.14453125
 10
0.0
 20
-1814.849609375
 10
0.0
 20
-1824.5546875
 10
0.0
 20
-1834.259765625
 10
0.0
 20
-1843.96484375
 10
0.0
 20
-1853.669921875
 10
0.0
 20
-1863.375
 10
0.0
 20
-1873.080078125
 10
0.0
 20
-1882.78515625
 10
0.0
 20
-1892.490234375
 10
0.0
 20
-1902.1953125
 10
0.0
 20
-1911.900390625
 10
0.0
 20
-1921.60546875
 10
0.0
 20
-1931.310546875
 10
0.0
 20
-1941.015625
 10
0.0
 20
-1950.720703125
 10
0.0
 20
-1960.42578125
 10
0.0
 20
-1970.130859375
 10
0.0
 20
-1979.8359375
 10
0.0
 20
-1989.541015625
 10
0.0
 20
-1999.24609375
 10
0.0
 20
-2008.951171875
 10
0.0
 20
-2018.65625
 10
0.0
 20
-2028.361328125
 10
0.0
 20
-2038.06640625
 10
0.0
 20
-2047.771484375
 10
0.0
 20
-2057.4765625
 10
0.0
 20
-2067.181640625
 10
0.0
 20
-2076.88671875
 10
0.0
 20
-2086.591796875
 10
0.0
 20
-2096.296875
 10
0.0
 20
-2106.001953125
 10
0.0
 20
-2115.70703125
 10
0.0
 20
-2125.412109375
 10
0.0
 20
-2135.1171875
 10
0.0
 20
-2144.822265625
 10
0.0
 20
-2154.52734375
 10
0.0
 20
-2164.232421875
 10
0.0
 20
-2173.9375
 10
0.0
 20
-2183.642578125
 10
0.0
 20
-2193.34765625
 10
0.0
 20
-2203.052734375
 10
0.0
 20
-2212.7578125
 10
0.0
 20
-2222.462890625
 10
0.0
 20
-2232.16796875
 10
0.0
 20
-2241.873046875
 10
0.0
 20
-2251.578125
 10
0.0
 20
-2261.283203125
 10
0.0
 20
-2270.98828125
 10
0.0
 20
-2280.693359375
 10
0.0
 20
-2290.3984375
 10
0.0
 20
-2300.103515625
 10
0.0
 20
-2309.80859375
 10
0.0
 20
-2319.513671875
 10
0.0
 20
-2329.21875
 10
0.0
 20
-2338.923828125
 10
0.0
 20
-2348.62890625
 10
0.0
 20
-2358.333984375
 10
0.0
 20
-2368.0390625
 10
0.0
 20
-2377.744140625
 10
0.0
 20
-2387.44921875
 10
0.0
 20
-2397.154296875
 10
0.0
 20
-2406.859375
 10
0.0
 20
-2416.564453125
 10
0.0
 20
-2426.26953125
 10
0.0
 20
-2435.974609375
 10
0.0
 20
-2445.6796875
 10
0.0
 20
-2455.384765625
 10
0.0
 20
-2465.08984375
 10
0.0
 20
-2474.794921875
 10
0.0
 20
-2484.5
 10
0.0
 20
-2494.205078125
 10
0.0
 20
-2503.91015625
 10
0.0
 20
-2513.615234375
 10
0.0
 20
-2523.3203125
 10
0.0
 20
-2533.025390625
 10
0.0
 20
-2542.73046875
 10
0.0
 20
-2552.435546875
 10
0.0
 20
-2562.140625
 10
0.0
 20
-2571.845703125
 10
0.0
 20
-2581.55078125
 10
0.0
 20
-2591.255859375
 10
0.0
 20
-2600.9609375
 10
0.0
 20
-2610.666015625
 10
0.0
 20
-2620.37109375
 10
0.0
 20
-2630.076171875
 10
0.0
 20
-2639.78125
 10
0.0
 20
-2649.486328125
 10
0.0
 20
-2659.19140625
 10
0.0
 20
-2668.896484375
 10
0.0
 20
-2678.6015625
 10
0.0
 20
-2688.306640625
 10
0.0
 20
-2698.01171875
 10
0.0
 20
-2707.716796875
 10
0.0
 20
-2717.421875
 10
0.0
 20
-2727.126953125
 10
0.0
 20
-2736.83203125
 10
0.0
 20
-2746.537109375
 10
0.0
 20
-2756.2421875
 10
0.0
 20
-2765.947265625
 10
0.0
 20
-2775.65234375
 10
0.0
 20
-2785.357421875
 10
0.0
 20
-2795.0625
 10
0.0
 20
-2804.767578125
 10
0.0
 20
-2814.47265625
 10
0.0
 20
-2824.177734375
 10
0.0
 20
-2833.8828125
 10
0.0
 20
-2843.587890625
 10
0.0
 20
-2853.29296875
 10
0.0
 20
-2862.998046875
 10
0.0
 20
-2872.703125
 10
0.0
 20
-2882.408203125
 10
0.0
 20
-2892.11328125
 10
0.0
 20
-2901.818359375
 10
0.0
 20
-2911.5234375
 10
0.0
 20
-2921.228515625
 10
0.0
 20
-2930.93359375
 10
0.0
 20
-2940.638671875
 10
0.0
 20
-2950.34375
 10
0.0
 20
-2960.048828125
 10
0.0
 20
-2969.75390625
 10
0.0
 20
-2979.458984375
 10
0.0
 20
-2989.1640625
 10
0.0
 20
-2998.869140625
 10
0.0
 20
-3008.57421875
 10
0.0
 20
-3018.279296875
 10
0.0
 20
-3027.984375
 10
0.0
 20
-3037.689453125
 10
0.0
 20
-3047.39453125
 10
0.0
 20
-3057.099609375
 10
0.0
 20
-3066.8046875
 10
0.0
 20
-3076.509765625
 10
0.0
 20
-3086.21484375
 10
0.0
 20
-3095.919921875
 10
0.0
 20
-3105.625
 10
0.0
 20
-3115.330078125
 10
0.0
 20
-3125.03515625
 10
0.0
 20
-3134.740234375
 10
0.0
 20
-3144.4453125
 10
0.0
 20
-3154.150390625
 10
0.0
 20
-3163.85546875
 10
0.0
 20
-3173.560546875
 10
0.0
 20
-3183.265625
 10
0.0
 20
-3192.970703125
 10
0.0
 20
-3202.67578125
 10
0.0
 20
-3212.380859375
 10
0.0
 20
-3222.0859375
 10
0.0
 20
-3231.791015625
 10
0.0
 20
-3241.49609375
 10
0.0
 20
-3251.201171875
 10
0.0
 20
-3260.90625
 10
0.0
 20
-3270.611328125
 10
0.0
 20
-3280.31640625
 10
0.0
 20
-3290.021484375
 10
0.0
 20
-3299.7265625
 10
0.0
 20
-3309.431640625
 10
0.0
 20
-3319.13671875
 10
0.0
 20
-3328.841796875
 10
0.0
 20
-3338.546875
 10
0.0
 20
-3348.251953125
 10
0.0
 20
-3357.95703125
 10
0.0
 20
-3367.662109375
 10
0.0
 20
-3377.3671875
 10
0.0
 20
-3387.072265625
 10
0.0
 20
-3396.77734375
 10
0.0
 20
-3406.482421875
 10
0.0
 20
-3416.1875
 10
0.0
 20
-3425.892578125
 10
0.0
 20
-3435.59765625
 10
0.0
 20
-3445.302734375
 10
0.0
 20
-3455.0078125
 10
0.0
 20
-3464.712890625
 10
0.0
 20
-3474.41796875
 10
0.0
 20
-3484.123046875
 10
0.0
 20
-3493.828125
 10
0.0
 20
-3503.533203125
 10
0.0
 20
-3513.23828125
 10
0.0
 20
-3522.943359375
 10
0.0
 20
-3532.6484375
 10
0.0
 20
-3542.353515625
 10
0.0
 20
-3552.05859375
 10
0.0
 20
-3561.763671875
 10
0.0
 20
-3571.46875
 10
0.0
 20
-3581.173828125
 10
0.0
 20
-3590.87890625
 10
0.0
 20
-3600.583984375
 10
0.0
 20
-3610.2890625
 10
0.0
 20
-3619.994140625
 10
0.0
 20
-3629.69921875
 10
0.0
 20
-3639.404296875
 10
0.0
 20
-3649.109375
 10
0.0
 20
-3658.814453125
 10
0.0
 20
-3668.51953125
 10
0.0
 20
-3678.224609375
 10
0.0
 20
-3687.9296875
 10
0.0
 20
-3697.634765625
 10
0.0
 20
-3707.33984375
 10
0.0
 20
-3717.044921875
 10
0.0
 20
-3726.75
 10
0.0
 20
-3736.455078125
 10
0.0
 20
-3746.16015625
 10
0.0
 20
-3755.865234375
 10
0.0
 20
-3765.5703125
 10
0.0
 20
-3775.275390625
 10
0.0
 20
-3784.98046875
 10
0.0
 20
-3794.685546875
 10
0.0
 20
-3804.390625
 10
0.0
 20
-3814.095703125
 10
0.0
 20
-3823.80078125
 10
0.0
 20
-3833.505859375
 10
0.0
 20
-3843.2109375
 10
0.0
 20
-3852.916015625
 10
0.0
 20
-3862.62109375
 10
0.0
 20
-3872.326171875
 10
0.0
 20
-3882.03125
 10
0.0
 20
-3891.736328125
 10
0.0
 20
-3901.44140625
 10
0.0
 20
-3911.146484375
 10
0.0
 20
-3920.8515625
 10
0.0
 20
-3930.556640625
 10
0.0
 20
-3940.26171875
 10
0.0
 20
-3949.966796875
 10
0.0
 20
-3959.671875
 10
0.0
 20
-3969.376953125
 10
0.0
 20
-3979.08203125
 10
0.0
 20
-3988.787109375
 10
0.0
 20
-3998.4921875
 10
0.0
 20
-4008.197265625
 10
0.0
 20
-4017.90234375
 10
0.0
 20
-4027.607421875
 10
0.0
 20
-4037.3125
 10
0.0
 20
-4047.017578125
 10
0.0
 20
-4056.72265625
 10
0.0
 20
-4066.427734375
 10
0.0
 20
-4076.1328125
 10
0.0
 20
-4085.837890625
 10
0.0
 20
-4095.54296875
 10
0.0
 20
-4105.248046875
 10
0.0
 20
-4114.953125
 10
0.0
 20
-4124.658203125
 10
0.0
 20
-4134.36328125
 10
0.0
 20
-4144.068359375
 10
0.0
 20
-4153.7734375
 10
0.0
 20
-4163.478515625
 10
0.0
 20
-4173.18359375
 10
0.0
 20
-4182.888671875
 10
0.0
 20
-4192.59375
 10
0.0
 20
-4202.298828125
 10
0.0
 20
-4212.00390625
 10
0.0
 20
-4221.708984375
 10
0.0
 20
-4231.4140625
 10
0.0
 20
-4241.119140625
 10
0.0
 20
-4250.82421875
 10
0.0
 20
-4260.529296875
 10
0.0
 20
-4270.234375
 10
0.0
 20
-4279.939453125
 10
0.0
 20
-4289.64453125
 10
0.0
 20
-4299.349609375
 10
0.0
 20
-4309.0546875
 10
0.0
 20
-4318.759765625
 10
0.0
 20
-4328.46484375
 10
0.0
 20
-4338.169921875
 10
0.0
 20
-4347.875
 10
0.0
 20
-4357.580078125
 10
0.0
 20
-4367.28515625
 10
0.0
 20
-4376.990234375
 10
0.0
 20
-4386.6953125
 10
0.0
 20
-4396.400390625
 10
0.0
 20
-4406.10546875
 10
0.0
 20
-4415.810546875
 10
0.0
 20
-4425.515625
 10
0.0
 20
-4435.220703125
 10
0.0
 20
-4444.92578125
 10
0.0
 20
-4454.630859375
 10
0.0
 20
-4464.3359375
 10
0.0
 20
-4474.041015625
 10
0.0
 20
-4483.74609375
 10
0.0
 20
-4493.451171875
 10
0.0
 20
-4503.15625
 10
0.0
 20
-4512.861328125
 10
0.0
 20
-4522.56640625
 10
0.0
 20
-4532.271484375
 10
0.0
 20
-4541.9765625
 10
0.0
 20
-4551.681640625
 10
0.0
 20
-4561.38671875
 10
0.0
 20
-4571.091796875
 10
0.0
 20
-4580.796875
 10
0.0
 20
-4590.501953125
 10
0.0
 20
-4600.20703125
 10
0.0
 20
-4609.912109375
 10
0.0
 20
-4619.6171875
 10
0.0
 20
-4629.322265625
 10
0.0
 20
-4639.02734375
 10
0.0
 20
-4648.732421875
 10
0.0
 20
-4658.4375
 10
0.0
 20
-4668.142578125
 10
0.0
 20
-4677.84765625
 10
0.0
 20
-4687.552734375
 10
0.0
 20
-4697.2578125
 10
0.0
 20
-4706.962890625
 10
0.0
 20
-4716.66796875
 10
0.0
 20
-4726.373046875
 10
0.0
 20
-4736.078125
 10
0.0
 20
-4745.783203125
 10
0.0
 20
-4755.48828125
 10
0.0
 20
-4765.193359375
 10
0.0
 20
-4774.8984375
 10
0.0
 20
-4784.603515625
 10
0.0
 20
-4794.30859375
 10
0.0
 20
-4804.013671875
 10
0.0
 20
-4813.71875
 10
0.0
 20
-4823.423828125
 10
0.0
 20
-4833.12890625
 10
0.0
 20
-4842.833984375
 10
0.0
 20
-4852.5390625
 10
0.0
 20
-4862.244140625
 10
0.0
 20
-4871.94921875
 10
0.0
 20
-4881.654296875
 10
0.0
 20
-4891.359375
 10
0.0
 20
-4901.064453125
 10
0.0
 20
-4910.76953125
 10
0.0
 20
-4920.474609375
 10
0.0
 20
-4930.1796875
 10
0.0
 20
-4939.884765625
 10
0.0
 20
-4949.58984375
 10
0.0
 20
-4959.294921875
 10
9.705078125
 20
-4959.294921875
 10
19.41015625
 20
-4959.294921875
 10
29.115234375
 20
-4959.294921875
 10
38.8203125
 20
-4959.294921875
 10
48.525390625
 20
-4959.294921875
 10
58.23046875
 20
-4959.294921875
 10
67.935546875
 20
-4959.294921875
 10
77.640625
 20
-4959.294921875
 10
87.345703125
 20
-4959.294921875
 10
97.05078125
 20
-4959.294921875
 10
106.755859375
 20
-4959.294921875
 10
116.4609375
 20
-4959.294921875
 10
126.166015625
 20
-4959.294921875
 10
135.87109375
 20
-4959.294921875
 10
145.576171875
 20
-4959.294921875
 10
155.28125
 20
-4959.294921875
 10
164.986328125
 20
-4959.294921875
 10
174.69140625
 20
-4959.294921875
 10
184.396484375
 20
-4959.294921875
 10
194.1015625
 20
-4959.294921875
 10
203.806640625
 20
-4959.294921875
 10
213.51171875
 20
-4959.294921875
 10
223.216796875
 20
-4959.294921875
 10
232.921875
 20
-4959.294921875
 10
242.626953125
 20
-4959.294921875
 10
252.33203125
 20
-4959.294921875
 10
262.037109375
 20
-4959.294921875
 10
271.7421875
 20
-4959.294921875
 10
281.447265625
 20
-4959.294921875
 10
291.15234375
 20
-4959.294921875
 10
300.857421875
 20
-4959.294921875
 10
310.5625
 20
-4959.294921875
 10
320.267578125
 20
-4959.294921875
 10
329.97265625
 20
-4959.294921875
 10
339.677734375
 20
-4959.294921875
 10
349.3828125
 20
-4959.294921875
 10
359.087890625
 20
-4959.294921875
 10
368.79296875
 20
-4959.294921875
 10
378.498046875
 20
-4959.294921875
 10
388.203125
 20
-4959.294921875
 10
397.908203125
 20
-4959.294921875
 10
407.61328125
 20
-4959.294921875
 10
417.318359375
 20
-4959.294921875
 10
427.0234375
 20
-4959.294921875
 10
436.728515625
 20
-4959.294921875
 10
446.43359375
 20
-4959.294921875
 10
456.138671875
 20
-4959.294921875
 10
465.84375
 20
-4959.294921875
 10
475.548828125
 20
-4959.294921875
 10
485.25390625
 20
-4959.294921875
 10
494.958984375
 20
-4959.294921875
 10
504.6640625
 20
-4959.294921875
 10
514.369140625
 20
-4959.294921875
 10
524.07421875
 20
-4959.294921875
 10
533.779296875
 20
-4959.294921875
 10
543.484375
 20
-4959.294921875
 10
553.189453125
 20
-4959.294921875
 10
562.89453125
 20
-4959.294921875
 10
572.599609375
 20
-4959.294921875
 10
582.3046875
 20
-4959.294921875
 10
592.009765625
 20
-4959.294921875
 10
601.71484375
 20
-4959.294921875
 10
611.419921875
 20
-4959.294921875
 10
621.125
 20
-4959.294921875
 10
630.830078125
 20
-4959.294921875
 10
640.53515625
 20
-4959.294921875
 10
650.240234375
 20
-4959.294921875
 10
659.9453125
 20
-4959.294921875
 10
669.650390625
 20
-4959.294921875
 10
679.35546875
 20
-4959.294921875
 10
689.060546875
 20
-4959.294921875
 10
698.765625
 20
-4959.294921875
 10
708.470703125
 20
-4959.294921875
 10
718.17578125
 20
-4959.294921875
 10
727.880859375
 20
-4959.294921875
 10
737.5859375
 20
-4959.294921875
 10
747.291015625
 20
-4959.294921875
 10
756.99609375
 20
-4959.294921875
 10
766.701171875
 20
-4959.294921875
 10
776.40625
 20
-4959.294921875
 10
786.111328125
 20
-4959.294921875
 10
795.81640625
 20
-4959.294921875
 10
805.521484375
 20
-4959.294921875
 10
815.2265625
 20
-4959.294921875
 10
824.931640625
 20
-4959.294921875
 10
834.63671875
 20
-4959.294921875
 10
844.341796875
 20
-4959.294921875
 10
854.046875
 20
-4959.294921875
 10
863.751953125
 20
-4959.294921875
 10
873.45703125
 20
-4959.294921875
 10
883.162109375
 20
-4959.294921875
 10
892.8671875
 20
-4959.294921875
 10
902.572265625
 20
-4959.294921875
 10
912.27734375
 20
-4959.294921875
 10
921.982421875
 20
-4959.294921875
 10
931.6875
 20
-4959.294921875
 10
941.392578125
 20
-4959.294921875
 10
951.09765625
 20
-4959.294921875
 10
960.802734375
 20
-4959.294921875
 10
970.5078125
 20
-4959.294921875
 10
980.212890625
 20
-4959.294921875
 10
989.91796875
 20
-4959.294921875
 10
999.623046875
 20
-4959.294921875
 10
1009.328125
 20
-4959.294921875
 10
1019.033203125
 20
-4959.294921875
 10
1028.73828125
 20
-4959.294921875
 10
1038.443359375
 20
-4959.294921875
 10
1048.1484375
 20
-4959.294921875
 10
1057.853515625
 20
-4959.294921875
 10
1067.55859375
 20
-4959.294921875
 10
1077.263671875
 20
-4959.294921875
 10
1086.96875
 20
-4959.294921875
 10
1096.673828125
 20
-4959.294921875
 10
1106.37890625
 20
-4959.294921875
 10
1116.083984375
 20
-4959.294921875
 10
1125.7890625
 20
-4959.294921875
 10
1135.494140625
 20
-4959.294921875
 10
1145.19921875
 20
-4959.294921875
 10
1154.904296875
 20
-4959.294921875
 10
1164.609375
 20
-4959.294921875
 10
1174.314453125
 20
-4959.294921875
 10
1184.01953125
 20
-4959.294921875
 10
1193.724609375
 20
-4959.294921875
 10
1203.4296875
 20
-4959.294921875
 10
1213.134765625
 20
-4959.294921875
 10
1222.83984375
 20
-4959.294921875
 10
1232.544921875
 20
-4959.294921875
 10
1242.25
 20
-4959.294921875
 10
1251.955078125
 20
-4959.294921875
 10
1261.66015625
 20
-4959.294921875
 10
1271.365234375
 20
-4959.294921875
 10
1281.0703125
 20
-4959.294921875
 10
1290.775390625
 20
-4959.294921875
 10
1300.48046875
 20
-4959.294921875
 10
1310.185546875
 20
-4959.294921875
 10
1319.890625
 20
-4959.294921875
 10
1329.595703125
 20
-4959.294921875
 10
1339.30078125
 20
-4959.294921875
 10
1349.005859375
 20
-4959.294921875
 10
1358.7109375
 20
-4959.294921875
 10
1368.416015625
 20
-4959.294921875
 10
1378.12109375
 20
-4959.294921875
 10
1387.826171875
 20
-4959.294921875
 10
1397.53125
 20
-4959.294921875
 10
1407.236328125
 20
-4959.294921875
 10
1416.94140625
 20
-4959.294921875
 10
1426.646484375
 20
-4959.294921875
 10
1436.3515625
 20
-4959.294921875
 10
1446.056640625
 20
-4959.294921875
 10
1455.76171875
 20
-4959.294921875
 10
1465.466796875
 20
-4959.294921875
 10
1475.171875
 20
-4959.294921875
 10
1484.876953125
 20
-4959.294921875
 10
1494.58203125
 20
-4959.294921875
 10
1504.287109375
 20
-4959.294921875
 10
1513.9921875
 20
-4959.294921875
 10
1523.697265625
 20
-4959.294921875
 10
1533.40234375
 20
-4959.294921875
 10
1543.107421875
 20
-4959.294921875
 10
1552.8125
 20
-4959.294921875
 10
1562.517578125
 20
-4959.294921875
 10
1572.22265625
 20
-4959.294921875
 10
1581.927734375
 20
-4959.294921875
 10
1591.6328125
 20
-4959.294921875
 10
1601.337890625
 20
-4959.294921875
 10
1611.04296875
 20
-4959.294921875
 10
1620.748046875
 20
-4959.294921875
 10
1630.453125
 20
-4959.294921875
 10
1640.158203125
 20
-4959.294921875
 10
1649.86328125
 20
-4959.294921875
 10
1659.568359375
 20
-4959.294921875
 10
1669.2734375
 20
-4959.294921875
 10
1678.978515625
 20
-4959.294921875
 10
1688.68359375
 20
-4959.294921875
 10
1698.388671875
 20
-4959.294921875
 10
1708.09375
 20
-4959.294921875
 10
1717.798828125
 20
-4959.294921875
 10
1727.50390625
 20
-4959.294921875
 10
1737.208984375
 20
-4959.294921875
 10
1746.9140625
 20
-4959.294921875
 10
1756.619140625
 20
-4959.294921875
 10
1766.32421875
 20
-4959.294921875
 10
1776.029296875
 20
-4959.294921875
 10
1785.734375
 20
-4959.294921875
 10
1795.439453125
 20
-4959.294921875
 10
1805.14453125
 20
-4959.294921875
 10
1814.849609375
 20
-4959.294921875
 10
1824.5546875
 20
-4959.294921875
 10
1834.259765625
 20
-4959.294921875
 10
1843.96484375
 20
-4959.294921875
 10
1853.669921875
 20
-4959.294921875
 10
1863.375
 20
-4959.294921875
 10
1873.080078125
 20
-4959.294921875
 10
1882.78515625
 20
-4959.294921875
 10
1892.490234375
 20
-4959.294921875
 10
1902.1953125
 20
-4959.294921875
 10
1911.900390625
 20
-4959.294921875
 10
1921.60546875
 20
-4959.294921875
 10
1931.310546875
 20
-4959.294921875
 10
1941.015625
 20
-4959.294921875
 10
1950.720703125
 20
-4959.294921875
 10
1960.42578125
 20
-4959.294921875
 10
1970.130859375
 20
-4959.294921875
 10
1979.8359375
 20
-4959.294921875
 10
1989.541015625
 20
-4959.294921875
 10
1999.24609375
 20
-4959.294921875
 10
2008.951171875
 20
-4959.294921875
 10
2018.65625
 20
-4959.294921875
 10
2028.361328125
 20
-4959.294921875
 10
2038.06640625
 20
-4959.294921875
 10
2047.771484375
 20
-4959.294921875
 10
2057.4765625
 20
-4959.294921875
 10
2067.181640625
 20
-4959.294921875
 10
2076.88671875
 20
-4959.294921875
 10
2086.591796875
 20
-4959.294921875
 10
2096.296875
 20
-4959.294921875
 10
2106.001953125
 20
-4959.294921875
 10
2115.70703125
 20
-4959.294921875
 10
2125.412109375
 20
-4959.294921875
 10
2135.1171875
 20
-4959.294921875
 10
2144.822265625
 20
-4959.294921875
 10
2154.52734375
 20
-4959.294921875
 10
2164.232421875
 20
-4959.294921875
 10
2173.9375
 20
-4959.294921875
 10
2183.642578125
 20
-4959.294921875
 10
2193.34765625
 20
-4959.294921875
 10
2203.052734375
 20
-4959.294921875
 10
2212.7578125
 20
-4959.294921875
 10
2222.462890625
 20
-4959.294921875
 10
2232.16796875
 20
-4959.294921875
 10
2241.873046875
 20
-4959.294921875
 10
2251.578125
 20
-4959.294921875
 10
2261.283203125
 20
-4959.294921875
 10
2270.98828125
 20
-4959.294921875
 10
2280.693359375
 20
-4959.294921875
 10
2290.3984375
 20
-4959.294921875
 10
2300.103515625
 20
-4959.294921875
 10
2309.80859375
 20
-4959.294921875
 10
2319.513671875
 20
-4959.294921875
 10
2329.21875
 20
-4959.294921875
 10
2338.923828125
 20
-4959.294921875
 10
2348.62890625
 20
-4959.294921875
 10
2358.333984375
 20
-4959.294921875
 10
2368.0390625
 20
-4959.294921875
 10
2377.744140625
 20
-4959.294921875
 10
2387.44921875
 20
-4959.294921875
 10
2397.154296875
 20
-4959.294921875
 10
2406.859375
 20
-4959.294921875
 10
2416.564453125
 20
-4959.294921875
 10
2426.26953125
 20
-4959.294921875
 10
2435.974609375
 20
-4959.294921875
 10
2445.6796875
 20
-4959.294921875
 10
2455.384765625
 20
-4959.294921875
 10
2465.08984375
 20
-4959.294921875
 10
2474.794921875
 20
-4959.294921875
 10
2484.5
 20
-4959.294921875
 10
2494.205078125
 20
-4959.294921875
 10
2503.91015625
 20
-4959.294921875
 10
2513.615234375
 20
-4959.294921875
 10
2523.3203125
 20
-4959.294921875
 10
2533.025390625
 20
-4959.294921875
 10
2542.73046875
 20
-4959.294921875
 10
2552.435546875
 20
-4959.294921875
 10
2562.140625
 20
-4959.294921875
 10
2571.845703125
 20
-4959.294921875
 10
2581.55078125
 20
-4959.294921875
 10
2591.255859375
 20
-4959.294921875
 10
2600.9609375
 20
-4959.294921875
 10
2610.666015625
 20
-4959.294921875
 10
2620.37109375
 20
-4959.294921875
 10
2630.076171875
 20
-4959.294921875
 10
2639.78125
 20
-4959.294921875
 10
2649.486328125
 20
-4959.294921875
 10
2659.19140625
 20
-4959.294921875
 10
2668.896484375
 20
-4959.294921875
 10
2678.6015625
 20
-4959.294921875
 10
2688.306640625
 20
-4959.294921875
 10
2698.01171875
 20
-4959.294921875
 10
2707.716796875
 20
-4959.294921875
 10
2717.421875
 20
-4959.294921875
 10
2727.126953125
 20
-4959.294921875
 10
2736.83203125
 20
-4959.294921875
 10
2746.537109375
 20
-4959.294921875
 10
2756.2421875
 20
-4959.294921875
 10
2765.947265625
 20
-4959.294921875
 10
2775.65234375
 20
-4959.294921875
 10
2785.357421875
 20
-4959.294921875
 10
2795.0625
 20
-4959.294921875
 10
2804.767578125
 20
-4959.294921875
 10
2814.47265625
 20
-4959.294921875
 10
2824.177734375
 20
-4959.294921875
 10
2833.8828125
 20
-4959.294921875
 10
2843.587890625
 20
-4959.294921875
 10
2853.29296875
 20
-4959.294921875
 10
2862.998046875
 20
-4959.294921875
 10
2872.703125
 20
-4959.294921875
 10
2882.408203125
 20
-4959.294921875
 10
2892.11328125
 20
-4959.294921875
 10
2901.818359375
 20
-4959.294921875
 10
2911.5234375
 20
-4959.294921875
 10
2921.228515625
 20
-4959.294921875
 10
2930.93359375
 20
-4959.294921875
 10
2940.638671875
 20
-4959.294921875
 10
2950.34375
 20
-4959.294921875
 10
2960.048828125
 20
-4959.294921875
 10
2969.75390625
 20
-4959.294921875
 10
2979.458984375
 20
-4959.294921875
 10
2989.1640625
 20
-4959.294921875
 10
2998.869140625
 20
-4959.294921875
 10
3008.57421875
 20
-4959.294921875
 10
3018.279296875
 20
-4959.294921875
 10
3027.984375
 20
-4959.294921875
 10
3037.689453125
 20
-4959.294921875
 10
3047.39453125
 20
-4959.294921875
 10
3057.099609375
 20
-4959.294921875
 10
3066.8046875
 20
-4959.294921875
 10
3076.509765625
 20
-4959.294921875
 10
3086.21484375
 20
-4959.294921875
 10
3095.919921875
 20
-4959.294921875
 10
3105.625
 20
-4959.294921875
 10
3115.330078125
 20
-4959.294921875
 10
3125.03515625
 20
-4959.294921875
 10
3134.740234375
 20
-4959.294921875
 10
3144.4453125
 20
-4959.294921875
 10
3154.150390625
 20
-4959.294921875
 10
3163.85546875
 20
-4959.294921875
 10
3173.560546875
 20
-4959.294921875
 10
3183.265625
 20
-4959.294921875
 10
3192.970703125
 20
-4959.294921875
 10
3202.67578125
 20
-4959.294921875
 10
3212.380859375
 20
-4959.294921875
 10
3222.0859375
 20
-4959.294921875
 10
3231.791015625
 20
-4959.294921875
 10
3241.49609375
 20
-4959.294921875
 10
3251.201171875
 20
-4959.294921875
 10
3260.90625
 20
-4959.294921875
 10
3270.611328125
 20
-4959.294921875
 10
3280.31640625
 20
-4959.294921875
 10
3290.021484375
 20
-4959.294921875
 10
3299.7265625
 20
-4959.294921875
 10
3309.431640625
 20
-4959.294921875
 10
3319.13671875
 20
-4959.294921875
 10
3328.841796875
 20
-4959.294921875
 10
3338.546875
 20
-4959.294921875
 10
3348.251953125
 20
-4959.294921875
 10
3357.95703125
 20
-4959.294921875
 10
3367.662109375
 20
-4959.294921875
 10
3377.3671875
 20
-4959.294921875
 10
3387.072265625
 20
-4959.294921875
 10
3396.77734375
 20
-4959.294921875
 10
3406.482421875
 20
-4959.294921875
 10
3416.1875
 20
-4959.294921875
 10
3425.892578125
 20
-4959.294921875
 10
3435.59765625
 20
-4959.294921875
 10
3445.302734375
 20
-4959.294921875
 10
3455.0078125
 20
-4959.294921875
 10
3464.712890625
 20
-4959.294921875
 10
3474.41796875
 20
-4959.294921875
 10
3484.123046875
 20
-4959.294921875
 10
3493.828125
 20
-4959.294921875
 10
3503.533203125
 20
-4959.294921875
 10
3513.23828125
 20
-4959.294921875
 10
3522.943359375
 20
-4959.294921875
 10
3532.6484375
 20
-4959.294921875
 10
3542.353515625
 20
-4959.294921875
 10
3552.05859375
 20
-4959.294921875
 10
3561.763671875
 20
-4959.294921875
 10
3571.46875
 20
-4959.294921875
 10
3581.173828125
 20
-4959.294921875
 10
3590.87890625
 20
-4959.294921875
 10
3600.583984375
 20
-4959.294921875
 10
3610.2890625
 20
-4959.294921875
 10
3619.994140625
 20
-4959.294921875
 10
3629.69921875
 20
-4959.294921875
 10
3639.404296875
 20
-4959.294921875
 10
3649.109375
 20
-4959.294921875
 10
3658.814453125
 20
-4959.294921875
 10
3668.51953125
 20
-4959.294921875
 10
3678.224609375
 20
-4959.294921875
 10
3687.9296875
 20
-4959.294921875
 10
3697.634765625
 20
-4959.294921875
 10
3707.33984375
 20
-4959.294921875
 10
3717.044921875
 20
-4959.294921875
 10
3726.75
 20
-4959.294921875
 10
3736.455078125
 20
-4959.294921875
 10
3746.16015625
 20
-4959.294921875
 10
3755.865234375
 20
-4959.294921875
 10
3765.5703125
 20
-4959.294921875
 10
3775.275390625
 20
-4959.294921875
 10
3784.98046875
 20
-4959.294921875
 10
3794.685546875
 20
-4959.294921875
 10
3804.390625
 20
-4959.294921875
 10
3814.095703125
 20
-4959.294921875
 10
3823.80078125
 20
-4959.294921875
 10
3833.505859375
 20
-4959.294921875
 10
3843.2109375
 20
-4959.294921875
 10
3852.916015625
 20
-4959.294921875
 10
3862.62109375
 20
-4959.294921875
 10
3872.326171875
 20
-4959.294921875
 10
3882.03125
 20
-4959.294921875
 10
3891.736328125
 20
-4959.294921875
 10
3901.44140625
 20
-4959.294921875
 10
3911.146484375
 20
-4959.294921875
 10
3920.8515625
 20
-4959.294921875
 10
3930.556640625
 20
-4959.294921875
 10
3940.26171875
 20
-4959.294921875
 10
3949.966796875
 20
-4959.294921875
 10
3959.671875
 20
-4959.294921875
 10
3969.376953125
 20
-4959.294921875
 10
3979.08203125
 20
-4959.294921875
 10
3988.787109375
 20
-4959.294921875
 10
3998.4921875
 20
-4959.294921875
 10
4008.197265625
 20
-4959.294921875
 10
4017.90234375
 20
-4959.294921875
 10
4027.607421875
 20
-4959.294921875
 10
4037.3125
 20
-4959.294921875
 10
4047.017578125
 20
-4959.294921875
 10
4056.72265625
 20
-4959.294921875
 10
4066.427734375
 20
-4959.294921875
 10
4076.1328125
 20
-4959.294921875
 10
4085.837890625
 20
-4959.294921875
 10
4095.54296875
 20
-4959.294921875
 10
4105.248046875
 20
-4959.294921875
 10
4114.953125
 20
-4959.294921875
 10
4124.658203125
 20
-4959.294921875
 10
4134.36328125
 20
-4959.294921875
 10
4144.068359375
 20
-4959.294921875
 10
4153.7734375
 20
-4959.294921875
 10
4163.478515625
 20
-4959.294921875
 10
4173.18359375
 20
-4959.294921875
 10
4182.888671875
 20
-4959.294921875
 10
4192.59375
 20
-4959.294921875
 10
4202.298828125
 20
-4959.294921875
 10
4212.00390625
 20
-4959.294921875
 10
4221.708984375
 20
-4959.294921875
 10
4231.4140625
 20
-4959.294921875
 10
4241.119140625
 20
-4959.294921875
 10
4250.82421875
 20
-4959.294921875
 10
4260.529296875
 20
-4959.294921875
 10
4270.234375
 20
-4959.294921875
 10
4279.939453125
 20
-4959.294921875
 10
4289.64453125
 20
-4959.294921875
 10
4299.349609375
 20
-4959.294921875
 10
4309.0546875
 20
-4959.294921875
 10
4318.759765625
 20
-4959.294921875
 10
4328.46484375
 20
-4959.294921875
 10
4338.169921875
 20
-4959.294921875
 10
4347.875
 20
-4959.294921875
 10
4357.580078125
 20
-4959.294921875
 10
4367.28515625
 20
-4959.294921875
 10
4376.990234375
 20
-4959.294921875
 10
4386.6953125
 20
-4959.294921875
 10
4396.400390625
 20
-4959.294921875
 10
4406.10546875
 20
-4959.294921875
 10
4415.810546875
 20
-4959.294921875
 10
4425.515625
 20
-4959.294921875
 10
4435.220703125
 20
-4959.294921875
 10
4444.92578125
 20
-4959.294921875
 10
4454.630859375
 20
-4959.294921875
 10
4464.3359375
 20
-4959.294921875
 10
4474.041015625
 20
-4959.294921875
 10
4483.74609375
 20
-4959.294921875
 10
4493.451171875
 20
-4959.294921875
 10
4503.15625
 20
-4959.294921875
 10
4512.861328125
 20
-4959.294921875
 10
4522.56640625
 20
-4959.294921875
 10
4532.271484375
 20
-4959.294921875
 10
4541.9765625
 20
-4959.294921875
 10
4551.681640625
 20
-4959.294921875
 10
4561.38671875
 20
-4959.294921875
 10
4571.091796875
 20
-4959.294921875
 10
4580.796875
 20
-4959.294921875
 10
4590.501953125
 20
-4959.294921875
 10
4600.20703125
 20
-4959.294921875
 10
4609.912109375
 20
-4959.294921875
 10
4619.6171875
 20
-4959.294921875
 10
4629.322265625
 20
-4959.294921875
 10
4639.02734375
 20
-4959.294921875
 10
4648.732421875
 20
-4959.294921875
 10
4658.4375
 20
-4959.294921875
 10
4668.142578125
 20
-4959.294921875
 10
4677.84765625
 20
-4959.294921875
 10
4687.552734375
 20
-4959.294921875
 10
4697.2578125
 20
-4959.294921875
 10
4706.962890625
 20
-4959.294921875
 10
4716.66796875
 20
-4959.294921875
 10
4726.373046875
 20
-4959.294921875
 10
4736.078125
 20
-4959.294921875
 10
4745.783203125
 20
-4959.294921875
 10
4755.48828125
 20
-4959.294921875
 10
4765.193359375
 20
-4959.294921875
 10
4774.8984375
 20
-4959.294921875
 10
4784.603515625
 20
-4959.294921875
 10
4794.30859375
 20
-4959.294921875
 10
4804.013671875
 20
-4959.294921875
 10
4813.71875
 20
-4959.294921875
 10
4823.423828125
 20
-4959.294921875
 10
4833.12890625
 20
-4959.294921875
 10
4842.833984375
 20
-4959.294921875
 10
4852.5390625
 20
-4959.294921875
 10
4862.244140625
 20
-4959.294921875
 10
4871.94921875
 20
-4959.294921875
 10
4881.654296875
 20
-4959.294921875
 10
4891.359375
 20
-4959.294921875
 10
4901.064453125
 20
-4959.294921875
 10
4910.76953125
 20
-4959.294921875
 10
4920.474609375
 20
-4959.294921875
 10
4930.1796875
 20
-4959.294921875
 10
4939.884765625
 20
-4959.294921875
 10
4949.58984375
 20
-4959.294921875
 10
4959.294921875
 20
-4959.294921875
 10
4959.294921875
 20
-4949.58984375
 10
4959.294921875
 20
-4939.884765625
 10
4959.294921875
 20
-4930.1796875
 10
4959.294921875
 20
-4920.474609375
 10
4959.294921875
 20
-4910.76953125
 10
4959.294921875
 20
-4901.064453125
 10
4959.294921875
 20
-4891.359375
 10
4959.294921875
 20
-4881.654296875
 10
4959.294921875
 20
-4871.94921875
 10
4959.294921875
 20
-4862.244140625
 10
4959.294921875
 20
-4852.5390625
 10
4959.294921875
 20
-4842.833984375
 10
4959.294921875
 20
-4833.12890625
 10
4959.294921875
 20
-4823.423828125
 10
4959.294921875
 20
-4813.71875
 10
4959.294921875
 20
-4804.013671875
 10
4959.294921875
 20
-4794.30859375
 10
4959.294921875
 20
-4784.603515625
 10
4959.294921875
 20
-4774.8984375
 10
4959.294921875
 20
-4765.193359375
 10
4959.294921875
 20
-4755.48828125
 10
4959.294921875
 20
-4745.783203125
 10
4959.294921875
 20
-4736.078125
 10
4959.294921875
 20
-4726.373046875
 10
4959.294921875
 20
-4716.66796875
 10
4959.294921875
 20
-4706.962890625
 10
4959.294921875
 20
-4697.2578125
 10
4959.294921875
 20
-4687.552734375
 10
4959.294921875
 20
-4677.84765625
 10
4959.294921875
 20
-4668.142578125
 10
4959.294921875
 20
-4658.4375
 10
4959.294921875
 20
-4648.732421875
 10
4959.294921875
 20
-4639.02734375
 10
4959.294921875
 20
-4629.322265625
 10
4959.294921875
 20
-4619.6171875
 10
4959.294921875
 20
-4609.912109375
 10
4959.294921875
 20
-4600.20703125
 10
4959.294921875
 20
-4590.501953125
 10
4959.294921875
 20
-4580.796875
 10
4959.294921875
 20
-4571.091796875
 10
4959.294921875
 20
-4561.38671875
 10
4959.294921875
 20
-4551.681640625
 10
4959.294921875
 20
-4541.9765625
 10
4959.294921875
 20
-4532.271484375
 10
4959.294921875
 20
-4522.56640625
 10
4959.294921875
 20
-4512.861328125
 10
4959.294921875
 20
-4503.15625
 10
4959.294921875
 20
-4493.451171875
 10
4959.294921875
 20
-4483.74609375
 10
4959.294921875
 20
-4474.041015625
 10
4959.294921875
 20
-4464.3359375
 10
4959.294921875
 20
-4454.630859375
 10
4959.294921875
 20
-4444.92578125
 10
4959.294921875
 20
-4435.220703125
 10
4959.294921875
 20
-4425.515625
 10
4959.294921875
 20
-4415.810546875
 10
4959.294921875
 20
-4406.10546875
 10
4959.294921875
 20
-4396.400390625
 10
4959.294921875
 20
-4386.6953125
 10
4959.294921875
 20
-4376.990234375
 10
4959.294921875
 20
-4367.28515625
 10
4959.294921875
 20
-4357.580078125
 10
4959.294921875
 20
-4347.875
 10
4959.294921875
 20
-4338.169921875
 10
4959.294921875
 20
-4328.46484375
 10
4959.294921875
 20
-4318.759765625
 10
4959.294921875
 20
-4309.0546875
 10
4959.294921875
 20
-4299.349609375
 10
4959.294921875
 20
-4289.64453125
 10
4959.294921875
 20
-4279.939453125
 10
4959.294921875
 20
-4270.234375
 10
4959.294921875
 20
-4260.529296875
 10
4959.294921875
 20
-4250.82421875
 10
4959.294921875
 20
-4241.119140625
 10
4959.294921875
 20
-4231.4140625
 10
4959.294921875
 20
-4221.708984375
 10
4959.294921875
 20
-4212.00390625
 10
4959.294921875
 20
-4202.298828125
 10
4959.294921875
 20
-4192.59375
 10
4959.294921875
 20
-4182.888671875
 10
4959.294921875
 20
-4173.18359375
 10
4959.294921875
 20
-4163.478515625
 10
4959.294921875
 20
-4153.7734375
 10
4959.294921875
 20
-4144.068359375
 10
4959.294921875
 20
-4134.36328125
 10
4959.294921875
 20
-4124.658203125
 10
4959.294921875
 20
-4114.953125
 10
4959.294921875
 20
-4105.248046875
 10
4959.294921875
 20
-4095.54296875
 10
4959.294921875
 20
-4085.837890625
 10
4959.294921875
 20
-4076.1328125
 10
4959.294921875
 20
-4066.427734375
 10
4959.294921875
 20
-4056.72265625
 10
4959.294921875
 20
-4047.017578125
 10
4959.294921875
 20
-4037.3125
 10
4959.294921875
 20
-4027.607421875
 10
4959.294921875
 20
-4017.90234375
 10
4959.294921875
 20
-4008.197265625
 10
4959.294921875
 20
-3998.4921875
 10
4959.294921875
 20
-3988.787109375
 10
4959.294921875
 20
-3979.08203125
 10
4959.294921875
 20
-3969.376953125
 10
4959.294921875
 20
-3959.671875
 10
4959.294921875
 20
-3949.966796875
 10
4959.294921875
 20
-3940.26171875
 10
4959.294921875
 20
-3930.556640625
 10
4959.294921875
 20
-3920.8515625
 10
4959.294921875
 20
-3911.146484375
 10
4959.294921875
 20
-3901.44140625
 10
4959.294921875
 20
-3891.736328125
 10
4959.294921875
 20
-3882.03125
 10
4959.294921875
 20
-3872.326171875
 10
4959.294921875
 20
-3862.62109375
 10
4959.294921875
 20
-3852.916015625
 10
4959.294921875
 20
-3843.2109375
 10
4959.294921875
 20
-3833.505859375
 10
4959.294921875
 20
-3823.80078125
 10
4959.294921875
 20
-3814.095703125
 10
4959.294921875
 20
-3804.390625
 10
4959.294921875
 20
-3794.685546875
 10
4959.294921875
 20
-3784.98046875
 10
4959.294921875
 20
-3775.275390625
 10
4959.294921875
 20
-3765.5703125
 10
4959.294921875
 20
-3755.865234375
 10
4959.294921875
 20
-3746.16015625
 10
4959.294921875
 20
-3736.455078125
 10
4959.294921875
 20
-3726.75
 10
4959.294921875
 20
-3717.044921875
 10
4959.294921875
 20
-3707.33984375
 10
4959.294921875
 20
-3697.634765625
 10
4959.294921875
 20
-3687.9296875
 10
4959.294921875
 20
-3678.224609375
 10
4959.294921875
 20
-3668.51953125
 10
4959.294921875
 20
-3658.814453125
 10
4959.294921875
 20
-3649.109375
 10
4959.294921875
 20
-3639.404296875
 10
4959.294921875
 20
-3629.69921875
 10
4959.294921875
 20
-3619.994140625
 10
4959.294921875
 20
-3610.2890625
 10
4959.294921875
 20
-3600.583984375
 10
4959.294921875
 20
-3590.87890625
 10
4959.294921875
 20
-3581.173828125
 10
4959.294921875
 20
-3571.46875
 10
4959.294921875
 20
-3561.763671875
 10
4959.294921875
 20
-3552.05859375
 10
4959.294921875
 20
-3542.353515625
 10
4959.294921875
 20
-3532.6484375
 10
4959.294921875
 20
-3522.943359375
 10
4959.294921875
 20
-3513.23828125
 10
4959.294921875
 20
-3503.533203125
 10
4959.294921875
 20
-3493.828125
 10
4959.294921875
 20
-3484.123046875
 10
4959.294921875
 20
-3474.41796875
 10
4959.294921875
 20
-3464.712890625
 10
4959.294921875
 20
-3455.0078125
 10
4959.294921875
 20
-3445.302734375
 10
4959.294921875
 20
-3435.59765625
 10
4959.294921875
 20
-3425.892578125
 10
4959.294921875
 20
-3416.1875
 10
4959.294921875
 20
-3406.482421875
 10
4959.294921875
 20
-3396.77734375
 10
4959.294921875
 20
-3387.072265625
 10
4959.294921875
 20
-3377.3671875
 10
4959.294921875
 20
-3367.662109375
 10
4959.294921875
 20
-3357.95703125
 10
4959.294921875
 20
-3348.251953125
 10
4959.294921875
 20
-3338.546875
 10
4959.294921875
 20
-3328.841796875
 10
4959.294921875
 20
-3319.13671875
 10
4959.294921875
 20
-3309.431640625
 10
4959.294921875
 20
-3299.7265625
 10
4959.294921875
 20
-3290.021484375
 10
4959.294921875
 20
-3280.31640625
 10
4959.294921875
 20
-3270.611328125
 10
4959.294921875
 20
-3260.90625
 10
4959.294921875
 20
-3251.201171875
 10
4959.294921875
 20
-3241.49609375
 10
4959.294921875
 20
-3231.791015625
 10
4959.294921875
 20
-3222.0859375
 10
4959.294921875
 20
-3212.380859375
 10
4959.294921875
 20
-3202.67578125
 10
4959.294921875
 20
-3192.970703125
 10
4959.294921875
 20
-3183.265625
 10
4959.294921875
 20
-3173.560546875
 10
4959.294921875
 20
-3163.85546875
 10
4959.294921875
 20
-3154.150390625
 10
4959.294921875
 20
-3144.4453125
 10
4959.294921875
 20
-3134.740234375
 10
4959.294921875
 20
-3125.03515625
 10
4959.294921875
 20
-3115.330078125
 10
4959.294921875
 20
-3105.625
 10
4959.294921875
 20
-3095.919921875
 10
4959.294921875
 20
-3086.21484375
 10
4959.294921875
 20
-3076.509765625
 10
4959.294921875
 20
-3066.8046875
 10
4959.294921875
 20
-3057.099609375
 10
4959.294921875
 20
-3047.39453125
 10
4959.294921875
 20
-3037.689453125
 10
4959.294921875
 20
-3027.984375
 10
4959.294921875
 20
-3018.279296875
 10
4959.294921875
 20
-3008.57421875
 10
4959.294921875
 20
-2998.869140625
 10
4959.294921875
 20
-2989.1640625
 10
4959.294921875
 20
-2979.458984375
 10
4959.294921875
 20
-2969.75390625
 10
4959.294921875
 20
-2960.048828125
 10
4959.294921875
 20
-2950.34375
 10
4959.294921875
 20
-2940.638671875
 10
4959.294921875
 20
-2930.93359375
 10
4959.294921875
 20
-2921.228515625
 10
4959.294921875
 20
-2911.5234375
 10
4959.294921875
 20
-2901.818359375
 10
4959.294921875
 20
-2892.11328125
 10
4959.294921875
 20
-2882.408203125
 10
4959.294921875
 20
-2872.703125
 10
4959.294921875
 20
-2862.998046875
 10
4959.294921875
 20
-2853.29296875
 10
4959.294921875
 20
-2843.587890625
 10
4959.294921875
 20
-2833.8828125
 10
4959.294921875
 20
-2824.177734375
 10
4959.294921875
 20
-2814.47265625
 10
4959.294921875
 20
-2804.767578125
 10
4959.294921875
 20
-2795.0625
 10
4959.294921875
 20
-2785.357421875
 10
4959.294921875
 20
-2775.65234375
 10
4959.294921875
 20
-2765.947265625
 10
4959.294921875
 20
-2756.2421875
 10
4959.294921875
 20
-2746.537109375
 10
4959.294921875
 20
-2736.83203125
 10
4959.294921875
 20
-2727.126953125
 10
4959.294921875
 20
-2717.421875
 10
4959.294921875
 20
-2707.716796875
 10
4959.294921875
 20
-2698.01171875
 10
4959.294921875
 20
-2688.306640625
 10
4959.294921875
 20
-2678.6015625
 10
4959.294921875
 20
-2668.896484375
 10
4959.294921875
 20
-2659.19140625
 10
4959.294921875
 20
-2649.486328125
 10
4959.294921875
 20
-2639.78125
 10
4959.294921875
 20
-2630.076171875
 10
4959.294921875
 20
-2620.37109375
 10
4959.294921875
 20
-2610.666015625
 10
4959.294921875
 20
-2600.9609375
 10
4959.294921875
 20
-2591.255859375
 10
4959.294921875
 20
-2581.55078125
 10
4959.294921875
 20
-2571.845703125
 10
4959.294921875
 20
-2562.140625
 10
4959.294921875
 20
-2552.435546875
 10
4959.294921875
 20
-2542.73046875
 10
4959.294921875
 20
-2533.025390625
 10
4959.294921875
 20
-2523.3203125
 10
4959.294921875
 20
-2513.615234375
 10
4959.294921875
 20
-2503.91015625
 10
4959.294921875
 20
-2494.205078125
 10
4959.294921875
 20
-2484.5
 10
4959.294921875
 20
-2474.794921875
 10
4959.294921875
 20
-2465.08984375
 10
4959.294921875
 20
-2455.384765625
 10
4959.294921875
 20
-2445.6796875
 10
4959.294921875
 20
-2435.974609375
 10
4959.294921875
 20
-2426.26953125
 10
4959.294921875
 20
-2416.564453125
 10
4959.294921875
 20
-2406.859375
 10
4959.294921875
 20
-2397.154296875
 10
4959.294921875
 20
-2387.44921875
 10
4959.294921875
 20
-2377.744140625
 10
4959.294921875
 20
-2368.0390625
 10
4959.294921875
 20
-2358.333984375
 10
4959.294921875
 20
-2348.62890625
 10
4959.294921875
 20
-2338.923828125
 10
4959.294921875
 20
-2329.21875
 10
4959.294921875
 20
-2319.513671875
 10
4959.294921875
 20
-2309.80859375
 10
4959.294921875
 20
-2300.103515625
 10
4959.294921875
 20
-2290.3984375
 10
4959.294921875
 20
-2280.693359375
 10
4959.294921875
 20
-2270.98828125
 10
4959.294921875
 20
-2261.283203125
 10
4959.294921875
 20
-2251.578125
 10
4959.294921875
 20
-2241.873046875
 10
4959.294921875
 20
-2232.16796875
 10
4959.294921875
 20
-2222.462890625
 10
4959.294921875
 20
-2212.7578125
 10
4959.294921875
 20
-2203.052734375
 10
4959.294921875
 20
-2193.34765625
 10
4959.294921875
 20
-2183.642578125
 10
4959.294921875
 20
-2173.9375
 10
4959.294921875
 20
-2164.232421875
 10
4959.294921875
 20
-2154.52734375
 10
4959.294921875
 20
-2144.822265625
 10
4959.294921875
 20
-2135.1171875
 10
4959.294921875
 20
-2125.412109375
 10
4959.294921875
 20
-2115.70703125
 10
4959.294921875
 20
-2106.001953125
 10
4959.294921875
 20
-2096.296875
 10
4959.294921875
 20
-2086.591796875
 10
4959.294921875
 20
-2076.88671875
 10
4959.294921875
 20
-2067.181640625
 10
4959.294921875
 20
-2057.4765625
 10
4959.294921875
 20
-2047.771484375
 10
4959.294921875
 20
-2038.06640625
 10
4959.294921875
 20
-2028.361328125
 10
4959.294921875
 20
-2018.65625
 10
4959.294921875
 20
-2008.951171875
 10
4959.294921875
 20
-1999.24609375
 10
4959.294921875
 20
-1989.541015625
 10
4959.294921875
 20
-1979.8359375
 10
4959.294921875
 20
-1970.130859375
 10
4959.294921875
 20
-1960.42578125
 10
4959.294921875
 20
-1950.720703125
 10
4959.294921875
 20
-1941.015625
 10
4959.294921875
 20
-1931.310546875
 10
4959.294921875
 20
-1921.60546875
 10
4959.294921875
 20
-1911.900390625
 10
4959.294921875
 20
-1902.1953125
 10
4959.294921875
 20
-1892.490234375
 10
4959.294921875
 20
-1882.78515625
 10
4959.294921875
 20
-1873.080078125
 10
4959.294921875
 20
-1863.375
 10
4959.294921875
 20
-1853.669921875
 10
4959.294921875
 20
-1843.96484375
 10
4959.294921875
 20
-1834.259765625
 10
4959.294921875
 20
-1824.5546875
 10
4959.294921875
 20
-1814.849609375
 10
4959.294921875
 20
-1805.14453125
 10
4959.294921875
 20
-1795.439453125
 10
4959.294921875
 20
-1785.734375
 10
4959.294921875
 20
-1776.029296875
 10
4959.294921875
 20
-1766.32421875
 10
4959.294921875
 20
-1756.619140625
 10
4959.294921875
 20
-1746.9140625
 10
4959.294921875
 20
-1737.208984375
 10
4959.294921875
 20
-1727.50390625
 10
4959.294921875
 20
-1717.798828125
 10
4959.294921875
 20
-1708.09375
 10
4959.294921875
 20
-1698.388671875
 10
4959.294921875
 20
-1688.68359375
 10
4959.294921875
 20
-1678.978515625
 10
4959.294921875
 20
-1669.2734375
 10
4959.294921875
 20
-1659.568359375
 10
4959.294921875
 20
-1649.86328125
 10
4959.294921875
 20
-1640.158203125
 10
4959.294921875
 20
-1630.453125
 10
4959.294921875
 20
-1620.748046875
 10
4959.294921875
 20
-1611.04296875
 10
4959.294921875
 20
-1601.337890625
 10
4959.294921875
 20
-1591.6328125
 10
4959.294921875
 20
-1581.927734375
 10
4959.294921875
 20
-1572.22265625
 10
4959.294921875
 20
-1562.517578125
 10
4959.294921875
 20
-1552.8125
 10
4959.294921875
 20
-1543.107421875
 10
4959.294921875
 20
-1533.40234375
 10
4959.294921875
 20
-1523.697265625
 10
4959.294921875
 20
-1513.9921875
 10
4959.294921875
 20
-1504.287109375
 10
4959.294921875
 20
-1494.58203125
 10
4959.294921875
 20
-1484.876953125
 10
4959.294921875
 20
-1475.171875
 10
4959.294921875
 20
-1465.466796875
 10
4959.294921875
 20
-1455.76171875
 10
4959.294921875
 20
-1446.056640625
 10
4959.294921875
 20
-1436.3515625
 10
4959.294921875
 20
-1426.646484375
 10
4959.294921875
 20
-1416.94140625
 10
4959.294921875
 20
-1407.236328125
 10
4959.294921875
 20
-1397.53125
 10
4959.294921875
 20
-1387.826171875
 10
4959.294921875
 20
-1378.12109375
 10
4959.294921875
 20
-1368.416015625
 10
4959.294921875
 20
-1358.7109375
 10
4959.294921875
 20
-1349.005859375
 10
4959.294921875
 20
-1339.30078125
 10
4959.294921875
 20
-1329.595703125
 10
4959.294921875
 20
-1319.890625
 10
4959.294921875
 20
-1310.185546875
 10
4959.294921875
 20
-1300.48046875
 10
4959.294921875
 20
-1290.775390625
 10
4959.294921875
 20
-1281.0703125
 10
4959.294921875
 20
-1271.365234375
 10
4959.294921875
 20
-1261.66015625
 10
4959.294921875
 20
-1251.955078125
 10
4959.294921875
 20
-1242.25
 10
4959.294921875
 20
-1232.544921875
 10
4959.294921875
 20
-1222.83984375
 10
4959.294921875
 20
-1213.134765625
 10
4959.294921875
 20
-1203.4296875
 10
4959.294921875
 20
-1193.724609375
 10
4959.294921875
 20
-1184.01953125
 10
4959.294921875
 20
-1174.314453125
 10
4959.294921875
 20
-1164.609375
 10
4959.294921875
 20
-1154.904296875
 10
4959.294921875
 20
-1145.19921875
 10
4959.294921875
 20
-1135.494140625
 10
4959.294921875
 20
-1125.7890625
 10
4959.294921875
 20
-1116.083984375
 10
4959.294921875
 20
-1106.37890625
 10
4959.294921875
 20
-1096.673828125
 10
4959.294921875
 20
-1086.96875
 10
4959.294921875
 20
-1077.263671875
 10
4959.294921875
 20
-1067.55859375
 10
4959.294921875
 20
-1057.853515625
 10
4959.294921875
 20
-1048.1484375
 10
4959.294921875
 20
-1038.443359375
 10
4959.294921875
 20
-1028.73828125
 10
4959.294921875
 20
-1019.033203125
 10
4959.294921875
 20
-1009.328125
 10
4959.294921875
 20
-999.623046875
 10
4959.294921875
 20
-989.91796875
 10
4959.294921875
 20
-980.212890625
 10
4959.294921875
 20
-970.5078125
 10
4959.294921875
 20
-960.802734375
 10
4959.294921875
 20
-951.09765625
 10
4959.294921875
 20
-941.392578125
 10
4959.294921875
 20
-931.6875
 10
4959.294921875
 20
-921.982421875
 10
4959.294921875
 20
-912.27734375
 10
4959.294921875
 20
-902.572265625
 10
4959.294921875
 20
-892.8671875
 10
4959.294921875
 20
-883.162109375
 10
4959.294921875
 20
-873.45703125
 10
4959.294921875
 20
-863.751953125
 10
4959.294921875
 20
-854.046875
 10
4959.294921875
 20
-844.341796875
 10
4959.294921875
 20
-834.63671875
 10
4959.294921875
 20
-824.931640625
 10
4959.294921875
 20
-815.2265625
 10
4959.294921875
 20
-805.521484375
 10
4959.294921875
 20
-795.81640625
 10
4959.294921875
 20
-786.111328125
 10
4959.294921875
 20
-776.40625
 10
4959.294921875
 20
-766.701171875
 10
4959.294921875
 20
-756.99609375
 10
4959.294921875
 20
-747.291015625
 10
4959.294921875
 20
-737.5859375
 10
4959.294921875
 20
-727.880859375
 10
4959.294921875
 20
-718.17578125
 10
4959.294921875
 20
-708.470703125
 10
4959.294921875
 20
-698.765625
 10
4959.294921875
 20
-689.060546875
 10
4959.294921875
 20
-679.35546875
 10
4959.294921875
 20
-669.650390625
 10
4959.294921875
 20
-659.9453125
 10
4959.294921875
 20
-650.240234375
 10
4959.294921875
 20
-640.53515625
 10
4959.294921875
 20
-630.830078125
 10
4959.294921875
 20
-621.125
 10
4959.294921875
 20
-611.419921875
 10
4959.294921875
 20
-601.71484375
 10
4959.294921875
 20
-592.009765625
 10
4959.294921875
 20
-582.3046875
 10
4959.294921875
 20
-572.599609375
 10
4959.294921875
 20
-562.89453125
 10
4959.294921875
 20
-553.189453125
 10
4959.294921875
 20
-543.484375
 10
4959.294921875
 20
-533.779296875
 10
4959.294921875
 20
-524.07421875
 10
4959.294921875
 20
-514.369140625
 10
4959.294921875
 20
-504.6640625
 10
4959.294921875
 20
-494.958984375
 10
4959.294921875
 20
-485.25390625
 10
4959.294921875
 20
-475.548828125
 10
4959.294921875
 20
-465.84375
 10
4959.294921875
 20
-456.138671875
 10
4959.294921875
 20
-446.43359375
 10
4959.294921875
 20
-436.728515625
 10
4959.294921875
 20
-427.0234375
 10
4959.294921875
 20
-417.318359375
 10
4959.294921875
 20
-407.61328125
 10
4959.294921875
 20
-397.908203125
 10
4959.294921875
 20
-388.203125
 10
4959.294921875
 20
-378.498046875
 10
4959.294921875
 20
-368.79296875
 10
4959.294921875
 20
-359.087890625
 10
4959.294921875
 20
-349.3828125
 10
4959.294921875
 20
-339.677734375
 10
4959.294921875
 20
-329.97265625
 10
4959.294921875
 20
-320.267578125
 10
4959.294921875
 20
-310.5625
 10
4959.294921875
 20
-300.857421875
 10
4959.294921875
 20
-291.15234375
 10
4959.294921875
 20
-281.447265625
 10
4959.294921875
 20
-271.7421875
 10
4959.294921875
 20
-262.037109375
 10
4959.294921875
 20
-252.33203125
 10
4959.294921875
 20
-242.626953125
 10
4959.294921875
 20
-232.921875
 10
4959.294921875
 20
-223.216796875
 10
4959.294921875
 20
-213.51171875
 10
4959.294921875
 20
-203.806640625
 10
4959.294921875
 20
-194.1015625
 10
4959.294921875
 20
-184.396484375
 10
4959.294921875
 20
-174.69140625
 10
4959.294921875
 20
-164.986328125
 10
4959.294921875
 20
-155.28125
 10
4959.294921875
 20
-145.576171875
 10
4959.294921875
 20
-135.87109375
 10
4959.294921875
 20
-126.166015625
 10
4959.294921875
 20
-116.4609375
 10
4959.294921875
 20
-106.755859375
 10
4959.294921875
 20
-97.05078125
 10
4959.294921875
 20
-87.345703125
 10
4959.294921875
 20
-77.640625
 10
4959.294921875
 20
-67.935546875
 10
4959.294921875
 20
-58.23046875
 10
4959.294921875
 20
-48.525390625
 10
4959.294921875
 20
-38.8203125
 10
4959.294921875
 20
-29.115234375
 10
4959.294921875
 20
-19.41015625
 10
4959.294921875
 20
-9.705078125
 10
4959.294921875
 20
-0.0
 10
4949.58984375
 20
-0.0
 10
4939.884765625
 20
-0.0
 10
4930.1796875
 20
-0.0
 10
4920.474609375
 20
-0.0
 10
4910.76953125
 20
-0.0
 10
4901.064453125
 20
-0.0
 10
4891.359375
 20
-0.0
 10
4881.654296875
 20
-0.0
 10
4871.94921875
 20
-0.0
 10
4862.244140625
 20
-0.0
 10
4852.5390625
 20
-0.0
 10
4842.833984375
 20
-0.0
 10
4833.12890625
 20
-0.0
 10
4823.423828125
 20
-0.0
 10
4813.71875
 20
-0.0
 10
4804.013671875
 20
-0.0
 10
4794.30859375
 20
-0.0
 10
4784.603515625
 20
-0.0
 10
4774.8984375
 20
-0.0
 10
4765.193359375
 20
-0.0
 10
4755.48828125
 20
-0.0
 10
4745.783203125
 20
-0.0
 10
4736.078125
 20
-0.0
 10
4726.373046875
 20
-0.0
 10
4716.66796875
 20
-0.0
 10
4706.962890625
 20
-0.0
 10
4697.2578125
 20
-0.0
 10
4687.552734375
 20
-0.0
 10
4677.84765625
 20
-0.0
 10
4668.142578125
 20
-0.0
 10
4658.4375
 20
-0.0
 10
4648.732421875
 20
-0.0
 10
4639.02734375
 20
-0.0
 10
4629.322265625
 20
-0.0
 10
4619.6171875
 20
-0.0
 10
4609.912109375
 20
-0.0
 10
4600.20703125
 20
-0.0
 10
4590.501953125
 20
-0.0
 10
4580.796875
 20
-0.0
 10
4571.091796875
 20
-0.0
 10
4561.38671875
 20
-0.0
 10
4551.681640625
 20
-0.0
 10
4541.9765625
 20
-0.0
 10
4532.271484375
 20
-0.0
 10
4522.56640625
 20
-0.0
 10
4512.861328125
 20
-0.0
 10
4503.15625
 20
-0.0
 10
4493.451171875
 20
-0.0
 10
4483.74609375
 20
-0.0
 10
4474.041015625
 20
-0.0
 10
4464.3359375
 20
-0.0
 10
4454.630859375
 20
-0.0
 10
4444.92578125
 20
-0.0
 10
4435.220703125
 20
-0.0
 10
4425.515625
 20
-0.0
 10
4415.810546875
 20
-0.0
 10
4406.10546875
 20
-0.0
 10
4396.400390625
 20
-0.0
 10
4386.6953125
 20
-0.0
 10
4376.990234375
 20
-0.0
 10
4367.28515625
 20
-0.0
 10
4357.580078125
 20
-0.0
 10
4347.875
 20
-0.0
 10
4338.169921875
 20
-0.0
 10
4328.46484375
 20
-0.0
 10
4318.759765625
 20
-0.0
 10
4309.0546875
 20
-0.0
 10
4299.349609375
 20
-0.0
 10
4289.64453125
 20
-0.0
 10
4279.939453125
 20
-0.0
 10
4270.234375
 20
-0.0
 10
4260.529296875
 20
-0.0
 10
4250.82421875
 20
-0.0
 10
4241.119140625
 20
-0.0
 10
4231.4140625
 20
-0.0
 10
4221.708984375
 20
-0.0
 10
4212.00390625
 20
-0.0
 10
4202.298828125
 20
-0.0
 10
4192.59375
 20
-0.0
 10
4182.888671875
 20
-0.0
 10
4173.18359375
 20
-0.0
 10
4163.478515625
 20
-0.0
 10
4153.7734375
 20
-0.0
 10
4144.068359375
 20
-0.0
 10
4134.36328125
 20
-0.0
 10
4124.658203125
 20
-0.0
 10
4114.953125
 20
-0.0
 10
4105.248046875
 20
-0.0
 10
4095.54296875
 20
-0.0
 10
4085.837890625
 20
-0.0
 10
4076.1328125
 20
-0.0
 10
4066.427734375
 20
-0.0
 10
4056.72265625
 20
-0.0
 10
4047.017578125
 20
-0.0
 10
4037.3125
 20
-0.0
 10
4027.607421875
 20
-0.0
 10
4017.90234375
 20
-0.0
 10
4008.197265625
 20
-0.0
 10
3998.4921875
 20
-0.0
 10
3988.787109375
 20
-0.0
 10
3979.08203125
 20
-0.0
 10
3969.376953125
 20
-0.0
 10
3959.671875
 20
-0.0
 10
3949.966796875
 20
-0.0
 10
3940.26171875
 20
-0.0
 10
3930.556640625
 20
-0.0
 10
3920.8515625
 20
-0.0
 10
3911.146484375
 20
-0.0
 10
3901.44140625
 20
-0.0
 10
3891.736328125
 20
-0.0
 10
3882.03125
 20
-0.0
 10
3872.326171875
 20
-0.0
 10
3862.62109375
 20
-0.0
 10
3852.916015625
 20
-0.0
 10
3843.2109375
 20
-0.0
 10
3833.505859375
 20
-0.0
 10
3823.80078125
 20
-0.0
 10
3814.095703125
 20
-0.0
 10
3804.390625
 20
-0.0
 10
3794.685546875
 20
-0.0
 10
3784.98046875
 20
-0.0
 10
3775.275390625
 20
-0.0
 10
3765.5703125
 20
-0.0
 10
3755.865234375
 20
-0.0
 10
3746.16015625
 20
-0.0
 10
3736.455078125
 20
-0.0
 10
3726.75
 20
-0.0
 10
3717.044921875
 20
-0.0
 10
3707.33984375
 20
-0.0
 10
3697.634765625
 20
-0.0
 10
3687.9296875
 20
-0.0
 10
3678.224609375
 20
-0.0
 10
3668.51953125
 20
-0.0
 10
3658.814453125
 20
-0.0
 10
3649.109375
 20
-0.0
 10
3639.404296875
 20
-0.0
 10
3629.69921875
 20
-0.0
 10
3619.994140625
 20
-0.0
 10
3610.2890625
 20
-0.0
 10
3600.583984375
 20
-0.0
 10
3590.87890625
 20
-0.0
 10
3581.173828125
 20
-0.0
 10
3571.46875
 20
-0.0
 10
3561.763671875
 20
-0.0
 10
3552.05859375
 20
-0.0
 10
3542.353515625
 20
-0.0
 10
3532.6484375
 20
-0.0
 10
3522.943359375
 20
-0.0
 10
3513.23828125
 20
-0.0
 10
3503.533203125
 20
-0.0
 10
3493.828125
 20
-0.0
 10
3484.123046875
 20
-0.0
 10
3474.41796875
 20
-0.0
 10
3464.712890625
 20
-0.0
 10
3455.0078125
 20
-0.0
 10
3445.302734375
 20
-0.0
 10
3435.59765625
 20
-0.0
 10
3425.892578125
 20
-0.0
 10
3416.1875
 20
-0.0
 10
3406.482421875
 20
-0.0
 10
3396.77734375
 20
-0.0
 10
3387.072265625
 20
-0.0
 10
3377.3671875
 20
-0.0
 10
3367.662109375
 20
-0.0
 10
3357.95703125
 20
-0.0
 10
3348.251953125
 20
-0.0
 10
3338.546875
 20
-0.0
 10
3328.841796875
 20
-0.0
 10
3319.13671875
 20
-0.0
 10
3309.431640625
 20
-0.0
 10
3299.7265625
 20
-0.0
 10
3290.021484375
 20
-0.0
 10
3280.31640625
 20
-0.0
 10
3270.611328125
 20
-0.0
 10
3260.90625
 20
-0.0
 10
3251.201171875
 20
-0.0
 10
3241.49609375
 20
-0.0
 10
3231.791015625
 20
-0.0
 10
3222.0859375
 20
-0.0
 10
3212.380859375
 20
-0.0
 10
3202.67578125
 20
-0.0
 10
3192.970703125
 20
-0.0
 10
3183.265625
 20
-0.0
 10
3173.560546875
 20
-0.0
 10
3163.85546875
 20
-0.0
 10
3154.150390625
 20
-0.0
 10
3144.4453125
 20
-0.0
 10
3134.740234375
 20
-0.0
 10
3125.03515625
 20
-0.0
 10
3115.330078125
 20
-0.0
 10
3105.625
 20
-0.0
 10
3095.919921875
 20
-0.0
 10
3086.21484375
 20
-0.0
 10
3076.509765625
 20
-0.0
 10
3066.8046875
 20
-0.0
 10
3057.099609375
 20
-0.0
 10
3047.39453125
 20
-0.0
 10
3037.689453125
 20
-0.0
 10
3027.984375
 20
-0.0
 10
3018.279296875
 20
-0.0
 10
3008.57421875
 20
-0.0
 10
2998.869140625
 20
-0.0
 10
2989.1640625
 20
-0.0
 10
2979.458984375
 20
-0.0
 10
2969.75390625
 20
-0.0
 10
2960.048828125
 20
-0.0
 10
2950.34375
 20
-0.0
 10
2940.638671875
 20
-0.0
 10
2930.93359375
 20
-0.0
 10
2921.228515625
 20
-0.0
 10
2911.5234375
 20
-0.0
 10
2901.818359375
 20
-0.0
 10
2892.11328125
 20
-0.0
 10
2882.408203125
 20
-0.0
 10
2872.703125
 20
-0.0
 10
2862.998046875
 20
-0.0
 10
2853.29296875
 20
-0.0
 10
2843.587890625
 20
-0.0
 10
2833.8828125
 20
-0.0
 10
2824.177734375
 20
-0.0
 10
2814.47265625
 20
-0.0
 10
2804.767578125
 20
-0.0
 10
2795.0625
 20
-0.0
 10
2785.357421875
 20
-0.0
 10
2775.65234375
 20
-0.0
 10
2765.947265625
 20
-0.0
 10
2756.2421875
 20
-0.0
 10
2746.537109375
 20
-0.0
 10
2736.83203125
 20
-0.0
 10
2727.126953125
 20
-0.0
 10
2717.421875
 20
-0.0
 10
2707.716796875
 20
-0.0
 10
2698.01171875
 20
-0.0
 10
2688.306640625
 20
-0.0
 10
2678.6015625
 20
-0.0
 10
2668.896484375
 20
-0.0
 10
2659.19140625
 20
-0.0
 10
2649.486328125
 20
-0.0
 10
2639.78125
 20
-0.0
 10
2630.076171875
 20
-0.0
 10
2620.37109375
 20
-0.0
 10
2610.666015625
 20
-0.0
 10
2600.9609375
 20
-0.0
 10
2591.255859375
 20
-0.0
 10
2581.55078125
 20
-0.0
 10
2571.845703125
 20
-0.0
 10
2562.140625
 20
-0.0
 10
2552.435546875
 20
-0.0
 10
2542.73046875
 20
-0.0
 10
2533.025390625
 20
-0.0
 10
2523.3203125
 20
-0.0
 10
2513.615234375
 20
-0.0
 10
2503.91015625
 20
-0.0
 10
2494.205078125
 20
-0.0
 10
2484.5
 20
-0.0
 10
2474.794921875
 20
-0.0
 10
2465.08984375
 20
-0.0
 10
2455.384765625
 20
-0.0
 10
2445.6796875
 20
-0.0
 10
2435.974609375
 20
-0.0
 10
2426.26953125
 20
-0.0
 10
2416.564453125
 20
-0.0
 10
2406.859375
 20
-0.0
 10
2397.154296875
 20
-0.0
 10
2387.44921875
 20
-0.0
 10
2377.744140625
 20
-0.0
 10
2368.0390625
 20
-0.0
 10
2358.333984375
 20
-0.0
 10
2348.62890625
 20
-0.0
 10
2338.923828125
 20
-0.0
 10
2329.21875
 20
-0.0
 10
2319.513671875
 20
-0.0
 10
2309.80859375
 20
-0.0
 10
2300.103515625
 20
-0.0
 10
2290.3984375
 20
-0.0
 10
2280.693359375
 20
-0.0
 10
2270.98828125
 20
-0.0
 10
2261.283203125
 20
-0.0
 10
2251.578125
 20
-0.0
 10
2241.873046875
 20
-0.0
 10
2232.16796875
 20
-0.0
 10
2222.462890625
 20
-0.0
 10
2212.7578125
 20
-0.0
 10
2203.052734375
 20
-0.0
 10
2193.34765625
 20
-0.0
 10
2183.642578125
 20
-0.0
 10
2173.9375
 20
-0.0
 10
2164.232421875
 20
-0.0
 10
2154.52734375
 20
-0.0
 10
2144.822265625
 20
-0.0
 10
2135.1171875
 20
-0.0
 10
2125.412109375
 20
-0.0
 10
2115.70703125
 20
-0.0
 10
2106.001953125
 20
-0.0
 10
2096.296875
 20
-0.0
 10
2086.591796875
 20
-0.0
 10
2076.88671875
 20
-0.0
 10
2067.181640625
 20
-0.0
 10
2057.4765625
 20
-0.0
 10
2047.771484375
 20
-0.0
 10
2038.06640625
 20
-0.0
 10
2028.361328125
 20
-0.0
 10
2018.65625
 20
-0.0
 10
2008.951171875
 20
-0.0
 10
1999.24609375
 20
-0.0
 10
1989.541015625
 20
-0.0
 10
1979.8359375
 20
-0.0
 10
1970.130859375
 20
-0.0
 10
1960.42578125
 20
-0.0
 10
1950.720703125
 20
-0.0
 10
1941.015625
 20
-0.0
 10
1931.310546875
 20
-0.0
 10
1921.60546875
 20
-0.0
 10
1911.900390625
 20
-0.0
 10
1902.1953125
 20
-0.0
 10
1892.490234375
 20
-0.0
 10
1882.78515625
 20
-0.0
 10
1873.080078125
 20
-0.0
 10
1863.375
 20
-0.0
 10
1853.669921875
 20
-0.0
 10
1843.96484375
 20
-0.0
 10
1834.259765625
 20
-0.0
 10
1824.5546875
 20
-0.0
 10
1814.849609375
 20
-0.0
 10
1805.14453125
 20
-0.0
 10
1795.439453125
 20
-0.0
 10
1785.734375
 20
-0.0
 10
1776.029296875
 20
-0.0
 10
1766.32421875
 20
-0.0
 10
1756.619140625
 20
-0.0
 10
1746.9140625
 20
-0.0
 10
1737.208984375
 20
-0.0
 10
1727.50390625
 20
-0.0
 10
1717.798828125
 20
-0.0
 10
1708.09375
 20
-0.0
 10
1698.388671875
 20
-0.0
 10
1688.68359375
 20
-0.0
 10
1678.978515625
 20
-0.0
 10
1669.2734375
 20
-0.0
 10
1659.568359375
 20
-0.0
 10
1649.86328125
 20
-0.0
 10
1640.158203125
 20
-0.0
 10
1630.453125
 20
-0.0
 10
1620.748046875
 20
-0.0
 10
1611.04296875
 20
-0.0
 10
1601.337890625
 20
-0.0
 10
1591.6328125
 20
-0.0
 10
1581.927734375
 20
-0.0
 10
1572.22265625
 20
-0.0
 10
1562.517578125
 20
-0.0
 10
1552.8125
 20
-0.0
 10
1543.107421875
 20
-0.0
 10
1533.40234375
 20
-0.0
 10
1523.697265625
 20
-0.0
 10
1513.9921875
 20
-0.0
 10
1504.287109375
 20
-0.0
 10
1494.58203125
 20
-0.0
 10
1484.876953125
 20
-0.0
 10
1475.171875
 20
-0.0
 10
1465.466796875
 20
-0.0
 10
1455.76171875
 20
-0.0
 10
1446.056640625
 20
-0.0
 10
1436.3515625
 20
-0.0
 10
1426.646484375
 20
-0.0
 10
1416.94140625
 20
-0.0
 10
1407.236328125
 20
-0.0
 10
1397.53125
 20
-0.0
 10
1387.826171875
 20
-0.0
 10
1378.12109375
 20
-0.0
 10
1368.416015625
 20
-0.0
 10
1358.7109375
 20
-0.0
 10
1349.005859375
 20
-0.0
 10
1339.30078125
 20
-0.0
 10
1329.595703125
 20
-0.0
 10
1319.890625
 20
-0.0
 10
1310.185546875
 20
-0.0
 10
1300.48046875
 20
-0.0
 10
1290.775390625
 20
-0.0
 10
1281.0703125
 20
-0.0
 10
1271.365234375
 20
-0.0
 10
1261.66015625
 20
-0.0
 10
1251.955078125
 20
-0.0
 10
1242.25
 20
-0.0
 10
1232.544921875
 20
-0.0
 10
1222.83984375
 20
-0.0
 10
1213.134765625
 20
-0.0
 10
1203.4296875
 20
-0.0
 10
1193.724609375
 20
-0.0
 10
1184.01953125
 20
-0.0
 10
1174.314453125
 20
-0.0
 10
1164.609375
 20
-0.0
 10
1154.904296875
 20
-0.0
 10
1145.19921875
 20
-0.0
 10
1135.494140625
 20
-0.0
 10
1125.7890625
 20
-0.0
 10
1116.083984375
 20
-0.0
 10
1106.37890625
 20
-0.0
 10
1096.673828125
 20
-0.0
 10
1086.96875
 20
-0.0
 10
1077.263671875
 20
-0.0
 10
1067.55859375
 20
-0.0
 10
1057.853515625
 20
-0.0
 10
1048.1484375
 20
-0.0
 10
1038.443359375
 20
-0.0
 10
1028.73828125
 20
-0.0
 10
1019.033203125
 20
-0.0
 10
1009.328125
 20
-0.0
 10
999.623046875
 20
-0.0
 10
989.91796875
 20
-0.0
 10
980.212890625
 20
-0.0
 10
970.5078125
 20
-0.0
 10
960.802734375
 20
-0.0
 10
951.09765625
 20
-0.0
 10
941.392578125
 20
-0.0
 10
931.6875
 20
-0.0
 10
921.982421875
 20
-0.0
 10
912.27734375
 20
-0.0
 10
902.572265625
 20
-0.0
 10
892.8671875
 20
-0.0
 10
883.162109375
 20
-0.0
 10
873.45703125
 20
-0.0
 10
863.751953125
 20
-0.0
 10
854.046875
 20
-0.0
 10
844.341796875
 20
-0.0
 10
834.63671875
 20
-0.0
 10
824.931640625
 20
-0.0
 10
815.2265625
 20
-0.0
 10
805.521484375
 20
-0.0
 10
795.81640625
 20
-0.0
 10
786.111328125
 20
-0.0
 10
776.40625
 20
-0.0
 10
766.701171875
 20
-0.0
 10
756.99609375
 20
-0.0
 10
747.291015625
 20
-0.0
 10
737.5859375
 20
-0.0
 10
727.880859375
 20
-0.0
 10
718.17578125
 20
-0.0
 10
708.470703125
 20
-0.0
 10
698.765625
 20
-0.0
 10
689.060546875
 20
-0.0
 10
679.35546875
 20
-0.0
 10
669.650390625
 20
-0.0
 10
659.9453125
 20
-0.0
 10
650.240234375
 20
-0.0
 10
640.53515625
 20
-0.0
 10
630.830078125
 20
-0.0
 10
621.125
 20
-0.0
 10
611.419921875
 20
-0.0
 10
601.71484375
 20
-0.0
 10
592.009765625
 20
-0.0
 10
582.3046875
 20
-0.0
 10
572.599609375
 20
-0.0
 10
562.89453125
 20
-0.0
 10
553.189453125
 20
-0.0
 10
543.484375
 20
-0.0
 10
533.779296875
 20
-0.0
 10
524.07421875
 20
-0.0
 10
514.369140625
 20
-0.0
 10
504.6640625
 20
-0.0
 10
494.958984375
 20
-0.0
 10
485.25390625
 20
-0.0
 10
475.548828125
 20
-0.0
 10
465.84375
 20
-0.0
 10
456.138671875
 20
-0.0
 10
446.43359375
 20
-0.0
 10
436.728515625
 20
-0.0
 10
427.0234375
 20
-0.0
 10
417.318359375
 20
-0.0
 10
407.61328125
 20
-0.0
 10
397.908203125
 20
-0.0
 10
388.203125
 20
-0.0
 10
378.498046875
 20
-0.0
 10
368.79296875
 20
-0.0
 10
359.087890625
 20
-0.0
 10
349.3828125
 20
-0.0
 10
339.677734375
 20
-0.0
 10
329.97265625
 20
-0.0
 10
320.267578125
 20
-0.0
 10
310.5625
 20
-0.0
 10
300.857421875
 20
-0.0
 10
291.15234375
 20
-0.0
 10
281.447265625
 20
-0.0
 10
271.7421875
 20
-0.0
 10
262.037109375
 20
-0.0
 10
252.33203125
 20
-0.0
 10
242.626953125
 20
-0.0
 10
232.921875
 20
-0.0
 10
223.216796875
 20
-0.0
 10
213.51171875
 20
-0.0
 10
203.806640625
 20
-0.0
 10
194.1015625
 20
-0.0
 10
184.396484375
 20
-0.0
 10
174.69140625
 20
-0.0
 10
164.986328125
 20
-0.0
 10
155.28125
 20
-0.0
 10
145.576171875
 20
-0.0
 10
135.87109375
 20
-0.0
 10
126.166015625
 20
-0.0
 10
116.4609375
 20
-0.0
 10
106.755859375
 20
-0.0
 10
97.05078125
 20
-0.0
 10
87.345703125
 20
-0.0
 10
77.640625
 20
-0.0
 10
67.935546875
 20
-0.0
 10
58.23046875
 20
-0.0
 10
48.525390625
 20
-0.0
 10
38.8203125
 20
-0.0
 10
29.115234375
 20
-0.0
 10
19.41015625
 20
-0.0
 10
9.705078125
 20
-0.0
  0
LWPOLYLINE
  5
37
330
17
100
AcDbEntity
  8
substrate
100
AcDbPolyline
 90
10
 70
1
 43
0.5
 10
2698.01171875
 20
-2940.638671875
 10
2707.716796875
 20
-2930.93359375
 10
2717.421875
 20
-2930.93359375
 10
2727.126953125
 20
-2940.638671875
 10
2727.126953125
 20
-2950.34375
 10
2727.126953125
 20
-2960.048828125
 10
2717.421875
 20
-2969.75390625
 10
2707.716796875
 20
-2969.75390625
 10
2698.01171875
 20
-2960.048828125
 10
2698.01171875
 20
-2950.34375
  0
LWPOLYLINE
  5
38
330
17
100
AcDbEntity
  8
substrate
100
AcDbPolyline
 90
6
 70
1
 43
0.5
 10
1979.8359375
 20
-2804.767578125
 10
1989.541015625
 20
-2795.0625
 10
1999.24609375
 20
-2795.0625
 10
2008.951171875
 20
-2804.767578125
 10
1999.24609375
 20
-2814.47265625
 10
1989.541015625
 20
-2814.47265625
  0
LWPOLYLINE
  5
39
330
17
100
AcDbEntity
  8
substrate
100
AcDbPolyline
 90
4
 70
1
 43
0.5
 10
1970.130859375
 20
-2795.0625
 10
1979.8359375
 20
-2785.357421875
 10
1989.541015625
 20
-2795.0625
 10
1979.8359375
 20
-2804.767578125
  0
LWPOLYLINE
  5
3A
330
17
100
AcDbEntity
  8
substrate
100
AcDbPolyline
 90
8
 70
1
 43
0.5
 10
2028.361328125
 20
-2785.357421875
 10
2038.06640625
 20
-2775.65234375
 10
2047.771484375
 20
-2785.357421875
 10
2047.771484375
 20
-2795.0625
 10
2047.771484375
 20
-2804.767578125
 10
2038.06640625
 20
-2814.47265625
 10
2028.361328125
 20
-2804.767578125
 10
2028.361328125
 20
-2795.0625
  0
LWPOLYLINE
  5
3B
330
17
100
AcDbEntity
  8
substrate
100
AcDbPolyline
 90
7
 70
1
 43
0.5
 10
2008.951171875
 20
-2785.357421875
 10
2018.65625
 20
-2775.65234375
 10
2028.361328125
 20
-2785.357421875
 10
2028.361328125
 20
-2795.0625
 10
2018.65625
 20
-2804.767578125
 10
2008.951171875
 20
-2804.767578125
 10
1999.24609375
 20
-2795.0625
  0
LWPOLYLINE
  5
3C
330
17
100
AcDbEntity
  8
substrate
100
AcDbPolyline
 90
4
 70
1
 43
0.5
 10
1989.541015625
 20
-2785.357421875
 10
1999.24609375
 20
-2775.65234375
 10
2008.951171875
 20
-2785.357421875
 10
1999.24609375
 20
-2795.0625
  0
LWPOLYLINE
  5
3D
330
17
100
AcDbEntity
  8
substrate
100
AcDbPolyline
 90
294
 70
1
 43
0.5
 10
2358.333984375
 20
-2028.361328125
 10
2368.0390625
 20
-2018.65625
 10
2377.744140625
 20
-2018.65625
 10
2387.44921875
 20
-2028.361328125
 10
2397.154296875
 20
-2028.361328125
 10
2406.859375
 20
-2028.361328125
 10
2416.564453125
 20
-2028.361328125
 10
2426.26953125
 20
-2028.361328125
 10
2435.974609375
 20
-2028.361328125
 10
2445.6796875
 20
-2028.361328125
 10
2455.384765625
 20
-2028.361328125
 10
2465.08984375
 20
-2028.361328125
 10
2474.794921875
 20
-2028.361328125
 10
2484.5
 20
-2028.361328125
 10
2494.205078125
 20
-2028.361328125
 10
2503.91015625
 20
-2028.361328125
 10
2513.615234375
 20
-2028.361328125
 10
2523.3203125
 20
-2028.361328125
 10
2533.025390625
 20
-2028.361328125
 10
2542.73046875
 20
-2028.361328125
 10
2552.435546875
 20
-2028.361328125
 10
2562.140625
 20
-2028.361328125
 10
2571.845703125
 20
-2028.361328125
 10
2581.55078125
 20
-2028.361328125
 10
2591.255859375
 20
-2028.361328125
 10
2600.9609375
 20
-2038.06640625
 10
2610.666015625
 20
-2038.06640625
 10
2620.37109375
 20
-2038.06640625
 10
2630.076171875
 20
-2047.771484375
 10
2639.78125
 20
-2047.771484375
 10
2649.486328125
 20
-2047.771484375
 10
2659.19140625
 20
-2057.4765625
 10
2668.896484375
 20
-2057.4765625
 10
2678.6015625
 20
-2067.181640625
 10
2688.306640625
 20
-2067.181640625
 10
2698.01171875
 20
-2067.181640625
 10
2707.716796875
 20
-2076.88671875
 10
2717.421875
 20
-2076.88671875
 10
2727.126953125
 20
-2086.591796875
 10
2736.83203125
 20
-2086.591796875
 10
2746.537109375
 20
-2096.296875
 10
2756.2421875
 20
-2106.001953125
 10
2765.947265625
 20
-2115.70703125
 10
2775.65234375
 20
-2115.70703125
 10
2785.357421875
 20
-2125.412109375
 10
2785.357421875
 20
-2135.1171875
 10
2795.0625
 20
-2144.822265625
 10
2804.767578125
 20
-2154.52734375
 10
2814.47265625
 20
-2164.232421875
 10
2824.177734375
 20
-2164.232421875
 10
2833.8828125
 20
-2173.9375
 10
2833.8828125
 20
-2183.642578125
 10
2843.587890625
 20
-2193.34765625
 10
2853.29296875
 20
-2203.052734375
 10
2862.998046875
 20
-2212.7578125
 10
2862.998046875
 20
-2222.462890625
 10
2872.703125
 20
-2232.16796875
 10
2882.408203125
 20
-2241.873046875
 10
2882.408203125
 20
-2251.578125
 10
2882.408203125
 20
-2261.283203125
 10
2892.11328125
 20
-2270.98828125
 10
2901.818359375
 20
-2280.693359375
 10
2901.818359375
 20
-2290.3984375
 10
2901.818359375
 20
-2300.103515625
 10
2901.818359375
 20
-2309.80859375
 10
2911.5234375
 20
-2319.513671875
 10
2911.5234375
 20
-2329.21875
 10
2911.5234375
 20
-2338.923828125
 10
2921.228515625
 20
-2348.62890625
 10
2921.228515625
 20
-2358.333984375
 10
2921.228515625
 20
-2368.0390625
 10
2930.93359375
 20
-2377.744140625
 10
2940.638671875
 20
-2387.44921875
 10
2940.638671875
 20
-2397.154296875
 10
2940.638671875
 20
-2406.859375
 10
2940.638671875
 20
-2416.564453125
 10
2940.638671875
 20
-2426.26953125
 10
2940.638671875
 20
-2435.974609375
 10
2940.638671875
 20
-2445.6796875
 10
2940.638671875
 20
-2455.384765625
 10
2940.638671875
 20
-2465.08984375
 10
2940.638671875
 20
-2474.794921875
 10
2940.638671875
 20
-2484.5
 10
2940.638671875
 20
-2494.205078125
 10
2940.638671875
 20
-2503.91015625
 10
2940.638671875
 20
-2513.615234375
 10
2940.638671875
 20
-2523.3203125
 10
2940.638671875
 20
-2533.025390625
 10
2930.93359375
 20
-2542.73046875
 10
2930.93359375
 20
-2552.435546875
 10
2930.93359375
 20
-2562.140625
 10
2940.638671875
 20
-2571.845703125
 10
2940.638671875
 20
-2581.55078125
 10
2940.638671875
 20
-2591.255859375
 10
2940.638671875
 20
-2600.9609375
 10
2940.638671875
 20
-2610.666015625
 10
2940.638671875
 20
-2620.37109375
 10
2930.93359375
 20
-2630.076171875
 10
2930.93359375
 20
-2639.78125
 10
2921.228515625
 20
-2649.486328125
 10
2911.5234375
 20
-2649.486328125
 10
2911.5234375
 20
-2659.19140625
 10
2901.818359375
 20
-2668.896484375
 10
2901.818359375
 20
-2678.6015625
 10
2901.818359375
 20
-2688.306640625
 10
2892.11328125
 20
-2698.01171875
 10
2892.11328125
 20
-2707.716796875
 10
2882.408203125
 20
-2717.421875
 10
2872.703125
 20
-2727.126953125
 10
2862.998046875
 20
-2736.83203125
 10
2862.998046875
 20
-2746.537109375
 10
2853.29296875
 20
-2756.2421875
 10
2843.587890625
 20
-2765.947265625
 10
2833.8828125
 20
-2775.65234375
 10
2824.177734375
 20
-2785.357421875
 10
2814.47265625
 20
-2795.0625
 10
2804.767578125
 20
-2804.767578125
 10
2795.0625
 20
-2814.47265625
 10
2785.357421875
 20
-2814.47265625
 10
2775.65234375
 20
-2824.177734375
 10
2765.947265625
 20
-2833.8828125
 10
2765.947265625
 20
-2843.587890625
 10
2756.2421875
 20
-2853.29296875
 10
2746.537109375
 20
-2853.29296875
 10
2736.83203125
 20
-2862.998046875
 10
2727.126953125
 20
-2872.703125
 10
2717.421875
 20
-2882.408203125
 10
2707.716796875
 20
-2882.408203125
 10
2698.01171875
 20
-2892.11328125
 10
2688.306640625
 20
-2892.11328125
 10
2678.6015625
 20
-2901.818359375
 10
2668.896484375
 20
-2901.818359375
 10
2659.19140625
 20
-2911.5234375
 10
2649.486328125
 20
-2911.5234375
 10
2639.78125
 20
-2911.5234375
 10
2630.076171875
 20
-2921.228515625
 10
2620.37109375
 20
-2930.93359375
 10
2610.666015625
 20
-2930.93359375
 10
2600.9609375
 20
-2930.93359375
 10
2591.255859375
 20
-2930.93359375
 10
2581.55078125
 20
-2930.93359375
 10
2571.845703125
 20
-2940.638671875
 10
2562.140625
 20
-2950.34375
 10
2552.435546875
 20
-2940.638671875
 10
2542.73046875
 20
-2940.638671875
 10
2533.025390625
 20
-2940.638671875
 10
2523.3203125
 20
-2940.638671875
 10
2513.615234375
 20
-2940.638671875
 10
2503.91015625
 20
-2950.34375
 10
2494.205078125
 20
-2950.34375
 10
2484.5
 20
-2950.34375
 10
2474.794921875
 20
-2950.34375
 10
2465.08984375
 20
-2950.34375
 10
2455.384765625
 20
-2940.638671875
 10
2445.6796875
 20
-2940.638671875
 10
2435.974609375
 20
-2930.93359375
 10
2426.26953125
 20
-2930.93359375
 10
2416.564453125
 20
-2930.93359375
 10
2406.859375
 20
-2930.93359375
 10
2397.154296875
 20
-2930.93359375
 10
2387.44921875
 20
-2921.228515625
 10
2377.744140625
 20
-2921.228515625
 10
2368.0390625
 20
-2921.228515625
 10
2358.333984375
 20
-2921.228515625
 10
2348.62890625
 20
-2911.5234375
 10
2338.923828125
 20
-2911.5234375
 10
2329.21875
 20
-2911.5234375
 10
2319.513671875
 20
-2911.5234375
 10
2309.80859375
 20
-2901.818359375
 10
2300.103515625
 20
-2901.818359375
 10
2290.3984375
 20
-2901.818359375
 10
2280.693359375
 20
-2892.11328125
 10
2270.98828125
 20
-2892.11328125
 10
2261.283203125
 20
-2882.408203125
 10
2251.578125
 20
-2882.408203125
 10
2241.873046875
 20
-2872.703125
 10
2232.16796875
 20
-2872.703125
 10
2222.462890625
 20
-2862.998046875
 10
2212.7578125
 20
-2862.998046875
 10
2203.052734375
 20
-2862.998046875
 10
2193.34765625
 20
-2862.998046875
 10
2183.642578125
 20
-2853.29296875
 10
2173.9375
 20
-2862.998046875
 10
2164.232421875
 20
-2853.29296875
 10
2154.52734375
 20
-2862.998046875
 10
2144.822265625
 20
-2853.29296875
 10
2135.1171875
 20
-2862.998046875
 10
2125.412109375
 20
-2853.29296875
 10
2115.70703125
 20
-2853.29296875
 10
2106.001953125
 20
-2843.587890625
 10
2096.296875
 20
-2833.8828125
 10
2106.001953125
 20
-2824.177734375
 10
2096.296875
 20
-2833.8828125
 10
2086.591796875
 20
-2824.177734375
 10
2076.88671875
 20
-2824.177734375
 10
2067.181640625
 20
-2824.177734375
 10
2057.4765625
 20
-2814.47265625
 10
2047.771484375
 20
-2804.767578125
 10
2047.771484375
 20
-2795.0625
 10
2047.771484375
 20
-2785.357421875
 10
2057.4765625
 20
-2775.65234375
 10
2067.181640625
 20
-2775.65234375
 10
2076.88671875
 20
-2765.947265625
 10
2086.591796875
 20
-2756.2421875
 10
2096.296875
 20
-2746.537109375
 10
2086.591796875
 20
-2736.83203125
 10
2086.591796875
 20
-2727.126953125
 10
2076.88671875
 20
-2717.421875
 10
2067.181640625
 20
-2707.716796875
 10
2067.181640625
 20
-2698.01171875
 10
2057.4765625
 20
-2688.306640625
 10
2047.771484375
 20
-2678.6015625
 10
2038.06640625
 20
-2678.6015625
 10
2028.361328125
 20
-2668.896484375
 10
2028.361328125
 20
-2678.6015625
 10
2018.65625
 20
-2688.306640625
 10
2008.951171875
 20
-2678.6015625
 10
2008.951171875
 20
-2668.896484375
 10
1999.24609375
 20
-2659.19140625
 10
1999.24609375
 20
-2649.486328125
 10
1999.24609375
 20
-2639.78125
 10
1999.24609375
 20
-2630.076171875
 10
2008.951171875
 20
-2620.37109375
 10
2018.65625
 20
-2610.666015625
 10
2028.361328125
 20
-2600.9609375
 10
2028.361328125
 20
-2591.255859375
 10
2028.361328125
 20
-2581.55078125
 10
2028.361328125
 20
-2571.845703125
 10
2028.361328125
 20
-2562.140625
 10
2028.361328125
 20
-2552.435546875
 10
2018.65625
 20
-2542.73046875
 10
2028.361328125
 20
-2533.025390625
 10
2018.65625
 20
-2523.3203125
 10
2018.65625
 20
-2513.615234375
 10
2018.65625
 20
-2503.91015625
 10
2018.65625
 20
-2494.205078125
 10
2018.65625
 20
-2484.5
 10
2008.951171875
 20
-2474.794921875
 10
2008.951171875
 20
-2465.08984375
 10
2018.65625
 20
-2455.384765625
 10
2008.951171875
 20
-2445.6796875
 10
2018.65625
 20
-2435.974609375
 10
2018.65625
 20
-2426.26953125
 10
2018.65625
 20
-2416.564453125
 10
2018.65625
 20
-2406.859375
 10
2018.65625
 20
-2397.154296875
 10
2028.361328125
 20
-2387.44921875
 10
2028.361328125
 20
-2377.744140625
 10
2028.361328125
 20
-2368.0390625
 10
2028.361328125
 20
-2358.333984375
 10
2038.06640625
 20
-2348.62890625
 10
2047.771484375
 20
-2338.923828125
 10
2047.771484375
 20
-2329.21875
 10
2057.4765625
 20
-2319.513671875
 10
2057.4765625
 20
-2309.80859375
 10
2057.4765625
 20
-2300.103515625
 10
2067.181640625
 20
-2290.3984375
 10
2067.181640625
 20
-2280.693359375
 10
2067.181640625
 20
-2270.98828125
 10
2067.181640625
 20
-2261.283203125
 10
2067.181640625
 20
-2251.578125
 10
2076.88671875
 20
-2241.873046875
 10
2076.88671875
 20
-2232.16796875
 10
2086.591796875
 20
-2222.462890625
 10
2096.296875
 20
-2212.7578125
 10
2106.001953125
 20
-2203.052734375
 10
2115.70703125
 20
-2203.052734375
 10
2106.001953125
 20
-2193.34765625
 10
2115.70703125
 20
-2183.642578125
 10
2125.412109375
 20
-2173.9375
 10
2135.1171875
 20
-2164.232421875
 10
2144.822265625
 20
-2154.52734375
 10
2154.52734375
 20
-2154.52734375
 10
2164.232421875
 20
-2144.822265625
 10
2173.9375
 20
-2135.1171875
 10
2173.9375
 20
-2125.412109375
 10
2183.642578125
 20
-2115.70703125
 10
2193.34765625
 20
-2115.70703125
 10
2203.052734375
 20
-2115.70703125
 10
2212.7578125
 20
-2106.001953125
 10
2222.462890625
 20
-2106.001953125
 10
2232.16796875
 20
-2096.296875
 10
2241.873046875
 20
-2096.296875
 10
2251.578125
 20
-2086.591796875
 10
2261.283203125
 20
-2076.88671875
 10
2270.98828125
 20
-2076.88671875
 10
2280.693359375
 20
-2076.88671875
 10
2290.3984375
 20
-2067.181640625
 10
2300.103515625
 20
-2057.4765625
 10
2309.80859375
 20
-2057.4765625
 10
2319.513671875
 20
-2047.771484375
 10
2329.21875
 20
-2038.06640625
 10
2338.923828125
 20
-2028.361328125
 10
2348.62890625
 20
-2028.361328125
  0
ENDSEC
  0
SECTION
  2
OBJECTS
  0
DICTIONARY
  5
A
330
0
100
AcDbDictionary
280
0
281
1
  3
ACAD_COLOR
350
B
  3
ACAD_GROUP
350
C
  3
ACAD_LAYOUT
350
D
  3
ACAD_MATERIAL
350
E
  3
ACAD_MLEADERSTYLE
350
F
  3
ACAD_MLINESTYLE
350
10
  3
ACAD_PLOTSETTINGS
350
11
  3
ACAD_PLOTSTYLENAME
350
12
  3
ACAD_SCALELIST
350
14
  3
ACAD_TABLESTYLE
350
15
  3
ACAD_VISUALSTYLE
350
16
  3
EZDXF_META
350
2D
  0
DICTIONARY
  5
B
330
A
100
AcDbDictionary
280
0
281
1
  0
DICTIONARY
  5
C
330
A
100
AcDbDictionary
280
0
281
1
  0
DICTIONARY
  5
D
330
A
100
AcDbDictionary
280
0
281
1
  3
Model
350
1A
  3
Layout1
350
1E
  0
DICTIONARY
  5
E
330
A
100
AcDbDictionary
280
0
281
1
  3
ByBlock
350
1F
  3
ByLayer
350
20
  3
Global
350
21
  0
DICTIONARY
  5
F
330
A
100
AcDbDictionary
280
0
281
1
  3
Standard
350
2C
  0
DICTIONARY
  5
10
330
A
100
AcDbDictionary
280
0
281
1
  3
Standard
350
22
  0
DICTIONARY
  5
11
330
A
100
AcDbDictionary
280
0
281
1
  0
ACDBDICTIONARYWDFLT
  5
12
330
A
100
AcDbDictionary
280
0
281
1
  3
Normal
350
13
100
AcDbDictionaryWithDefault
340
13
  0
ACDBPLACEHOLDER
  5
13
330
12
  0
DICTIONARY
  5
14
330
A
100
AcDbDictionary
280
0
281
1
  0
DICTIONARY
  5
15
330
A
100
AcDbDictionary
280
0
281
1
  0
DICTIONARY
  5
16
330
A
100
AcDbDictionary
280
0
281
1
  0
LAYOUT
  5
1A
330
D
100
AcDbPlotSettings
  1

  2
Adobe PDF
  4
A3
  6

 40
7.5
 41
20.0
 42
7.5
 43
20.0
 44
420.0
 45
297.0
 46
0.0
 47
0.0
 48
0.0
 49
0.0
140
0.0
141
0.0
142
1.0
143
1.0
 70
1024
 72
1
 73
0
 74
5
  7

 75
16
 76
0
 77
2
 78
300
147
1.0
148
0.0
149
0.0
100
AcDbLayout
  1
Model
 70
1
 71
0
 10
0.0
 20
0.0
 11
420.0
 21
297.0
 12
0.0
 22
0.0
 32
0.0
 14
1e+20
 24
1e+20
 34
1e+20
 15
-1e+20
 25
-1e+20
 35
-1e+20
146
0.0
 13
0.0
 23
0.0
 33
0.0
 16
1.0
 26
0.0
 36
0.0
 17
0.0
 27
1.0
 37
0.0
 76
1
330
17
  0
LAYOUT
  5
1E
330
D
100
AcDbPlotSettings
  1

  2
Adobe PDF
  4
A3
  6

 40
7.5
 41
20.0
 42
7.5
 43
20.0
 44
420.0
 45
297.0
 46
0.0
 47
0.0
 48
0.0
 49
0.0
140
0.0
141
0.0
142
1.0
143
1.0
 70
0
 72
1
 73
0
 74
5
  7

 75
16
 76
0
 77
2
 78
300
147
1.0
148
0.0
149
0.0
100
AcDbLayout
  1
Layout1
 70
1
 71
1
 10
0.0
 20
0.0
 11
420.0
 21
297.0
 12
0.0
 22
0.0
 32
0.0
 14
1e+20
 24
1e+20
 34
1e+20
 15
-1e+20
 25
-1e+20
 35
-1e+20
146
0.0
 13
0.0
 23
0.0
 33
0.0
 16
1.0
 26
0.0
 36
0.0
 17
0.0
 27
1.0
 37
0.0
 76
1
330
1B
  0
MATERIAL
  5
1F
102
{ACAD_REACTORS
330
E
102
}
330
E
100
AcDbMaterial
  1
ByBlock
  2

 70
0
 40
1.0
 71
1
 41
1.0
 91
-1023410177
 42
1.0
 72
1
  3

 73
1
 74
1
 75
1
 44
0.5
 73
0
 45
1.0
 46
1.0
 77
1
  4

 78
1
 79
1
170
1
 48
1.0
171
1
  6

172
1
173
1
174
1
140
1.0
141
1.0
175
1
  7

176
1
177
1
178
1
143
1.0
179
1
  8

270
1
271
1
272
1
145
1.0
146
1.0
273
1
  9

274
1
275
1
276
1
 42
1.0
 72
1
  3

 73
1
 74
1
 75
1
 94
63
  0
MATERIAL
  5
20
102
{ACAD_REACTORS
330
E
102
}
330
E
100
AcDbMaterial
  1
ByLayer
  2

 70
0
 40
1.0
 71
1
 41
1.0
 91
-1023410177
 42
1.0
 72
1
  3

 73
1
 74
1
 75
1
 44
0.5
 73
0
 45
1.0
 46
1.0
 77
1
  4

 78
1
 79
1
170
1
 48
1.0
171
1
  6

172
1
173
1
174
1
140
1.0
141
1.0
175
1
  7

176
1
177
1
178
1
143
1.0
179
1
  8

270
1
271
1
272
1
145
1.0
146
1.0
273
1
  9

274
1
275
1
276
1
 42
1.0
 72
1
  3

 73
1
 74
1
 75
1
 94
63
  0
MATERIAL
  5
21
102
{ACAD_REACTORS
330
E
102
}
330
E
100
AcDbMaterial
  1
Global
  2

 70
0
 40
1.0
 71
1
 41
1.0
 91
-1023410177
 42
1.0
 72
1
  3

 73
1
 74
1
 75
1
 44
0.5
 73
0
 45
1.0
 46
1.0
 77
1
  4

 78
1
 79
1
170
1
 48
1.0
171
1
  6

172
1
173
1
174
1
140
1.0
141
1.0
175
1
  7

176
1
177
1
178
1
143
1.0
179
1
  8

270
1
271
1
272
1
145
1.0
146
1.0
273
1
  9

274
1
275
1
276
1
 42
1.0
 72
1
  3

 73
1
 74
1
 75
1
 94
63
  0
MLINESTYLE
  5
22
102
{ACAD_REACTORS
330
10
102
}
330
10
100
AcDbMlineStyle
  2
Standard
 70
0
  3

 62
256
 51
90.0
 52
90.0
 71
2
 49
0.5
 62
256
  6
BYLAYER
 49
-0.5
 62
256
  6
BYLAYER
  0
MLEADERSTYLE
  5
2C
102
{ACAD_REACTORS
330
F
102
}
330
F
100
AcDbMLeaderStyle
179
2
170
2
171
1
172
0
 90
2
 40
0.0
 41
0.0
173
1
 91
-1056964608
 92
-2
290
1
 42
2.0
291
1
 43
8.0
  3
Standard
 44
4.0
300

342
29
174
1
175
1
176
0
178
1
 93
-1056964608
 45
4.0
292
0
297
0
 46
4.0
 94
-1056964608
 47
1.0
 49
1.0
140
1.0
294
1
141
0.0
177
0
142
1.0
295
0
296
0
143
3.75
271
0
272
9
273
9
  0
DICTIONARY
  5
2D
330
A
100
AcDbDictionary
281
1
  3
CREATED_BY_EZDXF
350
2E
  3
WRITTEN_BY_EZDXF
350
40
  0
DICTIONARYVAR
  5
2E
330
2D
100
DictionaryVariables
280
0
  1
1.1.0 @ 2025-01-31T15:18:51.920983+00:00
  0
DICTIONARYVAR
  5
40
330
2D
100
DictionaryVariables
280
0
  1
1.1.0 @ 2025-01-31T15:18:51.926345+00:00
  0
ENDSEC
  0
EOF
