  0
SECTION
  2
HEADER
  9
$ACADVER
  1
AC1027
  9
$ACADMAINTVER
 70
105
  9
$DWGCODEPAGE
  3
ANSI_1252
  9
$LASTSAVEDBY
  1
ezdxf
  9
$REQUIREDVERSIONS
160
0
  9
$INSBASE
 10
0.0
 20
0.0
 30
0.0
  9
$EXTMIN
 10
1e+20
 20
1e+20
 30
1e+20
  9
$EXTMAX
 10
-1e+20
 20
-1e+20
 30
-1e+20
  9
$LIMMIN
 10
0.0
 20
0.0
  9
$LIMMAX
 10
420.0
 20
297.0
  9
$ORTHOMODE
 70
0
  9
$REGENMODE
 70
1
  9
$FILLMODE
 70
1
  9
$QTEXTMODE
 70
0
  9
$MIRRTEXT
 70
1
  9
$LTSCALE
 40
1.0
  9
$ATTMODE
 70
1
  9
$TEXTSIZE
 40
2.5
  9
$TRACEWID
 40
1.0
  9
$TEXTSTYLE
  7
Standard
  9
$CLAYER
  8
0
  9
$CELTYPE
  6
ByLayer
  9
$CECOLOR
 62
256
  9
$CELTSCALE
 40
1.0
  9
$DISPSILH
 70
0
  9
$DIMSCALE
 40
1.0
  9
$DIMASZ
 40
2.5
  9
$DIMEXO
 40
0.625
  9
$DIMDLI
 40
3.75
  9
$DIMRND
 40
0.0
  9
$DIMDLE
 40
0.0
  9
$DIMEXE
 40
1.25
  9
$DIMTP
 40
0.0
  9
$DIMTM
 40
0.0
  9
$DIMTXT
 40
2.5
  9
$DIMCEN
 40
2.5
  9
$DIMTSZ
 40
0.0
  9
$DIMTOL
 70
0
  9
$DIMLIM
 70
0
  9
$DIMTIH
 70
0
  9
$DIMTOH
 70
0
  9
$DIMSE1
 70
0
  9
$DIMSE2
 70
0
  9
$DIMTAD
 70
1
  9
$DIMZIN
 70
8
  9
$DIMBLK
  1

  9
$DIMASO
 70
1
  9
$DIMSHO
 70
1
  9
$DIMPOST
  1

  9
$DIMAPOST
  1

  9
$DIMALT
 70
0
  9
$DIMALTD
 70
3
  9
$DIMALTF
 40
0.03937007874
  9
$DIMLFAC
 40
1.0
  9
$DIMTOFL
 70
1
  9
$DIMTVP
 40
0.0
  9
$DIMTIX
 70
0
  9
$DIMSOXD
 70
0
  9
$DIMSAH
 70
0
  9
$DIMBLK1
  1

  9
$DIMBLK2
  1

  9
$DIMSTYLE
  2
ISO-25
  9
$DIMCLRD
 70
0
  9
$DIMCLRE
 70
0
  9
$DIMCLRT
 70
0
  9
$DIMTFAC
 40
1.0
  9
$DIMGAP
 40
0.625
  9
$DIMJUST
 70
0
  9
$DIMSD1
 70
0
  9
$DIMSD2
 70
0
  9
$DIMTOLJ
 70
0
  9
$DIMTZIN
 70
8
  9
$DIMALTZ
 70
0
  9
$DIMALTTZ
 70
0
  9
$DIMUPT
 70
0
  9
$DIMDEC
 70
2
  9
$DIMTDEC
 70
2
  9
$DIMALTU
 70
2
  9
$DIMALTTD
 70
3
  9
$DIMTXSTY
  7
Standard
  9
$DIMAUNIT
 70
0
  9
$DIMADEC
 70
0
  9
$DIMALTRND
 40
0.0
  9
$DIMAZIN
 70
0
  9
$DIMDSEP
 70
44
  9
$DIMATFIT
 70
3
  9
$DIMFRAC
 70
0
  9
$DIMLDRBLK
  1

  9
$DIMLUNIT
 70
2
  9
$DIMLWD
 70
-2
  9
$DIMLWE
 70
-2
  9
$DIMTMOVE
 70
0
  9
$DIMFXL
 40
1.0
  9
$DIMFXLON
 70
0
  9
$DIMJOGANG
 40
0.785398163397
  9
$DIMTFILL
 70
0
  9
$DIMTFILLCLR
 70
0
  9
$DIMARCSYM
 70
0
  9
$DIMLTYPE
  6

  9
$DIMLTEX1
  6

  9
$DIMLTEX2
  6

  9
$DIMTXTDIRECTION
 70
0
  9
$LUNITS
 70
2
  9
$LUPREC
 70
4
  9
$SKETCHINC
 40
1.0
  9
$FILLETRAD
 40
10.0
  9
$AUNITS
 70
0
  9
$AUPREC
 70
2
  9
$MENU
  1
.
  9
$ELEVATION
 40
0.0
  9
$PELEVATION
 40
0.0
  9
$THICKNESS
 40
0.0
  9
$LIMCHECK
 70
0
  9
$CHAMFERA
 40
0.0
  9
$CHAMFERB
 40
0.0
  9
$CHAMFERC
 40
0.0
  9
$CHAMFERD
 40
0.0
  9
$SKPOLY
 70
0
  9
$TDCREATE
 40
2460709.9332291665
  9
$TDUCREATE
 40
2458532.153996898
  9
$TDUPDATE
 40
2460709.9332291665
  9
$TDUUPDATE
 40
2458532.1544311
  9
$TDINDWG
 40
0.0
  9
$TDUSRTIMER
 40
0.0
  9
$USRTIMER
 70
1
  9
$ANGBASE
 50
0.0
  9
$ANGDIR
 70
0
  9
$PDMODE
 70
0
  9
$PDSIZE
 40
0.0
  9
$PLINEWID
 40
0.0
  9
$SPLFRAME
 70
0
  9
$SPLINETYPE
 70
6
  9
$SPLINESEGS
 70
8
  9
$HANDSEED
  5
4D
  9
$SURFTAB1
 70
6
  9
$SURFTAB2
 70
6
  9
$SURFTYPE
 70
6
  9
$SURFU
 70
6
  9
$SURFV
 70
6
  9
$UCSBASE
  2

  9
$UCSNAME
  2

  9
$UCSORG
 10
0.0
 20
0.0
 30
0.0
  9
$UCSXDIR
 10
1.0
 20
0.0
 30
0.0
  9
$UCSYDIR
 10
0.0
 20
1.0
 30
0.0
  9
$UCSORTHOREF
  2

  9
$UCSORTHOVIEW
 70
0
  9
$UCSORGTOP
 10
0.0
 20
0.0
 30
0.0
  9
$UCSORGBOTTOM
 10
0.0
 20
0.0
 30
0.0
  9
$UCSORGLEFT
 10
0.0
 20
0.0
 30
0.0
  9
$UCSORGRIGHT
 10
0.0
 20
0.0
 30
0.0
  9
$UCSORGFRONT
 10
0.0
 20
0.0
 30
0.0
  9
$UCSORGBACK
 10
0.0
 20
0.0
 30
0.0
  9
$PUCSBASE
  2

  9
$PUCSNAME
  2

  9
$PUCSORG
 10
0.0
 20
0.0
 30
0.0
  9
$PUCSXDIR
 10
1.0
 20
0.0
 30
0.0
  9
$PUCSYDIR
 10
0.0
 20
1.0
 30
0.0
  9
$PUCSORTHOREF
  2

  9
$PUCSORTHOVIEW
 70
0
  9
$PUCSORGTOP
 10
0.0
 20
0.0
 30
0.0
  9
$PUCSORGBOTTOM
 10
0.0
 20
0.0
 30
0.0
  9
$PUCSORGLEFT
 10
0.0
 20
0.0
 30
0.0
  9
$PUCSORGRIGHT
 10
0.0
 20
0.0
 30
0.0
  9
$PUCSORGFRONT
 10
0.0
 20
0.0
 30
0.0
  9
$PUCSORGBACK
 10
0.0
 20
0.0
 30
0.0
  9
$USERI1
 70
0
  9
$USERI2
 70
0
  9
$USERI3
 70
0
  9
$USERI4
 70
0
  9
$USERI5
 70
0
  9
$USERR1
 40
0.0
  9
$USERR2
 40
0.0
  9
$USERR3
 40
0.0
  9
$USERR4
 40
0.0
  9
$USERR5
 40
0.0
  9
$WORLDVIEW
 70
1
  9
$SHADEDGE
 70
3
  9
$SHADEDIF
 70
70
  9
$TILEMODE
 70
1
  9
$MAXACTVP
 70
64
  9
$PINSBASE
 10
0.0
 20
0.0
 30
0.0
  9
$PLIMCHECK
 70
0
  9
$PEXTMIN
 10
1e+20
 20
1e+20
 30
1e+20
  9
$PEXTMAX
 10
-1e+20
 20
-1e+20
 30
-1e+20
  9
$PLIMMIN
 10
0.0
 20
0.0
  9
$PLIMMAX
 10
420.0
 20
297.0
  9
$UNITMODE
 70
0
  9
$VISRETAIN
 70
1
  9
$PLINEGEN
 70
0
  9
$PSLTSCALE
 70
1
  9
$TREEDEPTH
 70
3020
  9
$CMLSTYLE
  2
Standard
  9
$CMLJUST
 70
0
  9
$CMLSCALE
 40
20.0
  9
$PROXYGRAPHICS
 70
1
  9
$MEASUREMENT
 70
1
  9
$CELWEIGHT
370
-1
  9
$ENDCAPS
280
0
  9
$JOINSTYLE
280
0
  9
$LWDISPLAY
290
0
  9
$INSUNITS
 70
6
  9
$HYPERLINKBASE
  1

  9
$STYLESHEET
  1

  9
$XEDIT
290
1
  9
$CEPSNTYPE
380
0
  9
$PSTYLEMODE
290
1
  9
$FINGERPRINTGUID
  2
{D9568601-5703-42D1-AAD5-50D34C9FF327}
  9
$VERSIONGUID
  2
{6EC321B2-26B8-4335-926A-70A3D772ECF0}
  9
$EXTNAMES
290
1
  9
$PSVPSCALE
 40
0.0
  9
$OLESTARTUP
290
0
  9
$SORTENTS
280
127
  9
$INDEXCTL
280
0
  9
$HIDETEXT
280
1
  9
$XCLIPFRAME
280
0
  9
$HALOGAP
280
0
  9
$OBSCOLOR
 70
257
  9
$OBSLTYPE
280
0
  9
$INTERSECTIONDISPLAY
280
0
  9
$INTERSECTIONCOLOR
 70
257
  9
$DIMASSOC
280
2
  9
$PROJECTNAME
  1

  9
$CAMERADISPLAY
290
0
  9
$LENSLENGTH
 40
50.0
  9
$CAMERAHEIGHT
 40
0.0
  9
$STEPSPERSEC
 40
24.0
  9
$STEPSIZE
 40
100.0
  9
$3DDWFPREC
 40
2.0
  9
$PSOLWIDTH
 40
0.005
  9
$PSOLHEIGHT
 40
0.08
  9
$LOFTANG1
 40
1.570796326795
  9
$LOFTANG2
 40
1.570796326795
  9
$LOFTMAG1
 40
0.0
  9
$LOFTMAG2
 40
0.0
  9
$LOFTPARAM
 70
7
  9
$LOFTNORMALS
280
1
  9
$LATITUDE
 40
37.795
  9
$LONGITUDE
 40
-122.394
  9
$NORTHDIRECTION
 40
0.0
  9
$TIMEZONE
 70
-8000
  9
$LIGHTGLYPHDISPLAY
280
1
  9
$TILEMODELIGHTSYNCH
280
1
  9
$CMATERIAL
347
20
  9
$SOLIDHIST
280
0
  9
$SHOWHIST
280
1
  9
$DWFFRAME
280
2
  9
$DGNFRAME
280
2
  9
$REALWORLDSCALE
290
1
  9
$INTERFERECOLOR
 62
256
  9
$CSHADOW
280
0
  9
$SHADOWPLANELOCATION
 40
0.0
  0
ENDSEC
  0
SECTION
  2
CLASSES
  0
CLASS
  1
ACDBDICTIONARYWDFLT
  2
AcDbDictionaryWithDefault
  3
ObjectDBX Classes
 90
0
 91
0
280
0
281
0
  0
CLASS
  1
SUN
  2
AcDbSun
  3
SCENEOE
 90
1153
 91
0
280
0
281
0
  0
CLASS
  1
VISUALSTYLE
  2
AcDbVisualStyle
  3
ObjectDBX Classes
 90
4095
 91
0
280
0
281
0
  0
CLASS
  1
MATERIAL
  2
AcDbMaterial
  3
ObjectDBX Classes
 90
1153
 91
0
280
0
281
0
  0
CLASS
  1
SCALE
  2
AcDbScale
  3
ObjectDBX Classes
 90
1153
 91
0
280
0
281
0
  0
CLASS
  1
TABLESTYLE
  2
AcDbTableStyle
  3
ObjectDBX Classes
 90
4095
 91
0
280
0
281
0
  0
CLASS
  1
MLEADERSTYLE
  2
AcDbMLeaderStyle
  3
ACDB_MLEADERSTYLE_CLASS
 90
4095
 91
0
280
0
281
0
  0
CLASS
  1
DICTIONARYVAR
  2
AcDbDictionaryVar
  3
ObjectDBX Classes
 90
0
 91
0
280
0
281
0
  0
CLASS
  1
CELLSTYLEMAP
  2
AcDbCellStyleMap
  3
ObjectDBX Classes
 90
1152
 91
0
280
0
281
0
  0
CLASS
  1
MENTALRAYRENDERSETTINGS
  2
AcDbMentalRayRenderSettings
  3
SCENEOE
 90
1024
 91
0
280
0
281
0
  0
CLASS
  1
ACDBDETAILVIEWSTYLE
  2
AcDbDetailViewStyle
  3
ObjectDBX Classes
 90
1025
 91
0
280
0
281
0
  0
CLASS
  1
ACDBSECTIONVIEWSTYLE
  2
AcDbSectionViewStyle
  3
ObjectDBX Classes
 90
1025
 91
0
280
0
281
0
  0
CLASS
  1
RASTERVARIABLES
  2
AcDbRasterVariables
  3
ISM
 90
0
 91
0
280
0
281
0
  0
CLASS
  1
ACDBPLACEHOLDER
  2
AcDbPlaceHolder
  3
ObjectDBX Classes
 90
0
 91
0
280
0
281
0
  0
CLASS
  1
LAYOUT
  2
AcDbLayout
  3
ObjectDBX Classes
 90
0
 91
0
280
0
281
0
  0
ENDSEC
  0
SECTION
  2
TABLES
  0
TABLE
  2
VPORT
  5
8
330
0
100
AcDbSymbolTable
 70
1
  0
VPORT
  5
23
330
8
100
AcDbSymbolTableRecord
100
AcDbViewportTableRecord
  2
*Active
 70
0
 10
0.0
 20
0.0
 11
1.0
 21
1.0
 12
0.0
 22
0.0
 13
0.0
 23
0.0
 14
0.5
 24
0.5
 15
0.5
 25
0.5
 16
0.0
 26
0.0
 36
1.0
 17
0.0
 27
0.0
 37
0.0
 40
1000.0
 41
1.34
 42
50.0
 43
0.0
 44
0.0
 50
0.0
 51
0.0
 71
0
 72
1000
 73
1
 74
3
 75
0
 76
0
 77
0
 78
0
281
0
 65
0
146
0.0
  0
ENDTAB
  0
TABLE
  2
LTYPE
  5
2
330
0
100
AcDbSymbolTable
 70
3
  0
LTYPE
  5
24
330
2
100
AcDbSymbolTableRecord
100
AcDbLinetypeTableRecord
  2
ByBlock
 70
0
  3

 72
65
 73
0
 40
0.0
  0
LTYPE
  5
25
330
2
100
AcDbSymbolTableRecord
100
AcDbLinetypeTableRecord
  2
ByLayer
 70
0
  3

 72
65
 73
0
 40
0.0
  0
LTYPE
  5
26
330
2
100
AcDbSymbolTableRecord
100
AcDbLinetypeTableRecord
  2
Continuous
 70
0
  3

 72
65
 73
0
 40
0.0
  0
ENDTAB
  0
TABLE
  2
LAYER
  5
1
330
0
100
AcDbSymbolTable
 70
5
  0
LAYER
  5
27
330
1
100
AcDbSymbolTableRecord
100
AcDbLayerTableRecord
  2
0
 70
0
 62
7
  6
Continuous
370
-3
390
13
347
21
  0
LAYER
  5
28
330
1
100
AcDbSymbolTableRecord
100
AcDbLayerTableRecord
  2
Defpoints
 70
0
 62
7
  6
Continuous
290
0
370
-3
390
13
347
21
  0
LAYER
  5
2F
330
1
100
AcDbSymbolTableRecord
100
AcDbLayerTableRecord
  2
conductor
 70
0
 62
1
  6
Continuous
370
-3
390
13
347
21
  0
LAYER
  5
30
330
1
100
AcDbSymbolTableRecord
100
AcDbLayerTableRecord
  2
dielectric
 70
0
 62
8
  6
Continuous
370
-3
390
13
347
21
  0
LAYER
  5
31
330
1
100
AcDbSymbolTableRecord
100
AcDbLayerTableRecord
  2
substrate
 70
0
 62
5
  6
Continuous
370
-3
390
13
347
21
  0
ENDTAB
  0
TABLE
  2
STYLE
  5
5
330
0
100
AcDbSymbolTable
 70
1
  0
STYLE
  5
29
330
5
100
AcDbSymbolTableRecord
100
AcDbTextStyleTableRecord
  2
Standard
 70
0
 40
0.0
 41
1.0
 50
0.0
 71
0
 42
2.5
  3
txt
  4

  0
ENDTAB
  0
TABLE
  2
VIEW
  5
7
330
0
100
AcDbSymbolTable
 70
0
  0
ENDTAB
  0
TABLE
  2
UCS
  5
6
330
0
100
AcDbSymbolTable
 70
0
  0
ENDTAB
  0
TABLE
  2
APPID
  5
3
330
0
100
AcDbSymbolTable
 70
3
  0
APPID
  5
2A
330
3
100
AcDbSymbolTableRecord
100
AcDbRegAppTableRecord
  2
ACAD
 70
0
  0
APPID
  5
4A
330
3
100
AcDbSymbolTableRecord
100
AcDbRegAppTableRecord
  2
HATCHBACKGROUNDCOLOR
 70
0
  0
APPID
  5
4B
330
3
100
AcDbSymbolTableRecord
100
AcDbRegAppTableRecord
  2
EZDXF
 70
0
  0
ENDTAB
  0
TABLE
  2
DIMSTYLE
  5
4
330
0
100
AcDbSymbolTable
 70
1
100
AcDbDimStyleTable
  0
DIMSTYLE
105
2B
330
4
100
AcDbSymbolTableRecord
100
AcDbDimStyleTableRecord
  2
Standard
 70
0
 40
1.0
 41
2.5
 42
0.625
 43
3.75
 44
1.25
 45
0.0
 46
0.0
 47
0.0
 48
0.0
 49
2.5
140
2.5
141
2.5
142
0.0
143
0.03937007874
144
1.0
145
0.0
146
1.0
147
0.625
148
0.0
 69
0
 70
0
 71
0
 72
0
 73
0
 74
0
 75
0
 76
0
 77
1
 78
8
 79
3
170
0
171
3
172
1
173
0
174
0
175
0
176
0
177
0
178
0
179
2
271
2
272
2
273
2
274
3
275
0
276
0
277
2
278
44
279
0
280
0
281
0
282
0
283
0
284
8
285
0
286
0
288
0
289
3
290
0
371
-2
372
-2
  0
ENDTAB
  0
TABLE
  2
BLOCK_RECORD
  5
9
330
0
100
AcDbSymbolTable
 70
2
  0
BLOCK_RECORD
  5
17
330
9
100
AcDbSymbolTableRecord
100
AcDbBlockTableRecord
  2
*Model_Space
340
1A
 70
0
280
1
281
0
  0
BLOCK_RECORD
  5
1B
330
9
100
AcDbSymbolTableRecord
100
AcDbBlockTableRecord
  2
*Paper_Space
340
1E
 70
0
280
1
281
0
  0
ENDTAB
  0
ENDSEC
  0
SECTION
  2
BLOCKS
  0
BLOCK
  5
18
330
17
100
AcDbEntity
  8
0
100
AcDbBlockBegin
  2
*Model_Space
 70
0
 10
0.0
 20
0.0
 30
0.0
  3
*Model_Space
  1

  0
ENDBLK
  5
19
330
17
100
AcDbEntity
  8
0
100
AcDbBlockEnd
  0
BLOCK
  5
1C
330
1B
100
AcDbEntity
  8
0
100
AcDbBlockBegin
  2
*Paper_Space
 70
0
 10
0.0
 20
0.0
 30
0.0
  3
*Paper_Space
  1

  0
ENDBLK
  5
1D
330
1B
100
AcDbEntity
  8
0
100
AcDbBlockEnd
  0
ENDSEC
  0
SECTION
  2
ENTITIES
  0
LWPOLYLINE
  5
32
330
17
100
AcDbEntity
  8
conductor
100
AcDbPolyline
 90
178
 70
1
 43
0.5
 10
2488.33203125
 20
-2276.7734375
 10
2478.2578125
 20
-2286.84765625
 10
2468.18359375
 20
-2296.921875
 10
2458.109375
 20
-2296.921875
 10
2448.03515625
 20
-2296.921875
 10
2437.9609375
 20
-2306.99609375
 10
2427.88671875
 20
-2306.99609375
 10
2417.8125
 20
-2306.99609375
 10
2417.8125
 20
-2317.0703125
 10
2407.73828125
 20
-2327.14453125
 10
2397.6640625
 20
-2327.14453125
 10
2387.58984375
 20
-2337.21875
 10
2377.515625
 20
-2347.29296875
 10
2367.44140625
 20
-2357.3671875
 10
2357.3671875
 20
-2367.44140625
 10
2357.3671875
 20
-2377.515625
 10
2347.29296875
 20
-2387.58984375
 10
2337.21875
 20
-2387.58984375
 10
2337.21875
 20
-2397.6640625
 10
2327.14453125
 20
-2407.73828125
 10
2317.0703125
 20
-2417.8125
 10
2306.99609375
 20
-2427.88671875
 10
2296.921875
 20
-2437.9609375
 10
2296.921875
 20
-2448.03515625
 10
2296.921875
 20
-2458.109375
 10
2286.84765625
 20
-2468.18359375
 10
2286.84765625
 20
-2478.2578125
 10
2286.84765625
 20
-2488.33203125
 10
2286.84765625
 20
-2498.40625
 10
2286.84765625
 20
-2508.48046875
 10
2276.7734375
 20
-2518.5546875
 10
2266.69921875
 20
-2528.62890625
 10
2276.7734375
 20
-2538.703125
 10
2266.69921875
 20
-2548.77734375
 10
2266.69921875
 20
-2558.8515625
 10
2266.69921875
 20
-2568.92578125
 10
2266.69921875
 20
-2579.0
 10
2266.69921875
 20
-2589.07421875
 10
2266.69921875
 20
-2599.1484375
 10
2266.69921875
 20
-2609.22265625
 10
2266.69921875
 20
-2619.296875
 10
2276.7734375
 20
-2629.37109375
 10
2286.84765625
 20
-2639.4453125
 10
2276.7734375
 20
-2649.51953125
 10
2286.84765625
 20
-2659.59375
 10
2286.84765625
 20
-2669.66796875
 10
2296.921875
 20
-2679.7421875
 10
2296.921875
 20
-2689.81640625
 10
2306.99609375
 20
-2699.890625
 10
2296.921875
 20
-2709.96484375
 10
2306.99609375
 20
-2720.0390625
 10
2317.0703125
 20
-2730.11328125
 10
2327.14453125
 20
-2740.1875
 10
2327.14453125
 20
-2750.26171875
 10
2327.14453125
 20
-2760.3359375
 10
2337.21875
 20
-2770.41015625
 10
2347.29296875
 20
-2770.41015625
 10
2357.3671875
 20
-2770.41015625
 10
2367.44140625
 20
-2780.484375
 10
2367.44140625
 20
-2790.55859375
 10
2377.515625
 20
-2800.6328125
 10
2377.515625
 20
-2810.70703125
 10
2387.58984375
 20
-2810.70703125
 10
2397.6640625
 20
-2810.70703125
 10
2407.73828125
 20
-2820.78125
 10
2407.73828125
 20
-2830.85546875
 10
2417.8125
 20
-2840.9296875
 10
2427.88671875
 20
-2840.9296875
 10
2437.9609375
 20
-2851.00390625
 10
2448.03515625
 20
-2851.00390625
 10
2458.109375
 20
-2851.00390625
 10
2468.18359375
 20
-2861.078125
 10
2478.2578125
 20
-2861.078125
 10
2488.33203125
 20
-2861.078125
 10
2498.40625
 20
-2871.15234375
 10
2508.48046875
 20
-2871.15234375
 10
2518.5546875
 20
-2871.15234375
 10
2528.62890625
 20
-2881.2265625
 10
2538.703125
 20
-2871.15234375
 10
2548.77734375
 20
-2871.15234375
 10
2558.8515625
 20
-2881.2265625
 10
2568.92578125
 20
-2881.2265625
 10
2579.0
 20
-2881.2265625
 10
2589.07421875
 20
-2881.2265625
 10
2599.1484375
 20
-2881.2265625
 10
2609.22265625
 20
-2881.2265625
 10
2619.296875
 20
-2881.2265625
 10
2629.37109375
 20
-2881.2265625
 10
2639.4453125
 20
-2871.15234375
 10
2649.51953125
 20
-2871.15234375
 10
2659.59375
 20
-2871.15234375
 10
2669.66796875
 20
-2871.15234375
 10
2679.7421875
 20
-2871.15234375
 10
2689.81640625
 20
-2861.078125
 10
2699.890625
 20
-2851.00390625
 10
2709.96484375
 20
-2851.00390625
 10
2720.0390625
 20
-2851.00390625
 10
2720.0390625
 20
-2840.9296875
 10
2730.11328125
 20
-2830.85546875
 10
2740.1875
 20
-2830.85546875
 10
2750.26171875
 20
-2820.78125
 10
2760.3359375
 20
-2820.78125
 10
2770.41015625
 20
-2810.70703125
 10
2780.484375
 20
-2810.70703125
 10
2790.55859375
 20
-2800.6328125
 10
2800.6328125
 20
-2790.55859375
 10
2810.70703125
 20
-2780.484375
 10
2820.78125
 20
-2770.41015625
 10
2820.78125
 20
-2760.3359375
 10
2830.85546875
 20
-2750.26171875
 10
2830.85546875
 20
-2740.1875
 10
2840.9296875
 20
-2730.11328125
 10
2851.00390625
 20
-2720.0390625
 10
2851.00390625
 20
-2709.96484375
 10
2851.00390625
 20
-2699.890625
 10
2861.078125
 20
-2689.81640625
 10
2861.078125
 20
-2679.7421875
 10
2871.15234375
 20
-2669.66796875
 10
2871.15234375
 20
-2659.59375
 10
2871.15234375
 20
-2649.51953125
 10
2871.15234375
 20
-2639.4453125
 10
2871.15234375
 20
-2629.37109375
 10
2881.2265625
 20
-2619.296875
 10
2881.2265625
 20
-2609.22265625
 10
2881.2265625
 20
-2599.1484375
 10
2871.15234375
 20
-2589.07421875
 10
2881.2265625
 20
-2579.0
 10
2881.2265625
 20
-2568.92578125
 10
2881.2265625
 20
-2558.8515625
 10
2871.15234375
 20
-2548.77734375
 10
2881.2265625
 20
-2538.703125
 10
2881.2265625
 20
-2528.62890625
 10
2871.15234375
 20
-2518.5546875
 10
2871.15234375
 20
-2508.48046875
 10
2861.078125
 20
-2498.40625
 10
2861.078125
 20
-2488.33203125
 10
2861.078125
 20
-2478.2578125
 10
2861.078125
 20
-2468.18359375
 10
2851.00390625
 20
-2458.109375
 10
2851.00390625
 20
-2448.03515625
 10
2840.9296875
 20
-2437.9609375
 10
2840.9296875
 20
-2427.88671875
 10
2830.85546875
 20
-2417.8125
 10
2820.78125
 20
-2407.73828125
 10
2810.70703125
 20
-2397.6640625
 10
2800.6328125
 20
-2387.58984375
 10
2800.6328125
 20
-2377.515625
 10
2790.55859375
 20
-2377.515625
 10
2780.484375
 20
-2367.44140625
 10
2780.484375
 20
-2357.3671875
 10
2770.41015625
 20
-2357.3671875
 10
2760.3359375
 20
-2347.29296875
 10
2750.26171875
 20
-2337.21875
 10
2740.1875
 20
-2327.14453125
 10
2730.11328125
 20
-2317.0703125
 10
2720.0390625
 20
-2317.0703125
 10
2709.96484375
 20
-2317.0703125
 10
2699.890625
 20
-2306.99609375
 10
2689.81640625
 20
-2296.921875
 10
2679.7421875
 20
-2286.84765625
 10
2669.66796875
 20
-2296.921875
 10
2659.59375
 20
-2286.84765625
 10
2649.51953125
 20
-2286.84765625
 10
2639.4453125
 20
-2286.84765625
 10
2629.37109375
 20
-2286.84765625
 10
2619.296875
 20
-2276.7734375
 10
2609.22265625
 20
-2276.7734375
 10
2599.1484375
 20
-2276.7734375
 10
2589.07421875
 20
-2276.7734375
 10
2579.0
 20
-2276.7734375
 10
2568.92578125
 20
-2276.7734375
 10
2558.8515625
 20
-2276.7734375
 10
2548.77734375
 20
-2276.7734375
 10
2538.703125
 20
-2276.7734375
 10
2528.62890625
 20
-2276.7734375
 10
2518.5546875
 20
-2276.7734375
 10
2508.48046875
 20
-2276.7734375
 10
2498.40625
 20
-2276.7734375
  0
LWPOLYLINE
  5
33
330
17
100
AcDbEntity
  8
conductor
100
AcDbPolyline
 90
1
 70
1
 43
0.5
 10
241.78125
 20
-1803.28515625
  0
LWPOLYLINE
  5
34
330
17
100
AcDbEntity
  8
dielectric
100
AcDbPolyline
 90
1
 70
1
 43
0.5
 10
231.70703125
 20
-1813.359375
  0
LWPOLYLINE
  5
35
330
17
100
AcDbEntity
  8
dielectric
100
AcDbPolyline
 90
1
 70
1
 43
0.5
 10
2921.5234375
 20
-211.55859375
  0
LWPOLYLINE
  5
36
330
17
100
AcDbEntity
  8
substrate
100
AcDbPolyline
 90
2044
 70
1
 43
0.5
 10
0.0
 20
-0.0
 10
0.0
 20
-10.07421875
 10
0.0
 20
-20.1484375
 10
0.0
 20
-30.22265625
 10
0.0
 20
-40.296875
 10
0.0
 20
-50.37109375
 10
0.0
 20
-60.4453125
 10
0.0
 20
-70.51953125
 10
0.0
 20
-80.59375
 10
0.0
 20
-90.66796875
 10
0.0
 20
-100.7421875
 10
0.0
 20
-110.81640625
 10
0.0
 20
-120.890625
 10
0.0
 20
-130.96484375
 10
0.0
 20
-141.0390625
 10
0.0
 20
-151.11328125
 10
0.0
 20
-161.1875
 10
0.0
 20
-171.26171875
 10
0.0
 20
-181.3359375
 10
0.0
 20
-191.41015625
 10
0.0
 20
-201.484375
 10
0.0
 20
-211.55859375
 10
0.0
 20
-221.6328125
 10
0.0
 20
-231.70703125
 10
0.0
 20
-241.78125
 10
0.0
 20
-251.85546875
 10
0.0
 20
-261.9296875
 10
0.0
 20
-272.00390625
 10
0.0
 20
-282.078125
 10
0.0
 20
-292.15234375
 10
0.0
 20
-302.2265625
 10
0.0
 20
-312.30078125
 10
0.0
 20
-322.375
 10
0.0
 20
-332.44921875
 10
0.0
 20
-342.5234375
 10
0.0
 20
-352.59765625
 10
0.0
 20
-362.671875
 10
0.0
 20
-372.74609375
 10
0.0
 20
-382.8203125
 10
0.0
 20
-392.89453125
 10
0.0
 20
-402.96875
 10
0.0
 20
-413.04296875
 10
0.0
 20
-423.1171875
 10
0.0
 20
-433.19140625
 10
0.0
 20
-443.265625
 10
0.0
 20
-453.33984375
 10
0.0
 20
-463.4140625
 10
0.0
 20
-473.48828125
 10
0.0
 20
-483.5625
 10
0.0
 20
-493.63671875
 10
0.0
 20
-503.7109375
 10
0.0
 20
-513.78515625
 10
0.0
 20
-523.859375
 10
0.0
 20
-533.93359375
 10
0.0
 20
-544.0078125
 10
0.0
 20
-554.08203125
 10
0.0
 20
-564.15625
 10
0.0
 20
-574.23046875
 10
0.0
 20
-584.3046875
 10
0.0
 20
-594.37890625
 10
0.0
 20
-604.453125
 10
0.0
 20
-614.52734375
 10
0.0
 20
-624.6015625
 10
0.0
 20
-634.67578125
 10
0.0
 20
-644.75
 10
0.0
 20
-654.82421875
 10
0.0
 20
-664.8984375
 10
0.0
 20
-674.97265625
 10
0.0
 20
-685.046875
 10
0.0
 20
-695.12109375
 10
0.0
 20
-705.1953125
 10
0.0
 20
-715.26953125
 10
0.0
 20
-725.34375
 10
0.0
 20
-735.41796875
 10
0.0
 20
-745.4921875
 10
0.0
 20
-755.56640625
 10
0.0
 20
-765.640625
 10
0.0
 20
-775.71484375
 10
0.0
 20
-785.7890625
 10
0.0
 20
-795.86328125
 10
0.0
 20
-805.9375
 10
0.0
 20
-816.01171875
 10
0.0
 20
-826.0859375
 10
0.0
 20
-836.16015625
 10
0.0
 20
-846.234375
 10
0.0
 20
-856.30859375
 10
0.0
 20
-866.3828125
 10
0.0
 20
-876.45703125
 10
0.0
 20
-886.53125
 10
0.0
 20
-896.60546875
 10
0.0
 20
-906.6796875
 10
0.0
 20
-916.75390625
 10
0.0
 20
-926.828125
 10
0.0
 20
-936.90234375
 10
0.0
 20
-946.9765625
 10
0.0
 20
-957.05078125
 10
0.0
 20
-967.125
 10
0.0
 20
-977.19921875
 10
0.0
 20
-987.2734375
 10
0.0
 20
-997.34765625
 10
0.0
 20
-1007.421875
 10
0.0
 20
-1017.49609375
 10
0.0
 20
-1027.5703125
 10
0.0
 20
-1037.64453125
 10
0.0
 20
-1047.71875
 10
0.0
 20
-1057.79296875
 10
0.0
 20
-1067.8671875
 10
0.0
 20
-1077.94140625
 10
0.0
 20
-1088.015625
 10
0.0
 20
-1098.08984375
 10
0.0
 20
-1108.1640625
 10
0.0
 20
-1118.23828125
 10
0.0
 20
-1128.3125
 10
0.0
 20
-1138.38671875
 10
0.0
 20
-1148.4609375
 10
0.0
 20
-1158.53515625
 10
0.0
 20
-1168.609375
 10
0.0
 20
-1178.68359375
 10
0.0
 20
-1188.7578125
 10
0.0
 20
-1198.83203125
 10
0.0
 20
-1208.90625
 10
0.0
 20
-1218.98046875
 10
0.0
 20
-1229.0546875
 10
0.0
 20
-1239.12890625
 10
0.0
 20
-1249.203125
 10
0.0
 20
-1259.27734375
 10
0.0
 20
-1269.3515625
 10
0.0
 20
-1279.42578125
 10
0.0
 20
-1289.5
 10
0.0
 20
-1299.57421875
 10
0.0
 20
-1309.6484375
 10
0.0
 20
-1319.72265625
 10
0.0
 20
-1329.796875
 10
0.0
 20
-1339.87109375
 10
0.0
 20
-1349.9453125
 10
0.0
 20
-1360.01953125
 10
0.0
 20
-1370.09375
 10
0.0
 20
-1380.16796875
 10
0.0
 20
-1390.2421875
 10
0.0
 20
-1400.31640625
 10
0.0
 20
-1410.390625
 10
0.0
 20
-1420.46484375
 10
0.0
 20
-1430.5390625
 10
0.0
 20
-1440.61328125
 10
0.0
 20
-1450.6875
 10
0.0
 20
-1460.76171875
 10
0.0
 20
-1470.8359375
 10
0.0
 20
-1480.91015625
 10
0.0
 20
-1490.984375
 10
0.0
 20
-1501.05859375
 10
0.0
 20
-1511.1328125
 10
0.0
 20
-1521.20703125
 10
0.0
 20
-1531.28125
 10
0.0
 20
-1541.35546875
 10
0.0
 20
-1551.4296875
 10
0.0
 20
-1561.50390625
 10
0.0
 20
-1571.578125
 10
0.0
 20
-1581.65234375
 10
0.0
 20
-1591.7265625
 10
0.0
 20
-1601.80078125
 10
0.0
 20
-1611.875
 10
0.0
 20
-1621.94921875
 10
0.0
 20
-1632.0234375
 10
0.0
 20
-1642.09765625
 10
0.0
 20
-1652.171875
 10
0.0
 20
-1662.24609375
 10
0.0
 20
-1672.3203125
 10
0.0
 20
-1682.39453125
 10
0.0
 20
-1692.46875
 10
0.0
 20
-1702.54296875
 10
0.0
 20
-1712.6171875
 10
0.0
 20
-1722.69140625
 10
0.0
 20
-1732.765625
 10
0.0
 20
-1742.83984375
 10
0.0
 20
-1752.9140625
 10
0.0
 20
-1762.98828125
 10
0.0
 20
-1773.0625
 10
0.0
 20
-1783.13671875
 10
0.0
 20
-1793.2109375
 10
0.0
 20
-1803.28515625
 10
0.0
 20
-1813.359375
 10
0.0
 20
-1823.43359375
 10
0.0
 20
-1833.5078125
 10
0.0
 20
-1843.58203125
 10
0.0
 20
-1853.65625
 10
0.0
 20
-1863.73046875
 10
0.0
 20
-1873.8046875
 10
0.0
 20
-1883.87890625
 10
0.0
 20
-1893.953125
 10
0.0
 20
-1904.02734375
 10
0.0
 20
-1914.1015625
 10
0.0
 20
-1924.17578125
 10
0.0
 20
-1934.25
 10
0.0
 20
-1944.32421875
 10
0.0
 20
-1954.3984375
 10
0.0
 20
-1964.47265625
 10
0.0
 20
-1974.546875
 10
0.0
 20
-1984.62109375
 10
0.0
 20
-1994.6953125
 10
0.0
 20
-2004.76953125
 10
0.0
 20
-2014.84375
 10
0.0
 20
-2024.91796875
 10
0.0
 20
-2034.9921875
 10
0.0
 20
-2045.06640625
 10
0.0
 20
-2055.140625
 10
0.0
 20
-2065.21484375
 10
0.0
 20
-2075.2890625
 10
0.0
 20
-2085.36328125
 10
0.0
 20
-2095.4375
 10
0.0
 20
-2105.51171875
 10
0.0
 20
-2115.5859375
 10
0.0
 20
-2125.66015625
 10
0.0
 20
-2135.734375
 10
0.0
 20
-2145.80859375
 10
0.0
 20
-2155.8828125
 10
0.0
 20
-2165.95703125
 10
0.0
 20
-2176.03125
 10
0.0
 20
-2186.10546875
 10
0.0
 20
-2196.1796875
 10
0.0
 20
-2206.25390625
 10
0.0
 20
-2216.328125
 10
0.0
 20
-2226.40234375
 10
0.0
 20
-2236.4765625
 10
0.0
 20
-2246.55078125
 10
0.0
 20
-2256.625
 10
0.0
 20
-2266.69921875
 10
0.0
 20
-2276.7734375
 10
0.0
 20
-2286.84765625
 10
0.0
 20
-2296.921875
 10
0.0
 20
-2306.99609375
 10
0.0
 20
-2317.0703125
 10
0.0
 20
-2327.14453125
 10
0.0
 20
-2337.21875
 10
0.0
 20
-2347.29296875
 10
0.0
 20
-2357.3671875
 10
0.0
 20
-2367.44140625
 10
0.0
 20
-2377.515625
 10
0.0
 20
-2387.58984375
 10
0.0
 20
-2397.6640625
 10
0.0
 20
-2407.73828125
 10
0.0
 20
-2417.8125
 10
0.0
 20
-2427.88671875
 10
0.0
 20
-2437.9609375
 10
0.0
 20
-2448.03515625
 10
0.0
 20
-2458.109375
 10
0.0
 20
-2468.18359375
 10
0.0
 20
-2478.2578125
 10
0.0
 20
-2488.33203125
 10
0.0
 20
-2498.40625
 10
0.0
 20
-2508.48046875
 10
0.0
 20
-2518.5546875
 10
0.0
 20
-2528.62890625
 10
0.0
 20
-2538.703125
 10
0.0
 20
-2548.77734375
 10
0.0
 20
-2558.8515625
 10
0.0
 20
-2568.92578125
 10
0.0
 20
-2579.0
 10
0.0
 20
-2589.07421875
 10
0.0
 20
-2599.1484375
 10
0.0
 20
-2609.22265625
 10
0.0
 20
-2619.296875
 10
0.0
 20
-2629.37109375
 10
0.0
 20
-2639.4453125
 10
0.0
 20
-2649.51953125
 10
0.0
 20
-2659.59375
 10
0.0
 20
-2669.66796875
 10
0.0
 20
-2679.7421875
 10
0.0
 20
-2689.81640625
 10
0.0
 20
-2699.890625
 10
0.0
 20
-2709.96484375
 10
0.0
 20
-2720.0390625
 10
0.0
 20
-2730.11328125
 10
0.0
 20
-2740.1875
 10
0.0
 20
-2750.26171875
 10
0.0
 20
-2760.3359375
 10
0.0
 20
-2770.41015625
 10
0.0
 20
-2780.484375
 10
0.0
 20
-2790.55859375
 10
0.0
 20
-2800.6328125
 10
0.0
 20
-2810.70703125
 10
0.0
 20
-2820.78125
 10
0.0
 20
-2830.85546875
 10
0.0
 20
-2840.9296875
 10
0.0
 20
-2851.00390625
 10
0.0
 20
-2861.078125
 10
0.0
 20
-2871.15234375
 10
0.0
 20
-2881.2265625
 10
0.0
 20
-2891.30078125
 10
0.0
 20
-2901.375
 10
0.0
 20
-2911.44921875
 10
0.0
 20
-2921.5234375
 10
0.0
 20
-2931.59765625
 10
0.0
 20
-2941.671875
 10
0.0
 20
-2951.74609375
 10
0.0
 20
-2961.8203125
 10
0.0
 20
-2971.89453125
 10
0.0
 20
-2981.96875
 10
0.0
 20
-2992.04296875
 10
0.0
 20
-3002.1171875
 10
0.0
 20
-3012.19140625
 10
0.0
 20
-3022.265625
 10
0.0
 20
-3032.33984375
 10
0.0
 20
-3042.4140625
 10
0.0
 20
-3052.48828125
 10
0.0
 20
-3062.5625
 10
0.0
 20
-3072.63671875
 10
0.0
 20
-3082.7109375
 10
0.0
 20
-3092.78515625
 10
0.0
 20
-3102.859375
 10
0.0
 20
-3112.93359375
 10
0.0
 20
-3123.0078125
 10
0.0
 20
-3133.08203125
 10
0.0
 20
-3143.15625
 10
0.0
 20
-3153.23046875
 10
0.0
 20
-3163.3046875
 10
0.0
 20
-3173.37890625
 10
0.0
 20
-3183.453125
 10
0.0
 20
-3193.52734375
 10
0.0
 20
-3203.6015625
 10
0.0
 20
-3213.67578125
 10
0.0
 20
-3223.75
 10
0.0
 20
-3233.82421875
 10
0.0
 20
-3243.8984375
 10
0.0
 20
-3253.97265625
 10
0.0
 20
-3264.046875
 10
0.0
 20
-3274.12109375
 10
0.0
 20
-3284.1953125
 10
0.0
 20
-3294.26953125
 10
0.0
 20
-3304.34375
 10
0.0
 20
-3314.41796875
 10
0.0
 20
-3324.4921875
 10
0.0
 20
-3334.56640625
 10
0.0
 20
-3344.640625
 10
0.0
 20
-3354.71484375
 10
0.0
 20
-3364.7890625
 10
0.0
 20
-3374.86328125
 10
0.0
 20
-3384.9375
 10
0.0
 20
-3395.01171875
 10
0.0
 20
-3405.0859375
 10
0.0
 20
-3415.16015625
 10
0.0
 20
-3425.234375
 10
0.0
 20
-3435.30859375
 10
0.0
 20
-3445.3828125
 10
0.0
 20
-3455.45703125
 10
0.0
 20
-3465.53125
 10
0.0
 20
-3475.60546875
 10
0.0
 20
-3485.6796875
 10
0.0
 20
-3495.75390625
 10
0.0
 20
-3505.828125
 10
0.0
 20
-3515.90234375
 10
0.0
 20
-3525.9765625
 10
0.0
 20
-3536.05078125
 10
0.0
 20
-3546.125
 10
0.0
 20
-3556.19921875
 10
0.0
 20
-3566.2734375
 10
0.0
 20
-3576.34765625
 10
0.0
 20
-3586.421875
 10
0.0
 20
-3596.49609375
 10
0.0
 20
-3606.5703125
 10
0.0
 20
-3616.64453125
 10
0.0
 20
-3626.71875
 10
0.0
 20
-3636.79296875
 10
0.0
 20
-3646.8671875
 10
0.0
 20
-3656.94140625
 10
0.0
 20
-3667.015625
 10
0.0
 20
-3677.08984375
 10
0.0
 20
-3687.1640625
 10
0.0
 20
-3697.23828125
 10
0.0
 20
-3707.3125
 10
0.0
 20
-3717.38671875
 10
0.0
 20
-3727.4609375
 10
0.0
 20
-3737.53515625
 10
0.0
 20
-3747.609375
 10
0.0
 20
-3757.68359375
 10
0.0
 20
-3767.7578125
 10
0.0
 20
-3777.83203125
 10
0.0
 20
-3787.90625
 10
0.0
 20
-3797.98046875
 10
0.0
 20
-3808.0546875
 10
0.0
 20
-3818.12890625
 10
0.0
 20
-3828.203125
 10
0.0
 20
-3838.27734375
 10
0.0
 20
-3848.3515625
 10
0.0
 20
-3858.42578125
 10
0.0
 20
-3868.5
 10
0.0
 20
-3878.57421875
 10
0.0
 20
-3888.6484375
 10
0.0
 20
-3898.72265625
 10
0.0
 20
-3908.796875
 10
0.0
 20
-3918.87109375
 10
0.0
 20
-3928.9453125
 10
0.0
 20
-3939.01953125
 10
0.0
 20
-3949.09375
 10
0.0
 20
-3959.16796875
 10
0.0
 20
-3969.2421875
 10
0.0
 20
-3979.31640625
 10
0.0
 20
-3989.390625
 10
0.0
 20
-3999.46484375
 10
0.0
 20
-4009.5390625
 10
0.0
 20
-4019.61328125
 10
0.0
 20
-4029.6875
 10
0.0
 20
-4039.76171875
 10
0.0
 20
-4049.8359375
 10
0.0
 20
-4059.91015625
 10
0.0
 20
-4069.984375
 10
0.0
 20
-4080.05859375
 10
0.0
 20
-4090.1328125
 10
0.0
 20
-4100.20703125
 10
0.0
 20
-4110.28125
 10
0.0
 20
-4120.35546875
 10
0.0
 20
-4130.4296875
 10
0.0
 20
-4140.50390625
 10
0.0
 20
-4150.578125
 10
0.0
 20
-4160.65234375
 10
0.0
 20
-4170.7265625
 10
0.0
 20
-4180.80078125
 10
0.0
 20
-4190.875
 10
0.0
 20
-4200.94921875
 10
0.0
 20
-4211.0234375
 10
0.0
 20
-4221.09765625
 10
0.0
 20
-4231.171875
 10
0.0
 20
-4241.24609375
 10
0.0
 20
-4251.3203125
 10
0.0
 20
-4261.39453125
 10
0.0
 20
-4271.46875
 10
0.0
 20
-4281.54296875
 10
0.0
 20
-4291.6171875
 10
0.0
 20
-4301.69140625
 10
0.0
 20
-4311.765625
 10
0.0
 20
-4321.83984375
 10
0.0
 20
-4331.9140625
 10
0.0
 20
-4341.98828125
 10
0.0
 20
-4352.0625
 10
0.0
 20
-4362.13671875
 10
0.0
 20
-4372.2109375
 10
0.0
 20
-4382.28515625
 10
0.0
 20
-4392.359375
 10
0.0
 20
-4402.43359375
 10
0.0
 20
-4412.5078125
 10
0.0
 20
-4422.58203125
 10
0.0
 20
-4432.65625
 10
0.0
 20
-4442.73046875
 10
0.0
 20
-4452.8046875
 10
0.0
 20
-4462.87890625
 10
0.0
 20
-4472.953125
 10
0.0
 20
-4483.02734375
 10
0.0
 20
-4493.1015625
 10
0.0
 20
-4503.17578125
 10
0.0
 20
-4513.25
 10
0.0
 20
-4523.32421875
 10
0.0
 20
-4533.3984375
 10
0.0
 20
-4543.47265625
 10
0.0
 20
-4553.546875
 10
0.0
 20
-4563.62109375
 10
0.0
 20
-4573.6953125
 10
0.0
 20
-4583.76953125
 10
0.0
 20
-4593.84375
 10
0.0
 20
-4603.91796875
 10
0.0
 20
-4613.9921875
 10
0.0
 20
-4624.06640625
 10
0.0
 20
-4634.140625
 10
0.0
 20
-4644.21484375
 10
0.0
 20
-4654.2890625
 10
0.0
 20
-4664.36328125
 10
0.0
 20
-4674.4375
 10
0.0
 20
-4684.51171875
 10
0.0
 20
-4694.5859375
 10
0.0
 20
-4704.66015625
 10
0.0
 20
-4714.734375
 10
0.0
 20
-4724.80859375
 10
0.0
 20
-4734.8828125
 10
0.0
 20
-4744.95703125
 10
0.0
 20
-4755.03125
 10
0.0
 20
-4765.10546875
 10
0.0
 20
-4775.1796875
 10
0.0
 20
-4785.25390625
 10
0.0
 20
-4795.328125
 10
0.0
 20
-4805.40234375
 10
0.0
 20
-4815.4765625
 10
0.0
 20
-4825.55078125
 10
0.0
 20
-4835.625
 10
0.0
 20
-4845.69921875
 10
0.0
 20
-4855.7734375
 10
0.0
 20
-4865.84765625
 10
0.0
 20
-4875.921875
 10
0.0
 20
-4885.99609375
 10
0.0
 20
-4896.0703125
 10
0.0
 20
-4906.14453125
 10
0.0
 20
-4916.21875
 10
0.0
 20
-4926.29296875
 10
0.0
 20
-4936.3671875
 10
0.0
 20
-4946.44140625
 10
0.0
 20
-4956.515625
 10
0.0
 20
-4966.58984375
 10
0.0
 20
-4976.6640625
 10
0.0
 20
-4986.73828125
 10
0.0
 20
-4996.8125
 10
0.0
 20
-5006.88671875
 10
0.0
 20
-5016.9609375
 10
0.0
 20
-5027.03515625
 10
0.0
 20
-5037.109375
 10
0.0
 20
-5047.18359375
 10
0.0
 20
-5057.2578125
 10
0.0
 20
-5067.33203125
 10
0.0
 20
-5077.40625
 10
0.0
 20
-5087.48046875
 10
0.0
 20
-5097.5546875
 10
0.0
 20
-5107.62890625
 10
0.0
 20
-5117.703125
 10
0.0
 20
-5127.77734375
 10
0.0
 20
-5137.8515625
 10
0.0
 20
-5147.92578125
 10
10.07421875
 20
-5147.92578125
 10
20.1484375
 20
-5147.92578125
 10
30.22265625
 20
-5147.92578125
 10
40.296875
 20
-5147.92578125
 10
50.37109375
 20
-5147.92578125
 10
60.4453125
 20
-5147.92578125
 10
70.51953125
 20
-5147.92578125
 10
80.59375
 20
-5147.92578125
 10
90.66796875
 20
-5147.92578125
 10
100.7421875
 20
-5147.92578125
 10
110.81640625
 20
-5147.92578125
 10
120.890625
 20
-5147.92578125
 10
130.96484375
 20
-5147.92578125
 10
141.0390625
 20
-5147.92578125
 10
151.11328125
 20
-5147.92578125
 10
161.1875
 20
-5147.92578125
 10
171.26171875
 20
-5147.92578125
 10
181.3359375
 20
-5147.92578125
 10
191.41015625
 20
-5147.92578125
 10
201.484375
 20
-5147.92578125
 10
211.55859375
 20
-5147.92578125
 10
221.6328125
 20
-5147.92578125
 10
231.70703125
 20
-5147.92578125
 10
241.78125
 20
-5147.92578125
 10
251.85546875
 20
-5147.92578125
 10
261.9296875
 20
-5147.92578125
 10
272.00390625
 20
-5147.92578125
 10
282.078125
 20
-5147.92578125
 10
292.15234375
 20
-5147.92578125
 10
302.2265625
 20
-5147.92578125
 10
312.30078125
 20
-5147.92578125
 10
322.375
 20
-5147.92578125
 10
332.44921875
 20
-5147.92578125
 10
342.5234375
 20
-5147.92578125
 10
352.59765625
 20
-5147.92578125
 10
362.671875
 20
-5147.92578125
 10
372.74609375
 20
-5147.92578125
 10
382.8203125
 20
-5147.92578125
 10
392.89453125
 20
-5147.92578125
 10
402.96875
 20
-5147.92578125
 10
413.04296875
 20
-5147.92578125
 10
423.1171875
 20
-5147.92578125
 10
433.19140625
 20
-5147.92578125
 10
443.265625
 20
-5147.92578125
 10
453.33984375
 20
-5147.92578125
 10
463.4140625
 20
-5147.92578125
 10
473.48828125
 20
-5147.92578125
 10
483.5625
 20
-5147.92578125
 10
493.63671875
 20
-5147.92578125
 10
503.7109375
 20
-5147.92578125
 10
513.78515625
 20
-5147.92578125
 10
523.859375
 20
-5147.92578125
 10
533.93359375
 20
-5147.92578125
 10
544.0078125
 20
-5147.92578125
 10
554.08203125
 20
-5147.92578125
 10
564.15625
 20
-5147.92578125
 10
574.23046875
 20
-5147.92578125
 10
584.3046875
 20
-5147.92578125
 10
594.37890625
 20
-5147.92578125
 10
604.453125
 20
-5147.92578125
 10
614.52734375
 20
-5147.92578125
 10
624.6015625
 20
-5147.92578125
 10
634.67578125
 20
-5147.92578125
 10
644.75
 20
-5147.92578125
 10
654.82421875
 20
-5147.92578125
 10
664.8984375
 20
-5147.92578125
 10
674.97265625
 20
-5147.92578125
 10
685.046875
 20
-5147.92578125
 10
695.12109375
 20
-5147.92578125
 10
705.1953125
 20
-5147.92578125
 10
715.26953125
 20
-5147.92578125
 10
725.34375
 20
-5147.92578125
 10
735.41796875
 20
-5147.92578125
 10
745.4921875
 20
-5147.92578125
 10
755.56640625
 20
-5147.92578125
 10
765.640625
 20
-5147.92578125
 10
775.71484375
 20
-5147.92578125
 10
785.7890625
 20
-5147.92578125
 10
795.86328125
 20
-5147.92578125
 10
805.9375
 20
-5147.92578125
 10
816.01171875
 20
-5147.92578125
 10
826.0859375
 20
-5147.92578125
 10
836.16015625
 20
-5147.92578125
 10
846.234375
 20
-5147.92578125
 10
856.30859375
 20
-5147.92578125
 10
866.3828125
 20
-5147.92578125
 10
876.45703125
 20
-5147.92578125
 10
886.53125
 20
-5147.92578125
 10
896.60546875
 20
-5147.92578125
 10
906.6796875
 20
-5147.92578125
 10
916.75390625
 20
-5147.92578125
 10
926.828125
 20
-5147.92578125
 10
936.90234375
 20
-5147.92578125
 10
946.9765625
 20
-5147.92578125
 10
957.05078125
 20
-5147.92578125
 10
967.125
 20
-5147.92578125
 10
977.19921875
 20
-5147.92578125
 10
987.2734375
 20
-5147.92578125
 10
997.34765625
 20
-5147.92578125
 10
1007.421875
 20
-5147.92578125
 10
1017.49609375
 20
-5147.92578125
 10
1027.5703125
 20
-5147.92578125
 10
1037.64453125
 20
-5147.92578125
 10
1047.71875
 20
-5147.92578125
 10
1057.79296875
 20
-5147.92578125
 10
1067.8671875
 20
-5147.92578125
 10
1077.94140625
 20
-5147.92578125
 10
1088.015625
 20
-5147.92578125
 10
1098.08984375
 20
-5147.92578125
 10
1108.1640625
 20
-5147.92578125
 10
1118.23828125
 20
-5147.92578125
 10
1128.3125
 20
-5147.92578125
 10
1138.38671875
 20
-5147.92578125
 10
1148.4609375
 20
-5147.92578125
 10
1158.53515625
 20
-5147.92578125
 10
1168.609375
 20
-5147.92578125
 10
1178.68359375
 20
-5147.92578125
 10
1188.7578125
 20
-5147.92578125
 10
1198.83203125
 20
-5147.92578125
 10
1208.90625
 20
-5147.92578125
 10
1218.98046875
 20
-5147.92578125
 10
1229.0546875
 20
-5147.92578125
 10
1239.12890625
 20
-5147.92578125
 10
1249.203125
 20
-5147.92578125
 10
1259.27734375
 20
-5147.92578125
 10
1269.3515625
 20
-5147.92578125
 10
1279.42578125
 20
-5147.92578125
 10
1289.5
 20
-5147.92578125
 10
1299.57421875
 20
-5147.92578125
 10
1309.6484375
 20
-5147.92578125
 10
1319.72265625
 20
-5147.92578125
 10
1329.796875
 20
-5147.92578125
 10
1339.87109375
 20
-5147.92578125
 10
1349.9453125
 20
-5147.92578125
 10
1360.01953125
 20
-5147.92578125
 10
1370.09375
 20
-5147.92578125
 10
1380.16796875
 20
-5147.92578125
 10
1390.2421875
 20
-5147.92578125
 10
1400.31640625
 20
-5147.92578125
 10
1410.390625
 20
-5147.92578125
 10
1420.46484375
 20
-5147.92578125
 10
1430.5390625
 20
-5147.92578125
 10
1440.61328125
 20
-5147.92578125
 10
1450.6875
 20
-5147.92578125
 10
1460.76171875
 20
-5147.92578125
 10
1470.8359375
 20
-5147.92578125
 10
1480.91015625
 20
-5147.92578125
 10
1490.984375
 20
-5147.92578125
 10
1501.05859375
 20
-5147.92578125
 10
1511.1328125
 20
-5147.92578125
 10
1521.20703125
 20
-5147.92578125
 10
1531.28125
 20
-5147.92578125
 10
1541.35546875
 20
-5147.92578125
 10
1551.4296875
 20
-5147.92578125
 10
1561.50390625
 20
-5147.92578125
 10
1571.578125
 20
-5147.92578125
 10
1581.65234375
 20
-5147.92578125
 10
1591.7265625
 20
-5147.92578125
 10
1601.80078125
 20
-5147.92578125
 10
1611.875
 20
-5147.92578125
 10
1621.94921875
 20
-5147.92578125
 10
1632.0234375
 20
-5147.92578125
 10
1642.09765625
 20
-5147.92578125
 10
1652.171875
 20
-5147.92578125
 10
1662.24609375
 20
-5147.92578125
 10
1672.3203125
 20
-5147.92578125
 10
1682.39453125
 20
-5147.92578125
 10
1692.46875
 20
-5147.92578125
 10
1702.54296875
 20
-5147.92578125
 10
1712.6171875
 20
-5147.92578125
 10
1722.69140625
 20
-5147.92578125
 10
1732.765625
 20
-5147.92578125
 10
1742.83984375
 20
-5147.92578125
 10
1752.9140625
 20
-5147.92578125
 10
1762.98828125
 20
-5147.92578125
 10
1773.0625
 20
-5147.92578125
 10
1783.13671875
 20
-5147.92578125
 10
1793.2109375
 20
-5147.92578125
 10
1803.28515625
 20
-5147.92578125
 10
1813.359375
 20
-5147.92578125
 10
1823.43359375
 20
-5147.92578125
 10
1833.5078125
 20
-5147.92578125
 10
1843.58203125
 20
-5147.92578125
 10
1853.65625
 20
-5147.92578125
 10
1863.73046875
 20
-5147.92578125
 10
1873.8046875
 20
-5147.92578125
 10
1883.87890625
 20
-5147.92578125
 10
1893.953125
 20
-5147.92578125
 10
1904.02734375
 20
-5147.92578125
 10
1914.1015625
 20
-5147.92578125
 10
1924.17578125
 20
-5147.92578125
 10
1934.25
 20
-5147.92578125
 10
1944.32421875
 20
-5147.92578125
 10
1954.3984375
 20
-5147.92578125
 10
1964.47265625
 20
-5147.92578125
 10
1974.546875
 20
-5147.92578125
 10
1984.62109375
 20
-5147.92578125
 10
1994.6953125
 20
-5147.92578125
 10
2004.76953125
 20
-5147.92578125
 10
2014.84375
 20
-5147.92578125
 10
2024.91796875
 20
-5147.92578125
 10
2034.9921875
 20
-5147.92578125
 10
2045.06640625
 20
-5147.92578125
 10
2055.140625
 20
-5147.92578125
 10
2065.21484375
 20
-5147.92578125
 10
2075.2890625
 20
-5147.92578125
 10
2085.36328125
 20
-5147.92578125
 10
2095.4375
 20
-5147.92578125
 10
2105.51171875
 20
-5147.92578125
 10
2115.5859375
 20
-5147.92578125
 10
2125.66015625
 20
-5147.92578125
 10
2135.734375
 20
-5147.92578125
 10
2145.80859375
 20
-5147.92578125
 10
2155.8828125
 20
-5147.92578125
 10
2165.95703125
 20
-5147.92578125
 10
2176.03125
 20
-5147.92578125
 10
2186.10546875
 20
-5147.92578125
 10
2196.1796875
 20
-5147.92578125
 10
2206.25390625
 20
-5147.92578125
 10
2216.328125
 20
-5147.92578125
 10
2226.40234375
 20
-5147.92578125
 10
2236.4765625
 20
-5147.92578125
 10
2246.55078125
 20
-5147.92578125
 10
2256.625
 20
-5147.92578125
 10
2266.69921875
 20
-5147.92578125
 10
2276.7734375
 20
-5147.92578125
 10
2286.84765625
 20
-5147.92578125
 10
2296.921875
 20
-5147.92578125
 10
2306.99609375
 20
-5147.92578125
 10
2317.0703125
 20
-5147.92578125
 10
2327.14453125
 20
-5147.92578125
 10
2337.21875
 20
-5147.92578125
 10
2347.29296875
 20
-5147.92578125
 10
2357.3671875
 20
-5147.92578125
 10
2367.44140625
 20
-5147.92578125
 10
2377.515625
 20
-5147.92578125
 10
2387.58984375
 20
-5147.92578125
 10
2397.6640625
 20
-5147.92578125
 10
2407.73828125
 20
-5147.92578125
 10
2417.8125
 20
-5147.92578125
 10
2427.88671875
 20
-5147.92578125
 10
2437.9609375
 20
-5147.92578125
 10
2448.03515625
 20
-5147.92578125
 10
2458.109375
 20
-5147.92578125
 10
2468.18359375
 20
-5147.92578125
 10
2478.2578125
 20
-5147.92578125
 10
2488.33203125
 20
-5147.92578125
 10
2498.40625
 20
-5147.92578125
 10
2508.48046875
 20
-5147.92578125
 10
2518.5546875
 20
-5147.92578125
 10
2528.62890625
 20
-5147.92578125
 10
2538.703125
 20
-5147.92578125
 10
2548.77734375
 20
-5147.92578125
 10
2558.8515625
 20
-5147.92578125
 10
2568.92578125
 20
-5147.92578125
 10
2579.0
 20
-5147.92578125
 10
2589.07421875
 20
-5147.92578125
 10
2599.1484375
 20
-5147.92578125
 10
2609.22265625
 20
-5147.92578125
 10
2619.296875
 20
-5147.92578125
 10
2629.37109375
 20
-5147.92578125
 10
2639.4453125
 20
-5147.92578125
 10
2649.51953125
 20
-5147.92578125
 10
2659.59375
 20
-5147.92578125
 10
2669.66796875
 20
-5147.92578125
 10
2679.7421875
 20
-5147.92578125
 10
2689.81640625
 20
-5147.92578125
 10
2699.890625
 20
-5147.92578125
 10
2709.96484375
 20
-5147.92578125
 10
2720.0390625
 20
-5147.92578125
 10
2730.11328125
 20
-5147.92578125
 10
2740.1875
 20
-5147.92578125
 10
2750.26171875
 20
-5147.92578125
 10
2760.3359375
 20
-5147.92578125
 10
2770.41015625
 20
-5147.92578125
 10
2780.484375
 20
-5147.92578125
 10
2790.55859375
 20
-5147.92578125
 10
2800.6328125
 20
-5147.92578125
 10
2810.70703125
 20
-5147.92578125
 10
2820.78125
 20
-5147.92578125
 10
2830.85546875
 20
-5147.92578125
 10
2840.9296875
 20
-5147.92578125
 10
2851.00390625
 20
-5147.92578125
 10
2861.078125
 20
-5147.92578125
 10
2871.15234375
 20
-5147.92578125
 10
2881.2265625
 20
-5147.92578125
 10
2891.30078125
 20
-5147.92578125
 10
2901.375
 20
-5147.92578125
 10
2911.44921875
 20
-5147.92578125
 10
2921.5234375
 20
-5147.92578125
 10
2931.59765625
 20
-5147.92578125
 10
2941.671875
 20
-5147.92578125
 10
2951.74609375
 20
-5147.92578125
 10
2961.8203125
 20
-5147.92578125
 10
2971.89453125
 20
-5147.92578125
 10
2981.96875
 20
-5147.92578125
 10
2992.04296875
 20
-5147.92578125
 10
3002.1171875
 20
-5147.92578125
 10
3012.19140625
 20
-5147.92578125
 10
3022.265625
 20
-5147.92578125
 10
3032.33984375
 20
-5147.92578125
 10
3042.4140625
 20
-5147.92578125
 10
3052.48828125
 20
-5147.92578125
 10
3062.5625
 20
-5147.92578125
 10
3072.63671875
 20
-5147.92578125
 10
3082.7109375
 20
-5147.92578125
 10
3092.78515625
 20
-5147.92578125
 10
3102.859375
 20
-5147.92578125
 10
3112.93359375
 20
-5147.92578125
 10
3123.0078125
 20
-5147.92578125
 10
3133.08203125
 20
-5147.92578125
 10
3143.15625
 20
-5147.92578125
 10
3153.23046875
 20
-5147.92578125
 10
3163.3046875
 20
-5147.92578125
 10
3173.37890625
 20
-5147.92578125
 10
3183.453125
 20
-5147.92578125
 10
3193.52734375
 20
-5147.92578125
 10
3203.6015625
 20
-5147.92578125
 10
3213.67578125
 20
-5147.92578125
 10
3223.75
 20
-5147.92578125
 10
3233.82421875
 20
-5147.92578125
 10
3243.8984375
 20
-5147.92578125
 10
3253.97265625
 20
-5147.92578125
 10
3264.046875
 20
-5147.92578125
 10
3274.12109375
 20
-5147.92578125
 10
3284.1953125
 20
-5147.92578125
 10
3294.26953125
 20
-5147.92578125
 10
3304.34375
 20
-5147.92578125
 10
3314.41796875
 20
-5147.92578125
 10
3324.4921875
 20
-5147.92578125
 10
3334.56640625
 20
-5147.92578125
 10
3344.640625
 20
-5147.92578125
 10
3354.71484375
 20
-5147.92578125
 10
3364.7890625
 20
-5147.92578125
 10
3374.86328125
 20
-5147.92578125
 10
3384.9375
 20
-5147.92578125
 10
3395.01171875
 20
-5147.92578125
 10
3405.0859375
 20
-5147.92578125
 10
3415.16015625
 20
-5147.92578125
 10
3425.234375
 20
-5147.92578125
 10
3435.30859375
 20
-5147.92578125
 10
3445.3828125
 20
-5147.92578125
 10
3455.45703125
 20
-5147.92578125
 10
3465.53125
 20
-5147.92578125
 10
3475.60546875
 20
-5147.92578125
 10
3485.6796875
 20
-5147.92578125
 10
3495.75390625
 20
-5147.92578125
 10
3505.828125
 20
-5147.92578125
 10
3515.90234375
 20
-5147.92578125
 10
3525.9765625
 20
-5147.92578125
 10
3536.05078125
 20
-5147.92578125
 10
3546.125
 20
-5147.92578125
 10
3556.19921875
 20
-5147.92578125
 10
3566.2734375
 20
-5147.92578125
 10
3576.34765625
 20
-5147.92578125
 10
3586.421875
 20
-5147.92578125
 10
3596.49609375
 20
-5147.92578125
 10
3606.5703125
 20
-5147.92578125
 10
3616.64453125
 20
-5147.92578125
 10
3626.71875
 20
-5147.92578125
 10
3636.79296875
 20
-5147.92578125
 10
3646.8671875
 20
-5147.92578125
 10
3656.94140625
 20
-5147.92578125
 10
3667.015625
 20
-5147.92578125
 10
3677.08984375
 20
-5147.92578125
 10
3687.1640625
 20
-5147.92578125
 10
3697.23828125
 20
-5147.92578125
 10
3707.3125
 20
-5147.92578125
 10
3717.38671875
 20
-5147.92578125
 10
3727.4609375
 20
-5147.92578125
 10
3737.53515625
 20
-5147.92578125
 10
3747.609375
 20
-5147.92578125
 10
3757.68359375
 20
-5147.92578125
 10
3767.7578125
 20
-5147.92578125
 10
3777.83203125
 20
-5147.92578125
 10
3787.90625
 20
-5147.92578125
 10
3797.98046875
 20
-5147.92578125
 10
3808.0546875
 20
-5147.92578125
 10
3818.12890625
 20
-5147.92578125
 10
3828.203125
 20
-5147.92578125
 10
3838.27734375
 20
-5147.92578125
 10
3848.3515625
 20
-5147.92578125
 10
3858.42578125
 20
-5147.92578125
 10
3868.5
 20
-5147.92578125
 10
3878.57421875
 20
-5147.92578125
 10
3888.6484375
 20
-5147.92578125
 10
3898.72265625
 20
-5147.92578125
 10
3908.796875
 20
-5147.92578125
 10
3918.87109375
 20
-5147.92578125
 10
3928.9453125
 20
-5147.92578125
 10
3939.01953125
 20
-5147.92578125
 10
3949.09375
 20
-5147.92578125
 10
3959.16796875
 20
-5147.92578125
 10
3969.2421875
 20
-5147.92578125
 10
3979.31640625
 20
-5147.92578125
 10
3989.390625
 20
-5147.92578125
 10
3999.46484375
 20
-5147.92578125
 10
4009.5390625
 20
-5147.92578125
 10
4019.61328125
 20
-5147.92578125
 10
4029.6875
 20
-5147.92578125
 10
4039.76171875
 20
-5147.92578125
 10
4049.8359375
 20
-5147.92578125
 10
4059.91015625
 20
-5147.92578125
 10
4069.984375
 20
-5147.92578125
 10
4080.05859375
 20
-5147.92578125
 10
4090.1328125
 20
-5147.92578125
 10
4100.20703125
 20
-5147.92578125
 10
4110.28125
 20
-5147.92578125
 10
4120.35546875
 20
-5147.92578125
 10
4130.4296875
 20
-5147.92578125
 10
4140.50390625
 20
-5147.92578125
 10
4150.578125
 20
-5147.92578125
 10
4160.65234375
 20
-5147.92578125
 10
4170.7265625
 20
-5147.92578125
 10
4180.80078125
 20
-5147.92578125
 10
4190.875
 20
-5147.92578125
 10
4200.94921875
 20
-5147.92578125
 10
4211.0234375
 20
-5147.92578125
 10
4221.09765625
 20
-5147.92578125
 10
4231.171875
 20
-5147.92578125
 10
4241.24609375
 20
-5147.92578125
 10
4251.3203125
 20
-5147.92578125
 10
4261.39453125
 20
-5147.92578125
 10
4271.46875
 20
-5147.92578125
 10
4281.54296875
 20
-5147.92578125
 10
4291.6171875
 20
-5147.92578125
 10
4301.69140625
 20
-5147.92578125
 10
4311.765625
 20
-5147.92578125
 10
4321.83984375
 20
-5147.92578125
 10
4331.9140625
 20
-5147.92578125
 10
4341.98828125
 20
-5147.92578125
 10
4352.0625
 20
-5147.92578125
 10
4362.13671875
 20
-5147.92578125
 10
4372.2109375
 20
-5147.92578125
 10
4382.28515625
 20
-5147.92578125
 10
4392.359375
 20
-5147.92578125
 10
4402.43359375
 20
-5147.92578125
 10
4412.5078125
 20
-5147.92578125
 10
4422.58203125
 20
-5147.92578125
 10
4432.65625
 20
-5147.92578125
 10
4442.73046875
 20
-5147.92578125
 10
4452.8046875
 20
-5147.92578125
 10
4462.87890625
 20
-5147.92578125
 10
4472.953125
 20
-5147.92578125
 10
4483.02734375
 20
-5147.92578125
 10
4493.1015625
 20
-5147.92578125
 10
4503.17578125
 20
-5147.92578125
 10
4513.25
 20
-5147.92578125
 10
4523.32421875
 20
-5147.92578125
 10
4533.3984375
 20
-5147.92578125
 10
4543.47265625
 20
-5147.92578125
 10
4553.546875
 20
-5147.92578125
 10
4563.62109375
 20
-5147.92578125
 10
4573.6953125
 20
-5147.92578125
 10
4583.76953125
 20
-5147.92578125
 10
4593.84375
 20
-5147.92578125
 10
4603.91796875
 20
-5147.92578125
 10
4613.9921875
 20
-5147.92578125
 10
4624.06640625
 20
-5147.92578125
 10
4634.140625
 20
-5147.92578125
 10
4644.21484375
 20
-5147.92578125
 10
4654.2890625
 20
-5147.92578125
 10
4664.36328125
 20
-5147.92578125
 10
4674.4375
 20
-5147.92578125
 10
4684.51171875
 20
-5147.92578125
 10
4694.5859375
 20
-5147.92578125
 10
4704.66015625
 20
-5147.92578125
 10
4714.734375
 20
-5147.92578125
 10
4724.80859375
 20
-5147.92578125
 10
4734.8828125
 20
-5147.92578125
 10
4744.95703125
 20
-5147.92578125
 10
4755.03125
 20
-5147.92578125
 10
4765.10546875
 20
-5147.92578125
 10
4775.1796875
 20
-5147.92578125
 10
4785.25390625
 20
-5147.92578125
 10
4795.328125
 20
-5147.92578125
 10
4805.40234375
 20
-5147.92578125
 10
4815.4765625
 20
-5147.92578125
 10
4825.55078125
 20
-5147.92578125
 10
4835.625
 20
-5147.92578125
 10
4845.69921875
 20
-5147.92578125
 10
4855.7734375
 20
-5147.92578125
 10
4865.84765625
 20
-5147.92578125
 10
4875.921875
 20
-5147.92578125
 10
4885.99609375
 20
-5147.92578125
 10
4896.0703125
 20
-5147.92578125
 10
4906.14453125
 20
-5147.92578125
 10
4916.21875
 20
-5147.92578125
 10
4926.29296875
 20
-5147.92578125
 10
4936.3671875
 20
-5147.92578125
 10
4946.44140625
 20
-5147.92578125
 10
4956.515625
 20
-5147.92578125
 10
4966.58984375
 20
-5147.92578125
 10
4976.6640625
 20
-5147.92578125
 10
4986.73828125
 20
-5147.92578125
 10
4996.8125
 20
-5147.92578125
 10
5006.88671875
 20
-5147.92578125
 10
5016.9609375
 20
-5147.92578125
 10
5027.03515625
 20
-5147.92578125
 10
5037.109375
 20
-5147.92578125
 10
5047.18359375
 20
-5147.92578125
 10
5057.2578125
 20
-5147.92578125
 10
5067.33203125
 20
-5147.92578125
 10
5077.40625
 20
-5147.92578125
 10
5087.48046875
 20
-5147.92578125
 10
5097.5546875
 20
-5147.92578125
 10
5107.62890625
 20
-5147.92578125
 10
5117.703125
 20
-5147.92578125
 10
5127.77734375
 20
-5147.92578125
 10
5137.8515625
 20
-5147.92578125
 10
5147.92578125
 20
-5147.92578125
 10
5147.92578125
 20
-5137.8515625
 10
5147.92578125
 20
-5127.77734375
 10
5147.92578125
 20
-5117.703125
 10
5147.92578125
 20
-5107.62890625
 10
5147.92578125
 20
-5097.5546875
 10
5147.92578125
 20
-5087.48046875
 10
5147.92578125
 20
-5077.40625
 10
5147.92578125
 20
-5067.33203125
 10
5147.92578125
 20
-5057.2578125
 10
5147.92578125
 20
-5047.18359375
 10
5147.92578125
 20
-5037.109375
 10
5147.92578125
 20
-5027.03515625
 10
5147.92578125
 20
-5016.9609375
 10
5147.92578125
 20
-5006.88671875
 10
5147.92578125
 20
-4996.8125
 10
5147.92578125
 20
-4986.73828125
 10
5147.92578125
 20
-4976.6640625
 10
5147.92578125
 20
-4966.58984375
 10
5147.92578125
 20
-4956.515625
 10
5147.92578125
 20
-4946.44140625
 10
5147.92578125
 20
-4936.3671875
 10
5147.92578125
 20
-4926.29296875
 10
5147.92578125
 20
-4916.21875
 10
5147.92578125
 20
-4906.14453125
 10
5147.92578125
 20
-4896.0703125
 10
5147.92578125
 20
-4885.99609375
 10
5147.92578125
 20
-4875.921875
 10
5147.92578125
 20
-4865.84765625
 10
5147.92578125
 20
-4855.7734375
 10
5147.92578125
 20
-4845.69921875
 10
5147.92578125
 20
-4835.625
 10
5147.92578125
 20
-4825.55078125
 10
5147.92578125
 20
-4815.4765625
 10
5147.92578125
 20
-4805.40234375
 10
5147.92578125
 20
-4795.328125
 10
5147.92578125
 20
-4785.25390625
 10
5147.92578125
 20
-4775.1796875
 10
5147.92578125
 20
-4765.10546875
 10
5147.92578125
 20
-4755.03125
 10
5147.92578125
 20
-4744.95703125
 10
5147.92578125
 20
-4734.8828125
 10
5147.92578125
 20
-4724.80859375
 10
5147.92578125
 20
-4714.734375
 10
5147.92578125
 20
-4704.66015625
 10
5147.92578125
 20
-4694.5859375
 10
5147.92578125
 20
-4684.51171875
 10
5147.92578125
 20
-4674.4375
 10
5147.92578125
 20
-4664.36328125
 10
5147.92578125
 20
-4654.2890625
 10
5147.92578125
 20
-4644.21484375
 10
5147.92578125
 20
-4634.140625
 10
5147.92578125
 20
-4624.06640625
 10
5147.92578125
 20
-4613.9921875
 10
5147.92578125
 20
-4603.91796875
 10
5147.92578125
 20
-4593.84375
 10
5147.92578125
 20
-4583.76953125
 10
5147.92578125
 20
-4573.6953125
 10
5147.92578125
 20
-4563.62109375
 10
5147.92578125
 20
-4553.546875
 10
5147.92578125
 20
-4543.47265625
 10
5147.92578125
 20
-4533.3984375
 10
5147.92578125
 20
-4523.32421875
 10
5147.92578125
 20
-4513.25
 10
5147.92578125
 20
-4503.17578125
 10
5147.92578125
 20
-4493.1015625
 10
5147.92578125
 20
-4483.02734375
 10
5147.92578125
 20
-4472.953125
 10
5147.92578125
 20
-4462.87890625
 10
5147.92578125
 20
-4452.8046875
 10
5147.92578125
 20
-4442.73046875
 10
5147.92578125
 20
-4432.65625
 10
5147.92578125
 20
-4422.58203125
 10
5147.92578125
 20
-4412.5078125
 10
5147.92578125
 20
-4402.43359375
 10
5147.92578125
 20
-4392.359375
 10
5147.92578125
 20
-4382.28515625
 10
5147.92578125
 20
-4372.2109375
 10
5147.92578125
 20
-4362.13671875
 10
5147.92578125
 20
-4352.0625
 10
5147.92578125
 20
-4341.98828125
 10
5147.92578125
 20
-4331.9140625
 10
5147.92578125
 20
-4321.83984375
 10
5147.92578125
 20
-4311.765625
 10
5147.92578125
 20
-4301.69140625
 10
5147.92578125
 20
-4291.6171875
 10
5147.92578125
 20
-4281.54296875
 10
5147.92578125
 20
-4271.46875
 10
5147.92578125
 20
-4261.39453125
 10
5147.92578125
 20
-4251.3203125
 10
5147.92578125
 20
-4241.24609375
 10
5147.92578125
 20
-4231.171875
 10
5147.92578125
 20
-4221.09765625
 10
5147.92578125
 20
-4211.0234375
 10
5147.92578125
 20
-4200.94921875
 10
5147.92578125
 20
-4190.875
 10
5147.92578125
 20
-4180.80078125
 10
5147.92578125
 20
-4170.7265625
 10
5147.92578125
 20
-4160.65234375
 10
5147.92578125
 20
-4150.578125
 10
5147.92578125
 20
-4140.50390625
 10
5147.92578125
 20
-4130.4296875
 10
5147.92578125
 20
-4120.35546875
 10
5147.92578125
 20
-4110.28125
 10
5147.92578125
 20
-4100.20703125
 10
5147.92578125
 20
-4090.1328125
 10
5147.92578125
 20
-4080.05859375
 10
5147.92578125
 20
-4069.984375
 10
5147.92578125
 20
-4059.91015625
 10
5147.92578125
 20
-4049.8359375
 10
5147.92578125
 20
-4039.76171875
 10
5147.92578125
 20
-4029.6875
 10
5147.92578125
 20
-4019.61328125
 10
5147.92578125
 20
-4009.5390625
 10
5147.92578125
 20
-3999.46484375
 10
5147.92578125
 20
-3989.390625
 10
5147.92578125
 20
-3979.31640625
 10
5147.92578125
 20
-3969.2421875
 10
5147.92578125
 20
-3959.16796875
 10
5147.92578125
 20
-3949.09375
 10
5147.92578125
 20
-3939.01953125
 10
5147.92578125
 20
-3928.9453125
 10
5147.92578125
 20
-3918.87109375
 10
5147.92578125
 20
-3908.796875
 10
5147.92578125
 20
-3898.72265625
 10
5147.92578125
 20
-3888.6484375
 10
5147.92578125
 20
-3878.57421875
 10
5147.92578125
 20
-3868.5
 10
5147.92578125
 20
-3858.42578125
 10
5147.92578125
 20
-3848.3515625
 10
5147.92578125
 20
-3838.27734375
 10
5147.92578125
 20
-3828.203125
 10
5147.92578125
 20
-3818.12890625
 10
5147.92578125
 20
-3808.0546875
 10
5147.92578125
 20
-3797.98046875
 10
5147.92578125
 20
-3787.90625
 10
5147.92578125
 20
-3777.83203125
 10
5147.92578125
 20
-3767.7578125
 10
5147.92578125
 20
-3757.68359375
 10
5147.92578125
 20
-3747.609375
 10
5147.92578125
 20
-3737.53515625
 10
5147.92578125
 20
-3727.4609375
 10
5147.92578125
 20
-3717.38671875
 10
5147.92578125
 20
-3707.3125
 10
5147.92578125
 20
-3697.23828125
 10
5147.92578125
 20
-3687.1640625
 10
5147.92578125
 20
-3677.08984375
 10
5147.92578125
 20
-3667.015625
 10
5147.92578125
 20
-3656.94140625
 10
5147.92578125
 20
-3646.8671875
 10
5147.92578125
 20
-3636.79296875
 10
5147.92578125
 20
-3626.71875
 10
5147.92578125
 20
-3616.64453125
 10
5147.92578125
 20
-3606.5703125
 10
5147.92578125
 20
-3596.49609375
 10
5147.92578125
 20
-3586.421875
 10
5147.92578125
 20
-3576.34765625
 10
5147.92578125
 20
-3566.2734375
 10
5147.92578125
 20
-3556.19921875
 10
5147.92578125
 20
-3546.125
 10
5147.92578125
 20
-3536.05078125
 10
5147.92578125
 20
-3525.9765625
 10
5147.92578125
 20
-3515.90234375
 10
5147.92578125
 20
-3505.828125
 10
5147.92578125
 20
-3495.75390625
 10
5147.92578125
 20
-3485.6796875
 10
5147.92578125
 20
-3475.60546875
 10
5147.92578125
 20
-3465.53125
 10
5147.92578125
 20
-3455.45703125
 10
5147.92578125
 20
-3445.3828125
 10
5147.92578125
 20
-3435.30859375
 10
5147.92578125
 20
-3425.234375
 10
5147.92578125
 20
-3415.16015625
 10
5147.92578125
 20
-3405.0859375
 10
5147.92578125
 20
-3395.01171875
 10
5147.92578125
 20
-3384.9375
 10
5147.92578125
 20
-3374.86328125
 10
5147.92578125
 20
-3364.7890625
 10
5147.92578125
 20
-3354.71484375
 10
5147.92578125
 20
-3344.640625
 10
5147.92578125
 20
-3334.56640625
 10
5147.92578125
 20
-3324.4921875
 10
5147.92578125
 20
-3314.41796875
 10
5147.92578125
 20
-3304.34375
 10
5147.92578125
 20
-3294.26953125
 10
5147.92578125
 20
-3284.1953125
 10
5147.92578125
 20
-3274.12109375
 10
5147.92578125
 20
-3264.046875
 10
5147.92578125
 20
-3253.97265625
 10
5147.92578125
 20
-3243.8984375
 10
5147.92578125
 20
-3233.82421875
 10
5147.92578125
 20
-3223.75
 10
5147.92578125
 20
-3213.67578125
 10
5147.92578125
 20
-3203.6015625
 10
5147.92578125
 20
-3193.52734375
 10
5147.92578125
 20
-3183.453125
 10
5147.92578125
 20
-3173.37890625
 10
5147.92578125
 20
-3163.3046875
 10
5147.92578125
 20
-3153.23046875
 10
5147.92578125
 20
-3143.15625
 10
5147.92578125
 20
-3133.08203125
 10
5147.92578125
 20
-3123.0078125
 10
5147.92578125
 20
-3112.93359375
 10
5147.92578125
 20
-3102.859375
 10
5147.92578125
 20
-3092.78515625
 10
5147.92578125
 20
-3082.7109375
 10
5147.92578125
 20
-3072.63671875
 10
5147.92578125
 20
-3062.5625
 10
5147.92578125
 20
-3052.48828125
 10
5147.92578125
 20
-3042.4140625
 10
5147.92578125
 20
-3032.33984375
 10
5147.92578125
 20
-3022.265625
 10
5147.92578125
 20
-3012.19140625
 10
5147.92578125
 20
-3002.1171875
 10
5147.92578125
 20
-2992.04296875
 10
5147.92578125
 20
-2981.96875
 10
5147.92578125
 20
-2971.89453125
 10
5147.92578125
 20
-2961.8203125
 10
5147.92578125
 20
-2951.74609375
 10
5147.92578125
 20
-2941.671875
 10
5147.92578125
 20
-2931.59765625
 10
5147.92578125
 20
-2921.5234375
 10
5147.92578125
 20
-2911.44921875
 10
5147.92578125
 20
-2901.375
 10
5147.92578125
 20
-2891.30078125
 10
5147.92578125
 20
-2881.2265625
 10
5147.92578125
 20
-2871.15234375
 10
5147.92578125
 20
-2861.078125
 10
5147.92578125
 20
-2851.00390625
 10
5147.92578125
 20
-2840.9296875
 10
5147.92578125
 20
-2830.85546875
 10
5147.92578125
 20
-2820.78125
 10
5147.92578125
 20
-2810.70703125
 10
5147.92578125
 20
-2800.6328125
 10
5147.92578125
 20
-2790.55859375
 10
5147.92578125
 20
-2780.484375
 10
5147.92578125
 20
-2770.41015625
 10
5147.92578125
 20
-2760.3359375
 10
5147.92578125
 20
-2750.26171875
 10
5147.92578125
 20
-2740.1875
 10
5147.92578125
 20
-2730.11328125
 10
5147.92578125
 20
-2720.0390625
 10
5147.92578125
 20
-2709.96484375
 10
5147.92578125
 20
-2699.890625
 10
5147.92578125
 20
-2689.81640625
 10
5147.92578125
 20
-2679.7421875
 10
5147.92578125
 20
-2669.66796875
 10
5147.92578125
 20
-2659.59375
 10
5147.92578125
 20
-2649.51953125
 10
5147.92578125
 20
-2639.4453125
 10
5147.92578125
 20
-2629.37109375
 10
5147.92578125
 20
-2619.296875
 10
5147.92578125
 20
-2609.22265625
 10
5147.92578125
 20
-2599.1484375
 10
5147.92578125
 20
-2589.07421875
 10
5147.92578125
 20
-2579.0
 10
5147.92578125
 20
-2568.92578125
 10
5147.92578125
 20
-2558.8515625
 10
5147.92578125
 20
-2548.77734375
 10
5147.92578125
 20
-2538.703125
 10
5147.92578125
 20
-2528.62890625
 10
5147.92578125
 20
-2518.5546875
 10
5147.92578125
 20
-2508.48046875
 10
5147.92578125
 20
-2498.40625
 10
5147.92578125
 20
-2488.33203125
 10
5147.92578125
 20
-2478.2578125
 10
5147.92578125
 20
-2468.18359375
 10
5147.92578125
 20
-2458.109375
 10
5147.92578125
 20
-2448.03515625
 10
5147.92578125
 20
-2437.9609375
 10
5147.92578125
 20
-2427.88671875
 10
5147.92578125
 20
-2417.8125
 10
5147.92578125
 20
-2407.73828125
 10
5147.92578125
 20
-2397.6640625
 10
5147.92578125
 20
-2387.58984375
 10
5147.92578125
 20
-2377.515625
 10
5147.92578125
 20
-2367.44140625
 10
5147.92578125
 20
-2357.3671875
 10
5147.92578125
 20
-2347.29296875
 10
5147.92578125
 20
-2337.21875
 10
5147.92578125
 20
-2327.14453125
 10
5147.92578125
 20
-2317.0703125
 10
5147.92578125
 20
-2306.99609375
 10
5147.92578125
 20
-2296.921875
 10
5147.92578125
 20
-2286.84765625
 10
5147.92578125
 20
-2276.7734375
 10
5147.92578125
 20
-2266.69921875
 10
5147.92578125
 20
-2256.625
 10
5147.92578125
 20
-2246.55078125
 10
5147.92578125
 20
-2236.4765625
 10
5147.92578125
 20
-2226.40234375
 10
5147.92578125
 20
-2216.328125
 10
5147.92578125
 20
-2206.25390625
 10
5147.92578125
 20
-2196.1796875
 10
5147.92578125
 20
-2186.10546875
 10
5147.92578125
 20
-2176.03125
 10
5147.92578125
 20
-2165.95703125
 10
5147.92578125
 20
-2155.8828125
 10
5147.92578125
 20
-2145.80859375
 10
5147.92578125
 20
-2135.734375
 10
5147.92578125
 20
-2125.66015625
 10
5147.92578125
 20
-2115.5859375
 10
5147.92578125
 20
-2105.51171875
 10
5147.92578125
 20
-2095.4375
 10
5147.92578125
 20
-2085.36328125
 10
5147.92578125
 20
-2075.2890625
 10
5147.92578125
 20
-2065.21484375
 10
5147.92578125
 20
-2055.140625
 10
5147.92578125
 20
-2045.06640625
 10
5147.92578125
 20
-2034.9921875
 10
5147.92578125
 20
-2024.91796875
 10
5147.92578125
 20
-2014.84375
 10
5147.92578125
 20
-2004.76953125
 10
5147.92578125
 20
-1994.6953125
 10
5147.92578125
 20
-1984.62109375
 10
5147.92578125
 20
-1974.546875
 10
5147.92578125
 20
-1964.47265625
 10
5147.92578125
 20
-1954.3984375
 10
5147.92578125
 20
-1944.32421875
 10
5147.92578125
 20
-1934.25
 10
5147.92578125
 20
-1924.17578125
 10
5147.92578125
 20
-1914.1015625
 10
5147.92578125
 20
-1904.02734375
 10
5147.92578125
 20
-1893.953125
 10
5147.92578125
 20
-1883.87890625
 10
5147.92578125
 20
-1873.8046875
 10
5147.92578125
 20
-1863.73046875
 10
5147.92578125
 20
-1853.65625
 10
5147.92578125
 20
-1843.58203125
 10
5147.92578125
 20
-1833.5078125
 10
5147.92578125
 20
-1823.43359375
 10
5147.92578125
 20
-1813.359375
 10
5147.92578125
 20
-1803.28515625
 10
5147.92578125
 20
-1793.2109375
 10
5147.92578125
 20
-1783.13671875
 10
5147.92578125
 20
-1773.0625
 10
5147.92578125
 20
-1762.98828125
 10
5147.92578125
 20
-1752.9140625
 10
5147.92578125
 20
-1742.83984375
 10
5147.92578125
 20
-1732.765625
 10
5147.92578125
 20
-1722.69140625
 10
5147.92578125
 20
-1712.6171875
 10
5147.92578125
 20
-1702.54296875
 10
5147.92578125
 20
-1692.46875
 10
5147.92578125
 20
-1682.39453125
 10
5147.92578125
 20
-1672.3203125
 10
5147.92578125
 20
-1662.24609375
 10
5147.92578125
 20
-1652.171875
 10
5147.92578125
 20
-1642.09765625
 10
5147.92578125
 20
-1632.0234375
 10
5147.92578125
 20
-1621.94921875
 10
5147.92578125
 20
-1611.875
 10
5147.92578125
 20
-1601.80078125
 10
5147.92578125
 20
-1591.7265625
 10
5147.92578125
 20
-1581.65234375
 10
5147.92578125
 20
-1571.578125
 10
5147.92578125
 20
-1561.50390625
 10
5147.92578125
 20
-1551.4296875
 10
5147.92578125
 20
-1541.35546875
 10
5147.92578125
 20
-1531.28125
 10
5147.92578125
 20
-1521.20703125
 10
5147.92578125
 20
-1511.1328125
 10
5147.92578125
 20
-1501.05859375
 10
5147.92578125
 20
-1490.984375
 10
5147.92578125
 20
-1480.91015625
 10
5147.92578125
 20
-1470.8359375
 10
5147.92578125
 20
-1460.76171875
 10
5147.92578125
 20
-1450.6875
 10
5147.92578125
 20
-1440.61328125
 10
5147.92578125
 20
-1430.5390625
 10
5147.92578125
 20
-1420.46484375
 10
5147.92578125
 20
-1410.390625
 10
5147.92578125
 20
-1400.31640625
 10
5147.92578125
 20
-1390.2421875
 10
5147.92578125
 20
-1380.16796875
 10
5147.92578125
 20
-1370.09375
 10
5147.92578125
 20
-1360.01953125
 10
5147.92578125
 20
-1349.9453125
 10
5147.92578125
 20
-1339.87109375
 10
5147.92578125
 20
-1329.796875
 10
5147.92578125
 20
-1319.72265625
 10
5147.92578125
 20
-1309.6484375
 10
5147.92578125
 20
-1299.57421875
 10
5147.92578125
 20
-1289.5
 10
5147.92578125
 20
-1279.42578125
 10
5147.92578125
 20
-1269.3515625
 10
5147.92578125
 20
-1259.27734375
 10
5147.92578125
 20
-1249.203125
 10
5147.92578125
 20
-1239.12890625
 10
5147.92578125
 20
-1229.0546875
 10
5147.92578125
 20
-1218.98046875
 10
5147.92578125
 20
-1208.90625
 10
5147.92578125
 20
-1198.83203125
 10
5147.92578125
 20
-1188.7578125
 10
5147.92578125
 20
-1178.68359375
 10
5147.92578125
 20
-1168.609375
 10
5147.92578125
 20
-1158.53515625
 10
5147.92578125
 20
-1148.4609375
 10
5147.92578125
 20
-1138.38671875
 10
5147.92578125
 20
-1128.3125
 10
5147.92578125
 20
-1118.23828125
 10
5147.92578125
 20
-1108.1640625
 10
5147.92578125
 20
-1098.08984375
 10
5147.92578125
 20
-1088.015625
 10
5147.92578125
 20
-1077.94140625
 10
5147.92578125
 20
-1067.8671875
 10
5147.92578125
 20
-1057.79296875
 10
5147.92578125
 20
-1047.71875
 10
5147.92578125
 20
-1037.64453125
 10
5147.92578125
 20
-1027.5703125
 10
5147.92578125
 20
-1017.49609375
 10
5147.92578125
 20
-1007.421875
 10
5147.92578125
 20
-997.34765625
 10
5147.92578125
 20
-987.2734375
 10
5147.92578125
 20
-977.19921875
 10
5147.92578125
 20
-967.125
 10
5147.92578125
 20
-957.05078125
 10
5147.92578125
 20
-946.9765625
 10
5147.92578125
 20
-936.90234375
 10
5147.92578125
 20
-926.828125
 10
5147.92578125
 20
-916.75390625
 10
5147.92578125
 20
-906.6796875
 10
5147.92578125
 20
-896.60546875
 10
5147.92578125
 20
-886.53125
 10
5147.92578125
 20
-876.45703125
 10
5147.92578125
 20
-866.3828125
 10
5147.92578125
 20
-856.30859375
 10
5147.92578125
 20
-846.234375
 10
5147.92578125
 20
-836.16015625
 10
5147.92578125
 20
-826.0859375
 10
5147.92578125
 20
-816.01171875
 10
5147.92578125
 20
-805.9375
 10
5147.92578125
 20
-795.86328125
 10
5147.92578125
 20
-785.7890625
 10
5147.92578125
 20
-775.71484375
 10
5147.92578125
 20
-765.640625
 10
5147.92578125
 20
-755.56640625
 10
5147.92578125
 20
-745.4921875
 10
5147.92578125
 20
-735.41796875
 10
5147.92578125
 20
-725.34375
 10
5147.92578125
 20
-715.26953125
 10
5147.92578125
 20
-705.1953125
 10
5147.92578125
 20
-695.12109375
 10
5147.92578125
 20
-685.046875
 10
5147.92578125
 20
-674.97265625
 10
5147.92578125
 20
-664.8984375
 10
5147.92578125
 20
-654.82421875
 10
5147.92578125
 20
-644.75
 10
5147.92578125
 20
-634.67578125
 10
5147.92578125
 20
-624.6015625
 10
5147.92578125
 20
-614.52734375
 10
5147.92578125
 20
-604.453125
 10
5147.92578125
 20
-594.37890625
 10
5147.92578125
 20
-584.3046875
 10
5147.92578125
 20
-574.23046875
 10
5147.92578125
 20
-564.15625
 10
5147.92578125
 20
-554.08203125
 10
5147.92578125
 20
-544.0078125
 10
5147.92578125
 20
-533.93359375
 10
5147.92578125
 20
-523.859375
 10
5147.92578125
 20
-513.78515625
 10
5147.92578125
 20
-503.7109375
 10
5147.92578125
 20
-493.63671875
 10
5147.92578125
 20
-483.5625
 10
5147.92578125
 20
-473.48828125
 10
5147.92578125
 20
-463.4140625
 10
5147.92578125
 20
-453.33984375
 10
5147.92578125
 20
-443.265625
 10
5147.92578125
 20
-433.19140625
 10
5147.92578125
 20
-423.1171875
 10
5147.92578125
 20
-413.04296875
 10
5147.92578125
 20
-402.96875
 10
5147.92578125
 20
-392.89453125
 10
5147.92578125
 20
-382.8203125
 10
5147.92578125
 20
-372.74609375
 10
5147.92578125
 20
-362.671875
 10
5147.92578125
 20
-352.59765625
 10
5147.92578125
 20
-342.5234375
 10
5147.92578125
 20
-332.44921875
 10
5147.92578125
 20
-322.375
 10
5147.92578125
 20
-312.30078125
 10
5147.92578125
 20
-302.2265625
 10
5147.92578125
 20
-292.15234375
 10
5147.92578125
 20
-282.078125
 10
5147.92578125
 20
-272.00390625
 10
5147.92578125
 20
-261.9296875
 10
5147.92578125
 20
-251.85546875
 10
5147.92578125
 20
-241.78125
 10
5147.92578125
 20
-231.70703125
 10
5147.92578125
 20
-221.6328125
 10
5147.92578125
 20
-211.55859375
 10
5147.92578125
 20
-201.484375
 10
5147.92578125
 20
-191.41015625
 10
5147.92578125
 20
-181.3359375
 10
5147.92578125
 20
-171.26171875
 10
5147.92578125
 20
-161.1875
 10
5147.92578125
 20
-151.11328125
 10
5147.92578125
 20
-141.0390625
 10
5147.92578125
 20
-130.96484375
 10
5147.92578125
 20
-120.890625
 10
5147.92578125
 20
-110.81640625
 10
5147.92578125
 20
-100.7421875
 10
5147.92578125
 20
-90.66796875
 10
5147.92578125
 20
-80.59375
 10
5147.92578125
 20
-70.51953125
 10
5147.92578125
 20
-60.4453125
 10
5147.92578125
 20
-50.37109375
 10
5147.92578125
 20
-40.296875
 10
5147.92578125
 20
-30.22265625
 10
5147.92578125
 20
-20.1484375
 10
5147.92578125
 20
-10.07421875
 10
5147.92578125
 20
-0.0
 10
5137.8515625
 20
-0.0
 10
5127.77734375
 20
-0.0
 10
5117.703125
 20
-0.0
 10
5107.62890625
 20
-0.0
 10
5097.5546875
 20
-0.0
 10
5087.48046875
 20
-0.0
 10
5077.40625
 20
-0.0
 10
5067.33203125
 20
-0.0
 10
5057.2578125
 20
-0.0
 10
5047.18359375
 20
-0.0
 10
5037.109375
 20
-0.0
 10
5027.03515625
 20
-0.0
 10
5016.9609375
 20
-0.0
 10
5006.88671875
 20
-0.0
 10
4996.8125
 20
-0.0
 10
4986.73828125
 20
-0.0
 10
4976.6640625
 20
-0.0
 10
4966.58984375
 20
-0.0
 10
4956.515625
 20
-0.0
 10
4946.44140625
 20
-0.0
 10
4936.3671875
 20
-0.0
 10
4926.29296875
 20
-0.0
 10
4916.21875
 20
-0.0
 10
4906.14453125
 20
-0.0
 10
4896.0703125
 20
-0.0
 10
4885.99609375
 20
-0.0
 10
4875.921875
 20
-0.0
 10
4865.84765625
 20
-0.0
 10
4855.7734375
 20
-0.0
 10
4845.69921875
 20
-0.0
 10
4835.625
 20
-0.0
 10
4825.55078125
 20
-0.0
 10
4815.4765625
 20
-0.0
 10
4805.40234375
 20
-0.0
 10
4795.328125
 20
-0.0
 10
4785.25390625
 20
-0.0
 10
4775.1796875
 20
-0.0
 10
4765.10546875
 20
-0.0
 10
4755.03125
 20
-0.0
 10
4744.95703125
 20
-0.0
 10
4734.8828125
 20
-0.0
 10
4724.80859375
 20
-0.0
 10
4714.734375
 20
-0.0
 10
4704.66015625
 20
-0.0
 10
4694.5859375
 20
-0.0
 10
4684.51171875
 20
-0.0
 10
4674.4375
 20
-0.0
 10
4664.36328125
 20
-0.0
 10
4654.2890625
 20
-0.0
 10
4644.21484375
 20
-0.0
 10
4634.140625
 20
-0.0
 10
4624.06640625
 20
-0.0
 10
4613.9921875
 20
-0.0
 10
4603.91796875
 20
-0.0
 10
4593.84375
 20
-0.0
 10
4583.76953125
 20
-0.0
 10
4573.6953125
 20
-0.0
 10
4563.62109375
 20
-0.0
 10
4553.546875
 20
-0.0
 10
4543.47265625
 20
-0.0
 10
4533.3984375
 20
-0.0
 10
4523.32421875
 20
-0.0
 10
4513.25
 20
-0.0
 10
4503.17578125
 20
-0.0
 10
4493.1015625
 20
-0.0
 10
4483.02734375
 20
-0.0
 10
4472.953125
 20
-0.0
 10
4462.87890625
 20
-0.0
 10
4452.8046875
 20
-0.0
 10
4442.73046875
 20
-0.0
 10
4432.65625
 20
-0.0
 10
4422.58203125
 20
-0.0
 10
4412.5078125
 20
-0.0
 10
4402.43359375
 20
-0.0
 10
4392.359375
 20
-0.0
 10
4382.28515625
 20
-0.0
 10
4372.2109375
 20
-0.0
 10
4362.13671875
 20
-0.0
 10
4352.0625
 20
-0.0
 10
4341.98828125
 20
-0.0
 10
4331.9140625
 20
-0.0
 10
4321.83984375
 20
-0.0
 10
4311.765625
 20
-0.0
 10
4301.69140625
 20
-0.0
 10
4291.6171875
 20
-0.0
 10
4281.54296875
 20
-0.0
 10
4271.46875
 20
-0.0
 10
4261.39453125
 20
-0.0
 10
4251.3203125
 20
-0.0
 10
4241.24609375
 20
-0.0
 10
4231.171875
 20
-0.0
 10
4221.09765625
 20
-0.0
 10
4211.0234375
 20
-0.0
 10
4200.94921875
 20
-0.0
 10
4190.875
 20
-0.0
 10
4180.80078125
 20
-0.0
 10
4170.7265625
 20
-0.0
 10
4160.65234375
 20
-0.0
 10
4150.578125
 20
-0.0
 10
4140.50390625
 20
-0.0
 10
4130.4296875
 20
-0.0
 10
4120.35546875
 20
-0.0
 10
4110.28125
 20
-0.0
 10
4100.20703125
 20
-0.0
 10
4090.1328125
 20
-0.0
 10
4080.05859375
 20
-0.0
 10
4069.984375
 20
-0.0
 10
4059.91015625
 20
-0.0
 10
4049.8359375
 20
-0.0
 10
4039.76171875
 20
-0.0
 10
4029.6875
 20
-0.0
 10
4019.61328125
 20
-0.0
 10
4009.5390625
 20
-0.0
 10
3999.46484375
 20
-0.0
 10
3989.390625
 20
-0.0
 10
3979.31640625
 20
-0.0
 10
3969.2421875
 20
-0.0
 10
3959.16796875
 20
-0.0
 10
3949.09375
 20
-0.0
 10
3939.01953125
 20
-0.0
 10
3928.9453125
 20
-0.0
 10
3918.87109375
 20
-0.0
 10
3908.796875
 20
-0.0
 10
3898.72265625
 20
-0.0
 10
3888.6484375
 20
-0.0
 10
3878.57421875
 20
-0.0
 10
3868.5
 20
-0.0
 10
3858.42578125
 20
-0.0
 10
3848.3515625
 20
-0.0
 10
3838.27734375
 20
-0.0
 10
3828.203125
 20
-0.0
 10
3818.12890625
 20
-0.0
 10
3808.0546875
 20
-0.0
 10
3797.98046875
 20
-0.0
 10
3787.90625
 20
-0.0
 10
3777.83203125
 20
-0.0
 10
3767.7578125
 20
-0.0
 10
3757.68359375
 20
-0.0
 10
3747.609375
 20
-0.0
 10
3737.53515625
 20
-0.0
 10
3727.4609375
 20
-0.0
 10
3717.38671875
 20
-0.0
 10
3707.3125
 20
-0.0
 10
3697.23828125
 20
-0.0
 10
3687.1640625
 20
-0.0
 10
3677.08984375
 20
-0.0
 10
3667.015625
 20
-0.0
 10
3656.94140625
 20
-0.0
 10
3646.8671875
 20
-0.0
 10
3636.79296875
 20
-0.0
 10
3626.71875
 20
-0.0
 10
3616.64453125
 20
-0.0
 10
3606.5703125
 20
-0.0
 10
3596.49609375
 20
-0.0
 10
3586.421875
 20
-0.0
 10
3576.34765625
 20
-0.0
 10
3566.2734375
 20
-0.0
 10
3556.19921875
 20
-0.0
 10
3546.125
 20
-0.0
 10
3536.05078125
 20
-0.0
 10
3525.9765625
 20
-0.0
 10
3515.90234375
 20
-0.0
 10
3505.828125
 20
-0.0
 10
3495.75390625
 20
-0.0
 10
3485.6796875
 20
-0.0
 10
3475.60546875
 20
-0.0
 10
3465.53125
 20
-0.0
 10
3455.45703125
 20
-0.0
 10
3445.3828125
 20
-0.0
 10
3435.30859375
 20
-0.0
 10
3425.234375
 20
-0.0
 10
3415.16015625
 20
-0.0
 10
3405.0859375
 20
-0.0
 10
3395.01171875
 20
-0.0
 10
3384.9375
 20
-0.0
 10
3374.86328125
 20
-0.0
 10
3364.7890625
 20
-0.0
 10
3354.71484375
 20
-0.0
 10
3344.640625
 20
-0.0
 10
3334.56640625
 20
-0.0
 10
3324.4921875
 20
-0.0
 10
3314.41796875
 20
-0.0
 10
3304.34375
 20
-0.0
 10
3294.26953125
 20
-0.0
 10
3284.1953125
 20
-0.0
 10
3274.12109375
 20
-0.0
 10
3264.046875
 20
-0.0
 10
3253.97265625
 20
-0.0
 10
3243.8984375
 20
-0.0
 10
3233.82421875
 20
-0.0
 10
3223.75
 20
-0.0
 10
3213.67578125
 20
-0.0
 10
3203.6015625
 20
-0.0
 10
3193.52734375
 20
-0.0
 10
3183.453125
 20
-0.0
 10
3173.37890625
 20
-0.0
 10
3163.3046875
 20
-0.0
 10
3153.23046875
 20
-0.0
 10
3143.15625
 20
-0.0
 10
3133.08203125
 20
-0.0
 10
3123.0078125
 20
-0.0
 10
3112.93359375
 20
-0.0
 10
3102.859375
 20
-0.0
 10
3092.78515625
 20
-0.0
 10
3082.7109375
 20
-0.0
 10
3072.63671875
 20
-0.0
 10
3062.5625
 20
-0.0
 10
3052.48828125
 20
-0.0
 10
3042.4140625
 20
-0.0
 10
3032.33984375
 20
-0.0
 10
3022.265625
 20
-0.0
 10
3012.19140625
 20
-0.0
 10
3002.1171875
 20
-0.0
 10
2992.04296875
 20
-0.0
 10
2981.96875
 20
-0.0
 10
2971.89453125
 20
-0.0
 10
2961.8203125
 20
-0.0
 10
2951.74609375
 20
-0.0
 10
2941.671875
 20
-0.0
 10
2931.59765625
 20
-0.0
 10
2921.5234375
 20
-0.0
 10
2911.44921875
 20
-0.0
 10
2901.375
 20
-0.0
 10
2891.30078125
 20
-0.0
 10
2881.2265625
 20
-0.0
 10
2871.15234375
 20
-0.0
 10
2861.078125
 20
-0.0
 10
2851.00390625
 20
-0.0
 10
2840.9296875
 20
-0.0
 10
2830.85546875
 20
-0.0
 10
2820.78125
 20
-0.0
 10
2810.70703125
 20
-0.0
 10
2800.6328125
 20
-0.0
 10
2790.55859375
 20
-0.0
 10
2780.484375
 20
-0.0
 10
2770.41015625
 20
-0.0
 10
2760.3359375
 20
-0.0
 10
2750.26171875
 20
-0.0
 10
2740.1875
 20
-0.0
 10
2730.11328125
 20
-0.0
 10
2720.0390625
 20
-0.0
 10
2709.96484375
 20
-0.0
 10
2699.890625
 20
-0.0
 10
2689.81640625
 20
-0.0
 10
2679.7421875
 20
-0.0
 10
2669.66796875
 20
-0.0
 10
2659.59375
 20
-0.0
 10
2649.51953125
 20
-0.0
 10
2639.4453125
 20
-0.0
 10
2629.37109375
 20
-0.0
 10
2619.296875
 20
-0.0
 10
2609.22265625
 20
-0.0
 10
2599.1484375
 20
-0.0
 10
2589.07421875
 20
-0.0
 10
2579.0
 20
-0.0
 10
2568.92578125
 20
-0.0
 10
2558.8515625
 20
-0.0
 10
2548.77734375
 20
-0.0
 10
2538.703125
 20
-0.0
 10
2528.62890625
 20
-0.0
 10
2518.5546875
 20
-0.0
 10
2508.48046875
 20
-0.0
 10
2498.40625
 20
-0.0
 10
2488.33203125
 20
-0.0
 10
2478.2578125
 20
-0.0
 10
2468.18359375
 20
-0.0
 10
2458.109375
 20
-0.0
 10
2448.03515625
 20
-0.0
 10
2437.9609375
 20
-0.0
 10
2427.88671875
 20
-0.0
 10
2417.8125
 20
-0.0
 10
2407.73828125
 20
-0.0
 10
2397.6640625
 20
-0.0
 10
2387.58984375
 20
-0.0
 10
2377.515625
 20
-0.0
 10
2367.44140625
 20
-0.0
 10
2357.3671875
 20
-0.0
 10
2347.29296875
 20
-0.0
 10
2337.21875
 20
-0.0
 10
2327.14453125
 20
-0.0
 10
2317.0703125
 20
-0.0
 10
2306.99609375
 20
-0.0
 10
2296.921875
 20
-0.0
 10
2286.84765625
 20
-0.0
 10
2276.7734375
 20
-0.0
 10
2266.69921875
 20
-0.0
 10
2256.625
 20
-0.0
 10
2246.55078125
 20
-0.0
 10
2236.4765625
 20
-0.0
 10
2226.40234375
 20
-0.0
 10
2216.328125
 20
-0.0
 10
2206.25390625
 20
-0.0
 10
2196.1796875
 20
-0.0
 10
2186.10546875
 20
-0.0
 10
2176.03125
 20
-0.0
 10
2165.95703125
 20
-0.0
 10
2155.8828125
 20
-0.0
 10
2145.80859375
 20
-0.0
 10
2135.734375
 20
-0.0
 10
2125.66015625
 20
-0.0
 10
2115.5859375
 20
-0.0
 10
2105.51171875
 20
-0.0
 10
2095.4375
 20
-0.0
 10
2085.36328125
 20
-0.0
 10
2075.2890625
 20
-0.0
 10
2065.21484375
 20
-0.0
 10
2055.140625
 20
-0.0
 10
2045.06640625
 20
-0.0
 10
2034.9921875
 20
-0.0
 10
2024.91796875
 20
-0.0
 10
2014.84375
 20
-0.0
 10
2004.76953125
 20
-0.0
 10
1994.6953125
 20
-0.0
 10
1984.62109375
 20
-0.0
 10
1974.546875
 20
-0.0
 10
1964.47265625
 20
-0.0
 10
1954.3984375
 20
-0.0
 10
1944.32421875
 20
-0.0
 10
1934.25
 20
-0.0
 10
1924.17578125
 20
-0.0
 10
1914.1015625
 20
-0.0
 10
1904.02734375
 20
-0.0
 10
1893.953125
 20
-0.0
 10
1883.87890625
 20
-0.0
 10
1873.8046875
 20
-0.0
 10
1863.73046875
 20
-0.0
 10
1853.65625
 20
-0.0
 10
1843.58203125
 20
-0.0
 10
1833.5078125
 20
-0.0
 10
1823.43359375
 20
-0.0
 10
1813.359375
 20
-0.0
 10
1803.28515625
 20
-0.0
 10
1793.2109375
 20
-0.0
 10
1783.13671875
 20
-0.0
 10
1773.0625
 20
-0.0
 10
1762.98828125
 20
-0.0
 10
1752.9140625
 20
-0.0
 10
1742.83984375
 20
-0.0
 10
1732.765625
 20
-0.0
 10
1722.69140625
 20
-0.0
 10
1712.6171875
 20
-0.0
 10
1702.54296875
 20
-0.0
 10
1692.46875
 20
-0.0
 10
1682.39453125
 20
-0.0
 10
1672.3203125
 20
-0.0
 10
1662.24609375
 20
-0.0
 10
1652.171875
 20
-0.0
 10
1642.09765625
 20
-0.0
 10
1632.0234375
 20
-0.0
 10
1621.94921875
 20
-0.0
 10
1611.875
 20
-0.0
 10
1601.80078125
 20
-0.0
 10
1591.7265625
 20
-0.0
 10
1581.65234375
 20
-0.0
 10
1571.578125
 20
-0.0
 10
1561.50390625
 20
-0.0
 10
1551.4296875
 20
-0.0
 10
1541.35546875
 20
-0.0
 10
1531.28125
 20
-0.0
 10
1521.20703125
 20
-0.0
 10
1511.1328125
 20
-0.0
 10
1501.05859375
 20
-0.0
 10
1490.984375
 20
-0.0
 10
1480.91015625
 20
-0.0
 10
1470.8359375
 20
-0.0
 10
1460.76171875
 20
-0.0
 10
1450.6875
 20
-0.0
 10
1440.61328125
 20
-0.0
 10
1430.5390625
 20
-0.0
 10
1420.46484375
 20
-0.0
 10
1410.390625
 20
-0.0
 10
1400.31640625
 20
-0.0
 10
1390.2421875
 20
-0.0
 10
1380.16796875
 20
-0.0
 10
1370.09375
 20
-0.0
 10
1360.01953125
 20
-0.0
 10
1349.9453125
 20
-0.0
 10
1339.87109375
 20
-0.0
 10
1329.796875
 20
-0.0
 10
1319.72265625
 20
-0.0
 10
1309.6484375
 20
-0.0
 10
1299.57421875
 20
-0.0
 10
1289.5
 20
-0.0
 10
1279.42578125
 20
-0.0
 10
1269.3515625
 20
-0.0
 10
1259.27734375
 20
-0.0
 10
1249.203125
 20
-0.0
 10
1239.12890625
 20
-0.0
 10
1229.0546875
 20
-0.0
 10
1218.98046875
 20
-0.0
 10
1208.90625
 20
-0.0
 10
1198.83203125
 20
-0.0
 10
1188.7578125
 20
-0.0
 10
1178.68359375
 20
-0.0
 10
1168.609375
 20
-0.0
 10
1158.53515625
 20
-0.0
 10
1148.4609375
 20
-0.0
 10
1138.38671875
 20
-0.0
 10
1128.3125
 20
-0.0
 10
1118.23828125
 20
-0.0
 10
1108.1640625
 20
-0.0
 10
1098.08984375
 20
-0.0
 10
1088.015625
 20
-0.0
 10
1077.94140625
 20
-0.0
 10
1067.8671875
 20
-0.0
 10
1057.79296875
 20
-0.0
 10
1047.71875
 20
-0.0
 10
1037.64453125
 20
-0.0
 10
1027.5703125
 20
-0.0
 10
1017.49609375
 20
-0.0
 10
1007.421875
 20
-0.0
 10
997.34765625
 20
-0.0
 10
987.2734375
 20
-0.0
 10
977.19921875
 20
-0.0
 10
967.125
 20
-0.0
 10
957.05078125
 20
-0.0
 10
946.9765625
 20
-0.0
 10
936.90234375
 20
-0.0
 10
926.828125
 20
-0.0
 10
916.75390625
 20
-0.0
 10
906.6796875
 20
-0.0
 10
896.60546875
 20
-0.0
 10
886.53125
 20
-0.0
 10
876.45703125
 20
-0.0
 10
866.3828125
 20
-0.0
 10
856.30859375
 20
-0.0
 10
846.234375
 20
-0.0
 10
836.16015625
 20
-0.0
 10
826.0859375
 20
-0.0
 10
816.01171875
 20
-0.0
 10
805.9375
 20
-0.0
 10
795.86328125
 20
-0.0
 10
785.7890625
 20
-0.0
 10
775.71484375
 20
-0.0
 10
765.640625
 20
-0.0
 10
755.56640625
 20
-0.0
 10
745.4921875
 20
-0.0
 10
735.41796875
 20
-0.0
 10
725.34375
 20
-0.0
 10
715.26953125
 20
-0.0
 10
705.1953125
 20
-0.0
 10
695.12109375
 20
-0.0
 10
685.046875
 20
-0.0
 10
674.97265625
 20
-0.0
 10
664.8984375
 20
-0.0
 10
654.82421875
 20
-0.0
 10
644.75
 20
-0.0
 10
634.67578125
 20
-0.0
 10
624.6015625
 20
-0.0
 10
614.52734375
 20
-0.0
 10
604.453125
 20
-0.0
 10
594.37890625
 20
-0.0
 10
584.3046875
 20
-0.0
 10
574.23046875
 20
-0.0
 10
564.15625
 20
-0.0
 10
554.08203125
 20
-0.0
 10
544.0078125
 20
-0.0
 10
533.93359375
 20
-0.0
 10
523.859375
 20
-0.0
 10
513.78515625
 20
-0.0
 10
503.7109375
 20
-0.0
 10
493.63671875
 20
-0.0
 10
483.5625
 20
-0.0
 10
473.48828125
 20
-0.0
 10
463.4140625
 20
-0.0
 10
453.33984375
 20
-0.0
 10
443.265625
 20
-0.0
 10
433.19140625
 20
-0.0
 10
423.1171875
 20
-0.0
 10
413.04296875
 20
-0.0
 10
402.96875
 20
-0.0
 10
392.89453125
 20
-0.0
 10
382.8203125
 20
-0.0
 10
372.74609375
 20
-0.0
 10
362.671875
 20
-0.0
 10
352.59765625
 20
-0.0
 10
342.5234375
 20
-0.0
 10
332.44921875
 20
-0.0
 10
322.375
 20
-0.0
 10
312.30078125
 20
-0.0
 10
302.2265625
 20
-0.0
 10
292.15234375
 20
-0.0
 10
282.078125
 20
-0.0
 10
272.00390625
 20
-0.0
 10
261.9296875
 20
-0.0
 10
251.85546875
 20
-0.0
 10
241.78125
 20
-0.0
 10
231.70703125
 20
-0.0
 10
221.6328125
 20
-0.0
 10
211.55859375
 20
-0.0
 10
201.484375
 20
-0.0
 10
191.41015625
 20
-0.0
 10
181.3359375
 20
-0.0
 10
171.26171875
 20
-0.0
 10
161.1875
 20
-0.0
 10
151.11328125
 20
-0.0
 10
141.0390625
 20
-0.0
 10
130.96484375
 20
-0.0
 10
120.890625
 20
-0.0
 10
110.81640625
 20
-0.0
 10
100.7421875
 20
-0.0
 10
90.66796875
 20
-0.0
 10
80.59375
 20
-0.0
 10
70.51953125
 20
-0.0
 10
60.4453125
 20
-0.0
 10
50.37109375
 20
-0.0
 10
40.296875
 20
-0.0
 10
30.22265625
 20
-0.0
 10
20.1484375
 20
-0.0
 10
10.07421875
 20
-0.0
  0
LWPOLYLINE
  5
37
330
17
100
AcDbEntity
  8
substrate
100
AcDbPolyline
 90
4
 70
1
 43
0.5
 10
4744.95703125
 20
-5016.9609375
 10
4755.03125
 20
-5006.88671875
 10
4765.10546875
 20
-5016.9609375
 10
4755.03125
 20
-5027.03515625
  0
LWPOLYLINE
  5
38
330
17
100
AcDbEntity
  8
substrate
100
AcDbPolyline
 90
4
 70
1
 43
0.5
 10
2931.59765625
 20
-5016.9609375
 10
2941.671875
 20
-5006.88671875
 10
2951.74609375
 20
-5016.9609375
 10
2941.671875
 20
-5027.03515625
  0
LWPOLYLINE
  5
39
330
17
100
AcDbEntity
  8
substrate
100
AcDbPolyline
 90
4
 70
1
 43
0.5
 10
2286.84765625
 20
-5016.9609375
 10
2296.921875
 20
-5006.88671875
 10
2306.99609375
 20
-5016.9609375
 10
2296.921875
 20
-5027.03515625
  0
LWPOLYLINE
  5
3A
330
17
100
AcDbEntity
  8
substrate
100
AcDbPolyline
 90
4
 70
1
 43
0.5
 10
2931.59765625
 20
-4986.73828125
 10
2941.671875
 20
-4976.6640625
 10
2951.74609375
 20
-4986.73828125
 10
2941.671875
 20
-4996.8125
  0
LWPOLYLINE
  5
3B
330
17
100
AcDbEntity
  8
substrate
100
AcDbPolyline
 90
4
 70
1
 43
0.5
 10
2286.84765625
 20
-4986.73828125
 10
2296.921875
 20
-4976.6640625
 10
2306.99609375
 20
-4986.73828125
 10
2296.921875
 20
-4996.8125
  0
LWPOLYLINE
  5
3C
330
17
100
AcDbEntity
  8
substrate
100
AcDbPolyline
 90
4
 70
1
 43
0.5
 10
2931.59765625
 20
-4503.17578125
 10
2941.671875
 20
-4493.1015625
 10
2951.74609375
 20
-4503.17578125
 10
2941.671875
 20
-4513.25
  0
LWPOLYLINE
  5
3D
330
17
100
AcDbEntity
  8
substrate
100
AcDbPolyline
 90
4
 70
1
 43
0.5
 10
231.70703125
 20
-4271.46875
 10
241.78125
 20
-4261.39453125
 10
251.85546875
 20
-4271.46875
 10
241.78125
 20
-4281.54296875
  0
LWPOLYLINE
  5
3E
330
17
100
AcDbEntity
  8
substrate
100
AcDbPolyline
 90
6
 70
1
 43
0.5
 10
5027.03515625
 20
-4190.875
 10
5037.109375
 20
-4180.80078125
 10
5047.18359375
 20
-4180.80078125
 10
5057.2578125
 20
-4190.875
 10
5047.18359375
 20
-4200.94921875
 10
5037.109375
 20
-4200.94921875
  0
LWPOLYLINE
  5
3F
330
17
100
AcDbEntity
  8
substrate
100
AcDbPolyline
 90
4
 70
1
 43
0.5
 10
5037.109375
 20
-3546.125
 10
5047.18359375
 20
-3536.05078125
 10
5057.2578125
 20
-3546.125
 10
5047.18359375
 20
-3556.19921875
  0
LWPOLYLINE
  5
40
330
17
100
AcDbEntity
  8
substrate
100
AcDbPolyline
 90
4
 70
1
 43
0.5
 10
231.70703125
 20
-3082.7109375
 10
241.78125
 20
-3072.63671875
 10
251.85546875
 20
-3082.7109375
 10
241.78125
 20
-3092.78515625
  0
LWPOLYLINE
  5
41
330
17
100
AcDbEntity
  8
substrate
100
AcDbPolyline
 90
4
 70
1
 43
0.5
 10
5037.109375
 20
-2901.375
 10
5047.18359375
 20
-2891.30078125
 10
5057.2578125
 20
-2901.375
 10
5047.18359375
 20
-2911.44921875
  0
LWPOLYLINE
  5
42
330
17
100
AcDbEntity
  8
substrate
100
AcDbPolyline
 90
182
 70
1
 43
0.5
 10
2488.33203125
 20
-2266.69921875
 10
2498.40625
 20
-2256.625
 10
2508.48046875
 20
-2256.625
 10
2518.5546875
 20
-2266.69921875
 10
2528.62890625
 20
-2256.625
 10
2538.703125
 20
-2256.625
 10
2548.77734375
 20
-2256.625
 10
2558.8515625
 20
-2256.625
 10
2568.92578125
 20
-2256.625
 10
2579.0
 20
-2256.625
 10
2589.07421875
 20
-2256.625
 10
2599.1484375
 20
-2256.625
 10
2609.22265625
 20
-2256.625
 10
2619.296875
 20
-2266.69921875
 10
2629.37109375
 20
-2266.69921875
 10
2639.4453125
 20
-2266.69921875
 10
2649.51953125
 20
-2266.69921875
 10
2659.59375
 20
-2276.7734375
 10
2669.66796875
 20
-2276.7734375
 10
2679.7421875
 20
-2276.7734375
 10
2689.81640625
 20
-2276.7734375
 10
2699.890625
 20
-2286.84765625
 10
2709.96484375
 20
-2286.84765625
 10
2720.0390625
 20
-2286.84765625
 10
2730.11328125
 20
-2296.921875
 10
2740.1875
 20
-2306.99609375
 10
2750.26171875
 20
-2317.0703125
 10
2760.3359375
 20
-2327.14453125
 10
2770.41015625
 20
-2327.14453125
 10
2780.484375
 20
-2337.21875
 10
2780.484375
 20
-2347.29296875
 10
2790.55859375
 20
-2357.3671875
 10
2800.6328125
 20
-2357.3671875
 10
2810.70703125
 20
-2367.44140625
 10
2810.70703125
 20
-2377.515625
 10
2820.78125
 20
-2387.58984375
 10
2830.85546875
 20
-2397.6640625
 10
2840.9296875
 20
-2407.73828125
 10
2851.00390625
 20
-2417.8125
 10
2851.00390625
 20
-2427.88671875
 10
2851.00390625
 20
-2437.9609375
 10
2861.078125
 20
-2448.03515625
 10
2871.15234375
 20
-2458.109375
 10
2871.15234375
 20
-2468.18359375
 10
2881.2265625
 20
-2478.2578125
 10
2881.2265625
 20
-2488.33203125
 10
2881.2265625
 20
-2498.40625
 10
2891.30078125
 20
-2508.48046875
 10
2891.30078125
 20
-2518.5546875
 10
2891.30078125
 20
-2528.62890625
 10
2891.30078125
 20
-2538.703125
 10
2891.30078125
 20
-2548.77734375
 10
2891.30078125
 20
-2558.8515625
 10
2891.30078125
 20
-2568.92578125
 10
2891.30078125
 20
-2579.0
 10
2891.30078125
 20
-2589.07421875
 10
2891.30078125
 20
-2599.1484375
 10
2891.30078125
 20
-2609.22265625
 10
2891.30078125
 20
-2619.296875
 10
2891.30078125
 20
-2629.37109375
 10
2891.30078125
 20
-2639.4453125
 10
2891.30078125
 20
-2649.51953125
 10
2891.30078125
 20
-2659.59375
 10
2881.2265625
 20
-2669.66796875
 10
2871.15234375
 20
-2679.7421875
 10
2871.15234375
 20
-2689.81640625
 10
2871.15234375
 20
-2699.890625
 10
2861.078125
 20
-2709.96484375
 10
2861.078125
 20
-2720.0390625
 10
2851.00390625
 20
-2730.11328125
 10
2851.00390625
 20
-2740.1875
 10
2851.00390625
 20
-2750.26171875
 10
2840.9296875
 20
-2760.3359375
 10
2830.85546875
 20
-2770.41015625
 10
2830.85546875
 20
-2780.484375
 10
2820.78125
 20
-2790.55859375
 10
2810.70703125
 20
-2800.6328125
 10
2800.6328125
 20
-2810.70703125
 10
2790.55859375
 20
-2820.78125
 10
2780.484375
 20
-2820.78125
 10
2770.41015625
 20
-2830.85546875
 10
2760.3359375
 20
-2840.9296875
 10
2750.26171875
 20
-2840.9296875
 10
2740.1875
 20
-2851.00390625
 10
2730.11328125
 20
-2851.00390625
 10
2720.0390625
 20
-2861.078125
 10
2709.96484375
 20
-2871.15234375
 10
2699.890625
 20
-2871.15234375
 10
2689.81640625
 20
-2881.2265625
 10
2679.7421875
 20
-2881.2265625
 10
2669.66796875
 20
-2881.2265625
 10
2659.59375
 20
-2891.30078125
 10
2649.51953125
 20
-2891.30078125
 10
2639.4453125
 20
-2891.30078125
 10
2629.37109375
 20
-2891.30078125
 10
2619.296875
 20
-2901.375
 10
2609.22265625
 20
-2901.375
 10
2599.1484375
 20
-2891.30078125
 10
2589.07421875
 20
-2901.375
 10
2579.0
 20
-2901.375
 10
2568.92578125
 20
-2891.30078125
 10
2558.8515625
 20
-2891.30078125
 10
2548.77734375
 20
-2891.30078125
 10
2538.703125
 20
-2891.30078125
 10
2528.62890625
 20
-2891.30078125
 10
2518.5546875
 20
-2891.30078125
 10
2508.48046875
 20
-2881.2265625
 10
2498.40625
 20
-2881.2265625
 10
2488.33203125
 20
-2881.2265625
 10
2478.2578125
 20
-2881.2265625
 10
2468.18359375
 20
-2871.15234375
 10
2458.109375
 20
-2871.15234375
 10
2448.03515625
 20
-2871.15234375
 10
2437.9609375
 20
-2861.078125
 10
2427.88671875
 20
-2861.078125
 10
2417.8125
 20
-2851.00390625
 10
2407.73828125
 20
-2840.9296875
 10
2397.6640625
 20
-2840.9296875
 10
2387.58984375
 20
-2830.85546875
 10
2377.515625
 20
-2830.85546875
 10
2367.44140625
 20
-2820.78125
 10
2367.44140625
 20
-2810.70703125
 10
2357.3671875
 20
-2800.6328125
 10
2347.29296875
 20
-2790.55859375
 10
2337.21875
 20
-2790.55859375
 10
2327.14453125
 20
-2780.484375
 10
2327.14453125
 20
-2770.41015625
 10
2317.0703125
 20
-2760.3359375
 10
2306.99609375
 20
-2750.26171875
 10
2306.99609375
 20
-2740.1875
 10
2296.921875
 20
-2730.11328125
 10
2296.921875
 20
-2720.0390625
 10
2286.84765625
 20
-2709.96484375
 10
2286.84765625
 20
-2699.890625
 10
2276.7734375
 20
-2689.81640625
 10
2276.7734375
 20
-2679.7421875
 10
2266.69921875
 20
-2669.66796875
 10
2266.69921875
 20
-2659.59375
 10
2256.625
 20
-2649.51953125
 10
2256.625
 20
-2639.4453125
 10
2256.625
 20
-2629.37109375
 10
2256.625
 20
-2619.296875
 10
2246.55078125
 20
-2609.22265625
 10
2246.55078125
 20
-2599.1484375
 10
2246.55078125
 20
-2589.07421875
 10
2246.55078125
 20
-2579.0
 10
2256.625
 20
-2568.92578125
 10
2256.625
 20
-2558.8515625
 10
2256.625
 20
-2548.77734375
 10
2256.625
 20
-2538.703125
 10
2256.625
 20
-2528.62890625
 10
2266.69921875
 20
-2518.5546875
 10
2266.69921875
 20
-2508.48046875
 10
2266.69921875
 20
-2498.40625
 10
2266.69921875
 20
-2488.33203125
 10
2266.69921875
 20
-2478.2578125
 10
2276.7734375
 20
-2468.18359375
 10
2276.7734375
 20
-2458.109375
 10
2286.84765625
 20
-2448.03515625
 10
2286.84765625
 20
-2437.9609375
 10
2296.921875
 20
-2427.88671875
 10
2296.921875
 20
-2417.8125
 10
2306.99609375
 20
-2407.73828125
 10
2317.0703125
 20
-2397.6640625
 10
2327.14453125
 20
-2387.58984375
 10
2327.14453125
 20
-2377.515625
 10
2337.21875
 20
-2367.44140625
 10
2347.29296875
 20
-2357.3671875
 10
2357.3671875
 20
-2347.29296875
 10
2367.44140625
 20
-2337.21875
 10
2377.515625
 20
-2337.21875
 10
2377.515625
 20
-2327.14453125
 10
2387.58984375
 20
-2317.0703125
 10
2397.6640625
 20
-2317.0703125
 10
2407.73828125
 20
-2306.99609375
 10
2417.8125
 20
-2296.921875
 10
2427.88671875
 20
-2296.921875
 10
2437.9609375
 20
-2286.84765625
 10
2448.03515625
 20
-2286.84765625
 10
2458.109375
 20
-2276.7734375
 10
2468.18359375
 20
-2276.7734375
 10
2478.2578125
 20
-2266.69921875
  0
LWPOLYLINE
  5
43
330
17
100
AcDbEntity
  8
substrate
100
AcDbPolyline
 90
4
 70
1
 43
0.5
 10
5037.109375
 20
-2256.625
 10
5047.18359375
 20
-2246.55078125
 10
5057.2578125
 20
-2256.625
 10
5047.18359375
 20
-2266.69921875
  0
LWPOLYLINE
  5
44
330
17
100
AcDbEntity
  8
substrate
100
AcDbPolyline
 90
4
 70
1
 43
0.5
 10
3213.67578125
 20
-1853.65625
 10
3223.75
 20
-1843.58203125
 10
3233.82421875
 20
-1853.65625
 10
3223.75
 20
-1863.73046875
  0
LWPOLYLINE
  5
45
330
17
100
AcDbEntity
  8
substrate
100
AcDbPolyline
 90
11
 70
1
 43
0.5
 10
221.6328125
 20
-1793.2109375
 10
231.70703125
 20
-1783.13671875
 10
241.78125
 20
-1783.13671875
 10
251.85546875
 20
-1793.2109375
 10
251.85546875
 20
-1803.28515625
 10
251.85546875
 20
-1813.359375
 10
251.85546875
 20
-1823.43359375
 10
241.78125
 20
-1833.5078125
 10
231.70703125
 20
-1823.43359375
 10
231.70703125
 20
-1813.359375
 10
221.6328125
 20
-1803.28515625
  0
LWPOLYLINE
  5
46
330
17
100
AcDbEntity
  8
substrate
100
AcDbPolyline
 90
6
 70
1
 43
0.5
 10
3717.38671875
 20
-1732.765625
 10
3727.4609375
 20
-1722.69140625
 10
3737.53515625
 20
-1732.765625
 10
3737.53515625
 20
-1742.83984375
 10
3727.4609375
 20
-1752.9140625
 10
3717.38671875
 20
-1742.83984375
  0
LWPOLYLINE
  5
47
330
17
100
AcDbEntity
  8
substrate
100
AcDbPolyline
 90
4
 70
1
 43
0.5
 10
5037.109375
 20
-1611.875
 10
5047.18359375
 20
-1601.80078125
 10
5057.2578125
 20
-1611.875
 10
5047.18359375
 20
-1621.94921875
  0
LWPOLYLINE
  5
48
330
17
100
AcDbEntity
  8
substrate
100
AcDbPolyline
 90
4
 70
1
 43
0.5
 10
2286.84765625
 20
-1521.20703125
 10
2296.921875
 20
-1511.1328125
 10
2306.99609375
 20
-1521.20703125
 10
2296.921875
 20
-1531.28125
  0
LWPOLYLINE
  5
49
330
17
100
AcDbEntity
  8
substrate
100
AcDbPolyline
 90
4
 70
1
 43
0.5
 10
5037.109375
 20
-967.125
 10
5047.18359375
 20
-957.05078125
 10
5057.2578125
 20
-967.125
 10
5047.18359375
 20
-977.19921875
  0
ENDSEC
  0
SECTION
  2
OBJECTS
  0
DICTIONARY
  5
A
330
0
100
AcDbDictionary
280
0
281
1
  3
ACAD_COLOR
350
B
  3
ACAD_GROUP
350
C
  3
ACAD_LAYOUT
350
D
  3
ACAD_MATERIAL
350
E
  3
ACAD_MLEADERSTYLE
350
F
  3
ACAD_MLINESTYLE
350
10
  3
ACAD_PLOTSETTINGS
350
11
  3
ACAD_PLOTSTYLENAME
350
12
  3
ACAD_SCALELIST
350
14
  3
ACAD_TABLESTYLE
350
15
  3
ACAD_VISUALSTYLE
350
16
  3
EZDXF_META
350
2D
  0
DICTIONARY
  5
B
330
A
100
AcDbDictionary
280
0
281
1
  0
DICTIONARY
  5
C
330
A
100
AcDbDictionary
280
0
281
1
  0
DICTIONARY
  5
D
330
A
100
AcDbDictionary
280
0
281
1
  3
Model
350
1A
  3
Layout1
350
1E
  0
DICTIONARY
  5
E
330
A
100
AcDbDictionary
280
0
281
1
  3
ByBlock
350
1F
  3
ByLayer
350
20
  3
Global
350
21
  0
DICTIONARY
  5
F
330
A
100
AcDbDictionary
280
0
281
1
  3
Standard
350
2C
  0
DICTIONARY
  5
10
330
A
100
AcDbDictionary
280
0
281
1
  3
Standard
350
22
  0
DICTIONARY
  5
11
330
A
100
AcDbDictionary
280
0
281
1
  0
ACDBDICTIONARYWDFLT
  5
12
330
A
100
AcDbDictionary
280
0
281
1
  3
Normal
350
13
100
AcDbDictionaryWithDefault
340
13
  0
ACDBPLACEHOLDER
  5
13
330
12
  0
DICTIONARY
  5
14
330
A
100
AcDbDictionary
280
0
281
1
  0
DICTIONARY
  5
15
330
A
100
AcDbDictionary
280
0
281
1
  0
DICTIONARY
  5
16
330
A
100
AcDbDictionary
280
0
281
1
  0
LAYOUT
  5
1A
330
D
100
AcDbPlotSettings
  1

  2
Adobe PDF
  4
A3
  6

 40
7.5
 41
20.0
 42
7.5
 43
20.0
 44
420.0
 45
297.0
 46
0.0
 47
0.0
 48
0.0
 49
0.0
140
0.0
141
0.0
142
1.0
143
1.0
 70
1024
 72
1
 73
0
 74
5
  7

 75
16
 76
0
 77
2
 78
300
147
1.0
148
0.0
149
0.0
100
AcDbLayout
  1
Model
 70
1
 71
0
 10
0.0
 20
0.0
 11
420.0
 21
297.0
 12
0.0
 22
0.0
 32
0.0
 14
1e+20
 24
1e+20
 34
1e+20
 15
-1e+20
 25
-1e+20
 35
-1e+20
146
0.0
 13
0.0
 23
0.0
 33
0.0
 16
1.0
 26
0.0
 36
0.0
 17
0.0
 27
1.0
 37
0.0
 76
1
330
17
  0
LAYOUT
  5
1E
330
D
100
AcDbPlotSettings
  1

  2
Adobe PDF
  4
A3
  6

 40
7.5
 41
20.0
 42
7.5
 43
20.0
 44
420.0
 45
297.0
 46
0.0
 47
0.0
 48
0.0
 49
0.0
140
0.0
141
0.0
142
1.0
143
1.0
 70
0
 72
1
 73
0
 74
5
  7

 75
16
 76
0
 77
2
 78
300
147
1.0
148
0.0
149
0.0
100
AcDbLayout
  1
Layout1
 70
1
 71
1
 10
0.0
 20
0.0
 11
420.0
 21
297.0
 12
0.0
 22
0.0
 32
0.0
 14
1e+20
 24
1e+20
 34
1e+20
 15
-1e+20
 25
-1e+20
 35
-1e+20
146
0.0
 13
0.0
 23
0.0
 33
0.0
 16
1.0
 26
0.0
 36
0.0
 17
0.0
 27
1.0
 37
0.0
 76
1
330
1B
  0
MATERIAL
  5
1F
102
{ACAD_REACTORS
330
E
102
}
330
E
100
AcDbMaterial
  1
ByBlock
  2

 70
0
 40
1.0
 71
1
 41
1.0
 91
-1023410177
 42
1.0
 72
1
  3

 73
1
 74
1
 75
1
 44
0.5
 73
0
 45
1.0
 46
1.0
 77
1
  4

 78
1
 79
1
170
1
 48
1.0
171
1
  6

172
1
173
1
174
1
140
1.0
141
1.0
175
1
  7

176
1
177
1
178
1
143
1.0
179
1
  8

270
1
271
1
272
1
145
1.0
146
1.0
273
1
  9

274
1
275
1
276
1
 42
1.0
 72
1
  3

 73
1
 74
1
 75
1
 94
63
  0
MATERIAL
  5
20
102
{ACAD_REACTORS
330
E
102
}
330
E
100
AcDbMaterial
  1
ByLayer
  2

 70
0
 40
1.0
 71
1
 41
1.0
 91
-1023410177
 42
1.0
 72
1
  3

 73
1
 74
1
 75
1
 44
0.5
 73
0
 45
1.0
 46
1.0
 77
1
  4

 78
1
 79
1
170
1
 48
1.0
171
1
  6

172
1
173
1
174
1
140
1.0
141
1.0
175
1
  7

176
1
177
1
178
1
143
1.0
179
1
  8

270
1
271
1
272
1
145
1.0
146
1.0
273
1
  9

274
1
275
1
276
1
 42
1.0
 72
1
  3

 73
1
 74
1
 75
1
 94
63
  0
MATERIAL
  5
21
102
{ACAD_REACTORS
330
E
102
}
330
E
100
AcDbMaterial
  1
Global
  2

 70
0
 40
1.0
 71
1
 41
1.0
 91
-1023410177
 42
1.0
 72
1
  3

 73
1
 74
1
 75
1
 44
0.5
 73
0
 45
1.0
 46
1.0
 77
1
  4

 78
1
 79
1
170
1
 48
1.0
171
1
  6

172
1
173
1
174
1
140
1.0
141
1.0
175
1
  7

176
1
177
1
178
1
143
1.0
179
1
  8

270
1
271
1
272
1
145
1.0
146
1.0
273
1
  9

274
1
275
1
276
1
 42
1.0
 72
1
  3

 73
1
 74
1
 75
1
 94
63
  0
MLINESTYLE
  5
22
102
{ACAD_REACTORS
330
10
102
}
330
10
100
AcDbMlineStyle
  2
Standard
 70
0
  3

 62
256
 51
90.0
 52
90.0
 71
2
 49
0.5
 62
256
  6
BYLAYER
 49
-0.5
 62
256
  6
BYLAYER
  0
MLEADERSTYLE
  5
2C
102
{ACAD_REACTORS
330
F
102
}
330
F
100
AcDbMLeaderStyle
179
2
170
2
171
1
172
0
 90
2
 40
0.0
 41
0.0
173
1
 91
-1056964608
 92
-2
290
1
 42
2.0
291
1
 43
8.0
  3
Standard
 44
4.0
300

342
29
174
1
175
1
176
0
178
1
 93
-1056964608
 45
4.0
292
0
297
0
 46
4.0
 94
-1056964608
 47
1.0
 49
1.0
140
1.0
294
1
141
0.0
177
0
142
1.0
295
0
296
0
143
3.75
271
0
272
9
273
9
  0
DICTIONARY
  5
2D
330
A
100
AcDbDictionary
281
1
  3
CREATED_BY_EZDXF
350
2E
  3
WRITTEN_BY_EZDXF
350
4C
  0
DICTIONARYVAR
  5
2E
330
2D
100
DictionaryVariables
280
0
  1
1.1.0 @ 2025-02-03T01:23:51.884408+00:00
  0
DICTIONARYVAR
  5
4C
330
2D
100
DictionaryVariables
280
0
  1
1.1.0 @ 2025-02-03T01:23:51.889583+00:00
  0
ENDSEC
  0
EOF
