  0
SECTION
  2
HEADER
  9
$ACADVER
  1
AC1027
  9
$ACADMAINTVER
 70
105
  9
$DWGCODEPAGE
  3
ANSI_1252
  9
$LASTSAVEDBY
  1
ezdxf
  9
$REQUIREDVERSIONS
160
0
  9
$INSBASE
 10
0.0
 20
0.0
 30
0.0
  9
$EXTMIN
 10
1e+20
 20
1e+20
 30
1e+20
  9
$EXTMAX
 10
-1e+20
 20
-1e+20
 30
-1e+20
  9
$LIMMIN
 10
0.0
 20
0.0
  9
$LIMMAX
 10
420.0
 20
297.0
  9
$ORTHOMODE
 70
0
  9
$REGENMODE
 70
1
  9
$FILLMODE
 70
1
  9
$QTEXTMODE
 70
0
  9
$MIRRTEXT
 70
1
  9
$LTSCALE
 40
1.0
  9
$ATTMODE
 70
1
  9
$TEXTSIZE
 40
2.5
  9
$TRACEWID
 40
1.0
  9
$TEXTSTYLE
  7
Standard
  9
$CLAYER
  8
0
  9
$CELTYPE
  6
ByLayer
  9
$CECOLOR
 62
256
  9
$CELTSCALE
 40
1.0
  9
$DISPSILH
 70
0
  9
$DIMSCALE
 40
1.0
  9
$DIMASZ
 40
2.5
  9
$DIMEXO
 40
0.625
  9
$DIMDLI
 40
3.75
  9
$DIMRND
 40
0.0
  9
$DIMDLE
 40
0.0
  9
$DIMEXE
 40
1.25
  9
$DIMTP
 40
0.0
  9
$DIMTM
 40
0.0
  9
$DIMTXT
 40
2.5
  9
$DIMCEN
 40
2.5
  9
$DIMTSZ
 40
0.0
  9
$DIMTOL
 70
0
  9
$DIMLIM
 70
0
  9
$DIMTIH
 70
0
  9
$DIMTOH
 70
0
  9
$DIMSE1
 70
0
  9
$DIMSE2
 70
0
  9
$DIMTAD
 70
1
  9
$DIMZIN
 70
8
  9
$DIMBLK
  1

  9
$DIMASO
 70
1
  9
$DIMSHO
 70
1
  9
$DIMPOST
  1

  9
$DIMAPOST
  1

  9
$DIMALT
 70
0
  9
$DIMALTD
 70
3
  9
$DIMALTF
 40
0.03937007874
  9
$DIMLFAC
 40
1.0
  9
$DIMTOFL
 70
1
  9
$DIMTVP
 40
0.0
  9
$DIMTIX
 70
0
  9
$DIMSOXD
 70
0
  9
$DIMSAH
 70
0
  9
$DIMBLK1
  1

  9
$DIMBLK2
  1

  9
$DIMSTYLE
  2
ISO-25
  9
$DIMCLRD
 70
0
  9
$DIMCLRE
 70
0
  9
$DIMCLRT
 70
0
  9
$DIMTFAC
 40
1.0
  9
$DIMGAP
 40
0.625
  9
$DIMJUST
 70
0
  9
$DIMSD1
 70
0
  9
$DIMSD2
 70
0
  9
$DIMTOLJ
 70
0
  9
$DIMTZIN
 70
8
  9
$DIMALTZ
 70
0
  9
$DIMALTTZ
 70
0
  9
$DIMUPT
 70
0
  9
$DIMDEC
 70
2
  9
$DIMTDEC
 70
2
  9
$DIMALTU
 70
2
  9
$DIMALTTD
 70
3
  9
$DIMTXSTY
  7
Standard
  9
$DIMAUNIT
 70
0
  9
$DIMADEC
 70
0
  9
$DIMALTRND
 40
0.0
  9
$DIMAZIN
 70
0
  9
$DIMDSEP
 70
44
  9
$DIMATFIT
 70
3
  9
$DIMFRAC
 70
0
  9
$DIMLDRBLK
  1

  9
$DIMLUNIT
 70
2
  9
$DIMLWD
 70
-2
  9
$DIMLWE
 70
-2
  9
$DIMTMOVE
 70
0
  9
$DIMFXL
 40
1.0
  9
$DIMFXLON
 70
0
  9
$DIMJOGANG
 40
0.785398163397
  9
$DIMTFILL
 70
0
  9
$DIMTFILLCLR
 70
0
  9
$DIMARCSYM
 70
0
  9
$DIMLTYPE
  6

  9
$DIMLTEX1
  6

  9
$DIMLTEX2
  6

  9
$DIMTXTDIRECTION
 70
0
  9
$LUNITS
 70
2
  9
$LUPREC
 70
4
  9
$SKETCHINC
 40
1.0
  9
$FILLETRAD
 40
10.0
  9
$AUNITS
 70
0
  9
$AUPREC
 70
2
  9
$MENU
  1
.
  9
$ELEVATION
 40
0.0
  9
$PELEVATION
 40
0.0
  9
$THICKNESS
 40
0.0
  9
$LIMCHECK
 70
0
  9
$CHAMFERA
 40
0.0
  9
$CHAMFERB
 40
0.0
  9
$CHAMFERC
 40
0.0
  9
$CHAMFERD
 40
0.0
  9
$SKPOLY
 70
0
  9
$TDCREATE
 40
2460743.4283912037
  9
$TDUCREATE
 40
2458532.153996898
  9
$TDUPDATE
 40
2460743.4283912037
  9
$TDUUPDATE
 40
2458532.1544311
  9
$TDINDWG
 40
0.0
  9
$TDUSRTIMER
 40
0.0
  9
$USRTIMER
 70
1
  9
$ANGBASE
 50
0.0
  9
$ANGDIR
 70
0
  9
$PDMODE
 70
0
  9
$PDSIZE
 40
0.0
  9
$PLINEWID
 40
0.0
  9
$SPLFRAME
 70
0
  9
$SPLINETYPE
 70
6
  9
$SPLINESEGS
 70
8
  9
$HANDSEED
  5
3E
  9
$SURFTAB1
 70
6
  9
$SURFTAB2
 70
6
  9
$SURFTYPE
 70
6
  9
$SURFU
 70
6
  9
$SURFV
 70
6
  9
$UCSBASE
  2

  9
$UCSNAME
  2

  9
$UCSORG
 10
0.0
 20
0.0
 30
0.0
  9
$UCSXDIR
 10
1.0
 20
0.0
 30
0.0
  9
$UCSYDIR
 10
0.0
 20
1.0
 30
0.0
  9
$UCSORTHOREF
  2

  9
$UCSORTHOVIEW
 70
0
  9
$UCSORGTOP
 10
0.0
 20
0.0
 30
0.0
  9
$UCSORGBOTTOM
 10
0.0
 20
0.0
 30
0.0
  9
$UCSORGLEFT
 10
0.0
 20
0.0
 30
0.0
  9
$UCSORGRIGHT
 10
0.0
 20
0.0
 30
0.0
  9
$UCSORGFRONT
 10
0.0
 20
0.0
 30
0.0
  9
$UCSORGBACK
 10
0.0
 20
0.0
 30
0.0
  9
$PUCSBASE
  2

  9
$PUCSNAME
  2

  9
$PUCSORG
 10
0.0
 20
0.0
 30
0.0
  9
$PUCSXDIR
 10
1.0
 20
0.0
 30
0.0
  9
$PUCSYDIR
 10
0.0
 20
1.0
 30
0.0
  9
$PUCSORTHOREF
  2

  9
$PUCSORTHOVIEW
 70
0
  9
$PUCSORGTOP
 10
0.0
 20
0.0
 30
0.0
  9
$PUCSORGBOTTOM
 10
0.0
 20
0.0
 30
0.0
  9
$PUCSORGLEFT
 10
0.0
 20
0.0
 30
0.0
  9
$PUCSORGRIGHT
 10
0.0
 20
0.0
 30
0.0
  9
$PUCSORGFRONT
 10
0.0
 20
0.0
 30
0.0
  9
$PUCSORGBACK
 10
0.0
 20
0.0
 30
0.0
  9
$USERI1
 70
0
  9
$USERI2
 70
0
  9
$USERI3
 70
0
  9
$USERI4
 70
0
  9
$USERI5
 70
0
  9
$USERR1
 40
0.0
  9
$USERR2
 40
0.0
  9
$USERR3
 40
0.0
  9
$USERR4
 40
0.0
  9
$USERR5
 40
0.0
  9
$WORLDVIEW
 70
1
  9
$SHADEDGE
 70
3
  9
$SHADEDIF
 70
70
  9
$TILEMODE
 70
1
  9
$MAXACTVP
 70
64
  9
$PINSBASE
 10
0.0
 20
0.0
 30
0.0
  9
$PLIMCHECK
 70
0
  9
$PEXTMIN
 10
1e+20
 20
1e+20
 30
1e+20
  9
$PEXTMAX
 10
-1e+20
 20
-1e+20
 30
-1e+20
  9
$PLIMMIN
 10
0.0
 20
0.0
  9
$PLIMMAX
 10
420.0
 20
297.0
  9
$UNITMODE
 70
0
  9
$VISRETAIN
 70
1
  9
$PLINEGEN
 70
0
  9
$PSLTSCALE
 70
1
  9
$TREEDEPTH
 70
3020
  9
$CMLSTYLE
  2
Standard
  9
$CMLJUST
 70
0
  9
$CMLSCALE
 40
20.0
  9
$PROXYGRAPHICS
 70
1
  9
$MEASUREMENT
 70
1
  9
$CELWEIGHT
370
-1
  9
$ENDCAPS
280
0
  9
$JOINSTYLE
280
0
  9
$LWDISPLAY
290
0
  9
$INSUNITS
 70
6
  9
$HYPERLINKBASE
  1

  9
$STYLESHEET
  1

  9
$XEDIT
290
1
  9
$CEPSNTYPE
380
0
  9
$PSTYLEMODE
290
1
  9
$FINGERPRINTGUID
  2
{ACA25D2C-9602-432F-BF20-2B6D2FC40590}
  9
$VERSIONGUID
  2
{BEB9FBD9-622B-4D21-B860-F2E0D7564F12}
  9
$EXTNAMES
290
1
  9
$PSVPSCALE
 40
0.0
  9
$OLESTARTUP
290
0
  9
$SORTENTS
280
127
  9
$INDEXCTL
280
0
  9
$HIDETEXT
280
1
  9
$XCLIPFRAME
280
0
  9
$HALOGAP
280
0
  9
$OBSCOLOR
 70
257
  9
$OBSLTYPE
280
0
  9
$INTERSECTIONDISPLAY
280
0
  9
$INTERSECTIONCOLOR
 70
257
  9
$DIMASSOC
280
2
  9
$PROJECTNAME
  1

  9
$CAMERADISPLAY
290
0
  9
$LENSLENGTH
 40
50.0
  9
$CAMERAHEIGHT
 40
0.0
  9
$STEPSPERSEC
 40
24.0
  9
$STEPSIZE
 40
100.0
  9
$3DDWFPREC
 40
2.0
  9
$PSOLWIDTH
 40
0.005
  9
$PSOLHEIGHT
 40
0.08
  9
$LOFTANG1
 40
1.570796326795
  9
$LOFTANG2
 40
1.570796326795
  9
$LOFTMAG1
 40
0.0
  9
$LOFTMAG2
 40
0.0
  9
$LOFTPARAM
 70
7
  9
$LOFTNORMALS
280
1
  9
$LATITUDE
 40
37.795
  9
$LONGITUDE
 40
-122.394
  9
$NORTHDIRECTION
 40
0.0
  9
$TIMEZONE
 70
-8000
  9
$LIGHTGLYPHDISPLAY
280
1
  9
$TILEMODELIGHTSYNCH
280
1
  9
$CMATERIAL
347
20
  9
$SOLIDHIST
280
0
  9
$SHOWHIST
280
1
  9
$DWFFRAME
280
2
  9
$DGNFRAME
280
2
  9
$REALWORLDSCALE
290
1
  9
$INTERFERECOLOR
 62
256
  9
$CSHADOW
280
0
  9
$SHADOWPLANELOCATION
 40
0.0
  0
ENDSEC
  0
SECTION
  2
CLASSES
  0
CLASS
  1
ACDBDICTIONARYWDFLT
  2
AcDbDictionaryWithDefault
  3
ObjectDBX Classes
 90
0
 91
0
280
0
281
0
  0
CLASS
  1
SUN
  2
AcDbSun
  3
SCENEOE
 90
1153
 91
0
280
0
281
0
  0
CLASS
  1
VISUALSTYLE
  2
AcDbVisualStyle
  3
ObjectDBX Classes
 90
4095
 91
0
280
0
281
0
  0
CLASS
  1
MATERIAL
  2
AcDbMaterial
  3
ObjectDBX Classes
 90
1153
 91
0
280
0
281
0
  0
CLASS
  1
SCALE
  2
AcDbScale
  3
ObjectDBX Classes
 90
1153
 91
0
280
0
281
0
  0
CLASS
  1
TABLESTYLE
  2
AcDbTableStyle
  3
ObjectDBX Classes
 90
4095
 91
0
280
0
281
0
  0
CLASS
  1
MLEADERSTYLE
  2
AcDbMLeaderStyle
  3
ACDB_MLEADERSTYLE_CLASS
 90
4095
 91
0
280
0
281
0
  0
CLASS
  1
DICTIONARYVAR
  2
AcDbDictionaryVar
  3
ObjectDBX Classes
 90
0
 91
0
280
0
281
0
  0
CLASS
  1
CELLSTYLEMAP
  2
AcDbCellStyleMap
  3
ObjectDBX Classes
 90
1152
 91
0
280
0
281
0
  0
CLASS
  1
MENTALRAYRENDERSETTINGS
  2
AcDbMentalRayRenderSettings
  3
SCENEOE
 90
1024
 91
0
280
0
281
0
  0
CLASS
  1
ACDBDETAILVIEWSTYLE
  2
AcDbDetailViewStyle
  3
ObjectDBX Classes
 90
1025
 91
0
280
0
281
0
  0
CLASS
  1
ACDBSECTIONVIEWSTYLE
  2
AcDbSectionViewStyle
  3
ObjectDBX Classes
 90
1025
 91
0
280
0
281
0
  0
CLASS
  1
RASTERVARIABLES
  2
AcDbRasterVariables
  3
ISM
 90
0
 91
0
280
0
281
0
  0
CLASS
  1
LAYOUT
  2
AcDbLayout
  3
ObjectDBX Classes
 90
0
 91
0
280
0
281
0
  0
CLASS
  1
ACDBPLACEHOLDER
  2
AcDbPlaceHolder
  3
ObjectDBX Classes
 90
0
 91
0
280
0
281
0
  0
ENDSEC
  0
SECTION
  2
TABLES
  0
TABLE
  2
VPORT
  5
8
330
0
100
AcDbSymbolTable
 70
1
  0
VPORT
  5
23
330
8
100
AcDbSymbolTableRecord
100
AcDbViewportTableRecord
  2
*Active
 70
0
 10
0.0
 20
0.0
 11
1.0
 21
1.0
 12
0.0
 22
0.0
 13
0.0
 23
0.0
 14
0.5
 24
0.5
 15
0.5
 25
0.5
 16
0.0
 26
0.0
 36
1.0
 17
0.0
 27
0.0
 37
0.0
 40
1000.0
 41
1.34
 42
50.0
 43
0.0
 44
0.0
 50
0.0
 51
0.0
 71
0
 72
1000
 73
1
 74
3
 75
0
 76
0
 77
0
 78
0
281
0
 65
0
146
0.0
  0
ENDTAB
  0
TABLE
  2
LTYPE
  5
2
330
0
100
AcDbSymbolTable
 70
3
  0
LTYPE
  5
24
330
2
100
AcDbSymbolTableRecord
100
AcDbLinetypeTableRecord
  2
ByBlock
 70
0
  3

 72
65
 73
0
 40
0.0
  0
LTYPE
  5
25
330
2
100
AcDbSymbolTableRecord
100
AcDbLinetypeTableRecord
  2
ByLayer
 70
0
  3

 72
65
 73
0
 40
0.0
  0
LTYPE
  5
26
330
2
100
AcDbSymbolTableRecord
100
AcDbLinetypeTableRecord
  2
Continuous
 70
0
  3

 72
65
 73
0
 40
0.0
  0
ENDTAB
  0
TABLE
  2
LAYER
  5
1
330
0
100
AcDbSymbolTable
 70
5
  0
LAYER
  5
27
330
1
100
AcDbSymbolTableRecord
100
AcDbLayerTableRecord
  2
0
 70
0
 62
7
  6
Continuous
370
-3
390
13
347
21
  0
LAYER
  5
28
330
1
100
AcDbSymbolTableRecord
100
AcDbLayerTableRecord
  2
Defpoints
 70
0
 62
7
  6
Continuous
290
0
370
-3
390
13
347
21
  0
LAYER
  5
2F
330
1
100
AcDbSymbolTableRecord
100
AcDbLayerTableRecord
  2
conductor
 70
0
 62
1
  6
Continuous
370
-3
390
13
347
21
  0
LAYER
  5
30
330
1
100
AcDbSymbolTableRecord
100
AcDbLayerTableRecord
  2
dielectric
 70
0
 62
8
  6
Continuous
370
-3
390
13
347
21
  0
LAYER
  5
31
330
1
100
AcDbSymbolTableRecord
100
AcDbLayerTableRecord
  2
substrate
 70
0
 62
5
  6
Continuous
370
-3
390
13
347
21
  0
ENDTAB
  0
TABLE
  2
STYLE
  5
5
330
0
100
AcDbSymbolTable
 70
1
  0
STYLE
  5
29
330
5
100
AcDbSymbolTableRecord
100
AcDbTextStyleTableRecord
  2
Standard
 70
0
 40
0.0
 41
1.0
 50
0.0
 71
0
 42
2.5
  3
txt
  4

  0
ENDTAB
  0
TABLE
  2
VIEW
  5
7
330
0
100
AcDbSymbolTable
 70
0
  0
ENDTAB
  0
TABLE
  2
UCS
  5
6
330
0
100
AcDbSymbolTable
 70
0
  0
ENDTAB
  0
TABLE
  2
APPID
  5
3
330
0
100
AcDbSymbolTable
 70
3
  0
APPID
  5
2A
330
3
100
AcDbSymbolTableRecord
100
AcDbRegAppTableRecord
  2
ACAD
 70
0
  0
APPID
  5
3B
330
3
100
AcDbSymbolTableRecord
100
AcDbRegAppTableRecord
  2
HATCHBACKGROUNDCOLOR
 70
0
  0
APPID
  5
3C
330
3
100
AcDbSymbolTableRecord
100
AcDbRegAppTableRecord
  2
EZDXF
 70
0
  0
ENDTAB
  0
TABLE
  2
DIMSTYLE
  5
4
330
0
100
AcDbSymbolTable
 70
1
100
AcDbDimStyleTable
  0
DIMSTYLE
105
2B
330
4
100
AcDbSymbolTableRecord
100
AcDbDimStyleTableRecord
  2
Standard
 70
0
 40
1.0
 41
2.5
 42
0.625
 43
3.75
 44
1.25
 45
0.0
 46
0.0
 47
0.0
 48
0.0
 49
2.5
140
2.5
141
2.5
142
0.0
143
0.03937007874
144
1.0
145
0.0
146
1.0
147
0.625
148
0.0
 69
0
 70
0
 71
0
 72
0
 73
0
 74
0
 75
0
 76
0
 77
1
 78
8
 79
3
170
0
171
3
172
1
173
0
174
0
175
0
176
0
177
0
178
0
179
2
271
2
272
2
273
2
274
3
275
0
276
0
277
2
278
44
279
0
280
0
281
0
282
0
283
0
284
8
285
0
286
0
288
0
289
3
290
0
371
-2
372
-2
  0
ENDTAB
  0
TABLE
  2
BLOCK_RECORD
  5
9
330
0
100
AcDbSymbolTable
 70
2
  0
BLOCK_RECORD
  5
17
330
9
100
AcDbSymbolTableRecord
100
AcDbBlockTableRecord
  2
*Model_Space
340
1A
 70
0
280
1
281
0
  0
BLOCK_RECORD
  5
1B
330
9
100
AcDbSymbolTableRecord
100
AcDbBlockTableRecord
  2
*Paper_Space
340
1E
 70
0
280
1
281
0
  0
ENDTAB
  0
ENDSEC
  0
SECTION
  2
BLOCKS
  0
BLOCK
  5
18
330
17
100
AcDbEntity
  8
0
100
AcDbBlockBegin
  2
*Model_Space
 70
0
 10
0.0
 20
0.0
 30
0.0
  3
*Model_Space
  1

  0
ENDBLK
  5
19
330
17
100
AcDbEntity
  8
0
100
AcDbBlockEnd
  0
BLOCK
  5
1C
330
1B
100
AcDbEntity
  8
0
100
AcDbBlockBegin
  2
*Paper_Space
 70
0
 10
0.0
 20
0.0
 30
0.0
  3
*Paper_Space
  1

  0
ENDBLK
  5
1D
330
1B
100
AcDbEntity
  8
0
100
AcDbBlockEnd
  0
ENDSEC
  0
SECTION
  2
ENTITIES
  0
LWPOLYLINE
  5
32
330
17
100
AcDbEntity
  8
conductor
100
AcDbPolyline
 90
235
 70
1
 43
0.5
 10
2483.55078125
 20
-2110.52734375
 10
2473.734375
 20
-2120.34375
 10
2463.91796875
 20
-2120.34375
 10
2454.1015625
 20
-2120.34375
 10
2444.28515625
 20
-2130.16015625
 10
2434.46875
 20
-2130.16015625
 10
2424.65234375
 20
-2120.34375
 10
2414.8359375
 20
-2130.16015625
 10
2405.01953125
 20
-2130.16015625
 10
2395.203125
 20
-2130.16015625
 10
2385.38671875
 20
-2130.16015625
 10
2375.5703125
 20
-2130.16015625
 10
2365.75390625
 20
-2130.16015625
 10
2355.9375
 20
-2139.9765625
 10
2346.12109375
 20
-2149.79296875
 10
2336.3046875
 20
-2149.79296875
 10
2326.48828125
 20
-2159.609375
 10
2316.671875
 20
-2159.609375
 10
2306.85546875
 20
-2169.42578125
 10
2297.0390625
 20
-2169.42578125
 10
2287.22265625
 20
-2179.2421875
 10
2277.40625
 20
-2189.05859375
 10
2267.58984375
 20
-2198.875
 10
2257.7734375
 20
-2208.69140625
 10
2247.95703125
 20
-2208.69140625
 10
2238.140625
 20
-2218.5078125
 10
2238.140625
 20
-2228.32421875
 10
2228.32421875
 20
-2238.140625
 10
2218.5078125
 20
-2238.140625
 10
2208.69140625
 20
-2247.95703125
 10
2218.5078125
 20
-2257.7734375
 10
2208.69140625
 20
-2267.58984375
 10
2198.875
 20
-2267.58984375
 10
2189.05859375
 20
-2267.58984375
 10
2179.2421875
 20
-2277.40625
 10
2169.42578125
 20
-2287.22265625
 10
2169.42578125
 20
-2297.0390625
 10
2159.609375
 20
-2306.85546875
 10
2159.609375
 20
-2316.671875
 10
2149.79296875
 20
-2326.48828125
 10
2149.79296875
 20
-2336.3046875
 10
2139.9765625
 20
-2346.12109375
 10
2139.9765625
 20
-2355.9375
 10
2139.9765625
 20
-2365.75390625
 10
2139.9765625
 20
-2375.5703125
 10
2130.16015625
 20
-2385.38671875
 10
2130.16015625
 20
-2395.203125
 10
2130.16015625
 20
-2405.01953125
 10
2130.16015625
 20
-2414.8359375
 10
2130.16015625
 20
-2424.65234375
 10
2120.34375
 20
-2434.46875
 10
2120.34375
 20
-2444.28515625
 10
2120.34375
 20
-2454.1015625
 10
2130.16015625
 20
-2463.91796875
 10
2120.34375
 20
-2473.734375
 10
2120.34375
 20
-2483.55078125
 10
2120.34375
 20
-2493.3671875
 10
2110.52734375
 20
-2503.18359375
 10
2120.34375
 20
-2513.0
 10
2120.34375
 20
-2522.81640625
 10
2120.34375
 20
-2532.6328125
 10
2120.34375
 20
-2542.44921875
 10
2120.34375
 20
-2552.265625
 10
2120.34375
 20
-2562.08203125
 10
2120.34375
 20
-2571.8984375
 10
2110.52734375
 20
-2581.71484375
 10
2120.34375
 20
-2591.53125
 10
2120.34375
 20
-2601.34765625
 10
2130.16015625
 20
-2611.1640625
 10
2130.16015625
 20
-2620.98046875
 10
2130.16015625
 20
-2630.796875
 10
2130.16015625
 20
-2640.61328125
 10
2130.16015625
 20
-2650.4296875
 10
2130.16015625
 20
-2660.24609375
 10
2139.9765625
 20
-2670.0625
 10
2139.9765625
 20
-2679.87890625
 10
2149.79296875
 20
-2689.6953125
 10
2159.609375
 20
-2699.51171875
 10
2159.609375
 20
-2709.328125
 10
2169.42578125
 20
-2719.14453125
 10
2169.42578125
 20
-2728.9609375
 10
2179.2421875
 20
-2738.77734375
 10
2189.05859375
 20
-2748.59375
 10
2198.875
 20
-2758.41015625
 10
2208.69140625
 20
-2768.2265625
 10
2218.5078125
 20
-2778.04296875
 10
2228.32421875
 20
-2787.859375
 10
2228.32421875
 20
-2797.67578125
 10
2238.140625
 20
-2797.67578125
 10
2247.95703125
 20
-2807.4921875
 10
2257.7734375
 20
-2817.30859375
 10
2267.58984375
 20
-2817.30859375
 10
2277.40625
 20
-2827.125
 10
2287.22265625
 20
-2827.125
 10
2297.0390625
 20
-2836.94140625
 10
2297.0390625
 20
-2846.7578125
 10
2306.85546875
 20
-2846.7578125
 10
2316.671875
 20
-2856.57421875
 10
2326.48828125
 20
-2866.390625
 10
2336.3046875
 20
-2876.20703125
 10
2346.12109375
 20
-2866.390625
 10
2355.9375
 20
-2876.20703125
 10
2365.75390625
 20
-2876.20703125
 10
2375.5703125
 20
-2876.20703125
 10
2385.38671875
 20
-2886.0234375
 10
2395.203125
 20
-2886.0234375
 10
2405.01953125
 20
-2886.0234375
 10
2414.8359375
 20
-2886.0234375
 10
2424.65234375
 20
-2895.83984375
 10
2434.46875
 20
-2895.83984375
 10
2444.28515625
 20
-2895.83984375
 10
2454.1015625
 20
-2895.83984375
 10
2463.91796875
 20
-2895.83984375
 10
2473.734375
 20
-2895.83984375
 10
2483.55078125
 20
-2895.83984375
 10
2493.3671875
 20
-2905.65625
 10
2503.18359375
 20
-2905.65625
 10
2513.0
 20
-2905.65625
 10
2522.81640625
 20
-2905.65625
 10
2532.6328125
 20
-2905.65625
 10
2542.44921875
 20
-2905.65625
 10
2552.265625
 20
-2905.65625
 10
2562.08203125
 20
-2905.65625
 10
2571.8984375
 20
-2905.65625
 10
2581.71484375
 20
-2905.65625
 10
2591.53125
 20
-2895.83984375
 10
2601.34765625
 20
-2895.83984375
 10
2611.1640625
 20
-2895.83984375
 10
2620.98046875
 20
-2886.0234375
 10
2630.796875
 20
-2895.83984375
 10
2640.61328125
 20
-2886.0234375
 10
2650.4296875
 20
-2886.0234375
 10
2660.24609375
 20
-2876.20703125
 10
2670.0625
 20
-2876.20703125
 10
2679.87890625
 20
-2866.390625
 10
2689.6953125
 20
-2866.390625
 10
2699.51171875
 20
-2856.57421875
 10
2709.328125
 20
-2856.57421875
 10
2719.14453125
 20
-2846.7578125
 10
2728.9609375
 20
-2836.94140625
 10
2738.77734375
 20
-2836.94140625
 10
2748.59375
 20
-2827.125
 10
2758.41015625
 20
-2827.125
 10
2768.2265625
 20
-2817.30859375
 10
2768.2265625
 20
-2807.4921875
 10
2778.04296875
 20
-2797.67578125
 10
2787.859375
 20
-2797.67578125
 10
2797.67578125
 20
-2787.859375
 10
2807.4921875
 20
-2778.04296875
 10
2807.4921875
 20
-2768.2265625
 10
2817.30859375
 20
-2758.41015625
 10
2827.125
 20
-2748.59375
 10
2836.94140625
 20
-2738.77734375
 10
2836.94140625
 20
-2728.9609375
 10
2846.7578125
 20
-2719.14453125
 10
2856.57421875
 20
-2709.328125
 10
2856.57421875
 20
-2699.51171875
 10
2866.390625
 20
-2689.6953125
 10
2866.390625
 20
-2679.87890625
 10
2876.20703125
 20
-2670.0625
 10
2876.20703125
 20
-2660.24609375
 10
2876.20703125
 20
-2650.4296875
 10
2876.20703125
 20
-2640.61328125
 10
2886.0234375
 20
-2630.796875
 10
2886.0234375
 20
-2620.98046875
 10
2886.0234375
 20
-2611.1640625
 10
2886.0234375
 20
-2601.34765625
 10
2895.83984375
 20
-2591.53125
 10
2895.83984375
 20
-2581.71484375
 10
2895.83984375
 20
-2571.8984375
 10
2905.65625
 20
-2562.08203125
 10
2905.65625
 20
-2552.265625
 10
2895.83984375
 20
-2542.44921875
 10
2905.65625
 20
-2532.6328125
 10
2905.65625
 20
-2522.81640625
 10
2905.65625
 20
-2513.0
 10
2905.65625
 20
-2503.18359375
 10
2905.65625
 20
-2493.3671875
 10
2905.65625
 20
-2483.55078125
 10
2905.65625
 20
-2473.734375
 10
2895.83984375
 20
-2463.91796875
 10
2895.83984375
 20
-2454.1015625
 10
2895.83984375
 20
-2444.28515625
 10
2886.0234375
 20
-2434.46875
 10
2895.83984375
 20
-2424.65234375
 10
2895.83984375
 20
-2414.8359375
 10
2886.0234375
 20
-2405.01953125
 10
2886.0234375
 20
-2395.203125
 10
2886.0234375
 20
-2385.38671875
 10
2876.20703125
 20
-2375.5703125
 10
2876.20703125
 20
-2365.75390625
 10
2866.390625
 20
-2355.9375
 10
2876.20703125
 20
-2346.12109375
 10
2866.390625
 20
-2336.3046875
 10
2856.57421875
 20
-2326.48828125
 10
2856.57421875
 20
-2316.671875
 10
2846.7578125
 20
-2306.85546875
 10
2836.94140625
 20
-2297.0390625
 10
2827.125
 20
-2287.22265625
 10
2827.125
 20
-2277.40625
 10
2817.30859375
 20
-2267.58984375
 10
2807.4921875
 20
-2257.7734375
 10
2797.67578125
 20
-2247.95703125
 10
2797.67578125
 20
-2238.140625
 10
2787.859375
 20
-2228.32421875
 10
2778.04296875
 20
-2228.32421875
 10
2768.2265625
 20
-2218.5078125
 10
2758.41015625
 20
-2208.69140625
 10
2748.59375
 20
-2198.875
 10
2738.77734375
 20
-2189.05859375
 10
2728.9609375
 20
-2179.2421875
 10
2719.14453125
 20
-2169.42578125
 10
2709.328125
 20
-2159.609375
 10
2699.51171875
 20
-2159.609375
 10
2689.6953125
 20
-2149.79296875
 10
2679.87890625
 20
-2149.79296875
 10
2670.0625
 20
-2139.9765625
 10
2660.24609375
 20
-2139.9765625
 10
2650.4296875
 20
-2139.9765625
 10
2640.61328125
 20
-2130.16015625
 10
2630.796875
 20
-2130.16015625
 10
2620.98046875
 20
-2130.16015625
 10
2611.1640625
 20
-2120.34375
 10
2601.34765625
 20
-2120.34375
 10
2591.53125
 20
-2120.34375
 10
2581.71484375
 20
-2120.34375
 10
2571.8984375
 20
-2110.52734375
 10
2562.08203125
 20
-2110.52734375
 10
2552.265625
 20
-2110.52734375
 10
2542.44921875
 20
-2110.52734375
 10
2532.6328125
 20
-2110.52734375
 10
2522.81640625
 20
-2120.34375
 10
2513.0
 20
-2110.52734375
 10
2503.18359375
 20
-2110.52734375
 10
2493.3671875
 20
-2120.34375
  0
LWPOLYLINE
  5
33
330
17
100
AcDbEntity
  8
conductor
100
AcDbPolyline
 90
225
 70
1
 43
0.5
 10
2414.8359375
 20
-2149.79296875
 10
2424.65234375
 20
-2139.9765625
 10
2434.46875
 20
-2149.79296875
 10
2444.28515625
 20
-2149.79296875
 10
2454.1015625
 20
-2159.609375
 10
2463.91796875
 20
-2149.79296875
 10
2473.734375
 20
-2149.79296875
 10
2483.55078125
 20
-2149.79296875
 10
2493.3671875
 20
-2149.79296875
 10
2503.18359375
 20
-2149.79296875
 10
2513.0
 20
-2149.79296875
 10
2522.81640625
 20
-2149.79296875
 10
2532.6328125
 20
-2159.609375
 10
2542.44921875
 20
-2149.79296875
 10
2552.265625
 20
-2149.79296875
 10
2562.08203125
 20
-2159.609375
 10
2571.8984375
 20
-2159.609375
 10
2581.71484375
 20
-2149.79296875
 10
2591.53125
 20
-2159.609375
 10
2601.34765625
 20
-2159.609375
 10
2611.1640625
 20
-2159.609375
 10
2620.98046875
 20
-2149.79296875
 10
2630.796875
 20
-2159.609375
 10
2630.796875
 20
-2169.42578125
 10
2640.61328125
 20
-2169.42578125
 10
2650.4296875
 20
-2169.42578125
 10
2660.24609375
 20
-2179.2421875
 10
2670.0625
 20
-2179.2421875
 10
2679.87890625
 20
-2179.2421875
 10
2689.6953125
 20
-2189.05859375
 10
2699.51171875
 20
-2198.875
 10
2699.51171875
 20
-2208.69140625
 10
2709.328125
 20
-2208.69140625
 10
2719.14453125
 20
-2218.5078125
 10
2728.9609375
 20
-2218.5078125
 10
2738.77734375
 20
-2228.32421875
 10
2738.77734375
 20
-2238.140625
 10
2748.59375
 20
-2247.95703125
 10
2758.41015625
 20
-2257.7734375
 10
2768.2265625
 20
-2267.58984375
 10
2778.04296875
 20
-2277.40625
 10
2787.859375
 20
-2287.22265625
 10
2797.67578125
 20
-2297.0390625
 10
2807.4921875
 20
-2306.85546875
 10
2807.4921875
 20
-2316.671875
 10
2817.30859375
 20
-2326.48828125
 10
2817.30859375
 20
-2336.3046875
 10
2827.125
 20
-2346.12109375
 10
2836.94140625
 20
-2346.12109375
 10
2846.7578125
 20
-2355.9375
 10
2846.7578125
 20
-2365.75390625
 10
2846.7578125
 20
-2375.5703125
 10
2846.7578125
 20
-2385.38671875
 10
2856.57421875
 20
-2395.203125
 10
2856.57421875
 20
-2405.01953125
 10
2866.390625
 20
-2414.8359375
 10
2866.390625
 20
-2424.65234375
 10
2866.390625
 20
-2434.46875
 10
2866.390625
 20
-2444.28515625
 10
2866.390625
 20
-2454.1015625
 10
2866.390625
 20
-2463.91796875
 10
2856.57421875
 20
-2473.734375
 10
2856.57421875
 20
-2483.55078125
 10
2866.390625
 20
-2493.3671875
 10
2856.57421875
 20
-2503.18359375
 10
2866.390625
 20
-2513.0
 10
2866.390625
 20
-2522.81640625
 10
2866.390625
 20
-2532.6328125
 10
2866.390625
 20
-2542.44921875
 10
2876.20703125
 20
-2552.265625
 10
2866.390625
 20
-2562.08203125
 10
2876.20703125
 20
-2571.8984375
 10
2866.390625
 20
-2581.71484375
 10
2866.390625
 20
-2591.53125
 10
2856.57421875
 20
-2601.34765625
 10
2856.57421875
 20
-2611.1640625
 10
2856.57421875
 20
-2620.98046875
 10
2846.7578125
 20
-2630.796875
 10
2846.7578125
 20
-2640.61328125
 10
2836.94140625
 20
-2650.4296875
 10
2836.94140625
 20
-2660.24609375
 10
2836.94140625
 20
-2670.0625
 10
2827.125
 20
-2679.87890625
 10
2827.125
 20
-2689.6953125
 10
2817.30859375
 20
-2699.51171875
 10
2807.4921875
 20
-2709.328125
 10
2807.4921875
 20
-2719.14453125
 10
2797.67578125
 20
-2728.9609375
 10
2797.67578125
 20
-2738.77734375
 10
2787.859375
 20
-2748.59375
 10
2778.04296875
 20
-2758.41015625
 10
2768.2265625
 20
-2758.41015625
 10
2768.2265625
 20
-2768.2265625
 10
2758.41015625
 20
-2778.04296875
 10
2748.59375
 20
-2787.859375
 10
2738.77734375
 20
-2797.67578125
 10
2728.9609375
 20
-2797.67578125
 10
2719.14453125
 20
-2807.4921875
 10
2709.328125
 20
-2817.30859375
 10
2699.51171875
 20
-2817.30859375
 10
2689.6953125
 20
-2817.30859375
 10
2679.87890625
 20
-2827.125
 10
2670.0625
 20
-2827.125
 10
2670.0625
 20
-2836.94140625
 10
2660.24609375
 20
-2846.7578125
 10
2650.4296875
 20
-2836.94140625
 10
2640.61328125
 20
-2846.7578125
 10
2630.796875
 20
-2846.7578125
 10
2620.98046875
 20
-2856.57421875
 10
2611.1640625
 20
-2856.57421875
 10
2601.34765625
 20
-2866.390625
 10
2591.53125
 20
-2856.57421875
 10
2581.71484375
 20
-2866.390625
 10
2571.8984375
 20
-2866.390625
 10
2562.08203125
 20
-2866.390625
 10
2552.265625
 20
-2876.20703125
 10
2542.44921875
 20
-2876.20703125
 10
2532.6328125
 20
-2866.390625
 10
2522.81640625
 20
-2876.20703125
 10
2513.0
 20
-2876.20703125
 10
2503.18359375
 20
-2876.20703125
 10
2493.3671875
 20
-2876.20703125
 10
2483.55078125
 20
-2866.390625
 10
2473.734375
 20
-2876.20703125
 10
2463.91796875
 20
-2876.20703125
 10
2454.1015625
 20
-2866.390625
 10
2444.28515625
 20
-2866.390625
 10
2434.46875
 20
-2876.20703125
 10
2424.65234375
 20
-2876.20703125
 10
2414.8359375
 20
-2866.390625
 10
2405.01953125
 20
-2856.57421875
 10
2395.203125
 20
-2856.57421875
 10
2385.38671875
 20
-2856.57421875
 10
2375.5703125
 20
-2846.7578125
 10
2365.75390625
 20
-2846.7578125
 10
2355.9375
 20
-2836.94140625
 10
2346.12109375
 20
-2836.94140625
 10
2336.3046875
 20
-2827.125
 10
2326.48828125
 20
-2827.125
 10
2316.671875
 20
-2817.30859375
 10
2306.85546875
 20
-2807.4921875
 10
2306.85546875
 20
-2797.67578125
 10
2297.0390625
 20
-2807.4921875
 10
2287.22265625
 20
-2807.4921875
 10
2277.40625
 20
-2797.67578125
 10
2277.40625
 20
-2787.859375
 10
2267.58984375
 20
-2787.859375
 10
2257.7734375
 20
-2778.04296875
 10
2247.95703125
 20
-2768.2265625
 10
2247.95703125
 20
-2758.41015625
 10
2238.140625
 20
-2748.59375
 10
2238.140625
 20
-2738.77734375
 10
2228.32421875
 20
-2728.9609375
 10
2218.5078125
 20
-2719.14453125
 10
2218.5078125
 20
-2709.328125
 10
2208.69140625
 20
-2709.328125
 10
2198.875
 20
-2699.51171875
 10
2198.875
 20
-2689.6953125
 10
2198.875
 20
-2679.87890625
 10
2189.05859375
 20
-2670.0625
 10
2179.2421875
 20
-2660.24609375
 10
2179.2421875
 20
-2650.4296875
 10
2169.42578125
 20
-2640.61328125
 10
2169.42578125
 20
-2630.796875
 10
2159.609375
 20
-2620.98046875
 10
2159.609375
 20
-2611.1640625
 10
2159.609375
 20
-2601.34765625
 10
2159.609375
 20
-2591.53125
 10
2149.79296875
 20
-2581.71484375
 10
2149.79296875
 20
-2571.8984375
 10
2139.9765625
 20
-2562.08203125
 10
2139.9765625
 20
-2552.265625
 10
2139.9765625
 20
-2542.44921875
 10
2130.16015625
 20
-2532.6328125
 10
2139.9765625
 20
-2522.81640625
 10
2139.9765625
 20
-2513.0
 10
2130.16015625
 20
-2503.18359375
 10
2130.16015625
 20
-2493.3671875
 10
2139.9765625
 20
-2483.55078125
 10
2139.9765625
 20
-2473.734375
 10
2149.79296875
 20
-2463.91796875
 10
2149.79296875
 20
-2454.1015625
 10
2149.79296875
 20
-2444.28515625
 10
2149.79296875
 20
-2434.46875
 10
2149.79296875
 20
-2424.65234375
 10
2159.609375
 20
-2414.8359375
 10
2169.42578125
 20
-2405.01953125
 10
2169.42578125
 20
-2395.203125
 10
2169.42578125
 20
-2385.38671875
 10
2169.42578125
 20
-2375.5703125
 10
2169.42578125
 20
-2365.75390625
 10
2179.2421875
 20
-2355.9375
 10
2189.05859375
 20
-2355.9375
 10
2189.05859375
 20
-2346.12109375
 10
2198.875
 20
-2336.3046875
 10
2198.875
 20
-2326.48828125
 10
2208.69140625
 20
-2316.671875
 10
2208.69140625
 20
-2306.85546875
 10
2208.69140625
 20
-2297.0390625
 10
2218.5078125
 20
-2287.22265625
 10
2228.32421875
 20
-2277.40625
 10
2238.140625
 20
-2277.40625
 10
2228.32421875
 20
-2267.58984375
 10
2238.140625
 20
-2257.7734375
 10
2247.95703125
 20
-2247.95703125
 10
2257.7734375
 20
-2247.95703125
 10
2267.58984375
 20
-2247.95703125
 10
2277.40625
 20
-2238.140625
 10
2267.58984375
 20
-2228.32421875
 10
2277.40625
 20
-2218.5078125
 10
2287.22265625
 20
-2208.69140625
 10
2297.0390625
 20
-2218.5078125
 10
2306.85546875
 20
-2208.69140625
 10
2316.671875
 20
-2208.69140625
 10
2316.671875
 20
-2198.875
 10
2326.48828125
 20
-2189.05859375
 10
2336.3046875
 20
-2189.05859375
 10
2346.12109375
 20
-2179.2421875
 10
2355.9375
 20
-2169.42578125
 10
2365.75390625
 20
-2169.42578125
 10
2375.5703125
 20
-2169.42578125
 10
2385.38671875
 20
-2169.42578125
 10
2395.203125
 20
-2159.609375
 10
2405.01953125
 20
-2159.609375
 10
2414.8359375
 20
-2159.609375
  0
LWPOLYLINE
  5
34
330
17
100
AcDbEntity
  8
conductor
100
AcDbPolyline
 90
167
 70
1
 43
0.5
 10
2513.0
 20
-2247.95703125
 10
2503.18359375
 20
-2257.7734375
 10
2493.3671875
 20
-2257.7734375
 10
2483.55078125
 20
-2257.7734375
 10
2473.734375
 20
-2257.7734375
 10
2463.91796875
 20
-2267.58984375
 10
2454.1015625
 20
-2267.58984375
 10
2444.28515625
 20
-2267.58984375
 10
2434.46875
 20
-2267.58984375
 10
2424.65234375
 20
-2267.58984375
 10
2414.8359375
 20
-2267.58984375
 10
2405.01953125
 20
-2277.40625
 10
2395.203125
 20
-2277.40625
 10
2385.38671875
 20
-2287.22265625
 10
2375.5703125
 20
-2287.22265625
 10
2365.75390625
 20
-2297.0390625
 10
2355.9375
 20
-2297.0390625
 10
2355.9375
 20
-2306.85546875
 10
2346.12109375
 20
-2316.671875
 10
2336.3046875
 20
-2306.85546875
 10
2336.3046875
 20
-2316.671875
 10
2336.3046875
 20
-2326.48828125
 10
2326.48828125
 20
-2336.3046875
 10
2316.671875
 20
-2336.3046875
 10
2306.85546875
 20
-2346.12109375
 10
2297.0390625
 20
-2346.12109375
 10
2297.0390625
 20
-2355.9375
 10
2297.0390625
 20
-2365.75390625
 10
2287.22265625
 20
-2375.5703125
 10
2277.40625
 20
-2365.75390625
 10
2277.40625
 20
-2355.9375
 10
2277.40625
 20
-2365.75390625
 10
2277.40625
 20
-2375.5703125
 10
2287.22265625
 20
-2385.38671875
 10
2277.40625
 20
-2395.203125
 10
2277.40625
 20
-2405.01953125
 10
2267.58984375
 20
-2414.8359375
 10
2257.7734375
 20
-2424.65234375
 10
2257.7734375
 20
-2434.46875
 10
2257.7734375
 20
-2444.28515625
 10
2247.95703125
 20
-2454.1015625
 10
2247.95703125
 20
-2463.91796875
 10
2238.140625
 20
-2473.734375
 10
2247.95703125
 20
-2483.55078125
 10
2238.140625
 20
-2493.3671875
 10
2247.95703125
 20
-2503.18359375
 10
2247.95703125
 20
-2513.0
 10
2247.95703125
 20
-2522.81640625
 10
2247.95703125
 20
-2532.6328125
 10
2247.95703125
 20
-2542.44921875
 10
2257.7734375
 20
-2552.265625
 10
2257.7734375
 20
-2562.08203125
 10
2257.7734375
 20
-2571.8984375
 10
2257.7734375
 20
-2581.71484375
 10
2267.58984375
 20
-2591.53125
 10
2277.40625
 20
-2601.34765625
 10
2277.40625
 20
-2611.1640625
 10
2287.22265625
 20
-2620.98046875
 10
2287.22265625
 20
-2630.796875
 10
2297.0390625
 20
-2640.61328125
 10
2297.0390625
 20
-2650.4296875
 10
2297.0390625
 20
-2660.24609375
 10
2306.85546875
 20
-2670.0625
 10
2316.671875
 20
-2679.87890625
 10
2326.48828125
 20
-2689.6953125
 10
2336.3046875
 20
-2699.51171875
 10
2346.12109375
 20
-2709.328125
 10
2355.9375
 20
-2699.51171875
 10
2365.75390625
 20
-2709.328125
 10
2375.5703125
 20
-2719.14453125
 10
2375.5703125
 20
-2728.9609375
 10
2385.38671875
 20
-2738.77734375
 10
2395.203125
 20
-2728.9609375
 10
2405.01953125
 20
-2728.9609375
 10
2414.8359375
 20
-2738.77734375
 10
2424.65234375
 20
-2748.59375
 10
2434.46875
 20
-2738.77734375
 10
2444.28515625
 20
-2748.59375
 10
2454.1015625
 20
-2758.41015625
 10
2463.91796875
 20
-2758.41015625
 10
2473.734375
 20
-2758.41015625
 10
2483.55078125
 20
-2758.41015625
 10
2493.3671875
 20
-2758.41015625
 10
2503.18359375
 20
-2758.41015625
 10
2513.0
 20
-2758.41015625
 10
2522.81640625
 20
-2758.41015625
 10
2532.6328125
 20
-2758.41015625
 10
2542.44921875
 20
-2758.41015625
 10
2552.265625
 20
-2758.41015625
 10
2562.08203125
 20
-2768.2265625
 10
2571.8984375
 20
-2758.41015625
 10
2581.71484375
 20
-2758.41015625
 10
2591.53125
 20
-2748.59375
 10
2601.34765625
 20
-2758.41015625
 10
2611.1640625
 20
-2748.59375
 10
2620.98046875
 20
-2738.77734375
 10
2630.796875
 20
-2738.77734375
 10
2640.61328125
 20
-2738.77734375
 10
2650.4296875
 20
-2728.9609375
 10
2660.24609375
 20
-2728.9609375
 10
2660.24609375
 20
-2719.14453125
 10
2670.0625
 20
-2709.328125
 10
2679.87890625
 20
-2709.328125
 10
2689.6953125
 20
-2699.51171875
 10
2699.51171875
 20
-2689.6953125
 10
2709.328125
 20
-2699.51171875
 10
2709.328125
 20
-2689.6953125
 10
2709.328125
 20
-2679.87890625
 10
2709.328125
 20
-2670.0625
 10
2719.14453125
 20
-2660.24609375
 10
2728.9609375
 20
-2660.24609375
 10
2728.9609375
 20
-2650.4296875
 10
2728.9609375
 20
-2640.61328125
 10
2728.9609375
 20
-2630.796875
 10
2738.77734375
 20
-2620.98046875
 10
2748.59375
 20
-2620.98046875
 10
2758.41015625
 20
-2620.98046875
 10
2748.59375
 20
-2611.1640625
 10
2758.41015625
 20
-2601.34765625
 10
2748.59375
 20
-2591.53125
 10
2758.41015625
 20
-2581.71484375
 10
2758.41015625
 20
-2571.8984375
 10
2758.41015625
 20
-2562.08203125
 10
2758.41015625
 20
-2552.265625
 10
2758.41015625
 20
-2542.44921875
 10
2758.41015625
 20
-2532.6328125
 10
2768.2265625
 20
-2522.81640625
 10
2758.41015625
 20
-2513.0
 10
2758.41015625
 20
-2503.18359375
 10
2758.41015625
 20
-2493.3671875
 10
2768.2265625
 20
-2483.55078125
 10
2758.41015625
 20
-2473.734375
 10
2758.41015625
 20
-2463.91796875
 10
2758.41015625
 20
-2454.1015625
 10
2758.41015625
 20
-2444.28515625
 10
2758.41015625
 20
-2434.46875
 10
2748.59375
 20
-2424.65234375
 10
2738.77734375
 20
-2414.8359375
 10
2748.59375
 20
-2405.01953125
 10
2738.77734375
 20
-2395.203125
 10
2728.9609375
 20
-2385.38671875
 10
2728.9609375
 20
-2375.5703125
 10
2728.9609375
 20
-2365.75390625
 10
2719.14453125
 20
-2365.75390625
 10
2709.328125
 20
-2355.9375
 10
2709.328125
 20
-2346.12109375
 10
2699.51171875
 20
-2336.3046875
 10
2689.6953125
 20
-2326.48828125
 10
2689.6953125
 20
-2316.671875
 10
2679.87890625
 20
-2306.85546875
 10
2670.0625
 20
-2316.671875
 10
2660.24609375
 20
-2306.85546875
 10
2660.24609375
 20
-2297.0390625
 10
2650.4296875
 20
-2297.0390625
 10
2640.61328125
 20
-2287.22265625
 10
2630.796875
 20
-2277.40625
 10
2620.98046875
 20
-2287.22265625
 10
2611.1640625
 20
-2277.40625
 10
2601.34765625
 20
-2267.58984375
 10
2591.53125
 20
-2267.58984375
 10
2581.71484375
 20
-2267.58984375
 10
2571.8984375
 20
-2267.58984375
 10
2562.08203125
 20
-2267.58984375
 10
2552.265625
 20
-2257.7734375
 10
2542.44921875
 20
-2257.7734375
 10
2532.6328125
 20
-2257.7734375
 10
2522.81640625
 20
-2247.95703125
  0
LWPOLYLINE
  5
35
330
17
100
AcDbEntity
  8
conductor
100
AcDbPolyline
 90
4
 70
1
 43
0.5
 10
2257.7734375
 20
-2444.28515625
 10
2267.58984375
 20
-2434.46875
 10
2277.40625
 20
-2444.28515625
 10
2267.58984375
 20
-2454.1015625
  0
LWPOLYLINE
  5
36
330
17
100
AcDbEntity
  8
dielectric
100
AcDbPolyline
 90
1
 70
1
 43
0.5
 10
2876.20703125
 20
-2679.87890625
  0
LWPOLYLINE
  5
37
330
17
100
AcDbEntity
  8
substrate
100
AcDbPolyline
 90
2044
 70
1
 43
0.5
 10
0.0
 20
-0.0
 10
0.0
 20
-9.81640625
 10
0.0
 20
-19.6328125
 10
0.0
 20
-29.44921875
 10
0.0
 20
-39.265625
 10
0.0
 20
-49.08203125
 10
0.0
 20
-58.8984375
 10
0.0
 20
-68.71484375
 10
0.0
 20
-78.53125
 10
0.0
 20
-88.34765625
 10
0.0
 20
-98.1640625
 10
0.0
 20
-107.98046875
 10
0.0
 20
-117.796875
 10
0.0
 20
-127.61328125
 10
0.0
 20
-137.4296875
 10
0.0
 20
-147.24609375
 10
0.0
 20
-157.0625
 10
0.0
 20
-166.87890625
 10
0.0
 20
-176.6953125
 10
0.0
 20
-186.51171875
 10
0.0
 20
-196.328125
 10
0.0
 20
-206.14453125
 10
0.0
 20
-215.9609375
 10
0.0
 20
-225.77734375
 10
0.0
 20
-235.59375
 10
0.0
 20
-245.41015625
 10
0.0
 20
-255.2265625
 10
0.0
 20
-265.04296875
 10
0.0
 20
-274.859375
 10
0.0
 20
-284.67578125
 10
0.0
 20
-294.4921875
 10
0.0
 20
-304.30859375
 10
0.0
 20
-314.125
 10
0.0
 20
-323.94140625
 10
0.0
 20
-333.7578125
 10
0.0
 20
-343.57421875
 10
0.0
 20
-353.390625
 10
0.0
 20
-363.20703125
 10
0.0
 20
-373.0234375
 10
0.0
 20
-382.83984375
 10
0.0
 20
-392.65625
 10
0.0
 20
-402.47265625
 10
0.0
 20
-412.2890625
 10
0.0
 20
-422.10546875
 10
0.0
 20
-431.921875
 10
0.0
 20
-441.73828125
 10
0.0
 20
-451.5546875
 10
0.0
 20
-461.37109375
 10
0.0
 20
-471.1875
 10
0.0
 20
-481.00390625
 10
0.0
 20
-490.8203125
 10
0.0
 20
-500.63671875
 10
0.0
 20
-510.453125
 10
0.0
 20
-520.26953125
 10
0.0
 20
-530.0859375
 10
0.0
 20
-539.90234375
 10
0.0
 20
-549.71875
 10
0.0
 20
-559.53515625
 10
0.0
 20
-569.3515625
 10
0.0
 20
-579.16796875
 10
0.0
 20
-588.984375
 10
0.0
 20
-598.80078125
 10
0.0
 20
-608.6171875
 10
0.0
 20
-618.43359375
 10
0.0
 20
-628.25
 10
0.0
 20
-638.06640625
 10
0.0
 20
-647.8828125
 10
0.0
 20
-657.69921875
 10
0.0
 20
-667.515625
 10
0.0
 20
-677.33203125
 10
0.0
 20
-687.1484375
 10
0.0
 20
-696.96484375
 10
0.0
 20
-706.78125
 10
0.0
 20
-716.59765625
 10
0.0
 20
-726.4140625
 10
0.0
 20
-736.23046875
 10
0.0
 20
-746.046875
 10
0.0
 20
-755.86328125
 10
0.0
 20
-765.6796875
 10
0.0
 20
-775.49609375
 10
0.0
 20
-785.3125
 10
0.0
 20
-795.12890625
 10
0.0
 20
-804.9453125
 10
0.0
 20
-814.76171875
 10
0.0
 20
-824.578125
 10
0.0
 20
-834.39453125
 10
0.0
 20
-844.2109375
 10
0.0
 20
-854.02734375
 10
0.0
 20
-863.84375
 10
0.0
 20
-873.66015625
 10
0.0
 20
-883.4765625
 10
0.0
 20
-893.29296875
 10
0.0
 20
-903.109375
 10
0.0
 20
-912.92578125
 10
0.0
 20
-922.7421875
 10
0.0
 20
-932.55859375
 10
0.0
 20
-942.375
 10
0.0
 20
-952.19140625
 10
0.0
 20
-962.0078125
 10
0.0
 20
-971.82421875
 10
0.0
 20
-981.640625
 10
0.0
 20
-991.45703125
 10
0.0
 20
-1001.2734375
 10
0.0
 20
-1011.08984375
 10
0.0
 20
-1020.90625
 10
0.0
 20
-1030.72265625
 10
0.0
 20
-1040.5390625
 10
0.0
 20
-1050.35546875
 10
0.0
 20
-1060.171875
 10
0.0
 20
-1069.98828125
 10
0.0
 20
-1079.8046875
 10
0.0
 20
-1089.62109375
 10
0.0
 20
-1099.4375
 10
0.0
 20
-1109.25390625
 10
0.0
 20
-1119.0703125
 10
0.0
 20
-1128.88671875
 10
0.0
 20
-1138.703125
 10
0.0
 20
-1148.51953125
 10
0.0
 20
-1158.3359375
 10
0.0
 20
-1168.15234375
 10
0.0
 20
-1177.96875
 10
0.0
 20
-1187.78515625
 10
0.0
 20
-1197.6015625
 10
0.0
 20
-1207.41796875
 10
0.0
 20
-1217.234375
 10
0.0
 20
-1227.05078125
 10
0.0
 20
-1236.8671875
 10
0.0
 20
-1246.68359375
 10
0.0
 20
-1256.5
 10
0.0
 20
-1266.31640625
 10
0.0
 20
-1276.1328125
 10
0.0
 20
-1285.94921875
 10
0.0
 20
-1295.765625
 10
0.0
 20
-1305.58203125
 10
0.0
 20
-1315.3984375
 10
0.0
 20
-1325.21484375
 10
0.0
 20
-1335.03125
 10
0.0
 20
-1344.84765625
 10
0.0
 20
-1354.6640625
 10
0.0
 20
-1364.48046875
 10
0.0
 20
-1374.296875
 10
0.0
 20
-1384.11328125
 10
0.0
 20
-1393.9296875
 10
0.0
 20
-1403.74609375
 10
0.0
 20
-1413.5625
 10
0.0
 20
-1423.37890625
 10
0.0
 20
-1433.1953125
 10
0.0
 20
-1443.01171875
 10
0.0
 20
-1452.828125
 10
0.0
 20
-1462.64453125
 10
0.0
 20
-1472.4609375
 10
0.0
 20
-1482.27734375
 10
0.0
 20
-1492.09375
 10
0.0
 20
-1501.91015625
 10
0.0
 20
-1511.7265625
 10
0.0
 20
-1521.54296875
 10
0.0
 20
-1531.359375
 10
0.0
 20
-1541.17578125
 10
0.0
 20
-1550.9921875
 10
0.0
 20
-1560.80859375
 10
0.0
 20
-1570.625
 10
0.0
 20
-1580.44140625
 10
0.0
 20
-1590.2578125
 10
0.0
 20
-1600.07421875
 10
0.0
 20
-1609.890625
 10
0.0
 20
-1619.70703125
 10
0.0
 20
-1629.5234375
 10
0.0
 20
-1639.33984375
 10
0.0
 20
-1649.15625
 10
0.0
 20
-1658.97265625
 10
0.0
 20
-1668.7890625
 10
0.0
 20
-1678.60546875
 10
0.0
 20
-1688.421875
 10
0.0
 20
-1698.23828125
 10
0.0
 20
-1708.0546875
 10
0.0
 20
-1717.87109375
 10
0.0
 20
-1727.6875
 10
0.0
 20
-1737.50390625
 10
0.0
 20
-1747.3203125
 10
0.0
 20
-1757.13671875
 10
0.0
 20
-1766.953125
 10
0.0
 20
-1776.76953125
 10
0.0
 20
-1786.5859375
 10
0.0
 20
-1796.40234375
 10
0.0
 20
-1806.21875
 10
0.0
 20
-1816.03515625
 10
0.0
 20
-1825.8515625
 10
0.0
 20
-1835.66796875
 10
0.0
 20
-1845.484375
 10
0.0
 20
-1855.30078125
 10
0.0
 20
-1865.1171875
 10
0.0
 20
-1874.93359375
 10
0.0
 20
-1884.75
 10
0.0
 20
-1894.56640625
 10
0.0
 20
-1904.3828125
 10
0.0
 20
-1914.19921875
 10
0.0
 20
-1924.015625
 10
0.0
 20
-1933.83203125
 10
0.0
 20
-1943.6484375
 10
0.0
 20
-1953.46484375
 10
0.0
 20
-1963.28125
 10
0.0
 20
-1973.09765625
 10
0.0
 20
-1982.9140625
 10
0.0
 20
-1992.73046875
 10
0.0
 20
-2002.546875
 10
0.0
 20
-2012.36328125
 10
0.0
 20
-2022.1796875
 10
0.0
 20
-2031.99609375
 10
0.0
 20
-2041.8125
 10
0.0
 20
-2051.62890625
 10
0.0
 20
-2061.4453125
 10
0.0
 20
-2071.26171875
 10
0.0
 20
-2081.078125
 10
0.0
 20
-2090.89453125
 10
0.0
 20
-2100.7109375
 10
0.0
 20
-2110.52734375
 10
0.0
 20
-2120.34375
 10
0.0
 20
-2130.16015625
 10
0.0
 20
-2139.9765625
 10
0.0
 20
-2149.79296875
 10
0.0
 20
-2159.609375
 10
0.0
 20
-2169.42578125
 10
0.0
 20
-2179.2421875
 10
0.0
 20
-2189.05859375
 10
0.0
 20
-2198.875
 10
0.0
 20
-2208.69140625
 10
0.0
 20
-2218.5078125
 10
0.0
 20
-2228.32421875
 10
0.0
 20
-2238.140625
 10
0.0
 20
-2247.95703125
 10
0.0
 20
-2257.7734375
 10
0.0
 20
-2267.58984375
 10
0.0
 20
-2277.40625
 10
0.0
 20
-2287.22265625
 10
0.0
 20
-2297.0390625
 10
0.0
 20
-2306.85546875
 10
0.0
 20
-2316.671875
 10
0.0
 20
-2326.48828125
 10
0.0
 20
-2336.3046875
 10
0.0
 20
-2346.12109375
 10
0.0
 20
-2355.9375
 10
0.0
 20
-2365.75390625
 10
0.0
 20
-2375.5703125
 10
0.0
 20
-2385.38671875
 10
0.0
 20
-2395.203125
 10
0.0
 20
-2405.01953125
 10
0.0
 20
-2414.8359375
 10
0.0
 20
-2424.65234375
 10
0.0
 20
-2434.46875
 10
0.0
 20
-2444.28515625
 10
0.0
 20
-2454.1015625
 10
0.0
 20
-2463.91796875
 10
0.0
 20
-2473.734375
 10
0.0
 20
-2483.55078125
 10
0.0
 20
-2493.3671875
 10
0.0
 20
-2503.18359375
 10
0.0
 20
-2513.0
 10
0.0
 20
-2522.81640625
 10
0.0
 20
-2532.6328125
 10
0.0
 20
-2542.44921875
 10
0.0
 20
-2552.265625
 10
0.0
 20
-2562.08203125
 10
0.0
 20
-2571.8984375
 10
0.0
 20
-2581.71484375
 10
0.0
 20
-2591.53125
 10
0.0
 20
-2601.34765625
 10
0.0
 20
-2611.1640625
 10
0.0
 20
-2620.98046875
 10
0.0
 20
-2630.796875
 10
0.0
 20
-2640.61328125
 10
0.0
 20
-2650.4296875
 10
0.0
 20
-2660.24609375
 10
0.0
 20
-2670.0625
 10
0.0
 20
-2679.87890625
 10
0.0
 20
-2689.6953125
 10
0.0
 20
-2699.51171875
 10
0.0
 20
-2709.328125
 10
0.0
 20
-2719.14453125
 10
0.0
 20
-2728.9609375
 10
0.0
 20
-2738.77734375
 10
0.0
 20
-2748.59375
 10
0.0
 20
-2758.41015625
 10
0.0
 20
-2768.2265625
 10
0.0
 20
-2778.04296875
 10
0.0
 20
-2787.859375
 10
0.0
 20
-2797.67578125
 10
0.0
 20
-2807.4921875
 10
0.0
 20
-2817.30859375
 10
0.0
 20
-2827.125
 10
0.0
 20
-2836.94140625
 10
0.0
 20
-2846.7578125
 10
0.0
 20
-2856.57421875
 10
0.0
 20
-2866.390625
 10
0.0
 20
-2876.20703125
 10
0.0
 20
-2886.0234375
 10
0.0
 20
-2895.83984375
 10
0.0
 20
-2905.65625
 10
0.0
 20
-2915.47265625
 10
0.0
 20
-2925.2890625
 10
0.0
 20
-2935.10546875
 10
0.0
 20
-2944.921875
 10
0.0
 20
-2954.73828125
 10
0.0
 20
-2964.5546875
 10
0.0
 20
-2974.37109375
 10
0.0
 20
-2984.1875
 10
0.0
 20
-2994.00390625
 10
0.0
 20
-3003.8203125
 10
0.0
 20
-3013.63671875
 10
0.0
 20
-3023.453125
 10
0.0
 20
-3033.26953125
 10
0.0
 20
-3043.0859375
 10
0.0
 20
-3052.90234375
 10
0.0
 20
-3062.71875
 10
0.0
 20
-3072.53515625
 10
0.0
 20
-3082.3515625
 10
0.0
 20
-3092.16796875
 10
0.0
 20
-3101.984375
 10
0.0
 20
-3111.80078125
 10
0.0
 20
-3121.6171875
 10
0.0
 20
-3131.43359375
 10
0.0
 20
-3141.25
 10
0.0
 20
-3151.06640625
 10
0.0
 20
-3160.8828125
 10
0.0
 20
-3170.69921875
 10
0.0
 20
-3180.515625
 10
0.0
 20
-3190.33203125
 10
0.0
 20
-3200.1484375
 10
0.0
 20
-3209.96484375
 10
0.0
 20
-3219.78125
 10
0.0
 20
-3229.59765625
 10
0.0
 20
-3239.4140625
 10
0.0
 20
-3249.23046875
 10
0.0
 20
-3259.046875
 10
0.0
 20
-3268.86328125
 10
0.0
 20
-3278.6796875
 10
0.0
 20
-3288.49609375
 10
0.0
 20
-3298.3125
 10
0.0
 20
-3308.12890625
 10
0.0
 20
-3317.9453125
 10
0.0
 20
-3327.76171875
 10
0.0
 20
-3337.578125
 10
0.0
 20
-3347.39453125
 10
0.0
 20
-3357.2109375
 10
0.0
 20
-3367.02734375
 10
0.0
 20
-3376.84375
 10
0.0
 20
-3386.66015625
 10
0.0
 20
-3396.4765625
 10
0.0
 20
-3406.29296875
 10
0.0
 20
-3416.109375
 10
0.0
 20
-3425.92578125
 10
0.0
 20
-3435.7421875
 10
0.0
 20
-3445.55859375
 10
0.0
 20
-3455.375
 10
0.0
 20
-3465.19140625
 10
0.0
 20
-3475.0078125
 10
0.0
 20
-3484.82421875
 10
0.0
 20
-3494.640625
 10
0.0
 20
-3504.45703125
 10
0.0
 20
-3514.2734375
 10
0.0
 20
-3524.08984375
 10
0.0
 20
-3533.90625
 10
0.0
 20
-3543.72265625
 10
0.0
 20
-3553.5390625
 10
0.0
 20
-3563.35546875
 10
0.0
 20
-3573.171875
 10
0.0
 20
-3582.98828125
 10
0.0
 20
-3592.8046875
 10
0.0
 20
-3602.62109375
 10
0.0
 20
-3612.4375
 10
0.0
 20
-3622.25390625
 10
0.0
 20
-3632.0703125
 10
0.0
 20
-3641.88671875
 10
0.0
 20
-3651.703125
 10
0.0
 20
-3661.51953125
 10
0.0
 20
-3671.3359375
 10
0.0
 20
-3681.15234375
 10
0.0
 20
-3690.96875
 10
0.0
 20
-3700.78515625
 10
0.0
 20
-3710.6015625
 10
0.0
 20
-3720.41796875
 10
0.0
 20
-3730.234375
 10
0.0
 20
-3740.05078125
 10
0.0
 20
-3749.8671875
 10
0.0
 20
-3759.68359375
 10
0.0
 20
-3769.5
 10
0.0
 20
-3779.31640625
 10
0.0
 20
-3789.1328125
 10
0.0
 20
-3798.94921875
 10
0.0
 20
-3808.765625
 10
0.0
 20
-3818.58203125
 10
0.0
 20
-3828.3984375
 10
0.0
 20
-3838.21484375
 10
0.0
 20
-3848.03125
 10
0.0
 20
-3857.84765625
 10
0.0
 20
-3867.6640625
 10
0.0
 20
-3877.48046875
 10
0.0
 20
-3887.296875
 10
0.0
 20
-3897.11328125
 10
0.0
 20
-3906.9296875
 10
0.0
 20
-3916.74609375
 10
0.0
 20
-3926.5625
 10
0.0
 20
-3936.37890625
 10
0.0
 20
-3946.1953125
 10
0.0
 20
-3956.01171875
 10
0.0
 20
-3965.828125
 10
0.0
 20
-3975.64453125
 10
0.0
 20
-3985.4609375
 10
0.0
 20
-3995.27734375
 10
0.0
 20
-4005.09375
 10
0.0
 20
-4014.91015625
 10
0.0
 20
-4024.7265625
 10
0.0
 20
-4034.54296875
 10
0.0
 20
-4044.359375
 10
0.0
 20
-4054.17578125
 10
0.0
 20
-4063.9921875
 10
0.0
 20
-4073.80859375
 10
0.0
 20
-4083.625
 10
0.0
 20
-4093.44140625
 10
0.0
 20
-4103.2578125
 10
0.0
 20
-4113.07421875
 10
0.0
 20
-4122.890625
 10
0.0
 20
-4132.70703125
 10
0.0
 20
-4142.5234375
 10
0.0
 20
-4152.33984375
 10
0.0
 20
-4162.15625
 10
0.0
 20
-4171.97265625
 10
0.0
 20
-4181.7890625
 10
0.0
 20
-4191.60546875
 10
0.0
 20
-4201.421875
 10
0.0
 20
-4211.23828125
 10
0.0
 20
-4221.0546875
 10
0.0
 20
-4230.87109375
 10
0.0
 20
-4240.6875
 10
0.0
 20
-4250.50390625
 10
0.0
 20
-4260.3203125
 10
0.0
 20
-4270.13671875
 10
0.0
 20
-4279.953125
 10
0.0
 20
-4289.76953125
 10
0.0
 20
-4299.5859375
 10
0.0
 20
-4309.40234375
 10
0.0
 20
-4319.21875
 10
0.0
 20
-4329.03515625
 10
0.0
 20
-4338.8515625
 10
0.0
 20
-4348.66796875
 10
0.0
 20
-4358.484375
 10
0.0
 20
-4368.30078125
 10
0.0
 20
-4378.1171875
 10
0.0
 20
-4387.93359375
 10
0.0
 20
-4397.75
 10
0.0
 20
-4407.56640625
 10
0.0
 20
-4417.3828125
 10
0.0
 20
-4427.19921875
 10
0.0
 20
-4437.015625
 10
0.0
 20
-4446.83203125
 10
0.0
 20
-4456.6484375
 10
0.0
 20
-4466.46484375
 10
0.0
 20
-4476.28125
 10
0.0
 20
-4486.09765625
 10
0.0
 20
-4495.9140625
 10
0.0
 20
-4505.73046875
 10
0.0
 20
-4515.546875
 10
0.0
 20
-4525.36328125
 10
0.0
 20
-4535.1796875
 10
0.0
 20
-4544.99609375
 10
0.0
 20
-4554.8125
 10
0.0
 20
-4564.62890625
 10
0.0
 20
-4574.4453125
 10
0.0
 20
-4584.26171875
 10
0.0
 20
-4594.078125
 10
0.0
 20
-4603.89453125
 10
0.0
 20
-4613.7109375
 10
0.0
 20
-4623.52734375
 10
0.0
 20
-4633.34375
 10
0.0
 20
-4643.16015625
 10
0.0
 20
-4652.9765625
 10
0.0
 20
-4662.79296875
 10
0.0
 20
-4672.609375
 10
0.0
 20
-4682.42578125
 10
0.0
 20
-4692.2421875
 10
0.0
 20
-4702.05859375
 10
0.0
 20
-4711.875
 10
0.0
 20
-4721.69140625
 10
0.0
 20
-4731.5078125
 10
0.0
 20
-4741.32421875
 10
0.0
 20
-4751.140625
 10
0.0
 20
-4760.95703125
 10
0.0
 20
-4770.7734375
 10
0.0
 20
-4780.58984375
 10
0.0
 20
-4790.40625
 10
0.0
 20
-4800.22265625
 10
0.0
 20
-4810.0390625
 10
0.0
 20
-4819.85546875
 10
0.0
 20
-4829.671875
 10
0.0
 20
-4839.48828125
 10
0.0
 20
-4849.3046875
 10
0.0
 20
-4859.12109375
 10
0.0
 20
-4868.9375
 10
0.0
 20
-4878.75390625
 10
0.0
 20
-4888.5703125
 10
0.0
 20
-4898.38671875
 10
0.0
 20
-4908.203125
 10
0.0
 20
-4918.01953125
 10
0.0
 20
-4927.8359375
 10
0.0
 20
-4937.65234375
 10
0.0
 20
-4947.46875
 10
0.0
 20
-4957.28515625
 10
0.0
 20
-4967.1015625
 10
0.0
 20
-4976.91796875
 10
0.0
 20
-4986.734375
 10
0.0
 20
-4996.55078125
 10
0.0
 20
-5006.3671875
 10
0.0
 20
-5016.18359375
 10
9.81640625
 20
-5016.18359375
 10
19.6328125
 20
-5016.18359375
 10
29.44921875
 20
-5016.18359375
 10
39.265625
 20
-5016.18359375
 10
49.08203125
 20
-5016.18359375
 10
58.8984375
 20
-5016.18359375
 10
68.71484375
 20
-5016.18359375
 10
78.53125
 20
-5016.18359375
 10
88.34765625
 20
-5016.18359375
 10
98.1640625
 20
-5016.18359375
 10
107.98046875
 20
-5016.18359375
 10
117.796875
 20
-5016.18359375
 10
127.61328125
 20
-5016.18359375
 10
137.4296875
 20
-5016.18359375
 10
147.24609375
 20
-5016.18359375
 10
157.0625
 20
-5016.18359375
 10
166.87890625
 20
-5016.18359375
 10
176.6953125
 20
-5016.18359375
 10
186.51171875
 20
-5016.18359375
 10
196.328125
 20
-5016.18359375
 10
206.14453125
 20
-5016.18359375
 10
215.9609375
 20
-5016.18359375
 10
225.77734375
 20
-5016.18359375
 10
235.59375
 20
-5016.18359375
 10
245.41015625
 20
-5016.18359375
 10
255.2265625
 20
-5016.18359375
 10
265.04296875
 20
-5016.18359375
 10
274.859375
 20
-5016.18359375
 10
284.67578125
 20
-5016.18359375
 10
294.4921875
 20
-5016.18359375
 10
304.30859375
 20
-5016.18359375
 10
314.125
 20
-5016.18359375
 10
323.94140625
 20
-5016.18359375
 10
333.7578125
 20
-5016.18359375
 10
343.57421875
 20
-5016.18359375
 10
353.390625
 20
-5016.18359375
 10
363.20703125
 20
-5016.18359375
 10
373.0234375
 20
-5016.18359375
 10
382.83984375
 20
-5016.18359375
 10
392.65625
 20
-5016.18359375
 10
402.47265625
 20
-5016.18359375
 10
412.2890625
 20
-5016.18359375
 10
422.10546875
 20
-5016.18359375
 10
431.921875
 20
-5016.18359375
 10
441.73828125
 20
-5016.18359375
 10
451.5546875
 20
-5016.18359375
 10
461.37109375
 20
-5016.18359375
 10
471.1875
 20
-5016.18359375
 10
481.00390625
 20
-5016.18359375
 10
490.8203125
 20
-5016.18359375
 10
500.63671875
 20
-5016.18359375
 10
510.453125
 20
-5016.18359375
 10
520.26953125
 20
-5016.18359375
 10
530.0859375
 20
-5016.18359375
 10
539.90234375
 20
-5016.18359375
 10
549.71875
 20
-5016.18359375
 10
559.53515625
 20
-5016.18359375
 10
569.3515625
 20
-5016.18359375
 10
579.16796875
 20
-5016.18359375
 10
588.984375
 20
-5016.18359375
 10
598.80078125
 20
-5016.18359375
 10
608.6171875
 20
-5016.18359375
 10
618.43359375
 20
-5016.18359375
 10
628.25
 20
-5016.18359375
 10
638.06640625
 20
-5016.18359375
 10
647.8828125
 20
-5016.18359375
 10
657.69921875
 20
-5016.18359375
 10
667.515625
 20
-5016.18359375
 10
677.33203125
 20
-5016.18359375
 10
687.1484375
 20
-5016.18359375
 10
696.96484375
 20
-5016.18359375
 10
706.78125
 20
-5016.18359375
 10
716.59765625
 20
-5016.18359375
 10
726.4140625
 20
-5016.18359375
 10
736.23046875
 20
-5016.18359375
 10
746.046875
 20
-5016.18359375
 10
755.86328125
 20
-5016.18359375
 10
765.6796875
 20
-5016.18359375
 10
775.49609375
 20
-5016.18359375
 10
785.3125
 20
-5016.18359375
 10
795.12890625
 20
-5016.18359375
 10
804.9453125
 20
-5016.18359375
 10
814.76171875
 20
-5016.18359375
 10
824.578125
 20
-5016.18359375
 10
834.39453125
 20
-5016.18359375
 10
844.2109375
 20
-5016.18359375
 10
854.02734375
 20
-5016.18359375
 10
863.84375
 20
-5016.18359375
 10
873.66015625
 20
-5016.18359375
 10
883.4765625
 20
-5016.18359375
 10
893.29296875
 20
-5016.18359375
 10
903.109375
 20
-5016.18359375
 10
912.92578125
 20
-5016.18359375
 10
922.7421875
 20
-5016.18359375
 10
932.55859375
 20
-5016.18359375
 10
942.375
 20
-5016.18359375
 10
952.19140625
 20
-5016.18359375
 10
962.0078125
 20
-5016.18359375
 10
971.82421875
 20
-5016.18359375
 10
981.640625
 20
-5016.18359375
 10
991.45703125
 20
-5016.18359375
 10
1001.2734375
 20
-5016.18359375
 10
1011.08984375
 20
-5016.18359375
 10
1020.90625
 20
-5016.18359375
 10
1030.72265625
 20
-5016.18359375
 10
1040.5390625
 20
-5016.18359375
 10
1050.35546875
 20
-5016.18359375
 10
1060.171875
 20
-5016.18359375
 10
1069.98828125
 20
-5016.18359375
 10
1079.8046875
 20
-5016.18359375
 10
1089.62109375
 20
-5016.18359375
 10
1099.4375
 20
-5016.18359375
 10
1109.25390625
 20
-5016.18359375
 10
1119.0703125
 20
-5016.18359375
 10
1128.88671875
 20
-5016.18359375
 10
1138.703125
 20
-5016.18359375
 10
1148.51953125
 20
-5016.18359375
 10
1158.3359375
 20
-5016.18359375
 10
1168.15234375
 20
-5016.18359375
 10
1177.96875
 20
-5016.18359375
 10
1187.78515625
 20
-5016.18359375
 10
1197.6015625
 20
-5016.18359375
 10
1207.41796875
 20
-5016.18359375
 10
1217.234375
 20
-5016.18359375
 10
1227.05078125
 20
-5016.18359375
 10
1236.8671875
 20
-5016.18359375
 10
1246.68359375
 20
-5016.18359375
 10
1256.5
 20
-5016.18359375
 10
1266.31640625
 20
-5016.18359375
 10
1276.1328125
 20
-5016.18359375
 10
1285.94921875
 20
-5016.18359375
 10
1295.765625
 20
-5016.18359375
 10
1305.58203125
 20
-5016.18359375
 10
1315.3984375
 20
-5016.18359375
 10
1325.21484375
 20
-5016.18359375
 10
1335.03125
 20
-5016.18359375
 10
1344.84765625
 20
-5016.18359375
 10
1354.6640625
 20
-5016.18359375
 10
1364.48046875
 20
-5016.18359375
 10
1374.296875
 20
-5016.18359375
 10
1384.11328125
 20
-5016.18359375
 10
1393.9296875
 20
-5016.18359375
 10
1403.74609375
 20
-5016.18359375
 10
1413.5625
 20
-5016.18359375
 10
1423.37890625
 20
-5016.18359375
 10
1433.1953125
 20
-5016.18359375
 10
1443.01171875
 20
-5016.18359375
 10
1452.828125
 20
-5016.18359375
 10
1462.64453125
 20
-5016.18359375
 10
1472.4609375
 20
-5016.18359375
 10
1482.27734375
 20
-5016.18359375
 10
1492.09375
 20
-5016.18359375
 10
1501.91015625
 20
-5016.18359375
 10
1511.7265625
 20
-5016.18359375
 10
1521.54296875
 20
-5016.18359375
 10
1531.359375
 20
-5016.18359375
 10
1541.17578125
 20
-5016.18359375
 10
1550.9921875
 20
-5016.18359375
 10
1560.80859375
 20
-5016.18359375
 10
1570.625
 20
-5016.18359375
 10
1580.44140625
 20
-5016.18359375
 10
1590.2578125
 20
-5016.18359375
 10
1600.07421875
 20
-5016.18359375
 10
1609.890625
 20
-5016.18359375
 10
1619.70703125
 20
-5016.18359375
 10
1629.5234375
 20
-5016.18359375
 10
1639.33984375
 20
-5016.18359375
 10
1649.15625
 20
-5016.18359375
 10
1658.97265625
 20
-5016.18359375
 10
1668.7890625
 20
-5016.18359375
 10
1678.60546875
 20
-5016.18359375
 10
1688.421875
 20
-5016.18359375
 10
1698.23828125
 20
-5016.18359375
 10
1708.0546875
 20
-5016.18359375
 10
1717.87109375
 20
-5016.18359375
 10
1727.6875
 20
-5016.18359375
 10
1737.50390625
 20
-5016.18359375
 10
1747.3203125
 20
-5016.18359375
 10
1757.13671875
 20
-5016.18359375
 10
1766.953125
 20
-5016.18359375
 10
1776.76953125
 20
-5016.18359375
 10
1786.5859375
 20
-5016.18359375
 10
1796.40234375
 20
-5016.18359375
 10
1806.21875
 20
-5016.18359375
 10
1816.03515625
 20
-5016.18359375
 10
1825.8515625
 20
-5016.18359375
 10
1835.66796875
 20
-5016.18359375
 10
1845.484375
 20
-5016.18359375
 10
1855.30078125
 20
-5016.18359375
 10
1865.1171875
 20
-5016.18359375
 10
1874.93359375
 20
-5016.18359375
 10
1884.75
 20
-5016.18359375
 10
1894.56640625
 20
-5016.18359375
 10
1904.3828125
 20
-5016.18359375
 10
1914.19921875
 20
-5016.18359375
 10
1924.015625
 20
-5016.18359375
 10
1933.83203125
 20
-5016.18359375
 10
1943.6484375
 20
-5016.18359375
 10
1953.46484375
 20
-5016.18359375
 10
1963.28125
 20
-5016.18359375
 10
1973.09765625
 20
-5016.18359375
 10
1982.9140625
 20
-5016.18359375
 10
1992.73046875
 20
-5016.18359375
 10
2002.546875
 20
-5016.18359375
 10
2012.36328125
 20
-5016.18359375
 10
2022.1796875
 20
-5016.18359375
 10
2031.99609375
 20
-5016.18359375
 10
2041.8125
 20
-5016.18359375
 10
2051.62890625
 20
-5016.18359375
 10
2061.4453125
 20
-5016.18359375
 10
2071.26171875
 20
-5016.18359375
 10
2081.078125
 20
-5016.18359375
 10
2090.89453125
 20
-5016.18359375
 10
2100.7109375
 20
-5016.18359375
 10
2110.52734375
 20
-5016.18359375
 10
2120.34375
 20
-5016.18359375
 10
2130.16015625
 20
-5016.18359375
 10
2139.9765625
 20
-5016.18359375
 10
2149.79296875
 20
-5016.18359375
 10
2159.609375
 20
-5016.18359375
 10
2169.42578125
 20
-5016.18359375
 10
2179.2421875
 20
-5016.18359375
 10
2189.05859375
 20
-5016.18359375
 10
2198.875
 20
-5016.18359375
 10
2208.69140625
 20
-5016.18359375
 10
2218.5078125
 20
-5016.18359375
 10
2228.32421875
 20
-5016.18359375
 10
2238.140625
 20
-5016.18359375
 10
2247.95703125
 20
-5016.18359375
 10
2257.7734375
 20
-5016.18359375
 10
2267.58984375
 20
-5016.18359375
 10
2277.40625
 20
-5016.18359375
 10
2287.22265625
 20
-5016.18359375
 10
2297.0390625
 20
-5016.18359375
 10
2306.85546875
 20
-5016.18359375
 10
2316.671875
 20
-5016.18359375
 10
2326.48828125
 20
-5016.18359375
 10
2336.3046875
 20
-5016.18359375
 10
2346.12109375
 20
-5016.18359375
 10
2355.9375
 20
-5016.18359375
 10
2365.75390625
 20
-5016.18359375
 10
2375.5703125
 20
-5016.18359375
 10
2385.38671875
 20
-5016.18359375
 10
2395.203125
 20
-5016.18359375
 10
2405.01953125
 20
-5016.18359375
 10
2414.8359375
 20
-5016.18359375
 10
2424.65234375
 20
-5016.18359375
 10
2434.46875
 20
-5016.18359375
 10
2444.28515625
 20
-5016.18359375
 10
2454.1015625
 20
-5016.18359375
 10
2463.91796875
 20
-5016.18359375
 10
2473.734375
 20
-5016.18359375
 10
2483.55078125
 20
-5016.18359375
 10
2493.3671875
 20
-5016.18359375
 10
2503.18359375
 20
-5016.18359375
 10
2513.0
 20
-5016.18359375
 10
2522.81640625
 20
-5016.18359375
 10
2532.6328125
 20
-5016.18359375
 10
2542.44921875
 20
-5016.18359375
 10
2552.265625
 20
-5016.18359375
 10
2562.08203125
 20
-5016.18359375
 10
2571.8984375
 20
-5016.18359375
 10
2581.71484375
 20
-5016.18359375
 10
2591.53125
 20
-5016.18359375
 10
2601.34765625
 20
-5016.18359375
 10
2611.1640625
 20
-5016.18359375
 10
2620.98046875
 20
-5016.18359375
 10
2630.796875
 20
-5016.18359375
 10
2640.61328125
 20
-5016.18359375
 10
2650.4296875
 20
-5016.18359375
 10
2660.24609375
 20
-5016.18359375
 10
2670.0625
 20
-5016.18359375
 10
2679.87890625
 20
-5016.18359375
 10
2689.6953125
 20
-5016.18359375
 10
2699.51171875
 20
-5016.18359375
 10
2709.328125
 20
-5016.18359375
 10
2719.14453125
 20
-5016.18359375
 10
2728.9609375
 20
-5016.18359375
 10
2738.77734375
 20
-5016.18359375
 10
2748.59375
 20
-5016.18359375
 10
2758.41015625
 20
-5016.18359375
 10
2768.2265625
 20
-5016.18359375
 10
2778.04296875
 20
-5016.18359375
 10
2787.859375
 20
-5016.18359375
 10
2797.67578125
 20
-5016.18359375
 10
2807.4921875
 20
-5016.18359375
 10
2817.30859375
 20
-5016.18359375
 10
2827.125
 20
-5016.18359375
 10
2836.94140625
 20
-5016.18359375
 10
2846.7578125
 20
-5016.18359375
 10
2856.57421875
 20
-5016.18359375
 10
2866.390625
 20
-5016.18359375
 10
2876.20703125
 20
-5016.18359375
 10
2886.0234375
 20
-5016.18359375
 10
2895.83984375
 20
-5016.18359375
 10
2905.65625
 20
-5016.18359375
 10
2915.47265625
 20
-5016.18359375
 10
2925.2890625
 20
-5016.18359375
 10
2935.10546875
 20
-5016.18359375
 10
2944.921875
 20
-5016.18359375
 10
2954.73828125
 20
-5016.18359375
 10
2964.5546875
 20
-5016.18359375
 10
2974.37109375
 20
-5016.18359375
 10
2984.1875
 20
-5016.18359375
 10
2994.00390625
 20
-5016.18359375
 10
3003.8203125
 20
-5016.18359375
 10
3013.63671875
 20
-5016.18359375
 10
3023.453125
 20
-5016.18359375
 10
3033.26953125
 20
-5016.18359375
 10
3043.0859375
 20
-5016.18359375
 10
3052.90234375
 20
-5016.18359375
 10
3062.71875
 20
-5016.18359375
 10
3072.53515625
 20
-5016.18359375
 10
3082.3515625
 20
-5016.18359375
 10
3092.16796875
 20
-5016.18359375
 10
3101.984375
 20
-5016.18359375
 10
3111.80078125
 20
-5016.18359375
 10
3121.6171875
 20
-5016.18359375
 10
3131.43359375
 20
-5016.18359375
 10
3141.25
 20
-5016.18359375
 10
3151.06640625
 20
-5016.18359375
 10
3160.8828125
 20
-5016.18359375
 10
3170.69921875
 20
-5016.18359375
 10
3180.515625
 20
-5016.18359375
 10
3190.33203125
 20
-5016.18359375
 10
3200.1484375
 20
-5016.18359375
 10
3209.96484375
 20
-5016.18359375
 10
3219.78125
 20
-5016.18359375
 10
3229.59765625
 20
-5016.18359375
 10
3239.4140625
 20
-5016.18359375
 10
3249.23046875
 20
-5016.18359375
 10
3259.046875
 20
-5016.18359375
 10
3268.86328125
 20
-5016.18359375
 10
3278.6796875
 20
-5016.18359375
 10
3288.49609375
 20
-5016.18359375
 10
3298.3125
 20
-5016.18359375
 10
3308.12890625
 20
-5016.18359375
 10
3317.9453125
 20
-5016.18359375
 10
3327.76171875
 20
-5016.18359375
 10
3337.578125
 20
-5016.18359375
 10
3347.39453125
 20
-5016.18359375
 10
3357.2109375
 20
-5016.18359375
 10
3367.02734375
 20
-5016.18359375
 10
3376.84375
 20
-5016.18359375
 10
3386.66015625
 20
-5016.18359375
 10
3396.4765625
 20
-5016.18359375
 10
3406.29296875
 20
-5016.18359375
 10
3416.109375
 20
-5016.18359375
 10
3425.92578125
 20
-5016.18359375
 10
3435.7421875
 20
-5016.18359375
 10
3445.55859375
 20
-5016.18359375
 10
3455.375
 20
-5016.18359375
 10
3465.19140625
 20
-5016.18359375
 10
3475.0078125
 20
-5016.18359375
 10
3484.82421875
 20
-5016.18359375
 10
3494.640625
 20
-5016.18359375
 10
3504.45703125
 20
-5016.18359375
 10
3514.2734375
 20
-5016.18359375
 10
3524.08984375
 20
-5016.18359375
 10
3533.90625
 20
-5016.18359375
 10
3543.72265625
 20
-5016.18359375
 10
3553.5390625
 20
-5016.18359375
 10
3563.35546875
 20
-5016.18359375
 10
3573.171875
 20
-5016.18359375
 10
3582.98828125
 20
-5016.18359375
 10
3592.8046875
 20
-5016.18359375
 10
3602.62109375
 20
-5016.18359375
 10
3612.4375
 20
-5016.18359375
 10
3622.25390625
 20
-5016.18359375
 10
3632.0703125
 20
-5016.18359375
 10
3641.88671875
 20
-5016.18359375
 10
3651.703125
 20
-5016.18359375
 10
3661.51953125
 20
-5016.18359375
 10
3671.3359375
 20
-5016.18359375
 10
3681.15234375
 20
-5016.18359375
 10
3690.96875
 20
-5016.18359375
 10
3700.78515625
 20
-5016.18359375
 10
3710.6015625
 20
-5016.18359375
 10
3720.41796875
 20
-5016.18359375
 10
3730.234375
 20
-5016.18359375
 10
3740.05078125
 20
-5016.18359375
 10
3749.8671875
 20
-5016.18359375
 10
3759.68359375
 20
-5016.18359375
 10
3769.5
 20
-5016.18359375
 10
3779.31640625
 20
-5016.18359375
 10
3789.1328125
 20
-5016.18359375
 10
3798.94921875
 20
-5016.18359375
 10
3808.765625
 20
-5016.18359375
 10
3818.58203125
 20
-5016.18359375
 10
3828.3984375
 20
-5016.18359375
 10
3838.21484375
 20
-5016.18359375
 10
3848.03125
 20
-5016.18359375
 10
3857.84765625
 20
-5016.18359375
 10
3867.6640625
 20
-5016.18359375
 10
3877.48046875
 20
-5016.18359375
 10
3887.296875
 20
-5016.18359375
 10
3897.11328125
 20
-5016.18359375
 10
3906.9296875
 20
-5016.18359375
 10
3916.74609375
 20
-5016.18359375
 10
3926.5625
 20
-5016.18359375
 10
3936.37890625
 20
-5016.18359375
 10
3946.1953125
 20
-5016.18359375
 10
3956.01171875
 20
-5016.18359375
 10
3965.828125
 20
-5016.18359375
 10
3975.64453125
 20
-5016.18359375
 10
3985.4609375
 20
-5016.18359375
 10
3995.27734375
 20
-5016.18359375
 10
4005.09375
 20
-5016.18359375
 10
4014.91015625
 20
-5016.18359375
 10
4024.7265625
 20
-5016.18359375
 10
4034.54296875
 20
-5016.18359375
 10
4044.359375
 20
-5016.18359375
 10
4054.17578125
 20
-5016.18359375
 10
4063.9921875
 20
-5016.18359375
 10
4073.80859375
 20
-5016.18359375
 10
4083.625
 20
-5016.18359375
 10
4093.44140625
 20
-5016.18359375
 10
4103.2578125
 20
-5016.18359375
 10
4113.07421875
 20
-5016.18359375
 10
4122.890625
 20
-5016.18359375
 10
4132.70703125
 20
-5016.18359375
 10
4142.5234375
 20
-5016.18359375
 10
4152.33984375
 20
-5016.18359375
 10
4162.15625
 20
-5016.18359375
 10
4171.97265625
 20
-5016.18359375
 10
4181.7890625
 20
-5016.18359375
 10
4191.60546875
 20
-5016.18359375
 10
4201.421875
 20
-5016.18359375
 10
4211.23828125
 20
-5016.18359375
 10
4221.0546875
 20
-5016.18359375
 10
4230.87109375
 20
-5016.18359375
 10
4240.6875
 20
-5016.18359375
 10
4250.50390625
 20
-5016.18359375
 10
4260.3203125
 20
-5016.18359375
 10
4270.13671875
 20
-5016.18359375
 10
4279.953125
 20
-5016.18359375
 10
4289.76953125
 20
-5016.18359375
 10
4299.5859375
 20
-5016.18359375
 10
4309.40234375
 20
-5016.18359375
 10
4319.21875
 20
-5016.18359375
 10
4329.03515625
 20
-5016.18359375
 10
4338.8515625
 20
-5016.18359375
 10
4348.66796875
 20
-5016.18359375
 10
4358.484375
 20
-5016.18359375
 10
4368.30078125
 20
-5016.18359375
 10
4378.1171875
 20
-5016.18359375
 10
4387.93359375
 20
-5016.18359375
 10
4397.75
 20
-5016.18359375
 10
4407.56640625
 20
-5016.18359375
 10
4417.3828125
 20
-5016.18359375
 10
4427.19921875
 20
-5016.18359375
 10
4437.015625
 20
-5016.18359375
 10
4446.83203125
 20
-5016.18359375
 10
4456.6484375
 20
-5016.18359375
 10
4466.46484375
 20
-5016.18359375
 10
4476.28125
 20
-5016.18359375
 10
4486.09765625
 20
-5016.18359375
 10
4495.9140625
 20
-5016.18359375
 10
4505.73046875
 20
-5016.18359375
 10
4515.546875
 20
-5016.18359375
 10
4525.36328125
 20
-5016.18359375
 10
4535.1796875
 20
-5016.18359375
 10
4544.99609375
 20
-5016.18359375
 10
4554.8125
 20
-5016.18359375
 10
4564.62890625
 20
-5016.18359375
 10
4574.4453125
 20
-5016.18359375
 10
4584.26171875
 20
-5016.18359375
 10
4594.078125
 20
-5016.18359375
 10
4603.89453125
 20
-5016.18359375
 10
4613.7109375
 20
-5016.18359375
 10
4623.52734375
 20
-5016.18359375
 10
4633.34375
 20
-5016.18359375
 10
4643.16015625
 20
-5016.18359375
 10
4652.9765625
 20
-5016.18359375
 10
4662.79296875
 20
-5016.18359375
 10
4672.609375
 20
-5016.18359375
 10
4682.42578125
 20
-5016.18359375
 10
4692.2421875
 20
-5016.18359375
 10
4702.05859375
 20
-5016.18359375
 10
4711.875
 20
-5016.18359375
 10
4721.69140625
 20
-5016.18359375
 10
4731.5078125
 20
-5016.18359375
 10
4741.32421875
 20
-5016.18359375
 10
4751.140625
 20
-5016.18359375
 10
4760.95703125
 20
-5016.18359375
 10
4770.7734375
 20
-5016.18359375
 10
4780.58984375
 20
-5016.18359375
 10
4790.40625
 20
-5016.18359375
 10
4800.22265625
 20
-5016.18359375
 10
4810.0390625
 20
-5016.18359375
 10
4819.85546875
 20
-5016.18359375
 10
4829.671875
 20
-5016.18359375
 10
4839.48828125
 20
-5016.18359375
 10
4849.3046875
 20
-5016.18359375
 10
4859.12109375
 20
-5016.18359375
 10
4868.9375
 20
-5016.18359375
 10
4878.75390625
 20
-5016.18359375
 10
4888.5703125
 20
-5016.18359375
 10
4898.38671875
 20
-5016.18359375
 10
4908.203125
 20
-5016.18359375
 10
4918.01953125
 20
-5016.18359375
 10
4927.8359375
 20
-5016.18359375
 10
4937.65234375
 20
-5016.18359375
 10
4947.46875
 20
-5016.18359375
 10
4957.28515625
 20
-5016.18359375
 10
4967.1015625
 20
-5016.18359375
 10
4976.91796875
 20
-5016.18359375
 10
4986.734375
 20
-5016.18359375
 10
4996.55078125
 20
-5016.18359375
 10
5006.3671875
 20
-5016.18359375
 10
5016.18359375
 20
-5016.18359375
 10
5016.18359375
 20
-5006.3671875
 10
5016.18359375
 20
-4996.55078125
 10
5016.18359375
 20
-4986.734375
 10
5016.18359375
 20
-4976.91796875
 10
5016.18359375
 20
-4967.1015625
 10
5016.18359375
 20
-4957.28515625
 10
5016.18359375
 20
-4947.46875
 10
5016.18359375
 20
-4937.65234375
 10
5016.18359375
 20
-4927.8359375
 10
5016.18359375
 20
-4918.01953125
 10
5016.18359375
 20
-4908.203125
 10
5016.18359375
 20
-4898.38671875
 10
5016.18359375
 20
-4888.5703125
 10
5016.18359375
 20
-4878.75390625
 10
5016.18359375
 20
-4868.9375
 10
5016.18359375
 20
-4859.12109375
 10
5016.18359375
 20
-4849.3046875
 10
5016.18359375
 20
-4839.48828125
 10
5016.18359375
 20
-4829.671875
 10
5016.18359375
 20
-4819.85546875
 10
5016.18359375
 20
-4810.0390625
 10
5016.18359375
 20
-4800.22265625
 10
5016.18359375
 20
-4790.40625
 10
5016.18359375
 20
-4780.58984375
 10
5016.18359375
 20
-4770.7734375
 10
5016.18359375
 20
-4760.95703125
 10
5016.18359375
 20
-4751.140625
 10
5016.18359375
 20
-4741.32421875
 10
5016.18359375
 20
-4731.5078125
 10
5016.18359375
 20
-4721.69140625
 10
5016.18359375
 20
-4711.875
 10
5016.18359375
 20
-4702.05859375
 10
5016.18359375
 20
-4692.2421875
 10
5016.18359375
 20
-4682.42578125
 10
5016.18359375
 20
-4672.609375
 10
5016.18359375
 20
-4662.79296875
 10
5016.18359375
 20
-4652.9765625
 10
5016.18359375
 20
-4643.16015625
 10
5016.18359375
 20
-4633.34375
 10
5016.18359375
 20
-4623.52734375
 10
5016.18359375
 20
-4613.7109375
 10
5016.18359375
 20
-4603.89453125
 10
5016.18359375
 20
-4594.078125
 10
5016.18359375
 20
-4584.26171875
 10
5016.18359375
 20
-4574.4453125
 10
5016.18359375
 20
-4564.62890625
 10
5016.18359375
 20
-4554.8125
 10
5016.18359375
 20
-4544.99609375
 10
5016.18359375
 20
-4535.1796875
 10
5016.18359375
 20
-4525.36328125
 10
5016.18359375
 20
-4515.546875
 10
5016.18359375
 20
-4505.73046875
 10
5016.18359375
 20
-4495.9140625
 10
5016.18359375
 20
-4486.09765625
 10
5016.18359375
 20
-4476.28125
 10
5016.18359375
 20
-4466.46484375
 10
5016.18359375
 20
-4456.6484375
 10
5016.18359375
 20
-4446.83203125
 10
5016.18359375
 20
-4437.015625
 10
5016.18359375
 20
-4427.19921875
 10
5016.18359375
 20
-4417.3828125
 10
5016.18359375
 20
-4407.56640625
 10
5016.18359375
 20
-4397.75
 10
5016.18359375
 20
-4387.93359375
 10
5016.18359375
 20
-4378.1171875
 10
5016.18359375
 20
-4368.30078125
 10
5016.18359375
 20
-4358.484375
 10
5016.18359375
 20
-4348.66796875
 10
5016.18359375
 20
-4338.8515625
 10
5016.18359375
 20
-4329.03515625
 10
5016.18359375
 20
-4319.21875
 10
5016.18359375
 20
-4309.40234375
 10
5016.18359375
 20
-4299.5859375
 10
5016.18359375
 20
-4289.76953125
 10
5016.18359375
 20
-4279.953125
 10
5016.18359375
 20
-4270.13671875
 10
5016.18359375
 20
-4260.3203125
 10
5016.18359375
 20
-4250.50390625
 10
5016.18359375
 20
-4240.6875
 10
5016.18359375
 20
-4230.87109375
 10
5016.18359375
 20
-4221.0546875
 10
5016.18359375
 20
-4211.23828125
 10
5016.18359375
 20
-4201.421875
 10
5016.18359375
 20
-4191.60546875
 10
5016.18359375
 20
-4181.7890625
 10
5016.18359375
 20
-4171.97265625
 10
5016.18359375
 20
-4162.15625
 10
5016.18359375
 20
-4152.33984375
 10
5016.18359375
 20
-4142.5234375
 10
5016.18359375
 20
-4132.70703125
 10
5016.18359375
 20
-4122.890625
 10
5016.18359375
 20
-4113.07421875
 10
5016.18359375
 20
-4103.2578125
 10
5016.18359375
 20
-4093.44140625
 10
5016.18359375
 20
-4083.625
 10
5016.18359375
 20
-4073.80859375
 10
5016.18359375
 20
-4063.9921875
 10
5016.18359375
 20
-4054.17578125
 10
5016.18359375
 20
-4044.359375
 10
5016.18359375
 20
-4034.54296875
 10
5016.18359375
 20
-4024.7265625
 10
5016.18359375
 20
-4014.91015625
 10
5016.18359375
 20
-4005.09375
 10
5016.18359375
 20
-3995.27734375
 10
5016.18359375
 20
-3985.4609375
 10
5016.18359375
 20
-3975.64453125
 10
5016.18359375
 20
-3965.828125
 10
5016.18359375
 20
-3956.01171875
 10
5016.18359375
 20
-3946.1953125
 10
5016.18359375
 20
-3936.37890625
 10
5016.18359375
 20
-3926.5625
 10
5016.18359375
 20
-3916.74609375
 10
5016.18359375
 20
-3906.9296875
 10
5016.18359375
 20
-3897.11328125
 10
5016.18359375
 20
-3887.296875
 10
5016.18359375
 20
-3877.48046875
 10
5016.18359375
 20
-3867.6640625
 10
5016.18359375
 20
-3857.84765625
 10
5016.18359375
 20
-3848.03125
 10
5016.18359375
 20
-3838.21484375
 10
5016.18359375
 20
-3828.3984375
 10
5016.18359375
 20
-3818.58203125
 10
5016.18359375
 20
-3808.765625
 10
5016.18359375
 20
-3798.94921875
 10
5016.18359375
 20
-3789.1328125
 10
5016.18359375
 20
-3779.31640625
 10
5016.18359375
 20
-3769.5
 10
5016.18359375
 20
-3759.68359375
 10
5016.18359375
 20
-3749.8671875
 10
5016.18359375
 20
-3740.05078125
 10
5016.18359375
 20
-3730.234375
 10
5016.18359375
 20
-3720.41796875
 10
5016.18359375
 20
-3710.6015625
 10
5016.18359375
 20
-3700.78515625
 10
5016.18359375
 20
-3690.96875
 10
5016.18359375
 20
-3681.15234375
 10
5016.18359375
 20
-3671.3359375
 10
5016.18359375
 20
-3661.51953125
 10
5016.18359375
 20
-3651.703125
 10
5016.18359375
 20
-3641.88671875
 10
5016.18359375
 20
-3632.0703125
 10
5016.18359375
 20
-3622.25390625
 10
5016.18359375
 20
-3612.4375
 10
5016.18359375
 20
-3602.62109375
 10
5016.18359375
 20
-3592.8046875
 10
5016.18359375
 20
-3582.98828125
 10
5016.18359375
 20
-3573.171875
 10
5016.18359375
 20
-3563.35546875
 10
5016.18359375
 20
-3553.5390625
 10
5016.18359375
 20
-3543.72265625
 10
5016.18359375
 20
-3533.90625
 10
5016.18359375
 20
-3524.08984375
 10
5016.18359375
 20
-3514.2734375
 10
5016.18359375
 20
-3504.45703125
 10
5016.18359375
 20
-3494.640625
 10
5016.18359375
 20
-3484.82421875
 10
5016.18359375
 20
-3475.0078125
 10
5016.18359375
 20
-3465.19140625
 10
5016.18359375
 20
-3455.375
 10
5016.18359375
 20
-3445.55859375
 10
5016.18359375
 20
-3435.7421875
 10
5016.18359375
 20
-3425.92578125
 10
5016.18359375
 20
-3416.109375
 10
5016.18359375
 20
-3406.29296875
 10
5016.18359375
 20
-3396.4765625
 10
5016.18359375
 20
-3386.66015625
 10
5016.18359375
 20
-3376.84375
 10
5016.18359375
 20
-3367.02734375
 10
5016.18359375
 20
-3357.2109375
 10
5016.18359375
 20
-3347.39453125
 10
5016.18359375
 20
-3337.578125
 10
5016.18359375
 20
-3327.76171875
 10
5016.18359375
 20
-3317.9453125
 10
5016.18359375
 20
-3308.12890625
 10
5016.18359375
 20
-3298.3125
 10
5016.18359375
 20
-3288.49609375
 10
5016.18359375
 20
-3278.6796875
 10
5016.18359375
 20
-3268.86328125
 10
5016.18359375
 20
-3259.046875
 10
5016.18359375
 20
-3249.23046875
 10
5016.18359375
 20
-3239.4140625
 10
5016.18359375
 20
-3229.59765625
 10
5016.18359375
 20
-3219.78125
 10
5016.18359375
 20
-3209.96484375
 10
5016.18359375
 20
-3200.1484375
 10
5016.18359375
 20
-3190.33203125
 10
5016.18359375
 20
-3180.515625
 10
5016.18359375
 20
-3170.69921875
 10
5016.18359375
 20
-3160.8828125
 10
5016.18359375
 20
-3151.06640625
 10
5016.18359375
 20
-3141.25
 10
5016.18359375
 20
-3131.43359375
 10
5016.18359375
 20
-3121.6171875
 10
5016.18359375
 20
-3111.80078125
 10
5016.18359375
 20
-3101.984375
 10
5016.18359375
 20
-3092.16796875
 10
5016.18359375
 20
-3082.3515625
 10
5016.18359375
 20
-3072.53515625
 10
5016.18359375
 20
-3062.71875
 10
5016.18359375
 20
-3052.90234375
 10
5016.18359375
 20
-3043.0859375
 10
5016.18359375
 20
-3033.26953125
 10
5016.18359375
 20
-3023.453125
 10
5016.18359375
 20
-3013.63671875
 10
5016.18359375
 20
-3003.8203125
 10
5016.18359375
 20
-2994.00390625
 10
5016.18359375
 20
-2984.1875
 10
5016.18359375
 20
-2974.37109375
 10
5016.18359375
 20
-2964.5546875
 10
5016.18359375
 20
-2954.73828125
 10
5016.18359375
 20
-2944.921875
 10
5016.18359375
 20
-2935.10546875
 10
5016.18359375
 20
-2925.2890625
 10
5016.18359375
 20
-2915.47265625
 10
5016.18359375
 20
-2905.65625
 10
5016.18359375
 20
-2895.83984375
 10
5016.18359375
 20
-2886.0234375
 10
5016.18359375
 20
-2876.20703125
 10
5016.18359375
 20
-2866.390625
 10
5016.18359375
 20
-2856.57421875
 10
5016.18359375
 20
-2846.7578125
 10
5016.18359375
 20
-2836.94140625
 10
5016.18359375
 20
-2827.125
 10
5016.18359375
 20
-2817.30859375
 10
5016.18359375
 20
-2807.4921875
 10
5016.18359375
 20
-2797.67578125
 10
5016.18359375
 20
-2787.859375
 10
5016.18359375
 20
-2778.04296875
 10
5016.18359375
 20
-2768.2265625
 10
5016.18359375
 20
-2758.41015625
 10
5016.18359375
 20
-2748.59375
 10
5016.18359375
 20
-2738.77734375
 10
5016.18359375
 20
-2728.9609375
 10
5016.18359375
 20
-2719.14453125
 10
5016.18359375
 20
-2709.328125
 10
5016.18359375
 20
-2699.51171875
 10
5016.18359375
 20
-2689.6953125
 10
5016.18359375
 20
-2679.87890625
 10
5016.18359375
 20
-2670.0625
 10
5016.18359375
 20
-2660.24609375
 10
5016.18359375
 20
-2650.4296875
 10
5016.18359375
 20
-2640.61328125
 10
5016.18359375
 20
-2630.796875
 10
5016.18359375
 20
-2620.98046875
 10
5016.18359375
 20
-2611.1640625
 10
5016.18359375
 20
-2601.34765625
 10
5016.18359375
 20
-2591.53125
 10
5016.18359375
 20
-2581.71484375
 10
5016.18359375
 20
-2571.8984375
 10
5016.18359375
 20
-2562.08203125
 10
5016.18359375
 20
-2552.265625
 10
5016.18359375
 20
-2542.44921875
 10
5016.18359375
 20
-2532.6328125
 10
5016.18359375
 20
-2522.81640625
 10
5016.18359375
 20
-2513.0
 10
5016.18359375
 20
-2503.18359375
 10
5016.18359375
 20
-2493.3671875
 10
5016.18359375
 20
-2483.55078125
 10
5016.18359375
 20
-2473.734375
 10
5016.18359375
 20
-2463.91796875
 10
5016.18359375
 20
-2454.1015625
 10
5016.18359375
 20
-2444.28515625
 10
5016.18359375
 20
-2434.46875
 10
5016.18359375
 20
-2424.65234375
 10
5016.18359375
 20
-2414.8359375
 10
5016.18359375
 20
-2405.01953125
 10
5016.18359375
 20
-2395.203125
 10
5016.18359375
 20
-2385.38671875
 10
5016.18359375
 20
-2375.5703125
 10
5016.18359375
 20
-2365.75390625
 10
5016.18359375
 20
-2355.9375
 10
5016.18359375
 20
-2346.12109375
 10
5016.18359375
 20
-2336.3046875
 10
5016.18359375
 20
-2326.48828125
 10
5016.18359375
 20
-2316.671875
 10
5016.18359375
 20
-2306.85546875
 10
5016.18359375
 20
-2297.0390625
 10
5016.18359375
 20
-2287.22265625
 10
5016.18359375
 20
-2277.40625
 10
5016.18359375
 20
-2267.58984375
 10
5016.18359375
 20
-2257.7734375
 10
5016.18359375
 20
-2247.95703125
 10
5016.18359375
 20
-2238.140625
 10
5016.18359375
 20
-2228.32421875
 10
5016.18359375
 20
-2218.5078125
 10
5016.18359375
 20
-2208.69140625
 10
5016.18359375
 20
-2198.875
 10
5016.18359375
 20
-2189.05859375
 10
5016.18359375
 20
-2179.2421875
 10
5016.18359375
 20
-2169.42578125
 10
5016.18359375
 20
-2159.609375
 10
5016.18359375
 20
-2149.79296875
 10
5016.18359375
 20
-2139.9765625
 10
5016.18359375
 20
-2130.16015625
 10
5016.18359375
 20
-2120.34375
 10
5016.18359375
 20
-2110.52734375
 10
5016.18359375
 20
-2100.7109375
 10
5016.18359375
 20
-2090.89453125
 10
5016.18359375
 20
-2081.078125
 10
5016.18359375
 20
-2071.26171875
 10
5016.18359375
 20
-2061.4453125
 10
5016.18359375
 20
-2051.62890625
 10
5016.18359375
 20
-2041.8125
 10
5016.18359375
 20
-2031.99609375
 10
5016.18359375
 20
-2022.1796875
 10
5016.18359375
 20
-2012.36328125
 10
5016.18359375
 20
-2002.546875
 10
5016.18359375
 20
-1992.73046875
 10
5016.18359375
 20
-1982.9140625
 10
5016.18359375
 20
-1973.09765625
 10
5016.18359375
 20
-1963.28125
 10
5016.18359375
 20
-1953.46484375
 10
5016.18359375
 20
-1943.6484375
 10
5016.18359375
 20
-1933.83203125
 10
5016.18359375
 20
-1924.015625
 10
5016.18359375
 20
-1914.19921875
 10
5016.18359375
 20
-1904.3828125
 10
5016.18359375
 20
-1894.56640625
 10
5016.18359375
 20
-1884.75
 10
5016.18359375
 20
-1874.93359375
 10
5016.18359375
 20
-1865.1171875
 10
5016.18359375
 20
-1855.30078125
 10
5016.18359375
 20
-1845.484375
 10
5016.18359375
 20
-1835.66796875
 10
5016.18359375
 20
-1825.8515625
 10
5016.18359375
 20
-1816.03515625
 10
5016.18359375
 20
-1806.21875
 10
5016.18359375
 20
-1796.40234375
 10
5016.18359375
 20
-1786.5859375
 10
5016.18359375
 20
-1776.76953125
 10
5016.18359375
 20
-1766.953125
 10
5016.18359375
 20
-1757.13671875
 10
5016.18359375
 20
-1747.3203125
 10
5016.18359375
 20
-1737.50390625
 10
5016.18359375
 20
-1727.6875
 10
5016.18359375
 20
-1717.87109375
 10
5016.18359375
 20
-1708.0546875
 10
5016.18359375
 20
-1698.23828125
 10
5016.18359375
 20
-1688.421875
 10
5016.18359375
 20
-1678.60546875
 10
5016.18359375
 20
-1668.7890625
 10
5016.18359375
 20
-1658.97265625
 10
5016.18359375
 20
-1649.15625
 10
5016.18359375
 20
-1639.33984375
 10
5016.18359375
 20
-1629.5234375
 10
5016.18359375
 20
-1619.70703125
 10
5016.18359375
 20
-1609.890625
 10
5016.18359375
 20
-1600.07421875
 10
5016.18359375
 20
-1590.2578125
 10
5016.18359375
 20
-1580.44140625
 10
5016.18359375
 20
-1570.625
 10
5016.18359375
 20
-1560.80859375
 10
5016.18359375
 20
-1550.9921875
 10
5016.18359375
 20
-1541.17578125
 10
5016.18359375
 20
-1531.359375
 10
5016.18359375
 20
-1521.54296875
 10
5016.18359375
 20
-1511.7265625
 10
5016.18359375
 20
-1501.91015625
 10
5016.18359375
 20
-1492.09375
 10
5016.18359375
 20
-1482.27734375
 10
5016.18359375
 20
-1472.4609375
 10
5016.18359375
 20
-1462.64453125
 10
5016.18359375
 20
-1452.828125
 10
5016.18359375
 20
-1443.01171875
 10
5016.18359375
 20
-1433.1953125
 10
5016.18359375
 20
-1423.37890625
 10
5016.18359375
 20
-1413.5625
 10
5016.18359375
 20
-1403.74609375
 10
5016.18359375
 20
-1393.9296875
 10
5016.18359375
 20
-1384.11328125
 10
5016.18359375
 20
-1374.296875
 10
5016.18359375
 20
-1364.48046875
 10
5016.18359375
 20
-1354.6640625
 10
5016.18359375
 20
-1344.84765625
 10
5016.18359375
 20
-1335.03125
 10
5016.18359375
 20
-1325.21484375
 10
5016.18359375
 20
-1315.3984375
 10
5016.18359375
 20
-1305.58203125
 10
5016.18359375
 20
-1295.765625
 10
5016.18359375
 20
-1285.94921875
 10
5016.18359375
 20
-1276.1328125
 10
5016.18359375
 20
-1266.31640625
 10
5016.18359375
 20
-1256.5
 10
5016.18359375
 20
-1246.68359375
 10
5016.18359375
 20
-1236.8671875
 10
5016.18359375
 20
-1227.05078125
 10
5016.18359375
 20
-1217.234375
 10
5016.18359375
 20
-1207.41796875
 10
5016.18359375
 20
-1197.6015625
 10
5016.18359375
 20
-1187.78515625
 10
5016.18359375
 20
-1177.96875
 10
5016.18359375
 20
-1168.15234375
 10
5016.18359375
 20
-1158.3359375
 10
5016.18359375
 20
-1148.51953125
 10
5016.18359375
 20
-1138.703125
 10
5016.18359375
 20
-1128.88671875
 10
5016.18359375
 20
-1119.0703125
 10
5016.18359375
 20
-1109.25390625
 10
5016.18359375
 20
-1099.4375
 10
5016.18359375
 20
-1089.62109375
 10
5016.18359375
 20
-1079.8046875
 10
5016.18359375
 20
-1069.98828125
 10
5016.18359375
 20
-1060.171875
 10
5016.18359375
 20
-1050.35546875
 10
5016.18359375
 20
-1040.5390625
 10
5016.18359375
 20
-1030.72265625
 10
5016.18359375
 20
-1020.90625
 10
5016.18359375
 20
-1011.08984375
 10
5016.18359375
 20
-1001.2734375
 10
5016.18359375
 20
-991.45703125
 10
5016.18359375
 20
-981.640625
 10
5016.18359375
 20
-971.82421875
 10
5016.18359375
 20
-962.0078125
 10
5016.18359375
 20
-952.19140625
 10
5016.18359375
 20
-942.375
 10
5016.18359375
 20
-932.55859375
 10
5016.18359375
 20
-922.7421875
 10
5016.18359375
 20
-912.92578125
 10
5016.18359375
 20
-903.109375
 10
5016.18359375
 20
-893.29296875
 10
5016.18359375
 20
-883.4765625
 10
5016.18359375
 20
-873.66015625
 10
5016.18359375
 20
-863.84375
 10
5016.18359375
 20
-854.02734375
 10
5016.18359375
 20
-844.2109375
 10
5016.18359375
 20
-834.39453125
 10
5016.18359375
 20
-824.578125
 10
5016.18359375
 20
-814.76171875
 10
5016.18359375
 20
-804.9453125
 10
5016.18359375
 20
-795.12890625
 10
5016.18359375
 20
-785.3125
 10
5016.18359375
 20
-775.49609375
 10
5016.18359375
 20
-765.6796875
 10
5016.18359375
 20
-755.86328125
 10
5016.18359375
 20
-746.046875
 10
5016.18359375
 20
-736.23046875
 10
5016.18359375
 20
-726.4140625
 10
5016.18359375
 20
-716.59765625
 10
5016.18359375
 20
-706.78125
 10
5016.18359375
 20
-696.96484375
 10
5016.18359375
 20
-687.1484375
 10
5016.18359375
 20
-677.33203125
 10
5016.18359375
 20
-667.515625
 10
5016.18359375
 20
-657.69921875
 10
5016.18359375
 20
-647.8828125
 10
5016.18359375
 20
-638.06640625
 10
5016.18359375
 20
-628.25
 10
5016.18359375
 20
-618.43359375
 10
5016.18359375
 20
-608.6171875
 10
5016.18359375
 20
-598.80078125
 10
5016.18359375
 20
-588.984375
 10
5016.18359375
 20
-579.16796875
 10
5016.18359375
 20
-569.3515625
 10
5016.18359375
 20
-559.53515625
 10
5016.18359375
 20
-549.71875
 10
5016.18359375
 20
-539.90234375
 10
5016.18359375
 20
-530.0859375
 10
5016.18359375
 20
-520.26953125
 10
5016.18359375
 20
-510.453125
 10
5016.18359375
 20
-500.63671875
 10
5016.18359375
 20
-490.8203125
 10
5016.18359375
 20
-481.00390625
 10
5016.18359375
 20
-471.1875
 10
5016.18359375
 20
-461.37109375
 10
5016.18359375
 20
-451.5546875
 10
5016.18359375
 20
-441.73828125
 10
5016.18359375
 20
-431.921875
 10
5016.18359375
 20
-422.10546875
 10
5016.18359375
 20
-412.2890625
 10
5016.18359375
 20
-402.47265625
 10
5016.18359375
 20
-392.65625
 10
5016.18359375
 20
-382.83984375
 10
5016.18359375
 20
-373.0234375
 10
5016.18359375
 20
-363.20703125
 10
5016.18359375
 20
-353.390625
 10
5016.18359375
 20
-343.57421875
 10
5016.18359375
 20
-333.7578125
 10
5016.18359375
 20
-323.94140625
 10
5016.18359375
 20
-314.125
 10
5016.18359375
 20
-304.30859375
 10
5016.18359375
 20
-294.4921875
 10
5016.18359375
 20
-284.67578125
 10
5016.18359375
 20
-274.859375
 10
5016.18359375
 20
-265.04296875
 10
5016.18359375
 20
-255.2265625
 10
5016.18359375
 20
-245.41015625
 10
5016.18359375
 20
-235.59375
 10
5016.18359375
 20
-225.77734375
 10
5016.18359375
 20
-215.9609375
 10
5016.18359375
 20
-206.14453125
 10
5016.18359375
 20
-196.328125
 10
5016.18359375
 20
-186.51171875
 10
5016.18359375
 20
-176.6953125
 10
5016.18359375
 20
-166.87890625
 10
5016.18359375
 20
-157.0625
 10
5016.18359375
 20
-147.24609375
 10
5016.18359375
 20
-137.4296875
 10
5016.18359375
 20
-127.61328125
 10
5016.18359375
 20
-117.796875
 10
5016.18359375
 20
-107.98046875
 10
5016.18359375
 20
-98.1640625
 10
5016.18359375
 20
-88.34765625
 10
5016.18359375
 20
-78.53125
 10
5016.18359375
 20
-68.71484375
 10
5016.18359375
 20
-58.8984375
 10
5016.18359375
 20
-49.08203125
 10
5016.18359375
 20
-39.265625
 10
5016.18359375
 20
-29.44921875
 10
5016.18359375
 20
-19.6328125
 10
5016.18359375
 20
-9.81640625
 10
5016.18359375
 20
-0.0
 10
5006.3671875
 20
-0.0
 10
4996.55078125
 20
-0.0
 10
4986.734375
 20
-0.0
 10
4976.91796875
 20
-0.0
 10
4967.1015625
 20
-0.0
 10
4957.28515625
 20
-0.0
 10
4947.46875
 20
-0.0
 10
4937.65234375
 20
-0.0
 10
4927.8359375
 20
-0.0
 10
4918.01953125
 20
-0.0
 10
4908.203125
 20
-0.0
 10
4898.38671875
 20
-0.0
 10
4888.5703125
 20
-0.0
 10
4878.75390625
 20
-0.0
 10
4868.9375
 20
-0.0
 10
4859.12109375
 20
-0.0
 10
4849.3046875
 20
-0.0
 10
4839.48828125
 20
-0.0
 10
4829.671875
 20
-0.0
 10
4819.85546875
 20
-0.0
 10
4810.0390625
 20
-0.0
 10
4800.22265625
 20
-0.0
 10
4790.40625
 20
-0.0
 10
4780.58984375
 20
-0.0
 10
4770.7734375
 20
-0.0
 10
4760.95703125
 20
-0.0
 10
4751.140625
 20
-0.0
 10
4741.32421875
 20
-0.0
 10
4731.5078125
 20
-0.0
 10
4721.69140625
 20
-0.0
 10
4711.875
 20
-0.0
 10
4702.05859375
 20
-0.0
 10
4692.2421875
 20
-0.0
 10
4682.42578125
 20
-0.0
 10
4672.609375
 20
-0.0
 10
4662.79296875
 20
-0.0
 10
4652.9765625
 20
-0.0
 10
4643.16015625
 20
-0.0
 10
4633.34375
 20
-0.0
 10
4623.52734375
 20
-0.0
 10
4613.7109375
 20
-0.0
 10
4603.89453125
 20
-0.0
 10
4594.078125
 20
-0.0
 10
4584.26171875
 20
-0.0
 10
4574.4453125
 20
-0.0
 10
4564.62890625
 20
-0.0
 10
4554.8125
 20
-0.0
 10
4544.99609375
 20
-0.0
 10
4535.1796875
 20
-0.0
 10
4525.36328125
 20
-0.0
 10
4515.546875
 20
-0.0
 10
4505.73046875
 20
-0.0
 10
4495.9140625
 20
-0.0
 10
4486.09765625
 20
-0.0
 10
4476.28125
 20
-0.0
 10
4466.46484375
 20
-0.0
 10
4456.6484375
 20
-0.0
 10
4446.83203125
 20
-0.0
 10
4437.015625
 20
-0.0
 10
4427.19921875
 20
-0.0
 10
4417.3828125
 20
-0.0
 10
4407.56640625
 20
-0.0
 10
4397.75
 20
-0.0
 10
4387.93359375
 20
-0.0
 10
4378.1171875
 20
-0.0
 10
4368.30078125
 20
-0.0
 10
4358.484375
 20
-0.0
 10
4348.66796875
 20
-0.0
 10
4338.8515625
 20
-0.0
 10
4329.03515625
 20
-0.0
 10
4319.21875
 20
-0.0
 10
4309.40234375
 20
-0.0
 10
4299.5859375
 20
-0.0
 10
4289.76953125
 20
-0.0
 10
4279.953125
 20
-0.0
 10
4270.13671875
 20
-0.0
 10
4260.3203125
 20
-0.0
 10
4250.50390625
 20
-0.0
 10
4240.6875
 20
-0.0
 10
4230.87109375
 20
-0.0
 10
4221.0546875
 20
-0.0
 10
4211.23828125
 20
-0.0
 10
4201.421875
 20
-0.0
 10
4191.60546875
 20
-0.0
 10
4181.7890625
 20
-0.0
 10
4171.97265625
 20
-0.0
 10
4162.15625
 20
-0.0
 10
4152.33984375
 20
-0.0
 10
4142.5234375
 20
-0.0
 10
4132.70703125
 20
-0.0
 10
4122.890625
 20
-0.0
 10
4113.07421875
 20
-0.0
 10
4103.2578125
 20
-0.0
 10
4093.44140625
 20
-0.0
 10
4083.625
 20
-0.0
 10
4073.80859375
 20
-0.0
 10
4063.9921875
 20
-0.0
 10
4054.17578125
 20
-0.0
 10
4044.359375
 20
-0.0
 10
4034.54296875
 20
-0.0
 10
4024.7265625
 20
-0.0
 10
4014.91015625
 20
-0.0
 10
4005.09375
 20
-0.0
 10
3995.27734375
 20
-0.0
 10
3985.4609375
 20
-0.0
 10
3975.64453125
 20
-0.0
 10
3965.828125
 20
-0.0
 10
3956.01171875
 20
-0.0
 10
3946.1953125
 20
-0.0
 10
3936.37890625
 20
-0.0
 10
3926.5625
 20
-0.0
 10
3916.74609375
 20
-0.0
 10
3906.9296875
 20
-0.0
 10
3897.11328125
 20
-0.0
 10
3887.296875
 20
-0.0
 10
3877.48046875
 20
-0.0
 10
3867.6640625
 20
-0.0
 10
3857.84765625
 20
-0.0
 10
3848.03125
 20
-0.0
 10
3838.21484375
 20
-0.0
 10
3828.3984375
 20
-0.0
 10
3818.58203125
 20
-0.0
 10
3808.765625
 20
-0.0
 10
3798.94921875
 20
-0.0
 10
3789.1328125
 20
-0.0
 10
3779.31640625
 20
-0.0
 10
3769.5
 20
-0.0
 10
3759.68359375
 20
-0.0
 10
3749.8671875
 20
-0.0
 10
3740.05078125
 20
-0.0
 10
3730.234375
 20
-0.0
 10
3720.41796875
 20
-0.0
 10
3710.6015625
 20
-0.0
 10
3700.78515625
 20
-0.0
 10
3690.96875
 20
-0.0
 10
3681.15234375
 20
-0.0
 10
3671.3359375
 20
-0.0
 10
3661.51953125
 20
-0.0
 10
3651.703125
 20
-0.0
 10
3641.88671875
 20
-0.0
 10
3632.0703125
 20
-0.0
 10
3622.25390625
 20
-0.0
 10
3612.4375
 20
-0.0
 10
3602.62109375
 20
-0.0
 10
3592.8046875
 20
-0.0
 10
3582.98828125
 20
-0.0
 10
3573.171875
 20
-0.0
 10
3563.35546875
 20
-0.0
 10
3553.5390625
 20
-0.0
 10
3543.72265625
 20
-0.0
 10
3533.90625
 20
-0.0
 10
3524.08984375
 20
-0.0
 10
3514.2734375
 20
-0.0
 10
3504.45703125
 20
-0.0
 10
3494.640625
 20
-0.0
 10
3484.82421875
 20
-0.0
 10
3475.0078125
 20
-0.0
 10
3465.19140625
 20
-0.0
 10
3455.375
 20
-0.0
 10
3445.55859375
 20
-0.0
 10
3435.7421875
 20
-0.0
 10
3425.92578125
 20
-0.0
 10
3416.109375
 20
-0.0
 10
3406.29296875
 20
-0.0
 10
3396.4765625
 20
-0.0
 10
3386.66015625
 20
-0.0
 10
3376.84375
 20
-0.0
 10
3367.02734375
 20
-0.0
 10
3357.2109375
 20
-0.0
 10
3347.39453125
 20
-0.0
 10
3337.578125
 20
-0.0
 10
3327.76171875
 20
-0.0
 10
3317.9453125
 20
-0.0
 10
3308.12890625
 20
-0.0
 10
3298.3125
 20
-0.0
 10
3288.49609375
 20
-0.0
 10
3278.6796875
 20
-0.0
 10
3268.86328125
 20
-0.0
 10
3259.046875
 20
-0.0
 10
3249.23046875
 20
-0.0
 10
3239.4140625
 20
-0.0
 10
3229.59765625
 20
-0.0
 10
3219.78125
 20
-0.0
 10
3209.96484375
 20
-0.0
 10
3200.1484375
 20
-0.0
 10
3190.33203125
 20
-0.0
 10
3180.515625
 20
-0.0
 10
3170.69921875
 20
-0.0
 10
3160.8828125
 20
-0.0
 10
3151.06640625
 20
-0.0
 10
3141.25
 20
-0.0
 10
3131.43359375
 20
-0.0
 10
3121.6171875
 20
-0.0
 10
3111.80078125
 20
-0.0
 10
3101.984375
 20
-0.0
 10
3092.16796875
 20
-0.0
 10
3082.3515625
 20
-0.0
 10
3072.53515625
 20
-0.0
 10
3062.71875
 20
-0.0
 10
3052.90234375
 20
-0.0
 10
3043.0859375
 20
-0.0
 10
3033.26953125
 20
-0.0
 10
3023.453125
 20
-0.0
 10
3013.63671875
 20
-0.0
 10
3003.8203125
 20
-0.0
 10
2994.00390625
 20
-0.0
 10
2984.1875
 20
-0.0
 10
2974.37109375
 20
-0.0
 10
2964.5546875
 20
-0.0
 10
2954.73828125
 20
-0.0
 10
2944.921875
 20
-0.0
 10
2935.10546875
 20
-0.0
 10
2925.2890625
 20
-0.0
 10
2915.47265625
 20
-0.0
 10
2905.65625
 20
-0.0
 10
2895.83984375
 20
-0.0
 10
2886.0234375
 20
-0.0
 10
2876.20703125
 20
-0.0
 10
2866.390625
 20
-0.0
 10
2856.57421875
 20
-0.0
 10
2846.7578125
 20
-0.0
 10
2836.94140625
 20
-0.0
 10
2827.125
 20
-0.0
 10
2817.30859375
 20
-0.0
 10
2807.4921875
 20
-0.0
 10
2797.67578125
 20
-0.0
 10
2787.859375
 20
-0.0
 10
2778.04296875
 20
-0.0
 10
2768.2265625
 20
-0.0
 10
2758.41015625
 20
-0.0
 10
2748.59375
 20
-0.0
 10
2738.77734375
 20
-0.0
 10
2728.9609375
 20
-0.0
 10
2719.14453125
 20
-0.0
 10
2709.328125
 20
-0.0
 10
2699.51171875
 20
-0.0
 10
2689.6953125
 20
-0.0
 10
2679.87890625
 20
-0.0
 10
2670.0625
 20
-0.0
 10
2660.24609375
 20
-0.0
 10
2650.4296875
 20
-0.0
 10
2640.61328125
 20
-0.0
 10
2630.796875
 20
-0.0
 10
2620.98046875
 20
-0.0
 10
2611.1640625
 20
-0.0
 10
2601.34765625
 20
-0.0
 10
2591.53125
 20
-0.0
 10
2581.71484375
 20
-0.0
 10
2571.8984375
 20
-0.0
 10
2562.08203125
 20
-0.0
 10
2552.265625
 20
-0.0
 10
2542.44921875
 20
-0.0
 10
2532.6328125
 20
-0.0
 10
2522.81640625
 20
-0.0
 10
2513.0
 20
-0.0
 10
2503.18359375
 20
-0.0
 10
2493.3671875
 20
-0.0
 10
2483.55078125
 20
-0.0
 10
2473.734375
 20
-0.0
 10
2463.91796875
 20
-0.0
 10
2454.1015625
 20
-0.0
 10
2444.28515625
 20
-0.0
 10
2434.46875
 20
-0.0
 10
2424.65234375
 20
-0.0
 10
2414.8359375
 20
-0.0
 10
2405.01953125
 20
-0.0
 10
2395.203125
 20
-0.0
 10
2385.38671875
 20
-0.0
 10
2375.5703125
 20
-0.0
 10
2365.75390625
 20
-0.0
 10
2355.9375
 20
-0.0
 10
2346.12109375
 20
-0.0
 10
2336.3046875
 20
-0.0
 10
2326.48828125
 20
-0.0
 10
2316.671875
 20
-0.0
 10
2306.85546875
 20
-0.0
 10
2297.0390625
 20
-0.0
 10
2287.22265625
 20
-0.0
 10
2277.40625
 20
-0.0
 10
2267.58984375
 20
-0.0
 10
2257.7734375
 20
-0.0
 10
2247.95703125
 20
-0.0
 10
2238.140625
 20
-0.0
 10
2228.32421875
 20
-0.0
 10
2218.5078125
 20
-0.0
 10
2208.69140625
 20
-0.0
 10
2198.875
 20
-0.0
 10
2189.05859375
 20
-0.0
 10
2179.2421875
 20
-0.0
 10
2169.42578125
 20
-0.0
 10
2159.609375
 20
-0.0
 10
2149.79296875
 20
-0.0
 10
2139.9765625
 20
-0.0
 10
2130.16015625
 20
-0.0
 10
2120.34375
 20
-0.0
 10
2110.52734375
 20
-0.0
 10
2100.7109375
 20
-0.0
 10
2090.89453125
 20
-0.0
 10
2081.078125
 20
-0.0
 10
2071.26171875
 20
-0.0
 10
2061.4453125
 20
-0.0
 10
2051.62890625
 20
-0.0
 10
2041.8125
 20
-0.0
 10
2031.99609375
 20
-0.0
 10
2022.1796875
 20
-0.0
 10
2012.36328125
 20
-0.0
 10
2002.546875
 20
-0.0
 10
1992.73046875
 20
-0.0
 10
1982.9140625
 20
-0.0
 10
1973.09765625
 20
-0.0
 10
1963.28125
 20
-0.0
 10
1953.46484375
 20
-0.0
 10
1943.6484375
 20
-0.0
 10
1933.83203125
 20
-0.0
 10
1924.015625
 20
-0.0
 10
1914.19921875
 20
-0.0
 10
1904.3828125
 20
-0.0
 10
1894.56640625
 20
-0.0
 10
1884.75
 20
-0.0
 10
1874.93359375
 20
-0.0
 10
1865.1171875
 20
-0.0
 10
1855.30078125
 20
-0.0
 10
1845.484375
 20
-0.0
 10
1835.66796875
 20
-0.0
 10
1825.8515625
 20
-0.0
 10
1816.03515625
 20
-0.0
 10
1806.21875
 20
-0.0
 10
1796.40234375
 20
-0.0
 10
1786.5859375
 20
-0.0
 10
1776.76953125
 20
-0.0
 10
1766.953125
 20
-0.0
 10
1757.13671875
 20
-0.0
 10
1747.3203125
 20
-0.0
 10
1737.50390625
 20
-0.0
 10
1727.6875
 20
-0.0
 10
1717.87109375
 20
-0.0
 10
1708.0546875
 20
-0.0
 10
1698.23828125
 20
-0.0
 10
1688.421875
 20
-0.0
 10
1678.60546875
 20
-0.0
 10
1668.7890625
 20
-0.0
 10
1658.97265625
 20
-0.0
 10
1649.15625
 20
-0.0
 10
1639.33984375
 20
-0.0
 10
1629.5234375
 20
-0.0
 10
1619.70703125
 20
-0.0
 10
1609.890625
 20
-0.0
 10
1600.07421875
 20
-0.0
 10
1590.2578125
 20
-0.0
 10
1580.44140625
 20
-0.0
 10
1570.625
 20
-0.0
 10
1560.80859375
 20
-0.0
 10
1550.9921875
 20
-0.0
 10
1541.17578125
 20
-0.0
 10
1531.359375
 20
-0.0
 10
1521.54296875
 20
-0.0
 10
1511.7265625
 20
-0.0
 10
1501.91015625
 20
-0.0
 10
1492.09375
 20
-0.0
 10
1482.27734375
 20
-0.0
 10
1472.4609375
 20
-0.0
 10
1462.64453125
 20
-0.0
 10
1452.828125
 20
-0.0
 10
1443.01171875
 20
-0.0
 10
1433.1953125
 20
-0.0
 10
1423.37890625
 20
-0.0
 10
1413.5625
 20
-0.0
 10
1403.74609375
 20
-0.0
 10
1393.9296875
 20
-0.0
 10
1384.11328125
 20
-0.0
 10
1374.296875
 20
-0.0
 10
1364.48046875
 20
-0.0
 10
1354.6640625
 20
-0.0
 10
1344.84765625
 20
-0.0
 10
1335.03125
 20
-0.0
 10
1325.21484375
 20
-0.0
 10
1315.3984375
 20
-0.0
 10
1305.58203125
 20
-0.0
 10
1295.765625
 20
-0.0
 10
1285.94921875
 20
-0.0
 10
1276.1328125
 20
-0.0
 10
1266.31640625
 20
-0.0
 10
1256.5
 20
-0.0
 10
1246.68359375
 20
-0.0
 10
1236.8671875
 20
-0.0
 10
1227.05078125
 20
-0.0
 10
1217.234375
 20
-0.0
 10
1207.41796875
 20
-0.0
 10
1197.6015625
 20
-0.0
 10
1187.78515625
 20
-0.0
 10
1177.96875
 20
-0.0
 10
1168.15234375
 20
-0.0
 10
1158.3359375
 20
-0.0
 10
1148.51953125
 20
-0.0
 10
1138.703125
 20
-0.0
 10
1128.88671875
 20
-0.0
 10
1119.0703125
 20
-0.0
 10
1109.25390625
 20
-0.0
 10
1099.4375
 20
-0.0
 10
1089.62109375
 20
-0.0
 10
1079.8046875
 20
-0.0
 10
1069.98828125
 20
-0.0
 10
1060.171875
 20
-0.0
 10
1050.35546875
 20
-0.0
 10
1040.5390625
 20
-0.0
 10
1030.72265625
 20
-0.0
 10
1020.90625
 20
-0.0
 10
1011.08984375
 20
-0.0
 10
1001.2734375
 20
-0.0
 10
991.45703125
 20
-0.0
 10
981.640625
 20
-0.0
 10
971.82421875
 20
-0.0
 10
962.0078125
 20
-0.0
 10
952.19140625
 20
-0.0
 10
942.375
 20
-0.0
 10
932.55859375
 20
-0.0
 10
922.7421875
 20
-0.0
 10
912.92578125
 20
-0.0
 10
903.109375
 20
-0.0
 10
893.29296875
 20
-0.0
 10
883.4765625
 20
-0.0
 10
873.66015625
 20
-0.0
 10
863.84375
 20
-0.0
 10
854.02734375
 20
-0.0
 10
844.2109375
 20
-0.0
 10
834.39453125
 20
-0.0
 10
824.578125
 20
-0.0
 10
814.76171875
 20
-0.0
 10
804.9453125
 20
-0.0
 10
795.12890625
 20
-0.0
 10
785.3125
 20
-0.0
 10
775.49609375
 20
-0.0
 10
765.6796875
 20
-0.0
 10
755.86328125
 20
-0.0
 10
746.046875
 20
-0.0
 10
736.23046875
 20
-0.0
 10
726.4140625
 20
-0.0
 10
716.59765625
 20
-0.0
 10
706.78125
 20
-0.0
 10
696.96484375
 20
-0.0
 10
687.1484375
 20
-0.0
 10
677.33203125
 20
-0.0
 10
667.515625
 20
-0.0
 10
657.69921875
 20
-0.0
 10
647.8828125
 20
-0.0
 10
638.06640625
 20
-0.0
 10
628.25
 20
-0.0
 10
618.43359375
 20
-0.0
 10
608.6171875
 20
-0.0
 10
598.80078125
 20
-0.0
 10
588.984375
 20
-0.0
 10
579.16796875
 20
-0.0
 10
569.3515625
 20
-0.0
 10
559.53515625
 20
-0.0
 10
549.71875
 20
-0.0
 10
539.90234375
 20
-0.0
 10
530.0859375
 20
-0.0
 10
520.26953125
 20
-0.0
 10
510.453125
 20
-0.0
 10
500.63671875
 20
-0.0
 10
490.8203125
 20
-0.0
 10
481.00390625
 20
-0.0
 10
471.1875
 20
-0.0
 10
461.37109375
 20
-0.0
 10
451.5546875
 20
-0.0
 10
441.73828125
 20
-0.0
 10
431.921875
 20
-0.0
 10
422.10546875
 20
-0.0
 10
412.2890625
 20
-0.0
 10
402.47265625
 20
-0.0
 10
392.65625
 20
-0.0
 10
382.83984375
 20
-0.0
 10
373.0234375
 20
-0.0
 10
363.20703125
 20
-0.0
 10
353.390625
 20
-0.0
 10
343.57421875
 20
-0.0
 10
333.7578125
 20
-0.0
 10
323.94140625
 20
-0.0
 10
314.125
 20
-0.0
 10
304.30859375
 20
-0.0
 10
294.4921875
 20
-0.0
 10
284.67578125
 20
-0.0
 10
274.859375
 20
-0.0
 10
265.04296875
 20
-0.0
 10
255.2265625
 20
-0.0
 10
245.41015625
 20
-0.0
 10
235.59375
 20
-0.0
 10
225.77734375
 20
-0.0
 10
215.9609375
 20
-0.0
 10
206.14453125
 20
-0.0
 10
196.328125
 20
-0.0
 10
186.51171875
 20
-0.0
 10
176.6953125
 20
-0.0
 10
166.87890625
 20
-0.0
 10
157.0625
 20
-0.0
 10
147.24609375
 20
-0.0
 10
137.4296875
 20
-0.0
 10
127.61328125
 20
-0.0
 10
117.796875
 20
-0.0
 10
107.98046875
 20
-0.0
 10
98.1640625
 20
-0.0
 10
88.34765625
 20
-0.0
 10
78.53125
 20
-0.0
 10
68.71484375
 20
-0.0
 10
58.8984375
 20
-0.0
 10
49.08203125
 20
-0.0
 10
39.265625
 20
-0.0
 10
29.44921875
 20
-0.0
 10
19.6328125
 20
-0.0
 10
9.81640625
 20
-0.0
  0
LWPOLYLINE
  5
38
330
17
100
AcDbEntity
  8
substrate
100
AcDbPolyline
 90
237
 70
1
 43
0.5
 10
2493.3671875
 20
-2100.7109375
 10
2503.18359375
 20
-2090.89453125
 10
2513.0
 20
-2100.7109375
 10
2522.81640625
 20
-2100.7109375
 10
2532.6328125
 20
-2090.89453125
 10
2542.44921875
 20
-2090.89453125
 10
2552.265625
 20
-2100.7109375
 10
2562.08203125
 20
-2100.7109375
 10
2571.8984375
 20
-2100.7109375
 10
2581.71484375
 20
-2100.7109375
 10
2591.53125
 20
-2110.52734375
 10
2601.34765625
 20
-2100.7109375
 10
2611.1640625
 20
-2110.52734375
 10
2620.98046875
 20
-2120.34375
 10
2630.796875
 20
-2110.52734375
 10
2640.61328125
 20
-2120.34375
 10
2650.4296875
 20
-2120.34375
 10
2660.24609375
 20
-2120.34375
 10
2670.0625
 20
-2130.16015625
 10
2679.87890625
 20
-2139.9765625
 10
2689.6953125
 20
-2139.9765625
 10
2699.51171875
 20
-2149.79296875
 10
2709.328125
 20
-2149.79296875
 10
2719.14453125
 20
-2159.609375
 10
2728.9609375
 20
-2159.609375
 10
2738.77734375
 20
-2169.42578125
 10
2748.59375
 20
-2179.2421875
 10
2758.41015625
 20
-2189.05859375
 10
2768.2265625
 20
-2198.875
 10
2778.04296875
 20
-2208.69140625
 10
2787.859375
 20
-2218.5078125
 10
2797.67578125
 20
-2218.5078125
 10
2807.4921875
 20
-2228.32421875
 10
2807.4921875
 20
-2238.140625
 10
2817.30859375
 20
-2247.95703125
 10
2827.125
 20
-2257.7734375
 10
2827.125
 20
-2267.58984375
 10
2836.94140625
 20
-2277.40625
 10
2846.7578125
 20
-2287.22265625
 10
2856.57421875
 20
-2297.0390625
 10
2866.390625
 20
-2306.85546875
 10
2866.390625
 20
-2316.671875
 10
2866.390625
 20
-2326.48828125
 10
2876.20703125
 20
-2336.3046875
 10
2886.0234375
 20
-2346.12109375
 10
2886.0234375
 20
-2355.9375
 10
2895.83984375
 20
-2365.75390625
 10
2895.83984375
 20
-2375.5703125
 10
2895.83984375
 20
-2385.38671875
 10
2905.65625
 20
-2395.203125
 10
2905.65625
 20
-2405.01953125
 10
2905.65625
 20
-2414.8359375
 10
2905.65625
 20
-2424.65234375
 10
2915.47265625
 20
-2434.46875
 10
2915.47265625
 20
-2444.28515625
 10
2915.47265625
 20
-2454.1015625
 10
2915.47265625
 20
-2463.91796875
 10
2915.47265625
 20
-2473.734375
 10
2915.47265625
 20
-2483.55078125
 10
2915.47265625
 20
-2493.3671875
 10
2915.47265625
 20
-2503.18359375
 10
2925.2890625
 20
-2513.0
 10
2915.47265625
 20
-2522.81640625
 10
2915.47265625
 20
-2532.6328125
 10
2915.47265625
 20
-2542.44921875
 10
2915.47265625
 20
-2552.265625
 10
2915.47265625
 20
-2562.08203125
 10
2915.47265625
 20
-2571.8984375
 10
2915.47265625
 20
-2581.71484375
 10
2905.65625
 20
-2591.53125
 10
2905.65625
 20
-2601.34765625
 10
2905.65625
 20
-2611.1640625
 10
2905.65625
 20
-2620.98046875
 10
2895.83984375
 20
-2630.796875
 10
2895.83984375
 20
-2640.61328125
 10
2895.83984375
 20
-2650.4296875
 10
2886.0234375
 20
-2660.24609375
 10
2886.0234375
 20
-2670.0625
 10
2876.20703125
 20
-2679.87890625
 10
2876.20703125
 20
-2689.6953125
 10
2876.20703125
 20
-2699.51171875
 10
2866.390625
 20
-2709.328125
 10
2866.390625
 20
-2719.14453125
 10
2856.57421875
 20
-2728.9609375
 10
2846.7578125
 20
-2738.77734375
 10
2836.94140625
 20
-2748.59375
 10
2836.94140625
 20
-2758.41015625
 10
2827.125
 20
-2768.2265625
 10
2817.30859375
 20
-2778.04296875
 10
2807.4921875
 20
-2787.859375
 10
2797.67578125
 20
-2797.67578125
 10
2797.67578125
 20
-2807.4921875
 10
2787.859375
 20
-2817.30859375
 10
2778.04296875
 20
-2817.30859375
 10
2768.2265625
 20
-2827.125
 10
2758.41015625
 20
-2836.94140625
 10
2748.59375
 20
-2836.94140625
 10
2738.77734375
 20
-2846.7578125
 10
2728.9609375
 20
-2856.57421875
 10
2719.14453125
 20
-2856.57421875
 10
2709.328125
 20
-2866.390625
 10
2699.51171875
 20
-2876.20703125
 10
2689.6953125
 20
-2876.20703125
 10
2679.87890625
 20
-2886.0234375
 10
2670.0625
 20
-2886.0234375
 10
2660.24609375
 20
-2895.83984375
 10
2650.4296875
 20
-2895.83984375
 10
2640.61328125
 20
-2895.83984375
 10
2630.796875
 20
-2905.65625
 10
2620.98046875
 20
-2905.65625
 10
2611.1640625
 20
-2905.65625
 10
2601.34765625
 20
-2915.47265625
 10
2591.53125
 20
-2915.47265625
 10
2581.71484375
 20
-2915.47265625
 10
2571.8984375
 20
-2915.47265625
 10
2562.08203125
 20
-2915.47265625
 10
2552.265625
 20
-2915.47265625
 10
2542.44921875
 20
-2915.47265625
 10
2532.6328125
 20
-2925.2890625
 10
2522.81640625
 20
-2915.47265625
 10
2513.0
 20
-2925.2890625
 10
2503.18359375
 20
-2915.47265625
 10
2493.3671875
 20
-2925.2890625
 10
2483.55078125
 20
-2915.47265625
 10
2473.734375
 20
-2915.47265625
 10
2463.91796875
 20
-2915.47265625
 10
2454.1015625
 20
-2915.47265625
 10
2444.28515625
 20
-2915.47265625
 10
2434.46875
 20
-2915.47265625
 10
2424.65234375
 20
-2915.47265625
 10
2414.8359375
 20
-2905.65625
 10
2405.01953125
 20
-2905.65625
 10
2395.203125
 20
-2905.65625
 10
2385.38671875
 20
-2905.65625
 10
2375.5703125
 20
-2895.83984375
 10
2365.75390625
 20
-2895.83984375
 10
2355.9375
 20
-2895.83984375
 10
2346.12109375
 20
-2886.0234375
 10
2336.3046875
 20
-2886.0234375
 10
2326.48828125
 20
-2876.20703125
 10
2316.671875
 20
-2876.20703125
 10
2306.85546875
 20
-2866.390625
 10
2297.0390625
 20
-2866.390625
 10
2287.22265625
 20
-2856.57421875
 10
2277.40625
 20
-2846.7578125
 10
2267.58984375
 20
-2836.94140625
 10
2257.7734375
 20
-2827.125
 10
2247.95703125
 20
-2827.125
 10
2238.140625
 20
-2817.30859375
 10
2228.32421875
 20
-2807.4921875
 10
2218.5078125
 20
-2797.67578125
 10
2208.69140625
 20
-2787.859375
 10
2198.875
 20
-2778.04296875
 10
2189.05859375
 20
-2768.2265625
 10
2179.2421875
 20
-2758.41015625
 10
2179.2421875
 20
-2748.59375
 10
2169.42578125
 20
-2738.77734375
 10
2159.609375
 20
-2728.9609375
 10
2149.79296875
 20
-2719.14453125
 10
2149.79296875
 20
-2709.328125
 10
2139.9765625
 20
-2699.51171875
 10
2139.9765625
 20
-2689.6953125
 10
2130.16015625
 20
-2679.87890625
 10
2130.16015625
 20
-2670.0625
 10
2120.34375
 20
-2660.24609375
 10
2120.34375
 20
-2650.4296875
 10
2110.52734375
 20
-2640.61328125
 10
2110.52734375
 20
-2630.796875
 10
2110.52734375
 20
-2620.98046875
 10
2110.52734375
 20
-2611.1640625
 10
2100.7109375
 20
-2601.34765625
 10
2100.7109375
 20
-2591.53125
 10
2100.7109375
 20
-2581.71484375
 10
2100.7109375
 20
-2571.8984375
 10
2090.89453125
 20
-2562.08203125
 10
2100.7109375
 20
-2552.265625
 10
2100.7109375
 20
-2542.44921875
 10
2100.7109375
 20
-2532.6328125
 10
2090.89453125
 20
-2522.81640625
 10
2100.7109375
 20
-2513.0
 10
2100.7109375
 20
-2503.18359375
 10
2100.7109375
 20
-2493.3671875
 10
2100.7109375
 20
-2483.55078125
 10
2110.52734375
 20
-2473.734375
 10
2110.52734375
 20
-2463.91796875
 10
2110.52734375
 20
-2454.1015625
 10
2100.7109375
 20
-2444.28515625
 10
2110.52734375
 20
-2434.46875
 10
2110.52734375
 20
-2424.65234375
 10
2110.52734375
 20
-2414.8359375
 10
2110.52734375
 20
-2405.01953125
 10
2120.34375
 20
-2395.203125
 10
2120.34375
 20
-2385.38671875
 10
2120.34375
 20
-2375.5703125
 10
2120.34375
 20
-2365.75390625
 10
2130.16015625
 20
-2355.9375
 10
2130.16015625
 20
-2346.12109375
 10
2130.16015625
 20
-2336.3046875
 10
2139.9765625
 20
-2326.48828125
 10
2139.9765625
 20
-2316.671875
 10
2149.79296875
 20
-2306.85546875
 10
2149.79296875
 20
-2297.0390625
 10
2159.609375
 20
-2287.22265625
 10
2169.42578125
 20
-2277.40625
 10
2179.2421875
 20
-2267.58984375
 10
2189.05859375
 20
-2257.7734375
 10
2198.875
 20
-2247.95703125
 10
2208.69140625
 20
-2238.140625
 10
2218.5078125
 20
-2228.32421875
 10
2228.32421875
 20
-2218.5078125
 10
2228.32421875
 20
-2208.69140625
 10
2238.140625
 20
-2198.875
 10
2247.95703125
 20
-2198.875
 10
2257.7734375
 20
-2189.05859375
 10
2267.58984375
 20
-2179.2421875
 10
2277.40625
 20
-2169.42578125
 10
2287.22265625
 20
-2159.609375
 10
2297.0390625
 20
-2149.79296875
 10
2306.85546875
 20
-2149.79296875
 10
2316.671875
 20
-2139.9765625
 10
2326.48828125
 20
-2139.9765625
 10
2336.3046875
 20
-2130.16015625
 10
2346.12109375
 20
-2130.16015625
 10
2355.9375
 20
-2120.34375
 10
2365.75390625
 20
-2120.34375
 10
2375.5703125
 20
-2120.34375
 10
2385.38671875
 20
-2120.34375
 10
2395.203125
 20
-2110.52734375
 10
2405.01953125
 20
-2110.52734375
 10
2414.8359375
 20
-2110.52734375
 10
2424.65234375
 20
-2110.52734375
 10
2434.46875
 20
-2100.7109375
 10
2444.28515625
 20
-2110.52734375
 10
2454.1015625
 20
-2100.7109375
 10
2463.91796875
 20
-2100.7109375
 10
2473.734375
 20
-2100.7109375
 10
2483.55078125
 20
-2100.7109375
  0
LWPOLYLINE
  5
39
330
17
100
AcDbEntity
  8
substrate
100
AcDbPolyline
 90
222
 70
1
 43
0.5
 10
2463.91796875
 20
-2159.609375
 10
2454.1015625
 20
-2169.42578125
 10
2444.28515625
 20
-2169.42578125
 10
2434.46875
 20
-2169.42578125
 10
2424.65234375
 20
-2169.42578125
 10
2414.8359375
 20
-2169.42578125
 10
2405.01953125
 20
-2169.42578125
 10
2395.203125
 20
-2179.2421875
 10
2385.38671875
 20
-2179.2421875
 10
2375.5703125
 20
-2179.2421875
 10
2365.75390625
 20
-2179.2421875
 10
2365.75390625
 20
-2189.05859375
 10
2355.9375
 20
-2198.875
 10
2346.12109375
 20
-2208.69140625
 10
2336.3046875
 20
-2208.69140625
 10
2326.48828125
 20
-2208.69140625
 10
2316.671875
 20
-2218.5078125
 10
2306.85546875
 20
-2218.5078125
 10
2297.0390625
 20
-2228.32421875
 10
2287.22265625
 20
-2218.5078125
 10
2287.22265625
 20
-2228.32421875
 10
2287.22265625
 20
-2238.140625
 10
2277.40625
 20
-2247.95703125
 10
2267.58984375
 20
-2257.7734375
 10
2257.7734375
 20
-2257.7734375
 10
2257.7734375
 20
-2267.58984375
 10
2247.95703125
 20
-2277.40625
 10
2238.140625
 20
-2287.22265625
 10
2228.32421875
 20
-2297.0390625
 10
2218.5078125
 20
-2306.85546875
 10
2218.5078125
 20
-2316.671875
 10
2218.5078125
 20
-2326.48828125
 10
2208.69140625
 20
-2336.3046875
 10
2208.69140625
 20
-2346.12109375
 10
2208.69140625
 20
-2355.9375
 10
2198.875
 20
-2365.75390625
 10
2189.05859375
 20
-2375.5703125
 10
2189.05859375
 20
-2385.38671875
 10
2179.2421875
 20
-2395.203125
 10
2179.2421875
 20
-2405.01953125
 10
2189.05859375
 20
-2414.8359375
 10
2179.2421875
 20
-2424.65234375
 10
2169.42578125
 20
-2424.65234375
 10
2179.2421875
 20
-2434.46875
 10
2169.42578125
 20
-2444.28515625
 10
2169.42578125
 20
-2454.1015625
 10
2169.42578125
 20
-2463.91796875
 10
2159.609375
 20
-2473.734375
 10
2149.79296875
 20
-2473.734375
 10
2159.609375
 20
-2473.734375
 10
2169.42578125
 20
-2483.55078125
 10
2159.609375
 20
-2493.3671875
 10
2149.79296875
 20
-2493.3671875
 10
2149.79296875
 20
-2503.18359375
 10
2149.79296875
 20
-2513.0
 10
2159.609375
 20
-2513.0
 10
2169.42578125
 20
-2522.81640625
 10
2159.609375
 20
-2532.6328125
 10
2149.79296875
 20
-2532.6328125
 10
2159.609375
 20
-2532.6328125
 10
2169.42578125
 20
-2542.44921875
 10
2159.609375
 20
-2552.265625
 10
2149.79296875
 20
-2552.265625
 10
2159.609375
 20
-2552.265625
 10
2169.42578125
 20
-2562.08203125
 10
2169.42578125
 20
-2571.8984375
 10
2169.42578125
 20
-2581.71484375
 10
2169.42578125
 20
-2591.53125
 10
2179.2421875
 20
-2601.34765625
 10
2179.2421875
 20
-2611.1640625
 10
2179.2421875
 20
-2620.98046875
 10
2179.2421875
 20
-2630.796875
 10
2189.05859375
 20
-2630.796875
 10
2198.875
 20
-2640.61328125
 10
2198.875
 20
-2650.4296875
 10
2198.875
 20
-2660.24609375
 10
2208.69140625
 20
-2670.0625
 10
2208.69140625
 20
-2679.87890625
 10
2218.5078125
 20
-2689.6953125
 10
2218.5078125
 20
-2699.51171875
 10
2228.32421875
 20
-2709.328125
 10
2238.140625
 20
-2719.14453125
 10
2238.140625
 20
-2728.9609375
 10
2247.95703125
 20
-2738.77734375
 10
2257.7734375
 20
-2748.59375
 10
2267.58984375
 20
-2758.41015625
 10
2277.40625
 20
-2768.2265625
 10
2287.22265625
 20
-2778.04296875
 10
2297.0390625
 20
-2787.859375
 10
2306.85546875
 20
-2787.859375
 10
2316.671875
 20
-2797.67578125
 10
2326.48828125
 20
-2807.4921875
 10
2336.3046875
 20
-2807.4921875
 10
2346.12109375
 20
-2817.30859375
 10
2355.9375
 20
-2817.30859375
 10
2365.75390625
 20
-2827.125
 10
2375.5703125
 20
-2836.94140625
 10
2385.38671875
 20
-2827.125
 10
2395.203125
 20
-2836.94140625
 10
2405.01953125
 20
-2846.7578125
 10
2414.8359375
 20
-2846.7578125
 10
2424.65234375
 20
-2846.7578125
 10
2434.46875
 20
-2856.57421875
 10
2444.28515625
 20
-2846.7578125
 10
2454.1015625
 20
-2856.57421875
 10
2463.91796875
 20
-2856.57421875
 10
2473.734375
 20
-2856.57421875
 10
2483.55078125
 20
-2856.57421875
 10
2493.3671875
 20
-2866.390625
 10
2503.18359375
 20
-2866.390625
 10
2513.0
 20
-2856.57421875
 10
2522.81640625
 20
-2856.57421875
 10
2532.6328125
 20
-2856.57421875
 10
2542.44921875
 20
-2856.57421875
 10
2552.265625
 20
-2856.57421875
 10
2562.08203125
 20
-2846.7578125
 10
2571.8984375
 20
-2856.57421875
 10
2581.71484375
 20
-2846.7578125
 10
2591.53125
 20
-2846.7578125
 10
2601.34765625
 20
-2846.7578125
 10
2611.1640625
 20
-2846.7578125
 10
2620.98046875
 20
-2836.94140625
 10
2630.796875
 20
-2836.94140625
 10
2640.61328125
 20
-2836.94140625
 10
2650.4296875
 20
-2827.125
 10
2660.24609375
 20
-2827.125
 10
2670.0625
 20
-2817.30859375
 10
2679.87890625
 20
-2817.30859375
 10
2689.6953125
 20
-2807.4921875
 10
2699.51171875
 20
-2797.67578125
 10
2709.328125
 20
-2797.67578125
 10
2719.14453125
 20
-2797.67578125
 10
2719.14453125
 20
-2787.859375
 10
2728.9609375
 20
-2778.04296875
 10
2738.77734375
 20
-2768.2265625
 10
2748.59375
 20
-2758.41015625
 10
2758.41015625
 20
-2758.41015625
 10
2748.59375
 20
-2748.59375
 10
2758.41015625
 20
-2738.77734375
 10
2768.2265625
 20
-2738.77734375
 10
2778.04296875
 20
-2738.77734375
 10
2778.04296875
 20
-2728.9609375
 10
2787.859375
 20
-2719.14453125
 10
2797.67578125
 20
-2719.14453125
 10
2787.859375
 20
-2709.328125
 10
2797.67578125
 20
-2699.51171875
 10
2797.67578125
 20
-2689.6953125
 10
2807.4921875
 20
-2679.87890625
 10
2817.30859375
 20
-2670.0625
 10
2817.30859375
 20
-2660.24609375
 10
2817.30859375
 20
-2650.4296875
 10
2827.125
 20
-2640.61328125
 10
2827.125
 20
-2630.796875
 10
2827.125
 20
-2620.98046875
 10
2836.94140625
 20
-2611.1640625
 10
2846.7578125
 20
-2601.34765625
 10
2846.7578125
 20
-2591.53125
 10
2846.7578125
 20
-2581.71484375
 10
2846.7578125
 20
-2571.8984375
 10
2846.7578125
 20
-2562.08203125
 10
2846.7578125
 20
-2552.265625
 10
2846.7578125
 20
-2542.44921875
 10
2846.7578125
 20
-2532.6328125
 10
2846.7578125
 20
-2522.81640625
 10
2846.7578125
 20
-2513.0
 10
2846.7578125
 20
-2503.18359375
 10
2846.7578125
 20
-2493.3671875
 10
2846.7578125
 20
-2483.55078125
 10
2846.7578125
 20
-2473.734375
 10
2846.7578125
 20
-2463.91796875
 10
2846.7578125
 20
-2454.1015625
 10
2846.7578125
 20
-2444.28515625
 10
2846.7578125
 20
-2434.46875
 10
2846.7578125
 20
-2424.65234375
 10
2846.7578125
 20
-2414.8359375
 10
2846.7578125
 20
-2405.01953125
 10
2846.7578125
 20
-2395.203125
 10
2836.94140625
 20
-2385.38671875
 10
2836.94140625
 20
-2375.5703125
 10
2836.94140625
 20
-2365.75390625
 10
2827.125
 20
-2365.75390625
 10
2817.30859375
 20
-2355.9375
 10
2817.30859375
 20
-2346.12109375
 10
2807.4921875
 20
-2336.3046875
 10
2797.67578125
 20
-2326.48828125
 10
2787.859375
 20
-2316.671875
 10
2778.04296875
 20
-2306.85546875
 10
2778.04296875
 20
-2297.0390625
 10
2768.2265625
 20
-2287.22265625
 10
2758.41015625
 20
-2277.40625
 10
2758.41015625
 20
-2267.58984375
 10
2748.59375
 20
-2267.58984375
 10
2738.77734375
 20
-2257.7734375
 10
2728.9609375
 20
-2247.95703125
 10
2719.14453125
 20
-2238.140625
 10
2719.14453125
 20
-2228.32421875
 10
2709.328125
 20
-2228.32421875
 10
2699.51171875
 20
-2228.32421875
 10
2689.6953125
 20
-2218.5078125
 10
2679.87890625
 20
-2208.69140625
 10
2679.87890625
 20
-2198.875
 10
2670.0625
 20
-2198.875
 10
2660.24609375
 20
-2189.05859375
 10
2650.4296875
 20
-2189.05859375
 10
2640.61328125
 20
-2189.05859375
 10
2630.796875
 20
-2179.2421875
 10
2620.98046875
 20
-2179.2421875
 10
2611.1640625
 20
-2179.2421875
 10
2601.34765625
 20
-2179.2421875
 10
2591.53125
 20
-2179.2421875
 10
2581.71484375
 20
-2169.42578125
 10
2571.8984375
 20
-2179.2421875
 10
2562.08203125
 20
-2169.42578125
 10
2552.265625
 20
-2169.42578125
 10
2542.44921875
 20
-2159.609375
 10
2532.6328125
 20
-2169.42578125
 10
2522.81640625
 20
-2159.609375
 10
2513.0
 20
-2169.42578125
 10
2503.18359375
 20
-2159.609375
 10
2493.3671875
 20
-2159.609375
 10
2483.55078125
 20
-2159.609375
 10
2473.734375
 20
-2159.609375
  0
LWPOLYLINE
  5
3A
330
17
100
AcDbEntity
  8
substrate
100
AcDbPolyline
 90
178
 70
1
 43
0.5
 10
2513.0
 20
-2238.140625
 10
2522.81640625
 20
-2228.32421875
 10
2532.6328125
 20
-2238.140625
 10
2542.44921875
 20
-2228.32421875
 10
2552.265625
 20
-2238.140625
 10
2562.08203125
 20
-2247.95703125
 10
2571.8984375
 20
-2238.140625
 10
2581.71484375
 20
-2247.95703125
 10
2581.71484375
 20
-2257.7734375
 10
2591.53125
 20
-2257.7734375
 10
2601.34765625
 20
-2257.7734375
 10
2611.1640625
 20
-2257.7734375
 10
2620.98046875
 20
-2267.58984375
 10
2630.796875
 20
-2267.58984375
 10
2640.61328125
 20
-2277.40625
 10
2650.4296875
 20
-2277.40625
 10
2660.24609375
 20
-2287.22265625
 10
2670.0625
 20
-2287.22265625
 10
2679.87890625
 20
-2287.22265625
 10
2689.6953125
 20
-2297.0390625
 10
2689.6953125
 20
-2306.85546875
 10
2699.51171875
 20
-2316.671875
 10
2709.328125
 20
-2326.48828125
 10
2719.14453125
 20
-2336.3046875
 10
2719.14453125
 20
-2346.12109375
 10
2728.9609375
 20
-2355.9375
 10
2738.77734375
 20
-2355.9375
 10
2748.59375
 20
-2365.75390625
 10
2748.59375
 20
-2375.5703125
 10
2748.59375
 20
-2385.38671875
 10
2758.41015625
 20
-2395.203125
 10
2768.2265625
 20
-2405.01953125
 10
2768.2265625
 20
-2414.8359375
 10
2758.41015625
 20
-2424.65234375
 10
2768.2265625
 20
-2434.46875
 10
2768.2265625
 20
-2444.28515625
 10
2768.2265625
 20
-2454.1015625
 10
2778.04296875
 20
-2463.91796875
 10
2778.04296875
 20
-2473.734375
 10
2787.859375
 20
-2483.55078125
 10
2778.04296875
 20
-2493.3671875
 10
2768.2265625
 20
-2503.18359375
 10
2778.04296875
 20
-2513.0
 10
2787.859375
 20
-2522.81640625
 10
2778.04296875
 20
-2532.6328125
 10
2768.2265625
 20
-2542.44921875
 10
2778.04296875
 20
-2552.265625
 10
2768.2265625
 20
-2562.08203125
 10
2768.2265625
 20
-2571.8984375
 10
2768.2265625
 20
-2581.71484375
 10
2778.04296875
 20
-2591.53125
 10
2768.2265625
 20
-2601.34765625
 10
2768.2265625
 20
-2611.1640625
 10
2768.2265625
 20
-2620.98046875
 10
2768.2265625
 20
-2630.796875
 10
2768.2265625
 20
-2640.61328125
 10
2758.41015625
 20
-2650.4296875
 10
2748.59375
 20
-2660.24609375
 10
2738.77734375
 20
-2660.24609375
 10
2738.77734375
 20
-2670.0625
 10
2738.77734375
 20
-2679.87890625
 10
2738.77734375
 20
-2689.6953125
 10
2728.9609375
 20
-2699.51171875
 10
2719.14453125
 20
-2689.6953125
 10
2709.328125
 20
-2679.87890625
 10
2719.14453125
 20
-2689.6953125
 10
2719.14453125
 20
-2699.51171875
 10
2709.328125
 20
-2709.328125
 10
2699.51171875
 20
-2709.328125
 10
2689.6953125
 20
-2719.14453125
 10
2679.87890625
 20
-2728.9609375
 10
2670.0625
 20
-2738.77734375
 10
2660.24609375
 20
-2738.77734375
 10
2650.4296875
 20
-2748.59375
 10
2640.61328125
 20
-2748.59375
 10
2630.796875
 20
-2758.41015625
 10
2620.98046875
 20
-2758.41015625
 10
2611.1640625
 20
-2768.2265625
 10
2601.34765625
 20
-2768.2265625
 10
2591.53125
 20
-2768.2265625
 10
2581.71484375
 20
-2778.04296875
 10
2571.8984375
 20
-2778.04296875
 10
2562.08203125
 20
-2778.04296875
 10
2552.265625
 20
-2787.859375
 10
2542.44921875
 20
-2778.04296875
 10
2532.6328125
 20
-2778.04296875
 10
2522.81640625
 20
-2778.04296875
 10
2513.0
 20
-2778.04296875
 10
2503.18359375
 20
-2778.04296875
 10
2493.3671875
 20
-2778.04296875
 10
2483.55078125
 20
-2787.859375
 10
2473.734375
 20
-2787.859375
 10
2463.91796875
 20
-2778.04296875
 10
2454.1015625
 20
-2778.04296875
 10
2444.28515625
 20
-2768.2265625
 10
2444.28515625
 20
-2758.41015625
 10
2434.46875
 20
-2768.2265625
 10
2424.65234375
 20
-2758.41015625
 10
2414.8359375
 20
-2758.41015625
 10
2405.01953125
 20
-2748.59375
 10
2395.203125
 20
-2748.59375
 10
2385.38671875
 20
-2748.59375
 10
2375.5703125
 20
-2738.77734375
 10
2365.75390625
 20
-2738.77734375
 10
2355.9375
 20
-2738.77734375
 10
2346.12109375
 20
-2728.9609375
 10
2346.12109375
 20
-2719.14453125
 10
2336.3046875
 20
-2709.328125
 10
2326.48828125
 20
-2719.14453125
 10
2316.671875
 20
-2709.328125
 10
2306.85546875
 20
-2699.51171875
 10
2306.85546875
 20
-2689.6953125
 10
2297.0390625
 20
-2679.87890625
 10
2297.0390625
 20
-2670.0625
 10
2287.22265625
 20
-2660.24609375
 10
2277.40625
 20
-2650.4296875
 10
2277.40625
 20
-2640.61328125
 10
2267.58984375
 20
-2640.61328125
 10
2257.7734375
 20
-2630.796875
 10
2257.7734375
 20
-2620.98046875
 10
2257.7734375
 20
-2611.1640625
 10
2247.95703125
 20
-2601.34765625
 10
2247.95703125
 20
-2591.53125
 10
2247.95703125
 20
-2581.71484375
 10
2238.140625
 20
-2571.8984375
 10
2238.140625
 20
-2562.08203125
 10
2238.140625
 20
-2552.265625
 10
2228.32421875
 20
-2542.44921875
 10
2238.140625
 20
-2532.6328125
 10
2228.32421875
 20
-2522.81640625
 10
2238.140625
 20
-2513.0
 10
2228.32421875
 20
-2503.18359375
 10
2228.32421875
 20
-2493.3671875
 10
2228.32421875
 20
-2483.55078125
 10
2228.32421875
 20
-2473.734375
 10
2228.32421875
 20
-2463.91796875
 10
2238.140625
 20
-2454.1015625
 10
2247.95703125
 20
-2444.28515625
 10
2238.140625
 20
-2434.46875
 10
2247.95703125
 20
-2424.65234375
 10
2247.95703125
 20
-2414.8359375
 10
2247.95703125
 20
-2405.01953125
 10
2257.7734375
 20
-2395.203125
 10
2257.7734375
 20
-2385.38671875
 10
2267.58984375
 20
-2375.5703125
 10
2267.58984375
 20
-2365.75390625
 10
2257.7734375
 20
-2355.9375
 10
2267.58984375
 20
-2346.12109375
 10
2277.40625
 20
-2346.12109375
 10
2287.22265625
 20
-2355.9375
 10
2277.40625
 20
-2346.12109375
 10
2287.22265625
 20
-2336.3046875
 10
2297.0390625
 20
-2336.3046875
 10
2306.85546875
 20
-2336.3046875
 10
2306.85546875
 20
-2326.48828125
 10
2306.85546875
 20
-2316.671875
 10
2316.671875
 20
-2306.85546875
 10
2326.48828125
 20
-2316.671875
 10
2326.48828125
 20
-2306.85546875
 10
2336.3046875
 20
-2297.0390625
 10
2346.12109375
 20
-2297.0390625
 10
2346.12109375
 20
-2287.22265625
 10
2355.9375
 20
-2277.40625
 10
2365.75390625
 20
-2277.40625
 10
2375.5703125
 20
-2267.58984375
 10
2385.38671875
 20
-2267.58984375
 10
2395.203125
 20
-2257.7734375
 10
2405.01953125
 20
-2257.7734375
 10
2414.8359375
 20
-2257.7734375
 10
2424.65234375
 20
-2257.7734375
 10
2434.46875
 20
-2247.95703125
 10
2444.28515625
 20
-2247.95703125
 10
2454.1015625
 20
-2247.95703125
 10
2463.91796875
 20
-2247.95703125
 10
2473.734375
 20
-2247.95703125
 10
2483.55078125
 20
-2247.95703125
 10
2493.3671875
 20
-2238.140625
 10
2503.18359375
 20
-2238.140625
  0
ENDSEC
  0
SECTION
  2
OBJECTS
  0
DICTIONARY
  5
A
330
0
100
AcDbDictionary
280
0
281
1
  3
ACAD_COLOR
350
B
  3
ACAD_GROUP
350
C
  3
ACAD_LAYOUT
350
D
  3
ACAD_MATERIAL
350
E
  3
ACAD_MLEADERSTYLE
350
F
  3
ACAD_MLINESTYLE
350
10
  3
ACAD_PLOTSETTINGS
350
11
  3
ACAD_PLOTSTYLENAME
350
12
  3
ACAD_SCALELIST
350
14
  3
ACAD_TABLESTYLE
350
15
  3
ACAD_VISUALSTYLE
350
16
  3
EZDXF_META
350
2D
  0
DICTIONARY
  5
B
330
A
100
AcDbDictionary
280
0
281
1
  0
DICTIONARY
  5
C
330
A
100
AcDbDictionary
280
0
281
1
  0
DICTIONARY
  5
D
330
A
100
AcDbDictionary
280
0
281
1
  3
Model
350
1A
  3
Layout1
350
1E
  0
DICTIONARY
  5
E
330
A
100
AcDbDictionary
280
0
281
1
  3
ByBlock
350
1F
  3
ByLayer
350
20
  3
Global
350
21
  0
DICTIONARY
  5
F
330
A
100
AcDbDictionary
280
0
281
1
  3
Standard
350
2C
  0
DICTIONARY
  5
10
330
A
100
AcDbDictionary
280
0
281
1
  3
Standard
350
22
  0
DICTIONARY
  5
11
330
A
100
AcDbDictionary
280
0
281
1
  0
ACDBDICTIONARYWDFLT
  5
12
330
A
100
AcDbDictionary
280
0
281
1
  3
Normal
350
13
100
AcDbDictionaryWithDefault
340
13
  0
ACDBPLACEHOLDER
  5
13
330
12
  0
DICTIONARY
  5
14
330
A
100
AcDbDictionary
280
0
281
1
  0
DICTIONARY
  5
15
330
A
100
AcDbDictionary
280
0
281
1
  0
DICTIONARY
  5
16
330
A
100
AcDbDictionary
280
0
281
1
  0
LAYOUT
  5
1A
330
D
100
AcDbPlotSettings
  1

  2
Adobe PDF
  4
A3
  6

 40
7.5
 41
20.0
 42
7.5
 43
20.0
 44
420.0
 45
297.0
 46
0.0
 47
0.0
 48
0.0
 49
0.0
140
0.0
141
0.0
142
1.0
143
1.0
 70
1024
 72
1
 73
0
 74
5
  7

 75
16
 76
0
 77
2
 78
300
147
1.0
148
0.0
149
0.0
100
AcDbLayout
  1
Model
 70
1
 71
0
 10
0.0
 20
0.0
 11
420.0
 21
297.0
 12
0.0
 22
0.0
 32
0.0
 14
1e+20
 24
1e+20
 34
1e+20
 15
-1e+20
 25
-1e+20
 35
-1e+20
146
0.0
 13
0.0
 23
0.0
 33
0.0
 16
1.0
 26
0.0
 36
0.0
 17
0.0
 27
1.0
 37
0.0
 76
1
330
17
  0
LAYOUT
  5
1E
330
D
100
AcDbPlotSettings
  1

  2
Adobe PDF
  4
A3
  6

 40
7.5
 41
20.0
 42
7.5
 43
20.0
 44
420.0
 45
297.0
 46
0.0
 47
0.0
 48
0.0
 49
0.0
140
0.0
141
0.0
142
1.0
143
1.0
 70
0
 72
1
 73
0
 74
5
  7

 75
16
 76
0
 77
2
 78
300
147
1.0
148
0.0
149
0.0
100
AcDbLayout
  1
Layout1
 70
1
 71
1
 10
0.0
 20
0.0
 11
420.0
 21
297.0
 12
0.0
 22
0.0
 32
0.0
 14
1e+20
 24
1e+20
 34
1e+20
 15
-1e+20
 25
-1e+20
 35
-1e+20
146
0.0
 13
0.0
 23
0.0
 33
0.0
 16
1.0
 26
0.0
 36
0.0
 17
0.0
 27
1.0
 37
0.0
 76
1
330
1B
  0
MATERIAL
  5
1F
102
{ACAD_REACTORS
330
E
102
}
330
E
100
AcDbMaterial
  1
ByBlock
  2

 70
0
 40
1.0
 71
1
 41
1.0
 91
-1023410177
 42
1.0
 72
1
  3

 73
1
 74
1
 75
1
 44
0.5
 73
0
 45
1.0
 46
1.0
 77
1
  4

 78
1
 79
1
170
1
 48
1.0
171
1
  6

172
1
173
1
174
1
140
1.0
141
1.0
175
1
  7

176
1
177
1
178
1
143
1.0
179
1
  8

270
1
271
1
272
1
145
1.0
146
1.0
273
1
  9

274
1
275
1
276
1
 42
1.0
 72
1
  3

 73
1
 74
1
 75
1
 94
63
  0
MATERIAL
  5
20
102
{ACAD_REACTORS
330
E
102
}
330
E
100
AcDbMaterial
  1
ByLayer
  2

 70
0
 40
1.0
 71
1
 41
1.0
 91
-1023410177
 42
1.0
 72
1
  3

 73
1
 74
1
 75
1
 44
0.5
 73
0
 45
1.0
 46
1.0
 77
1
  4

 78
1
 79
1
170
1
 48
1.0
171
1
  6

172
1
173
1
174
1
140
1.0
141
1.0
175
1
  7

176
1
177
1
178
1
143
1.0
179
1
  8

270
1
271
1
272
1
145
1.0
146
1.0
273
1
  9

274
1
275
1
276
1
 42
1.0
 72
1
  3

 73
1
 74
1
 75
1
 94
63
  0
MATERIAL
  5
21
102
{ACAD_REACTORS
330
E
102
}
330
E
100
AcDbMaterial
  1
Global
  2

 70
0
 40
1.0
 71
1
 41
1.0
 91
-1023410177
 42
1.0
 72
1
  3

 73
1
 74
1
 75
1
 44
0.5
 73
0
 45
1.0
 46
1.0
 77
1
  4

 78
1
 79
1
170
1
 48
1.0
171
1
  6

172
1
173
1
174
1
140
1.0
141
1.0
175
1
  7

176
1
177
1
178
1
143
1.0
179
1
  8

270
1
271
1
272
1
145
1.0
146
1.0
273
1
  9

274
1
275
1
276
1
 42
1.0
 72
1
  3

 73
1
 74
1
 75
1
 94
63
  0
MLINESTYLE
  5
22
102
{ACAD_REACTORS
330
10
102
}
330
10
100
AcDbMlineStyle
  2
Standard
 70
0
  3

 62
256
 51
90.0
 52
90.0
 71
2
 49
0.5
 62
256
  6
BYLAYER
 49
-0.5
 62
256
  6
BYLAYER
  0
MLEADERSTYLE
  5
2C
102
{ACAD_REACTORS
330
F
102
}
330
F
100
AcDbMLeaderStyle
179
2
170
2
171
1
172
0
 90
2
 40
0.0
 41
0.0
173
1
 91
-1056964608
 92
-2
290
1
 42
2.0
291
1
 43
8.0
  3
Standard
 44
4.0
300

342
29
174
1
175
1
176
0
178
1
 93
-1056964608
 45
4.0
292
0
297
0
 46
4.0
 94
-1056964608
 47
1.0
 49
1.0
140
1.0
294
1
141
0.0
177
0
142
1.0
295
0
296
0
143
3.75
271
0
272
9
273
9
  0
DICTIONARY
  5
2D
330
A
100
AcDbDictionary
281
1
  3
CREATED_BY_EZDXF
350
2E
  3
WRITTEN_BY_EZDXF
350
3D
  0
DICTIONARYVAR
  5
2E
330
2D
100
DictionaryVariables
280
0
  1
1.1.0 @ 2025-03-08T13:16:53.089692+00:00
  0
DICTIONARYVAR
  5
3D
330
2D
100
DictionaryVariables
280
0
  1
1.1.0 @ 2025-03-08T13:16:53.096042+00:00
  0
ENDSEC
  0
EOF
