  0
SECTION
  2
HEADER
  9
$ACADVER
  1
AC1027
  9
$ACADMAINTVER
 70
105
  9
$DWGCODEPAGE
  3
ANSI_1252
  9
$LASTSAVEDBY
  1
ezdxf
  9
$REQUIREDVERSIONS
160
0
  9
$INSBASE
 10
0.0
 20
0.0
 30
0.0
  9
$EXTMIN
 10
1e+20
 20
1e+20
 30
1e+20
  9
$EXTMAX
 10
-1e+20
 20
-1e+20
 30
-1e+20
  9
$LIMMIN
 10
0.0
 20
0.0
  9
$LIMMAX
 10
420.0
 20
297.0
  9
$ORTHOMODE
 70
0
  9
$REGENMODE
 70
1
  9
$FILLMODE
 70
1
  9
$QTEXTMODE
 70
0
  9
$MIRRTEXT
 70
1
  9
$LTSCALE
 40
1.0
  9
$ATTMODE
 70
1
  9
$TEXTSIZE
 40
2.5
  9
$TRACEWID
 40
1.0
  9
$TEXTSTYLE
  7
Standard
  9
$CLAYER
  8
0
  9
$CELTYPE
  6
ByLayer
  9
$CECOLOR
 62
256
  9
$CELTSCALE
 40
1.0
  9
$DISPSILH
 70
0
  9
$DIMSCALE
 40
1.0
  9
$DIMASZ
 40
2.5
  9
$DIMEXO
 40
0.625
  9
$DIMDLI
 40
3.75
  9
$DIMRND
 40
0.0
  9
$DIMDLE
 40
0.0
  9
$DIMEXE
 40
1.25
  9
$DIMTP
 40
0.0
  9
$DIMTM
 40
0.0
  9
$DIMTXT
 40
2.5
  9
$DIMCEN
 40
2.5
  9
$DIMTSZ
 40
0.0
  9
$DIMTOL
 70
0
  9
$DIMLIM
 70
0
  9
$DIMTIH
 70
0
  9
$DIMTOH
 70
0
  9
$DIMSE1
 70
0
  9
$DIMSE2
 70
0
  9
$DIMTAD
 70
1
  9
$DIMZIN
 70
8
  9
$DIMBLK
  1

  9
$DIMASO
 70
1
  9
$DIMSHO
 70
1
  9
$DIMPOST
  1

  9
$DIMAPOST
  1

  9
$DIMALT
 70
0
  9
$DIMALTD
 70
3
  9
$DIMALTF
 40
0.03937007874
  9
$DIMLFAC
 40
1.0
  9
$DIMTOFL
 70
1
  9
$DIMTVP
 40
0.0
  9
$DIMTIX
 70
0
  9
$DIMSOXD
 70
0
  9
$DIMSAH
 70
0
  9
$DIMBLK1
  1

  9
$DIMBLK2
  1

  9
$DIMSTYLE
  2
ISO-25
  9
$DIMCLRD
 70
0
  9
$DIMCLRE
 70
0
  9
$DIMCLRT
 70
0
  9
$DIMTFAC
 40
1.0
  9
$DIMGAP
 40
0.625
  9
$DIMJUST
 70
0
  9
$DIMSD1
 70
0
  9
$DIMSD2
 70
0
  9
$DIMTOLJ
 70
0
  9
$DIMTZIN
 70
8
  9
$DIMALTZ
 70
0
  9
$DIMALTTZ
 70
0
  9
$DIMUPT
 70
0
  9
$DIMDEC
 70
2
  9
$DIMTDEC
 70
2
  9
$DIMALTU
 70
2
  9
$DIMALTTD
 70
3
  9
$DIMTXSTY
  7
Standard
  9
$DIMAUNIT
 70
0
  9
$DIMADEC
 70
0
  9
$DIMALTRND
 40
0.0
  9
$DIMAZIN
 70
0
  9
$DIMDSEP
 70
44
  9
$DIMATFIT
 70
3
  9
$DIMFRAC
 70
0
  9
$DIMLDRBLK
  1

  9
$DIMLUNIT
 70
2
  9
$DIMLWD
 70
-2
  9
$DIMLWE
 70
-2
  9
$DIMTMOVE
 70
0
  9
$DIMFXL
 40
1.0
  9
$DIMFXLON
 70
0
  9
$DIMJOGANG
 40
0.785398163397
  9
$DIMTFILL
 70
0
  9
$DIMTFILLCLR
 70
0
  9
$DIMARCSYM
 70
0
  9
$DIMLTYPE
  6

  9
$DIMLTEX1
  6

  9
$DIMLTEX2
  6

  9
$DIMTXTDIRECTION
 70
0
  9
$LUNITS
 70
2
  9
$LUPREC
 70
4
  9
$SKETCHINC
 40
1.0
  9
$FILLETRAD
 40
10.0
  9
$AUNITS
 70
0
  9
$AUPREC
 70
2
  9
$MENU
  1
.
  9
$ELEVATION
 40
0.0
  9
$PELEVATION
 40
0.0
  9
$THICKNESS
 40
0.0
  9
$LIMCHECK
 70
0
  9
$CHAMFERA
 40
0.0
  9
$CHAMFERB
 40
0.0
  9
$CHAMFERC
 40
0.0
  9
$CHAMFERD
 40
0.0
  9
$SKPOLY
 70
0
  9
$TDCREATE
 40
2460707.5173958335
  9
$TDUCREATE
 40
2458532.153996898
  9
$TDUPDATE
 40
2460707.5173958335
  9
$TDUUPDATE
 40
2458532.1544311
  9
$TDINDWG
 40
0.0
  9
$TDUSRTIMER
 40
0.0
  9
$USRTIMER
 70
1
  9
$ANGBASE
 50
0.0
  9
$ANGDIR
 70
0
  9
$PDMODE
 70
0
  9
$PDSIZE
 40
0.0
  9
$PLINEWID
 40
0.0
  9
$SPLFRAME
 70
0
  9
$SPLINETYPE
 70
6
  9
$SPLINESEGS
 70
8
  9
$HANDSEED
  5
3F
  9
$SURFTAB1
 70
6
  9
$SURFTAB2
 70
6
  9
$SURFTYPE
 70
6
  9
$SURFU
 70
6
  9
$SURFV
 70
6
  9
$UCSBASE
  2

  9
$UCSNAME
  2

  9
$UCSORG
 10
0.0
 20
0.0
 30
0.0
  9
$UCSXDIR
 10
1.0
 20
0.0
 30
0.0
  9
$UCSYDIR
 10
0.0
 20
1.0
 30
0.0
  9
$UCSORTHOREF
  2

  9
$UCSORTHOVIEW
 70
0
  9
$UCSORGTOP
 10
0.0
 20
0.0
 30
0.0
  9
$UCSORGBOTTOM
 10
0.0
 20
0.0
 30
0.0
  9
$UCSORGLEFT
 10
0.0
 20
0.0
 30
0.0
  9
$UCSORGRIGHT
 10
0.0
 20
0.0
 30
0.0
  9
$UCSORGFRONT
 10
0.0
 20
0.0
 30
0.0
  9
$UCSORGBACK
 10
0.0
 20
0.0
 30
0.0
  9
$PUCSBASE
  2

  9
$PUCSNAME
  2

  9
$PUCSORG
 10
0.0
 20
0.0
 30
0.0
  9
$PUCSXDIR
 10
1.0
 20
0.0
 30
0.0
  9
$PUCSYDIR
 10
0.0
 20
1.0
 30
0.0
  9
$PUCSORTHOREF
  2

  9
$PUCSORTHOVIEW
 70
0
  9
$PUCSORGTOP
 10
0.0
 20
0.0
 30
0.0
  9
$PUCSORGBOTTOM
 10
0.0
 20
0.0
 30
0.0
  9
$PUCSORGLEFT
 10
0.0
 20
0.0
 30
0.0
  9
$PUCSORGRIGHT
 10
0.0
 20
0.0
 30
0.0
  9
$PUCSORGFRONT
 10
0.0
 20
0.0
 30
0.0
  9
$PUCSORGBACK
 10
0.0
 20
0.0
 30
0.0
  9
$USERI1
 70
0
  9
$USERI2
 70
0
  9
$USERI3
 70
0
  9
$USERI4
 70
0
  9
$USERI5
 70
0
  9
$USERR1
 40
0.0
  9
$USERR2
 40
0.0
  9
$USERR3
 40
0.0
  9
$USERR4
 40
0.0
  9
$USERR5
 40
0.0
  9
$WORLDVIEW
 70
1
  9
$SHADEDGE
 70
3
  9
$SHADEDIF
 70
70
  9
$TILEMODE
 70
1
  9
$MAXACTVP
 70
64
  9
$PINSBASE
 10
0.0
 20
0.0
 30
0.0
  9
$PLIMCHECK
 70
0
  9
$PEXTMIN
 10
1e+20
 20
1e+20
 30
1e+20
  9
$PEXTMAX
 10
-1e+20
 20
-1e+20
 30
-1e+20
  9
$PLIMMIN
 10
0.0
 20
0.0
  9
$PLIMMAX
 10
420.0
 20
297.0
  9
$UNITMODE
 70
0
  9
$VISRETAIN
 70
1
  9
$PLINEGEN
 70
0
  9
$PSLTSCALE
 70
1
  9
$TREEDEPTH
 70
3020
  9
$CMLSTYLE
  2
Standard
  9
$CMLJUST
 70
0
  9
$CMLSCALE
 40
20.0
  9
$PROXYGRAPHICS
 70
1
  9
$MEASUREMENT
 70
1
  9
$CELWEIGHT
370
-1
  9
$ENDCAPS
280
0
  9
$JOINSTYLE
280
0
  9
$LWDISPLAY
290
0
  9
$INSUNITS
 70
6
  9
$HYPERLINKBASE
  1

  9
$STYLESHEET
  1

  9
$XEDIT
290
1
  9
$CEPSNTYPE
380
0
  9
$PSTYLEMODE
290
1
  9
$FINGERPRINTGUID
  2
{5A85A5E9-6E6A-4698-B4FB-B507B8994AD0}
  9
$VERSIONGUID
  2
{881EC9A2-ACE4-4530-B30F-828CCDA0BAFE}
  9
$EXTNAMES
290
1
  9
$PSVPSCALE
 40
0.0
  9
$OLESTARTUP
290
0
  9
$SORTENTS
280
127
  9
$INDEXCTL
280
0
  9
$HIDETEXT
280
1
  9
$XCLIPFRAME
280
0
  9
$HALOGAP
280
0
  9
$OBSCOLOR
 70
257
  9
$OBSLTYPE
280
0
  9
$INTERSECTIONDISPLAY
280
0
  9
$INTERSECTIONCOLOR
 70
257
  9
$DIMASSOC
280
2
  9
$PROJECTNAME
  1

  9
$CAMERADISPLAY
290
0
  9
$LENSLENGTH
 40
50.0
  9
$CAMERAHEIGHT
 40
0.0
  9
$STEPSPERSEC
 40
24.0
  9
$STEPSIZE
 40
100.0
  9
$3DDWFPREC
 40
2.0
  9
$PSOLWIDTH
 40
0.005
  9
$PSOLHEIGHT
 40
0.08
  9
$LOFTANG1
 40
1.570796326795
  9
$LOFTANG2
 40
1.570796326795
  9
$LOFTMAG1
 40
0.0
  9
$LOFTMAG2
 40
0.0
  9
$LOFTPARAM
 70
7
  9
$LOFTNORMALS
280
1
  9
$LATITUDE
 40
37.795
  9
$LONGITUDE
 40
-122.394
  9
$NORTHDIRECTION
 40
0.0
  9
$TIMEZONE
 70
-8000
  9
$LIGHTGLYPHDISPLAY
280
1
  9
$TILEMODELIGHTSYNCH
280
1
  9
$CMATERIAL
347
20
  9
$SOLIDHIST
280
0
  9
$SHOWHIST
280
1
  9
$DWFFRAME
280
2
  9
$DGNFRAME
280
2
  9
$REALWORLDSCALE
290
1
  9
$INTERFERECOLOR
 62
256
  9
$CSHADOW
280
0
  9
$SHADOWPLANELOCATION
 40
0.0
  0
ENDSEC
  0
SECTION
  2
CLASSES
  0
CLASS
  1
ACDBDICTIONARYWDFLT
  2
AcDbDictionaryWithDefault
  3
ObjectDBX Classes
 90
0
 91
0
280
0
281
0
  0
CLASS
  1
SUN
  2
AcDbSun
  3
SCENEOE
 90
1153
 91
0
280
0
281
0
  0
CLASS
  1
VISUALSTYLE
  2
AcDbVisualStyle
  3
ObjectDBX Classes
 90
4095
 91
0
280
0
281
0
  0
CLASS
  1
MATERIAL
  2
AcDbMaterial
  3
ObjectDBX Classes
 90
1153
 91
0
280
0
281
0
  0
CLASS
  1
SCALE
  2
AcDbScale
  3
ObjectDBX Classes
 90
1153
 91
0
280
0
281
0
  0
CLASS
  1
TABLESTYLE
  2
AcDbTableStyle
  3
ObjectDBX Classes
 90
4095
 91
0
280
0
281
0
  0
CLASS
  1
MLEADERSTYLE
  2
AcDbMLeaderStyle
  3
ACDB_MLEADERSTYLE_CLASS
 90
4095
 91
0
280
0
281
0
  0
CLASS
  1
DICTIONARYVAR
  2
AcDbDictionaryVar
  3
ObjectDBX Classes
 90
0
 91
0
280
0
281
0
  0
CLASS
  1
CELLSTYLEMAP
  2
AcDbCellStyleMap
  3
ObjectDBX Classes
 90
1152
 91
0
280
0
281
0
  0
CLASS
  1
MENTALRAYRENDERSETTINGS
  2
AcDbMentalRayRenderSettings
  3
SCENEOE
 90
1024
 91
0
280
0
281
0
  0
CLASS
  1
ACDBDETAILVIEWSTYLE
  2
AcDbDetailViewStyle
  3
ObjectDBX Classes
 90
1025
 91
0
280
0
281
0
  0
CLASS
  1
ACDBSECTIONVIEWSTYLE
  2
AcDbSectionViewStyle
  3
ObjectDBX Classes
 90
1025
 91
0
280
0
281
0
  0
CLASS
  1
RASTERVARIABLES
  2
AcDbRasterVariables
  3
ISM
 90
0
 91
0
280
0
281
0
  0
CLASS
  1
LAYOUT
  2
AcDbLayout
  3
ObjectDBX Classes
 90
0
 91
0
280
0
281
0
  0
CLASS
  1
ACDBPLACEHOLDER
  2
AcDbPlaceHolder
  3
ObjectDBX Classes
 90
0
 91
0
280
0
281
0
  0
ENDSEC
  0
SECTION
  2
TABLES
  0
TABLE
  2
VPORT
  5
8
330
0
100
AcDbSymbolTable
 70
1
  0
VPORT
  5
23
330
8
100
AcDbSymbolTableRecord
100
AcDbViewportTableRecord
  2
*Active
 70
0
 10
0.0
 20
0.0
 11
1.0
 21
1.0
 12
0.0
 22
0.0
 13
0.0
 23
0.0
 14
0.5
 24
0.5
 15
0.5
 25
0.5
 16
0.0
 26
0.0
 36
1.0
 17
0.0
 27
0.0
 37
0.0
 40
1000.0
 41
1.34
 42
50.0
 43
0.0
 44
0.0
 50
0.0
 51
0.0
 71
0
 72
1000
 73
1
 74
3
 75
0
 76
0
 77
0
 78
0
281
0
 65
0
146
0.0
  0
ENDTAB
  0
TABLE
  2
LTYPE
  5
2
330
0
100
AcDbSymbolTable
 70
3
  0
LTYPE
  5
24
330
2
100
AcDbSymbolTableRecord
100
AcDbLinetypeTableRecord
  2
ByBlock
 70
0
  3

 72
65
 73
0
 40
0.0
  0
LTYPE
  5
25
330
2
100
AcDbSymbolTableRecord
100
AcDbLinetypeTableRecord
  2
ByLayer
 70
0
  3

 72
65
 73
0
 40
0.0
  0
LTYPE
  5
26
330
2
100
AcDbSymbolTableRecord
100
AcDbLinetypeTableRecord
  2
Continuous
 70
0
  3

 72
65
 73
0
 40
0.0
  0
ENDTAB
  0
TABLE
  2
LAYER
  5
1
330
0
100
AcDbSymbolTable
 70
5
  0
LAYER
  5
27
330
1
100
AcDbSymbolTableRecord
100
AcDbLayerTableRecord
  2
0
 70
0
 62
7
  6
Continuous
370
-3
390
13
347
21
  0
LAYER
  5
28
330
1
100
AcDbSymbolTableRecord
100
AcDbLayerTableRecord
  2
Defpoints
 70
0
 62
7
  6
Continuous
290
0
370
-3
390
13
347
21
  0
LAYER
  5
2F
330
1
100
AcDbSymbolTableRecord
100
AcDbLayerTableRecord
  2
conductor
 70
0
 62
1
  6
Continuous
370
-3
390
13
347
21
  0
LAYER
  5
30
330
1
100
AcDbSymbolTableRecord
100
AcDbLayerTableRecord
  2
dielectric
 70
0
 62
8
  6
Continuous
370
-3
390
13
347
21
  0
LAYER
  5
31
330
1
100
AcDbSymbolTableRecord
100
AcDbLayerTableRecord
  2
substrate
 70
0
 62
5
  6
Continuous
370
-3
390
13
347
21
  0
ENDTAB
  0
TABLE
  2
STYLE
  5
5
330
0
100
AcDbSymbolTable
 70
1
  0
STYLE
  5
29
330
5
100
AcDbSymbolTableRecord
100
AcDbTextStyleTableRecord
  2
Standard
 70
0
 40
0.0
 41
1.0
 50
0.0
 71
0
 42
2.5
  3
txt
  4

  0
ENDTAB
  0
TABLE
  2
VIEW
  5
7
330
0
100
AcDbSymbolTable
 70
0
  0
ENDTAB
  0
TABLE
  2
UCS
  5
6
330
0
100
AcDbSymbolTable
 70
0
  0
ENDTAB
  0
TABLE
  2
APPID
  5
3
330
0
100
AcDbSymbolTable
 70
3
  0
APPID
  5
2A
330
3
100
AcDbSymbolTableRecord
100
AcDbRegAppTableRecord
  2
ACAD
 70
0
  0
APPID
  5
3C
330
3
100
AcDbSymbolTableRecord
100
AcDbRegAppTableRecord
  2
HATCHBACKGROUNDCOLOR
 70
0
  0
APPID
  5
3D
330
3
100
AcDbSymbolTableRecord
100
AcDbRegAppTableRecord
  2
EZDXF
 70
0
  0
ENDTAB
  0
TABLE
  2
DIMSTYLE
  5
4
330
0
100
AcDbSymbolTable
 70
1
100
AcDbDimStyleTable
  0
DIMSTYLE
105
2B
330
4
100
AcDbSymbolTableRecord
100
AcDbDimStyleTableRecord
  2
Standard
 70
0
 40
1.0
 41
2.5
 42
0.625
 43
3.75
 44
1.25
 45
0.0
 46
0.0
 47
0.0
 48
0.0
 49
2.5
140
2.5
141
2.5
142
0.0
143
0.03937007874
144
1.0
145
0.0
146
1.0
147
0.625
148
0.0
 69
0
 70
0
 71
0
 72
0
 73
0
 74
0
 75
0
 76
0
 77
1
 78
8
 79
3
170
0
171
3
172
1
173
0
174
0
175
0
176
0
177
0
178
0
179
2
271
2
272
2
273
2
274
3
275
0
276
0
277
2
278
44
279
0
280
0
281
0
282
0
283
0
284
8
285
0
286
0
288
0
289
3
290
0
371
-2
372
-2
  0
ENDTAB
  0
TABLE
  2
BLOCK_RECORD
  5
9
330
0
100
AcDbSymbolTable
 70
2
  0
BLOCK_RECORD
  5
17
330
9
100
AcDbSymbolTableRecord
100
AcDbBlockTableRecord
  2
*Model_Space
340
1A
 70
0
280
1
281
0
  0
BLOCK_RECORD
  5
1B
330
9
100
AcDbSymbolTableRecord
100
AcDbBlockTableRecord
  2
*Paper_Space
340
1E
 70
0
280
1
281
0
  0
ENDTAB
  0
ENDSEC
  0
SECTION
  2
BLOCKS
  0
BLOCK
  5
18
330
17
100
AcDbEntity
  8
0
100
AcDbBlockBegin
  2
*Model_Space
 70
0
 10
0.0
 20
0.0
 30
0.0
  3
*Model_Space
  1

  0
ENDBLK
  5
19
330
17
100
AcDbEntity
  8
0
100
AcDbBlockEnd
  0
BLOCK
  5
1C
330
1B
100
AcDbEntity
  8
0
100
AcDbBlockBegin
  2
*Paper_Space
 70
0
 10
0.0
 20
0.0
 30
0.0
  3
*Paper_Space
  1

  0
ENDBLK
  5
1D
330
1B
100
AcDbEntity
  8
0
100
AcDbBlockEnd
  0
ENDSEC
  0
SECTION
  2
ENTITIES
  0
LWPOLYLINE
  5
32
330
17
100
AcDbEntity
  8
conductor
100
AcDbPolyline
 90
3
 70
1
 43
0.5
 10
2119.11328125
 20
-2819.00390625
 10
2119.11328125
 20
-2828.724609375
 10
2128.833984375
 20
-2828.724609375
  0
LWPOLYLINE
  5
33
330
17
100
AcDbEntity
  8
conductor
100
AcDbPolyline
 90
1
 70
1
 43
0.5
 10
2099.671875
 20
-2799.5625
  0
LWPOLYLINE
  5
34
330
17
100
AcDbEntity
  8
conductor
100
AcDbPolyline
 90
1
 70
1
 43
0.5
 10
2080.23046875
 20
-2799.5625
  0
LWPOLYLINE
  5
35
330
17
100
AcDbEntity
  8
conductor
100
AcDbPolyline
 90
260
 70
1
 43
0.5
 10
2449.6171875
 20
-2051.068359375
 10
2439.896484375
 20
-2060.7890625
 10
2430.17578125
 20
-2060.7890625
 10
2420.455078125
 20
-2060.7890625
 10
2410.734375
 20
-2060.7890625
 10
2401.013671875
 20
-2060.7890625
 10
2391.29296875
 20
-2070.509765625
 10
2381.572265625
 20
-2060.7890625
 10
2371.8515625
 20
-2060.7890625
 10
2362.130859375
 20
-2060.7890625
 10
2352.41015625
 20
-2070.509765625
 10
2342.689453125
 20
-2070.509765625
 10
2332.96875
 20
-2080.23046875
 10
2323.248046875
 20
-2080.23046875
 10
2313.52734375
 20
-2080.23046875
 10
2303.806640625
 20
-2089.951171875
 10
2294.0859375
 20
-2089.951171875
 10
2284.365234375
 20
-2099.671875
 10
2274.64453125
 20
-2099.671875
 10
2264.923828125
 20
-2109.392578125
 10
2255.203125
 20
-2119.11328125
 10
2245.482421875
 20
-2119.11328125
 10
2245.482421875
 20
-2128.833984375
 10
2235.76171875
 20
-2138.5546875
 10
2226.041015625
 20
-2138.5546875
 10
2216.3203125
 20
-2138.5546875
 10
2206.599609375
 20
-2148.275390625
 10
2196.87890625
 20
-2157.99609375
 10
2187.158203125
 20
-2167.716796875
 10
2177.4375
 20
-2177.4375
 10
2167.716796875
 20
-2177.4375
 10
2157.99609375
 20
-2187.158203125
 10
2157.99609375
 20
-2196.87890625
 10
2148.275390625
 20
-2206.599609375
 10
2138.5546875
 20
-2206.599609375
 10
2138.5546875
 20
-2216.3203125
 10
2138.5546875
 20
-2226.041015625
 10
2128.833984375
 20
-2235.76171875
 10
2119.11328125
 20
-2245.482421875
 10
2109.392578125
 20
-2255.203125
 10
2109.392578125
 20
-2264.923828125
 10
2099.671875
 20
-2274.64453125
 10
2099.671875
 20
-2284.365234375
 10
2099.671875
 20
-2294.0859375
 10
2089.951171875
 20
-2303.806640625
 10
2089.951171875
 20
-2313.52734375
 10
2080.23046875
 20
-2323.248046875
 10
2080.23046875
 20
-2332.96875
 10
2070.509765625
 20
-2342.689453125
 10
2070.509765625
 20
-2352.41015625
 10
2070.509765625
 20
-2362.130859375
 10
2060.7890625
 20
-2371.8515625
 10
2060.7890625
 20
-2381.572265625
 10
2060.7890625
 20
-2391.29296875
 10
2060.7890625
 20
-2401.013671875
 10
2060.7890625
 20
-2410.734375
 10
2051.068359375
 20
-2420.455078125
 10
2051.068359375
 20
-2430.17578125
 10
2051.068359375
 20
-2439.896484375
 10
2051.068359375
 20
-2449.6171875
 10
2051.068359375
 20
-2459.337890625
 10
2051.068359375
 20
-2469.05859375
 10
2051.068359375
 20
-2478.779296875
 10
2051.068359375
 20
-2488.5
 10
2051.068359375
 20
-2498.220703125
 10
2051.068359375
 20
-2507.94140625
 10
2051.068359375
 20
-2517.662109375
 10
2051.068359375
 20
-2527.3828125
 10
2060.7890625
 20
-2537.103515625
 10
2051.068359375
 20
-2546.82421875
 10
2051.068359375
 20
-2556.544921875
 10
2060.7890625
 20
-2566.265625
 10
2060.7890625
 20
-2575.986328125
 10
2060.7890625
 20
-2585.70703125
 10
2060.7890625
 20
-2595.427734375
 10
2070.509765625
 20
-2605.1484375
 10
2080.23046875
 20
-2614.869140625
 10
2080.23046875
 20
-2624.58984375
 10
2080.23046875
 20
-2634.310546875
 10
2080.23046875
 20
-2644.03125
 10
2080.23046875
 20
-2653.751953125
 10
2089.951171875
 20
-2663.47265625
 10
2080.23046875
 20
-2673.193359375
 10
2089.951171875
 20
-2682.9140625
 10
2089.951171875
 20
-2692.634765625
 10
2099.671875
 20
-2692.634765625
 10
2109.392578125
 20
-2702.35546875
 10
2119.11328125
 20
-2712.076171875
 10
2128.833984375
 20
-2721.796875
 10
2128.833984375
 20
-2731.517578125
 10
2128.833984375
 20
-2741.23828125
 10
2138.5546875
 20
-2750.958984375
 10
2148.275390625
 20
-2760.6796875
 10
2138.5546875
 20
-2770.400390625
 10
2148.275390625
 20
-2770.400390625
 10
2157.99609375
 20
-2770.400390625
 10
2167.716796875
 20
-2780.12109375
 10
2177.4375
 20
-2789.841796875
 10
2187.158203125
 20
-2799.5625
 10
2196.87890625
 20
-2799.5625
 10
2206.599609375
 20
-2809.283203125
 10
2216.3203125
 20
-2809.283203125
 10
2226.041015625
 20
-2819.00390625
 10
2226.041015625
 20
-2828.724609375
 10
2235.76171875
 20
-2828.724609375
 10
2245.482421875
 20
-2838.4453125
 10
2255.203125
 20
-2848.166015625
 10
2264.923828125
 20
-2857.88671875
 10
2274.64453125
 20
-2857.88671875
 10
2284.365234375
 20
-2867.607421875
 10
2294.0859375
 20
-2867.607421875
 10
2303.806640625
 20
-2877.328125
 10
2313.52734375
 20
-2877.328125
 10
2323.248046875
 20
-2877.328125
 10
2332.96875
 20
-2887.048828125
 10
2342.689453125
 20
-2887.048828125
 10
2352.41015625
 20
-2887.048828125
 10
2362.130859375
 20
-2887.048828125
 10
2371.8515625
 20
-2896.76953125
 10
2381.572265625
 20
-2896.76953125
 10
2391.29296875
 20
-2896.76953125
 10
2401.013671875
 20
-2896.76953125
 10
2410.734375
 20
-2906.490234375
 10
2420.455078125
 20
-2906.490234375
 10
2430.17578125
 20
-2906.490234375
 10
2439.896484375
 20
-2906.490234375
 10
2449.6171875
 20
-2906.490234375
 10
2459.337890625
 20
-2906.490234375
 10
2469.05859375
 20
-2906.490234375
 10
2478.779296875
 20
-2906.490234375
 10
2488.5
 20
-2906.490234375
 10
2498.220703125
 20
-2906.490234375
 10
2507.94140625
 20
-2906.490234375
 10
2517.662109375
 20
-2906.490234375
 10
2527.3828125
 20
-2906.490234375
 10
2537.103515625
 20
-2906.490234375
 10
2546.82421875
 20
-2906.490234375
 10
2556.544921875
 20
-2906.490234375
 10
2566.265625
 20
-2906.490234375
 10
2575.986328125
 20
-2906.490234375
 10
2585.70703125
 20
-2896.76953125
 10
2595.427734375
 20
-2896.76953125
 10
2605.1484375
 20
-2896.76953125
 10
2614.869140625
 20
-2887.048828125
 10
2624.58984375
 20
-2887.048828125
 10
2634.310546875
 20
-2877.328125
 10
2644.03125
 20
-2877.328125
 10
2653.751953125
 20
-2877.328125
 10
2663.47265625
 20
-2877.328125
 10
2673.193359375
 20
-2867.607421875
 10
2682.9140625
 20
-2857.88671875
 10
2692.634765625
 20
-2857.88671875
 10
2702.35546875
 20
-2848.166015625
 10
2712.076171875
 20
-2838.4453125
 10
2721.796875
 20
-2838.4453125
 10
2731.517578125
 20
-2838.4453125
 10
2741.23828125
 20
-2828.724609375
 10
2750.958984375
 20
-2819.00390625
 10
2760.6796875
 20
-2809.283203125
 10
2770.400390625
 20
-2799.5625
 10
2780.12109375
 20
-2789.841796875
 10
2789.841796875
 20
-2780.12109375
 10
2799.5625
 20
-2770.400390625
 10
2809.283203125
 20
-2760.6796875
 10
2819.00390625
 20
-2760.6796875
 10
2819.00390625
 20
-2750.958984375
 10
2828.724609375
 20
-2741.23828125
 10
2838.4453125
 20
-2731.517578125
 10
2848.166015625
 20
-2721.796875
 10
2857.88671875
 20
-2712.076171875
 10
2857.88671875
 20
-2702.35546875
 10
2867.607421875
 20
-2692.634765625
 10
2867.607421875
 20
-2682.9140625
 10
2867.607421875
 20
-2673.193359375
 10
2867.607421875
 20
-2663.47265625
 10
2867.607421875
 20
-2653.751953125
 10
2877.328125
 20
-2644.03125
 10
2887.048828125
 20
-2634.310546875
 10
2887.048828125
 20
-2624.58984375
 10
2896.76953125
 20
-2614.869140625
 10
2906.490234375
 20
-2605.1484375
 10
2906.490234375
 20
-2595.427734375
 10
2916.2109375
 20
-2585.70703125
 10
2916.2109375
 20
-2575.986328125
 10
2916.2109375
 20
-2566.265625
 10
2906.490234375
 20
-2556.544921875
 10
2906.490234375
 20
-2546.82421875
 10
2906.490234375
 20
-2537.103515625
 10
2906.490234375
 20
-2527.3828125
 10
2916.2109375
 20
-2517.662109375
 10
2916.2109375
 20
-2507.94140625
 10
2916.2109375
 20
-2498.220703125
 10
2916.2109375
 20
-2488.5
 10
2916.2109375
 20
-2478.779296875
 10
2916.2109375
 20
-2469.05859375
 10
2925.931640625
 20
-2459.337890625
 10
2925.931640625
 20
-2449.6171875
 10
2925.931640625
 20
-2439.896484375
 10
2925.931640625
 20
-2430.17578125
 10
2916.2109375
 20
-2420.455078125
 10
2916.2109375
 20
-2410.734375
 10
2916.2109375
 20
-2401.013671875
 10
2916.2109375
 20
-2391.29296875
 10
2906.490234375
 20
-2381.572265625
 10
2906.490234375
 20
-2371.8515625
 10
2906.490234375
 20
-2362.130859375
 10
2896.76953125
 20
-2352.41015625
 10
2896.76953125
 20
-2342.689453125
 10
2887.048828125
 20
-2332.96875
 10
2887.048828125
 20
-2323.248046875
 10
2887.048828125
 20
-2313.52734375
 10
2887.048828125
 20
-2303.806640625
 10
2877.328125
 20
-2294.0859375
 10
2877.328125
 20
-2284.365234375
 10
2867.607421875
 20
-2274.64453125
 10
2867.607421875
 20
-2264.923828125
 10
2857.88671875
 20
-2255.203125
 10
2857.88671875
 20
-2245.482421875
 10
2848.166015625
 20
-2235.76171875
 10
2838.4453125
 20
-2235.76171875
 10
2828.724609375
 20
-2226.041015625
 10
2819.00390625
 20
-2216.3203125
 10
2809.283203125
 20
-2206.599609375
 10
2799.5625
 20
-2196.87890625
 10
2789.841796875
 20
-2187.158203125
 10
2780.12109375
 20
-2177.4375
 10
2770.400390625
 20
-2167.716796875
 10
2770.400390625
 20
-2157.99609375
 10
2760.6796875
 20
-2148.275390625
 10
2750.958984375
 20
-2148.275390625
 10
2741.23828125
 20
-2138.5546875
 10
2731.517578125
 20
-2128.833984375
 10
2721.796875
 20
-2119.11328125
 10
2712.076171875
 20
-2119.11328125
 10
2702.35546875
 20
-2109.392578125
 10
2692.634765625
 20
-2109.392578125
 10
2682.9140625
 20
-2099.671875
 10
2673.193359375
 20
-2099.671875
 10
2663.47265625
 20
-2089.951171875
 10
2653.751953125
 20
-2089.951171875
 10
2644.03125
 20
-2089.951171875
 10
2634.310546875
 20
-2080.23046875
 10
2624.58984375
 20
-2080.23046875
 10
2614.869140625
 20
-2080.23046875
 10
2605.1484375
 20
-2070.509765625
 10
2595.427734375
 20
-2070.509765625
 10
2585.70703125
 20
-2070.509765625
 10
2575.986328125
 20
-2070.509765625
 10
2566.265625
 20
-2060.7890625
 10
2556.544921875
 20
-2060.7890625
 10
2546.82421875
 20
-2060.7890625
 10
2537.103515625
 20
-2060.7890625
 10
2527.3828125
 20
-2060.7890625
 10
2517.662109375
 20
-2060.7890625
 10
2507.94140625
 20
-2051.068359375
 10
2498.220703125
 20
-2060.7890625
 10
2488.5
 20
-2060.7890625
 10
2478.779296875
 20
-2060.7890625
 10
2469.05859375
 20
-2060.7890625
 10
2459.337890625
 20
-2060.7890625
  0
LWPOLYLINE
  5
36
330
17
100
AcDbEntity
  8
substrate
100
AcDbPolyline
 90
2044
 70
1
 43
0.5
 10
0.0
 20
-0.0
 10
0.0
 20
-9.720703125
 10
0.0
 20
-19.44140625
 10
0.0
 20
-29.162109375
 10
0.0
 20
-38.8828125
 10
0.0
 20
-48.603515625
 10
0.0
 20
-58.32421875
 10
0.0
 20
-68.044921875
 10
0.0
 20
-77.765625
 10
0.0
 20
-87.486328125
 10
0.0
 20
-97.20703125
 10
0.0
 20
-106.927734375
 10
0.0
 20
-116.6484375
 10
0.0
 20
-126.369140625
 10
0.0
 20
-136.08984375
 10
0.0
 20
-145.810546875
 10
0.0
 20
-155.53125
 10
0.0
 20
-165.251953125
 10
0.0
 20
-174.97265625
 10
0.0
 20
-184.693359375
 10
0.0
 20
-194.4140625
 10
0.0
 20
-204.134765625
 10
0.0
 20
-213.85546875
 10
0.0
 20
-223.576171875
 10
0.0
 20
-233.296875
 10
0.0
 20
-243.017578125
 10
0.0
 20
-252.73828125
 10
0.0
 20
-262.458984375
 10
0.0
 20
-272.1796875
 10
0.0
 20
-281.900390625
 10
0.0
 20
-291.62109375
 10
0.0
 20
-301.341796875
 10
0.0
 20
-311.0625
 10
0.0
 20
-320.783203125
 10
0.0
 20
-330.50390625
 10
0.0
 20
-340.224609375
 10
0.0
 20
-349.9453125
 10
0.0
 20
-359.666015625
 10
0.0
 20
-369.38671875
 10
0.0
 20
-379.107421875
 10
0.0
 20
-388.828125
 10
0.0
 20
-398.548828125
 10
0.0
 20
-408.26953125
 10
0.0
 20
-417.990234375
 10
0.0
 20
-427.7109375
 10
0.0
 20
-437.431640625
 10
0.0
 20
-447.15234375
 10
0.0
 20
-456.873046875
 10
0.0
 20
-466.59375
 10
0.0
 20
-476.314453125
 10
0.0
 20
-486.03515625
 10
0.0
 20
-495.755859375
 10
0.0
 20
-505.4765625
 10
0.0
 20
-515.197265625
 10
0.0
 20
-524.91796875
 10
0.0
 20
-534.638671875
 10
0.0
 20
-544.359375
 10
0.0
 20
-554.080078125
 10
0.0
 20
-563.80078125
 10
0.0
 20
-573.521484375
 10
0.0
 20
-583.2421875
 10
0.0
 20
-592.962890625
 10
0.0
 20
-602.68359375
 10
0.0
 20
-612.404296875
 10
0.0
 20
-622.125
 10
0.0
 20
-631.845703125
 10
0.0
 20
-641.56640625
 10
0.0
 20
-651.287109375
 10
0.0
 20
-661.0078125
 10
0.0
 20
-670.728515625
 10
0.0
 20
-680.44921875
 10
0.0
 20
-690.169921875
 10
0.0
 20
-699.890625
 10
0.0
 20
-709.611328125
 10
0.0
 20
-719.33203125
 10
0.0
 20
-729.052734375
 10
0.0
 20
-738.7734375
 10
0.0
 20
-748.494140625
 10
0.0
 20
-758.21484375
 10
0.0
 20
-767.935546875
 10
0.0
 20
-777.65625
 10
0.0
 20
-787.376953125
 10
0.0
 20
-797.09765625
 10
0.0
 20
-806.818359375
 10
0.0
 20
-816.5390625
 10
0.0
 20
-826.259765625
 10
0.0
 20
-835.98046875
 10
0.0
 20
-845.701171875
 10
0.0
 20
-855.421875
 10
0.0
 20
-865.142578125
 10
0.0
 20
-874.86328125
 10
0.0
 20
-884.583984375
 10
0.0
 20
-894.3046875
 10
0.0
 20
-904.025390625
 10
0.0
 20
-913.74609375
 10
0.0
 20
-923.466796875
 10
0.0
 20
-933.1875
 10
0.0
 20
-942.908203125
 10
0.0
 20
-952.62890625
 10
0.0
 20
-962.349609375
 10
0.0
 20
-972.0703125
 10
0.0
 20
-981.791015625
 10
0.0
 20
-991.51171875
 10
0.0
 20
-1001.232421875
 10
0.0
 20
-1010.953125
 10
0.0
 20
-1020.673828125
 10
0.0
 20
-1030.39453125
 10
0.0
 20
-1040.115234375
 10
0.0
 20
-1049.8359375
 10
0.0
 20
-1059.556640625
 10
0.0
 20
-1069.27734375
 10
0.0
 20
-1078.998046875
 10
0.0
 20
-1088.71875
 10
0.0
 20
-1098.439453125
 10
0.0
 20
-1108.16015625
 10
0.0
 20
-1117.880859375
 10
0.0
 20
-1127.6015625
 10
0.0
 20
-1137.322265625
 10
0.0
 20
-1147.04296875
 10
0.0
 20
-1156.763671875
 10
0.0
 20
-1166.484375
 10
0.0
 20
-1176.205078125
 10
0.0
 20
-1185.92578125
 10
0.0
 20
-1195.646484375
 10
0.0
 20
-1205.3671875
 10
0.0
 20
-1215.087890625
 10
0.0
 20
-1224.80859375
 10
0.0
 20
-1234.529296875
 10
0.0
 20
-1244.25
 10
0.0
 20
-1253.970703125
 10
0.0
 20
-1263.69140625
 10
0.0
 20
-1273.412109375
 10
0.0
 20
-1283.1328125
 10
0.0
 20
-1292.853515625
 10
0.0
 20
-1302.57421875
 10
0.0
 20
-1312.294921875
 10
0.0
 20
-1322.015625
 10
0.0
 20
-1331.736328125
 10
0.0
 20
-1341.45703125
 10
0.0
 20
-1351.177734375
 10
0.0
 20
-1360.8984375
 10
0.0
 20
-1370.619140625
 10
0.0
 20
-1380.33984375
 10
0.0
 20
-1390.060546875
 10
0.0
 20
-1399.78125
 10
0.0
 20
-1409.501953125
 10
0.0
 20
-1419.22265625
 10
0.0
 20
-1428.943359375
 10
0.0
 20
-1438.6640625
 10
0.0
 20
-1448.384765625
 10
0.0
 20
-1458.10546875
 10
0.0
 20
-1467.826171875
 10
0.0
 20
-1477.546875
 10
0.0
 20
-1487.267578125
 10
0.0
 20
-1496.98828125
 10
0.0
 20
-1506.708984375
 10
0.0
 20
-1516.4296875
 10
0.0
 20
-1526.150390625
 10
0.0
 20
-1535.87109375
 10
0.0
 20
-1545.591796875
 10
0.0
 20
-1555.3125
 10
0.0
 20
-1565.033203125
 10
0.0
 20
-1574.75390625
 10
0.0
 20
-1584.474609375
 10
0.0
 20
-1594.1953125
 10
0.0
 20
-1603.916015625
 10
0.0
 20
-1613.63671875
 10
0.0
 20
-1623.357421875
 10
0.0
 20
-1633.078125
 10
0.0
 20
-1642.798828125
 10
0.0
 20
-1652.51953125
 10
0.0
 20
-1662.240234375
 10
0.0
 20
-1671.9609375
 10
0.0
 20
-1681.681640625
 10
0.0
 20
-1691.40234375
 10
0.0
 20
-1701.123046875
 10
0.0
 20
-1710.84375
 10
0.0
 20
-1720.564453125
 10
0.0
 20
-1730.28515625
 10
0.0
 20
-1740.005859375
 10
0.0
 20
-1749.7265625
 10
0.0
 20
-1759.447265625
 10
0.0
 20
-1769.16796875
 10
0.0
 20
-1778.888671875
 10
0.0
 20
-1788.609375
 10
0.0
 20
-1798.330078125
 10
0.0
 20
-1808.05078125
 10
0.0
 20
-1817.771484375
 10
0.0
 20
-1827.4921875
 10
0.0
 20
-1837.212890625
 10
0.0
 20
-1846.93359375
 10
0.0
 20
-1856.654296875
 10
0.0
 20
-1866.375
 10
0.0
 20
-1876.095703125
 10
0.0
 20
-1885.81640625
 10
0.0
 20
-1895.537109375
 10
0.0
 20
-1905.2578125
 10
0.0
 20
-1914.978515625
 10
0.0
 20
-1924.69921875
 10
0.0
 20
-1934.419921875
 10
0.0
 20
-1944.140625
 10
0.0
 20
-1953.861328125
 10
0.0
 20
-1963.58203125
 10
0.0
 20
-1973.302734375
 10
0.0
 20
-1983.0234375
 10
0.0
 20
-1992.744140625
 10
0.0
 20
-2002.46484375
 10
0.0
 20
-2012.185546875
 10
0.0
 20
-2021.90625
 10
0.0
 20
-2031.626953125
 10
0.0
 20
-2041.34765625
 10
0.0
 20
-2051.068359375
 10
0.0
 20
-2060.7890625
 10
0.0
 20
-2070.509765625
 10
0.0
 20
-2080.23046875
 10
0.0
 20
-2089.951171875
 10
0.0
 20
-2099.671875
 10
0.0
 20
-2109.392578125
 10
0.0
 20
-2119.11328125
 10
0.0
 20
-2128.833984375
 10
0.0
 20
-2138.5546875
 10
0.0
 20
-2148.275390625
 10
0.0
 20
-2157.99609375
 10
0.0
 20
-2167.716796875
 10
0.0
 20
-2177.4375
 10
0.0
 20
-2187.158203125
 10
0.0
 20
-2196.87890625
 10
0.0
 20
-2206.599609375
 10
0.0
 20
-2216.3203125
 10
0.0
 20
-2226.041015625
 10
0.0
 20
-2235.76171875
 10
0.0
 20
-2245.482421875
 10
0.0
 20
-2255.203125
 10
0.0
 20
-2264.923828125
 10
0.0
 20
-2274.64453125
 10
0.0
 20
-2284.365234375
 10
0.0
 20
-2294.0859375
 10
0.0
 20
-2303.806640625
 10
0.0
 20
-2313.52734375
 10
0.0
 20
-2323.248046875
 10
0.0
 20
-2332.96875
 10
0.0
 20
-2342.689453125
 10
0.0
 20
-2352.41015625
 10
0.0
 20
-2362.130859375
 10
0.0
 20
-2371.8515625
 10
0.0
 20
-2381.572265625
 10
0.0
 20
-2391.29296875
 10
0.0
 20
-2401.013671875
 10
0.0
 20
-2410.734375
 10
0.0
 20
-2420.455078125
 10
0.0
 20
-2430.17578125
 10
0.0
 20
-2439.896484375
 10
0.0
 20
-2449.6171875
 10
0.0
 20
-2459.337890625
 10
0.0
 20
-2469.05859375
 10
0.0
 20
-2478.779296875
 10
0.0
 20
-2488.5
 10
0.0
 20
-2498.220703125
 10
0.0
 20
-2507.94140625
 10
0.0
 20
-2517.662109375
 10
0.0
 20
-2527.3828125
 10
0.0
 20
-2537.103515625
 10
0.0
 20
-2546.82421875
 10
0.0
 20
-2556.544921875
 10
0.0
 20
-2566.265625
 10
0.0
 20
-2575.986328125
 10
0.0
 20
-2585.70703125
 10
0.0
 20
-2595.427734375
 10
0.0
 20
-2605.1484375
 10
0.0
 20
-2614.869140625
 10
0.0
 20
-2624.58984375
 10
0.0
 20
-2634.310546875
 10
0.0
 20
-2644.03125
 10
0.0
 20
-2653.751953125
 10
0.0
 20
-2663.47265625
 10
0.0
 20
-2673.193359375
 10
0.0
 20
-2682.9140625
 10
0.0
 20
-2692.634765625
 10
0.0
 20
-2702.35546875
 10
0.0
 20
-2712.076171875
 10
0.0
 20
-2721.796875
 10
0.0
 20
-2731.517578125
 10
0.0
 20
-2741.23828125
 10
0.0
 20
-2750.958984375
 10
0.0
 20
-2760.6796875
 10
0.0
 20
-2770.400390625
 10
0.0
 20
-2780.12109375
 10
0.0
 20
-2789.841796875
 10
0.0
 20
-2799.5625
 10
0.0
 20
-2809.283203125
 10
0.0
 20
-2819.00390625
 10
0.0
 20
-2828.724609375
 10
0.0
 20
-2838.4453125
 10
0.0
 20
-2848.166015625
 10
0.0
 20
-2857.88671875
 10
0.0
 20
-2867.607421875
 10
0.0
 20
-2877.328125
 10
0.0
 20
-2887.048828125
 10
0.0
 20
-2896.76953125
 10
0.0
 20
-2906.490234375
 10
0.0
 20
-2916.2109375
 10
0.0
 20
-2925.931640625
 10
0.0
 20
-2935.65234375
 10
0.0
 20
-2945.373046875
 10
0.0
 20
-2955.09375
 10
0.0
 20
-2964.814453125
 10
0.0
 20
-2974.53515625
 10
0.0
 20
-2984.255859375
 10
0.0
 20
-2993.9765625
 10
0.0
 20
-3003.697265625
 10
0.0
 20
-3013.41796875
 10
0.0
 20
-3023.138671875
 10
0.0
 20
-3032.859375
 10
0.0
 20
-3042.580078125
 10
0.0
 20
-3052.30078125
 10
0.0
 20
-3062.021484375
 10
0.0
 20
-3071.7421875
 10
0.0
 20
-3081.462890625
 10
0.0
 20
-3091.18359375
 10
0.0
 20
-3100.904296875
 10
0.0
 20
-3110.625
 10
0.0
 20
-3120.345703125
 10
0.0
 20
-3130.06640625
 10
0.0
 20
-3139.787109375
 10
0.0
 20
-3149.5078125
 10
0.0
 20
-3159.228515625
 10
0.0
 20
-3168.94921875
 10
0.0
 20
-3178.669921875
 10
0.0
 20
-3188.390625
 10
0.0
 20
-3198.111328125
 10
0.0
 20
-3207.83203125
 10
0.0
 20
-3217.552734375
 10
0.0
 20
-3227.2734375
 10
0.0
 20
-3236.994140625
 10
0.0
 20
-3246.71484375
 10
0.0
 20
-3256.435546875
 10
0.0
 20
-3266.15625
 10
0.0
 20
-3275.876953125
 10
0.0
 20
-3285.59765625
 10
0.0
 20
-3295.318359375
 10
0.0
 20
-3305.0390625
 10
0.0
 20
-3314.759765625
 10
0.0
 20
-3324.48046875
 10
0.0
 20
-3334.201171875
 10
0.0
 20
-3343.921875
 10
0.0
 20
-3353.642578125
 10
0.0
 20
-3363.36328125
 10
0.0
 20
-3373.083984375
 10
0.0
 20
-3382.8046875
 10
0.0
 20
-3392.525390625
 10
0.0
 20
-3402.24609375
 10
0.0
 20
-3411.966796875
 10
0.0
 20
-3421.6875
 10
0.0
 20
-3431.408203125
 10
0.0
 20
-3441.12890625
 10
0.0
 20
-3450.849609375
 10
0.0
 20
-3460.5703125
 10
0.0
 20
-3470.291015625
 10
0.0
 20
-3480.01171875
 10
0.0
 20
-3489.732421875
 10
0.0
 20
-3499.453125
 10
0.0
 20
-3509.173828125
 10
0.0
 20
-3518.89453125
 10
0.0
 20
-3528.615234375
 10
0.0
 20
-3538.3359375
 10
0.0
 20
-3548.056640625
 10
0.0
 20
-3557.77734375
 10
0.0
 20
-3567.498046875
 10
0.0
 20
-3577.21875
 10
0.0
 20
-3586.939453125
 10
0.0
 20
-3596.66015625
 10
0.0
 20
-3606.380859375
 10
0.0
 20
-3616.1015625
 10
0.0
 20
-3625.822265625
 10
0.0
 20
-3635.54296875
 10
0.0
 20
-3645.263671875
 10
0.0
 20
-3654.984375
 10
0.0
 20
-3664.705078125
 10
0.0
 20
-3674.42578125
 10
0.0
 20
-3684.146484375
 10
0.0
 20
-3693.8671875
 10
0.0
 20
-3703.587890625
 10
0.0
 20
-3713.30859375
 10
0.0
 20
-3723.029296875
 10
0.0
 20
-3732.75
 10
0.0
 20
-3742.470703125
 10
0.0
 20
-3752.19140625
 10
0.0
 20
-3761.912109375
 10
0.0
 20
-3771.6328125
 10
0.0
 20
-3781.353515625
 10
0.0
 20
-3791.07421875
 10
0.0
 20
-3800.794921875
 10
0.0
 20
-3810.515625
 10
0.0
 20
-3820.236328125
 10
0.0
 20
-3829.95703125
 10
0.0
 20
-3839.677734375
 10
0.0
 20
-3849.3984375
 10
0.0
 20
-3859.119140625
 10
0.0
 20
-3868.83984375
 10
0.0
 20
-3878.560546875
 10
0.0
 20
-3888.28125
 10
0.0
 20
-3898.001953125
 10
0.0
 20
-3907.72265625
 10
0.0
 20
-3917.443359375
 10
0.0
 20
-3927.1640625
 10
0.0
 20
-3936.884765625
 10
0.0
 20
-3946.60546875
 10
0.0
 20
-3956.326171875
 10
0.0
 20
-3966.046875
 10
0.0
 20
-3975.767578125
 10
0.0
 20
-3985.48828125
 10
0.0
 20
-3995.208984375
 10
0.0
 20
-4004.9296875
 10
0.0
 20
-4014.650390625
 10
0.0
 20
-4024.37109375
 10
0.0
 20
-4034.091796875
 10
0.0
 20
-4043.8125
 10
0.0
 20
-4053.533203125
 10
0.0
 20
-4063.25390625
 10
0.0
 20
-4072.974609375
 10
0.0
 20
-4082.6953125
 10
0.0
 20
-4092.416015625
 10
0.0
 20
-4102.13671875
 10
0.0
 20
-4111.857421875
 10
0.0
 20
-4121.578125
 10
0.0
 20
-4131.298828125
 10
0.0
 20
-4141.01953125
 10
0.0
 20
-4150.740234375
 10
0.0
 20
-4160.4609375
 10
0.0
 20
-4170.181640625
 10
0.0
 20
-4179.90234375
 10
0.0
 20
-4189.623046875
 10
0.0
 20
-4199.34375
 10
0.0
 20
-4209.064453125
 10
0.0
 20
-4218.78515625
 10
0.0
 20
-4228.505859375
 10
0.0
 20
-4238.2265625
 10
0.0
 20
-4247.947265625
 10
0.0
 20
-4257.66796875
 10
0.0
 20
-4267.388671875
 10
0.0
 20
-4277.109375
 10
0.0
 20
-4286.830078125
 10
0.0
 20
-4296.55078125
 10
0.0
 20
-4306.271484375
 10
0.0
 20
-4315.9921875
 10
0.0
 20
-4325.712890625
 10
0.0
 20
-4335.43359375
 10
0.0
 20
-4345.154296875
 10
0.0
 20
-4354.875
 10
0.0
 20
-4364.595703125
 10
0.0
 20
-4374.31640625
 10
0.0
 20
-4384.037109375
 10
0.0
 20
-4393.7578125
 10
0.0
 20
-4403.478515625
 10
0.0
 20
-4413.19921875
 10
0.0
 20
-4422.919921875
 10
0.0
 20
-4432.640625
 10
0.0
 20
-4442.361328125
 10
0.0
 20
-4452.08203125
 10
0.0
 20
-4461.802734375
 10
0.0
 20
-4471.5234375
 10
0.0
 20
-4481.244140625
 10
0.0
 20
-4490.96484375
 10
0.0
 20
-4500.685546875
 10
0.0
 20
-4510.40625
 10
0.0
 20
-4520.126953125
 10
0.0
 20
-4529.84765625
 10
0.0
 20
-4539.568359375
 10
0.0
 20
-4549.2890625
 10
0.0
 20
-4559.009765625
 10
0.0
 20
-4568.73046875
 10
0.0
 20
-4578.451171875
 10
0.0
 20
-4588.171875
 10
0.0
 20
-4597.892578125
 10
0.0
 20
-4607.61328125
 10
0.0
 20
-4617.333984375
 10
0.0
 20
-4627.0546875
 10
0.0
 20
-4636.775390625
 10
0.0
 20
-4646.49609375
 10
0.0
 20
-4656.216796875
 10
0.0
 20
-4665.9375
 10
0.0
 20
-4675.658203125
 10
0.0
 20
-4685.37890625
 10
0.0
 20
-4695.099609375
 10
0.0
 20
-4704.8203125
 10
0.0
 20
-4714.541015625
 10
0.0
 20
-4724.26171875
 10
0.0
 20
-4733.982421875
 10
0.0
 20
-4743.703125
 10
0.0
 20
-4753.423828125
 10
0.0
 20
-4763.14453125
 10
0.0
 20
-4772.865234375
 10
0.0
 20
-4782.5859375
 10
0.0
 20
-4792.306640625
 10
0.0
 20
-4802.02734375
 10
0.0
 20
-4811.748046875
 10
0.0
 20
-4821.46875
 10
0.0
 20
-4831.189453125
 10
0.0
 20
-4840.91015625
 10
0.0
 20
-4850.630859375
 10
0.0
 20
-4860.3515625
 10
0.0
 20
-4870.072265625
 10
0.0
 20
-4879.79296875
 10
0.0
 20
-4889.513671875
 10
0.0
 20
-4899.234375
 10
0.0
 20
-4908.955078125
 10
0.0
 20
-4918.67578125
 10
0.0
 20
-4928.396484375
 10
0.0
 20
-4938.1171875
 10
0.0
 20
-4947.837890625
 10
0.0
 20
-4957.55859375
 10
0.0
 20
-4967.279296875
 10
9.720703125
 20
-4967.279296875
 10
19.44140625
 20
-4967.279296875
 10
29.162109375
 20
-4967.279296875
 10
38.8828125
 20
-4967.279296875
 10
48.603515625
 20
-4967.279296875
 10
58.32421875
 20
-4967.279296875
 10
68.044921875
 20
-4967.279296875
 10
77.765625
 20
-4967.279296875
 10
87.486328125
 20
-4967.279296875
 10
97.20703125
 20
-4967.279296875
 10
106.927734375
 20
-4967.279296875
 10
116.6484375
 20
-4967.279296875
 10
126.369140625
 20
-4967.279296875
 10
136.08984375
 20
-4967.279296875
 10
145.810546875
 20
-4967.279296875
 10
155.53125
 20
-4967.279296875
 10
165.251953125
 20
-4967.279296875
 10
174.97265625
 20
-4967.279296875
 10
184.693359375
 20
-4967.279296875
 10
194.4140625
 20
-4967.279296875
 10
204.134765625
 20
-4967.279296875
 10
213.85546875
 20
-4967.279296875
 10
223.576171875
 20
-4967.279296875
 10
233.296875
 20
-4967.279296875
 10
243.017578125
 20
-4967.279296875
 10
252.73828125
 20
-4967.279296875
 10
262.458984375
 20
-4967.279296875
 10
272.1796875
 20
-4967.279296875
 10
281.900390625
 20
-4967.279296875
 10
291.62109375
 20
-4967.279296875
 10
301.341796875
 20
-4967.279296875
 10
311.0625
 20
-4967.279296875
 10
320.783203125
 20
-4967.279296875
 10
330.50390625
 20
-4967.279296875
 10
340.224609375
 20
-4967.279296875
 10
349.9453125
 20
-4967.279296875
 10
359.666015625
 20
-4967.279296875
 10
369.38671875
 20
-4967.279296875
 10
379.107421875
 20
-4967.279296875
 10
388.828125
 20
-4967.279296875
 10
398.548828125
 20
-4967.279296875
 10
408.26953125
 20
-4967.279296875
 10
417.990234375
 20
-4967.279296875
 10
427.7109375
 20
-4967.279296875
 10
437.431640625
 20
-4967.279296875
 10
447.15234375
 20
-4967.279296875
 10
456.873046875
 20
-4967.279296875
 10
466.59375
 20
-4967.279296875
 10
476.314453125
 20
-4967.279296875
 10
486.03515625
 20
-4967.279296875
 10
495.755859375
 20
-4967.279296875
 10
505.4765625
 20
-4967.279296875
 10
515.197265625
 20
-4967.279296875
 10
524.91796875
 20
-4967.279296875
 10
534.638671875
 20
-4967.279296875
 10
544.359375
 20
-4967.279296875
 10
554.080078125
 20
-4967.279296875
 10
563.80078125
 20
-4967.279296875
 10
573.521484375
 20
-4967.279296875
 10
583.2421875
 20
-4967.279296875
 10
592.962890625
 20
-4967.279296875
 10
602.68359375
 20
-4967.279296875
 10
612.404296875
 20
-4967.279296875
 10
622.125
 20
-4967.279296875
 10
631.845703125
 20
-4967.279296875
 10
641.56640625
 20
-4967.279296875
 10
651.287109375
 20
-4967.279296875
 10
661.0078125
 20
-4967.279296875
 10
670.728515625
 20
-4967.279296875
 10
680.44921875
 20
-4967.279296875
 10
690.169921875
 20
-4967.279296875
 10
699.890625
 20
-4967.279296875
 10
709.611328125
 20
-4967.279296875
 10
719.33203125
 20
-4967.279296875
 10
729.052734375
 20
-4967.279296875
 10
738.7734375
 20
-4967.279296875
 10
748.494140625
 20
-4967.279296875
 10
758.21484375
 20
-4967.279296875
 10
767.935546875
 20
-4967.279296875
 10
777.65625
 20
-4967.279296875
 10
787.376953125
 20
-4967.279296875
 10
797.09765625
 20
-4967.279296875
 10
806.818359375
 20
-4967.279296875
 10
816.5390625
 20
-4967.279296875
 10
826.259765625
 20
-4967.279296875
 10
835.98046875
 20
-4967.279296875
 10
845.701171875
 20
-4967.279296875
 10
855.421875
 20
-4967.279296875
 10
865.142578125
 20
-4967.279296875
 10
874.86328125
 20
-4967.279296875
 10
884.583984375
 20
-4967.279296875
 10
894.3046875
 20
-4967.279296875
 10
904.025390625
 20
-4967.279296875
 10
913.74609375
 20
-4967.279296875
 10
923.466796875
 20
-4967.279296875
 10
933.1875
 20
-4967.279296875
 10
942.908203125
 20
-4967.279296875
 10
952.62890625
 20
-4967.279296875
 10
962.349609375
 20
-4967.279296875
 10
972.0703125
 20
-4967.279296875
 10
981.791015625
 20
-4967.279296875
 10
991.51171875
 20
-4967.279296875
 10
1001.232421875
 20
-4967.279296875
 10
1010.953125
 20
-4967.279296875
 10
1020.673828125
 20
-4967.279296875
 10
1030.39453125
 20
-4967.279296875
 10
1040.115234375
 20
-4967.279296875
 10
1049.8359375
 20
-4967.279296875
 10
1059.556640625
 20
-4967.279296875
 10
1069.27734375
 20
-4967.279296875
 10
1078.998046875
 20
-4967.279296875
 10
1088.71875
 20
-4967.279296875
 10
1098.439453125
 20
-4967.279296875
 10
1108.16015625
 20
-4967.279296875
 10
1117.880859375
 20
-4967.279296875
 10
1127.6015625
 20
-4967.279296875
 10
1137.322265625
 20
-4967.279296875
 10
1147.04296875
 20
-4967.279296875
 10
1156.763671875
 20
-4967.279296875
 10
1166.484375
 20
-4967.279296875
 10
1176.205078125
 20
-4967.279296875
 10
1185.92578125
 20
-4967.279296875
 10
1195.646484375
 20
-4967.279296875
 10
1205.3671875
 20
-4967.279296875
 10
1215.087890625
 20
-4967.279296875
 10
1224.80859375
 20
-4967.279296875
 10
1234.529296875
 20
-4967.279296875
 10
1244.25
 20
-4967.279296875
 10
1253.970703125
 20
-4967.279296875
 10
1263.69140625
 20
-4967.279296875
 10
1273.412109375
 20
-4967.279296875
 10
1283.1328125
 20
-4967.279296875
 10
1292.853515625
 20
-4967.279296875
 10
1302.57421875
 20
-4967.279296875
 10
1312.294921875
 20
-4967.279296875
 10
1322.015625
 20
-4967.279296875
 10
1331.736328125
 20
-4967.279296875
 10
1341.45703125
 20
-4967.279296875
 10
1351.177734375
 20
-4967.279296875
 10
1360.8984375
 20
-4967.279296875
 10
1370.619140625
 20
-4967.279296875
 10
1380.33984375
 20
-4967.279296875
 10
1390.060546875
 20
-4967.279296875
 10
1399.78125
 20
-4967.279296875
 10
1409.501953125
 20
-4967.279296875
 10
1419.22265625
 20
-4967.279296875
 10
1428.943359375
 20
-4967.279296875
 10
1438.6640625
 20
-4967.279296875
 10
1448.384765625
 20
-4967.279296875
 10
1458.10546875
 20
-4967.279296875
 10
1467.826171875
 20
-4967.279296875
 10
1477.546875
 20
-4967.279296875
 10
1487.267578125
 20
-4967.279296875
 10
1496.98828125
 20
-4967.279296875
 10
1506.708984375
 20
-4967.279296875
 10
1516.4296875
 20
-4967.279296875
 10
1526.150390625
 20
-4967.279296875
 10
1535.87109375
 20
-4967.279296875
 10
1545.591796875
 20
-4967.279296875
 10
1555.3125
 20
-4967.279296875
 10
1565.033203125
 20
-4967.279296875
 10
1574.75390625
 20
-4967.279296875
 10
1584.474609375
 20
-4967.279296875
 10
1594.1953125
 20
-4967.279296875
 10
1603.916015625
 20
-4967.279296875
 10
1613.63671875
 20
-4967.279296875
 10
1623.357421875
 20
-4967.279296875
 10
1633.078125
 20
-4967.279296875
 10
1642.798828125
 20
-4967.279296875
 10
1652.51953125
 20
-4967.279296875
 10
1662.240234375
 20
-4967.279296875
 10
1671.9609375
 20
-4967.279296875
 10
1681.681640625
 20
-4967.279296875
 10
1691.40234375
 20
-4967.279296875
 10
1701.123046875
 20
-4967.279296875
 10
1710.84375
 20
-4967.279296875
 10
1720.564453125
 20
-4967.279296875
 10
1730.28515625
 20
-4967.279296875
 10
1740.005859375
 20
-4967.279296875
 10
1749.7265625
 20
-4967.279296875
 10
1759.447265625
 20
-4967.279296875
 10
1769.16796875
 20
-4967.279296875
 10
1778.888671875
 20
-4967.279296875
 10
1788.609375
 20
-4967.279296875
 10
1798.330078125
 20
-4967.279296875
 10
1808.05078125
 20
-4967.279296875
 10
1817.771484375
 20
-4967.279296875
 10
1827.4921875
 20
-4967.279296875
 10
1837.212890625
 20
-4967.279296875
 10
1846.93359375
 20
-4967.279296875
 10
1856.654296875
 20
-4967.279296875
 10
1866.375
 20
-4967.279296875
 10
1876.095703125
 20
-4967.279296875
 10
1885.81640625
 20
-4967.279296875
 10
1895.537109375
 20
-4967.279296875
 10
1905.2578125
 20
-4967.279296875
 10
1914.978515625
 20
-4967.279296875
 10
1924.69921875
 20
-4967.279296875
 10
1934.419921875
 20
-4967.279296875
 10
1944.140625
 20
-4967.279296875
 10
1953.861328125
 20
-4967.279296875
 10
1963.58203125
 20
-4967.279296875
 10
1973.302734375
 20
-4967.279296875
 10
1983.0234375
 20
-4967.279296875
 10
1992.744140625
 20
-4967.279296875
 10
2002.46484375
 20
-4967.279296875
 10
2012.185546875
 20
-4967.279296875
 10
2021.90625
 20
-4967.279296875
 10
2031.626953125
 20
-4967.279296875
 10
2041.34765625
 20
-4967.279296875
 10
2051.068359375
 20
-4967.279296875
 10
2060.7890625
 20
-4967.279296875
 10
2070.509765625
 20
-4967.279296875
 10
2080.23046875
 20
-4967.279296875
 10
2089.951171875
 20
-4967.279296875
 10
2099.671875
 20
-4967.279296875
 10
2109.392578125
 20
-4967.279296875
 10
2119.11328125
 20
-4967.279296875
 10
2128.833984375
 20
-4967.279296875
 10
2138.5546875
 20
-4967.279296875
 10
2148.275390625
 20
-4967.279296875
 10
2157.99609375
 20
-4967.279296875
 10
2167.716796875
 20
-4967.279296875
 10
2177.4375
 20
-4967.279296875
 10
2187.158203125
 20
-4967.279296875
 10
2196.87890625
 20
-4967.279296875
 10
2206.599609375
 20
-4967.279296875
 10
2216.3203125
 20
-4967.279296875
 10
2226.041015625
 20
-4967.279296875
 10
2235.76171875
 20
-4967.279296875
 10
2245.482421875
 20
-4967.279296875
 10
2255.203125
 20
-4967.279296875
 10
2264.923828125
 20
-4967.279296875
 10
2274.64453125
 20
-4967.279296875
 10
2284.365234375
 20
-4967.279296875
 10
2294.0859375
 20
-4967.279296875
 10
2303.806640625
 20
-4967.279296875
 10
2313.52734375
 20
-4967.279296875
 10
2323.248046875
 20
-4967.279296875
 10
2332.96875
 20
-4967.279296875
 10
2342.689453125
 20
-4967.279296875
 10
2352.41015625
 20
-4967.279296875
 10
2362.130859375
 20
-4967.279296875
 10
2371.8515625
 20
-4967.279296875
 10
2381.572265625
 20
-4967.279296875
 10
2391.29296875
 20
-4967.279296875
 10
2401.013671875
 20
-4967.279296875
 10
2410.734375
 20
-4967.279296875
 10
2420.455078125
 20
-4967.279296875
 10
2430.17578125
 20
-4967.279296875
 10
2439.896484375
 20
-4967.279296875
 10
2449.6171875
 20
-4967.279296875
 10
2459.337890625
 20
-4967.279296875
 10
2469.05859375
 20
-4967.279296875
 10
2478.779296875
 20
-4967.279296875
 10
2488.5
 20
-4967.279296875
 10
2498.220703125
 20
-4967.279296875
 10
2507.94140625
 20
-4967.279296875
 10
2517.662109375
 20
-4967.279296875
 10
2527.3828125
 20
-4967.279296875
 10
2537.103515625
 20
-4967.279296875
 10
2546.82421875
 20
-4967.279296875
 10
2556.544921875
 20
-4967.279296875
 10
2566.265625
 20
-4967.279296875
 10
2575.986328125
 20
-4967.279296875
 10
2585.70703125
 20
-4967.279296875
 10
2595.427734375
 20
-4967.279296875
 10
2605.1484375
 20
-4967.279296875
 10
2614.869140625
 20
-4967.279296875
 10
2624.58984375
 20
-4967.279296875
 10
2634.310546875
 20
-4967.279296875
 10
2644.03125
 20
-4967.279296875
 10
2653.751953125
 20
-4967.279296875
 10
2663.47265625
 20
-4967.279296875
 10
2673.193359375
 20
-4967.279296875
 10
2682.9140625
 20
-4967.279296875
 10
2692.634765625
 20
-4967.279296875
 10
2702.35546875
 20
-4967.279296875
 10
2712.076171875
 20
-4967.279296875
 10
2721.796875
 20
-4967.279296875
 10
2731.517578125
 20
-4967.279296875
 10
2741.23828125
 20
-4967.279296875
 10
2750.958984375
 20
-4967.279296875
 10
2760.6796875
 20
-4967.279296875
 10
2770.400390625
 20
-4967.279296875
 10
2780.12109375
 20
-4967.279296875
 10
2789.841796875
 20
-4967.279296875
 10
2799.5625
 20
-4967.279296875
 10
2809.283203125
 20
-4967.279296875
 10
2819.00390625
 20
-4967.279296875
 10
2828.724609375
 20
-4967.279296875
 10
2838.4453125
 20
-4967.279296875
 10
2848.166015625
 20
-4967.279296875
 10
2857.88671875
 20
-4967.279296875
 10
2867.607421875
 20
-4967.279296875
 10
2877.328125
 20
-4967.279296875
 10
2887.048828125
 20
-4967.279296875
 10
2896.76953125
 20
-4967.279296875
 10
2906.490234375
 20
-4967.279296875
 10
2916.2109375
 20
-4967.279296875
 10
2925.931640625
 20
-4967.279296875
 10
2935.65234375
 20
-4967.279296875
 10
2945.373046875
 20
-4967.279296875
 10
2955.09375
 20
-4967.279296875
 10
2964.814453125
 20
-4967.279296875
 10
2974.53515625
 20
-4967.279296875
 10
2984.255859375
 20
-4967.279296875
 10
2993.9765625
 20
-4967.279296875
 10
3003.697265625
 20
-4967.279296875
 10
3013.41796875
 20
-4967.279296875
 10
3023.138671875
 20
-4967.279296875
 10
3032.859375
 20
-4967.279296875
 10
3042.580078125
 20
-4967.279296875
 10
3052.30078125
 20
-4967.279296875
 10
3062.021484375
 20
-4967.279296875
 10
3071.7421875
 20
-4967.279296875
 10
3081.462890625
 20
-4967.279296875
 10
3091.18359375
 20
-4967.279296875
 10
3100.904296875
 20
-4967.279296875
 10
3110.625
 20
-4967.279296875
 10
3120.345703125
 20
-4967.279296875
 10
3130.06640625
 20
-4967.279296875
 10
3139.787109375
 20
-4967.279296875
 10
3149.5078125
 20
-4967.279296875
 10
3159.228515625
 20
-4967.279296875
 10
3168.94921875
 20
-4967.279296875
 10
3178.669921875
 20
-4967.279296875
 10
3188.390625
 20
-4967.279296875
 10
3198.111328125
 20
-4967.279296875
 10
3207.83203125
 20
-4967.279296875
 10
3217.552734375
 20
-4967.279296875
 10
3227.2734375
 20
-4967.279296875
 10
3236.994140625
 20
-4967.279296875
 10
3246.71484375
 20
-4967.279296875
 10
3256.435546875
 20
-4967.279296875
 10
3266.15625
 20
-4967.279296875
 10
3275.876953125
 20
-4967.279296875
 10
3285.59765625
 20
-4967.279296875
 10
3295.318359375
 20
-4967.279296875
 10
3305.0390625
 20
-4967.279296875
 10
3314.759765625
 20
-4967.279296875
 10
3324.48046875
 20
-4967.279296875
 10
3334.201171875
 20
-4967.279296875
 10
3343.921875
 20
-4967.279296875
 10
3353.642578125
 20
-4967.279296875
 10
3363.36328125
 20
-4967.279296875
 10
3373.083984375
 20
-4967.279296875
 10
3382.8046875
 20
-4967.279296875
 10
3392.525390625
 20
-4967.279296875
 10
3402.24609375
 20
-4967.279296875
 10
3411.966796875
 20
-4967.279296875
 10
3421.6875
 20
-4967.279296875
 10
3431.408203125
 20
-4967.279296875
 10
3441.12890625
 20
-4967.279296875
 10
3450.849609375
 20
-4967.279296875
 10
3460.5703125
 20
-4967.279296875
 10
3470.291015625
 20
-4967.279296875
 10
3480.01171875
 20
-4967.279296875
 10
3489.732421875
 20
-4967.279296875
 10
3499.453125
 20
-4967.279296875
 10
3509.173828125
 20
-4967.279296875
 10
3518.89453125
 20
-4967.279296875
 10
3528.615234375
 20
-4967.279296875
 10
3538.3359375
 20
-4967.279296875
 10
3548.056640625
 20
-4967.279296875
 10
3557.77734375
 20
-4967.279296875
 10
3567.498046875
 20
-4967.279296875
 10
3577.21875
 20
-4967.279296875
 10
3586.939453125
 20
-4967.279296875
 10
3596.66015625
 20
-4967.279296875
 10
3606.380859375
 20
-4967.279296875
 10
3616.1015625
 20
-4967.279296875
 10
3625.822265625
 20
-4967.279296875
 10
3635.54296875
 20
-4967.279296875
 10
3645.263671875
 20
-4967.279296875
 10
3654.984375
 20
-4967.279296875
 10
3664.705078125
 20
-4967.279296875
 10
3674.42578125
 20
-4967.279296875
 10
3684.146484375
 20
-4967.279296875
 10
3693.8671875
 20
-4967.279296875
 10
3703.587890625
 20
-4967.279296875
 10
3713.30859375
 20
-4967.279296875
 10
3723.029296875
 20
-4967.279296875
 10
3732.75
 20
-4967.279296875
 10
3742.470703125
 20
-4967.279296875
 10
3752.19140625
 20
-4967.279296875
 10
3761.912109375
 20
-4967.279296875
 10
3771.6328125
 20
-4967.279296875
 10
3781.353515625
 20
-4967.279296875
 10
3791.07421875
 20
-4967.279296875
 10
3800.794921875
 20
-4967.279296875
 10
3810.515625
 20
-4967.279296875
 10
3820.236328125
 20
-4967.279296875
 10
3829.95703125
 20
-4967.279296875
 10
3839.677734375
 20
-4967.279296875
 10
3849.3984375
 20
-4967.279296875
 10
3859.119140625
 20
-4967.279296875
 10
3868.83984375
 20
-4967.279296875
 10
3878.560546875
 20
-4967.279296875
 10
3888.28125
 20
-4967.279296875
 10
3898.001953125
 20
-4967.279296875
 10
3907.72265625
 20
-4967.279296875
 10
3917.443359375
 20
-4967.279296875
 10
3927.1640625
 20
-4967.279296875
 10
3936.884765625
 20
-4967.279296875
 10
3946.60546875
 20
-4967.279296875
 10
3956.326171875
 20
-4967.279296875
 10
3966.046875
 20
-4967.279296875
 10
3975.767578125
 20
-4967.279296875
 10
3985.48828125
 20
-4967.279296875
 10
3995.208984375
 20
-4967.279296875
 10
4004.9296875
 20
-4967.279296875
 10
4014.650390625
 20
-4967.279296875
 10
4024.37109375
 20
-4967.279296875
 10
4034.091796875
 20
-4967.279296875
 10
4043.8125
 20
-4967.279296875
 10
4053.533203125
 20
-4967.279296875
 10
4063.25390625
 20
-4967.279296875
 10
4072.974609375
 20
-4967.279296875
 10
4082.6953125
 20
-4967.279296875
 10
4092.416015625
 20
-4967.279296875
 10
4102.13671875
 20
-4967.279296875
 10
4111.857421875
 20
-4967.279296875
 10
4121.578125
 20
-4967.279296875
 10
4131.298828125
 20
-4967.279296875
 10
4141.01953125
 20
-4967.279296875
 10
4150.740234375
 20
-4967.279296875
 10
4160.4609375
 20
-4967.279296875
 10
4170.181640625
 20
-4967.279296875
 10
4179.90234375
 20
-4967.279296875
 10
4189.623046875
 20
-4967.279296875
 10
4199.34375
 20
-4967.279296875
 10
4209.064453125
 20
-4967.279296875
 10
4218.78515625
 20
-4967.279296875
 10
4228.505859375
 20
-4967.279296875
 10
4238.2265625
 20
-4967.279296875
 10
4247.947265625
 20
-4967.279296875
 10
4257.66796875
 20
-4967.279296875
 10
4267.388671875
 20
-4967.279296875
 10
4277.109375
 20
-4967.279296875
 10
4286.830078125
 20
-4967.279296875
 10
4296.55078125
 20
-4967.279296875
 10
4306.271484375
 20
-4967.279296875
 10
4315.9921875
 20
-4967.279296875
 10
4325.712890625
 20
-4967.279296875
 10
4335.43359375
 20
-4967.279296875
 10
4345.154296875
 20
-4967.279296875
 10
4354.875
 20
-4967.279296875
 10
4364.595703125
 20
-4967.279296875
 10
4374.31640625
 20
-4967.279296875
 10
4384.037109375
 20
-4967.279296875
 10
4393.7578125
 20
-4967.279296875
 10
4403.478515625
 20
-4967.279296875
 10
4413.19921875
 20
-4967.279296875
 10
4422.919921875
 20
-4967.279296875
 10
4432.640625
 20
-4967.279296875
 10
4442.361328125
 20
-4967.279296875
 10
4452.08203125
 20
-4967.279296875
 10
4461.802734375
 20
-4967.279296875
 10
4471.5234375
 20
-4967.279296875
 10
4481.244140625
 20
-4967.279296875
 10
4490.96484375
 20
-4967.279296875
 10
4500.685546875
 20
-4967.279296875
 10
4510.40625
 20
-4967.279296875
 10
4520.126953125
 20
-4967.279296875
 10
4529.84765625
 20
-4967.279296875
 10
4539.568359375
 20
-4967.279296875
 10
4549.2890625
 20
-4967.279296875
 10
4559.009765625
 20
-4967.279296875
 10
4568.73046875
 20
-4967.279296875
 10
4578.451171875
 20
-4967.279296875
 10
4588.171875
 20
-4967.279296875
 10
4597.892578125
 20
-4967.279296875
 10
4607.61328125
 20
-4967.279296875
 10
4617.333984375
 20
-4967.279296875
 10
4627.0546875
 20
-4967.279296875
 10
4636.775390625
 20
-4967.279296875
 10
4646.49609375
 20
-4967.279296875
 10
4656.216796875
 20
-4967.279296875
 10
4665.9375
 20
-4967.279296875
 10
4675.658203125
 20
-4967.279296875
 10
4685.37890625
 20
-4967.279296875
 10
4695.099609375
 20
-4967.279296875
 10
4704.8203125
 20
-4967.279296875
 10
4714.541015625
 20
-4967.279296875
 10
4724.26171875
 20
-4967.279296875
 10
4733.982421875
 20
-4967.279296875
 10
4743.703125
 20
-4967.279296875
 10
4753.423828125
 20
-4967.279296875
 10
4763.14453125
 20
-4967.279296875
 10
4772.865234375
 20
-4967.279296875
 10
4782.5859375
 20
-4967.279296875
 10
4792.306640625
 20
-4967.279296875
 10
4802.02734375
 20
-4967.279296875
 10
4811.748046875
 20
-4967.279296875
 10
4821.46875
 20
-4967.279296875
 10
4831.189453125
 20
-4967.279296875
 10
4840.91015625
 20
-4967.279296875
 10
4850.630859375
 20
-4967.279296875
 10
4860.3515625
 20
-4967.279296875
 10
4870.072265625
 20
-4967.279296875
 10
4879.79296875
 20
-4967.279296875
 10
4889.513671875
 20
-4967.279296875
 10
4899.234375
 20
-4967.279296875
 10
4908.955078125
 20
-4967.279296875
 10
4918.67578125
 20
-4967.279296875
 10
4928.396484375
 20
-4967.279296875
 10
4938.1171875
 20
-4967.279296875
 10
4947.837890625
 20
-4967.279296875
 10
4957.55859375
 20
-4967.279296875
 10
4967.279296875
 20
-4967.279296875
 10
4967.279296875
 20
-4957.55859375
 10
4967.279296875
 20
-4947.837890625
 10
4967.279296875
 20
-4938.1171875
 10
4967.279296875
 20
-4928.396484375
 10
4967.279296875
 20
-4918.67578125
 10
4967.279296875
 20
-4908.955078125
 10
4967.279296875
 20
-4899.234375
 10
4967.279296875
 20
-4889.513671875
 10
4967.279296875
 20
-4879.79296875
 10
4967.279296875
 20
-4870.072265625
 10
4967.279296875
 20
-4860.3515625
 10
4967.279296875
 20
-4850.630859375
 10
4967.279296875
 20
-4840.91015625
 10
4967.279296875
 20
-4831.189453125
 10
4967.279296875
 20
-4821.46875
 10
4967.279296875
 20
-4811.748046875
 10
4967.279296875
 20
-4802.02734375
 10
4967.279296875
 20
-4792.306640625
 10
4967.279296875
 20
-4782.5859375
 10
4967.279296875
 20
-4772.865234375
 10
4967.279296875
 20
-4763.14453125
 10
4967.279296875
 20
-4753.423828125
 10
4967.279296875
 20
-4743.703125
 10
4967.279296875
 20
-4733.982421875
 10
4967.279296875
 20
-4724.26171875
 10
4967.279296875
 20
-4714.541015625
 10
4967.279296875
 20
-4704.8203125
 10
4967.279296875
 20
-4695.099609375
 10
4967.279296875
 20
-4685.37890625
 10
4967.279296875
 20
-4675.658203125
 10
4967.279296875
 20
-4665.9375
 10
4967.279296875
 20
-4656.216796875
 10
4967.279296875
 20
-4646.49609375
 10
4967.279296875
 20
-4636.775390625
 10
4967.279296875
 20
-4627.0546875
 10
4967.279296875
 20
-4617.333984375
 10
4967.279296875
 20
-4607.61328125
 10
4967.279296875
 20
-4597.892578125
 10
4967.279296875
 20
-4588.171875
 10
4967.279296875
 20
-4578.451171875
 10
4967.279296875
 20
-4568.73046875
 10
4967.279296875
 20
-4559.009765625
 10
4967.279296875
 20
-4549.2890625
 10
4967.279296875
 20
-4539.568359375
 10
4967.279296875
 20
-4529.84765625
 10
4967.279296875
 20
-4520.126953125
 10
4967.279296875
 20
-4510.40625
 10
4967.279296875
 20
-4500.685546875
 10
4967.279296875
 20
-4490.96484375
 10
4967.279296875
 20
-4481.244140625
 10
4967.279296875
 20
-4471.5234375
 10
4967.279296875
 20
-4461.802734375
 10
4967.279296875
 20
-4452.08203125
 10
4967.279296875
 20
-4442.361328125
 10
4967.279296875
 20
-4432.640625
 10
4967.279296875
 20
-4422.919921875
 10
4967.279296875
 20
-4413.19921875
 10
4967.279296875
 20
-4403.478515625
 10
4967.279296875
 20
-4393.7578125
 10
4967.279296875
 20
-4384.037109375
 10
4967.279296875
 20
-4374.31640625
 10
4967.279296875
 20
-4364.595703125
 10
4967.279296875
 20
-4354.875
 10
4967.279296875
 20
-4345.154296875
 10
4967.279296875
 20
-4335.43359375
 10
4967.279296875
 20
-4325.712890625
 10
4967.279296875
 20
-4315.9921875
 10
4967.279296875
 20
-4306.271484375
 10
4967.279296875
 20
-4296.55078125
 10
4967.279296875
 20
-4286.830078125
 10
4967.279296875
 20
-4277.109375
 10
4967.279296875
 20
-4267.388671875
 10
4967.279296875
 20
-4257.66796875
 10
4967.279296875
 20
-4247.947265625
 10
4967.279296875
 20
-4238.2265625
 10
4967.279296875
 20
-4228.505859375
 10
4967.279296875
 20
-4218.78515625
 10
4967.279296875
 20
-4209.064453125
 10
4967.279296875
 20
-4199.34375
 10
4967.279296875
 20
-4189.623046875
 10
4967.279296875
 20
-4179.90234375
 10
4967.279296875
 20
-4170.181640625
 10
4967.279296875
 20
-4160.4609375
 10
4967.279296875
 20
-4150.740234375
 10
4967.279296875
 20
-4141.01953125
 10
4967.279296875
 20
-4131.298828125
 10
4967.279296875
 20
-4121.578125
 10
4967.279296875
 20
-4111.857421875
 10
4967.279296875
 20
-4102.13671875
 10
4967.279296875
 20
-4092.416015625
 10
4967.279296875
 20
-4082.6953125
 10
4967.279296875
 20
-4072.974609375
 10
4967.279296875
 20
-4063.25390625
 10
4967.279296875
 20
-4053.533203125
 10
4967.279296875
 20
-4043.8125
 10
4967.279296875
 20
-4034.091796875
 10
4967.279296875
 20
-4024.37109375
 10
4967.279296875
 20
-4014.650390625
 10
4967.279296875
 20
-4004.9296875
 10
4967.279296875
 20
-3995.208984375
 10
4967.279296875
 20
-3985.48828125
 10
4967.279296875
 20
-3975.767578125
 10
4967.279296875
 20
-3966.046875
 10
4967.279296875
 20
-3956.326171875
 10
4967.279296875
 20
-3946.60546875
 10
4967.279296875
 20
-3936.884765625
 10
4967.279296875
 20
-3927.1640625
 10
4967.279296875
 20
-3917.443359375
 10
4967.279296875
 20
-3907.72265625
 10
4967.279296875
 20
-3898.001953125
 10
4967.279296875
 20
-3888.28125
 10
4967.279296875
 20
-3878.560546875
 10
4967.279296875
 20
-3868.83984375
 10
4967.279296875
 20
-3859.119140625
 10
4967.279296875
 20
-3849.3984375
 10
4967.279296875
 20
-3839.677734375
 10
4967.279296875
 20
-3829.95703125
 10
4967.279296875
 20
-3820.236328125
 10
4967.279296875
 20
-3810.515625
 10
4967.279296875
 20
-3800.794921875
 10
4967.279296875
 20
-3791.07421875
 10
4967.279296875
 20
-3781.353515625
 10
4967.279296875
 20
-3771.6328125
 10
4967.279296875
 20
-3761.912109375
 10
4967.279296875
 20
-3752.19140625
 10
4967.279296875
 20
-3742.470703125
 10
4967.279296875
 20
-3732.75
 10
4967.279296875
 20
-3723.029296875
 10
4967.279296875
 20
-3713.30859375
 10
4967.279296875
 20
-3703.587890625
 10
4967.279296875
 20
-3693.8671875
 10
4967.279296875
 20
-3684.146484375
 10
4967.279296875
 20
-3674.42578125
 10
4967.279296875
 20
-3664.705078125
 10
4967.279296875
 20
-3654.984375
 10
4967.279296875
 20
-3645.263671875
 10
4967.279296875
 20
-3635.54296875
 10
4967.279296875
 20
-3625.822265625
 10
4967.279296875
 20
-3616.1015625
 10
4967.279296875
 20
-3606.380859375
 10
4967.279296875
 20
-3596.66015625
 10
4967.279296875
 20
-3586.939453125
 10
4967.279296875
 20
-3577.21875
 10
4967.279296875
 20
-3567.498046875
 10
4967.279296875
 20
-3557.77734375
 10
4967.279296875
 20
-3548.056640625
 10
4967.279296875
 20
-3538.3359375
 10
4967.279296875
 20
-3528.615234375
 10
4967.279296875
 20
-3518.89453125
 10
4967.279296875
 20
-3509.173828125
 10
4967.279296875
 20
-3499.453125
 10
4967.279296875
 20
-3489.732421875
 10
4967.279296875
 20
-3480.01171875
 10
4967.279296875
 20
-3470.291015625
 10
4967.279296875
 20
-3460.5703125
 10
4967.279296875
 20
-3450.849609375
 10
4967.279296875
 20
-3441.12890625
 10
4967.279296875
 20
-3431.408203125
 10
4967.279296875
 20
-3421.6875
 10
4967.279296875
 20
-3411.966796875
 10
4967.279296875
 20
-3402.24609375
 10
4967.279296875
 20
-3392.525390625
 10
4967.279296875
 20
-3382.8046875
 10
4967.279296875
 20
-3373.083984375
 10
4967.279296875
 20
-3363.36328125
 10
4967.279296875
 20
-3353.642578125
 10
4967.279296875
 20
-3343.921875
 10
4967.279296875
 20
-3334.201171875
 10
4967.279296875
 20
-3324.48046875
 10
4967.279296875
 20
-3314.759765625
 10
4967.279296875
 20
-3305.0390625
 10
4967.279296875
 20
-3295.318359375
 10
4967.279296875
 20
-3285.59765625
 10
4967.279296875
 20
-3275.876953125
 10
4967.279296875
 20
-3266.15625
 10
4967.279296875
 20
-3256.435546875
 10
4967.279296875
 20
-3246.71484375
 10
4967.279296875
 20
-3236.994140625
 10
4967.279296875
 20
-3227.2734375
 10
4967.279296875
 20
-3217.552734375
 10
4967.279296875
 20
-3207.83203125
 10
4967.279296875
 20
-3198.111328125
 10
4967.279296875
 20
-3188.390625
 10
4967.279296875
 20
-3178.669921875
 10
4967.279296875
 20
-3168.94921875
 10
4967.279296875
 20
-3159.228515625
 10
4967.279296875
 20
-3149.5078125
 10
4967.279296875
 20
-3139.787109375
 10
4967.279296875
 20
-3130.06640625
 10
4967.279296875
 20
-3120.345703125
 10
4967.279296875
 20
-3110.625
 10
4967.279296875
 20
-3100.904296875
 10
4967.279296875
 20
-3091.18359375
 10
4967.279296875
 20
-3081.462890625
 10
4967.279296875
 20
-3071.7421875
 10
4967.279296875
 20
-3062.021484375
 10
4967.279296875
 20
-3052.30078125
 10
4967.279296875
 20
-3042.580078125
 10
4967.279296875
 20
-3032.859375
 10
4967.279296875
 20
-3023.138671875
 10
4967.279296875
 20
-3013.41796875
 10
4967.279296875
 20
-3003.697265625
 10
4967.279296875
 20
-2993.9765625
 10
4967.279296875
 20
-2984.255859375
 10
4967.279296875
 20
-2974.53515625
 10
4967.279296875
 20
-2964.814453125
 10
4967.279296875
 20
-2955.09375
 10
4967.279296875
 20
-2945.373046875
 10
4967.279296875
 20
-2935.65234375
 10
4967.279296875
 20
-2925.931640625
 10
4967.279296875
 20
-2916.2109375
 10
4967.279296875
 20
-2906.490234375
 10
4967.279296875
 20
-2896.76953125
 10
4967.279296875
 20
-2887.048828125
 10
4967.279296875
 20
-2877.328125
 10
4967.279296875
 20
-2867.607421875
 10
4967.279296875
 20
-2857.88671875
 10
4967.279296875
 20
-2848.166015625
 10
4967.279296875
 20
-2838.4453125
 10
4967.279296875
 20
-2828.724609375
 10
4967.279296875
 20
-2819.00390625
 10
4967.279296875
 20
-2809.283203125
 10
4967.279296875
 20
-2799.5625
 10
4967.279296875
 20
-2789.841796875
 10
4967.279296875
 20
-2780.12109375
 10
4967.279296875
 20
-2770.400390625
 10
4967.279296875
 20
-2760.6796875
 10
4967.279296875
 20
-2750.958984375
 10
4967.279296875
 20
-2741.23828125
 10
4967.279296875
 20
-2731.517578125
 10
4967.279296875
 20
-2721.796875
 10
4967.279296875
 20
-2712.076171875
 10
4967.279296875
 20
-2702.35546875
 10
4967.279296875
 20
-2692.634765625
 10
4967.279296875
 20
-2682.9140625
 10
4967.279296875
 20
-2673.193359375
 10
4967.279296875
 20
-2663.47265625
 10
4967.279296875
 20
-2653.751953125
 10
4967.279296875
 20
-2644.03125
 10
4967.279296875
 20
-2634.310546875
 10
4967.279296875
 20
-2624.58984375
 10
4967.279296875
 20
-2614.869140625
 10
4967.279296875
 20
-2605.1484375
 10
4967.279296875
 20
-2595.427734375
 10
4967.279296875
 20
-2585.70703125
 10
4967.279296875
 20
-2575.986328125
 10
4967.279296875
 20
-2566.265625
 10
4967.279296875
 20
-2556.544921875
 10
4967.279296875
 20
-2546.82421875
 10
4967.279296875
 20
-2537.103515625
 10
4967.279296875
 20
-2527.3828125
 10
4967.279296875
 20
-2517.662109375
 10
4967.279296875
 20
-2507.94140625
 10
4967.279296875
 20
-2498.220703125
 10
4967.279296875
 20
-2488.5
 10
4967.279296875
 20
-2478.779296875
 10
4967.279296875
 20
-2469.05859375
 10
4967.279296875
 20
-2459.337890625
 10
4967.279296875
 20
-2449.6171875
 10
4967.279296875
 20
-2439.896484375
 10
4967.279296875
 20
-2430.17578125
 10
4967.279296875
 20
-2420.455078125
 10
4967.279296875
 20
-2410.734375
 10
4967.279296875
 20
-2401.013671875
 10
4967.279296875
 20
-2391.29296875
 10
4967.279296875
 20
-2381.572265625
 10
4967.279296875
 20
-2371.8515625
 10
4967.279296875
 20
-2362.130859375
 10
4967.279296875
 20
-2352.41015625
 10
4967.279296875
 20
-2342.689453125
 10
4967.279296875
 20
-2332.96875
 10
4967.279296875
 20
-2323.248046875
 10
4967.279296875
 20
-2313.52734375
 10
4967.279296875
 20
-2303.806640625
 10
4967.279296875
 20
-2294.0859375
 10
4967.279296875
 20
-2284.365234375
 10
4967.279296875
 20
-2274.64453125
 10
4967.279296875
 20
-2264.923828125
 10
4967.279296875
 20
-2255.203125
 10
4967.279296875
 20
-2245.482421875
 10
4967.279296875
 20
-2235.76171875
 10
4967.279296875
 20
-2226.041015625
 10
4967.279296875
 20
-2216.3203125
 10
4967.279296875
 20
-2206.599609375
 10
4967.279296875
 20
-2196.87890625
 10
4967.279296875
 20
-2187.158203125
 10
4967.279296875
 20
-2177.4375
 10
4967.279296875
 20
-2167.716796875
 10
4967.279296875
 20
-2157.99609375
 10
4967.279296875
 20
-2148.275390625
 10
4967.279296875
 20
-2138.5546875
 10
4967.279296875
 20
-2128.833984375
 10
4967.279296875
 20
-2119.11328125
 10
4967.279296875
 20
-2109.392578125
 10
4967.279296875
 20
-2099.671875
 10
4967.279296875
 20
-2089.951171875
 10
4967.279296875
 20
-2080.23046875
 10
4967.279296875
 20
-2070.509765625
 10
4967.279296875
 20
-2060.7890625
 10
4967.279296875
 20
-2051.068359375
 10
4967.279296875
 20
-2041.34765625
 10
4967.279296875
 20
-2031.626953125
 10
4967.279296875
 20
-2021.90625
 10
4967.279296875
 20
-2012.185546875
 10
4967.279296875
 20
-2002.46484375
 10
4967.279296875
 20
-1992.744140625
 10
4967.279296875
 20
-1983.0234375
 10
4967.279296875
 20
-1973.302734375
 10
4967.279296875
 20
-1963.58203125
 10
4967.279296875
 20
-1953.861328125
 10
4967.279296875
 20
-1944.140625
 10
4967.279296875
 20
-1934.419921875
 10
4967.279296875
 20
-1924.69921875
 10
4967.279296875
 20
-1914.978515625
 10
4967.279296875
 20
-1905.2578125
 10
4967.279296875
 20
-1895.537109375
 10
4967.279296875
 20
-1885.81640625
 10
4967.279296875
 20
-1876.095703125
 10
4967.279296875
 20
-1866.375
 10
4967.279296875
 20
-1856.654296875
 10
4967.279296875
 20
-1846.93359375
 10
4967.279296875
 20
-1837.212890625
 10
4967.279296875
 20
-1827.4921875
 10
4967.279296875
 20
-1817.771484375
 10
4967.279296875
 20
-1808.05078125
 10
4967.279296875
 20
-1798.330078125
 10
4967.279296875
 20
-1788.609375
 10
4967.279296875
 20
-1778.888671875
 10
4967.279296875
 20
-1769.16796875
 10
4967.279296875
 20
-1759.447265625
 10
4967.279296875
 20
-1749.7265625
 10
4967.279296875
 20
-1740.005859375
 10
4967.279296875
 20
-1730.28515625
 10
4967.279296875
 20
-1720.564453125
 10
4967.279296875
 20
-1710.84375
 10
4967.279296875
 20
-1701.123046875
 10
4967.279296875
 20
-1691.40234375
 10
4967.279296875
 20
-1681.681640625
 10
4967.279296875
 20
-1671.9609375
 10
4967.279296875
 20
-1662.240234375
 10
4967.279296875
 20
-1652.51953125
 10
4967.279296875
 20
-1642.798828125
 10
4967.279296875
 20
-1633.078125
 10
4967.279296875
 20
-1623.357421875
 10
4967.279296875
 20
-1613.63671875
 10
4967.279296875
 20
-1603.916015625
 10
4967.279296875
 20
-1594.1953125
 10
4967.279296875
 20
-1584.474609375
 10
4967.279296875
 20
-1574.75390625
 10
4967.279296875
 20
-1565.033203125
 10
4967.279296875
 20
-1555.3125
 10
4967.279296875
 20
-1545.591796875
 10
4967.279296875
 20
-1535.87109375
 10
4967.279296875
 20
-1526.150390625
 10
4967.279296875
 20
-1516.4296875
 10
4967.279296875
 20
-1506.708984375
 10
4967.279296875
 20
-1496.98828125
 10
4967.279296875
 20
-1487.267578125
 10
4967.279296875
 20
-1477.546875
 10
4967.279296875
 20
-1467.826171875
 10
4967.279296875
 20
-1458.10546875
 10
4967.279296875
 20
-1448.384765625
 10
4967.279296875
 20
-1438.6640625
 10
4967.279296875
 20
-1428.943359375
 10
4967.279296875
 20
-1419.22265625
 10
4967.279296875
 20
-1409.501953125
 10
4967.279296875
 20
-1399.78125
 10
4967.279296875
 20
-1390.060546875
 10
4967.279296875
 20
-1380.33984375
 10
4967.279296875
 20
-1370.619140625
 10
4967.279296875
 20
-1360.8984375
 10
4967.279296875
 20
-1351.177734375
 10
4967.279296875
 20
-1341.45703125
 10
4967.279296875
 20
-1331.736328125
 10
4967.279296875
 20
-1322.015625
 10
4967.279296875
 20
-1312.294921875
 10
4967.279296875
 20
-1302.57421875
 10
4967.279296875
 20
-1292.853515625
 10
4967.279296875
 20
-1283.1328125
 10
4967.279296875
 20
-1273.412109375
 10
4967.279296875
 20
-1263.69140625
 10
4967.279296875
 20
-1253.970703125
 10
4967.279296875
 20
-1244.25
 10
4967.279296875
 20
-1234.529296875
 10
4967.279296875
 20
-1224.80859375
 10
4967.279296875
 20
-1215.087890625
 10
4967.279296875
 20
-1205.3671875
 10
4967.279296875
 20
-1195.646484375
 10
4967.279296875
 20
-1185.92578125
 10
4967.279296875
 20
-1176.205078125
 10
4967.279296875
 20
-1166.484375
 10
4967.279296875
 20
-1156.763671875
 10
4967.279296875
 20
-1147.04296875
 10
4967.279296875
 20
-1137.322265625
 10
4967.279296875
 20
-1127.6015625
 10
4967.279296875
 20
-1117.880859375
 10
4967.279296875
 20
-1108.16015625
 10
4967.279296875
 20
-1098.439453125
 10
4967.279296875
 20
-1088.71875
 10
4967.279296875
 20
-1078.998046875
 10
4967.279296875
 20
-1069.27734375
 10
4967.279296875
 20
-1059.556640625
 10
4967.279296875
 20
-1049.8359375
 10
4967.279296875
 20
-1040.115234375
 10
4967.279296875
 20
-1030.39453125
 10
4967.279296875
 20
-1020.673828125
 10
4967.279296875
 20
-1010.953125
 10
4967.279296875
 20
-1001.232421875
 10
4967.279296875
 20
-991.51171875
 10
4967.279296875
 20
-981.791015625
 10
4967.279296875
 20
-972.0703125
 10
4967.279296875
 20
-962.349609375
 10
4967.279296875
 20
-952.62890625
 10
4967.279296875
 20
-942.908203125
 10
4967.279296875
 20
-933.1875
 10
4967.279296875
 20
-923.466796875
 10
4967.279296875
 20
-913.74609375
 10
4967.279296875
 20
-904.025390625
 10
4967.279296875
 20
-894.3046875
 10
4967.279296875
 20
-884.583984375
 10
4967.279296875
 20
-874.86328125
 10
4967.279296875
 20
-865.142578125
 10
4967.279296875
 20
-855.421875
 10
4967.279296875
 20
-845.701171875
 10
4967.279296875
 20
-835.98046875
 10
4967.279296875
 20
-826.259765625
 10
4967.279296875
 20
-816.5390625
 10
4967.279296875
 20
-806.818359375
 10
4967.279296875
 20
-797.09765625
 10
4967.279296875
 20
-787.376953125
 10
4967.279296875
 20
-777.65625
 10
4967.279296875
 20
-767.935546875
 10
4967.279296875
 20
-758.21484375
 10
4967.279296875
 20
-748.494140625
 10
4967.279296875
 20
-738.7734375
 10
4967.279296875
 20
-729.052734375
 10
4967.279296875
 20
-719.33203125
 10
4967.279296875
 20
-709.611328125
 10
4967.279296875
 20
-699.890625
 10
4967.279296875
 20
-690.169921875
 10
4967.279296875
 20
-680.44921875
 10
4967.279296875
 20
-670.728515625
 10
4967.279296875
 20
-661.0078125
 10
4967.279296875
 20
-651.287109375
 10
4967.279296875
 20
-641.56640625
 10
4967.279296875
 20
-631.845703125
 10
4967.279296875
 20
-622.125
 10
4967.279296875
 20
-612.404296875
 10
4967.279296875
 20
-602.68359375
 10
4967.279296875
 20
-592.962890625
 10
4967.279296875
 20
-583.2421875
 10
4967.279296875
 20
-573.521484375
 10
4967.279296875
 20
-563.80078125
 10
4967.279296875
 20
-554.080078125
 10
4967.279296875
 20
-544.359375
 10
4967.279296875
 20
-534.638671875
 10
4967.279296875
 20
-524.91796875
 10
4967.279296875
 20
-515.197265625
 10
4967.279296875
 20
-505.4765625
 10
4967.279296875
 20
-495.755859375
 10
4967.279296875
 20
-486.03515625
 10
4967.279296875
 20
-476.314453125
 10
4967.279296875
 20
-466.59375
 10
4967.279296875
 20
-456.873046875
 10
4967.279296875
 20
-447.15234375
 10
4967.279296875
 20
-437.431640625
 10
4967.279296875
 20
-427.7109375
 10
4967.279296875
 20
-417.990234375
 10
4967.279296875
 20
-408.26953125
 10
4967.279296875
 20
-398.548828125
 10
4967.279296875
 20
-388.828125
 10
4967.279296875
 20
-379.107421875
 10
4967.279296875
 20
-369.38671875
 10
4967.279296875
 20
-359.666015625
 10
4967.279296875
 20
-349.9453125
 10
4967.279296875
 20
-340.224609375
 10
4967.279296875
 20
-330.50390625
 10
4967.279296875
 20
-320.783203125
 10
4967.279296875
 20
-311.0625
 10
4967.279296875
 20
-301.341796875
 10
4967.279296875
 20
-291.62109375
 10
4967.279296875
 20
-281.900390625
 10
4967.279296875
 20
-272.1796875
 10
4967.279296875
 20
-262.458984375
 10
4967.279296875
 20
-252.73828125
 10
4967.279296875
 20
-243.017578125
 10
4967.279296875
 20
-233.296875
 10
4967.279296875
 20
-223.576171875
 10
4967.279296875
 20
-213.85546875
 10
4967.279296875
 20
-204.134765625
 10
4967.279296875
 20
-194.4140625
 10
4967.279296875
 20
-184.693359375
 10
4967.279296875
 20
-174.97265625
 10
4967.279296875
 20
-165.251953125
 10
4967.279296875
 20
-155.53125
 10
4967.279296875
 20
-145.810546875
 10
4967.279296875
 20
-136.08984375
 10
4967.279296875
 20
-126.369140625
 10
4967.279296875
 20
-116.6484375
 10
4967.279296875
 20
-106.927734375
 10
4967.279296875
 20
-97.20703125
 10
4967.279296875
 20
-87.486328125
 10
4967.279296875
 20
-77.765625
 10
4967.279296875
 20
-68.044921875
 10
4967.279296875
 20
-58.32421875
 10
4967.279296875
 20
-48.603515625
 10
4967.279296875
 20
-38.8828125
 10
4967.279296875
 20
-29.162109375
 10
4967.279296875
 20
-19.44140625
 10
4967.279296875
 20
-9.720703125
 10
4967.279296875
 20
-0.0
 10
4957.55859375
 20
-0.0
 10
4947.837890625
 20
-0.0
 10
4938.1171875
 20
-0.0
 10
4928.396484375
 20
-0.0
 10
4918.67578125
 20
-0.0
 10
4908.955078125
 20
-0.0
 10
4899.234375
 20
-0.0
 10
4889.513671875
 20
-0.0
 10
4879.79296875
 20
-0.0
 10
4870.072265625
 20
-0.0
 10
4860.3515625
 20
-0.0
 10
4850.630859375
 20
-0.0
 10
4840.91015625
 20
-0.0
 10
4831.189453125
 20
-0.0
 10
4821.46875
 20
-0.0
 10
4811.748046875
 20
-0.0
 10
4802.02734375
 20
-0.0
 10
4792.306640625
 20
-0.0
 10
4782.5859375
 20
-0.0
 10
4772.865234375
 20
-0.0
 10
4763.14453125
 20
-0.0
 10
4753.423828125
 20
-0.0
 10
4743.703125
 20
-0.0
 10
4733.982421875
 20
-0.0
 10
4724.26171875
 20
-0.0
 10
4714.541015625
 20
-0.0
 10
4704.8203125
 20
-0.0
 10
4695.099609375
 20
-0.0
 10
4685.37890625
 20
-0.0
 10
4675.658203125
 20
-0.0
 10
4665.9375
 20
-0.0
 10
4656.216796875
 20
-0.0
 10
4646.49609375
 20
-0.0
 10
4636.775390625
 20
-0.0
 10
4627.0546875
 20
-0.0
 10
4617.333984375
 20
-0.0
 10
4607.61328125
 20
-0.0
 10
4597.892578125
 20
-0.0
 10
4588.171875
 20
-0.0
 10
4578.451171875
 20
-0.0
 10
4568.73046875
 20
-0.0
 10
4559.009765625
 20
-0.0
 10
4549.2890625
 20
-0.0
 10
4539.568359375
 20
-0.0
 10
4529.84765625
 20
-0.0
 10
4520.126953125
 20
-0.0
 10
4510.40625
 20
-0.0
 10
4500.685546875
 20
-0.0
 10
4490.96484375
 20
-0.0
 10
4481.244140625
 20
-0.0
 10
4471.5234375
 20
-0.0
 10
4461.802734375
 20
-0.0
 10
4452.08203125
 20
-0.0
 10
4442.361328125
 20
-0.0
 10
4432.640625
 20
-0.0
 10
4422.919921875
 20
-0.0
 10
4413.19921875
 20
-0.0
 10
4403.478515625
 20
-0.0
 10
4393.7578125
 20
-0.0
 10
4384.037109375
 20
-0.0
 10
4374.31640625
 20
-0.0
 10
4364.595703125
 20
-0.0
 10
4354.875
 20
-0.0
 10
4345.154296875
 20
-0.0
 10
4335.43359375
 20
-0.0
 10
4325.712890625
 20
-0.0
 10
4315.9921875
 20
-0.0
 10
4306.271484375
 20
-0.0
 10
4296.55078125
 20
-0.0
 10
4286.830078125
 20
-0.0
 10
4277.109375
 20
-0.0
 10
4267.388671875
 20
-0.0
 10
4257.66796875
 20
-0.0
 10
4247.947265625
 20
-0.0
 10
4238.2265625
 20
-0.0
 10
4228.505859375
 20
-0.0
 10
4218.78515625
 20
-0.0
 10
4209.064453125
 20
-0.0
 10
4199.34375
 20
-0.0
 10
4189.623046875
 20
-0.0
 10
4179.90234375
 20
-0.0
 10
4170.181640625
 20
-0.0
 10
4160.4609375
 20
-0.0
 10
4150.740234375
 20
-0.0
 10
4141.01953125
 20
-0.0
 10
4131.298828125
 20
-0.0
 10
4121.578125
 20
-0.0
 10
4111.857421875
 20
-0.0
 10
4102.13671875
 20
-0.0
 10
4092.416015625
 20
-0.0
 10
4082.6953125
 20
-0.0
 10
4072.974609375
 20
-0.0
 10
4063.25390625
 20
-0.0
 10
4053.533203125
 20
-0.0
 10
4043.8125
 20
-0.0
 10
4034.091796875
 20
-0.0
 10
4024.37109375
 20
-0.0
 10
4014.650390625
 20
-0.0
 10
4004.9296875
 20
-0.0
 10
3995.208984375
 20
-0.0
 10
3985.48828125
 20
-0.0
 10
3975.767578125
 20
-0.0
 10
3966.046875
 20
-0.0
 10
3956.326171875
 20
-0.0
 10
3946.60546875
 20
-0.0
 10
3936.884765625
 20
-0.0
 10
3927.1640625
 20
-0.0
 10
3917.443359375
 20
-0.0
 10
3907.72265625
 20
-0.0
 10
3898.001953125
 20
-0.0
 10
3888.28125
 20
-0.0
 10
3878.560546875
 20
-0.0
 10
3868.83984375
 20
-0.0
 10
3859.119140625
 20
-0.0
 10
3849.3984375
 20
-0.0
 10
3839.677734375
 20
-0.0
 10
3829.95703125
 20
-0.0
 10
3820.236328125
 20
-0.0
 10
3810.515625
 20
-0.0
 10
3800.794921875
 20
-0.0
 10
3791.07421875
 20
-0.0
 10
3781.353515625
 20
-0.0
 10
3771.6328125
 20
-0.0
 10
3761.912109375
 20
-0.0
 10
3752.19140625
 20
-0.0
 10
3742.470703125
 20
-0.0
 10
3732.75
 20
-0.0
 10
3723.029296875
 20
-0.0
 10
3713.30859375
 20
-0.0
 10
3703.587890625
 20
-0.0
 10
3693.8671875
 20
-0.0
 10
3684.146484375
 20
-0.0
 10
3674.42578125
 20
-0.0
 10
3664.705078125
 20
-0.0
 10
3654.984375
 20
-0.0
 10
3645.263671875
 20
-0.0
 10
3635.54296875
 20
-0.0
 10
3625.822265625
 20
-0.0
 10
3616.1015625
 20
-0.0
 10
3606.380859375
 20
-0.0
 10
3596.66015625
 20
-0.0
 10
3586.939453125
 20
-0.0
 10
3577.21875
 20
-0.0
 10
3567.498046875
 20
-0.0
 10
3557.77734375
 20
-0.0
 10
3548.056640625
 20
-0.0
 10
3538.3359375
 20
-0.0
 10
3528.615234375
 20
-0.0
 10
3518.89453125
 20
-0.0
 10
3509.173828125
 20
-0.0
 10
3499.453125
 20
-0.0
 10
3489.732421875
 20
-0.0
 10
3480.01171875
 20
-0.0
 10
3470.291015625
 20
-0.0
 10
3460.5703125
 20
-0.0
 10
3450.849609375
 20
-0.0
 10
3441.12890625
 20
-0.0
 10
3431.408203125
 20
-0.0
 10
3421.6875
 20
-0.0
 10
3411.966796875
 20
-0.0
 10
3402.24609375
 20
-0.0
 10
3392.525390625
 20
-0.0
 10
3382.8046875
 20
-0.0
 10
3373.083984375
 20
-0.0
 10
3363.36328125
 20
-0.0
 10
3353.642578125
 20
-0.0
 10
3343.921875
 20
-0.0
 10
3334.201171875
 20
-0.0
 10
3324.48046875
 20
-0.0
 10
3314.759765625
 20
-0.0
 10
3305.0390625
 20
-0.0
 10
3295.318359375
 20
-0.0
 10
3285.59765625
 20
-0.0
 10
3275.876953125
 20
-0.0
 10
3266.15625
 20
-0.0
 10
3256.435546875
 20
-0.0
 10
3246.71484375
 20
-0.0
 10
3236.994140625
 20
-0.0
 10
3227.2734375
 20
-0.0
 10
3217.552734375
 20
-0.0
 10
3207.83203125
 20
-0.0
 10
3198.111328125
 20
-0.0
 10
3188.390625
 20
-0.0
 10
3178.669921875
 20
-0.0
 10
3168.94921875
 20
-0.0
 10
3159.228515625
 20
-0.0
 10
3149.5078125
 20
-0.0
 10
3139.787109375
 20
-0.0
 10
3130.06640625
 20
-0.0
 10
3120.345703125
 20
-0.0
 10
3110.625
 20
-0.0
 10
3100.904296875
 20
-0.0
 10
3091.18359375
 20
-0.0
 10
3081.462890625
 20
-0.0
 10
3071.7421875
 20
-0.0
 10
3062.021484375
 20
-0.0
 10
3052.30078125
 20
-0.0
 10
3042.580078125
 20
-0.0
 10
3032.859375
 20
-0.0
 10
3023.138671875
 20
-0.0
 10
3013.41796875
 20
-0.0
 10
3003.697265625
 20
-0.0
 10
2993.9765625
 20
-0.0
 10
2984.255859375
 20
-0.0
 10
2974.53515625
 20
-0.0
 10
2964.814453125
 20
-0.0
 10
2955.09375
 20
-0.0
 10
2945.373046875
 20
-0.0
 10
2935.65234375
 20
-0.0
 10
2925.931640625
 20
-0.0
 10
2916.2109375
 20
-0.0
 10
2906.490234375
 20
-0.0
 10
2896.76953125
 20
-0.0
 10
2887.048828125
 20
-0.0
 10
2877.328125
 20
-0.0
 10
2867.607421875
 20
-0.0
 10
2857.88671875
 20
-0.0
 10
2848.166015625
 20
-0.0
 10
2838.4453125
 20
-0.0
 10
2828.724609375
 20
-0.0
 10
2819.00390625
 20
-0.0
 10
2809.283203125
 20
-0.0
 10
2799.5625
 20
-0.0
 10
2789.841796875
 20
-0.0
 10
2780.12109375
 20
-0.0
 10
2770.400390625
 20
-0.0
 10
2760.6796875
 20
-0.0
 10
2750.958984375
 20
-0.0
 10
2741.23828125
 20
-0.0
 10
2731.517578125
 20
-0.0
 10
2721.796875
 20
-0.0
 10
2712.076171875
 20
-0.0
 10
2702.35546875
 20
-0.0
 10
2692.634765625
 20
-0.0
 10
2682.9140625
 20
-0.0
 10
2673.193359375
 20
-0.0
 10
2663.47265625
 20
-0.0
 10
2653.751953125
 20
-0.0
 10
2644.03125
 20
-0.0
 10
2634.310546875
 20
-0.0
 10
2624.58984375
 20
-0.0
 10
2614.869140625
 20
-0.0
 10
2605.1484375
 20
-0.0
 10
2595.427734375
 20
-0.0
 10
2585.70703125
 20
-0.0
 10
2575.986328125
 20
-0.0
 10
2566.265625
 20
-0.0
 10
2556.544921875
 20
-0.0
 10
2546.82421875
 20
-0.0
 10
2537.103515625
 20
-0.0
 10
2527.3828125
 20
-0.0
 10
2517.662109375
 20
-0.0
 10
2507.94140625
 20
-0.0
 10
2498.220703125
 20
-0.0
 10
2488.5
 20
-0.0
 10
2478.779296875
 20
-0.0
 10
2469.05859375
 20
-0.0
 10
2459.337890625
 20
-0.0
 10
2449.6171875
 20
-0.0
 10
2439.896484375
 20
-0.0
 10
2430.17578125
 20
-0.0
 10
2420.455078125
 20
-0.0
 10
2410.734375
 20
-0.0
 10
2401.013671875
 20
-0.0
 10
2391.29296875
 20
-0.0
 10
2381.572265625
 20
-0.0
 10
2371.8515625
 20
-0.0
 10
2362.130859375
 20
-0.0
 10
2352.41015625
 20
-0.0
 10
2342.689453125
 20
-0.0
 10
2332.96875
 20
-0.0
 10
2323.248046875
 20
-0.0
 10
2313.52734375
 20
-0.0
 10
2303.806640625
 20
-0.0
 10
2294.0859375
 20
-0.0
 10
2284.365234375
 20
-0.0
 10
2274.64453125
 20
-0.0
 10
2264.923828125
 20
-0.0
 10
2255.203125
 20
-0.0
 10
2245.482421875
 20
-0.0
 10
2235.76171875
 20
-0.0
 10
2226.041015625
 20
-0.0
 10
2216.3203125
 20
-0.0
 10
2206.599609375
 20
-0.0
 10
2196.87890625
 20
-0.0
 10
2187.158203125
 20
-0.0
 10
2177.4375
 20
-0.0
 10
2167.716796875
 20
-0.0
 10
2157.99609375
 20
-0.0
 10
2148.275390625
 20
-0.0
 10
2138.5546875
 20
-0.0
 10
2128.833984375
 20
-0.0
 10
2119.11328125
 20
-0.0
 10
2109.392578125
 20
-0.0
 10
2099.671875
 20
-0.0
 10
2089.951171875
 20
-0.0
 10
2080.23046875
 20
-0.0
 10
2070.509765625
 20
-0.0
 10
2060.7890625
 20
-0.0
 10
2051.068359375
 20
-0.0
 10
2041.34765625
 20
-0.0
 10
2031.626953125
 20
-0.0
 10
2021.90625
 20
-0.0
 10
2012.185546875
 20
-0.0
 10
2002.46484375
 20
-0.0
 10
1992.744140625
 20
-0.0
 10
1983.0234375
 20
-0.0
 10
1973.302734375
 20
-0.0
 10
1963.58203125
 20
-0.0
 10
1953.861328125
 20
-0.0
 10
1944.140625
 20
-0.0
 10
1934.419921875
 20
-0.0
 10
1924.69921875
 20
-0.0
 10
1914.978515625
 20
-0.0
 10
1905.2578125
 20
-0.0
 10
1895.537109375
 20
-0.0
 10
1885.81640625
 20
-0.0
 10
1876.095703125
 20
-0.0
 10
1866.375
 20
-0.0
 10
1856.654296875
 20
-0.0
 10
1846.93359375
 20
-0.0
 10
1837.212890625
 20
-0.0
 10
1827.4921875
 20
-0.0
 10
1817.771484375
 20
-0.0
 10
1808.05078125
 20
-0.0
 10
1798.330078125
 20
-0.0
 10
1788.609375
 20
-0.0
 10
1778.888671875
 20
-0.0
 10
1769.16796875
 20
-0.0
 10
1759.447265625
 20
-0.0
 10
1749.7265625
 20
-0.0
 10
1740.005859375
 20
-0.0
 10
1730.28515625
 20
-0.0
 10
1720.564453125
 20
-0.0
 10
1710.84375
 20
-0.0
 10
1701.123046875
 20
-0.0
 10
1691.40234375
 20
-0.0
 10
1681.681640625
 20
-0.0
 10
1671.9609375
 20
-0.0
 10
1662.240234375
 20
-0.0
 10
1652.51953125
 20
-0.0
 10
1642.798828125
 20
-0.0
 10
1633.078125
 20
-0.0
 10
1623.357421875
 20
-0.0
 10
1613.63671875
 20
-0.0
 10
1603.916015625
 20
-0.0
 10
1594.1953125
 20
-0.0
 10
1584.474609375
 20
-0.0
 10
1574.75390625
 20
-0.0
 10
1565.033203125
 20
-0.0
 10
1555.3125
 20
-0.0
 10
1545.591796875
 20
-0.0
 10
1535.87109375
 20
-0.0
 10
1526.150390625
 20
-0.0
 10
1516.4296875
 20
-0.0
 10
1506.708984375
 20
-0.0
 10
1496.98828125
 20
-0.0
 10
1487.267578125
 20
-0.0
 10
1477.546875
 20
-0.0
 10
1467.826171875
 20
-0.0
 10
1458.10546875
 20
-0.0
 10
1448.384765625
 20
-0.0
 10
1438.6640625
 20
-0.0
 10
1428.943359375
 20
-0.0
 10
1419.22265625
 20
-0.0
 10
1409.501953125
 20
-0.0
 10
1399.78125
 20
-0.0
 10
1390.060546875
 20
-0.0
 10
1380.33984375
 20
-0.0
 10
1370.619140625
 20
-0.0
 10
1360.8984375
 20
-0.0
 10
1351.177734375
 20
-0.0
 10
1341.45703125
 20
-0.0
 10
1331.736328125
 20
-0.0
 10
1322.015625
 20
-0.0
 10
1312.294921875
 20
-0.0
 10
1302.57421875
 20
-0.0
 10
1292.853515625
 20
-0.0
 10
1283.1328125
 20
-0.0
 10
1273.412109375
 20
-0.0
 10
1263.69140625
 20
-0.0
 10
1253.970703125
 20
-0.0
 10
1244.25
 20
-0.0
 10
1234.529296875
 20
-0.0
 10
1224.80859375
 20
-0.0
 10
1215.087890625
 20
-0.0
 10
1205.3671875
 20
-0.0
 10
1195.646484375
 20
-0.0
 10
1185.92578125
 20
-0.0
 10
1176.205078125
 20
-0.0
 10
1166.484375
 20
-0.0
 10
1156.763671875
 20
-0.0
 10
1147.04296875
 20
-0.0
 10
1137.322265625
 20
-0.0
 10
1127.6015625
 20
-0.0
 10
1117.880859375
 20
-0.0
 10
1108.16015625
 20
-0.0
 10
1098.439453125
 20
-0.0
 10
1088.71875
 20
-0.0
 10
1078.998046875
 20
-0.0
 10
1069.27734375
 20
-0.0
 10
1059.556640625
 20
-0.0
 10
1049.8359375
 20
-0.0
 10
1040.115234375
 20
-0.0
 10
1030.39453125
 20
-0.0
 10
1020.673828125
 20
-0.0
 10
1010.953125
 20
-0.0
 10
1001.232421875
 20
-0.0
 10
991.51171875
 20
-0.0
 10
981.791015625
 20
-0.0
 10
972.0703125
 20
-0.0
 10
962.349609375
 20
-0.0
 10
952.62890625
 20
-0.0
 10
942.908203125
 20
-0.0
 10
933.1875
 20
-0.0
 10
923.466796875
 20
-0.0
 10
913.74609375
 20
-0.0
 10
904.025390625
 20
-0.0
 10
894.3046875
 20
-0.0
 10
884.583984375
 20
-0.0
 10
874.86328125
 20
-0.0
 10
865.142578125
 20
-0.0
 10
855.421875
 20
-0.0
 10
845.701171875
 20
-0.0
 10
835.98046875
 20
-0.0
 10
826.259765625
 20
-0.0
 10
816.5390625
 20
-0.0
 10
806.818359375
 20
-0.0
 10
797.09765625
 20
-0.0
 10
787.376953125
 20
-0.0
 10
777.65625
 20
-0.0
 10
767.935546875
 20
-0.0
 10
758.21484375
 20
-0.0
 10
748.494140625
 20
-0.0
 10
738.7734375
 20
-0.0
 10
729.052734375
 20
-0.0
 10
719.33203125
 20
-0.0
 10
709.611328125
 20
-0.0
 10
699.890625
 20
-0.0
 10
690.169921875
 20
-0.0
 10
680.44921875
 20
-0.0
 10
670.728515625
 20
-0.0
 10
661.0078125
 20
-0.0
 10
651.287109375
 20
-0.0
 10
641.56640625
 20
-0.0
 10
631.845703125
 20
-0.0
 10
622.125
 20
-0.0
 10
612.404296875
 20
-0.0
 10
602.68359375
 20
-0.0
 10
592.962890625
 20
-0.0
 10
583.2421875
 20
-0.0
 10
573.521484375
 20
-0.0
 10
563.80078125
 20
-0.0
 10
554.080078125
 20
-0.0
 10
544.359375
 20
-0.0
 10
534.638671875
 20
-0.0
 10
524.91796875
 20
-0.0
 10
515.197265625
 20
-0.0
 10
505.4765625
 20
-0.0
 10
495.755859375
 20
-0.0
 10
486.03515625
 20
-0.0
 10
476.314453125
 20
-0.0
 10
466.59375
 20
-0.0
 10
456.873046875
 20
-0.0
 10
447.15234375
 20
-0.0
 10
437.431640625
 20
-0.0
 10
427.7109375
 20
-0.0
 10
417.990234375
 20
-0.0
 10
408.26953125
 20
-0.0
 10
398.548828125
 20
-0.0
 10
388.828125
 20
-0.0
 10
379.107421875
 20
-0.0
 10
369.38671875
 20
-0.0
 10
359.666015625
 20
-0.0
 10
349.9453125
 20
-0.0
 10
340.224609375
 20
-0.0
 10
330.50390625
 20
-0.0
 10
320.783203125
 20
-0.0
 10
311.0625
 20
-0.0
 10
301.341796875
 20
-0.0
 10
291.62109375
 20
-0.0
 10
281.900390625
 20
-0.0
 10
272.1796875
 20
-0.0
 10
262.458984375
 20
-0.0
 10
252.73828125
 20
-0.0
 10
243.017578125
 20
-0.0
 10
233.296875
 20
-0.0
 10
223.576171875
 20
-0.0
 10
213.85546875
 20
-0.0
 10
204.134765625
 20
-0.0
 10
194.4140625
 20
-0.0
 10
184.693359375
 20
-0.0
 10
174.97265625
 20
-0.0
 10
165.251953125
 20
-0.0
 10
155.53125
 20
-0.0
 10
145.810546875
 20
-0.0
 10
136.08984375
 20
-0.0
 10
126.369140625
 20
-0.0
 10
116.6484375
 20
-0.0
 10
106.927734375
 20
-0.0
 10
97.20703125
 20
-0.0
 10
87.486328125
 20
-0.0
 10
77.765625
 20
-0.0
 10
68.044921875
 20
-0.0
 10
58.32421875
 20
-0.0
 10
48.603515625
 20
-0.0
 10
38.8828125
 20
-0.0
 10
29.162109375
 20
-0.0
 10
19.44140625
 20
-0.0
 10
9.720703125
 20
-0.0
  0
LWPOLYLINE
  5
37
330
17
100
AcDbEntity
  8
substrate
100
AcDbPolyline
 90
4
 70
1
 43
0.5
 10
2712.076171875
 20
-2955.09375
 10
2721.796875
 20
-2945.373046875
 10
2731.517578125
 20
-2955.09375
 10
2721.796875
 20
-2964.814453125
  0
LWPOLYLINE
  5
38
330
17
100
AcDbEntity
  8
substrate
100
AcDbPolyline
 90
30
 70
1
 43
0.5
 10
2099.671875
 20
-2770.400390625
 10
2109.392578125
 20
-2760.6796875
 10
2119.11328125
 20
-2770.400390625
 10
2119.11328125
 20
-2780.12109375
 10
2119.11328125
 20
-2789.841796875
 10
2128.833984375
 20
-2799.5625
 10
2128.833984375
 20
-2809.283203125
 10
2138.5546875
 20
-2809.283203125
 10
2148.275390625
 20
-2819.00390625
 10
2138.5546875
 20
-2828.724609375
 10
2148.275390625
 20
-2838.4453125
 10
2148.275390625
 20
-2848.166015625
 10
2138.5546875
 20
-2857.88671875
 10
2128.833984375
 20
-2857.88671875
 10
2119.11328125
 20
-2857.88671875
 10
2109.392578125
 20
-2857.88671875
 10
2099.671875
 20
-2848.166015625
 10
2099.671875
 20
-2838.4453125
 10
2109.392578125
 20
-2828.724609375
 10
2099.671875
 20
-2838.4453125
 10
2089.951171875
 20
-2828.724609375
 10
2080.23046875
 20
-2828.724609375
 10
2070.509765625
 20
-2819.00390625
 10
2060.7890625
 20
-2819.00390625
 10
2051.068359375
 20
-2809.283203125
 10
2060.7890625
 20
-2799.5625
 10
2060.7890625
 20
-2789.841796875
 10
2070.509765625
 20
-2780.12109375
 10
2080.23046875
 20
-2770.400390625
 10
2089.951171875
 20
-2770.400390625
  0
LWPOLYLINE
  5
39
330
17
100
AcDbEntity
  8
substrate
100
AcDbPolyline
 90
4
 70
1
 43
0.5
 10
2012.185546875
 20
-2663.47265625
 10
2021.90625
 20
-2653.751953125
 10
2031.626953125
 20
-2663.47265625
 10
2021.90625
 20
-2673.193359375
  0
LWPOLYLINE
  5
3A
330
17
100
AcDbEntity
  8
substrate
100
AcDbPolyline
 90
265
 70
1
 43
0.5
 10
2478.779296875
 20
-2041.34765625
 10
2488.5
 20
-2031.626953125
 10
2498.220703125
 20
-2041.34765625
 10
2507.94140625
 20
-2041.34765625
 10
2517.662109375
 20
-2041.34765625
 10
2527.3828125
 20
-2041.34765625
 10
2537.103515625
 20
-2041.34765625
 10
2546.82421875
 20
-2041.34765625
 10
2556.544921875
 20
-2041.34765625
 10
2566.265625
 20
-2051.068359375
 10
2575.986328125
 20
-2051.068359375
 10
2585.70703125
 20
-2051.068359375
 10
2595.427734375
 20
-2051.068359375
 10
2605.1484375
 20
-2051.068359375
 10
2614.869140625
 20
-2060.7890625
 10
2624.58984375
 20
-2060.7890625
 10
2634.310546875
 20
-2060.7890625
 10
2644.03125
 20
-2060.7890625
 10
2653.751953125
 20
-2070.509765625
 10
2663.47265625
 20
-2070.509765625
 10
2673.193359375
 20
-2080.23046875
 10
2682.9140625
 20
-2089.951171875
 10
2692.634765625
 20
-2089.951171875
 10
2702.35546875
 20
-2099.671875
 10
2712.076171875
 20
-2099.671875
 10
2721.796875
 20
-2109.392578125
 10
2731.517578125
 20
-2119.11328125
 10
2741.23828125
 20
-2119.11328125
 10
2750.958984375
 20
-2128.833984375
 10
2760.6796875
 20
-2138.5546875
 10
2770.400390625
 20
-2148.275390625
 10
2780.12109375
 20
-2157.99609375
 10
2789.841796875
 20
-2167.716796875
 10
2799.5625
 20
-2177.4375
 10
2809.283203125
 20
-2187.158203125
 10
2819.00390625
 20
-2196.87890625
 10
2828.724609375
 20
-2206.599609375
 10
2838.4453125
 20
-2216.3203125
 10
2848.166015625
 20
-2226.041015625
 10
2857.88671875
 20
-2226.041015625
 10
2867.607421875
 20
-2235.76171875
 10
2867.607421875
 20
-2245.482421875
 10
2877.328125
 20
-2255.203125
 10
2887.048828125
 20
-2264.923828125
 10
2887.048828125
 20
-2274.64453125
 10
2896.76953125
 20
-2284.365234375
 10
2896.76953125
 20
-2294.0859375
 10
2906.490234375
 20
-2303.806640625
 10
2906.490234375
 20
-2313.52734375
 10
2906.490234375
 20
-2323.248046875
 10
2906.490234375
 20
-2332.96875
 10
2906.490234375
 20
-2342.689453125
 10
2916.2109375
 20
-2352.41015625
 10
2916.2109375
 20
-2362.130859375
 10
2916.2109375
 20
-2371.8515625
 10
2925.931640625
 20
-2381.572265625
 10
2925.931640625
 20
-2391.29296875
 10
2925.931640625
 20
-2401.013671875
 10
2935.65234375
 20
-2410.734375
 10
2935.65234375
 20
-2420.455078125
 10
2935.65234375
 20
-2430.17578125
 10
2935.65234375
 20
-2439.896484375
 10
2935.65234375
 20
-2449.6171875
 10
2935.65234375
 20
-2459.337890625
 10
2935.65234375
 20
-2469.05859375
 10
2935.65234375
 20
-2478.779296875
 10
2925.931640625
 20
-2488.5
 10
2935.65234375
 20
-2498.220703125
 10
2925.931640625
 20
-2507.94140625
 10
2935.65234375
 20
-2517.662109375
 10
2925.931640625
 20
-2527.3828125
 10
2925.931640625
 20
-2537.103515625
 10
2925.931640625
 20
-2546.82421875
 10
2935.65234375
 20
-2556.544921875
 10
2935.65234375
 20
-2566.265625
 10
2935.65234375
 20
-2575.986328125
 10
2935.65234375
 20
-2585.70703125
 10
2935.65234375
 20
-2595.427734375
 10
2925.931640625
 20
-2605.1484375
 10
2916.2109375
 20
-2605.1484375
 10
2916.2109375
 20
-2614.869140625
 10
2906.490234375
 20
-2624.58984375
 10
2906.490234375
 20
-2634.310546875
 10
2896.76953125
 20
-2644.03125
 10
2896.76953125
 20
-2653.751953125
 10
2887.048828125
 20
-2663.47265625
 10
2887.048828125
 20
-2673.193359375
 10
2887.048828125
 20
-2682.9140625
 10
2887.048828125
 20
-2692.634765625
 10
2877.328125
 20
-2702.35546875
 10
2867.607421875
 20
-2712.076171875
 10
2857.88671875
 20
-2721.796875
 10
2857.88671875
 20
-2731.517578125
 10
2848.166015625
 20
-2741.23828125
 10
2838.4453125
 20
-2750.958984375
 10
2828.724609375
 20
-2760.6796875
 10
2819.00390625
 20
-2770.400390625
 10
2809.283203125
 20
-2780.12109375
 10
2799.5625
 20
-2789.841796875
 10
2789.841796875
 20
-2799.5625
 10
2780.12109375
 20
-2799.5625
 10
2780.12109375
 20
-2809.283203125
 10
2770.400390625
 20
-2819.00390625
 10
2760.6796875
 20
-2828.724609375
 10
2750.958984375
 20
-2838.4453125
 10
2741.23828125
 20
-2838.4453125
 10
2731.517578125
 20
-2848.166015625
 10
2721.796875
 20
-2848.166015625
 10
2712.076171875
 20
-2857.88671875
 10
2702.35546875
 20
-2867.607421875
 10
2692.634765625
 20
-2877.328125
 10
2682.9140625
 20
-2877.328125
 10
2673.193359375
 20
-2877.328125
 10
2663.47265625
 20
-2887.048828125
 10
2653.751953125
 20
-2887.048828125
 10
2644.03125
 20
-2887.048828125
 10
2634.310546875
 20
-2896.76953125
 10
2624.58984375
 20
-2896.76953125
 10
2614.869140625
 20
-2896.76953125
 10
2605.1484375
 20
-2906.490234375
 10
2595.427734375
 20
-2916.2109375
 10
2585.70703125
 20
-2916.2109375
 10
2575.986328125
 20
-2916.2109375
 10
2566.265625
 20
-2925.931640625
 10
2556.544921875
 20
-2925.931640625
 10
2546.82421875
 20
-2916.2109375
 10
2537.103515625
 20
-2925.931640625
 10
2527.3828125
 20
-2925.931640625
 10
2517.662109375
 20
-2925.931640625
 10
2507.94140625
 20
-2925.931640625
 10
2498.220703125
 20
-2925.931640625
 10
2488.5
 20
-2925.931640625
 10
2478.779296875
 20
-2925.931640625
 10
2469.05859375
 20
-2925.931640625
 10
2459.337890625
 20
-2925.931640625
 10
2449.6171875
 20
-2925.931640625
 10
2439.896484375
 20
-2916.2109375
 10
2430.17578125
 20
-2916.2109375
 10
2420.455078125
 20
-2916.2109375
 10
2410.734375
 20
-2916.2109375
 10
2401.013671875
 20
-2916.2109375
 10
2391.29296875
 20
-2916.2109375
 10
2381.572265625
 20
-2916.2109375
 10
2371.8515625
 20
-2916.2109375
 10
2362.130859375
 20
-2906.490234375
 10
2352.41015625
 20
-2906.490234375
 10
2342.689453125
 20
-2906.490234375
 10
2332.96875
 20
-2896.76953125
 10
2323.248046875
 20
-2896.76953125
 10
2313.52734375
 20
-2887.048828125
 10
2303.806640625
 20
-2887.048828125
 10
2294.0859375
 20
-2877.328125
 10
2284.365234375
 20
-2877.328125
 10
2274.64453125
 20
-2877.328125
 10
2264.923828125
 20
-2867.607421875
 10
2255.203125
 20
-2857.88671875
 10
2245.482421875
 20
-2857.88671875
 10
2235.76171875
 20
-2848.166015625
 10
2226.041015625
 20
-2838.4453125
 10
2216.3203125
 20
-2838.4453125
 10
2206.599609375
 20
-2828.724609375
 10
2206.599609375
 20
-2819.00390625
 10
2196.87890625
 20
-2819.00390625
 10
2187.158203125
 20
-2809.283203125
 10
2177.4375
 20
-2809.283203125
 10
2167.716796875
 20
-2799.5625
 10
2157.99609375
 20
-2789.841796875
 10
2148.275390625
 20
-2789.841796875
 10
2138.5546875
 20
-2780.12109375
 10
2128.833984375
 20
-2770.400390625
 10
2128.833984375
 20
-2760.6796875
 10
2119.11328125
 20
-2750.958984375
 10
2119.11328125
 20
-2741.23828125
 10
2119.11328125
 20
-2731.517578125
 10
2109.392578125
 20
-2721.796875
 10
2099.671875
 20
-2712.076171875
 10
2089.951171875
 20
-2712.076171875
 10
2080.23046875
 20
-2702.35546875
 10
2070.509765625
 20
-2692.634765625
 10
2070.509765625
 20
-2682.9140625
 10
2060.7890625
 20
-2673.193359375
 10
2051.068359375
 20
-2663.47265625
 10
2051.068359375
 20
-2653.751953125
 10
2060.7890625
 20
-2644.03125
 10
2060.7890625
 20
-2634.310546875
 10
2060.7890625
 20
-2624.58984375
 10
2060.7890625
 20
-2614.869140625
 10
2060.7890625
 20
-2605.1484375
 10
2051.068359375
 20
-2595.427734375
 10
2051.068359375
 20
-2585.70703125
 10
2051.068359375
 20
-2575.986328125
 10
2041.34765625
 20
-2566.265625
 10
2041.34765625
 20
-2556.544921875
 10
2041.34765625
 20
-2546.82421875
 10
2041.34765625
 20
-2537.103515625
 10
2041.34765625
 20
-2527.3828125
 10
2041.34765625
 20
-2517.662109375
 10
2041.34765625
 20
-2507.94140625
 10
2041.34765625
 20
-2498.220703125
 10
2041.34765625
 20
-2488.5
 10
2031.626953125
 20
-2478.779296875
 10
2031.626953125
 20
-2469.05859375
 10
2031.626953125
 20
-2459.337890625
 10
2031.626953125
 20
-2449.6171875
 10
2031.626953125
 20
-2439.896484375
 10
2031.626953125
 20
-2430.17578125
 10
2041.34765625
 20
-2420.455078125
 10
2041.34765625
 20
-2410.734375
 10
2041.34765625
 20
-2401.013671875
 10
2041.34765625
 20
-2391.29296875
 10
2041.34765625
 20
-2381.572265625
 10
2051.068359375
 20
-2371.8515625
 10
2051.068359375
 20
-2362.130859375
 10
2051.068359375
 20
-2352.41015625
 10
2060.7890625
 20
-2342.689453125
 10
2060.7890625
 20
-2332.96875
 10
2070.509765625
 20
-2323.248046875
 10
2070.509765625
 20
-2313.52734375
 10
2080.23046875
 20
-2303.806640625
 10
2080.23046875
 20
-2294.0859375
 10
2080.23046875
 20
-2284.365234375
 10
2089.951171875
 20
-2274.64453125
 10
2080.23046875
 20
-2264.923828125
 10
2089.951171875
 20
-2255.203125
 10
2099.671875
 20
-2245.482421875
 10
2109.392578125
 20
-2235.76171875
 10
2119.11328125
 20
-2226.041015625
 10
2119.11328125
 20
-2216.3203125
 10
2128.833984375
 20
-2206.599609375
 10
2128.833984375
 20
-2196.87890625
 10
2138.5546875
 20
-2187.158203125
 10
2148.275390625
 20
-2177.4375
 10
2157.99609375
 20
-2177.4375
 10
2167.716796875
 20
-2167.716796875
 10
2177.4375
 20
-2157.99609375
 10
2187.158203125
 20
-2157.99609375
 10
2196.87890625
 20
-2148.275390625
 10
2206.599609375
 20
-2138.5546875
 10
2216.3203125
 20
-2128.833984375
 10
2226.041015625
 20
-2119.11328125
 10
2235.76171875
 20
-2109.392578125
 10
2245.482421875
 20
-2109.392578125
 10
2255.203125
 20
-2099.671875
 10
2264.923828125
 20
-2099.671875
 10
2274.64453125
 20
-2089.951171875
 10
2284.365234375
 20
-2089.951171875
 10
2294.0859375
 20
-2080.23046875
 10
2303.806640625
 20
-2070.509765625
 10
2313.52734375
 20
-2070.509765625
 10
2323.248046875
 20
-2060.7890625
 10
2332.96875
 20
-2060.7890625
 10
2342.689453125
 20
-2051.068359375
 10
2352.41015625
 20
-2051.068359375
 10
2362.130859375
 20
-2051.068359375
 10
2371.8515625
 20
-2041.34765625
 10
2381.572265625
 20
-2041.34765625
 10
2391.29296875
 20
-2041.34765625
 10
2401.013671875
 20
-2051.068359375
 10
2410.734375
 20
-2041.34765625
 10
2420.455078125
 20
-2041.34765625
 10
2430.17578125
 20
-2041.34765625
 10
2439.896484375
 20
-2041.34765625
 10
2449.6171875
 20
-2041.34765625
 10
2459.337890625
 20
-2041.34765625
 10
2469.05859375
 20
-2041.34765625
  0
LWPOLYLINE
  5
3B
330
17
100
AcDbEntity
  8
substrate
100
AcDbPolyline
 90
4
 70
1
 43
0.5
 10
2089.951171875
 20
-1574.75390625
 10
2099.671875
 20
-1565.033203125
 10
2109.392578125
 20
-1574.75390625
 10
2099.671875
 20
-1584.474609375
  0
ENDSEC
  0
SECTION
  2
OBJECTS
  0
DICTIONARY
  5
A
330
0
100
AcDbDictionary
280
0
281
1
  3
ACAD_COLOR
350
B
  3
ACAD_GROUP
350
C
  3
ACAD_LAYOUT
350
D
  3
ACAD_MATERIAL
350
E
  3
ACAD_MLEADERSTYLE
350
F
  3
ACAD_MLINESTYLE
350
10
  3
ACAD_PLOTSETTINGS
350
11
  3
ACAD_PLOTSTYLENAME
350
12
  3
ACAD_SCALELIST
350
14
  3
ACAD_TABLESTYLE
350
15
  3
ACAD_VISUALSTYLE
350
16
  3
EZDXF_META
350
2D
  0
DICTIONARY
  5
B
330
A
100
AcDbDictionary
280
0
281
1
  0
DICTIONARY
  5
C
330
A
100
AcDbDictionary
280
0
281
1
  0
DICTIONARY
  5
D
330
A
100
AcDbDictionary
280
0
281
1
  3
Model
350
1A
  3
Layout1
350
1E
  0
DICTIONARY
  5
E
330
A
100
AcDbDictionary
280
0
281
1
  3
ByBlock
350
1F
  3
ByLayer
350
20
  3
Global
350
21
  0
DICTIONARY
  5
F
330
A
100
AcDbDictionary
280
0
281
1
  3
Standard
350
2C
  0
DICTIONARY
  5
10
330
A
100
AcDbDictionary
280
0
281
1
  3
Standard
350
22
  0
DICTIONARY
  5
11
330
A
100
AcDbDictionary
280
0
281
1
  0
ACDBDICTIONARYWDFLT
  5
12
330
A
100
AcDbDictionary
280
0
281
1
  3
Normal
350
13
100
AcDbDictionaryWithDefault
340
13
  0
ACDBPLACEHOLDER
  5
13
330
12
  0
DICTIONARY
  5
14
330
A
100
AcDbDictionary
280
0
281
1
  0
DICTIONARY
  5
15
330
A
100
AcDbDictionary
280
0
281
1
  0
DICTIONARY
  5
16
330
A
100
AcDbDictionary
280
0
281
1
  0
LAYOUT
  5
1A
330
D
100
AcDbPlotSettings
  1

  2
Adobe PDF
  4
A3
  6

 40
7.5
 41
20.0
 42
7.5
 43
20.0
 44
420.0
 45
297.0
 46
0.0
 47
0.0
 48
0.0
 49
0.0
140
0.0
141
0.0
142
1.0
143
1.0
 70
1024
 72
1
 73
0
 74
5
  7

 75
16
 76
0
 77
2
 78
300
147
1.0
148
0.0
149
0.0
100
AcDbLayout
  1
Model
 70
1
 71
0
 10
0.0
 20
0.0
 11
420.0
 21
297.0
 12
0.0
 22
0.0
 32
0.0
 14
1e+20
 24
1e+20
 34
1e+20
 15
-1e+20
 25
-1e+20
 35
-1e+20
146
0.0
 13
0.0
 23
0.0
 33
0.0
 16
1.0
 26
0.0
 36
0.0
 17
0.0
 27
1.0
 37
0.0
 76
1
330
17
  0
LAYOUT
  5
1E
330
D
100
AcDbPlotSettings
  1

  2
Adobe PDF
  4
A3
  6

 40
7.5
 41
20.0
 42
7.5
 43
20.0
 44
420.0
 45
297.0
 46
0.0
 47
0.0
 48
0.0
 49
0.0
140
0.0
141
0.0
142
1.0
143
1.0
 70
0
 72
1
 73
0
 74
5
  7

 75
16
 76
0
 77
2
 78
300
147
1.0
148
0.0
149
0.0
100
AcDbLayout
  1
Layout1
 70
1
 71
1
 10
0.0
 20
0.0
 11
420.0
 21
297.0
 12
0.0
 22
0.0
 32
0.0
 14
1e+20
 24
1e+20
 34
1e+20
 15
-1e+20
 25
-1e+20
 35
-1e+20
146
0.0
 13
0.0
 23
0.0
 33
0.0
 16
1.0
 26
0.0
 36
0.0
 17
0.0
 27
1.0
 37
0.0
 76
1
330
1B
  0
MATERIAL
  5
1F
102
{ACAD_REACTORS
330
E
102
}
330
E
100
AcDbMaterial
  1
ByBlock
  2

 70
0
 40
1.0
 71
1
 41
1.0
 91
-1023410177
 42
1.0
 72
1
  3

 73
1
 74
1
 75
1
 44
0.5
 73
0
 45
1.0
 46
1.0
 77
1
  4

 78
1
 79
1
170
1
 48
1.0
171
1
  6

172
1
173
1
174
1
140
1.0
141
1.0
175
1
  7

176
1
177
1
178
1
143
1.0
179
1
  8

270
1
271
1
272
1
145
1.0
146
1.0
273
1
  9

274
1
275
1
276
1
 42
1.0
 72
1
  3

 73
1
 74
1
 75
1
 94
63
  0
MATERIAL
  5
20
102
{ACAD_REACTORS
330
E
102
}
330
E
100
AcDbMaterial
  1
ByLayer
  2

 70
0
 40
1.0
 71
1
 41
1.0
 91
-1023410177
 42
1.0
 72
1
  3

 73
1
 74
1
 75
1
 44
0.5
 73
0
 45
1.0
 46
1.0
 77
1
  4

 78
1
 79
1
170
1
 48
1.0
171
1
  6

172
1
173
1
174
1
140
1.0
141
1.0
175
1
  7

176
1
177
1
178
1
143
1.0
179
1
  8

270
1
271
1
272
1
145
1.0
146
1.0
273
1
  9

274
1
275
1
276
1
 42
1.0
 72
1
  3

 73
1
 74
1
 75
1
 94
63
  0
MATERIAL
  5
21
102
{ACAD_REACTORS
330
E
102
}
330
E
100
AcDbMaterial
  1
Global
  2

 70
0
 40
1.0
 71
1
 41
1.0
 91
-1023410177
 42
1.0
 72
1
  3

 73
1
 74
1
 75
1
 44
0.5
 73
0
 45
1.0
 46
1.0
 77
1
  4

 78
1
 79
1
170
1
 48
1.0
171
1
  6

172
1
173
1
174
1
140
1.0
141
1.0
175
1
  7

176
1
177
1
178
1
143
1.0
179
1
  8

270
1
271
1
272
1
145
1.0
146
1.0
273
1
  9

274
1
275
1
276
1
 42
1.0
 72
1
  3

 73
1
 74
1
 75
1
 94
63
  0
MLINESTYLE
  5
22
102
{ACAD_REACTORS
330
10
102
}
330
10
100
AcDbMlineStyle
  2
Standard
 70
0
  3

 62
256
 51
90.0
 52
90.0
 71
2
 49
0.5
 62
256
  6
BYLAYER
 49
-0.5
 62
256
  6
BYLAYER
  0
MLEADERSTYLE
  5
2C
102
{ACAD_REACTORS
330
F
102
}
330
F
100
AcDbMLeaderStyle
179
2
170
2
171
1
172
0
 90
2
 40
0.0
 41
0.0
173
1
 91
-1056964608
 92
-2
290
1
 42
2.0
291
1
 43
8.0
  3
Standard
 44
4.0
300

342
29
174
1
175
1
176
0
178
1
 93
-1056964608
 45
4.0
292
0
297
0
 46
4.0
 94
-1056964608
 47
1.0
 49
1.0
140
1.0
294
1
141
0.0
177
0
142
1.0
295
0
296
0
143
3.75
271
0
272
9
273
9
  0
DICTIONARY
  5
2D
330
A
100
AcDbDictionary
281
1
  3
CREATED_BY_EZDXF
350
2E
  3
WRITTEN_BY_EZDXF
350
3E
  0
DICTIONARYVAR
  5
2E
330
2D
100
DictionaryVariables
280
0
  1
1.1.0 @ 2025-01-31T15:25:03.542131+00:00
  0
DICTIONARYVAR
  5
3E
330
2D
100
DictionaryVariables
280
0
  1
1.1.0 @ 2025-01-31T15:25:03.547294+00:00
  0
ENDSEC
  0
EOF
