  0
SECTION
  2
HEADER
  9
$ACADVER
  1
AC1027
  9
$ACADMAINTVER
 70
105
  9
$DWGCODEPAGE
  3
ANSI_1252
  9
$LASTSAVEDBY
  1
ezdxf
  9
$REQUIREDVERSIONS
160
0
  9
$INSBASE
 10
0.0
 20
0.0
 30
0.0
  9
$EXTMIN
 10
1e+20
 20
1e+20
 30
1e+20
  9
$EXTMAX
 10
-1e+20
 20
-1e+20
 30
-1e+20
  9
$LIMMIN
 10
0.0
 20
0.0
  9
$LIMMAX
 10
420.0
 20
297.0
  9
$ORTHOMODE
 70
0
  9
$REGENMODE
 70
1
  9
$FILLMODE
 70
1
  9
$QTEXTMODE
 70
0
  9
$MIRRTEXT
 70
1
  9
$LTSCALE
 40
1.0
  9
$ATTMODE
 70
1
  9
$TEXTSIZE
 40
2.5
  9
$TRACEWID
 40
1.0
  9
$TEXTSTYLE
  7
Standard
  9
$CLAYER
  8
0
  9
$CELTYPE
  6
ByLayer
  9
$CECOLOR
 62
256
  9
$CELTSCALE
 40
1.0
  9
$DISPSILH
 70
0
  9
$DIMSCALE
 40
1.0
  9
$DIMASZ
 40
2.5
  9
$DIMEXO
 40
0.625
  9
$DIMDLI
 40
3.75
  9
$DIMRND
 40
0.0
  9
$DIMDLE
 40
0.0
  9
$DIMEXE
 40
1.25
  9
$DIMTP
 40
0.0
  9
$DIMTM
 40
0.0
  9
$DIMTXT
 40
2.5
  9
$DIMCEN
 40
2.5
  9
$DIMTSZ
 40
0.0
  9
$DIMTOL
 70
0
  9
$DIMLIM
 70
0
  9
$DIMTIH
 70
0
  9
$DIMTOH
 70
0
  9
$DIMSE1
 70
0
  9
$DIMSE2
 70
0
  9
$DIMTAD
 70
1
  9
$DIMZIN
 70
8
  9
$DIMBLK
  1

  9
$DIMASO
 70
1
  9
$DIMSHO
 70
1
  9
$DIMPOST
  1

  9
$DIMAPOST
  1

  9
$DIMALT
 70
0
  9
$DIMALTD
 70
3
  9
$DIMALTF
 40
0.03937007874
  9
$DIMLFAC
 40
1.0
  9
$DIMTOFL
 70
1
  9
$DIMTVP
 40
0.0
  9
$DIMTIX
 70
0
  9
$DIMSOXD
 70
0
  9
$DIMSAH
 70
0
  9
$DIMBLK1
  1

  9
$DIMBLK2
  1

  9
$DIMSTYLE
  2
ISO-25
  9
$DIMCLRD
 70
0
  9
$DIMCLRE
 70
0
  9
$DIMCLRT
 70
0
  9
$DIMTFAC
 40
1.0
  9
$DIMGAP
 40
0.625
  9
$DIMJUST
 70
0
  9
$DIMSD1
 70
0
  9
$DIMSD2
 70
0
  9
$DIMTOLJ
 70
0
  9
$DIMTZIN
 70
8
  9
$DIMALTZ
 70
0
  9
$DIMALTTZ
 70
0
  9
$DIMUPT
 70
0
  9
$DIMDEC
 70
2
  9
$DIMTDEC
 70
2
  9
$DIMALTU
 70
2
  9
$DIMALTTD
 70
3
  9
$DIMTXSTY
  7
Standard
  9
$DIMAUNIT
 70
0
  9
$DIMADEC
 70
0
  9
$DIMALTRND
 40
0.0
  9
$DIMAZIN
 70
0
  9
$DIMDSEP
 70
44
  9
$DIMATFIT
 70
3
  9
$DIMFRAC
 70
0
  9
$DIMLDRBLK
  1

  9
$DIMLUNIT
 70
2
  9
$DIMLWD
 70
-2
  9
$DIMLWE
 70
-2
  9
$DIMTMOVE
 70
0
  9
$DIMFXL
 40
1.0
  9
$DIMFXLON
 70
0
  9
$DIMJOGANG
 40
0.785398163397
  9
$DIMTFILL
 70
0
  9
$DIMTFILLCLR
 70
0
  9
$DIMARCSYM
 70
0
  9
$DIMLTYPE
  6

  9
$DIMLTEX1
  6

  9
$DIMLTEX2
  6

  9
$DIMTXTDIRECTION
 70
0
  9
$LUNITS
 70
2
  9
$LUPREC
 70
4
  9
$SKETCHINC
 40
1.0
  9
$FILLETRAD
 40
10.0
  9
$AUNITS
 70
0
  9
$AUPREC
 70
2
  9
$MENU
  1
.
  9
$ELEVATION
 40
0.0
  9
$PELEVATION
 40
0.0
  9
$THICKNESS
 40
0.0
  9
$LIMCHECK
 70
0
  9
$CHAMFERA
 40
0.0
  9
$CHAMFERB
 40
0.0
  9
$CHAMFERC
 40
0.0
  9
$CHAMFERD
 40
0.0
  9
$SKPOLY
 70
0
  9
$TDCREATE
 40
2460710.879710648
  9
$TDUCREATE
 40
2458532.153996898
  9
$TDUPDATE
 40
2460710.879710648
  9
$TDUUPDATE
 40
2458532.1544311
  9
$TDINDWG
 40
0.0
  9
$TDUSRTIMER
 40
0.0
  9
$USRTIMER
 70
1
  9
$ANGBASE
 50
0.0
  9
$ANGDIR
 70
0
  9
$PDMODE
 70
0
  9
$PDSIZE
 40
0.0
  9
$PLINEWID
 40
0.0
  9
$SPLFRAME
 70
0
  9
$SPLINETYPE
 70
6
  9
$SPLINESEGS
 70
8
  9
$HANDSEED
  5
A0
  9
$SURFTAB1
 70
6
  9
$SURFTAB2
 70
6
  9
$SURFTYPE
 70
6
  9
$SURFU
 70
6
  9
$SURFV
 70
6
  9
$UCSBASE
  2

  9
$UCSNAME
  2

  9
$UCSORG
 10
0.0
 20
0.0
 30
0.0
  9
$UCSXDIR
 10
1.0
 20
0.0
 30
0.0
  9
$UCSYDIR
 10
0.0
 20
1.0
 30
0.0
  9
$UCSORTHOREF
  2

  9
$UCSORTHOVIEW
 70
0
  9
$UCSORGTOP
 10
0.0
 20
0.0
 30
0.0
  9
$UCSORGBOTTOM
 10
0.0
 20
0.0
 30
0.0
  9
$UCSORGLEFT
 10
0.0
 20
0.0
 30
0.0
  9
$UCSORGRIGHT
 10
0.0
 20
0.0
 30
0.0
  9
$UCSORGFRONT
 10
0.0
 20
0.0
 30
0.0
  9
$UCSORGBACK
 10
0.0
 20
0.0
 30
0.0
  9
$PUCSBASE
  2

  9
$PUCSNAME
  2

  9
$PUCSORG
 10
0.0
 20
0.0
 30
0.0
  9
$PUCSXDIR
 10
1.0
 20
0.0
 30
0.0
  9
$PUCSYDIR
 10
0.0
 20
1.0
 30
0.0
  9
$PUCSORTHOREF
  2

  9
$PUCSORTHOVIEW
 70
0
  9
$PUCSORGTOP
 10
0.0
 20
0.0
 30
0.0
  9
$PUCSORGBOTTOM
 10
0.0
 20
0.0
 30
0.0
  9
$PUCSORGLEFT
 10
0.0
 20
0.0
 30
0.0
  9
$PUCSORGRIGHT
 10
0.0
 20
0.0
 30
0.0
  9
$PUCSORGFRONT
 10
0.0
 20
0.0
 30
0.0
  9
$PUCSORGBACK
 10
0.0
 20
0.0
 30
0.0
  9
$USERI1
 70
0
  9
$USERI2
 70
0
  9
$USERI3
 70
0
  9
$USERI4
 70
0
  9
$USERI5
 70
0
  9
$USERR1
 40
0.0
  9
$USERR2
 40
0.0
  9
$USERR3
 40
0.0
  9
$USERR4
 40
0.0
  9
$USERR5
 40
0.0
  9
$WORLDVIEW
 70
1
  9
$SHADEDGE
 70
3
  9
$SHADEDIF
 70
70
  9
$TILEMODE
 70
1
  9
$MAXACTVP
 70
64
  9
$PINSBASE
 10
0.0
 20
0.0
 30
0.0
  9
$PLIMCHECK
 70
0
  9
$PEXTMIN
 10
1e+20
 20
1e+20
 30
1e+20
  9
$PEXTMAX
 10
-1e+20
 20
-1e+20
 30
-1e+20
  9
$PLIMMIN
 10
0.0
 20
0.0
  9
$PLIMMAX
 10
420.0
 20
297.0
  9
$UNITMODE
 70
0
  9
$VISRETAIN
 70
1
  9
$PLINEGEN
 70
0
  9
$PSLTSCALE
 70
1
  9
$TREEDEPTH
 70
3020
  9
$CMLSTYLE
  2
Standard
  9
$CMLJUST
 70
0
  9
$CMLSCALE
 40
20.0
  9
$PROXYGRAPHICS
 70
1
  9
$MEASUREMENT
 70
1
  9
$CELWEIGHT
370
-1
  9
$ENDCAPS
280
0
  9
$JOINSTYLE
280
0
  9
$LWDISPLAY
290
0
  9
$INSUNITS
 70
6
  9
$HYPERLINKBASE
  1

  9
$STYLESHEET
  1

  9
$XEDIT
290
1
  9
$CEPSNTYPE
380
0
  9
$PSTYLEMODE
290
1
  9
$FINGERPRINTGUID
  2
{A40B9469-1AB5-438E-AF11-C03E45F8C5C5}
  9
$VERSIONGUID
  2
{3884EF2A-7C6D-407A-A103-970AD9F56692}
  9
$EXTNAMES
290
1
  9
$PSVPSCALE
 40
0.0
  9
$OLESTARTUP
290
0
  9
$SORTENTS
280
127
  9
$INDEXCTL
280
0
  9
$HIDETEXT
280
1
  9
$XCLIPFRAME
280
0
  9
$HALOGAP
280
0
  9
$OBSCOLOR
 70
257
  9
$OBSLTYPE
280
0
  9
$INTERSECTIONDISPLAY
280
0
  9
$INTERSECTIONCOLOR
 70
257
  9
$DIMASSOC
280
2
  9
$PROJECTNAME
  1

  9
$CAMERADISPLAY
290
0
  9
$LENSLENGTH
 40
50.0
  9
$CAMERAHEIGHT
 40
0.0
  9
$STEPSPERSEC
 40
24.0
  9
$STEPSIZE
 40
100.0
  9
$3DDWFPREC
 40
2.0
  9
$PSOLWIDTH
 40
0.005
  9
$PSOLHEIGHT
 40
0.08
  9
$LOFTANG1
 40
1.570796326795
  9
$LOFTANG2
 40
1.570796326795
  9
$LOFTMAG1
 40
0.0
  9
$LOFTMAG2
 40
0.0
  9
$LOFTPARAM
 70
7
  9
$LOFTNORMALS
280
1
  9
$LATITUDE
 40
37.795
  9
$LONGITUDE
 40
-122.394
  9
$NORTHDIRECTION
 40
0.0
  9
$TIMEZONE
 70
-8000
  9
$LIGHTGLYPHDISPLAY
280
1
  9
$TILEMODELIGHTSYNCH
280
1
  9
$CMATERIAL
347
20
  9
$SOLIDHIST
280
0
  9
$SHOWHIST
280
1
  9
$DWFFRAME
280
2
  9
$DGNFRAME
280
2
  9
$REALWORLDSCALE
290
1
  9
$INTERFERECOLOR
 62
256
  9
$CSHADOW
280
0
  9
$SHADOWPLANELOCATION
 40
0.0
  0
ENDSEC
  0
SECTION
  2
CLASSES
  0
CLASS
  1
ACDBDICTIONARYWDFLT
  2
AcDbDictionaryWithDefault
  3
ObjectDBX Classes
 90
0
 91
0
280
0
281
0
  0
CLASS
  1
SUN
  2
AcDbSun
  3
SCENEOE
 90
1153
 91
0
280
0
281
0
  0
CLASS
  1
VISUALSTYLE
  2
AcDbVisualStyle
  3
ObjectDBX Classes
 90
4095
 91
0
280
0
281
0
  0
CLASS
  1
MATERIAL
  2
AcDbMaterial
  3
ObjectDBX Classes
 90
1153
 91
0
280
0
281
0
  0
CLASS
  1
SCALE
  2
AcDbScale
  3
ObjectDBX Classes
 90
1153
 91
0
280
0
281
0
  0
CLASS
  1
TABLESTYLE
  2
AcDbTableStyle
  3
ObjectDBX Classes
 90
4095
 91
0
280
0
281
0
  0
CLASS
  1
MLEADERSTYLE
  2
AcDbMLeaderStyle
  3
ACDB_MLEADERSTYLE_CLASS
 90
4095
 91
0
280
0
281
0
  0
CLASS
  1
DICTIONARYVAR
  2
AcDbDictionaryVar
  3
ObjectDBX Classes
 90
0
 91
0
280
0
281
0
  0
CLASS
  1
CELLSTYLEMAP
  2
AcDbCellStyleMap
  3
ObjectDBX Classes
 90
1152
 91
0
280
0
281
0
  0
CLASS
  1
MENTALRAYRENDERSETTINGS
  2
AcDbMentalRayRenderSettings
  3
SCENEOE
 90
1024
 91
0
280
0
281
0
  0
CLASS
  1
ACDBDETAILVIEWSTYLE
  2
AcDbDetailViewStyle
  3
ObjectDBX Classes
 90
1025
 91
0
280
0
281
0
  0
CLASS
  1
ACDBSECTIONVIEWSTYLE
  2
AcDbSectionViewStyle
  3
ObjectDBX Classes
 90
1025
 91
0
280
0
281
0
  0
CLASS
  1
RASTERVARIABLES
  2
AcDbRasterVariables
  3
ISM
 90
0
 91
0
280
0
281
0
  0
CLASS
  1
LAYOUT
  2
AcDbLayout
  3
ObjectDBX Classes
 90
0
 91
0
280
0
281
0
  0
CLASS
  1
ACDBPLACEHOLDER
  2
AcDbPlaceHolder
  3
ObjectDBX Classes
 90
0
 91
0
280
0
281
0
  0
ENDSEC
  0
SECTION
  2
TABLES
  0
TABLE
  2
VPORT
  5
8
330
0
100
AcDbSymbolTable
 70
1
  0
VPORT
  5
23
330
8
100
AcDbSymbolTableRecord
100
AcDbViewportTableRecord
  2
*Active
 70
0
 10
0.0
 20
0.0
 11
1.0
 21
1.0
 12
0.0
 22
0.0
 13
0.0
 23
0.0
 14
0.5
 24
0.5
 15
0.5
 25
0.5
 16
0.0
 26
0.0
 36
1.0
 17
0.0
 27
0.0
 37
0.0
 40
1000.0
 41
1.34
 42
50.0
 43
0.0
 44
0.0
 50
0.0
 51
0.0
 71
0
 72
1000
 73
1
 74
3
 75
0
 76
0
 77
0
 78
0
281
0
 65
0
146
0.0
  0
ENDTAB
  0
TABLE
  2
LTYPE
  5
2
330
0
100
AcDbSymbolTable
 70
3
  0
LTYPE
  5
24
330
2
100
AcDbSymbolTableRecord
100
AcDbLinetypeTableRecord
  2
ByBlock
 70
0
  3

 72
65
 73
0
 40
0.0
  0
LTYPE
  5
25
330
2
100
AcDbSymbolTableRecord
100
AcDbLinetypeTableRecord
  2
ByLayer
 70
0
  3

 72
65
 73
0
 40
0.0
  0
LTYPE
  5
26
330
2
100
AcDbSymbolTableRecord
100
AcDbLinetypeTableRecord
  2
Continuous
 70
0
  3

 72
65
 73
0
 40
0.0
  0
ENDTAB
  0
TABLE
  2
LAYER
  5
1
330
0
100
AcDbSymbolTable
 70
5
  0
LAYER
  5
27
330
1
100
AcDbSymbolTableRecord
100
AcDbLayerTableRecord
  2
0
 70
0
 62
7
  6
Continuous
370
-3
390
13
347
21
  0
LAYER
  5
28
330
1
100
AcDbSymbolTableRecord
100
AcDbLayerTableRecord
  2
Defpoints
 70
0
 62
7
  6
Continuous
290
0
370
-3
390
13
347
21
  0
LAYER
  5
2F
330
1
100
AcDbSymbolTableRecord
100
AcDbLayerTableRecord
  2
conductor
 70
0
 62
1
  6
Continuous
370
-3
390
13
347
21
  0
LAYER
  5
30
330
1
100
AcDbSymbolTableRecord
100
AcDbLayerTableRecord
  2
dielectric
 70
0
 62
8
  6
Continuous
370
-3
390
13
347
21
  0
LAYER
  5
31
330
1
100
AcDbSymbolTableRecord
100
AcDbLayerTableRecord
  2
substrate
 70
0
 62
5
  6
Continuous
370
-3
390
13
347
21
  0
ENDTAB
  0
TABLE
  2
STYLE
  5
5
330
0
100
AcDbSymbolTable
 70
1
  0
STYLE
  5
29
330
5
100
AcDbSymbolTableRecord
100
AcDbTextStyleTableRecord
  2
Standard
 70
0
 40
0.0
 41
1.0
 50
0.0
 71
0
 42
2.5
  3
txt
  4

  0
ENDTAB
  0
TABLE
  2
VIEW
  5
7
330
0
100
AcDbSymbolTable
 70
0
  0
ENDTAB
  0
TABLE
  2
UCS
  5
6
330
0
100
AcDbSymbolTable
 70
0
  0
ENDTAB
  0
TABLE
  2
APPID
  5
3
330
0
100
AcDbSymbolTable
 70
3
  0
APPID
  5
2A
330
3
100
AcDbSymbolTableRecord
100
AcDbRegAppTableRecord
  2
ACAD
 70
0
  0
APPID
  5
9D
330
3
100
AcDbSymbolTableRecord
100
AcDbRegAppTableRecord
  2
HATCHBACKGROUNDCOLOR
 70
0
  0
APPID
  5
9E
330
3
100
AcDbSymbolTableRecord
100
AcDbRegAppTableRecord
  2
EZDXF
 70
0
  0
ENDTAB
  0
TABLE
  2
DIMSTYLE
  5
4
330
0
100
AcDbSymbolTable
 70
1
100
AcDbDimStyleTable
  0
DIMSTYLE
105
2B
330
4
100
AcDbSymbolTableRecord
100
AcDbDimStyleTableRecord
  2
Standard
 70
0
 40
1.0
 41
2.5
 42
0.625
 43
3.75
 44
1.25
 45
0.0
 46
0.0
 47
0.0
 48
0.0
 49
2.5
140
2.5
141
2.5
142
0.0
143
0.03937007874
144
1.0
145
0.0
146
1.0
147
0.625
148
0.0
 69
0
 70
0
 71
0
 72
0
 73
0
 74
0
 75
0
 76
0
 77
1
 78
8
 79
3
170
0
171
3
172
1
173
0
174
0
175
0
176
0
177
0
178
0
179
2
271
2
272
2
273
2
274
3
275
0
276
0
277
2
278
44
279
0
280
0
281
0
282
0
283
0
284
8
285
0
286
0
288
0
289
3
290
0
371
-2
372
-2
  0
ENDTAB
  0
TABLE
  2
BLOCK_RECORD
  5
9
330
0
100
AcDbSymbolTable
 70
2
  0
BLOCK_RECORD
  5
17
330
9
100
AcDbSymbolTableRecord
100
AcDbBlockTableRecord
  2
*Model_Space
340
1A
 70
0
280
1
281
0
  0
BLOCK_RECORD
  5
1B
330
9
100
AcDbSymbolTableRecord
100
AcDbBlockTableRecord
  2
*Paper_Space
340
1E
 70
0
280
1
281
0
  0
ENDTAB
  0
ENDSEC
  0
SECTION
  2
BLOCKS
  0
BLOCK
  5
18
330
17
100
AcDbEntity
  8
0
100
AcDbBlockBegin
  2
*Model_Space
 70
0
 10
0.0
 20
0.0
 30
0.0
  3
*Model_Space
  1

  0
ENDBLK
  5
19
330
17
100
AcDbEntity
  8
0
100
AcDbBlockEnd
  0
BLOCK
  5
1C
330
1B
100
AcDbEntity
  8
0
100
AcDbBlockBegin
  2
*Paper_Space
 70
0
 10
0.0
 20
0.0
 30
0.0
  3
*Paper_Space
  1

  0
ENDBLK
  5
1D
330
1B
100
AcDbEntity
  8
0
100
AcDbBlockEnd
  0
ENDSEC
  0
SECTION
  2
ENTITIES
  0
LWPOLYLINE
  5
32
330
17
100
AcDbEntity
  8
conductor
100
AcDbPolyline
 90
1
 70
1
 43
0.5
 10
1744.599609375
 20
-3971.1328125
  0
LWPOLYLINE
  5
33
330
17
100
AcDbEntity
  8
conductor
100
AcDbPolyline
 90
1
 70
1
 43
0.5
 10
3710.888671875
 20
-3508.4765625
  0
LWPOLYLINE
  5
34
330
17
100
AcDbEntity
  8
conductor
100
AcDbPolyline
 90
2
 70
1
 43
0.5
 10
3730.166015625
 20
-3489.19921875
 10
3730.166015625
 20
-3498.837890625
  0
LWPOLYLINE
  5
35
330
17
100
AcDbEntity
  8
conductor
100
AcDbPolyline
 90
176
 70
1
 43
0.5
 10
2409.66796875
 20
-2197.6171875
 10
2400.029296875
 20
-2207.255859375
 10
2390.390625
 20
-2207.255859375
 10
2380.751953125
 20
-2207.255859375
 10
2371.11328125
 20
-2207.255859375
 10
2361.474609375
 20
-2207.255859375
 10
2351.8359375
 20
-2216.89453125
 10
2342.197265625
 20
-2216.89453125
 10
2332.55859375
 20
-2216.89453125
 10
2322.919921875
 20
-2216.89453125
 10
2313.28125
 20
-2216.89453125
 10
2303.642578125
 20
-2226.533203125
 10
2294.00390625
 20
-2236.171875
 10
2284.365234375
 20
-2236.171875
 10
2284.365234375
 20
-2245.810546875
 10
2274.7265625
 20
-2255.44921875
 10
2274.7265625
 20
-2265.087890625
 10
2265.087890625
 20
-2274.7265625
 10
2255.44921875
 20
-2274.7265625
 10
2245.810546875
 20
-2284.365234375
 10
2236.171875
 20
-2294.00390625
 10
2226.533203125
 20
-2303.642578125
 10
2216.89453125
 20
-2313.28125
 10
2216.89453125
 20
-2322.919921875
 10
2207.255859375
 20
-2332.55859375
 10
2207.255859375
 20
-2342.197265625
 10
2207.255859375
 20
-2351.8359375
 10
2207.255859375
 20
-2361.474609375
 10
2197.6171875
 20
-2371.11328125
 10
2197.6171875
 20
-2380.751953125
 10
2197.6171875
 20
-2390.390625
 10
2207.255859375
 20
-2400.029296875
 10
2197.6171875
 20
-2409.66796875
 10
2187.978515625
 20
-2409.66796875
 10
2187.978515625
 20
-2419.306640625
 10
2187.978515625
 20
-2428.9453125
 10
2197.6171875
 20
-2438.583984375
 10
2187.978515625
 20
-2448.22265625
 10
2187.978515625
 20
-2457.861328125
 10
2187.978515625
 20
-2467.5
 10
2187.978515625
 20
-2477.138671875
 10
2187.978515625
 20
-2486.77734375
 10
2187.978515625
 20
-2496.416015625
 10
2187.978515625
 20
-2506.0546875
 10
2197.6171875
 20
-2515.693359375
 10
2187.978515625
 20
-2525.33203125
 10
2197.6171875
 20
-2534.970703125
 10
2197.6171875
 20
-2544.609375
 10
2207.255859375
 20
-2554.248046875
 10
2197.6171875
 20
-2563.88671875
 10
2207.255859375
 20
-2573.525390625
 10
2207.255859375
 20
-2583.1640625
 10
2216.89453125
 20
-2592.802734375
 10
2216.89453125
 20
-2602.44140625
 10
2226.533203125
 20
-2612.080078125
 10
2236.171875
 20
-2621.71875
 10
2236.171875
 20
-2631.357421875
 10
2245.810546875
 20
-2631.357421875
 10
2255.44921875
 20
-2640.99609375
 10
2255.44921875
 20
-2650.634765625
 10
2265.087890625
 20
-2650.634765625
 10
2274.7265625
 20
-2660.2734375
 10
2284.365234375
 20
-2669.912109375
 10
2294.00390625
 20
-2679.55078125
 10
2294.00390625
 20
-2689.189453125
 10
2303.642578125
 20
-2698.828125
 10
2313.28125
 20
-2708.466796875
 10
2322.919921875
 20
-2708.466796875
 10
2332.55859375
 20
-2708.466796875
 10
2342.197265625
 20
-2708.466796875
 10
2351.8359375
 20
-2718.10546875
 10
2361.474609375
 20
-2718.10546875
 10
2371.11328125
 20
-2727.744140625
 10
2380.751953125
 20
-2727.744140625
 10
2390.390625
 20
-2727.744140625
 10
2400.029296875
 20
-2727.744140625
 10
2409.66796875
 20
-2727.744140625
 10
2419.306640625
 20
-2727.744140625
 10
2428.9453125
 20
-2727.744140625
 10
2438.583984375
 20
-2727.744140625
 10
2448.22265625
 20
-2727.744140625
 10
2457.861328125
 20
-2737.3828125
 10
2467.5
 20
-2737.3828125
 10
2477.138671875
 20
-2737.3828125
 10
2486.77734375
 20
-2737.3828125
 10
2496.416015625
 20
-2737.3828125
 10
2506.0546875
 20
-2737.3828125
 10
2515.693359375
 20
-2727.744140625
 10
2525.33203125
 20
-2727.744140625
 10
2534.970703125
 20
-2727.744140625
 10
2544.609375
 20
-2727.744140625
 10
2554.248046875
 20
-2718.10546875
 10
2563.88671875
 20
-2727.744140625
 10
2573.525390625
 20
-2718.10546875
 10
2583.1640625
 20
-2727.744140625
 10
2592.802734375
 20
-2718.10546875
 10
2602.44140625
 20
-2718.10546875
 10
2602.44140625
 20
-2708.466796875
 10
2612.080078125
 20
-2698.828125
 10
2621.71875
 20
-2689.189453125
 10
2631.357421875
 20
-2679.55078125
 10
2640.99609375
 20
-2669.912109375
 10
2650.634765625
 20
-2660.2734375
 10
2650.634765625
 20
-2650.634765625
 10
2660.2734375
 20
-2640.99609375
 10
2669.912109375
 20
-2640.99609375
 10
2669.912109375
 20
-2631.357421875
 10
2679.55078125
 20
-2621.71875
 10
2679.55078125
 20
-2612.080078125
 10
2689.189453125
 20
-2602.44140625
 10
2698.828125
 20
-2602.44140625
 10
2698.828125
 20
-2592.802734375
 10
2708.466796875
 20
-2583.1640625
 10
2718.10546875
 20
-2592.802734375
 10
2718.10546875
 20
-2583.1640625
 10
2727.744140625
 20
-2573.525390625
 10
2737.3828125
 20
-2573.525390625
 10
2747.021484375
 20
-2573.525390625
 10
2747.021484375
 20
-2563.88671875
 10
2737.3828125
 20
-2554.248046875
 10
2737.3828125
 20
-2544.609375
 10
2737.3828125
 20
-2534.970703125
 10
2727.744140625
 20
-2525.33203125
 10
2727.744140625
 20
-2515.693359375
 10
2727.744140625
 20
-2506.0546875
 10
2727.744140625
 20
-2496.416015625
 10
2727.744140625
 20
-2486.77734375
 10
2727.744140625
 20
-2477.138671875
 10
2727.744140625
 20
-2467.5
 10
2718.10546875
 20
-2457.861328125
 10
2727.744140625
 20
-2448.22265625
 10
2718.10546875
 20
-2438.583984375
 10
2718.10546875
 20
-2428.9453125
 10
2718.10546875
 20
-2419.306640625
 10
2727.744140625
 20
-2409.66796875
 10
2718.10546875
 20
-2400.029296875
 10
2727.744140625
 20
-2390.390625
 10
2718.10546875
 20
-2380.751953125
 10
2718.10546875
 20
-2371.11328125
 10
2718.10546875
 20
-2361.474609375
 10
2708.466796875
 20
-2351.8359375
 10
2698.828125
 20
-2342.197265625
 10
2698.828125
 20
-2332.55859375
 10
2698.828125
 20
-2322.919921875
 10
2689.189453125
 20
-2313.28125
 10
2679.55078125
 20
-2303.642578125
 10
2679.55078125
 20
-2294.00390625
 10
2669.912109375
 20
-2294.00390625
 10
2660.2734375
 20
-2284.365234375
 10
2660.2734375
 20
-2274.7265625
 10
2650.634765625
 20
-2265.087890625
 10
2650.634765625
 20
-2255.44921875
 10
2640.99609375
 20
-2255.44921875
 10
2631.357421875
 20
-2245.810546875
 10
2621.71875
 20
-2236.171875
 10
2612.080078125
 20
-2226.533203125
 10
2602.44140625
 20
-2216.89453125
 10
2592.802734375
 20
-2216.89453125
 10
2583.1640625
 20
-2207.255859375
 10
2573.525390625
 20
-2207.255859375
 10
2563.88671875
 20
-2207.255859375
 10
2554.248046875
 20
-2197.6171875
 10
2544.609375
 20
-2207.255859375
 10
2534.970703125
 20
-2197.6171875
 10
2525.33203125
 20
-2197.6171875
 10
2515.693359375
 20
-2197.6171875
 10
2506.0546875
 20
-2197.6171875
 10
2496.416015625
 20
-2197.6171875
 10
2486.77734375
 20
-2197.6171875
 10
2477.138671875
 20
-2197.6171875
 10
2467.5
 20
-2197.6171875
 10
2457.861328125
 20
-2197.6171875
 10
2448.22265625
 20
-2197.6171875
 10
2438.583984375
 20
-2197.6171875
 10
2428.9453125
 20
-2197.6171875
 10
2419.306640625
 20
-2197.6171875
  0
LWPOLYLINE
  5
36
330
17
100
AcDbEntity
  8
conductor
100
AcDbPolyline
 90
4
 70
1
 43
0.5
 10
2294.00390625
 20
-2534.970703125
 10
2303.642578125
 20
-2525.33203125
 10
2313.28125
 20
-2534.970703125
 10
2303.642578125
 20
-2544.609375
  0
LWPOLYLINE
  5
37
330
17
100
AcDbEntity
  8
conductor
100
AcDbPolyline
 90
4
 70
1
 43
0.5
 10
2274.7265625
 20
-2534.970703125
 10
2284.365234375
 20
-2525.33203125
 10
2294.00390625
 20
-2534.970703125
 10
2284.365234375
 20
-2544.609375
  0
LWPOLYLINE
  5
38
330
17
100
AcDbEntity
  8
conductor
100
AcDbPolyline
 90
11
 70
1
 43
0.5
 10
2294.00390625
 20
-2380.751953125
 10
2303.642578125
 20
-2371.11328125
 10
2313.28125
 20
-2380.751953125
 10
2322.919921875
 20
-2371.11328125
 10
2332.55859375
 20
-2380.751953125
 10
2332.55859375
 20
-2390.390625
 10
2322.919921875
 20
-2400.029296875
 10
2313.28125
 20
-2400.029296875
 10
2303.642578125
 20
-2409.66796875
 10
2294.00390625
 20
-2400.029296875
 10
2294.00390625
 20
-2390.390625
  0
LWPOLYLINE
  5
39
330
17
100
AcDbEntity
  8
substrate
100
AcDbPolyline
 90
2044
 70
1
 43
0.5
 10
0.0
 20
-0.0
 10
0.0
 20
-9.638671875
 10
0.0
 20
-19.27734375
 10
0.0
 20
-28.916015625
 10
0.0
 20
-38.5546875
 10
0.0
 20
-48.193359375
 10
0.0
 20
-57.83203125
 10
0.0
 20
-67.470703125
 10
0.0
 20
-77.109375
 10
0.0
 20
-86.748046875
 10
0.0
 20
-96.38671875
 10
0.0
 20
-106.025390625
 10
0.0
 20
-115.6640625
 10
0.0
 20
-125.302734375
 10
0.0
 20
-134.94140625
 10
0.0
 20
-144.580078125
 10
0.0
 20
-154.21875
 10
0.0
 20
-163.857421875
 10
0.0
 20
-173.49609375
 10
0.0
 20
-183.134765625
 10
0.0
 20
-192.7734375
 10
0.0
 20
-202.412109375
 10
0.0
 20
-212.05078125
 10
0.0
 20
-221.689453125
 10
0.0
 20
-231.328125
 10
0.0
 20
-240.966796875
 10
0.0
 20
-250.60546875
 10
0.0
 20
-260.244140625
 10
0.0
 20
-269.8828125
 10
0.0
 20
-279.521484375
 10
0.0
 20
-289.16015625
 10
0.0
 20
-298.798828125
 10
0.0
 20
-308.4375
 10
0.0
 20
-318.076171875
 10
0.0
 20
-327.71484375
 10
0.0
 20
-337.353515625
 10
0.0
 20
-346.9921875
 10
0.0
 20
-356.630859375
 10
0.0
 20
-366.26953125
 10
0.0
 20
-375.908203125
 10
0.0
 20
-385.546875
 10
0.0
 20
-395.185546875
 10
0.0
 20
-404.82421875
 10
0.0
 20
-414.462890625
 10
0.0
 20
-424.1015625
 10
0.0
 20
-433.740234375
 10
0.0
 20
-443.37890625
 10
0.0
 20
-453.017578125
 10
0.0
 20
-462.65625
 10
0.0
 20
-472.294921875
 10
0.0
 20
-481.93359375
 10
0.0
 20
-491.572265625
 10
0.0
 20
-501.2109375
 10
0.0
 20
-510.849609375
 10
0.0
 20
-520.48828125
 10
0.0
 20
-530.126953125
 10
0.0
 20
-539.765625
 10
0.0
 20
-549.404296875
 10
0.0
 20
-559.04296875
 10
0.0
 20
-568.681640625
 10
0.0
 20
-578.3203125
 10
0.0
 20
-587.958984375
 10
0.0
 20
-597.59765625
 10
0.0
 20
-607.236328125
 10
0.0
 20
-616.875
 10
0.0
 20
-626.513671875
 10
0.0
 20
-636.15234375
 10
0.0
 20
-645.791015625
 10
0.0
 20
-655.4296875
 10
0.0
 20
-665.068359375
 10
0.0
 20
-674.70703125
 10
0.0
 20
-684.345703125
 10
0.0
 20
-693.984375
 10
0.0
 20
-703.623046875
 10
0.0
 20
-713.26171875
 10
0.0
 20
-722.900390625
 10
0.0
 20
-732.5390625
 10
0.0
 20
-742.177734375
 10
0.0
 20
-751.81640625
 10
0.0
 20
-761.455078125
 10
0.0
 20
-771.09375
 10
0.0
 20
-780.732421875
 10
0.0
 20
-790.37109375
 10
0.0
 20
-800.009765625
 10
0.0
 20
-809.6484375
 10
0.0
 20
-819.287109375
 10
0.0
 20
-828.92578125
 10
0.0
 20
-838.564453125
 10
0.0
 20
-848.203125
 10
0.0
 20
-857.841796875
 10
0.0
 20
-867.48046875
 10
0.0
 20
-877.119140625
 10
0.0
 20
-886.7578125
 10
0.0
 20
-896.396484375
 10
0.0
 20
-906.03515625
 10
0.0
 20
-915.673828125
 10
0.0
 20
-925.3125
 10
0.0
 20
-934.951171875
 10
0.0
 20
-944.58984375
 10
0.0
 20
-954.228515625
 10
0.0
 20
-963.8671875
 10
0.0
 20
-973.505859375
 10
0.0
 20
-983.14453125
 10
0.0
 20
-992.783203125
 10
0.0
 20
-1002.421875
 10
0.0
 20
-1012.060546875
 10
0.0
 20
-1021.69921875
 10
0.0
 20
-1031.337890625
 10
0.0
 20
-1040.9765625
 10
0.0
 20
-1050.615234375
 10
0.0
 20
-1060.25390625
 10
0.0
 20
-1069.892578125
 10
0.0
 20
-1079.53125
 10
0.0
 20
-1089.169921875
 10
0.0
 20
-1098.80859375
 10
0.0
 20
-1108.447265625
 10
0.0
 20
-1118.0859375
 10
0.0
 20
-1127.724609375
 10
0.0
 20
-1137.36328125
 10
0.0
 20
-1147.001953125
 10
0.0
 20
-1156.640625
 10
0.0
 20
-1166.279296875
 10
0.0
 20
-1175.91796875
 10
0.0
 20
-1185.556640625
 10
0.0
 20
-1195.1953125
 10
0.0
 20
-1204.833984375
 10
0.0
 20
-1214.47265625
 10
0.0
 20
-1224.111328125
 10
0.0
 20
-1233.75
 10
0.0
 20
-1243.388671875
 10
0.0
 20
-1253.02734375
 10
0.0
 20
-1262.666015625
 10
0.0
 20
-1272.3046875
 10
0.0
 20
-1281.943359375
 10
0.0
 20
-1291.58203125
 10
0.0
 20
-1301.220703125
 10
0.0
 20
-1310.859375
 10
0.0
 20
-1320.498046875
 10
0.0
 20
-1330.13671875
 10
0.0
 20
-1339.775390625
 10
0.0
 20
-1349.4140625
 10
0.0
 20
-1359.052734375
 10
0.0
 20
-1368.69140625
 10
0.0
 20
-1378.330078125
 10
0.0
 20
-1387.96875
 10
0.0
 20
-1397.607421875
 10
0.0
 20
-1407.24609375
 10
0.0
 20
-1416.884765625
 10
0.0
 20
-1426.5234375
 10
0.0
 20
-1436.162109375
 10
0.0
 20
-1445.80078125
 10
0.0
 20
-1455.439453125
 10
0.0
 20
-1465.078125
 10
0.0
 20
-1474.716796875
 10
0.0
 20
-1484.35546875
 10
0.0
 20
-1493.994140625
 10
0.0
 20
-1503.6328125
 10
0.0
 20
-1513.271484375
 10
0.0
 20
-1522.91015625
 10
0.0
 20
-1532.548828125
 10
0.0
 20
-1542.1875
 10
0.0
 20
-1551.826171875
 10
0.0
 20
-1561.46484375
 10
0.0
 20
-1571.103515625
 10
0.0
 20
-1580.7421875
 10
0.0
 20
-1590.380859375
 10
0.0
 20
-1600.01953125
 10
0.0
 20
-1609.658203125
 10
0.0
 20
-1619.296875
 10
0.0
 20
-1628.935546875
 10
0.0
 20
-1638.57421875
 10
0.0
 20
-1648.212890625
 10
0.0
 20
-1657.8515625
 10
0.0
 20
-1667.490234375
 10
0.0
 20
-1677.12890625
 10
0.0
 20
-1686.767578125
 10
0.0
 20
-1696.40625
 10
0.0
 20
-1706.044921875
 10
0.0
 20
-1715.68359375
 10
0.0
 20
-1725.322265625
 10
0.0
 20
-1734.9609375
 10
0.0
 20
-1744.599609375
 10
0.0
 20
-1754.23828125
 10
0.0
 20
-1763.876953125
 10
0.0
 20
-1773.515625
 10
0.0
 20
-1783.154296875
 10
0.0
 20
-1792.79296875
 10
0.0
 20
-1802.431640625
 10
0.0
 20
-1812.0703125
 10
0.0
 20
-1821.708984375
 10
0.0
 20
-1831.34765625
 10
0.0
 20
-1840.986328125
 10
0.0
 20
-1850.625
 10
0.0
 20
-1860.263671875
 10
0.0
 20
-1869.90234375
 10
0.0
 20
-1879.541015625
 10
0.0
 20
-1889.1796875
 10
0.0
 20
-1898.818359375
 10
0.0
 20
-1908.45703125
 10
0.0
 20
-1918.095703125
 10
0.0
 20
-1927.734375
 10
0.0
 20
-1937.373046875
 10
0.0
 20
-1947.01171875
 10
0.0
 20
-1956.650390625
 10
0.0
 20
-1966.2890625
 10
0.0
 20
-1975.927734375
 10
0.0
 20
-1985.56640625
 10
0.0
 20
-1995.205078125
 10
0.0
 20
-2004.84375
 10
0.0
 20
-2014.482421875
 10
0.0
 20
-2024.12109375
 10
0.0
 20
-2033.759765625
 10
0.0
 20
-2043.3984375
 10
0.0
 20
-2053.037109375
 10
0.0
 20
-2062.67578125
 10
0.0
 20
-2072.314453125
 10
0.0
 20
-2081.953125
 10
0.0
 20
-2091.591796875
 10
0.0
 20
-2101.23046875
 10
0.0
 20
-2110.869140625
 10
0.0
 20
-2120.5078125
 10
0.0
 20
-2130.146484375
 10
0.0
 20
-2139.78515625
 10
0.0
 20
-2149.423828125
 10
0.0
 20
-2159.0625
 10
0.0
 20
-2168.701171875
 10
0.0
 20
-2178.33984375
 10
0.0
 20
-2187.978515625
 10
0.0
 20
-2197.6171875
 10
0.0
 20
-2207.255859375
 10
0.0
 20
-2216.89453125
 10
0.0
 20
-2226.533203125
 10
0.0
 20
-2236.171875
 10
0.0
 20
-2245.810546875
 10
0.0
 20
-2255.44921875
 10
0.0
 20
-2265.087890625
 10
0.0
 20
-2274.7265625
 10
0.0
 20
-2284.365234375
 10
0.0
 20
-2294.00390625
 10
0.0
 20
-2303.642578125
 10
0.0
 20
-2313.28125
 10
0.0
 20
-2322.919921875
 10
0.0
 20
-2332.55859375
 10
0.0
 20
-2342.197265625
 10
0.0
 20
-2351.8359375
 10
0.0
 20
-2361.474609375
 10
0.0
 20
-2371.11328125
 10
0.0
 20
-2380.751953125
 10
0.0
 20
-2390.390625
 10
0.0
 20
-2400.029296875
 10
0.0
 20
-2409.66796875
 10
0.0
 20
-2419.306640625
 10
0.0
 20
-2428.9453125
 10
0.0
 20
-2438.583984375
 10
0.0
 20
-2448.22265625
 10
0.0
 20
-2457.861328125
 10
0.0
 20
-2467.5
 10
0.0
 20
-2477.138671875
 10
0.0
 20
-2486.77734375
 10
0.0
 20
-2496.416015625
 10
0.0
 20
-2506.0546875
 10
0.0
 20
-2515.693359375
 10
0.0
 20
-2525.33203125
 10
0.0
 20
-2534.970703125
 10
0.0
 20
-2544.609375
 10
0.0
 20
-2554.248046875
 10
0.0
 20
-2563.88671875
 10
0.0
 20
-2573.525390625
 10
0.0
 20
-2583.1640625
 10
0.0
 20
-2592.802734375
 10
0.0
 20
-2602.44140625
 10
0.0
 20
-2612.080078125
 10
0.0
 20
-2621.71875
 10
0.0
 20
-2631.357421875
 10
0.0
 20
-2640.99609375
 10
0.0
 20
-2650.634765625
 10
0.0
 20
-2660.2734375
 10
0.0
 20
-2669.912109375
 10
0.0
 20
-2679.55078125
 10
0.0
 20
-2689.189453125
 10
0.0
 20
-2698.828125
 10
0.0
 20
-2708.466796875
 10
0.0
 20
-2718.10546875
 10
0.0
 20
-2727.744140625
 10
0.0
 20
-2737.3828125
 10
0.0
 20
-2747.021484375
 10
0.0
 20
-2756.66015625
 10
0.0
 20
-2766.298828125
 10
0.0
 20
-2775.9375
 10
0.0
 20
-2785.576171875
 10
0.0
 20
-2795.21484375
 10
0.0
 20
-2804.853515625
 10
0.0
 20
-2814.4921875
 10
0.0
 20
-2824.130859375
 10
0.0
 20
-2833.76953125
 10
0.0
 20
-2843.408203125
 10
0.0
 20
-2853.046875
 10
0.0
 20
-2862.685546875
 10
0.0
 20
-2872.32421875
 10
0.0
 20
-2881.962890625
 10
0.0
 20
-2891.6015625
 10
0.0
 20
-2901.240234375
 10
0.0
 20
-2910.87890625
 10
0.0
 20
-2920.517578125
 10
0.0
 20
-2930.15625
 10
0.0
 20
-2939.794921875
 10
0.0
 20
-2949.43359375
 10
0.0
 20
-2959.072265625
 10
0.0
 20
-2968.7109375
 10
0.0
 20
-2978.349609375
 10
0.0
 20
-2987.98828125
 10
0.0
 20
-2997.626953125
 10
0.0
 20
-3007.265625
 10
0.0
 20
-3016.904296875
 10
0.0
 20
-3026.54296875
 10
0.0
 20
-3036.181640625
 10
0.0
 20
-3045.8203125
 10
0.0
 20
-3055.458984375
 10
0.0
 20
-3065.09765625
 10
0.0
 20
-3074.736328125
 10
0.0
 20
-3084.375
 10
0.0
 20
-3094.013671875
 10
0.0
 20
-3103.65234375
 10
0.0
 20
-3113.291015625
 10
0.0
 20
-3122.9296875
 10
0.0
 20
-3132.568359375
 10
0.0
 20
-3142.20703125
 10
0.0
 20
-3151.845703125
 10
0.0
 20
-3161.484375
 10
0.0
 20
-3171.123046875
 10
0.0
 20
-3180.76171875
 10
0.0
 20
-3190.400390625
 10
0.0
 20
-3200.0390625
 10
0.0
 20
-3209.677734375
 10
0.0
 20
-3219.31640625
 10
0.0
 20
-3228.955078125
 10
0.0
 20
-3238.59375
 10
0.0
 20
-3248.232421875
 10
0.0
 20
-3257.87109375
 10
0.0
 20
-3267.509765625
 10
0.0
 20
-3277.1484375
 10
0.0
 20
-3286.787109375
 10
0.0
 20
-3296.42578125
 10
0.0
 20
-3306.064453125
 10
0.0
 20
-3315.703125
 10
0.0
 20
-3325.341796875
 10
0.0
 20
-3334.98046875
 10
0.0
 20
-3344.619140625
 10
0.0
 20
-3354.2578125
 10
0.0
 20
-3363.896484375
 10
0.0
 20
-3373.53515625
 10
0.0
 20
-3383.173828125
 10
0.0
 20
-3392.8125
 10
0.0
 20
-3402.451171875
 10
0.0
 20
-3412.08984375
 10
0.0
 20
-3421.728515625
 10
0.0
 20
-3431.3671875
 10
0.0
 20
-3441.005859375
 10
0.0
 20
-3450.64453125
 10
0.0
 20
-3460.283203125
 10
0.0
 20
-3469.921875
 10
0.0
 20
-3479.560546875
 10
0.0
 20
-3489.19921875
 10
0.0
 20
-3498.837890625
 10
0.0
 20
-3508.4765625
 10
0.0
 20
-3518.115234375
 10
0.0
 20
-3527.75390625
 10
0.0
 20
-3537.392578125
 10
0.0
 20
-3547.03125
 10
0.0
 20
-3556.669921875
 10
0.0
 20
-3566.30859375
 10
0.0
 20
-3575.947265625
 10
0.0
 20
-3585.5859375
 10
0.0
 20
-3595.224609375
 10
0.0
 20
-3604.86328125
 10
0.0
 20
-3614.501953125
 10
0.0
 20
-3624.140625
 10
0.0
 20
-3633.779296875
 10
0.0
 20
-3643.41796875
 10
0.0
 20
-3653.056640625
 10
0.0
 20
-3662.6953125
 10
0.0
 20
-3672.333984375
 10
0.0
 20
-3681.97265625
 10
0.0
 20
-3691.611328125
 10
0.0
 20
-3701.25
 10
0.0
 20
-3710.888671875
 10
0.0
 20
-3720.52734375
 10
0.0
 20
-3730.166015625
 10
0.0
 20
-3739.8046875
 10
0.0
 20
-3749.443359375
 10
0.0
 20
-3759.08203125
 10
0.0
 20
-3768.720703125
 10
0.0
 20
-3778.359375
 10
0.0
 20
-3787.998046875
 10
0.0
 20
-3797.63671875
 10
0.0
 20
-3807.275390625
 10
0.0
 20
-3816.9140625
 10
0.0
 20
-3826.552734375
 10
0.0
 20
-3836.19140625
 10
0.0
 20
-3845.830078125
 10
0.0
 20
-3855.46875
 10
0.0
 20
-3865.107421875
 10
0.0
 20
-3874.74609375
 10
0.0
 20
-3884.384765625
 10
0.0
 20
-3894.0234375
 10
0.0
 20
-3903.662109375
 10
0.0
 20
-3913.30078125
 10
0.0
 20
-3922.939453125
 10
0.0
 20
-3932.578125
 10
0.0
 20
-3942.216796875
 10
0.0
 20
-3951.85546875
 10
0.0
 20
-3961.494140625
 10
0.0
 20
-3971.1328125
 10
0.0
 20
-3980.771484375
 10
0.0
 20
-3990.41015625
 10
0.0
 20
-4000.048828125
 10
0.0
 20
-4009.6875
 10
0.0
 20
-4019.326171875
 10
0.0
 20
-4028.96484375
 10
0.0
 20
-4038.603515625
 10
0.0
 20
-4048.2421875
 10
0.0
 20
-4057.880859375
 10
0.0
 20
-4067.51953125
 10
0.0
 20
-4077.158203125
 10
0.0
 20
-4086.796875
 10
0.0
 20
-4096.435546875
 10
0.0
 20
-4106.07421875
 10
0.0
 20
-4115.712890625
 10
0.0
 20
-4125.3515625
 10
0.0
 20
-4134.990234375
 10
0.0
 20
-4144.62890625
 10
0.0
 20
-4154.267578125
 10
0.0
 20
-4163.90625
 10
0.0
 20
-4173.544921875
 10
0.0
 20
-4183.18359375
 10
0.0
 20
-4192.822265625
 10
0.0
 20
-4202.4609375
 10
0.0
 20
-4212.099609375
 10
0.0
 20
-4221.73828125
 10
0.0
 20
-4231.376953125
 10
0.0
 20
-4241.015625
 10
0.0
 20
-4250.654296875
 10
0.0
 20
-4260.29296875
 10
0.0
 20
-4269.931640625
 10
0.0
 20
-4279.5703125
 10
0.0
 20
-4289.208984375
 10
0.0
 20
-4298.84765625
 10
0.0
 20
-4308.486328125
 10
0.0
 20
-4318.125
 10
0.0
 20
-4327.763671875
 10
0.0
 20
-4337.40234375
 10
0.0
 20
-4347.041015625
 10
0.0
 20
-4356.6796875
 10
0.0
 20
-4366.318359375
 10
0.0
 20
-4375.95703125
 10
0.0
 20
-4385.595703125
 10
0.0
 20
-4395.234375
 10
0.0
 20
-4404.873046875
 10
0.0
 20
-4414.51171875
 10
0.0
 20
-4424.150390625
 10
0.0
 20
-4433.7890625
 10
0.0
 20
-4443.427734375
 10
0.0
 20
-4453.06640625
 10
0.0
 20
-4462.705078125
 10
0.0
 20
-4472.34375
 10
0.0
 20
-4481.982421875
 10
0.0
 20
-4491.62109375
 10
0.0
 20
-4501.259765625
 10
0.0
 20
-4510.8984375
 10
0.0
 20
-4520.537109375
 10
0.0
 20
-4530.17578125
 10
0.0
 20
-4539.814453125
 10
0.0
 20
-4549.453125
 10
0.0
 20
-4559.091796875
 10
0.0
 20
-4568.73046875
 10
0.0
 20
-4578.369140625
 10
0.0
 20
-4588.0078125
 10
0.0
 20
-4597.646484375
 10
0.0
 20
-4607.28515625
 10
0.0
 20
-4616.923828125
 10
0.0
 20
-4626.5625
 10
0.0
 20
-4636.201171875
 10
0.0
 20
-4645.83984375
 10
0.0
 20
-4655.478515625
 10
0.0
 20
-4665.1171875
 10
0.0
 20
-4674.755859375
 10
0.0
 20
-4684.39453125
 10
0.0
 20
-4694.033203125
 10
0.0
 20
-4703.671875
 10
0.0
 20
-4713.310546875
 10
0.0
 20
-4722.94921875
 10
0.0
 20
-4732.587890625
 10
0.0
 20
-4742.2265625
 10
0.0
 20
-4751.865234375
 10
0.0
 20
-4761.50390625
 10
0.0
 20
-4771.142578125
 10
0.0
 20
-4780.78125
 10
0.0
 20
-4790.419921875
 10
0.0
 20
-4800.05859375
 10
0.0
 20
-4809.697265625
 10
0.0
 20
-4819.3359375
 10
0.0
 20
-4828.974609375
 10
0.0
 20
-4838.61328125
 10
0.0
 20
-4848.251953125
 10
0.0
 20
-4857.890625
 10
0.0
 20
-4867.529296875
 10
0.0
 20
-4877.16796875
 10
0.0
 20
-4886.806640625
 10
0.0
 20
-4896.4453125
 10
0.0
 20
-4906.083984375
 10
0.0
 20
-4915.72265625
 10
0.0
 20
-4925.361328125
 10
9.638671875
 20
-4925.361328125
 10
19.27734375
 20
-4925.361328125
 10
28.916015625
 20
-4925.361328125
 10
38.5546875
 20
-4925.361328125
 10
48.193359375
 20
-4925.361328125
 10
57.83203125
 20
-4925.361328125
 10
67.470703125
 20
-4925.361328125
 10
77.109375
 20
-4925.361328125
 10
86.748046875
 20
-4925.361328125
 10
96.38671875
 20
-4925.361328125
 10
106.025390625
 20
-4925.361328125
 10
115.6640625
 20
-4925.361328125
 10
125.302734375
 20
-4925.361328125
 10
134.94140625
 20
-4925.361328125
 10
144.580078125
 20
-4925.361328125
 10
154.21875
 20
-4925.361328125
 10
163.857421875
 20
-4925.361328125
 10
173.49609375
 20
-4925.361328125
 10
183.134765625
 20
-4925.361328125
 10
192.7734375
 20
-4925.361328125
 10
202.412109375
 20
-4925.361328125
 10
212.05078125
 20
-4925.361328125
 10
221.689453125
 20
-4925.361328125
 10
231.328125
 20
-4925.361328125
 10
240.966796875
 20
-4925.361328125
 10
250.60546875
 20
-4925.361328125
 10
260.244140625
 20
-4925.361328125
 10
269.8828125
 20
-4925.361328125
 10
279.521484375
 20
-4925.361328125
 10
289.16015625
 20
-4925.361328125
 10
298.798828125
 20
-4925.361328125
 10
308.4375
 20
-4925.361328125
 10
318.076171875
 20
-4925.361328125
 10
327.71484375
 20
-4925.361328125
 10
337.353515625
 20
-4925.361328125
 10
346.9921875
 20
-4925.361328125
 10
356.630859375
 20
-4925.361328125
 10
366.26953125
 20
-4925.361328125
 10
375.908203125
 20
-4925.361328125
 10
385.546875
 20
-4925.361328125
 10
395.185546875
 20
-4925.361328125
 10
404.82421875
 20
-4925.361328125
 10
414.462890625
 20
-4925.361328125
 10
424.1015625
 20
-4925.361328125
 10
433.740234375
 20
-4925.361328125
 10
443.37890625
 20
-4925.361328125
 10
453.017578125
 20
-4925.361328125
 10
462.65625
 20
-4925.361328125
 10
472.294921875
 20
-4925.361328125
 10
481.93359375
 20
-4925.361328125
 10
491.572265625
 20
-4925.361328125
 10
501.2109375
 20
-4925.361328125
 10
510.849609375
 20
-4925.361328125
 10
520.48828125
 20
-4925.361328125
 10
530.126953125
 20
-4925.361328125
 10
539.765625
 20
-4925.361328125
 10
549.404296875
 20
-4925.361328125
 10
559.04296875
 20
-4925.361328125
 10
568.681640625
 20
-4925.361328125
 10
578.3203125
 20
-4925.361328125
 10
587.958984375
 20
-4925.361328125
 10
597.59765625
 20
-4925.361328125
 10
607.236328125
 20
-4925.361328125
 10
616.875
 20
-4925.361328125
 10
626.513671875
 20
-4925.361328125
 10
636.15234375
 20
-4925.361328125
 10
645.791015625
 20
-4925.361328125
 10
655.4296875
 20
-4925.361328125
 10
665.068359375
 20
-4925.361328125
 10
674.70703125
 20
-4925.361328125
 10
684.345703125
 20
-4925.361328125
 10
693.984375
 20
-4925.361328125
 10
703.623046875
 20
-4925.361328125
 10
713.26171875
 20
-4925.361328125
 10
722.900390625
 20
-4925.361328125
 10
732.5390625
 20
-4925.361328125
 10
742.177734375
 20
-4925.361328125
 10
751.81640625
 20
-4925.361328125
 10
761.455078125
 20
-4925.361328125
 10
771.09375
 20
-4925.361328125
 10
780.732421875
 20
-4925.361328125
 10
790.37109375
 20
-4925.361328125
 10
800.009765625
 20
-4925.361328125
 10
809.6484375
 20
-4925.361328125
 10
819.287109375
 20
-4925.361328125
 10
828.92578125
 20
-4925.361328125
 10
838.564453125
 20
-4925.361328125
 10
848.203125
 20
-4925.361328125
 10
857.841796875
 20
-4925.361328125
 10
867.48046875
 20
-4925.361328125
 10
877.119140625
 20
-4925.361328125
 10
886.7578125
 20
-4925.361328125
 10
896.396484375
 20
-4925.361328125
 10
906.03515625
 20
-4925.361328125
 10
915.673828125
 20
-4925.361328125
 10
925.3125
 20
-4925.361328125
 10
934.951171875
 20
-4925.361328125
 10
944.58984375
 20
-4925.361328125
 10
954.228515625
 20
-4925.361328125
 10
963.8671875
 20
-4925.361328125
 10
973.505859375
 20
-4925.361328125
 10
983.14453125
 20
-4925.361328125
 10
992.783203125
 20
-4925.361328125
 10
1002.421875
 20
-4925.361328125
 10
1012.060546875
 20
-4925.361328125
 10
1021.69921875
 20
-4925.361328125
 10
1031.337890625
 20
-4925.361328125
 10
1040.9765625
 20
-4925.361328125
 10
1050.615234375
 20
-4925.361328125
 10
1060.25390625
 20
-4925.361328125
 10
1069.892578125
 20
-4925.361328125
 10
1079.53125
 20
-4925.361328125
 10
1089.169921875
 20
-4925.361328125
 10
1098.80859375
 20
-4925.361328125
 10
1108.447265625
 20
-4925.361328125
 10
1118.0859375
 20
-4925.361328125
 10
1127.724609375
 20
-4925.361328125
 10
1137.36328125
 20
-4925.361328125
 10
1147.001953125
 20
-4925.361328125
 10
1156.640625
 20
-4925.361328125
 10
1166.279296875
 20
-4925.361328125
 10
1175.91796875
 20
-4925.361328125
 10
1185.556640625
 20
-4925.361328125
 10
1195.1953125
 20
-4925.361328125
 10
1204.833984375
 20
-4925.361328125
 10
1214.47265625
 20
-4925.361328125
 10
1224.111328125
 20
-4925.361328125
 10
1233.75
 20
-4925.361328125
 10
1243.388671875
 20
-4925.361328125
 10
1253.02734375
 20
-4925.361328125
 10
1262.666015625
 20
-4925.361328125
 10
1272.3046875
 20
-4925.361328125
 10
1281.943359375
 20
-4925.361328125
 10
1291.58203125
 20
-4925.361328125
 10
1301.220703125
 20
-4925.361328125
 10
1310.859375
 20
-4925.361328125
 10
1320.498046875
 20
-4925.361328125
 10
1330.13671875
 20
-4925.361328125
 10
1339.775390625
 20
-4925.361328125
 10
1349.4140625
 20
-4925.361328125
 10
1359.052734375
 20
-4925.361328125
 10
1368.69140625
 20
-4925.361328125
 10
1378.330078125
 20
-4925.361328125
 10
1387.96875
 20
-4925.361328125
 10
1397.607421875
 20
-4925.361328125
 10
1407.24609375
 20
-4925.361328125
 10
1416.884765625
 20
-4925.361328125
 10
1426.5234375
 20
-4925.361328125
 10
1436.162109375
 20
-4925.361328125
 10
1445.80078125
 20
-4925.361328125
 10
1455.439453125
 20
-4925.361328125
 10
1465.078125
 20
-4925.361328125
 10
1474.716796875
 20
-4925.361328125
 10
1484.35546875
 20
-4925.361328125
 10
1493.994140625
 20
-4925.361328125
 10
1503.6328125
 20
-4925.361328125
 10
1513.271484375
 20
-4925.361328125
 10
1522.91015625
 20
-4925.361328125
 10
1532.548828125
 20
-4925.361328125
 10
1542.1875
 20
-4925.361328125
 10
1551.826171875
 20
-4925.361328125
 10
1561.46484375
 20
-4925.361328125
 10
1571.103515625
 20
-4925.361328125
 10
1580.7421875
 20
-4925.361328125
 10
1590.380859375
 20
-4925.361328125
 10
1600.01953125
 20
-4925.361328125
 10
1609.658203125
 20
-4925.361328125
 10
1619.296875
 20
-4925.361328125
 10
1628.935546875
 20
-4925.361328125
 10
1638.57421875
 20
-4925.361328125
 10
1648.212890625
 20
-4925.361328125
 10
1657.8515625
 20
-4925.361328125
 10
1667.490234375
 20
-4925.361328125
 10
1677.12890625
 20
-4925.361328125
 10
1686.767578125
 20
-4925.361328125
 10
1696.40625
 20
-4925.361328125
 10
1706.044921875
 20
-4925.361328125
 10
1715.68359375
 20
-4925.361328125
 10
1725.322265625
 20
-4925.361328125
 10
1734.9609375
 20
-4925.361328125
 10
1744.599609375
 20
-4925.361328125
 10
1754.23828125
 20
-4925.361328125
 10
1763.876953125
 20
-4925.361328125
 10
1773.515625
 20
-4925.361328125
 10
1783.154296875
 20
-4925.361328125
 10
1792.79296875
 20
-4925.361328125
 10
1802.431640625
 20
-4925.361328125
 10
1812.0703125
 20
-4925.361328125
 10
1821.708984375
 20
-4925.361328125
 10
1831.34765625
 20
-4925.361328125
 10
1840.986328125
 20
-4925.361328125
 10
1850.625
 20
-4925.361328125
 10
1860.263671875
 20
-4925.361328125
 10
1869.90234375
 20
-4925.361328125
 10
1879.541015625
 20
-4925.361328125
 10
1889.1796875
 20
-4925.361328125
 10
1898.818359375
 20
-4925.361328125
 10
1908.45703125
 20
-4925.361328125
 10
1918.095703125
 20
-4925.361328125
 10
1927.734375
 20
-4925.361328125
 10
1937.373046875
 20
-4925.361328125
 10
1947.01171875
 20
-4925.361328125
 10
1956.650390625
 20
-4925.361328125
 10
1966.2890625
 20
-4925.361328125
 10
1975.927734375
 20
-4925.361328125
 10
1985.56640625
 20
-4925.361328125
 10
1995.205078125
 20
-4925.361328125
 10
2004.84375
 20
-4925.361328125
 10
2014.482421875
 20
-4925.361328125
 10
2024.12109375
 20
-4925.361328125
 10
2033.759765625
 20
-4925.361328125
 10
2043.3984375
 20
-4925.361328125
 10
2053.037109375
 20
-4925.361328125
 10
2062.67578125
 20
-4925.361328125
 10
2072.314453125
 20
-4925.361328125
 10
2081.953125
 20
-4925.361328125
 10
2091.591796875
 20
-4925.361328125
 10
2101.23046875
 20
-4925.361328125
 10
2110.869140625
 20
-4925.361328125
 10
2120.5078125
 20
-4925.361328125
 10
2130.146484375
 20
-4925.361328125
 10
2139.78515625
 20
-4925.361328125
 10
2149.423828125
 20
-4925.361328125
 10
2159.0625
 20
-4925.361328125
 10
2168.701171875
 20
-4925.361328125
 10
2178.33984375
 20
-4925.361328125
 10
2187.978515625
 20
-4925.361328125
 10
2197.6171875
 20
-4925.361328125
 10
2207.255859375
 20
-4925.361328125
 10
2216.89453125
 20
-4925.361328125
 10
2226.533203125
 20
-4925.361328125
 10
2236.171875
 20
-4925.361328125
 10
2245.810546875
 20
-4925.361328125
 10
2255.44921875
 20
-4925.361328125
 10
2265.087890625
 20
-4925.361328125
 10
2274.7265625
 20
-4925.361328125
 10
2284.365234375
 20
-4925.361328125
 10
2294.00390625
 20
-4925.361328125
 10
2303.642578125
 20
-4925.361328125
 10
2313.28125
 20
-4925.361328125
 10
2322.919921875
 20
-4925.361328125
 10
2332.55859375
 20
-4925.361328125
 10
2342.197265625
 20
-4925.361328125
 10
2351.8359375
 20
-4925.361328125
 10
2361.474609375
 20
-4925.361328125
 10
2371.11328125
 20
-4925.361328125
 10
2380.751953125
 20
-4925.361328125
 10
2390.390625
 20
-4925.361328125
 10
2400.029296875
 20
-4925.361328125
 10
2409.66796875
 20
-4925.361328125
 10
2419.306640625
 20
-4925.361328125
 10
2428.9453125
 20
-4925.361328125
 10
2438.583984375
 20
-4925.361328125
 10
2448.22265625
 20
-4925.361328125
 10
2457.861328125
 20
-4925.361328125
 10
2467.5
 20
-4925.361328125
 10
2477.138671875
 20
-4925.361328125
 10
2486.77734375
 20
-4925.361328125
 10
2496.416015625
 20
-4925.361328125
 10
2506.0546875
 20
-4925.361328125
 10
2515.693359375
 20
-4925.361328125
 10
2525.33203125
 20
-4925.361328125
 10
2534.970703125
 20
-4925.361328125
 10
2544.609375
 20
-4925.361328125
 10
2554.248046875
 20
-4925.361328125
 10
2563.88671875
 20
-4925.361328125
 10
2573.525390625
 20
-4925.361328125
 10
2583.1640625
 20
-4925.361328125
 10
2592.802734375
 20
-4925.361328125
 10
2602.44140625
 20
-4925.361328125
 10
2612.080078125
 20
-4925.361328125
 10
2621.71875
 20
-4925.361328125
 10
2631.357421875
 20
-4925.361328125
 10
2640.99609375
 20
-4925.361328125
 10
2650.634765625
 20
-4925.361328125
 10
2660.2734375
 20
-4925.361328125
 10
2669.912109375
 20
-4925.361328125
 10
2679.55078125
 20
-4925.361328125
 10
2689.189453125
 20
-4925.361328125
 10
2698.828125
 20
-4925.361328125
 10
2708.466796875
 20
-4925.361328125
 10
2718.10546875
 20
-4925.361328125
 10
2727.744140625
 20
-4925.361328125
 10
2737.3828125
 20
-4925.361328125
 10
2747.021484375
 20
-4925.361328125
 10
2756.66015625
 20
-4925.361328125
 10
2766.298828125
 20
-4925.361328125
 10
2775.9375
 20
-4925.361328125
 10
2785.576171875
 20
-4925.361328125
 10
2795.21484375
 20
-4925.361328125
 10
2804.853515625
 20
-4925.361328125
 10
2814.4921875
 20
-4925.361328125
 10
2824.130859375
 20
-4925.361328125
 10
2833.76953125
 20
-4925.361328125
 10
2843.408203125
 20
-4925.361328125
 10
2853.046875
 20
-4925.361328125
 10
2862.685546875
 20
-4925.361328125
 10
2872.32421875
 20
-4925.361328125
 10
2881.962890625
 20
-4925.361328125
 10
2891.6015625
 20
-4925.361328125
 10
2901.240234375
 20
-4925.361328125
 10
2910.87890625
 20
-4925.361328125
 10
2920.517578125
 20
-4925.361328125
 10
2930.15625
 20
-4925.361328125
 10
2939.794921875
 20
-4925.361328125
 10
2949.43359375
 20
-4925.361328125
 10
2959.072265625
 20
-4925.361328125
 10
2968.7109375
 20
-4925.361328125
 10
2978.349609375
 20
-4925.361328125
 10
2987.98828125
 20
-4925.361328125
 10
2997.626953125
 20
-4925.361328125
 10
3007.265625
 20
-4925.361328125
 10
3016.904296875
 20
-4925.361328125
 10
3026.54296875
 20
-4925.361328125
 10
3036.181640625
 20
-4925.361328125
 10
3045.8203125
 20
-4925.361328125
 10
3055.458984375
 20
-4925.361328125
 10
3065.09765625
 20
-4925.361328125
 10
3074.736328125
 20
-4925.361328125
 10
3084.375
 20
-4925.361328125
 10
3094.013671875
 20
-4925.361328125
 10
3103.65234375
 20
-4925.361328125
 10
3113.291015625
 20
-4925.361328125
 10
3122.9296875
 20
-4925.361328125
 10
3132.568359375
 20
-4925.361328125
 10
3142.20703125
 20
-4925.361328125
 10
3151.845703125
 20
-4925.361328125
 10
3161.484375
 20
-4925.361328125
 10
3171.123046875
 20
-4925.361328125
 10
3180.76171875
 20
-4925.361328125
 10
3190.400390625
 20
-4925.361328125
 10
3200.0390625
 20
-4925.361328125
 10
3209.677734375
 20
-4925.361328125
 10
3219.31640625
 20
-4925.361328125
 10
3228.955078125
 20
-4925.361328125
 10
3238.59375
 20
-4925.361328125
 10
3248.232421875
 20
-4925.361328125
 10
3257.87109375
 20
-4925.361328125
 10
3267.509765625
 20
-4925.361328125
 10
3277.1484375
 20
-4925.361328125
 10
3286.787109375
 20
-4925.361328125
 10
3296.42578125
 20
-4925.361328125
 10
3306.064453125
 20
-4925.361328125
 10
3315.703125
 20
-4925.361328125
 10
3325.341796875
 20
-4925.361328125
 10
3334.98046875
 20
-4925.361328125
 10
3344.619140625
 20
-4925.361328125
 10
3354.2578125
 20
-4925.361328125
 10
3363.896484375
 20
-4925.361328125
 10
3373.53515625
 20
-4925.361328125
 10
3383.173828125
 20
-4925.361328125
 10
3392.8125
 20
-4925.361328125
 10
3402.451171875
 20
-4925.361328125
 10
3412.08984375
 20
-4925.361328125
 10
3421.728515625
 20
-4925.361328125
 10
3431.3671875
 20
-4925.361328125
 10
3441.005859375
 20
-4925.361328125
 10
3450.64453125
 20
-4925.361328125
 10
3460.283203125
 20
-4925.361328125
 10
3469.921875
 20
-4925.361328125
 10
3479.560546875
 20
-4925.361328125
 10
3489.19921875
 20
-4925.361328125
 10
3498.837890625
 20
-4925.361328125
 10
3508.4765625
 20
-4925.361328125
 10
3518.115234375
 20
-4925.361328125
 10
3527.75390625
 20
-4925.361328125
 10
3537.392578125
 20
-4925.361328125
 10
3547.03125
 20
-4925.361328125
 10
3556.669921875
 20
-4925.361328125
 10
3566.30859375
 20
-4925.361328125
 10
3575.947265625
 20
-4925.361328125
 10
3585.5859375
 20
-4925.361328125
 10
3595.224609375
 20
-4925.361328125
 10
3604.86328125
 20
-4925.361328125
 10
3614.501953125
 20
-4925.361328125
 10
3624.140625
 20
-4925.361328125
 10
3633.779296875
 20
-4925.361328125
 10
3643.41796875
 20
-4925.361328125
 10
3653.056640625
 20
-4925.361328125
 10
3662.6953125
 20
-4925.361328125
 10
3672.333984375
 20
-4925.361328125
 10
3681.97265625
 20
-4925.361328125
 10
3691.611328125
 20
-4925.361328125
 10
3701.25
 20
-4925.361328125
 10
3710.888671875
 20
-4925.361328125
 10
3720.52734375
 20
-4925.361328125
 10
3730.166015625
 20
-4925.361328125
 10
3739.8046875
 20
-4925.361328125
 10
3749.443359375
 20
-4925.361328125
 10
3759.08203125
 20
-4925.361328125
 10
3768.720703125
 20
-4925.361328125
 10
3778.359375
 20
-4925.361328125
 10
3787.998046875
 20
-4925.361328125
 10
3797.63671875
 20
-4925.361328125
 10
3807.275390625
 20
-4925.361328125
 10
3816.9140625
 20
-4925.361328125
 10
3826.552734375
 20
-4925.361328125
 10
3836.19140625
 20
-4925.361328125
 10
3845.830078125
 20
-4925.361328125
 10
3855.46875
 20
-4925.361328125
 10
3865.107421875
 20
-4925.361328125
 10
3874.74609375
 20
-4925.361328125
 10
3884.384765625
 20
-4925.361328125
 10
3894.0234375
 20
-4925.361328125
 10
3903.662109375
 20
-4925.361328125
 10
3913.30078125
 20
-4925.361328125
 10
3922.939453125
 20
-4925.361328125
 10
3932.578125
 20
-4925.361328125
 10
3942.216796875
 20
-4925.361328125
 10
3951.85546875
 20
-4925.361328125
 10
3961.494140625
 20
-4925.361328125
 10
3971.1328125
 20
-4925.361328125
 10
3980.771484375
 20
-4925.361328125
 10
3990.41015625
 20
-4925.361328125
 10
4000.048828125
 20
-4925.361328125
 10
4009.6875
 20
-4925.361328125
 10
4019.326171875
 20
-4925.361328125
 10
4028.96484375
 20
-4925.361328125
 10
4038.603515625
 20
-4925.361328125
 10
4048.2421875
 20
-4925.361328125
 10
4057.880859375
 20
-4925.361328125
 10
4067.51953125
 20
-4925.361328125
 10
4077.158203125
 20
-4925.361328125
 10
4086.796875
 20
-4925.361328125
 10
4096.435546875
 20
-4925.361328125
 10
4106.07421875
 20
-4925.361328125
 10
4115.712890625
 20
-4925.361328125
 10
4125.3515625
 20
-4925.361328125
 10
4134.990234375
 20
-4925.361328125
 10
4144.62890625
 20
-4925.361328125
 10
4154.267578125
 20
-4925.361328125
 10
4163.90625
 20
-4925.361328125
 10
4173.544921875
 20
-4925.361328125
 10
4183.18359375
 20
-4925.361328125
 10
4192.822265625
 20
-4925.361328125
 10
4202.4609375
 20
-4925.361328125
 10
4212.099609375
 20
-4925.361328125
 10
4221.73828125
 20
-4925.361328125
 10
4231.376953125
 20
-4925.361328125
 10
4241.015625
 20
-4925.361328125
 10
4250.654296875
 20
-4925.361328125
 10
4260.29296875
 20
-4925.361328125
 10
4269.931640625
 20
-4925.361328125
 10
4279.5703125
 20
-4925.361328125
 10
4289.208984375
 20
-4925.361328125
 10
4298.84765625
 20
-4925.361328125
 10
4308.486328125
 20
-4925.361328125
 10
4318.125
 20
-4925.361328125
 10
4327.763671875
 20
-4925.361328125
 10
4337.40234375
 20
-4925.361328125
 10
4347.041015625
 20
-4925.361328125
 10
4356.6796875
 20
-4925.361328125
 10
4366.318359375
 20
-4925.361328125
 10
4375.95703125
 20
-4925.361328125
 10
4385.595703125
 20
-4925.361328125
 10
4395.234375
 20
-4925.361328125
 10
4404.873046875
 20
-4925.361328125
 10
4414.51171875
 20
-4925.361328125
 10
4424.150390625
 20
-4925.361328125
 10
4433.7890625
 20
-4925.361328125
 10
4443.427734375
 20
-4925.361328125
 10
4453.06640625
 20
-4925.361328125
 10
4462.705078125
 20
-4925.361328125
 10
4472.34375
 20
-4925.361328125
 10
4481.982421875
 20
-4925.361328125
 10
4491.62109375
 20
-4925.361328125
 10
4501.259765625
 20
-4925.361328125
 10
4510.8984375
 20
-4925.361328125
 10
4520.537109375
 20
-4925.361328125
 10
4530.17578125
 20
-4925.361328125
 10
4539.814453125
 20
-4925.361328125
 10
4549.453125
 20
-4925.361328125
 10
4559.091796875
 20
-4925.361328125
 10
4568.73046875
 20
-4925.361328125
 10
4578.369140625
 20
-4925.361328125
 10
4588.0078125
 20
-4925.361328125
 10
4597.646484375
 20
-4925.361328125
 10
4607.28515625
 20
-4925.361328125
 10
4616.923828125
 20
-4925.361328125
 10
4626.5625
 20
-4925.361328125
 10
4636.201171875
 20
-4925.361328125
 10
4645.83984375
 20
-4925.361328125
 10
4655.478515625
 20
-4925.361328125
 10
4665.1171875
 20
-4925.361328125
 10
4674.755859375
 20
-4925.361328125
 10
4684.39453125
 20
-4925.361328125
 10
4694.033203125
 20
-4925.361328125
 10
4703.671875
 20
-4925.361328125
 10
4713.310546875
 20
-4925.361328125
 10
4722.94921875
 20
-4925.361328125
 10
4732.587890625
 20
-4925.361328125
 10
4742.2265625
 20
-4925.361328125
 10
4751.865234375
 20
-4925.361328125
 10
4761.50390625
 20
-4925.361328125
 10
4771.142578125
 20
-4925.361328125
 10
4780.78125
 20
-4925.361328125
 10
4790.419921875
 20
-4925.361328125
 10
4800.05859375
 20
-4925.361328125
 10
4809.697265625
 20
-4925.361328125
 10
4819.3359375
 20
-4925.361328125
 10
4828.974609375
 20
-4925.361328125
 10
4838.61328125
 20
-4925.361328125
 10
4848.251953125
 20
-4925.361328125
 10
4857.890625
 20
-4925.361328125
 10
4867.529296875
 20
-4925.361328125
 10
4877.16796875
 20
-4925.361328125
 10
4886.806640625
 20
-4925.361328125
 10
4896.4453125
 20
-4925.361328125
 10
4906.083984375
 20
-4925.361328125
 10
4915.72265625
 20
-4925.361328125
 10
4925.361328125
 20
-4925.361328125
 10
4925.361328125
 20
-4915.72265625
 10
4925.361328125
 20
-4906.083984375
 10
4925.361328125
 20
-4896.4453125
 10
4925.361328125
 20
-4886.806640625
 10
4925.361328125
 20
-4877.16796875
 10
4925.361328125
 20
-4867.529296875
 10
4925.361328125
 20
-4857.890625
 10
4925.361328125
 20
-4848.251953125
 10
4925.361328125
 20
-4838.61328125
 10
4925.361328125
 20
-4828.974609375
 10
4925.361328125
 20
-4819.3359375
 10
4925.361328125
 20
-4809.697265625
 10
4925.361328125
 20
-4800.05859375
 10
4925.361328125
 20
-4790.419921875
 10
4925.361328125
 20
-4780.78125
 10
4925.361328125
 20
-4771.142578125
 10
4925.361328125
 20
-4761.50390625
 10
4925.361328125
 20
-4751.865234375
 10
4925.361328125
 20
-4742.2265625
 10
4925.361328125
 20
-4732.587890625
 10
4925.361328125
 20
-4722.94921875
 10
4925.361328125
 20
-4713.310546875
 10
4925.361328125
 20
-4703.671875
 10
4925.361328125
 20
-4694.033203125
 10
4925.361328125
 20
-4684.39453125
 10
4925.361328125
 20
-4674.755859375
 10
4925.361328125
 20
-4665.1171875
 10
4925.361328125
 20
-4655.478515625
 10
4925.361328125
 20
-4645.83984375
 10
4925.361328125
 20
-4636.201171875
 10
4925.361328125
 20
-4626.5625
 10
4925.361328125
 20
-4616.923828125
 10
4925.361328125
 20
-4607.28515625
 10
4925.361328125
 20
-4597.646484375
 10
4925.361328125
 20
-4588.0078125
 10
4925.361328125
 20
-4578.369140625
 10
4925.361328125
 20
-4568.73046875
 10
4925.361328125
 20
-4559.091796875
 10
4925.361328125
 20
-4549.453125
 10
4925.361328125
 20
-4539.814453125
 10
4925.361328125
 20
-4530.17578125
 10
4925.361328125
 20
-4520.537109375
 10
4925.361328125
 20
-4510.8984375
 10
4925.361328125
 20
-4501.259765625
 10
4925.361328125
 20
-4491.62109375
 10
4925.361328125
 20
-4481.982421875
 10
4925.361328125
 20
-4472.34375
 10
4925.361328125
 20
-4462.705078125
 10
4925.361328125
 20
-4453.06640625
 10
4925.361328125
 20
-4443.427734375
 10
4925.361328125
 20
-4433.7890625
 10
4925.361328125
 20
-4424.150390625
 10
4925.361328125
 20
-4414.51171875
 10
4925.361328125
 20
-4404.873046875
 10
4925.361328125
 20
-4395.234375
 10
4925.361328125
 20
-4385.595703125
 10
4925.361328125
 20
-4375.95703125
 10
4925.361328125
 20
-4366.318359375
 10
4925.361328125
 20
-4356.6796875
 10
4925.361328125
 20
-4347.041015625
 10
4925.361328125
 20
-4337.40234375
 10
4925.361328125
 20
-4327.763671875
 10
4925.361328125
 20
-4318.125
 10
4925.361328125
 20
-4308.486328125
 10
4925.361328125
 20
-4298.84765625
 10
4925.361328125
 20
-4289.208984375
 10
4925.361328125
 20
-4279.5703125
 10
4925.361328125
 20
-4269.931640625
 10
4925.361328125
 20
-4260.29296875
 10
4925.361328125
 20
-4250.654296875
 10
4925.361328125
 20
-4241.015625
 10
4925.361328125
 20
-4231.376953125
 10
4925.361328125
 20
-4221.73828125
 10
4925.361328125
 20
-4212.099609375
 10
4925.361328125
 20
-4202.4609375
 10
4925.361328125
 20
-4192.822265625
 10
4925.361328125
 20
-4183.18359375
 10
4925.361328125
 20
-4173.544921875
 10
4925.361328125
 20
-4163.90625
 10
4925.361328125
 20
-4154.267578125
 10
4925.361328125
 20
-4144.62890625
 10
4925.361328125
 20
-4134.990234375
 10
4925.361328125
 20
-4125.3515625
 10
4925.361328125
 20
-4115.712890625
 10
4925.361328125
 20
-4106.07421875
 10
4925.361328125
 20
-4096.435546875
 10
4925.361328125
 20
-4086.796875
 10
4925.361328125
 20
-4077.158203125
 10
4925.361328125
 20
-4067.51953125
 10
4925.361328125
 20
-4057.880859375
 10
4925.361328125
 20
-4048.2421875
 10
4925.361328125
 20
-4038.603515625
 10
4925.361328125
 20
-4028.96484375
 10
4925.361328125
 20
-4019.326171875
 10
4925.361328125
 20
-4009.6875
 10
4925.361328125
 20
-4000.048828125
 10
4925.361328125
 20
-3990.41015625
 10
4925.361328125
 20
-3980.771484375
 10
4925.361328125
 20
-3971.1328125
 10
4925.361328125
 20
-3961.494140625
 10
4925.361328125
 20
-3951.85546875
 10
4925.361328125
 20
-3942.216796875
 10
4925.361328125
 20
-3932.578125
 10
4925.361328125
 20
-3922.939453125
 10
4925.361328125
 20
-3913.30078125
 10
4925.361328125
 20
-3903.662109375
 10
4925.361328125
 20
-3894.0234375
 10
4925.361328125
 20
-3884.384765625
 10
4925.361328125
 20
-3874.74609375
 10
4925.361328125
 20
-3865.107421875
 10
4925.361328125
 20
-3855.46875
 10
4925.361328125
 20
-3845.830078125
 10
4925.361328125
 20
-3836.19140625
 10
4925.361328125
 20
-3826.552734375
 10
4925.361328125
 20
-3816.9140625
 10
4925.361328125
 20
-3807.275390625
 10
4925.361328125
 20
-3797.63671875
 10
4925.361328125
 20
-3787.998046875
 10
4925.361328125
 20
-3778.359375
 10
4925.361328125
 20
-3768.720703125
 10
4925.361328125
 20
-3759.08203125
 10
4925.361328125
 20
-3749.443359375
 10
4925.361328125
 20
-3739.8046875
 10
4925.361328125
 20
-3730.166015625
 10
4925.361328125
 20
-3720.52734375
 10
4925.361328125
 20
-3710.888671875
 10
4925.361328125
 20
-3701.25
 10
4925.361328125
 20
-3691.611328125
 10
4925.361328125
 20
-3681.97265625
 10
4925.361328125
 20
-3672.333984375
 10
4925.361328125
 20
-3662.6953125
 10
4925.361328125
 20
-3653.056640625
 10
4925.361328125
 20
-3643.41796875
 10
4925.361328125
 20
-3633.779296875
 10
4925.361328125
 20
-3624.140625
 10
4925.361328125
 20
-3614.501953125
 10
4925.361328125
 20
-3604.86328125
 10
4925.361328125
 20
-3595.224609375
 10
4925.361328125
 20
-3585.5859375
 10
4925.361328125
 20
-3575.947265625
 10
4925.361328125
 20
-3566.30859375
 10
4925.361328125
 20
-3556.669921875
 10
4925.361328125
 20
-3547.03125
 10
4925.361328125
 20
-3537.392578125
 10
4925.361328125
 20
-3527.75390625
 10
4925.361328125
 20
-3518.115234375
 10
4925.361328125
 20
-3508.4765625
 10
4925.361328125
 20
-3498.837890625
 10
4925.361328125
 20
-3489.19921875
 10
4925.361328125
 20
-3479.560546875
 10
4925.361328125
 20
-3469.921875
 10
4925.361328125
 20
-3460.283203125
 10
4925.361328125
 20
-3450.64453125
 10
4925.361328125
 20
-3441.005859375
 10
4925.361328125
 20
-3431.3671875
 10
4925.361328125
 20
-3421.728515625
 10
4925.361328125
 20
-3412.08984375
 10
4925.361328125
 20
-3402.451171875
 10
4925.361328125
 20
-3392.8125
 10
4925.361328125
 20
-3383.173828125
 10
4925.361328125
 20
-3373.53515625
 10
4925.361328125
 20
-3363.896484375
 10
4925.361328125
 20
-3354.2578125
 10
4925.361328125
 20
-3344.619140625
 10
4925.361328125
 20
-3334.98046875
 10
4925.361328125
 20
-3325.341796875
 10
4925.361328125
 20
-3315.703125
 10
4925.361328125
 20
-3306.064453125
 10
4925.361328125
 20
-3296.42578125
 10
4925.361328125
 20
-3286.787109375
 10
4925.361328125
 20
-3277.1484375
 10
4925.361328125
 20
-3267.509765625
 10
4925.361328125
 20
-3257.87109375
 10
4925.361328125
 20
-3248.232421875
 10
4925.361328125
 20
-3238.59375
 10
4925.361328125
 20
-3228.955078125
 10
4925.361328125
 20
-3219.31640625
 10
4925.361328125
 20
-3209.677734375
 10
4925.361328125
 20
-3200.0390625
 10
4925.361328125
 20
-3190.400390625
 10
4925.361328125
 20
-3180.76171875
 10
4925.361328125
 20
-3171.123046875
 10
4925.361328125
 20
-3161.484375
 10
4925.361328125
 20
-3151.845703125
 10
4925.361328125
 20
-3142.20703125
 10
4925.361328125
 20
-3132.568359375
 10
4925.361328125
 20
-3122.9296875
 10
4925.361328125
 20
-3113.291015625
 10
4925.361328125
 20
-3103.65234375
 10
4925.361328125
 20
-3094.013671875
 10
4925.361328125
 20
-3084.375
 10
4925.361328125
 20
-3074.736328125
 10
4925.361328125
 20
-3065.09765625
 10
4925.361328125
 20
-3055.458984375
 10
4925.361328125
 20
-3045.8203125
 10
4925.361328125
 20
-3036.181640625
 10
4925.361328125
 20
-3026.54296875
 10
4925.361328125
 20
-3016.904296875
 10
4925.361328125
 20
-3007.265625
 10
4925.361328125
 20
-2997.626953125
 10
4925.361328125
 20
-2987.98828125
 10
4925.361328125
 20
-2978.349609375
 10
4925.361328125
 20
-2968.7109375
 10
4925.361328125
 20
-2959.072265625
 10
4925.361328125
 20
-2949.43359375
 10
4925.361328125
 20
-2939.794921875
 10
4925.361328125
 20
-2930.15625
 10
4925.361328125
 20
-2920.517578125
 10
4925.361328125
 20
-2910.87890625
 10
4925.361328125
 20
-2901.240234375
 10
4925.361328125
 20
-2891.6015625
 10
4925.361328125
 20
-2881.962890625
 10
4925.361328125
 20
-2872.32421875
 10
4925.361328125
 20
-2862.685546875
 10
4925.361328125
 20
-2853.046875
 10
4925.361328125
 20
-2843.408203125
 10
4925.361328125
 20
-2833.76953125
 10
4925.361328125
 20
-2824.130859375
 10
4925.361328125
 20
-2814.4921875
 10
4925.361328125
 20
-2804.853515625
 10
4925.361328125
 20
-2795.21484375
 10
4925.361328125
 20
-2785.576171875
 10
4925.361328125
 20
-2775.9375
 10
4925.361328125
 20
-2766.298828125
 10
4925.361328125
 20
-2756.66015625
 10
4925.361328125
 20
-2747.021484375
 10
4925.361328125
 20
-2737.3828125
 10
4925.361328125
 20
-2727.744140625
 10
4925.361328125
 20
-2718.10546875
 10
4925.361328125
 20
-2708.466796875
 10
4925.361328125
 20
-2698.828125
 10
4925.361328125
 20
-2689.189453125
 10
4925.361328125
 20
-2679.55078125
 10
4925.361328125
 20
-2669.912109375
 10
4925.361328125
 20
-2660.2734375
 10
4925.361328125
 20
-2650.634765625
 10
4925.361328125
 20
-2640.99609375
 10
4925.361328125
 20
-2631.357421875
 10
4925.361328125
 20
-2621.71875
 10
4925.361328125
 20
-2612.080078125
 10
4925.361328125
 20
-2602.44140625
 10
4925.361328125
 20
-2592.802734375
 10
4925.361328125
 20
-2583.1640625
 10
4925.361328125
 20
-2573.525390625
 10
4925.361328125
 20
-2563.88671875
 10
4925.361328125
 20
-2554.248046875
 10
4925.361328125
 20
-2544.609375
 10
4925.361328125
 20
-2534.970703125
 10
4925.361328125
 20
-2525.33203125
 10
4925.361328125
 20
-2515.693359375
 10
4925.361328125
 20
-2506.0546875
 10
4925.361328125
 20
-2496.416015625
 10
4925.361328125
 20
-2486.77734375
 10
4925.361328125
 20
-2477.138671875
 10
4925.361328125
 20
-2467.5
 10
4925.361328125
 20
-2457.861328125
 10
4925.361328125
 20
-2448.22265625
 10
4925.361328125
 20
-2438.583984375
 10
4925.361328125
 20
-2428.9453125
 10
4925.361328125
 20
-2419.306640625
 10
4925.361328125
 20
-2409.66796875
 10
4925.361328125
 20
-2400.029296875
 10
4925.361328125
 20
-2390.390625
 10
4925.361328125
 20
-2380.751953125
 10
4925.361328125
 20
-2371.11328125
 10
4925.361328125
 20
-2361.474609375
 10
4925.361328125
 20
-2351.8359375
 10
4925.361328125
 20
-2342.197265625
 10
4925.361328125
 20
-2332.55859375
 10
4925.361328125
 20
-2322.919921875
 10
4925.361328125
 20
-2313.28125
 10
4925.361328125
 20
-2303.642578125
 10
4925.361328125
 20
-2294.00390625
 10
4925.361328125
 20
-2284.365234375
 10
4925.361328125
 20
-2274.7265625
 10
4925.361328125
 20
-2265.087890625
 10
4925.361328125
 20
-2255.44921875
 10
4925.361328125
 20
-2245.810546875
 10
4925.361328125
 20
-2236.171875
 10
4925.361328125
 20
-2226.533203125
 10
4925.361328125
 20
-2216.89453125
 10
4925.361328125
 20
-2207.255859375
 10
4925.361328125
 20
-2197.6171875
 10
4925.361328125
 20
-2187.978515625
 10
4925.361328125
 20
-2178.33984375
 10
4925.361328125
 20
-2168.701171875
 10
4925.361328125
 20
-2159.0625
 10
4925.361328125
 20
-2149.423828125
 10
4925.361328125
 20
-2139.78515625
 10
4925.361328125
 20
-2130.146484375
 10
4925.361328125
 20
-2120.5078125
 10
4925.361328125
 20
-2110.869140625
 10
4925.361328125
 20
-2101.23046875
 10
4925.361328125
 20
-2091.591796875
 10
4925.361328125
 20
-2081.953125
 10
4925.361328125
 20
-2072.314453125
 10
4925.361328125
 20
-2062.67578125
 10
4925.361328125
 20
-2053.037109375
 10
4925.361328125
 20
-2043.3984375
 10
4925.361328125
 20
-2033.759765625
 10
4925.361328125
 20
-2024.12109375
 10
4925.361328125
 20
-2014.482421875
 10
4925.361328125
 20
-2004.84375
 10
4925.361328125
 20
-1995.205078125
 10
4925.361328125
 20
-1985.56640625
 10
4925.361328125
 20
-1975.927734375
 10
4925.361328125
 20
-1966.2890625
 10
4925.361328125
 20
-1956.650390625
 10
4925.361328125
 20
-1947.01171875
 10
4925.361328125
 20
-1937.373046875
 10
4925.361328125
 20
-1927.734375
 10
4925.361328125
 20
-1918.095703125
 10
4925.361328125
 20
-1908.45703125
 10
4925.361328125
 20
-1898.818359375
 10
4925.361328125
 20
-1889.1796875
 10
4925.361328125
 20
-1879.541015625
 10
4925.361328125
 20
-1869.90234375
 10
4925.361328125
 20
-1860.263671875
 10
4925.361328125
 20
-1850.625
 10
4925.361328125
 20
-1840.986328125
 10
4925.361328125
 20
-1831.34765625
 10
4925.361328125
 20
-1821.708984375
 10
4925.361328125
 20
-1812.0703125
 10
4925.361328125
 20
-1802.431640625
 10
4925.361328125
 20
-1792.79296875
 10
4925.361328125
 20
-1783.154296875
 10
4925.361328125
 20
-1773.515625
 10
4925.361328125
 20
-1763.876953125
 10
4925.361328125
 20
-1754.23828125
 10
4925.361328125
 20
-1744.599609375
 10
4925.361328125
 20
-1734.9609375
 10
4925.361328125
 20
-1725.322265625
 10
4925.361328125
 20
-1715.68359375
 10
4925.361328125
 20
-1706.044921875
 10
4925.361328125
 20
-1696.40625
 10
4925.361328125
 20
-1686.767578125
 10
4925.361328125
 20
-1677.12890625
 10
4925.361328125
 20
-1667.490234375
 10
4925.361328125
 20
-1657.8515625
 10
4925.361328125
 20
-1648.212890625
 10
4925.361328125
 20
-1638.57421875
 10
4925.361328125
 20
-1628.935546875
 10
4925.361328125
 20
-1619.296875
 10
4925.361328125
 20
-1609.658203125
 10
4925.361328125
 20
-1600.01953125
 10
4925.361328125
 20
-1590.380859375
 10
4925.361328125
 20
-1580.7421875
 10
4925.361328125
 20
-1571.103515625
 10
4925.361328125
 20
-1561.46484375
 10
4925.361328125
 20
-1551.826171875
 10
4925.361328125
 20
-1542.1875
 10
4925.361328125
 20
-1532.548828125
 10
4925.361328125
 20
-1522.91015625
 10
4925.361328125
 20
-1513.271484375
 10
4925.361328125
 20
-1503.6328125
 10
4925.361328125
 20
-1493.994140625
 10
4925.361328125
 20
-1484.35546875
 10
4925.361328125
 20
-1474.716796875
 10
4925.361328125
 20
-1465.078125
 10
4925.361328125
 20
-1455.439453125
 10
4925.361328125
 20
-1445.80078125
 10
4925.361328125
 20
-1436.162109375
 10
4925.361328125
 20
-1426.5234375
 10
4925.361328125
 20
-1416.884765625
 10
4925.361328125
 20
-1407.24609375
 10
4925.361328125
 20
-1397.607421875
 10
4925.361328125
 20
-1387.96875
 10
4925.361328125
 20
-1378.330078125
 10
4925.361328125
 20
-1368.69140625
 10
4925.361328125
 20
-1359.052734375
 10
4925.361328125
 20
-1349.4140625
 10
4925.361328125
 20
-1339.775390625
 10
4925.361328125
 20
-1330.13671875
 10
4925.361328125
 20
-1320.498046875
 10
4925.361328125
 20
-1310.859375
 10
4925.361328125
 20
-1301.220703125
 10
4925.361328125
 20
-1291.58203125
 10
4925.361328125
 20
-1281.943359375
 10
4925.361328125
 20
-1272.3046875
 10
4925.361328125
 20
-1262.666015625
 10
4925.361328125
 20
-1253.02734375
 10
4925.361328125
 20
-1243.388671875
 10
4925.361328125
 20
-1233.75
 10
4925.361328125
 20
-1224.111328125
 10
4925.361328125
 20
-1214.47265625
 10
4925.361328125
 20
-1204.833984375
 10
4925.361328125
 20
-1195.1953125
 10
4925.361328125
 20
-1185.556640625
 10
4925.361328125
 20
-1175.91796875
 10
4925.361328125
 20
-1166.279296875
 10
4925.361328125
 20
-1156.640625
 10
4925.361328125
 20
-1147.001953125
 10
4925.361328125
 20
-1137.36328125
 10
4925.361328125
 20
-1127.724609375
 10
4925.361328125
 20
-1118.0859375
 10
4925.361328125
 20
-1108.447265625
 10
4925.361328125
 20
-1098.80859375
 10
4925.361328125
 20
-1089.169921875
 10
4925.361328125
 20
-1079.53125
 10
4925.361328125
 20
-1069.892578125
 10
4925.361328125
 20
-1060.25390625
 10
4925.361328125
 20
-1050.615234375
 10
4925.361328125
 20
-1040.9765625
 10
4925.361328125
 20
-1031.337890625
 10
4925.361328125
 20
-1021.69921875
 10
4925.361328125
 20
-1012.060546875
 10
4925.361328125
 20
-1002.421875
 10
4925.361328125
 20
-992.783203125
 10
4925.361328125
 20
-983.14453125
 10
4925.361328125
 20
-973.505859375
 10
4925.361328125
 20
-963.8671875
 10
4925.361328125
 20
-954.228515625
 10
4925.361328125
 20
-944.58984375
 10
4925.361328125
 20
-934.951171875
 10
4925.361328125
 20
-925.3125
 10
4925.361328125
 20
-915.673828125
 10
4925.361328125
 20
-906.03515625
 10
4925.361328125
 20
-896.396484375
 10
4925.361328125
 20
-886.7578125
 10
4925.361328125
 20
-877.119140625
 10
4925.361328125
 20
-867.48046875
 10
4925.361328125
 20
-857.841796875
 10
4925.361328125
 20
-848.203125
 10
4925.361328125
 20
-838.564453125
 10
4925.361328125
 20
-828.92578125
 10
4925.361328125
 20
-819.287109375
 10
4925.361328125
 20
-809.6484375
 10
4925.361328125
 20
-800.009765625
 10
4925.361328125
 20
-790.37109375
 10
4925.361328125
 20
-780.732421875
 10
4925.361328125
 20
-771.09375
 10
4925.361328125
 20
-761.455078125
 10
4925.361328125
 20
-751.81640625
 10
4925.361328125
 20
-742.177734375
 10
4925.361328125
 20
-732.5390625
 10
4925.361328125
 20
-722.900390625
 10
4925.361328125
 20
-713.26171875
 10
4925.361328125
 20
-703.623046875
 10
4925.361328125
 20
-693.984375
 10
4925.361328125
 20
-684.345703125
 10
4925.361328125
 20
-674.70703125
 10
4925.361328125
 20
-665.068359375
 10
4925.361328125
 20
-655.4296875
 10
4925.361328125
 20
-645.791015625
 10
4925.361328125
 20
-636.15234375
 10
4925.361328125
 20
-626.513671875
 10
4925.361328125
 20
-616.875
 10
4925.361328125
 20
-607.236328125
 10
4925.361328125
 20
-597.59765625
 10
4925.361328125
 20
-587.958984375
 10
4925.361328125
 20
-578.3203125
 10
4925.361328125
 20
-568.681640625
 10
4925.361328125
 20
-559.04296875
 10
4925.361328125
 20
-549.404296875
 10
4925.361328125
 20
-539.765625
 10
4925.361328125
 20
-530.126953125
 10
4925.361328125
 20
-520.48828125
 10
4925.361328125
 20
-510.849609375
 10
4925.361328125
 20
-501.2109375
 10
4925.361328125
 20
-491.572265625
 10
4925.361328125
 20
-481.93359375
 10
4925.361328125
 20
-472.294921875
 10
4925.361328125
 20
-462.65625
 10
4925.361328125
 20
-453.017578125
 10
4925.361328125
 20
-443.37890625
 10
4925.361328125
 20
-433.740234375
 10
4925.361328125
 20
-424.1015625
 10
4925.361328125
 20
-414.462890625
 10
4925.361328125
 20
-404.82421875
 10
4925.361328125
 20
-395.185546875
 10
4925.361328125
 20
-385.546875
 10
4925.361328125
 20
-375.908203125
 10
4925.361328125
 20
-366.26953125
 10
4925.361328125
 20
-356.630859375
 10
4925.361328125
 20
-346.9921875
 10
4925.361328125
 20
-337.353515625
 10
4925.361328125
 20
-327.71484375
 10
4925.361328125
 20
-318.076171875
 10
4925.361328125
 20
-308.4375
 10
4925.361328125
 20
-298.798828125
 10
4925.361328125
 20
-289.16015625
 10
4925.361328125
 20
-279.521484375
 10
4925.361328125
 20
-269.8828125
 10
4925.361328125
 20
-260.244140625
 10
4925.361328125
 20
-250.60546875
 10
4925.361328125
 20
-240.966796875
 10
4925.361328125
 20
-231.328125
 10
4925.361328125
 20
-221.689453125
 10
4925.361328125
 20
-212.05078125
 10
4925.361328125
 20
-202.412109375
 10
4925.361328125
 20
-192.7734375
 10
4925.361328125
 20
-183.134765625
 10
4925.361328125
 20
-173.49609375
 10
4925.361328125
 20
-163.857421875
 10
4925.361328125
 20
-154.21875
 10
4925.361328125
 20
-144.580078125
 10
4925.361328125
 20
-134.94140625
 10
4925.361328125
 20
-125.302734375
 10
4925.361328125
 20
-115.6640625
 10
4925.361328125
 20
-106.025390625
 10
4925.361328125
 20
-96.38671875
 10
4925.361328125
 20
-86.748046875
 10
4925.361328125
 20
-77.109375
 10
4925.361328125
 20
-67.470703125
 10
4925.361328125
 20
-57.83203125
 10
4925.361328125
 20
-48.193359375
 10
4925.361328125
 20
-38.5546875
 10
4925.361328125
 20
-28.916015625
 10
4925.361328125
 20
-19.27734375
 10
4925.361328125
 20
-9.638671875
 10
4925.361328125
 20
-0.0
 10
4915.72265625
 20
-0.0
 10
4906.083984375
 20
-0.0
 10
4896.4453125
 20
-0.0
 10
4886.806640625
 20
-0.0
 10
4877.16796875
 20
-0.0
 10
4867.529296875
 20
-0.0
 10
4857.890625
 20
-0.0
 10
4848.251953125
 20
-0.0
 10
4838.61328125
 20
-0.0
 10
4828.974609375
 20
-0.0
 10
4819.3359375
 20
-0.0
 10
4809.697265625
 20
-0.0
 10
4800.05859375
 20
-0.0
 10
4790.419921875
 20
-0.0
 10
4780.78125
 20
-0.0
 10
4771.142578125
 20
-0.0
 10
4761.50390625
 20
-0.0
 10
4751.865234375
 20
-0.0
 10
4742.2265625
 20
-0.0
 10
4732.587890625
 20
-0.0
 10
4722.94921875
 20
-0.0
 10
4713.310546875
 20
-0.0
 10
4703.671875
 20
-0.0
 10
4694.033203125
 20
-0.0
 10
4684.39453125
 20
-0.0
 10
4674.755859375
 20
-0.0
 10
4665.1171875
 20
-0.0
 10
4655.478515625
 20
-0.0
 10
4645.83984375
 20
-0.0
 10
4636.201171875
 20
-0.0
 10
4626.5625
 20
-0.0
 10
4616.923828125
 20
-0.0
 10
4607.28515625
 20
-0.0
 10
4597.646484375
 20
-0.0
 10
4588.0078125
 20
-0.0
 10
4578.369140625
 20
-0.0
 10
4568.73046875
 20
-0.0
 10
4559.091796875
 20
-0.0
 10
4549.453125
 20
-0.0
 10
4539.814453125
 20
-0.0
 10
4530.17578125
 20
-0.0
 10
4520.537109375
 20
-0.0
 10
4510.8984375
 20
-0.0
 10
4501.259765625
 20
-0.0
 10
4491.62109375
 20
-0.0
 10
4481.982421875
 20
-0.0
 10
4472.34375
 20
-0.0
 10
4462.705078125
 20
-0.0
 10
4453.06640625
 20
-0.0
 10
4443.427734375
 20
-0.0
 10
4433.7890625
 20
-0.0
 10
4424.150390625
 20
-0.0
 10
4414.51171875
 20
-0.0
 10
4404.873046875
 20
-0.0
 10
4395.234375
 20
-0.0
 10
4385.595703125
 20
-0.0
 10
4375.95703125
 20
-0.0
 10
4366.318359375
 20
-0.0
 10
4356.6796875
 20
-0.0
 10
4347.041015625
 20
-0.0
 10
4337.40234375
 20
-0.0
 10
4327.763671875
 20
-0.0
 10
4318.125
 20
-0.0
 10
4308.486328125
 20
-0.0
 10
4298.84765625
 20
-0.0
 10
4289.208984375
 20
-0.0
 10
4279.5703125
 20
-0.0
 10
4269.931640625
 20
-0.0
 10
4260.29296875
 20
-0.0
 10
4250.654296875
 20
-0.0
 10
4241.015625
 20
-0.0
 10
4231.376953125
 20
-0.0
 10
4221.73828125
 20
-0.0
 10
4212.099609375
 20
-0.0
 10
4202.4609375
 20
-0.0
 10
4192.822265625
 20
-0.0
 10
4183.18359375
 20
-0.0
 10
4173.544921875
 20
-0.0
 10
4163.90625
 20
-0.0
 10
4154.267578125
 20
-0.0
 10
4144.62890625
 20
-0.0
 10
4134.990234375
 20
-0.0
 10
4125.3515625
 20
-0.0
 10
4115.712890625
 20
-0.0
 10
4106.07421875
 20
-0.0
 10
4096.435546875
 20
-0.0
 10
4086.796875
 20
-0.0
 10
4077.158203125
 20
-0.0
 10
4067.51953125
 20
-0.0
 10
4057.880859375
 20
-0.0
 10
4048.2421875
 20
-0.0
 10
4038.603515625
 20
-0.0
 10
4028.96484375
 20
-0.0
 10
4019.326171875
 20
-0.0
 10
4009.6875
 20
-0.0
 10
4000.048828125
 20
-0.0
 10
3990.41015625
 20
-0.0
 10
3980.771484375
 20
-0.0
 10
3971.1328125
 20
-0.0
 10
3961.494140625
 20
-0.0
 10
3951.85546875
 20
-0.0
 10
3942.216796875
 20
-0.0
 10
3932.578125
 20
-0.0
 10
3922.939453125
 20
-0.0
 10
3913.30078125
 20
-0.0
 10
3903.662109375
 20
-0.0
 10
3894.0234375
 20
-0.0
 10
3884.384765625
 20
-0.0
 10
3874.74609375
 20
-0.0
 10
3865.107421875
 20
-0.0
 10
3855.46875
 20
-0.0
 10
3845.830078125
 20
-0.0
 10
3836.19140625
 20
-0.0
 10
3826.552734375
 20
-0.0
 10
3816.9140625
 20
-0.0
 10
3807.275390625
 20
-0.0
 10
3797.63671875
 20
-0.0
 10
3787.998046875
 20
-0.0
 10
3778.359375
 20
-0.0
 10
3768.720703125
 20
-0.0
 10
3759.08203125
 20
-0.0
 10
3749.443359375
 20
-0.0
 10
3739.8046875
 20
-0.0
 10
3730.166015625
 20
-0.0
 10
3720.52734375
 20
-0.0
 10
3710.888671875
 20
-0.0
 10
3701.25
 20
-0.0
 10
3691.611328125
 20
-0.0
 10
3681.97265625
 20
-0.0
 10
3672.333984375
 20
-0.0
 10
3662.6953125
 20
-0.0
 10
3653.056640625
 20
-0.0
 10
3643.41796875
 20
-0.0
 10
3633.779296875
 20
-0.0
 10
3624.140625
 20
-0.0
 10
3614.501953125
 20
-0.0
 10
3604.86328125
 20
-0.0
 10
3595.224609375
 20
-0.0
 10
3585.5859375
 20
-0.0
 10
3575.947265625
 20
-0.0
 10
3566.30859375
 20
-0.0
 10
3556.669921875
 20
-0.0
 10
3547.03125
 20
-0.0
 10
3537.392578125
 20
-0.0
 10
3527.75390625
 20
-0.0
 10
3518.115234375
 20
-0.0
 10
3508.4765625
 20
-0.0
 10
3498.837890625
 20
-0.0
 10
3489.19921875
 20
-0.0
 10
3479.560546875
 20
-0.0
 10
3469.921875
 20
-0.0
 10
3460.283203125
 20
-0.0
 10
3450.64453125
 20
-0.0
 10
3441.005859375
 20
-0.0
 10
3431.3671875
 20
-0.0
 10
3421.728515625
 20
-0.0
 10
3412.08984375
 20
-0.0
 10
3402.451171875
 20
-0.0
 10
3392.8125
 20
-0.0
 10
3383.173828125
 20
-0.0
 10
3373.53515625
 20
-0.0
 10
3363.896484375
 20
-0.0
 10
3354.2578125
 20
-0.0
 10
3344.619140625
 20
-0.0
 10
3334.98046875
 20
-0.0
 10
3325.341796875
 20
-0.0
 10
3315.703125
 20
-0.0
 10
3306.064453125
 20
-0.0
 10
3296.42578125
 20
-0.0
 10
3286.787109375
 20
-0.0
 10
3277.1484375
 20
-0.0
 10
3267.509765625
 20
-0.0
 10
3257.87109375
 20
-0.0
 10
3248.232421875
 20
-0.0
 10
3238.59375
 20
-0.0
 10
3228.955078125
 20
-0.0
 10
3219.31640625
 20
-0.0
 10
3209.677734375
 20
-0.0
 10
3200.0390625
 20
-0.0
 10
3190.400390625
 20
-0.0
 10
3180.76171875
 20
-0.0
 10
3171.123046875
 20
-0.0
 10
3161.484375
 20
-0.0
 10
3151.845703125
 20
-0.0
 10
3142.20703125
 20
-0.0
 10
3132.568359375
 20
-0.0
 10
3122.9296875
 20
-0.0
 10
3113.291015625
 20
-0.0
 10
3103.65234375
 20
-0.0
 10
3094.013671875
 20
-0.0
 10
3084.375
 20
-0.0
 10
3074.736328125
 20
-0.0
 10
3065.09765625
 20
-0.0
 10
3055.458984375
 20
-0.0
 10
3045.8203125
 20
-0.0
 10
3036.181640625
 20
-0.0
 10
3026.54296875
 20
-0.0
 10
3016.904296875
 20
-0.0
 10
3007.265625
 20
-0.0
 10
2997.626953125
 20
-0.0
 10
2987.98828125
 20
-0.0
 10
2978.349609375
 20
-0.0
 10
2968.7109375
 20
-0.0
 10
2959.072265625
 20
-0.0
 10
2949.43359375
 20
-0.0
 10
2939.794921875
 20
-0.0
 10
2930.15625
 20
-0.0
 10
2920.517578125
 20
-0.0
 10
2910.87890625
 20
-0.0
 10
2901.240234375
 20
-0.0
 10
2891.6015625
 20
-0.0
 10
2881.962890625
 20
-0.0
 10
2872.32421875
 20
-0.0
 10
2862.685546875
 20
-0.0
 10
2853.046875
 20
-0.0
 10
2843.408203125
 20
-0.0
 10
2833.76953125
 20
-0.0
 10
2824.130859375
 20
-0.0
 10
2814.4921875
 20
-0.0
 10
2804.853515625
 20
-0.0
 10
2795.21484375
 20
-0.0
 10
2785.576171875
 20
-0.0
 10
2775.9375
 20
-0.0
 10
2766.298828125
 20
-0.0
 10
2756.66015625
 20
-0.0
 10
2747.021484375
 20
-0.0
 10
2737.3828125
 20
-0.0
 10
2727.744140625
 20
-0.0
 10
2718.10546875
 20
-0.0
 10
2708.466796875
 20
-0.0
 10
2698.828125
 20
-0.0
 10
2689.189453125
 20
-0.0
 10
2679.55078125
 20
-0.0
 10
2669.912109375
 20
-0.0
 10
2660.2734375
 20
-0.0
 10
2650.634765625
 20
-0.0
 10
2640.99609375
 20
-0.0
 10
2631.357421875
 20
-0.0
 10
2621.71875
 20
-0.0
 10
2612.080078125
 20
-0.0
 10
2602.44140625
 20
-0.0
 10
2592.802734375
 20
-0.0
 10
2583.1640625
 20
-0.0
 10
2573.525390625
 20
-0.0
 10
2563.88671875
 20
-0.0
 10
2554.248046875
 20
-0.0
 10
2544.609375
 20
-0.0
 10
2534.970703125
 20
-0.0
 10
2525.33203125
 20
-0.0
 10
2515.693359375
 20
-0.0
 10
2506.0546875
 20
-0.0
 10
2496.416015625
 20
-0.0
 10
2486.77734375
 20
-0.0
 10
2477.138671875
 20
-0.0
 10
2467.5
 20
-0.0
 10
2457.861328125
 20
-0.0
 10
2448.22265625
 20
-0.0
 10
2438.583984375
 20
-0.0
 10
2428.9453125
 20
-0.0
 10
2419.306640625
 20
-0.0
 10
2409.66796875
 20
-0.0
 10
2400.029296875
 20
-0.0
 10
2390.390625
 20
-0.0
 10
2380.751953125
 20
-0.0
 10
2371.11328125
 20
-0.0
 10
2361.474609375
 20
-0.0
 10
2351.8359375
 20
-0.0
 10
2342.197265625
 20
-0.0
 10
2332.55859375
 20
-0.0
 10
2322.919921875
 20
-0.0
 10
2313.28125
 20
-0.0
 10
2303.642578125
 20
-0.0
 10
2294.00390625
 20
-0.0
 10
2284.365234375
 20
-0.0
 10
2274.7265625
 20
-0.0
 10
2265.087890625
 20
-0.0
 10
2255.44921875
 20
-0.0
 10
2245.810546875
 20
-0.0
 10
2236.171875
 20
-0.0
 10
2226.533203125
 20
-0.0
 10
2216.89453125
 20
-0.0
 10
2207.255859375
 20
-0.0
 10
2197.6171875
 20
-0.0
 10
2187.978515625
 20
-0.0
 10
2178.33984375
 20
-0.0
 10
2168.701171875
 20
-0.0
 10
2159.0625
 20
-0.0
 10
2149.423828125
 20
-0.0
 10
2139.78515625
 20
-0.0
 10
2130.146484375
 20
-0.0
 10
2120.5078125
 20
-0.0
 10
2110.869140625
 20
-0.0
 10
2101.23046875
 20
-0.0
 10
2091.591796875
 20
-0.0
 10
2081.953125
 20
-0.0
 10
2072.314453125
 20
-0.0
 10
2062.67578125
 20
-0.0
 10
2053.037109375
 20
-0.0
 10
2043.3984375
 20
-0.0
 10
2033.759765625
 20
-0.0
 10
2024.12109375
 20
-0.0
 10
2014.482421875
 20
-0.0
 10
2004.84375
 20
-0.0
 10
1995.205078125
 20
-0.0
 10
1985.56640625
 20
-0.0
 10
1975.927734375
 20
-0.0
 10
1966.2890625
 20
-0.0
 10
1956.650390625
 20
-0.0
 10
1947.01171875
 20
-0.0
 10
1937.373046875
 20
-0.0
 10
1927.734375
 20
-0.0
 10
1918.095703125
 20
-0.0
 10
1908.45703125
 20
-0.0
 10
1898.818359375
 20
-0.0
 10
1889.1796875
 20
-0.0
 10
1879.541015625
 20
-0.0
 10
1869.90234375
 20
-0.0
 10
1860.263671875
 20
-0.0
 10
1850.625
 20
-0.0
 10
1840.986328125
 20
-0.0
 10
1831.34765625
 20
-0.0
 10
1821.708984375
 20
-0.0
 10
1812.0703125
 20
-0.0
 10
1802.431640625
 20
-0.0
 10
1792.79296875
 20
-0.0
 10
1783.154296875
 20
-0.0
 10
1773.515625
 20
-0.0
 10
1763.876953125
 20
-0.0
 10
1754.23828125
 20
-0.0
 10
1744.599609375
 20
-0.0
 10
1734.9609375
 20
-0.0
 10
1725.322265625
 20
-0.0
 10
1715.68359375
 20
-0.0
 10
1706.044921875
 20
-0.0
 10
1696.40625
 20
-0.0
 10
1686.767578125
 20
-0.0
 10
1677.12890625
 20
-0.0
 10
1667.490234375
 20
-0.0
 10
1657.8515625
 20
-0.0
 10
1648.212890625
 20
-0.0
 10
1638.57421875
 20
-0.0
 10
1628.935546875
 20
-0.0
 10
1619.296875
 20
-0.0
 10
1609.658203125
 20
-0.0
 10
1600.01953125
 20
-0.0
 10
1590.380859375
 20
-0.0
 10
1580.7421875
 20
-0.0
 10
1571.103515625
 20
-0.0
 10
1561.46484375
 20
-0.0
 10
1551.826171875
 20
-0.0
 10
1542.1875
 20
-0.0
 10
1532.548828125
 20
-0.0
 10
1522.91015625
 20
-0.0
 10
1513.271484375
 20
-0.0
 10
1503.6328125
 20
-0.0
 10
1493.994140625
 20
-0.0
 10
1484.35546875
 20
-0.0
 10
1474.716796875
 20
-0.0
 10
1465.078125
 20
-0.0
 10
1455.439453125
 20
-0.0
 10
1445.80078125
 20
-0.0
 10
1436.162109375
 20
-0.0
 10
1426.5234375
 20
-0.0
 10
1416.884765625
 20
-0.0
 10
1407.24609375
 20
-0.0
 10
1397.607421875
 20
-0.0
 10
1387.96875
 20
-0.0
 10
1378.330078125
 20
-0.0
 10
1368.69140625
 20
-0.0
 10
1359.052734375
 20
-0.0
 10
1349.4140625
 20
-0.0
 10
1339.775390625
 20
-0.0
 10
1330.13671875
 20
-0.0
 10
1320.498046875
 20
-0.0
 10
1310.859375
 20
-0.0
 10
1301.220703125
 20
-0.0
 10
1291.58203125
 20
-0.0
 10
1281.943359375
 20
-0.0
 10
1272.3046875
 20
-0.0
 10
1262.666015625
 20
-0.0
 10
1253.02734375
 20
-0.0
 10
1243.388671875
 20
-0.0
 10
1233.75
 20
-0.0
 10
1224.111328125
 20
-0.0
 10
1214.47265625
 20
-0.0
 10
1204.833984375
 20
-0.0
 10
1195.1953125
 20
-0.0
 10
1185.556640625
 20
-0.0
 10
1175.91796875
 20
-0.0
 10
1166.279296875
 20
-0.0
 10
1156.640625
 20
-0.0
 10
1147.001953125
 20
-0.0
 10
1137.36328125
 20
-0.0
 10
1127.724609375
 20
-0.0
 10
1118.0859375
 20
-0.0
 10
1108.447265625
 20
-0.0
 10
1098.80859375
 20
-0.0
 10
1089.169921875
 20
-0.0
 10
1079.53125
 20
-0.0
 10
1069.892578125
 20
-0.0
 10
1060.25390625
 20
-0.0
 10
1050.615234375
 20
-0.0
 10
1040.9765625
 20
-0.0
 10
1031.337890625
 20
-0.0
 10
1021.69921875
 20
-0.0
 10
1012.060546875
 20
-0.0
 10
1002.421875
 20
-0.0
 10
992.783203125
 20
-0.0
 10
983.14453125
 20
-0.0
 10
973.505859375
 20
-0.0
 10
963.8671875
 20
-0.0
 10
954.228515625
 20
-0.0
 10
944.58984375
 20
-0.0
 10
934.951171875
 20
-0.0
 10
925.3125
 20
-0.0
 10
915.673828125
 20
-0.0
 10
906.03515625
 20
-0.0
 10
896.396484375
 20
-0.0
 10
886.7578125
 20
-0.0
 10
877.119140625
 20
-0.0
 10
867.48046875
 20
-0.0
 10
857.841796875
 20
-0.0
 10
848.203125
 20
-0.0
 10
838.564453125
 20
-0.0
 10
828.92578125
 20
-0.0
 10
819.287109375
 20
-0.0
 10
809.6484375
 20
-0.0
 10
800.009765625
 20
-0.0
 10
790.37109375
 20
-0.0
 10
780.732421875
 20
-0.0
 10
771.09375
 20
-0.0
 10
761.455078125
 20
-0.0
 10
751.81640625
 20
-0.0
 10
742.177734375
 20
-0.0
 10
732.5390625
 20
-0.0
 10
722.900390625
 20
-0.0
 10
713.26171875
 20
-0.0
 10
703.623046875
 20
-0.0
 10
693.984375
 20
-0.0
 10
684.345703125
 20
-0.0
 10
674.70703125
 20
-0.0
 10
665.068359375
 20
-0.0
 10
655.4296875
 20
-0.0
 10
645.791015625
 20
-0.0
 10
636.15234375
 20
-0.0
 10
626.513671875
 20
-0.0
 10
616.875
 20
-0.0
 10
607.236328125
 20
-0.0
 10
597.59765625
 20
-0.0
 10
587.958984375
 20
-0.0
 10
578.3203125
 20
-0.0
 10
568.681640625
 20
-0.0
 10
559.04296875
 20
-0.0
 10
549.404296875
 20
-0.0
 10
539.765625
 20
-0.0
 10
530.126953125
 20
-0.0
 10
520.48828125
 20
-0.0
 10
510.849609375
 20
-0.0
 10
501.2109375
 20
-0.0
 10
491.572265625
 20
-0.0
 10
481.93359375
 20
-0.0
 10
472.294921875
 20
-0.0
 10
462.65625
 20
-0.0
 10
453.017578125
 20
-0.0
 10
443.37890625
 20
-0.0
 10
433.740234375
 20
-0.0
 10
424.1015625
 20
-0.0
 10
414.462890625
 20
-0.0
 10
404.82421875
 20
-0.0
 10
395.185546875
 20
-0.0
 10
385.546875
 20
-0.0
 10
375.908203125
 20
-0.0
 10
366.26953125
 20
-0.0
 10
356.630859375
 20
-0.0
 10
346.9921875
 20
-0.0
 10
337.353515625
 20
-0.0
 10
327.71484375
 20
-0.0
 10
318.076171875
 20
-0.0
 10
308.4375
 20
-0.0
 10
298.798828125
 20
-0.0
 10
289.16015625
 20
-0.0
 10
279.521484375
 20
-0.0
 10
269.8828125
 20
-0.0
 10
260.244140625
 20
-0.0
 10
250.60546875
 20
-0.0
 10
240.966796875
 20
-0.0
 10
231.328125
 20
-0.0
 10
221.689453125
 20
-0.0
 10
212.05078125
 20
-0.0
 10
202.412109375
 20
-0.0
 10
192.7734375
 20
-0.0
 10
183.134765625
 20
-0.0
 10
173.49609375
 20
-0.0
 10
163.857421875
 20
-0.0
 10
154.21875
 20
-0.0
 10
144.580078125
 20
-0.0
 10
134.94140625
 20
-0.0
 10
125.302734375
 20
-0.0
 10
115.6640625
 20
-0.0
 10
106.025390625
 20
-0.0
 10
96.38671875
 20
-0.0
 10
86.748046875
 20
-0.0
 10
77.109375
 20
-0.0
 10
67.470703125
 20
-0.0
 10
57.83203125
 20
-0.0
 10
48.193359375
 20
-0.0
 10
38.5546875
 20
-0.0
 10
28.916015625
 20
-0.0
 10
19.27734375
 20
-0.0
 10
9.638671875
 20
-0.0
  0
LWPOLYLINE
  5
3A
330
17
100
AcDbEntity
  8
substrate
100
AcDbPolyline
 90
4
 70
1
 43
0.5
 10
4433.7890625
 20
-4800.05859375
 10
4443.427734375
 20
-4790.419921875
 10
4453.06640625
 20
-4800.05859375
 10
4443.427734375
 20
-4809.697265625
  0
LWPOLYLINE
  5
3B
330
17
100
AcDbEntity
  8
substrate
100
AcDbPolyline
 90
4
 70
1
 43
0.5
 10
3103.65234375
 20
-4318.125
 10
3113.291015625
 20
-4308.486328125
 10
3122.9296875
 20
-4318.125
 10
3113.291015625
 20
-4327.763671875
  0
LWPOLYLINE
  5
3C
330
17
100
AcDbEntity
  8
substrate
100
AcDbPolyline
 90
4
 70
1
 43
0.5
 10
2775.9375
 20
-4298.84765625
 10
2785.576171875
 20
-4289.208984375
 10
2795.21484375
 20
-4298.84765625
 10
2785.576171875
 20
-4308.486328125
  0
LWPOLYLINE
  5
3D
330
17
100
AcDbEntity
  8
substrate
100
AcDbPolyline
 90
4
 70
1
 43
0.5
 10
2149.423828125
 20
-4250.654296875
 10
2159.0625
 20
-4241.015625
 10
2168.701171875
 20
-4250.654296875
 10
2159.0625
 20
-4260.29296875
  0
LWPOLYLINE
  5
3E
330
17
100
AcDbEntity
  8
substrate
100
AcDbPolyline
 90
4
 70
1
 43
0.5
 10
1465.078125
 20
-4241.015625
 10
1474.716796875
 20
-4231.376953125
 10
1484.35546875
 20
-4241.015625
 10
1474.716796875
 20
-4250.654296875
  0
LWPOLYLINE
  5
3F
330
17
100
AcDbEntity
  8
substrate
100
AcDbPolyline
 90
4
 70
1
 43
0.5
 10
1465.078125
 20
-4221.73828125
 10
1474.716796875
 20
-4212.099609375
 10
1484.35546875
 20
-4221.73828125
 10
1474.716796875
 20
-4231.376953125
  0
LWPOLYLINE
  5
40
330
17
100
AcDbEntity
  8
substrate
100
AcDbPolyline
 90
4
 70
1
 43
0.5
 10
693.984375
 20
-4154.267578125
 10
703.623046875
 20
-4144.62890625
 10
713.26171875
 20
-4154.267578125
 10
703.623046875
 20
-4163.90625
  0
LWPOLYLINE
  5
41
330
17
100
AcDbEntity
  8
substrate
100
AcDbPolyline
 90
4
 70
1
 43
0.5
 10
3354.2578125
 20
-4115.712890625
 10
3363.896484375
 20
-4106.07421875
 10
3373.53515625
 20
-4115.712890625
 10
3363.896484375
 20
-4125.3515625
  0
LWPOLYLINE
  5
42
330
17
100
AcDbEntity
  8
substrate
100
AcDbPolyline
 90
4
 70
1
 43
0.5
 10
308.4375
 20
-4009.6875
 10
318.076171875
 20
-4000.048828125
 10
327.71484375
 20
-4009.6875
 10
318.076171875
 20
-4019.326171875
  0
LWPOLYLINE
  5
43
330
17
100
AcDbEntity
  8
substrate
100
AcDbPolyline
 90
4
 70
1
 43
0.5
 10
1012.060546875
 20
-4000.048828125
 10
1021.69921875
 20
-3990.41015625
 10
1031.337890625
 20
-4000.048828125
 10
1021.69921875
 20
-4009.6875
  0
LWPOLYLINE
  5
44
330
17
100
AcDbEntity
  8
substrate
100
AcDbPolyline
 90
4
 70
1
 43
0.5
 10
1734.9609375
 20
-3971.1328125
 10
1744.599609375
 20
-3961.494140625
 10
1754.23828125
 20
-3971.1328125
 10
1744.599609375
 20
-3980.771484375
  0
LWPOLYLINE
  5
45
330
17
100
AcDbEntity
  8
substrate
100
AcDbPolyline
 90
4
 70
1
 43
0.5
 10
3142.20703125
 20
-3865.107421875
 10
3151.845703125
 20
-3855.46875
 10
3161.484375
 20
-3865.107421875
 10
3151.845703125
 20
-3874.74609375
  0
LWPOLYLINE
  5
46
330
17
100
AcDbEntity
  8
substrate
100
AcDbPolyline
 90
6
 70
1
 43
0.5
 10
1185.556640625
 20
-3807.275390625
 10
1195.1953125
 20
-3797.63671875
 10
1204.833984375
 20
-3797.63671875
 10
1214.47265625
 20
-3807.275390625
 10
1204.833984375
 20
-3816.9140625
 10
1195.1953125
 20
-3816.9140625
  0
LWPOLYLINE
  5
47
330
17
100
AcDbEntity
  8
substrate
100
AcDbPolyline
 90
4
 70
1
 43
0.5
 10
4308.486328125
 20
-3537.392578125
 10
4318.125
 20
-3527.75390625
 10
4327.763671875
 20
-3537.392578125
 10
4318.125
 20
-3547.03125
  0
LWPOLYLINE
  5
48
330
17
100
AcDbEntity
  8
substrate
100
AcDbPolyline
 90
4
 70
1
 43
0.5
 10
4096.435546875
 20
-3537.392578125
 10
4106.07421875
 20
-3527.75390625
 10
4115.712890625
 20
-3537.392578125
 10
4106.07421875
 20
-3547.03125
  0
LWPOLYLINE
  5
49
330
17
100
AcDbEntity
  8
substrate
100
AcDbPolyline
 90
6
 70
1
 43
0.5
 10
3691.611328125
 20
-3537.392578125
 10
3701.25
 20
-3527.75390625
 10
3710.888671875
 20
-3527.75390625
 10
3720.52734375
 20
-3537.392578125
 10
3710.888671875
 20
-3547.03125
 10
3701.25
 20
-3547.03125
  0
LWPOLYLINE
  5
4A
330
17
100
AcDbEntity
  8
substrate
100
AcDbPolyline
 90
4
 70
1
 43
0.5
 10
3672.333984375
 20
-3537.392578125
 10
3681.97265625
 20
-3527.75390625
 10
3691.611328125
 20
-3537.392578125
 10
3681.97265625
 20
-3547.03125
  0
LWPOLYLINE
  5
4B
330
17
100
AcDbEntity
  8
substrate
100
AcDbPolyline
 90
4
 70
1
 43
0.5
 10
3691.611328125
 20
-3518.115234375
 10
3701.25
 20
-3508.4765625
 10
3710.888671875
 20
-3518.115234375
 10
3701.25
 20
-3527.75390625
  0
LWPOLYLINE
  5
4C
330
17
100
AcDbEntity
  8
substrate
100
AcDbPolyline
 90
4
 70
1
 43
0.5
 10
3739.8046875
 20
-3498.837890625
 10
3749.443359375
 20
-3489.19921875
 10
3759.08203125
 20
-3498.837890625
 10
3749.443359375
 20
-3508.4765625
  0
LWPOLYLINE
  5
4D
330
17
100
AcDbEntity
  8
substrate
100
AcDbPolyline
 90
7
 70
1
 43
0.5
 10
3691.611328125
 20
-3498.837890625
 10
3701.25
 20
-3489.19921875
 10
3710.888671875
 20
-3489.19921875
 10
3720.52734375
 20
-3498.837890625
 10
3720.52734375
 20
-3508.4765625
 10
3710.888671875
 20
-3518.115234375
 10
3701.25
 20
-3508.4765625
  0
LWPOLYLINE
  5
4E
330
17
100
AcDbEntity
  8
substrate
100
AcDbPolyline
 90
4
 70
1
 43
0.5
 10
3739.8046875
 20
-3479.560546875
 10
3749.443359375
 20
-3469.921875
 10
3759.08203125
 20
-3479.560546875
 10
3749.443359375
 20
-3489.19921875
  0
LWPOLYLINE
  5
4F
330
17
100
AcDbEntity
  8
substrate
100
AcDbPolyline
 90
8
 70
1
 43
0.5
 10
3720.52734375
 20
-3479.560546875
 10
3730.166015625
 20
-3469.921875
 10
3739.8046875
 20
-3479.560546875
 10
3739.8046875
 20
-3489.19921875
 10
3739.8046875
 20
-3498.837890625
 10
3730.166015625
 20
-3508.4765625
 10
3720.52734375
 20
-3498.837890625
 10
3720.52734375
 20
-3489.19921875
  0
LWPOLYLINE
  5
50
330
17
100
AcDbEntity
  8
substrate
100
AcDbPolyline
 90
4
 70
1
 43
0.5
 10
3122.9296875
 20
-3469.921875
 10
3132.568359375
 20
-3460.283203125
 10
3142.20703125
 20
-3469.921875
 10
3132.568359375
 20
-3479.560546875
  0
LWPOLYLINE
  5
51
330
17
100
AcDbEntity
  8
substrate
100
AcDbPolyline
 90
4
 70
1
 43
0.5
 10
2583.1640625
 20
-3460.283203125
 10
2592.802734375
 20
-3450.64453125
 10
2602.44140625
 20
-3460.283203125
 10
2592.802734375
 20
-3469.921875
  0
LWPOLYLINE
  5
52
330
17
100
AcDbEntity
  8
substrate
100
AcDbPolyline
 90
4
 70
1
 43
0.5
 10
848.203125
 20
-3383.173828125
 10
857.841796875
 20
-3373.53515625
 10
867.48046875
 20
-3383.173828125
 10
857.841796875
 20
-3392.8125
  0
LWPOLYLINE
  5
53
330
17
100
AcDbEntity
  8
substrate
100
AcDbPolyline
 90
4
 70
1
 43
0.5
 10
1686.767578125
 20
-3325.341796875
 10
1696.40625
 20
-3315.703125
 10
1706.044921875
 20
-3325.341796875
 10
1696.40625
 20
-3334.98046875
  0
LWPOLYLINE
  5
54
330
17
100
AcDbEntity
  8
substrate
100
AcDbPolyline
 90
4
 70
1
 43
0.5
 10
3759.08203125
 20
-3248.232421875
 10
3768.720703125
 20
-3238.59375
 10
3778.359375
 20
-3248.232421875
 10
3768.720703125
 20
-3257.87109375
  0
LWPOLYLINE
  5
55
330
17
100
AcDbEntity
  8
substrate
100
AcDbPolyline
 90
4
 70
1
 43
0.5
 10
1310.859375
 20
-3228.955078125
 10
1320.498046875
 20
-3219.31640625
 10
1330.13671875
 20
-3228.955078125
 10
1320.498046875
 20
-3238.59375
  0
LWPOLYLINE
  5
56
330
17
100
AcDbEntity
  8
substrate
100
AcDbPolyline
 90
4
 70
1
 43
0.5
 10
4048.2421875
 20
-3161.484375
 10
4057.880859375
 20
-3151.845703125
 10
4067.51953125
 20
-3161.484375
 10
4057.880859375
 20
-3171.123046875
  0
LWPOLYLINE
  5
57
330
17
100
AcDbEntity
  8
substrate
100
AcDbPolyline
 90
4
 70
1
 43
0.5
 10
1474.716796875
 20
-3074.736328125
 10
1484.35546875
 20
-3065.09765625
 10
1493.994140625
 20
-3074.736328125
 10
1484.35546875
 20
-3084.375
  0
LWPOLYLINE
  5
58
330
17
100
AcDbEntity
  8
substrate
100
AcDbPolyline
 90
4
 70
1
 43
0.5
 10
1012.060546875
 20
-3074.736328125
 10
1021.69921875
 20
-3065.09765625
 10
1031.337890625
 20
-3074.736328125
 10
1021.69921875
 20
-3084.375
  0
LWPOLYLINE
  5
59
330
17
100
AcDbEntity
  8
substrate
100
AcDbPolyline
 90
4
 70
1
 43
0.5
 10
3816.9140625
 20
-2843.408203125
 10
3826.552734375
 20
-2833.76953125
 10
3836.19140625
 20
-2843.408203125
 10
3826.552734375
 20
-2853.046875
  0
LWPOLYLINE
  5
5A
330
17
100
AcDbEntity
  8
substrate
100
AcDbPolyline
 90
4
 70
1
 43
0.5
 10
4279.5703125
 20
-2737.3828125
 10
4289.208984375
 20
-2727.744140625
 10
4298.84765625
 20
-2737.3828125
 10
4289.208984375
 20
-2747.021484375
  0
LWPOLYLINE
  5
5B
330
17
100
AcDbEntity
  8
substrate
100
AcDbPolyline
 90
4
 70
1
 43
0.5
 10
4694.033203125
 20
-2727.744140625
 10
4703.671875
 20
-2718.10546875
 10
4713.310546875
 20
-2727.744140625
 10
4703.671875
 20
-2737.3828125
  0
LWPOLYLINE
  5
5C
330
17
100
AcDbEntity
  8
substrate
100
AcDbPolyline
 90
6
 70
1
 43
0.5
 10
2891.6015625
 20
-2689.189453125
 10
2901.240234375
 20
-2679.55078125
 10
2910.87890625
 20
-2679.55078125
 10
2920.517578125
 20
-2689.189453125
 10
2910.87890625
 20
-2698.828125
 10
2901.240234375
 20
-2698.828125
  0
LWPOLYLINE
  5
5D
330
17
100
AcDbEntity
  8
substrate
100
AcDbPolyline
 90
4
 70
1
 43
0.5
 10
2891.6015625
 20
-2669.912109375
 10
2901.240234375
 20
-2660.2734375
 10
2910.87890625
 20
-2669.912109375
 10
2901.240234375
 20
-2679.55078125
  0
LWPOLYLINE
  5
5E
330
17
100
AcDbEntity
  8
substrate
100
AcDbPolyline
 90
4
 70
1
 43
0.5
 10
2891.6015625
 20
-2650.634765625
 10
2901.240234375
 20
-2640.99609375
 10
2910.87890625
 20
-2650.634765625
 10
2901.240234375
 20
-2660.2734375
  0
LWPOLYLINE
  5
5F
330
17
100
AcDbEntity
  8
substrate
100
AcDbPolyline
 90
8
 70
1
 43
0.5
 10
713.26171875
 20
-2650.634765625
 10
722.900390625
 20
-2640.99609375
 10
732.5390625
 20
-2640.99609375
 10
742.177734375
 20
-2640.99609375
 10
751.81640625
 20
-2650.634765625
 10
742.177734375
 20
-2660.2734375
 10
732.5390625
 20
-2660.2734375
 10
722.900390625
 20
-2660.2734375
  0
LWPOLYLINE
  5
60
330
17
100
AcDbEntity
  8
substrate
100
AcDbPolyline
 90
4
 70
1
 43
0.5
 10
2747.021484375
 20
-2612.080078125
 10
2756.66015625
 20
-2602.44140625
 10
2766.298828125
 20
-2612.080078125
 10
2756.66015625
 20
-2621.71875
  0
LWPOLYLINE
  5
61
330
17
100
AcDbEntity
  8
substrate
100
AcDbPolyline
 90
4
 70
1
 43
0.5
 10
4048.2421875
 20
-2544.609375
 10
4057.880859375
 20
-2534.970703125
 10
4067.51953125
 20
-2544.609375
 10
4057.880859375
 20
-2554.248046875
  0
LWPOLYLINE
  5
62
330
17
100
AcDbEntity
  8
substrate
100
AcDbPolyline
 90
4
 70
1
 43
0.5
 10
3431.3671875
 20
-2544.609375
 10
3441.005859375
 20
-2534.970703125
 10
3450.64453125
 20
-2544.609375
 10
3441.005859375
 20
-2554.248046875
  0
LWPOLYLINE
  5
63
330
17
100
AcDbEntity
  8
substrate
100
AcDbPolyline
 90
4
 70
1
 43
0.5
 10
1580.7421875
 20
-2544.609375
 10
1590.380859375
 20
-2534.970703125
 10
1600.01953125
 20
-2544.609375
 10
1590.380859375
 20
-2554.248046875
  0
LWPOLYLINE
  5
64
330
17
100
AcDbEntity
  8
substrate
100
AcDbPolyline
 90
4
 70
1
 43
0.5
 10
4462.705078125
 20
-2400.029296875
 10
4472.34375
 20
-2390.390625
 10
4481.982421875
 20
-2400.029296875
 10
4472.34375
 20
-2409.66796875
  0
LWPOLYLINE
  5
65
330
17
100
AcDbEntity
  8
substrate
100
AcDbPolyline
 90
4
 70
1
 43
0.5
 10
2901.240234375
 20
-2400.029296875
 10
2910.87890625
 20
-2390.390625
 10
2920.517578125
 20
-2400.029296875
 10
2910.87890625
 20
-2409.66796875
  0
LWPOLYLINE
  5
66
330
17
100
AcDbEntity
  8
substrate
100
AcDbPolyline
 90
4
 70
1
 43
0.5
 10
2159.0625
 20
-2390.390625
 10
2168.701171875
 20
-2380.751953125
 10
2178.33984375
 20
-2390.390625
 10
2168.701171875
 20
-2400.029296875
  0
LWPOLYLINE
  5
67
330
17
100
AcDbEntity
  8
substrate
100
AcDbPolyline
 90
4
 70
1
 43
0.5
 10
4616.923828125
 20
-2245.810546875
 10
4626.5625
 20
-2236.171875
 10
4636.201171875
 20
-2245.810546875
 10
4626.5625
 20
-2255.44921875
  0
LWPOLYLINE
  5
68
330
17
100
AcDbEntity
  8
substrate
100
AcDbPolyline
 90
4
 70
1
 43
0.5
 10
4000.048828125
 20
-2245.810546875
 10
4009.6875
 20
-2236.171875
 10
4019.326171875
 20
-2245.810546875
 10
4009.6875
 20
-2255.44921875
  0
LWPOLYLINE
  5
69
330
17
100
AcDbEntity
  8
substrate
100
AcDbPolyline
 90
4
 70
1
 43
0.5
 10
4048.2421875
 20
-2236.171875
 10
4057.880859375
 20
-2226.533203125
 10
4067.51953125
 20
-2236.171875
 10
4057.880859375
 20
-2245.810546875
  0
LWPOLYLINE
  5
6A
330
17
100
AcDbEntity
  8
substrate
100
AcDbPolyline
 90
189
 70
1
 43
0.5
 10
2419.306640625
 20
-2187.978515625
 10
2428.9453125
 20
-2178.33984375
 10
2438.583984375
 20
-2187.978515625
 10
2448.22265625
 20
-2187.978515625
 10
2457.861328125
 20
-2187.978515625
 10
2467.5
 20
-2187.978515625
 10
2477.138671875
 20
-2187.978515625
 10
2486.77734375
 20
-2187.978515625
 10
2496.416015625
 20
-2178.33984375
 10
2506.0546875
 20
-2187.978515625
 10
2515.693359375
 20
-2187.978515625
 10
2525.33203125
 20
-2187.978515625
 10
2534.970703125
 20
-2187.978515625
 10
2544.609375
 20
-2197.6171875
 10
2554.248046875
 20
-2187.978515625
 10
2563.88671875
 20
-2197.6171875
 10
2573.525390625
 20
-2197.6171875
 10
2583.1640625
 20
-2197.6171875
 10
2592.802734375
 20
-2197.6171875
 10
2602.44140625
 20
-2207.255859375
 10
2602.44140625
 20
-2216.89453125
 10
2612.080078125
 20
-2207.255859375
 10
2621.71875
 20
-2216.89453125
 10
2631.357421875
 20
-2226.533203125
 10
2640.99609375
 20
-2236.171875
 10
2640.99609375
 20
-2245.810546875
 10
2650.634765625
 20
-2245.810546875
 10
2660.2734375
 20
-2255.44921875
 10
2660.2734375
 20
-2265.087890625
 10
2669.912109375
 20
-2274.7265625
 10
2669.912109375
 20
-2284.365234375
 10
2679.55078125
 20
-2284.365234375
 10
2689.189453125
 20
-2294.00390625
 10
2698.828125
 20
-2303.642578125
 10
2698.828125
 20
-2313.28125
 10
2708.466796875
 20
-2322.919921875
 10
2718.10546875
 20
-2332.55859375
 10
2727.744140625
 20
-2342.197265625
 10
2718.10546875
 20
-2351.8359375
 10
2727.744140625
 20
-2361.474609375
 10
2737.3828125
 20
-2371.11328125
 10
2727.744140625
 20
-2380.751953125
 10
2737.3828125
 20
-2390.390625
 10
2727.744140625
 20
-2400.029296875
 10
2737.3828125
 20
-2409.66796875
 10
2727.744140625
 20
-2419.306640625
 10
2737.3828125
 20
-2428.9453125
 10
2727.744140625
 20
-2438.583984375
 10
2737.3828125
 20
-2448.22265625
 10
2747.021484375
 20
-2457.861328125
 10
2737.3828125
 20
-2467.5
 10
2737.3828125
 20
-2477.138671875
 10
2747.021484375
 20
-2486.77734375
 10
2747.021484375
 20
-2496.416015625
 10
2747.021484375
 20
-2506.0546875
 10
2747.021484375
 20
-2515.693359375
 10
2747.021484375
 20
-2525.33203125
 10
2747.021484375
 20
-2534.970703125
 10
2747.021484375
 20
-2544.609375
 10
2747.021484375
 20
-2554.248046875
 10
2756.66015625
 20
-2563.88671875
 10
2766.298828125
 20
-2573.525390625
 10
2766.298828125
 20
-2583.1640625
 10
2756.66015625
 20
-2592.802734375
 10
2747.021484375
 20
-2592.802734375
 10
2747.021484375
 20
-2602.44140625
 10
2737.3828125
 20
-2612.080078125
 10
2727.744140625
 20
-2612.080078125
 10
2718.10546875
 20
-2602.44140625
 10
2727.744140625
 20
-2612.080078125
 10
2718.10546875
 20
-2621.71875
 10
2708.466796875
 20
-2621.71875
 10
2698.828125
 20
-2621.71875
 10
2689.189453125
 20
-2631.357421875
 10
2679.55078125
 20
-2631.357421875
 10
2679.55078125
 20
-2640.99609375
 10
2669.912109375
 20
-2650.634765625
 10
2660.2734375
 20
-2660.2734375
 10
2650.634765625
 20
-2669.912109375
 10
2650.634765625
 20
-2679.55078125
 10
2640.99609375
 20
-2689.189453125
 10
2631.357421875
 20
-2689.189453125
 10
2631.357421875
 20
-2698.828125
 10
2621.71875
 20
-2708.466796875
 10
2612.080078125
 20
-2718.10546875
 10
2612.080078125
 20
-2727.744140625
 10
2602.44140625
 20
-2737.3828125
 10
2592.802734375
 20
-2737.3828125
 10
2583.1640625
 20
-2737.3828125
 10
2573.525390625
 20
-2737.3828125
 10
2563.88671875
 20
-2737.3828125
 10
2554.248046875
 20
-2737.3828125
 10
2544.609375
 20
-2737.3828125
 10
2534.970703125
 20
-2737.3828125
 10
2525.33203125
 20
-2747.021484375
 10
2515.693359375
 20
-2747.021484375
 10
2506.0546875
 20
-2756.66015625
 10
2496.416015625
 20
-2756.66015625
 10
2486.77734375
 20
-2756.66015625
 10
2477.138671875
 20
-2747.021484375
 10
2467.5
 20
-2756.66015625
 10
2457.861328125
 20
-2747.021484375
 10
2448.22265625
 20
-2747.021484375
 10
2438.583984375
 20
-2747.021484375
 10
2428.9453125
 20
-2747.021484375
 10
2419.306640625
 20
-2747.021484375
 10
2409.66796875
 20
-2747.021484375
 10
2400.029296875
 20
-2747.021484375
 10
2390.390625
 20
-2747.021484375
 10
2380.751953125
 20
-2737.3828125
 10
2371.11328125
 20
-2737.3828125
 10
2361.474609375
 20
-2737.3828125
 10
2351.8359375
 20
-2737.3828125
 10
2342.197265625
 20
-2727.744140625
 10
2332.55859375
 20
-2727.744140625
 10
2322.919921875
 20
-2718.10546875
 10
2313.28125
 20
-2718.10546875
 10
2303.642578125
 20
-2718.10546875
 10
2294.00390625
 20
-2708.466796875
 10
2294.00390625
 20
-2698.828125
 10
2284.365234375
 20
-2689.189453125
 10
2274.7265625
 20
-2679.55078125
 10
2274.7265625
 20
-2669.912109375
 10
2265.087890625
 20
-2660.2734375
 10
2255.44921875
 20
-2660.2734375
 10
2245.810546875
 20
-2650.634765625
 10
2236.171875
 20
-2640.99609375
 10
2226.533203125
 20
-2631.357421875
 10
2226.533203125
 20
-2621.71875
 10
2216.89453125
 20
-2612.080078125
 10
2207.255859375
 20
-2602.44140625
 10
2197.6171875
 20
-2592.802734375
 10
2187.978515625
 20
-2583.1640625
 10
2187.978515625
 20
-2573.525390625
 10
2178.33984375
 20
-2563.88671875
 10
2187.978515625
 20
-2554.248046875
 10
2178.33984375
 20
-2544.609375
 10
2178.33984375
 20
-2534.970703125
 10
2178.33984375
 20
-2525.33203125
 10
2178.33984375
 20
-2515.693359375
 10
2178.33984375
 20
-2506.0546875
 10
2178.33984375
 20
-2496.416015625
 10
2178.33984375
 20
-2486.77734375
 10
2178.33984375
 20
-2477.138671875
 10
2168.701171875
 20
-2467.5
 10
2178.33984375
 20
-2457.861328125
 10
2178.33984375
 20
-2448.22265625
 10
2178.33984375
 20
-2438.583984375
 10
2178.33984375
 20
-2428.9453125
 10
2178.33984375
 20
-2419.306640625
 10
2168.701171875
 20
-2409.66796875
 10
2178.33984375
 20
-2400.029296875
 10
2187.978515625
 20
-2400.029296875
 10
2178.33984375
 20
-2390.390625
 10
2187.978515625
 20
-2380.751953125
 10
2178.33984375
 20
-2371.11328125
 10
2187.978515625
 20
-2361.474609375
 10
2197.6171875
 20
-2361.474609375
 10
2197.6171875
 20
-2351.8359375
 10
2197.6171875
 20
-2342.197265625
 10
2197.6171875
 20
-2332.55859375
 10
2197.6171875
 20
-2322.919921875
 10
2197.6171875
 20
-2313.28125
 10
2207.255859375
 20
-2303.642578125
 10
2216.89453125
 20
-2303.642578125
 10
2216.89453125
 20
-2294.00390625
 10
2226.533203125
 20
-2284.365234375
 10
2236.171875
 20
-2284.365234375
 10
2236.171875
 20
-2274.7265625
 10
2245.810546875
 20
-2265.087890625
 10
2255.44921875
 20
-2265.087890625
 10
2255.44921875
 20
-2255.44921875
 10
2265.087890625
 20
-2245.810546875
 10
2274.7265625
 20
-2236.171875
 10
2284.365234375
 20
-2226.533203125
 10
2284.365234375
 20
-2216.89453125
 10
2294.00390625
 20
-2207.255859375
 10
2303.642578125
 20
-2207.255859375
 10
2313.28125
 20
-2207.255859375
 10
2322.919921875
 20
-2207.255859375
 10
2332.55859375
 20
-2207.255859375
 10
2342.197265625
 20
-2207.255859375
 10
2351.8359375
 20
-2197.6171875
 10
2361.474609375
 20
-2197.6171875
 10
2371.11328125
 20
-2197.6171875
 10
2380.751953125
 20
-2197.6171875
 10
2390.390625
 20
-2197.6171875
 10
2400.029296875
 20
-2187.978515625
 10
2409.66796875
 20
-2187.978515625
  0
LWPOLYLINE
  5
6B
330
17
100
AcDbEntity
  8
substrate
100
AcDbPolyline
 90
1
 70
1
 43
0.5
 10
2303.642578125
 20
-2534.970703125
  0
LWPOLYLINE
  5
6C
330
17
100
AcDbEntity
  8
substrate
100
AcDbPolyline
 90
6
 70
1
 43
0.5
 10
2303.642578125
 20
-2380.751953125
 10
2303.642578125
 20
-2390.390625
 10
2303.642578125
 20
-2400.029296875
 10
2313.28125
 20
-2390.390625
 10
2322.919921875
 20
-2390.390625
 10
2313.28125
 20
-2390.390625
  0
LWPOLYLINE
  5
6D
330
17
100
AcDbEntity
  8
substrate
100
AcDbPolyline
 90
4
 70
1
 43
0.5
 10
298.798828125
 20
-2130.146484375
 10
308.4375
 20
-2120.5078125
 10
318.076171875
 20
-2130.146484375
 10
308.4375
 20
-2139.78515625
  0
LWPOLYLINE
  5
6E
330
17
100
AcDbEntity
  8
substrate
100
AcDbPolyline
 90
4
 70
1
 43
0.5
 10
4279.5703125
 20
-2120.5078125
 10
4289.208984375
 20
-2110.869140625
 10
4298.84765625
 20
-2120.5078125
 10
4289.208984375
 20
-2130.146484375
  0
LWPOLYLINE
  5
6F
330
17
100
AcDbEntity
  8
substrate
100
AcDbPolyline
 90
4
 70
1
 43
0.5
 10
4694.033203125
 20
-2110.869140625
 10
4703.671875
 20
-2101.23046875
 10
4713.310546875
 20
-2110.869140625
 10
4703.671875
 20
-2120.5078125
  0
LWPOLYLINE
  5
70
330
17
100
AcDbEntity
  8
substrate
100
AcDbPolyline
 90
4
 70
1
 43
0.5
 10
298.798828125
 20
-2110.869140625
 10
308.4375
 20
-2101.23046875
 10
318.076171875
 20
-2110.869140625
 10
308.4375
 20
-2120.5078125
  0
LWPOLYLINE
  5
71
330
17
100
AcDbEntity
  8
substrate
100
AcDbPolyline
 90
4
 70
1
 43
0.5
 10
2795.21484375
 20
-2101.23046875
 10
2804.853515625
 20
-2091.591796875
 10
2814.4921875
 20
-2101.23046875
 10
2804.853515625
 20
-2110.869140625
  0
LWPOLYLINE
  5
72
330
17
100
AcDbEntity
  8
substrate
100
AcDbPolyline
 90
4
 70
1
 43
0.5
 10
4616.923828125
 20
-2091.591796875
 10
4626.5625
 20
-2081.953125
 10
4636.201171875
 20
-2091.591796875
 10
4626.5625
 20
-2101.23046875
  0
LWPOLYLINE
  5
73
330
17
100
AcDbEntity
  8
substrate
100
AcDbPolyline
 90
4
 70
1
 43
0.5
 10
1686.767578125
 20
-2091.591796875
 10
1696.40625
 20
-2081.953125
 10
1706.044921875
 20
-2091.591796875
 10
1696.40625
 20
-2101.23046875
  0
LWPOLYLINE
  5
74
330
17
100
AcDbEntity
  8
substrate
100
AcDbPolyline
 90
6
 70
1
 43
0.5
 10
1648.212890625
 20
-2091.591796875
 10
1657.8515625
 20
-2081.953125
 10
1667.490234375
 20
-2081.953125
 10
1677.12890625
 20
-2091.591796875
 10
1667.490234375
 20
-2101.23046875
 10
1657.8515625
 20
-2101.23046875
  0
LWPOLYLINE
  5
75
330
17
100
AcDbEntity
  8
substrate
100
AcDbPolyline
 90
4
 70
1
 43
0.5
 10
298.798828125
 20
-2091.591796875
 10
308.4375
 20
-2081.953125
 10
318.076171875
 20
-2091.591796875
 10
308.4375
 20
-2101.23046875
  0
LWPOLYLINE
  5
76
330
17
100
AcDbEntity
  8
substrate
100
AcDbPolyline
 90
6
 70
1
 43
0.5
 10
1657.8515625
 20
-2072.314453125
 10
1667.490234375
 20
-2062.67578125
 10
1677.12890625
 20
-2062.67578125
 10
1686.767578125
 20
-2072.314453125
 10
1677.12890625
 20
-2081.953125
 10
1667.490234375
 20
-2081.953125
  0
LWPOLYLINE
  5
77
330
17
100
AcDbEntity
  8
substrate
100
AcDbPolyline
 90
4
 70
1
 43
0.5
 10
1040.9765625
 20
-2072.314453125
 10
1050.615234375
 20
-2062.67578125
 10
1060.25390625
 20
-2072.314453125
 10
1050.615234375
 20
-2081.953125
  0
LWPOLYLINE
  5
78
330
17
100
AcDbEntity
  8
substrate
100
AcDbPolyline
 90
4
 70
1
 43
0.5
 10
1079.53125
 20
-2004.84375
 10
1089.169921875
 20
-1995.205078125
 10
1098.80859375
 20
-2004.84375
 10
1089.169921875
 20
-2014.482421875
  0
LWPOLYLINE
  5
79
330
17
100
AcDbEntity
  8
substrate
100
AcDbPolyline
 90
4
 70
1
 43
0.5
 10
2583.1640625
 20
-1879.541015625
 10
2592.802734375
 20
-1869.90234375
 10
2602.44140625
 20
-1879.541015625
 10
2592.802734375
 20
-1889.1796875
  0
LWPOLYLINE
  5
7A
330
17
100
AcDbEntity
  8
substrate
100
AcDbPolyline
 90
4
 70
1
 43
0.5
 10
2563.88671875
 20
-1879.541015625
 10
2573.525390625
 20
-1869.90234375
 10
2583.1640625
 20
-1879.541015625
 10
2573.525390625
 20
-1889.1796875
  0
LWPOLYLINE
  5
7B
330
17
100
AcDbEntity
  8
substrate
100
AcDbPolyline
 90
4
 70
1
 43
0.5
 10
453.017578125
 20
-1783.154296875
 10
462.65625
 20
-1773.515625
 10
472.294921875
 20
-1783.154296875
 10
462.65625
 20
-1792.79296875
  0
LWPOLYLINE
  5
7C
330
17
100
AcDbEntity
  8
substrate
100
AcDbPolyline
 90
4
 70
1
 43
0.5
 10
4578.369140625
 20
-1474.716796875
 10
4588.0078125
 20
-1465.078125
 10
4597.646484375
 20
-1474.716796875
 10
4588.0078125
 20
-1484.35546875
  0
LWPOLYLINE
  5
7D
330
17
100
AcDbEntity
  8
substrate
100
AcDbPolyline
 90
4
 70
1
 43
0.5
 10
2303.642578125
 20
-1474.716796875
 10
2313.28125
 20
-1465.078125
 10
2322.919921875
 20
-1474.716796875
 10
2313.28125
 20
-1484.35546875
  0
LWPOLYLINE
  5
7E
330
17
100
AcDbEntity
  8
substrate
100
AcDbPolyline
 90
4
 70
1
 43
0.5
 10
1686.767578125
 20
-1474.716796875
 10
1696.40625
 20
-1465.078125
 10
1706.044921875
 20
-1474.716796875
 10
1696.40625
 20
-1484.35546875
  0
LWPOLYLINE
  5
7F
330
17
100
AcDbEntity
  8
substrate
100
AcDbPolyline
 90
4
 70
1
 43
0.5
 10
298.798828125
 20
-1474.716796875
 10
308.4375
 20
-1465.078125
 10
318.076171875
 20
-1474.716796875
 10
308.4375
 20
-1484.35546875
  0
LWPOLYLINE
  5
80
330
17
100
AcDbEntity
  8
substrate
100
AcDbPolyline
 90
4
 70
1
 43
0.5
 10
2891.6015625
 20
-1455.439453125
 10
2901.240234375
 20
-1445.80078125
 10
2910.87890625
 20
-1455.439453125
 10
2901.240234375
 20
-1465.078125
  0
LWPOLYLINE
  5
81
330
17
100
AcDbEntity
  8
substrate
100
AcDbPolyline
 90
4
 70
1
 43
0.5
 10
2274.7265625
 20
-1455.439453125
 10
2284.365234375
 20
-1445.80078125
 10
2294.00390625
 20
-1455.439453125
 10
2284.365234375
 20
-1465.078125
  0
LWPOLYLINE
  5
82
330
17
100
AcDbEntity
  8
substrate
100
AcDbPolyline
 90
4
 70
1
 43
0.5
 10
269.8828125
 20
-1455.439453125
 10
279.521484375
 20
-1445.80078125
 10
289.16015625
 20
-1455.439453125
 10
279.521484375
 20
-1465.078125
  0
LWPOLYLINE
  5
83
330
17
100
AcDbEntity
  8
substrate
100
AcDbPolyline
 90
4
 70
1
 43
0.5
 10
3566.30859375
 20
-1349.4140625
 10
3575.947265625
 20
-1339.775390625
 10
3585.5859375
 20
-1349.4140625
 10
3575.947265625
 20
-1359.052734375
  0
LWPOLYLINE
  5
84
330
17
100
AcDbEntity
  8
substrate
100
AcDbPolyline
 90
4
 70
1
 43
0.5
 10
2698.828125
 20
-1339.775390625
 10
2708.466796875
 20
-1330.13671875
 10
2718.10546875
 20
-1339.775390625
 10
2708.466796875
 20
-1349.4140625
  0
LWPOLYLINE
  5
85
330
17
100
AcDbEntity
  8
substrate
100
AcDbPolyline
 90
4
 70
1
 43
0.5
 10
3566.30859375
 20
-1330.13671875
 10
3575.947265625
 20
-1320.498046875
 10
3585.5859375
 20
-1330.13671875
 10
3575.947265625
 20
-1339.775390625
  0
LWPOLYLINE
  5
86
330
17
100
AcDbEntity
  8
substrate
100
AcDbPolyline
 90
4
 70
1
 43
0.5
 10
3585.5859375
 20
-1310.859375
 10
3595.224609375
 20
-1301.220703125
 10
3604.86328125
 20
-1310.859375
 10
3595.224609375
 20
-1320.498046875
  0
LWPOLYLINE
  5
87
330
17
100
AcDbEntity
  8
substrate
100
AcDbPolyline
 90
4
 70
1
 43
0.5
 10
1628.935546875
 20
-1224.111328125
 10
1638.57421875
 20
-1214.47265625
 10
1648.212890625
 20
-1224.111328125
 10
1638.57421875
 20
-1233.75
  0
LWPOLYLINE
  5
88
330
17
100
AcDbEntity
  8
substrate
100
AcDbPolyline
 90
4
 70
1
 43
0.5
 10
1012.060546875
 20
-1224.111328125
 10
1021.69921875
 20
-1214.47265625
 10
1031.337890625
 20
-1224.111328125
 10
1021.69921875
 20
-1233.75
  0
LWPOLYLINE
  5
89
330
17
100
AcDbEntity
  8
substrate
100
AcDbPolyline
 90
4
 70
1
 43
0.5
 10
2920.517578125
 20
-1166.279296875
 10
2930.15625
 20
-1156.640625
 10
2939.794921875
 20
-1166.279296875
 10
2930.15625
 20
-1175.91796875
  0
LWPOLYLINE
  5
8A
330
17
100
AcDbEntity
  8
substrate
100
AcDbPolyline
 90
4
 70
1
 43
0.5
 10
308.4375
 20
-925.3125
 10
318.076171875
 20
-915.673828125
 10
327.71484375
 20
-925.3125
 10
318.076171875
 20
-934.951171875
  0
LWPOLYLINE
  5
8B
330
17
100
AcDbEntity
  8
substrate
100
AcDbPolyline
 90
4
 70
1
 43
0.5
 10
867.48046875
 20
-915.673828125
 10
877.119140625
 20
-906.03515625
 10
886.7578125
 20
-915.673828125
 10
877.119140625
 20
-925.3125
  0
LWPOLYLINE
  5
8C
330
17
100
AcDbEntity
  8
substrate
100
AcDbPolyline
 90
4
 70
1
 43
0.5
 10
848.203125
 20
-915.673828125
 10
857.841796875
 20
-906.03515625
 10
867.48046875
 20
-915.673828125
 10
857.841796875
 20
-925.3125
  0
LWPOLYLINE
  5
8D
330
17
100
AcDbEntity
  8
substrate
100
AcDbPolyline
 90
4
 70
1
 43
0.5
 10
269.8828125
 20
-877.119140625
 10
279.521484375
 20
-867.48046875
 10
289.16015625
 20
-877.119140625
 10
279.521484375
 20
-886.7578125
  0
LWPOLYLINE
  5
8E
330
17
100
AcDbEntity
  8
substrate
100
AcDbPolyline
 90
4
 70
1
 43
0.5
 10
298.798828125
 20
-857.841796875
 10
308.4375
 20
-848.203125
 10
318.076171875
 20
-857.841796875
 10
308.4375
 20
-867.48046875
  0
LWPOLYLINE
  5
8F
330
17
100
AcDbEntity
  8
substrate
100
AcDbPolyline
 90
4
 70
1
 43
0.5
 10
2708.466796875
 20
-607.236328125
 10
2718.10546875
 20
-597.59765625
 10
2727.744140625
 20
-607.236328125
 10
2718.10546875
 20
-616.875
  0
LWPOLYLINE
  5
90
330
17
100
AcDbEntity
  8
substrate
100
AcDbPolyline
 90
4
 70
1
 43
0.5
 10
2091.591796875
 20
-607.236328125
 10
2101.23046875
 20
-597.59765625
 10
2110.869140625
 20
-607.236328125
 10
2101.23046875
 20
-616.875
  0
LWPOLYLINE
  5
91
330
17
100
AcDbEntity
  8
substrate
100
AcDbPolyline
 90
4
 70
1
 43
0.5
 10
1532.548828125
 20
-395.185546875
 10
1542.1875
 20
-385.546875
 10
1551.826171875
 20
-395.185546875
 10
1542.1875
 20
-404.82421875
  0
LWPOLYLINE
  5
92
330
17
100
AcDbEntity
  8
substrate
100
AcDbPolyline
 90
4
 70
1
 43
0.5
 10
4366.318359375
 20
-298.798828125
 10
4375.95703125
 20
-289.16015625
 10
4385.595703125
 20
-298.798828125
 10
4375.95703125
 20
-308.4375
  0
LWPOLYLINE
  5
93
330
17
100
AcDbEntity
  8
substrate
100
AcDbPolyline
 90
4
 70
1
 43
0.5
 10
3383.173828125
 20
-260.244140625
 10
3392.8125
 20
-250.60546875
 10
3402.451171875
 20
-260.244140625
 10
3392.8125
 20
-269.8828125
  0
LWPOLYLINE
  5
94
330
17
100
AcDbEntity
  8
substrate
100
AcDbPolyline
 90
4
 70
1
 43
0.5
 10
1532.548828125
 20
-260.244140625
 10
1542.1875
 20
-250.60546875
 10
1551.826171875
 20
-260.244140625
 10
1542.1875
 20
-269.8828125
  0
LWPOLYLINE
  5
95
330
17
100
AcDbEntity
  8
substrate
100
AcDbPolyline
 90
4
 70
1
 43
0.5
 10
915.673828125
 20
-260.244140625
 10
925.3125
 20
-250.60546875
 10
934.951171875
 20
-260.244140625
 10
925.3125
 20
-269.8828125
  0
LWPOLYLINE
  5
96
330
17
100
AcDbEntity
  8
substrate
100
AcDbPolyline
 90
4
 70
1
 43
0.5
 10
3383.173828125
 20
-240.966796875
 10
3392.8125
 20
-231.328125
 10
3402.451171875
 20
-240.966796875
 10
3392.8125
 20
-250.60546875
  0
LWPOLYLINE
  5
97
330
17
100
AcDbEntity
  8
substrate
100
AcDbPolyline
 90
4
 70
1
 43
0.5
 10
1224.111328125
 20
-240.966796875
 10
1233.75
 20
-231.328125
 10
1243.388671875
 20
-240.966796875
 10
1233.75
 20
-250.60546875
  0
LWPOLYLINE
  5
98
330
17
100
AcDbEntity
  8
substrate
100
AcDbPolyline
 90
4
 70
1
 43
0.5
 10
915.673828125
 20
-240.966796875
 10
925.3125
 20
-231.328125
 10
934.951171875
 20
-240.966796875
 10
925.3125
 20
-250.60546875
  0
LWPOLYLINE
  5
99
330
17
100
AcDbEntity
  8
substrate
100
AcDbPolyline
 90
4
 70
1
 43
0.5
 10
607.236328125
 20
-240.966796875
 10
616.875
 20
-231.328125
 10
626.513671875
 20
-240.966796875
 10
616.875
 20
-250.60546875
  0
LWPOLYLINE
  5
9A
330
17
100
AcDbEntity
  8
substrate
100
AcDbPolyline
 90
4
 70
1
 43
0.5
 10
4019.326171875
 20
-77.109375
 10
4028.96484375
 20
-67.470703125
 10
4038.603515625
 20
-77.109375
 10
4028.96484375
 20
-86.748046875
  0
LWPOLYLINE
  5
9B
330
17
100
AcDbEntity
  8
substrate
100
AcDbPolyline
 90
4
 70
1
 43
0.5
 10
3402.451171875
 20
-77.109375
 10
3412.08984375
 20
-67.470703125
 10
3421.728515625
 20
-77.109375
 10
3412.08984375
 20
-86.748046875
  0
LWPOLYLINE
  5
9C
330
17
100
AcDbEntity
  8
substrate
100
AcDbPolyline
 90
4
 70
1
 43
0.5
 10
9.638671875
 20
-77.109375
 10
19.27734375
 20
-67.470703125
 10
28.916015625
 20
-77.109375
 10
19.27734375
 20
-86.748046875
  0
ENDSEC
  0
SECTION
  2
OBJECTS
  0
DICTIONARY
  5
A
330
0
100
AcDbDictionary
280
0
281
1
  3
ACAD_COLOR
350
B
  3
ACAD_GROUP
350
C
  3
ACAD_LAYOUT
350
D
  3
ACAD_MATERIAL
350
E
  3
ACAD_MLEADERSTYLE
350
F
  3
ACAD_MLINESTYLE
350
10
  3
ACAD_PLOTSETTINGS
350
11
  3
ACAD_PLOTSTYLENAME
350
12
  3
ACAD_SCALELIST
350
14
  3
ACAD_TABLESTYLE
350
15
  3
ACAD_VISUALSTYLE
350
16
  3
EZDXF_META
350
2D
  0
DICTIONARY
  5
B
330
A
100
AcDbDictionary
280
0
281
1
  0
DICTIONARY
  5
C
330
A
100
AcDbDictionary
280
0
281
1
  0
DICTIONARY
  5
D
330
A
100
AcDbDictionary
280
0
281
1
  3
Model
350
1A
  3
Layout1
350
1E
  0
DICTIONARY
  5
E
330
A
100
AcDbDictionary
280
0
281
1
  3
ByBlock
350
1F
  3
ByLayer
350
20
  3
Global
350
21
  0
DICTIONARY
  5
F
330
A
100
AcDbDictionary
280
0
281
1
  3
Standard
350
2C
  0
DICTIONARY
  5
10
330
A
100
AcDbDictionary
280
0
281
1
  3
Standard
350
22
  0
DICTIONARY
  5
11
330
A
100
AcDbDictionary
280
0
281
1
  0
ACDBDICTIONARYWDFLT
  5
12
330
A
100
AcDbDictionary
280
0
281
1
  3
Normal
350
13
100
AcDbDictionaryWithDefault
340
13
  0
ACDBPLACEHOLDER
  5
13
330
12
  0
DICTIONARY
  5
14
330
A
100
AcDbDictionary
280
0
281
1
  0
DICTIONARY
  5
15
330
A
100
AcDbDictionary
280
0
281
1
  0
DICTIONARY
  5
16
330
A
100
AcDbDictionary
280
0
281
1
  0
LAYOUT
  5
1A
330
D
100
AcDbPlotSettings
  1

  2
Adobe PDF
  4
A3
  6

 40
7.5
 41
20.0
 42
7.5
 43
20.0
 44
420.0
 45
297.0
 46
0.0
 47
0.0
 48
0.0
 49
0.0
140
0.0
141
0.0
142
1.0
143
1.0
 70
1024
 72
1
 73
0
 74
5
  7

 75
16
 76
0
 77
2
 78
300
147
1.0
148
0.0
149
0.0
100
AcDbLayout
  1
Model
 70
1
 71
0
 10
0.0
 20
0.0
 11
420.0
 21
297.0
 12
0.0
 22
0.0
 32
0.0
 14
1e+20
 24
1e+20
 34
1e+20
 15
-1e+20
 25
-1e+20
 35
-1e+20
146
0.0
 13
0.0
 23
0.0
 33
0.0
 16
1.0
 26
0.0
 36
0.0
 17
0.0
 27
1.0
 37
0.0
 76
1
330
17
  0
LAYOUT
  5
1E
330
D
100
AcDbPlotSettings
  1

  2
Adobe PDF
  4
A3
  6

 40
7.5
 41
20.0
 42
7.5
 43
20.0
 44
420.0
 45
297.0
 46
0.0
 47
0.0
 48
0.0
 49
0.0
140
0.0
141
0.0
142
1.0
143
1.0
 70
0
 72
1
 73
0
 74
5
  7

 75
16
 76
0
 77
2
 78
300
147
1.0
148
0.0
149
0.0
100
AcDbLayout
  1
Layout1
 70
1
 71
1
 10
0.0
 20
0.0
 11
420.0
 21
297.0
 12
0.0
 22
0.0
 32
0.0
 14
1e+20
 24
1e+20
 34
1e+20
 15
-1e+20
 25
-1e+20
 35
-1e+20
146
0.0
 13
0.0
 23
0.0
 33
0.0
 16
1.0
 26
0.0
 36
0.0
 17
0.0
 27
1.0
 37
0.0
 76
1
330
1B
  0
MATERIAL
  5
1F
102
{ACAD_REACTORS
330
E
102
}
330
E
100
AcDbMaterial
  1
ByBlock
  2

 70
0
 40
1.0
 71
1
 41
1.0
 91
-1023410177
 42
1.0
 72
1
  3

 73
1
 74
1
 75
1
 44
0.5
 73
0
 45
1.0
 46
1.0
 77
1
  4

 78
1
 79
1
170
1
 48
1.0
171
1
  6

172
1
173
1
174
1
140
1.0
141
1.0
175
1
  7

176
1
177
1
178
1
143
1.0
179
1
  8

270
1
271
1
272
1
145
1.0
146
1.0
273
1
  9

274
1
275
1
276
1
 42
1.0
 72
1
  3

 73
1
 74
1
 75
1
 94
63
  0
MATERIAL
  5
20
102
{ACAD_REACTORS
330
E
102
}
330
E
100
AcDbMaterial
  1
ByLayer
  2

 70
0
 40
1.0
 71
1
 41
1.0
 91
-1023410177
 42
1.0
 72
1
  3

 73
1
 74
1
 75
1
 44
0.5
 73
0
 45
1.0
 46
1.0
 77
1
  4

 78
1
 79
1
170
1
 48
1.0
171
1
  6

172
1
173
1
174
1
140
1.0
141
1.0
175
1
  7

176
1
177
1
178
1
143
1.0
179
1
  8

270
1
271
1
272
1
145
1.0
146
1.0
273
1
  9

274
1
275
1
276
1
 42
1.0
 72
1
  3

 73
1
 74
1
 75
1
 94
63
  0
MATERIAL
  5
21
102
{ACAD_REACTORS
330
E
102
}
330
E
100
AcDbMaterial
  1
Global
  2

 70
0
 40
1.0
 71
1
 41
1.0
 91
-1023410177
 42
1.0
 72
1
  3

 73
1
 74
1
 75
1
 44
0.5
 73
0
 45
1.0
 46
1.0
 77
1
  4

 78
1
 79
1
170
1
 48
1.0
171
1
  6

172
1
173
1
174
1
140
1.0
141
1.0
175
1
  7

176
1
177
1
178
1
143
1.0
179
1
  8

270
1
271
1
272
1
145
1.0
146
1.0
273
1
  9

274
1
275
1
276
1
 42
1.0
 72
1
  3

 73
1
 74
1
 75
1
 94
63
  0
MLINESTYLE
  5
22
102
{ACAD_REACTORS
330
10
102
}
330
10
100
AcDbMlineStyle
  2
Standard
 70
0
  3

 62
256
 51
90.0
 52
90.0
 71
2
 49
0.5
 62
256
  6
BYLAYER
 49
-0.5
 62
256
  6
BYLAYER
  0
MLEADERSTYLE
  5
2C
102
{ACAD_REACTORS
330
F
102
}
330
F
100
AcDbMLeaderStyle
179
2
170
2
171
1
172
0
 90
2
 40
0.0
 41
0.0
173
1
 91
-1056964608
 92
-2
290
1
 42
2.0
291
1
 43
8.0
  3
Standard
 44
4.0
300

342
29
174
1
175
1
176
0
178
1
 93
-1056964608
 45
4.0
292
0
297
0
 46
4.0
 94
-1056964608
 47
1.0
 49
1.0
140
1.0
294
1
141
0.0
177
0
142
1.0
295
0
296
0
143
3.75
271
0
272
9
273
9
  0
DICTIONARY
  5
2D
330
A
100
AcDbDictionary
281
1
  3
CREATED_BY_EZDXF
350
2E
  3
WRITTEN_BY_EZDXF
350
9F
  0
DICTIONARYVAR
  5
2E
330
2D
100
DictionaryVariables
280
0
  1
1.1.0 @ 2025-02-04T00:06:47.978240+00:00
  0
DICTIONARYVAR
  5
9F
330
2D
100
DictionaryVariables
280
0
  1
1.1.0 @ 2025-02-04T00:06:47.985367+00:00
  0
ENDSEC
  0
EOF
