  0
SECTION
  2
HEADER
  9
$ACADVER
  1
AC1027
  9
$ACADMAINTVER
 70
105
  9
$DWGCODEPAGE
  3
ANSI_1252
  9
$LASTSAVEDBY
  1
ezdxf
  9
$REQUIREDVERSIONS
160
0
  9
$INSBASE
 10
0.0
 20
0.0
 30
0.0
  9
$EXTMIN
 10
1e+20
 20
1e+20
 30
1e+20
  9
$EXTMAX
 10
-1e+20
 20
-1e+20
 30
-1e+20
  9
$LIMMIN
 10
0.0
 20
0.0
  9
$LIMMAX
 10
420.0
 20
297.0
  9
$ORTHOMODE
 70
0
  9
$REGENMODE
 70
1
  9
$FILLMODE
 70
1
  9
$QTEXTMODE
 70
0
  9
$MIRRTEXT
 70
1
  9
$LTSCALE
 40
1.0
  9
$ATTMODE
 70
1
  9
$TEXTSIZE
 40
2.5
  9
$TRACEWID
 40
1.0
  9
$TEXTSTYLE
  7
Standard
  9
$CLAYER
  8
0
  9
$CELTYPE
  6
ByLayer
  9
$CECOLOR
 62
256
  9
$CELTSCALE
 40
1.0
  9
$DISPSILH
 70
0
  9
$DIMSCALE
 40
1.0
  9
$DIMASZ
 40
2.5
  9
$DIMEXO
 40
0.625
  9
$DIMDLI
 40
3.75
  9
$DIMRND
 40
0.0
  9
$DIMDLE
 40
0.0
  9
$DIMEXE
 40
1.25
  9
$DIMTP
 40
0.0
  9
$DIMTM
 40
0.0
  9
$DIMTXT
 40
2.5
  9
$DIMCEN
 40
2.5
  9
$DIMTSZ
 40
0.0
  9
$DIMTOL
 70
0
  9
$DIMLIM
 70
0
  9
$DIMTIH
 70
0
  9
$DIMTOH
 70
0
  9
$DIMSE1
 70
0
  9
$DIMSE2
 70
0
  9
$DIMTAD
 70
1
  9
$DIMZIN
 70
8
  9
$DIMBLK
  1

  9
$DIMASO
 70
1
  9
$DIMSHO
 70
1
  9
$DIMPOST
  1

  9
$DIMAPOST
  1

  9
$DIMALT
 70
0
  9
$DIMALTD
 70
3
  9
$DIMALTF
 40
0.03937007874
  9
$DIMLFAC
 40
1.0
  9
$DIMTOFL
 70
1
  9
$DIMTVP
 40
0.0
  9
$DIMTIX
 70
0
  9
$DIMSOXD
 70
0
  9
$DIMSAH
 70
0
  9
$DIMBLK1
  1

  9
$DIMBLK2
  1

  9
$DIMSTYLE
  2
ISO-25
  9
$DIMCLRD
 70
0
  9
$DIMCLRE
 70
0
  9
$DIMCLRT
 70
0
  9
$DIMTFAC
 40
1.0
  9
$DIMGAP
 40
0.625
  9
$DIMJUST
 70
0
  9
$DIMSD1
 70
0
  9
$DIMSD2
 70
0
  9
$DIMTOLJ
 70
0
  9
$DIMTZIN
 70
8
  9
$DIMALTZ
 70
0
  9
$DIMALTTZ
 70
0
  9
$DIMUPT
 70
0
  9
$DIMDEC
 70
2
  9
$DIMTDEC
 70
2
  9
$DIMALTU
 70
2
  9
$DIMALTTD
 70
3
  9
$DIMTXSTY
  7
Standard
  9
$DIMAUNIT
 70
0
  9
$DIMADEC
 70
0
  9
$DIMALTRND
 40
0.0
  9
$DIMAZIN
 70
0
  9
$DIMDSEP
 70
44
  9
$DIMATFIT
 70
3
  9
$DIMFRAC
 70
0
  9
$DIMLDRBLK
  1

  9
$DIMLUNIT
 70
2
  9
$DIMLWD
 70
-2
  9
$DIMLWE
 70
-2
  9
$DIMTMOVE
 70
0
  9
$DIMFXL
 40
1.0
  9
$DIMFXLON
 70
0
  9
$DIMJOGANG
 40
0.785398163397
  9
$DIMTFILL
 70
0
  9
$DIMTFILLCLR
 70
0
  9
$DIMARCSYM
 70
0
  9
$DIMLTYPE
  6

  9
$DIMLTEX1
  6

  9
$DIMLTEX2
  6

  9
$DIMTXTDIRECTION
 70
0
  9
$LUNITS
 70
2
  9
$LUPREC
 70
4
  9
$SKETCHINC
 40
1.0
  9
$FILLETRAD
 40
10.0
  9
$AUNITS
 70
0
  9
$AUPREC
 70
2
  9
$MENU
  1
.
  9
$ELEVATION
 40
0.0
  9
$PELEVATION
 40
0.0
  9
$THICKNESS
 40
0.0
  9
$LIMCHECK
 70
0
  9
$CHAMFERA
 40
0.0
  9
$CHAMFERB
 40
0.0
  9
$CHAMFERC
 40
0.0
  9
$CHAMFERD
 40
0.0
  9
$SKPOLY
 70
0
  9
$TDCREATE
 40
2460725.3934143516
  9
$TDUCREATE
 40
2458532.153996898
  9
$TDUPDATE
 40
2460725.3934143516
  9
$TDUUPDATE
 40
2458532.1544311
  9
$TDINDWG
 40
0.0
  9
$TDUSRTIMER
 40
0.0
  9
$USRTIMER
 70
1
  9
$ANGBASE
 50
0.0
  9
$ANGDIR
 70
0
  9
$PDMODE
 70
0
  9
$PDSIZE
 40
0.0
  9
$PLINEWID
 40
0.0
  9
$SPLFRAME
 70
0
  9
$SPLINETYPE
 70
6
  9
$SPLINESEGS
 70
8
  9
$HANDSEED
  5
47
  9
$SURFTAB1
 70
6
  9
$SURFTAB2
 70
6
  9
$SURFTYPE
 70
6
  9
$SURFU
 70
6
  9
$SURFV
 70
6
  9
$UCSBASE
  2

  9
$UCSNAME
  2

  9
$UCSORG
 10
0.0
 20
0.0
 30
0.0
  9
$UCSXDIR
 10
1.0
 20
0.0
 30
0.0
  9
$UCSYDIR
 10
0.0
 20
1.0
 30
0.0
  9
$UCSORTHOREF
  2

  9
$UCSORTHOVIEW
 70
0
  9
$UCSORGTOP
 10
0.0
 20
0.0
 30
0.0
  9
$UCSORGBOTTOM
 10
0.0
 20
0.0
 30
0.0
  9
$UCSORGLEFT
 10
0.0
 20
0.0
 30
0.0
  9
$UCSORGRIGHT
 10
0.0
 20
0.0
 30
0.0
  9
$UCSORGFRONT
 10
0.0
 20
0.0
 30
0.0
  9
$UCSORGBACK
 10
0.0
 20
0.0
 30
0.0
  9
$PUCSBASE
  2

  9
$PUCSNAME
  2

  9
$PUCSORG
 10
0.0
 20
0.0
 30
0.0
  9
$PUCSXDIR
 10
1.0
 20
0.0
 30
0.0
  9
$PUCSYDIR
 10
0.0
 20
1.0
 30
0.0
  9
$PUCSORTHOREF
  2

  9
$PUCSORTHOVIEW
 70
0
  9
$PUCSORGTOP
 10
0.0
 20
0.0
 30
0.0
  9
$PUCSORGBOTTOM
 10
0.0
 20
0.0
 30
0.0
  9
$PUCSORGLEFT
 10
0.0
 20
0.0
 30
0.0
  9
$PUCSORGRIGHT
 10
0.0
 20
0.0
 30
0.0
  9
$PUCSORGFRONT
 10
0.0
 20
0.0
 30
0.0
  9
$PUCSORGBACK
 10
0.0
 20
0.0
 30
0.0
  9
$USERI1
 70
0
  9
$USERI2
 70
0
  9
$USERI3
 70
0
  9
$USERI4
 70
0
  9
$USERI5
 70
0
  9
$USERR1
 40
0.0
  9
$USERR2
 40
0.0
  9
$USERR3
 40
0.0
  9
$USERR4
 40
0.0
  9
$USERR5
 40
0.0
  9
$WORLDVIEW
 70
1
  9
$SHADEDGE
 70
3
  9
$SHADEDIF
 70
70
  9
$TILEMODE
 70
1
  9
$MAXACTVP
 70
64
  9
$PINSBASE
 10
0.0
 20
0.0
 30
0.0
  9
$PLIMCHECK
 70
0
  9
$PEXTMIN
 10
1e+20
 20
1e+20
 30
1e+20
  9
$PEXTMAX
 10
-1e+20
 20
-1e+20
 30
-1e+20
  9
$PLIMMIN
 10
0.0
 20
0.0
  9
$PLIMMAX
 10
420.0
 20
297.0
  9
$UNITMODE
 70
0
  9
$VISRETAIN
 70
1
  9
$PLINEGEN
 70
0
  9
$PSLTSCALE
 70
1
  9
$TREEDEPTH
 70
3020
  9
$CMLSTYLE
  2
Standard
  9
$CMLJUST
 70
0
  9
$CMLSCALE
 40
20.0
  9
$PROXYGRAPHICS
 70
1
  9
$MEASUREMENT
 70
1
  9
$CELWEIGHT
370
-1
  9
$ENDCAPS
280
0
  9
$JOINSTYLE
280
0
  9
$LWDISPLAY
290
0
  9
$INSUNITS
 70
6
  9
$HYPERLINKBASE
  1

  9
$STYLESHEET
  1

  9
$XEDIT
290
1
  9
$CEPSNTYPE
380
0
  9
$PSTYLEMODE
290
1
  9
$FINGERPRINTGUID
  2
{EF991718-E2DA-402C-864F-51A0E453987D}
  9
$VERSIONGUID
  2
{D334569B-96BF-4B1D-9549-3AAA178C2667}
  9
$EXTNAMES
290
1
  9
$PSVPSCALE
 40
0.0
  9
$OLESTARTUP
290
0
  9
$SORTENTS
280
127
  9
$INDEXCTL
280
0
  9
$HIDETEXT
280
1
  9
$XCLIPFRAME
280
0
  9
$HALOGAP
280
0
  9
$OBSCOLOR
 70
257
  9
$OBSLTYPE
280
0
  9
$INTERSECTIONDISPLAY
280
0
  9
$INTERSECTIONCOLOR
 70
257
  9
$DIMASSOC
280
2
  9
$PROJECTNAME
  1

  9
$CAMERADISPLAY
290
0
  9
$LENSLENGTH
 40
50.0
  9
$CAMERAHEIGHT
 40
0.0
  9
$STEPSPERSEC
 40
24.0
  9
$STEPSIZE
 40
100.0
  9
$3DDWFPREC
 40
2.0
  9
$PSOLWIDTH
 40
0.005
  9
$PSOLHEIGHT
 40
0.08
  9
$LOFTANG1
 40
1.570796326795
  9
$LOFTANG2
 40
1.570796326795
  9
$LOFTMAG1
 40
0.0
  9
$LOFTMAG2
 40
0.0
  9
$LOFTPARAM
 70
7
  9
$LOFTNORMALS
280
1
  9
$LATITUDE
 40
37.795
  9
$LONGITUDE
 40
-122.394
  9
$NORTHDIRECTION
 40
0.0
  9
$TIMEZONE
 70
-8000
  9
$LIGHTGLYPHDISPLAY
280
1
  9
$TILEMODELIGHTSYNCH
280
1
  9
$CMATERIAL
347
20
  9
$SOLIDHIST
280
0
  9
$SHOWHIST
280
1
  9
$DWFFRAME
280
2
  9
$DGNFRAME
280
2
  9
$REALWORLDSCALE
290
1
  9
$INTERFERECOLOR
 62
256
  9
$CSHADOW
280
0
  9
$SHADOWPLANELOCATION
 40
0.0
  0
ENDSEC
  0
SECTION
  2
CLASSES
  0
CLASS
  1
ACDBDICTIONARYWDFLT
  2
AcDbDictionaryWithDefault
  3
ObjectDBX Classes
 90
0
 91
0
280
0
281
0
  0
CLASS
  1
SUN
  2
AcDbSun
  3
SCENEOE
 90
1153
 91
0
280
0
281
0
  0
CLASS
  1
VISUALSTYLE
  2
AcDbVisualStyle
  3
ObjectDBX Classes
 90
4095
 91
0
280
0
281
0
  0
CLASS
  1
MATERIAL
  2
AcDbMaterial
  3
ObjectDBX Classes
 90
1153
 91
0
280
0
281
0
  0
CLASS
  1
SCALE
  2
AcDbScale
  3
ObjectDBX Classes
 90
1153
 91
0
280
0
281
0
  0
CLASS
  1
TABLESTYLE
  2
AcDbTableStyle
  3
ObjectDBX Classes
 90
4095
 91
0
280
0
281
0
  0
CLASS
  1
MLEADERSTYLE
  2
AcDbMLeaderStyle
  3
ACDB_MLEADERSTYLE_CLASS
 90
4095
 91
0
280
0
281
0
  0
CLASS
  1
DICTIONARYVAR
  2
AcDbDictionaryVar
  3
ObjectDBX Classes
 90
0
 91
0
280
0
281
0
  0
CLASS
  1
CELLSTYLEMAP
  2
AcDbCellStyleMap
  3
ObjectDBX Classes
 90
1152
 91
0
280
0
281
0
  0
CLASS
  1
MENTALRAYRENDERSETTINGS
  2
AcDbMentalRayRenderSettings
  3
SCENEOE
 90
1024
 91
0
280
0
281
0
  0
CLASS
  1
ACDBDETAILVIEWSTYLE
  2
AcDbDetailViewStyle
  3
ObjectDBX Classes
 90
1025
 91
0
280
0
281
0
  0
CLASS
  1
ACDBSECTIONVIEWSTYLE
  2
AcDbSectionViewStyle
  3
ObjectDBX Classes
 90
1025
 91
0
280
0
281
0
  0
CLASS
  1
RASTERVARIABLES
  2
AcDbRasterVariables
  3
ISM
 90
0
 91
0
280
0
281
0
  0
CLASS
  1
ACDBPLACEHOLDER
  2
AcDbPlaceHolder
  3
ObjectDBX Classes
 90
0
 91
0
280
0
281
0
  0
CLASS
  1
LAYOUT
  2
AcDbLayout
  3
ObjectDBX Classes
 90
0
 91
0
280
0
281
0
  0
ENDSEC
  0
SECTION
  2
TABLES
  0
TABLE
  2
VPORT
  5
8
330
0
100
AcDbSymbolTable
 70
1
  0
VPORT
  5
23
330
8
100
AcDbSymbolTableRecord
100
AcDbViewportTableRecord
  2
*Active
 70
0
 10
0.0
 20
0.0
 11
1.0
 21
1.0
 12
0.0
 22
0.0
 13
0.0
 23
0.0
 14
0.5
 24
0.5
 15
0.5
 25
0.5
 16
0.0
 26
0.0
 36
1.0
 17
0.0
 27
0.0
 37
0.0
 40
1000.0
 41
1.34
 42
50.0
 43
0.0
 44
0.0
 50
0.0
 51
0.0
 71
0
 72
1000
 73
1
 74
3
 75
0
 76
0
 77
0
 78
0
281
0
 65
0
146
0.0
  0
ENDTAB
  0
TABLE
  2
LTYPE
  5
2
330
0
100
AcDbSymbolTable
 70
3
  0
LTYPE
  5
24
330
2
100
AcDbSymbolTableRecord
100
AcDbLinetypeTableRecord
  2
ByBlock
 70
0
  3

 72
65
 73
0
 40
0.0
  0
LTYPE
  5
25
330
2
100
AcDbSymbolTableRecord
100
AcDbLinetypeTableRecord
  2
ByLayer
 70
0
  3

 72
65
 73
0
 40
0.0
  0
LTYPE
  5
26
330
2
100
AcDbSymbolTableRecord
100
AcDbLinetypeTableRecord
  2
Continuous
 70
0
  3

 72
65
 73
0
 40
0.0
  0
ENDTAB
  0
TABLE
  2
LAYER
  5
1
330
0
100
AcDbSymbolTable
 70
5
  0
LAYER
  5
27
330
1
100
AcDbSymbolTableRecord
100
AcDbLayerTableRecord
  2
0
 70
0
 62
7
  6
Continuous
370
-3
390
13
347
21
  0
LAYER
  5
28
330
1
100
AcDbSymbolTableRecord
100
AcDbLayerTableRecord
  2
Defpoints
 70
0
 62
7
  6
Continuous
290
0
370
-3
390
13
347
21
  0
LAYER
  5
2F
330
1
100
AcDbSymbolTableRecord
100
AcDbLayerTableRecord
  2
conductor
 70
0
 62
1
  6
Continuous
370
-3
390
13
347
21
  0
LAYER
  5
30
330
1
100
AcDbSymbolTableRecord
100
AcDbLayerTableRecord
  2
dielectric
 70
0
 62
8
  6
Continuous
370
-3
390
13
347
21
  0
LAYER
  5
31
330
1
100
AcDbSymbolTableRecord
100
AcDbLayerTableRecord
  2
substrate
 70
0
 62
5
  6
Continuous
370
-3
390
13
347
21
  0
ENDTAB
  0
TABLE
  2
STYLE
  5
5
330
0
100
AcDbSymbolTable
 70
1
  0
STYLE
  5
29
330
5
100
AcDbSymbolTableRecord
100
AcDbTextStyleTableRecord
  2
Standard
 70
0
 40
0.0
 41
1.0
 50
0.0
 71
0
 42
2.5
  3
txt
  4

  0
ENDTAB
  0
TABLE
  2
VIEW
  5
7
330
0
100
AcDbSymbolTable
 70
0
  0
ENDTAB
  0
TABLE
  2
UCS
  5
6
330
0
100
AcDbSymbolTable
 70
0
  0
ENDTAB
  0
TABLE
  2
APPID
  5
3
330
0
100
AcDbSymbolTable
 70
3
  0
APPID
  5
2A
330
3
100
AcDbSymbolTableRecord
100
AcDbRegAppTableRecord
  2
ACAD
 70
0
  0
APPID
  5
44
330
3
100
AcDbSymbolTableRecord
100
AcDbRegAppTableRecord
  2
HATCHBACKGROUNDCOLOR
 70
0
  0
APPID
  5
45
330
3
100
AcDbSymbolTableRecord
100
AcDbRegAppTableRecord
  2
EZDXF
 70
0
  0
ENDTAB
  0
TABLE
  2
DIMSTYLE
  5
4
330
0
100
AcDbSymbolTable
 70
1
100
AcDbDimStyleTable
  0
DIMSTYLE
105
2B
330
4
100
AcDbSymbolTableRecord
100
AcDbDimStyleTableRecord
  2
Standard
 70
0
 40
1.0
 41
2.5
 42
0.625
 43
3.75
 44
1.25
 45
0.0
 46
0.0
 47
0.0
 48
0.0
 49
2.5
140
2.5
141
2.5
142
0.0
143
0.03937007874
144
1.0
145
0.0
146
1.0
147
0.625
148
0.0
 69
0
 70
0
 71
0
 72
0
 73
0
 74
0
 75
0
 76
0
 77
1
 78
8
 79
3
170
0
171
3
172
1
173
0
174
0
175
0
176
0
177
0
178
0
179
2
271
2
272
2
273
2
274
3
275
0
276
0
277
2
278
44
279
0
280
0
281
0
282
0
283
0
284
8
285
0
286
0
288
0
289
3
290
0
371
-2
372
-2
  0
ENDTAB
  0
TABLE
  2
BLOCK_RECORD
  5
9
330
0
100
AcDbSymbolTable
 70
2
  0
BLOCK_RECORD
  5
17
330
9
100
AcDbSymbolTableRecord
100
AcDbBlockTableRecord
  2
*Model_Space
340
1A
 70
0
280
1
281
0
  0
BLOCK_RECORD
  5
1B
330
9
100
AcDbSymbolTableRecord
100
AcDbBlockTableRecord
  2
*Paper_Space
340
1E
 70
0
280
1
281
0
  0
ENDTAB
  0
ENDSEC
  0
SECTION
  2
BLOCKS
  0
BLOCK
  5
18
330
17
100
AcDbEntity
  8
0
100
AcDbBlockBegin
  2
*Model_Space
 70
0
 10
0.0
 20
0.0
 30
0.0
  3
*Model_Space
  1

  0
ENDBLK
  5
19
330
17
100
AcDbEntity
  8
0
100
AcDbBlockEnd
  0
BLOCK
  5
1C
330
1B
100
AcDbEntity
  8
0
100
AcDbBlockBegin
  2
*Paper_Space
 70
0
 10
0.0
 20
0.0
 30
0.0
  3
*Paper_Space
  1

  0
ENDBLK
  5
1D
330
1B
100
AcDbEntity
  8
0
100
AcDbBlockEnd
  0
ENDSEC
  0
SECTION
  2
ENTITIES
  0
LWPOLYLINE
  5
32
330
17
100
AcDbEntity
  8
conductor
100
AcDbPolyline
 90
1
 70
1
 43
0.5
 10
443.583984375
 20
-3085.373046875
  0
LWPOLYLINE
  5
33
330
17
100
AcDbEntity
  8
conductor
100
AcDbPolyline
 90
208
 70
1
 43
0.5
 10
2503.78515625
 20
-2158.775390625
 10
2493.927734375
 20
-2168.6328125
 10
2484.0703125
 20
-2178.490234375
 10
2474.212890625
 20
-2178.490234375
 10
2464.35546875
 20
-2178.490234375
 10
2454.498046875
 20
-2178.490234375
 10
2444.640625
 20
-2178.490234375
 10
2434.783203125
 20
-2178.490234375
 10
2424.92578125
 20
-2178.490234375
 10
2415.068359375
 20
-2178.490234375
 10
2405.2109375
 20
-2188.34765625
 10
2395.353515625
 20
-2198.205078125
 10
2385.49609375
 20
-2198.205078125
 10
2375.638671875
 20
-2208.0625
 10
2365.78125
 20
-2217.919921875
 10
2355.923828125
 20
-2217.919921875
 10
2346.06640625
 20
-2217.919921875
 10
2336.208984375
 20
-2227.77734375
 10
2336.208984375
 20
-2237.634765625
 10
2326.3515625
 20
-2247.4921875
 10
2316.494140625
 20
-2257.349609375
 10
2306.63671875
 20
-2257.349609375
 10
2296.779296875
 20
-2267.20703125
 10
2286.921875
 20
-2277.064453125
 10
2277.064453125
 20
-2286.921875
 10
2267.20703125
 20
-2286.921875
 10
2257.349609375
 20
-2296.779296875
 10
2247.4921875
 20
-2306.63671875
 10
2247.4921875
 20
-2316.494140625
 10
2237.634765625
 20
-2326.3515625
 10
2227.77734375
 20
-2336.208984375
 10
2217.919921875
 20
-2346.06640625
 10
2217.919921875
 20
-2355.923828125
 10
2208.0625
 20
-2365.78125
 10
2208.0625
 20
-2375.638671875
 10
2208.0625
 20
-2385.49609375
 10
2198.205078125
 20
-2395.353515625
 10
2198.205078125
 20
-2405.2109375
 10
2198.205078125
 20
-2415.068359375
 10
2188.34765625
 20
-2424.92578125
 10
2188.34765625
 20
-2434.783203125
 10
2188.34765625
 20
-2444.640625
 10
2188.34765625
 20
-2454.498046875
 10
2178.490234375
 20
-2464.35546875
 10
2178.490234375
 20
-2474.212890625
 10
2178.490234375
 20
-2484.0703125
 10
2178.490234375
 20
-2493.927734375
 10
2168.6328125
 20
-2503.78515625
 10
2168.6328125
 20
-2513.642578125
 10
2168.6328125
 20
-2523.5
 10
2168.6328125
 20
-2533.357421875
 10
2168.6328125
 20
-2543.21484375
 10
2178.490234375
 20
-2553.072265625
 10
2178.490234375
 20
-2562.9296875
 10
2178.490234375
 20
-2572.787109375
 10
2178.490234375
 20
-2582.64453125
 10
2178.490234375
 20
-2592.501953125
 10
2188.34765625
 20
-2602.359375
 10
2188.34765625
 20
-2612.216796875
 10
2188.34765625
 20
-2622.07421875
 10
2198.205078125
 20
-2631.931640625
 10
2198.205078125
 20
-2641.7890625
 10
2198.205078125
 20
-2651.646484375
 10
2198.205078125
 20
-2661.50390625
 10
2208.0625
 20
-2671.361328125
 10
2208.0625
 20
-2681.21875
 10
2208.0625
 20
-2691.076171875
 10
2217.919921875
 20
-2700.93359375
 10
2227.77734375
 20
-2710.791015625
 10
2237.634765625
 20
-2720.6484375
 10
2237.634765625
 20
-2730.505859375
 10
2247.4921875
 20
-2740.36328125
 10
2247.4921875
 20
-2750.220703125
 10
2257.349609375
 20
-2760.078125
 10
2257.349609375
 20
-2769.935546875
 10
2267.20703125
 20
-2769.935546875
 10
2277.064453125
 20
-2779.79296875
 10
2286.921875
 20
-2789.650390625
 10
2296.779296875
 20
-2799.5078125
 10
2306.63671875
 20
-2809.365234375
 10
2316.494140625
 20
-2809.365234375
 10
2326.3515625
 20
-2819.22265625
 10
2336.208984375
 20
-2819.22265625
 10
2346.06640625
 20
-2829.080078125
 10
2355.923828125
 20
-2829.080078125
 10
2365.78125
 20
-2829.080078125
 10
2375.638671875
 20
-2838.9375
 10
2385.49609375
 20
-2838.9375
 10
2395.353515625
 20
-2838.9375
 10
2405.2109375
 20
-2838.9375
 10
2415.068359375
 20
-2848.794921875
 10
2424.92578125
 20
-2858.65234375
 10
2434.783203125
 20
-2858.65234375
 10
2444.640625
 20
-2858.65234375
 10
2454.498046875
 20
-2858.65234375
 10
2464.35546875
 20
-2858.65234375
 10
2474.212890625
 20
-2858.65234375
 10
2484.0703125
 20
-2858.65234375
 10
2493.927734375
 20
-2868.509765625
 10
2503.78515625
 20
-2868.509765625
 10
2513.642578125
 20
-2868.509765625
 10
2523.5
 20
-2878.3671875
 10
2533.357421875
 20
-2878.3671875
 10
2543.21484375
 20
-2868.509765625
 10
2553.072265625
 20
-2868.509765625
 10
2562.9296875
 20
-2858.65234375
 10
2572.787109375
 20
-2868.509765625
 10
2582.64453125
 20
-2858.65234375
 10
2592.501953125
 20
-2858.65234375
 10
2602.359375
 20
-2848.794921875
 10
2612.216796875
 20
-2848.794921875
 10
2622.07421875
 20
-2848.794921875
 10
2631.931640625
 20
-2838.9375
 10
2641.7890625
 20
-2838.9375
 10
2651.646484375
 20
-2829.080078125
 10
2661.50390625
 20
-2829.080078125
 10
2671.361328125
 20
-2829.080078125
 10
2671.361328125
 20
-2819.22265625
 10
2681.21875
 20
-2809.365234375
 10
2691.076171875
 20
-2809.365234375
 10
2700.93359375
 20
-2809.365234375
 10
2710.791015625
 20
-2799.5078125
 10
2720.6484375
 20
-2799.5078125
 10
2730.505859375
 20
-2789.650390625
 10
2740.36328125
 20
-2789.650390625
 10
2750.220703125
 20
-2779.79296875
 10
2760.078125
 20
-2769.935546875
 10
2769.935546875
 20
-2760.078125
 10
2779.79296875
 20
-2750.220703125
 10
2789.650390625
 20
-2750.220703125
 10
2789.650390625
 20
-2740.36328125
 10
2799.5078125
 20
-2730.505859375
 10
2809.365234375
 20
-2720.6484375
 10
2819.22265625
 20
-2720.6484375
 10
2829.080078125
 20
-2710.791015625
 10
2829.080078125
 20
-2700.93359375
 10
2838.9375
 20
-2691.076171875
 10
2838.9375
 20
-2681.21875
 10
2838.9375
 20
-2671.361328125
 10
2838.9375
 20
-2661.50390625
 10
2848.794921875
 20
-2651.646484375
 10
2848.794921875
 20
-2641.7890625
 10
2848.794921875
 20
-2631.931640625
 10
2858.65234375
 20
-2622.07421875
 10
2858.65234375
 20
-2612.216796875
 10
2858.65234375
 20
-2602.359375
 10
2868.509765625
 20
-2592.501953125
 10
2868.509765625
 20
-2582.64453125
 10
2868.509765625
 20
-2572.787109375
 10
2868.509765625
 20
-2562.9296875
 10
2878.3671875
 20
-2553.072265625
 10
2868.509765625
 20
-2543.21484375
 10
2868.509765625
 20
-2533.357421875
 10
2878.3671875
 20
-2523.5
 10
2878.3671875
 20
-2513.642578125
 10
2878.3671875
 20
-2503.78515625
 10
2868.509765625
 20
-2493.927734375
 10
2868.509765625
 20
-2484.0703125
 10
2868.509765625
 20
-2474.212890625
 10
2868.509765625
 20
-2464.35546875
 10
2858.65234375
 20
-2454.498046875
 10
2858.65234375
 20
-2444.640625
 10
2858.65234375
 20
-2434.783203125
 10
2858.65234375
 20
-2424.92578125
 10
2848.794921875
 20
-2415.068359375
 10
2848.794921875
 20
-2405.2109375
 10
2838.9375
 20
-2395.353515625
 10
2838.9375
 20
-2385.49609375
 10
2838.9375
 20
-2375.638671875
 10
2838.9375
 20
-2365.78125
 10
2838.9375
 20
-2355.923828125
 10
2829.080078125
 20
-2346.06640625
 10
2829.080078125
 20
-2336.208984375
 10
2819.22265625
 20
-2326.3515625
 10
2819.22265625
 20
-2316.494140625
 10
2809.365234375
 20
-2306.63671875
 10
2809.365234375
 20
-2296.779296875
 10
2799.5078125
 20
-2296.779296875
 10
2789.650390625
 20
-2286.921875
 10
2789.650390625
 20
-2277.064453125
 10
2779.79296875
 20
-2267.20703125
 10
2769.935546875
 20
-2257.349609375
 10
2760.078125
 20
-2247.4921875
 10
2750.220703125
 20
-2237.634765625
 10
2740.36328125
 20
-2237.634765625
 10
2730.505859375
 20
-2227.77734375
 10
2720.6484375
 20
-2227.77734375
 10
2710.791015625
 20
-2217.919921875
 10
2700.93359375
 20
-2217.919921875
 10
2691.076171875
 20
-2208.0625
 10
2681.21875
 20
-2198.205078125
 10
2671.361328125
 20
-2198.205078125
 10
2661.50390625
 20
-2188.34765625
 10
2651.646484375
 20
-2188.34765625
 10
2641.7890625
 20
-2188.34765625
 10
2631.931640625
 20
-2178.490234375
 10
2622.07421875
 20
-2178.490234375
 10
2612.216796875
 20
-2178.490234375
 10
2602.359375
 20
-2168.6328125
 10
2592.501953125
 20
-2168.6328125
 10
2582.64453125
 20
-2168.6328125
 10
2572.787109375
 20
-2168.6328125
 10
2562.9296875
 20
-2178.490234375
 10
2553.072265625
 20
-2168.6328125
 10
2543.21484375
 20
-2168.6328125
 10
2533.357421875
 20
-2168.6328125
 10
2523.5
 20
-2158.775390625
 10
2513.642578125
 20
-2158.775390625
  0
LWPOLYLINE
  5
34
330
17
100
AcDbEntity
  8
conductor
100
AcDbPolyline
 90
25
 70
1
 43
0.5
 10
2306.63671875
 20
-2562.9296875
 10
2316.494140625
 20
-2553.072265625
 10
2326.3515625
 20
-2562.9296875
 10
2336.208984375
 20
-2562.9296875
 10
2346.06640625
 20
-2572.787109375
 10
2355.923828125
 20
-2572.787109375
 10
2365.78125
 20
-2562.9296875
 10
2375.638671875
 20
-2572.787109375
 10
2385.49609375
 20
-2582.64453125
 10
2385.49609375
 20
-2592.501953125
 10
2385.49609375
 20
-2602.359375
 10
2385.49609375
 20
-2612.216796875
 10
2375.638671875
 20
-2622.07421875
 10
2375.638671875
 20
-2631.931640625
 10
2365.78125
 20
-2641.7890625
 10
2355.923828125
 20
-2631.931640625
 10
2346.06640625
 20
-2641.7890625
 10
2336.208984375
 20
-2631.931640625
 10
2326.3515625
 20
-2622.07421875
 10
2316.494140625
 20
-2622.07421875
 10
2306.63671875
 20
-2612.216796875
 10
2306.63671875
 20
-2602.359375
 10
2306.63671875
 20
-2592.501953125
 10
2296.779296875
 20
-2582.64453125
 10
2296.779296875
 20
-2572.787109375
  0
LWPOLYLINE
  5
35
330
17
100
AcDbEntity
  8
conductor
100
AcDbPolyline
 90
4
 70
1
 43
0.5
 10
2296.779296875
 20
-2553.072265625
 10
2306.63671875
 20
-2543.21484375
 10
2316.494140625
 20
-2553.072265625
 10
2306.63671875
 20
-2562.9296875
  0
LWPOLYLINE
  5
36
330
17
100
AcDbEntity
  8
substrate
100
AcDbPolyline
 90
2044
 70
1
 43
0.5
 10
0.0
 20
-0.0
 10
0.0
 20
-9.857421875
 10
0.0
 20
-19.71484375
 10
0.0
 20
-29.572265625
 10
0.0
 20
-39.4296875
 10
0.0
 20
-49.287109375
 10
0.0
 20
-59.14453125
 10
0.0
 20
-69.001953125
 10
0.0
 20
-78.859375
 10
0.0
 20
-88.716796875
 10
0.0
 20
-98.57421875
 10
0.0
 20
-108.431640625
 10
0.0
 20
-118.2890625
 10
0.0
 20
-128.146484375
 10
0.0
 20
-138.00390625
 10
0.0
 20
-147.861328125
 10
0.0
 20
-157.71875
 10
0.0
 20
-167.576171875
 10
0.0
 20
-177.43359375
 10
0.0
 20
-187.291015625
 10
0.0
 20
-197.1484375
 10
0.0
 20
-207.005859375
 10
0.0
 20
-216.86328125
 10
0.0
 20
-226.720703125
 10
0.0
 20
-236.578125
 10
0.0
 20
-246.435546875
 10
0.0
 20
-256.29296875
 10
0.0
 20
-266.150390625
 10
0.0
 20
-276.0078125
 10
0.0
 20
-285.865234375
 10
0.0
 20
-295.72265625
 10
0.0
 20
-305.580078125
 10
0.0
 20
-315.4375
 10
0.0
 20
-325.294921875
 10
0.0
 20
-335.15234375
 10
0.0
 20
-345.009765625
 10
0.0
 20
-354.8671875
 10
0.0
 20
-364.724609375
 10
0.0
 20
-374.58203125
 10
0.0
 20
-384.439453125
 10
0.0
 20
-394.296875
 10
0.0
 20
-404.154296875
 10
0.0
 20
-414.01171875
 10
0.0
 20
-423.869140625
 10
0.0
 20
-433.7265625
 10
0.0
 20
-443.583984375
 10
0.0
 20
-453.44140625
 10
0.0
 20
-463.298828125
 10
0.0
 20
-473.15625
 10
0.0
 20
-483.013671875
 10
0.0
 20
-492.87109375
 10
0.0
 20
-502.728515625
 10
0.0
 20
-512.5859375
 10
0.0
 20
-522.443359375
 10
0.0
 20
-532.30078125
 10
0.0
 20
-542.158203125
 10
0.0
 20
-552.015625
 10
0.0
 20
-561.873046875
 10
0.0
 20
-571.73046875
 10
0.0
 20
-581.587890625
 10
0.0
 20
-591.4453125
 10
0.0
 20
-601.302734375
 10
0.0
 20
-611.16015625
 10
0.0
 20
-621.017578125
 10
0.0
 20
-630.875
 10
0.0
 20
-640.732421875
 10
0.0
 20
-650.58984375
 10
0.0
 20
-660.447265625
 10
0.0
 20
-670.3046875
 10
0.0
 20
-680.162109375
 10
0.0
 20
-690.01953125
 10
0.0
 20
-699.876953125
 10
0.0
 20
-709.734375
 10
0.0
 20
-719.591796875
 10
0.0
 20
-729.44921875
 10
0.0
 20
-739.306640625
 10
0.0
 20
-749.1640625
 10
0.0
 20
-759.021484375
 10
0.0
 20
-768.87890625
 10
0.0
 20
-778.736328125
 10
0.0
 20
-788.59375
 10
0.0
 20
-798.451171875
 10
0.0
 20
-808.30859375
 10
0.0
 20
-818.166015625
 10
0.0
 20
-828.0234375
 10
0.0
 20
-837.880859375
 10
0.0
 20
-847.73828125
 10
0.0
 20
-857.595703125
 10
0.0
 20
-867.453125
 10
0.0
 20
-877.310546875
 10
0.0
 20
-887.16796875
 10
0.0
 20
-897.025390625
 10
0.0
 20
-906.8828125
 10
0.0
 20
-916.740234375
 10
0.0
 20
-926.59765625
 10
0.0
 20
-936.455078125
 10
0.0
 20
-946.3125
 10
0.0
 20
-956.169921875
 10
0.0
 20
-966.02734375
 10
0.0
 20
-975.884765625
 10
0.0
 20
-985.7421875
 10
0.0
 20
-995.599609375
 10
0.0
 20
-1005.45703125
 10
0.0
 20
-1015.314453125
 10
0.0
 20
-1025.171875
 10
0.0
 20
-1035.029296875
 10
0.0
 20
-1044.88671875
 10
0.0
 20
-1054.744140625
 10
0.0
 20
-1064.6015625
 10
0.0
 20
-1074.458984375
 10
0.0
 20
-1084.31640625
 10
0.0
 20
-1094.173828125
 10
0.0
 20
-1104.03125
 10
0.0
 20
-1113.888671875
 10
0.0
 20
-1123.74609375
 10
0.0
 20
-1133.603515625
 10
0.0
 20
-1143.4609375
 10
0.0
 20
-1153.318359375
 10
0.0
 20
-1163.17578125
 10
0.0
 20
-1173.033203125
 10
0.0
 20
-1182.890625
 10
0.0
 20
-1192.748046875
 10
0.0
 20
-1202.60546875
 10
0.0
 20
-1212.462890625
 10
0.0
 20
-1222.3203125
 10
0.0
 20
-1232.177734375
 10
0.0
 20
-1242.03515625
 10
0.0
 20
-1251.892578125
 10
0.0
 20
-1261.75
 10
0.0
 20
-1271.607421875
 10
0.0
 20
-1281.46484375
 10
0.0
 20
-1291.322265625
 10
0.0
 20
-1301.1796875
 10
0.0
 20
-1311.037109375
 10
0.0
 20
-1320.89453125
 10
0.0
 20
-1330.751953125
 10
0.0
 20
-1340.609375
 10
0.0
 20
-1350.466796875
 10
0.0
 20
-1360.32421875
 10
0.0
 20
-1370.181640625
 10
0.0
 20
-1380.0390625
 10
0.0
 20
-1389.896484375
 10
0.0
 20
-1399.75390625
 10
0.0
 20
-1409.611328125
 10
0.0
 20
-1419.46875
 10
0.0
 20
-1429.326171875
 10
0.0
 20
-1439.18359375
 10
0.0
 20
-1449.041015625
 10
0.0
 20
-1458.8984375
 10
0.0
 20
-1468.755859375
 10
0.0
 20
-1478.61328125
 10
0.0
 20
-1488.470703125
 10
0.0
 20
-1498.328125
 10
0.0
 20
-1508.185546875
 10
0.0
 20
-1518.04296875
 10
0.0
 20
-1527.900390625
 10
0.0
 20
-1537.7578125
 10
0.0
 20
-1547.615234375
 10
0.0
 20
-1557.47265625
 10
0.0
 20
-1567.330078125
 10
0.0
 20
-1577.1875
 10
0.0
 20
-1587.044921875
 10
0.0
 20
-1596.90234375
 10
0.0
 20
-1606.759765625
 10
0.0
 20
-1616.6171875
 10
0.0
 20
-1626.474609375
 10
0.0
 20
-1636.33203125
 10
0.0
 20
-1646.189453125
 10
0.0
 20
-1656.046875
 10
0.0
 20
-1665.904296875
 10
0.0
 20
-1675.76171875
 10
0.0
 20
-1685.619140625
 10
0.0
 20
-1695.4765625
 10
0.0
 20
-1705.333984375
 10
0.0
 20
-1715.19140625
 10
0.0
 20
-1725.048828125
 10
0.0
 20
-1734.90625
 10
0.0
 20
-1744.763671875
 10
0.0
 20
-1754.62109375
 10
0.0
 20
-1764.478515625
 10
0.0
 20
-1774.3359375
 10
0.0
 20
-1784.193359375
 10
0.0
 20
-1794.05078125
 10
0.0
 20
-1803.908203125
 10
0.0
 20
-1813.765625
 10
0.0
 20
-1823.623046875
 10
0.0
 20
-1833.48046875
 10
0.0
 20
-1843.337890625
 10
0.0
 20
-1853.1953125
 10
0.0
 20
-1863.052734375
 10
0.0
 20
-1872.91015625
 10
0.0
 20
-1882.767578125
 10
0.0
 20
-1892.625
 10
0.0
 20
-1902.482421875
 10
0.0
 20
-1912.33984375
 10
0.0
 20
-1922.197265625
 10
0.0
 20
-1932.0546875
 10
0.0
 20
-1941.912109375
 10
0.0
 20
-1951.76953125
 10
0.0
 20
-1961.626953125
 10
0.0
 20
-1971.484375
 10
0.0
 20
-1981.341796875
 10
0.0
 20
-1991.19921875
 10
0.0
 20
-2001.056640625
 10
0.0
 20
-2010.9140625
 10
0.0
 20
-2020.771484375
 10
0.0
 20
-2030.62890625
 10
0.0
 20
-2040.486328125
 10
0.0
 20
-2050.34375
 10
0.0
 20
-2060.201171875
 10
0.0
 20
-2070.05859375
 10
0.0
 20
-2079.916015625
 10
0.0
 20
-2089.7734375
 10
0.0
 20
-2099.630859375
 10
0.0
 20
-2109.48828125
 10
0.0
 20
-2119.345703125
 10
0.0
 20
-2129.203125
 10
0.0
 20
-2139.060546875
 10
0.0
 20
-2148.91796875
 10
0.0
 20
-2158.775390625
 10
0.0
 20
-2168.6328125
 10
0.0
 20
-2178.490234375
 10
0.0
 20
-2188.34765625
 10
0.0
 20
-2198.205078125
 10
0.0
 20
-2208.0625
 10
0.0
 20
-2217.919921875
 10
0.0
 20
-2227.77734375
 10
0.0
 20
-2237.634765625
 10
0.0
 20
-2247.4921875
 10
0.0
 20
-2257.349609375
 10
0.0
 20
-2267.20703125
 10
0.0
 20
-2277.064453125
 10
0.0
 20
-2286.921875
 10
0.0
 20
-2296.779296875
 10
0.0
 20
-2306.63671875
 10
0.0
 20
-2316.494140625
 10
0.0
 20
-2326.3515625
 10
0.0
 20
-2336.208984375
 10
0.0
 20
-2346.06640625
 10
0.0
 20
-2355.923828125
 10
0.0
 20
-2365.78125
 10
0.0
 20
-2375.638671875
 10
0.0
 20
-2385.49609375
 10
0.0
 20
-2395.353515625
 10
0.0
 20
-2405.2109375
 10
0.0
 20
-2415.068359375
 10
0.0
 20
-2424.92578125
 10
0.0
 20
-2434.783203125
 10
0.0
 20
-2444.640625
 10
0.0
 20
-2454.498046875
 10
0.0
 20
-2464.35546875
 10
0.0
 20
-2474.212890625
 10
0.0
 20
-2484.0703125
 10
0.0
 20
-2493.927734375
 10
0.0
 20
-2503.78515625
 10
0.0
 20
-2513.642578125
 10
0.0
 20
-2523.5
 10
0.0
 20
-2533.357421875
 10
0.0
 20
-2543.21484375
 10
0.0
 20
-2553.072265625
 10
0.0
 20
-2562.9296875
 10
0.0
 20
-2572.787109375
 10
0.0
 20
-2582.64453125
 10
0.0
 20
-2592.501953125
 10
0.0
 20
-2602.359375
 10
0.0
 20
-2612.216796875
 10
0.0
 20
-2622.07421875
 10
0.0
 20
-2631.931640625
 10
0.0
 20
-2641.7890625
 10
0.0
 20
-2651.646484375
 10
0.0
 20
-2661.50390625
 10
0.0
 20
-2671.361328125
 10
0.0
 20
-2681.21875
 10
0.0
 20
-2691.076171875
 10
0.0
 20
-2700.93359375
 10
0.0
 20
-2710.791015625
 10
0.0
 20
-2720.6484375
 10
0.0
 20
-2730.505859375
 10
0.0
 20
-2740.36328125
 10
0.0
 20
-2750.220703125
 10
0.0
 20
-2760.078125
 10
0.0
 20
-2769.935546875
 10
0.0
 20
-2779.79296875
 10
0.0
 20
-2789.650390625
 10
0.0
 20
-2799.5078125
 10
0.0
 20
-2809.365234375
 10
0.0
 20
-2819.22265625
 10
0.0
 20
-2829.080078125
 10
0.0
 20
-2838.9375
 10
0.0
 20
-2848.794921875
 10
0.0
 20
-2858.65234375
 10
0.0
 20
-2868.509765625
 10
0.0
 20
-2878.3671875
 10
0.0
 20
-2888.224609375
 10
0.0
 20
-2898.08203125
 10
0.0
 20
-2907.939453125
 10
0.0
 20
-2917.796875
 10
0.0
 20
-2927.654296875
 10
0.0
 20
-2937.51171875
 10
0.0
 20
-2947.369140625
 10
0.0
 20
-2957.2265625
 10
0.0
 20
-2967.083984375
 10
0.0
 20
-2976.94140625
 10
0.0
 20
-2986.798828125
 10
0.0
 20
-2996.65625
 10
0.0
 20
-3006.513671875
 10
0.0
 20
-3016.37109375
 10
0.0
 20
-3026.228515625
 10
0.0
 20
-3036.0859375
 10
0.0
 20
-3045.943359375
 10
0.0
 20
-3055.80078125
 10
0.0
 20
-3065.658203125
 10
0.0
 20
-3075.515625
 10
0.0
 20
-3085.373046875
 10
0.0
 20
-3095.23046875
 10
0.0
 20
-3105.087890625
 10
0.0
 20
-3114.9453125
 10
0.0
 20
-3124.802734375
 10
0.0
 20
-3134.66015625
 10
0.0
 20
-3144.517578125
 10
0.0
 20
-3154.375
 10
0.0
 20
-3164.232421875
 10
0.0
 20
-3174.08984375
 10
0.0
 20
-3183.947265625
 10
0.0
 20
-3193.8046875
 10
0.0
 20
-3203.662109375
 10
0.0
 20
-3213.51953125
 10
0.0
 20
-3223.376953125
 10
0.0
 20
-3233.234375
 10
0.0
 20
-3243.091796875
 10
0.0
 20
-3252.94921875
 10
0.0
 20
-3262.806640625
 10
0.0
 20
-3272.6640625
 10
0.0
 20
-3282.521484375
 10
0.0
 20
-3292.37890625
 10
0.0
 20
-3302.236328125
 10
0.0
 20
-3312.09375
 10
0.0
 20
-3321.951171875
 10
0.0
 20
-3331.80859375
 10
0.0
 20
-3341.666015625
 10
0.0
 20
-3351.5234375
 10
0.0
 20
-3361.380859375
 10
0.0
 20
-3371.23828125
 10
0.0
 20
-3381.095703125
 10
0.0
 20
-3390.953125
 10
0.0
 20
-3400.810546875
 10
0.0
 20
-3410.66796875
 10
0.0
 20
-3420.525390625
 10
0.0
 20
-3430.3828125
 10
0.0
 20
-3440.240234375
 10
0.0
 20
-3450.09765625
 10
0.0
 20
-3459.955078125
 10
0.0
 20
-3469.8125
 10
0.0
 20
-3479.669921875
 10
0.0
 20
-3489.52734375
 10
0.0
 20
-3499.384765625
 10
0.0
 20
-3509.2421875
 10
0.0
 20
-3519.099609375
 10
0.0
 20
-3528.95703125
 10
0.0
 20
-3538.814453125
 10
0.0
 20
-3548.671875
 10
0.0
 20
-3558.529296875
 10
0.0
 20
-3568.38671875
 10
0.0
 20
-3578.244140625
 10
0.0
 20
-3588.1015625
 10
0.0
 20
-3597.958984375
 10
0.0
 20
-3607.81640625
 10
0.0
 20
-3617.673828125
 10
0.0
 20
-3627.53125
 10
0.0
 20
-3637.388671875
 10
0.0
 20
-3647.24609375
 10
0.0
 20
-3657.103515625
 10
0.0
 20
-3666.9609375
 10
0.0
 20
-3676.818359375
 10
0.0
 20
-3686.67578125
 10
0.0
 20
-3696.533203125
 10
0.0
 20
-3706.390625
 10
0.0
 20
-3716.248046875
 10
0.0
 20
-3726.10546875
 10
0.0
 20
-3735.962890625
 10
0.0
 20
-3745.8203125
 10
0.0
 20
-3755.677734375
 10
0.0
 20
-3765.53515625
 10
0.0
 20
-3775.392578125
 10
0.0
 20
-3785.25
 10
0.0
 20
-3795.107421875
 10
0.0
 20
-3804.96484375
 10
0.0
 20
-3814.822265625
 10
0.0
 20
-3824.6796875
 10
0.0
 20
-3834.537109375
 10
0.0
 20
-3844.39453125
 10
0.0
 20
-3854.251953125
 10
0.0
 20
-3864.109375
 10
0.0
 20
-3873.966796875
 10
0.0
 20
-3883.82421875
 10
0.0
 20
-3893.681640625
 10
0.0
 20
-3903.5390625
 10
0.0
 20
-3913.396484375
 10
0.0
 20
-3923.25390625
 10
0.0
 20
-3933.111328125
 10
0.0
 20
-3942.96875
 10
0.0
 20
-3952.826171875
 10
0.0
 20
-3962.68359375
 10
0.0
 20
-3972.541015625
 10
0.0
 20
-3982.3984375
 10
0.0
 20
-3992.255859375
 10
0.0
 20
-4002.11328125
 10
0.0
 20
-4011.970703125
 10
0.0
 20
-4021.828125
 10
0.0
 20
-4031.685546875
 10
0.0
 20
-4041.54296875
 10
0.0
 20
-4051.400390625
 10
0.0
 20
-4061.2578125
 10
0.0
 20
-4071.115234375
 10
0.0
 20
-4080.97265625
 10
0.0
 20
-4090.830078125
 10
0.0
 20
-4100.6875
 10
0.0
 20
-4110.544921875
 10
0.0
 20
-4120.40234375
 10
0.0
 20
-4130.259765625
 10
0.0
 20
-4140.1171875
 10
0.0
 20
-4149.974609375
 10
0.0
 20
-4159.83203125
 10
0.0
 20
-4169.689453125
 10
0.0
 20
-4179.546875
 10
0.0
 20
-4189.404296875
 10
0.0
 20
-4199.26171875
 10
0.0
 20
-4209.119140625
 10
0.0
 20
-4218.9765625
 10
0.0
 20
-4228.833984375
 10
0.0
 20
-4238.69140625
 10
0.0
 20
-4248.548828125
 10
0.0
 20
-4258.40625
 10
0.0
 20
-4268.263671875
 10
0.0
 20
-4278.12109375
 10
0.0
 20
-4287.978515625
 10
0.0
 20
-4297.8359375
 10
0.0
 20
-4307.693359375
 10
0.0
 20
-4317.55078125
 10
0.0
 20
-4327.408203125
 10
0.0
 20
-4337.265625
 10
0.0
 20
-4347.123046875
 10
0.0
 20
-4356.98046875
 10
0.0
 20
-4366.837890625
 10
0.0
 20
-4376.6953125
 10
0.0
 20
-4386.552734375
 10
0.0
 20
-4396.41015625
 10
0.0
 20
-4406.267578125
 10
0.0
 20
-4416.125
 10
0.0
 20
-4425.982421875
 10
0.0
 20
-4435.83984375
 10
0.0
 20
-4445.697265625
 10
0.0
 20
-4455.5546875
 10
0.0
 20
-4465.412109375
 10
0.0
 20
-4475.26953125
 10
0.0
 20
-4485.126953125
 10
0.0
 20
-4494.984375
 10
0.0
 20
-4504.841796875
 10
0.0
 20
-4514.69921875
 10
0.0
 20
-4524.556640625
 10
0.0
 20
-4534.4140625
 10
0.0
 20
-4544.271484375
 10
0.0
 20
-4554.12890625
 10
0.0
 20
-4563.986328125
 10
0.0
 20
-4573.84375
 10
0.0
 20
-4583.701171875
 10
0.0
 20
-4593.55859375
 10
0.0
 20
-4603.416015625
 10
0.0
 20
-4613.2734375
 10
0.0
 20
-4623.130859375
 10
0.0
 20
-4632.98828125
 10
0.0
 20
-4642.845703125
 10
0.0
 20
-4652.703125
 10
0.0
 20
-4662.560546875
 10
0.0
 20
-4672.41796875
 10
0.0
 20
-4682.275390625
 10
0.0
 20
-4692.1328125
 10
0.0
 20
-4701.990234375
 10
0.0
 20
-4711.84765625
 10
0.0
 20
-4721.705078125
 10
0.0
 20
-4731.5625
 10
0.0
 20
-4741.419921875
 10
0.0
 20
-4751.27734375
 10
0.0
 20
-4761.134765625
 10
0.0
 20
-4770.9921875
 10
0.0
 20
-4780.849609375
 10
0.0
 20
-4790.70703125
 10
0.0
 20
-4800.564453125
 10
0.0
 20
-4810.421875
 10
0.0
 20
-4820.279296875
 10
0.0
 20
-4830.13671875
 10
0.0
 20
-4839.994140625
 10
0.0
 20
-4849.8515625
 10
0.0
 20
-4859.708984375
 10
0.0
 20
-4869.56640625
 10
0.0
 20
-4879.423828125
 10
0.0
 20
-4889.28125
 10
0.0
 20
-4899.138671875
 10
0.0
 20
-4908.99609375
 10
0.0
 20
-4918.853515625
 10
0.0
 20
-4928.7109375
 10
0.0
 20
-4938.568359375
 10
0.0
 20
-4948.42578125
 10
0.0
 20
-4958.283203125
 10
0.0
 20
-4968.140625
 10
0.0
 20
-4977.998046875
 10
0.0
 20
-4987.85546875
 10
0.0
 20
-4997.712890625
 10
0.0
 20
-5007.5703125
 10
0.0
 20
-5017.427734375
 10
0.0
 20
-5027.28515625
 10
0.0
 20
-5037.142578125
 10
9.857421875
 20
-5037.142578125
 10
19.71484375
 20
-5037.142578125
 10
29.572265625
 20
-5037.142578125
 10
39.4296875
 20
-5037.142578125
 10
49.287109375
 20
-5037.142578125
 10
59.14453125
 20
-5037.142578125
 10
69.001953125
 20
-5037.142578125
 10
78.859375
 20
-5037.142578125
 10
88.716796875
 20
-5037.142578125
 10
98.57421875
 20
-5037.142578125
 10
108.431640625
 20
-5037.142578125
 10
118.2890625
 20
-5037.142578125
 10
128.146484375
 20
-5037.142578125
 10
138.00390625
 20
-5037.142578125
 10
147.861328125
 20
-5037.142578125
 10
157.71875
 20
-5037.142578125
 10
167.576171875
 20
-5037.142578125
 10
177.43359375
 20
-5037.142578125
 10
187.291015625
 20
-5037.142578125
 10
197.1484375
 20
-5037.142578125
 10
207.005859375
 20
-5037.142578125
 10
216.86328125
 20
-5037.142578125
 10
226.720703125
 20
-5037.142578125
 10
236.578125
 20
-5037.142578125
 10
246.435546875
 20
-5037.142578125
 10
256.29296875
 20
-5037.142578125
 10
266.150390625
 20
-5037.142578125
 10
276.0078125
 20
-5037.142578125
 10
285.865234375
 20
-5037.142578125
 10
295.72265625
 20
-5037.142578125
 10
305.580078125
 20
-5037.142578125
 10
315.4375
 20
-5037.142578125
 10
325.294921875
 20
-5037.142578125
 10
335.15234375
 20
-5037.142578125
 10
345.009765625
 20
-5037.142578125
 10
354.8671875
 20
-5037.142578125
 10
364.724609375
 20
-5037.142578125
 10
374.58203125
 20
-5037.142578125
 10
384.439453125
 20
-5037.142578125
 10
394.296875
 20
-5037.142578125
 10
404.154296875
 20
-5037.142578125
 10
414.01171875
 20
-5037.142578125
 10
423.869140625
 20
-5037.142578125
 10
433.7265625
 20
-5037.142578125
 10
443.583984375
 20
-5037.142578125
 10
453.44140625
 20
-5037.142578125
 10
463.298828125
 20
-5037.142578125
 10
473.15625
 20
-5037.142578125
 10
483.013671875
 20
-5037.142578125
 10
492.87109375
 20
-5037.142578125
 10
502.728515625
 20
-5037.142578125
 10
512.5859375
 20
-5037.142578125
 10
522.443359375
 20
-5037.142578125
 10
532.30078125
 20
-5037.142578125
 10
542.158203125
 20
-5037.142578125
 10
552.015625
 20
-5037.142578125
 10
561.873046875
 20
-5037.142578125
 10
571.73046875
 20
-5037.142578125
 10
581.587890625
 20
-5037.142578125
 10
591.4453125
 20
-5037.142578125
 10
601.302734375
 20
-5037.142578125
 10
611.16015625
 20
-5037.142578125
 10
621.017578125
 20
-5037.142578125
 10
630.875
 20
-5037.142578125
 10
640.732421875
 20
-5037.142578125
 10
650.58984375
 20
-5037.142578125
 10
660.447265625
 20
-5037.142578125
 10
670.3046875
 20
-5037.142578125
 10
680.162109375
 20
-5037.142578125
 10
690.01953125
 20
-5037.142578125
 10
699.876953125
 20
-5037.142578125
 10
709.734375
 20
-5037.142578125
 10
719.591796875
 20
-5037.142578125
 10
729.44921875
 20
-5037.142578125
 10
739.306640625
 20
-5037.142578125
 10
749.1640625
 20
-5037.142578125
 10
759.021484375
 20
-5037.142578125
 10
768.87890625
 20
-5037.142578125
 10
778.736328125
 20
-5037.142578125
 10
788.59375
 20
-5037.142578125
 10
798.451171875
 20
-5037.142578125
 10
808.30859375
 20
-5037.142578125
 10
818.166015625
 20
-5037.142578125
 10
828.0234375
 20
-5037.142578125
 10
837.880859375
 20
-5037.142578125
 10
847.73828125
 20
-5037.142578125
 10
857.595703125
 20
-5037.142578125
 10
867.453125
 20
-5037.142578125
 10
877.310546875
 20
-5037.142578125
 10
887.16796875
 20
-5037.142578125
 10
897.025390625
 20
-5037.142578125
 10
906.8828125
 20
-5037.142578125
 10
916.740234375
 20
-5037.142578125
 10
926.59765625
 20
-5037.142578125
 10
936.455078125
 20
-5037.142578125
 10
946.3125
 20
-5037.142578125
 10
956.169921875
 20
-5037.142578125
 10
966.02734375
 20
-5037.142578125
 10
975.884765625
 20
-5037.142578125
 10
985.7421875
 20
-5037.142578125
 10
995.599609375
 20
-5037.142578125
 10
1005.45703125
 20
-5037.142578125
 10
1015.314453125
 20
-5037.142578125
 10
1025.171875
 20
-5037.142578125
 10
1035.029296875
 20
-5037.142578125
 10
1044.88671875
 20
-5037.142578125
 10
1054.744140625
 20
-5037.142578125
 10
1064.6015625
 20
-5037.142578125
 10
1074.458984375
 20
-5037.142578125
 10
1084.31640625
 20
-5037.142578125
 10
1094.173828125
 20
-5037.142578125
 10
1104.03125
 20
-5037.142578125
 10
1113.888671875
 20
-5037.142578125
 10
1123.74609375
 20
-5037.142578125
 10
1133.603515625
 20
-5037.142578125
 10
1143.4609375
 20
-5037.142578125
 10
1153.318359375
 20
-5037.142578125
 10
1163.17578125
 20
-5037.142578125
 10
1173.033203125
 20
-5037.142578125
 10
1182.890625
 20
-5037.142578125
 10
1192.748046875
 20
-5037.142578125
 10
1202.60546875
 20
-5037.142578125
 10
1212.462890625
 20
-5037.142578125
 10
1222.3203125
 20
-5037.142578125
 10
1232.177734375
 20
-5037.142578125
 10
1242.03515625
 20
-5037.142578125
 10
1251.892578125
 20
-5037.142578125
 10
1261.75
 20
-5037.142578125
 10
1271.607421875
 20
-5037.142578125
 10
1281.46484375
 20
-5037.142578125
 10
1291.322265625
 20
-5037.142578125
 10
1301.1796875
 20
-5037.142578125
 10
1311.037109375
 20
-5037.142578125
 10
1320.89453125
 20
-5037.142578125
 10
1330.751953125
 20
-5037.142578125
 10
1340.609375
 20
-5037.142578125
 10
1350.466796875
 20
-5037.142578125
 10
1360.32421875
 20
-5037.142578125
 10
1370.181640625
 20
-5037.142578125
 10
1380.0390625
 20
-5037.142578125
 10
1389.896484375
 20
-5037.142578125
 10
1399.75390625
 20
-5037.142578125
 10
1409.611328125
 20
-5037.142578125
 10
1419.46875
 20
-5037.142578125
 10
1429.326171875
 20
-5037.142578125
 10
1439.18359375
 20
-5037.142578125
 10
1449.041015625
 20
-5037.142578125
 10
1458.8984375
 20
-5037.142578125
 10
1468.755859375
 20
-5037.142578125
 10
1478.61328125
 20
-5037.142578125
 10
1488.470703125
 20
-5037.142578125
 10
1498.328125
 20
-5037.142578125
 10
1508.185546875
 20
-5037.142578125
 10
1518.04296875
 20
-5037.142578125
 10
1527.900390625
 20
-5037.142578125
 10
1537.7578125
 20
-5037.142578125
 10
1547.615234375
 20
-5037.142578125
 10
1557.47265625
 20
-5037.142578125
 10
1567.330078125
 20
-5037.142578125
 10
1577.1875
 20
-5037.142578125
 10
1587.044921875
 20
-5037.142578125
 10
1596.90234375
 20
-5037.142578125
 10
1606.759765625
 20
-5037.142578125
 10
1616.6171875
 20
-5037.142578125
 10
1626.474609375
 20
-5037.142578125
 10
1636.33203125
 20
-5037.142578125
 10
1646.189453125
 20
-5037.142578125
 10
1656.046875
 20
-5037.142578125
 10
1665.904296875
 20
-5037.142578125
 10
1675.76171875
 20
-5037.142578125
 10
1685.619140625
 20
-5037.142578125
 10
1695.4765625
 20
-5037.142578125
 10
1705.333984375
 20
-5037.142578125
 10
1715.19140625
 20
-5037.142578125
 10
1725.048828125
 20
-5037.142578125
 10
1734.90625
 20
-5037.142578125
 10
1744.763671875
 20
-5037.142578125
 10
1754.62109375
 20
-5037.142578125
 10
1764.478515625
 20
-5037.142578125
 10
1774.3359375
 20
-5037.142578125
 10
1784.193359375
 20
-5037.142578125
 10
1794.05078125
 20
-5037.142578125
 10
1803.908203125
 20
-5037.142578125
 10
1813.765625
 20
-5037.142578125
 10
1823.623046875
 20
-5037.142578125
 10
1833.48046875
 20
-5037.142578125
 10
1843.337890625
 20
-5037.142578125
 10
1853.1953125
 20
-5037.142578125
 10
1863.052734375
 20
-5037.142578125
 10
1872.91015625
 20
-5037.142578125
 10
1882.767578125
 20
-5037.142578125
 10
1892.625
 20
-5037.142578125
 10
1902.482421875
 20
-5037.142578125
 10
1912.33984375
 20
-5037.142578125
 10
1922.197265625
 20
-5037.142578125
 10
1932.0546875
 20
-5037.142578125
 10
1941.912109375
 20
-5037.142578125
 10
1951.76953125
 20
-5037.142578125
 10
1961.626953125
 20
-5037.142578125
 10
1971.484375
 20
-5037.142578125
 10
1981.341796875
 20
-5037.142578125
 10
1991.19921875
 20
-5037.142578125
 10
2001.056640625
 20
-5037.142578125
 10
2010.9140625
 20
-5037.142578125
 10
2020.771484375
 20
-5037.142578125
 10
2030.62890625
 20
-5037.142578125
 10
2040.486328125
 20
-5037.142578125
 10
2050.34375
 20
-5037.142578125
 10
2060.201171875
 20
-5037.142578125
 10
2070.05859375
 20
-5037.142578125
 10
2079.916015625
 20
-5037.142578125
 10
2089.7734375
 20
-5037.142578125
 10
2099.630859375
 20
-5037.142578125
 10
2109.48828125
 20
-5037.142578125
 10
2119.345703125
 20
-5037.142578125
 10
2129.203125
 20
-5037.142578125
 10
2139.060546875
 20
-5037.142578125
 10
2148.91796875
 20
-5037.142578125
 10
2158.775390625
 20
-5037.142578125
 10
2168.6328125
 20
-5037.142578125
 10
2178.490234375
 20
-5037.142578125
 10
2188.34765625
 20
-5037.142578125
 10
2198.205078125
 20
-5037.142578125
 10
2208.0625
 20
-5037.142578125
 10
2217.919921875
 20
-5037.142578125
 10
2227.77734375
 20
-5037.142578125
 10
2237.634765625
 20
-5037.142578125
 10
2247.4921875
 20
-5037.142578125
 10
2257.349609375
 20
-5037.142578125
 10
2267.20703125
 20
-5037.142578125
 10
2277.064453125
 20
-5037.142578125
 10
2286.921875
 20
-5037.142578125
 10
2296.779296875
 20
-5037.142578125
 10
2306.63671875
 20
-5037.142578125
 10
2316.494140625
 20
-5037.142578125
 10
2326.3515625
 20
-5037.142578125
 10
2336.208984375
 20
-5037.142578125
 10
2346.06640625
 20
-5037.142578125
 10
2355.923828125
 20
-5037.142578125
 10
2365.78125
 20
-5037.142578125
 10
2375.638671875
 20
-5037.142578125
 10
2385.49609375
 20
-5037.142578125
 10
2395.353515625
 20
-5037.142578125
 10
2405.2109375
 20
-5037.142578125
 10
2415.068359375
 20
-5037.142578125
 10
2424.92578125
 20
-5037.142578125
 10
2434.783203125
 20
-5037.142578125
 10
2444.640625
 20
-5037.142578125
 10
2454.498046875
 20
-5037.142578125
 10
2464.35546875
 20
-5037.142578125
 10
2474.212890625
 20
-5037.142578125
 10
2484.0703125
 20
-5037.142578125
 10
2493.927734375
 20
-5037.142578125
 10
2503.78515625
 20
-5037.142578125
 10
2513.642578125
 20
-5037.142578125
 10
2523.5
 20
-5037.142578125
 10
2533.357421875
 20
-5037.142578125
 10
2543.21484375
 20
-5037.142578125
 10
2553.072265625
 20
-5037.142578125
 10
2562.9296875
 20
-5037.142578125
 10
2572.787109375
 20
-5037.142578125
 10
2582.64453125
 20
-5037.142578125
 10
2592.501953125
 20
-5037.142578125
 10
2602.359375
 20
-5037.142578125
 10
2612.216796875
 20
-5037.142578125
 10
2622.07421875
 20
-5037.142578125
 10
2631.931640625
 20
-5037.142578125
 10
2641.7890625
 20
-5037.142578125
 10
2651.646484375
 20
-5037.142578125
 10
2661.50390625
 20
-5037.142578125
 10
2671.361328125
 20
-5037.142578125
 10
2681.21875
 20
-5037.142578125
 10
2691.076171875
 20
-5037.142578125
 10
2700.93359375
 20
-5037.142578125
 10
2710.791015625
 20
-5037.142578125
 10
2720.6484375
 20
-5037.142578125
 10
2730.505859375
 20
-5037.142578125
 10
2740.36328125
 20
-5037.142578125
 10
2750.220703125
 20
-5037.142578125
 10
2760.078125
 20
-5037.142578125
 10
2769.935546875
 20
-5037.142578125
 10
2779.79296875
 20
-5037.142578125
 10
2789.650390625
 20
-5037.142578125
 10
2799.5078125
 20
-5037.142578125
 10
2809.365234375
 20
-5037.142578125
 10
2819.22265625
 20
-5037.142578125
 10
2829.080078125
 20
-5037.142578125
 10
2838.9375
 20
-5037.142578125
 10
2848.794921875
 20
-5037.142578125
 10
2858.65234375
 20
-5037.142578125
 10
2868.509765625
 20
-5037.142578125
 10
2878.3671875
 20
-5037.142578125
 10
2888.224609375
 20
-5037.142578125
 10
2898.08203125
 20
-5037.142578125
 10
2907.939453125
 20
-5037.142578125
 10
2917.796875
 20
-5037.142578125
 10
2927.654296875
 20
-5037.142578125
 10
2937.51171875
 20
-5037.142578125
 10
2947.369140625
 20
-5037.142578125
 10
2957.2265625
 20
-5037.142578125
 10
2967.083984375
 20
-5037.142578125
 10
2976.94140625
 20
-5037.142578125
 10
2986.798828125
 20
-5037.142578125
 10
2996.65625
 20
-5037.142578125
 10
3006.513671875
 20
-5037.142578125
 10
3016.37109375
 20
-5037.142578125
 10
3026.228515625
 20
-5037.142578125
 10
3036.0859375
 20
-5037.142578125
 10
3045.943359375
 20
-5037.142578125
 10
3055.80078125
 20
-5037.142578125
 10
3065.658203125
 20
-5037.142578125
 10
3075.515625
 20
-5037.142578125
 10
3085.373046875
 20
-5037.142578125
 10
3095.23046875
 20
-5037.142578125
 10
3105.087890625
 20
-5037.142578125
 10
3114.9453125
 20
-5037.142578125
 10
3124.802734375
 20
-5037.142578125
 10
3134.66015625
 20
-5037.142578125
 10
3144.517578125
 20
-5037.142578125
 10
3154.375
 20
-5037.142578125
 10
3164.232421875
 20
-5037.142578125
 10
3174.08984375
 20
-5037.142578125
 10
3183.947265625
 20
-5037.142578125
 10
3193.8046875
 20
-5037.142578125
 10
3203.662109375
 20
-5037.142578125
 10
3213.51953125
 20
-5037.142578125
 10
3223.376953125
 20
-5037.142578125
 10
3233.234375
 20
-5037.142578125
 10
3243.091796875
 20
-5037.142578125
 10
3252.94921875
 20
-5037.142578125
 10
3262.806640625
 20
-5037.142578125
 10
3272.6640625
 20
-5037.142578125
 10
3282.521484375
 20
-5037.142578125
 10
3292.37890625
 20
-5037.142578125
 10
3302.236328125
 20
-5037.142578125
 10
3312.09375
 20
-5037.142578125
 10
3321.951171875
 20
-5037.142578125
 10
3331.80859375
 20
-5037.142578125
 10
3341.666015625
 20
-5037.142578125
 10
3351.5234375
 20
-5037.142578125
 10
3361.380859375
 20
-5037.142578125
 10
3371.23828125
 20
-5037.142578125
 10
3381.095703125
 20
-5037.142578125
 10
3390.953125
 20
-5037.142578125
 10
3400.810546875
 20
-5037.142578125
 10
3410.66796875
 20
-5037.142578125
 10
3420.525390625
 20
-5037.142578125
 10
3430.3828125
 20
-5037.142578125
 10
3440.240234375
 20
-5037.142578125
 10
3450.09765625
 20
-5037.142578125
 10
3459.955078125
 20
-5037.142578125
 10
3469.8125
 20
-5037.142578125
 10
3479.669921875
 20
-5037.142578125
 10
3489.52734375
 20
-5037.142578125
 10
3499.384765625
 20
-5037.142578125
 10
3509.2421875
 20
-5037.142578125
 10
3519.099609375
 20
-5037.142578125
 10
3528.95703125
 20
-5037.142578125
 10
3538.814453125
 20
-5037.142578125
 10
3548.671875
 20
-5037.142578125
 10
3558.529296875
 20
-5037.142578125
 10
3568.38671875
 20
-5037.142578125
 10
3578.244140625
 20
-5037.142578125
 10
3588.1015625
 20
-5037.142578125
 10
3597.958984375
 20
-5037.142578125
 10
3607.81640625
 20
-5037.142578125
 10
3617.673828125
 20
-5037.142578125
 10
3627.53125
 20
-5037.142578125
 10
3637.388671875
 20
-5037.142578125
 10
3647.24609375
 20
-5037.142578125
 10
3657.103515625
 20
-5037.142578125
 10
3666.9609375
 20
-5037.142578125
 10
3676.818359375
 20
-5037.142578125
 10
3686.67578125
 20
-5037.142578125
 10
3696.533203125
 20
-5037.142578125
 10
3706.390625
 20
-5037.142578125
 10
3716.248046875
 20
-5037.142578125
 10
3726.10546875
 20
-5037.142578125
 10
3735.962890625
 20
-5037.142578125
 10
3745.8203125
 20
-5037.142578125
 10
3755.677734375
 20
-5037.142578125
 10
3765.53515625
 20
-5037.142578125
 10
3775.392578125
 20
-5037.142578125
 10
3785.25
 20
-5037.142578125
 10
3795.107421875
 20
-5037.142578125
 10
3804.96484375
 20
-5037.142578125
 10
3814.822265625
 20
-5037.142578125
 10
3824.6796875
 20
-5037.142578125
 10
3834.537109375
 20
-5037.142578125
 10
3844.39453125
 20
-5037.142578125
 10
3854.251953125
 20
-5037.142578125
 10
3864.109375
 20
-5037.142578125
 10
3873.966796875
 20
-5037.142578125
 10
3883.82421875
 20
-5037.142578125
 10
3893.681640625
 20
-5037.142578125
 10
3903.5390625
 20
-5037.142578125
 10
3913.396484375
 20
-5037.142578125
 10
3923.25390625
 20
-5037.142578125
 10
3933.111328125
 20
-5037.142578125
 10
3942.96875
 20
-5037.142578125
 10
3952.826171875
 20
-5037.142578125
 10
3962.68359375
 20
-5037.142578125
 10
3972.541015625
 20
-5037.142578125
 10
3982.3984375
 20
-5037.142578125
 10
3992.255859375
 20
-5037.142578125
 10
4002.11328125
 20
-5037.142578125
 10
4011.970703125
 20
-5037.142578125
 10
4021.828125
 20
-5037.142578125
 10
4031.685546875
 20
-5037.142578125
 10
4041.54296875
 20
-5037.142578125
 10
4051.400390625
 20
-5037.142578125
 10
4061.2578125
 20
-5037.142578125
 10
4071.115234375
 20
-5037.142578125
 10
4080.97265625
 20
-5037.142578125
 10
4090.830078125
 20
-5037.142578125
 10
4100.6875
 20
-5037.142578125
 10
4110.544921875
 20
-5037.142578125
 10
4120.40234375
 20
-5037.142578125
 10
4130.259765625
 20
-5037.142578125
 10
4140.1171875
 20
-5037.142578125
 10
4149.974609375
 20
-5037.142578125
 10
4159.83203125
 20
-5037.142578125
 10
4169.689453125
 20
-5037.142578125
 10
4179.546875
 20
-5037.142578125
 10
4189.404296875
 20
-5037.142578125
 10
4199.26171875
 20
-5037.142578125
 10
4209.119140625
 20
-5037.142578125
 10
4218.9765625
 20
-5037.142578125
 10
4228.833984375
 20
-5037.142578125
 10
4238.69140625
 20
-5037.142578125
 10
4248.548828125
 20
-5037.142578125
 10
4258.40625
 20
-5037.142578125
 10
4268.263671875
 20
-5037.142578125
 10
4278.12109375
 20
-5037.142578125
 10
4287.978515625
 20
-5037.142578125
 10
4297.8359375
 20
-5037.142578125
 10
4307.693359375
 20
-5037.142578125
 10
4317.55078125
 20
-5037.142578125
 10
4327.408203125
 20
-5037.142578125
 10
4337.265625
 20
-5037.142578125
 10
4347.123046875
 20
-5037.142578125
 10
4356.98046875
 20
-5037.142578125
 10
4366.837890625
 20
-5037.142578125
 10
4376.6953125
 20
-5037.142578125
 10
4386.552734375
 20
-5037.142578125
 10
4396.41015625
 20
-5037.142578125
 10
4406.267578125
 20
-5037.142578125
 10
4416.125
 20
-5037.142578125
 10
4425.982421875
 20
-5037.142578125
 10
4435.83984375
 20
-5037.142578125
 10
4445.697265625
 20
-5037.142578125
 10
4455.5546875
 20
-5037.142578125
 10
4465.412109375
 20
-5037.142578125
 10
4475.26953125
 20
-5037.142578125
 10
4485.126953125
 20
-5037.142578125
 10
4494.984375
 20
-5037.142578125
 10
4504.841796875
 20
-5037.142578125
 10
4514.69921875
 20
-5037.142578125
 10
4524.556640625
 20
-5037.142578125
 10
4534.4140625
 20
-5037.142578125
 10
4544.271484375
 20
-5037.142578125
 10
4554.12890625
 20
-5037.142578125
 10
4563.986328125
 20
-5037.142578125
 10
4573.84375
 20
-5037.142578125
 10
4583.701171875
 20
-5037.142578125
 10
4593.55859375
 20
-5037.142578125
 10
4603.416015625
 20
-5037.142578125
 10
4613.2734375
 20
-5037.142578125
 10
4623.130859375
 20
-5037.142578125
 10
4632.98828125
 20
-5037.142578125
 10
4642.845703125
 20
-5037.142578125
 10
4652.703125
 20
-5037.142578125
 10
4662.560546875
 20
-5037.142578125
 10
4672.41796875
 20
-5037.142578125
 10
4682.275390625
 20
-5037.142578125
 10
4692.1328125
 20
-5037.142578125
 10
4701.990234375
 20
-5037.142578125
 10
4711.84765625
 20
-5037.142578125
 10
4721.705078125
 20
-5037.142578125
 10
4731.5625
 20
-5037.142578125
 10
4741.419921875
 20
-5037.142578125
 10
4751.27734375
 20
-5037.142578125
 10
4761.134765625
 20
-5037.142578125
 10
4770.9921875
 20
-5037.142578125
 10
4780.849609375
 20
-5037.142578125
 10
4790.70703125
 20
-5037.142578125
 10
4800.564453125
 20
-5037.142578125
 10
4810.421875
 20
-5037.142578125
 10
4820.279296875
 20
-5037.142578125
 10
4830.13671875
 20
-5037.142578125
 10
4839.994140625
 20
-5037.142578125
 10
4849.8515625
 20
-5037.142578125
 10
4859.708984375
 20
-5037.142578125
 10
4869.56640625
 20
-5037.142578125
 10
4879.423828125
 20
-5037.142578125
 10
4889.28125
 20
-5037.142578125
 10
4899.138671875
 20
-5037.142578125
 10
4908.99609375
 20
-5037.142578125
 10
4918.853515625
 20
-5037.142578125
 10
4928.7109375
 20
-5037.142578125
 10
4938.568359375
 20
-5037.142578125
 10
4948.42578125
 20
-5037.142578125
 10
4958.283203125
 20
-5037.142578125
 10
4968.140625
 20
-5037.142578125
 10
4977.998046875
 20
-5037.142578125
 10
4987.85546875
 20
-5037.142578125
 10
4997.712890625
 20
-5037.142578125
 10
5007.5703125
 20
-5037.142578125
 10
5017.427734375
 20
-5037.142578125
 10
5027.28515625
 20
-5037.142578125
 10
5037.142578125
 20
-5037.142578125
 10
5037.142578125
 20
-5027.28515625
 10
5037.142578125
 20
-5017.427734375
 10
5037.142578125
 20
-5007.5703125
 10
5037.142578125
 20
-4997.712890625
 10
5037.142578125
 20
-4987.85546875
 10
5037.142578125
 20
-4977.998046875
 10
5037.142578125
 20
-4968.140625
 10
5037.142578125
 20
-4958.283203125
 10
5037.142578125
 20
-4948.42578125
 10
5037.142578125
 20
-4938.568359375
 10
5037.142578125
 20
-4928.7109375
 10
5037.142578125
 20
-4918.853515625
 10
5037.142578125
 20
-4908.99609375
 10
5037.142578125
 20
-4899.138671875
 10
5037.142578125
 20
-4889.28125
 10
5037.142578125
 20
-4879.423828125
 10
5037.142578125
 20
-4869.56640625
 10
5037.142578125
 20
-4859.708984375
 10
5037.142578125
 20
-4849.8515625
 10
5037.142578125
 20
-4839.994140625
 10
5037.142578125
 20
-4830.13671875
 10
5037.142578125
 20
-4820.279296875
 10
5037.142578125
 20
-4810.421875
 10
5037.142578125
 20
-4800.564453125
 10
5037.142578125
 20
-4790.70703125
 10
5037.142578125
 20
-4780.849609375
 10
5037.142578125
 20
-4770.9921875
 10
5037.142578125
 20
-4761.134765625
 10
5037.142578125
 20
-4751.27734375
 10
5037.142578125
 20
-4741.419921875
 10
5037.142578125
 20
-4731.5625
 10
5037.142578125
 20
-4721.705078125
 10
5037.142578125
 20
-4711.84765625
 10
5037.142578125
 20
-4701.990234375
 10
5037.142578125
 20
-4692.1328125
 10
5037.142578125
 20
-4682.275390625
 10
5037.142578125
 20
-4672.41796875
 10
5037.142578125
 20
-4662.560546875
 10
5037.142578125
 20
-4652.703125
 10
5037.142578125
 20
-4642.845703125
 10
5037.142578125
 20
-4632.98828125
 10
5037.142578125
 20
-4623.130859375
 10
5037.142578125
 20
-4613.2734375
 10
5037.142578125
 20
-4603.416015625
 10
5037.142578125
 20
-4593.55859375
 10
5037.142578125
 20
-4583.701171875
 10
5037.142578125
 20
-4573.84375
 10
5037.142578125
 20
-4563.986328125
 10
5037.142578125
 20
-4554.12890625
 10
5037.142578125
 20
-4544.271484375
 10
5037.142578125
 20
-4534.4140625
 10
5037.142578125
 20
-4524.556640625
 10
5037.142578125
 20
-4514.69921875
 10
5037.142578125
 20
-4504.841796875
 10
5037.142578125
 20
-4494.984375
 10
5037.142578125
 20
-4485.126953125
 10
5037.142578125
 20
-4475.26953125
 10
5037.142578125
 20
-4465.412109375
 10
5037.142578125
 20
-4455.5546875
 10
5037.142578125
 20
-4445.697265625
 10
5037.142578125
 20
-4435.83984375
 10
5037.142578125
 20
-4425.982421875
 10
5037.142578125
 20
-4416.125
 10
5037.142578125
 20
-4406.267578125
 10
5037.142578125
 20
-4396.41015625
 10
5037.142578125
 20
-4386.552734375
 10
5037.142578125
 20
-4376.6953125
 10
5037.142578125
 20
-4366.837890625
 10
5037.142578125
 20
-4356.98046875
 10
5037.142578125
 20
-4347.123046875
 10
5037.142578125
 20
-4337.265625
 10
5037.142578125
 20
-4327.408203125
 10
5037.142578125
 20
-4317.55078125
 10
5037.142578125
 20
-4307.693359375
 10
5037.142578125
 20
-4297.8359375
 10
5037.142578125
 20
-4287.978515625
 10
5037.142578125
 20
-4278.12109375
 10
5037.142578125
 20
-4268.263671875
 10
5037.142578125
 20
-4258.40625
 10
5037.142578125
 20
-4248.548828125
 10
5037.142578125
 20
-4238.69140625
 10
5037.142578125
 20
-4228.833984375
 10
5037.142578125
 20
-4218.9765625
 10
5037.142578125
 20
-4209.119140625
 10
5037.142578125
 20
-4199.26171875
 10
5037.142578125
 20
-4189.404296875
 10
5037.142578125
 20
-4179.546875
 10
5037.142578125
 20
-4169.689453125
 10
5037.142578125
 20
-4159.83203125
 10
5037.142578125
 20
-4149.974609375
 10
5037.142578125
 20
-4140.1171875
 10
5037.142578125
 20
-4130.259765625
 10
5037.142578125
 20
-4120.40234375
 10
5037.142578125
 20
-4110.544921875
 10
5037.142578125
 20
-4100.6875
 10
5037.142578125
 20
-4090.830078125
 10
5037.142578125
 20
-4080.97265625
 10
5037.142578125
 20
-4071.115234375
 10
5037.142578125
 20
-4061.2578125
 10
5037.142578125
 20
-4051.400390625
 10
5037.142578125
 20
-4041.54296875
 10
5037.142578125
 20
-4031.685546875
 10
5037.142578125
 20
-4021.828125
 10
5037.142578125
 20
-4011.970703125
 10
5037.142578125
 20
-4002.11328125
 10
5037.142578125
 20
-3992.255859375
 10
5037.142578125
 20
-3982.3984375
 10
5037.142578125
 20
-3972.541015625
 10
5037.142578125
 20
-3962.68359375
 10
5037.142578125
 20
-3952.826171875
 10
5037.142578125
 20
-3942.96875
 10
5037.142578125
 20
-3933.111328125
 10
5037.142578125
 20
-3923.25390625
 10
5037.142578125
 20
-3913.396484375
 10
5037.142578125
 20
-3903.5390625
 10
5037.142578125
 20
-3893.681640625
 10
5037.142578125
 20
-3883.82421875
 10
5037.142578125
 20
-3873.966796875
 10
5037.142578125
 20
-3864.109375
 10
5037.142578125
 20
-3854.251953125
 10
5037.142578125
 20
-3844.39453125
 10
5037.142578125
 20
-3834.537109375
 10
5037.142578125
 20
-3824.6796875
 10
5037.142578125
 20
-3814.822265625
 10
5037.142578125
 20
-3804.96484375
 10
5037.142578125
 20
-3795.107421875
 10
5037.142578125
 20
-3785.25
 10
5037.142578125
 20
-3775.392578125
 10
5037.142578125
 20
-3765.53515625
 10
5037.142578125
 20
-3755.677734375
 10
5037.142578125
 20
-3745.8203125
 10
5037.142578125
 20
-3735.962890625
 10
5037.142578125
 20
-3726.10546875
 10
5037.142578125
 20
-3716.248046875
 10
5037.142578125
 20
-3706.390625
 10
5037.142578125
 20
-3696.533203125
 10
5037.142578125
 20
-3686.67578125
 10
5037.142578125
 20
-3676.818359375
 10
5037.142578125
 20
-3666.9609375
 10
5037.142578125
 20
-3657.103515625
 10
5037.142578125
 20
-3647.24609375
 10
5037.142578125
 20
-3637.388671875
 10
5037.142578125
 20
-3627.53125
 10
5037.142578125
 20
-3617.673828125
 10
5037.142578125
 20
-3607.81640625
 10
5037.142578125
 20
-3597.958984375
 10
5037.142578125
 20
-3588.1015625
 10
5037.142578125
 20
-3578.244140625
 10
5037.142578125
 20
-3568.38671875
 10
5037.142578125
 20
-3558.529296875
 10
5037.142578125
 20
-3548.671875
 10
5037.142578125
 20
-3538.814453125
 10
5037.142578125
 20
-3528.95703125
 10
5037.142578125
 20
-3519.099609375
 10
5037.142578125
 20
-3509.2421875
 10
5037.142578125
 20
-3499.384765625
 10
5037.142578125
 20
-3489.52734375
 10
5037.142578125
 20
-3479.669921875
 10
5037.142578125
 20
-3469.8125
 10
5037.142578125
 20
-3459.955078125
 10
5037.142578125
 20
-3450.09765625
 10
5037.142578125
 20
-3440.240234375
 10
5037.142578125
 20
-3430.3828125
 10
5037.142578125
 20
-3420.525390625
 10
5037.142578125
 20
-3410.66796875
 10
5037.142578125
 20
-3400.810546875
 10
5037.142578125
 20
-3390.953125
 10
5037.142578125
 20
-3381.095703125
 10
5037.142578125
 20
-3371.23828125
 10
5037.142578125
 20
-3361.380859375
 10
5037.142578125
 20
-3351.5234375
 10
5037.142578125
 20
-3341.666015625
 10
5037.142578125
 20
-3331.80859375
 10
5037.142578125
 20
-3321.951171875
 10
5037.142578125
 20
-3312.09375
 10
5037.142578125
 20
-3302.236328125
 10
5037.142578125
 20
-3292.37890625
 10
5037.142578125
 20
-3282.521484375
 10
5037.142578125
 20
-3272.6640625
 10
5037.142578125
 20
-3262.806640625
 10
5037.142578125
 20
-3252.94921875
 10
5037.142578125
 20
-3243.091796875
 10
5037.142578125
 20
-3233.234375
 10
5037.142578125
 20
-3223.376953125
 10
5037.142578125
 20
-3213.51953125
 10
5037.142578125
 20
-3203.662109375
 10
5037.142578125
 20
-3193.8046875
 10
5037.142578125
 20
-3183.947265625
 10
5037.142578125
 20
-3174.08984375
 10
5037.142578125
 20
-3164.232421875
 10
5037.142578125
 20
-3154.375
 10
5037.142578125
 20
-3144.517578125
 10
5037.142578125
 20
-3134.66015625
 10
5037.142578125
 20
-3124.802734375
 10
5037.142578125
 20
-3114.9453125
 10
5037.142578125
 20
-3105.087890625
 10
5037.142578125
 20
-3095.23046875
 10
5037.142578125
 20
-3085.373046875
 10
5037.142578125
 20
-3075.515625
 10
5037.142578125
 20
-3065.658203125
 10
5037.142578125
 20
-3055.80078125
 10
5037.142578125
 20
-3045.943359375
 10
5037.142578125
 20
-3036.0859375
 10
5037.142578125
 20
-3026.228515625
 10
5037.142578125
 20
-3016.37109375
 10
5037.142578125
 20
-3006.513671875
 10
5037.142578125
 20
-2996.65625
 10
5037.142578125
 20
-2986.798828125
 10
5037.142578125
 20
-2976.94140625
 10
5037.142578125
 20
-2967.083984375
 10
5037.142578125
 20
-2957.2265625
 10
5037.142578125
 20
-2947.369140625
 10
5037.142578125
 20
-2937.51171875
 10
5037.142578125
 20
-2927.654296875
 10
5037.142578125
 20
-2917.796875
 10
5037.142578125
 20
-2907.939453125
 10
5037.142578125
 20
-2898.08203125
 10
5037.142578125
 20
-2888.224609375
 10
5037.142578125
 20
-2878.3671875
 10
5037.142578125
 20
-2868.509765625
 10
5037.142578125
 20
-2858.65234375
 10
5037.142578125
 20
-2848.794921875
 10
5037.142578125
 20
-2838.9375
 10
5037.142578125
 20
-2829.080078125
 10
5037.142578125
 20
-2819.22265625
 10
5037.142578125
 20
-2809.365234375
 10
5037.142578125
 20
-2799.5078125
 10
5037.142578125
 20
-2789.650390625
 10
5037.142578125
 20
-2779.79296875
 10
5037.142578125
 20
-2769.935546875
 10
5037.142578125
 20
-2760.078125
 10
5037.142578125
 20
-2750.220703125
 10
5037.142578125
 20
-2740.36328125
 10
5037.142578125
 20
-2730.505859375
 10
5037.142578125
 20
-2720.6484375
 10
5037.142578125
 20
-2710.791015625
 10
5037.142578125
 20
-2700.93359375
 10
5037.142578125
 20
-2691.076171875
 10
5037.142578125
 20
-2681.21875
 10
5037.142578125
 20
-2671.361328125
 10
5037.142578125
 20
-2661.50390625
 10
5037.142578125
 20
-2651.646484375
 10
5037.142578125
 20
-2641.7890625
 10
5037.142578125
 20
-2631.931640625
 10
5037.142578125
 20
-2622.07421875
 10
5037.142578125
 20
-2612.216796875
 10
5037.142578125
 20
-2602.359375
 10
5037.142578125
 20
-2592.501953125
 10
5037.142578125
 20
-2582.64453125
 10
5037.142578125
 20
-2572.787109375
 10
5037.142578125
 20
-2562.9296875
 10
5037.142578125
 20
-2553.072265625
 10
5037.142578125
 20
-2543.21484375
 10
5037.142578125
 20
-2533.357421875
 10
5037.142578125
 20
-2523.5
 10
5037.142578125
 20
-2513.642578125
 10
5037.142578125
 20
-2503.78515625
 10
5037.142578125
 20
-2493.927734375
 10
5037.142578125
 20
-2484.0703125
 10
5037.142578125
 20
-2474.212890625
 10
5037.142578125
 20
-2464.35546875
 10
5037.142578125
 20
-2454.498046875
 10
5037.142578125
 20
-2444.640625
 10
5037.142578125
 20
-2434.783203125
 10
5037.142578125
 20
-2424.92578125
 10
5037.142578125
 20
-2415.068359375
 10
5037.142578125
 20
-2405.2109375
 10
5037.142578125
 20
-2395.353515625
 10
5037.142578125
 20
-2385.49609375
 10
5037.142578125
 20
-2375.638671875
 10
5037.142578125
 20
-2365.78125
 10
5037.142578125
 20
-2355.923828125
 10
5037.142578125
 20
-2346.06640625
 10
5037.142578125
 20
-2336.208984375
 10
5037.142578125
 20
-2326.3515625
 10
5037.142578125
 20
-2316.494140625
 10
5037.142578125
 20
-2306.63671875
 10
5037.142578125
 20
-2296.779296875
 10
5037.142578125
 20
-2286.921875
 10
5037.142578125
 20
-2277.064453125
 10
5037.142578125
 20
-2267.20703125
 10
5037.142578125
 20
-2257.349609375
 10
5037.142578125
 20
-2247.4921875
 10
5037.142578125
 20
-2237.634765625
 10
5037.142578125
 20
-2227.77734375
 10
5037.142578125
 20
-2217.919921875
 10
5037.142578125
 20
-2208.0625
 10
5037.142578125
 20
-2198.205078125
 10
5037.142578125
 20
-2188.34765625
 10
5037.142578125
 20
-2178.490234375
 10
5037.142578125
 20
-2168.6328125
 10
5037.142578125
 20
-2158.775390625
 10
5037.142578125
 20
-2148.91796875
 10
5037.142578125
 20
-2139.060546875
 10
5037.142578125
 20
-2129.203125
 10
5037.142578125
 20
-2119.345703125
 10
5037.142578125
 20
-2109.48828125
 10
5037.142578125
 20
-2099.630859375
 10
5037.142578125
 20
-2089.7734375
 10
5037.142578125
 20
-2079.916015625
 10
5037.142578125
 20
-2070.05859375
 10
5037.142578125
 20
-2060.201171875
 10
5037.142578125
 20
-2050.34375
 10
5037.142578125
 20
-2040.486328125
 10
5037.142578125
 20
-2030.62890625
 10
5037.142578125
 20
-2020.771484375
 10
5037.142578125
 20
-2010.9140625
 10
5037.142578125
 20
-2001.056640625
 10
5037.142578125
 20
-1991.19921875
 10
5037.142578125
 20
-1981.341796875
 10
5037.142578125
 20
-1971.484375
 10
5037.142578125
 20
-1961.626953125
 10
5037.142578125
 20
-1951.76953125
 10
5037.142578125
 20
-1941.912109375
 10
5037.142578125
 20
-1932.0546875
 10
5037.142578125
 20
-1922.197265625
 10
5037.142578125
 20
-1912.33984375
 10
5037.142578125
 20
-1902.482421875
 10
5037.142578125
 20
-1892.625
 10
5037.142578125
 20
-1882.767578125
 10
5037.142578125
 20
-1872.91015625
 10
5037.142578125
 20
-1863.052734375
 10
5037.142578125
 20
-1853.1953125
 10
5037.142578125
 20
-1843.337890625
 10
5037.142578125
 20
-1833.48046875
 10
5037.142578125
 20
-1823.623046875
 10
5037.142578125
 20
-1813.765625
 10
5037.142578125
 20
-1803.908203125
 10
5037.142578125
 20
-1794.05078125
 10
5037.142578125
 20
-1784.193359375
 10
5037.142578125
 20
-1774.3359375
 10
5037.142578125
 20
-1764.478515625
 10
5037.142578125
 20
-1754.62109375
 10
5037.142578125
 20
-1744.763671875
 10
5037.142578125
 20
-1734.90625
 10
5037.142578125
 20
-1725.048828125
 10
5037.142578125
 20
-1715.19140625
 10
5037.142578125
 20
-1705.333984375
 10
5037.142578125
 20
-1695.4765625
 10
5037.142578125
 20
-1685.619140625
 10
5037.142578125
 20
-1675.76171875
 10
5037.142578125
 20
-1665.904296875
 10
5037.142578125
 20
-1656.046875
 10
5037.142578125
 20
-1646.189453125
 10
5037.142578125
 20
-1636.33203125
 10
5037.142578125
 20
-1626.474609375
 10
5037.142578125
 20
-1616.6171875
 10
5037.142578125
 20
-1606.759765625
 10
5037.142578125
 20
-1596.90234375
 10
5037.142578125
 20
-1587.044921875
 10
5037.142578125
 20
-1577.1875
 10
5037.142578125
 20
-1567.330078125
 10
5037.142578125
 20
-1557.47265625
 10
5037.142578125
 20
-1547.615234375
 10
5037.142578125
 20
-1537.7578125
 10
5037.142578125
 20
-1527.900390625
 10
5037.142578125
 20
-1518.04296875
 10
5037.142578125
 20
-1508.185546875
 10
5037.142578125
 20
-1498.328125
 10
5037.142578125
 20
-1488.470703125
 10
5037.142578125
 20
-1478.61328125
 10
5037.142578125
 20
-1468.755859375
 10
5037.142578125
 20
-1458.8984375
 10
5037.142578125
 20
-1449.041015625
 10
5037.142578125
 20
-1439.18359375
 10
5037.142578125
 20
-1429.326171875
 10
5037.142578125
 20
-1419.46875
 10
5037.142578125
 20
-1409.611328125
 10
5037.142578125
 20
-1399.75390625
 10
5037.142578125
 20
-1389.896484375
 10
5037.142578125
 20
-1380.0390625
 10
5037.142578125
 20
-1370.181640625
 10
5037.142578125
 20
-1360.32421875
 10
5037.142578125
 20
-1350.466796875
 10
5037.142578125
 20
-1340.609375
 10
5037.142578125
 20
-1330.751953125
 10
5037.142578125
 20
-1320.89453125
 10
5037.142578125
 20
-1311.037109375
 10
5037.142578125
 20
-1301.1796875
 10
5037.142578125
 20
-1291.322265625
 10
5037.142578125
 20
-1281.46484375
 10
5037.142578125
 20
-1271.607421875
 10
5037.142578125
 20
-1261.75
 10
5037.142578125
 20
-1251.892578125
 10
5037.142578125
 20
-1242.03515625
 10
5037.142578125
 20
-1232.177734375
 10
5037.142578125
 20
-1222.3203125
 10
5037.142578125
 20
-1212.462890625
 10
5037.142578125
 20
-1202.60546875
 10
5037.142578125
 20
-1192.748046875
 10
5037.142578125
 20
-1182.890625
 10
5037.142578125
 20
-1173.033203125
 10
5037.142578125
 20
-1163.17578125
 10
5037.142578125
 20
-1153.318359375
 10
5037.142578125
 20
-1143.4609375
 10
5037.142578125
 20
-1133.603515625
 10
5037.142578125
 20
-1123.74609375
 10
5037.142578125
 20
-1113.888671875
 10
5037.142578125
 20
-1104.03125
 10
5037.142578125
 20
-1094.173828125
 10
5037.142578125
 20
-1084.31640625
 10
5037.142578125
 20
-1074.458984375
 10
5037.142578125
 20
-1064.6015625
 10
5037.142578125
 20
-1054.744140625
 10
5037.142578125
 20
-1044.88671875
 10
5037.142578125
 20
-1035.029296875
 10
5037.142578125
 20
-1025.171875
 10
5037.142578125
 20
-1015.314453125
 10
5037.142578125
 20
-1005.45703125
 10
5037.142578125
 20
-995.599609375
 10
5037.142578125
 20
-985.7421875
 10
5037.142578125
 20
-975.884765625
 10
5037.142578125
 20
-966.02734375
 10
5037.142578125
 20
-956.169921875
 10
5037.142578125
 20
-946.3125
 10
5037.142578125
 20
-936.455078125
 10
5037.142578125
 20
-926.59765625
 10
5037.142578125
 20
-916.740234375
 10
5037.142578125
 20
-906.8828125
 10
5037.142578125
 20
-897.025390625
 10
5037.142578125
 20
-887.16796875
 10
5037.142578125
 20
-877.310546875
 10
5037.142578125
 20
-867.453125
 10
5037.142578125
 20
-857.595703125
 10
5037.142578125
 20
-847.73828125
 10
5037.142578125
 20
-837.880859375
 10
5037.142578125
 20
-828.0234375
 10
5037.142578125
 20
-818.166015625
 10
5037.142578125
 20
-808.30859375
 10
5037.142578125
 20
-798.451171875
 10
5037.142578125
 20
-788.59375
 10
5037.142578125
 20
-778.736328125
 10
5037.142578125
 20
-768.87890625
 10
5037.142578125
 20
-759.021484375
 10
5037.142578125
 20
-749.1640625
 10
5037.142578125
 20
-739.306640625
 10
5037.142578125
 20
-729.44921875
 10
5037.142578125
 20
-719.591796875
 10
5037.142578125
 20
-709.734375
 10
5037.142578125
 20
-699.876953125
 10
5037.142578125
 20
-690.01953125
 10
5037.142578125
 20
-680.162109375
 10
5037.142578125
 20
-670.3046875
 10
5037.142578125
 20
-660.447265625
 10
5037.142578125
 20
-650.58984375
 10
5037.142578125
 20
-640.732421875
 10
5037.142578125
 20
-630.875
 10
5037.142578125
 20
-621.017578125
 10
5037.142578125
 20
-611.16015625
 10
5037.142578125
 20
-601.302734375
 10
5037.142578125
 20
-591.4453125
 10
5037.142578125
 20
-581.587890625
 10
5037.142578125
 20
-571.73046875
 10
5037.142578125
 20
-561.873046875
 10
5037.142578125
 20
-552.015625
 10
5037.142578125
 20
-542.158203125
 10
5037.142578125
 20
-532.30078125
 10
5037.142578125
 20
-522.443359375
 10
5037.142578125
 20
-512.5859375
 10
5037.142578125
 20
-502.728515625
 10
5037.142578125
 20
-492.87109375
 10
5037.142578125
 20
-483.013671875
 10
5037.142578125
 20
-473.15625
 10
5037.142578125
 20
-463.298828125
 10
5037.142578125
 20
-453.44140625
 10
5037.142578125
 20
-443.583984375
 10
5037.142578125
 20
-433.7265625
 10
5037.142578125
 20
-423.869140625
 10
5037.142578125
 20
-414.01171875
 10
5037.142578125
 20
-404.154296875
 10
5037.142578125
 20
-394.296875
 10
5037.142578125
 20
-384.439453125
 10
5037.142578125
 20
-374.58203125
 10
5037.142578125
 20
-364.724609375
 10
5037.142578125
 20
-354.8671875
 10
5037.142578125
 20
-345.009765625
 10
5037.142578125
 20
-335.15234375
 10
5037.142578125
 20
-325.294921875
 10
5037.142578125
 20
-315.4375
 10
5037.142578125
 20
-305.580078125
 10
5037.142578125
 20
-295.72265625
 10
5037.142578125
 20
-285.865234375
 10
5037.142578125
 20
-276.0078125
 10
5037.142578125
 20
-266.150390625
 10
5037.142578125
 20
-256.29296875
 10
5037.142578125
 20
-246.435546875
 10
5037.142578125
 20
-236.578125
 10
5037.142578125
 20
-226.720703125
 10
5037.142578125
 20
-216.86328125
 10
5037.142578125
 20
-207.005859375
 10
5037.142578125
 20
-197.1484375
 10
5037.142578125
 20
-187.291015625
 10
5037.142578125
 20
-177.43359375
 10
5037.142578125
 20
-167.576171875
 10
5037.142578125
 20
-157.71875
 10
5037.142578125
 20
-147.861328125
 10
5037.142578125
 20
-138.00390625
 10
5037.142578125
 20
-128.146484375
 10
5037.142578125
 20
-118.2890625
 10
5037.142578125
 20
-108.431640625
 10
5037.142578125
 20
-98.57421875
 10
5037.142578125
 20
-88.716796875
 10
5037.142578125
 20
-78.859375
 10
5037.142578125
 20
-69.001953125
 10
5037.142578125
 20
-59.14453125
 10
5037.142578125
 20
-49.287109375
 10
5037.142578125
 20
-39.4296875
 10
5037.142578125
 20
-29.572265625
 10
5037.142578125
 20
-19.71484375
 10
5037.142578125
 20
-9.857421875
 10
5037.142578125
 20
-0.0
 10
5027.28515625
 20
-0.0
 10
5017.427734375
 20
-0.0
 10
5007.5703125
 20
-0.0
 10
4997.712890625
 20
-0.0
 10
4987.85546875
 20
-0.0
 10
4977.998046875
 20
-0.0
 10
4968.140625
 20
-0.0
 10
4958.283203125
 20
-0.0
 10
4948.42578125
 20
-0.0
 10
4938.568359375
 20
-0.0
 10
4928.7109375
 20
-0.0
 10
4918.853515625
 20
-0.0
 10
4908.99609375
 20
-0.0
 10
4899.138671875
 20
-0.0
 10
4889.28125
 20
-0.0
 10
4879.423828125
 20
-0.0
 10
4869.56640625
 20
-0.0
 10
4859.708984375
 20
-0.0
 10
4849.8515625
 20
-0.0
 10
4839.994140625
 20
-0.0
 10
4830.13671875
 20
-0.0
 10
4820.279296875
 20
-0.0
 10
4810.421875
 20
-0.0
 10
4800.564453125
 20
-0.0
 10
4790.70703125
 20
-0.0
 10
4780.849609375
 20
-0.0
 10
4770.9921875
 20
-0.0
 10
4761.134765625
 20
-0.0
 10
4751.27734375
 20
-0.0
 10
4741.419921875
 20
-0.0
 10
4731.5625
 20
-0.0
 10
4721.705078125
 20
-0.0
 10
4711.84765625
 20
-0.0
 10
4701.990234375
 20
-0.0
 10
4692.1328125
 20
-0.0
 10
4682.275390625
 20
-0.0
 10
4672.41796875
 20
-0.0
 10
4662.560546875
 20
-0.0
 10
4652.703125
 20
-0.0
 10
4642.845703125
 20
-0.0
 10
4632.98828125
 20
-0.0
 10
4623.130859375
 20
-0.0
 10
4613.2734375
 20
-0.0
 10
4603.416015625
 20
-0.0
 10
4593.55859375
 20
-0.0
 10
4583.701171875
 20
-0.0
 10
4573.84375
 20
-0.0
 10
4563.986328125
 20
-0.0
 10
4554.12890625
 20
-0.0
 10
4544.271484375
 20
-0.0
 10
4534.4140625
 20
-0.0
 10
4524.556640625
 20
-0.0
 10
4514.69921875
 20
-0.0
 10
4504.841796875
 20
-0.0
 10
4494.984375
 20
-0.0
 10
4485.126953125
 20
-0.0
 10
4475.26953125
 20
-0.0
 10
4465.412109375
 20
-0.0
 10
4455.5546875
 20
-0.0
 10
4445.697265625
 20
-0.0
 10
4435.83984375
 20
-0.0
 10
4425.982421875
 20
-0.0
 10
4416.125
 20
-0.0
 10
4406.267578125
 20
-0.0
 10
4396.41015625
 20
-0.0
 10
4386.552734375
 20
-0.0
 10
4376.6953125
 20
-0.0
 10
4366.837890625
 20
-0.0
 10
4356.98046875
 20
-0.0
 10
4347.123046875
 20
-0.0
 10
4337.265625
 20
-0.0
 10
4327.408203125
 20
-0.0
 10
4317.55078125
 20
-0.0
 10
4307.693359375
 20
-0.0
 10
4297.8359375
 20
-0.0
 10
4287.978515625
 20
-0.0
 10
4278.12109375
 20
-0.0
 10
4268.263671875
 20
-0.0
 10
4258.40625
 20
-0.0
 10
4248.548828125
 20
-0.0
 10
4238.69140625
 20
-0.0
 10
4228.833984375
 20
-0.0
 10
4218.9765625
 20
-0.0
 10
4209.119140625
 20
-0.0
 10
4199.26171875
 20
-0.0
 10
4189.404296875
 20
-0.0
 10
4179.546875
 20
-0.0
 10
4169.689453125
 20
-0.0
 10
4159.83203125
 20
-0.0
 10
4149.974609375
 20
-0.0
 10
4140.1171875
 20
-0.0
 10
4130.259765625
 20
-0.0
 10
4120.40234375
 20
-0.0
 10
4110.544921875
 20
-0.0
 10
4100.6875
 20
-0.0
 10
4090.830078125
 20
-0.0
 10
4080.97265625
 20
-0.0
 10
4071.115234375
 20
-0.0
 10
4061.2578125
 20
-0.0
 10
4051.400390625
 20
-0.0
 10
4041.54296875
 20
-0.0
 10
4031.685546875
 20
-0.0
 10
4021.828125
 20
-0.0
 10
4011.970703125
 20
-0.0
 10
4002.11328125
 20
-0.0
 10
3992.255859375
 20
-0.0
 10
3982.3984375
 20
-0.0
 10
3972.541015625
 20
-0.0
 10
3962.68359375
 20
-0.0
 10
3952.826171875
 20
-0.0
 10
3942.96875
 20
-0.0
 10
3933.111328125
 20
-0.0
 10
3923.25390625
 20
-0.0
 10
3913.396484375
 20
-0.0
 10
3903.5390625
 20
-0.0
 10
3893.681640625
 20
-0.0
 10
3883.82421875
 20
-0.0
 10
3873.966796875
 20
-0.0
 10
3864.109375
 20
-0.0
 10
3854.251953125
 20
-0.0
 10
3844.39453125
 20
-0.0
 10
3834.537109375
 20
-0.0
 10
3824.6796875
 20
-0.0
 10
3814.822265625
 20
-0.0
 10
3804.96484375
 20
-0.0
 10
3795.107421875
 20
-0.0
 10
3785.25
 20
-0.0
 10
3775.392578125
 20
-0.0
 10
3765.53515625
 20
-0.0
 10
3755.677734375
 20
-0.0
 10
3745.8203125
 20
-0.0
 10
3735.962890625
 20
-0.0
 10
3726.10546875
 20
-0.0
 10
3716.248046875
 20
-0.0
 10
3706.390625
 20
-0.0
 10
3696.533203125
 20
-0.0
 10
3686.67578125
 20
-0.0
 10
3676.818359375
 20
-0.0
 10
3666.9609375
 20
-0.0
 10
3657.103515625
 20
-0.0
 10
3647.24609375
 20
-0.0
 10
3637.388671875
 20
-0.0
 10
3627.53125
 20
-0.0
 10
3617.673828125
 20
-0.0
 10
3607.81640625
 20
-0.0
 10
3597.958984375
 20
-0.0
 10
3588.1015625
 20
-0.0
 10
3578.244140625
 20
-0.0
 10
3568.38671875
 20
-0.0
 10
3558.529296875
 20
-0.0
 10
3548.671875
 20
-0.0
 10
3538.814453125
 20
-0.0
 10
3528.95703125
 20
-0.0
 10
3519.099609375
 20
-0.0
 10
3509.2421875
 20
-0.0
 10
3499.384765625
 20
-0.0
 10
3489.52734375
 20
-0.0
 10
3479.669921875
 20
-0.0
 10
3469.8125
 20
-0.0
 10
3459.955078125
 20
-0.0
 10
3450.09765625
 20
-0.0
 10
3440.240234375
 20
-0.0
 10
3430.3828125
 20
-0.0
 10
3420.525390625
 20
-0.0
 10
3410.66796875
 20
-0.0
 10
3400.810546875
 20
-0.0
 10
3390.953125
 20
-0.0
 10
3381.095703125
 20
-0.0
 10
3371.23828125
 20
-0.0
 10
3361.380859375
 20
-0.0
 10
3351.5234375
 20
-0.0
 10
3341.666015625
 20
-0.0
 10
3331.80859375
 20
-0.0
 10
3321.951171875
 20
-0.0
 10
3312.09375
 20
-0.0
 10
3302.236328125
 20
-0.0
 10
3292.37890625
 20
-0.0
 10
3282.521484375
 20
-0.0
 10
3272.6640625
 20
-0.0
 10
3262.806640625
 20
-0.0
 10
3252.94921875
 20
-0.0
 10
3243.091796875
 20
-0.0
 10
3233.234375
 20
-0.0
 10
3223.376953125
 20
-0.0
 10
3213.51953125
 20
-0.0
 10
3203.662109375
 20
-0.0
 10
3193.8046875
 20
-0.0
 10
3183.947265625
 20
-0.0
 10
3174.08984375
 20
-0.0
 10
3164.232421875
 20
-0.0
 10
3154.375
 20
-0.0
 10
3144.517578125
 20
-0.0
 10
3134.66015625
 20
-0.0
 10
3124.802734375
 20
-0.0
 10
3114.9453125
 20
-0.0
 10
3105.087890625
 20
-0.0
 10
3095.23046875
 20
-0.0
 10
3085.373046875
 20
-0.0
 10
3075.515625
 20
-0.0
 10
3065.658203125
 20
-0.0
 10
3055.80078125
 20
-0.0
 10
3045.943359375
 20
-0.0
 10
3036.0859375
 20
-0.0
 10
3026.228515625
 20
-0.0
 10
3016.37109375
 20
-0.0
 10
3006.513671875
 20
-0.0
 10
2996.65625
 20
-0.0
 10
2986.798828125
 20
-0.0
 10
2976.94140625
 20
-0.0
 10
2967.083984375
 20
-0.0
 10
2957.2265625
 20
-0.0
 10
2947.369140625
 20
-0.0
 10
2937.51171875
 20
-0.0
 10
2927.654296875
 20
-0.0
 10
2917.796875
 20
-0.0
 10
2907.939453125
 20
-0.0
 10
2898.08203125
 20
-0.0
 10
2888.224609375
 20
-0.0
 10
2878.3671875
 20
-0.0
 10
2868.509765625
 20
-0.0
 10
2858.65234375
 20
-0.0
 10
2848.794921875
 20
-0.0
 10
2838.9375
 20
-0.0
 10
2829.080078125
 20
-0.0
 10
2819.22265625
 20
-0.0
 10
2809.365234375
 20
-0.0
 10
2799.5078125
 20
-0.0
 10
2789.650390625
 20
-0.0
 10
2779.79296875
 20
-0.0
 10
2769.935546875
 20
-0.0
 10
2760.078125
 20
-0.0
 10
2750.220703125
 20
-0.0
 10
2740.36328125
 20
-0.0
 10
2730.505859375
 20
-0.0
 10
2720.6484375
 20
-0.0
 10
2710.791015625
 20
-0.0
 10
2700.93359375
 20
-0.0
 10
2691.076171875
 20
-0.0
 10
2681.21875
 20
-0.0
 10
2671.361328125
 20
-0.0
 10
2661.50390625
 20
-0.0
 10
2651.646484375
 20
-0.0
 10
2641.7890625
 20
-0.0
 10
2631.931640625
 20
-0.0
 10
2622.07421875
 20
-0.0
 10
2612.216796875
 20
-0.0
 10
2602.359375
 20
-0.0
 10
2592.501953125
 20
-0.0
 10
2582.64453125
 20
-0.0
 10
2572.787109375
 20
-0.0
 10
2562.9296875
 20
-0.0
 10
2553.072265625
 20
-0.0
 10
2543.21484375
 20
-0.0
 10
2533.357421875
 20
-0.0
 10
2523.5
 20
-0.0
 10
2513.642578125
 20
-0.0
 10
2503.78515625
 20
-0.0
 10
2493.927734375
 20
-0.0
 10
2484.0703125
 20
-0.0
 10
2474.212890625
 20
-0.0
 10
2464.35546875
 20
-0.0
 10
2454.498046875
 20
-0.0
 10
2444.640625
 20
-0.0
 10
2434.783203125
 20
-0.0
 10
2424.92578125
 20
-0.0
 10
2415.068359375
 20
-0.0
 10
2405.2109375
 20
-0.0
 10
2395.353515625
 20
-0.0
 10
2385.49609375
 20
-0.0
 10
2375.638671875
 20
-0.0
 10
2365.78125
 20
-0.0
 10
2355.923828125
 20
-0.0
 10
2346.06640625
 20
-0.0
 10
2336.208984375
 20
-0.0
 10
2326.3515625
 20
-0.0
 10
2316.494140625
 20
-0.0
 10
2306.63671875
 20
-0.0
 10
2296.779296875
 20
-0.0
 10
2286.921875
 20
-0.0
 10
2277.064453125
 20
-0.0
 10
2267.20703125
 20
-0.0
 10
2257.349609375
 20
-0.0
 10
2247.4921875
 20
-0.0
 10
2237.634765625
 20
-0.0
 10
2227.77734375
 20
-0.0
 10
2217.919921875
 20
-0.0
 10
2208.0625
 20
-0.0
 10
2198.205078125
 20
-0.0
 10
2188.34765625
 20
-0.0
 10
2178.490234375
 20
-0.0
 10
2168.6328125
 20
-0.0
 10
2158.775390625
 20
-0.0
 10
2148.91796875
 20
-0.0
 10
2139.060546875
 20
-0.0
 10
2129.203125
 20
-0.0
 10
2119.345703125
 20
-0.0
 10
2109.48828125
 20
-0.0
 10
2099.630859375
 20
-0.0
 10
2089.7734375
 20
-0.0
 10
2079.916015625
 20
-0.0
 10
2070.05859375
 20
-0.0
 10
2060.201171875
 20
-0.0
 10
2050.34375
 20
-0.0
 10
2040.486328125
 20
-0.0
 10
2030.62890625
 20
-0.0
 10
2020.771484375
 20
-0.0
 10
2010.9140625
 20
-0.0
 10
2001.056640625
 20
-0.0
 10
1991.19921875
 20
-0.0
 10
1981.341796875
 20
-0.0
 10
1971.484375
 20
-0.0
 10
1961.626953125
 20
-0.0
 10
1951.76953125
 20
-0.0
 10
1941.912109375
 20
-0.0
 10
1932.0546875
 20
-0.0
 10
1922.197265625
 20
-0.0
 10
1912.33984375
 20
-0.0
 10
1902.482421875
 20
-0.0
 10
1892.625
 20
-0.0
 10
1882.767578125
 20
-0.0
 10
1872.91015625
 20
-0.0
 10
1863.052734375
 20
-0.0
 10
1853.1953125
 20
-0.0
 10
1843.337890625
 20
-0.0
 10
1833.48046875
 20
-0.0
 10
1823.623046875
 20
-0.0
 10
1813.765625
 20
-0.0
 10
1803.908203125
 20
-0.0
 10
1794.05078125
 20
-0.0
 10
1784.193359375
 20
-0.0
 10
1774.3359375
 20
-0.0
 10
1764.478515625
 20
-0.0
 10
1754.62109375
 20
-0.0
 10
1744.763671875
 20
-0.0
 10
1734.90625
 20
-0.0
 10
1725.048828125
 20
-0.0
 10
1715.19140625
 20
-0.0
 10
1705.333984375
 20
-0.0
 10
1695.4765625
 20
-0.0
 10
1685.619140625
 20
-0.0
 10
1675.76171875
 20
-0.0
 10
1665.904296875
 20
-0.0
 10
1656.046875
 20
-0.0
 10
1646.189453125
 20
-0.0
 10
1636.33203125
 20
-0.0
 10
1626.474609375
 20
-0.0
 10
1616.6171875
 20
-0.0
 10
1606.759765625
 20
-0.0
 10
1596.90234375
 20
-0.0
 10
1587.044921875
 20
-0.0
 10
1577.1875
 20
-0.0
 10
1567.330078125
 20
-0.0
 10
1557.47265625
 20
-0.0
 10
1547.615234375
 20
-0.0
 10
1537.7578125
 20
-0.0
 10
1527.900390625
 20
-0.0
 10
1518.04296875
 20
-0.0
 10
1508.185546875
 20
-0.0
 10
1498.328125
 20
-0.0
 10
1488.470703125
 20
-0.0
 10
1478.61328125
 20
-0.0
 10
1468.755859375
 20
-0.0
 10
1458.8984375
 20
-0.0
 10
1449.041015625
 20
-0.0
 10
1439.18359375
 20
-0.0
 10
1429.326171875
 20
-0.0
 10
1419.46875
 20
-0.0
 10
1409.611328125
 20
-0.0
 10
1399.75390625
 20
-0.0
 10
1389.896484375
 20
-0.0
 10
1380.0390625
 20
-0.0
 10
1370.181640625
 20
-0.0
 10
1360.32421875
 20
-0.0
 10
1350.466796875
 20
-0.0
 10
1340.609375
 20
-0.0
 10
1330.751953125
 20
-0.0
 10
1320.89453125
 20
-0.0
 10
1311.037109375
 20
-0.0
 10
1301.1796875
 20
-0.0
 10
1291.322265625
 20
-0.0
 10
1281.46484375
 20
-0.0
 10
1271.607421875
 20
-0.0
 10
1261.75
 20
-0.0
 10
1251.892578125
 20
-0.0
 10
1242.03515625
 20
-0.0
 10
1232.177734375
 20
-0.0
 10
1222.3203125
 20
-0.0
 10
1212.462890625
 20
-0.0
 10
1202.60546875
 20
-0.0
 10
1192.748046875
 20
-0.0
 10
1182.890625
 20
-0.0
 10
1173.033203125
 20
-0.0
 10
1163.17578125
 20
-0.0
 10
1153.318359375
 20
-0.0
 10
1143.4609375
 20
-0.0
 10
1133.603515625
 20
-0.0
 10
1123.74609375
 20
-0.0
 10
1113.888671875
 20
-0.0
 10
1104.03125
 20
-0.0
 10
1094.173828125
 20
-0.0
 10
1084.31640625
 20
-0.0
 10
1074.458984375
 20
-0.0
 10
1064.6015625
 20
-0.0
 10
1054.744140625
 20
-0.0
 10
1044.88671875
 20
-0.0
 10
1035.029296875
 20
-0.0
 10
1025.171875
 20
-0.0
 10
1015.314453125
 20
-0.0
 10
1005.45703125
 20
-0.0
 10
995.599609375
 20
-0.0
 10
985.7421875
 20
-0.0
 10
975.884765625
 20
-0.0
 10
966.02734375
 20
-0.0
 10
956.169921875
 20
-0.0
 10
946.3125
 20
-0.0
 10
936.455078125
 20
-0.0
 10
926.59765625
 20
-0.0
 10
916.740234375
 20
-0.0
 10
906.8828125
 20
-0.0
 10
897.025390625
 20
-0.0
 10
887.16796875
 20
-0.0
 10
877.310546875
 20
-0.0
 10
867.453125
 20
-0.0
 10
857.595703125
 20
-0.0
 10
847.73828125
 20
-0.0
 10
837.880859375
 20
-0.0
 10
828.0234375
 20
-0.0
 10
818.166015625
 20
-0.0
 10
808.30859375
 20
-0.0
 10
798.451171875
 20
-0.0
 10
788.59375
 20
-0.0
 10
778.736328125
 20
-0.0
 10
768.87890625
 20
-0.0
 10
759.021484375
 20
-0.0
 10
749.1640625
 20
-0.0
 10
739.306640625
 20
-0.0
 10
729.44921875
 20
-0.0
 10
719.591796875
 20
-0.0
 10
709.734375
 20
-0.0
 10
699.876953125
 20
-0.0
 10
690.01953125
 20
-0.0
 10
680.162109375
 20
-0.0
 10
670.3046875
 20
-0.0
 10
660.447265625
 20
-0.0
 10
650.58984375
 20
-0.0
 10
640.732421875
 20
-0.0
 10
630.875
 20
-0.0
 10
621.017578125
 20
-0.0
 10
611.16015625
 20
-0.0
 10
601.302734375
 20
-0.0
 10
591.4453125
 20
-0.0
 10
581.587890625
 20
-0.0
 10
571.73046875
 20
-0.0
 10
561.873046875
 20
-0.0
 10
552.015625
 20
-0.0
 10
542.158203125
 20
-0.0
 10
532.30078125
 20
-0.0
 10
522.443359375
 20
-0.0
 10
512.5859375
 20
-0.0
 10
502.728515625
 20
-0.0
 10
492.87109375
 20
-0.0
 10
483.013671875
 20
-0.0
 10
473.15625
 20
-0.0
 10
463.298828125
 20
-0.0
 10
453.44140625
 20
-0.0
 10
443.583984375
 20
-0.0
 10
433.7265625
 20
-0.0
 10
423.869140625
 20
-0.0
 10
414.01171875
 20
-0.0
 10
404.154296875
 20
-0.0
 10
394.296875
 20
-0.0
 10
384.439453125
 20
-0.0
 10
374.58203125
 20
-0.0
 10
364.724609375
 20
-0.0
 10
354.8671875
 20
-0.0
 10
345.009765625
 20
-0.0
 10
335.15234375
 20
-0.0
 10
325.294921875
 20
-0.0
 10
315.4375
 20
-0.0
 10
305.580078125
 20
-0.0
 10
295.72265625
 20
-0.0
 10
285.865234375
 20
-0.0
 10
276.0078125
 20
-0.0
 10
266.150390625
 20
-0.0
 10
256.29296875
 20
-0.0
 10
246.435546875
 20
-0.0
 10
236.578125
 20
-0.0
 10
226.720703125
 20
-0.0
 10
216.86328125
 20
-0.0
 10
207.005859375
 20
-0.0
 10
197.1484375
 20
-0.0
 10
187.291015625
 20
-0.0
 10
177.43359375
 20
-0.0
 10
167.576171875
 20
-0.0
 10
157.71875
 20
-0.0
 10
147.861328125
 20
-0.0
 10
138.00390625
 20
-0.0
 10
128.146484375
 20
-0.0
 10
118.2890625
 20
-0.0
 10
108.431640625
 20
-0.0
 10
98.57421875
 20
-0.0
 10
88.716796875
 20
-0.0
 10
78.859375
 20
-0.0
 10
69.001953125
 20
-0.0
 10
59.14453125
 20
-0.0
 10
49.287109375
 20
-0.0
 10
39.4296875
 20
-0.0
 10
29.572265625
 20
-0.0
 10
19.71484375
 20
-0.0
 10
9.857421875
 20
-0.0
  0
LWPOLYLINE
  5
37
330
17
100
AcDbEntity
  8
substrate
100
AcDbPolyline
 90
4
 70
1
 43
0.5
 10
463.298828125
 20
-3095.23046875
 10
473.15625
 20
-3085.373046875
 10
483.013671875
 20
-3095.23046875
 10
473.15625
 20
-3105.087890625
  0
LWPOLYLINE
  5
38
330
17
100
AcDbEntity
  8
substrate
100
AcDbPolyline
 90
12
 70
1
 43
0.5
 10
433.7265625
 20
-3065.658203125
 10
443.583984375
 20
-3055.80078125
 10
453.44140625
 20
-3065.658203125
 10
463.298828125
 20
-3065.658203125
 10
473.15625
 20
-3075.515625
 10
473.15625
 20
-3085.373046875
 10
463.298828125
 20
-3095.23046875
 10
453.44140625
 20
-3105.087890625
 10
443.583984375
 20
-3105.087890625
 10
433.7265625
 20
-3095.23046875
 10
433.7265625
 20
-3085.373046875
 10
433.7265625
 20
-3075.515625
  0
LWPOLYLINE
  5
39
330
17
100
AcDbEntity
  8
substrate
100
AcDbPolyline
 90
9
 70
1
 43
0.5
 10
4475.26953125
 20
-2868.509765625
 10
4485.126953125
 20
-2858.65234375
 10
4494.984375
 20
-2858.65234375
 10
4504.841796875
 20
-2868.509765625
 10
4494.984375
 20
-2878.3671875
 10
4494.984375
 20
-2888.224609375
 10
4485.126953125
 20
-2898.08203125
 10
4475.26953125
 20
-2888.224609375
 10
4475.26953125
 20
-2878.3671875
  0
LWPOLYLINE
  5
3A
330
17
100
AcDbEntity
  8
substrate
100
AcDbPolyline
 90
4
 70
1
 43
0.5
 10
1695.4765625
 20
-2868.509765625
 10
1705.333984375
 20
-2858.65234375
 10
1715.19140625
 20
-2868.509765625
 10
1705.333984375
 20
-2878.3671875
  0
LWPOLYLINE
  5
3B
330
17
100
AcDbEntity
  8
substrate
100
AcDbPolyline
 90
4
 70
1
 43
0.5
 10
1715.19140625
 20
-2237.634765625
 10
1725.048828125
 20
-2227.77734375
 10
1734.90625
 20
-2237.634765625
 10
1725.048828125
 20
-2247.4921875
  0
LWPOLYLINE
  5
3C
330
17
100
AcDbEntity
  8
substrate
100
AcDbPolyline
 90
6
 70
1
 43
0.5
 10
1695.4765625
 20
-2237.634765625
 10
1705.333984375
 20
-2227.77734375
 10
1715.19140625
 20
-2237.634765625
 10
1715.19140625
 20
-2247.4921875
 10
1705.333984375
 20
-2257.349609375
 10
1695.4765625
 20
-2247.4921875
  0
LWPOLYLINE
  5
3D
330
17
100
AcDbEntity
  8
substrate
100
AcDbPolyline
 90
4
 70
1
 43
0.5
 10
1064.6015625
 20
-2237.634765625
 10
1074.458984375
 20
-2227.77734375
 10
1084.31640625
 20
-2237.634765625
 10
1074.458984375
 20
-2247.4921875
  0
LWPOLYLINE
  5
3E
330
17
100
AcDbEntity
  8
substrate
100
AcDbPolyline
 90
213
 70
1
 43
0.5
 10
2474.212890625
 20
-2158.775390625
 10
2484.0703125
 20
-2148.91796875
 10
2493.927734375
 20
-2148.91796875
 10
2503.78515625
 20
-2148.91796875
 10
2513.642578125
 20
-2148.91796875
 10
2523.5
 20
-2148.91796875
 10
2533.357421875
 20
-2148.91796875
 10
2543.21484375
 20
-2148.91796875
 10
2553.072265625
 20
-2158.775390625
 10
2562.9296875
 20
-2158.775390625
 10
2572.787109375
 20
-2158.775390625
 10
2582.64453125
 20
-2158.775390625
 10
2592.501953125
 20
-2158.775390625
 10
2602.359375
 20
-2158.775390625
 10
2612.216796875
 20
-2158.775390625
 10
2622.07421875
 20
-2168.6328125
 10
2631.931640625
 20
-2168.6328125
 10
2641.7890625
 20
-2168.6328125
 10
2651.646484375
 20
-2178.490234375
 10
2661.50390625
 20
-2178.490234375
 10
2671.361328125
 20
-2178.490234375
 10
2681.21875
 20
-2188.34765625
 10
2691.076171875
 20
-2188.34765625
 10
2700.93359375
 20
-2198.205078125
 10
2710.791015625
 20
-2208.0625
 10
2720.6484375
 20
-2217.919921875
 10
2730.505859375
 20
-2217.919921875
 10
2740.36328125
 20
-2217.919921875
 10
2750.220703125
 20
-2217.919921875
 10
2760.078125
 20
-2227.77734375
 10
2769.935546875
 20
-2237.634765625
 10
2779.79296875
 20
-2247.4921875
 10
2789.650390625
 20
-2247.4921875
 10
2799.5078125
 20
-2257.349609375
 10
2799.5078125
 20
-2267.20703125
 10
2799.5078125
 20
-2277.064453125
 10
2809.365234375
 20
-2286.921875
 10
2819.22265625
 20
-2296.779296875
 10
2829.080078125
 20
-2306.63671875
 10
2838.9375
 20
-2316.494140625
 10
2838.9375
 20
-2326.3515625
 10
2838.9375
 20
-2336.208984375
 10
2848.794921875
 20
-2346.06640625
 10
2848.794921875
 20
-2355.923828125
 10
2848.794921875
 20
-2365.78125
 10
2848.794921875
 20
-2375.638671875
 10
2858.65234375
 20
-2385.49609375
 10
2858.65234375
 20
-2395.353515625
 10
2858.65234375
 20
-2405.2109375
 10
2868.509765625
 20
-2415.068359375
 10
2868.509765625
 20
-2424.92578125
 10
2868.509765625
 20
-2434.783203125
 10
2878.3671875
 20
-2444.640625
 10
2878.3671875
 20
-2454.498046875
 10
2878.3671875
 20
-2464.35546875
 10
2888.224609375
 20
-2474.212890625
 10
2888.224609375
 20
-2484.0703125
 10
2888.224609375
 20
-2493.927734375
 10
2888.224609375
 20
-2503.78515625
 10
2888.224609375
 20
-2513.642578125
 10
2888.224609375
 20
-2523.5
 10
2888.224609375
 20
-2533.357421875
 10
2888.224609375
 20
-2543.21484375
 10
2888.224609375
 20
-2553.072265625
 10
2888.224609375
 20
-2562.9296875
 10
2888.224609375
 20
-2572.787109375
 10
2888.224609375
 20
-2582.64453125
 10
2878.3671875
 20
-2592.501953125
 10
2878.3671875
 20
-2602.359375
 10
2868.509765625
 20
-2612.216796875
 10
2868.509765625
 20
-2622.07421875
 10
2868.509765625
 20
-2631.931640625
 10
2858.65234375
 20
-2641.7890625
 10
2858.65234375
 20
-2651.646484375
 10
2858.65234375
 20
-2661.50390625
 10
2848.794921875
 20
-2671.361328125
 10
2848.794921875
 20
-2681.21875
 10
2848.794921875
 20
-2691.076171875
 10
2838.9375
 20
-2700.93359375
 10
2838.9375
 20
-2710.791015625
 10
2829.080078125
 20
-2720.6484375
 10
2819.22265625
 20
-2730.505859375
 10
2809.365234375
 20
-2740.36328125
 10
2799.5078125
 20
-2750.220703125
 10
2789.650390625
 20
-2760.078125
 10
2779.79296875
 20
-2769.935546875
 10
2769.935546875
 20
-2779.79296875
 10
2760.078125
 20
-2789.650390625
 10
2750.220703125
 20
-2799.5078125
 10
2740.36328125
 20
-2809.365234375
 10
2730.505859375
 20
-2819.22265625
 10
2720.6484375
 20
-2819.22265625
 10
2710.791015625
 20
-2819.22265625
 10
2700.93359375
 20
-2829.080078125
 10
2691.076171875
 20
-2829.080078125
 10
2681.21875
 20
-2829.080078125
 10
2671.361328125
 20
-2838.9375
 10
2661.50390625
 20
-2838.9375
 10
2651.646484375
 20
-2848.794921875
 10
2641.7890625
 20
-2848.794921875
 10
2631.931640625
 20
-2858.65234375
 10
2622.07421875
 20
-2858.65234375
 10
2612.216796875
 20
-2868.509765625
 10
2602.359375
 20
-2868.509765625
 10
2592.501953125
 20
-2878.3671875
 10
2582.64453125
 20
-2878.3671875
 10
2572.787109375
 20
-2888.224609375
 10
2562.9296875
 20
-2888.224609375
 10
2553.072265625
 20
-2888.224609375
 10
2543.21484375
 20
-2888.224609375
 10
2533.357421875
 20
-2898.08203125
 10
2523.5
 20
-2898.08203125
 10
2513.642578125
 20
-2898.08203125
 10
2503.78515625
 20
-2898.08203125
 10
2493.927734375
 20
-2888.224609375
 10
2484.0703125
 20
-2878.3671875
 10
2474.212890625
 20
-2878.3671875
 10
2464.35546875
 20
-2878.3671875
 10
2454.498046875
 20
-2878.3671875
 10
2444.640625
 20
-2878.3671875
 10
2434.783203125
 20
-2868.509765625
 10
2424.92578125
 20
-2868.509765625
 10
2415.068359375
 20
-2868.509765625
 10
2405.2109375
 20
-2858.65234375
 10
2395.353515625
 20
-2858.65234375
 10
2385.49609375
 20
-2858.65234375
 10
2375.638671875
 20
-2848.794921875
 10
2365.78125
 20
-2848.794921875
 10
2355.923828125
 20
-2838.9375
 10
2346.06640625
 20
-2838.9375
 10
2336.208984375
 20
-2838.9375
 10
2326.3515625
 20
-2829.080078125
 10
2316.494140625
 20
-2829.080078125
 10
2306.63671875
 20
-2829.080078125
 10
2296.779296875
 20
-2819.22265625
 10
2286.921875
 20
-2809.365234375
 10
2277.064453125
 20
-2799.5078125
 10
2267.20703125
 20
-2789.650390625
 10
2257.349609375
 20
-2779.79296875
 10
2247.4921875
 20
-2769.935546875
 10
2237.634765625
 20
-2760.078125
 10
2237.634765625
 20
-2750.220703125
 10
2227.77734375
 20
-2740.36328125
 10
2217.919921875
 20
-2730.505859375
 10
2217.919921875
 20
-2720.6484375
 10
2208.0625
 20
-2710.791015625
 10
2198.205078125
 20
-2700.93359375
 10
2198.205078125
 20
-2691.076171875
 10
2188.34765625
 20
-2681.21875
 10
2188.34765625
 20
-2671.361328125
 10
2178.490234375
 20
-2661.50390625
 10
2178.490234375
 20
-2651.646484375
 10
2178.490234375
 20
-2641.7890625
 10
2168.6328125
 20
-2631.931640625
 10
2168.6328125
 20
-2622.07421875
 10
2168.6328125
 20
-2612.216796875
 10
2168.6328125
 20
-2602.359375
 10
2168.6328125
 20
-2592.501953125
 10
2168.6328125
 20
-2582.64453125
 10
2158.775390625
 20
-2572.787109375
 10
2158.775390625
 20
-2562.9296875
 10
2158.775390625
 20
-2553.072265625
 10
2158.775390625
 20
-2543.21484375
 10
2158.775390625
 20
-2533.357421875
 10
2158.775390625
 20
-2523.5
 10
2148.91796875
 20
-2513.642578125
 10
2158.775390625
 20
-2503.78515625
 10
2158.775390625
 20
-2493.927734375
 10
2158.775390625
 20
-2484.0703125
 10
2158.775390625
 20
-2474.212890625
 10
2158.775390625
 20
-2464.35546875
 10
2168.6328125
 20
-2454.498046875
 10
2168.6328125
 20
-2444.640625
 10
2168.6328125
 20
-2434.783203125
 10
2178.490234375
 20
-2424.92578125
 10
2178.490234375
 20
-2415.068359375
 10
2178.490234375
 20
-2405.2109375
 10
2188.34765625
 20
-2395.353515625
 10
2188.34765625
 20
-2385.49609375
 10
2188.34765625
 20
-2375.638671875
 10
2198.205078125
 20
-2365.78125
 10
2198.205078125
 20
-2355.923828125
 10
2198.205078125
 20
-2346.06640625
 10
2208.0625
 20
-2336.208984375
 10
2208.0625
 20
-2326.3515625
 10
2217.919921875
 20
-2316.494140625
 10
2227.77734375
 20
-2316.494140625
 10
2237.634765625
 20
-2306.63671875
 10
2247.4921875
 20
-2296.779296875
 10
2247.4921875
 20
-2286.921875
 10
2257.349609375
 20
-2277.064453125
 10
2267.20703125
 20
-2267.20703125
 10
2277.064453125
 20
-2267.20703125
 10
2286.921875
 20
-2257.349609375
 10
2296.779296875
 20
-2247.4921875
 10
2306.63671875
 20
-2237.634765625
 10
2316.494140625
 20
-2227.77734375
 10
2326.3515625
 20
-2217.919921875
 10
2336.208984375
 20
-2208.0625
 10
2346.06640625
 20
-2208.0625
 10
2355.923828125
 20
-2208.0625
 10
2365.78125
 20
-2198.205078125
 10
2375.638671875
 20
-2188.34765625
 10
2385.49609375
 20
-2188.34765625
 10
2395.353515625
 20
-2188.34765625
 10
2395.353515625
 20
-2178.490234375
 10
2405.2109375
 20
-2168.6328125
 10
2415.068359375
 20
-2168.6328125
 10
2424.92578125
 20
-2168.6328125
 10
2434.783203125
 20
-2168.6328125
 10
2444.640625
 20
-2168.6328125
 10
2454.498046875
 20
-2168.6328125
 10
2464.35546875
 20
-2158.775390625
  0
LWPOLYLINE
  5
3F
330
17
100
AcDbEntity
  8
substrate
100
AcDbPolyline
 90
20
 70
1
 43
0.5
 10
2316.494140625
 20
-2562.9296875
 10
2306.63671875
 20
-2572.787109375
 10
2316.494140625
 20
-2582.64453125
 10
2316.494140625
 20
-2592.501953125
 10
2316.494140625
 20
-2602.359375
 10
2316.494140625
 20
-2612.216796875
 10
2326.3515625
 20
-2612.216796875
 10
2336.208984375
 20
-2622.07421875
 10
2346.06640625
 20
-2622.07421875
 10
2355.923828125
 20
-2622.07421875
 10
2365.78125
 20
-2622.07421875
 10
2375.638671875
 20
-2612.216796875
 10
2375.638671875
 20
-2602.359375
 10
2375.638671875
 20
-2592.501953125
 10
2375.638671875
 20
-2582.64453125
 10
2365.78125
 20
-2582.64453125
 10
2355.923828125
 20
-2582.64453125
 10
2346.06640625
 20
-2582.64453125
 10
2336.208984375
 20
-2582.64453125
 10
2326.3515625
 20
-2572.787109375
  0
LWPOLYLINE
  5
40
330
17
100
AcDbEntity
  8
substrate
100
AcDbPolyline
 90
4
 70
1
 43
0.5
 10
828.0234375
 20
-1389.896484375
 10
837.880859375
 20
-1380.0390625
 10
847.73828125
 20
-1389.896484375
 10
837.880859375
 20
-1399.75390625
  0
LWPOLYLINE
  5
41
330
17
100
AcDbEntity
  8
substrate
100
AcDbPolyline
 90
4
 70
1
 43
0.5
 10
847.73828125
 20
-759.021484375
 10
857.595703125
 20
-749.1640625
 10
867.453125
 20
-759.021484375
 10
857.595703125
 20
-768.87890625
  0
LWPOLYLINE
  5
42
330
17
100
AcDbEntity
  8
substrate
100
AcDbPolyline
 90
4
 70
1
 43
0.5
 10
828.0234375
 20
-759.021484375
 10
837.880859375
 20
-749.1640625
 10
847.73828125
 20
-759.021484375
 10
837.880859375
 20
-768.87890625
  0
LWPOLYLINE
  5
43
330
17
100
AcDbEntity
  8
substrate
100
AcDbPolyline
 90
4
 70
1
 43
0.5
 10
3824.6796875
 20
-364.724609375
 10
3834.537109375
 20
-354.8671875
 10
3844.39453125
 20
-364.724609375
 10
3834.537109375
 20
-374.58203125
  0
ENDSEC
  0
SECTION
  2
OBJECTS
  0
DICTIONARY
  5
A
330
0
100
AcDbDictionary
280
0
281
1
  3
ACAD_COLOR
350
B
  3
ACAD_GROUP
350
C
  3
ACAD_LAYOUT
350
D
  3
ACAD_MATERIAL
350
E
  3
ACAD_MLEADERSTYLE
350
F
  3
ACAD_MLINESTYLE
350
10
  3
ACAD_PLOTSETTINGS
350
11
  3
ACAD_PLOTSTYLENAME
350
12
  3
ACAD_SCALELIST
350
14
  3
ACAD_TABLESTYLE
350
15
  3
ACAD_VISUALSTYLE
350
16
  3
EZDXF_META
350
2D
  0
DICTIONARY
  5
B
330
A
100
AcDbDictionary
280
0
281
1
  0
DICTIONARY
  5
C
330
A
100
AcDbDictionary
280
0
281
1
  0
DICTIONARY
  5
D
330
A
100
AcDbDictionary
280
0
281
1
  3
Model
350
1A
  3
Layout1
350
1E
  0
DICTIONARY
  5
E
330
A
100
AcDbDictionary
280
0
281
1
  3
ByBlock
350
1F
  3
ByLayer
350
20
  3
Global
350
21
  0
DICTIONARY
  5
F
330
A
100
AcDbDictionary
280
0
281
1
  3
Standard
350
2C
  0
DICTIONARY
  5
10
330
A
100
AcDbDictionary
280
0
281
1
  3
Standard
350
22
  0
DICTIONARY
  5
11
330
A
100
AcDbDictionary
280
0
281
1
  0
ACDBDICTIONARYWDFLT
  5
12
330
A
100
AcDbDictionary
280
0
281
1
  3
Normal
350
13
100
AcDbDictionaryWithDefault
340
13
  0
ACDBPLACEHOLDER
  5
13
330
12
  0
DICTIONARY
  5
14
330
A
100
AcDbDictionary
280
0
281
1
  0
DICTIONARY
  5
15
330
A
100
AcDbDictionary
280
0
281
1
  0
DICTIONARY
  5
16
330
A
100
AcDbDictionary
280
0
281
1
  0
LAYOUT
  5
1A
330
D
100
AcDbPlotSettings
  1

  2
Adobe PDF
  4
A3
  6

 40
7.5
 41
20.0
 42
7.5
 43
20.0
 44
420.0
 45
297.0
 46
0.0
 47
0.0
 48
0.0
 49
0.0
140
0.0
141
0.0
142
1.0
143
1.0
 70
1024
 72
1
 73
0
 74
5
  7

 75
16
 76
0
 77
2
 78
300
147
1.0
148
0.0
149
0.0
100
AcDbLayout
  1
Model
 70
1
 71
0
 10
0.0
 20
0.0
 11
420.0
 21
297.0
 12
0.0
 22
0.0
 32
0.0
 14
1e+20
 24
1e+20
 34
1e+20
 15
-1e+20
 25
-1e+20
 35
-1e+20
146
0.0
 13
0.0
 23
0.0
 33
0.0
 16
1.0
 26
0.0
 36
0.0
 17
0.0
 27
1.0
 37
0.0
 76
1
330
17
  0
LAYOUT
  5
1E
330
D
100
AcDbPlotSettings
  1

  2
Adobe PDF
  4
A3
  6

 40
7.5
 41
20.0
 42
7.5
 43
20.0
 44
420.0
 45
297.0
 46
0.0
 47
0.0
 48
0.0
 49
0.0
140
0.0
141
0.0
142
1.0
143
1.0
 70
0
 72
1
 73
0
 74
5
  7

 75
16
 76
0
 77
2
 78
300
147
1.0
148
0.0
149
0.0
100
AcDbLayout
  1
Layout1
 70
1
 71
1
 10
0.0
 20
0.0
 11
420.0
 21
297.0
 12
0.0
 22
0.0
 32
0.0
 14
1e+20
 24
1e+20
 34
1e+20
 15
-1e+20
 25
-1e+20
 35
-1e+20
146
0.0
 13
0.0
 23
0.0
 33
0.0
 16
1.0
 26
0.0
 36
0.0
 17
0.0
 27
1.0
 37
0.0
 76
1
330
1B
  0
MATERIAL
  5
1F
102
{ACAD_REACTORS
330
E
102
}
330
E
100
AcDbMaterial
  1
ByBlock
  2

 70
0
 40
1.0
 71
1
 41
1.0
 91
-1023410177
 42
1.0
 72
1
  3

 73
1
 74
1
 75
1
 44
0.5
 73
0
 45
1.0
 46
1.0
 77
1
  4

 78
1
 79
1
170
1
 48
1.0
171
1
  6

172
1
173
1
174
1
140
1.0
141
1.0
175
1
  7

176
1
177
1
178
1
143
1.0
179
1
  8

270
1
271
1
272
1
145
1.0
146
1.0
273
1
  9

274
1
275
1
276
1
 42
1.0
 72
1
  3

 73
1
 74
1
 75
1
 94
63
  0
MATERIAL
  5
20
102
{ACAD_REACTORS
330
E
102
}
330
E
100
AcDbMaterial
  1
ByLayer
  2

 70
0
 40
1.0
 71
1
 41
1.0
 91
-1023410177
 42
1.0
 72
1
  3

 73
1
 74
1
 75
1
 44
0.5
 73
0
 45
1.0
 46
1.0
 77
1
  4

 78
1
 79
1
170
1
 48
1.0
171
1
  6

172
1
173
1
174
1
140
1.0
141
1.0
175
1
  7

176
1
177
1
178
1
143
1.0
179
1
  8

270
1
271
1
272
1
145
1.0
146
1.0
273
1
  9

274
1
275
1
276
1
 42
1.0
 72
1
  3

 73
1
 74
1
 75
1
 94
63
  0
MATERIAL
  5
21
102
{ACAD_REACTORS
330
E
102
}
330
E
100
AcDbMaterial
  1
Global
  2

 70
0
 40
1.0
 71
1
 41
1.0
 91
-1023410177
 42
1.0
 72
1
  3

 73
1
 74
1
 75
1
 44
0.5
 73
0
 45
1.0
 46
1.0
 77
1
  4

 78
1
 79
1
170
1
 48
1.0
171
1
  6

172
1
173
1
174
1
140
1.0
141
1.0
175
1
  7

176
1
177
1
178
1
143
1.0
179
1
  8

270
1
271
1
272
1
145
1.0
146
1.0
273
1
  9

274
1
275
1
276
1
 42
1.0
 72
1
  3

 73
1
 74
1
 75
1
 94
63
  0
MLINESTYLE
  5
22
102
{ACAD_REACTORS
330
10
102
}
330
10
100
AcDbMlineStyle
  2
Standard
 70
0
  3

 62
256
 51
90.0
 52
90.0
 71
2
 49
0.5
 62
256
  6
BYLAYER
 49
-0.5
 62
256
  6
BYLAYER
  0
MLEADERSTYLE
  5
2C
102
{ACAD_REACTORS
330
F
102
}
330
F
100
AcDbMLeaderStyle
179
2
170
2
171
1
172
0
 90
2
 40
0.0
 41
0.0
173
1
 91
-1056964608
 92
-2
290
1
 42
2.0
291
1
 43
8.0
  3
Standard
 44
4.0
300

342
29
174
1
175
1
176
0
178
1
 93
-1056964608
 45
4.0
292
0
297
0
 46
4.0
 94
-1056964608
 47
1.0
 49
1.0
140
1.0
294
1
141
0.0
177
0
142
1.0
295
0
296
0
143
3.75
271
0
272
9
273
9
  0
DICTIONARY
  5
2D
330
A
100
AcDbDictionary
281
1
  3
CREATED_BY_EZDXF
350
2E
  3
WRITTEN_BY_EZDXF
350
46
  0
DICTIONARYVAR
  5
2E
330
2D
100
DictionaryVariables
280
0
  1
1.1.0 @ 2025-02-18T12:26:31.193259+00:00
  0
DICTIONARYVAR
  5
46
330
2D
100
DictionaryVariables
280
0
  1
1.1.0 @ 2025-02-18T12:26:31.198537+00:00
  0
ENDSEC
  0
EOF
