  0
SECTION
  2
HEADER
  9
$ACADVER
  1
AC1027
  9
$ACADMAINTVER
 70
105
  9
$DWGCODEPAGE
  3
ANSI_1252
  9
$LASTSAVEDBY
  1
ezdxf
  9
$REQUIREDVERSIONS
160
0
  9
$INSBASE
 10
0.0
 20
0.0
 30
0.0
  9
$EXTMIN
 10
1e+20
 20
1e+20
 30
1e+20
  9
$EXTMAX
 10
-1e+20
 20
-1e+20
 30
-1e+20
  9
$LIMMIN
 10
0.0
 20
0.0
  9
$LIMMAX
 10
420.0
 20
297.0
  9
$ORTHOMODE
 70
0
  9
$REGENMODE
 70
1
  9
$FILLMODE
 70
1
  9
$QTEXTMODE
 70
0
  9
$MIRRTEXT
 70
1
  9
$LTSCALE
 40
1.0
  9
$ATTMODE
 70
1
  9
$TEXTSIZE
 40
2.5
  9
$TRACEWID
 40
1.0
  9
$TEXTSTYLE
  7
Standard
  9
$CLAYER
  8
0
  9
$CELTYPE
  6
ByLayer
  9
$CECOLOR
 62
256
  9
$CELTSCALE
 40
1.0
  9
$DISPSILH
 70
0
  9
$DIMSCALE
 40
1.0
  9
$DIMASZ
 40
2.5
  9
$DIMEXO
 40
0.625
  9
$DIMDLI
 40
3.75
  9
$DIMRND
 40
0.0
  9
$DIMDLE
 40
0.0
  9
$DIMEXE
 40
1.25
  9
$DIMTP
 40
0.0
  9
$DIMTM
 40
0.0
  9
$DIMTXT
 40
2.5
  9
$DIMCEN
 40
2.5
  9
$DIMTSZ
 40
0.0
  9
$DIMTOL
 70
0
  9
$DIMLIM
 70
0
  9
$DIMTIH
 70
0
  9
$DIMTOH
 70
0
  9
$DIMSE1
 70
0
  9
$DIMSE2
 70
0
  9
$DIMTAD
 70
1
  9
$DIMZIN
 70
8
  9
$DIMBLK
  1

  9
$DIMASO
 70
1
  9
$DIMSHO
 70
1
  9
$DIMPOST
  1

  9
$DIMAPOST
  1

  9
$DIMALT
 70
0
  9
$DIMALTD
 70
3
  9
$DIMALTF
 40
0.03937007874
  9
$DIMLFAC
 40
1.0
  9
$DIMTOFL
 70
1
  9
$DIMTVP
 40
0.0
  9
$DIMTIX
 70
0
  9
$DIMSOXD
 70
0
  9
$DIMSAH
 70
0
  9
$DIMBLK1
  1

  9
$DIMBLK2
  1

  9
$DIMSTYLE
  2
ISO-25
  9
$DIMCLRD
 70
0
  9
$DIMCLRE
 70
0
  9
$DIMCLRT
 70
0
  9
$DIMTFAC
 40
1.0
  9
$DIMGAP
 40
0.625
  9
$DIMJUST
 70
0
  9
$DIMSD1
 70
0
  9
$DIMSD2
 70
0
  9
$DIMTOLJ
 70
0
  9
$DIMTZIN
 70
8
  9
$DIMALTZ
 70
0
  9
$DIMALTTZ
 70
0
  9
$DIMUPT
 70
0
  9
$DIMDEC
 70
2
  9
$DIMTDEC
 70
2
  9
$DIMALTU
 70
2
  9
$DIMALTTD
 70
3
  9
$DIMTXSTY
  7
Standard
  9
$DIMAUNIT
 70
0
  9
$DIMADEC
 70
0
  9
$DIMALTRND
 40
0.0
  9
$DIMAZIN
 70
0
  9
$DIMDSEP
 70
44
  9
$DIMATFIT
 70
3
  9
$DIMFRAC
 70
0
  9
$DIMLDRBLK
  1

  9
$DIMLUNIT
 70
2
  9
$DIMLWD
 70
-2
  9
$DIMLWE
 70
-2
  9
$DIMTMOVE
 70
0
  9
$DIMFXL
 40
1.0
  9
$DIMFXLON
 70
0
  9
$DIMJOGANG
 40
0.785398163397
  9
$DIMTFILL
 70
0
  9
$DIMTFILLCLR
 70
0
  9
$DIMARCSYM
 70
0
  9
$DIMLTYPE
  6

  9
$DIMLTEX1
  6

  9
$DIMLTEX2
  6

  9
$DIMTXTDIRECTION
 70
0
  9
$LUNITS
 70
2
  9
$LUPREC
 70
4
  9
$SKETCHINC
 40
1.0
  9
$FILLETRAD
 40
10.0
  9
$AUNITS
 70
0
  9
$AUPREC
 70
2
  9
$MENU
  1
.
  9
$ELEVATION
 40
0.0
  9
$PELEVATION
 40
0.0
  9
$THICKNESS
 40
0.0
  9
$LIMCHECK
 70
0
  9
$CHAMFERA
 40
0.0
  9
$CHAMFERB
 40
0.0
  9
$CHAMFERC
 40
0.0
  9
$CHAMFERD
 40
0.0
  9
$SKPOLY
 70
0
  9
$TDCREATE
 40
2460742.4619675926
  9
$TDUCREATE
 40
2458532.153996898
  9
$TDUPDATE
 40
2460742.4619675926
  9
$TDUUPDATE
 40
2458532.1544311
  9
$TDINDWG
 40
0.0
  9
$TDUSRTIMER
 40
0.0
  9
$USRTIMER
 70
1
  9
$ANGBASE
 50
0.0
  9
$ANGDIR
 70
0
  9
$PDMODE
 70
0
  9
$PDSIZE
 40
0.0
  9
$PLINEWID
 40
0.0
  9
$SPLFRAME
 70
0
  9
$SPLINETYPE
 70
6
  9
$SPLINESEGS
 70
8
  9
$HANDSEED
  5
44
  9
$SURFTAB1
 70
6
  9
$SURFTAB2
 70
6
  9
$SURFTYPE
 70
6
  9
$SURFU
 70
6
  9
$SURFV
 70
6
  9
$UCSBASE
  2

  9
$UCSNAME
  2

  9
$UCSORG
 10
0.0
 20
0.0
 30
0.0
  9
$UCSXDIR
 10
1.0
 20
0.0
 30
0.0
  9
$UCSYDIR
 10
0.0
 20
1.0
 30
0.0
  9
$UCSORTHOREF
  2

  9
$UCSORTHOVIEW
 70
0
  9
$UCSORGTOP
 10
0.0
 20
0.0
 30
0.0
  9
$UCSORGBOTTOM
 10
0.0
 20
0.0
 30
0.0
  9
$UCSORGLEFT
 10
0.0
 20
0.0
 30
0.0
  9
$UCSORGRIGHT
 10
0.0
 20
0.0
 30
0.0
  9
$UCSORGFRONT
 10
0.0
 20
0.0
 30
0.0
  9
$UCSORGBACK
 10
0.0
 20
0.0
 30
0.0
  9
$PUCSBASE
  2

  9
$PUCSNAME
  2

  9
$PUCSORG
 10
0.0
 20
0.0
 30
0.0
  9
$PUCSXDIR
 10
1.0
 20
0.0
 30
0.0
  9
$PUCSYDIR
 10
0.0
 20
1.0
 30
0.0
  9
$PUCSORTHOREF
  2

  9
$PUCSORTHOVIEW
 70
0
  9
$PUCSORGTOP
 10
0.0
 20
0.0
 30
0.0
  9
$PUCSORGBOTTOM
 10
0.0
 20
0.0
 30
0.0
  9
$PUCSORGLEFT
 10
0.0
 20
0.0
 30
0.0
  9
$PUCSORGRIGHT
 10
0.0
 20
0.0
 30
0.0
  9
$PUCSORGFRONT
 10
0.0
 20
0.0
 30
0.0
  9
$PUCSORGBACK
 10
0.0
 20
0.0
 30
0.0
  9
$USERI1
 70
0
  9
$USERI2
 70
0
  9
$USERI3
 70
0
  9
$USERI4
 70
0
  9
$USERI5
 70
0
  9
$USERR1
 40
0.0
  9
$USERR2
 40
0.0
  9
$USERR3
 40
0.0
  9
$USERR4
 40
0.0
  9
$USERR5
 40
0.0
  9
$WORLDVIEW
 70
1
  9
$SHADEDGE
 70
3
  9
$SHADEDIF
 70
70
  9
$TILEMODE
 70
1
  9
$MAXACTVP
 70
64
  9
$PINSBASE
 10
0.0
 20
0.0
 30
0.0
  9
$PLIMCHECK
 70
0
  9
$PEXTMIN
 10
1e+20
 20
1e+20
 30
1e+20
  9
$PEXTMAX
 10
-1e+20
 20
-1e+20
 30
-1e+20
  9
$PLIMMIN
 10
0.0
 20
0.0
  9
$PLIMMAX
 10
420.0
 20
297.0
  9
$UNITMODE
 70
0
  9
$VISRETAIN
 70
1
  9
$PLINEGEN
 70
0
  9
$PSLTSCALE
 70
1
  9
$TREEDEPTH
 70
3020
  9
$CMLSTYLE
  2
Standard
  9
$CMLJUST
 70
0
  9
$CMLSCALE
 40
20.0
  9
$PROXYGRAPHICS
 70
1
  9
$MEASUREMENT
 70
1
  9
$CELWEIGHT
370
-1
  9
$ENDCAPS
280
0
  9
$JOINSTYLE
280
0
  9
$LWDISPLAY
290
0
  9
$INSUNITS
 70
6
  9
$HYPERLINKBASE
  1

  9
$STYLESHEET
  1

  9
$XEDIT
290
1
  9
$CEPSNTYPE
380
0
  9
$PSTYLEMODE
290
1
  9
$FINGERPRINTGUID
  2
{1130CC8F-01F1-4F92-8651-19627FAF71B4}
  9
$VERSIONGUID
  2
{8C3CF4BC-47A7-46D0-88C8-6DA3D22882D6}
  9
$EXTNAMES
290
1
  9
$PSVPSCALE
 40
0.0
  9
$OLESTARTUP
290
0
  9
$SORTENTS
280
127
  9
$INDEXCTL
280
0
  9
$HIDETEXT
280
1
  9
$XCLIPFRAME
280
0
  9
$HALOGAP
280
0
  9
$OBSCOLOR
 70
257
  9
$OBSLTYPE
280
0
  9
$INTERSECTIONDISPLAY
280
0
  9
$INTERSECTIONCOLOR
 70
257
  9
$DIMASSOC
280
2
  9
$PROJECTNAME
  1

  9
$CAMERADISPLAY
290
0
  9
$LENSLENGTH
 40
50.0
  9
$CAMERAHEIGHT
 40
0.0
  9
$STEPSPERSEC
 40
24.0
  9
$STEPSIZE
 40
100.0
  9
$3DDWFPREC
 40
2.0
  9
$PSOLWIDTH
 40
0.005
  9
$PSOLHEIGHT
 40
0.08
  9
$LOFTANG1
 40
1.570796326795
  9
$LOFTANG2
 40
1.570796326795
  9
$LOFTMAG1
 40
0.0
  9
$LOFTMAG2
 40
0.0
  9
$LOFTPARAM
 70
7
  9
$LOFTNORMALS
280
1
  9
$LATITUDE
 40
37.795
  9
$LONGITUDE
 40
-122.394
  9
$NORTHDIRECTION
 40
0.0
  9
$TIMEZONE
 70
-8000
  9
$LIGHTGLYPHDISPLAY
280
1
  9
$TILEMODELIGHTSYNCH
280
1
  9
$CMATERIAL
347
20
  9
$SOLIDHIST
280
0
  9
$SHOWHIST
280
1
  9
$DWFFRAME
280
2
  9
$DGNFRAME
280
2
  9
$REALWORLDSCALE
290
1
  9
$INTERFERECOLOR
 62
256
  9
$CSHADOW
280
0
  9
$SHADOWPLANELOCATION
 40
0.0
  0
ENDSEC
  0
SECTION
  2
CLASSES
  0
CLASS
  1
ACDBDICTIONARYWDFLT
  2
AcDbDictionaryWithDefault
  3
ObjectDBX Classes
 90
0
 91
0
280
0
281
0
  0
CLASS
  1
SUN
  2
AcDbSun
  3
SCENEOE
 90
1153
 91
0
280
0
281
0
  0
CLASS
  1
VISUALSTYLE
  2
AcDbVisualStyle
  3
ObjectDBX Classes
 90
4095
 91
0
280
0
281
0
  0
CLASS
  1
MATERIAL
  2
AcDbMaterial
  3
ObjectDBX Classes
 90
1153
 91
0
280
0
281
0
  0
CLASS
  1
SCALE
  2
AcDbScale
  3
ObjectDBX Classes
 90
1153
 91
0
280
0
281
0
  0
CLASS
  1
TABLESTYLE
  2
AcDbTableStyle
  3
ObjectDBX Classes
 90
4095
 91
0
280
0
281
0
  0
CLASS
  1
MLEADERSTYLE
  2
AcDbMLeaderStyle
  3
ACDB_MLEADERSTYLE_CLASS
 90
4095
 91
0
280
0
281
0
  0
CLASS
  1
DICTIONARYVAR
  2
AcDbDictionaryVar
  3
ObjectDBX Classes
 90
0
 91
0
280
0
281
0
  0
CLASS
  1
CELLSTYLEMAP
  2
AcDbCellStyleMap
  3
ObjectDBX Classes
 90
1152
 91
0
280
0
281
0
  0
CLASS
  1
MENTALRAYRENDERSETTINGS
  2
AcDbMentalRayRenderSettings
  3
SCENEOE
 90
1024
 91
0
280
0
281
0
  0
CLASS
  1
ACDBDETAILVIEWSTYLE
  2
AcDbDetailViewStyle
  3
ObjectDBX Classes
 90
1025
 91
0
280
0
281
0
  0
CLASS
  1
ACDBSECTIONVIEWSTYLE
  2
AcDbSectionViewStyle
  3
ObjectDBX Classes
 90
1025
 91
0
280
0
281
0
  0
CLASS
  1
RASTERVARIABLES
  2
AcDbRasterVariables
  3
ISM
 90
0
 91
0
280
0
281
0
  0
CLASS
  1
ACDBPLACEHOLDER
  2
AcDbPlaceHolder
  3
ObjectDBX Classes
 90
0
 91
0
280
0
281
0
  0
CLASS
  1
LAYOUT
  2
AcDbLayout
  3
ObjectDBX Classes
 90
0
 91
0
280
0
281
0
  0
ENDSEC
  0
SECTION
  2
TABLES
  0
TABLE
  2
VPORT
  5
8
330
0
100
AcDbSymbolTable
 70
1
  0
VPORT
  5
23
330
8
100
AcDbSymbolTableRecord
100
AcDbViewportTableRecord
  2
*Active
 70
0
 10
0.0
 20
0.0
 11
1.0
 21
1.0
 12
0.0
 22
0.0
 13
0.0
 23
0.0
 14
0.5
 24
0.5
 15
0.5
 25
0.5
 16
0.0
 26
0.0
 36
1.0
 17
0.0
 27
0.0
 37
0.0
 40
1000.0
 41
1.34
 42
50.0
 43
0.0
 44
0.0
 50
0.0
 51
0.0
 71
0
 72
1000
 73
1
 74
3
 75
0
 76
0
 77
0
 78
0
281
0
 65
0
146
0.0
  0
ENDTAB
  0
TABLE
  2
LTYPE
  5
2
330
0
100
AcDbSymbolTable
 70
3
  0
LTYPE
  5
24
330
2
100
AcDbSymbolTableRecord
100
AcDbLinetypeTableRecord
  2
ByBlock
 70
0
  3

 72
65
 73
0
 40
0.0
  0
LTYPE
  5
25
330
2
100
AcDbSymbolTableRecord
100
AcDbLinetypeTableRecord
  2
ByLayer
 70
0
  3

 72
65
 73
0
 40
0.0
  0
LTYPE
  5
26
330
2
100
AcDbSymbolTableRecord
100
AcDbLinetypeTableRecord
  2
Continuous
 70
0
  3

 72
65
 73
0
 40
0.0
  0
ENDTAB
  0
TABLE
  2
LAYER
  5
1
330
0
100
AcDbSymbolTable
 70
5
  0
LAYER
  5
27
330
1
100
AcDbSymbolTableRecord
100
AcDbLayerTableRecord
  2
0
 70
0
 62
7
  6
Continuous
370
-3
390
13
347
21
  0
LAYER
  5
28
330
1
100
AcDbSymbolTableRecord
100
AcDbLayerTableRecord
  2
Defpoints
 70
0
 62
7
  6
Continuous
290
0
370
-3
390
13
347
21
  0
LAYER
  5
2F
330
1
100
AcDbSymbolTableRecord
100
AcDbLayerTableRecord
  2
conductor
 70
0
 62
1
  6
Continuous
370
-3
390
13
347
21
  0
LAYER
  5
30
330
1
100
AcDbSymbolTableRecord
100
AcDbLayerTableRecord
  2
dielectric
 70
0
 62
8
  6
Continuous
370
-3
390
13
347
21
  0
LAYER
  5
31
330
1
100
AcDbSymbolTableRecord
100
AcDbLayerTableRecord
  2
substrate
 70
0
 62
5
  6
Continuous
370
-3
390
13
347
21
  0
ENDTAB
  0
TABLE
  2
STYLE
  5
5
330
0
100
AcDbSymbolTable
 70
1
  0
STYLE
  5
29
330
5
100
AcDbSymbolTableRecord
100
AcDbTextStyleTableRecord
  2
Standard
 70
0
 40
0.0
 41
1.0
 50
0.0
 71
0
 42
2.5
  3
txt
  4

  0
ENDTAB
  0
TABLE
  2
VIEW
  5
7
330
0
100
AcDbSymbolTable
 70
0
  0
ENDTAB
  0
TABLE
  2
UCS
  5
6
330
0
100
AcDbSymbolTable
 70
0
  0
ENDTAB
  0
TABLE
  2
APPID
  5
3
330
0
100
AcDbSymbolTable
 70
3
  0
APPID
  5
2A
330
3
100
AcDbSymbolTableRecord
100
AcDbRegAppTableRecord
  2
ACAD
 70
0
  0
APPID
  5
41
330
3
100
AcDbSymbolTableRecord
100
AcDbRegAppTableRecord
  2
HATCHBACKGROUNDCOLOR
 70
0
  0
APPID
  5
42
330
3
100
AcDbSymbolTableRecord
100
AcDbRegAppTableRecord
  2
EZDXF
 70
0
  0
ENDTAB
  0
TABLE
  2
DIMSTYLE
  5
4
330
0
100
AcDbSymbolTable
 70
1
100
AcDbDimStyleTable
  0
DIMSTYLE
105
2B
330
4
100
AcDbSymbolTableRecord
100
AcDbDimStyleTableRecord
  2
Standard
 70
0
 40
1.0
 41
2.5
 42
0.625
 43
3.75
 44
1.25
 45
0.0
 46
0.0
 47
0.0
 48
0.0
 49
2.5
140
2.5
141
2.5
142
0.0
143
0.03937007874
144
1.0
145
0.0
146
1.0
147
0.625
148
0.0
 69
0
 70
0
 71
0
 72
0
 73
0
 74
0
 75
0
 76
0
 77
1
 78
8
 79
3
170
0
171
3
172
1
173
0
174
0
175
0
176
0
177
0
178
0
179
2
271
2
272
2
273
2
274
3
275
0
276
0
277
2
278
44
279
0
280
0
281
0
282
0
283
0
284
8
285
0
286
0
288
0
289
3
290
0
371
-2
372
-2
  0
ENDTAB
  0
TABLE
  2
BLOCK_RECORD
  5
9
330
0
100
AcDbSymbolTable
 70
2
  0
BLOCK_RECORD
  5
17
330
9
100
AcDbSymbolTableRecord
100
AcDbBlockTableRecord
  2
*Model_Space
340
1A
 70
0
280
1
281
0
  0
BLOCK_RECORD
  5
1B
330
9
100
AcDbSymbolTableRecord
100
AcDbBlockTableRecord
  2
*Paper_Space
340
1E
 70
0
280
1
281
0
  0
ENDTAB
  0
ENDSEC
  0
SECTION
  2
BLOCKS
  0
BLOCK
  5
18
330
17
100
AcDbEntity
  8
0
100
AcDbBlockBegin
  2
*Model_Space
 70
0
 10
0.0
 20
0.0
 30
0.0
  3
*Model_Space
  1

  0
ENDBLK
  5
19
330
17
100
AcDbEntity
  8
0
100
AcDbBlockEnd
  0
BLOCK
  5
1C
330
1B
100
AcDbEntity
  8
0
100
AcDbBlockBegin
  2
*Paper_Space
 70
0
 10
0.0
 20
0.0
 30
0.0
  3
*Paper_Space
  1

  0
ENDBLK
  5
1D
330
1B
100
AcDbEntity
  8
0
100
AcDbBlockEnd
  0
ENDSEC
  0
SECTION
  2
ENTITIES
  0
LWPOLYLINE
  5
32
330
17
100
AcDbEntity
  8
conductor
100
AcDbPolyline
 90
201
 70
1
 43
0.5
 10
2511.7734375
 20
-2169.703125
 10
2502.0
 20
-2179.4765625
 10
2502.0
 20
-2189.25
 10
2492.2265625
 20
-2199.0234375
 10
2482.453125
 20
-2189.25
 10
2472.6796875
 20
-2199.0234375
 10
2462.90625
 20
-2189.25
 10
2453.1328125
 20
-2199.0234375
 10
2443.359375
 20
-2189.25
 10
2433.5859375
 20
-2199.0234375
 10
2423.8125
 20
-2189.25
 10
2414.0390625
 20
-2199.0234375
 10
2404.265625
 20
-2199.0234375
 10
2394.4921875
 20
-2208.796875
 10
2384.71875
 20
-2208.796875
 10
2374.9453125
 20
-2208.796875
 10
2365.171875
 20
-2218.5703125
 10
2355.3984375
 20
-2218.5703125
 10
2345.625
 20
-2218.5703125
 10
2335.8515625
 20
-2228.34375
 10
2326.078125
 20
-2228.34375
 10
2316.3046875
 20
-2238.1171875
 10
2306.53125
 20
-2247.890625
 10
2296.7578125
 20
-2257.6640625
 10
2286.984375
 20
-2257.6640625
 10
2286.984375
 20
-2267.4375
 10
2277.2109375
 20
-2277.2109375
 10
2267.4375
 20
-2277.2109375
 10
2257.6640625
 20
-2286.984375
 10
2247.890625
 20
-2286.984375
 10
2247.890625
 20
-2296.7578125
 10
2238.1171875
 20
-2306.53125
 10
2228.34375
 20
-2316.3046875
 10
2228.34375
 20
-2326.078125
 10
2218.5703125
 20
-2335.8515625
 10
2208.796875
 20
-2345.625
 10
2208.796875
 20
-2355.3984375
 10
2199.0234375
 20
-2365.171875
 10
2199.0234375
 20
-2374.9453125
 10
2189.25
 20
-2384.71875
 10
2179.4765625
 20
-2394.4921875
 10
2169.703125
 20
-2404.265625
 10
2169.703125
 20
-2414.0390625
 10
2169.703125
 20
-2423.8125
 10
2169.703125
 20
-2433.5859375
 10
2169.703125
 20
-2443.359375
 10
2159.9296875
 20
-2453.1328125
 10
2159.9296875
 20
-2462.90625
 10
2159.9296875
 20
-2472.6796875
 10
2159.9296875
 20
-2482.453125
 10
2150.15625
 20
-2492.2265625
 10
2150.15625
 20
-2502.0
 10
2150.15625
 20
-2511.7734375
 10
2159.9296875
 20
-2521.546875
 10
2150.15625
 20
-2531.3203125
 10
2159.9296875
 20
-2541.09375
 10
2159.9296875
 20
-2550.8671875
 10
2159.9296875
 20
-2560.640625
 10
2159.9296875
 20
-2570.4140625
 10
2169.703125
 20
-2580.1875
 10
2169.703125
 20
-2589.9609375
 10
2169.703125
 20
-2599.734375
 10
2169.703125
 20
-2609.5078125
 10
2169.703125
 20
-2619.28125
 10
2179.4765625
 20
-2629.0546875
 10
2179.4765625
 20
-2638.828125
 10
2179.4765625
 20
-2648.6015625
 10
2189.25
 20
-2658.375
 10
2189.25
 20
-2668.1484375
 10
2199.0234375
 20
-2677.921875
 10
2208.796875
 20
-2687.6953125
 10
2218.5703125
 20
-2697.46875
 10
2228.34375
 20
-2707.2421875
 10
2238.1171875
 20
-2717.015625
 10
2247.890625
 20
-2726.7890625
 10
2247.890625
 20
-2736.5625
 10
2257.6640625
 20
-2746.3359375
 10
2267.4375
 20
-2746.3359375
 10
2277.2109375
 20
-2756.109375
 10
2277.2109375
 20
-2765.8828125
 10
2286.984375
 20
-2775.65625
 10
2296.7578125
 20
-2785.4296875
 10
2306.53125
 20
-2785.4296875
 10
2316.3046875
 20
-2785.4296875
 10
2326.078125
 20
-2795.203125
 10
2335.8515625
 20
-2795.203125
 10
2345.625
 20
-2804.9765625
 10
2355.3984375
 20
-2804.9765625
 10
2365.171875
 20
-2804.9765625
 10
2374.9453125
 20
-2814.75
 10
2384.71875
 20
-2814.75
 10
2394.4921875
 20
-2824.5234375
 10
2404.265625
 20
-2824.5234375
 10
2414.0390625
 20
-2824.5234375
 10
2423.8125
 20
-2824.5234375
 10
2433.5859375
 20
-2824.5234375
 10
2443.359375
 20
-2824.5234375
 10
2453.1328125
 20
-2834.296875
 10
2462.90625
 20
-2824.5234375
 10
2472.6796875
 20
-2834.296875
 10
2482.453125
 20
-2824.5234375
 10
2492.2265625
 20
-2834.296875
 10
2502.0
 20
-2824.5234375
 10
2511.7734375
 20
-2824.5234375
 10
2521.546875
 20
-2824.5234375
 10
2531.3203125
 20
-2824.5234375
 10
2541.09375
 20
-2824.5234375
 10
2550.8671875
 20
-2824.5234375
 10
2560.640625
 20
-2824.5234375
 10
2570.4140625
 20
-2824.5234375
 10
2580.1875
 20
-2824.5234375
 10
2589.9609375
 20
-2824.5234375
 10
2599.734375
 20
-2814.75
 10
2609.5078125
 20
-2824.5234375
 10
2619.28125
 20
-2814.75
 10
2629.0546875
 20
-2804.9765625
 10
2638.828125
 20
-2804.9765625
 10
2648.6015625
 20
-2795.203125
 10
2658.375
 20
-2795.203125
 10
2668.1484375
 20
-2785.4296875
 10
2677.921875
 20
-2775.65625
 10
2687.6953125
 20
-2775.65625
 10
2697.46875
 20
-2765.8828125
 10
2707.2421875
 20
-2756.109375
 10
2717.015625
 20
-2746.3359375
 10
2726.7890625
 20
-2736.5625
 10
2736.5625
 20
-2736.5625
 10
2746.3359375
 20
-2726.7890625
 10
2756.109375
 20
-2717.015625
 10
2756.109375
 20
-2707.2421875
 10
2756.109375
 20
-2697.46875
 10
2765.8828125
 20
-2687.6953125
 10
2775.65625
 20
-2687.6953125
 10
2785.4296875
 20
-2677.921875
 10
2785.4296875
 20
-2668.1484375
 10
2785.4296875
 20
-2658.375
 10
2795.203125
 20
-2648.6015625
 10
2795.203125
 20
-2638.828125
 10
2795.203125
 20
-2629.0546875
 10
2804.9765625
 20
-2619.28125
 10
2804.9765625
 20
-2609.5078125
 10
2814.75
 20
-2599.734375
 10
2814.75
 20
-2589.9609375
 10
2814.75
 20
-2580.1875
 10
2824.5234375
 20
-2570.4140625
 10
2824.5234375
 20
-2560.640625
 10
2824.5234375
 20
-2550.8671875
 10
2834.296875
 20
-2541.09375
 10
2834.296875
 20
-2531.3203125
 10
2834.296875
 20
-2521.546875
 10
2834.296875
 20
-2511.7734375
 10
2834.296875
 20
-2502.0
 10
2834.296875
 20
-2492.2265625
 10
2834.296875
 20
-2482.453125
 10
2844.0703125
 20
-2472.6796875
 10
2844.0703125
 20
-2462.90625
 10
2834.296875
 20
-2453.1328125
 10
2834.296875
 20
-2443.359375
 10
2834.296875
 20
-2433.5859375
 10
2834.296875
 20
-2423.8125
 10
2834.296875
 20
-2414.0390625
 10
2834.296875
 20
-2404.265625
 10
2824.5234375
 20
-2404.265625
 10
2814.75
 20
-2394.4921875
 10
2814.75
 20
-2384.71875
 10
2814.75
 20
-2374.9453125
 10
2814.75
 20
-2365.171875
 10
2814.75
 20
-2355.3984375
 10
2804.9765625
 20
-2345.625
 10
2804.9765625
 20
-2335.8515625
 10
2795.203125
 20
-2326.078125
 10
2795.203125
 20
-2316.3046875
 10
2785.4296875
 20
-2306.53125
 10
2775.65625
 20
-2296.7578125
 10
2765.8828125
 20
-2286.984375
 10
2756.109375
 20
-2277.2109375
 10
2756.109375
 20
-2267.4375
 10
2746.3359375
 20
-2257.6640625
 10
2736.5625
 20
-2247.890625
 10
2726.7890625
 20
-2238.1171875
 10
2717.015625
 20
-2228.34375
 10
2707.2421875
 20
-2218.5703125
 10
2697.46875
 20
-2218.5703125
 10
2687.6953125
 20
-2208.796875
 10
2677.921875
 20
-2208.796875
 10
2668.1484375
 20
-2199.0234375
 10
2658.375
 20
-2199.0234375
 10
2648.6015625
 20
-2189.25
 10
2638.828125
 20
-2179.4765625
 10
2629.0546875
 20
-2179.4765625
 10
2619.28125
 20
-2179.4765625
 10
2609.5078125
 20
-2169.703125
 10
2599.734375
 20
-2179.4765625
 10
2589.9609375
 20
-2169.703125
 10
2580.1875
 20
-2169.703125
 10
2570.4140625
 20
-2169.703125
 10
2560.640625
 20
-2169.703125
 10
2550.8671875
 20
-2169.703125
 10
2541.09375
 20
-2169.703125
 10
2531.3203125
 20
-2169.703125
 10
2521.546875
 20
-2169.703125
  0
LWPOLYLINE
  5
33
330
17
100
AcDbEntity
  8
conductor
100
AcDbPolyline
 90
4
 70
1
 43
0.5
 10
2384.71875
 20
-2795.203125
 10
2394.4921875
 20
-2785.4296875
 10
2404.265625
 20
-2795.203125
 10
2394.4921875
 20
-2804.9765625
  0
LWPOLYLINE
  5
34
330
17
100
AcDbEntity
  8
conductor
100
AcDbPolyline
 90
4
 70
1
 43
0.5
 10
2756.109375
 20
-2658.375
 10
2765.8828125
 20
-2648.6015625
 10
2775.65625
 20
-2658.375
 10
2765.8828125
 20
-2668.1484375
  0
LWPOLYLINE
  5
35
330
17
100
AcDbEntity
  8
conductor
100
AcDbPolyline
 90
4
 70
1
 43
0.5
 10
2775.65625
 20
-2374.9453125
 10
2785.4296875
 20
-2365.171875
 10
2795.203125
 20
-2374.9453125
 10
2785.4296875
 20
-2384.71875
  0
LWPOLYLINE
  5
36
330
17
100
AcDbEntity
  8
conductor
100
AcDbPolyline
 90
198
 70
1
 43
0.5
 10
2433.5859375
 20
-2218.5703125
 10
2443.359375
 20
-2208.796875
 10
2453.1328125
 20
-2208.796875
 10
2462.90625
 20
-2208.796875
 10
2472.6796875
 20
-2208.796875
 10
2482.453125
 20
-2208.796875
 10
2492.2265625
 20
-2208.796875
 10
2502.0
 20
-2208.796875
 10
2511.7734375
 20
-2218.5703125
 10
2521.546875
 20
-2228.34375
 10
2521.546875
 20
-2218.5703125
 10
2531.3203125
 20
-2208.796875
 10
2541.09375
 20
-2218.5703125
 10
2541.09375
 20
-2228.34375
 10
2550.8671875
 20
-2218.5703125
 10
2560.640625
 20
-2208.796875
 10
2570.4140625
 20
-2208.796875
 10
2580.1875
 20
-2218.5703125
 10
2589.9609375
 20
-2228.34375
 10
2599.734375
 20
-2218.5703125
 10
2609.5078125
 20
-2218.5703125
 10
2619.28125
 20
-2218.5703125
 10
2629.0546875
 20
-2228.34375
 10
2638.828125
 20
-2228.34375
 10
2648.6015625
 20
-2228.34375
 10
2658.375
 20
-2228.34375
 10
2668.1484375
 20
-2238.1171875
 10
2668.1484375
 20
-2247.890625
 10
2677.921875
 20
-2238.1171875
 10
2687.6953125
 20
-2247.890625
 10
2697.46875
 20
-2257.6640625
 10
2697.46875
 20
-2267.4375
 10
2697.46875
 20
-2277.2109375
 10
2707.2421875
 20
-2277.2109375
 10
2717.015625
 20
-2286.984375
 10
2726.7890625
 20
-2286.984375
 10
2736.5625
 20
-2296.7578125
 10
2746.3359375
 20
-2306.53125
 10
2756.109375
 20
-2316.3046875
 10
2765.8828125
 20
-2326.078125
 10
2765.8828125
 20
-2335.8515625
 10
2775.65625
 20
-2345.625
 10
2775.65625
 20
-2355.3984375
 10
2785.4296875
 20
-2365.171875
 10
2775.65625
 20
-2374.9453125
 10
2785.4296875
 20
-2384.71875
 10
2795.203125
 20
-2394.4921875
 10
2795.203125
 20
-2404.265625
 10
2795.203125
 20
-2414.0390625
 10
2804.9765625
 20
-2423.8125
 10
2804.9765625
 20
-2433.5859375
 10
2804.9765625
 20
-2443.359375
 10
2814.75
 20
-2453.1328125
 10
2814.75
 20
-2462.90625
 10
2814.75
 20
-2472.6796875
 10
2814.75
 20
-2482.453125
 10
2814.75
 20
-2492.2265625
 10
2814.75
 20
-2502.0
 10
2814.75
 20
-2511.7734375
 10
2814.75
 20
-2521.546875
 10
2804.9765625
 20
-2531.3203125
 10
2804.9765625
 20
-2541.09375
 10
2804.9765625
 20
-2550.8671875
 10
2804.9765625
 20
-2560.640625
 10
2795.203125
 20
-2570.4140625
 10
2785.4296875
 20
-2570.4140625
 10
2795.203125
 20
-2580.1875
 10
2785.4296875
 20
-2589.9609375
 10
2775.65625
 20
-2589.9609375
 10
2785.4296875
 20
-2599.734375
 10
2775.65625
 20
-2609.5078125
 10
2775.65625
 20
-2619.28125
 10
2775.65625
 20
-2629.0546875
 10
2775.65625
 20
-2638.828125
 10
2765.8828125
 20
-2648.6015625
 10
2756.109375
 20
-2648.6015625
 10
2756.109375
 20
-2658.375
 10
2756.109375
 20
-2668.1484375
 10
2746.3359375
 20
-2677.921875
 10
2736.5625
 20
-2668.1484375
 10
2736.5625
 20
-2677.921875
 10
2736.5625
 20
-2687.6953125
 10
2726.7890625
 20
-2697.46875
 10
2717.015625
 20
-2697.46875
 10
2717.015625
 20
-2707.2421875
 10
2707.2421875
 20
-2717.015625
 10
2697.46875
 20
-2726.7890625
 10
2687.6953125
 20
-2736.5625
 10
2677.921875
 20
-2736.5625
 10
2668.1484375
 20
-2746.3359375
 10
2658.375
 20
-2746.3359375
 10
2658.375
 20
-2756.109375
 10
2648.6015625
 20
-2765.8828125
 10
2638.828125
 20
-2765.8828125
 10
2629.0546875
 20
-2765.8828125
 10
2619.28125
 20
-2775.65625
 10
2609.5078125
 20
-2785.4296875
 10
2599.734375
 20
-2785.4296875
 10
2589.9609375
 20
-2785.4296875
 10
2580.1875
 20
-2795.203125
 10
2570.4140625
 20
-2795.203125
 10
2560.640625
 20
-2795.203125
 10
2550.8671875
 20
-2795.203125
 10
2541.09375
 20
-2795.203125
 10
2531.3203125
 20
-2795.203125
 10
2521.546875
 20
-2804.9765625
 10
2511.7734375
 20
-2795.203125
 10
2502.0
 20
-2795.203125
 10
2492.2265625
 20
-2795.203125
 10
2482.453125
 20
-2804.9765625
 10
2472.6796875
 20
-2795.203125
 10
2462.90625
 20
-2795.203125
 10
2453.1328125
 20
-2795.203125
 10
2443.359375
 20
-2804.9765625
 10
2433.5859375
 20
-2804.9765625
 10
2423.8125
 20
-2795.203125
 10
2414.0390625
 20
-2795.203125
 10
2404.265625
 20
-2785.4296875
 10
2394.4921875
 20
-2785.4296875
 10
2384.71875
 20
-2775.65625
 10
2374.9453125
 20
-2765.8828125
 10
2365.171875
 20
-2765.8828125
 10
2355.3984375
 20
-2756.109375
 10
2345.625
 20
-2756.109375
 10
2335.8515625
 20
-2746.3359375
 10
2326.078125
 20
-2746.3359375
 10
2316.3046875
 20
-2736.5625
 10
2306.53125
 20
-2726.7890625
 10
2296.7578125
 20
-2717.015625
 10
2286.984375
 20
-2707.2421875
 10
2277.2109375
 20
-2717.015625
 10
2267.4375
 20
-2707.2421875
 10
2267.4375
 20
-2697.46875
 10
2267.4375
 20
-2687.6953125
 10
2257.6640625
 20
-2687.6953125
 10
2247.890625
 20
-2677.921875
 10
2247.890625
 20
-2668.1484375
 10
2238.1171875
 20
-2668.1484375
 10
2228.34375
 20
-2658.375
 10
2228.34375
 20
-2648.6015625
 10
2228.34375
 20
-2638.828125
 10
2218.5703125
 20
-2629.0546875
 10
2218.5703125
 20
-2619.28125
 10
2208.796875
 20
-2609.5078125
 10
2208.796875
 20
-2599.734375
 10
2208.796875
 20
-2589.9609375
 10
2199.0234375
 20
-2580.1875
 10
2199.0234375
 20
-2570.4140625
 10
2199.0234375
 20
-2560.640625
 10
2189.25
 20
-2550.8671875
 10
2199.0234375
 20
-2541.09375
 10
2189.25
 20
-2531.3203125
 10
2179.4765625
 20
-2531.3203125
 10
2169.703125
 20
-2521.546875
 10
2169.703125
 20
-2511.7734375
 10
2179.4765625
 20
-2502.0
 10
2189.25
 20
-2511.7734375
 10
2189.25
 20
-2502.0
 10
2189.25
 20
-2492.2265625
 10
2189.25
 20
-2482.453125
 10
2189.25
 20
-2472.6796875
 10
2199.0234375
 20
-2462.90625
 10
2199.0234375
 20
-2453.1328125
 10
2199.0234375
 20
-2443.359375
 10
2199.0234375
 20
-2433.5859375
 10
2208.796875
 20
-2423.8125
 10
2208.796875
 20
-2414.0390625
 10
2218.5703125
 20
-2404.265625
 10
2218.5703125
 20
-2394.4921875
 10
2228.34375
 20
-2384.71875
 10
2228.34375
 20
-2374.9453125
 10
2228.34375
 20
-2365.171875
 10
2228.34375
 20
-2355.3984375
 10
2238.1171875
 20
-2345.625
 10
2247.890625
 20
-2345.625
 10
2257.6640625
 20
-2335.8515625
 10
2267.4375
 20
-2326.078125
 10
2267.4375
 20
-2316.3046875
 10
2277.2109375
 20
-2306.53125
 10
2286.984375
 20
-2306.53125
 10
2286.984375
 20
-2296.7578125
 10
2296.7578125
 20
-2286.984375
 10
2306.53125
 20
-2286.984375
 10
2316.3046875
 20
-2286.984375
 10
2316.3046875
 20
-2277.2109375
 10
2326.078125
 20
-2267.4375
 10
2335.8515625
 20
-2257.6640625
 10
2345.625
 20
-2257.6640625
 10
2355.3984375
 20
-2257.6640625
 10
2365.171875
 20
-2247.890625
 10
2374.9453125
 20
-2257.6640625
 10
2384.71875
 20
-2247.890625
 10
2394.4921875
 20
-2247.890625
 10
2404.265625
 20
-2238.1171875
 10
2414.0390625
 20
-2238.1171875
 10
2423.8125
 20
-2228.34375
 10
2433.5859375
 20
-2218.5703125
 10
2443.359375
 20
-2228.34375
  0
LWPOLYLINE
  5
37
330
17
100
AcDbEntity
  8
conductor
100
AcDbPolyline
 90
1
 70
1
 43
0.5
 10
2756.109375
 20
-2629.0546875
  0
LWPOLYLINE
  5
38
330
17
100
AcDbEntity
  8
conductor
100
AcDbPolyline
 90
137
 70
1
 43
0.5
 10
2502.0
 20
-2277.2109375
 10
2502.0
 20
-2286.984375
 10
2492.2265625
 20
-2296.7578125
 10
2482.453125
 20
-2296.7578125
 10
2472.6796875
 20
-2296.7578125
 10
2462.90625
 20
-2296.7578125
 10
2453.1328125
 20
-2296.7578125
 10
2443.359375
 20
-2306.53125
 10
2433.5859375
 20
-2306.53125
 10
2423.8125
 20
-2306.53125
 10
2414.0390625
 20
-2316.3046875
 10
2404.265625
 20
-2316.3046875
 10
2394.4921875
 20
-2316.3046875
 10
2384.71875
 20
-2316.3046875
 10
2374.9453125
 20
-2326.078125
 10
2365.171875
 20
-2326.078125
 10
2355.3984375
 20
-2335.8515625
 10
2345.625
 20
-2345.625
 10
2335.8515625
 20
-2355.3984375
 10
2326.078125
 20
-2365.171875
 10
2326.078125
 20
-2374.9453125
 10
2326.078125
 20
-2384.71875
 10
2316.3046875
 20
-2394.4921875
 10
2306.53125
 20
-2394.4921875
 10
2306.53125
 20
-2404.265625
 10
2296.7578125
 20
-2414.0390625
 10
2296.7578125
 20
-2423.8125
 10
2306.53125
 20
-2433.5859375
 10
2296.7578125
 20
-2443.359375
 10
2296.7578125
 20
-2453.1328125
 10
2296.7578125
 20
-2462.90625
 10
2286.984375
 20
-2472.6796875
 10
2286.984375
 20
-2482.453125
 10
2286.984375
 20
-2492.2265625
 10
2286.984375
 20
-2502.0
 10
2277.2109375
 20
-2511.7734375
 10
2286.984375
 20
-2521.546875
 10
2286.984375
 20
-2531.3203125
 10
2286.984375
 20
-2541.09375
 10
2286.984375
 20
-2550.8671875
 10
2296.7578125
 20
-2560.640625
 10
2296.7578125
 20
-2570.4140625
 10
2306.53125
 20
-2580.1875
 10
2306.53125
 20
-2589.9609375
 10
2306.53125
 20
-2599.734375
 10
2306.53125
 20
-2609.5078125
 10
2316.3046875
 20
-2609.5078125
 10
2326.078125
 20
-2619.28125
 10
2326.078125
 20
-2629.0546875
 10
2335.8515625
 20
-2638.828125
 10
2345.625
 20
-2648.6015625
 10
2355.3984375
 20
-2658.375
 10
2355.3984375
 20
-2668.1484375
 10
2365.171875
 20
-2677.921875
 10
2374.9453125
 20
-2687.6953125
 10
2384.71875
 20
-2687.6953125
 10
2394.4921875
 20
-2697.46875
 10
2404.265625
 20
-2697.46875
 10
2414.0390625
 20
-2697.46875
 10
2423.8125
 20
-2707.2421875
 10
2433.5859375
 20
-2707.2421875
 10
2443.359375
 20
-2717.015625
 10
2453.1328125
 20
-2717.015625
 10
2462.90625
 20
-2726.7890625
 10
2472.6796875
 20
-2726.7890625
 10
2482.453125
 20
-2726.7890625
 10
2492.2265625
 20
-2726.7890625
 10
2502.0
 20
-2726.7890625
 10
2511.7734375
 20
-2717.015625
 10
2521.546875
 20
-2717.015625
 10
2531.3203125
 20
-2717.015625
 10
2541.09375
 20
-2717.015625
 10
2550.8671875
 20
-2717.015625
 10
2560.640625
 20
-2707.2421875
 10
2570.4140625
 20
-2707.2421875
 10
2580.1875
 20
-2707.2421875
 10
2589.9609375
 20
-2707.2421875
 10
2599.734375
 20
-2697.46875
 10
2609.5078125
 20
-2687.6953125
 10
2619.28125
 20
-2687.6953125
 10
2629.0546875
 20
-2687.6953125
 10
2638.828125
 20
-2677.921875
 10
2648.6015625
 20
-2668.1484375
 10
2658.375
 20
-2658.375
 10
2668.1484375
 20
-2648.6015625
 10
2668.1484375
 20
-2638.828125
 10
2677.921875
 20
-2629.0546875
 10
2687.6953125
 20
-2619.28125
 10
2697.46875
 20
-2619.28125
 10
2697.46875
 20
-2609.5078125
 10
2697.46875
 20
-2599.734375
 10
2707.2421875
 20
-2589.9609375
 10
2717.015625
 20
-2589.9609375
 10
2717.015625
 20
-2580.1875
 10
2717.015625
 20
-2570.4140625
 10
2707.2421875
 20
-2560.640625
 10
2717.015625
 20
-2550.8671875
 10
2717.015625
 20
-2541.09375
 10
2717.015625
 20
-2531.3203125
 10
2717.015625
 20
-2521.546875
 10
2717.015625
 20
-2511.7734375
 10
2726.7890625
 20
-2502.0
 10
2717.015625
 20
-2492.2265625
 10
2717.015625
 20
-2482.453125
 10
2717.015625
 20
-2472.6796875
 10
2726.7890625
 20
-2462.90625
 10
2736.5625
 20
-2472.6796875
 10
2726.7890625
 20
-2462.90625
 10
2717.015625
 20
-2453.1328125
 10
2717.015625
 20
-2443.359375
 10
2726.7890625
 20
-2433.5859375
 10
2717.015625
 20
-2423.8125
 10
2717.015625
 20
-2414.0390625
 10
2707.2421875
 20
-2404.265625
 10
2697.46875
 20
-2394.4921875
 10
2697.46875
 20
-2384.71875
 10
2687.6953125
 20
-2374.9453125
 10
2687.6953125
 20
-2365.171875
 10
2677.921875
 20
-2355.3984375
 10
2668.1484375
 20
-2345.625
 10
2658.375
 20
-2345.625
 10
2648.6015625
 20
-2335.8515625
 10
2638.828125
 20
-2326.078125
 10
2638.828125
 20
-2316.3046875
 10
2629.0546875
 20
-2306.53125
 10
2619.28125
 20
-2306.53125
 10
2609.5078125
 20
-2306.53125
 10
2599.734375
 20
-2306.53125
 10
2589.9609375
 20
-2296.7578125
 10
2580.1875
 20
-2286.984375
 10
2570.4140625
 20
-2296.7578125
 10
2560.640625
 20
-2296.7578125
 10
2550.8671875
 20
-2286.984375
 10
2541.09375
 20
-2277.2109375
 10
2531.3203125
 20
-2286.984375
 10
2521.546875
 20
-2286.984375
 10
2511.7734375
 20
-2286.984375
  0
LWPOLYLINE
  5
39
330
17
100
AcDbEntity
  8
conductor
100
AcDbPolyline
 90
6
 70
1
 43
0.5
 10
2560.640625
 20
-2179.4765625
 10
2570.4140625
 20
-2169.703125
 10
2580.1875
 20
-2179.4765625
 10
2580.1875
 20
-2189.25
 10
2570.4140625
 20
-2199.0234375
 10
2560.640625
 20
-2189.25
  0
LWPOLYLINE
  5
3A
330
17
100
AcDbEntity
  8
substrate
100
AcDbPolyline
 90
2044
 70
1
 43
0.5
 10
0.0
 20
-0.0
 10
0.0
 20
-9.7734375
 10
0.0
 20
-19.546875
 10
0.0
 20
-29.3203125
 10
0.0
 20
-39.09375
 10
0.0
 20
-48.8671875
 10
0.0
 20
-58.640625
 10
0.0
 20
-68.4140625
 10
0.0
 20
-78.1875
 10
0.0
 20
-87.9609375
 10
0.0
 20
-97.734375
 10
0.0
 20
-107.5078125
 10
0.0
 20
-117.28125
 10
0.0
 20
-127.0546875
 10
0.0
 20
-136.828125
 10
0.0
 20
-146.6015625
 10
0.0
 20
-156.375
 10
0.0
 20
-166.1484375
 10
0.0
 20
-175.921875
 10
0.0
 20
-185.6953125
 10
0.0
 20
-195.46875
 10
0.0
 20
-205.2421875
 10
0.0
 20
-215.015625
 10
0.0
 20
-224.7890625
 10
0.0
 20
-234.5625
 10
0.0
 20
-244.3359375
 10
0.0
 20
-254.109375
 10
0.0
 20
-263.8828125
 10
0.0
 20
-273.65625
 10
0.0
 20
-283.4296875
 10
0.0
 20
-293.203125
 10
0.0
 20
-302.9765625
 10
0.0
 20
-312.75
 10
0.0
 20
-322.5234375
 10
0.0
 20
-332.296875
 10
0.0
 20
-342.0703125
 10
0.0
 20
-351.84375
 10
0.0
 20
-361.6171875
 10
0.0
 20
-371.390625
 10
0.0
 20
-381.1640625
 10
0.0
 20
-390.9375
 10
0.0
 20
-400.7109375
 10
0.0
 20
-410.484375
 10
0.0
 20
-420.2578125
 10
0.0
 20
-430.03125
 10
0.0
 20
-439.8046875
 10
0.0
 20
-449.578125
 10
0.0
 20
-459.3515625
 10
0.0
 20
-469.125
 10
0.0
 20
-478.8984375
 10
0.0
 20
-488.671875
 10
0.0
 20
-498.4453125
 10
0.0
 20
-508.21875
 10
0.0
 20
-517.9921875
 10
0.0
 20
-527.765625
 10
0.0
 20
-537.5390625
 10
0.0
 20
-547.3125
 10
0.0
 20
-557.0859375
 10
0.0
 20
-566.859375
 10
0.0
 20
-576.6328125
 10
0.0
 20
-586.40625
 10
0.0
 20
-596.1796875
 10
0.0
 20
-605.953125
 10
0.0
 20
-615.7265625
 10
0.0
 20
-625.5
 10
0.0
 20
-635.2734375
 10
0.0
 20
-645.046875
 10
0.0
 20
-654.8203125
 10
0.0
 20
-664.59375
 10
0.0
 20
-674.3671875
 10
0.0
 20
-684.140625
 10
0.0
 20
-693.9140625
 10
0.0
 20
-703.6875
 10
0.0
 20
-713.4609375
 10
0.0
 20
-723.234375
 10
0.0
 20
-733.0078125
 10
0.0
 20
-742.78125
 10
0.0
 20
-752.5546875
 10
0.0
 20
-762.328125
 10
0.0
 20
-772.1015625
 10
0.0
 20
-781.875
 10
0.0
 20
-791.6484375
 10
0.0
 20
-801.421875
 10
0.0
 20
-811.1953125
 10
0.0
 20
-820.96875
 10
0.0
 20
-830.7421875
 10
0.0
 20
-840.515625
 10
0.0
 20
-850.2890625
 10
0.0
 20
-860.0625
 10
0.0
 20
-869.8359375
 10
0.0
 20
-879.609375
 10
0.0
 20
-889.3828125
 10
0.0
 20
-899.15625
 10
0.0
 20
-908.9296875
 10
0.0
 20
-918.703125
 10
0.0
 20
-928.4765625
 10
0.0
 20
-938.25
 10
0.0
 20
-948.0234375
 10
0.0
 20
-957.796875
 10
0.0
 20
-967.5703125
 10
0.0
 20
-977.34375
 10
0.0
 20
-987.1171875
 10
0.0
 20
-996.890625
 10
0.0
 20
-1006.6640625
 10
0.0
 20
-1016.4375
 10
0.0
 20
-1026.2109375
 10
0.0
 20
-1035.984375
 10
0.0
 20
-1045.7578125
 10
0.0
 20
-1055.53125
 10
0.0
 20
-1065.3046875
 10
0.0
 20
-1075.078125
 10
0.0
 20
-1084.8515625
 10
0.0
 20
-1094.625
 10
0.0
 20
-1104.3984375
 10
0.0
 20
-1114.171875
 10
0.0
 20
-1123.9453125
 10
0.0
 20
-1133.71875
 10
0.0
 20
-1143.4921875
 10
0.0
 20
-1153.265625
 10
0.0
 20
-1163.0390625
 10
0.0
 20
-1172.8125
 10
0.0
 20
-1182.5859375
 10
0.0
 20
-1192.359375
 10
0.0
 20
-1202.1328125
 10
0.0
 20
-1211.90625
 10
0.0
 20
-1221.6796875
 10
0.0
 20
-1231.453125
 10
0.0
 20
-1241.2265625
 10
0.0
 20
-1251.0
 10
0.0
 20
-1260.7734375
 10
0.0
 20
-1270.546875
 10
0.0
 20
-1280.3203125
 10
0.0
 20
-1290.09375
 10
0.0
 20
-1299.8671875
 10
0.0
 20
-1309.640625
 10
0.0
 20
-1319.4140625
 10
0.0
 20
-1329.1875
 10
0.0
 20
-1338.9609375
 10
0.0
 20
-1348.734375
 10
0.0
 20
-1358.5078125
 10
0.0
 20
-1368.28125
 10
0.0
 20
-1378.0546875
 10
0.0
 20
-1387.828125
 10
0.0
 20
-1397.6015625
 10
0.0
 20
-1407.375
 10
0.0
 20
-1417.1484375
 10
0.0
 20
-1426.921875
 10
0.0
 20
-1436.6953125
 10
0.0
 20
-1446.46875
 10
0.0
 20
-1456.2421875
 10
0.0
 20
-1466.015625
 10
0.0
 20
-1475.7890625
 10
0.0
 20
-1485.5625
 10
0.0
 20
-1495.3359375
 10
0.0
 20
-1505.109375
 10
0.0
 20
-1514.8828125
 10
0.0
 20
-1524.65625
 10
0.0
 20
-1534.4296875
 10
0.0
 20
-1544.203125
 10
0.0
 20
-1553.9765625
 10
0.0
 20
-1563.75
 10
0.0
 20
-1573.5234375
 10
0.0
 20
-1583.296875
 10
0.0
 20
-1593.0703125
 10
0.0
 20
-1602.84375
 10
0.0
 20
-1612.6171875
 10
0.0
 20
-1622.390625
 10
0.0
 20
-1632.1640625
 10
0.0
 20
-1641.9375
 10
0.0
 20
-1651.7109375
 10
0.0
 20
-1661.484375
 10
0.0
 20
-1671.2578125
 10
0.0
 20
-1681.03125
 10
0.0
 20
-1690.8046875
 10
0.0
 20
-1700.578125
 10
0.0
 20
-1710.3515625
 10
0.0
 20
-1720.125
 10
0.0
 20
-1729.8984375
 10
0.0
 20
-1739.671875
 10
0.0
 20
-1749.4453125
 10
0.0
 20
-1759.21875
 10
0.0
 20
-1768.9921875
 10
0.0
 20
-1778.765625
 10
0.0
 20
-1788.5390625
 10
0.0
 20
-1798.3125
 10
0.0
 20
-1808.0859375
 10
0.0
 20
-1817.859375
 10
0.0
 20
-1827.6328125
 10
0.0
 20
-1837.40625
 10
0.0
 20
-1847.1796875
 10
0.0
 20
-1856.953125
 10
0.0
 20
-1866.7265625
 10
0.0
 20
-1876.5
 10
0.0
 20
-1886.2734375
 10
0.0
 20
-1896.046875
 10
0.0
 20
-1905.8203125
 10
0.0
 20
-1915.59375
 10
0.0
 20
-1925.3671875
 10
0.0
 20
-1935.140625
 10
0.0
 20
-1944.9140625
 10
0.0
 20
-1954.6875
 10
0.0
 20
-1964.4609375
 10
0.0
 20
-1974.234375
 10
0.0
 20
-1984.0078125
 10
0.0
 20
-1993.78125
 10
0.0
 20
-2003.5546875
 10
0.0
 20
-2013.328125
 10
0.0
 20
-2023.1015625
 10
0.0
 20
-2032.875
 10
0.0
 20
-2042.6484375
 10
0.0
 20
-2052.421875
 10
0.0
 20
-2062.1953125
 10
0.0
 20
-2071.96875
 10
0.0
 20
-2081.7421875
 10
0.0
 20
-2091.515625
 10
0.0
 20
-2101.2890625
 10
0.0
 20
-2111.0625
 10
0.0
 20
-2120.8359375
 10
0.0
 20
-2130.609375
 10
0.0
 20
-2140.3828125
 10
0.0
 20
-2150.15625
 10
0.0
 20
-2159.9296875
 10
0.0
 20
-2169.703125
 10
0.0
 20
-2179.4765625
 10
0.0
 20
-2189.25
 10
0.0
 20
-2199.0234375
 10
0.0
 20
-2208.796875
 10
0.0
 20
-2218.5703125
 10
0.0
 20
-2228.34375
 10
0.0
 20
-2238.1171875
 10
0.0
 20
-2247.890625
 10
0.0
 20
-2257.6640625
 10
0.0
 20
-2267.4375
 10
0.0
 20
-2277.2109375
 10
0.0
 20
-2286.984375
 10
0.0
 20
-2296.7578125
 10
0.0
 20
-2306.53125
 10
0.0
 20
-2316.3046875
 10
0.0
 20
-2326.078125
 10
0.0
 20
-2335.8515625
 10
0.0
 20
-2345.625
 10
0.0
 20
-2355.3984375
 10
0.0
 20
-2365.171875
 10
0.0
 20
-2374.9453125
 10
0.0
 20
-2384.71875
 10
0.0
 20
-2394.4921875
 10
0.0
 20
-2404.265625
 10
0.0
 20
-2414.0390625
 10
0.0
 20
-2423.8125
 10
0.0
 20
-2433.5859375
 10
0.0
 20
-2443.359375
 10
0.0
 20
-2453.1328125
 10
0.0
 20
-2462.90625
 10
0.0
 20
-2472.6796875
 10
0.0
 20
-2482.453125
 10
0.0
 20
-2492.2265625
 10
0.0
 20
-2502.0
 10
0.0
 20
-2511.7734375
 10
0.0
 20
-2521.546875
 10
0.0
 20
-2531.3203125
 10
0.0
 20
-2541.09375
 10
0.0
 20
-2550.8671875
 10
0.0
 20
-2560.640625
 10
0.0
 20
-2570.4140625
 10
0.0
 20
-2580.1875
 10
0.0
 20
-2589.9609375
 10
0.0
 20
-2599.734375
 10
0.0
 20
-2609.5078125
 10
0.0
 20
-2619.28125
 10
0.0
 20
-2629.0546875
 10
0.0
 20
-2638.828125
 10
0.0
 20
-2648.6015625
 10
0.0
 20
-2658.375
 10
0.0
 20
-2668.1484375
 10
0.0
 20
-2677.921875
 10
0.0
 20
-2687.6953125
 10
0.0
 20
-2697.46875
 10
0.0
 20
-2707.2421875
 10
0.0
 20
-2717.015625
 10
0.0
 20
-2726.7890625
 10
0.0
 20
-2736.5625
 10
0.0
 20
-2746.3359375
 10
0.0
 20
-2756.109375
 10
0.0
 20
-2765.8828125
 10
0.0
 20
-2775.65625
 10
0.0
 20
-2785.4296875
 10
0.0
 20
-2795.203125
 10
0.0
 20
-2804.9765625
 10
0.0
 20
-2814.75
 10
0.0
 20
-2824.5234375
 10
0.0
 20
-2834.296875
 10
0.0
 20
-2844.0703125
 10
0.0
 20
-2853.84375
 10
0.0
 20
-2863.6171875
 10
0.0
 20
-2873.390625
 10
0.0
 20
-2883.1640625
 10
0.0
 20
-2892.9375
 10
0.0
 20
-2902.7109375
 10
0.0
 20
-2912.484375
 10
0.0
 20
-2922.2578125
 10
0.0
 20
-2932.03125
 10
0.0
 20
-2941.8046875
 10
0.0
 20
-2951.578125
 10
0.0
 20
-2961.3515625
 10
0.0
 20
-2971.125
 10
0.0
 20
-2980.8984375
 10
0.0
 20
-2990.671875
 10
0.0
 20
-3000.4453125
 10
0.0
 20
-3010.21875
 10
0.0
 20
-3019.9921875
 10
0.0
 20
-3029.765625
 10
0.0
 20
-3039.5390625
 10
0.0
 20
-3049.3125
 10
0.0
 20
-3059.0859375
 10
0.0
 20
-3068.859375
 10
0.0
 20
-3078.6328125
 10
0.0
 20
-3088.40625
 10
0.0
 20
-3098.1796875
 10
0.0
 20
-3107.953125
 10
0.0
 20
-3117.7265625
 10
0.0
 20
-3127.5
 10
0.0
 20
-3137.2734375
 10
0.0
 20
-3147.046875
 10
0.0
 20
-3156.8203125
 10
0.0
 20
-3166.59375
 10
0.0
 20
-3176.3671875
 10
0.0
 20
-3186.140625
 10
0.0
 20
-3195.9140625
 10
0.0
 20
-3205.6875
 10
0.0
 20
-3215.4609375
 10
0.0
 20
-3225.234375
 10
0.0
 20
-3235.0078125
 10
0.0
 20
-3244.78125
 10
0.0
 20
-3254.5546875
 10
0.0
 20
-3264.328125
 10
0.0
 20
-3274.1015625
 10
0.0
 20
-3283.875
 10
0.0
 20
-3293.6484375
 10
0.0
 20
-3303.421875
 10
0.0
 20
-3313.1953125
 10
0.0
 20
-3322.96875
 10
0.0
 20
-3332.7421875
 10
0.0
 20
-3342.515625
 10
0.0
 20
-3352.2890625
 10
0.0
 20
-3362.0625
 10
0.0
 20
-3371.8359375
 10
0.0
 20
-3381.609375
 10
0.0
 20
-3391.3828125
 10
0.0
 20
-3401.15625
 10
0.0
 20
-3410.9296875
 10
0.0
 20
-3420.703125
 10
0.0
 20
-3430.4765625
 10
0.0
 20
-3440.25
 10
0.0
 20
-3450.0234375
 10
0.0
 20
-3459.796875
 10
0.0
 20
-3469.5703125
 10
0.0
 20
-3479.34375
 10
0.0
 20
-3489.1171875
 10
0.0
 20
-3498.890625
 10
0.0
 20
-3508.6640625
 10
0.0
 20
-3518.4375
 10
0.0
 20
-3528.2109375
 10
0.0
 20
-3537.984375
 10
0.0
 20
-3547.7578125
 10
0.0
 20
-3557.53125
 10
0.0
 20
-3567.3046875
 10
0.0
 20
-3577.078125
 10
0.0
 20
-3586.8515625
 10
0.0
 20
-3596.625
 10
0.0
 20
-3606.3984375
 10
0.0
 20
-3616.171875
 10
0.0
 20
-3625.9453125
 10
0.0
 20
-3635.71875
 10
0.0
 20
-3645.4921875
 10
0.0
 20
-3655.265625
 10
0.0
 20
-3665.0390625
 10
0.0
 20
-3674.8125
 10
0.0
 20
-3684.5859375
 10
0.0
 20
-3694.359375
 10
0.0
 20
-3704.1328125
 10
0.0
 20
-3713.90625
 10
0.0
 20
-3723.6796875
 10
0.0
 20
-3733.453125
 10
0.0
 20
-3743.2265625
 10
0.0
 20
-3753.0
 10
0.0
 20
-3762.7734375
 10
0.0
 20
-3772.546875
 10
0.0
 20
-3782.3203125
 10
0.0
 20
-3792.09375
 10
0.0
 20
-3801.8671875
 10
0.0
 20
-3811.640625
 10
0.0
 20
-3821.4140625
 10
0.0
 20
-3831.1875
 10
0.0
 20
-3840.9609375
 10
0.0
 20
-3850.734375
 10
0.0
 20
-3860.5078125
 10
0.0
 20
-3870.28125
 10
0.0
 20
-3880.0546875
 10
0.0
 20
-3889.828125
 10
0.0
 20
-3899.6015625
 10
0.0
 20
-3909.375
 10
0.0
 20
-3919.1484375
 10
0.0
 20
-3928.921875
 10
0.0
 20
-3938.6953125
 10
0.0
 20
-3948.46875
 10
0.0
 20
-3958.2421875
 10
0.0
 20
-3968.015625
 10
0.0
 20
-3977.7890625
 10
0.0
 20
-3987.5625
 10
0.0
 20
-3997.3359375
 10
0.0
 20
-4007.109375
 10
0.0
 20
-4016.8828125
 10
0.0
 20
-4026.65625
 10
0.0
 20
-4036.4296875
 10
0.0
 20
-4046.203125
 10
0.0
 20
-4055.9765625
 10
0.0
 20
-4065.75
 10
0.0
 20
-4075.5234375
 10
0.0
 20
-4085.296875
 10
0.0
 20
-4095.0703125
 10
0.0
 20
-4104.84375
 10
0.0
 20
-4114.6171875
 10
0.0
 20
-4124.390625
 10
0.0
 20
-4134.1640625
 10
0.0
 20
-4143.9375
 10
0.0
 20
-4153.7109375
 10
0.0
 20
-4163.484375
 10
0.0
 20
-4173.2578125
 10
0.0
 20
-4183.03125
 10
0.0
 20
-4192.8046875
 10
0.0
 20
-4202.578125
 10
0.0
 20
-4212.3515625
 10
0.0
 20
-4222.125
 10
0.0
 20
-4231.8984375
 10
0.0
 20
-4241.671875
 10
0.0
 20
-4251.4453125
 10
0.0
 20
-4261.21875
 10
0.0
 20
-4270.9921875
 10
0.0
 20
-4280.765625
 10
0.0
 20
-4290.5390625
 10
0.0
 20
-4300.3125
 10
0.0
 20
-4310.0859375
 10
0.0
 20
-4319.859375
 10
0.0
 20
-4329.6328125
 10
0.0
 20
-4339.40625
 10
0.0
 20
-4349.1796875
 10
0.0
 20
-4358.953125
 10
0.0
 20
-4368.7265625
 10
0.0
 20
-4378.5
 10
0.0
 20
-4388.2734375
 10
0.0
 20
-4398.046875
 10
0.0
 20
-4407.8203125
 10
0.0
 20
-4417.59375
 10
0.0
 20
-4427.3671875
 10
0.0
 20
-4437.140625
 10
0.0
 20
-4446.9140625
 10
0.0
 20
-4456.6875
 10
0.0
 20
-4466.4609375
 10
0.0
 20
-4476.234375
 10
0.0
 20
-4486.0078125
 10
0.0
 20
-4495.78125
 10
0.0
 20
-4505.5546875
 10
0.0
 20
-4515.328125
 10
0.0
 20
-4525.1015625
 10
0.0
 20
-4534.875
 10
0.0
 20
-4544.6484375
 10
0.0
 20
-4554.421875
 10
0.0
 20
-4564.1953125
 10
0.0
 20
-4573.96875
 10
0.0
 20
-4583.7421875
 10
0.0
 20
-4593.515625
 10
0.0
 20
-4603.2890625
 10
0.0
 20
-4613.0625
 10
0.0
 20
-4622.8359375
 10
0.0
 20
-4632.609375
 10
0.0
 20
-4642.3828125
 10
0.0
 20
-4652.15625
 10
0.0
 20
-4661.9296875
 10
0.0
 20
-4671.703125
 10
0.0
 20
-4681.4765625
 10
0.0
 20
-4691.25
 10
0.0
 20
-4701.0234375
 10
0.0
 20
-4710.796875
 10
0.0
 20
-4720.5703125
 10
0.0
 20
-4730.34375
 10
0.0
 20
-4740.1171875
 10
0.0
 20
-4749.890625
 10
0.0
 20
-4759.6640625
 10
0.0
 20
-4769.4375
 10
0.0
 20
-4779.2109375
 10
0.0
 20
-4788.984375
 10
0.0
 20
-4798.7578125
 10
0.0
 20
-4808.53125
 10
0.0
 20
-4818.3046875
 10
0.0
 20
-4828.078125
 10
0.0
 20
-4837.8515625
 10
0.0
 20
-4847.625
 10
0.0
 20
-4857.3984375
 10
0.0
 20
-4867.171875
 10
0.0
 20
-4876.9453125
 10
0.0
 20
-4886.71875
 10
0.0
 20
-4896.4921875
 10
0.0
 20
-4906.265625
 10
0.0
 20
-4916.0390625
 10
0.0
 20
-4925.8125
 10
0.0
 20
-4935.5859375
 10
0.0
 20
-4945.359375
 10
0.0
 20
-4955.1328125
 10
0.0
 20
-4964.90625
 10
0.0
 20
-4974.6796875
 10
0.0
 20
-4984.453125
 10
0.0
 20
-4994.2265625
 10
9.7734375
 20
-4994.2265625
 10
19.546875
 20
-4994.2265625
 10
29.3203125
 20
-4994.2265625
 10
39.09375
 20
-4994.2265625
 10
48.8671875
 20
-4994.2265625
 10
58.640625
 20
-4994.2265625
 10
68.4140625
 20
-4994.2265625
 10
78.1875
 20
-4994.2265625
 10
87.9609375
 20
-4994.2265625
 10
97.734375
 20
-4994.2265625
 10
107.5078125
 20
-4994.2265625
 10
117.28125
 20
-4994.2265625
 10
127.0546875
 20
-4994.2265625
 10
136.828125
 20
-4994.2265625
 10
146.6015625
 20
-4994.2265625
 10
156.375
 20
-4994.2265625
 10
166.1484375
 20
-4994.2265625
 10
175.921875
 20
-4994.2265625
 10
185.6953125
 20
-4994.2265625
 10
195.46875
 20
-4994.2265625
 10
205.2421875
 20
-4994.2265625
 10
215.015625
 20
-4994.2265625
 10
224.7890625
 20
-4994.2265625
 10
234.5625
 20
-4994.2265625
 10
244.3359375
 20
-4994.2265625
 10
254.109375
 20
-4994.2265625
 10
263.8828125
 20
-4994.2265625
 10
273.65625
 20
-4994.2265625
 10
283.4296875
 20
-4994.2265625
 10
293.203125
 20
-4994.2265625
 10
302.9765625
 20
-4994.2265625
 10
312.75
 20
-4994.2265625
 10
322.5234375
 20
-4994.2265625
 10
332.296875
 20
-4994.2265625
 10
342.0703125
 20
-4994.2265625
 10
351.84375
 20
-4994.2265625
 10
361.6171875
 20
-4994.2265625
 10
371.390625
 20
-4994.2265625
 10
381.1640625
 20
-4994.2265625
 10
390.9375
 20
-4994.2265625
 10
400.7109375
 20
-4994.2265625
 10
410.484375
 20
-4994.2265625
 10
420.2578125
 20
-4994.2265625
 10
430.03125
 20
-4994.2265625
 10
439.8046875
 20
-4994.2265625
 10
449.578125
 20
-4994.2265625
 10
459.3515625
 20
-4994.2265625
 10
469.125
 20
-4994.2265625
 10
478.8984375
 20
-4994.2265625
 10
488.671875
 20
-4994.2265625
 10
498.4453125
 20
-4994.2265625
 10
508.21875
 20
-4994.2265625
 10
517.9921875
 20
-4994.2265625
 10
527.765625
 20
-4994.2265625
 10
537.5390625
 20
-4994.2265625
 10
547.3125
 20
-4994.2265625
 10
557.0859375
 20
-4994.2265625
 10
566.859375
 20
-4994.2265625
 10
576.6328125
 20
-4994.2265625
 10
586.40625
 20
-4994.2265625
 10
596.1796875
 20
-4994.2265625
 10
605.953125
 20
-4994.2265625
 10
615.7265625
 20
-4994.2265625
 10
625.5
 20
-4994.2265625
 10
635.2734375
 20
-4994.2265625
 10
645.046875
 20
-4994.2265625
 10
654.8203125
 20
-4994.2265625
 10
664.59375
 20
-4994.2265625
 10
674.3671875
 20
-4994.2265625
 10
684.140625
 20
-4994.2265625
 10
693.9140625
 20
-4994.2265625
 10
703.6875
 20
-4994.2265625
 10
713.4609375
 20
-4994.2265625
 10
723.234375
 20
-4994.2265625
 10
733.0078125
 20
-4994.2265625
 10
742.78125
 20
-4994.2265625
 10
752.5546875
 20
-4994.2265625
 10
762.328125
 20
-4994.2265625
 10
772.1015625
 20
-4994.2265625
 10
781.875
 20
-4994.2265625
 10
791.6484375
 20
-4994.2265625
 10
801.421875
 20
-4994.2265625
 10
811.1953125
 20
-4994.2265625
 10
820.96875
 20
-4994.2265625
 10
830.7421875
 20
-4994.2265625
 10
840.515625
 20
-4994.2265625
 10
850.2890625
 20
-4994.2265625
 10
860.0625
 20
-4994.2265625
 10
869.8359375
 20
-4994.2265625
 10
879.609375
 20
-4994.2265625
 10
889.3828125
 20
-4994.2265625
 10
899.15625
 20
-4994.2265625
 10
908.9296875
 20
-4994.2265625
 10
918.703125
 20
-4994.2265625
 10
928.4765625
 20
-4994.2265625
 10
938.25
 20
-4994.2265625
 10
948.0234375
 20
-4994.2265625
 10
957.796875
 20
-4994.2265625
 10
967.5703125
 20
-4994.2265625
 10
977.34375
 20
-4994.2265625
 10
987.1171875
 20
-4994.2265625
 10
996.890625
 20
-4994.2265625
 10
1006.6640625
 20
-4994.2265625
 10
1016.4375
 20
-4994.2265625
 10
1026.2109375
 20
-4994.2265625
 10
1035.984375
 20
-4994.2265625
 10
1045.7578125
 20
-4994.2265625
 10
1055.53125
 20
-4994.2265625
 10
1065.3046875
 20
-4994.2265625
 10
1075.078125
 20
-4994.2265625
 10
1084.8515625
 20
-4994.2265625
 10
1094.625
 20
-4994.2265625
 10
1104.3984375
 20
-4994.2265625
 10
1114.171875
 20
-4994.2265625
 10
1123.9453125
 20
-4994.2265625
 10
1133.71875
 20
-4994.2265625
 10
1143.4921875
 20
-4994.2265625
 10
1153.265625
 20
-4994.2265625
 10
1163.0390625
 20
-4994.2265625
 10
1172.8125
 20
-4994.2265625
 10
1182.5859375
 20
-4994.2265625
 10
1192.359375
 20
-4994.2265625
 10
1202.1328125
 20
-4994.2265625
 10
1211.90625
 20
-4994.2265625
 10
1221.6796875
 20
-4994.2265625
 10
1231.453125
 20
-4994.2265625
 10
1241.2265625
 20
-4994.2265625
 10
1251.0
 20
-4994.2265625
 10
1260.7734375
 20
-4994.2265625
 10
1270.546875
 20
-4994.2265625
 10
1280.3203125
 20
-4994.2265625
 10
1290.09375
 20
-4994.2265625
 10
1299.8671875
 20
-4994.2265625
 10
1309.640625
 20
-4994.2265625
 10
1319.4140625
 20
-4994.2265625
 10
1329.1875
 20
-4994.2265625
 10
1338.9609375
 20
-4994.2265625
 10
1348.734375
 20
-4994.2265625
 10
1358.5078125
 20
-4994.2265625
 10
1368.28125
 20
-4994.2265625
 10
1378.0546875
 20
-4994.2265625
 10
1387.828125
 20
-4994.2265625
 10
1397.6015625
 20
-4994.2265625
 10
1407.375
 20
-4994.2265625
 10
1417.1484375
 20
-4994.2265625
 10
1426.921875
 20
-4994.2265625
 10
1436.6953125
 20
-4994.2265625
 10
1446.46875
 20
-4994.2265625
 10
1456.2421875
 20
-4994.2265625
 10
1466.015625
 20
-4994.2265625
 10
1475.7890625
 20
-4994.2265625
 10
1485.5625
 20
-4994.2265625
 10
1495.3359375
 20
-4994.2265625
 10
1505.109375
 20
-4994.2265625
 10
1514.8828125
 20
-4994.2265625
 10
1524.65625
 20
-4994.2265625
 10
1534.4296875
 20
-4994.2265625
 10
1544.203125
 20
-4994.2265625
 10
1553.9765625
 20
-4994.2265625
 10
1563.75
 20
-4994.2265625
 10
1573.5234375
 20
-4994.2265625
 10
1583.296875
 20
-4994.2265625
 10
1593.0703125
 20
-4994.2265625
 10
1602.84375
 20
-4994.2265625
 10
1612.6171875
 20
-4994.2265625
 10
1622.390625
 20
-4994.2265625
 10
1632.1640625
 20
-4994.2265625
 10
1641.9375
 20
-4994.2265625
 10
1651.7109375
 20
-4994.2265625
 10
1661.484375
 20
-4994.2265625
 10
1671.2578125
 20
-4994.2265625
 10
1681.03125
 20
-4994.2265625
 10
1690.8046875
 20
-4994.2265625
 10
1700.578125
 20
-4994.2265625
 10
1710.3515625
 20
-4994.2265625
 10
1720.125
 20
-4994.2265625
 10
1729.8984375
 20
-4994.2265625
 10
1739.671875
 20
-4994.2265625
 10
1749.4453125
 20
-4994.2265625
 10
1759.21875
 20
-4994.2265625
 10
1768.9921875
 20
-4994.2265625
 10
1778.765625
 20
-4994.2265625
 10
1788.5390625
 20
-4994.2265625
 10
1798.3125
 20
-4994.2265625
 10
1808.0859375
 20
-4994.2265625
 10
1817.859375
 20
-4994.2265625
 10
1827.6328125
 20
-4994.2265625
 10
1837.40625
 20
-4994.2265625
 10
1847.1796875
 20
-4994.2265625
 10
1856.953125
 20
-4994.2265625
 10
1866.7265625
 20
-4994.2265625
 10
1876.5
 20
-4994.2265625
 10
1886.2734375
 20
-4994.2265625
 10
1896.046875
 20
-4994.2265625
 10
1905.8203125
 20
-4994.2265625
 10
1915.59375
 20
-4994.2265625
 10
1925.3671875
 20
-4994.2265625
 10
1935.140625
 20
-4994.2265625
 10
1944.9140625
 20
-4994.2265625
 10
1954.6875
 20
-4994.2265625
 10
1964.4609375
 20
-4994.2265625
 10
1974.234375
 20
-4994.2265625
 10
1984.0078125
 20
-4994.2265625
 10
1993.78125
 20
-4994.2265625
 10
2003.5546875
 20
-4994.2265625
 10
2013.328125
 20
-4994.2265625
 10
2023.1015625
 20
-4994.2265625
 10
2032.875
 20
-4994.2265625
 10
2042.6484375
 20
-4994.2265625
 10
2052.421875
 20
-4994.2265625
 10
2062.1953125
 20
-4994.2265625
 10
2071.96875
 20
-4994.2265625
 10
2081.7421875
 20
-4994.2265625
 10
2091.515625
 20
-4994.2265625
 10
2101.2890625
 20
-4994.2265625
 10
2111.0625
 20
-4994.2265625
 10
2120.8359375
 20
-4994.2265625
 10
2130.609375
 20
-4994.2265625
 10
2140.3828125
 20
-4994.2265625
 10
2150.15625
 20
-4994.2265625
 10
2159.9296875
 20
-4994.2265625
 10
2169.703125
 20
-4994.2265625
 10
2179.4765625
 20
-4994.2265625
 10
2189.25
 20
-4994.2265625
 10
2199.0234375
 20
-4994.2265625
 10
2208.796875
 20
-4994.2265625
 10
2218.5703125
 20
-4994.2265625
 10
2228.34375
 20
-4994.2265625
 10
2238.1171875
 20
-4994.2265625
 10
2247.890625
 20
-4994.2265625
 10
2257.6640625
 20
-4994.2265625
 10
2267.4375
 20
-4994.2265625
 10
2277.2109375
 20
-4994.2265625
 10
2286.984375
 20
-4994.2265625
 10
2296.7578125
 20
-4994.2265625
 10
2306.53125
 20
-4994.2265625
 10
2316.3046875
 20
-4994.2265625
 10
2326.078125
 20
-4994.2265625
 10
2335.8515625
 20
-4994.2265625
 10
2345.625
 20
-4994.2265625
 10
2355.3984375
 20
-4994.2265625
 10
2365.171875
 20
-4994.2265625
 10
2374.9453125
 20
-4994.2265625
 10
2384.71875
 20
-4994.2265625
 10
2394.4921875
 20
-4994.2265625
 10
2404.265625
 20
-4994.2265625
 10
2414.0390625
 20
-4994.2265625
 10
2423.8125
 20
-4994.2265625
 10
2433.5859375
 20
-4994.2265625
 10
2443.359375
 20
-4994.2265625
 10
2453.1328125
 20
-4994.2265625
 10
2462.90625
 20
-4994.2265625
 10
2472.6796875
 20
-4994.2265625
 10
2482.453125
 20
-4994.2265625
 10
2492.2265625
 20
-4994.2265625
 10
2502.0
 20
-4994.2265625
 10
2511.7734375
 20
-4994.2265625
 10
2521.546875
 20
-4994.2265625
 10
2531.3203125
 20
-4994.2265625
 10
2541.09375
 20
-4994.2265625
 10
2550.8671875
 20
-4994.2265625
 10
2560.640625
 20
-4994.2265625
 10
2570.4140625
 20
-4994.2265625
 10
2580.1875
 20
-4994.2265625
 10
2589.9609375
 20
-4994.2265625
 10
2599.734375
 20
-4994.2265625
 10
2609.5078125
 20
-4994.2265625
 10
2619.28125
 20
-4994.2265625
 10
2629.0546875
 20
-4994.2265625
 10
2638.828125
 20
-4994.2265625
 10
2648.6015625
 20
-4994.2265625
 10
2658.375
 20
-4994.2265625
 10
2668.1484375
 20
-4994.2265625
 10
2677.921875
 20
-4994.2265625
 10
2687.6953125
 20
-4994.2265625
 10
2697.46875
 20
-4994.2265625
 10
2707.2421875
 20
-4994.2265625
 10
2717.015625
 20
-4994.2265625
 10
2726.7890625
 20
-4994.2265625
 10
2736.5625
 20
-4994.2265625
 10
2746.3359375
 20
-4994.2265625
 10
2756.109375
 20
-4994.2265625
 10
2765.8828125
 20
-4994.2265625
 10
2775.65625
 20
-4994.2265625
 10
2785.4296875
 20
-4994.2265625
 10
2795.203125
 20
-4994.2265625
 10
2804.9765625
 20
-4994.2265625
 10
2814.75
 20
-4994.2265625
 10
2824.5234375
 20
-4994.2265625
 10
2834.296875
 20
-4994.2265625
 10
2844.0703125
 20
-4994.2265625
 10
2853.84375
 20
-4994.2265625
 10
2863.6171875
 20
-4994.2265625
 10
2873.390625
 20
-4994.2265625
 10
2883.1640625
 20
-4994.2265625
 10
2892.9375
 20
-4994.2265625
 10
2902.7109375
 20
-4994.2265625
 10
2912.484375
 20
-4994.2265625
 10
2922.2578125
 20
-4994.2265625
 10
2932.03125
 20
-4994.2265625
 10
2941.8046875
 20
-4994.2265625
 10
2951.578125
 20
-4994.2265625
 10
2961.3515625
 20
-4994.2265625
 10
2971.125
 20
-4994.2265625
 10
2980.8984375
 20
-4994.2265625
 10
2990.671875
 20
-4994.2265625
 10
3000.4453125
 20
-4994.2265625
 10
3010.21875
 20
-4994.2265625
 10
3019.9921875
 20
-4994.2265625
 10
3029.765625
 20
-4994.2265625
 10
3039.5390625
 20
-4994.2265625
 10
3049.3125
 20
-4994.2265625
 10
3059.0859375
 20
-4994.2265625
 10
3068.859375
 20
-4994.2265625
 10
3078.6328125
 20
-4994.2265625
 10
3088.40625
 20
-4994.2265625
 10
3098.1796875
 20
-4994.2265625
 10
3107.953125
 20
-4994.2265625
 10
3117.7265625
 20
-4994.2265625
 10
3127.5
 20
-4994.2265625
 10
3137.2734375
 20
-4994.2265625
 10
3147.046875
 20
-4994.2265625
 10
3156.8203125
 20
-4994.2265625
 10
3166.59375
 20
-4994.2265625
 10
3176.3671875
 20
-4994.2265625
 10
3186.140625
 20
-4994.2265625
 10
3195.9140625
 20
-4994.2265625
 10
3205.6875
 20
-4994.2265625
 10
3215.4609375
 20
-4994.2265625
 10
3225.234375
 20
-4994.2265625
 10
3235.0078125
 20
-4994.2265625
 10
3244.78125
 20
-4994.2265625
 10
3254.5546875
 20
-4994.2265625
 10
3264.328125
 20
-4994.2265625
 10
3274.1015625
 20
-4994.2265625
 10
3283.875
 20
-4994.2265625
 10
3293.6484375
 20
-4994.2265625
 10
3303.421875
 20
-4994.2265625
 10
3313.1953125
 20
-4994.2265625
 10
3322.96875
 20
-4994.2265625
 10
3332.7421875
 20
-4994.2265625
 10
3342.515625
 20
-4994.2265625
 10
3352.2890625
 20
-4994.2265625
 10
3362.0625
 20
-4994.2265625
 10
3371.8359375
 20
-4994.2265625
 10
3381.609375
 20
-4994.2265625
 10
3391.3828125
 20
-4994.2265625
 10
3401.15625
 20
-4994.2265625
 10
3410.9296875
 20
-4994.2265625
 10
3420.703125
 20
-4994.2265625
 10
3430.4765625
 20
-4994.2265625
 10
3440.25
 20
-4994.2265625
 10
3450.0234375
 20
-4994.2265625
 10
3459.796875
 20
-4994.2265625
 10
3469.5703125
 20
-4994.2265625
 10
3479.34375
 20
-4994.2265625
 10
3489.1171875
 20
-4994.2265625
 10
3498.890625
 20
-4994.2265625
 10
3508.6640625
 20
-4994.2265625
 10
3518.4375
 20
-4994.2265625
 10
3528.2109375
 20
-4994.2265625
 10
3537.984375
 20
-4994.2265625
 10
3547.7578125
 20
-4994.2265625
 10
3557.53125
 20
-4994.2265625
 10
3567.3046875
 20
-4994.2265625
 10
3577.078125
 20
-4994.2265625
 10
3586.8515625
 20
-4994.2265625
 10
3596.625
 20
-4994.2265625
 10
3606.3984375
 20
-4994.2265625
 10
3616.171875
 20
-4994.2265625
 10
3625.9453125
 20
-4994.2265625
 10
3635.71875
 20
-4994.2265625
 10
3645.4921875
 20
-4994.2265625
 10
3655.265625
 20
-4994.2265625
 10
3665.0390625
 20
-4994.2265625
 10
3674.8125
 20
-4994.2265625
 10
3684.5859375
 20
-4994.2265625
 10
3694.359375
 20
-4994.2265625
 10
3704.1328125
 20
-4994.2265625
 10
3713.90625
 20
-4994.2265625
 10
3723.6796875
 20
-4994.2265625
 10
3733.453125
 20
-4994.2265625
 10
3743.2265625
 20
-4994.2265625
 10
3753.0
 20
-4994.2265625
 10
3762.7734375
 20
-4994.2265625
 10
3772.546875
 20
-4994.2265625
 10
3782.3203125
 20
-4994.2265625
 10
3792.09375
 20
-4994.2265625
 10
3801.8671875
 20
-4994.2265625
 10
3811.640625
 20
-4994.2265625
 10
3821.4140625
 20
-4994.2265625
 10
3831.1875
 20
-4994.2265625
 10
3840.9609375
 20
-4994.2265625
 10
3850.734375
 20
-4994.2265625
 10
3860.5078125
 20
-4994.2265625
 10
3870.28125
 20
-4994.2265625
 10
3880.0546875
 20
-4994.2265625
 10
3889.828125
 20
-4994.2265625
 10
3899.6015625
 20
-4994.2265625
 10
3909.375
 20
-4994.2265625
 10
3919.1484375
 20
-4994.2265625
 10
3928.921875
 20
-4994.2265625
 10
3938.6953125
 20
-4994.2265625
 10
3948.46875
 20
-4994.2265625
 10
3958.2421875
 20
-4994.2265625
 10
3968.015625
 20
-4994.2265625
 10
3977.7890625
 20
-4994.2265625
 10
3987.5625
 20
-4994.2265625
 10
3997.3359375
 20
-4994.2265625
 10
4007.109375
 20
-4994.2265625
 10
4016.8828125
 20
-4994.2265625
 10
4026.65625
 20
-4994.2265625
 10
4036.4296875
 20
-4994.2265625
 10
4046.203125
 20
-4994.2265625
 10
4055.9765625
 20
-4994.2265625
 10
4065.75
 20
-4994.2265625
 10
4075.5234375
 20
-4994.2265625
 10
4085.296875
 20
-4994.2265625
 10
4095.0703125
 20
-4994.2265625
 10
4104.84375
 20
-4994.2265625
 10
4114.6171875
 20
-4994.2265625
 10
4124.390625
 20
-4994.2265625
 10
4134.1640625
 20
-4994.2265625
 10
4143.9375
 20
-4994.2265625
 10
4153.7109375
 20
-4994.2265625
 10
4163.484375
 20
-4994.2265625
 10
4173.2578125
 20
-4994.2265625
 10
4183.03125
 20
-4994.2265625
 10
4192.8046875
 20
-4994.2265625
 10
4202.578125
 20
-4994.2265625
 10
4212.3515625
 20
-4994.2265625
 10
4222.125
 20
-4994.2265625
 10
4231.8984375
 20
-4994.2265625
 10
4241.671875
 20
-4994.2265625
 10
4251.4453125
 20
-4994.2265625
 10
4261.21875
 20
-4994.2265625
 10
4270.9921875
 20
-4994.2265625
 10
4280.765625
 20
-4994.2265625
 10
4290.5390625
 20
-4994.2265625
 10
4300.3125
 20
-4994.2265625
 10
4310.0859375
 20
-4994.2265625
 10
4319.859375
 20
-4994.2265625
 10
4329.6328125
 20
-4994.2265625
 10
4339.40625
 20
-4994.2265625
 10
4349.1796875
 20
-4994.2265625
 10
4358.953125
 20
-4994.2265625
 10
4368.7265625
 20
-4994.2265625
 10
4378.5
 20
-4994.2265625
 10
4388.2734375
 20
-4994.2265625
 10
4398.046875
 20
-4994.2265625
 10
4407.8203125
 20
-4994.2265625
 10
4417.59375
 20
-4994.2265625
 10
4427.3671875
 20
-4994.2265625
 10
4437.140625
 20
-4994.2265625
 10
4446.9140625
 20
-4994.2265625
 10
4456.6875
 20
-4994.2265625
 10
4466.4609375
 20
-4994.2265625
 10
4476.234375
 20
-4994.2265625
 10
4486.0078125
 20
-4994.2265625
 10
4495.78125
 20
-4994.2265625
 10
4505.5546875
 20
-4994.2265625
 10
4515.328125
 20
-4994.2265625
 10
4525.1015625
 20
-4994.2265625
 10
4534.875
 20
-4994.2265625
 10
4544.6484375
 20
-4994.2265625
 10
4554.421875
 20
-4994.2265625
 10
4564.1953125
 20
-4994.2265625
 10
4573.96875
 20
-4994.2265625
 10
4583.7421875
 20
-4994.2265625
 10
4593.515625
 20
-4994.2265625
 10
4603.2890625
 20
-4994.2265625
 10
4613.0625
 20
-4994.2265625
 10
4622.8359375
 20
-4994.2265625
 10
4632.609375
 20
-4994.2265625
 10
4642.3828125
 20
-4994.2265625
 10
4652.15625
 20
-4994.2265625
 10
4661.9296875
 20
-4994.2265625
 10
4671.703125
 20
-4994.2265625
 10
4681.4765625
 20
-4994.2265625
 10
4691.25
 20
-4994.2265625
 10
4701.0234375
 20
-4994.2265625
 10
4710.796875
 20
-4994.2265625
 10
4720.5703125
 20
-4994.2265625
 10
4730.34375
 20
-4994.2265625
 10
4740.1171875
 20
-4994.2265625
 10
4749.890625
 20
-4994.2265625
 10
4759.6640625
 20
-4994.2265625
 10
4769.4375
 20
-4994.2265625
 10
4779.2109375
 20
-4994.2265625
 10
4788.984375
 20
-4994.2265625
 10
4798.7578125
 20
-4994.2265625
 10
4808.53125
 20
-4994.2265625
 10
4818.3046875
 20
-4994.2265625
 10
4828.078125
 20
-4994.2265625
 10
4837.8515625
 20
-4994.2265625
 10
4847.625
 20
-4994.2265625
 10
4857.3984375
 20
-4994.2265625
 10
4867.171875
 20
-4994.2265625
 10
4876.9453125
 20
-4994.2265625
 10
4886.71875
 20
-4994.2265625
 10
4896.4921875
 20
-4994.2265625
 10
4906.265625
 20
-4994.2265625
 10
4916.0390625
 20
-4994.2265625
 10
4925.8125
 20
-4994.2265625
 10
4935.5859375
 20
-4994.2265625
 10
4945.359375
 20
-4994.2265625
 10
4955.1328125
 20
-4994.2265625
 10
4964.90625
 20
-4994.2265625
 10
4974.6796875
 20
-4994.2265625
 10
4984.453125
 20
-4994.2265625
 10
4994.2265625
 20
-4994.2265625
 10
4994.2265625
 20
-4984.453125
 10
4994.2265625
 20
-4974.6796875
 10
4994.2265625
 20
-4964.90625
 10
4994.2265625
 20
-4955.1328125
 10
4994.2265625
 20
-4945.359375
 10
4994.2265625
 20
-4935.5859375
 10
4994.2265625
 20
-4925.8125
 10
4994.2265625
 20
-4916.0390625
 10
4994.2265625
 20
-4906.265625
 10
4994.2265625
 20
-4896.4921875
 10
4994.2265625
 20
-4886.71875
 10
4994.2265625
 20
-4876.9453125
 10
4994.2265625
 20
-4867.171875
 10
4994.2265625
 20
-4857.3984375
 10
4994.2265625
 20
-4847.625
 10
4994.2265625
 20
-4837.8515625
 10
4994.2265625
 20
-4828.078125
 10
4994.2265625
 20
-4818.3046875
 10
4994.2265625
 20
-4808.53125
 10
4994.2265625
 20
-4798.7578125
 10
4994.2265625
 20
-4788.984375
 10
4994.2265625
 20
-4779.2109375
 10
4994.2265625
 20
-4769.4375
 10
4994.2265625
 20
-4759.6640625
 10
4994.2265625
 20
-4749.890625
 10
4994.2265625
 20
-4740.1171875
 10
4994.2265625
 20
-4730.34375
 10
4994.2265625
 20
-4720.5703125
 10
4994.2265625
 20
-4710.796875
 10
4994.2265625
 20
-4701.0234375
 10
4994.2265625
 20
-4691.25
 10
4994.2265625
 20
-4681.4765625
 10
4994.2265625
 20
-4671.703125
 10
4994.2265625
 20
-4661.9296875
 10
4994.2265625
 20
-4652.15625
 10
4994.2265625
 20
-4642.3828125
 10
4994.2265625
 20
-4632.609375
 10
4994.2265625
 20
-4622.8359375
 10
4994.2265625
 20
-4613.0625
 10
4994.2265625
 20
-4603.2890625
 10
4994.2265625
 20
-4593.515625
 10
4994.2265625
 20
-4583.7421875
 10
4994.2265625
 20
-4573.96875
 10
4994.2265625
 20
-4564.1953125
 10
4994.2265625
 20
-4554.421875
 10
4994.2265625
 20
-4544.6484375
 10
4994.2265625
 20
-4534.875
 10
4994.2265625
 20
-4525.1015625
 10
4994.2265625
 20
-4515.328125
 10
4994.2265625
 20
-4505.5546875
 10
4994.2265625
 20
-4495.78125
 10
4994.2265625
 20
-4486.0078125
 10
4994.2265625
 20
-4476.234375
 10
4994.2265625
 20
-4466.4609375
 10
4994.2265625
 20
-4456.6875
 10
4994.2265625
 20
-4446.9140625
 10
4994.2265625
 20
-4437.140625
 10
4994.2265625
 20
-4427.3671875
 10
4994.2265625
 20
-4417.59375
 10
4994.2265625
 20
-4407.8203125
 10
4994.2265625
 20
-4398.046875
 10
4994.2265625
 20
-4388.2734375
 10
4994.2265625
 20
-4378.5
 10
4994.2265625
 20
-4368.7265625
 10
4994.2265625
 20
-4358.953125
 10
4994.2265625
 20
-4349.1796875
 10
4994.2265625
 20
-4339.40625
 10
4994.2265625
 20
-4329.6328125
 10
4994.2265625
 20
-4319.859375
 10
4994.2265625
 20
-4310.0859375
 10
4994.2265625
 20
-4300.3125
 10
4994.2265625
 20
-4290.5390625
 10
4994.2265625
 20
-4280.765625
 10
4994.2265625
 20
-4270.9921875
 10
4994.2265625
 20
-4261.21875
 10
4994.2265625
 20
-4251.4453125
 10
4994.2265625
 20
-4241.671875
 10
4994.2265625
 20
-4231.8984375
 10
4994.2265625
 20
-4222.125
 10
4994.2265625
 20
-4212.3515625
 10
4994.2265625
 20
-4202.578125
 10
4994.2265625
 20
-4192.8046875
 10
4994.2265625
 20
-4183.03125
 10
4994.2265625
 20
-4173.2578125
 10
4994.2265625
 20
-4163.484375
 10
4994.2265625
 20
-4153.7109375
 10
4994.2265625
 20
-4143.9375
 10
4994.2265625
 20
-4134.1640625
 10
4994.2265625
 20
-4124.390625
 10
4994.2265625
 20
-4114.6171875
 10
4994.2265625
 20
-4104.84375
 10
4994.2265625
 20
-4095.0703125
 10
4994.2265625
 20
-4085.296875
 10
4994.2265625
 20
-4075.5234375
 10
4994.2265625
 20
-4065.75
 10
4994.2265625
 20
-4055.9765625
 10
4994.2265625
 20
-4046.203125
 10
4994.2265625
 20
-4036.4296875
 10
4994.2265625
 20
-4026.65625
 10
4994.2265625
 20
-4016.8828125
 10
4994.2265625
 20
-4007.109375
 10
4994.2265625
 20
-3997.3359375
 10
4994.2265625
 20
-3987.5625
 10
4994.2265625
 20
-3977.7890625
 10
4994.2265625
 20
-3968.015625
 10
4994.2265625
 20
-3958.2421875
 10
4994.2265625
 20
-3948.46875
 10
4994.2265625
 20
-3938.6953125
 10
4994.2265625
 20
-3928.921875
 10
4994.2265625
 20
-3919.1484375
 10
4994.2265625
 20
-3909.375
 10
4994.2265625
 20
-3899.6015625
 10
4994.2265625
 20
-3889.828125
 10
4994.2265625
 20
-3880.0546875
 10
4994.2265625
 20
-3870.28125
 10
4994.2265625
 20
-3860.5078125
 10
4994.2265625
 20
-3850.734375
 10
4994.2265625
 20
-3840.9609375
 10
4994.2265625
 20
-3831.1875
 10
4994.2265625
 20
-3821.4140625
 10
4994.2265625
 20
-3811.640625
 10
4994.2265625
 20
-3801.8671875
 10
4994.2265625
 20
-3792.09375
 10
4994.2265625
 20
-3782.3203125
 10
4994.2265625
 20
-3772.546875
 10
4994.2265625
 20
-3762.7734375
 10
4994.2265625
 20
-3753.0
 10
4994.2265625
 20
-3743.2265625
 10
4994.2265625
 20
-3733.453125
 10
4994.2265625
 20
-3723.6796875
 10
4994.2265625
 20
-3713.90625
 10
4994.2265625
 20
-3704.1328125
 10
4994.2265625
 20
-3694.359375
 10
4994.2265625
 20
-3684.5859375
 10
4994.2265625
 20
-3674.8125
 10
4994.2265625
 20
-3665.0390625
 10
4994.2265625
 20
-3655.265625
 10
4994.2265625
 20
-3645.4921875
 10
4994.2265625
 20
-3635.71875
 10
4994.2265625
 20
-3625.9453125
 10
4994.2265625
 20
-3616.171875
 10
4994.2265625
 20
-3606.3984375
 10
4994.2265625
 20
-3596.625
 10
4994.2265625
 20
-3586.8515625
 10
4994.2265625
 20
-3577.078125
 10
4994.2265625
 20
-3567.3046875
 10
4994.2265625
 20
-3557.53125
 10
4994.2265625
 20
-3547.7578125
 10
4994.2265625
 20
-3537.984375
 10
4994.2265625
 20
-3528.2109375
 10
4994.2265625
 20
-3518.4375
 10
4994.2265625
 20
-3508.6640625
 10
4994.2265625
 20
-3498.890625
 10
4994.2265625
 20
-3489.1171875
 10
4994.2265625
 20
-3479.34375
 10
4994.2265625
 20
-3469.5703125
 10
4994.2265625
 20
-3459.796875
 10
4994.2265625
 20
-3450.0234375
 10
4994.2265625
 20
-3440.25
 10
4994.2265625
 20
-3430.4765625
 10
4994.2265625
 20
-3420.703125
 10
4994.2265625
 20
-3410.9296875
 10
4994.2265625
 20
-3401.15625
 10
4994.2265625
 20
-3391.3828125
 10
4994.2265625
 20
-3381.609375
 10
4994.2265625
 20
-3371.8359375
 10
4994.2265625
 20
-3362.0625
 10
4994.2265625
 20
-3352.2890625
 10
4994.2265625
 20
-3342.515625
 10
4994.2265625
 20
-3332.7421875
 10
4994.2265625
 20
-3322.96875
 10
4994.2265625
 20
-3313.1953125
 10
4994.2265625
 20
-3303.421875
 10
4994.2265625
 20
-3293.6484375
 10
4994.2265625
 20
-3283.875
 10
4994.2265625
 20
-3274.1015625
 10
4994.2265625
 20
-3264.328125
 10
4994.2265625
 20
-3254.5546875
 10
4994.2265625
 20
-3244.78125
 10
4994.2265625
 20
-3235.0078125
 10
4994.2265625
 20
-3225.234375
 10
4994.2265625
 20
-3215.4609375
 10
4994.2265625
 20
-3205.6875
 10
4994.2265625
 20
-3195.9140625
 10
4994.2265625
 20
-3186.140625
 10
4994.2265625
 20
-3176.3671875
 10
4994.2265625
 20
-3166.59375
 10
4994.2265625
 20
-3156.8203125
 10
4994.2265625
 20
-3147.046875
 10
4994.2265625
 20
-3137.2734375
 10
4994.2265625
 20
-3127.5
 10
4994.2265625
 20
-3117.7265625
 10
4994.2265625
 20
-3107.953125
 10
4994.2265625
 20
-3098.1796875
 10
4994.2265625
 20
-3088.40625
 10
4994.2265625
 20
-3078.6328125
 10
4994.2265625
 20
-3068.859375
 10
4994.2265625
 20
-3059.0859375
 10
4994.2265625
 20
-3049.3125
 10
4994.2265625
 20
-3039.5390625
 10
4994.2265625
 20
-3029.765625
 10
4994.2265625
 20
-3019.9921875
 10
4994.2265625
 20
-3010.21875
 10
4994.2265625
 20
-3000.4453125
 10
4994.2265625
 20
-2990.671875
 10
4994.2265625
 20
-2980.8984375
 10
4994.2265625
 20
-2971.125
 10
4994.2265625
 20
-2961.3515625
 10
4994.2265625
 20
-2951.578125
 10
4994.2265625
 20
-2941.8046875
 10
4994.2265625
 20
-2932.03125
 10
4994.2265625
 20
-2922.2578125
 10
4994.2265625
 20
-2912.484375
 10
4994.2265625
 20
-2902.7109375
 10
4994.2265625
 20
-2892.9375
 10
4994.2265625
 20
-2883.1640625
 10
4994.2265625
 20
-2873.390625
 10
4994.2265625
 20
-2863.6171875
 10
4994.2265625
 20
-2853.84375
 10
4994.2265625
 20
-2844.0703125
 10
4994.2265625
 20
-2834.296875
 10
4994.2265625
 20
-2824.5234375
 10
4994.2265625
 20
-2814.75
 10
4994.2265625
 20
-2804.9765625
 10
4994.2265625
 20
-2795.203125
 10
4994.2265625
 20
-2785.4296875
 10
4994.2265625
 20
-2775.65625
 10
4994.2265625
 20
-2765.8828125
 10
4994.2265625
 20
-2756.109375
 10
4994.2265625
 20
-2746.3359375
 10
4994.2265625
 20
-2736.5625
 10
4994.2265625
 20
-2726.7890625
 10
4994.2265625
 20
-2717.015625
 10
4994.2265625
 20
-2707.2421875
 10
4994.2265625
 20
-2697.46875
 10
4994.2265625
 20
-2687.6953125
 10
4994.2265625
 20
-2677.921875
 10
4994.2265625
 20
-2668.1484375
 10
4994.2265625
 20
-2658.375
 10
4994.2265625
 20
-2648.6015625
 10
4994.2265625
 20
-2638.828125
 10
4994.2265625
 20
-2629.0546875
 10
4994.2265625
 20
-2619.28125
 10
4994.2265625
 20
-2609.5078125
 10
4994.2265625
 20
-2599.734375
 10
4994.2265625
 20
-2589.9609375
 10
4994.2265625
 20
-2580.1875
 10
4994.2265625
 20
-2570.4140625
 10
4994.2265625
 20
-2560.640625
 10
4994.2265625
 20
-2550.8671875
 10
4994.2265625
 20
-2541.09375
 10
4994.2265625
 20
-2531.3203125
 10
4994.2265625
 20
-2521.546875
 10
4994.2265625
 20
-2511.7734375
 10
4994.2265625
 20
-2502.0
 10
4994.2265625
 20
-2492.2265625
 10
4994.2265625
 20
-2482.453125
 10
4994.2265625
 20
-2472.6796875
 10
4994.2265625
 20
-2462.90625
 10
4994.2265625
 20
-2453.1328125
 10
4994.2265625
 20
-2443.359375
 10
4994.2265625
 20
-2433.5859375
 10
4994.2265625
 20
-2423.8125
 10
4994.2265625
 20
-2414.0390625
 10
4994.2265625
 20
-2404.265625
 10
4994.2265625
 20
-2394.4921875
 10
4994.2265625
 20
-2384.71875
 10
4994.2265625
 20
-2374.9453125
 10
4994.2265625
 20
-2365.171875
 10
4994.2265625
 20
-2355.3984375
 10
4994.2265625
 20
-2345.625
 10
4994.2265625
 20
-2335.8515625
 10
4994.2265625
 20
-2326.078125
 10
4994.2265625
 20
-2316.3046875
 10
4994.2265625
 20
-2306.53125
 10
4994.2265625
 20
-2296.7578125
 10
4994.2265625
 20
-2286.984375
 10
4994.2265625
 20
-2277.2109375
 10
4994.2265625
 20
-2267.4375
 10
4994.2265625
 20
-2257.6640625
 10
4994.2265625
 20
-2247.890625
 10
4994.2265625
 20
-2238.1171875
 10
4994.2265625
 20
-2228.34375
 10
4994.2265625
 20
-2218.5703125
 10
4994.2265625
 20
-2208.796875
 10
4994.2265625
 20
-2199.0234375
 10
4994.2265625
 20
-2189.25
 10
4994.2265625
 20
-2179.4765625
 10
4994.2265625
 20
-2169.703125
 10
4994.2265625
 20
-2159.9296875
 10
4994.2265625
 20
-2150.15625
 10
4994.2265625
 20
-2140.3828125
 10
4994.2265625
 20
-2130.609375
 10
4994.2265625
 20
-2120.8359375
 10
4994.2265625
 20
-2111.0625
 10
4994.2265625
 20
-2101.2890625
 10
4994.2265625
 20
-2091.515625
 10
4994.2265625
 20
-2081.7421875
 10
4994.2265625
 20
-2071.96875
 10
4994.2265625
 20
-2062.1953125
 10
4994.2265625
 20
-2052.421875
 10
4994.2265625
 20
-2042.6484375
 10
4994.2265625
 20
-2032.875
 10
4994.2265625
 20
-2023.1015625
 10
4994.2265625
 20
-2013.328125
 10
4994.2265625
 20
-2003.5546875
 10
4994.2265625
 20
-1993.78125
 10
4994.2265625
 20
-1984.0078125
 10
4994.2265625
 20
-1974.234375
 10
4994.2265625
 20
-1964.4609375
 10
4994.2265625
 20
-1954.6875
 10
4994.2265625
 20
-1944.9140625
 10
4994.2265625
 20
-1935.140625
 10
4994.2265625
 20
-1925.3671875
 10
4994.2265625
 20
-1915.59375
 10
4994.2265625
 20
-1905.8203125
 10
4994.2265625
 20
-1896.046875
 10
4994.2265625
 20
-1886.2734375
 10
4994.2265625
 20
-1876.5
 10
4994.2265625
 20
-1866.7265625
 10
4994.2265625
 20
-1856.953125
 10
4994.2265625
 20
-1847.1796875
 10
4994.2265625
 20
-1837.40625
 10
4994.2265625
 20
-1827.6328125
 10
4994.2265625
 20
-1817.859375
 10
4994.2265625
 20
-1808.0859375
 10
4994.2265625
 20
-1798.3125
 10
4994.2265625
 20
-1788.5390625
 10
4994.2265625
 20
-1778.765625
 10
4994.2265625
 20
-1768.9921875
 10
4994.2265625
 20
-1759.21875
 10
4994.2265625
 20
-1749.4453125
 10
4994.2265625
 20
-1739.671875
 10
4994.2265625
 20
-1729.8984375
 10
4994.2265625
 20
-1720.125
 10
4994.2265625
 20
-1710.3515625
 10
4994.2265625
 20
-1700.578125
 10
4994.2265625
 20
-1690.8046875
 10
4994.2265625
 20
-1681.03125
 10
4994.2265625
 20
-1671.2578125
 10
4994.2265625
 20
-1661.484375
 10
4994.2265625
 20
-1651.7109375
 10
4994.2265625
 20
-1641.9375
 10
4994.2265625
 20
-1632.1640625
 10
4994.2265625
 20
-1622.390625
 10
4994.2265625
 20
-1612.6171875
 10
4994.2265625
 20
-1602.84375
 10
4994.2265625
 20
-1593.0703125
 10
4994.2265625
 20
-1583.296875
 10
4994.2265625
 20
-1573.5234375
 10
4994.2265625
 20
-1563.75
 10
4994.2265625
 20
-1553.9765625
 10
4994.2265625
 20
-1544.203125
 10
4994.2265625
 20
-1534.4296875
 10
4994.2265625
 20
-1524.65625
 10
4994.2265625
 20
-1514.8828125
 10
4994.2265625
 20
-1505.109375
 10
4994.2265625
 20
-1495.3359375
 10
4994.2265625
 20
-1485.5625
 10
4994.2265625
 20
-1475.7890625
 10
4994.2265625
 20
-1466.015625
 10
4994.2265625
 20
-1456.2421875
 10
4994.2265625
 20
-1446.46875
 10
4994.2265625
 20
-1436.6953125
 10
4994.2265625
 20
-1426.921875
 10
4994.2265625
 20
-1417.1484375
 10
4994.2265625
 20
-1407.375
 10
4994.2265625
 20
-1397.6015625
 10
4994.2265625
 20
-1387.828125
 10
4994.2265625
 20
-1378.0546875
 10
4994.2265625
 20
-1368.28125
 10
4994.2265625
 20
-1358.5078125
 10
4994.2265625
 20
-1348.734375
 10
4994.2265625
 20
-1338.9609375
 10
4994.2265625
 20
-1329.1875
 10
4994.2265625
 20
-1319.4140625
 10
4994.2265625
 20
-1309.640625
 10
4994.2265625
 20
-1299.8671875
 10
4994.2265625
 20
-1290.09375
 10
4994.2265625
 20
-1280.3203125
 10
4994.2265625
 20
-1270.546875
 10
4994.2265625
 20
-1260.7734375
 10
4994.2265625
 20
-1251.0
 10
4994.2265625
 20
-1241.2265625
 10
4994.2265625
 20
-1231.453125
 10
4994.2265625
 20
-1221.6796875
 10
4994.2265625
 20
-1211.90625
 10
4994.2265625
 20
-1202.1328125
 10
4994.2265625
 20
-1192.359375
 10
4994.2265625
 20
-1182.5859375
 10
4994.2265625
 20
-1172.8125
 10
4994.2265625
 20
-1163.0390625
 10
4994.2265625
 20
-1153.265625
 10
4994.2265625
 20
-1143.4921875
 10
4994.2265625
 20
-1133.71875
 10
4994.2265625
 20
-1123.9453125
 10
4994.2265625
 20
-1114.171875
 10
4994.2265625
 20
-1104.3984375
 10
4994.2265625
 20
-1094.625
 10
4994.2265625
 20
-1084.8515625
 10
4994.2265625
 20
-1075.078125
 10
4994.2265625
 20
-1065.3046875
 10
4994.2265625
 20
-1055.53125
 10
4994.2265625
 20
-1045.7578125
 10
4994.2265625
 20
-1035.984375
 10
4994.2265625
 20
-1026.2109375
 10
4994.2265625
 20
-1016.4375
 10
4994.2265625
 20
-1006.6640625
 10
4994.2265625
 20
-996.890625
 10
4994.2265625
 20
-987.1171875
 10
4994.2265625
 20
-977.34375
 10
4994.2265625
 20
-967.5703125
 10
4994.2265625
 20
-957.796875
 10
4994.2265625
 20
-948.0234375
 10
4994.2265625
 20
-938.25
 10
4994.2265625
 20
-928.4765625
 10
4994.2265625
 20
-918.703125
 10
4994.2265625
 20
-908.9296875
 10
4994.2265625
 20
-899.15625
 10
4994.2265625
 20
-889.3828125
 10
4994.2265625
 20
-879.609375
 10
4994.2265625
 20
-869.8359375
 10
4994.2265625
 20
-860.0625
 10
4994.2265625
 20
-850.2890625
 10
4994.2265625
 20
-840.515625
 10
4994.2265625
 20
-830.7421875
 10
4994.2265625
 20
-820.96875
 10
4994.2265625
 20
-811.1953125
 10
4994.2265625
 20
-801.421875
 10
4994.2265625
 20
-791.6484375
 10
4994.2265625
 20
-781.875
 10
4994.2265625
 20
-772.1015625
 10
4994.2265625
 20
-762.328125
 10
4994.2265625
 20
-752.5546875
 10
4994.2265625
 20
-742.78125
 10
4994.2265625
 20
-733.0078125
 10
4994.2265625
 20
-723.234375
 10
4994.2265625
 20
-713.4609375
 10
4994.2265625
 20
-703.6875
 10
4994.2265625
 20
-693.9140625
 10
4994.2265625
 20
-684.140625
 10
4994.2265625
 20
-674.3671875
 10
4994.2265625
 20
-664.59375
 10
4994.2265625
 20
-654.8203125
 10
4994.2265625
 20
-645.046875
 10
4994.2265625
 20
-635.2734375
 10
4994.2265625
 20
-625.5
 10
4994.2265625
 20
-615.7265625
 10
4994.2265625
 20
-605.953125
 10
4994.2265625
 20
-596.1796875
 10
4994.2265625
 20
-586.40625
 10
4994.2265625
 20
-576.6328125
 10
4994.2265625
 20
-566.859375
 10
4994.2265625
 20
-557.0859375
 10
4994.2265625
 20
-547.3125
 10
4994.2265625
 20
-537.5390625
 10
4994.2265625
 20
-527.765625
 10
4994.2265625
 20
-517.9921875
 10
4994.2265625
 20
-508.21875
 10
4994.2265625
 20
-498.4453125
 10
4994.2265625
 20
-488.671875
 10
4994.2265625
 20
-478.8984375
 10
4994.2265625
 20
-469.125
 10
4994.2265625
 20
-459.3515625
 10
4994.2265625
 20
-449.578125
 10
4994.2265625
 20
-439.8046875
 10
4994.2265625
 20
-430.03125
 10
4994.2265625
 20
-420.2578125
 10
4994.2265625
 20
-410.484375
 10
4994.2265625
 20
-400.7109375
 10
4994.2265625
 20
-390.9375
 10
4994.2265625
 20
-381.1640625
 10
4994.2265625
 20
-371.390625
 10
4994.2265625
 20
-361.6171875
 10
4994.2265625
 20
-351.84375
 10
4994.2265625
 20
-342.0703125
 10
4994.2265625
 20
-332.296875
 10
4994.2265625
 20
-322.5234375
 10
4994.2265625
 20
-312.75
 10
4994.2265625
 20
-302.9765625
 10
4994.2265625
 20
-293.203125
 10
4994.2265625
 20
-283.4296875
 10
4994.2265625
 20
-273.65625
 10
4994.2265625
 20
-263.8828125
 10
4994.2265625
 20
-254.109375
 10
4994.2265625
 20
-244.3359375
 10
4994.2265625
 20
-234.5625
 10
4994.2265625
 20
-224.7890625
 10
4994.2265625
 20
-215.015625
 10
4994.2265625
 20
-205.2421875
 10
4994.2265625
 20
-195.46875
 10
4994.2265625
 20
-185.6953125
 10
4994.2265625
 20
-175.921875
 10
4994.2265625
 20
-166.1484375
 10
4994.2265625
 20
-156.375
 10
4994.2265625
 20
-146.6015625
 10
4994.2265625
 20
-136.828125
 10
4994.2265625
 20
-127.0546875
 10
4994.2265625
 20
-117.28125
 10
4994.2265625
 20
-107.5078125
 10
4994.2265625
 20
-97.734375
 10
4994.2265625
 20
-87.9609375
 10
4994.2265625
 20
-78.1875
 10
4994.2265625
 20
-68.4140625
 10
4994.2265625
 20
-58.640625
 10
4994.2265625
 20
-48.8671875
 10
4994.2265625
 20
-39.09375
 10
4994.2265625
 20
-29.3203125
 10
4994.2265625
 20
-19.546875
 10
4994.2265625
 20
-9.7734375
 10
4994.2265625
 20
-0.0
 10
4984.453125
 20
-0.0
 10
4974.6796875
 20
-0.0
 10
4964.90625
 20
-0.0
 10
4955.1328125
 20
-0.0
 10
4945.359375
 20
-0.0
 10
4935.5859375
 20
-0.0
 10
4925.8125
 20
-0.0
 10
4916.0390625
 20
-0.0
 10
4906.265625
 20
-0.0
 10
4896.4921875
 20
-0.0
 10
4886.71875
 20
-0.0
 10
4876.9453125
 20
-0.0
 10
4867.171875
 20
-0.0
 10
4857.3984375
 20
-0.0
 10
4847.625
 20
-0.0
 10
4837.8515625
 20
-0.0
 10
4828.078125
 20
-0.0
 10
4818.3046875
 20
-0.0
 10
4808.53125
 20
-0.0
 10
4798.7578125
 20
-0.0
 10
4788.984375
 20
-0.0
 10
4779.2109375
 20
-0.0
 10
4769.4375
 20
-0.0
 10
4759.6640625
 20
-0.0
 10
4749.890625
 20
-0.0
 10
4740.1171875
 20
-0.0
 10
4730.34375
 20
-0.0
 10
4720.5703125
 20
-0.0
 10
4710.796875
 20
-0.0
 10
4701.0234375
 20
-0.0
 10
4691.25
 20
-0.0
 10
4681.4765625
 20
-0.0
 10
4671.703125
 20
-0.0
 10
4661.9296875
 20
-0.0
 10
4652.15625
 20
-0.0
 10
4642.3828125
 20
-0.0
 10
4632.609375
 20
-0.0
 10
4622.8359375
 20
-0.0
 10
4613.0625
 20
-0.0
 10
4603.2890625
 20
-0.0
 10
4593.515625
 20
-0.0
 10
4583.7421875
 20
-0.0
 10
4573.96875
 20
-0.0
 10
4564.1953125
 20
-0.0
 10
4554.421875
 20
-0.0
 10
4544.6484375
 20
-0.0
 10
4534.875
 20
-0.0
 10
4525.1015625
 20
-0.0
 10
4515.328125
 20
-0.0
 10
4505.5546875
 20
-0.0
 10
4495.78125
 20
-0.0
 10
4486.0078125
 20
-0.0
 10
4476.234375
 20
-0.0
 10
4466.4609375
 20
-0.0
 10
4456.6875
 20
-0.0
 10
4446.9140625
 20
-0.0
 10
4437.140625
 20
-0.0
 10
4427.3671875
 20
-0.0
 10
4417.59375
 20
-0.0
 10
4407.8203125
 20
-0.0
 10
4398.046875
 20
-0.0
 10
4388.2734375
 20
-0.0
 10
4378.5
 20
-0.0
 10
4368.7265625
 20
-0.0
 10
4358.953125
 20
-0.0
 10
4349.1796875
 20
-0.0
 10
4339.40625
 20
-0.0
 10
4329.6328125
 20
-0.0
 10
4319.859375
 20
-0.0
 10
4310.0859375
 20
-0.0
 10
4300.3125
 20
-0.0
 10
4290.5390625
 20
-0.0
 10
4280.765625
 20
-0.0
 10
4270.9921875
 20
-0.0
 10
4261.21875
 20
-0.0
 10
4251.4453125
 20
-0.0
 10
4241.671875
 20
-0.0
 10
4231.8984375
 20
-0.0
 10
4222.125
 20
-0.0
 10
4212.3515625
 20
-0.0
 10
4202.578125
 20
-0.0
 10
4192.8046875
 20
-0.0
 10
4183.03125
 20
-0.0
 10
4173.2578125
 20
-0.0
 10
4163.484375
 20
-0.0
 10
4153.7109375
 20
-0.0
 10
4143.9375
 20
-0.0
 10
4134.1640625
 20
-0.0
 10
4124.390625
 20
-0.0
 10
4114.6171875
 20
-0.0
 10
4104.84375
 20
-0.0
 10
4095.0703125
 20
-0.0
 10
4085.296875
 20
-0.0
 10
4075.5234375
 20
-0.0
 10
4065.75
 20
-0.0
 10
4055.9765625
 20
-0.0
 10
4046.203125
 20
-0.0
 10
4036.4296875
 20
-0.0
 10
4026.65625
 20
-0.0
 10
4016.8828125
 20
-0.0
 10
4007.109375
 20
-0.0
 10
3997.3359375
 20
-0.0
 10
3987.5625
 20
-0.0
 10
3977.7890625
 20
-0.0
 10
3968.015625
 20
-0.0
 10
3958.2421875
 20
-0.0
 10
3948.46875
 20
-0.0
 10
3938.6953125
 20
-0.0
 10
3928.921875
 20
-0.0
 10
3919.1484375
 20
-0.0
 10
3909.375
 20
-0.0
 10
3899.6015625
 20
-0.0
 10
3889.828125
 20
-0.0
 10
3880.0546875
 20
-0.0
 10
3870.28125
 20
-0.0
 10
3860.5078125
 20
-0.0
 10
3850.734375
 20
-0.0
 10
3840.9609375
 20
-0.0
 10
3831.1875
 20
-0.0
 10
3821.4140625
 20
-0.0
 10
3811.640625
 20
-0.0
 10
3801.8671875
 20
-0.0
 10
3792.09375
 20
-0.0
 10
3782.3203125
 20
-0.0
 10
3772.546875
 20
-0.0
 10
3762.7734375
 20
-0.0
 10
3753.0
 20
-0.0
 10
3743.2265625
 20
-0.0
 10
3733.453125
 20
-0.0
 10
3723.6796875
 20
-0.0
 10
3713.90625
 20
-0.0
 10
3704.1328125
 20
-0.0
 10
3694.359375
 20
-0.0
 10
3684.5859375
 20
-0.0
 10
3674.8125
 20
-0.0
 10
3665.0390625
 20
-0.0
 10
3655.265625
 20
-0.0
 10
3645.4921875
 20
-0.0
 10
3635.71875
 20
-0.0
 10
3625.9453125
 20
-0.0
 10
3616.171875
 20
-0.0
 10
3606.3984375
 20
-0.0
 10
3596.625
 20
-0.0
 10
3586.8515625
 20
-0.0
 10
3577.078125
 20
-0.0
 10
3567.3046875
 20
-0.0
 10
3557.53125
 20
-0.0
 10
3547.7578125
 20
-0.0
 10
3537.984375
 20
-0.0
 10
3528.2109375
 20
-0.0
 10
3518.4375
 20
-0.0
 10
3508.6640625
 20
-0.0
 10
3498.890625
 20
-0.0
 10
3489.1171875
 20
-0.0
 10
3479.34375
 20
-0.0
 10
3469.5703125
 20
-0.0
 10
3459.796875
 20
-0.0
 10
3450.0234375
 20
-0.0
 10
3440.25
 20
-0.0
 10
3430.4765625
 20
-0.0
 10
3420.703125
 20
-0.0
 10
3410.9296875
 20
-0.0
 10
3401.15625
 20
-0.0
 10
3391.3828125
 20
-0.0
 10
3381.609375
 20
-0.0
 10
3371.8359375
 20
-0.0
 10
3362.0625
 20
-0.0
 10
3352.2890625
 20
-0.0
 10
3342.515625
 20
-0.0
 10
3332.7421875
 20
-0.0
 10
3322.96875
 20
-0.0
 10
3313.1953125
 20
-0.0
 10
3303.421875
 20
-0.0
 10
3293.6484375
 20
-0.0
 10
3283.875
 20
-0.0
 10
3274.1015625
 20
-0.0
 10
3264.328125
 20
-0.0
 10
3254.5546875
 20
-0.0
 10
3244.78125
 20
-0.0
 10
3235.0078125
 20
-0.0
 10
3225.234375
 20
-0.0
 10
3215.4609375
 20
-0.0
 10
3205.6875
 20
-0.0
 10
3195.9140625
 20
-0.0
 10
3186.140625
 20
-0.0
 10
3176.3671875
 20
-0.0
 10
3166.59375
 20
-0.0
 10
3156.8203125
 20
-0.0
 10
3147.046875
 20
-0.0
 10
3137.2734375
 20
-0.0
 10
3127.5
 20
-0.0
 10
3117.7265625
 20
-0.0
 10
3107.953125
 20
-0.0
 10
3098.1796875
 20
-0.0
 10
3088.40625
 20
-0.0
 10
3078.6328125
 20
-0.0
 10
3068.859375
 20
-0.0
 10
3059.0859375
 20
-0.0
 10
3049.3125
 20
-0.0
 10
3039.5390625
 20
-0.0
 10
3029.765625
 20
-0.0
 10
3019.9921875
 20
-0.0
 10
3010.21875
 20
-0.0
 10
3000.4453125
 20
-0.0
 10
2990.671875
 20
-0.0
 10
2980.8984375
 20
-0.0
 10
2971.125
 20
-0.0
 10
2961.3515625
 20
-0.0
 10
2951.578125
 20
-0.0
 10
2941.8046875
 20
-0.0
 10
2932.03125
 20
-0.0
 10
2922.2578125
 20
-0.0
 10
2912.484375
 20
-0.0
 10
2902.7109375
 20
-0.0
 10
2892.9375
 20
-0.0
 10
2883.1640625
 20
-0.0
 10
2873.390625
 20
-0.0
 10
2863.6171875
 20
-0.0
 10
2853.84375
 20
-0.0
 10
2844.0703125
 20
-0.0
 10
2834.296875
 20
-0.0
 10
2824.5234375
 20
-0.0
 10
2814.75
 20
-0.0
 10
2804.9765625
 20
-0.0
 10
2795.203125
 20
-0.0
 10
2785.4296875
 20
-0.0
 10
2775.65625
 20
-0.0
 10
2765.8828125
 20
-0.0
 10
2756.109375
 20
-0.0
 10
2746.3359375
 20
-0.0
 10
2736.5625
 20
-0.0
 10
2726.7890625
 20
-0.0
 10
2717.015625
 20
-0.0
 10
2707.2421875
 20
-0.0
 10
2697.46875
 20
-0.0
 10
2687.6953125
 20
-0.0
 10
2677.921875
 20
-0.0
 10
2668.1484375
 20
-0.0
 10
2658.375
 20
-0.0
 10
2648.6015625
 20
-0.0
 10
2638.828125
 20
-0.0
 10
2629.0546875
 20
-0.0
 10
2619.28125
 20
-0.0
 10
2609.5078125
 20
-0.0
 10
2599.734375
 20
-0.0
 10
2589.9609375
 20
-0.0
 10
2580.1875
 20
-0.0
 10
2570.4140625
 20
-0.0
 10
2560.640625
 20
-0.0
 10
2550.8671875
 20
-0.0
 10
2541.09375
 20
-0.0
 10
2531.3203125
 20
-0.0
 10
2521.546875
 20
-0.0
 10
2511.7734375
 20
-0.0
 10
2502.0
 20
-0.0
 10
2492.2265625
 20
-0.0
 10
2482.453125
 20
-0.0
 10
2472.6796875
 20
-0.0
 10
2462.90625
 20
-0.0
 10
2453.1328125
 20
-0.0
 10
2443.359375
 20
-0.0
 10
2433.5859375
 20
-0.0
 10
2423.8125
 20
-0.0
 10
2414.0390625
 20
-0.0
 10
2404.265625
 20
-0.0
 10
2394.4921875
 20
-0.0
 10
2384.71875
 20
-0.0
 10
2374.9453125
 20
-0.0
 10
2365.171875
 20
-0.0
 10
2355.3984375
 20
-0.0
 10
2345.625
 20
-0.0
 10
2335.8515625
 20
-0.0
 10
2326.078125
 20
-0.0
 10
2316.3046875
 20
-0.0
 10
2306.53125
 20
-0.0
 10
2296.7578125
 20
-0.0
 10
2286.984375
 20
-0.0
 10
2277.2109375
 20
-0.0
 10
2267.4375
 20
-0.0
 10
2257.6640625
 20
-0.0
 10
2247.890625
 20
-0.0
 10
2238.1171875
 20
-0.0
 10
2228.34375
 20
-0.0
 10
2218.5703125
 20
-0.0
 10
2208.796875
 20
-0.0
 10
2199.0234375
 20
-0.0
 10
2189.25
 20
-0.0
 10
2179.4765625
 20
-0.0
 10
2169.703125
 20
-0.0
 10
2159.9296875
 20
-0.0
 10
2150.15625
 20
-0.0
 10
2140.3828125
 20
-0.0
 10
2130.609375
 20
-0.0
 10
2120.8359375
 20
-0.0
 10
2111.0625
 20
-0.0
 10
2101.2890625
 20
-0.0
 10
2091.515625
 20
-0.0
 10
2081.7421875
 20
-0.0
 10
2071.96875
 20
-0.0
 10
2062.1953125
 20
-0.0
 10
2052.421875
 20
-0.0
 10
2042.6484375
 20
-0.0
 10
2032.875
 20
-0.0
 10
2023.1015625
 20
-0.0
 10
2013.328125
 20
-0.0
 10
2003.5546875
 20
-0.0
 10
1993.78125
 20
-0.0
 10
1984.0078125
 20
-0.0
 10
1974.234375
 20
-0.0
 10
1964.4609375
 20
-0.0
 10
1954.6875
 20
-0.0
 10
1944.9140625
 20
-0.0
 10
1935.140625
 20
-0.0
 10
1925.3671875
 20
-0.0
 10
1915.59375
 20
-0.0
 10
1905.8203125
 20
-0.0
 10
1896.046875
 20
-0.0
 10
1886.2734375
 20
-0.0
 10
1876.5
 20
-0.0
 10
1866.7265625
 20
-0.0
 10
1856.953125
 20
-0.0
 10
1847.1796875
 20
-0.0
 10
1837.40625
 20
-0.0
 10
1827.6328125
 20
-0.0
 10
1817.859375
 20
-0.0
 10
1808.0859375
 20
-0.0
 10
1798.3125
 20
-0.0
 10
1788.5390625
 20
-0.0
 10
1778.765625
 20
-0.0
 10
1768.9921875
 20
-0.0
 10
1759.21875
 20
-0.0
 10
1749.4453125
 20
-0.0
 10
1739.671875
 20
-0.0
 10
1729.8984375
 20
-0.0
 10
1720.125
 20
-0.0
 10
1710.3515625
 20
-0.0
 10
1700.578125
 20
-0.0
 10
1690.8046875
 20
-0.0
 10
1681.03125
 20
-0.0
 10
1671.2578125
 20
-0.0
 10
1661.484375
 20
-0.0
 10
1651.7109375
 20
-0.0
 10
1641.9375
 20
-0.0
 10
1632.1640625
 20
-0.0
 10
1622.390625
 20
-0.0
 10
1612.6171875
 20
-0.0
 10
1602.84375
 20
-0.0
 10
1593.0703125
 20
-0.0
 10
1583.296875
 20
-0.0
 10
1573.5234375
 20
-0.0
 10
1563.75
 20
-0.0
 10
1553.9765625
 20
-0.0
 10
1544.203125
 20
-0.0
 10
1534.4296875
 20
-0.0
 10
1524.65625
 20
-0.0
 10
1514.8828125
 20
-0.0
 10
1505.109375
 20
-0.0
 10
1495.3359375
 20
-0.0
 10
1485.5625
 20
-0.0
 10
1475.7890625
 20
-0.0
 10
1466.015625
 20
-0.0
 10
1456.2421875
 20
-0.0
 10
1446.46875
 20
-0.0
 10
1436.6953125
 20
-0.0
 10
1426.921875
 20
-0.0
 10
1417.1484375
 20
-0.0
 10
1407.375
 20
-0.0
 10
1397.6015625
 20
-0.0
 10
1387.828125
 20
-0.0
 10
1378.0546875
 20
-0.0
 10
1368.28125
 20
-0.0
 10
1358.5078125
 20
-0.0
 10
1348.734375
 20
-0.0
 10
1338.9609375
 20
-0.0
 10
1329.1875
 20
-0.0
 10
1319.4140625
 20
-0.0
 10
1309.640625
 20
-0.0
 10
1299.8671875
 20
-0.0
 10
1290.09375
 20
-0.0
 10
1280.3203125
 20
-0.0
 10
1270.546875
 20
-0.0
 10
1260.7734375
 20
-0.0
 10
1251.0
 20
-0.0
 10
1241.2265625
 20
-0.0
 10
1231.453125
 20
-0.0
 10
1221.6796875
 20
-0.0
 10
1211.90625
 20
-0.0
 10
1202.1328125
 20
-0.0
 10
1192.359375
 20
-0.0
 10
1182.5859375
 20
-0.0
 10
1172.8125
 20
-0.0
 10
1163.0390625
 20
-0.0
 10
1153.265625
 20
-0.0
 10
1143.4921875
 20
-0.0
 10
1133.71875
 20
-0.0
 10
1123.9453125
 20
-0.0
 10
1114.171875
 20
-0.0
 10
1104.3984375
 20
-0.0
 10
1094.625
 20
-0.0
 10
1084.8515625
 20
-0.0
 10
1075.078125
 20
-0.0
 10
1065.3046875
 20
-0.0
 10
1055.53125
 20
-0.0
 10
1045.7578125
 20
-0.0
 10
1035.984375
 20
-0.0
 10
1026.2109375
 20
-0.0
 10
1016.4375
 20
-0.0
 10
1006.6640625
 20
-0.0
 10
996.890625
 20
-0.0
 10
987.1171875
 20
-0.0
 10
977.34375
 20
-0.0
 10
967.5703125
 20
-0.0
 10
957.796875
 20
-0.0
 10
948.0234375
 20
-0.0
 10
938.25
 20
-0.0
 10
928.4765625
 20
-0.0
 10
918.703125
 20
-0.0
 10
908.9296875
 20
-0.0
 10
899.15625
 20
-0.0
 10
889.3828125
 20
-0.0
 10
879.609375
 20
-0.0
 10
869.8359375
 20
-0.0
 10
860.0625
 20
-0.0
 10
850.2890625
 20
-0.0
 10
840.515625
 20
-0.0
 10
830.7421875
 20
-0.0
 10
820.96875
 20
-0.0
 10
811.1953125
 20
-0.0
 10
801.421875
 20
-0.0
 10
791.6484375
 20
-0.0
 10
781.875
 20
-0.0
 10
772.1015625
 20
-0.0
 10
762.328125
 20
-0.0
 10
752.5546875
 20
-0.0
 10
742.78125
 20
-0.0
 10
733.0078125
 20
-0.0
 10
723.234375
 20
-0.0
 10
713.4609375
 20
-0.0
 10
703.6875
 20
-0.0
 10
693.9140625
 20
-0.0
 10
684.140625
 20
-0.0
 10
674.3671875
 20
-0.0
 10
664.59375
 20
-0.0
 10
654.8203125
 20
-0.0
 10
645.046875
 20
-0.0
 10
635.2734375
 20
-0.0
 10
625.5
 20
-0.0
 10
615.7265625
 20
-0.0
 10
605.953125
 20
-0.0
 10
596.1796875
 20
-0.0
 10
586.40625
 20
-0.0
 10
576.6328125
 20
-0.0
 10
566.859375
 20
-0.0
 10
557.0859375
 20
-0.0
 10
547.3125
 20
-0.0
 10
537.5390625
 20
-0.0
 10
527.765625
 20
-0.0
 10
517.9921875
 20
-0.0
 10
508.21875
 20
-0.0
 10
498.4453125
 20
-0.0
 10
488.671875
 20
-0.0
 10
478.8984375
 20
-0.0
 10
469.125
 20
-0.0
 10
459.3515625
 20
-0.0
 10
449.578125
 20
-0.0
 10
439.8046875
 20
-0.0
 10
430.03125
 20
-0.0
 10
420.2578125
 20
-0.0
 10
410.484375
 20
-0.0
 10
400.7109375
 20
-0.0
 10
390.9375
 20
-0.0
 10
381.1640625
 20
-0.0
 10
371.390625
 20
-0.0
 10
361.6171875
 20
-0.0
 10
351.84375
 20
-0.0
 10
342.0703125
 20
-0.0
 10
332.296875
 20
-0.0
 10
322.5234375
 20
-0.0
 10
312.75
 20
-0.0
 10
302.9765625
 20
-0.0
 10
293.203125
 20
-0.0
 10
283.4296875
 20
-0.0
 10
273.65625
 20
-0.0
 10
263.8828125
 20
-0.0
 10
254.109375
 20
-0.0
 10
244.3359375
 20
-0.0
 10
234.5625
 20
-0.0
 10
224.7890625
 20
-0.0
 10
215.015625
 20
-0.0
 10
205.2421875
 20
-0.0
 10
195.46875
 20
-0.0
 10
185.6953125
 20
-0.0
 10
175.921875
 20
-0.0
 10
166.1484375
 20
-0.0
 10
156.375
 20
-0.0
 10
146.6015625
 20
-0.0
 10
136.828125
 20
-0.0
 10
127.0546875
 20
-0.0
 10
117.28125
 20
-0.0
 10
107.5078125
 20
-0.0
 10
97.734375
 20
-0.0
 10
87.9609375
 20
-0.0
 10
78.1875
 20
-0.0
 10
68.4140625
 20
-0.0
 10
58.640625
 20
-0.0
 10
48.8671875
 20
-0.0
 10
39.09375
 20
-0.0
 10
29.3203125
 20
-0.0
 10
19.546875
 20
-0.0
 10
9.7734375
 20
-0.0
  0
LWPOLYLINE
  5
3B
330
17
100
AcDbEntity
  8
substrate
100
AcDbPolyline
 90
206
 70
1
 43
0.5
 10
2492.2265625
 20
-2159.9296875
 10
2502.0
 20
-2150.15625
 10
2511.7734375
 20
-2159.9296875
 10
2521.546875
 20
-2150.15625
 10
2531.3203125
 20
-2159.9296875
 10
2541.09375
 20
-2150.15625
 10
2550.8671875
 20
-2159.9296875
 10
2560.640625
 20
-2150.15625
 10
2570.4140625
 20
-2159.9296875
 10
2580.1875
 20
-2150.15625
 10
2589.9609375
 20
-2159.9296875
 10
2599.734375
 20
-2159.9296875
 10
2609.5078125
 20
-2159.9296875
 10
2619.28125
 20
-2159.9296875
 10
2629.0546875
 20
-2169.703125
 10
2638.828125
 20
-2169.703125
 10
2648.6015625
 20
-2179.4765625
 10
2658.375
 20
-2179.4765625
 10
2668.1484375
 20
-2179.4765625
 10
2677.921875
 20
-2189.25
 10
2687.6953125
 20
-2189.25
 10
2697.46875
 20
-2199.0234375
 10
2707.2421875
 20
-2208.796875
 10
2717.015625
 20
-2218.5703125
 10
2726.7890625
 20
-2218.5703125
 10
2736.5625
 20
-2228.34375
 10
2746.3359375
 20
-2238.1171875
 10
2756.109375
 20
-2247.890625
 10
2765.8828125
 20
-2257.6640625
 10
2765.8828125
 20
-2267.4375
 10
2775.65625
 20
-2277.2109375
 10
2785.4296875
 20
-2286.984375
 10
2795.203125
 20
-2296.7578125
 10
2804.9765625
 20
-2306.53125
 10
2814.75
 20
-2316.3046875
 10
2814.75
 20
-2326.078125
 10
2824.5234375
 20
-2335.8515625
 10
2824.5234375
 20
-2345.625
 10
2824.5234375
 20
-2355.3984375
 10
2834.296875
 20
-2365.171875
 10
2834.296875
 20
-2374.9453125
 10
2834.296875
 20
-2384.71875
 10
2844.0703125
 20
-2394.4921875
 10
2844.0703125
 20
-2404.265625
 10
2844.0703125
 20
-2414.0390625
 10
2853.84375
 20
-2423.8125
 10
2853.84375
 20
-2433.5859375
 10
2853.84375
 20
-2443.359375
 10
2853.84375
 20
-2453.1328125
 10
2853.84375
 20
-2462.90625
 10
2853.84375
 20
-2472.6796875
 10
2853.84375
 20
-2482.453125
 10
2853.84375
 20
-2492.2265625
 10
2853.84375
 20
-2502.0
 10
2853.84375
 20
-2511.7734375
 10
2853.84375
 20
-2521.546875
 10
2853.84375
 20
-2531.3203125
 10
2844.0703125
 20
-2541.09375
 10
2844.0703125
 20
-2550.8671875
 10
2844.0703125
 20
-2560.640625
 10
2834.296875
 20
-2570.4140625
 10
2834.296875
 20
-2580.1875
 10
2824.5234375
 20
-2589.9609375
 10
2834.296875
 20
-2599.734375
 10
2824.5234375
 20
-2609.5078125
 10
2814.75
 20
-2609.5078125
 10
2824.5234375
 20
-2619.28125
 10
2814.75
 20
-2629.0546875
 10
2804.9765625
 20
-2638.828125
 10
2804.9765625
 20
-2648.6015625
 10
2804.9765625
 20
-2658.375
 10
2795.203125
 20
-2668.1484375
 10
2795.203125
 20
-2677.921875
 10
2785.4296875
 20
-2687.6953125
 10
2785.4296875
 20
-2697.46875
 10
2775.65625
 20
-2707.2421875
 10
2765.8828125
 20
-2717.015625
 10
2756.109375
 20
-2726.7890625
 10
2756.109375
 20
-2736.5625
 10
2746.3359375
 20
-2746.3359375
 10
2736.5625
 20
-2746.3359375
 10
2726.7890625
 20
-2756.109375
 10
2717.015625
 20
-2765.8828125
 10
2707.2421875
 20
-2775.65625
 10
2697.46875
 20
-2775.65625
 10
2687.6953125
 20
-2785.4296875
 10
2677.921875
 20
-2795.203125
 10
2668.1484375
 20
-2804.9765625
 10
2658.375
 20
-2804.9765625
 10
2648.6015625
 20
-2814.75
 10
2638.828125
 20
-2824.5234375
 10
2629.0546875
 20
-2824.5234375
 10
2619.28125
 20
-2824.5234375
 10
2609.5078125
 20
-2834.296875
 10
2599.734375
 20
-2834.296875
 10
2589.9609375
 20
-2844.0703125
 10
2580.1875
 20
-2834.296875
 10
2570.4140625
 20
-2844.0703125
 10
2560.640625
 20
-2844.0703125
 10
2550.8671875
 20
-2844.0703125
 10
2541.09375
 20
-2844.0703125
 10
2531.3203125
 20
-2844.0703125
 10
2521.546875
 20
-2844.0703125
 10
2511.7734375
 20
-2844.0703125
 10
2502.0
 20
-2844.0703125
 10
2492.2265625
 20
-2844.0703125
 10
2482.453125
 20
-2844.0703125
 10
2472.6796875
 20
-2844.0703125
 10
2462.90625
 20
-2844.0703125
 10
2453.1328125
 20
-2844.0703125
 10
2443.359375
 20
-2844.0703125
 10
2433.5859375
 20
-2844.0703125
 10
2423.8125
 20
-2844.0703125
 10
2414.0390625
 20
-2844.0703125
 10
2404.265625
 20
-2844.0703125
 10
2394.4921875
 20
-2834.296875
 10
2384.71875
 20
-2834.296875
 10
2374.9453125
 20
-2824.5234375
 10
2365.171875
 20
-2824.5234375
 10
2355.3984375
 20
-2814.75
 10
2345.625
 20
-2814.75
 10
2335.8515625
 20
-2814.75
 10
2326.078125
 20
-2814.75
 10
2316.3046875
 20
-2804.9765625
 10
2306.53125
 20
-2804.9765625
 10
2296.7578125
 20
-2795.203125
 10
2286.984375
 20
-2795.203125
 10
2277.2109375
 20
-2785.4296875
 10
2267.4375
 20
-2775.65625
 10
2267.4375
 20
-2765.8828125
 10
2257.6640625
 20
-2756.109375
 10
2247.890625
 20
-2756.109375
 10
2238.1171875
 20
-2746.3359375
 10
2238.1171875
 20
-2736.5625
 10
2228.34375
 20
-2726.7890625
 10
2218.5703125
 20
-2717.015625
 10
2208.796875
 20
-2707.2421875
 10
2199.0234375
 20
-2697.46875
 10
2199.0234375
 20
-2687.6953125
 10
2189.25
 20
-2677.921875
 10
2179.4765625
 20
-2668.1484375
 10
2179.4765625
 20
-2658.375
 10
2169.703125
 20
-2648.6015625
 10
2159.9296875
 20
-2638.828125
 10
2159.9296875
 20
-2629.0546875
 10
2159.9296875
 20
-2619.28125
 10
2159.9296875
 20
-2609.5078125
 10
2150.15625
 20
-2599.734375
 10
2150.15625
 20
-2589.9609375
 10
2150.15625
 20
-2580.1875
 10
2150.15625
 20
-2570.4140625
 10
2150.15625
 20
-2560.640625
 10
2140.3828125
 20
-2550.8671875
 10
2140.3828125
 20
-2541.09375
 10
2140.3828125
 20
-2531.3203125
 10
2140.3828125
 20
-2521.546875
 10
2140.3828125
 20
-2511.7734375
 10
2140.3828125
 20
-2502.0
 10
2140.3828125
 20
-2492.2265625
 10
2140.3828125
 20
-2482.453125
 10
2140.3828125
 20
-2472.6796875
 10
2150.15625
 20
-2462.90625
 10
2150.15625
 20
-2453.1328125
 10
2150.15625
 20
-2443.359375
 10
2159.9296875
 20
-2433.5859375
 10
2159.9296875
 20
-2423.8125
 10
2159.9296875
 20
-2414.0390625
 10
2159.9296875
 20
-2404.265625
 10
2159.9296875
 20
-2394.4921875
 10
2169.703125
 20
-2384.71875
 10
2179.4765625
 20
-2374.9453125
 10
2179.4765625
 20
-2365.171875
 10
2179.4765625
 20
-2355.3984375
 10
2189.25
 20
-2345.625
 10
2199.0234375
 20
-2335.8515625
 10
2208.796875
 20
-2326.078125
 10
2208.796875
 20
-2316.3046875
 10
2218.5703125
 20
-2306.53125
 10
2228.34375
 20
-2296.7578125
 10
2238.1171875
 20
-2286.984375
 10
2238.1171875
 20
-2277.2109375
 10
2247.890625
 20
-2267.4375
 10
2257.6640625
 20
-2267.4375
 10
2267.4375
 20
-2267.4375
 10
2277.2109375
 20
-2257.6640625
 10
2286.984375
 20
-2247.890625
 10
2296.7578125
 20
-2238.1171875
 10
2306.53125
 20
-2228.34375
 10
2316.3046875
 20
-2218.5703125
 10
2326.078125
 20
-2218.5703125
 10
2335.8515625
 20
-2218.5703125
 10
2345.625
 20
-2208.796875
 10
2355.3984375
 20
-2208.796875
 10
2365.171875
 20
-2199.0234375
 10
2374.9453125
 20
-2199.0234375
 10
2384.71875
 20
-2189.25
 10
2394.4921875
 20
-2189.25
 10
2404.265625
 20
-2189.25
 10
2414.0390625
 20
-2179.4765625
 10
2423.8125
 20
-2179.4765625
 10
2433.5859375
 20
-2179.4765625
 10
2443.359375
 20
-2169.703125
 10
2453.1328125
 20
-2179.4765625
 10
2462.90625
 20
-2169.703125
 10
2472.6796875
 20
-2169.703125
 10
2482.453125
 20
-2159.9296875
  0
LWPOLYLINE
  5
3C
330
17
100
AcDbEntity
  8
substrate
100
AcDbPolyline
 90
1
 70
1
 43
0.5
 10
2335.8515625
 20
-2267.4375
  0
LWPOLYLINE
  5
3D
330
17
100
AcDbEntity
  8
substrate
100
AcDbPolyline
 90
184
 70
1
 43
0.5
 10
2462.90625
 20
-2228.34375
 10
2453.1328125
 20
-2238.1171875
 10
2443.359375
 20
-2247.890625
 10
2433.5859375
 20
-2247.890625
 10
2423.8125
 20
-2247.890625
 10
2414.0390625
 20
-2257.6640625
 10
2404.265625
 20
-2257.6640625
 10
2394.4921875
 20
-2267.4375
 10
2384.71875
 20
-2267.4375
 10
2374.9453125
 20
-2267.4375
 10
2365.171875
 20
-2267.4375
 10
2355.3984375
 20
-2267.4375
 10
2355.3984375
 20
-2277.2109375
 10
2345.625
 20
-2286.984375
 10
2335.8515625
 20
-2286.984375
 10
2326.078125
 20
-2296.7578125
 10
2316.3046875
 20
-2296.7578125
 10
2306.53125
 20
-2306.53125
 10
2296.7578125
 20
-2306.53125
 10
2296.7578125
 20
-2316.3046875
 10
2286.984375
 20
-2326.078125
 10
2277.2109375
 20
-2326.078125
 10
2277.2109375
 20
-2335.8515625
 10
2267.4375
 20
-2345.625
 10
2257.6640625
 20
-2345.625
 10
2257.6640625
 20
-2355.3984375
 10
2247.890625
 20
-2365.171875
 10
2238.1171875
 20
-2374.9453125
 10
2238.1171875
 20
-2384.71875
 10
2238.1171875
 20
-2394.4921875
 10
2228.34375
 20
-2404.265625
 10
2228.34375
 20
-2414.0390625
 10
2218.5703125
 20
-2423.8125
 10
2218.5703125
 20
-2433.5859375
 10
2218.5703125
 20
-2443.359375
 10
2218.5703125
 20
-2453.1328125
 10
2208.796875
 20
-2462.90625
 10
2208.796875
 20
-2472.6796875
 10
2208.796875
 20
-2482.453125
 10
2208.796875
 20
-2492.2265625
 10
2199.0234375
 20
-2502.0
 10
2208.796875
 20
-2511.7734375
 10
2208.796875
 20
-2521.546875
 10
2199.0234375
 20
-2531.3203125
 10
2208.796875
 20
-2541.09375
 10
2208.796875
 20
-2550.8671875
 10
2208.796875
 20
-2560.640625
 10
2208.796875
 20
-2570.4140625
 10
2218.5703125
 20
-2580.1875
 10
2228.34375
 20
-2589.9609375
 10
2228.34375
 20
-2599.734375
 10
2228.34375
 20
-2609.5078125
 10
2228.34375
 20
-2619.28125
 10
2238.1171875
 20
-2629.0546875
 10
2238.1171875
 20
-2638.828125
 10
2247.890625
 20
-2638.828125
 10
2257.6640625
 20
-2648.6015625
 10
2257.6640625
 20
-2658.375
 10
2267.4375
 20
-2668.1484375
 10
2277.2109375
 20
-2668.1484375
 10
2286.984375
 20
-2677.921875
 10
2277.2109375
 20
-2687.6953125
 10
2286.984375
 20
-2687.6953125
 10
2296.7578125
 20
-2697.46875
 10
2306.53125
 20
-2707.2421875
 10
2316.3046875
 20
-2707.2421875
 10
2326.078125
 20
-2717.015625
 10
2326.078125
 20
-2726.7890625
 10
2335.8515625
 20
-2736.5625
 10
2345.625
 20
-2736.5625
 10
2355.3984375
 20
-2736.5625
 10
2365.171875
 20
-2736.5625
 10
2374.9453125
 20
-2746.3359375
 10
2384.71875
 20
-2756.109375
 10
2384.71875
 20
-2765.8828125
 10
2394.4921875
 20
-2775.65625
 10
2404.265625
 20
-2765.8828125
 10
2414.0390625
 20
-2775.65625
 10
2423.8125
 20
-2775.65625
 10
2433.5859375
 20
-2785.4296875
 10
2443.359375
 20
-2785.4296875
 10
2453.1328125
 20
-2785.4296875
 10
2462.90625
 20
-2775.65625
 10
2472.6796875
 20
-2785.4296875
 10
2482.453125
 20
-2785.4296875
 10
2492.2265625
 20
-2785.4296875
 10
2502.0
 20
-2785.4296875
 10
2511.7734375
 20
-2785.4296875
 10
2521.546875
 20
-2785.4296875
 10
2531.3203125
 20
-2785.4296875
 10
2541.09375
 20
-2775.65625
 10
2550.8671875
 20
-2785.4296875
 10
2560.640625
 20
-2785.4296875
 10
2570.4140625
 20
-2775.65625
 10
2580.1875
 20
-2775.65625
 10
2589.9609375
 20
-2775.65625
 10
2589.9609375
 20
-2765.8828125
 10
2599.734375
 20
-2756.109375
 10
2609.5078125
 20
-2756.109375
 10
2619.28125
 20
-2756.109375
 10
2629.0546875
 20
-2756.109375
 10
2638.828125
 20
-2746.3359375
 10
2648.6015625
 20
-2736.5625
 10
2658.375
 20
-2736.5625
 10
2668.1484375
 20
-2736.5625
 10
2677.921875
 20
-2726.7890625
 10
2687.6953125
 20
-2717.015625
 10
2697.46875
 20
-2707.2421875
 10
2707.2421875
 20
-2697.46875
 10
2707.2421875
 20
-2687.6953125
 10
2717.015625
 20
-2677.921875
 10
2726.7890625
 20
-2677.921875
 10
2717.015625
 20
-2668.1484375
 10
2726.7890625
 20
-2658.375
 10
2736.5625
 20
-2648.6015625
 10
2746.3359375
 20
-2638.828125
 10
2746.3359375
 20
-2629.0546875
 10
2746.3359375
 20
-2619.28125
 10
2756.109375
 20
-2609.5078125
 10
2765.8828125
 20
-2619.28125
 10
2765.8828125
 20
-2609.5078125
 10
2765.8828125
 20
-2599.734375
 10
2765.8828125
 20
-2589.9609375
 10
2765.8828125
 20
-2580.1875
 10
2775.65625
 20
-2570.4140625
 10
2785.4296875
 20
-2560.640625
 10
2785.4296875
 20
-2550.8671875
 10
2785.4296875
 20
-2541.09375
 10
2795.203125
 20
-2531.3203125
 10
2795.203125
 20
-2521.546875
 10
2795.203125
 20
-2511.7734375
 10
2804.9765625
 20
-2502.0
 10
2795.203125
 20
-2492.2265625
 10
2795.203125
 20
-2482.453125
 10
2795.203125
 20
-2472.6796875
 10
2795.203125
 20
-2462.90625
 10
2795.203125
 20
-2453.1328125
 10
2795.203125
 20
-2443.359375
 10
2785.4296875
 20
-2433.5859375
 10
2785.4296875
 20
-2423.8125
 10
2785.4296875
 20
-2414.0390625
 10
2775.65625
 20
-2404.265625
 10
2775.65625
 20
-2394.4921875
 10
2775.65625
 20
-2384.71875
 10
2765.8828125
 20
-2374.9453125
 10
2765.8828125
 20
-2365.171875
 10
2756.109375
 20
-2355.3984375
 10
2756.109375
 20
-2345.625
 10
2746.3359375
 20
-2335.8515625
 10
2746.3359375
 20
-2326.078125
 10
2736.5625
 20
-2326.078125
 10
2726.7890625
 20
-2316.3046875
 10
2726.7890625
 20
-2306.53125
 10
2717.015625
 20
-2306.53125
 10
2707.2421875
 20
-2296.7578125
 10
2707.2421875
 20
-2286.984375
 10
2697.46875
 20
-2286.984375
 10
2687.6953125
 20
-2286.984375
 10
2677.921875
 20
-2277.2109375
 10
2687.6953125
 20
-2267.4375
 10
2677.921875
 20
-2267.4375
 10
2668.1484375
 20
-2267.4375
 10
2658.375
 20
-2257.6640625
 10
2648.6015625
 20
-2247.890625
 10
2638.828125
 20
-2247.890625
 10
2629.0546875
 20
-2238.1171875
 10
2619.28125
 20
-2238.1171875
 10
2609.5078125
 20
-2238.1171875
 10
2599.734375
 20
-2228.34375
 10
2589.9609375
 20
-2238.1171875
 10
2580.1875
 20
-2238.1171875
 10
2570.4140625
 20
-2238.1171875
 10
2560.640625
 20
-2228.34375
 10
2570.4140625
 20
-2238.1171875
 10
2560.640625
 20
-2247.890625
 10
2550.8671875
 20
-2247.890625
 10
2541.09375
 20
-2247.890625
 10
2531.3203125
 20
-2238.1171875
 10
2521.546875
 20
-2247.890625
 10
2511.7734375
 20
-2238.1171875
 10
2502.0
 20
-2228.34375
 10
2492.2265625
 20
-2228.34375
 10
2482.453125
 20
-2228.34375
 10
2472.6796875
 20
-2228.34375
  0
LWPOLYLINE
  5
3E
330
17
100
AcDbEntity
  8
substrate
100
AcDbPolyline
 90
4
 70
1
 43
0.5
 10
2345.625
 20
-2697.46875
 10
2355.3984375
 20
-2687.6953125
 10
2365.171875
 20
-2697.46875
 10
2355.3984375
 20
-2707.2421875
  0
LWPOLYLINE
  5
3F
330
17
100
AcDbEntity
  8
substrate
100
AcDbPolyline
 90
147
 70
1
 43
0.5
 10
2472.6796875
 20
-2277.2109375
 10
2482.453125
 20
-2267.4375
 10
2492.2265625
 20
-2267.4375
 10
2502.0
 20
-2267.4375
 10
2511.7734375
 20
-2267.4375
 10
2521.546875
 20
-2267.4375
 10
2531.3203125
 20
-2267.4375
 10
2541.09375
 20
-2267.4375
 10
2550.8671875
 20
-2267.4375
 10
2560.640625
 20
-2267.4375
 10
2570.4140625
 20
-2277.2109375
 10
2570.4140625
 20
-2286.984375
 10
2580.1875
 20
-2277.2109375
 10
2589.9609375
 20
-2286.984375
 10
2599.734375
 20
-2286.984375
 10
2609.5078125
 20
-2286.984375
 10
2619.28125
 20
-2296.7578125
 10
2629.0546875
 20
-2286.984375
 10
2638.828125
 20
-2296.7578125
 10
2638.828125
 20
-2306.53125
 10
2648.6015625
 20
-2316.3046875
 10
2648.6015625
 20
-2326.078125
 10
2658.375
 20
-2326.078125
 10
2668.1484375
 20
-2326.078125
 10
2677.921875
 20
-2335.8515625
 10
2677.921875
 20
-2345.625
 10
2687.6953125
 20
-2345.625
 10
2697.46875
 20
-2355.3984375
 10
2697.46875
 20
-2365.171875
 10
2707.2421875
 20
-2374.9453125
 10
2717.015625
 20
-2384.71875
 10
2717.015625
 20
-2394.4921875
 10
2726.7890625
 20
-2404.265625
 10
2726.7890625
 20
-2414.0390625
 10
2726.7890625
 20
-2423.8125
 10
2736.5625
 20
-2433.5859375
 10
2736.5625
 20
-2443.359375
 10
2736.5625
 20
-2453.1328125
 10
2746.3359375
 20
-2462.90625
 10
2746.3359375
 20
-2472.6796875
 10
2736.5625
 20
-2482.453125
 10
2736.5625
 20
-2492.2265625
 10
2746.3359375
 20
-2502.0
 10
2746.3359375
 20
-2511.7734375
 10
2736.5625
 20
-2521.546875
 10
2736.5625
 20
-2531.3203125
 10
2726.7890625
 20
-2541.09375
 10
2736.5625
 20
-2550.8671875
 10
2726.7890625
 20
-2560.640625
 10
2736.5625
 20
-2570.4140625
 10
2726.7890625
 20
-2580.1875
 10
2726.7890625
 20
-2589.9609375
 10
2717.015625
 20
-2599.734375
 10
2707.2421875
 20
-2599.734375
 10
2707.2421875
 20
-2609.5078125
 10
2707.2421875
 20
-2619.28125
 10
2697.46875
 20
-2629.0546875
 10
2687.6953125
 20
-2638.828125
 10
2677.921875
 20
-2648.6015625
 10
2677.921875
 20
-2658.375
 10
2677.921875
 20
-2668.1484375
 10
2668.1484375
 20
-2677.921875
 10
2658.375
 20
-2677.921875
 10
2648.6015625
 20
-2677.921875
 10
2638.828125
 20
-2687.6953125
 10
2629.0546875
 20
-2697.46875
 10
2619.28125
 20
-2697.46875
 10
2609.5078125
 20
-2707.2421875
 10
2599.734375
 20
-2707.2421875
 10
2589.9609375
 20
-2717.015625
 10
2580.1875
 20
-2726.7890625
 10
2570.4140625
 20
-2726.7890625
 10
2560.640625
 20
-2726.7890625
 10
2550.8671875
 20
-2736.5625
 10
2541.09375
 20
-2736.5625
 10
2531.3203125
 20
-2736.5625
 10
2521.546875
 20
-2736.5625
 10
2511.7734375
 20
-2736.5625
 10
2502.0
 20
-2736.5625
 10
2492.2265625
 20
-2736.5625
 10
2482.453125
 20
-2746.3359375
 10
2472.6796875
 20
-2736.5625
 10
2462.90625
 20
-2736.5625
 10
2453.1328125
 20
-2736.5625
 10
2443.359375
 20
-2746.3359375
 10
2433.5859375
 20
-2736.5625
 10
2433.5859375
 20
-2726.7890625
 10
2423.8125
 20
-2726.7890625
 10
2414.0390625
 20
-2726.7890625
 10
2404.265625
 20
-2717.015625
 10
2394.4921875
 20
-2707.2421875
 10
2384.71875
 20
-2707.2421875
 10
2374.9453125
 20
-2697.46875
 10
2365.171875
 20
-2697.46875
 10
2355.3984375
 20
-2687.6953125
 10
2345.625
 20
-2677.921875
 10
2345.625
 20
-2668.1484375
 10
2335.8515625
 20
-2658.375
 10
2335.8515625
 20
-2648.6015625
 10
2326.078125
 20
-2648.6015625
 10
2316.3046875
 20
-2638.828125
 10
2306.53125
 20
-2629.0546875
 10
2296.7578125
 20
-2619.28125
 10
2296.7578125
 20
-2609.5078125
 10
2296.7578125
 20
-2599.734375
 10
2296.7578125
 20
-2589.9609375
 10
2286.984375
 20
-2580.1875
 10
2286.984375
 20
-2570.4140625
 10
2277.2109375
 20
-2560.640625
 10
2277.2109375
 20
-2550.8671875
 10
2267.4375
 20
-2541.09375
 10
2277.2109375
 20
-2531.3203125
 10
2267.4375
 20
-2521.546875
 10
2267.4375
 20
-2511.7734375
 10
2267.4375
 20
-2502.0
 10
2277.2109375
 20
-2492.2265625
 10
2267.4375
 20
-2482.453125
 10
2277.2109375
 20
-2472.6796875
 10
2277.2109375
 20
-2462.90625
 10
2277.2109375
 20
-2453.1328125
 10
2286.984375
 20
-2443.359375
 10
2286.984375
 20
-2433.5859375
 10
2286.984375
 20
-2423.8125
 10
2286.984375
 20
-2414.0390625
 10
2286.984375
 20
-2404.265625
 10
2296.7578125
 20
-2394.4921875
 10
2306.53125
 20
-2384.71875
 10
2306.53125
 20
-2374.9453125
 10
2316.3046875
 20
-2365.171875
 10
2316.3046875
 20
-2355.3984375
 10
2326.078125
 20
-2345.625
 10
2335.8515625
 20
-2345.625
 10
2326.078125
 20
-2335.8515625
 10
2335.8515625
 20
-2326.078125
 10
2345.625
 20
-2316.3046875
 10
2355.3984375
 20
-2316.3046875
 10
2365.171875
 20
-2306.53125
 10
2374.9453125
 20
-2306.53125
 10
2384.71875
 20
-2296.7578125
 10
2394.4921875
 20
-2306.53125
 10
2404.265625
 20
-2306.53125
 10
2414.0390625
 20
-2306.53125
 10
2423.8125
 20
-2296.7578125
 10
2433.5859375
 20
-2286.984375
 10
2443.359375
 20
-2286.984375
 10
2453.1328125
 20
-2277.2109375
 10
2462.90625
 20
-2277.2109375
  0
LWPOLYLINE
  5
40
330
17
100
AcDbEntity
  8
substrate
100
AcDbPolyline
 90
4
 70
1
 43
0.5
 10
2453.1328125
 20
-2238.1171875
 10
2462.90625
 20
-2228.34375
 10
2472.6796875
 20
-2238.1171875
 10
2462.90625
 20
-2247.890625
  0
ENDSEC
  0
SECTION
  2
OBJECTS
  0
DICTIONARY
  5
A
330
0
100
AcDbDictionary
280
0
281
1
  3
ACAD_COLOR
350
B
  3
ACAD_GROUP
350
C
  3
ACAD_LAYOUT
350
D
  3
ACAD_MATERIAL
350
E
  3
ACAD_MLEADERSTYLE
350
F
  3
ACAD_MLINESTYLE
350
10
  3
ACAD_PLOTSETTINGS
350
11
  3
ACAD_PLOTSTYLENAME
350
12
  3
ACAD_SCALELIST
350
14
  3
ACAD_TABLESTYLE
350
15
  3
ACAD_VISUALSTYLE
350
16
  3
EZDXF_META
350
2D
  0
DICTIONARY
  5
B
330
A
100
AcDbDictionary
280
0
281
1
  0
DICTIONARY
  5
C
330
A
100
AcDbDictionary
280
0
281
1
  0
DICTIONARY
  5
D
330
A
100
AcDbDictionary
280
0
281
1
  3
Model
350
1A
  3
Layout1
350
1E
  0
DICTIONARY
  5
E
330
A
100
AcDbDictionary
280
0
281
1
  3
ByBlock
350
1F
  3
ByLayer
350
20
  3
Global
350
21
  0
DICTIONARY
  5
F
330
A
100
AcDbDictionary
280
0
281
1
  3
Standard
350
2C
  0
DICTIONARY
  5
10
330
A
100
AcDbDictionary
280
0
281
1
  3
Standard
350
22
  0
DICTIONARY
  5
11
330
A
100
AcDbDictionary
280
0
281
1
  0
ACDBDICTIONARYWDFLT
  5
12
330
A
100
AcDbDictionary
280
0
281
1
  3
Normal
350
13
100
AcDbDictionaryWithDefault
340
13
  0
ACDBPLACEHOLDER
  5
13
330
12
  0
DICTIONARY
  5
14
330
A
100
AcDbDictionary
280
0
281
1
  0
DICTIONARY
  5
15
330
A
100
AcDbDictionary
280
0
281
1
  0
DICTIONARY
  5
16
330
A
100
AcDbDictionary
280
0
281
1
  0
LAYOUT
  5
1A
330
D
100
AcDbPlotSettings
  1

  2
Adobe PDF
  4
A3
  6

 40
7.5
 41
20.0
 42
7.5
 43
20.0
 44
420.0
 45
297.0
 46
0.0
 47
0.0
 48
0.0
 49
0.0
140
0.0
141
0.0
142
1.0
143
1.0
 70
1024
 72
1
 73
0
 74
5
  7

 75
16
 76
0
 77
2
 78
300
147
1.0
148
0.0
149
0.0
100
AcDbLayout
  1
Model
 70
1
 71
0
 10
0.0
 20
0.0
 11
420.0
 21
297.0
 12
0.0
 22
0.0
 32
0.0
 14
1e+20
 24
1e+20
 34
1e+20
 15
-1e+20
 25
-1e+20
 35
-1e+20
146
0.0
 13
0.0
 23
0.0
 33
0.0
 16
1.0
 26
0.0
 36
0.0
 17
0.0
 27
1.0
 37
0.0
 76
1
330
17
  0
LAYOUT
  5
1E
330
D
100
AcDbPlotSettings
  1

  2
Adobe PDF
  4
A3
  6

 40
7.5
 41
20.0
 42
7.5
 43
20.0
 44
420.0
 45
297.0
 46
0.0
 47
0.0
 48
0.0
 49
0.0
140
0.0
141
0.0
142
1.0
143
1.0
 70
0
 72
1
 73
0
 74
5
  7

 75
16
 76
0
 77
2
 78
300
147
1.0
148
0.0
149
0.0
100
AcDbLayout
  1
Layout1
 70
1
 71
1
 10
0.0
 20
0.0
 11
420.0
 21
297.0
 12
0.0
 22
0.0
 32
0.0
 14
1e+20
 24
1e+20
 34
1e+20
 15
-1e+20
 25
-1e+20
 35
-1e+20
146
0.0
 13
0.0
 23
0.0
 33
0.0
 16
1.0
 26
0.0
 36
0.0
 17
0.0
 27
1.0
 37
0.0
 76
1
330
1B
  0
MATERIAL
  5
1F
102
{ACAD_REACTORS
330
E
102
}
330
E
100
AcDbMaterial
  1
ByBlock
  2

 70
0
 40
1.0
 71
1
 41
1.0
 91
-1023410177
 42
1.0
 72
1
  3

 73
1
 74
1
 75
1
 44
0.5
 73
0
 45
1.0
 46
1.0
 77
1
  4

 78
1
 79
1
170
1
 48
1.0
171
1
  6

172
1
173
1
174
1
140
1.0
141
1.0
175
1
  7

176
1
177
1
178
1
143
1.0
179
1
  8

270
1
271
1
272
1
145
1.0
146
1.0
273
1
  9

274
1
275
1
276
1
 42
1.0
 72
1
  3

 73
1
 74
1
 75
1
 94
63
  0
MATERIAL
  5
20
102
{ACAD_REACTORS
330
E
102
}
330
E
100
AcDbMaterial
  1
ByLayer
  2

 70
0
 40
1.0
 71
1
 41
1.0
 91
-1023410177
 42
1.0
 72
1
  3

 73
1
 74
1
 75
1
 44
0.5
 73
0
 45
1.0
 46
1.0
 77
1
  4

 78
1
 79
1
170
1
 48
1.0
171
1
  6

172
1
173
1
174
1
140
1.0
141
1.0
175
1
  7

176
1
177
1
178
1
143
1.0
179
1
  8

270
1
271
1
272
1
145
1.0
146
1.0
273
1
  9

274
1
275
1
276
1
 42
1.0
 72
1
  3

 73
1
 74
1
 75
1
 94
63
  0
MATERIAL
  5
21
102
{ACAD_REACTORS
330
E
102
}
330
E
100
AcDbMaterial
  1
Global
  2

 70
0
 40
1.0
 71
1
 41
1.0
 91
-1023410177
 42
1.0
 72
1
  3

 73
1
 74
1
 75
1
 44
0.5
 73
0
 45
1.0
 46
1.0
 77
1
  4

 78
1
 79
1
170
1
 48
1.0
171
1
  6

172
1
173
1
174
1
140
1.0
141
1.0
175
1
  7

176
1
177
1
178
1
143
1.0
179
1
  8

270
1
271
1
272
1
145
1.0
146
1.0
273
1
  9

274
1
275
1
276
1
 42
1.0
 72
1
  3

 73
1
 74
1
 75
1
 94
63
  0
MLINESTYLE
  5
22
102
{ACAD_REACTORS
330
10
102
}
330
10
100
AcDbMlineStyle
  2
Standard
 70
0
  3

 62
256
 51
90.0
 52
90.0
 71
2
 49
0.5
 62
256
  6
BYLAYER
 49
-0.5
 62
256
  6
BYLAYER
  0
MLEADERSTYLE
  5
2C
102
{ACAD_REACTORS
330
F
102
}
330
F
100
AcDbMLeaderStyle
179
2
170
2
171
1
172
0
 90
2
 40
0.0
 41
0.0
173
1
 91
-1056964608
 92
-2
290
1
 42
2.0
291
1
 43
8.0
  3
Standard
 44
4.0
300

342
29
174
1
175
1
176
0
178
1
 93
-1056964608
 45
4.0
292
0
297
0
 46
4.0
 94
-1056964608
 47
1.0
 49
1.0
140
1.0
294
1
141
0.0
177
0
142
1.0
295
0
296
0
143
3.75
271
0
272
9
273
9
  0
DICTIONARY
  5
2D
330
A
100
AcDbDictionary
281
1
  3
CREATED_BY_EZDXF
350
2E
  3
WRITTEN_BY_EZDXF
350
43
  0
DICTIONARYVAR
  5
2E
330
2D
100
DictionaryVariables
280
0
  1
1.1.0 @ 2025-03-07T14:05:14.988451+00:00
  0
DICTIONARYVAR
  5
43
330
2D
100
DictionaryVariables
280
0
  1
1.1.0 @ 2025-03-07T14:05:14.994523+00:00
  0
ENDSEC
  0
EOF
