  0
SECTION
  2
HEADER
  9
$ACADVER
  1
AC1027
  9
$ACADMAINTVER
 70
105
  9
$DWGCODEPAGE
  3
ANSI_1252
  9
$LASTSAVEDBY
  1
ezdxf
  9
$REQUIREDVERSIONS
160
0
  9
$INSBASE
 10
0.0
 20
0.0
 30
0.0
  9
$EXTMIN
 10
1e+20
 20
1e+20
 30
1e+20
  9
$EXTMAX
 10
-1e+20
 20
-1e+20
 30
-1e+20
  9
$LIMMIN
 10
0.0
 20
0.0
  9
$LIMMAX
 10
420.0
 20
297.0
  9
$ORTHOMODE
 70
0
  9
$REGENMODE
 70
1
  9
$FILLMODE
 70
1
  9
$QTEXTMODE
 70
0
  9
$MIRRTEXT
 70
1
  9
$LTSCALE
 40
1.0
  9
$ATTMODE
 70
1
  9
$TEXTSIZE
 40
2.5
  9
$TRACEWID
 40
1.0
  9
$TEXTSTYLE
  7
Standard
  9
$CLAYER
  8
0
  9
$CELTYPE
  6
ByLayer
  9
$CECOLOR
 62
256
  9
$CELTSCALE
 40
1.0
  9
$DISPSILH
 70
0
  9
$DIMSCALE
 40
1.0
  9
$DIMASZ
 40
2.5
  9
$DIMEXO
 40
0.625
  9
$DIMDLI
 40
3.75
  9
$DIMRND
 40
0.0
  9
$DIMDLE
 40
0.0
  9
$DIMEXE
 40
1.25
  9
$DIMTP
 40
0.0
  9
$DIMTM
 40
0.0
  9
$DIMTXT
 40
2.5
  9
$DIMCEN
 40
2.5
  9
$DIMTSZ
 40
0.0
  9
$DIMTOL
 70
0
  9
$DIMLIM
 70
0
  9
$DIMTIH
 70
0
  9
$DIMTOH
 70
0
  9
$DIMSE1
 70
0
  9
$DIMSE2
 70
0
  9
$DIMTAD
 70
1
  9
$DIMZIN
 70
8
  9
$DIMBLK
  1

  9
$DIMASO
 70
1
  9
$DIMSHO
 70
1
  9
$DIMPOST
  1

  9
$DIMAPOST
  1

  9
$DIMALT
 70
0
  9
$DIMALTD
 70
3
  9
$DIMALTF
 40
0.03937007874
  9
$DIMLFAC
 40
1.0
  9
$DIMTOFL
 70
1
  9
$DIMTVP
 40
0.0
  9
$DIMTIX
 70
0
  9
$DIMSOXD
 70
0
  9
$DIMSAH
 70
0
  9
$DIMBLK1
  1

  9
$DIMBLK2
  1

  9
$DIMSTYLE
  2
ISO-25
  9
$DIMCLRD
 70
0
  9
$DIMCLRE
 70
0
  9
$DIMCLRT
 70
0
  9
$DIMTFAC
 40
1.0
  9
$DIMGAP
 40
0.625
  9
$DIMJUST
 70
0
  9
$DIMSD1
 70
0
  9
$DIMSD2
 70
0
  9
$DIMTOLJ
 70
0
  9
$DIMTZIN
 70
8
  9
$DIMALTZ
 70
0
  9
$DIMALTTZ
 70
0
  9
$DIMUPT
 70
0
  9
$DIMDEC
 70
2
  9
$DIMTDEC
 70
2
  9
$DIMALTU
 70
2
  9
$DIMALTTD
 70
3
  9
$DIMTXSTY
  7
Standard
  9
$DIMAUNIT
 70
0
  9
$DIMADEC
 70
0
  9
$DIMALTRND
 40
0.0
  9
$DIMAZIN
 70
0
  9
$DIMDSEP
 70
44
  9
$DIMATFIT
 70
3
  9
$DIMFRAC
 70
0
  9
$DIMLDRBLK
  1

  9
$DIMLUNIT
 70
2
  9
$DIMLWD
 70
-2
  9
$DIMLWE
 70
-2
  9
$DIMTMOVE
 70
0
  9
$DIMFXL
 40
1.0
  9
$DIMFXLON
 70
0
  9
$DIMJOGANG
 40
0.785398163397
  9
$DIMTFILL
 70
0
  9
$DIMTFILLCLR
 70
0
  9
$DIMARCSYM
 70
0
  9
$DIMLTYPE
  6

  9
$DIMLTEX1
  6

  9
$DIMLTEX2
  6

  9
$DIMTXTDIRECTION
 70
0
  9
$LUNITS
 70
2
  9
$LUPREC
 70
4
  9
$SKETCHINC
 40
1.0
  9
$FILLETRAD
 40
10.0
  9
$AUNITS
 70
0
  9
$AUPREC
 70
2
  9
$MENU
  1
.
  9
$ELEVATION
 40
0.0
  9
$PELEVATION
 40
0.0
  9
$THICKNESS
 40
0.0
  9
$LIMCHECK
 70
0
  9
$CHAMFERA
 40
0.0
  9
$CHAMFERB
 40
0.0
  9
$CHAMFERC
 40
0.0
  9
$CHAMFERD
 40
0.0
  9
$SKPOLY
 70
0
  9
$TDCREATE
 40
2460709.9358449075
  9
$TDUCREATE
 40
2458532.153996898
  9
$TDUPDATE
 40
2460709.9358449075
  9
$TDUUPDATE
 40
2458532.1544311
  9
$TDINDWG
 40
0.0
  9
$TDUSRTIMER
 40
0.0
  9
$USRTIMER
 70
1
  9
$ANGBASE
 50
0.0
  9
$ANGDIR
 70
0
  9
$PDMODE
 70
0
  9
$PDSIZE
 40
0.0
  9
$PLINEWID
 40
0.0
  9
$SPLFRAME
 70
0
  9
$SPLINETYPE
 70
6
  9
$SPLINESEGS
 70
8
  9
$HANDSEED
  5
59
  9
$SURFTAB1
 70
6
  9
$SURFTAB2
 70
6
  9
$SURFTYPE
 70
6
  9
$SURFU
 70
6
  9
$SURFV
 70
6
  9
$UCSBASE
  2

  9
$UCSNAME
  2

  9
$UCSORG
 10
0.0
 20
0.0
 30
0.0
  9
$UCSXDIR
 10
1.0
 20
0.0
 30
0.0
  9
$UCSYDIR
 10
0.0
 20
1.0
 30
0.0
  9
$UCSORTHOREF
  2

  9
$UCSORTHOVIEW
 70
0
  9
$UCSORGTOP
 10
0.0
 20
0.0
 30
0.0
  9
$UCSORGBOTTOM
 10
0.0
 20
0.0
 30
0.0
  9
$UCSORGLEFT
 10
0.0
 20
0.0
 30
0.0
  9
$UCSORGRIGHT
 10
0.0
 20
0.0
 30
0.0
  9
$UCSORGFRONT
 10
0.0
 20
0.0
 30
0.0
  9
$UCSORGBACK
 10
0.0
 20
0.0
 30
0.0
  9
$PUCSBASE
  2

  9
$PUCSNAME
  2

  9
$PUCSORG
 10
0.0
 20
0.0
 30
0.0
  9
$PUCSXDIR
 10
1.0
 20
0.0
 30
0.0
  9
$PUCSYDIR
 10
0.0
 20
1.0
 30
0.0
  9
$PUCSORTHOREF
  2

  9
$PUCSORTHOVIEW
 70
0
  9
$PUCSORGTOP
 10
0.0
 20
0.0
 30
0.0
  9
$PUCSORGBOTTOM
 10
0.0
 20
0.0
 30
0.0
  9
$PUCSORGLEFT
 10
0.0
 20
0.0
 30
0.0
  9
$PUCSORGRIGHT
 10
0.0
 20
0.0
 30
0.0
  9
$PUCSORGFRONT
 10
0.0
 20
0.0
 30
0.0
  9
$PUCSORGBACK
 10
0.0
 20
0.0
 30
0.0
  9
$USERI1
 70
0
  9
$USERI2
 70
0
  9
$USERI3
 70
0
  9
$USERI4
 70
0
  9
$USERI5
 70
0
  9
$USERR1
 40
0.0
  9
$USERR2
 40
0.0
  9
$USERR3
 40
0.0
  9
$USERR4
 40
0.0
  9
$USERR5
 40
0.0
  9
$WORLDVIEW
 70
1
  9
$SHADEDGE
 70
3
  9
$SHADEDIF
 70
70
  9
$TILEMODE
 70
1
  9
$MAXACTVP
 70
64
  9
$PINSBASE
 10
0.0
 20
0.0
 30
0.0
  9
$PLIMCHECK
 70
0
  9
$PEXTMIN
 10
1e+20
 20
1e+20
 30
1e+20
  9
$PEXTMAX
 10
-1e+20
 20
-1e+20
 30
-1e+20
  9
$PLIMMIN
 10
0.0
 20
0.0
  9
$PLIMMAX
 10
420.0
 20
297.0
  9
$UNITMODE
 70
0
  9
$VISRETAIN
 70
1
  9
$PLINEGEN
 70
0
  9
$PSLTSCALE
 70
1
  9
$TREEDEPTH
 70
3020
  9
$CMLSTYLE
  2
Standard
  9
$CMLJUST
 70
0
  9
$CMLSCALE
 40
20.0
  9
$PROXYGRAPHICS
 70
1
  9
$MEASUREMENT
 70
1
  9
$CELWEIGHT
370
-1
  9
$ENDCAPS
280
0
  9
$JOINSTYLE
280
0
  9
$LWDISPLAY
290
0
  9
$INSUNITS
 70
6
  9
$HYPERLINKBASE
  1

  9
$STYLESHEET
  1

  9
$XEDIT
290
1
  9
$CEPSNTYPE
380
0
  9
$PSTYLEMODE
290
1
  9
$FINGERPRINTGUID
  2
{F7CBB7BC-FB39-4F0A-BC15-D88DC0AF6CDE}
  9
$VERSIONGUID
  2
{DC06BBC0-E7F1-4BCE-89FD-43356D0A2BE5}
  9
$EXTNAMES
290
1
  9
$PSVPSCALE
 40
0.0
  9
$OLESTARTUP
290
0
  9
$SORTENTS
280
127
  9
$INDEXCTL
280
0
  9
$HIDETEXT
280
1
  9
$XCLIPFRAME
280
0
  9
$HALOGAP
280
0
  9
$OBSCOLOR
 70
257
  9
$OBSLTYPE
280
0
  9
$INTERSECTIONDISPLAY
280
0
  9
$INTERSECTIONCOLOR
 70
257
  9
$DIMASSOC
280
2
  9
$PROJECTNAME
  1

  9
$CAMERADISPLAY
290
0
  9
$LENSLENGTH
 40
50.0
  9
$CAMERAHEIGHT
 40
0.0
  9
$STEPSPERSEC
 40
24.0
  9
$STEPSIZE
 40
100.0
  9
$3DDWFPREC
 40
2.0
  9
$PSOLWIDTH
 40
0.005
  9
$PSOLHEIGHT
 40
0.08
  9
$LOFTANG1
 40
1.570796326795
  9
$LOFTANG2
 40
1.570796326795
  9
$LOFTMAG1
 40
0.0
  9
$LOFTMAG2
 40
0.0
  9
$LOFTPARAM
 70
7
  9
$LOFTNORMALS
280
1
  9
$LATITUDE
 40
37.795
  9
$LONGITUDE
 40
-122.394
  9
$NORTHDIRECTION
 40
0.0
  9
$TIMEZONE
 70
-8000
  9
$LIGHTGLYPHDISPLAY
280
1
  9
$TILEMODELIGHTSYNCH
280
1
  9
$CMATERIAL
347
20
  9
$SOLIDHIST
280
0
  9
$SHOWHIST
280
1
  9
$DWFFRAME
280
2
  9
$DGNFRAME
280
2
  9
$REALWORLDSCALE
290
1
  9
$INTERFERECOLOR
 62
256
  9
$CSHADOW
280
0
  9
$SHADOWPLANELOCATION
 40
0.0
  0
ENDSEC
  0
SECTION
  2
CLASSES
  0
CLASS
  1
ACDBDICTIONARYWDFLT
  2
AcDbDictionaryWithDefault
  3
ObjectDBX Classes
 90
0
 91
0
280
0
281
0
  0
CLASS
  1
SUN
  2
AcDbSun
  3
SCENEOE
 90
1153
 91
0
280
0
281
0
  0
CLASS
  1
VISUALSTYLE
  2
AcDbVisualStyle
  3
ObjectDBX Classes
 90
4095
 91
0
280
0
281
0
  0
CLASS
  1
MATERIAL
  2
AcDbMaterial
  3
ObjectDBX Classes
 90
1153
 91
0
280
0
281
0
  0
CLASS
  1
SCALE
  2
AcDbScale
  3
ObjectDBX Classes
 90
1153
 91
0
280
0
281
0
  0
CLASS
  1
TABLESTYLE
  2
AcDbTableStyle
  3
ObjectDBX Classes
 90
4095
 91
0
280
0
281
0
  0
CLASS
  1
MLEADERSTYLE
  2
AcDbMLeaderStyle
  3
ACDB_MLEADERSTYLE_CLASS
 90
4095
 91
0
280
0
281
0
  0
CLASS
  1
DICTIONARYVAR
  2
AcDbDictionaryVar
  3
ObjectDBX Classes
 90
0
 91
0
280
0
281
0
  0
CLASS
  1
CELLSTYLEMAP
  2
AcDbCellStyleMap
  3
ObjectDBX Classes
 90
1152
 91
0
280
0
281
0
  0
CLASS
  1
MENTALRAYRENDERSETTINGS
  2
AcDbMentalRayRenderSettings
  3
SCENEOE
 90
1024
 91
0
280
0
281
0
  0
CLASS
  1
ACDBDETAILVIEWSTYLE
  2
AcDbDetailViewStyle
  3
ObjectDBX Classes
 90
1025
 91
0
280
0
281
0
  0
CLASS
  1
ACDBSECTIONVIEWSTYLE
  2
AcDbSectionViewStyle
  3
ObjectDBX Classes
 90
1025
 91
0
280
0
281
0
  0
CLASS
  1
RASTERVARIABLES
  2
AcDbRasterVariables
  3
ISM
 90
0
 91
0
280
0
281
0
  0
CLASS
  1
LAYOUT
  2
AcDbLayout
  3
ObjectDBX Classes
 90
0
 91
0
280
0
281
0
  0
CLASS
  1
ACDBPLACEHOLDER
  2
AcDbPlaceHolder
  3
ObjectDBX Classes
 90
0
 91
0
280
0
281
0
  0
ENDSEC
  0
SECTION
  2
TABLES
  0
TABLE
  2
VPORT
  5
8
330
0
100
AcDbSymbolTable
 70
1
  0
VPORT
  5
23
330
8
100
AcDbSymbolTableRecord
100
AcDbViewportTableRecord
  2
*Active
 70
0
 10
0.0
 20
0.0
 11
1.0
 21
1.0
 12
0.0
 22
0.0
 13
0.0
 23
0.0
 14
0.5
 24
0.5
 15
0.5
 25
0.5
 16
0.0
 26
0.0
 36
1.0
 17
0.0
 27
0.0
 37
0.0
 40
1000.0
 41
1.34
 42
50.0
 43
0.0
 44
0.0
 50
0.0
 51
0.0
 71
0
 72
1000
 73
1
 74
3
 75
0
 76
0
 77
0
 78
0
281
0
 65
0
146
0.0
  0
ENDTAB
  0
TABLE
  2
LTYPE
  5
2
330
0
100
AcDbSymbolTable
 70
3
  0
LTYPE
  5
24
330
2
100
AcDbSymbolTableRecord
100
AcDbLinetypeTableRecord
  2
ByBlock
 70
0
  3

 72
65
 73
0
 40
0.0
  0
LTYPE
  5
25
330
2
100
AcDbSymbolTableRecord
100
AcDbLinetypeTableRecord
  2
ByLayer
 70
0
  3

 72
65
 73
0
 40
0.0
  0
LTYPE
  5
26
330
2
100
AcDbSymbolTableRecord
100
AcDbLinetypeTableRecord
  2
Continuous
 70
0
  3

 72
65
 73
0
 40
0.0
  0
ENDTAB
  0
TABLE
  2
LAYER
  5
1
330
0
100
AcDbSymbolTable
 70
5
  0
LAYER
  5
27
330
1
100
AcDbSymbolTableRecord
100
AcDbLayerTableRecord
  2
0
 70
0
 62
7
  6
Continuous
370
-3
390
13
347
21
  0
LAYER
  5
28
330
1
100
AcDbSymbolTableRecord
100
AcDbLayerTableRecord
  2
Defpoints
 70
0
 62
7
  6
Continuous
290
0
370
-3
390
13
347
21
  0
LAYER
  5
2F
330
1
100
AcDbSymbolTableRecord
100
AcDbLayerTableRecord
  2
conductor
 70
0
 62
1
  6
Continuous
370
-3
390
13
347
21
  0
LAYER
  5
30
330
1
100
AcDbSymbolTableRecord
100
AcDbLayerTableRecord
  2
dielectric
 70
0
 62
8
  6
Continuous
370
-3
390
13
347
21
  0
LAYER
  5
31
330
1
100
AcDbSymbolTableRecord
100
AcDbLayerTableRecord
  2
substrate
 70
0
 62
5
  6
Continuous
370
-3
390
13
347
21
  0
ENDTAB
  0
TABLE
  2
STYLE
  5
5
330
0
100
AcDbSymbolTable
 70
1
  0
STYLE
  5
29
330
5
100
AcDbSymbolTableRecord
100
AcDbTextStyleTableRecord
  2
Standard
 70
0
 40
0.0
 41
1.0
 50
0.0
 71
0
 42
2.5
  3
txt
  4

  0
ENDTAB
  0
TABLE
  2
VIEW
  5
7
330
0
100
AcDbSymbolTable
 70
0
  0
ENDTAB
  0
TABLE
  2
UCS
  5
6
330
0
100
AcDbSymbolTable
 70
0
  0
ENDTAB
  0
TABLE
  2
APPID
  5
3
330
0
100
AcDbSymbolTable
 70
3
  0
APPID
  5
2A
330
3
100
AcDbSymbolTableRecord
100
AcDbRegAppTableRecord
  2
ACAD
 70
0
  0
APPID
  5
56
330
3
100
AcDbSymbolTableRecord
100
AcDbRegAppTableRecord
  2
HATCHBACKGROUNDCOLOR
 70
0
  0
APPID
  5
57
330
3
100
AcDbSymbolTableRecord
100
AcDbRegAppTableRecord
  2
EZDXF
 70
0
  0
ENDTAB
  0
TABLE
  2
DIMSTYLE
  5
4
330
0
100
AcDbSymbolTable
 70
1
100
AcDbDimStyleTable
  0
DIMSTYLE
105
2B
330
4
100
AcDbSymbolTableRecord
100
AcDbDimStyleTableRecord
  2
Standard
 70
0
 40
1.0
 41
2.5
 42
0.625
 43
3.75
 44
1.25
 45
0.0
 46
0.0
 47
0.0
 48
0.0
 49
2.5
140
2.5
141
2.5
142
0.0
143
0.03937007874
144
1.0
145
0.0
146
1.0
147
0.625
148
0.0
 69
0
 70
0
 71
0
 72
0
 73
0
 74
0
 75
0
 76
0
 77
1
 78
8
 79
3
170
0
171
3
172
1
173
0
174
0
175
0
176
0
177
0
178
0
179
2
271
2
272
2
273
2
274
3
275
0
276
0
277
2
278
44
279
0
280
0
281
0
282
0
283
0
284
8
285
0
286
0
288
0
289
3
290
0
371
-2
372
-2
  0
ENDTAB
  0
TABLE
  2
BLOCK_RECORD
  5
9
330
0
100
AcDbSymbolTable
 70
2
  0
BLOCK_RECORD
  5
17
330
9
100
AcDbSymbolTableRecord
100
AcDbBlockTableRecord
  2
*Model_Space
340
1A
 70
0
280
1
281
0
  0
BLOCK_RECORD
  5
1B
330
9
100
AcDbSymbolTableRecord
100
AcDbBlockTableRecord
  2
*Paper_Space
340
1E
 70
0
280
1
281
0
  0
ENDTAB
  0
ENDSEC
  0
SECTION
  2
BLOCKS
  0
BLOCK
  5
18
330
17
100
AcDbEntity
  8
0
100
AcDbBlockBegin
  2
*Model_Space
 70
0
 10
0.0
 20
0.0
 30
0.0
  3
*Model_Space
  1

  0
ENDBLK
  5
19
330
17
100
AcDbEntity
  8
0
100
AcDbBlockEnd
  0
BLOCK
  5
1C
330
1B
100
AcDbEntity
  8
0
100
AcDbBlockBegin
  2
*Paper_Space
 70
0
 10
0.0
 20
0.0
 30
0.0
  3
*Paper_Space
  1

  0
ENDBLK
  5
1D
330
1B
100
AcDbEntity
  8
0
100
AcDbBlockEnd
  0
ENDSEC
  0
SECTION
  2
ENTITIES
  0
LWPOLYLINE
  5
32
330
17
100
AcDbEntity
  8
conductor
100
AcDbPolyline
 90
238
 70
1
 43
0.5
 10
2321.8125
 20
-2045.859375
 10
2321.8125
 20
-2055.375
 10
2312.296875
 20
-2064.890625
 10
2302.78125
 20
-2064.890625
 10
2293.265625
 20
-2074.40625
 10
2283.75
 20
-2074.40625
 10
2274.234375
 20
-2083.921875
 10
2264.71875
 20
-2083.921875
 10
2255.203125
 20
-2093.4375
 10
2245.6875
 20
-2093.4375
 10
2236.171875
 20
-2102.953125
 10
2226.65625
 20
-2102.953125
 10
2217.140625
 20
-2112.46875
 10
2207.625
 20
-2121.984375
 10
2198.109375
 20
-2121.984375
 10
2198.109375
 20
-2131.5
 10
2188.59375
 20
-2141.015625
 10
2179.078125
 20
-2141.015625
 10
2169.5625
 20
-2150.53125
 10
2160.046875
 20
-2160.046875
 10
2160.046875
 20
-2169.5625
 10
2150.53125
 20
-2179.078125
 10
2141.015625
 20
-2179.078125
 10
2141.015625
 20
-2188.59375
 10
2131.5
 20
-2198.109375
 10
2121.984375
 20
-2207.625
 10
2112.46875
 20
-2217.140625
 10
2102.953125
 20
-2226.65625
 10
2102.953125
 20
-2236.171875
 10
2102.953125
 20
-2245.6875
 10
2093.4375
 20
-2255.203125
 10
2093.4375
 20
-2264.71875
 10
2083.921875
 20
-2274.234375
 10
2083.921875
 20
-2283.75
 10
2083.921875
 20
-2293.265625
 10
2074.40625
 20
-2302.78125
 10
2074.40625
 20
-2312.296875
 10
2064.890625
 20
-2321.8125
 10
2064.890625
 20
-2331.328125
 10
2064.890625
 20
-2340.84375
 10
2064.890625
 20
-2350.359375
 10
2055.375
 20
-2359.875
 10
2055.375
 20
-2369.390625
 10
2055.375
 20
-2378.90625
 10
2055.375
 20
-2388.421875
 10
2055.375
 20
-2397.9375
 10
2055.375
 20
-2407.453125
 10
2045.859375
 20
-2416.96875
 10
2045.859375
 20
-2426.484375
 10
2045.859375
 20
-2436.0
 10
2045.859375
 20
-2445.515625
 10
2045.859375
 20
-2455.03125
 10
2045.859375
 20
-2464.546875
 10
2045.859375
 20
-2474.0625
 10
2045.859375
 20
-2483.578125
 10
2045.859375
 20
-2493.09375
 10
2045.859375
 20
-2502.609375
 10
2045.859375
 20
-2512.125
 10
2055.375
 20
-2521.640625
 10
2045.859375
 20
-2531.15625
 10
2055.375
 20
-2540.671875
 10
2055.375
 20
-2550.1875
 10
2055.375
 20
-2559.703125
 10
2064.890625
 20
-2569.21875
 10
2064.890625
 20
-2578.734375
 10
2064.890625
 20
-2588.25
 10
2074.40625
 20
-2597.765625
 10
2083.921875
 20
-2607.28125
 10
2083.921875
 20
-2616.796875
 10
2083.921875
 20
-2626.3125
 10
2093.4375
 20
-2635.828125
 10
2093.4375
 20
-2645.34375
 10
2102.953125
 20
-2654.859375
 10
2112.46875
 20
-2654.859375
 10
2121.984375
 20
-2664.375
 10
2121.984375
 20
-2673.890625
 10
2131.5
 20
-2683.40625
 10
2141.015625
 20
-2692.921875
 10
2141.015625
 20
-2702.4375
 10
2150.53125
 20
-2711.953125
 10
2160.046875
 20
-2721.46875
 10
2169.5625
 20
-2730.984375
 10
2179.078125
 20
-2740.5
 10
2179.078125
 20
-2750.015625
 10
2188.59375
 20
-2750.015625
 10
2198.109375
 20
-2759.53125
 10
2207.625
 20
-2759.53125
 10
2217.140625
 20
-2769.046875
 10
2226.65625
 20
-2778.5625
 10
2236.171875
 20
-2778.5625
 10
2245.6875
 20
-2788.078125
 10
2255.203125
 20
-2788.078125
 10
2264.71875
 20
-2788.078125
 10
2274.234375
 20
-2788.078125
 10
2283.75
 20
-2797.59375
 10
2293.265625
 20
-2797.59375
 10
2302.78125
 20
-2807.109375
 10
2312.296875
 20
-2807.109375
 10
2321.8125
 20
-2807.109375
 10
2331.328125
 20
-2807.109375
 10
2340.84375
 20
-2807.109375
 10
2350.359375
 20
-2816.625
 10
2359.875
 20
-2816.625
 10
2369.390625
 20
-2816.625
 10
2378.90625
 20
-2826.140625
 10
2388.421875
 20
-2816.625
 10
2397.9375
 20
-2826.140625
 10
2407.453125
 20
-2826.140625
 10
2416.96875
 20
-2826.140625
 10
2426.484375
 20
-2826.140625
 10
2436.0
 20
-2826.140625
 10
2445.515625
 20
-2826.140625
 10
2455.03125
 20
-2835.65625
 10
2464.546875
 20
-2826.140625
 10
2474.0625
 20
-2826.140625
 10
2483.578125
 20
-2826.140625
 10
2493.09375
 20
-2826.140625
 10
2502.609375
 20
-2816.625
 10
2512.125
 20
-2816.625
 10
2521.640625
 20
-2816.625
 10
2531.15625
 20
-2807.109375
 10
2540.671875
 20
-2807.109375
 10
2550.1875
 20
-2807.109375
 10
2559.703125
 20
-2797.59375
 10
2569.21875
 20
-2797.59375
 10
2578.734375
 20
-2788.078125
 10
2588.25
 20
-2778.5625
 10
2597.765625
 20
-2769.046875
 10
2607.28125
 20
-2769.046875
 10
2616.796875
 20
-2769.046875
 10
2626.3125
 20
-2759.53125
 10
2635.828125
 20
-2750.015625
 10
2645.34375
 20
-2750.015625
 10
2654.859375
 20
-2740.5
 10
2664.375
 20
-2730.984375
 10
2673.890625
 20
-2721.46875
 10
2683.40625
 20
-2730.984375
 10
2692.921875
 20
-2721.46875
 10
2702.4375
 20
-2711.953125
 10
2711.953125
 20
-2702.4375
 10
2721.46875
 20
-2692.921875
 10
2730.984375
 20
-2683.40625
 10
2740.5
 20
-2673.890625
 10
2750.015625
 20
-2664.375
 10
2759.53125
 20
-2654.859375
 10
2769.046875
 20
-2654.859375
 10
2769.046875
 20
-2645.34375
 10
2778.5625
 20
-2635.828125
 10
2778.5625
 20
-2626.3125
 10
2788.078125
 20
-2616.796875
 10
2788.078125
 20
-2607.28125
 10
2797.59375
 20
-2597.765625
 10
2797.59375
 20
-2588.25
 10
2807.109375
 20
-2578.734375
 10
2807.109375
 20
-2569.21875
 10
2816.625
 20
-2559.703125
 10
2816.625
 20
-2550.1875
 10
2816.625
 20
-2540.671875
 10
2826.140625
 20
-2531.15625
 10
2816.625
 20
-2521.640625
 10
2826.140625
 20
-2512.125
 10
2816.625
 20
-2502.609375
 10
2816.625
 20
-2493.09375
 10
2826.140625
 20
-2483.578125
 10
2826.140625
 20
-2474.0625
 10
2826.140625
 20
-2464.546875
 10
2835.65625
 20
-2455.03125
 10
2826.140625
 20
-2445.515625
 10
2826.140625
 20
-2436.0
 10
2826.140625
 20
-2426.484375
 10
2826.140625
 20
-2416.96875
 10
2826.140625
 20
-2407.453125
 10
2826.140625
 20
-2397.9375
 10
2826.140625
 20
-2388.421875
 10
2826.140625
 20
-2378.90625
 10
2826.140625
 20
-2369.390625
 10
2826.140625
 20
-2359.875
 10
2826.140625
 20
-2350.359375
 10
2816.625
 20
-2340.84375
 10
2816.625
 20
-2331.328125
 10
2807.109375
 20
-2321.8125
 10
2807.109375
 20
-2312.296875
 10
2807.109375
 20
-2302.78125
 10
2797.59375
 20
-2293.265625
 10
2797.59375
 20
-2283.75
 10
2788.078125
 20
-2274.234375
 10
2788.078125
 20
-2264.71875
 10
2778.5625
 20
-2255.203125
 10
2769.046875
 20
-2245.6875
 10
2769.046875
 20
-2236.171875
 10
2759.53125
 20
-2226.65625
 10
2750.015625
 20
-2217.140625
 10
2740.5
 20
-2207.625
 10
2730.984375
 20
-2198.109375
 10
2730.984375
 20
-2188.59375
 10
2721.46875
 20
-2179.078125
 10
2711.953125
 20
-2169.5625
 10
2711.953125
 20
-2160.046875
 10
2702.4375
 20
-2150.53125
 10
2692.921875
 20
-2150.53125
 10
2683.40625
 20
-2141.015625
 10
2673.890625
 20
-2131.5
 10
2664.375
 20
-2131.5
 10
2654.859375
 20
-2121.984375
 10
2645.34375
 20
-2112.46875
 10
2635.828125
 20
-2112.46875
 10
2626.3125
 20
-2102.953125
 10
2616.796875
 20
-2093.4375
 10
2607.28125
 20
-2083.921875
 10
2597.765625
 20
-2083.921875
 10
2588.25
 20
-2074.40625
 10
2578.734375
 20
-2074.40625
 10
2569.21875
 20
-2074.40625
 10
2559.703125
 20
-2074.40625
 10
2550.1875
 20
-2064.890625
 10
2540.671875
 20
-2064.890625
 10
2531.15625
 20
-2064.890625
 10
2521.640625
 20
-2055.375
 10
2512.125
 20
-2055.375
 10
2502.609375
 20
-2055.375
 10
2493.09375
 20
-2055.375
 10
2483.578125
 20
-2055.375
 10
2474.0625
 20
-2055.375
 10
2464.546875
 20
-2055.375
 10
2455.03125
 20
-2055.375
 10
2445.515625
 20
-2055.375
 10
2436.0
 20
-2055.375
 10
2426.484375
 20
-2055.375
 10
2416.96875
 20
-2045.859375
 10
2407.453125
 20
-2055.375
 10
2397.9375
 20
-2045.859375
 10
2388.421875
 20
-2045.859375
 10
2378.90625
 20
-2045.859375
 10
2369.390625
 20
-2055.375
 10
2359.875
 20
-2045.859375
 10
2350.359375
 20
-2045.859375
 10
2340.84375
 20
-2045.859375
 10
2331.328125
 20
-2045.859375
  0
LWPOLYLINE
  5
33
330
17
100
AcDbEntity
  8
conductor
100
AcDbPolyline
 90
1
 70
1
 43
0.5
 10
19.03125
 20
-1893.609375
  0
LWPOLYLINE
  5
34
330
17
100
AcDbEntity
  8
dielectric
100
AcDbPolyline
 90
1
 70
1
 43
0.5
 10
2416.96875
 20
-4757.8125
  0
LWPOLYLINE
  5
35
330
17
100
AcDbEntity
  8
dielectric
100
AcDbPolyline
 90
1
 70
1
 43
0.5
 10
285.46875
 20
-4757.8125
  0
LWPOLYLINE
  5
36
330
17
100
AcDbEntity
  8
dielectric
100
AcDbPolyline
 90
1
 70
1
 43
0.5
 10
247.40625
 20
-4757.8125
  0
LWPOLYLINE
  5
37
330
17
100
AcDbEntity
  8
dielectric
100
AcDbPolyline
 90
1
 70
1
 43
0.5
 10
294.984375
 20
-4738.78125
  0
LWPOLYLINE
  5
38
330
17
100
AcDbEntity
  8
dielectric
100
AcDbPolyline
 90
1
 70
1
 43
0.5
 10
256.921875
 20
-4738.78125
  0
LWPOLYLINE
  5
39
330
17
100
AcDbEntity
  8
substrate
100
AcDbPolyline
 90
2044
 70
1
 43
0.5
 10
0.0
 20
-0.0
 10
0.0
 20
-9.515625
 10
0.0
 20
-19.03125
 10
0.0
 20
-28.546875
 10
0.0
 20
-38.0625
 10
0.0
 20
-47.578125
 10
0.0
 20
-57.09375
 10
0.0
 20
-66.609375
 10
0.0
 20
-76.125
 10
0.0
 20
-85.640625
 10
0.0
 20
-95.15625
 10
0.0
 20
-104.671875
 10
0.0
 20
-114.1875
 10
0.0
 20
-123.703125
 10
0.0
 20
-133.21875
 10
0.0
 20
-142.734375
 10
0.0
 20
-152.25
 10
0.0
 20
-161.765625
 10
0.0
 20
-171.28125
 10
0.0
 20
-180.796875
 10
0.0
 20
-190.3125
 10
0.0
 20
-199.828125
 10
0.0
 20
-209.34375
 10
0.0
 20
-218.859375
 10
0.0
 20
-228.375
 10
0.0
 20
-237.890625
 10
0.0
 20
-247.40625
 10
0.0
 20
-256.921875
 10
0.0
 20
-266.4375
 10
0.0
 20
-275.953125
 10
0.0
 20
-285.46875
 10
0.0
 20
-294.984375
 10
0.0
 20
-304.5
 10
0.0
 20
-314.015625
 10
0.0
 20
-323.53125
 10
0.0
 20
-333.046875
 10
0.0
 20
-342.5625
 10
0.0
 20
-352.078125
 10
0.0
 20
-361.59375
 10
0.0
 20
-371.109375
 10
0.0
 20
-380.625
 10
0.0
 20
-390.140625
 10
0.0
 20
-399.65625
 10
0.0
 20
-409.171875
 10
0.0
 20
-418.6875
 10
0.0
 20
-428.203125
 10
0.0
 20
-437.71875
 10
0.0
 20
-447.234375
 10
0.0
 20
-456.75
 10
0.0
 20
-466.265625
 10
0.0
 20
-475.78125
 10
0.0
 20
-485.296875
 10
0.0
 20
-494.8125
 10
0.0
 20
-504.328125
 10
0.0
 20
-513.84375
 10
0.0
 20
-523.359375
 10
0.0
 20
-532.875
 10
0.0
 20
-542.390625
 10
0.0
 20
-551.90625
 10
0.0
 20
-561.421875
 10
0.0
 20
-570.9375
 10
0.0
 20
-580.453125
 10
0.0
 20
-589.96875
 10
0.0
 20
-599.484375
 10
0.0
 20
-609.0
 10
0.0
 20
-618.515625
 10
0.0
 20
-628.03125
 10
0.0
 20
-637.546875
 10
0.0
 20
-647.0625
 10
0.0
 20
-656.578125
 10
0.0
 20
-666.09375
 10
0.0
 20
-675.609375
 10
0.0
 20
-685.125
 10
0.0
 20
-694.640625
 10
0.0
 20
-704.15625
 10
0.0
 20
-713.671875
 10
0.0
 20
-723.1875
 10
0.0
 20
-732.703125
 10
0.0
 20
-742.21875
 10
0.0
 20
-751.734375
 10
0.0
 20
-761.25
 10
0.0
 20
-770.765625
 10
0.0
 20
-780.28125
 10
0.0
 20
-789.796875
 10
0.0
 20
-799.3125
 10
0.0
 20
-808.828125
 10
0.0
 20
-818.34375
 10
0.0
 20
-827.859375
 10
0.0
 20
-837.375
 10
0.0
 20
-846.890625
 10
0.0
 20
-856.40625
 10
0.0
 20
-865.921875
 10
0.0
 20
-875.4375
 10
0.0
 20
-884.953125
 10
0.0
 20
-894.46875
 10
0.0
 20
-903.984375
 10
0.0
 20
-913.5
 10
0.0
 20
-923.015625
 10
0.0
 20
-932.53125
 10
0.0
 20
-942.046875
 10
0.0
 20
-951.5625
 10
0.0
 20
-961.078125
 10
0.0
 20
-970.59375
 10
0.0
 20
-980.109375
 10
0.0
 20
-989.625
 10
0.0
 20
-999.140625
 10
0.0
 20
-1008.65625
 10
0.0
 20
-1018.171875
 10
0.0
 20
-1027.6875
 10
0.0
 20
-1037.203125
 10
0.0
 20
-1046.71875
 10
0.0
 20
-1056.234375
 10
0.0
 20
-1065.75
 10
0.0
 20
-1075.265625
 10
0.0
 20
-1084.78125
 10
0.0
 20
-1094.296875
 10
0.0
 20
-1103.8125
 10
0.0
 20
-1113.328125
 10
0.0
 20
-1122.84375
 10
0.0
 20
-1132.359375
 10
0.0
 20
-1141.875
 10
0.0
 20
-1151.390625
 10
0.0
 20
-1160.90625
 10
0.0
 20
-1170.421875
 10
0.0
 20
-1179.9375
 10
0.0
 20
-1189.453125
 10
0.0
 20
-1198.96875
 10
0.0
 20
-1208.484375
 10
0.0
 20
-1218.0
 10
0.0
 20
-1227.515625
 10
0.0
 20
-1237.03125
 10
0.0
 20
-1246.546875
 10
0.0
 20
-1256.0625
 10
0.0
 20
-1265.578125
 10
0.0
 20
-1275.09375
 10
0.0
 20
-1284.609375
 10
0.0
 20
-1294.125
 10
0.0
 20
-1303.640625
 10
0.0
 20
-1313.15625
 10
0.0
 20
-1322.671875
 10
0.0
 20
-1332.1875
 10
0.0
 20
-1341.703125
 10
0.0
 20
-1351.21875
 10
0.0
 20
-1360.734375
 10
0.0
 20
-1370.25
 10
0.0
 20
-1379.765625
 10
0.0
 20
-1389.28125
 10
0.0
 20
-1398.796875
 10
0.0
 20
-1408.3125
 10
0.0
 20
-1417.828125
 10
0.0
 20
-1427.34375
 10
0.0
 20
-1436.859375
 10
0.0
 20
-1446.375
 10
0.0
 20
-1455.890625
 10
0.0
 20
-1465.40625
 10
0.0
 20
-1474.921875
 10
0.0
 20
-1484.4375
 10
0.0
 20
-1493.953125
 10
0.0
 20
-1503.46875
 10
0.0
 20
-1512.984375
 10
0.0
 20
-1522.5
 10
0.0
 20
-1532.015625
 10
0.0
 20
-1541.53125
 10
0.0
 20
-1551.046875
 10
0.0
 20
-1560.5625
 10
0.0
 20
-1570.078125
 10
0.0
 20
-1579.59375
 10
0.0
 20
-1589.109375
 10
0.0
 20
-1598.625
 10
0.0
 20
-1608.140625
 10
0.0
 20
-1617.65625
 10
0.0
 20
-1627.171875
 10
0.0
 20
-1636.6875
 10
0.0
 20
-1646.203125
 10
0.0
 20
-1655.71875
 10
0.0
 20
-1665.234375
 10
0.0
 20
-1674.75
 10
0.0
 20
-1684.265625
 10
0.0
 20
-1693.78125
 10
0.0
 20
-1703.296875
 10
0.0
 20
-1712.8125
 10
0.0
 20
-1722.328125
 10
0.0
 20
-1731.84375
 10
0.0
 20
-1741.359375
 10
0.0
 20
-1750.875
 10
0.0
 20
-1760.390625
 10
0.0
 20
-1769.90625
 10
0.0
 20
-1779.421875
 10
0.0
 20
-1788.9375
 10
0.0
 20
-1798.453125
 10
0.0
 20
-1807.96875
 10
0.0
 20
-1817.484375
 10
0.0
 20
-1827.0
 10
0.0
 20
-1836.515625
 10
0.0
 20
-1846.03125
 10
0.0
 20
-1855.546875
 10
0.0
 20
-1865.0625
 10
0.0
 20
-1874.578125
 10
0.0
 20
-1884.09375
 10
0.0
 20
-1893.609375
 10
0.0
 20
-1903.125
 10
0.0
 20
-1912.640625
 10
0.0
 20
-1922.15625
 10
0.0
 20
-1931.671875
 10
0.0
 20
-1941.1875
 10
0.0
 20
-1950.703125
 10
0.0
 20
-1960.21875
 10
0.0
 20
-1969.734375
 10
0.0
 20
-1979.25
 10
0.0
 20
-1988.765625
 10
0.0
 20
-1998.28125
 10
0.0
 20
-2007.796875
 10
0.0
 20
-2017.3125
 10
0.0
 20
-2026.828125
 10
0.0
 20
-2036.34375
 10
0.0
 20
-2045.859375
 10
0.0
 20
-2055.375
 10
0.0
 20
-2064.890625
 10
0.0
 20
-2074.40625
 10
0.0
 20
-2083.921875
 10
0.0
 20
-2093.4375
 10
0.0
 20
-2102.953125
 10
0.0
 20
-2112.46875
 10
0.0
 20
-2121.984375
 10
0.0
 20
-2131.5
 10
0.0
 20
-2141.015625
 10
0.0
 20
-2150.53125
 10
0.0
 20
-2160.046875
 10
0.0
 20
-2169.5625
 10
0.0
 20
-2179.078125
 10
0.0
 20
-2188.59375
 10
0.0
 20
-2198.109375
 10
0.0
 20
-2207.625
 10
0.0
 20
-2217.140625
 10
0.0
 20
-2226.65625
 10
0.0
 20
-2236.171875
 10
0.0
 20
-2245.6875
 10
0.0
 20
-2255.203125
 10
0.0
 20
-2264.71875
 10
0.0
 20
-2274.234375
 10
0.0
 20
-2283.75
 10
0.0
 20
-2293.265625
 10
0.0
 20
-2302.78125
 10
0.0
 20
-2312.296875
 10
0.0
 20
-2321.8125
 10
0.0
 20
-2331.328125
 10
0.0
 20
-2340.84375
 10
0.0
 20
-2350.359375
 10
0.0
 20
-2359.875
 10
0.0
 20
-2369.390625
 10
0.0
 20
-2378.90625
 10
0.0
 20
-2388.421875
 10
0.0
 20
-2397.9375
 10
0.0
 20
-2407.453125
 10
0.0
 20
-2416.96875
 10
0.0
 20
-2426.484375
 10
0.0
 20
-2436.0
 10
0.0
 20
-2445.515625
 10
0.0
 20
-2455.03125
 10
0.0
 20
-2464.546875
 10
0.0
 20
-2474.0625
 10
0.0
 20
-2483.578125
 10
0.0
 20
-2493.09375
 10
0.0
 20
-2502.609375
 10
0.0
 20
-2512.125
 10
0.0
 20
-2521.640625
 10
0.0
 20
-2531.15625
 10
0.0
 20
-2540.671875
 10
0.0
 20
-2550.1875
 10
0.0
 20
-2559.703125
 10
0.0
 20
-2569.21875
 10
0.0
 20
-2578.734375
 10
0.0
 20
-2588.25
 10
0.0
 20
-2597.765625
 10
0.0
 20
-2607.28125
 10
0.0
 20
-2616.796875
 10
0.0
 20
-2626.3125
 10
0.0
 20
-2635.828125
 10
0.0
 20
-2645.34375
 10
0.0
 20
-2654.859375
 10
0.0
 20
-2664.375
 10
0.0
 20
-2673.890625
 10
0.0
 20
-2683.40625
 10
0.0
 20
-2692.921875
 10
0.0
 20
-2702.4375
 10
0.0
 20
-2711.953125
 10
0.0
 20
-2721.46875
 10
0.0
 20
-2730.984375
 10
0.0
 20
-2740.5
 10
0.0
 20
-2750.015625
 10
0.0
 20
-2759.53125
 10
0.0
 20
-2769.046875
 10
0.0
 20
-2778.5625
 10
0.0
 20
-2788.078125
 10
0.0
 20
-2797.59375
 10
0.0
 20
-2807.109375
 10
0.0
 20
-2816.625
 10
0.0
 20
-2826.140625
 10
0.0
 20
-2835.65625
 10
0.0
 20
-2845.171875
 10
0.0
 20
-2854.6875
 10
0.0
 20
-2864.203125
 10
0.0
 20
-2873.71875
 10
0.0
 20
-2883.234375
 10
0.0
 20
-2892.75
 10
0.0
 20
-2902.265625
 10
0.0
 20
-2911.78125
 10
0.0
 20
-2921.296875
 10
0.0
 20
-2930.8125
 10
0.0
 20
-2940.328125
 10
0.0
 20
-2949.84375
 10
0.0
 20
-2959.359375
 10
0.0
 20
-2968.875
 10
0.0
 20
-2978.390625
 10
0.0
 20
-2987.90625
 10
0.0
 20
-2997.421875
 10
0.0
 20
-3006.9375
 10
0.0
 20
-3016.453125
 10
0.0
 20
-3025.96875
 10
0.0
 20
-3035.484375
 10
0.0
 20
-3045.0
 10
0.0
 20
-3054.515625
 10
0.0
 20
-3064.03125
 10
0.0
 20
-3073.546875
 10
0.0
 20
-3083.0625
 10
0.0
 20
-3092.578125
 10
0.0
 20
-3102.09375
 10
0.0
 20
-3111.609375
 10
0.0
 20
-3121.125
 10
0.0
 20
-3130.640625
 10
0.0
 20
-3140.15625
 10
0.0
 20
-3149.671875
 10
0.0
 20
-3159.1875
 10
0.0
 20
-3168.703125
 10
0.0
 20
-3178.21875
 10
0.0
 20
-3187.734375
 10
0.0
 20
-3197.25
 10
0.0
 20
-3206.765625
 10
0.0
 20
-3216.28125
 10
0.0
 20
-3225.796875
 10
0.0
 20
-3235.3125
 10
0.0
 20
-3244.828125
 10
0.0
 20
-3254.34375
 10
0.0
 20
-3263.859375
 10
0.0
 20
-3273.375
 10
0.0
 20
-3282.890625
 10
0.0
 20
-3292.40625
 10
0.0
 20
-3301.921875
 10
0.0
 20
-3311.4375
 10
0.0
 20
-3320.953125
 10
0.0
 20
-3330.46875
 10
0.0
 20
-3339.984375
 10
0.0
 20
-3349.5
 10
0.0
 20
-3359.015625
 10
0.0
 20
-3368.53125
 10
0.0
 20
-3378.046875
 10
0.0
 20
-3387.5625
 10
0.0
 20
-3397.078125
 10
0.0
 20
-3406.59375
 10
0.0
 20
-3416.109375
 10
0.0
 20
-3425.625
 10
0.0
 20
-3435.140625
 10
0.0
 20
-3444.65625
 10
0.0
 20
-3454.171875
 10
0.0
 20
-3463.6875
 10
0.0
 20
-3473.203125
 10
0.0
 20
-3482.71875
 10
0.0
 20
-3492.234375
 10
0.0
 20
-3501.75
 10
0.0
 20
-3511.265625
 10
0.0
 20
-3520.78125
 10
0.0
 20
-3530.296875
 10
0.0
 20
-3539.8125
 10
0.0
 20
-3549.328125
 10
0.0
 20
-3558.84375
 10
0.0
 20
-3568.359375
 10
0.0
 20
-3577.875
 10
0.0
 20
-3587.390625
 10
0.0
 20
-3596.90625
 10
0.0
 20
-3606.421875
 10
0.0
 20
-3615.9375
 10
0.0
 20
-3625.453125
 10
0.0
 20
-3634.96875
 10
0.0
 20
-3644.484375
 10
0.0
 20
-3654.0
 10
0.0
 20
-3663.515625
 10
0.0
 20
-3673.03125
 10
0.0
 20
-3682.546875
 10
0.0
 20
-3692.0625
 10
0.0
 20
-3701.578125
 10
0.0
 20
-3711.09375
 10
0.0
 20
-3720.609375
 10
0.0
 20
-3730.125
 10
0.0
 20
-3739.640625
 10
0.0
 20
-3749.15625
 10
0.0
 20
-3758.671875
 10
0.0
 20
-3768.1875
 10
0.0
 20
-3777.703125
 10
0.0
 20
-3787.21875
 10
0.0
 20
-3796.734375
 10
0.0
 20
-3806.25
 10
0.0
 20
-3815.765625
 10
0.0
 20
-3825.28125
 10
0.0
 20
-3834.796875
 10
0.0
 20
-3844.3125
 10
0.0
 20
-3853.828125
 10
0.0
 20
-3863.34375
 10
0.0
 20
-3872.859375
 10
0.0
 20
-3882.375
 10
0.0
 20
-3891.890625
 10
0.0
 20
-3901.40625
 10
0.0
 20
-3910.921875
 10
0.0
 20
-3920.4375
 10
0.0
 20
-3929.953125
 10
0.0
 20
-3939.46875
 10
0.0
 20
-3948.984375
 10
0.0
 20
-3958.5
 10
0.0
 20
-3968.015625
 10
0.0
 20
-3977.53125
 10
0.0
 20
-3987.046875
 10
0.0
 20
-3996.5625
 10
0.0
 20
-4006.078125
 10
0.0
 20
-4015.59375
 10
0.0
 20
-4025.109375
 10
0.0
 20
-4034.625
 10
0.0
 20
-4044.140625
 10
0.0
 20
-4053.65625
 10
0.0
 20
-4063.171875
 10
0.0
 20
-4072.6875
 10
0.0
 20
-4082.203125
 10
0.0
 20
-4091.71875
 10
0.0
 20
-4101.234375
 10
0.0
 20
-4110.75
 10
0.0
 20
-4120.265625
 10
0.0
 20
-4129.78125
 10
0.0
 20
-4139.296875
 10
0.0
 20
-4148.8125
 10
0.0
 20
-4158.328125
 10
0.0
 20
-4167.84375
 10
0.0
 20
-4177.359375
 10
0.0
 20
-4186.875
 10
0.0
 20
-4196.390625
 10
0.0
 20
-4205.90625
 10
0.0
 20
-4215.421875
 10
0.0
 20
-4224.9375
 10
0.0
 20
-4234.453125
 10
0.0
 20
-4243.96875
 10
0.0
 20
-4253.484375
 10
0.0
 20
-4263.0
 10
0.0
 20
-4272.515625
 10
0.0
 20
-4282.03125
 10
0.0
 20
-4291.546875
 10
0.0
 20
-4301.0625
 10
0.0
 20
-4310.578125
 10
0.0
 20
-4320.09375
 10
0.0
 20
-4329.609375
 10
0.0
 20
-4339.125
 10
0.0
 20
-4348.640625
 10
0.0
 20
-4358.15625
 10
0.0
 20
-4367.671875
 10
0.0
 20
-4377.1875
 10
0.0
 20
-4386.703125
 10
0.0
 20
-4396.21875
 10
0.0
 20
-4405.734375
 10
0.0
 20
-4415.25
 10
0.0
 20
-4424.765625
 10
0.0
 20
-4434.28125
 10
0.0
 20
-4443.796875
 10
0.0
 20
-4453.3125
 10
0.0
 20
-4462.828125
 10
0.0
 20
-4472.34375
 10
0.0
 20
-4481.859375
 10
0.0
 20
-4491.375
 10
0.0
 20
-4500.890625
 10
0.0
 20
-4510.40625
 10
0.0
 20
-4519.921875
 10
0.0
 20
-4529.4375
 10
0.0
 20
-4538.953125
 10
0.0
 20
-4548.46875
 10
0.0
 20
-4557.984375
 10
0.0
 20
-4567.5
 10
0.0
 20
-4577.015625
 10
0.0
 20
-4586.53125
 10
0.0
 20
-4596.046875
 10
0.0
 20
-4605.5625
 10
0.0
 20
-4615.078125
 10
0.0
 20
-4624.59375
 10
0.0
 20
-4634.109375
 10
0.0
 20
-4643.625
 10
0.0
 20
-4653.140625
 10
0.0
 20
-4662.65625
 10
0.0
 20
-4672.171875
 10
0.0
 20
-4681.6875
 10
0.0
 20
-4691.203125
 10
0.0
 20
-4700.71875
 10
0.0
 20
-4710.234375
 10
0.0
 20
-4719.75
 10
0.0
 20
-4729.265625
 10
0.0
 20
-4738.78125
 10
0.0
 20
-4748.296875
 10
0.0
 20
-4757.8125
 10
0.0
 20
-4767.328125
 10
0.0
 20
-4776.84375
 10
0.0
 20
-4786.359375
 10
0.0
 20
-4795.875
 10
0.0
 20
-4805.390625
 10
0.0
 20
-4814.90625
 10
0.0
 20
-4824.421875
 10
0.0
 20
-4833.9375
 10
0.0
 20
-4843.453125
 10
0.0
 20
-4852.96875
 10
0.0
 20
-4862.484375
 10
9.515625
 20
-4862.484375
 10
19.03125
 20
-4862.484375
 10
28.546875
 20
-4862.484375
 10
38.0625
 20
-4862.484375
 10
47.578125
 20
-4862.484375
 10
57.09375
 20
-4862.484375
 10
66.609375
 20
-4862.484375
 10
76.125
 20
-4862.484375
 10
85.640625
 20
-4862.484375
 10
95.15625
 20
-4862.484375
 10
104.671875
 20
-4862.484375
 10
114.1875
 20
-4862.484375
 10
123.703125
 20
-4862.484375
 10
133.21875
 20
-4862.484375
 10
142.734375
 20
-4862.484375
 10
152.25
 20
-4862.484375
 10
161.765625
 20
-4862.484375
 10
171.28125
 20
-4862.484375
 10
180.796875
 20
-4862.484375
 10
190.3125
 20
-4862.484375
 10
199.828125
 20
-4862.484375
 10
209.34375
 20
-4862.484375
 10
218.859375
 20
-4862.484375
 10
228.375
 20
-4862.484375
 10
237.890625
 20
-4862.484375
 10
247.40625
 20
-4862.484375
 10
256.921875
 20
-4862.484375
 10
266.4375
 20
-4862.484375
 10
275.953125
 20
-4862.484375
 10
285.46875
 20
-4862.484375
 10
294.984375
 20
-4862.484375
 10
304.5
 20
-4862.484375
 10
314.015625
 20
-4862.484375
 10
323.53125
 20
-4862.484375
 10
333.046875
 20
-4862.484375
 10
342.5625
 20
-4862.484375
 10
352.078125
 20
-4862.484375
 10
361.59375
 20
-4862.484375
 10
371.109375
 20
-4862.484375
 10
380.625
 20
-4862.484375
 10
390.140625
 20
-4862.484375
 10
399.65625
 20
-4862.484375
 10
409.171875
 20
-4862.484375
 10
418.6875
 20
-4862.484375
 10
428.203125
 20
-4862.484375
 10
437.71875
 20
-4862.484375
 10
447.234375
 20
-4862.484375
 10
456.75
 20
-4862.484375
 10
466.265625
 20
-4862.484375
 10
475.78125
 20
-4862.484375
 10
485.296875
 20
-4862.484375
 10
494.8125
 20
-4862.484375
 10
504.328125
 20
-4862.484375
 10
513.84375
 20
-4862.484375
 10
523.359375
 20
-4862.484375
 10
532.875
 20
-4862.484375
 10
542.390625
 20
-4862.484375
 10
551.90625
 20
-4862.484375
 10
561.421875
 20
-4862.484375
 10
570.9375
 20
-4862.484375
 10
580.453125
 20
-4862.484375
 10
589.96875
 20
-4862.484375
 10
599.484375
 20
-4862.484375
 10
609.0
 20
-4862.484375
 10
618.515625
 20
-4862.484375
 10
628.03125
 20
-4862.484375
 10
637.546875
 20
-4862.484375
 10
647.0625
 20
-4862.484375
 10
656.578125
 20
-4862.484375
 10
666.09375
 20
-4862.484375
 10
675.609375
 20
-4862.484375
 10
685.125
 20
-4862.484375
 10
694.640625
 20
-4862.484375
 10
704.15625
 20
-4862.484375
 10
713.671875
 20
-4862.484375
 10
723.1875
 20
-4862.484375
 10
732.703125
 20
-4862.484375
 10
742.21875
 20
-4862.484375
 10
751.734375
 20
-4862.484375
 10
761.25
 20
-4862.484375
 10
770.765625
 20
-4862.484375
 10
780.28125
 20
-4862.484375
 10
789.796875
 20
-4862.484375
 10
799.3125
 20
-4862.484375
 10
808.828125
 20
-4862.484375
 10
818.34375
 20
-4862.484375
 10
827.859375
 20
-4862.484375
 10
837.375
 20
-4862.484375
 10
846.890625
 20
-4862.484375
 10
856.40625
 20
-4862.484375
 10
865.921875
 20
-4862.484375
 10
875.4375
 20
-4862.484375
 10
884.953125
 20
-4862.484375
 10
894.46875
 20
-4862.484375
 10
903.984375
 20
-4862.484375
 10
913.5
 20
-4862.484375
 10
923.015625
 20
-4862.484375
 10
932.53125
 20
-4862.484375
 10
942.046875
 20
-4862.484375
 10
951.5625
 20
-4862.484375
 10
961.078125
 20
-4862.484375
 10
970.59375
 20
-4862.484375
 10
980.109375
 20
-4862.484375
 10
989.625
 20
-4862.484375
 10
999.140625
 20
-4862.484375
 10
1008.65625
 20
-4862.484375
 10
1018.171875
 20
-4862.484375
 10
1027.6875
 20
-4862.484375
 10
1037.203125
 20
-4862.484375
 10
1046.71875
 20
-4862.484375
 10
1056.234375
 20
-4862.484375
 10
1065.75
 20
-4862.484375
 10
1075.265625
 20
-4862.484375
 10
1084.78125
 20
-4862.484375
 10
1094.296875
 20
-4862.484375
 10
1103.8125
 20
-4862.484375
 10
1113.328125
 20
-4862.484375
 10
1122.84375
 20
-4862.484375
 10
1132.359375
 20
-4862.484375
 10
1141.875
 20
-4862.484375
 10
1151.390625
 20
-4862.484375
 10
1160.90625
 20
-4862.484375
 10
1170.421875
 20
-4862.484375
 10
1179.9375
 20
-4862.484375
 10
1189.453125
 20
-4862.484375
 10
1198.96875
 20
-4862.484375
 10
1208.484375
 20
-4862.484375
 10
1218.0
 20
-4862.484375
 10
1227.515625
 20
-4862.484375
 10
1237.03125
 20
-4862.484375
 10
1246.546875
 20
-4862.484375
 10
1256.0625
 20
-4862.484375
 10
1265.578125
 20
-4862.484375
 10
1275.09375
 20
-4862.484375
 10
1284.609375
 20
-4862.484375
 10
1294.125
 20
-4862.484375
 10
1303.640625
 20
-4862.484375
 10
1313.15625
 20
-4862.484375
 10
1322.671875
 20
-4862.484375
 10
1332.1875
 20
-4862.484375
 10
1341.703125
 20
-4862.484375
 10
1351.21875
 20
-4862.484375
 10
1360.734375
 20
-4862.484375
 10
1370.25
 20
-4862.484375
 10
1379.765625
 20
-4862.484375
 10
1389.28125
 20
-4862.484375
 10
1398.796875
 20
-4862.484375
 10
1408.3125
 20
-4862.484375
 10
1417.828125
 20
-4862.484375
 10
1427.34375
 20
-4862.484375
 10
1436.859375
 20
-4862.484375
 10
1446.375
 20
-4862.484375
 10
1455.890625
 20
-4862.484375
 10
1465.40625
 20
-4862.484375
 10
1474.921875
 20
-4862.484375
 10
1484.4375
 20
-4862.484375
 10
1493.953125
 20
-4862.484375
 10
1503.46875
 20
-4862.484375
 10
1512.984375
 20
-4862.484375
 10
1522.5
 20
-4862.484375
 10
1532.015625
 20
-4862.484375
 10
1541.53125
 20
-4862.484375
 10
1551.046875
 20
-4862.484375
 10
1560.5625
 20
-4862.484375
 10
1570.078125
 20
-4862.484375
 10
1579.59375
 20
-4862.484375
 10
1589.109375
 20
-4862.484375
 10
1598.625
 20
-4862.484375
 10
1608.140625
 20
-4862.484375
 10
1617.65625
 20
-4862.484375
 10
1627.171875
 20
-4862.484375
 10
1636.6875
 20
-4862.484375
 10
1646.203125
 20
-4862.484375
 10
1655.71875
 20
-4862.484375
 10
1665.234375
 20
-4862.484375
 10
1674.75
 20
-4862.484375
 10
1684.265625
 20
-4862.484375
 10
1693.78125
 20
-4862.484375
 10
1703.296875
 20
-4862.484375
 10
1712.8125
 20
-4862.484375
 10
1722.328125
 20
-4862.484375
 10
1731.84375
 20
-4862.484375
 10
1741.359375
 20
-4862.484375
 10
1750.875
 20
-4862.484375
 10
1760.390625
 20
-4862.484375
 10
1769.90625
 20
-4862.484375
 10
1779.421875
 20
-4862.484375
 10
1788.9375
 20
-4862.484375
 10
1798.453125
 20
-4862.484375
 10
1807.96875
 20
-4862.484375
 10
1817.484375
 20
-4862.484375
 10
1827.0
 20
-4862.484375
 10
1836.515625
 20
-4862.484375
 10
1846.03125
 20
-4862.484375
 10
1855.546875
 20
-4862.484375
 10
1865.0625
 20
-4862.484375
 10
1874.578125
 20
-4862.484375
 10
1884.09375
 20
-4862.484375
 10
1893.609375
 20
-4862.484375
 10
1903.125
 20
-4862.484375
 10
1912.640625
 20
-4862.484375
 10
1922.15625
 20
-4862.484375
 10
1931.671875
 20
-4862.484375
 10
1941.1875
 20
-4862.484375
 10
1950.703125
 20
-4862.484375
 10
1960.21875
 20
-4862.484375
 10
1969.734375
 20
-4862.484375
 10
1979.25
 20
-4862.484375
 10
1988.765625
 20
-4862.484375
 10
1998.28125
 20
-4862.484375
 10
2007.796875
 20
-4862.484375
 10
2017.3125
 20
-4862.484375
 10
2026.828125
 20
-4862.484375
 10
2036.34375
 20
-4862.484375
 10
2045.859375
 20
-4862.484375
 10
2055.375
 20
-4862.484375
 10
2064.890625
 20
-4862.484375
 10
2074.40625
 20
-4862.484375
 10
2083.921875
 20
-4862.484375
 10
2093.4375
 20
-4862.484375
 10
2102.953125
 20
-4862.484375
 10
2112.46875
 20
-4862.484375
 10
2121.984375
 20
-4862.484375
 10
2131.5
 20
-4862.484375
 10
2141.015625
 20
-4862.484375
 10
2150.53125
 20
-4862.484375
 10
2160.046875
 20
-4862.484375
 10
2169.5625
 20
-4862.484375
 10
2179.078125
 20
-4862.484375
 10
2188.59375
 20
-4862.484375
 10
2198.109375
 20
-4862.484375
 10
2207.625
 20
-4862.484375
 10
2217.140625
 20
-4862.484375
 10
2226.65625
 20
-4862.484375
 10
2236.171875
 20
-4862.484375
 10
2245.6875
 20
-4862.484375
 10
2255.203125
 20
-4862.484375
 10
2264.71875
 20
-4862.484375
 10
2274.234375
 20
-4862.484375
 10
2283.75
 20
-4862.484375
 10
2293.265625
 20
-4862.484375
 10
2302.78125
 20
-4862.484375
 10
2312.296875
 20
-4862.484375
 10
2321.8125
 20
-4862.484375
 10
2331.328125
 20
-4862.484375
 10
2340.84375
 20
-4862.484375
 10
2350.359375
 20
-4862.484375
 10
2359.875
 20
-4862.484375
 10
2369.390625
 20
-4862.484375
 10
2378.90625
 20
-4862.484375
 10
2388.421875
 20
-4862.484375
 10
2397.9375
 20
-4862.484375
 10
2407.453125
 20
-4862.484375
 10
2416.96875
 20
-4862.484375
 10
2426.484375
 20
-4862.484375
 10
2436.0
 20
-4862.484375
 10
2445.515625
 20
-4862.484375
 10
2455.03125
 20
-4862.484375
 10
2464.546875
 20
-4862.484375
 10
2474.0625
 20
-4862.484375
 10
2483.578125
 20
-4862.484375
 10
2493.09375
 20
-4862.484375
 10
2502.609375
 20
-4862.484375
 10
2512.125
 20
-4862.484375
 10
2521.640625
 20
-4862.484375
 10
2531.15625
 20
-4862.484375
 10
2540.671875
 20
-4862.484375
 10
2550.1875
 20
-4862.484375
 10
2559.703125
 20
-4862.484375
 10
2569.21875
 20
-4862.484375
 10
2578.734375
 20
-4862.484375
 10
2588.25
 20
-4862.484375
 10
2597.765625
 20
-4862.484375
 10
2607.28125
 20
-4862.484375
 10
2616.796875
 20
-4862.484375
 10
2626.3125
 20
-4862.484375
 10
2635.828125
 20
-4862.484375
 10
2645.34375
 20
-4862.484375
 10
2654.859375
 20
-4862.484375
 10
2664.375
 20
-4862.484375
 10
2673.890625
 20
-4862.484375
 10
2683.40625
 20
-4862.484375
 10
2692.921875
 20
-4862.484375
 10
2702.4375
 20
-4862.484375
 10
2711.953125
 20
-4862.484375
 10
2721.46875
 20
-4862.484375
 10
2730.984375
 20
-4862.484375
 10
2740.5
 20
-4862.484375
 10
2750.015625
 20
-4862.484375
 10
2759.53125
 20
-4862.484375
 10
2769.046875
 20
-4862.484375
 10
2778.5625
 20
-4862.484375
 10
2788.078125
 20
-4862.484375
 10
2797.59375
 20
-4862.484375
 10
2807.109375
 20
-4862.484375
 10
2816.625
 20
-4862.484375
 10
2826.140625
 20
-4862.484375
 10
2835.65625
 20
-4862.484375
 10
2845.171875
 20
-4862.484375
 10
2854.6875
 20
-4862.484375
 10
2864.203125
 20
-4862.484375
 10
2873.71875
 20
-4862.484375
 10
2883.234375
 20
-4862.484375
 10
2892.75
 20
-4862.484375
 10
2902.265625
 20
-4862.484375
 10
2911.78125
 20
-4862.484375
 10
2921.296875
 20
-4862.484375
 10
2930.8125
 20
-4862.484375
 10
2940.328125
 20
-4862.484375
 10
2949.84375
 20
-4862.484375
 10
2959.359375
 20
-4862.484375
 10
2968.875
 20
-4862.484375
 10
2978.390625
 20
-4862.484375
 10
2987.90625
 20
-4862.484375
 10
2997.421875
 20
-4862.484375
 10
3006.9375
 20
-4862.484375
 10
3016.453125
 20
-4862.484375
 10
3025.96875
 20
-4862.484375
 10
3035.484375
 20
-4862.484375
 10
3045.0
 20
-4862.484375
 10
3054.515625
 20
-4862.484375
 10
3064.03125
 20
-4862.484375
 10
3073.546875
 20
-4862.484375
 10
3083.0625
 20
-4862.484375
 10
3092.578125
 20
-4862.484375
 10
3102.09375
 20
-4862.484375
 10
3111.609375
 20
-4862.484375
 10
3121.125
 20
-4862.484375
 10
3130.640625
 20
-4862.484375
 10
3140.15625
 20
-4862.484375
 10
3149.671875
 20
-4862.484375
 10
3159.1875
 20
-4862.484375
 10
3168.703125
 20
-4862.484375
 10
3178.21875
 20
-4862.484375
 10
3187.734375
 20
-4862.484375
 10
3197.25
 20
-4862.484375
 10
3206.765625
 20
-4862.484375
 10
3216.28125
 20
-4862.484375
 10
3225.796875
 20
-4862.484375
 10
3235.3125
 20
-4862.484375
 10
3244.828125
 20
-4862.484375
 10
3254.34375
 20
-4862.484375
 10
3263.859375
 20
-4862.484375
 10
3273.375
 20
-4862.484375
 10
3282.890625
 20
-4862.484375
 10
3292.40625
 20
-4862.484375
 10
3301.921875
 20
-4862.484375
 10
3311.4375
 20
-4862.484375
 10
3320.953125
 20
-4862.484375
 10
3330.46875
 20
-4862.484375
 10
3339.984375
 20
-4862.484375
 10
3349.5
 20
-4862.484375
 10
3359.015625
 20
-4862.484375
 10
3368.53125
 20
-4862.484375
 10
3378.046875
 20
-4862.484375
 10
3387.5625
 20
-4862.484375
 10
3397.078125
 20
-4862.484375
 10
3406.59375
 20
-4862.484375
 10
3416.109375
 20
-4862.484375
 10
3425.625
 20
-4862.484375
 10
3435.140625
 20
-4862.484375
 10
3444.65625
 20
-4862.484375
 10
3454.171875
 20
-4862.484375
 10
3463.6875
 20
-4862.484375
 10
3473.203125
 20
-4862.484375
 10
3482.71875
 20
-4862.484375
 10
3492.234375
 20
-4862.484375
 10
3501.75
 20
-4862.484375
 10
3511.265625
 20
-4862.484375
 10
3520.78125
 20
-4862.484375
 10
3530.296875
 20
-4862.484375
 10
3539.8125
 20
-4862.484375
 10
3549.328125
 20
-4862.484375
 10
3558.84375
 20
-4862.484375
 10
3568.359375
 20
-4862.484375
 10
3577.875
 20
-4862.484375
 10
3587.390625
 20
-4862.484375
 10
3596.90625
 20
-4862.484375
 10
3606.421875
 20
-4862.484375
 10
3615.9375
 20
-4862.484375
 10
3625.453125
 20
-4862.484375
 10
3634.96875
 20
-4862.484375
 10
3644.484375
 20
-4862.484375
 10
3654.0
 20
-4862.484375
 10
3663.515625
 20
-4862.484375
 10
3673.03125
 20
-4862.484375
 10
3682.546875
 20
-4862.484375
 10
3692.0625
 20
-4862.484375
 10
3701.578125
 20
-4862.484375
 10
3711.09375
 20
-4862.484375
 10
3720.609375
 20
-4862.484375
 10
3730.125
 20
-4862.484375
 10
3739.640625
 20
-4862.484375
 10
3749.15625
 20
-4862.484375
 10
3758.671875
 20
-4862.484375
 10
3768.1875
 20
-4862.484375
 10
3777.703125
 20
-4862.484375
 10
3787.21875
 20
-4862.484375
 10
3796.734375
 20
-4862.484375
 10
3806.25
 20
-4862.484375
 10
3815.765625
 20
-4862.484375
 10
3825.28125
 20
-4862.484375
 10
3834.796875
 20
-4862.484375
 10
3844.3125
 20
-4862.484375
 10
3853.828125
 20
-4862.484375
 10
3863.34375
 20
-4862.484375
 10
3872.859375
 20
-4862.484375
 10
3882.375
 20
-4862.484375
 10
3891.890625
 20
-4862.484375
 10
3901.40625
 20
-4862.484375
 10
3910.921875
 20
-4862.484375
 10
3920.4375
 20
-4862.484375
 10
3929.953125
 20
-4862.484375
 10
3939.46875
 20
-4862.484375
 10
3948.984375
 20
-4862.484375
 10
3958.5
 20
-4862.484375
 10
3968.015625
 20
-4862.484375
 10
3977.53125
 20
-4862.484375
 10
3987.046875
 20
-4862.484375
 10
3996.5625
 20
-4862.484375
 10
4006.078125
 20
-4862.484375
 10
4015.59375
 20
-4862.484375
 10
4025.109375
 20
-4862.484375
 10
4034.625
 20
-4862.484375
 10
4044.140625
 20
-4862.484375
 10
4053.65625
 20
-4862.484375
 10
4063.171875
 20
-4862.484375
 10
4072.6875
 20
-4862.484375
 10
4082.203125
 20
-4862.484375
 10
4091.71875
 20
-4862.484375
 10
4101.234375
 20
-4862.484375
 10
4110.75
 20
-4862.484375
 10
4120.265625
 20
-4862.484375
 10
4129.78125
 20
-4862.484375
 10
4139.296875
 20
-4862.484375
 10
4148.8125
 20
-4862.484375
 10
4158.328125
 20
-4862.484375
 10
4167.84375
 20
-4862.484375
 10
4177.359375
 20
-4862.484375
 10
4186.875
 20
-4862.484375
 10
4196.390625
 20
-4862.484375
 10
4205.90625
 20
-4862.484375
 10
4215.421875
 20
-4862.484375
 10
4224.9375
 20
-4862.484375
 10
4234.453125
 20
-4862.484375
 10
4243.96875
 20
-4862.484375
 10
4253.484375
 20
-4862.484375
 10
4263.0
 20
-4862.484375
 10
4272.515625
 20
-4862.484375
 10
4282.03125
 20
-4862.484375
 10
4291.546875
 20
-4862.484375
 10
4301.0625
 20
-4862.484375
 10
4310.578125
 20
-4862.484375
 10
4320.09375
 20
-4862.484375
 10
4329.609375
 20
-4862.484375
 10
4339.125
 20
-4862.484375
 10
4348.640625
 20
-4862.484375
 10
4358.15625
 20
-4862.484375
 10
4367.671875
 20
-4862.484375
 10
4377.1875
 20
-4862.484375
 10
4386.703125
 20
-4862.484375
 10
4396.21875
 20
-4862.484375
 10
4405.734375
 20
-4862.484375
 10
4415.25
 20
-4862.484375
 10
4424.765625
 20
-4862.484375
 10
4434.28125
 20
-4862.484375
 10
4443.796875
 20
-4862.484375
 10
4453.3125
 20
-4862.484375
 10
4462.828125
 20
-4862.484375
 10
4472.34375
 20
-4862.484375
 10
4481.859375
 20
-4862.484375
 10
4491.375
 20
-4862.484375
 10
4500.890625
 20
-4862.484375
 10
4510.40625
 20
-4862.484375
 10
4519.921875
 20
-4862.484375
 10
4529.4375
 20
-4862.484375
 10
4538.953125
 20
-4862.484375
 10
4548.46875
 20
-4862.484375
 10
4557.984375
 20
-4862.484375
 10
4567.5
 20
-4862.484375
 10
4577.015625
 20
-4862.484375
 10
4586.53125
 20
-4862.484375
 10
4596.046875
 20
-4862.484375
 10
4605.5625
 20
-4862.484375
 10
4615.078125
 20
-4862.484375
 10
4624.59375
 20
-4862.484375
 10
4634.109375
 20
-4862.484375
 10
4643.625
 20
-4862.484375
 10
4653.140625
 20
-4862.484375
 10
4662.65625
 20
-4862.484375
 10
4672.171875
 20
-4862.484375
 10
4681.6875
 20
-4862.484375
 10
4691.203125
 20
-4862.484375
 10
4700.71875
 20
-4862.484375
 10
4710.234375
 20
-4862.484375
 10
4719.75
 20
-4862.484375
 10
4729.265625
 20
-4862.484375
 10
4738.78125
 20
-4862.484375
 10
4748.296875
 20
-4862.484375
 10
4757.8125
 20
-4862.484375
 10
4767.328125
 20
-4862.484375
 10
4776.84375
 20
-4862.484375
 10
4786.359375
 20
-4862.484375
 10
4795.875
 20
-4862.484375
 10
4805.390625
 20
-4862.484375
 10
4814.90625
 20
-4862.484375
 10
4824.421875
 20
-4862.484375
 10
4833.9375
 20
-4862.484375
 10
4843.453125
 20
-4862.484375
 10
4852.96875
 20
-4862.484375
 10
4862.484375
 20
-4862.484375
 10
4862.484375
 20
-4852.96875
 10
4862.484375
 20
-4843.453125
 10
4862.484375
 20
-4833.9375
 10
4862.484375
 20
-4824.421875
 10
4862.484375
 20
-4814.90625
 10
4862.484375
 20
-4805.390625
 10
4862.484375
 20
-4795.875
 10
4862.484375
 20
-4786.359375
 10
4862.484375
 20
-4776.84375
 10
4862.484375
 20
-4767.328125
 10
4862.484375
 20
-4757.8125
 10
4862.484375
 20
-4748.296875
 10
4862.484375
 20
-4738.78125
 10
4862.484375
 20
-4729.265625
 10
4862.484375
 20
-4719.75
 10
4862.484375
 20
-4710.234375
 10
4862.484375
 20
-4700.71875
 10
4862.484375
 20
-4691.203125
 10
4862.484375
 20
-4681.6875
 10
4862.484375
 20
-4672.171875
 10
4862.484375
 20
-4662.65625
 10
4862.484375
 20
-4653.140625
 10
4862.484375
 20
-4643.625
 10
4862.484375
 20
-4634.109375
 10
4862.484375
 20
-4624.59375
 10
4862.484375
 20
-4615.078125
 10
4862.484375
 20
-4605.5625
 10
4862.484375
 20
-4596.046875
 10
4862.484375
 20
-4586.53125
 10
4862.484375
 20
-4577.015625
 10
4862.484375
 20
-4567.5
 10
4862.484375
 20
-4557.984375
 10
4862.484375
 20
-4548.46875
 10
4862.484375
 20
-4538.953125
 10
4862.484375
 20
-4529.4375
 10
4862.484375
 20
-4519.921875
 10
4862.484375
 20
-4510.40625
 10
4862.484375
 20
-4500.890625
 10
4862.484375
 20
-4491.375
 10
4862.484375
 20
-4481.859375
 10
4862.484375
 20
-4472.34375
 10
4862.484375
 20
-4462.828125
 10
4862.484375
 20
-4453.3125
 10
4862.484375
 20
-4443.796875
 10
4862.484375
 20
-4434.28125
 10
4862.484375
 20
-4424.765625
 10
4862.484375
 20
-4415.25
 10
4862.484375
 20
-4405.734375
 10
4862.484375
 20
-4396.21875
 10
4862.484375
 20
-4386.703125
 10
4862.484375
 20
-4377.1875
 10
4862.484375
 20
-4367.671875
 10
4862.484375
 20
-4358.15625
 10
4862.484375
 20
-4348.640625
 10
4862.484375
 20
-4339.125
 10
4862.484375
 20
-4329.609375
 10
4862.484375
 20
-4320.09375
 10
4862.484375
 20
-4310.578125
 10
4862.484375
 20
-4301.0625
 10
4862.484375
 20
-4291.546875
 10
4862.484375
 20
-4282.03125
 10
4862.484375
 20
-4272.515625
 10
4862.484375
 20
-4263.0
 10
4862.484375
 20
-4253.484375
 10
4862.484375
 20
-4243.96875
 10
4862.484375
 20
-4234.453125
 10
4862.484375
 20
-4224.9375
 10
4862.484375
 20
-4215.421875
 10
4862.484375
 20
-4205.90625
 10
4862.484375
 20
-4196.390625
 10
4862.484375
 20
-4186.875
 10
4862.484375
 20
-4177.359375
 10
4862.484375
 20
-4167.84375
 10
4862.484375
 20
-4158.328125
 10
4862.484375
 20
-4148.8125
 10
4862.484375
 20
-4139.296875
 10
4862.484375
 20
-4129.78125
 10
4862.484375
 20
-4120.265625
 10
4862.484375
 20
-4110.75
 10
4862.484375
 20
-4101.234375
 10
4862.484375
 20
-4091.71875
 10
4862.484375
 20
-4082.203125
 10
4862.484375
 20
-4072.6875
 10
4862.484375
 20
-4063.171875
 10
4862.484375
 20
-4053.65625
 10
4862.484375
 20
-4044.140625
 10
4862.484375
 20
-4034.625
 10
4862.484375
 20
-4025.109375
 10
4862.484375
 20
-4015.59375
 10
4862.484375
 20
-4006.078125
 10
4862.484375
 20
-3996.5625
 10
4862.484375
 20
-3987.046875
 10
4862.484375
 20
-3977.53125
 10
4862.484375
 20
-3968.015625
 10
4862.484375
 20
-3958.5
 10
4862.484375
 20
-3948.984375
 10
4862.484375
 20
-3939.46875
 10
4862.484375
 20
-3929.953125
 10
4862.484375
 20
-3920.4375
 10
4862.484375
 20
-3910.921875
 10
4862.484375
 20
-3901.40625
 10
4862.484375
 20
-3891.890625
 10
4862.484375
 20
-3882.375
 10
4862.484375
 20
-3872.859375
 10
4862.484375
 20
-3863.34375
 10
4862.484375
 20
-3853.828125
 10
4862.484375
 20
-3844.3125
 10
4862.484375
 20
-3834.796875
 10
4862.484375
 20
-3825.28125
 10
4862.484375
 20
-3815.765625
 10
4862.484375
 20
-3806.25
 10
4862.484375
 20
-3796.734375
 10
4862.484375
 20
-3787.21875
 10
4862.484375
 20
-3777.703125
 10
4862.484375
 20
-3768.1875
 10
4862.484375
 20
-3758.671875
 10
4862.484375
 20
-3749.15625
 10
4862.484375
 20
-3739.640625
 10
4862.484375
 20
-3730.125
 10
4862.484375
 20
-3720.609375
 10
4862.484375
 20
-3711.09375
 10
4862.484375
 20
-3701.578125
 10
4862.484375
 20
-3692.0625
 10
4862.484375
 20
-3682.546875
 10
4862.484375
 20
-3673.03125
 10
4862.484375
 20
-3663.515625
 10
4862.484375
 20
-3654.0
 10
4862.484375
 20
-3644.484375
 10
4862.484375
 20
-3634.96875
 10
4862.484375
 20
-3625.453125
 10
4862.484375
 20
-3615.9375
 10
4862.484375
 20
-3606.421875
 10
4862.484375
 20
-3596.90625
 10
4862.484375
 20
-3587.390625
 10
4862.484375
 20
-3577.875
 10
4862.484375
 20
-3568.359375
 10
4862.484375
 20
-3558.84375
 10
4862.484375
 20
-3549.328125
 10
4862.484375
 20
-3539.8125
 10
4862.484375
 20
-3530.296875
 10
4862.484375
 20
-3520.78125
 10
4862.484375
 20
-3511.265625
 10
4862.484375
 20
-3501.75
 10
4862.484375
 20
-3492.234375
 10
4862.484375
 20
-3482.71875
 10
4862.484375
 20
-3473.203125
 10
4862.484375
 20
-3463.6875
 10
4862.484375
 20
-3454.171875
 10
4862.484375
 20
-3444.65625
 10
4862.484375
 20
-3435.140625
 10
4862.484375
 20
-3425.625
 10
4862.484375
 20
-3416.109375
 10
4862.484375
 20
-3406.59375
 10
4862.484375
 20
-3397.078125
 10
4862.484375
 20
-3387.5625
 10
4862.484375
 20
-3378.046875
 10
4862.484375
 20
-3368.53125
 10
4862.484375
 20
-3359.015625
 10
4862.484375
 20
-3349.5
 10
4862.484375
 20
-3339.984375
 10
4862.484375
 20
-3330.46875
 10
4862.484375
 20
-3320.953125
 10
4862.484375
 20
-3311.4375
 10
4862.484375
 20
-3301.921875
 10
4862.484375
 20
-3292.40625
 10
4862.484375
 20
-3282.890625
 10
4862.484375
 20
-3273.375
 10
4862.484375
 20
-3263.859375
 10
4862.484375
 20
-3254.34375
 10
4862.484375
 20
-3244.828125
 10
4862.484375
 20
-3235.3125
 10
4862.484375
 20
-3225.796875
 10
4862.484375
 20
-3216.28125
 10
4862.484375
 20
-3206.765625
 10
4862.484375
 20
-3197.25
 10
4862.484375
 20
-3187.734375
 10
4862.484375
 20
-3178.21875
 10
4862.484375
 20
-3168.703125
 10
4862.484375
 20
-3159.1875
 10
4862.484375
 20
-3149.671875
 10
4862.484375
 20
-3140.15625
 10
4862.484375
 20
-3130.640625
 10
4862.484375
 20
-3121.125
 10
4862.484375
 20
-3111.609375
 10
4862.484375
 20
-3102.09375
 10
4862.484375
 20
-3092.578125
 10
4862.484375
 20
-3083.0625
 10
4862.484375
 20
-3073.546875
 10
4862.484375
 20
-3064.03125
 10
4862.484375
 20
-3054.515625
 10
4862.484375
 20
-3045.0
 10
4862.484375
 20
-3035.484375
 10
4862.484375
 20
-3025.96875
 10
4862.484375
 20
-3016.453125
 10
4862.484375
 20
-3006.9375
 10
4862.484375
 20
-2997.421875
 10
4862.484375
 20
-2987.90625
 10
4862.484375
 20
-2978.390625
 10
4862.484375
 20
-2968.875
 10
4862.484375
 20
-2959.359375
 10
4862.484375
 20
-2949.84375
 10
4862.484375
 20
-2940.328125
 10
4862.484375
 20
-2930.8125
 10
4862.484375
 20
-2921.296875
 10
4862.484375
 20
-2911.78125
 10
4862.484375
 20
-2902.265625
 10
4862.484375
 20
-2892.75
 10
4862.484375
 20
-2883.234375
 10
4862.484375
 20
-2873.71875
 10
4862.484375
 20
-2864.203125
 10
4862.484375
 20
-2854.6875
 10
4862.484375
 20
-2845.171875
 10
4862.484375
 20
-2835.65625
 10
4862.484375
 20
-2826.140625
 10
4862.484375
 20
-2816.625
 10
4862.484375
 20
-2807.109375
 10
4862.484375
 20
-2797.59375
 10
4862.484375
 20
-2788.078125
 10
4862.484375
 20
-2778.5625
 10
4862.484375
 20
-2769.046875
 10
4862.484375
 20
-2759.53125
 10
4862.484375
 20
-2750.015625
 10
4862.484375
 20
-2740.5
 10
4862.484375
 20
-2730.984375
 10
4862.484375
 20
-2721.46875
 10
4862.484375
 20
-2711.953125
 10
4862.484375
 20
-2702.4375
 10
4862.484375
 20
-2692.921875
 10
4862.484375
 20
-2683.40625
 10
4862.484375
 20
-2673.890625
 10
4862.484375
 20
-2664.375
 10
4862.484375
 20
-2654.859375
 10
4862.484375
 20
-2645.34375
 10
4862.484375
 20
-2635.828125
 10
4862.484375
 20
-2626.3125
 10
4862.484375
 20
-2616.796875
 10
4862.484375
 20
-2607.28125
 10
4862.484375
 20
-2597.765625
 10
4862.484375
 20
-2588.25
 10
4862.484375
 20
-2578.734375
 10
4862.484375
 20
-2569.21875
 10
4862.484375
 20
-2559.703125
 10
4862.484375
 20
-2550.1875
 10
4862.484375
 20
-2540.671875
 10
4862.484375
 20
-2531.15625
 10
4862.484375
 20
-2521.640625
 10
4862.484375
 20
-2512.125
 10
4862.484375
 20
-2502.609375
 10
4862.484375
 20
-2493.09375
 10
4862.484375
 20
-2483.578125
 10
4862.484375
 20
-2474.0625
 10
4862.484375
 20
-2464.546875
 10
4862.484375
 20
-2455.03125
 10
4862.484375
 20
-2445.515625
 10
4862.484375
 20
-2436.0
 10
4862.484375
 20
-2426.484375
 10
4862.484375
 20
-2416.96875
 10
4862.484375
 20
-2407.453125
 10
4862.484375
 20
-2397.9375
 10
4862.484375
 20
-2388.421875
 10
4862.484375
 20
-2378.90625
 10
4862.484375
 20
-2369.390625
 10
4862.484375
 20
-2359.875
 10
4862.484375
 20
-2350.359375
 10
4862.484375
 20
-2340.84375
 10
4862.484375
 20
-2331.328125
 10
4862.484375
 20
-2321.8125
 10
4862.484375
 20
-2312.296875
 10
4862.484375
 20
-2302.78125
 10
4862.484375
 20
-2293.265625
 10
4862.484375
 20
-2283.75
 10
4862.484375
 20
-2274.234375
 10
4862.484375
 20
-2264.71875
 10
4862.484375
 20
-2255.203125
 10
4862.484375
 20
-2245.6875
 10
4862.484375
 20
-2236.171875
 10
4862.484375
 20
-2226.65625
 10
4862.484375
 20
-2217.140625
 10
4862.484375
 20
-2207.625
 10
4862.484375
 20
-2198.109375
 10
4862.484375
 20
-2188.59375
 10
4862.484375
 20
-2179.078125
 10
4862.484375
 20
-2169.5625
 10
4862.484375
 20
-2160.046875
 10
4862.484375
 20
-2150.53125
 10
4862.484375
 20
-2141.015625
 10
4862.484375
 20
-2131.5
 10
4862.484375
 20
-2121.984375
 10
4862.484375
 20
-2112.46875
 10
4862.484375
 20
-2102.953125
 10
4862.484375
 20
-2093.4375
 10
4862.484375
 20
-2083.921875
 10
4862.484375
 20
-2074.40625
 10
4862.484375
 20
-2064.890625
 10
4862.484375
 20
-2055.375
 10
4862.484375
 20
-2045.859375
 10
4862.484375
 20
-2036.34375
 10
4862.484375
 20
-2026.828125
 10
4862.484375
 20
-2017.3125
 10
4862.484375
 20
-2007.796875
 10
4862.484375
 20
-1998.28125
 10
4862.484375
 20
-1988.765625
 10
4862.484375
 20
-1979.25
 10
4862.484375
 20
-1969.734375
 10
4862.484375
 20
-1960.21875
 10
4862.484375
 20
-1950.703125
 10
4862.484375
 20
-1941.1875
 10
4862.484375
 20
-1931.671875
 10
4862.484375
 20
-1922.15625
 10
4862.484375
 20
-1912.640625
 10
4862.484375
 20
-1903.125
 10
4862.484375
 20
-1893.609375
 10
4862.484375
 20
-1884.09375
 10
4862.484375
 20
-1874.578125
 10
4862.484375
 20
-1865.0625
 10
4862.484375
 20
-1855.546875
 10
4862.484375
 20
-1846.03125
 10
4862.484375
 20
-1836.515625
 10
4862.484375
 20
-1827.0
 10
4862.484375
 20
-1817.484375
 10
4862.484375
 20
-1807.96875
 10
4862.484375
 20
-1798.453125
 10
4862.484375
 20
-1788.9375
 10
4862.484375
 20
-1779.421875
 10
4862.484375
 20
-1769.90625
 10
4862.484375
 20
-1760.390625
 10
4862.484375
 20
-1750.875
 10
4862.484375
 20
-1741.359375
 10
4862.484375
 20
-1731.84375
 10
4862.484375
 20
-1722.328125
 10
4862.484375
 20
-1712.8125
 10
4862.484375
 20
-1703.296875
 10
4862.484375
 20
-1693.78125
 10
4862.484375
 20
-1684.265625
 10
4862.484375
 20
-1674.75
 10
4862.484375
 20
-1665.234375
 10
4862.484375
 20
-1655.71875
 10
4862.484375
 20
-1646.203125
 10
4862.484375
 20
-1636.6875
 10
4862.484375
 20
-1627.171875
 10
4862.484375
 20
-1617.65625
 10
4862.484375
 20
-1608.140625
 10
4862.484375
 20
-1598.625
 10
4862.484375
 20
-1589.109375
 10
4862.484375
 20
-1579.59375
 10
4862.484375
 20
-1570.078125
 10
4862.484375
 20
-1560.5625
 10
4862.484375
 20
-1551.046875
 10
4862.484375
 20
-1541.53125
 10
4862.484375
 20
-1532.015625
 10
4862.484375
 20
-1522.5
 10
4862.484375
 20
-1512.984375
 10
4862.484375
 20
-1503.46875
 10
4862.484375
 20
-1493.953125
 10
4862.484375
 20
-1484.4375
 10
4862.484375
 20
-1474.921875
 10
4862.484375
 20
-1465.40625
 10
4862.484375
 20
-1455.890625
 10
4862.484375
 20
-1446.375
 10
4862.484375
 20
-1436.859375
 10
4862.484375
 20
-1427.34375
 10
4862.484375
 20
-1417.828125
 10
4862.484375
 20
-1408.3125
 10
4862.484375
 20
-1398.796875
 10
4862.484375
 20
-1389.28125
 10
4862.484375
 20
-1379.765625
 10
4862.484375
 20
-1370.25
 10
4862.484375
 20
-1360.734375
 10
4862.484375
 20
-1351.21875
 10
4862.484375
 20
-1341.703125
 10
4862.484375
 20
-1332.1875
 10
4862.484375
 20
-1322.671875
 10
4862.484375
 20
-1313.15625
 10
4862.484375
 20
-1303.640625
 10
4862.484375
 20
-1294.125
 10
4862.484375
 20
-1284.609375
 10
4862.484375
 20
-1275.09375
 10
4862.484375
 20
-1265.578125
 10
4862.484375
 20
-1256.0625
 10
4862.484375
 20
-1246.546875
 10
4862.484375
 20
-1237.03125
 10
4862.484375
 20
-1227.515625
 10
4862.484375
 20
-1218.0
 10
4862.484375
 20
-1208.484375
 10
4862.484375
 20
-1198.96875
 10
4862.484375
 20
-1189.453125
 10
4862.484375
 20
-1179.9375
 10
4862.484375
 20
-1170.421875
 10
4862.484375
 20
-1160.90625
 10
4862.484375
 20
-1151.390625
 10
4862.484375
 20
-1141.875
 10
4862.484375
 20
-1132.359375
 10
4862.484375
 20
-1122.84375
 10
4862.484375
 20
-1113.328125
 10
4862.484375
 20
-1103.8125
 10
4862.484375
 20
-1094.296875
 10
4862.484375
 20
-1084.78125
 10
4862.484375
 20
-1075.265625
 10
4862.484375
 20
-1065.75
 10
4862.484375
 20
-1056.234375
 10
4862.484375
 20
-1046.71875
 10
4862.484375
 20
-1037.203125
 10
4862.484375
 20
-1027.6875
 10
4862.484375
 20
-1018.171875
 10
4862.484375
 20
-1008.65625
 10
4862.484375
 20
-999.140625
 10
4862.484375
 20
-989.625
 10
4862.484375
 20
-980.109375
 10
4862.484375
 20
-970.59375
 10
4862.484375
 20
-961.078125
 10
4862.484375
 20
-951.5625
 10
4862.484375
 20
-942.046875
 10
4862.484375
 20
-932.53125
 10
4862.484375
 20
-923.015625
 10
4862.484375
 20
-913.5
 10
4862.484375
 20
-903.984375
 10
4862.484375
 20
-894.46875
 10
4862.484375
 20
-884.953125
 10
4862.484375
 20
-875.4375
 10
4862.484375
 20
-865.921875
 10
4862.484375
 20
-856.40625
 10
4862.484375
 20
-846.890625
 10
4862.484375
 20
-837.375
 10
4862.484375
 20
-827.859375
 10
4862.484375
 20
-818.34375
 10
4862.484375
 20
-808.828125
 10
4862.484375
 20
-799.3125
 10
4862.484375
 20
-789.796875
 10
4862.484375
 20
-780.28125
 10
4862.484375
 20
-770.765625
 10
4862.484375
 20
-761.25
 10
4862.484375
 20
-751.734375
 10
4862.484375
 20
-742.21875
 10
4862.484375
 20
-732.703125
 10
4862.484375
 20
-723.1875
 10
4862.484375
 20
-713.671875
 10
4862.484375
 20
-704.15625
 10
4862.484375
 20
-694.640625
 10
4862.484375
 20
-685.125
 10
4862.484375
 20
-675.609375
 10
4862.484375
 20
-666.09375
 10
4862.484375
 20
-656.578125
 10
4862.484375
 20
-647.0625
 10
4862.484375
 20
-637.546875
 10
4862.484375
 20
-628.03125
 10
4862.484375
 20
-618.515625
 10
4862.484375
 20
-609.0
 10
4862.484375
 20
-599.484375
 10
4862.484375
 20
-589.96875
 10
4862.484375
 20
-580.453125
 10
4862.484375
 20
-570.9375
 10
4862.484375
 20
-561.421875
 10
4862.484375
 20
-551.90625
 10
4862.484375
 20
-542.390625
 10
4862.484375
 20
-532.875
 10
4862.484375
 20
-523.359375
 10
4862.484375
 20
-513.84375
 10
4862.484375
 20
-504.328125
 10
4862.484375
 20
-494.8125
 10
4862.484375
 20
-485.296875
 10
4862.484375
 20
-475.78125
 10
4862.484375
 20
-466.265625
 10
4862.484375
 20
-456.75
 10
4862.484375
 20
-447.234375
 10
4862.484375
 20
-437.71875
 10
4862.484375
 20
-428.203125
 10
4862.484375
 20
-418.6875
 10
4862.484375
 20
-409.171875
 10
4862.484375
 20
-399.65625
 10
4862.484375
 20
-390.140625
 10
4862.484375
 20
-380.625
 10
4862.484375
 20
-371.109375
 10
4862.484375
 20
-361.59375
 10
4862.484375
 20
-352.078125
 10
4862.484375
 20
-342.5625
 10
4862.484375
 20
-333.046875
 10
4862.484375
 20
-323.53125
 10
4862.484375
 20
-314.015625
 10
4862.484375
 20
-304.5
 10
4862.484375
 20
-294.984375
 10
4862.484375
 20
-285.46875
 10
4862.484375
 20
-275.953125
 10
4862.484375
 20
-266.4375
 10
4862.484375
 20
-256.921875
 10
4862.484375
 20
-247.40625
 10
4862.484375
 20
-237.890625
 10
4862.484375
 20
-228.375
 10
4862.484375
 20
-218.859375
 10
4862.484375
 20
-209.34375
 10
4862.484375
 20
-199.828125
 10
4862.484375
 20
-190.3125
 10
4862.484375
 20
-180.796875
 10
4862.484375
 20
-171.28125
 10
4862.484375
 20
-161.765625
 10
4862.484375
 20
-152.25
 10
4862.484375
 20
-142.734375
 10
4862.484375
 20
-133.21875
 10
4862.484375
 20
-123.703125
 10
4862.484375
 20
-114.1875
 10
4862.484375
 20
-104.671875
 10
4862.484375
 20
-95.15625
 10
4862.484375
 20
-85.640625
 10
4862.484375
 20
-76.125
 10
4862.484375
 20
-66.609375
 10
4862.484375
 20
-57.09375
 10
4862.484375
 20
-47.578125
 10
4862.484375
 20
-38.0625
 10
4862.484375
 20
-28.546875
 10
4862.484375
 20
-19.03125
 10
4862.484375
 20
-9.515625
 10
4862.484375
 20
-0.0
 10
4852.96875
 20
-0.0
 10
4843.453125
 20
-0.0
 10
4833.9375
 20
-0.0
 10
4824.421875
 20
-0.0
 10
4814.90625
 20
-0.0
 10
4805.390625
 20
-0.0
 10
4795.875
 20
-0.0
 10
4786.359375
 20
-0.0
 10
4776.84375
 20
-0.0
 10
4767.328125
 20
-0.0
 10
4757.8125
 20
-0.0
 10
4748.296875
 20
-0.0
 10
4738.78125
 20
-0.0
 10
4729.265625
 20
-0.0
 10
4719.75
 20
-0.0
 10
4710.234375
 20
-0.0
 10
4700.71875
 20
-0.0
 10
4691.203125
 20
-0.0
 10
4681.6875
 20
-0.0
 10
4672.171875
 20
-0.0
 10
4662.65625
 20
-0.0
 10
4653.140625
 20
-0.0
 10
4643.625
 20
-0.0
 10
4634.109375
 20
-0.0
 10
4624.59375
 20
-0.0
 10
4615.078125
 20
-0.0
 10
4605.5625
 20
-0.0
 10
4596.046875
 20
-0.0
 10
4586.53125
 20
-0.0
 10
4577.015625
 20
-0.0
 10
4567.5
 20
-0.0
 10
4557.984375
 20
-0.0
 10
4548.46875
 20
-0.0
 10
4538.953125
 20
-0.0
 10
4529.4375
 20
-0.0
 10
4519.921875
 20
-0.0
 10
4510.40625
 20
-0.0
 10
4500.890625
 20
-0.0
 10
4491.375
 20
-0.0
 10
4481.859375
 20
-0.0
 10
4472.34375
 20
-0.0
 10
4462.828125
 20
-0.0
 10
4453.3125
 20
-0.0
 10
4443.796875
 20
-0.0
 10
4434.28125
 20
-0.0
 10
4424.765625
 20
-0.0
 10
4415.25
 20
-0.0
 10
4405.734375
 20
-0.0
 10
4396.21875
 20
-0.0
 10
4386.703125
 20
-0.0
 10
4377.1875
 20
-0.0
 10
4367.671875
 20
-0.0
 10
4358.15625
 20
-0.0
 10
4348.640625
 20
-0.0
 10
4339.125
 20
-0.0
 10
4329.609375
 20
-0.0
 10
4320.09375
 20
-0.0
 10
4310.578125
 20
-0.0
 10
4301.0625
 20
-0.0
 10
4291.546875
 20
-0.0
 10
4282.03125
 20
-0.0
 10
4272.515625
 20
-0.0
 10
4263.0
 20
-0.0
 10
4253.484375
 20
-0.0
 10
4243.96875
 20
-0.0
 10
4234.453125
 20
-0.0
 10
4224.9375
 20
-0.0
 10
4215.421875
 20
-0.0
 10
4205.90625
 20
-0.0
 10
4196.390625
 20
-0.0
 10
4186.875
 20
-0.0
 10
4177.359375
 20
-0.0
 10
4167.84375
 20
-0.0
 10
4158.328125
 20
-0.0
 10
4148.8125
 20
-0.0
 10
4139.296875
 20
-0.0
 10
4129.78125
 20
-0.0
 10
4120.265625
 20
-0.0
 10
4110.75
 20
-0.0
 10
4101.234375
 20
-0.0
 10
4091.71875
 20
-0.0
 10
4082.203125
 20
-0.0
 10
4072.6875
 20
-0.0
 10
4063.171875
 20
-0.0
 10
4053.65625
 20
-0.0
 10
4044.140625
 20
-0.0
 10
4034.625
 20
-0.0
 10
4025.109375
 20
-0.0
 10
4015.59375
 20
-0.0
 10
4006.078125
 20
-0.0
 10
3996.5625
 20
-0.0
 10
3987.046875
 20
-0.0
 10
3977.53125
 20
-0.0
 10
3968.015625
 20
-0.0
 10
3958.5
 20
-0.0
 10
3948.984375
 20
-0.0
 10
3939.46875
 20
-0.0
 10
3929.953125
 20
-0.0
 10
3920.4375
 20
-0.0
 10
3910.921875
 20
-0.0
 10
3901.40625
 20
-0.0
 10
3891.890625
 20
-0.0
 10
3882.375
 20
-0.0
 10
3872.859375
 20
-0.0
 10
3863.34375
 20
-0.0
 10
3853.828125
 20
-0.0
 10
3844.3125
 20
-0.0
 10
3834.796875
 20
-0.0
 10
3825.28125
 20
-0.0
 10
3815.765625
 20
-0.0
 10
3806.25
 20
-0.0
 10
3796.734375
 20
-0.0
 10
3787.21875
 20
-0.0
 10
3777.703125
 20
-0.0
 10
3768.1875
 20
-0.0
 10
3758.671875
 20
-0.0
 10
3749.15625
 20
-0.0
 10
3739.640625
 20
-0.0
 10
3730.125
 20
-0.0
 10
3720.609375
 20
-0.0
 10
3711.09375
 20
-0.0
 10
3701.578125
 20
-0.0
 10
3692.0625
 20
-0.0
 10
3682.546875
 20
-0.0
 10
3673.03125
 20
-0.0
 10
3663.515625
 20
-0.0
 10
3654.0
 20
-0.0
 10
3644.484375
 20
-0.0
 10
3634.96875
 20
-0.0
 10
3625.453125
 20
-0.0
 10
3615.9375
 20
-0.0
 10
3606.421875
 20
-0.0
 10
3596.90625
 20
-0.0
 10
3587.390625
 20
-0.0
 10
3577.875
 20
-0.0
 10
3568.359375
 20
-0.0
 10
3558.84375
 20
-0.0
 10
3549.328125
 20
-0.0
 10
3539.8125
 20
-0.0
 10
3530.296875
 20
-0.0
 10
3520.78125
 20
-0.0
 10
3511.265625
 20
-0.0
 10
3501.75
 20
-0.0
 10
3492.234375
 20
-0.0
 10
3482.71875
 20
-0.0
 10
3473.203125
 20
-0.0
 10
3463.6875
 20
-0.0
 10
3454.171875
 20
-0.0
 10
3444.65625
 20
-0.0
 10
3435.140625
 20
-0.0
 10
3425.625
 20
-0.0
 10
3416.109375
 20
-0.0
 10
3406.59375
 20
-0.0
 10
3397.078125
 20
-0.0
 10
3387.5625
 20
-0.0
 10
3378.046875
 20
-0.0
 10
3368.53125
 20
-0.0
 10
3359.015625
 20
-0.0
 10
3349.5
 20
-0.0
 10
3339.984375
 20
-0.0
 10
3330.46875
 20
-0.0
 10
3320.953125
 20
-0.0
 10
3311.4375
 20
-0.0
 10
3301.921875
 20
-0.0
 10
3292.40625
 20
-0.0
 10
3282.890625
 20
-0.0
 10
3273.375
 20
-0.0
 10
3263.859375
 20
-0.0
 10
3254.34375
 20
-0.0
 10
3244.828125
 20
-0.0
 10
3235.3125
 20
-0.0
 10
3225.796875
 20
-0.0
 10
3216.28125
 20
-0.0
 10
3206.765625
 20
-0.0
 10
3197.25
 20
-0.0
 10
3187.734375
 20
-0.0
 10
3178.21875
 20
-0.0
 10
3168.703125
 20
-0.0
 10
3159.1875
 20
-0.0
 10
3149.671875
 20
-0.0
 10
3140.15625
 20
-0.0
 10
3130.640625
 20
-0.0
 10
3121.125
 20
-0.0
 10
3111.609375
 20
-0.0
 10
3102.09375
 20
-0.0
 10
3092.578125
 20
-0.0
 10
3083.0625
 20
-0.0
 10
3073.546875
 20
-0.0
 10
3064.03125
 20
-0.0
 10
3054.515625
 20
-0.0
 10
3045.0
 20
-0.0
 10
3035.484375
 20
-0.0
 10
3025.96875
 20
-0.0
 10
3016.453125
 20
-0.0
 10
3006.9375
 20
-0.0
 10
2997.421875
 20
-0.0
 10
2987.90625
 20
-0.0
 10
2978.390625
 20
-0.0
 10
2968.875
 20
-0.0
 10
2959.359375
 20
-0.0
 10
2949.84375
 20
-0.0
 10
2940.328125
 20
-0.0
 10
2930.8125
 20
-0.0
 10
2921.296875
 20
-0.0
 10
2911.78125
 20
-0.0
 10
2902.265625
 20
-0.0
 10
2892.75
 20
-0.0
 10
2883.234375
 20
-0.0
 10
2873.71875
 20
-0.0
 10
2864.203125
 20
-0.0
 10
2854.6875
 20
-0.0
 10
2845.171875
 20
-0.0
 10
2835.65625
 20
-0.0
 10
2826.140625
 20
-0.0
 10
2816.625
 20
-0.0
 10
2807.109375
 20
-0.0
 10
2797.59375
 20
-0.0
 10
2788.078125
 20
-0.0
 10
2778.5625
 20
-0.0
 10
2769.046875
 20
-0.0
 10
2759.53125
 20
-0.0
 10
2750.015625
 20
-0.0
 10
2740.5
 20
-0.0
 10
2730.984375
 20
-0.0
 10
2721.46875
 20
-0.0
 10
2711.953125
 20
-0.0
 10
2702.4375
 20
-0.0
 10
2692.921875
 20
-0.0
 10
2683.40625
 20
-0.0
 10
2673.890625
 20
-0.0
 10
2664.375
 20
-0.0
 10
2654.859375
 20
-0.0
 10
2645.34375
 20
-0.0
 10
2635.828125
 20
-0.0
 10
2626.3125
 20
-0.0
 10
2616.796875
 20
-0.0
 10
2607.28125
 20
-0.0
 10
2597.765625
 20
-0.0
 10
2588.25
 20
-0.0
 10
2578.734375
 20
-0.0
 10
2569.21875
 20
-0.0
 10
2559.703125
 20
-0.0
 10
2550.1875
 20
-0.0
 10
2540.671875
 20
-0.0
 10
2531.15625
 20
-0.0
 10
2521.640625
 20
-0.0
 10
2512.125
 20
-0.0
 10
2502.609375
 20
-0.0
 10
2493.09375
 20
-0.0
 10
2483.578125
 20
-0.0
 10
2474.0625
 20
-0.0
 10
2464.546875
 20
-0.0
 10
2455.03125
 20
-0.0
 10
2445.515625
 20
-0.0
 10
2436.0
 20
-0.0
 10
2426.484375
 20
-0.0
 10
2416.96875
 20
-0.0
 10
2407.453125
 20
-0.0
 10
2397.9375
 20
-0.0
 10
2388.421875
 20
-0.0
 10
2378.90625
 20
-0.0
 10
2369.390625
 20
-0.0
 10
2359.875
 20
-0.0
 10
2350.359375
 20
-0.0
 10
2340.84375
 20
-0.0
 10
2331.328125
 20
-0.0
 10
2321.8125
 20
-0.0
 10
2312.296875
 20
-0.0
 10
2302.78125
 20
-0.0
 10
2293.265625
 20
-0.0
 10
2283.75
 20
-0.0
 10
2274.234375
 20
-0.0
 10
2264.71875
 20
-0.0
 10
2255.203125
 20
-0.0
 10
2245.6875
 20
-0.0
 10
2236.171875
 20
-0.0
 10
2226.65625
 20
-0.0
 10
2217.140625
 20
-0.0
 10
2207.625
 20
-0.0
 10
2198.109375
 20
-0.0
 10
2188.59375
 20
-0.0
 10
2179.078125
 20
-0.0
 10
2169.5625
 20
-0.0
 10
2160.046875
 20
-0.0
 10
2150.53125
 20
-0.0
 10
2141.015625
 20
-0.0
 10
2131.5
 20
-0.0
 10
2121.984375
 20
-0.0
 10
2112.46875
 20
-0.0
 10
2102.953125
 20
-0.0
 10
2093.4375
 20
-0.0
 10
2083.921875
 20
-0.0
 10
2074.40625
 20
-0.0
 10
2064.890625
 20
-0.0
 10
2055.375
 20
-0.0
 10
2045.859375
 20
-0.0
 10
2036.34375
 20
-0.0
 10
2026.828125
 20
-0.0
 10
2017.3125
 20
-0.0
 10
2007.796875
 20
-0.0
 10
1998.28125
 20
-0.0
 10
1988.765625
 20
-0.0
 10
1979.25
 20
-0.0
 10
1969.734375
 20
-0.0
 10
1960.21875
 20
-0.0
 10
1950.703125
 20
-0.0
 10
1941.1875
 20
-0.0
 10
1931.671875
 20
-0.0
 10
1922.15625
 20
-0.0
 10
1912.640625
 20
-0.0
 10
1903.125
 20
-0.0
 10
1893.609375
 20
-0.0
 10
1884.09375
 20
-0.0
 10
1874.578125
 20
-0.0
 10
1865.0625
 20
-0.0
 10
1855.546875
 20
-0.0
 10
1846.03125
 20
-0.0
 10
1836.515625
 20
-0.0
 10
1827.0
 20
-0.0
 10
1817.484375
 20
-0.0
 10
1807.96875
 20
-0.0
 10
1798.453125
 20
-0.0
 10
1788.9375
 20
-0.0
 10
1779.421875
 20
-0.0
 10
1769.90625
 20
-0.0
 10
1760.390625
 20
-0.0
 10
1750.875
 20
-0.0
 10
1741.359375
 20
-0.0
 10
1731.84375
 20
-0.0
 10
1722.328125
 20
-0.0
 10
1712.8125
 20
-0.0
 10
1703.296875
 20
-0.0
 10
1693.78125
 20
-0.0
 10
1684.265625
 20
-0.0
 10
1674.75
 20
-0.0
 10
1665.234375
 20
-0.0
 10
1655.71875
 20
-0.0
 10
1646.203125
 20
-0.0
 10
1636.6875
 20
-0.0
 10
1627.171875
 20
-0.0
 10
1617.65625
 20
-0.0
 10
1608.140625
 20
-0.0
 10
1598.625
 20
-0.0
 10
1589.109375
 20
-0.0
 10
1579.59375
 20
-0.0
 10
1570.078125
 20
-0.0
 10
1560.5625
 20
-0.0
 10
1551.046875
 20
-0.0
 10
1541.53125
 20
-0.0
 10
1532.015625
 20
-0.0
 10
1522.5
 20
-0.0
 10
1512.984375
 20
-0.0
 10
1503.46875
 20
-0.0
 10
1493.953125
 20
-0.0
 10
1484.4375
 20
-0.0
 10
1474.921875
 20
-0.0
 10
1465.40625
 20
-0.0
 10
1455.890625
 20
-0.0
 10
1446.375
 20
-0.0
 10
1436.859375
 20
-0.0
 10
1427.34375
 20
-0.0
 10
1417.828125
 20
-0.0
 10
1408.3125
 20
-0.0
 10
1398.796875
 20
-0.0
 10
1389.28125
 20
-0.0
 10
1379.765625
 20
-0.0
 10
1370.25
 20
-0.0
 10
1360.734375
 20
-0.0
 10
1351.21875
 20
-0.0
 10
1341.703125
 20
-0.0
 10
1332.1875
 20
-0.0
 10
1322.671875
 20
-0.0
 10
1313.15625
 20
-0.0
 10
1303.640625
 20
-0.0
 10
1294.125
 20
-0.0
 10
1284.609375
 20
-0.0
 10
1275.09375
 20
-0.0
 10
1265.578125
 20
-0.0
 10
1256.0625
 20
-0.0
 10
1246.546875
 20
-0.0
 10
1237.03125
 20
-0.0
 10
1227.515625
 20
-0.0
 10
1218.0
 20
-0.0
 10
1208.484375
 20
-0.0
 10
1198.96875
 20
-0.0
 10
1189.453125
 20
-0.0
 10
1179.9375
 20
-0.0
 10
1170.421875
 20
-0.0
 10
1160.90625
 20
-0.0
 10
1151.390625
 20
-0.0
 10
1141.875
 20
-0.0
 10
1132.359375
 20
-0.0
 10
1122.84375
 20
-0.0
 10
1113.328125
 20
-0.0
 10
1103.8125
 20
-0.0
 10
1094.296875
 20
-0.0
 10
1084.78125
 20
-0.0
 10
1075.265625
 20
-0.0
 10
1065.75
 20
-0.0
 10
1056.234375
 20
-0.0
 10
1046.71875
 20
-0.0
 10
1037.203125
 20
-0.0
 10
1027.6875
 20
-0.0
 10
1018.171875
 20
-0.0
 10
1008.65625
 20
-0.0
 10
999.140625
 20
-0.0
 10
989.625
 20
-0.0
 10
980.109375
 20
-0.0
 10
970.59375
 20
-0.0
 10
961.078125
 20
-0.0
 10
951.5625
 20
-0.0
 10
942.046875
 20
-0.0
 10
932.53125
 20
-0.0
 10
923.015625
 20
-0.0
 10
913.5
 20
-0.0
 10
903.984375
 20
-0.0
 10
894.46875
 20
-0.0
 10
884.953125
 20
-0.0
 10
875.4375
 20
-0.0
 10
865.921875
 20
-0.0
 10
856.40625
 20
-0.0
 10
846.890625
 20
-0.0
 10
837.375
 20
-0.0
 10
827.859375
 20
-0.0
 10
818.34375
 20
-0.0
 10
808.828125
 20
-0.0
 10
799.3125
 20
-0.0
 10
789.796875
 20
-0.0
 10
780.28125
 20
-0.0
 10
770.765625
 20
-0.0
 10
761.25
 20
-0.0
 10
751.734375
 20
-0.0
 10
742.21875
 20
-0.0
 10
732.703125
 20
-0.0
 10
723.1875
 20
-0.0
 10
713.671875
 20
-0.0
 10
704.15625
 20
-0.0
 10
694.640625
 20
-0.0
 10
685.125
 20
-0.0
 10
675.609375
 20
-0.0
 10
666.09375
 20
-0.0
 10
656.578125
 20
-0.0
 10
647.0625
 20
-0.0
 10
637.546875
 20
-0.0
 10
628.03125
 20
-0.0
 10
618.515625
 20
-0.0
 10
609.0
 20
-0.0
 10
599.484375
 20
-0.0
 10
589.96875
 20
-0.0
 10
580.453125
 20
-0.0
 10
570.9375
 20
-0.0
 10
561.421875
 20
-0.0
 10
551.90625
 20
-0.0
 10
542.390625
 20
-0.0
 10
532.875
 20
-0.0
 10
523.359375
 20
-0.0
 10
513.84375
 20
-0.0
 10
504.328125
 20
-0.0
 10
494.8125
 20
-0.0
 10
485.296875
 20
-0.0
 10
475.78125
 20
-0.0
 10
466.265625
 20
-0.0
 10
456.75
 20
-0.0
 10
447.234375
 20
-0.0
 10
437.71875
 20
-0.0
 10
428.203125
 20
-0.0
 10
418.6875
 20
-0.0
 10
409.171875
 20
-0.0
 10
399.65625
 20
-0.0
 10
390.140625
 20
-0.0
 10
380.625
 20
-0.0
 10
371.109375
 20
-0.0
 10
361.59375
 20
-0.0
 10
352.078125
 20
-0.0
 10
342.5625
 20
-0.0
 10
333.046875
 20
-0.0
 10
323.53125
 20
-0.0
 10
314.015625
 20
-0.0
 10
304.5
 20
-0.0
 10
294.984375
 20
-0.0
 10
285.46875
 20
-0.0
 10
275.953125
 20
-0.0
 10
266.4375
 20
-0.0
 10
256.921875
 20
-0.0
 10
247.40625
 20
-0.0
 10
237.890625
 20
-0.0
 10
228.375
 20
-0.0
 10
218.859375
 20
-0.0
 10
209.34375
 20
-0.0
 10
199.828125
 20
-0.0
 10
190.3125
 20
-0.0
 10
180.796875
 20
-0.0
 10
171.28125
 20
-0.0
 10
161.765625
 20
-0.0
 10
152.25
 20
-0.0
 10
142.734375
 20
-0.0
 10
133.21875
 20
-0.0
 10
123.703125
 20
-0.0
 10
114.1875
 20
-0.0
 10
104.671875
 20
-0.0
 10
95.15625
 20
-0.0
 10
85.640625
 20
-0.0
 10
76.125
 20
-0.0
 10
66.609375
 20
-0.0
 10
57.09375
 20
-0.0
 10
47.578125
 20
-0.0
 10
38.0625
 20
-0.0
 10
28.546875
 20
-0.0
 10
19.03125
 20
-0.0
 10
9.515625
 20
-0.0
  0
LWPOLYLINE
  5
3A
330
17
100
AcDbEntity
  8
substrate
100
AcDbPolyline
 90
4
 70
1
 43
0.5
 10
275.953125
 20
-4767.328125
 10
285.46875
 20
-4757.8125
 10
294.984375
 20
-4767.328125
 10
285.46875
 20
-4776.84375
  0
LWPOLYLINE
  5
3B
330
17
100
AcDbEntity
  8
substrate
100
AcDbPolyline
 90
4
 70
1
 43
0.5
 10
256.921875
 20
-4738.78125
 10
266.4375
 20
-4729.265625
 10
275.953125
 20
-4738.78125
 10
266.4375
 20
-4748.296875
  0
LWPOLYLINE
  5
3C
330
17
100
AcDbEntity
  8
substrate
100
AcDbPolyline
 90
4
 70
1
 43
0.5
 10
218.859375
 20
-4738.78125
 10
228.375
 20
-4729.265625
 10
237.890625
 20
-4738.78125
 10
228.375
 20
-4748.296875
  0
LWPOLYLINE
  5
3D
330
17
100
AcDbEntity
  8
substrate
100
AcDbPolyline
 90
4
 70
1
 43
0.5
 10
1817.484375
 20
-4719.75
 10
1827.0
 20
-4710.234375
 10
1836.515625
 20
-4719.75
 10
1827.0
 20
-4729.265625
  0
LWPOLYLINE
  5
3E
330
17
100
AcDbEntity
  8
substrate
100
AcDbPolyline
 90
4
 70
1
 43
0.5
 10
294.984375
 20
-4719.75
 10
304.5
 20
-4710.234375
 10
314.015625
 20
-4719.75
 10
304.5
 20
-4729.265625
  0
LWPOLYLINE
  5
3F
330
17
100
AcDbEntity
  8
substrate
100
AcDbPolyline
 90
6
 70
1
 43
0.5
 10
2426.484375
 20
-4710.234375
 10
2436.0
 20
-4700.71875
 10
2445.515625
 20
-4710.234375
 10
2445.515625
 20
-4719.75
 10
2436.0
 20
-4729.265625
 10
2426.484375
 20
-4719.75
  0
LWPOLYLINE
  5
40
330
17
100
AcDbEntity
  8
substrate
100
AcDbPolyline
 90
4
 70
1
 43
0.5
 10
180.796875
 20
-4586.53125
 10
190.3125
 20
-4577.015625
 10
199.828125
 20
-4586.53125
 10
190.3125
 20
-4596.046875
  0
LWPOLYLINE
  5
41
330
17
100
AcDbEntity
  8
substrate
100
AcDbPolyline
 90
4
 70
1
 43
0.5
 10
180.796875
 20
-4557.984375
 10
190.3125
 20
-4548.46875
 10
199.828125
 20
-4557.984375
 10
190.3125
 20
-4567.5
  0
LWPOLYLINE
  5
42
330
17
100
AcDbEntity
  8
substrate
100
AcDbPolyline
 90
4
 70
1
 43
0.5
 10
180.796875
 20
-3977.53125
 10
190.3125
 20
-3968.015625
 10
199.828125
 20
-3977.53125
 10
190.3125
 20
-3987.046875
  0
LWPOLYLINE
  5
43
330
17
100
AcDbEntity
  8
substrate
100
AcDbPolyline
 90
4
 70
1
 43
0.5
 10
104.671875
 20
-3948.984375
 10
114.1875
 20
-3939.46875
 10
123.703125
 20
-3948.984375
 10
114.1875
 20
-3958.5
  0
LWPOLYLINE
  5
44
330
17
100
AcDbEntity
  8
substrate
100
AcDbPolyline
 90
6
 70
1
 43
0.5
 10
180.796875
 20
-3901.40625
 10
190.3125
 20
-3891.890625
 10
199.828125
 20
-3901.40625
 10
199.828125
 20
-3910.921875
 10
190.3125
 20
-3920.4375
 10
180.796875
 20
-3910.921875
  0
LWPOLYLINE
  5
45
330
17
100
AcDbEntity
  8
substrate
100
AcDbPolyline
 90
4
 70
1
 43
0.5
 10
0.0
 20
-3720.609375
 10
9.515625
 20
-3711.09375
 10
19.03125
 20
-3720.609375
 10
9.515625
 20
-3730.125
  0
LWPOLYLINE
  5
46
330
17
100
AcDbEntity
  8
substrate
100
AcDbPolyline
 90
6
 70
1
 43
0.5
 10
180.796875
 20
-3292.40625
 10
190.3125
 20
-3282.890625
 10
199.828125
 20
-3292.40625
 10
199.828125
 20
-3301.921875
 10
190.3125
 20
-3311.4375
 10
180.796875
 20
-3301.921875
  0
LWPOLYLINE
  5
47
330
17
100
AcDbEntity
  8
substrate
100
AcDbPolyline
 90
4
 70
1
 43
0.5
 10
0.0
 20
-3130.640625
 10
9.515625
 20
-3121.125
 10
19.03125
 20
-3130.640625
 10
9.515625
 20
-3140.15625
  0
LWPOLYLINE
  5
48
330
17
100
AcDbEntity
  8
substrate
100
AcDbPolyline
 90
6
 70
1
 43
0.5
 10
0.0
 20
-3111.609375
 10
9.515625
 20
-3102.09375
 10
19.03125
 20
-3102.09375
 10
28.546875
 20
-3111.609375
 10
19.03125
 20
-3121.125
 10
9.515625
 20
-3121.125
  0
LWPOLYLINE
  5
49
330
17
100
AcDbEntity
  8
substrate
100
AcDbPolyline
 90
4
 70
1
 43
0.5
 10
4776.84375
 20
-2911.78125
 10
4786.359375
 20
-2902.265625
 10
4795.875
 20
-2911.78125
 10
4786.359375
 20
-2921.296875
  0
LWPOLYLINE
  5
4A
330
17
100
AcDbEntity
  8
substrate
100
AcDbPolyline
 90
4
 70
1
 43
0.5
 10
180.796875
 20
-2692.921875
 10
190.3125
 20
-2683.40625
 10
199.828125
 20
-2692.921875
 10
190.3125
 20
-2702.4375
  0
LWPOLYLINE
  5
4B
330
17
100
AcDbEntity
  8
substrate
100
AcDbPolyline
 90
4
 70
1
 43
0.5
 10
0.0
 20
-2683.40625
 10
9.515625
 20
-2673.890625
 10
19.03125
 20
-2683.40625
 10
9.515625
 20
-2692.921875
  0
LWPOLYLINE
  5
4C
330
17
100
AcDbEntity
  8
substrate
100
AcDbPolyline
 90
7
 70
1
 43
0.5
 10
0.0
 20
-2521.640625
 10
9.515625
 20
-2512.125
 10
19.03125
 20
-2521.640625
 10
28.546875
 20
-2531.15625
 10
19.03125
 20
-2540.671875
 10
9.515625
 20
-2540.671875
 10
0.0
 20
-2531.15625
  0
LWPOLYLINE
  5
4D
330
17
100
AcDbEntity
  8
substrate
100
AcDbPolyline
 90
7
 70
1
 43
0.5
 10
0.0
 20
-2493.09375
 10
9.515625
 20
-2483.578125
 10
19.03125
 20
-2493.09375
 10
28.546875
 20
-2502.609375
 10
19.03125
 20
-2512.125
 10
9.515625
 20
-2512.125
 10
0.0
 20
-2502.609375
  0
LWPOLYLINE
  5
4E
330
17
100
AcDbEntity
  8
substrate
100
AcDbPolyline
 90
4
 70
1
 43
0.5
 10
4776.84375
 20
-2302.78125
 10
4786.359375
 20
-2293.265625
 10
4795.875
 20
-2302.78125
 10
4786.359375
 20
-2312.296875
  0
LWPOLYLINE
  5
4F
330
17
100
AcDbEntity
  8
substrate
100
AcDbPolyline
 90
4
 70
1
 43
0.5
 10
2007.796875
 20
-2121.984375
 10
2017.3125
 20
-2112.46875
 10
2026.828125
 20
-2121.984375
 10
2017.3125
 20
-2131.5
  0
LWPOLYLINE
  5
50
330
17
100
AcDbEntity
  8
substrate
100
AcDbPolyline
 90
7
 70
1
 43
0.5
 10
0.0
 20
-2064.890625
 10
9.515625
 20
-2055.375
 10
19.03125
 20
-2064.890625
 10
28.546875
 20
-2074.40625
 10
19.03125
 20
-2083.921875
 10
9.515625
 20
-2083.921875
 10
0.0
 20
-2074.40625
  0
LWPOLYLINE
  5
51
330
17
100
AcDbEntity
  8
substrate
100
AcDbPolyline
 90
250
 70
1
 43
0.5
 10
2388.421875
 20
-2036.34375
 10
2397.9375
 20
-2026.828125
 10
2407.453125
 20
-2026.828125
 10
2416.96875
 20
-2036.34375
 10
2426.484375
 20
-2036.34375
 10
2436.0
 20
-2036.34375
 10
2445.515625
 20
-2036.34375
 10
2455.03125
 20
-2036.34375
 10
2464.546875
 20
-2036.34375
 10
2474.0625
 20
-2036.34375
 10
2483.578125
 20
-2036.34375
 10
2493.09375
 20
-2036.34375
 10
2502.609375
 20
-2045.859375
 10
2512.125
 20
-2036.34375
 10
2521.640625
 20
-2045.859375
 10
2531.15625
 20
-2045.859375
 10
2540.671875
 20
-2045.859375
 10
2550.1875
 20
-2045.859375
 10
2559.703125
 20
-2055.375
 10
2569.21875
 20
-2055.375
 10
2578.734375
 20
-2055.375
 10
2588.25
 20
-2064.890625
 10
2597.765625
 20
-2064.890625
 10
2607.28125
 20
-2064.890625
 10
2616.796875
 20
-2074.40625
 10
2626.3125
 20
-2083.921875
 10
2635.828125
 20
-2093.4375
 10
2645.34375
 20
-2093.4375
 10
2654.859375
 20
-2102.953125
 10
2664.375
 20
-2102.953125
 10
2673.890625
 20
-2112.46875
 10
2673.890625
 20
-2121.984375
 10
2683.40625
 20
-2121.984375
 10
2692.921875
 20
-2131.5
 10
2702.4375
 20
-2131.5
 10
2711.953125
 20
-2141.015625
 10
2711.953125
 20
-2150.53125
 10
2721.46875
 20
-2150.53125
 10
2730.984375
 20
-2160.046875
 10
2740.5
 20
-2169.5625
 10
2740.5
 20
-2179.078125
 10
2740.5
 20
-2188.59375
 10
2750.015625
 20
-2188.59375
 10
2759.53125
 20
-2198.109375
 10
2759.53125
 20
-2207.625
 10
2769.046875
 20
-2217.140625
 10
2778.5625
 20
-2226.65625
 10
2788.078125
 20
-2236.171875
 10
2788.078125
 20
-2245.6875
 10
2797.59375
 20
-2255.203125
 10
2797.59375
 20
-2264.71875
 10
2807.109375
 20
-2274.234375
 10
2816.625
 20
-2283.75
 10
2816.625
 20
-2293.265625
 10
2816.625
 20
-2302.78125
 10
2826.140625
 20
-2312.296875
 10
2826.140625
 20
-2321.8125
 10
2826.140625
 20
-2331.328125
 10
2835.65625
 20
-2331.328125
 10
2845.171875
 20
-2340.84375
 10
2845.171875
 20
-2350.359375
 10
2845.171875
 20
-2359.875
 10
2845.171875
 20
-2369.390625
 10
2845.171875
 20
-2378.90625
 10
2845.171875
 20
-2388.421875
 10
2845.171875
 20
-2397.9375
 10
2845.171875
 20
-2407.453125
 10
2845.171875
 20
-2416.96875
 10
2845.171875
 20
-2426.484375
 10
2845.171875
 20
-2436.0
 10
2845.171875
 20
-2445.515625
 10
2845.171875
 20
-2455.03125
 10
2845.171875
 20
-2464.546875
 10
2845.171875
 20
-2474.0625
 10
2845.171875
 20
-2483.578125
 10
2845.171875
 20
-2493.09375
 10
2835.65625
 20
-2502.609375
 10
2835.65625
 20
-2512.125
 10
2835.65625
 20
-2521.640625
 10
2835.65625
 20
-2531.15625
 10
2835.65625
 20
-2540.671875
 10
2826.140625
 20
-2550.1875
 10
2826.140625
 20
-2559.703125
 10
2826.140625
 20
-2569.21875
 10
2826.140625
 20
-2578.734375
 10
2816.625
 20
-2588.25
 10
2816.625
 20
-2597.765625
 10
2807.109375
 20
-2607.28125
 10
2797.59375
 20
-2616.796875
 10
2797.59375
 20
-2626.3125
 10
2797.59375
 20
-2635.828125
 10
2788.078125
 20
-2645.34375
 10
2778.5625
 20
-2654.859375
 10
2769.046875
 20
-2664.375
 10
2759.53125
 20
-2673.890625
 10
2750.015625
 20
-2683.40625
 10
2750.015625
 20
-2692.921875
 10
2740.5
 20
-2702.4375
 10
2730.984375
 20
-2702.4375
 10
2721.46875
 20
-2702.4375
 10
2721.46875
 20
-2711.953125
 10
2711.953125
 20
-2721.46875
 10
2702.4375
 20
-2730.984375
 10
2692.921875
 20
-2730.984375
 10
2683.40625
 20
-2740.5
 10
2673.890625
 20
-2740.5
 10
2664.375
 20
-2750.015625
 10
2654.859375
 20
-2759.53125
 10
2645.34375
 20
-2759.53125
 10
2635.828125
 20
-2769.046875
 10
2626.3125
 20
-2778.5625
 10
2616.796875
 20
-2778.5625
 10
2607.28125
 20
-2788.078125
 10
2597.765625
 20
-2797.59375
 10
2588.25
 20
-2797.59375
 10
2578.734375
 20
-2807.109375
 10
2569.21875
 20
-2807.109375
 10
2559.703125
 20
-2816.625
 10
2550.1875
 20
-2816.625
 10
2540.671875
 20
-2816.625
 10
2531.15625
 20
-2826.140625
 10
2521.640625
 20
-2826.140625
 10
2512.125
 20
-2835.65625
 10
2502.609375
 20
-2835.65625
 10
2493.09375
 20
-2835.65625
 10
2483.578125
 20
-2835.65625
 10
2474.0625
 20
-2835.65625
 10
2464.546875
 20
-2835.65625
 10
2455.03125
 20
-2845.171875
 10
2445.515625
 20
-2845.171875
 10
2436.0
 20
-2835.65625
 10
2426.484375
 20
-2845.171875
 10
2416.96875
 20
-2835.65625
 10
2407.453125
 20
-2845.171875
 10
2397.9375
 20
-2835.65625
 10
2388.421875
 20
-2835.65625
 10
2378.90625
 20
-2835.65625
 10
2369.390625
 20
-2835.65625
 10
2359.875
 20
-2835.65625
 10
2350.359375
 20
-2826.140625
 10
2340.84375
 20
-2826.140625
 10
2331.328125
 20
-2826.140625
 10
2321.8125
 20
-2826.140625
 10
2312.296875
 20
-2826.140625
 10
2302.78125
 20
-2816.625
 10
2293.265625
 20
-2816.625
 10
2283.75
 20
-2807.109375
 10
2274.234375
 20
-2807.109375
 10
2264.71875
 20
-2807.109375
 10
2255.203125
 20
-2797.59375
 10
2245.6875
 20
-2797.59375
 10
2236.171875
 20
-2797.59375
 10
2226.65625
 20
-2797.59375
 10
2217.140625
 20
-2788.078125
 10
2207.625
 20
-2788.078125
 10
2198.109375
 20
-2778.5625
 10
2198.109375
 20
-2769.046875
 10
2188.59375
 20
-2769.046875
 10
2179.078125
 20
-2759.53125
 10
2169.5625
 20
-2759.53125
 10
2160.046875
 20
-2750.015625
 10
2160.046875
 20
-2740.5
 10
2150.53125
 20
-2730.984375
 10
2141.015625
 20
-2721.46875
 10
2131.5
 20
-2711.953125
 10
2131.5
 20
-2702.4375
 10
2121.984375
 20
-2692.921875
 10
2112.46875
 20
-2683.40625
 10
2102.953125
 20
-2673.890625
 10
2102.953125
 20
-2664.375
 10
2093.4375
 20
-2654.859375
 10
2083.921875
 20
-2645.34375
 10
2074.40625
 20
-2635.828125
 10
2074.40625
 20
-2626.3125
 10
2064.890625
 20
-2616.796875
 10
2064.890625
 20
-2607.28125
 10
2055.375
 20
-2597.765625
 10
2045.859375
 20
-2588.25
 10
2045.859375
 20
-2578.734375
 10
2036.34375
 20
-2569.21875
 10
2036.34375
 20
-2559.703125
 10
2036.34375
 20
-2550.1875
 10
2036.34375
 20
-2540.671875
 10
2036.34375
 20
-2531.15625
 10
2036.34375
 20
-2521.640625
 10
2026.828125
 20
-2512.125
 10
2026.828125
 20
-2502.609375
 10
2026.828125
 20
-2493.09375
 10
2026.828125
 20
-2483.578125
 10
2026.828125
 20
-2474.0625
 10
2026.828125
 20
-2464.546875
 10
2036.34375
 20
-2455.03125
 10
2026.828125
 20
-2445.515625
 10
2036.34375
 20
-2436.0
 10
2036.34375
 20
-2426.484375
 10
2036.34375
 20
-2416.96875
 10
2036.34375
 20
-2407.453125
 10
2036.34375
 20
-2397.9375
 10
2036.34375
 20
-2388.421875
 10
2036.34375
 20
-2378.90625
 10
2045.859375
 20
-2369.390625
 10
2045.859375
 20
-2359.875
 10
2045.859375
 20
-2350.359375
 10
2045.859375
 20
-2340.84375
 10
2055.375
 20
-2331.328125
 10
2055.375
 20
-2321.8125
 10
2055.375
 20
-2312.296875
 10
2064.890625
 20
-2302.78125
 10
2064.890625
 20
-2293.265625
 10
2064.890625
 20
-2283.75
 10
2064.890625
 20
-2274.234375
 10
2074.40625
 20
-2264.71875
 10
2083.921875
 20
-2255.203125
 10
2083.921875
 20
-2245.6875
 10
2093.4375
 20
-2236.171875
 10
2093.4375
 20
-2226.65625
 10
2102.953125
 20
-2217.140625
 10
2102.953125
 20
-2207.625
 10
2112.46875
 20
-2198.109375
 10
2121.984375
 20
-2188.59375
 10
2131.5
 20
-2179.078125
 10
2141.015625
 20
-2169.5625
 10
2150.53125
 20
-2160.046875
 10
2150.53125
 20
-2150.53125
 10
2160.046875
 20
-2141.015625
 10
2169.5625
 20
-2141.015625
 10
2169.5625
 20
-2131.5
 10
2179.078125
 20
-2121.984375
 10
2188.59375
 20
-2112.46875
 10
2198.109375
 20
-2112.46875
 10
2207.625
 20
-2102.953125
 10
2217.140625
 20
-2093.4375
 10
2226.65625
 20
-2093.4375
 10
2236.171875
 20
-2083.921875
 10
2245.6875
 20
-2083.921875
 10
2255.203125
 20
-2074.40625
 10
2264.71875
 20
-2074.40625
 10
2274.234375
 20
-2064.890625
 10
2283.75
 20
-2055.375
 10
2293.265625
 20
-2055.375
 10
2302.78125
 20
-2055.375
 10
2302.78125
 20
-2045.859375
 10
2312.296875
 20
-2036.34375
 10
2321.8125
 20
-2036.34375
 10
2331.328125
 20
-2036.34375
 10
2340.84375
 20
-2036.34375
 10
2350.359375
 20
-2036.34375
 10
2359.875
 20
-2036.34375
 10
2369.390625
 20
-2036.34375
 10
2378.90625
 20
-2036.34375
  0
LWPOLYLINE
  5
52
330
17
100
AcDbEntity
  8
substrate
100
AcDbPolyline
 90
15
 70
1
 43
0.5
 10
0.0
 20
-1884.09375
 10
9.515625
 20
-1874.578125
 10
19.03125
 20
-1874.578125
 10
28.546875
 20
-1884.09375
 10
28.546875
 20
-1893.609375
 10
19.03125
 20
-1903.125
 10
19.03125
 20
-1912.640625
 10
28.546875
 20
-1922.15625
 10
28.546875
 20
-1931.671875
 10
19.03125
 20
-1941.1875
 10
9.515625
 20
-1931.671875
 10
0.0
 20
-1922.15625
 10
0.0
 20
-1912.640625
 10
0.0
 20
-1903.125
 10
0.0
 20
-1893.609375
  0
LWPOLYLINE
  5
53
330
17
100
AcDbEntity
  8
substrate
100
AcDbPolyline
 90
6
 70
1
 43
0.5
 10
0.0
 20
-1303.640625
 10
9.515625
 20
-1294.125
 10
19.03125
 20
-1303.640625
 10
19.03125
 20
-1313.15625
 10
9.515625
 20
-1322.671875
 10
0.0
 20
-1313.15625
  0
LWPOLYLINE
  5
54
330
17
100
AcDbEntity
  8
substrate
100
AcDbPolyline
 90
7
 70
1
 43
0.5
 10
0.0
 20
-1275.09375
 10
9.515625
 20
-1265.578125
 10
19.03125
 20
-1275.09375
 10
28.546875
 20
-1284.609375
 10
19.03125
 20
-1294.125
 10
9.515625
 20
-1294.125
 10
0.0
 20
-1284.609375
  0
LWPOLYLINE
  5
55
330
17
100
AcDbEntity
  8
substrate
100
AcDbPolyline
 90
4
 70
1
 43
0.5
 10
4757.8125
 20
-456.75
 10
4767.328125
 20
-447.234375
 10
4776.84375
 20
-456.75
 10
4767.328125
 20
-466.265625
  0
ENDSEC
  0
SECTION
  2
OBJECTS
  0
DICTIONARY
  5
A
330
0
100
AcDbDictionary
280
0
281
1
  3
ACAD_COLOR
350
B
  3
ACAD_GROUP
350
C
  3
ACAD_LAYOUT
350
D
  3
ACAD_MATERIAL
350
E
  3
ACAD_MLEADERSTYLE
350
F
  3
ACAD_MLINESTYLE
350
10
  3
ACAD_PLOTSETTINGS
350
11
  3
ACAD_PLOTSTYLENAME
350
12
  3
ACAD_SCALELIST
350
14
  3
ACAD_TABLESTYLE
350
15
  3
ACAD_VISUALSTYLE
350
16
  3
EZDXF_META
350
2D
  0
DICTIONARY
  5
B
330
A
100
AcDbDictionary
280
0
281
1
  0
DICTIONARY
  5
C
330
A
100
AcDbDictionary
280
0
281
1
  0
DICTIONARY
  5
D
330
A
100
AcDbDictionary
280
0
281
1
  3
Model
350
1A
  3
Layout1
350
1E
  0
DICTIONARY
  5
E
330
A
100
AcDbDictionary
280
0
281
1
  3
ByBlock
350
1F
  3
ByLayer
350
20
  3
Global
350
21
  0
DICTIONARY
  5
F
330
A
100
AcDbDictionary
280
0
281
1
  3
Standard
350
2C
  0
DICTIONARY
  5
10
330
A
100
AcDbDictionary
280
0
281
1
  3
Standard
350
22
  0
DICTIONARY
  5
11
330
A
100
AcDbDictionary
280
0
281
1
  0
ACDBDICTIONARYWDFLT
  5
12
330
A
100
AcDbDictionary
280
0
281
1
  3
Normal
350
13
100
AcDbDictionaryWithDefault
340
13
  0
ACDBPLACEHOLDER
  5
13
330
12
  0
DICTIONARY
  5
14
330
A
100
AcDbDictionary
280
0
281
1
  0
DICTIONARY
  5
15
330
A
100
AcDbDictionary
280
0
281
1
  0
DICTIONARY
  5
16
330
A
100
AcDbDictionary
280
0
281
1
  0
LAYOUT
  5
1A
330
D
100
AcDbPlotSettings
  1

  2
Adobe PDF
  4
A3
  6

 40
7.5
 41
20.0
 42
7.5
 43
20.0
 44
420.0
 45
297.0
 46
0.0
 47
0.0
 48
0.0
 49
0.0
140
0.0
141
0.0
142
1.0
143
1.0
 70
1024
 72
1
 73
0
 74
5
  7

 75
16
 76
0
 77
2
 78
300
147
1.0
148
0.0
149
0.0
100
AcDbLayout
  1
Model
 70
1
 71
0
 10
0.0
 20
0.0
 11
420.0
 21
297.0
 12
0.0
 22
0.0
 32
0.0
 14
1e+20
 24
1e+20
 34
1e+20
 15
-1e+20
 25
-1e+20
 35
-1e+20
146
0.0
 13
0.0
 23
0.0
 33
0.0
 16
1.0
 26
0.0
 36
0.0
 17
0.0
 27
1.0
 37
0.0
 76
1
330
17
  0
LAYOUT
  5
1E
330
D
100
AcDbPlotSettings
  1

  2
Adobe PDF
  4
A3
  6

 40
7.5
 41
20.0
 42
7.5
 43
20.0
 44
420.0
 45
297.0
 46
0.0
 47
0.0
 48
0.0
 49
0.0
140
0.0
141
0.0
142
1.0
143
1.0
 70
0
 72
1
 73
0
 74
5
  7

 75
16
 76
0
 77
2
 78
300
147
1.0
148
0.0
149
0.0
100
AcDbLayout
  1
Layout1
 70
1
 71
1
 10
0.0
 20
0.0
 11
420.0
 21
297.0
 12
0.0
 22
0.0
 32
0.0
 14
1e+20
 24
1e+20
 34
1e+20
 15
-1e+20
 25
-1e+20
 35
-1e+20
146
0.0
 13
0.0
 23
0.0
 33
0.0
 16
1.0
 26
0.0
 36
0.0
 17
0.0
 27
1.0
 37
0.0
 76
1
330
1B
  0
MATERIAL
  5
1F
102
{ACAD_REACTORS
330
E
102
}
330
E
100
AcDbMaterial
  1
ByBlock
  2

 70
0
 40
1.0
 71
1
 41
1.0
 91
-1023410177
 42
1.0
 72
1
  3

 73
1
 74
1
 75
1
 44
0.5
 73
0
 45
1.0
 46
1.0
 77
1
  4

 78
1
 79
1
170
1
 48
1.0
171
1
  6

172
1
173
1
174
1
140
1.0
141
1.0
175
1
  7

176
1
177
1
178
1
143
1.0
179
1
  8

270
1
271
1
272
1
145
1.0
146
1.0
273
1
  9

274
1
275
1
276
1
 42
1.0
 72
1
  3

 73
1
 74
1
 75
1
 94
63
  0
MATERIAL
  5
20
102
{ACAD_REACTORS
330
E
102
}
330
E
100
AcDbMaterial
  1
ByLayer
  2

 70
0
 40
1.0
 71
1
 41
1.0
 91
-1023410177
 42
1.0
 72
1
  3

 73
1
 74
1
 75
1
 44
0.5
 73
0
 45
1.0
 46
1.0
 77
1
  4

 78
1
 79
1
170
1
 48
1.0
171
1
  6

172
1
173
1
174
1
140
1.0
141
1.0
175
1
  7

176
1
177
1
178
1
143
1.0
179
1
  8

270
1
271
1
272
1
145
1.0
146
1.0
273
1
  9

274
1
275
1
276
1
 42
1.0
 72
1
  3

 73
1
 74
1
 75
1
 94
63
  0
MATERIAL
  5
21
102
{ACAD_REACTORS
330
E
102
}
330
E
100
AcDbMaterial
  1
Global
  2

 70
0
 40
1.0
 71
1
 41
1.0
 91
-1023410177
 42
1.0
 72
1
  3

 73
1
 74
1
 75
1
 44
0.5
 73
0
 45
1.0
 46
1.0
 77
1
  4

 78
1
 79
1
170
1
 48
1.0
171
1
  6

172
1
173
1
174
1
140
1.0
141
1.0
175
1
  7

176
1
177
1
178
1
143
1.0
179
1
  8

270
1
271
1
272
1
145
1.0
146
1.0
273
1
  9

274
1
275
1
276
1
 42
1.0
 72
1
  3

 73
1
 74
1
 75
1
 94
63
  0
MLINESTYLE
  5
22
102
{ACAD_REACTORS
330
10
102
}
330
10
100
AcDbMlineStyle
  2
Standard
 70
0
  3

 62
256
 51
90.0
 52
90.0
 71
2
 49
0.5
 62
256
  6
BYLAYER
 49
-0.5
 62
256
  6
BYLAYER
  0
MLEADERSTYLE
  5
2C
102
{ACAD_REACTORS
330
F
102
}
330
F
100
AcDbMLeaderStyle
179
2
170
2
171
1
172
0
 90
2
 40
0.0
 41
0.0
173
1
 91
-1056964608
 92
-2
290
1
 42
2.0
291
1
 43
8.0
  3
Standard
 44
4.0
300

342
29
174
1
175
1
176
0
178
1
 93
-1056964608
 45
4.0
292
0
297
0
 46
4.0
 94
-1056964608
 47
1.0
 49
1.0
140
1.0
294
1
141
0.0
177
0
142
1.0
295
0
296
0
143
3.75
271
0
272
9
273
9
  0
DICTIONARY
  5
2D
330
A
100
AcDbDictionary
281
1
  3
CREATED_BY_EZDXF
350
2E
  3
WRITTEN_BY_EZDXF
350
58
  0
DICTIONARYVAR
  5
2E
330
2D
100
DictionaryVariables
280
0
  1
1.1.0 @ 2025-02-03T01:27:37.925854+00:00
  0
DICTIONARYVAR
  5
58
330
2D
100
DictionaryVariables
280
0
  1
1.1.0 @ 2025-02-03T01:27:37.931526+00:00
  0
ENDSEC
  0
EOF
