  0
SECTION
  2
HEADER
  9
$ACADVER
  1
AC1027
  9
$ACADMAINTVER
 70
105
  9
$DWGCODEPAGE
  3
ANSI_1252
  9
$LASTSAVEDBY
  1
ezdxf
  9
$REQUIREDVERSIONS
160
0
  9
$INSBASE
 10
0.0
 20
0.0
 30
0.0
  9
$EXTMIN
 10
1e+20
 20
1e+20
 30
1e+20
  9
$EXTMAX
 10
-1e+20
 20
-1e+20
 30
-1e+20
  9
$LIMMIN
 10
0.0
 20
0.0
  9
$LIMMAX
 10
420.0
 20
297.0
  9
$ORTHOMODE
 70
0
  9
$REGENMODE
 70
1
  9
$FILLMODE
 70
1
  9
$QTEXTMODE
 70
0
  9
$MIRRTEXT
 70
1
  9
$LTSCALE
 40
1.0
  9
$ATTMODE
 70
1
  9
$TEXTSIZE
 40
2.5
  9
$TRACEWID
 40
1.0
  9
$TEXTSTYLE
  7
Standard
  9
$CLAYER
  8
0
  9
$CELTYPE
  6
ByLayer
  9
$CECOLOR
 62
256
  9
$CELTSCALE
 40
1.0
  9
$DISPSILH
 70
0
  9
$DIMSCALE
 40
1.0
  9
$DIMASZ
 40
2.5
  9
$DIMEXO
 40
0.625
  9
$DIMDLI
 40
3.75
  9
$DIMRND
 40
0.0
  9
$DIMDLE
 40
0.0
  9
$DIMEXE
 40
1.25
  9
$DIMTP
 40
0.0
  9
$DIMTM
 40
0.0
  9
$DIMTXT
 40
2.5
  9
$DIMCEN
 40
2.5
  9
$DIMTSZ
 40
0.0
  9
$DIMTOL
 70
0
  9
$DIMLIM
 70
0
  9
$DIMTIH
 70
0
  9
$DIMTOH
 70
0
  9
$DIMSE1
 70
0
  9
$DIMSE2
 70
0
  9
$DIMTAD
 70
1
  9
$DIMZIN
 70
8
  9
$DIMBLK
  1

  9
$DIMASO
 70
1
  9
$DIMSHO
 70
1
  9
$DIMPOST
  1

  9
$DIMAPOST
  1

  9
$DIMALT
 70
0
  9
$DIMALTD
 70
3
  9
$DIMALTF
 40
0.03937007874
  9
$DIMLFAC
 40
1.0
  9
$DIMTOFL
 70
1
  9
$DIMTVP
 40
0.0
  9
$DIMTIX
 70
0
  9
$DIMSOXD
 70
0
  9
$DIMSAH
 70
0
  9
$DIMBLK1
  1

  9
$DIMBLK2
  1

  9
$DIMSTYLE
  2
ISO-25
  9
$DIMCLRD
 70
0
  9
$DIMCLRE
 70
0
  9
$DIMCLRT
 70
0
  9
$DIMTFAC
 40
1.0
  9
$DIMGAP
 40
0.625
  9
$DIMJUST
 70
0
  9
$DIMSD1
 70
0
  9
$DIMSD2
 70
0
  9
$DIMTOLJ
 70
0
  9
$DIMTZIN
 70
8
  9
$DIMALTZ
 70
0
  9
$DIMALTTZ
 70
0
  9
$DIMUPT
 70
0
  9
$DIMDEC
 70
2
  9
$DIMTDEC
 70
2
  9
$DIMALTU
 70
2
  9
$DIMALTTD
 70
3
  9
$DIMTXSTY
  7
Standard
  9
$DIMAUNIT
 70
0
  9
$DIMADEC
 70
0
  9
$DIMALTRND
 40
0.0
  9
$DIMAZIN
 70
0
  9
$DIMDSEP
 70
44
  9
$DIMATFIT
 70
3
  9
$DIMFRAC
 70
0
  9
$DIMLDRBLK
  1

  9
$DIMLUNIT
 70
2
  9
$DIMLWD
 70
-2
  9
$DIMLWE
 70
-2
  9
$DIMTMOVE
 70
0
  9
$DIMFXL
 40
1.0
  9
$DIMFXLON
 70
0
  9
$DIMJOGANG
 40
0.785398163397
  9
$DIMTFILL
 70
0
  9
$DIMTFILLCLR
 70
0
  9
$DIMARCSYM
 70
0
  9
$DIMLTYPE
  6

  9
$DIMLTEX1
  6

  9
$DIMLTEX2
  6

  9
$DIMTXTDIRECTION
 70
0
  9
$LUNITS
 70
2
  9
$LUPREC
 70
4
  9
$SKETCHINC
 40
1.0
  9
$FILLETRAD
 40
10.0
  9
$AUNITS
 70
0
  9
$AUPREC
 70
2
  9
$MENU
  1
.
  9
$ELEVATION
 40
0.0
  9
$PELEVATION
 40
0.0
  9
$THICKNESS
 40
0.0
  9
$LIMCHECK
 70
0
  9
$CHAMFERA
 40
0.0
  9
$CHAMFERB
 40
0.0
  9
$CHAMFERC
 40
0.0
  9
$CHAMFERD
 40
0.0
  9
$SKPOLY
 70
0
  9
$TDCREATE
 40
2460737.7131134258
  9
$TDUCREATE
 40
2458532.153996898
  9
$TDUPDATE
 40
2460737.7131134258
  9
$TDUUPDATE
 40
2458532.1544311
  9
$TDINDWG
 40
0.0
  9
$TDUSRTIMER
 40
0.0
  9
$USRTIMER
 70
1
  9
$ANGBASE
 50
0.0
  9
$ANGDIR
 70
0
  9
$PDMODE
 70
0
  9
$PDSIZE
 40
0.0
  9
$PLINEWID
 40
0.0
  9
$SPLFRAME
 70
0
  9
$SPLINETYPE
 70
6
  9
$SPLINESEGS
 70
8
  9
$HANDSEED
  5
38
  9
$SURFTAB1
 70
6
  9
$SURFTAB2
 70
6
  9
$SURFTYPE
 70
6
  9
$SURFU
 70
6
  9
$SURFV
 70
6
  9
$UCSBASE
  2

  9
$UCSNAME
  2

  9
$UCSORG
 10
0.0
 20
0.0
 30
0.0
  9
$UCSXDIR
 10
1.0
 20
0.0
 30
0.0
  9
$UCSYDIR
 10
0.0
 20
1.0
 30
0.0
  9
$UCSORTHOREF
  2

  9
$UCSORTHOVIEW
 70
0
  9
$UCSORGTOP
 10
0.0
 20
0.0
 30
0.0
  9
$UCSORGBOTTOM
 10
0.0
 20
0.0
 30
0.0
  9
$UCSORGLEFT
 10
0.0
 20
0.0
 30
0.0
  9
$UCSORGRIGHT
 10
0.0
 20
0.0
 30
0.0
  9
$UCSORGFRONT
 10
0.0
 20
0.0
 30
0.0
  9
$UCSORGBACK
 10
0.0
 20
0.0
 30
0.0
  9
$PUCSBASE
  2

  9
$PUCSNAME
  2

  9
$PUCSORG
 10
0.0
 20
0.0
 30
0.0
  9
$PUCSXDIR
 10
1.0
 20
0.0
 30
0.0
  9
$PUCSYDIR
 10
0.0
 20
1.0
 30
0.0
  9
$PUCSORTHOREF
  2

  9
$PUCSORTHOVIEW
 70
0
  9
$PUCSORGTOP
 10
0.0
 20
0.0
 30
0.0
  9
$PUCSORGBOTTOM
 10
0.0
 20
0.0
 30
0.0
  9
$PUCSORGLEFT
 10
0.0
 20
0.0
 30
0.0
  9
$PUCSORGRIGHT
 10
0.0
 20
0.0
 30
0.0
  9
$PUCSORGFRONT
 10
0.0
 20
0.0
 30
0.0
  9
$PUCSORGBACK
 10
0.0
 20
0.0
 30
0.0
  9
$USERI1
 70
0
  9
$USERI2
 70
0
  9
$USERI3
 70
0
  9
$USERI4
 70
0
  9
$USERI5
 70
0
  9
$USERR1
 40
0.0
  9
$USERR2
 40
0.0
  9
$USERR3
 40
0.0
  9
$USERR4
 40
0.0
  9
$USERR5
 40
0.0
  9
$WORLDVIEW
 70
1
  9
$SHADEDGE
 70
3
  9
$SHADEDIF
 70
70
  9
$TILEMODE
 70
1
  9
$MAXACTVP
 70
64
  9
$PINSBASE
 10
0.0
 20
0.0
 30
0.0
  9
$PLIMCHECK
 70
0
  9
$PEXTMIN
 10
1e+20
 20
1e+20
 30
1e+20
  9
$PEXTMAX
 10
-1e+20
 20
-1e+20
 30
-1e+20
  9
$PLIMMIN
 10
0.0
 20
0.0
  9
$PLIMMAX
 10
420.0
 20
297.0
  9
$UNITMODE
 70
0
  9
$VISRETAIN
 70
1
  9
$PLINEGEN
 70
0
  9
$PSLTSCALE
 70
1
  9
$TREEDEPTH
 70
3020
  9
$CMLSTYLE
  2
Standard
  9
$CMLJUST
 70
0
  9
$CMLSCALE
 40
20.0
  9
$PROXYGRAPHICS
 70
1
  9
$MEASUREMENT
 70
1
  9
$CELWEIGHT
370
-1
  9
$ENDCAPS
280
0
  9
$JOINSTYLE
280
0
  9
$LWDISPLAY
290
0
  9
$INSUNITS
 70
6
  9
$HYPERLINKBASE
  1

  9
$STYLESHEET
  1

  9
$XEDIT
290
1
  9
$CEPSNTYPE
380
0
  9
$PSTYLEMODE
290
1
  9
$FINGERPRINTGUID
  2
{751EC59D-1C8B-4533-AF6B-57BD2472D47F}
  9
$VERSIONGUID
  2
{180746D1-6828-438F-936F-C00CF68282E1}
  9
$EXTNAMES
290
1
  9
$PSVPSCALE
 40
0.0
  9
$OLESTARTUP
290
0
  9
$SORTENTS
280
127
  9
$INDEXCTL
280
0
  9
$HIDETEXT
280
1
  9
$XCLIPFRAME
280
0
  9
$HALOGAP
280
0
  9
$OBSCOLOR
 70
257
  9
$OBSLTYPE
280
0
  9
$INTERSECTIONDISPLAY
280
0
  9
$INTERSECTIONCOLOR
 70
257
  9
$DIMASSOC
280
2
  9
$PROJECTNAME
  1

  9
$CAMERADISPLAY
290
0
  9
$LENSLENGTH
 40
50.0
  9
$CAMERAHEIGHT
 40
0.0
  9
$STEPSPERSEC
 40
24.0
  9
$STEPSIZE
 40
100.0
  9
$3DDWFPREC
 40
2.0
  9
$PSOLWIDTH
 40
0.005
  9
$PSOLHEIGHT
 40
0.08
  9
$LOFTANG1
 40
1.570796326795
  9
$LOFTANG2
 40
1.570796326795
  9
$LOFTMAG1
 40
0.0
  9
$LOFTMAG2
 40
0.0
  9
$LOFTPARAM
 70
7
  9
$LOFTNORMALS
280
1
  9
$LATITUDE
 40
37.795
  9
$LONGITUDE
 40
-122.394
  9
$NORTHDIRECTION
 40
0.0
  9
$TIMEZONE
 70
-8000
  9
$LIGHTGLYPHDISPLAY
280
1
  9
$TILEMODELIGHTSYNCH
280
1
  9
$CMATERIAL
347
20
  9
$SOLIDHIST
280
0
  9
$SHOWHIST
280
1
  9
$DWFFRAME
280
2
  9
$DGNFRAME
280
2
  9
$REALWORLDSCALE
290
1
  9
$INTERFERECOLOR
 62
256
  9
$CSHADOW
280
0
  9
$SHADOWPLANELOCATION
 40
0.0
  0
ENDSEC
  0
SECTION
  2
CLASSES
  0
CLASS
  1
ACDBDICTIONARYWDFLT
  2
AcDbDictionaryWithDefault
  3
ObjectDBX Classes
 90
0
 91
0
280
0
281
0
  0
CLASS
  1
SUN
  2
AcDbSun
  3
SCENEOE
 90
1153
 91
0
280
0
281
0
  0
CLASS
  1
VISUALSTYLE
  2
AcDbVisualStyle
  3
ObjectDBX Classes
 90
4095
 91
0
280
0
281
0
  0
CLASS
  1
MATERIAL
  2
AcDbMaterial
  3
ObjectDBX Classes
 90
1153
 91
0
280
0
281
0
  0
CLASS
  1
SCALE
  2
AcDbScale
  3
ObjectDBX Classes
 90
1153
 91
0
280
0
281
0
  0
CLASS
  1
TABLESTYLE
  2
AcDbTableStyle
  3
ObjectDBX Classes
 90
4095
 91
0
280
0
281
0
  0
CLASS
  1
MLEADERSTYLE
  2
AcDbMLeaderStyle
  3
ACDB_MLEADERSTYLE_CLASS
 90
4095
 91
0
280
0
281
0
  0
CLASS
  1
DICTIONARYVAR
  2
AcDbDictionaryVar
  3
ObjectDBX Classes
 90
0
 91
0
280
0
281
0
  0
CLASS
  1
CELLSTYLEMAP
  2
AcDbCellStyleMap
  3
ObjectDBX Classes
 90
1152
 91
0
280
0
281
0
  0
CLASS
  1
MENTALRAYRENDERSETTINGS
  2
AcDbMentalRayRenderSettings
  3
SCENEOE
 90
1024
 91
0
280
0
281
0
  0
CLASS
  1
ACDBDETAILVIEWSTYLE
  2
AcDbDetailViewStyle
  3
ObjectDBX Classes
 90
1025
 91
0
280
0
281
0
  0
CLASS
  1
ACDBSECTIONVIEWSTYLE
  2
AcDbSectionViewStyle
  3
ObjectDBX Classes
 90
1025
 91
0
280
0
281
0
  0
CLASS
  1
RASTERVARIABLES
  2
AcDbRasterVariables
  3
ISM
 90
0
 91
0
280
0
281
0
  0
CLASS
  1
LAYOUT
  2
AcDbLayout
  3
ObjectDBX Classes
 90
0
 91
0
280
0
281
0
  0
CLASS
  1
ACDBPLACEHOLDER
  2
AcDbPlaceHolder
  3
ObjectDBX Classes
 90
0
 91
0
280
0
281
0
  0
ENDSEC
  0
SECTION
  2
TABLES
  0
TABLE
  2
VPORT
  5
8
330
0
100
AcDbSymbolTable
 70
1
  0
VPORT
  5
23
330
8
100
AcDbSymbolTableRecord
100
AcDbViewportTableRecord
  2
*Active
 70
0
 10
0.0
 20
0.0
 11
1.0
 21
1.0
 12
0.0
 22
0.0
 13
0.0
 23
0.0
 14
0.5
 24
0.5
 15
0.5
 25
0.5
 16
0.0
 26
0.0
 36
1.0
 17
0.0
 27
0.0
 37
0.0
 40
1000.0
 41
1.34
 42
50.0
 43
0.0
 44
0.0
 50
0.0
 51
0.0
 71
0
 72
1000
 73
1
 74
3
 75
0
 76
0
 77
0
 78
0
281
0
 65
0
146
0.0
  0
ENDTAB
  0
TABLE
  2
LTYPE
  5
2
330
0
100
AcDbSymbolTable
 70
3
  0
LTYPE
  5
24
330
2
100
AcDbSymbolTableRecord
100
AcDbLinetypeTableRecord
  2
ByBlock
 70
0
  3

 72
65
 73
0
 40
0.0
  0
LTYPE
  5
25
330
2
100
AcDbSymbolTableRecord
100
AcDbLinetypeTableRecord
  2
ByLayer
 70
0
  3

 72
65
 73
0
 40
0.0
  0
LTYPE
  5
26
330
2
100
AcDbSymbolTableRecord
100
AcDbLinetypeTableRecord
  2
Continuous
 70
0
  3

 72
65
 73
0
 40
0.0
  0
ENDTAB
  0
TABLE
  2
LAYER
  5
1
330
0
100
AcDbSymbolTable
 70
5
  0
LAYER
  5
27
330
1
100
AcDbSymbolTableRecord
100
AcDbLayerTableRecord
  2
0
 70
0
 62
7
  6
Continuous
370
-3
390
13
347
21
  0
LAYER
  5
28
330
1
100
AcDbSymbolTableRecord
100
AcDbLayerTableRecord
  2
Defpoints
 70
0
 62
7
  6
Continuous
290
0
370
-3
390
13
347
21
  0
LAYER
  5
2F
330
1
100
AcDbSymbolTableRecord
100
AcDbLayerTableRecord
  2
conductor
 70
0
 62
1
  6
Continuous
370
-3
390
13
347
21
  0
LAYER
  5
30
330
1
100
AcDbSymbolTableRecord
100
AcDbLayerTableRecord
  2
dielectric
 70
0
 62
8
  6
Continuous
370
-3
390
13
347
21
  0
LAYER
  5
31
330
1
100
AcDbSymbolTableRecord
100
AcDbLayerTableRecord
  2
substrate
 70
0
 62
5
  6
Continuous
370
-3
390
13
347
21
  0
ENDTAB
  0
TABLE
  2
STYLE
  5
5
330
0
100
AcDbSymbolTable
 70
1
  0
STYLE
  5
29
330
5
100
AcDbSymbolTableRecord
100
AcDbTextStyleTableRecord
  2
Standard
 70
0
 40
0.0
 41
1.0
 50
0.0
 71
0
 42
2.5
  3
txt
  4

  0
ENDTAB
  0
TABLE
  2
VIEW
  5
7
330
0
100
AcDbSymbolTable
 70
0
  0
ENDTAB
  0
TABLE
  2
UCS
  5
6
330
0
100
AcDbSymbolTable
 70
0
  0
ENDTAB
  0
TABLE
  2
APPID
  5
3
330
0
100
AcDbSymbolTable
 70
3
  0
APPID
  5
2A
330
3
100
AcDbSymbolTableRecord
100
AcDbRegAppTableRecord
  2
ACAD
 70
0
  0
APPID
  5
35
330
3
100
AcDbSymbolTableRecord
100
AcDbRegAppTableRecord
  2
HATCHBACKGROUNDCOLOR
 70
0
  0
APPID
  5
36
330
3
100
AcDbSymbolTableRecord
100
AcDbRegAppTableRecord
  2
EZDXF
 70
0
  0
ENDTAB
  0
TABLE
  2
DIMSTYLE
  5
4
330
0
100
AcDbSymbolTable
 70
1
100
AcDbDimStyleTable
  0
DIMSTYLE
105
2B
330
4
100
AcDbSymbolTableRecord
100
AcDbDimStyleTableRecord
  2
Standard
 70
0
 40
1.0
 41
2.5
 42
0.625
 43
3.75
 44
1.25
 45
0.0
 46
0.0
 47
0.0
 48
0.0
 49
2.5
140
2.5
141
2.5
142
0.0
143
0.03937007874
144
1.0
145
0.0
146
1.0
147
0.625
148
0.0
 69
0
 70
0
 71
0
 72
0
 73
0
 74
0
 75
0
 76
0
 77
1
 78
8
 79
3
170
0
171
3
172
1
173
0
174
0
175
0
176
0
177
0
178
0
179
2
271
2
272
2
273
2
274
3
275
0
276
0
277
2
278
44
279
0
280
0
281
0
282
0
283
0
284
8
285
0
286
0
288
0
289
3
290
0
371
-2
372
-2
  0
ENDTAB
  0
TABLE
  2
BLOCK_RECORD
  5
9
330
0
100
AcDbSymbolTable
 70
2
  0
BLOCK_RECORD
  5
17
330
9
100
AcDbSymbolTableRecord
100
AcDbBlockTableRecord
  2
*Model_Space
340
1A
 70
0
280
1
281
0
  0
BLOCK_RECORD
  5
1B
330
9
100
AcDbSymbolTableRecord
100
AcDbBlockTableRecord
  2
*Paper_Space
340
1E
 70
0
280
1
281
0
  0
ENDTAB
  0
ENDSEC
  0
SECTION
  2
BLOCKS
  0
BLOCK
  5
18
330
17
100
AcDbEntity
  8
0
100
AcDbBlockBegin
  2
*Model_Space
 70
0
 10
0.0
 20
0.0
 30
0.0
  3
*Model_Space
  1

  0
ENDBLK
  5
19
330
17
100
AcDbEntity
  8
0
100
AcDbBlockEnd
  0
BLOCK
  5
1C
330
1B
100
AcDbEntity
  8
0
100
AcDbBlockBegin
  2
*Paper_Space
 70
0
 10
0.0
 20
0.0
 30
0.0
  3
*Paper_Space
  1

  0
ENDBLK
  5
1D
330
1B
100
AcDbEntity
  8
0
100
AcDbBlockEnd
  0
ENDSEC
  0
SECTION
  2
ENTITIES
  0
LWPOLYLINE
  5
32
330
17
100
AcDbEntity
  8
conductor
100
AcDbPolyline
 90
1314
 70
1
 43
0.5
 10
1951.142578125
 20
-900.52734375
 10
1951.142578125
 20
-910.533203125
 10
1951.142578125
 20
-920.5390625
 10
1951.142578125
 20
-930.544921875
 10
1951.142578125
 20
-940.55078125
 10
1951.142578125
 20
-950.556640625
 10
1951.142578125
 20
-960.5625
 10
1951.142578125
 20
-970.568359375
 10
1951.142578125
 20
-980.57421875
 10
1951.142578125
 20
-990.580078125
 10
1951.142578125
 20
-1000.5859375
 10
1951.142578125
 20
-1010.591796875
 10
1951.142578125
 20
-1020.59765625
 10
1941.13671875
 20
-1030.603515625
 10
1941.13671875
 20
-1040.609375
 10
1951.142578125
 20
-1050.615234375
 10
1951.142578125
 20
-1060.62109375
 10
1951.142578125
 20
-1070.626953125
 10
1951.142578125
 20
-1080.6328125
 10
1951.142578125
 20
-1090.638671875
 10
1951.142578125
 20
-1100.64453125
 10
1951.142578125
 20
-1110.650390625
 10
1951.142578125
 20
-1120.65625
 10
1951.142578125
 20
-1130.662109375
 10
1951.142578125
 20
-1140.66796875
 10
1951.142578125
 20
-1150.673828125
 10
1951.142578125
 20
-1160.6796875
 10
1951.142578125
 20
-1170.685546875
 10
1951.142578125
 20
-1180.69140625
 10
1951.142578125
 20
-1190.697265625
 10
1951.142578125
 20
-1200.703125
 10
1941.13671875
 20
-1210.708984375
 10
1941.13671875
 20
-1220.71484375
 10
1941.13671875
 20
-1230.720703125
 10
1951.142578125
 20
-1240.7265625
 10
1951.142578125
 20
-1250.732421875
 10
1951.142578125
 20
-1260.73828125
 10
1951.142578125
 20
-1270.744140625
 10
1951.142578125
 20
-1280.75
 10
1951.142578125
 20
-1290.755859375
 10
1951.142578125
 20
-1300.76171875
 10
1951.142578125
 20
-1310.767578125
 10
1951.142578125
 20
-1320.7734375
 10
1951.142578125
 20
-1330.779296875
 10
1951.142578125
 20
-1340.78515625
 10
1951.142578125
 20
-1350.791015625
 10
1941.13671875
 20
-1360.796875
 10
1951.142578125
 20
-1370.802734375
 10
1951.142578125
 20
-1380.80859375
 10
1951.142578125
 20
-1390.814453125
 10
1951.142578125
 20
-1400.8203125
 10
1951.142578125
 20
-1410.826171875
 10
1951.142578125
 20
-1420.83203125
 10
1951.142578125
 20
-1430.837890625
 10
1951.142578125
 20
-1440.84375
 10
1951.142578125
 20
-1450.849609375
 10
1951.142578125
 20
-1460.85546875
 10
1951.142578125
 20
-1470.861328125
 10
1951.142578125
 20
-1480.8671875
 10
1951.142578125
 20
-1490.873046875
 10
1951.142578125
 20
-1500.87890625
 10
1951.142578125
 20
-1510.884765625
 10
1951.142578125
 20
-1520.890625
 10
1951.142578125
 20
-1530.896484375
 10
1951.142578125
 20
-1540.90234375
 10
1951.142578125
 20
-1550.908203125
 10
1951.142578125
 20
-1560.9140625
 10
1951.142578125
 20
-1570.919921875
 10
1951.142578125
 20
-1580.92578125
 10
1941.13671875
 20
-1590.931640625
 10
1941.13671875
 20
-1600.9375
 10
1951.142578125
 20
-1610.943359375
 10
1951.142578125
 20
-1620.94921875
 10
1941.13671875
 20
-1630.955078125
 10
1941.13671875
 20
-1640.9609375
 10
1941.13671875
 20
-1650.966796875
 10
1941.13671875
 20
-1660.97265625
 10
1941.13671875
 20
-1670.978515625
 10
1941.13671875
 20
-1680.984375
 10
1951.142578125
 20
-1690.990234375
 10
1941.13671875
 20
-1700.99609375
 10
1941.13671875
 20
-1711.001953125
 10
1941.13671875
 20
-1721.0078125
 10
1951.142578125
 20
-1731.013671875
 10
1951.142578125
 20
-1741.01953125
 10
1951.142578125
 20
-1751.025390625
 10
1951.142578125
 20
-1761.03125
 10
1941.13671875
 20
-1771.037109375
 10
1951.142578125
 20
-1781.04296875
 10
1941.13671875
 20
-1791.048828125
 10
1941.13671875
 20
-1801.0546875
 10
1941.13671875
 20
-1811.060546875
 10
1941.13671875
 20
-1821.06640625
 10
1951.142578125
 20
-1831.072265625
 10
1941.13671875
 20
-1841.078125
 10
1941.13671875
 20
-1851.083984375
 10
1941.13671875
 20
-1861.08984375
 10
1941.13671875
 20
-1871.095703125
 10
1941.13671875
 20
-1881.1015625
 10
1951.142578125
 20
-1891.107421875
 10
1951.142578125
 20
-1901.11328125
 10
1951.142578125
 20
-1911.119140625
 10
1951.142578125
 20
-1921.125
 10
1941.13671875
 20
-1931.130859375
 10
1941.13671875
 20
-1941.13671875
 10
1931.130859375
 20
-1951.142578125
 10
1921.125
 20
-1951.142578125
 10
1911.119140625
 20
-1951.142578125
 10
1901.11328125
 20
-1951.142578125
 10
1891.107421875
 20
-1951.142578125
 10
1881.1015625
 20
-1951.142578125
 10
1871.095703125
 20
-1951.142578125
 10
1861.08984375
 20
-1951.142578125
 10
1851.083984375
 20
-1951.142578125
 10
1841.078125
 20
-1951.142578125
 10
1831.072265625
 20
-1951.142578125
 10
1821.06640625
 20
-1951.142578125
 10
1811.060546875
 20
-1951.142578125
 10
1801.0546875
 20
-1961.1484375
 10
1791.048828125
 20
-1951.142578125
 10
1781.04296875
 20
-1951.142578125
 10
1771.037109375
 20
-1951.142578125
 10
1761.03125
 20
-1961.1484375
 10
1751.025390625
 20
-1951.142578125
 10
1741.01953125
 20
-1951.142578125
 10
1731.013671875
 20
-1961.1484375
 10
1721.0078125
 20
-1961.1484375
 10
1711.001953125
 20
-1961.1484375
 10
1700.99609375
 20
-1951.142578125
 10
1690.990234375
 20
-1961.1484375
 10
1680.984375
 20
-1951.142578125
 10
1670.978515625
 20
-1951.142578125
 10
1660.97265625
 20
-1951.142578125
 10
1650.966796875
 20
-1951.142578125
 10
1640.9609375
 20
-1951.142578125
 10
1630.955078125
 20
-1951.142578125
 10
1620.94921875
 20
-1951.142578125
 10
1610.943359375
 20
-1951.142578125
 10
1600.9375
 20
-1951.142578125
 10
1590.931640625
 20
-1951.142578125
 10
1580.92578125
 20
-1951.142578125
 10
1570.919921875
 20
-1951.142578125
 10
1560.9140625
 20
-1951.142578125
 10
1550.908203125
 20
-1951.142578125
 10
1540.90234375
 20
-1951.142578125
 10
1530.896484375
 20
-1951.142578125
 10
1520.890625
 20
-1951.142578125
 10
1510.884765625
 20
-1951.142578125
 10
1500.87890625
 20
-1951.142578125
 10
1490.873046875
 20
-1951.142578125
 10
1480.8671875
 20
-1951.142578125
 10
1470.861328125
 20
-1951.142578125
 10
1460.85546875
 20
-1951.142578125
 10
1450.849609375
 20
-1951.142578125
 10
1440.84375
 20
-1951.142578125
 10
1430.837890625
 20
-1951.142578125
 10
1420.83203125
 20
-1951.142578125
 10
1410.826171875
 20
-1951.142578125
 10
1400.8203125
 20
-1961.1484375
 10
1390.814453125
 20
-1951.142578125
 10
1380.80859375
 20
-1951.142578125
 10
1370.802734375
 20
-1951.142578125
 10
1360.796875
 20
-1951.142578125
 10
1350.791015625
 20
-1951.142578125
 10
1340.78515625
 20
-1951.142578125
 10
1330.779296875
 20
-1951.142578125
 10
1320.7734375
 20
-1961.1484375
 10
1310.767578125
 20
-1951.142578125
 10
1300.76171875
 20
-1951.142578125
 10
1290.755859375
 20
-1951.142578125
 10
1280.75
 20
-1961.1484375
 10
1270.744140625
 20
-1951.142578125
 10
1260.73828125
 20
-1951.142578125
 10
1250.732421875
 20
-1951.142578125
 10
1240.7265625
 20
-1951.142578125
 10
1230.720703125
 20
-1951.142578125
 10
1220.71484375
 20
-1951.142578125
 10
1210.708984375
 20
-1951.142578125
 10
1200.703125
 20
-1951.142578125
 10
1190.697265625
 20
-1961.1484375
 10
1180.69140625
 20
-1951.142578125
 10
1170.685546875
 20
-1951.142578125
 10
1160.6796875
 20
-1951.142578125
 10
1150.673828125
 20
-1951.142578125
 10
1140.66796875
 20
-1951.142578125
 10
1130.662109375
 20
-1951.142578125
 10
1120.65625
 20
-1961.1484375
 10
1110.650390625
 20
-1951.142578125
 10
1100.64453125
 20
-1951.142578125
 10
1090.638671875
 20
-1961.1484375
 10
1080.6328125
 20
-1951.142578125
 10
1070.626953125
 20
-1951.142578125
 10
1060.62109375
 20
-1951.142578125
 10
1050.615234375
 20
-1951.142578125
 10
1040.609375
 20
-1951.142578125
 10
1030.603515625
 20
-1951.142578125
 10
1020.59765625
 20
-1951.142578125
 10
1010.591796875
 20
-1951.142578125
 10
1000.5859375
 20
-1951.142578125
 10
990.580078125
 20
-1951.142578125
 10
980.57421875
 20
-1951.142578125
 10
970.568359375
 20
-1951.142578125
 10
960.5625
 20
-1951.142578125
 10
950.556640625
 20
-1951.142578125
 10
940.55078125
 20
-1951.142578125
 10
930.544921875
 20
-1951.142578125
 10
920.5390625
 20
-1951.142578125
 10
910.533203125
 20
-1951.142578125
 10
900.52734375
 20
-1961.1484375
 10
900.52734375
 20
-1971.154296875
 10
900.52734375
 20
-1981.16015625
 10
900.52734375
 20
-1991.166015625
 10
900.52734375
 20
-2001.171875
 10
900.52734375
 20
-2011.177734375
 10
900.52734375
 20
-2021.18359375
 10
900.52734375
 20
-2031.189453125
 10
900.52734375
 20
-2041.1953125
 10
900.52734375
 20
-2051.201171875
 10
900.52734375
 20
-2061.20703125
 10
900.52734375
 20
-2071.212890625
 10
900.52734375
 20
-2081.21875
 10
900.52734375
 20
-2091.224609375
 10
900.52734375
 20
-2101.23046875
 10
900.52734375
 20
-2111.236328125
 10
900.52734375
 20
-2121.2421875
 10
900.52734375
 20
-2131.248046875
 10
900.52734375
 20
-2141.25390625
 10
900.52734375
 20
-2151.259765625
 10
900.52734375
 20
-2161.265625
 10
900.52734375
 20
-2171.271484375
 10
900.52734375
 20
-2181.27734375
 10
900.52734375
 20
-2191.283203125
 10
900.52734375
 20
-2201.2890625
 10
900.52734375
 20
-2211.294921875
 10
900.52734375
 20
-2221.30078125
 10
900.52734375
 20
-2231.306640625
 10
900.52734375
 20
-2241.3125
 10
900.52734375
 20
-2251.318359375
 10
900.52734375
 20
-2261.32421875
 10
900.52734375
 20
-2271.330078125
 10
900.52734375
 20
-2281.3359375
 10
900.52734375
 20
-2291.341796875
 10
900.52734375
 20
-2301.34765625
 10
900.52734375
 20
-2311.353515625
 10
900.52734375
 20
-2321.359375
 10
900.52734375
 20
-2331.365234375
 10
900.52734375
 20
-2341.37109375
 10
900.52734375
 20
-2351.376953125
 10
900.52734375
 20
-2361.3828125
 10
900.52734375
 20
-2371.388671875
 10
900.52734375
 20
-2381.39453125
 10
900.52734375
 20
-2391.400390625
 10
900.52734375
 20
-2401.40625
 10
900.52734375
 20
-2411.412109375
 10
900.52734375
 20
-2421.41796875
 10
900.52734375
 20
-2431.423828125
 10
900.52734375
 20
-2441.4296875
 10
900.52734375
 20
-2451.435546875
 10
900.52734375
 20
-2461.44140625
 10
900.52734375
 20
-2471.447265625
 10
900.52734375
 20
-2481.453125
 10
900.52734375
 20
-2491.458984375
 10
900.52734375
 20
-2501.46484375
 10
900.52734375
 20
-2511.470703125
 10
900.52734375
 20
-2521.4765625
 10
900.52734375
 20
-2531.482421875
 10
900.52734375
 20
-2541.48828125
 10
900.52734375
 20
-2551.494140625
 10
900.52734375
 20
-2561.5
 10
900.52734375
 20
-2571.505859375
 10
900.52734375
 20
-2581.51171875
 10
900.52734375
 20
-2591.517578125
 10
900.52734375
 20
-2601.5234375
 10
900.52734375
 20
-2611.529296875
 10
900.52734375
 20
-2621.53515625
 10
890.521484375
 20
-2631.541015625
 10
900.52734375
 20
-2641.546875
 10
900.52734375
 20
-2651.552734375
 10
900.52734375
 20
-2661.55859375
 10
890.521484375
 20
-2671.564453125
 10
900.52734375
 20
-2681.5703125
 10
900.52734375
 20
-2691.576171875
 10
900.52734375
 20
-2701.58203125
 10
900.52734375
 20
-2711.587890625
 10
900.52734375
 20
-2721.59375
 10
900.52734375
 20
-2731.599609375
 10
900.52734375
 20
-2741.60546875
 10
900.52734375
 20
-2751.611328125
 10
900.52734375
 20
-2761.6171875
 10
900.52734375
 20
-2771.623046875
 10
900.52734375
 20
-2781.62890625
 10
900.52734375
 20
-2791.634765625
 10
900.52734375
 20
-2801.640625
 10
900.52734375
 20
-2811.646484375
 10
890.521484375
 20
-2821.65234375
 10
890.521484375
 20
-2831.658203125
 10
900.52734375
 20
-2841.6640625
 10
900.52734375
 20
-2851.669921875
 10
900.52734375
 20
-2861.67578125
 10
900.52734375
 20
-2871.681640625
 10
900.52734375
 20
-2881.6875
 10
900.52734375
 20
-2891.693359375
 10
900.52734375
 20
-2901.69921875
 10
900.52734375
 20
-2911.705078125
 10
900.52734375
 20
-2921.7109375
 10
900.52734375
 20
-2931.716796875
 10
900.52734375
 20
-2941.72265625
 10
890.521484375
 20
-2951.728515625
 10
900.52734375
 20
-2961.734375
 10
900.52734375
 20
-2971.740234375
 10
900.52734375
 20
-2981.74609375
 10
900.52734375
 20
-2991.751953125
 10
900.52734375
 20
-3001.7578125
 10
900.52734375
 20
-3011.763671875
 10
900.52734375
 20
-3021.76953125
 10
900.52734375
 20
-3031.775390625
 10
900.52734375
 20
-3041.78125
 10
900.52734375
 20
-3051.787109375
 10
900.52734375
 20
-3061.79296875
 10
900.52734375
 20
-3071.798828125
 10
900.52734375
 20
-3081.8046875
 10
900.52734375
 20
-3091.810546875
 10
900.52734375
 20
-3101.81640625
 10
900.52734375
 20
-3111.822265625
 10
900.52734375
 20
-3121.828125
 10
900.52734375
 20
-3131.833984375
 10
900.52734375
 20
-3141.83984375
 10
900.52734375
 20
-3151.845703125
 10
900.52734375
 20
-3161.8515625
 10
910.533203125
 20
-3161.8515625
 10
920.5390625
 20
-3161.8515625
 10
930.544921875
 20
-3161.8515625
 10
940.55078125
 20
-3161.8515625
 10
950.556640625
 20
-3161.8515625
 10
960.5625
 20
-3161.8515625
 10
970.568359375
 20
-3161.8515625
 10
980.57421875
 20
-3161.8515625
 10
990.580078125
 20
-3161.8515625
 10
1000.5859375
 20
-3161.8515625
 10
1010.591796875
 20
-3161.8515625
 10
1020.59765625
 20
-3161.8515625
 10
1030.603515625
 20
-3151.845703125
 10
1040.609375
 20
-3161.8515625
 10
1050.615234375
 20
-3161.8515625
 10
1060.62109375
 20
-3161.8515625
 10
1070.626953125
 20
-3161.8515625
 10
1080.6328125
 20
-3161.8515625
 10
1090.638671875
 20
-3161.8515625
 10
1100.64453125
 20
-3161.8515625
 10
1110.650390625
 20
-3161.8515625
 10
1120.65625
 20
-3161.8515625
 10
1130.662109375
 20
-3161.8515625
 10
1140.66796875
 20
-3151.845703125
 10
1150.673828125
 20
-3161.8515625
 10
1160.6796875
 20
-3151.845703125
 10
1170.685546875
 20
-3151.845703125
 10
1180.69140625
 20
-3151.845703125
 10
1190.697265625
 20
-3151.845703125
 10
1200.703125
 20
-3151.845703125
 10
1210.708984375
 20
-3161.8515625
 10
1220.71484375
 20
-3161.8515625
 10
1230.720703125
 20
-3161.8515625
 10
1240.7265625
 20
-3161.8515625
 10
1250.732421875
 20
-3151.845703125
 10
1260.73828125
 20
-3161.8515625
 10
1270.744140625
 20
-3161.8515625
 10
1280.75
 20
-3161.8515625
 10
1290.755859375
 20
-3161.8515625
 10
1300.76171875
 20
-3151.845703125
 10
1310.767578125
 20
-3161.8515625
 10
1320.7734375
 20
-3161.8515625
 10
1330.779296875
 20
-3161.8515625
 10
1340.78515625
 20
-3161.8515625
 10
1350.791015625
 20
-3151.845703125
 10
1360.796875
 20
-3151.845703125
 10
1370.802734375
 20
-3151.845703125
 10
1380.80859375
 20
-3151.845703125
 10
1390.814453125
 20
-3161.8515625
 10
1400.8203125
 20
-3161.8515625
 10
1410.826171875
 20
-3161.8515625
 10
1420.83203125
 20
-3161.8515625
 10
1430.837890625
 20
-3161.8515625
 10
1440.84375
 20
-3161.8515625
 10
1450.849609375
 20
-3161.8515625
 10
1460.85546875
 20
-3161.8515625
 10
1470.861328125
 20
-3161.8515625
 10
1480.8671875
 20
-3161.8515625
 10
1490.873046875
 20
-3151.845703125
 10
1500.87890625
 20
-3161.8515625
 10
1510.884765625
 20
-3151.845703125
 10
1520.890625
 20
-3151.845703125
 10
1530.896484375
 20
-3161.8515625
 10
1540.90234375
 20
-3161.8515625
 10
1550.908203125
 20
-3161.8515625
 10
1560.9140625
 20
-3161.8515625
 10
1570.919921875
 20
-3161.8515625
 10
1580.92578125
 20
-3161.8515625
 10
1590.931640625
 20
-3161.8515625
 10
1600.9375
 20
-3161.8515625
 10
1610.943359375
 20
-3161.8515625
 10
1620.94921875
 20
-3161.8515625
 10
1630.955078125
 20
-3161.8515625
 10
1640.9609375
 20
-3161.8515625
 10
1650.966796875
 20
-3151.845703125
 10
1660.97265625
 20
-3161.8515625
 10
1670.978515625
 20
-3151.845703125
 10
1680.984375
 20
-3161.8515625
 10
1690.990234375
 20
-3161.8515625
 10
1700.99609375
 20
-3161.8515625
 10
1711.001953125
 20
-3161.8515625
 10
1721.0078125
 20
-3161.8515625
 10
1731.013671875
 20
-3161.8515625
 10
1741.01953125
 20
-3161.8515625
 10
1751.025390625
 20
-3161.8515625
 10
1761.03125
 20
-3161.8515625
 10
1771.037109375
 20
-3161.8515625
 10
1781.04296875
 20
-3161.8515625
 10
1791.048828125
 20
-3151.845703125
 10
1801.0546875
 20
-3151.845703125
 10
1811.060546875
 20
-3151.845703125
 10
1821.06640625
 20
-3151.845703125
 10
1831.072265625
 20
-3151.845703125
 10
1841.078125
 20
-3151.845703125
 10
1851.083984375
 20
-3161.8515625
 10
1861.08984375
 20
-3161.8515625
 10
1871.095703125
 20
-3161.8515625
 10
1881.1015625
 20
-3161.8515625
 10
1891.107421875
 20
-3151.845703125
 10
1901.11328125
 20
-3151.845703125
 10
1911.119140625
 20
-3151.845703125
 10
1921.125
 20
-3161.8515625
 10
1931.130859375
 20
-3171.857421875
 10
1941.13671875
 20
-3181.86328125
 10
1941.13671875
 20
-3191.869140625
 10
1941.13671875
 20
-3201.875
 10
1941.13671875
 20
-3211.880859375
 10
1951.142578125
 20
-3221.88671875
 10
1951.142578125
 20
-3231.892578125
 10
1951.142578125
 20
-3241.8984375
 10
1951.142578125
 20
-3251.904296875
 10
1951.142578125
 20
-3261.91015625
 10
1951.142578125
 20
-3271.916015625
 10
1941.13671875
 20
-3281.921875
 10
1951.142578125
 20
-3291.927734375
 10
1951.142578125
 20
-3301.93359375
 10
1951.142578125
 20
-3311.939453125
 10
1951.142578125
 20
-3321.9453125
 10
1941.13671875
 20
-3331.951171875
 10
1941.13671875
 20
-3341.95703125
 10
1951.142578125
 20
-3351.962890625
 10
1941.13671875
 20
-3361.96875
 10
1941.13671875
 20
-3371.974609375
 10
1951.142578125
 20
-3381.98046875
 10
1951.142578125
 20
-3391.986328125
 10
1951.142578125
 20
-3401.9921875
 10
1951.142578125
 20
-3411.998046875
 10
1951.142578125
 20
-3422.00390625
 10
1951.142578125
 20
-3432.009765625
 10
1941.13671875
 20
-3442.015625
 10
1941.13671875
 20
-3452.021484375
 10
1941.13671875
 20
-3462.02734375
 10
1941.13671875
 20
-3472.033203125
 10
1951.142578125
 20
-3482.0390625
 10
1951.142578125
 20
-3492.044921875
 10
1951.142578125
 20
-3502.05078125
 10
1951.142578125
 20
-3512.056640625
 10
1951.142578125
 20
-3522.0625
 10
1951.142578125
 20
-3532.068359375
 10
1951.142578125
 20
-3542.07421875
 10
1941.13671875
 20
-3552.080078125
 10
1951.142578125
 20
-3562.0859375
 10
1941.13671875
 20
-3572.091796875
 10
1941.13671875
 20
-3582.09765625
 10
1941.13671875
 20
-3592.103515625
 10
1941.13671875
 20
-3602.109375
 10
1941.13671875
 20
-3612.115234375
 10
1951.142578125
 20
-3622.12109375
 10
1951.142578125
 20
-3632.126953125
 10
1951.142578125
 20
-3642.1328125
 10
1951.142578125
 20
-3652.138671875
 10
1951.142578125
 20
-3662.14453125
 10
1951.142578125
 20
-3672.150390625
 10
1951.142578125
 20
-3682.15625
 10
1951.142578125
 20
-3692.162109375
 10
1951.142578125
 20
-3702.16796875
 10
1951.142578125
 20
-3712.173828125
 10
1941.13671875
 20
-3722.1796875
 10
1951.142578125
 20
-3732.185546875
 10
1951.142578125
 20
-3742.19140625
 10
1951.142578125
 20
-3752.197265625
 10
1941.13671875
 20
-3762.203125
 10
1941.13671875
 20
-3772.208984375
 10
1941.13671875
 20
-3782.21484375
 10
1941.13671875
 20
-3792.220703125
 10
1951.142578125
 20
-3802.2265625
 10
1951.142578125
 20
-3812.232421875
 10
1951.142578125
 20
-3822.23828125
 10
1951.142578125
 20
-3832.244140625
 10
1941.13671875
 20
-3842.25
 10
1951.142578125
 20
-3852.255859375
 10
1951.142578125
 20
-3862.26171875
 10
1951.142578125
 20
-3872.267578125
 10
1951.142578125
 20
-3882.2734375
 10
1951.142578125
 20
-3892.279296875
 10
1951.142578125
 20
-3902.28515625
 10
1951.142578125
 20
-3912.291015625
 10
1941.13671875
 20
-3922.296875
 10
1951.142578125
 20
-3932.302734375
 10
1951.142578125
 20
-3942.30859375
 10
1951.142578125
 20
-3952.314453125
 10
1951.142578125
 20
-3962.3203125
 10
1951.142578125
 20
-3972.326171875
 10
1951.142578125
 20
-3982.33203125
 10
1951.142578125
 20
-3992.337890625
 10
1951.142578125
 20
-4002.34375
 10
1951.142578125
 20
-4012.349609375
 10
1951.142578125
 20
-4022.35546875
 10
1951.142578125
 20
-4032.361328125
 10
1951.142578125
 20
-4042.3671875
 10
1951.142578125
 20
-4052.373046875
 10
1941.13671875
 20
-4062.37890625
 10
1951.142578125
 20
-4072.384765625
 10
1941.13671875
 20
-4082.390625
 10
1941.13671875
 20
-4092.396484375
 10
1941.13671875
 20
-4102.40234375
 10
1951.142578125
 20
-4112.408203125
 10
1941.13671875
 20
-4122.4140625
 10
1951.142578125
 20
-4132.419921875
 10
1941.13671875
 20
-4142.42578125
 10
1941.13671875
 20
-4152.431640625
 10
1941.13671875
 20
-4162.4375
 10
1941.13671875
 20
-4172.443359375
 10
1951.142578125
 20
-4182.44921875
 10
1951.142578125
 20
-4192.455078125
 10
1951.142578125
 20
-4202.4609375
 10
1951.142578125
 20
-4212.466796875
 10
1961.1484375
 20
-4212.466796875
 10
1971.154296875
 20
-4212.466796875
 10
1981.16015625
 20
-4212.466796875
 10
1991.166015625
 20
-4212.466796875
 10
2001.171875
 20
-4202.4609375
 10
2011.177734375
 20
-4212.466796875
 10
2021.18359375
 20
-4212.466796875
 10
2031.189453125
 20
-4202.4609375
 10
2041.1953125
 20
-4202.4609375
 10
2051.201171875
 20
-4212.466796875
 10
2061.20703125
 20
-4212.466796875
 10
2071.212890625
 20
-4212.466796875
 10
2081.21875
 20
-4212.466796875
 10
2091.224609375
 20
-4212.466796875
 10
2101.23046875
 20
-4202.4609375
 10
2111.236328125
 20
-4202.4609375
 10
2121.2421875
 20
-4202.4609375
 10
2131.248046875
 20
-4202.4609375
 10
2141.25390625
 20
-4202.4609375
 10
2151.259765625
 20
-4202.4609375
 10
2161.265625
 20
-4212.466796875
 10
2171.271484375
 20
-4202.4609375
 10
2181.27734375
 20
-4202.4609375
 10
2191.283203125
 20
-4202.4609375
 10
2201.2890625
 20
-4202.4609375
 10
2211.294921875
 20
-4202.4609375
 10
2221.30078125
 20
-4212.466796875
 10
2231.306640625
 20
-4202.4609375
 10
2241.3125
 20
-4202.4609375
 10
2251.318359375
 20
-4212.466796875
 10
2261.32421875
 20
-4212.466796875
 10
2271.330078125
 20
-4202.4609375
 10
2281.3359375
 20
-4212.466796875
 10
2291.341796875
 20
-4202.4609375
 10
2301.34765625
 20
-4212.466796875
 10
2311.353515625
 20
-4212.466796875
 10
2321.359375
 20
-4212.466796875
 10
2331.365234375
 20
-4212.466796875
 10
2341.37109375
 20
-4202.4609375
 10
2351.376953125
 20
-4202.4609375
 10
2361.3828125
 20
-4212.466796875
 10
2371.388671875
 20
-4212.466796875
 10
2381.39453125
 20
-4212.466796875
 10
2391.400390625
 20
-4212.466796875
 10
2401.40625
 20
-4212.466796875
 10
2411.412109375
 20
-4212.466796875
 10
2421.41796875
 20
-4212.466796875
 10
2431.423828125
 20
-4212.466796875
 10
2441.4296875
 20
-4212.466796875
 10
2451.435546875
 20
-4202.4609375
 10
2461.44140625
 20
-4212.466796875
 10
2471.447265625
 20
-4212.466796875
 10
2481.453125
 20
-4212.466796875
 10
2491.458984375
 20
-4212.466796875
 10
2501.46484375
 20
-4202.4609375
 10
2511.470703125
 20
-4212.466796875
 10
2521.4765625
 20
-4212.466796875
 10
2531.482421875
 20
-4212.466796875
 10
2541.48828125
 20
-4212.466796875
 10
2551.494140625
 20
-4212.466796875
 10
2561.5
 20
-4212.466796875
 10
2571.505859375
 20
-4212.466796875
 10
2581.51171875
 20
-4212.466796875
 10
2591.517578125
 20
-4212.466796875
 10
2601.5234375
 20
-4212.466796875
 10
2611.529296875
 20
-4202.4609375
 10
2621.53515625
 20
-4212.466796875
 10
2631.541015625
 20
-4212.466796875
 10
2641.546875
 20
-4212.466796875
 10
2651.552734375
 20
-4212.466796875
 10
2661.55859375
 20
-4202.4609375
 10
2671.564453125
 20
-4202.4609375
 10
2681.5703125
 20
-4202.4609375
 10
2691.576171875
 20
-4202.4609375
 10
2701.58203125
 20
-4212.466796875
 10
2711.587890625
 20
-4212.466796875
 10
2721.59375
 20
-4212.466796875
 10
2731.599609375
 20
-4212.466796875
 10
2741.60546875
 20
-4212.466796875
 10
2751.611328125
 20
-4212.466796875
 10
2761.6171875
 20
-4212.466796875
 10
2771.623046875
 20
-4212.466796875
 10
2781.62890625
 20
-4212.466796875
 10
2791.634765625
 20
-4212.466796875
 10
2801.640625
 20
-4212.466796875
 10
2811.646484375
 20
-4212.466796875
 10
2821.65234375
 20
-4202.4609375
 10
2831.658203125
 20
-4212.466796875
 10
2841.6640625
 20
-4212.466796875
 10
2851.669921875
 20
-4212.466796875
 10
2861.67578125
 20
-4212.466796875
 10
2871.681640625
 20
-4212.466796875
 10
2881.6875
 20
-4212.466796875
 10
2891.693359375
 20
-4212.466796875
 10
2901.69921875
 20
-4212.466796875
 10
2911.705078125
 20
-4212.466796875
 10
2921.7109375
 20
-4212.466796875
 10
2931.716796875
 20
-4202.4609375
 10
2941.72265625
 20
-4212.466796875
 10
2951.728515625
 20
-4212.466796875
 10
2961.734375
 20
-4212.466796875
 10
2971.740234375
 20
-4212.466796875
 10
2981.74609375
 20
-4212.466796875
 10
2991.751953125
 20
-4212.466796875
 10
3001.7578125
 20
-4212.466796875
 10
3011.763671875
 20
-4212.466796875
 10
3021.76953125
 20
-4212.466796875
 10
3031.775390625
 20
-4212.466796875
 10
3041.78125
 20
-4212.466796875
 10
3051.787109375
 20
-4212.466796875
 10
3061.79296875
 20
-4212.466796875
 10
3071.798828125
 20
-4212.466796875
 10
3081.8046875
 20
-4212.466796875
 10
3091.810546875
 20
-4202.4609375
 10
3101.81640625
 20
-4212.466796875
 10
3111.822265625
 20
-4202.4609375
 10
3121.828125
 20
-4212.466796875
 10
3131.833984375
 20
-4212.466796875
 10
3141.83984375
 20
-4212.466796875
 10
3151.845703125
 20
-4212.466796875
 10
3161.8515625
 20
-4202.4609375
 10
3161.8515625
 20
-4192.455078125
 10
3161.8515625
 20
-4182.44921875
 10
3161.8515625
 20
-4172.443359375
 10
3161.8515625
 20
-4162.4375
 10
3161.8515625
 20
-4152.431640625
 10
3161.8515625
 20
-4142.42578125
 10
3161.8515625
 20
-4132.419921875
 10
3161.8515625
 20
-4122.4140625
 10
3161.8515625
 20
-4112.408203125
 10
3161.8515625
 20
-4102.40234375
 10
3161.8515625
 20
-4092.396484375
 10
3161.8515625
 20
-4082.390625
 10
3161.8515625
 20
-4072.384765625
 10
3161.8515625
 20
-4062.37890625
 10
3161.8515625
 20
-4052.373046875
 10
3161.8515625
 20
-4042.3671875
 10
3161.8515625
 20
-4032.361328125
 10
3161.8515625
 20
-4022.35546875
 10
3161.8515625
 20
-4012.349609375
 10
3161.8515625
 20
-4002.34375
 10
3161.8515625
 20
-3992.337890625
 10
3161.8515625
 20
-3982.33203125
 10
3161.8515625
 20
-3972.326171875
 10
3161.8515625
 20
-3962.3203125
 10
3161.8515625
 20
-3952.314453125
 10
3161.8515625
 20
-3942.30859375
 10
3161.8515625
 20
-3932.302734375
 10
3161.8515625
 20
-3922.296875
 10
3161.8515625
 20
-3912.291015625
 10
3161.8515625
 20
-3902.28515625
 10
3161.8515625
 20
-3892.279296875
 10
3161.8515625
 20
-3882.2734375
 10
3161.8515625
 20
-3872.267578125
 10
3161.8515625
 20
-3862.26171875
 10
3161.8515625
 20
-3852.255859375
 10
3161.8515625
 20
-3842.25
 10
3161.8515625
 20
-3832.244140625
 10
3161.8515625
 20
-3822.23828125
 10
3161.8515625
 20
-3812.232421875
 10
3171.857421875
 20
-3802.2265625
 10
3161.8515625
 20
-3792.220703125
 10
3161.8515625
 20
-3782.21484375
 10
3161.8515625
 20
-3772.208984375
 10
3161.8515625
 20
-3762.203125
 10
3161.8515625
 20
-3752.197265625
 10
3161.8515625
 20
-3742.19140625
 10
3161.8515625
 20
-3732.185546875
 10
3161.8515625
 20
-3722.1796875
 10
3161.8515625
 20
-3712.173828125
 10
3161.8515625
 20
-3702.16796875
 10
3161.8515625
 20
-3692.162109375
 10
3161.8515625
 20
-3682.15625
 10
3161.8515625
 20
-3672.150390625
 10
3161.8515625
 20
-3662.14453125
 10
3161.8515625
 20
-3652.138671875
 10
3161.8515625
 20
-3642.1328125
 10
3161.8515625
 20
-3632.126953125
 10
3161.8515625
 20
-3622.12109375
 10
3161.8515625
 20
-3612.115234375
 10
3161.8515625
 20
-3602.109375
 10
3161.8515625
 20
-3592.103515625
 10
3161.8515625
 20
-3582.09765625
 10
3161.8515625
 20
-3572.091796875
 10
3161.8515625
 20
-3562.0859375
 10
3161.8515625
 20
-3552.080078125
 10
3161.8515625
 20
-3542.07421875
 10
3161.8515625
 20
-3532.068359375
 10
3161.8515625
 20
-3522.0625
 10
3161.8515625
 20
-3512.056640625
 10
3171.857421875
 20
-3502.05078125
 10
3161.8515625
 20
-3492.044921875
 10
3171.857421875
 20
-3482.0390625
 10
3171.857421875
 20
-3472.033203125
 10
3161.8515625
 20
-3462.02734375
 10
3161.8515625
 20
-3452.021484375
 10
3161.8515625
 20
-3442.015625
 10
3161.8515625
 20
-3432.009765625
 10
3161.8515625
 20
-3422.00390625
 10
3161.8515625
 20
-3411.998046875
 10
3161.8515625
 20
-3401.9921875
 10
3161.8515625
 20
-3391.986328125
 10
3161.8515625
 20
-3381.98046875
 10
3161.8515625
 20
-3371.974609375
 10
3161.8515625
 20
-3361.96875
 10
3161.8515625
 20
-3351.962890625
 10
3161.8515625
 20
-3341.95703125
 10
3161.8515625
 20
-3331.951171875
 10
3161.8515625
 20
-3321.9453125
 10
3161.8515625
 20
-3311.939453125
 10
3161.8515625
 20
-3301.93359375
 10
3161.8515625
 20
-3291.927734375
 10
3161.8515625
 20
-3281.921875
 10
3161.8515625
 20
-3271.916015625
 10
3161.8515625
 20
-3261.91015625
 10
3161.8515625
 20
-3251.904296875
 10
3161.8515625
 20
-3241.8984375
 10
3161.8515625
 20
-3231.892578125
 10
3161.8515625
 20
-3221.88671875
 10
3161.8515625
 20
-3211.880859375
 10
3161.8515625
 20
-3201.875
 10
3171.857421875
 20
-3191.869140625
 10
3161.8515625
 20
-3181.86328125
 10
3171.857421875
 20
-3171.857421875
 10
3181.86328125
 20
-3161.8515625
 10
3191.869140625
 20
-3161.8515625
 10
3201.875
 20
-3161.8515625
 10
3211.880859375
 20
-3161.8515625
 10
3221.88671875
 20
-3161.8515625
 10
3231.892578125
 20
-3161.8515625
 10
3241.8984375
 20
-3171.857421875
 10
3251.904296875
 20
-3161.8515625
 10
3261.91015625
 20
-3161.8515625
 10
3271.916015625
 20
-3171.857421875
 10
3281.921875
 20
-3171.857421875
 10
3291.927734375
 20
-3161.8515625
 10
3301.93359375
 20
-3161.8515625
 10
3311.939453125
 20
-3171.857421875
 10
3321.9453125
 20
-3161.8515625
 10
3331.951171875
 20
-3161.8515625
 10
3341.95703125
 20
-3161.8515625
 10
3351.962890625
 20
-3161.8515625
 10
3361.96875
 20
-3161.8515625
 10
3371.974609375
 20
-3161.8515625
 10
3381.98046875
 20
-3161.8515625
 10
3391.986328125
 20
-3161.8515625
 10
3401.9921875
 20
-3161.8515625
 10
3411.998046875
 20
-3161.8515625
 10
3422.00390625
 20
-3161.8515625
 10
3432.009765625
 20
-3161.8515625
 10
3442.015625
 20
-3161.8515625
 10
3452.021484375
 20
-3161.8515625
 10
3462.02734375
 20
-3161.8515625
 10
3472.033203125
 20
-3161.8515625
 10
3482.0390625
 20
-3161.8515625
 10
3492.044921875
 20
-3161.8515625
 10
3502.05078125
 20
-3161.8515625
 10
3512.056640625
 20
-3161.8515625
 10
3522.0625
 20
-3161.8515625
 10
3532.068359375
 20
-3161.8515625
 10
3542.07421875
 20
-3161.8515625
 10
3552.080078125
 20
-3161.8515625
 10
3562.0859375
 20
-3161.8515625
 10
3572.091796875
 20
-3161.8515625
 10
3582.09765625
 20
-3161.8515625
 10
3592.103515625
 20
-3161.8515625
 10
3602.109375
 20
-3161.8515625
 10
3612.115234375
 20
-3161.8515625
 10
3622.12109375
 20
-3161.8515625
 10
3632.126953125
 20
-3161.8515625
 10
3642.1328125
 20
-3161.8515625
 10
3652.138671875
 20
-3161.8515625
 10
3662.14453125
 20
-3161.8515625
 10
3672.150390625
 20
-3161.8515625
 10
3682.15625
 20
-3161.8515625
 10
3692.162109375
 20
-3161.8515625
 10
3702.16796875
 20
-3161.8515625
 10
3712.173828125
 20
-3161.8515625
 10
3722.1796875
 20
-3161.8515625
 10
3732.185546875
 20
-3161.8515625
 10
3742.19140625
 20
-3161.8515625
 10
3752.197265625
 20
-3161.8515625
 10
3762.203125
 20
-3161.8515625
 10
3772.208984375
 20
-3161.8515625
 10
3782.21484375
 20
-3161.8515625
 10
3792.220703125
 20
-3161.8515625
 10
3802.2265625
 20
-3161.8515625
 10
3812.232421875
 20
-3161.8515625
 10
3822.23828125
 20
-3161.8515625
 10
3832.244140625
 20
-3161.8515625
 10
3842.25
 20
-3161.8515625
 10
3852.255859375
 20
-3161.8515625
 10
3862.26171875
 20
-3161.8515625
 10
3872.267578125
 20
-3161.8515625
 10
3882.2734375
 20
-3161.8515625
 10
3892.279296875
 20
-3161.8515625
 10
3902.28515625
 20
-3161.8515625
 10
3912.291015625
 20
-3161.8515625
 10
3922.296875
 20
-3161.8515625
 10
3932.302734375
 20
-3161.8515625
 10
3942.30859375
 20
-3151.845703125
 10
3952.314453125
 20
-3161.8515625
 10
3962.3203125
 20
-3161.8515625
 10
3972.326171875
 20
-3161.8515625
 10
3982.33203125
 20
-3161.8515625
 10
3992.337890625
 20
-3161.8515625
 10
4002.34375
 20
-3161.8515625
 10
4012.349609375
 20
-3161.8515625
 10
4022.35546875
 20
-3151.845703125
 10
4032.361328125
 20
-3161.8515625
 10
4042.3671875
 20
-3151.845703125
 10
4052.373046875
 20
-3161.8515625
 10
4062.37890625
 20
-3161.8515625
 10
4072.384765625
 20
-3161.8515625
 10
4082.390625
 20
-3161.8515625
 10
4092.396484375
 20
-3161.8515625
 10
4102.40234375
 20
-3151.845703125
 10
4112.408203125
 20
-3151.845703125
 10
4122.4140625
 20
-3161.8515625
 10
4132.419921875
 20
-3161.8515625
 10
4142.42578125
 20
-3161.8515625
 10
4152.431640625
 20
-3151.845703125
 10
4162.4375
 20
-3151.845703125
 10
4172.443359375
 20
-3161.8515625
 10
4182.44921875
 20
-3161.8515625
 10
4192.455078125
 20
-3161.8515625
 10
4202.4609375
 20
-3161.8515625
 10
4212.466796875
 20
-3161.8515625
 10
4212.466796875
 20
-3151.845703125
 10
4212.466796875
 20
-3141.83984375
 10
4212.466796875
 20
-3131.833984375
 10
4212.466796875
 20
-3121.828125
 10
4212.466796875
 20
-3111.822265625
 10
4212.466796875
 20
-3101.81640625
 10
4212.466796875
 20
-3091.810546875
 10
4212.466796875
 20
-3081.8046875
 10
4212.466796875
 20
-3071.798828125
 10
4212.466796875
 20
-3061.79296875
 10
4212.466796875
 20
-3051.787109375
 10
4212.466796875
 20
-3041.78125
 10
4212.466796875
 20
-3031.775390625
 10
4212.466796875
 20
-3021.76953125
 10
4212.466796875
 20
-3011.763671875
 10
4212.466796875
 20
-3001.7578125
 10
4212.466796875
 20
-2991.751953125
 10
4212.466796875
 20
-2981.74609375
 10
4212.466796875
 20
-2971.740234375
 10
4212.466796875
 20
-2961.734375
 10
4212.466796875
 20
-2951.728515625
 10
4212.466796875
 20
-2941.72265625
 10
4212.466796875
 20
-2931.716796875
 10
4212.466796875
 20
-2921.7109375
 10
4212.466796875
 20
-2911.705078125
 10
4212.466796875
 20
-2901.69921875
 10
4212.466796875
 20
-2891.693359375
 10
4212.466796875
 20
-2881.6875
 10
4212.466796875
 20
-2871.681640625
 10
4212.466796875
 20
-2861.67578125
 10
4212.466796875
 20
-2851.669921875
 10
4212.466796875
 20
-2841.6640625
 10
4212.466796875
 20
-2831.658203125
 10
4212.466796875
 20
-2821.65234375
 10
4212.466796875
 20
-2811.646484375
 10
4212.466796875
 20
-2801.640625
 10
4212.466796875
 20
-2791.634765625
 10
4212.466796875
 20
-2781.62890625
 10
4212.466796875
 20
-2771.623046875
 10
4212.466796875
 20
-2761.6171875
 10
4212.466796875
 20
-2751.611328125
 10
4212.466796875
 20
-2741.60546875
 10
4212.466796875
 20
-2731.599609375
 10
4212.466796875
 20
-2721.59375
 10
4212.466796875
 20
-2711.587890625
 10
4212.466796875
 20
-2701.58203125
 10
4212.466796875
 20
-2691.576171875
 10
4212.466796875
 20
-2681.5703125
 10
4212.466796875
 20
-2671.564453125
 10
4212.466796875
 20
-2661.55859375
 10
4212.466796875
 20
-2651.552734375
 10
4212.466796875
 20
-2641.546875
 10
4212.466796875
 20
-2631.541015625
 10
4212.466796875
 20
-2621.53515625
 10
4212.466796875
 20
-2611.529296875
 10
4212.466796875
 20
-2601.5234375
 10
4212.466796875
 20
-2591.517578125
 10
4212.466796875
 20
-2581.51171875
 10
4212.466796875
 20
-2571.505859375
 10
4212.466796875
 20
-2561.5
 10
4212.466796875
 20
-2551.494140625
 10
4212.466796875
 20
-2541.48828125
 10
4212.466796875
 20
-2531.482421875
 10
4212.466796875
 20
-2521.4765625
 10
4212.466796875
 20
-2511.470703125
 10
4212.466796875
 20
-2501.46484375
 10
4212.466796875
 20
-2491.458984375
 10
4212.466796875
 20
-2481.453125
 10
4212.466796875
 20
-2471.447265625
 10
4212.466796875
 20
-2461.44140625
 10
4212.466796875
 20
-2451.435546875
 10
4212.466796875
 20
-2441.4296875
 10
4212.466796875
 20
-2431.423828125
 10
4202.4609375
 20
-2421.41796875
 10
4212.466796875
 20
-2411.412109375
 10
4212.466796875
 20
-2401.40625
 10
4212.466796875
 20
-2391.400390625
 10
4212.466796875
 20
-2381.39453125
 10
4212.466796875
 20
-2371.388671875
 10
4212.466796875
 20
-2361.3828125
 10
4212.466796875
 20
-2351.376953125
 10
4212.466796875
 20
-2341.37109375
 10
4212.466796875
 20
-2331.365234375
 10
4212.466796875
 20
-2321.359375
 10
4212.466796875
 20
-2311.353515625
 10
4212.466796875
 20
-2301.34765625
 10
4212.466796875
 20
-2291.341796875
 10
4212.466796875
 20
-2281.3359375
 10
4212.466796875
 20
-2271.330078125
 10
4212.466796875
 20
-2261.32421875
 10
4212.466796875
 20
-2251.318359375
 10
4212.466796875
 20
-2241.3125
 10
4212.466796875
 20
-2231.306640625
 10
4212.466796875
 20
-2221.30078125
 10
4212.466796875
 20
-2211.294921875
 10
4212.466796875
 20
-2201.2890625
 10
4212.466796875
 20
-2191.283203125
 10
4212.466796875
 20
-2181.27734375
 10
4212.466796875
 20
-2171.271484375
 10
4212.466796875
 20
-2161.265625
 10
4202.4609375
 20
-2151.259765625
 10
4212.466796875
 20
-2141.25390625
 10
4212.466796875
 20
-2131.248046875
 10
4212.466796875
 20
-2121.2421875
 10
4212.466796875
 20
-2111.236328125
 10
4212.466796875
 20
-2101.23046875
 10
4212.466796875
 20
-2091.224609375
 10
4212.466796875
 20
-2081.21875
 10
4212.466796875
 20
-2071.212890625
 10
4212.466796875
 20
-2061.20703125
 10
4212.466796875
 20
-2051.201171875
 10
4212.466796875
 20
-2041.1953125
 10
4212.466796875
 20
-2031.189453125
 10
4212.466796875
 20
-2021.18359375
 10
4212.466796875
 20
-2011.177734375
 10
4212.466796875
 20
-2001.171875
 10
4212.466796875
 20
-1991.166015625
 10
4212.466796875
 20
-1981.16015625
 10
4212.466796875
 20
-1971.154296875
 10
4212.466796875
 20
-1961.1484375
 10
4212.466796875
 20
-1951.142578125
 10
4202.4609375
 20
-1951.142578125
 10
4192.455078125
 20
-1951.142578125
 10
4182.44921875
 20
-1941.13671875
 10
4172.443359375
 20
-1951.142578125
 10
4162.4375
 20
-1951.142578125
 10
4152.431640625
 20
-1941.13671875
 10
4142.42578125
 20
-1951.142578125
 10
4132.419921875
 20
-1951.142578125
 10
4122.4140625
 20
-1951.142578125
 10
4112.408203125
 20
-1951.142578125
 10
4102.40234375
 20
-1951.142578125
 10
4092.396484375
 20
-1951.142578125
 10
4082.390625
 20
-1951.142578125
 10
4072.384765625
 20
-1951.142578125
 10
4062.37890625
 20
-1951.142578125
 10
4052.373046875
 20
-1951.142578125
 10
4042.3671875
 20
-1951.142578125
 10
4032.361328125
 20
-1951.142578125
 10
4022.35546875
 20
-1951.142578125
 10
4012.349609375
 20
-1951.142578125
 10
4002.34375
 20
-1951.142578125
 10
3992.337890625
 20
-1941.13671875
 10
3982.33203125
 20
-1951.142578125
 10
3972.326171875
 20
-1951.142578125
 10
3962.3203125
 20
-1951.142578125
 10
3952.314453125
 20
-1951.142578125
 10
3942.30859375
 20
-1951.142578125
 10
3932.302734375
 20
-1951.142578125
 10
3922.296875
 20
-1951.142578125
 10
3912.291015625
 20
-1941.13671875
 10
3902.28515625
 20
-1951.142578125
 10
3892.279296875
 20
-1951.142578125
 10
3882.2734375
 20
-1951.142578125
 10
3872.267578125
 20
-1951.142578125
 10
3862.26171875
 20
-1951.142578125
 10
3852.255859375
 20
-1951.142578125
 10
3842.25
 20
-1951.142578125
 10
3832.244140625
 20
-1951.142578125
 10
3822.23828125
 20
-1951.142578125
 10
3812.232421875
 20
-1951.142578125
 10
3802.2265625
 20
-1951.142578125
 10
3792.220703125
 20
-1951.142578125
 10
3782.21484375
 20
-1951.142578125
 10
3772.208984375
 20
-1951.142578125
 10
3762.203125
 20
-1951.142578125
 10
3752.197265625
 20
-1951.142578125
 10
3742.19140625
 20
-1951.142578125
 10
3732.185546875
 20
-1951.142578125
 10
3722.1796875
 20
-1951.142578125
 10
3712.173828125
 20
-1951.142578125
 10
3702.16796875
 20
-1951.142578125
 10
3692.162109375
 20
-1951.142578125
 10
3682.15625
 20
-1951.142578125
 10
3672.150390625
 20
-1951.142578125
 10
3662.14453125
 20
-1951.142578125
 10
3652.138671875
 20
-1951.142578125
 10
3642.1328125
 20
-1951.142578125
 10
3632.126953125
 20
-1951.142578125
 10
3622.12109375
 20
-1951.142578125
 10
3612.115234375
 20
-1951.142578125
 10
3602.109375
 20
-1951.142578125
 10
3592.103515625
 20
-1951.142578125
 10
3582.09765625
 20
-1951.142578125
 10
3572.091796875
 20
-1951.142578125
 10
3562.0859375
 20
-1951.142578125
 10
3552.080078125
 20
-1951.142578125
 10
3542.07421875
 20
-1951.142578125
 10
3532.068359375
 20
-1951.142578125
 10
3522.0625
 20
-1951.142578125
 10
3512.056640625
 20
-1951.142578125
 10
3502.05078125
 20
-1951.142578125
 10
3492.044921875
 20
-1951.142578125
 10
3482.0390625
 20
-1951.142578125
 10
3472.033203125
 20
-1951.142578125
 10
3462.02734375
 20
-1951.142578125
 10
3452.021484375
 20
-1951.142578125
 10
3442.015625
 20
-1951.142578125
 10
3432.009765625
 20
-1961.1484375
 10
3422.00390625
 20
-1951.142578125
 10
3411.998046875
 20
-1951.142578125
 10
3401.9921875
 20
-1951.142578125
 10
3391.986328125
 20
-1951.142578125
 10
3381.98046875
 20
-1951.142578125
 10
3371.974609375
 20
-1951.142578125
 10
3361.96875
 20
-1961.1484375
 10
3351.962890625
 20
-1951.142578125
 10
3341.95703125
 20
-1951.142578125
 10
3331.951171875
 20
-1951.142578125
 10
3321.9453125
 20
-1951.142578125
 10
3311.939453125
 20
-1951.142578125
 10
3301.93359375
 20
-1951.142578125
 10
3291.927734375
 20
-1951.142578125
 10
3281.921875
 20
-1951.142578125
 10
3271.916015625
 20
-1941.13671875
 10
3261.91015625
 20
-1951.142578125
 10
3251.904296875
 20
-1951.142578125
 10
3241.8984375
 20
-1951.142578125
 10
3231.892578125
 20
-1951.142578125
 10
3221.88671875
 20
-1951.142578125
 10
3211.880859375
 20
-1951.142578125
 10
3201.875
 20
-1961.1484375
 10
3191.869140625
 20
-1951.142578125
 10
3181.86328125
 20
-1951.142578125
 10
3171.857421875
 20
-1951.142578125
 10
3161.8515625
 20
-1941.13671875
 10
3161.8515625
 20
-1931.130859375
 10
3151.845703125
 20
-1921.125
 10
3151.845703125
 20
-1911.119140625
 10
3151.845703125
 20
-1901.11328125
 10
3151.845703125
 20
-1891.107421875
 10
3151.845703125
 20
-1881.1015625
 10
3161.8515625
 20
-1871.095703125
 10
3161.8515625
 20
-1861.08984375
 10
3161.8515625
 20
-1851.083984375
 10
3151.845703125
 20
-1841.078125
 10
3151.845703125
 20
-1831.072265625
 10
3161.8515625
 20
-1821.06640625
 10
3161.8515625
 20
-1811.060546875
 10
3151.845703125
 20
-1801.0546875
 10
3151.845703125
 20
-1791.048828125
 10
3161.8515625
 20
-1781.04296875
 10
3151.845703125
 20
-1771.037109375
 10
3151.845703125
 20
-1761.03125
 10
3151.845703125
 20
-1751.025390625
 10
3151.845703125
 20
-1741.01953125
 10
3151.845703125
 20
-1731.013671875
 10
3151.845703125
 20
-1721.0078125
 10
3151.845703125
 20
-1711.001953125
 10
3151.845703125
 20
-1700.99609375
 10
3151.845703125
 20
-1690.990234375
 10
3151.845703125
 20
-1680.984375
 10
3151.845703125
 20
-1670.978515625
 10
3151.845703125
 20
-1660.97265625
 10
3151.845703125
 20
-1650.966796875
 10
3151.845703125
 20
-1640.9609375
 10
3151.845703125
 20
-1630.955078125
 10
3161.8515625
 20
-1620.94921875
 10
3161.8515625
 20
-1610.943359375
 10
3161.8515625
 20
-1600.9375
 10
3161.8515625
 20
-1590.931640625
 10
3161.8515625
 20
-1580.92578125
 10
3161.8515625
 20
-1570.919921875
 10
3161.8515625
 20
-1560.9140625
 10
3161.8515625
 20
-1550.908203125
 10
3161.8515625
 20
-1540.90234375
 10
3161.8515625
 20
-1530.896484375
 10
3161.8515625
 20
-1520.890625
 10
3161.8515625
 20
-1510.884765625
 10
3161.8515625
 20
-1500.87890625
 10
3161.8515625
 20
-1490.873046875
 10
3161.8515625
 20
-1480.8671875
 10
3161.8515625
 20
-1470.861328125
 10
3161.8515625
 20
-1460.85546875
 10
3161.8515625
 20
-1450.849609375
 10
3151.845703125
 20
-1440.84375
 10
3161.8515625
 20
-1430.837890625
 10
3161.8515625
 20
-1420.83203125
 10
3161.8515625
 20
-1410.826171875
 10
3151.845703125
 20
-1400.8203125
 10
3151.845703125
 20
-1390.814453125
 10
3161.8515625
 20
-1380.80859375
 10
3151.845703125
 20
-1370.802734375
 10
3161.8515625
 20
-1360.796875
 10
3161.8515625
 20
-1350.791015625
 10
3161.8515625
 20
-1340.78515625
 10
3161.8515625
 20
-1330.779296875
 10
3151.845703125
 20
-1320.7734375
 10
3161.8515625
 20
-1310.767578125
 10
3161.8515625
 20
-1300.76171875
 10
3161.8515625
 20
-1290.755859375
 10
3161.8515625
 20
-1280.75
 10
3161.8515625
 20
-1270.744140625
 10
3161.8515625
 20
-1260.73828125
 10
3161.8515625
 20
-1250.732421875
 10
3161.8515625
 20
-1240.7265625
 10
3161.8515625
 20
-1230.720703125
 10
3161.8515625
 20
-1220.71484375
 10
3161.8515625
 20
-1210.708984375
 10
3161.8515625
 20
-1200.703125
 10
3161.8515625
 20
-1190.697265625
 10
3161.8515625
 20
-1180.69140625
 10
3161.8515625
 20
-1170.685546875
 10
3161.8515625
 20
-1160.6796875
 10
3161.8515625
 20
-1150.673828125
 10
3161.8515625
 20
-1140.66796875
 10
3161.8515625
 20
-1130.662109375
 10
3161.8515625
 20
-1120.65625
 10
3161.8515625
 20
-1110.650390625
 10
3161.8515625
 20
-1100.64453125
 10
3161.8515625
 20
-1090.638671875
 10
3161.8515625
 20
-1080.6328125
 10
3161.8515625
 20
-1070.626953125
 10
3161.8515625
 20
-1060.62109375
 10
3161.8515625
 20
-1050.615234375
 10
3161.8515625
 20
-1040.609375
 10
3161.8515625
 20
-1030.603515625
 10
3161.8515625
 20
-1020.59765625
 10
3161.8515625
 20
-1010.591796875
 10
3161.8515625
 20
-1000.5859375
 10
3161.8515625
 20
-990.580078125
 10
3161.8515625
 20
-980.57421875
 10
3161.8515625
 20
-970.568359375
 10
3161.8515625
 20
-960.5625
 10
3161.8515625
 20
-950.556640625
 10
3161.8515625
 20
-940.55078125
 10
3161.8515625
 20
-930.544921875
 10
3161.8515625
 20
-920.5390625
 10
3161.8515625
 20
-910.533203125
 10
3161.8515625
 20
-900.52734375
 10
3151.845703125
 20
-900.52734375
 10
3141.83984375
 20
-900.52734375
 10
3131.833984375
 20
-900.52734375
 10
3121.828125
 20
-900.52734375
 10
3111.822265625
 20
-900.52734375
 10
3101.81640625
 20
-900.52734375
 10
3091.810546875
 20
-900.52734375
 10
3081.8046875
 20
-900.52734375
 10
3071.798828125
 20
-900.52734375
 10
3061.79296875
 20
-900.52734375
 10
3051.787109375
 20
-900.52734375
 10
3041.78125
 20
-900.52734375
 10
3031.775390625
 20
-900.52734375
 10
3021.76953125
 20
-900.52734375
 10
3011.763671875
 20
-900.52734375
 10
3001.7578125
 20
-900.52734375
 10
2991.751953125
 20
-900.52734375
 10
2981.74609375
 20
-900.52734375
 10
2971.740234375
 20
-900.52734375
 10
2961.734375
 20
-900.52734375
 10
2951.728515625
 20
-900.52734375
 10
2941.72265625
 20
-900.52734375
 10
2931.716796875
 20
-900.52734375
 10
2921.7109375
 20
-900.52734375
 10
2911.705078125
 20
-900.52734375
 10
2901.69921875
 20
-900.52734375
 10
2891.693359375
 20
-900.52734375
 10
2881.6875
 20
-900.52734375
 10
2871.681640625
 20
-900.52734375
 10
2861.67578125
 20
-900.52734375
 10
2851.669921875
 20
-900.52734375
 10
2841.6640625
 20
-900.52734375
 10
2831.658203125
 20
-900.52734375
 10
2821.65234375
 20
-900.52734375
 10
2811.646484375
 20
-900.52734375
 10
2801.640625
 20
-900.52734375
 10
2791.634765625
 20
-900.52734375
 10
2781.62890625
 20
-900.52734375
 10
2771.623046875
 20
-900.52734375
 10
2761.6171875
 20
-900.52734375
 10
2751.611328125
 20
-900.52734375
 10
2741.60546875
 20
-900.52734375
 10
2731.599609375
 20
-900.52734375
 10
2721.59375
 20
-900.52734375
 10
2711.587890625
 20
-900.52734375
 10
2701.58203125
 20
-900.52734375
 10
2691.576171875
 20
-900.52734375
 10
2681.5703125
 20
-910.533203125
 10
2671.564453125
 20
-900.52734375
 10
2661.55859375
 20
-900.52734375
 10
2651.552734375
 20
-900.52734375
 10
2641.546875
 20
-900.52734375
 10
2631.541015625
 20
-900.52734375
 10
2621.53515625
 20
-900.52734375
 10
2611.529296875
 20
-900.52734375
 10
2601.5234375
 20
-900.52734375
 10
2591.517578125
 20
-900.52734375
 10
2581.51171875
 20
-900.52734375
 10
2571.505859375
 20
-900.52734375
 10
2561.5
 20
-900.52734375
 10
2551.494140625
 20
-900.52734375
 10
2541.48828125
 20
-900.52734375
 10
2531.482421875
 20
-900.52734375
 10
2521.4765625
 20
-900.52734375
 10
2511.470703125
 20
-900.52734375
 10
2501.46484375
 20
-900.52734375
 10
2491.458984375
 20
-900.52734375
 10
2481.453125
 20
-900.52734375
 10
2471.447265625
 20
-900.52734375
 10
2461.44140625
 20
-900.52734375
 10
2451.435546875
 20
-900.52734375
 10
2441.4296875
 20
-900.52734375
 10
2431.423828125
 20
-900.52734375
 10
2421.41796875
 20
-900.52734375
 10
2411.412109375
 20
-900.52734375
 10
2401.40625
 20
-900.52734375
 10
2391.400390625
 20
-900.52734375
 10
2381.39453125
 20
-900.52734375
 10
2371.388671875
 20
-900.52734375
 10
2361.3828125
 20
-900.52734375
 10
2351.376953125
 20
-900.52734375
 10
2341.37109375
 20
-900.52734375
 10
2331.365234375
 20
-900.52734375
 10
2321.359375
 20
-900.52734375
 10
2311.353515625
 20
-900.52734375
 10
2301.34765625
 20
-900.52734375
 10
2291.341796875
 20
-900.52734375
 10
2281.3359375
 20
-900.52734375
 10
2271.330078125
 20
-900.52734375
 10
2261.32421875
 20
-900.52734375
 10
2251.318359375
 20
-900.52734375
 10
2241.3125
 20
-900.52734375
 10
2231.306640625
 20
-900.52734375
 10
2221.30078125
 20
-900.52734375
 10
2211.294921875
 20
-900.52734375
 10
2201.2890625
 20
-900.52734375
 10
2191.283203125
 20
-900.52734375
 10
2181.27734375
 20
-900.52734375
 10
2171.271484375
 20
-900.52734375
 10
2161.265625
 20
-900.52734375
 10
2151.259765625
 20
-900.52734375
 10
2141.25390625
 20
-900.52734375
 10
2131.248046875
 20
-900.52734375
 10
2121.2421875
 20
-900.52734375
 10
2111.236328125
 20
-900.52734375
 10
2101.23046875
 20
-900.52734375
 10
2091.224609375
 20
-900.52734375
 10
2081.21875
 20
-900.52734375
 10
2071.212890625
 20
-900.52734375
 10
2061.20703125
 20
-900.52734375
 10
2051.201171875
 20
-900.52734375
 10
2041.1953125
 20
-900.52734375
 10
2031.189453125
 20
-900.52734375
 10
2021.18359375
 20
-900.52734375
 10
2011.177734375
 20
-900.52734375
 10
2001.171875
 20
-900.52734375
 10
1991.166015625
 20
-900.52734375
 10
1981.16015625
 20
-900.52734375
 10
1971.154296875
 20
-900.52734375
 10
1961.1484375
 20
-900.52734375
  0
LWPOLYLINE
  5
33
330
17
100
AcDbEntity
  8
substrate
100
AcDbPolyline
 90
2044
 70
1
 43
0.5
 10
0.0
 20
-0.0
 10
0.0
 20
-10.005859375
 10
0.0
 20
-20.01171875
 10
0.0
 20
-30.017578125
 10
0.0
 20
-40.0234375
 10
0.0
 20
-50.029296875
 10
0.0
 20
-60.03515625
 10
0.0
 20
-70.041015625
 10
0.0
 20
-80.046875
 10
0.0
 20
-90.052734375
 10
0.0
 20
-100.05859375
 10
0.0
 20
-110.064453125
 10
0.0
 20
-120.0703125
 10
0.0
 20
-130.076171875
 10
0.0
 20
-140.08203125
 10
0.0
 20
-150.087890625
 10
0.0
 20
-160.09375
 10
0.0
 20
-170.099609375
 10
0.0
 20
-180.10546875
 10
0.0
 20
-190.111328125
 10
0.0
 20
-200.1171875
 10
0.0
 20
-210.123046875
 10
0.0
 20
-220.12890625
 10
0.0
 20
-230.134765625
 10
0.0
 20
-240.140625
 10
0.0
 20
-250.146484375
 10
0.0
 20
-260.15234375
 10
0.0
 20
-270.158203125
 10
0.0
 20
-280.1640625
 10
0.0
 20
-290.169921875
 10
0.0
 20
-300.17578125
 10
0.0
 20
-310.181640625
 10
0.0
 20
-320.1875
 10
0.0
 20
-330.193359375
 10
0.0
 20
-340.19921875
 10
0.0
 20
-350.205078125
 10
0.0
 20
-360.2109375
 10
0.0
 20
-370.216796875
 10
0.0
 20
-380.22265625
 10
0.0
 20
-390.228515625
 10
0.0
 20
-400.234375
 10
0.0
 20
-410.240234375
 10
0.0
 20
-420.24609375
 10
0.0
 20
-430.251953125
 10
0.0
 20
-440.2578125
 10
0.0
 20
-450.263671875
 10
0.0
 20
-460.26953125
 10
0.0
 20
-470.275390625
 10
0.0
 20
-480.28125
 10
0.0
 20
-490.287109375
 10
0.0
 20
-500.29296875
 10
0.0
 20
-510.298828125
 10
0.0
 20
-520.3046875
 10
0.0
 20
-530.310546875
 10
0.0
 20
-540.31640625
 10
0.0
 20
-550.322265625
 10
0.0
 20
-560.328125
 10
0.0
 20
-570.333984375
 10
0.0
 20
-580.33984375
 10
0.0
 20
-590.345703125
 10
0.0
 20
-600.3515625
 10
0.0
 20
-610.357421875
 10
0.0
 20
-620.36328125
 10
0.0
 20
-630.369140625
 10
0.0
 20
-640.375
 10
0.0
 20
-650.380859375
 10
0.0
 20
-660.38671875
 10
0.0
 20
-670.392578125
 10
0.0
 20
-680.3984375
 10
0.0
 20
-690.404296875
 10
0.0
 20
-700.41015625
 10
0.0
 20
-710.416015625
 10
0.0
 20
-720.421875
 10
0.0
 20
-730.427734375
 10
0.0
 20
-740.43359375
 10
0.0
 20
-750.439453125
 10
0.0
 20
-760.4453125
 10
0.0
 20
-770.451171875
 10
0.0
 20
-780.45703125
 10
0.0
 20
-790.462890625
 10
0.0
 20
-800.46875
 10
0.0
 20
-810.474609375
 10
0.0
 20
-820.48046875
 10
0.0
 20
-830.486328125
 10
0.0
 20
-840.4921875
 10
0.0
 20
-850.498046875
 10
0.0
 20
-860.50390625
 10
0.0
 20
-870.509765625
 10
0.0
 20
-880.515625
 10
0.0
 20
-890.521484375
 10
0.0
 20
-900.52734375
 10
0.0
 20
-910.533203125
 10
0.0
 20
-920.5390625
 10
0.0
 20
-930.544921875
 10
0.0
 20
-940.55078125
 10
0.0
 20
-950.556640625
 10
0.0
 20
-960.5625
 10
0.0
 20
-970.568359375
 10
0.0
 20
-980.57421875
 10
0.0
 20
-990.580078125
 10
0.0
 20
-1000.5859375
 10
0.0
 20
-1010.591796875
 10
0.0
 20
-1020.59765625
 10
0.0
 20
-1030.603515625
 10
0.0
 20
-1040.609375
 10
0.0
 20
-1050.615234375
 10
0.0
 20
-1060.62109375
 10
0.0
 20
-1070.626953125
 10
0.0
 20
-1080.6328125
 10
0.0
 20
-1090.638671875
 10
0.0
 20
-1100.64453125
 10
0.0
 20
-1110.650390625
 10
0.0
 20
-1120.65625
 10
0.0
 20
-1130.662109375
 10
0.0
 20
-1140.66796875
 10
0.0
 20
-1150.673828125
 10
0.0
 20
-1160.6796875
 10
0.0
 20
-1170.685546875
 10
0.0
 20
-1180.69140625
 10
0.0
 20
-1190.697265625
 10
0.0
 20
-1200.703125
 10
0.0
 20
-1210.708984375
 10
0.0
 20
-1220.71484375
 10
0.0
 20
-1230.720703125
 10
0.0
 20
-1240.7265625
 10
0.0
 20
-1250.732421875
 10
0.0
 20
-1260.73828125
 10
0.0
 20
-1270.744140625
 10
0.0
 20
-1280.75
 10
0.0
 20
-1290.755859375
 10
0.0
 20
-1300.76171875
 10
0.0
 20
-1310.767578125
 10
0.0
 20
-1320.7734375
 10
0.0
 20
-1330.779296875
 10
0.0
 20
-1340.78515625
 10
0.0
 20
-1350.791015625
 10
0.0
 20
-1360.796875
 10
0.0
 20
-1370.802734375
 10
0.0
 20
-1380.80859375
 10
0.0
 20
-1390.814453125
 10
0.0
 20
-1400.8203125
 10
0.0
 20
-1410.826171875
 10
0.0
 20
-1420.83203125
 10
0.0
 20
-1430.837890625
 10
0.0
 20
-1440.84375
 10
0.0
 20
-1450.849609375
 10
0.0
 20
-1460.85546875
 10
0.0
 20
-1470.861328125
 10
0.0
 20
-1480.8671875
 10
0.0
 20
-1490.873046875
 10
0.0
 20
-1500.87890625
 10
0.0
 20
-1510.884765625
 10
0.0
 20
-1520.890625
 10
0.0
 20
-1530.896484375
 10
0.0
 20
-1540.90234375
 10
0.0
 20
-1550.908203125
 10
0.0
 20
-1560.9140625
 10
0.0
 20
-1570.919921875
 10
0.0
 20
-1580.92578125
 10
0.0
 20
-1590.931640625
 10
0.0
 20
-1600.9375
 10
0.0
 20
-1610.943359375
 10
0.0
 20
-1620.94921875
 10
0.0
 20
-1630.955078125
 10
0.0
 20
-1640.9609375
 10
0.0
 20
-1650.966796875
 10
0.0
 20
-1660.97265625
 10
0.0
 20
-1670.978515625
 10
0.0
 20
-1680.984375
 10
0.0
 20
-1690.990234375
 10
0.0
 20
-1700.99609375
 10
0.0
 20
-1711.001953125
 10
0.0
 20
-1721.0078125
 10
0.0
 20
-1731.013671875
 10
0.0
 20
-1741.01953125
 10
0.0
 20
-1751.025390625
 10
0.0
 20
-1761.03125
 10
0.0
 20
-1771.037109375
 10
0.0
 20
-1781.04296875
 10
0.0
 20
-1791.048828125
 10
0.0
 20
-1801.0546875
 10
0.0
 20
-1811.060546875
 10
0.0
 20
-1821.06640625
 10
0.0
 20
-1831.072265625
 10
0.0
 20
-1841.078125
 10
0.0
 20
-1851.083984375
 10
0.0
 20
-1861.08984375
 10
0.0
 20
-1871.095703125
 10
0.0
 20
-1881.1015625
 10
0.0
 20
-1891.107421875
 10
0.0
 20
-1901.11328125
 10
0.0
 20
-1911.119140625
 10
0.0
 20
-1921.125
 10
0.0
 20
-1931.130859375
 10
0.0
 20
-1941.13671875
 10
0.0
 20
-1951.142578125
 10
0.0
 20
-1961.1484375
 10
0.0
 20
-1971.154296875
 10
0.0
 20
-1981.16015625
 10
0.0
 20
-1991.166015625
 10
0.0
 20
-2001.171875
 10
0.0
 20
-2011.177734375
 10
0.0
 20
-2021.18359375
 10
0.0
 20
-2031.189453125
 10
0.0
 20
-2041.1953125
 10
0.0
 20
-2051.201171875
 10
0.0
 20
-2061.20703125
 10
0.0
 20
-2071.212890625
 10
0.0
 20
-2081.21875
 10
0.0
 20
-2091.224609375
 10
0.0
 20
-2101.23046875
 10
0.0
 20
-2111.236328125
 10
0.0
 20
-2121.2421875
 10
0.0
 20
-2131.248046875
 10
0.0
 20
-2141.25390625
 10
0.0
 20
-2151.259765625
 10
0.0
 20
-2161.265625
 10
0.0
 20
-2171.271484375
 10
0.0
 20
-2181.27734375
 10
0.0
 20
-2191.283203125
 10
0.0
 20
-2201.2890625
 10
0.0
 20
-2211.294921875
 10
0.0
 20
-2221.30078125
 10
0.0
 20
-2231.306640625
 10
0.0
 20
-2241.3125
 10
0.0
 20
-2251.318359375
 10
0.0
 20
-2261.32421875
 10
0.0
 20
-2271.330078125
 10
0.0
 20
-2281.3359375
 10
0.0
 20
-2291.341796875
 10
0.0
 20
-2301.34765625
 10
0.0
 20
-2311.353515625
 10
0.0
 20
-2321.359375
 10
0.0
 20
-2331.365234375
 10
0.0
 20
-2341.37109375
 10
0.0
 20
-2351.376953125
 10
0.0
 20
-2361.3828125
 10
0.0
 20
-2371.388671875
 10
0.0
 20
-2381.39453125
 10
0.0
 20
-2391.400390625
 10
0.0
 20
-2401.40625
 10
0.0
 20
-2411.412109375
 10
0.0
 20
-2421.41796875
 10
0.0
 20
-2431.423828125
 10
0.0
 20
-2441.4296875
 10
0.0
 20
-2451.435546875
 10
0.0
 20
-2461.44140625
 10
0.0
 20
-2471.447265625
 10
0.0
 20
-2481.453125
 10
0.0
 20
-2491.458984375
 10
0.0
 20
-2501.46484375
 10
0.0
 20
-2511.470703125
 10
0.0
 20
-2521.4765625
 10
0.0
 20
-2531.482421875
 10
0.0
 20
-2541.48828125
 10
0.0
 20
-2551.494140625
 10
0.0
 20
-2561.5
 10
0.0
 20
-2571.505859375
 10
0.0
 20
-2581.51171875
 10
0.0
 20
-2591.517578125
 10
0.0
 20
-2601.5234375
 10
0.0
 20
-2611.529296875
 10
0.0
 20
-2621.53515625
 10
0.0
 20
-2631.541015625
 10
0.0
 20
-2641.546875
 10
0.0
 20
-2651.552734375
 10
0.0
 20
-2661.55859375
 10
0.0
 20
-2671.564453125
 10
0.0
 20
-2681.5703125
 10
0.0
 20
-2691.576171875
 10
0.0
 20
-2701.58203125
 10
0.0
 20
-2711.587890625
 10
0.0
 20
-2721.59375
 10
0.0
 20
-2731.599609375
 10
0.0
 20
-2741.60546875
 10
0.0
 20
-2751.611328125
 10
0.0
 20
-2761.6171875
 10
0.0
 20
-2771.623046875
 10
0.0
 20
-2781.62890625
 10
0.0
 20
-2791.634765625
 10
0.0
 20
-2801.640625
 10
0.0
 20
-2811.646484375
 10
0.0
 20
-2821.65234375
 10
0.0
 20
-2831.658203125
 10
0.0
 20
-2841.6640625
 10
0.0
 20
-2851.669921875
 10
0.0
 20
-2861.67578125
 10
0.0
 20
-2871.681640625
 10
0.0
 20
-2881.6875
 10
0.0
 20
-2891.693359375
 10
0.0
 20
-2901.69921875
 10
0.0
 20
-2911.705078125
 10
0.0
 20
-2921.7109375
 10
0.0
 20
-2931.716796875
 10
0.0
 20
-2941.72265625
 10
0.0
 20
-2951.728515625
 10
0.0
 20
-2961.734375
 10
0.0
 20
-2971.740234375
 10
0.0
 20
-2981.74609375
 10
0.0
 20
-2991.751953125
 10
0.0
 20
-3001.7578125
 10
0.0
 20
-3011.763671875
 10
0.0
 20
-3021.76953125
 10
0.0
 20
-3031.775390625
 10
0.0
 20
-3041.78125
 10
0.0
 20
-3051.787109375
 10
0.0
 20
-3061.79296875
 10
0.0
 20
-3071.798828125
 10
0.0
 20
-3081.8046875
 10
0.0
 20
-3091.810546875
 10
0.0
 20
-3101.81640625
 10
0.0
 20
-3111.822265625
 10
0.0
 20
-3121.828125
 10
0.0
 20
-3131.833984375
 10
0.0
 20
-3141.83984375
 10
0.0
 20
-3151.845703125
 10
0.0
 20
-3161.8515625
 10
0.0
 20
-3171.857421875
 10
0.0
 20
-3181.86328125
 10
0.0
 20
-3191.869140625
 10
0.0
 20
-3201.875
 10
0.0
 20
-3211.880859375
 10
0.0
 20
-3221.88671875
 10
0.0
 20
-3231.892578125
 10
0.0
 20
-3241.8984375
 10
0.0
 20
-3251.904296875
 10
0.0
 20
-3261.91015625
 10
0.0
 20
-3271.916015625
 10
0.0
 20
-3281.921875
 10
0.0
 20
-3291.927734375
 10
0.0
 20
-3301.93359375
 10
0.0
 20
-3311.939453125
 10
0.0
 20
-3321.9453125
 10
0.0
 20
-3331.951171875
 10
0.0
 20
-3341.95703125
 10
0.0
 20
-3351.962890625
 10
0.0
 20
-3361.96875
 10
0.0
 20
-3371.974609375
 10
0.0
 20
-3381.98046875
 10
0.0
 20
-3391.986328125
 10
0.0
 20
-3401.9921875
 10
0.0
 20
-3411.998046875
 10
0.0
 20
-3422.00390625
 10
0.0
 20
-3432.009765625
 10
0.0
 20
-3442.015625
 10
0.0
 20
-3452.021484375
 10
0.0
 20
-3462.02734375
 10
0.0
 20
-3472.033203125
 10
0.0
 20
-3482.0390625
 10
0.0
 20
-3492.044921875
 10
0.0
 20
-3502.05078125
 10
0.0
 20
-3512.056640625
 10
0.0
 20
-3522.0625
 10
0.0
 20
-3532.068359375
 10
0.0
 20
-3542.07421875
 10
0.0
 20
-3552.080078125
 10
0.0
 20
-3562.0859375
 10
0.0
 20
-3572.091796875
 10
0.0
 20
-3582.09765625
 10
0.0
 20
-3592.103515625
 10
0.0
 20
-3602.109375
 10
0.0
 20
-3612.115234375
 10
0.0
 20
-3622.12109375
 10
0.0
 20
-3632.126953125
 10
0.0
 20
-3642.1328125
 10
0.0
 20
-3652.138671875
 10
0.0
 20
-3662.14453125
 10
0.0
 20
-3672.150390625
 10
0.0
 20
-3682.15625
 10
0.0
 20
-3692.162109375
 10
0.0
 20
-3702.16796875
 10
0.0
 20
-3712.173828125
 10
0.0
 20
-3722.1796875
 10
0.0
 20
-3732.185546875
 10
0.0
 20
-3742.19140625
 10
0.0
 20
-3752.197265625
 10
0.0
 20
-3762.203125
 10
0.0
 20
-3772.208984375
 10
0.0
 20
-3782.21484375
 10
0.0
 20
-3792.220703125
 10
0.0
 20
-3802.2265625
 10
0.0
 20
-3812.232421875
 10
0.0
 20
-3822.23828125
 10
0.0
 20
-3832.244140625
 10
0.0
 20
-3842.25
 10
0.0
 20
-3852.255859375
 10
0.0
 20
-3862.26171875
 10
0.0
 20
-3872.267578125
 10
0.0
 20
-3882.2734375
 10
0.0
 20
-3892.279296875
 10
0.0
 20
-3902.28515625
 10
0.0
 20
-3912.291015625
 10
0.0
 20
-3922.296875
 10
0.0
 20
-3932.302734375
 10
0.0
 20
-3942.30859375
 10
0.0
 20
-3952.314453125
 10
0.0
 20
-3962.3203125
 10
0.0
 20
-3972.326171875
 10
0.0
 20
-3982.33203125
 10
0.0
 20
-3992.337890625
 10
0.0
 20
-4002.34375
 10
0.0
 20
-4012.349609375
 10
0.0
 20
-4022.35546875
 10
0.0
 20
-4032.361328125
 10
0.0
 20
-4042.3671875
 10
0.0
 20
-4052.373046875
 10
0.0
 20
-4062.37890625
 10
0.0
 20
-4072.384765625
 10
0.0
 20
-4082.390625
 10
0.0
 20
-4092.396484375
 10
0.0
 20
-4102.40234375
 10
0.0
 20
-4112.408203125
 10
0.0
 20
-4122.4140625
 10
0.0
 20
-4132.419921875
 10
0.0
 20
-4142.42578125
 10
0.0
 20
-4152.431640625
 10
0.0
 20
-4162.4375
 10
0.0
 20
-4172.443359375
 10
0.0
 20
-4182.44921875
 10
0.0
 20
-4192.455078125
 10
0.0
 20
-4202.4609375
 10
0.0
 20
-4212.466796875
 10
0.0
 20
-4222.47265625
 10
0.0
 20
-4232.478515625
 10
0.0
 20
-4242.484375
 10
0.0
 20
-4252.490234375
 10
0.0
 20
-4262.49609375
 10
0.0
 20
-4272.501953125
 10
0.0
 20
-4282.5078125
 10
0.0
 20
-4292.513671875
 10
0.0
 20
-4302.51953125
 10
0.0
 20
-4312.525390625
 10
0.0
 20
-4322.53125
 10
0.0
 20
-4332.537109375
 10
0.0
 20
-4342.54296875
 10
0.0
 20
-4352.548828125
 10
0.0
 20
-4362.5546875
 10
0.0
 20
-4372.560546875
 10
0.0
 20
-4382.56640625
 10
0.0
 20
-4392.572265625
 10
0.0
 20
-4402.578125
 10
0.0
 20
-4412.583984375
 10
0.0
 20
-4422.58984375
 10
0.0
 20
-4432.595703125
 10
0.0
 20
-4442.6015625
 10
0.0
 20
-4452.607421875
 10
0.0
 20
-4462.61328125
 10
0.0
 20
-4472.619140625
 10
0.0
 20
-4482.625
 10
0.0
 20
-4492.630859375
 10
0.0
 20
-4502.63671875
 10
0.0
 20
-4512.642578125
 10
0.0
 20
-4522.6484375
 10
0.0
 20
-4532.654296875
 10
0.0
 20
-4542.66015625
 10
0.0
 20
-4552.666015625
 10
0.0
 20
-4562.671875
 10
0.0
 20
-4572.677734375
 10
0.0
 20
-4582.68359375
 10
0.0
 20
-4592.689453125
 10
0.0
 20
-4602.6953125
 10
0.0
 20
-4612.701171875
 10
0.0
 20
-4622.70703125
 10
0.0
 20
-4632.712890625
 10
0.0
 20
-4642.71875
 10
0.0
 20
-4652.724609375
 10
0.0
 20
-4662.73046875
 10
0.0
 20
-4672.736328125
 10
0.0
 20
-4682.7421875
 10
0.0
 20
-4692.748046875
 10
0.0
 20
-4702.75390625
 10
0.0
 20
-4712.759765625
 10
0.0
 20
-4722.765625
 10
0.0
 20
-4732.771484375
 10
0.0
 20
-4742.77734375
 10
0.0
 20
-4752.783203125
 10
0.0
 20
-4762.7890625
 10
0.0
 20
-4772.794921875
 10
0.0
 20
-4782.80078125
 10
0.0
 20
-4792.806640625
 10
0.0
 20
-4802.8125
 10
0.0
 20
-4812.818359375
 10
0.0
 20
-4822.82421875
 10
0.0
 20
-4832.830078125
 10
0.0
 20
-4842.8359375
 10
0.0
 20
-4852.841796875
 10
0.0
 20
-4862.84765625
 10
0.0
 20
-4872.853515625
 10
0.0
 20
-4882.859375
 10
0.0
 20
-4892.865234375
 10
0.0
 20
-4902.87109375
 10
0.0
 20
-4912.876953125
 10
0.0
 20
-4922.8828125
 10
0.0
 20
-4932.888671875
 10
0.0
 20
-4942.89453125
 10
0.0
 20
-4952.900390625
 10
0.0
 20
-4962.90625
 10
0.0
 20
-4972.912109375
 10
0.0
 20
-4982.91796875
 10
0.0
 20
-4992.923828125
 10
0.0
 20
-5002.9296875
 10
0.0
 20
-5012.935546875
 10
0.0
 20
-5022.94140625
 10
0.0
 20
-5032.947265625
 10
0.0
 20
-5042.953125
 10
0.0
 20
-5052.958984375
 10
0.0
 20
-5062.96484375
 10
0.0
 20
-5072.970703125
 10
0.0
 20
-5082.9765625
 10
0.0
 20
-5092.982421875
 10
0.0
 20
-5102.98828125
 10
0.0
 20
-5112.994140625
 10
10.005859375
 20
-5112.994140625
 10
20.01171875
 20
-5112.994140625
 10
30.017578125
 20
-5112.994140625
 10
40.0234375
 20
-5112.994140625
 10
50.029296875
 20
-5112.994140625
 10
60.03515625
 20
-5112.994140625
 10
70.041015625
 20
-5112.994140625
 10
80.046875
 20
-5112.994140625
 10
90.052734375
 20
-5112.994140625
 10
100.05859375
 20
-5112.994140625
 10
110.064453125
 20
-5112.994140625
 10
120.0703125
 20
-5112.994140625
 10
130.076171875
 20
-5112.994140625
 10
140.08203125
 20
-5112.994140625
 10
150.087890625
 20
-5112.994140625
 10
160.09375
 20
-5112.994140625
 10
170.099609375
 20
-5112.994140625
 10
180.10546875
 20
-5112.994140625
 10
190.111328125
 20
-5112.994140625
 10
200.1171875
 20
-5112.994140625
 10
210.123046875
 20
-5112.994140625
 10
220.12890625
 20
-5112.994140625
 10
230.134765625
 20
-5112.994140625
 10
240.140625
 20
-5112.994140625
 10
250.146484375
 20
-5112.994140625
 10
260.15234375
 20
-5112.994140625
 10
270.158203125
 20
-5112.994140625
 10
280.1640625
 20
-5112.994140625
 10
290.169921875
 20
-5112.994140625
 10
300.17578125
 20
-5112.994140625
 10
310.181640625
 20
-5112.994140625
 10
320.1875
 20
-5112.994140625
 10
330.193359375
 20
-5112.994140625
 10
340.19921875
 20
-5112.994140625
 10
350.205078125
 20
-5112.994140625
 10
360.2109375
 20
-5112.994140625
 10
370.216796875
 20
-5112.994140625
 10
380.22265625
 20
-5112.994140625
 10
390.228515625
 20
-5112.994140625
 10
400.234375
 20
-5112.994140625
 10
410.240234375
 20
-5112.994140625
 10
420.24609375
 20
-5112.994140625
 10
430.251953125
 20
-5112.994140625
 10
440.2578125
 20
-5112.994140625
 10
450.263671875
 20
-5112.994140625
 10
460.26953125
 20
-5112.994140625
 10
470.275390625
 20
-5112.994140625
 10
480.28125
 20
-5112.994140625
 10
490.287109375
 20
-5112.994140625
 10
500.29296875
 20
-5112.994140625
 10
510.298828125
 20
-5112.994140625
 10
520.3046875
 20
-5112.994140625
 10
530.310546875
 20
-5112.994140625
 10
540.31640625
 20
-5112.994140625
 10
550.322265625
 20
-5112.994140625
 10
560.328125
 20
-5112.994140625
 10
570.333984375
 20
-5112.994140625
 10
580.33984375
 20
-5112.994140625
 10
590.345703125
 20
-5112.994140625
 10
600.3515625
 20
-5112.994140625
 10
610.357421875
 20
-5112.994140625
 10
620.36328125
 20
-5112.994140625
 10
630.369140625
 20
-5112.994140625
 10
640.375
 20
-5112.994140625
 10
650.380859375
 20
-5112.994140625
 10
660.38671875
 20
-5112.994140625
 10
670.392578125
 20
-5112.994140625
 10
680.3984375
 20
-5112.994140625
 10
690.404296875
 20
-5112.994140625
 10
700.41015625
 20
-5112.994140625
 10
710.416015625
 20
-5112.994140625
 10
720.421875
 20
-5112.994140625
 10
730.427734375
 20
-5112.994140625
 10
740.43359375
 20
-5112.994140625
 10
750.439453125
 20
-5112.994140625
 10
760.4453125
 20
-5112.994140625
 10
770.451171875
 20
-5112.994140625
 10
780.45703125
 20
-5112.994140625
 10
790.462890625
 20
-5112.994140625
 10
800.46875
 20
-5112.994140625
 10
810.474609375
 20
-5112.994140625
 10
820.48046875
 20
-5112.994140625
 10
830.486328125
 20
-5112.994140625
 10
840.4921875
 20
-5112.994140625
 10
850.498046875
 20
-5112.994140625
 10
860.50390625
 20
-5112.994140625
 10
870.509765625
 20
-5112.994140625
 10
880.515625
 20
-5112.994140625
 10
890.521484375
 20
-5112.994140625
 10
900.52734375
 20
-5112.994140625
 10
910.533203125
 20
-5112.994140625
 10
920.5390625
 20
-5112.994140625
 10
930.544921875
 20
-5112.994140625
 10
940.55078125
 20
-5112.994140625
 10
950.556640625
 20
-5112.994140625
 10
960.5625
 20
-5112.994140625
 10
970.568359375
 20
-5112.994140625
 10
980.57421875
 20
-5112.994140625
 10
990.580078125
 20
-5112.994140625
 10
1000.5859375
 20
-5112.994140625
 10
1010.591796875
 20
-5112.994140625
 10
1020.59765625
 20
-5112.994140625
 10
1030.603515625
 20
-5112.994140625
 10
1040.609375
 20
-5112.994140625
 10
1050.615234375
 20
-5112.994140625
 10
1060.62109375
 20
-5112.994140625
 10
1070.626953125
 20
-5112.994140625
 10
1080.6328125
 20
-5112.994140625
 10
1090.638671875
 20
-5112.994140625
 10
1100.64453125
 20
-5112.994140625
 10
1110.650390625
 20
-5112.994140625
 10
1120.65625
 20
-5112.994140625
 10
1130.662109375
 20
-5112.994140625
 10
1140.66796875
 20
-5112.994140625
 10
1150.673828125
 20
-5112.994140625
 10
1160.6796875
 20
-5112.994140625
 10
1170.685546875
 20
-5112.994140625
 10
1180.69140625
 20
-5112.994140625
 10
1190.697265625
 20
-5112.994140625
 10
1200.703125
 20
-5112.994140625
 10
1210.708984375
 20
-5112.994140625
 10
1220.71484375
 20
-5112.994140625
 10
1230.720703125
 20
-5112.994140625
 10
1240.7265625
 20
-5112.994140625
 10
1250.732421875
 20
-5112.994140625
 10
1260.73828125
 20
-5112.994140625
 10
1270.744140625
 20
-5112.994140625
 10
1280.75
 20
-5112.994140625
 10
1290.755859375
 20
-5112.994140625
 10
1300.76171875
 20
-5112.994140625
 10
1310.767578125
 20
-5112.994140625
 10
1320.7734375
 20
-5112.994140625
 10
1330.779296875
 20
-5112.994140625
 10
1340.78515625
 20
-5112.994140625
 10
1350.791015625
 20
-5112.994140625
 10
1360.796875
 20
-5112.994140625
 10
1370.802734375
 20
-5112.994140625
 10
1380.80859375
 20
-5112.994140625
 10
1390.814453125
 20
-5112.994140625
 10
1400.8203125
 20
-5112.994140625
 10
1410.826171875
 20
-5112.994140625
 10
1420.83203125
 20
-5112.994140625
 10
1430.837890625
 20
-5112.994140625
 10
1440.84375
 20
-5112.994140625
 10
1450.849609375
 20
-5112.994140625
 10
1460.85546875
 20
-5112.994140625
 10
1470.861328125
 20
-5112.994140625
 10
1480.8671875
 20
-5112.994140625
 10
1490.873046875
 20
-5112.994140625
 10
1500.87890625
 20
-5112.994140625
 10
1510.884765625
 20
-5112.994140625
 10
1520.890625
 20
-5112.994140625
 10
1530.896484375
 20
-5112.994140625
 10
1540.90234375
 20
-5112.994140625
 10
1550.908203125
 20
-5112.994140625
 10
1560.9140625
 20
-5112.994140625
 10
1570.919921875
 20
-5112.994140625
 10
1580.92578125
 20
-5112.994140625
 10
1590.931640625
 20
-5112.994140625
 10
1600.9375
 20
-5112.994140625
 10
1610.943359375
 20
-5112.994140625
 10
1620.94921875
 20
-5112.994140625
 10
1630.955078125
 20
-5112.994140625
 10
1640.9609375
 20
-5112.994140625
 10
1650.966796875
 20
-5112.994140625
 10
1660.97265625
 20
-5112.994140625
 10
1670.978515625
 20
-5112.994140625
 10
1680.984375
 20
-5112.994140625
 10
1690.990234375
 20
-5112.994140625
 10
1700.99609375
 20
-5112.994140625
 10
1711.001953125
 20
-5112.994140625
 10
1721.0078125
 20
-5112.994140625
 10
1731.013671875
 20
-5112.994140625
 10
1741.01953125
 20
-5112.994140625
 10
1751.025390625
 20
-5112.994140625
 10
1761.03125
 20
-5112.994140625
 10
1771.037109375
 20
-5112.994140625
 10
1781.04296875
 20
-5112.994140625
 10
1791.048828125
 20
-5112.994140625
 10
1801.0546875
 20
-5112.994140625
 10
1811.060546875
 20
-5112.994140625
 10
1821.06640625
 20
-5112.994140625
 10
1831.072265625
 20
-5112.994140625
 10
1841.078125
 20
-5112.994140625
 10
1851.083984375
 20
-5112.994140625
 10
1861.08984375
 20
-5112.994140625
 10
1871.095703125
 20
-5112.994140625
 10
1881.1015625
 20
-5112.994140625
 10
1891.107421875
 20
-5112.994140625
 10
1901.11328125
 20
-5112.994140625
 10
1911.119140625
 20
-5112.994140625
 10
1921.125
 20
-5112.994140625
 10
1931.130859375
 20
-5112.994140625
 10
1941.13671875
 20
-5112.994140625
 10
1951.142578125
 20
-5112.994140625
 10
1961.1484375
 20
-5112.994140625
 10
1971.154296875
 20
-5112.994140625
 10
1981.16015625
 20
-5112.994140625
 10
1991.166015625
 20
-5112.994140625
 10
2001.171875
 20
-5112.994140625
 10
2011.177734375
 20
-5112.994140625
 10
2021.18359375
 20
-5112.994140625
 10
2031.189453125
 20
-5112.994140625
 10
2041.1953125
 20
-5112.994140625
 10
2051.201171875
 20
-5112.994140625
 10
2061.20703125
 20
-5112.994140625
 10
2071.212890625
 20
-5112.994140625
 10
2081.21875
 20
-5112.994140625
 10
2091.224609375
 20
-5112.994140625
 10
2101.23046875
 20
-5112.994140625
 10
2111.236328125
 20
-5112.994140625
 10
2121.2421875
 20
-5112.994140625
 10
2131.248046875
 20
-5112.994140625
 10
2141.25390625
 20
-5112.994140625
 10
2151.259765625
 20
-5112.994140625
 10
2161.265625
 20
-5112.994140625
 10
2171.271484375
 20
-5112.994140625
 10
2181.27734375
 20
-5112.994140625
 10
2191.283203125
 20
-5112.994140625
 10
2201.2890625
 20
-5112.994140625
 10
2211.294921875
 20
-5112.994140625
 10
2221.30078125
 20
-5112.994140625
 10
2231.306640625
 20
-5112.994140625
 10
2241.3125
 20
-5112.994140625
 10
2251.318359375
 20
-5112.994140625
 10
2261.32421875
 20
-5112.994140625
 10
2271.330078125
 20
-5112.994140625
 10
2281.3359375
 20
-5112.994140625
 10
2291.341796875
 20
-5112.994140625
 10
2301.34765625
 20
-5112.994140625
 10
2311.353515625
 20
-5112.994140625
 10
2321.359375
 20
-5112.994140625
 10
2331.365234375
 20
-5112.994140625
 10
2341.37109375
 20
-5112.994140625
 10
2351.376953125
 20
-5112.994140625
 10
2361.3828125
 20
-5112.994140625
 10
2371.388671875
 20
-5112.994140625
 10
2381.39453125
 20
-5112.994140625
 10
2391.400390625
 20
-5112.994140625
 10
2401.40625
 20
-5112.994140625
 10
2411.412109375
 20
-5112.994140625
 10
2421.41796875
 20
-5112.994140625
 10
2431.423828125
 20
-5112.994140625
 10
2441.4296875
 20
-5112.994140625
 10
2451.435546875
 20
-5112.994140625
 10
2461.44140625
 20
-5112.994140625
 10
2471.447265625
 20
-5112.994140625
 10
2481.453125
 20
-5112.994140625
 10
2491.458984375
 20
-5112.994140625
 10
2501.46484375
 20
-5112.994140625
 10
2511.470703125
 20
-5112.994140625
 10
2521.4765625
 20
-5112.994140625
 10
2531.482421875
 20
-5112.994140625
 10
2541.48828125
 20
-5112.994140625
 10
2551.494140625
 20
-5112.994140625
 10
2561.5
 20
-5112.994140625
 10
2571.505859375
 20
-5112.994140625
 10
2581.51171875
 20
-5112.994140625
 10
2591.517578125
 20
-5112.994140625
 10
2601.5234375
 20
-5112.994140625
 10
2611.529296875
 20
-5112.994140625
 10
2621.53515625
 20
-5112.994140625
 10
2631.541015625
 20
-5112.994140625
 10
2641.546875
 20
-5112.994140625
 10
2651.552734375
 20
-5112.994140625
 10
2661.55859375
 20
-5112.994140625
 10
2671.564453125
 20
-5112.994140625
 10
2681.5703125
 20
-5112.994140625
 10
2691.576171875
 20
-5112.994140625
 10
2701.58203125
 20
-5112.994140625
 10
2711.587890625
 20
-5112.994140625
 10
2721.59375
 20
-5112.994140625
 10
2731.599609375
 20
-5112.994140625
 10
2741.60546875
 20
-5112.994140625
 10
2751.611328125
 20
-5112.994140625
 10
2761.6171875
 20
-5112.994140625
 10
2771.623046875
 20
-5112.994140625
 10
2781.62890625
 20
-5112.994140625
 10
2791.634765625
 20
-5112.994140625
 10
2801.640625
 20
-5112.994140625
 10
2811.646484375
 20
-5112.994140625
 10
2821.65234375
 20
-5112.994140625
 10
2831.658203125
 20
-5112.994140625
 10
2841.6640625
 20
-5112.994140625
 10
2851.669921875
 20
-5112.994140625
 10
2861.67578125
 20
-5112.994140625
 10
2871.681640625
 20
-5112.994140625
 10
2881.6875
 20
-5112.994140625
 10
2891.693359375
 20
-5112.994140625
 10
2901.69921875
 20
-5112.994140625
 10
2911.705078125
 20
-5112.994140625
 10
2921.7109375
 20
-5112.994140625
 10
2931.716796875
 20
-5112.994140625
 10
2941.72265625
 20
-5112.994140625
 10
2951.728515625
 20
-5112.994140625
 10
2961.734375
 20
-5112.994140625
 10
2971.740234375
 20
-5112.994140625
 10
2981.74609375
 20
-5112.994140625
 10
2991.751953125
 20
-5112.994140625
 10
3001.7578125
 20
-5112.994140625
 10
3011.763671875
 20
-5112.994140625
 10
3021.76953125
 20
-5112.994140625
 10
3031.775390625
 20
-5112.994140625
 10
3041.78125
 20
-5112.994140625
 10
3051.787109375
 20
-5112.994140625
 10
3061.79296875
 20
-5112.994140625
 10
3071.798828125
 20
-5112.994140625
 10
3081.8046875
 20
-5112.994140625
 10
3091.810546875
 20
-5112.994140625
 10
3101.81640625
 20
-5112.994140625
 10
3111.822265625
 20
-5112.994140625
 10
3121.828125
 20
-5112.994140625
 10
3131.833984375
 20
-5112.994140625
 10
3141.83984375
 20
-5112.994140625
 10
3151.845703125
 20
-5112.994140625
 10
3161.8515625
 20
-5112.994140625
 10
3171.857421875
 20
-5112.994140625
 10
3181.86328125
 20
-5112.994140625
 10
3191.869140625
 20
-5112.994140625
 10
3201.875
 20
-5112.994140625
 10
3211.880859375
 20
-5112.994140625
 10
3221.88671875
 20
-5112.994140625
 10
3231.892578125
 20
-5112.994140625
 10
3241.8984375
 20
-5112.994140625
 10
3251.904296875
 20
-5112.994140625
 10
3261.91015625
 20
-5112.994140625
 10
3271.916015625
 20
-5112.994140625
 10
3281.921875
 20
-5112.994140625
 10
3291.927734375
 20
-5112.994140625
 10
3301.93359375
 20
-5112.994140625
 10
3311.939453125
 20
-5112.994140625
 10
3321.9453125
 20
-5112.994140625
 10
3331.951171875
 20
-5112.994140625
 10
3341.95703125
 20
-5112.994140625
 10
3351.962890625
 20
-5112.994140625
 10
3361.96875
 20
-5112.994140625
 10
3371.974609375
 20
-5112.994140625
 10
3381.98046875
 20
-5112.994140625
 10
3391.986328125
 20
-5112.994140625
 10
3401.9921875
 20
-5112.994140625
 10
3411.998046875
 20
-5112.994140625
 10
3422.00390625
 20
-5112.994140625
 10
3432.009765625
 20
-5112.994140625
 10
3442.015625
 20
-5112.994140625
 10
3452.021484375
 20
-5112.994140625
 10
3462.02734375
 20
-5112.994140625
 10
3472.033203125
 20
-5112.994140625
 10
3482.0390625
 20
-5112.994140625
 10
3492.044921875
 20
-5112.994140625
 10
3502.05078125
 20
-5112.994140625
 10
3512.056640625
 20
-5112.994140625
 10
3522.0625
 20
-5112.994140625
 10
3532.068359375
 20
-5112.994140625
 10
3542.07421875
 20
-5112.994140625
 10
3552.080078125
 20
-5112.994140625
 10
3562.0859375
 20
-5112.994140625
 10
3572.091796875
 20
-5112.994140625
 10
3582.09765625
 20
-5112.994140625
 10
3592.103515625
 20
-5112.994140625
 10
3602.109375
 20
-5112.994140625
 10
3612.115234375
 20
-5112.994140625
 10
3622.12109375
 20
-5112.994140625
 10
3632.126953125
 20
-5112.994140625
 10
3642.1328125
 20
-5112.994140625
 10
3652.138671875
 20
-5112.994140625
 10
3662.14453125
 20
-5112.994140625
 10
3672.150390625
 20
-5112.994140625
 10
3682.15625
 20
-5112.994140625
 10
3692.162109375
 20
-5112.994140625
 10
3702.16796875
 20
-5112.994140625
 10
3712.173828125
 20
-5112.994140625
 10
3722.1796875
 20
-5112.994140625
 10
3732.185546875
 20
-5112.994140625
 10
3742.19140625
 20
-5112.994140625
 10
3752.197265625
 20
-5112.994140625
 10
3762.203125
 20
-5112.994140625
 10
3772.208984375
 20
-5112.994140625
 10
3782.21484375
 20
-5112.994140625
 10
3792.220703125
 20
-5112.994140625
 10
3802.2265625
 20
-5112.994140625
 10
3812.232421875
 20
-5112.994140625
 10
3822.23828125
 20
-5112.994140625
 10
3832.244140625
 20
-5112.994140625
 10
3842.25
 20
-5112.994140625
 10
3852.255859375
 20
-5112.994140625
 10
3862.26171875
 20
-5112.994140625
 10
3872.267578125
 20
-5112.994140625
 10
3882.2734375
 20
-5112.994140625
 10
3892.279296875
 20
-5112.994140625
 10
3902.28515625
 20
-5112.994140625
 10
3912.291015625
 20
-5112.994140625
 10
3922.296875
 20
-5112.994140625
 10
3932.302734375
 20
-5112.994140625
 10
3942.30859375
 20
-5112.994140625
 10
3952.314453125
 20
-5112.994140625
 10
3962.3203125
 20
-5112.994140625
 10
3972.326171875
 20
-5112.994140625
 10
3982.33203125
 20
-5112.994140625
 10
3992.337890625
 20
-5112.994140625
 10
4002.34375
 20
-5112.994140625
 10
4012.349609375
 20
-5112.994140625
 10
4022.35546875
 20
-5112.994140625
 10
4032.361328125
 20
-5112.994140625
 10
4042.3671875
 20
-5112.994140625
 10
4052.373046875
 20
-5112.994140625
 10
4062.37890625
 20
-5112.994140625
 10
4072.384765625
 20
-5112.994140625
 10
4082.390625
 20
-5112.994140625
 10
4092.396484375
 20
-5112.994140625
 10
4102.40234375
 20
-5112.994140625
 10
4112.408203125
 20
-5112.994140625
 10
4122.4140625
 20
-5112.994140625
 10
4132.419921875
 20
-5112.994140625
 10
4142.42578125
 20
-5112.994140625
 10
4152.431640625
 20
-5112.994140625
 10
4162.4375
 20
-5112.994140625
 10
4172.443359375
 20
-5112.994140625
 10
4182.44921875
 20
-5112.994140625
 10
4192.455078125
 20
-5112.994140625
 10
4202.4609375
 20
-5112.994140625
 10
4212.466796875
 20
-5112.994140625
 10
4222.47265625
 20
-5112.994140625
 10
4232.478515625
 20
-5112.994140625
 10
4242.484375
 20
-5112.994140625
 10
4252.490234375
 20
-5112.994140625
 10
4262.49609375
 20
-5112.994140625
 10
4272.501953125
 20
-5112.994140625
 10
4282.5078125
 20
-5112.994140625
 10
4292.513671875
 20
-5112.994140625
 10
4302.51953125
 20
-5112.994140625
 10
4312.525390625
 20
-5112.994140625
 10
4322.53125
 20
-5112.994140625
 10
4332.537109375
 20
-5112.994140625
 10
4342.54296875
 20
-5112.994140625
 10
4352.548828125
 20
-5112.994140625
 10
4362.5546875
 20
-5112.994140625
 10
4372.560546875
 20
-5112.994140625
 10
4382.56640625
 20
-5112.994140625
 10
4392.572265625
 20
-5112.994140625
 10
4402.578125
 20
-5112.994140625
 10
4412.583984375
 20
-5112.994140625
 10
4422.58984375
 20
-5112.994140625
 10
4432.595703125
 20
-5112.994140625
 10
4442.6015625
 20
-5112.994140625
 10
4452.607421875
 20
-5112.994140625
 10
4462.61328125
 20
-5112.994140625
 10
4472.619140625
 20
-5112.994140625
 10
4482.625
 20
-5112.994140625
 10
4492.630859375
 20
-5112.994140625
 10
4502.63671875
 20
-5112.994140625
 10
4512.642578125
 20
-5112.994140625
 10
4522.6484375
 20
-5112.994140625
 10
4532.654296875
 20
-5112.994140625
 10
4542.66015625
 20
-5112.994140625
 10
4552.666015625
 20
-5112.994140625
 10
4562.671875
 20
-5112.994140625
 10
4572.677734375
 20
-5112.994140625
 10
4582.68359375
 20
-5112.994140625
 10
4592.689453125
 20
-5112.994140625
 10
4602.6953125
 20
-5112.994140625
 10
4612.701171875
 20
-5112.994140625
 10
4622.70703125
 20
-5112.994140625
 10
4632.712890625
 20
-5112.994140625
 10
4642.71875
 20
-5112.994140625
 10
4652.724609375
 20
-5112.994140625
 10
4662.73046875
 20
-5112.994140625
 10
4672.736328125
 20
-5112.994140625
 10
4682.7421875
 20
-5112.994140625
 10
4692.748046875
 20
-5112.994140625
 10
4702.75390625
 20
-5112.994140625
 10
4712.759765625
 20
-5112.994140625
 10
4722.765625
 20
-5112.994140625
 10
4732.771484375
 20
-5112.994140625
 10
4742.77734375
 20
-5112.994140625
 10
4752.783203125
 20
-5112.994140625
 10
4762.7890625
 20
-5112.994140625
 10
4772.794921875
 20
-5112.994140625
 10
4782.80078125
 20
-5112.994140625
 10
4792.806640625
 20
-5112.994140625
 10
4802.8125
 20
-5112.994140625
 10
4812.818359375
 20
-5112.994140625
 10
4822.82421875
 20
-5112.994140625
 10
4832.830078125
 20
-5112.994140625
 10
4842.8359375
 20
-5112.994140625
 10
4852.841796875
 20
-5112.994140625
 10
4862.84765625
 20
-5112.994140625
 10
4872.853515625
 20
-5112.994140625
 10
4882.859375
 20
-5112.994140625
 10
4892.865234375
 20
-5112.994140625
 10
4902.87109375
 20
-5112.994140625
 10
4912.876953125
 20
-5112.994140625
 10
4922.8828125
 20
-5112.994140625
 10
4932.888671875
 20
-5112.994140625
 10
4942.89453125
 20
-5112.994140625
 10
4952.900390625
 20
-5112.994140625
 10
4962.90625
 20
-5112.994140625
 10
4972.912109375
 20
-5112.994140625
 10
4982.91796875
 20
-5112.994140625
 10
4992.923828125
 20
-5112.994140625
 10
5002.9296875
 20
-5112.994140625
 10
5012.935546875
 20
-5112.994140625
 10
5022.94140625
 20
-5112.994140625
 10
5032.947265625
 20
-5112.994140625
 10
5042.953125
 20
-5112.994140625
 10
5052.958984375
 20
-5112.994140625
 10
5062.96484375
 20
-5112.994140625
 10
5072.970703125
 20
-5112.994140625
 10
5082.9765625
 20
-5112.994140625
 10
5092.982421875
 20
-5112.994140625
 10
5102.98828125
 20
-5112.994140625
 10
5112.994140625
 20
-5112.994140625
 10
5112.994140625
 20
-5102.98828125
 10
5112.994140625
 20
-5092.982421875
 10
5112.994140625
 20
-5082.9765625
 10
5112.994140625
 20
-5072.970703125
 10
5112.994140625
 20
-5062.96484375
 10
5112.994140625
 20
-5052.958984375
 10
5112.994140625
 20
-5042.953125
 10
5112.994140625
 20
-5032.947265625
 10
5112.994140625
 20
-5022.94140625
 10
5112.994140625
 20
-5012.935546875
 10
5112.994140625
 20
-5002.9296875
 10
5112.994140625
 20
-4992.923828125
 10
5112.994140625
 20
-4982.91796875
 10
5112.994140625
 20
-4972.912109375
 10
5112.994140625
 20
-4962.90625
 10
5112.994140625
 20
-4952.900390625
 10
5112.994140625
 20
-4942.89453125
 10
5112.994140625
 20
-4932.888671875
 10
5112.994140625
 20
-4922.8828125
 10
5112.994140625
 20
-4912.876953125
 10
5112.994140625
 20
-4902.87109375
 10
5112.994140625
 20
-4892.865234375
 10
5112.994140625
 20
-4882.859375
 10
5112.994140625
 20
-4872.853515625
 10
5112.994140625
 20
-4862.84765625
 10
5112.994140625
 20
-4852.841796875
 10
5112.994140625
 20
-4842.8359375
 10
5112.994140625
 20
-4832.830078125
 10
5112.994140625
 20
-4822.82421875
 10
5112.994140625
 20
-4812.818359375
 10
5112.994140625
 20
-4802.8125
 10
5112.994140625
 20
-4792.806640625
 10
5112.994140625
 20
-4782.80078125
 10
5112.994140625
 20
-4772.794921875
 10
5112.994140625
 20
-4762.7890625
 10
5112.994140625
 20
-4752.783203125
 10
5112.994140625
 20
-4742.77734375
 10
5112.994140625
 20
-4732.771484375
 10
5112.994140625
 20
-4722.765625
 10
5112.994140625
 20
-4712.759765625
 10
5112.994140625
 20
-4702.75390625
 10
5112.994140625
 20
-4692.748046875
 10
5112.994140625
 20
-4682.7421875
 10
5112.994140625
 20
-4672.736328125
 10
5112.994140625
 20
-4662.73046875
 10
5112.994140625
 20
-4652.724609375
 10
5112.994140625
 20
-4642.71875
 10
5112.994140625
 20
-4632.712890625
 10
5112.994140625
 20
-4622.70703125
 10
5112.994140625
 20
-4612.701171875
 10
5112.994140625
 20
-4602.6953125
 10
5112.994140625
 20
-4592.689453125
 10
5112.994140625
 20
-4582.68359375
 10
5112.994140625
 20
-4572.677734375
 10
5112.994140625
 20
-4562.671875
 10
5112.994140625
 20
-4552.666015625
 10
5112.994140625
 20
-4542.66015625
 10
5112.994140625
 20
-4532.654296875
 10
5112.994140625
 20
-4522.6484375
 10
5112.994140625
 20
-4512.642578125
 10
5112.994140625
 20
-4502.63671875
 10
5112.994140625
 20
-4492.630859375
 10
5112.994140625
 20
-4482.625
 10
5112.994140625
 20
-4472.619140625
 10
5112.994140625
 20
-4462.61328125
 10
5112.994140625
 20
-4452.607421875
 10
5112.994140625
 20
-4442.6015625
 10
5112.994140625
 20
-4432.595703125
 10
5112.994140625
 20
-4422.58984375
 10
5112.994140625
 20
-4412.583984375
 10
5112.994140625
 20
-4402.578125
 10
5112.994140625
 20
-4392.572265625
 10
5112.994140625
 20
-4382.56640625
 10
5112.994140625
 20
-4372.560546875
 10
5112.994140625
 20
-4362.5546875
 10
5112.994140625
 20
-4352.548828125
 10
5112.994140625
 20
-4342.54296875
 10
5112.994140625
 20
-4332.537109375
 10
5112.994140625
 20
-4322.53125
 10
5112.994140625
 20
-4312.525390625
 10
5112.994140625
 20
-4302.51953125
 10
5112.994140625
 20
-4292.513671875
 10
5112.994140625
 20
-4282.5078125
 10
5112.994140625
 20
-4272.501953125
 10
5112.994140625
 20
-4262.49609375
 10
5112.994140625
 20
-4252.490234375
 10
5112.994140625
 20
-4242.484375
 10
5112.994140625
 20
-4232.478515625
 10
5112.994140625
 20
-4222.47265625
 10
5112.994140625
 20
-4212.466796875
 10
5112.994140625
 20
-4202.4609375
 10
5112.994140625
 20
-4192.455078125
 10
5112.994140625
 20
-4182.44921875
 10
5112.994140625
 20
-4172.443359375
 10
5112.994140625
 20
-4162.4375
 10
5112.994140625
 20
-4152.431640625
 10
5112.994140625
 20
-4142.42578125
 10
5112.994140625
 20
-4132.419921875
 10
5112.994140625
 20
-4122.4140625
 10
5112.994140625
 20
-4112.408203125
 10
5112.994140625
 20
-4102.40234375
 10
5112.994140625
 20
-4092.396484375
 10
5112.994140625
 20
-4082.390625
 10
5112.994140625
 20
-4072.384765625
 10
5112.994140625
 20
-4062.37890625
 10
5112.994140625
 20
-4052.373046875
 10
5112.994140625
 20
-4042.3671875
 10
5112.994140625
 20
-4032.361328125
 10
5112.994140625
 20
-4022.35546875
 10
5112.994140625
 20
-4012.349609375
 10
5112.994140625
 20
-4002.34375
 10
5112.994140625
 20
-3992.337890625
 10
5112.994140625
 20
-3982.33203125
 10
5112.994140625
 20
-3972.326171875
 10
5112.994140625
 20
-3962.3203125
 10
5112.994140625
 20
-3952.314453125
 10
5112.994140625
 20
-3942.30859375
 10
5112.994140625
 20
-3932.302734375
 10
5112.994140625
 20
-3922.296875
 10
5112.994140625
 20
-3912.291015625
 10
5112.994140625
 20
-3902.28515625
 10
5112.994140625
 20
-3892.279296875
 10
5112.994140625
 20
-3882.2734375
 10
5112.994140625
 20
-3872.267578125
 10
5112.994140625
 20
-3862.26171875
 10
5112.994140625
 20
-3852.255859375
 10
5112.994140625
 20
-3842.25
 10
5112.994140625
 20
-3832.244140625
 10
5112.994140625
 20
-3822.23828125
 10
5112.994140625
 20
-3812.232421875
 10
5112.994140625
 20
-3802.2265625
 10
5112.994140625
 20
-3792.220703125
 10
5112.994140625
 20
-3782.21484375
 10
5112.994140625
 20
-3772.208984375
 10
5112.994140625
 20
-3762.203125
 10
5112.994140625
 20
-3752.197265625
 10
5112.994140625
 20
-3742.19140625
 10
5112.994140625
 20
-3732.185546875
 10
5112.994140625
 20
-3722.1796875
 10
5112.994140625
 20
-3712.173828125
 10
5112.994140625
 20
-3702.16796875
 10
5112.994140625
 20
-3692.162109375
 10
5112.994140625
 20
-3682.15625
 10
5112.994140625
 20
-3672.150390625
 10
5112.994140625
 20
-3662.14453125
 10
5112.994140625
 20
-3652.138671875
 10
5112.994140625
 20
-3642.1328125
 10
5112.994140625
 20
-3632.126953125
 10
5112.994140625
 20
-3622.12109375
 10
5112.994140625
 20
-3612.115234375
 10
5112.994140625
 20
-3602.109375
 10
5112.994140625
 20
-3592.103515625
 10
5112.994140625
 20
-3582.09765625
 10
5112.994140625
 20
-3572.091796875
 10
5112.994140625
 20
-3562.0859375
 10
5112.994140625
 20
-3552.080078125
 10
5112.994140625
 20
-3542.07421875
 10
5112.994140625
 20
-3532.068359375
 10
5112.994140625
 20
-3522.0625
 10
5112.994140625
 20
-3512.056640625
 10
5112.994140625
 20
-3502.05078125
 10
5112.994140625
 20
-3492.044921875
 10
5112.994140625
 20
-3482.0390625
 10
5112.994140625
 20
-3472.033203125
 10
5112.994140625
 20
-3462.02734375
 10
5112.994140625
 20
-3452.021484375
 10
5112.994140625
 20
-3442.015625
 10
5112.994140625
 20
-3432.009765625
 10
5112.994140625
 20
-3422.00390625
 10
5112.994140625
 20
-3411.998046875
 10
5112.994140625
 20
-3401.9921875
 10
5112.994140625
 20
-3391.986328125
 10
5112.994140625
 20
-3381.98046875
 10
5112.994140625
 20
-3371.974609375
 10
5112.994140625
 20
-3361.96875
 10
5112.994140625
 20
-3351.962890625
 10
5112.994140625
 20
-3341.95703125
 10
5112.994140625
 20
-3331.951171875
 10
5112.994140625
 20
-3321.9453125
 10
5112.994140625
 20
-3311.939453125
 10
5112.994140625
 20
-3301.93359375
 10
5112.994140625
 20
-3291.927734375
 10
5112.994140625
 20
-3281.921875
 10
5112.994140625
 20
-3271.916015625
 10
5112.994140625
 20
-3261.91015625
 10
5112.994140625
 20
-3251.904296875
 10
5112.994140625
 20
-3241.8984375
 10
5112.994140625
 20
-3231.892578125
 10
5112.994140625
 20
-3221.88671875
 10
5112.994140625
 20
-3211.880859375
 10
5112.994140625
 20
-3201.875
 10
5112.994140625
 20
-3191.869140625
 10
5112.994140625
 20
-3181.86328125
 10
5112.994140625
 20
-3171.857421875
 10
5112.994140625
 20
-3161.8515625
 10
5112.994140625
 20
-3151.845703125
 10
5112.994140625
 20
-3141.83984375
 10
5112.994140625
 20
-3131.833984375
 10
5112.994140625
 20
-3121.828125
 10
5112.994140625
 20
-3111.822265625
 10
5112.994140625
 20
-3101.81640625
 10
5112.994140625
 20
-3091.810546875
 10
5112.994140625
 20
-3081.8046875
 10
5112.994140625
 20
-3071.798828125
 10
5112.994140625
 20
-3061.79296875
 10
5112.994140625
 20
-3051.787109375
 10
5112.994140625
 20
-3041.78125
 10
5112.994140625
 20
-3031.775390625
 10
5112.994140625
 20
-3021.76953125
 10
5112.994140625
 20
-3011.763671875
 10
5112.994140625
 20
-3001.7578125
 10
5112.994140625
 20
-2991.751953125
 10
5112.994140625
 20
-2981.74609375
 10
5112.994140625
 20
-2971.740234375
 10
5112.994140625
 20
-2961.734375
 10
5112.994140625
 20
-2951.728515625
 10
5112.994140625
 20
-2941.72265625
 10
5112.994140625
 20
-2931.716796875
 10
5112.994140625
 20
-2921.7109375
 10
5112.994140625
 20
-2911.705078125
 10
5112.994140625
 20
-2901.69921875
 10
5112.994140625
 20
-2891.693359375
 10
5112.994140625
 20
-2881.6875
 10
5112.994140625
 20
-2871.681640625
 10
5112.994140625
 20
-2861.67578125
 10
5112.994140625
 20
-2851.669921875
 10
5112.994140625
 20
-2841.6640625
 10
5112.994140625
 20
-2831.658203125
 10
5112.994140625
 20
-2821.65234375
 10
5112.994140625
 20
-2811.646484375
 10
5112.994140625
 20
-2801.640625
 10
5112.994140625
 20
-2791.634765625
 10
5112.994140625
 20
-2781.62890625
 10
5112.994140625
 20
-2771.623046875
 10
5112.994140625
 20
-2761.6171875
 10
5112.994140625
 20
-2751.611328125
 10
5112.994140625
 20
-2741.60546875
 10
5112.994140625
 20
-2731.599609375
 10
5112.994140625
 20
-2721.59375
 10
5112.994140625
 20
-2711.587890625
 10
5112.994140625
 20
-2701.58203125
 10
5112.994140625
 20
-2691.576171875
 10
5112.994140625
 20
-2681.5703125
 10
5112.994140625
 20
-2671.564453125
 10
5112.994140625
 20
-2661.55859375
 10
5112.994140625
 20
-2651.552734375
 10
5112.994140625
 20
-2641.546875
 10
5112.994140625
 20
-2631.541015625
 10
5112.994140625
 20
-2621.53515625
 10
5112.994140625
 20
-2611.529296875
 10
5112.994140625
 20
-2601.5234375
 10
5112.994140625
 20
-2591.517578125
 10
5112.994140625
 20
-2581.51171875
 10
5112.994140625
 20
-2571.505859375
 10
5112.994140625
 20
-2561.5
 10
5112.994140625
 20
-2551.494140625
 10
5112.994140625
 20
-2541.48828125
 10
5112.994140625
 20
-2531.482421875
 10
5112.994140625
 20
-2521.4765625
 10
5112.994140625
 20
-2511.470703125
 10
5112.994140625
 20
-2501.46484375
 10
5112.994140625
 20
-2491.458984375
 10
5112.994140625
 20
-2481.453125
 10
5112.994140625
 20
-2471.447265625
 10
5112.994140625
 20
-2461.44140625
 10
5112.994140625
 20
-2451.435546875
 10
5112.994140625
 20
-2441.4296875
 10
5112.994140625
 20
-2431.423828125
 10
5112.994140625
 20
-2421.41796875
 10
5112.994140625
 20
-2411.412109375
 10
5112.994140625
 20
-2401.40625
 10
5112.994140625
 20
-2391.400390625
 10
5112.994140625
 20
-2381.39453125
 10
5112.994140625
 20
-2371.388671875
 10
5112.994140625
 20
-2361.3828125
 10
5112.994140625
 20
-2351.376953125
 10
5112.994140625
 20
-2341.37109375
 10
5112.994140625
 20
-2331.365234375
 10
5112.994140625
 20
-2321.359375
 10
5112.994140625
 20
-2311.353515625
 10
5112.994140625
 20
-2301.34765625
 10
5112.994140625
 20
-2291.341796875
 10
5112.994140625
 20
-2281.3359375
 10
5112.994140625
 20
-2271.330078125
 10
5112.994140625
 20
-2261.32421875
 10
5112.994140625
 20
-2251.318359375
 10
5112.994140625
 20
-2241.3125
 10
5112.994140625
 20
-2231.306640625
 10
5112.994140625
 20
-2221.30078125
 10
5112.994140625
 20
-2211.294921875
 10
5112.994140625
 20
-2201.2890625
 10
5112.994140625
 20
-2191.283203125
 10
5112.994140625
 20
-2181.27734375
 10
5112.994140625
 20
-2171.271484375
 10
5112.994140625
 20
-2161.265625
 10
5112.994140625
 20
-2151.259765625
 10
5112.994140625
 20
-2141.25390625
 10
5112.994140625
 20
-2131.248046875
 10
5112.994140625
 20
-2121.2421875
 10
5112.994140625
 20
-2111.236328125
 10
5112.994140625
 20
-2101.23046875
 10
5112.994140625
 20
-2091.224609375
 10
5112.994140625
 20
-2081.21875
 10
5112.994140625
 20
-2071.212890625
 10
5112.994140625
 20
-2061.20703125
 10
5112.994140625
 20
-2051.201171875
 10
5112.994140625
 20
-2041.1953125
 10
5112.994140625
 20
-2031.189453125
 10
5112.994140625
 20
-2021.18359375
 10
5112.994140625
 20
-2011.177734375
 10
5112.994140625
 20
-2001.171875
 10
5112.994140625
 20
-1991.166015625
 10
5112.994140625
 20
-1981.16015625
 10
5112.994140625
 20
-1971.154296875
 10
5112.994140625
 20
-1961.1484375
 10
5112.994140625
 20
-1951.142578125
 10
5112.994140625
 20
-1941.13671875
 10
5112.994140625
 20
-1931.130859375
 10
5112.994140625
 20
-1921.125
 10
5112.994140625
 20
-1911.119140625
 10
5112.994140625
 20
-1901.11328125
 10
5112.994140625
 20
-1891.107421875
 10
5112.994140625
 20
-1881.1015625
 10
5112.994140625
 20
-1871.095703125
 10
5112.994140625
 20
-1861.08984375
 10
5112.994140625
 20
-1851.083984375
 10
5112.994140625
 20
-1841.078125
 10
5112.994140625
 20
-1831.072265625
 10
5112.994140625
 20
-1821.06640625
 10
5112.994140625
 20
-1811.060546875
 10
5112.994140625
 20
-1801.0546875
 10
5112.994140625
 20
-1791.048828125
 10
5112.994140625
 20
-1781.04296875
 10
5112.994140625
 20
-1771.037109375
 10
5112.994140625
 20
-1761.03125
 10
5112.994140625
 20
-1751.025390625
 10
5112.994140625
 20
-1741.01953125
 10
5112.994140625
 20
-1731.013671875
 10
5112.994140625
 20
-1721.0078125
 10
5112.994140625
 20
-1711.001953125
 10
5112.994140625
 20
-1700.99609375
 10
5112.994140625
 20
-1690.990234375
 10
5112.994140625
 20
-1680.984375
 10
5112.994140625
 20
-1670.978515625
 10
5112.994140625
 20
-1660.97265625
 10
5112.994140625
 20
-1650.966796875
 10
5112.994140625
 20
-1640.9609375
 10
5112.994140625
 20
-1630.955078125
 10
5112.994140625
 20
-1620.94921875
 10
5112.994140625
 20
-1610.943359375
 10
5112.994140625
 20
-1600.9375
 10
5112.994140625
 20
-1590.931640625
 10
5112.994140625
 20
-1580.92578125
 10
5112.994140625
 20
-1570.919921875
 10
5112.994140625
 20
-1560.9140625
 10
5112.994140625
 20
-1550.908203125
 10
5112.994140625
 20
-1540.90234375
 10
5112.994140625
 20
-1530.896484375
 10
5112.994140625
 20
-1520.890625
 10
5112.994140625
 20
-1510.884765625
 10
5112.994140625
 20
-1500.87890625
 10
5112.994140625
 20
-1490.873046875
 10
5112.994140625
 20
-1480.8671875
 10
5112.994140625
 20
-1470.861328125
 10
5112.994140625
 20
-1460.85546875
 10
5112.994140625
 20
-1450.849609375
 10
5112.994140625
 20
-1440.84375
 10
5112.994140625
 20
-1430.837890625
 10
5112.994140625
 20
-1420.83203125
 10
5112.994140625
 20
-1410.826171875
 10
5112.994140625
 20
-1400.8203125
 10
5112.994140625
 20
-1390.814453125
 10
5112.994140625
 20
-1380.80859375
 10
5112.994140625
 20
-1370.802734375
 10
5112.994140625
 20
-1360.796875
 10
5112.994140625
 20
-1350.791015625
 10
5112.994140625
 20
-1340.78515625
 10
5112.994140625
 20
-1330.779296875
 10
5112.994140625
 20
-1320.7734375
 10
5112.994140625
 20
-1310.767578125
 10
5112.994140625
 20
-1300.76171875
 10
5112.994140625
 20
-1290.755859375
 10
5112.994140625
 20
-1280.75
 10
5112.994140625
 20
-1270.744140625
 10
5112.994140625
 20
-1260.73828125
 10
5112.994140625
 20
-1250.732421875
 10
5112.994140625
 20
-1240.7265625
 10
5112.994140625
 20
-1230.720703125
 10
5112.994140625
 20
-1220.71484375
 10
5112.994140625
 20
-1210.708984375
 10
5112.994140625
 20
-1200.703125
 10
5112.994140625
 20
-1190.697265625
 10
5112.994140625
 20
-1180.69140625
 10
5112.994140625
 20
-1170.685546875
 10
5112.994140625
 20
-1160.6796875
 10
5112.994140625
 20
-1150.673828125
 10
5112.994140625
 20
-1140.66796875
 10
5112.994140625
 20
-1130.662109375
 10
5112.994140625
 20
-1120.65625
 10
5112.994140625
 20
-1110.650390625
 10
5112.994140625
 20
-1100.64453125
 10
5112.994140625
 20
-1090.638671875
 10
5112.994140625
 20
-1080.6328125
 10
5112.994140625
 20
-1070.626953125
 10
5112.994140625
 20
-1060.62109375
 10
5112.994140625
 20
-1050.615234375
 10
5112.994140625
 20
-1040.609375
 10
5112.994140625
 20
-1030.603515625
 10
5112.994140625
 20
-1020.59765625
 10
5112.994140625
 20
-1010.591796875
 10
5112.994140625
 20
-1000.5859375
 10
5112.994140625
 20
-990.580078125
 10
5112.994140625
 20
-980.57421875
 10
5112.994140625
 20
-970.568359375
 10
5112.994140625
 20
-960.5625
 10
5112.994140625
 20
-950.556640625
 10
5112.994140625
 20
-940.55078125
 10
5112.994140625
 20
-930.544921875
 10
5112.994140625
 20
-920.5390625
 10
5112.994140625
 20
-910.533203125
 10
5112.994140625
 20
-900.52734375
 10
5112.994140625
 20
-890.521484375
 10
5112.994140625
 20
-880.515625
 10
5112.994140625
 20
-870.509765625
 10
5112.994140625
 20
-860.50390625
 10
5112.994140625
 20
-850.498046875
 10
5112.994140625
 20
-840.4921875
 10
5112.994140625
 20
-830.486328125
 10
5112.994140625
 20
-820.48046875
 10
5112.994140625
 20
-810.474609375
 10
5112.994140625
 20
-800.46875
 10
5112.994140625
 20
-790.462890625
 10
5112.994140625
 20
-780.45703125
 10
5112.994140625
 20
-770.451171875
 10
5112.994140625
 20
-760.4453125
 10
5112.994140625
 20
-750.439453125
 10
5112.994140625
 20
-740.43359375
 10
5112.994140625
 20
-730.427734375
 10
5112.994140625
 20
-720.421875
 10
5112.994140625
 20
-710.416015625
 10
5112.994140625
 20
-700.41015625
 10
5112.994140625
 20
-690.404296875
 10
5112.994140625
 20
-680.3984375
 10
5112.994140625
 20
-670.392578125
 10
5112.994140625
 20
-660.38671875
 10
5112.994140625
 20
-650.380859375
 10
5112.994140625
 20
-640.375
 10
5112.994140625
 20
-630.369140625
 10
5112.994140625
 20
-620.36328125
 10
5112.994140625
 20
-610.357421875
 10
5112.994140625
 20
-600.3515625
 10
5112.994140625
 20
-590.345703125
 10
5112.994140625
 20
-580.33984375
 10
5112.994140625
 20
-570.333984375
 10
5112.994140625
 20
-560.328125
 10
5112.994140625
 20
-550.322265625
 10
5112.994140625
 20
-540.31640625
 10
5112.994140625
 20
-530.310546875
 10
5112.994140625
 20
-520.3046875
 10
5112.994140625
 20
-510.298828125
 10
5112.994140625
 20
-500.29296875
 10
5112.994140625
 20
-490.287109375
 10
5112.994140625
 20
-480.28125
 10
5112.994140625
 20
-470.275390625
 10
5112.994140625
 20
-460.26953125
 10
5112.994140625
 20
-450.263671875
 10
5112.994140625
 20
-440.2578125
 10
5112.994140625
 20
-430.251953125
 10
5112.994140625
 20
-420.24609375
 10
5112.994140625
 20
-410.240234375
 10
5112.994140625
 20
-400.234375
 10
5112.994140625
 20
-390.228515625
 10
5112.994140625
 20
-380.22265625
 10
5112.994140625
 20
-370.216796875
 10
5112.994140625
 20
-360.2109375
 10
5112.994140625
 20
-350.205078125
 10
5112.994140625
 20
-340.19921875
 10
5112.994140625
 20
-330.193359375
 10
5112.994140625
 20
-320.1875
 10
5112.994140625
 20
-310.181640625
 10
5112.994140625
 20
-300.17578125
 10
5112.994140625
 20
-290.169921875
 10
5112.994140625
 20
-280.1640625
 10
5112.994140625
 20
-270.158203125
 10
5112.994140625
 20
-260.15234375
 10
5112.994140625
 20
-250.146484375
 10
5112.994140625
 20
-240.140625
 10
5112.994140625
 20
-230.134765625
 10
5112.994140625
 20
-220.12890625
 10
5112.994140625
 20
-210.123046875
 10
5112.994140625
 20
-200.1171875
 10
5112.994140625
 20
-190.111328125
 10
5112.994140625
 20
-180.10546875
 10
5112.994140625
 20
-170.099609375
 10
5112.994140625
 20
-160.09375
 10
5112.994140625
 20
-150.087890625
 10
5112.994140625
 20
-140.08203125
 10
5112.994140625
 20
-130.076171875
 10
5112.994140625
 20
-120.0703125
 10
5112.994140625
 20
-110.064453125
 10
5112.994140625
 20
-100.05859375
 10
5112.994140625
 20
-90.052734375
 10
5112.994140625
 20
-80.046875
 10
5112.994140625
 20
-70.041015625
 10
5112.994140625
 20
-60.03515625
 10
5112.994140625
 20
-50.029296875
 10
5112.994140625
 20
-40.0234375
 10
5112.994140625
 20
-30.017578125
 10
5112.994140625
 20
-20.01171875
 10
5112.994140625
 20
-10.005859375
 10
5112.994140625
 20
-0.0
 10
5102.98828125
 20
-0.0
 10
5092.982421875
 20
-0.0
 10
5082.9765625
 20
-0.0
 10
5072.970703125
 20
-0.0
 10
5062.96484375
 20
-0.0
 10
5052.958984375
 20
-0.0
 10
5042.953125
 20
-0.0
 10
5032.947265625
 20
-0.0
 10
5022.94140625
 20
-0.0
 10
5012.935546875
 20
-0.0
 10
5002.9296875
 20
-0.0
 10
4992.923828125
 20
-0.0
 10
4982.91796875
 20
-0.0
 10
4972.912109375
 20
-0.0
 10
4962.90625
 20
-0.0
 10
4952.900390625
 20
-0.0
 10
4942.89453125
 20
-0.0
 10
4932.888671875
 20
-0.0
 10
4922.8828125
 20
-0.0
 10
4912.876953125
 20
-0.0
 10
4902.87109375
 20
-0.0
 10
4892.865234375
 20
-0.0
 10
4882.859375
 20
-0.0
 10
4872.853515625
 20
-0.0
 10
4862.84765625
 20
-0.0
 10
4852.841796875
 20
-0.0
 10
4842.8359375
 20
-0.0
 10
4832.830078125
 20
-0.0
 10
4822.82421875
 20
-0.0
 10
4812.818359375
 20
-0.0
 10
4802.8125
 20
-0.0
 10
4792.806640625
 20
-0.0
 10
4782.80078125
 20
-0.0
 10
4772.794921875
 20
-0.0
 10
4762.7890625
 20
-0.0
 10
4752.783203125
 20
-0.0
 10
4742.77734375
 20
-0.0
 10
4732.771484375
 20
-0.0
 10
4722.765625
 20
-0.0
 10
4712.759765625
 20
-0.0
 10
4702.75390625
 20
-0.0
 10
4692.748046875
 20
-0.0
 10
4682.7421875
 20
-0.0
 10
4672.736328125
 20
-0.0
 10
4662.73046875
 20
-0.0
 10
4652.724609375
 20
-0.0
 10
4642.71875
 20
-0.0
 10
4632.712890625
 20
-0.0
 10
4622.70703125
 20
-0.0
 10
4612.701171875
 20
-0.0
 10
4602.6953125
 20
-0.0
 10
4592.689453125
 20
-0.0
 10
4582.68359375
 20
-0.0
 10
4572.677734375
 20
-0.0
 10
4562.671875
 20
-0.0
 10
4552.666015625
 20
-0.0
 10
4542.66015625
 20
-0.0
 10
4532.654296875
 20
-0.0
 10
4522.6484375
 20
-0.0
 10
4512.642578125
 20
-0.0
 10
4502.63671875
 20
-0.0
 10
4492.630859375
 20
-0.0
 10
4482.625
 20
-0.0
 10
4472.619140625
 20
-0.0
 10
4462.61328125
 20
-0.0
 10
4452.607421875
 20
-0.0
 10
4442.6015625
 20
-0.0
 10
4432.595703125
 20
-0.0
 10
4422.58984375
 20
-0.0
 10
4412.583984375
 20
-0.0
 10
4402.578125
 20
-0.0
 10
4392.572265625
 20
-0.0
 10
4382.56640625
 20
-0.0
 10
4372.560546875
 20
-0.0
 10
4362.5546875
 20
-0.0
 10
4352.548828125
 20
-0.0
 10
4342.54296875
 20
-0.0
 10
4332.537109375
 20
-0.0
 10
4322.53125
 20
-0.0
 10
4312.525390625
 20
-0.0
 10
4302.51953125
 20
-0.0
 10
4292.513671875
 20
-0.0
 10
4282.5078125
 20
-0.0
 10
4272.501953125
 20
-0.0
 10
4262.49609375
 20
-0.0
 10
4252.490234375
 20
-0.0
 10
4242.484375
 20
-0.0
 10
4232.478515625
 20
-0.0
 10
4222.47265625
 20
-0.0
 10
4212.466796875
 20
-0.0
 10
4202.4609375
 20
-0.0
 10
4192.455078125
 20
-0.0
 10
4182.44921875
 20
-0.0
 10
4172.443359375
 20
-0.0
 10
4162.4375
 20
-0.0
 10
4152.431640625
 20
-0.0
 10
4142.42578125
 20
-0.0
 10
4132.419921875
 20
-0.0
 10
4122.4140625
 20
-0.0
 10
4112.408203125
 20
-0.0
 10
4102.40234375
 20
-0.0
 10
4092.396484375
 20
-0.0
 10
4082.390625
 20
-0.0
 10
4072.384765625
 20
-0.0
 10
4062.37890625
 20
-0.0
 10
4052.373046875
 20
-0.0
 10
4042.3671875
 20
-0.0
 10
4032.361328125
 20
-0.0
 10
4022.35546875
 20
-0.0
 10
4012.349609375
 20
-0.0
 10
4002.34375
 20
-0.0
 10
3992.337890625
 20
-0.0
 10
3982.33203125
 20
-0.0
 10
3972.326171875
 20
-0.0
 10
3962.3203125
 20
-0.0
 10
3952.314453125
 20
-0.0
 10
3942.30859375
 20
-0.0
 10
3932.302734375
 20
-0.0
 10
3922.296875
 20
-0.0
 10
3912.291015625
 20
-0.0
 10
3902.28515625
 20
-0.0
 10
3892.279296875
 20
-0.0
 10
3882.2734375
 20
-0.0
 10
3872.267578125
 20
-0.0
 10
3862.26171875
 20
-0.0
 10
3852.255859375
 20
-0.0
 10
3842.25
 20
-0.0
 10
3832.244140625
 20
-0.0
 10
3822.23828125
 20
-0.0
 10
3812.232421875
 20
-0.0
 10
3802.2265625
 20
-0.0
 10
3792.220703125
 20
-0.0
 10
3782.21484375
 20
-0.0
 10
3772.208984375
 20
-0.0
 10
3762.203125
 20
-0.0
 10
3752.197265625
 20
-0.0
 10
3742.19140625
 20
-0.0
 10
3732.185546875
 20
-0.0
 10
3722.1796875
 20
-0.0
 10
3712.173828125
 20
-0.0
 10
3702.16796875
 20
-0.0
 10
3692.162109375
 20
-0.0
 10
3682.15625
 20
-0.0
 10
3672.150390625
 20
-0.0
 10
3662.14453125
 20
-0.0
 10
3652.138671875
 20
-0.0
 10
3642.1328125
 20
-0.0
 10
3632.126953125
 20
-0.0
 10
3622.12109375
 20
-0.0
 10
3612.115234375
 20
-0.0
 10
3602.109375
 20
-0.0
 10
3592.103515625
 20
-0.0
 10
3582.09765625
 20
-0.0
 10
3572.091796875
 20
-0.0
 10
3562.0859375
 20
-0.0
 10
3552.080078125
 20
-0.0
 10
3542.07421875
 20
-0.0
 10
3532.068359375
 20
-0.0
 10
3522.0625
 20
-0.0
 10
3512.056640625
 20
-0.0
 10
3502.05078125
 20
-0.0
 10
3492.044921875
 20
-0.0
 10
3482.0390625
 20
-0.0
 10
3472.033203125
 20
-0.0
 10
3462.02734375
 20
-0.0
 10
3452.021484375
 20
-0.0
 10
3442.015625
 20
-0.0
 10
3432.009765625
 20
-0.0
 10
3422.00390625
 20
-0.0
 10
3411.998046875
 20
-0.0
 10
3401.9921875
 20
-0.0
 10
3391.986328125
 20
-0.0
 10
3381.98046875
 20
-0.0
 10
3371.974609375
 20
-0.0
 10
3361.96875
 20
-0.0
 10
3351.962890625
 20
-0.0
 10
3341.95703125
 20
-0.0
 10
3331.951171875
 20
-0.0
 10
3321.9453125
 20
-0.0
 10
3311.939453125
 20
-0.0
 10
3301.93359375
 20
-0.0
 10
3291.927734375
 20
-0.0
 10
3281.921875
 20
-0.0
 10
3271.916015625
 20
-0.0
 10
3261.91015625
 20
-0.0
 10
3251.904296875
 20
-0.0
 10
3241.8984375
 20
-0.0
 10
3231.892578125
 20
-0.0
 10
3221.88671875
 20
-0.0
 10
3211.880859375
 20
-0.0
 10
3201.875
 20
-0.0
 10
3191.869140625
 20
-0.0
 10
3181.86328125
 20
-0.0
 10
3171.857421875
 20
-0.0
 10
3161.8515625
 20
-0.0
 10
3151.845703125
 20
-0.0
 10
3141.83984375
 20
-0.0
 10
3131.833984375
 20
-0.0
 10
3121.828125
 20
-0.0
 10
3111.822265625
 20
-0.0
 10
3101.81640625
 20
-0.0
 10
3091.810546875
 20
-0.0
 10
3081.8046875
 20
-0.0
 10
3071.798828125
 20
-0.0
 10
3061.79296875
 20
-0.0
 10
3051.787109375
 20
-0.0
 10
3041.78125
 20
-0.0
 10
3031.775390625
 20
-0.0
 10
3021.76953125
 20
-0.0
 10
3011.763671875
 20
-0.0
 10
3001.7578125
 20
-0.0
 10
2991.751953125
 20
-0.0
 10
2981.74609375
 20
-0.0
 10
2971.740234375
 20
-0.0
 10
2961.734375
 20
-0.0
 10
2951.728515625
 20
-0.0
 10
2941.72265625
 20
-0.0
 10
2931.716796875
 20
-0.0
 10
2921.7109375
 20
-0.0
 10
2911.705078125
 20
-0.0
 10
2901.69921875
 20
-0.0
 10
2891.693359375
 20
-0.0
 10
2881.6875
 20
-0.0
 10
2871.681640625
 20
-0.0
 10
2861.67578125
 20
-0.0
 10
2851.669921875
 20
-0.0
 10
2841.6640625
 20
-0.0
 10
2831.658203125
 20
-0.0
 10
2821.65234375
 20
-0.0
 10
2811.646484375
 20
-0.0
 10
2801.640625
 20
-0.0
 10
2791.634765625
 20
-0.0
 10
2781.62890625
 20
-0.0
 10
2771.623046875
 20
-0.0
 10
2761.6171875
 20
-0.0
 10
2751.611328125
 20
-0.0
 10
2741.60546875
 20
-0.0
 10
2731.599609375
 20
-0.0
 10
2721.59375
 20
-0.0
 10
2711.587890625
 20
-0.0
 10
2701.58203125
 20
-0.0
 10
2691.576171875
 20
-0.0
 10
2681.5703125
 20
-0.0
 10
2671.564453125
 20
-0.0
 10
2661.55859375
 20
-0.0
 10
2651.552734375
 20
-0.0
 10
2641.546875
 20
-0.0
 10
2631.541015625
 20
-0.0
 10
2621.53515625
 20
-0.0
 10
2611.529296875
 20
-0.0
 10
2601.5234375
 20
-0.0
 10
2591.517578125
 20
-0.0
 10
2581.51171875
 20
-0.0
 10
2571.505859375
 20
-0.0
 10
2561.5
 20
-0.0
 10
2551.494140625
 20
-0.0
 10
2541.48828125
 20
-0.0
 10
2531.482421875
 20
-0.0
 10
2521.4765625
 20
-0.0
 10
2511.470703125
 20
-0.0
 10
2501.46484375
 20
-0.0
 10
2491.458984375
 20
-0.0
 10
2481.453125
 20
-0.0
 10
2471.447265625
 20
-0.0
 10
2461.44140625
 20
-0.0
 10
2451.435546875
 20
-0.0
 10
2441.4296875
 20
-0.0
 10
2431.423828125
 20
-0.0
 10
2421.41796875
 20
-0.0
 10
2411.412109375
 20
-0.0
 10
2401.40625
 20
-0.0
 10
2391.400390625
 20
-0.0
 10
2381.39453125
 20
-0.0
 10
2371.388671875
 20
-0.0
 10
2361.3828125
 20
-0.0
 10
2351.376953125
 20
-0.0
 10
2341.37109375
 20
-0.0
 10
2331.365234375
 20
-0.0
 10
2321.359375
 20
-0.0
 10
2311.353515625
 20
-0.0
 10
2301.34765625
 20
-0.0
 10
2291.341796875
 20
-0.0
 10
2281.3359375
 20
-0.0
 10
2271.330078125
 20
-0.0
 10
2261.32421875
 20
-0.0
 10
2251.318359375
 20
-0.0
 10
2241.3125
 20
-0.0
 10
2231.306640625
 20
-0.0
 10
2221.30078125
 20
-0.0
 10
2211.294921875
 20
-0.0
 10
2201.2890625
 20
-0.0
 10
2191.283203125
 20
-0.0
 10
2181.27734375
 20
-0.0
 10
2171.271484375
 20
-0.0
 10
2161.265625
 20
-0.0
 10
2151.259765625
 20
-0.0
 10
2141.25390625
 20
-0.0
 10
2131.248046875
 20
-0.0
 10
2121.2421875
 20
-0.0
 10
2111.236328125
 20
-0.0
 10
2101.23046875
 20
-0.0
 10
2091.224609375
 20
-0.0
 10
2081.21875
 20
-0.0
 10
2071.212890625
 20
-0.0
 10
2061.20703125
 20
-0.0
 10
2051.201171875
 20
-0.0
 10
2041.1953125
 20
-0.0
 10
2031.189453125
 20
-0.0
 10
2021.18359375
 20
-0.0
 10
2011.177734375
 20
-0.0
 10
2001.171875
 20
-0.0
 10
1991.166015625
 20
-0.0
 10
1981.16015625
 20
-0.0
 10
1971.154296875
 20
-0.0
 10
1961.1484375
 20
-0.0
 10
1951.142578125
 20
-0.0
 10
1941.13671875
 20
-0.0
 10
1931.130859375
 20
-0.0
 10
1921.125
 20
-0.0
 10
1911.119140625
 20
-0.0
 10
1901.11328125
 20
-0.0
 10
1891.107421875
 20
-0.0
 10
1881.1015625
 20
-0.0
 10
1871.095703125
 20
-0.0
 10
1861.08984375
 20
-0.0
 10
1851.083984375
 20
-0.0
 10
1841.078125
 20
-0.0
 10
1831.072265625
 20
-0.0
 10
1821.06640625
 20
-0.0
 10
1811.060546875
 20
-0.0
 10
1801.0546875
 20
-0.0
 10
1791.048828125
 20
-0.0
 10
1781.04296875
 20
-0.0
 10
1771.037109375
 20
-0.0
 10
1761.03125
 20
-0.0
 10
1751.025390625
 20
-0.0
 10
1741.01953125
 20
-0.0
 10
1731.013671875
 20
-0.0
 10
1721.0078125
 20
-0.0
 10
1711.001953125
 20
-0.0
 10
1700.99609375
 20
-0.0
 10
1690.990234375
 20
-0.0
 10
1680.984375
 20
-0.0
 10
1670.978515625
 20
-0.0
 10
1660.97265625
 20
-0.0
 10
1650.966796875
 20
-0.0
 10
1640.9609375
 20
-0.0
 10
1630.955078125
 20
-0.0
 10
1620.94921875
 20
-0.0
 10
1610.943359375
 20
-0.0
 10
1600.9375
 20
-0.0
 10
1590.931640625
 20
-0.0
 10
1580.92578125
 20
-0.0
 10
1570.919921875
 20
-0.0
 10
1560.9140625
 20
-0.0
 10
1550.908203125
 20
-0.0
 10
1540.90234375
 20
-0.0
 10
1530.896484375
 20
-0.0
 10
1520.890625
 20
-0.0
 10
1510.884765625
 20
-0.0
 10
1500.87890625
 20
-0.0
 10
1490.873046875
 20
-0.0
 10
1480.8671875
 20
-0.0
 10
1470.861328125
 20
-0.0
 10
1460.85546875
 20
-0.0
 10
1450.849609375
 20
-0.0
 10
1440.84375
 20
-0.0
 10
1430.837890625
 20
-0.0
 10
1420.83203125
 20
-0.0
 10
1410.826171875
 20
-0.0
 10
1400.8203125
 20
-0.0
 10
1390.814453125
 20
-0.0
 10
1380.80859375
 20
-0.0
 10
1370.802734375
 20
-0.0
 10
1360.796875
 20
-0.0
 10
1350.791015625
 20
-0.0
 10
1340.78515625
 20
-0.0
 10
1330.779296875
 20
-0.0
 10
1320.7734375
 20
-0.0
 10
1310.767578125
 20
-0.0
 10
1300.76171875
 20
-0.0
 10
1290.755859375
 20
-0.0
 10
1280.75
 20
-0.0
 10
1270.744140625
 20
-0.0
 10
1260.73828125
 20
-0.0
 10
1250.732421875
 20
-0.0
 10
1240.7265625
 20
-0.0
 10
1230.720703125
 20
-0.0
 10
1220.71484375
 20
-0.0
 10
1210.708984375
 20
-0.0
 10
1200.703125
 20
-0.0
 10
1190.697265625
 20
-0.0
 10
1180.69140625
 20
-0.0
 10
1170.685546875
 20
-0.0
 10
1160.6796875
 20
-0.0
 10
1150.673828125
 20
-0.0
 10
1140.66796875
 20
-0.0
 10
1130.662109375
 20
-0.0
 10
1120.65625
 20
-0.0
 10
1110.650390625
 20
-0.0
 10
1100.64453125
 20
-0.0
 10
1090.638671875
 20
-0.0
 10
1080.6328125
 20
-0.0
 10
1070.626953125
 20
-0.0
 10
1060.62109375
 20
-0.0
 10
1050.615234375
 20
-0.0
 10
1040.609375
 20
-0.0
 10
1030.603515625
 20
-0.0
 10
1020.59765625
 20
-0.0
 10
1010.591796875
 20
-0.0
 10
1000.5859375
 20
-0.0
 10
990.580078125
 20
-0.0
 10
980.57421875
 20
-0.0
 10
970.568359375
 20
-0.0
 10
960.5625
 20
-0.0
 10
950.556640625
 20
-0.0
 10
940.55078125
 20
-0.0
 10
930.544921875
 20
-0.0
 10
920.5390625
 20
-0.0
 10
910.533203125
 20
-0.0
 10
900.52734375
 20
-0.0
 10
890.521484375
 20
-0.0
 10
880.515625
 20
-0.0
 10
870.509765625
 20
-0.0
 10
860.50390625
 20
-0.0
 10
850.498046875
 20
-0.0
 10
840.4921875
 20
-0.0
 10
830.486328125
 20
-0.0
 10
820.48046875
 20
-0.0
 10
810.474609375
 20
-0.0
 10
800.46875
 20
-0.0
 10
790.462890625
 20
-0.0
 10
780.45703125
 20
-0.0
 10
770.451171875
 20
-0.0
 10
760.4453125
 20
-0.0
 10
750.439453125
 20
-0.0
 10
740.43359375
 20
-0.0
 10
730.427734375
 20
-0.0
 10
720.421875
 20
-0.0
 10
710.416015625
 20
-0.0
 10
700.41015625
 20
-0.0
 10
690.404296875
 20
-0.0
 10
680.3984375
 20
-0.0
 10
670.392578125
 20
-0.0
 10
660.38671875
 20
-0.0
 10
650.380859375
 20
-0.0
 10
640.375
 20
-0.0
 10
630.369140625
 20
-0.0
 10
620.36328125
 20
-0.0
 10
610.357421875
 20
-0.0
 10
600.3515625
 20
-0.0
 10
590.345703125
 20
-0.0
 10
580.33984375
 20
-0.0
 10
570.333984375
 20
-0.0
 10
560.328125
 20
-0.0
 10
550.322265625
 20
-0.0
 10
540.31640625
 20
-0.0
 10
530.310546875
 20
-0.0
 10
520.3046875
 20
-0.0
 10
510.298828125
 20
-0.0
 10
500.29296875
 20
-0.0
 10
490.287109375
 20
-0.0
 10
480.28125
 20
-0.0
 10
470.275390625
 20
-0.0
 10
460.26953125
 20
-0.0
 10
450.263671875
 20
-0.0
 10
440.2578125
 20
-0.0
 10
430.251953125
 20
-0.0
 10
420.24609375
 20
-0.0
 10
410.240234375
 20
-0.0
 10
400.234375
 20
-0.0
 10
390.228515625
 20
-0.0
 10
380.22265625
 20
-0.0
 10
370.216796875
 20
-0.0
 10
360.2109375
 20
-0.0
 10
350.205078125
 20
-0.0
 10
340.19921875
 20
-0.0
 10
330.193359375
 20
-0.0
 10
320.1875
 20
-0.0
 10
310.181640625
 20
-0.0
 10
300.17578125
 20
-0.0
 10
290.169921875
 20
-0.0
 10
280.1640625
 20
-0.0
 10
270.158203125
 20
-0.0
 10
260.15234375
 20
-0.0
 10
250.146484375
 20
-0.0
 10
240.140625
 20
-0.0
 10
230.134765625
 20
-0.0
 10
220.12890625
 20
-0.0
 10
210.123046875
 20
-0.0
 10
200.1171875
 20
-0.0
 10
190.111328125
 20
-0.0
 10
180.10546875
 20
-0.0
 10
170.099609375
 20
-0.0
 10
160.09375
 20
-0.0
 10
150.087890625
 20
-0.0
 10
140.08203125
 20
-0.0
 10
130.076171875
 20
-0.0
 10
120.0703125
 20
-0.0
 10
110.064453125
 20
-0.0
 10
100.05859375
 20
-0.0
 10
90.052734375
 20
-0.0
 10
80.046875
 20
-0.0
 10
70.041015625
 20
-0.0
 10
60.03515625
 20
-0.0
 10
50.029296875
 20
-0.0
 10
40.0234375
 20
-0.0
 10
30.017578125
 20
-0.0
 10
20.01171875
 20
-0.0
 10
10.005859375
 20
-0.0
  0
LWPOLYLINE
  5
34
330
17
100
AcDbEntity
  8
substrate
100
AcDbPolyline
 90
1326
 70
1
 43
0.5
 10
1931.130859375
 20
-890.521484375
 10
1941.13671875
 20
-880.515625
 10
1951.142578125
 20
-880.515625
 10
1961.1484375
 20
-880.515625
 10
1971.154296875
 20
-880.515625
 10
1981.16015625
 20
-890.521484375
 10
1991.166015625
 20
-880.515625
 10
2001.171875
 20
-880.515625
 10
2011.177734375
 20
-880.515625
 10
2021.18359375
 20
-880.515625
 10
2031.189453125
 20
-880.515625
 10
2041.1953125
 20
-880.515625
 10
2051.201171875
 20
-880.515625
 10
2061.20703125
 20
-880.515625
 10
2071.212890625
 20
-880.515625
 10
2081.21875
 20
-880.515625
 10
2091.224609375
 20
-880.515625
 10
2101.23046875
 20
-880.515625
 10
2111.236328125
 20
-880.515625
 10
2121.2421875
 20
-880.515625
 10
2131.248046875
 20
-880.515625
 10
2141.25390625
 20
-890.521484375
 10
2151.259765625
 20
-880.515625
 10
2161.265625
 20
-890.521484375
 10
2171.271484375
 20
-890.521484375
 10
2181.27734375
 20
-890.521484375
 10
2191.283203125
 20
-880.515625
 10
2201.2890625
 20
-890.521484375
 10
2211.294921875
 20
-890.521484375
 10
2221.30078125
 20
-880.515625
 10
2231.306640625
 20
-880.515625
 10
2241.3125
 20
-890.521484375
 10
2251.318359375
 20
-880.515625
 10
2261.32421875
 20
-880.515625
 10
2271.330078125
 20
-880.515625
 10
2281.3359375
 20
-880.515625
 10
2291.341796875
 20
-880.515625
 10
2301.34765625
 20
-880.515625
 10
2311.353515625
 20
-880.515625
 10
2321.359375
 20
-890.521484375
 10
2331.365234375
 20
-880.515625
 10
2341.37109375
 20
-880.515625
 10
2351.376953125
 20
-880.515625
 10
2361.3828125
 20
-880.515625
 10
2371.388671875
 20
-880.515625
 10
2381.39453125
 20
-880.515625
 10
2391.400390625
 20
-880.515625
 10
2401.40625
 20
-880.515625
 10
2411.412109375
 20
-880.515625
 10
2421.41796875
 20
-880.515625
 10
2431.423828125
 20
-880.515625
 10
2441.4296875
 20
-880.515625
 10
2451.435546875
 20
-880.515625
 10
2461.44140625
 20
-880.515625
 10
2471.447265625
 20
-880.515625
 10
2481.453125
 20
-880.515625
 10
2491.458984375
 20
-880.515625
 10
2501.46484375
 20
-880.515625
 10
2511.470703125
 20
-880.515625
 10
2521.4765625
 20
-880.515625
 10
2531.482421875
 20
-880.515625
 10
2541.48828125
 20
-880.515625
 10
2551.494140625
 20
-880.515625
 10
2561.5
 20
-880.515625
 10
2571.505859375
 20
-880.515625
 10
2581.51171875
 20
-880.515625
 10
2591.517578125
 20
-880.515625
 10
2601.5234375
 20
-880.515625
 10
2611.529296875
 20
-880.515625
 10
2621.53515625
 20
-880.515625
 10
2631.541015625
 20
-880.515625
 10
2641.546875
 20
-880.515625
 10
2651.552734375
 20
-880.515625
 10
2661.55859375
 20
-890.521484375
 10
2671.564453125
 20
-880.515625
 10
2681.5703125
 20
-880.515625
 10
2691.576171875
 20
-880.515625
 10
2701.58203125
 20
-880.515625
 10
2711.587890625
 20
-880.515625
 10
2721.59375
 20
-880.515625
 10
2731.599609375
 20
-880.515625
 10
2741.60546875
 20
-880.515625
 10
2751.611328125
 20
-880.515625
 10
2761.6171875
 20
-880.515625
 10
2771.623046875
 20
-880.515625
 10
2781.62890625
 20
-880.515625
 10
2791.634765625
 20
-880.515625
 10
2801.640625
 20
-880.515625
 10
2811.646484375
 20
-880.515625
 10
2821.65234375
 20
-890.521484375
 10
2831.658203125
 20
-880.515625
 10
2841.6640625
 20
-880.515625
 10
2851.669921875
 20
-890.521484375
 10
2861.67578125
 20
-880.515625
 10
2871.681640625
 20
-880.515625
 10
2881.6875
 20
-890.521484375
 10
2891.693359375
 20
-880.515625
 10
2901.69921875
 20
-890.521484375
 10
2911.705078125
 20
-880.515625
 10
2921.7109375
 20
-890.521484375
 10
2931.716796875
 20
-880.515625
 10
2941.72265625
 20
-880.515625
 10
2951.728515625
 20
-880.515625
 10
2961.734375
 20
-880.515625
 10
2971.740234375
 20
-880.515625
 10
2981.74609375
 20
-880.515625
 10
2991.751953125
 20
-880.515625
 10
3001.7578125
 20
-880.515625
 10
3011.763671875
 20
-880.515625
 10
3021.76953125
 20
-880.515625
 10
3031.775390625
 20
-880.515625
 10
3041.78125
 20
-880.515625
 10
3051.787109375
 20
-880.515625
 10
3061.79296875
 20
-880.515625
 10
3071.798828125
 20
-880.515625
 10
3081.8046875
 20
-880.515625
 10
3091.810546875
 20
-880.515625
 10
3101.81640625
 20
-880.515625
 10
3111.822265625
 20
-880.515625
 10
3121.828125
 20
-880.515625
 10
3131.833984375
 20
-880.515625
 10
3141.83984375
 20
-880.515625
 10
3151.845703125
 20
-880.515625
 10
3161.8515625
 20
-890.521484375
 10
3171.857421875
 20
-890.521484375
 10
3181.86328125
 20
-900.52734375
 10
3181.86328125
 20
-910.533203125
 10
3181.86328125
 20
-920.5390625
 10
3181.86328125
 20
-930.544921875
 10
3181.86328125
 20
-940.55078125
 10
3181.86328125
 20
-950.556640625
 10
3181.86328125
 20
-960.5625
 10
3181.86328125
 20
-970.568359375
 10
3181.86328125
 20
-980.57421875
 10
3181.86328125
 20
-990.580078125
 10
3181.86328125
 20
-1000.5859375
 10
3181.86328125
 20
-1010.591796875
 10
3181.86328125
 20
-1020.59765625
 10
3181.86328125
 20
-1030.603515625
 10
3181.86328125
 20
-1040.609375
 10
3181.86328125
 20
-1050.615234375
 10
3181.86328125
 20
-1060.62109375
 10
3181.86328125
 20
-1070.626953125
 10
3171.857421875
 20
-1080.6328125
 10
3171.857421875
 20
-1090.638671875
 10
3181.86328125
 20
-1100.64453125
 10
3171.857421875
 20
-1110.650390625
 10
3171.857421875
 20
-1120.65625
 10
3171.857421875
 20
-1130.662109375
 10
3171.857421875
 20
-1140.66796875
 10
3171.857421875
 20
-1150.673828125
 10
3171.857421875
 20
-1160.6796875
 10
3171.857421875
 20
-1170.685546875
 10
3171.857421875
 20
-1180.69140625
 10
3171.857421875
 20
-1190.697265625
 10
3171.857421875
 20
-1200.703125
 10
3171.857421875
 20
-1210.708984375
 10
3171.857421875
 20
-1220.71484375
 10
3171.857421875
 20
-1230.720703125
 10
3171.857421875
 20
-1240.7265625
 10
3171.857421875
 20
-1250.732421875
 10
3171.857421875
 20
-1260.73828125
 10
3171.857421875
 20
-1270.744140625
 10
3171.857421875
 20
-1280.75
 10
3171.857421875
 20
-1290.755859375
 10
3171.857421875
 20
-1300.76171875
 10
3171.857421875
 20
-1310.767578125
 10
3171.857421875
 20
-1320.7734375
 10
3171.857421875
 20
-1330.779296875
 10
3171.857421875
 20
-1340.78515625
 10
3171.857421875
 20
-1350.791015625
 10
3171.857421875
 20
-1360.796875
 10
3171.857421875
 20
-1370.802734375
 10
3171.857421875
 20
-1380.80859375
 10
3171.857421875
 20
-1390.814453125
 10
3171.857421875
 20
-1400.8203125
 10
3171.857421875
 20
-1410.826171875
 10
3171.857421875
 20
-1420.83203125
 10
3171.857421875
 20
-1430.837890625
 10
3171.857421875
 20
-1440.84375
 10
3171.857421875
 20
-1450.849609375
 10
3171.857421875
 20
-1460.85546875
 10
3171.857421875
 20
-1470.861328125
 10
3171.857421875
 20
-1480.8671875
 10
3171.857421875
 20
-1490.873046875
 10
3171.857421875
 20
-1500.87890625
 10
3171.857421875
 20
-1510.884765625
 10
3171.857421875
 20
-1520.890625
 10
3171.857421875
 20
-1530.896484375
 10
3171.857421875
 20
-1540.90234375
 10
3171.857421875
 20
-1550.908203125
 10
3171.857421875
 20
-1560.9140625
 10
3171.857421875
 20
-1570.919921875
 10
3171.857421875
 20
-1580.92578125
 10
3171.857421875
 20
-1590.931640625
 10
3171.857421875
 20
-1600.9375
 10
3171.857421875
 20
-1610.943359375
 10
3171.857421875
 20
-1620.94921875
 10
3171.857421875
 20
-1630.955078125
 10
3171.857421875
 20
-1640.9609375
 10
3171.857421875
 20
-1650.966796875
 10
3171.857421875
 20
-1660.97265625
 10
3171.857421875
 20
-1670.978515625
 10
3171.857421875
 20
-1680.984375
 10
3171.857421875
 20
-1690.990234375
 10
3171.857421875
 20
-1700.99609375
 10
3171.857421875
 20
-1711.001953125
 10
3171.857421875
 20
-1721.0078125
 10
3171.857421875
 20
-1731.013671875
 10
3171.857421875
 20
-1741.01953125
 10
3171.857421875
 20
-1751.025390625
 10
3171.857421875
 20
-1761.03125
 10
3181.86328125
 20
-1771.037109375
 10
3171.857421875
 20
-1781.04296875
 10
3171.857421875
 20
-1791.048828125
 10
3171.857421875
 20
-1801.0546875
 10
3171.857421875
 20
-1811.060546875
 10
3171.857421875
 20
-1821.06640625
 10
3181.86328125
 20
-1831.072265625
 10
3171.857421875
 20
-1841.078125
 10
3171.857421875
 20
-1851.083984375
 10
3171.857421875
 20
-1861.08984375
 10
3171.857421875
 20
-1871.095703125
 10
3171.857421875
 20
-1881.1015625
 10
3171.857421875
 20
-1891.107421875
 10
3171.857421875
 20
-1901.11328125
 10
3171.857421875
 20
-1911.119140625
 10
3171.857421875
 20
-1921.125
 10
3171.857421875
 20
-1931.130859375
 10
3181.86328125
 20
-1931.130859375
 10
3191.869140625
 20
-1941.13671875
 10
3201.875
 20
-1931.130859375
 10
3211.880859375
 20
-1941.13671875
 10
3221.88671875
 20
-1931.130859375
 10
3231.892578125
 20
-1931.130859375
 10
3241.8984375
 20
-1931.130859375
 10
3251.904296875
 20
-1931.130859375
 10
3261.91015625
 20
-1931.130859375
 10
3271.916015625
 20
-1931.130859375
 10
3281.921875
 20
-1931.130859375
 10
3291.927734375
 20
-1931.130859375
 10
3301.93359375
 20
-1931.130859375
 10
3311.939453125
 20
-1931.130859375
 10
3321.9453125
 20
-1931.130859375
 10
3331.951171875
 20
-1931.130859375
 10
3341.95703125
 20
-1931.130859375
 10
3351.962890625
 20
-1931.130859375
 10
3361.96875
 20
-1931.130859375
 10
3371.974609375
 20
-1941.13671875
 10
3381.98046875
 20
-1931.130859375
 10
3391.986328125
 20
-1931.130859375
 10
3401.9921875
 20
-1931.130859375
 10
3411.998046875
 20
-1931.130859375
 10
3422.00390625
 20
-1931.130859375
 10
3432.009765625
 20
-1931.130859375
 10
3442.015625
 20
-1931.130859375
 10
3452.021484375
 20
-1931.130859375
 10
3462.02734375
 20
-1931.130859375
 10
3472.033203125
 20
-1931.130859375
 10
3482.0390625
 20
-1931.130859375
 10
3492.044921875
 20
-1931.130859375
 10
3502.05078125
 20
-1931.130859375
 10
3512.056640625
 20
-1931.130859375
 10
3522.0625
 20
-1931.130859375
 10
3532.068359375
 20
-1931.130859375
 10
3542.07421875
 20
-1931.130859375
 10
3552.080078125
 20
-1931.130859375
 10
3562.0859375
 20
-1931.130859375
 10
3572.091796875
 20
-1931.130859375
 10
3582.09765625
 20
-1931.130859375
 10
3592.103515625
 20
-1931.130859375
 10
3602.109375
 20
-1931.130859375
 10
3612.115234375
 20
-1941.13671875
 10
3622.12109375
 20
-1931.130859375
 10
3632.126953125
 20
-1931.130859375
 10
3642.1328125
 20
-1931.130859375
 10
3652.138671875
 20
-1931.130859375
 10
3662.14453125
 20
-1931.130859375
 10
3672.150390625
 20
-1941.13671875
 10
3682.15625
 20
-1931.130859375
 10
3692.162109375
 20
-1941.13671875
 10
3702.16796875
 20
-1931.130859375
 10
3712.173828125
 20
-1931.130859375
 10
3722.1796875
 20
-1931.130859375
 10
3732.185546875
 20
-1931.130859375
 10
3742.19140625
 20
-1931.130859375
 10
3752.197265625
 20
-1931.130859375
 10
3762.203125
 20
-1931.130859375
 10
3772.208984375
 20
-1931.130859375
 10
3782.21484375
 20
-1931.130859375
 10
3792.220703125
 20
-1931.130859375
 10
3802.2265625
 20
-1931.130859375
 10
3812.232421875
 20
-1931.130859375
 10
3822.23828125
 20
-1931.130859375
 10
3832.244140625
 20
-1931.130859375
 10
3842.25
 20
-1931.130859375
 10
3852.255859375
 20
-1941.13671875
 10
3862.26171875
 20
-1931.130859375
 10
3872.267578125
 20
-1931.130859375
 10
3882.2734375
 20
-1931.130859375
 10
3892.279296875
 20
-1931.130859375
 10
3902.28515625
 20
-1931.130859375
 10
3912.291015625
 20
-1931.130859375
 10
3922.296875
 20
-1931.130859375
 10
3932.302734375
 20
-1931.130859375
 10
3942.30859375
 20
-1931.130859375
 10
3952.314453125
 20
-1931.130859375
 10
3962.3203125
 20
-1931.130859375
 10
3972.326171875
 20
-1931.130859375
 10
3982.33203125
 20
-1931.130859375
 10
3992.337890625
 20
-1931.130859375
 10
4002.34375
 20
-1931.130859375
 10
4012.349609375
 20
-1941.13671875
 10
4022.35546875
 20
-1931.130859375
 10
4032.361328125
 20
-1931.130859375
 10
4042.3671875
 20
-1931.130859375
 10
4052.373046875
 20
-1931.130859375
 10
4062.37890625
 20
-1931.130859375
 10
4072.384765625
 20
-1931.130859375
 10
4082.390625
 20
-1931.130859375
 10
4092.396484375
 20
-1931.130859375
 10
4102.40234375
 20
-1931.130859375
 10
4112.408203125
 20
-1931.130859375
 10
4122.4140625
 20
-1931.130859375
 10
4132.419921875
 20
-1931.130859375
 10
4142.42578125
 20
-1931.130859375
 10
4152.431640625
 20
-1931.130859375
 10
4162.4375
 20
-1931.130859375
 10
4172.443359375
 20
-1931.130859375
 10
4182.44921875
 20
-1931.130859375
 10
4192.455078125
 20
-1931.130859375
 10
4202.4609375
 20
-1931.130859375
 10
4212.466796875
 20
-1931.130859375
 10
4222.47265625
 20
-1941.13671875
 10
4222.47265625
 20
-1951.142578125
 10
4232.478515625
 20
-1961.1484375
 10
4232.478515625
 20
-1971.154296875
 10
4232.478515625
 20
-1981.16015625
 10
4232.478515625
 20
-1991.166015625
 10
4222.47265625
 20
-2001.171875
 10
4232.478515625
 20
-2011.177734375
 10
4222.47265625
 20
-2021.18359375
 10
4232.478515625
 20
-2031.189453125
 10
4222.47265625
 20
-2041.1953125
 10
4222.47265625
 20
-2051.201171875
 10
4222.47265625
 20
-2061.20703125
 10
4222.47265625
 20
-2071.212890625
 10
4222.47265625
 20
-2081.21875
 10
4222.47265625
 20
-2091.224609375
 10
4222.47265625
 20
-2101.23046875
 10
4232.478515625
 20
-2111.236328125
 10
4232.478515625
 20
-2121.2421875
 10
4232.478515625
 20
-2131.248046875
 10
4222.47265625
 20
-2141.25390625
 10
4222.47265625
 20
-2151.259765625
 10
4222.47265625
 20
-2161.265625
 10
4232.478515625
 20
-2171.271484375
 10
4232.478515625
 20
-2181.27734375
 10
4222.47265625
 20
-2191.283203125
 10
4232.478515625
 20
-2201.2890625
 10
4232.478515625
 20
-2211.294921875
 10
4222.47265625
 20
-2221.30078125
 10
4222.47265625
 20
-2231.306640625
 10
4232.478515625
 20
-2241.3125
 10
4222.47265625
 20
-2251.318359375
 10
4222.47265625
 20
-2261.32421875
 10
4222.47265625
 20
-2271.330078125
 10
4222.47265625
 20
-2281.3359375
 10
4222.47265625
 20
-2291.341796875
 10
4222.47265625
 20
-2301.34765625
 10
4222.47265625
 20
-2311.353515625
 10
4222.47265625
 20
-2321.359375
 10
4222.47265625
 20
-2331.365234375
 10
4222.47265625
 20
-2341.37109375
 10
4222.47265625
 20
-2351.376953125
 10
4232.478515625
 20
-2361.3828125
 10
4232.478515625
 20
-2371.388671875
 10
4222.47265625
 20
-2381.39453125
 10
4222.47265625
 20
-2391.400390625
 10
4222.47265625
 20
-2401.40625
 10
4222.47265625
 20
-2411.412109375
 10
4222.47265625
 20
-2421.41796875
 10
4232.478515625
 20
-2431.423828125
 10
4232.478515625
 20
-2441.4296875
 10
4232.478515625
 20
-2451.435546875
 10
4232.478515625
 20
-2461.44140625
 10
4232.478515625
 20
-2471.447265625
 10
4232.478515625
 20
-2481.453125
 10
4232.478515625
 20
-2491.458984375
 10
4232.478515625
 20
-2501.46484375
 10
4222.47265625
 20
-2511.470703125
 10
4222.47265625
 20
-2521.4765625
 10
4232.478515625
 20
-2531.482421875
 10
4222.47265625
 20
-2541.48828125
 10
4222.47265625
 20
-2551.494140625
 10
4232.478515625
 20
-2561.5
 10
4222.47265625
 20
-2571.505859375
 10
4222.47265625
 20
-2581.51171875
 10
4222.47265625
 20
-2591.517578125
 10
4222.47265625
 20
-2601.5234375
 10
4222.47265625
 20
-2611.529296875
 10
4232.478515625
 20
-2621.53515625
 10
4232.478515625
 20
-2631.541015625
 10
4232.478515625
 20
-2641.546875
 10
4232.478515625
 20
-2651.552734375
 10
4232.478515625
 20
-2661.55859375
 10
4232.478515625
 20
-2671.564453125
 10
4232.478515625
 20
-2681.5703125
 10
4232.478515625
 20
-2691.576171875
 10
4232.478515625
 20
-2701.58203125
 10
4232.478515625
 20
-2711.587890625
 10
4232.478515625
 20
-2721.59375
 10
4232.478515625
 20
-2731.599609375
 10
4232.478515625
 20
-2741.60546875
 10
4232.478515625
 20
-2751.611328125
 10
4232.478515625
 20
-2761.6171875
 10
4232.478515625
 20
-2771.623046875
 10
4232.478515625
 20
-2781.62890625
 10
4232.478515625
 20
-2791.634765625
 10
4232.478515625
 20
-2801.640625
 10
4232.478515625
 20
-2811.646484375
 10
4222.47265625
 20
-2821.65234375
 10
4222.47265625
 20
-2831.658203125
 10
4222.47265625
 20
-2841.6640625
 10
4222.47265625
 20
-2851.669921875
 10
4222.47265625
 20
-2861.67578125
 10
4222.47265625
 20
-2871.681640625
 10
4232.478515625
 20
-2881.6875
 10
4232.478515625
 20
-2891.693359375
 10
4222.47265625
 20
-2901.69921875
 10
4222.47265625
 20
-2911.705078125
 10
4222.47265625
 20
-2921.7109375
 10
4222.47265625
 20
-2931.716796875
 10
4232.478515625
 20
-2941.72265625
 10
4232.478515625
 20
-2951.728515625
 10
4222.47265625
 20
-2961.734375
 10
4222.47265625
 20
-2971.740234375
 10
4232.478515625
 20
-2981.74609375
 10
4222.47265625
 20
-2991.751953125
 10
4222.47265625
 20
-3001.7578125
 10
4222.47265625
 20
-3011.763671875
 10
4232.478515625
 20
-3021.76953125
 10
4222.47265625
 20
-3031.775390625
 10
4232.478515625
 20
-3041.78125
 10
4222.47265625
 20
-3051.787109375
 10
4232.478515625
 20
-3061.79296875
 10
4232.478515625
 20
-3071.798828125
 10
4232.478515625
 20
-3081.8046875
 10
4232.478515625
 20
-3091.810546875
 10
4232.478515625
 20
-3101.81640625
 10
4232.478515625
 20
-3111.822265625
 10
4232.478515625
 20
-3121.828125
 10
4232.478515625
 20
-3131.833984375
 10
4232.478515625
 20
-3141.83984375
 10
4232.478515625
 20
-3151.845703125
 10
4222.47265625
 20
-3161.8515625
 10
4222.47265625
 20
-3171.857421875
 10
4212.466796875
 20
-3181.86328125
 10
4202.4609375
 20
-3181.86328125
 10
4192.455078125
 20
-3181.86328125
 10
4182.44921875
 20
-3181.86328125
 10
4172.443359375
 20
-3171.857421875
 10
4162.4375
 20
-3181.86328125
 10
4152.431640625
 20
-3171.857421875
 10
4142.42578125
 20
-3181.86328125
 10
4132.419921875
 20
-3171.857421875
 10
4122.4140625
 20
-3171.857421875
 10
4112.408203125
 20
-3171.857421875
 10
4102.40234375
 20
-3171.857421875
 10
4092.396484375
 20
-3171.857421875
 10
4082.390625
 20
-3171.857421875
 10
4072.384765625
 20
-3171.857421875
 10
4062.37890625
 20
-3181.86328125
 10
4052.373046875
 20
-3171.857421875
 10
4042.3671875
 20
-3181.86328125
 10
4032.361328125
 20
-3181.86328125
 10
4022.35546875
 20
-3171.857421875
 10
4012.349609375
 20
-3171.857421875
 10
4002.34375
 20
-3171.857421875
 10
3992.337890625
 20
-3171.857421875
 10
3982.33203125
 20
-3171.857421875
 10
3972.326171875
 20
-3171.857421875
 10
3962.3203125
 20
-3181.86328125
 10
3952.314453125
 20
-3171.857421875
 10
3942.30859375
 20
-3181.86328125
 10
3932.302734375
 20
-3171.857421875
 10
3922.296875
 20
-3181.86328125
 10
3912.291015625
 20
-3181.86328125
 10
3902.28515625
 20
-3181.86328125
 10
3892.279296875
 20
-3181.86328125
 10
3882.2734375
 20
-3181.86328125
 10
3872.267578125
 20
-3181.86328125
 10
3862.26171875
 20
-3181.86328125
 10
3852.255859375
 20
-3181.86328125
 10
3842.25
 20
-3181.86328125
 10
3832.244140625
 20
-3181.86328125
 10
3822.23828125
 20
-3181.86328125
 10
3812.232421875
 20
-3171.857421875
 10
3802.2265625
 20
-3181.86328125
 10
3792.220703125
 20
-3181.86328125
 10
3782.21484375
 20
-3181.86328125
 10
3772.208984375
 20
-3171.857421875
 10
3762.203125
 20
-3171.857421875
 10
3752.197265625
 20
-3181.86328125
 10
3742.19140625
 20
-3181.86328125
 10
3732.185546875
 20
-3181.86328125
 10
3722.1796875
 20
-3181.86328125
 10
3712.173828125
 20
-3181.86328125
 10
3702.16796875
 20
-3181.86328125
 10
3692.162109375
 20
-3171.857421875
 10
3682.15625
 20
-3181.86328125
 10
3672.150390625
 20
-3181.86328125
 10
3662.14453125
 20
-3181.86328125
 10
3652.138671875
 20
-3181.86328125
 10
3642.1328125
 20
-3181.86328125
 10
3632.126953125
 20
-3181.86328125
 10
3622.12109375
 20
-3181.86328125
 10
3612.115234375
 20
-3181.86328125
 10
3602.109375
 20
-3181.86328125
 10
3592.103515625
 20
-3181.86328125
 10
3582.09765625
 20
-3181.86328125
 10
3572.091796875
 20
-3181.86328125
 10
3562.0859375
 20
-3181.86328125
 10
3552.080078125
 20
-3181.86328125
 10
3542.07421875
 20
-3181.86328125
 10
3532.068359375
 20
-3181.86328125
 10
3522.0625
 20
-3181.86328125
 10
3512.056640625
 20
-3181.86328125
 10
3502.05078125
 20
-3181.86328125
 10
3492.044921875
 20
-3181.86328125
 10
3482.0390625
 20
-3181.86328125
 10
3472.033203125
 20
-3181.86328125
 10
3462.02734375
 20
-3181.86328125
 10
3452.021484375
 20
-3181.86328125
 10
3442.015625
 20
-3181.86328125
 10
3432.009765625
 20
-3181.86328125
 10
3422.00390625
 20
-3181.86328125
 10
3411.998046875
 20
-3181.86328125
 10
3401.9921875
 20
-3181.86328125
 10
3391.986328125
 20
-3181.86328125
 10
3381.98046875
 20
-3181.86328125
 10
3371.974609375
 20
-3181.86328125
 10
3361.96875
 20
-3181.86328125
 10
3351.962890625
 20
-3181.86328125
 10
3341.95703125
 20
-3181.86328125
 10
3331.951171875
 20
-3181.86328125
 10
3321.9453125
 20
-3181.86328125
 10
3311.939453125
 20
-3181.86328125
 10
3301.93359375
 20
-3181.86328125
 10
3291.927734375
 20
-3181.86328125
 10
3281.921875
 20
-3181.86328125
 10
3271.916015625
 20
-3181.86328125
 10
3261.91015625
 20
-3181.86328125
 10
3251.904296875
 20
-3181.86328125
 10
3241.8984375
 20
-3181.86328125
 10
3231.892578125
 20
-3181.86328125
 10
3221.88671875
 20
-3181.86328125
 10
3211.880859375
 20
-3181.86328125
 10
3201.875
 20
-3181.86328125
 10
3191.869140625
 20
-3181.86328125
 10
3181.86328125
 20
-3181.86328125
 10
3181.86328125
 20
-3191.869140625
 10
3181.86328125
 20
-3201.875
 10
3181.86328125
 20
-3211.880859375
 10
3181.86328125
 20
-3221.88671875
 10
3181.86328125
 20
-3231.892578125
 10
3181.86328125
 20
-3241.8984375
 10
3181.86328125
 20
-3251.904296875
 10
3181.86328125
 20
-3261.91015625
 10
3171.857421875
 20
-3271.916015625
 10
3181.86328125
 20
-3281.921875
 10
3181.86328125
 20
-3291.927734375
 10
3181.86328125
 20
-3301.93359375
 10
3181.86328125
 20
-3311.939453125
 10
3181.86328125
 20
-3321.9453125
 10
3181.86328125
 20
-3331.951171875
 10
3181.86328125
 20
-3341.95703125
 10
3181.86328125
 20
-3351.962890625
 10
3181.86328125
 20
-3361.96875
 10
3181.86328125
 20
-3371.974609375
 10
3181.86328125
 20
-3381.98046875
 10
3181.86328125
 20
-3391.986328125
 10
3181.86328125
 20
-3401.9921875
 10
3181.86328125
 20
-3411.998046875
 10
3181.86328125
 20
-3422.00390625
 10
3181.86328125
 20
-3432.009765625
 10
3181.86328125
 20
-3442.015625
 10
3181.86328125
 20
-3452.021484375
 10
3181.86328125
 20
-3462.02734375
 10
3181.86328125
 20
-3472.033203125
 10
3181.86328125
 20
-3482.0390625
 10
3181.86328125
 20
-3492.044921875
 10
3181.86328125
 20
-3502.05078125
 10
3181.86328125
 20
-3512.056640625
 10
3181.86328125
 20
-3522.0625
 10
3181.86328125
 20
-3532.068359375
 10
3181.86328125
 20
-3542.07421875
 10
3181.86328125
 20
-3552.080078125
 10
3181.86328125
 20
-3562.0859375
 10
3181.86328125
 20
-3572.091796875
 10
3181.86328125
 20
-3582.09765625
 10
3181.86328125
 20
-3592.103515625
 10
3181.86328125
 20
-3602.109375
 10
3181.86328125
 20
-3612.115234375
 10
3181.86328125
 20
-3622.12109375
 10
3181.86328125
 20
-3632.126953125
 10
3181.86328125
 20
-3642.1328125
 10
3181.86328125
 20
-3652.138671875
 10
3181.86328125
 20
-3662.14453125
 10
3181.86328125
 20
-3672.150390625
 10
3181.86328125
 20
-3682.15625
 10
3181.86328125
 20
-3692.162109375
 10
3181.86328125
 20
-3702.16796875
 10
3181.86328125
 20
-3712.173828125
 10
3181.86328125
 20
-3722.1796875
 10
3181.86328125
 20
-3732.185546875
 10
3181.86328125
 20
-3742.19140625
 10
3181.86328125
 20
-3752.197265625
 10
3181.86328125
 20
-3762.203125
 10
3181.86328125
 20
-3772.208984375
 10
3181.86328125
 20
-3782.21484375
 10
3181.86328125
 20
-3792.220703125
 10
3181.86328125
 20
-3802.2265625
 10
3181.86328125
 20
-3812.232421875
 10
3181.86328125
 20
-3822.23828125
 10
3181.86328125
 20
-3832.244140625
 10
3181.86328125
 20
-3842.25
 10
3181.86328125
 20
-3852.255859375
 10
3181.86328125
 20
-3862.26171875
 10
3181.86328125
 20
-3872.267578125
 10
3181.86328125
 20
-3882.2734375
 10
3181.86328125
 20
-3892.279296875
 10
3181.86328125
 20
-3902.28515625
 10
3181.86328125
 20
-3912.291015625
 10
3181.86328125
 20
-3922.296875
 10
3181.86328125
 20
-3932.302734375
 10
3181.86328125
 20
-3942.30859375
 10
3181.86328125
 20
-3952.314453125
 10
3181.86328125
 20
-3962.3203125
 10
3181.86328125
 20
-3972.326171875
 10
3181.86328125
 20
-3982.33203125
 10
3181.86328125
 20
-3992.337890625
 10
3181.86328125
 20
-4002.34375
 10
3181.86328125
 20
-4012.349609375
 10
3181.86328125
 20
-4022.35546875
 10
3181.86328125
 20
-4032.361328125
 10
3181.86328125
 20
-4042.3671875
 10
3181.86328125
 20
-4052.373046875
 10
3181.86328125
 20
-4062.37890625
 10
3181.86328125
 20
-4072.384765625
 10
3181.86328125
 20
-4082.390625
 10
3181.86328125
 20
-4092.396484375
 10
3181.86328125
 20
-4102.40234375
 10
3181.86328125
 20
-4112.408203125
 10
3181.86328125
 20
-4122.4140625
 10
3171.857421875
 20
-4132.419921875
 10
3181.86328125
 20
-4142.42578125
 10
3181.86328125
 20
-4152.431640625
 10
3181.86328125
 20
-4162.4375
 10
3181.86328125
 20
-4172.443359375
 10
3181.86328125
 20
-4182.44921875
 10
3181.86328125
 20
-4192.455078125
 10
3181.86328125
 20
-4202.4609375
 10
3171.857421875
 20
-4212.466796875
 10
3161.8515625
 20
-4222.47265625
 10
3151.845703125
 20
-4232.478515625
 10
3141.83984375
 20
-4232.478515625
 10
3131.833984375
 20
-4222.47265625
 10
3121.828125
 20
-4222.47265625
 10
3111.822265625
 20
-4222.47265625
 10
3101.81640625
 20
-4222.47265625
 10
3091.810546875
 20
-4222.47265625
 10
3081.8046875
 20
-4232.478515625
 10
3071.798828125
 20
-4232.478515625
 10
3061.79296875
 20
-4232.478515625
 10
3051.787109375
 20
-4232.478515625
 10
3041.78125
 20
-4232.478515625
 10
3031.775390625
 20
-4232.478515625
 10
3021.76953125
 20
-4232.478515625
 10
3011.763671875
 20
-4232.478515625
 10
3001.7578125
 20
-4232.478515625
 10
2991.751953125
 20
-4232.478515625
 10
2981.74609375
 20
-4222.47265625
 10
2971.740234375
 20
-4222.47265625
 10
2961.734375
 20
-4232.478515625
 10
2951.728515625
 20
-4232.478515625
 10
2941.72265625
 20
-4232.478515625
 10
2931.716796875
 20
-4232.478515625
 10
2921.7109375
 20
-4232.478515625
 10
2911.705078125
 20
-4232.478515625
 10
2901.69921875
 20
-4232.478515625
 10
2891.693359375
 20
-4222.47265625
 10
2881.6875
 20
-4222.47265625
 10
2871.681640625
 20
-4232.478515625
 10
2861.67578125
 20
-4232.478515625
 10
2851.669921875
 20
-4232.478515625
 10
2841.6640625
 20
-4232.478515625
 10
2831.658203125
 20
-4232.478515625
 10
2821.65234375
 20
-4232.478515625
 10
2811.646484375
 20
-4232.478515625
 10
2801.640625
 20
-4222.47265625
 10
2791.634765625
 20
-4222.47265625
 10
2781.62890625
 20
-4222.47265625
 10
2771.623046875
 20
-4232.478515625
 10
2761.6171875
 20
-4232.478515625
 10
2751.611328125
 20
-4232.478515625
 10
2741.60546875
 20
-4232.478515625
 10
2731.599609375
 20
-4232.478515625
 10
2721.59375
 20
-4222.47265625
 10
2711.587890625
 20
-4222.47265625
 10
2701.58203125
 20
-4232.478515625
 10
2691.576171875
 20
-4232.478515625
 10
2681.5703125
 20
-4222.47265625
 10
2671.564453125
 20
-4222.47265625
 10
2661.55859375
 20
-4222.47265625
 10
2651.552734375
 20
-4222.47265625
 10
2641.546875
 20
-4222.47265625
 10
2631.541015625
 20
-4222.47265625
 10
2621.53515625
 20
-4222.47265625
 10
2611.529296875
 20
-4222.47265625
 10
2601.5234375
 20
-4222.47265625
 10
2591.517578125
 20
-4222.47265625
 10
2581.51171875
 20
-4222.47265625
 10
2571.505859375
 20
-4222.47265625
 10
2561.5
 20
-4232.478515625
 10
2551.494140625
 20
-4222.47265625
 10
2541.48828125
 20
-4232.478515625
 10
2531.482421875
 20
-4232.478515625
 10
2521.4765625
 20
-4232.478515625
 10
2511.470703125
 20
-4232.478515625
 10
2501.46484375
 20
-4232.478515625
 10
2491.458984375
 20
-4232.478515625
 10
2481.453125
 20
-4222.47265625
 10
2471.447265625
 20
-4222.47265625
 10
2461.44140625
 20
-4222.47265625
 10
2451.435546875
 20
-4222.47265625
 10
2441.4296875
 20
-4222.47265625
 10
2431.423828125
 20
-4222.47265625
 10
2421.41796875
 20
-4222.47265625
 10
2411.412109375
 20
-4222.47265625
 10
2401.40625
 20
-4232.478515625
 10
2391.400390625
 20
-4232.478515625
 10
2381.39453125
 20
-4232.478515625
 10
2371.388671875
 20
-4232.478515625
 10
2361.3828125
 20
-4232.478515625
 10
2351.376953125
 20
-4232.478515625
 10
2341.37109375
 20
-4232.478515625
 10
2331.365234375
 20
-4232.478515625
 10
2321.359375
 20
-4232.478515625
 10
2311.353515625
 20
-4222.47265625
 10
2301.34765625
 20
-4232.478515625
 10
2291.341796875
 20
-4232.478515625
 10
2281.3359375
 20
-4222.47265625
 10
2271.330078125
 20
-4222.47265625
 10
2261.32421875
 20
-4232.478515625
 10
2251.318359375
 20
-4222.47265625
 10
2241.3125
 20
-4222.47265625
 10
2231.306640625
 20
-4222.47265625
 10
2221.30078125
 20
-4222.47265625
 10
2211.294921875
 20
-4232.478515625
 10
2201.2890625
 20
-4222.47265625
 10
2191.283203125
 20
-4232.478515625
 10
2181.27734375
 20
-4222.47265625
 10
2171.271484375
 20
-4222.47265625
 10
2161.265625
 20
-4222.47265625
 10
2151.259765625
 20
-4222.47265625
 10
2141.25390625
 20
-4222.47265625
 10
2131.248046875
 20
-4222.47265625
 10
2121.2421875
 20
-4222.47265625
 10
2111.236328125
 20
-4222.47265625
 10
2101.23046875
 20
-4232.478515625
 10
2091.224609375
 20
-4222.47265625
 10
2081.21875
 20
-4222.47265625
 10
2071.212890625
 20
-4222.47265625
 10
2061.20703125
 20
-4222.47265625
 10
2051.201171875
 20
-4222.47265625
 10
2041.1953125
 20
-4222.47265625
 10
2031.189453125
 20
-4232.478515625
 10
2021.18359375
 20
-4222.47265625
 10
2011.177734375
 20
-4222.47265625
 10
2001.171875
 20
-4222.47265625
 10
1991.166015625
 20
-4222.47265625
 10
1981.16015625
 20
-4222.47265625
 10
1971.154296875
 20
-4232.478515625
 10
1961.1484375
 20
-4232.478515625
 10
1951.142578125
 20
-4232.478515625
 10
1941.13671875
 20
-4232.478515625
 10
1931.130859375
 20
-4222.47265625
 10
1931.130859375
 20
-4212.466796875
 10
1931.130859375
 20
-4202.4609375
 10
1931.130859375
 20
-4192.455078125
 10
1931.130859375
 20
-4182.44921875
 10
1931.130859375
 20
-4172.443359375
 10
1931.130859375
 20
-4162.4375
 10
1931.130859375
 20
-4152.431640625
 10
1931.130859375
 20
-4142.42578125
 10
1931.130859375
 20
-4132.419921875
 10
1931.130859375
 20
-4122.4140625
 10
1931.130859375
 20
-4112.408203125
 10
1931.130859375
 20
-4102.40234375
 10
1931.130859375
 20
-4092.396484375
 10
1931.130859375
 20
-4082.390625
 10
1931.130859375
 20
-4072.384765625
 10
1931.130859375
 20
-4062.37890625
 10
1931.130859375
 20
-4052.373046875
 10
1931.130859375
 20
-4042.3671875
 10
1931.130859375
 20
-4032.361328125
 10
1931.130859375
 20
-4022.35546875
 10
1931.130859375
 20
-4012.349609375
 10
1931.130859375
 20
-4002.34375
 10
1931.130859375
 20
-3992.337890625
 10
1931.130859375
 20
-3982.33203125
 10
1931.130859375
 20
-3972.326171875
 10
1931.130859375
 20
-3962.3203125
 10
1931.130859375
 20
-3952.314453125
 10
1931.130859375
 20
-3942.30859375
 10
1931.130859375
 20
-3932.302734375
 10
1931.130859375
 20
-3922.296875
 10
1931.130859375
 20
-3912.291015625
 10
1931.130859375
 20
-3902.28515625
 10
1931.130859375
 20
-3892.279296875
 10
1931.130859375
 20
-3882.2734375
 10
1931.130859375
 20
-3872.267578125
 10
1931.130859375
 20
-3862.26171875
 10
1931.130859375
 20
-3852.255859375
 10
1931.130859375
 20
-3842.25
 10
1931.130859375
 20
-3832.244140625
 10
1931.130859375
 20
-3822.23828125
 10
1931.130859375
 20
-3812.232421875
 10
1931.130859375
 20
-3802.2265625
 10
1931.130859375
 20
-3792.220703125
 10
1921.125
 20
-3782.21484375
 10
1931.130859375
 20
-3772.208984375
 10
1921.125
 20
-3762.203125
 10
1931.130859375
 20
-3752.197265625
 10
1931.130859375
 20
-3742.19140625
 10
1931.130859375
 20
-3732.185546875
 10
1931.130859375
 20
-3722.1796875
 10
1931.130859375
 20
-3712.173828125
 10
1931.130859375
 20
-3702.16796875
 10
1931.130859375
 20
-3692.162109375
 10
1931.130859375
 20
-3682.15625
 10
1931.130859375
 20
-3672.150390625
 10
1931.130859375
 20
-3662.14453125
 10
1931.130859375
 20
-3652.138671875
 10
1931.130859375
 20
-3642.1328125
 10
1931.130859375
 20
-3632.126953125
 10
1931.130859375
 20
-3622.12109375
 10
1931.130859375
 20
-3612.115234375
 10
1931.130859375
 20
-3602.109375
 10
1931.130859375
 20
-3592.103515625
 10
1921.125
 20
-3582.09765625
 10
1931.130859375
 20
-3572.091796875
 10
1931.130859375
 20
-3562.0859375
 10
1931.130859375
 20
-3552.080078125
 10
1931.130859375
 20
-3542.07421875
 10
1931.130859375
 20
-3532.068359375
 10
1931.130859375
 20
-3522.0625
 10
1931.130859375
 20
-3512.056640625
 10
1931.130859375
 20
-3502.05078125
 10
1931.130859375
 20
-3492.044921875
 10
1931.130859375
 20
-3482.0390625
 10
1931.130859375
 20
-3472.033203125
 10
1931.130859375
 20
-3462.02734375
 10
1931.130859375
 20
-3452.021484375
 10
1931.130859375
 20
-3442.015625
 10
1931.130859375
 20
-3432.009765625
 10
1931.130859375
 20
-3422.00390625
 10
1931.130859375
 20
-3411.998046875
 10
1931.130859375
 20
-3401.9921875
 10
1931.130859375
 20
-3391.986328125
 10
1931.130859375
 20
-3381.98046875
 10
1931.130859375
 20
-3371.974609375
 10
1931.130859375
 20
-3361.96875
 10
1931.130859375
 20
-3351.962890625
 10
1931.130859375
 20
-3341.95703125
 10
1931.130859375
 20
-3331.951171875
 10
1931.130859375
 20
-3321.9453125
 10
1931.130859375
 20
-3311.939453125
 10
1931.130859375
 20
-3301.93359375
 10
1931.130859375
 20
-3291.927734375
 10
1931.130859375
 20
-3281.921875
 10
1931.130859375
 20
-3271.916015625
 10
1931.130859375
 20
-3261.91015625
 10
1931.130859375
 20
-3251.904296875
 10
1931.130859375
 20
-3241.8984375
 10
1931.130859375
 20
-3231.892578125
 10
1931.130859375
 20
-3221.88671875
 10
1931.130859375
 20
-3211.880859375
 10
1931.130859375
 20
-3201.875
 10
1931.130859375
 20
-3191.869140625
 10
1931.130859375
 20
-3181.86328125
 10
1921.125
 20
-3181.86328125
 10
1911.119140625
 20
-3171.857421875
 10
1901.11328125
 20
-3171.857421875
 10
1891.107421875
 20
-3181.86328125
 10
1881.1015625
 20
-3181.86328125
 10
1871.095703125
 20
-3171.857421875
 10
1861.08984375
 20
-3181.86328125
 10
1851.083984375
 20
-3171.857421875
 10
1841.078125
 20
-3171.857421875
 10
1831.072265625
 20
-3171.857421875
 10
1821.06640625
 20
-3171.857421875
 10
1811.060546875
 20
-3171.857421875
 10
1801.0546875
 20
-3171.857421875
 10
1791.048828125
 20
-3171.857421875
 10
1781.04296875
 20
-3181.86328125
 10
1771.037109375
 20
-3181.86328125
 10
1761.03125
 20
-3181.86328125
 10
1751.025390625
 20
-3181.86328125
 10
1741.01953125
 20
-3181.86328125
 10
1731.013671875
 20
-3181.86328125
 10
1721.0078125
 20
-3181.86328125
 10
1711.001953125
 20
-3181.86328125
 10
1700.99609375
 20
-3181.86328125
 10
1690.990234375
 20
-3181.86328125
 10
1680.984375
 20
-3171.857421875
 10
1670.978515625
 20
-3171.857421875
 10
1660.97265625
 20
-3171.857421875
 10
1650.966796875
 20
-3171.857421875
 10
1640.9609375
 20
-3171.857421875
 10
1630.955078125
 20
-3171.857421875
 10
1620.94921875
 20
-3181.86328125
 10
1610.943359375
 20
-3171.857421875
 10
1600.9375
 20
-3181.86328125
 10
1590.931640625
 20
-3181.86328125
 10
1580.92578125
 20
-3181.86328125
 10
1570.919921875
 20
-3181.86328125
 10
1560.9140625
 20
-3181.86328125
 10
1550.908203125
 20
-3171.857421875
 10
1540.90234375
 20
-3171.857421875
 10
1530.896484375
 20
-3171.857421875
 10
1520.890625
 20
-3171.857421875
 10
1510.884765625
 20
-3171.857421875
 10
1500.87890625
 20
-3171.857421875
 10
1490.873046875
 20
-3171.857421875
 10
1480.8671875
 20
-3171.857421875
 10
1470.861328125
 20
-3171.857421875
 10
1460.85546875
 20
-3171.857421875
 10
1450.849609375
 20
-3181.86328125
 10
1440.84375
 20
-3181.86328125
 10
1430.837890625
 20
-3171.857421875
 10
1420.83203125
 20
-3181.86328125
 10
1410.826171875
 20
-3181.86328125
 10
1400.8203125
 20
-3181.86328125
 10
1390.814453125
 20
-3171.857421875
 10
1380.80859375
 20
-3171.857421875
 10
1370.802734375
 20
-3171.857421875
 10
1360.796875
 20
-3171.857421875
 10
1350.791015625
 20
-3171.857421875
 10
1340.78515625
 20
-3171.857421875
 10
1330.779296875
 20
-3171.857421875
 10
1320.7734375
 20
-3171.857421875
 10
1310.767578125
 20
-3171.857421875
 10
1300.76171875
 20
-3181.86328125
 10
1290.755859375
 20
-3171.857421875
 10
1280.75
 20
-3181.86328125
 10
1270.744140625
 20
-3171.857421875
 10
1260.73828125
 20
-3171.857421875
 10
1250.732421875
 20
-3171.857421875
 10
1240.7265625
 20
-3181.86328125
 10
1230.720703125
 20
-3171.857421875
 10
1220.71484375
 20
-3181.86328125
 10
1210.708984375
 20
-3181.86328125
 10
1200.703125
 20
-3171.857421875
 10
1190.697265625
 20
-3171.857421875
 10
1180.69140625
 20
-3171.857421875
 10
1170.685546875
 20
-3171.857421875
 10
1160.6796875
 20
-3171.857421875
 10
1150.673828125
 20
-3171.857421875
 10
1140.66796875
 20
-3181.86328125
 10
1130.662109375
 20
-3181.86328125
 10
1120.65625
 20
-3181.86328125
 10
1110.650390625
 20
-3181.86328125
 10
1100.64453125
 20
-3181.86328125
 10
1090.638671875
 20
-3171.857421875
 10
1080.6328125
 20
-3181.86328125
 10
1070.626953125
 20
-3181.86328125
 10
1060.62109375
 20
-3181.86328125
 10
1050.615234375
 20
-3181.86328125
 10
1040.609375
 20
-3181.86328125
 10
1030.603515625
 20
-3181.86328125
 10
1020.59765625
 20
-3171.857421875
 10
1010.591796875
 20
-3181.86328125
 10
1000.5859375
 20
-3181.86328125
 10
990.580078125
 20
-3181.86328125
 10
980.57421875
 20
-3181.86328125
 10
970.568359375
 20
-3181.86328125
 10
960.5625
 20
-3181.86328125
 10
950.556640625
 20
-3181.86328125
 10
940.55078125
 20
-3181.86328125
 10
930.544921875
 20
-3181.86328125
 10
920.5390625
 20
-3181.86328125
 10
910.533203125
 20
-3171.857421875
 10
900.52734375
 20
-3171.857421875
 10
890.521484375
 20
-3171.857421875
 10
880.515625
 20
-3161.8515625
 10
880.515625
 20
-3151.845703125
 10
880.515625
 20
-3141.83984375
 10
880.515625
 20
-3131.833984375
 10
880.515625
 20
-3121.828125
 10
880.515625
 20
-3111.822265625
 10
880.515625
 20
-3101.81640625
 10
880.515625
 20
-3091.810546875
 10
880.515625
 20
-3081.8046875
 10
890.521484375
 20
-3071.798828125
 10
880.515625
 20
-3061.79296875
 10
880.515625
 20
-3051.787109375
 10
880.515625
 20
-3041.78125
 10
880.515625
 20
-3031.775390625
 10
880.515625
 20
-3021.76953125
 10
880.515625
 20
-3011.763671875
 10
890.521484375
 20
-3001.7578125
 10
880.515625
 20
-2991.751953125
 10
880.515625
 20
-2981.74609375
 10
880.515625
 20
-2971.740234375
 10
880.515625
 20
-2961.734375
 10
880.515625
 20
-2951.728515625
 10
880.515625
 20
-2941.72265625
 10
880.515625
 20
-2931.716796875
 10
880.515625
 20
-2921.7109375
 10
880.515625
 20
-2911.705078125
 10
880.515625
 20
-2901.69921875
 10
880.515625
 20
-2891.693359375
 10
880.515625
 20
-2881.6875
 10
880.515625
 20
-2871.681640625
 10
880.515625
 20
-2861.67578125
 10
880.515625
 20
-2851.669921875
 10
880.515625
 20
-2841.6640625
 10
880.515625
 20
-2831.658203125
 10
880.515625
 20
-2821.65234375
 10
880.515625
 20
-2811.646484375
 10
880.515625
 20
-2801.640625
 10
880.515625
 20
-2791.634765625
 10
880.515625
 20
-2781.62890625
 10
880.515625
 20
-2771.623046875
 10
880.515625
 20
-2761.6171875
 10
880.515625
 20
-2751.611328125
 10
880.515625
 20
-2741.60546875
 10
880.515625
 20
-2731.599609375
 10
880.515625
 20
-2721.59375
 10
880.515625
 20
-2711.587890625
 10
880.515625
 20
-2701.58203125
 10
880.515625
 20
-2691.576171875
 10
880.515625
 20
-2681.5703125
 10
880.515625
 20
-2671.564453125
 10
880.515625
 20
-2661.55859375
 10
880.515625
 20
-2651.552734375
 10
880.515625
 20
-2641.546875
 10
880.515625
 20
-2631.541015625
 10
880.515625
 20
-2621.53515625
 10
880.515625
 20
-2611.529296875
 10
880.515625
 20
-2601.5234375
 10
880.515625
 20
-2591.517578125
 10
880.515625
 20
-2581.51171875
 10
880.515625
 20
-2571.505859375
 10
880.515625
 20
-2561.5
 10
880.515625
 20
-2551.494140625
 10
880.515625
 20
-2541.48828125
 10
880.515625
 20
-2531.482421875
 10
880.515625
 20
-2521.4765625
 10
880.515625
 20
-2511.470703125
 10
880.515625
 20
-2501.46484375
 10
880.515625
 20
-2491.458984375
 10
880.515625
 20
-2481.453125
 10
880.515625
 20
-2471.447265625
 10
880.515625
 20
-2461.44140625
 10
880.515625
 20
-2451.435546875
 10
880.515625
 20
-2441.4296875
 10
880.515625
 20
-2431.423828125
 10
880.515625
 20
-2421.41796875
 10
880.515625
 20
-2411.412109375
 10
880.515625
 20
-2401.40625
 10
880.515625
 20
-2391.400390625
 10
880.515625
 20
-2381.39453125
 10
880.515625
 20
-2371.388671875
 10
880.515625
 20
-2361.3828125
 10
880.515625
 20
-2351.376953125
 10
880.515625
 20
-2341.37109375
 10
880.515625
 20
-2331.365234375
 10
880.515625
 20
-2321.359375
 10
880.515625
 20
-2311.353515625
 10
880.515625
 20
-2301.34765625
 10
880.515625
 20
-2291.341796875
 10
880.515625
 20
-2281.3359375
 10
880.515625
 20
-2271.330078125
 10
880.515625
 20
-2261.32421875
 10
880.515625
 20
-2251.318359375
 10
880.515625
 20
-2241.3125
 10
880.515625
 20
-2231.306640625
 10
880.515625
 20
-2221.30078125
 10
880.515625
 20
-2211.294921875
 10
880.515625
 20
-2201.2890625
 10
880.515625
 20
-2191.283203125
 10
880.515625
 20
-2181.27734375
 10
880.515625
 20
-2171.271484375
 10
880.515625
 20
-2161.265625
 10
880.515625
 20
-2151.259765625
 10
880.515625
 20
-2141.25390625
 10
880.515625
 20
-2131.248046875
 10
880.515625
 20
-2121.2421875
 10
880.515625
 20
-2111.236328125
 10
880.515625
 20
-2101.23046875
 10
880.515625
 20
-2091.224609375
 10
880.515625
 20
-2081.21875
 10
880.515625
 20
-2071.212890625
 10
880.515625
 20
-2061.20703125
 10
880.515625
 20
-2051.201171875
 10
880.515625
 20
-2041.1953125
 10
880.515625
 20
-2031.189453125
 10
880.515625
 20
-2021.18359375
 10
880.515625
 20
-2011.177734375
 10
890.521484375
 20
-2001.171875
 10
880.515625
 20
-1991.166015625
 10
890.521484375
 20
-1981.16015625
 10
880.515625
 20
-1971.154296875
 10
880.515625
 20
-1961.1484375
 10
880.515625
 20
-1951.142578125
 10
890.521484375
 20
-1941.13671875
 10
900.52734375
 20
-1931.130859375
 10
910.533203125
 20
-1931.130859375
 10
920.5390625
 20
-1931.130859375
 10
930.544921875
 20
-1931.130859375
 10
940.55078125
 20
-1931.130859375
 10
950.556640625
 20
-1931.130859375
 10
960.5625
 20
-1931.130859375
 10
970.568359375
 20
-1941.13671875
 10
980.57421875
 20
-1931.130859375
 10
990.580078125
 20
-1931.130859375
 10
1000.5859375
 20
-1931.130859375
 10
1010.591796875
 20
-1941.13671875
 10
1020.59765625
 20
-1931.130859375
 10
1030.603515625
 20
-1941.13671875
 10
1040.609375
 20
-1931.130859375
 10
1050.615234375
 20
-1941.13671875
 10
1060.62109375
 20
-1931.130859375
 10
1070.626953125
 20
-1941.13671875
 10
1080.6328125
 20
-1931.130859375
 10
1090.638671875
 20
-1931.130859375
 10
1100.64453125
 20
-1931.130859375
 10
1110.650390625
 20
-1941.13671875
 10
1120.65625
 20
-1931.130859375
 10
1130.662109375
 20
-1941.13671875
 10
1140.66796875
 20
-1931.130859375
 10
1150.673828125
 20
-1941.13671875
 10
1160.6796875
 20
-1931.130859375
 10
1170.685546875
 20
-1941.13671875
 10
1180.69140625
 20
-1931.130859375
 10
1190.697265625
 20
-1931.130859375
 10
1200.703125
 20
-1931.130859375
 10
1210.708984375
 20
-1941.13671875
 10
1220.71484375
 20
-1931.130859375
 10
1230.720703125
 20
-1931.130859375
 10
1240.7265625
 20
-1931.130859375
 10
1250.732421875
 20
-1941.13671875
 10
1260.73828125
 20
-1931.130859375
 10
1270.744140625
 20
-1941.13671875
 10
1280.75
 20
-1931.130859375
 10
1290.755859375
 20
-1941.13671875
 10
1300.76171875
 20
-1941.13671875
 10
1310.767578125
 20
-1941.13671875
 10
1320.7734375
 20
-1931.130859375
 10
1330.779296875
 20
-1941.13671875
 10
1340.78515625
 20
-1931.130859375
 10
1350.791015625
 20
-1941.13671875
 10
1360.796875
 20
-1941.13671875
 10
1370.802734375
 20
-1941.13671875
 10
1380.80859375
 20
-1941.13671875
 10
1390.814453125
 20
-1941.13671875
 10
1400.8203125
 20
-1941.13671875
 10
1410.826171875
 20
-1941.13671875
 10
1420.83203125
 20
-1931.130859375
 10
1430.837890625
 20
-1941.13671875
 10
1440.84375
 20
-1931.130859375
 10
1450.849609375
 20
-1941.13671875
 10
1460.85546875
 20
-1941.13671875
 10
1470.861328125
 20
-1941.13671875
 10
1480.8671875
 20
-1941.13671875
 10
1490.873046875
 20
-1941.13671875
 10
1500.87890625
 20
-1931.130859375
 10
1510.884765625
 20
-1931.130859375
 10
1520.890625
 20
-1931.130859375
 10
1530.896484375
 20
-1941.13671875
 10
1540.90234375
 20
-1931.130859375
 10
1550.908203125
 20
-1941.13671875
 10
1560.9140625
 20
-1941.13671875
 10
1570.919921875
 20
-1941.13671875
 10
1580.92578125
 20
-1941.13671875
 10
1590.931640625
 20
-1941.13671875
 10
1600.9375
 20
-1941.13671875
 10
1610.943359375
 20
-1941.13671875
 10
1620.94921875
 20
-1941.13671875
 10
1630.955078125
 20
-1941.13671875
 10
1640.9609375
 20
-1941.13671875
 10
1650.966796875
 20
-1941.13671875
 10
1660.97265625
 20
-1941.13671875
 10
1670.978515625
 20
-1941.13671875
 10
1680.984375
 20
-1941.13671875
 10
1690.990234375
 20
-1941.13671875
 10
1700.99609375
 20
-1941.13671875
 10
1711.001953125
 20
-1941.13671875
 10
1721.0078125
 20
-1941.13671875
 10
1731.013671875
 20
-1941.13671875
 10
1741.01953125
 20
-1941.13671875
 10
1751.025390625
 20
-1941.13671875
 10
1761.03125
 20
-1931.130859375
 10
1771.037109375
 20
-1941.13671875
 10
1781.04296875
 20
-1931.130859375
 10
1791.048828125
 20
-1931.130859375
 10
1801.0546875
 20
-1931.130859375
 10
1811.060546875
 20
-1941.13671875
 10
1821.06640625
 20
-1931.130859375
 10
1831.072265625
 20
-1931.130859375
 10
1841.078125
 20
-1931.130859375
 10
1851.083984375
 20
-1931.130859375
 10
1861.08984375
 20
-1931.130859375
 10
1871.095703125
 20
-1931.130859375
 10
1881.1015625
 20
-1941.13671875
 10
1891.107421875
 20
-1941.13671875
 10
1901.11328125
 20
-1941.13671875
 10
1911.119140625
 20
-1941.13671875
 10
1921.125
 20
-1931.130859375
 10
1931.130859375
 20
-1931.130859375
 10
1931.130859375
 20
-1921.125
 10
1931.130859375
 20
-1911.119140625
 10
1931.130859375
 20
-1901.11328125
 10
1931.130859375
 20
-1891.107421875
 10
1931.130859375
 20
-1881.1015625
 10
1931.130859375
 20
-1871.095703125
 10
1931.130859375
 20
-1861.08984375
 10
1931.130859375
 20
-1851.083984375
 10
1931.130859375
 20
-1841.078125
 10
1931.130859375
 20
-1831.072265625
 10
1931.130859375
 20
-1821.06640625
 10
1931.130859375
 20
-1811.060546875
 10
1931.130859375
 20
-1801.0546875
 10
1931.130859375
 20
-1791.048828125
 10
1931.130859375
 20
-1781.04296875
 10
1931.130859375
 20
-1771.037109375
 10
1931.130859375
 20
-1761.03125
 10
1931.130859375
 20
-1751.025390625
 10
1931.130859375
 20
-1741.01953125
 10
1931.130859375
 20
-1731.013671875
 10
1931.130859375
 20
-1721.0078125
 10
1931.130859375
 20
-1711.001953125
 10
1931.130859375
 20
-1700.99609375
 10
1931.130859375
 20
-1690.990234375
 10
1931.130859375
 20
-1680.984375
 10
1931.130859375
 20
-1670.978515625
 10
1931.130859375
 20
-1660.97265625
 10
1931.130859375
 20
-1650.966796875
 10
1931.130859375
 20
-1640.9609375
 10
1931.130859375
 20
-1630.955078125
 10
1931.130859375
 20
-1620.94921875
 10
1931.130859375
 20
-1610.943359375
 10
1931.130859375
 20
-1600.9375
 10
1931.130859375
 20
-1590.931640625
 10
1931.130859375
 20
-1580.92578125
 10
1931.130859375
 20
-1570.919921875
 10
1931.130859375
 20
-1560.9140625
 10
1931.130859375
 20
-1550.908203125
 10
1931.130859375
 20
-1540.90234375
 10
1931.130859375
 20
-1530.896484375
 10
1931.130859375
 20
-1520.890625
 10
1931.130859375
 20
-1510.884765625
 10
1931.130859375
 20
-1500.87890625
 10
1931.130859375
 20
-1490.873046875
 10
1931.130859375
 20
-1480.8671875
 10
1931.130859375
 20
-1470.861328125
 10
1931.130859375
 20
-1460.85546875
 10
1931.130859375
 20
-1450.849609375
 10
1931.130859375
 20
-1440.84375
 10
1931.130859375
 20
-1430.837890625
 10
1931.130859375
 20
-1420.83203125
 10
1931.130859375
 20
-1410.826171875
 10
1931.130859375
 20
-1400.8203125
 10
1931.130859375
 20
-1390.814453125
 10
1931.130859375
 20
-1380.80859375
 10
1931.130859375
 20
-1370.802734375
 10
1931.130859375
 20
-1360.796875
 10
1931.130859375
 20
-1350.791015625
 10
1931.130859375
 20
-1340.78515625
 10
1931.130859375
 20
-1330.779296875
 10
1931.130859375
 20
-1320.7734375
 10
1931.130859375
 20
-1310.767578125
 10
1931.130859375
 20
-1300.76171875
 10
1931.130859375
 20
-1290.755859375
 10
1931.130859375
 20
-1280.75
 10
1931.130859375
 20
-1270.744140625
 10
1931.130859375
 20
-1260.73828125
 10
1931.130859375
 20
-1250.732421875
 10
1931.130859375
 20
-1240.7265625
 10
1931.130859375
 20
-1230.720703125
 10
1931.130859375
 20
-1220.71484375
 10
1931.130859375
 20
-1210.708984375
 10
1931.130859375
 20
-1200.703125
 10
1931.130859375
 20
-1190.697265625
 10
1931.130859375
 20
-1180.69140625
 10
1931.130859375
 20
-1170.685546875
 10
1931.130859375
 20
-1160.6796875
 10
1931.130859375
 20
-1150.673828125
 10
1931.130859375
 20
-1140.66796875
 10
1931.130859375
 20
-1130.662109375
 10
1931.130859375
 20
-1120.65625
 10
1931.130859375
 20
-1110.650390625
 10
1931.130859375
 20
-1100.64453125
 10
1931.130859375
 20
-1090.638671875
 10
1931.130859375
 20
-1080.6328125
 10
1931.130859375
 20
-1070.626953125
 10
1931.130859375
 20
-1060.62109375
 10
1931.130859375
 20
-1050.615234375
 10
1931.130859375
 20
-1040.609375
 10
1931.130859375
 20
-1030.603515625
 10
1931.130859375
 20
-1020.59765625
 10
1931.130859375
 20
-1010.591796875
 10
1931.130859375
 20
-1000.5859375
 10
1931.130859375
 20
-990.580078125
 10
1931.130859375
 20
-980.57421875
 10
1931.130859375
 20
-970.568359375
 10
1931.130859375
 20
-960.5625
 10
1931.130859375
 20
-950.556640625
 10
1931.130859375
 20
-940.55078125
 10
1931.130859375
 20
-930.544921875
 10
1931.130859375
 20
-920.5390625
 10
1931.130859375
 20
-910.533203125
 10
1931.130859375
 20
-900.52734375
  0
ENDSEC
  0
SECTION
  2
OBJECTS
  0
DICTIONARY
  5
A
330
0
100
AcDbDictionary
280
0
281
1
  3
ACAD_COLOR
350
B
  3
ACAD_GROUP
350
C
  3
ACAD_LAYOUT
350
D
  3
ACAD_MATERIAL
350
E
  3
ACAD_MLEADERSTYLE
350
F
  3
ACAD_MLINESTYLE
350
10
  3
ACAD_PLOTSETTINGS
350
11
  3
ACAD_PLOTSTYLENAME
350
12
  3
ACAD_SCALELIST
350
14
  3
ACAD_TABLESTYLE
350
15
  3
ACAD_VISUALSTYLE
350
16
  3
EZDXF_META
350
2D
  0
DICTIONARY
  5
B
330
A
100
AcDbDictionary
280
0
281
1
  0
DICTIONARY
  5
C
330
A
100
AcDbDictionary
280
0
281
1
  0
DICTIONARY
  5
D
330
A
100
AcDbDictionary
280
0
281
1
  3
Model
350
1A
  3
Layout1
350
1E
  0
DICTIONARY
  5
E
330
A
100
AcDbDictionary
280
0
281
1
  3
ByBlock
350
1F
  3
ByLayer
350
20
  3
Global
350
21
  0
DICTIONARY
  5
F
330
A
100
AcDbDictionary
280
0
281
1
  3
Standard
350
2C
  0
DICTIONARY
  5
10
330
A
100
AcDbDictionary
280
0
281
1
  3
Standard
350
22
  0
DICTIONARY
  5
11
330
A
100
AcDbDictionary
280
0
281
1
  0
ACDBDICTIONARYWDFLT
  5
12
330
A
100
AcDbDictionary
280
0
281
1
  3
Normal
350
13
100
AcDbDictionaryWithDefault
340
13
  0
ACDBPLACEHOLDER
  5
13
330
12
  0
DICTIONARY
  5
14
330
A
100
AcDbDictionary
280
0
281
1
  0
DICTIONARY
  5
15
330
A
100
AcDbDictionary
280
0
281
1
  0
DICTIONARY
  5
16
330
A
100
AcDbDictionary
280
0
281
1
  0
LAYOUT
  5
1A
330
D
100
AcDbPlotSettings
  1

  2
Adobe PDF
  4
A3
  6

 40
7.5
 41
20.0
 42
7.5
 43
20.0
 44
420.0
 45
297.0
 46
0.0
 47
0.0
 48
0.0
 49
0.0
140
0.0
141
0.0
142
1.0
143
1.0
 70
1024
 72
1
 73
0
 74
5
  7

 75
16
 76
0
 77
2
 78
300
147
1.0
148
0.0
149
0.0
100
AcDbLayout
  1
Model
 70
1
 71
0
 10
0.0
 20
0.0
 11
420.0
 21
297.0
 12
0.0
 22
0.0
 32
0.0
 14
1e+20
 24
1e+20
 34
1e+20
 15
-1e+20
 25
-1e+20
 35
-1e+20
146
0.0
 13
0.0
 23
0.0
 33
0.0
 16
1.0
 26
0.0
 36
0.0
 17
0.0
 27
1.0
 37
0.0
 76
1
330
17
  0
LAYOUT
  5
1E
330
D
100
AcDbPlotSettings
  1

  2
Adobe PDF
  4
A3
  6

 40
7.5
 41
20.0
 42
7.5
 43
20.0
 44
420.0
 45
297.0
 46
0.0
 47
0.0
 48
0.0
 49
0.0
140
0.0
141
0.0
142
1.0
143
1.0
 70
0
 72
1
 73
0
 74
5
  7

 75
16
 76
0
 77
2
 78
300
147
1.0
148
0.0
149
0.0
100
AcDbLayout
  1
Layout1
 70
1
 71
1
 10
0.0
 20
0.0
 11
420.0
 21
297.0
 12
0.0
 22
0.0
 32
0.0
 14
1e+20
 24
1e+20
 34
1e+20
 15
-1e+20
 25
-1e+20
 35
-1e+20
146
0.0
 13
0.0
 23
0.0
 33
0.0
 16
1.0
 26
0.0
 36
0.0
 17
0.0
 27
1.0
 37
0.0
 76
1
330
1B
  0
MATERIAL
  5
1F
102
{ACAD_REACTORS
330
E
102
}
330
E
100
AcDbMaterial
  1
ByBlock
  2

 70
0
 40
1.0
 71
1
 41
1.0
 91
-1023410177
 42
1.0
 72
1
  3

 73
1
 74
1
 75
1
 44
0.5
 73
0
 45
1.0
 46
1.0
 77
1
  4

 78
1
 79
1
170
1
 48
1.0
171
1
  6

172
1
173
1
174
1
140
1.0
141
1.0
175
1
  7

176
1
177
1
178
1
143
1.0
179
1
  8

270
1
271
1
272
1
145
1.0
146
1.0
273
1
  9

274
1
275
1
276
1
 42
1.0
 72
1
  3

 73
1
 74
1
 75
1
 94
63
  0
MATERIAL
  5
20
102
{ACAD_REACTORS
330
E
102
}
330
E
100
AcDbMaterial
  1
ByLayer
  2

 70
0
 40
1.0
 71
1
 41
1.0
 91
-1023410177
 42
1.0
 72
1
  3

 73
1
 74
1
 75
1
 44
0.5
 73
0
 45
1.0
 46
1.0
 77
1
  4

 78
1
 79
1
170
1
 48
1.0
171
1
  6

172
1
173
1
174
1
140
1.0
141
1.0
175
1
  7

176
1
177
1
178
1
143
1.0
179
1
  8

270
1
271
1
272
1
145
1.0
146
1.0
273
1
  9

274
1
275
1
276
1
 42
1.0
 72
1
  3

 73
1
 74
1
 75
1
 94
63
  0
MATERIAL
  5
21
102
{ACAD_REACTORS
330
E
102
}
330
E
100
AcDbMaterial
  1
Global
  2

 70
0
 40
1.0
 71
1
 41
1.0
 91
-1023410177
 42
1.0
 72
1
  3

 73
1
 74
1
 75
1
 44
0.5
 73
0
 45
1.0
 46
1.0
 77
1
  4

 78
1
 79
1
170
1
 48
1.0
171
1
  6

172
1
173
1
174
1
140
1.0
141
1.0
175
1
  7

176
1
177
1
178
1
143
1.0
179
1
  8

270
1
271
1
272
1
145
1.0
146
1.0
273
1
  9

274
1
275
1
276
1
 42
1.0
 72
1
  3

 73
1
 74
1
 75
1
 94
63
  0
MLINESTYLE
  5
22
102
{ACAD_REACTORS
330
10
102
}
330
10
100
AcDbMlineStyle
  2
Standard
 70
0
  3

 62
256
 51
90.0
 52
90.0
 71
2
 49
0.5
 62
256
  6
BYLAYER
 49
-0.5
 62
256
  6
BYLAYER
  0
MLEADERSTYLE
  5
2C
102
{ACAD_REACTORS
330
F
102
}
330
F
100
AcDbMLeaderStyle
179
2
170
2
171
1
172
0
 90
2
 40
0.0
 41
0.0
173
1
 91
-1056964608
 92
-2
290
1
 42
2.0
291
1
 43
8.0
  3
Standard
 44
4.0
300

342
29
174
1
175
1
176
0
178
1
 93
-1056964608
 45
4.0
292
0
297
0
 46
4.0
 94
-1056964608
 47
1.0
 49
1.0
140
1.0
294
1
141
0.0
177
0
142
1.0
295
0
296
0
143
3.75
271
0
272
9
273
9
  0
DICTIONARY
  5
2D
330
A
100
AcDbDictionary
281
1
  3
CREATED_BY_EZDXF
350
2E
  3
WRITTEN_BY_EZDXF
350
37
  0
DICTIONARYVAR
  5
2E
330
2D
100
DictionaryVariables
280
0
  1
1.1.0 @ 2025-03-02T20:06:53.432439+00:00
  0
DICTIONARYVAR
  5
37
330
2D
100
DictionaryVariables
280
0
  1
1.1.0 @ 2025-03-02T20:06:53.440890+00:00
  0
ENDSEC
  0
EOF
