  0
SECTION
  2
HEADER
  9
$ACADVER
  1
AC1027
  9
$ACADMAINTVER
 70
105
  9
$DWGCODEPAGE
  3
ANSI_1252
  9
$LASTSAVEDBY
  1
ezdxf
  9
$REQUIREDVERSIONS
160
0
  9
$INSBASE
 10
0.0
 20
0.0
 30
0.0
  9
$EXTMIN
 10
1e+20
 20
1e+20
 30
1e+20
  9
$EXTMAX
 10
-1e+20
 20
-1e+20
 30
-1e+20
  9
$LIMMIN
 10
0.0
 20
0.0
  9
$LIMMAX
 10
420.0
 20
297.0
  9
$ORTHOMODE
 70
0
  9
$REGENMODE
 70
1
  9
$FILLMODE
 70
1
  9
$QTEXTMODE
 70
0
  9
$MIRRTEXT
 70
1
  9
$LTSCALE
 40
1.0
  9
$ATTMODE
 70
1
  9
$TEXTSIZE
 40
2.5
  9
$TRACEWID
 40
1.0
  9
$TEXTSTYLE
  7
Standard
  9
$CLAYER
  8
0
  9
$CELTYPE
  6
ByLayer
  9
$CECOLOR
 62
256
  9
$CELTSCALE
 40
1.0
  9
$DISPSILH
 70
0
  9
$DIMSCALE
 40
1.0
  9
$DIMASZ
 40
2.5
  9
$DIMEXO
 40
0.625
  9
$DIMDLI
 40
3.75
  9
$DIMRND
 40
0.0
  9
$DIMDLE
 40
0.0
  9
$DIMEXE
 40
1.25
  9
$DIMTP
 40
0.0
  9
$DIMTM
 40
0.0
  9
$DIMTXT
 40
2.5
  9
$DIMCEN
 40
2.5
  9
$DIMTSZ
 40
0.0
  9
$DIMTOL
 70
0
  9
$DIMLIM
 70
0
  9
$DIMTIH
 70
0
  9
$DIMTOH
 70
0
  9
$DIMSE1
 70
0
  9
$DIMSE2
 70
0
  9
$DIMTAD
 70
1
  9
$DIMZIN
 70
8
  9
$DIMBLK
  1

  9
$DIMASO
 70
1
  9
$DIMSHO
 70
1
  9
$DIMPOST
  1

  9
$DIMAPOST
  1

  9
$DIMALT
 70
0
  9
$DIMALTD
 70
3
  9
$DIMALTF
 40
0.03937007874
  9
$DIMLFAC
 40
1.0
  9
$DIMTOFL
 70
1
  9
$DIMTVP
 40
0.0
  9
$DIMTIX
 70
0
  9
$DIMSOXD
 70
0
  9
$DIMSAH
 70
0
  9
$DIMBLK1
  1

  9
$DIMBLK2
  1

  9
$DIMSTYLE
  2
ISO-25
  9
$DIMCLRD
 70
0
  9
$DIMCLRE
 70
0
  9
$DIMCLRT
 70
0
  9
$DIMTFAC
 40
1.0
  9
$DIMGAP
 40
0.625
  9
$DIMJUST
 70
0
  9
$DIMSD1
 70
0
  9
$DIMSD2
 70
0
  9
$DIMTOLJ
 70
0
  9
$DIMTZIN
 70
8
  9
$DIMALTZ
 70
0
  9
$DIMALTTZ
 70
0
  9
$DIMUPT
 70
0
  9
$DIMDEC
 70
2
  9
$DIMTDEC
 70
2
  9
$DIMALTU
 70
2
  9
$DIMALTTD
 70
3
  9
$DIMTXSTY
  7
Standard
  9
$DIMAUNIT
 70
0
  9
$DIMADEC
 70
0
  9
$DIMALTRND
 40
0.0
  9
$DIMAZIN
 70
0
  9
$DIMDSEP
 70
44
  9
$DIMATFIT
 70
3
  9
$DIMFRAC
 70
0
  9
$DIMLDRBLK
  1

  9
$DIMLUNIT
 70
2
  9
$DIMLWD
 70
-2
  9
$DIMLWE
 70
-2
  9
$DIMTMOVE
 70
0
  9
$DIMFXL
 40
1.0
  9
$DIMFXLON
 70
0
  9
$DIMJOGANG
 40
0.785398163397
  9
$DIMTFILL
 70
0
  9
$DIMTFILLCLR
 70
0
  9
$DIMARCSYM
 70
0
  9
$DIMLTYPE
  6

  9
$DIMLTEX1
  6

  9
$DIMLTEX2
  6

  9
$DIMTXTDIRECTION
 70
0
  9
$LUNITS
 70
2
  9
$LUPREC
 70
4
  9
$SKETCHINC
 40
1.0
  9
$FILLETRAD
 40
10.0
  9
$AUNITS
 70
0
  9
$AUPREC
 70
2
  9
$MENU
  1
.
  9
$ELEVATION
 40
0.0
  9
$PELEVATION
 40
0.0
  9
$THICKNESS
 40
0.0
  9
$LIMCHECK
 70
0
  9
$CHAMFERA
 40
0.0
  9
$CHAMFERB
 40
0.0
  9
$CHAMFERC
 40
0.0
  9
$CHAMFERD
 40
0.0
  9
$SKPOLY
 70
0
  9
$TDCREATE
 40
2460683.3977893516
  9
$TDUCREATE
 40
2458532.153996898
  9
$TDUPDATE
 40
2460683.3977893516
  9
$TDUUPDATE
 40
2458532.1544311
  9
$TDINDWG
 40
0.0
  9
$TDUSRTIMER
 40
0.0
  9
$USRTIMER
 70
1
  9
$ANGBASE
 50
0.0
  9
$ANGDIR
 70
0
  9
$PDMODE
 70
0
  9
$PDSIZE
 40
0.0
  9
$PLINEWID
 40
0.0
  9
$SPLFRAME
 70
0
  9
$SPLINETYPE
 70
6
  9
$SPLINESEGS
 70
8
  9
$HANDSEED
  5
3E
  9
$SURFTAB1
 70
6
  9
$SURFTAB2
 70
6
  9
$SURFTYPE
 70
6
  9
$SURFU
 70
6
  9
$SURFV
 70
6
  9
$UCSBASE
  2

  9
$UCSNAME
  2

  9
$UCSORG
 10
0.0
 20
0.0
 30
0.0
  9
$UCSXDIR
 10
1.0
 20
0.0
 30
0.0
  9
$UCSYDIR
 10
0.0
 20
1.0
 30
0.0
  9
$UCSORTHOREF
  2

  9
$UCSORTHOVIEW
 70
0
  9
$UCSORGTOP
 10
0.0
 20
0.0
 30
0.0
  9
$UCSORGBOTTOM
 10
0.0
 20
0.0
 30
0.0
  9
$UCSORGLEFT
 10
0.0
 20
0.0
 30
0.0
  9
$UCSORGRIGHT
 10
0.0
 20
0.0
 30
0.0
  9
$UCSORGFRONT
 10
0.0
 20
0.0
 30
0.0
  9
$UCSORGBACK
 10
0.0
 20
0.0
 30
0.0
  9
$PUCSBASE
  2

  9
$PUCSNAME
  2

  9
$PUCSORG
 10
0.0
 20
0.0
 30
0.0
  9
$PUCSXDIR
 10
1.0
 20
0.0
 30
0.0
  9
$PUCSYDIR
 10
0.0
 20
1.0
 30
0.0
  9
$PUCSORTHOREF
  2

  9
$PUCSORTHOVIEW
 70
0
  9
$PUCSORGTOP
 10
0.0
 20
0.0
 30
0.0
  9
$PUCSORGBOTTOM
 10
0.0
 20
0.0
 30
0.0
  9
$PUCSORGLEFT
 10
0.0
 20
0.0
 30
0.0
  9
$PUCSORGRIGHT
 10
0.0
 20
0.0
 30
0.0
  9
$PUCSORGFRONT
 10
0.0
 20
0.0
 30
0.0
  9
$PUCSORGBACK
 10
0.0
 20
0.0
 30
0.0
  9
$USERI1
 70
0
  9
$USERI2
 70
0
  9
$USERI3
 70
0
  9
$USERI4
 70
0
  9
$USERI5
 70
0
  9
$USERR1
 40
0.0
  9
$USERR2
 40
0.0
  9
$USERR3
 40
0.0
  9
$USERR4
 40
0.0
  9
$USERR5
 40
0.0
  9
$WORLDVIEW
 70
1
  9
$SHADEDGE
 70
3
  9
$SHADEDIF
 70
70
  9
$TILEMODE
 70
1
  9
$MAXACTVP
 70
64
  9
$PINSBASE
 10
0.0
 20
0.0
 30
0.0
  9
$PLIMCHECK
 70
0
  9
$PEXTMIN
 10
1e+20
 20
1e+20
 30
1e+20
  9
$PEXTMAX
 10
-1e+20
 20
-1e+20
 30
-1e+20
  9
$PLIMMIN
 10
0.0
 20
0.0
  9
$PLIMMAX
 10
420.0
 20
297.0
  9
$UNITMODE
 70
0
  9
$VISRETAIN
 70
1
  9
$PLINEGEN
 70
0
  9
$PSLTSCALE
 70
1
  9
$TREEDEPTH
 70
3020
  9
$CMLSTYLE
  2
Standard
  9
$CMLJUST
 70
0
  9
$CMLSCALE
 40
20.0
  9
$PROXYGRAPHICS
 70
1
  9
$MEASUREMENT
 70
1
  9
$CELWEIGHT
370
-1
  9
$ENDCAPS
280
0
  9
$JOINSTYLE
280
0
  9
$LWDISPLAY
290
0
  9
$INSUNITS
 70
6
  9
$HYPERLINKBASE
  1

  9
$STYLESHEET
  1

  9
$XEDIT
290
1
  9
$CEPSNTYPE
380
0
  9
$PSTYLEMODE
290
1
  9
$FINGERPRINTGUID
  2
{D13EDF3A-56F0-42D2-BD2F-947144412DDD}
  9
$VERSIONGUID
  2
{94DAFF6C-70F9-4671-A975-C7587F03B3CE}
  9
$EXTNAMES
290
1
  9
$PSVPSCALE
 40
0.0
  9
$OLESTARTUP
290
0
  9
$SORTENTS
280
127
  9
$INDEXCTL
280
0
  9
$HIDETEXT
280
1
  9
$XCLIPFRAME
280
0
  9
$HALOGAP
280
0
  9
$OBSCOLOR
 70
257
  9
$OBSLTYPE
280
0
  9
$INTERSECTIONDISPLAY
280
0
  9
$INTERSECTIONCOLOR
 70
257
  9
$DIMASSOC
280
2
  9
$PROJECTNAME
  1

  9
$CAMERADISPLAY
290
0
  9
$LENSLENGTH
 40
50.0
  9
$CAMERAHEIGHT
 40
0.0
  9
$STEPSPERSEC
 40
24.0
  9
$STEPSIZE
 40
100.0
  9
$3DDWFPREC
 40
2.0
  9
$PSOLWIDTH
 40
0.005
  9
$PSOLHEIGHT
 40
0.08
  9
$LOFTANG1
 40
1.570796326795
  9
$LOFTANG2
 40
1.570796326795
  9
$LOFTMAG1
 40
0.0
  9
$LOFTMAG2
 40
0.0
  9
$LOFTPARAM
 70
7
  9
$LOFTNORMALS
280
1
  9
$LATITUDE
 40
37.795
  9
$LONGITUDE
 40
-122.394
  9
$NORTHDIRECTION
 40
0.0
  9
$TIMEZONE
 70
-8000
  9
$LIGHTGLYPHDISPLAY
280
1
  9
$TILEMODELIGHTSYNCH
280
1
  9
$CMATERIAL
347
20
  9
$SOLIDHIST
280
0
  9
$SHOWHIST
280
1
  9
$DWFFRAME
280
2
  9
$DGNFRAME
280
2
  9
$REALWORLDSCALE
290
1
  9
$INTERFERECOLOR
 62
256
  9
$CSHADOW
280
0
  9
$SHADOWPLANELOCATION
 40
0.0
  0
ENDSEC
  0
SECTION
  2
CLASSES
  0
CLASS
  1
ACDBDICTIONARYWDFLT
  2
AcDbDictionaryWithDefault
  3
ObjectDBX Classes
 90
0
 91
0
280
0
281
0
  0
CLASS
  1
SUN
  2
AcDbSun
  3
SCENEOE
 90
1153
 91
0
280
0
281
0
  0
CLASS
  1
VISUALSTYLE
  2
AcDbVisualStyle
  3
ObjectDBX Classes
 90
4095
 91
0
280
0
281
0
  0
CLASS
  1
MATERIAL
  2
AcDbMaterial
  3
ObjectDBX Classes
 90
1153
 91
0
280
0
281
0
  0
CLASS
  1
SCALE
  2
AcDbScale
  3
ObjectDBX Classes
 90
1153
 91
0
280
0
281
0
  0
CLASS
  1
TABLESTYLE
  2
AcDbTableStyle
  3
ObjectDBX Classes
 90
4095
 91
0
280
0
281
0
  0
CLASS
  1
MLEADERSTYLE
  2
AcDbMLeaderStyle
  3
ACDB_MLEADERSTYLE_CLASS
 90
4095
 91
0
280
0
281
0
  0
CLASS
  1
DICTIONARYVAR
  2
AcDbDictionaryVar
  3
ObjectDBX Classes
 90
0
 91
0
280
0
281
0
  0
CLASS
  1
CELLSTYLEMAP
  2
AcDbCellStyleMap
  3
ObjectDBX Classes
 90
1152
 91
0
280
0
281
0
  0
CLASS
  1
MENTALRAYRENDERSETTINGS
  2
AcDbMentalRayRenderSettings
  3
SCENEOE
 90
1024
 91
0
280
0
281
0
  0
CLASS
  1
ACDBDETAILVIEWSTYLE
  2
AcDbDetailViewStyle
  3
ObjectDBX Classes
 90
1025
 91
0
280
0
281
0
  0
CLASS
  1
ACDBSECTIONVIEWSTYLE
  2
AcDbSectionViewStyle
  3
ObjectDBX Classes
 90
1025
 91
0
280
0
281
0
  0
CLASS
  1
RASTERVARIABLES
  2
AcDbRasterVariables
  3
ISM
 90
0
 91
0
280
0
281
0
  0
CLASS
  1
LAYOUT
  2
AcDbLayout
  3
ObjectDBX Classes
 90
0
 91
0
280
0
281
0
  0
CLASS
  1
ACDBPLACEHOLDER
  2
AcDbPlaceHolder
  3
ObjectDBX Classes
 90
0
 91
0
280
0
281
0
  0
ENDSEC
  0
SECTION
  2
TABLES
  0
TABLE
  2
VPORT
  5
8
330
0
100
AcDbSymbolTable
 70
1
  0
VPORT
  5
23
330
8
100
AcDbSymbolTableRecord
100
AcDbViewportTableRecord
  2
*Active
 70
0
 10
0.0
 20
0.0
 11
1.0
 21
1.0
 12
0.0
 22
0.0
 13
0.0
 23
0.0
 14
0.5
 24
0.5
 15
0.5
 25
0.5
 16
0.0
 26
0.0
 36
1.0
 17
0.0
 27
0.0
 37
0.0
 40
1000.0
 41
1.34
 42
50.0
 43
0.0
 44
0.0
 50
0.0
 51
0.0
 71
0
 72
1000
 73
1
 74
3
 75
0
 76
0
 77
0
 78
0
281
0
 65
0
146
0.0
  0
ENDTAB
  0
TABLE
  2
LTYPE
  5
2
330
0
100
AcDbSymbolTable
 70
3
  0
LTYPE
  5
24
330
2
100
AcDbSymbolTableRecord
100
AcDbLinetypeTableRecord
  2
ByBlock
 70
0
  3

 72
65
 73
0
 40
0.0
  0
LTYPE
  5
25
330
2
100
AcDbSymbolTableRecord
100
AcDbLinetypeTableRecord
  2
ByLayer
 70
0
  3

 72
65
 73
0
 40
0.0
  0
LTYPE
  5
26
330
2
100
AcDbSymbolTableRecord
100
AcDbLinetypeTableRecord
  2
Continuous
 70
0
  3

 72
65
 73
0
 40
0.0
  0
ENDTAB
  0
TABLE
  2
LAYER
  5
1
330
0
100
AcDbSymbolTable
 70
5
  0
LAYER
  5
27
330
1
100
AcDbSymbolTableRecord
100
AcDbLayerTableRecord
  2
0
 70
0
 62
7
  6
Continuous
370
-3
390
13
347
21
  0
LAYER
  5
28
330
1
100
AcDbSymbolTableRecord
100
AcDbLayerTableRecord
  2
Defpoints
 70
0
 62
7
  6
Continuous
290
0
370
-3
390
13
347
21
  0
LAYER
  5
2F
330
1
100
AcDbSymbolTableRecord
100
AcDbLayerTableRecord
  2
conductor
 70
0
 62
1
  6
Continuous
370
-3
390
13
347
21
  0
LAYER
  5
30
330
1
100
AcDbSymbolTableRecord
100
AcDbLayerTableRecord
  2
dielectric
 70
0
 62
8
  6
Continuous
370
-3
390
13
347
21
  0
LAYER
  5
31
330
1
100
AcDbSymbolTableRecord
100
AcDbLayerTableRecord
  2
substrate
 70
0
 62
5
  6
Continuous
370
-3
390
13
347
21
  0
ENDTAB
  0
TABLE
  2
STYLE
  5
5
330
0
100
AcDbSymbolTable
 70
1
  0
STYLE
  5
29
330
5
100
AcDbSymbolTableRecord
100
AcDbTextStyleTableRecord
  2
Standard
 70
0
 40
0.0
 41
1.0
 50
0.0
 71
0
 42
2.5
  3
txt
  4

  0
ENDTAB
  0
TABLE
  2
VIEW
  5
7
330
0
100
AcDbSymbolTable
 70
0
  0
ENDTAB
  0
TABLE
  2
UCS
  5
6
330
0
100
AcDbSymbolTable
 70
0
  0
ENDTAB
  0
TABLE
  2
APPID
  5
3
330
0
100
AcDbSymbolTable
 70
3
  0
APPID
  5
2A
330
3
100
AcDbSymbolTableRecord
100
AcDbRegAppTableRecord
  2
ACAD
 70
0
  0
APPID
  5
3B
330
3
100
AcDbSymbolTableRecord
100
AcDbRegAppTableRecord
  2
HATCHBACKGROUNDCOLOR
 70
0
  0
APPID
  5
3C
330
3
100
AcDbSymbolTableRecord
100
AcDbRegAppTableRecord
  2
EZDXF
 70
0
  0
ENDTAB
  0
TABLE
  2
DIMSTYLE
  5
4
330
0
100
AcDbSymbolTable
 70
1
100
AcDbDimStyleTable
  0
DIMSTYLE
105
2B
330
4
100
AcDbSymbolTableRecord
100
AcDbDimStyleTableRecord
  2
Standard
 70
0
 40
1.0
 41
2.5
 42
0.625
 43
3.75
 44
1.25
 45
0.0
 46
0.0
 47
0.0
 48
0.0
 49
2.5
140
2.5
141
2.5
142
0.0
143
0.03937007874
144
1.0
145
0.0
146
1.0
147
0.625
148
0.0
 69
0
 70
0
 71
0
 72
0
 73
0
 74
0
 75
0
 76
0
 77
1
 78
8
 79
3
170
0
171
3
172
1
173
0
174
0
175
0
176
0
177
0
178
0
179
2
271
2
272
2
273
2
274
3
275
0
276
0
277
2
278
44
279
0
280
0
281
0
282
0
283
0
284
8
285
0
286
0
288
0
289
3
290
0
371
-2
372
-2
  0
ENDTAB
  0
TABLE
  2
BLOCK_RECORD
  5
9
330
0
100
AcDbSymbolTable
 70
2
  0
BLOCK_RECORD
  5
17
330
9
100
AcDbSymbolTableRecord
100
AcDbBlockTableRecord
  2
*Model_Space
340
1A
 70
0
280
1
281
0
  0
BLOCK_RECORD
  5
1B
330
9
100
AcDbSymbolTableRecord
100
AcDbBlockTableRecord
  2
*Paper_Space
340
1E
 70
0
280
1
281
0
  0
ENDTAB
  0
ENDSEC
  0
SECTION
  2
BLOCKS
  0
BLOCK
  5
18
330
17
100
AcDbEntity
  8
0
100
AcDbBlockBegin
  2
*Model_Space
 70
0
 10
0.0
 20
0.0
 30
0.0
  3
*Model_Space
  1

  0
ENDBLK
  5
19
330
17
100
AcDbEntity
  8
0
100
AcDbBlockEnd
  0
BLOCK
  5
1C
330
1B
100
AcDbEntity
  8
0
100
AcDbBlockBegin
  2
*Paper_Space
 70
0
 10
0.0
 20
0.0
 30
0.0
  3
*Paper_Space
  1

  0
ENDBLK
  5
1D
330
1B
100
AcDbEntity
  8
0
100
AcDbBlockEnd
  0
ENDSEC
  0
SECTION
  2
ENTITIES
  0
LWPOLYLINE
  5
32
330
17
100
AcDbEntity
  8
conductor
100
AcDbPolyline
 90
1457
 70
1
 43
0.5
 10
3102.36328125
 20
-692.666015625
 10
3092.607421875
 20
-702.421875
 10
3082.8515625
 20
-702.421875
 10
3073.095703125
 20
-702.421875
 10
3063.33984375
 20
-702.421875
 10
3053.583984375
 20
-702.421875
 10
3043.828125
 20
-702.421875
 10
3034.072265625
 20
-702.421875
 10
3024.31640625
 20
-702.421875
 10
3014.560546875
 20
-702.421875
 10
3004.8046875
 20
-702.421875
 10
2995.048828125
 20
-702.421875
 10
2985.29296875
 20
-702.421875
 10
2975.537109375
 20
-702.421875
 10
2965.78125
 20
-702.421875
 10
2956.025390625
 20
-702.421875
 10
2946.26953125
 20
-702.421875
 10
2936.513671875
 20
-702.421875
 10
2926.7578125
 20
-702.421875
 10
2917.001953125
 20
-702.421875
 10
2907.24609375
 20
-702.421875
 10
2897.490234375
 20
-702.421875
 10
2887.734375
 20
-702.421875
 10
2877.978515625
 20
-702.421875
 10
2868.22265625
 20
-702.421875
 10
2858.466796875
 20
-702.421875
 10
2848.7109375
 20
-702.421875
 10
2838.955078125
 20
-702.421875
 10
2829.19921875
 20
-702.421875
 10
2819.443359375
 20
-702.421875
 10
2809.6875
 20
-702.421875
 10
2799.931640625
 20
-702.421875
 10
2790.17578125
 20
-702.421875
 10
2780.419921875
 20
-702.421875
 10
2770.6640625
 20
-702.421875
 10
2760.908203125
 20
-712.177734375
 10
2751.15234375
 20
-702.421875
 10
2741.396484375
 20
-702.421875
 10
2731.640625
 20
-702.421875
 10
2721.884765625
 20
-702.421875
 10
2712.12890625
 20
-702.421875
 10
2702.373046875
 20
-702.421875
 10
2692.6171875
 20
-702.421875
 10
2682.861328125
 20
-702.421875
 10
2673.10546875
 20
-702.421875
 10
2663.349609375
 20
-702.421875
 10
2653.59375
 20
-702.421875
 10
2643.837890625
 20
-702.421875
 10
2634.08203125
 20
-702.421875
 10
2624.326171875
 20
-712.177734375
 10
2614.5703125
 20
-712.177734375
 10
2604.814453125
 20
-712.177734375
 10
2595.05859375
 20
-712.177734375
 10
2585.302734375
 20
-712.177734375
 10
2575.546875
 20
-712.177734375
 10
2565.791015625
 20
-702.421875
 10
2556.03515625
 20
-702.421875
 10
2546.279296875
 20
-702.421875
 10
2536.5234375
 20
-702.421875
 10
2526.767578125
 20
-702.421875
 10
2517.01171875
 20
-712.177734375
 10
2507.255859375
 20
-702.421875
 10
2497.5
 20
-712.177734375
 10
2487.744140625
 20
-702.421875
 10
2477.98828125
 20
-712.177734375
 10
2468.232421875
 20
-712.177734375
 10
2458.4765625
 20
-702.421875
 10
2448.720703125
 20
-712.177734375
 10
2438.96484375
 20
-712.177734375
 10
2429.208984375
 20
-712.177734375
 10
2419.453125
 20
-702.421875
 10
2409.697265625
 20
-702.421875
 10
2399.94140625
 20
-712.177734375
 10
2390.185546875
 20
-712.177734375
 10
2380.4296875
 20
-712.177734375
 10
2370.673828125
 20
-712.177734375
 10
2360.91796875
 20
-712.177734375
 10
2351.162109375
 20
-712.177734375
 10
2341.40625
 20
-712.177734375
 10
2331.650390625
 20
-712.177734375
 10
2321.89453125
 20
-712.177734375
 10
2312.138671875
 20
-712.177734375
 10
2302.3828125
 20
-702.421875
 10
2292.626953125
 20
-712.177734375
 10
2282.87109375
 20
-712.177734375
 10
2273.115234375
 20
-712.177734375
 10
2263.359375
 20
-712.177734375
 10
2253.603515625
 20
-712.177734375
 10
2243.84765625
 20
-712.177734375
 10
2234.091796875
 20
-712.177734375
 10
2224.3359375
 20
-712.177734375
 10
2214.580078125
 20
-712.177734375
 10
2204.82421875
 20
-712.177734375
 10
2195.068359375
 20
-712.177734375
 10
2185.3125
 20
-712.177734375
 10
2175.556640625
 20
-712.177734375
 10
2165.80078125
 20
-712.177734375
 10
2156.044921875
 20
-712.177734375
 10
2146.2890625
 20
-702.421875
 10
2136.533203125
 20
-712.177734375
 10
2126.77734375
 20
-712.177734375
 10
2117.021484375
 20
-712.177734375
 10
2107.265625
 20
-712.177734375
 10
2097.509765625
 20
-712.177734375
 10
2087.75390625
 20
-712.177734375
 10
2077.998046875
 20
-712.177734375
 10
2068.2421875
 20
-712.177734375
 10
2058.486328125
 20
-712.177734375
 10
2048.73046875
 20
-712.177734375
 10
2038.974609375
 20
-712.177734375
 10
2029.21875
 20
-712.177734375
 10
2019.462890625
 20
-712.177734375
 10
2009.70703125
 20
-712.177734375
 10
1999.951171875
 20
-702.421875
 10
1990.1953125
 20
-712.177734375
 10
1980.439453125
 20
-702.421875
 10
1970.68359375
 20
-702.421875
 10
1960.927734375
 20
-702.421875
 10
1951.171875
 20
-702.421875
 10
1941.416015625
 20
-702.421875
 10
1931.66015625
 20
-702.421875
 10
1921.904296875
 20
-702.421875
 10
1912.1484375
 20
-702.421875
 10
1902.392578125
 20
-702.421875
 10
1892.63671875
 20
-702.421875
 10
1882.880859375
 20
-702.421875
 10
1882.880859375
 20
-712.177734375
 10
1873.125
 20
-721.93359375
 10
1873.125
 20
-731.689453125
 10
1873.125
 20
-741.4453125
 10
1873.125
 20
-751.201171875
 10
1882.880859375
 20
-760.95703125
 10
1882.880859375
 20
-770.712890625
 10
1882.880859375
 20
-780.46875
 10
1873.125
 20
-790.224609375
 10
1873.125
 20
-799.98046875
 10
1873.125
 20
-809.736328125
 10
1873.125
 20
-819.4921875
 10
1873.125
 20
-829.248046875
 10
1873.125
 20
-839.00390625
 10
1873.125
 20
-848.759765625
 10
1873.125
 20
-858.515625
 10
1873.125
 20
-868.271484375
 10
1873.125
 20
-878.02734375
 10
1873.125
 20
-887.783203125
 10
1873.125
 20
-897.5390625
 10
1873.125
 20
-907.294921875
 10
1873.125
 20
-917.05078125
 10
1873.125
 20
-926.806640625
 10
1882.880859375
 20
-936.5625
 10
1873.125
 20
-946.318359375
 10
1873.125
 20
-956.07421875
 10
1882.880859375
 20
-965.830078125
 10
1882.880859375
 20
-975.5859375
 10
1882.880859375
 20
-985.341796875
 10
1882.880859375
 20
-995.09765625
 10
1882.880859375
 20
-1004.853515625
 10
1873.125
 20
-1014.609375
 10
1873.125
 20
-1024.365234375
 10
1873.125
 20
-1034.12109375
 10
1873.125
 20
-1043.876953125
 10
1873.125
 20
-1053.6328125
 10
1873.125
 20
-1063.388671875
 10
1873.125
 20
-1073.14453125
 10
1873.125
 20
-1082.900390625
 10
1873.125
 20
-1092.65625
 10
1873.125
 20
-1102.412109375
 10
1873.125
 20
-1112.16796875
 10
1873.125
 20
-1121.923828125
 10
1873.125
 20
-1131.6796875
 10
1882.880859375
 20
-1141.435546875
 10
1873.125
 20
-1151.19140625
 10
1873.125
 20
-1160.947265625
 10
1873.125
 20
-1170.703125
 10
1873.125
 20
-1180.458984375
 10
1882.880859375
 20
-1190.21484375
 10
1882.880859375
 20
-1199.970703125
 10
1882.880859375
 20
-1209.7265625
 10
1882.880859375
 20
-1219.482421875
 10
1882.880859375
 20
-1229.23828125
 10
1882.880859375
 20
-1238.994140625
 10
1882.880859375
 20
-1248.75
 10
1882.880859375
 20
-1258.505859375
 10
1882.880859375
 20
-1268.26171875
 10
1882.880859375
 20
-1278.017578125
 10
1882.880859375
 20
-1287.7734375
 10
1882.880859375
 20
-1297.529296875
 10
1882.880859375
 20
-1307.28515625
 10
1882.880859375
 20
-1317.041015625
 10
1873.125
 20
-1326.796875
 10
1873.125
 20
-1336.552734375
 10
1873.125
 20
-1346.30859375
 10
1873.125
 20
-1356.064453125
 10
1873.125
 20
-1365.8203125
 10
1873.125
 20
-1375.576171875
 10
1873.125
 20
-1385.33203125
 10
1873.125
 20
-1395.087890625
 10
1873.125
 20
-1404.84375
 10
1873.125
 20
-1414.599609375
 10
1873.125
 20
-1424.35546875
 10
1873.125
 20
-1434.111328125
 10
1882.880859375
 20
-1443.8671875
 10
1882.880859375
 20
-1453.623046875
 10
1882.880859375
 20
-1463.37890625
 10
1882.880859375
 20
-1473.134765625
 10
1873.125
 20
-1482.890625
 10
1873.125
 20
-1492.646484375
 10
1882.880859375
 20
-1502.40234375
 10
1882.880859375
 20
-1512.158203125
 10
1882.880859375
 20
-1521.9140625
 10
1882.880859375
 20
-1531.669921875
 10
1882.880859375
 20
-1541.42578125
 10
1882.880859375
 20
-1551.181640625
 10
1882.880859375
 20
-1560.9375
 10
1882.880859375
 20
-1570.693359375
 10
1882.880859375
 20
-1580.44921875
 10
1882.880859375
 20
-1590.205078125
 10
1882.880859375
 20
-1599.9609375
 10
1882.880859375
 20
-1609.716796875
 10
1882.880859375
 20
-1619.47265625
 10
1882.880859375
 20
-1629.228515625
 10
1873.125
 20
-1638.984375
 10
1882.880859375
 20
-1648.740234375
 10
1882.880859375
 20
-1658.49609375
 10
1882.880859375
 20
-1668.251953125
 10
1882.880859375
 20
-1678.0078125
 10
1882.880859375
 20
-1687.763671875
 10
1882.880859375
 20
-1697.51953125
 10
1882.880859375
 20
-1707.275390625
 10
1882.880859375
 20
-1717.03125
 10
1882.880859375
 20
-1726.787109375
 10
1882.880859375
 20
-1736.54296875
 10
1882.880859375
 20
-1746.298828125
 10
1882.880859375
 20
-1756.0546875
 10
1882.880859375
 20
-1765.810546875
 10
1882.880859375
 20
-1775.56640625
 10
1882.880859375
 20
-1785.322265625
 10
1882.880859375
 20
-1795.078125
 10
1882.880859375
 20
-1804.833984375
 10
1882.880859375
 20
-1814.58984375
 10
1882.880859375
 20
-1824.345703125
 10
1882.880859375
 20
-1834.1015625
 10
1882.880859375
 20
-1843.857421875
 10
1882.880859375
 20
-1853.61328125
 10
1882.880859375
 20
-1863.369140625
 10
1873.125
 20
-1873.125
 10
1863.369140625
 20
-1882.880859375
 10
1853.61328125
 20
-1882.880859375
 10
1843.857421875
 20
-1882.880859375
 10
1834.1015625
 20
-1882.880859375
 10
1824.345703125
 20
-1882.880859375
 10
1814.58984375
 20
-1882.880859375
 10
1804.833984375
 20
-1882.880859375
 10
1795.078125
 20
-1882.880859375
 10
1785.322265625
 20
-1882.880859375
 10
1775.56640625
 20
-1882.880859375
 10
1765.810546875
 20
-1873.125
 10
1756.0546875
 20
-1882.880859375
 10
1746.298828125
 20
-1882.880859375
 10
1736.54296875
 20
-1882.880859375
 10
1726.787109375
 20
-1882.880859375
 10
1717.03125
 20
-1882.880859375
 10
1707.275390625
 20
-1882.880859375
 10
1697.51953125
 20
-1882.880859375
 10
1687.763671875
 20
-1882.880859375
 10
1678.0078125
 20
-1882.880859375
 10
1668.251953125
 20
-1882.880859375
 10
1658.49609375
 20
-1882.880859375
 10
1648.740234375
 20
-1882.880859375
 10
1638.984375
 20
-1873.125
 10
1629.228515625
 20
-1873.125
 10
1619.47265625
 20
-1873.125
 10
1609.716796875
 20
-1873.125
 10
1599.9609375
 20
-1873.125
 10
1590.205078125
 20
-1873.125
 10
1580.44921875
 20
-1873.125
 10
1570.693359375
 20
-1873.125
 10
1560.9375
 20
-1873.125
 10
1551.181640625
 20
-1873.125
 10
1541.42578125
 20
-1873.125
 10
1531.669921875
 20
-1873.125
 10
1521.9140625
 20
-1873.125
 10
1512.158203125
 20
-1882.880859375
 10
1502.40234375
 20
-1873.125
 10
1492.646484375
 20
-1882.880859375
 10
1482.890625
 20
-1882.880859375
 10
1473.134765625
 20
-1873.125
 10
1463.37890625
 20
-1882.880859375
 10
1453.623046875
 20
-1882.880859375
 10
1443.8671875
 20
-1882.880859375
 10
1434.111328125
 20
-1882.880859375
 10
1424.35546875
 20
-1882.880859375
 10
1414.599609375
 20
-1882.880859375
 10
1404.84375
 20
-1882.880859375
 10
1395.087890625
 20
-1882.880859375
 10
1385.33203125
 20
-1882.880859375
 10
1375.576171875
 20
-1882.880859375
 10
1365.8203125
 20
-1882.880859375
 10
1356.064453125
 20
-1882.880859375
 10
1346.30859375
 20
-1882.880859375
 10
1336.552734375
 20
-1882.880859375
 10
1326.796875
 20
-1882.880859375
 10
1317.041015625
 20
-1882.880859375
 10
1307.28515625
 20
-1882.880859375
 10
1297.529296875
 20
-1882.880859375
 10
1287.7734375
 20
-1882.880859375
 10
1278.017578125
 20
-1882.880859375
 10
1268.26171875
 20
-1882.880859375
 10
1258.505859375
 20
-1882.880859375
 10
1248.75
 20
-1882.880859375
 10
1238.994140625
 20
-1882.880859375
 10
1229.23828125
 20
-1882.880859375
 10
1219.482421875
 20
-1882.880859375
 10
1209.7265625
 20
-1873.125
 10
1199.970703125
 20
-1882.880859375
 10
1190.21484375
 20
-1882.880859375
 10
1180.458984375
 20
-1873.125
 10
1170.703125
 20
-1873.125
 10
1160.947265625
 20
-1873.125
 10
1151.19140625
 20
-1873.125
 10
1141.435546875
 20
-1873.125
 10
1131.6796875
 20
-1873.125
 10
1121.923828125
 20
-1873.125
 10
1112.16796875
 20
-1882.880859375
 10
1102.412109375
 20
-1882.880859375
 10
1092.65625
 20
-1882.880859375
 10
1082.900390625
 20
-1882.880859375
 10
1073.14453125
 20
-1882.880859375
 10
1063.388671875
 20
-1882.880859375
 10
1053.6328125
 20
-1882.880859375
 10
1043.876953125
 20
-1882.880859375
 10
1034.12109375
 20
-1882.880859375
 10
1024.365234375
 20
-1882.880859375
 10
1014.609375
 20
-1882.880859375
 10
1004.853515625
 20
-1882.880859375
 10
995.09765625
 20
-1882.880859375
 10
985.341796875
 20
-1882.880859375
 10
975.5859375
 20
-1882.880859375
 10
965.830078125
 20
-1882.880859375
 10
956.07421875
 20
-1882.880859375
 10
946.318359375
 20
-1882.880859375
 10
936.5625
 20
-1882.880859375
 10
926.806640625
 20
-1882.880859375
 10
917.05078125
 20
-1882.880859375
 10
907.294921875
 20
-1882.880859375
 10
897.5390625
 20
-1882.880859375
 10
887.783203125
 20
-1882.880859375
 10
878.02734375
 20
-1882.880859375
 10
868.271484375
 20
-1882.880859375
 10
858.515625
 20
-1882.880859375
 10
848.759765625
 20
-1882.880859375
 10
839.00390625
 20
-1882.880859375
 10
829.248046875
 20
-1882.880859375
 10
819.4921875
 20
-1882.880859375
 10
809.736328125
 20
-1882.880859375
 10
799.98046875
 20
-1882.880859375
 10
790.224609375
 20
-1882.880859375
 10
780.46875
 20
-1882.880859375
 10
770.712890625
 20
-1882.880859375
 10
760.95703125
 20
-1882.880859375
 10
751.201171875
 20
-1882.880859375
 10
741.4453125
 20
-1882.880859375
 10
731.689453125
 20
-1882.880859375
 10
721.93359375
 20
-1882.880859375
 10
712.177734375
 20
-1882.880859375
 10
712.177734375
 20
-1892.63671875
 10
712.177734375
 20
-1902.392578125
 10
712.177734375
 20
-1912.1484375
 10
712.177734375
 20
-1921.904296875
 10
712.177734375
 20
-1931.66015625
 10
712.177734375
 20
-1941.416015625
 10
712.177734375
 20
-1951.171875
 10
702.421875
 20
-1960.927734375
 10
712.177734375
 20
-1970.68359375
 10
712.177734375
 20
-1980.439453125
 10
712.177734375
 20
-1990.1953125
 10
712.177734375
 20
-1999.951171875
 10
702.421875
 20
-2009.70703125
 10
702.421875
 20
-2019.462890625
 10
712.177734375
 20
-2029.21875
 10
712.177734375
 20
-2038.974609375
 10
712.177734375
 20
-2048.73046875
 10
702.421875
 20
-2058.486328125
 10
712.177734375
 20
-2068.2421875
 10
702.421875
 20
-2077.998046875
 10
712.177734375
 20
-2087.75390625
 10
712.177734375
 20
-2097.509765625
 10
712.177734375
 20
-2107.265625
 10
702.421875
 20
-2117.021484375
 10
712.177734375
 20
-2126.77734375
 10
712.177734375
 20
-2136.533203125
 10
712.177734375
 20
-2146.2890625
 10
712.177734375
 20
-2156.044921875
 10
702.421875
 20
-2165.80078125
 10
702.421875
 20
-2175.556640625
 10
712.177734375
 20
-2185.3125
 10
702.421875
 20
-2195.068359375
 10
702.421875
 20
-2204.82421875
 10
702.421875
 20
-2214.580078125
 10
702.421875
 20
-2224.3359375
 10
702.421875
 20
-2234.091796875
 10
702.421875
 20
-2243.84765625
 10
712.177734375
 20
-2253.603515625
 10
702.421875
 20
-2263.359375
 10
702.421875
 20
-2273.115234375
 10
712.177734375
 20
-2282.87109375
 10
712.177734375
 20
-2292.626953125
 10
712.177734375
 20
-2302.3828125
 10
712.177734375
 20
-2312.138671875
 10
712.177734375
 20
-2321.89453125
 10
712.177734375
 20
-2331.650390625
 10
712.177734375
 20
-2341.40625
 10
712.177734375
 20
-2351.162109375
 10
712.177734375
 20
-2360.91796875
 10
712.177734375
 20
-2370.673828125
 10
712.177734375
 20
-2380.4296875
 10
712.177734375
 20
-2390.185546875
 10
712.177734375
 20
-2399.94140625
 10
712.177734375
 20
-2409.697265625
 10
712.177734375
 20
-2419.453125
 10
712.177734375
 20
-2429.208984375
 10
712.177734375
 20
-2438.96484375
 10
712.177734375
 20
-2448.720703125
 10
712.177734375
 20
-2458.4765625
 10
712.177734375
 20
-2468.232421875
 10
712.177734375
 20
-2477.98828125
 10
712.177734375
 20
-2487.744140625
 10
712.177734375
 20
-2497.5
 10
712.177734375
 20
-2507.255859375
 10
712.177734375
 20
-2517.01171875
 10
712.177734375
 20
-2526.767578125
 10
712.177734375
 20
-2536.5234375
 10
712.177734375
 20
-2546.279296875
 10
712.177734375
 20
-2556.03515625
 10
712.177734375
 20
-2565.791015625
 10
712.177734375
 20
-2575.546875
 10
712.177734375
 20
-2585.302734375
 10
712.177734375
 20
-2595.05859375
 10
712.177734375
 20
-2604.814453125
 10
712.177734375
 20
-2614.5703125
 10
712.177734375
 20
-2624.326171875
 10
712.177734375
 20
-2634.08203125
 10
712.177734375
 20
-2643.837890625
 10
712.177734375
 20
-2653.59375
 10
712.177734375
 20
-2663.349609375
 10
712.177734375
 20
-2673.10546875
 10
712.177734375
 20
-2682.861328125
 10
712.177734375
 20
-2692.6171875
 10
712.177734375
 20
-2702.373046875
 10
712.177734375
 20
-2712.12890625
 10
712.177734375
 20
-2721.884765625
 10
712.177734375
 20
-2731.640625
 10
712.177734375
 20
-2741.396484375
 10
712.177734375
 20
-2751.15234375
 10
712.177734375
 20
-2760.908203125
 10
712.177734375
 20
-2770.6640625
 10
712.177734375
 20
-2780.419921875
 10
712.177734375
 20
-2790.17578125
 10
712.177734375
 20
-2799.931640625
 10
712.177734375
 20
-2809.6875
 10
712.177734375
 20
-2819.443359375
 10
712.177734375
 20
-2829.19921875
 10
712.177734375
 20
-2838.955078125
 10
712.177734375
 20
-2848.7109375
 10
712.177734375
 20
-2858.466796875
 10
712.177734375
 20
-2868.22265625
 10
712.177734375
 20
-2877.978515625
 10
712.177734375
 20
-2887.734375
 10
712.177734375
 20
-2897.490234375
 10
712.177734375
 20
-2907.24609375
 10
712.177734375
 20
-2917.001953125
 10
712.177734375
 20
-2926.7578125
 10
712.177734375
 20
-2936.513671875
 10
712.177734375
 20
-2946.26953125
 10
712.177734375
 20
-2956.025390625
 10
712.177734375
 20
-2965.78125
 10
712.177734375
 20
-2975.537109375
 10
712.177734375
 20
-2985.29296875
 10
712.177734375
 20
-2995.048828125
 10
712.177734375
 20
-3004.8046875
 10
702.421875
 20
-3014.560546875
 10
702.421875
 20
-3024.31640625
 10
712.177734375
 20
-3034.072265625
 10
712.177734375
 20
-3043.828125
 10
712.177734375
 20
-3053.583984375
 10
712.177734375
 20
-3063.33984375
 10
712.177734375
 20
-3073.095703125
 10
702.421875
 20
-3082.8515625
 10
702.421875
 20
-3092.607421875
 10
702.421875
 20
-3102.36328125
 10
712.177734375
 20
-3102.36328125
 10
721.93359375
 20
-3102.36328125
 10
731.689453125
 20
-3102.36328125
 10
741.4453125
 20
-3102.36328125
 10
751.201171875
 20
-3102.36328125
 10
760.95703125
 20
-3102.36328125
 10
770.712890625
 20
-3112.119140625
 10
780.46875
 20
-3112.119140625
 10
790.224609375
 20
-3112.119140625
 10
799.98046875
 20
-3112.119140625
 10
809.736328125
 20
-3112.119140625
 10
819.4921875
 20
-3112.119140625
 10
829.248046875
 20
-3112.119140625
 10
839.00390625
 20
-3112.119140625
 10
848.759765625
 20
-3112.119140625
 10
858.515625
 20
-3112.119140625
 10
868.271484375
 20
-3112.119140625
 10
878.02734375
 20
-3112.119140625
 10
887.783203125
 20
-3112.119140625
 10
897.5390625
 20
-3112.119140625
 10
907.294921875
 20
-3102.36328125
 10
917.05078125
 20
-3102.36328125
 10
926.806640625
 20
-3112.119140625
 10
936.5625
 20
-3102.36328125
 10
946.318359375
 20
-3102.36328125
 10
956.07421875
 20
-3102.36328125
 10
965.830078125
 20
-3102.36328125
 10
975.5859375
 20
-3102.36328125
 10
985.341796875
 20
-3102.36328125
 10
995.09765625
 20
-3102.36328125
 10
1004.853515625
 20
-3102.36328125
 10
1014.609375
 20
-3112.119140625
 10
1024.365234375
 20
-3112.119140625
 10
1034.12109375
 20
-3102.36328125
 10
1043.876953125
 20
-3112.119140625
 10
1053.6328125
 20
-3112.119140625
 10
1063.388671875
 20
-3112.119140625
 10
1073.14453125
 20
-3102.36328125
 10
1082.900390625
 20
-3112.119140625
 10
1092.65625
 20
-3112.119140625
 10
1102.412109375
 20
-3112.119140625
 10
1112.16796875
 20
-3112.119140625
 10
1121.923828125
 20
-3112.119140625
 10
1131.6796875
 20
-3102.36328125
 10
1141.435546875
 20
-3102.36328125
 10
1151.19140625
 20
-3102.36328125
 10
1160.947265625
 20
-3112.119140625
 10
1170.703125
 20
-3112.119140625
 10
1180.458984375
 20
-3112.119140625
 10
1190.21484375
 20
-3112.119140625
 10
1199.970703125
 20
-3112.119140625
 10
1209.7265625
 20
-3112.119140625
 10
1219.482421875
 20
-3112.119140625
 10
1229.23828125
 20
-3112.119140625
 10
1238.994140625
 20
-3112.119140625
 10
1248.75
 20
-3102.36328125
 10
1258.505859375
 20
-3112.119140625
 10
1268.26171875
 20
-3102.36328125
 10
1278.017578125
 20
-3102.36328125
 10
1287.7734375
 20
-3102.36328125
 10
1297.529296875
 20
-3102.36328125
 10
1307.28515625
 20
-3102.36328125
 10
1317.041015625
 20
-3112.119140625
 10
1326.796875
 20
-3112.119140625
 10
1336.552734375
 20
-3112.119140625
 10
1346.30859375
 20
-3112.119140625
 10
1356.064453125
 20
-3112.119140625
 10
1365.8203125
 20
-3112.119140625
 10
1375.576171875
 20
-3102.36328125
 10
1385.33203125
 20
-3112.119140625
 10
1395.087890625
 20
-3112.119140625
 10
1404.84375
 20
-3112.119140625
 10
1414.599609375
 20
-3112.119140625
 10
1424.35546875
 20
-3112.119140625
 10
1434.111328125
 20
-3112.119140625
 10
1443.8671875
 20
-3102.36328125
 10
1453.623046875
 20
-3102.36328125
 10
1463.37890625
 20
-3102.36328125
 10
1473.134765625
 20
-3112.119140625
 10
1482.890625
 20
-3112.119140625
 10
1492.646484375
 20
-3102.36328125
 10
1502.40234375
 20
-3102.36328125
 10
1512.158203125
 20
-3102.36328125
 10
1521.9140625
 20
-3102.36328125
 10
1531.669921875
 20
-3102.36328125
 10
1541.42578125
 20
-3102.36328125
 10
1551.181640625
 20
-3102.36328125
 10
1560.9375
 20
-3102.36328125
 10
1570.693359375
 20
-3112.119140625
 10
1580.44921875
 20
-3112.119140625
 10
1590.205078125
 20
-3112.119140625
 10
1599.9609375
 20
-3112.119140625
 10
1609.716796875
 20
-3102.36328125
 10
1619.47265625
 20
-3102.36328125
 10
1629.228515625
 20
-3112.119140625
 10
1638.984375
 20
-3112.119140625
 10
1648.740234375
 20
-3112.119140625
 10
1658.49609375
 20
-3102.36328125
 10
1668.251953125
 20
-3112.119140625
 10
1678.0078125
 20
-3112.119140625
 10
1687.763671875
 20
-3112.119140625
 10
1697.51953125
 20
-3112.119140625
 10
1707.275390625
 20
-3112.119140625
 10
1717.03125
 20
-3112.119140625
 10
1726.787109375
 20
-3112.119140625
 10
1736.54296875
 20
-3102.36328125
 10
1746.298828125
 20
-3112.119140625
 10
1756.0546875
 20
-3102.36328125
 10
1765.810546875
 20
-3102.36328125
 10
1775.56640625
 20
-3102.36328125
 10
1785.322265625
 20
-3112.119140625
 10
1795.078125
 20
-3112.119140625
 10
1804.833984375
 20
-3102.36328125
 10
1814.58984375
 20
-3112.119140625
 10
1824.345703125
 20
-3112.119140625
 10
1834.1015625
 20
-3102.36328125
 10
1843.857421875
 20
-3102.36328125
 10
1853.61328125
 20
-3102.36328125
 10
1863.369140625
 20
-3102.36328125
 10
1873.125
 20
-3102.36328125
 10
1882.880859375
 20
-3112.119140625
 10
1882.880859375
 20
-3121.875
 10
1882.880859375
 20
-3131.630859375
 10
1882.880859375
 20
-3141.38671875
 10
1882.880859375
 20
-3151.142578125
 10
1882.880859375
 20
-3160.8984375
 10
1882.880859375
 20
-3170.654296875
 10
1882.880859375
 20
-3180.41015625
 10
1882.880859375
 20
-3190.166015625
 10
1882.880859375
 20
-3199.921875
 10
1882.880859375
 20
-3209.677734375
 10
1882.880859375
 20
-3219.43359375
 10
1882.880859375
 20
-3229.189453125
 10
1882.880859375
 20
-3238.9453125
 10
1882.880859375
 20
-3248.701171875
 10
1882.880859375
 20
-3258.45703125
 10
1882.880859375
 20
-3268.212890625
 10
1882.880859375
 20
-3277.96875
 10
1882.880859375
 20
-3287.724609375
 10
1882.880859375
 20
-3297.48046875
 10
1882.880859375
 20
-3307.236328125
 10
1882.880859375
 20
-3316.9921875
 10
1882.880859375
 20
-3326.748046875
 10
1882.880859375
 20
-3336.50390625
 10
1882.880859375
 20
-3346.259765625
 10
1882.880859375
 20
-3356.015625
 10
1882.880859375
 20
-3365.771484375
 10
1882.880859375
 20
-3375.52734375
 10
1882.880859375
 20
-3385.283203125
 10
1882.880859375
 20
-3395.0390625
 10
1882.880859375
 20
-3404.794921875
 10
1882.880859375
 20
-3414.55078125
 10
1882.880859375
 20
-3424.306640625
 10
1873.125
 20
-3434.0625
 10
1873.125
 20
-3443.818359375
 10
1873.125
 20
-3453.57421875
 10
1873.125
 20
-3463.330078125
 10
1882.880859375
 20
-3473.0859375
 10
1882.880859375
 20
-3482.841796875
 10
1882.880859375
 20
-3492.59765625
 10
1882.880859375
 20
-3502.353515625
 10
1882.880859375
 20
-3512.109375
 10
1882.880859375
 20
-3521.865234375
 10
1882.880859375
 20
-3531.62109375
 10
1873.125
 20
-3541.376953125
 10
1882.880859375
 20
-3551.1328125
 10
1873.125
 20
-3560.888671875
 10
1873.125
 20
-3570.64453125
 10
1873.125
 20
-3580.400390625
 10
1873.125
 20
-3590.15625
 10
1873.125
 20
-3599.912109375
 10
1873.125
 20
-3609.66796875
 10
1882.880859375
 20
-3619.423828125
 10
1882.880859375
 20
-3629.1796875
 10
1882.880859375
 20
-3638.935546875
 10
1882.880859375
 20
-3648.69140625
 10
1882.880859375
 20
-3658.447265625
 10
1882.880859375
 20
-3668.203125
 10
1882.880859375
 20
-3677.958984375
 10
1882.880859375
 20
-3687.71484375
 10
1882.880859375
 20
-3697.470703125
 10
1882.880859375
 20
-3707.2265625
 10
1882.880859375
 20
-3716.982421875
 10
1882.880859375
 20
-3726.73828125
 10
1882.880859375
 20
-3736.494140625
 10
1882.880859375
 20
-3746.25
 10
1873.125
 20
-3756.005859375
 10
1882.880859375
 20
-3765.76171875
 10
1882.880859375
 20
-3775.517578125
 10
1882.880859375
 20
-3785.2734375
 10
1873.125
 20
-3795.029296875
 10
1882.880859375
 20
-3804.78515625
 10
1882.880859375
 20
-3814.541015625
 10
1882.880859375
 20
-3824.296875
 10
1882.880859375
 20
-3834.052734375
 10
1882.880859375
 20
-3843.80859375
 10
1882.880859375
 20
-3853.564453125
 10
1882.880859375
 20
-3863.3203125
 10
1882.880859375
 20
-3873.076171875
 10
1882.880859375
 20
-3882.83203125
 10
1882.880859375
 20
-3892.587890625
 10
1882.880859375
 20
-3902.34375
 10
1882.880859375
 20
-3912.099609375
 10
1882.880859375
 20
-3921.85546875
 10
1882.880859375
 20
-3931.611328125
 10
1882.880859375
 20
-3941.3671875
 10
1882.880859375
 20
-3951.123046875
 10
1882.880859375
 20
-3960.87890625
 10
1873.125
 20
-3970.634765625
 10
1882.880859375
 20
-3980.390625
 10
1873.125
 20
-3990.146484375
 10
1873.125
 20
-3999.90234375
 10
1873.125
 20
-4009.658203125
 10
1873.125
 20
-4019.4140625
 10
1873.125
 20
-4029.169921875
 10
1873.125
 20
-4038.92578125
 10
1873.125
 20
-4048.681640625
 10
1873.125
 20
-4058.4375
 10
1873.125
 20
-4068.193359375
 10
1873.125
 20
-4077.94921875
 10
1873.125
 20
-4087.705078125
 10
1873.125
 20
-4097.4609375
 10
1873.125
 20
-4107.216796875
 10
1873.125
 20
-4116.97265625
 10
1873.125
 20
-4126.728515625
 10
1873.125
 20
-4136.484375
 10
1873.125
 20
-4146.240234375
 10
1873.125
 20
-4155.99609375
 10
1873.125
 20
-4165.751953125
 10
1873.125
 20
-4175.5078125
 10
1873.125
 20
-4185.263671875
 10
1873.125
 20
-4195.01953125
 10
1873.125
 20
-4204.775390625
 10
1873.125
 20
-4214.53125
 10
1873.125
 20
-4224.287109375
 10
1873.125
 20
-4234.04296875
 10
1882.880859375
 20
-4243.798828125
 10
1882.880859375
 20
-4253.5546875
 10
1892.63671875
 20
-4263.310546875
 10
1902.392578125
 20
-4273.06640625
 10
1912.1484375
 20
-4273.06640625
 10
1921.904296875
 20
-4273.06640625
 10
1931.66015625
 20
-4273.06640625
 10
1941.416015625
 20
-4273.06640625
 10
1951.171875
 20
-4273.06640625
 10
1960.927734375
 20
-4273.06640625
 10
1970.68359375
 20
-4273.06640625
 10
1980.439453125
 20
-4273.06640625
 10
1990.1953125
 20
-4273.06640625
 10
1999.951171875
 20
-4273.06640625
 10
2009.70703125
 20
-4273.06640625
 10
2019.462890625
 20
-4273.06640625
 10
2029.21875
 20
-4273.06640625
 10
2038.974609375
 20
-4273.06640625
 10
2048.73046875
 20
-4273.06640625
 10
2058.486328125
 20
-4273.06640625
 10
2068.2421875
 20
-4273.06640625
 10
2077.998046875
 20
-4273.06640625
 10
2087.75390625
 20
-4273.06640625
 10
2097.509765625
 20
-4273.06640625
 10
2107.265625
 20
-4282.822265625
 10
2117.021484375
 20
-4273.06640625
 10
2126.77734375
 20
-4282.822265625
 10
2136.533203125
 20
-4282.822265625
 10
2146.2890625
 20
-4282.822265625
 10
2156.044921875
 20
-4273.06640625
 10
2165.80078125
 20
-4273.06640625
 10
2175.556640625
 20
-4273.06640625
 10
2185.3125
 20
-4273.06640625
 10
2195.068359375
 20
-4273.06640625
 10
2204.82421875
 20
-4282.822265625
 10
2214.580078125
 20
-4282.822265625
 10
2224.3359375
 20
-4273.06640625
 10
2234.091796875
 20
-4273.06640625
 10
2243.84765625
 20
-4273.06640625
 10
2253.603515625
 20
-4273.06640625
 10
2263.359375
 20
-4273.06640625
 10
2273.115234375
 20
-4273.06640625
 10
2282.87109375
 20
-4273.06640625
 10
2292.626953125
 20
-4273.06640625
 10
2302.3828125
 20
-4273.06640625
 10
2312.138671875
 20
-4273.06640625
 10
2321.89453125
 20
-4273.06640625
 10
2331.650390625
 20
-4273.06640625
 10
2341.40625
 20
-4273.06640625
 10
2351.162109375
 20
-4273.06640625
 10
2360.91796875
 20
-4273.06640625
 10
2370.673828125
 20
-4273.06640625
 10
2380.4296875
 20
-4273.06640625
 10
2390.185546875
 20
-4273.06640625
 10
2399.94140625
 20
-4273.06640625
 10
2409.697265625
 20
-4273.06640625
 10
2419.453125
 20
-4273.06640625
 10
2429.208984375
 20
-4273.06640625
 10
2438.96484375
 20
-4273.06640625
 10
2448.720703125
 20
-4273.06640625
 10
2458.4765625
 20
-4273.06640625
 10
2468.232421875
 20
-4273.06640625
 10
2477.98828125
 20
-4273.06640625
 10
2487.744140625
 20
-4273.06640625
 10
2497.5
 20
-4273.06640625
 10
2507.255859375
 20
-4273.06640625
 10
2517.01171875
 20
-4273.06640625
 10
2526.767578125
 20
-4273.06640625
 10
2536.5234375
 20
-4273.06640625
 10
2546.279296875
 20
-4273.06640625
 10
2556.03515625
 20
-4273.06640625
 10
2565.791015625
 20
-4273.06640625
 10
2575.546875
 20
-4273.06640625
 10
2585.302734375
 20
-4273.06640625
 10
2595.05859375
 20
-4273.06640625
 10
2604.814453125
 20
-4263.310546875
 10
2614.5703125
 20
-4263.310546875
 10
2624.326171875
 20
-4263.310546875
 10
2634.08203125
 20
-4273.06640625
 10
2643.837890625
 20
-4273.06640625
 10
2653.59375
 20
-4273.06640625
 10
2663.349609375
 20
-4273.06640625
 10
2673.10546875
 20
-4273.06640625
 10
2682.861328125
 20
-4263.310546875
 10
2692.6171875
 20
-4263.310546875
 10
2702.373046875
 20
-4263.310546875
 10
2712.12890625
 20
-4273.06640625
 10
2721.884765625
 20
-4263.310546875
 10
2731.640625
 20
-4273.06640625
 10
2741.396484375
 20
-4263.310546875
 10
2751.15234375
 20
-4263.310546875
 10
2760.908203125
 20
-4263.310546875
 10
2770.6640625
 20
-4263.310546875
 10
2780.419921875
 20
-4263.310546875
 10
2790.17578125
 20
-4273.06640625
 10
2799.931640625
 20
-4263.310546875
 10
2809.6875
 20
-4273.06640625
 10
2819.443359375
 20
-4263.310546875
 10
2829.19921875
 20
-4273.06640625
 10
2838.955078125
 20
-4263.310546875
 10
2848.7109375
 20
-4263.310546875
 10
2858.466796875
 20
-4263.310546875
 10
2868.22265625
 20
-4263.310546875
 10
2877.978515625
 20
-4263.310546875
 10
2887.734375
 20
-4263.310546875
 10
2897.490234375
 20
-4263.310546875
 10
2907.24609375
 20
-4263.310546875
 10
2917.001953125
 20
-4263.310546875
 10
2926.7578125
 20
-4263.310546875
 10
2936.513671875
 20
-4263.310546875
 10
2946.26953125
 20
-4263.310546875
 10
2956.025390625
 20
-4263.310546875
 10
2965.78125
 20
-4263.310546875
 10
2975.537109375
 20
-4263.310546875
 10
2985.29296875
 20
-4263.310546875
 10
2995.048828125
 20
-4263.310546875
 10
3004.8046875
 20
-4263.310546875
 10
3014.560546875
 20
-4263.310546875
 10
3024.31640625
 20
-4263.310546875
 10
3034.072265625
 20
-4263.310546875
 10
3043.828125
 20
-4263.310546875
 10
3053.583984375
 20
-4263.310546875
 10
3063.33984375
 20
-4273.06640625
 10
3073.095703125
 20
-4263.310546875
 10
3082.8515625
 20
-4263.310546875
 10
3092.607421875
 20
-4263.310546875
 10
3102.36328125
 20
-4253.5546875
 10
3112.119140625
 20
-4243.798828125
 10
3112.119140625
 20
-4234.04296875
 10
3112.119140625
 20
-4224.287109375
 10
3102.36328125
 20
-4214.53125
 10
3102.36328125
 20
-4204.775390625
 10
3102.36328125
 20
-4195.01953125
 10
3102.36328125
 20
-4185.263671875
 10
3102.36328125
 20
-4175.5078125
 10
3102.36328125
 20
-4165.751953125
 10
3102.36328125
 20
-4155.99609375
 10
3102.36328125
 20
-4146.240234375
 10
3102.36328125
 20
-4136.484375
 10
3102.36328125
 20
-4126.728515625
 10
3102.36328125
 20
-4116.97265625
 10
3102.36328125
 20
-4107.216796875
 10
3102.36328125
 20
-4097.4609375
 10
3102.36328125
 20
-4087.705078125
 10
3102.36328125
 20
-4077.94921875
 10
3102.36328125
 20
-4068.193359375
 10
3102.36328125
 20
-4058.4375
 10
3102.36328125
 20
-4048.681640625
 10
3102.36328125
 20
-4038.92578125
 10
3102.36328125
 20
-4029.169921875
 10
3102.36328125
 20
-4019.4140625
 10
3102.36328125
 20
-4009.658203125
 10
3102.36328125
 20
-3999.90234375
 10
3102.36328125
 20
-3990.146484375
 10
3102.36328125
 20
-3980.390625
 10
3102.36328125
 20
-3970.634765625
 10
3102.36328125
 20
-3960.87890625
 10
3112.119140625
 20
-3951.123046875
 10
3102.36328125
 20
-3941.3671875
 10
3112.119140625
 20
-3931.611328125
 10
3102.36328125
 20
-3921.85546875
 10
3112.119140625
 20
-3912.099609375
 10
3102.36328125
 20
-3902.34375
 10
3112.119140625
 20
-3892.587890625
 10
3112.119140625
 20
-3882.83203125
 10
3112.119140625
 20
-3873.076171875
 10
3112.119140625
 20
-3863.3203125
 10
3102.36328125
 20
-3853.564453125
 10
3102.36328125
 20
-3843.80859375
 10
3112.119140625
 20
-3834.052734375
 10
3112.119140625
 20
-3824.296875
 10
3112.119140625
 20
-3814.541015625
 10
3112.119140625
 20
-3804.78515625
 10
3102.36328125
 20
-3795.029296875
 10
3102.36328125
 20
-3785.2734375
 10
3102.36328125
 20
-3775.517578125
 10
3102.36328125
 20
-3765.76171875
 10
3112.119140625
 20
-3756.005859375
 10
3102.36328125
 20
-3746.25
 10
3112.119140625
 20
-3736.494140625
 10
3102.36328125
 20
-3726.73828125
 10
3102.36328125
 20
-3716.982421875
 10
3102.36328125
 20
-3707.2265625
 10
3102.36328125
 20
-3697.470703125
 10
3102.36328125
 20
-3687.71484375
 10
3102.36328125
 20
-3677.958984375
 10
3102.36328125
 20
-3668.203125
 10
3112.119140625
 20
-3658.447265625
 10
3112.119140625
 20
-3648.69140625
 10
3112.119140625
 20
-3638.935546875
 10
3112.119140625
 20
-3629.1796875
 10
3102.36328125
 20
-3619.423828125
 10
3102.36328125
 20
-3609.66796875
 10
3112.119140625
 20
-3599.912109375
 10
3102.36328125
 20
-3590.15625
 10
3102.36328125
 20
-3580.400390625
 10
3102.36328125
 20
-3570.64453125
 10
3102.36328125
 20
-3560.888671875
 10
3112.119140625
 20
-3551.1328125
 10
3112.119140625
 20
-3541.376953125
 10
3112.119140625
 20
-3531.62109375
 10
3112.119140625
 20
-3521.865234375
 10
3112.119140625
 20
-3512.109375
 10
3112.119140625
 20
-3502.353515625
 10
3112.119140625
 20
-3492.59765625
 10
3112.119140625
 20
-3482.841796875
 10
3112.119140625
 20
-3473.0859375
 10
3112.119140625
 20
-3463.330078125
 10
3112.119140625
 20
-3453.57421875
 10
3112.119140625
 20
-3443.818359375
 10
3112.119140625
 20
-3434.0625
 10
3112.119140625
 20
-3424.306640625
 10
3112.119140625
 20
-3414.55078125
 10
3112.119140625
 20
-3404.794921875
 10
3112.119140625
 20
-3395.0390625
 10
3112.119140625
 20
-3385.283203125
 10
3102.36328125
 20
-3375.52734375
 10
3102.36328125
 20
-3365.771484375
 10
3102.36328125
 20
-3356.015625
 10
3102.36328125
 20
-3346.259765625
 10
3112.119140625
 20
-3336.50390625
 10
3102.36328125
 20
-3326.748046875
 10
3102.36328125
 20
-3316.9921875
 10
3102.36328125
 20
-3307.236328125
 10
3102.36328125
 20
-3297.48046875
 10
3102.36328125
 20
-3287.724609375
 10
3102.36328125
 20
-3277.96875
 10
3112.119140625
 20
-3268.212890625
 10
3102.36328125
 20
-3258.45703125
 10
3112.119140625
 20
-3248.701171875
 10
3112.119140625
 20
-3238.9453125
 10
3112.119140625
 20
-3229.189453125
 10
3112.119140625
 20
-3219.43359375
 10
3112.119140625
 20
-3209.677734375
 10
3112.119140625
 20
-3199.921875
 10
3112.119140625
 20
-3190.166015625
 10
3112.119140625
 20
-3180.41015625
 10
3112.119140625
 20
-3170.654296875
 10
3112.119140625
 20
-3160.8984375
 10
3112.119140625
 20
-3151.142578125
 10
3102.36328125
 20
-3141.38671875
 10
3112.119140625
 20
-3131.630859375
 10
3112.119140625
 20
-3121.875
 10
3121.875
 20
-3112.119140625
 10
3131.630859375
 20
-3112.119140625
 10
3141.38671875
 20
-3112.119140625
 10
3151.142578125
 20
-3112.119140625
 10
3160.8984375
 20
-3102.36328125
 10
3170.654296875
 20
-3102.36328125
 10
3180.41015625
 20
-3102.36328125
 10
3190.166015625
 20
-3102.36328125
 10
3199.921875
 20
-3102.36328125
 10
3209.677734375
 20
-3112.119140625
 10
3219.43359375
 20
-3102.36328125
 10
3229.189453125
 20
-3112.119140625
 10
3238.9453125
 20
-3112.119140625
 10
3248.701171875
 20
-3112.119140625
 10
3258.45703125
 20
-3102.36328125
 10
3268.212890625
 20
-3112.119140625
 10
3277.96875
 20
-3112.119140625
 10
3287.724609375
 20
-3112.119140625
 10
3297.48046875
 20
-3102.36328125
 10
3307.236328125
 20
-3102.36328125
 10
3316.9921875
 20
-3112.119140625
 10
3326.748046875
 20
-3102.36328125
 10
3336.50390625
 20
-3102.36328125
 10
3346.259765625
 20
-3112.119140625
 10
3356.015625
 20
-3112.119140625
 10
3365.771484375
 20
-3112.119140625
 10
3375.52734375
 20
-3112.119140625
 10
3385.283203125
 20
-3112.119140625
 10
3395.0390625
 20
-3112.119140625
 10
3404.794921875
 20
-3112.119140625
 10
3414.55078125
 20
-3112.119140625
 10
3424.306640625
 20
-3112.119140625
 10
3434.0625
 20
-3112.119140625
 10
3443.818359375
 20
-3112.119140625
 10
3453.57421875
 20
-3112.119140625
 10
3463.330078125
 20
-3102.36328125
 10
3473.0859375
 20
-3102.36328125
 10
3482.841796875
 20
-3102.36328125
 10
3492.59765625
 20
-3102.36328125
 10
3502.353515625
 20
-3112.119140625
 10
3512.109375
 20
-3112.119140625
 10
3521.865234375
 20
-3112.119140625
 10
3531.62109375
 20
-3102.36328125
 10
3541.376953125
 20
-3112.119140625
 10
3551.1328125
 20
-3112.119140625
 10
3560.888671875
 20
-3112.119140625
 10
3570.64453125
 20
-3102.36328125
 10
3580.400390625
 20
-3112.119140625
 10
3590.15625
 20
-3112.119140625
 10
3599.912109375
 20
-3112.119140625
 10
3609.66796875
 20
-3102.36328125
 10
3619.423828125
 20
-3102.36328125
 10
3629.1796875
 20
-3112.119140625
 10
3638.935546875
 20
-3102.36328125
 10
3648.69140625
 20
-3112.119140625
 10
3658.447265625
 20
-3112.119140625
 10
3668.203125
 20
-3112.119140625
 10
3677.958984375
 20
-3112.119140625
 10
3687.71484375
 20
-3112.119140625
 10
3697.470703125
 20
-3102.36328125
 10
3707.2265625
 20
-3112.119140625
 10
3716.982421875
 20
-3102.36328125
 10
3726.73828125
 20
-3102.36328125
 10
3736.494140625
 20
-3112.119140625
 10
3746.25
 20
-3102.36328125
 10
3756.005859375
 20
-3102.36328125
 10
3765.76171875
 20
-3112.119140625
 10
3775.517578125
 20
-3102.36328125
 10
3785.2734375
 20
-3102.36328125
 10
3795.029296875
 20
-3102.36328125
 10
3804.78515625
 20
-3102.36328125
 10
3814.541015625
 20
-3112.119140625
 10
3824.296875
 20
-3112.119140625
 10
3834.052734375
 20
-3112.119140625
 10
3843.80859375
 20
-3112.119140625
 10
3853.564453125
 20
-3112.119140625
 10
3863.3203125
 20
-3112.119140625
 10
3873.076171875
 20
-3102.36328125
 10
3882.83203125
 20
-3102.36328125
 10
3892.587890625
 20
-3112.119140625
 10
3902.34375
 20
-3112.119140625
 10
3912.099609375
 20
-3112.119140625
 10
3921.85546875
 20
-3112.119140625
 10
3931.611328125
 20
-3112.119140625
 10
3941.3671875
 20
-3112.119140625
 10
3951.123046875
 20
-3102.36328125
 10
3960.87890625
 20
-3102.36328125
 10
3970.634765625
 20
-3112.119140625
 10
3980.390625
 20
-3112.119140625
 10
3990.146484375
 20
-3112.119140625
 10
3999.90234375
 20
-3112.119140625
 10
4009.658203125
 20
-3112.119140625
 10
4019.4140625
 20
-3112.119140625
 10
4029.169921875
 20
-3102.36328125
 10
4038.92578125
 20
-3102.36328125
 10
4048.681640625
 20
-3112.119140625
 10
4058.4375
 20
-3112.119140625
 10
4068.193359375
 20
-3112.119140625
 10
4077.94921875
 20
-3112.119140625
 10
4087.705078125
 20
-3112.119140625
 10
4097.4609375
 20
-3112.119140625
 10
4107.216796875
 20
-3102.36328125
 10
4116.97265625
 20
-3112.119140625
 10
4126.728515625
 20
-3112.119140625
 10
4136.484375
 20
-3112.119140625
 10
4146.240234375
 20
-3112.119140625
 10
4155.99609375
 20
-3112.119140625
 10
4165.751953125
 20
-3112.119140625
 10
4175.5078125
 20
-3112.119140625
 10
4185.263671875
 20
-3112.119140625
 10
4195.01953125
 20
-3112.119140625
 10
4204.775390625
 20
-3112.119140625
 10
4214.53125
 20
-3112.119140625
 10
4224.287109375
 20
-3112.119140625
 10
4234.04296875
 20
-3112.119140625
 10
4243.798828125
 20
-3112.119140625
 10
4253.5546875
 20
-3112.119140625
 10
4263.310546875
 20
-3112.119140625
 10
4273.06640625
 20
-3112.119140625
 10
4282.822265625
 20
-3102.36328125
 10
4292.578125
 20
-3102.36328125
 10
4292.578125
 20
-3092.607421875
 10
4292.578125
 20
-3082.8515625
 10
4292.578125
 20
-3073.095703125
 10
4292.578125
 20
-3063.33984375
 10
4282.822265625
 20
-3053.583984375
 10
4292.578125
 20
-3043.828125
 10
4292.578125
 20
-3034.072265625
 10
4292.578125
 20
-3024.31640625
 10
4282.822265625
 20
-3014.560546875
 10
4282.822265625
 20
-3004.8046875
 10
4282.822265625
 20
-2995.048828125
 10
4282.822265625
 20
-2985.29296875
 10
4282.822265625
 20
-2975.537109375
 10
4282.822265625
 20
-2965.78125
 10
4292.578125
 20
-2956.025390625
 10
4292.578125
 20
-2946.26953125
 10
4282.822265625
 20
-2936.513671875
 10
4282.822265625
 20
-2926.7578125
 10
4282.822265625
 20
-2917.001953125
 10
4282.822265625
 20
-2907.24609375
 10
4282.822265625
 20
-2897.490234375
 10
4282.822265625
 20
-2887.734375
 10
4292.578125
 20
-2877.978515625
 10
4292.578125
 20
-2868.22265625
 10
4292.578125
 20
-2858.466796875
 10
4282.822265625
 20
-2848.7109375
 10
4282.822265625
 20
-2838.955078125
 10
4282.822265625
 20
-2829.19921875
 10
4282.822265625
 20
-2819.443359375
 10
4282.822265625
 20
-2809.6875
 10
4282.822265625
 20
-2799.931640625
 10
4282.822265625
 20
-2790.17578125
 10
4282.822265625
 20
-2780.419921875
 10
4282.822265625
 20
-2770.6640625
 10
4282.822265625
 20
-2760.908203125
 10
4282.822265625
 20
-2751.15234375
 10
4282.822265625
 20
-2741.396484375
 10
4282.822265625
 20
-2731.640625
 10
4282.822265625
 20
-2721.884765625
 10
4282.822265625
 20
-2712.12890625
 10
4282.822265625
 20
-2702.373046875
 10
4282.822265625
 20
-2692.6171875
 10
4282.822265625
 20
-2682.861328125
 10
4282.822265625
 20
-2673.10546875
 10
4282.822265625
 20
-2663.349609375
 10
4282.822265625
 20
-2653.59375
 10
4282.822265625
 20
-2643.837890625
 10
4282.822265625
 20
-2634.08203125
 10
4282.822265625
 20
-2624.326171875
 10
4282.822265625
 20
-2614.5703125
 10
4292.578125
 20
-2604.814453125
 10
4292.578125
 20
-2595.05859375
 10
4292.578125
 20
-2585.302734375
 10
4292.578125
 20
-2575.546875
 10
4292.578125
 20
-2565.791015625
 10
4292.578125
 20
-2556.03515625
 10
4292.578125
 20
-2546.279296875
 10
4292.578125
 20
-2536.5234375
 10
4282.822265625
 20
-2526.767578125
 10
4292.578125
 20
-2517.01171875
 10
4292.578125
 20
-2507.255859375
 10
4292.578125
 20
-2497.5
 10
4292.578125
 20
-2487.744140625
 10
4292.578125
 20
-2477.98828125
 10
4282.822265625
 20
-2468.232421875
 10
4292.578125
 20
-2458.4765625
 10
4282.822265625
 20
-2448.720703125
 10
4292.578125
 20
-2438.96484375
 10
4292.578125
 20
-2429.208984375
 10
4292.578125
 20
-2419.453125
 10
4292.578125
 20
-2409.697265625
 10
4292.578125
 20
-2399.94140625
 10
4282.822265625
 20
-2390.185546875
 10
4282.822265625
 20
-2380.4296875
 10
4282.822265625
 20
-2370.673828125
 10
4282.822265625
 20
-2360.91796875
 10
4282.822265625
 20
-2351.162109375
 10
4292.578125
 20
-2341.40625
 10
4292.578125
 20
-2331.650390625
 10
4292.578125
 20
-2321.89453125
 10
4292.578125
 20
-2312.138671875
 10
4292.578125
 20
-2302.3828125
 10
4292.578125
 20
-2292.626953125
 10
4292.578125
 20
-2282.87109375
 10
4292.578125
 20
-2273.115234375
 10
4282.822265625
 20
-2263.359375
 10
4292.578125
 20
-2253.603515625
 10
4292.578125
 20
-2243.84765625
 10
4292.578125
 20
-2234.091796875
 10
4292.578125
 20
-2224.3359375
 10
4292.578125
 20
-2214.580078125
 10
4292.578125
 20
-2204.82421875
 10
4292.578125
 20
-2195.068359375
 10
4292.578125
 20
-2185.3125
 10
4292.578125
 20
-2175.556640625
 10
4292.578125
 20
-2165.80078125
 10
4282.822265625
 20
-2156.044921875
 10
4282.822265625
 20
-2146.2890625
 10
4282.822265625
 20
-2136.533203125
 10
4282.822265625
 20
-2126.77734375
 10
4282.822265625
 20
-2117.021484375
 10
4282.822265625
 20
-2107.265625
 10
4282.822265625
 20
-2097.509765625
 10
4292.578125
 20
-2087.75390625
 10
4282.822265625
 20
-2077.998046875
 10
4282.822265625
 20
-2068.2421875
 10
4282.822265625
 20
-2058.486328125
 10
4282.822265625
 20
-2048.73046875
 10
4282.822265625
 20
-2038.974609375
 10
4282.822265625
 20
-2029.21875
 10
4282.822265625
 20
-2019.462890625
 10
4282.822265625
 20
-2009.70703125
 10
4282.822265625
 20
-1999.951171875
 10
4282.822265625
 20
-1990.1953125
 10
4282.822265625
 20
-1980.439453125
 10
4292.578125
 20
-1970.68359375
 10
4292.578125
 20
-1960.927734375
 10
4292.578125
 20
-1951.171875
 10
4292.578125
 20
-1941.416015625
 10
4292.578125
 20
-1931.66015625
 10
4292.578125
 20
-1921.904296875
 10
4292.578125
 20
-1912.1484375
 10
4292.578125
 20
-1902.392578125
 10
4292.578125
 20
-1892.63671875
 10
4302.333984375
 20
-1882.880859375
 10
4292.578125
 20
-1873.125
 10
4282.822265625
 20
-1882.880859375
 10
4273.06640625
 20
-1873.125
 10
4263.310546875
 20
-1873.125
 10
4253.5546875
 20
-1873.125
 10
4243.798828125
 20
-1873.125
 10
4234.04296875
 20
-1873.125
 10
4224.287109375
 20
-1873.125
 10
4214.53125
 20
-1873.125
 10
4204.775390625
 20
-1873.125
 10
4195.01953125
 20
-1873.125
 10
4185.263671875
 20
-1873.125
 10
4175.5078125
 20
-1873.125
 10
4165.751953125
 20
-1882.880859375
 10
4155.99609375
 20
-1882.880859375
 10
4146.240234375
 20
-1882.880859375
 10
4136.484375
 20
-1882.880859375
 10
4126.728515625
 20
-1882.880859375
 10
4116.97265625
 20
-1882.880859375
 10
4107.216796875
 20
-1882.880859375
 10
4097.4609375
 20
-1873.125
 10
4087.705078125
 20
-1882.880859375
 10
4077.94921875
 20
-1873.125
 10
4068.193359375
 20
-1882.880859375
 10
4058.4375
 20
-1873.125
 10
4048.681640625
 20
-1873.125
 10
4038.92578125
 20
-1882.880859375
 10
4029.169921875
 20
-1882.880859375
 10
4019.4140625
 20
-1882.880859375
 10
4009.658203125
 20
-1882.880859375
 10
3999.90234375
 20
-1882.880859375
 10
3990.146484375
 20
-1882.880859375
 10
3980.390625
 20
-1882.880859375
 10
3970.634765625
 20
-1882.880859375
 10
3960.87890625
 20
-1882.880859375
 10
3951.123046875
 20
-1882.880859375
 10
3941.3671875
 20
-1882.880859375
 10
3931.611328125
 20
-1882.880859375
 10
3921.85546875
 20
-1882.880859375
 10
3912.099609375
 20
-1882.880859375
 10
3902.34375
 20
-1882.880859375
 10
3892.587890625
 20
-1882.880859375
 10
3882.83203125
 20
-1882.880859375
 10
3873.076171875
 20
-1882.880859375
 10
3863.3203125
 20
-1873.125
 10
3853.564453125
 20
-1882.880859375
 10
3843.80859375
 20
-1882.880859375
 10
3834.052734375
 20
-1882.880859375
 10
3824.296875
 20
-1882.880859375
 10
3814.541015625
 20
-1882.880859375
 10
3804.78515625
 20
-1882.880859375
 10
3795.029296875
 20
-1882.880859375
 10
3785.2734375
 20
-1882.880859375
 10
3775.517578125
 20
-1882.880859375
 10
3765.76171875
 20
-1882.880859375
 10
3756.005859375
 20
-1882.880859375
 10
3746.25
 20
-1882.880859375
 10
3736.494140625
 20
-1882.880859375
 10
3726.73828125
 20
-1882.880859375
 10
3716.982421875
 20
-1882.880859375
 10
3707.2265625
 20
-1882.880859375
 10
3697.470703125
 20
-1882.880859375
 10
3687.71484375
 20
-1882.880859375
 10
3677.958984375
 20
-1882.880859375
 10
3668.203125
 20
-1882.880859375
 10
3658.447265625
 20
-1873.125
 10
3648.69140625
 20
-1882.880859375
 10
3638.935546875
 20
-1882.880859375
 10
3629.1796875
 20
-1882.880859375
 10
3619.423828125
 20
-1882.880859375
 10
3609.66796875
 20
-1882.880859375
 10
3599.912109375
 20
-1882.880859375
 10
3590.15625
 20
-1882.880859375
 10
3580.400390625
 20
-1882.880859375
 10
3570.64453125
 20
-1882.880859375
 10
3560.888671875
 20
-1882.880859375
 10
3551.1328125
 20
-1882.880859375
 10
3541.376953125
 20
-1882.880859375
 10
3531.62109375
 20
-1882.880859375
 10
3521.865234375
 20
-1882.880859375
 10
3512.109375
 20
-1882.880859375
 10
3502.353515625
 20
-1882.880859375
 10
3492.59765625
 20
-1882.880859375
 10
3482.841796875
 20
-1882.880859375
 10
3473.0859375
 20
-1882.880859375
 10
3463.330078125
 20
-1882.880859375
 10
3453.57421875
 20
-1882.880859375
 10
3443.818359375
 20
-1882.880859375
 10
3434.0625
 20
-1882.880859375
 10
3424.306640625
 20
-1882.880859375
 10
3414.55078125
 20
-1882.880859375
 10
3404.794921875
 20
-1882.880859375
 10
3395.0390625
 20
-1882.880859375
 10
3385.283203125
 20
-1882.880859375
 10
3375.52734375
 20
-1882.880859375
 10
3365.771484375
 20
-1882.880859375
 10
3356.015625
 20
-1882.880859375
 10
3346.259765625
 20
-1882.880859375
 10
3336.50390625
 20
-1882.880859375
 10
3326.748046875
 20
-1882.880859375
 10
3316.9921875
 20
-1882.880859375
 10
3307.236328125
 20
-1882.880859375
 10
3297.48046875
 20
-1882.880859375
 10
3287.724609375
 20
-1882.880859375
 10
3277.96875
 20
-1882.880859375
 10
3268.212890625
 20
-1882.880859375
 10
3258.45703125
 20
-1892.63671875
 10
3248.701171875
 20
-1882.880859375
 10
3238.9453125
 20
-1882.880859375
 10
3229.189453125
 20
-1882.880859375
 10
3219.43359375
 20
-1882.880859375
 10
3209.677734375
 20
-1882.880859375
 10
3199.921875
 20
-1882.880859375
 10
3190.166015625
 20
-1882.880859375
 10
3180.41015625
 20
-1882.880859375
 10
3170.654296875
 20
-1882.880859375
 10
3160.8984375
 20
-1882.880859375
 10
3151.142578125
 20
-1882.880859375
 10
3141.38671875
 20
-1882.880859375
 10
3131.630859375
 20
-1882.880859375
 10
3121.875
 20
-1882.880859375
 10
3112.119140625
 20
-1873.125
 10
3112.119140625
 20
-1863.369140625
 10
3102.36328125
 20
-1853.61328125
 10
3112.119140625
 20
-1843.857421875
 10
3102.36328125
 20
-1834.1015625
 10
3112.119140625
 20
-1824.345703125
 10
3102.36328125
 20
-1814.58984375
 10
3102.36328125
 20
-1804.833984375
 10
3102.36328125
 20
-1795.078125
 10
3102.36328125
 20
-1785.322265625
 10
3112.119140625
 20
-1775.56640625
 10
3112.119140625
 20
-1765.810546875
 10
3112.119140625
 20
-1756.0546875
 10
3112.119140625
 20
-1746.298828125
 10
3112.119140625
 20
-1736.54296875
 10
3112.119140625
 20
-1726.787109375
 10
3112.119140625
 20
-1717.03125
 10
3112.119140625
 20
-1707.275390625
 10
3112.119140625
 20
-1697.51953125
 10
3112.119140625
 20
-1687.763671875
 10
3112.119140625
 20
-1678.0078125
 10
3112.119140625
 20
-1668.251953125
 10
3112.119140625
 20
-1658.49609375
 10
3112.119140625
 20
-1648.740234375
 10
3112.119140625
 20
-1638.984375
 10
3112.119140625
 20
-1629.228515625
 10
3112.119140625
 20
-1619.47265625
 10
3112.119140625
 20
-1609.716796875
 10
3112.119140625
 20
-1599.9609375
 10
3112.119140625
 20
-1590.205078125
 10
3112.119140625
 20
-1580.44921875
 10
3112.119140625
 20
-1570.693359375
 10
3112.119140625
 20
-1560.9375
 10
3112.119140625
 20
-1551.181640625
 10
3112.119140625
 20
-1541.42578125
 10
3112.119140625
 20
-1531.669921875
 10
3112.119140625
 20
-1521.9140625
 10
3112.119140625
 20
-1512.158203125
 10
3112.119140625
 20
-1502.40234375
 10
3112.119140625
 20
-1492.646484375
 10
3112.119140625
 20
-1482.890625
 10
3112.119140625
 20
-1473.134765625
 10
3112.119140625
 20
-1463.37890625
 10
3112.119140625
 20
-1453.623046875
 10
3112.119140625
 20
-1443.8671875
 10
3112.119140625
 20
-1434.111328125
 10
3102.36328125
 20
-1424.35546875
 10
3112.119140625
 20
-1414.599609375
 10
3112.119140625
 20
-1404.84375
 10
3112.119140625
 20
-1395.087890625
 10
3112.119140625
 20
-1385.33203125
 10
3112.119140625
 20
-1375.576171875
 10
3112.119140625
 20
-1365.8203125
 10
3112.119140625
 20
-1356.064453125
 10
3112.119140625
 20
-1346.30859375
 10
3112.119140625
 20
-1336.552734375
 10
3112.119140625
 20
-1326.796875
 10
3112.119140625
 20
-1317.041015625
 10
3112.119140625
 20
-1307.28515625
 10
3112.119140625
 20
-1297.529296875
 10
3112.119140625
 20
-1287.7734375
 10
3112.119140625
 20
-1278.017578125
 10
3112.119140625
 20
-1268.26171875
 10
3112.119140625
 20
-1258.505859375
 10
3112.119140625
 20
-1248.75
 10
3112.119140625
 20
-1238.994140625
 10
3112.119140625
 20
-1229.23828125
 10
3112.119140625
 20
-1219.482421875
 10
3112.119140625
 20
-1209.7265625
 10
3112.119140625
 20
-1199.970703125
 10
3112.119140625
 20
-1190.21484375
 10
3112.119140625
 20
-1180.458984375
 10
3112.119140625
 20
-1170.703125
 10
3112.119140625
 20
-1160.947265625
 10
3112.119140625
 20
-1151.19140625
 10
3112.119140625
 20
-1141.435546875
 10
3112.119140625
 20
-1131.6796875
 10
3112.119140625
 20
-1121.923828125
 10
3112.119140625
 20
-1112.16796875
 10
3112.119140625
 20
-1102.412109375
 10
3112.119140625
 20
-1092.65625
 10
3112.119140625
 20
-1082.900390625
 10
3112.119140625
 20
-1073.14453125
 10
3112.119140625
 20
-1063.388671875
 10
3112.119140625
 20
-1053.6328125
 10
3112.119140625
 20
-1043.876953125
 10
3112.119140625
 20
-1034.12109375
 10
3112.119140625
 20
-1024.365234375
 10
3112.119140625
 20
-1014.609375
 10
3112.119140625
 20
-1004.853515625
 10
3112.119140625
 20
-995.09765625
 10
3112.119140625
 20
-985.341796875
 10
3112.119140625
 20
-975.5859375
 10
3112.119140625
 20
-965.830078125
 10
3112.119140625
 20
-956.07421875
 10
3112.119140625
 20
-946.318359375
 10
3112.119140625
 20
-936.5625
 10
3112.119140625
 20
-926.806640625
 10
3112.119140625
 20
-917.05078125
 10
3112.119140625
 20
-907.294921875
 10
3112.119140625
 20
-897.5390625
 10
3112.119140625
 20
-887.783203125
 10
3112.119140625
 20
-878.02734375
 10
3112.119140625
 20
-868.271484375
 10
3112.119140625
 20
-858.515625
 10
3112.119140625
 20
-848.759765625
 10
3112.119140625
 20
-839.00390625
 10
3112.119140625
 20
-829.248046875
 10
3112.119140625
 20
-819.4921875
 10
3112.119140625
 20
-809.736328125
 10
3112.119140625
 20
-799.98046875
 10
3112.119140625
 20
-790.224609375
 10
3112.119140625
 20
-780.46875
 10
3112.119140625
 20
-770.712890625
 10
3112.119140625
 20
-760.95703125
 10
3112.119140625
 20
-751.201171875
 10
3112.119140625
 20
-741.4453125
 10
3112.119140625
 20
-731.689453125
 10
3112.119140625
 20
-721.93359375
 10
3112.119140625
 20
-712.177734375
 10
3112.119140625
 20
-702.421875
  0
LWPOLYLINE
  5
33
330
17
100
AcDbEntity
  8
conductor
100
AcDbPolyline
 90
20
 70
1
 43
0.5
 10
2585.302734375
 20
-3853.564453125
 10
2595.05859375
 20
-3843.80859375
 10
2604.814453125
 20
-3853.564453125
 10
2614.5703125
 20
-3853.564453125
 10
2624.326171875
 20
-3863.3203125
 10
2634.08203125
 20
-3873.076171875
 10
2643.837890625
 20
-3882.83203125
 10
2643.837890625
 20
-3892.587890625
 10
2643.837890625
 20
-3902.34375
 10
2634.08203125
 20
-3912.099609375
 10
2624.326171875
 20
-3921.85546875
 10
2614.5703125
 20
-3921.85546875
 10
2604.814453125
 20
-3921.85546875
 10
2595.05859375
 20
-3921.85546875
 10
2585.302734375
 20
-3912.099609375
 10
2585.302734375
 20
-3902.34375
 10
2575.546875
 20
-3892.587890625
 10
2575.546875
 20
-3882.83203125
 10
2585.302734375
 20
-3873.076171875
 10
2585.302734375
 20
-3863.3203125
  0
LWPOLYLINE
  5
34
330
17
100
AcDbEntity
  8
conductor
100
AcDbPolyline
 90
6
 70
1
 43
0.5
 10
2897.490234375
 20
-2321.89453125
 10
2907.24609375
 20
-2312.138671875
 10
2917.001953125
 20
-2312.138671875
 10
2926.7578125
 20
-2321.89453125
 10
2917.001953125
 20
-2331.650390625
 10
2907.24609375
 20
-2331.650390625
  0
LWPOLYLINE
  5
35
330
17
100
AcDbEntity
  8
conductor
100
AcDbPolyline
 90
4
 70
1
 43
0.5
 10
2897.490234375
 20
-2243.84765625
 10
2907.24609375
 20
-2234.091796875
 10
2917.001953125
 20
-2243.84765625
 10
2907.24609375
 20
-2253.603515625
  0
LWPOLYLINE
  5
36
330
17
100
AcDbEntity
  8
conductor
100
AcDbPolyline
 90
4
 70
1
 43
0.5
 10
3287.724609375
 20
-2087.75390625
 10
3297.48046875
 20
-2077.998046875
 10
3307.236328125
 20
-2087.75390625
 10
3297.48046875
 20
-2097.509765625
  0
LWPOLYLINE
  5
37
330
17
100
AcDbEntity
  8
substrate
100
AcDbPolyline
 90
2044
 70
1
 43
0.5
 10
0.0
 20
-0.0
 10
0.0
 20
-9.755859375
 10
0.0
 20
-19.51171875
 10
0.0
 20
-29.267578125
 10
0.0
 20
-39.0234375
 10
0.0
 20
-48.779296875
 10
0.0
 20
-58.53515625
 10
0.0
 20
-68.291015625
 10
0.0
 20
-78.046875
 10
0.0
 20
-87.802734375
 10
0.0
 20
-97.55859375
 10
0.0
 20
-107.314453125
 10
0.0
 20
-117.0703125
 10
0.0
 20
-126.826171875
 10
0.0
 20
-136.58203125
 10
0.0
 20
-146.337890625
 10
0.0
 20
-156.09375
 10
0.0
 20
-165.849609375
 10
0.0
 20
-175.60546875
 10
0.0
 20
-185.361328125
 10
0.0
 20
-195.1171875
 10
0.0
 20
-204.873046875
 10
0.0
 20
-214.62890625
 10
0.0
 20
-224.384765625
 10
0.0
 20
-234.140625
 10
0.0
 20
-243.896484375
 10
0.0
 20
-253.65234375
 10
0.0
 20
-263.408203125
 10
0.0
 20
-273.1640625
 10
0.0
 20
-282.919921875
 10
0.0
 20
-292.67578125
 10
0.0
 20
-302.431640625
 10
0.0
 20
-312.1875
 10
0.0
 20
-321.943359375
 10
0.0
 20
-331.69921875
 10
0.0
 20
-341.455078125
 10
0.0
 20
-351.2109375
 10
0.0
 20
-360.966796875
 10
0.0
 20
-370.72265625
 10
0.0
 20
-380.478515625
 10
0.0
 20
-390.234375
 10
0.0
 20
-399.990234375
 10
0.0
 20
-409.74609375
 10
0.0
 20
-419.501953125
 10
0.0
 20
-429.2578125
 10
0.0
 20
-439.013671875
 10
0.0
 20
-448.76953125
 10
0.0
 20
-458.525390625
 10
0.0
 20
-468.28125
 10
0.0
 20
-478.037109375
 10
0.0
 20
-487.79296875
 10
0.0
 20
-497.548828125
 10
0.0
 20
-507.3046875
 10
0.0
 20
-517.060546875
 10
0.0
 20
-526.81640625
 10
0.0
 20
-536.572265625
 10
0.0
 20
-546.328125
 10
0.0
 20
-556.083984375
 10
0.0
 20
-565.83984375
 10
0.0
 20
-575.595703125
 10
0.0
 20
-585.3515625
 10
0.0
 20
-595.107421875
 10
0.0
 20
-604.86328125
 10
0.0
 20
-614.619140625
 10
0.0
 20
-624.375
 10
0.0
 20
-634.130859375
 10
0.0
 20
-643.88671875
 10
0.0
 20
-653.642578125
 10
0.0
 20
-663.3984375
 10
0.0
 20
-673.154296875
 10
0.0
 20
-682.91015625
 10
0.0
 20
-692.666015625
 10
0.0
 20
-702.421875
 10
0.0
 20
-712.177734375
 10
0.0
 20
-721.93359375
 10
0.0
 20
-731.689453125
 10
0.0
 20
-741.4453125
 10
0.0
 20
-751.201171875
 10
0.0
 20
-760.95703125
 10
0.0
 20
-770.712890625
 10
0.0
 20
-780.46875
 10
0.0
 20
-790.224609375
 10
0.0
 20
-799.98046875
 10
0.0
 20
-809.736328125
 10
0.0
 20
-819.4921875
 10
0.0
 20
-829.248046875
 10
0.0
 20
-839.00390625
 10
0.0
 20
-848.759765625
 10
0.0
 20
-858.515625
 10
0.0
 20
-868.271484375
 10
0.0
 20
-878.02734375
 10
0.0
 20
-887.783203125
 10
0.0
 20
-897.5390625
 10
0.0
 20
-907.294921875
 10
0.0
 20
-917.05078125
 10
0.0
 20
-926.806640625
 10
0.0
 20
-936.5625
 10
0.0
 20
-946.318359375
 10
0.0
 20
-956.07421875
 10
0.0
 20
-965.830078125
 10
0.0
 20
-975.5859375
 10
0.0
 20
-985.341796875
 10
0.0
 20
-995.09765625
 10
0.0
 20
-1004.853515625
 10
0.0
 20
-1014.609375
 10
0.0
 20
-1024.365234375
 10
0.0
 20
-1034.12109375
 10
0.0
 20
-1043.876953125
 10
0.0
 20
-1053.6328125
 10
0.0
 20
-1063.388671875
 10
0.0
 20
-1073.14453125
 10
0.0
 20
-1082.900390625
 10
0.0
 20
-1092.65625
 10
0.0
 20
-1102.412109375
 10
0.0
 20
-1112.16796875
 10
0.0
 20
-1121.923828125
 10
0.0
 20
-1131.6796875
 10
0.0
 20
-1141.435546875
 10
0.0
 20
-1151.19140625
 10
0.0
 20
-1160.947265625
 10
0.0
 20
-1170.703125
 10
0.0
 20
-1180.458984375
 10
0.0
 20
-1190.21484375
 10
0.0
 20
-1199.970703125
 10
0.0
 20
-1209.7265625
 10
0.0
 20
-1219.482421875
 10
0.0
 20
-1229.23828125
 10
0.0
 20
-1238.994140625
 10
0.0
 20
-1248.75
 10
0.0
 20
-1258.505859375
 10
0.0
 20
-1268.26171875
 10
0.0
 20
-1278.017578125
 10
0.0
 20
-1287.7734375
 10
0.0
 20
-1297.529296875
 10
0.0
 20
-1307.28515625
 10
0.0
 20
-1317.041015625
 10
0.0
 20
-1326.796875
 10
0.0
 20
-1336.552734375
 10
0.0
 20
-1346.30859375
 10
0.0
 20
-1356.064453125
 10
0.0
 20
-1365.8203125
 10
0.0
 20
-1375.576171875
 10
0.0
 20
-1385.33203125
 10
0.0
 20
-1395.087890625
 10
0.0
 20
-1404.84375
 10
0.0
 20
-1414.599609375
 10
0.0
 20
-1424.35546875
 10
0.0
 20
-1434.111328125
 10
0.0
 20
-1443.8671875
 10
0.0
 20
-1453.623046875
 10
0.0
 20
-1463.37890625
 10
0.0
 20
-1473.134765625
 10
0.0
 20
-1482.890625
 10
0.0
 20
-1492.646484375
 10
0.0
 20
-1502.40234375
 10
0.0
 20
-1512.158203125
 10
0.0
 20
-1521.9140625
 10
0.0
 20
-1531.669921875
 10
0.0
 20
-1541.42578125
 10
0.0
 20
-1551.181640625
 10
0.0
 20
-1560.9375
 10
0.0
 20
-1570.693359375
 10
0.0
 20
-1580.44921875
 10
0.0
 20
-1590.205078125
 10
0.0
 20
-1599.9609375
 10
0.0
 20
-1609.716796875
 10
0.0
 20
-1619.47265625
 10
0.0
 20
-1629.228515625
 10
0.0
 20
-1638.984375
 10
0.0
 20
-1648.740234375
 10
0.0
 20
-1658.49609375
 10
0.0
 20
-1668.251953125
 10
0.0
 20
-1678.0078125
 10
0.0
 20
-1687.763671875
 10
0.0
 20
-1697.51953125
 10
0.0
 20
-1707.275390625
 10
0.0
 20
-1717.03125
 10
0.0
 20
-1726.787109375
 10
0.0
 20
-1736.54296875
 10
0.0
 20
-1746.298828125
 10
0.0
 20
-1756.0546875
 10
0.0
 20
-1765.810546875
 10
0.0
 20
-1775.56640625
 10
0.0
 20
-1785.322265625
 10
0.0
 20
-1795.078125
 10
0.0
 20
-1804.833984375
 10
0.0
 20
-1814.58984375
 10
0.0
 20
-1824.345703125
 10
0.0
 20
-1834.1015625
 10
0.0
 20
-1843.857421875
 10
0.0
 20
-1853.61328125
 10
0.0
 20
-1863.369140625
 10
0.0
 20
-1873.125
 10
0.0
 20
-1882.880859375
 10
0.0
 20
-1892.63671875
 10
0.0
 20
-1902.392578125
 10
0.0
 20
-1912.1484375
 10
0.0
 20
-1921.904296875
 10
0.0
 20
-1931.66015625
 10
0.0
 20
-1941.416015625
 10
0.0
 20
-1951.171875
 10
0.0
 20
-1960.927734375
 10
0.0
 20
-1970.68359375
 10
0.0
 20
-1980.439453125
 10
0.0
 20
-1990.1953125
 10
0.0
 20
-1999.951171875
 10
0.0
 20
-2009.70703125
 10
0.0
 20
-2019.462890625
 10
0.0
 20
-2029.21875
 10
0.0
 20
-2038.974609375
 10
0.0
 20
-2048.73046875
 10
0.0
 20
-2058.486328125
 10
0.0
 20
-2068.2421875
 10
0.0
 20
-2077.998046875
 10
0.0
 20
-2087.75390625
 10
0.0
 20
-2097.509765625
 10
0.0
 20
-2107.265625
 10
0.0
 20
-2117.021484375
 10
0.0
 20
-2126.77734375
 10
0.0
 20
-2136.533203125
 10
0.0
 20
-2146.2890625
 10
0.0
 20
-2156.044921875
 10
0.0
 20
-2165.80078125
 10
0.0
 20
-2175.556640625
 10
0.0
 20
-2185.3125
 10
0.0
 20
-2195.068359375
 10
0.0
 20
-2204.82421875
 10
0.0
 20
-2214.580078125
 10
0.0
 20
-2224.3359375
 10
0.0
 20
-2234.091796875
 10
0.0
 20
-2243.84765625
 10
0.0
 20
-2253.603515625
 10
0.0
 20
-2263.359375
 10
0.0
 20
-2273.115234375
 10
0.0
 20
-2282.87109375
 10
0.0
 20
-2292.626953125
 10
0.0
 20
-2302.3828125
 10
0.0
 20
-2312.138671875
 10
0.0
 20
-2321.89453125
 10
0.0
 20
-2331.650390625
 10
0.0
 20
-2341.40625
 10
0.0
 20
-2351.162109375
 10
0.0
 20
-2360.91796875
 10
0.0
 20
-2370.673828125
 10
0.0
 20
-2380.4296875
 10
0.0
 20
-2390.185546875
 10
0.0
 20
-2399.94140625
 10
0.0
 20
-2409.697265625
 10
0.0
 20
-2419.453125
 10
0.0
 20
-2429.208984375
 10
0.0
 20
-2438.96484375
 10
0.0
 20
-2448.720703125
 10
0.0
 20
-2458.4765625
 10
0.0
 20
-2468.232421875
 10
0.0
 20
-2477.98828125
 10
0.0
 20
-2487.744140625
 10
0.0
 20
-2497.5
 10
0.0
 20
-2507.255859375
 10
0.0
 20
-2517.01171875
 10
0.0
 20
-2526.767578125
 10
0.0
 20
-2536.5234375
 10
0.0
 20
-2546.279296875
 10
0.0
 20
-2556.03515625
 10
0.0
 20
-2565.791015625
 10
0.0
 20
-2575.546875
 10
0.0
 20
-2585.302734375
 10
0.0
 20
-2595.05859375
 10
0.0
 20
-2604.814453125
 10
0.0
 20
-2614.5703125
 10
0.0
 20
-2624.326171875
 10
0.0
 20
-2634.08203125
 10
0.0
 20
-2643.837890625
 10
0.0
 20
-2653.59375
 10
0.0
 20
-2663.349609375
 10
0.0
 20
-2673.10546875
 10
0.0
 20
-2682.861328125
 10
0.0
 20
-2692.6171875
 10
0.0
 20
-2702.373046875
 10
0.0
 20
-2712.12890625
 10
0.0
 20
-2721.884765625
 10
0.0
 20
-2731.640625
 10
0.0
 20
-2741.396484375
 10
0.0
 20
-2751.15234375
 10
0.0
 20
-2760.908203125
 10
0.0
 20
-2770.6640625
 10
0.0
 20
-2780.419921875
 10
0.0
 20
-2790.17578125
 10
0.0
 20
-2799.931640625
 10
0.0
 20
-2809.6875
 10
0.0
 20
-2819.443359375
 10
0.0
 20
-2829.19921875
 10
0.0
 20
-2838.955078125
 10
0.0
 20
-2848.7109375
 10
0.0
 20
-2858.466796875
 10
0.0
 20
-2868.22265625
 10
0.0
 20
-2877.978515625
 10
0.0
 20
-2887.734375
 10
0.0
 20
-2897.490234375
 10
0.0
 20
-2907.24609375
 10
0.0
 20
-2917.001953125
 10
0.0
 20
-2926.7578125
 10
0.0
 20
-2936.513671875
 10
0.0
 20
-2946.26953125
 10
0.0
 20
-2956.025390625
 10
0.0
 20
-2965.78125
 10
0.0
 20
-2975.537109375
 10
0.0
 20
-2985.29296875
 10
0.0
 20
-2995.048828125
 10
0.0
 20
-3004.8046875
 10
0.0
 20
-3014.560546875
 10
0.0
 20
-3024.31640625
 10
0.0
 20
-3034.072265625
 10
0.0
 20
-3043.828125
 10
0.0
 20
-3053.583984375
 10
0.0
 20
-3063.33984375
 10
0.0
 20
-3073.095703125
 10
0.0
 20
-3082.8515625
 10
0.0
 20
-3092.607421875
 10
0.0
 20
-3102.36328125
 10
0.0
 20
-3112.119140625
 10
0.0
 20
-3121.875
 10
0.0
 20
-3131.630859375
 10
0.0
 20
-3141.38671875
 10
0.0
 20
-3151.142578125
 10
0.0
 20
-3160.8984375
 10
0.0
 20
-3170.654296875
 10
0.0
 20
-3180.41015625
 10
0.0
 20
-3190.166015625
 10
0.0
 20
-3199.921875
 10
0.0
 20
-3209.677734375
 10
0.0
 20
-3219.43359375
 10
0.0
 20
-3229.189453125
 10
0.0
 20
-3238.9453125
 10
0.0
 20
-3248.701171875
 10
0.0
 20
-3258.45703125
 10
0.0
 20
-3268.212890625
 10
0.0
 20
-3277.96875
 10
0.0
 20
-3287.724609375
 10
0.0
 20
-3297.48046875
 10
0.0
 20
-3307.236328125
 10
0.0
 20
-3316.9921875
 10
0.0
 20
-3326.748046875
 10
0.0
 20
-3336.50390625
 10
0.0
 20
-3346.259765625
 10
0.0
 20
-3356.015625
 10
0.0
 20
-3365.771484375
 10
0.0
 20
-3375.52734375
 10
0.0
 20
-3385.283203125
 10
0.0
 20
-3395.0390625
 10
0.0
 20
-3404.794921875
 10
0.0
 20
-3414.55078125
 10
0.0
 20
-3424.306640625
 10
0.0
 20
-3434.0625
 10
0.0
 20
-3443.818359375
 10
0.0
 20
-3453.57421875
 10
0.0
 20
-3463.330078125
 10
0.0
 20
-3473.0859375
 10
0.0
 20
-3482.841796875
 10
0.0
 20
-3492.59765625
 10
0.0
 20
-3502.353515625
 10
0.0
 20
-3512.109375
 10
0.0
 20
-3521.865234375
 10
0.0
 20
-3531.62109375
 10
0.0
 20
-3541.376953125
 10
0.0
 20
-3551.1328125
 10
0.0
 20
-3560.888671875
 10
0.0
 20
-3570.64453125
 10
0.0
 20
-3580.400390625
 10
0.0
 20
-3590.15625
 10
0.0
 20
-3599.912109375
 10
0.0
 20
-3609.66796875
 10
0.0
 20
-3619.423828125
 10
0.0
 20
-3629.1796875
 10
0.0
 20
-3638.935546875
 10
0.0
 20
-3648.69140625
 10
0.0
 20
-3658.447265625
 10
0.0
 20
-3668.203125
 10
0.0
 20
-3677.958984375
 10
0.0
 20
-3687.71484375
 10
0.0
 20
-3697.470703125
 10
0.0
 20
-3707.2265625
 10
0.0
 20
-3716.982421875
 10
0.0
 20
-3726.73828125
 10
0.0
 20
-3736.494140625
 10
0.0
 20
-3746.25
 10
0.0
 20
-3756.005859375
 10
0.0
 20
-3765.76171875
 10
0.0
 20
-3775.517578125
 10
0.0
 20
-3785.2734375
 10
0.0
 20
-3795.029296875
 10
0.0
 20
-3804.78515625
 10
0.0
 20
-3814.541015625
 10
0.0
 20
-3824.296875
 10
0.0
 20
-3834.052734375
 10
0.0
 20
-3843.80859375
 10
0.0
 20
-3853.564453125
 10
0.0
 20
-3863.3203125
 10
0.0
 20
-3873.076171875
 10
0.0
 20
-3882.83203125
 10
0.0
 20
-3892.587890625
 10
0.0
 20
-3902.34375
 10
0.0
 20
-3912.099609375
 10
0.0
 20
-3921.85546875
 10
0.0
 20
-3931.611328125
 10
0.0
 20
-3941.3671875
 10
0.0
 20
-3951.123046875
 10
0.0
 20
-3960.87890625
 10
0.0
 20
-3970.634765625
 10
0.0
 20
-3980.390625
 10
0.0
 20
-3990.146484375
 10
0.0
 20
-3999.90234375
 10
0.0
 20
-4009.658203125
 10
0.0
 20
-4019.4140625
 10
0.0
 20
-4029.169921875
 10
0.0
 20
-4038.92578125
 10
0.0
 20
-4048.681640625
 10
0.0
 20
-4058.4375
 10
0.0
 20
-4068.193359375
 10
0.0
 20
-4077.94921875
 10
0.0
 20
-4087.705078125
 10
0.0
 20
-4097.4609375
 10
0.0
 20
-4107.216796875
 10
0.0
 20
-4116.97265625
 10
0.0
 20
-4126.728515625
 10
0.0
 20
-4136.484375
 10
0.0
 20
-4146.240234375
 10
0.0
 20
-4155.99609375
 10
0.0
 20
-4165.751953125
 10
0.0
 20
-4175.5078125
 10
0.0
 20
-4185.263671875
 10
0.0
 20
-4195.01953125
 10
0.0
 20
-4204.775390625
 10
0.0
 20
-4214.53125
 10
0.0
 20
-4224.287109375
 10
0.0
 20
-4234.04296875
 10
0.0
 20
-4243.798828125
 10
0.0
 20
-4253.5546875
 10
0.0
 20
-4263.310546875
 10
0.0
 20
-4273.06640625
 10
0.0
 20
-4282.822265625
 10
0.0
 20
-4292.578125
 10
0.0
 20
-4302.333984375
 10
0.0
 20
-4312.08984375
 10
0.0
 20
-4321.845703125
 10
0.0
 20
-4331.6015625
 10
0.0
 20
-4341.357421875
 10
0.0
 20
-4351.11328125
 10
0.0
 20
-4360.869140625
 10
0.0
 20
-4370.625
 10
0.0
 20
-4380.380859375
 10
0.0
 20
-4390.13671875
 10
0.0
 20
-4399.892578125
 10
0.0
 20
-4409.6484375
 10
0.0
 20
-4419.404296875
 10
0.0
 20
-4429.16015625
 10
0.0
 20
-4438.916015625
 10
0.0
 20
-4448.671875
 10
0.0
 20
-4458.427734375
 10
0.0
 20
-4468.18359375
 10
0.0
 20
-4477.939453125
 10
0.0
 20
-4487.6953125
 10
0.0
 20
-4497.451171875
 10
0.0
 20
-4507.20703125
 10
0.0
 20
-4516.962890625
 10
0.0
 20
-4526.71875
 10
0.0
 20
-4536.474609375
 10
0.0
 20
-4546.23046875
 10
0.0
 20
-4555.986328125
 10
0.0
 20
-4565.7421875
 10
0.0
 20
-4575.498046875
 10
0.0
 20
-4585.25390625
 10
0.0
 20
-4595.009765625
 10
0.0
 20
-4604.765625
 10
0.0
 20
-4614.521484375
 10
0.0
 20
-4624.27734375
 10
0.0
 20
-4634.033203125
 10
0.0
 20
-4643.7890625
 10
0.0
 20
-4653.544921875
 10
0.0
 20
-4663.30078125
 10
0.0
 20
-4673.056640625
 10
0.0
 20
-4682.8125
 10
0.0
 20
-4692.568359375
 10
0.0
 20
-4702.32421875
 10
0.0
 20
-4712.080078125
 10
0.0
 20
-4721.8359375
 10
0.0
 20
-4731.591796875
 10
0.0
 20
-4741.34765625
 10
0.0
 20
-4751.103515625
 10
0.0
 20
-4760.859375
 10
0.0
 20
-4770.615234375
 10
0.0
 20
-4780.37109375
 10
0.0
 20
-4790.126953125
 10
0.0
 20
-4799.8828125
 10
0.0
 20
-4809.638671875
 10
0.0
 20
-4819.39453125
 10
0.0
 20
-4829.150390625
 10
0.0
 20
-4838.90625
 10
0.0
 20
-4848.662109375
 10
0.0
 20
-4858.41796875
 10
0.0
 20
-4868.173828125
 10
0.0
 20
-4877.9296875
 10
0.0
 20
-4887.685546875
 10
0.0
 20
-4897.44140625
 10
0.0
 20
-4907.197265625
 10
0.0
 20
-4916.953125
 10
0.0
 20
-4926.708984375
 10
0.0
 20
-4936.46484375
 10
0.0
 20
-4946.220703125
 10
0.0
 20
-4955.9765625
 10
0.0
 20
-4965.732421875
 10
0.0
 20
-4975.48828125
 10
0.0
 20
-4985.244140625
 10
9.755859375
 20
-4985.244140625
 10
19.51171875
 20
-4985.244140625
 10
29.267578125
 20
-4985.244140625
 10
39.0234375
 20
-4985.244140625
 10
48.779296875
 20
-4985.244140625
 10
58.53515625
 20
-4985.244140625
 10
68.291015625
 20
-4985.244140625
 10
78.046875
 20
-4985.244140625
 10
87.802734375
 20
-4985.244140625
 10
97.55859375
 20
-4985.244140625
 10
107.314453125
 20
-4985.244140625
 10
117.0703125
 20
-4985.244140625
 10
126.826171875
 20
-4985.244140625
 10
136.58203125
 20
-4985.244140625
 10
146.337890625
 20
-4985.244140625
 10
156.09375
 20
-4985.244140625
 10
165.849609375
 20
-4985.244140625
 10
175.60546875
 20
-4985.244140625
 10
185.361328125
 20
-4985.244140625
 10
195.1171875
 20
-4985.244140625
 10
204.873046875
 20
-4985.244140625
 10
214.62890625
 20
-4985.244140625
 10
224.384765625
 20
-4985.244140625
 10
234.140625
 20
-4985.244140625
 10
243.896484375
 20
-4985.244140625
 10
253.65234375
 20
-4985.244140625
 10
263.408203125
 20
-4985.244140625
 10
273.1640625
 20
-4985.244140625
 10
282.919921875
 20
-4985.244140625
 10
292.67578125
 20
-4985.244140625
 10
302.431640625
 20
-4985.244140625
 10
312.1875
 20
-4985.244140625
 10
321.943359375
 20
-4985.244140625
 10
331.69921875
 20
-4985.244140625
 10
341.455078125
 20
-4985.244140625
 10
351.2109375
 20
-4985.244140625
 10
360.966796875
 20
-4985.244140625
 10
370.72265625
 20
-4985.244140625
 10
380.478515625
 20
-4985.244140625
 10
390.234375
 20
-4985.244140625
 10
399.990234375
 20
-4985.244140625
 10
409.74609375
 20
-4985.244140625
 10
419.501953125
 20
-4985.244140625
 10
429.2578125
 20
-4985.244140625
 10
439.013671875
 20
-4985.244140625
 10
448.76953125
 20
-4985.244140625
 10
458.525390625
 20
-4985.244140625
 10
468.28125
 20
-4985.244140625
 10
478.037109375
 20
-4985.244140625
 10
487.79296875
 20
-4985.244140625
 10
497.548828125
 20
-4985.244140625
 10
507.3046875
 20
-4985.244140625
 10
517.060546875
 20
-4985.244140625
 10
526.81640625
 20
-4985.244140625
 10
536.572265625
 20
-4985.244140625
 10
546.328125
 20
-4985.244140625
 10
556.083984375
 20
-4985.244140625
 10
565.83984375
 20
-4985.244140625
 10
575.595703125
 20
-4985.244140625
 10
585.3515625
 20
-4985.244140625
 10
595.107421875
 20
-4985.244140625
 10
604.86328125
 20
-4985.244140625
 10
614.619140625
 20
-4985.244140625
 10
624.375
 20
-4985.244140625
 10
634.130859375
 20
-4985.244140625
 10
643.88671875
 20
-4985.244140625
 10
653.642578125
 20
-4985.244140625
 10
663.3984375
 20
-4985.244140625
 10
673.154296875
 20
-4985.244140625
 10
682.91015625
 20
-4985.244140625
 10
692.666015625
 20
-4985.244140625
 10
702.421875
 20
-4985.244140625
 10
712.177734375
 20
-4985.244140625
 10
721.93359375
 20
-4985.244140625
 10
731.689453125
 20
-4985.244140625
 10
741.4453125
 20
-4985.244140625
 10
751.201171875
 20
-4985.244140625
 10
760.95703125
 20
-4985.244140625
 10
770.712890625
 20
-4985.244140625
 10
780.46875
 20
-4985.244140625
 10
790.224609375
 20
-4985.244140625
 10
799.98046875
 20
-4985.244140625
 10
809.736328125
 20
-4985.244140625
 10
819.4921875
 20
-4985.244140625
 10
829.248046875
 20
-4985.244140625
 10
839.00390625
 20
-4985.244140625
 10
848.759765625
 20
-4985.244140625
 10
858.515625
 20
-4985.244140625
 10
868.271484375
 20
-4985.244140625
 10
878.02734375
 20
-4985.244140625
 10
887.783203125
 20
-4985.244140625
 10
897.5390625
 20
-4985.244140625
 10
907.294921875
 20
-4985.244140625
 10
917.05078125
 20
-4985.244140625
 10
926.806640625
 20
-4985.244140625
 10
936.5625
 20
-4985.244140625
 10
946.318359375
 20
-4985.244140625
 10
956.07421875
 20
-4985.244140625
 10
965.830078125
 20
-4985.244140625
 10
975.5859375
 20
-4985.244140625
 10
985.341796875
 20
-4985.244140625
 10
995.09765625
 20
-4985.244140625
 10
1004.853515625
 20
-4985.244140625
 10
1014.609375
 20
-4985.244140625
 10
1024.365234375
 20
-4985.244140625
 10
1034.12109375
 20
-4985.244140625
 10
1043.876953125
 20
-4985.244140625
 10
1053.6328125
 20
-4985.244140625
 10
1063.388671875
 20
-4985.244140625
 10
1073.14453125
 20
-4985.244140625
 10
1082.900390625
 20
-4985.244140625
 10
1092.65625
 20
-4985.244140625
 10
1102.412109375
 20
-4985.244140625
 10
1112.16796875
 20
-4985.244140625
 10
1121.923828125
 20
-4985.244140625
 10
1131.6796875
 20
-4985.244140625
 10
1141.435546875
 20
-4985.244140625
 10
1151.19140625
 20
-4985.244140625
 10
1160.947265625
 20
-4985.244140625
 10
1170.703125
 20
-4985.244140625
 10
1180.458984375
 20
-4985.244140625
 10
1190.21484375
 20
-4985.244140625
 10
1199.970703125
 20
-4985.244140625
 10
1209.7265625
 20
-4985.244140625
 10
1219.482421875
 20
-4985.244140625
 10
1229.23828125
 20
-4985.244140625
 10
1238.994140625
 20
-4985.244140625
 10
1248.75
 20
-4985.244140625
 10
1258.505859375
 20
-4985.244140625
 10
1268.26171875
 20
-4985.244140625
 10
1278.017578125
 20
-4985.244140625
 10
1287.7734375
 20
-4985.244140625
 10
1297.529296875
 20
-4985.244140625
 10
1307.28515625
 20
-4985.244140625
 10
1317.041015625
 20
-4985.244140625
 10
1326.796875
 20
-4985.244140625
 10
1336.552734375
 20
-4985.244140625
 10
1346.30859375
 20
-4985.244140625
 10
1356.064453125
 20
-4985.244140625
 10
1365.8203125
 20
-4985.244140625
 10
1375.576171875
 20
-4985.244140625
 10
1385.33203125
 20
-4985.244140625
 10
1395.087890625
 20
-4985.244140625
 10
1404.84375
 20
-4985.244140625
 10
1414.599609375
 20
-4985.244140625
 10
1424.35546875
 20
-4985.244140625
 10
1434.111328125
 20
-4985.244140625
 10
1443.8671875
 20
-4985.244140625
 10
1453.623046875
 20
-4985.244140625
 10
1463.37890625
 20
-4985.244140625
 10
1473.134765625
 20
-4985.244140625
 10
1482.890625
 20
-4985.244140625
 10
1492.646484375
 20
-4985.244140625
 10
1502.40234375
 20
-4985.244140625
 10
1512.158203125
 20
-4985.244140625
 10
1521.9140625
 20
-4985.244140625
 10
1531.669921875
 20
-4985.244140625
 10
1541.42578125
 20
-4985.244140625
 10
1551.181640625
 20
-4985.244140625
 10
1560.9375
 20
-4985.244140625
 10
1570.693359375
 20
-4985.244140625
 10
1580.44921875
 20
-4985.244140625
 10
1590.205078125
 20
-4985.244140625
 10
1599.9609375
 20
-4985.244140625
 10
1609.716796875
 20
-4985.244140625
 10
1619.47265625
 20
-4985.244140625
 10
1629.228515625
 20
-4985.244140625
 10
1638.984375
 20
-4985.244140625
 10
1648.740234375
 20
-4985.244140625
 10
1658.49609375
 20
-4985.244140625
 10
1668.251953125
 20
-4985.244140625
 10
1678.0078125
 20
-4985.244140625
 10
1687.763671875
 20
-4985.244140625
 10
1697.51953125
 20
-4985.244140625
 10
1707.275390625
 20
-4985.244140625
 10
1717.03125
 20
-4985.244140625
 10
1726.787109375
 20
-4985.244140625
 10
1736.54296875
 20
-4985.244140625
 10
1746.298828125
 20
-4985.244140625
 10
1756.0546875
 20
-4985.244140625
 10
1765.810546875
 20
-4985.244140625
 10
1775.56640625
 20
-4985.244140625
 10
1785.322265625
 20
-4985.244140625
 10
1795.078125
 20
-4985.244140625
 10
1804.833984375
 20
-4985.244140625
 10
1814.58984375
 20
-4985.244140625
 10
1824.345703125
 20
-4985.244140625
 10
1834.1015625
 20
-4985.244140625
 10
1843.857421875
 20
-4985.244140625
 10
1853.61328125
 20
-4985.244140625
 10
1863.369140625
 20
-4985.244140625
 10
1873.125
 20
-4985.244140625
 10
1882.880859375
 20
-4985.244140625
 10
1892.63671875
 20
-4985.244140625
 10
1902.392578125
 20
-4985.244140625
 10
1912.1484375
 20
-4985.244140625
 10
1921.904296875
 20
-4985.244140625
 10
1931.66015625
 20
-4985.244140625
 10
1941.416015625
 20
-4985.244140625
 10
1951.171875
 20
-4985.244140625
 10
1960.927734375
 20
-4985.244140625
 10
1970.68359375
 20
-4985.244140625
 10
1980.439453125
 20
-4985.244140625
 10
1990.1953125
 20
-4985.244140625
 10
1999.951171875
 20
-4985.244140625
 10
2009.70703125
 20
-4985.244140625
 10
2019.462890625
 20
-4985.244140625
 10
2029.21875
 20
-4985.244140625
 10
2038.974609375
 20
-4985.244140625
 10
2048.73046875
 20
-4985.244140625
 10
2058.486328125
 20
-4985.244140625
 10
2068.2421875
 20
-4985.244140625
 10
2077.998046875
 20
-4985.244140625
 10
2087.75390625
 20
-4985.244140625
 10
2097.509765625
 20
-4985.244140625
 10
2107.265625
 20
-4985.244140625
 10
2117.021484375
 20
-4985.244140625
 10
2126.77734375
 20
-4985.244140625
 10
2136.533203125
 20
-4985.244140625
 10
2146.2890625
 20
-4985.244140625
 10
2156.044921875
 20
-4985.244140625
 10
2165.80078125
 20
-4985.244140625
 10
2175.556640625
 20
-4985.244140625
 10
2185.3125
 20
-4985.244140625
 10
2195.068359375
 20
-4985.244140625
 10
2204.82421875
 20
-4985.244140625
 10
2214.580078125
 20
-4985.244140625
 10
2224.3359375
 20
-4985.244140625
 10
2234.091796875
 20
-4985.244140625
 10
2243.84765625
 20
-4985.244140625
 10
2253.603515625
 20
-4985.244140625
 10
2263.359375
 20
-4985.244140625
 10
2273.115234375
 20
-4985.244140625
 10
2282.87109375
 20
-4985.244140625
 10
2292.626953125
 20
-4985.244140625
 10
2302.3828125
 20
-4985.244140625
 10
2312.138671875
 20
-4985.244140625
 10
2321.89453125
 20
-4985.244140625
 10
2331.650390625
 20
-4985.244140625
 10
2341.40625
 20
-4985.244140625
 10
2351.162109375
 20
-4985.244140625
 10
2360.91796875
 20
-4985.244140625
 10
2370.673828125
 20
-4985.244140625
 10
2380.4296875
 20
-4985.244140625
 10
2390.185546875
 20
-4985.244140625
 10
2399.94140625
 20
-4985.244140625
 10
2409.697265625
 20
-4985.244140625
 10
2419.453125
 20
-4985.244140625
 10
2429.208984375
 20
-4985.244140625
 10
2438.96484375
 20
-4985.244140625
 10
2448.720703125
 20
-4985.244140625
 10
2458.4765625
 20
-4985.244140625
 10
2468.232421875
 20
-4985.244140625
 10
2477.98828125
 20
-4985.244140625
 10
2487.744140625
 20
-4985.244140625
 10
2497.5
 20
-4985.244140625
 10
2507.255859375
 20
-4985.244140625
 10
2517.01171875
 20
-4985.244140625
 10
2526.767578125
 20
-4985.244140625
 10
2536.5234375
 20
-4985.244140625
 10
2546.279296875
 20
-4985.244140625
 10
2556.03515625
 20
-4985.244140625
 10
2565.791015625
 20
-4985.244140625
 10
2575.546875
 20
-4985.244140625
 10
2585.302734375
 20
-4985.244140625
 10
2595.05859375
 20
-4985.244140625
 10
2604.814453125
 20
-4985.244140625
 10
2614.5703125
 20
-4985.244140625
 10
2624.326171875
 20
-4985.244140625
 10
2634.08203125
 20
-4985.244140625
 10
2643.837890625
 20
-4985.244140625
 10
2653.59375
 20
-4985.244140625
 10
2663.349609375
 20
-4985.244140625
 10
2673.10546875
 20
-4985.244140625
 10
2682.861328125
 20
-4985.244140625
 10
2692.6171875
 20
-4985.244140625
 10
2702.373046875
 20
-4985.244140625
 10
2712.12890625
 20
-4985.244140625
 10
2721.884765625
 20
-4985.244140625
 10
2731.640625
 20
-4985.244140625
 10
2741.396484375
 20
-4985.244140625
 10
2751.15234375
 20
-4985.244140625
 10
2760.908203125
 20
-4985.244140625
 10
2770.6640625
 20
-4985.244140625
 10
2780.419921875
 20
-4985.244140625
 10
2790.17578125
 20
-4985.244140625
 10
2799.931640625
 20
-4985.244140625
 10
2809.6875
 20
-4985.244140625
 10
2819.443359375
 20
-4985.244140625
 10
2829.19921875
 20
-4985.244140625
 10
2838.955078125
 20
-4985.244140625
 10
2848.7109375
 20
-4985.244140625
 10
2858.466796875
 20
-4985.244140625
 10
2868.22265625
 20
-4985.244140625
 10
2877.978515625
 20
-4985.244140625
 10
2887.734375
 20
-4985.244140625
 10
2897.490234375
 20
-4985.244140625
 10
2907.24609375
 20
-4985.244140625
 10
2917.001953125
 20
-4985.244140625
 10
2926.7578125
 20
-4985.244140625
 10
2936.513671875
 20
-4985.244140625
 10
2946.26953125
 20
-4985.244140625
 10
2956.025390625
 20
-4985.244140625
 10
2965.78125
 20
-4985.244140625
 10
2975.537109375
 20
-4985.244140625
 10
2985.29296875
 20
-4985.244140625
 10
2995.048828125
 20
-4985.244140625
 10
3004.8046875
 20
-4985.244140625
 10
3014.560546875
 20
-4985.244140625
 10
3024.31640625
 20
-4985.244140625
 10
3034.072265625
 20
-4985.244140625
 10
3043.828125
 20
-4985.244140625
 10
3053.583984375
 20
-4985.244140625
 10
3063.33984375
 20
-4985.244140625
 10
3073.095703125
 20
-4985.244140625
 10
3082.8515625
 20
-4985.244140625
 10
3092.607421875
 20
-4985.244140625
 10
3102.36328125
 20
-4985.244140625
 10
3112.119140625
 20
-4985.244140625
 10
3121.875
 20
-4985.244140625
 10
3131.630859375
 20
-4985.244140625
 10
3141.38671875
 20
-4985.244140625
 10
3151.142578125
 20
-4985.244140625
 10
3160.8984375
 20
-4985.244140625
 10
3170.654296875
 20
-4985.244140625
 10
3180.41015625
 20
-4985.244140625
 10
3190.166015625
 20
-4985.244140625
 10
3199.921875
 20
-4985.244140625
 10
3209.677734375
 20
-4985.244140625
 10
3219.43359375
 20
-4985.244140625
 10
3229.189453125
 20
-4985.244140625
 10
3238.9453125
 20
-4985.244140625
 10
3248.701171875
 20
-4985.244140625
 10
3258.45703125
 20
-4985.244140625
 10
3268.212890625
 20
-4985.244140625
 10
3277.96875
 20
-4985.244140625
 10
3287.724609375
 20
-4985.244140625
 10
3297.48046875
 20
-4985.244140625
 10
3307.236328125
 20
-4985.244140625
 10
3316.9921875
 20
-4985.244140625
 10
3326.748046875
 20
-4985.244140625
 10
3336.50390625
 20
-4985.244140625
 10
3346.259765625
 20
-4985.244140625
 10
3356.015625
 20
-4985.244140625
 10
3365.771484375
 20
-4985.244140625
 10
3375.52734375
 20
-4985.244140625
 10
3385.283203125
 20
-4985.244140625
 10
3395.0390625
 20
-4985.244140625
 10
3404.794921875
 20
-4985.244140625
 10
3414.55078125
 20
-4985.244140625
 10
3424.306640625
 20
-4985.244140625
 10
3434.0625
 20
-4985.244140625
 10
3443.818359375
 20
-4985.244140625
 10
3453.57421875
 20
-4985.244140625
 10
3463.330078125
 20
-4985.244140625
 10
3473.0859375
 20
-4985.244140625
 10
3482.841796875
 20
-4985.244140625
 10
3492.59765625
 20
-4985.244140625
 10
3502.353515625
 20
-4985.244140625
 10
3512.109375
 20
-4985.244140625
 10
3521.865234375
 20
-4985.244140625
 10
3531.62109375
 20
-4985.244140625
 10
3541.376953125
 20
-4985.244140625
 10
3551.1328125
 20
-4985.244140625
 10
3560.888671875
 20
-4985.244140625
 10
3570.64453125
 20
-4985.244140625
 10
3580.400390625
 20
-4985.244140625
 10
3590.15625
 20
-4985.244140625
 10
3599.912109375
 20
-4985.244140625
 10
3609.66796875
 20
-4985.244140625
 10
3619.423828125
 20
-4985.244140625
 10
3629.1796875
 20
-4985.244140625
 10
3638.935546875
 20
-4985.244140625
 10
3648.69140625
 20
-4985.244140625
 10
3658.447265625
 20
-4985.244140625
 10
3668.203125
 20
-4985.244140625
 10
3677.958984375
 20
-4985.244140625
 10
3687.71484375
 20
-4985.244140625
 10
3697.470703125
 20
-4985.244140625
 10
3707.2265625
 20
-4985.244140625
 10
3716.982421875
 20
-4985.244140625
 10
3726.73828125
 20
-4985.244140625
 10
3736.494140625
 20
-4985.244140625
 10
3746.25
 20
-4985.244140625
 10
3756.005859375
 20
-4985.244140625
 10
3765.76171875
 20
-4985.244140625
 10
3775.517578125
 20
-4985.244140625
 10
3785.2734375
 20
-4985.244140625
 10
3795.029296875
 20
-4985.244140625
 10
3804.78515625
 20
-4985.244140625
 10
3814.541015625
 20
-4985.244140625
 10
3824.296875
 20
-4985.244140625
 10
3834.052734375
 20
-4985.244140625
 10
3843.80859375
 20
-4985.244140625
 10
3853.564453125
 20
-4985.244140625
 10
3863.3203125
 20
-4985.244140625
 10
3873.076171875
 20
-4985.244140625
 10
3882.83203125
 20
-4985.244140625
 10
3892.587890625
 20
-4985.244140625
 10
3902.34375
 20
-4985.244140625
 10
3912.099609375
 20
-4985.244140625
 10
3921.85546875
 20
-4985.244140625
 10
3931.611328125
 20
-4985.244140625
 10
3941.3671875
 20
-4985.244140625
 10
3951.123046875
 20
-4985.244140625
 10
3960.87890625
 20
-4985.244140625
 10
3970.634765625
 20
-4985.244140625
 10
3980.390625
 20
-4985.244140625
 10
3990.146484375
 20
-4985.244140625
 10
3999.90234375
 20
-4985.244140625
 10
4009.658203125
 20
-4985.244140625
 10
4019.4140625
 20
-4985.244140625
 10
4029.169921875
 20
-4985.244140625
 10
4038.92578125
 20
-4985.244140625
 10
4048.681640625
 20
-4985.244140625
 10
4058.4375
 20
-4985.244140625
 10
4068.193359375
 20
-4985.244140625
 10
4077.94921875
 20
-4985.244140625
 10
4087.705078125
 20
-4985.244140625
 10
4097.4609375
 20
-4985.244140625
 10
4107.216796875
 20
-4985.244140625
 10
4116.97265625
 20
-4985.244140625
 10
4126.728515625
 20
-4985.244140625
 10
4136.484375
 20
-4985.244140625
 10
4146.240234375
 20
-4985.244140625
 10
4155.99609375
 20
-4985.244140625
 10
4165.751953125
 20
-4985.244140625
 10
4175.5078125
 20
-4985.244140625
 10
4185.263671875
 20
-4985.244140625
 10
4195.01953125
 20
-4985.244140625
 10
4204.775390625
 20
-4985.244140625
 10
4214.53125
 20
-4985.244140625
 10
4224.287109375
 20
-4985.244140625
 10
4234.04296875
 20
-4985.244140625
 10
4243.798828125
 20
-4985.244140625
 10
4253.5546875
 20
-4985.244140625
 10
4263.310546875
 20
-4985.244140625
 10
4273.06640625
 20
-4985.244140625
 10
4282.822265625
 20
-4985.244140625
 10
4292.578125
 20
-4985.244140625
 10
4302.333984375
 20
-4985.244140625
 10
4312.08984375
 20
-4985.244140625
 10
4321.845703125
 20
-4985.244140625
 10
4331.6015625
 20
-4985.244140625
 10
4341.357421875
 20
-4985.244140625
 10
4351.11328125
 20
-4985.244140625
 10
4360.869140625
 20
-4985.244140625
 10
4370.625
 20
-4985.244140625
 10
4380.380859375
 20
-4985.244140625
 10
4390.13671875
 20
-4985.244140625
 10
4399.892578125
 20
-4985.244140625
 10
4409.6484375
 20
-4985.244140625
 10
4419.404296875
 20
-4985.244140625
 10
4429.16015625
 20
-4985.244140625
 10
4438.916015625
 20
-4985.244140625
 10
4448.671875
 20
-4985.244140625
 10
4458.427734375
 20
-4985.244140625
 10
4468.18359375
 20
-4985.244140625
 10
4477.939453125
 20
-4985.244140625
 10
4487.6953125
 20
-4985.244140625
 10
4497.451171875
 20
-4985.244140625
 10
4507.20703125
 20
-4985.244140625
 10
4516.962890625
 20
-4985.244140625
 10
4526.71875
 20
-4985.244140625
 10
4536.474609375
 20
-4985.244140625
 10
4546.23046875
 20
-4985.244140625
 10
4555.986328125
 20
-4985.244140625
 10
4565.7421875
 20
-4985.244140625
 10
4575.498046875
 20
-4985.244140625
 10
4585.25390625
 20
-4985.244140625
 10
4595.009765625
 20
-4985.244140625
 10
4604.765625
 20
-4985.244140625
 10
4614.521484375
 20
-4985.244140625
 10
4624.27734375
 20
-4985.244140625
 10
4634.033203125
 20
-4985.244140625
 10
4643.7890625
 20
-4985.244140625
 10
4653.544921875
 20
-4985.244140625
 10
4663.30078125
 20
-4985.244140625
 10
4673.056640625
 20
-4985.244140625
 10
4682.8125
 20
-4985.244140625
 10
4692.568359375
 20
-4985.244140625
 10
4702.32421875
 20
-4985.244140625
 10
4712.080078125
 20
-4985.244140625
 10
4721.8359375
 20
-4985.244140625
 10
4731.591796875
 20
-4985.244140625
 10
4741.34765625
 20
-4985.244140625
 10
4751.103515625
 20
-4985.244140625
 10
4760.859375
 20
-4985.244140625
 10
4770.615234375
 20
-4985.244140625
 10
4780.37109375
 20
-4985.244140625
 10
4790.126953125
 20
-4985.244140625
 10
4799.8828125
 20
-4985.244140625
 10
4809.638671875
 20
-4985.244140625
 10
4819.39453125
 20
-4985.244140625
 10
4829.150390625
 20
-4985.244140625
 10
4838.90625
 20
-4985.244140625
 10
4848.662109375
 20
-4985.244140625
 10
4858.41796875
 20
-4985.244140625
 10
4868.173828125
 20
-4985.244140625
 10
4877.9296875
 20
-4985.244140625
 10
4887.685546875
 20
-4985.244140625
 10
4897.44140625
 20
-4985.244140625
 10
4907.197265625
 20
-4985.244140625
 10
4916.953125
 20
-4985.244140625
 10
4926.708984375
 20
-4985.244140625
 10
4936.46484375
 20
-4985.244140625
 10
4946.220703125
 20
-4985.244140625
 10
4955.9765625
 20
-4985.244140625
 10
4965.732421875
 20
-4985.244140625
 10
4975.48828125
 20
-4985.244140625
 10
4985.244140625
 20
-4985.244140625
 10
4985.244140625
 20
-4975.48828125
 10
4985.244140625
 20
-4965.732421875
 10
4985.244140625
 20
-4955.9765625
 10
4985.244140625
 20
-4946.220703125
 10
4985.244140625
 20
-4936.46484375
 10
4985.244140625
 20
-4926.708984375
 10
4985.244140625
 20
-4916.953125
 10
4985.244140625
 20
-4907.197265625
 10
4985.244140625
 20
-4897.44140625
 10
4985.244140625
 20
-4887.685546875
 10
4985.244140625
 20
-4877.9296875
 10
4985.244140625
 20
-4868.173828125
 10
4985.244140625
 20
-4858.41796875
 10
4985.244140625
 20
-4848.662109375
 10
4985.244140625
 20
-4838.90625
 10
4985.244140625
 20
-4829.150390625
 10
4985.244140625
 20
-4819.39453125
 10
4985.244140625
 20
-4809.638671875
 10
4985.244140625
 20
-4799.8828125
 10
4985.244140625
 20
-4790.126953125
 10
4985.244140625
 20
-4780.37109375
 10
4985.244140625
 20
-4770.615234375
 10
4985.244140625
 20
-4760.859375
 10
4985.244140625
 20
-4751.103515625
 10
4985.244140625
 20
-4741.34765625
 10
4985.244140625
 20
-4731.591796875
 10
4985.244140625
 20
-4721.8359375
 10
4985.244140625
 20
-4712.080078125
 10
4985.244140625
 20
-4702.32421875
 10
4985.244140625
 20
-4692.568359375
 10
4985.244140625
 20
-4682.8125
 10
4985.244140625
 20
-4673.056640625
 10
4985.244140625
 20
-4663.30078125
 10
4985.244140625
 20
-4653.544921875
 10
4985.244140625
 20
-4643.7890625
 10
4985.244140625
 20
-4634.033203125
 10
4985.244140625
 20
-4624.27734375
 10
4985.244140625
 20
-4614.521484375
 10
4985.244140625
 20
-4604.765625
 10
4985.244140625
 20
-4595.009765625
 10
4985.244140625
 20
-4585.25390625
 10
4985.244140625
 20
-4575.498046875
 10
4985.244140625
 20
-4565.7421875
 10
4985.244140625
 20
-4555.986328125
 10
4985.244140625
 20
-4546.23046875
 10
4985.244140625
 20
-4536.474609375
 10
4985.244140625
 20
-4526.71875
 10
4985.244140625
 20
-4516.962890625
 10
4985.244140625
 20
-4507.20703125
 10
4985.244140625
 20
-4497.451171875
 10
4985.244140625
 20
-4487.6953125
 10
4985.244140625
 20
-4477.939453125
 10
4985.244140625
 20
-4468.18359375
 10
4985.244140625
 20
-4458.427734375
 10
4985.244140625
 20
-4448.671875
 10
4985.244140625
 20
-4438.916015625
 10
4985.244140625
 20
-4429.16015625
 10
4985.244140625
 20
-4419.404296875
 10
4985.244140625
 20
-4409.6484375
 10
4985.244140625
 20
-4399.892578125
 10
4985.244140625
 20
-4390.13671875
 10
4985.244140625
 20
-4380.380859375
 10
4985.244140625
 20
-4370.625
 10
4985.244140625
 20
-4360.869140625
 10
4985.244140625
 20
-4351.11328125
 10
4985.244140625
 20
-4341.357421875
 10
4985.244140625
 20
-4331.6015625
 10
4985.244140625
 20
-4321.845703125
 10
4985.244140625
 20
-4312.08984375
 10
4985.244140625
 20
-4302.333984375
 10
4985.244140625
 20
-4292.578125
 10
4985.244140625
 20
-4282.822265625
 10
4985.244140625
 20
-4273.06640625
 10
4985.244140625
 20
-4263.310546875
 10
4985.244140625
 20
-4253.5546875
 10
4985.244140625
 20
-4243.798828125
 10
4985.244140625
 20
-4234.04296875
 10
4985.244140625
 20
-4224.287109375
 10
4985.244140625
 20
-4214.53125
 10
4985.244140625
 20
-4204.775390625
 10
4985.244140625
 20
-4195.01953125
 10
4985.244140625
 20
-4185.263671875
 10
4985.244140625
 20
-4175.5078125
 10
4985.244140625
 20
-4165.751953125
 10
4985.244140625
 20
-4155.99609375
 10
4985.244140625
 20
-4146.240234375
 10
4985.244140625
 20
-4136.484375
 10
4985.244140625
 20
-4126.728515625
 10
4985.244140625
 20
-4116.97265625
 10
4985.244140625
 20
-4107.216796875
 10
4985.244140625
 20
-4097.4609375
 10
4985.244140625
 20
-4087.705078125
 10
4985.244140625
 20
-4077.94921875
 10
4985.244140625
 20
-4068.193359375
 10
4985.244140625
 20
-4058.4375
 10
4985.244140625
 20
-4048.681640625
 10
4985.244140625
 20
-4038.92578125
 10
4985.244140625
 20
-4029.169921875
 10
4985.244140625
 20
-4019.4140625
 10
4985.244140625
 20
-4009.658203125
 10
4985.244140625
 20
-3999.90234375
 10
4985.244140625
 20
-3990.146484375
 10
4985.244140625
 20
-3980.390625
 10
4985.244140625
 20
-3970.634765625
 10
4985.244140625
 20
-3960.87890625
 10
4985.244140625
 20
-3951.123046875
 10
4985.244140625
 20
-3941.3671875
 10
4985.244140625
 20
-3931.611328125
 10
4985.244140625
 20
-3921.85546875
 10
4985.244140625
 20
-3912.099609375
 10
4985.244140625
 20
-3902.34375
 10
4985.244140625
 20
-3892.587890625
 10
4985.244140625
 20
-3882.83203125
 10
4985.244140625
 20
-3873.076171875
 10
4985.244140625
 20
-3863.3203125
 10
4985.244140625
 20
-3853.564453125
 10
4985.244140625
 20
-3843.80859375
 10
4985.244140625
 20
-3834.052734375
 10
4985.244140625
 20
-3824.296875
 10
4985.244140625
 20
-3814.541015625
 10
4985.244140625
 20
-3804.78515625
 10
4985.244140625
 20
-3795.029296875
 10
4985.244140625
 20
-3785.2734375
 10
4985.244140625
 20
-3775.517578125
 10
4985.244140625
 20
-3765.76171875
 10
4985.244140625
 20
-3756.005859375
 10
4985.244140625
 20
-3746.25
 10
4985.244140625
 20
-3736.494140625
 10
4985.244140625
 20
-3726.73828125
 10
4985.244140625
 20
-3716.982421875
 10
4985.244140625
 20
-3707.2265625
 10
4985.244140625
 20
-3697.470703125
 10
4985.244140625
 20
-3687.71484375
 10
4985.244140625
 20
-3677.958984375
 10
4985.244140625
 20
-3668.203125
 10
4985.244140625
 20
-3658.447265625
 10
4985.244140625
 20
-3648.69140625
 10
4985.244140625
 20
-3638.935546875
 10
4985.244140625
 20
-3629.1796875
 10
4985.244140625
 20
-3619.423828125
 10
4985.244140625
 20
-3609.66796875
 10
4985.244140625
 20
-3599.912109375
 10
4985.244140625
 20
-3590.15625
 10
4985.244140625
 20
-3580.400390625
 10
4985.244140625
 20
-3570.64453125
 10
4985.244140625
 20
-3560.888671875
 10
4985.244140625
 20
-3551.1328125
 10
4985.244140625
 20
-3541.376953125
 10
4985.244140625
 20
-3531.62109375
 10
4985.244140625
 20
-3521.865234375
 10
4985.244140625
 20
-3512.109375
 10
4985.244140625
 20
-3502.353515625
 10
4985.244140625
 20
-3492.59765625
 10
4985.244140625
 20
-3482.841796875
 10
4985.244140625
 20
-3473.0859375
 10
4985.244140625
 20
-3463.330078125
 10
4985.244140625
 20
-3453.57421875
 10
4985.244140625
 20
-3443.818359375
 10
4985.244140625
 20
-3434.0625
 10
4985.244140625
 20
-3424.306640625
 10
4985.244140625
 20
-3414.55078125
 10
4985.244140625
 20
-3404.794921875
 10
4985.244140625
 20
-3395.0390625
 10
4985.244140625
 20
-3385.283203125
 10
4985.244140625
 20
-3375.52734375
 10
4985.244140625
 20
-3365.771484375
 10
4985.244140625
 20
-3356.015625
 10
4985.244140625
 20
-3346.259765625
 10
4985.244140625
 20
-3336.50390625
 10
4985.244140625
 20
-3326.748046875
 10
4985.244140625
 20
-3316.9921875
 10
4985.244140625
 20
-3307.236328125
 10
4985.244140625
 20
-3297.48046875
 10
4985.244140625
 20
-3287.724609375
 10
4985.244140625
 20
-3277.96875
 10
4985.244140625
 20
-3268.212890625
 10
4985.244140625
 20
-3258.45703125
 10
4985.244140625
 20
-3248.701171875
 10
4985.244140625
 20
-3238.9453125
 10
4985.244140625
 20
-3229.189453125
 10
4985.244140625
 20
-3219.43359375
 10
4985.244140625
 20
-3209.677734375
 10
4985.244140625
 20
-3199.921875
 10
4985.244140625
 20
-3190.166015625
 10
4985.244140625
 20
-3180.41015625
 10
4985.244140625
 20
-3170.654296875
 10
4985.244140625
 20
-3160.8984375
 10
4985.244140625
 20
-3151.142578125
 10
4985.244140625
 20
-3141.38671875
 10
4985.244140625
 20
-3131.630859375
 10
4985.244140625
 20
-3121.875
 10
4985.244140625
 20
-3112.119140625
 10
4985.244140625
 20
-3102.36328125
 10
4985.244140625
 20
-3092.607421875
 10
4985.244140625
 20
-3082.8515625
 10
4985.244140625
 20
-3073.095703125
 10
4985.244140625
 20
-3063.33984375
 10
4985.244140625
 20
-3053.583984375
 10
4985.244140625
 20
-3043.828125
 10
4985.244140625
 20
-3034.072265625
 10
4985.244140625
 20
-3024.31640625
 10
4985.244140625
 20
-3014.560546875
 10
4985.244140625
 20
-3004.8046875
 10
4985.244140625
 20
-2995.048828125
 10
4985.244140625
 20
-2985.29296875
 10
4985.244140625
 20
-2975.537109375
 10
4985.244140625
 20
-2965.78125
 10
4985.244140625
 20
-2956.025390625
 10
4985.244140625
 20
-2946.26953125
 10
4985.244140625
 20
-2936.513671875
 10
4985.244140625
 20
-2926.7578125
 10
4985.244140625
 20
-2917.001953125
 10
4985.244140625
 20
-2907.24609375
 10
4985.244140625
 20
-2897.490234375
 10
4985.244140625
 20
-2887.734375
 10
4985.244140625
 20
-2877.978515625
 10
4985.244140625
 20
-2868.22265625
 10
4985.244140625
 20
-2858.466796875
 10
4985.244140625
 20
-2848.7109375
 10
4985.244140625
 20
-2838.955078125
 10
4985.244140625
 20
-2829.19921875
 10
4985.244140625
 20
-2819.443359375
 10
4985.244140625
 20
-2809.6875
 10
4985.244140625
 20
-2799.931640625
 10
4985.244140625
 20
-2790.17578125
 10
4985.244140625
 20
-2780.419921875
 10
4985.244140625
 20
-2770.6640625
 10
4985.244140625
 20
-2760.908203125
 10
4985.244140625
 20
-2751.15234375
 10
4985.244140625
 20
-2741.396484375
 10
4985.244140625
 20
-2731.640625
 10
4985.244140625
 20
-2721.884765625
 10
4985.244140625
 20
-2712.12890625
 10
4985.244140625
 20
-2702.373046875
 10
4985.244140625
 20
-2692.6171875
 10
4985.244140625
 20
-2682.861328125
 10
4985.244140625
 20
-2673.10546875
 10
4985.244140625
 20
-2663.349609375
 10
4985.244140625
 20
-2653.59375
 10
4985.244140625
 20
-2643.837890625
 10
4985.244140625
 20
-2634.08203125
 10
4985.244140625
 20
-2624.326171875
 10
4985.244140625
 20
-2614.5703125
 10
4985.244140625
 20
-2604.814453125
 10
4985.244140625
 20
-2595.05859375
 10
4985.244140625
 20
-2585.302734375
 10
4985.244140625
 20
-2575.546875
 10
4985.244140625
 20
-2565.791015625
 10
4985.244140625
 20
-2556.03515625
 10
4985.244140625
 20
-2546.279296875
 10
4985.244140625
 20
-2536.5234375
 10
4985.244140625
 20
-2526.767578125
 10
4985.244140625
 20
-2517.01171875
 10
4985.244140625
 20
-2507.255859375
 10
4985.244140625
 20
-2497.5
 10
4985.244140625
 20
-2487.744140625
 10
4985.244140625
 20
-2477.98828125
 10
4985.244140625
 20
-2468.232421875
 10
4985.244140625
 20
-2458.4765625
 10
4985.244140625
 20
-2448.720703125
 10
4985.244140625
 20
-2438.96484375
 10
4985.244140625
 20
-2429.208984375
 10
4985.244140625
 20
-2419.453125
 10
4985.244140625
 20
-2409.697265625
 10
4985.244140625
 20
-2399.94140625
 10
4985.244140625
 20
-2390.185546875
 10
4985.244140625
 20
-2380.4296875
 10
4985.244140625
 20
-2370.673828125
 10
4985.244140625
 20
-2360.91796875
 10
4985.244140625
 20
-2351.162109375
 10
4985.244140625
 20
-2341.40625
 10
4985.244140625
 20
-2331.650390625
 10
4985.244140625
 20
-2321.89453125
 10
4985.244140625
 20
-2312.138671875
 10
4985.244140625
 20
-2302.3828125
 10
4985.244140625
 20
-2292.626953125
 10
4985.244140625
 20
-2282.87109375
 10
4985.244140625
 20
-2273.115234375
 10
4985.244140625
 20
-2263.359375
 10
4985.244140625
 20
-2253.603515625
 10
4985.244140625
 20
-2243.84765625
 10
4985.244140625
 20
-2234.091796875
 10
4985.244140625
 20
-2224.3359375
 10
4985.244140625
 20
-2214.580078125
 10
4985.244140625
 20
-2204.82421875
 10
4985.244140625
 20
-2195.068359375
 10
4985.244140625
 20
-2185.3125
 10
4985.244140625
 20
-2175.556640625
 10
4985.244140625
 20
-2165.80078125
 10
4985.244140625
 20
-2156.044921875
 10
4985.244140625
 20
-2146.2890625
 10
4985.244140625
 20
-2136.533203125
 10
4985.244140625
 20
-2126.77734375
 10
4985.244140625
 20
-2117.021484375
 10
4985.244140625
 20
-2107.265625
 10
4985.244140625
 20
-2097.509765625
 10
4985.244140625
 20
-2087.75390625
 10
4985.244140625
 20
-2077.998046875
 10
4985.244140625
 20
-2068.2421875
 10
4985.244140625
 20
-2058.486328125
 10
4985.244140625
 20
-2048.73046875
 10
4985.244140625
 20
-2038.974609375
 10
4985.244140625
 20
-2029.21875
 10
4985.244140625
 20
-2019.462890625
 10
4985.244140625
 20
-2009.70703125
 10
4985.244140625
 20
-1999.951171875
 10
4985.244140625
 20
-1990.1953125
 10
4985.244140625
 20
-1980.439453125
 10
4985.244140625
 20
-1970.68359375
 10
4985.244140625
 20
-1960.927734375
 10
4985.244140625
 20
-1951.171875
 10
4985.244140625
 20
-1941.416015625
 10
4985.244140625
 20
-1931.66015625
 10
4985.244140625
 20
-1921.904296875
 10
4985.244140625
 20
-1912.1484375
 10
4985.244140625
 20
-1902.392578125
 10
4985.244140625
 20
-1892.63671875
 10
4985.244140625
 20
-1882.880859375
 10
4985.244140625
 20
-1873.125
 10
4985.244140625
 20
-1863.369140625
 10
4985.244140625
 20
-1853.61328125
 10
4985.244140625
 20
-1843.857421875
 10
4985.244140625
 20
-1834.1015625
 10
4985.244140625
 20
-1824.345703125
 10
4985.244140625
 20
-1814.58984375
 10
4985.244140625
 20
-1804.833984375
 10
4985.244140625
 20
-1795.078125
 10
4985.244140625
 20
-1785.322265625
 10
4985.244140625
 20
-1775.56640625
 10
4985.244140625
 20
-1765.810546875
 10
4985.244140625
 20
-1756.0546875
 10
4985.244140625
 20
-1746.298828125
 10
4985.244140625
 20
-1736.54296875
 10
4985.244140625
 20
-1726.787109375
 10
4985.244140625
 20
-1717.03125
 10
4985.244140625
 20
-1707.275390625
 10
4985.244140625
 20
-1697.51953125
 10
4985.244140625
 20
-1687.763671875
 10
4985.244140625
 20
-1678.0078125
 10
4985.244140625
 20
-1668.251953125
 10
4985.244140625
 20
-1658.49609375
 10
4985.244140625
 20
-1648.740234375
 10
4985.244140625
 20
-1638.984375
 10
4985.244140625
 20
-1629.228515625
 10
4985.244140625
 20
-1619.47265625
 10
4985.244140625
 20
-1609.716796875
 10
4985.244140625
 20
-1599.9609375
 10
4985.244140625
 20
-1590.205078125
 10
4985.244140625
 20
-1580.44921875
 10
4985.244140625
 20
-1570.693359375
 10
4985.244140625
 20
-1560.9375
 10
4985.244140625
 20
-1551.181640625
 10
4985.244140625
 20
-1541.42578125
 10
4985.244140625
 20
-1531.669921875
 10
4985.244140625
 20
-1521.9140625
 10
4985.244140625
 20
-1512.158203125
 10
4985.244140625
 20
-1502.40234375
 10
4985.244140625
 20
-1492.646484375
 10
4985.244140625
 20
-1482.890625
 10
4985.244140625
 20
-1473.134765625
 10
4985.244140625
 20
-1463.37890625
 10
4985.244140625
 20
-1453.623046875
 10
4985.244140625
 20
-1443.8671875
 10
4985.244140625
 20
-1434.111328125
 10
4985.244140625
 20
-1424.35546875
 10
4985.244140625
 20
-1414.599609375
 10
4985.244140625
 20
-1404.84375
 10
4985.244140625
 20
-1395.087890625
 10
4985.244140625
 20
-1385.33203125
 10
4985.244140625
 20
-1375.576171875
 10
4985.244140625
 20
-1365.8203125
 10
4985.244140625
 20
-1356.064453125
 10
4985.244140625
 20
-1346.30859375
 10
4985.244140625
 20
-1336.552734375
 10
4985.244140625
 20
-1326.796875
 10
4985.244140625
 20
-1317.041015625
 10
4985.244140625
 20
-1307.28515625
 10
4985.244140625
 20
-1297.529296875
 10
4985.244140625
 20
-1287.7734375
 10
4985.244140625
 20
-1278.017578125
 10
4985.244140625
 20
-1268.26171875
 10
4985.244140625
 20
-1258.505859375
 10
4985.244140625
 20
-1248.75
 10
4985.244140625
 20
-1238.994140625
 10
4985.244140625
 20
-1229.23828125
 10
4985.244140625
 20
-1219.482421875
 10
4985.244140625
 20
-1209.7265625
 10
4985.244140625
 20
-1199.970703125
 10
4985.244140625
 20
-1190.21484375
 10
4985.244140625
 20
-1180.458984375
 10
4985.244140625
 20
-1170.703125
 10
4985.244140625
 20
-1160.947265625
 10
4985.244140625
 20
-1151.19140625
 10
4985.244140625
 20
-1141.435546875
 10
4985.244140625
 20
-1131.6796875
 10
4985.244140625
 20
-1121.923828125
 10
4985.244140625
 20
-1112.16796875
 10
4985.244140625
 20
-1102.412109375
 10
4985.244140625
 20
-1092.65625
 10
4985.244140625
 20
-1082.900390625
 10
4985.244140625
 20
-1073.14453125
 10
4985.244140625
 20
-1063.388671875
 10
4985.244140625
 20
-1053.6328125
 10
4985.244140625
 20
-1043.876953125
 10
4985.244140625
 20
-1034.12109375
 10
4985.244140625
 20
-1024.365234375
 10
4985.244140625
 20
-1014.609375
 10
4985.244140625
 20
-1004.853515625
 10
4985.244140625
 20
-995.09765625
 10
4985.244140625
 20
-985.341796875
 10
4985.244140625
 20
-975.5859375
 10
4985.244140625
 20
-965.830078125
 10
4985.244140625
 20
-956.07421875
 10
4985.244140625
 20
-946.318359375
 10
4985.244140625
 20
-936.5625
 10
4985.244140625
 20
-926.806640625
 10
4985.244140625
 20
-917.05078125
 10
4985.244140625
 20
-907.294921875
 10
4985.244140625
 20
-897.5390625
 10
4985.244140625
 20
-887.783203125
 10
4985.244140625
 20
-878.02734375
 10
4985.244140625
 20
-868.271484375
 10
4985.244140625
 20
-858.515625
 10
4985.244140625
 20
-848.759765625
 10
4985.244140625
 20
-839.00390625
 10
4985.244140625
 20
-829.248046875
 10
4985.244140625
 20
-819.4921875
 10
4985.244140625
 20
-809.736328125
 10
4985.244140625
 20
-799.98046875
 10
4985.244140625
 20
-790.224609375
 10
4985.244140625
 20
-780.46875
 10
4985.244140625
 20
-770.712890625
 10
4985.244140625
 20
-760.95703125
 10
4985.244140625
 20
-751.201171875
 10
4985.244140625
 20
-741.4453125
 10
4985.244140625
 20
-731.689453125
 10
4985.244140625
 20
-721.93359375
 10
4985.244140625
 20
-712.177734375
 10
4985.244140625
 20
-702.421875
 10
4985.244140625
 20
-692.666015625
 10
4985.244140625
 20
-682.91015625
 10
4985.244140625
 20
-673.154296875
 10
4985.244140625
 20
-663.3984375
 10
4985.244140625
 20
-653.642578125
 10
4985.244140625
 20
-643.88671875
 10
4985.244140625
 20
-634.130859375
 10
4985.244140625
 20
-624.375
 10
4985.244140625
 20
-614.619140625
 10
4985.244140625
 20
-604.86328125
 10
4985.244140625
 20
-595.107421875
 10
4985.244140625
 20
-585.3515625
 10
4985.244140625
 20
-575.595703125
 10
4985.244140625
 20
-565.83984375
 10
4985.244140625
 20
-556.083984375
 10
4985.244140625
 20
-546.328125
 10
4985.244140625
 20
-536.572265625
 10
4985.244140625
 20
-526.81640625
 10
4985.244140625
 20
-517.060546875
 10
4985.244140625
 20
-507.3046875
 10
4985.244140625
 20
-497.548828125
 10
4985.244140625
 20
-487.79296875
 10
4985.244140625
 20
-478.037109375
 10
4985.244140625
 20
-468.28125
 10
4985.244140625
 20
-458.525390625
 10
4985.244140625
 20
-448.76953125
 10
4985.244140625
 20
-439.013671875
 10
4985.244140625
 20
-429.2578125
 10
4985.244140625
 20
-419.501953125
 10
4985.244140625
 20
-409.74609375
 10
4985.244140625
 20
-399.990234375
 10
4985.244140625
 20
-390.234375
 10
4985.244140625
 20
-380.478515625
 10
4985.244140625
 20
-370.72265625
 10
4985.244140625
 20
-360.966796875
 10
4985.244140625
 20
-351.2109375
 10
4985.244140625
 20
-341.455078125
 10
4985.244140625
 20
-331.69921875
 10
4985.244140625
 20
-321.943359375
 10
4985.244140625
 20
-312.1875
 10
4985.244140625
 20
-302.431640625
 10
4985.244140625
 20
-292.67578125
 10
4985.244140625
 20
-282.919921875
 10
4985.244140625
 20
-273.1640625
 10
4985.244140625
 20
-263.408203125
 10
4985.244140625
 20
-253.65234375
 10
4985.244140625
 20
-243.896484375
 10
4985.244140625
 20
-234.140625
 10
4985.244140625
 20
-224.384765625
 10
4985.244140625
 20
-214.62890625
 10
4985.244140625
 20
-204.873046875
 10
4985.244140625
 20
-195.1171875
 10
4985.244140625
 20
-185.361328125
 10
4985.244140625
 20
-175.60546875
 10
4985.244140625
 20
-165.849609375
 10
4985.244140625
 20
-156.09375
 10
4985.244140625
 20
-146.337890625
 10
4985.244140625
 20
-136.58203125
 10
4985.244140625
 20
-126.826171875
 10
4985.244140625
 20
-117.0703125
 10
4985.244140625
 20
-107.314453125
 10
4985.244140625
 20
-97.55859375
 10
4985.244140625
 20
-87.802734375
 10
4985.244140625
 20
-78.046875
 10
4985.244140625
 20
-68.291015625
 10
4985.244140625
 20
-58.53515625
 10
4985.244140625
 20
-48.779296875
 10
4985.244140625
 20
-39.0234375
 10
4985.244140625
 20
-29.267578125
 10
4985.244140625
 20
-19.51171875
 10
4985.244140625
 20
-9.755859375
 10
4985.244140625
 20
-0.0
 10
4975.48828125
 20
-0.0
 10
4965.732421875
 20
-0.0
 10
4955.9765625
 20
-0.0
 10
4946.220703125
 20
-0.0
 10
4936.46484375
 20
-0.0
 10
4926.708984375
 20
-0.0
 10
4916.953125
 20
-0.0
 10
4907.197265625
 20
-0.0
 10
4897.44140625
 20
-0.0
 10
4887.685546875
 20
-0.0
 10
4877.9296875
 20
-0.0
 10
4868.173828125
 20
-0.0
 10
4858.41796875
 20
-0.0
 10
4848.662109375
 20
-0.0
 10
4838.90625
 20
-0.0
 10
4829.150390625
 20
-0.0
 10
4819.39453125
 20
-0.0
 10
4809.638671875
 20
-0.0
 10
4799.8828125
 20
-0.0
 10
4790.126953125
 20
-0.0
 10
4780.37109375
 20
-0.0
 10
4770.615234375
 20
-0.0
 10
4760.859375
 20
-0.0
 10
4751.103515625
 20
-0.0
 10
4741.34765625
 20
-0.0
 10
4731.591796875
 20
-0.0
 10
4721.8359375
 20
-0.0
 10
4712.080078125
 20
-0.0
 10
4702.32421875
 20
-0.0
 10
4692.568359375
 20
-0.0
 10
4682.8125
 20
-0.0
 10
4673.056640625
 20
-0.0
 10
4663.30078125
 20
-0.0
 10
4653.544921875
 20
-0.0
 10
4643.7890625
 20
-0.0
 10
4634.033203125
 20
-0.0
 10
4624.27734375
 20
-0.0
 10
4614.521484375
 20
-0.0
 10
4604.765625
 20
-0.0
 10
4595.009765625
 20
-0.0
 10
4585.25390625
 20
-0.0
 10
4575.498046875
 20
-0.0
 10
4565.7421875
 20
-0.0
 10
4555.986328125
 20
-0.0
 10
4546.23046875
 20
-0.0
 10
4536.474609375
 20
-0.0
 10
4526.71875
 20
-0.0
 10
4516.962890625
 20
-0.0
 10
4507.20703125
 20
-0.0
 10
4497.451171875
 20
-0.0
 10
4487.6953125
 20
-0.0
 10
4477.939453125
 20
-0.0
 10
4468.18359375
 20
-0.0
 10
4458.427734375
 20
-0.0
 10
4448.671875
 20
-0.0
 10
4438.916015625
 20
-0.0
 10
4429.16015625
 20
-0.0
 10
4419.404296875
 20
-0.0
 10
4409.6484375
 20
-0.0
 10
4399.892578125
 20
-0.0
 10
4390.13671875
 20
-0.0
 10
4380.380859375
 20
-0.0
 10
4370.625
 20
-0.0
 10
4360.869140625
 20
-0.0
 10
4351.11328125
 20
-0.0
 10
4341.357421875
 20
-0.0
 10
4331.6015625
 20
-0.0
 10
4321.845703125
 20
-0.0
 10
4312.08984375
 20
-0.0
 10
4302.333984375
 20
-0.0
 10
4292.578125
 20
-0.0
 10
4282.822265625
 20
-0.0
 10
4273.06640625
 20
-0.0
 10
4263.310546875
 20
-0.0
 10
4253.5546875
 20
-0.0
 10
4243.798828125
 20
-0.0
 10
4234.04296875
 20
-0.0
 10
4224.287109375
 20
-0.0
 10
4214.53125
 20
-0.0
 10
4204.775390625
 20
-0.0
 10
4195.01953125
 20
-0.0
 10
4185.263671875
 20
-0.0
 10
4175.5078125
 20
-0.0
 10
4165.751953125
 20
-0.0
 10
4155.99609375
 20
-0.0
 10
4146.240234375
 20
-0.0
 10
4136.484375
 20
-0.0
 10
4126.728515625
 20
-0.0
 10
4116.97265625
 20
-0.0
 10
4107.216796875
 20
-0.0
 10
4097.4609375
 20
-0.0
 10
4087.705078125
 20
-0.0
 10
4077.94921875
 20
-0.0
 10
4068.193359375
 20
-0.0
 10
4058.4375
 20
-0.0
 10
4048.681640625
 20
-0.0
 10
4038.92578125
 20
-0.0
 10
4029.169921875
 20
-0.0
 10
4019.4140625
 20
-0.0
 10
4009.658203125
 20
-0.0
 10
3999.90234375
 20
-0.0
 10
3990.146484375
 20
-0.0
 10
3980.390625
 20
-0.0
 10
3970.634765625
 20
-0.0
 10
3960.87890625
 20
-0.0
 10
3951.123046875
 20
-0.0
 10
3941.3671875
 20
-0.0
 10
3931.611328125
 20
-0.0
 10
3921.85546875
 20
-0.0
 10
3912.099609375
 20
-0.0
 10
3902.34375
 20
-0.0
 10
3892.587890625
 20
-0.0
 10
3882.83203125
 20
-0.0
 10
3873.076171875
 20
-0.0
 10
3863.3203125
 20
-0.0
 10
3853.564453125
 20
-0.0
 10
3843.80859375
 20
-0.0
 10
3834.052734375
 20
-0.0
 10
3824.296875
 20
-0.0
 10
3814.541015625
 20
-0.0
 10
3804.78515625
 20
-0.0
 10
3795.029296875
 20
-0.0
 10
3785.2734375
 20
-0.0
 10
3775.517578125
 20
-0.0
 10
3765.76171875
 20
-0.0
 10
3756.005859375
 20
-0.0
 10
3746.25
 20
-0.0
 10
3736.494140625
 20
-0.0
 10
3726.73828125
 20
-0.0
 10
3716.982421875
 20
-0.0
 10
3707.2265625
 20
-0.0
 10
3697.470703125
 20
-0.0
 10
3687.71484375
 20
-0.0
 10
3677.958984375
 20
-0.0
 10
3668.203125
 20
-0.0
 10
3658.447265625
 20
-0.0
 10
3648.69140625
 20
-0.0
 10
3638.935546875
 20
-0.0
 10
3629.1796875
 20
-0.0
 10
3619.423828125
 20
-0.0
 10
3609.66796875
 20
-0.0
 10
3599.912109375
 20
-0.0
 10
3590.15625
 20
-0.0
 10
3580.400390625
 20
-0.0
 10
3570.64453125
 20
-0.0
 10
3560.888671875
 20
-0.0
 10
3551.1328125
 20
-0.0
 10
3541.376953125
 20
-0.0
 10
3531.62109375
 20
-0.0
 10
3521.865234375
 20
-0.0
 10
3512.109375
 20
-0.0
 10
3502.353515625
 20
-0.0
 10
3492.59765625
 20
-0.0
 10
3482.841796875
 20
-0.0
 10
3473.0859375
 20
-0.0
 10
3463.330078125
 20
-0.0
 10
3453.57421875
 20
-0.0
 10
3443.818359375
 20
-0.0
 10
3434.0625
 20
-0.0
 10
3424.306640625
 20
-0.0
 10
3414.55078125
 20
-0.0
 10
3404.794921875
 20
-0.0
 10
3395.0390625
 20
-0.0
 10
3385.283203125
 20
-0.0
 10
3375.52734375
 20
-0.0
 10
3365.771484375
 20
-0.0
 10
3356.015625
 20
-0.0
 10
3346.259765625
 20
-0.0
 10
3336.50390625
 20
-0.0
 10
3326.748046875
 20
-0.0
 10
3316.9921875
 20
-0.0
 10
3307.236328125
 20
-0.0
 10
3297.48046875
 20
-0.0
 10
3287.724609375
 20
-0.0
 10
3277.96875
 20
-0.0
 10
3268.212890625
 20
-0.0
 10
3258.45703125
 20
-0.0
 10
3248.701171875
 20
-0.0
 10
3238.9453125
 20
-0.0
 10
3229.189453125
 20
-0.0
 10
3219.43359375
 20
-0.0
 10
3209.677734375
 20
-0.0
 10
3199.921875
 20
-0.0
 10
3190.166015625
 20
-0.0
 10
3180.41015625
 20
-0.0
 10
3170.654296875
 20
-0.0
 10
3160.8984375
 20
-0.0
 10
3151.142578125
 20
-0.0
 10
3141.38671875
 20
-0.0
 10
3131.630859375
 20
-0.0
 10
3121.875
 20
-0.0
 10
3112.119140625
 20
-0.0
 10
3102.36328125
 20
-0.0
 10
3092.607421875
 20
-0.0
 10
3082.8515625
 20
-0.0
 10
3073.095703125
 20
-0.0
 10
3063.33984375
 20
-0.0
 10
3053.583984375
 20
-0.0
 10
3043.828125
 20
-0.0
 10
3034.072265625
 20
-0.0
 10
3024.31640625
 20
-0.0
 10
3014.560546875
 20
-0.0
 10
3004.8046875
 20
-0.0
 10
2995.048828125
 20
-0.0
 10
2985.29296875
 20
-0.0
 10
2975.537109375
 20
-0.0
 10
2965.78125
 20
-0.0
 10
2956.025390625
 20
-0.0
 10
2946.26953125
 20
-0.0
 10
2936.513671875
 20
-0.0
 10
2926.7578125
 20
-0.0
 10
2917.001953125
 20
-0.0
 10
2907.24609375
 20
-0.0
 10
2897.490234375
 20
-0.0
 10
2887.734375
 20
-0.0
 10
2877.978515625
 20
-0.0
 10
2868.22265625
 20
-0.0
 10
2858.466796875
 20
-0.0
 10
2848.7109375
 20
-0.0
 10
2838.955078125
 20
-0.0
 10
2829.19921875
 20
-0.0
 10
2819.443359375
 20
-0.0
 10
2809.6875
 20
-0.0
 10
2799.931640625
 20
-0.0
 10
2790.17578125
 20
-0.0
 10
2780.419921875
 20
-0.0
 10
2770.6640625
 20
-0.0
 10
2760.908203125
 20
-0.0
 10
2751.15234375
 20
-0.0
 10
2741.396484375
 20
-0.0
 10
2731.640625
 20
-0.0
 10
2721.884765625
 20
-0.0
 10
2712.12890625
 20
-0.0
 10
2702.373046875
 20
-0.0
 10
2692.6171875
 20
-0.0
 10
2682.861328125
 20
-0.0
 10
2673.10546875
 20
-0.0
 10
2663.349609375
 20
-0.0
 10
2653.59375
 20
-0.0
 10
2643.837890625
 20
-0.0
 10
2634.08203125
 20
-0.0
 10
2624.326171875
 20
-0.0
 10
2614.5703125
 20
-0.0
 10
2604.814453125
 20
-0.0
 10
2595.05859375
 20
-0.0
 10
2585.302734375
 20
-0.0
 10
2575.546875
 20
-0.0
 10
2565.791015625
 20
-0.0
 10
2556.03515625
 20
-0.0
 10
2546.279296875
 20
-0.0
 10
2536.5234375
 20
-0.0
 10
2526.767578125
 20
-0.0
 10
2517.01171875
 20
-0.0
 10
2507.255859375
 20
-0.0
 10
2497.5
 20
-0.0
 10
2487.744140625
 20
-0.0
 10
2477.98828125
 20
-0.0
 10
2468.232421875
 20
-0.0
 10
2458.4765625
 20
-0.0
 10
2448.720703125
 20
-0.0
 10
2438.96484375
 20
-0.0
 10
2429.208984375
 20
-0.0
 10
2419.453125
 20
-0.0
 10
2409.697265625
 20
-0.0
 10
2399.94140625
 20
-0.0
 10
2390.185546875
 20
-0.0
 10
2380.4296875
 20
-0.0
 10
2370.673828125
 20
-0.0
 10
2360.91796875
 20
-0.0
 10
2351.162109375
 20
-0.0
 10
2341.40625
 20
-0.0
 10
2331.650390625
 20
-0.0
 10
2321.89453125
 20
-0.0
 10
2312.138671875
 20
-0.0
 10
2302.3828125
 20
-0.0
 10
2292.626953125
 20
-0.0
 10
2282.87109375
 20
-0.0
 10
2273.115234375
 20
-0.0
 10
2263.359375
 20
-0.0
 10
2253.603515625
 20
-0.0
 10
2243.84765625
 20
-0.0
 10
2234.091796875
 20
-0.0
 10
2224.3359375
 20
-0.0
 10
2214.580078125
 20
-0.0
 10
2204.82421875
 20
-0.0
 10
2195.068359375
 20
-0.0
 10
2185.3125
 20
-0.0
 10
2175.556640625
 20
-0.0
 10
2165.80078125
 20
-0.0
 10
2156.044921875
 20
-0.0
 10
2146.2890625
 20
-0.0
 10
2136.533203125
 20
-0.0
 10
2126.77734375
 20
-0.0
 10
2117.021484375
 20
-0.0
 10
2107.265625
 20
-0.0
 10
2097.509765625
 20
-0.0
 10
2087.75390625
 20
-0.0
 10
2077.998046875
 20
-0.0
 10
2068.2421875
 20
-0.0
 10
2058.486328125
 20
-0.0
 10
2048.73046875
 20
-0.0
 10
2038.974609375
 20
-0.0
 10
2029.21875
 20
-0.0
 10
2019.462890625
 20
-0.0
 10
2009.70703125
 20
-0.0
 10
1999.951171875
 20
-0.0
 10
1990.1953125
 20
-0.0
 10
1980.439453125
 20
-0.0
 10
1970.68359375
 20
-0.0
 10
1960.927734375
 20
-0.0
 10
1951.171875
 20
-0.0
 10
1941.416015625
 20
-0.0
 10
1931.66015625
 20
-0.0
 10
1921.904296875
 20
-0.0
 10
1912.1484375
 20
-0.0
 10
1902.392578125
 20
-0.0
 10
1892.63671875
 20
-0.0
 10
1882.880859375
 20
-0.0
 10
1873.125
 20
-0.0
 10
1863.369140625
 20
-0.0
 10
1853.61328125
 20
-0.0
 10
1843.857421875
 20
-0.0
 10
1834.1015625
 20
-0.0
 10
1824.345703125
 20
-0.0
 10
1814.58984375
 20
-0.0
 10
1804.833984375
 20
-0.0
 10
1795.078125
 20
-0.0
 10
1785.322265625
 20
-0.0
 10
1775.56640625
 20
-0.0
 10
1765.810546875
 20
-0.0
 10
1756.0546875
 20
-0.0
 10
1746.298828125
 20
-0.0
 10
1736.54296875
 20
-0.0
 10
1726.787109375
 20
-0.0
 10
1717.03125
 20
-0.0
 10
1707.275390625
 20
-0.0
 10
1697.51953125
 20
-0.0
 10
1687.763671875
 20
-0.0
 10
1678.0078125
 20
-0.0
 10
1668.251953125
 20
-0.0
 10
1658.49609375
 20
-0.0
 10
1648.740234375
 20
-0.0
 10
1638.984375
 20
-0.0
 10
1629.228515625
 20
-0.0
 10
1619.47265625
 20
-0.0
 10
1609.716796875
 20
-0.0
 10
1599.9609375
 20
-0.0
 10
1590.205078125
 20
-0.0
 10
1580.44921875
 20
-0.0
 10
1570.693359375
 20
-0.0
 10
1560.9375
 20
-0.0
 10
1551.181640625
 20
-0.0
 10
1541.42578125
 20
-0.0
 10
1531.669921875
 20
-0.0
 10
1521.9140625
 20
-0.0
 10
1512.158203125
 20
-0.0
 10
1502.40234375
 20
-0.0
 10
1492.646484375
 20
-0.0
 10
1482.890625
 20
-0.0
 10
1473.134765625
 20
-0.0
 10
1463.37890625
 20
-0.0
 10
1453.623046875
 20
-0.0
 10
1443.8671875
 20
-0.0
 10
1434.111328125
 20
-0.0
 10
1424.35546875
 20
-0.0
 10
1414.599609375
 20
-0.0
 10
1404.84375
 20
-0.0
 10
1395.087890625
 20
-0.0
 10
1385.33203125
 20
-0.0
 10
1375.576171875
 20
-0.0
 10
1365.8203125
 20
-0.0
 10
1356.064453125
 20
-0.0
 10
1346.30859375
 20
-0.0
 10
1336.552734375
 20
-0.0
 10
1326.796875
 20
-0.0
 10
1317.041015625
 20
-0.0
 10
1307.28515625
 20
-0.0
 10
1297.529296875
 20
-0.0
 10
1287.7734375
 20
-0.0
 10
1278.017578125
 20
-0.0
 10
1268.26171875
 20
-0.0
 10
1258.505859375
 20
-0.0
 10
1248.75
 20
-0.0
 10
1238.994140625
 20
-0.0
 10
1229.23828125
 20
-0.0
 10
1219.482421875
 20
-0.0
 10
1209.7265625
 20
-0.0
 10
1199.970703125
 20
-0.0
 10
1190.21484375
 20
-0.0
 10
1180.458984375
 20
-0.0
 10
1170.703125
 20
-0.0
 10
1160.947265625
 20
-0.0
 10
1151.19140625
 20
-0.0
 10
1141.435546875
 20
-0.0
 10
1131.6796875
 20
-0.0
 10
1121.923828125
 20
-0.0
 10
1112.16796875
 20
-0.0
 10
1102.412109375
 20
-0.0
 10
1092.65625
 20
-0.0
 10
1082.900390625
 20
-0.0
 10
1073.14453125
 20
-0.0
 10
1063.388671875
 20
-0.0
 10
1053.6328125
 20
-0.0
 10
1043.876953125
 20
-0.0
 10
1034.12109375
 20
-0.0
 10
1024.365234375
 20
-0.0
 10
1014.609375
 20
-0.0
 10
1004.853515625
 20
-0.0
 10
995.09765625
 20
-0.0
 10
985.341796875
 20
-0.0
 10
975.5859375
 20
-0.0
 10
965.830078125
 20
-0.0
 10
956.07421875
 20
-0.0
 10
946.318359375
 20
-0.0
 10
936.5625
 20
-0.0
 10
926.806640625
 20
-0.0
 10
917.05078125
 20
-0.0
 10
907.294921875
 20
-0.0
 10
897.5390625
 20
-0.0
 10
887.783203125
 20
-0.0
 10
878.02734375
 20
-0.0
 10
868.271484375
 20
-0.0
 10
858.515625
 20
-0.0
 10
848.759765625
 20
-0.0
 10
839.00390625
 20
-0.0
 10
829.248046875
 20
-0.0
 10
819.4921875
 20
-0.0
 10
809.736328125
 20
-0.0
 10
799.98046875
 20
-0.0
 10
790.224609375
 20
-0.0
 10
780.46875
 20
-0.0
 10
770.712890625
 20
-0.0
 10
760.95703125
 20
-0.0
 10
751.201171875
 20
-0.0
 10
741.4453125
 20
-0.0
 10
731.689453125
 20
-0.0
 10
721.93359375
 20
-0.0
 10
712.177734375
 20
-0.0
 10
702.421875
 20
-0.0
 10
692.666015625
 20
-0.0
 10
682.91015625
 20
-0.0
 10
673.154296875
 20
-0.0
 10
663.3984375
 20
-0.0
 10
653.642578125
 20
-0.0
 10
643.88671875
 20
-0.0
 10
634.130859375
 20
-0.0
 10
624.375
 20
-0.0
 10
614.619140625
 20
-0.0
 10
604.86328125
 20
-0.0
 10
595.107421875
 20
-0.0
 10
585.3515625
 20
-0.0
 10
575.595703125
 20
-0.0
 10
565.83984375
 20
-0.0
 10
556.083984375
 20
-0.0
 10
546.328125
 20
-0.0
 10
536.572265625
 20
-0.0
 10
526.81640625
 20
-0.0
 10
517.060546875
 20
-0.0
 10
507.3046875
 20
-0.0
 10
497.548828125
 20
-0.0
 10
487.79296875
 20
-0.0
 10
478.037109375
 20
-0.0
 10
468.28125
 20
-0.0
 10
458.525390625
 20
-0.0
 10
448.76953125
 20
-0.0
 10
439.013671875
 20
-0.0
 10
429.2578125
 20
-0.0
 10
419.501953125
 20
-0.0
 10
409.74609375
 20
-0.0
 10
399.990234375
 20
-0.0
 10
390.234375
 20
-0.0
 10
380.478515625
 20
-0.0
 10
370.72265625
 20
-0.0
 10
360.966796875
 20
-0.0
 10
351.2109375
 20
-0.0
 10
341.455078125
 20
-0.0
 10
331.69921875
 20
-0.0
 10
321.943359375
 20
-0.0
 10
312.1875
 20
-0.0
 10
302.431640625
 20
-0.0
 10
292.67578125
 20
-0.0
 10
282.919921875
 20
-0.0
 10
273.1640625
 20
-0.0
 10
263.408203125
 20
-0.0
 10
253.65234375
 20
-0.0
 10
243.896484375
 20
-0.0
 10
234.140625
 20
-0.0
 10
224.384765625
 20
-0.0
 10
214.62890625
 20
-0.0
 10
204.873046875
 20
-0.0
 10
195.1171875
 20
-0.0
 10
185.361328125
 20
-0.0
 10
175.60546875
 20
-0.0
 10
165.849609375
 20
-0.0
 10
156.09375
 20
-0.0
 10
146.337890625
 20
-0.0
 10
136.58203125
 20
-0.0
 10
126.826171875
 20
-0.0
 10
117.0703125
 20
-0.0
 10
107.314453125
 20
-0.0
 10
97.55859375
 20
-0.0
 10
87.802734375
 20
-0.0
 10
78.046875
 20
-0.0
 10
68.291015625
 20
-0.0
 10
58.53515625
 20
-0.0
 10
48.779296875
 20
-0.0
 10
39.0234375
 20
-0.0
 10
29.267578125
 20
-0.0
 10
19.51171875
 20
-0.0
 10
9.755859375
 20
-0.0
  0
LWPOLYLINE
  5
38
330
17
100
AcDbEntity
  8
substrate
100
AcDbPolyline
 90
1467
 70
1
 43
0.5
 10
3092.607421875
 20
-682.91015625
 10
3102.36328125
 20
-673.154296875
 10
3112.119140625
 20
-673.154296875
 10
3121.875
 20
-682.91015625
 10
3121.875
 20
-692.666015625
 10
3121.875
 20
-702.421875
 10
3121.875
 20
-712.177734375
 10
3121.875
 20
-721.93359375
 10
3121.875
 20
-731.689453125
 10
3121.875
 20
-741.4453125
 10
3131.630859375
 20
-751.201171875
 10
3131.630859375
 20
-760.95703125
 10
3131.630859375
 20
-770.712890625
 10
3121.875
 20
-780.46875
 10
3121.875
 20
-790.224609375
 10
3121.875
 20
-799.98046875
 10
3121.875
 20
-809.736328125
 10
3121.875
 20
-819.4921875
 10
3121.875
 20
-829.248046875
 10
3121.875
 20
-839.00390625
 10
3131.630859375
 20
-848.759765625
 10
3121.875
 20
-858.515625
 10
3131.630859375
 20
-868.271484375
 10
3131.630859375
 20
-878.02734375
 10
3131.630859375
 20
-887.783203125
 10
3131.630859375
 20
-897.5390625
 10
3131.630859375
 20
-907.294921875
 10
3131.630859375
 20
-917.05078125
 10
3131.630859375
 20
-926.806640625
 10
3131.630859375
 20
-936.5625
 10
3121.875
 20
-946.318359375
 10
3131.630859375
 20
-956.07421875
 10
3131.630859375
 20
-965.830078125
 10
3131.630859375
 20
-975.5859375
 10
3131.630859375
 20
-985.341796875
 10
3131.630859375
 20
-995.09765625
 10
3131.630859375
 20
-1004.853515625
 10
3131.630859375
 20
-1014.609375
 10
3131.630859375
 20
-1024.365234375
 10
3131.630859375
 20
-1034.12109375
 10
3131.630859375
 20
-1043.876953125
 10
3131.630859375
 20
-1053.6328125
 10
3121.875
 20
-1063.388671875
 10
3131.630859375
 20
-1073.14453125
 10
3131.630859375
 20
-1082.900390625
 10
3131.630859375
 20
-1092.65625
 10
3131.630859375
 20
-1102.412109375
 10
3131.630859375
 20
-1112.16796875
 10
3131.630859375
 20
-1121.923828125
 10
3131.630859375
 20
-1131.6796875
 10
3131.630859375
 20
-1141.435546875
 10
3121.875
 20
-1151.19140625
 10
3131.630859375
 20
-1160.947265625
 10
3131.630859375
 20
-1170.703125
 10
3131.630859375
 20
-1180.458984375
 10
3131.630859375
 20
-1190.21484375
 10
3131.630859375
 20
-1199.970703125
 10
3121.875
 20
-1209.7265625
 10
3121.875
 20
-1219.482421875
 10
3131.630859375
 20
-1229.23828125
 10
3131.630859375
 20
-1238.994140625
 10
3131.630859375
 20
-1248.75
 10
3131.630859375
 20
-1258.505859375
 10
3131.630859375
 20
-1268.26171875
 10
3131.630859375
 20
-1278.017578125
 10
3131.630859375
 20
-1287.7734375
 10
3131.630859375
 20
-1297.529296875
 10
3131.630859375
 20
-1307.28515625
 10
3131.630859375
 20
-1317.041015625
 10
3131.630859375
 20
-1326.796875
 10
3131.630859375
 20
-1336.552734375
 10
3131.630859375
 20
-1346.30859375
 10
3121.875
 20
-1356.064453125
 10
3121.875
 20
-1365.8203125
 10
3121.875
 20
-1375.576171875
 10
3121.875
 20
-1385.33203125
 10
3121.875
 20
-1395.087890625
 10
3121.875
 20
-1404.84375
 10
3121.875
 20
-1414.599609375
 10
3121.875
 20
-1424.35546875
 10
3121.875
 20
-1434.111328125
 10
3121.875
 20
-1443.8671875
 10
3121.875
 20
-1453.623046875
 10
3121.875
 20
-1463.37890625
 10
3121.875
 20
-1473.134765625
 10
3121.875
 20
-1482.890625
 10
3121.875
 20
-1492.646484375
 10
3121.875
 20
-1502.40234375
 10
3121.875
 20
-1512.158203125
 10
3121.875
 20
-1521.9140625
 10
3121.875
 20
-1531.669921875
 10
3121.875
 20
-1541.42578125
 10
3121.875
 20
-1551.181640625
 10
3131.630859375
 20
-1560.9375
 10
3121.875
 20
-1570.693359375
 10
3121.875
 20
-1580.44921875
 10
3121.875
 20
-1590.205078125
 10
3121.875
 20
-1599.9609375
 10
3121.875
 20
-1609.716796875
 10
3121.875
 20
-1619.47265625
 10
3121.875
 20
-1629.228515625
 10
3131.630859375
 20
-1638.984375
 10
3131.630859375
 20
-1648.740234375
 10
3131.630859375
 20
-1658.49609375
 10
3131.630859375
 20
-1668.251953125
 10
3121.875
 20
-1678.0078125
 10
3121.875
 20
-1687.763671875
 10
3121.875
 20
-1697.51953125
 10
3121.875
 20
-1707.275390625
 10
3121.875
 20
-1717.03125
 10
3121.875
 20
-1726.787109375
 10
3121.875
 20
-1736.54296875
 10
3121.875
 20
-1746.298828125
 10
3121.875
 20
-1756.0546875
 10
3121.875
 20
-1765.810546875
 10
3121.875
 20
-1775.56640625
 10
3121.875
 20
-1785.322265625
 10
3121.875
 20
-1795.078125
 10
3121.875
 20
-1804.833984375
 10
3121.875
 20
-1814.58984375
 10
3121.875
 20
-1824.345703125
 10
3121.875
 20
-1834.1015625
 10
3121.875
 20
-1843.857421875
 10
3121.875
 20
-1853.61328125
 10
3121.875
 20
-1863.369140625
 10
3131.630859375
 20
-1863.369140625
 10
3141.38671875
 20
-1863.369140625
 10
3151.142578125
 20
-1863.369140625
 10
3160.8984375
 20
-1863.369140625
 10
3170.654296875
 20
-1873.125
 10
3180.41015625
 20
-1863.369140625
 10
3190.166015625
 20
-1863.369140625
 10
3199.921875
 20
-1863.369140625
 10
3209.677734375
 20
-1863.369140625
 10
3219.43359375
 20
-1863.369140625
 10
3229.189453125
 20
-1863.369140625
 10
3238.9453125
 20
-1863.369140625
 10
3248.701171875
 20
-1863.369140625
 10
3258.45703125
 20
-1863.369140625
 10
3268.212890625
 20
-1863.369140625
 10
3277.96875
 20
-1863.369140625
 10
3287.724609375
 20
-1863.369140625
 10
3297.48046875
 20
-1863.369140625
 10
3307.236328125
 20
-1863.369140625
 10
3316.9921875
 20
-1863.369140625
 10
3326.748046875
 20
-1863.369140625
 10
3336.50390625
 20
-1863.369140625
 10
3346.259765625
 20
-1863.369140625
 10
3356.015625
 20
-1863.369140625
 10
3365.771484375
 20
-1863.369140625
 10
3375.52734375
 20
-1863.369140625
 10
3385.283203125
 20
-1863.369140625
 10
3395.0390625
 20
-1863.369140625
 10
3404.794921875
 20
-1863.369140625
 10
3414.55078125
 20
-1863.369140625
 10
3424.306640625
 20
-1863.369140625
 10
3434.0625
 20
-1863.369140625
 10
3443.818359375
 20
-1863.369140625
 10
3453.57421875
 20
-1863.369140625
 10
3463.330078125
 20
-1863.369140625
 10
3473.0859375
 20
-1863.369140625
 10
3482.841796875
 20
-1863.369140625
 10
3492.59765625
 20
-1863.369140625
 10
3502.353515625
 20
-1863.369140625
 10
3512.109375
 20
-1863.369140625
 10
3521.865234375
 20
-1863.369140625
 10
3531.62109375
 20
-1863.369140625
 10
3541.376953125
 20
-1863.369140625
 10
3551.1328125
 20
-1863.369140625
 10
3560.888671875
 20
-1863.369140625
 10
3570.64453125
 20
-1863.369140625
 10
3580.400390625
 20
-1863.369140625
 10
3590.15625
 20
-1863.369140625
 10
3599.912109375
 20
-1863.369140625
 10
3609.66796875
 20
-1863.369140625
 10
3619.423828125
 20
-1863.369140625
 10
3629.1796875
 20
-1863.369140625
 10
3638.935546875
 20
-1863.369140625
 10
3648.69140625
 20
-1863.369140625
 10
3658.447265625
 20
-1863.369140625
 10
3668.203125
 20
-1863.369140625
 10
3677.958984375
 20
-1863.369140625
 10
3687.71484375
 20
-1863.369140625
 10
3697.470703125
 20
-1863.369140625
 10
3707.2265625
 20
-1863.369140625
 10
3716.982421875
 20
-1863.369140625
 10
3726.73828125
 20
-1863.369140625
 10
3736.494140625
 20
-1863.369140625
 10
3746.25
 20
-1863.369140625
 10
3756.005859375
 20
-1863.369140625
 10
3765.76171875
 20
-1863.369140625
 10
3775.517578125
 20
-1863.369140625
 10
3785.2734375
 20
-1863.369140625
 10
3795.029296875
 20
-1863.369140625
 10
3804.78515625
 20
-1863.369140625
 10
3814.541015625
 20
-1863.369140625
 10
3824.296875
 20
-1863.369140625
 10
3834.052734375
 20
-1863.369140625
 10
3843.80859375
 20
-1863.369140625
 10
3853.564453125
 20
-1863.369140625
 10
3863.3203125
 20
-1863.369140625
 10
3873.076171875
 20
-1863.369140625
 10
3882.83203125
 20
-1863.369140625
 10
3892.587890625
 20
-1863.369140625
 10
3902.34375
 20
-1863.369140625
 10
3912.099609375
 20
-1863.369140625
 10
3921.85546875
 20
-1863.369140625
 10
3931.611328125
 20
-1863.369140625
 10
3941.3671875
 20
-1863.369140625
 10
3951.123046875
 20
-1863.369140625
 10
3960.87890625
 20
-1863.369140625
 10
3970.634765625
 20
-1863.369140625
 10
3980.390625
 20
-1863.369140625
 10
3990.146484375
 20
-1863.369140625
 10
3999.90234375
 20
-1863.369140625
 10
4009.658203125
 20
-1863.369140625
 10
4019.4140625
 20
-1863.369140625
 10
4029.169921875
 20
-1863.369140625
 10
4038.92578125
 20
-1863.369140625
 10
4048.681640625
 20
-1863.369140625
 10
4058.4375
 20
-1863.369140625
 10
4068.193359375
 20
-1863.369140625
 10
4077.94921875
 20
-1863.369140625
 10
4087.705078125
 20
-1863.369140625
 10
4097.4609375
 20
-1863.369140625
 10
4107.216796875
 20
-1863.369140625
 10
4116.97265625
 20
-1863.369140625
 10
4126.728515625
 20
-1863.369140625
 10
4136.484375
 20
-1863.369140625
 10
4146.240234375
 20
-1863.369140625
 10
4155.99609375
 20
-1863.369140625
 10
4165.751953125
 20
-1863.369140625
 10
4175.5078125
 20
-1863.369140625
 10
4185.263671875
 20
-1863.369140625
 10
4195.01953125
 20
-1863.369140625
 10
4204.775390625
 20
-1863.369140625
 10
4214.53125
 20
-1863.369140625
 10
4224.287109375
 20
-1863.369140625
 10
4234.04296875
 20
-1863.369140625
 10
4243.798828125
 20
-1863.369140625
 10
4253.5546875
 20
-1863.369140625
 10
4263.310546875
 20
-1863.369140625
 10
4273.06640625
 20
-1863.369140625
 10
4282.822265625
 20
-1863.369140625
 10
4292.578125
 20
-1863.369140625
 10
4302.333984375
 20
-1863.369140625
 10
4312.08984375
 20
-1873.125
 10
4312.08984375
 20
-1882.880859375
 10
4312.08984375
 20
-1892.63671875
 10
4302.333984375
 20
-1902.392578125
 10
4302.333984375
 20
-1912.1484375
 10
4302.333984375
 20
-1921.904296875
 10
4302.333984375
 20
-1931.66015625
 10
4302.333984375
 20
-1941.416015625
 10
4302.333984375
 20
-1951.171875
 10
4302.333984375
 20
-1960.927734375
 10
4302.333984375
 20
-1970.68359375
 10
4302.333984375
 20
-1980.439453125
 10
4302.333984375
 20
-1990.1953125
 10
4302.333984375
 20
-1999.951171875
 10
4302.333984375
 20
-2009.70703125
 10
4302.333984375
 20
-2019.462890625
 10
4302.333984375
 20
-2029.21875
 10
4302.333984375
 20
-2038.974609375
 10
4302.333984375
 20
-2048.73046875
 10
4302.333984375
 20
-2058.486328125
 10
4302.333984375
 20
-2068.2421875
 10
4302.333984375
 20
-2077.998046875
 10
4302.333984375
 20
-2087.75390625
 10
4302.333984375
 20
-2097.509765625
 10
4302.333984375
 20
-2107.265625
 10
4302.333984375
 20
-2117.021484375
 10
4302.333984375
 20
-2126.77734375
 10
4302.333984375
 20
-2136.533203125
 10
4302.333984375
 20
-2146.2890625
 10
4302.333984375
 20
-2156.044921875
 10
4302.333984375
 20
-2165.80078125
 10
4302.333984375
 20
-2175.556640625
 10
4312.08984375
 20
-2185.3125
 10
4312.08984375
 20
-2195.068359375
 10
4312.08984375
 20
-2204.82421875
 10
4302.333984375
 20
-2214.580078125
 10
4302.333984375
 20
-2224.3359375
 10
4302.333984375
 20
-2234.091796875
 10
4302.333984375
 20
-2243.84765625
 10
4302.333984375
 20
-2253.603515625
 10
4302.333984375
 20
-2263.359375
 10
4302.333984375
 20
-2273.115234375
 10
4312.08984375
 20
-2282.87109375
 10
4302.333984375
 20
-2292.626953125
 10
4302.333984375
 20
-2302.3828125
 10
4312.08984375
 20
-2312.138671875
 10
4302.333984375
 20
-2321.89453125
 10
4302.333984375
 20
-2331.650390625
 10
4302.333984375
 20
-2341.40625
 10
4302.333984375
 20
-2351.162109375
 10
4302.333984375
 20
-2360.91796875
 10
4302.333984375
 20
-2370.673828125
 10
4302.333984375
 20
-2380.4296875
 10
4302.333984375
 20
-2390.185546875
 10
4302.333984375
 20
-2399.94140625
 10
4302.333984375
 20
-2409.697265625
 10
4302.333984375
 20
-2419.453125
 10
4302.333984375
 20
-2429.208984375
 10
4302.333984375
 20
-2438.96484375
 10
4302.333984375
 20
-2448.720703125
 10
4302.333984375
 20
-2458.4765625
 10
4302.333984375
 20
-2468.232421875
 10
4302.333984375
 20
-2477.98828125
 10
4302.333984375
 20
-2487.744140625
 10
4302.333984375
 20
-2497.5
 10
4312.08984375
 20
-2507.255859375
 10
4302.333984375
 20
-2517.01171875
 10
4302.333984375
 20
-2526.767578125
 10
4302.333984375
 20
-2536.5234375
 10
4312.08984375
 20
-2546.279296875
 10
4312.08984375
 20
-2556.03515625
 10
4312.08984375
 20
-2565.791015625
 10
4312.08984375
 20
-2575.546875
 10
4312.08984375
 20
-2585.302734375
 10
4312.08984375
 20
-2595.05859375
 10
4302.333984375
 20
-2604.814453125
 10
4302.333984375
 20
-2614.5703125
 10
4302.333984375
 20
-2624.326171875
 10
4302.333984375
 20
-2634.08203125
 10
4302.333984375
 20
-2643.837890625
 10
4302.333984375
 20
-2653.59375
 10
4302.333984375
 20
-2663.349609375
 10
4302.333984375
 20
-2673.10546875
 10
4302.333984375
 20
-2682.861328125
 10
4302.333984375
 20
-2692.6171875
 10
4302.333984375
 20
-2702.373046875
 10
4302.333984375
 20
-2712.12890625
 10
4302.333984375
 20
-2721.884765625
 10
4302.333984375
 20
-2731.640625
 10
4302.333984375
 20
-2741.396484375
 10
4302.333984375
 20
-2751.15234375
 10
4302.333984375
 20
-2760.908203125
 10
4292.578125
 20
-2770.6640625
 10
4302.333984375
 20
-2780.419921875
 10
4302.333984375
 20
-2790.17578125
 10
4302.333984375
 20
-2799.931640625
 10
4302.333984375
 20
-2809.6875
 10
4302.333984375
 20
-2819.443359375
 10
4302.333984375
 20
-2829.19921875
 10
4302.333984375
 20
-2838.955078125
 10
4302.333984375
 20
-2848.7109375
 10
4302.333984375
 20
-2858.466796875
 10
4302.333984375
 20
-2868.22265625
 10
4302.333984375
 20
-2877.978515625
 10
4302.333984375
 20
-2887.734375
 10
4302.333984375
 20
-2897.490234375
 10
4302.333984375
 20
-2907.24609375
 10
4302.333984375
 20
-2917.001953125
 10
4302.333984375
 20
-2926.7578125
 10
4302.333984375
 20
-2936.513671875
 10
4302.333984375
 20
-2946.26953125
 10
4302.333984375
 20
-2956.025390625
 10
4302.333984375
 20
-2965.78125
 10
4302.333984375
 20
-2975.537109375
 10
4302.333984375
 20
-2985.29296875
 10
4302.333984375
 20
-2995.048828125
 10
4302.333984375
 20
-3004.8046875
 10
4302.333984375
 20
-3014.560546875
 10
4302.333984375
 20
-3024.31640625
 10
4302.333984375
 20
-3034.072265625
 10
4302.333984375
 20
-3043.828125
 10
4312.08984375
 20
-3053.583984375
 10
4312.08984375
 20
-3063.33984375
 10
4302.333984375
 20
-3073.095703125
 10
4312.08984375
 20
-3082.8515625
 10
4312.08984375
 20
-3092.607421875
 10
4312.08984375
 20
-3102.36328125
 10
4302.333984375
 20
-3112.119140625
 10
4292.578125
 20
-3112.119140625
 10
4282.822265625
 20
-3121.875
 10
4273.06640625
 20
-3121.875
 10
4263.310546875
 20
-3121.875
 10
4253.5546875
 20
-3121.875
 10
4243.798828125
 20
-3121.875
 10
4234.04296875
 20
-3121.875
 10
4224.287109375
 20
-3121.875
 10
4214.53125
 20
-3121.875
 10
4204.775390625
 20
-3121.875
 10
4195.01953125
 20
-3121.875
 10
4185.263671875
 20
-3121.875
 10
4175.5078125
 20
-3121.875
 10
4165.751953125
 20
-3121.875
 10
4155.99609375
 20
-3121.875
 10
4146.240234375
 20
-3121.875
 10
4136.484375
 20
-3121.875
 10
4126.728515625
 20
-3121.875
 10
4116.97265625
 20
-3121.875
 10
4107.216796875
 20
-3121.875
 10
4097.4609375
 20
-3121.875
 10
4087.705078125
 20
-3121.875
 10
4077.94921875
 20
-3121.875
 10
4068.193359375
 20
-3121.875
 10
4058.4375
 20
-3121.875
 10
4048.681640625
 20
-3121.875
 10
4038.92578125
 20
-3121.875
 10
4029.169921875
 20
-3121.875
 10
4019.4140625
 20
-3121.875
 10
4009.658203125
 20
-3121.875
 10
3999.90234375
 20
-3121.875
 10
3990.146484375
 20
-3121.875
 10
3980.390625
 20
-3121.875
 10
3970.634765625
 20
-3121.875
 10
3960.87890625
 20
-3121.875
 10
3951.123046875
 20
-3121.875
 10
3941.3671875
 20
-3121.875
 10
3931.611328125
 20
-3121.875
 10
3921.85546875
 20
-3121.875
 10
3912.099609375
 20
-3121.875
 10
3902.34375
 20
-3121.875
 10
3892.587890625
 20
-3121.875
 10
3882.83203125
 20
-3121.875
 10
3873.076171875
 20
-3121.875
 10
3863.3203125
 20
-3121.875
 10
3853.564453125
 20
-3121.875
 10
3843.80859375
 20
-3121.875
 10
3834.052734375
 20
-3121.875
 10
3824.296875
 20
-3121.875
 10
3814.541015625
 20
-3121.875
 10
3804.78515625
 20
-3121.875
 10
3795.029296875
 20
-3121.875
 10
3785.2734375
 20
-3121.875
 10
3775.517578125
 20
-3121.875
 10
3765.76171875
 20
-3121.875
 10
3756.005859375
 20
-3121.875
 10
3746.25
 20
-3121.875
 10
3736.494140625
 20
-3121.875
 10
3726.73828125
 20
-3121.875
 10
3716.982421875
 20
-3121.875
 10
3707.2265625
 20
-3121.875
 10
3697.470703125
 20
-3121.875
 10
3687.71484375
 20
-3121.875
 10
3677.958984375
 20
-3121.875
 10
3668.203125
 20
-3121.875
 10
3658.447265625
 20
-3121.875
 10
3648.69140625
 20
-3121.875
 10
3638.935546875
 20
-3121.875
 10
3629.1796875
 20
-3121.875
 10
3619.423828125
 20
-3121.875
 10
3609.66796875
 20
-3121.875
 10
3599.912109375
 20
-3121.875
 10
3590.15625
 20
-3121.875
 10
3580.400390625
 20
-3121.875
 10
3570.64453125
 20
-3121.875
 10
3560.888671875
 20
-3121.875
 10
3551.1328125
 20
-3121.875
 10
3541.376953125
 20
-3121.875
 10
3531.62109375
 20
-3121.875
 10
3521.865234375
 20
-3121.875
 10
3512.109375
 20
-3121.875
 10
3502.353515625
 20
-3121.875
 10
3492.59765625
 20
-3121.875
 10
3482.841796875
 20
-3121.875
 10
3473.0859375
 20
-3121.875
 10
3463.330078125
 20
-3121.875
 10
3453.57421875
 20
-3121.875
 10
3443.818359375
 20
-3121.875
 10
3434.0625
 20
-3121.875
 10
3424.306640625
 20
-3121.875
 10
3414.55078125
 20
-3121.875
 10
3404.794921875
 20
-3121.875
 10
3395.0390625
 20
-3121.875
 10
3385.283203125
 20
-3121.875
 10
3375.52734375
 20
-3121.875
 10
3365.771484375
 20
-3121.875
 10
3356.015625
 20
-3121.875
 10
3346.259765625
 20
-3121.875
 10
3336.50390625
 20
-3121.875
 10
3326.748046875
 20
-3121.875
 10
3316.9921875
 20
-3121.875
 10
3307.236328125
 20
-3121.875
 10
3297.48046875
 20
-3121.875
 10
3287.724609375
 20
-3121.875
 10
3277.96875
 20
-3121.875
 10
3268.212890625
 20
-3121.875
 10
3258.45703125
 20
-3121.875
 10
3248.701171875
 20
-3121.875
 10
3238.9453125
 20
-3121.875
 10
3229.189453125
 20
-3121.875
 10
3219.43359375
 20
-3121.875
 10
3209.677734375
 20
-3121.875
 10
3199.921875
 20
-3121.875
 10
3190.166015625
 20
-3121.875
 10
3180.41015625
 20
-3121.875
 10
3170.654296875
 20
-3121.875
 10
3160.8984375
 20
-3121.875
 10
3151.142578125
 20
-3121.875
 10
3141.38671875
 20
-3121.875
 10
3131.630859375
 20
-3121.875
 10
3121.875
 20
-3131.630859375
 10
3121.875
 20
-3141.38671875
 10
3121.875
 20
-3151.142578125
 10
3121.875
 20
-3160.8984375
 10
3121.875
 20
-3170.654296875
 10
3121.875
 20
-3180.41015625
 10
3131.630859375
 20
-3190.166015625
 10
3121.875
 20
-3199.921875
 10
3121.875
 20
-3209.677734375
 10
3121.875
 20
-3219.43359375
 10
3121.875
 20
-3229.189453125
 10
3121.875
 20
-3238.9453125
 10
3121.875
 20
-3248.701171875
 10
3121.875
 20
-3258.45703125
 10
3121.875
 20
-3268.212890625
 10
3121.875
 20
-3277.96875
 10
3121.875
 20
-3287.724609375
 10
3121.875
 20
-3297.48046875
 10
3121.875
 20
-3307.236328125
 10
3121.875
 20
-3316.9921875
 10
3121.875
 20
-3326.748046875
 10
3121.875
 20
-3336.50390625
 10
3121.875
 20
-3346.259765625
 10
3121.875
 20
-3356.015625
 10
3121.875
 20
-3365.771484375
 10
3121.875
 20
-3375.52734375
 10
3121.875
 20
-3385.283203125
 10
3121.875
 20
-3395.0390625
 10
3121.875
 20
-3404.794921875
 10
3121.875
 20
-3414.55078125
 10
3121.875
 20
-3424.306640625
 10
3121.875
 20
-3434.0625
 10
3121.875
 20
-3443.818359375
 10
3121.875
 20
-3453.57421875
 10
3131.630859375
 20
-3463.330078125
 10
3121.875
 20
-3473.0859375
 10
3121.875
 20
-3482.841796875
 10
3121.875
 20
-3492.59765625
 10
3121.875
 20
-3502.353515625
 10
3121.875
 20
-3512.109375
 10
3121.875
 20
-3521.865234375
 10
3121.875
 20
-3531.62109375
 10
3121.875
 20
-3541.376953125
 10
3121.875
 20
-3551.1328125
 10
3121.875
 20
-3560.888671875
 10
3121.875
 20
-3570.64453125
 10
3121.875
 20
-3580.400390625
 10
3121.875
 20
-3590.15625
 10
3121.875
 20
-3599.912109375
 10
3121.875
 20
-3609.66796875
 10
3121.875
 20
-3619.423828125
 10
3121.875
 20
-3629.1796875
 10
3121.875
 20
-3638.935546875
 10
3121.875
 20
-3648.69140625
 10
3121.875
 20
-3658.447265625
 10
3121.875
 20
-3668.203125
 10
3121.875
 20
-3677.958984375
 10
3121.875
 20
-3687.71484375
 10
3121.875
 20
-3697.470703125
 10
3121.875
 20
-3707.2265625
 10
3121.875
 20
-3716.982421875
 10
3121.875
 20
-3726.73828125
 10
3121.875
 20
-3736.494140625
 10
3121.875
 20
-3746.25
 10
3121.875
 20
-3756.005859375
 10
3121.875
 20
-3765.76171875
 10
3121.875
 20
-3775.517578125
 10
3121.875
 20
-3785.2734375
 10
3121.875
 20
-3795.029296875
 10
3121.875
 20
-3804.78515625
 10
3121.875
 20
-3814.541015625
 10
3121.875
 20
-3824.296875
 10
3121.875
 20
-3834.052734375
 10
3121.875
 20
-3843.80859375
 10
3121.875
 20
-3853.564453125
 10
3121.875
 20
-3863.3203125
 10
3121.875
 20
-3873.076171875
 10
3121.875
 20
-3882.83203125
 10
3121.875
 20
-3892.587890625
 10
3121.875
 20
-3902.34375
 10
3121.875
 20
-3912.099609375
 10
3121.875
 20
-3921.85546875
 10
3121.875
 20
-3931.611328125
 10
3121.875
 20
-3941.3671875
 10
3121.875
 20
-3951.123046875
 10
3121.875
 20
-3960.87890625
 10
3121.875
 20
-3970.634765625
 10
3121.875
 20
-3980.390625
 10
3121.875
 20
-3990.146484375
 10
3121.875
 20
-3999.90234375
 10
3121.875
 20
-4009.658203125
 10
3121.875
 20
-4019.4140625
 10
3121.875
 20
-4029.169921875
 10
3121.875
 20
-4038.92578125
 10
3121.875
 20
-4048.681640625
 10
3121.875
 20
-4058.4375
 10
3121.875
 20
-4068.193359375
 10
3121.875
 20
-4077.94921875
 10
3121.875
 20
-4087.705078125
 10
3121.875
 20
-4097.4609375
 10
3121.875
 20
-4107.216796875
 10
3121.875
 20
-4116.97265625
 10
3121.875
 20
-4126.728515625
 10
3121.875
 20
-4136.484375
 10
3121.875
 20
-4146.240234375
 10
3121.875
 20
-4155.99609375
 10
3121.875
 20
-4165.751953125
 10
3121.875
 20
-4175.5078125
 10
3121.875
 20
-4185.263671875
 10
3121.875
 20
-4195.01953125
 10
3121.875
 20
-4204.775390625
 10
3121.875
 20
-4214.53125
 10
3121.875
 20
-4224.287109375
 10
3121.875
 20
-4234.04296875
 10
3121.875
 20
-4243.798828125
 10
3121.875
 20
-4253.5546875
 10
3121.875
 20
-4263.310546875
 10
3112.119140625
 20
-4273.06640625
 10
3102.36328125
 20
-4282.822265625
 10
3092.607421875
 20
-4282.822265625
 10
3082.8515625
 20
-4282.822265625
 10
3073.095703125
 20
-4282.822265625
 10
3063.33984375
 20
-4282.822265625
 10
3053.583984375
 20
-4282.822265625
 10
3043.828125
 20
-4273.06640625
 10
3034.072265625
 20
-4282.822265625
 10
3024.31640625
 20
-4282.822265625
 10
3014.560546875
 20
-4282.822265625
 10
3004.8046875
 20
-4273.06640625
 10
2995.048828125
 20
-4282.822265625
 10
2985.29296875
 20
-4273.06640625
 10
2975.537109375
 20
-4273.06640625
 10
2965.78125
 20
-4273.06640625
 10
2956.025390625
 20
-4273.06640625
 10
2946.26953125
 20
-4282.822265625
 10
2936.513671875
 20
-4282.822265625
 10
2926.7578125
 20
-4273.06640625
 10
2917.001953125
 20
-4282.822265625
 10
2907.24609375
 20
-4282.822265625
 10
2897.490234375
 20
-4282.822265625
 10
2887.734375
 20
-4282.822265625
 10
2877.978515625
 20
-4282.822265625
 10
2868.22265625
 20
-4282.822265625
 10
2858.466796875
 20
-4282.822265625
 10
2848.7109375
 20
-4282.822265625
 10
2838.955078125
 20
-4282.822265625
 10
2829.19921875
 20
-4282.822265625
 10
2819.443359375
 20
-4282.822265625
 10
2809.6875
 20
-4282.822265625
 10
2799.931640625
 20
-4282.822265625
 10
2790.17578125
 20
-4282.822265625
 10
2780.419921875
 20
-4282.822265625
 10
2770.6640625
 20
-4282.822265625
 10
2760.908203125
 20
-4282.822265625
 10
2751.15234375
 20
-4282.822265625
 10
2741.396484375
 20
-4282.822265625
 10
2731.640625
 20
-4282.822265625
 10
2721.884765625
 20
-4282.822265625
 10
2712.12890625
 20
-4282.822265625
 10
2702.373046875
 20
-4282.822265625
 10
2692.6171875
 20
-4282.822265625
 10
2682.861328125
 20
-4282.822265625
 10
2673.10546875
 20
-4282.822265625
 10
2663.349609375
 20
-4282.822265625
 10
2653.59375
 20
-4282.822265625
 10
2643.837890625
 20
-4282.822265625
 10
2634.08203125
 20
-4282.822265625
 10
2624.326171875
 20
-4282.822265625
 10
2614.5703125
 20
-4282.822265625
 10
2604.814453125
 20
-4282.822265625
 10
2595.05859375
 20
-4282.822265625
 10
2585.302734375
 20
-4282.822265625
 10
2575.546875
 20
-4282.822265625
 10
2565.791015625
 20
-4282.822265625
 10
2556.03515625
 20
-4282.822265625
 10
2546.279296875
 20
-4282.822265625
 10
2536.5234375
 20
-4282.822265625
 10
2526.767578125
 20
-4282.822265625
 10
2517.01171875
 20
-4282.822265625
 10
2507.255859375
 20
-4282.822265625
 10
2497.5
 20
-4282.822265625
 10
2487.744140625
 20
-4282.822265625
 10
2477.98828125
 20
-4282.822265625
 10
2468.232421875
 20
-4282.822265625
 10
2458.4765625
 20
-4282.822265625
 10
2448.720703125
 20
-4282.822265625
 10
2438.96484375
 20
-4282.822265625
 10
2429.208984375
 20
-4282.822265625
 10
2419.453125
 20
-4282.822265625
 10
2409.697265625
 20
-4282.822265625
 10
2399.94140625
 20
-4282.822265625
 10
2390.185546875
 20
-4282.822265625
 10
2380.4296875
 20
-4282.822265625
 10
2370.673828125
 20
-4282.822265625
 10
2360.91796875
 20
-4282.822265625
 10
2351.162109375
 20
-4282.822265625
 10
2341.40625
 20
-4282.822265625
 10
2331.650390625
 20
-4282.822265625
 10
2321.89453125
 20
-4282.822265625
 10
2312.138671875
 20
-4282.822265625
 10
2302.3828125
 20
-4282.822265625
 10
2292.626953125
 20
-4292.578125
 10
2282.87109375
 20
-4292.578125
 10
2273.115234375
 20
-4292.578125
 10
2263.359375
 20
-4292.578125
 10
2253.603515625
 20
-4292.578125
 10
2243.84765625
 20
-4292.578125
 10
2234.091796875
 20
-4292.578125
 10
2224.3359375
 20
-4292.578125
 10
2214.580078125
 20
-4292.578125
 10
2204.82421875
 20
-4292.578125
 10
2195.068359375
 20
-4292.578125
 10
2185.3125
 20
-4292.578125
 10
2175.556640625
 20
-4292.578125
 10
2165.80078125
 20
-4292.578125
 10
2156.044921875
 20
-4292.578125
 10
2146.2890625
 20
-4292.578125
 10
2136.533203125
 20
-4292.578125
 10
2126.77734375
 20
-4292.578125
 10
2117.021484375
 20
-4292.578125
 10
2107.265625
 20
-4292.578125
 10
2097.509765625
 20
-4292.578125
 10
2087.75390625
 20
-4292.578125
 10
2077.998046875
 20
-4282.822265625
 10
2068.2421875
 20
-4282.822265625
 10
2058.486328125
 20
-4282.822265625
 10
2048.73046875
 20
-4282.822265625
 10
2038.974609375
 20
-4292.578125
 10
2029.21875
 20
-4282.822265625
 10
2019.462890625
 20
-4282.822265625
 10
2009.70703125
 20
-4282.822265625
 10
1999.951171875
 20
-4282.822265625
 10
1990.1953125
 20
-4292.578125
 10
1980.439453125
 20
-4292.578125
 10
1970.68359375
 20
-4292.578125
 10
1960.927734375
 20
-4292.578125
 10
1951.171875
 20
-4292.578125
 10
1941.416015625
 20
-4292.578125
 10
1931.66015625
 20
-4282.822265625
 10
1921.904296875
 20
-4282.822265625
 10
1912.1484375
 20
-4282.822265625
 10
1902.392578125
 20
-4282.822265625
 10
1892.63671875
 20
-4282.822265625
 10
1882.880859375
 20
-4282.822265625
 10
1873.125
 20
-4273.06640625
 10
1863.369140625
 20
-4263.310546875
 10
1863.369140625
 20
-4253.5546875
 10
1863.369140625
 20
-4243.798828125
 10
1863.369140625
 20
-4234.04296875
 10
1863.369140625
 20
-4224.287109375
 10
1863.369140625
 20
-4214.53125
 10
1863.369140625
 20
-4204.775390625
 10
1863.369140625
 20
-4195.01953125
 10
1863.369140625
 20
-4185.263671875
 10
1863.369140625
 20
-4175.5078125
 10
1863.369140625
 20
-4165.751953125
 10
1863.369140625
 20
-4155.99609375
 10
1863.369140625
 20
-4146.240234375
 10
1863.369140625
 20
-4136.484375
 10
1863.369140625
 20
-4126.728515625
 10
1863.369140625
 20
-4116.97265625
 10
1863.369140625
 20
-4107.216796875
 10
1863.369140625
 20
-4097.4609375
 10
1863.369140625
 20
-4087.705078125
 10
1863.369140625
 20
-4077.94921875
 10
1863.369140625
 20
-4068.193359375
 10
1863.369140625
 20
-4058.4375
 10
1863.369140625
 20
-4048.681640625
 10
1863.369140625
 20
-4038.92578125
 10
1863.369140625
 20
-4029.169921875
 10
1863.369140625
 20
-4019.4140625
 10
1863.369140625
 20
-4009.658203125
 10
1863.369140625
 20
-3999.90234375
 10
1863.369140625
 20
-3990.146484375
 10
1863.369140625
 20
-3980.390625
 10
1863.369140625
 20
-3970.634765625
 10
1863.369140625
 20
-3960.87890625
 10
1863.369140625
 20
-3951.123046875
 10
1863.369140625
 20
-3941.3671875
 10
1863.369140625
 20
-3931.611328125
 10
1863.369140625
 20
-3921.85546875
 10
1863.369140625
 20
-3912.099609375
 10
1863.369140625
 20
-3902.34375
 10
1863.369140625
 20
-3892.587890625
 10
1863.369140625
 20
-3882.83203125
 10
1863.369140625
 20
-3873.076171875
 10
1863.369140625
 20
-3863.3203125
 10
1863.369140625
 20
-3853.564453125
 10
1863.369140625
 20
-3843.80859375
 10
1863.369140625
 20
-3834.052734375
 10
1863.369140625
 20
-3824.296875
 10
1863.369140625
 20
-3814.541015625
 10
1863.369140625
 20
-3804.78515625
 10
1863.369140625
 20
-3795.029296875
 10
1863.369140625
 20
-3785.2734375
 10
1863.369140625
 20
-3775.517578125
 10
1863.369140625
 20
-3765.76171875
 10
1863.369140625
 20
-3756.005859375
 10
1863.369140625
 20
-3746.25
 10
1863.369140625
 20
-3736.494140625
 10
1863.369140625
 20
-3726.73828125
 10
1863.369140625
 20
-3716.982421875
 10
1863.369140625
 20
-3707.2265625
 10
1863.369140625
 20
-3697.470703125
 10
1863.369140625
 20
-3687.71484375
 10
1863.369140625
 20
-3677.958984375
 10
1863.369140625
 20
-3668.203125
 10
1863.369140625
 20
-3658.447265625
 10
1863.369140625
 20
-3648.69140625
 10
1863.369140625
 20
-3638.935546875
 10
1863.369140625
 20
-3629.1796875
 10
1863.369140625
 20
-3619.423828125
 10
1863.369140625
 20
-3609.66796875
 10
1863.369140625
 20
-3599.912109375
 10
1863.369140625
 20
-3590.15625
 10
1863.369140625
 20
-3580.400390625
 10
1863.369140625
 20
-3570.64453125
 10
1863.369140625
 20
-3560.888671875
 10
1863.369140625
 20
-3551.1328125
 10
1863.369140625
 20
-3541.376953125
 10
1863.369140625
 20
-3531.62109375
 10
1863.369140625
 20
-3521.865234375
 10
1863.369140625
 20
-3512.109375
 10
1863.369140625
 20
-3502.353515625
 10
1863.369140625
 20
-3492.59765625
 10
1863.369140625
 20
-3482.841796875
 10
1863.369140625
 20
-3473.0859375
 10
1863.369140625
 20
-3463.330078125
 10
1863.369140625
 20
-3453.57421875
 10
1863.369140625
 20
-3443.818359375
 10
1863.369140625
 20
-3434.0625
 10
1863.369140625
 20
-3424.306640625
 10
1863.369140625
 20
-3414.55078125
 10
1863.369140625
 20
-3404.794921875
 10
1863.369140625
 20
-3395.0390625
 10
1863.369140625
 20
-3385.283203125
 10
1863.369140625
 20
-3375.52734375
 10
1863.369140625
 20
-3365.771484375
 10
1863.369140625
 20
-3356.015625
 10
1863.369140625
 20
-3346.259765625
 10
1863.369140625
 20
-3336.50390625
 10
1863.369140625
 20
-3326.748046875
 10
1863.369140625
 20
-3316.9921875
 10
1863.369140625
 20
-3307.236328125
 10
1863.369140625
 20
-3297.48046875
 10
1863.369140625
 20
-3287.724609375
 10
1863.369140625
 20
-3277.96875
 10
1863.369140625
 20
-3268.212890625
 10
1863.369140625
 20
-3258.45703125
 10
1863.369140625
 20
-3248.701171875
 10
1863.369140625
 20
-3238.9453125
 10
1863.369140625
 20
-3229.189453125
 10
1863.369140625
 20
-3219.43359375
 10
1863.369140625
 20
-3209.677734375
 10
1863.369140625
 20
-3199.921875
 10
1863.369140625
 20
-3190.166015625
 10
1863.369140625
 20
-3180.41015625
 10
1863.369140625
 20
-3170.654296875
 10
1863.369140625
 20
-3160.8984375
 10
1873.125
 20
-3151.142578125
 10
1863.369140625
 20
-3141.38671875
 10
1873.125
 20
-3131.630859375
 10
1863.369140625
 20
-3121.875
 10
1853.61328125
 20
-3121.875
 10
1843.857421875
 20
-3121.875
 10
1834.1015625
 20
-3121.875
 10
1824.345703125
 20
-3121.875
 10
1814.58984375
 20
-3121.875
 10
1804.833984375
 20
-3121.875
 10
1795.078125
 20
-3121.875
 10
1785.322265625
 20
-3121.875
 10
1775.56640625
 20
-3121.875
 10
1765.810546875
 20
-3121.875
 10
1756.0546875
 20
-3121.875
 10
1746.298828125
 20
-3121.875
 10
1736.54296875
 20
-3121.875
 10
1726.787109375
 20
-3121.875
 10
1717.03125
 20
-3121.875
 10
1707.275390625
 20
-3121.875
 10
1697.51953125
 20
-3121.875
 10
1687.763671875
 20
-3121.875
 10
1678.0078125
 20
-3121.875
 10
1668.251953125
 20
-3121.875
 10
1658.49609375
 20
-3121.875
 10
1648.740234375
 20
-3121.875
 10
1638.984375
 20
-3121.875
 10
1629.228515625
 20
-3121.875
 10
1619.47265625
 20
-3121.875
 10
1609.716796875
 20
-3121.875
 10
1599.9609375
 20
-3121.875
 10
1590.205078125
 20
-3121.875
 10
1580.44921875
 20
-3121.875
 10
1570.693359375
 20
-3121.875
 10
1560.9375
 20
-3121.875
 10
1551.181640625
 20
-3121.875
 10
1541.42578125
 20
-3121.875
 10
1531.669921875
 20
-3121.875
 10
1521.9140625
 20
-3121.875
 10
1512.158203125
 20
-3121.875
 10
1502.40234375
 20
-3121.875
 10
1492.646484375
 20
-3121.875
 10
1482.890625
 20
-3121.875
 10
1473.134765625
 20
-3121.875
 10
1463.37890625
 20
-3121.875
 10
1453.623046875
 20
-3121.875
 10
1443.8671875
 20
-3121.875
 10
1434.111328125
 20
-3121.875
 10
1424.35546875
 20
-3121.875
 10
1414.599609375
 20
-3121.875
 10
1404.84375
 20
-3121.875
 10
1395.087890625
 20
-3121.875
 10
1385.33203125
 20
-3121.875
 10
1375.576171875
 20
-3121.875
 10
1365.8203125
 20
-3121.875
 10
1356.064453125
 20
-3121.875
 10
1346.30859375
 20
-3121.875
 10
1336.552734375
 20
-3121.875
 10
1326.796875
 20
-3121.875
 10
1317.041015625
 20
-3121.875
 10
1307.28515625
 20
-3121.875
 10
1297.529296875
 20
-3121.875
 10
1287.7734375
 20
-3121.875
 10
1278.017578125
 20
-3121.875
 10
1268.26171875
 20
-3121.875
 10
1258.505859375
 20
-3121.875
 10
1248.75
 20
-3121.875
 10
1238.994140625
 20
-3121.875
 10
1229.23828125
 20
-3121.875
 10
1219.482421875
 20
-3121.875
 10
1209.7265625
 20
-3121.875
 10
1199.970703125
 20
-3121.875
 10
1190.21484375
 20
-3121.875
 10
1180.458984375
 20
-3121.875
 10
1170.703125
 20
-3121.875
 10
1160.947265625
 20
-3121.875
 10
1151.19140625
 20
-3121.875
 10
1141.435546875
 20
-3121.875
 10
1131.6796875
 20
-3121.875
 10
1121.923828125
 20
-3121.875
 10
1112.16796875
 20
-3121.875
 10
1102.412109375
 20
-3121.875
 10
1092.65625
 20
-3121.875
 10
1082.900390625
 20
-3121.875
 10
1073.14453125
 20
-3121.875
 10
1063.388671875
 20
-3121.875
 10
1053.6328125
 20
-3121.875
 10
1043.876953125
 20
-3121.875
 10
1034.12109375
 20
-3121.875
 10
1024.365234375
 20
-3121.875
 10
1014.609375
 20
-3121.875
 10
1004.853515625
 20
-3121.875
 10
995.09765625
 20
-3121.875
 10
985.341796875
 20
-3121.875
 10
975.5859375
 20
-3121.875
 10
965.830078125
 20
-3121.875
 10
956.07421875
 20
-3121.875
 10
946.318359375
 20
-3121.875
 10
936.5625
 20
-3121.875
 10
926.806640625
 20
-3121.875
 10
917.05078125
 20
-3121.875
 10
907.294921875
 20
-3121.875
 10
897.5390625
 20
-3121.875
 10
887.783203125
 20
-3121.875
 10
878.02734375
 20
-3121.875
 10
868.271484375
 20
-3121.875
 10
858.515625
 20
-3121.875
 10
848.759765625
 20
-3121.875
 10
839.00390625
 20
-3121.875
 10
829.248046875
 20
-3121.875
 10
819.4921875
 20
-3121.875
 10
809.736328125
 20
-3121.875
 10
799.98046875
 20
-3121.875
 10
790.224609375
 20
-3121.875
 10
780.46875
 20
-3121.875
 10
770.712890625
 20
-3121.875
 10
760.95703125
 20
-3121.875
 10
751.201171875
 20
-3121.875
 10
741.4453125
 20
-3121.875
 10
731.689453125
 20
-3121.875
 10
721.93359375
 20
-3121.875
 10
712.177734375
 20
-3121.875
 10
702.421875
 20
-3121.875
 10
692.666015625
 20
-3112.119140625
 10
682.91015625
 20
-3102.36328125
 10
682.91015625
 20
-3092.607421875
 10
692.666015625
 20
-3082.8515625
 10
692.666015625
 20
-3073.095703125
 10
692.666015625
 20
-3063.33984375
 10
692.666015625
 20
-3053.583984375
 10
692.666015625
 20
-3043.828125
 10
692.666015625
 20
-3034.072265625
 10
692.666015625
 20
-3024.31640625
 10
692.666015625
 20
-3014.560546875
 10
692.666015625
 20
-3004.8046875
 10
692.666015625
 20
-2995.048828125
 10
692.666015625
 20
-2985.29296875
 10
692.666015625
 20
-2975.537109375
 10
692.666015625
 20
-2965.78125
 10
692.666015625
 20
-2956.025390625
 10
702.421875
 20
-2946.26953125
 10
702.421875
 20
-2936.513671875
 10
702.421875
 20
-2926.7578125
 10
702.421875
 20
-2917.001953125
 10
702.421875
 20
-2907.24609375
 10
692.666015625
 20
-2897.490234375
 10
692.666015625
 20
-2887.734375
 10
692.666015625
 20
-2877.978515625
 10
692.666015625
 20
-2868.22265625
 10
692.666015625
 20
-2858.466796875
 10
692.666015625
 20
-2848.7109375
 10
692.666015625
 20
-2838.955078125
 10
692.666015625
 20
-2829.19921875
 10
692.666015625
 20
-2819.443359375
 10
692.666015625
 20
-2809.6875
 10
692.666015625
 20
-2799.931640625
 10
692.666015625
 20
-2790.17578125
 10
692.666015625
 20
-2780.419921875
 10
692.666015625
 20
-2770.6640625
 10
692.666015625
 20
-2760.908203125
 10
692.666015625
 20
-2751.15234375
 10
692.666015625
 20
-2741.396484375
 10
692.666015625
 20
-2731.640625
 10
692.666015625
 20
-2721.884765625
 10
692.666015625
 20
-2712.12890625
 10
692.666015625
 20
-2702.373046875
 10
692.666015625
 20
-2692.6171875
 10
692.666015625
 20
-2682.861328125
 10
692.666015625
 20
-2673.10546875
 10
692.666015625
 20
-2663.349609375
 10
692.666015625
 20
-2653.59375
 10
692.666015625
 20
-2643.837890625
 10
692.666015625
 20
-2634.08203125
 10
692.666015625
 20
-2624.326171875
 10
702.421875
 20
-2614.5703125
 10
702.421875
 20
-2604.814453125
 10
702.421875
 20
-2595.05859375
 10
692.666015625
 20
-2585.302734375
 10
692.666015625
 20
-2575.546875
 10
692.666015625
 20
-2565.791015625
 10
692.666015625
 20
-2556.03515625
 10
692.666015625
 20
-2546.279296875
 10
702.421875
 20
-2536.5234375
 10
702.421875
 20
-2526.767578125
 10
702.421875
 20
-2517.01171875
 10
702.421875
 20
-2507.255859375
 10
692.666015625
 20
-2497.5
 10
692.666015625
 20
-2487.744140625
 10
692.666015625
 20
-2477.98828125
 10
692.666015625
 20
-2468.232421875
 10
692.666015625
 20
-2458.4765625
 10
692.666015625
 20
-2448.720703125
 10
692.666015625
 20
-2438.96484375
 10
692.666015625
 20
-2429.208984375
 10
692.666015625
 20
-2419.453125
 10
702.421875
 20
-2409.697265625
 10
692.666015625
 20
-2399.94140625
 10
692.666015625
 20
-2390.185546875
 10
692.666015625
 20
-2380.4296875
 10
692.666015625
 20
-2370.673828125
 10
692.666015625
 20
-2360.91796875
 10
692.666015625
 20
-2351.162109375
 10
702.421875
 20
-2341.40625
 10
692.666015625
 20
-2331.650390625
 10
692.666015625
 20
-2321.89453125
 10
692.666015625
 20
-2312.138671875
 10
692.666015625
 20
-2302.3828125
 10
692.666015625
 20
-2292.626953125
 10
692.666015625
 20
-2282.87109375
 10
692.666015625
 20
-2273.115234375
 10
692.666015625
 20
-2263.359375
 10
692.666015625
 20
-2253.603515625
 10
692.666015625
 20
-2243.84765625
 10
692.666015625
 20
-2234.091796875
 10
692.666015625
 20
-2224.3359375
 10
692.666015625
 20
-2214.580078125
 10
692.666015625
 20
-2204.82421875
 10
692.666015625
 20
-2195.068359375
 10
692.666015625
 20
-2185.3125
 10
692.666015625
 20
-2175.556640625
 10
692.666015625
 20
-2165.80078125
 10
692.666015625
 20
-2156.044921875
 10
692.666015625
 20
-2146.2890625
 10
692.666015625
 20
-2136.533203125
 10
692.666015625
 20
-2126.77734375
 10
692.666015625
 20
-2117.021484375
 10
692.666015625
 20
-2107.265625
 10
692.666015625
 20
-2097.509765625
 10
692.666015625
 20
-2087.75390625
 10
692.666015625
 20
-2077.998046875
 10
692.666015625
 20
-2068.2421875
 10
692.666015625
 20
-2058.486328125
 10
692.666015625
 20
-2048.73046875
 10
692.666015625
 20
-2038.974609375
 10
692.666015625
 20
-2029.21875
 10
692.666015625
 20
-2019.462890625
 10
692.666015625
 20
-2009.70703125
 10
692.666015625
 20
-1999.951171875
 10
692.666015625
 20
-1990.1953125
 10
692.666015625
 20
-1980.439453125
 10
692.666015625
 20
-1970.68359375
 10
692.666015625
 20
-1960.927734375
 10
692.666015625
 20
-1951.171875
 10
692.666015625
 20
-1941.416015625
 10
692.666015625
 20
-1931.66015625
 10
692.666015625
 20
-1921.904296875
 10
692.666015625
 20
-1912.1484375
 10
692.666015625
 20
-1902.392578125
 10
692.666015625
 20
-1892.63671875
 10
692.666015625
 20
-1882.880859375
 10
702.421875
 20
-1873.125
 10
712.177734375
 20
-1863.369140625
 10
721.93359375
 20
-1863.369140625
 10
731.689453125
 20
-1863.369140625
 10
741.4453125
 20
-1863.369140625
 10
751.201171875
 20
-1863.369140625
 10
760.95703125
 20
-1863.369140625
 10
770.712890625
 20
-1863.369140625
 10
780.46875
 20
-1863.369140625
 10
790.224609375
 20
-1863.369140625
 10
799.98046875
 20
-1863.369140625
 10
809.736328125
 20
-1863.369140625
 10
819.4921875
 20
-1863.369140625
 10
829.248046875
 20
-1863.369140625
 10
839.00390625
 20
-1863.369140625
 10
848.759765625
 20
-1863.369140625
 10
858.515625
 20
-1863.369140625
 10
868.271484375
 20
-1863.369140625
 10
878.02734375
 20
-1863.369140625
 10
887.783203125
 20
-1863.369140625
 10
897.5390625
 20
-1863.369140625
 10
907.294921875
 20
-1863.369140625
 10
917.05078125
 20
-1863.369140625
 10
926.806640625
 20
-1863.369140625
 10
936.5625
 20
-1863.369140625
 10
946.318359375
 20
-1863.369140625
 10
956.07421875
 20
-1863.369140625
 10
965.830078125
 20
-1863.369140625
 10
975.5859375
 20
-1863.369140625
 10
985.341796875
 20
-1863.369140625
 10
995.09765625
 20
-1863.369140625
 10
1004.853515625
 20
-1863.369140625
 10
1014.609375
 20
-1863.369140625
 10
1024.365234375
 20
-1863.369140625
 10
1034.12109375
 20
-1863.369140625
 10
1043.876953125
 20
-1863.369140625
 10
1053.6328125
 20
-1863.369140625
 10
1063.388671875
 20
-1863.369140625
 10
1073.14453125
 20
-1863.369140625
 10
1082.900390625
 20
-1863.369140625
 10
1092.65625
 20
-1863.369140625
 10
1102.412109375
 20
-1863.369140625
 10
1112.16796875
 20
-1863.369140625
 10
1121.923828125
 20
-1863.369140625
 10
1131.6796875
 20
-1863.369140625
 10
1141.435546875
 20
-1863.369140625
 10
1151.19140625
 20
-1863.369140625
 10
1160.947265625
 20
-1863.369140625
 10
1170.703125
 20
-1863.369140625
 10
1180.458984375
 20
-1863.369140625
 10
1190.21484375
 20
-1863.369140625
 10
1199.970703125
 20
-1863.369140625
 10
1209.7265625
 20
-1863.369140625
 10
1219.482421875
 20
-1863.369140625
 10
1229.23828125
 20
-1863.369140625
 10
1238.994140625
 20
-1863.369140625
 10
1248.75
 20
-1863.369140625
 10
1258.505859375
 20
-1863.369140625
 10
1268.26171875
 20
-1863.369140625
 10
1278.017578125
 20
-1863.369140625
 10
1287.7734375
 20
-1863.369140625
 10
1297.529296875
 20
-1863.369140625
 10
1307.28515625
 20
-1863.369140625
 10
1317.041015625
 20
-1863.369140625
 10
1326.796875
 20
-1863.369140625
 10
1336.552734375
 20
-1863.369140625
 10
1346.30859375
 20
-1863.369140625
 10
1356.064453125
 20
-1863.369140625
 10
1365.8203125
 20
-1863.369140625
 10
1375.576171875
 20
-1863.369140625
 10
1385.33203125
 20
-1863.369140625
 10
1395.087890625
 20
-1863.369140625
 10
1404.84375
 20
-1863.369140625
 10
1414.599609375
 20
-1863.369140625
 10
1424.35546875
 20
-1863.369140625
 10
1434.111328125
 20
-1863.369140625
 10
1443.8671875
 20
-1863.369140625
 10
1453.623046875
 20
-1863.369140625
 10
1463.37890625
 20
-1863.369140625
 10
1473.134765625
 20
-1863.369140625
 10
1482.890625
 20
-1863.369140625
 10
1492.646484375
 20
-1863.369140625
 10
1502.40234375
 20
-1863.369140625
 10
1512.158203125
 20
-1863.369140625
 10
1521.9140625
 20
-1863.369140625
 10
1531.669921875
 20
-1863.369140625
 10
1541.42578125
 20
-1863.369140625
 10
1551.181640625
 20
-1863.369140625
 10
1560.9375
 20
-1863.369140625
 10
1570.693359375
 20
-1863.369140625
 10
1580.44921875
 20
-1863.369140625
 10
1590.205078125
 20
-1863.369140625
 10
1599.9609375
 20
-1863.369140625
 10
1609.716796875
 20
-1863.369140625
 10
1619.47265625
 20
-1863.369140625
 10
1629.228515625
 20
-1863.369140625
 10
1638.984375
 20
-1863.369140625
 10
1648.740234375
 20
-1863.369140625
 10
1658.49609375
 20
-1863.369140625
 10
1668.251953125
 20
-1863.369140625
 10
1678.0078125
 20
-1863.369140625
 10
1687.763671875
 20
-1863.369140625
 10
1697.51953125
 20
-1863.369140625
 10
1707.275390625
 20
-1863.369140625
 10
1717.03125
 20
-1863.369140625
 10
1726.787109375
 20
-1863.369140625
 10
1736.54296875
 20
-1863.369140625
 10
1746.298828125
 20
-1863.369140625
 10
1756.0546875
 20
-1863.369140625
 10
1765.810546875
 20
-1863.369140625
 10
1775.56640625
 20
-1863.369140625
 10
1785.322265625
 20
-1863.369140625
 10
1795.078125
 20
-1863.369140625
 10
1804.833984375
 20
-1863.369140625
 10
1814.58984375
 20
-1863.369140625
 10
1824.345703125
 20
-1863.369140625
 10
1834.1015625
 20
-1863.369140625
 10
1843.857421875
 20
-1863.369140625
 10
1853.61328125
 20
-1863.369140625
 10
1863.369140625
 20
-1863.369140625
 10
1863.369140625
 20
-1853.61328125
 10
1863.369140625
 20
-1843.857421875
 10
1863.369140625
 20
-1834.1015625
 10
1863.369140625
 20
-1824.345703125
 10
1863.369140625
 20
-1814.58984375
 10
1863.369140625
 20
-1804.833984375
 10
1863.369140625
 20
-1795.078125
 10
1863.369140625
 20
-1785.322265625
 10
1863.369140625
 20
-1775.56640625
 10
1863.369140625
 20
-1765.810546875
 10
1863.369140625
 20
-1756.0546875
 10
1863.369140625
 20
-1746.298828125
 10
1863.369140625
 20
-1736.54296875
 10
1863.369140625
 20
-1726.787109375
 10
1863.369140625
 20
-1717.03125
 10
1863.369140625
 20
-1707.275390625
 10
1863.369140625
 20
-1697.51953125
 10
1863.369140625
 20
-1687.763671875
 10
1863.369140625
 20
-1678.0078125
 10
1863.369140625
 20
-1668.251953125
 10
1863.369140625
 20
-1658.49609375
 10
1863.369140625
 20
-1648.740234375
 10
1863.369140625
 20
-1638.984375
 10
1863.369140625
 20
-1629.228515625
 10
1863.369140625
 20
-1619.47265625
 10
1863.369140625
 20
-1609.716796875
 10
1863.369140625
 20
-1599.9609375
 10
1863.369140625
 20
-1590.205078125
 10
1863.369140625
 20
-1580.44921875
 10
1863.369140625
 20
-1570.693359375
 10
1863.369140625
 20
-1560.9375
 10
1863.369140625
 20
-1551.181640625
 10
1863.369140625
 20
-1541.42578125
 10
1863.369140625
 20
-1531.669921875
 10
1863.369140625
 20
-1521.9140625
 10
1863.369140625
 20
-1512.158203125
 10
1863.369140625
 20
-1502.40234375
 10
1863.369140625
 20
-1492.646484375
 10
1863.369140625
 20
-1482.890625
 10
1863.369140625
 20
-1473.134765625
 10
1863.369140625
 20
-1463.37890625
 10
1863.369140625
 20
-1453.623046875
 10
1863.369140625
 20
-1443.8671875
 10
1863.369140625
 20
-1434.111328125
 10
1863.369140625
 20
-1424.35546875
 10
1863.369140625
 20
-1414.599609375
 10
1863.369140625
 20
-1404.84375
 10
1863.369140625
 20
-1395.087890625
 10
1863.369140625
 20
-1385.33203125
 10
1863.369140625
 20
-1375.576171875
 10
1863.369140625
 20
-1365.8203125
 10
1863.369140625
 20
-1356.064453125
 10
1863.369140625
 20
-1346.30859375
 10
1863.369140625
 20
-1336.552734375
 10
1863.369140625
 20
-1326.796875
 10
1863.369140625
 20
-1317.041015625
 10
1863.369140625
 20
-1307.28515625
 10
1863.369140625
 20
-1297.529296875
 10
1863.369140625
 20
-1287.7734375
 10
1863.369140625
 20
-1278.017578125
 10
1863.369140625
 20
-1268.26171875
 10
1863.369140625
 20
-1258.505859375
 10
1863.369140625
 20
-1248.75
 10
1863.369140625
 20
-1238.994140625
 10
1863.369140625
 20
-1229.23828125
 10
1863.369140625
 20
-1219.482421875
 10
1863.369140625
 20
-1209.7265625
 10
1863.369140625
 20
-1199.970703125
 10
1863.369140625
 20
-1190.21484375
 10
1863.369140625
 20
-1180.458984375
 10
1863.369140625
 20
-1170.703125
 10
1863.369140625
 20
-1160.947265625
 10
1863.369140625
 20
-1151.19140625
 10
1863.369140625
 20
-1141.435546875
 10
1863.369140625
 20
-1131.6796875
 10
1863.369140625
 20
-1121.923828125
 10
1863.369140625
 20
-1112.16796875
 10
1863.369140625
 20
-1102.412109375
 10
1863.369140625
 20
-1092.65625
 10
1863.369140625
 20
-1082.900390625
 10
1863.369140625
 20
-1073.14453125
 10
1863.369140625
 20
-1063.388671875
 10
1863.369140625
 20
-1053.6328125
 10
1863.369140625
 20
-1043.876953125
 10
1863.369140625
 20
-1034.12109375
 10
1863.369140625
 20
-1024.365234375
 10
1863.369140625
 20
-1014.609375
 10
1863.369140625
 20
-1004.853515625
 10
1863.369140625
 20
-995.09765625
 10
1863.369140625
 20
-985.341796875
 10
1863.369140625
 20
-975.5859375
 10
1863.369140625
 20
-965.830078125
 10
1863.369140625
 20
-956.07421875
 10
1863.369140625
 20
-946.318359375
 10
1863.369140625
 20
-936.5625
 10
1863.369140625
 20
-926.806640625
 10
1863.369140625
 20
-917.05078125
 10
1863.369140625
 20
-907.294921875
 10
1863.369140625
 20
-897.5390625
 10
1853.61328125
 20
-887.783203125
 10
1863.369140625
 20
-878.02734375
 10
1863.369140625
 20
-868.271484375
 10
1863.369140625
 20
-858.515625
 10
1863.369140625
 20
-848.759765625
 10
1863.369140625
 20
-839.00390625
 10
1863.369140625
 20
-829.248046875
 10
1863.369140625
 20
-819.4921875
 10
1863.369140625
 20
-809.736328125
 10
1863.369140625
 20
-799.98046875
 10
1863.369140625
 20
-790.224609375
 10
1863.369140625
 20
-780.46875
 10
1863.369140625
 20
-770.712890625
 10
1863.369140625
 20
-760.95703125
 10
1863.369140625
 20
-751.201171875
 10
1863.369140625
 20
-741.4453125
 10
1863.369140625
 20
-731.689453125
 10
1863.369140625
 20
-721.93359375
 10
1863.369140625
 20
-712.177734375
 10
1863.369140625
 20
-702.421875
 10
1873.125
 20
-692.666015625
 10
1882.880859375
 20
-692.666015625
 10
1892.63671875
 20
-692.666015625
 10
1902.392578125
 20
-692.666015625
 10
1912.1484375
 20
-692.666015625
 10
1921.904296875
 20
-692.666015625
 10
1931.66015625
 20
-692.666015625
 10
1941.416015625
 20
-692.666015625
 10
1951.171875
 20
-692.666015625
 10
1960.927734375
 20
-692.666015625
 10
1970.68359375
 20
-692.666015625
 10
1980.439453125
 20
-692.666015625
 10
1990.1953125
 20
-692.666015625
 10
1999.951171875
 20
-692.666015625
 10
2009.70703125
 20
-692.666015625
 10
2019.462890625
 20
-692.666015625
 10
2029.21875
 20
-692.666015625
 10
2038.974609375
 20
-692.666015625
 10
2048.73046875
 20
-692.666015625
 10
2058.486328125
 20
-702.421875
 10
2068.2421875
 20
-702.421875
 10
2077.998046875
 20
-692.666015625
 10
2087.75390625
 20
-702.421875
 10
2097.509765625
 20
-692.666015625
 10
2107.265625
 20
-692.666015625
 10
2117.021484375
 20
-692.666015625
 10
2126.77734375
 20
-692.666015625
 10
2136.533203125
 20
-692.666015625
 10
2146.2890625
 20
-692.666015625
 10
2156.044921875
 20
-692.666015625
 10
2165.80078125
 20
-692.666015625
 10
2175.556640625
 20
-692.666015625
 10
2185.3125
 20
-692.666015625
 10
2195.068359375
 20
-692.666015625
 10
2204.82421875
 20
-692.666015625
 10
2214.580078125
 20
-702.421875
 10
2224.3359375
 20
-692.666015625
 10
2234.091796875
 20
-692.666015625
 10
2243.84765625
 20
-692.666015625
 10
2253.603515625
 20
-692.666015625
 10
2263.359375
 20
-692.666015625
 10
2273.115234375
 20
-692.666015625
 10
2282.87109375
 20
-692.666015625
 10
2292.626953125
 20
-692.666015625
 10
2302.3828125
 20
-692.666015625
 10
2312.138671875
 20
-692.666015625
 10
2321.89453125
 20
-692.666015625
 10
2331.650390625
 20
-692.666015625
 10
2341.40625
 20
-692.666015625
 10
2351.162109375
 20
-692.666015625
 10
2360.91796875
 20
-692.666015625
 10
2370.673828125
 20
-692.666015625
 10
2380.4296875
 20
-692.666015625
 10
2390.185546875
 20
-692.666015625
 10
2399.94140625
 20
-692.666015625
 10
2409.697265625
 20
-692.666015625
 10
2419.453125
 20
-692.666015625
 10
2429.208984375
 20
-692.666015625
 10
2438.96484375
 20
-692.666015625
 10
2448.720703125
 20
-692.666015625
 10
2458.4765625
 20
-692.666015625
 10
2468.232421875
 20
-692.666015625
 10
2477.98828125
 20
-692.666015625
 10
2487.744140625
 20
-692.666015625
 10
2497.5
 20
-692.666015625
 10
2507.255859375
 20
-692.666015625
 10
2517.01171875
 20
-692.666015625
 10
2526.767578125
 20
-692.666015625
 10
2536.5234375
 20
-692.666015625
 10
2546.279296875
 20
-692.666015625
 10
2556.03515625
 20
-692.666015625
 10
2565.791015625
 20
-692.666015625
 10
2575.546875
 20
-692.666015625
 10
2585.302734375
 20
-692.666015625
 10
2595.05859375
 20
-692.666015625
 10
2604.814453125
 20
-692.666015625
 10
2614.5703125
 20
-692.666015625
 10
2624.326171875
 20
-692.666015625
 10
2634.08203125
 20
-692.666015625
 10
2643.837890625
 20
-692.666015625
 10
2653.59375
 20
-682.91015625
 10
2663.349609375
 20
-692.666015625
 10
2673.10546875
 20
-682.91015625
 10
2682.861328125
 20
-692.666015625
 10
2692.6171875
 20
-692.666015625
 10
2702.373046875
 20
-692.666015625
 10
2712.12890625
 20
-692.666015625
 10
2721.884765625
 20
-692.666015625
 10
2731.640625
 20
-692.666015625
 10
2741.396484375
 20
-692.666015625
 10
2751.15234375
 20
-692.666015625
 10
2760.908203125
 20
-692.666015625
 10
2770.6640625
 20
-692.666015625
 10
2780.419921875
 20
-692.666015625
 10
2790.17578125
 20
-692.666015625
 10
2799.931640625
 20
-692.666015625
 10
2809.6875
 20
-692.666015625
 10
2819.443359375
 20
-692.666015625
 10
2829.19921875
 20
-692.666015625
 10
2838.955078125
 20
-692.666015625
 10
2848.7109375
 20
-692.666015625
 10
2858.466796875
 20
-692.666015625
 10
2868.22265625
 20
-692.666015625
 10
2877.978515625
 20
-692.666015625
 10
2887.734375
 20
-692.666015625
 10
2897.490234375
 20
-692.666015625
 10
2907.24609375
 20
-692.666015625
 10
2917.001953125
 20
-692.666015625
 10
2926.7578125
 20
-692.666015625
 10
2936.513671875
 20
-692.666015625
 10
2946.26953125
 20
-692.666015625
 10
2956.025390625
 20
-692.666015625
 10
2965.78125
 20
-682.91015625
 10
2975.537109375
 20
-692.666015625
 10
2985.29296875
 20
-692.666015625
 10
2995.048828125
 20
-692.666015625
 10
3004.8046875
 20
-692.666015625
 10
3014.560546875
 20
-692.666015625
 10
3024.31640625
 20
-682.91015625
 10
3034.072265625
 20
-682.91015625
 10
3043.828125
 20
-692.666015625
 10
3053.583984375
 20
-692.666015625
 10
3063.33984375
 20
-692.666015625
 10
3073.095703125
 20
-692.666015625
 10
3082.8515625
 20
-682.91015625
  0
LWPOLYLINE
  5
39
330
17
100
AcDbEntity
  8
substrate
100
AcDbPolyline
 90
16
 70
1
 43
0.5
 10
2595.05859375
 20
-3853.564453125
 10
2595.05859375
 20
-3863.3203125
 10
2595.05859375
 20
-3873.076171875
 10
2585.302734375
 20
-3882.83203125
 10
2585.302734375
 20
-3892.587890625
 10
2595.05859375
 20
-3892.587890625
 10
2604.814453125
 20
-3902.34375
 10
2604.814453125
 20
-3912.099609375
 10
2604.814453125
 20
-3902.34375
 10
2614.5703125
 20
-3892.587890625
 10
2624.326171875
 20
-3892.587890625
 10
2634.08203125
 20
-3892.587890625
 10
2634.08203125
 20
-3882.83203125
 10
2624.326171875
 20
-3882.83203125
 10
2614.5703125
 20
-3873.076171875
 10
2604.814453125
 20
-3863.3203125
  0
LWPOLYLINE
  5
3A
330
17
100
AcDbEntity
  8
substrate
100
AcDbPolyline
 90
1
 70
1
 43
0.5
 10
2917.001953125
 20
-2321.89453125
  0
ENDSEC
  0
SECTION
  2
OBJECTS
  0
DICTIONARY
  5
A
330
0
100
AcDbDictionary
280
0
281
1
  3
ACAD_COLOR
350
B
  3
ACAD_GROUP
350
C
  3
ACAD_LAYOUT
350
D
  3
ACAD_MATERIAL
350
E
  3
ACAD_MLEADERSTYLE
350
F
  3
ACAD_MLINESTYLE
350
10
  3
ACAD_PLOTSETTINGS
350
11
  3
ACAD_PLOTSTYLENAME
350
12
  3
ACAD_SCALELIST
350
14
  3
ACAD_TABLESTYLE
350
15
  3
ACAD_VISUALSTYLE
350
16
  3
EZDXF_META
350
2D
  0
DICTIONARY
  5
B
330
A
100
AcDbDictionary
280
0
281
1
  0
DICTIONARY
  5
C
330
A
100
AcDbDictionary
280
0
281
1
  0
DICTIONARY
  5
D
330
A
100
AcDbDictionary
280
0
281
1
  3
Model
350
1A
  3
Layout1
350
1E
  0
DICTIONARY
  5
E
330
A
100
AcDbDictionary
280
0
281
1
  3
ByBlock
350
1F
  3
ByLayer
350
20
  3
Global
350
21
  0
DICTIONARY
  5
F
330
A
100
AcDbDictionary
280
0
281
1
  3
Standard
350
2C
  0
DICTIONARY
  5
10
330
A
100
AcDbDictionary
280
0
281
1
  3
Standard
350
22
  0
DICTIONARY
  5
11
330
A
100
AcDbDictionary
280
0
281
1
  0
ACDBDICTIONARYWDFLT
  5
12
330
A
100
AcDbDictionary
280
0
281
1
  3
Normal
350
13
100
AcDbDictionaryWithDefault
340
13
  0
ACDBPLACEHOLDER
  5
13
330
12
  0
DICTIONARY
  5
14
330
A
100
AcDbDictionary
280
0
281
1
  0
DICTIONARY
  5
15
330
A
100
AcDbDictionary
280
0
281
1
  0
DICTIONARY
  5
16
330
A
100
AcDbDictionary
280
0
281
1
  0
LAYOUT
  5
1A
330
D
100
AcDbPlotSettings
  1

  2
Adobe PDF
  4
A3
  6

 40
7.5
 41
20.0
 42
7.5
 43
20.0
 44
420.0
 45
297.0
 46
0.0
 47
0.0
 48
0.0
 49
0.0
140
0.0
141
0.0
142
1.0
143
1.0
 70
1024
 72
1
 73
0
 74
5
  7

 75
16
 76
0
 77
2
 78
300
147
1.0
148
0.0
149
0.0
100
AcDbLayout
  1
Model
 70
1
 71
0
 10
0.0
 20
0.0
 11
420.0
 21
297.0
 12
0.0
 22
0.0
 32
0.0
 14
1e+20
 24
1e+20
 34
1e+20
 15
-1e+20
 25
-1e+20
 35
-1e+20
146
0.0
 13
0.0
 23
0.0
 33
0.0
 16
1.0
 26
0.0
 36
0.0
 17
0.0
 27
1.0
 37
0.0
 76
1
330
17
  0
LAYOUT
  5
1E
330
D
100
AcDbPlotSettings
  1

  2
Adobe PDF
  4
A3
  6

 40
7.5
 41
20.0
 42
7.5
 43
20.0
 44
420.0
 45
297.0
 46
0.0
 47
0.0
 48
0.0
 49
0.0
140
0.0
141
0.0
142
1.0
143
1.0
 70
0
 72
1
 73
0
 74
5
  7

 75
16
 76
0
 77
2
 78
300
147
1.0
148
0.0
149
0.0
100
AcDbLayout
  1
Layout1
 70
1
 71
1
 10
0.0
 20
0.0
 11
420.0
 21
297.0
 12
0.0
 22
0.0
 32
0.0
 14
1e+20
 24
1e+20
 34
1e+20
 15
-1e+20
 25
-1e+20
 35
-1e+20
146
0.0
 13
0.0
 23
0.0
 33
0.0
 16
1.0
 26
0.0
 36
0.0
 17
0.0
 27
1.0
 37
0.0
 76
1
330
1B
  0
MATERIAL
  5
1F
102
{ACAD_REACTORS
330
E
102
}
330
E
100
AcDbMaterial
  1
ByBlock
  2

 70
0
 40
1.0
 71
1
 41
1.0
 91
-1023410177
 42
1.0
 72
1
  3

 73
1
 74
1
 75
1
 44
0.5
 73
0
 45
1.0
 46
1.0
 77
1
  4

 78
1
 79
1
170
1
 48
1.0
171
1
  6

172
1
173
1
174
1
140
1.0
141
1.0
175
1
  7

176
1
177
1
178
1
143
1.0
179
1
  8

270
1
271
1
272
1
145
1.0
146
1.0
273
1
  9

274
1
275
1
276
1
 42
1.0
 72
1
  3

 73
1
 74
1
 75
1
 94
63
  0
MATERIAL
  5
20
102
{ACAD_REACTORS
330
E
102
}
330
E
100
AcDbMaterial
  1
ByLayer
  2

 70
0
 40
1.0
 71
1
 41
1.0
 91
-1023410177
 42
1.0
 72
1
  3

 73
1
 74
1
 75
1
 44
0.5
 73
0
 45
1.0
 46
1.0
 77
1
  4

 78
1
 79
1
170
1
 48
1.0
171
1
  6

172
1
173
1
174
1
140
1.0
141
1.0
175
1
  7

176
1
177
1
178
1
143
1.0
179
1
  8

270
1
271
1
272
1
145
1.0
146
1.0
273
1
  9

274
1
275
1
276
1
 42
1.0
 72
1
  3

 73
1
 74
1
 75
1
 94
63
  0
MATERIAL
  5
21
102
{ACAD_REACTORS
330
E
102
}
330
E
100
AcDbMaterial
  1
Global
  2

 70
0
 40
1.0
 71
1
 41
1.0
 91
-1023410177
 42
1.0
 72
1
  3

 73
1
 74
1
 75
1
 44
0.5
 73
0
 45
1.0
 46
1.0
 77
1
  4

 78
1
 79
1
170
1
 48
1.0
171
1
  6

172
1
173
1
174
1
140
1.0
141
1.0
175
1
  7

176
1
177
1
178
1
143
1.0
179
1
  8

270
1
271
1
272
1
145
1.0
146
1.0
273
1
  9

274
1
275
1
276
1
 42
1.0
 72
1
  3

 73
1
 74
1
 75
1
 94
63
  0
MLINESTYLE
  5
22
102
{ACAD_REACTORS
330
10
102
}
330
10
100
AcDbMlineStyle
  2
Standard
 70
0
  3

 62
256
 51
90.0
 52
90.0
 71
2
 49
0.5
 62
256
  6
BYLAYER
 49
-0.5
 62
256
  6
BYLAYER
  0
MLEADERSTYLE
  5
2C
102
{ACAD_REACTORS
330
F
102
}
330
F
100
AcDbMLeaderStyle
179
2
170
2
171
1
172
0
 90
2
 40
0.0
 41
0.0
173
1
 91
-1056964608
 92
-2
290
1
 42
2.0
291
1
 43
8.0
  3
Standard
 44
4.0
300

342
29
174
1
175
1
176
0
178
1
 93
-1056964608
 45
4.0
292
0
297
0
 46
4.0
 94
-1056964608
 47
1.0
 49
1.0
140
1.0
294
1
141
0.0
177
0
142
1.0
295
0
296
0
143
3.75
271
0
272
9
273
9
  0
DICTIONARY
  5
2D
330
A
100
AcDbDictionary
281
1
  3
CREATED_BY_EZDXF
350
2E
  3
WRITTEN_BY_EZDXF
350
3D
  0
DICTIONARYVAR
  5
2E
330
2D
100
DictionaryVariables
280
0
  1
1.1.0 @ 2025-01-07T12:32:49.446668+00:00
  0
DICTIONARYVAR
  5
3D
330
2D
100
DictionaryVariables
280
0
  1
1.1.0 @ 2025-01-07T12:32:49.455616+00:00
  0
ENDSEC
  0
EOF
