  0
SECTION
  2
HEADER
  9
$ACADVER
  1
AC1027
  9
$ACADMAINTVER
 70
105
  9
$DWGCODEPAGE
  3
ANSI_1252
  9
$LASTSAVEDBY
  1
ezdxf
  9
$REQUIREDVERSIONS
160
0
  9
$INSBASE
 10
0.0
 20
0.0
 30
0.0
  9
$EXTMIN
 10
1e+20
 20
1e+20
 30
1e+20
  9
$EXTMAX
 10
-1e+20
 20
-1e+20
 30
-1e+20
  9
$LIMMIN
 10
0.0
 20
0.0
  9
$LIMMAX
 10
420.0
 20
297.0
  9
$ORTHOMODE
 70
0
  9
$REGENMODE
 70
1
  9
$FILLMODE
 70
1
  9
$QTEXTMODE
 70
0
  9
$MIRRTEXT
 70
1
  9
$LTSCALE
 40
1.0
  9
$ATTMODE
 70
1
  9
$TEXTSIZE
 40
2.5
  9
$TRACEWID
 40
1.0
  9
$TEXTSTYLE
  7
Standard
  9
$CLAYER
  8
0
  9
$CELTYPE
  6
ByLayer
  9
$CECOLOR
 62
256
  9
$CELTSCALE
 40
1.0
  9
$DISPSILH
 70
0
  9
$DIMSCALE
 40
1.0
  9
$DIMASZ
 40
2.5
  9
$DIMEXO
 40
0.625
  9
$DIMDLI
 40
3.75
  9
$DIMRND
 40
0.0
  9
$DIMDLE
 40
0.0
  9
$DIMEXE
 40
1.25
  9
$DIMTP
 40
0.0
  9
$DIMTM
 40
0.0
  9
$DIMTXT
 40
2.5
  9
$DIMCEN
 40
2.5
  9
$DIMTSZ
 40
0.0
  9
$DIMTOL
 70
0
  9
$DIMLIM
 70
0
  9
$DIMTIH
 70
0
  9
$DIMTOH
 70
0
  9
$DIMSE1
 70
0
  9
$DIMSE2
 70
0
  9
$DIMTAD
 70
1
  9
$DIMZIN
 70
8
  9
$DIMBLK
  1

  9
$DIMASO
 70
1
  9
$DIMSHO
 70
1
  9
$DIMPOST
  1

  9
$DIMAPOST
  1

  9
$DIMALT
 70
0
  9
$DIMALTD
 70
3
  9
$DIMALTF
 40
0.03937007874
  9
$DIMLFAC
 40
1.0
  9
$DIMTOFL
 70
1
  9
$DIMTVP
 40
0.0
  9
$DIMTIX
 70
0
  9
$DIMSOXD
 70
0
  9
$DIMSAH
 70
0
  9
$DIMBLK1
  1

  9
$DIMBLK2
  1

  9
$DIMSTYLE
  2
ISO-25
  9
$DIMCLRD
 70
0
  9
$DIMCLRE
 70
0
  9
$DIMCLRT
 70
0
  9
$DIMTFAC
 40
1.0
  9
$DIMGAP
 40
0.625
  9
$DIMJUST
 70
0
  9
$DIMSD1
 70
0
  9
$DIMSD2
 70
0
  9
$DIMTOLJ
 70
0
  9
$DIMTZIN
 70
8
  9
$DIMALTZ
 70
0
  9
$DIMALTTZ
 70
0
  9
$DIMUPT
 70
0
  9
$DIMDEC
 70
2
  9
$DIMTDEC
 70
2
  9
$DIMALTU
 70
2
  9
$DIMALTTD
 70
3
  9
$DIMTXSTY
  7
Standard
  9
$DIMAUNIT
 70
0
  9
$DIMADEC
 70
0
  9
$DIMALTRND
 40
0.0
  9
$DIMAZIN
 70
0
  9
$DIMDSEP
 70
44
  9
$DIMATFIT
 70
3
  9
$DIMFRAC
 70
0
  9
$DIMLDRBLK
  1

  9
$DIMLUNIT
 70
2
  9
$DIMLWD
 70
-2
  9
$DIMLWE
 70
-2
  9
$DIMTMOVE
 70
0
  9
$DIMFXL
 40
1.0
  9
$DIMFXLON
 70
0
  9
$DIMJOGANG
 40
0.785398163397
  9
$DIMTFILL
 70
0
  9
$DIMTFILLCLR
 70
0
  9
$DIMARCSYM
 70
0
  9
$DIMLTYPE
  6

  9
$DIMLTEX1
  6

  9
$DIMLTEX2
  6

  9
$DIMTXTDIRECTION
 70
0
  9
$LUNITS
 70
2
  9
$LUPREC
 70
4
  9
$SKETCHINC
 40
1.0
  9
$FILLETRAD
 40
10.0
  9
$AUNITS
 70
0
  9
$AUPREC
 70
2
  9
$MENU
  1
.
  9
$ELEVATION
 40
0.0
  9
$PELEVATION
 40
0.0
  9
$THICKNESS
 40
0.0
  9
$LIMCHECK
 70
0
  9
$CHAMFERA
 40
0.0
  9
$CHAMFERB
 40
0.0
  9
$CHAMFERC
 40
0.0
  9
$CHAMFERD
 40
0.0
  9
$SKPOLY
 70
0
  9
$TDCREATE
 40
2460709.9332291665
  9
$TDUCREATE
 40
2458532.153996898
  9
$TDUPDATE
 40
2460709.9332291665
  9
$TDUUPDATE
 40
2458532.1544311
  9
$TDINDWG
 40
0.0
  9
$TDUSRTIMER
 40
0.0
  9
$USRTIMER
 70
1
  9
$ANGBASE
 50
0.0
  9
$ANGDIR
 70
0
  9
$PDMODE
 70
0
  9
$PDSIZE
 40
0.0
  9
$PLINEWID
 40
0.0
  9
$SPLFRAME
 70
0
  9
$SPLINETYPE
 70
6
  9
$SPLINESEGS
 70
8
  9
$HANDSEED
  5
39
  9
$SURFTAB1
 70
6
  9
$SURFTAB2
 70
6
  9
$SURFTYPE
 70
6
  9
$SURFU
 70
6
  9
$SURFV
 70
6
  9
$UCSBASE
  2

  9
$UCSNAME
  2

  9
$UCSORG
 10
0.0
 20
0.0
 30
0.0
  9
$UCSXDIR
 10
1.0
 20
0.0
 30
0.0
  9
$UCSYDIR
 10
0.0
 20
1.0
 30
0.0
  9
$UCSORTHOREF
  2

  9
$UCSORTHOVIEW
 70
0
  9
$UCSORGTOP
 10
0.0
 20
0.0
 30
0.0
  9
$UCSORGBOTTOM
 10
0.0
 20
0.0
 30
0.0
  9
$UCSORGLEFT
 10
0.0
 20
0.0
 30
0.0
  9
$UCSORGRIGHT
 10
0.0
 20
0.0
 30
0.0
  9
$UCSORGFRONT
 10
0.0
 20
0.0
 30
0.0
  9
$UCSORGBACK
 10
0.0
 20
0.0
 30
0.0
  9
$PUCSBASE
  2

  9
$PUCSNAME
  2

  9
$PUCSORG
 10
0.0
 20
0.0
 30
0.0
  9
$PUCSXDIR
 10
1.0
 20
0.0
 30
0.0
  9
$PUCSYDIR
 10
0.0
 20
1.0
 30
0.0
  9
$PUCSORTHOREF
  2

  9
$PUCSORTHOVIEW
 70
0
  9
$PUCSORGTOP
 10
0.0
 20
0.0
 30
0.0
  9
$PUCSORGBOTTOM
 10
0.0
 20
0.0
 30
0.0
  9
$PUCSORGLEFT
 10
0.0
 20
0.0
 30
0.0
  9
$PUCSORGRIGHT
 10
0.0
 20
0.0
 30
0.0
  9
$PUCSORGFRONT
 10
0.0
 20
0.0
 30
0.0
  9
$PUCSORGBACK
 10
0.0
 20
0.0
 30
0.0
  9
$USERI1
 70
0
  9
$USERI2
 70
0
  9
$USERI3
 70
0
  9
$USERI4
 70
0
  9
$USERI5
 70
0
  9
$USERR1
 40
0.0
  9
$USERR2
 40
0.0
  9
$USERR3
 40
0.0
  9
$USERR4
 40
0.0
  9
$USERR5
 40
0.0
  9
$WORLDVIEW
 70
1
  9
$SHADEDGE
 70
3
  9
$SHADEDIF
 70
70
  9
$TILEMODE
 70
1
  9
$MAXACTVP
 70
64
  9
$PINSBASE
 10
0.0
 20
0.0
 30
0.0
  9
$PLIMCHECK
 70
0
  9
$PEXTMIN
 10
1e+20
 20
1e+20
 30
1e+20
  9
$PEXTMAX
 10
-1e+20
 20
-1e+20
 30
-1e+20
  9
$PLIMMIN
 10
0.0
 20
0.0
  9
$PLIMMAX
 10
420.0
 20
297.0
  9
$UNITMODE
 70
0
  9
$VISRETAIN
 70
1
  9
$PLINEGEN
 70
0
  9
$PSLTSCALE
 70
1
  9
$TREEDEPTH
 70
3020
  9
$CMLSTYLE
  2
Standard
  9
$CMLJUST
 70
0
  9
$CMLSCALE
 40
20.0
  9
$PROXYGRAPHICS
 70
1
  9
$MEASUREMENT
 70
1
  9
$CELWEIGHT
370
-1
  9
$ENDCAPS
280
0
  9
$JOINSTYLE
280
0
  9
$LWDISPLAY
290
0
  9
$INSUNITS
 70
6
  9
$HYPERLINKBASE
  1

  9
$STYLESHEET
  1

  9
$XEDIT
290
1
  9
$CEPSNTYPE
380
0
  9
$PSTYLEMODE
290
1
  9
$FINGERPRINTGUID
  2
{F158CD79-3D4E-49FB-A245-7DB308927B11}
  9
$VERSIONGUID
  2
{8EDECFC5-C9B0-4A75-B238-5215E1F2B33A}
  9
$EXTNAMES
290
1
  9
$PSVPSCALE
 40
0.0
  9
$OLESTARTUP
290
0
  9
$SORTENTS
280
127
  9
$INDEXCTL
280
0
  9
$HIDETEXT
280
1
  9
$XCLIPFRAME
280
0
  9
$HALOGAP
280
0
  9
$OBSCOLOR
 70
257
  9
$OBSLTYPE
280
0
  9
$INTERSECTIONDISPLAY
280
0
  9
$INTERSECTIONCOLOR
 70
257
  9
$DIMASSOC
280
2
  9
$PROJECTNAME
  1

  9
$CAMERADISPLAY
290
0
  9
$LENSLENGTH
 40
50.0
  9
$CAMERAHEIGHT
 40
0.0
  9
$STEPSPERSEC
 40
24.0
  9
$STEPSIZE
 40
100.0
  9
$3DDWFPREC
 40
2.0
  9
$PSOLWIDTH
 40
0.005
  9
$PSOLHEIGHT
 40
0.08
  9
$LOFTANG1
 40
1.570796326795
  9
$LOFTANG2
 40
1.570796326795
  9
$LOFTMAG1
 40
0.0
  9
$LOFTMAG2
 40
0.0
  9
$LOFTPARAM
 70
7
  9
$LOFTNORMALS
280
1
  9
$LATITUDE
 40
37.795
  9
$LONGITUDE
 40
-122.394
  9
$NORTHDIRECTION
 40
0.0
  9
$TIMEZONE
 70
-8000
  9
$LIGHTGLYPHDISPLAY
280
1
  9
$TILEMODELIGHTSYNCH
280
1
  9
$CMATERIAL
347
20
  9
$SOLIDHIST
280
0
  9
$SHOWHIST
280
1
  9
$DWFFRAME
280
2
  9
$DGNFRAME
280
2
  9
$REALWORLDSCALE
290
1
  9
$INTERFERECOLOR
 62
256
  9
$CSHADOW
280
0
  9
$SHADOWPLANELOCATION
 40
0.0
  0
ENDSEC
  0
SECTION
  2
CLASSES
  0
CLASS
  1
ACDBDICTIONARYWDFLT
  2
AcDbDictionaryWithDefault
  3
ObjectDBX Classes
 90
0
 91
0
280
0
281
0
  0
CLASS
  1
SUN
  2
AcDbSun
  3
SCENEOE
 90
1153
 91
0
280
0
281
0
  0
CLASS
  1
VISUALSTYLE
  2
AcDbVisualStyle
  3
ObjectDBX Classes
 90
4095
 91
0
280
0
281
0
  0
CLASS
  1
MATERIAL
  2
AcDbMaterial
  3
ObjectDBX Classes
 90
1153
 91
0
280
0
281
0
  0
CLASS
  1
SCALE
  2
AcDbScale
  3
ObjectDBX Classes
 90
1153
 91
0
280
0
281
0
  0
CLASS
  1
TABLESTYLE
  2
AcDbTableStyle
  3
ObjectDBX Classes
 90
4095
 91
0
280
0
281
0
  0
CLASS
  1
MLEADERSTYLE
  2
AcDbMLeaderStyle
  3
ACDB_MLEADERSTYLE_CLASS
 90
4095
 91
0
280
0
281
0
  0
CLASS
  1
DICTIONARYVAR
  2
AcDbDictionaryVar
  3
ObjectDBX Classes
 90
0
 91
0
280
0
281
0
  0
CLASS
  1
CELLSTYLEMAP
  2
AcDbCellStyleMap
  3
ObjectDBX Classes
 90
1152
 91
0
280
0
281
0
  0
CLASS
  1
MENTALRAYRENDERSETTINGS
  2
AcDbMentalRayRenderSettings
  3
SCENEOE
 90
1024
 91
0
280
0
281
0
  0
CLASS
  1
ACDBDETAILVIEWSTYLE
  2
AcDbDetailViewStyle
  3
ObjectDBX Classes
 90
1025
 91
0
280
0
281
0
  0
CLASS
  1
ACDBSECTIONVIEWSTYLE
  2
AcDbSectionViewStyle
  3
ObjectDBX Classes
 90
1025
 91
0
280
0
281
0
  0
CLASS
  1
RASTERVARIABLES
  2
AcDbRasterVariables
  3
ISM
 90
0
 91
0
280
0
281
0
  0
CLASS
  1
ACDBPLACEHOLDER
  2
AcDbPlaceHolder
  3
ObjectDBX Classes
 90
0
 91
0
280
0
281
0
  0
CLASS
  1
LAYOUT
  2
AcDbLayout
  3
ObjectDBX Classes
 90
0
 91
0
280
0
281
0
  0
ENDSEC
  0
SECTION
  2
TABLES
  0
TABLE
  2
VPORT
  5
8
330
0
100
AcDbSymbolTable
 70
1
  0
VPORT
  5
23
330
8
100
AcDbSymbolTableRecord
100
AcDbViewportTableRecord
  2
*Active
 70
0
 10
0.0
 20
0.0
 11
1.0
 21
1.0
 12
0.0
 22
0.0
 13
0.0
 23
0.0
 14
0.5
 24
0.5
 15
0.5
 25
0.5
 16
0.0
 26
0.0
 36
1.0
 17
0.0
 27
0.0
 37
0.0
 40
1000.0
 41
1.34
 42
50.0
 43
0.0
 44
0.0
 50
0.0
 51
0.0
 71
0
 72
1000
 73
1
 74
3
 75
0
 76
0
 77
0
 78
0
281
0
 65
0
146
0.0
  0
ENDTAB
  0
TABLE
  2
LTYPE
  5
2
330
0
100
AcDbSymbolTable
 70
3
  0
LTYPE
  5
24
330
2
100
AcDbSymbolTableRecord
100
AcDbLinetypeTableRecord
  2
ByBlock
 70
0
  3

 72
65
 73
0
 40
0.0
  0
LTYPE
  5
25
330
2
100
AcDbSymbolTableRecord
100
AcDbLinetypeTableRecord
  2
ByLayer
 70
0
  3

 72
65
 73
0
 40
0.0
  0
LTYPE
  5
26
330
2
100
AcDbSymbolTableRecord
100
AcDbLinetypeTableRecord
  2
Continuous
 70
0
  3

 72
65
 73
0
 40
0.0
  0
ENDTAB
  0
TABLE
  2
LAYER
  5
1
330
0
100
AcDbSymbolTable
 70
5
  0
LAYER
  5
27
330
1
100
AcDbSymbolTableRecord
100
AcDbLayerTableRecord
  2
0
 70
0
 62
7
  6
Continuous
370
-3
390
13
347
21
  0
LAYER
  5
28
330
1
100
AcDbSymbolTableRecord
100
AcDbLayerTableRecord
  2
Defpoints
 70
0
 62
7
  6
Continuous
290
0
370
-3
390
13
347
21
  0
LAYER
  5
2F
330
1
100
AcDbSymbolTableRecord
100
AcDbLayerTableRecord
  2
conductor
 70
0
 62
1
  6
Continuous
370
-3
390
13
347
21
  0
LAYER
  5
30
330
1
100
AcDbSymbolTableRecord
100
AcDbLayerTableRecord
  2
dielectric
 70
0
 62
8
  6
Continuous
370
-3
390
13
347
21
  0
LAYER
  5
31
330
1
100
AcDbSymbolTableRecord
100
AcDbLayerTableRecord
  2
substrate
 70
0
 62
5
  6
Continuous
370
-3
390
13
347
21
  0
ENDTAB
  0
TABLE
  2
STYLE
  5
5
330
0
100
AcDbSymbolTable
 70
1
  0
STYLE
  5
29
330
5
100
AcDbSymbolTableRecord
100
AcDbTextStyleTableRecord
  2
Standard
 70
0
 40
0.0
 41
1.0
 50
0.0
 71
0
 42
2.5
  3
txt
  4

  0
ENDTAB
  0
TABLE
  2
VIEW
  5
7
330
0
100
AcDbSymbolTable
 70
0
  0
ENDTAB
  0
TABLE
  2
UCS
  5
6
330
0
100
AcDbSymbolTable
 70
0
  0
ENDTAB
  0
TABLE
  2
APPID
  5
3
330
0
100
AcDbSymbolTable
 70
3
  0
APPID
  5
2A
330
3
100
AcDbSymbolTableRecord
100
AcDbRegAppTableRecord
  2
ACAD
 70
0
  0
APPID
  5
36
330
3
100
AcDbSymbolTableRecord
100
AcDbRegAppTableRecord
  2
HATCHBACKGROUNDCOLOR
 70
0
  0
APPID
  5
37
330
3
100
AcDbSymbolTableRecord
100
AcDbRegAppTableRecord
  2
EZDXF
 70
0
  0
ENDTAB
  0
TABLE
  2
DIMSTYLE
  5
4
330
0
100
AcDbSymbolTable
 70
1
100
AcDbDimStyleTable
  0
DIMSTYLE
105
2B
330
4
100
AcDbSymbolTableRecord
100
AcDbDimStyleTableRecord
  2
Standard
 70
0
 40
1.0
 41
2.5
 42
0.625
 43
3.75
 44
1.25
 45
0.0
 46
0.0
 47
0.0
 48
0.0
 49
2.5
140
2.5
141
2.5
142
0.0
143
0.03937007874
144
1.0
145
0.0
146
1.0
147
0.625
148
0.0
 69
0
 70
0
 71
0
 72
0
 73
0
 74
0
 75
0
 76
0
 77
1
 78
8
 79
3
170
0
171
3
172
1
173
0
174
0
175
0
176
0
177
0
178
0
179
2
271
2
272
2
273
2
274
3
275
0
276
0
277
2
278
44
279
0
280
0
281
0
282
0
283
0
284
8
285
0
286
0
288
0
289
3
290
0
371
-2
372
-2
  0
ENDTAB
  0
TABLE
  2
BLOCK_RECORD
  5
9
330
0
100
AcDbSymbolTable
 70
2
  0
BLOCK_RECORD
  5
17
330
9
100
AcDbSymbolTableRecord
100
AcDbBlockTableRecord
  2
*Model_Space
340
1A
 70
0
280
1
281
0
  0
BLOCK_RECORD
  5
1B
330
9
100
AcDbSymbolTableRecord
100
AcDbBlockTableRecord
  2
*Paper_Space
340
1E
 70
0
280
1
281
0
  0
ENDTAB
  0
ENDSEC
  0
SECTION
  2
BLOCKS
  0
BLOCK
  5
18
330
17
100
AcDbEntity
  8
0
100
AcDbBlockBegin
  2
*Model_Space
 70
0
 10
0.0
 20
0.0
 30
0.0
  3
*Model_Space
  1

  0
ENDBLK
  5
19
330
17
100
AcDbEntity
  8
0
100
AcDbBlockEnd
  0
BLOCK
  5
1C
330
1B
100
AcDbEntity
  8
0
100
AcDbBlockBegin
  2
*Paper_Space
 70
0
 10
0.0
 20
0.0
 30
0.0
  3
*Paper_Space
  1

  0
ENDBLK
  5
1D
330
1B
100
AcDbEntity
  8
0
100
AcDbBlockEnd
  0
ENDSEC
  0
SECTION
  2
ENTITIES
  0
LWPOLYLINE
  5
32
330
17
100
AcDbEntity
  8
conductor
100
AcDbPolyline
 90
250
 70
1
 43
0.5
 10
2444.6953125
 20
-2056.6484375
 10
2434.994140625
 20
-2066.349609375
 10
2425.29296875
 20
-2066.349609375
 10
2415.591796875
 20
-2066.349609375
 10
2405.890625
 20
-2076.05078125
 10
2396.189453125
 20
-2076.05078125
 10
2386.48828125
 20
-2076.05078125
 10
2376.787109375
 20
-2076.05078125
 10
2367.0859375
 20
-2085.751953125
 10
2357.384765625
 20
-2085.751953125
 10
2347.68359375
 20
-2085.751953125
 10
2337.982421875
 20
-2085.751953125
 10
2328.28125
 20
-2095.453125
 10
2318.580078125
 20
-2105.154296875
 10
2308.87890625
 20
-2105.154296875
 10
2299.177734375
 20
-2114.85546875
 10
2289.4765625
 20
-2114.85546875
 10
2279.775390625
 20
-2114.85546875
 10
2270.07421875
 20
-2124.556640625
 10
2260.373046875
 20
-2134.2578125
 10
2250.671875
 20
-2143.958984375
 10
2240.970703125
 20
-2143.958984375
 10
2231.26953125
 20
-2143.958984375
 10
2221.568359375
 20
-2153.66015625
 10
2211.8671875
 20
-2163.361328125
 10
2202.166015625
 20
-2173.0625
 10
2192.46484375
 20
-2173.0625
 10
2182.763671875
 20
-2182.763671875
 10
2173.0625
 20
-2192.46484375
 10
2173.0625
 20
-2202.166015625
 10
2163.361328125
 20
-2211.8671875
 10
2153.66015625
 20
-2211.8671875
 10
2143.958984375
 20
-2221.568359375
 10
2134.2578125
 20
-2231.26953125
 10
2134.2578125
 20
-2240.970703125
 10
2124.556640625
 20
-2250.671875
 10
2124.556640625
 20
-2260.373046875
 10
2114.85546875
 20
-2270.07421875
 10
2114.85546875
 20
-2279.775390625
 10
2105.154296875
 20
-2289.4765625
 10
2105.154296875
 20
-2299.177734375
 10
2095.453125
 20
-2308.87890625
 10
2095.453125
 20
-2318.580078125
 10
2095.453125
 20
-2328.28125
 10
2095.453125
 20
-2337.982421875
 10
2085.751953125
 20
-2347.68359375
 10
2085.751953125
 20
-2357.384765625
 10
2085.751953125
 20
-2367.0859375
 10
2085.751953125
 20
-2376.787109375
 10
2076.05078125
 20
-2386.48828125
 10
2085.751953125
 20
-2396.189453125
 10
2076.05078125
 20
-2405.890625
 10
2085.751953125
 20
-2415.591796875
 10
2076.05078125
 20
-2425.29296875
 10
2076.05078125
 20
-2434.994140625
 10
2076.05078125
 20
-2444.6953125
 10
2076.05078125
 20
-2454.396484375
 10
2076.05078125
 20
-2464.09765625
 10
2076.05078125
 20
-2473.798828125
 10
2076.05078125
 20
-2483.5
 10
2066.349609375
 20
-2493.201171875
 10
2066.349609375
 20
-2502.90234375
 10
2066.349609375
 20
-2512.603515625
 10
2066.349609375
 20
-2522.3046875
 10
2066.349609375
 20
-2532.005859375
 10
2066.349609375
 20
-2541.70703125
 10
2066.349609375
 20
-2551.408203125
 10
2066.349609375
 20
-2561.109375
 10
2076.05078125
 20
-2570.810546875
 10
2076.05078125
 20
-2580.51171875
 10
2076.05078125
 20
-2590.212890625
 10
2085.751953125
 20
-2599.9140625
 10
2085.751953125
 20
-2609.615234375
 10
2085.751953125
 20
-2619.31640625
 10
2095.453125
 20
-2629.017578125
 10
2095.453125
 20
-2638.71875
 10
2095.453125
 20
-2648.419921875
 10
2105.154296875
 20
-2658.12109375
 10
2105.154296875
 20
-2667.822265625
 10
2114.85546875
 20
-2677.5234375
 10
2114.85546875
 20
-2687.224609375
 10
2124.556640625
 20
-2696.92578125
 10
2124.556640625
 20
-2706.626953125
 10
2134.2578125
 20
-2716.328125
 10
2143.958984375
 20
-2726.029296875
 10
2143.958984375
 20
-2735.73046875
 10
2153.66015625
 20
-2745.431640625
 10
2163.361328125
 20
-2755.1328125
 10
2173.0625
 20
-2764.833984375
 10
2182.763671875
 20
-2774.53515625
 10
2192.46484375
 20
-2784.236328125
 10
2202.166015625
 20
-2793.9375
 10
2211.8671875
 20
-2803.638671875
 10
2221.568359375
 20
-2813.33984375
 10
2231.26953125
 20
-2813.33984375
 10
2240.970703125
 20
-2823.041015625
 10
2250.671875
 20
-2832.7421875
 10
2260.373046875
 20
-2832.7421875
 10
2270.07421875
 20
-2842.443359375
 10
2279.775390625
 20
-2852.14453125
 10
2289.4765625
 20
-2861.845703125
 10
2299.177734375
 20
-2861.845703125
 10
2308.87890625
 20
-2861.845703125
 10
2318.580078125
 20
-2871.546875
 10
2328.28125
 20
-2871.546875
 10
2337.982421875
 20
-2871.546875
 10
2347.68359375
 20
-2881.248046875
 10
2357.384765625
 20
-2881.248046875
 10
2367.0859375
 20
-2881.248046875
 10
2376.787109375
 20
-2881.248046875
 10
2386.48828125
 20
-2890.94921875
 10
2396.189453125
 20
-2890.94921875
 10
2405.890625
 20
-2890.94921875
 10
2415.591796875
 20
-2890.94921875
 10
2425.29296875
 20
-2890.94921875
 10
2434.994140625
 20
-2890.94921875
 10
2444.6953125
 20
-2890.94921875
 10
2454.396484375
 20
-2890.94921875
 10
2464.09765625
 20
-2900.650390625
 10
2473.798828125
 20
-2890.94921875
 10
2483.5
 20
-2890.94921875
 10
2493.201171875
 20
-2890.94921875
 10
2502.90234375
 20
-2890.94921875
 10
2512.603515625
 20
-2890.94921875
 10
2522.3046875
 20
-2890.94921875
 10
2532.005859375
 20
-2890.94921875
 10
2541.70703125
 20
-2890.94921875
 10
2551.408203125
 20
-2890.94921875
 10
2561.109375
 20
-2890.94921875
 10
2570.810546875
 20
-2881.248046875
 10
2580.51171875
 20
-2881.248046875
 10
2590.212890625
 20
-2881.248046875
 10
2599.9140625
 20
-2881.248046875
 10
2609.615234375
 20
-2881.248046875
 10
2619.31640625
 20
-2871.546875
 10
2629.017578125
 20
-2871.546875
 10
2638.71875
 20
-2861.845703125
 10
2648.419921875
 20
-2861.845703125
 10
2658.12109375
 20
-2852.14453125
 10
2667.822265625
 20
-2852.14453125
 10
2677.5234375
 20
-2852.14453125
 10
2687.224609375
 20
-2842.443359375
 10
2696.92578125
 20
-2832.7421875
 10
2706.626953125
 20
-2832.7421875
 10
2716.328125
 20
-2823.041015625
 10
2726.029296875
 20
-2813.33984375
 10
2735.73046875
 20
-2803.638671875
 10
2745.431640625
 20
-2803.638671875
 10
2745.431640625
 20
-2793.9375
 10
2755.1328125
 20
-2784.236328125
 10
2764.833984375
 20
-2774.53515625
 10
2774.53515625
 20
-2764.833984375
 10
2784.236328125
 20
-2764.833984375
 10
2793.9375
 20
-2755.1328125
 10
2803.638671875
 20
-2745.431640625
 10
2813.33984375
 20
-2735.73046875
 10
2823.041015625
 20
-2726.029296875
 10
2832.7421875
 20
-2716.328125
 10
2832.7421875
 20
-2706.626953125
 10
2832.7421875
 20
-2696.92578125
 10
2842.443359375
 20
-2687.224609375
 10
2842.443359375
 20
-2677.5234375
 10
2852.14453125
 20
-2667.822265625
 10
2852.14453125
 20
-2658.12109375
 10
2861.845703125
 20
-2648.419921875
 10
2861.845703125
 20
-2638.71875
 10
2861.845703125
 20
-2629.017578125
 10
2871.546875
 20
-2619.31640625
 10
2871.546875
 20
-2609.615234375
 10
2871.546875
 20
-2599.9140625
 10
2871.546875
 20
-2590.212890625
 10
2881.248046875
 20
-2580.51171875
 10
2881.248046875
 20
-2570.810546875
 10
2881.248046875
 20
-2561.109375
 10
2890.94921875
 20
-2551.408203125
 10
2890.94921875
 20
-2541.70703125
 10
2890.94921875
 20
-2532.005859375
 10
2890.94921875
 20
-2522.3046875
 10
2900.650390625
 20
-2512.603515625
 10
2890.94921875
 20
-2502.90234375
 10
2900.650390625
 20
-2493.201171875
 10
2900.650390625
 20
-2483.5
 10
2900.650390625
 20
-2473.798828125
 10
2890.94921875
 20
-2464.09765625
 10
2890.94921875
 20
-2454.396484375
 10
2890.94921875
 20
-2444.6953125
 10
2890.94921875
 20
-2434.994140625
 10
2890.94921875
 20
-2425.29296875
 10
2890.94921875
 20
-2415.591796875
 10
2890.94921875
 20
-2405.890625
 10
2890.94921875
 20
-2396.189453125
 10
2890.94921875
 20
-2386.48828125
 10
2881.248046875
 20
-2376.787109375
 10
2881.248046875
 20
-2367.0859375
 10
2881.248046875
 20
-2357.384765625
 10
2881.248046875
 20
-2347.68359375
 10
2871.546875
 20
-2337.982421875
 10
2871.546875
 20
-2328.28125
 10
2861.845703125
 20
-2318.580078125
 10
2861.845703125
 20
-2308.87890625
 10
2861.845703125
 20
-2299.177734375
 10
2852.14453125
 20
-2289.4765625
 10
2852.14453125
 20
-2279.775390625
 10
2842.443359375
 20
-2279.775390625
 10
2832.7421875
 20
-2270.07421875
 10
2832.7421875
 20
-2260.373046875
 10
2823.041015625
 20
-2250.671875
 10
2823.041015625
 20
-2240.970703125
 10
2813.33984375
 20
-2231.26953125
 10
2813.33984375
 20
-2221.568359375
 10
2803.638671875
 20
-2221.568359375
 10
2793.9375
 20
-2211.8671875
 10
2793.9375
 20
-2202.166015625
 10
2784.236328125
 20
-2192.46484375
 10
2774.53515625
 20
-2182.763671875
 10
2764.833984375
 20
-2173.0625
 10
2755.1328125
 20
-2163.361328125
 10
2755.1328125
 20
-2153.66015625
 10
2745.431640625
 20
-2153.66015625
 10
2735.73046875
 20
-2153.66015625
 10
2726.029296875
 20
-2143.958984375
 10
2716.328125
 20
-2143.958984375
 10
2706.626953125
 20
-2134.2578125
 10
2706.626953125
 20
-2124.556640625
 10
2696.92578125
 20
-2114.85546875
 10
2687.224609375
 20
-2114.85546875
 10
2677.5234375
 20
-2114.85546875
 10
2667.822265625
 20
-2114.85546875
 10
2658.12109375
 20
-2105.154296875
 10
2648.419921875
 20
-2105.154296875
 10
2638.71875
 20
-2095.453125
 10
2629.017578125
 20
-2095.453125
 10
2619.31640625
 20
-2085.751953125
 10
2609.615234375
 20
-2085.751953125
 10
2599.9140625
 20
-2076.05078125
 10
2590.212890625
 20
-2076.05078125
 10
2580.51171875
 20
-2076.05078125
 10
2570.810546875
 20
-2066.349609375
 10
2561.109375
 20
-2066.349609375
 10
2551.408203125
 20
-2066.349609375
 10
2541.70703125
 20
-2066.349609375
 10
2532.005859375
 20
-2066.349609375
 10
2522.3046875
 20
-2066.349609375
 10
2512.603515625
 20
-2066.349609375
 10
2502.90234375
 20
-2066.349609375
 10
2493.201171875
 20
-2066.349609375
 10
2483.5
 20
-2066.349609375
 10
2473.798828125
 20
-2056.6484375
 10
2464.09765625
 20
-2056.6484375
 10
2454.396484375
 20
-2056.6484375
  0
LWPOLYLINE
  5
33
330
17
100
AcDbEntity
  8
dielectric
100
AcDbPolyline
 90
1
 70
1
 43
0.5
 10
2386.48828125
 20
-2890.94921875
  0
LWPOLYLINE
  5
34
330
17
100
AcDbEntity
  8
substrate
100
AcDbPolyline
 90
2044
 70
1
 43
0.5
 10
0.0
 20
-0.0
 10
0.0
 20
-9.701171875
 10
0.0
 20
-19.40234375
 10
0.0
 20
-29.103515625
 10
0.0
 20
-38.8046875
 10
0.0
 20
-48.505859375
 10
0.0
 20
-58.20703125
 10
0.0
 20
-67.908203125
 10
0.0
 20
-77.609375
 10
0.0
 20
-87.310546875
 10
0.0
 20
-97.01171875
 10
0.0
 20
-106.712890625
 10
0.0
 20
-116.4140625
 10
0.0
 20
-126.115234375
 10
0.0
 20
-135.81640625
 10
0.0
 20
-145.517578125
 10
0.0
 20
-155.21875
 10
0.0
 20
-164.919921875
 10
0.0
 20
-174.62109375
 10
0.0
 20
-184.322265625
 10
0.0
 20
-194.0234375
 10
0.0
 20
-203.724609375
 10
0.0
 20
-213.42578125
 10
0.0
 20
-223.126953125
 10
0.0
 20
-232.828125
 10
0.0
 20
-242.529296875
 10
0.0
 20
-252.23046875
 10
0.0
 20
-261.931640625
 10
0.0
 20
-271.6328125
 10
0.0
 20
-281.333984375
 10
0.0
 20
-291.03515625
 10
0.0
 20
-300.736328125
 10
0.0
 20
-310.4375
 10
0.0
 20
-320.138671875
 10
0.0
 20
-329.83984375
 10
0.0
 20
-339.541015625
 10
0.0
 20
-349.2421875
 10
0.0
 20
-358.943359375
 10
0.0
 20
-368.64453125
 10
0.0
 20
-378.345703125
 10
0.0
 20
-388.046875
 10
0.0
 20
-397.748046875
 10
0.0
 20
-407.44921875
 10
0.0
 20
-417.150390625
 10
0.0
 20
-426.8515625
 10
0.0
 20
-436.552734375
 10
0.0
 20
-446.25390625
 10
0.0
 20
-455.955078125
 10
0.0
 20
-465.65625
 10
0.0
 20
-475.357421875
 10
0.0
 20
-485.05859375
 10
0.0
 20
-494.759765625
 10
0.0
 20
-504.4609375
 10
0.0
 20
-514.162109375
 10
0.0
 20
-523.86328125
 10
0.0
 20
-533.564453125
 10
0.0
 20
-543.265625
 10
0.0
 20
-552.966796875
 10
0.0
 20
-562.66796875
 10
0.0
 20
-572.369140625
 10
0.0
 20
-582.0703125
 10
0.0
 20
-591.771484375
 10
0.0
 20
-601.47265625
 10
0.0
 20
-611.173828125
 10
0.0
 20
-620.875
 10
0.0
 20
-630.576171875
 10
0.0
 20
-640.27734375
 10
0.0
 20
-649.978515625
 10
0.0
 20
-659.6796875
 10
0.0
 20
-669.380859375
 10
0.0
 20
-679.08203125
 10
0.0
 20
-688.783203125
 10
0.0
 20
-698.484375
 10
0.0
 20
-708.185546875
 10
0.0
 20
-717.88671875
 10
0.0
 20
-727.587890625
 10
0.0
 20
-737.2890625
 10
0.0
 20
-746.990234375
 10
0.0
 20
-756.69140625
 10
0.0
 20
-766.392578125
 10
0.0
 20
-776.09375
 10
0.0
 20
-785.794921875
 10
0.0
 20
-795.49609375
 10
0.0
 20
-805.197265625
 10
0.0
 20
-814.8984375
 10
0.0
 20
-824.599609375
 10
0.0
 20
-834.30078125
 10
0.0
 20
-844.001953125
 10
0.0
 20
-853.703125
 10
0.0
 20
-863.404296875
 10
0.0
 20
-873.10546875
 10
0.0
 20
-882.806640625
 10
0.0
 20
-892.5078125
 10
0.0
 20
-902.208984375
 10
0.0
 20
-911.91015625
 10
0.0
 20
-921.611328125
 10
0.0
 20
-931.3125
 10
0.0
 20
-941.013671875
 10
0.0
 20
-950.71484375
 10
0.0
 20
-960.416015625
 10
0.0
 20
-970.1171875
 10
0.0
 20
-979.818359375
 10
0.0
 20
-989.51953125
 10
0.0
 20
-999.220703125
 10
0.0
 20
-1008.921875
 10
0.0
 20
-1018.623046875
 10
0.0
 20
-1028.32421875
 10
0.0
 20
-1038.025390625
 10
0.0
 20
-1047.7265625
 10
0.0
 20
-1057.427734375
 10
0.0
 20
-1067.12890625
 10
0.0
 20
-1076.830078125
 10
0.0
 20
-1086.53125
 10
0.0
 20
-1096.232421875
 10
0.0
 20
-1105.93359375
 10
0.0
 20
-1115.634765625
 10
0.0
 20
-1125.3359375
 10
0.0
 20
-1135.037109375
 10
0.0
 20
-1144.73828125
 10
0.0
 20
-1154.439453125
 10
0.0
 20
-1164.140625
 10
0.0
 20
-1173.841796875
 10
0.0
 20
-1183.54296875
 10
0.0
 20
-1193.244140625
 10
0.0
 20
-1202.9453125
 10
0.0
 20
-1212.646484375
 10
0.0
 20
-1222.34765625
 10
0.0
 20
-1232.048828125
 10
0.0
 20
-1241.75
 10
0.0
 20
-1251.451171875
 10
0.0
 20
-1261.15234375
 10
0.0
 20
-1270.853515625
 10
0.0
 20
-1280.5546875
 10
0.0
 20
-1290.255859375
 10
0.0
 20
-1299.95703125
 10
0.0
 20
-1309.658203125
 10
0.0
 20
-1319.359375
 10
0.0
 20
-1329.060546875
 10
0.0
 20
-1338.76171875
 10
0.0
 20
-1348.462890625
 10
0.0
 20
-1358.1640625
 10
0.0
 20
-1367.865234375
 10
0.0
 20
-1377.56640625
 10
0.0
 20
-1387.267578125
 10
0.0
 20
-1396.96875
 10
0.0
 20
-1406.669921875
 10
0.0
 20
-1416.37109375
 10
0.0
 20
-1426.072265625
 10
0.0
 20
-1435.7734375
 10
0.0
 20
-1445.474609375
 10
0.0
 20
-1455.17578125
 10
0.0
 20
-1464.876953125
 10
0.0
 20
-1474.578125
 10
0.0
 20
-1484.279296875
 10
0.0
 20
-1493.98046875
 10
0.0
 20
-1503.681640625
 10
0.0
 20
-1513.3828125
 10
0.0
 20
-1523.083984375
 10
0.0
 20
-1532.78515625
 10
0.0
 20
-1542.486328125
 10
0.0
 20
-1552.1875
 10
0.0
 20
-1561.888671875
 10
0.0
 20
-1571.58984375
 10
0.0
 20
-1581.291015625
 10
0.0
 20
-1590.9921875
 10
0.0
 20
-1600.693359375
 10
0.0
 20
-1610.39453125
 10
0.0
 20
-1620.095703125
 10
0.0
 20
-1629.796875
 10
0.0
 20
-1639.498046875
 10
0.0
 20
-1649.19921875
 10
0.0
 20
-1658.900390625
 10
0.0
 20
-1668.6015625
 10
0.0
 20
-1678.302734375
 10
0.0
 20
-1688.00390625
 10
0.0
 20
-1697.705078125
 10
0.0
 20
-1707.40625
 10
0.0
 20
-1717.107421875
 10
0.0
 20
-1726.80859375
 10
0.0
 20
-1736.509765625
 10
0.0
 20
-1746.2109375
 10
0.0
 20
-1755.912109375
 10
0.0
 20
-1765.61328125
 10
0.0
 20
-1775.314453125
 10
0.0
 20
-1785.015625
 10
0.0
 20
-1794.716796875
 10
0.0
 20
-1804.41796875
 10
0.0
 20
-1814.119140625
 10
0.0
 20
-1823.8203125
 10
0.0
 20
-1833.521484375
 10
0.0
 20
-1843.22265625
 10
0.0
 20
-1852.923828125
 10
0.0
 20
-1862.625
 10
0.0
 20
-1872.326171875
 10
0.0
 20
-1882.02734375
 10
0.0
 20
-1891.728515625
 10
0.0
 20
-1901.4296875
 10
0.0
 20
-1911.130859375
 10
0.0
 20
-1920.83203125
 10
0.0
 20
-1930.533203125
 10
0.0
 20
-1940.234375
 10
0.0
 20
-1949.935546875
 10
0.0
 20
-1959.63671875
 10
0.0
 20
-1969.337890625
 10
0.0
 20
-1979.0390625
 10
0.0
 20
-1988.740234375
 10
0.0
 20
-1998.44140625
 10
0.0
 20
-2008.142578125
 10
0.0
 20
-2017.84375
 10
0.0
 20
-2027.544921875
 10
0.0
 20
-2037.24609375
 10
0.0
 20
-2046.947265625
 10
0.0
 20
-2056.6484375
 10
0.0
 20
-2066.349609375
 10
0.0
 20
-2076.05078125
 10
0.0
 20
-2085.751953125
 10
0.0
 20
-2095.453125
 10
0.0
 20
-2105.154296875
 10
0.0
 20
-2114.85546875
 10
0.0
 20
-2124.556640625
 10
0.0
 20
-2134.2578125
 10
0.0
 20
-2143.958984375
 10
0.0
 20
-2153.66015625
 10
0.0
 20
-2163.361328125
 10
0.0
 20
-2173.0625
 10
0.0
 20
-2182.763671875
 10
0.0
 20
-2192.46484375
 10
0.0
 20
-2202.166015625
 10
0.0
 20
-2211.8671875
 10
0.0
 20
-2221.568359375
 10
0.0
 20
-2231.26953125
 10
0.0
 20
-2240.970703125
 10
0.0
 20
-2250.671875
 10
0.0
 20
-2260.373046875
 10
0.0
 20
-2270.07421875
 10
0.0
 20
-2279.775390625
 10
0.0
 20
-2289.4765625
 10
0.0
 20
-2299.177734375
 10
0.0
 20
-2308.87890625
 10
0.0
 20
-2318.580078125
 10
0.0
 20
-2328.28125
 10
0.0
 20
-2337.982421875
 10
0.0
 20
-2347.68359375
 10
0.0
 20
-2357.384765625
 10
0.0
 20
-2367.0859375
 10
0.0
 20
-2376.787109375
 10
0.0
 20
-2386.48828125
 10
0.0
 20
-2396.189453125
 10
0.0
 20
-2405.890625
 10
0.0
 20
-2415.591796875
 10
0.0
 20
-2425.29296875
 10
0.0
 20
-2434.994140625
 10
0.0
 20
-2444.6953125
 10
0.0
 20
-2454.396484375
 10
0.0
 20
-2464.09765625
 10
0.0
 20
-2473.798828125
 10
0.0
 20
-2483.5
 10
0.0
 20
-2493.201171875
 10
0.0
 20
-2502.90234375
 10
0.0
 20
-2512.603515625
 10
0.0
 20
-2522.3046875
 10
0.0
 20
-2532.005859375
 10
0.0
 20
-2541.70703125
 10
0.0
 20
-2551.408203125
 10
0.0
 20
-2561.109375
 10
0.0
 20
-2570.810546875
 10
0.0
 20
-2580.51171875
 10
0.0
 20
-2590.212890625
 10
0.0
 20
-2599.9140625
 10
0.0
 20
-2609.615234375
 10
0.0
 20
-2619.31640625
 10
0.0
 20
-2629.017578125
 10
0.0
 20
-2638.71875
 10
0.0
 20
-2648.419921875
 10
0.0
 20
-2658.12109375
 10
0.0
 20
-2667.822265625
 10
0.0
 20
-2677.5234375
 10
0.0
 20
-2687.224609375
 10
0.0
 20
-2696.92578125
 10
0.0
 20
-2706.626953125
 10
0.0
 20
-2716.328125
 10
0.0
 20
-2726.029296875
 10
0.0
 20
-2735.73046875
 10
0.0
 20
-2745.431640625
 10
0.0
 20
-2755.1328125
 10
0.0
 20
-2764.833984375
 10
0.0
 20
-2774.53515625
 10
0.0
 20
-2784.236328125
 10
0.0
 20
-2793.9375
 10
0.0
 20
-2803.638671875
 10
0.0
 20
-2813.33984375
 10
0.0
 20
-2823.041015625
 10
0.0
 20
-2832.7421875
 10
0.0
 20
-2842.443359375
 10
0.0
 20
-2852.14453125
 10
0.0
 20
-2861.845703125
 10
0.0
 20
-2871.546875
 10
0.0
 20
-2881.248046875
 10
0.0
 20
-2890.94921875
 10
0.0
 20
-2900.650390625
 10
0.0
 20
-2910.3515625
 10
0.0
 20
-2920.052734375
 10
0.0
 20
-2929.75390625
 10
0.0
 20
-2939.455078125
 10
0.0
 20
-2949.15625
 10
0.0
 20
-2958.857421875
 10
0.0
 20
-2968.55859375
 10
0.0
 20
-2978.259765625
 10
0.0
 20
-2987.9609375
 10
0.0
 20
-2997.662109375
 10
0.0
 20
-3007.36328125
 10
0.0
 20
-3017.064453125
 10
0.0
 20
-3026.765625
 10
0.0
 20
-3036.466796875
 10
0.0
 20
-3046.16796875
 10
0.0
 20
-3055.869140625
 10
0.0
 20
-3065.5703125
 10
0.0
 20
-3075.271484375
 10
0.0
 20
-3084.97265625
 10
0.0
 20
-3094.673828125
 10
0.0
 20
-3104.375
 10
0.0
 20
-3114.076171875
 10
0.0
 20
-3123.77734375
 10
0.0
 20
-3133.478515625
 10
0.0
 20
-3143.1796875
 10
0.0
 20
-3152.880859375
 10
0.0
 20
-3162.58203125
 10
0.0
 20
-3172.283203125
 10
0.0
 20
-3181.984375
 10
0.0
 20
-3191.685546875
 10
0.0
 20
-3201.38671875
 10
0.0
 20
-3211.087890625
 10
0.0
 20
-3220.7890625
 10
0.0
 20
-3230.490234375
 10
0.0
 20
-3240.19140625
 10
0.0
 20
-3249.892578125
 10
0.0
 20
-3259.59375
 10
0.0
 20
-3269.294921875
 10
0.0
 20
-3278.99609375
 10
0.0
 20
-3288.697265625
 10
0.0
 20
-3298.3984375
 10
0.0
 20
-3308.099609375
 10
0.0
 20
-3317.80078125
 10
0.0
 20
-3327.501953125
 10
0.0
 20
-3337.203125
 10
0.0
 20
-3346.904296875
 10
0.0
 20
-3356.60546875
 10
0.0
 20
-3366.306640625
 10
0.0
 20
-3376.0078125
 10
0.0
 20
-3385.708984375
 10
0.0
 20
-3395.41015625
 10
0.0
 20
-3405.111328125
 10
0.0
 20
-3414.8125
 10
0.0
 20
-3424.513671875
 10
0.0
 20
-3434.21484375
 10
0.0
 20
-3443.916015625
 10
0.0
 20
-3453.6171875
 10
0.0
 20
-3463.318359375
 10
0.0
 20
-3473.01953125
 10
0.0
 20
-3482.720703125
 10
0.0
 20
-3492.421875
 10
0.0
 20
-3502.123046875
 10
0.0
 20
-3511.82421875
 10
0.0
 20
-3521.525390625
 10
0.0
 20
-3531.2265625
 10
0.0
 20
-3540.927734375
 10
0.0
 20
-3550.62890625
 10
0.0
 20
-3560.330078125
 10
0.0
 20
-3570.03125
 10
0.0
 20
-3579.732421875
 10
0.0
 20
-3589.43359375
 10
0.0
 20
-3599.134765625
 10
0.0
 20
-3608.8359375
 10
0.0
 20
-3618.537109375
 10
0.0
 20
-3628.23828125
 10
0.0
 20
-3637.939453125
 10
0.0
 20
-3647.640625
 10
0.0
 20
-3657.341796875
 10
0.0
 20
-3667.04296875
 10
0.0
 20
-3676.744140625
 10
0.0
 20
-3686.4453125
 10
0.0
 20
-3696.146484375
 10
0.0
 20
-3705.84765625
 10
0.0
 20
-3715.548828125
 10
0.0
 20
-3725.25
 10
0.0
 20
-3734.951171875
 10
0.0
 20
-3744.65234375
 10
0.0
 20
-3754.353515625
 10
0.0
 20
-3764.0546875
 10
0.0
 20
-3773.755859375
 10
0.0
 20
-3783.45703125
 10
0.0
 20
-3793.158203125
 10
0.0
 20
-3802.859375
 10
0.0
 20
-3812.560546875
 10
0.0
 20
-3822.26171875
 10
0.0
 20
-3831.962890625
 10
0.0
 20
-3841.6640625
 10
0.0
 20
-3851.365234375
 10
0.0
 20
-3861.06640625
 10
0.0
 20
-3870.767578125
 10
0.0
 20
-3880.46875
 10
0.0
 20
-3890.169921875
 10
0.0
 20
-3899.87109375
 10
0.0
 20
-3909.572265625
 10
0.0
 20
-3919.2734375
 10
0.0
 20
-3928.974609375
 10
0.0
 20
-3938.67578125
 10
0.0
 20
-3948.376953125
 10
0.0
 20
-3958.078125
 10
0.0
 20
-3967.779296875
 10
0.0
 20
-3977.48046875
 10
0.0
 20
-3987.181640625
 10
0.0
 20
-3996.8828125
 10
0.0
 20
-4006.583984375
 10
0.0
 20
-4016.28515625
 10
0.0
 20
-4025.986328125
 10
0.0
 20
-4035.6875
 10
0.0
 20
-4045.388671875
 10
0.0
 20
-4055.08984375
 10
0.0
 20
-4064.791015625
 10
0.0
 20
-4074.4921875
 10
0.0
 20
-4084.193359375
 10
0.0
 20
-4093.89453125
 10
0.0
 20
-4103.595703125
 10
0.0
 20
-4113.296875
 10
0.0
 20
-4122.998046875
 10
0.0
 20
-4132.69921875
 10
0.0
 20
-4142.400390625
 10
0.0
 20
-4152.1015625
 10
0.0
 20
-4161.802734375
 10
0.0
 20
-4171.50390625
 10
0.0
 20
-4181.205078125
 10
0.0
 20
-4190.90625
 10
0.0
 20
-4200.607421875
 10
0.0
 20
-4210.30859375
 10
0.0
 20
-4220.009765625
 10
0.0
 20
-4229.7109375
 10
0.0
 20
-4239.412109375
 10
0.0
 20
-4249.11328125
 10
0.0
 20
-4258.814453125
 10
0.0
 20
-4268.515625
 10
0.0
 20
-4278.216796875
 10
0.0
 20
-4287.91796875
 10
0.0
 20
-4297.619140625
 10
0.0
 20
-4307.3203125
 10
0.0
 20
-4317.021484375
 10
0.0
 20
-4326.72265625
 10
0.0
 20
-4336.423828125
 10
0.0
 20
-4346.125
 10
0.0
 20
-4355.826171875
 10
0.0
 20
-4365.52734375
 10
0.0
 20
-4375.228515625
 10
0.0
 20
-4384.9296875
 10
0.0
 20
-4394.630859375
 10
0.0
 20
-4404.33203125
 10
0.0
 20
-4414.033203125
 10
0.0
 20
-4423.734375
 10
0.0
 20
-4433.435546875
 10
0.0
 20
-4443.13671875
 10
0.0
 20
-4452.837890625
 10
0.0
 20
-4462.5390625
 10
0.0
 20
-4472.240234375
 10
0.0
 20
-4481.94140625
 10
0.0
 20
-4491.642578125
 10
0.0
 20
-4501.34375
 10
0.0
 20
-4511.044921875
 10
0.0
 20
-4520.74609375
 10
0.0
 20
-4530.447265625
 10
0.0
 20
-4540.1484375
 10
0.0
 20
-4549.849609375
 10
0.0
 20
-4559.55078125
 10
0.0
 20
-4569.251953125
 10
0.0
 20
-4578.953125
 10
0.0
 20
-4588.654296875
 10
0.0
 20
-4598.35546875
 10
0.0
 20
-4608.056640625
 10
0.0
 20
-4617.7578125
 10
0.0
 20
-4627.458984375
 10
0.0
 20
-4637.16015625
 10
0.0
 20
-4646.861328125
 10
0.0
 20
-4656.5625
 10
0.0
 20
-4666.263671875
 10
0.0
 20
-4675.96484375
 10
0.0
 20
-4685.666015625
 10
0.0
 20
-4695.3671875
 10
0.0
 20
-4705.068359375
 10
0.0
 20
-4714.76953125
 10
0.0
 20
-4724.470703125
 10
0.0
 20
-4734.171875
 10
0.0
 20
-4743.873046875
 10
0.0
 20
-4753.57421875
 10
0.0
 20
-4763.275390625
 10
0.0
 20
-4772.9765625
 10
0.0
 20
-4782.677734375
 10
0.0
 20
-4792.37890625
 10
0.0
 20
-4802.080078125
 10
0.0
 20
-4811.78125
 10
0.0
 20
-4821.482421875
 10
0.0
 20
-4831.18359375
 10
0.0
 20
-4840.884765625
 10
0.0
 20
-4850.5859375
 10
0.0
 20
-4860.287109375
 10
0.0
 20
-4869.98828125
 10
0.0
 20
-4879.689453125
 10
0.0
 20
-4889.390625
 10
0.0
 20
-4899.091796875
 10
0.0
 20
-4908.79296875
 10
0.0
 20
-4918.494140625
 10
0.0
 20
-4928.1953125
 10
0.0
 20
-4937.896484375
 10
0.0
 20
-4947.59765625
 10
0.0
 20
-4957.298828125
 10
9.701171875
 20
-4957.298828125
 10
19.40234375
 20
-4957.298828125
 10
29.103515625
 20
-4957.298828125
 10
38.8046875
 20
-4957.298828125
 10
48.505859375
 20
-4957.298828125
 10
58.20703125
 20
-4957.298828125
 10
67.908203125
 20
-4957.298828125
 10
77.609375
 20
-4957.298828125
 10
87.310546875
 20
-4957.298828125
 10
97.01171875
 20
-4957.298828125
 10
106.712890625
 20
-4957.298828125
 10
116.4140625
 20
-4957.298828125
 10
126.115234375
 20
-4957.298828125
 10
135.81640625
 20
-4957.298828125
 10
145.517578125
 20
-4957.298828125
 10
155.21875
 20
-4957.298828125
 10
164.919921875
 20
-4957.298828125
 10
174.62109375
 20
-4957.298828125
 10
184.322265625
 20
-4957.298828125
 10
194.0234375
 20
-4957.298828125
 10
203.724609375
 20
-4957.298828125
 10
213.42578125
 20
-4957.298828125
 10
223.126953125
 20
-4957.298828125
 10
232.828125
 20
-4957.298828125
 10
242.529296875
 20
-4957.298828125
 10
252.23046875
 20
-4957.298828125
 10
261.931640625
 20
-4957.298828125
 10
271.6328125
 20
-4957.298828125
 10
281.333984375
 20
-4957.298828125
 10
291.03515625
 20
-4957.298828125
 10
300.736328125
 20
-4957.298828125
 10
310.4375
 20
-4957.298828125
 10
320.138671875
 20
-4957.298828125
 10
329.83984375
 20
-4957.298828125
 10
339.541015625
 20
-4957.298828125
 10
349.2421875
 20
-4957.298828125
 10
358.943359375
 20
-4957.298828125
 10
368.64453125
 20
-4957.298828125
 10
378.345703125
 20
-4957.298828125
 10
388.046875
 20
-4957.298828125
 10
397.748046875
 20
-4957.298828125
 10
407.44921875
 20
-4957.298828125
 10
417.150390625
 20
-4957.298828125
 10
426.8515625
 20
-4957.298828125
 10
436.552734375
 20
-4957.298828125
 10
446.25390625
 20
-4957.298828125
 10
455.955078125
 20
-4957.298828125
 10
465.65625
 20
-4957.298828125
 10
475.357421875
 20
-4957.298828125
 10
485.05859375
 20
-4957.298828125
 10
494.759765625
 20
-4957.298828125
 10
504.4609375
 20
-4957.298828125
 10
514.162109375
 20
-4957.298828125
 10
523.86328125
 20
-4957.298828125
 10
533.564453125
 20
-4957.298828125
 10
543.265625
 20
-4957.298828125
 10
552.966796875
 20
-4957.298828125
 10
562.66796875
 20
-4957.298828125
 10
572.369140625
 20
-4957.298828125
 10
582.0703125
 20
-4957.298828125
 10
591.771484375
 20
-4957.298828125
 10
601.47265625
 20
-4957.298828125
 10
611.173828125
 20
-4957.298828125
 10
620.875
 20
-4957.298828125
 10
630.576171875
 20
-4957.298828125
 10
640.27734375
 20
-4957.298828125
 10
649.978515625
 20
-4957.298828125
 10
659.6796875
 20
-4957.298828125
 10
669.380859375
 20
-4957.298828125
 10
679.08203125
 20
-4957.298828125
 10
688.783203125
 20
-4957.298828125
 10
698.484375
 20
-4957.298828125
 10
708.185546875
 20
-4957.298828125
 10
717.88671875
 20
-4957.298828125
 10
727.587890625
 20
-4957.298828125
 10
737.2890625
 20
-4957.298828125
 10
746.990234375
 20
-4957.298828125
 10
756.69140625
 20
-4957.298828125
 10
766.392578125
 20
-4957.298828125
 10
776.09375
 20
-4957.298828125
 10
785.794921875
 20
-4957.298828125
 10
795.49609375
 20
-4957.298828125
 10
805.197265625
 20
-4957.298828125
 10
814.8984375
 20
-4957.298828125
 10
824.599609375
 20
-4957.298828125
 10
834.30078125
 20
-4957.298828125
 10
844.001953125
 20
-4957.298828125
 10
853.703125
 20
-4957.298828125
 10
863.404296875
 20
-4957.298828125
 10
873.10546875
 20
-4957.298828125
 10
882.806640625
 20
-4957.298828125
 10
892.5078125
 20
-4957.298828125
 10
902.208984375
 20
-4957.298828125
 10
911.91015625
 20
-4957.298828125
 10
921.611328125
 20
-4957.298828125
 10
931.3125
 20
-4957.298828125
 10
941.013671875
 20
-4957.298828125
 10
950.71484375
 20
-4957.298828125
 10
960.416015625
 20
-4957.298828125
 10
970.1171875
 20
-4957.298828125
 10
979.818359375
 20
-4957.298828125
 10
989.51953125
 20
-4957.298828125
 10
999.220703125
 20
-4957.298828125
 10
1008.921875
 20
-4957.298828125
 10
1018.623046875
 20
-4957.298828125
 10
1028.32421875
 20
-4957.298828125
 10
1038.025390625
 20
-4957.298828125
 10
1047.7265625
 20
-4957.298828125
 10
1057.427734375
 20
-4957.298828125
 10
1067.12890625
 20
-4957.298828125
 10
1076.830078125
 20
-4957.298828125
 10
1086.53125
 20
-4957.298828125
 10
1096.232421875
 20
-4957.298828125
 10
1105.93359375
 20
-4957.298828125
 10
1115.634765625
 20
-4957.298828125
 10
1125.3359375
 20
-4957.298828125
 10
1135.037109375
 20
-4957.298828125
 10
1144.73828125
 20
-4957.298828125
 10
1154.439453125
 20
-4957.298828125
 10
1164.140625
 20
-4957.298828125
 10
1173.841796875
 20
-4957.298828125
 10
1183.54296875
 20
-4957.298828125
 10
1193.244140625
 20
-4957.298828125
 10
1202.9453125
 20
-4957.298828125
 10
1212.646484375
 20
-4957.298828125
 10
1222.34765625
 20
-4957.298828125
 10
1232.048828125
 20
-4957.298828125
 10
1241.75
 20
-4957.298828125
 10
1251.451171875
 20
-4957.298828125
 10
1261.15234375
 20
-4957.298828125
 10
1270.853515625
 20
-4957.298828125
 10
1280.5546875
 20
-4957.298828125
 10
1290.255859375
 20
-4957.298828125
 10
1299.95703125
 20
-4957.298828125
 10
1309.658203125
 20
-4957.298828125
 10
1319.359375
 20
-4957.298828125
 10
1329.060546875
 20
-4957.298828125
 10
1338.76171875
 20
-4957.298828125
 10
1348.462890625
 20
-4957.298828125
 10
1358.1640625
 20
-4957.298828125
 10
1367.865234375
 20
-4957.298828125
 10
1377.56640625
 20
-4957.298828125
 10
1387.267578125
 20
-4957.298828125
 10
1396.96875
 20
-4957.298828125
 10
1406.669921875
 20
-4957.298828125
 10
1416.37109375
 20
-4957.298828125
 10
1426.072265625
 20
-4957.298828125
 10
1435.7734375
 20
-4957.298828125
 10
1445.474609375
 20
-4957.298828125
 10
1455.17578125
 20
-4957.298828125
 10
1464.876953125
 20
-4957.298828125
 10
1474.578125
 20
-4957.298828125
 10
1484.279296875
 20
-4957.298828125
 10
1493.98046875
 20
-4957.298828125
 10
1503.681640625
 20
-4957.298828125
 10
1513.3828125
 20
-4957.298828125
 10
1523.083984375
 20
-4957.298828125
 10
1532.78515625
 20
-4957.298828125
 10
1542.486328125
 20
-4957.298828125
 10
1552.1875
 20
-4957.298828125
 10
1561.888671875
 20
-4957.298828125
 10
1571.58984375
 20
-4957.298828125
 10
1581.291015625
 20
-4957.298828125
 10
1590.9921875
 20
-4957.298828125
 10
1600.693359375
 20
-4957.298828125
 10
1610.39453125
 20
-4957.298828125
 10
1620.095703125
 20
-4957.298828125
 10
1629.796875
 20
-4957.298828125
 10
1639.498046875
 20
-4957.298828125
 10
1649.19921875
 20
-4957.298828125
 10
1658.900390625
 20
-4957.298828125
 10
1668.6015625
 20
-4957.298828125
 10
1678.302734375
 20
-4957.298828125
 10
1688.00390625
 20
-4957.298828125
 10
1697.705078125
 20
-4957.298828125
 10
1707.40625
 20
-4957.298828125
 10
1717.107421875
 20
-4957.298828125
 10
1726.80859375
 20
-4957.298828125
 10
1736.509765625
 20
-4957.298828125
 10
1746.2109375
 20
-4957.298828125
 10
1755.912109375
 20
-4957.298828125
 10
1765.61328125
 20
-4957.298828125
 10
1775.314453125
 20
-4957.298828125
 10
1785.015625
 20
-4957.298828125
 10
1794.716796875
 20
-4957.298828125
 10
1804.41796875
 20
-4957.298828125
 10
1814.119140625
 20
-4957.298828125
 10
1823.8203125
 20
-4957.298828125
 10
1833.521484375
 20
-4957.298828125
 10
1843.22265625
 20
-4957.298828125
 10
1852.923828125
 20
-4957.298828125
 10
1862.625
 20
-4957.298828125
 10
1872.326171875
 20
-4957.298828125
 10
1882.02734375
 20
-4957.298828125
 10
1891.728515625
 20
-4957.298828125
 10
1901.4296875
 20
-4957.298828125
 10
1911.130859375
 20
-4957.298828125
 10
1920.83203125
 20
-4957.298828125
 10
1930.533203125
 20
-4957.298828125
 10
1940.234375
 20
-4957.298828125
 10
1949.935546875
 20
-4957.298828125
 10
1959.63671875
 20
-4957.298828125
 10
1969.337890625
 20
-4957.298828125
 10
1979.0390625
 20
-4957.298828125
 10
1988.740234375
 20
-4957.298828125
 10
1998.44140625
 20
-4957.298828125
 10
2008.142578125
 20
-4957.298828125
 10
2017.84375
 20
-4957.298828125
 10
2027.544921875
 20
-4957.298828125
 10
2037.24609375
 20
-4957.298828125
 10
2046.947265625
 20
-4957.298828125
 10
2056.6484375
 20
-4957.298828125
 10
2066.349609375
 20
-4957.298828125
 10
2076.05078125
 20
-4957.298828125
 10
2085.751953125
 20
-4957.298828125
 10
2095.453125
 20
-4957.298828125
 10
2105.154296875
 20
-4957.298828125
 10
2114.85546875
 20
-4957.298828125
 10
2124.556640625
 20
-4957.298828125
 10
2134.2578125
 20
-4957.298828125
 10
2143.958984375
 20
-4957.298828125
 10
2153.66015625
 20
-4957.298828125
 10
2163.361328125
 20
-4957.298828125
 10
2173.0625
 20
-4957.298828125
 10
2182.763671875
 20
-4957.298828125
 10
2192.46484375
 20
-4957.298828125
 10
2202.166015625
 20
-4957.298828125
 10
2211.8671875
 20
-4957.298828125
 10
2221.568359375
 20
-4957.298828125
 10
2231.26953125
 20
-4957.298828125
 10
2240.970703125
 20
-4957.298828125
 10
2250.671875
 20
-4957.298828125
 10
2260.373046875
 20
-4957.298828125
 10
2270.07421875
 20
-4957.298828125
 10
2279.775390625
 20
-4957.298828125
 10
2289.4765625
 20
-4957.298828125
 10
2299.177734375
 20
-4957.298828125
 10
2308.87890625
 20
-4957.298828125
 10
2318.580078125
 20
-4957.298828125
 10
2328.28125
 20
-4957.298828125
 10
2337.982421875
 20
-4957.298828125
 10
2347.68359375
 20
-4957.298828125
 10
2357.384765625
 20
-4957.298828125
 10
2367.0859375
 20
-4957.298828125
 10
2376.787109375
 20
-4957.298828125
 10
2386.48828125
 20
-4957.298828125
 10
2396.189453125
 20
-4957.298828125
 10
2405.890625
 20
-4957.298828125
 10
2415.591796875
 20
-4957.298828125
 10
2425.29296875
 20
-4957.298828125
 10
2434.994140625
 20
-4957.298828125
 10
2444.6953125
 20
-4957.298828125
 10
2454.396484375
 20
-4957.298828125
 10
2464.09765625
 20
-4957.298828125
 10
2473.798828125
 20
-4957.298828125
 10
2483.5
 20
-4957.298828125
 10
2493.201171875
 20
-4957.298828125
 10
2502.90234375
 20
-4957.298828125
 10
2512.603515625
 20
-4957.298828125
 10
2522.3046875
 20
-4957.298828125
 10
2532.005859375
 20
-4957.298828125
 10
2541.70703125
 20
-4957.298828125
 10
2551.408203125
 20
-4957.298828125
 10
2561.109375
 20
-4957.298828125
 10
2570.810546875
 20
-4957.298828125
 10
2580.51171875
 20
-4957.298828125
 10
2590.212890625
 20
-4957.298828125
 10
2599.9140625
 20
-4957.298828125
 10
2609.615234375
 20
-4957.298828125
 10
2619.31640625
 20
-4957.298828125
 10
2629.017578125
 20
-4957.298828125
 10
2638.71875
 20
-4957.298828125
 10
2648.419921875
 20
-4957.298828125
 10
2658.12109375
 20
-4957.298828125
 10
2667.822265625
 20
-4957.298828125
 10
2677.5234375
 20
-4957.298828125
 10
2687.224609375
 20
-4957.298828125
 10
2696.92578125
 20
-4957.298828125
 10
2706.626953125
 20
-4957.298828125
 10
2716.328125
 20
-4957.298828125
 10
2726.029296875
 20
-4957.298828125
 10
2735.73046875
 20
-4957.298828125
 10
2745.431640625
 20
-4957.298828125
 10
2755.1328125
 20
-4957.298828125
 10
2764.833984375
 20
-4957.298828125
 10
2774.53515625
 20
-4957.298828125
 10
2784.236328125
 20
-4957.298828125
 10
2793.9375
 20
-4957.298828125
 10
2803.638671875
 20
-4957.298828125
 10
2813.33984375
 20
-4957.298828125
 10
2823.041015625
 20
-4957.298828125
 10
2832.7421875
 20
-4957.298828125
 10
2842.443359375
 20
-4957.298828125
 10
2852.14453125
 20
-4957.298828125
 10
2861.845703125
 20
-4957.298828125
 10
2871.546875
 20
-4957.298828125
 10
2881.248046875
 20
-4957.298828125
 10
2890.94921875
 20
-4957.298828125
 10
2900.650390625
 20
-4957.298828125
 10
2910.3515625
 20
-4957.298828125
 10
2920.052734375
 20
-4957.298828125
 10
2929.75390625
 20
-4957.298828125
 10
2939.455078125
 20
-4957.298828125
 10
2949.15625
 20
-4957.298828125
 10
2958.857421875
 20
-4957.298828125
 10
2968.55859375
 20
-4957.298828125
 10
2978.259765625
 20
-4957.298828125
 10
2987.9609375
 20
-4957.298828125
 10
2997.662109375
 20
-4957.298828125
 10
3007.36328125
 20
-4957.298828125
 10
3017.064453125
 20
-4957.298828125
 10
3026.765625
 20
-4957.298828125
 10
3036.466796875
 20
-4957.298828125
 10
3046.16796875
 20
-4957.298828125
 10
3055.869140625
 20
-4957.298828125
 10
3065.5703125
 20
-4957.298828125
 10
3075.271484375
 20
-4957.298828125
 10
3084.97265625
 20
-4957.298828125
 10
3094.673828125
 20
-4957.298828125
 10
3104.375
 20
-4957.298828125
 10
3114.076171875
 20
-4957.298828125
 10
3123.77734375
 20
-4957.298828125
 10
3133.478515625
 20
-4957.298828125
 10
3143.1796875
 20
-4957.298828125
 10
3152.880859375
 20
-4957.298828125
 10
3162.58203125
 20
-4957.298828125
 10
3172.283203125
 20
-4957.298828125
 10
3181.984375
 20
-4957.298828125
 10
3191.685546875
 20
-4957.298828125
 10
3201.38671875
 20
-4957.298828125
 10
3211.087890625
 20
-4957.298828125
 10
3220.7890625
 20
-4957.298828125
 10
3230.490234375
 20
-4957.298828125
 10
3240.19140625
 20
-4957.298828125
 10
3249.892578125
 20
-4957.298828125
 10
3259.59375
 20
-4957.298828125
 10
3269.294921875
 20
-4957.298828125
 10
3278.99609375
 20
-4957.298828125
 10
3288.697265625
 20
-4957.298828125
 10
3298.3984375
 20
-4957.298828125
 10
3308.099609375
 20
-4957.298828125
 10
3317.80078125
 20
-4957.298828125
 10
3327.501953125
 20
-4957.298828125
 10
3337.203125
 20
-4957.298828125
 10
3346.904296875
 20
-4957.298828125
 10
3356.60546875
 20
-4957.298828125
 10
3366.306640625
 20
-4957.298828125
 10
3376.0078125
 20
-4957.298828125
 10
3385.708984375
 20
-4957.298828125
 10
3395.41015625
 20
-4957.298828125
 10
3405.111328125
 20
-4957.298828125
 10
3414.8125
 20
-4957.298828125
 10
3424.513671875
 20
-4957.298828125
 10
3434.21484375
 20
-4957.298828125
 10
3443.916015625
 20
-4957.298828125
 10
3453.6171875
 20
-4957.298828125
 10
3463.318359375
 20
-4957.298828125
 10
3473.01953125
 20
-4957.298828125
 10
3482.720703125
 20
-4957.298828125
 10
3492.421875
 20
-4957.298828125
 10
3502.123046875
 20
-4957.298828125
 10
3511.82421875
 20
-4957.298828125
 10
3521.525390625
 20
-4957.298828125
 10
3531.2265625
 20
-4957.298828125
 10
3540.927734375
 20
-4957.298828125
 10
3550.62890625
 20
-4957.298828125
 10
3560.330078125
 20
-4957.298828125
 10
3570.03125
 20
-4957.298828125
 10
3579.732421875
 20
-4957.298828125
 10
3589.43359375
 20
-4957.298828125
 10
3599.134765625
 20
-4957.298828125
 10
3608.8359375
 20
-4957.298828125
 10
3618.537109375
 20
-4957.298828125
 10
3628.23828125
 20
-4957.298828125
 10
3637.939453125
 20
-4957.298828125
 10
3647.640625
 20
-4957.298828125
 10
3657.341796875
 20
-4957.298828125
 10
3667.04296875
 20
-4957.298828125
 10
3676.744140625
 20
-4957.298828125
 10
3686.4453125
 20
-4957.298828125
 10
3696.146484375
 20
-4957.298828125
 10
3705.84765625
 20
-4957.298828125
 10
3715.548828125
 20
-4957.298828125
 10
3725.25
 20
-4957.298828125
 10
3734.951171875
 20
-4957.298828125
 10
3744.65234375
 20
-4957.298828125
 10
3754.353515625
 20
-4957.298828125
 10
3764.0546875
 20
-4957.298828125
 10
3773.755859375
 20
-4957.298828125
 10
3783.45703125
 20
-4957.298828125
 10
3793.158203125
 20
-4957.298828125
 10
3802.859375
 20
-4957.298828125
 10
3812.560546875
 20
-4957.298828125
 10
3822.26171875
 20
-4957.298828125
 10
3831.962890625
 20
-4957.298828125
 10
3841.6640625
 20
-4957.298828125
 10
3851.365234375
 20
-4957.298828125
 10
3861.06640625
 20
-4957.298828125
 10
3870.767578125
 20
-4957.298828125
 10
3880.46875
 20
-4957.298828125
 10
3890.169921875
 20
-4957.298828125
 10
3899.87109375
 20
-4957.298828125
 10
3909.572265625
 20
-4957.298828125
 10
3919.2734375
 20
-4957.298828125
 10
3928.974609375
 20
-4957.298828125
 10
3938.67578125
 20
-4957.298828125
 10
3948.376953125
 20
-4957.298828125
 10
3958.078125
 20
-4957.298828125
 10
3967.779296875
 20
-4957.298828125
 10
3977.48046875
 20
-4957.298828125
 10
3987.181640625
 20
-4957.298828125
 10
3996.8828125
 20
-4957.298828125
 10
4006.583984375
 20
-4957.298828125
 10
4016.28515625
 20
-4957.298828125
 10
4025.986328125
 20
-4957.298828125
 10
4035.6875
 20
-4957.298828125
 10
4045.388671875
 20
-4957.298828125
 10
4055.08984375
 20
-4957.298828125
 10
4064.791015625
 20
-4957.298828125
 10
4074.4921875
 20
-4957.298828125
 10
4084.193359375
 20
-4957.298828125
 10
4093.89453125
 20
-4957.298828125
 10
4103.595703125
 20
-4957.298828125
 10
4113.296875
 20
-4957.298828125
 10
4122.998046875
 20
-4957.298828125
 10
4132.69921875
 20
-4957.298828125
 10
4142.400390625
 20
-4957.298828125
 10
4152.1015625
 20
-4957.298828125
 10
4161.802734375
 20
-4957.298828125
 10
4171.50390625
 20
-4957.298828125
 10
4181.205078125
 20
-4957.298828125
 10
4190.90625
 20
-4957.298828125
 10
4200.607421875
 20
-4957.298828125
 10
4210.30859375
 20
-4957.298828125
 10
4220.009765625
 20
-4957.298828125
 10
4229.7109375
 20
-4957.298828125
 10
4239.412109375
 20
-4957.298828125
 10
4249.11328125
 20
-4957.298828125
 10
4258.814453125
 20
-4957.298828125
 10
4268.515625
 20
-4957.298828125
 10
4278.216796875
 20
-4957.298828125
 10
4287.91796875
 20
-4957.298828125
 10
4297.619140625
 20
-4957.298828125
 10
4307.3203125
 20
-4957.298828125
 10
4317.021484375
 20
-4957.298828125
 10
4326.72265625
 20
-4957.298828125
 10
4336.423828125
 20
-4957.298828125
 10
4346.125
 20
-4957.298828125
 10
4355.826171875
 20
-4957.298828125
 10
4365.52734375
 20
-4957.298828125
 10
4375.228515625
 20
-4957.298828125
 10
4384.9296875
 20
-4957.298828125
 10
4394.630859375
 20
-4957.298828125
 10
4404.33203125
 20
-4957.298828125
 10
4414.033203125
 20
-4957.298828125
 10
4423.734375
 20
-4957.298828125
 10
4433.435546875
 20
-4957.298828125
 10
4443.13671875
 20
-4957.298828125
 10
4452.837890625
 20
-4957.298828125
 10
4462.5390625
 20
-4957.298828125
 10
4472.240234375
 20
-4957.298828125
 10
4481.94140625
 20
-4957.298828125
 10
4491.642578125
 20
-4957.298828125
 10
4501.34375
 20
-4957.298828125
 10
4511.044921875
 20
-4957.298828125
 10
4520.74609375
 20
-4957.298828125
 10
4530.447265625
 20
-4957.298828125
 10
4540.1484375
 20
-4957.298828125
 10
4549.849609375
 20
-4957.298828125
 10
4559.55078125
 20
-4957.298828125
 10
4569.251953125
 20
-4957.298828125
 10
4578.953125
 20
-4957.298828125
 10
4588.654296875
 20
-4957.298828125
 10
4598.35546875
 20
-4957.298828125
 10
4608.056640625
 20
-4957.298828125
 10
4617.7578125
 20
-4957.298828125
 10
4627.458984375
 20
-4957.298828125
 10
4637.16015625
 20
-4957.298828125
 10
4646.861328125
 20
-4957.298828125
 10
4656.5625
 20
-4957.298828125
 10
4666.263671875
 20
-4957.298828125
 10
4675.96484375
 20
-4957.298828125
 10
4685.666015625
 20
-4957.298828125
 10
4695.3671875
 20
-4957.298828125
 10
4705.068359375
 20
-4957.298828125
 10
4714.76953125
 20
-4957.298828125
 10
4724.470703125
 20
-4957.298828125
 10
4734.171875
 20
-4957.298828125
 10
4743.873046875
 20
-4957.298828125
 10
4753.57421875
 20
-4957.298828125
 10
4763.275390625
 20
-4957.298828125
 10
4772.9765625
 20
-4957.298828125
 10
4782.677734375
 20
-4957.298828125
 10
4792.37890625
 20
-4957.298828125
 10
4802.080078125
 20
-4957.298828125
 10
4811.78125
 20
-4957.298828125
 10
4821.482421875
 20
-4957.298828125
 10
4831.18359375
 20
-4957.298828125
 10
4840.884765625
 20
-4957.298828125
 10
4850.5859375
 20
-4957.298828125
 10
4860.287109375
 20
-4957.298828125
 10
4869.98828125
 20
-4957.298828125
 10
4879.689453125
 20
-4957.298828125
 10
4889.390625
 20
-4957.298828125
 10
4899.091796875
 20
-4957.298828125
 10
4908.79296875
 20
-4957.298828125
 10
4918.494140625
 20
-4957.298828125
 10
4928.1953125
 20
-4957.298828125
 10
4937.896484375
 20
-4957.298828125
 10
4947.59765625
 20
-4957.298828125
 10
4957.298828125
 20
-4957.298828125
 10
4957.298828125
 20
-4947.59765625
 10
4957.298828125
 20
-4937.896484375
 10
4957.298828125
 20
-4928.1953125
 10
4957.298828125
 20
-4918.494140625
 10
4957.298828125
 20
-4908.79296875
 10
4957.298828125
 20
-4899.091796875
 10
4957.298828125
 20
-4889.390625
 10
4957.298828125
 20
-4879.689453125
 10
4957.298828125
 20
-4869.98828125
 10
4957.298828125
 20
-4860.287109375
 10
4957.298828125
 20
-4850.5859375
 10
4957.298828125
 20
-4840.884765625
 10
4957.298828125
 20
-4831.18359375
 10
4957.298828125
 20
-4821.482421875
 10
4957.298828125
 20
-4811.78125
 10
4957.298828125
 20
-4802.080078125
 10
4957.298828125
 20
-4792.37890625
 10
4957.298828125
 20
-4782.677734375
 10
4957.298828125
 20
-4772.9765625
 10
4957.298828125
 20
-4763.275390625
 10
4957.298828125
 20
-4753.57421875
 10
4957.298828125
 20
-4743.873046875
 10
4957.298828125
 20
-4734.171875
 10
4957.298828125
 20
-4724.470703125
 10
4957.298828125
 20
-4714.76953125
 10
4957.298828125
 20
-4705.068359375
 10
4957.298828125
 20
-4695.3671875
 10
4957.298828125
 20
-4685.666015625
 10
4957.298828125
 20
-4675.96484375
 10
4957.298828125
 20
-4666.263671875
 10
4957.298828125
 20
-4656.5625
 10
4957.298828125
 20
-4646.861328125
 10
4957.298828125
 20
-4637.16015625
 10
4957.298828125
 20
-4627.458984375
 10
4957.298828125
 20
-4617.7578125
 10
4957.298828125
 20
-4608.056640625
 10
4957.298828125
 20
-4598.35546875
 10
4957.298828125
 20
-4588.654296875
 10
4957.298828125
 20
-4578.953125
 10
4957.298828125
 20
-4569.251953125
 10
4957.298828125
 20
-4559.55078125
 10
4957.298828125
 20
-4549.849609375
 10
4957.298828125
 20
-4540.1484375
 10
4957.298828125
 20
-4530.447265625
 10
4957.298828125
 20
-4520.74609375
 10
4957.298828125
 20
-4511.044921875
 10
4957.298828125
 20
-4501.34375
 10
4957.298828125
 20
-4491.642578125
 10
4957.298828125
 20
-4481.94140625
 10
4957.298828125
 20
-4472.240234375
 10
4957.298828125
 20
-4462.5390625
 10
4957.298828125
 20
-4452.837890625
 10
4957.298828125
 20
-4443.13671875
 10
4957.298828125
 20
-4433.435546875
 10
4957.298828125
 20
-4423.734375
 10
4957.298828125
 20
-4414.033203125
 10
4957.298828125
 20
-4404.33203125
 10
4957.298828125
 20
-4394.630859375
 10
4957.298828125
 20
-4384.9296875
 10
4957.298828125
 20
-4375.228515625
 10
4957.298828125
 20
-4365.52734375
 10
4957.298828125
 20
-4355.826171875
 10
4957.298828125
 20
-4346.125
 10
4957.298828125
 20
-4336.423828125
 10
4957.298828125
 20
-4326.72265625
 10
4957.298828125
 20
-4317.021484375
 10
4957.298828125
 20
-4307.3203125
 10
4957.298828125
 20
-4297.619140625
 10
4957.298828125
 20
-4287.91796875
 10
4957.298828125
 20
-4278.216796875
 10
4957.298828125
 20
-4268.515625
 10
4957.298828125
 20
-4258.814453125
 10
4957.298828125
 20
-4249.11328125
 10
4957.298828125
 20
-4239.412109375
 10
4957.298828125
 20
-4229.7109375
 10
4957.298828125
 20
-4220.009765625
 10
4957.298828125
 20
-4210.30859375
 10
4957.298828125
 20
-4200.607421875
 10
4957.298828125
 20
-4190.90625
 10
4957.298828125
 20
-4181.205078125
 10
4957.298828125
 20
-4171.50390625
 10
4957.298828125
 20
-4161.802734375
 10
4957.298828125
 20
-4152.1015625
 10
4957.298828125
 20
-4142.400390625
 10
4957.298828125
 20
-4132.69921875
 10
4957.298828125
 20
-4122.998046875
 10
4957.298828125
 20
-4113.296875
 10
4957.298828125
 20
-4103.595703125
 10
4957.298828125
 20
-4093.89453125
 10
4957.298828125
 20
-4084.193359375
 10
4957.298828125
 20
-4074.4921875
 10
4957.298828125
 20
-4064.791015625
 10
4957.298828125
 20
-4055.08984375
 10
4957.298828125
 20
-4045.388671875
 10
4957.298828125
 20
-4035.6875
 10
4957.298828125
 20
-4025.986328125
 10
4957.298828125
 20
-4016.28515625
 10
4957.298828125
 20
-4006.583984375
 10
4957.298828125
 20
-3996.8828125
 10
4957.298828125
 20
-3987.181640625
 10
4957.298828125
 20
-3977.48046875
 10
4957.298828125
 20
-3967.779296875
 10
4957.298828125
 20
-3958.078125
 10
4957.298828125
 20
-3948.376953125
 10
4957.298828125
 20
-3938.67578125
 10
4957.298828125
 20
-3928.974609375
 10
4957.298828125
 20
-3919.2734375
 10
4957.298828125
 20
-3909.572265625
 10
4957.298828125
 20
-3899.87109375
 10
4957.298828125
 20
-3890.169921875
 10
4957.298828125
 20
-3880.46875
 10
4957.298828125
 20
-3870.767578125
 10
4957.298828125
 20
-3861.06640625
 10
4957.298828125
 20
-3851.365234375
 10
4957.298828125
 20
-3841.6640625
 10
4957.298828125
 20
-3831.962890625
 10
4957.298828125
 20
-3822.26171875
 10
4957.298828125
 20
-3812.560546875
 10
4957.298828125
 20
-3802.859375
 10
4957.298828125
 20
-3793.158203125
 10
4957.298828125
 20
-3783.45703125
 10
4957.298828125
 20
-3773.755859375
 10
4957.298828125
 20
-3764.0546875
 10
4957.298828125
 20
-3754.353515625
 10
4957.298828125
 20
-3744.65234375
 10
4957.298828125
 20
-3734.951171875
 10
4957.298828125
 20
-3725.25
 10
4957.298828125
 20
-3715.548828125
 10
4957.298828125
 20
-3705.84765625
 10
4957.298828125
 20
-3696.146484375
 10
4957.298828125
 20
-3686.4453125
 10
4957.298828125
 20
-3676.744140625
 10
4957.298828125
 20
-3667.04296875
 10
4957.298828125
 20
-3657.341796875
 10
4957.298828125
 20
-3647.640625
 10
4957.298828125
 20
-3637.939453125
 10
4957.298828125
 20
-3628.23828125
 10
4957.298828125
 20
-3618.537109375
 10
4957.298828125
 20
-3608.8359375
 10
4957.298828125
 20
-3599.134765625
 10
4957.298828125
 20
-3589.43359375
 10
4957.298828125
 20
-3579.732421875
 10
4957.298828125
 20
-3570.03125
 10
4957.298828125
 20
-3560.330078125
 10
4957.298828125
 20
-3550.62890625
 10
4957.298828125
 20
-3540.927734375
 10
4957.298828125
 20
-3531.2265625
 10
4957.298828125
 20
-3521.525390625
 10
4957.298828125
 20
-3511.82421875
 10
4957.298828125
 20
-3502.123046875
 10
4957.298828125
 20
-3492.421875
 10
4957.298828125
 20
-3482.720703125
 10
4957.298828125
 20
-3473.01953125
 10
4957.298828125
 20
-3463.318359375
 10
4957.298828125
 20
-3453.6171875
 10
4957.298828125
 20
-3443.916015625
 10
4957.298828125
 20
-3434.21484375
 10
4957.298828125
 20
-3424.513671875
 10
4957.298828125
 20
-3414.8125
 10
4957.298828125
 20
-3405.111328125
 10
4957.298828125
 20
-3395.41015625
 10
4957.298828125
 20
-3385.708984375
 10
4957.298828125
 20
-3376.0078125
 10
4957.298828125
 20
-3366.306640625
 10
4957.298828125
 20
-3356.60546875
 10
4957.298828125
 20
-3346.904296875
 10
4957.298828125
 20
-3337.203125
 10
4957.298828125
 20
-3327.501953125
 10
4957.298828125
 20
-3317.80078125
 10
4957.298828125
 20
-3308.099609375
 10
4957.298828125
 20
-3298.3984375
 10
4957.298828125
 20
-3288.697265625
 10
4957.298828125
 20
-3278.99609375
 10
4957.298828125
 20
-3269.294921875
 10
4957.298828125
 20
-3259.59375
 10
4957.298828125
 20
-3249.892578125
 10
4957.298828125
 20
-3240.19140625
 10
4957.298828125
 20
-3230.490234375
 10
4957.298828125
 20
-3220.7890625
 10
4957.298828125
 20
-3211.087890625
 10
4957.298828125
 20
-3201.38671875
 10
4957.298828125
 20
-3191.685546875
 10
4957.298828125
 20
-3181.984375
 10
4957.298828125
 20
-3172.283203125
 10
4957.298828125
 20
-3162.58203125
 10
4957.298828125
 20
-3152.880859375
 10
4957.298828125
 20
-3143.1796875
 10
4957.298828125
 20
-3133.478515625
 10
4957.298828125
 20
-3123.77734375
 10
4957.298828125
 20
-3114.076171875
 10
4957.298828125
 20
-3104.375
 10
4957.298828125
 20
-3094.673828125
 10
4957.298828125
 20
-3084.97265625
 10
4957.298828125
 20
-3075.271484375
 10
4957.298828125
 20
-3065.5703125
 10
4957.298828125
 20
-3055.869140625
 10
4957.298828125
 20
-3046.16796875
 10
4957.298828125
 20
-3036.466796875
 10
4957.298828125
 20
-3026.765625
 10
4957.298828125
 20
-3017.064453125
 10
4957.298828125
 20
-3007.36328125
 10
4957.298828125
 20
-2997.662109375
 10
4957.298828125
 20
-2987.9609375
 10
4957.298828125
 20
-2978.259765625
 10
4957.298828125
 20
-2968.55859375
 10
4957.298828125
 20
-2958.857421875
 10
4957.298828125
 20
-2949.15625
 10
4957.298828125
 20
-2939.455078125
 10
4957.298828125
 20
-2929.75390625
 10
4957.298828125
 20
-2920.052734375
 10
4957.298828125
 20
-2910.3515625
 10
4957.298828125
 20
-2900.650390625
 10
4957.298828125
 20
-2890.94921875
 10
4957.298828125
 20
-2881.248046875
 10
4957.298828125
 20
-2871.546875
 10
4957.298828125
 20
-2861.845703125
 10
4957.298828125
 20
-2852.14453125
 10
4957.298828125
 20
-2842.443359375
 10
4957.298828125
 20
-2832.7421875
 10
4957.298828125
 20
-2823.041015625
 10
4957.298828125
 20
-2813.33984375
 10
4957.298828125
 20
-2803.638671875
 10
4957.298828125
 20
-2793.9375
 10
4957.298828125
 20
-2784.236328125
 10
4957.298828125
 20
-2774.53515625
 10
4957.298828125
 20
-2764.833984375
 10
4957.298828125
 20
-2755.1328125
 10
4957.298828125
 20
-2745.431640625
 10
4957.298828125
 20
-2735.73046875
 10
4957.298828125
 20
-2726.029296875
 10
4957.298828125
 20
-2716.328125
 10
4957.298828125
 20
-2706.626953125
 10
4957.298828125
 20
-2696.92578125
 10
4957.298828125
 20
-2687.224609375
 10
4957.298828125
 20
-2677.5234375
 10
4957.298828125
 20
-2667.822265625
 10
4957.298828125
 20
-2658.12109375
 10
4957.298828125
 20
-2648.419921875
 10
4957.298828125
 20
-2638.71875
 10
4957.298828125
 20
-2629.017578125
 10
4957.298828125
 20
-2619.31640625
 10
4957.298828125
 20
-2609.615234375
 10
4957.298828125
 20
-2599.9140625
 10
4957.298828125
 20
-2590.212890625
 10
4957.298828125
 20
-2580.51171875
 10
4957.298828125
 20
-2570.810546875
 10
4957.298828125
 20
-2561.109375
 10
4957.298828125
 20
-2551.408203125
 10
4957.298828125
 20
-2541.70703125
 10
4957.298828125
 20
-2532.005859375
 10
4957.298828125
 20
-2522.3046875
 10
4957.298828125
 20
-2512.603515625
 10
4957.298828125
 20
-2502.90234375
 10
4957.298828125
 20
-2493.201171875
 10
4957.298828125
 20
-2483.5
 10
4957.298828125
 20
-2473.798828125
 10
4957.298828125
 20
-2464.09765625
 10
4957.298828125
 20
-2454.396484375
 10
4957.298828125
 20
-2444.6953125
 10
4957.298828125
 20
-2434.994140625
 10
4957.298828125
 20
-2425.29296875
 10
4957.298828125
 20
-2415.591796875
 10
4957.298828125
 20
-2405.890625
 10
4957.298828125
 20
-2396.189453125
 10
4957.298828125
 20
-2386.48828125
 10
4957.298828125
 20
-2376.787109375
 10
4957.298828125
 20
-2367.0859375
 10
4957.298828125
 20
-2357.384765625
 10
4957.298828125
 20
-2347.68359375
 10
4957.298828125
 20
-2337.982421875
 10
4957.298828125
 20
-2328.28125
 10
4957.298828125
 20
-2318.580078125
 10
4957.298828125
 20
-2308.87890625
 10
4957.298828125
 20
-2299.177734375
 10
4957.298828125
 20
-2289.4765625
 10
4957.298828125
 20
-2279.775390625
 10
4957.298828125
 20
-2270.07421875
 10
4957.298828125
 20
-2260.373046875
 10
4957.298828125
 20
-2250.671875
 10
4957.298828125
 20
-2240.970703125
 10
4957.298828125
 20
-2231.26953125
 10
4957.298828125
 20
-2221.568359375
 10
4957.298828125
 20
-2211.8671875
 10
4957.298828125
 20
-2202.166015625
 10
4957.298828125
 20
-2192.46484375
 10
4957.298828125
 20
-2182.763671875
 10
4957.298828125
 20
-2173.0625
 10
4957.298828125
 20
-2163.361328125
 10
4957.298828125
 20
-2153.66015625
 10
4957.298828125
 20
-2143.958984375
 10
4957.298828125
 20
-2134.2578125
 10
4957.298828125
 20
-2124.556640625
 10
4957.298828125
 20
-2114.85546875
 10
4957.298828125
 20
-2105.154296875
 10
4957.298828125
 20
-2095.453125
 10
4957.298828125
 20
-2085.751953125
 10
4957.298828125
 20
-2076.05078125
 10
4957.298828125
 20
-2066.349609375
 10
4957.298828125
 20
-2056.6484375
 10
4957.298828125
 20
-2046.947265625
 10
4957.298828125
 20
-2037.24609375
 10
4957.298828125
 20
-2027.544921875
 10
4957.298828125
 20
-2017.84375
 10
4957.298828125
 20
-2008.142578125
 10
4957.298828125
 20
-1998.44140625
 10
4957.298828125
 20
-1988.740234375
 10
4957.298828125
 20
-1979.0390625
 10
4957.298828125
 20
-1969.337890625
 10
4957.298828125
 20
-1959.63671875
 10
4957.298828125
 20
-1949.935546875
 10
4957.298828125
 20
-1940.234375
 10
4957.298828125
 20
-1930.533203125
 10
4957.298828125
 20
-1920.83203125
 10
4957.298828125
 20
-1911.130859375
 10
4957.298828125
 20
-1901.4296875
 10
4957.298828125
 20
-1891.728515625
 10
4957.298828125
 20
-1882.02734375
 10
4957.298828125
 20
-1872.326171875
 10
4957.298828125
 20
-1862.625
 10
4957.298828125
 20
-1852.923828125
 10
4957.298828125
 20
-1843.22265625
 10
4957.298828125
 20
-1833.521484375
 10
4957.298828125
 20
-1823.8203125
 10
4957.298828125
 20
-1814.119140625
 10
4957.298828125
 20
-1804.41796875
 10
4957.298828125
 20
-1794.716796875
 10
4957.298828125
 20
-1785.015625
 10
4957.298828125
 20
-1775.314453125
 10
4957.298828125
 20
-1765.61328125
 10
4957.298828125
 20
-1755.912109375
 10
4957.298828125
 20
-1746.2109375
 10
4957.298828125
 20
-1736.509765625
 10
4957.298828125
 20
-1726.80859375
 10
4957.298828125
 20
-1717.107421875
 10
4957.298828125
 20
-1707.40625
 10
4957.298828125
 20
-1697.705078125
 10
4957.298828125
 20
-1688.00390625
 10
4957.298828125
 20
-1678.302734375
 10
4957.298828125
 20
-1668.6015625
 10
4957.298828125
 20
-1658.900390625
 10
4957.298828125
 20
-1649.19921875
 10
4957.298828125
 20
-1639.498046875
 10
4957.298828125
 20
-1629.796875
 10
4957.298828125
 20
-1620.095703125
 10
4957.298828125
 20
-1610.39453125
 10
4957.298828125
 20
-1600.693359375
 10
4957.298828125
 20
-1590.9921875
 10
4957.298828125
 20
-1581.291015625
 10
4957.298828125
 20
-1571.58984375
 10
4957.298828125
 20
-1561.888671875
 10
4957.298828125
 20
-1552.1875
 10
4957.298828125
 20
-1542.486328125
 10
4957.298828125
 20
-1532.78515625
 10
4957.298828125
 20
-1523.083984375
 10
4957.298828125
 20
-1513.3828125
 10
4957.298828125
 20
-1503.681640625
 10
4957.298828125
 20
-1493.98046875
 10
4957.298828125
 20
-1484.279296875
 10
4957.298828125
 20
-1474.578125
 10
4957.298828125
 20
-1464.876953125
 10
4957.298828125
 20
-1455.17578125
 10
4957.298828125
 20
-1445.474609375
 10
4957.298828125
 20
-1435.7734375
 10
4957.298828125
 20
-1426.072265625
 10
4957.298828125
 20
-1416.37109375
 10
4957.298828125
 20
-1406.669921875
 10
4957.298828125
 20
-1396.96875
 10
4957.298828125
 20
-1387.267578125
 10
4957.298828125
 20
-1377.56640625
 10
4957.298828125
 20
-1367.865234375
 10
4957.298828125
 20
-1358.1640625
 10
4957.298828125
 20
-1348.462890625
 10
4957.298828125
 20
-1338.76171875
 10
4957.298828125
 20
-1329.060546875
 10
4957.298828125
 20
-1319.359375
 10
4957.298828125
 20
-1309.658203125
 10
4957.298828125
 20
-1299.95703125
 10
4957.298828125
 20
-1290.255859375
 10
4957.298828125
 20
-1280.5546875
 10
4957.298828125
 20
-1270.853515625
 10
4957.298828125
 20
-1261.15234375
 10
4957.298828125
 20
-1251.451171875
 10
4957.298828125
 20
-1241.75
 10
4957.298828125
 20
-1232.048828125
 10
4957.298828125
 20
-1222.34765625
 10
4957.298828125
 20
-1212.646484375
 10
4957.298828125
 20
-1202.9453125
 10
4957.298828125
 20
-1193.244140625
 10
4957.298828125
 20
-1183.54296875
 10
4957.298828125
 20
-1173.841796875
 10
4957.298828125
 20
-1164.140625
 10
4957.298828125
 20
-1154.439453125
 10
4957.298828125
 20
-1144.73828125
 10
4957.298828125
 20
-1135.037109375
 10
4957.298828125
 20
-1125.3359375
 10
4957.298828125
 20
-1115.634765625
 10
4957.298828125
 20
-1105.93359375
 10
4957.298828125
 20
-1096.232421875
 10
4957.298828125
 20
-1086.53125
 10
4957.298828125
 20
-1076.830078125
 10
4957.298828125
 20
-1067.12890625
 10
4957.298828125
 20
-1057.427734375
 10
4957.298828125
 20
-1047.7265625
 10
4957.298828125
 20
-1038.025390625
 10
4957.298828125
 20
-1028.32421875
 10
4957.298828125
 20
-1018.623046875
 10
4957.298828125
 20
-1008.921875
 10
4957.298828125
 20
-999.220703125
 10
4957.298828125
 20
-989.51953125
 10
4957.298828125
 20
-979.818359375
 10
4957.298828125
 20
-970.1171875
 10
4957.298828125
 20
-960.416015625
 10
4957.298828125
 20
-950.71484375
 10
4957.298828125
 20
-941.013671875
 10
4957.298828125
 20
-931.3125
 10
4957.298828125
 20
-921.611328125
 10
4957.298828125
 20
-911.91015625
 10
4957.298828125
 20
-902.208984375
 10
4957.298828125
 20
-892.5078125
 10
4957.298828125
 20
-882.806640625
 10
4957.298828125
 20
-873.10546875
 10
4957.298828125
 20
-863.404296875
 10
4957.298828125
 20
-853.703125
 10
4957.298828125
 20
-844.001953125
 10
4957.298828125
 20
-834.30078125
 10
4957.298828125
 20
-824.599609375
 10
4957.298828125
 20
-814.8984375
 10
4957.298828125
 20
-805.197265625
 10
4957.298828125
 20
-795.49609375
 10
4957.298828125
 20
-785.794921875
 10
4957.298828125
 20
-776.09375
 10
4957.298828125
 20
-766.392578125
 10
4957.298828125
 20
-756.69140625
 10
4957.298828125
 20
-746.990234375
 10
4957.298828125
 20
-737.2890625
 10
4957.298828125
 20
-727.587890625
 10
4957.298828125
 20
-717.88671875
 10
4957.298828125
 20
-708.185546875
 10
4957.298828125
 20
-698.484375
 10
4957.298828125
 20
-688.783203125
 10
4957.298828125
 20
-679.08203125
 10
4957.298828125
 20
-669.380859375
 10
4957.298828125
 20
-659.6796875
 10
4957.298828125
 20
-649.978515625
 10
4957.298828125
 20
-640.27734375
 10
4957.298828125
 20
-630.576171875
 10
4957.298828125
 20
-620.875
 10
4957.298828125
 20
-611.173828125
 10
4957.298828125
 20
-601.47265625
 10
4957.298828125
 20
-591.771484375
 10
4957.298828125
 20
-582.0703125
 10
4957.298828125
 20
-572.369140625
 10
4957.298828125
 20
-562.66796875
 10
4957.298828125
 20
-552.966796875
 10
4957.298828125
 20
-543.265625
 10
4957.298828125
 20
-533.564453125
 10
4957.298828125
 20
-523.86328125
 10
4957.298828125
 20
-514.162109375
 10
4957.298828125
 20
-504.4609375
 10
4957.298828125
 20
-494.759765625
 10
4957.298828125
 20
-485.05859375
 10
4957.298828125
 20
-475.357421875
 10
4957.298828125
 20
-465.65625
 10
4957.298828125
 20
-455.955078125
 10
4957.298828125
 20
-446.25390625
 10
4957.298828125
 20
-436.552734375
 10
4957.298828125
 20
-426.8515625
 10
4957.298828125
 20
-417.150390625
 10
4957.298828125
 20
-407.44921875
 10
4957.298828125
 20
-397.748046875
 10
4957.298828125
 20
-388.046875
 10
4957.298828125
 20
-378.345703125
 10
4957.298828125
 20
-368.64453125
 10
4957.298828125
 20
-358.943359375
 10
4957.298828125
 20
-349.2421875
 10
4957.298828125
 20
-339.541015625
 10
4957.298828125
 20
-329.83984375
 10
4957.298828125
 20
-320.138671875
 10
4957.298828125
 20
-310.4375
 10
4957.298828125
 20
-300.736328125
 10
4957.298828125
 20
-291.03515625
 10
4957.298828125
 20
-281.333984375
 10
4957.298828125
 20
-271.6328125
 10
4957.298828125
 20
-261.931640625
 10
4957.298828125
 20
-252.23046875
 10
4957.298828125
 20
-242.529296875
 10
4957.298828125
 20
-232.828125
 10
4957.298828125
 20
-223.126953125
 10
4957.298828125
 20
-213.42578125
 10
4957.298828125
 20
-203.724609375
 10
4957.298828125
 20
-194.0234375
 10
4957.298828125
 20
-184.322265625
 10
4957.298828125
 20
-174.62109375
 10
4957.298828125
 20
-164.919921875
 10
4957.298828125
 20
-155.21875
 10
4957.298828125
 20
-145.517578125
 10
4957.298828125
 20
-135.81640625
 10
4957.298828125
 20
-126.115234375
 10
4957.298828125
 20
-116.4140625
 10
4957.298828125
 20
-106.712890625
 10
4957.298828125
 20
-97.01171875
 10
4957.298828125
 20
-87.310546875
 10
4957.298828125
 20
-77.609375
 10
4957.298828125
 20
-67.908203125
 10
4957.298828125
 20
-58.20703125
 10
4957.298828125
 20
-48.505859375
 10
4957.298828125
 20
-38.8046875
 10
4957.298828125
 20
-29.103515625
 10
4957.298828125
 20
-19.40234375
 10
4957.298828125
 20
-9.701171875
 10
4957.298828125
 20
-0.0
 10
4947.59765625
 20
-0.0
 10
4937.896484375
 20
-0.0
 10
4928.1953125
 20
-0.0
 10
4918.494140625
 20
-0.0
 10
4908.79296875
 20
-0.0
 10
4899.091796875
 20
-0.0
 10
4889.390625
 20
-0.0
 10
4879.689453125
 20
-0.0
 10
4869.98828125
 20
-0.0
 10
4860.287109375
 20
-0.0
 10
4850.5859375
 20
-0.0
 10
4840.884765625
 20
-0.0
 10
4831.18359375
 20
-0.0
 10
4821.482421875
 20
-0.0
 10
4811.78125
 20
-0.0
 10
4802.080078125
 20
-0.0
 10
4792.37890625
 20
-0.0
 10
4782.677734375
 20
-0.0
 10
4772.9765625
 20
-0.0
 10
4763.275390625
 20
-0.0
 10
4753.57421875
 20
-0.0
 10
4743.873046875
 20
-0.0
 10
4734.171875
 20
-0.0
 10
4724.470703125
 20
-0.0
 10
4714.76953125
 20
-0.0
 10
4705.068359375
 20
-0.0
 10
4695.3671875
 20
-0.0
 10
4685.666015625
 20
-0.0
 10
4675.96484375
 20
-0.0
 10
4666.263671875
 20
-0.0
 10
4656.5625
 20
-0.0
 10
4646.861328125
 20
-0.0
 10
4637.16015625
 20
-0.0
 10
4627.458984375
 20
-0.0
 10
4617.7578125
 20
-0.0
 10
4608.056640625
 20
-0.0
 10
4598.35546875
 20
-0.0
 10
4588.654296875
 20
-0.0
 10
4578.953125
 20
-0.0
 10
4569.251953125
 20
-0.0
 10
4559.55078125
 20
-0.0
 10
4549.849609375
 20
-0.0
 10
4540.1484375
 20
-0.0
 10
4530.447265625
 20
-0.0
 10
4520.74609375
 20
-0.0
 10
4511.044921875
 20
-0.0
 10
4501.34375
 20
-0.0
 10
4491.642578125
 20
-0.0
 10
4481.94140625
 20
-0.0
 10
4472.240234375
 20
-0.0
 10
4462.5390625
 20
-0.0
 10
4452.837890625
 20
-0.0
 10
4443.13671875
 20
-0.0
 10
4433.435546875
 20
-0.0
 10
4423.734375
 20
-0.0
 10
4414.033203125
 20
-0.0
 10
4404.33203125
 20
-0.0
 10
4394.630859375
 20
-0.0
 10
4384.9296875
 20
-0.0
 10
4375.228515625
 20
-0.0
 10
4365.52734375
 20
-0.0
 10
4355.826171875
 20
-0.0
 10
4346.125
 20
-0.0
 10
4336.423828125
 20
-0.0
 10
4326.72265625
 20
-0.0
 10
4317.021484375
 20
-0.0
 10
4307.3203125
 20
-0.0
 10
4297.619140625
 20
-0.0
 10
4287.91796875
 20
-0.0
 10
4278.216796875
 20
-0.0
 10
4268.515625
 20
-0.0
 10
4258.814453125
 20
-0.0
 10
4249.11328125
 20
-0.0
 10
4239.412109375
 20
-0.0
 10
4229.7109375
 20
-0.0
 10
4220.009765625
 20
-0.0
 10
4210.30859375
 20
-0.0
 10
4200.607421875
 20
-0.0
 10
4190.90625
 20
-0.0
 10
4181.205078125
 20
-0.0
 10
4171.50390625
 20
-0.0
 10
4161.802734375
 20
-0.0
 10
4152.1015625
 20
-0.0
 10
4142.400390625
 20
-0.0
 10
4132.69921875
 20
-0.0
 10
4122.998046875
 20
-0.0
 10
4113.296875
 20
-0.0
 10
4103.595703125
 20
-0.0
 10
4093.89453125
 20
-0.0
 10
4084.193359375
 20
-0.0
 10
4074.4921875
 20
-0.0
 10
4064.791015625
 20
-0.0
 10
4055.08984375
 20
-0.0
 10
4045.388671875
 20
-0.0
 10
4035.6875
 20
-0.0
 10
4025.986328125
 20
-0.0
 10
4016.28515625
 20
-0.0
 10
4006.583984375
 20
-0.0
 10
3996.8828125
 20
-0.0
 10
3987.181640625
 20
-0.0
 10
3977.48046875
 20
-0.0
 10
3967.779296875
 20
-0.0
 10
3958.078125
 20
-0.0
 10
3948.376953125
 20
-0.0
 10
3938.67578125
 20
-0.0
 10
3928.974609375
 20
-0.0
 10
3919.2734375
 20
-0.0
 10
3909.572265625
 20
-0.0
 10
3899.87109375
 20
-0.0
 10
3890.169921875
 20
-0.0
 10
3880.46875
 20
-0.0
 10
3870.767578125
 20
-0.0
 10
3861.06640625
 20
-0.0
 10
3851.365234375
 20
-0.0
 10
3841.6640625
 20
-0.0
 10
3831.962890625
 20
-0.0
 10
3822.26171875
 20
-0.0
 10
3812.560546875
 20
-0.0
 10
3802.859375
 20
-0.0
 10
3793.158203125
 20
-0.0
 10
3783.45703125
 20
-0.0
 10
3773.755859375
 20
-0.0
 10
3764.0546875
 20
-0.0
 10
3754.353515625
 20
-0.0
 10
3744.65234375
 20
-0.0
 10
3734.951171875
 20
-0.0
 10
3725.25
 20
-0.0
 10
3715.548828125
 20
-0.0
 10
3705.84765625
 20
-0.0
 10
3696.146484375
 20
-0.0
 10
3686.4453125
 20
-0.0
 10
3676.744140625
 20
-0.0
 10
3667.04296875
 20
-0.0
 10
3657.341796875
 20
-0.0
 10
3647.640625
 20
-0.0
 10
3637.939453125
 20
-0.0
 10
3628.23828125
 20
-0.0
 10
3618.537109375
 20
-0.0
 10
3608.8359375
 20
-0.0
 10
3599.134765625
 20
-0.0
 10
3589.43359375
 20
-0.0
 10
3579.732421875
 20
-0.0
 10
3570.03125
 20
-0.0
 10
3560.330078125
 20
-0.0
 10
3550.62890625
 20
-0.0
 10
3540.927734375
 20
-0.0
 10
3531.2265625
 20
-0.0
 10
3521.525390625
 20
-0.0
 10
3511.82421875
 20
-0.0
 10
3502.123046875
 20
-0.0
 10
3492.421875
 20
-0.0
 10
3482.720703125
 20
-0.0
 10
3473.01953125
 20
-0.0
 10
3463.318359375
 20
-0.0
 10
3453.6171875
 20
-0.0
 10
3443.916015625
 20
-0.0
 10
3434.21484375
 20
-0.0
 10
3424.513671875
 20
-0.0
 10
3414.8125
 20
-0.0
 10
3405.111328125
 20
-0.0
 10
3395.41015625
 20
-0.0
 10
3385.708984375
 20
-0.0
 10
3376.0078125
 20
-0.0
 10
3366.306640625
 20
-0.0
 10
3356.60546875
 20
-0.0
 10
3346.904296875
 20
-0.0
 10
3337.203125
 20
-0.0
 10
3327.501953125
 20
-0.0
 10
3317.80078125
 20
-0.0
 10
3308.099609375
 20
-0.0
 10
3298.3984375
 20
-0.0
 10
3288.697265625
 20
-0.0
 10
3278.99609375
 20
-0.0
 10
3269.294921875
 20
-0.0
 10
3259.59375
 20
-0.0
 10
3249.892578125
 20
-0.0
 10
3240.19140625
 20
-0.0
 10
3230.490234375
 20
-0.0
 10
3220.7890625
 20
-0.0
 10
3211.087890625
 20
-0.0
 10
3201.38671875
 20
-0.0
 10
3191.685546875
 20
-0.0
 10
3181.984375
 20
-0.0
 10
3172.283203125
 20
-0.0
 10
3162.58203125
 20
-0.0
 10
3152.880859375
 20
-0.0
 10
3143.1796875
 20
-0.0
 10
3133.478515625
 20
-0.0
 10
3123.77734375
 20
-0.0
 10
3114.076171875
 20
-0.0
 10
3104.375
 20
-0.0
 10
3094.673828125
 20
-0.0
 10
3084.97265625
 20
-0.0
 10
3075.271484375
 20
-0.0
 10
3065.5703125
 20
-0.0
 10
3055.869140625
 20
-0.0
 10
3046.16796875
 20
-0.0
 10
3036.466796875
 20
-0.0
 10
3026.765625
 20
-0.0
 10
3017.064453125
 20
-0.0
 10
3007.36328125
 20
-0.0
 10
2997.662109375
 20
-0.0
 10
2987.9609375
 20
-0.0
 10
2978.259765625
 20
-0.0
 10
2968.55859375
 20
-0.0
 10
2958.857421875
 20
-0.0
 10
2949.15625
 20
-0.0
 10
2939.455078125
 20
-0.0
 10
2929.75390625
 20
-0.0
 10
2920.052734375
 20
-0.0
 10
2910.3515625
 20
-0.0
 10
2900.650390625
 20
-0.0
 10
2890.94921875
 20
-0.0
 10
2881.248046875
 20
-0.0
 10
2871.546875
 20
-0.0
 10
2861.845703125
 20
-0.0
 10
2852.14453125
 20
-0.0
 10
2842.443359375
 20
-0.0
 10
2832.7421875
 20
-0.0
 10
2823.041015625
 20
-0.0
 10
2813.33984375
 20
-0.0
 10
2803.638671875
 20
-0.0
 10
2793.9375
 20
-0.0
 10
2784.236328125
 20
-0.0
 10
2774.53515625
 20
-0.0
 10
2764.833984375
 20
-0.0
 10
2755.1328125
 20
-0.0
 10
2745.431640625
 20
-0.0
 10
2735.73046875
 20
-0.0
 10
2726.029296875
 20
-0.0
 10
2716.328125
 20
-0.0
 10
2706.626953125
 20
-0.0
 10
2696.92578125
 20
-0.0
 10
2687.224609375
 20
-0.0
 10
2677.5234375
 20
-0.0
 10
2667.822265625
 20
-0.0
 10
2658.12109375
 20
-0.0
 10
2648.419921875
 20
-0.0
 10
2638.71875
 20
-0.0
 10
2629.017578125
 20
-0.0
 10
2619.31640625
 20
-0.0
 10
2609.615234375
 20
-0.0
 10
2599.9140625
 20
-0.0
 10
2590.212890625
 20
-0.0
 10
2580.51171875
 20
-0.0
 10
2570.810546875
 20
-0.0
 10
2561.109375
 20
-0.0
 10
2551.408203125
 20
-0.0
 10
2541.70703125
 20
-0.0
 10
2532.005859375
 20
-0.0
 10
2522.3046875
 20
-0.0
 10
2512.603515625
 20
-0.0
 10
2502.90234375
 20
-0.0
 10
2493.201171875
 20
-0.0
 10
2483.5
 20
-0.0
 10
2473.798828125
 20
-0.0
 10
2464.09765625
 20
-0.0
 10
2454.396484375
 20
-0.0
 10
2444.6953125
 20
-0.0
 10
2434.994140625
 20
-0.0
 10
2425.29296875
 20
-0.0
 10
2415.591796875
 20
-0.0
 10
2405.890625
 20
-0.0
 10
2396.189453125
 20
-0.0
 10
2386.48828125
 20
-0.0
 10
2376.787109375
 20
-0.0
 10
2367.0859375
 20
-0.0
 10
2357.384765625
 20
-0.0
 10
2347.68359375
 20
-0.0
 10
2337.982421875
 20
-0.0
 10
2328.28125
 20
-0.0
 10
2318.580078125
 20
-0.0
 10
2308.87890625
 20
-0.0
 10
2299.177734375
 20
-0.0
 10
2289.4765625
 20
-0.0
 10
2279.775390625
 20
-0.0
 10
2270.07421875
 20
-0.0
 10
2260.373046875
 20
-0.0
 10
2250.671875
 20
-0.0
 10
2240.970703125
 20
-0.0
 10
2231.26953125
 20
-0.0
 10
2221.568359375
 20
-0.0
 10
2211.8671875
 20
-0.0
 10
2202.166015625
 20
-0.0
 10
2192.46484375
 20
-0.0
 10
2182.763671875
 20
-0.0
 10
2173.0625
 20
-0.0
 10
2163.361328125
 20
-0.0
 10
2153.66015625
 20
-0.0
 10
2143.958984375
 20
-0.0
 10
2134.2578125
 20
-0.0
 10
2124.556640625
 20
-0.0
 10
2114.85546875
 20
-0.0
 10
2105.154296875
 20
-0.0
 10
2095.453125
 20
-0.0
 10
2085.751953125
 20
-0.0
 10
2076.05078125
 20
-0.0
 10
2066.349609375
 20
-0.0
 10
2056.6484375
 20
-0.0
 10
2046.947265625
 20
-0.0
 10
2037.24609375
 20
-0.0
 10
2027.544921875
 20
-0.0
 10
2017.84375
 20
-0.0
 10
2008.142578125
 20
-0.0
 10
1998.44140625
 20
-0.0
 10
1988.740234375
 20
-0.0
 10
1979.0390625
 20
-0.0
 10
1969.337890625
 20
-0.0
 10
1959.63671875
 20
-0.0
 10
1949.935546875
 20
-0.0
 10
1940.234375
 20
-0.0
 10
1930.533203125
 20
-0.0
 10
1920.83203125
 20
-0.0
 10
1911.130859375
 20
-0.0
 10
1901.4296875
 20
-0.0
 10
1891.728515625
 20
-0.0
 10
1882.02734375
 20
-0.0
 10
1872.326171875
 20
-0.0
 10
1862.625
 20
-0.0
 10
1852.923828125
 20
-0.0
 10
1843.22265625
 20
-0.0
 10
1833.521484375
 20
-0.0
 10
1823.8203125
 20
-0.0
 10
1814.119140625
 20
-0.0
 10
1804.41796875
 20
-0.0
 10
1794.716796875
 20
-0.0
 10
1785.015625
 20
-0.0
 10
1775.314453125
 20
-0.0
 10
1765.61328125
 20
-0.0
 10
1755.912109375
 20
-0.0
 10
1746.2109375
 20
-0.0
 10
1736.509765625
 20
-0.0
 10
1726.80859375
 20
-0.0
 10
1717.107421875
 20
-0.0
 10
1707.40625
 20
-0.0
 10
1697.705078125
 20
-0.0
 10
1688.00390625
 20
-0.0
 10
1678.302734375
 20
-0.0
 10
1668.6015625
 20
-0.0
 10
1658.900390625
 20
-0.0
 10
1649.19921875
 20
-0.0
 10
1639.498046875
 20
-0.0
 10
1629.796875
 20
-0.0
 10
1620.095703125
 20
-0.0
 10
1610.39453125
 20
-0.0
 10
1600.693359375
 20
-0.0
 10
1590.9921875
 20
-0.0
 10
1581.291015625
 20
-0.0
 10
1571.58984375
 20
-0.0
 10
1561.888671875
 20
-0.0
 10
1552.1875
 20
-0.0
 10
1542.486328125
 20
-0.0
 10
1532.78515625
 20
-0.0
 10
1523.083984375
 20
-0.0
 10
1513.3828125
 20
-0.0
 10
1503.681640625
 20
-0.0
 10
1493.98046875
 20
-0.0
 10
1484.279296875
 20
-0.0
 10
1474.578125
 20
-0.0
 10
1464.876953125
 20
-0.0
 10
1455.17578125
 20
-0.0
 10
1445.474609375
 20
-0.0
 10
1435.7734375
 20
-0.0
 10
1426.072265625
 20
-0.0
 10
1416.37109375
 20
-0.0
 10
1406.669921875
 20
-0.0
 10
1396.96875
 20
-0.0
 10
1387.267578125
 20
-0.0
 10
1377.56640625
 20
-0.0
 10
1367.865234375
 20
-0.0
 10
1358.1640625
 20
-0.0
 10
1348.462890625
 20
-0.0
 10
1338.76171875
 20
-0.0
 10
1329.060546875
 20
-0.0
 10
1319.359375
 20
-0.0
 10
1309.658203125
 20
-0.0
 10
1299.95703125
 20
-0.0
 10
1290.255859375
 20
-0.0
 10
1280.5546875
 20
-0.0
 10
1270.853515625
 20
-0.0
 10
1261.15234375
 20
-0.0
 10
1251.451171875
 20
-0.0
 10
1241.75
 20
-0.0
 10
1232.048828125
 20
-0.0
 10
1222.34765625
 20
-0.0
 10
1212.646484375
 20
-0.0
 10
1202.9453125
 20
-0.0
 10
1193.244140625
 20
-0.0
 10
1183.54296875
 20
-0.0
 10
1173.841796875
 20
-0.0
 10
1164.140625
 20
-0.0
 10
1154.439453125
 20
-0.0
 10
1144.73828125
 20
-0.0
 10
1135.037109375
 20
-0.0
 10
1125.3359375
 20
-0.0
 10
1115.634765625
 20
-0.0
 10
1105.93359375
 20
-0.0
 10
1096.232421875
 20
-0.0
 10
1086.53125
 20
-0.0
 10
1076.830078125
 20
-0.0
 10
1067.12890625
 20
-0.0
 10
1057.427734375
 20
-0.0
 10
1047.7265625
 20
-0.0
 10
1038.025390625
 20
-0.0
 10
1028.32421875
 20
-0.0
 10
1018.623046875
 20
-0.0
 10
1008.921875
 20
-0.0
 10
999.220703125
 20
-0.0
 10
989.51953125
 20
-0.0
 10
979.818359375
 20
-0.0
 10
970.1171875
 20
-0.0
 10
960.416015625
 20
-0.0
 10
950.71484375
 20
-0.0
 10
941.013671875
 20
-0.0
 10
931.3125
 20
-0.0
 10
921.611328125
 20
-0.0
 10
911.91015625
 20
-0.0
 10
902.208984375
 20
-0.0
 10
892.5078125
 20
-0.0
 10
882.806640625
 20
-0.0
 10
873.10546875
 20
-0.0
 10
863.404296875
 20
-0.0
 10
853.703125
 20
-0.0
 10
844.001953125
 20
-0.0
 10
834.30078125
 20
-0.0
 10
824.599609375
 20
-0.0
 10
814.8984375
 20
-0.0
 10
805.197265625
 20
-0.0
 10
795.49609375
 20
-0.0
 10
785.794921875
 20
-0.0
 10
776.09375
 20
-0.0
 10
766.392578125
 20
-0.0
 10
756.69140625
 20
-0.0
 10
746.990234375
 20
-0.0
 10
737.2890625
 20
-0.0
 10
727.587890625
 20
-0.0
 10
717.88671875
 20
-0.0
 10
708.185546875
 20
-0.0
 10
698.484375
 20
-0.0
 10
688.783203125
 20
-0.0
 10
679.08203125
 20
-0.0
 10
669.380859375
 20
-0.0
 10
659.6796875
 20
-0.0
 10
649.978515625
 20
-0.0
 10
640.27734375
 20
-0.0
 10
630.576171875
 20
-0.0
 10
620.875
 20
-0.0
 10
611.173828125
 20
-0.0
 10
601.47265625
 20
-0.0
 10
591.771484375
 20
-0.0
 10
582.0703125
 20
-0.0
 10
572.369140625
 20
-0.0
 10
562.66796875
 20
-0.0
 10
552.966796875
 20
-0.0
 10
543.265625
 20
-0.0
 10
533.564453125
 20
-0.0
 10
523.86328125
 20
-0.0
 10
514.162109375
 20
-0.0
 10
504.4609375
 20
-0.0
 10
494.759765625
 20
-0.0
 10
485.05859375
 20
-0.0
 10
475.357421875
 20
-0.0
 10
465.65625
 20
-0.0
 10
455.955078125
 20
-0.0
 10
446.25390625
 20
-0.0
 10
436.552734375
 20
-0.0
 10
426.8515625
 20
-0.0
 10
417.150390625
 20
-0.0
 10
407.44921875
 20
-0.0
 10
397.748046875
 20
-0.0
 10
388.046875
 20
-0.0
 10
378.345703125
 20
-0.0
 10
368.64453125
 20
-0.0
 10
358.943359375
 20
-0.0
 10
349.2421875
 20
-0.0
 10
339.541015625
 20
-0.0
 10
329.83984375
 20
-0.0
 10
320.138671875
 20
-0.0
 10
310.4375
 20
-0.0
 10
300.736328125
 20
-0.0
 10
291.03515625
 20
-0.0
 10
281.333984375
 20
-0.0
 10
271.6328125
 20
-0.0
 10
261.931640625
 20
-0.0
 10
252.23046875
 20
-0.0
 10
242.529296875
 20
-0.0
 10
232.828125
 20
-0.0
 10
223.126953125
 20
-0.0
 10
213.42578125
 20
-0.0
 10
203.724609375
 20
-0.0
 10
194.0234375
 20
-0.0
 10
184.322265625
 20
-0.0
 10
174.62109375
 20
-0.0
 10
164.919921875
 20
-0.0
 10
155.21875
 20
-0.0
 10
145.517578125
 20
-0.0
 10
135.81640625
 20
-0.0
 10
126.115234375
 20
-0.0
 10
116.4140625
 20
-0.0
 10
106.712890625
 20
-0.0
 10
97.01171875
 20
-0.0
 10
87.310546875
 20
-0.0
 10
77.609375
 20
-0.0
 10
67.908203125
 20
-0.0
 10
58.20703125
 20
-0.0
 10
48.505859375
 20
-0.0
 10
38.8046875
 20
-0.0
 10
29.103515625
 20
-0.0
 10
19.40234375
 20
-0.0
 10
9.701171875
 20
-0.0
  0
LWPOLYLINE
  5
35
330
17
100
AcDbEntity
  8
substrate
100
AcDbPolyline
 90
256
 70
1
 43
0.5
 10
2444.6953125
 20
-2046.947265625
 10
2454.396484375
 20
-2037.24609375
 10
2464.09765625
 20
-2046.947265625
 10
2473.798828125
 20
-2046.947265625
 10
2483.5
 20
-2046.947265625
 10
2493.201171875
 20
-2046.947265625
 10
2502.90234375
 20
-2046.947265625
 10
2512.603515625
 20
-2046.947265625
 10
2522.3046875
 20
-2046.947265625
 10
2532.005859375
 20
-2046.947265625
 10
2541.70703125
 20
-2046.947265625
 10
2551.408203125
 20
-2056.6484375
 10
2561.109375
 20
-2056.6484375
 10
2570.810546875
 20
-2056.6484375
 10
2580.51171875
 20
-2056.6484375
 10
2590.212890625
 20
-2056.6484375
 10
2599.9140625
 20
-2056.6484375
 10
2609.615234375
 20
-2066.349609375
 10
2619.31640625
 20
-2066.349609375
 10
2629.017578125
 20
-2076.05078125
 10
2638.71875
 20
-2085.751953125
 10
2648.419921875
 20
-2085.751953125
 10
2658.12109375
 20
-2095.453125
 10
2667.822265625
 20
-2095.453125
 10
2677.5234375
 20
-2095.453125
 10
2687.224609375
 20
-2105.154296875
 10
2696.92578125
 20
-2105.154296875
 10
2706.626953125
 20
-2114.85546875
 10
2716.328125
 20
-2124.556640625
 10
2726.029296875
 20
-2124.556640625
 10
2735.73046875
 20
-2124.556640625
 10
2745.431640625
 20
-2134.2578125
 10
2755.1328125
 20
-2143.958984375
 10
2764.833984375
 20
-2153.66015625
 10
2774.53515625
 20
-2163.361328125
 10
2784.236328125
 20
-2173.0625
 10
2793.9375
 20
-2182.763671875
 10
2803.638671875
 20
-2192.46484375
 10
2813.33984375
 20
-2202.166015625
 10
2823.041015625
 20
-2211.8671875
 10
2823.041015625
 20
-2221.568359375
 10
2832.7421875
 20
-2231.26953125
 10
2832.7421875
 20
-2240.970703125
 10
2842.443359375
 20
-2250.671875
 10
2852.14453125
 20
-2260.373046875
 10
2861.845703125
 20
-2270.07421875
 10
2861.845703125
 20
-2279.775390625
 10
2871.546875
 20
-2289.4765625
 10
2871.546875
 20
-2299.177734375
 10
2881.248046875
 20
-2308.87890625
 10
2881.248046875
 20
-2318.580078125
 10
2881.248046875
 20
-2328.28125
 10
2890.94921875
 20
-2337.982421875
 10
2890.94921875
 20
-2347.68359375
 10
2890.94921875
 20
-2357.384765625
 10
2900.650390625
 20
-2367.0859375
 10
2900.650390625
 20
-2376.787109375
 10
2900.650390625
 20
-2386.48828125
 10
2900.650390625
 20
-2396.189453125
 10
2910.3515625
 20
-2405.890625
 10
2910.3515625
 20
-2415.591796875
 10
2900.650390625
 20
-2425.29296875
 10
2900.650390625
 20
-2434.994140625
 10
2910.3515625
 20
-2444.6953125
 10
2910.3515625
 20
-2454.396484375
 10
2900.650390625
 20
-2464.09765625
 10
2910.3515625
 20
-2473.798828125
 10
2910.3515625
 20
-2483.5
 10
2910.3515625
 20
-2493.201171875
 10
2920.052734375
 20
-2502.90234375
 10
2910.3515625
 20
-2512.603515625
 10
2900.650390625
 20
-2522.3046875
 10
2910.3515625
 20
-2532.005859375
 10
2900.650390625
 20
-2541.70703125
 10
2900.650390625
 20
-2551.408203125
 10
2900.650390625
 20
-2561.109375
 10
2900.650390625
 20
-2570.810546875
 10
2890.94921875
 20
-2580.51171875
 10
2890.94921875
 20
-2590.212890625
 10
2890.94921875
 20
-2599.9140625
 10
2890.94921875
 20
-2609.615234375
 10
2881.248046875
 20
-2619.31640625
 10
2881.248046875
 20
-2629.017578125
 10
2871.546875
 20
-2638.71875
 10
2871.546875
 20
-2648.419921875
 10
2871.546875
 20
-2658.12109375
 10
2861.845703125
 20
-2667.822265625
 10
2861.845703125
 20
-2677.5234375
 10
2852.14453125
 20
-2687.224609375
 10
2852.14453125
 20
-2696.92578125
 10
2852.14453125
 20
-2706.626953125
 10
2842.443359375
 20
-2716.328125
 10
2842.443359375
 20
-2726.029296875
 10
2832.7421875
 20
-2735.73046875
 10
2823.041015625
 20
-2745.431640625
 10
2813.33984375
 20
-2755.1328125
 10
2803.638671875
 20
-2764.833984375
 10
2793.9375
 20
-2764.833984375
 10
2793.9375
 20
-2774.53515625
 10
2784.236328125
 20
-2784.236328125
 10
2774.53515625
 20
-2784.236328125
 10
2764.833984375
 20
-2793.9375
 10
2755.1328125
 20
-2803.638671875
 10
2745.431640625
 20
-2813.33984375
 10
2735.73046875
 20
-2823.041015625
 10
2726.029296875
 20
-2832.7421875
 10
2716.328125
 20
-2832.7421875
 10
2716.328125
 20
-2842.443359375
 10
2706.626953125
 20
-2852.14453125
 10
2696.92578125
 20
-2852.14453125
 10
2687.224609375
 20
-2852.14453125
 10
2687.224609375
 20
-2861.845703125
 10
2677.5234375
 20
-2871.546875
 10
2667.822265625
 20
-2871.546875
 10
2658.12109375
 20
-2871.546875
 10
2648.419921875
 20
-2881.248046875
 10
2638.71875
 20
-2881.248046875
 10
2629.017578125
 20
-2890.94921875
 10
2619.31640625
 20
-2890.94921875
 10
2609.615234375
 20
-2890.94921875
 10
2599.9140625
 20
-2890.94921875
 10
2590.212890625
 20
-2900.650390625
 10
2580.51171875
 20
-2900.650390625
 10
2570.810546875
 20
-2900.650390625
 10
2561.109375
 20
-2900.650390625
 10
2551.408203125
 20
-2900.650390625
 10
2541.70703125
 20
-2910.3515625
 10
2532.005859375
 20
-2910.3515625
 10
2522.3046875
 20
-2910.3515625
 10
2512.603515625
 20
-2910.3515625
 10
2502.90234375
 20
-2910.3515625
 10
2493.201171875
 20
-2910.3515625
 10
2483.5
 20
-2910.3515625
 10
2473.798828125
 20
-2910.3515625
 10
2464.09765625
 20
-2910.3515625
 10
2454.396484375
 20
-2920.052734375
 10
2444.6953125
 20
-2910.3515625
 10
2434.994140625
 20
-2910.3515625
 10
2425.29296875
 20
-2910.3515625
 10
2415.591796875
 20
-2910.3515625
 10
2405.890625
 20
-2900.650390625
 10
2396.189453125
 20
-2900.650390625
 10
2386.48828125
 20
-2890.94921875
 10
2376.787109375
 20
-2900.650390625
 10
2367.0859375
 20
-2900.650390625
 10
2357.384765625
 20
-2900.650390625
 10
2347.68359375
 20
-2900.650390625
 10
2337.982421875
 20
-2890.94921875
 10
2328.28125
 20
-2890.94921875
 10
2318.580078125
 20
-2890.94921875
 10
2308.87890625
 20
-2881.248046875
 10
2299.177734375
 20
-2881.248046875
 10
2289.4765625
 20
-2871.546875
 10
2279.775390625
 20
-2861.845703125
 10
2270.07421875
 20
-2861.845703125
 10
2260.373046875
 20
-2852.14453125
 10
2250.671875
 20
-2842.443359375
 10
2240.970703125
 20
-2842.443359375
 10
2231.26953125
 20
-2832.7421875
 10
2221.568359375
 20
-2823.041015625
 10
2211.8671875
 20
-2813.33984375
 10
2202.166015625
 20
-2813.33984375
 10
2192.46484375
 20
-2803.638671875
 10
2182.763671875
 20
-2793.9375
 10
2173.0625
 20
-2784.236328125
 10
2163.361328125
 20
-2774.53515625
 10
2153.66015625
 20
-2764.833984375
 10
2153.66015625
 20
-2755.1328125
 10
2143.958984375
 20
-2745.431640625
 10
2134.2578125
 20
-2735.73046875
 10
2124.556640625
 20
-2726.029296875
 10
2114.85546875
 20
-2716.328125
 10
2114.85546875
 20
-2706.626953125
 10
2105.154296875
 20
-2696.92578125
 10
2095.453125
 20
-2687.224609375
 10
2095.453125
 20
-2677.5234375
 10
2085.751953125
 20
-2667.822265625
 10
2085.751953125
 20
-2658.12109375
 10
2085.751953125
 20
-2648.419921875
 10
2076.05078125
 20
-2638.71875
 10
2076.05078125
 20
-2629.017578125
 10
2076.05078125
 20
-2619.31640625
 10
2066.349609375
 20
-2609.615234375
 10
2066.349609375
 20
-2599.9140625
 10
2066.349609375
 20
-2590.212890625
 10
2056.6484375
 20
-2580.51171875
 10
2056.6484375
 20
-2570.810546875
 10
2056.6484375
 20
-2561.109375
 10
2046.947265625
 20
-2551.408203125
 10
2046.947265625
 20
-2541.70703125
 10
2046.947265625
 20
-2532.005859375
 10
2046.947265625
 20
-2522.3046875
 10
2046.947265625
 20
-2512.603515625
 10
2056.6484375
 20
-2502.90234375
 10
2046.947265625
 20
-2493.201171875
 10
2056.6484375
 20
-2483.5
 10
2056.6484375
 20
-2473.798828125
 10
2056.6484375
 20
-2464.09765625
 10
2056.6484375
 20
-2454.396484375
 10
2056.6484375
 20
-2444.6953125
 10
2066.349609375
 20
-2434.994140625
 10
2066.349609375
 20
-2425.29296875
 10
2066.349609375
 20
-2415.591796875
 10
2066.349609375
 20
-2405.890625
 10
2066.349609375
 20
-2396.189453125
 10
2066.349609375
 20
-2386.48828125
 10
2066.349609375
 20
-2376.787109375
 10
2066.349609375
 20
-2367.0859375
 10
2066.349609375
 20
-2357.384765625
 10
2076.05078125
 20
-2347.68359375
 10
2076.05078125
 20
-2337.982421875
 10
2076.05078125
 20
-2328.28125
 10
2076.05078125
 20
-2318.580078125
 10
2085.751953125
 20
-2308.87890625
 10
2085.751953125
 20
-2299.177734375
 10
2095.453125
 20
-2289.4765625
 10
2095.453125
 20
-2279.775390625
 10
2095.453125
 20
-2270.07421875
 10
2105.154296875
 20
-2260.373046875
 10
2105.154296875
 20
-2250.671875
 10
2114.85546875
 20
-2240.970703125
 10
2124.556640625
 20
-2231.26953125
 10
2134.2578125
 20
-2221.568359375
 10
2143.958984375
 20
-2211.8671875
 10
2143.958984375
 20
-2202.166015625
 10
2153.66015625
 20
-2192.46484375
 10
2163.361328125
 20
-2192.46484375
 10
2173.0625
 20
-2182.763671875
 10
2182.763671875
 20
-2173.0625
 10
2192.46484375
 20
-2163.361328125
 10
2202.166015625
 20
-2153.66015625
 10
2211.8671875
 20
-2143.958984375
 10
2221.568359375
 20
-2143.958984375
 10
2231.26953125
 20
-2134.2578125
 10
2240.970703125
 20
-2134.2578125
 10
2240.970703125
 20
-2124.556640625
 10
2250.671875
 20
-2114.85546875
 10
2260.373046875
 20
-2114.85546875
 10
2270.07421875
 20
-2105.154296875
 10
2279.775390625
 20
-2105.154296875
 10
2289.4765625
 20
-2105.154296875
 10
2299.177734375
 20
-2095.453125
 10
2308.87890625
 20
-2085.751953125
 10
2318.580078125
 20
-2076.05078125
 10
2328.28125
 20
-2076.05078125
 10
2337.982421875
 20
-2066.349609375
 10
2347.68359375
 20
-2066.349609375
 10
2357.384765625
 20
-2066.349609375
 10
2367.0859375
 20
-2066.349609375
 10
2376.787109375
 20
-2056.6484375
 10
2386.48828125
 20
-2056.6484375
 10
2396.189453125
 20
-2056.6484375
 10
2405.890625
 20
-2056.6484375
 10
2415.591796875
 20
-2046.947265625
 10
2425.29296875
 20
-2046.947265625
 10
2434.994140625
 20
-2046.947265625
  0
ENDSEC
  0
SECTION
  2
OBJECTS
  0
DICTIONARY
  5
A
330
0
100
AcDbDictionary
280
0
281
1
  3
ACAD_COLOR
350
B
  3
ACAD_GROUP
350
C
  3
ACAD_LAYOUT
350
D
  3
ACAD_MATERIAL
350
E
  3
ACAD_MLEADERSTYLE
350
F
  3
ACAD_MLINESTYLE
350
10
  3
ACAD_PLOTSETTINGS
350
11
  3
ACAD_PLOTSTYLENAME
350
12
  3
ACAD_SCALELIST
350
14
  3
ACAD_TABLESTYLE
350
15
  3
ACAD_VISUALSTYLE
350
16
  3
EZDXF_META
350
2D
  0
DICTIONARY
  5
B
330
A
100
AcDbDictionary
280
0
281
1
  0
DICTIONARY
  5
C
330
A
100
AcDbDictionary
280
0
281
1
  0
DICTIONARY
  5
D
330
A
100
AcDbDictionary
280
0
281
1
  3
Model
350
1A
  3
Layout1
350
1E
  0
DICTIONARY
  5
E
330
A
100
AcDbDictionary
280
0
281
1
  3
ByBlock
350
1F
  3
ByLayer
350
20
  3
Global
350
21
  0
DICTIONARY
  5
F
330
A
100
AcDbDictionary
280
0
281
1
  3
Standard
350
2C
  0
DICTIONARY
  5
10
330
A
100
AcDbDictionary
280
0
281
1
  3
Standard
350
22
  0
DICTIONARY
  5
11
330
A
100
AcDbDictionary
280
0
281
1
  0
ACDBDICTIONARYWDFLT
  5
12
330
A
100
AcDbDictionary
280
0
281
1
  3
Normal
350
13
100
AcDbDictionaryWithDefault
340
13
  0
ACDBPLACEHOLDER
  5
13
330
12
  0
DICTIONARY
  5
14
330
A
100
AcDbDictionary
280
0
281
1
  0
DICTIONARY
  5
15
330
A
100
AcDbDictionary
280
0
281
1
  0
DICTIONARY
  5
16
330
A
100
AcDbDictionary
280
0
281
1
  0
LAYOUT
  5
1A
330
D
100
AcDbPlotSettings
  1

  2
Adobe PDF
  4
A3
  6

 40
7.5
 41
20.0
 42
7.5
 43
20.0
 44
420.0
 45
297.0
 46
0.0
 47
0.0
 48
0.0
 49
0.0
140
0.0
141
0.0
142
1.0
143
1.0
 70
1024
 72
1
 73
0
 74
5
  7

 75
16
 76
0
 77
2
 78
300
147
1.0
148
0.0
149
0.0
100
AcDbLayout
  1
Model
 70
1
 71
0
 10
0.0
 20
0.0
 11
420.0
 21
297.0
 12
0.0
 22
0.0
 32
0.0
 14
1e+20
 24
1e+20
 34
1e+20
 15
-1e+20
 25
-1e+20
 35
-1e+20
146
0.0
 13
0.0
 23
0.0
 33
0.0
 16
1.0
 26
0.0
 36
0.0
 17
0.0
 27
1.0
 37
0.0
 76
1
330
17
  0
LAYOUT
  5
1E
330
D
100
AcDbPlotSettings
  1

  2
Adobe PDF
  4
A3
  6

 40
7.5
 41
20.0
 42
7.5
 43
20.0
 44
420.0
 45
297.0
 46
0.0
 47
0.0
 48
0.0
 49
0.0
140
0.0
141
0.0
142
1.0
143
1.0
 70
0
 72
1
 73
0
 74
5
  7

 75
16
 76
0
 77
2
 78
300
147
1.0
148
0.0
149
0.0
100
AcDbLayout
  1
Layout1
 70
1
 71
1
 10
0.0
 20
0.0
 11
420.0
 21
297.0
 12
0.0
 22
0.0
 32
0.0
 14
1e+20
 24
1e+20
 34
1e+20
 15
-1e+20
 25
-1e+20
 35
-1e+20
146
0.0
 13
0.0
 23
0.0
 33
0.0
 16
1.0
 26
0.0
 36
0.0
 17
0.0
 27
1.0
 37
0.0
 76
1
330
1B
  0
MATERIAL
  5
1F
102
{ACAD_REACTORS
330
E
102
}
330
E
100
AcDbMaterial
  1
ByBlock
  2

 70
0
 40
1.0
 71
1
 41
1.0
 91
-1023410177
 42
1.0
 72
1
  3

 73
1
 74
1
 75
1
 44
0.5
 73
0
 45
1.0
 46
1.0
 77
1
  4

 78
1
 79
1
170
1
 48
1.0
171
1
  6

172
1
173
1
174
1
140
1.0
141
1.0
175
1
  7

176
1
177
1
178
1
143
1.0
179
1
  8

270
1
271
1
272
1
145
1.0
146
1.0
273
1
  9

274
1
275
1
276
1
 42
1.0
 72
1
  3

 73
1
 74
1
 75
1
 94
63
  0
MATERIAL
  5
20
102
{ACAD_REACTORS
330
E
102
}
330
E
100
AcDbMaterial
  1
ByLayer
  2

 70
0
 40
1.0
 71
1
 41
1.0
 91
-1023410177
 42
1.0
 72
1
  3

 73
1
 74
1
 75
1
 44
0.5
 73
0
 45
1.0
 46
1.0
 77
1
  4

 78
1
 79
1
170
1
 48
1.0
171
1
  6

172
1
173
1
174
1
140
1.0
141
1.0
175
1
  7

176
1
177
1
178
1
143
1.0
179
1
  8

270
1
271
1
272
1
145
1.0
146
1.0
273
1
  9

274
1
275
1
276
1
 42
1.0
 72
1
  3

 73
1
 74
1
 75
1
 94
63
  0
MATERIAL
  5
21
102
{ACAD_REACTORS
330
E
102
}
330
E
100
AcDbMaterial
  1
Global
  2

 70
0
 40
1.0
 71
1
 41
1.0
 91
-1023410177
 42
1.0
 72
1
  3

 73
1
 74
1
 75
1
 44
0.5
 73
0
 45
1.0
 46
1.0
 77
1
  4

 78
1
 79
1
170
1
 48
1.0
171
1
  6

172
1
173
1
174
1
140
1.0
141
1.0
175
1
  7

176
1
177
1
178
1
143
1.0
179
1
  8

270
1
271
1
272
1
145
1.0
146
1.0
273
1
  9

274
1
275
1
276
1
 42
1.0
 72
1
  3

 73
1
 74
1
 75
1
 94
63
  0
MLINESTYLE
  5
22
102
{ACAD_REACTORS
330
10
102
}
330
10
100
AcDbMlineStyle
  2
Standard
 70
0
  3

 62
256
 51
90.0
 52
90.0
 71
2
 49
0.5
 62
256
  6
BYLAYER
 49
-0.5
 62
256
  6
BYLAYER
  0
MLEADERSTYLE
  5
2C
102
{ACAD_REACTORS
330
F
102
}
330
F
100
AcDbMLeaderStyle
179
2
170
2
171
1
172
0
 90
2
 40
0.0
 41
0.0
173
1
 91
-1056964608
 92
-2
290
1
 42
2.0
291
1
 43
8.0
  3
Standard
 44
4.0
300

342
29
174
1
175
1
176
0
178
1
 93
-1056964608
 45
4.0
292
0
297
0
 46
4.0
 94
-1056964608
 47
1.0
 49
1.0
140
1.0
294
1
141
0.0
177
0
142
1.0
295
0
296
0
143
3.75
271
0
272
9
273
9
  0
DICTIONARY
  5
2D
330
A
100
AcDbDictionary
281
1
  3
CREATED_BY_EZDXF
350
2E
  3
WRITTEN_BY_EZDXF
350
38
  0
DICTIONARYVAR
  5
2E
330
2D
100
DictionaryVariables
280
0
  1
1.1.0 @ 2025-02-03T01:23:51.889492+00:00
  0
DICTIONARYVAR
  5
38
330
2D
100
DictionaryVariables
280
0
  1
1.1.0 @ 2025-02-03T01:23:51.894364+00:00
  0
ENDSEC
  0
EOF
