  0
SECTION
  2
HEADER
  9
$ACADVER
  1
AC1027
  9
$ACADMAINTVER
 70
105
  9
$DWGCODEPAGE
  3
ANSI_1252
  9
$LASTSAVEDBY
  1
ezdxf
  9
$REQUIREDVERSIONS
160
0
  9
$INSBASE
 10
0.0
 20
0.0
 30
0.0
  9
$EXTMIN
 10
1e+20
 20
1e+20
 30
1e+20
  9
$EXTMAX
 10
-1e+20
 20
-1e+20
 30
-1e+20
  9
$LIMMIN
 10
0.0
 20
0.0
  9
$LIMMAX
 10
420.0
 20
297.0
  9
$ORTHOMODE
 70
0
  9
$REGENMODE
 70
1
  9
$FILLMODE
 70
1
  9
$QTEXTMODE
 70
0
  9
$MIRRTEXT
 70
1
  9
$LTSCALE
 40
1.0
  9
$ATTMODE
 70
1
  9
$TEXTSIZE
 40
2.5
  9
$TRACEWID
 40
1.0
  9
$TEXTSTYLE
  7
Standard
  9
$CLAYER
  8
0
  9
$CELTYPE
  6
ByLayer
  9
$CECOLOR
 62
256
  9
$CELTSCALE
 40
1.0
  9
$DISPSILH
 70
0
  9
$DIMSCALE
 40
1.0
  9
$DIMASZ
 40
2.5
  9
$DIMEXO
 40
0.625
  9
$DIMDLI
 40
3.75
  9
$DIMRND
 40
0.0
  9
$DIMDLE
 40
0.0
  9
$DIMEXE
 40
1.25
  9
$DIMTP
 40
0.0
  9
$DIMTM
 40
0.0
  9
$DIMTXT
 40
2.5
  9
$DIMCEN
 40
2.5
  9
$DIMTSZ
 40
0.0
  9
$DIMTOL
 70
0
  9
$DIMLIM
 70
0
  9
$DIMTIH
 70
0
  9
$DIMTOH
 70
0
  9
$DIMSE1
 70
0
  9
$DIMSE2
 70
0
  9
$DIMTAD
 70
1
  9
$DIMZIN
 70
8
  9
$DIMBLK
  1

  9
$DIMASO
 70
1
  9
$DIMSHO
 70
1
  9
$DIMPOST
  1

  9
$DIMAPOST
  1

  9
$DIMALT
 70
0
  9
$DIMALTD
 70
3
  9
$DIMALTF
 40
0.03937007874
  9
$DIMLFAC
 40
1.0
  9
$DIMTOFL
 70
1
  9
$DIMTVP
 40
0.0
  9
$DIMTIX
 70
0
  9
$DIMSOXD
 70
0
  9
$DIMSAH
 70
0
  9
$DIMBLK1
  1

  9
$DIMBLK2
  1

  9
$DIMSTYLE
  2
ISO-25
  9
$DIMCLRD
 70
0
  9
$DIMCLRE
 70
0
  9
$DIMCLRT
 70
0
  9
$DIMTFAC
 40
1.0
  9
$DIMGAP
 40
0.625
  9
$DIMJUST
 70
0
  9
$DIMSD1
 70
0
  9
$DIMSD2
 70
0
  9
$DIMTOLJ
 70
0
  9
$DIMTZIN
 70
8
  9
$DIMALTZ
 70
0
  9
$DIMALTTZ
 70
0
  9
$DIMUPT
 70
0
  9
$DIMDEC
 70
2
  9
$DIMTDEC
 70
2
  9
$DIMALTU
 70
2
  9
$DIMALTTD
 70
3
  9
$DIMTXSTY
  7
Standard
  9
$DIMAUNIT
 70
0
  9
$DIMADEC
 70
0
  9
$DIMALTRND
 40
0.0
  9
$DIMAZIN
 70
0
  9
$DIMDSEP
 70
44
  9
$DIMATFIT
 70
3
  9
$DIMFRAC
 70
0
  9
$DIMLDRBLK
  1

  9
$DIMLUNIT
 70
2
  9
$DIMLWD
 70
-2
  9
$DIMLWE
 70
-2
  9
$DIMTMOVE
 70
0
  9
$DIMFXL
 40
1.0
  9
$DIMFXLON
 70
0
  9
$DIMJOGANG
 40
0.785398163397
  9
$DIMTFILL
 70
0
  9
$DIMTFILLCLR
 70
0
  9
$DIMARCSYM
 70
0
  9
$DIMLTYPE
  6

  9
$DIMLTEX1
  6

  9
$DIMLTEX2
  6

  9
$DIMTXTDIRECTION
 70
0
  9
$LUNITS
 70
2
  9
$LUPREC
 70
4
  9
$SKETCHINC
 40
1.0
  9
$FILLETRAD
 40
10.0
  9
$AUNITS
 70
0
  9
$AUPREC
 70
2
  9
$MENU
  1
.
  9
$ELEVATION
 40
0.0
  9
$PELEVATION
 40
0.0
  9
$THICKNESS
 40
0.0
  9
$LIMCHECK
 70
0
  9
$CHAMFERA
 40
0.0
  9
$CHAMFERB
 40
0.0
  9
$CHAMFERC
 40
0.0
  9
$CHAMFERD
 40
0.0
  9
$SKPOLY
 70
0
  9
$TDCREATE
 40
2460741.6409027777
  9
$TDUCREATE
 40
2458532.153996898
  9
$TDUPDATE
 40
2460741.6409027777
  9
$TDUUPDATE
 40
2458532.1544311
  9
$TDINDWG
 40
0.0
  9
$TDUSRTIMER
 40
0.0
  9
$USRTIMER
 70
1
  9
$ANGBASE
 50
0.0
  9
$ANGDIR
 70
0
  9
$PDMODE
 70
0
  9
$PDSIZE
 40
0.0
  9
$PLINEWID
 40
0.0
  9
$SPLFRAME
 70
0
  9
$SPLINETYPE
 70
6
  9
$SPLINESEGS
 70
8
  9
$HANDSEED
  5
45
  9
$SURFTAB1
 70
6
  9
$SURFTAB2
 70
6
  9
$SURFTYPE
 70
6
  9
$SURFU
 70
6
  9
$SURFV
 70
6
  9
$UCSBASE
  2

  9
$UCSNAME
  2

  9
$UCSORG
 10
0.0
 20
0.0
 30
0.0
  9
$UCSXDIR
 10
1.0
 20
0.0
 30
0.0
  9
$UCSYDIR
 10
0.0
 20
1.0
 30
0.0
  9
$UCSORTHOREF
  2

  9
$UCSORTHOVIEW
 70
0
  9
$UCSORGTOP
 10
0.0
 20
0.0
 30
0.0
  9
$UCSORGBOTTOM
 10
0.0
 20
0.0
 30
0.0
  9
$UCSORGLEFT
 10
0.0
 20
0.0
 30
0.0
  9
$UCSORGRIGHT
 10
0.0
 20
0.0
 30
0.0
  9
$UCSORGFRONT
 10
0.0
 20
0.0
 30
0.0
  9
$UCSORGBACK
 10
0.0
 20
0.0
 30
0.0
  9
$PUCSBASE
  2

  9
$PUCSNAME
  2

  9
$PUCSORG
 10
0.0
 20
0.0
 30
0.0
  9
$PUCSXDIR
 10
1.0
 20
0.0
 30
0.0
  9
$PUCSYDIR
 10
0.0
 20
1.0
 30
0.0
  9
$PUCSORTHOREF
  2

  9
$PUCSORTHOVIEW
 70
0
  9
$PUCSORGTOP
 10
0.0
 20
0.0
 30
0.0
  9
$PUCSORGBOTTOM
 10
0.0
 20
0.0
 30
0.0
  9
$PUCSORGLEFT
 10
0.0
 20
0.0
 30
0.0
  9
$PUCSORGRIGHT
 10
0.0
 20
0.0
 30
0.0
  9
$PUCSORGFRONT
 10
0.0
 20
0.0
 30
0.0
  9
$PUCSORGBACK
 10
0.0
 20
0.0
 30
0.0
  9
$USERI1
 70
0
  9
$USERI2
 70
0
  9
$USERI3
 70
0
  9
$USERI4
 70
0
  9
$USERI5
 70
0
  9
$USERR1
 40
0.0
  9
$USERR2
 40
0.0
  9
$USERR3
 40
0.0
  9
$USERR4
 40
0.0
  9
$USERR5
 40
0.0
  9
$WORLDVIEW
 70
1
  9
$SHADEDGE
 70
3
  9
$SHADEDIF
 70
70
  9
$TILEMODE
 70
1
  9
$MAXACTVP
 70
64
  9
$PINSBASE
 10
0.0
 20
0.0
 30
0.0
  9
$PLIMCHECK
 70
0
  9
$PEXTMIN
 10
1e+20
 20
1e+20
 30
1e+20
  9
$PEXTMAX
 10
-1e+20
 20
-1e+20
 30
-1e+20
  9
$PLIMMIN
 10
0.0
 20
0.0
  9
$PLIMMAX
 10
420.0
 20
297.0
  9
$UNITMODE
 70
0
  9
$VISRETAIN
 70
1
  9
$PLINEGEN
 70
0
  9
$PSLTSCALE
 70
1
  9
$TREEDEPTH
 70
3020
  9
$CMLSTYLE
  2
Standard
  9
$CMLJUST
 70
0
  9
$CMLSCALE
 40
20.0
  9
$PROXYGRAPHICS
 70
1
  9
$MEASUREMENT
 70
1
  9
$CELWEIGHT
370
-1
  9
$ENDCAPS
280
0
  9
$JOINSTYLE
280
0
  9
$LWDISPLAY
290
0
  9
$INSUNITS
 70
6
  9
$HYPERLINKBASE
  1

  9
$STYLESHEET
  1

  9
$XEDIT
290
1
  9
$CEPSNTYPE
380
0
  9
$PSTYLEMODE
290
1
  9
$FINGERPRINTGUID
  2
{5C652427-D66E-466B-B78A-C4C3C6FC46E3}
  9
$VERSIONGUID
  2
{8C0A3039-72B5-410B-B8ED-6C9DACA89B91}
  9
$EXTNAMES
290
1
  9
$PSVPSCALE
 40
0.0
  9
$OLESTARTUP
290
0
  9
$SORTENTS
280
127
  9
$INDEXCTL
280
0
  9
$HIDETEXT
280
1
  9
$XCLIPFRAME
280
0
  9
$HALOGAP
280
0
  9
$OBSCOLOR
 70
257
  9
$OBSLTYPE
280
0
  9
$INTERSECTIONDISPLAY
280
0
  9
$INTERSECTIONCOLOR
 70
257
  9
$DIMASSOC
280
2
  9
$PROJECTNAME
  1

  9
$CAMERADISPLAY
290
0
  9
$LENSLENGTH
 40
50.0
  9
$CAMERAHEIGHT
 40
0.0
  9
$STEPSPERSEC
 40
24.0
  9
$STEPSIZE
 40
100.0
  9
$3DDWFPREC
 40
2.0
  9
$PSOLWIDTH
 40
0.005
  9
$PSOLHEIGHT
 40
0.08
  9
$LOFTANG1
 40
1.570796326795
  9
$LOFTANG2
 40
1.570796326795
  9
$LOFTMAG1
 40
0.0
  9
$LOFTMAG2
 40
0.0
  9
$LOFTPARAM
 70
7
  9
$LOFTNORMALS
280
1
  9
$LATITUDE
 40
37.795
  9
$LONGITUDE
 40
-122.394
  9
$NORTHDIRECTION
 40
0.0
  9
$TIMEZONE
 70
-8000
  9
$LIGHTGLYPHDISPLAY
280
1
  9
$TILEMODELIGHTSYNCH
280
1
  9
$CMATERIAL
347
20
  9
$SOLIDHIST
280
0
  9
$SHOWHIST
280
1
  9
$DWFFRAME
280
2
  9
$DGNFRAME
280
2
  9
$REALWORLDSCALE
290
1
  9
$INTERFERECOLOR
 62
256
  9
$CSHADOW
280
0
  9
$SHADOWPLANELOCATION
 40
0.0
  0
ENDSEC
  0
SECTION
  2
CLASSES
  0
CLASS
  1
ACDBDICTIONARYWDFLT
  2
AcDbDictionaryWithDefault
  3
ObjectDBX Classes
 90
0
 91
0
280
0
281
0
  0
CLASS
  1
SUN
  2
AcDbSun
  3
SCENEOE
 90
1153
 91
0
280
0
281
0
  0
CLASS
  1
VISUALSTYLE
  2
AcDbVisualStyle
  3
ObjectDBX Classes
 90
4095
 91
0
280
0
281
0
  0
CLASS
  1
MATERIAL
  2
AcDbMaterial
  3
ObjectDBX Classes
 90
1153
 91
0
280
0
281
0
  0
CLASS
  1
SCALE
  2
AcDbScale
  3
ObjectDBX Classes
 90
1153
 91
0
280
0
281
0
  0
CLASS
  1
TABLESTYLE
  2
AcDbTableStyle
  3
ObjectDBX Classes
 90
4095
 91
0
280
0
281
0
  0
CLASS
  1
MLEADERSTYLE
  2
AcDbMLeaderStyle
  3
ACDB_MLEADERSTYLE_CLASS
 90
4095
 91
0
280
0
281
0
  0
CLASS
  1
DICTIONARYVAR
  2
AcDbDictionaryVar
  3
ObjectDBX Classes
 90
0
 91
0
280
0
281
0
  0
CLASS
  1
CELLSTYLEMAP
  2
AcDbCellStyleMap
  3
ObjectDBX Classes
 90
1152
 91
0
280
0
281
0
  0
CLASS
  1
MENTALRAYRENDERSETTINGS
  2
AcDbMentalRayRenderSettings
  3
SCENEOE
 90
1024
 91
0
280
0
281
0
  0
CLASS
  1
ACDBDETAILVIEWSTYLE
  2
AcDbDetailViewStyle
  3
ObjectDBX Classes
 90
1025
 91
0
280
0
281
0
  0
CLASS
  1
ACDBSECTIONVIEWSTYLE
  2
AcDbSectionViewStyle
  3
ObjectDBX Classes
 90
1025
 91
0
280
0
281
0
  0
CLASS
  1
RASTERVARIABLES
  2
AcDbRasterVariables
  3
ISM
 90
0
 91
0
280
0
281
0
  0
CLASS
  1
ACDBPLACEHOLDER
  2
AcDbPlaceHolder
  3
ObjectDBX Classes
 90
0
 91
0
280
0
281
0
  0
CLASS
  1
LAYOUT
  2
AcDbLayout
  3
ObjectDBX Classes
 90
0
 91
0
280
0
281
0
  0
ENDSEC
  0
SECTION
  2
TABLES
  0
TABLE
  2
VPORT
  5
8
330
0
100
AcDbSymbolTable
 70
1
  0
VPORT
  5
23
330
8
100
AcDbSymbolTableRecord
100
AcDbViewportTableRecord
  2
*Active
 70
0
 10
0.0
 20
0.0
 11
1.0
 21
1.0
 12
0.0
 22
0.0
 13
0.0
 23
0.0
 14
0.5
 24
0.5
 15
0.5
 25
0.5
 16
0.0
 26
0.0
 36
1.0
 17
0.0
 27
0.0
 37
0.0
 40
1000.0
 41
1.34
 42
50.0
 43
0.0
 44
0.0
 50
0.0
 51
0.0
 71
0
 72
1000
 73
1
 74
3
 75
0
 76
0
 77
0
 78
0
281
0
 65
0
146
0.0
  0
ENDTAB
  0
TABLE
  2
LTYPE
  5
2
330
0
100
AcDbSymbolTable
 70
3
  0
LTYPE
  5
24
330
2
100
AcDbSymbolTableRecord
100
AcDbLinetypeTableRecord
  2
ByBlock
 70
0
  3

 72
65
 73
0
 40
0.0
  0
LTYPE
  5
25
330
2
100
AcDbSymbolTableRecord
100
AcDbLinetypeTableRecord
  2
ByLayer
 70
0
  3

 72
65
 73
0
 40
0.0
  0
LTYPE
  5
26
330
2
100
AcDbSymbolTableRecord
100
AcDbLinetypeTableRecord
  2
Continuous
 70
0
  3

 72
65
 73
0
 40
0.0
  0
ENDTAB
  0
TABLE
  2
LAYER
  5
1
330
0
100
AcDbSymbolTable
 70
5
  0
LAYER
  5
27
330
1
100
AcDbSymbolTableRecord
100
AcDbLayerTableRecord
  2
0
 70
0
 62
7
  6
Continuous
370
-3
390
13
347
21
  0
LAYER
  5
28
330
1
100
AcDbSymbolTableRecord
100
AcDbLayerTableRecord
  2
Defpoints
 70
0
 62
7
  6
Continuous
290
0
370
-3
390
13
347
21
  0
LAYER
  5
2F
330
1
100
AcDbSymbolTableRecord
100
AcDbLayerTableRecord
  2
conductor
 70
0
 62
1
  6
Continuous
370
-3
390
13
347
21
  0
LAYER
  5
30
330
1
100
AcDbSymbolTableRecord
100
AcDbLayerTableRecord
  2
dielectric
 70
0
 62
8
  6
Continuous
370
-3
390
13
347
21
  0
LAYER
  5
31
330
1
100
AcDbSymbolTableRecord
100
AcDbLayerTableRecord
  2
substrate
 70
0
 62
5
  6
Continuous
370
-3
390
13
347
21
  0
ENDTAB
  0
TABLE
  2
STYLE
  5
5
330
0
100
AcDbSymbolTable
 70
1
  0
STYLE
  5
29
330
5
100
AcDbSymbolTableRecord
100
AcDbTextStyleTableRecord
  2
Standard
 70
0
 40
0.0
 41
1.0
 50
0.0
 71
0
 42
2.5
  3
txt
  4

  0
ENDTAB
  0
TABLE
  2
VIEW
  5
7
330
0
100
AcDbSymbolTable
 70
0
  0
ENDTAB
  0
TABLE
  2
UCS
  5
6
330
0
100
AcDbSymbolTable
 70
0
  0
ENDTAB
  0
TABLE
  2
APPID
  5
3
330
0
100
AcDbSymbolTable
 70
3
  0
APPID
  5
2A
330
3
100
AcDbSymbolTableRecord
100
AcDbRegAppTableRecord
  2
ACAD
 70
0
  0
APPID
  5
42
330
3
100
AcDbSymbolTableRecord
100
AcDbRegAppTableRecord
  2
HATCHBACKGROUNDCOLOR
 70
0
  0
APPID
  5
43
330
3
100
AcDbSymbolTableRecord
100
AcDbRegAppTableRecord
  2
EZDXF
 70
0
  0
ENDTAB
  0
TABLE
  2
DIMSTYLE
  5
4
330
0
100
AcDbSymbolTable
 70
1
100
AcDbDimStyleTable
  0
DIMSTYLE
105
2B
330
4
100
AcDbSymbolTableRecord
100
AcDbDimStyleTableRecord
  2
Standard
 70
0
 40
1.0
 41
2.5
 42
0.625
 43
3.75
 44
1.25
 45
0.0
 46
0.0
 47
0.0
 48
0.0
 49
2.5
140
2.5
141
2.5
142
0.0
143
0.03937007874
144
1.0
145
0.0
146
1.0
147
0.625
148
0.0
 69
0
 70
0
 71
0
 72
0
 73
0
 74
0
 75
0
 76
0
 77
1
 78
8
 79
3
170
0
171
3
172
1
173
0
174
0
175
0
176
0
177
0
178
0
179
2
271
2
272
2
273
2
274
3
275
0
276
0
277
2
278
44
279
0
280
0
281
0
282
0
283
0
284
8
285
0
286
0
288
0
289
3
290
0
371
-2
372
-2
  0
ENDTAB
  0
TABLE
  2
BLOCK_RECORD
  5
9
330
0
100
AcDbSymbolTable
 70
2
  0
BLOCK_RECORD
  5
17
330
9
100
AcDbSymbolTableRecord
100
AcDbBlockTableRecord
  2
*Model_Space
340
1A
 70
0
280
1
281
0
  0
BLOCK_RECORD
  5
1B
330
9
100
AcDbSymbolTableRecord
100
AcDbBlockTableRecord
  2
*Paper_Space
340
1E
 70
0
280
1
281
0
  0
ENDTAB
  0
ENDSEC
  0
SECTION
  2
BLOCKS
  0
BLOCK
  5
18
330
17
100
AcDbEntity
  8
0
100
AcDbBlockBegin
  2
*Model_Space
 70
0
 10
0.0
 20
0.0
 30
0.0
  3
*Model_Space
  1

  0
ENDBLK
  5
19
330
17
100
AcDbEntity
  8
0
100
AcDbBlockEnd
  0
BLOCK
  5
1C
330
1B
100
AcDbEntity
  8
0
100
AcDbBlockBegin
  2
*Paper_Space
 70
0
 10
0.0
 20
0.0
 30
0.0
  3
*Paper_Space
  1

  0
ENDBLK
  5
1D
330
1B
100
AcDbEntity
  8
0
100
AcDbBlockEnd
  0
ENDSEC
  0
SECTION
  2
ENTITIES
  0
LWPOLYLINE
  5
32
330
17
100
AcDbEntity
  8
conductor
100
AcDbPolyline
 90
1317
 70
1
 43
0.5
 10
2758.4375
 20
-876.7890625
 10
2748.5859375
 20
-886.640625
 10
2738.734375
 20
-886.640625
 10
2728.8828125
 20
-886.640625
 10
2719.03125
 20
-886.640625
 10
2709.1796875
 20
-886.640625
 10
2699.328125
 20
-886.640625
 10
2689.4765625
 20
-886.640625
 10
2679.625
 20
-886.640625
 10
2669.7734375
 20
-886.640625
 10
2659.921875
 20
-886.640625
 10
2650.0703125
 20
-886.640625
 10
2640.21875
 20
-886.640625
 10
2630.3671875
 20
-886.640625
 10
2620.515625
 20
-886.640625
 10
2610.6640625
 20
-886.640625
 10
2600.8125
 20
-886.640625
 10
2590.9609375
 20
-886.640625
 10
2581.109375
 20
-886.640625
 10
2571.2578125
 20
-886.640625
 10
2561.40625
 20
-886.640625
 10
2551.5546875
 20
-886.640625
 10
2541.703125
 20
-886.640625
 10
2531.8515625
 20
-886.640625
 10
2522.0
 20
-886.640625
 10
2512.1484375
 20
-886.640625
 10
2502.296875
 20
-886.640625
 10
2492.4453125
 20
-886.640625
 10
2482.59375
 20
-886.640625
 10
2472.7421875
 20
-886.640625
 10
2462.890625
 20
-886.640625
 10
2453.0390625
 20
-886.640625
 10
2443.1875
 20
-886.640625
 10
2433.3359375
 20
-886.640625
 10
2423.484375
 20
-886.640625
 10
2413.6328125
 20
-886.640625
 10
2403.78125
 20
-886.640625
 10
2393.9296875
 20
-886.640625
 10
2384.078125
 20
-886.640625
 10
2374.2265625
 20
-886.640625
 10
2364.375
 20
-886.640625
 10
2354.5234375
 20
-886.640625
 10
2344.671875
 20
-886.640625
 10
2334.8203125
 20
-886.640625
 10
2324.96875
 20
-886.640625
 10
2315.1171875
 20
-886.640625
 10
2305.265625
 20
-886.640625
 10
2295.4140625
 20
-896.4921875
 10
2285.5625
 20
-896.4921875
 10
2275.7109375
 20
-886.640625
 10
2265.859375
 20
-896.4921875
 10
2256.0078125
 20
-886.640625
 10
2246.15625
 20
-896.4921875
 10
2236.3046875
 20
-886.640625
 10
2226.453125
 20
-886.640625
 10
2216.6015625
 20
-886.640625
 10
2206.75
 20
-886.640625
 10
2196.8984375
 20
-886.640625
 10
2187.046875
 20
-886.640625
 10
2177.1953125
 20
-886.640625
 10
2167.34375
 20
-886.640625
 10
2157.4921875
 20
-886.640625
 10
2147.640625
 20
-886.640625
 10
2137.7890625
 20
-886.640625
 10
2127.9375
 20
-886.640625
 10
2118.0859375
 20
-886.640625
 10
2108.234375
 20
-886.640625
 10
2098.3828125
 20
-886.640625
 10
2088.53125
 20
-886.640625
 10
2078.6796875
 20
-886.640625
 10
2068.828125
 20
-886.640625
 10
2058.9765625
 20
-886.640625
 10
2049.125
 20
-886.640625
 10
2039.2734375
 20
-886.640625
 10
2029.421875
 20
-886.640625
 10
2019.5703125
 20
-886.640625
 10
2009.71875
 20
-886.640625
 10
1999.8671875
 20
-886.640625
 10
1990.015625
 20
-886.640625
 10
1980.1640625
 20
-886.640625
 10
1970.3125
 20
-886.640625
 10
1960.4609375
 20
-886.640625
 10
1950.609375
 20
-886.640625
 10
1940.7578125
 20
-886.640625
 10
1930.90625
 20
-896.4921875
 10
1921.0546875
 20
-886.640625
 10
1911.203125
 20
-896.4921875
 10
1911.203125
 20
-906.34375
 10
1921.0546875
 20
-916.1953125
 10
1921.0546875
 20
-926.046875
 10
1921.0546875
 20
-935.8984375
 10
1921.0546875
 20
-945.75
 10
1921.0546875
 20
-955.6015625
 10
1921.0546875
 20
-965.453125
 10
1921.0546875
 20
-975.3046875
 10
1921.0546875
 20
-985.15625
 10
1921.0546875
 20
-995.0078125
 10
1921.0546875
 20
-1004.859375
 10
1921.0546875
 20
-1014.7109375
 10
1921.0546875
 20
-1024.5625
 10
1921.0546875
 20
-1034.4140625
 10
1921.0546875
 20
-1044.265625
 10
1921.0546875
 20
-1054.1171875
 10
1921.0546875
 20
-1063.96875
 10
1921.0546875
 20
-1073.8203125
 10
1921.0546875
 20
-1083.671875
 10
1921.0546875
 20
-1093.5234375
 10
1921.0546875
 20
-1103.375
 10
1921.0546875
 20
-1113.2265625
 10
1921.0546875
 20
-1123.078125
 10
1921.0546875
 20
-1132.9296875
 10
1921.0546875
 20
-1142.78125
 10
1921.0546875
 20
-1152.6328125
 10
1921.0546875
 20
-1162.484375
 10
1921.0546875
 20
-1172.3359375
 10
1921.0546875
 20
-1182.1875
 10
1921.0546875
 20
-1192.0390625
 10
1921.0546875
 20
-1201.890625
 10
1930.90625
 20
-1211.7421875
 10
1921.0546875
 20
-1221.59375
 10
1921.0546875
 20
-1231.4453125
 10
1921.0546875
 20
-1241.296875
 10
1921.0546875
 20
-1251.1484375
 10
1930.90625
 20
-1261.0
 10
1921.0546875
 20
-1270.8515625
 10
1921.0546875
 20
-1280.703125
 10
1930.90625
 20
-1290.5546875
 10
1930.90625
 20
-1300.40625
 10
1921.0546875
 20
-1310.2578125
 10
1930.90625
 20
-1320.109375
 10
1930.90625
 20
-1329.9609375
 10
1930.90625
 20
-1339.8125
 10
1930.90625
 20
-1349.6640625
 10
1921.0546875
 20
-1359.515625
 10
1921.0546875
 20
-1369.3671875
 10
1921.0546875
 20
-1379.21875
 10
1921.0546875
 20
-1389.0703125
 10
1921.0546875
 20
-1398.921875
 10
1921.0546875
 20
-1408.7734375
 10
1921.0546875
 20
-1418.625
 10
1930.90625
 20
-1428.4765625
 10
1930.90625
 20
-1438.328125
 10
1930.90625
 20
-1448.1796875
 10
1930.90625
 20
-1458.03125
 10
1930.90625
 20
-1467.8828125
 10
1930.90625
 20
-1477.734375
 10
1930.90625
 20
-1487.5859375
 10
1921.0546875
 20
-1497.4375
 10
1930.90625
 20
-1507.2890625
 10
1921.0546875
 20
-1517.140625
 10
1930.90625
 20
-1526.9921875
 10
1930.90625
 20
-1536.84375
 10
1930.90625
 20
-1546.6953125
 10
1921.0546875
 20
-1556.546875
 10
1930.90625
 20
-1566.3984375
 10
1921.0546875
 20
-1576.25
 10
1930.90625
 20
-1586.1015625
 10
1921.0546875
 20
-1595.953125
 10
1930.90625
 20
-1605.8046875
 10
1921.0546875
 20
-1615.65625
 10
1921.0546875
 20
-1625.5078125
 10
1921.0546875
 20
-1635.359375
 10
1930.90625
 20
-1645.2109375
 10
1921.0546875
 20
-1655.0625
 10
1930.90625
 20
-1664.9140625
 10
1921.0546875
 20
-1674.765625
 10
1921.0546875
 20
-1684.6171875
 10
1921.0546875
 20
-1694.46875
 10
1921.0546875
 20
-1704.3203125
 10
1921.0546875
 20
-1714.171875
 10
1921.0546875
 20
-1724.0234375
 10
1921.0546875
 20
-1733.875
 10
1930.90625
 20
-1743.7265625
 10
1921.0546875
 20
-1753.578125
 10
1921.0546875
 20
-1763.4296875
 10
1921.0546875
 20
-1773.28125
 10
1921.0546875
 20
-1783.1328125
 10
1921.0546875
 20
-1792.984375
 10
1921.0546875
 20
-1802.8359375
 10
1921.0546875
 20
-1812.6875
 10
1921.0546875
 20
-1822.5390625
 10
1921.0546875
 20
-1832.390625
 10
1921.0546875
 20
-1842.2421875
 10
1930.90625
 20
-1852.09375
 10
1921.0546875
 20
-1861.9453125
 10
1921.0546875
 20
-1871.796875
 10
1921.0546875
 20
-1881.6484375
 10
1921.0546875
 20
-1891.5
 10
1921.0546875
 20
-1901.3515625
 10
1911.203125
 20
-1911.203125
 10
1901.3515625
 20
-1921.0546875
 10
1891.5
 20
-1930.90625
 10
1881.6484375
 20
-1930.90625
 10
1871.796875
 20
-1921.0546875
 10
1861.9453125
 20
-1930.90625
 10
1852.09375
 20
-1930.90625
 10
1842.2421875
 20
-1921.0546875
 10
1832.390625
 20
-1921.0546875
 10
1822.5390625
 20
-1930.90625
 10
1812.6875
 20
-1921.0546875
 10
1802.8359375
 20
-1930.90625
 10
1792.984375
 20
-1921.0546875
 10
1783.1328125
 20
-1921.0546875
 10
1773.28125
 20
-1921.0546875
 10
1763.4296875
 20
-1930.90625
 10
1753.578125
 20
-1921.0546875
 10
1743.7265625
 20
-1921.0546875
 10
1733.875
 20
-1921.0546875
 10
1724.0234375
 20
-1921.0546875
 10
1714.171875
 20
-1921.0546875
 10
1704.3203125
 20
-1921.0546875
 10
1694.46875
 20
-1921.0546875
 10
1684.6171875
 20
-1921.0546875
 10
1674.765625
 20
-1921.0546875
 10
1664.9140625
 20
-1921.0546875
 10
1655.0625
 20
-1921.0546875
 10
1645.2109375
 20
-1921.0546875
 10
1635.359375
 20
-1921.0546875
 10
1625.5078125
 20
-1921.0546875
 10
1615.65625
 20
-1921.0546875
 10
1605.8046875
 20
-1921.0546875
 10
1595.953125
 20
-1921.0546875
 10
1586.1015625
 20
-1921.0546875
 10
1576.25
 20
-1921.0546875
 10
1566.3984375
 20
-1921.0546875
 10
1556.546875
 20
-1921.0546875
 10
1546.6953125
 20
-1921.0546875
 10
1536.84375
 20
-1921.0546875
 10
1526.9921875
 20
-1921.0546875
 10
1517.140625
 20
-1921.0546875
 10
1507.2890625
 20
-1921.0546875
 10
1497.4375
 20
-1921.0546875
 10
1487.5859375
 20
-1921.0546875
 10
1477.734375
 20
-1921.0546875
 10
1467.8828125
 20
-1921.0546875
 10
1458.03125
 20
-1921.0546875
 10
1448.1796875
 20
-1921.0546875
 10
1438.328125
 20
-1921.0546875
 10
1428.4765625
 20
-1921.0546875
 10
1418.625
 20
-1921.0546875
 10
1408.7734375
 20
-1921.0546875
 10
1398.921875
 20
-1921.0546875
 10
1389.0703125
 20
-1921.0546875
 10
1379.21875
 20
-1921.0546875
 10
1369.3671875
 20
-1921.0546875
 10
1359.515625
 20
-1921.0546875
 10
1349.6640625
 20
-1921.0546875
 10
1339.8125
 20
-1921.0546875
 10
1329.9609375
 20
-1921.0546875
 10
1320.109375
 20
-1921.0546875
 10
1310.2578125
 20
-1921.0546875
 10
1300.40625
 20
-1921.0546875
 10
1290.5546875
 20
-1921.0546875
 10
1280.703125
 20
-1921.0546875
 10
1270.8515625
 20
-1921.0546875
 10
1261.0
 20
-1921.0546875
 10
1251.1484375
 20
-1921.0546875
 10
1241.296875
 20
-1921.0546875
 10
1231.4453125
 20
-1921.0546875
 10
1221.59375
 20
-1921.0546875
 10
1211.7421875
 20
-1921.0546875
 10
1201.890625
 20
-1921.0546875
 10
1192.0390625
 20
-1921.0546875
 10
1182.1875
 20
-1921.0546875
 10
1172.3359375
 20
-1921.0546875
 10
1162.484375
 20
-1921.0546875
 10
1152.6328125
 20
-1921.0546875
 10
1142.78125
 20
-1921.0546875
 10
1132.9296875
 20
-1921.0546875
 10
1123.078125
 20
-1921.0546875
 10
1113.2265625
 20
-1921.0546875
 10
1103.375
 20
-1921.0546875
 10
1093.5234375
 20
-1921.0546875
 10
1083.671875
 20
-1921.0546875
 10
1073.8203125
 20
-1921.0546875
 10
1063.96875
 20
-1921.0546875
 10
1054.1171875
 20
-1921.0546875
 10
1044.265625
 20
-1921.0546875
 10
1034.4140625
 20
-1921.0546875
 10
1024.5625
 20
-1921.0546875
 10
1014.7109375
 20
-1921.0546875
 10
1004.859375
 20
-1921.0546875
 10
995.0078125
 20
-1921.0546875
 10
985.15625
 20
-1921.0546875
 10
975.3046875
 20
-1921.0546875
 10
965.453125
 20
-1921.0546875
 10
955.6015625
 20
-1930.90625
 10
945.75
 20
-1921.0546875
 10
935.8984375
 20
-1921.0546875
 10
926.046875
 20
-1921.0546875
 10
916.1953125
 20
-1921.0546875
 10
906.34375
 20
-1921.0546875
 10
896.4921875
 20
-1911.203125
 10
886.640625
 20
-1921.0546875
 10
886.640625
 20
-1930.90625
 10
886.640625
 20
-1940.7578125
 10
886.640625
 20
-1950.609375
 10
886.640625
 20
-1960.4609375
 10
886.640625
 20
-1970.3125
 10
886.640625
 20
-1980.1640625
 10
886.640625
 20
-1990.015625
 10
886.640625
 20
-1999.8671875
 10
886.640625
 20
-2009.71875
 10
886.640625
 20
-2019.5703125
 10
886.640625
 20
-2029.421875
 10
886.640625
 20
-2039.2734375
 10
886.640625
 20
-2049.125
 10
886.640625
 20
-2058.9765625
 10
886.640625
 20
-2068.828125
 10
876.7890625
 20
-2078.6796875
 10
886.640625
 20
-2088.53125
 10
886.640625
 20
-2098.3828125
 10
886.640625
 20
-2108.234375
 10
886.640625
 20
-2118.0859375
 10
886.640625
 20
-2127.9375
 10
886.640625
 20
-2137.7890625
 10
886.640625
 20
-2147.640625
 10
886.640625
 20
-2157.4921875
 10
886.640625
 20
-2167.34375
 10
886.640625
 20
-2177.1953125
 10
886.640625
 20
-2187.046875
 10
886.640625
 20
-2196.8984375
 10
886.640625
 20
-2206.75
 10
886.640625
 20
-2216.6015625
 10
886.640625
 20
-2226.453125
 10
886.640625
 20
-2236.3046875
 10
886.640625
 20
-2246.15625
 10
886.640625
 20
-2256.0078125
 10
886.640625
 20
-2265.859375
 10
886.640625
 20
-2275.7109375
 10
886.640625
 20
-2285.5625
 10
886.640625
 20
-2295.4140625
 10
886.640625
 20
-2305.265625
 10
886.640625
 20
-2315.1171875
 10
886.640625
 20
-2324.96875
 10
886.640625
 20
-2334.8203125
 10
886.640625
 20
-2344.671875
 10
886.640625
 20
-2354.5234375
 10
886.640625
 20
-2364.375
 10
886.640625
 20
-2374.2265625
 10
886.640625
 20
-2384.078125
 10
886.640625
 20
-2393.9296875
 10
886.640625
 20
-2403.78125
 10
876.7890625
 20
-2413.6328125
 10
886.640625
 20
-2423.484375
 10
886.640625
 20
-2433.3359375
 10
886.640625
 20
-2443.1875
 10
886.640625
 20
-2453.0390625
 10
886.640625
 20
-2462.890625
 10
886.640625
 20
-2472.7421875
 10
886.640625
 20
-2482.59375
 10
886.640625
 20
-2492.4453125
 10
886.640625
 20
-2502.296875
 10
886.640625
 20
-2512.1484375
 10
886.640625
 20
-2522.0
 10
886.640625
 20
-2531.8515625
 10
886.640625
 20
-2541.703125
 10
886.640625
 20
-2551.5546875
 10
886.640625
 20
-2561.40625
 10
886.640625
 20
-2571.2578125
 10
886.640625
 20
-2581.109375
 10
886.640625
 20
-2590.9609375
 10
886.640625
 20
-2600.8125
 10
886.640625
 20
-2610.6640625
 10
886.640625
 20
-2620.515625
 10
886.640625
 20
-2630.3671875
 10
886.640625
 20
-2640.21875
 10
886.640625
 20
-2650.0703125
 10
886.640625
 20
-2659.921875
 10
886.640625
 20
-2669.7734375
 10
886.640625
 20
-2679.625
 10
886.640625
 20
-2689.4765625
 10
886.640625
 20
-2699.328125
 10
886.640625
 20
-2709.1796875
 10
886.640625
 20
-2719.03125
 10
886.640625
 20
-2728.8828125
 10
886.640625
 20
-2738.734375
 10
886.640625
 20
-2748.5859375
 10
886.640625
 20
-2758.4375
 10
886.640625
 20
-2768.2890625
 10
886.640625
 20
-2778.140625
 10
886.640625
 20
-2787.9921875
 10
886.640625
 20
-2797.84375
 10
886.640625
 20
-2807.6953125
 10
886.640625
 20
-2817.546875
 10
886.640625
 20
-2827.3984375
 10
886.640625
 20
-2837.25
 10
886.640625
 20
-2847.1015625
 10
886.640625
 20
-2856.953125
 10
886.640625
 20
-2866.8046875
 10
886.640625
 20
-2876.65625
 10
886.640625
 20
-2886.5078125
 10
886.640625
 20
-2896.359375
 10
886.640625
 20
-2906.2109375
 10
886.640625
 20
-2916.0625
 10
886.640625
 20
-2925.9140625
 10
886.640625
 20
-2935.765625
 10
886.640625
 20
-2945.6171875
 10
886.640625
 20
-2955.46875
 10
886.640625
 20
-2965.3203125
 10
886.640625
 20
-2975.171875
 10
886.640625
 20
-2985.0234375
 10
886.640625
 20
-2994.875
 10
886.640625
 20
-3004.7265625
 10
886.640625
 20
-3014.578125
 10
886.640625
 20
-3024.4296875
 10
886.640625
 20
-3034.28125
 10
886.640625
 20
-3044.1328125
 10
886.640625
 20
-3053.984375
 10
886.640625
 20
-3063.8359375
 10
886.640625
 20
-3073.6875
 10
886.640625
 20
-3083.5390625
 10
886.640625
 20
-3093.390625
 10
876.7890625
 20
-3103.2421875
 10
886.640625
 20
-3103.2421875
 10
896.4921875
 20
-3113.09375
 10
896.4921875
 20
-3122.9453125
 10
906.34375
 20
-3113.09375
 10
916.1953125
 20
-3113.09375
 10
926.046875
 20
-3113.09375
 10
935.8984375
 20
-3113.09375
 10
945.75
 20
-3113.09375
 10
955.6015625
 20
-3113.09375
 10
965.453125
 20
-3113.09375
 10
975.3046875
 20
-3113.09375
 10
985.15625
 20
-3113.09375
 10
995.0078125
 20
-3113.09375
 10
1004.859375
 20
-3113.09375
 10
1014.7109375
 20
-3113.09375
 10
1024.5625
 20
-3113.09375
 10
1034.4140625
 20
-3113.09375
 10
1044.265625
 20
-3113.09375
 10
1054.1171875
 20
-3122.9453125
 10
1063.96875
 20
-3113.09375
 10
1073.8203125
 20
-3113.09375
 10
1083.671875
 20
-3113.09375
 10
1093.5234375
 20
-3113.09375
 10
1103.375
 20
-3103.2421875
 10
1113.2265625
 20
-3113.09375
 10
1123.078125
 20
-3113.09375
 10
1132.9296875
 20
-3113.09375
 10
1142.78125
 20
-3113.09375
 10
1152.6328125
 20
-3113.09375
 10
1162.484375
 20
-3113.09375
 10
1172.3359375
 20
-3113.09375
 10
1182.1875
 20
-3113.09375
 10
1192.0390625
 20
-3113.09375
 10
1201.890625
 20
-3113.09375
 10
1211.7421875
 20
-3122.9453125
 10
1221.59375
 20
-3113.09375
 10
1231.4453125
 20
-3113.09375
 10
1241.296875
 20
-3113.09375
 10
1251.1484375
 20
-3113.09375
 10
1261.0
 20
-3113.09375
 10
1270.8515625
 20
-3113.09375
 10
1280.703125
 20
-3113.09375
 10
1290.5546875
 20
-3113.09375
 10
1300.40625
 20
-3113.09375
 10
1310.2578125
 20
-3113.09375
 10
1320.109375
 20
-3113.09375
 10
1329.9609375
 20
-3113.09375
 10
1339.8125
 20
-3113.09375
 10
1349.6640625
 20
-3113.09375
 10
1359.515625
 20
-3113.09375
 10
1369.3671875
 20
-3113.09375
 10
1379.21875
 20
-3113.09375
 10
1389.0703125
 20
-3113.09375
 10
1398.921875
 20
-3113.09375
 10
1408.7734375
 20
-3113.09375
 10
1418.625
 20
-3113.09375
 10
1428.4765625
 20
-3113.09375
 10
1438.328125
 20
-3113.09375
 10
1448.1796875
 20
-3113.09375
 10
1458.03125
 20
-3113.09375
 10
1467.8828125
 20
-3113.09375
 10
1477.734375
 20
-3113.09375
 10
1487.5859375
 20
-3113.09375
 10
1497.4375
 20
-3113.09375
 10
1507.2890625
 20
-3113.09375
 10
1517.140625
 20
-3113.09375
 10
1526.9921875
 20
-3113.09375
 10
1536.84375
 20
-3113.09375
 10
1546.6953125
 20
-3113.09375
 10
1556.546875
 20
-3113.09375
 10
1566.3984375
 20
-3113.09375
 10
1576.25
 20
-3113.09375
 10
1586.1015625
 20
-3113.09375
 10
1595.953125
 20
-3103.2421875
 10
1605.8046875
 20
-3113.09375
 10
1615.65625
 20
-3113.09375
 10
1625.5078125
 20
-3113.09375
 10
1635.359375
 20
-3113.09375
 10
1645.2109375
 20
-3103.2421875
 10
1655.0625
 20
-3113.09375
 10
1664.9140625
 20
-3103.2421875
 10
1674.765625
 20
-3103.2421875
 10
1684.6171875
 20
-3103.2421875
 10
1694.46875
 20
-3113.09375
 10
1704.3203125
 20
-3113.09375
 10
1714.171875
 20
-3113.09375
 10
1724.0234375
 20
-3113.09375
 10
1733.875
 20
-3113.09375
 10
1743.7265625
 20
-3113.09375
 10
1753.578125
 20
-3113.09375
 10
1763.4296875
 20
-3113.09375
 10
1773.28125
 20
-3113.09375
 10
1783.1328125
 20
-3113.09375
 10
1792.984375
 20
-3113.09375
 10
1802.8359375
 20
-3103.2421875
 10
1812.6875
 20
-3113.09375
 10
1822.5390625
 20
-3113.09375
 10
1832.390625
 20
-3113.09375
 10
1842.2421875
 20
-3103.2421875
 10
1852.09375
 20
-3113.09375
 10
1861.9453125
 20
-3103.2421875
 10
1871.796875
 20
-3113.09375
 10
1881.6484375
 20
-3103.2421875
 10
1891.5
 20
-3113.09375
 10
1901.3515625
 20
-3113.09375
 10
1911.203125
 20
-3122.9453125
 10
1911.203125
 20
-3132.796875
 10
1921.0546875
 20
-3142.6484375
 10
1921.0546875
 20
-3152.5
 10
1921.0546875
 20
-3162.3515625
 10
1921.0546875
 20
-3172.203125
 10
1921.0546875
 20
-3182.0546875
 10
1921.0546875
 20
-3191.90625
 10
1921.0546875
 20
-3201.7578125
 10
1921.0546875
 20
-3211.609375
 10
1921.0546875
 20
-3221.4609375
 10
1921.0546875
 20
-3231.3125
 10
1921.0546875
 20
-3241.1640625
 10
1921.0546875
 20
-3251.015625
 10
1921.0546875
 20
-3260.8671875
 10
1921.0546875
 20
-3270.71875
 10
1921.0546875
 20
-3280.5703125
 10
1921.0546875
 20
-3290.421875
 10
1911.203125
 20
-3300.2734375
 10
1921.0546875
 20
-3310.125
 10
1921.0546875
 20
-3319.9765625
 10
1921.0546875
 20
-3329.828125
 10
1921.0546875
 20
-3339.6796875
 10
1921.0546875
 20
-3349.53125
 10
1921.0546875
 20
-3359.3828125
 10
1921.0546875
 20
-3369.234375
 10
1921.0546875
 20
-3379.0859375
 10
1921.0546875
 20
-3388.9375
 10
1921.0546875
 20
-3398.7890625
 10
1921.0546875
 20
-3408.640625
 10
1921.0546875
 20
-3418.4921875
 10
1921.0546875
 20
-3428.34375
 10
1921.0546875
 20
-3438.1953125
 10
1921.0546875
 20
-3448.046875
 10
1921.0546875
 20
-3457.8984375
 10
1921.0546875
 20
-3467.75
 10
1921.0546875
 20
-3477.6015625
 10
1921.0546875
 20
-3487.453125
 10
1921.0546875
 20
-3497.3046875
 10
1921.0546875
 20
-3507.15625
 10
1921.0546875
 20
-3517.0078125
 10
1921.0546875
 20
-3526.859375
 10
1921.0546875
 20
-3536.7109375
 10
1921.0546875
 20
-3546.5625
 10
1921.0546875
 20
-3556.4140625
 10
1921.0546875
 20
-3566.265625
 10
1921.0546875
 20
-3576.1171875
 10
1921.0546875
 20
-3585.96875
 10
1921.0546875
 20
-3595.8203125
 10
1921.0546875
 20
-3605.671875
 10
1921.0546875
 20
-3615.5234375
 10
1921.0546875
 20
-3625.375
 10
1921.0546875
 20
-3635.2265625
 10
1921.0546875
 20
-3645.078125
 10
1921.0546875
 20
-3654.9296875
 10
1921.0546875
 20
-3664.78125
 10
1921.0546875
 20
-3674.6328125
 10
1921.0546875
 20
-3684.484375
 10
1911.203125
 20
-3694.3359375
 10
1921.0546875
 20
-3704.1875
 10
1921.0546875
 20
-3714.0390625
 10
1921.0546875
 20
-3723.890625
 10
1921.0546875
 20
-3733.7421875
 10
1921.0546875
 20
-3743.59375
 10
1921.0546875
 20
-3753.4453125
 10
1921.0546875
 20
-3763.296875
 10
1921.0546875
 20
-3773.1484375
 10
1921.0546875
 20
-3783.0
 10
1921.0546875
 20
-3792.8515625
 10
1921.0546875
 20
-3802.703125
 10
1921.0546875
 20
-3812.5546875
 10
1921.0546875
 20
-3822.40625
 10
1921.0546875
 20
-3832.2578125
 10
1921.0546875
 20
-3842.109375
 10
1921.0546875
 20
-3851.9609375
 10
1930.90625
 20
-3861.8125
 10
1930.90625
 20
-3871.6640625
 10
1921.0546875
 20
-3881.515625
 10
1921.0546875
 20
-3891.3671875
 10
1930.90625
 20
-3901.21875
 10
1921.0546875
 20
-3911.0703125
 10
1921.0546875
 20
-3920.921875
 10
1921.0546875
 20
-3930.7734375
 10
1921.0546875
 20
-3940.625
 10
1921.0546875
 20
-3950.4765625
 10
1921.0546875
 20
-3960.328125
 10
1921.0546875
 20
-3970.1796875
 10
1921.0546875
 20
-3980.03125
 10
1921.0546875
 20
-3989.8828125
 10
1921.0546875
 20
-3999.734375
 10
1921.0546875
 20
-4009.5859375
 10
1930.90625
 20
-4019.4375
 10
1930.90625
 20
-4029.2890625
 10
1921.0546875
 20
-4039.140625
 10
1921.0546875
 20
-4048.9921875
 10
1921.0546875
 20
-4058.84375
 10
1930.90625
 20
-4068.6953125
 10
1930.90625
 20
-4078.546875
 10
1921.0546875
 20
-4088.3984375
 10
1930.90625
 20
-4098.25
 10
1930.90625
 20
-4108.1015625
 10
1930.90625
 20
-4117.953125
 10
1921.0546875
 20
-4127.8046875
 10
1930.90625
 20
-4137.65625
 10
1940.7578125
 20
-4137.65625
 10
1950.609375
 20
-4137.65625
 10
1960.4609375
 20
-4127.8046875
 10
1970.3125
 20
-4137.65625
 10
1980.1640625
 20
-4137.65625
 10
1990.015625
 20
-4137.65625
 10
1999.8671875
 20
-4137.65625
 10
2009.71875
 20
-4137.65625
 10
2019.5703125
 20
-4137.65625
 10
2029.421875
 20
-4137.65625
 10
2039.2734375
 20
-4137.65625
 10
2049.125
 20
-4137.65625
 10
2058.9765625
 20
-4147.5078125
 10
2068.828125
 20
-4137.65625
 10
2078.6796875
 20
-4147.5078125
 10
2088.53125
 20
-4147.5078125
 10
2098.3828125
 20
-4147.5078125
 10
2108.234375
 20
-4147.5078125
 10
2118.0859375
 20
-4147.5078125
 10
2127.9375
 20
-4137.65625
 10
2137.7890625
 20
-4147.5078125
 10
2147.640625
 20
-4147.5078125
 10
2157.4921875
 20
-4147.5078125
 10
2167.34375
 20
-4137.65625
 10
2177.1953125
 20
-4137.65625
 10
2187.046875
 20
-4137.65625
 10
2196.8984375
 20
-4137.65625
 10
2206.75
 20
-4137.65625
 10
2216.6015625
 20
-4147.5078125
 10
2226.453125
 20
-4137.65625
 10
2236.3046875
 20
-4147.5078125
 10
2246.15625
 20
-4137.65625
 10
2256.0078125
 20
-4147.5078125
 10
2265.859375
 20
-4137.65625
 10
2275.7109375
 20
-4147.5078125
 10
2285.5625
 20
-4137.65625
 10
2295.4140625
 20
-4137.65625
 10
2305.265625
 20
-4147.5078125
 10
2315.1171875
 20
-4147.5078125
 10
2324.96875
 20
-4137.65625
 10
2334.8203125
 20
-4137.65625
 10
2344.671875
 20
-4147.5078125
 10
2354.5234375
 20
-4137.65625
 10
2364.375
 20
-4137.65625
 10
2374.2265625
 20
-4137.65625
 10
2384.078125
 20
-4137.65625
 10
2393.9296875
 20
-4147.5078125
 10
2403.78125
 20
-4137.65625
 10
2413.6328125
 20
-4137.65625
 10
2423.484375
 20
-4137.65625
 10
2433.3359375
 20
-4137.65625
 10
2443.1875
 20
-4137.65625
 10
2453.0390625
 20
-4137.65625
 10
2462.890625
 20
-4137.65625
 10
2472.7421875
 20
-4147.5078125
 10
2482.59375
 20
-4137.65625
 10
2492.4453125
 20
-4137.65625
 10
2502.296875
 20
-4137.65625
 10
2512.1484375
 20
-4137.65625
 10
2522.0
 20
-4137.65625
 10
2531.8515625
 20
-4137.65625
 10
2541.703125
 20
-4137.65625
 10
2551.5546875
 20
-4147.5078125
 10
2561.40625
 20
-4137.65625
 10
2571.2578125
 20
-4147.5078125
 10
2581.109375
 20
-4137.65625
 10
2590.9609375
 20
-4147.5078125
 10
2600.8125
 20
-4137.65625
 10
2610.6640625
 20
-4147.5078125
 10
2620.515625
 20
-4137.65625
 10
2630.3671875
 20
-4147.5078125
 10
2640.21875
 20
-4137.65625
 10
2650.0703125
 20
-4147.5078125
 10
2659.921875
 20
-4137.65625
 10
2669.7734375
 20
-4137.65625
 10
2679.625
 20
-4137.65625
 10
2689.4765625
 20
-4137.65625
 10
2699.328125
 20
-4137.65625
 10
2709.1796875
 20
-4147.5078125
 10
2719.03125
 20
-4147.5078125
 10
2728.8828125
 20
-4147.5078125
 10
2738.734375
 20
-4137.65625
 10
2748.5859375
 20
-4147.5078125
 10
2758.4375
 20
-4147.5078125
 10
2768.2890625
 20
-4147.5078125
 10
2778.140625
 20
-4147.5078125
 10
2787.9921875
 20
-4147.5078125
 10
2797.84375
 20
-4137.65625
 10
2807.6953125
 20
-4137.65625
 10
2817.546875
 20
-4137.65625
 10
2827.3984375
 20
-4137.65625
 10
2837.25
 20
-4137.65625
 10
2847.1015625
 20
-4137.65625
 10
2856.953125
 20
-4137.65625
 10
2866.8046875
 20
-4147.5078125
 10
2876.65625
 20
-4137.65625
 10
2886.5078125
 20
-4147.5078125
 10
2896.359375
 20
-4147.5078125
 10
2906.2109375
 20
-4147.5078125
 10
2916.0625
 20
-4147.5078125
 10
2925.9140625
 20
-4147.5078125
 10
2935.765625
 20
-4147.5078125
 10
2945.6171875
 20
-4147.5078125
 10
2955.46875
 20
-4147.5078125
 10
2965.3203125
 20
-4147.5078125
 10
2975.171875
 20
-4137.65625
 10
2985.0234375
 20
-4147.5078125
 10
2994.875
 20
-4137.65625
 10
3004.7265625
 20
-4137.65625
 10
3014.578125
 20
-4137.65625
 10
3024.4296875
 20
-4147.5078125
 10
3034.28125
 20
-4137.65625
 10
3044.1328125
 20
-4137.65625
 10
3053.984375
 20
-4147.5078125
 10
3063.8359375
 20
-4147.5078125
 10
3073.6875
 20
-4147.5078125
 10
3083.5390625
 20
-4137.65625
 10
3093.390625
 20
-4147.5078125
 10
3103.2421875
 20
-4157.359375
 10
3113.09375
 20
-4147.5078125
 10
3113.09375
 20
-4137.65625
 10
3113.09375
 20
-4127.8046875
 10
3103.2421875
 20
-4117.953125
 10
3113.09375
 20
-4108.1015625
 10
3113.09375
 20
-4098.25
 10
3113.09375
 20
-4088.3984375
 10
3103.2421875
 20
-4078.546875
 10
3113.09375
 20
-4068.6953125
 10
3113.09375
 20
-4058.84375
 10
3113.09375
 20
-4048.9921875
 10
3103.2421875
 20
-4039.140625
 10
3113.09375
 20
-4029.2890625
 10
3113.09375
 20
-4019.4375
 10
3113.09375
 20
-4009.5859375
 10
3113.09375
 20
-3999.734375
 10
3113.09375
 20
-3989.8828125
 10
3113.09375
 20
-3980.03125
 10
3113.09375
 20
-3970.1796875
 10
3113.09375
 20
-3960.328125
 10
3113.09375
 20
-3950.4765625
 10
3113.09375
 20
-3940.625
 10
3113.09375
 20
-3930.7734375
 10
3113.09375
 20
-3920.921875
 10
3113.09375
 20
-3911.0703125
 10
3113.09375
 20
-3901.21875
 10
3113.09375
 20
-3891.3671875
 10
3113.09375
 20
-3881.515625
 10
3113.09375
 20
-3871.6640625
 10
3113.09375
 20
-3861.8125
 10
3113.09375
 20
-3851.9609375
 10
3113.09375
 20
-3842.109375
 10
3113.09375
 20
-3832.2578125
 10
3113.09375
 20
-3822.40625
 10
3113.09375
 20
-3812.5546875
 10
3113.09375
 20
-3802.703125
 10
3113.09375
 20
-3792.8515625
 10
3113.09375
 20
-3783.0
 10
3113.09375
 20
-3773.1484375
 10
3113.09375
 20
-3763.296875
 10
3113.09375
 20
-3753.4453125
 10
3113.09375
 20
-3743.59375
 10
3113.09375
 20
-3733.7421875
 10
3113.09375
 20
-3723.890625
 10
3122.9453125
 20
-3714.0390625
 10
3113.09375
 20
-3704.1875
 10
3113.09375
 20
-3694.3359375
 10
3113.09375
 20
-3684.484375
 10
3113.09375
 20
-3674.6328125
 10
3113.09375
 20
-3664.78125
 10
3113.09375
 20
-3654.9296875
 10
3113.09375
 20
-3645.078125
 10
3113.09375
 20
-3635.2265625
 10
3113.09375
 20
-3625.375
 10
3113.09375
 20
-3615.5234375
 10
3113.09375
 20
-3605.671875
 10
3113.09375
 20
-3595.8203125
 10
3113.09375
 20
-3585.96875
 10
3113.09375
 20
-3576.1171875
 10
3113.09375
 20
-3566.265625
 10
3122.9453125
 20
-3556.4140625
 10
3113.09375
 20
-3546.5625
 10
3122.9453125
 20
-3536.7109375
 10
3113.09375
 20
-3526.859375
 10
3122.9453125
 20
-3517.0078125
 10
3113.09375
 20
-3507.15625
 10
3113.09375
 20
-3497.3046875
 10
3113.09375
 20
-3487.453125
 10
3113.09375
 20
-3477.6015625
 10
3113.09375
 20
-3467.75
 10
3113.09375
 20
-3457.8984375
 10
3113.09375
 20
-3448.046875
 10
3113.09375
 20
-3438.1953125
 10
3113.09375
 20
-3428.34375
 10
3113.09375
 20
-3418.4921875
 10
3113.09375
 20
-3408.640625
 10
3122.9453125
 20
-3398.7890625
 10
3113.09375
 20
-3388.9375
 10
3113.09375
 20
-3379.0859375
 10
3113.09375
 20
-3369.234375
 10
3122.9453125
 20
-3359.3828125
 10
3113.09375
 20
-3349.53125
 10
3122.9453125
 20
-3339.6796875
 10
3113.09375
 20
-3329.828125
 10
3113.09375
 20
-3319.9765625
 10
3113.09375
 20
-3310.125
 10
3113.09375
 20
-3300.2734375
 10
3113.09375
 20
-3290.421875
 10
3113.09375
 20
-3280.5703125
 10
3113.09375
 20
-3270.71875
 10
3113.09375
 20
-3260.8671875
 10
3113.09375
 20
-3251.015625
 10
3113.09375
 20
-3241.1640625
 10
3113.09375
 20
-3231.3125
 10
3113.09375
 20
-3221.4609375
 10
3122.9453125
 20
-3211.609375
 10
3122.9453125
 20
-3201.7578125
 10
3113.09375
 20
-3191.90625
 10
3122.9453125
 20
-3182.0546875
 10
3122.9453125
 20
-3172.203125
 10
3113.09375
 20
-3162.3515625
 10
3113.09375
 20
-3152.5
 10
3113.09375
 20
-3142.6484375
 10
3113.09375
 20
-3132.796875
 10
3122.9453125
 20
-3122.9453125
 10
3122.9453125
 20
-3113.09375
 10
3132.796875
 20
-3103.2421875
 10
3142.6484375
 20
-3103.2421875
 10
3152.5
 20
-3103.2421875
 10
3162.3515625
 20
-3103.2421875
 10
3172.203125
 20
-3113.09375
 10
3182.0546875
 20
-3113.09375
 10
3191.90625
 20
-3113.09375
 10
3201.7578125
 20
-3113.09375
 10
3211.609375
 20
-3113.09375
 10
3221.4609375
 20
-3113.09375
 10
3231.3125
 20
-3113.09375
 10
3241.1640625
 20
-3113.09375
 10
3251.015625
 20
-3113.09375
 10
3260.8671875
 20
-3113.09375
 10
3270.71875
 20
-3113.09375
 10
3280.5703125
 20
-3113.09375
 10
3290.421875
 20
-3113.09375
 10
3300.2734375
 20
-3113.09375
 10
3310.125
 20
-3113.09375
 10
3319.9765625
 20
-3113.09375
 10
3329.828125
 20
-3113.09375
 10
3339.6796875
 20
-3113.09375
 10
3349.53125
 20
-3113.09375
 10
3359.3828125
 20
-3113.09375
 10
3369.234375
 20
-3113.09375
 10
3379.0859375
 20
-3113.09375
 10
3388.9375
 20
-3113.09375
 10
3398.7890625
 20
-3113.09375
 10
3408.640625
 20
-3113.09375
 10
3418.4921875
 20
-3113.09375
 10
3428.34375
 20
-3113.09375
 10
3438.1953125
 20
-3113.09375
 10
3448.046875
 20
-3113.09375
 10
3457.8984375
 20
-3113.09375
 10
3467.75
 20
-3113.09375
 10
3477.6015625
 20
-3113.09375
 10
3487.453125
 20
-3113.09375
 10
3497.3046875
 20
-3113.09375
 10
3507.15625
 20
-3113.09375
 10
3517.0078125
 20
-3113.09375
 10
3526.859375
 20
-3113.09375
 10
3536.7109375
 20
-3113.09375
 10
3546.5625
 20
-3113.09375
 10
3556.4140625
 20
-3113.09375
 10
3566.265625
 20
-3113.09375
 10
3576.1171875
 20
-3113.09375
 10
3585.96875
 20
-3113.09375
 10
3595.8203125
 20
-3113.09375
 10
3605.671875
 20
-3113.09375
 10
3615.5234375
 20
-3113.09375
 10
3625.375
 20
-3113.09375
 10
3635.2265625
 20
-3122.9453125
 10
3645.078125
 20
-3113.09375
 10
3654.9296875
 20
-3113.09375
 10
3664.78125
 20
-3113.09375
 10
3674.6328125
 20
-3113.09375
 10
3684.484375
 20
-3113.09375
 10
3694.3359375
 20
-3113.09375
 10
3704.1875
 20
-3113.09375
 10
3714.0390625
 20
-3122.9453125
 10
3723.890625
 20
-3113.09375
 10
3733.7421875
 20
-3113.09375
 10
3743.59375
 20
-3113.09375
 10
3753.4453125
 20
-3113.09375
 10
3763.296875
 20
-3113.09375
 10
3773.1484375
 20
-3113.09375
 10
3783.0
 20
-3113.09375
 10
3792.8515625
 20
-3122.9453125
 10
3802.703125
 20
-3113.09375
 10
3812.5546875
 20
-3113.09375
 10
3822.40625
 20
-3113.09375
 10
3832.2578125
 20
-3113.09375
 10
3842.109375
 20
-3113.09375
 10
3851.9609375
 20
-3113.09375
 10
3861.8125
 20
-3113.09375
 10
3871.6640625
 20
-3113.09375
 10
3881.515625
 20
-3113.09375
 10
3891.3671875
 20
-3113.09375
 10
3901.21875
 20
-3113.09375
 10
3911.0703125
 20
-3113.09375
 10
3920.921875
 20
-3113.09375
 10
3930.7734375
 20
-3113.09375
 10
3940.625
 20
-3113.09375
 10
3950.4765625
 20
-3113.09375
 10
3960.328125
 20
-3113.09375
 10
3970.1796875
 20
-3113.09375
 10
3980.03125
 20
-3113.09375
 10
3989.8828125
 20
-3113.09375
 10
3999.734375
 20
-3113.09375
 10
4009.5859375
 20
-3113.09375
 10
4019.4375
 20
-3113.09375
 10
4029.2890625
 20
-3113.09375
 10
4039.140625
 20
-3113.09375
 10
4048.9921875
 20
-3113.09375
 10
4058.84375
 20
-3113.09375
 10
4068.6953125
 20
-3113.09375
 10
4078.546875
 20
-3113.09375
 10
4088.3984375
 20
-3113.09375
 10
4098.25
 20
-3113.09375
 10
4108.1015625
 20
-3122.9453125
 10
4117.953125
 20
-3113.09375
 10
4127.8046875
 20
-3122.9453125
 10
4137.65625
 20
-3113.09375
 10
4147.5078125
 20
-3113.09375
 10
4147.5078125
 20
-3103.2421875
 10
4157.359375
 20
-3093.390625
 10
4147.5078125
 20
-3083.5390625
 10
4147.5078125
 20
-3073.6875
 10
4147.5078125
 20
-3063.8359375
 10
4137.65625
 20
-3053.984375
 10
4147.5078125
 20
-3044.1328125
 10
4147.5078125
 20
-3034.28125
 10
4147.5078125
 20
-3024.4296875
 10
4147.5078125
 20
-3014.578125
 10
4147.5078125
 20
-3004.7265625
 10
4147.5078125
 20
-2994.875
 10
4147.5078125
 20
-2985.0234375
 10
4147.5078125
 20
-2975.171875
 10
4147.5078125
 20
-2965.3203125
 10
4147.5078125
 20
-2955.46875
 10
4147.5078125
 20
-2945.6171875
 10
4157.359375
 20
-2935.765625
 10
4147.5078125
 20
-2925.9140625
 10
4147.5078125
 20
-2916.0625
 10
4147.5078125
 20
-2906.2109375
 10
4157.359375
 20
-2896.359375
 10
4147.5078125
 20
-2886.5078125
 10
4147.5078125
 20
-2876.65625
 10
4147.5078125
 20
-2866.8046875
 10
4147.5078125
 20
-2856.953125
 10
4147.5078125
 20
-2847.1015625
 10
4147.5078125
 20
-2837.25
 10
4147.5078125
 20
-2827.3984375
 10
4147.5078125
 20
-2817.546875
 10
4147.5078125
 20
-2807.6953125
 10
4147.5078125
 20
-2797.84375
 10
4147.5078125
 20
-2787.9921875
 10
4147.5078125
 20
-2778.140625
 10
4147.5078125
 20
-2768.2890625
 10
4147.5078125
 20
-2758.4375
 10
4147.5078125
 20
-2748.5859375
 10
4147.5078125
 20
-2738.734375
 10
4147.5078125
 20
-2728.8828125
 10
4147.5078125
 20
-2719.03125
 10
4147.5078125
 20
-2709.1796875
 10
4147.5078125
 20
-2699.328125
 10
4147.5078125
 20
-2689.4765625
 10
4147.5078125
 20
-2679.625
 10
4147.5078125
 20
-2669.7734375
 10
4147.5078125
 20
-2659.921875
 10
4147.5078125
 20
-2650.0703125
 10
4147.5078125
 20
-2640.21875
 10
4147.5078125
 20
-2630.3671875
 10
4147.5078125
 20
-2620.515625
 10
4147.5078125
 20
-2610.6640625
 10
4147.5078125
 20
-2600.8125
 10
4147.5078125
 20
-2590.9609375
 10
4157.359375
 20
-2581.109375
 10
4147.5078125
 20
-2571.2578125
 10
4147.5078125
 20
-2561.40625
 10
4147.5078125
 20
-2551.5546875
 10
4157.359375
 20
-2541.703125
 10
4147.5078125
 20
-2531.8515625
 10
4147.5078125
 20
-2522.0
 10
4147.5078125
 20
-2512.1484375
 10
4147.5078125
 20
-2502.296875
 10
4147.5078125
 20
-2492.4453125
 10
4147.5078125
 20
-2482.59375
 10
4147.5078125
 20
-2472.7421875
 10
4147.5078125
 20
-2462.890625
 10
4147.5078125
 20
-2453.0390625
 10
4147.5078125
 20
-2443.1875
 10
4147.5078125
 20
-2433.3359375
 10
4147.5078125
 20
-2423.484375
 10
4147.5078125
 20
-2413.6328125
 10
4147.5078125
 20
-2403.78125
 10
4147.5078125
 20
-2393.9296875
 10
4147.5078125
 20
-2384.078125
 10
4147.5078125
 20
-2374.2265625
 10
4147.5078125
 20
-2364.375
 10
4147.5078125
 20
-2354.5234375
 10
4147.5078125
 20
-2344.671875
 10
4147.5078125
 20
-2334.8203125
 10
4147.5078125
 20
-2324.96875
 10
4147.5078125
 20
-2315.1171875
 10
4147.5078125
 20
-2305.265625
 10
4147.5078125
 20
-2295.4140625
 10
4147.5078125
 20
-2285.5625
 10
4147.5078125
 20
-2275.7109375
 10
4147.5078125
 20
-2265.859375
 10
4147.5078125
 20
-2256.0078125
 10
4147.5078125
 20
-2246.15625
 10
4147.5078125
 20
-2236.3046875
 10
4147.5078125
 20
-2226.453125
 10
4147.5078125
 20
-2216.6015625
 10
4147.5078125
 20
-2206.75
 10
4147.5078125
 20
-2196.8984375
 10
4147.5078125
 20
-2187.046875
 10
4147.5078125
 20
-2177.1953125
 10
4147.5078125
 20
-2167.34375
 10
4147.5078125
 20
-2157.4921875
 10
4147.5078125
 20
-2147.640625
 10
4147.5078125
 20
-2137.7890625
 10
4147.5078125
 20
-2127.9375
 10
4147.5078125
 20
-2118.0859375
 10
4147.5078125
 20
-2108.234375
 10
4147.5078125
 20
-2098.3828125
 10
4147.5078125
 20
-2088.53125
 10
4147.5078125
 20
-2078.6796875
 10
4147.5078125
 20
-2068.828125
 10
4147.5078125
 20
-2058.9765625
 10
4147.5078125
 20
-2049.125
 10
4147.5078125
 20
-2039.2734375
 10
4147.5078125
 20
-2029.421875
 10
4147.5078125
 20
-2019.5703125
 10
4147.5078125
 20
-2009.71875
 10
4147.5078125
 20
-1999.8671875
 10
4147.5078125
 20
-1990.015625
 10
4147.5078125
 20
-1980.1640625
 10
4147.5078125
 20
-1970.3125
 10
4147.5078125
 20
-1960.4609375
 10
4157.359375
 20
-1950.609375
 10
4147.5078125
 20
-1940.7578125
 10
4147.5078125
 20
-1930.90625
 10
4147.5078125
 20
-1921.0546875
 10
4137.65625
 20
-1921.0546875
 10
4127.8046875
 20
-1921.0546875
 10
4117.953125
 20
-1921.0546875
 10
4108.1015625
 20
-1911.203125
 10
4098.25
 20
-1921.0546875
 10
4088.3984375
 20
-1921.0546875
 10
4078.546875
 20
-1921.0546875
 10
4068.6953125
 20
-1921.0546875
 10
4058.84375
 20
-1921.0546875
 10
4048.9921875
 20
-1921.0546875
 10
4039.140625
 20
-1921.0546875
 10
4029.2890625
 20
-1921.0546875
 10
4019.4375
 20
-1921.0546875
 10
4009.5859375
 20
-1921.0546875
 10
3999.734375
 20
-1921.0546875
 10
3989.8828125
 20
-1921.0546875
 10
3980.03125
 20
-1921.0546875
 10
3970.1796875
 20
-1921.0546875
 10
3960.328125
 20
-1921.0546875
 10
3950.4765625
 20
-1921.0546875
 10
3940.625
 20
-1921.0546875
 10
3930.7734375
 20
-1921.0546875
 10
3920.921875
 20
-1921.0546875
 10
3911.0703125
 20
-1921.0546875
 10
3901.21875
 20
-1921.0546875
 10
3891.3671875
 20
-1921.0546875
 10
3881.515625
 20
-1921.0546875
 10
3871.6640625
 20
-1921.0546875
 10
3861.8125
 20
-1921.0546875
 10
3851.9609375
 20
-1921.0546875
 10
3842.109375
 20
-1921.0546875
 10
3832.2578125
 20
-1921.0546875
 10
3822.40625
 20
-1921.0546875
 10
3812.5546875
 20
-1921.0546875
 10
3802.703125
 20
-1921.0546875
 10
3792.8515625
 20
-1921.0546875
 10
3783.0
 20
-1921.0546875
 10
3773.1484375
 20
-1921.0546875
 10
3763.296875
 20
-1921.0546875
 10
3753.4453125
 20
-1921.0546875
 10
3743.59375
 20
-1921.0546875
 10
3733.7421875
 20
-1921.0546875
 10
3723.890625
 20
-1921.0546875
 10
3714.0390625
 20
-1921.0546875
 10
3704.1875
 20
-1921.0546875
 10
3694.3359375
 20
-1921.0546875
 10
3684.484375
 20
-1921.0546875
 10
3674.6328125
 20
-1921.0546875
 10
3664.78125
 20
-1921.0546875
 10
3654.9296875
 20
-1921.0546875
 10
3645.078125
 20
-1921.0546875
 10
3635.2265625
 20
-1921.0546875
 10
3625.375
 20
-1921.0546875
 10
3615.5234375
 20
-1921.0546875
 10
3605.671875
 20
-1921.0546875
 10
3595.8203125
 20
-1921.0546875
 10
3585.96875
 20
-1921.0546875
 10
3576.1171875
 20
-1921.0546875
 10
3566.265625
 20
-1921.0546875
 10
3556.4140625
 20
-1921.0546875
 10
3546.5625
 20
-1921.0546875
 10
3536.7109375
 20
-1921.0546875
 10
3526.859375
 20
-1921.0546875
 10
3517.0078125
 20
-1921.0546875
 10
3507.15625
 20
-1921.0546875
 10
3497.3046875
 20
-1921.0546875
 10
3487.453125
 20
-1921.0546875
 10
3477.6015625
 20
-1921.0546875
 10
3467.75
 20
-1921.0546875
 10
3457.8984375
 20
-1921.0546875
 10
3448.046875
 20
-1921.0546875
 10
3438.1953125
 20
-1921.0546875
 10
3428.34375
 20
-1921.0546875
 10
3418.4921875
 20
-1930.90625
 10
3408.640625
 20
-1921.0546875
 10
3398.7890625
 20
-1921.0546875
 10
3388.9375
 20
-1921.0546875
 10
3379.0859375
 20
-1921.0546875
 10
3369.234375
 20
-1921.0546875
 10
3359.3828125
 20
-1921.0546875
 10
3349.53125
 20
-1921.0546875
 10
3339.6796875
 20
-1921.0546875
 10
3329.828125
 20
-1921.0546875
 10
3319.9765625
 20
-1921.0546875
 10
3310.125
 20
-1921.0546875
 10
3300.2734375
 20
-1921.0546875
 10
3290.421875
 20
-1921.0546875
 10
3280.5703125
 20
-1921.0546875
 10
3270.71875
 20
-1921.0546875
 10
3260.8671875
 20
-1921.0546875
 10
3251.015625
 20
-1921.0546875
 10
3241.1640625
 20
-1921.0546875
 10
3231.3125
 20
-1921.0546875
 10
3221.4609375
 20
-1921.0546875
 10
3211.609375
 20
-1921.0546875
 10
3201.7578125
 20
-1921.0546875
 10
3191.90625
 20
-1921.0546875
 10
3182.0546875
 20
-1921.0546875
 10
3172.203125
 20
-1921.0546875
 10
3162.3515625
 20
-1921.0546875
 10
3152.5
 20
-1921.0546875
 10
3142.6484375
 20
-1921.0546875
 10
3132.796875
 20
-1921.0546875
 10
3122.9453125
 20
-1911.203125
 10
3113.09375
 20
-1901.3515625
 10
3113.09375
 20
-1891.5
 10
3113.09375
 20
-1881.6484375
 10
3113.09375
 20
-1871.796875
 10
3113.09375
 20
-1861.9453125
 10
3113.09375
 20
-1852.09375
 10
3113.09375
 20
-1842.2421875
 10
3113.09375
 20
-1832.390625
 10
3113.09375
 20
-1822.5390625
 10
3113.09375
 20
-1812.6875
 10
3113.09375
 20
-1802.8359375
 10
3113.09375
 20
-1792.984375
 10
3113.09375
 20
-1783.1328125
 10
3113.09375
 20
-1773.28125
 10
3113.09375
 20
-1763.4296875
 10
3113.09375
 20
-1753.578125
 10
3113.09375
 20
-1743.7265625
 10
3113.09375
 20
-1733.875
 10
3113.09375
 20
-1724.0234375
 10
3113.09375
 20
-1714.171875
 10
3113.09375
 20
-1704.3203125
 10
3113.09375
 20
-1694.46875
 10
3113.09375
 20
-1684.6171875
 10
3113.09375
 20
-1674.765625
 10
3113.09375
 20
-1664.9140625
 10
3113.09375
 20
-1655.0625
 10
3113.09375
 20
-1645.2109375
 10
3113.09375
 20
-1635.359375
 10
3113.09375
 20
-1625.5078125
 10
3113.09375
 20
-1615.65625
 10
3113.09375
 20
-1605.8046875
 10
3113.09375
 20
-1595.953125
 10
3113.09375
 20
-1586.1015625
 10
3113.09375
 20
-1576.25
 10
3113.09375
 20
-1566.3984375
 10
3113.09375
 20
-1556.546875
 10
3113.09375
 20
-1546.6953125
 10
3113.09375
 20
-1536.84375
 10
3113.09375
 20
-1526.9921875
 10
3113.09375
 20
-1517.140625
 10
3113.09375
 20
-1507.2890625
 10
3113.09375
 20
-1497.4375
 10
3113.09375
 20
-1487.5859375
 10
3113.09375
 20
-1477.734375
 10
3113.09375
 20
-1467.8828125
 10
3113.09375
 20
-1458.03125
 10
3113.09375
 20
-1448.1796875
 10
3113.09375
 20
-1438.328125
 10
3113.09375
 20
-1428.4765625
 10
3113.09375
 20
-1418.625
 10
3113.09375
 20
-1408.7734375
 10
3113.09375
 20
-1398.921875
 10
3113.09375
 20
-1389.0703125
 10
3113.09375
 20
-1379.21875
 10
3113.09375
 20
-1369.3671875
 10
3113.09375
 20
-1359.515625
 10
3113.09375
 20
-1349.6640625
 10
3113.09375
 20
-1339.8125
 10
3113.09375
 20
-1329.9609375
 10
3113.09375
 20
-1320.109375
 10
3113.09375
 20
-1310.2578125
 10
3113.09375
 20
-1300.40625
 10
3113.09375
 20
-1290.5546875
 10
3113.09375
 20
-1280.703125
 10
3113.09375
 20
-1270.8515625
 10
3113.09375
 20
-1261.0
 10
3113.09375
 20
-1251.1484375
 10
3113.09375
 20
-1241.296875
 10
3113.09375
 20
-1231.4453125
 10
3113.09375
 20
-1221.59375
 10
3113.09375
 20
-1211.7421875
 10
3113.09375
 20
-1201.890625
 10
3113.09375
 20
-1192.0390625
 10
3113.09375
 20
-1182.1875
 10
3113.09375
 20
-1172.3359375
 10
3113.09375
 20
-1162.484375
 10
3113.09375
 20
-1152.6328125
 10
3113.09375
 20
-1142.78125
 10
3113.09375
 20
-1132.9296875
 10
3113.09375
 20
-1123.078125
 10
3113.09375
 20
-1113.2265625
 10
3113.09375
 20
-1103.375
 10
3113.09375
 20
-1093.5234375
 10
3113.09375
 20
-1083.671875
 10
3113.09375
 20
-1073.8203125
 10
3113.09375
 20
-1063.96875
 10
3113.09375
 20
-1054.1171875
 10
3113.09375
 20
-1044.265625
 10
3122.9453125
 20
-1034.4140625
 10
3113.09375
 20
-1024.5625
 10
3113.09375
 20
-1014.7109375
 10
3113.09375
 20
-1004.859375
 10
3113.09375
 20
-995.0078125
 10
3113.09375
 20
-985.15625
 10
3113.09375
 20
-975.3046875
 10
3113.09375
 20
-965.453125
 10
3122.9453125
 20
-955.6015625
 10
3113.09375
 20
-945.75
 10
3122.9453125
 20
-935.8984375
 10
3113.09375
 20
-926.046875
 10
3113.09375
 20
-916.1953125
 10
3113.09375
 20
-906.34375
 10
3122.9453125
 20
-896.4921875
 10
3113.09375
 20
-896.4921875
 10
3103.2421875
 20
-886.640625
 10
3093.390625
 20
-886.640625
 10
3083.5390625
 20
-886.640625
 10
3073.6875
 20
-886.640625
 10
3063.8359375
 20
-886.640625
 10
3053.984375
 20
-886.640625
 10
3044.1328125
 20
-886.640625
 10
3034.28125
 20
-886.640625
 10
3024.4296875
 20
-886.640625
 10
3014.578125
 20
-886.640625
 10
3004.7265625
 20
-886.640625
 10
2994.875
 20
-886.640625
 10
2985.0234375
 20
-886.640625
 10
2975.171875
 20
-886.640625
 10
2965.3203125
 20
-886.640625
 10
2955.46875
 20
-896.4921875
 10
2945.6171875
 20
-886.640625
 10
2935.765625
 20
-886.640625
 10
2925.9140625
 20
-886.640625
 10
2916.0625
 20
-886.640625
 10
2906.2109375
 20
-886.640625
 10
2896.359375
 20
-886.640625
 10
2886.5078125
 20
-886.640625
 10
2876.65625
 20
-886.640625
 10
2866.8046875
 20
-886.640625
 10
2856.953125
 20
-886.640625
 10
2847.1015625
 20
-896.4921875
 10
2837.25
 20
-886.640625
 10
2827.3984375
 20
-886.640625
 10
2817.546875
 20
-886.640625
 10
2807.6953125
 20
-886.640625
 10
2797.84375
 20
-886.640625
 10
2787.9921875
 20
-886.640625
 10
2778.140625
 20
-886.640625
 10
2768.2890625
 20
-896.4921875
 10
2758.4375
 20
-886.640625
  0
LWPOLYLINE
  5
33
330
17
100
AcDbEntity
  8
conductor
100
AcDbPolyline
 90
4
 70
1
 43
0.5
 10
3004.7265625
 20
-4108.1015625
 10
3014.578125
 20
-4098.25
 10
3024.4296875
 20
-4108.1015625
 10
3014.578125
 20
-4117.953125
  0
LWPOLYLINE
  5
34
330
17
100
AcDbEntity
  8
conductor
100
AcDbPolyline
 90
4
 70
1
 43
0.5
 10
1940.7578125
 20
-4108.1015625
 10
1950.609375
 20
-4098.25
 10
1960.4609375
 20
-4108.1015625
 10
1950.609375
 20
-4117.953125
  0
LWPOLYLINE
  5
35
330
17
100
AcDbEntity
  8
conductor
100
AcDbPolyline
 90
4
 70
1
 43
0.5
 10
3083.5390625
 20
-4098.25
 10
3093.390625
 20
-4088.3984375
 10
3103.2421875
 20
-4098.25
 10
3093.390625
 20
-4108.1015625
  0
LWPOLYLINE
  5
36
330
17
100
AcDbEntity
  8
conductor
100
AcDbPolyline
 90
4
 70
1
 43
0.5
 10
3063.8359375
 20
-4098.25
 10
3073.6875
 20
-4088.3984375
 10
3083.5390625
 20
-4098.25
 10
3073.6875
 20
-4108.1015625
  0
LWPOLYLINE
  5
37
330
17
100
AcDbEntity
  8
conductor
100
AcDbPolyline
 90
4
 70
1
 43
0.5
 10
3034.28125
 20
-4098.25
 10
3044.1328125
 20
-4088.3984375
 10
3053.984375
 20
-4098.25
 10
3044.1328125
 20
-4108.1015625
  0
LWPOLYLINE
  5
38
330
17
100
AcDbEntity
  8
conductor
100
AcDbPolyline
 90
4
 70
1
 43
0.5
 10
2994.875
 20
-4098.25
 10
3004.7265625
 20
-4088.3984375
 10
3014.578125
 20
-4098.25
 10
3004.7265625
 20
-4108.1015625
  0
LWPOLYLINE
  5
39
330
17
100
AcDbEntity
  8
conductor
100
AcDbPolyline
 90
4
 70
1
 43
0.5
 10
3034.28125
 20
-4078.546875
 10
3044.1328125
 20
-4068.6953125
 10
3053.984375
 20
-4078.546875
 10
3044.1328125
 20
-4088.3984375
  0
LWPOLYLINE
  5
3A
330
17
100
AcDbEntity
  8
substrate
100
AcDbPolyline
 90
2044
 70
1
 43
0.5
 10
0.0
 20
-0.0
 10
0.0
 20
-9.8515625
 10
0.0
 20
-19.703125
 10
0.0
 20
-29.5546875
 10
0.0
 20
-39.40625
 10
0.0
 20
-49.2578125
 10
0.0
 20
-59.109375
 10
0.0
 20
-68.9609375
 10
0.0
 20
-78.8125
 10
0.0
 20
-88.6640625
 10
0.0
 20
-98.515625
 10
0.0
 20
-108.3671875
 10
0.0
 20
-118.21875
 10
0.0
 20
-128.0703125
 10
0.0
 20
-137.921875
 10
0.0
 20
-147.7734375
 10
0.0
 20
-157.625
 10
0.0
 20
-167.4765625
 10
0.0
 20
-177.328125
 10
0.0
 20
-187.1796875
 10
0.0
 20
-197.03125
 10
0.0
 20
-206.8828125
 10
0.0
 20
-216.734375
 10
0.0
 20
-226.5859375
 10
0.0
 20
-236.4375
 10
0.0
 20
-246.2890625
 10
0.0
 20
-256.140625
 10
0.0
 20
-265.9921875
 10
0.0
 20
-275.84375
 10
0.0
 20
-285.6953125
 10
0.0
 20
-295.546875
 10
0.0
 20
-305.3984375
 10
0.0
 20
-315.25
 10
0.0
 20
-325.1015625
 10
0.0
 20
-334.953125
 10
0.0
 20
-344.8046875
 10
0.0
 20
-354.65625
 10
0.0
 20
-364.5078125
 10
0.0
 20
-374.359375
 10
0.0
 20
-384.2109375
 10
0.0
 20
-394.0625
 10
0.0
 20
-403.9140625
 10
0.0
 20
-413.765625
 10
0.0
 20
-423.6171875
 10
0.0
 20
-433.46875
 10
0.0
 20
-443.3203125
 10
0.0
 20
-453.171875
 10
0.0
 20
-463.0234375
 10
0.0
 20
-472.875
 10
0.0
 20
-482.7265625
 10
0.0
 20
-492.578125
 10
0.0
 20
-502.4296875
 10
0.0
 20
-512.28125
 10
0.0
 20
-522.1328125
 10
0.0
 20
-531.984375
 10
0.0
 20
-541.8359375
 10
0.0
 20
-551.6875
 10
0.0
 20
-561.5390625
 10
0.0
 20
-571.390625
 10
0.0
 20
-581.2421875
 10
0.0
 20
-591.09375
 10
0.0
 20
-600.9453125
 10
0.0
 20
-610.796875
 10
0.0
 20
-620.6484375
 10
0.0
 20
-630.5
 10
0.0
 20
-640.3515625
 10
0.0
 20
-650.203125
 10
0.0
 20
-660.0546875
 10
0.0
 20
-669.90625
 10
0.0
 20
-679.7578125
 10
0.0
 20
-689.609375
 10
0.0
 20
-699.4609375
 10
0.0
 20
-709.3125
 10
0.0
 20
-719.1640625
 10
0.0
 20
-729.015625
 10
0.0
 20
-738.8671875
 10
0.0
 20
-748.71875
 10
0.0
 20
-758.5703125
 10
0.0
 20
-768.421875
 10
0.0
 20
-778.2734375
 10
0.0
 20
-788.125
 10
0.0
 20
-797.9765625
 10
0.0
 20
-807.828125
 10
0.0
 20
-817.6796875
 10
0.0
 20
-827.53125
 10
0.0
 20
-837.3828125
 10
0.0
 20
-847.234375
 10
0.0
 20
-857.0859375
 10
0.0
 20
-866.9375
 10
0.0
 20
-876.7890625
 10
0.0
 20
-886.640625
 10
0.0
 20
-896.4921875
 10
0.0
 20
-906.34375
 10
0.0
 20
-916.1953125
 10
0.0
 20
-926.046875
 10
0.0
 20
-935.8984375
 10
0.0
 20
-945.75
 10
0.0
 20
-955.6015625
 10
0.0
 20
-965.453125
 10
0.0
 20
-975.3046875
 10
0.0
 20
-985.15625
 10
0.0
 20
-995.0078125
 10
0.0
 20
-1004.859375
 10
0.0
 20
-1014.7109375
 10
0.0
 20
-1024.5625
 10
0.0
 20
-1034.4140625
 10
0.0
 20
-1044.265625
 10
0.0
 20
-1054.1171875
 10
0.0
 20
-1063.96875
 10
0.0
 20
-1073.8203125
 10
0.0
 20
-1083.671875
 10
0.0
 20
-1093.5234375
 10
0.0
 20
-1103.375
 10
0.0
 20
-1113.2265625
 10
0.0
 20
-1123.078125
 10
0.0
 20
-1132.9296875
 10
0.0
 20
-1142.78125
 10
0.0
 20
-1152.6328125
 10
0.0
 20
-1162.484375
 10
0.0
 20
-1172.3359375
 10
0.0
 20
-1182.1875
 10
0.0
 20
-1192.0390625
 10
0.0
 20
-1201.890625
 10
0.0
 20
-1211.7421875
 10
0.0
 20
-1221.59375
 10
0.0
 20
-1231.4453125
 10
0.0
 20
-1241.296875
 10
0.0
 20
-1251.1484375
 10
0.0
 20
-1261.0
 10
0.0
 20
-1270.8515625
 10
0.0
 20
-1280.703125
 10
0.0
 20
-1290.5546875
 10
0.0
 20
-1300.40625
 10
0.0
 20
-1310.2578125
 10
0.0
 20
-1320.109375
 10
0.0
 20
-1329.9609375
 10
0.0
 20
-1339.8125
 10
0.0
 20
-1349.6640625
 10
0.0
 20
-1359.515625
 10
0.0
 20
-1369.3671875
 10
0.0
 20
-1379.21875
 10
0.0
 20
-1389.0703125
 10
0.0
 20
-1398.921875
 10
0.0
 20
-1408.7734375
 10
0.0
 20
-1418.625
 10
0.0
 20
-1428.4765625
 10
0.0
 20
-1438.328125
 10
0.0
 20
-1448.1796875
 10
0.0
 20
-1458.03125
 10
0.0
 20
-1467.8828125
 10
0.0
 20
-1477.734375
 10
0.0
 20
-1487.5859375
 10
0.0
 20
-1497.4375
 10
0.0
 20
-1507.2890625
 10
0.0
 20
-1517.140625
 10
0.0
 20
-1526.9921875
 10
0.0
 20
-1536.84375
 10
0.0
 20
-1546.6953125
 10
0.0
 20
-1556.546875
 10
0.0
 20
-1566.3984375
 10
0.0
 20
-1576.25
 10
0.0
 20
-1586.1015625
 10
0.0
 20
-1595.953125
 10
0.0
 20
-1605.8046875
 10
0.0
 20
-1615.65625
 10
0.0
 20
-1625.5078125
 10
0.0
 20
-1635.359375
 10
0.0
 20
-1645.2109375
 10
0.0
 20
-1655.0625
 10
0.0
 20
-1664.9140625
 10
0.0
 20
-1674.765625
 10
0.0
 20
-1684.6171875
 10
0.0
 20
-1694.46875
 10
0.0
 20
-1704.3203125
 10
0.0
 20
-1714.171875
 10
0.0
 20
-1724.0234375
 10
0.0
 20
-1733.875
 10
0.0
 20
-1743.7265625
 10
0.0
 20
-1753.578125
 10
0.0
 20
-1763.4296875
 10
0.0
 20
-1773.28125
 10
0.0
 20
-1783.1328125
 10
0.0
 20
-1792.984375
 10
0.0
 20
-1802.8359375
 10
0.0
 20
-1812.6875
 10
0.0
 20
-1822.5390625
 10
0.0
 20
-1832.390625
 10
0.0
 20
-1842.2421875
 10
0.0
 20
-1852.09375
 10
0.0
 20
-1861.9453125
 10
0.0
 20
-1871.796875
 10
0.0
 20
-1881.6484375
 10
0.0
 20
-1891.5
 10
0.0
 20
-1901.3515625
 10
0.0
 20
-1911.203125
 10
0.0
 20
-1921.0546875
 10
0.0
 20
-1930.90625
 10
0.0
 20
-1940.7578125
 10
0.0
 20
-1950.609375
 10
0.0
 20
-1960.4609375
 10
0.0
 20
-1970.3125
 10
0.0
 20
-1980.1640625
 10
0.0
 20
-1990.015625
 10
0.0
 20
-1999.8671875
 10
0.0
 20
-2009.71875
 10
0.0
 20
-2019.5703125
 10
0.0
 20
-2029.421875
 10
0.0
 20
-2039.2734375
 10
0.0
 20
-2049.125
 10
0.0
 20
-2058.9765625
 10
0.0
 20
-2068.828125
 10
0.0
 20
-2078.6796875
 10
0.0
 20
-2088.53125
 10
0.0
 20
-2098.3828125
 10
0.0
 20
-2108.234375
 10
0.0
 20
-2118.0859375
 10
0.0
 20
-2127.9375
 10
0.0
 20
-2137.7890625
 10
0.0
 20
-2147.640625
 10
0.0
 20
-2157.4921875
 10
0.0
 20
-2167.34375
 10
0.0
 20
-2177.1953125
 10
0.0
 20
-2187.046875
 10
0.0
 20
-2196.8984375
 10
0.0
 20
-2206.75
 10
0.0
 20
-2216.6015625
 10
0.0
 20
-2226.453125
 10
0.0
 20
-2236.3046875
 10
0.0
 20
-2246.15625
 10
0.0
 20
-2256.0078125
 10
0.0
 20
-2265.859375
 10
0.0
 20
-2275.7109375
 10
0.0
 20
-2285.5625
 10
0.0
 20
-2295.4140625
 10
0.0
 20
-2305.265625
 10
0.0
 20
-2315.1171875
 10
0.0
 20
-2324.96875
 10
0.0
 20
-2334.8203125
 10
0.0
 20
-2344.671875
 10
0.0
 20
-2354.5234375
 10
0.0
 20
-2364.375
 10
0.0
 20
-2374.2265625
 10
0.0
 20
-2384.078125
 10
0.0
 20
-2393.9296875
 10
0.0
 20
-2403.78125
 10
0.0
 20
-2413.6328125
 10
0.0
 20
-2423.484375
 10
0.0
 20
-2433.3359375
 10
0.0
 20
-2443.1875
 10
0.0
 20
-2453.0390625
 10
0.0
 20
-2462.890625
 10
0.0
 20
-2472.7421875
 10
0.0
 20
-2482.59375
 10
0.0
 20
-2492.4453125
 10
0.0
 20
-2502.296875
 10
0.0
 20
-2512.1484375
 10
0.0
 20
-2522.0
 10
0.0
 20
-2531.8515625
 10
0.0
 20
-2541.703125
 10
0.0
 20
-2551.5546875
 10
0.0
 20
-2561.40625
 10
0.0
 20
-2571.2578125
 10
0.0
 20
-2581.109375
 10
0.0
 20
-2590.9609375
 10
0.0
 20
-2600.8125
 10
0.0
 20
-2610.6640625
 10
0.0
 20
-2620.515625
 10
0.0
 20
-2630.3671875
 10
0.0
 20
-2640.21875
 10
0.0
 20
-2650.0703125
 10
0.0
 20
-2659.921875
 10
0.0
 20
-2669.7734375
 10
0.0
 20
-2679.625
 10
0.0
 20
-2689.4765625
 10
0.0
 20
-2699.328125
 10
0.0
 20
-2709.1796875
 10
0.0
 20
-2719.03125
 10
0.0
 20
-2728.8828125
 10
0.0
 20
-2738.734375
 10
0.0
 20
-2748.5859375
 10
0.0
 20
-2758.4375
 10
0.0
 20
-2768.2890625
 10
0.0
 20
-2778.140625
 10
0.0
 20
-2787.9921875
 10
0.0
 20
-2797.84375
 10
0.0
 20
-2807.6953125
 10
0.0
 20
-2817.546875
 10
0.0
 20
-2827.3984375
 10
0.0
 20
-2837.25
 10
0.0
 20
-2847.1015625
 10
0.0
 20
-2856.953125
 10
0.0
 20
-2866.8046875
 10
0.0
 20
-2876.65625
 10
0.0
 20
-2886.5078125
 10
0.0
 20
-2896.359375
 10
0.0
 20
-2906.2109375
 10
0.0
 20
-2916.0625
 10
0.0
 20
-2925.9140625
 10
0.0
 20
-2935.765625
 10
0.0
 20
-2945.6171875
 10
0.0
 20
-2955.46875
 10
0.0
 20
-2965.3203125
 10
0.0
 20
-2975.171875
 10
0.0
 20
-2985.0234375
 10
0.0
 20
-2994.875
 10
0.0
 20
-3004.7265625
 10
0.0
 20
-3014.578125
 10
0.0
 20
-3024.4296875
 10
0.0
 20
-3034.28125
 10
0.0
 20
-3044.1328125
 10
0.0
 20
-3053.984375
 10
0.0
 20
-3063.8359375
 10
0.0
 20
-3073.6875
 10
0.0
 20
-3083.5390625
 10
0.0
 20
-3093.390625
 10
0.0
 20
-3103.2421875
 10
0.0
 20
-3113.09375
 10
0.0
 20
-3122.9453125
 10
0.0
 20
-3132.796875
 10
0.0
 20
-3142.6484375
 10
0.0
 20
-3152.5
 10
0.0
 20
-3162.3515625
 10
0.0
 20
-3172.203125
 10
0.0
 20
-3182.0546875
 10
0.0
 20
-3191.90625
 10
0.0
 20
-3201.7578125
 10
0.0
 20
-3211.609375
 10
0.0
 20
-3221.4609375
 10
0.0
 20
-3231.3125
 10
0.0
 20
-3241.1640625
 10
0.0
 20
-3251.015625
 10
0.0
 20
-3260.8671875
 10
0.0
 20
-3270.71875
 10
0.0
 20
-3280.5703125
 10
0.0
 20
-3290.421875
 10
0.0
 20
-3300.2734375
 10
0.0
 20
-3310.125
 10
0.0
 20
-3319.9765625
 10
0.0
 20
-3329.828125
 10
0.0
 20
-3339.6796875
 10
0.0
 20
-3349.53125
 10
0.0
 20
-3359.3828125
 10
0.0
 20
-3369.234375
 10
0.0
 20
-3379.0859375
 10
0.0
 20
-3388.9375
 10
0.0
 20
-3398.7890625
 10
0.0
 20
-3408.640625
 10
0.0
 20
-3418.4921875
 10
0.0
 20
-3428.34375
 10
0.0
 20
-3438.1953125
 10
0.0
 20
-3448.046875
 10
0.0
 20
-3457.8984375
 10
0.0
 20
-3467.75
 10
0.0
 20
-3477.6015625
 10
0.0
 20
-3487.453125
 10
0.0
 20
-3497.3046875
 10
0.0
 20
-3507.15625
 10
0.0
 20
-3517.0078125
 10
0.0
 20
-3526.859375
 10
0.0
 20
-3536.7109375
 10
0.0
 20
-3546.5625
 10
0.0
 20
-3556.4140625
 10
0.0
 20
-3566.265625
 10
0.0
 20
-3576.1171875
 10
0.0
 20
-3585.96875
 10
0.0
 20
-3595.8203125
 10
0.0
 20
-3605.671875
 10
0.0
 20
-3615.5234375
 10
0.0
 20
-3625.375
 10
0.0
 20
-3635.2265625
 10
0.0
 20
-3645.078125
 10
0.0
 20
-3654.9296875
 10
0.0
 20
-3664.78125
 10
0.0
 20
-3674.6328125
 10
0.0
 20
-3684.484375
 10
0.0
 20
-3694.3359375
 10
0.0
 20
-3704.1875
 10
0.0
 20
-3714.0390625
 10
0.0
 20
-3723.890625
 10
0.0
 20
-3733.7421875
 10
0.0
 20
-3743.59375
 10
0.0
 20
-3753.4453125
 10
0.0
 20
-3763.296875
 10
0.0
 20
-3773.1484375
 10
0.0
 20
-3783.0
 10
0.0
 20
-3792.8515625
 10
0.0
 20
-3802.703125
 10
0.0
 20
-3812.5546875
 10
0.0
 20
-3822.40625
 10
0.0
 20
-3832.2578125
 10
0.0
 20
-3842.109375
 10
0.0
 20
-3851.9609375
 10
0.0
 20
-3861.8125
 10
0.0
 20
-3871.6640625
 10
0.0
 20
-3881.515625
 10
0.0
 20
-3891.3671875
 10
0.0
 20
-3901.21875
 10
0.0
 20
-3911.0703125
 10
0.0
 20
-3920.921875
 10
0.0
 20
-3930.7734375
 10
0.0
 20
-3940.625
 10
0.0
 20
-3950.4765625
 10
0.0
 20
-3960.328125
 10
0.0
 20
-3970.1796875
 10
0.0
 20
-3980.03125
 10
0.0
 20
-3989.8828125
 10
0.0
 20
-3999.734375
 10
0.0
 20
-4009.5859375
 10
0.0
 20
-4019.4375
 10
0.0
 20
-4029.2890625
 10
0.0
 20
-4039.140625
 10
0.0
 20
-4048.9921875
 10
0.0
 20
-4058.84375
 10
0.0
 20
-4068.6953125
 10
0.0
 20
-4078.546875
 10
0.0
 20
-4088.3984375
 10
0.0
 20
-4098.25
 10
0.0
 20
-4108.1015625
 10
0.0
 20
-4117.953125
 10
0.0
 20
-4127.8046875
 10
0.0
 20
-4137.65625
 10
0.0
 20
-4147.5078125
 10
0.0
 20
-4157.359375
 10
0.0
 20
-4167.2109375
 10
0.0
 20
-4177.0625
 10
0.0
 20
-4186.9140625
 10
0.0
 20
-4196.765625
 10
0.0
 20
-4206.6171875
 10
0.0
 20
-4216.46875
 10
0.0
 20
-4226.3203125
 10
0.0
 20
-4236.171875
 10
0.0
 20
-4246.0234375
 10
0.0
 20
-4255.875
 10
0.0
 20
-4265.7265625
 10
0.0
 20
-4275.578125
 10
0.0
 20
-4285.4296875
 10
0.0
 20
-4295.28125
 10
0.0
 20
-4305.1328125
 10
0.0
 20
-4314.984375
 10
0.0
 20
-4324.8359375
 10
0.0
 20
-4334.6875
 10
0.0
 20
-4344.5390625
 10
0.0
 20
-4354.390625
 10
0.0
 20
-4364.2421875
 10
0.0
 20
-4374.09375
 10
0.0
 20
-4383.9453125
 10
0.0
 20
-4393.796875
 10
0.0
 20
-4403.6484375
 10
0.0
 20
-4413.5
 10
0.0
 20
-4423.3515625
 10
0.0
 20
-4433.203125
 10
0.0
 20
-4443.0546875
 10
0.0
 20
-4452.90625
 10
0.0
 20
-4462.7578125
 10
0.0
 20
-4472.609375
 10
0.0
 20
-4482.4609375
 10
0.0
 20
-4492.3125
 10
0.0
 20
-4502.1640625
 10
0.0
 20
-4512.015625
 10
0.0
 20
-4521.8671875
 10
0.0
 20
-4531.71875
 10
0.0
 20
-4541.5703125
 10
0.0
 20
-4551.421875
 10
0.0
 20
-4561.2734375
 10
0.0
 20
-4571.125
 10
0.0
 20
-4580.9765625
 10
0.0
 20
-4590.828125
 10
0.0
 20
-4600.6796875
 10
0.0
 20
-4610.53125
 10
0.0
 20
-4620.3828125
 10
0.0
 20
-4630.234375
 10
0.0
 20
-4640.0859375
 10
0.0
 20
-4649.9375
 10
0.0
 20
-4659.7890625
 10
0.0
 20
-4669.640625
 10
0.0
 20
-4679.4921875
 10
0.0
 20
-4689.34375
 10
0.0
 20
-4699.1953125
 10
0.0
 20
-4709.046875
 10
0.0
 20
-4718.8984375
 10
0.0
 20
-4728.75
 10
0.0
 20
-4738.6015625
 10
0.0
 20
-4748.453125
 10
0.0
 20
-4758.3046875
 10
0.0
 20
-4768.15625
 10
0.0
 20
-4778.0078125
 10
0.0
 20
-4787.859375
 10
0.0
 20
-4797.7109375
 10
0.0
 20
-4807.5625
 10
0.0
 20
-4817.4140625
 10
0.0
 20
-4827.265625
 10
0.0
 20
-4837.1171875
 10
0.0
 20
-4846.96875
 10
0.0
 20
-4856.8203125
 10
0.0
 20
-4866.671875
 10
0.0
 20
-4876.5234375
 10
0.0
 20
-4886.375
 10
0.0
 20
-4896.2265625
 10
0.0
 20
-4906.078125
 10
0.0
 20
-4915.9296875
 10
0.0
 20
-4925.78125
 10
0.0
 20
-4935.6328125
 10
0.0
 20
-4945.484375
 10
0.0
 20
-4955.3359375
 10
0.0
 20
-4965.1875
 10
0.0
 20
-4975.0390625
 10
0.0
 20
-4984.890625
 10
0.0
 20
-4994.7421875
 10
0.0
 20
-5004.59375
 10
0.0
 20
-5014.4453125
 10
0.0
 20
-5024.296875
 10
0.0
 20
-5034.1484375
 10
9.8515625
 20
-5034.1484375
 10
19.703125
 20
-5034.1484375
 10
29.5546875
 20
-5034.1484375
 10
39.40625
 20
-5034.1484375
 10
49.2578125
 20
-5034.1484375
 10
59.109375
 20
-5034.1484375
 10
68.9609375
 20
-5034.1484375
 10
78.8125
 20
-5034.1484375
 10
88.6640625
 20
-5034.1484375
 10
98.515625
 20
-5034.1484375
 10
108.3671875
 20
-5034.1484375
 10
118.21875
 20
-5034.1484375
 10
128.0703125
 20
-5034.1484375
 10
137.921875
 20
-5034.1484375
 10
147.7734375
 20
-5034.1484375
 10
157.625
 20
-5034.1484375
 10
167.4765625
 20
-5034.1484375
 10
177.328125
 20
-5034.1484375
 10
187.1796875
 20
-5034.1484375
 10
197.03125
 20
-5034.1484375
 10
206.8828125
 20
-5034.1484375
 10
216.734375
 20
-5034.1484375
 10
226.5859375
 20
-5034.1484375
 10
236.4375
 20
-5034.1484375
 10
246.2890625
 20
-5034.1484375
 10
256.140625
 20
-5034.1484375
 10
265.9921875
 20
-5034.1484375
 10
275.84375
 20
-5034.1484375
 10
285.6953125
 20
-5034.1484375
 10
295.546875
 20
-5034.1484375
 10
305.3984375
 20
-5034.1484375
 10
315.25
 20
-5034.1484375
 10
325.1015625
 20
-5034.1484375
 10
334.953125
 20
-5034.1484375
 10
344.8046875
 20
-5034.1484375
 10
354.65625
 20
-5034.1484375
 10
364.5078125
 20
-5034.1484375
 10
374.359375
 20
-5034.1484375
 10
384.2109375
 20
-5034.1484375
 10
394.0625
 20
-5034.1484375
 10
403.9140625
 20
-5034.1484375
 10
413.765625
 20
-5034.1484375
 10
423.6171875
 20
-5034.1484375
 10
433.46875
 20
-5034.1484375
 10
443.3203125
 20
-5034.1484375
 10
453.171875
 20
-5034.1484375
 10
463.0234375
 20
-5034.1484375
 10
472.875
 20
-5034.1484375
 10
482.7265625
 20
-5034.1484375
 10
492.578125
 20
-5034.1484375
 10
502.4296875
 20
-5034.1484375
 10
512.28125
 20
-5034.1484375
 10
522.1328125
 20
-5034.1484375
 10
531.984375
 20
-5034.1484375
 10
541.8359375
 20
-5034.1484375
 10
551.6875
 20
-5034.1484375
 10
561.5390625
 20
-5034.1484375
 10
571.390625
 20
-5034.1484375
 10
581.2421875
 20
-5034.1484375
 10
591.09375
 20
-5034.1484375
 10
600.9453125
 20
-5034.1484375
 10
610.796875
 20
-5034.1484375
 10
620.6484375
 20
-5034.1484375
 10
630.5
 20
-5034.1484375
 10
640.3515625
 20
-5034.1484375
 10
650.203125
 20
-5034.1484375
 10
660.0546875
 20
-5034.1484375
 10
669.90625
 20
-5034.1484375
 10
679.7578125
 20
-5034.1484375
 10
689.609375
 20
-5034.1484375
 10
699.4609375
 20
-5034.1484375
 10
709.3125
 20
-5034.1484375
 10
719.1640625
 20
-5034.1484375
 10
729.015625
 20
-5034.1484375
 10
738.8671875
 20
-5034.1484375
 10
748.71875
 20
-5034.1484375
 10
758.5703125
 20
-5034.1484375
 10
768.421875
 20
-5034.1484375
 10
778.2734375
 20
-5034.1484375
 10
788.125
 20
-5034.1484375
 10
797.9765625
 20
-5034.1484375
 10
807.828125
 20
-5034.1484375
 10
817.6796875
 20
-5034.1484375
 10
827.53125
 20
-5034.1484375
 10
837.3828125
 20
-5034.1484375
 10
847.234375
 20
-5034.1484375
 10
857.0859375
 20
-5034.1484375
 10
866.9375
 20
-5034.1484375
 10
876.7890625
 20
-5034.1484375
 10
886.640625
 20
-5034.1484375
 10
896.4921875
 20
-5034.1484375
 10
906.34375
 20
-5034.1484375
 10
916.1953125
 20
-5034.1484375
 10
926.046875
 20
-5034.1484375
 10
935.8984375
 20
-5034.1484375
 10
945.75
 20
-5034.1484375
 10
955.6015625
 20
-5034.1484375
 10
965.453125
 20
-5034.1484375
 10
975.3046875
 20
-5034.1484375
 10
985.15625
 20
-5034.1484375
 10
995.0078125
 20
-5034.1484375
 10
1004.859375
 20
-5034.1484375
 10
1014.7109375
 20
-5034.1484375
 10
1024.5625
 20
-5034.1484375
 10
1034.4140625
 20
-5034.1484375
 10
1044.265625
 20
-5034.1484375
 10
1054.1171875
 20
-5034.1484375
 10
1063.96875
 20
-5034.1484375
 10
1073.8203125
 20
-5034.1484375
 10
1083.671875
 20
-5034.1484375
 10
1093.5234375
 20
-5034.1484375
 10
1103.375
 20
-5034.1484375
 10
1113.2265625
 20
-5034.1484375
 10
1123.078125
 20
-5034.1484375
 10
1132.9296875
 20
-5034.1484375
 10
1142.78125
 20
-5034.1484375
 10
1152.6328125
 20
-5034.1484375
 10
1162.484375
 20
-5034.1484375
 10
1172.3359375
 20
-5034.1484375
 10
1182.1875
 20
-5034.1484375
 10
1192.0390625
 20
-5034.1484375
 10
1201.890625
 20
-5034.1484375
 10
1211.7421875
 20
-5034.1484375
 10
1221.59375
 20
-5034.1484375
 10
1231.4453125
 20
-5034.1484375
 10
1241.296875
 20
-5034.1484375
 10
1251.1484375
 20
-5034.1484375
 10
1261.0
 20
-5034.1484375
 10
1270.8515625
 20
-5034.1484375
 10
1280.703125
 20
-5034.1484375
 10
1290.5546875
 20
-5034.1484375
 10
1300.40625
 20
-5034.1484375
 10
1310.2578125
 20
-5034.1484375
 10
1320.109375
 20
-5034.1484375
 10
1329.9609375
 20
-5034.1484375
 10
1339.8125
 20
-5034.1484375
 10
1349.6640625
 20
-5034.1484375
 10
1359.515625
 20
-5034.1484375
 10
1369.3671875
 20
-5034.1484375
 10
1379.21875
 20
-5034.1484375
 10
1389.0703125
 20
-5034.1484375
 10
1398.921875
 20
-5034.1484375
 10
1408.7734375
 20
-5034.1484375
 10
1418.625
 20
-5034.1484375
 10
1428.4765625
 20
-5034.1484375
 10
1438.328125
 20
-5034.1484375
 10
1448.1796875
 20
-5034.1484375
 10
1458.03125
 20
-5034.1484375
 10
1467.8828125
 20
-5034.1484375
 10
1477.734375
 20
-5034.1484375
 10
1487.5859375
 20
-5034.1484375
 10
1497.4375
 20
-5034.1484375
 10
1507.2890625
 20
-5034.1484375
 10
1517.140625
 20
-5034.1484375
 10
1526.9921875
 20
-5034.1484375
 10
1536.84375
 20
-5034.1484375
 10
1546.6953125
 20
-5034.1484375
 10
1556.546875
 20
-5034.1484375
 10
1566.3984375
 20
-5034.1484375
 10
1576.25
 20
-5034.1484375
 10
1586.1015625
 20
-5034.1484375
 10
1595.953125
 20
-5034.1484375
 10
1605.8046875
 20
-5034.1484375
 10
1615.65625
 20
-5034.1484375
 10
1625.5078125
 20
-5034.1484375
 10
1635.359375
 20
-5034.1484375
 10
1645.2109375
 20
-5034.1484375
 10
1655.0625
 20
-5034.1484375
 10
1664.9140625
 20
-5034.1484375
 10
1674.765625
 20
-5034.1484375
 10
1684.6171875
 20
-5034.1484375
 10
1694.46875
 20
-5034.1484375
 10
1704.3203125
 20
-5034.1484375
 10
1714.171875
 20
-5034.1484375
 10
1724.0234375
 20
-5034.1484375
 10
1733.875
 20
-5034.1484375
 10
1743.7265625
 20
-5034.1484375
 10
1753.578125
 20
-5034.1484375
 10
1763.4296875
 20
-5034.1484375
 10
1773.28125
 20
-5034.1484375
 10
1783.1328125
 20
-5034.1484375
 10
1792.984375
 20
-5034.1484375
 10
1802.8359375
 20
-5034.1484375
 10
1812.6875
 20
-5034.1484375
 10
1822.5390625
 20
-5034.1484375
 10
1832.390625
 20
-5034.1484375
 10
1842.2421875
 20
-5034.1484375
 10
1852.09375
 20
-5034.1484375
 10
1861.9453125
 20
-5034.1484375
 10
1871.796875
 20
-5034.1484375
 10
1881.6484375
 20
-5034.1484375
 10
1891.5
 20
-5034.1484375
 10
1901.3515625
 20
-5034.1484375
 10
1911.203125
 20
-5034.1484375
 10
1921.0546875
 20
-5034.1484375
 10
1930.90625
 20
-5034.1484375
 10
1940.7578125
 20
-5034.1484375
 10
1950.609375
 20
-5034.1484375
 10
1960.4609375
 20
-5034.1484375
 10
1970.3125
 20
-5034.1484375
 10
1980.1640625
 20
-5034.1484375
 10
1990.015625
 20
-5034.1484375
 10
1999.8671875
 20
-5034.1484375
 10
2009.71875
 20
-5034.1484375
 10
2019.5703125
 20
-5034.1484375
 10
2029.421875
 20
-5034.1484375
 10
2039.2734375
 20
-5034.1484375
 10
2049.125
 20
-5034.1484375
 10
2058.9765625
 20
-5034.1484375
 10
2068.828125
 20
-5034.1484375
 10
2078.6796875
 20
-5034.1484375
 10
2088.53125
 20
-5034.1484375
 10
2098.3828125
 20
-5034.1484375
 10
2108.234375
 20
-5034.1484375
 10
2118.0859375
 20
-5034.1484375
 10
2127.9375
 20
-5034.1484375
 10
2137.7890625
 20
-5034.1484375
 10
2147.640625
 20
-5034.1484375
 10
2157.4921875
 20
-5034.1484375
 10
2167.34375
 20
-5034.1484375
 10
2177.1953125
 20
-5034.1484375
 10
2187.046875
 20
-5034.1484375
 10
2196.8984375
 20
-5034.1484375
 10
2206.75
 20
-5034.1484375
 10
2216.6015625
 20
-5034.1484375
 10
2226.453125
 20
-5034.1484375
 10
2236.3046875
 20
-5034.1484375
 10
2246.15625
 20
-5034.1484375
 10
2256.0078125
 20
-5034.1484375
 10
2265.859375
 20
-5034.1484375
 10
2275.7109375
 20
-5034.1484375
 10
2285.5625
 20
-5034.1484375
 10
2295.4140625
 20
-5034.1484375
 10
2305.265625
 20
-5034.1484375
 10
2315.1171875
 20
-5034.1484375
 10
2324.96875
 20
-5034.1484375
 10
2334.8203125
 20
-5034.1484375
 10
2344.671875
 20
-5034.1484375
 10
2354.5234375
 20
-5034.1484375
 10
2364.375
 20
-5034.1484375
 10
2374.2265625
 20
-5034.1484375
 10
2384.078125
 20
-5034.1484375
 10
2393.9296875
 20
-5034.1484375
 10
2403.78125
 20
-5034.1484375
 10
2413.6328125
 20
-5034.1484375
 10
2423.484375
 20
-5034.1484375
 10
2433.3359375
 20
-5034.1484375
 10
2443.1875
 20
-5034.1484375
 10
2453.0390625
 20
-5034.1484375
 10
2462.890625
 20
-5034.1484375
 10
2472.7421875
 20
-5034.1484375
 10
2482.59375
 20
-5034.1484375
 10
2492.4453125
 20
-5034.1484375
 10
2502.296875
 20
-5034.1484375
 10
2512.1484375
 20
-5034.1484375
 10
2522.0
 20
-5034.1484375
 10
2531.8515625
 20
-5034.1484375
 10
2541.703125
 20
-5034.1484375
 10
2551.5546875
 20
-5034.1484375
 10
2561.40625
 20
-5034.1484375
 10
2571.2578125
 20
-5034.1484375
 10
2581.109375
 20
-5034.1484375
 10
2590.9609375
 20
-5034.1484375
 10
2600.8125
 20
-5034.1484375
 10
2610.6640625
 20
-5034.1484375
 10
2620.515625
 20
-5034.1484375
 10
2630.3671875
 20
-5034.1484375
 10
2640.21875
 20
-5034.1484375
 10
2650.0703125
 20
-5034.1484375
 10
2659.921875
 20
-5034.1484375
 10
2669.7734375
 20
-5034.1484375
 10
2679.625
 20
-5034.1484375
 10
2689.4765625
 20
-5034.1484375
 10
2699.328125
 20
-5034.1484375
 10
2709.1796875
 20
-5034.1484375
 10
2719.03125
 20
-5034.1484375
 10
2728.8828125
 20
-5034.1484375
 10
2738.734375
 20
-5034.1484375
 10
2748.5859375
 20
-5034.1484375
 10
2758.4375
 20
-5034.1484375
 10
2768.2890625
 20
-5034.1484375
 10
2778.140625
 20
-5034.1484375
 10
2787.9921875
 20
-5034.1484375
 10
2797.84375
 20
-5034.1484375
 10
2807.6953125
 20
-5034.1484375
 10
2817.546875
 20
-5034.1484375
 10
2827.3984375
 20
-5034.1484375
 10
2837.25
 20
-5034.1484375
 10
2847.1015625
 20
-5034.1484375
 10
2856.953125
 20
-5034.1484375
 10
2866.8046875
 20
-5034.1484375
 10
2876.65625
 20
-5034.1484375
 10
2886.5078125
 20
-5034.1484375
 10
2896.359375
 20
-5034.1484375
 10
2906.2109375
 20
-5034.1484375
 10
2916.0625
 20
-5034.1484375
 10
2925.9140625
 20
-5034.1484375
 10
2935.765625
 20
-5034.1484375
 10
2945.6171875
 20
-5034.1484375
 10
2955.46875
 20
-5034.1484375
 10
2965.3203125
 20
-5034.1484375
 10
2975.171875
 20
-5034.1484375
 10
2985.0234375
 20
-5034.1484375
 10
2994.875
 20
-5034.1484375
 10
3004.7265625
 20
-5034.1484375
 10
3014.578125
 20
-5034.1484375
 10
3024.4296875
 20
-5034.1484375
 10
3034.28125
 20
-5034.1484375
 10
3044.1328125
 20
-5034.1484375
 10
3053.984375
 20
-5034.1484375
 10
3063.8359375
 20
-5034.1484375
 10
3073.6875
 20
-5034.1484375
 10
3083.5390625
 20
-5034.1484375
 10
3093.390625
 20
-5034.1484375
 10
3103.2421875
 20
-5034.1484375
 10
3113.09375
 20
-5034.1484375
 10
3122.9453125
 20
-5034.1484375
 10
3132.796875
 20
-5034.1484375
 10
3142.6484375
 20
-5034.1484375
 10
3152.5
 20
-5034.1484375
 10
3162.3515625
 20
-5034.1484375
 10
3172.203125
 20
-5034.1484375
 10
3182.0546875
 20
-5034.1484375
 10
3191.90625
 20
-5034.1484375
 10
3201.7578125
 20
-5034.1484375
 10
3211.609375
 20
-5034.1484375
 10
3221.4609375
 20
-5034.1484375
 10
3231.3125
 20
-5034.1484375
 10
3241.1640625
 20
-5034.1484375
 10
3251.015625
 20
-5034.1484375
 10
3260.8671875
 20
-5034.1484375
 10
3270.71875
 20
-5034.1484375
 10
3280.5703125
 20
-5034.1484375
 10
3290.421875
 20
-5034.1484375
 10
3300.2734375
 20
-5034.1484375
 10
3310.125
 20
-5034.1484375
 10
3319.9765625
 20
-5034.1484375
 10
3329.828125
 20
-5034.1484375
 10
3339.6796875
 20
-5034.1484375
 10
3349.53125
 20
-5034.1484375
 10
3359.3828125
 20
-5034.1484375
 10
3369.234375
 20
-5034.1484375
 10
3379.0859375
 20
-5034.1484375
 10
3388.9375
 20
-5034.1484375
 10
3398.7890625
 20
-5034.1484375
 10
3408.640625
 20
-5034.1484375
 10
3418.4921875
 20
-5034.1484375
 10
3428.34375
 20
-5034.1484375
 10
3438.1953125
 20
-5034.1484375
 10
3448.046875
 20
-5034.1484375
 10
3457.8984375
 20
-5034.1484375
 10
3467.75
 20
-5034.1484375
 10
3477.6015625
 20
-5034.1484375
 10
3487.453125
 20
-5034.1484375
 10
3497.3046875
 20
-5034.1484375
 10
3507.15625
 20
-5034.1484375
 10
3517.0078125
 20
-5034.1484375
 10
3526.859375
 20
-5034.1484375
 10
3536.7109375
 20
-5034.1484375
 10
3546.5625
 20
-5034.1484375
 10
3556.4140625
 20
-5034.1484375
 10
3566.265625
 20
-5034.1484375
 10
3576.1171875
 20
-5034.1484375
 10
3585.96875
 20
-5034.1484375
 10
3595.8203125
 20
-5034.1484375
 10
3605.671875
 20
-5034.1484375
 10
3615.5234375
 20
-5034.1484375
 10
3625.375
 20
-5034.1484375
 10
3635.2265625
 20
-5034.1484375
 10
3645.078125
 20
-5034.1484375
 10
3654.9296875
 20
-5034.1484375
 10
3664.78125
 20
-5034.1484375
 10
3674.6328125
 20
-5034.1484375
 10
3684.484375
 20
-5034.1484375
 10
3694.3359375
 20
-5034.1484375
 10
3704.1875
 20
-5034.1484375
 10
3714.0390625
 20
-5034.1484375
 10
3723.890625
 20
-5034.1484375
 10
3733.7421875
 20
-5034.1484375
 10
3743.59375
 20
-5034.1484375
 10
3753.4453125
 20
-5034.1484375
 10
3763.296875
 20
-5034.1484375
 10
3773.1484375
 20
-5034.1484375
 10
3783.0
 20
-5034.1484375
 10
3792.8515625
 20
-5034.1484375
 10
3802.703125
 20
-5034.1484375
 10
3812.5546875
 20
-5034.1484375
 10
3822.40625
 20
-5034.1484375
 10
3832.2578125
 20
-5034.1484375
 10
3842.109375
 20
-5034.1484375
 10
3851.9609375
 20
-5034.1484375
 10
3861.8125
 20
-5034.1484375
 10
3871.6640625
 20
-5034.1484375
 10
3881.515625
 20
-5034.1484375
 10
3891.3671875
 20
-5034.1484375
 10
3901.21875
 20
-5034.1484375
 10
3911.0703125
 20
-5034.1484375
 10
3920.921875
 20
-5034.1484375
 10
3930.7734375
 20
-5034.1484375
 10
3940.625
 20
-5034.1484375
 10
3950.4765625
 20
-5034.1484375
 10
3960.328125
 20
-5034.1484375
 10
3970.1796875
 20
-5034.1484375
 10
3980.03125
 20
-5034.1484375
 10
3989.8828125
 20
-5034.1484375
 10
3999.734375
 20
-5034.1484375
 10
4009.5859375
 20
-5034.1484375
 10
4019.4375
 20
-5034.1484375
 10
4029.2890625
 20
-5034.1484375
 10
4039.140625
 20
-5034.1484375
 10
4048.9921875
 20
-5034.1484375
 10
4058.84375
 20
-5034.1484375
 10
4068.6953125
 20
-5034.1484375
 10
4078.546875
 20
-5034.1484375
 10
4088.3984375
 20
-5034.1484375
 10
4098.25
 20
-5034.1484375
 10
4108.1015625
 20
-5034.1484375
 10
4117.953125
 20
-5034.1484375
 10
4127.8046875
 20
-5034.1484375
 10
4137.65625
 20
-5034.1484375
 10
4147.5078125
 20
-5034.1484375
 10
4157.359375
 20
-5034.1484375
 10
4167.2109375
 20
-5034.1484375
 10
4177.0625
 20
-5034.1484375
 10
4186.9140625
 20
-5034.1484375
 10
4196.765625
 20
-5034.1484375
 10
4206.6171875
 20
-5034.1484375
 10
4216.46875
 20
-5034.1484375
 10
4226.3203125
 20
-5034.1484375
 10
4236.171875
 20
-5034.1484375
 10
4246.0234375
 20
-5034.1484375
 10
4255.875
 20
-5034.1484375
 10
4265.7265625
 20
-5034.1484375
 10
4275.578125
 20
-5034.1484375
 10
4285.4296875
 20
-5034.1484375
 10
4295.28125
 20
-5034.1484375
 10
4305.1328125
 20
-5034.1484375
 10
4314.984375
 20
-5034.1484375
 10
4324.8359375
 20
-5034.1484375
 10
4334.6875
 20
-5034.1484375
 10
4344.5390625
 20
-5034.1484375
 10
4354.390625
 20
-5034.1484375
 10
4364.2421875
 20
-5034.1484375
 10
4374.09375
 20
-5034.1484375
 10
4383.9453125
 20
-5034.1484375
 10
4393.796875
 20
-5034.1484375
 10
4403.6484375
 20
-5034.1484375
 10
4413.5
 20
-5034.1484375
 10
4423.3515625
 20
-5034.1484375
 10
4433.203125
 20
-5034.1484375
 10
4443.0546875
 20
-5034.1484375
 10
4452.90625
 20
-5034.1484375
 10
4462.7578125
 20
-5034.1484375
 10
4472.609375
 20
-5034.1484375
 10
4482.4609375
 20
-5034.1484375
 10
4492.3125
 20
-5034.1484375
 10
4502.1640625
 20
-5034.1484375
 10
4512.015625
 20
-5034.1484375
 10
4521.8671875
 20
-5034.1484375
 10
4531.71875
 20
-5034.1484375
 10
4541.5703125
 20
-5034.1484375
 10
4551.421875
 20
-5034.1484375
 10
4561.2734375
 20
-5034.1484375
 10
4571.125
 20
-5034.1484375
 10
4580.9765625
 20
-5034.1484375
 10
4590.828125
 20
-5034.1484375
 10
4600.6796875
 20
-5034.1484375
 10
4610.53125
 20
-5034.1484375
 10
4620.3828125
 20
-5034.1484375
 10
4630.234375
 20
-5034.1484375
 10
4640.0859375
 20
-5034.1484375
 10
4649.9375
 20
-5034.1484375
 10
4659.7890625
 20
-5034.1484375
 10
4669.640625
 20
-5034.1484375
 10
4679.4921875
 20
-5034.1484375
 10
4689.34375
 20
-5034.1484375
 10
4699.1953125
 20
-5034.1484375
 10
4709.046875
 20
-5034.1484375
 10
4718.8984375
 20
-5034.1484375
 10
4728.75
 20
-5034.1484375
 10
4738.6015625
 20
-5034.1484375
 10
4748.453125
 20
-5034.1484375
 10
4758.3046875
 20
-5034.1484375
 10
4768.15625
 20
-5034.1484375
 10
4778.0078125
 20
-5034.1484375
 10
4787.859375
 20
-5034.1484375
 10
4797.7109375
 20
-5034.1484375
 10
4807.5625
 20
-5034.1484375
 10
4817.4140625
 20
-5034.1484375
 10
4827.265625
 20
-5034.1484375
 10
4837.1171875
 20
-5034.1484375
 10
4846.96875
 20
-5034.1484375
 10
4856.8203125
 20
-5034.1484375
 10
4866.671875
 20
-5034.1484375
 10
4876.5234375
 20
-5034.1484375
 10
4886.375
 20
-5034.1484375
 10
4896.2265625
 20
-5034.1484375
 10
4906.078125
 20
-5034.1484375
 10
4915.9296875
 20
-5034.1484375
 10
4925.78125
 20
-5034.1484375
 10
4935.6328125
 20
-5034.1484375
 10
4945.484375
 20
-5034.1484375
 10
4955.3359375
 20
-5034.1484375
 10
4965.1875
 20
-5034.1484375
 10
4975.0390625
 20
-5034.1484375
 10
4984.890625
 20
-5034.1484375
 10
4994.7421875
 20
-5034.1484375
 10
5004.59375
 20
-5034.1484375
 10
5014.4453125
 20
-5034.1484375
 10
5024.296875
 20
-5034.1484375
 10
5034.1484375
 20
-5034.1484375
 10
5034.1484375
 20
-5024.296875
 10
5034.1484375
 20
-5014.4453125
 10
5034.1484375
 20
-5004.59375
 10
5034.1484375
 20
-4994.7421875
 10
5034.1484375
 20
-4984.890625
 10
5034.1484375
 20
-4975.0390625
 10
5034.1484375
 20
-4965.1875
 10
5034.1484375
 20
-4955.3359375
 10
5034.1484375
 20
-4945.484375
 10
5034.1484375
 20
-4935.6328125
 10
5034.1484375
 20
-4925.78125
 10
5034.1484375
 20
-4915.9296875
 10
5034.1484375
 20
-4906.078125
 10
5034.1484375
 20
-4896.2265625
 10
5034.1484375
 20
-4886.375
 10
5034.1484375
 20
-4876.5234375
 10
5034.1484375
 20
-4866.671875
 10
5034.1484375
 20
-4856.8203125
 10
5034.1484375
 20
-4846.96875
 10
5034.1484375
 20
-4837.1171875
 10
5034.1484375
 20
-4827.265625
 10
5034.1484375
 20
-4817.4140625
 10
5034.1484375
 20
-4807.5625
 10
5034.1484375
 20
-4797.7109375
 10
5034.1484375
 20
-4787.859375
 10
5034.1484375
 20
-4778.0078125
 10
5034.1484375
 20
-4768.15625
 10
5034.1484375
 20
-4758.3046875
 10
5034.1484375
 20
-4748.453125
 10
5034.1484375
 20
-4738.6015625
 10
5034.1484375
 20
-4728.75
 10
5034.1484375
 20
-4718.8984375
 10
5034.1484375
 20
-4709.046875
 10
5034.1484375
 20
-4699.1953125
 10
5034.1484375
 20
-4689.34375
 10
5034.1484375
 20
-4679.4921875
 10
5034.1484375
 20
-4669.640625
 10
5034.1484375
 20
-4659.7890625
 10
5034.1484375
 20
-4649.9375
 10
5034.1484375
 20
-4640.0859375
 10
5034.1484375
 20
-4630.234375
 10
5034.1484375
 20
-4620.3828125
 10
5034.1484375
 20
-4610.53125
 10
5034.1484375
 20
-4600.6796875
 10
5034.1484375
 20
-4590.828125
 10
5034.1484375
 20
-4580.9765625
 10
5034.1484375
 20
-4571.125
 10
5034.1484375
 20
-4561.2734375
 10
5034.1484375
 20
-4551.421875
 10
5034.1484375
 20
-4541.5703125
 10
5034.1484375
 20
-4531.71875
 10
5034.1484375
 20
-4521.8671875
 10
5034.1484375
 20
-4512.015625
 10
5034.1484375
 20
-4502.1640625
 10
5034.1484375
 20
-4492.3125
 10
5034.1484375
 20
-4482.4609375
 10
5034.1484375
 20
-4472.609375
 10
5034.1484375
 20
-4462.7578125
 10
5034.1484375
 20
-4452.90625
 10
5034.1484375
 20
-4443.0546875
 10
5034.1484375
 20
-4433.203125
 10
5034.1484375
 20
-4423.3515625
 10
5034.1484375
 20
-4413.5
 10
5034.1484375
 20
-4403.6484375
 10
5034.1484375
 20
-4393.796875
 10
5034.1484375
 20
-4383.9453125
 10
5034.1484375
 20
-4374.09375
 10
5034.1484375
 20
-4364.2421875
 10
5034.1484375
 20
-4354.390625
 10
5034.1484375
 20
-4344.5390625
 10
5034.1484375
 20
-4334.6875
 10
5034.1484375
 20
-4324.8359375
 10
5034.1484375
 20
-4314.984375
 10
5034.1484375
 20
-4305.1328125
 10
5034.1484375
 20
-4295.28125
 10
5034.1484375
 20
-4285.4296875
 10
5034.1484375
 20
-4275.578125
 10
5034.1484375
 20
-4265.7265625
 10
5034.1484375
 20
-4255.875
 10
5034.1484375
 20
-4246.0234375
 10
5034.1484375
 20
-4236.171875
 10
5034.1484375
 20
-4226.3203125
 10
5034.1484375
 20
-4216.46875
 10
5034.1484375
 20
-4206.6171875
 10
5034.1484375
 20
-4196.765625
 10
5034.1484375
 20
-4186.9140625
 10
5034.1484375
 20
-4177.0625
 10
5034.1484375
 20
-4167.2109375
 10
5034.1484375
 20
-4157.359375
 10
5034.1484375
 20
-4147.5078125
 10
5034.1484375
 20
-4137.65625
 10
5034.1484375
 20
-4127.8046875
 10
5034.1484375
 20
-4117.953125
 10
5034.1484375
 20
-4108.1015625
 10
5034.1484375
 20
-4098.25
 10
5034.1484375
 20
-4088.3984375
 10
5034.1484375
 20
-4078.546875
 10
5034.1484375
 20
-4068.6953125
 10
5034.1484375
 20
-4058.84375
 10
5034.1484375
 20
-4048.9921875
 10
5034.1484375
 20
-4039.140625
 10
5034.1484375
 20
-4029.2890625
 10
5034.1484375
 20
-4019.4375
 10
5034.1484375
 20
-4009.5859375
 10
5034.1484375
 20
-3999.734375
 10
5034.1484375
 20
-3989.8828125
 10
5034.1484375
 20
-3980.03125
 10
5034.1484375
 20
-3970.1796875
 10
5034.1484375
 20
-3960.328125
 10
5034.1484375
 20
-3950.4765625
 10
5034.1484375
 20
-3940.625
 10
5034.1484375
 20
-3930.7734375
 10
5034.1484375
 20
-3920.921875
 10
5034.1484375
 20
-3911.0703125
 10
5034.1484375
 20
-3901.21875
 10
5034.1484375
 20
-3891.3671875
 10
5034.1484375
 20
-3881.515625
 10
5034.1484375
 20
-3871.6640625
 10
5034.1484375
 20
-3861.8125
 10
5034.1484375
 20
-3851.9609375
 10
5034.1484375
 20
-3842.109375
 10
5034.1484375
 20
-3832.2578125
 10
5034.1484375
 20
-3822.40625
 10
5034.1484375
 20
-3812.5546875
 10
5034.1484375
 20
-3802.703125
 10
5034.1484375
 20
-3792.8515625
 10
5034.1484375
 20
-3783.0
 10
5034.1484375
 20
-3773.1484375
 10
5034.1484375
 20
-3763.296875
 10
5034.1484375
 20
-3753.4453125
 10
5034.1484375
 20
-3743.59375
 10
5034.1484375
 20
-3733.7421875
 10
5034.1484375
 20
-3723.890625
 10
5034.1484375
 20
-3714.0390625
 10
5034.1484375
 20
-3704.1875
 10
5034.1484375
 20
-3694.3359375
 10
5034.1484375
 20
-3684.484375
 10
5034.1484375
 20
-3674.6328125
 10
5034.1484375
 20
-3664.78125
 10
5034.1484375
 20
-3654.9296875
 10
5034.1484375
 20
-3645.078125
 10
5034.1484375
 20
-3635.2265625
 10
5034.1484375
 20
-3625.375
 10
5034.1484375
 20
-3615.5234375
 10
5034.1484375
 20
-3605.671875
 10
5034.1484375
 20
-3595.8203125
 10
5034.1484375
 20
-3585.96875
 10
5034.1484375
 20
-3576.1171875
 10
5034.1484375
 20
-3566.265625
 10
5034.1484375
 20
-3556.4140625
 10
5034.1484375
 20
-3546.5625
 10
5034.1484375
 20
-3536.7109375
 10
5034.1484375
 20
-3526.859375
 10
5034.1484375
 20
-3517.0078125
 10
5034.1484375
 20
-3507.15625
 10
5034.1484375
 20
-3497.3046875
 10
5034.1484375
 20
-3487.453125
 10
5034.1484375
 20
-3477.6015625
 10
5034.1484375
 20
-3467.75
 10
5034.1484375
 20
-3457.8984375
 10
5034.1484375
 20
-3448.046875
 10
5034.1484375
 20
-3438.1953125
 10
5034.1484375
 20
-3428.34375
 10
5034.1484375
 20
-3418.4921875
 10
5034.1484375
 20
-3408.640625
 10
5034.1484375
 20
-3398.7890625
 10
5034.1484375
 20
-3388.9375
 10
5034.1484375
 20
-3379.0859375
 10
5034.1484375
 20
-3369.234375
 10
5034.1484375
 20
-3359.3828125
 10
5034.1484375
 20
-3349.53125
 10
5034.1484375
 20
-3339.6796875
 10
5034.1484375
 20
-3329.828125
 10
5034.1484375
 20
-3319.9765625
 10
5034.1484375
 20
-3310.125
 10
5034.1484375
 20
-3300.2734375
 10
5034.1484375
 20
-3290.421875
 10
5034.1484375
 20
-3280.5703125
 10
5034.1484375
 20
-3270.71875
 10
5034.1484375
 20
-3260.8671875
 10
5034.1484375
 20
-3251.015625
 10
5034.1484375
 20
-3241.1640625
 10
5034.1484375
 20
-3231.3125
 10
5034.1484375
 20
-3221.4609375
 10
5034.1484375
 20
-3211.609375
 10
5034.1484375
 20
-3201.7578125
 10
5034.1484375
 20
-3191.90625
 10
5034.1484375
 20
-3182.0546875
 10
5034.1484375
 20
-3172.203125
 10
5034.1484375
 20
-3162.3515625
 10
5034.1484375
 20
-3152.5
 10
5034.1484375
 20
-3142.6484375
 10
5034.1484375
 20
-3132.796875
 10
5034.1484375
 20
-3122.9453125
 10
5034.1484375
 20
-3113.09375
 10
5034.1484375
 20
-3103.2421875
 10
5034.1484375
 20
-3093.390625
 10
5034.1484375
 20
-3083.5390625
 10
5034.1484375
 20
-3073.6875
 10
5034.1484375
 20
-3063.8359375
 10
5034.1484375
 20
-3053.984375
 10
5034.1484375
 20
-3044.1328125
 10
5034.1484375
 20
-3034.28125
 10
5034.1484375
 20
-3024.4296875
 10
5034.1484375
 20
-3014.578125
 10
5034.1484375
 20
-3004.7265625
 10
5034.1484375
 20
-2994.875
 10
5034.1484375
 20
-2985.0234375
 10
5034.1484375
 20
-2975.171875
 10
5034.1484375
 20
-2965.3203125
 10
5034.1484375
 20
-2955.46875
 10
5034.1484375
 20
-2945.6171875
 10
5034.1484375
 20
-2935.765625
 10
5034.1484375
 20
-2925.9140625
 10
5034.1484375
 20
-2916.0625
 10
5034.1484375
 20
-2906.2109375
 10
5034.1484375
 20
-2896.359375
 10
5034.1484375
 20
-2886.5078125
 10
5034.1484375
 20
-2876.65625
 10
5034.1484375
 20
-2866.8046875
 10
5034.1484375
 20
-2856.953125
 10
5034.1484375
 20
-2847.1015625
 10
5034.1484375
 20
-2837.25
 10
5034.1484375
 20
-2827.3984375
 10
5034.1484375
 20
-2817.546875
 10
5034.1484375
 20
-2807.6953125
 10
5034.1484375
 20
-2797.84375
 10
5034.1484375
 20
-2787.9921875
 10
5034.1484375
 20
-2778.140625
 10
5034.1484375
 20
-2768.2890625
 10
5034.1484375
 20
-2758.4375
 10
5034.1484375
 20
-2748.5859375
 10
5034.1484375
 20
-2738.734375
 10
5034.1484375
 20
-2728.8828125
 10
5034.1484375
 20
-2719.03125
 10
5034.1484375
 20
-2709.1796875
 10
5034.1484375
 20
-2699.328125
 10
5034.1484375
 20
-2689.4765625
 10
5034.1484375
 20
-2679.625
 10
5034.1484375
 20
-2669.7734375
 10
5034.1484375
 20
-2659.921875
 10
5034.1484375
 20
-2650.0703125
 10
5034.1484375
 20
-2640.21875
 10
5034.1484375
 20
-2630.3671875
 10
5034.1484375
 20
-2620.515625
 10
5034.1484375
 20
-2610.6640625
 10
5034.1484375
 20
-2600.8125
 10
5034.1484375
 20
-2590.9609375
 10
5034.1484375
 20
-2581.109375
 10
5034.1484375
 20
-2571.2578125
 10
5034.1484375
 20
-2561.40625
 10
5034.1484375
 20
-2551.5546875
 10
5034.1484375
 20
-2541.703125
 10
5034.1484375
 20
-2531.8515625
 10
5034.1484375
 20
-2522.0
 10
5034.1484375
 20
-2512.1484375
 10
5034.1484375
 20
-2502.296875
 10
5034.1484375
 20
-2492.4453125
 10
5034.1484375
 20
-2482.59375
 10
5034.1484375
 20
-2472.7421875
 10
5034.1484375
 20
-2462.890625
 10
5034.1484375
 20
-2453.0390625
 10
5034.1484375
 20
-2443.1875
 10
5034.1484375
 20
-2433.3359375
 10
5034.1484375
 20
-2423.484375
 10
5034.1484375
 20
-2413.6328125
 10
5034.1484375
 20
-2403.78125
 10
5034.1484375
 20
-2393.9296875
 10
5034.1484375
 20
-2384.078125
 10
5034.1484375
 20
-2374.2265625
 10
5034.1484375
 20
-2364.375
 10
5034.1484375
 20
-2354.5234375
 10
5034.1484375
 20
-2344.671875
 10
5034.1484375
 20
-2334.8203125
 10
5034.1484375
 20
-2324.96875
 10
5034.1484375
 20
-2315.1171875
 10
5034.1484375
 20
-2305.265625
 10
5034.1484375
 20
-2295.4140625
 10
5034.1484375
 20
-2285.5625
 10
5034.1484375
 20
-2275.7109375
 10
5034.1484375
 20
-2265.859375
 10
5034.1484375
 20
-2256.0078125
 10
5034.1484375
 20
-2246.15625
 10
5034.1484375
 20
-2236.3046875
 10
5034.1484375
 20
-2226.453125
 10
5034.1484375
 20
-2216.6015625
 10
5034.1484375
 20
-2206.75
 10
5034.1484375
 20
-2196.8984375
 10
5034.1484375
 20
-2187.046875
 10
5034.1484375
 20
-2177.1953125
 10
5034.1484375
 20
-2167.34375
 10
5034.1484375
 20
-2157.4921875
 10
5034.1484375
 20
-2147.640625
 10
5034.1484375
 20
-2137.7890625
 10
5034.1484375
 20
-2127.9375
 10
5034.1484375
 20
-2118.0859375
 10
5034.1484375
 20
-2108.234375
 10
5034.1484375
 20
-2098.3828125
 10
5034.1484375
 20
-2088.53125
 10
5034.1484375
 20
-2078.6796875
 10
5034.1484375
 20
-2068.828125
 10
5034.1484375
 20
-2058.9765625
 10
5034.1484375
 20
-2049.125
 10
5034.1484375
 20
-2039.2734375
 10
5034.1484375
 20
-2029.421875
 10
5034.1484375
 20
-2019.5703125
 10
5034.1484375
 20
-2009.71875
 10
5034.1484375
 20
-1999.8671875
 10
5034.1484375
 20
-1990.015625
 10
5034.1484375
 20
-1980.1640625
 10
5034.1484375
 20
-1970.3125
 10
5034.1484375
 20
-1960.4609375
 10
5034.1484375
 20
-1950.609375
 10
5034.1484375
 20
-1940.7578125
 10
5034.1484375
 20
-1930.90625
 10
5034.1484375
 20
-1921.0546875
 10
5034.1484375
 20
-1911.203125
 10
5034.1484375
 20
-1901.3515625
 10
5034.1484375
 20
-1891.5
 10
5034.1484375
 20
-1881.6484375
 10
5034.1484375
 20
-1871.796875
 10
5034.1484375
 20
-1861.9453125
 10
5034.1484375
 20
-1852.09375
 10
5034.1484375
 20
-1842.2421875
 10
5034.1484375
 20
-1832.390625
 10
5034.1484375
 20
-1822.5390625
 10
5034.1484375
 20
-1812.6875
 10
5034.1484375
 20
-1802.8359375
 10
5034.1484375
 20
-1792.984375
 10
5034.1484375
 20
-1783.1328125
 10
5034.1484375
 20
-1773.28125
 10
5034.1484375
 20
-1763.4296875
 10
5034.1484375
 20
-1753.578125
 10
5034.1484375
 20
-1743.7265625
 10
5034.1484375
 20
-1733.875
 10
5034.1484375
 20
-1724.0234375
 10
5034.1484375
 20
-1714.171875
 10
5034.1484375
 20
-1704.3203125
 10
5034.1484375
 20
-1694.46875
 10
5034.1484375
 20
-1684.6171875
 10
5034.1484375
 20
-1674.765625
 10
5034.1484375
 20
-1664.9140625
 10
5034.1484375
 20
-1655.0625
 10
5034.1484375
 20
-1645.2109375
 10
5034.1484375
 20
-1635.359375
 10
5034.1484375
 20
-1625.5078125
 10
5034.1484375
 20
-1615.65625
 10
5034.1484375
 20
-1605.8046875
 10
5034.1484375
 20
-1595.953125
 10
5034.1484375
 20
-1586.1015625
 10
5034.1484375
 20
-1576.25
 10
5034.1484375
 20
-1566.3984375
 10
5034.1484375
 20
-1556.546875
 10
5034.1484375
 20
-1546.6953125
 10
5034.1484375
 20
-1536.84375
 10
5034.1484375
 20
-1526.9921875
 10
5034.1484375
 20
-1517.140625
 10
5034.1484375
 20
-1507.2890625
 10
5034.1484375
 20
-1497.4375
 10
5034.1484375
 20
-1487.5859375
 10
5034.1484375
 20
-1477.734375
 10
5034.1484375
 20
-1467.8828125
 10
5034.1484375
 20
-1458.03125
 10
5034.1484375
 20
-1448.1796875
 10
5034.1484375
 20
-1438.328125
 10
5034.1484375
 20
-1428.4765625
 10
5034.1484375
 20
-1418.625
 10
5034.1484375
 20
-1408.7734375
 10
5034.1484375
 20
-1398.921875
 10
5034.1484375
 20
-1389.0703125
 10
5034.1484375
 20
-1379.21875
 10
5034.1484375
 20
-1369.3671875
 10
5034.1484375
 20
-1359.515625
 10
5034.1484375
 20
-1349.6640625
 10
5034.1484375
 20
-1339.8125
 10
5034.1484375
 20
-1329.9609375
 10
5034.1484375
 20
-1320.109375
 10
5034.1484375
 20
-1310.2578125
 10
5034.1484375
 20
-1300.40625
 10
5034.1484375
 20
-1290.5546875
 10
5034.1484375
 20
-1280.703125
 10
5034.1484375
 20
-1270.8515625
 10
5034.1484375
 20
-1261.0
 10
5034.1484375
 20
-1251.1484375
 10
5034.1484375
 20
-1241.296875
 10
5034.1484375
 20
-1231.4453125
 10
5034.1484375
 20
-1221.59375
 10
5034.1484375
 20
-1211.7421875
 10
5034.1484375
 20
-1201.890625
 10
5034.1484375
 20
-1192.0390625
 10
5034.1484375
 20
-1182.1875
 10
5034.1484375
 20
-1172.3359375
 10
5034.1484375
 20
-1162.484375
 10
5034.1484375
 20
-1152.6328125
 10
5034.1484375
 20
-1142.78125
 10
5034.1484375
 20
-1132.9296875
 10
5034.1484375
 20
-1123.078125
 10
5034.1484375
 20
-1113.2265625
 10
5034.1484375
 20
-1103.375
 10
5034.1484375
 20
-1093.5234375
 10
5034.1484375
 20
-1083.671875
 10
5034.1484375
 20
-1073.8203125
 10
5034.1484375
 20
-1063.96875
 10
5034.1484375
 20
-1054.1171875
 10
5034.1484375
 20
-1044.265625
 10
5034.1484375
 20
-1034.4140625
 10
5034.1484375
 20
-1024.5625
 10
5034.1484375
 20
-1014.7109375
 10
5034.1484375
 20
-1004.859375
 10
5034.1484375
 20
-995.0078125
 10
5034.1484375
 20
-985.15625
 10
5034.1484375
 20
-975.3046875
 10
5034.1484375
 20
-965.453125
 10
5034.1484375
 20
-955.6015625
 10
5034.1484375
 20
-945.75
 10
5034.1484375
 20
-935.8984375
 10
5034.1484375
 20
-926.046875
 10
5034.1484375
 20
-916.1953125
 10
5034.1484375
 20
-906.34375
 10
5034.1484375
 20
-896.4921875
 10
5034.1484375
 20
-886.640625
 10
5034.1484375
 20
-876.7890625
 10
5034.1484375
 20
-866.9375
 10
5034.1484375
 20
-857.0859375
 10
5034.1484375
 20
-847.234375
 10
5034.1484375
 20
-837.3828125
 10
5034.1484375
 20
-827.53125
 10
5034.1484375
 20
-817.6796875
 10
5034.1484375
 20
-807.828125
 10
5034.1484375
 20
-797.9765625
 10
5034.1484375
 20
-788.125
 10
5034.1484375
 20
-778.2734375
 10
5034.1484375
 20
-768.421875
 10
5034.1484375
 20
-758.5703125
 10
5034.1484375
 20
-748.71875
 10
5034.1484375
 20
-738.8671875
 10
5034.1484375
 20
-729.015625
 10
5034.1484375
 20
-719.1640625
 10
5034.1484375
 20
-709.3125
 10
5034.1484375
 20
-699.4609375
 10
5034.1484375
 20
-689.609375
 10
5034.1484375
 20
-679.7578125
 10
5034.1484375
 20
-669.90625
 10
5034.1484375
 20
-660.0546875
 10
5034.1484375
 20
-650.203125
 10
5034.1484375
 20
-640.3515625
 10
5034.1484375
 20
-630.5
 10
5034.1484375
 20
-620.6484375
 10
5034.1484375
 20
-610.796875
 10
5034.1484375
 20
-600.9453125
 10
5034.1484375
 20
-591.09375
 10
5034.1484375
 20
-581.2421875
 10
5034.1484375
 20
-571.390625
 10
5034.1484375
 20
-561.5390625
 10
5034.1484375
 20
-551.6875
 10
5034.1484375
 20
-541.8359375
 10
5034.1484375
 20
-531.984375
 10
5034.1484375
 20
-522.1328125
 10
5034.1484375
 20
-512.28125
 10
5034.1484375
 20
-502.4296875
 10
5034.1484375
 20
-492.578125
 10
5034.1484375
 20
-482.7265625
 10
5034.1484375
 20
-472.875
 10
5034.1484375
 20
-463.0234375
 10
5034.1484375
 20
-453.171875
 10
5034.1484375
 20
-443.3203125
 10
5034.1484375
 20
-433.46875
 10
5034.1484375
 20
-423.6171875
 10
5034.1484375
 20
-413.765625
 10
5034.1484375
 20
-403.9140625
 10
5034.1484375
 20
-394.0625
 10
5034.1484375
 20
-384.2109375
 10
5034.1484375
 20
-374.359375
 10
5034.1484375
 20
-364.5078125
 10
5034.1484375
 20
-354.65625
 10
5034.1484375
 20
-344.8046875
 10
5034.1484375
 20
-334.953125
 10
5034.1484375
 20
-325.1015625
 10
5034.1484375
 20
-315.25
 10
5034.1484375
 20
-305.3984375
 10
5034.1484375
 20
-295.546875
 10
5034.1484375
 20
-285.6953125
 10
5034.1484375
 20
-275.84375
 10
5034.1484375
 20
-265.9921875
 10
5034.1484375
 20
-256.140625
 10
5034.1484375
 20
-246.2890625
 10
5034.1484375
 20
-236.4375
 10
5034.1484375
 20
-226.5859375
 10
5034.1484375
 20
-216.734375
 10
5034.1484375
 20
-206.8828125
 10
5034.1484375
 20
-197.03125
 10
5034.1484375
 20
-187.1796875
 10
5034.1484375
 20
-177.328125
 10
5034.1484375
 20
-167.4765625
 10
5034.1484375
 20
-157.625
 10
5034.1484375
 20
-147.7734375
 10
5034.1484375
 20
-137.921875
 10
5034.1484375
 20
-128.0703125
 10
5034.1484375
 20
-118.21875
 10
5034.1484375
 20
-108.3671875
 10
5034.1484375
 20
-98.515625
 10
5034.1484375
 20
-88.6640625
 10
5034.1484375
 20
-78.8125
 10
5034.1484375
 20
-68.9609375
 10
5034.1484375
 20
-59.109375
 10
5034.1484375
 20
-49.2578125
 10
5034.1484375
 20
-39.40625
 10
5034.1484375
 20
-29.5546875
 10
5034.1484375
 20
-19.703125
 10
5034.1484375
 20
-9.8515625
 10
5034.1484375
 20
-0.0
 10
5024.296875
 20
-0.0
 10
5014.4453125
 20
-0.0
 10
5004.59375
 20
-0.0
 10
4994.7421875
 20
-0.0
 10
4984.890625
 20
-0.0
 10
4975.0390625
 20
-0.0
 10
4965.1875
 20
-0.0
 10
4955.3359375
 20
-0.0
 10
4945.484375
 20
-0.0
 10
4935.6328125
 20
-0.0
 10
4925.78125
 20
-0.0
 10
4915.9296875
 20
-0.0
 10
4906.078125
 20
-0.0
 10
4896.2265625
 20
-0.0
 10
4886.375
 20
-0.0
 10
4876.5234375
 20
-0.0
 10
4866.671875
 20
-0.0
 10
4856.8203125
 20
-0.0
 10
4846.96875
 20
-0.0
 10
4837.1171875
 20
-0.0
 10
4827.265625
 20
-0.0
 10
4817.4140625
 20
-0.0
 10
4807.5625
 20
-0.0
 10
4797.7109375
 20
-0.0
 10
4787.859375
 20
-0.0
 10
4778.0078125
 20
-0.0
 10
4768.15625
 20
-0.0
 10
4758.3046875
 20
-0.0
 10
4748.453125
 20
-0.0
 10
4738.6015625
 20
-0.0
 10
4728.75
 20
-0.0
 10
4718.8984375
 20
-0.0
 10
4709.046875
 20
-0.0
 10
4699.1953125
 20
-0.0
 10
4689.34375
 20
-0.0
 10
4679.4921875
 20
-0.0
 10
4669.640625
 20
-0.0
 10
4659.7890625
 20
-0.0
 10
4649.9375
 20
-0.0
 10
4640.0859375
 20
-0.0
 10
4630.234375
 20
-0.0
 10
4620.3828125
 20
-0.0
 10
4610.53125
 20
-0.0
 10
4600.6796875
 20
-0.0
 10
4590.828125
 20
-0.0
 10
4580.9765625
 20
-0.0
 10
4571.125
 20
-0.0
 10
4561.2734375
 20
-0.0
 10
4551.421875
 20
-0.0
 10
4541.5703125
 20
-0.0
 10
4531.71875
 20
-0.0
 10
4521.8671875
 20
-0.0
 10
4512.015625
 20
-0.0
 10
4502.1640625
 20
-0.0
 10
4492.3125
 20
-0.0
 10
4482.4609375
 20
-0.0
 10
4472.609375
 20
-0.0
 10
4462.7578125
 20
-0.0
 10
4452.90625
 20
-0.0
 10
4443.0546875
 20
-0.0
 10
4433.203125
 20
-0.0
 10
4423.3515625
 20
-0.0
 10
4413.5
 20
-0.0
 10
4403.6484375
 20
-0.0
 10
4393.796875
 20
-0.0
 10
4383.9453125
 20
-0.0
 10
4374.09375
 20
-0.0
 10
4364.2421875
 20
-0.0
 10
4354.390625
 20
-0.0
 10
4344.5390625
 20
-0.0
 10
4334.6875
 20
-0.0
 10
4324.8359375
 20
-0.0
 10
4314.984375
 20
-0.0
 10
4305.1328125
 20
-0.0
 10
4295.28125
 20
-0.0
 10
4285.4296875
 20
-0.0
 10
4275.578125
 20
-0.0
 10
4265.7265625
 20
-0.0
 10
4255.875
 20
-0.0
 10
4246.0234375
 20
-0.0
 10
4236.171875
 20
-0.0
 10
4226.3203125
 20
-0.0
 10
4216.46875
 20
-0.0
 10
4206.6171875
 20
-0.0
 10
4196.765625
 20
-0.0
 10
4186.9140625
 20
-0.0
 10
4177.0625
 20
-0.0
 10
4167.2109375
 20
-0.0
 10
4157.359375
 20
-0.0
 10
4147.5078125
 20
-0.0
 10
4137.65625
 20
-0.0
 10
4127.8046875
 20
-0.0
 10
4117.953125
 20
-0.0
 10
4108.1015625
 20
-0.0
 10
4098.25
 20
-0.0
 10
4088.3984375
 20
-0.0
 10
4078.546875
 20
-0.0
 10
4068.6953125
 20
-0.0
 10
4058.84375
 20
-0.0
 10
4048.9921875
 20
-0.0
 10
4039.140625
 20
-0.0
 10
4029.2890625
 20
-0.0
 10
4019.4375
 20
-0.0
 10
4009.5859375
 20
-0.0
 10
3999.734375
 20
-0.0
 10
3989.8828125
 20
-0.0
 10
3980.03125
 20
-0.0
 10
3970.1796875
 20
-0.0
 10
3960.328125
 20
-0.0
 10
3950.4765625
 20
-0.0
 10
3940.625
 20
-0.0
 10
3930.7734375
 20
-0.0
 10
3920.921875
 20
-0.0
 10
3911.0703125
 20
-0.0
 10
3901.21875
 20
-0.0
 10
3891.3671875
 20
-0.0
 10
3881.515625
 20
-0.0
 10
3871.6640625
 20
-0.0
 10
3861.8125
 20
-0.0
 10
3851.9609375
 20
-0.0
 10
3842.109375
 20
-0.0
 10
3832.2578125
 20
-0.0
 10
3822.40625
 20
-0.0
 10
3812.5546875
 20
-0.0
 10
3802.703125
 20
-0.0
 10
3792.8515625
 20
-0.0
 10
3783.0
 20
-0.0
 10
3773.1484375
 20
-0.0
 10
3763.296875
 20
-0.0
 10
3753.4453125
 20
-0.0
 10
3743.59375
 20
-0.0
 10
3733.7421875
 20
-0.0
 10
3723.890625
 20
-0.0
 10
3714.0390625
 20
-0.0
 10
3704.1875
 20
-0.0
 10
3694.3359375
 20
-0.0
 10
3684.484375
 20
-0.0
 10
3674.6328125
 20
-0.0
 10
3664.78125
 20
-0.0
 10
3654.9296875
 20
-0.0
 10
3645.078125
 20
-0.0
 10
3635.2265625
 20
-0.0
 10
3625.375
 20
-0.0
 10
3615.5234375
 20
-0.0
 10
3605.671875
 20
-0.0
 10
3595.8203125
 20
-0.0
 10
3585.96875
 20
-0.0
 10
3576.1171875
 20
-0.0
 10
3566.265625
 20
-0.0
 10
3556.4140625
 20
-0.0
 10
3546.5625
 20
-0.0
 10
3536.7109375
 20
-0.0
 10
3526.859375
 20
-0.0
 10
3517.0078125
 20
-0.0
 10
3507.15625
 20
-0.0
 10
3497.3046875
 20
-0.0
 10
3487.453125
 20
-0.0
 10
3477.6015625
 20
-0.0
 10
3467.75
 20
-0.0
 10
3457.8984375
 20
-0.0
 10
3448.046875
 20
-0.0
 10
3438.1953125
 20
-0.0
 10
3428.34375
 20
-0.0
 10
3418.4921875
 20
-0.0
 10
3408.640625
 20
-0.0
 10
3398.7890625
 20
-0.0
 10
3388.9375
 20
-0.0
 10
3379.0859375
 20
-0.0
 10
3369.234375
 20
-0.0
 10
3359.3828125
 20
-0.0
 10
3349.53125
 20
-0.0
 10
3339.6796875
 20
-0.0
 10
3329.828125
 20
-0.0
 10
3319.9765625
 20
-0.0
 10
3310.125
 20
-0.0
 10
3300.2734375
 20
-0.0
 10
3290.421875
 20
-0.0
 10
3280.5703125
 20
-0.0
 10
3270.71875
 20
-0.0
 10
3260.8671875
 20
-0.0
 10
3251.015625
 20
-0.0
 10
3241.1640625
 20
-0.0
 10
3231.3125
 20
-0.0
 10
3221.4609375
 20
-0.0
 10
3211.609375
 20
-0.0
 10
3201.7578125
 20
-0.0
 10
3191.90625
 20
-0.0
 10
3182.0546875
 20
-0.0
 10
3172.203125
 20
-0.0
 10
3162.3515625
 20
-0.0
 10
3152.5
 20
-0.0
 10
3142.6484375
 20
-0.0
 10
3132.796875
 20
-0.0
 10
3122.9453125
 20
-0.0
 10
3113.09375
 20
-0.0
 10
3103.2421875
 20
-0.0
 10
3093.390625
 20
-0.0
 10
3083.5390625
 20
-0.0
 10
3073.6875
 20
-0.0
 10
3063.8359375
 20
-0.0
 10
3053.984375
 20
-0.0
 10
3044.1328125
 20
-0.0
 10
3034.28125
 20
-0.0
 10
3024.4296875
 20
-0.0
 10
3014.578125
 20
-0.0
 10
3004.7265625
 20
-0.0
 10
2994.875
 20
-0.0
 10
2985.0234375
 20
-0.0
 10
2975.171875
 20
-0.0
 10
2965.3203125
 20
-0.0
 10
2955.46875
 20
-0.0
 10
2945.6171875
 20
-0.0
 10
2935.765625
 20
-0.0
 10
2925.9140625
 20
-0.0
 10
2916.0625
 20
-0.0
 10
2906.2109375
 20
-0.0
 10
2896.359375
 20
-0.0
 10
2886.5078125
 20
-0.0
 10
2876.65625
 20
-0.0
 10
2866.8046875
 20
-0.0
 10
2856.953125
 20
-0.0
 10
2847.1015625
 20
-0.0
 10
2837.25
 20
-0.0
 10
2827.3984375
 20
-0.0
 10
2817.546875
 20
-0.0
 10
2807.6953125
 20
-0.0
 10
2797.84375
 20
-0.0
 10
2787.9921875
 20
-0.0
 10
2778.140625
 20
-0.0
 10
2768.2890625
 20
-0.0
 10
2758.4375
 20
-0.0
 10
2748.5859375
 20
-0.0
 10
2738.734375
 20
-0.0
 10
2728.8828125
 20
-0.0
 10
2719.03125
 20
-0.0
 10
2709.1796875
 20
-0.0
 10
2699.328125
 20
-0.0
 10
2689.4765625
 20
-0.0
 10
2679.625
 20
-0.0
 10
2669.7734375
 20
-0.0
 10
2659.921875
 20
-0.0
 10
2650.0703125
 20
-0.0
 10
2640.21875
 20
-0.0
 10
2630.3671875
 20
-0.0
 10
2620.515625
 20
-0.0
 10
2610.6640625
 20
-0.0
 10
2600.8125
 20
-0.0
 10
2590.9609375
 20
-0.0
 10
2581.109375
 20
-0.0
 10
2571.2578125
 20
-0.0
 10
2561.40625
 20
-0.0
 10
2551.5546875
 20
-0.0
 10
2541.703125
 20
-0.0
 10
2531.8515625
 20
-0.0
 10
2522.0
 20
-0.0
 10
2512.1484375
 20
-0.0
 10
2502.296875
 20
-0.0
 10
2492.4453125
 20
-0.0
 10
2482.59375
 20
-0.0
 10
2472.7421875
 20
-0.0
 10
2462.890625
 20
-0.0
 10
2453.0390625
 20
-0.0
 10
2443.1875
 20
-0.0
 10
2433.3359375
 20
-0.0
 10
2423.484375
 20
-0.0
 10
2413.6328125
 20
-0.0
 10
2403.78125
 20
-0.0
 10
2393.9296875
 20
-0.0
 10
2384.078125
 20
-0.0
 10
2374.2265625
 20
-0.0
 10
2364.375
 20
-0.0
 10
2354.5234375
 20
-0.0
 10
2344.671875
 20
-0.0
 10
2334.8203125
 20
-0.0
 10
2324.96875
 20
-0.0
 10
2315.1171875
 20
-0.0
 10
2305.265625
 20
-0.0
 10
2295.4140625
 20
-0.0
 10
2285.5625
 20
-0.0
 10
2275.7109375
 20
-0.0
 10
2265.859375
 20
-0.0
 10
2256.0078125
 20
-0.0
 10
2246.15625
 20
-0.0
 10
2236.3046875
 20
-0.0
 10
2226.453125
 20
-0.0
 10
2216.6015625
 20
-0.0
 10
2206.75
 20
-0.0
 10
2196.8984375
 20
-0.0
 10
2187.046875
 20
-0.0
 10
2177.1953125
 20
-0.0
 10
2167.34375
 20
-0.0
 10
2157.4921875
 20
-0.0
 10
2147.640625
 20
-0.0
 10
2137.7890625
 20
-0.0
 10
2127.9375
 20
-0.0
 10
2118.0859375
 20
-0.0
 10
2108.234375
 20
-0.0
 10
2098.3828125
 20
-0.0
 10
2088.53125
 20
-0.0
 10
2078.6796875
 20
-0.0
 10
2068.828125
 20
-0.0
 10
2058.9765625
 20
-0.0
 10
2049.125
 20
-0.0
 10
2039.2734375
 20
-0.0
 10
2029.421875
 20
-0.0
 10
2019.5703125
 20
-0.0
 10
2009.71875
 20
-0.0
 10
1999.8671875
 20
-0.0
 10
1990.015625
 20
-0.0
 10
1980.1640625
 20
-0.0
 10
1970.3125
 20
-0.0
 10
1960.4609375
 20
-0.0
 10
1950.609375
 20
-0.0
 10
1940.7578125
 20
-0.0
 10
1930.90625
 20
-0.0
 10
1921.0546875
 20
-0.0
 10
1911.203125
 20
-0.0
 10
1901.3515625
 20
-0.0
 10
1891.5
 20
-0.0
 10
1881.6484375
 20
-0.0
 10
1871.796875
 20
-0.0
 10
1861.9453125
 20
-0.0
 10
1852.09375
 20
-0.0
 10
1842.2421875
 20
-0.0
 10
1832.390625
 20
-0.0
 10
1822.5390625
 20
-0.0
 10
1812.6875
 20
-0.0
 10
1802.8359375
 20
-0.0
 10
1792.984375
 20
-0.0
 10
1783.1328125
 20
-0.0
 10
1773.28125
 20
-0.0
 10
1763.4296875
 20
-0.0
 10
1753.578125
 20
-0.0
 10
1743.7265625
 20
-0.0
 10
1733.875
 20
-0.0
 10
1724.0234375
 20
-0.0
 10
1714.171875
 20
-0.0
 10
1704.3203125
 20
-0.0
 10
1694.46875
 20
-0.0
 10
1684.6171875
 20
-0.0
 10
1674.765625
 20
-0.0
 10
1664.9140625
 20
-0.0
 10
1655.0625
 20
-0.0
 10
1645.2109375
 20
-0.0
 10
1635.359375
 20
-0.0
 10
1625.5078125
 20
-0.0
 10
1615.65625
 20
-0.0
 10
1605.8046875
 20
-0.0
 10
1595.953125
 20
-0.0
 10
1586.1015625
 20
-0.0
 10
1576.25
 20
-0.0
 10
1566.3984375
 20
-0.0
 10
1556.546875
 20
-0.0
 10
1546.6953125
 20
-0.0
 10
1536.84375
 20
-0.0
 10
1526.9921875
 20
-0.0
 10
1517.140625
 20
-0.0
 10
1507.2890625
 20
-0.0
 10
1497.4375
 20
-0.0
 10
1487.5859375
 20
-0.0
 10
1477.734375
 20
-0.0
 10
1467.8828125
 20
-0.0
 10
1458.03125
 20
-0.0
 10
1448.1796875
 20
-0.0
 10
1438.328125
 20
-0.0
 10
1428.4765625
 20
-0.0
 10
1418.625
 20
-0.0
 10
1408.7734375
 20
-0.0
 10
1398.921875
 20
-0.0
 10
1389.0703125
 20
-0.0
 10
1379.21875
 20
-0.0
 10
1369.3671875
 20
-0.0
 10
1359.515625
 20
-0.0
 10
1349.6640625
 20
-0.0
 10
1339.8125
 20
-0.0
 10
1329.9609375
 20
-0.0
 10
1320.109375
 20
-0.0
 10
1310.2578125
 20
-0.0
 10
1300.40625
 20
-0.0
 10
1290.5546875
 20
-0.0
 10
1280.703125
 20
-0.0
 10
1270.8515625
 20
-0.0
 10
1261.0
 20
-0.0
 10
1251.1484375
 20
-0.0
 10
1241.296875
 20
-0.0
 10
1231.4453125
 20
-0.0
 10
1221.59375
 20
-0.0
 10
1211.7421875
 20
-0.0
 10
1201.890625
 20
-0.0
 10
1192.0390625
 20
-0.0
 10
1182.1875
 20
-0.0
 10
1172.3359375
 20
-0.0
 10
1162.484375
 20
-0.0
 10
1152.6328125
 20
-0.0
 10
1142.78125
 20
-0.0
 10
1132.9296875
 20
-0.0
 10
1123.078125
 20
-0.0
 10
1113.2265625
 20
-0.0
 10
1103.375
 20
-0.0
 10
1093.5234375
 20
-0.0
 10
1083.671875
 20
-0.0
 10
1073.8203125
 20
-0.0
 10
1063.96875
 20
-0.0
 10
1054.1171875
 20
-0.0
 10
1044.265625
 20
-0.0
 10
1034.4140625
 20
-0.0
 10
1024.5625
 20
-0.0
 10
1014.7109375
 20
-0.0
 10
1004.859375
 20
-0.0
 10
995.0078125
 20
-0.0
 10
985.15625
 20
-0.0
 10
975.3046875
 20
-0.0
 10
965.453125
 20
-0.0
 10
955.6015625
 20
-0.0
 10
945.75
 20
-0.0
 10
935.8984375
 20
-0.0
 10
926.046875
 20
-0.0
 10
916.1953125
 20
-0.0
 10
906.34375
 20
-0.0
 10
896.4921875
 20
-0.0
 10
886.640625
 20
-0.0
 10
876.7890625
 20
-0.0
 10
866.9375
 20
-0.0
 10
857.0859375
 20
-0.0
 10
847.234375
 20
-0.0
 10
837.3828125
 20
-0.0
 10
827.53125
 20
-0.0
 10
817.6796875
 20
-0.0
 10
807.828125
 20
-0.0
 10
797.9765625
 20
-0.0
 10
788.125
 20
-0.0
 10
778.2734375
 20
-0.0
 10
768.421875
 20
-0.0
 10
758.5703125
 20
-0.0
 10
748.71875
 20
-0.0
 10
738.8671875
 20
-0.0
 10
729.015625
 20
-0.0
 10
719.1640625
 20
-0.0
 10
709.3125
 20
-0.0
 10
699.4609375
 20
-0.0
 10
689.609375
 20
-0.0
 10
679.7578125
 20
-0.0
 10
669.90625
 20
-0.0
 10
660.0546875
 20
-0.0
 10
650.203125
 20
-0.0
 10
640.3515625
 20
-0.0
 10
630.5
 20
-0.0
 10
620.6484375
 20
-0.0
 10
610.796875
 20
-0.0
 10
600.9453125
 20
-0.0
 10
591.09375
 20
-0.0
 10
581.2421875
 20
-0.0
 10
571.390625
 20
-0.0
 10
561.5390625
 20
-0.0
 10
551.6875
 20
-0.0
 10
541.8359375
 20
-0.0
 10
531.984375
 20
-0.0
 10
522.1328125
 20
-0.0
 10
512.28125
 20
-0.0
 10
502.4296875
 20
-0.0
 10
492.578125
 20
-0.0
 10
482.7265625
 20
-0.0
 10
472.875
 20
-0.0
 10
463.0234375
 20
-0.0
 10
453.171875
 20
-0.0
 10
443.3203125
 20
-0.0
 10
433.46875
 20
-0.0
 10
423.6171875
 20
-0.0
 10
413.765625
 20
-0.0
 10
403.9140625
 20
-0.0
 10
394.0625
 20
-0.0
 10
384.2109375
 20
-0.0
 10
374.359375
 20
-0.0
 10
364.5078125
 20
-0.0
 10
354.65625
 20
-0.0
 10
344.8046875
 20
-0.0
 10
334.953125
 20
-0.0
 10
325.1015625
 20
-0.0
 10
315.25
 20
-0.0
 10
305.3984375
 20
-0.0
 10
295.546875
 20
-0.0
 10
285.6953125
 20
-0.0
 10
275.84375
 20
-0.0
 10
265.9921875
 20
-0.0
 10
256.140625
 20
-0.0
 10
246.2890625
 20
-0.0
 10
236.4375
 20
-0.0
 10
226.5859375
 20
-0.0
 10
216.734375
 20
-0.0
 10
206.8828125
 20
-0.0
 10
197.03125
 20
-0.0
 10
187.1796875
 20
-0.0
 10
177.328125
 20
-0.0
 10
167.4765625
 20
-0.0
 10
157.625
 20
-0.0
 10
147.7734375
 20
-0.0
 10
137.921875
 20
-0.0
 10
128.0703125
 20
-0.0
 10
118.21875
 20
-0.0
 10
108.3671875
 20
-0.0
 10
98.515625
 20
-0.0
 10
88.6640625
 20
-0.0
 10
78.8125
 20
-0.0
 10
68.9609375
 20
-0.0
 10
59.109375
 20
-0.0
 10
49.2578125
 20
-0.0
 10
39.40625
 20
-0.0
 10
29.5546875
 20
-0.0
 10
19.703125
 20
-0.0
 10
9.8515625
 20
-0.0
  0
LWPOLYLINE
  5
3B
330
17
100
AcDbEntity
  8
substrate
100
AcDbPolyline
 90
4
 70
1
 43
0.5
 10
4354.390625
 20
-2975.171875
 10
4364.2421875
 20
-2965.3203125
 10
4374.09375
 20
-2975.171875
 10
4364.2421875
 20
-2985.0234375
  0
LWPOLYLINE
  5
3C
330
17
100
AcDbEntity
  8
substrate
100
AcDbPolyline
 90
4
 70
1
 43
0.5
 10
4669.640625
 20
-2916.0625
 10
4679.4921875
 20
-2906.2109375
 10
4689.34375
 20
-2916.0625
 10
4679.4921875
 20
-2925.9140625
  0
LWPOLYLINE
  5
3D
330
17
100
AcDbEntity
  8
substrate
100
AcDbPolyline
 90
1325
 70
1
 43
0.5
 10
1911.203125
 20
-876.7890625
 10
1921.0546875
 20
-866.9375
 10
1930.90625
 20
-866.9375
 10
1940.7578125
 20
-866.9375
 10
1950.609375
 20
-866.9375
 10
1960.4609375
 20
-866.9375
 10
1970.3125
 20
-866.9375
 10
1980.1640625
 20
-866.9375
 10
1990.015625
 20
-866.9375
 10
1999.8671875
 20
-866.9375
 10
2009.71875
 20
-866.9375
 10
2019.5703125
 20
-866.9375
 10
2029.421875
 20
-866.9375
 10
2039.2734375
 20
-866.9375
 10
2049.125
 20
-866.9375
 10
2058.9765625
 20
-866.9375
 10
2068.828125
 20
-866.9375
 10
2078.6796875
 20
-866.9375
 10
2088.53125
 20
-866.9375
 10
2098.3828125
 20
-866.9375
 10
2108.234375
 20
-876.7890625
 10
2118.0859375
 20
-866.9375
 10
2127.9375
 20
-866.9375
 10
2137.7890625
 20
-866.9375
 10
2147.640625
 20
-866.9375
 10
2157.4921875
 20
-866.9375
 10
2167.34375
 20
-866.9375
 10
2177.1953125
 20
-866.9375
 10
2187.046875
 20
-866.9375
 10
2196.8984375
 20
-866.9375
 10
2206.75
 20
-866.9375
 10
2216.6015625
 20
-866.9375
 10
2226.453125
 20
-876.7890625
 10
2236.3046875
 20
-876.7890625
 10
2246.15625
 20
-866.9375
 10
2256.0078125
 20
-866.9375
 10
2265.859375
 20
-876.7890625
 10
2275.7109375
 20
-866.9375
 10
2285.5625
 20
-876.7890625
 10
2295.4140625
 20
-866.9375
 10
2305.265625
 20
-876.7890625
 10
2315.1171875
 20
-876.7890625
 10
2324.96875
 20
-866.9375
 10
2334.8203125
 20
-866.9375
 10
2344.671875
 20
-866.9375
 10
2354.5234375
 20
-866.9375
 10
2364.375
 20
-866.9375
 10
2374.2265625
 20
-866.9375
 10
2384.078125
 20
-866.9375
 10
2393.9296875
 20
-866.9375
 10
2403.78125
 20
-866.9375
 10
2413.6328125
 20
-866.9375
 10
2423.484375
 20
-866.9375
 10
2433.3359375
 20
-866.9375
 10
2443.1875
 20
-866.9375
 10
2453.0390625
 20
-866.9375
 10
2462.890625
 20
-876.7890625
 10
2472.7421875
 20
-866.9375
 10
2482.59375
 20
-866.9375
 10
2492.4453125
 20
-866.9375
 10
2502.296875
 20
-866.9375
 10
2512.1484375
 20
-866.9375
 10
2522.0
 20
-866.9375
 10
2531.8515625
 20
-866.9375
 10
2541.703125
 20
-866.9375
 10
2551.5546875
 20
-876.7890625
 10
2561.40625
 20
-866.9375
 10
2571.2578125
 20
-866.9375
 10
2581.109375
 20
-866.9375
 10
2590.9609375
 20
-866.9375
 10
2600.8125
 20
-866.9375
 10
2610.6640625
 20
-866.9375
 10
2620.515625
 20
-866.9375
 10
2630.3671875
 20
-866.9375
 10
2640.21875
 20
-866.9375
 10
2650.0703125
 20
-866.9375
 10
2659.921875
 20
-866.9375
 10
2669.7734375
 20
-866.9375
 10
2679.625
 20
-866.9375
 10
2689.4765625
 20
-866.9375
 10
2699.328125
 20
-866.9375
 10
2709.1796875
 20
-866.9375
 10
2719.03125
 20
-866.9375
 10
2728.8828125
 20
-866.9375
 10
2738.734375
 20
-866.9375
 10
2748.5859375
 20
-866.9375
 10
2758.4375
 20
-866.9375
 10
2768.2890625
 20
-866.9375
 10
2778.140625
 20
-866.9375
 10
2787.9921875
 20
-866.9375
 10
2797.84375
 20
-866.9375
 10
2807.6953125
 20
-866.9375
 10
2817.546875
 20
-866.9375
 10
2827.3984375
 20
-866.9375
 10
2837.25
 20
-866.9375
 10
2847.1015625
 20
-866.9375
 10
2856.953125
 20
-866.9375
 10
2866.8046875
 20
-866.9375
 10
2876.65625
 20
-866.9375
 10
2886.5078125
 20
-866.9375
 10
2896.359375
 20
-866.9375
 10
2906.2109375
 20
-866.9375
 10
2916.0625
 20
-866.9375
 10
2925.9140625
 20
-866.9375
 10
2935.765625
 20
-866.9375
 10
2945.6171875
 20
-866.9375
 10
2955.46875
 20
-866.9375
 10
2965.3203125
 20
-866.9375
 10
2975.171875
 20
-866.9375
 10
2985.0234375
 20
-866.9375
 10
2994.875
 20
-866.9375
 10
3004.7265625
 20
-866.9375
 10
3014.578125
 20
-866.9375
 10
3024.4296875
 20
-866.9375
 10
3034.28125
 20
-866.9375
 10
3044.1328125
 20
-866.9375
 10
3053.984375
 20
-866.9375
 10
3063.8359375
 20
-866.9375
 10
3073.6875
 20
-866.9375
 10
3083.5390625
 20
-866.9375
 10
3093.390625
 20
-866.9375
 10
3103.2421875
 20
-866.9375
 10
3113.09375
 20
-876.7890625
 10
3122.9453125
 20
-886.640625
 10
3132.796875
 20
-896.4921875
 10
3132.796875
 20
-906.34375
 10
3132.796875
 20
-916.1953125
 10
3132.796875
 20
-926.046875
 10
3132.796875
 20
-935.8984375
 10
3132.796875
 20
-945.75
 10
3132.796875
 20
-955.6015625
 10
3132.796875
 20
-965.453125
 10
3132.796875
 20
-975.3046875
 10
3132.796875
 20
-985.15625
 10
3132.796875
 20
-995.0078125
 10
3132.796875
 20
-1004.859375
 10
3132.796875
 20
-1014.7109375
 10
3132.796875
 20
-1024.5625
 10
3132.796875
 20
-1034.4140625
 10
3132.796875
 20
-1044.265625
 10
3132.796875
 20
-1054.1171875
 10
3132.796875
 20
-1063.96875
 10
3132.796875
 20
-1073.8203125
 10
3132.796875
 20
-1083.671875
 10
3132.796875
 20
-1093.5234375
 10
3132.796875
 20
-1103.375
 10
3132.796875
 20
-1113.2265625
 10
3132.796875
 20
-1123.078125
 10
3132.796875
 20
-1132.9296875
 10
3132.796875
 20
-1142.78125
 10
3132.796875
 20
-1152.6328125
 10
3132.796875
 20
-1162.484375
 10
3132.796875
 20
-1172.3359375
 10
3132.796875
 20
-1182.1875
 10
3132.796875
 20
-1192.0390625
 10
3132.796875
 20
-1201.890625
 10
3132.796875
 20
-1211.7421875
 10
3132.796875
 20
-1221.59375
 10
3132.796875
 20
-1231.4453125
 10
3132.796875
 20
-1241.296875
 10
3132.796875
 20
-1251.1484375
 10
3132.796875
 20
-1261.0
 10
3132.796875
 20
-1270.8515625
 10
3122.9453125
 20
-1280.703125
 10
3132.796875
 20
-1290.5546875
 10
3132.796875
 20
-1300.40625
 10
3132.796875
 20
-1310.2578125
 10
3132.796875
 20
-1320.109375
 10
3132.796875
 20
-1329.9609375
 10
3132.796875
 20
-1339.8125
 10
3132.796875
 20
-1349.6640625
 10
3122.9453125
 20
-1359.515625
 10
3132.796875
 20
-1369.3671875
 10
3132.796875
 20
-1379.21875
 10
3132.796875
 20
-1389.0703125
 10
3132.796875
 20
-1398.921875
 10
3132.796875
 20
-1408.7734375
 10
3132.796875
 20
-1418.625
 10
3132.796875
 20
-1428.4765625
 10
3132.796875
 20
-1438.328125
 10
3132.796875
 20
-1448.1796875
 10
3132.796875
 20
-1458.03125
 10
3132.796875
 20
-1467.8828125
 10
3132.796875
 20
-1477.734375
 10
3132.796875
 20
-1487.5859375
 10
3132.796875
 20
-1497.4375
 10
3132.796875
 20
-1507.2890625
 10
3122.9453125
 20
-1517.140625
 10
3132.796875
 20
-1526.9921875
 10
3132.796875
 20
-1536.84375
 10
3132.796875
 20
-1546.6953125
 10
3132.796875
 20
-1556.546875
 10
3132.796875
 20
-1566.3984375
 10
3132.796875
 20
-1576.25
 10
3132.796875
 20
-1586.1015625
 10
3132.796875
 20
-1595.953125
 10
3132.796875
 20
-1605.8046875
 10
3132.796875
 20
-1615.65625
 10
3132.796875
 20
-1625.5078125
 10
3132.796875
 20
-1635.359375
 10
3132.796875
 20
-1645.2109375
 10
3132.796875
 20
-1655.0625
 10
3132.796875
 20
-1664.9140625
 10
3132.796875
 20
-1674.765625
 10
3132.796875
 20
-1684.6171875
 10
3132.796875
 20
-1694.46875
 10
3132.796875
 20
-1704.3203125
 10
3132.796875
 20
-1714.171875
 10
3132.796875
 20
-1724.0234375
 10
3132.796875
 20
-1733.875
 10
3132.796875
 20
-1743.7265625
 10
3122.9453125
 20
-1753.578125
 10
3132.796875
 20
-1763.4296875
 10
3132.796875
 20
-1773.28125
 10
3132.796875
 20
-1783.1328125
 10
3132.796875
 20
-1792.984375
 10
3132.796875
 20
-1802.8359375
 10
3122.9453125
 20
-1812.6875
 10
3132.796875
 20
-1822.5390625
 10
3122.9453125
 20
-1832.390625
 10
3132.796875
 20
-1842.2421875
 10
3122.9453125
 20
-1852.09375
 10
3132.796875
 20
-1861.9453125
 10
3132.796875
 20
-1871.796875
 10
3132.796875
 20
-1881.6484375
 10
3132.796875
 20
-1891.5
 10
3132.796875
 20
-1901.3515625
 10
3142.6484375
 20
-1901.3515625
 10
3152.5
 20
-1911.203125
 10
3162.3515625
 20
-1911.203125
 10
3172.203125
 20
-1901.3515625
 10
3182.0546875
 20
-1901.3515625
 10
3191.90625
 20
-1901.3515625
 10
3201.7578125
 20
-1901.3515625
 10
3211.609375
 20
-1901.3515625
 10
3221.4609375
 20
-1901.3515625
 10
3231.3125
 20
-1901.3515625
 10
3241.1640625
 20
-1911.203125
 10
3251.015625
 20
-1901.3515625
 10
3260.8671875
 20
-1911.203125
 10
3270.71875
 20
-1911.203125
 10
3280.5703125
 20
-1911.203125
 10
3290.421875
 20
-1911.203125
 10
3300.2734375
 20
-1911.203125
 10
3310.125
 20
-1911.203125
 10
3319.9765625
 20
-1911.203125
 10
3329.828125
 20
-1911.203125
 10
3339.6796875
 20
-1911.203125
 10
3349.53125
 20
-1911.203125
 10
3359.3828125
 20
-1911.203125
 10
3369.234375
 20
-1911.203125
 10
3379.0859375
 20
-1911.203125
 10
3388.9375
 20
-1911.203125
 10
3398.7890625
 20
-1911.203125
 10
3408.640625
 20
-1901.3515625
 10
3418.4921875
 20
-1911.203125
 10
3428.34375
 20
-1901.3515625
 10
3438.1953125
 20
-1911.203125
 10
3448.046875
 20
-1901.3515625
 10
3457.8984375
 20
-1911.203125
 10
3467.75
 20
-1901.3515625
 10
3477.6015625
 20
-1901.3515625
 10
3487.453125
 20
-1901.3515625
 10
3497.3046875
 20
-1911.203125
 10
3507.15625
 20
-1901.3515625
 10
3517.0078125
 20
-1901.3515625
 10
3526.859375
 20
-1901.3515625
 10
3536.7109375
 20
-1911.203125
 10
3546.5625
 20
-1901.3515625
 10
3556.4140625
 20
-1901.3515625
 10
3566.265625
 20
-1901.3515625
 10
3576.1171875
 20
-1901.3515625
 10
3585.96875
 20
-1901.3515625
 10
3595.8203125
 20
-1901.3515625
 10
3605.671875
 20
-1901.3515625
 10
3615.5234375
 20
-1901.3515625
 10
3625.375
 20
-1901.3515625
 10
3635.2265625
 20
-1901.3515625
 10
3645.078125
 20
-1901.3515625
 10
3654.9296875
 20
-1901.3515625
 10
3664.78125
 20
-1901.3515625
 10
3674.6328125
 20
-1901.3515625
 10
3684.484375
 20
-1901.3515625
 10
3694.3359375
 20
-1901.3515625
 10
3704.1875
 20
-1901.3515625
 10
3714.0390625
 20
-1901.3515625
 10
3723.890625
 20
-1901.3515625
 10
3733.7421875
 20
-1901.3515625
 10
3743.59375
 20
-1901.3515625
 10
3753.4453125
 20
-1901.3515625
 10
3763.296875
 20
-1901.3515625
 10
3773.1484375
 20
-1901.3515625
 10
3783.0
 20
-1901.3515625
 10
3792.8515625
 20
-1901.3515625
 10
3802.703125
 20
-1901.3515625
 10
3812.5546875
 20
-1901.3515625
 10
3822.40625
 20
-1901.3515625
 10
3832.2578125
 20
-1901.3515625
 10
3842.109375
 20
-1901.3515625
 10
3851.9609375
 20
-1901.3515625
 10
3861.8125
 20
-1901.3515625
 10
3871.6640625
 20
-1901.3515625
 10
3881.515625
 20
-1901.3515625
 10
3891.3671875
 20
-1901.3515625
 10
3901.21875
 20
-1901.3515625
 10
3911.0703125
 20
-1901.3515625
 10
3920.921875
 20
-1901.3515625
 10
3930.7734375
 20
-1901.3515625
 10
3940.625
 20
-1901.3515625
 10
3950.4765625
 20
-1901.3515625
 10
3960.328125
 20
-1901.3515625
 10
3970.1796875
 20
-1901.3515625
 10
3980.03125
 20
-1901.3515625
 10
3989.8828125
 20
-1901.3515625
 10
3999.734375
 20
-1901.3515625
 10
4009.5859375
 20
-1901.3515625
 10
4019.4375
 20
-1901.3515625
 10
4029.2890625
 20
-1901.3515625
 10
4039.140625
 20
-1901.3515625
 10
4048.9921875
 20
-1901.3515625
 10
4058.84375
 20
-1901.3515625
 10
4068.6953125
 20
-1901.3515625
 10
4078.546875
 20
-1901.3515625
 10
4088.3984375
 20
-1901.3515625
 10
4098.25
 20
-1901.3515625
 10
4108.1015625
 20
-1901.3515625
 10
4117.953125
 20
-1901.3515625
 10
4127.8046875
 20
-1901.3515625
 10
4137.65625
 20
-1901.3515625
 10
4147.5078125
 20
-1901.3515625
 10
4157.359375
 20
-1901.3515625
 10
4167.2109375
 20
-1911.203125
 10
4167.2109375
 20
-1921.0546875
 10
4157.359375
 20
-1930.90625
 10
4167.2109375
 20
-1940.7578125
 10
4167.2109375
 20
-1950.609375
 10
4167.2109375
 20
-1960.4609375
 10
4167.2109375
 20
-1970.3125
 10
4167.2109375
 20
-1980.1640625
 10
4167.2109375
 20
-1990.015625
 10
4157.359375
 20
-1999.8671875
 10
4157.359375
 20
-2009.71875
 10
4157.359375
 20
-2019.5703125
 10
4167.2109375
 20
-2029.421875
 10
4157.359375
 20
-2039.2734375
 10
4157.359375
 20
-2049.125
 10
4157.359375
 20
-2058.9765625
 10
4167.2109375
 20
-2068.828125
 10
4157.359375
 20
-2078.6796875
 10
4157.359375
 20
-2088.53125
 10
4157.359375
 20
-2098.3828125
 10
4167.2109375
 20
-2108.234375
 10
4167.2109375
 20
-2118.0859375
 10
4167.2109375
 20
-2127.9375
 10
4167.2109375
 20
-2137.7890625
 10
4167.2109375
 20
-2147.640625
 10
4167.2109375
 20
-2157.4921875
 10
4167.2109375
 20
-2167.34375
 10
4157.359375
 20
-2177.1953125
 10
4167.2109375
 20
-2187.046875
 10
4167.2109375
 20
-2196.8984375
 10
4167.2109375
 20
-2206.75
 10
4167.2109375
 20
-2216.6015625
 10
4167.2109375
 20
-2226.453125
 10
4167.2109375
 20
-2236.3046875
 10
4167.2109375
 20
-2246.15625
 10
4167.2109375
 20
-2256.0078125
 10
4167.2109375
 20
-2265.859375
 10
4167.2109375
 20
-2275.7109375
 10
4167.2109375
 20
-2285.5625
 10
4167.2109375
 20
-2295.4140625
 10
4167.2109375
 20
-2305.265625
 10
4167.2109375
 20
-2315.1171875
 10
4157.359375
 20
-2324.96875
 10
4157.359375
 20
-2334.8203125
 10
4167.2109375
 20
-2344.671875
 10
4167.2109375
 20
-2354.5234375
 10
4167.2109375
 20
-2364.375
 10
4157.359375
 20
-2374.2265625
 10
4167.2109375
 20
-2384.078125
 10
4167.2109375
 20
-2393.9296875
 10
4167.2109375
 20
-2403.78125
 10
4157.359375
 20
-2413.6328125
 10
4167.2109375
 20
-2423.484375
 10
4167.2109375
 20
-2433.3359375
 10
4157.359375
 20
-2443.1875
 10
4157.359375
 20
-2453.0390625
 10
4167.2109375
 20
-2462.890625
 10
4167.2109375
 20
-2472.7421875
 10
4167.2109375
 20
-2482.59375
 10
4157.359375
 20
-2492.4453125
 10
4167.2109375
 20
-2502.296875
 10
4167.2109375
 20
-2512.1484375
 10
4167.2109375
 20
-2522.0
 10
4157.359375
 20
-2531.8515625
 10
4167.2109375
 20
-2541.703125
 10
4167.2109375
 20
-2551.5546875
 10
4167.2109375
 20
-2561.40625
 10
4167.2109375
 20
-2571.2578125
 10
4167.2109375
 20
-2581.109375
 10
4167.2109375
 20
-2590.9609375
 10
4157.359375
 20
-2600.8125
 10
4167.2109375
 20
-2610.6640625
 10
4167.2109375
 20
-2620.515625
 10
4167.2109375
 20
-2630.3671875
 10
4157.359375
 20
-2640.21875
 10
4167.2109375
 20
-2650.0703125
 10
4167.2109375
 20
-2659.921875
 10
4167.2109375
 20
-2669.7734375
 10
4167.2109375
 20
-2679.625
 10
4167.2109375
 20
-2689.4765625
 10
4167.2109375
 20
-2699.328125
 10
4167.2109375
 20
-2709.1796875
 10
4167.2109375
 20
-2719.03125
 10
4157.359375
 20
-2728.8828125
 10
4167.2109375
 20
-2738.734375
 10
4167.2109375
 20
-2748.5859375
 10
4167.2109375
 20
-2758.4375
 10
4167.2109375
 20
-2768.2890625
 10
4167.2109375
 20
-2778.140625
 10
4167.2109375
 20
-2787.9921875
 10
4167.2109375
 20
-2797.84375
 10
4157.359375
 20
-2807.6953125
 10
4167.2109375
 20
-2817.546875
 10
4167.2109375
 20
-2827.3984375
 10
4167.2109375
 20
-2837.25
 10
4157.359375
 20
-2847.1015625
 10
4167.2109375
 20
-2856.953125
 10
4167.2109375
 20
-2866.8046875
 10
4167.2109375
 20
-2876.65625
 10
4167.2109375
 20
-2886.5078125
 10
4167.2109375
 20
-2896.359375
 10
4167.2109375
 20
-2906.2109375
 10
4167.2109375
 20
-2916.0625
 10
4167.2109375
 20
-2925.9140625
 10
4167.2109375
 20
-2935.765625
 10
4167.2109375
 20
-2945.6171875
 10
4157.359375
 20
-2955.46875
 10
4157.359375
 20
-2965.3203125
 10
4167.2109375
 20
-2975.171875
 10
4167.2109375
 20
-2985.0234375
 10
4167.2109375
 20
-2994.875
 10
4157.359375
 20
-3004.7265625
 10
4167.2109375
 20
-3014.578125
 10
4167.2109375
 20
-3024.4296875
 10
4157.359375
 20
-3034.28125
 10
4157.359375
 20
-3044.1328125
 10
4167.2109375
 20
-3053.984375
 10
4167.2109375
 20
-3063.8359375
 10
4157.359375
 20
-3073.6875
 10
4157.359375
 20
-3083.5390625
 10
4167.2109375
 20
-3093.390625
 10
4167.2109375
 20
-3103.2421875
 10
4167.2109375
 20
-3113.09375
 10
4157.359375
 20
-3122.9453125
 10
4147.5078125
 20
-3132.796875
 10
4137.65625
 20
-3132.796875
 10
4127.8046875
 20
-3132.796875
 10
4117.953125
 20
-3132.796875
 10
4108.1015625
 20
-3132.796875
 10
4098.25
 20
-3132.796875
 10
4088.3984375
 20
-3132.796875
 10
4078.546875
 20
-3132.796875
 10
4068.6953125
 20
-3132.796875
 10
4058.84375
 20
-3132.796875
 10
4048.9921875
 20
-3132.796875
 10
4039.140625
 20
-3132.796875
 10
4029.2890625
 20
-3132.796875
 10
4019.4375
 20
-3132.796875
 10
4009.5859375
 20
-3132.796875
 10
3999.734375
 20
-3132.796875
 10
3989.8828125
 20
-3132.796875
 10
3980.03125
 20
-3132.796875
 10
3970.1796875
 20
-3132.796875
 10
3960.328125
 20
-3132.796875
 10
3950.4765625
 20
-3132.796875
 10
3940.625
 20
-3132.796875
 10
3930.7734375
 20
-3132.796875
 10
3920.921875
 20
-3132.796875
 10
3911.0703125
 20
-3132.796875
 10
3901.21875
 20
-3132.796875
 10
3891.3671875
 20
-3132.796875
 10
3881.515625
 20
-3132.796875
 10
3871.6640625
 20
-3132.796875
 10
3861.8125
 20
-3132.796875
 10
3851.9609375
 20
-3132.796875
 10
3842.109375
 20
-3132.796875
 10
3832.2578125
 20
-3132.796875
 10
3822.40625
 20
-3132.796875
 10
3812.5546875
 20
-3132.796875
 10
3802.703125
 20
-3132.796875
 10
3792.8515625
 20
-3132.796875
 10
3783.0
 20
-3132.796875
 10
3773.1484375
 20
-3132.796875
 10
3763.296875
 20
-3132.796875
 10
3753.4453125
 20
-3132.796875
 10
3743.59375
 20
-3132.796875
 10
3733.7421875
 20
-3132.796875
 10
3723.890625
 20
-3132.796875
 10
3714.0390625
 20
-3132.796875
 10
3704.1875
 20
-3132.796875
 10
3694.3359375
 20
-3132.796875
 10
3684.484375
 20
-3132.796875
 10
3674.6328125
 20
-3132.796875
 10
3664.78125
 20
-3132.796875
 10
3654.9296875
 20
-3132.796875
 10
3645.078125
 20
-3132.796875
 10
3635.2265625
 20
-3132.796875
 10
3625.375
 20
-3132.796875
 10
3615.5234375
 20
-3132.796875
 10
3605.671875
 20
-3132.796875
 10
3595.8203125
 20
-3132.796875
 10
3585.96875
 20
-3132.796875
 10
3576.1171875
 20
-3132.796875
 10
3566.265625
 20
-3132.796875
 10
3556.4140625
 20
-3132.796875
 10
3546.5625
 20
-3132.796875
 10
3536.7109375
 20
-3132.796875
 10
3526.859375
 20
-3132.796875
 10
3517.0078125
 20
-3132.796875
 10
3507.15625
 20
-3132.796875
 10
3497.3046875
 20
-3132.796875
 10
3487.453125
 20
-3132.796875
 10
3477.6015625
 20
-3132.796875
 10
3467.75
 20
-3132.796875
 10
3457.8984375
 20
-3132.796875
 10
3448.046875
 20
-3132.796875
 10
3438.1953125
 20
-3132.796875
 10
3428.34375
 20
-3132.796875
 10
3418.4921875
 20
-3122.9453125
 10
3408.640625
 20
-3122.9453125
 10
3398.7890625
 20
-3132.796875
 10
3388.9375
 20
-3132.796875
 10
3379.0859375
 20
-3132.796875
 10
3369.234375
 20
-3122.9453125
 10
3359.3828125
 20
-3132.796875
 10
3349.53125
 20
-3132.796875
 10
3339.6796875
 20
-3132.796875
 10
3329.828125
 20
-3132.796875
 10
3319.9765625
 20
-3132.796875
 10
3310.125
 20
-3132.796875
 10
3300.2734375
 20
-3132.796875
 10
3290.421875
 20
-3122.9453125
 10
3280.5703125
 20
-3132.796875
 10
3270.71875
 20
-3122.9453125
 10
3260.8671875
 20
-3132.796875
 10
3251.015625
 20
-3122.9453125
 10
3241.1640625
 20
-3132.796875
 10
3231.3125
 20
-3132.796875
 10
3221.4609375
 20
-3132.796875
 10
3211.609375
 20
-3132.796875
 10
3201.7578125
 20
-3132.796875
 10
3191.90625
 20
-3132.796875
 10
3182.0546875
 20
-3132.796875
 10
3172.203125
 20
-3122.9453125
 10
3162.3515625
 20
-3122.9453125
 10
3152.5
 20
-3122.9453125
 10
3142.6484375
 20
-3122.9453125
 10
3132.796875
 20
-3122.9453125
 10
3132.796875
 20
-3132.796875
 10
3132.796875
 20
-3142.6484375
 10
3132.796875
 20
-3152.5
 10
3132.796875
 20
-3162.3515625
 10
3132.796875
 20
-3172.203125
 10
3132.796875
 20
-3182.0546875
 10
3132.796875
 20
-3191.90625
 10
3132.796875
 20
-3201.7578125
 10
3132.796875
 20
-3211.609375
 10
3132.796875
 20
-3221.4609375
 10
3132.796875
 20
-3231.3125
 10
3132.796875
 20
-3241.1640625
 10
3132.796875
 20
-3251.015625
 10
3132.796875
 20
-3260.8671875
 10
3132.796875
 20
-3270.71875
 10
3132.796875
 20
-3280.5703125
 10
3132.796875
 20
-3290.421875
 10
3132.796875
 20
-3300.2734375
 10
3132.796875
 20
-3310.125
 10
3132.796875
 20
-3319.9765625
 10
3132.796875
 20
-3329.828125
 10
3132.796875
 20
-3339.6796875
 10
3132.796875
 20
-3349.53125
 10
3132.796875
 20
-3359.3828125
 10
3132.796875
 20
-3369.234375
 10
3132.796875
 20
-3379.0859375
 10
3132.796875
 20
-3388.9375
 10
3132.796875
 20
-3398.7890625
 10
3132.796875
 20
-3408.640625
 10
3132.796875
 20
-3418.4921875
 10
3132.796875
 20
-3428.34375
 10
3132.796875
 20
-3438.1953125
 10
3132.796875
 20
-3448.046875
 10
3132.796875
 20
-3457.8984375
 10
3132.796875
 20
-3467.75
 10
3132.796875
 20
-3477.6015625
 10
3132.796875
 20
-3487.453125
 10
3132.796875
 20
-3497.3046875
 10
3132.796875
 20
-3507.15625
 10
3132.796875
 20
-3517.0078125
 10
3132.796875
 20
-3526.859375
 10
3132.796875
 20
-3536.7109375
 10
3132.796875
 20
-3546.5625
 10
3132.796875
 20
-3556.4140625
 10
3132.796875
 20
-3566.265625
 10
3132.796875
 20
-3576.1171875
 10
3132.796875
 20
-3585.96875
 10
3132.796875
 20
-3595.8203125
 10
3132.796875
 20
-3605.671875
 10
3132.796875
 20
-3615.5234375
 10
3132.796875
 20
-3625.375
 10
3132.796875
 20
-3635.2265625
 10
3132.796875
 20
-3645.078125
 10
3132.796875
 20
-3654.9296875
 10
3132.796875
 20
-3664.78125
 10
3132.796875
 20
-3674.6328125
 10
3132.796875
 20
-3684.484375
 10
3132.796875
 20
-3694.3359375
 10
3132.796875
 20
-3704.1875
 10
3132.796875
 20
-3714.0390625
 10
3132.796875
 20
-3723.890625
 10
3132.796875
 20
-3733.7421875
 10
3132.796875
 20
-3743.59375
 10
3132.796875
 20
-3753.4453125
 10
3132.796875
 20
-3763.296875
 10
3132.796875
 20
-3773.1484375
 10
3132.796875
 20
-3783.0
 10
3132.796875
 20
-3792.8515625
 10
3132.796875
 20
-3802.703125
 10
3132.796875
 20
-3812.5546875
 10
3132.796875
 20
-3822.40625
 10
3132.796875
 20
-3832.2578125
 10
3122.9453125
 20
-3842.109375
 10
3132.796875
 20
-3851.9609375
 10
3132.796875
 20
-3861.8125
 10
3132.796875
 20
-3871.6640625
 10
3122.9453125
 20
-3881.515625
 10
3132.796875
 20
-3891.3671875
 10
3132.796875
 20
-3901.21875
 10
3132.796875
 20
-3911.0703125
 10
3122.9453125
 20
-3920.921875
 10
3132.796875
 20
-3930.7734375
 10
3122.9453125
 20
-3940.625
 10
3132.796875
 20
-3950.4765625
 10
3122.9453125
 20
-3960.328125
 10
3132.796875
 20
-3970.1796875
 10
3132.796875
 20
-3980.03125
 10
3132.796875
 20
-3989.8828125
 10
3122.9453125
 20
-3999.734375
 10
3132.796875
 20
-4009.5859375
 10
3122.9453125
 20
-4019.4375
 10
3132.796875
 20
-4029.2890625
 10
3122.9453125
 20
-4039.140625
 10
3132.796875
 20
-4048.9921875
 10
3122.9453125
 20
-4058.84375
 10
3132.796875
 20
-4068.6953125
 10
3122.9453125
 20
-4078.546875
 10
3132.796875
 20
-4088.3984375
 10
3122.9453125
 20
-4098.25
 10
3132.796875
 20
-4108.1015625
 10
3132.796875
 20
-4117.953125
 10
3132.796875
 20
-4127.8046875
 10
3132.796875
 20
-4137.65625
 10
3132.796875
 20
-4147.5078125
 10
3122.9453125
 20
-4157.359375
 10
3122.9453125
 20
-4167.2109375
 10
3113.09375
 20
-4177.0625
 10
3103.2421875
 20
-4177.0625
 10
3093.390625
 20
-4167.2109375
 10
3083.5390625
 20
-4167.2109375
 10
3073.6875
 20
-4157.359375
 10
3063.8359375
 20
-4167.2109375
 10
3053.984375
 20
-4167.2109375
 10
3044.1328125
 20
-4167.2109375
 10
3034.28125
 20
-4167.2109375
 10
3024.4296875
 20
-4167.2109375
 10
3014.578125
 20
-4167.2109375
 10
3004.7265625
 20
-4157.359375
 10
2994.875
 20
-4157.359375
 10
2985.0234375
 20
-4167.2109375
 10
2975.171875
 20
-4167.2109375
 10
2965.3203125
 20
-4167.2109375
 10
2955.46875
 20
-4167.2109375
 10
2945.6171875
 20
-4167.2109375
 10
2935.765625
 20
-4167.2109375
 10
2925.9140625
 20
-4167.2109375
 10
2916.0625
 20
-4167.2109375
 10
2906.2109375
 20
-4157.359375
 10
2896.359375
 20
-4167.2109375
 10
2886.5078125
 20
-4167.2109375
 10
2876.65625
 20
-4167.2109375
 10
2866.8046875
 20
-4167.2109375
 10
2856.953125
 20
-4167.2109375
 10
2847.1015625
 20
-4167.2109375
 10
2837.25
 20
-4157.359375
 10
2827.3984375
 20
-4157.359375
 10
2817.546875
 20
-4167.2109375
 10
2807.6953125
 20
-4167.2109375
 10
2797.84375
 20
-4167.2109375
 10
2787.9921875
 20
-4167.2109375
 10
2778.140625
 20
-4167.2109375
 10
2768.2890625
 20
-4157.359375
 10
2758.4375
 20
-4167.2109375
 10
2748.5859375
 20
-4167.2109375
 10
2738.734375
 20
-4167.2109375
 10
2728.8828125
 20
-4157.359375
 10
2719.03125
 20
-4167.2109375
 10
2709.1796875
 20
-4167.2109375
 10
2699.328125
 20
-4167.2109375
 10
2689.4765625
 20
-4157.359375
 10
2679.625
 20
-4157.359375
 10
2669.7734375
 20
-4157.359375
 10
2659.921875
 20
-4157.359375
 10
2650.0703125
 20
-4157.359375
 10
2640.21875
 20
-4157.359375
 10
2630.3671875
 20
-4167.2109375
 10
2620.515625
 20
-4167.2109375
 10
2610.6640625
 20
-4157.359375
 10
2600.8125
 20
-4157.359375
 10
2590.9609375
 20
-4157.359375
 10
2581.109375
 20
-4167.2109375
 10
2571.2578125
 20
-4157.359375
 10
2561.40625
 20
-4167.2109375
 10
2551.5546875
 20
-4167.2109375
 10
2541.703125
 20
-4167.2109375
 10
2531.8515625
 20
-4157.359375
 10
2522.0
 20
-4157.359375
 10
2512.1484375
 20
-4157.359375
 10
2502.296875
 20
-4157.359375
 10
2492.4453125
 20
-4157.359375
 10
2482.59375
 20
-4167.2109375
 10
2472.7421875
 20
-4167.2109375
 10
2462.890625
 20
-4167.2109375
 10
2453.0390625
 20
-4157.359375
 10
2443.1875
 20
-4157.359375
 10
2433.3359375
 20
-4157.359375
 10
2423.484375
 20
-4157.359375
 10
2413.6328125
 20
-4157.359375
 10
2403.78125
 20
-4157.359375
 10
2393.9296875
 20
-4157.359375
 10
2384.078125
 20
-4157.359375
 10
2374.2265625
 20
-4157.359375
 10
2364.375
 20
-4157.359375
 10
2354.5234375
 20
-4157.359375
 10
2344.671875
 20
-4157.359375
 10
2334.8203125
 20
-4157.359375
 10
2324.96875
 20
-4157.359375
 10
2315.1171875
 20
-4157.359375
 10
2305.265625
 20
-4167.2109375
 10
2295.4140625
 20
-4157.359375
 10
2285.5625
 20
-4157.359375
 10
2275.7109375
 20
-4157.359375
 10
2265.859375
 20
-4167.2109375
 10
2256.0078125
 20
-4157.359375
 10
2246.15625
 20
-4157.359375
 10
2236.3046875
 20
-4157.359375
 10
2226.453125
 20
-4167.2109375
 10
2216.6015625
 20
-4157.359375
 10
2206.75
 20
-4157.359375
 10
2196.8984375
 20
-4157.359375
 10
2187.046875
 20
-4157.359375
 10
2177.1953125
 20
-4157.359375
 10
2167.34375
 20
-4157.359375
 10
2157.4921875
 20
-4157.359375
 10
2147.640625
 20
-4167.2109375
 10
2137.7890625
 20
-4167.2109375
 10
2127.9375
 20
-4157.359375
 10
2118.0859375
 20
-4157.359375
 10
2108.234375
 20
-4157.359375
 10
2098.3828125
 20
-4157.359375
 10
2088.53125
 20
-4167.2109375
 10
2078.6796875
 20
-4167.2109375
 10
2068.828125
 20
-4157.359375
 10
2058.9765625
 20
-4157.359375
 10
2049.125
 20
-4157.359375
 10
2039.2734375
 20
-4157.359375
 10
2029.421875
 20
-4157.359375
 10
2019.5703125
 20
-4157.359375
 10
2009.71875
 20
-4157.359375
 10
1999.8671875
 20
-4157.359375
 10
1990.015625
 20
-4147.5078125
 10
1980.1640625
 20
-4157.359375
 10
1970.3125
 20
-4157.359375
 10
1960.4609375
 20
-4157.359375
 10
1950.609375
 20
-4147.5078125
 10
1940.7578125
 20
-4157.359375
 10
1930.90625
 20
-4157.359375
 10
1921.0546875
 20
-4147.5078125
 10
1911.203125
 20
-4137.65625
 10
1901.3515625
 20
-4127.8046875
 10
1901.3515625
 20
-4117.953125
 10
1911.203125
 20
-4108.1015625
 10
1911.203125
 20
-4098.25
 10
1901.3515625
 20
-4088.3984375
 10
1911.203125
 20
-4078.546875
 10
1901.3515625
 20
-4068.6953125
 10
1911.203125
 20
-4058.84375
 10
1901.3515625
 20
-4048.9921875
 10
1911.203125
 20
-4039.140625
 10
1901.3515625
 20
-4029.2890625
 10
1911.203125
 20
-4019.4375
 10
1901.3515625
 20
-4009.5859375
 10
1901.3515625
 20
-3999.734375
 10
1901.3515625
 20
-3989.8828125
 10
1911.203125
 20
-3980.03125
 10
1901.3515625
 20
-3970.1796875
 10
1911.203125
 20
-3960.328125
 10
1901.3515625
 20
-3950.4765625
 10
1911.203125
 20
-3940.625
 10
1911.203125
 20
-3930.7734375
 10
1911.203125
 20
-3920.921875
 10
1901.3515625
 20
-3911.0703125
 10
1911.203125
 20
-3901.21875
 10
1911.203125
 20
-3891.3671875
 10
1911.203125
 20
-3881.515625
 10
1901.3515625
 20
-3871.6640625
 10
1911.203125
 20
-3861.8125
 10
1911.203125
 20
-3851.9609375
 10
1911.203125
 20
-3842.109375
 10
1901.3515625
 20
-3832.2578125
 10
1901.3515625
 20
-3822.40625
 10
1901.3515625
 20
-3812.5546875
 10
1901.3515625
 20
-3802.703125
 10
1901.3515625
 20
-3792.8515625
 10
1901.3515625
 20
-3783.0
 10
1901.3515625
 20
-3773.1484375
 10
1901.3515625
 20
-3763.296875
 10
1901.3515625
 20
-3753.4453125
 10
1901.3515625
 20
-3743.59375
 10
1901.3515625
 20
-3733.7421875
 10
1901.3515625
 20
-3723.890625
 10
1901.3515625
 20
-3714.0390625
 10
1901.3515625
 20
-3704.1875
 10
1901.3515625
 20
-3694.3359375
 10
1901.3515625
 20
-3684.484375
 10
1901.3515625
 20
-3674.6328125
 10
1901.3515625
 20
-3664.78125
 10
1901.3515625
 20
-3654.9296875
 10
1901.3515625
 20
-3645.078125
 10
1901.3515625
 20
-3635.2265625
 10
1901.3515625
 20
-3625.375
 10
1901.3515625
 20
-3615.5234375
 10
1901.3515625
 20
-3605.671875
 10
1901.3515625
 20
-3595.8203125
 10
1901.3515625
 20
-3585.96875
 10
1901.3515625
 20
-3576.1171875
 10
1901.3515625
 20
-3566.265625
 10
1901.3515625
 20
-3556.4140625
 10
1901.3515625
 20
-3546.5625
 10
1901.3515625
 20
-3536.7109375
 10
1901.3515625
 20
-3526.859375
 10
1901.3515625
 20
-3517.0078125
 10
1901.3515625
 20
-3507.15625
 10
1901.3515625
 20
-3497.3046875
 10
1901.3515625
 20
-3487.453125
 10
1901.3515625
 20
-3477.6015625
 10
1901.3515625
 20
-3467.75
 10
1901.3515625
 20
-3457.8984375
 10
1901.3515625
 20
-3448.046875
 10
1901.3515625
 20
-3438.1953125
 10
1901.3515625
 20
-3428.34375
 10
1901.3515625
 20
-3418.4921875
 10
1901.3515625
 20
-3408.640625
 10
1901.3515625
 20
-3398.7890625
 10
1901.3515625
 20
-3388.9375
 10
1901.3515625
 20
-3379.0859375
 10
1901.3515625
 20
-3369.234375
 10
1901.3515625
 20
-3359.3828125
 10
1901.3515625
 20
-3349.53125
 10
1901.3515625
 20
-3339.6796875
 10
1901.3515625
 20
-3329.828125
 10
1901.3515625
 20
-3319.9765625
 10
1901.3515625
 20
-3310.125
 10
1901.3515625
 20
-3300.2734375
 10
1901.3515625
 20
-3290.421875
 10
1901.3515625
 20
-3280.5703125
 10
1901.3515625
 20
-3270.71875
 10
1901.3515625
 20
-3260.8671875
 10
1901.3515625
 20
-3251.015625
 10
1901.3515625
 20
-3241.1640625
 10
1901.3515625
 20
-3231.3125
 10
1901.3515625
 20
-3221.4609375
 10
1901.3515625
 20
-3211.609375
 10
1901.3515625
 20
-3201.7578125
 10
1901.3515625
 20
-3191.90625
 10
1901.3515625
 20
-3182.0546875
 10
1901.3515625
 20
-3172.203125
 10
1901.3515625
 20
-3162.3515625
 10
1901.3515625
 20
-3152.5
 10
1901.3515625
 20
-3142.6484375
 10
1901.3515625
 20
-3132.796875
 10
1891.5
 20
-3122.9453125
 10
1881.6484375
 20
-3122.9453125
 10
1871.796875
 20
-3122.9453125
 10
1861.9453125
 20
-3122.9453125
 10
1852.09375
 20
-3122.9453125
 10
1842.2421875
 20
-3122.9453125
 10
1832.390625
 20
-3122.9453125
 10
1822.5390625
 20
-3122.9453125
 10
1812.6875
 20
-3122.9453125
 10
1802.8359375
 20
-3122.9453125
 10
1792.984375
 20
-3122.9453125
 10
1783.1328125
 20
-3122.9453125
 10
1773.28125
 20
-3122.9453125
 10
1763.4296875
 20
-3122.9453125
 10
1753.578125
 20
-3122.9453125
 10
1743.7265625
 20
-3132.796875
 10
1733.875
 20
-3122.9453125
 10
1724.0234375
 20
-3132.796875
 10
1714.171875
 20
-3122.9453125
 10
1704.3203125
 20
-3132.796875
 10
1694.46875
 20
-3122.9453125
 10
1684.6171875
 20
-3122.9453125
 10
1674.765625
 20
-3122.9453125
 10
1664.9140625
 20
-3122.9453125
 10
1655.0625
 20
-3122.9453125
 10
1645.2109375
 20
-3122.9453125
 10
1635.359375
 20
-3122.9453125
 10
1625.5078125
 20
-3132.796875
 10
1615.65625
 20
-3122.9453125
 10
1605.8046875
 20
-3122.9453125
 10
1595.953125
 20
-3122.9453125
 10
1586.1015625
 20
-3132.796875
 10
1576.25
 20
-3122.9453125
 10
1566.3984375
 20
-3122.9453125
 10
1556.546875
 20
-3122.9453125
 10
1546.6953125
 20
-3132.796875
 10
1536.84375
 20
-3122.9453125
 10
1526.9921875
 20
-3122.9453125
 10
1517.140625
 20
-3132.796875
 10
1507.2890625
 20
-3132.796875
 10
1497.4375
 20
-3122.9453125
 10
1487.5859375
 20
-3122.9453125
 10
1477.734375
 20
-3132.796875
 10
1467.8828125
 20
-3132.796875
 10
1458.03125
 20
-3122.9453125
 10
1448.1796875
 20
-3132.796875
 10
1438.328125
 20
-3132.796875
 10
1428.4765625
 20
-3132.796875
 10
1418.625
 20
-3132.796875
 10
1408.7734375
 20
-3132.796875
 10
1398.921875
 20
-3132.796875
 10
1389.0703125
 20
-3132.796875
 10
1379.21875
 20
-3122.9453125
 10
1369.3671875
 20
-3132.796875
 10
1359.515625
 20
-3132.796875
 10
1349.6640625
 20
-3132.796875
 10
1339.8125
 20
-3132.796875
 10
1329.9609375
 20
-3122.9453125
 10
1320.109375
 20
-3132.796875
 10
1310.2578125
 20
-3132.796875
 10
1300.40625
 20
-3132.796875
 10
1290.5546875
 20
-3132.796875
 10
1280.703125
 20
-3132.796875
 10
1270.8515625
 20
-3132.796875
 10
1261.0
 20
-3132.796875
 10
1251.1484375
 20
-3132.796875
 10
1241.296875
 20
-3132.796875
 10
1231.4453125
 20
-3132.796875
 10
1221.59375
 20
-3132.796875
 10
1211.7421875
 20
-3132.796875
 10
1201.890625
 20
-3132.796875
 10
1192.0390625
 20
-3132.796875
 10
1182.1875
 20
-3132.796875
 10
1172.3359375
 20
-3132.796875
 10
1162.484375
 20
-3132.796875
 10
1152.6328125
 20
-3132.796875
 10
1142.78125
 20
-3132.796875
 10
1132.9296875
 20
-3132.796875
 10
1123.078125
 20
-3132.796875
 10
1113.2265625
 20
-3122.9453125
 10
1103.375
 20
-3122.9453125
 10
1093.5234375
 20
-3132.796875
 10
1083.671875
 20
-3132.796875
 10
1073.8203125
 20
-3132.796875
 10
1063.96875
 20
-3122.9453125
 10
1054.1171875
 20
-3132.796875
 10
1044.265625
 20
-3132.796875
 10
1034.4140625
 20
-3132.796875
 10
1024.5625
 20
-3132.796875
 10
1014.7109375
 20
-3132.796875
 10
1004.859375
 20
-3132.796875
 10
995.0078125
 20
-3132.796875
 10
985.15625
 20
-3132.796875
 10
975.3046875
 20
-3132.796875
 10
965.453125
 20
-3132.796875
 10
955.6015625
 20
-3132.796875
 10
945.75
 20
-3132.796875
 10
935.8984375
 20
-3132.796875
 10
926.046875
 20
-3132.796875
 10
916.1953125
 20
-3132.796875
 10
906.34375
 20
-3132.796875
 10
896.4921875
 20
-3132.796875
 10
886.640625
 20
-3132.796875
 10
876.7890625
 20
-3122.9453125
 10
866.9375
 20
-3113.09375
 10
866.9375
 20
-3103.2421875
 10
866.9375
 20
-3093.390625
 10
866.9375
 20
-3083.5390625
 10
866.9375
 20
-3073.6875
 10
866.9375
 20
-3063.8359375
 10
876.7890625
 20
-3053.984375
 10
866.9375
 20
-3044.1328125
 10
866.9375
 20
-3034.28125
 10
866.9375
 20
-3024.4296875
 10
866.9375
 20
-3014.578125
 10
866.9375
 20
-3004.7265625
 10
866.9375
 20
-2994.875
 10
866.9375
 20
-2985.0234375
 10
866.9375
 20
-2975.171875
 10
866.9375
 20
-2965.3203125
 10
866.9375
 20
-2955.46875
 10
866.9375
 20
-2945.6171875
 10
866.9375
 20
-2935.765625
 10
866.9375
 20
-2925.9140625
 10
866.9375
 20
-2916.0625
 10
866.9375
 20
-2906.2109375
 10
866.9375
 20
-2896.359375
 10
866.9375
 20
-2886.5078125
 10
866.9375
 20
-2876.65625
 10
866.9375
 20
-2866.8046875
 10
866.9375
 20
-2856.953125
 10
866.9375
 20
-2847.1015625
 10
866.9375
 20
-2837.25
 10
866.9375
 20
-2827.3984375
 10
866.9375
 20
-2817.546875
 10
866.9375
 20
-2807.6953125
 10
866.9375
 20
-2797.84375
 10
866.9375
 20
-2787.9921875
 10
866.9375
 20
-2778.140625
 10
866.9375
 20
-2768.2890625
 10
866.9375
 20
-2758.4375
 10
866.9375
 20
-2748.5859375
 10
866.9375
 20
-2738.734375
 10
866.9375
 20
-2728.8828125
 10
866.9375
 20
-2719.03125
 10
866.9375
 20
-2709.1796875
 10
866.9375
 20
-2699.328125
 10
866.9375
 20
-2689.4765625
 10
866.9375
 20
-2679.625
 10
866.9375
 20
-2669.7734375
 10
866.9375
 20
-2659.921875
 10
866.9375
 20
-2650.0703125
 10
866.9375
 20
-2640.21875
 10
866.9375
 20
-2630.3671875
 10
866.9375
 20
-2620.515625
 10
866.9375
 20
-2610.6640625
 10
866.9375
 20
-2600.8125
 10
866.9375
 20
-2590.9609375
 10
866.9375
 20
-2581.109375
 10
866.9375
 20
-2571.2578125
 10
866.9375
 20
-2561.40625
 10
866.9375
 20
-2551.5546875
 10
866.9375
 20
-2541.703125
 10
866.9375
 20
-2531.8515625
 10
866.9375
 20
-2522.0
 10
866.9375
 20
-2512.1484375
 10
866.9375
 20
-2502.296875
 10
866.9375
 20
-2492.4453125
 10
866.9375
 20
-2482.59375
 10
866.9375
 20
-2472.7421875
 10
866.9375
 20
-2462.890625
 10
866.9375
 20
-2453.0390625
 10
866.9375
 20
-2443.1875
 10
866.9375
 20
-2433.3359375
 10
866.9375
 20
-2423.484375
 10
866.9375
 20
-2413.6328125
 10
866.9375
 20
-2403.78125
 10
866.9375
 20
-2393.9296875
 10
866.9375
 20
-2384.078125
 10
866.9375
 20
-2374.2265625
 10
866.9375
 20
-2364.375
 10
866.9375
 20
-2354.5234375
 10
866.9375
 20
-2344.671875
 10
866.9375
 20
-2334.8203125
 10
866.9375
 20
-2324.96875
 10
866.9375
 20
-2315.1171875
 10
866.9375
 20
-2305.265625
 10
866.9375
 20
-2295.4140625
 10
866.9375
 20
-2285.5625
 10
866.9375
 20
-2275.7109375
 10
866.9375
 20
-2265.859375
 10
866.9375
 20
-2256.0078125
 10
866.9375
 20
-2246.15625
 10
866.9375
 20
-2236.3046875
 10
866.9375
 20
-2226.453125
 10
866.9375
 20
-2216.6015625
 10
866.9375
 20
-2206.75
 10
866.9375
 20
-2196.8984375
 10
866.9375
 20
-2187.046875
 10
866.9375
 20
-2177.1953125
 10
866.9375
 20
-2167.34375
 10
866.9375
 20
-2157.4921875
 10
866.9375
 20
-2147.640625
 10
866.9375
 20
-2137.7890625
 10
866.9375
 20
-2127.9375
 10
866.9375
 20
-2118.0859375
 10
866.9375
 20
-2108.234375
 10
866.9375
 20
-2098.3828125
 10
866.9375
 20
-2088.53125
 10
866.9375
 20
-2078.6796875
 10
866.9375
 20
-2068.828125
 10
866.9375
 20
-2058.9765625
 10
866.9375
 20
-2049.125
 10
866.9375
 20
-2039.2734375
 10
866.9375
 20
-2029.421875
 10
866.9375
 20
-2019.5703125
 10
866.9375
 20
-2009.71875
 10
866.9375
 20
-1999.8671875
 10
866.9375
 20
-1990.015625
 10
866.9375
 20
-1980.1640625
 10
866.9375
 20
-1970.3125
 10
866.9375
 20
-1960.4609375
 10
866.9375
 20
-1950.609375
 10
866.9375
 20
-1940.7578125
 10
866.9375
 20
-1930.90625
 10
866.9375
 20
-1921.0546875
 10
876.7890625
 20
-1911.203125
 10
886.640625
 20
-1901.3515625
 10
896.4921875
 20
-1901.3515625
 10
906.34375
 20
-1901.3515625
 10
916.1953125
 20
-1901.3515625
 10
926.046875
 20
-1901.3515625
 10
935.8984375
 20
-1901.3515625
 10
945.75
 20
-1901.3515625
 10
955.6015625
 20
-1901.3515625
 10
965.453125
 20
-1901.3515625
 10
975.3046875
 20
-1901.3515625
 10
985.15625
 20
-1901.3515625
 10
995.0078125
 20
-1901.3515625
 10
1004.859375
 20
-1901.3515625
 10
1014.7109375
 20
-1901.3515625
 10
1024.5625
 20
-1901.3515625
 10
1034.4140625
 20
-1901.3515625
 10
1044.265625
 20
-1901.3515625
 10
1054.1171875
 20
-1901.3515625
 10
1063.96875
 20
-1901.3515625
 10
1073.8203125
 20
-1901.3515625
 10
1083.671875
 20
-1901.3515625
 10
1093.5234375
 20
-1901.3515625
 10
1103.375
 20
-1901.3515625
 10
1113.2265625
 20
-1901.3515625
 10
1123.078125
 20
-1901.3515625
 10
1132.9296875
 20
-1901.3515625
 10
1142.78125
 20
-1901.3515625
 10
1152.6328125
 20
-1901.3515625
 10
1162.484375
 20
-1901.3515625
 10
1172.3359375
 20
-1901.3515625
 10
1182.1875
 20
-1901.3515625
 10
1192.0390625
 20
-1901.3515625
 10
1201.890625
 20
-1901.3515625
 10
1211.7421875
 20
-1901.3515625
 10
1221.59375
 20
-1901.3515625
 10
1231.4453125
 20
-1901.3515625
 10
1241.296875
 20
-1901.3515625
 10
1251.1484375
 20
-1901.3515625
 10
1261.0
 20
-1901.3515625
 10
1270.8515625
 20
-1901.3515625
 10
1280.703125
 20
-1901.3515625
 10
1290.5546875
 20
-1901.3515625
 10
1300.40625
 20
-1901.3515625
 10
1310.2578125
 20
-1901.3515625
 10
1320.109375
 20
-1901.3515625
 10
1329.9609375
 20
-1901.3515625
 10
1339.8125
 20
-1901.3515625
 10
1349.6640625
 20
-1901.3515625
 10
1359.515625
 20
-1901.3515625
 10
1369.3671875
 20
-1901.3515625
 10
1379.21875
 20
-1901.3515625
 10
1389.0703125
 20
-1901.3515625
 10
1398.921875
 20
-1901.3515625
 10
1408.7734375
 20
-1901.3515625
 10
1418.625
 20
-1901.3515625
 10
1428.4765625
 20
-1901.3515625
 10
1438.328125
 20
-1901.3515625
 10
1448.1796875
 20
-1901.3515625
 10
1458.03125
 20
-1901.3515625
 10
1467.8828125
 20
-1901.3515625
 10
1477.734375
 20
-1901.3515625
 10
1487.5859375
 20
-1901.3515625
 10
1497.4375
 20
-1901.3515625
 10
1507.2890625
 20
-1901.3515625
 10
1517.140625
 20
-1901.3515625
 10
1526.9921875
 20
-1901.3515625
 10
1536.84375
 20
-1901.3515625
 10
1546.6953125
 20
-1901.3515625
 10
1556.546875
 20
-1901.3515625
 10
1566.3984375
 20
-1901.3515625
 10
1576.25
 20
-1901.3515625
 10
1586.1015625
 20
-1901.3515625
 10
1595.953125
 20
-1901.3515625
 10
1605.8046875
 20
-1901.3515625
 10
1615.65625
 20
-1901.3515625
 10
1625.5078125
 20
-1901.3515625
 10
1635.359375
 20
-1901.3515625
 10
1645.2109375
 20
-1901.3515625
 10
1655.0625
 20
-1901.3515625
 10
1664.9140625
 20
-1901.3515625
 10
1674.765625
 20
-1901.3515625
 10
1684.6171875
 20
-1901.3515625
 10
1694.46875
 20
-1901.3515625
 10
1704.3203125
 20
-1901.3515625
 10
1714.171875
 20
-1901.3515625
 10
1724.0234375
 20
-1911.203125
 10
1733.875
 20
-1911.203125
 10
1743.7265625
 20
-1901.3515625
 10
1753.578125
 20
-1901.3515625
 10
1763.4296875
 20
-1901.3515625
 10
1773.28125
 20
-1901.3515625
 10
1783.1328125
 20
-1911.203125
 10
1792.984375
 20
-1911.203125
 10
1802.8359375
 20
-1901.3515625
 10
1812.6875
 20
-1911.203125
 10
1822.5390625
 20
-1911.203125
 10
1832.390625
 20
-1911.203125
 10
1842.2421875
 20
-1901.3515625
 10
1852.09375
 20
-1911.203125
 10
1861.9453125
 20
-1911.203125
 10
1871.796875
 20
-1911.203125
 10
1881.6484375
 20
-1911.203125
 10
1891.5
 20
-1911.203125
 10
1901.3515625
 20
-1911.203125
 10
1901.3515625
 20
-1901.3515625
 10
1901.3515625
 20
-1891.5
 10
1901.3515625
 20
-1881.6484375
 10
1901.3515625
 20
-1871.796875
 10
1901.3515625
 20
-1861.9453125
 10
1901.3515625
 20
-1852.09375
 10
1901.3515625
 20
-1842.2421875
 10
1901.3515625
 20
-1832.390625
 10
1901.3515625
 20
-1822.5390625
 10
1901.3515625
 20
-1812.6875
 10
1901.3515625
 20
-1802.8359375
 10
1901.3515625
 20
-1792.984375
 10
1901.3515625
 20
-1783.1328125
 10
1911.203125
 20
-1773.28125
 10
1911.203125
 20
-1763.4296875
 10
1911.203125
 20
-1753.578125
 10
1911.203125
 20
-1743.7265625
 10
1911.203125
 20
-1733.875
 10
1911.203125
 20
-1724.0234375
 10
1911.203125
 20
-1714.171875
 10
1911.203125
 20
-1704.3203125
 10
1911.203125
 20
-1694.46875
 10
1911.203125
 20
-1684.6171875
 10
1911.203125
 20
-1674.765625
 10
1911.203125
 20
-1664.9140625
 10
1911.203125
 20
-1655.0625
 10
1911.203125
 20
-1645.2109375
 10
1911.203125
 20
-1635.359375
 10
1901.3515625
 20
-1625.5078125
 10
1911.203125
 20
-1615.65625
 10
1911.203125
 20
-1605.8046875
 10
1911.203125
 20
-1595.953125
 10
1911.203125
 20
-1586.1015625
 10
1911.203125
 20
-1576.25
 10
1911.203125
 20
-1566.3984375
 10
1911.203125
 20
-1556.546875
 10
1911.203125
 20
-1546.6953125
 10
1911.203125
 20
-1536.84375
 10
1911.203125
 20
-1526.9921875
 10
1911.203125
 20
-1517.140625
 10
1911.203125
 20
-1507.2890625
 10
1911.203125
 20
-1497.4375
 10
1911.203125
 20
-1487.5859375
 10
1911.203125
 20
-1477.734375
 10
1911.203125
 20
-1467.8828125
 10
1911.203125
 20
-1458.03125
 10
1911.203125
 20
-1448.1796875
 10
1911.203125
 20
-1438.328125
 10
1911.203125
 20
-1428.4765625
 10
1911.203125
 20
-1418.625
 10
1911.203125
 20
-1408.7734375
 10
1911.203125
 20
-1398.921875
 10
1911.203125
 20
-1389.0703125
 10
1911.203125
 20
-1379.21875
 10
1911.203125
 20
-1369.3671875
 10
1911.203125
 20
-1359.515625
 10
1911.203125
 20
-1349.6640625
 10
1911.203125
 20
-1339.8125
 10
1911.203125
 20
-1329.9609375
 10
1911.203125
 20
-1320.109375
 10
1911.203125
 20
-1310.2578125
 10
1911.203125
 20
-1300.40625
 10
1911.203125
 20
-1290.5546875
 10
1911.203125
 20
-1280.703125
 10
1911.203125
 20
-1270.8515625
 10
1911.203125
 20
-1261.0
 10
1911.203125
 20
-1251.1484375
 10
1911.203125
 20
-1241.296875
 10
1911.203125
 20
-1231.4453125
 10
1911.203125
 20
-1221.59375
 10
1911.203125
 20
-1211.7421875
 10
1901.3515625
 20
-1201.890625
 10
1901.3515625
 20
-1192.0390625
 10
1901.3515625
 20
-1182.1875
 10
1901.3515625
 20
-1172.3359375
 10
1901.3515625
 20
-1162.484375
 10
1901.3515625
 20
-1152.6328125
 10
1911.203125
 20
-1142.78125
 10
1901.3515625
 20
-1132.9296875
 10
1901.3515625
 20
-1123.078125
 10
1901.3515625
 20
-1113.2265625
 10
1901.3515625
 20
-1103.375
 10
1901.3515625
 20
-1093.5234375
 10
1901.3515625
 20
-1083.671875
 10
1901.3515625
 20
-1073.8203125
 10
1901.3515625
 20
-1063.96875
 10
1901.3515625
 20
-1054.1171875
 10
1901.3515625
 20
-1044.265625
 10
1901.3515625
 20
-1034.4140625
 10
1901.3515625
 20
-1024.5625
 10
1901.3515625
 20
-1014.7109375
 10
1911.203125
 20
-1004.859375
 10
1911.203125
 20
-995.0078125
 10
1901.3515625
 20
-985.15625
 10
1911.203125
 20
-975.3046875
 10
1911.203125
 20
-965.453125
 10
1911.203125
 20
-955.6015625
 10
1911.203125
 20
-945.75
 10
1911.203125
 20
-935.8984375
 10
1911.203125
 20
-926.046875
 10
1901.3515625
 20
-916.1953125
 10
1901.3515625
 20
-906.34375
 10
1901.3515625
 20
-896.4921875
 10
1911.203125
 20
-886.640625
  0
LWPOLYLINE
  5
3E
330
17
100
AcDbEntity
  8
substrate
100
AcDbPolyline
 90
1
 70
1
 43
0.5
 10
3093.390625
 20
-4098.25
  0
LWPOLYLINE
  5
3F
330
17
100
AcDbEntity
  8
substrate
100
AcDbPolyline
 90
1
 70
1
 43
0.5
 10
3073.6875
 20
-4098.25
  0
LWPOLYLINE
  5
40
330
17
100
AcDbEntity
  8
substrate
100
AcDbPolyline
 90
1
 70
1
 43
0.5
 10
3044.1328125
 20
-4098.25
  0
LWPOLYLINE
  5
41
330
17
100
AcDbEntity
  8
substrate
100
AcDbPolyline
 90
1
 70
1
 43
0.5
 10
3004.7265625
 20
-4098.25
  0
ENDSEC
  0
SECTION
  2
OBJECTS
  0
DICTIONARY
  5
A
330
0
100
AcDbDictionary
280
0
281
1
  3
ACAD_COLOR
350
B
  3
ACAD_GROUP
350
C
  3
ACAD_LAYOUT
350
D
  3
ACAD_MATERIAL
350
E
  3
ACAD_MLEADERSTYLE
350
F
  3
ACAD_MLINESTYLE
350
10
  3
ACAD_PLOTSETTINGS
350
11
  3
ACAD_PLOTSTYLENAME
350
12
  3
ACAD_SCALELIST
350
14
  3
ACAD_TABLESTYLE
350
15
  3
ACAD_VISUALSTYLE
350
16
  3
EZDXF_META
350
2D
  0
DICTIONARY
  5
B
330
A
100
AcDbDictionary
280
0
281
1
  0
DICTIONARY
  5
C
330
A
100
AcDbDictionary
280
0
281
1
  0
DICTIONARY
  5
D
330
A
100
AcDbDictionary
280
0
281
1
  3
Model
350
1A
  3
Layout1
350
1E
  0
DICTIONARY
  5
E
330
A
100
AcDbDictionary
280
0
281
1
  3
ByBlock
350
1F
  3
ByLayer
350
20
  3
Global
350
21
  0
DICTIONARY
  5
F
330
A
100
AcDbDictionary
280
0
281
1
  3
Standard
350
2C
  0
DICTIONARY
  5
10
330
A
100
AcDbDictionary
280
0
281
1
  3
Standard
350
22
  0
DICTIONARY
  5
11
330
A
100
AcDbDictionary
280
0
281
1
  0
ACDBDICTIONARYWDFLT
  5
12
330
A
100
AcDbDictionary
280
0
281
1
  3
Normal
350
13
100
AcDbDictionaryWithDefault
340
13
  0
ACDBPLACEHOLDER
  5
13
330
12
  0
DICTIONARY
  5
14
330
A
100
AcDbDictionary
280
0
281
1
  0
DICTIONARY
  5
15
330
A
100
AcDbDictionary
280
0
281
1
  0
DICTIONARY
  5
16
330
A
100
AcDbDictionary
280
0
281
1
  0
LAYOUT
  5
1A
330
D
100
AcDbPlotSettings
  1

  2
Adobe PDF
  4
A3
  6

 40
7.5
 41
20.0
 42
7.5
 43
20.0
 44
420.0
 45
297.0
 46
0.0
 47
0.0
 48
0.0
 49
0.0
140
0.0
141
0.0
142
1.0
143
1.0
 70
1024
 72
1
 73
0
 74
5
  7

 75
16
 76
0
 77
2
 78
300
147
1.0
148
0.0
149
0.0
100
AcDbLayout
  1
Model
 70
1
 71
0
 10
0.0
 20
0.0
 11
420.0
 21
297.0
 12
0.0
 22
0.0
 32
0.0
 14
1e+20
 24
1e+20
 34
1e+20
 15
-1e+20
 25
-1e+20
 35
-1e+20
146
0.0
 13
0.0
 23
0.0
 33
0.0
 16
1.0
 26
0.0
 36
0.0
 17
0.0
 27
1.0
 37
0.0
 76
1
330
17
  0
LAYOUT
  5
1E
330
D
100
AcDbPlotSettings
  1

  2
Adobe PDF
  4
A3
  6

 40
7.5
 41
20.0
 42
7.5
 43
20.0
 44
420.0
 45
297.0
 46
0.0
 47
0.0
 48
0.0
 49
0.0
140
0.0
141
0.0
142
1.0
143
1.0
 70
0
 72
1
 73
0
 74
5
  7

 75
16
 76
0
 77
2
 78
300
147
1.0
148
0.0
149
0.0
100
AcDbLayout
  1
Layout1
 70
1
 71
1
 10
0.0
 20
0.0
 11
420.0
 21
297.0
 12
0.0
 22
0.0
 32
0.0
 14
1e+20
 24
1e+20
 34
1e+20
 15
-1e+20
 25
-1e+20
 35
-1e+20
146
0.0
 13
0.0
 23
0.0
 33
0.0
 16
1.0
 26
0.0
 36
0.0
 17
0.0
 27
1.0
 37
0.0
 76
1
330
1B
  0
MATERIAL
  5
1F
102
{ACAD_REACTORS
330
E
102
}
330
E
100
AcDbMaterial
  1
ByBlock
  2

 70
0
 40
1.0
 71
1
 41
1.0
 91
-1023410177
 42
1.0
 72
1
  3

 73
1
 74
1
 75
1
 44
0.5
 73
0
 45
1.0
 46
1.0
 77
1
  4

 78
1
 79
1
170
1
 48
1.0
171
1
  6

172
1
173
1
174
1
140
1.0
141
1.0
175
1
  7

176
1
177
1
178
1
143
1.0
179
1
  8

270
1
271
1
272
1
145
1.0
146
1.0
273
1
  9

274
1
275
1
276
1
 42
1.0
 72
1
  3

 73
1
 74
1
 75
1
 94
63
  0
MATERIAL
  5
20
102
{ACAD_REACTORS
330
E
102
}
330
E
100
AcDbMaterial
  1
ByLayer
  2

 70
0
 40
1.0
 71
1
 41
1.0
 91
-1023410177
 42
1.0
 72
1
  3

 73
1
 74
1
 75
1
 44
0.5
 73
0
 45
1.0
 46
1.0
 77
1
  4

 78
1
 79
1
170
1
 48
1.0
171
1
  6

172
1
173
1
174
1
140
1.0
141
1.0
175
1
  7

176
1
177
1
178
1
143
1.0
179
1
  8

270
1
271
1
272
1
145
1.0
146
1.0
273
1
  9

274
1
275
1
276
1
 42
1.0
 72
1
  3

 73
1
 74
1
 75
1
 94
63
  0
MATERIAL
  5
21
102
{ACAD_REACTORS
330
E
102
}
330
E
100
AcDbMaterial
  1
Global
  2

 70
0
 40
1.0
 71
1
 41
1.0
 91
-1023410177
 42
1.0
 72
1
  3

 73
1
 74
1
 75
1
 44
0.5
 73
0
 45
1.0
 46
1.0
 77
1
  4

 78
1
 79
1
170
1
 48
1.0
171
1
  6

172
1
173
1
174
1
140
1.0
141
1.0
175
1
  7

176
1
177
1
178
1
143
1.0
179
1
  8

270
1
271
1
272
1
145
1.0
146
1.0
273
1
  9

274
1
275
1
276
1
 42
1.0
 72
1
  3

 73
1
 74
1
 75
1
 94
63
  0
MLINESTYLE
  5
22
102
{ACAD_REACTORS
330
10
102
}
330
10
100
AcDbMlineStyle
  2
Standard
 70
0
  3

 62
256
 51
90.0
 52
90.0
 71
2
 49
0.5
 62
256
  6
BYLAYER
 49
-0.5
 62
256
  6
BYLAYER
  0
MLEADERSTYLE
  5
2C
102
{ACAD_REACTORS
330
F
102
}
330
F
100
AcDbMLeaderStyle
179
2
170
2
171
1
172
0
 90
2
 40
0.0
 41
0.0
173
1
 91
-1056964608
 92
-2
290
1
 42
2.0
291
1
 43
8.0
  3
Standard
 44
4.0
300

342
29
174
1
175
1
176
0
178
1
 93
-1056964608
 45
4.0
292
0
297
0
 46
4.0
 94
-1056964608
 47
1.0
 49
1.0
140
1.0
294
1
141
0.0
177
0
142
1.0
295
0
296
0
143
3.75
271
0
272
9
273
9
  0
DICTIONARY
  5
2D
330
A
100
AcDbDictionary
281
1
  3
CREATED_BY_EZDXF
350
2E
  3
WRITTEN_BY_EZDXF
350
44
  0
DICTIONARYVAR
  5
2E
330
2D
100
DictionaryVariables
280
0
  1
1.1.0 @ 2025-03-06T18:22:54.393911+00:00
  0
DICTIONARYVAR
  5
44
330
2D
100
DictionaryVariables
280
0
  1
1.1.0 @ 2025-03-06T18:22:54.402493+00:00
  0
ENDSEC
  0
EOF
