  0
SECTION
  2
HEADER
  9
$ACADVER
  1
AC1027
  9
$ACADMAINTVER
 70
105
  9
$DWGCODEPAGE
  3
ANSI_1252
  9
$LASTSAVEDBY
  1
ezdxf
  9
$REQUIREDVERSIONS
160
0
  9
$INSBASE
 10
0.0
 20
0.0
 30
0.0
  9
$EXTMIN
 10
1e+20
 20
1e+20
 30
1e+20
  9
$EXTMAX
 10
-1e+20
 20
-1e+20
 30
-1e+20
  9
$LIMMIN
 10
0.0
 20
0.0
  9
$LIMMAX
 10
420.0
 20
297.0
  9
$ORTHOMODE
 70
0
  9
$REGENMODE
 70
1
  9
$FILLMODE
 70
1
  9
$QTEXTMODE
 70
0
  9
$MIRRTEXT
 70
1
  9
$LTSCALE
 40
1.0
  9
$ATTMODE
 70
1
  9
$TEXTSIZE
 40
2.5
  9
$TRACEWID
 40
1.0
  9
$TEXTSTYLE
  7
Standard
  9
$CLAYER
  8
0
  9
$CELTYPE
  6
ByLayer
  9
$CECOLOR
 62
256
  9
$CELTSCALE
 40
1.0
  9
$DISPSILH
 70
0
  9
$DIMSCALE
 40
1.0
  9
$DIMASZ
 40
2.5
  9
$DIMEXO
 40
0.625
  9
$DIMDLI
 40
3.75
  9
$DIMRND
 40
0.0
  9
$DIMDLE
 40
0.0
  9
$DIMEXE
 40
1.25
  9
$DIMTP
 40
0.0
  9
$DIMTM
 40
0.0
  9
$DIMTXT
 40
2.5
  9
$DIMCEN
 40
2.5
  9
$DIMTSZ
 40
0.0
  9
$DIMTOL
 70
0
  9
$DIMLIM
 70
0
  9
$DIMTIH
 70
0
  9
$DIMTOH
 70
0
  9
$DIMSE1
 70
0
  9
$DIMSE2
 70
0
  9
$DIMTAD
 70
1
  9
$DIMZIN
 70
8
  9
$DIMBLK
  1

  9
$DIMASO
 70
1
  9
$DIMSHO
 70
1
  9
$DIMPOST
  1

  9
$DIMAPOST
  1

  9
$DIMALT
 70
0
  9
$DIMALTD
 70
3
  9
$DIMALTF
 40
0.03937007874
  9
$DIMLFAC
 40
1.0
  9
$DIMTOFL
 70
1
  9
$DIMTVP
 40
0.0
  9
$DIMTIX
 70
0
  9
$DIMSOXD
 70
0
  9
$DIMSAH
 70
0
  9
$DIMBLK1
  1

  9
$DIMBLK2
  1

  9
$DIMSTYLE
  2
ISO-25
  9
$DIMCLRD
 70
0
  9
$DIMCLRE
 70
0
  9
$DIMCLRT
 70
0
  9
$DIMTFAC
 40
1.0
  9
$DIMGAP
 40
0.625
  9
$DIMJUST
 70
0
  9
$DIMSD1
 70
0
  9
$DIMSD2
 70
0
  9
$DIMTOLJ
 70
0
  9
$DIMTZIN
 70
8
  9
$DIMALTZ
 70
0
  9
$DIMALTTZ
 70
0
  9
$DIMUPT
 70
0
  9
$DIMDEC
 70
2
  9
$DIMTDEC
 70
2
  9
$DIMALTU
 70
2
  9
$DIMALTTD
 70
3
  9
$DIMTXSTY
  7
Standard
  9
$DIMAUNIT
 70
0
  9
$DIMADEC
 70
0
  9
$DIMALTRND
 40
0.0
  9
$DIMAZIN
 70
0
  9
$DIMDSEP
 70
44
  9
$DIMATFIT
 70
3
  9
$DIMFRAC
 70
0
  9
$DIMLDRBLK
  1

  9
$DIMLUNIT
 70
2
  9
$DIMLWD
 70
-2
  9
$DIMLWE
 70
-2
  9
$DIMTMOVE
 70
0
  9
$DIMFXL
 40
1.0
  9
$DIMFXLON
 70
0
  9
$DIMJOGANG
 40
0.785398163397
  9
$DIMTFILL
 70
0
  9
$DIMTFILLCLR
 70
0
  9
$DIMARCSYM
 70
0
  9
$DIMLTYPE
  6

  9
$DIMLTEX1
  6

  9
$DIMLTEX2
  6

  9
$DIMTXTDIRECTION
 70
0
  9
$LUNITS
 70
2
  9
$LUPREC
 70
4
  9
$SKETCHINC
 40
1.0
  9
$FILLETRAD
 40
10.0
  9
$AUNITS
 70
0
  9
$AUPREC
 70
2
  9
$MENU
  1
.
  9
$ELEVATION
 40
0.0
  9
$PELEVATION
 40
0.0
  9
$THICKNESS
 40
0.0
  9
$LIMCHECK
 70
0
  9
$CHAMFERA
 40
0.0
  9
$CHAMFERB
 40
0.0
  9
$CHAMFERC
 40
0.0
  9
$CHAMFERD
 40
0.0
  9
$SKPOLY
 70
0
  9
$TDCREATE
 40
2460677.923148148
  9
$TDUCREATE
 40
2458532.153996898
  9
$TDUPDATE
 40
2460677.923148148
  9
$TDUUPDATE
 40
2458532.1544311
  9
$TDINDWG
 40
0.0
  9
$TDUSRTIMER
 40
0.0
  9
$USRTIMER
 70
1
  9
$ANGBASE
 50
0.0
  9
$ANGDIR
 70
0
  9
$PDMODE
 70
0
  9
$PDSIZE
 40
0.0
  9
$PLINEWID
 40
0.0
  9
$SPLFRAME
 70
0
  9
$SPLINETYPE
 70
6
  9
$SPLINESEGS
 70
8
  9
$HANDSEED
  5
87
  9
$SURFTAB1
 70
6
  9
$SURFTAB2
 70
6
  9
$SURFTYPE
 70
6
  9
$SURFU
 70
6
  9
$SURFV
 70
6
  9
$UCSBASE
  2

  9
$UCSNAME
  2

  9
$UCSORG
 10
0.0
 20
0.0
 30
0.0
  9
$UCSXDIR
 10
1.0
 20
0.0
 30
0.0
  9
$UCSYDIR
 10
0.0
 20
1.0
 30
0.0
  9
$UCSORTHOREF
  2

  9
$UCSORTHOVIEW
 70
0
  9
$UCSORGTOP
 10
0.0
 20
0.0
 30
0.0
  9
$UCSORGBOTTOM
 10
0.0
 20
0.0
 30
0.0
  9
$UCSORGLEFT
 10
0.0
 20
0.0
 30
0.0
  9
$UCSORGRIGHT
 10
0.0
 20
0.0
 30
0.0
  9
$UCSORGFRONT
 10
0.0
 20
0.0
 30
0.0
  9
$UCSORGBACK
 10
0.0
 20
0.0
 30
0.0
  9
$PUCSBASE
  2

  9
$PUCSNAME
  2

  9
$PUCSORG
 10
0.0
 20
0.0
 30
0.0
  9
$PUCSXDIR
 10
1.0
 20
0.0
 30
0.0
  9
$PUCSYDIR
 10
0.0
 20
1.0
 30
0.0
  9
$PUCSORTHOREF
  2

  9
$PUCSORTHOVIEW
 70
0
  9
$PUCSORGTOP
 10
0.0
 20
0.0
 30
0.0
  9
$PUCSORGBOTTOM
 10
0.0
 20
0.0
 30
0.0
  9
$PUCSORGLEFT
 10
0.0
 20
0.0
 30
0.0
  9
$PUCSORGRIGHT
 10
0.0
 20
0.0
 30
0.0
  9
$PUCSORGFRONT
 10
0.0
 20
0.0
 30
0.0
  9
$PUCSORGBACK
 10
0.0
 20
0.0
 30
0.0
  9
$USERI1
 70
0
  9
$USERI2
 70
0
  9
$USERI3
 70
0
  9
$USERI4
 70
0
  9
$USERI5
 70
0
  9
$USERR1
 40
0.0
  9
$USERR2
 40
0.0
  9
$USERR3
 40
0.0
  9
$USERR4
 40
0.0
  9
$USERR5
 40
0.0
  9
$WORLDVIEW
 70
1
  9
$SHADEDGE
 70
3
  9
$SHADEDIF
 70
70
  9
$TILEMODE
 70
1
  9
$MAXACTVP
 70
64
  9
$PINSBASE
 10
0.0
 20
0.0
 30
0.0
  9
$PLIMCHECK
 70
0
  9
$PEXTMIN
 10
1e+20
 20
1e+20
 30
1e+20
  9
$PEXTMAX
 10
-1e+20
 20
-1e+20
 30
-1e+20
  9
$PLIMMIN
 10
0.0
 20
0.0
  9
$PLIMMAX
 10
420.0
 20
297.0
  9
$UNITMODE
 70
0
  9
$VISRETAIN
 70
1
  9
$PLINEGEN
 70
0
  9
$PSLTSCALE
 70
1
  9
$TREEDEPTH
 70
3020
  9
$CMLSTYLE
  2
Standard
  9
$CMLJUST
 70
0
  9
$CMLSCALE
 40
20.0
  9
$PROXYGRAPHICS
 70
1
  9
$MEASUREMENT
 70
1
  9
$CELWEIGHT
370
-1
  9
$ENDCAPS
280
0
  9
$JOINSTYLE
280
0
  9
$LWDISPLAY
290
0
  9
$INSUNITS
 70
6
  9
$HYPERLINKBASE
  1

  9
$STYLESHEET
  1

  9
$XEDIT
290
1
  9
$CEPSNTYPE
380
0
  9
$PSTYLEMODE
290
1
  9
$FINGERPRINTGUID
  2
{A82D2AEF-60F3-4036-A282-600D77905152}
  9
$VERSIONGUID
  2
{389673E3-5172-49E1-8A25-861F02993DDB}
  9
$EXTNAMES
290
1
  9
$PSVPSCALE
 40
0.0
  9
$OLESTARTUP
290
0
  9
$SORTENTS
280
127
  9
$INDEXCTL
280
0
  9
$HIDETEXT
280
1
  9
$XCLIPFRAME
280
0
  9
$HALOGAP
280
0
  9
$OBSCOLOR
 70
257
  9
$OBSLTYPE
280
0
  9
$INTERSECTIONDISPLAY
280
0
  9
$INTERSECTIONCOLOR
 70
257
  9
$DIMASSOC
280
2
  9
$PROJECTNAME
  1

  9
$CAMERADISPLAY
290
0
  9
$LENSLENGTH
 40
50.0
  9
$CAMERAHEIGHT
 40
0.0
  9
$STEPSPERSEC
 40
24.0
  9
$STEPSIZE
 40
100.0
  9
$3DDWFPREC
 40
2.0
  9
$PSOLWIDTH
 40
0.005
  9
$PSOLHEIGHT
 40
0.08
  9
$LOFTANG1
 40
1.570796326795
  9
$LOFTANG2
 40
1.570796326795
  9
$LOFTMAG1
 40
0.0
  9
$LOFTMAG2
 40
0.0
  9
$LOFTPARAM
 70
7
  9
$LOFTNORMALS
280
1
  9
$LATITUDE
 40
37.795
  9
$LONGITUDE
 40
-122.394
  9
$NORTHDIRECTION
 40
0.0
  9
$TIMEZONE
 70
-8000
  9
$LIGHTGLYPHDISPLAY
280
1
  9
$TILEMODELIGHTSYNCH
280
1
  9
$CMATERIAL
347
20
  9
$SOLIDHIST
280
0
  9
$SHOWHIST
280
1
  9
$DWFFRAME
280
2
  9
$DGNFRAME
280
2
  9
$REALWORLDSCALE
290
1
  9
$INTERFERECOLOR
 62
256
  9
$CSHADOW
280
0
  9
$SHADOWPLANELOCATION
 40
0.0
  0
ENDSEC
  0
SECTION
  2
CLASSES
  0
CLASS
  1
ACDBDICTIONARYWDFLT
  2
AcDbDictionaryWithDefault
  3
ObjectDBX Classes
 90
0
 91
0
280
0
281
0
  0
CLASS
  1
SUN
  2
AcDbSun
  3
SCENEOE
 90
1153
 91
0
280
0
281
0
  0
CLASS
  1
VISUALSTYLE
  2
AcDbVisualStyle
  3
ObjectDBX Classes
 90
4095
 91
0
280
0
281
0
  0
CLASS
  1
MATERIAL
  2
AcDbMaterial
  3
ObjectDBX Classes
 90
1153
 91
0
280
0
281
0
  0
CLASS
  1
SCALE
  2
AcDbScale
  3
ObjectDBX Classes
 90
1153
 91
0
280
0
281
0
  0
CLASS
  1
TABLESTYLE
  2
AcDbTableStyle
  3
ObjectDBX Classes
 90
4095
 91
0
280
0
281
0
  0
CLASS
  1
MLEADERSTYLE
  2
AcDbMLeaderStyle
  3
ACDB_MLEADERSTYLE_CLASS
 90
4095
 91
0
280
0
281
0
  0
CLASS
  1
DICTIONARYVAR
  2
AcDbDictionaryVar
  3
ObjectDBX Classes
 90
0
 91
0
280
0
281
0
  0
CLASS
  1
CELLSTYLEMAP
  2
AcDbCellStyleMap
  3
ObjectDBX Classes
 90
1152
 91
0
280
0
281
0
  0
CLASS
  1
MENTALRAYRENDERSETTINGS
  2
AcDbMentalRayRenderSettings
  3
SCENEOE
 90
1024
 91
0
280
0
281
0
  0
CLASS
  1
ACDBDETAILVIEWSTYLE
  2
AcDbDetailViewStyle
  3
ObjectDBX Classes
 90
1025
 91
0
280
0
281
0
  0
CLASS
  1
ACDBSECTIONVIEWSTYLE
  2
AcDbSectionViewStyle
  3
ObjectDBX Classes
 90
1025
 91
0
280
0
281
0
  0
CLASS
  1
RASTERVARIABLES
  2
AcDbRasterVariables
  3
ISM
 90
0
 91
0
280
0
281
0
  0
CLASS
  1
ACDBPLACEHOLDER
  2
AcDbPlaceHolder
  3
ObjectDBX Classes
 90
0
 91
0
280
0
281
0
  0
CLASS
  1
LAYOUT
  2
AcDbLayout
  3
ObjectDBX Classes
 90
0
 91
0
280
0
281
0
  0
ENDSEC
  0
SECTION
  2
TABLES
  0
TABLE
  2
VPORT
  5
8
330
0
100
AcDbSymbolTable
 70
1
  0
VPORT
  5
23
330
8
100
AcDbSymbolTableRecord
100
AcDbViewportTableRecord
  2
*Active
 70
0
 10
0.0
 20
0.0
 11
1.0
 21
1.0
 12
0.0
 22
0.0
 13
0.0
 23
0.0
 14
0.5
 24
0.5
 15
0.5
 25
0.5
 16
0.0
 26
0.0
 36
1.0
 17
0.0
 27
0.0
 37
0.0
 40
1000.0
 41
1.34
 42
50.0
 43
0.0
 44
0.0
 50
0.0
 51
0.0
 71
0
 72
1000
 73
1
 74
3
 75
0
 76
0
 77
0
 78
0
281
0
 65
0
146
0.0
  0
ENDTAB
  0
TABLE
  2
LTYPE
  5
2
330
0
100
AcDbSymbolTable
 70
3
  0
LTYPE
  5
24
330
2
100
AcDbSymbolTableRecord
100
AcDbLinetypeTableRecord
  2
ByBlock
 70
0
  3

 72
65
 73
0
 40
0.0
  0
LTYPE
  5
25
330
2
100
AcDbSymbolTableRecord
100
AcDbLinetypeTableRecord
  2
ByLayer
 70
0
  3

 72
65
 73
0
 40
0.0
  0
LTYPE
  5
26
330
2
100
AcDbSymbolTableRecord
100
AcDbLinetypeTableRecord
  2
Continuous
 70
0
  3

 72
65
 73
0
 40
0.0
  0
ENDTAB
  0
TABLE
  2
LAYER
  5
1
330
0
100
AcDbSymbolTable
 70
5
  0
LAYER
  5
27
330
1
100
AcDbSymbolTableRecord
100
AcDbLayerTableRecord
  2
0
 70
0
 62
7
  6
Continuous
370
-3
390
13
347
21
  0
LAYER
  5
28
330
1
100
AcDbSymbolTableRecord
100
AcDbLayerTableRecord
  2
Defpoints
 70
0
 62
7
  6
Continuous
290
0
370
-3
390
13
347
21
  0
LAYER
  5
2F
330
1
100
AcDbSymbolTableRecord
100
AcDbLayerTableRecord
  2
conductor
 70
0
 62
1
  6
Continuous
370
-3
390
13
347
21
  0
LAYER
  5
30
330
1
100
AcDbSymbolTableRecord
100
AcDbLayerTableRecord
  2
dielectric
 70
0
 62
8
  6
Continuous
370
-3
390
13
347
21
  0
LAYER
  5
31
330
1
100
AcDbSymbolTableRecord
100
AcDbLayerTableRecord
  2
substrate
 70
0
 62
5
  6
Continuous
370
-3
390
13
347
21
  0
ENDTAB
  0
TABLE
  2
STYLE
  5
5
330
0
100
AcDbSymbolTable
 70
1
  0
STYLE
  5
29
330
5
100
AcDbSymbolTableRecord
100
AcDbTextStyleTableRecord
  2
Standard
 70
0
 40
0.0
 41
1.0
 50
0.0
 71
0
 42
2.5
  3
txt
  4

  0
ENDTAB
  0
TABLE
  2
VIEW
  5
7
330
0
100
AcDbSymbolTable
 70
0
  0
ENDTAB
  0
TABLE
  2
UCS
  5
6
330
0
100
AcDbSymbolTable
 70
0
  0
ENDTAB
  0
TABLE
  2
APPID
  5
3
330
0
100
AcDbSymbolTable
 70
3
  0
APPID
  5
2A
330
3
100
AcDbSymbolTableRecord
100
AcDbRegAppTableRecord
  2
ACAD
 70
0
  0
APPID
  5
84
330
3
100
AcDbSymbolTableRecord
100
AcDbRegAppTableRecord
  2
HATCHBACKGROUNDCOLOR
 70
0
  0
APPID
  5
85
330
3
100
AcDbSymbolTableRecord
100
AcDbRegAppTableRecord
  2
EZDXF
 70
0
  0
ENDTAB
  0
TABLE
  2
DIMSTYLE
  5
4
330
0
100
AcDbSymbolTable
 70
1
100
AcDbDimStyleTable
  0
DIMSTYLE
105
2B
330
4
100
AcDbSymbolTableRecord
100
AcDbDimStyleTableRecord
  2
Standard
 70
0
 40
1.0
 41
2.5
 42
0.625
 43
3.75
 44
1.25
 45
0.0
 46
0.0
 47
0.0
 48
0.0
 49
2.5
140
2.5
141
2.5
142
0.0
143
0.03937007874
144
1.0
145
0.0
146
1.0
147
0.625
148
0.0
 69
0
 70
0
 71
0
 72
0
 73
0
 74
0
 75
0
 76
0
 77
1
 78
8
 79
3
170
0
171
3
172
1
173
0
174
0
175
0
176
0
177
0
178
0
179
2
271
2
272
2
273
2
274
3
275
0
276
0
277
2
278
44
279
0
280
0
281
0
282
0
283
0
284
8
285
0
286
0
288
0
289
3
290
0
371
-2
372
-2
  0
ENDTAB
  0
TABLE
  2
BLOCK_RECORD
  5
9
330
0
100
AcDbSymbolTable
 70
2
  0
BLOCK_RECORD
  5
17
330
9
100
AcDbSymbolTableRecord
100
AcDbBlockTableRecord
  2
*Model_Space
340
1A
 70
0
280
1
281
0
  0
BLOCK_RECORD
  5
1B
330
9
100
AcDbSymbolTableRecord
100
AcDbBlockTableRecord
  2
*Paper_Space
340
1E
 70
0
280
1
281
0
  0
ENDTAB
  0
ENDSEC
  0
SECTION
  2
BLOCKS
  0
BLOCK
  5
18
330
17
100
AcDbEntity
  8
0
100
AcDbBlockBegin
  2
*Model_Space
 70
0
 10
0.0
 20
0.0
 30
0.0
  3
*Model_Space
  1

  0
ENDBLK
  5
19
330
17
100
AcDbEntity
  8
0
100
AcDbBlockEnd
  0
BLOCK
  5
1C
330
1B
100
AcDbEntity
  8
0
100
AcDbBlockBegin
  2
*Paper_Space
 70
0
 10
0.0
 20
0.0
 30
0.0
  3
*Paper_Space
  1

  0
ENDBLK
  5
1D
330
1B
100
AcDbEntity
  8
0
100
AcDbBlockEnd
  0
ENDSEC
  0
SECTION
  2
ENTITIES
  0
LWPOLYLINE
  5
32
330
17
100
AcDbEntity
  8
conductor
100
AcDbPolyline
 90
1
 70
1
 43
0.5
 10
2505.587890625
 20
-2874.9375
  0
LWPOLYLINE
  5
33
330
17
100
AcDbEntity
  8
conductor
100
AcDbPolyline
 90
1
 70
1
 43
0.5
 10
2884.919921875
 20
-2595.4296875
  0
LWPOLYLINE
  5
34
330
17
100
AcDbEntity
  8
conductor
100
AcDbPolyline
 90
1
 70
1
 43
0.5
 10
2854.97265625
 20
-2465.658203125
  0
LWPOLYLINE
  5
35
330
17
100
AcDbEntity
  8
conductor
100
AcDbPolyline
 90
1
 70
1
 43
0.5
 10
2874.9375
 20
-2445.693359375
  0
LWPOLYLINE
  5
36
330
17
100
AcDbEntity
  8
conductor
100
AcDbPolyline
 90
4
 70
1
 43
0.5
 10
2236.0625
 20
-2435.7109375
 10
2236.0625
 20
-2445.693359375
 10
2236.0625
 20
-2455.67578125
 10
2236.0625
 20
-2445.693359375
  0
LWPOLYLINE
  5
37
330
17
100
AcDbEntity
  8
conductor
100
AcDbPolyline
 90
1
 70
1
 43
0.5
 10
2266.009765625
 20
-2355.8515625
  0
LWPOLYLINE
  5
38
330
17
100
AcDbEntity
  8
conductor
100
AcDbPolyline
 90
1
 70
1
 43
0.5
 10
2844.990234375
 20
-2335.88671875
  0
LWPOLYLINE
  5
39
330
17
100
AcDbEntity
  8
conductor
100
AcDbPolyline
 90
4
 70
1
 43
0.5
 10
2335.88671875
 20
-2266.009765625
 10
2335.88671875
 20
-2275.9921875
 10
2335.88671875
 20
-2285.974609375
 10
2335.88671875
 20
-2275.9921875
  0
LWPOLYLINE
  5
3A
330
17
100
AcDbEntity
  8
conductor
100
AcDbPolyline
 90
252
 70
1
 43
0.5
 10
2505.587890625
 20
-2256.02734375
 10
2495.60546875
 20
-2266.009765625
 10
2485.623046875
 20
-2275.9921875
 10
2475.640625
 20
-2266.009765625
 10
2465.658203125
 20
-2275.9921875
 10
2455.67578125
 20
-2266.009765625
 10
2445.693359375
 20
-2275.9921875
 10
2435.7109375
 20
-2275.9921875
 10
2425.728515625
 20
-2275.9921875
 10
2415.74609375
 20
-2285.974609375
 10
2405.763671875
 20
-2295.95703125
 10
2395.78125
 20
-2285.974609375
 10
2385.798828125
 20
-2295.95703125
 10
2375.81640625
 20
-2285.974609375
 10
2375.81640625
 20
-2275.9921875
 10
2365.833984375
 20
-2275.9921875
 10
2355.8515625
 20
-2275.9921875
 10
2365.833984375
 20
-2285.974609375
 10
2355.8515625
 20
-2295.95703125
 10
2355.8515625
 20
-2305.939453125
 10
2345.869140625
 20
-2315.921875
 10
2335.88671875
 20
-2305.939453125
 10
2345.869140625
 20
-2315.921875
 10
2335.88671875
 20
-2325.904296875
 10
2325.904296875
 20
-2325.904296875
 10
2325.904296875
 20
-2335.88671875
 10
2315.921875
 20
-2345.869140625
 10
2305.939453125
 20
-2355.8515625
 10
2295.95703125
 20
-2345.869140625
 10
2285.974609375
 20
-2355.8515625
 10
2285.974609375
 20
-2365.833984375
 10
2285.974609375
 20
-2375.81640625
 10
2295.95703125
 20
-2385.798828125
 10
2285.974609375
 20
-2395.78125
 10
2285.974609375
 20
-2405.763671875
 10
2285.974609375
 20
-2415.74609375
 10
2275.9921875
 20
-2425.728515625
 10
2266.009765625
 20
-2415.74609375
 10
2256.02734375
 20
-2405.763671875
 10
2266.009765625
 20
-2395.78125
 10
2256.02734375
 20
-2395.78125
 10
2246.044921875
 20
-2395.78125
 10
2236.0625
 20
-2385.798828125
 10
2226.080078125
 20
-2395.78125
 10
2236.0625
 20
-2405.763671875
 10
2226.080078125
 20
-2415.74609375
 10
2236.0625
 20
-2415.74609375
 10
2246.044921875
 20
-2415.74609375
 10
2256.02734375
 20
-2425.728515625
 10
2266.009765625
 20
-2435.7109375
 10
2256.02734375
 20
-2445.693359375
 10
2266.009765625
 20
-2445.693359375
 10
2275.9921875
 20
-2455.67578125
 10
2266.009765625
 20
-2465.658203125
 10
2256.02734375
 20
-2475.640625
 10
2266.009765625
 20
-2485.623046875
 10
2256.02734375
 20
-2495.60546875
 10
2256.02734375
 20
-2505.587890625
 10
2246.044921875
 20
-2515.5703125
 10
2236.0625
 20
-2505.587890625
 10
2236.0625
 20
-2495.60546875
 10
2236.0625
 20
-2485.623046875
 10
2236.0625
 20
-2495.60546875
 10
2236.0625
 20
-2505.587890625
 10
2226.080078125
 20
-2515.5703125
 10
2236.0625
 20
-2525.552734375
 10
2236.0625
 20
-2535.53515625
 10
2236.0625
 20
-2545.517578125
 10
2226.080078125
 20
-2555.5
 10
2236.0625
 20
-2565.482421875
 10
2236.0625
 20
-2575.46484375
 10
2226.080078125
 20
-2585.447265625
 10
2216.09765625
 20
-2585.447265625
 10
2226.080078125
 20
-2595.4296875
 10
2236.0625
 20
-2605.412109375
 10
2236.0625
 20
-2615.39453125
 10
2236.0625
 20
-2625.376953125
 10
2226.080078125
 20
-2635.359375
 10
2216.09765625
 20
-2645.341796875
 10
2226.080078125
 20
-2635.359375
 10
2236.0625
 20
-2645.341796875
 10
2236.0625
 20
-2655.32421875
 10
2226.080078125
 20
-2665.306640625
 10
2216.09765625
 20
-2665.306640625
 10
2226.080078125
 20
-2675.2890625
 10
2236.0625
 20
-2685.271484375
 10
2226.080078125
 20
-2695.25390625
 10
2236.0625
 20
-2705.236328125
 10
2246.044921875
 20
-2695.25390625
 10
2256.02734375
 20
-2705.236328125
 10
2266.009765625
 20
-2715.21875
 10
2275.9921875
 20
-2705.236328125
 10
2285.974609375
 20
-2715.21875
 10
2295.95703125
 20
-2725.201171875
 10
2295.95703125
 20
-2735.18359375
 10
2295.95703125
 20
-2745.166015625
 10
2305.939453125
 20
-2745.166015625
 10
2315.921875
 20
-2755.1484375
 10
2305.939453125
 20
-2765.130859375
 10
2295.95703125
 20
-2765.130859375
 10
2305.939453125
 20
-2765.130859375
 10
2315.921875
 20
-2775.11328125
 10
2315.921875
 20
-2785.095703125
 10
2305.939453125
 20
-2795.078125
 10
2305.939453125
 20
-2805.060546875
 10
2315.921875
 20
-2805.060546875
 10
2325.904296875
 20
-2815.04296875
 10
2335.88671875
 20
-2825.025390625
 10
2345.869140625
 20
-2835.0078125
 10
2345.869140625
 20
-2844.990234375
 10
2355.8515625
 20
-2844.990234375
 10
2365.833984375
 20
-2844.990234375
 10
2375.81640625
 20
-2854.97265625
 10
2385.798828125
 20
-2864.955078125
 10
2385.798828125
 20
-2874.9375
 10
2385.798828125
 20
-2864.955078125
 10
2395.78125
 20
-2854.97265625
 10
2405.763671875
 20
-2854.97265625
 10
2415.74609375
 20
-2864.955078125
 10
2425.728515625
 20
-2874.9375
 10
2415.74609375
 20
-2864.955078125
 10
2425.728515625
 20
-2854.97265625
 10
2435.7109375
 20
-2844.990234375
 10
2445.693359375
 20
-2844.990234375
 10
2455.67578125
 20
-2844.990234375
 10
2465.658203125
 20
-2835.0078125
 10
2475.640625
 20
-2835.0078125
 10
2485.623046875
 20
-2844.990234375
 10
2485.623046875
 20
-2854.97265625
 10
2495.60546875
 20
-2844.990234375
 10
2505.587890625
 20
-2854.97265625
 10
2515.5703125
 20
-2854.97265625
 10
2525.552734375
 20
-2854.97265625
 10
2535.53515625
 20
-2844.990234375
 10
2545.517578125
 20
-2844.990234375
 10
2555.5
 20
-2854.97265625
 10
2565.482421875
 20
-2854.97265625
 10
2575.46484375
 20
-2854.97265625
 10
2585.447265625
 20
-2854.97265625
 10
2595.4296875
 20
-2864.955078125
 10
2585.447265625
 20
-2874.9375
 10
2595.4296875
 20
-2864.955078125
 10
2605.412109375
 20
-2854.97265625
 10
2615.39453125
 20
-2864.955078125
 10
2625.376953125
 20
-2854.97265625
 10
2635.359375
 20
-2854.97265625
 10
2645.341796875
 20
-2854.97265625
 10
2655.32421875
 20
-2844.990234375
 10
2665.306640625
 20
-2844.990234375
 10
2675.2890625
 20
-2844.990234375
 10
2685.271484375
 20
-2835.0078125
 10
2695.25390625
 20
-2844.990234375
 10
2705.236328125
 20
-2835.0078125
 10
2715.21875
 20
-2825.025390625
 10
2725.201171875
 20
-2815.04296875
 10
2735.18359375
 20
-2825.025390625
 10
2725.201171875
 20
-2815.04296875
 10
2735.18359375
 20
-2805.060546875
 10
2745.166015625
 20
-2805.060546875
 10
2755.1484375
 20
-2815.04296875
 10
2765.130859375
 20
-2805.060546875
 10
2775.11328125
 20
-2805.060546875
 10
2785.095703125
 20
-2795.078125
 10
2795.078125
 20
-2805.060546875
 10
2805.060546875
 20
-2795.078125
 10
2795.078125
 20
-2785.095703125
 10
2805.060546875
 20
-2775.11328125
 10
2815.04296875
 20
-2765.130859375
 10
2825.025390625
 20
-2755.1484375
 10
2835.0078125
 20
-2745.166015625
 10
2835.0078125
 20
-2735.18359375
 10
2835.0078125
 20
-2725.201171875
 10
2844.990234375
 20
-2715.21875
 10
2844.990234375
 20
-2705.236328125
 10
2844.990234375
 20
-2695.25390625
 10
2854.97265625
 20
-2685.271484375
 10
2844.990234375
 20
-2675.2890625
 10
2844.990234375
 20
-2665.306640625
 10
2844.990234375
 20
-2655.32421875
 10
2854.97265625
 20
-2645.341796875
 10
2844.990234375
 20
-2635.359375
 10
2854.97265625
 20
-2625.376953125
 10
2854.97265625
 20
-2615.39453125
 10
2854.97265625
 20
-2605.412109375
 10
2864.955078125
 20
-2595.4296875
 10
2854.97265625
 20
-2605.412109375
 10
2844.990234375
 20
-2595.4296875
 10
2835.0078125
 20
-2585.447265625
 10
2844.990234375
 20
-2575.46484375
 10
2835.0078125
 20
-2565.482421875
 10
2844.990234375
 20
-2555.5
 10
2835.0078125
 20
-2545.517578125
 10
2844.990234375
 20
-2535.53515625
 10
2854.97265625
 20
-2525.552734375
 10
2844.990234375
 20
-2515.5703125
 10
2835.0078125
 20
-2505.587890625
 10
2835.0078125
 20
-2495.60546875
 10
2835.0078125
 20
-2485.623046875
 10
2835.0078125
 20
-2475.640625
 10
2835.0078125
 20
-2465.658203125
 10
2835.0078125
 20
-2455.67578125
 10
2835.0078125
 20
-2445.693359375
 10
2844.990234375
 20
-2435.7109375
 10
2854.97265625
 20
-2445.693359375
 10
2844.990234375
 20
-2435.7109375
 10
2835.0078125
 20
-2425.728515625
 10
2835.0078125
 20
-2415.74609375
 10
2835.0078125
 20
-2405.763671875
 10
2825.025390625
 20
-2395.78125
 10
2835.0078125
 20
-2385.798828125
 10
2844.990234375
 20
-2375.81640625
 10
2835.0078125
 20
-2375.81640625
 10
2825.025390625
 20
-2375.81640625
 10
2815.04296875
 20
-2365.833984375
 10
2825.025390625
 20
-2355.8515625
 10
2835.0078125
 20
-2355.8515625
 10
2844.990234375
 20
-2355.8515625
 10
2835.0078125
 20
-2355.8515625
 10
2825.025390625
 20
-2345.869140625
 10
2825.025390625
 20
-2335.88671875
 10
2815.04296875
 20
-2335.88671875
 10
2805.060546875
 20
-2335.88671875
 10
2795.078125
 20
-2325.904296875
 10
2785.095703125
 20
-2335.88671875
 10
2775.11328125
 20
-2325.904296875
 10
2765.130859375
 20
-2315.921875
 10
2755.1484375
 20
-2305.939453125
 10
2745.166015625
 20
-2305.939453125
 10
2735.18359375
 20
-2305.939453125
 10
2725.201171875
 20
-2305.939453125
 10
2715.21875
 20
-2315.921875
 10
2705.236328125
 20
-2315.921875
 10
2695.25390625
 20
-2305.939453125
 10
2685.271484375
 20
-2295.95703125
 10
2675.2890625
 20
-2285.974609375
 10
2665.306640625
 20
-2275.9921875
 10
2665.306640625
 20
-2266.009765625
 10
2655.32421875
 20
-2266.009765625
 10
2645.341796875
 20
-2266.009765625
 10
2635.359375
 20
-2266.009765625
 10
2625.376953125
 20
-2266.009765625
 10
2615.39453125
 20
-2266.009765625
 10
2605.412109375
 20
-2266.009765625
 10
2595.4296875
 20
-2266.009765625
 10
2585.447265625
 20
-2266.009765625
 10
2575.46484375
 20
-2266.009765625
 10
2565.482421875
 20
-2266.009765625
 10
2555.5
 20
-2266.009765625
 10
2545.517578125
 20
-2266.009765625
 10
2535.53515625
 20
-2266.009765625
 10
2525.552734375
 20
-2256.02734375
 10
2515.5703125
 20
-2266.009765625
  0
LWPOLYLINE
  5
3B
330
17
100
AcDbEntity
  8
conductor
100
AcDbPolyline
 90
4
 70
1
 43
0.5
 10
2605.412109375
 20
-2854.97265625
 10
2615.39453125
 20
-2844.990234375
 10
2625.376953125
 20
-2854.97265625
 10
2615.39453125
 20
-2864.955078125
  0
LWPOLYLINE
  5
3C
330
17
100
AcDbEntity
  8
conductor
100
AcDbPolyline
 90
4
 70
1
 43
0.5
 10
2545.517578125
 20
-2844.990234375
 10
2555.5
 20
-2835.0078125
 10
2565.482421875
 20
-2844.990234375
 10
2555.5
 20
-2854.97265625
  0
LWPOLYLINE
  5
3D
330
17
100
AcDbEntity
  8
conductor
100
AcDbPolyline
 90
4
 70
1
 43
0.5
 10
2515.5703125
 20
-2844.990234375
 10
2525.552734375
 20
-2835.0078125
 10
2535.53515625
 20
-2844.990234375
 10
2525.552734375
 20
-2854.97265625
  0
LWPOLYLINE
  5
3E
330
17
100
AcDbEntity
  8
conductor
100
AcDbPolyline
 90
4
 70
1
 43
0.5
 10
2685.271484375
 20
-2835.0078125
 10
2695.25390625
 20
-2825.025390625
 10
2705.236328125
 20
-2835.0078125
 10
2695.25390625
 20
-2844.990234375
  0
LWPOLYLINE
  5
3F
330
17
100
AcDbEntity
  8
conductor
100
AcDbPolyline
 90
4
 70
1
 43
0.5
 10
2445.693359375
 20
-2835.0078125
 10
2455.67578125
 20
-2825.025390625
 10
2465.658203125
 20
-2835.0078125
 10
2455.67578125
 20
-2844.990234375
  0
LWPOLYLINE
  5
40
330
17
100
AcDbEntity
  8
conductor
100
AcDbPolyline
 90
4
 70
1
 43
0.5
 10
2325.904296875
 20
-2815.04296875
 10
2335.88671875
 20
-2805.060546875
 10
2345.869140625
 20
-2815.04296875
 10
2335.88671875
 20
-2825.025390625
  0
LWPOLYLINE
  5
41
330
17
100
AcDbEntity
  8
conductor
100
AcDbPolyline
 90
4
 70
1
 43
0.5
 10
2785.095703125
 20
-2795.078125
 10
2795.078125
 20
-2785.095703125
 10
2805.060546875
 20
-2795.078125
 10
2795.078125
 20
-2805.060546875
  0
LWPOLYLINE
  5
42
330
17
100
AcDbEntity
  8
conductor
100
AcDbPolyline
 90
8
 70
1
 43
0.5
 10
2305.939453125
 20
-2795.078125
 10
2315.921875
 20
-2785.095703125
 10
2325.904296875
 20
-2785.095703125
 10
2335.88671875
 20
-2785.095703125
 10
2345.869140625
 20
-2795.078125
 10
2335.88671875
 20
-2805.060546875
 10
2325.904296875
 20
-2815.04296875
 10
2315.921875
 20
-2805.060546875
  0
LWPOLYLINE
  5
43
330
17
100
AcDbEntity
  8
conductor
100
AcDbPolyline
 90
4
 70
1
 43
0.5
 10
2315.921875
 20
-2765.130859375
 10
2325.904296875
 20
-2755.1484375
 10
2335.88671875
 20
-2765.130859375
 10
2325.904296875
 20
-2775.11328125
  0
LWPOLYLINE
  5
44
330
17
100
AcDbEntity
  8
conductor
100
AcDbPolyline
 90
4
 70
1
 43
0.5
 10
2805.060546875
 20
-2755.1484375
 10
2815.04296875
 20
-2745.166015625
 10
2825.025390625
 20
-2755.1484375
 10
2815.04296875
 20
-2765.130859375
  0
LWPOLYLINE
  5
45
330
17
100
AcDbEntity
  8
conductor
100
AcDbPolyline
 90
4
 70
1
 43
0.5
 10
2815.04296875
 20
-2745.166015625
 10
2825.025390625
 20
-2735.18359375
 10
2835.0078125
 20
-2745.166015625
 10
2825.025390625
 20
-2755.1484375
  0
LWPOLYLINE
  5
46
330
17
100
AcDbEntity
  8
conductor
100
AcDbPolyline
 90
4
 70
1
 43
0.5
 10
2805.060546875
 20
-2735.18359375
 10
2815.04296875
 20
-2725.201171875
 10
2825.025390625
 20
-2735.18359375
 10
2815.04296875
 20
-2745.166015625
  0
LWPOLYLINE
  5
47
330
17
100
AcDbEntity
  8
conductor
100
AcDbPolyline
 90
4
 70
1
 43
0.5
 10
2295.95703125
 20
-2735.18359375
 10
2305.939453125
 20
-2725.201171875
 10
2315.921875
 20
-2735.18359375
 10
2305.939453125
 20
-2745.166015625
  0
LWPOLYLINE
  5
48
330
17
100
AcDbEntity
  8
conductor
100
AcDbPolyline
 90
4
 70
1
 43
0.5
 10
2815.04296875
 20
-2725.201171875
 10
2825.025390625
 20
-2715.21875
 10
2835.0078125
 20
-2725.201171875
 10
2825.025390625
 20
-2735.18359375
  0
LWPOLYLINE
  5
49
330
17
100
AcDbEntity
  8
conductor
100
AcDbPolyline
 90
4
 70
1
 43
0.5
 10
2256.02734375
 20
-2705.236328125
 10
2266.009765625
 20
-2695.25390625
 10
2275.9921875
 20
-2705.236328125
 10
2266.009765625
 20
-2715.21875
  0
LWPOLYLINE
  5
4A
330
17
100
AcDbEntity
  8
conductor
100
AcDbPolyline
 90
4
 70
1
 43
0.5
 10
2695.25390625
 20
-2565.482421875
 10
2705.236328125
 20
-2555.5
 10
2715.21875
 20
-2565.482421875
 10
2705.236328125
 20
-2575.46484375
  0
LWPOLYLINE
  5
4B
330
17
100
AcDbEntity
  8
conductor
100
AcDbPolyline
 90
4
 70
1
 43
0.5
 10
2835.0078125
 20
-2525.552734375
 10
2844.990234375
 20
-2515.5703125
 10
2854.97265625
 20
-2525.552734375
 10
2844.990234375
 20
-2535.53515625
  0
LWPOLYLINE
  5
4C
330
17
100
AcDbEntity
  8
conductor
100
AcDbPolyline
 90
4
 70
1
 43
0.5
 10
2405.763671875
 20
-2515.5703125
 10
2415.74609375
 20
-2505.587890625
 10
2425.728515625
 20
-2515.5703125
 10
2415.74609375
 20
-2525.552734375
  0
LWPOLYLINE
  5
4D
330
17
100
AcDbEntity
  8
conductor
100
AcDbPolyline
 90
4
 70
1
 43
0.5
 10
2825.025390625
 20
-2435.7109375
 10
2835.0078125
 20
-2425.728515625
 10
2844.990234375
 20
-2435.7109375
 10
2835.0078125
 20
-2445.693359375
  0
LWPOLYLINE
  5
4E
330
17
100
AcDbEntity
  8
conductor
100
AcDbPolyline
 90
4
 70
1
 43
0.5
 10
2256.02734375
 20
-2425.728515625
 10
2266.009765625
 20
-2415.74609375
 10
2275.9921875
 20
-2425.728515625
 10
2266.009765625
 20
-2435.7109375
  0
LWPOLYLINE
  5
4F
330
17
100
AcDbEntity
  8
conductor
100
AcDbPolyline
 90
4
 70
1
 43
0.5
 10
2236.0625
 20
-2405.763671875
 10
2246.044921875
 20
-2395.78125
 10
2256.02734375
 20
-2405.763671875
 10
2246.044921875
 20
-2415.74609375
  0
LWPOLYLINE
  5
50
330
17
100
AcDbEntity
  8
conductor
100
AcDbPolyline
 90
4
 70
1
 43
0.5
 10
2805.060546875
 20
-2395.78125
 10
2815.04296875
 20
-2385.798828125
 10
2825.025390625
 20
-2395.78125
 10
2815.04296875
 20
-2405.763671875
  0
LWPOLYLINE
  5
51
330
17
100
AcDbEntity
  8
conductor
100
AcDbPolyline
 90
4
 70
1
 43
0.5
 10
2226.080078125
 20
-2395.78125
 10
2236.0625
 20
-2385.798828125
 10
2246.044921875
 20
-2395.78125
 10
2236.0625
 20
-2405.763671875
  0
LWPOLYLINE
  5
52
330
17
100
AcDbEntity
  8
conductor
100
AcDbPolyline
 90
4
 70
1
 43
0.5
 10
2815.04296875
 20
-2385.798828125
 10
2825.025390625
 20
-2375.81640625
 10
2835.0078125
 20
-2385.798828125
 10
2825.025390625
 20
-2395.78125
  0
LWPOLYLINE
  5
53
330
17
100
AcDbEntity
  8
conductor
100
AcDbPolyline
 90
4
 70
1
 43
0.5
 10
2285.974609375
 20
-2355.8515625
 10
2295.95703125
 20
-2345.869140625
 10
2305.939453125
 20
-2355.8515625
 10
2295.95703125
 20
-2365.833984375
  0
LWPOLYLINE
  5
54
330
17
100
AcDbEntity
  8
conductor
100
AcDbPolyline
 90
4
 70
1
 43
0.5
 10
2775.11328125
 20
-2345.869140625
 10
2785.095703125
 20
-2335.88671875
 10
2795.078125
 20
-2345.869140625
 10
2785.095703125
 20
-2355.8515625
  0
LWPOLYLINE
  5
55
330
17
100
AcDbEntity
  8
dielectric
100
AcDbPolyline
 90
2
 70
1
 43
0.5
 10
2874.9375
 20
-2435.7109375
 10
2874.9375
 20
-2445.693359375
  0
LWPOLYLINE
  5
56
330
17
100
AcDbEntity
  8
substrate
100
AcDbPolyline
 90
2044
 70
1
 43
0.5
 10
0.0
 20
-0.0
 10
0.0
 20
-9.982421875
 10
0.0
 20
-19.96484375
 10
0.0
 20
-29.947265625
 10
0.0
 20
-39.9296875
 10
0.0
 20
-49.912109375
 10
0.0
 20
-59.89453125
 10
0.0
 20
-69.876953125
 10
0.0
 20
-79.859375
 10
0.0
 20
-89.841796875
 10
0.0
 20
-99.82421875
 10
0.0
 20
-109.806640625
 10
0.0
 20
-119.7890625
 10
0.0
 20
-129.771484375
 10
0.0
 20
-139.75390625
 10
0.0
 20
-149.736328125
 10
0.0
 20
-159.71875
 10
0.0
 20
-169.701171875
 10
0.0
 20
-179.68359375
 10
0.0
 20
-189.666015625
 10
0.0
 20
-199.6484375
 10
0.0
 20
-209.630859375
 10
0.0
 20
-219.61328125
 10
0.0
 20
-229.595703125
 10
0.0
 20
-239.578125
 10
0.0
 20
-249.560546875
 10
0.0
 20
-259.54296875
 10
0.0
 20
-269.525390625
 10
0.0
 20
-279.5078125
 10
0.0
 20
-289.490234375
 10
0.0
 20
-299.47265625
 10
0.0
 20
-309.455078125
 10
0.0
 20
-319.4375
 10
0.0
 20
-329.419921875
 10
0.0
 20
-339.40234375
 10
0.0
 20
-349.384765625
 10
0.0
 20
-359.3671875
 10
0.0
 20
-369.349609375
 10
0.0
 20
-379.33203125
 10
0.0
 20
-389.314453125
 10
0.0
 20
-399.296875
 10
0.0
 20
-409.279296875
 10
0.0
 20
-419.26171875
 10
0.0
 20
-429.244140625
 10
0.0
 20
-439.2265625
 10
0.0
 20
-449.208984375
 10
0.0
 20
-459.19140625
 10
0.0
 20
-469.173828125
 10
0.0
 20
-479.15625
 10
0.0
 20
-489.138671875
 10
0.0
 20
-499.12109375
 10
0.0
 20
-509.103515625
 10
0.0
 20
-519.0859375
 10
0.0
 20
-529.068359375
 10
0.0
 20
-539.05078125
 10
0.0
 20
-549.033203125
 10
0.0
 20
-559.015625
 10
0.0
 20
-568.998046875
 10
0.0
 20
-578.98046875
 10
0.0
 20
-588.962890625
 10
0.0
 20
-598.9453125
 10
0.0
 20
-608.927734375
 10
0.0
 20
-618.91015625
 10
0.0
 20
-628.892578125
 10
0.0
 20
-638.875
 10
0.0
 20
-648.857421875
 10
0.0
 20
-658.83984375
 10
0.0
 20
-668.822265625
 10
0.0
 20
-678.8046875
 10
0.0
 20
-688.787109375
 10
0.0
 20
-698.76953125
 10
0.0
 20
-708.751953125
 10
0.0
 20
-718.734375
 10
0.0
 20
-728.716796875
 10
0.0
 20
-738.69921875
 10
0.0
 20
-748.681640625
 10
0.0
 20
-758.6640625
 10
0.0
 20
-768.646484375
 10
0.0
 20
-778.62890625
 10
0.0
 20
-788.611328125
 10
0.0
 20
-798.59375
 10
0.0
 20
-808.576171875
 10
0.0
 20
-818.55859375
 10
0.0
 20
-828.541015625
 10
0.0
 20
-838.5234375
 10
0.0
 20
-848.505859375
 10
0.0
 20
-858.48828125
 10
0.0
 20
-868.470703125
 10
0.0
 20
-878.453125
 10
0.0
 20
-888.435546875
 10
0.0
 20
-898.41796875
 10
0.0
 20
-908.400390625
 10
0.0
 20
-918.3828125
 10
0.0
 20
-928.365234375
 10
0.0
 20
-938.34765625
 10
0.0
 20
-948.330078125
 10
0.0
 20
-958.3125
 10
0.0
 20
-968.294921875
 10
0.0
 20
-978.27734375
 10
0.0
 20
-988.259765625
 10
0.0
 20
-998.2421875
 10
0.0
 20
-1008.224609375
 10
0.0
 20
-1018.20703125
 10
0.0
 20
-1028.189453125
 10
0.0
 20
-1038.171875
 10
0.0
 20
-1048.154296875
 10
0.0
 20
-1058.13671875
 10
0.0
 20
-1068.119140625
 10
0.0
 20
-1078.1015625
 10
0.0
 20
-1088.083984375
 10
0.0
 20
-1098.06640625
 10
0.0
 20
-1108.048828125
 10
0.0
 20
-1118.03125
 10
0.0
 20
-1128.013671875
 10
0.0
 20
-1137.99609375
 10
0.0
 20
-1147.978515625
 10
0.0
 20
-1157.9609375
 10
0.0
 20
-1167.943359375
 10
0.0
 20
-1177.92578125
 10
0.0
 20
-1187.908203125
 10
0.0
 20
-1197.890625
 10
0.0
 20
-1207.873046875
 10
0.0
 20
-1217.85546875
 10
0.0
 20
-1227.837890625
 10
0.0
 20
-1237.8203125
 10
0.0
 20
-1247.802734375
 10
0.0
 20
-1257.78515625
 10
0.0
 20
-1267.767578125
 10
0.0
 20
-1277.75
 10
0.0
 20
-1287.732421875
 10
0.0
 20
-1297.71484375
 10
0.0
 20
-1307.697265625
 10
0.0
 20
-1317.6796875
 10
0.0
 20
-1327.662109375
 10
0.0
 20
-1337.64453125
 10
0.0
 20
-1347.626953125
 10
0.0
 20
-1357.609375
 10
0.0
 20
-1367.591796875
 10
0.0
 20
-1377.57421875
 10
0.0
 20
-1387.556640625
 10
0.0
 20
-1397.5390625
 10
0.0
 20
-1407.521484375
 10
0.0
 20
-1417.50390625
 10
0.0
 20
-1427.486328125
 10
0.0
 20
-1437.46875
 10
0.0
 20
-1447.451171875
 10
0.0
 20
-1457.43359375
 10
0.0
 20
-1467.416015625
 10
0.0
 20
-1477.3984375
 10
0.0
 20
-1487.380859375
 10
0.0
 20
-1497.36328125
 10
0.0
 20
-1507.345703125
 10
0.0
 20
-1517.328125
 10
0.0
 20
-1527.310546875
 10
0.0
 20
-1537.29296875
 10
0.0
 20
-1547.275390625
 10
0.0
 20
-1557.2578125
 10
0.0
 20
-1567.240234375
 10
0.0
 20
-1577.22265625
 10
0.0
 20
-1587.205078125
 10
0.0
 20
-1597.1875
 10
0.0
 20
-1607.169921875
 10
0.0
 20
-1617.15234375
 10
0.0
 20
-1627.134765625
 10
0.0
 20
-1637.1171875
 10
0.0
 20
-1647.099609375
 10
0.0
 20
-1657.08203125
 10
0.0
 20
-1667.064453125
 10
0.0
 20
-1677.046875
 10
0.0
 20
-1687.029296875
 10
0.0
 20
-1697.01171875
 10
0.0
 20
-1706.994140625
 10
0.0
 20
-1716.9765625
 10
0.0
 20
-1726.958984375
 10
0.0
 20
-1736.94140625
 10
0.0
 20
-1746.923828125
 10
0.0
 20
-1756.90625
 10
0.0
 20
-1766.888671875
 10
0.0
 20
-1776.87109375
 10
0.0
 20
-1786.853515625
 10
0.0
 20
-1796.8359375
 10
0.0
 20
-1806.818359375
 10
0.0
 20
-1816.80078125
 10
0.0
 20
-1826.783203125
 10
0.0
 20
-1836.765625
 10
0.0
 20
-1846.748046875
 10
0.0
 20
-1856.73046875
 10
0.0
 20
-1866.712890625
 10
0.0
 20
-1876.6953125
 10
0.0
 20
-1886.677734375
 10
0.0
 20
-1896.66015625
 10
0.0
 20
-1906.642578125
 10
0.0
 20
-1916.625
 10
0.0
 20
-1926.607421875
 10
0.0
 20
-1936.58984375
 10
0.0
 20
-1946.572265625
 10
0.0
 20
-1956.5546875
 10
0.0
 20
-1966.537109375
 10
0.0
 20
-1976.51953125
 10
0.0
 20
-1986.501953125
 10
0.0
 20
-1996.484375
 10
0.0
 20
-2006.466796875
 10
0.0
 20
-2016.44921875
 10
0.0
 20
-2026.431640625
 10
0.0
 20
-2036.4140625
 10
0.0
 20
-2046.396484375
 10
0.0
 20
-2056.37890625
 10
0.0
 20
-2066.361328125
 10
0.0
 20
-2076.34375
 10
0.0
 20
-2086.326171875
 10
0.0
 20
-2096.30859375
 10
0.0
 20
-2106.291015625
 10
0.0
 20
-2116.2734375
 10
0.0
 20
-2126.255859375
 10
0.0
 20
-2136.23828125
 10
0.0
 20
-2146.220703125
 10
0.0
 20
-2156.203125
 10
0.0
 20
-2166.185546875
 10
0.0
 20
-2176.16796875
 10
0.0
 20
-2186.150390625
 10
0.0
 20
-2196.1328125
 10
0.0
 20
-2206.115234375
 10
0.0
 20
-2216.09765625
 10
0.0
 20
-2226.080078125
 10
0.0
 20
-2236.0625
 10
0.0
 20
-2246.044921875
 10
0.0
 20
-2256.02734375
 10
0.0
 20
-2266.009765625
 10
0.0
 20
-2275.9921875
 10
0.0
 20
-2285.974609375
 10
0.0
 20
-2295.95703125
 10
0.0
 20
-2305.939453125
 10
0.0
 20
-2315.921875
 10
0.0
 20
-2325.904296875
 10
0.0
 20
-2335.88671875
 10
0.0
 20
-2345.869140625
 10
0.0
 20
-2355.8515625
 10
0.0
 20
-2365.833984375
 10
0.0
 20
-2375.81640625
 10
0.0
 20
-2385.798828125
 10
0.0
 20
-2395.78125
 10
0.0
 20
-2405.763671875
 10
0.0
 20
-2415.74609375
 10
0.0
 20
-2425.728515625
 10
0.0
 20
-2435.7109375
 10
0.0
 20
-2445.693359375
 10
0.0
 20
-2455.67578125
 10
0.0
 20
-2465.658203125
 10
0.0
 20
-2475.640625
 10
0.0
 20
-2485.623046875
 10
0.0
 20
-2495.60546875
 10
0.0
 20
-2505.587890625
 10
0.0
 20
-2515.5703125
 10
0.0
 20
-2525.552734375
 10
0.0
 20
-2535.53515625
 10
0.0
 20
-2545.517578125
 10
0.0
 20
-2555.5
 10
0.0
 20
-2565.482421875
 10
0.0
 20
-2575.46484375
 10
0.0
 20
-2585.447265625
 10
0.0
 20
-2595.4296875
 10
0.0
 20
-2605.412109375
 10
0.0
 20
-2615.39453125
 10
0.0
 20
-2625.376953125
 10
0.0
 20
-2635.359375
 10
0.0
 20
-2645.341796875
 10
0.0
 20
-2655.32421875
 10
0.0
 20
-2665.306640625
 10
0.0
 20
-2675.2890625
 10
0.0
 20
-2685.271484375
 10
0.0
 20
-2695.25390625
 10
0.0
 20
-2705.236328125
 10
0.0
 20
-2715.21875
 10
0.0
 20
-2725.201171875
 10
0.0
 20
-2735.18359375
 10
0.0
 20
-2745.166015625
 10
0.0
 20
-2755.1484375
 10
0.0
 20
-2765.130859375
 10
0.0
 20
-2775.11328125
 10
0.0
 20
-2785.095703125
 10
0.0
 20
-2795.078125
 10
0.0
 20
-2805.060546875
 10
0.0
 20
-2815.04296875
 10
0.0
 20
-2825.025390625
 10
0.0
 20
-2835.0078125
 10
0.0
 20
-2844.990234375
 10
0.0
 20
-2854.97265625
 10
0.0
 20
-2864.955078125
 10
0.0
 20
-2874.9375
 10
0.0
 20
-2884.919921875
 10
0.0
 20
-2894.90234375
 10
0.0
 20
-2904.884765625
 10
0.0
 20
-2914.8671875
 10
0.0
 20
-2924.849609375
 10
0.0
 20
-2934.83203125
 10
0.0
 20
-2944.814453125
 10
0.0
 20
-2954.796875
 10
0.0
 20
-2964.779296875
 10
0.0
 20
-2974.76171875
 10
0.0
 20
-2984.744140625
 10
0.0
 20
-2994.7265625
 10
0.0
 20
-3004.708984375
 10
0.0
 20
-3014.69140625
 10
0.0
 20
-3024.673828125
 10
0.0
 20
-3034.65625
 10
0.0
 20
-3044.638671875
 10
0.0
 20
-3054.62109375
 10
0.0
 20
-3064.603515625
 10
0.0
 20
-3074.5859375
 10
0.0
 20
-3084.568359375
 10
0.0
 20
-3094.55078125
 10
0.0
 20
-3104.533203125
 10
0.0
 20
-3114.515625
 10
0.0
 20
-3124.498046875
 10
0.0
 20
-3134.48046875
 10
0.0
 20
-3144.462890625
 10
0.0
 20
-3154.4453125
 10
0.0
 20
-3164.427734375
 10
0.0
 20
-3174.41015625
 10
0.0
 20
-3184.392578125
 10
0.0
 20
-3194.375
 10
0.0
 20
-3204.357421875
 10
0.0
 20
-3214.33984375
 10
0.0
 20
-3224.322265625
 10
0.0
 20
-3234.3046875
 10
0.0
 20
-3244.287109375
 10
0.0
 20
-3254.26953125
 10
0.0
 20
-3264.251953125
 10
0.0
 20
-3274.234375
 10
0.0
 20
-3284.216796875
 10
0.0
 20
-3294.19921875
 10
0.0
 20
-3304.181640625
 10
0.0
 20
-3314.1640625
 10
0.0
 20
-3324.146484375
 10
0.0
 20
-3334.12890625
 10
0.0
 20
-3344.111328125
 10
0.0
 20
-3354.09375
 10
0.0
 20
-3364.076171875
 10
0.0
 20
-3374.05859375
 10
0.0
 20
-3384.041015625
 10
0.0
 20
-3394.0234375
 10
0.0
 20
-3404.005859375
 10
0.0
 20
-3413.98828125
 10
0.0
 20
-3423.970703125
 10
0.0
 20
-3433.953125
 10
0.0
 20
-3443.935546875
 10
0.0
 20
-3453.91796875
 10
0.0
 20
-3463.900390625
 10
0.0
 20
-3473.8828125
 10
0.0
 20
-3483.865234375
 10
0.0
 20
-3493.84765625
 10
0.0
 20
-3503.830078125
 10
0.0
 20
-3513.8125
 10
0.0
 20
-3523.794921875
 10
0.0
 20
-3533.77734375
 10
0.0
 20
-3543.759765625
 10
0.0
 20
-3553.7421875
 10
0.0
 20
-3563.724609375
 10
0.0
 20
-3573.70703125
 10
0.0
 20
-3583.689453125
 10
0.0
 20
-3593.671875
 10
0.0
 20
-3603.654296875
 10
0.0
 20
-3613.63671875
 10
0.0
 20
-3623.619140625
 10
0.0
 20
-3633.6015625
 10
0.0
 20
-3643.583984375
 10
0.0
 20
-3653.56640625
 10
0.0
 20
-3663.548828125
 10
0.0
 20
-3673.53125
 10
0.0
 20
-3683.513671875
 10
0.0
 20
-3693.49609375
 10
0.0
 20
-3703.478515625
 10
0.0
 20
-3713.4609375
 10
0.0
 20
-3723.443359375
 10
0.0
 20
-3733.42578125
 10
0.0
 20
-3743.408203125
 10
0.0
 20
-3753.390625
 10
0.0
 20
-3763.373046875
 10
0.0
 20
-3773.35546875
 10
0.0
 20
-3783.337890625
 10
0.0
 20
-3793.3203125
 10
0.0
 20
-3803.302734375
 10
0.0
 20
-3813.28515625
 10
0.0
 20
-3823.267578125
 10
0.0
 20
-3833.25
 10
0.0
 20
-3843.232421875
 10
0.0
 20
-3853.21484375
 10
0.0
 20
-3863.197265625
 10
0.0
 20
-3873.1796875
 10
0.0
 20
-3883.162109375
 10
0.0
 20
-3893.14453125
 10
0.0
 20
-3903.126953125
 10
0.0
 20
-3913.109375
 10
0.0
 20
-3923.091796875
 10
0.0
 20
-3933.07421875
 10
0.0
 20
-3943.056640625
 10
0.0
 20
-3953.0390625
 10
0.0
 20
-3963.021484375
 10
0.0
 20
-3973.00390625
 10
0.0
 20
-3982.986328125
 10
0.0
 20
-3992.96875
 10
0.0
 20
-4002.951171875
 10
0.0
 20
-4012.93359375
 10
0.0
 20
-4022.916015625
 10
0.0
 20
-4032.8984375
 10
0.0
 20
-4042.880859375
 10
0.0
 20
-4052.86328125
 10
0.0
 20
-4062.845703125
 10
0.0
 20
-4072.828125
 10
0.0
 20
-4082.810546875
 10
0.0
 20
-4092.79296875
 10
0.0
 20
-4102.775390625
 10
0.0
 20
-4112.7578125
 10
0.0
 20
-4122.740234375
 10
0.0
 20
-4132.72265625
 10
0.0
 20
-4142.705078125
 10
0.0
 20
-4152.6875
 10
0.0
 20
-4162.669921875
 10
0.0
 20
-4172.65234375
 10
0.0
 20
-4182.634765625
 10
0.0
 20
-4192.6171875
 10
0.0
 20
-4202.599609375
 10
0.0
 20
-4212.58203125
 10
0.0
 20
-4222.564453125
 10
0.0
 20
-4232.546875
 10
0.0
 20
-4242.529296875
 10
0.0
 20
-4252.51171875
 10
0.0
 20
-4262.494140625
 10
0.0
 20
-4272.4765625
 10
0.0
 20
-4282.458984375
 10
0.0
 20
-4292.44140625
 10
0.0
 20
-4302.423828125
 10
0.0
 20
-4312.40625
 10
0.0
 20
-4322.388671875
 10
0.0
 20
-4332.37109375
 10
0.0
 20
-4342.353515625
 10
0.0
 20
-4352.3359375
 10
0.0
 20
-4362.318359375
 10
0.0
 20
-4372.30078125
 10
0.0
 20
-4382.283203125
 10
0.0
 20
-4392.265625
 10
0.0
 20
-4402.248046875
 10
0.0
 20
-4412.23046875
 10
0.0
 20
-4422.212890625
 10
0.0
 20
-4432.1953125
 10
0.0
 20
-4442.177734375
 10
0.0
 20
-4452.16015625
 10
0.0
 20
-4462.142578125
 10
0.0
 20
-4472.125
 10
0.0
 20
-4482.107421875
 10
0.0
 20
-4492.08984375
 10
0.0
 20
-4502.072265625
 10
0.0
 20
-4512.0546875
 10
0.0
 20
-4522.037109375
 10
0.0
 20
-4532.01953125
 10
0.0
 20
-4542.001953125
 10
0.0
 20
-4551.984375
 10
0.0
 20
-4561.966796875
 10
0.0
 20
-4571.94921875
 10
0.0
 20
-4581.931640625
 10
0.0
 20
-4591.9140625
 10
0.0
 20
-4601.896484375
 10
0.0
 20
-4611.87890625
 10
0.0
 20
-4621.861328125
 10
0.0
 20
-4631.84375
 10
0.0
 20
-4641.826171875
 10
0.0
 20
-4651.80859375
 10
0.0
 20
-4661.791015625
 10
0.0
 20
-4671.7734375
 10
0.0
 20
-4681.755859375
 10
0.0
 20
-4691.73828125
 10
0.0
 20
-4701.720703125
 10
0.0
 20
-4711.703125
 10
0.0
 20
-4721.685546875
 10
0.0
 20
-4731.66796875
 10
0.0
 20
-4741.650390625
 10
0.0
 20
-4751.6328125
 10
0.0
 20
-4761.615234375
 10
0.0
 20
-4771.59765625
 10
0.0
 20
-4781.580078125
 10
0.0
 20
-4791.5625
 10
0.0
 20
-4801.544921875
 10
0.0
 20
-4811.52734375
 10
0.0
 20
-4821.509765625
 10
0.0
 20
-4831.4921875
 10
0.0
 20
-4841.474609375
 10
0.0
 20
-4851.45703125
 10
0.0
 20
-4861.439453125
 10
0.0
 20
-4871.421875
 10
0.0
 20
-4881.404296875
 10
0.0
 20
-4891.38671875
 10
0.0
 20
-4901.369140625
 10
0.0
 20
-4911.3515625
 10
0.0
 20
-4921.333984375
 10
0.0
 20
-4931.31640625
 10
0.0
 20
-4941.298828125
 10
0.0
 20
-4951.28125
 10
0.0
 20
-4961.263671875
 10
0.0
 20
-4971.24609375
 10
0.0
 20
-4981.228515625
 10
0.0
 20
-4991.2109375
 10
0.0
 20
-5001.193359375
 10
0.0
 20
-5011.17578125
 10
0.0
 20
-5021.158203125
 10
0.0
 20
-5031.140625
 10
0.0
 20
-5041.123046875
 10
0.0
 20
-5051.10546875
 10
0.0
 20
-5061.087890625
 10
0.0
 20
-5071.0703125
 10
0.0
 20
-5081.052734375
 10
0.0
 20
-5091.03515625
 10
0.0
 20
-5101.017578125
 10
9.982421875
 20
-5101.017578125
 10
19.96484375
 20
-5101.017578125
 10
29.947265625
 20
-5101.017578125
 10
39.9296875
 20
-5101.017578125
 10
49.912109375
 20
-5101.017578125
 10
59.89453125
 20
-5101.017578125
 10
69.876953125
 20
-5101.017578125
 10
79.859375
 20
-5101.017578125
 10
89.841796875
 20
-5101.017578125
 10
99.82421875
 20
-5101.017578125
 10
109.806640625
 20
-5101.017578125
 10
119.7890625
 20
-5101.017578125
 10
129.771484375
 20
-5101.017578125
 10
139.75390625
 20
-5101.017578125
 10
149.736328125
 20
-5101.017578125
 10
159.71875
 20
-5101.017578125
 10
169.701171875
 20
-5101.017578125
 10
179.68359375
 20
-5101.017578125
 10
189.666015625
 20
-5101.017578125
 10
199.6484375
 20
-5101.017578125
 10
209.630859375
 20
-5101.017578125
 10
219.61328125
 20
-5101.017578125
 10
229.595703125
 20
-5101.017578125
 10
239.578125
 20
-5101.017578125
 10
249.560546875
 20
-5101.017578125
 10
259.54296875
 20
-5101.017578125
 10
269.525390625
 20
-5101.017578125
 10
279.5078125
 20
-5101.017578125
 10
289.490234375
 20
-5101.017578125
 10
299.47265625
 20
-5101.017578125
 10
309.455078125
 20
-5101.017578125
 10
319.4375
 20
-5101.017578125
 10
329.419921875
 20
-5101.017578125
 10
339.40234375
 20
-5101.017578125
 10
349.384765625
 20
-5101.017578125
 10
359.3671875
 20
-5101.017578125
 10
369.349609375
 20
-5101.017578125
 10
379.33203125
 20
-5101.017578125
 10
389.314453125
 20
-5101.017578125
 10
399.296875
 20
-5101.017578125
 10
409.279296875
 20
-5101.017578125
 10
419.26171875
 20
-5101.017578125
 10
429.244140625
 20
-5101.017578125
 10
439.2265625
 20
-5101.017578125
 10
449.208984375
 20
-5101.017578125
 10
459.19140625
 20
-5101.017578125
 10
469.173828125
 20
-5101.017578125
 10
479.15625
 20
-5101.017578125
 10
489.138671875
 20
-5101.017578125
 10
499.12109375
 20
-5101.017578125
 10
509.103515625
 20
-5101.017578125
 10
519.0859375
 20
-5101.017578125
 10
529.068359375
 20
-5101.017578125
 10
539.05078125
 20
-5101.017578125
 10
549.033203125
 20
-5101.017578125
 10
559.015625
 20
-5101.017578125
 10
568.998046875
 20
-5101.017578125
 10
578.98046875
 20
-5101.017578125
 10
588.962890625
 20
-5101.017578125
 10
598.9453125
 20
-5101.017578125
 10
608.927734375
 20
-5101.017578125
 10
618.91015625
 20
-5101.017578125
 10
628.892578125
 20
-5101.017578125
 10
638.875
 20
-5101.017578125
 10
648.857421875
 20
-5101.017578125
 10
658.83984375
 20
-5101.017578125
 10
668.822265625
 20
-5101.017578125
 10
678.8046875
 20
-5101.017578125
 10
688.787109375
 20
-5101.017578125
 10
698.76953125
 20
-5101.017578125
 10
708.751953125
 20
-5101.017578125
 10
718.734375
 20
-5101.017578125
 10
728.716796875
 20
-5101.017578125
 10
738.69921875
 20
-5101.017578125
 10
748.681640625
 20
-5101.017578125
 10
758.6640625
 20
-5101.017578125
 10
768.646484375
 20
-5101.017578125
 10
778.62890625
 20
-5101.017578125
 10
788.611328125
 20
-5101.017578125
 10
798.59375
 20
-5101.017578125
 10
808.576171875
 20
-5101.017578125
 10
818.55859375
 20
-5101.017578125
 10
828.541015625
 20
-5101.017578125
 10
838.5234375
 20
-5101.017578125
 10
848.505859375
 20
-5101.017578125
 10
858.48828125
 20
-5101.017578125
 10
868.470703125
 20
-5101.017578125
 10
878.453125
 20
-5101.017578125
 10
888.435546875
 20
-5101.017578125
 10
898.41796875
 20
-5101.017578125
 10
908.400390625
 20
-5101.017578125
 10
918.3828125
 20
-5101.017578125
 10
928.365234375
 20
-5101.017578125
 10
938.34765625
 20
-5101.017578125
 10
948.330078125
 20
-5101.017578125
 10
958.3125
 20
-5101.017578125
 10
968.294921875
 20
-5101.017578125
 10
978.27734375
 20
-5101.017578125
 10
988.259765625
 20
-5101.017578125
 10
998.2421875
 20
-5101.017578125
 10
1008.224609375
 20
-5101.017578125
 10
1018.20703125
 20
-5101.017578125
 10
1028.189453125
 20
-5101.017578125
 10
1038.171875
 20
-5101.017578125
 10
1048.154296875
 20
-5101.017578125
 10
1058.13671875
 20
-5101.017578125
 10
1068.119140625
 20
-5101.017578125
 10
1078.1015625
 20
-5101.017578125
 10
1088.083984375
 20
-5101.017578125
 10
1098.06640625
 20
-5101.017578125
 10
1108.048828125
 20
-5101.017578125
 10
1118.03125
 20
-5101.017578125
 10
1128.013671875
 20
-5101.017578125
 10
1137.99609375
 20
-5101.017578125
 10
1147.978515625
 20
-5101.017578125
 10
1157.9609375
 20
-5101.017578125
 10
1167.943359375
 20
-5101.017578125
 10
1177.92578125
 20
-5101.017578125
 10
1187.908203125
 20
-5101.017578125
 10
1197.890625
 20
-5101.017578125
 10
1207.873046875
 20
-5101.017578125
 10
1217.85546875
 20
-5101.017578125
 10
1227.837890625
 20
-5101.017578125
 10
1237.8203125
 20
-5101.017578125
 10
1247.802734375
 20
-5101.017578125
 10
1257.78515625
 20
-5101.017578125
 10
1267.767578125
 20
-5101.017578125
 10
1277.75
 20
-5101.017578125
 10
1287.732421875
 20
-5101.017578125
 10
1297.71484375
 20
-5101.017578125
 10
1307.697265625
 20
-5101.017578125
 10
1317.6796875
 20
-5101.017578125
 10
1327.662109375
 20
-5101.017578125
 10
1337.64453125
 20
-5101.017578125
 10
1347.626953125
 20
-5101.017578125
 10
1357.609375
 20
-5101.017578125
 10
1367.591796875
 20
-5101.017578125
 10
1377.57421875
 20
-5101.017578125
 10
1387.556640625
 20
-5101.017578125
 10
1397.5390625
 20
-5101.017578125
 10
1407.521484375
 20
-5101.017578125
 10
1417.50390625
 20
-5101.017578125
 10
1427.486328125
 20
-5101.017578125
 10
1437.46875
 20
-5101.017578125
 10
1447.451171875
 20
-5101.017578125
 10
1457.43359375
 20
-5101.017578125
 10
1467.416015625
 20
-5101.017578125
 10
1477.3984375
 20
-5101.017578125
 10
1487.380859375
 20
-5101.017578125
 10
1497.36328125
 20
-5101.017578125
 10
1507.345703125
 20
-5101.017578125
 10
1517.328125
 20
-5101.017578125
 10
1527.310546875
 20
-5101.017578125
 10
1537.29296875
 20
-5101.017578125
 10
1547.275390625
 20
-5101.017578125
 10
1557.2578125
 20
-5101.017578125
 10
1567.240234375
 20
-5101.017578125
 10
1577.22265625
 20
-5101.017578125
 10
1587.205078125
 20
-5101.017578125
 10
1597.1875
 20
-5101.017578125
 10
1607.169921875
 20
-5101.017578125
 10
1617.15234375
 20
-5101.017578125
 10
1627.134765625
 20
-5101.017578125
 10
1637.1171875
 20
-5101.017578125
 10
1647.099609375
 20
-5101.017578125
 10
1657.08203125
 20
-5101.017578125
 10
1667.064453125
 20
-5101.017578125
 10
1677.046875
 20
-5101.017578125
 10
1687.029296875
 20
-5101.017578125
 10
1697.01171875
 20
-5101.017578125
 10
1706.994140625
 20
-5101.017578125
 10
1716.9765625
 20
-5101.017578125
 10
1726.958984375
 20
-5101.017578125
 10
1736.94140625
 20
-5101.017578125
 10
1746.923828125
 20
-5101.017578125
 10
1756.90625
 20
-5101.017578125
 10
1766.888671875
 20
-5101.017578125
 10
1776.87109375
 20
-5101.017578125
 10
1786.853515625
 20
-5101.017578125
 10
1796.8359375
 20
-5101.017578125
 10
1806.818359375
 20
-5101.017578125
 10
1816.80078125
 20
-5101.017578125
 10
1826.783203125
 20
-5101.017578125
 10
1836.765625
 20
-5101.017578125
 10
1846.748046875
 20
-5101.017578125
 10
1856.73046875
 20
-5101.017578125
 10
1866.712890625
 20
-5101.017578125
 10
1876.6953125
 20
-5101.017578125
 10
1886.677734375
 20
-5101.017578125
 10
1896.66015625
 20
-5101.017578125
 10
1906.642578125
 20
-5101.017578125
 10
1916.625
 20
-5101.017578125
 10
1926.607421875
 20
-5101.017578125
 10
1936.58984375
 20
-5101.017578125
 10
1946.572265625
 20
-5101.017578125
 10
1956.5546875
 20
-5101.017578125
 10
1966.537109375
 20
-5101.017578125
 10
1976.51953125
 20
-5101.017578125
 10
1986.501953125
 20
-5101.017578125
 10
1996.484375
 20
-5101.017578125
 10
2006.466796875
 20
-5101.017578125
 10
2016.44921875
 20
-5101.017578125
 10
2026.431640625
 20
-5101.017578125
 10
2036.4140625
 20
-5101.017578125
 10
2046.396484375
 20
-5101.017578125
 10
2056.37890625
 20
-5101.017578125
 10
2066.361328125
 20
-5101.017578125
 10
2076.34375
 20
-5101.017578125
 10
2086.326171875
 20
-5101.017578125
 10
2096.30859375
 20
-5101.017578125
 10
2106.291015625
 20
-5101.017578125
 10
2116.2734375
 20
-5101.017578125
 10
2126.255859375
 20
-5101.017578125
 10
2136.23828125
 20
-5101.017578125
 10
2146.220703125
 20
-5101.017578125
 10
2156.203125
 20
-5101.017578125
 10
2166.185546875
 20
-5101.017578125
 10
2176.16796875
 20
-5101.017578125
 10
2186.150390625
 20
-5101.017578125
 10
2196.1328125
 20
-5101.017578125
 10
2206.115234375
 20
-5101.017578125
 10
2216.09765625
 20
-5101.017578125
 10
2226.080078125
 20
-5101.017578125
 10
2236.0625
 20
-5101.017578125
 10
2246.044921875
 20
-5101.017578125
 10
2256.02734375
 20
-5101.017578125
 10
2266.009765625
 20
-5101.017578125
 10
2275.9921875
 20
-5101.017578125
 10
2285.974609375
 20
-5101.017578125
 10
2295.95703125
 20
-5101.017578125
 10
2305.939453125
 20
-5101.017578125
 10
2315.921875
 20
-5101.017578125
 10
2325.904296875
 20
-5101.017578125
 10
2335.88671875
 20
-5101.017578125
 10
2345.869140625
 20
-5101.017578125
 10
2355.8515625
 20
-5101.017578125
 10
2365.833984375
 20
-5101.017578125
 10
2375.81640625
 20
-5101.017578125
 10
2385.798828125
 20
-5101.017578125
 10
2395.78125
 20
-5101.017578125
 10
2405.763671875
 20
-5101.017578125
 10
2415.74609375
 20
-5101.017578125
 10
2425.728515625
 20
-5101.017578125
 10
2435.7109375
 20
-5101.017578125
 10
2445.693359375
 20
-5101.017578125
 10
2455.67578125
 20
-5101.017578125
 10
2465.658203125
 20
-5101.017578125
 10
2475.640625
 20
-5101.017578125
 10
2485.623046875
 20
-5101.017578125
 10
2495.60546875
 20
-5101.017578125
 10
2505.587890625
 20
-5101.017578125
 10
2515.5703125
 20
-5101.017578125
 10
2525.552734375
 20
-5101.017578125
 10
2535.53515625
 20
-5101.017578125
 10
2545.517578125
 20
-5101.017578125
 10
2555.5
 20
-5101.017578125
 10
2565.482421875
 20
-5101.017578125
 10
2575.46484375
 20
-5101.017578125
 10
2585.447265625
 20
-5101.017578125
 10
2595.4296875
 20
-5101.017578125
 10
2605.412109375
 20
-5101.017578125
 10
2615.39453125
 20
-5101.017578125
 10
2625.376953125
 20
-5101.017578125
 10
2635.359375
 20
-5101.017578125
 10
2645.341796875
 20
-5101.017578125
 10
2655.32421875
 20
-5101.017578125
 10
2665.306640625
 20
-5101.017578125
 10
2675.2890625
 20
-5101.017578125
 10
2685.271484375
 20
-5101.017578125
 10
2695.25390625
 20
-5101.017578125
 10
2705.236328125
 20
-5101.017578125
 10
2715.21875
 20
-5101.017578125
 10
2725.201171875
 20
-5101.017578125
 10
2735.18359375
 20
-5101.017578125
 10
2745.166015625
 20
-5101.017578125
 10
2755.1484375
 20
-5101.017578125
 10
2765.130859375
 20
-5101.017578125
 10
2775.11328125
 20
-5101.017578125
 10
2785.095703125
 20
-5101.017578125
 10
2795.078125
 20
-5101.017578125
 10
2805.060546875
 20
-5101.017578125
 10
2815.04296875
 20
-5101.017578125
 10
2825.025390625
 20
-5101.017578125
 10
2835.0078125
 20
-5101.017578125
 10
2844.990234375
 20
-5101.017578125
 10
2854.97265625
 20
-5101.017578125
 10
2864.955078125
 20
-5101.017578125
 10
2874.9375
 20
-5101.017578125
 10
2884.919921875
 20
-5101.017578125
 10
2894.90234375
 20
-5101.017578125
 10
2904.884765625
 20
-5101.017578125
 10
2914.8671875
 20
-5101.017578125
 10
2924.849609375
 20
-5101.017578125
 10
2934.83203125
 20
-5101.017578125
 10
2944.814453125
 20
-5101.017578125
 10
2954.796875
 20
-5101.017578125
 10
2964.779296875
 20
-5101.017578125
 10
2974.76171875
 20
-5101.017578125
 10
2984.744140625
 20
-5101.017578125
 10
2994.7265625
 20
-5101.017578125
 10
3004.708984375
 20
-5101.017578125
 10
3014.69140625
 20
-5101.017578125
 10
3024.673828125
 20
-5101.017578125
 10
3034.65625
 20
-5101.017578125
 10
3044.638671875
 20
-5101.017578125
 10
3054.62109375
 20
-5101.017578125
 10
3064.603515625
 20
-5101.017578125
 10
3074.5859375
 20
-5101.017578125
 10
3084.568359375
 20
-5101.017578125
 10
3094.55078125
 20
-5101.017578125
 10
3104.533203125
 20
-5101.017578125
 10
3114.515625
 20
-5101.017578125
 10
3124.498046875
 20
-5101.017578125
 10
3134.48046875
 20
-5101.017578125
 10
3144.462890625
 20
-5101.017578125
 10
3154.4453125
 20
-5101.017578125
 10
3164.427734375
 20
-5101.017578125
 10
3174.41015625
 20
-5101.017578125
 10
3184.392578125
 20
-5101.017578125
 10
3194.375
 20
-5101.017578125
 10
3204.357421875
 20
-5101.017578125
 10
3214.33984375
 20
-5101.017578125
 10
3224.322265625
 20
-5101.017578125
 10
3234.3046875
 20
-5101.017578125
 10
3244.287109375
 20
-5101.017578125
 10
3254.26953125
 20
-5101.017578125
 10
3264.251953125
 20
-5101.017578125
 10
3274.234375
 20
-5101.017578125
 10
3284.216796875
 20
-5101.017578125
 10
3294.19921875
 20
-5101.017578125
 10
3304.181640625
 20
-5101.017578125
 10
3314.1640625
 20
-5101.017578125
 10
3324.146484375
 20
-5101.017578125
 10
3334.12890625
 20
-5101.017578125
 10
3344.111328125
 20
-5101.017578125
 10
3354.09375
 20
-5101.017578125
 10
3364.076171875
 20
-5101.017578125
 10
3374.05859375
 20
-5101.017578125
 10
3384.041015625
 20
-5101.017578125
 10
3394.0234375
 20
-5101.017578125
 10
3404.005859375
 20
-5101.017578125
 10
3413.98828125
 20
-5101.017578125
 10
3423.970703125
 20
-5101.017578125
 10
3433.953125
 20
-5101.017578125
 10
3443.935546875
 20
-5101.017578125
 10
3453.91796875
 20
-5101.017578125
 10
3463.900390625
 20
-5101.017578125
 10
3473.8828125
 20
-5101.017578125
 10
3483.865234375
 20
-5101.017578125
 10
3493.84765625
 20
-5101.017578125
 10
3503.830078125
 20
-5101.017578125
 10
3513.8125
 20
-5101.017578125
 10
3523.794921875
 20
-5101.017578125
 10
3533.77734375
 20
-5101.017578125
 10
3543.759765625
 20
-5101.017578125
 10
3553.7421875
 20
-5101.017578125
 10
3563.724609375
 20
-5101.017578125
 10
3573.70703125
 20
-5101.017578125
 10
3583.689453125
 20
-5101.017578125
 10
3593.671875
 20
-5101.017578125
 10
3603.654296875
 20
-5101.017578125
 10
3613.63671875
 20
-5101.017578125
 10
3623.619140625
 20
-5101.017578125
 10
3633.6015625
 20
-5101.017578125
 10
3643.583984375
 20
-5101.017578125
 10
3653.56640625
 20
-5101.017578125
 10
3663.548828125
 20
-5101.017578125
 10
3673.53125
 20
-5101.017578125
 10
3683.513671875
 20
-5101.017578125
 10
3693.49609375
 20
-5101.017578125
 10
3703.478515625
 20
-5101.017578125
 10
3713.4609375
 20
-5101.017578125
 10
3723.443359375
 20
-5101.017578125
 10
3733.42578125
 20
-5101.017578125
 10
3743.408203125
 20
-5101.017578125
 10
3753.390625
 20
-5101.017578125
 10
3763.373046875
 20
-5101.017578125
 10
3773.35546875
 20
-5101.017578125
 10
3783.337890625
 20
-5101.017578125
 10
3793.3203125
 20
-5101.017578125
 10
3803.302734375
 20
-5101.017578125
 10
3813.28515625
 20
-5101.017578125
 10
3823.267578125
 20
-5101.017578125
 10
3833.25
 20
-5101.017578125
 10
3843.232421875
 20
-5101.017578125
 10
3853.21484375
 20
-5101.017578125
 10
3863.197265625
 20
-5101.017578125
 10
3873.1796875
 20
-5101.017578125
 10
3883.162109375
 20
-5101.017578125
 10
3893.14453125
 20
-5101.017578125
 10
3903.126953125
 20
-5101.017578125
 10
3913.109375
 20
-5101.017578125
 10
3923.091796875
 20
-5101.017578125
 10
3933.07421875
 20
-5101.017578125
 10
3943.056640625
 20
-5101.017578125
 10
3953.0390625
 20
-5101.017578125
 10
3963.021484375
 20
-5101.017578125
 10
3973.00390625
 20
-5101.017578125
 10
3982.986328125
 20
-5101.017578125
 10
3992.96875
 20
-5101.017578125
 10
4002.951171875
 20
-5101.017578125
 10
4012.93359375
 20
-5101.017578125
 10
4022.916015625
 20
-5101.017578125
 10
4032.8984375
 20
-5101.017578125
 10
4042.880859375
 20
-5101.017578125
 10
4052.86328125
 20
-5101.017578125
 10
4062.845703125
 20
-5101.017578125
 10
4072.828125
 20
-5101.017578125
 10
4082.810546875
 20
-5101.017578125
 10
4092.79296875
 20
-5101.017578125
 10
4102.775390625
 20
-5101.017578125
 10
4112.7578125
 20
-5101.017578125
 10
4122.740234375
 20
-5101.017578125
 10
4132.72265625
 20
-5101.017578125
 10
4142.705078125
 20
-5101.017578125
 10
4152.6875
 20
-5101.017578125
 10
4162.669921875
 20
-5101.017578125
 10
4172.65234375
 20
-5101.017578125
 10
4182.634765625
 20
-5101.017578125
 10
4192.6171875
 20
-5101.017578125
 10
4202.599609375
 20
-5101.017578125
 10
4212.58203125
 20
-5101.017578125
 10
4222.564453125
 20
-5101.017578125
 10
4232.546875
 20
-5101.017578125
 10
4242.529296875
 20
-5101.017578125
 10
4252.51171875
 20
-5101.017578125
 10
4262.494140625
 20
-5101.017578125
 10
4272.4765625
 20
-5101.017578125
 10
4282.458984375
 20
-5101.017578125
 10
4292.44140625
 20
-5101.017578125
 10
4302.423828125
 20
-5101.017578125
 10
4312.40625
 20
-5101.017578125
 10
4322.388671875
 20
-5101.017578125
 10
4332.37109375
 20
-5101.017578125
 10
4342.353515625
 20
-5101.017578125
 10
4352.3359375
 20
-5101.017578125
 10
4362.318359375
 20
-5101.017578125
 10
4372.30078125
 20
-5101.017578125
 10
4382.283203125
 20
-5101.017578125
 10
4392.265625
 20
-5101.017578125
 10
4402.248046875
 20
-5101.017578125
 10
4412.23046875
 20
-5101.017578125
 10
4422.212890625
 20
-5101.017578125
 10
4432.1953125
 20
-5101.017578125
 10
4442.177734375
 20
-5101.017578125
 10
4452.16015625
 20
-5101.017578125
 10
4462.142578125
 20
-5101.017578125
 10
4472.125
 20
-5101.017578125
 10
4482.107421875
 20
-5101.017578125
 10
4492.08984375
 20
-5101.017578125
 10
4502.072265625
 20
-5101.017578125
 10
4512.0546875
 20
-5101.017578125
 10
4522.037109375
 20
-5101.017578125
 10
4532.01953125
 20
-5101.017578125
 10
4542.001953125
 20
-5101.017578125
 10
4551.984375
 20
-5101.017578125
 10
4561.966796875
 20
-5101.017578125
 10
4571.94921875
 20
-5101.017578125
 10
4581.931640625
 20
-5101.017578125
 10
4591.9140625
 20
-5101.017578125
 10
4601.896484375
 20
-5101.017578125
 10
4611.87890625
 20
-5101.017578125
 10
4621.861328125
 20
-5101.017578125
 10
4631.84375
 20
-5101.017578125
 10
4641.826171875
 20
-5101.017578125
 10
4651.80859375
 20
-5101.017578125
 10
4661.791015625
 20
-5101.017578125
 10
4671.7734375
 20
-5101.017578125
 10
4681.755859375
 20
-5101.017578125
 10
4691.73828125
 20
-5101.017578125
 10
4701.720703125
 20
-5101.017578125
 10
4711.703125
 20
-5101.017578125
 10
4721.685546875
 20
-5101.017578125
 10
4731.66796875
 20
-5101.017578125
 10
4741.650390625
 20
-5101.017578125
 10
4751.6328125
 20
-5101.017578125
 10
4761.615234375
 20
-5101.017578125
 10
4771.59765625
 20
-5101.017578125
 10
4781.580078125
 20
-5101.017578125
 10
4791.5625
 20
-5101.017578125
 10
4801.544921875
 20
-5101.017578125
 10
4811.52734375
 20
-5101.017578125
 10
4821.509765625
 20
-5101.017578125
 10
4831.4921875
 20
-5101.017578125
 10
4841.474609375
 20
-5101.017578125
 10
4851.45703125
 20
-5101.017578125
 10
4861.439453125
 20
-5101.017578125
 10
4871.421875
 20
-5101.017578125
 10
4881.404296875
 20
-5101.017578125
 10
4891.38671875
 20
-5101.017578125
 10
4901.369140625
 20
-5101.017578125
 10
4911.3515625
 20
-5101.017578125
 10
4921.333984375
 20
-5101.017578125
 10
4931.31640625
 20
-5101.017578125
 10
4941.298828125
 20
-5101.017578125
 10
4951.28125
 20
-5101.017578125
 10
4961.263671875
 20
-5101.017578125
 10
4971.24609375
 20
-5101.017578125
 10
4981.228515625
 20
-5101.017578125
 10
4991.2109375
 20
-5101.017578125
 10
5001.193359375
 20
-5101.017578125
 10
5011.17578125
 20
-5101.017578125
 10
5021.158203125
 20
-5101.017578125
 10
5031.140625
 20
-5101.017578125
 10
5041.123046875
 20
-5101.017578125
 10
5051.10546875
 20
-5101.017578125
 10
5061.087890625
 20
-5101.017578125
 10
5071.0703125
 20
-5101.017578125
 10
5081.052734375
 20
-5101.017578125
 10
5091.03515625
 20
-5101.017578125
 10
5101.017578125
 20
-5101.017578125
 10
5101.017578125
 20
-5091.03515625
 10
5101.017578125
 20
-5081.052734375
 10
5101.017578125
 20
-5071.0703125
 10
5101.017578125
 20
-5061.087890625
 10
5101.017578125
 20
-5051.10546875
 10
5101.017578125
 20
-5041.123046875
 10
5101.017578125
 20
-5031.140625
 10
5101.017578125
 20
-5021.158203125
 10
5101.017578125
 20
-5011.17578125
 10
5101.017578125
 20
-5001.193359375
 10
5101.017578125
 20
-4991.2109375
 10
5101.017578125
 20
-4981.228515625
 10
5101.017578125
 20
-4971.24609375
 10
5101.017578125
 20
-4961.263671875
 10
5101.017578125
 20
-4951.28125
 10
5101.017578125
 20
-4941.298828125
 10
5101.017578125
 20
-4931.31640625
 10
5101.017578125
 20
-4921.333984375
 10
5101.017578125
 20
-4911.3515625
 10
5101.017578125
 20
-4901.369140625
 10
5101.017578125
 20
-4891.38671875
 10
5101.017578125
 20
-4881.404296875
 10
5101.017578125
 20
-4871.421875
 10
5101.017578125
 20
-4861.439453125
 10
5101.017578125
 20
-4851.45703125
 10
5101.017578125
 20
-4841.474609375
 10
5101.017578125
 20
-4831.4921875
 10
5101.017578125
 20
-4821.509765625
 10
5101.017578125
 20
-4811.52734375
 10
5101.017578125
 20
-4801.544921875
 10
5101.017578125
 20
-4791.5625
 10
5101.017578125
 20
-4781.580078125
 10
5101.017578125
 20
-4771.59765625
 10
5101.017578125
 20
-4761.615234375
 10
5101.017578125
 20
-4751.6328125
 10
5101.017578125
 20
-4741.650390625
 10
5101.017578125
 20
-4731.66796875
 10
5101.017578125
 20
-4721.685546875
 10
5101.017578125
 20
-4711.703125
 10
5101.017578125
 20
-4701.720703125
 10
5101.017578125
 20
-4691.73828125
 10
5101.017578125
 20
-4681.755859375
 10
5101.017578125
 20
-4671.7734375
 10
5101.017578125
 20
-4661.791015625
 10
5101.017578125
 20
-4651.80859375
 10
5101.017578125
 20
-4641.826171875
 10
5101.017578125
 20
-4631.84375
 10
5101.017578125
 20
-4621.861328125
 10
5101.017578125
 20
-4611.87890625
 10
5101.017578125
 20
-4601.896484375
 10
5101.017578125
 20
-4591.9140625
 10
5101.017578125
 20
-4581.931640625
 10
5101.017578125
 20
-4571.94921875
 10
5101.017578125
 20
-4561.966796875
 10
5101.017578125
 20
-4551.984375
 10
5101.017578125
 20
-4542.001953125
 10
5101.017578125
 20
-4532.01953125
 10
5101.017578125
 20
-4522.037109375
 10
5101.017578125
 20
-4512.0546875
 10
5101.017578125
 20
-4502.072265625
 10
5101.017578125
 20
-4492.08984375
 10
5101.017578125
 20
-4482.107421875
 10
5101.017578125
 20
-4472.125
 10
5101.017578125
 20
-4462.142578125
 10
5101.017578125
 20
-4452.16015625
 10
5101.017578125
 20
-4442.177734375
 10
5101.017578125
 20
-4432.1953125
 10
5101.017578125
 20
-4422.212890625
 10
5101.017578125
 20
-4412.23046875
 10
5101.017578125
 20
-4402.248046875
 10
5101.017578125
 20
-4392.265625
 10
5101.017578125
 20
-4382.283203125
 10
5101.017578125
 20
-4372.30078125
 10
5101.017578125
 20
-4362.318359375
 10
5101.017578125
 20
-4352.3359375
 10
5101.017578125
 20
-4342.353515625
 10
5101.017578125
 20
-4332.37109375
 10
5101.017578125
 20
-4322.388671875
 10
5101.017578125
 20
-4312.40625
 10
5101.017578125
 20
-4302.423828125
 10
5101.017578125
 20
-4292.44140625
 10
5101.017578125
 20
-4282.458984375
 10
5101.017578125
 20
-4272.4765625
 10
5101.017578125
 20
-4262.494140625
 10
5101.017578125
 20
-4252.51171875
 10
5101.017578125
 20
-4242.529296875
 10
5101.017578125
 20
-4232.546875
 10
5101.017578125
 20
-4222.564453125
 10
5101.017578125
 20
-4212.58203125
 10
5101.017578125
 20
-4202.599609375
 10
5101.017578125
 20
-4192.6171875
 10
5101.017578125
 20
-4182.634765625
 10
5101.017578125
 20
-4172.65234375
 10
5101.017578125
 20
-4162.669921875
 10
5101.017578125
 20
-4152.6875
 10
5101.017578125
 20
-4142.705078125
 10
5101.017578125
 20
-4132.72265625
 10
5101.017578125
 20
-4122.740234375
 10
5101.017578125
 20
-4112.7578125
 10
5101.017578125
 20
-4102.775390625
 10
5101.017578125
 20
-4092.79296875
 10
5101.017578125
 20
-4082.810546875
 10
5101.017578125
 20
-4072.828125
 10
5101.017578125
 20
-4062.845703125
 10
5101.017578125
 20
-4052.86328125
 10
5101.017578125
 20
-4042.880859375
 10
5101.017578125
 20
-4032.8984375
 10
5101.017578125
 20
-4022.916015625
 10
5101.017578125
 20
-4012.93359375
 10
5101.017578125
 20
-4002.951171875
 10
5101.017578125
 20
-3992.96875
 10
5101.017578125
 20
-3982.986328125
 10
5101.017578125
 20
-3973.00390625
 10
5101.017578125
 20
-3963.021484375
 10
5101.017578125
 20
-3953.0390625
 10
5101.017578125
 20
-3943.056640625
 10
5101.017578125
 20
-3933.07421875
 10
5101.017578125
 20
-3923.091796875
 10
5101.017578125
 20
-3913.109375
 10
5101.017578125
 20
-3903.126953125
 10
5101.017578125
 20
-3893.14453125
 10
5101.017578125
 20
-3883.162109375
 10
5101.017578125
 20
-3873.1796875
 10
5101.017578125
 20
-3863.197265625
 10
5101.017578125
 20
-3853.21484375
 10
5101.017578125
 20
-3843.232421875
 10
5101.017578125
 20
-3833.25
 10
5101.017578125
 20
-3823.267578125
 10
5101.017578125
 20
-3813.28515625
 10
5101.017578125
 20
-3803.302734375
 10
5101.017578125
 20
-3793.3203125
 10
5101.017578125
 20
-3783.337890625
 10
5101.017578125
 20
-3773.35546875
 10
5101.017578125
 20
-3763.373046875
 10
5101.017578125
 20
-3753.390625
 10
5101.017578125
 20
-3743.408203125
 10
5101.017578125
 20
-3733.42578125
 10
5101.017578125
 20
-3723.443359375
 10
5101.017578125
 20
-3713.4609375
 10
5101.017578125
 20
-3703.478515625
 10
5101.017578125
 20
-3693.49609375
 10
5101.017578125
 20
-3683.513671875
 10
5101.017578125
 20
-3673.53125
 10
5101.017578125
 20
-3663.548828125
 10
5101.017578125
 20
-3653.56640625
 10
5101.017578125
 20
-3643.583984375
 10
5101.017578125
 20
-3633.6015625
 10
5101.017578125
 20
-3623.619140625
 10
5101.017578125
 20
-3613.63671875
 10
5101.017578125
 20
-3603.654296875
 10
5101.017578125
 20
-3593.671875
 10
5101.017578125
 20
-3583.689453125
 10
5101.017578125
 20
-3573.70703125
 10
5101.017578125
 20
-3563.724609375
 10
5101.017578125
 20
-3553.7421875
 10
5101.017578125
 20
-3543.759765625
 10
5101.017578125
 20
-3533.77734375
 10
5101.017578125
 20
-3523.794921875
 10
5101.017578125
 20
-3513.8125
 10
5101.017578125
 20
-3503.830078125
 10
5101.017578125
 20
-3493.84765625
 10
5101.017578125
 20
-3483.865234375
 10
5101.017578125
 20
-3473.8828125
 10
5101.017578125
 20
-3463.900390625
 10
5101.017578125
 20
-3453.91796875
 10
5101.017578125
 20
-3443.935546875
 10
5101.017578125
 20
-3433.953125
 10
5101.017578125
 20
-3423.970703125
 10
5101.017578125
 20
-3413.98828125
 10
5101.017578125
 20
-3404.005859375
 10
5101.017578125
 20
-3394.0234375
 10
5101.017578125
 20
-3384.041015625
 10
5101.017578125
 20
-3374.05859375
 10
5101.017578125
 20
-3364.076171875
 10
5101.017578125
 20
-3354.09375
 10
5101.017578125
 20
-3344.111328125
 10
5101.017578125
 20
-3334.12890625
 10
5101.017578125
 20
-3324.146484375
 10
5101.017578125
 20
-3314.1640625
 10
5101.017578125
 20
-3304.181640625
 10
5101.017578125
 20
-3294.19921875
 10
5101.017578125
 20
-3284.216796875
 10
5101.017578125
 20
-3274.234375
 10
5101.017578125
 20
-3264.251953125
 10
5101.017578125
 20
-3254.26953125
 10
5101.017578125
 20
-3244.287109375
 10
5101.017578125
 20
-3234.3046875
 10
5101.017578125
 20
-3224.322265625
 10
5101.017578125
 20
-3214.33984375
 10
5101.017578125
 20
-3204.357421875
 10
5101.017578125
 20
-3194.375
 10
5101.017578125
 20
-3184.392578125
 10
5101.017578125
 20
-3174.41015625
 10
5101.017578125
 20
-3164.427734375
 10
5101.017578125
 20
-3154.4453125
 10
5101.017578125
 20
-3144.462890625
 10
5101.017578125
 20
-3134.48046875
 10
5101.017578125
 20
-3124.498046875
 10
5101.017578125
 20
-3114.515625
 10
5101.017578125
 20
-3104.533203125
 10
5101.017578125
 20
-3094.55078125
 10
5101.017578125
 20
-3084.568359375
 10
5101.017578125
 20
-3074.5859375
 10
5101.017578125
 20
-3064.603515625
 10
5101.017578125
 20
-3054.62109375
 10
5101.017578125
 20
-3044.638671875
 10
5101.017578125
 20
-3034.65625
 10
5101.017578125
 20
-3024.673828125
 10
5101.017578125
 20
-3014.69140625
 10
5101.017578125
 20
-3004.708984375
 10
5101.017578125
 20
-2994.7265625
 10
5101.017578125
 20
-2984.744140625
 10
5101.017578125
 20
-2974.76171875
 10
5101.017578125
 20
-2964.779296875
 10
5101.017578125
 20
-2954.796875
 10
5101.017578125
 20
-2944.814453125
 10
5101.017578125
 20
-2934.83203125
 10
5101.017578125
 20
-2924.849609375
 10
5101.017578125
 20
-2914.8671875
 10
5101.017578125
 20
-2904.884765625
 10
5101.017578125
 20
-2894.90234375
 10
5101.017578125
 20
-2884.919921875
 10
5101.017578125
 20
-2874.9375
 10
5101.017578125
 20
-2864.955078125
 10
5101.017578125
 20
-2854.97265625
 10
5101.017578125
 20
-2844.990234375
 10
5101.017578125
 20
-2835.0078125
 10
5101.017578125
 20
-2825.025390625
 10
5101.017578125
 20
-2815.04296875
 10
5101.017578125
 20
-2805.060546875
 10
5101.017578125
 20
-2795.078125
 10
5101.017578125
 20
-2785.095703125
 10
5101.017578125
 20
-2775.11328125
 10
5101.017578125
 20
-2765.130859375
 10
5101.017578125
 20
-2755.1484375
 10
5101.017578125
 20
-2745.166015625
 10
5101.017578125
 20
-2735.18359375
 10
5101.017578125
 20
-2725.201171875
 10
5101.017578125
 20
-2715.21875
 10
5101.017578125
 20
-2705.236328125
 10
5101.017578125
 20
-2695.25390625
 10
5101.017578125
 20
-2685.271484375
 10
5101.017578125
 20
-2675.2890625
 10
5101.017578125
 20
-2665.306640625
 10
5101.017578125
 20
-2655.32421875
 10
5101.017578125
 20
-2645.341796875
 10
5101.017578125
 20
-2635.359375
 10
5101.017578125
 20
-2625.376953125
 10
5101.017578125
 20
-2615.39453125
 10
5101.017578125
 20
-2605.412109375
 10
5101.017578125
 20
-2595.4296875
 10
5101.017578125
 20
-2585.447265625
 10
5101.017578125
 20
-2575.46484375
 10
5101.017578125
 20
-2565.482421875
 10
5101.017578125
 20
-2555.5
 10
5101.017578125
 20
-2545.517578125
 10
5101.017578125
 20
-2535.53515625
 10
5101.017578125
 20
-2525.552734375
 10
5101.017578125
 20
-2515.5703125
 10
5101.017578125
 20
-2505.587890625
 10
5101.017578125
 20
-2495.60546875
 10
5101.017578125
 20
-2485.623046875
 10
5101.017578125
 20
-2475.640625
 10
5101.017578125
 20
-2465.658203125
 10
5101.017578125
 20
-2455.67578125
 10
5101.017578125
 20
-2445.693359375
 10
5101.017578125
 20
-2435.7109375
 10
5101.017578125
 20
-2425.728515625
 10
5101.017578125
 20
-2415.74609375
 10
5101.017578125
 20
-2405.763671875
 10
5101.017578125
 20
-2395.78125
 10
5101.017578125
 20
-2385.798828125
 10
5101.017578125
 20
-2375.81640625
 10
5101.017578125
 20
-2365.833984375
 10
5101.017578125
 20
-2355.8515625
 10
5101.017578125
 20
-2345.869140625
 10
5101.017578125
 20
-2335.88671875
 10
5101.017578125
 20
-2325.904296875
 10
5101.017578125
 20
-2315.921875
 10
5101.017578125
 20
-2305.939453125
 10
5101.017578125
 20
-2295.95703125
 10
5101.017578125
 20
-2285.974609375
 10
5101.017578125
 20
-2275.9921875
 10
5101.017578125
 20
-2266.009765625
 10
5101.017578125
 20
-2256.02734375
 10
5101.017578125
 20
-2246.044921875
 10
5101.017578125
 20
-2236.0625
 10
5101.017578125
 20
-2226.080078125
 10
5101.017578125
 20
-2216.09765625
 10
5101.017578125
 20
-2206.115234375
 10
5101.017578125
 20
-2196.1328125
 10
5101.017578125
 20
-2186.150390625
 10
5101.017578125
 20
-2176.16796875
 10
5101.017578125
 20
-2166.185546875
 10
5101.017578125
 20
-2156.203125
 10
5101.017578125
 20
-2146.220703125
 10
5101.017578125
 20
-2136.23828125
 10
5101.017578125
 20
-2126.255859375
 10
5101.017578125
 20
-2116.2734375
 10
5101.017578125
 20
-2106.291015625
 10
5101.017578125
 20
-2096.30859375
 10
5101.017578125
 20
-2086.326171875
 10
5101.017578125
 20
-2076.34375
 10
5101.017578125
 20
-2066.361328125
 10
5101.017578125
 20
-2056.37890625
 10
5101.017578125
 20
-2046.396484375
 10
5101.017578125
 20
-2036.4140625
 10
5101.017578125
 20
-2026.431640625
 10
5101.017578125
 20
-2016.44921875
 10
5101.017578125
 20
-2006.466796875
 10
5101.017578125
 20
-1996.484375
 10
5101.017578125
 20
-1986.501953125
 10
5101.017578125
 20
-1976.51953125
 10
5101.017578125
 20
-1966.537109375
 10
5101.017578125
 20
-1956.5546875
 10
5101.017578125
 20
-1946.572265625
 10
5101.017578125
 20
-1936.58984375
 10
5101.017578125
 20
-1926.607421875
 10
5101.017578125
 20
-1916.625
 10
5101.017578125
 20
-1906.642578125
 10
5101.017578125
 20
-1896.66015625
 10
5101.017578125
 20
-1886.677734375
 10
5101.017578125
 20
-1876.6953125
 10
5101.017578125
 20
-1866.712890625
 10
5101.017578125
 20
-1856.73046875
 10
5101.017578125
 20
-1846.748046875
 10
5101.017578125
 20
-1836.765625
 10
5101.017578125
 20
-1826.783203125
 10
5101.017578125
 20
-1816.80078125
 10
5101.017578125
 20
-1806.818359375
 10
5101.017578125
 20
-1796.8359375
 10
5101.017578125
 20
-1786.853515625
 10
5101.017578125
 20
-1776.87109375
 10
5101.017578125
 20
-1766.888671875
 10
5101.017578125
 20
-1756.90625
 10
5101.017578125
 20
-1746.923828125
 10
5101.017578125
 20
-1736.94140625
 10
5101.017578125
 20
-1726.958984375
 10
5101.017578125
 20
-1716.9765625
 10
5101.017578125
 20
-1706.994140625
 10
5101.017578125
 20
-1697.01171875
 10
5101.017578125
 20
-1687.029296875
 10
5101.017578125
 20
-1677.046875
 10
5101.017578125
 20
-1667.064453125
 10
5101.017578125
 20
-1657.08203125
 10
5101.017578125
 20
-1647.099609375
 10
5101.017578125
 20
-1637.1171875
 10
5101.017578125
 20
-1627.134765625
 10
5101.017578125
 20
-1617.15234375
 10
5101.017578125
 20
-1607.169921875
 10
5101.017578125
 20
-1597.1875
 10
5101.017578125
 20
-1587.205078125
 10
5101.017578125
 20
-1577.22265625
 10
5101.017578125
 20
-1567.240234375
 10
5101.017578125
 20
-1557.2578125
 10
5101.017578125
 20
-1547.275390625
 10
5101.017578125
 20
-1537.29296875
 10
5101.017578125
 20
-1527.310546875
 10
5101.017578125
 20
-1517.328125
 10
5101.017578125
 20
-1507.345703125
 10
5101.017578125
 20
-1497.36328125
 10
5101.017578125
 20
-1487.380859375
 10
5101.017578125
 20
-1477.3984375
 10
5101.017578125
 20
-1467.416015625
 10
5101.017578125
 20
-1457.43359375
 10
5101.017578125
 20
-1447.451171875
 10
5101.017578125
 20
-1437.46875
 10
5101.017578125
 20
-1427.486328125
 10
5101.017578125
 20
-1417.50390625
 10
5101.017578125
 20
-1407.521484375
 10
5101.017578125
 20
-1397.5390625
 10
5101.017578125
 20
-1387.556640625
 10
5101.017578125
 20
-1377.57421875
 10
5101.017578125
 20
-1367.591796875
 10
5101.017578125
 20
-1357.609375
 10
5101.017578125
 20
-1347.626953125
 10
5101.017578125
 20
-1337.64453125
 10
5101.017578125
 20
-1327.662109375
 10
5101.017578125
 20
-1317.6796875
 10
5101.017578125
 20
-1307.697265625
 10
5101.017578125
 20
-1297.71484375
 10
5101.017578125
 20
-1287.732421875
 10
5101.017578125
 20
-1277.75
 10
5101.017578125
 20
-1267.767578125
 10
5101.017578125
 20
-1257.78515625
 10
5101.017578125
 20
-1247.802734375
 10
5101.017578125
 20
-1237.8203125
 10
5101.017578125
 20
-1227.837890625
 10
5101.017578125
 20
-1217.85546875
 10
5101.017578125
 20
-1207.873046875
 10
5101.017578125
 20
-1197.890625
 10
5101.017578125
 20
-1187.908203125
 10
5101.017578125
 20
-1177.92578125
 10
5101.017578125
 20
-1167.943359375
 10
5101.017578125
 20
-1157.9609375
 10
5101.017578125
 20
-1147.978515625
 10
5101.017578125
 20
-1137.99609375
 10
5101.017578125
 20
-1128.013671875
 10
5101.017578125
 20
-1118.03125
 10
5101.017578125
 20
-1108.048828125
 10
5101.017578125
 20
-1098.06640625
 10
5101.017578125
 20
-1088.083984375
 10
5101.017578125
 20
-1078.1015625
 10
5101.017578125
 20
-1068.119140625
 10
5101.017578125
 20
-1058.13671875
 10
5101.017578125
 20
-1048.154296875
 10
5101.017578125
 20
-1038.171875
 10
5101.017578125
 20
-1028.189453125
 10
5101.017578125
 20
-1018.20703125
 10
5101.017578125
 20
-1008.224609375
 10
5101.017578125
 20
-998.2421875
 10
5101.017578125
 20
-988.259765625
 10
5101.017578125
 20
-978.27734375
 10
5101.017578125
 20
-968.294921875
 10
5101.017578125
 20
-958.3125
 10
5101.017578125
 20
-948.330078125
 10
5101.017578125
 20
-938.34765625
 10
5101.017578125
 20
-928.365234375
 10
5101.017578125
 20
-918.3828125
 10
5101.017578125
 20
-908.400390625
 10
5101.017578125
 20
-898.41796875
 10
5101.017578125
 20
-888.435546875
 10
5101.017578125
 20
-878.453125
 10
5101.017578125
 20
-868.470703125
 10
5101.017578125
 20
-858.48828125
 10
5101.017578125
 20
-848.505859375
 10
5101.017578125
 20
-838.5234375
 10
5101.017578125
 20
-828.541015625
 10
5101.017578125
 20
-818.55859375
 10
5101.017578125
 20
-808.576171875
 10
5101.017578125
 20
-798.59375
 10
5101.017578125
 20
-788.611328125
 10
5101.017578125
 20
-778.62890625
 10
5101.017578125
 20
-768.646484375
 10
5101.017578125
 20
-758.6640625
 10
5101.017578125
 20
-748.681640625
 10
5101.017578125
 20
-738.69921875
 10
5101.017578125
 20
-728.716796875
 10
5101.017578125
 20
-718.734375
 10
5101.017578125
 20
-708.751953125
 10
5101.017578125
 20
-698.76953125
 10
5101.017578125
 20
-688.787109375
 10
5101.017578125
 20
-678.8046875
 10
5101.017578125
 20
-668.822265625
 10
5101.017578125
 20
-658.83984375
 10
5101.017578125
 20
-648.857421875
 10
5101.017578125
 20
-638.875
 10
5101.017578125
 20
-628.892578125
 10
5101.017578125
 20
-618.91015625
 10
5101.017578125
 20
-608.927734375
 10
5101.017578125
 20
-598.9453125
 10
5101.017578125
 20
-588.962890625
 10
5101.017578125
 20
-578.98046875
 10
5101.017578125
 20
-568.998046875
 10
5101.017578125
 20
-559.015625
 10
5101.017578125
 20
-549.033203125
 10
5101.017578125
 20
-539.05078125
 10
5101.017578125
 20
-529.068359375
 10
5101.017578125
 20
-519.0859375
 10
5101.017578125
 20
-509.103515625
 10
5101.017578125
 20
-499.12109375
 10
5101.017578125
 20
-489.138671875
 10
5101.017578125
 20
-479.15625
 10
5101.017578125
 20
-469.173828125
 10
5101.017578125
 20
-459.19140625
 10
5101.017578125
 20
-449.208984375
 10
5101.017578125
 20
-439.2265625
 10
5101.017578125
 20
-429.244140625
 10
5101.017578125
 20
-419.26171875
 10
5101.017578125
 20
-409.279296875
 10
5101.017578125
 20
-399.296875
 10
5101.017578125
 20
-389.314453125
 10
5101.017578125
 20
-379.33203125
 10
5101.017578125
 20
-369.349609375
 10
5101.017578125
 20
-359.3671875
 10
5101.017578125
 20
-349.384765625
 10
5101.017578125
 20
-339.40234375
 10
5101.017578125
 20
-329.419921875
 10
5101.017578125
 20
-319.4375
 10
5101.017578125
 20
-309.455078125
 10
5101.017578125
 20
-299.47265625
 10
5101.017578125
 20
-289.490234375
 10
5101.017578125
 20
-279.5078125
 10
5101.017578125
 20
-269.525390625
 10
5101.017578125
 20
-259.54296875
 10
5101.017578125
 20
-249.560546875
 10
5101.017578125
 20
-239.578125
 10
5101.017578125
 20
-229.595703125
 10
5101.017578125
 20
-219.61328125
 10
5101.017578125
 20
-209.630859375
 10
5101.017578125
 20
-199.6484375
 10
5101.017578125
 20
-189.666015625
 10
5101.017578125
 20
-179.68359375
 10
5101.017578125
 20
-169.701171875
 10
5101.017578125
 20
-159.71875
 10
5101.017578125
 20
-149.736328125
 10
5101.017578125
 20
-139.75390625
 10
5101.017578125
 20
-129.771484375
 10
5101.017578125
 20
-119.7890625
 10
5101.017578125
 20
-109.806640625
 10
5101.017578125
 20
-99.82421875
 10
5101.017578125
 20
-89.841796875
 10
5101.017578125
 20
-79.859375
 10
5101.017578125
 20
-69.876953125
 10
5101.017578125
 20
-59.89453125
 10
5101.017578125
 20
-49.912109375
 10
5101.017578125
 20
-39.9296875
 10
5101.017578125
 20
-29.947265625
 10
5101.017578125
 20
-19.96484375
 10
5101.017578125
 20
-9.982421875
 10
5101.017578125
 20
-0.0
 10
5091.03515625
 20
-0.0
 10
5081.052734375
 20
-0.0
 10
5071.0703125
 20
-0.0
 10
5061.087890625
 20
-0.0
 10
5051.10546875
 20
-0.0
 10
5041.123046875
 20
-0.0
 10
5031.140625
 20
-0.0
 10
5021.158203125
 20
-0.0
 10
5011.17578125
 20
-0.0
 10
5001.193359375
 20
-0.0
 10
4991.2109375
 20
-0.0
 10
4981.228515625
 20
-0.0
 10
4971.24609375
 20
-0.0
 10
4961.263671875
 20
-0.0
 10
4951.28125
 20
-0.0
 10
4941.298828125
 20
-0.0
 10
4931.31640625
 20
-0.0
 10
4921.333984375
 20
-0.0
 10
4911.3515625
 20
-0.0
 10
4901.369140625
 20
-0.0
 10
4891.38671875
 20
-0.0
 10
4881.404296875
 20
-0.0
 10
4871.421875
 20
-0.0
 10
4861.439453125
 20
-0.0
 10
4851.45703125
 20
-0.0
 10
4841.474609375
 20
-0.0
 10
4831.4921875
 20
-0.0
 10
4821.509765625
 20
-0.0
 10
4811.52734375
 20
-0.0
 10
4801.544921875
 20
-0.0
 10
4791.5625
 20
-0.0
 10
4781.580078125
 20
-0.0
 10
4771.59765625
 20
-0.0
 10
4761.615234375
 20
-0.0
 10
4751.6328125
 20
-0.0
 10
4741.650390625
 20
-0.0
 10
4731.66796875
 20
-0.0
 10
4721.685546875
 20
-0.0
 10
4711.703125
 20
-0.0
 10
4701.720703125
 20
-0.0
 10
4691.73828125
 20
-0.0
 10
4681.755859375
 20
-0.0
 10
4671.7734375
 20
-0.0
 10
4661.791015625
 20
-0.0
 10
4651.80859375
 20
-0.0
 10
4641.826171875
 20
-0.0
 10
4631.84375
 20
-0.0
 10
4621.861328125
 20
-0.0
 10
4611.87890625
 20
-0.0
 10
4601.896484375
 20
-0.0
 10
4591.9140625
 20
-0.0
 10
4581.931640625
 20
-0.0
 10
4571.94921875
 20
-0.0
 10
4561.966796875
 20
-0.0
 10
4551.984375
 20
-0.0
 10
4542.001953125
 20
-0.0
 10
4532.01953125
 20
-0.0
 10
4522.037109375
 20
-0.0
 10
4512.0546875
 20
-0.0
 10
4502.072265625
 20
-0.0
 10
4492.08984375
 20
-0.0
 10
4482.107421875
 20
-0.0
 10
4472.125
 20
-0.0
 10
4462.142578125
 20
-0.0
 10
4452.16015625
 20
-0.0
 10
4442.177734375
 20
-0.0
 10
4432.1953125
 20
-0.0
 10
4422.212890625
 20
-0.0
 10
4412.23046875
 20
-0.0
 10
4402.248046875
 20
-0.0
 10
4392.265625
 20
-0.0
 10
4382.283203125
 20
-0.0
 10
4372.30078125
 20
-0.0
 10
4362.318359375
 20
-0.0
 10
4352.3359375
 20
-0.0
 10
4342.353515625
 20
-0.0
 10
4332.37109375
 20
-0.0
 10
4322.388671875
 20
-0.0
 10
4312.40625
 20
-0.0
 10
4302.423828125
 20
-0.0
 10
4292.44140625
 20
-0.0
 10
4282.458984375
 20
-0.0
 10
4272.4765625
 20
-0.0
 10
4262.494140625
 20
-0.0
 10
4252.51171875
 20
-0.0
 10
4242.529296875
 20
-0.0
 10
4232.546875
 20
-0.0
 10
4222.564453125
 20
-0.0
 10
4212.58203125
 20
-0.0
 10
4202.599609375
 20
-0.0
 10
4192.6171875
 20
-0.0
 10
4182.634765625
 20
-0.0
 10
4172.65234375
 20
-0.0
 10
4162.669921875
 20
-0.0
 10
4152.6875
 20
-0.0
 10
4142.705078125
 20
-0.0
 10
4132.72265625
 20
-0.0
 10
4122.740234375
 20
-0.0
 10
4112.7578125
 20
-0.0
 10
4102.775390625
 20
-0.0
 10
4092.79296875
 20
-0.0
 10
4082.810546875
 20
-0.0
 10
4072.828125
 20
-0.0
 10
4062.845703125
 20
-0.0
 10
4052.86328125
 20
-0.0
 10
4042.880859375
 20
-0.0
 10
4032.8984375
 20
-0.0
 10
4022.916015625
 20
-0.0
 10
4012.93359375
 20
-0.0
 10
4002.951171875
 20
-0.0
 10
3992.96875
 20
-0.0
 10
3982.986328125
 20
-0.0
 10
3973.00390625
 20
-0.0
 10
3963.021484375
 20
-0.0
 10
3953.0390625
 20
-0.0
 10
3943.056640625
 20
-0.0
 10
3933.07421875
 20
-0.0
 10
3923.091796875
 20
-0.0
 10
3913.109375
 20
-0.0
 10
3903.126953125
 20
-0.0
 10
3893.14453125
 20
-0.0
 10
3883.162109375
 20
-0.0
 10
3873.1796875
 20
-0.0
 10
3863.197265625
 20
-0.0
 10
3853.21484375
 20
-0.0
 10
3843.232421875
 20
-0.0
 10
3833.25
 20
-0.0
 10
3823.267578125
 20
-0.0
 10
3813.28515625
 20
-0.0
 10
3803.302734375
 20
-0.0
 10
3793.3203125
 20
-0.0
 10
3783.337890625
 20
-0.0
 10
3773.35546875
 20
-0.0
 10
3763.373046875
 20
-0.0
 10
3753.390625
 20
-0.0
 10
3743.408203125
 20
-0.0
 10
3733.42578125
 20
-0.0
 10
3723.443359375
 20
-0.0
 10
3713.4609375
 20
-0.0
 10
3703.478515625
 20
-0.0
 10
3693.49609375
 20
-0.0
 10
3683.513671875
 20
-0.0
 10
3673.53125
 20
-0.0
 10
3663.548828125
 20
-0.0
 10
3653.56640625
 20
-0.0
 10
3643.583984375
 20
-0.0
 10
3633.6015625
 20
-0.0
 10
3623.619140625
 20
-0.0
 10
3613.63671875
 20
-0.0
 10
3603.654296875
 20
-0.0
 10
3593.671875
 20
-0.0
 10
3583.689453125
 20
-0.0
 10
3573.70703125
 20
-0.0
 10
3563.724609375
 20
-0.0
 10
3553.7421875
 20
-0.0
 10
3543.759765625
 20
-0.0
 10
3533.77734375
 20
-0.0
 10
3523.794921875
 20
-0.0
 10
3513.8125
 20
-0.0
 10
3503.830078125
 20
-0.0
 10
3493.84765625
 20
-0.0
 10
3483.865234375
 20
-0.0
 10
3473.8828125
 20
-0.0
 10
3463.900390625
 20
-0.0
 10
3453.91796875
 20
-0.0
 10
3443.935546875
 20
-0.0
 10
3433.953125
 20
-0.0
 10
3423.970703125
 20
-0.0
 10
3413.98828125
 20
-0.0
 10
3404.005859375
 20
-0.0
 10
3394.0234375
 20
-0.0
 10
3384.041015625
 20
-0.0
 10
3374.05859375
 20
-0.0
 10
3364.076171875
 20
-0.0
 10
3354.09375
 20
-0.0
 10
3344.111328125
 20
-0.0
 10
3334.12890625
 20
-0.0
 10
3324.146484375
 20
-0.0
 10
3314.1640625
 20
-0.0
 10
3304.181640625
 20
-0.0
 10
3294.19921875
 20
-0.0
 10
3284.216796875
 20
-0.0
 10
3274.234375
 20
-0.0
 10
3264.251953125
 20
-0.0
 10
3254.26953125
 20
-0.0
 10
3244.287109375
 20
-0.0
 10
3234.3046875
 20
-0.0
 10
3224.322265625
 20
-0.0
 10
3214.33984375
 20
-0.0
 10
3204.357421875
 20
-0.0
 10
3194.375
 20
-0.0
 10
3184.392578125
 20
-0.0
 10
3174.41015625
 20
-0.0
 10
3164.427734375
 20
-0.0
 10
3154.4453125
 20
-0.0
 10
3144.462890625
 20
-0.0
 10
3134.48046875
 20
-0.0
 10
3124.498046875
 20
-0.0
 10
3114.515625
 20
-0.0
 10
3104.533203125
 20
-0.0
 10
3094.55078125
 20
-0.0
 10
3084.568359375
 20
-0.0
 10
3074.5859375
 20
-0.0
 10
3064.603515625
 20
-0.0
 10
3054.62109375
 20
-0.0
 10
3044.638671875
 20
-0.0
 10
3034.65625
 20
-0.0
 10
3024.673828125
 20
-0.0
 10
3014.69140625
 20
-0.0
 10
3004.708984375
 20
-0.0
 10
2994.7265625
 20
-0.0
 10
2984.744140625
 20
-0.0
 10
2974.76171875
 20
-0.0
 10
2964.779296875
 20
-0.0
 10
2954.796875
 20
-0.0
 10
2944.814453125
 20
-0.0
 10
2934.83203125
 20
-0.0
 10
2924.849609375
 20
-0.0
 10
2914.8671875
 20
-0.0
 10
2904.884765625
 20
-0.0
 10
2894.90234375
 20
-0.0
 10
2884.919921875
 20
-0.0
 10
2874.9375
 20
-0.0
 10
2864.955078125
 20
-0.0
 10
2854.97265625
 20
-0.0
 10
2844.990234375
 20
-0.0
 10
2835.0078125
 20
-0.0
 10
2825.025390625
 20
-0.0
 10
2815.04296875
 20
-0.0
 10
2805.060546875
 20
-0.0
 10
2795.078125
 20
-0.0
 10
2785.095703125
 20
-0.0
 10
2775.11328125
 20
-0.0
 10
2765.130859375
 20
-0.0
 10
2755.1484375
 20
-0.0
 10
2745.166015625
 20
-0.0
 10
2735.18359375
 20
-0.0
 10
2725.201171875
 20
-0.0
 10
2715.21875
 20
-0.0
 10
2705.236328125
 20
-0.0
 10
2695.25390625
 20
-0.0
 10
2685.271484375
 20
-0.0
 10
2675.2890625
 20
-0.0
 10
2665.306640625
 20
-0.0
 10
2655.32421875
 20
-0.0
 10
2645.341796875
 20
-0.0
 10
2635.359375
 20
-0.0
 10
2625.376953125
 20
-0.0
 10
2615.39453125
 20
-0.0
 10
2605.412109375
 20
-0.0
 10
2595.4296875
 20
-0.0
 10
2585.447265625
 20
-0.0
 10
2575.46484375
 20
-0.0
 10
2565.482421875
 20
-0.0
 10
2555.5
 20
-0.0
 10
2545.517578125
 20
-0.0
 10
2535.53515625
 20
-0.0
 10
2525.552734375
 20
-0.0
 10
2515.5703125
 20
-0.0
 10
2505.587890625
 20
-0.0
 10
2495.60546875
 20
-0.0
 10
2485.623046875
 20
-0.0
 10
2475.640625
 20
-0.0
 10
2465.658203125
 20
-0.0
 10
2455.67578125
 20
-0.0
 10
2445.693359375
 20
-0.0
 10
2435.7109375
 20
-0.0
 10
2425.728515625
 20
-0.0
 10
2415.74609375
 20
-0.0
 10
2405.763671875
 20
-0.0
 10
2395.78125
 20
-0.0
 10
2385.798828125
 20
-0.0
 10
2375.81640625
 20
-0.0
 10
2365.833984375
 20
-0.0
 10
2355.8515625
 20
-0.0
 10
2345.869140625
 20
-0.0
 10
2335.88671875
 20
-0.0
 10
2325.904296875
 20
-0.0
 10
2315.921875
 20
-0.0
 10
2305.939453125
 20
-0.0
 10
2295.95703125
 20
-0.0
 10
2285.974609375
 20
-0.0
 10
2275.9921875
 20
-0.0
 10
2266.009765625
 20
-0.0
 10
2256.02734375
 20
-0.0
 10
2246.044921875
 20
-0.0
 10
2236.0625
 20
-0.0
 10
2226.080078125
 20
-0.0
 10
2216.09765625
 20
-0.0
 10
2206.115234375
 20
-0.0
 10
2196.1328125
 20
-0.0
 10
2186.150390625
 20
-0.0
 10
2176.16796875
 20
-0.0
 10
2166.185546875
 20
-0.0
 10
2156.203125
 20
-0.0
 10
2146.220703125
 20
-0.0
 10
2136.23828125
 20
-0.0
 10
2126.255859375
 20
-0.0
 10
2116.2734375
 20
-0.0
 10
2106.291015625
 20
-0.0
 10
2096.30859375
 20
-0.0
 10
2086.326171875
 20
-0.0
 10
2076.34375
 20
-0.0
 10
2066.361328125
 20
-0.0
 10
2056.37890625
 20
-0.0
 10
2046.396484375
 20
-0.0
 10
2036.4140625
 20
-0.0
 10
2026.431640625
 20
-0.0
 10
2016.44921875
 20
-0.0
 10
2006.466796875
 20
-0.0
 10
1996.484375
 20
-0.0
 10
1986.501953125
 20
-0.0
 10
1976.51953125
 20
-0.0
 10
1966.537109375
 20
-0.0
 10
1956.5546875
 20
-0.0
 10
1946.572265625
 20
-0.0
 10
1936.58984375
 20
-0.0
 10
1926.607421875
 20
-0.0
 10
1916.625
 20
-0.0
 10
1906.642578125
 20
-0.0
 10
1896.66015625
 20
-0.0
 10
1886.677734375
 20
-0.0
 10
1876.6953125
 20
-0.0
 10
1866.712890625
 20
-0.0
 10
1856.73046875
 20
-0.0
 10
1846.748046875
 20
-0.0
 10
1836.765625
 20
-0.0
 10
1826.783203125
 20
-0.0
 10
1816.80078125
 20
-0.0
 10
1806.818359375
 20
-0.0
 10
1796.8359375
 20
-0.0
 10
1786.853515625
 20
-0.0
 10
1776.87109375
 20
-0.0
 10
1766.888671875
 20
-0.0
 10
1756.90625
 20
-0.0
 10
1746.923828125
 20
-0.0
 10
1736.94140625
 20
-0.0
 10
1726.958984375
 20
-0.0
 10
1716.9765625
 20
-0.0
 10
1706.994140625
 20
-0.0
 10
1697.01171875
 20
-0.0
 10
1687.029296875
 20
-0.0
 10
1677.046875
 20
-0.0
 10
1667.064453125
 20
-0.0
 10
1657.08203125
 20
-0.0
 10
1647.099609375
 20
-0.0
 10
1637.1171875
 20
-0.0
 10
1627.134765625
 20
-0.0
 10
1617.15234375
 20
-0.0
 10
1607.169921875
 20
-0.0
 10
1597.1875
 20
-0.0
 10
1587.205078125
 20
-0.0
 10
1577.22265625
 20
-0.0
 10
1567.240234375
 20
-0.0
 10
1557.2578125
 20
-0.0
 10
1547.275390625
 20
-0.0
 10
1537.29296875
 20
-0.0
 10
1527.310546875
 20
-0.0
 10
1517.328125
 20
-0.0
 10
1507.345703125
 20
-0.0
 10
1497.36328125
 20
-0.0
 10
1487.380859375
 20
-0.0
 10
1477.3984375
 20
-0.0
 10
1467.416015625
 20
-0.0
 10
1457.43359375
 20
-0.0
 10
1447.451171875
 20
-0.0
 10
1437.46875
 20
-0.0
 10
1427.486328125
 20
-0.0
 10
1417.50390625
 20
-0.0
 10
1407.521484375
 20
-0.0
 10
1397.5390625
 20
-0.0
 10
1387.556640625
 20
-0.0
 10
1377.57421875
 20
-0.0
 10
1367.591796875
 20
-0.0
 10
1357.609375
 20
-0.0
 10
1347.626953125
 20
-0.0
 10
1337.64453125
 20
-0.0
 10
1327.662109375
 20
-0.0
 10
1317.6796875
 20
-0.0
 10
1307.697265625
 20
-0.0
 10
1297.71484375
 20
-0.0
 10
1287.732421875
 20
-0.0
 10
1277.75
 20
-0.0
 10
1267.767578125
 20
-0.0
 10
1257.78515625
 20
-0.0
 10
1247.802734375
 20
-0.0
 10
1237.8203125
 20
-0.0
 10
1227.837890625
 20
-0.0
 10
1217.85546875
 20
-0.0
 10
1207.873046875
 20
-0.0
 10
1197.890625
 20
-0.0
 10
1187.908203125
 20
-0.0
 10
1177.92578125
 20
-0.0
 10
1167.943359375
 20
-0.0
 10
1157.9609375
 20
-0.0
 10
1147.978515625
 20
-0.0
 10
1137.99609375
 20
-0.0
 10
1128.013671875
 20
-0.0
 10
1118.03125
 20
-0.0
 10
1108.048828125
 20
-0.0
 10
1098.06640625
 20
-0.0
 10
1088.083984375
 20
-0.0
 10
1078.1015625
 20
-0.0
 10
1068.119140625
 20
-0.0
 10
1058.13671875
 20
-0.0
 10
1048.154296875
 20
-0.0
 10
1038.171875
 20
-0.0
 10
1028.189453125
 20
-0.0
 10
1018.20703125
 20
-0.0
 10
1008.224609375
 20
-0.0
 10
998.2421875
 20
-0.0
 10
988.259765625
 20
-0.0
 10
978.27734375
 20
-0.0
 10
968.294921875
 20
-0.0
 10
958.3125
 20
-0.0
 10
948.330078125
 20
-0.0
 10
938.34765625
 20
-0.0
 10
928.365234375
 20
-0.0
 10
918.3828125
 20
-0.0
 10
908.400390625
 20
-0.0
 10
898.41796875
 20
-0.0
 10
888.435546875
 20
-0.0
 10
878.453125
 20
-0.0
 10
868.470703125
 20
-0.0
 10
858.48828125
 20
-0.0
 10
848.505859375
 20
-0.0
 10
838.5234375
 20
-0.0
 10
828.541015625
 20
-0.0
 10
818.55859375
 20
-0.0
 10
808.576171875
 20
-0.0
 10
798.59375
 20
-0.0
 10
788.611328125
 20
-0.0
 10
778.62890625
 20
-0.0
 10
768.646484375
 20
-0.0
 10
758.6640625
 20
-0.0
 10
748.681640625
 20
-0.0
 10
738.69921875
 20
-0.0
 10
728.716796875
 20
-0.0
 10
718.734375
 20
-0.0
 10
708.751953125
 20
-0.0
 10
698.76953125
 20
-0.0
 10
688.787109375
 20
-0.0
 10
678.8046875
 20
-0.0
 10
668.822265625
 20
-0.0
 10
658.83984375
 20
-0.0
 10
648.857421875
 20
-0.0
 10
638.875
 20
-0.0
 10
628.892578125
 20
-0.0
 10
618.91015625
 20
-0.0
 10
608.927734375
 20
-0.0
 10
598.9453125
 20
-0.0
 10
588.962890625
 20
-0.0
 10
578.98046875
 20
-0.0
 10
568.998046875
 20
-0.0
 10
559.015625
 20
-0.0
 10
549.033203125
 20
-0.0
 10
539.05078125
 20
-0.0
 10
529.068359375
 20
-0.0
 10
519.0859375
 20
-0.0
 10
509.103515625
 20
-0.0
 10
499.12109375
 20
-0.0
 10
489.138671875
 20
-0.0
 10
479.15625
 20
-0.0
 10
469.173828125
 20
-0.0
 10
459.19140625
 20
-0.0
 10
449.208984375
 20
-0.0
 10
439.2265625
 20
-0.0
 10
429.244140625
 20
-0.0
 10
419.26171875
 20
-0.0
 10
409.279296875
 20
-0.0
 10
399.296875
 20
-0.0
 10
389.314453125
 20
-0.0
 10
379.33203125
 20
-0.0
 10
369.349609375
 20
-0.0
 10
359.3671875
 20
-0.0
 10
349.384765625
 20
-0.0
 10
339.40234375
 20
-0.0
 10
329.419921875
 20
-0.0
 10
319.4375
 20
-0.0
 10
309.455078125
 20
-0.0
 10
299.47265625
 20
-0.0
 10
289.490234375
 20
-0.0
 10
279.5078125
 20
-0.0
 10
269.525390625
 20
-0.0
 10
259.54296875
 20
-0.0
 10
249.560546875
 20
-0.0
 10
239.578125
 20
-0.0
 10
229.595703125
 20
-0.0
 10
219.61328125
 20
-0.0
 10
209.630859375
 20
-0.0
 10
199.6484375
 20
-0.0
 10
189.666015625
 20
-0.0
 10
179.68359375
 20
-0.0
 10
169.701171875
 20
-0.0
 10
159.71875
 20
-0.0
 10
149.736328125
 20
-0.0
 10
139.75390625
 20
-0.0
 10
129.771484375
 20
-0.0
 10
119.7890625
 20
-0.0
 10
109.806640625
 20
-0.0
 10
99.82421875
 20
-0.0
 10
89.841796875
 20
-0.0
 10
79.859375
 20
-0.0
 10
69.876953125
 20
-0.0
 10
59.89453125
 20
-0.0
 10
49.912109375
 20
-0.0
 10
39.9296875
 20
-0.0
 10
29.947265625
 20
-0.0
 10
19.96484375
 20
-0.0
 10
9.982421875
 20
-0.0
  0
LWPOLYLINE
  5
57
330
17
100
AcDbEntity
  8
substrate
100
AcDbPolyline
 90
4
 70
1
 43
0.5
 10
2575.46484375
 20
-2914.8671875
 10
2585.447265625
 20
-2904.884765625
 10
2595.4296875
 20
-2914.8671875
 10
2585.447265625
 20
-2924.849609375
  0
LWPOLYLINE
  5
58
330
17
100
AcDbEntity
  8
substrate
100
AcDbPolyline
 90
4
 70
1
 43
0.5
 10
2535.53515625
 20
-2914.8671875
 10
2545.517578125
 20
-2904.884765625
 10
2555.5
 20
-2914.8671875
 10
2545.517578125
 20
-2924.849609375
  0
LWPOLYLINE
  5
59
330
17
100
AcDbEntity
  8
substrate
100
AcDbPolyline
 90
4
 70
1
 43
0.5
 10
2555.5
 20
-2894.90234375
 10
2565.482421875
 20
-2884.919921875
 10
2575.46484375
 20
-2894.90234375
 10
2565.482421875
 20
-2904.884765625
  0
LWPOLYLINE
  5
5A
330
17
100
AcDbEntity
  8
substrate
100
AcDbPolyline
 90
4
 70
1
 43
0.5
 10
2275.9921875
 20
-2815.04296875
 10
2285.974609375
 20
-2805.060546875
 10
2295.95703125
 20
-2815.04296875
 10
2285.974609375
 20
-2825.025390625
  0
LWPOLYLINE
  5
5B
330
17
100
AcDbEntity
  8
substrate
100
AcDbPolyline
 90
4
 70
1
 43
0.5
 10
2246.044921875
 20
-2725.201171875
 10
2256.02734375
 20
-2715.21875
 10
2266.009765625
 20
-2725.201171875
 10
2256.02734375
 20
-2735.18359375
  0
LWPOLYLINE
  5
5C
330
17
100
AcDbEntity
  8
substrate
100
AcDbPolyline
 90
4
 70
1
 43
0.5
 10
2864.955078125
 20
-2625.376953125
 10
2874.9375
 20
-2615.39453125
 10
2884.919921875
 20
-2625.376953125
 10
2874.9375
 20
-2635.359375
  0
LWPOLYLINE
  5
5D
330
17
100
AcDbEntity
  8
substrate
100
AcDbPolyline
 90
4
 70
1
 43
0.5
 10
2874.9375
 20
-2615.39453125
 10
2884.919921875
 20
-2605.412109375
 10
2894.90234375
 20
-2615.39453125
 10
2884.919921875
 20
-2625.376953125
  0
LWPOLYLINE
  5
5E
330
17
100
AcDbEntity
  8
substrate
100
AcDbPolyline
 90
4
 70
1
 43
0.5
 10
2904.884765625
 20
-2585.447265625
 10
2914.8671875
 20
-2575.46484375
 10
2924.849609375
 20
-2585.447265625
 10
2914.8671875
 20
-2595.4296875
  0
LWPOLYLINE
  5
5F
330
17
100
AcDbEntity
  8
substrate
100
AcDbPolyline
 90
4
 70
1
 43
0.5
 10
2884.919921875
 20
-2585.447265625
 10
2894.90234375
 20
-2575.46484375
 10
2904.884765625
 20
-2585.447265625
 10
2894.90234375
 20
-2595.4296875
  0
LWPOLYLINE
  5
60
330
17
100
AcDbEntity
  8
substrate
100
AcDbPolyline
 90
4
 70
1
 43
0.5
 10
2186.150390625
 20
-2585.447265625
 10
2196.1328125
 20
-2575.46484375
 10
2206.115234375
 20
-2585.447265625
 10
2196.1328125
 20
-2595.4296875
  0
LWPOLYLINE
  5
61
330
17
100
AcDbEntity
  8
substrate
100
AcDbPolyline
 90
4
 70
1
 43
0.5
 10
2186.150390625
 20
-2545.517578125
 10
2196.1328125
 20
-2535.53515625
 10
2206.115234375
 20
-2545.517578125
 10
2196.1328125
 20
-2555.5
  0
LWPOLYLINE
  5
62
330
17
100
AcDbEntity
  8
substrate
100
AcDbPolyline
 90
8
 70
1
 43
0.5
 10
2894.90234375
 20
-2535.53515625
 10
2904.884765625
 20
-2525.552734375
 10
2914.8671875
 20
-2535.53515625
 10
2924.849609375
 20
-2545.517578125
 10
2914.8671875
 20
-2555.5
 10
2904.884765625
 20
-2565.482421875
 10
2894.90234375
 20
-2555.5
 10
2894.90234375
 20
-2545.517578125
  0
LWPOLYLINE
  5
63
330
17
100
AcDbEntity
  8
substrate
100
AcDbPolyline
 90
4
 70
1
 43
0.5
 10
2196.1328125
 20
-2535.53515625
 10
2206.115234375
 20
-2525.552734375
 10
2216.09765625
 20
-2535.53515625
 10
2206.115234375
 20
-2545.517578125
  0
LWPOLYLINE
  5
64
330
17
100
AcDbEntity
  8
substrate
100
AcDbPolyline
 90
4
 70
1
 43
0.5
 10
2884.919921875
 20
-2525.552734375
 10
2894.90234375
 20
-2515.5703125
 10
2904.884765625
 20
-2525.552734375
 10
2894.90234375
 20
-2535.53515625
  0
LWPOLYLINE
  5
65
330
17
100
AcDbEntity
  8
substrate
100
AcDbPolyline
 90
4
 70
1
 43
0.5
 10
2186.150390625
 20
-2525.552734375
 10
2196.1328125
 20
-2515.5703125
 10
2206.115234375
 20
-2525.552734375
 10
2196.1328125
 20
-2535.53515625
  0
LWPOLYLINE
  5
66
330
17
100
AcDbEntity
  8
substrate
100
AcDbPolyline
 90
4
 70
1
 43
0.5
 10
2176.16796875
 20
-2515.5703125
 10
2186.150390625
 20
-2505.587890625
 10
2196.1328125
 20
-2515.5703125
 10
2186.150390625
 20
-2525.552734375
  0
LWPOLYLINE
  5
67
330
17
100
AcDbEntity
  8
substrate
100
AcDbPolyline
 90
4
 70
1
 43
0.5
 10
2166.185546875
 20
-2505.587890625
 10
2176.16796875
 20
-2495.60546875
 10
2186.150390625
 20
-2505.587890625
 10
2176.16796875
 20
-2515.5703125
  0
LWPOLYLINE
  5
68
330
17
100
AcDbEntity
  8
substrate
100
AcDbPolyline
 90
4
 70
1
 43
0.5
 10
2884.919921875
 20
-2485.623046875
 10
2894.90234375
 20
-2475.640625
 10
2904.884765625
 20
-2485.623046875
 10
2894.90234375
 20
-2495.60546875
  0
LWPOLYLINE
  5
69
330
17
100
AcDbEntity
  8
substrate
100
AcDbPolyline
 90
4
 70
1
 43
0.5
 10
2984.744140625
 20
-2425.728515625
 10
2994.7265625
 20
-2415.74609375
 10
3004.708984375
 20
-2425.728515625
 10
2994.7265625
 20
-2435.7109375
  0
LWPOLYLINE
  5
6A
330
17
100
AcDbEntity
  8
substrate
100
AcDbPolyline
 90
4
 70
1
 43
0.5
 10
2256.02734375
 20
-2375.81640625
 10
2266.009765625
 20
-2365.833984375
 10
2275.9921875
 20
-2375.81640625
 10
2266.009765625
 20
-2385.798828125
  0
LWPOLYLINE
  5
6B
330
17
100
AcDbEntity
  8
substrate
100
AcDbPolyline
 90
4
 70
1
 43
0.5
 10
2256.02734375
 20
-2355.8515625
 10
2266.009765625
 20
-2345.869140625
 10
2275.9921875
 20
-2355.8515625
 10
2266.009765625
 20
-2365.833984375
  0
LWPOLYLINE
  5
6C
330
17
100
AcDbEntity
  8
substrate
100
AcDbPolyline
 90
4
 70
1
 43
0.5
 10
2844.990234375
 20
-2345.869140625
 10
2854.97265625
 20
-2335.88671875
 10
2864.955078125
 20
-2345.869140625
 10
2854.97265625
 20
-2355.8515625
  0
LWPOLYLINE
  5
6D
330
17
100
AcDbEntity
  8
substrate
100
AcDbPolyline
 90
4
 70
1
 43
0.5
 10
2266.009765625
 20
-2345.869140625
 10
2275.9921875
 20
-2335.88671875
 10
2285.974609375
 20
-2345.869140625
 10
2275.9921875
 20
-2355.8515625
  0
LWPOLYLINE
  5
6E
330
17
100
AcDbEntity
  8
substrate
100
AcDbPolyline
 90
4
 70
1
 43
0.5
 10
2275.9921875
 20
-2335.88671875
 10
2285.974609375
 20
-2325.904296875
 10
2295.95703125
 20
-2335.88671875
 10
2285.974609375
 20
-2345.869140625
  0
LWPOLYLINE
  5
6F
330
17
100
AcDbEntity
  8
substrate
100
AcDbPolyline
 90
4
 70
1
 43
0.5
 10
2256.02734375
 20
-2335.88671875
 10
2266.009765625
 20
-2325.904296875
 10
2275.9921875
 20
-2335.88671875
 10
2266.009765625
 20
-2345.869140625
  0
LWPOLYLINE
  5
70
330
17
100
AcDbEntity
  8
substrate
100
AcDbPolyline
 90
4
 70
1
 43
0.5
 10
2285.974609375
 20
-2325.904296875
 10
2295.95703125
 20
-2315.921875
 10
2305.939453125
 20
-2325.904296875
 10
2295.95703125
 20
-2335.88671875
  0
LWPOLYLINE
  5
71
330
17
100
AcDbEntity
  8
substrate
100
AcDbPolyline
 90
4
 70
1
 43
0.5
 10
2246.044921875
 20
-2325.904296875
 10
2256.02734375
 20
-2315.921875
 10
2266.009765625
 20
-2325.904296875
 10
2256.02734375
 20
-2335.88671875
  0
LWPOLYLINE
  5
72
330
17
100
AcDbEntity
  8
substrate
100
AcDbPolyline
 90
4
 70
1
 43
0.5
 10
2844.990234375
 20
-2305.939453125
 10
2854.97265625
 20
-2295.95703125
 10
2864.955078125
 20
-2305.939453125
 10
2854.97265625
 20
-2315.921875
  0
LWPOLYLINE
  5
73
330
17
100
AcDbEntity
  8
substrate
100
AcDbPolyline
 90
4
 70
1
 43
0.5
 10
2825.025390625
 20
-2305.939453125
 10
2835.0078125
 20
-2295.95703125
 10
2844.990234375
 20
-2305.939453125
 10
2835.0078125
 20
-2315.921875
  0
LWPOLYLINE
  5
74
330
17
100
AcDbEntity
  8
substrate
100
AcDbPolyline
 90
4
 70
1
 43
0.5
 10
2805.060546875
 20
-2305.939453125
 10
2815.04296875
 20
-2295.95703125
 10
2825.025390625
 20
-2305.939453125
 10
2815.04296875
 20
-2315.921875
  0
LWPOLYLINE
  5
75
330
17
100
AcDbEntity
  8
substrate
100
AcDbPolyline
 90
4
 70
1
 43
0.5
 10
2246.044921875
 20
-2305.939453125
 10
2256.02734375
 20
-2295.95703125
 10
2266.009765625
 20
-2305.939453125
 10
2256.02734375
 20
-2315.921875
  0
LWPOLYLINE
  5
76
330
17
100
AcDbEntity
  8
substrate
100
AcDbPolyline
 90
4
 70
1
 43
0.5
 10
2305.939453125
 20
-2285.974609375
 10
2315.921875
 20
-2275.9921875
 10
2325.904296875
 20
-2285.974609375
 10
2315.921875
 20
-2295.95703125
  0
LWPOLYLINE
  5
77
330
17
100
AcDbEntity
  8
substrate
100
AcDbPolyline
 90
4
 70
1
 43
0.5
 10
2685.271484375
 20
-2266.009765625
 10
2695.25390625
 20
-2256.02734375
 10
2705.236328125
 20
-2266.009765625
 10
2695.25390625
 20
-2275.9921875
  0
LWPOLYLINE
  5
78
330
17
100
AcDbEntity
  8
substrate
100
AcDbPolyline
 90
284
 70
1
 43
0.5
 10
2335.88671875
 20
-2236.0625
 10
2345.869140625
 20
-2226.080078125
 10
2355.8515625
 20
-2236.0625
 10
2355.8515625
 20
-2246.044921875
 10
2365.833984375
 20
-2246.044921875
 10
2375.81640625
 20
-2256.02734375
 10
2365.833984375
 20
-2266.009765625
 10
2375.81640625
 20
-2256.02734375
 10
2385.798828125
 20
-2266.009765625
 10
2395.78125
 20
-2275.9921875
 10
2405.763671875
 20
-2275.9921875
 10
2415.74609375
 20
-2266.009765625
 10
2425.728515625
 20
-2266.009765625
 10
2435.7109375
 20
-2256.02734375
 10
2445.693359375
 20
-2256.02734375
 10
2455.67578125
 20
-2256.02734375
 10
2465.658203125
 20
-2246.044921875
 10
2475.640625
 20
-2256.02734375
 10
2485.623046875
 20
-2246.044921875
 10
2495.60546875
 20
-2256.02734375
 10
2505.587890625
 20
-2246.044921875
 10
2515.5703125
 20
-2246.044921875
 10
2525.552734375
 20
-2246.044921875
 10
2535.53515625
 20
-2246.044921875
 10
2545.517578125
 20
-2246.044921875
 10
2555.5
 20
-2246.044921875
 10
2565.482421875
 20
-2246.044921875
 10
2575.46484375
 20
-2256.02734375
 10
2585.447265625
 20
-2246.044921875
 10
2595.4296875
 20
-2256.02734375
 10
2605.412109375
 20
-2246.044921875
 10
2615.39453125
 20
-2246.044921875
 10
2625.376953125
 20
-2246.044921875
 10
2635.359375
 20
-2246.044921875
 10
2645.341796875
 20
-2246.044921875
 10
2655.32421875
 20
-2256.02734375
 10
2665.306640625
 20
-2246.044921875
 10
2675.2890625
 20
-2256.02734375
 10
2685.271484375
 20
-2266.009765625
 10
2695.25390625
 20
-2275.9921875
 10
2705.236328125
 20
-2275.9921875
 10
2715.21875
 20
-2285.974609375
 10
2725.201171875
 20
-2285.974609375
 10
2735.18359375
 20
-2295.95703125
 10
2745.166015625
 20
-2285.974609375
 10
2755.1484375
 20
-2285.974609375
 10
2765.130859375
 20
-2295.95703125
 10
2775.11328125
 20
-2295.95703125
 10
2785.095703125
 20
-2305.939453125
 10
2795.078125
 20
-2295.95703125
 10
2805.060546875
 20
-2305.939453125
 10
2815.04296875
 20
-2315.921875
 10
2825.025390625
 20
-2305.939453125
 10
2835.0078125
 20
-2315.921875
 10
2835.0078125
 20
-2325.904296875
 10
2844.990234375
 20
-2325.904296875
 10
2854.97265625
 20
-2335.88671875
 10
2844.990234375
 20
-2345.869140625
 10
2854.97265625
 20
-2355.8515625
 10
2844.990234375
 20
-2365.833984375
 10
2835.0078125
 20
-2365.833984375
 10
2844.990234375
 20
-2365.833984375
 10
2854.97265625
 20
-2375.81640625
 10
2844.990234375
 20
-2385.798828125
 10
2854.97265625
 20
-2375.81640625
 10
2864.955078125
 20
-2385.798828125
 10
2874.9375
 20
-2395.78125
 10
2874.9375
 20
-2405.763671875
 10
2874.9375
 20
-2415.74609375
 10
2884.919921875
 20
-2425.728515625
 10
2874.9375
 20
-2435.7109375
 10
2874.9375
 20
-2445.693359375
 10
2884.919921875
 20
-2435.7109375
 10
2894.90234375
 20
-2445.693359375
 10
2894.90234375
 20
-2455.67578125
 10
2884.919921875
 20
-2465.658203125
 10
2894.90234375
 20
-2475.640625
 10
2884.919921875
 20
-2485.623046875
 10
2874.9375
 20
-2495.60546875
 10
2874.9375
 20
-2505.587890625
 10
2874.9375
 20
-2515.5703125
 10
2874.9375
 20
-2525.552734375
 10
2884.919921875
 20
-2535.53515625
 10
2884.919921875
 20
-2545.517578125
 10
2874.9375
 20
-2555.5
 10
2884.919921875
 20
-2565.482421875
 10
2894.90234375
 20
-2575.46484375
 10
2884.919921875
 20
-2585.447265625
 10
2894.90234375
 20
-2595.4296875
 10
2884.919921875
 20
-2605.412109375
 10
2874.9375
 20
-2615.39453125
 10
2864.955078125
 20
-2605.412109375
 10
2854.97265625
 20
-2595.4296875
 10
2864.955078125
 20
-2605.412109375
 10
2864.955078125
 20
-2615.39453125
 10
2864.955078125
 20
-2625.376953125
 10
2874.9375
 20
-2635.359375
 10
2874.9375
 20
-2645.341796875
 10
2884.919921875
 20
-2655.32421875
 10
2884.919921875
 20
-2665.306640625
 10
2884.919921875
 20
-2675.2890625
 10
2874.9375
 20
-2685.271484375
 10
2874.9375
 20
-2695.25390625
 10
2864.955078125
 20
-2705.236328125
 10
2854.97265625
 20
-2715.21875
 10
2854.97265625
 20
-2725.201171875
 10
2854.97265625
 20
-2735.18359375
 10
2844.990234375
 20
-2745.166015625
 10
2844.990234375
 20
-2755.1484375
 10
2844.990234375
 20
-2765.130859375
 10
2844.990234375
 20
-2775.11328125
 10
2835.0078125
 20
-2785.095703125
 10
2825.025390625
 20
-2795.078125
 10
2815.04296875
 20
-2795.078125
 10
2805.060546875
 20
-2785.095703125
 10
2815.04296875
 20
-2775.11328125
 10
2805.060546875
 20
-2785.095703125
 10
2815.04296875
 20
-2795.078125
 10
2805.060546875
 20
-2805.060546875
 10
2795.078125
 20
-2815.04296875
 10
2785.095703125
 20
-2815.04296875
 10
2775.11328125
 20
-2815.04296875
 10
2765.130859375
 20
-2825.025390625
 10
2755.1484375
 20
-2825.025390625
 10
2745.166015625
 20
-2825.025390625
 10
2755.1484375
 20
-2835.0078125
 10
2745.166015625
 20
-2844.990234375
 10
2735.18359375
 20
-2844.990234375
 10
2725.201171875
 20
-2844.990234375
 10
2715.21875
 20
-2854.97265625
 10
2715.21875
 20
-2864.955078125
 10
2705.236328125
 20
-2874.9375
 10
2695.25390625
 20
-2874.9375
 10
2685.271484375
 20
-2864.955078125
 10
2675.2890625
 20
-2874.9375
 10
2665.306640625
 20
-2874.9375
 10
2655.32421875
 20
-2864.955078125
 10
2655.32421875
 20
-2854.97265625
 10
2645.341796875
 20
-2864.955078125
 10
2635.359375
 20
-2874.9375
 10
2625.376953125
 20
-2884.919921875
 10
2615.39453125
 20
-2884.919921875
 10
2605.412109375
 20
-2884.919921875
 10
2595.4296875
 20
-2884.919921875
 10
2605.412109375
 20
-2884.919921875
 10
2615.39453125
 20
-2894.90234375
 10
2605.412109375
 20
-2904.884765625
 10
2595.4296875
 20
-2904.884765625
 10
2585.447265625
 20
-2904.884765625
 10
2575.46484375
 20
-2894.90234375
 10
2575.46484375
 20
-2884.919921875
 10
2575.46484375
 20
-2874.9375
 10
2575.46484375
 20
-2864.955078125
 10
2565.482421875
 20
-2864.955078125
 10
2555.5
 20
-2864.955078125
 10
2545.517578125
 20
-2864.955078125
 10
2535.53515625
 20
-2864.955078125
 10
2525.552734375
 20
-2874.9375
 10
2515.5703125
 20
-2884.919921875
 10
2505.587890625
 20
-2894.90234375
 10
2495.60546875
 20
-2884.919921875
 10
2495.60546875
 20
-2874.9375
 10
2485.623046875
 20
-2864.955078125
 10
2495.60546875
 20
-2854.97265625
 10
2485.623046875
 20
-2864.955078125
 10
2475.640625
 20
-2874.9375
 10
2465.658203125
 20
-2864.955078125
 10
2455.67578125
 20
-2854.97265625
 10
2445.693359375
 20
-2864.955078125
 10
2435.7109375
 20
-2874.9375
 10
2435.7109375
 20
-2884.919921875
 10
2425.728515625
 20
-2894.90234375
 10
2415.74609375
 20
-2884.919921875
 10
2415.74609375
 20
-2874.9375
 10
2405.763671875
 20
-2864.955078125
 10
2405.763671875
 20
-2874.9375
 10
2395.78125
 20
-2884.919921875
 10
2385.798828125
 20
-2894.90234375
 10
2375.81640625
 20
-2884.919921875
 10
2375.81640625
 20
-2874.9375
 10
2365.833984375
 20
-2864.955078125
 10
2355.8515625
 20
-2864.955078125
 10
2345.869140625
 20
-2854.97265625
 10
2335.88671875
 20
-2844.990234375
 10
2335.88671875
 20
-2835.0078125
 10
2325.904296875
 20
-2825.025390625
 10
2335.88671875
 20
-2815.04296875
 10
2325.904296875
 20
-2805.060546875
 10
2325.904296875
 20
-2795.078125
 10
2325.904296875
 20
-2805.060546875
 10
2335.88671875
 20
-2815.04296875
 10
2325.904296875
 20
-2825.025390625
 10
2315.921875
 20
-2835.0078125
 10
2305.939453125
 20
-2825.025390625
 10
2305.939453125
 20
-2815.04296875
 10
2295.95703125
 20
-2805.060546875
 10
2285.974609375
 20
-2795.078125
 10
2285.974609375
 20
-2785.095703125
 10
2275.9921875
 20
-2775.11328125
 10
2285.974609375
 20
-2765.130859375
 10
2295.95703125
 20
-2755.1484375
 10
2285.974609375
 20
-2745.166015625
 10
2275.9921875
 20
-2735.18359375
 10
2266.009765625
 20
-2725.201171875
 10
2256.02734375
 20
-2715.21875
 10
2246.044921875
 20
-2705.236328125
 10
2236.0625
 20
-2715.21875
 10
2226.080078125
 20
-2705.236328125
 10
2216.09765625
 20
-2695.25390625
 10
2206.115234375
 20
-2685.271484375
 10
2206.115234375
 20
-2675.2890625
 10
2206.115234375
 20
-2665.306640625
 10
2216.09765625
 20
-2655.32421875
 10
2206.115234375
 20
-2645.341796875
 10
2216.09765625
 20
-2635.359375
 10
2226.080078125
 20
-2625.376953125
 10
2216.09765625
 20
-2615.39453125
 10
2206.115234375
 20
-2605.412109375
 10
2216.09765625
 20
-2595.4296875
 10
2206.115234375
 20
-2585.447265625
 10
2216.09765625
 20
-2575.46484375
 10
2206.115234375
 20
-2565.482421875
 10
2216.09765625
 20
-2555.5
 10
2206.115234375
 20
-2545.517578125
 10
2216.09765625
 20
-2535.53515625
 10
2206.115234375
 20
-2525.552734375
 10
2216.09765625
 20
-2515.5703125
 10
2206.115234375
 20
-2515.5703125
 10
2196.1328125
 20
-2515.5703125
 10
2186.150390625
 20
-2505.587890625
 10
2196.1328125
 20
-2495.60546875
 10
2206.115234375
 20
-2495.60546875
 10
2216.09765625
 20
-2495.60546875
 10
2206.115234375
 20
-2485.623046875
 10
2216.09765625
 20
-2475.640625
 10
2226.080078125
 20
-2465.658203125
 10
2216.09765625
 20
-2455.67578125
 10
2206.115234375
 20
-2445.693359375
 10
2216.09765625
 20
-2435.7109375
 10
2226.080078125
 20
-2425.728515625
 10
2216.09765625
 20
-2415.74609375
 10
2216.09765625
 20
-2405.763671875
 10
2216.09765625
 20
-2395.78125
 10
2226.080078125
 20
-2385.798828125
 10
2236.0625
 20
-2375.81640625
 10
2246.044921875
 20
-2385.798828125
 10
2256.02734375
 20
-2375.81640625
 10
2266.009765625
 20
-2385.798828125
 10
2275.9921875
 20
-2395.78125
 10
2266.009765625
 20
-2405.763671875
 10
2275.9921875
 20
-2405.763671875
 10
2275.9921875
 20
-2395.78125
 10
2266.009765625
 20
-2385.798828125
 10
2275.9921875
 20
-2375.81640625
 10
2275.9921875
 20
-2365.833984375
 10
2275.9921875
 20
-2355.8515625
 10
2285.974609375
 20
-2345.869140625
 10
2295.95703125
 20
-2335.88671875
 10
2305.939453125
 20
-2325.904296875
 10
2315.921875
 20
-2335.88671875
 10
2315.921875
 20
-2325.904296875
 10
2315.921875
 20
-2315.921875
 10
2305.939453125
 20
-2315.921875
 10
2295.95703125
 20
-2315.921875
 10
2285.974609375
 20
-2315.921875
 10
2275.9921875
 20
-2315.921875
 10
2266.009765625
 20
-2305.939453125
 10
2275.9921875
 20
-2295.95703125
 10
2285.974609375
 20
-2285.974609375
 10
2295.95703125
 20
-2295.95703125
 10
2305.939453125
 20
-2295.95703125
 10
2315.921875
 20
-2295.95703125
 10
2325.904296875
 20
-2285.974609375
 10
2335.88671875
 20
-2295.95703125
 10
2345.869140625
 20
-2305.939453125
 10
2335.88671875
 20
-2315.921875
 10
2345.869140625
 20
-2305.939453125
 10
2345.869140625
 20
-2295.95703125
 10
2335.88671875
 20
-2295.95703125
 10
2325.904296875
 20
-2285.974609375
 10
2325.904296875
 20
-2275.9921875
 10
2325.904296875
 20
-2266.009765625
 10
2335.88671875
 20
-2256.02734375
 10
2335.88671875
 20
-2246.044921875
  0
LWPOLYLINE
  5
79
330
17
100
AcDbEntity
  8
substrate
100
AcDbPolyline
 90
1
 70
1
 43
0.5
 10
2455.67578125
 20
-2835.0078125
  0
LWPOLYLINE
  5
7A
330
17
100
AcDbEntity
  8
substrate
100
AcDbPolyline
 90
1
 70
1
 43
0.5
 10
2325.904296875
 20
-2765.130859375
  0
LWPOLYLINE
  5
7B
330
17
100
AcDbEntity
  8
substrate
100
AcDbPolyline
 90
1
 70
1
 43
0.5
 10
2854.97265625
 20
-2575.46484375
  0
LWPOLYLINE
  5
7C
330
17
100
AcDbEntity
  8
substrate
100
AcDbPolyline
 90
1
 70
1
 43
0.5
 10
2854.97265625
 20
-2555.5
  0
LWPOLYLINE
  5
7D
330
17
100
AcDbEntity
  8
substrate
100
AcDbPolyline
 90
1
 70
1
 43
0.5
 10
2854.97265625
 20
-2535.53515625
  0
LWPOLYLINE
  5
7E
330
17
100
AcDbEntity
  8
substrate
100
AcDbPolyline
 90
1
 70
1
 43
0.5
 10
2854.97265625
 20
-2495.60546875
  0
LWPOLYLINE
  5
7F
330
17
100
AcDbEntity
  8
substrate
100
AcDbPolyline
 90
1
 70
1
 43
0.5
 10
2854.97265625
 20
-2435.7109375
  0
LWPOLYLINE
  5
80
330
17
100
AcDbEntity
  8
substrate
100
AcDbPolyline
 90
1
 70
1
 43
0.5
 10
2266.009765625
 20
-2425.728515625
  0
LWPOLYLINE
  5
81
330
17
100
AcDbEntity
  8
substrate
100
AcDbPolyline
 90
1
 70
1
 43
0.5
 10
2246.044921875
 20
-2425.728515625
  0
LWPOLYLINE
  5
82
330
17
100
AcDbEntity
  8
substrate
100
AcDbPolyline
 90
1
 70
1
 43
0.5
 10
2854.97265625
 20
-2415.74609375
  0
LWPOLYLINE
  5
83
330
17
100
AcDbEntity
  8
substrate
100
AcDbPolyline
 90
4
 70
1
 43
0.5
 10
2485.623046875
 20
-2166.185546875
 10
2495.60546875
 20
-2156.203125
 10
2505.587890625
 20
-2166.185546875
 10
2495.60546875
 20
-2176.16796875
  0
ENDSEC
  0
SECTION
  2
OBJECTS
  0
DICTIONARY
  5
A
330
0
100
AcDbDictionary
280
0
281
1
  3
ACAD_COLOR
350
B
  3
ACAD_GROUP
350
C
  3
ACAD_LAYOUT
350
D
  3
ACAD_MATERIAL
350
E
  3
ACAD_MLEADERSTYLE
350
F
  3
ACAD_MLINESTYLE
350
10
  3
ACAD_PLOTSETTINGS
350
11
  3
ACAD_PLOTSTYLENAME
350
12
  3
ACAD_SCALELIST
350
14
  3
ACAD_TABLESTYLE
350
15
  3
ACAD_VISUALSTYLE
350
16
  3
EZDXF_META
350
2D
  0
DICTIONARY
  5
B
330
A
100
AcDbDictionary
280
0
281
1
  0
DICTIONARY
  5
C
330
A
100
AcDbDictionary
280
0
281
1
  0
DICTIONARY
  5
D
330
A
100
AcDbDictionary
280
0
281
1
  3
Model
350
1A
  3
Layout1
350
1E
  0
DICTIONARY
  5
E
330
A
100
AcDbDictionary
280
0
281
1
  3
ByBlock
350
1F
  3
ByLayer
350
20
  3
Global
350
21
  0
DICTIONARY
  5
F
330
A
100
AcDbDictionary
280
0
281
1
  3
Standard
350
2C
  0
DICTIONARY
  5
10
330
A
100
AcDbDictionary
280
0
281
1
  3
Standard
350
22
  0
DICTIONARY
  5
11
330
A
100
AcDbDictionary
280
0
281
1
  0
ACDBDICTIONARYWDFLT
  5
12
330
A
100
AcDbDictionary
280
0
281
1
  3
Normal
350
13
100
AcDbDictionaryWithDefault
340
13
  0
ACDBPLACEHOLDER
  5
13
330
12
  0
DICTIONARY
  5
14
330
A
100
AcDbDictionary
280
0
281
1
  0
DICTIONARY
  5
15
330
A
100
AcDbDictionary
280
0
281
1
  0
DICTIONARY
  5
16
330
A
100
AcDbDictionary
280
0
281
1
  0
LAYOUT
  5
1A
330
D
100
AcDbPlotSettings
  1

  2
Adobe PDF
  4
A3
  6

 40
7.5
 41
20.0
 42
7.5
 43
20.0
 44
420.0
 45
297.0
 46
0.0
 47
0.0
 48
0.0
 49
0.0
140
0.0
141
0.0
142
1.0
143
1.0
 70
1024
 72
1
 73
0
 74
5
  7

 75
16
 76
0
 77
2
 78
300
147
1.0
148
0.0
149
0.0
100
AcDbLayout
  1
Model
 70
1
 71
0
 10
0.0
 20
0.0
 11
420.0
 21
297.0
 12
0.0
 22
0.0
 32
0.0
 14
1e+20
 24
1e+20
 34
1e+20
 15
-1e+20
 25
-1e+20
 35
-1e+20
146
0.0
 13
0.0
 23
0.0
 33
0.0
 16
1.0
 26
0.0
 36
0.0
 17
0.0
 27
1.0
 37
0.0
 76
1
330
17
  0
LAYOUT
  5
1E
330
D
100
AcDbPlotSettings
  1

  2
Adobe PDF
  4
A3
  6

 40
7.5
 41
20.0
 42
7.5
 43
20.0
 44
420.0
 45
297.0
 46
0.0
 47
0.0
 48
0.0
 49
0.0
140
0.0
141
0.0
142
1.0
143
1.0
 70
0
 72
1
 73
0
 74
5
  7

 75
16
 76
0
 77
2
 78
300
147
1.0
148
0.0
149
0.0
100
AcDbLayout
  1
Layout1
 70
1
 71
1
 10
0.0
 20
0.0
 11
420.0
 21
297.0
 12
0.0
 22
0.0
 32
0.0
 14
1e+20
 24
1e+20
 34
1e+20
 15
-1e+20
 25
-1e+20
 35
-1e+20
146
0.0
 13
0.0
 23
0.0
 33
0.0
 16
1.0
 26
0.0
 36
0.0
 17
0.0
 27
1.0
 37
0.0
 76
1
330
1B
  0
MATERIAL
  5
1F
102
{ACAD_REACTORS
330
E
102
}
330
E
100
AcDbMaterial
  1
ByBlock
  2

 70
0
 40
1.0
 71
1
 41
1.0
 91
-1023410177
 42
1.0
 72
1
  3

 73
1
 74
1
 75
1
 44
0.5
 73
0
 45
1.0
 46
1.0
 77
1
  4

 78
1
 79
1
170
1
 48
1.0
171
1
  6

172
1
173
1
174
1
140
1.0
141
1.0
175
1
  7

176
1
177
1
178
1
143
1.0
179
1
  8

270
1
271
1
272
1
145
1.0
146
1.0
273
1
  9

274
1
275
1
276
1
 42
1.0
 72
1
  3

 73
1
 74
1
 75
1
 94
63
  0
MATERIAL
  5
20
102
{ACAD_REACTORS
330
E
102
}
330
E
100
AcDbMaterial
  1
ByLayer
  2

 70
0
 40
1.0
 71
1
 41
1.0
 91
-1023410177
 42
1.0
 72
1
  3

 73
1
 74
1
 75
1
 44
0.5
 73
0
 45
1.0
 46
1.0
 77
1
  4

 78
1
 79
1
170
1
 48
1.0
171
1
  6

172
1
173
1
174
1
140
1.0
141
1.0
175
1
  7

176
1
177
1
178
1
143
1.0
179
1
  8

270
1
271
1
272
1
145
1.0
146
1.0
273
1
  9

274
1
275
1
276
1
 42
1.0
 72
1
  3

 73
1
 74
1
 75
1
 94
63
  0
MATERIAL
  5
21
102
{ACAD_REACTORS
330
E
102
}
330
E
100
AcDbMaterial
  1
Global
  2

 70
0
 40
1.0
 71
1
 41
1.0
 91
-1023410177
 42
1.0
 72
1
  3

 73
1
 74
1
 75
1
 44
0.5
 73
0
 45
1.0
 46
1.0
 77
1
  4

 78
1
 79
1
170
1
 48
1.0
171
1
  6

172
1
173
1
174
1
140
1.0
141
1.0
175
1
  7

176
1
177
1
178
1
143
1.0
179
1
  8

270
1
271
1
272
1
145
1.0
146
1.0
273
1
  9

274
1
275
1
276
1
 42
1.0
 72
1
  3

 73
1
 74
1
 75
1
 94
63
  0
MLINESTYLE
  5
22
102
{ACAD_REACTORS
330
10
102
}
330
10
100
AcDbMlineStyle
  2
Standard
 70
0
  3

 62
256
 51
90.0
 52
90.0
 71
2
 49
0.5
 62
256
  6
BYLAYER
 49
-0.5
 62
256
  6
BYLAYER
  0
MLEADERSTYLE
  5
2C
102
{ACAD_REACTORS
330
F
102
}
330
F
100
AcDbMLeaderStyle
179
2
170
2
171
1
172
0
 90
2
 40
0.0
 41
0.0
173
1
 91
-1056964608
 92
-2
290
1
 42
2.0
291
1
 43
8.0
  3
Standard
 44
4.0
300

342
29
174
1
175
1
176
0
178
1
 93
-1056964608
 45
4.0
292
0
297
0
 46
4.0
 94
-1056964608
 47
1.0
 49
1.0
140
1.0
294
1
141
0.0
177
0
142
1.0
295
0
296
0
143
3.75
271
0
272
9
273
9
  0
DICTIONARY
  5
2D
330
A
100
AcDbDictionary
281
1
  3
CREATED_BY_EZDXF
350
2E
  3
WRITTEN_BY_EZDXF
350
86
  0
DICTIONARYVAR
  5
2E
330
2D
100
DictionaryVariables
280
0
  1
1.1.0 @ 2025-01-02T01:09:20.505598+00:00
  0
DICTIONARYVAR
  5
86
330
2D
100
DictionaryVariables
280
0
  1
1.1.0 @ 2025-01-02T01:09:20.512229+00:00
  0
ENDSEC
  0
EOF
