  0
SECTION
  2
HEADER
  9
$ACADVER
  1
AC1027
  9
$ACADMAINTVER
 70
105
  9
$DWGCODEPAGE
  3
ANSI_1252
  9
$LASTSAVEDBY
  1
ezdxf
  9
$REQUIREDVERSIONS
160
0
  9
$INSBASE
 10
0.0
 20
0.0
 30
0.0
  9
$EXTMIN
 10
1e+20
 20
1e+20
 30
1e+20
  9
$EXTMAX
 10
-1e+20
 20
-1e+20
 30
-1e+20
  9
$LIMMIN
 10
0.0
 20
0.0
  9
$LIMMAX
 10
420.0
 20
297.0
  9
$ORTHOMODE
 70
0
  9
$REGENMODE
 70
1
  9
$FILLMODE
 70
1
  9
$QTEXTMODE
 70
0
  9
$MIRRTEXT
 70
1
  9
$LTSCALE
 40
1.0
  9
$ATTMODE
 70
1
  9
$TEXTSIZE
 40
2.5
  9
$TRACEWID
 40
1.0
  9
$TEXTSTYLE
  7
Standard
  9
$CLAYER
  8
0
  9
$CELTYPE
  6
ByLayer
  9
$CECOLOR
 62
256
  9
$CELTSCALE
 40
1.0
  9
$DISPSILH
 70
0
  9
$DIMSCALE
 40
1.0
  9
$DIMASZ
 40
2.5
  9
$DIMEXO
 40
0.625
  9
$DIMDLI
 40
3.75
  9
$DIMRND
 40
0.0
  9
$DIMDLE
 40
0.0
  9
$DIMEXE
 40
1.25
  9
$DIMTP
 40
0.0
  9
$DIMTM
 40
0.0
  9
$DIMTXT
 40
2.5
  9
$DIMCEN
 40
2.5
  9
$DIMTSZ
 40
0.0
  9
$DIMTOL
 70
0
  9
$DIMLIM
 70
0
  9
$DIMTIH
 70
0
  9
$DIMTOH
 70
0
  9
$DIMSE1
 70
0
  9
$DIMSE2
 70
0
  9
$DIMTAD
 70
1
  9
$DIMZIN
 70
8
  9
$DIMBLK
  1

  9
$DIMASO
 70
1
  9
$DIMSHO
 70
1
  9
$DIMPOST
  1

  9
$DIMAPOST
  1

  9
$DIMALT
 70
0
  9
$DIMALTD
 70
3
  9
$DIMALTF
 40
0.03937007874
  9
$DIMLFAC
 40
1.0
  9
$DIMTOFL
 70
1
  9
$DIMTVP
 40
0.0
  9
$DIMTIX
 70
0
  9
$DIMSOXD
 70
0
  9
$DIMSAH
 70
0
  9
$DIMBLK1
  1

  9
$DIMBLK2
  1

  9
$DIMSTYLE
  2
ISO-25
  9
$DIMCLRD
 70
0
  9
$DIMCLRE
 70
0
  9
$DIMCLRT
 70
0
  9
$DIMTFAC
 40
1.0
  9
$DIMGAP
 40
0.625
  9
$DIMJUST
 70
0
  9
$DIMSD1
 70
0
  9
$DIMSD2
 70
0
  9
$DIMTOLJ
 70
0
  9
$DIMTZIN
 70
8
  9
$DIMALTZ
 70
0
  9
$DIMALTTZ
 70
0
  9
$DIMUPT
 70
0
  9
$DIMDEC
 70
2
  9
$DIMTDEC
 70
2
  9
$DIMALTU
 70
2
  9
$DIMALTTD
 70
3
  9
$DIMTXSTY
  7
Standard
  9
$DIMAUNIT
 70
0
  9
$DIMADEC
 70
0
  9
$DIMALTRND
 40
0.0
  9
$DIMAZIN
 70
0
  9
$DIMDSEP
 70
44
  9
$DIMATFIT
 70
3
  9
$DIMFRAC
 70
0
  9
$DIMLDRBLK
  1

  9
$DIMLUNIT
 70
2
  9
$DIMLWD
 70
-2
  9
$DIMLWE
 70
-2
  9
$DIMTMOVE
 70
0
  9
$DIMFXL
 40
1.0
  9
$DIMFXLON
 70
0
  9
$DIMJOGANG
 40
0.785398163397
  9
$DIMTFILL
 70
0
  9
$DIMTFILLCLR
 70
0
  9
$DIMARCSYM
 70
0
  9
$DIMLTYPE
  6

  9
$DIMLTEX1
  6

  9
$DIMLTEX2
  6

  9
$DIMTXTDIRECTION
 70
0
  9
$LUNITS
 70
2
  9
$LUPREC
 70
4
  9
$SKETCHINC
 40
1.0
  9
$FILLETRAD
 40
10.0
  9
$AUNITS
 70
0
  9
$AUPREC
 70
2
  9
$MENU
  1
.
  9
$ELEVATION
 40
0.0
  9
$PELEVATION
 40
0.0
  9
$THICKNESS
 40
0.0
  9
$LIMCHECK
 70
0
  9
$CHAMFERA
 40
0.0
  9
$CHAMFERB
 40
0.0
  9
$CHAMFERC
 40
0.0
  9
$CHAMFERD
 40
0.0
  9
$SKPOLY
 70
0
  9
$TDCREATE
 40
2460738.3702430557
  9
$TDUCREATE
 40
2458532.153996898
  9
$TDUPDATE
 40
2460738.3702430557
  9
$TDUUPDATE
 40
2458532.1544311
  9
$TDINDWG
 40
0.0
  9
$TDUSRTIMER
 40
0.0
  9
$USRTIMER
 70
1
  9
$ANGBASE
 50
0.0
  9
$ANGDIR
 70
0
  9
$PDMODE
 70
0
  9
$PDSIZE
 40
0.0
  9
$PLINEWID
 40
0.0
  9
$SPLFRAME
 70
0
  9
$SPLINETYPE
 70
6
  9
$SPLINESEGS
 70
8
  9
$HANDSEED
  5
48
  9
$SURFTAB1
 70
6
  9
$SURFTAB2
 70
6
  9
$SURFTYPE
 70
6
  9
$SURFU
 70
6
  9
$SURFV
 70
6
  9
$UCSBASE
  2

  9
$UCSNAME
  2

  9
$UCSORG
 10
0.0
 20
0.0
 30
0.0
  9
$UCSXDIR
 10
1.0
 20
0.0
 30
0.0
  9
$UCSYDIR
 10
0.0
 20
1.0
 30
0.0
  9
$UCSORTHOREF
  2

  9
$UCSORTHOVIEW
 70
0
  9
$UCSORGTOP
 10
0.0
 20
0.0
 30
0.0
  9
$UCSORGBOTTOM
 10
0.0
 20
0.0
 30
0.0
  9
$UCSORGLEFT
 10
0.0
 20
0.0
 30
0.0
  9
$UCSORGRIGHT
 10
0.0
 20
0.0
 30
0.0
  9
$UCSORGFRONT
 10
0.0
 20
0.0
 30
0.0
  9
$UCSORGBACK
 10
0.0
 20
0.0
 30
0.0
  9
$PUCSBASE
  2

  9
$PUCSNAME
  2

  9
$PUCSORG
 10
0.0
 20
0.0
 30
0.0
  9
$PUCSXDIR
 10
1.0
 20
0.0
 30
0.0
  9
$PUCSYDIR
 10
0.0
 20
1.0
 30
0.0
  9
$PUCSORTHOREF
  2

  9
$PUCSORTHOVIEW
 70
0
  9
$PUCSORGTOP
 10
0.0
 20
0.0
 30
0.0
  9
$PUCSORGBOTTOM
 10
0.0
 20
0.0
 30
0.0
  9
$PUCSORGLEFT
 10
0.0
 20
0.0
 30
0.0
  9
$PUCSORGRIGHT
 10
0.0
 20
0.0
 30
0.0
  9
$PUCSORGFRONT
 10
0.0
 20
0.0
 30
0.0
  9
$PUCSORGBACK
 10
0.0
 20
0.0
 30
0.0
  9
$USERI1
 70
0
  9
$USERI2
 70
0
  9
$USERI3
 70
0
  9
$USERI4
 70
0
  9
$USERI5
 70
0
  9
$USERR1
 40
0.0
  9
$USERR2
 40
0.0
  9
$USERR3
 40
0.0
  9
$USERR4
 40
0.0
  9
$USERR5
 40
0.0
  9
$WORLDVIEW
 70
1
  9
$SHADEDGE
 70
3
  9
$SHADEDIF
 70
70
  9
$TILEMODE
 70
1
  9
$MAXACTVP
 70
64
  9
$PINSBASE
 10
0.0
 20
0.0
 30
0.0
  9
$PLIMCHECK
 70
0
  9
$PEXTMIN
 10
1e+20
 20
1e+20
 30
1e+20
  9
$PEXTMAX
 10
-1e+20
 20
-1e+20
 30
-1e+20
  9
$PLIMMIN
 10
0.0
 20
0.0
  9
$PLIMMAX
 10
420.0
 20
297.0
  9
$UNITMODE
 70
0
  9
$VISRETAIN
 70
1
  9
$PLINEGEN
 70
0
  9
$PSLTSCALE
 70
1
  9
$TREEDEPTH
 70
3020
  9
$CMLSTYLE
  2
Standard
  9
$CMLJUST
 70
0
  9
$CMLSCALE
 40
20.0
  9
$PROXYGRAPHICS
 70
1
  9
$MEASUREMENT
 70
1
  9
$CELWEIGHT
370
-1
  9
$ENDCAPS
280
0
  9
$JOINSTYLE
280
0
  9
$LWDISPLAY
290
0
  9
$INSUNITS
 70
6
  9
$HYPERLINKBASE
  1

  9
$STYLESHEET
  1

  9
$XEDIT
290
1
  9
$CEPSNTYPE
380
0
  9
$PSTYLEMODE
290
1
  9
$FINGERPRINTGUID
  2
{47620B91-489D-4374-BB05-F625B156D35B}
  9
$VERSIONGUID
  2
{72C59C8C-FBE2-4896-B99C-EEF7C729451E}
  9
$EXTNAMES
290
1
  9
$PSVPSCALE
 40
0.0
  9
$OLESTARTUP
290
0
  9
$SORTENTS
280
127
  9
$INDEXCTL
280
0
  9
$HIDETEXT
280
1
  9
$XCLIPFRAME
280
0
  9
$HALOGAP
280
0
  9
$OBSCOLOR
 70
257
  9
$OBSLTYPE
280
0
  9
$INTERSECTIONDISPLAY
280
0
  9
$INTERSECTIONCOLOR
 70
257
  9
$DIMASSOC
280
2
  9
$PROJECTNAME
  1

  9
$CAMERADISPLAY
290
0
  9
$LENSLENGTH
 40
50.0
  9
$CAMERAHEIGHT
 40
0.0
  9
$STEPSPERSEC
 40
24.0
  9
$STEPSIZE
 40
100.0
  9
$3DDWFPREC
 40
2.0
  9
$PSOLWIDTH
 40
0.005
  9
$PSOLHEIGHT
 40
0.08
  9
$LOFTANG1
 40
1.570796326795
  9
$LOFTANG2
 40
1.570796326795
  9
$LOFTMAG1
 40
0.0
  9
$LOFTMAG2
 40
0.0
  9
$LOFTPARAM
 70
7
  9
$LOFTNORMALS
280
1
  9
$LATITUDE
 40
37.795
  9
$LONGITUDE
 40
-122.394
  9
$NORTHDIRECTION
 40
0.0
  9
$TIMEZONE
 70
-8000
  9
$LIGHTGLYPHDISPLAY
280
1
  9
$TILEMODELIGHTSYNCH
280
1
  9
$CMATERIAL
347
20
  9
$SOLIDHIST
280
0
  9
$SHOWHIST
280
1
  9
$DWFFRAME
280
2
  9
$DGNFRAME
280
2
  9
$REALWORLDSCALE
290
1
  9
$INTERFERECOLOR
 62
256
  9
$CSHADOW
280
0
  9
$SHADOWPLANELOCATION
 40
0.0
  0
ENDSEC
  0
SECTION
  2
CLASSES
  0
CLASS
  1
ACDBDICTIONARYWDFLT
  2
AcDbDictionaryWithDefault
  3
ObjectDBX Classes
 90
0
 91
0
280
0
281
0
  0
CLASS
  1
SUN
  2
AcDbSun
  3
SCENEOE
 90
1153
 91
0
280
0
281
0
  0
CLASS
  1
VISUALSTYLE
  2
AcDbVisualStyle
  3
ObjectDBX Classes
 90
4095
 91
0
280
0
281
0
  0
CLASS
  1
MATERIAL
  2
AcDbMaterial
  3
ObjectDBX Classes
 90
1153
 91
0
280
0
281
0
  0
CLASS
  1
SCALE
  2
AcDbScale
  3
ObjectDBX Classes
 90
1153
 91
0
280
0
281
0
  0
CLASS
  1
TABLESTYLE
  2
AcDbTableStyle
  3
ObjectDBX Classes
 90
4095
 91
0
280
0
281
0
  0
CLASS
  1
MLEADERSTYLE
  2
AcDbMLeaderStyle
  3
ACDB_MLEADERSTYLE_CLASS
 90
4095
 91
0
280
0
281
0
  0
CLASS
  1
DICTIONARYVAR
  2
AcDbDictionaryVar
  3
ObjectDBX Classes
 90
0
 91
0
280
0
281
0
  0
CLASS
  1
CELLSTYLEMAP
  2
AcDbCellStyleMap
  3
ObjectDBX Classes
 90
1152
 91
0
280
0
281
0
  0
CLASS
  1
MENTALRAYRENDERSETTINGS
  2
AcDbMentalRayRenderSettings
  3
SCENEOE
 90
1024
 91
0
280
0
281
0
  0
CLASS
  1
ACDBDETAILVIEWSTYLE
  2
AcDbDetailViewStyle
  3
ObjectDBX Classes
 90
1025
 91
0
280
0
281
0
  0
CLASS
  1
ACDBSECTIONVIEWSTYLE
  2
AcDbSectionViewStyle
  3
ObjectDBX Classes
 90
1025
 91
0
280
0
281
0
  0
CLASS
  1
RASTERVARIABLES
  2
AcDbRasterVariables
  3
ISM
 90
0
 91
0
280
0
281
0
  0
CLASS
  1
ACDBPLACEHOLDER
  2
AcDbPlaceHolder
  3
ObjectDBX Classes
 90
0
 91
0
280
0
281
0
  0
CLASS
  1
LAYOUT
  2
AcDbLayout
  3
ObjectDBX Classes
 90
0
 91
0
280
0
281
0
  0
ENDSEC
  0
SECTION
  2
TABLES
  0
TABLE
  2
VPORT
  5
8
330
0
100
AcDbSymbolTable
 70
1
  0
VPORT
  5
23
330
8
100
AcDbSymbolTableRecord
100
AcDbViewportTableRecord
  2
*Active
 70
0
 10
0.0
 20
0.0
 11
1.0
 21
1.0
 12
0.0
 22
0.0
 13
0.0
 23
0.0
 14
0.5
 24
0.5
 15
0.5
 25
0.5
 16
0.0
 26
0.0
 36
1.0
 17
0.0
 27
0.0
 37
0.0
 40
1000.0
 41
1.34
 42
50.0
 43
0.0
 44
0.0
 50
0.0
 51
0.0
 71
0
 72
1000
 73
1
 74
3
 75
0
 76
0
 77
0
 78
0
281
0
 65
0
146
0.0
  0
ENDTAB
  0
TABLE
  2
LTYPE
  5
2
330
0
100
AcDbSymbolTable
 70
3
  0
LTYPE
  5
24
330
2
100
AcDbSymbolTableRecord
100
AcDbLinetypeTableRecord
  2
ByBlock
 70
0
  3

 72
65
 73
0
 40
0.0
  0
LTYPE
  5
25
330
2
100
AcDbSymbolTableRecord
100
AcDbLinetypeTableRecord
  2
ByLayer
 70
0
  3

 72
65
 73
0
 40
0.0
  0
LTYPE
  5
26
330
2
100
AcDbSymbolTableRecord
100
AcDbLinetypeTableRecord
  2
Continuous
 70
0
  3

 72
65
 73
0
 40
0.0
  0
ENDTAB
  0
TABLE
  2
LAYER
  5
1
330
0
100
AcDbSymbolTable
 70
5
  0
LAYER
  5
27
330
1
100
AcDbSymbolTableRecord
100
AcDbLayerTableRecord
  2
0
 70
0
 62
7
  6
Continuous
370
-3
390
13
347
21
  0
LAYER
  5
28
330
1
100
AcDbSymbolTableRecord
100
AcDbLayerTableRecord
  2
Defpoints
 70
0
 62
7
  6
Continuous
290
0
370
-3
390
13
347
21
  0
LAYER
  5
2F
330
1
100
AcDbSymbolTableRecord
100
AcDbLayerTableRecord
  2
conductor
 70
0
 62
1
  6
Continuous
370
-3
390
13
347
21
  0
LAYER
  5
30
330
1
100
AcDbSymbolTableRecord
100
AcDbLayerTableRecord
  2
dielectric
 70
0
 62
8
  6
Continuous
370
-3
390
13
347
21
  0
LAYER
  5
31
330
1
100
AcDbSymbolTableRecord
100
AcDbLayerTableRecord
  2
substrate
 70
0
 62
5
  6
Continuous
370
-3
390
13
347
21
  0
ENDTAB
  0
TABLE
  2
STYLE
  5
5
330
0
100
AcDbSymbolTable
 70
1
  0
STYLE
  5
29
330
5
100
AcDbSymbolTableRecord
100
AcDbTextStyleTableRecord
  2
Standard
 70
0
 40
0.0
 41
1.0
 50
0.0
 71
0
 42
2.5
  3
txt
  4

  0
ENDTAB
  0
TABLE
  2
VIEW
  5
7
330
0
100
AcDbSymbolTable
 70
0
  0
ENDTAB
  0
TABLE
  2
UCS
  5
6
330
0
100
AcDbSymbolTable
 70
0
  0
ENDTAB
  0
TABLE
  2
APPID
  5
3
330
0
100
AcDbSymbolTable
 70
3
  0
APPID
  5
2A
330
3
100
AcDbSymbolTableRecord
100
AcDbRegAppTableRecord
  2
ACAD
 70
0
  0
APPID
  5
45
330
3
100
AcDbSymbolTableRecord
100
AcDbRegAppTableRecord
  2
HATCHBACKGROUNDCOLOR
 70
0
  0
APPID
  5
46
330
3
100
AcDbSymbolTableRecord
100
AcDbRegAppTableRecord
  2
EZDXF
 70
0
  0
ENDTAB
  0
TABLE
  2
DIMSTYLE
  5
4
330
0
100
AcDbSymbolTable
 70
1
100
AcDbDimStyleTable
  0
DIMSTYLE
105
2B
330
4
100
AcDbSymbolTableRecord
100
AcDbDimStyleTableRecord
  2
Standard
 70
0
 40
1.0
 41
2.5
 42
0.625
 43
3.75
 44
1.25
 45
0.0
 46
0.0
 47
0.0
 48
0.0
 49
2.5
140
2.5
141
2.5
142
0.0
143
0.03937007874
144
1.0
145
0.0
146
1.0
147
0.625
148
0.0
 69
0
 70
0
 71
0
 72
0
 73
0
 74
0
 75
0
 76
0
 77
1
 78
8
 79
3
170
0
171
3
172
1
173
0
174
0
175
0
176
0
177
0
178
0
179
2
271
2
272
2
273
2
274
3
275
0
276
0
277
2
278
44
279
0
280
0
281
0
282
0
283
0
284
8
285
0
286
0
288
0
289
3
290
0
371
-2
372
-2
  0
ENDTAB
  0
TABLE
  2
BLOCK_RECORD
  5
9
330
0
100
AcDbSymbolTable
 70
2
  0
BLOCK_RECORD
  5
17
330
9
100
AcDbSymbolTableRecord
100
AcDbBlockTableRecord
  2
*Model_Space
340
1A
 70
0
280
1
281
0
  0
BLOCK_RECORD
  5
1B
330
9
100
AcDbSymbolTableRecord
100
AcDbBlockTableRecord
  2
*Paper_Space
340
1E
 70
0
280
1
281
0
  0
ENDTAB
  0
ENDSEC
  0
SECTION
  2
BLOCKS
  0
BLOCK
  5
18
330
17
100
AcDbEntity
  8
0
100
AcDbBlockBegin
  2
*Model_Space
 70
0
 10
0.0
 20
0.0
 30
0.0
  3
*Model_Space
  1

  0
ENDBLK
  5
19
330
17
100
AcDbEntity
  8
0
100
AcDbBlockEnd
  0
BLOCK
  5
1C
330
1B
100
AcDbEntity
  8
0
100
AcDbBlockBegin
  2
*Paper_Space
 70
0
 10
0.0
 20
0.0
 30
0.0
  3
*Paper_Space
  1

  0
ENDBLK
  5
1D
330
1B
100
AcDbEntity
  8
0
100
AcDbBlockEnd
  0
ENDSEC
  0
SECTION
  2
ENTITIES
  0
LWPOLYLINE
  5
32
330
17
100
AcDbEntity
  8
conductor
100
AcDbPolyline
 90
211
 70
1
 43
0.5
 10
2517.5
 20
-2153.642578125
 10
2517.5
 20
-2163.4765625
 10
2507.666015625
 20
-2173.310546875
 10
2497.83203125
 20
-2173.310546875
 10
2487.998046875
 20
-2163.4765625
 10
2478.1640625
 20
-2163.4765625
 10
2468.330078125
 20
-2173.310546875
 10
2458.49609375
 20
-2173.310546875
 10
2448.662109375
 20
-2163.4765625
 10
2438.828125
 20
-2173.310546875
 10
2428.994140625
 20
-2173.310546875
 10
2419.16015625
 20
-2183.14453125
 10
2409.326171875
 20
-2183.14453125
 10
2399.4921875
 20
-2183.14453125
 10
2389.658203125
 20
-2183.14453125
 10
2379.82421875
 20
-2192.978515625
 10
2369.990234375
 20
-2192.978515625
 10
2360.15625
 20
-2192.978515625
 10
2350.322265625
 20
-2202.8125
 10
2340.48828125
 20
-2202.8125
 10
2330.654296875
 20
-2212.646484375
 10
2320.8203125
 20
-2222.48046875
 10
2310.986328125
 20
-2232.314453125
 10
2301.15234375
 20
-2232.314453125
 10
2291.318359375
 20
-2242.1484375
 10
2281.484375
 20
-2251.982421875
 10
2271.650390625
 20
-2261.81640625
 10
2261.81640625
 20
-2271.650390625
 10
2251.982421875
 20
-2281.484375
 10
2242.1484375
 20
-2291.318359375
 10
2232.314453125
 20
-2301.15234375
 10
2222.48046875
 20
-2310.986328125
 10
2222.48046875
 20
-2320.8203125
 10
2212.646484375
 20
-2330.654296875
 10
2202.8125
 20
-2340.48828125
 10
2202.8125
 20
-2350.322265625
 10
2192.978515625
 20
-2360.15625
 10
2183.14453125
 20
-2369.990234375
 10
2183.14453125
 20
-2379.82421875
 10
2183.14453125
 20
-2389.658203125
 10
2183.14453125
 20
-2399.4921875
 10
2173.310546875
 20
-2409.326171875
 10
2173.310546875
 20
-2419.16015625
 10
2163.4765625
 20
-2428.994140625
 10
2163.4765625
 20
-2438.828125
 10
2163.4765625
 20
-2448.662109375
 10
2163.4765625
 20
-2458.49609375
 10
2163.4765625
 20
-2468.330078125
 10
2173.310546875
 20
-2478.1640625
 10
2163.4765625
 20
-2487.998046875
 10
2163.4765625
 20
-2497.83203125
 10
2163.4765625
 20
-2507.666015625
 10
2163.4765625
 20
-2517.5
 10
2163.4765625
 20
-2527.333984375
 10
2163.4765625
 20
-2537.16796875
 10
2163.4765625
 20
-2547.001953125
 10
2163.4765625
 20
-2556.8359375
 10
2163.4765625
 20
-2566.669921875
 10
2163.4765625
 20
-2576.50390625
 10
2173.310546875
 20
-2586.337890625
 10
2173.310546875
 20
-2596.171875
 10
2173.310546875
 20
-2606.005859375
 10
2183.14453125
 20
-2615.83984375
 10
2183.14453125
 20
-2625.673828125
 10
2183.14453125
 20
-2635.5078125
 10
2183.14453125
 20
-2645.341796875
 10
2192.978515625
 20
-2655.17578125
 10
2202.8125
 20
-2665.009765625
 10
2202.8125
 20
-2674.84375
 10
2202.8125
 20
-2684.677734375
 10
2212.646484375
 20
-2684.677734375
 10
2222.48046875
 20
-2694.51171875
 10
2222.48046875
 20
-2704.345703125
 10
2222.48046875
 20
-2714.1796875
 10
2232.314453125
 20
-2724.013671875
 10
2242.1484375
 20
-2733.84765625
 10
2251.982421875
 20
-2743.681640625
 10
2251.982421875
 20
-2753.515625
 10
2261.81640625
 20
-2763.349609375
 10
2271.650390625
 20
-2763.349609375
 10
2281.484375
 20
-2773.18359375
 10
2291.318359375
 20
-2783.017578125
 10
2301.15234375
 20
-2792.8515625
 10
2310.986328125
 20
-2792.8515625
 10
2320.8203125
 20
-2802.685546875
 10
2330.654296875
 20
-2812.51953125
 10
2340.48828125
 20
-2812.51953125
 10
2350.322265625
 20
-2812.51953125
 10
2360.15625
 20
-2812.51953125
 10
2369.990234375
 20
-2822.353515625
 10
2379.82421875
 20
-2832.1875
 10
2389.658203125
 20
-2842.021484375
 10
2399.4921875
 20
-2851.85546875
 10
2409.326171875
 20
-2851.85546875
 10
2419.16015625
 20
-2851.85546875
 10
2428.994140625
 20
-2851.85546875
 10
2438.828125
 20
-2851.85546875
 10
2448.662109375
 20
-2851.85546875
 10
2458.49609375
 20
-2861.689453125
 10
2468.330078125
 20
-2861.689453125
 10
2478.1640625
 20
-2851.85546875
 10
2487.998046875
 20
-2851.85546875
 10
2497.83203125
 20
-2851.85546875
 10
2507.666015625
 20
-2851.85546875
 10
2517.5
 20
-2851.85546875
 10
2527.333984375
 20
-2851.85546875
 10
2537.16796875
 20
-2861.689453125
 10
2547.001953125
 20
-2861.689453125
 10
2556.8359375
 20
-2861.689453125
 10
2566.669921875
 20
-2851.85546875
 10
2576.50390625
 20
-2851.85546875
 10
2586.337890625
 20
-2842.021484375
 10
2596.171875
 20
-2842.021484375
 10
2606.005859375
 20
-2832.1875
 10
2615.83984375
 20
-2832.1875
 10
2625.673828125
 20
-2832.1875
 10
2635.5078125
 20
-2822.353515625
 10
2645.341796875
 20
-2822.353515625
 10
2655.17578125
 20
-2822.353515625
 10
2665.009765625
 20
-2812.51953125
 10
2674.84375
 20
-2812.51953125
 10
2684.677734375
 20
-2812.51953125
 10
2694.51171875
 20
-2802.685546875
 10
2704.345703125
 20
-2802.685546875
 10
2714.1796875
 20
-2792.8515625
 10
2724.013671875
 20
-2792.8515625
 10
2733.84765625
 20
-2783.017578125
 10
2743.681640625
 20
-2783.017578125
 10
2743.681640625
 20
-2773.18359375
 10
2753.515625
 20
-2763.349609375
 10
2763.349609375
 20
-2753.515625
 10
2773.18359375
 20
-2743.681640625
 10
2783.017578125
 20
-2733.84765625
 10
2792.8515625
 20
-2724.013671875
 10
2802.685546875
 20
-2714.1796875
 10
2812.51953125
 20
-2704.345703125
 10
2812.51953125
 20
-2694.51171875
 10
2822.353515625
 20
-2684.677734375
 10
2822.353515625
 20
-2674.84375
 10
2832.1875
 20
-2665.009765625
 10
2832.1875
 20
-2655.17578125
 10
2842.021484375
 20
-2645.341796875
 10
2842.021484375
 20
-2635.5078125
 10
2851.85546875
 20
-2625.673828125
 10
2851.85546875
 20
-2615.83984375
 10
2851.85546875
 20
-2606.005859375
 10
2861.689453125
 20
-2596.171875
 10
2861.689453125
 20
-2586.337890625
 10
2871.5234375
 20
-2576.50390625
 10
2871.5234375
 20
-2566.669921875
 10
2861.689453125
 20
-2556.8359375
 10
2861.689453125
 20
-2547.001953125
 10
2861.689453125
 20
-2537.16796875
 10
2861.689453125
 20
-2527.333984375
 10
2861.689453125
 20
-2517.5
 10
2861.689453125
 20
-2507.666015625
 10
2861.689453125
 20
-2497.83203125
 10
2861.689453125
 20
-2487.998046875
 10
2861.689453125
 20
-2478.1640625
 10
2861.689453125
 20
-2468.330078125
 10
2861.689453125
 20
-2458.49609375
 10
2851.85546875
 20
-2448.662109375
 10
2851.85546875
 20
-2438.828125
 10
2842.021484375
 20
-2428.994140625
 10
2842.021484375
 20
-2419.16015625
 10
2842.021484375
 20
-2409.326171875
 10
2842.021484375
 20
-2399.4921875
 10
2842.021484375
 20
-2389.658203125
 10
2832.1875
 20
-2379.82421875
 10
2832.1875
 20
-2369.990234375
 10
2832.1875
 20
-2360.15625
 10
2832.1875
 20
-2350.322265625
 10
2822.353515625
 20
-2340.48828125
 10
2822.353515625
 20
-2330.654296875
 10
2812.51953125
 20
-2320.8203125
 10
2802.685546875
 20
-2320.8203125
 10
2792.8515625
 20
-2310.986328125
 10
2792.8515625
 20
-2301.15234375
 10
2783.017578125
 20
-2291.318359375
 10
2783.017578125
 20
-2281.484375
 10
2773.18359375
 20
-2271.650390625
 10
2763.349609375
 20
-2271.650390625
 10
2753.515625
 20
-2271.650390625
 10
2743.681640625
 20
-2261.81640625
 10
2743.681640625
 20
-2251.982421875
 10
2733.84765625
 20
-2251.982421875
 10
2724.013671875
 20
-2242.1484375
 10
2714.1796875
 20
-2232.314453125
 10
2714.1796875
 20
-2222.48046875
 10
2704.345703125
 20
-2212.646484375
 10
2694.51171875
 20
-2222.48046875
 10
2684.677734375
 20
-2222.48046875
 10
2674.84375
 20
-2212.646484375
 10
2665.009765625
 20
-2202.8125
 10
2655.17578125
 20
-2202.8125
 10
2645.341796875
 20
-2192.978515625
 10
2645.341796875
 20
-2183.14453125
 10
2635.5078125
 20
-2183.14453125
 10
2625.673828125
 20
-2183.14453125
 10
2615.83984375
 20
-2173.310546875
 10
2606.005859375
 20
-2173.310546875
 10
2596.171875
 20
-2173.310546875
 10
2586.337890625
 20
-2173.310546875
 10
2576.50390625
 20
-2173.310546875
 10
2566.669921875
 20
-2163.4765625
 10
2556.8359375
 20
-2153.642578125
 10
2556.8359375
 20
-2163.4765625
 10
2547.001953125
 20
-2173.310546875
 10
2537.16796875
 20
-2163.4765625
 10
2537.16796875
 20
-2153.642578125
 10
2527.333984375
 20
-2153.642578125
  0
LWPOLYLINE
  5
33
330
17
100
AcDbEntity
  8
conductor
100
AcDbPolyline
 90
9
 70
1
 43
0.5
 10
2478.1640625
 20
-2743.681640625
 10
2487.998046875
 20
-2733.84765625
 10
2497.83203125
 20
-2733.84765625
 10
2507.666015625
 20
-2733.84765625
 10
2517.5
 20
-2743.681640625
 10
2507.666015625
 20
-2753.515625
 10
2497.83203125
 20
-2753.515625
 10
2487.998046875
 20
-2763.349609375
 10
2478.1640625
 20
-2753.515625
  0
LWPOLYLINE
  5
34
330
17
100
AcDbEntity
  8
conductor
100
AcDbPolyline
 90
4
 70
1
 43
0.5
 10
2507.666015625
 20
-2674.84375
 10
2517.5
 20
-2665.009765625
 10
2527.333984375
 20
-2674.84375
 10
2517.5
 20
-2684.677734375
  0
LWPOLYLINE
  5
35
330
17
100
AcDbEntity
  8
conductor
100
AcDbPolyline
 90
4
 70
1
 43
0.5
 10
2704.345703125
 20
-2625.673828125
 10
2714.1796875
 20
-2615.83984375
 10
2724.013671875
 20
-2625.673828125
 10
2714.1796875
 20
-2635.5078125
  0
LWPOLYLINE
  5
36
330
17
100
AcDbEntity
  8
conductor
100
AcDbPolyline
 90
4
 70
1
 43
0.5
 10
2428.994140625
 20
-2615.83984375
 10
2438.828125
 20
-2606.005859375
 10
2448.662109375
 20
-2615.83984375
 10
2438.828125
 20
-2625.673828125
  0
LWPOLYLINE
  5
37
330
17
100
AcDbEntity
  8
conductor
100
AcDbPolyline
 90
4
 70
1
 43
0.5
 10
2409.326171875
 20
-2615.83984375
 10
2419.16015625
 20
-2606.005859375
 10
2428.994140625
 20
-2615.83984375
 10
2419.16015625
 20
-2625.673828125
  0
LWPOLYLINE
  5
38
330
17
100
AcDbEntity
  8
dielectric
100
AcDbPolyline
 90
1
 70
1
 43
0.5
 10
2665.009765625
 20
-3107.5390625
  0
LWPOLYLINE
  5
39
330
17
100
AcDbEntity
  8
substrate
100
AcDbPolyline
 90
2044
 70
1
 43
0.5
 10
0.0
 20
-0.0
 10
0.0
 20
-9.833984375
 10
0.0
 20
-19.66796875
 10
0.0
 20
-29.501953125
 10
0.0
 20
-39.3359375
 10
0.0
 20
-49.169921875
 10
0.0
 20
-59.00390625
 10
0.0
 20
-68.837890625
 10
0.0
 20
-78.671875
 10
0.0
 20
-88.505859375
 10
0.0
 20
-98.33984375
 10
0.0
 20
-108.173828125
 10
0.0
 20
-118.0078125
 10
0.0
 20
-127.841796875
 10
0.0
 20
-137.67578125
 10
0.0
 20
-147.509765625
 10
0.0
 20
-157.34375
 10
0.0
 20
-167.177734375
 10
0.0
 20
-177.01171875
 10
0.0
 20
-186.845703125
 10
0.0
 20
-196.6796875
 10
0.0
 20
-206.513671875
 10
0.0
 20
-216.34765625
 10
0.0
 20
-226.181640625
 10
0.0
 20
-236.015625
 10
0.0
 20
-245.849609375
 10
0.0
 20
-255.68359375
 10
0.0
 20
-265.517578125
 10
0.0
 20
-275.3515625
 10
0.0
 20
-285.185546875
 10
0.0
 20
-295.01953125
 10
0.0
 20
-304.853515625
 10
0.0
 20
-314.6875
 10
0.0
 20
-324.521484375
 10
0.0
 20
-334.35546875
 10
0.0
 20
-344.189453125
 10
0.0
 20
-354.0234375
 10
0.0
 20
-363.857421875
 10
0.0
 20
-373.69140625
 10
0.0
 20
-383.525390625
 10
0.0
 20
-393.359375
 10
0.0
 20
-403.193359375
 10
0.0
 20
-413.02734375
 10
0.0
 20
-422.861328125
 10
0.0
 20
-432.6953125
 10
0.0
 20
-442.529296875
 10
0.0
 20
-452.36328125
 10
0.0
 20
-462.197265625
 10
0.0
 20
-472.03125
 10
0.0
 20
-481.865234375
 10
0.0
 20
-491.69921875
 10
0.0
 20
-501.533203125
 10
0.0
 20
-511.3671875
 10
0.0
 20
-521.201171875
 10
0.0
 20
-531.03515625
 10
0.0
 20
-540.869140625
 10
0.0
 20
-550.703125
 10
0.0
 20
-560.537109375
 10
0.0
 20
-570.37109375
 10
0.0
 20
-580.205078125
 10
0.0
 20
-590.0390625
 10
0.0
 20
-599.873046875
 10
0.0
 20
-609.70703125
 10
0.0
 20
-619.541015625
 10
0.0
 20
-629.375
 10
0.0
 20
-639.208984375
 10
0.0
 20
-649.04296875
 10
0.0
 20
-658.876953125
 10
0.0
 20
-668.7109375
 10
0.0
 20
-678.544921875
 10
0.0
 20
-688.37890625
 10
0.0
 20
-698.212890625
 10
0.0
 20
-708.046875
 10
0.0
 20
-717.880859375
 10
0.0
 20
-727.71484375
 10
0.0
 20
-737.548828125
 10
0.0
 20
-747.3828125
 10
0.0
 20
-757.216796875
 10
0.0
 20
-767.05078125
 10
0.0
 20
-776.884765625
 10
0.0
 20
-786.71875
 10
0.0
 20
-796.552734375
 10
0.0
 20
-806.38671875
 10
0.0
 20
-816.220703125
 10
0.0
 20
-826.0546875
 10
0.0
 20
-835.888671875
 10
0.0
 20
-845.72265625
 10
0.0
 20
-855.556640625
 10
0.0
 20
-865.390625
 10
0.0
 20
-875.224609375
 10
0.0
 20
-885.05859375
 10
0.0
 20
-894.892578125
 10
0.0
 20
-904.7265625
 10
0.0
 20
-914.560546875
 10
0.0
 20
-924.39453125
 10
0.0
 20
-934.228515625
 10
0.0
 20
-944.0625
 10
0.0
 20
-953.896484375
 10
0.0
 20
-963.73046875
 10
0.0
 20
-973.564453125
 10
0.0
 20
-983.3984375
 10
0.0
 20
-993.232421875
 10
0.0
 20
-1003.06640625
 10
0.0
 20
-1012.900390625
 10
0.0
 20
-1022.734375
 10
0.0
 20
-1032.568359375
 10
0.0
 20
-1042.40234375
 10
0.0
 20
-1052.236328125
 10
0.0
 20
-1062.0703125
 10
0.0
 20
-1071.904296875
 10
0.0
 20
-1081.73828125
 10
0.0
 20
-1091.572265625
 10
0.0
 20
-1101.40625
 10
0.0
 20
-1111.240234375
 10
0.0
 20
-1121.07421875
 10
0.0
 20
-1130.908203125
 10
0.0
 20
-1140.7421875
 10
0.0
 20
-1150.576171875
 10
0.0
 20
-1160.41015625
 10
0.0
 20
-1170.244140625
 10
0.0
 20
-1180.078125
 10
0.0
 20
-1189.912109375
 10
0.0
 20
-1199.74609375
 10
0.0
 20
-1209.580078125
 10
0.0
 20
-1219.4140625
 10
0.0
 20
-1229.248046875
 10
0.0
 20
-1239.08203125
 10
0.0
 20
-1248.916015625
 10
0.0
 20
-1258.75
 10
0.0
 20
-1268.583984375
 10
0.0
 20
-1278.41796875
 10
0.0
 20
-1288.251953125
 10
0.0
 20
-1298.0859375
 10
0.0
 20
-1307.919921875
 10
0.0
 20
-1317.75390625
 10
0.0
 20
-1327.587890625
 10
0.0
 20
-1337.421875
 10
0.0
 20
-1347.255859375
 10
0.0
 20
-1357.08984375
 10
0.0
 20
-1366.923828125
 10
0.0
 20
-1376.7578125
 10
0.0
 20
-1386.591796875
 10
0.0
 20
-1396.42578125
 10
0.0
 20
-1406.259765625
 10
0.0
 20
-1416.09375
 10
0.0
 20
-1425.927734375
 10
0.0
 20
-1435.76171875
 10
0.0
 20
-1445.595703125
 10
0.0
 20
-1455.4296875
 10
0.0
 20
-1465.263671875
 10
0.0
 20
-1475.09765625
 10
0.0
 20
-1484.931640625
 10
0.0
 20
-1494.765625
 10
0.0
 20
-1504.599609375
 10
0.0
 20
-1514.43359375
 10
0.0
 20
-1524.267578125
 10
0.0
 20
-1534.1015625
 10
0.0
 20
-1543.935546875
 10
0.0
 20
-1553.76953125
 10
0.0
 20
-1563.603515625
 10
0.0
 20
-1573.4375
 10
0.0
 20
-1583.271484375
 10
0.0
 20
-1593.10546875
 10
0.0
 20
-1602.939453125
 10
0.0
 20
-1612.7734375
 10
0.0
 20
-1622.607421875
 10
0.0
 20
-1632.44140625
 10
0.0
 20
-1642.275390625
 10
0.0
 20
-1652.109375
 10
0.0
 20
-1661.943359375
 10
0.0
 20
-1671.77734375
 10
0.0
 20
-1681.611328125
 10
0.0
 20
-1691.4453125
 10
0.0
 20
-1701.279296875
 10
0.0
 20
-1711.11328125
 10
0.0
 20
-1720.947265625
 10
0.0
 20
-1730.78125
 10
0.0
 20
-1740.615234375
 10
0.0
 20
-1750.44921875
 10
0.0
 20
-1760.283203125
 10
0.0
 20
-1770.1171875
 10
0.0
 20
-1779.951171875
 10
0.0
 20
-1789.78515625
 10
0.0
 20
-1799.619140625
 10
0.0
 20
-1809.453125
 10
0.0
 20
-1819.287109375
 10
0.0
 20
-1829.12109375
 10
0.0
 20
-1838.955078125
 10
0.0
 20
-1848.7890625
 10
0.0
 20
-1858.623046875
 10
0.0
 20
-1868.45703125
 10
0.0
 20
-1878.291015625
 10
0.0
 20
-1888.125
 10
0.0
 20
-1897.958984375
 10
0.0
 20
-1907.79296875
 10
0.0
 20
-1917.626953125
 10
0.0
 20
-1927.4609375
 10
0.0
 20
-1937.294921875
 10
0.0
 20
-1947.12890625
 10
0.0
 20
-1956.962890625
 10
0.0
 20
-1966.796875
 10
0.0
 20
-1976.630859375
 10
0.0
 20
-1986.46484375
 10
0.0
 20
-1996.298828125
 10
0.0
 20
-2006.1328125
 10
0.0
 20
-2015.966796875
 10
0.0
 20
-2025.80078125
 10
0.0
 20
-2035.634765625
 10
0.0
 20
-2045.46875
 10
0.0
 20
-2055.302734375
 10
0.0
 20
-2065.13671875
 10
0.0
 20
-2074.970703125
 10
0.0
 20
-2084.8046875
 10
0.0
 20
-2094.638671875
 10
0.0
 20
-2104.47265625
 10
0.0
 20
-2114.306640625
 10
0.0
 20
-2124.140625
 10
0.0
 20
-2133.974609375
 10
0.0
 20
-2143.80859375
 10
0.0
 20
-2153.642578125
 10
0.0
 20
-2163.4765625
 10
0.0
 20
-2173.310546875
 10
0.0
 20
-2183.14453125
 10
0.0
 20
-2192.978515625
 10
0.0
 20
-2202.8125
 10
0.0
 20
-2212.646484375
 10
0.0
 20
-2222.48046875
 10
0.0
 20
-2232.314453125
 10
0.0
 20
-2242.1484375
 10
0.0
 20
-2251.982421875
 10
0.0
 20
-2261.81640625
 10
0.0
 20
-2271.650390625
 10
0.0
 20
-2281.484375
 10
0.0
 20
-2291.318359375
 10
0.0
 20
-2301.15234375
 10
0.0
 20
-2310.986328125
 10
0.0
 20
-2320.8203125
 10
0.0
 20
-2330.654296875
 10
0.0
 20
-2340.48828125
 10
0.0
 20
-2350.322265625
 10
0.0
 20
-2360.15625
 10
0.0
 20
-2369.990234375
 10
0.0
 20
-2379.82421875
 10
0.0
 20
-2389.658203125
 10
0.0
 20
-2399.4921875
 10
0.0
 20
-2409.326171875
 10
0.0
 20
-2419.16015625
 10
0.0
 20
-2428.994140625
 10
0.0
 20
-2438.828125
 10
0.0
 20
-2448.662109375
 10
0.0
 20
-2458.49609375
 10
0.0
 20
-2468.330078125
 10
0.0
 20
-2478.1640625
 10
0.0
 20
-2487.998046875
 10
0.0
 20
-2497.83203125
 10
0.0
 20
-2507.666015625
 10
0.0
 20
-2517.5
 10
0.0
 20
-2527.333984375
 10
0.0
 20
-2537.16796875
 10
0.0
 20
-2547.001953125
 10
0.0
 20
-2556.8359375
 10
0.0
 20
-2566.669921875
 10
0.0
 20
-2576.50390625
 10
0.0
 20
-2586.337890625
 10
0.0
 20
-2596.171875
 10
0.0
 20
-2606.005859375
 10
0.0
 20
-2615.83984375
 10
0.0
 20
-2625.673828125
 10
0.0
 20
-2635.5078125
 10
0.0
 20
-2645.341796875
 10
0.0
 20
-2655.17578125
 10
0.0
 20
-2665.009765625
 10
0.0
 20
-2674.84375
 10
0.0
 20
-2684.677734375
 10
0.0
 20
-2694.51171875
 10
0.0
 20
-2704.345703125
 10
0.0
 20
-2714.1796875
 10
0.0
 20
-2724.013671875
 10
0.0
 20
-2733.84765625
 10
0.0
 20
-2743.681640625
 10
0.0
 20
-2753.515625
 10
0.0
 20
-2763.349609375
 10
0.0
 20
-2773.18359375
 10
0.0
 20
-2783.017578125
 10
0.0
 20
-2792.8515625
 10
0.0
 20
-2802.685546875
 10
0.0
 20
-2812.51953125
 10
0.0
 20
-2822.353515625
 10
0.0
 20
-2832.1875
 10
0.0
 20
-2842.021484375
 10
0.0
 20
-2851.85546875
 10
0.0
 20
-2861.689453125
 10
0.0
 20
-2871.5234375
 10
0.0
 20
-2881.357421875
 10
0.0
 20
-2891.19140625
 10
0.0
 20
-2901.025390625
 10
0.0
 20
-2910.859375
 10
0.0
 20
-2920.693359375
 10
0.0
 20
-2930.52734375
 10
0.0
 20
-2940.361328125
 10
0.0
 20
-2950.1953125
 10
0.0
 20
-2960.029296875
 10
0.0
 20
-2969.86328125
 10
0.0
 20
-2979.697265625
 10
0.0
 20
-2989.53125
 10
0.0
 20
-2999.365234375
 10
0.0
 20
-3009.19921875
 10
0.0
 20
-3019.033203125
 10
0.0
 20
-3028.8671875
 10
0.0
 20
-3038.701171875
 10
0.0
 20
-3048.53515625
 10
0.0
 20
-3058.369140625
 10
0.0
 20
-3068.203125
 10
0.0
 20
-3078.037109375
 10
0.0
 20
-3087.87109375
 10
0.0
 20
-3097.705078125
 10
0.0
 20
-3107.5390625
 10
0.0
 20
-3117.373046875
 10
0.0
 20
-3127.20703125
 10
0.0
 20
-3137.041015625
 10
0.0
 20
-3146.875
 10
0.0
 20
-3156.708984375
 10
0.0
 20
-3166.54296875
 10
0.0
 20
-3176.376953125
 10
0.0
 20
-3186.2109375
 10
0.0
 20
-3196.044921875
 10
0.0
 20
-3205.87890625
 10
0.0
 20
-3215.712890625
 10
0.0
 20
-3225.546875
 10
0.0
 20
-3235.380859375
 10
0.0
 20
-3245.21484375
 10
0.0
 20
-3255.048828125
 10
0.0
 20
-3264.8828125
 10
0.0
 20
-3274.716796875
 10
0.0
 20
-3284.55078125
 10
0.0
 20
-3294.384765625
 10
0.0
 20
-3304.21875
 10
0.0
 20
-3314.052734375
 10
0.0
 20
-3323.88671875
 10
0.0
 20
-3333.720703125
 10
0.0
 20
-3343.5546875
 10
0.0
 20
-3353.388671875
 10
0.0
 20
-3363.22265625
 10
0.0
 20
-3373.056640625
 10
0.0
 20
-3382.890625
 10
0.0
 20
-3392.724609375
 10
0.0
 20
-3402.55859375
 10
0.0
 20
-3412.392578125
 10
0.0
 20
-3422.2265625
 10
0.0
 20
-3432.060546875
 10
0.0
 20
-3441.89453125
 10
0.0
 20
-3451.728515625
 10
0.0
 20
-3461.5625
 10
0.0
 20
-3471.396484375
 10
0.0
 20
-3481.23046875
 10
0.0
 20
-3491.064453125
 10
0.0
 20
-3500.8984375
 10
0.0
 20
-3510.732421875
 10
0.0
 20
-3520.56640625
 10
0.0
 20
-3530.400390625
 10
0.0
 20
-3540.234375
 10
0.0
 20
-3550.068359375
 10
0.0
 20
-3559.90234375
 10
0.0
 20
-3569.736328125
 10
0.0
 20
-3579.5703125
 10
0.0
 20
-3589.404296875
 10
0.0
 20
-3599.23828125
 10
0.0
 20
-3609.072265625
 10
0.0
 20
-3618.90625
 10
0.0
 20
-3628.740234375
 10
0.0
 20
-3638.57421875
 10
0.0
 20
-3648.408203125
 10
0.0
 20
-3658.2421875
 10
0.0
 20
-3668.076171875
 10
0.0
 20
-3677.91015625
 10
0.0
 20
-3687.744140625
 10
0.0
 20
-3697.578125
 10
0.0
 20
-3707.412109375
 10
0.0
 20
-3717.24609375
 10
0.0
 20
-3727.080078125
 10
0.0
 20
-3736.9140625
 10
0.0
 20
-3746.748046875
 10
0.0
 20
-3756.58203125
 10
0.0
 20
-3766.416015625
 10
0.0
 20
-3776.25
 10
0.0
 20
-3786.083984375
 10
0.0
 20
-3795.91796875
 10
0.0
 20
-3805.751953125
 10
0.0
 20
-3815.5859375
 10
0.0
 20
-3825.419921875
 10
0.0
 20
-3835.25390625
 10
0.0
 20
-3845.087890625
 10
0.0
 20
-3854.921875
 10
0.0
 20
-3864.755859375
 10
0.0
 20
-3874.58984375
 10
0.0
 20
-3884.423828125
 10
0.0
 20
-3894.2578125
 10
0.0
 20
-3904.091796875
 10
0.0
 20
-3913.92578125
 10
0.0
 20
-3923.759765625
 10
0.0
 20
-3933.59375
 10
0.0
 20
-3943.427734375
 10
0.0
 20
-3953.26171875
 10
0.0
 20
-3963.095703125
 10
0.0
 20
-3972.9296875
 10
0.0
 20
-3982.763671875
 10
0.0
 20
-3992.59765625
 10
0.0
 20
-4002.431640625
 10
0.0
 20
-4012.265625
 10
0.0
 20
-4022.099609375
 10
0.0
 20
-4031.93359375
 10
0.0
 20
-4041.767578125
 10
0.0
 20
-4051.6015625
 10
0.0
 20
-4061.435546875
 10
0.0
 20
-4071.26953125
 10
0.0
 20
-4081.103515625
 10
0.0
 20
-4090.9375
 10
0.0
 20
-4100.771484375
 10
0.0
 20
-4110.60546875
 10
0.0
 20
-4120.439453125
 10
0.0
 20
-4130.2734375
 10
0.0
 20
-4140.107421875
 10
0.0
 20
-4149.94140625
 10
0.0
 20
-4159.775390625
 10
0.0
 20
-4169.609375
 10
0.0
 20
-4179.443359375
 10
0.0
 20
-4189.27734375
 10
0.0
 20
-4199.111328125
 10
0.0
 20
-4208.9453125
 10
0.0
 20
-4218.779296875
 10
0.0
 20
-4228.61328125
 10
0.0
 20
-4238.447265625
 10
0.0
 20
-4248.28125
 10
0.0
 20
-4258.115234375
 10
0.0
 20
-4267.94921875
 10
0.0
 20
-4277.783203125
 10
0.0
 20
-4287.6171875
 10
0.0
 20
-4297.451171875
 10
0.0
 20
-4307.28515625
 10
0.0
 20
-4317.119140625
 10
0.0
 20
-4326.953125
 10
0.0
 20
-4336.787109375
 10
0.0
 20
-4346.62109375
 10
0.0
 20
-4356.455078125
 10
0.0
 20
-4366.2890625
 10
0.0
 20
-4376.123046875
 10
0.0
 20
-4385.95703125
 10
0.0
 20
-4395.791015625
 10
0.0
 20
-4405.625
 10
0.0
 20
-4415.458984375
 10
0.0
 20
-4425.29296875
 10
0.0
 20
-4435.126953125
 10
0.0
 20
-4444.9609375
 10
0.0
 20
-4454.794921875
 10
0.0
 20
-4464.62890625
 10
0.0
 20
-4474.462890625
 10
0.0
 20
-4484.296875
 10
0.0
 20
-4494.130859375
 10
0.0
 20
-4503.96484375
 10
0.0
 20
-4513.798828125
 10
0.0
 20
-4523.6328125
 10
0.0
 20
-4533.466796875
 10
0.0
 20
-4543.30078125
 10
0.0
 20
-4553.134765625
 10
0.0
 20
-4562.96875
 10
0.0
 20
-4572.802734375
 10
0.0
 20
-4582.63671875
 10
0.0
 20
-4592.470703125
 10
0.0
 20
-4602.3046875
 10
0.0
 20
-4612.138671875
 10
0.0
 20
-4621.97265625
 10
0.0
 20
-4631.806640625
 10
0.0
 20
-4641.640625
 10
0.0
 20
-4651.474609375
 10
0.0
 20
-4661.30859375
 10
0.0
 20
-4671.142578125
 10
0.0
 20
-4680.9765625
 10
0.0
 20
-4690.810546875
 10
0.0
 20
-4700.64453125
 10
0.0
 20
-4710.478515625
 10
0.0
 20
-4720.3125
 10
0.0
 20
-4730.146484375
 10
0.0
 20
-4739.98046875
 10
0.0
 20
-4749.814453125
 10
0.0
 20
-4759.6484375
 10
0.0
 20
-4769.482421875
 10
0.0
 20
-4779.31640625
 10
0.0
 20
-4789.150390625
 10
0.0
 20
-4798.984375
 10
0.0
 20
-4808.818359375
 10
0.0
 20
-4818.65234375
 10
0.0
 20
-4828.486328125
 10
0.0
 20
-4838.3203125
 10
0.0
 20
-4848.154296875
 10
0.0
 20
-4857.98828125
 10
0.0
 20
-4867.822265625
 10
0.0
 20
-4877.65625
 10
0.0
 20
-4887.490234375
 10
0.0
 20
-4897.32421875
 10
0.0
 20
-4907.158203125
 10
0.0
 20
-4916.9921875
 10
0.0
 20
-4926.826171875
 10
0.0
 20
-4936.66015625
 10
0.0
 20
-4946.494140625
 10
0.0
 20
-4956.328125
 10
0.0
 20
-4966.162109375
 10
0.0
 20
-4975.99609375
 10
0.0
 20
-4985.830078125
 10
0.0
 20
-4995.6640625
 10
0.0
 20
-5005.498046875
 10
0.0
 20
-5015.33203125
 10
0.0
 20
-5025.166015625
 10
9.833984375
 20
-5025.166015625
 10
19.66796875
 20
-5025.166015625
 10
29.501953125
 20
-5025.166015625
 10
39.3359375
 20
-5025.166015625
 10
49.169921875
 20
-5025.166015625
 10
59.00390625
 20
-5025.166015625
 10
68.837890625
 20
-5025.166015625
 10
78.671875
 20
-5025.166015625
 10
88.505859375
 20
-5025.166015625
 10
98.33984375
 20
-5025.166015625
 10
108.173828125
 20
-5025.166015625
 10
118.0078125
 20
-5025.166015625
 10
127.841796875
 20
-5025.166015625
 10
137.67578125
 20
-5025.166015625
 10
147.509765625
 20
-5025.166015625
 10
157.34375
 20
-5025.166015625
 10
167.177734375
 20
-5025.166015625
 10
177.01171875
 20
-5025.166015625
 10
186.845703125
 20
-5025.166015625
 10
196.6796875
 20
-5025.166015625
 10
206.513671875
 20
-5025.166015625
 10
216.34765625
 20
-5025.166015625
 10
226.181640625
 20
-5025.166015625
 10
236.015625
 20
-5025.166015625
 10
245.849609375
 20
-5025.166015625
 10
255.68359375
 20
-5025.166015625
 10
265.517578125
 20
-5025.166015625
 10
275.3515625
 20
-5025.166015625
 10
285.185546875
 20
-5025.166015625
 10
295.01953125
 20
-5025.166015625
 10
304.853515625
 20
-5025.166015625
 10
314.6875
 20
-5025.166015625
 10
324.521484375
 20
-5025.166015625
 10
334.35546875
 20
-5025.166015625
 10
344.189453125
 20
-5025.166015625
 10
354.0234375
 20
-5025.166015625
 10
363.857421875
 20
-5025.166015625
 10
373.69140625
 20
-5025.166015625
 10
383.525390625
 20
-5025.166015625
 10
393.359375
 20
-5025.166015625
 10
403.193359375
 20
-5025.166015625
 10
413.02734375
 20
-5025.166015625
 10
422.861328125
 20
-5025.166015625
 10
432.6953125
 20
-5025.166015625
 10
442.529296875
 20
-5025.166015625
 10
452.36328125
 20
-5025.166015625
 10
462.197265625
 20
-5025.166015625
 10
472.03125
 20
-5025.166015625
 10
481.865234375
 20
-5025.166015625
 10
491.69921875
 20
-5025.166015625
 10
501.533203125
 20
-5025.166015625
 10
511.3671875
 20
-5025.166015625
 10
521.201171875
 20
-5025.166015625
 10
531.03515625
 20
-5025.166015625
 10
540.869140625
 20
-5025.166015625
 10
550.703125
 20
-5025.166015625
 10
560.537109375
 20
-5025.166015625
 10
570.37109375
 20
-5025.166015625
 10
580.205078125
 20
-5025.166015625
 10
590.0390625
 20
-5025.166015625
 10
599.873046875
 20
-5025.166015625
 10
609.70703125
 20
-5025.166015625
 10
619.541015625
 20
-5025.166015625
 10
629.375
 20
-5025.166015625
 10
639.208984375
 20
-5025.166015625
 10
649.04296875
 20
-5025.166015625
 10
658.876953125
 20
-5025.166015625
 10
668.7109375
 20
-5025.166015625
 10
678.544921875
 20
-5025.166015625
 10
688.37890625
 20
-5025.166015625
 10
698.212890625
 20
-5025.166015625
 10
708.046875
 20
-5025.166015625
 10
717.880859375
 20
-5025.166015625
 10
727.71484375
 20
-5025.166015625
 10
737.548828125
 20
-5025.166015625
 10
747.3828125
 20
-5025.166015625
 10
757.216796875
 20
-5025.166015625
 10
767.05078125
 20
-5025.166015625
 10
776.884765625
 20
-5025.166015625
 10
786.71875
 20
-5025.166015625
 10
796.552734375
 20
-5025.166015625
 10
806.38671875
 20
-5025.166015625
 10
816.220703125
 20
-5025.166015625
 10
826.0546875
 20
-5025.166015625
 10
835.888671875
 20
-5025.166015625
 10
845.72265625
 20
-5025.166015625
 10
855.556640625
 20
-5025.166015625
 10
865.390625
 20
-5025.166015625
 10
875.224609375
 20
-5025.166015625
 10
885.05859375
 20
-5025.166015625
 10
894.892578125
 20
-5025.166015625
 10
904.7265625
 20
-5025.166015625
 10
914.560546875
 20
-5025.166015625
 10
924.39453125
 20
-5025.166015625
 10
934.228515625
 20
-5025.166015625
 10
944.0625
 20
-5025.166015625
 10
953.896484375
 20
-5025.166015625
 10
963.73046875
 20
-5025.166015625
 10
973.564453125
 20
-5025.166015625
 10
983.3984375
 20
-5025.166015625
 10
993.232421875
 20
-5025.166015625
 10
1003.06640625
 20
-5025.166015625
 10
1012.900390625
 20
-5025.166015625
 10
1022.734375
 20
-5025.166015625
 10
1032.568359375
 20
-5025.166015625
 10
1042.40234375
 20
-5025.166015625
 10
1052.236328125
 20
-5025.166015625
 10
1062.0703125
 20
-5025.166015625
 10
1071.904296875
 20
-5025.166015625
 10
1081.73828125
 20
-5025.166015625
 10
1091.572265625
 20
-5025.166015625
 10
1101.40625
 20
-5025.166015625
 10
1111.240234375
 20
-5025.166015625
 10
1121.07421875
 20
-5025.166015625
 10
1130.908203125
 20
-5025.166015625
 10
1140.7421875
 20
-5025.166015625
 10
1150.576171875
 20
-5025.166015625
 10
1160.41015625
 20
-5025.166015625
 10
1170.244140625
 20
-5025.166015625
 10
1180.078125
 20
-5025.166015625
 10
1189.912109375
 20
-5025.166015625
 10
1199.74609375
 20
-5025.166015625
 10
1209.580078125
 20
-5025.166015625
 10
1219.4140625
 20
-5025.166015625
 10
1229.248046875
 20
-5025.166015625
 10
1239.08203125
 20
-5025.166015625
 10
1248.916015625
 20
-5025.166015625
 10
1258.75
 20
-5025.166015625
 10
1268.583984375
 20
-5025.166015625
 10
1278.41796875
 20
-5025.166015625
 10
1288.251953125
 20
-5025.166015625
 10
1298.0859375
 20
-5025.166015625
 10
1307.919921875
 20
-5025.166015625
 10
1317.75390625
 20
-5025.166015625
 10
1327.587890625
 20
-5025.166015625
 10
1337.421875
 20
-5025.166015625
 10
1347.255859375
 20
-5025.166015625
 10
1357.08984375
 20
-5025.166015625
 10
1366.923828125
 20
-5025.166015625
 10
1376.7578125
 20
-5025.166015625
 10
1386.591796875
 20
-5025.166015625
 10
1396.42578125
 20
-5025.166015625
 10
1406.259765625
 20
-5025.166015625
 10
1416.09375
 20
-5025.166015625
 10
1425.927734375
 20
-5025.166015625
 10
1435.76171875
 20
-5025.166015625
 10
1445.595703125
 20
-5025.166015625
 10
1455.4296875
 20
-5025.166015625
 10
1465.263671875
 20
-5025.166015625
 10
1475.09765625
 20
-5025.166015625
 10
1484.931640625
 20
-5025.166015625
 10
1494.765625
 20
-5025.166015625
 10
1504.599609375
 20
-5025.166015625
 10
1514.43359375
 20
-5025.166015625
 10
1524.267578125
 20
-5025.166015625
 10
1534.1015625
 20
-5025.166015625
 10
1543.935546875
 20
-5025.166015625
 10
1553.76953125
 20
-5025.166015625
 10
1563.603515625
 20
-5025.166015625
 10
1573.4375
 20
-5025.166015625
 10
1583.271484375
 20
-5025.166015625
 10
1593.10546875
 20
-5025.166015625
 10
1602.939453125
 20
-5025.166015625
 10
1612.7734375
 20
-5025.166015625
 10
1622.607421875
 20
-5025.166015625
 10
1632.44140625
 20
-5025.166015625
 10
1642.275390625
 20
-5025.166015625
 10
1652.109375
 20
-5025.166015625
 10
1661.943359375
 20
-5025.166015625
 10
1671.77734375
 20
-5025.166015625
 10
1681.611328125
 20
-5025.166015625
 10
1691.4453125
 20
-5025.166015625
 10
1701.279296875
 20
-5025.166015625
 10
1711.11328125
 20
-5025.166015625
 10
1720.947265625
 20
-5025.166015625
 10
1730.78125
 20
-5025.166015625
 10
1740.615234375
 20
-5025.166015625
 10
1750.44921875
 20
-5025.166015625
 10
1760.283203125
 20
-5025.166015625
 10
1770.1171875
 20
-5025.166015625
 10
1779.951171875
 20
-5025.166015625
 10
1789.78515625
 20
-5025.166015625
 10
1799.619140625
 20
-5025.166015625
 10
1809.453125
 20
-5025.166015625
 10
1819.287109375
 20
-5025.166015625
 10
1829.12109375
 20
-5025.166015625
 10
1838.955078125
 20
-5025.166015625
 10
1848.7890625
 20
-5025.166015625
 10
1858.623046875
 20
-5025.166015625
 10
1868.45703125
 20
-5025.166015625
 10
1878.291015625
 20
-5025.166015625
 10
1888.125
 20
-5025.166015625
 10
1897.958984375
 20
-5025.166015625
 10
1907.79296875
 20
-5025.166015625
 10
1917.626953125
 20
-5025.166015625
 10
1927.4609375
 20
-5025.166015625
 10
1937.294921875
 20
-5025.166015625
 10
1947.12890625
 20
-5025.166015625
 10
1956.962890625
 20
-5025.166015625
 10
1966.796875
 20
-5025.166015625
 10
1976.630859375
 20
-5025.166015625
 10
1986.46484375
 20
-5025.166015625
 10
1996.298828125
 20
-5025.166015625
 10
2006.1328125
 20
-5025.166015625
 10
2015.966796875
 20
-5025.166015625
 10
2025.80078125
 20
-5025.166015625
 10
2035.634765625
 20
-5025.166015625
 10
2045.46875
 20
-5025.166015625
 10
2055.302734375
 20
-5025.166015625
 10
2065.13671875
 20
-5025.166015625
 10
2074.970703125
 20
-5025.166015625
 10
2084.8046875
 20
-5025.166015625
 10
2094.638671875
 20
-5025.166015625
 10
2104.47265625
 20
-5025.166015625
 10
2114.306640625
 20
-5025.166015625
 10
2124.140625
 20
-5025.166015625
 10
2133.974609375
 20
-5025.166015625
 10
2143.80859375
 20
-5025.166015625
 10
2153.642578125
 20
-5025.166015625
 10
2163.4765625
 20
-5025.166015625
 10
2173.310546875
 20
-5025.166015625
 10
2183.14453125
 20
-5025.166015625
 10
2192.978515625
 20
-5025.166015625
 10
2202.8125
 20
-5025.166015625
 10
2212.646484375
 20
-5025.166015625
 10
2222.48046875
 20
-5025.166015625
 10
2232.314453125
 20
-5025.166015625
 10
2242.1484375
 20
-5025.166015625
 10
2251.982421875
 20
-5025.166015625
 10
2261.81640625
 20
-5025.166015625
 10
2271.650390625
 20
-5025.166015625
 10
2281.484375
 20
-5025.166015625
 10
2291.318359375
 20
-5025.166015625
 10
2301.15234375
 20
-5025.166015625
 10
2310.986328125
 20
-5025.166015625
 10
2320.8203125
 20
-5025.166015625
 10
2330.654296875
 20
-5025.166015625
 10
2340.48828125
 20
-5025.166015625
 10
2350.322265625
 20
-5025.166015625
 10
2360.15625
 20
-5025.166015625
 10
2369.990234375
 20
-5025.166015625
 10
2379.82421875
 20
-5025.166015625
 10
2389.658203125
 20
-5025.166015625
 10
2399.4921875
 20
-5025.166015625
 10
2409.326171875
 20
-5025.166015625
 10
2419.16015625
 20
-5025.166015625
 10
2428.994140625
 20
-5025.166015625
 10
2438.828125
 20
-5025.166015625
 10
2448.662109375
 20
-5025.166015625
 10
2458.49609375
 20
-5025.166015625
 10
2468.330078125
 20
-5025.166015625
 10
2478.1640625
 20
-5025.166015625
 10
2487.998046875
 20
-5025.166015625
 10
2497.83203125
 20
-5025.166015625
 10
2507.666015625
 20
-5025.166015625
 10
2517.5
 20
-5025.166015625
 10
2527.333984375
 20
-5025.166015625
 10
2537.16796875
 20
-5025.166015625
 10
2547.001953125
 20
-5025.166015625
 10
2556.8359375
 20
-5025.166015625
 10
2566.669921875
 20
-5025.166015625
 10
2576.50390625
 20
-5025.166015625
 10
2586.337890625
 20
-5025.166015625
 10
2596.171875
 20
-5025.166015625
 10
2606.005859375
 20
-5025.166015625
 10
2615.83984375
 20
-5025.166015625
 10
2625.673828125
 20
-5025.166015625
 10
2635.5078125
 20
-5025.166015625
 10
2645.341796875
 20
-5025.166015625
 10
2655.17578125
 20
-5025.166015625
 10
2665.009765625
 20
-5025.166015625
 10
2674.84375
 20
-5025.166015625
 10
2684.677734375
 20
-5025.166015625
 10
2694.51171875
 20
-5025.166015625
 10
2704.345703125
 20
-5025.166015625
 10
2714.1796875
 20
-5025.166015625
 10
2724.013671875
 20
-5025.166015625
 10
2733.84765625
 20
-5025.166015625
 10
2743.681640625
 20
-5025.166015625
 10
2753.515625
 20
-5025.166015625
 10
2763.349609375
 20
-5025.166015625
 10
2773.18359375
 20
-5025.166015625
 10
2783.017578125
 20
-5025.166015625
 10
2792.8515625
 20
-5025.166015625
 10
2802.685546875
 20
-5025.166015625
 10
2812.51953125
 20
-5025.166015625
 10
2822.353515625
 20
-5025.166015625
 10
2832.1875
 20
-5025.166015625
 10
2842.021484375
 20
-5025.166015625
 10
2851.85546875
 20
-5025.166015625
 10
2861.689453125
 20
-5025.166015625
 10
2871.5234375
 20
-5025.166015625
 10
2881.357421875
 20
-5025.166015625
 10
2891.19140625
 20
-5025.166015625
 10
2901.025390625
 20
-5025.166015625
 10
2910.859375
 20
-5025.166015625
 10
2920.693359375
 20
-5025.166015625
 10
2930.52734375
 20
-5025.166015625
 10
2940.361328125
 20
-5025.166015625
 10
2950.1953125
 20
-5025.166015625
 10
2960.029296875
 20
-5025.166015625
 10
2969.86328125
 20
-5025.166015625
 10
2979.697265625
 20
-5025.166015625
 10
2989.53125
 20
-5025.166015625
 10
2999.365234375
 20
-5025.166015625
 10
3009.19921875
 20
-5025.166015625
 10
3019.033203125
 20
-5025.166015625
 10
3028.8671875
 20
-5025.166015625
 10
3038.701171875
 20
-5025.166015625
 10
3048.53515625
 20
-5025.166015625
 10
3058.369140625
 20
-5025.166015625
 10
3068.203125
 20
-5025.166015625
 10
3078.037109375
 20
-5025.166015625
 10
3087.87109375
 20
-5025.166015625
 10
3097.705078125
 20
-5025.166015625
 10
3107.5390625
 20
-5025.166015625
 10
3117.373046875
 20
-5025.166015625
 10
3127.20703125
 20
-5025.166015625
 10
3137.041015625
 20
-5025.166015625
 10
3146.875
 20
-5025.166015625
 10
3156.708984375
 20
-5025.166015625
 10
3166.54296875
 20
-5025.166015625
 10
3176.376953125
 20
-5025.166015625
 10
3186.2109375
 20
-5025.166015625
 10
3196.044921875
 20
-5025.166015625
 10
3205.87890625
 20
-5025.166015625
 10
3215.712890625
 20
-5025.166015625
 10
3225.546875
 20
-5025.166015625
 10
3235.380859375
 20
-5025.166015625
 10
3245.21484375
 20
-5025.166015625
 10
3255.048828125
 20
-5025.166015625
 10
3264.8828125
 20
-5025.166015625
 10
3274.716796875
 20
-5025.166015625
 10
3284.55078125
 20
-5025.166015625
 10
3294.384765625
 20
-5025.166015625
 10
3304.21875
 20
-5025.166015625
 10
3314.052734375
 20
-5025.166015625
 10
3323.88671875
 20
-5025.166015625
 10
3333.720703125
 20
-5025.166015625
 10
3343.5546875
 20
-5025.166015625
 10
3353.388671875
 20
-5025.166015625
 10
3363.22265625
 20
-5025.166015625
 10
3373.056640625
 20
-5025.166015625
 10
3382.890625
 20
-5025.166015625
 10
3392.724609375
 20
-5025.166015625
 10
3402.55859375
 20
-5025.166015625
 10
3412.392578125
 20
-5025.166015625
 10
3422.2265625
 20
-5025.166015625
 10
3432.060546875
 20
-5025.166015625
 10
3441.89453125
 20
-5025.166015625
 10
3451.728515625
 20
-5025.166015625
 10
3461.5625
 20
-5025.166015625
 10
3471.396484375
 20
-5025.166015625
 10
3481.23046875
 20
-5025.166015625
 10
3491.064453125
 20
-5025.166015625
 10
3500.8984375
 20
-5025.166015625
 10
3510.732421875
 20
-5025.166015625
 10
3520.56640625
 20
-5025.166015625
 10
3530.400390625
 20
-5025.166015625
 10
3540.234375
 20
-5025.166015625
 10
3550.068359375
 20
-5025.166015625
 10
3559.90234375
 20
-5025.166015625
 10
3569.736328125
 20
-5025.166015625
 10
3579.5703125
 20
-5025.166015625
 10
3589.404296875
 20
-5025.166015625
 10
3599.23828125
 20
-5025.166015625
 10
3609.072265625
 20
-5025.166015625
 10
3618.90625
 20
-5025.166015625
 10
3628.740234375
 20
-5025.166015625
 10
3638.57421875
 20
-5025.166015625
 10
3648.408203125
 20
-5025.166015625
 10
3658.2421875
 20
-5025.166015625
 10
3668.076171875
 20
-5025.166015625
 10
3677.91015625
 20
-5025.166015625
 10
3687.744140625
 20
-5025.166015625
 10
3697.578125
 20
-5025.166015625
 10
3707.412109375
 20
-5025.166015625
 10
3717.24609375
 20
-5025.166015625
 10
3727.080078125
 20
-5025.166015625
 10
3736.9140625
 20
-5025.166015625
 10
3746.748046875
 20
-5025.166015625
 10
3756.58203125
 20
-5025.166015625
 10
3766.416015625
 20
-5025.166015625
 10
3776.25
 20
-5025.166015625
 10
3786.083984375
 20
-5025.166015625
 10
3795.91796875
 20
-5025.166015625
 10
3805.751953125
 20
-5025.166015625
 10
3815.5859375
 20
-5025.166015625
 10
3825.419921875
 20
-5025.166015625
 10
3835.25390625
 20
-5025.166015625
 10
3845.087890625
 20
-5025.166015625
 10
3854.921875
 20
-5025.166015625
 10
3864.755859375
 20
-5025.166015625
 10
3874.58984375
 20
-5025.166015625
 10
3884.423828125
 20
-5025.166015625
 10
3894.2578125
 20
-5025.166015625
 10
3904.091796875
 20
-5025.166015625
 10
3913.92578125
 20
-5025.166015625
 10
3923.759765625
 20
-5025.166015625
 10
3933.59375
 20
-5025.166015625
 10
3943.427734375
 20
-5025.166015625
 10
3953.26171875
 20
-5025.166015625
 10
3963.095703125
 20
-5025.166015625
 10
3972.9296875
 20
-5025.166015625
 10
3982.763671875
 20
-5025.166015625
 10
3992.59765625
 20
-5025.166015625
 10
4002.431640625
 20
-5025.166015625
 10
4012.265625
 20
-5025.166015625
 10
4022.099609375
 20
-5025.166015625
 10
4031.93359375
 20
-5025.166015625
 10
4041.767578125
 20
-5025.166015625
 10
4051.6015625
 20
-5025.166015625
 10
4061.435546875
 20
-5025.166015625
 10
4071.26953125
 20
-5025.166015625
 10
4081.103515625
 20
-5025.166015625
 10
4090.9375
 20
-5025.166015625
 10
4100.771484375
 20
-5025.166015625
 10
4110.60546875
 20
-5025.166015625
 10
4120.439453125
 20
-5025.166015625
 10
4130.2734375
 20
-5025.166015625
 10
4140.107421875
 20
-5025.166015625
 10
4149.94140625
 20
-5025.166015625
 10
4159.775390625
 20
-5025.166015625
 10
4169.609375
 20
-5025.166015625
 10
4179.443359375
 20
-5025.166015625
 10
4189.27734375
 20
-5025.166015625
 10
4199.111328125
 20
-5025.166015625
 10
4208.9453125
 20
-5025.166015625
 10
4218.779296875
 20
-5025.166015625
 10
4228.61328125
 20
-5025.166015625
 10
4238.447265625
 20
-5025.166015625
 10
4248.28125
 20
-5025.166015625
 10
4258.115234375
 20
-5025.166015625
 10
4267.94921875
 20
-5025.166015625
 10
4277.783203125
 20
-5025.166015625
 10
4287.6171875
 20
-5025.166015625
 10
4297.451171875
 20
-5025.166015625
 10
4307.28515625
 20
-5025.166015625
 10
4317.119140625
 20
-5025.166015625
 10
4326.953125
 20
-5025.166015625
 10
4336.787109375
 20
-5025.166015625
 10
4346.62109375
 20
-5025.166015625
 10
4356.455078125
 20
-5025.166015625
 10
4366.2890625
 20
-5025.166015625
 10
4376.123046875
 20
-5025.166015625
 10
4385.95703125
 20
-5025.166015625
 10
4395.791015625
 20
-5025.166015625
 10
4405.625
 20
-5025.166015625
 10
4415.458984375
 20
-5025.166015625
 10
4425.29296875
 20
-5025.166015625
 10
4435.126953125
 20
-5025.166015625
 10
4444.9609375
 20
-5025.166015625
 10
4454.794921875
 20
-5025.166015625
 10
4464.62890625
 20
-5025.166015625
 10
4474.462890625
 20
-5025.166015625
 10
4484.296875
 20
-5025.166015625
 10
4494.130859375
 20
-5025.166015625
 10
4503.96484375
 20
-5025.166015625
 10
4513.798828125
 20
-5025.166015625
 10
4523.6328125
 20
-5025.166015625
 10
4533.466796875
 20
-5025.166015625
 10
4543.30078125
 20
-5025.166015625
 10
4553.134765625
 20
-5025.166015625
 10
4562.96875
 20
-5025.166015625
 10
4572.802734375
 20
-5025.166015625
 10
4582.63671875
 20
-5025.166015625
 10
4592.470703125
 20
-5025.166015625
 10
4602.3046875
 20
-5025.166015625
 10
4612.138671875
 20
-5025.166015625
 10
4621.97265625
 20
-5025.166015625
 10
4631.806640625
 20
-5025.166015625
 10
4641.640625
 20
-5025.166015625
 10
4651.474609375
 20
-5025.166015625
 10
4661.30859375
 20
-5025.166015625
 10
4671.142578125
 20
-5025.166015625
 10
4680.9765625
 20
-5025.166015625
 10
4690.810546875
 20
-5025.166015625
 10
4700.64453125
 20
-5025.166015625
 10
4710.478515625
 20
-5025.166015625
 10
4720.3125
 20
-5025.166015625
 10
4730.146484375
 20
-5025.166015625
 10
4739.98046875
 20
-5025.166015625
 10
4749.814453125
 20
-5025.166015625
 10
4759.6484375
 20
-5025.166015625
 10
4769.482421875
 20
-5025.166015625
 10
4779.31640625
 20
-5025.166015625
 10
4789.150390625
 20
-5025.166015625
 10
4798.984375
 20
-5025.166015625
 10
4808.818359375
 20
-5025.166015625
 10
4818.65234375
 20
-5025.166015625
 10
4828.486328125
 20
-5025.166015625
 10
4838.3203125
 20
-5025.166015625
 10
4848.154296875
 20
-5025.166015625
 10
4857.98828125
 20
-5025.166015625
 10
4867.822265625
 20
-5025.166015625
 10
4877.65625
 20
-5025.166015625
 10
4887.490234375
 20
-5025.166015625
 10
4897.32421875
 20
-5025.166015625
 10
4907.158203125
 20
-5025.166015625
 10
4916.9921875
 20
-5025.166015625
 10
4926.826171875
 20
-5025.166015625
 10
4936.66015625
 20
-5025.166015625
 10
4946.494140625
 20
-5025.166015625
 10
4956.328125
 20
-5025.166015625
 10
4966.162109375
 20
-5025.166015625
 10
4975.99609375
 20
-5025.166015625
 10
4985.830078125
 20
-5025.166015625
 10
4995.6640625
 20
-5025.166015625
 10
5005.498046875
 20
-5025.166015625
 10
5015.33203125
 20
-5025.166015625
 10
5025.166015625
 20
-5025.166015625
 10
5025.166015625
 20
-5015.33203125
 10
5025.166015625
 20
-5005.498046875
 10
5025.166015625
 20
-4995.6640625
 10
5025.166015625
 20
-4985.830078125
 10
5025.166015625
 20
-4975.99609375
 10
5025.166015625
 20
-4966.162109375
 10
5025.166015625
 20
-4956.328125
 10
5025.166015625
 20
-4946.494140625
 10
5025.166015625
 20
-4936.66015625
 10
5025.166015625
 20
-4926.826171875
 10
5025.166015625
 20
-4916.9921875
 10
5025.166015625
 20
-4907.158203125
 10
5025.166015625
 20
-4897.32421875
 10
5025.166015625
 20
-4887.490234375
 10
5025.166015625
 20
-4877.65625
 10
5025.166015625
 20
-4867.822265625
 10
5025.166015625
 20
-4857.98828125
 10
5025.166015625
 20
-4848.154296875
 10
5025.166015625
 20
-4838.3203125
 10
5025.166015625
 20
-4828.486328125
 10
5025.166015625
 20
-4818.65234375
 10
5025.166015625
 20
-4808.818359375
 10
5025.166015625
 20
-4798.984375
 10
5025.166015625
 20
-4789.150390625
 10
5025.166015625
 20
-4779.31640625
 10
5025.166015625
 20
-4769.482421875
 10
5025.166015625
 20
-4759.6484375
 10
5025.166015625
 20
-4749.814453125
 10
5025.166015625
 20
-4739.98046875
 10
5025.166015625
 20
-4730.146484375
 10
5025.166015625
 20
-4720.3125
 10
5025.166015625
 20
-4710.478515625
 10
5025.166015625
 20
-4700.64453125
 10
5025.166015625
 20
-4690.810546875
 10
5025.166015625
 20
-4680.9765625
 10
5025.166015625
 20
-4671.142578125
 10
5025.166015625
 20
-4661.30859375
 10
5025.166015625
 20
-4651.474609375
 10
5025.166015625
 20
-4641.640625
 10
5025.166015625
 20
-4631.806640625
 10
5025.166015625
 20
-4621.97265625
 10
5025.166015625
 20
-4612.138671875
 10
5025.166015625
 20
-4602.3046875
 10
5025.166015625
 20
-4592.470703125
 10
5025.166015625
 20
-4582.63671875
 10
5025.166015625
 20
-4572.802734375
 10
5025.166015625
 20
-4562.96875
 10
5025.166015625
 20
-4553.134765625
 10
5025.166015625
 20
-4543.30078125
 10
5025.166015625
 20
-4533.466796875
 10
5025.166015625
 20
-4523.6328125
 10
5025.166015625
 20
-4513.798828125
 10
5025.166015625
 20
-4503.96484375
 10
5025.166015625
 20
-4494.130859375
 10
5025.166015625
 20
-4484.296875
 10
5025.166015625
 20
-4474.462890625
 10
5025.166015625
 20
-4464.62890625
 10
5025.166015625
 20
-4454.794921875
 10
5025.166015625
 20
-4444.9609375
 10
5025.166015625
 20
-4435.126953125
 10
5025.166015625
 20
-4425.29296875
 10
5025.166015625
 20
-4415.458984375
 10
5025.166015625
 20
-4405.625
 10
5025.166015625
 20
-4395.791015625
 10
5025.166015625
 20
-4385.95703125
 10
5025.166015625
 20
-4376.123046875
 10
5025.166015625
 20
-4366.2890625
 10
5025.166015625
 20
-4356.455078125
 10
5025.166015625
 20
-4346.62109375
 10
5025.166015625
 20
-4336.787109375
 10
5025.166015625
 20
-4326.953125
 10
5025.166015625
 20
-4317.119140625
 10
5025.166015625
 20
-4307.28515625
 10
5025.166015625
 20
-4297.451171875
 10
5025.166015625
 20
-4287.6171875
 10
5025.166015625
 20
-4277.783203125
 10
5025.166015625
 20
-4267.94921875
 10
5025.166015625
 20
-4258.115234375
 10
5025.166015625
 20
-4248.28125
 10
5025.166015625
 20
-4238.447265625
 10
5025.166015625
 20
-4228.61328125
 10
5025.166015625
 20
-4218.779296875
 10
5025.166015625
 20
-4208.9453125
 10
5025.166015625
 20
-4199.111328125
 10
5025.166015625
 20
-4189.27734375
 10
5025.166015625
 20
-4179.443359375
 10
5025.166015625
 20
-4169.609375
 10
5025.166015625
 20
-4159.775390625
 10
5025.166015625
 20
-4149.94140625
 10
5025.166015625
 20
-4140.107421875
 10
5025.166015625
 20
-4130.2734375
 10
5025.166015625
 20
-4120.439453125
 10
5025.166015625
 20
-4110.60546875
 10
5025.166015625
 20
-4100.771484375
 10
5025.166015625
 20
-4090.9375
 10
5025.166015625
 20
-4081.103515625
 10
5025.166015625
 20
-4071.26953125
 10
5025.166015625
 20
-4061.435546875
 10
5025.166015625
 20
-4051.6015625
 10
5025.166015625
 20
-4041.767578125
 10
5025.166015625
 20
-4031.93359375
 10
5025.166015625
 20
-4022.099609375
 10
5025.166015625
 20
-4012.265625
 10
5025.166015625
 20
-4002.431640625
 10
5025.166015625
 20
-3992.59765625
 10
5025.166015625
 20
-3982.763671875
 10
5025.166015625
 20
-3972.9296875
 10
5025.166015625
 20
-3963.095703125
 10
5025.166015625
 20
-3953.26171875
 10
5025.166015625
 20
-3943.427734375
 10
5025.166015625
 20
-3933.59375
 10
5025.166015625
 20
-3923.759765625
 10
5025.166015625
 20
-3913.92578125
 10
5025.166015625
 20
-3904.091796875
 10
5025.166015625
 20
-3894.2578125
 10
5025.166015625
 20
-3884.423828125
 10
5025.166015625
 20
-3874.58984375
 10
5025.166015625
 20
-3864.755859375
 10
5025.166015625
 20
-3854.921875
 10
5025.166015625
 20
-3845.087890625
 10
5025.166015625
 20
-3835.25390625
 10
5025.166015625
 20
-3825.419921875
 10
5025.166015625
 20
-3815.5859375
 10
5025.166015625
 20
-3805.751953125
 10
5025.166015625
 20
-3795.91796875
 10
5025.166015625
 20
-3786.083984375
 10
5025.166015625
 20
-3776.25
 10
5025.166015625
 20
-3766.416015625
 10
5025.166015625
 20
-3756.58203125
 10
5025.166015625
 20
-3746.748046875
 10
5025.166015625
 20
-3736.9140625
 10
5025.166015625
 20
-3727.080078125
 10
5025.166015625
 20
-3717.24609375
 10
5025.166015625
 20
-3707.412109375
 10
5025.166015625
 20
-3697.578125
 10
5025.166015625
 20
-3687.744140625
 10
5025.166015625
 20
-3677.91015625
 10
5025.166015625
 20
-3668.076171875
 10
5025.166015625
 20
-3658.2421875
 10
5025.166015625
 20
-3648.408203125
 10
5025.166015625
 20
-3638.57421875
 10
5025.166015625
 20
-3628.740234375
 10
5025.166015625
 20
-3618.90625
 10
5025.166015625
 20
-3609.072265625
 10
5025.166015625
 20
-3599.23828125
 10
5025.166015625
 20
-3589.404296875
 10
5025.166015625
 20
-3579.5703125
 10
5025.166015625
 20
-3569.736328125
 10
5025.166015625
 20
-3559.90234375
 10
5025.166015625
 20
-3550.068359375
 10
5025.166015625
 20
-3540.234375
 10
5025.166015625
 20
-3530.400390625
 10
5025.166015625
 20
-3520.56640625
 10
5025.166015625
 20
-3510.732421875
 10
5025.166015625
 20
-3500.8984375
 10
5025.166015625
 20
-3491.064453125
 10
5025.166015625
 20
-3481.23046875
 10
5025.166015625
 20
-3471.396484375
 10
5025.166015625
 20
-3461.5625
 10
5025.166015625
 20
-3451.728515625
 10
5025.166015625
 20
-3441.89453125
 10
5025.166015625
 20
-3432.060546875
 10
5025.166015625
 20
-3422.2265625
 10
5025.166015625
 20
-3412.392578125
 10
5025.166015625
 20
-3402.55859375
 10
5025.166015625
 20
-3392.724609375
 10
5025.166015625
 20
-3382.890625
 10
5025.166015625
 20
-3373.056640625
 10
5025.166015625
 20
-3363.22265625
 10
5025.166015625
 20
-3353.388671875
 10
5025.166015625
 20
-3343.5546875
 10
5025.166015625
 20
-3333.720703125
 10
5025.166015625
 20
-3323.88671875
 10
5025.166015625
 20
-3314.052734375
 10
5025.166015625
 20
-3304.21875
 10
5025.166015625
 20
-3294.384765625
 10
5025.166015625
 20
-3284.55078125
 10
5025.166015625
 20
-3274.716796875
 10
5025.166015625
 20
-3264.8828125
 10
5025.166015625
 20
-3255.048828125
 10
5025.166015625
 20
-3245.21484375
 10
5025.166015625
 20
-3235.380859375
 10
5025.166015625
 20
-3225.546875
 10
5025.166015625
 20
-3215.712890625
 10
5025.166015625
 20
-3205.87890625
 10
5025.166015625
 20
-3196.044921875
 10
5025.166015625
 20
-3186.2109375
 10
5025.166015625
 20
-3176.376953125
 10
5025.166015625
 20
-3166.54296875
 10
5025.166015625
 20
-3156.708984375
 10
5025.166015625
 20
-3146.875
 10
5025.166015625
 20
-3137.041015625
 10
5025.166015625
 20
-3127.20703125
 10
5025.166015625
 20
-3117.373046875
 10
5025.166015625
 20
-3107.5390625
 10
5025.166015625
 20
-3097.705078125
 10
5025.166015625
 20
-3087.87109375
 10
5025.166015625
 20
-3078.037109375
 10
5025.166015625
 20
-3068.203125
 10
5025.166015625
 20
-3058.369140625
 10
5025.166015625
 20
-3048.53515625
 10
5025.166015625
 20
-3038.701171875
 10
5025.166015625
 20
-3028.8671875
 10
5025.166015625
 20
-3019.033203125
 10
5025.166015625
 20
-3009.19921875
 10
5025.166015625
 20
-2999.365234375
 10
5025.166015625
 20
-2989.53125
 10
5025.166015625
 20
-2979.697265625
 10
5025.166015625
 20
-2969.86328125
 10
5025.166015625
 20
-2960.029296875
 10
5025.166015625
 20
-2950.1953125
 10
5025.166015625
 20
-2940.361328125
 10
5025.166015625
 20
-2930.52734375
 10
5025.166015625
 20
-2920.693359375
 10
5025.166015625
 20
-2910.859375
 10
5025.166015625
 20
-2901.025390625
 10
5025.166015625
 20
-2891.19140625
 10
5025.166015625
 20
-2881.357421875
 10
5025.166015625
 20
-2871.5234375
 10
5025.166015625
 20
-2861.689453125
 10
5025.166015625
 20
-2851.85546875
 10
5025.166015625
 20
-2842.021484375
 10
5025.166015625
 20
-2832.1875
 10
5025.166015625
 20
-2822.353515625
 10
5025.166015625
 20
-2812.51953125
 10
5025.166015625
 20
-2802.685546875
 10
5025.166015625
 20
-2792.8515625
 10
5025.166015625
 20
-2783.017578125
 10
5025.166015625
 20
-2773.18359375
 10
5025.166015625
 20
-2763.349609375
 10
5025.166015625
 20
-2753.515625
 10
5025.166015625
 20
-2743.681640625
 10
5025.166015625
 20
-2733.84765625
 10
5025.166015625
 20
-2724.013671875
 10
5025.166015625
 20
-2714.1796875
 10
5025.166015625
 20
-2704.345703125
 10
5025.166015625
 20
-2694.51171875
 10
5025.166015625
 20
-2684.677734375
 10
5025.166015625
 20
-2674.84375
 10
5025.166015625
 20
-2665.009765625
 10
5025.166015625
 20
-2655.17578125
 10
5025.166015625
 20
-2645.341796875
 10
5025.166015625
 20
-2635.5078125
 10
5025.166015625
 20
-2625.673828125
 10
5025.166015625
 20
-2615.83984375
 10
5025.166015625
 20
-2606.005859375
 10
5025.166015625
 20
-2596.171875
 10
5025.166015625
 20
-2586.337890625
 10
5025.166015625
 20
-2576.50390625
 10
5025.166015625
 20
-2566.669921875
 10
5025.166015625
 20
-2556.8359375
 10
5025.166015625
 20
-2547.001953125
 10
5025.166015625
 20
-2537.16796875
 10
5025.166015625
 20
-2527.333984375
 10
5025.166015625
 20
-2517.5
 10
5025.166015625
 20
-2507.666015625
 10
5025.166015625
 20
-2497.83203125
 10
5025.166015625
 20
-2487.998046875
 10
5025.166015625
 20
-2478.1640625
 10
5025.166015625
 20
-2468.330078125
 10
5025.166015625
 20
-2458.49609375
 10
5025.166015625
 20
-2448.662109375
 10
5025.166015625
 20
-2438.828125
 10
5025.166015625
 20
-2428.994140625
 10
5025.166015625
 20
-2419.16015625
 10
5025.166015625
 20
-2409.326171875
 10
5025.166015625
 20
-2399.4921875
 10
5025.166015625
 20
-2389.658203125
 10
5025.166015625
 20
-2379.82421875
 10
5025.166015625
 20
-2369.990234375
 10
5025.166015625
 20
-2360.15625
 10
5025.166015625
 20
-2350.322265625
 10
5025.166015625
 20
-2340.48828125
 10
5025.166015625
 20
-2330.654296875
 10
5025.166015625
 20
-2320.8203125
 10
5025.166015625
 20
-2310.986328125
 10
5025.166015625
 20
-2301.15234375
 10
5025.166015625
 20
-2291.318359375
 10
5025.166015625
 20
-2281.484375
 10
5025.166015625
 20
-2271.650390625
 10
5025.166015625
 20
-2261.81640625
 10
5025.166015625
 20
-2251.982421875
 10
5025.166015625
 20
-2242.1484375
 10
5025.166015625
 20
-2232.314453125
 10
5025.166015625
 20
-2222.48046875
 10
5025.166015625
 20
-2212.646484375
 10
5025.166015625
 20
-2202.8125
 10
5025.166015625
 20
-2192.978515625
 10
5025.166015625
 20
-2183.14453125
 10
5025.166015625
 20
-2173.310546875
 10
5025.166015625
 20
-2163.4765625
 10
5025.166015625
 20
-2153.642578125
 10
5025.166015625
 20
-2143.80859375
 10
5025.166015625
 20
-2133.974609375
 10
5025.166015625
 20
-2124.140625
 10
5025.166015625
 20
-2114.306640625
 10
5025.166015625
 20
-2104.47265625
 10
5025.166015625
 20
-2094.638671875
 10
5025.166015625
 20
-2084.8046875
 10
5025.166015625
 20
-2074.970703125
 10
5025.166015625
 20
-2065.13671875
 10
5025.166015625
 20
-2055.302734375
 10
5025.166015625
 20
-2045.46875
 10
5025.166015625
 20
-2035.634765625
 10
5025.166015625
 20
-2025.80078125
 10
5025.166015625
 20
-2015.966796875
 10
5025.166015625
 20
-2006.1328125
 10
5025.166015625
 20
-1996.298828125
 10
5025.166015625
 20
-1986.46484375
 10
5025.166015625
 20
-1976.630859375
 10
5025.166015625
 20
-1966.796875
 10
5025.166015625
 20
-1956.962890625
 10
5025.166015625
 20
-1947.12890625
 10
5025.166015625
 20
-1937.294921875
 10
5025.166015625
 20
-1927.4609375
 10
5025.166015625
 20
-1917.626953125
 10
5025.166015625
 20
-1907.79296875
 10
5025.166015625
 20
-1897.958984375
 10
5025.166015625
 20
-1888.125
 10
5025.166015625
 20
-1878.291015625
 10
5025.166015625
 20
-1868.45703125
 10
5025.166015625
 20
-1858.623046875
 10
5025.166015625
 20
-1848.7890625
 10
5025.166015625
 20
-1838.955078125
 10
5025.166015625
 20
-1829.12109375
 10
5025.166015625
 20
-1819.287109375
 10
5025.166015625
 20
-1809.453125
 10
5025.166015625
 20
-1799.619140625
 10
5025.166015625
 20
-1789.78515625
 10
5025.166015625
 20
-1779.951171875
 10
5025.166015625
 20
-1770.1171875
 10
5025.166015625
 20
-1760.283203125
 10
5025.166015625
 20
-1750.44921875
 10
5025.166015625
 20
-1740.615234375
 10
5025.166015625
 20
-1730.78125
 10
5025.166015625
 20
-1720.947265625
 10
5025.166015625
 20
-1711.11328125
 10
5025.166015625
 20
-1701.279296875
 10
5025.166015625
 20
-1691.4453125
 10
5025.166015625
 20
-1681.611328125
 10
5025.166015625
 20
-1671.77734375
 10
5025.166015625
 20
-1661.943359375
 10
5025.166015625
 20
-1652.109375
 10
5025.166015625
 20
-1642.275390625
 10
5025.166015625
 20
-1632.44140625
 10
5025.166015625
 20
-1622.607421875
 10
5025.166015625
 20
-1612.7734375
 10
5025.166015625
 20
-1602.939453125
 10
5025.166015625
 20
-1593.10546875
 10
5025.166015625
 20
-1583.271484375
 10
5025.166015625
 20
-1573.4375
 10
5025.166015625
 20
-1563.603515625
 10
5025.166015625
 20
-1553.76953125
 10
5025.166015625
 20
-1543.935546875
 10
5025.166015625
 20
-1534.1015625
 10
5025.166015625
 20
-1524.267578125
 10
5025.166015625
 20
-1514.43359375
 10
5025.166015625
 20
-1504.599609375
 10
5025.166015625
 20
-1494.765625
 10
5025.166015625
 20
-1484.931640625
 10
5025.166015625
 20
-1475.09765625
 10
5025.166015625
 20
-1465.263671875
 10
5025.166015625
 20
-1455.4296875
 10
5025.166015625
 20
-1445.595703125
 10
5025.166015625
 20
-1435.76171875
 10
5025.166015625
 20
-1425.927734375
 10
5025.166015625
 20
-1416.09375
 10
5025.166015625
 20
-1406.259765625
 10
5025.166015625
 20
-1396.42578125
 10
5025.166015625
 20
-1386.591796875
 10
5025.166015625
 20
-1376.7578125
 10
5025.166015625
 20
-1366.923828125
 10
5025.166015625
 20
-1357.08984375
 10
5025.166015625
 20
-1347.255859375
 10
5025.166015625
 20
-1337.421875
 10
5025.166015625
 20
-1327.587890625
 10
5025.166015625
 20
-1317.75390625
 10
5025.166015625
 20
-1307.919921875
 10
5025.166015625
 20
-1298.0859375
 10
5025.166015625
 20
-1288.251953125
 10
5025.166015625
 20
-1278.41796875
 10
5025.166015625
 20
-1268.583984375
 10
5025.166015625
 20
-1258.75
 10
5025.166015625
 20
-1248.916015625
 10
5025.166015625
 20
-1239.08203125
 10
5025.166015625
 20
-1229.248046875
 10
5025.166015625
 20
-1219.4140625
 10
5025.166015625
 20
-1209.580078125
 10
5025.166015625
 20
-1199.74609375
 10
5025.166015625
 20
-1189.912109375
 10
5025.166015625
 20
-1180.078125
 10
5025.166015625
 20
-1170.244140625
 10
5025.166015625
 20
-1160.41015625
 10
5025.166015625
 20
-1150.576171875
 10
5025.166015625
 20
-1140.7421875
 10
5025.166015625
 20
-1130.908203125
 10
5025.166015625
 20
-1121.07421875
 10
5025.166015625
 20
-1111.240234375
 10
5025.166015625
 20
-1101.40625
 10
5025.166015625
 20
-1091.572265625
 10
5025.166015625
 20
-1081.73828125
 10
5025.166015625
 20
-1071.904296875
 10
5025.166015625
 20
-1062.0703125
 10
5025.166015625
 20
-1052.236328125
 10
5025.166015625
 20
-1042.40234375
 10
5025.166015625
 20
-1032.568359375
 10
5025.166015625
 20
-1022.734375
 10
5025.166015625
 20
-1012.900390625
 10
5025.166015625
 20
-1003.06640625
 10
5025.166015625
 20
-993.232421875
 10
5025.166015625
 20
-983.3984375
 10
5025.166015625
 20
-973.564453125
 10
5025.166015625
 20
-963.73046875
 10
5025.166015625
 20
-953.896484375
 10
5025.166015625
 20
-944.0625
 10
5025.166015625
 20
-934.228515625
 10
5025.166015625
 20
-924.39453125
 10
5025.166015625
 20
-914.560546875
 10
5025.166015625
 20
-904.7265625
 10
5025.166015625
 20
-894.892578125
 10
5025.166015625
 20
-885.05859375
 10
5025.166015625
 20
-875.224609375
 10
5025.166015625
 20
-865.390625
 10
5025.166015625
 20
-855.556640625
 10
5025.166015625
 20
-845.72265625
 10
5025.166015625
 20
-835.888671875
 10
5025.166015625
 20
-826.0546875
 10
5025.166015625
 20
-816.220703125
 10
5025.166015625
 20
-806.38671875
 10
5025.166015625
 20
-796.552734375
 10
5025.166015625
 20
-786.71875
 10
5025.166015625
 20
-776.884765625
 10
5025.166015625
 20
-767.05078125
 10
5025.166015625
 20
-757.216796875
 10
5025.166015625
 20
-747.3828125
 10
5025.166015625
 20
-737.548828125
 10
5025.166015625
 20
-727.71484375
 10
5025.166015625
 20
-717.880859375
 10
5025.166015625
 20
-708.046875
 10
5025.166015625
 20
-698.212890625
 10
5025.166015625
 20
-688.37890625
 10
5025.166015625
 20
-678.544921875
 10
5025.166015625
 20
-668.7109375
 10
5025.166015625
 20
-658.876953125
 10
5025.166015625
 20
-649.04296875
 10
5025.166015625
 20
-639.208984375
 10
5025.166015625
 20
-629.375
 10
5025.166015625
 20
-619.541015625
 10
5025.166015625
 20
-609.70703125
 10
5025.166015625
 20
-599.873046875
 10
5025.166015625
 20
-590.0390625
 10
5025.166015625
 20
-580.205078125
 10
5025.166015625
 20
-570.37109375
 10
5025.166015625
 20
-560.537109375
 10
5025.166015625
 20
-550.703125
 10
5025.166015625
 20
-540.869140625
 10
5025.166015625
 20
-531.03515625
 10
5025.166015625
 20
-521.201171875
 10
5025.166015625
 20
-511.3671875
 10
5025.166015625
 20
-501.533203125
 10
5025.166015625
 20
-491.69921875
 10
5025.166015625
 20
-481.865234375
 10
5025.166015625
 20
-472.03125
 10
5025.166015625
 20
-462.197265625
 10
5025.166015625
 20
-452.36328125
 10
5025.166015625
 20
-442.529296875
 10
5025.166015625
 20
-432.6953125
 10
5025.166015625
 20
-422.861328125
 10
5025.166015625
 20
-413.02734375
 10
5025.166015625
 20
-403.193359375
 10
5025.166015625
 20
-393.359375
 10
5025.166015625
 20
-383.525390625
 10
5025.166015625
 20
-373.69140625
 10
5025.166015625
 20
-363.857421875
 10
5025.166015625
 20
-354.0234375
 10
5025.166015625
 20
-344.189453125
 10
5025.166015625
 20
-334.35546875
 10
5025.166015625
 20
-324.521484375
 10
5025.166015625
 20
-314.6875
 10
5025.166015625
 20
-304.853515625
 10
5025.166015625
 20
-295.01953125
 10
5025.166015625
 20
-285.185546875
 10
5025.166015625
 20
-275.3515625
 10
5025.166015625
 20
-265.517578125
 10
5025.166015625
 20
-255.68359375
 10
5025.166015625
 20
-245.849609375
 10
5025.166015625
 20
-236.015625
 10
5025.166015625
 20
-226.181640625
 10
5025.166015625
 20
-216.34765625
 10
5025.166015625
 20
-206.513671875
 10
5025.166015625
 20
-196.6796875
 10
5025.166015625
 20
-186.845703125
 10
5025.166015625
 20
-177.01171875
 10
5025.166015625
 20
-167.177734375
 10
5025.166015625
 20
-157.34375
 10
5025.166015625
 20
-147.509765625
 10
5025.166015625
 20
-137.67578125
 10
5025.166015625
 20
-127.841796875
 10
5025.166015625
 20
-118.0078125
 10
5025.166015625
 20
-108.173828125
 10
5025.166015625
 20
-98.33984375
 10
5025.166015625
 20
-88.505859375
 10
5025.166015625
 20
-78.671875
 10
5025.166015625
 20
-68.837890625
 10
5025.166015625
 20
-59.00390625
 10
5025.166015625
 20
-49.169921875
 10
5025.166015625
 20
-39.3359375
 10
5025.166015625
 20
-29.501953125
 10
5025.166015625
 20
-19.66796875
 10
5025.166015625
 20
-9.833984375
 10
5025.166015625
 20
-0.0
 10
5015.33203125
 20
-0.0
 10
5005.498046875
 20
-0.0
 10
4995.6640625
 20
-0.0
 10
4985.830078125
 20
-0.0
 10
4975.99609375
 20
-0.0
 10
4966.162109375
 20
-0.0
 10
4956.328125
 20
-0.0
 10
4946.494140625
 20
-0.0
 10
4936.66015625
 20
-0.0
 10
4926.826171875
 20
-0.0
 10
4916.9921875
 20
-0.0
 10
4907.158203125
 20
-0.0
 10
4897.32421875
 20
-0.0
 10
4887.490234375
 20
-0.0
 10
4877.65625
 20
-0.0
 10
4867.822265625
 20
-0.0
 10
4857.98828125
 20
-0.0
 10
4848.154296875
 20
-0.0
 10
4838.3203125
 20
-0.0
 10
4828.486328125
 20
-0.0
 10
4818.65234375
 20
-0.0
 10
4808.818359375
 20
-0.0
 10
4798.984375
 20
-0.0
 10
4789.150390625
 20
-0.0
 10
4779.31640625
 20
-0.0
 10
4769.482421875
 20
-0.0
 10
4759.6484375
 20
-0.0
 10
4749.814453125
 20
-0.0
 10
4739.98046875
 20
-0.0
 10
4730.146484375
 20
-0.0
 10
4720.3125
 20
-0.0
 10
4710.478515625
 20
-0.0
 10
4700.64453125
 20
-0.0
 10
4690.810546875
 20
-0.0
 10
4680.9765625
 20
-0.0
 10
4671.142578125
 20
-0.0
 10
4661.30859375
 20
-0.0
 10
4651.474609375
 20
-0.0
 10
4641.640625
 20
-0.0
 10
4631.806640625
 20
-0.0
 10
4621.97265625
 20
-0.0
 10
4612.138671875
 20
-0.0
 10
4602.3046875
 20
-0.0
 10
4592.470703125
 20
-0.0
 10
4582.63671875
 20
-0.0
 10
4572.802734375
 20
-0.0
 10
4562.96875
 20
-0.0
 10
4553.134765625
 20
-0.0
 10
4543.30078125
 20
-0.0
 10
4533.466796875
 20
-0.0
 10
4523.6328125
 20
-0.0
 10
4513.798828125
 20
-0.0
 10
4503.96484375
 20
-0.0
 10
4494.130859375
 20
-0.0
 10
4484.296875
 20
-0.0
 10
4474.462890625
 20
-0.0
 10
4464.62890625
 20
-0.0
 10
4454.794921875
 20
-0.0
 10
4444.9609375
 20
-0.0
 10
4435.126953125
 20
-0.0
 10
4425.29296875
 20
-0.0
 10
4415.458984375
 20
-0.0
 10
4405.625
 20
-0.0
 10
4395.791015625
 20
-0.0
 10
4385.95703125
 20
-0.0
 10
4376.123046875
 20
-0.0
 10
4366.2890625
 20
-0.0
 10
4356.455078125
 20
-0.0
 10
4346.62109375
 20
-0.0
 10
4336.787109375
 20
-0.0
 10
4326.953125
 20
-0.0
 10
4317.119140625
 20
-0.0
 10
4307.28515625
 20
-0.0
 10
4297.451171875
 20
-0.0
 10
4287.6171875
 20
-0.0
 10
4277.783203125
 20
-0.0
 10
4267.94921875
 20
-0.0
 10
4258.115234375
 20
-0.0
 10
4248.28125
 20
-0.0
 10
4238.447265625
 20
-0.0
 10
4228.61328125
 20
-0.0
 10
4218.779296875
 20
-0.0
 10
4208.9453125
 20
-0.0
 10
4199.111328125
 20
-0.0
 10
4189.27734375
 20
-0.0
 10
4179.443359375
 20
-0.0
 10
4169.609375
 20
-0.0
 10
4159.775390625
 20
-0.0
 10
4149.94140625
 20
-0.0
 10
4140.107421875
 20
-0.0
 10
4130.2734375
 20
-0.0
 10
4120.439453125
 20
-0.0
 10
4110.60546875
 20
-0.0
 10
4100.771484375
 20
-0.0
 10
4090.9375
 20
-0.0
 10
4081.103515625
 20
-0.0
 10
4071.26953125
 20
-0.0
 10
4061.435546875
 20
-0.0
 10
4051.6015625
 20
-0.0
 10
4041.767578125
 20
-0.0
 10
4031.93359375
 20
-0.0
 10
4022.099609375
 20
-0.0
 10
4012.265625
 20
-0.0
 10
4002.431640625
 20
-0.0
 10
3992.59765625
 20
-0.0
 10
3982.763671875
 20
-0.0
 10
3972.9296875
 20
-0.0
 10
3963.095703125
 20
-0.0
 10
3953.26171875
 20
-0.0
 10
3943.427734375
 20
-0.0
 10
3933.59375
 20
-0.0
 10
3923.759765625
 20
-0.0
 10
3913.92578125
 20
-0.0
 10
3904.091796875
 20
-0.0
 10
3894.2578125
 20
-0.0
 10
3884.423828125
 20
-0.0
 10
3874.58984375
 20
-0.0
 10
3864.755859375
 20
-0.0
 10
3854.921875
 20
-0.0
 10
3845.087890625
 20
-0.0
 10
3835.25390625
 20
-0.0
 10
3825.419921875
 20
-0.0
 10
3815.5859375
 20
-0.0
 10
3805.751953125
 20
-0.0
 10
3795.91796875
 20
-0.0
 10
3786.083984375
 20
-0.0
 10
3776.25
 20
-0.0
 10
3766.416015625
 20
-0.0
 10
3756.58203125
 20
-0.0
 10
3746.748046875
 20
-0.0
 10
3736.9140625
 20
-0.0
 10
3727.080078125
 20
-0.0
 10
3717.24609375
 20
-0.0
 10
3707.412109375
 20
-0.0
 10
3697.578125
 20
-0.0
 10
3687.744140625
 20
-0.0
 10
3677.91015625
 20
-0.0
 10
3668.076171875
 20
-0.0
 10
3658.2421875
 20
-0.0
 10
3648.408203125
 20
-0.0
 10
3638.57421875
 20
-0.0
 10
3628.740234375
 20
-0.0
 10
3618.90625
 20
-0.0
 10
3609.072265625
 20
-0.0
 10
3599.23828125
 20
-0.0
 10
3589.404296875
 20
-0.0
 10
3579.5703125
 20
-0.0
 10
3569.736328125
 20
-0.0
 10
3559.90234375
 20
-0.0
 10
3550.068359375
 20
-0.0
 10
3540.234375
 20
-0.0
 10
3530.400390625
 20
-0.0
 10
3520.56640625
 20
-0.0
 10
3510.732421875
 20
-0.0
 10
3500.8984375
 20
-0.0
 10
3491.064453125
 20
-0.0
 10
3481.23046875
 20
-0.0
 10
3471.396484375
 20
-0.0
 10
3461.5625
 20
-0.0
 10
3451.728515625
 20
-0.0
 10
3441.89453125
 20
-0.0
 10
3432.060546875
 20
-0.0
 10
3422.2265625
 20
-0.0
 10
3412.392578125
 20
-0.0
 10
3402.55859375
 20
-0.0
 10
3392.724609375
 20
-0.0
 10
3382.890625
 20
-0.0
 10
3373.056640625
 20
-0.0
 10
3363.22265625
 20
-0.0
 10
3353.388671875
 20
-0.0
 10
3343.5546875
 20
-0.0
 10
3333.720703125
 20
-0.0
 10
3323.88671875
 20
-0.0
 10
3314.052734375
 20
-0.0
 10
3304.21875
 20
-0.0
 10
3294.384765625
 20
-0.0
 10
3284.55078125
 20
-0.0
 10
3274.716796875
 20
-0.0
 10
3264.8828125
 20
-0.0
 10
3255.048828125
 20
-0.0
 10
3245.21484375
 20
-0.0
 10
3235.380859375
 20
-0.0
 10
3225.546875
 20
-0.0
 10
3215.712890625
 20
-0.0
 10
3205.87890625
 20
-0.0
 10
3196.044921875
 20
-0.0
 10
3186.2109375
 20
-0.0
 10
3176.376953125
 20
-0.0
 10
3166.54296875
 20
-0.0
 10
3156.708984375
 20
-0.0
 10
3146.875
 20
-0.0
 10
3137.041015625
 20
-0.0
 10
3127.20703125
 20
-0.0
 10
3117.373046875
 20
-0.0
 10
3107.5390625
 20
-0.0
 10
3097.705078125
 20
-0.0
 10
3087.87109375
 20
-0.0
 10
3078.037109375
 20
-0.0
 10
3068.203125
 20
-0.0
 10
3058.369140625
 20
-0.0
 10
3048.53515625
 20
-0.0
 10
3038.701171875
 20
-0.0
 10
3028.8671875
 20
-0.0
 10
3019.033203125
 20
-0.0
 10
3009.19921875
 20
-0.0
 10
2999.365234375
 20
-0.0
 10
2989.53125
 20
-0.0
 10
2979.697265625
 20
-0.0
 10
2969.86328125
 20
-0.0
 10
2960.029296875
 20
-0.0
 10
2950.1953125
 20
-0.0
 10
2940.361328125
 20
-0.0
 10
2930.52734375
 20
-0.0
 10
2920.693359375
 20
-0.0
 10
2910.859375
 20
-0.0
 10
2901.025390625
 20
-0.0
 10
2891.19140625
 20
-0.0
 10
2881.357421875
 20
-0.0
 10
2871.5234375
 20
-0.0
 10
2861.689453125
 20
-0.0
 10
2851.85546875
 20
-0.0
 10
2842.021484375
 20
-0.0
 10
2832.1875
 20
-0.0
 10
2822.353515625
 20
-0.0
 10
2812.51953125
 20
-0.0
 10
2802.685546875
 20
-0.0
 10
2792.8515625
 20
-0.0
 10
2783.017578125
 20
-0.0
 10
2773.18359375
 20
-0.0
 10
2763.349609375
 20
-0.0
 10
2753.515625
 20
-0.0
 10
2743.681640625
 20
-0.0
 10
2733.84765625
 20
-0.0
 10
2724.013671875
 20
-0.0
 10
2714.1796875
 20
-0.0
 10
2704.345703125
 20
-0.0
 10
2694.51171875
 20
-0.0
 10
2684.677734375
 20
-0.0
 10
2674.84375
 20
-0.0
 10
2665.009765625
 20
-0.0
 10
2655.17578125
 20
-0.0
 10
2645.341796875
 20
-0.0
 10
2635.5078125
 20
-0.0
 10
2625.673828125
 20
-0.0
 10
2615.83984375
 20
-0.0
 10
2606.005859375
 20
-0.0
 10
2596.171875
 20
-0.0
 10
2586.337890625
 20
-0.0
 10
2576.50390625
 20
-0.0
 10
2566.669921875
 20
-0.0
 10
2556.8359375
 20
-0.0
 10
2547.001953125
 20
-0.0
 10
2537.16796875
 20
-0.0
 10
2527.333984375
 20
-0.0
 10
2517.5
 20
-0.0
 10
2507.666015625
 20
-0.0
 10
2497.83203125
 20
-0.0
 10
2487.998046875
 20
-0.0
 10
2478.1640625
 20
-0.0
 10
2468.330078125
 20
-0.0
 10
2458.49609375
 20
-0.0
 10
2448.662109375
 20
-0.0
 10
2438.828125
 20
-0.0
 10
2428.994140625
 20
-0.0
 10
2419.16015625
 20
-0.0
 10
2409.326171875
 20
-0.0
 10
2399.4921875
 20
-0.0
 10
2389.658203125
 20
-0.0
 10
2379.82421875
 20
-0.0
 10
2369.990234375
 20
-0.0
 10
2360.15625
 20
-0.0
 10
2350.322265625
 20
-0.0
 10
2340.48828125
 20
-0.0
 10
2330.654296875
 20
-0.0
 10
2320.8203125
 20
-0.0
 10
2310.986328125
 20
-0.0
 10
2301.15234375
 20
-0.0
 10
2291.318359375
 20
-0.0
 10
2281.484375
 20
-0.0
 10
2271.650390625
 20
-0.0
 10
2261.81640625
 20
-0.0
 10
2251.982421875
 20
-0.0
 10
2242.1484375
 20
-0.0
 10
2232.314453125
 20
-0.0
 10
2222.48046875
 20
-0.0
 10
2212.646484375
 20
-0.0
 10
2202.8125
 20
-0.0
 10
2192.978515625
 20
-0.0
 10
2183.14453125
 20
-0.0
 10
2173.310546875
 20
-0.0
 10
2163.4765625
 20
-0.0
 10
2153.642578125
 20
-0.0
 10
2143.80859375
 20
-0.0
 10
2133.974609375
 20
-0.0
 10
2124.140625
 20
-0.0
 10
2114.306640625
 20
-0.0
 10
2104.47265625
 20
-0.0
 10
2094.638671875
 20
-0.0
 10
2084.8046875
 20
-0.0
 10
2074.970703125
 20
-0.0
 10
2065.13671875
 20
-0.0
 10
2055.302734375
 20
-0.0
 10
2045.46875
 20
-0.0
 10
2035.634765625
 20
-0.0
 10
2025.80078125
 20
-0.0
 10
2015.966796875
 20
-0.0
 10
2006.1328125
 20
-0.0
 10
1996.298828125
 20
-0.0
 10
1986.46484375
 20
-0.0
 10
1976.630859375
 20
-0.0
 10
1966.796875
 20
-0.0
 10
1956.962890625
 20
-0.0
 10
1947.12890625
 20
-0.0
 10
1937.294921875
 20
-0.0
 10
1927.4609375
 20
-0.0
 10
1917.626953125
 20
-0.0
 10
1907.79296875
 20
-0.0
 10
1897.958984375
 20
-0.0
 10
1888.125
 20
-0.0
 10
1878.291015625
 20
-0.0
 10
1868.45703125
 20
-0.0
 10
1858.623046875
 20
-0.0
 10
1848.7890625
 20
-0.0
 10
1838.955078125
 20
-0.0
 10
1829.12109375
 20
-0.0
 10
1819.287109375
 20
-0.0
 10
1809.453125
 20
-0.0
 10
1799.619140625
 20
-0.0
 10
1789.78515625
 20
-0.0
 10
1779.951171875
 20
-0.0
 10
1770.1171875
 20
-0.0
 10
1760.283203125
 20
-0.0
 10
1750.44921875
 20
-0.0
 10
1740.615234375
 20
-0.0
 10
1730.78125
 20
-0.0
 10
1720.947265625
 20
-0.0
 10
1711.11328125
 20
-0.0
 10
1701.279296875
 20
-0.0
 10
1691.4453125
 20
-0.0
 10
1681.611328125
 20
-0.0
 10
1671.77734375
 20
-0.0
 10
1661.943359375
 20
-0.0
 10
1652.109375
 20
-0.0
 10
1642.275390625
 20
-0.0
 10
1632.44140625
 20
-0.0
 10
1622.607421875
 20
-0.0
 10
1612.7734375
 20
-0.0
 10
1602.939453125
 20
-0.0
 10
1593.10546875
 20
-0.0
 10
1583.271484375
 20
-0.0
 10
1573.4375
 20
-0.0
 10
1563.603515625
 20
-0.0
 10
1553.76953125
 20
-0.0
 10
1543.935546875
 20
-0.0
 10
1534.1015625
 20
-0.0
 10
1524.267578125
 20
-0.0
 10
1514.43359375
 20
-0.0
 10
1504.599609375
 20
-0.0
 10
1494.765625
 20
-0.0
 10
1484.931640625
 20
-0.0
 10
1475.09765625
 20
-0.0
 10
1465.263671875
 20
-0.0
 10
1455.4296875
 20
-0.0
 10
1445.595703125
 20
-0.0
 10
1435.76171875
 20
-0.0
 10
1425.927734375
 20
-0.0
 10
1416.09375
 20
-0.0
 10
1406.259765625
 20
-0.0
 10
1396.42578125
 20
-0.0
 10
1386.591796875
 20
-0.0
 10
1376.7578125
 20
-0.0
 10
1366.923828125
 20
-0.0
 10
1357.08984375
 20
-0.0
 10
1347.255859375
 20
-0.0
 10
1337.421875
 20
-0.0
 10
1327.587890625
 20
-0.0
 10
1317.75390625
 20
-0.0
 10
1307.919921875
 20
-0.0
 10
1298.0859375
 20
-0.0
 10
1288.251953125
 20
-0.0
 10
1278.41796875
 20
-0.0
 10
1268.583984375
 20
-0.0
 10
1258.75
 20
-0.0
 10
1248.916015625
 20
-0.0
 10
1239.08203125
 20
-0.0
 10
1229.248046875
 20
-0.0
 10
1219.4140625
 20
-0.0
 10
1209.580078125
 20
-0.0
 10
1199.74609375
 20
-0.0
 10
1189.912109375
 20
-0.0
 10
1180.078125
 20
-0.0
 10
1170.244140625
 20
-0.0
 10
1160.41015625
 20
-0.0
 10
1150.576171875
 20
-0.0
 10
1140.7421875
 20
-0.0
 10
1130.908203125
 20
-0.0
 10
1121.07421875
 20
-0.0
 10
1111.240234375
 20
-0.0
 10
1101.40625
 20
-0.0
 10
1091.572265625
 20
-0.0
 10
1081.73828125
 20
-0.0
 10
1071.904296875
 20
-0.0
 10
1062.0703125
 20
-0.0
 10
1052.236328125
 20
-0.0
 10
1042.40234375
 20
-0.0
 10
1032.568359375
 20
-0.0
 10
1022.734375
 20
-0.0
 10
1012.900390625
 20
-0.0
 10
1003.06640625
 20
-0.0
 10
993.232421875
 20
-0.0
 10
983.3984375
 20
-0.0
 10
973.564453125
 20
-0.0
 10
963.73046875
 20
-0.0
 10
953.896484375
 20
-0.0
 10
944.0625
 20
-0.0
 10
934.228515625
 20
-0.0
 10
924.39453125
 20
-0.0
 10
914.560546875
 20
-0.0
 10
904.7265625
 20
-0.0
 10
894.892578125
 20
-0.0
 10
885.05859375
 20
-0.0
 10
875.224609375
 20
-0.0
 10
865.390625
 20
-0.0
 10
855.556640625
 20
-0.0
 10
845.72265625
 20
-0.0
 10
835.888671875
 20
-0.0
 10
826.0546875
 20
-0.0
 10
816.220703125
 20
-0.0
 10
806.38671875
 20
-0.0
 10
796.552734375
 20
-0.0
 10
786.71875
 20
-0.0
 10
776.884765625
 20
-0.0
 10
767.05078125
 20
-0.0
 10
757.216796875
 20
-0.0
 10
747.3828125
 20
-0.0
 10
737.548828125
 20
-0.0
 10
727.71484375
 20
-0.0
 10
717.880859375
 20
-0.0
 10
708.046875
 20
-0.0
 10
698.212890625
 20
-0.0
 10
688.37890625
 20
-0.0
 10
678.544921875
 20
-0.0
 10
668.7109375
 20
-0.0
 10
658.876953125
 20
-0.0
 10
649.04296875
 20
-0.0
 10
639.208984375
 20
-0.0
 10
629.375
 20
-0.0
 10
619.541015625
 20
-0.0
 10
609.70703125
 20
-0.0
 10
599.873046875
 20
-0.0
 10
590.0390625
 20
-0.0
 10
580.205078125
 20
-0.0
 10
570.37109375
 20
-0.0
 10
560.537109375
 20
-0.0
 10
550.703125
 20
-0.0
 10
540.869140625
 20
-0.0
 10
531.03515625
 20
-0.0
 10
521.201171875
 20
-0.0
 10
511.3671875
 20
-0.0
 10
501.533203125
 20
-0.0
 10
491.69921875
 20
-0.0
 10
481.865234375
 20
-0.0
 10
472.03125
 20
-0.0
 10
462.197265625
 20
-0.0
 10
452.36328125
 20
-0.0
 10
442.529296875
 20
-0.0
 10
432.6953125
 20
-0.0
 10
422.861328125
 20
-0.0
 10
413.02734375
 20
-0.0
 10
403.193359375
 20
-0.0
 10
393.359375
 20
-0.0
 10
383.525390625
 20
-0.0
 10
373.69140625
 20
-0.0
 10
363.857421875
 20
-0.0
 10
354.0234375
 20
-0.0
 10
344.189453125
 20
-0.0
 10
334.35546875
 20
-0.0
 10
324.521484375
 20
-0.0
 10
314.6875
 20
-0.0
 10
304.853515625
 20
-0.0
 10
295.01953125
 20
-0.0
 10
285.185546875
 20
-0.0
 10
275.3515625
 20
-0.0
 10
265.517578125
 20
-0.0
 10
255.68359375
 20
-0.0
 10
245.849609375
 20
-0.0
 10
236.015625
 20
-0.0
 10
226.181640625
 20
-0.0
 10
216.34765625
 20
-0.0
 10
206.513671875
 20
-0.0
 10
196.6796875
 20
-0.0
 10
186.845703125
 20
-0.0
 10
177.01171875
 20
-0.0
 10
167.177734375
 20
-0.0
 10
157.34375
 20
-0.0
 10
147.509765625
 20
-0.0
 10
137.67578125
 20
-0.0
 10
127.841796875
 20
-0.0
 10
118.0078125
 20
-0.0
 10
108.173828125
 20
-0.0
 10
98.33984375
 20
-0.0
 10
88.505859375
 20
-0.0
 10
78.671875
 20
-0.0
 10
68.837890625
 20
-0.0
 10
59.00390625
 20
-0.0
 10
49.169921875
 20
-0.0
 10
39.3359375
 20
-0.0
 10
29.501953125
 20
-0.0
 10
19.66796875
 20
-0.0
 10
9.833984375
 20
-0.0
  0
LWPOLYLINE
  5
3A
330
17
100
AcDbEntity
  8
substrate
100
AcDbPolyline
 90
4
 70
1
 43
0.5
 10
3235.380859375
 20
-3451.728515625
 10
3245.21484375
 20
-3441.89453125
 10
3255.048828125
 20
-3451.728515625
 10
3245.21484375
 20
-3461.5625
  0
LWPOLYLINE
  5
3B
330
17
100
AcDbEntity
  8
substrate
100
AcDbPolyline
 90
8
 70
1
 43
0.5
 10
3215.712890625
 20
-3451.728515625
 10
3225.546875
 20
-3441.89453125
 10
3235.380859375
 20
-3451.728515625
 10
3245.21484375
 20
-3461.5625
 10
3235.380859375
 20
-3471.396484375
 10
3225.546875
 20
-3471.396484375
 10
3215.712890625
 20
-3471.396484375
 10
3205.87890625
 20
-3461.5625
  0
LWPOLYLINE
  5
3C
330
17
100
AcDbEntity
  8
substrate
100
AcDbPolyline
 90
8
 70
1
 43
0.5
 10
2625.673828125
 20
-3107.5390625
 10
2635.5078125
 20
-3097.705078125
 10
2645.341796875
 20
-3097.705078125
 10
2655.17578125
 20
-3097.705078125
 10
2665.009765625
 20
-3107.5390625
 10
2655.17578125
 20
-3117.373046875
 10
2645.341796875
 20
-3117.373046875
 10
2635.5078125
 20
-3117.373046875
  0
LWPOLYLINE
  5
3D
330
17
100
AcDbEntity
  8
substrate
100
AcDbPolyline
 90
4
 70
1
 43
0.5
 10
137.67578125
 20
-2665.009765625
 10
147.509765625
 20
-2655.17578125
 10
157.34375
 20
-2665.009765625
 10
147.509765625
 20
-2674.84375
  0
LWPOLYLINE
  5
3E
330
17
100
AcDbEntity
  8
substrate
100
AcDbPolyline
 90
4
 70
1
 43
0.5
 10
1878.291015625
 20
-2428.994140625
 10
1888.125
 20
-2419.16015625
 10
1897.958984375
 20
-2428.994140625
 10
1888.125
 20
-2438.828125
  0
LWPOLYLINE
  5
3F
330
17
100
AcDbEntity
  8
substrate
100
AcDbPolyline
 90
215
 70
1
 43
0.5
 10
2468.330078125
 20
-2153.642578125
 10
2478.1640625
 20
-2143.80859375
 10
2487.998046875
 20
-2143.80859375
 10
2497.83203125
 20
-2143.80859375
 10
2507.666015625
 20
-2143.80859375
 10
2517.5
 20
-2143.80859375
 10
2527.333984375
 20
-2143.80859375
 10
2537.16796875
 20
-2143.80859375
 10
2547.001953125
 20
-2143.80859375
 10
2556.8359375
 20
-2143.80859375
 10
2566.669921875
 20
-2153.642578125
 10
2576.50390625
 20
-2153.642578125
 10
2586.337890625
 20
-2153.642578125
 10
2596.171875
 20
-2163.4765625
 10
2606.005859375
 20
-2153.642578125
 10
2615.83984375
 20
-2163.4765625
 10
2625.673828125
 20
-2163.4765625
 10
2635.5078125
 20
-2163.4765625
 10
2645.341796875
 20
-2173.310546875
 10
2655.17578125
 20
-2183.14453125
 10
2665.009765625
 20
-2183.14453125
 10
2674.84375
 20
-2192.978515625
 10
2674.84375
 20
-2202.8125
 10
2684.677734375
 20
-2202.8125
 10
2694.51171875
 20
-2202.8125
 10
2704.345703125
 20
-2202.8125
 10
2714.1796875
 20
-2202.8125
 10
2724.013671875
 20
-2212.646484375
 10
2733.84765625
 20
-2222.48046875
 10
2733.84765625
 20
-2232.314453125
 10
2743.681640625
 20
-2242.1484375
 10
2753.515625
 20
-2251.982421875
 10
2763.349609375
 20
-2261.81640625
 10
2773.18359375
 20
-2251.982421875
 10
2783.017578125
 20
-2261.81640625
 10
2783.017578125
 20
-2271.650390625
 10
2792.8515625
 20
-2281.484375
 10
2802.685546875
 20
-2291.318359375
 10
2802.685546875
 20
-2301.15234375
 10
2812.51953125
 20
-2310.986328125
 10
2822.353515625
 20
-2310.986328125
 10
2832.1875
 20
-2320.8203125
 10
2832.1875
 20
-2330.654296875
 10
2842.021484375
 20
-2340.48828125
 10
2842.021484375
 20
-2350.322265625
 10
2842.021484375
 20
-2360.15625
 10
2851.85546875
 20
-2369.990234375
 10
2851.85546875
 20
-2379.82421875
 10
2861.689453125
 20
-2389.658203125
 10
2861.689453125
 20
-2399.4921875
 10
2861.689453125
 20
-2409.326171875
 10
2861.689453125
 20
-2419.16015625
 10
2861.689453125
 20
-2428.994140625
 10
2861.689453125
 20
-2438.828125
 10
2871.5234375
 20
-2448.662109375
 10
2871.5234375
 20
-2458.49609375
 10
2871.5234375
 20
-2468.330078125
 10
2871.5234375
 20
-2478.1640625
 10
2871.5234375
 20
-2487.998046875
 10
2871.5234375
 20
-2497.83203125
 10
2871.5234375
 20
-2507.666015625
 10
2871.5234375
 20
-2517.5
 10
2871.5234375
 20
-2527.333984375
 10
2871.5234375
 20
-2537.16796875
 10
2881.357421875
 20
-2547.001953125
 10
2881.357421875
 20
-2556.8359375
 10
2881.357421875
 20
-2566.669921875
 10
2881.357421875
 20
-2576.50390625
 10
2881.357421875
 20
-2586.337890625
 10
2871.5234375
 20
-2596.171875
 10
2871.5234375
 20
-2606.005859375
 10
2861.689453125
 20
-2615.83984375
 10
2861.689453125
 20
-2625.673828125
 10
2861.689453125
 20
-2635.5078125
 10
2851.85546875
 20
-2645.341796875
 10
2851.85546875
 20
-2655.17578125
 10
2842.021484375
 20
-2665.009765625
 10
2832.1875
 20
-2674.84375
 10
2832.1875
 20
-2684.677734375
 10
2822.353515625
 20
-2694.51171875
 10
2822.353515625
 20
-2704.345703125
 10
2812.51953125
 20
-2714.1796875
 10
2802.685546875
 20
-2724.013671875
 10
2792.8515625
 20
-2733.84765625
 10
2792.8515625
 20
-2743.681640625
 10
2783.017578125
 20
-2753.515625
 10
2773.18359375
 20
-2763.349609375
 10
2773.18359375
 20
-2773.18359375
 10
2763.349609375
 20
-2783.017578125
 10
2753.515625
 20
-2792.8515625
 10
2743.681640625
 20
-2802.685546875
 10
2733.84765625
 20
-2802.685546875
 10
2724.013671875
 20
-2802.685546875
 10
2714.1796875
 20
-2802.685546875
 10
2704.345703125
 20
-2812.51953125
 10
2694.51171875
 20
-2822.353515625
 10
2684.677734375
 20
-2832.1875
 10
2674.84375
 20
-2832.1875
 10
2665.009765625
 20
-2832.1875
 10
2655.17578125
 20
-2842.021484375
 10
2645.341796875
 20
-2842.021484375
 10
2635.5078125
 20
-2842.021484375
 10
2625.673828125
 20
-2851.85546875
 10
2615.83984375
 20
-2851.85546875
 10
2606.005859375
 20
-2861.689453125
 10
2596.171875
 20
-2861.689453125
 10
2586.337890625
 20
-2861.689453125
 10
2576.50390625
 20
-2871.5234375
 10
2566.669921875
 20
-2871.5234375
 10
2556.8359375
 20
-2871.5234375
 10
2547.001953125
 20
-2871.5234375
 10
2537.16796875
 20
-2871.5234375
 10
2527.333984375
 20
-2881.357421875
 10
2517.5
 20
-2871.5234375
 10
2507.666015625
 20
-2871.5234375
 10
2497.83203125
 20
-2871.5234375
 10
2487.998046875
 20
-2871.5234375
 10
2478.1640625
 20
-2871.5234375
 10
2468.330078125
 20
-2871.5234375
 10
2458.49609375
 20
-2871.5234375
 10
2448.662109375
 20
-2871.5234375
 10
2438.828125
 20
-2871.5234375
 10
2428.994140625
 20
-2871.5234375
 10
2419.16015625
 20
-2871.5234375
 10
2409.326171875
 20
-2861.689453125
 10
2399.4921875
 20
-2861.689453125
 10
2389.658203125
 20
-2851.85546875
 10
2379.82421875
 20
-2851.85546875
 10
2369.990234375
 20
-2851.85546875
 10
2360.15625
 20
-2842.021484375
 10
2350.322265625
 20
-2832.1875
 10
2340.48828125
 20
-2832.1875
 10
2330.654296875
 20
-2822.353515625
 10
2320.8203125
 20
-2822.353515625
 10
2310.986328125
 20
-2812.51953125
 10
2301.15234375
 20
-2802.685546875
 10
2291.318359375
 20
-2802.685546875
 10
2281.484375
 20
-2792.8515625
 10
2271.650390625
 20
-2783.017578125
 10
2261.81640625
 20
-2783.017578125
 10
2251.982421875
 20
-2773.18359375
 10
2251.982421875
 20
-2763.349609375
 10
2242.1484375
 20
-2753.515625
 10
2232.314453125
 20
-2743.681640625
 10
2222.48046875
 20
-2733.84765625
 10
2222.48046875
 20
-2724.013671875
 10
2212.646484375
 20
-2714.1796875
 10
2202.8125
 20
-2704.345703125
 10
2192.978515625
 20
-2694.51171875
 10
2183.14453125
 20
-2684.677734375
 10
2183.14453125
 20
-2674.84375
 10
2183.14453125
 20
-2665.009765625
 10
2173.310546875
 20
-2655.17578125
 10
2173.310546875
 20
-2645.341796875
 10
2163.4765625
 20
-2635.5078125
 10
2163.4765625
 20
-2625.673828125
 10
2163.4765625
 20
-2615.83984375
 10
2153.642578125
 20
-2606.005859375
 10
2153.642578125
 20
-2596.171875
 10
2153.642578125
 20
-2586.337890625
 10
2153.642578125
 20
-2576.50390625
 10
2153.642578125
 20
-2566.669921875
 10
2153.642578125
 20
-2556.8359375
 10
2143.80859375
 20
-2547.001953125
 10
2143.80859375
 20
-2537.16796875
 10
2143.80859375
 20
-2527.333984375
 10
2143.80859375
 20
-2517.5
 10
2143.80859375
 20
-2507.666015625
 10
2143.80859375
 20
-2497.83203125
 10
2153.642578125
 20
-2487.998046875
 10
2143.80859375
 20
-2478.1640625
 10
2153.642578125
 20
-2468.330078125
 10
2153.642578125
 20
-2458.49609375
 10
2153.642578125
 20
-2448.662109375
 10
2153.642578125
 20
-2438.828125
 10
2153.642578125
 20
-2428.994140625
 10
2153.642578125
 20
-2419.16015625
 10
2153.642578125
 20
-2409.326171875
 10
2163.4765625
 20
-2399.4921875
 10
2173.310546875
 20
-2389.658203125
 10
2173.310546875
 20
-2379.82421875
 10
2173.310546875
 20
-2369.990234375
 10
2173.310546875
 20
-2360.15625
 10
2183.14453125
 20
-2350.322265625
 10
2192.978515625
 20
-2340.48828125
 10
2192.978515625
 20
-2330.654296875
 10
2202.8125
 20
-2320.8203125
 10
2202.8125
 20
-2310.986328125
 10
2212.646484375
 20
-2301.15234375
 10
2222.48046875
 20
-2291.318359375
 10
2232.314453125
 20
-2291.318359375
 10
2242.1484375
 20
-2281.484375
 10
2242.1484375
 20
-2271.650390625
 10
2251.982421875
 20
-2261.81640625
 10
2261.81640625
 20
-2251.982421875
 10
2271.650390625
 20
-2242.1484375
 10
2281.484375
 20
-2242.1484375
 10
2291.318359375
 20
-2232.314453125
 10
2301.15234375
 20
-2222.48046875
 10
2310.986328125
 20
-2212.646484375
 10
2320.8203125
 20
-2202.8125
 10
2330.654296875
 20
-2192.978515625
 10
2340.48828125
 20
-2183.14453125
 10
2350.322265625
 20
-2183.14453125
 10
2360.15625
 20
-2183.14453125
 10
2369.990234375
 20
-2173.310546875
 10
2379.82421875
 20
-2173.310546875
 10
2389.658203125
 20
-2173.310546875
 10
2399.4921875
 20
-2163.4765625
 10
2409.326171875
 20
-2163.4765625
 10
2419.16015625
 20
-2163.4765625
 10
2428.994140625
 20
-2163.4765625
 10
2438.828125
 20
-2153.642578125
 10
2448.662109375
 20
-2153.642578125
 10
2458.49609375
 20
-2153.642578125
  0
LWPOLYLINE
  5
40
330
17
100
AcDbEntity
  8
substrate
100
AcDbPolyline
 90
2
 70
1
 43
0.5
 10
2487.998046875
 20
-2743.681640625
 10
2487.998046875
 20
-2753.515625
  0
LWPOLYLINE
  5
41
330
17
100
AcDbEntity
  8
substrate
100
AcDbPolyline
 90
1
 70
1
 43
0.5
 10
2438.828125
 20
-2615.83984375
  0
LWPOLYLINE
  5
42
330
17
100
AcDbEntity
  8
substrate
100
AcDbPolyline
 90
1
 70
1
 43
0.5
 10
2419.16015625
 20
-2615.83984375
  0
LWPOLYLINE
  5
43
330
17
100
AcDbEntity
  8
substrate
100
AcDbPolyline
 90
8
 70
1
 43
0.5
 10
3028.8671875
 20
-2094.638671875
 10
3038.701171875
 20
-2084.8046875
 10
3048.53515625
 20
-2094.638671875
 10
3058.369140625
 20
-2104.47265625
 10
3048.53515625
 20
-2114.306640625
 10
3038.701171875
 20
-2124.140625
 10
3028.8671875
 20
-2114.306640625
 10
3019.033203125
 20
-2104.47265625
  0
LWPOLYLINE
  5
44
330
17
100
AcDbEntity
  8
substrate
100
AcDbPolyline
 90
4
 70
1
 43
0.5
 10
4680.9765625
 20
-1730.78125
 10
4690.810546875
 20
-1720.947265625
 10
4700.64453125
 20
-1730.78125
 10
4690.810546875
 20
-1740.615234375
  0
ENDSEC
  0
SECTION
  2
OBJECTS
  0
DICTIONARY
  5
A
330
0
100
AcDbDictionary
280
0
281
1
  3
ACAD_COLOR
350
B
  3
ACAD_GROUP
350
C
  3
ACAD_LAYOUT
350
D
  3
ACAD_MATERIAL
350
E
  3
ACAD_MLEADERSTYLE
350
F
  3
ACAD_MLINESTYLE
350
10
  3
ACAD_PLOTSETTINGS
350
11
  3
ACAD_PLOTSTYLENAME
350
12
  3
ACAD_SCALELIST
350
14
  3
ACAD_TABLESTYLE
350
15
  3
ACAD_VISUALSTYLE
350
16
  3
EZDXF_META
350
2D
  0
DICTIONARY
  5
B
330
A
100
AcDbDictionary
280
0
281
1
  0
DICTIONARY
  5
C
330
A
100
AcDbDictionary
280
0
281
1
  0
DICTIONARY
  5
D
330
A
100
AcDbDictionary
280
0
281
1
  3
Model
350
1A
  3
Layout1
350
1E
  0
DICTIONARY
  5
E
330
A
100
AcDbDictionary
280
0
281
1
  3
ByBlock
350
1F
  3
ByLayer
350
20
  3
Global
350
21
  0
DICTIONARY
  5
F
330
A
100
AcDbDictionary
280
0
281
1
  3
Standard
350
2C
  0
DICTIONARY
  5
10
330
A
100
AcDbDictionary
280
0
281
1
  3
Standard
350
22
  0
DICTIONARY
  5
11
330
A
100
AcDbDictionary
280
0
281
1
  0
ACDBDICTIONARYWDFLT
  5
12
330
A
100
AcDbDictionary
280
0
281
1
  3
Normal
350
13
100
AcDbDictionaryWithDefault
340
13
  0
ACDBPLACEHOLDER
  5
13
330
12
  0
DICTIONARY
  5
14
330
A
100
AcDbDictionary
280
0
281
1
  0
DICTIONARY
  5
15
330
A
100
AcDbDictionary
280
0
281
1
  0
DICTIONARY
  5
16
330
A
100
AcDbDictionary
280
0
281
1
  0
LAYOUT
  5
1A
330
D
100
AcDbPlotSettings
  1

  2
Adobe PDF
  4
A3
  6

 40
7.5
 41
20.0
 42
7.5
 43
20.0
 44
420.0
 45
297.0
 46
0.0
 47
0.0
 48
0.0
 49
0.0
140
0.0
141
0.0
142
1.0
143
1.0
 70
1024
 72
1
 73
0
 74
5
  7

 75
16
 76
0
 77
2
 78
300
147
1.0
148
0.0
149
0.0
100
AcDbLayout
  1
Model
 70
1
 71
0
 10
0.0
 20
0.0
 11
420.0
 21
297.0
 12
0.0
 22
0.0
 32
0.0
 14
1e+20
 24
1e+20
 34
1e+20
 15
-1e+20
 25
-1e+20
 35
-1e+20
146
0.0
 13
0.0
 23
0.0
 33
0.0
 16
1.0
 26
0.0
 36
0.0
 17
0.0
 27
1.0
 37
0.0
 76
1
330
17
  0
LAYOUT
  5
1E
330
D
100
AcDbPlotSettings
  1

  2
Adobe PDF
  4
A3
  6

 40
7.5
 41
20.0
 42
7.5
 43
20.0
 44
420.0
 45
297.0
 46
0.0
 47
0.0
 48
0.0
 49
0.0
140
0.0
141
0.0
142
1.0
143
1.0
 70
0
 72
1
 73
0
 74
5
  7

 75
16
 76
0
 77
2
 78
300
147
1.0
148
0.0
149
0.0
100
AcDbLayout
  1
Layout1
 70
1
 71
1
 10
0.0
 20
0.0
 11
420.0
 21
297.0
 12
0.0
 22
0.0
 32
0.0
 14
1e+20
 24
1e+20
 34
1e+20
 15
-1e+20
 25
-1e+20
 35
-1e+20
146
0.0
 13
0.0
 23
0.0
 33
0.0
 16
1.0
 26
0.0
 36
0.0
 17
0.0
 27
1.0
 37
0.0
 76
1
330
1B
  0
MATERIAL
  5
1F
102
{ACAD_REACTORS
330
E
102
}
330
E
100
AcDbMaterial
  1
ByBlock
  2

 70
0
 40
1.0
 71
1
 41
1.0
 91
-1023410177
 42
1.0
 72
1
  3

 73
1
 74
1
 75
1
 44
0.5
 73
0
 45
1.0
 46
1.0
 77
1
  4

 78
1
 79
1
170
1
 48
1.0
171
1
  6

172
1
173
1
174
1
140
1.0
141
1.0
175
1
  7

176
1
177
1
178
1
143
1.0
179
1
  8

270
1
271
1
272
1
145
1.0
146
1.0
273
1
  9

274
1
275
1
276
1
 42
1.0
 72
1
  3

 73
1
 74
1
 75
1
 94
63
  0
MATERIAL
  5
20
102
{ACAD_REACTORS
330
E
102
}
330
E
100
AcDbMaterial
  1
ByLayer
  2

 70
0
 40
1.0
 71
1
 41
1.0
 91
-1023410177
 42
1.0
 72
1
  3

 73
1
 74
1
 75
1
 44
0.5
 73
0
 45
1.0
 46
1.0
 77
1
  4

 78
1
 79
1
170
1
 48
1.0
171
1
  6

172
1
173
1
174
1
140
1.0
141
1.0
175
1
  7

176
1
177
1
178
1
143
1.0
179
1
  8

270
1
271
1
272
1
145
1.0
146
1.0
273
1
  9

274
1
275
1
276
1
 42
1.0
 72
1
  3

 73
1
 74
1
 75
1
 94
63
  0
MATERIAL
  5
21
102
{ACAD_REACTORS
330
E
102
}
330
E
100
AcDbMaterial
  1
Global
  2

 70
0
 40
1.0
 71
1
 41
1.0
 91
-1023410177
 42
1.0
 72
1
  3

 73
1
 74
1
 75
1
 44
0.5
 73
0
 45
1.0
 46
1.0
 77
1
  4

 78
1
 79
1
170
1
 48
1.0
171
1
  6

172
1
173
1
174
1
140
1.0
141
1.0
175
1
  7

176
1
177
1
178
1
143
1.0
179
1
  8

270
1
271
1
272
1
145
1.0
146
1.0
273
1
  9

274
1
275
1
276
1
 42
1.0
 72
1
  3

 73
1
 74
1
 75
1
 94
63
  0
MLINESTYLE
  5
22
102
{ACAD_REACTORS
330
10
102
}
330
10
100
AcDbMlineStyle
  2
Standard
 70
0
  3

 62
256
 51
90.0
 52
90.0
 71
2
 49
0.5
 62
256
  6
BYLAYER
 49
-0.5
 62
256
  6
BYLAYER
  0
MLEADERSTYLE
  5
2C
102
{ACAD_REACTORS
330
F
102
}
330
F
100
AcDbMLeaderStyle
179
2
170
2
171
1
172
0
 90
2
 40
0.0
 41
0.0
173
1
 91
-1056964608
 92
-2
290
1
 42
2.0
291
1
 43
8.0
  3
Standard
 44
4.0
300

342
29
174
1
175
1
176
0
178
1
 93
-1056964608
 45
4.0
292
0
297
0
 46
4.0
 94
-1056964608
 47
1.0
 49
1.0
140
1.0
294
1
141
0.0
177
0
142
1.0
295
0
296
0
143
3.75
271
0
272
9
273
9
  0
DICTIONARY
  5
2D
330
A
100
AcDbDictionary
281
1
  3
CREATED_BY_EZDXF
350
2E
  3
WRITTEN_BY_EZDXF
350
47
  0
DICTIONARYVAR
  5
2E
330
2D
100
DictionaryVariables
280
0
  1
1.1.0 @ 2025-03-03T11:53:09.245081+00:00
  0
DICTIONARYVAR
  5
47
330
2D
100
DictionaryVariables
280
0
  1
1.1.0 @ 2025-03-03T11:53:09.250437+00:00
  0
ENDSEC
  0
EOF
