  0
SECTION
  2
HEADER
  9
$ACADVER
  1
AC1027
  9
$ACADMAINTVER
 70
105
  9
$DWGCODEPAGE
  3
ANSI_1252
  9
$LASTSAVEDBY
  1
ezdxf
  9
$REQUIREDVERSIONS
160
0
  9
$INSBASE
 10
0.0
 20
0.0
 30
0.0
  9
$EXTMIN
 10
1e+20
 20
1e+20
 30
1e+20
  9
$EXTMAX
 10
-1e+20
 20
-1e+20
 30
-1e+20
  9
$LIMMIN
 10
0.0
 20
0.0
  9
$LIMMAX
 10
420.0
 20
297.0
  9
$ORTHOMODE
 70
0
  9
$REGENMODE
 70
1
  9
$FILLMODE
 70
1
  9
$QTEXTMODE
 70
0
  9
$MIRRTEXT
 70
1
  9
$LTSCALE
 40
1.0
  9
$ATTMODE
 70
1
  9
$TEXTSIZE
 40
2.5
  9
$TRACEWID
 40
1.0
  9
$TEXTSTYLE
  7
Standard
  9
$CLAYER
  8
0
  9
$CELTYPE
  6
ByLayer
  9
$CECOLOR
 62
256
  9
$CELTSCALE
 40
1.0
  9
$DISPSILH
 70
0
  9
$DIMSCALE
 40
1.0
  9
$DIMASZ
 40
2.5
  9
$DIMEXO
 40
0.625
  9
$DIMDLI
 40
3.75
  9
$DIMRND
 40
0.0
  9
$DIMDLE
 40
0.0
  9
$DIMEXE
 40
1.25
  9
$DIMTP
 40
0.0
  9
$DIMTM
 40
0.0
  9
$DIMTXT
 40
2.5
  9
$DIMCEN
 40
2.5
  9
$DIMTSZ
 40
0.0
  9
$DIMTOL
 70
0
  9
$DIMLIM
 70
0
  9
$DIMTIH
 70
0
  9
$DIMTOH
 70
0
  9
$DIMSE1
 70
0
  9
$DIMSE2
 70
0
  9
$DIMTAD
 70
1
  9
$DIMZIN
 70
8
  9
$DIMBLK
  1

  9
$DIMASO
 70
1
  9
$DIMSHO
 70
1
  9
$DIMPOST
  1

  9
$DIMAPOST
  1

  9
$DIMALT
 70
0
  9
$DIMALTD
 70
3
  9
$DIMALTF
 40
0.03937007874
  9
$DIMLFAC
 40
1.0
  9
$DIMTOFL
 70
1
  9
$DIMTVP
 40
0.0
  9
$DIMTIX
 70
0
  9
$DIMSOXD
 70
0
  9
$DIMSAH
 70
0
  9
$DIMBLK1
  1

  9
$DIMBLK2
  1

  9
$DIMSTYLE
  2
ISO-25
  9
$DIMCLRD
 70
0
  9
$DIMCLRE
 70
0
  9
$DIMCLRT
 70
0
  9
$DIMTFAC
 40
1.0
  9
$DIMGAP
 40
0.625
  9
$DIMJUST
 70
0
  9
$DIMSD1
 70
0
  9
$DIMSD2
 70
0
  9
$DIMTOLJ
 70
0
  9
$DIMTZIN
 70
8
  9
$DIMALTZ
 70
0
  9
$DIMALTTZ
 70
0
  9
$DIMUPT
 70
0
  9
$DIMDEC
 70
2
  9
$DIMTDEC
 70
2
  9
$DIMALTU
 70
2
  9
$DIMALTTD
 70
3
  9
$DIMTXSTY
  7
Standard
  9
$DIMAUNIT
 70
0
  9
$DIMADEC
 70
0
  9
$DIMALTRND
 40
0.0
  9
$DIMAZIN
 70
0
  9
$DIMDSEP
 70
44
  9
$DIMATFIT
 70
3
  9
$DIMFRAC
 70
0
  9
$DIMLDRBLK
  1

  9
$DIMLUNIT
 70
2
  9
$DIMLWD
 70
-2
  9
$DIMLWE
 70
-2
  9
$DIMTMOVE
 70
0
  9
$DIMFXL
 40
1.0
  9
$DIMFXLON
 70
0
  9
$DIMJOGANG
 40
0.785398163397
  9
$DIMTFILL
 70
0
  9
$DIMTFILLCLR
 70
0
  9
$DIMARCSYM
 70
0
  9
$DIMLTYPE
  6

  9
$DIMLTEX1
  6

  9
$DIMLTEX2
  6

  9
$DIMTXTDIRECTION
 70
0
  9
$LUNITS
 70
2
  9
$LUPREC
 70
4
  9
$SKETCHINC
 40
1.0
  9
$FILLETRAD
 40
10.0
  9
$AUNITS
 70
0
  9
$AUPREC
 70
2
  9
$MENU
  1
.
  9
$ELEVATION
 40
0.0
  9
$PELEVATION
 40
0.0
  9
$THICKNESS
 40
0.0
  9
$LIMCHECK
 70
0
  9
$CHAMFERA
 40
0.0
  9
$CHAMFERB
 40
0.0
  9
$CHAMFERC
 40
0.0
  9
$CHAMFERD
 40
0.0
  9
$SKPOLY
 70
0
  9
$TDCREATE
 40
2460683.3989467593
  9
$TDUCREATE
 40
2458532.153996898
  9
$TDUPDATE
 40
2460683.3989467593
  9
$TDUUPDATE
 40
2458532.1544311
  9
$TDINDWG
 40
0.0
  9
$TDUSRTIMER
 40
0.0
  9
$USRTIMER
 70
1
  9
$ANGBASE
 50
0.0
  9
$ANGDIR
 70
0
  9
$PDMODE
 70
0
  9
$PDSIZE
 40
0.0
  9
$PLINEWID
 40
0.0
  9
$SPLFRAME
 70
0
  9
$SPLINETYPE
 70
6
  9
$SPLINESEGS
 70
8
  9
$HANDSEED
  5
3D
  9
$SURFTAB1
 70
6
  9
$SURFTAB2
 70
6
  9
$SURFTYPE
 70
6
  9
$SURFU
 70
6
  9
$SURFV
 70
6
  9
$UCSBASE
  2

  9
$UCSNAME
  2

  9
$UCSORG
 10
0.0
 20
0.0
 30
0.0
  9
$UCSXDIR
 10
1.0
 20
0.0
 30
0.0
  9
$UCSYDIR
 10
0.0
 20
1.0
 30
0.0
  9
$UCSORTHOREF
  2

  9
$UCSORTHOVIEW
 70
0
  9
$UCSORGTOP
 10
0.0
 20
0.0
 30
0.0
  9
$UCSORGBOTTOM
 10
0.0
 20
0.0
 30
0.0
  9
$UCSORGLEFT
 10
0.0
 20
0.0
 30
0.0
  9
$UCSORGRIGHT
 10
0.0
 20
0.0
 30
0.0
  9
$UCSORGFRONT
 10
0.0
 20
0.0
 30
0.0
  9
$UCSORGBACK
 10
0.0
 20
0.0
 30
0.0
  9
$PUCSBASE
  2

  9
$PUCSNAME
  2

  9
$PUCSORG
 10
0.0
 20
0.0
 30
0.0
  9
$PUCSXDIR
 10
1.0
 20
0.0
 30
0.0
  9
$PUCSYDIR
 10
0.0
 20
1.0
 30
0.0
  9
$PUCSORTHOREF
  2

  9
$PUCSORTHOVIEW
 70
0
  9
$PUCSORGTOP
 10
0.0
 20
0.0
 30
0.0
  9
$PUCSORGBOTTOM
 10
0.0
 20
0.0
 30
0.0
  9
$PUCSORGLEFT
 10
0.0
 20
0.0
 30
0.0
  9
$PUCSORGRIGHT
 10
0.0
 20
0.0
 30
0.0
  9
$PUCSORGFRONT
 10
0.0
 20
0.0
 30
0.0
  9
$PUCSORGBACK
 10
0.0
 20
0.0
 30
0.0
  9
$USERI1
 70
0
  9
$USERI2
 70
0
  9
$USERI3
 70
0
  9
$USERI4
 70
0
  9
$USERI5
 70
0
  9
$USERR1
 40
0.0
  9
$USERR2
 40
0.0
  9
$USERR3
 40
0.0
  9
$USERR4
 40
0.0
  9
$USERR5
 40
0.0
  9
$WORLDVIEW
 70
1
  9
$SHADEDGE
 70
3
  9
$SHADEDIF
 70
70
  9
$TILEMODE
 70
1
  9
$MAXACTVP
 70
64
  9
$PINSBASE
 10
0.0
 20
0.0
 30
0.0
  9
$PLIMCHECK
 70
0
  9
$PEXTMIN
 10
1e+20
 20
1e+20
 30
1e+20
  9
$PEXTMAX
 10
-1e+20
 20
-1e+20
 30
-1e+20
  9
$PLIMMIN
 10
0.0
 20
0.0
  9
$PLIMMAX
 10
420.0
 20
297.0
  9
$UNITMODE
 70
0
  9
$VISRETAIN
 70
1
  9
$PLINEGEN
 70
0
  9
$PSLTSCALE
 70
1
  9
$TREEDEPTH
 70
3020
  9
$CMLSTYLE
  2
Standard
  9
$CMLJUST
 70
0
  9
$CMLSCALE
 40
20.0
  9
$PROXYGRAPHICS
 70
1
  9
$MEASUREMENT
 70
1
  9
$CELWEIGHT
370
-1
  9
$ENDCAPS
280
0
  9
$JOINSTYLE
280
0
  9
$LWDISPLAY
290
0
  9
$INSUNITS
 70
6
  9
$HYPERLINKBASE
  1

  9
$STYLESHEET
  1

  9
$XEDIT
290
1
  9
$CEPSNTYPE
380
0
  9
$PSTYLEMODE
290
1
  9
$FINGERPRINTGUID
  2
{E3794A26-6444-4593-8145-7FBDA2C19BC2}
  9
$VERSIONGUID
  2
{4367BD5A-2566-4115-AB56-1A73D2841E3B}
  9
$EXTNAMES
290
1
  9
$PSVPSCALE
 40
0.0
  9
$OLESTARTUP
290
0
  9
$SORTENTS
280
127
  9
$INDEXCTL
280
0
  9
$HIDETEXT
280
1
  9
$XCLIPFRAME
280
0
  9
$HALOGAP
280
0
  9
$OBSCOLOR
 70
257
  9
$OBSLTYPE
280
0
  9
$INTERSECTIONDISPLAY
280
0
  9
$INTERSECTIONCOLOR
 70
257
  9
$DIMASSOC
280
2
  9
$PROJECTNAME
  1

  9
$CAMERADISPLAY
290
0
  9
$LENSLENGTH
 40
50.0
  9
$CAMERAHEIGHT
 40
0.0
  9
$STEPSPERSEC
 40
24.0
  9
$STEPSIZE
 40
100.0
  9
$3DDWFPREC
 40
2.0
  9
$PSOLWIDTH
 40
0.005
  9
$PSOLHEIGHT
 40
0.08
  9
$LOFTANG1
 40
1.570796326795
  9
$LOFTANG2
 40
1.570796326795
  9
$LOFTMAG1
 40
0.0
  9
$LOFTMAG2
 40
0.0
  9
$LOFTPARAM
 70
7
  9
$LOFTNORMALS
280
1
  9
$LATITUDE
 40
37.795
  9
$LONGITUDE
 40
-122.394
  9
$NORTHDIRECTION
 40
0.0
  9
$TIMEZONE
 70
-8000
  9
$LIGHTGLYPHDISPLAY
280
1
  9
$TILEMODELIGHTSYNCH
280
1
  9
$CMATERIAL
347
20
  9
$SOLIDHIST
280
0
  9
$SHOWHIST
280
1
  9
$DWFFRAME
280
2
  9
$DGNFRAME
280
2
  9
$REALWORLDSCALE
290
1
  9
$INTERFERECOLOR
 62
256
  9
$CSHADOW
280
0
  9
$SHADOWPLANELOCATION
 40
0.0
  0
ENDSEC
  0
SECTION
  2
CLASSES
  0
CLASS
  1
ACDBDICTIONARYWDFLT
  2
AcDbDictionaryWithDefault
  3
ObjectDBX Classes
 90
0
 91
0
280
0
281
0
  0
CLASS
  1
SUN
  2
AcDbSun
  3
SCENEOE
 90
1153
 91
0
280
0
281
0
  0
CLASS
  1
VISUALSTYLE
  2
AcDbVisualStyle
  3
ObjectDBX Classes
 90
4095
 91
0
280
0
281
0
  0
CLASS
  1
MATERIAL
  2
AcDbMaterial
  3
ObjectDBX Classes
 90
1153
 91
0
280
0
281
0
  0
CLASS
  1
SCALE
  2
AcDbScale
  3
ObjectDBX Classes
 90
1153
 91
0
280
0
281
0
  0
CLASS
  1
TABLESTYLE
  2
AcDbTableStyle
  3
ObjectDBX Classes
 90
4095
 91
0
280
0
281
0
  0
CLASS
  1
MLEADERSTYLE
  2
AcDbMLeaderStyle
  3
ACDB_MLEADERSTYLE_CLASS
 90
4095
 91
0
280
0
281
0
  0
CLASS
  1
DICTIONARYVAR
  2
AcDbDictionaryVar
  3
ObjectDBX Classes
 90
0
 91
0
280
0
281
0
  0
CLASS
  1
CELLSTYLEMAP
  2
AcDbCellStyleMap
  3
ObjectDBX Classes
 90
1152
 91
0
280
0
281
0
  0
CLASS
  1
MENTALRAYRENDERSETTINGS
  2
AcDbMentalRayRenderSettings
  3
SCENEOE
 90
1024
 91
0
280
0
281
0
  0
CLASS
  1
ACDBDETAILVIEWSTYLE
  2
AcDbDetailViewStyle
  3
ObjectDBX Classes
 90
1025
 91
0
280
0
281
0
  0
CLASS
  1
ACDBSECTIONVIEWSTYLE
  2
AcDbSectionViewStyle
  3
ObjectDBX Classes
 90
1025
 91
0
280
0
281
0
  0
CLASS
  1
RASTERVARIABLES
  2
AcDbRasterVariables
  3
ISM
 90
0
 91
0
280
0
281
0
  0
CLASS
  1
LAYOUT
  2
AcDbLayout
  3
ObjectDBX Classes
 90
0
 91
0
280
0
281
0
  0
CLASS
  1
ACDBPLACEHOLDER
  2
AcDbPlaceHolder
  3
ObjectDBX Classes
 90
0
 91
0
280
0
281
0
  0
ENDSEC
  0
SECTION
  2
TABLES
  0
TABLE
  2
VPORT
  5
8
330
0
100
AcDbSymbolTable
 70
1
  0
VPORT
  5
23
330
8
100
AcDbSymbolTableRecord
100
AcDbViewportTableRecord
  2
*Active
 70
0
 10
0.0
 20
0.0
 11
1.0
 21
1.0
 12
0.0
 22
0.0
 13
0.0
 23
0.0
 14
0.5
 24
0.5
 15
0.5
 25
0.5
 16
0.0
 26
0.0
 36
1.0
 17
0.0
 27
0.0
 37
0.0
 40
1000.0
 41
1.34
 42
50.0
 43
0.0
 44
0.0
 50
0.0
 51
0.0
 71
0
 72
1000
 73
1
 74
3
 75
0
 76
0
 77
0
 78
0
281
0
 65
0
146
0.0
  0
ENDTAB
  0
TABLE
  2
LTYPE
  5
2
330
0
100
AcDbSymbolTable
 70
3
  0
LTYPE
  5
24
330
2
100
AcDbSymbolTableRecord
100
AcDbLinetypeTableRecord
  2
ByBlock
 70
0
  3

 72
65
 73
0
 40
0.0
  0
LTYPE
  5
25
330
2
100
AcDbSymbolTableRecord
100
AcDbLinetypeTableRecord
  2
ByLayer
 70
0
  3

 72
65
 73
0
 40
0.0
  0
LTYPE
  5
26
330
2
100
AcDbSymbolTableRecord
100
AcDbLinetypeTableRecord
  2
Continuous
 70
0
  3

 72
65
 73
0
 40
0.0
  0
ENDTAB
  0
TABLE
  2
LAYER
  5
1
330
0
100
AcDbSymbolTable
 70
5
  0
LAYER
  5
27
330
1
100
AcDbSymbolTableRecord
100
AcDbLayerTableRecord
  2
0
 70
0
 62
7
  6
Continuous
370
-3
390
13
347
21
  0
LAYER
  5
28
330
1
100
AcDbSymbolTableRecord
100
AcDbLayerTableRecord
  2
Defpoints
 70
0
 62
7
  6
Continuous
290
0
370
-3
390
13
347
21
  0
LAYER
  5
2F
330
1
100
AcDbSymbolTableRecord
100
AcDbLayerTableRecord
  2
conductor
 70
0
 62
1
  6
Continuous
370
-3
390
13
347
21
  0
LAYER
  5
30
330
1
100
AcDbSymbolTableRecord
100
AcDbLayerTableRecord
  2
dielectric
 70
0
 62
8
  6
Continuous
370
-3
390
13
347
21
  0
LAYER
  5
31
330
1
100
AcDbSymbolTableRecord
100
AcDbLayerTableRecord
  2
substrate
 70
0
 62
5
  6
Continuous
370
-3
390
13
347
21
  0
ENDTAB
  0
TABLE
  2
STYLE
  5
5
330
0
100
AcDbSymbolTable
 70
1
  0
STYLE
  5
29
330
5
100
AcDbSymbolTableRecord
100
AcDbTextStyleTableRecord
  2
Standard
 70
0
 40
0.0
 41
1.0
 50
0.0
 71
0
 42
2.5
  3
txt
  4

  0
ENDTAB
  0
TABLE
  2
VIEW
  5
7
330
0
100
AcDbSymbolTable
 70
0
  0
ENDTAB
  0
TABLE
  2
UCS
  5
6
330
0
100
AcDbSymbolTable
 70
0
  0
ENDTAB
  0
TABLE
  2
APPID
  5
3
330
0
100
AcDbSymbolTable
 70
3
  0
APPID
  5
2A
330
3
100
AcDbSymbolTableRecord
100
AcDbRegAppTableRecord
  2
ACAD
 70
0
  0
APPID
  5
3A
330
3
100
AcDbSymbolTableRecord
100
AcDbRegAppTableRecord
  2
HATCHBACKGROUNDCOLOR
 70
0
  0
APPID
  5
3B
330
3
100
AcDbSymbolTableRecord
100
AcDbRegAppTableRecord
  2
EZDXF
 70
0
  0
ENDTAB
  0
TABLE
  2
DIMSTYLE
  5
4
330
0
100
AcDbSymbolTable
 70
1
100
AcDbDimStyleTable
  0
DIMSTYLE
105
2B
330
4
100
AcDbSymbolTableRecord
100
AcDbDimStyleTableRecord
  2
Standard
 70
0
 40
1.0
 41
2.5
 42
0.625
 43
3.75
 44
1.25
 45
0.0
 46
0.0
 47
0.0
 48
0.0
 49
2.5
140
2.5
141
2.5
142
0.0
143
0.03937007874
144
1.0
145
0.0
146
1.0
147
0.625
148
0.0
 69
0
 70
0
 71
0
 72
0
 73
0
 74
0
 75
0
 76
0
 77
1
 78
8
 79
3
170
0
171
3
172
1
173
0
174
0
175
0
176
0
177
0
178
0
179
2
271
2
272
2
273
2
274
3
275
0
276
0
277
2
278
44
279
0
280
0
281
0
282
0
283
0
284
8
285
0
286
0
288
0
289
3
290
0
371
-2
372
-2
  0
ENDTAB
  0
TABLE
  2
BLOCK_RECORD
  5
9
330
0
100
AcDbSymbolTable
 70
2
  0
BLOCK_RECORD
  5
17
330
9
100
AcDbSymbolTableRecord
100
AcDbBlockTableRecord
  2
*Model_Space
340
1A
 70
0
280
1
281
0
  0
BLOCK_RECORD
  5
1B
330
9
100
AcDbSymbolTableRecord
100
AcDbBlockTableRecord
  2
*Paper_Space
340
1E
 70
0
280
1
281
0
  0
ENDTAB
  0
ENDSEC
  0
SECTION
  2
BLOCKS
  0
BLOCK
  5
18
330
17
100
AcDbEntity
  8
0
100
AcDbBlockBegin
  2
*Model_Space
 70
0
 10
0.0
 20
0.0
 30
0.0
  3
*Model_Space
  1

  0
ENDBLK
  5
19
330
17
100
AcDbEntity
  8
0
100
AcDbBlockEnd
  0
BLOCK
  5
1C
330
1B
100
AcDbEntity
  8
0
100
AcDbBlockBegin
  2
*Paper_Space
 70
0
 10
0.0
 20
0.0
 30
0.0
  3
*Paper_Space
  1

  0
ENDBLK
  5
1D
330
1B
100
AcDbEntity
  8
0
100
AcDbBlockEnd
  0
ENDSEC
  0
SECTION
  2
ENTITIES
  0
LWPOLYLINE
  5
32
330
17
100
AcDbEntity
  8
conductor
100
AcDbPolyline
 90
1478
 70
1
 43
0.5
 10
3121.46484375
 20
-675.17578125
 10
3111.6796875
 20
-684.9609375
 10
3101.89453125
 20
-684.9609375
 10
3092.109375
 20
-684.9609375
 10
3082.32421875
 20
-694.74609375
 10
3072.5390625
 20
-694.74609375
 10
3062.75390625
 20
-694.74609375
 10
3052.96875
 20
-694.74609375
 10
3043.18359375
 20
-694.74609375
 10
3033.3984375
 20
-694.74609375
 10
3023.61328125
 20
-694.74609375
 10
3013.828125
 20
-694.74609375
 10
3004.04296875
 20
-694.74609375
 10
2994.2578125
 20
-694.74609375
 10
2984.47265625
 20
-694.74609375
 10
2974.6875
 20
-694.74609375
 10
2964.90234375
 20
-694.74609375
 10
2955.1171875
 20
-694.74609375
 10
2945.33203125
 20
-704.53125
 10
2935.546875
 20
-704.53125
 10
2925.76171875
 20
-704.53125
 10
2915.9765625
 20
-704.53125
 10
2906.19140625
 20
-704.53125
 10
2896.40625
 20
-704.53125
 10
2886.62109375
 20
-704.53125
 10
2876.8359375
 20
-694.74609375
 10
2867.05078125
 20
-704.53125
 10
2857.265625
 20
-694.74609375
 10
2847.48046875
 20
-694.74609375
 10
2837.6953125
 20
-694.74609375
 10
2827.91015625
 20
-694.74609375
 10
2818.125
 20
-694.74609375
 10
2808.33984375
 20
-694.74609375
 10
2798.5546875
 20
-694.74609375
 10
2788.76953125
 20
-704.53125
 10
2778.984375
 20
-694.74609375
 10
2769.19921875
 20
-704.53125
 10
2759.4140625
 20
-704.53125
 10
2749.62890625
 20
-694.74609375
 10
2739.84375
 20
-704.53125
 10
2730.05859375
 20
-694.74609375
 10
2720.2734375
 20
-694.74609375
 10
2710.48828125
 20
-694.74609375
 10
2700.703125
 20
-694.74609375
 10
2690.91796875
 20
-694.74609375
 10
2681.1328125
 20
-694.74609375
 10
2671.34765625
 20
-694.74609375
 10
2661.5625
 20
-694.74609375
 10
2651.77734375
 20
-694.74609375
 10
2641.9921875
 20
-694.74609375
 10
2632.20703125
 20
-694.74609375
 10
2622.421875
 20
-694.74609375
 10
2612.63671875
 20
-704.53125
 10
2602.8515625
 20
-704.53125
 10
2593.06640625
 20
-694.74609375
 10
2583.28125
 20
-694.74609375
 10
2573.49609375
 20
-694.74609375
 10
2563.7109375
 20
-694.74609375
 10
2553.92578125
 20
-694.74609375
 10
2544.140625
 20
-694.74609375
 10
2534.35546875
 20
-694.74609375
 10
2524.5703125
 20
-694.74609375
 10
2514.78515625
 20
-694.74609375
 10
2505.0
 20
-694.74609375
 10
2495.21484375
 20
-694.74609375
 10
2485.4296875
 20
-684.9609375
 10
2475.64453125
 20
-694.74609375
 10
2465.859375
 20
-684.9609375
 10
2456.07421875
 20
-684.9609375
 10
2446.2890625
 20
-684.9609375
 10
2436.50390625
 20
-684.9609375
 10
2426.71875
 20
-684.9609375
 10
2416.93359375
 20
-684.9609375
 10
2407.1484375
 20
-694.74609375
 10
2397.36328125
 20
-694.74609375
 10
2387.578125
 20
-694.74609375
 10
2377.79296875
 20
-694.74609375
 10
2368.0078125
 20
-694.74609375
 10
2358.22265625
 20
-694.74609375
 10
2348.4375
 20
-694.74609375
 10
2338.65234375
 20
-694.74609375
 10
2328.8671875
 20
-684.9609375
 10
2319.08203125
 20
-694.74609375
 10
2309.296875
 20
-684.9609375
 10
2299.51171875
 20
-694.74609375
 10
2289.7265625
 20
-694.74609375
 10
2279.94140625
 20
-694.74609375
 10
2270.15625
 20
-694.74609375
 10
2260.37109375
 20
-694.74609375
 10
2250.5859375
 20
-694.74609375
 10
2240.80078125
 20
-694.74609375
 10
2231.015625
 20
-694.74609375
 10
2221.23046875
 20
-694.74609375
 10
2211.4453125
 20
-694.74609375
 10
2201.66015625
 20
-694.74609375
 10
2191.875
 20
-694.74609375
 10
2182.08984375
 20
-694.74609375
 10
2172.3046875
 20
-694.74609375
 10
2162.51953125
 20
-694.74609375
 10
2152.734375
 20
-694.74609375
 10
2142.94921875
 20
-694.74609375
 10
2133.1640625
 20
-704.53125
 10
2123.37890625
 20
-694.74609375
 10
2113.59375
 20
-694.74609375
 10
2103.80859375
 20
-694.74609375
 10
2094.0234375
 20
-694.74609375
 10
2084.23828125
 20
-694.74609375
 10
2074.453125
 20
-694.74609375
 10
2064.66796875
 20
-694.74609375
 10
2054.8828125
 20
-694.74609375
 10
2045.09765625
 20
-694.74609375
 10
2035.3125
 20
-694.74609375
 10
2025.52734375
 20
-694.74609375
 10
2015.7421875
 20
-694.74609375
 10
2005.95703125
 20
-694.74609375
 10
1996.171875
 20
-694.74609375
 10
1986.38671875
 20
-694.74609375
 10
1976.6015625
 20
-694.74609375
 10
1966.81640625
 20
-694.74609375
 10
1957.03125
 20
-694.74609375
 10
1947.24609375
 20
-694.74609375
 10
1937.4609375
 20
-694.74609375
 10
1927.67578125
 20
-694.74609375
 10
1917.890625
 20
-694.74609375
 10
1908.10546875
 20
-684.9609375
 10
1898.3203125
 20
-694.74609375
 10
1888.53515625
 20
-694.74609375
 10
1878.75
 20
-694.74609375
 10
1878.75
 20
-704.53125
 10
1878.75
 20
-714.31640625
 10
1878.75
 20
-724.1015625
 10
1878.75
 20
-733.88671875
 10
1878.75
 20
-743.671875
 10
1878.75
 20
-753.45703125
 10
1878.75
 20
-763.2421875
 10
1888.53515625
 20
-773.02734375
 10
1888.53515625
 20
-782.8125
 10
1878.75
 20
-792.59765625
 10
1878.75
 20
-802.3828125
 10
1878.75
 20
-812.16796875
 10
1878.75
 20
-821.953125
 10
1878.75
 20
-831.73828125
 10
1878.75
 20
-841.5234375
 10
1878.75
 20
-851.30859375
 10
1878.75
 20
-861.09375
 10
1878.75
 20
-870.87890625
 10
1878.75
 20
-880.6640625
 10
1878.75
 20
-890.44921875
 10
1878.75
 20
-900.234375
 10
1878.75
 20
-910.01953125
 10
1878.75
 20
-919.8046875
 10
1878.75
 20
-929.58984375
 10
1878.75
 20
-939.375
 10
1878.75
 20
-949.16015625
 10
1878.75
 20
-958.9453125
 10
1888.53515625
 20
-968.73046875
 10
1888.53515625
 20
-978.515625
 10
1878.75
 20
-988.30078125
 10
1878.75
 20
-998.0859375
 10
1878.75
 20
-1007.87109375
 10
1878.75
 20
-1017.65625
 10
1878.75
 20
-1027.44140625
 10
1878.75
 20
-1037.2265625
 10
1878.75
 20
-1047.01171875
 10
1878.75
 20
-1056.796875
 10
1878.75
 20
-1066.58203125
 10
1878.75
 20
-1076.3671875
 10
1878.75
 20
-1086.15234375
 10
1878.75
 20
-1095.9375
 10
1878.75
 20
-1105.72265625
 10
1878.75
 20
-1115.5078125
 10
1878.75
 20
-1125.29296875
 10
1878.75
 20
-1135.078125
 10
1878.75
 20
-1144.86328125
 10
1878.75
 20
-1154.6484375
 10
1878.75
 20
-1164.43359375
 10
1878.75
 20
-1174.21875
 10
1878.75
 20
-1184.00390625
 10
1878.75
 20
-1193.7890625
 10
1878.75
 20
-1203.57421875
 10
1878.75
 20
-1213.359375
 10
1878.75
 20
-1223.14453125
 10
1878.75
 20
-1232.9296875
 10
1878.75
 20
-1242.71484375
 10
1878.75
 20
-1252.5
 10
1878.75
 20
-1262.28515625
 10
1878.75
 20
-1272.0703125
 10
1888.53515625
 20
-1281.85546875
 10
1888.53515625
 20
-1291.640625
 10
1888.53515625
 20
-1301.42578125
 10
1888.53515625
 20
-1311.2109375
 10
1878.75
 20
-1320.99609375
 10
1878.75
 20
-1330.78125
 10
1878.75
 20
-1340.56640625
 10
1878.75
 20
-1350.3515625
 10
1878.75
 20
-1360.13671875
 10
1878.75
 20
-1369.921875
 10
1878.75
 20
-1379.70703125
 10
1878.75
 20
-1389.4921875
 10
1878.75
 20
-1399.27734375
 10
1878.75
 20
-1409.0625
 10
1878.75
 20
-1418.84765625
 10
1878.75
 20
-1428.6328125
 10
1878.75
 20
-1438.41796875
 10
1888.53515625
 20
-1448.203125
 10
1878.75
 20
-1457.98828125
 10
1878.75
 20
-1467.7734375
 10
1878.75
 20
-1477.55859375
 10
1878.75
 20
-1487.34375
 10
1878.75
 20
-1497.12890625
 10
1878.75
 20
-1506.9140625
 10
1878.75
 20
-1516.69921875
 10
1878.75
 20
-1526.484375
 10
1878.75
 20
-1536.26953125
 10
1878.75
 20
-1546.0546875
 10
1878.75
 20
-1555.83984375
 10
1878.75
 20
-1565.625
 10
1878.75
 20
-1575.41015625
 10
1888.53515625
 20
-1585.1953125
 10
1888.53515625
 20
-1594.98046875
 10
1888.53515625
 20
-1604.765625
 10
1888.53515625
 20
-1614.55078125
 10
1888.53515625
 20
-1624.3359375
 10
1878.75
 20
-1634.12109375
 10
1878.75
 20
-1643.90625
 10
1878.75
 20
-1653.69140625
 10
1878.75
 20
-1663.4765625
 10
1878.75
 20
-1673.26171875
 10
1878.75
 20
-1683.046875
 10
1878.75
 20
-1692.83203125
 10
1878.75
 20
-1702.6171875
 10
1878.75
 20
-1712.40234375
 10
1878.75
 20
-1722.1875
 10
1878.75
 20
-1731.97265625
 10
1878.75
 20
-1741.7578125
 10
1878.75
 20
-1751.54296875
 10
1878.75
 20
-1761.328125
 10
1878.75
 20
-1771.11328125
 10
1888.53515625
 20
-1780.8984375
 10
1878.75
 20
-1790.68359375
 10
1888.53515625
 20
-1800.46875
 10
1888.53515625
 20
-1810.25390625
 10
1878.75
 20
-1820.0390625
 10
1878.75
 20
-1829.82421875
 10
1878.75
 20
-1839.609375
 10
1878.75
 20
-1849.39453125
 10
1878.75
 20
-1859.1796875
 10
1878.75
 20
-1868.96484375
 10
1868.96484375
 20
-1878.75
 10
1859.1796875
 20
-1888.53515625
 10
1849.39453125
 20
-1888.53515625
 10
1839.609375
 20
-1888.53515625
 10
1829.82421875
 20
-1888.53515625
 10
1820.0390625
 20
-1888.53515625
 10
1810.25390625
 20
-1888.53515625
 10
1800.46875
 20
-1888.53515625
 10
1790.68359375
 20
-1888.53515625
 10
1780.8984375
 20
-1888.53515625
 10
1771.11328125
 20
-1878.75
 10
1761.328125
 20
-1888.53515625
 10
1751.54296875
 20
-1878.75
 10
1741.7578125
 20
-1888.53515625
 10
1731.97265625
 20
-1878.75
 10
1722.1875
 20
-1878.75
 10
1712.40234375
 20
-1878.75
 10
1702.6171875
 20
-1878.75
 10
1692.83203125
 20
-1878.75
 10
1683.046875
 20
-1878.75
 10
1673.26171875
 20
-1878.75
 10
1663.4765625
 20
-1878.75
 10
1653.69140625
 20
-1878.75
 10
1643.90625
 20
-1878.75
 10
1634.12109375
 20
-1878.75
 10
1624.3359375
 20
-1878.75
 10
1614.55078125
 20
-1878.75
 10
1604.765625
 20
-1878.75
 10
1594.98046875
 20
-1878.75
 10
1585.1953125
 20
-1878.75
 10
1575.41015625
 20
-1878.75
 10
1565.625
 20
-1878.75
 10
1555.83984375
 20
-1878.75
 10
1546.0546875
 20
-1878.75
 10
1536.26953125
 20
-1878.75
 10
1526.484375
 20
-1878.75
 10
1516.69921875
 20
-1878.75
 10
1506.9140625
 20
-1878.75
 10
1497.12890625
 20
-1878.75
 10
1487.34375
 20
-1878.75
 10
1477.55859375
 20
-1878.75
 10
1467.7734375
 20
-1878.75
 10
1457.98828125
 20
-1878.75
 10
1448.203125
 20
-1878.75
 10
1438.41796875
 20
-1878.75
 10
1428.6328125
 20
-1878.75
 10
1418.84765625
 20
-1878.75
 10
1409.0625
 20
-1878.75
 10
1399.27734375
 20
-1878.75
 10
1389.4921875
 20
-1878.75
 10
1379.70703125
 20
-1878.75
 10
1369.921875
 20
-1878.75
 10
1360.13671875
 20
-1878.75
 10
1350.3515625
 20
-1878.75
 10
1340.56640625
 20
-1878.75
 10
1330.78125
 20
-1878.75
 10
1320.99609375
 20
-1878.75
 10
1311.2109375
 20
-1878.75
 10
1301.42578125
 20
-1878.75
 10
1291.640625
 20
-1878.75
 10
1281.85546875
 20
-1878.75
 10
1272.0703125
 20
-1878.75
 10
1262.28515625
 20
-1878.75
 10
1252.5
 20
-1878.75
 10
1242.71484375
 20
-1878.75
 10
1232.9296875
 20
-1878.75
 10
1223.14453125
 20
-1878.75
 10
1213.359375
 20
-1878.75
 10
1203.57421875
 20
-1878.75
 10
1193.7890625
 20
-1878.75
 10
1184.00390625
 20
-1878.75
 10
1174.21875
 20
-1878.75
 10
1164.43359375
 20
-1878.75
 10
1154.6484375
 20
-1878.75
 10
1144.86328125
 20
-1878.75
 10
1135.078125
 20
-1878.75
 10
1125.29296875
 20
-1878.75
 10
1115.5078125
 20
-1878.75
 10
1105.72265625
 20
-1878.75
 10
1095.9375
 20
-1878.75
 10
1086.15234375
 20
-1878.75
 10
1076.3671875
 20
-1888.53515625
 10
1066.58203125
 20
-1878.75
 10
1056.796875
 20
-1878.75
 10
1047.01171875
 20
-1888.53515625
 10
1037.2265625
 20
-1878.75
 10
1027.44140625
 20
-1878.75
 10
1017.65625
 20
-1878.75
 10
1007.87109375
 20
-1878.75
 10
998.0859375
 20
-1878.75
 10
988.30078125
 20
-1878.75
 10
978.515625
 20
-1878.75
 10
968.73046875
 20
-1878.75
 10
958.9453125
 20
-1878.75
 10
949.16015625
 20
-1888.53515625
 10
939.375
 20
-1888.53515625
 10
929.58984375
 20
-1878.75
 10
919.8046875
 20
-1888.53515625
 10
910.01953125
 20
-1878.75
 10
900.234375
 20
-1878.75
 10
890.44921875
 20
-1878.75
 10
880.6640625
 20
-1878.75
 10
870.87890625
 20
-1878.75
 10
861.09375
 20
-1878.75
 10
851.30859375
 20
-1878.75
 10
841.5234375
 20
-1878.75
 10
831.73828125
 20
-1878.75
 10
821.953125
 20
-1888.53515625
 10
812.16796875
 20
-1878.75
 10
802.3828125
 20
-1888.53515625
 10
792.59765625
 20
-1888.53515625
 10
782.8125
 20
-1888.53515625
 10
773.02734375
 20
-1888.53515625
 10
763.2421875
 20
-1888.53515625
 10
753.45703125
 20
-1888.53515625
 10
743.671875
 20
-1878.75
 10
733.88671875
 20
-1878.75
 10
724.1015625
 20
-1878.75
 10
714.31640625
 20
-1878.75
 10
704.53125
 20
-1878.75
 10
694.74609375
 20
-1878.75
 10
684.9609375
 20
-1878.75
 10
675.17578125
 20
-1888.53515625
 10
675.17578125
 20
-1898.3203125
 10
675.17578125
 20
-1908.10546875
 10
675.17578125
 20
-1917.890625
 10
684.9609375
 20
-1927.67578125
 10
675.17578125
 20
-1937.4609375
 10
684.9609375
 20
-1947.24609375
 10
675.17578125
 20
-1957.03125
 10
675.17578125
 20
-1966.81640625
 10
684.9609375
 20
-1976.6015625
 10
684.9609375
 20
-1986.38671875
 10
675.17578125
 20
-1996.171875
 10
684.9609375
 20
-2005.95703125
 10
684.9609375
 20
-2015.7421875
 10
684.9609375
 20
-2025.52734375
 10
684.9609375
 20
-2035.3125
 10
684.9609375
 20
-2045.09765625
 10
675.17578125
 20
-2054.8828125
 10
675.17578125
 20
-2064.66796875
 10
684.9609375
 20
-2074.453125
 10
684.9609375
 20
-2084.23828125
 10
675.17578125
 20
-2094.0234375
 10
684.9609375
 20
-2103.80859375
 10
675.17578125
 20
-2113.59375
 10
684.9609375
 20
-2123.37890625
 10
684.9609375
 20
-2133.1640625
 10
684.9609375
 20
-2142.94921875
 10
675.17578125
 20
-2152.734375
 10
684.9609375
 20
-2162.51953125
 10
675.17578125
 20
-2172.3046875
 10
675.17578125
 20
-2182.08984375
 10
675.17578125
 20
-2191.875
 10
684.9609375
 20
-2201.66015625
 10
675.17578125
 20
-2211.4453125
 10
675.17578125
 20
-2221.23046875
 10
684.9609375
 20
-2231.015625
 10
684.9609375
 20
-2240.80078125
 10
684.9609375
 20
-2250.5859375
 10
684.9609375
 20
-2260.37109375
 10
684.9609375
 20
-2270.15625
 10
684.9609375
 20
-2279.94140625
 10
684.9609375
 20
-2289.7265625
 10
675.17578125
 20
-2299.51171875
 10
675.17578125
 20
-2309.296875
 10
684.9609375
 20
-2319.08203125
 10
684.9609375
 20
-2328.8671875
 10
684.9609375
 20
-2338.65234375
 10
684.9609375
 20
-2348.4375
 10
684.9609375
 20
-2358.22265625
 10
684.9609375
 20
-2368.0078125
 10
684.9609375
 20
-2377.79296875
 10
684.9609375
 20
-2387.578125
 10
684.9609375
 20
-2397.36328125
 10
684.9609375
 20
-2407.1484375
 10
675.17578125
 20
-2416.93359375
 10
675.17578125
 20
-2426.71875
 10
675.17578125
 20
-2436.50390625
 10
675.17578125
 20
-2446.2890625
 10
675.17578125
 20
-2456.07421875
 10
675.17578125
 20
-2465.859375
 10
684.9609375
 20
-2475.64453125
 10
675.17578125
 20
-2485.4296875
 10
675.17578125
 20
-2495.21484375
 10
675.17578125
 20
-2505.0
 10
684.9609375
 20
-2514.78515625
 10
675.17578125
 20
-2524.5703125
 10
675.17578125
 20
-2534.35546875
 10
675.17578125
 20
-2544.140625
 10
684.9609375
 20
-2553.92578125
 10
684.9609375
 20
-2563.7109375
 10
684.9609375
 20
-2573.49609375
 10
675.17578125
 20
-2583.28125
 10
684.9609375
 20
-2593.06640625
 10
684.9609375
 20
-2602.8515625
 10
675.17578125
 20
-2612.63671875
 10
675.17578125
 20
-2622.421875
 10
684.9609375
 20
-2632.20703125
 10
675.17578125
 20
-2641.9921875
 10
684.9609375
 20
-2651.77734375
 10
675.17578125
 20
-2661.5625
 10
684.9609375
 20
-2671.34765625
 10
675.17578125
 20
-2681.1328125
 10
675.17578125
 20
-2690.91796875
 10
675.17578125
 20
-2700.703125
 10
684.9609375
 20
-2710.48828125
 10
675.17578125
 20
-2720.2734375
 10
675.17578125
 20
-2730.05859375
 10
675.17578125
 20
-2739.84375
 10
684.9609375
 20
-2749.62890625
 10
675.17578125
 20
-2759.4140625
 10
675.17578125
 20
-2769.19921875
 10
675.17578125
 20
-2778.984375
 10
684.9609375
 20
-2788.76953125
 10
675.17578125
 20
-2798.5546875
 10
675.17578125
 20
-2808.33984375
 10
684.9609375
 20
-2818.125
 10
684.9609375
 20
-2827.91015625
 10
684.9609375
 20
-2837.6953125
 10
684.9609375
 20
-2847.48046875
 10
684.9609375
 20
-2857.265625
 10
684.9609375
 20
-2867.05078125
 10
675.17578125
 20
-2876.8359375
 10
675.17578125
 20
-2886.62109375
 10
675.17578125
 20
-2896.40625
 10
684.9609375
 20
-2906.19140625
 10
675.17578125
 20
-2915.9765625
 10
675.17578125
 20
-2925.76171875
 10
675.17578125
 20
-2935.546875
 10
684.9609375
 20
-2945.33203125
 10
675.17578125
 20
-2955.1171875
 10
675.17578125
 20
-2964.90234375
 10
675.17578125
 20
-2974.6875
 10
675.17578125
 20
-2984.47265625
 10
675.17578125
 20
-2994.2578125
 10
675.17578125
 20
-3004.04296875
 10
675.17578125
 20
-3013.828125
 10
684.9609375
 20
-3023.61328125
 10
684.9609375
 20
-3033.3984375
 10
675.17578125
 20
-3043.18359375
 10
675.17578125
 20
-3052.96875
 10
675.17578125
 20
-3062.75390625
 10
675.17578125
 20
-3072.5390625
 10
675.17578125
 20
-3082.32421875
 10
675.17578125
 20
-3092.109375
 10
684.9609375
 20
-3101.89453125
 10
675.17578125
 20
-3111.6796875
 10
684.9609375
 20
-3121.46484375
 10
694.74609375
 20
-3121.46484375
 10
704.53125
 20
-3121.46484375
 10
714.31640625
 20
-3121.46484375
 10
724.1015625
 20
-3121.46484375
 10
733.88671875
 20
-3121.46484375
 10
743.671875
 20
-3121.46484375
 10
753.45703125
 20
-3121.46484375
 10
763.2421875
 20
-3121.46484375
 10
773.02734375
 20
-3121.46484375
 10
782.8125
 20
-3121.46484375
 10
792.59765625
 20
-3121.46484375
 10
802.3828125
 20
-3121.46484375
 10
812.16796875
 20
-3121.46484375
 10
821.953125
 20
-3121.46484375
 10
831.73828125
 20
-3121.46484375
 10
841.5234375
 20
-3121.46484375
 10
851.30859375
 20
-3121.46484375
 10
861.09375
 20
-3121.46484375
 10
870.87890625
 20
-3121.46484375
 10
880.6640625
 20
-3121.46484375
 10
890.44921875
 20
-3121.46484375
 10
900.234375
 20
-3121.46484375
 10
910.01953125
 20
-3121.46484375
 10
919.8046875
 20
-3111.6796875
 10
929.58984375
 20
-3121.46484375
 10
939.375
 20
-3121.46484375
 10
949.16015625
 20
-3121.46484375
 10
958.9453125
 20
-3121.46484375
 10
968.73046875
 20
-3121.46484375
 10
978.515625
 20
-3121.46484375
 10
988.30078125
 20
-3121.46484375
 10
998.0859375
 20
-3121.46484375
 10
1007.87109375
 20
-3121.46484375
 10
1017.65625
 20
-3121.46484375
 10
1027.44140625
 20
-3121.46484375
 10
1037.2265625
 20
-3121.46484375
 10
1047.01171875
 20
-3121.46484375
 10
1056.796875
 20
-3121.46484375
 10
1066.58203125
 20
-3121.46484375
 10
1076.3671875
 20
-3121.46484375
 10
1086.15234375
 20
-3121.46484375
 10
1095.9375
 20
-3121.46484375
 10
1105.72265625
 20
-3121.46484375
 10
1115.5078125
 20
-3121.46484375
 10
1125.29296875
 20
-3121.46484375
 10
1135.078125
 20
-3121.46484375
 10
1144.86328125
 20
-3121.46484375
 10
1154.6484375
 20
-3121.46484375
 10
1164.43359375
 20
-3121.46484375
 10
1174.21875
 20
-3121.46484375
 10
1184.00390625
 20
-3121.46484375
 10
1193.7890625
 20
-3121.46484375
 10
1203.57421875
 20
-3121.46484375
 10
1213.359375
 20
-3121.46484375
 10
1223.14453125
 20
-3121.46484375
 10
1232.9296875
 20
-3121.46484375
 10
1242.71484375
 20
-3121.46484375
 10
1252.5
 20
-3121.46484375
 10
1262.28515625
 20
-3121.46484375
 10
1272.0703125
 20
-3121.46484375
 10
1281.85546875
 20
-3121.46484375
 10
1291.640625
 20
-3121.46484375
 10
1301.42578125
 20
-3121.46484375
 10
1311.2109375
 20
-3121.46484375
 10
1320.99609375
 20
-3121.46484375
 10
1330.78125
 20
-3121.46484375
 10
1340.56640625
 20
-3121.46484375
 10
1350.3515625
 20
-3121.46484375
 10
1360.13671875
 20
-3121.46484375
 10
1369.921875
 20
-3121.46484375
 10
1379.70703125
 20
-3121.46484375
 10
1389.4921875
 20
-3121.46484375
 10
1399.27734375
 20
-3121.46484375
 10
1409.0625
 20
-3121.46484375
 10
1418.84765625
 20
-3121.46484375
 10
1428.6328125
 20
-3121.46484375
 10
1438.41796875
 20
-3121.46484375
 10
1448.203125
 20
-3121.46484375
 10
1457.98828125
 20
-3121.46484375
 10
1467.7734375
 20
-3121.46484375
 10
1477.55859375
 20
-3121.46484375
 10
1487.34375
 20
-3121.46484375
 10
1497.12890625
 20
-3121.46484375
 10
1506.9140625
 20
-3121.46484375
 10
1516.69921875
 20
-3121.46484375
 10
1526.484375
 20
-3121.46484375
 10
1536.26953125
 20
-3121.46484375
 10
1546.0546875
 20
-3121.46484375
 10
1555.83984375
 20
-3121.46484375
 10
1565.625
 20
-3121.46484375
 10
1575.41015625
 20
-3121.46484375
 10
1585.1953125
 20
-3121.46484375
 10
1594.98046875
 20
-3121.46484375
 10
1604.765625
 20
-3121.46484375
 10
1614.55078125
 20
-3121.46484375
 10
1624.3359375
 20
-3121.46484375
 10
1634.12109375
 20
-3121.46484375
 10
1643.90625
 20
-3121.46484375
 10
1653.69140625
 20
-3121.46484375
 10
1663.4765625
 20
-3121.46484375
 10
1673.26171875
 20
-3121.46484375
 10
1683.046875
 20
-3121.46484375
 10
1692.83203125
 20
-3121.46484375
 10
1702.6171875
 20
-3121.46484375
 10
1712.40234375
 20
-3121.46484375
 10
1722.1875
 20
-3121.46484375
 10
1731.97265625
 20
-3121.46484375
 10
1741.7578125
 20
-3121.46484375
 10
1751.54296875
 20
-3121.46484375
 10
1761.328125
 20
-3121.46484375
 10
1771.11328125
 20
-3121.46484375
 10
1780.8984375
 20
-3121.46484375
 10
1790.68359375
 20
-3121.46484375
 10
1800.46875
 20
-3121.46484375
 10
1810.25390625
 20
-3121.46484375
 10
1820.0390625
 20
-3121.46484375
 10
1829.82421875
 20
-3121.46484375
 10
1839.609375
 20
-3121.46484375
 10
1849.39453125
 20
-3121.46484375
 10
1859.1796875
 20
-3121.46484375
 10
1868.96484375
 20
-3121.46484375
 10
1878.75
 20
-3131.25
 10
1878.75
 20
-3141.03515625
 10
1878.75
 20
-3150.8203125
 10
1878.75
 20
-3160.60546875
 10
1878.75
 20
-3170.390625
 10
1878.75
 20
-3180.17578125
 10
1878.75
 20
-3189.9609375
 10
1878.75
 20
-3199.74609375
 10
1878.75
 20
-3209.53125
 10
1878.75
 20
-3219.31640625
 10
1878.75
 20
-3229.1015625
 10
1878.75
 20
-3238.88671875
 10
1878.75
 20
-3248.671875
 10
1878.75
 20
-3258.45703125
 10
1878.75
 20
-3268.2421875
 10
1878.75
 20
-3278.02734375
 10
1878.75
 20
-3287.8125
 10
1878.75
 20
-3297.59765625
 10
1878.75
 20
-3307.3828125
 10
1878.75
 20
-3317.16796875
 10
1878.75
 20
-3326.953125
 10
1878.75
 20
-3336.73828125
 10
1878.75
 20
-3346.5234375
 10
1878.75
 20
-3356.30859375
 10
1878.75
 20
-3366.09375
 10
1878.75
 20
-3375.87890625
 10
1878.75
 20
-3385.6640625
 10
1878.75
 20
-3395.44921875
 10
1878.75
 20
-3405.234375
 10
1878.75
 20
-3415.01953125
 10
1878.75
 20
-3424.8046875
 10
1878.75
 20
-3434.58984375
 10
1878.75
 20
-3444.375
 10
1878.75
 20
-3454.16015625
 10
1868.96484375
 20
-3463.9453125
 10
1868.96484375
 20
-3473.73046875
 10
1878.75
 20
-3483.515625
 10
1878.75
 20
-3493.30078125
 10
1878.75
 20
-3503.0859375
 10
1878.75
 20
-3512.87109375
 10
1878.75
 20
-3522.65625
 10
1878.75
 20
-3532.44140625
 10
1878.75
 20
-3542.2265625
 10
1878.75
 20
-3552.01171875
 10
1878.75
 20
-3561.796875
 10
1878.75
 20
-3571.58203125
 10
1878.75
 20
-3581.3671875
 10
1878.75
 20
-3591.15234375
 10
1878.75
 20
-3600.9375
 10
1878.75
 20
-3610.72265625
 10
1878.75
 20
-3620.5078125
 10
1878.75
 20
-3630.29296875
 10
1878.75
 20
-3640.078125
 10
1878.75
 20
-3649.86328125
 10
1878.75
 20
-3659.6484375
 10
1878.75
 20
-3669.43359375
 10
1878.75
 20
-3679.21875
 10
1878.75
 20
-3689.00390625
 10
1878.75
 20
-3698.7890625
 10
1878.75
 20
-3708.57421875
 10
1878.75
 20
-3718.359375
 10
1878.75
 20
-3728.14453125
 10
1878.75
 20
-3737.9296875
 10
1878.75
 20
-3747.71484375
 10
1878.75
 20
-3757.5
 10
1878.75
 20
-3767.28515625
 10
1878.75
 20
-3777.0703125
 10
1878.75
 20
-3786.85546875
 10
1878.75
 20
-3796.640625
 10
1878.75
 20
-3806.42578125
 10
1878.75
 20
-3816.2109375
 10
1878.75
 20
-3825.99609375
 10
1878.75
 20
-3835.78125
 10
1878.75
 20
-3845.56640625
 10
1878.75
 20
-3855.3515625
 10
1878.75
 20
-3865.13671875
 10
1878.75
 20
-3874.921875
 10
1878.75
 20
-3884.70703125
 10
1878.75
 20
-3894.4921875
 10
1878.75
 20
-3904.27734375
 10
1878.75
 20
-3914.0625
 10
1878.75
 20
-3923.84765625
 10
1878.75
 20
-3933.6328125
 10
1878.75
 20
-3943.41796875
 10
1878.75
 20
-3953.203125
 10
1878.75
 20
-3962.98828125
 10
1878.75
 20
-3972.7734375
 10
1878.75
 20
-3982.55859375
 10
1878.75
 20
-3992.34375
 10
1878.75
 20
-4002.12890625
 10
1878.75
 20
-4011.9140625
 10
1878.75
 20
-4021.69921875
 10
1878.75
 20
-4031.484375
 10
1878.75
 20
-4041.26953125
 10
1878.75
 20
-4051.0546875
 10
1878.75
 20
-4060.83984375
 10
1878.75
 20
-4070.625
 10
1878.75
 20
-4080.41015625
 10
1878.75
 20
-4090.1953125
 10
1878.75
 20
-4099.98046875
 10
1878.75
 20
-4109.765625
 10
1878.75
 20
-4119.55078125
 10
1878.75
 20
-4129.3359375
 10
1878.75
 20
-4139.12109375
 10
1878.75
 20
-4148.90625
 10
1878.75
 20
-4158.69140625
 10
1878.75
 20
-4168.4765625
 10
1878.75
 20
-4178.26171875
 10
1878.75
 20
-4188.046875
 10
1878.75
 20
-4197.83203125
 10
1878.75
 20
-4207.6171875
 10
1878.75
 20
-4217.40234375
 10
1878.75
 20
-4227.1875
 10
1878.75
 20
-4236.97265625
 10
1878.75
 20
-4246.7578125
 10
1878.75
 20
-4256.54296875
 10
1878.75
 20
-4266.328125
 10
1878.75
 20
-4276.11328125
 10
1878.75
 20
-4285.8984375
 10
1878.75
 20
-4295.68359375
 10
1878.75
 20
-4305.46875
 10
1878.75
 20
-4315.25390625
 10
1888.53515625
 20
-4325.0390625
 10
1898.3203125
 20
-4325.0390625
 10
1908.10546875
 20
-4325.0390625
 10
1917.890625
 20
-4325.0390625
 10
1927.67578125
 20
-4325.0390625
 10
1937.4609375
 20
-4325.0390625
 10
1947.24609375
 20
-4325.0390625
 10
1957.03125
 20
-4325.0390625
 10
1966.81640625
 20
-4325.0390625
 10
1976.6015625
 20
-4325.0390625
 10
1986.38671875
 20
-4325.0390625
 10
1996.171875
 20
-4325.0390625
 10
2005.95703125
 20
-4325.0390625
 10
2015.7421875
 20
-4325.0390625
 10
2025.52734375
 20
-4325.0390625
 10
2035.3125
 20
-4325.0390625
 10
2045.09765625
 20
-4325.0390625
 10
2054.8828125
 20
-4325.0390625
 10
2064.66796875
 20
-4325.0390625
 10
2074.453125
 20
-4325.0390625
 10
2084.23828125
 20
-4325.0390625
 10
2094.0234375
 20
-4325.0390625
 10
2103.80859375
 20
-4325.0390625
 10
2113.59375
 20
-4325.0390625
 10
2123.37890625
 20
-4325.0390625
 10
2133.1640625
 20
-4325.0390625
 10
2142.94921875
 20
-4325.0390625
 10
2152.734375
 20
-4325.0390625
 10
2162.51953125
 20
-4325.0390625
 10
2172.3046875
 20
-4325.0390625
 10
2182.08984375
 20
-4325.0390625
 10
2191.875
 20
-4315.25390625
 10
2201.66015625
 20
-4325.0390625
 10
2211.4453125
 20
-4325.0390625
 10
2221.23046875
 20
-4325.0390625
 10
2231.015625
 20
-4325.0390625
 10
2240.80078125
 20
-4325.0390625
 10
2250.5859375
 20
-4325.0390625
 10
2260.37109375
 20
-4325.0390625
 10
2270.15625
 20
-4315.25390625
 10
2279.94140625
 20
-4325.0390625
 10
2289.7265625
 20
-4325.0390625
 10
2299.51171875
 20
-4325.0390625
 10
2309.296875
 20
-4315.25390625
 10
2319.08203125
 20
-4325.0390625
 10
2328.8671875
 20
-4325.0390625
 10
2338.65234375
 20
-4325.0390625
 10
2348.4375
 20
-4315.25390625
 10
2358.22265625
 20
-4325.0390625
 10
2368.0078125
 20
-4325.0390625
 10
2377.79296875
 20
-4325.0390625
 10
2387.578125
 20
-4325.0390625
 10
2397.36328125
 20
-4325.0390625
 10
2407.1484375
 20
-4325.0390625
 10
2416.93359375
 20
-4325.0390625
 10
2426.71875
 20
-4325.0390625
 10
2436.50390625
 20
-4325.0390625
 10
2446.2890625
 20
-4325.0390625
 10
2456.07421875
 20
-4325.0390625
 10
2465.859375
 20
-4325.0390625
 10
2475.64453125
 20
-4325.0390625
 10
2485.4296875
 20
-4325.0390625
 10
2495.21484375
 20
-4325.0390625
 10
2505.0
 20
-4325.0390625
 10
2514.78515625
 20
-4325.0390625
 10
2524.5703125
 20
-4325.0390625
 10
2534.35546875
 20
-4325.0390625
 10
2544.140625
 20
-4325.0390625
 10
2553.92578125
 20
-4325.0390625
 10
2563.7109375
 20
-4325.0390625
 10
2573.49609375
 20
-4325.0390625
 10
2583.28125
 20
-4325.0390625
 10
2593.06640625
 20
-4325.0390625
 10
2602.8515625
 20
-4325.0390625
 10
2612.63671875
 20
-4334.82421875
 10
2622.421875
 20
-4325.0390625
 10
2632.20703125
 20
-4325.0390625
 10
2641.9921875
 20
-4325.0390625
 10
2651.77734375
 20
-4325.0390625
 10
2661.5625
 20
-4325.0390625
 10
2671.34765625
 20
-4325.0390625
 10
2681.1328125
 20
-4325.0390625
 10
2690.91796875
 20
-4334.82421875
 10
2700.703125
 20
-4334.82421875
 10
2710.48828125
 20
-4325.0390625
 10
2720.2734375
 20
-4325.0390625
 10
2730.05859375
 20
-4325.0390625
 10
2739.84375
 20
-4334.82421875
 10
2749.62890625
 20
-4334.82421875
 10
2759.4140625
 20
-4334.82421875
 10
2769.19921875
 20
-4334.82421875
 10
2778.984375
 20
-4334.82421875
 10
2788.76953125
 20
-4325.0390625
 10
2798.5546875
 20
-4325.0390625
 10
2808.33984375
 20
-4325.0390625
 10
2818.125
 20
-4325.0390625
 10
2827.91015625
 20
-4325.0390625
 10
2837.6953125
 20
-4325.0390625
 10
2847.48046875
 20
-4325.0390625
 10
2857.265625
 20
-4325.0390625
 10
2867.05078125
 20
-4325.0390625
 10
2876.8359375
 20
-4325.0390625
 10
2886.62109375
 20
-4325.0390625
 10
2896.40625
 20
-4325.0390625
 10
2906.19140625
 20
-4325.0390625
 10
2915.9765625
 20
-4334.82421875
 10
2925.76171875
 20
-4334.82421875
 10
2935.546875
 20
-4325.0390625
 10
2945.33203125
 20
-4325.0390625
 10
2955.1171875
 20
-4325.0390625
 10
2964.90234375
 20
-4325.0390625
 10
2974.6875
 20
-4325.0390625
 10
2984.47265625
 20
-4325.0390625
 10
2994.2578125
 20
-4325.0390625
 10
3004.04296875
 20
-4325.0390625
 10
3013.828125
 20
-4325.0390625
 10
3023.61328125
 20
-4325.0390625
 10
3033.3984375
 20
-4325.0390625
 10
3043.18359375
 20
-4325.0390625
 10
3052.96875
 20
-4334.82421875
 10
3062.75390625
 20
-4334.82421875
 10
3072.5390625
 20
-4334.82421875
 10
3082.32421875
 20
-4334.82421875
 10
3092.109375
 20
-4334.82421875
 10
3101.89453125
 20
-4334.82421875
 10
3111.6796875
 20
-4334.82421875
 10
3121.46484375
 20
-4334.82421875
 10
3121.46484375
 20
-4325.0390625
 10
3121.46484375
 20
-4315.25390625
 10
3121.46484375
 20
-4305.46875
 10
3121.46484375
 20
-4295.68359375
 10
3121.46484375
 20
-4285.8984375
 10
3121.46484375
 20
-4276.11328125
 10
3121.46484375
 20
-4266.328125
 10
3121.46484375
 20
-4256.54296875
 10
3121.46484375
 20
-4246.7578125
 10
3121.46484375
 20
-4236.97265625
 10
3121.46484375
 20
-4227.1875
 10
3121.46484375
 20
-4217.40234375
 10
3121.46484375
 20
-4207.6171875
 10
3121.46484375
 20
-4197.83203125
 10
3121.46484375
 20
-4188.046875
 10
3121.46484375
 20
-4178.26171875
 10
3121.46484375
 20
-4168.4765625
 10
3121.46484375
 20
-4158.69140625
 10
3121.46484375
 20
-4148.90625
 10
3121.46484375
 20
-4139.12109375
 10
3121.46484375
 20
-4129.3359375
 10
3121.46484375
 20
-4119.55078125
 10
3121.46484375
 20
-4109.765625
 10
3121.46484375
 20
-4099.98046875
 10
3121.46484375
 20
-4090.1953125
 10
3121.46484375
 20
-4080.41015625
 10
3121.46484375
 20
-4070.625
 10
3121.46484375
 20
-4060.83984375
 10
3121.46484375
 20
-4051.0546875
 10
3121.46484375
 20
-4041.26953125
 10
3121.46484375
 20
-4031.484375
 10
3121.46484375
 20
-4021.69921875
 10
3121.46484375
 20
-4011.9140625
 10
3121.46484375
 20
-4002.12890625
 10
3121.46484375
 20
-3992.34375
 10
3121.46484375
 20
-3982.55859375
 10
3121.46484375
 20
-3972.7734375
 10
3121.46484375
 20
-3962.98828125
 10
3121.46484375
 20
-3953.203125
 10
3121.46484375
 20
-3943.41796875
 10
3121.46484375
 20
-3933.6328125
 10
3121.46484375
 20
-3923.84765625
 10
3121.46484375
 20
-3914.0625
 10
3121.46484375
 20
-3904.27734375
 10
3121.46484375
 20
-3894.4921875
 10
3121.46484375
 20
-3884.70703125
 10
3121.46484375
 20
-3874.921875
 10
3121.46484375
 20
-3865.13671875
 10
3121.46484375
 20
-3855.3515625
 10
3121.46484375
 20
-3845.56640625
 10
3121.46484375
 20
-3835.78125
 10
3121.46484375
 20
-3825.99609375
 10
3121.46484375
 20
-3816.2109375
 10
3121.46484375
 20
-3806.42578125
 10
3121.46484375
 20
-3796.640625
 10
3121.46484375
 20
-3786.85546875
 10
3121.46484375
 20
-3777.0703125
 10
3121.46484375
 20
-3767.28515625
 10
3121.46484375
 20
-3757.5
 10
3121.46484375
 20
-3747.71484375
 10
3121.46484375
 20
-3737.9296875
 10
3121.46484375
 20
-3728.14453125
 10
3121.46484375
 20
-3718.359375
 10
3121.46484375
 20
-3708.57421875
 10
3121.46484375
 20
-3698.7890625
 10
3121.46484375
 20
-3689.00390625
 10
3121.46484375
 20
-3679.21875
 10
3121.46484375
 20
-3669.43359375
 10
3121.46484375
 20
-3659.6484375
 10
3121.46484375
 20
-3649.86328125
 10
3121.46484375
 20
-3640.078125
 10
3121.46484375
 20
-3630.29296875
 10
3121.46484375
 20
-3620.5078125
 10
3121.46484375
 20
-3610.72265625
 10
3121.46484375
 20
-3600.9375
 10
3121.46484375
 20
-3591.15234375
 10
3121.46484375
 20
-3581.3671875
 10
3121.46484375
 20
-3571.58203125
 10
3121.46484375
 20
-3561.796875
 10
3121.46484375
 20
-3552.01171875
 10
3121.46484375
 20
-3542.2265625
 10
3121.46484375
 20
-3532.44140625
 10
3121.46484375
 20
-3522.65625
 10
3121.46484375
 20
-3512.87109375
 10
3121.46484375
 20
-3503.0859375
 10
3121.46484375
 20
-3493.30078125
 10
3121.46484375
 20
-3483.515625
 10
3121.46484375
 20
-3473.73046875
 10
3121.46484375
 20
-3463.9453125
 10
3121.46484375
 20
-3454.16015625
 10
3121.46484375
 20
-3444.375
 10
3121.46484375
 20
-3434.58984375
 10
3111.6796875
 20
-3424.8046875
 10
3111.6796875
 20
-3415.01953125
 10
3111.6796875
 20
-3405.234375
 10
3111.6796875
 20
-3395.44921875
 10
3121.46484375
 20
-3385.6640625
 10
3121.46484375
 20
-3375.87890625
 10
3121.46484375
 20
-3366.09375
 10
3121.46484375
 20
-3356.30859375
 10
3121.46484375
 20
-3346.5234375
 10
3121.46484375
 20
-3336.73828125
 10
3121.46484375
 20
-3326.953125
 10
3121.46484375
 20
-3317.16796875
 10
3111.6796875
 20
-3307.3828125
 10
3121.46484375
 20
-3297.59765625
 10
3111.6796875
 20
-3287.8125
 10
3121.46484375
 20
-3278.02734375
 10
3111.6796875
 20
-3268.2421875
 10
3121.46484375
 20
-3258.45703125
 10
3121.46484375
 20
-3248.671875
 10
3121.46484375
 20
-3238.88671875
 10
3121.46484375
 20
-3229.1015625
 10
3121.46484375
 20
-3219.31640625
 10
3121.46484375
 20
-3209.53125
 10
3121.46484375
 20
-3199.74609375
 10
3121.46484375
 20
-3189.9609375
 10
3121.46484375
 20
-3180.17578125
 10
3121.46484375
 20
-3170.390625
 10
3121.46484375
 20
-3160.60546875
 10
3111.6796875
 20
-3150.8203125
 10
3121.46484375
 20
-3141.03515625
 10
3121.46484375
 20
-3131.25
 10
3131.25
 20
-3121.46484375
 10
3141.03515625
 20
-3121.46484375
 10
3150.8203125
 20
-3121.46484375
 10
3160.60546875
 20
-3121.46484375
 10
3170.390625
 20
-3121.46484375
 10
3180.17578125
 20
-3121.46484375
 10
3189.9609375
 20
-3121.46484375
 10
3199.74609375
 20
-3121.46484375
 10
3209.53125
 20
-3121.46484375
 10
3219.31640625
 20
-3121.46484375
 10
3229.1015625
 20
-3121.46484375
 10
3238.88671875
 20
-3121.46484375
 10
3248.671875
 20
-3121.46484375
 10
3258.45703125
 20
-3121.46484375
 10
3268.2421875
 20
-3121.46484375
 10
3278.02734375
 20
-3121.46484375
 10
3287.8125
 20
-3121.46484375
 10
3297.59765625
 20
-3121.46484375
 10
3307.3828125
 20
-3121.46484375
 10
3317.16796875
 20
-3121.46484375
 10
3326.953125
 20
-3121.46484375
 10
3336.73828125
 20
-3121.46484375
 10
3346.5234375
 20
-3121.46484375
 10
3356.30859375
 20
-3121.46484375
 10
3366.09375
 20
-3121.46484375
 10
3375.87890625
 20
-3121.46484375
 10
3385.6640625
 20
-3121.46484375
 10
3395.44921875
 20
-3121.46484375
 10
3405.234375
 20
-3121.46484375
 10
3415.01953125
 20
-3121.46484375
 10
3424.8046875
 20
-3121.46484375
 10
3434.58984375
 20
-3121.46484375
 10
3444.375
 20
-3121.46484375
 10
3454.16015625
 20
-3121.46484375
 10
3463.9453125
 20
-3121.46484375
 10
3473.73046875
 20
-3121.46484375
 10
3483.515625
 20
-3121.46484375
 10
3493.30078125
 20
-3111.6796875
 10
3503.0859375
 20
-3111.6796875
 10
3512.87109375
 20
-3121.46484375
 10
3522.65625
 20
-3121.46484375
 10
3532.44140625
 20
-3121.46484375
 10
3542.2265625
 20
-3111.6796875
 10
3552.01171875
 20
-3121.46484375
 10
3561.796875
 20
-3121.46484375
 10
3571.58203125
 20
-3121.46484375
 10
3581.3671875
 20
-3121.46484375
 10
3591.15234375
 20
-3121.46484375
 10
3600.9375
 20
-3121.46484375
 10
3610.72265625
 20
-3121.46484375
 10
3620.5078125
 20
-3121.46484375
 10
3630.29296875
 20
-3121.46484375
 10
3640.078125
 20
-3121.46484375
 10
3649.86328125
 20
-3121.46484375
 10
3659.6484375
 20
-3121.46484375
 10
3669.43359375
 20
-3121.46484375
 10
3679.21875
 20
-3121.46484375
 10
3689.00390625
 20
-3121.46484375
 10
3698.7890625
 20
-3121.46484375
 10
3708.57421875
 20
-3121.46484375
 10
3718.359375
 20
-3121.46484375
 10
3728.14453125
 20
-3121.46484375
 10
3737.9296875
 20
-3121.46484375
 10
3747.71484375
 20
-3121.46484375
 10
3757.5
 20
-3121.46484375
 10
3767.28515625
 20
-3121.46484375
 10
3777.0703125
 20
-3121.46484375
 10
3786.85546875
 20
-3121.46484375
 10
3796.640625
 20
-3121.46484375
 10
3806.42578125
 20
-3111.6796875
 10
3816.2109375
 20
-3111.6796875
 10
3825.99609375
 20
-3121.46484375
 10
3835.78125
 20
-3121.46484375
 10
3845.56640625
 20
-3121.46484375
 10
3855.3515625
 20
-3121.46484375
 10
3865.13671875
 20
-3121.46484375
 10
3874.921875
 20
-3121.46484375
 10
3884.70703125
 20
-3121.46484375
 10
3894.4921875
 20
-3111.6796875
 10
3904.27734375
 20
-3121.46484375
 10
3914.0625
 20
-3121.46484375
 10
3923.84765625
 20
-3121.46484375
 10
3933.6328125
 20
-3121.46484375
 10
3943.41796875
 20
-3121.46484375
 10
3953.203125
 20
-3121.46484375
 10
3962.98828125
 20
-3121.46484375
 10
3972.7734375
 20
-3111.6796875
 10
3982.55859375
 20
-3121.46484375
 10
3992.34375
 20
-3121.46484375
 10
4002.12890625
 20
-3121.46484375
 10
4011.9140625
 20
-3121.46484375
 10
4021.69921875
 20
-3121.46484375
 10
4031.484375
 20
-3121.46484375
 10
4041.26953125
 20
-3121.46484375
 10
4051.0546875
 20
-3121.46484375
 10
4060.83984375
 20
-3121.46484375
 10
4070.625
 20
-3121.46484375
 10
4080.41015625
 20
-3121.46484375
 10
4090.1953125
 20
-3121.46484375
 10
4099.98046875
 20
-3121.46484375
 10
4109.765625
 20
-3121.46484375
 10
4119.55078125
 20
-3111.6796875
 10
4129.3359375
 20
-3111.6796875
 10
4139.12109375
 20
-3121.46484375
 10
4148.90625
 20
-3121.46484375
 10
4158.69140625
 20
-3121.46484375
 10
4168.4765625
 20
-3121.46484375
 10
4178.26171875
 20
-3121.46484375
 10
4188.046875
 20
-3121.46484375
 10
4197.83203125
 20
-3121.46484375
 10
4207.6171875
 20
-3111.6796875
 10
4217.40234375
 20
-3121.46484375
 10
4227.1875
 20
-3121.46484375
 10
4236.97265625
 20
-3121.46484375
 10
4246.7578125
 20
-3121.46484375
 10
4256.54296875
 20
-3121.46484375
 10
4266.328125
 20
-3121.46484375
 10
4276.11328125
 20
-3121.46484375
 10
4285.8984375
 20
-3121.46484375
 10
4295.68359375
 20
-3111.6796875
 10
4305.46875
 20
-3111.6796875
 10
4315.25390625
 20
-3101.89453125
 10
4315.25390625
 20
-3092.109375
 10
4315.25390625
 20
-3082.32421875
 10
4305.46875
 20
-3072.5390625
 10
4315.25390625
 20
-3062.75390625
 10
4315.25390625
 20
-3052.96875
 10
4315.25390625
 20
-3043.18359375
 10
4315.25390625
 20
-3033.3984375
 10
4315.25390625
 20
-3023.61328125
 10
4315.25390625
 20
-3013.828125
 10
4305.46875
 20
-3004.04296875
 10
4305.46875
 20
-2994.2578125
 10
4305.46875
 20
-2984.47265625
 10
4305.46875
 20
-2974.6875
 10
4305.46875
 20
-2964.90234375
 10
4305.46875
 20
-2955.1171875
 10
4305.46875
 20
-2945.33203125
 10
4305.46875
 20
-2935.546875
 10
4305.46875
 20
-2925.76171875
 10
4305.46875
 20
-2915.9765625
 10
4305.46875
 20
-2906.19140625
 10
4305.46875
 20
-2896.40625
 10
4305.46875
 20
-2886.62109375
 10
4305.46875
 20
-2876.8359375
 10
4305.46875
 20
-2867.05078125
 10
4305.46875
 20
-2857.265625
 10
4305.46875
 20
-2847.48046875
 10
4315.25390625
 20
-2837.6953125
 10
4305.46875
 20
-2827.91015625
 10
4305.46875
 20
-2818.125
 10
4305.46875
 20
-2808.33984375
 10
4305.46875
 20
-2798.5546875
 10
4305.46875
 20
-2788.76953125
 10
4305.46875
 20
-2778.984375
 10
4305.46875
 20
-2769.19921875
 10
4305.46875
 20
-2759.4140625
 10
4305.46875
 20
-2749.62890625
 10
4305.46875
 20
-2739.84375
 10
4305.46875
 20
-2730.05859375
 10
4305.46875
 20
-2720.2734375
 10
4305.46875
 20
-2710.48828125
 10
4305.46875
 20
-2700.703125
 10
4305.46875
 20
-2690.91796875
 10
4305.46875
 20
-2681.1328125
 10
4305.46875
 20
-2671.34765625
 10
4305.46875
 20
-2661.5625
 10
4305.46875
 20
-2651.77734375
 10
4305.46875
 20
-2641.9921875
 10
4305.46875
 20
-2632.20703125
 10
4305.46875
 20
-2622.421875
 10
4305.46875
 20
-2612.63671875
 10
4315.25390625
 20
-2602.8515625
 10
4305.46875
 20
-2593.06640625
 10
4315.25390625
 20
-2583.28125
 10
4315.25390625
 20
-2573.49609375
 10
4315.25390625
 20
-2563.7109375
 10
4305.46875
 20
-2553.92578125
 10
4305.46875
 20
-2544.140625
 10
4305.46875
 20
-2534.35546875
 10
4305.46875
 20
-2524.5703125
 10
4305.46875
 20
-2514.78515625
 10
4305.46875
 20
-2505.0
 10
4305.46875
 20
-2495.21484375
 10
4305.46875
 20
-2485.4296875
 10
4305.46875
 20
-2475.64453125
 10
4305.46875
 20
-2465.859375
 10
4305.46875
 20
-2456.07421875
 10
4305.46875
 20
-2446.2890625
 10
4305.46875
 20
-2436.50390625
 10
4305.46875
 20
-2426.71875
 10
4315.25390625
 20
-2416.93359375
 10
4305.46875
 20
-2407.1484375
 10
4305.46875
 20
-2397.36328125
 10
4305.46875
 20
-2387.578125
 10
4305.46875
 20
-2377.79296875
 10
4305.46875
 20
-2368.0078125
 10
4305.46875
 20
-2358.22265625
 10
4305.46875
 20
-2348.4375
 10
4315.25390625
 20
-2338.65234375
 10
4315.25390625
 20
-2328.8671875
 10
4315.25390625
 20
-2319.08203125
 10
4315.25390625
 20
-2309.296875
 10
4315.25390625
 20
-2299.51171875
 10
4315.25390625
 20
-2289.7265625
 10
4315.25390625
 20
-2279.94140625
 10
4315.25390625
 20
-2270.15625
 10
4315.25390625
 20
-2260.37109375
 10
4315.25390625
 20
-2250.5859375
 10
4305.46875
 20
-2240.80078125
 10
4315.25390625
 20
-2231.015625
 10
4315.25390625
 20
-2221.23046875
 10
4315.25390625
 20
-2211.4453125
 10
4315.25390625
 20
-2201.66015625
 10
4315.25390625
 20
-2191.875
 10
4315.25390625
 20
-2182.08984375
 10
4315.25390625
 20
-2172.3046875
 10
4315.25390625
 20
-2162.51953125
 10
4315.25390625
 20
-2152.734375
 10
4315.25390625
 20
-2142.94921875
 10
4305.46875
 20
-2133.1640625
 10
4315.25390625
 20
-2123.37890625
 10
4315.25390625
 20
-2113.59375
 10
4315.25390625
 20
-2103.80859375
 10
4305.46875
 20
-2094.0234375
 10
4305.46875
 20
-2084.23828125
 10
4305.46875
 20
-2074.453125
 10
4305.46875
 20
-2064.66796875
 10
4305.46875
 20
-2054.8828125
 10
4305.46875
 20
-2045.09765625
 10
4305.46875
 20
-2035.3125
 10
4305.46875
 20
-2025.52734375
 10
4305.46875
 20
-2015.7421875
 10
4305.46875
 20
-2005.95703125
 10
4305.46875
 20
-1996.171875
 10
4305.46875
 20
-1986.38671875
 10
4315.25390625
 20
-1976.6015625
 10
4305.46875
 20
-1966.81640625
 10
4315.25390625
 20
-1957.03125
 10
4315.25390625
 20
-1947.24609375
 10
4315.25390625
 20
-1937.4609375
 10
4315.25390625
 20
-1927.67578125
 10
4315.25390625
 20
-1917.890625
 10
4315.25390625
 20
-1908.10546875
 10
4315.25390625
 20
-1898.3203125
 10
4315.25390625
 20
-1888.53515625
 10
4305.46875
 20
-1878.75
 10
4295.68359375
 20
-1878.75
 10
4285.8984375
 20
-1878.75
 10
4276.11328125
 20
-1878.75
 10
4266.328125
 20
-1878.75
 10
4256.54296875
 20
-1878.75
 10
4246.7578125
 20
-1878.75
 10
4236.97265625
 20
-1878.75
 10
4227.1875
 20
-1878.75
 10
4217.40234375
 20
-1878.75
 10
4207.6171875
 20
-1878.75
 10
4197.83203125
 20
-1878.75
 10
4188.046875
 20
-1878.75
 10
4178.26171875
 20
-1888.53515625
 10
4168.4765625
 20
-1888.53515625
 10
4158.69140625
 20
-1878.75
 10
4148.90625
 20
-1878.75
 10
4139.12109375
 20
-1878.75
 10
4129.3359375
 20
-1878.75
 10
4119.55078125
 20
-1878.75
 10
4109.765625
 20
-1878.75
 10
4099.98046875
 20
-1878.75
 10
4090.1953125
 20
-1878.75
 10
4080.41015625
 20
-1888.53515625
 10
4070.625
 20
-1878.75
 10
4060.83984375
 20
-1878.75
 10
4051.0546875
 20
-1878.75
 10
4041.26953125
 20
-1878.75
 10
4031.484375
 20
-1878.75
 10
4021.69921875
 20
-1888.53515625
 10
4011.9140625
 20
-1878.75
 10
4002.12890625
 20
-1878.75
 10
3992.34375
 20
-1888.53515625
 10
3982.55859375
 20
-1878.75
 10
3972.7734375
 20
-1878.75
 10
3962.98828125
 20
-1888.53515625
 10
3953.203125
 20
-1878.75
 10
3943.41796875
 20
-1878.75
 10
3933.6328125
 20
-1878.75
 10
3923.84765625
 20
-1878.75
 10
3914.0625
 20
-1878.75
 10
3904.27734375
 20
-1878.75
 10
3894.4921875
 20
-1878.75
 10
3884.70703125
 20
-1878.75
 10
3874.921875
 20
-1878.75
 10
3865.13671875
 20
-1878.75
 10
3855.3515625
 20
-1878.75
 10
3845.56640625
 20
-1878.75
 10
3835.78125
 20
-1888.53515625
 10
3825.99609375
 20
-1888.53515625
 10
3816.2109375
 20
-1888.53515625
 10
3806.42578125
 20
-1888.53515625
 10
3796.640625
 20
-1888.53515625
 10
3786.85546875
 20
-1878.75
 10
3777.0703125
 20
-1878.75
 10
3767.28515625
 20
-1888.53515625
 10
3757.5
 20
-1878.75
 10
3747.71484375
 20
-1888.53515625
 10
3737.9296875
 20
-1888.53515625
 10
3728.14453125
 20
-1888.53515625
 10
3718.359375
 20
-1878.75
 10
3708.57421875
 20
-1888.53515625
 10
3698.7890625
 20
-1878.75
 10
3689.00390625
 20
-1878.75
 10
3679.21875
 20
-1878.75
 10
3669.43359375
 20
-1878.75
 10
3659.6484375
 20
-1878.75
 10
3649.86328125
 20
-1878.75
 10
3640.078125
 20
-1878.75
 10
3630.29296875
 20
-1878.75
 10
3620.5078125
 20
-1888.53515625
 10
3610.72265625
 20
-1878.75
 10
3600.9375
 20
-1878.75
 10
3591.15234375
 20
-1878.75
 10
3581.3671875
 20
-1878.75
 10
3571.58203125
 20
-1878.75
 10
3561.796875
 20
-1878.75
 10
3552.01171875
 20
-1888.53515625
 10
3542.2265625
 20
-1888.53515625
 10
3532.44140625
 20
-1888.53515625
 10
3522.65625
 20
-1878.75
 10
3512.87109375
 20
-1878.75
 10
3503.0859375
 20
-1878.75
 10
3493.30078125
 20
-1878.75
 10
3483.515625
 20
-1878.75
 10
3473.73046875
 20
-1878.75
 10
3463.9453125
 20
-1878.75
 10
3454.16015625
 20
-1878.75
 10
3444.375
 20
-1878.75
 10
3434.58984375
 20
-1878.75
 10
3424.8046875
 20
-1878.75
 10
3415.01953125
 20
-1878.75
 10
3405.234375
 20
-1878.75
 10
3395.44921875
 20
-1878.75
 10
3385.6640625
 20
-1878.75
 10
3375.87890625
 20
-1878.75
 10
3366.09375
 20
-1878.75
 10
3356.30859375
 20
-1878.75
 10
3346.5234375
 20
-1878.75
 10
3336.73828125
 20
-1878.75
 10
3326.953125
 20
-1878.75
 10
3317.16796875
 20
-1878.75
 10
3307.3828125
 20
-1878.75
 10
3297.59765625
 20
-1878.75
 10
3287.8125
 20
-1888.53515625
 10
3278.02734375
 20
-1878.75
 10
3268.2421875
 20
-1878.75
 10
3258.45703125
 20
-1878.75
 10
3248.671875
 20
-1878.75
 10
3238.88671875
 20
-1878.75
 10
3229.1015625
 20
-1878.75
 10
3219.31640625
 20
-1878.75
 10
3209.53125
 20
-1878.75
 10
3199.74609375
 20
-1878.75
 10
3189.9609375
 20
-1878.75
 10
3180.17578125
 20
-1878.75
 10
3170.390625
 20
-1878.75
 10
3160.60546875
 20
-1878.75
 10
3150.8203125
 20
-1878.75
 10
3141.03515625
 20
-1878.75
 10
3131.25
 20
-1868.96484375
 10
3121.46484375
 20
-1859.1796875
 10
3121.46484375
 20
-1849.39453125
 10
3121.46484375
 20
-1839.609375
 10
3121.46484375
 20
-1829.82421875
 10
3121.46484375
 20
-1820.0390625
 10
3121.46484375
 20
-1810.25390625
 10
3121.46484375
 20
-1800.46875
 10
3121.46484375
 20
-1790.68359375
 10
3121.46484375
 20
-1780.8984375
 10
3121.46484375
 20
-1771.11328125
 10
3121.46484375
 20
-1761.328125
 10
3121.46484375
 20
-1751.54296875
 10
3121.46484375
 20
-1741.7578125
 10
3121.46484375
 20
-1731.97265625
 10
3121.46484375
 20
-1722.1875
 10
3121.46484375
 20
-1712.40234375
 10
3121.46484375
 20
-1702.6171875
 10
3121.46484375
 20
-1692.83203125
 10
3121.46484375
 20
-1683.046875
 10
3121.46484375
 20
-1673.26171875
 10
3121.46484375
 20
-1663.4765625
 10
3121.46484375
 20
-1653.69140625
 10
3121.46484375
 20
-1643.90625
 10
3121.46484375
 20
-1634.12109375
 10
3121.46484375
 20
-1624.3359375
 10
3121.46484375
 20
-1614.55078125
 10
3121.46484375
 20
-1604.765625
 10
3121.46484375
 20
-1594.98046875
 10
3121.46484375
 20
-1585.1953125
 10
3121.46484375
 20
-1575.41015625
 10
3121.46484375
 20
-1565.625
 10
3121.46484375
 20
-1555.83984375
 10
3121.46484375
 20
-1546.0546875
 10
3121.46484375
 20
-1536.26953125
 10
3121.46484375
 20
-1526.484375
 10
3121.46484375
 20
-1516.69921875
 10
3121.46484375
 20
-1506.9140625
 10
3121.46484375
 20
-1497.12890625
 10
3121.46484375
 20
-1487.34375
 10
3121.46484375
 20
-1477.55859375
 10
3121.46484375
 20
-1467.7734375
 10
3121.46484375
 20
-1457.98828125
 10
3121.46484375
 20
-1448.203125
 10
3121.46484375
 20
-1438.41796875
 10
3121.46484375
 20
-1428.6328125
 10
3121.46484375
 20
-1418.84765625
 10
3121.46484375
 20
-1409.0625
 10
3121.46484375
 20
-1399.27734375
 10
3121.46484375
 20
-1389.4921875
 10
3121.46484375
 20
-1379.70703125
 10
3121.46484375
 20
-1369.921875
 10
3121.46484375
 20
-1360.13671875
 10
3121.46484375
 20
-1350.3515625
 10
3121.46484375
 20
-1340.56640625
 10
3121.46484375
 20
-1330.78125
 10
3121.46484375
 20
-1320.99609375
 10
3121.46484375
 20
-1311.2109375
 10
3121.46484375
 20
-1301.42578125
 10
3121.46484375
 20
-1291.640625
 10
3121.46484375
 20
-1281.85546875
 10
3121.46484375
 20
-1272.0703125
 10
3121.46484375
 20
-1262.28515625
 10
3121.46484375
 20
-1252.5
 10
3121.46484375
 20
-1242.71484375
 10
3121.46484375
 20
-1232.9296875
 10
3121.46484375
 20
-1223.14453125
 10
3121.46484375
 20
-1213.359375
 10
3121.46484375
 20
-1203.57421875
 10
3121.46484375
 20
-1193.7890625
 10
3121.46484375
 20
-1184.00390625
 10
3121.46484375
 20
-1174.21875
 10
3121.46484375
 20
-1164.43359375
 10
3121.46484375
 20
-1154.6484375
 10
3121.46484375
 20
-1144.86328125
 10
3121.46484375
 20
-1135.078125
 10
3121.46484375
 20
-1125.29296875
 10
3121.46484375
 20
-1115.5078125
 10
3121.46484375
 20
-1105.72265625
 10
3121.46484375
 20
-1095.9375
 10
3121.46484375
 20
-1086.15234375
 10
3121.46484375
 20
-1076.3671875
 10
3121.46484375
 20
-1066.58203125
 10
3121.46484375
 20
-1056.796875
 10
3121.46484375
 20
-1047.01171875
 10
3121.46484375
 20
-1037.2265625
 10
3121.46484375
 20
-1027.44140625
 10
3121.46484375
 20
-1017.65625
 10
3121.46484375
 20
-1007.87109375
 10
3121.46484375
 20
-998.0859375
 10
3121.46484375
 20
-988.30078125
 10
3121.46484375
 20
-978.515625
 10
3121.46484375
 20
-968.73046875
 10
3121.46484375
 20
-958.9453125
 10
3121.46484375
 20
-949.16015625
 10
3121.46484375
 20
-939.375
 10
3121.46484375
 20
-929.58984375
 10
3121.46484375
 20
-919.8046875
 10
3121.46484375
 20
-910.01953125
 10
3121.46484375
 20
-900.234375
 10
3121.46484375
 20
-890.44921875
 10
3121.46484375
 20
-880.6640625
 10
3121.46484375
 20
-870.87890625
 10
3121.46484375
 20
-861.09375
 10
3121.46484375
 20
-851.30859375
 10
3121.46484375
 20
-841.5234375
 10
3121.46484375
 20
-831.73828125
 10
3121.46484375
 20
-821.953125
 10
3121.46484375
 20
-812.16796875
 10
3121.46484375
 20
-802.3828125
 10
3121.46484375
 20
-792.59765625
 10
3121.46484375
 20
-782.8125
 10
3121.46484375
 20
-773.02734375
 10
3121.46484375
 20
-763.2421875
 10
3121.46484375
 20
-753.45703125
 10
3121.46484375
 20
-743.671875
 10
3121.46484375
 20
-733.88671875
 10
3121.46484375
 20
-724.1015625
 10
3121.46484375
 20
-714.31640625
 10
3121.46484375
 20
-704.53125
 10
3121.46484375
 20
-694.74609375
 10
3131.25
 20
-684.9609375
  0
LWPOLYLINE
  5
33
330
17
100
AcDbEntity
  8
conductor
100
AcDbPolyline
 90
17
 70
1
 43
0.5
 10
2593.06640625
 20
-3865.13671875
 10
2602.8515625
 20
-3855.3515625
 10
2612.63671875
 20
-3865.13671875
 10
2622.421875
 20
-3865.13671875
 10
2632.20703125
 20
-3874.921875
 10
2641.9921875
 20
-3884.70703125
 10
2641.9921875
 20
-3894.4921875
 10
2641.9921875
 20
-3904.27734375
 10
2632.20703125
 20
-3914.0625
 10
2622.421875
 20
-3923.84765625
 10
2612.63671875
 20
-3923.84765625
 10
2602.8515625
 20
-3923.84765625
 10
2593.06640625
 20
-3914.0625
 10
2593.06640625
 20
-3904.27734375
 10
2583.28125
 20
-3894.4921875
 10
2593.06640625
 20
-3884.70703125
 10
2593.06640625
 20
-3874.921875
  0
LWPOLYLINE
  5
34
330
17
100
AcDbEntity
  8
conductor
100
AcDbPolyline
 90
4
 70
1
 43
0.5
 10
1497.12890625
 20
-2955.1171875
 10
1506.9140625
 20
-2945.33203125
 10
1516.69921875
 20
-2955.1171875
 10
1506.9140625
 20
-2964.90234375
  0
LWPOLYLINE
  5
35
330
17
100
AcDbEntity
  8
conductor
100
AcDbPolyline
 90
4
 70
1
 43
0.5
 10
2906.19140625
 20
-2485.4296875
 10
2915.9765625
 20
-2475.64453125
 10
2925.76171875
 20
-2485.4296875
 10
2915.9765625
 20
-2495.21484375
  0
LWPOLYLINE
  5
36
330
17
100
AcDbEntity
  8
conductor
100
AcDbPolyline
 90
4
 70
1
 43
0.5
 10
2906.19140625
 20
-2328.8671875
 10
2915.9765625
 20
-2319.08203125
 10
2925.76171875
 20
-2328.8671875
 10
2915.9765625
 20
-2338.65234375
  0
LWPOLYLINE
  5
37
330
17
100
AcDbEntity
  8
substrate
100
AcDbPolyline
 90
2044
 70
1
 43
0.5
 10
0.0
 20
-0.0
 10
0.0
 20
-9.78515625
 10
0.0
 20
-19.5703125
 10
0.0
 20
-29.35546875
 10
0.0
 20
-39.140625
 10
0.0
 20
-48.92578125
 10
0.0
 20
-58.7109375
 10
0.0
 20
-68.49609375
 10
0.0
 20
-78.28125
 10
0.0
 20
-88.06640625
 10
0.0
 20
-97.8515625
 10
0.0
 20
-107.63671875
 10
0.0
 20
-117.421875
 10
0.0
 20
-127.20703125
 10
0.0
 20
-136.9921875
 10
0.0
 20
-146.77734375
 10
0.0
 20
-156.5625
 10
0.0
 20
-166.34765625
 10
0.0
 20
-176.1328125
 10
0.0
 20
-185.91796875
 10
0.0
 20
-195.703125
 10
0.0
 20
-205.48828125
 10
0.0
 20
-215.2734375
 10
0.0
 20
-225.05859375
 10
0.0
 20
-234.84375
 10
0.0
 20
-244.62890625
 10
0.0
 20
-254.4140625
 10
0.0
 20
-264.19921875
 10
0.0
 20
-273.984375
 10
0.0
 20
-283.76953125
 10
0.0
 20
-293.5546875
 10
0.0
 20
-303.33984375
 10
0.0
 20
-313.125
 10
0.0
 20
-322.91015625
 10
0.0
 20
-332.6953125
 10
0.0
 20
-342.48046875
 10
0.0
 20
-352.265625
 10
0.0
 20
-362.05078125
 10
0.0
 20
-371.8359375
 10
0.0
 20
-381.62109375
 10
0.0
 20
-391.40625
 10
0.0
 20
-401.19140625
 10
0.0
 20
-410.9765625
 10
0.0
 20
-420.76171875
 10
0.0
 20
-430.546875
 10
0.0
 20
-440.33203125
 10
0.0
 20
-450.1171875
 10
0.0
 20
-459.90234375
 10
0.0
 20
-469.6875
 10
0.0
 20
-479.47265625
 10
0.0
 20
-489.2578125
 10
0.0
 20
-499.04296875
 10
0.0
 20
-508.828125
 10
0.0
 20
-518.61328125
 10
0.0
 20
-528.3984375
 10
0.0
 20
-538.18359375
 10
0.0
 20
-547.96875
 10
0.0
 20
-557.75390625
 10
0.0
 20
-567.5390625
 10
0.0
 20
-577.32421875
 10
0.0
 20
-587.109375
 10
0.0
 20
-596.89453125
 10
0.0
 20
-606.6796875
 10
0.0
 20
-616.46484375
 10
0.0
 20
-626.25
 10
0.0
 20
-636.03515625
 10
0.0
 20
-645.8203125
 10
0.0
 20
-655.60546875
 10
0.0
 20
-665.390625
 10
0.0
 20
-675.17578125
 10
0.0
 20
-684.9609375
 10
0.0
 20
-694.74609375
 10
0.0
 20
-704.53125
 10
0.0
 20
-714.31640625
 10
0.0
 20
-724.1015625
 10
0.0
 20
-733.88671875
 10
0.0
 20
-743.671875
 10
0.0
 20
-753.45703125
 10
0.0
 20
-763.2421875
 10
0.0
 20
-773.02734375
 10
0.0
 20
-782.8125
 10
0.0
 20
-792.59765625
 10
0.0
 20
-802.3828125
 10
0.0
 20
-812.16796875
 10
0.0
 20
-821.953125
 10
0.0
 20
-831.73828125
 10
0.0
 20
-841.5234375
 10
0.0
 20
-851.30859375
 10
0.0
 20
-861.09375
 10
0.0
 20
-870.87890625
 10
0.0
 20
-880.6640625
 10
0.0
 20
-890.44921875
 10
0.0
 20
-900.234375
 10
0.0
 20
-910.01953125
 10
0.0
 20
-919.8046875
 10
0.0
 20
-929.58984375
 10
0.0
 20
-939.375
 10
0.0
 20
-949.16015625
 10
0.0
 20
-958.9453125
 10
0.0
 20
-968.73046875
 10
0.0
 20
-978.515625
 10
0.0
 20
-988.30078125
 10
0.0
 20
-998.0859375
 10
0.0
 20
-1007.87109375
 10
0.0
 20
-1017.65625
 10
0.0
 20
-1027.44140625
 10
0.0
 20
-1037.2265625
 10
0.0
 20
-1047.01171875
 10
0.0
 20
-1056.796875
 10
0.0
 20
-1066.58203125
 10
0.0
 20
-1076.3671875
 10
0.0
 20
-1086.15234375
 10
0.0
 20
-1095.9375
 10
0.0
 20
-1105.72265625
 10
0.0
 20
-1115.5078125
 10
0.0
 20
-1125.29296875
 10
0.0
 20
-1135.078125
 10
0.0
 20
-1144.86328125
 10
0.0
 20
-1154.6484375
 10
0.0
 20
-1164.43359375
 10
0.0
 20
-1174.21875
 10
0.0
 20
-1184.00390625
 10
0.0
 20
-1193.7890625
 10
0.0
 20
-1203.57421875
 10
0.0
 20
-1213.359375
 10
0.0
 20
-1223.14453125
 10
0.0
 20
-1232.9296875
 10
0.0
 20
-1242.71484375
 10
0.0
 20
-1252.5
 10
0.0
 20
-1262.28515625
 10
0.0
 20
-1272.0703125
 10
0.0
 20
-1281.85546875
 10
0.0
 20
-1291.640625
 10
0.0
 20
-1301.42578125
 10
0.0
 20
-1311.2109375
 10
0.0
 20
-1320.99609375
 10
0.0
 20
-1330.78125
 10
0.0
 20
-1340.56640625
 10
0.0
 20
-1350.3515625
 10
0.0
 20
-1360.13671875
 10
0.0
 20
-1369.921875
 10
0.0
 20
-1379.70703125
 10
0.0
 20
-1389.4921875
 10
0.0
 20
-1399.27734375
 10
0.0
 20
-1409.0625
 10
0.0
 20
-1418.84765625
 10
0.0
 20
-1428.6328125
 10
0.0
 20
-1438.41796875
 10
0.0
 20
-1448.203125
 10
0.0
 20
-1457.98828125
 10
0.0
 20
-1467.7734375
 10
0.0
 20
-1477.55859375
 10
0.0
 20
-1487.34375
 10
0.0
 20
-1497.12890625
 10
0.0
 20
-1506.9140625
 10
0.0
 20
-1516.69921875
 10
0.0
 20
-1526.484375
 10
0.0
 20
-1536.26953125
 10
0.0
 20
-1546.0546875
 10
0.0
 20
-1555.83984375
 10
0.0
 20
-1565.625
 10
0.0
 20
-1575.41015625
 10
0.0
 20
-1585.1953125
 10
0.0
 20
-1594.98046875
 10
0.0
 20
-1604.765625
 10
0.0
 20
-1614.55078125
 10
0.0
 20
-1624.3359375
 10
0.0
 20
-1634.12109375
 10
0.0
 20
-1643.90625
 10
0.0
 20
-1653.69140625
 10
0.0
 20
-1663.4765625
 10
0.0
 20
-1673.26171875
 10
0.0
 20
-1683.046875
 10
0.0
 20
-1692.83203125
 10
0.0
 20
-1702.6171875
 10
0.0
 20
-1712.40234375
 10
0.0
 20
-1722.1875
 10
0.0
 20
-1731.97265625
 10
0.0
 20
-1741.7578125
 10
0.0
 20
-1751.54296875
 10
0.0
 20
-1761.328125
 10
0.0
 20
-1771.11328125
 10
0.0
 20
-1780.8984375
 10
0.0
 20
-1790.68359375
 10
0.0
 20
-1800.46875
 10
0.0
 20
-1810.25390625
 10
0.0
 20
-1820.0390625
 10
0.0
 20
-1829.82421875
 10
0.0
 20
-1839.609375
 10
0.0
 20
-1849.39453125
 10
0.0
 20
-1859.1796875
 10
0.0
 20
-1868.96484375
 10
0.0
 20
-1878.75
 10
0.0
 20
-1888.53515625
 10
0.0
 20
-1898.3203125
 10
0.0
 20
-1908.10546875
 10
0.0
 20
-1917.890625
 10
0.0
 20
-1927.67578125
 10
0.0
 20
-1937.4609375
 10
0.0
 20
-1947.24609375
 10
0.0
 20
-1957.03125
 10
0.0
 20
-1966.81640625
 10
0.0
 20
-1976.6015625
 10
0.0
 20
-1986.38671875
 10
0.0
 20
-1996.171875
 10
0.0
 20
-2005.95703125
 10
0.0
 20
-2015.7421875
 10
0.0
 20
-2025.52734375
 10
0.0
 20
-2035.3125
 10
0.0
 20
-2045.09765625
 10
0.0
 20
-2054.8828125
 10
0.0
 20
-2064.66796875
 10
0.0
 20
-2074.453125
 10
0.0
 20
-2084.23828125
 10
0.0
 20
-2094.0234375
 10
0.0
 20
-2103.80859375
 10
0.0
 20
-2113.59375
 10
0.0
 20
-2123.37890625
 10
0.0
 20
-2133.1640625
 10
0.0
 20
-2142.94921875
 10
0.0
 20
-2152.734375
 10
0.0
 20
-2162.51953125
 10
0.0
 20
-2172.3046875
 10
0.0
 20
-2182.08984375
 10
0.0
 20
-2191.875
 10
0.0
 20
-2201.66015625
 10
0.0
 20
-2211.4453125
 10
0.0
 20
-2221.23046875
 10
0.0
 20
-2231.015625
 10
0.0
 20
-2240.80078125
 10
0.0
 20
-2250.5859375
 10
0.0
 20
-2260.37109375
 10
0.0
 20
-2270.15625
 10
0.0
 20
-2279.94140625
 10
0.0
 20
-2289.7265625
 10
0.0
 20
-2299.51171875
 10
0.0
 20
-2309.296875
 10
0.0
 20
-2319.08203125
 10
0.0
 20
-2328.8671875
 10
0.0
 20
-2338.65234375
 10
0.0
 20
-2348.4375
 10
0.0
 20
-2358.22265625
 10
0.0
 20
-2368.0078125
 10
0.0
 20
-2377.79296875
 10
0.0
 20
-2387.578125
 10
0.0
 20
-2397.36328125
 10
0.0
 20
-2407.1484375
 10
0.0
 20
-2416.93359375
 10
0.0
 20
-2426.71875
 10
0.0
 20
-2436.50390625
 10
0.0
 20
-2446.2890625
 10
0.0
 20
-2456.07421875
 10
0.0
 20
-2465.859375
 10
0.0
 20
-2475.64453125
 10
0.0
 20
-2485.4296875
 10
0.0
 20
-2495.21484375
 10
0.0
 20
-2505.0
 10
0.0
 20
-2514.78515625
 10
0.0
 20
-2524.5703125
 10
0.0
 20
-2534.35546875
 10
0.0
 20
-2544.140625
 10
0.0
 20
-2553.92578125
 10
0.0
 20
-2563.7109375
 10
0.0
 20
-2573.49609375
 10
0.0
 20
-2583.28125
 10
0.0
 20
-2593.06640625
 10
0.0
 20
-2602.8515625
 10
0.0
 20
-2612.63671875
 10
0.0
 20
-2622.421875
 10
0.0
 20
-2632.20703125
 10
0.0
 20
-2641.9921875
 10
0.0
 20
-2651.77734375
 10
0.0
 20
-2661.5625
 10
0.0
 20
-2671.34765625
 10
0.0
 20
-2681.1328125
 10
0.0
 20
-2690.91796875
 10
0.0
 20
-2700.703125
 10
0.0
 20
-2710.48828125
 10
0.0
 20
-2720.2734375
 10
0.0
 20
-2730.05859375
 10
0.0
 20
-2739.84375
 10
0.0
 20
-2749.62890625
 10
0.0
 20
-2759.4140625
 10
0.0
 20
-2769.19921875
 10
0.0
 20
-2778.984375
 10
0.0
 20
-2788.76953125
 10
0.0
 20
-2798.5546875
 10
0.0
 20
-2808.33984375
 10
0.0
 20
-2818.125
 10
0.0
 20
-2827.91015625
 10
0.0
 20
-2837.6953125
 10
0.0
 20
-2847.48046875
 10
0.0
 20
-2857.265625
 10
0.0
 20
-2867.05078125
 10
0.0
 20
-2876.8359375
 10
0.0
 20
-2886.62109375
 10
0.0
 20
-2896.40625
 10
0.0
 20
-2906.19140625
 10
0.0
 20
-2915.9765625
 10
0.0
 20
-2925.76171875
 10
0.0
 20
-2935.546875
 10
0.0
 20
-2945.33203125
 10
0.0
 20
-2955.1171875
 10
0.0
 20
-2964.90234375
 10
0.0
 20
-2974.6875
 10
0.0
 20
-2984.47265625
 10
0.0
 20
-2994.2578125
 10
0.0
 20
-3004.04296875
 10
0.0
 20
-3013.828125
 10
0.0
 20
-3023.61328125
 10
0.0
 20
-3033.3984375
 10
0.0
 20
-3043.18359375
 10
0.0
 20
-3052.96875
 10
0.0
 20
-3062.75390625
 10
0.0
 20
-3072.5390625
 10
0.0
 20
-3082.32421875
 10
0.0
 20
-3092.109375
 10
0.0
 20
-3101.89453125
 10
0.0
 20
-3111.6796875
 10
0.0
 20
-3121.46484375
 10
0.0
 20
-3131.25
 10
0.0
 20
-3141.03515625
 10
0.0
 20
-3150.8203125
 10
0.0
 20
-3160.60546875
 10
0.0
 20
-3170.390625
 10
0.0
 20
-3180.17578125
 10
0.0
 20
-3189.9609375
 10
0.0
 20
-3199.74609375
 10
0.0
 20
-3209.53125
 10
0.0
 20
-3219.31640625
 10
0.0
 20
-3229.1015625
 10
0.0
 20
-3238.88671875
 10
0.0
 20
-3248.671875
 10
0.0
 20
-3258.45703125
 10
0.0
 20
-3268.2421875
 10
0.0
 20
-3278.02734375
 10
0.0
 20
-3287.8125
 10
0.0
 20
-3297.59765625
 10
0.0
 20
-3307.3828125
 10
0.0
 20
-3317.16796875
 10
0.0
 20
-3326.953125
 10
0.0
 20
-3336.73828125
 10
0.0
 20
-3346.5234375
 10
0.0
 20
-3356.30859375
 10
0.0
 20
-3366.09375
 10
0.0
 20
-3375.87890625
 10
0.0
 20
-3385.6640625
 10
0.0
 20
-3395.44921875
 10
0.0
 20
-3405.234375
 10
0.0
 20
-3415.01953125
 10
0.0
 20
-3424.8046875
 10
0.0
 20
-3434.58984375
 10
0.0
 20
-3444.375
 10
0.0
 20
-3454.16015625
 10
0.0
 20
-3463.9453125
 10
0.0
 20
-3473.73046875
 10
0.0
 20
-3483.515625
 10
0.0
 20
-3493.30078125
 10
0.0
 20
-3503.0859375
 10
0.0
 20
-3512.87109375
 10
0.0
 20
-3522.65625
 10
0.0
 20
-3532.44140625
 10
0.0
 20
-3542.2265625
 10
0.0
 20
-3552.01171875
 10
0.0
 20
-3561.796875
 10
0.0
 20
-3571.58203125
 10
0.0
 20
-3581.3671875
 10
0.0
 20
-3591.15234375
 10
0.0
 20
-3600.9375
 10
0.0
 20
-3610.72265625
 10
0.0
 20
-3620.5078125
 10
0.0
 20
-3630.29296875
 10
0.0
 20
-3640.078125
 10
0.0
 20
-3649.86328125
 10
0.0
 20
-3659.6484375
 10
0.0
 20
-3669.43359375
 10
0.0
 20
-3679.21875
 10
0.0
 20
-3689.00390625
 10
0.0
 20
-3698.7890625
 10
0.0
 20
-3708.57421875
 10
0.0
 20
-3718.359375
 10
0.0
 20
-3728.14453125
 10
0.0
 20
-3737.9296875
 10
0.0
 20
-3747.71484375
 10
0.0
 20
-3757.5
 10
0.0
 20
-3767.28515625
 10
0.0
 20
-3777.0703125
 10
0.0
 20
-3786.85546875
 10
0.0
 20
-3796.640625
 10
0.0
 20
-3806.42578125
 10
0.0
 20
-3816.2109375
 10
0.0
 20
-3825.99609375
 10
0.0
 20
-3835.78125
 10
0.0
 20
-3845.56640625
 10
0.0
 20
-3855.3515625
 10
0.0
 20
-3865.13671875
 10
0.0
 20
-3874.921875
 10
0.0
 20
-3884.70703125
 10
0.0
 20
-3894.4921875
 10
0.0
 20
-3904.27734375
 10
0.0
 20
-3914.0625
 10
0.0
 20
-3923.84765625
 10
0.0
 20
-3933.6328125
 10
0.0
 20
-3943.41796875
 10
0.0
 20
-3953.203125
 10
0.0
 20
-3962.98828125
 10
0.0
 20
-3972.7734375
 10
0.0
 20
-3982.55859375
 10
0.0
 20
-3992.34375
 10
0.0
 20
-4002.12890625
 10
0.0
 20
-4011.9140625
 10
0.0
 20
-4021.69921875
 10
0.0
 20
-4031.484375
 10
0.0
 20
-4041.26953125
 10
0.0
 20
-4051.0546875
 10
0.0
 20
-4060.83984375
 10
0.0
 20
-4070.625
 10
0.0
 20
-4080.41015625
 10
0.0
 20
-4090.1953125
 10
0.0
 20
-4099.98046875
 10
0.0
 20
-4109.765625
 10
0.0
 20
-4119.55078125
 10
0.0
 20
-4129.3359375
 10
0.0
 20
-4139.12109375
 10
0.0
 20
-4148.90625
 10
0.0
 20
-4158.69140625
 10
0.0
 20
-4168.4765625
 10
0.0
 20
-4178.26171875
 10
0.0
 20
-4188.046875
 10
0.0
 20
-4197.83203125
 10
0.0
 20
-4207.6171875
 10
0.0
 20
-4217.40234375
 10
0.0
 20
-4227.1875
 10
0.0
 20
-4236.97265625
 10
0.0
 20
-4246.7578125
 10
0.0
 20
-4256.54296875
 10
0.0
 20
-4266.328125
 10
0.0
 20
-4276.11328125
 10
0.0
 20
-4285.8984375
 10
0.0
 20
-4295.68359375
 10
0.0
 20
-4305.46875
 10
0.0
 20
-4315.25390625
 10
0.0
 20
-4325.0390625
 10
0.0
 20
-4334.82421875
 10
0.0
 20
-4344.609375
 10
0.0
 20
-4354.39453125
 10
0.0
 20
-4364.1796875
 10
0.0
 20
-4373.96484375
 10
0.0
 20
-4383.75
 10
0.0
 20
-4393.53515625
 10
0.0
 20
-4403.3203125
 10
0.0
 20
-4413.10546875
 10
0.0
 20
-4422.890625
 10
0.0
 20
-4432.67578125
 10
0.0
 20
-4442.4609375
 10
0.0
 20
-4452.24609375
 10
0.0
 20
-4462.03125
 10
0.0
 20
-4471.81640625
 10
0.0
 20
-4481.6015625
 10
0.0
 20
-4491.38671875
 10
0.0
 20
-4501.171875
 10
0.0
 20
-4510.95703125
 10
0.0
 20
-4520.7421875
 10
0.0
 20
-4530.52734375
 10
0.0
 20
-4540.3125
 10
0.0
 20
-4550.09765625
 10
0.0
 20
-4559.8828125
 10
0.0
 20
-4569.66796875
 10
0.0
 20
-4579.453125
 10
0.0
 20
-4589.23828125
 10
0.0
 20
-4599.0234375
 10
0.0
 20
-4608.80859375
 10
0.0
 20
-4618.59375
 10
0.0
 20
-4628.37890625
 10
0.0
 20
-4638.1640625
 10
0.0
 20
-4647.94921875
 10
0.0
 20
-4657.734375
 10
0.0
 20
-4667.51953125
 10
0.0
 20
-4677.3046875
 10
0.0
 20
-4687.08984375
 10
0.0
 20
-4696.875
 10
0.0
 20
-4706.66015625
 10
0.0
 20
-4716.4453125
 10
0.0
 20
-4726.23046875
 10
0.0
 20
-4736.015625
 10
0.0
 20
-4745.80078125
 10
0.0
 20
-4755.5859375
 10
0.0
 20
-4765.37109375
 10
0.0
 20
-4775.15625
 10
0.0
 20
-4784.94140625
 10
0.0
 20
-4794.7265625
 10
0.0
 20
-4804.51171875
 10
0.0
 20
-4814.296875
 10
0.0
 20
-4824.08203125
 10
0.0
 20
-4833.8671875
 10
0.0
 20
-4843.65234375
 10
0.0
 20
-4853.4375
 10
0.0
 20
-4863.22265625
 10
0.0
 20
-4873.0078125
 10
0.0
 20
-4882.79296875
 10
0.0
 20
-4892.578125
 10
0.0
 20
-4902.36328125
 10
0.0
 20
-4912.1484375
 10
0.0
 20
-4921.93359375
 10
0.0
 20
-4931.71875
 10
0.0
 20
-4941.50390625
 10
0.0
 20
-4951.2890625
 10
0.0
 20
-4961.07421875
 10
0.0
 20
-4970.859375
 10
0.0
 20
-4980.64453125
 10
0.0
 20
-4990.4296875
 10
0.0
 20
-5000.21484375
 10
9.78515625
 20
-5000.21484375
 10
19.5703125
 20
-5000.21484375
 10
29.35546875
 20
-5000.21484375
 10
39.140625
 20
-5000.21484375
 10
48.92578125
 20
-5000.21484375
 10
58.7109375
 20
-5000.21484375
 10
68.49609375
 20
-5000.21484375
 10
78.28125
 20
-5000.21484375
 10
88.06640625
 20
-5000.21484375
 10
97.8515625
 20
-5000.21484375
 10
107.63671875
 20
-5000.21484375
 10
117.421875
 20
-5000.21484375
 10
127.20703125
 20
-5000.21484375
 10
136.9921875
 20
-5000.21484375
 10
146.77734375
 20
-5000.21484375
 10
156.5625
 20
-5000.21484375
 10
166.34765625
 20
-5000.21484375
 10
176.1328125
 20
-5000.21484375
 10
185.91796875
 20
-5000.21484375
 10
195.703125
 20
-5000.21484375
 10
205.48828125
 20
-5000.21484375
 10
215.2734375
 20
-5000.21484375
 10
225.05859375
 20
-5000.21484375
 10
234.84375
 20
-5000.21484375
 10
244.62890625
 20
-5000.21484375
 10
254.4140625
 20
-5000.21484375
 10
264.19921875
 20
-5000.21484375
 10
273.984375
 20
-5000.21484375
 10
283.76953125
 20
-5000.21484375
 10
293.5546875
 20
-5000.21484375
 10
303.33984375
 20
-5000.21484375
 10
313.125
 20
-5000.21484375
 10
322.91015625
 20
-5000.21484375
 10
332.6953125
 20
-5000.21484375
 10
342.48046875
 20
-5000.21484375
 10
352.265625
 20
-5000.21484375
 10
362.05078125
 20
-5000.21484375
 10
371.8359375
 20
-5000.21484375
 10
381.62109375
 20
-5000.21484375
 10
391.40625
 20
-5000.21484375
 10
401.19140625
 20
-5000.21484375
 10
410.9765625
 20
-5000.21484375
 10
420.76171875
 20
-5000.21484375
 10
430.546875
 20
-5000.21484375
 10
440.33203125
 20
-5000.21484375
 10
450.1171875
 20
-5000.21484375
 10
459.90234375
 20
-5000.21484375
 10
469.6875
 20
-5000.21484375
 10
479.47265625
 20
-5000.21484375
 10
489.2578125
 20
-5000.21484375
 10
499.04296875
 20
-5000.21484375
 10
508.828125
 20
-5000.21484375
 10
518.61328125
 20
-5000.21484375
 10
528.3984375
 20
-5000.21484375
 10
538.18359375
 20
-5000.21484375
 10
547.96875
 20
-5000.21484375
 10
557.75390625
 20
-5000.21484375
 10
567.5390625
 20
-5000.21484375
 10
577.32421875
 20
-5000.21484375
 10
587.109375
 20
-5000.21484375
 10
596.89453125
 20
-5000.21484375
 10
606.6796875
 20
-5000.21484375
 10
616.46484375
 20
-5000.21484375
 10
626.25
 20
-5000.21484375
 10
636.03515625
 20
-5000.21484375
 10
645.8203125
 20
-5000.21484375
 10
655.60546875
 20
-5000.21484375
 10
665.390625
 20
-5000.21484375
 10
675.17578125
 20
-5000.21484375
 10
684.9609375
 20
-5000.21484375
 10
694.74609375
 20
-5000.21484375
 10
704.53125
 20
-5000.21484375
 10
714.31640625
 20
-5000.21484375
 10
724.1015625
 20
-5000.21484375
 10
733.88671875
 20
-5000.21484375
 10
743.671875
 20
-5000.21484375
 10
753.45703125
 20
-5000.21484375
 10
763.2421875
 20
-5000.21484375
 10
773.02734375
 20
-5000.21484375
 10
782.8125
 20
-5000.21484375
 10
792.59765625
 20
-5000.21484375
 10
802.3828125
 20
-5000.21484375
 10
812.16796875
 20
-5000.21484375
 10
821.953125
 20
-5000.21484375
 10
831.73828125
 20
-5000.21484375
 10
841.5234375
 20
-5000.21484375
 10
851.30859375
 20
-5000.21484375
 10
861.09375
 20
-5000.21484375
 10
870.87890625
 20
-5000.21484375
 10
880.6640625
 20
-5000.21484375
 10
890.44921875
 20
-5000.21484375
 10
900.234375
 20
-5000.21484375
 10
910.01953125
 20
-5000.21484375
 10
919.8046875
 20
-5000.21484375
 10
929.58984375
 20
-5000.21484375
 10
939.375
 20
-5000.21484375
 10
949.16015625
 20
-5000.21484375
 10
958.9453125
 20
-5000.21484375
 10
968.73046875
 20
-5000.21484375
 10
978.515625
 20
-5000.21484375
 10
988.30078125
 20
-5000.21484375
 10
998.0859375
 20
-5000.21484375
 10
1007.87109375
 20
-5000.21484375
 10
1017.65625
 20
-5000.21484375
 10
1027.44140625
 20
-5000.21484375
 10
1037.2265625
 20
-5000.21484375
 10
1047.01171875
 20
-5000.21484375
 10
1056.796875
 20
-5000.21484375
 10
1066.58203125
 20
-5000.21484375
 10
1076.3671875
 20
-5000.21484375
 10
1086.15234375
 20
-5000.21484375
 10
1095.9375
 20
-5000.21484375
 10
1105.72265625
 20
-5000.21484375
 10
1115.5078125
 20
-5000.21484375
 10
1125.29296875
 20
-5000.21484375
 10
1135.078125
 20
-5000.21484375
 10
1144.86328125
 20
-5000.21484375
 10
1154.6484375
 20
-5000.21484375
 10
1164.43359375
 20
-5000.21484375
 10
1174.21875
 20
-5000.21484375
 10
1184.00390625
 20
-5000.21484375
 10
1193.7890625
 20
-5000.21484375
 10
1203.57421875
 20
-5000.21484375
 10
1213.359375
 20
-5000.21484375
 10
1223.14453125
 20
-5000.21484375
 10
1232.9296875
 20
-5000.21484375
 10
1242.71484375
 20
-5000.21484375
 10
1252.5
 20
-5000.21484375
 10
1262.28515625
 20
-5000.21484375
 10
1272.0703125
 20
-5000.21484375
 10
1281.85546875
 20
-5000.21484375
 10
1291.640625
 20
-5000.21484375
 10
1301.42578125
 20
-5000.21484375
 10
1311.2109375
 20
-5000.21484375
 10
1320.99609375
 20
-5000.21484375
 10
1330.78125
 20
-5000.21484375
 10
1340.56640625
 20
-5000.21484375
 10
1350.3515625
 20
-5000.21484375
 10
1360.13671875
 20
-5000.21484375
 10
1369.921875
 20
-5000.21484375
 10
1379.70703125
 20
-5000.21484375
 10
1389.4921875
 20
-5000.21484375
 10
1399.27734375
 20
-5000.21484375
 10
1409.0625
 20
-5000.21484375
 10
1418.84765625
 20
-5000.21484375
 10
1428.6328125
 20
-5000.21484375
 10
1438.41796875
 20
-5000.21484375
 10
1448.203125
 20
-5000.21484375
 10
1457.98828125
 20
-5000.21484375
 10
1467.7734375
 20
-5000.21484375
 10
1477.55859375
 20
-5000.21484375
 10
1487.34375
 20
-5000.21484375
 10
1497.12890625
 20
-5000.21484375
 10
1506.9140625
 20
-5000.21484375
 10
1516.69921875
 20
-5000.21484375
 10
1526.484375
 20
-5000.21484375
 10
1536.26953125
 20
-5000.21484375
 10
1546.0546875
 20
-5000.21484375
 10
1555.83984375
 20
-5000.21484375
 10
1565.625
 20
-5000.21484375
 10
1575.41015625
 20
-5000.21484375
 10
1585.1953125
 20
-5000.21484375
 10
1594.98046875
 20
-5000.21484375
 10
1604.765625
 20
-5000.21484375
 10
1614.55078125
 20
-5000.21484375
 10
1624.3359375
 20
-5000.21484375
 10
1634.12109375
 20
-5000.21484375
 10
1643.90625
 20
-5000.21484375
 10
1653.69140625
 20
-5000.21484375
 10
1663.4765625
 20
-5000.21484375
 10
1673.26171875
 20
-5000.21484375
 10
1683.046875
 20
-5000.21484375
 10
1692.83203125
 20
-5000.21484375
 10
1702.6171875
 20
-5000.21484375
 10
1712.40234375
 20
-5000.21484375
 10
1722.1875
 20
-5000.21484375
 10
1731.97265625
 20
-5000.21484375
 10
1741.7578125
 20
-5000.21484375
 10
1751.54296875
 20
-5000.21484375
 10
1761.328125
 20
-5000.21484375
 10
1771.11328125
 20
-5000.21484375
 10
1780.8984375
 20
-5000.21484375
 10
1790.68359375
 20
-5000.21484375
 10
1800.46875
 20
-5000.21484375
 10
1810.25390625
 20
-5000.21484375
 10
1820.0390625
 20
-5000.21484375
 10
1829.82421875
 20
-5000.21484375
 10
1839.609375
 20
-5000.21484375
 10
1849.39453125
 20
-5000.21484375
 10
1859.1796875
 20
-5000.21484375
 10
1868.96484375
 20
-5000.21484375
 10
1878.75
 20
-5000.21484375
 10
1888.53515625
 20
-5000.21484375
 10
1898.3203125
 20
-5000.21484375
 10
1908.10546875
 20
-5000.21484375
 10
1917.890625
 20
-5000.21484375
 10
1927.67578125
 20
-5000.21484375
 10
1937.4609375
 20
-5000.21484375
 10
1947.24609375
 20
-5000.21484375
 10
1957.03125
 20
-5000.21484375
 10
1966.81640625
 20
-5000.21484375
 10
1976.6015625
 20
-5000.21484375
 10
1986.38671875
 20
-5000.21484375
 10
1996.171875
 20
-5000.21484375
 10
2005.95703125
 20
-5000.21484375
 10
2015.7421875
 20
-5000.21484375
 10
2025.52734375
 20
-5000.21484375
 10
2035.3125
 20
-5000.21484375
 10
2045.09765625
 20
-5000.21484375
 10
2054.8828125
 20
-5000.21484375
 10
2064.66796875
 20
-5000.21484375
 10
2074.453125
 20
-5000.21484375
 10
2084.23828125
 20
-5000.21484375
 10
2094.0234375
 20
-5000.21484375
 10
2103.80859375
 20
-5000.21484375
 10
2113.59375
 20
-5000.21484375
 10
2123.37890625
 20
-5000.21484375
 10
2133.1640625
 20
-5000.21484375
 10
2142.94921875
 20
-5000.21484375
 10
2152.734375
 20
-5000.21484375
 10
2162.51953125
 20
-5000.21484375
 10
2172.3046875
 20
-5000.21484375
 10
2182.08984375
 20
-5000.21484375
 10
2191.875
 20
-5000.21484375
 10
2201.66015625
 20
-5000.21484375
 10
2211.4453125
 20
-5000.21484375
 10
2221.23046875
 20
-5000.21484375
 10
2231.015625
 20
-5000.21484375
 10
2240.80078125
 20
-5000.21484375
 10
2250.5859375
 20
-5000.21484375
 10
2260.37109375
 20
-5000.21484375
 10
2270.15625
 20
-5000.21484375
 10
2279.94140625
 20
-5000.21484375
 10
2289.7265625
 20
-5000.21484375
 10
2299.51171875
 20
-5000.21484375
 10
2309.296875
 20
-5000.21484375
 10
2319.08203125
 20
-5000.21484375
 10
2328.8671875
 20
-5000.21484375
 10
2338.65234375
 20
-5000.21484375
 10
2348.4375
 20
-5000.21484375
 10
2358.22265625
 20
-5000.21484375
 10
2368.0078125
 20
-5000.21484375
 10
2377.79296875
 20
-5000.21484375
 10
2387.578125
 20
-5000.21484375
 10
2397.36328125
 20
-5000.21484375
 10
2407.1484375
 20
-5000.21484375
 10
2416.93359375
 20
-5000.21484375
 10
2426.71875
 20
-5000.21484375
 10
2436.50390625
 20
-5000.21484375
 10
2446.2890625
 20
-5000.21484375
 10
2456.07421875
 20
-5000.21484375
 10
2465.859375
 20
-5000.21484375
 10
2475.64453125
 20
-5000.21484375
 10
2485.4296875
 20
-5000.21484375
 10
2495.21484375
 20
-5000.21484375
 10
2505.0
 20
-5000.21484375
 10
2514.78515625
 20
-5000.21484375
 10
2524.5703125
 20
-5000.21484375
 10
2534.35546875
 20
-5000.21484375
 10
2544.140625
 20
-5000.21484375
 10
2553.92578125
 20
-5000.21484375
 10
2563.7109375
 20
-5000.21484375
 10
2573.49609375
 20
-5000.21484375
 10
2583.28125
 20
-5000.21484375
 10
2593.06640625
 20
-5000.21484375
 10
2602.8515625
 20
-5000.21484375
 10
2612.63671875
 20
-5000.21484375
 10
2622.421875
 20
-5000.21484375
 10
2632.20703125
 20
-5000.21484375
 10
2641.9921875
 20
-5000.21484375
 10
2651.77734375
 20
-5000.21484375
 10
2661.5625
 20
-5000.21484375
 10
2671.34765625
 20
-5000.21484375
 10
2681.1328125
 20
-5000.21484375
 10
2690.91796875
 20
-5000.21484375
 10
2700.703125
 20
-5000.21484375
 10
2710.48828125
 20
-5000.21484375
 10
2720.2734375
 20
-5000.21484375
 10
2730.05859375
 20
-5000.21484375
 10
2739.84375
 20
-5000.21484375
 10
2749.62890625
 20
-5000.21484375
 10
2759.4140625
 20
-5000.21484375
 10
2769.19921875
 20
-5000.21484375
 10
2778.984375
 20
-5000.21484375
 10
2788.76953125
 20
-5000.21484375
 10
2798.5546875
 20
-5000.21484375
 10
2808.33984375
 20
-5000.21484375
 10
2818.125
 20
-5000.21484375
 10
2827.91015625
 20
-5000.21484375
 10
2837.6953125
 20
-5000.21484375
 10
2847.48046875
 20
-5000.21484375
 10
2857.265625
 20
-5000.21484375
 10
2867.05078125
 20
-5000.21484375
 10
2876.8359375
 20
-5000.21484375
 10
2886.62109375
 20
-5000.21484375
 10
2896.40625
 20
-5000.21484375
 10
2906.19140625
 20
-5000.21484375
 10
2915.9765625
 20
-5000.21484375
 10
2925.76171875
 20
-5000.21484375
 10
2935.546875
 20
-5000.21484375
 10
2945.33203125
 20
-5000.21484375
 10
2955.1171875
 20
-5000.21484375
 10
2964.90234375
 20
-5000.21484375
 10
2974.6875
 20
-5000.21484375
 10
2984.47265625
 20
-5000.21484375
 10
2994.2578125
 20
-5000.21484375
 10
3004.04296875
 20
-5000.21484375
 10
3013.828125
 20
-5000.21484375
 10
3023.61328125
 20
-5000.21484375
 10
3033.3984375
 20
-5000.21484375
 10
3043.18359375
 20
-5000.21484375
 10
3052.96875
 20
-5000.21484375
 10
3062.75390625
 20
-5000.21484375
 10
3072.5390625
 20
-5000.21484375
 10
3082.32421875
 20
-5000.21484375
 10
3092.109375
 20
-5000.21484375
 10
3101.89453125
 20
-5000.21484375
 10
3111.6796875
 20
-5000.21484375
 10
3121.46484375
 20
-5000.21484375
 10
3131.25
 20
-5000.21484375
 10
3141.03515625
 20
-5000.21484375
 10
3150.8203125
 20
-5000.21484375
 10
3160.60546875
 20
-5000.21484375
 10
3170.390625
 20
-5000.21484375
 10
3180.17578125
 20
-5000.21484375
 10
3189.9609375
 20
-5000.21484375
 10
3199.74609375
 20
-5000.21484375
 10
3209.53125
 20
-5000.21484375
 10
3219.31640625
 20
-5000.21484375
 10
3229.1015625
 20
-5000.21484375
 10
3238.88671875
 20
-5000.21484375
 10
3248.671875
 20
-5000.21484375
 10
3258.45703125
 20
-5000.21484375
 10
3268.2421875
 20
-5000.21484375
 10
3278.02734375
 20
-5000.21484375
 10
3287.8125
 20
-5000.21484375
 10
3297.59765625
 20
-5000.21484375
 10
3307.3828125
 20
-5000.21484375
 10
3317.16796875
 20
-5000.21484375
 10
3326.953125
 20
-5000.21484375
 10
3336.73828125
 20
-5000.21484375
 10
3346.5234375
 20
-5000.21484375
 10
3356.30859375
 20
-5000.21484375
 10
3366.09375
 20
-5000.21484375
 10
3375.87890625
 20
-5000.21484375
 10
3385.6640625
 20
-5000.21484375
 10
3395.44921875
 20
-5000.21484375
 10
3405.234375
 20
-5000.21484375
 10
3415.01953125
 20
-5000.21484375
 10
3424.8046875
 20
-5000.21484375
 10
3434.58984375
 20
-5000.21484375
 10
3444.375
 20
-5000.21484375
 10
3454.16015625
 20
-5000.21484375
 10
3463.9453125
 20
-5000.21484375
 10
3473.73046875
 20
-5000.21484375
 10
3483.515625
 20
-5000.21484375
 10
3493.30078125
 20
-5000.21484375
 10
3503.0859375
 20
-5000.21484375
 10
3512.87109375
 20
-5000.21484375
 10
3522.65625
 20
-5000.21484375
 10
3532.44140625
 20
-5000.21484375
 10
3542.2265625
 20
-5000.21484375
 10
3552.01171875
 20
-5000.21484375
 10
3561.796875
 20
-5000.21484375
 10
3571.58203125
 20
-5000.21484375
 10
3581.3671875
 20
-5000.21484375
 10
3591.15234375
 20
-5000.21484375
 10
3600.9375
 20
-5000.21484375
 10
3610.72265625
 20
-5000.21484375
 10
3620.5078125
 20
-5000.21484375
 10
3630.29296875
 20
-5000.21484375
 10
3640.078125
 20
-5000.21484375
 10
3649.86328125
 20
-5000.21484375
 10
3659.6484375
 20
-5000.21484375
 10
3669.43359375
 20
-5000.21484375
 10
3679.21875
 20
-5000.21484375
 10
3689.00390625
 20
-5000.21484375
 10
3698.7890625
 20
-5000.21484375
 10
3708.57421875
 20
-5000.21484375
 10
3718.359375
 20
-5000.21484375
 10
3728.14453125
 20
-5000.21484375
 10
3737.9296875
 20
-5000.21484375
 10
3747.71484375
 20
-5000.21484375
 10
3757.5
 20
-5000.21484375
 10
3767.28515625
 20
-5000.21484375
 10
3777.0703125
 20
-5000.21484375
 10
3786.85546875
 20
-5000.21484375
 10
3796.640625
 20
-5000.21484375
 10
3806.42578125
 20
-5000.21484375
 10
3816.2109375
 20
-5000.21484375
 10
3825.99609375
 20
-5000.21484375
 10
3835.78125
 20
-5000.21484375
 10
3845.56640625
 20
-5000.21484375
 10
3855.3515625
 20
-5000.21484375
 10
3865.13671875
 20
-5000.21484375
 10
3874.921875
 20
-5000.21484375
 10
3884.70703125
 20
-5000.21484375
 10
3894.4921875
 20
-5000.21484375
 10
3904.27734375
 20
-5000.21484375
 10
3914.0625
 20
-5000.21484375
 10
3923.84765625
 20
-5000.21484375
 10
3933.6328125
 20
-5000.21484375
 10
3943.41796875
 20
-5000.21484375
 10
3953.203125
 20
-5000.21484375
 10
3962.98828125
 20
-5000.21484375
 10
3972.7734375
 20
-5000.21484375
 10
3982.55859375
 20
-5000.21484375
 10
3992.34375
 20
-5000.21484375
 10
4002.12890625
 20
-5000.21484375
 10
4011.9140625
 20
-5000.21484375
 10
4021.69921875
 20
-5000.21484375
 10
4031.484375
 20
-5000.21484375
 10
4041.26953125
 20
-5000.21484375
 10
4051.0546875
 20
-5000.21484375
 10
4060.83984375
 20
-5000.21484375
 10
4070.625
 20
-5000.21484375
 10
4080.41015625
 20
-5000.21484375
 10
4090.1953125
 20
-5000.21484375
 10
4099.98046875
 20
-5000.21484375
 10
4109.765625
 20
-5000.21484375
 10
4119.55078125
 20
-5000.21484375
 10
4129.3359375
 20
-5000.21484375
 10
4139.12109375
 20
-5000.21484375
 10
4148.90625
 20
-5000.21484375
 10
4158.69140625
 20
-5000.21484375
 10
4168.4765625
 20
-5000.21484375
 10
4178.26171875
 20
-5000.21484375
 10
4188.046875
 20
-5000.21484375
 10
4197.83203125
 20
-5000.21484375
 10
4207.6171875
 20
-5000.21484375
 10
4217.40234375
 20
-5000.21484375
 10
4227.1875
 20
-5000.21484375
 10
4236.97265625
 20
-5000.21484375
 10
4246.7578125
 20
-5000.21484375
 10
4256.54296875
 20
-5000.21484375
 10
4266.328125
 20
-5000.21484375
 10
4276.11328125
 20
-5000.21484375
 10
4285.8984375
 20
-5000.21484375
 10
4295.68359375
 20
-5000.21484375
 10
4305.46875
 20
-5000.21484375
 10
4315.25390625
 20
-5000.21484375
 10
4325.0390625
 20
-5000.21484375
 10
4334.82421875
 20
-5000.21484375
 10
4344.609375
 20
-5000.21484375
 10
4354.39453125
 20
-5000.21484375
 10
4364.1796875
 20
-5000.21484375
 10
4373.96484375
 20
-5000.21484375
 10
4383.75
 20
-5000.21484375
 10
4393.53515625
 20
-5000.21484375
 10
4403.3203125
 20
-5000.21484375
 10
4413.10546875
 20
-5000.21484375
 10
4422.890625
 20
-5000.21484375
 10
4432.67578125
 20
-5000.21484375
 10
4442.4609375
 20
-5000.21484375
 10
4452.24609375
 20
-5000.21484375
 10
4462.03125
 20
-5000.21484375
 10
4471.81640625
 20
-5000.21484375
 10
4481.6015625
 20
-5000.21484375
 10
4491.38671875
 20
-5000.21484375
 10
4501.171875
 20
-5000.21484375
 10
4510.95703125
 20
-5000.21484375
 10
4520.7421875
 20
-5000.21484375
 10
4530.52734375
 20
-5000.21484375
 10
4540.3125
 20
-5000.21484375
 10
4550.09765625
 20
-5000.21484375
 10
4559.8828125
 20
-5000.21484375
 10
4569.66796875
 20
-5000.21484375
 10
4579.453125
 20
-5000.21484375
 10
4589.23828125
 20
-5000.21484375
 10
4599.0234375
 20
-5000.21484375
 10
4608.80859375
 20
-5000.21484375
 10
4618.59375
 20
-5000.21484375
 10
4628.37890625
 20
-5000.21484375
 10
4638.1640625
 20
-5000.21484375
 10
4647.94921875
 20
-5000.21484375
 10
4657.734375
 20
-5000.21484375
 10
4667.51953125
 20
-5000.21484375
 10
4677.3046875
 20
-5000.21484375
 10
4687.08984375
 20
-5000.21484375
 10
4696.875
 20
-5000.21484375
 10
4706.66015625
 20
-5000.21484375
 10
4716.4453125
 20
-5000.21484375
 10
4726.23046875
 20
-5000.21484375
 10
4736.015625
 20
-5000.21484375
 10
4745.80078125
 20
-5000.21484375
 10
4755.5859375
 20
-5000.21484375
 10
4765.37109375
 20
-5000.21484375
 10
4775.15625
 20
-5000.21484375
 10
4784.94140625
 20
-5000.21484375
 10
4794.7265625
 20
-5000.21484375
 10
4804.51171875
 20
-5000.21484375
 10
4814.296875
 20
-5000.21484375
 10
4824.08203125
 20
-5000.21484375
 10
4833.8671875
 20
-5000.21484375
 10
4843.65234375
 20
-5000.21484375
 10
4853.4375
 20
-5000.21484375
 10
4863.22265625
 20
-5000.21484375
 10
4873.0078125
 20
-5000.21484375
 10
4882.79296875
 20
-5000.21484375
 10
4892.578125
 20
-5000.21484375
 10
4902.36328125
 20
-5000.21484375
 10
4912.1484375
 20
-5000.21484375
 10
4921.93359375
 20
-5000.21484375
 10
4931.71875
 20
-5000.21484375
 10
4941.50390625
 20
-5000.21484375
 10
4951.2890625
 20
-5000.21484375
 10
4961.07421875
 20
-5000.21484375
 10
4970.859375
 20
-5000.21484375
 10
4980.64453125
 20
-5000.21484375
 10
4990.4296875
 20
-5000.21484375
 10
5000.21484375
 20
-5000.21484375
 10
5000.21484375
 20
-4990.4296875
 10
5000.21484375
 20
-4980.64453125
 10
5000.21484375
 20
-4970.859375
 10
5000.21484375
 20
-4961.07421875
 10
5000.21484375
 20
-4951.2890625
 10
5000.21484375
 20
-4941.50390625
 10
5000.21484375
 20
-4931.71875
 10
5000.21484375
 20
-4921.93359375
 10
5000.21484375
 20
-4912.1484375
 10
5000.21484375
 20
-4902.36328125
 10
5000.21484375
 20
-4892.578125
 10
5000.21484375
 20
-4882.79296875
 10
5000.21484375
 20
-4873.0078125
 10
5000.21484375
 20
-4863.22265625
 10
5000.21484375
 20
-4853.4375
 10
5000.21484375
 20
-4843.65234375
 10
5000.21484375
 20
-4833.8671875
 10
5000.21484375
 20
-4824.08203125
 10
5000.21484375
 20
-4814.296875
 10
5000.21484375
 20
-4804.51171875
 10
5000.21484375
 20
-4794.7265625
 10
5000.21484375
 20
-4784.94140625
 10
5000.21484375
 20
-4775.15625
 10
5000.21484375
 20
-4765.37109375
 10
5000.21484375
 20
-4755.5859375
 10
5000.21484375
 20
-4745.80078125
 10
5000.21484375
 20
-4736.015625
 10
5000.21484375
 20
-4726.23046875
 10
5000.21484375
 20
-4716.4453125
 10
5000.21484375
 20
-4706.66015625
 10
5000.21484375
 20
-4696.875
 10
5000.21484375
 20
-4687.08984375
 10
5000.21484375
 20
-4677.3046875
 10
5000.21484375
 20
-4667.51953125
 10
5000.21484375
 20
-4657.734375
 10
5000.21484375
 20
-4647.94921875
 10
5000.21484375
 20
-4638.1640625
 10
5000.21484375
 20
-4628.37890625
 10
5000.21484375
 20
-4618.59375
 10
5000.21484375
 20
-4608.80859375
 10
5000.21484375
 20
-4599.0234375
 10
5000.21484375
 20
-4589.23828125
 10
5000.21484375
 20
-4579.453125
 10
5000.21484375
 20
-4569.66796875
 10
5000.21484375
 20
-4559.8828125
 10
5000.21484375
 20
-4550.09765625
 10
5000.21484375
 20
-4540.3125
 10
5000.21484375
 20
-4530.52734375
 10
5000.21484375
 20
-4520.7421875
 10
5000.21484375
 20
-4510.95703125
 10
5000.21484375
 20
-4501.171875
 10
5000.21484375
 20
-4491.38671875
 10
5000.21484375
 20
-4481.6015625
 10
5000.21484375
 20
-4471.81640625
 10
5000.21484375
 20
-4462.03125
 10
5000.21484375
 20
-4452.24609375
 10
5000.21484375
 20
-4442.4609375
 10
5000.21484375
 20
-4432.67578125
 10
5000.21484375
 20
-4422.890625
 10
5000.21484375
 20
-4413.10546875
 10
5000.21484375
 20
-4403.3203125
 10
5000.21484375
 20
-4393.53515625
 10
5000.21484375
 20
-4383.75
 10
5000.21484375
 20
-4373.96484375
 10
5000.21484375
 20
-4364.1796875
 10
5000.21484375
 20
-4354.39453125
 10
5000.21484375
 20
-4344.609375
 10
5000.21484375
 20
-4334.82421875
 10
5000.21484375
 20
-4325.0390625
 10
5000.21484375
 20
-4315.25390625
 10
5000.21484375
 20
-4305.46875
 10
5000.21484375
 20
-4295.68359375
 10
5000.21484375
 20
-4285.8984375
 10
5000.21484375
 20
-4276.11328125
 10
5000.21484375
 20
-4266.328125
 10
5000.21484375
 20
-4256.54296875
 10
5000.21484375
 20
-4246.7578125
 10
5000.21484375
 20
-4236.97265625
 10
5000.21484375
 20
-4227.1875
 10
5000.21484375
 20
-4217.40234375
 10
5000.21484375
 20
-4207.6171875
 10
5000.21484375
 20
-4197.83203125
 10
5000.21484375
 20
-4188.046875
 10
5000.21484375
 20
-4178.26171875
 10
5000.21484375
 20
-4168.4765625
 10
5000.21484375
 20
-4158.69140625
 10
5000.21484375
 20
-4148.90625
 10
5000.21484375
 20
-4139.12109375
 10
5000.21484375
 20
-4129.3359375
 10
5000.21484375
 20
-4119.55078125
 10
5000.21484375
 20
-4109.765625
 10
5000.21484375
 20
-4099.98046875
 10
5000.21484375
 20
-4090.1953125
 10
5000.21484375
 20
-4080.41015625
 10
5000.21484375
 20
-4070.625
 10
5000.21484375
 20
-4060.83984375
 10
5000.21484375
 20
-4051.0546875
 10
5000.21484375
 20
-4041.26953125
 10
5000.21484375
 20
-4031.484375
 10
5000.21484375
 20
-4021.69921875
 10
5000.21484375
 20
-4011.9140625
 10
5000.21484375
 20
-4002.12890625
 10
5000.21484375
 20
-3992.34375
 10
5000.21484375
 20
-3982.55859375
 10
5000.21484375
 20
-3972.7734375
 10
5000.21484375
 20
-3962.98828125
 10
5000.21484375
 20
-3953.203125
 10
5000.21484375
 20
-3943.41796875
 10
5000.21484375
 20
-3933.6328125
 10
5000.21484375
 20
-3923.84765625
 10
5000.21484375
 20
-3914.0625
 10
5000.21484375
 20
-3904.27734375
 10
5000.21484375
 20
-3894.4921875
 10
5000.21484375
 20
-3884.70703125
 10
5000.21484375
 20
-3874.921875
 10
5000.21484375
 20
-3865.13671875
 10
5000.21484375
 20
-3855.3515625
 10
5000.21484375
 20
-3845.56640625
 10
5000.21484375
 20
-3835.78125
 10
5000.21484375
 20
-3825.99609375
 10
5000.21484375
 20
-3816.2109375
 10
5000.21484375
 20
-3806.42578125
 10
5000.21484375
 20
-3796.640625
 10
5000.21484375
 20
-3786.85546875
 10
5000.21484375
 20
-3777.0703125
 10
5000.21484375
 20
-3767.28515625
 10
5000.21484375
 20
-3757.5
 10
5000.21484375
 20
-3747.71484375
 10
5000.21484375
 20
-3737.9296875
 10
5000.21484375
 20
-3728.14453125
 10
5000.21484375
 20
-3718.359375
 10
5000.21484375
 20
-3708.57421875
 10
5000.21484375
 20
-3698.7890625
 10
5000.21484375
 20
-3689.00390625
 10
5000.21484375
 20
-3679.21875
 10
5000.21484375
 20
-3669.43359375
 10
5000.21484375
 20
-3659.6484375
 10
5000.21484375
 20
-3649.86328125
 10
5000.21484375
 20
-3640.078125
 10
5000.21484375
 20
-3630.29296875
 10
5000.21484375
 20
-3620.5078125
 10
5000.21484375
 20
-3610.72265625
 10
5000.21484375
 20
-3600.9375
 10
5000.21484375
 20
-3591.15234375
 10
5000.21484375
 20
-3581.3671875
 10
5000.21484375
 20
-3571.58203125
 10
5000.21484375
 20
-3561.796875
 10
5000.21484375
 20
-3552.01171875
 10
5000.21484375
 20
-3542.2265625
 10
5000.21484375
 20
-3532.44140625
 10
5000.21484375
 20
-3522.65625
 10
5000.21484375
 20
-3512.87109375
 10
5000.21484375
 20
-3503.0859375
 10
5000.21484375
 20
-3493.30078125
 10
5000.21484375
 20
-3483.515625
 10
5000.21484375
 20
-3473.73046875
 10
5000.21484375
 20
-3463.9453125
 10
5000.21484375
 20
-3454.16015625
 10
5000.21484375
 20
-3444.375
 10
5000.21484375
 20
-3434.58984375
 10
5000.21484375
 20
-3424.8046875
 10
5000.21484375
 20
-3415.01953125
 10
5000.21484375
 20
-3405.234375
 10
5000.21484375
 20
-3395.44921875
 10
5000.21484375
 20
-3385.6640625
 10
5000.21484375
 20
-3375.87890625
 10
5000.21484375
 20
-3366.09375
 10
5000.21484375
 20
-3356.30859375
 10
5000.21484375
 20
-3346.5234375
 10
5000.21484375
 20
-3336.73828125
 10
5000.21484375
 20
-3326.953125
 10
5000.21484375
 20
-3317.16796875
 10
5000.21484375
 20
-3307.3828125
 10
5000.21484375
 20
-3297.59765625
 10
5000.21484375
 20
-3287.8125
 10
5000.21484375
 20
-3278.02734375
 10
5000.21484375
 20
-3268.2421875
 10
5000.21484375
 20
-3258.45703125
 10
5000.21484375
 20
-3248.671875
 10
5000.21484375
 20
-3238.88671875
 10
5000.21484375
 20
-3229.1015625
 10
5000.21484375
 20
-3219.31640625
 10
5000.21484375
 20
-3209.53125
 10
5000.21484375
 20
-3199.74609375
 10
5000.21484375
 20
-3189.9609375
 10
5000.21484375
 20
-3180.17578125
 10
5000.21484375
 20
-3170.390625
 10
5000.21484375
 20
-3160.60546875
 10
5000.21484375
 20
-3150.8203125
 10
5000.21484375
 20
-3141.03515625
 10
5000.21484375
 20
-3131.25
 10
5000.21484375
 20
-3121.46484375
 10
5000.21484375
 20
-3111.6796875
 10
5000.21484375
 20
-3101.89453125
 10
5000.21484375
 20
-3092.109375
 10
5000.21484375
 20
-3082.32421875
 10
5000.21484375
 20
-3072.5390625
 10
5000.21484375
 20
-3062.75390625
 10
5000.21484375
 20
-3052.96875
 10
5000.21484375
 20
-3043.18359375
 10
5000.21484375
 20
-3033.3984375
 10
5000.21484375
 20
-3023.61328125
 10
5000.21484375
 20
-3013.828125
 10
5000.21484375
 20
-3004.04296875
 10
5000.21484375
 20
-2994.2578125
 10
5000.21484375
 20
-2984.47265625
 10
5000.21484375
 20
-2974.6875
 10
5000.21484375
 20
-2964.90234375
 10
5000.21484375
 20
-2955.1171875
 10
5000.21484375
 20
-2945.33203125
 10
5000.21484375
 20
-2935.546875
 10
5000.21484375
 20
-2925.76171875
 10
5000.21484375
 20
-2915.9765625
 10
5000.21484375
 20
-2906.19140625
 10
5000.21484375
 20
-2896.40625
 10
5000.21484375
 20
-2886.62109375
 10
5000.21484375
 20
-2876.8359375
 10
5000.21484375
 20
-2867.05078125
 10
5000.21484375
 20
-2857.265625
 10
5000.21484375
 20
-2847.48046875
 10
5000.21484375
 20
-2837.6953125
 10
5000.21484375
 20
-2827.91015625
 10
5000.21484375
 20
-2818.125
 10
5000.21484375
 20
-2808.33984375
 10
5000.21484375
 20
-2798.5546875
 10
5000.21484375
 20
-2788.76953125
 10
5000.21484375
 20
-2778.984375
 10
5000.21484375
 20
-2769.19921875
 10
5000.21484375
 20
-2759.4140625
 10
5000.21484375
 20
-2749.62890625
 10
5000.21484375
 20
-2739.84375
 10
5000.21484375
 20
-2730.05859375
 10
5000.21484375
 20
-2720.2734375
 10
5000.21484375
 20
-2710.48828125
 10
5000.21484375
 20
-2700.703125
 10
5000.21484375
 20
-2690.91796875
 10
5000.21484375
 20
-2681.1328125
 10
5000.21484375
 20
-2671.34765625
 10
5000.21484375
 20
-2661.5625
 10
5000.21484375
 20
-2651.77734375
 10
5000.21484375
 20
-2641.9921875
 10
5000.21484375
 20
-2632.20703125
 10
5000.21484375
 20
-2622.421875
 10
5000.21484375
 20
-2612.63671875
 10
5000.21484375
 20
-2602.8515625
 10
5000.21484375
 20
-2593.06640625
 10
5000.21484375
 20
-2583.28125
 10
5000.21484375
 20
-2573.49609375
 10
5000.21484375
 20
-2563.7109375
 10
5000.21484375
 20
-2553.92578125
 10
5000.21484375
 20
-2544.140625
 10
5000.21484375
 20
-2534.35546875
 10
5000.21484375
 20
-2524.5703125
 10
5000.21484375
 20
-2514.78515625
 10
5000.21484375
 20
-2505.0
 10
5000.21484375
 20
-2495.21484375
 10
5000.21484375
 20
-2485.4296875
 10
5000.21484375
 20
-2475.64453125
 10
5000.21484375
 20
-2465.859375
 10
5000.21484375
 20
-2456.07421875
 10
5000.21484375
 20
-2446.2890625
 10
5000.21484375
 20
-2436.50390625
 10
5000.21484375
 20
-2426.71875
 10
5000.21484375
 20
-2416.93359375
 10
5000.21484375
 20
-2407.1484375
 10
5000.21484375
 20
-2397.36328125
 10
5000.21484375
 20
-2387.578125
 10
5000.21484375
 20
-2377.79296875
 10
5000.21484375
 20
-2368.0078125
 10
5000.21484375
 20
-2358.22265625
 10
5000.21484375
 20
-2348.4375
 10
5000.21484375
 20
-2338.65234375
 10
5000.21484375
 20
-2328.8671875
 10
5000.21484375
 20
-2319.08203125
 10
5000.21484375
 20
-2309.296875
 10
5000.21484375
 20
-2299.51171875
 10
5000.21484375
 20
-2289.7265625
 10
5000.21484375
 20
-2279.94140625
 10
5000.21484375
 20
-2270.15625
 10
5000.21484375
 20
-2260.37109375
 10
5000.21484375
 20
-2250.5859375
 10
5000.21484375
 20
-2240.80078125
 10
5000.21484375
 20
-2231.015625
 10
5000.21484375
 20
-2221.23046875
 10
5000.21484375
 20
-2211.4453125
 10
5000.21484375
 20
-2201.66015625
 10
5000.21484375
 20
-2191.875
 10
5000.21484375
 20
-2182.08984375
 10
5000.21484375
 20
-2172.3046875
 10
5000.21484375
 20
-2162.51953125
 10
5000.21484375
 20
-2152.734375
 10
5000.21484375
 20
-2142.94921875
 10
5000.21484375
 20
-2133.1640625
 10
5000.21484375
 20
-2123.37890625
 10
5000.21484375
 20
-2113.59375
 10
5000.21484375
 20
-2103.80859375
 10
5000.21484375
 20
-2094.0234375
 10
5000.21484375
 20
-2084.23828125
 10
5000.21484375
 20
-2074.453125
 10
5000.21484375
 20
-2064.66796875
 10
5000.21484375
 20
-2054.8828125
 10
5000.21484375
 20
-2045.09765625
 10
5000.21484375
 20
-2035.3125
 10
5000.21484375
 20
-2025.52734375
 10
5000.21484375
 20
-2015.7421875
 10
5000.21484375
 20
-2005.95703125
 10
5000.21484375
 20
-1996.171875
 10
5000.21484375
 20
-1986.38671875
 10
5000.21484375
 20
-1976.6015625
 10
5000.21484375
 20
-1966.81640625
 10
5000.21484375
 20
-1957.03125
 10
5000.21484375
 20
-1947.24609375
 10
5000.21484375
 20
-1937.4609375
 10
5000.21484375
 20
-1927.67578125
 10
5000.21484375
 20
-1917.890625
 10
5000.21484375
 20
-1908.10546875
 10
5000.21484375
 20
-1898.3203125
 10
5000.21484375
 20
-1888.53515625
 10
5000.21484375
 20
-1878.75
 10
5000.21484375
 20
-1868.96484375
 10
5000.21484375
 20
-1859.1796875
 10
5000.21484375
 20
-1849.39453125
 10
5000.21484375
 20
-1839.609375
 10
5000.21484375
 20
-1829.82421875
 10
5000.21484375
 20
-1820.0390625
 10
5000.21484375
 20
-1810.25390625
 10
5000.21484375
 20
-1800.46875
 10
5000.21484375
 20
-1790.68359375
 10
5000.21484375
 20
-1780.8984375
 10
5000.21484375
 20
-1771.11328125
 10
5000.21484375
 20
-1761.328125
 10
5000.21484375
 20
-1751.54296875
 10
5000.21484375
 20
-1741.7578125
 10
5000.21484375
 20
-1731.97265625
 10
5000.21484375
 20
-1722.1875
 10
5000.21484375
 20
-1712.40234375
 10
5000.21484375
 20
-1702.6171875
 10
5000.21484375
 20
-1692.83203125
 10
5000.21484375
 20
-1683.046875
 10
5000.21484375
 20
-1673.26171875
 10
5000.21484375
 20
-1663.4765625
 10
5000.21484375
 20
-1653.69140625
 10
5000.21484375
 20
-1643.90625
 10
5000.21484375
 20
-1634.12109375
 10
5000.21484375
 20
-1624.3359375
 10
5000.21484375
 20
-1614.55078125
 10
5000.21484375
 20
-1604.765625
 10
5000.21484375
 20
-1594.98046875
 10
5000.21484375
 20
-1585.1953125
 10
5000.21484375
 20
-1575.41015625
 10
5000.21484375
 20
-1565.625
 10
5000.21484375
 20
-1555.83984375
 10
5000.21484375
 20
-1546.0546875
 10
5000.21484375
 20
-1536.26953125
 10
5000.21484375
 20
-1526.484375
 10
5000.21484375
 20
-1516.69921875
 10
5000.21484375
 20
-1506.9140625
 10
5000.21484375
 20
-1497.12890625
 10
5000.21484375
 20
-1487.34375
 10
5000.21484375
 20
-1477.55859375
 10
5000.21484375
 20
-1467.7734375
 10
5000.21484375
 20
-1457.98828125
 10
5000.21484375
 20
-1448.203125
 10
5000.21484375
 20
-1438.41796875
 10
5000.21484375
 20
-1428.6328125
 10
5000.21484375
 20
-1418.84765625
 10
5000.21484375
 20
-1409.0625
 10
5000.21484375
 20
-1399.27734375
 10
5000.21484375
 20
-1389.4921875
 10
5000.21484375
 20
-1379.70703125
 10
5000.21484375
 20
-1369.921875
 10
5000.21484375
 20
-1360.13671875
 10
5000.21484375
 20
-1350.3515625
 10
5000.21484375
 20
-1340.56640625
 10
5000.21484375
 20
-1330.78125
 10
5000.21484375
 20
-1320.99609375
 10
5000.21484375
 20
-1311.2109375
 10
5000.21484375
 20
-1301.42578125
 10
5000.21484375
 20
-1291.640625
 10
5000.21484375
 20
-1281.85546875
 10
5000.21484375
 20
-1272.0703125
 10
5000.21484375
 20
-1262.28515625
 10
5000.21484375
 20
-1252.5
 10
5000.21484375
 20
-1242.71484375
 10
5000.21484375
 20
-1232.9296875
 10
5000.21484375
 20
-1223.14453125
 10
5000.21484375
 20
-1213.359375
 10
5000.21484375
 20
-1203.57421875
 10
5000.21484375
 20
-1193.7890625
 10
5000.21484375
 20
-1184.00390625
 10
5000.21484375
 20
-1174.21875
 10
5000.21484375
 20
-1164.43359375
 10
5000.21484375
 20
-1154.6484375
 10
5000.21484375
 20
-1144.86328125
 10
5000.21484375
 20
-1135.078125
 10
5000.21484375
 20
-1125.29296875
 10
5000.21484375
 20
-1115.5078125
 10
5000.21484375
 20
-1105.72265625
 10
5000.21484375
 20
-1095.9375
 10
5000.21484375
 20
-1086.15234375
 10
5000.21484375
 20
-1076.3671875
 10
5000.21484375
 20
-1066.58203125
 10
5000.21484375
 20
-1056.796875
 10
5000.21484375
 20
-1047.01171875
 10
5000.21484375
 20
-1037.2265625
 10
5000.21484375
 20
-1027.44140625
 10
5000.21484375
 20
-1017.65625
 10
5000.21484375
 20
-1007.87109375
 10
5000.21484375
 20
-998.0859375
 10
5000.21484375
 20
-988.30078125
 10
5000.21484375
 20
-978.515625
 10
5000.21484375
 20
-968.73046875
 10
5000.21484375
 20
-958.9453125
 10
5000.21484375
 20
-949.16015625
 10
5000.21484375
 20
-939.375
 10
5000.21484375
 20
-929.58984375
 10
5000.21484375
 20
-919.8046875
 10
5000.21484375
 20
-910.01953125
 10
5000.21484375
 20
-900.234375
 10
5000.21484375
 20
-890.44921875
 10
5000.21484375
 20
-880.6640625
 10
5000.21484375
 20
-870.87890625
 10
5000.21484375
 20
-861.09375
 10
5000.21484375
 20
-851.30859375
 10
5000.21484375
 20
-841.5234375
 10
5000.21484375
 20
-831.73828125
 10
5000.21484375
 20
-821.953125
 10
5000.21484375
 20
-812.16796875
 10
5000.21484375
 20
-802.3828125
 10
5000.21484375
 20
-792.59765625
 10
5000.21484375
 20
-782.8125
 10
5000.21484375
 20
-773.02734375
 10
5000.21484375
 20
-763.2421875
 10
5000.21484375
 20
-753.45703125
 10
5000.21484375
 20
-743.671875
 10
5000.21484375
 20
-733.88671875
 10
5000.21484375
 20
-724.1015625
 10
5000.21484375
 20
-714.31640625
 10
5000.21484375
 20
-704.53125
 10
5000.21484375
 20
-694.74609375
 10
5000.21484375
 20
-684.9609375
 10
5000.21484375
 20
-675.17578125
 10
5000.21484375
 20
-665.390625
 10
5000.21484375
 20
-655.60546875
 10
5000.21484375
 20
-645.8203125
 10
5000.21484375
 20
-636.03515625
 10
5000.21484375
 20
-626.25
 10
5000.21484375
 20
-616.46484375
 10
5000.21484375
 20
-606.6796875
 10
5000.21484375
 20
-596.89453125
 10
5000.21484375
 20
-587.109375
 10
5000.21484375
 20
-577.32421875
 10
5000.21484375
 20
-567.5390625
 10
5000.21484375
 20
-557.75390625
 10
5000.21484375
 20
-547.96875
 10
5000.21484375
 20
-538.18359375
 10
5000.21484375
 20
-528.3984375
 10
5000.21484375
 20
-518.61328125
 10
5000.21484375
 20
-508.828125
 10
5000.21484375
 20
-499.04296875
 10
5000.21484375
 20
-489.2578125
 10
5000.21484375
 20
-479.47265625
 10
5000.21484375
 20
-469.6875
 10
5000.21484375
 20
-459.90234375
 10
5000.21484375
 20
-450.1171875
 10
5000.21484375
 20
-440.33203125
 10
5000.21484375
 20
-430.546875
 10
5000.21484375
 20
-420.76171875
 10
5000.21484375
 20
-410.9765625
 10
5000.21484375
 20
-401.19140625
 10
5000.21484375
 20
-391.40625
 10
5000.21484375
 20
-381.62109375
 10
5000.21484375
 20
-371.8359375
 10
5000.21484375
 20
-362.05078125
 10
5000.21484375
 20
-352.265625
 10
5000.21484375
 20
-342.48046875
 10
5000.21484375
 20
-332.6953125
 10
5000.21484375
 20
-322.91015625
 10
5000.21484375
 20
-313.125
 10
5000.21484375
 20
-303.33984375
 10
5000.21484375
 20
-293.5546875
 10
5000.21484375
 20
-283.76953125
 10
5000.21484375
 20
-273.984375
 10
5000.21484375
 20
-264.19921875
 10
5000.21484375
 20
-254.4140625
 10
5000.21484375
 20
-244.62890625
 10
5000.21484375
 20
-234.84375
 10
5000.21484375
 20
-225.05859375
 10
5000.21484375
 20
-215.2734375
 10
5000.21484375
 20
-205.48828125
 10
5000.21484375
 20
-195.703125
 10
5000.21484375
 20
-185.91796875
 10
5000.21484375
 20
-176.1328125
 10
5000.21484375
 20
-166.34765625
 10
5000.21484375
 20
-156.5625
 10
5000.21484375
 20
-146.77734375
 10
5000.21484375
 20
-136.9921875
 10
5000.21484375
 20
-127.20703125
 10
5000.21484375
 20
-117.421875
 10
5000.21484375
 20
-107.63671875
 10
5000.21484375
 20
-97.8515625
 10
5000.21484375
 20
-88.06640625
 10
5000.21484375
 20
-78.28125
 10
5000.21484375
 20
-68.49609375
 10
5000.21484375
 20
-58.7109375
 10
5000.21484375
 20
-48.92578125
 10
5000.21484375
 20
-39.140625
 10
5000.21484375
 20
-29.35546875
 10
5000.21484375
 20
-19.5703125
 10
5000.21484375
 20
-9.78515625
 10
5000.21484375
 20
-0.0
 10
4990.4296875
 20
-0.0
 10
4980.64453125
 20
-0.0
 10
4970.859375
 20
-0.0
 10
4961.07421875
 20
-0.0
 10
4951.2890625
 20
-0.0
 10
4941.50390625
 20
-0.0
 10
4931.71875
 20
-0.0
 10
4921.93359375
 20
-0.0
 10
4912.1484375
 20
-0.0
 10
4902.36328125
 20
-0.0
 10
4892.578125
 20
-0.0
 10
4882.79296875
 20
-0.0
 10
4873.0078125
 20
-0.0
 10
4863.22265625
 20
-0.0
 10
4853.4375
 20
-0.0
 10
4843.65234375
 20
-0.0
 10
4833.8671875
 20
-0.0
 10
4824.08203125
 20
-0.0
 10
4814.296875
 20
-0.0
 10
4804.51171875
 20
-0.0
 10
4794.7265625
 20
-0.0
 10
4784.94140625
 20
-0.0
 10
4775.15625
 20
-0.0
 10
4765.37109375
 20
-0.0
 10
4755.5859375
 20
-0.0
 10
4745.80078125
 20
-0.0
 10
4736.015625
 20
-0.0
 10
4726.23046875
 20
-0.0
 10
4716.4453125
 20
-0.0
 10
4706.66015625
 20
-0.0
 10
4696.875
 20
-0.0
 10
4687.08984375
 20
-0.0
 10
4677.3046875
 20
-0.0
 10
4667.51953125
 20
-0.0
 10
4657.734375
 20
-0.0
 10
4647.94921875
 20
-0.0
 10
4638.1640625
 20
-0.0
 10
4628.37890625
 20
-0.0
 10
4618.59375
 20
-0.0
 10
4608.80859375
 20
-0.0
 10
4599.0234375
 20
-0.0
 10
4589.23828125
 20
-0.0
 10
4579.453125
 20
-0.0
 10
4569.66796875
 20
-0.0
 10
4559.8828125
 20
-0.0
 10
4550.09765625
 20
-0.0
 10
4540.3125
 20
-0.0
 10
4530.52734375
 20
-0.0
 10
4520.7421875
 20
-0.0
 10
4510.95703125
 20
-0.0
 10
4501.171875
 20
-0.0
 10
4491.38671875
 20
-0.0
 10
4481.6015625
 20
-0.0
 10
4471.81640625
 20
-0.0
 10
4462.03125
 20
-0.0
 10
4452.24609375
 20
-0.0
 10
4442.4609375
 20
-0.0
 10
4432.67578125
 20
-0.0
 10
4422.890625
 20
-0.0
 10
4413.10546875
 20
-0.0
 10
4403.3203125
 20
-0.0
 10
4393.53515625
 20
-0.0
 10
4383.75
 20
-0.0
 10
4373.96484375
 20
-0.0
 10
4364.1796875
 20
-0.0
 10
4354.39453125
 20
-0.0
 10
4344.609375
 20
-0.0
 10
4334.82421875
 20
-0.0
 10
4325.0390625
 20
-0.0
 10
4315.25390625
 20
-0.0
 10
4305.46875
 20
-0.0
 10
4295.68359375
 20
-0.0
 10
4285.8984375
 20
-0.0
 10
4276.11328125
 20
-0.0
 10
4266.328125
 20
-0.0
 10
4256.54296875
 20
-0.0
 10
4246.7578125
 20
-0.0
 10
4236.97265625
 20
-0.0
 10
4227.1875
 20
-0.0
 10
4217.40234375
 20
-0.0
 10
4207.6171875
 20
-0.0
 10
4197.83203125
 20
-0.0
 10
4188.046875
 20
-0.0
 10
4178.26171875
 20
-0.0
 10
4168.4765625
 20
-0.0
 10
4158.69140625
 20
-0.0
 10
4148.90625
 20
-0.0
 10
4139.12109375
 20
-0.0
 10
4129.3359375
 20
-0.0
 10
4119.55078125
 20
-0.0
 10
4109.765625
 20
-0.0
 10
4099.98046875
 20
-0.0
 10
4090.1953125
 20
-0.0
 10
4080.41015625
 20
-0.0
 10
4070.625
 20
-0.0
 10
4060.83984375
 20
-0.0
 10
4051.0546875
 20
-0.0
 10
4041.26953125
 20
-0.0
 10
4031.484375
 20
-0.0
 10
4021.69921875
 20
-0.0
 10
4011.9140625
 20
-0.0
 10
4002.12890625
 20
-0.0
 10
3992.34375
 20
-0.0
 10
3982.55859375
 20
-0.0
 10
3972.7734375
 20
-0.0
 10
3962.98828125
 20
-0.0
 10
3953.203125
 20
-0.0
 10
3943.41796875
 20
-0.0
 10
3933.6328125
 20
-0.0
 10
3923.84765625
 20
-0.0
 10
3914.0625
 20
-0.0
 10
3904.27734375
 20
-0.0
 10
3894.4921875
 20
-0.0
 10
3884.70703125
 20
-0.0
 10
3874.921875
 20
-0.0
 10
3865.13671875
 20
-0.0
 10
3855.3515625
 20
-0.0
 10
3845.56640625
 20
-0.0
 10
3835.78125
 20
-0.0
 10
3825.99609375
 20
-0.0
 10
3816.2109375
 20
-0.0
 10
3806.42578125
 20
-0.0
 10
3796.640625
 20
-0.0
 10
3786.85546875
 20
-0.0
 10
3777.0703125
 20
-0.0
 10
3767.28515625
 20
-0.0
 10
3757.5
 20
-0.0
 10
3747.71484375
 20
-0.0
 10
3737.9296875
 20
-0.0
 10
3728.14453125
 20
-0.0
 10
3718.359375
 20
-0.0
 10
3708.57421875
 20
-0.0
 10
3698.7890625
 20
-0.0
 10
3689.00390625
 20
-0.0
 10
3679.21875
 20
-0.0
 10
3669.43359375
 20
-0.0
 10
3659.6484375
 20
-0.0
 10
3649.86328125
 20
-0.0
 10
3640.078125
 20
-0.0
 10
3630.29296875
 20
-0.0
 10
3620.5078125
 20
-0.0
 10
3610.72265625
 20
-0.0
 10
3600.9375
 20
-0.0
 10
3591.15234375
 20
-0.0
 10
3581.3671875
 20
-0.0
 10
3571.58203125
 20
-0.0
 10
3561.796875
 20
-0.0
 10
3552.01171875
 20
-0.0
 10
3542.2265625
 20
-0.0
 10
3532.44140625
 20
-0.0
 10
3522.65625
 20
-0.0
 10
3512.87109375
 20
-0.0
 10
3503.0859375
 20
-0.0
 10
3493.30078125
 20
-0.0
 10
3483.515625
 20
-0.0
 10
3473.73046875
 20
-0.0
 10
3463.9453125
 20
-0.0
 10
3454.16015625
 20
-0.0
 10
3444.375
 20
-0.0
 10
3434.58984375
 20
-0.0
 10
3424.8046875
 20
-0.0
 10
3415.01953125
 20
-0.0
 10
3405.234375
 20
-0.0
 10
3395.44921875
 20
-0.0
 10
3385.6640625
 20
-0.0
 10
3375.87890625
 20
-0.0
 10
3366.09375
 20
-0.0
 10
3356.30859375
 20
-0.0
 10
3346.5234375
 20
-0.0
 10
3336.73828125
 20
-0.0
 10
3326.953125
 20
-0.0
 10
3317.16796875
 20
-0.0
 10
3307.3828125
 20
-0.0
 10
3297.59765625
 20
-0.0
 10
3287.8125
 20
-0.0
 10
3278.02734375
 20
-0.0
 10
3268.2421875
 20
-0.0
 10
3258.45703125
 20
-0.0
 10
3248.671875
 20
-0.0
 10
3238.88671875
 20
-0.0
 10
3229.1015625
 20
-0.0
 10
3219.31640625
 20
-0.0
 10
3209.53125
 20
-0.0
 10
3199.74609375
 20
-0.0
 10
3189.9609375
 20
-0.0
 10
3180.17578125
 20
-0.0
 10
3170.390625
 20
-0.0
 10
3160.60546875
 20
-0.0
 10
3150.8203125
 20
-0.0
 10
3141.03515625
 20
-0.0
 10
3131.25
 20
-0.0
 10
3121.46484375
 20
-0.0
 10
3111.6796875
 20
-0.0
 10
3101.89453125
 20
-0.0
 10
3092.109375
 20
-0.0
 10
3082.32421875
 20
-0.0
 10
3072.5390625
 20
-0.0
 10
3062.75390625
 20
-0.0
 10
3052.96875
 20
-0.0
 10
3043.18359375
 20
-0.0
 10
3033.3984375
 20
-0.0
 10
3023.61328125
 20
-0.0
 10
3013.828125
 20
-0.0
 10
3004.04296875
 20
-0.0
 10
2994.2578125
 20
-0.0
 10
2984.47265625
 20
-0.0
 10
2974.6875
 20
-0.0
 10
2964.90234375
 20
-0.0
 10
2955.1171875
 20
-0.0
 10
2945.33203125
 20
-0.0
 10
2935.546875
 20
-0.0
 10
2925.76171875
 20
-0.0
 10
2915.9765625
 20
-0.0
 10
2906.19140625
 20
-0.0
 10
2896.40625
 20
-0.0
 10
2886.62109375
 20
-0.0
 10
2876.8359375
 20
-0.0
 10
2867.05078125
 20
-0.0
 10
2857.265625
 20
-0.0
 10
2847.48046875
 20
-0.0
 10
2837.6953125
 20
-0.0
 10
2827.91015625
 20
-0.0
 10
2818.125
 20
-0.0
 10
2808.33984375
 20
-0.0
 10
2798.5546875
 20
-0.0
 10
2788.76953125
 20
-0.0
 10
2778.984375
 20
-0.0
 10
2769.19921875
 20
-0.0
 10
2759.4140625
 20
-0.0
 10
2749.62890625
 20
-0.0
 10
2739.84375
 20
-0.0
 10
2730.05859375
 20
-0.0
 10
2720.2734375
 20
-0.0
 10
2710.48828125
 20
-0.0
 10
2700.703125
 20
-0.0
 10
2690.91796875
 20
-0.0
 10
2681.1328125
 20
-0.0
 10
2671.34765625
 20
-0.0
 10
2661.5625
 20
-0.0
 10
2651.77734375
 20
-0.0
 10
2641.9921875
 20
-0.0
 10
2632.20703125
 20
-0.0
 10
2622.421875
 20
-0.0
 10
2612.63671875
 20
-0.0
 10
2602.8515625
 20
-0.0
 10
2593.06640625
 20
-0.0
 10
2583.28125
 20
-0.0
 10
2573.49609375
 20
-0.0
 10
2563.7109375
 20
-0.0
 10
2553.92578125
 20
-0.0
 10
2544.140625
 20
-0.0
 10
2534.35546875
 20
-0.0
 10
2524.5703125
 20
-0.0
 10
2514.78515625
 20
-0.0
 10
2505.0
 20
-0.0
 10
2495.21484375
 20
-0.0
 10
2485.4296875
 20
-0.0
 10
2475.64453125
 20
-0.0
 10
2465.859375
 20
-0.0
 10
2456.07421875
 20
-0.0
 10
2446.2890625
 20
-0.0
 10
2436.50390625
 20
-0.0
 10
2426.71875
 20
-0.0
 10
2416.93359375
 20
-0.0
 10
2407.1484375
 20
-0.0
 10
2397.36328125
 20
-0.0
 10
2387.578125
 20
-0.0
 10
2377.79296875
 20
-0.0
 10
2368.0078125
 20
-0.0
 10
2358.22265625
 20
-0.0
 10
2348.4375
 20
-0.0
 10
2338.65234375
 20
-0.0
 10
2328.8671875
 20
-0.0
 10
2319.08203125
 20
-0.0
 10
2309.296875
 20
-0.0
 10
2299.51171875
 20
-0.0
 10
2289.7265625
 20
-0.0
 10
2279.94140625
 20
-0.0
 10
2270.15625
 20
-0.0
 10
2260.37109375
 20
-0.0
 10
2250.5859375
 20
-0.0
 10
2240.80078125
 20
-0.0
 10
2231.015625
 20
-0.0
 10
2221.23046875
 20
-0.0
 10
2211.4453125
 20
-0.0
 10
2201.66015625
 20
-0.0
 10
2191.875
 20
-0.0
 10
2182.08984375
 20
-0.0
 10
2172.3046875
 20
-0.0
 10
2162.51953125
 20
-0.0
 10
2152.734375
 20
-0.0
 10
2142.94921875
 20
-0.0
 10
2133.1640625
 20
-0.0
 10
2123.37890625
 20
-0.0
 10
2113.59375
 20
-0.0
 10
2103.80859375
 20
-0.0
 10
2094.0234375
 20
-0.0
 10
2084.23828125
 20
-0.0
 10
2074.453125
 20
-0.0
 10
2064.66796875
 20
-0.0
 10
2054.8828125
 20
-0.0
 10
2045.09765625
 20
-0.0
 10
2035.3125
 20
-0.0
 10
2025.52734375
 20
-0.0
 10
2015.7421875
 20
-0.0
 10
2005.95703125
 20
-0.0
 10
1996.171875
 20
-0.0
 10
1986.38671875
 20
-0.0
 10
1976.6015625
 20
-0.0
 10
1966.81640625
 20
-0.0
 10
1957.03125
 20
-0.0
 10
1947.24609375
 20
-0.0
 10
1937.4609375
 20
-0.0
 10
1927.67578125
 20
-0.0
 10
1917.890625
 20
-0.0
 10
1908.10546875
 20
-0.0
 10
1898.3203125
 20
-0.0
 10
1888.53515625
 20
-0.0
 10
1878.75
 20
-0.0
 10
1868.96484375
 20
-0.0
 10
1859.1796875
 20
-0.0
 10
1849.39453125
 20
-0.0
 10
1839.609375
 20
-0.0
 10
1829.82421875
 20
-0.0
 10
1820.0390625
 20
-0.0
 10
1810.25390625
 20
-0.0
 10
1800.46875
 20
-0.0
 10
1790.68359375
 20
-0.0
 10
1780.8984375
 20
-0.0
 10
1771.11328125
 20
-0.0
 10
1761.328125
 20
-0.0
 10
1751.54296875
 20
-0.0
 10
1741.7578125
 20
-0.0
 10
1731.97265625
 20
-0.0
 10
1722.1875
 20
-0.0
 10
1712.40234375
 20
-0.0
 10
1702.6171875
 20
-0.0
 10
1692.83203125
 20
-0.0
 10
1683.046875
 20
-0.0
 10
1673.26171875
 20
-0.0
 10
1663.4765625
 20
-0.0
 10
1653.69140625
 20
-0.0
 10
1643.90625
 20
-0.0
 10
1634.12109375
 20
-0.0
 10
1624.3359375
 20
-0.0
 10
1614.55078125
 20
-0.0
 10
1604.765625
 20
-0.0
 10
1594.98046875
 20
-0.0
 10
1585.1953125
 20
-0.0
 10
1575.41015625
 20
-0.0
 10
1565.625
 20
-0.0
 10
1555.83984375
 20
-0.0
 10
1546.0546875
 20
-0.0
 10
1536.26953125
 20
-0.0
 10
1526.484375
 20
-0.0
 10
1516.69921875
 20
-0.0
 10
1506.9140625
 20
-0.0
 10
1497.12890625
 20
-0.0
 10
1487.34375
 20
-0.0
 10
1477.55859375
 20
-0.0
 10
1467.7734375
 20
-0.0
 10
1457.98828125
 20
-0.0
 10
1448.203125
 20
-0.0
 10
1438.41796875
 20
-0.0
 10
1428.6328125
 20
-0.0
 10
1418.84765625
 20
-0.0
 10
1409.0625
 20
-0.0
 10
1399.27734375
 20
-0.0
 10
1389.4921875
 20
-0.0
 10
1379.70703125
 20
-0.0
 10
1369.921875
 20
-0.0
 10
1360.13671875
 20
-0.0
 10
1350.3515625
 20
-0.0
 10
1340.56640625
 20
-0.0
 10
1330.78125
 20
-0.0
 10
1320.99609375
 20
-0.0
 10
1311.2109375
 20
-0.0
 10
1301.42578125
 20
-0.0
 10
1291.640625
 20
-0.0
 10
1281.85546875
 20
-0.0
 10
1272.0703125
 20
-0.0
 10
1262.28515625
 20
-0.0
 10
1252.5
 20
-0.0
 10
1242.71484375
 20
-0.0
 10
1232.9296875
 20
-0.0
 10
1223.14453125
 20
-0.0
 10
1213.359375
 20
-0.0
 10
1203.57421875
 20
-0.0
 10
1193.7890625
 20
-0.0
 10
1184.00390625
 20
-0.0
 10
1174.21875
 20
-0.0
 10
1164.43359375
 20
-0.0
 10
1154.6484375
 20
-0.0
 10
1144.86328125
 20
-0.0
 10
1135.078125
 20
-0.0
 10
1125.29296875
 20
-0.0
 10
1115.5078125
 20
-0.0
 10
1105.72265625
 20
-0.0
 10
1095.9375
 20
-0.0
 10
1086.15234375
 20
-0.0
 10
1076.3671875
 20
-0.0
 10
1066.58203125
 20
-0.0
 10
1056.796875
 20
-0.0
 10
1047.01171875
 20
-0.0
 10
1037.2265625
 20
-0.0
 10
1027.44140625
 20
-0.0
 10
1017.65625
 20
-0.0
 10
1007.87109375
 20
-0.0
 10
998.0859375
 20
-0.0
 10
988.30078125
 20
-0.0
 10
978.515625
 20
-0.0
 10
968.73046875
 20
-0.0
 10
958.9453125
 20
-0.0
 10
949.16015625
 20
-0.0
 10
939.375
 20
-0.0
 10
929.58984375
 20
-0.0
 10
919.8046875
 20
-0.0
 10
910.01953125
 20
-0.0
 10
900.234375
 20
-0.0
 10
890.44921875
 20
-0.0
 10
880.6640625
 20
-0.0
 10
870.87890625
 20
-0.0
 10
861.09375
 20
-0.0
 10
851.30859375
 20
-0.0
 10
841.5234375
 20
-0.0
 10
831.73828125
 20
-0.0
 10
821.953125
 20
-0.0
 10
812.16796875
 20
-0.0
 10
802.3828125
 20
-0.0
 10
792.59765625
 20
-0.0
 10
782.8125
 20
-0.0
 10
773.02734375
 20
-0.0
 10
763.2421875
 20
-0.0
 10
753.45703125
 20
-0.0
 10
743.671875
 20
-0.0
 10
733.88671875
 20
-0.0
 10
724.1015625
 20
-0.0
 10
714.31640625
 20
-0.0
 10
704.53125
 20
-0.0
 10
694.74609375
 20
-0.0
 10
684.9609375
 20
-0.0
 10
675.17578125
 20
-0.0
 10
665.390625
 20
-0.0
 10
655.60546875
 20
-0.0
 10
645.8203125
 20
-0.0
 10
636.03515625
 20
-0.0
 10
626.25
 20
-0.0
 10
616.46484375
 20
-0.0
 10
606.6796875
 20
-0.0
 10
596.89453125
 20
-0.0
 10
587.109375
 20
-0.0
 10
577.32421875
 20
-0.0
 10
567.5390625
 20
-0.0
 10
557.75390625
 20
-0.0
 10
547.96875
 20
-0.0
 10
538.18359375
 20
-0.0
 10
528.3984375
 20
-0.0
 10
518.61328125
 20
-0.0
 10
508.828125
 20
-0.0
 10
499.04296875
 20
-0.0
 10
489.2578125
 20
-0.0
 10
479.47265625
 20
-0.0
 10
469.6875
 20
-0.0
 10
459.90234375
 20
-0.0
 10
450.1171875
 20
-0.0
 10
440.33203125
 20
-0.0
 10
430.546875
 20
-0.0
 10
420.76171875
 20
-0.0
 10
410.9765625
 20
-0.0
 10
401.19140625
 20
-0.0
 10
391.40625
 20
-0.0
 10
381.62109375
 20
-0.0
 10
371.8359375
 20
-0.0
 10
362.05078125
 20
-0.0
 10
352.265625
 20
-0.0
 10
342.48046875
 20
-0.0
 10
332.6953125
 20
-0.0
 10
322.91015625
 20
-0.0
 10
313.125
 20
-0.0
 10
303.33984375
 20
-0.0
 10
293.5546875
 20
-0.0
 10
283.76953125
 20
-0.0
 10
273.984375
 20
-0.0
 10
264.19921875
 20
-0.0
 10
254.4140625
 20
-0.0
 10
244.62890625
 20
-0.0
 10
234.84375
 20
-0.0
 10
225.05859375
 20
-0.0
 10
215.2734375
 20
-0.0
 10
205.48828125
 20
-0.0
 10
195.703125
 20
-0.0
 10
185.91796875
 20
-0.0
 10
176.1328125
 20
-0.0
 10
166.34765625
 20
-0.0
 10
156.5625
 20
-0.0
 10
146.77734375
 20
-0.0
 10
136.9921875
 20
-0.0
 10
127.20703125
 20
-0.0
 10
117.421875
 20
-0.0
 10
107.63671875
 20
-0.0
 10
97.8515625
 20
-0.0
 10
88.06640625
 20
-0.0
 10
78.28125
 20
-0.0
 10
68.49609375
 20
-0.0
 10
58.7109375
 20
-0.0
 10
48.92578125
 20
-0.0
 10
39.140625
 20
-0.0
 10
29.35546875
 20
-0.0
 10
19.5703125
 20
-0.0
 10
9.78515625
 20
-0.0
  0
LWPOLYLINE
  5
38
330
17
100
AcDbEntity
  8
substrate
100
AcDbPolyline
 90
1487
 70
1
 43
0.5
 10
3082.32421875
 20
-675.17578125
 10
3092.109375
 20
-665.390625
 10
3101.89453125
 20
-665.390625
 10
3111.6796875
 20
-665.390625
 10
3121.46484375
 20
-665.390625
 10
3131.25
 20
-665.390625
 10
3141.03515625
 20
-675.17578125
 10
3141.03515625
 20
-684.9609375
 10
3141.03515625
 20
-694.74609375
 10
3141.03515625
 20
-704.53125
 10
3141.03515625
 20
-714.31640625
 10
3141.03515625
 20
-724.1015625
 10
3141.03515625
 20
-733.88671875
 10
3141.03515625
 20
-743.671875
 10
3141.03515625
 20
-753.45703125
 10
3141.03515625
 20
-763.2421875
 10
3141.03515625
 20
-773.02734375
 10
3131.25
 20
-782.8125
 10
3131.25
 20
-792.59765625
 10
3131.25
 20
-802.3828125
 10
3131.25
 20
-812.16796875
 10
3131.25
 20
-821.953125
 10
3131.25
 20
-831.73828125
 10
3141.03515625
 20
-841.5234375
 10
3141.03515625
 20
-851.30859375
 10
3141.03515625
 20
-861.09375
 10
3141.03515625
 20
-870.87890625
 10
3141.03515625
 20
-880.6640625
 10
3141.03515625
 20
-890.44921875
 10
3141.03515625
 20
-900.234375
 10
3141.03515625
 20
-910.01953125
 10
3141.03515625
 20
-919.8046875
 10
3141.03515625
 20
-929.58984375
 10
3141.03515625
 20
-939.375
 10
3141.03515625
 20
-949.16015625
 10
3141.03515625
 20
-958.9453125
 10
3141.03515625
 20
-968.73046875
 10
3141.03515625
 20
-978.515625
 10
3141.03515625
 20
-988.30078125
 10
3141.03515625
 20
-998.0859375
 10
3141.03515625
 20
-1007.87109375
 10
3141.03515625
 20
-1017.65625
 10
3141.03515625
 20
-1027.44140625
 10
3141.03515625
 20
-1037.2265625
 10
3141.03515625
 20
-1047.01171875
 10
3141.03515625
 20
-1056.796875
 10
3131.25
 20
-1066.58203125
 10
3141.03515625
 20
-1076.3671875
 10
3141.03515625
 20
-1086.15234375
 10
3131.25
 20
-1095.9375
 10
3141.03515625
 20
-1105.72265625
 10
3141.03515625
 20
-1115.5078125
 10
3141.03515625
 20
-1125.29296875
 10
3131.25
 20
-1135.078125
 10
3141.03515625
 20
-1144.86328125
 10
3131.25
 20
-1154.6484375
 10
3141.03515625
 20
-1164.43359375
 10
3141.03515625
 20
-1174.21875
 10
3141.03515625
 20
-1184.00390625
 10
3131.25
 20
-1193.7890625
 10
3131.25
 20
-1203.57421875
 10
3131.25
 20
-1213.359375
 10
3131.25
 20
-1223.14453125
 10
3141.03515625
 20
-1232.9296875
 10
3131.25
 20
-1242.71484375
 10
3141.03515625
 20
-1252.5
 10
3141.03515625
 20
-1262.28515625
 10
3141.03515625
 20
-1272.0703125
 10
3141.03515625
 20
-1281.85546875
 10
3131.25
 20
-1291.640625
 10
3131.25
 20
-1301.42578125
 10
3141.03515625
 20
-1311.2109375
 10
3131.25
 20
-1320.99609375
 10
3141.03515625
 20
-1330.78125
 10
3141.03515625
 20
-1340.56640625
 10
3131.25
 20
-1350.3515625
 10
3141.03515625
 20
-1360.13671875
 10
3131.25
 20
-1369.921875
 10
3131.25
 20
-1379.70703125
 10
3131.25
 20
-1389.4921875
 10
3131.25
 20
-1399.27734375
 10
3131.25
 20
-1409.0625
 10
3131.25
 20
-1418.84765625
 10
3131.25
 20
-1428.6328125
 10
3141.03515625
 20
-1438.41796875
 10
3131.25
 20
-1448.203125
 10
3141.03515625
 20
-1457.98828125
 10
3141.03515625
 20
-1467.7734375
 10
3131.25
 20
-1477.55859375
 10
3131.25
 20
-1487.34375
 10
3131.25
 20
-1497.12890625
 10
3131.25
 20
-1506.9140625
 10
3131.25
 20
-1516.69921875
 10
3131.25
 20
-1526.484375
 10
3131.25
 20
-1536.26953125
 10
3131.25
 20
-1546.0546875
 10
3141.03515625
 20
-1555.83984375
 10
3141.03515625
 20
-1565.625
 10
3141.03515625
 20
-1575.41015625
 10
3141.03515625
 20
-1585.1953125
 10
3141.03515625
 20
-1594.98046875
 10
3141.03515625
 20
-1604.765625
 10
3141.03515625
 20
-1614.55078125
 10
3141.03515625
 20
-1624.3359375
 10
3141.03515625
 20
-1634.12109375
 10
3141.03515625
 20
-1643.90625
 10
3141.03515625
 20
-1653.69140625
 10
3141.03515625
 20
-1663.4765625
 10
3141.03515625
 20
-1673.26171875
 10
3141.03515625
 20
-1683.046875
 10
3141.03515625
 20
-1692.83203125
 10
3141.03515625
 20
-1702.6171875
 10
3141.03515625
 20
-1712.40234375
 10
3141.03515625
 20
-1722.1875
 10
3141.03515625
 20
-1731.97265625
 10
3141.03515625
 20
-1741.7578125
 10
3141.03515625
 20
-1751.54296875
 10
3141.03515625
 20
-1761.328125
 10
3141.03515625
 20
-1771.11328125
 10
3141.03515625
 20
-1780.8984375
 10
3141.03515625
 20
-1790.68359375
 10
3141.03515625
 20
-1800.46875
 10
3141.03515625
 20
-1810.25390625
 10
3141.03515625
 20
-1820.0390625
 10
3141.03515625
 20
-1829.82421875
 10
3141.03515625
 20
-1839.609375
 10
3141.03515625
 20
-1849.39453125
 10
3141.03515625
 20
-1859.1796875
 10
3150.8203125
 20
-1868.96484375
 10
3160.60546875
 20
-1859.1796875
 10
3170.390625
 20
-1868.96484375
 10
3180.17578125
 20
-1868.96484375
 10
3189.9609375
 20
-1868.96484375
 10
3199.74609375
 20
-1859.1796875
 10
3209.53125
 20
-1868.96484375
 10
3219.31640625
 20
-1868.96484375
 10
3229.1015625
 20
-1868.96484375
 10
3238.88671875
 20
-1859.1796875
 10
3248.671875
 20
-1868.96484375
 10
3258.45703125
 20
-1868.96484375
 10
3268.2421875
 20
-1868.96484375
 10
3278.02734375
 20
-1868.96484375
 10
3287.8125
 20
-1859.1796875
 10
3297.59765625
 20
-1859.1796875
 10
3307.3828125
 20
-1868.96484375
 10
3317.16796875
 20
-1859.1796875
 10
3326.953125
 20
-1868.96484375
 10
3336.73828125
 20
-1868.96484375
 10
3346.5234375
 20
-1868.96484375
 10
3356.30859375
 20
-1868.96484375
 10
3366.09375
 20
-1868.96484375
 10
3375.87890625
 20
-1868.96484375
 10
3385.6640625
 20
-1868.96484375
 10
3395.44921875
 20
-1868.96484375
 10
3405.234375
 20
-1868.96484375
 10
3415.01953125
 20
-1868.96484375
 10
3424.8046875
 20
-1868.96484375
 10
3434.58984375
 20
-1868.96484375
 10
3444.375
 20
-1868.96484375
 10
3454.16015625
 20
-1868.96484375
 10
3463.9453125
 20
-1868.96484375
 10
3473.73046875
 20
-1868.96484375
 10
3483.515625
 20
-1868.96484375
 10
3493.30078125
 20
-1868.96484375
 10
3503.0859375
 20
-1868.96484375
 10
3512.87109375
 20
-1868.96484375
 10
3522.65625
 20
-1868.96484375
 10
3532.44140625
 20
-1868.96484375
 10
3542.2265625
 20
-1868.96484375
 10
3552.01171875
 20
-1868.96484375
 10
3561.796875
 20
-1868.96484375
 10
3571.58203125
 20
-1868.96484375
 10
3581.3671875
 20
-1868.96484375
 10
3591.15234375
 20
-1868.96484375
 10
3600.9375
 20
-1868.96484375
 10
3610.72265625
 20
-1868.96484375
 10
3620.5078125
 20
-1868.96484375
 10
3630.29296875
 20
-1868.96484375
 10
3640.078125
 20
-1868.96484375
 10
3649.86328125
 20
-1868.96484375
 10
3659.6484375
 20
-1868.96484375
 10
3669.43359375
 20
-1868.96484375
 10
3679.21875
 20
-1868.96484375
 10
3689.00390625
 20
-1868.96484375
 10
3698.7890625
 20
-1868.96484375
 10
3708.57421875
 20
-1868.96484375
 10
3718.359375
 20
-1868.96484375
 10
3728.14453125
 20
-1868.96484375
 10
3737.9296875
 20
-1868.96484375
 10
3747.71484375
 20
-1868.96484375
 10
3757.5
 20
-1868.96484375
 10
3767.28515625
 20
-1868.96484375
 10
3777.0703125
 20
-1868.96484375
 10
3786.85546875
 20
-1868.96484375
 10
3796.640625
 20
-1868.96484375
 10
3806.42578125
 20
-1868.96484375
 10
3816.2109375
 20
-1868.96484375
 10
3825.99609375
 20
-1868.96484375
 10
3835.78125
 20
-1868.96484375
 10
3845.56640625
 20
-1868.96484375
 10
3855.3515625
 20
-1868.96484375
 10
3865.13671875
 20
-1868.96484375
 10
3874.921875
 20
-1868.96484375
 10
3884.70703125
 20
-1868.96484375
 10
3894.4921875
 20
-1868.96484375
 10
3904.27734375
 20
-1868.96484375
 10
3914.0625
 20
-1868.96484375
 10
3923.84765625
 20
-1868.96484375
 10
3933.6328125
 20
-1868.96484375
 10
3943.41796875
 20
-1868.96484375
 10
3953.203125
 20
-1868.96484375
 10
3962.98828125
 20
-1868.96484375
 10
3972.7734375
 20
-1868.96484375
 10
3982.55859375
 20
-1868.96484375
 10
3992.34375
 20
-1868.96484375
 10
4002.12890625
 20
-1868.96484375
 10
4011.9140625
 20
-1868.96484375
 10
4021.69921875
 20
-1868.96484375
 10
4031.484375
 20
-1868.96484375
 10
4041.26953125
 20
-1868.96484375
 10
4051.0546875
 20
-1868.96484375
 10
4060.83984375
 20
-1868.96484375
 10
4070.625
 20
-1868.96484375
 10
4080.41015625
 20
-1868.96484375
 10
4090.1953125
 20
-1868.96484375
 10
4099.98046875
 20
-1868.96484375
 10
4109.765625
 20
-1868.96484375
 10
4119.55078125
 20
-1868.96484375
 10
4129.3359375
 20
-1868.96484375
 10
4139.12109375
 20
-1868.96484375
 10
4148.90625
 20
-1868.96484375
 10
4158.69140625
 20
-1868.96484375
 10
4168.4765625
 20
-1868.96484375
 10
4178.26171875
 20
-1868.96484375
 10
4188.046875
 20
-1868.96484375
 10
4197.83203125
 20
-1868.96484375
 10
4207.6171875
 20
-1868.96484375
 10
4217.40234375
 20
-1868.96484375
 10
4227.1875
 20
-1868.96484375
 10
4236.97265625
 20
-1868.96484375
 10
4246.7578125
 20
-1868.96484375
 10
4256.54296875
 20
-1868.96484375
 10
4266.328125
 20
-1868.96484375
 10
4276.11328125
 20
-1868.96484375
 10
4285.8984375
 20
-1868.96484375
 10
4295.68359375
 20
-1868.96484375
 10
4305.46875
 20
-1868.96484375
 10
4315.25390625
 20
-1868.96484375
 10
4325.0390625
 20
-1878.75
 10
4325.0390625
 20
-1888.53515625
 10
4325.0390625
 20
-1898.3203125
 10
4325.0390625
 20
-1908.10546875
 10
4325.0390625
 20
-1917.890625
 10
4325.0390625
 20
-1927.67578125
 10
4325.0390625
 20
-1937.4609375
 10
4325.0390625
 20
-1947.24609375
 10
4325.0390625
 20
-1957.03125
 10
4325.0390625
 20
-1966.81640625
 10
4325.0390625
 20
-1976.6015625
 10
4325.0390625
 20
-1986.38671875
 10
4325.0390625
 20
-1996.171875
 10
4325.0390625
 20
-2005.95703125
 10
4325.0390625
 20
-2015.7421875
 10
4325.0390625
 20
-2025.52734375
 10
4325.0390625
 20
-2035.3125
 10
4325.0390625
 20
-2045.09765625
 10
4325.0390625
 20
-2054.8828125
 10
4325.0390625
 20
-2064.66796875
 10
4325.0390625
 20
-2074.453125
 10
4325.0390625
 20
-2084.23828125
 10
4325.0390625
 20
-2094.0234375
 10
4325.0390625
 20
-2103.80859375
 10
4325.0390625
 20
-2113.59375
 10
4325.0390625
 20
-2123.37890625
 10
4325.0390625
 20
-2133.1640625
 10
4325.0390625
 20
-2142.94921875
 10
4325.0390625
 20
-2152.734375
 10
4325.0390625
 20
-2162.51953125
 10
4325.0390625
 20
-2172.3046875
 10
4325.0390625
 20
-2182.08984375
 10
4325.0390625
 20
-2191.875
 10
4325.0390625
 20
-2201.66015625
 10
4325.0390625
 20
-2211.4453125
 10
4325.0390625
 20
-2221.23046875
 10
4325.0390625
 20
-2231.015625
 10
4325.0390625
 20
-2240.80078125
 10
4325.0390625
 20
-2250.5859375
 10
4325.0390625
 20
-2260.37109375
 10
4325.0390625
 20
-2270.15625
 10
4325.0390625
 20
-2279.94140625
 10
4325.0390625
 20
-2289.7265625
 10
4325.0390625
 20
-2299.51171875
 10
4325.0390625
 20
-2309.296875
 10
4325.0390625
 20
-2319.08203125
 10
4325.0390625
 20
-2328.8671875
 10
4325.0390625
 20
-2338.65234375
 10
4325.0390625
 20
-2348.4375
 10
4325.0390625
 20
-2358.22265625
 10
4325.0390625
 20
-2368.0078125
 10
4325.0390625
 20
-2377.79296875
 10
4325.0390625
 20
-2387.578125
 10
4325.0390625
 20
-2397.36328125
 10
4325.0390625
 20
-2407.1484375
 10
4325.0390625
 20
-2416.93359375
 10
4325.0390625
 20
-2426.71875
 10
4325.0390625
 20
-2436.50390625
 10
4325.0390625
 20
-2446.2890625
 10
4325.0390625
 20
-2456.07421875
 10
4325.0390625
 20
-2465.859375
 10
4325.0390625
 20
-2475.64453125
 10
4325.0390625
 20
-2485.4296875
 10
4325.0390625
 20
-2495.21484375
 10
4325.0390625
 20
-2505.0
 10
4325.0390625
 20
-2514.78515625
 10
4325.0390625
 20
-2524.5703125
 10
4325.0390625
 20
-2534.35546875
 10
4325.0390625
 20
-2544.140625
 10
4325.0390625
 20
-2553.92578125
 10
4325.0390625
 20
-2563.7109375
 10
4325.0390625
 20
-2573.49609375
 10
4325.0390625
 20
-2583.28125
 10
4325.0390625
 20
-2593.06640625
 10
4325.0390625
 20
-2602.8515625
 10
4325.0390625
 20
-2612.63671875
 10
4325.0390625
 20
-2622.421875
 10
4325.0390625
 20
-2632.20703125
 10
4325.0390625
 20
-2641.9921875
 10
4325.0390625
 20
-2651.77734375
 10
4325.0390625
 20
-2661.5625
 10
4325.0390625
 20
-2671.34765625
 10
4325.0390625
 20
-2681.1328125
 10
4325.0390625
 20
-2690.91796875
 10
4325.0390625
 20
-2700.703125
 10
4325.0390625
 20
-2710.48828125
 10
4325.0390625
 20
-2720.2734375
 10
4325.0390625
 20
-2730.05859375
 10
4325.0390625
 20
-2739.84375
 10
4325.0390625
 20
-2749.62890625
 10
4325.0390625
 20
-2759.4140625
 10
4325.0390625
 20
-2769.19921875
 10
4325.0390625
 20
-2778.984375
 10
4325.0390625
 20
-2788.76953125
 10
4325.0390625
 20
-2798.5546875
 10
4325.0390625
 20
-2808.33984375
 10
4325.0390625
 20
-2818.125
 10
4325.0390625
 20
-2827.91015625
 10
4325.0390625
 20
-2837.6953125
 10
4325.0390625
 20
-2847.48046875
 10
4325.0390625
 20
-2857.265625
 10
4325.0390625
 20
-2867.05078125
 10
4325.0390625
 20
-2876.8359375
 10
4325.0390625
 20
-2886.62109375
 10
4325.0390625
 20
-2896.40625
 10
4325.0390625
 20
-2906.19140625
 10
4325.0390625
 20
-2915.9765625
 10
4325.0390625
 20
-2925.76171875
 10
4325.0390625
 20
-2935.546875
 10
4325.0390625
 20
-2945.33203125
 10
4325.0390625
 20
-2955.1171875
 10
4325.0390625
 20
-2964.90234375
 10
4325.0390625
 20
-2974.6875
 10
4325.0390625
 20
-2984.47265625
 10
4325.0390625
 20
-2994.2578125
 10
4325.0390625
 20
-3004.04296875
 10
4325.0390625
 20
-3013.828125
 10
4325.0390625
 20
-3023.61328125
 10
4325.0390625
 20
-3033.3984375
 10
4325.0390625
 20
-3043.18359375
 10
4325.0390625
 20
-3052.96875
 10
4325.0390625
 20
-3062.75390625
 10
4325.0390625
 20
-3072.5390625
 10
4325.0390625
 20
-3082.32421875
 10
4325.0390625
 20
-3092.109375
 10
4325.0390625
 20
-3101.89453125
 10
4325.0390625
 20
-3111.6796875
 10
4315.25390625
 20
-3121.46484375
 10
4305.46875
 20
-3131.25
 10
4295.68359375
 20
-3131.25
 10
4285.8984375
 20
-3131.25
 10
4276.11328125
 20
-3131.25
 10
4266.328125
 20
-3131.25
 10
4256.54296875
 20
-3131.25
 10
4246.7578125
 20
-3131.25
 10
4236.97265625
 20
-3131.25
 10
4227.1875
 20
-3131.25
 10
4217.40234375
 20
-3131.25
 10
4207.6171875
 20
-3131.25
 10
4197.83203125
 20
-3131.25
 10
4188.046875
 20
-3131.25
 10
4178.26171875
 20
-3131.25
 10
4168.4765625
 20
-3131.25
 10
4158.69140625
 20
-3131.25
 10
4148.90625
 20
-3131.25
 10
4139.12109375
 20
-3131.25
 10
4129.3359375
 20
-3131.25
 10
4119.55078125
 20
-3131.25
 10
4109.765625
 20
-3131.25
 10
4099.98046875
 20
-3131.25
 10
4090.1953125
 20
-3131.25
 10
4080.41015625
 20
-3131.25
 10
4070.625
 20
-3131.25
 10
4060.83984375
 20
-3131.25
 10
4051.0546875
 20
-3131.25
 10
4041.26953125
 20
-3131.25
 10
4031.484375
 20
-3141.03515625
 10
4021.69921875
 20
-3131.25
 10
4011.9140625
 20
-3131.25
 10
4002.12890625
 20
-3131.25
 10
3992.34375
 20
-3131.25
 10
3982.55859375
 20
-3131.25
 10
3972.7734375
 20
-3131.25
 10
3962.98828125
 20
-3131.25
 10
3953.203125
 20
-3131.25
 10
3943.41796875
 20
-3131.25
 10
3933.6328125
 20
-3131.25
 10
3923.84765625
 20
-3131.25
 10
3914.0625
 20
-3131.25
 10
3904.27734375
 20
-3131.25
 10
3894.4921875
 20
-3131.25
 10
3884.70703125
 20
-3131.25
 10
3874.921875
 20
-3131.25
 10
3865.13671875
 20
-3131.25
 10
3855.3515625
 20
-3131.25
 10
3845.56640625
 20
-3131.25
 10
3835.78125
 20
-3131.25
 10
3825.99609375
 20
-3131.25
 10
3816.2109375
 20
-3131.25
 10
3806.42578125
 20
-3131.25
 10
3796.640625
 20
-3131.25
 10
3786.85546875
 20
-3131.25
 10
3777.0703125
 20
-3131.25
 10
3767.28515625
 20
-3131.25
 10
3757.5
 20
-3131.25
 10
3747.71484375
 20
-3131.25
 10
3737.9296875
 20
-3131.25
 10
3728.14453125
 20
-3131.25
 10
3718.359375
 20
-3131.25
 10
3708.57421875
 20
-3131.25
 10
3698.7890625
 20
-3131.25
 10
3689.00390625
 20
-3131.25
 10
3679.21875
 20
-3131.25
 10
3669.43359375
 20
-3131.25
 10
3659.6484375
 20
-3131.25
 10
3649.86328125
 20
-3131.25
 10
3640.078125
 20
-3131.25
 10
3630.29296875
 20
-3131.25
 10
3620.5078125
 20
-3131.25
 10
3610.72265625
 20
-3131.25
 10
3600.9375
 20
-3141.03515625
 10
3591.15234375
 20
-3141.03515625
 10
3581.3671875
 20
-3131.25
 10
3571.58203125
 20
-3131.25
 10
3561.796875
 20
-3141.03515625
 10
3552.01171875
 20
-3131.25
 10
3542.2265625
 20
-3131.25
 10
3532.44140625
 20
-3141.03515625
 10
3522.65625
 20
-3141.03515625
 10
3512.87109375
 20
-3131.25
 10
3503.0859375
 20
-3131.25
 10
3493.30078125
 20
-3131.25
 10
3483.515625
 20
-3131.25
 10
3473.73046875
 20
-3131.25
 10
3463.9453125
 20
-3131.25
 10
3454.16015625
 20
-3131.25
 10
3444.375
 20
-3131.25
 10
3434.58984375
 20
-3131.25
 10
3424.8046875
 20
-3131.25
 10
3415.01953125
 20
-3131.25
 10
3405.234375
 20
-3131.25
 10
3395.44921875
 20
-3131.25
 10
3385.6640625
 20
-3131.25
 10
3375.87890625
 20
-3131.25
 10
3366.09375
 20
-3141.03515625
 10
3356.30859375
 20
-3131.25
 10
3346.5234375
 20
-3131.25
 10
3336.73828125
 20
-3131.25
 10
3326.953125
 20
-3141.03515625
 10
3317.16796875
 20
-3131.25
 10
3307.3828125
 20
-3131.25
 10
3297.59765625
 20
-3131.25
 10
3287.8125
 20
-3141.03515625
 10
3278.02734375
 20
-3131.25
 10
3268.2421875
 20
-3131.25
 10
3258.45703125
 20
-3141.03515625
 10
3248.671875
 20
-3141.03515625
 10
3238.88671875
 20
-3131.25
 10
3229.1015625
 20
-3131.25
 10
3219.31640625
 20
-3131.25
 10
3209.53125
 20
-3141.03515625
 10
3199.74609375
 20
-3141.03515625
 10
3189.9609375
 20
-3141.03515625
 10
3180.17578125
 20
-3141.03515625
 10
3170.390625
 20
-3141.03515625
 10
3160.60546875
 20
-3131.25
 10
3150.8203125
 20
-3131.25
 10
3141.03515625
 20
-3141.03515625
 10
3131.25
 20
-3141.03515625
 10
3131.25
 20
-3150.8203125
 10
3131.25
 20
-3160.60546875
 10
3131.25
 20
-3170.390625
 10
3141.03515625
 20
-3180.17578125
 10
3141.03515625
 20
-3189.9609375
 10
3141.03515625
 20
-3199.74609375
 10
3141.03515625
 20
-3209.53125
 10
3131.25
 20
-3219.31640625
 10
3131.25
 20
-3229.1015625
 10
3131.25
 20
-3238.88671875
 10
3131.25
 20
-3248.671875
 10
3131.25
 20
-3258.45703125
 10
3131.25
 20
-3268.2421875
 10
3131.25
 20
-3278.02734375
 10
3131.25
 20
-3287.8125
 10
3131.25
 20
-3297.59765625
 10
3131.25
 20
-3307.3828125
 10
3131.25
 20
-3317.16796875
 10
3131.25
 20
-3326.953125
 10
3131.25
 20
-3336.73828125
 10
3131.25
 20
-3346.5234375
 10
3131.25
 20
-3356.30859375
 10
3131.25
 20
-3366.09375
 10
3131.25
 20
-3375.87890625
 10
3131.25
 20
-3385.6640625
 10
3131.25
 20
-3395.44921875
 10
3131.25
 20
-3405.234375
 10
3131.25
 20
-3415.01953125
 10
3131.25
 20
-3424.8046875
 10
3131.25
 20
-3434.58984375
 10
3141.03515625
 20
-3444.375
 10
3141.03515625
 20
-3454.16015625
 10
3141.03515625
 20
-3463.9453125
 10
3141.03515625
 20
-3473.73046875
 10
3131.25
 20
-3483.515625
 10
3131.25
 20
-3493.30078125
 10
3141.03515625
 20
-3503.0859375
 10
3131.25
 20
-3512.87109375
 10
3131.25
 20
-3522.65625
 10
3141.03515625
 20
-3532.44140625
 10
3141.03515625
 20
-3542.2265625
 10
3141.03515625
 20
-3552.01171875
 10
3131.25
 20
-3561.796875
 10
3131.25
 20
-3571.58203125
 10
3131.25
 20
-3581.3671875
 10
3131.25
 20
-3591.15234375
 10
3141.03515625
 20
-3600.9375
 10
3141.03515625
 20
-3610.72265625
 10
3141.03515625
 20
-3620.5078125
 10
3141.03515625
 20
-3630.29296875
 10
3141.03515625
 20
-3640.078125
 10
3141.03515625
 20
-3649.86328125
 10
3141.03515625
 20
-3659.6484375
 10
3141.03515625
 20
-3669.43359375
 10
3141.03515625
 20
-3679.21875
 10
3131.25
 20
-3689.00390625
 10
3141.03515625
 20
-3698.7890625
 10
3131.25
 20
-3708.57421875
 10
3131.25
 20
-3718.359375
 10
3131.25
 20
-3728.14453125
 10
3141.03515625
 20
-3737.9296875
 10
3141.03515625
 20
-3747.71484375
 10
3141.03515625
 20
-3757.5
 10
3131.25
 20
-3767.28515625
 10
3141.03515625
 20
-3777.0703125
 10
3141.03515625
 20
-3786.85546875
 10
3141.03515625
 20
-3796.640625
 10
3141.03515625
 20
-3806.42578125
 10
3141.03515625
 20
-3816.2109375
 10
3141.03515625
 20
-3825.99609375
 10
3141.03515625
 20
-3835.78125
 10
3131.25
 20
-3845.56640625
 10
3141.03515625
 20
-3855.3515625
 10
3131.25
 20
-3865.13671875
 10
3141.03515625
 20
-3874.921875
 10
3141.03515625
 20
-3884.70703125
 10
3131.25
 20
-3894.4921875
 10
3131.25
 20
-3904.27734375
 10
3141.03515625
 20
-3914.0625
 10
3141.03515625
 20
-3923.84765625
 10
3141.03515625
 20
-3933.6328125
 10
3141.03515625
 20
-3943.41796875
 10
3141.03515625
 20
-3953.203125
 10
3141.03515625
 20
-3962.98828125
 10
3141.03515625
 20
-3972.7734375
 10
3141.03515625
 20
-3982.55859375
 10
3141.03515625
 20
-3992.34375
 10
3131.25
 20
-4002.12890625
 10
3131.25
 20
-4011.9140625
 10
3131.25
 20
-4021.69921875
 10
3131.25
 20
-4031.484375
 10
3131.25
 20
-4041.26953125
 10
3131.25
 20
-4051.0546875
 10
3131.25
 20
-4060.83984375
 10
3131.25
 20
-4070.625
 10
3141.03515625
 20
-4080.41015625
 10
3141.03515625
 20
-4090.1953125
 10
3141.03515625
 20
-4099.98046875
 10
3141.03515625
 20
-4109.765625
 10
3141.03515625
 20
-4119.55078125
 10
3141.03515625
 20
-4129.3359375
 10
3141.03515625
 20
-4139.12109375
 10
3141.03515625
 20
-4148.90625
 10
3141.03515625
 20
-4158.69140625
 10
3141.03515625
 20
-4168.4765625
 10
3141.03515625
 20
-4178.26171875
 10
3141.03515625
 20
-4188.046875
 10
3141.03515625
 20
-4197.83203125
 10
3141.03515625
 20
-4207.6171875
 10
3131.25
 20
-4217.40234375
 10
3141.03515625
 20
-4227.1875
 10
3141.03515625
 20
-4236.97265625
 10
3141.03515625
 20
-4246.7578125
 10
3141.03515625
 20
-4256.54296875
 10
3141.03515625
 20
-4266.328125
 10
3141.03515625
 20
-4276.11328125
 10
3141.03515625
 20
-4285.8984375
 10
3131.25
 20
-4295.68359375
 10
3131.25
 20
-4305.46875
 10
3141.03515625
 20
-4315.25390625
 10
3141.03515625
 20
-4325.0390625
 10
3131.25
 20
-4334.82421875
 10
3131.25
 20
-4344.609375
 10
3121.46484375
 20
-4354.39453125
 10
3111.6796875
 20
-4344.609375
 10
3101.89453125
 20
-4344.609375
 10
3092.109375
 20
-4354.39453125
 10
3082.32421875
 20
-4344.609375
 10
3072.5390625
 20
-4344.609375
 10
3062.75390625
 20
-4344.609375
 10
3052.96875
 20
-4344.609375
 10
3043.18359375
 20
-4344.609375
 10
3033.3984375
 20
-4344.609375
 10
3023.61328125
 20
-4344.609375
 10
3013.828125
 20
-4344.609375
 10
3004.04296875
 20
-4344.609375
 10
2994.2578125
 20
-4344.609375
 10
2984.47265625
 20
-4344.609375
 10
2974.6875
 20
-4344.609375
 10
2964.90234375
 20
-4344.609375
 10
2955.1171875
 20
-4344.609375
 10
2945.33203125
 20
-4344.609375
 10
2935.546875
 20
-4344.609375
 10
2925.76171875
 20
-4344.609375
 10
2915.9765625
 20
-4344.609375
 10
2906.19140625
 20
-4344.609375
 10
2896.40625
 20
-4344.609375
 10
2886.62109375
 20
-4344.609375
 10
2876.8359375
 20
-4344.609375
 10
2867.05078125
 20
-4344.609375
 10
2857.265625
 20
-4344.609375
 10
2847.48046875
 20
-4344.609375
 10
2837.6953125
 20
-4344.609375
 10
2827.91015625
 20
-4344.609375
 10
2818.125
 20
-4344.609375
 10
2808.33984375
 20
-4344.609375
 10
2798.5546875
 20
-4344.609375
 10
2788.76953125
 20
-4344.609375
 10
2778.984375
 20
-4344.609375
 10
2769.19921875
 20
-4344.609375
 10
2759.4140625
 20
-4344.609375
 10
2749.62890625
 20
-4344.609375
 10
2739.84375
 20
-4344.609375
 10
2730.05859375
 20
-4344.609375
 10
2720.2734375
 20
-4344.609375
 10
2710.48828125
 20
-4344.609375
 10
2700.703125
 20
-4344.609375
 10
2690.91796875
 20
-4344.609375
 10
2681.1328125
 20
-4344.609375
 10
2671.34765625
 20
-4344.609375
 10
2661.5625
 20
-4344.609375
 10
2651.77734375
 20
-4344.609375
 10
2641.9921875
 20
-4344.609375
 10
2632.20703125
 20
-4344.609375
 10
2622.421875
 20
-4344.609375
 10
2612.63671875
 20
-4344.609375
 10
2602.8515625
 20
-4344.609375
 10
2593.06640625
 20
-4344.609375
 10
2583.28125
 20
-4344.609375
 10
2573.49609375
 20
-4344.609375
 10
2563.7109375
 20
-4344.609375
 10
2553.92578125
 20
-4344.609375
 10
2544.140625
 20
-4344.609375
 10
2534.35546875
 20
-4344.609375
 10
2524.5703125
 20
-4344.609375
 10
2514.78515625
 20
-4344.609375
 10
2505.0
 20
-4344.609375
 10
2495.21484375
 20
-4344.609375
 10
2485.4296875
 20
-4344.609375
 10
2475.64453125
 20
-4344.609375
 10
2465.859375
 20
-4344.609375
 10
2456.07421875
 20
-4344.609375
 10
2446.2890625
 20
-4344.609375
 10
2436.50390625
 20
-4344.609375
 10
2426.71875
 20
-4344.609375
 10
2416.93359375
 20
-4344.609375
 10
2407.1484375
 20
-4344.609375
 10
2397.36328125
 20
-4344.609375
 10
2387.578125
 20
-4334.82421875
 10
2377.79296875
 20
-4344.609375
 10
2368.0078125
 20
-4334.82421875
 10
2358.22265625
 20
-4334.82421875
 10
2348.4375
 20
-4334.82421875
 10
2338.65234375
 20
-4334.82421875
 10
2328.8671875
 20
-4334.82421875
 10
2319.08203125
 20
-4334.82421875
 10
2309.296875
 20
-4334.82421875
 10
2299.51171875
 20
-4334.82421875
 10
2289.7265625
 20
-4334.82421875
 10
2279.94140625
 20
-4334.82421875
 10
2270.15625
 20
-4344.609375
 10
2260.37109375
 20
-4334.82421875
 10
2250.5859375
 20
-4344.609375
 10
2240.80078125
 20
-4344.609375
 10
2231.015625
 20
-4344.609375
 10
2221.23046875
 20
-4344.609375
 10
2211.4453125
 20
-4344.609375
 10
2201.66015625
 20
-4344.609375
 10
2191.875
 20
-4344.609375
 10
2182.08984375
 20
-4344.609375
 10
2172.3046875
 20
-4344.609375
 10
2162.51953125
 20
-4344.609375
 10
2152.734375
 20
-4344.609375
 10
2142.94921875
 20
-4344.609375
 10
2133.1640625
 20
-4344.609375
 10
2123.37890625
 20
-4344.609375
 10
2113.59375
 20
-4344.609375
 10
2103.80859375
 20
-4344.609375
 10
2094.0234375
 20
-4344.609375
 10
2084.23828125
 20
-4344.609375
 10
2074.453125
 20
-4344.609375
 10
2064.66796875
 20
-4334.82421875
 10
2054.8828125
 20
-4334.82421875
 10
2045.09765625
 20
-4344.609375
 10
2035.3125
 20
-4344.609375
 10
2025.52734375
 20
-4344.609375
 10
2015.7421875
 20
-4344.609375
 10
2005.95703125
 20
-4344.609375
 10
1996.171875
 20
-4344.609375
 10
1986.38671875
 20
-4344.609375
 10
1976.6015625
 20
-4334.82421875
 10
1966.81640625
 20
-4344.609375
 10
1957.03125
 20
-4344.609375
 10
1947.24609375
 20
-4344.609375
 10
1937.4609375
 20
-4344.609375
 10
1927.67578125
 20
-4344.609375
 10
1917.890625
 20
-4344.609375
 10
1908.10546875
 20
-4344.609375
 10
1898.3203125
 20
-4344.609375
 10
1888.53515625
 20
-4344.609375
 10
1878.75
 20
-4344.609375
 10
1868.96484375
 20
-4334.82421875
 10
1868.96484375
 20
-4325.0390625
 10
1859.1796875
 20
-4315.25390625
 10
1868.96484375
 20
-4305.46875
 10
1868.96484375
 20
-4295.68359375
 10
1859.1796875
 20
-4285.8984375
 10
1859.1796875
 20
-4276.11328125
 10
1859.1796875
 20
-4266.328125
 10
1859.1796875
 20
-4256.54296875
 10
1859.1796875
 20
-4246.7578125
 10
1859.1796875
 20
-4236.97265625
 10
1868.96484375
 20
-4227.1875
 10
1859.1796875
 20
-4217.40234375
 10
1859.1796875
 20
-4207.6171875
 10
1859.1796875
 20
-4197.83203125
 10
1859.1796875
 20
-4188.046875
 10
1859.1796875
 20
-4178.26171875
 10
1859.1796875
 20
-4168.4765625
 10
1859.1796875
 20
-4158.69140625
 10
1859.1796875
 20
-4148.90625
 10
1859.1796875
 20
-4139.12109375
 10
1859.1796875
 20
-4129.3359375
 10
1859.1796875
 20
-4119.55078125
 10
1859.1796875
 20
-4109.765625
 10
1859.1796875
 20
-4099.98046875
 10
1859.1796875
 20
-4090.1953125
 10
1859.1796875
 20
-4080.41015625
 10
1859.1796875
 20
-4070.625
 10
1859.1796875
 20
-4060.83984375
 10
1859.1796875
 20
-4051.0546875
 10
1859.1796875
 20
-4041.26953125
 10
1859.1796875
 20
-4031.484375
 10
1859.1796875
 20
-4021.69921875
 10
1859.1796875
 20
-4011.9140625
 10
1868.96484375
 20
-4002.12890625
 10
1868.96484375
 20
-3992.34375
 10
1868.96484375
 20
-3982.55859375
 10
1868.96484375
 20
-3972.7734375
 10
1868.96484375
 20
-3962.98828125
 10
1868.96484375
 20
-3953.203125
 10
1859.1796875
 20
-3943.41796875
 10
1859.1796875
 20
-3933.6328125
 10
1859.1796875
 20
-3923.84765625
 10
1859.1796875
 20
-3914.0625
 10
1859.1796875
 20
-3904.27734375
 10
1859.1796875
 20
-3894.4921875
 10
1859.1796875
 20
-3884.70703125
 10
1859.1796875
 20
-3874.921875
 10
1859.1796875
 20
-3865.13671875
 10
1859.1796875
 20
-3855.3515625
 10
1859.1796875
 20
-3845.56640625
 10
1859.1796875
 20
-3835.78125
 10
1859.1796875
 20
-3825.99609375
 10
1859.1796875
 20
-3816.2109375
 10
1859.1796875
 20
-3806.42578125
 10
1868.96484375
 20
-3796.640625
 10
1859.1796875
 20
-3786.85546875
 10
1859.1796875
 20
-3777.0703125
 10
1859.1796875
 20
-3767.28515625
 10
1859.1796875
 20
-3757.5
 10
1859.1796875
 20
-3747.71484375
 10
1859.1796875
 20
-3737.9296875
 10
1859.1796875
 20
-3728.14453125
 10
1868.96484375
 20
-3718.359375
 10
1868.96484375
 20
-3708.57421875
 10
1859.1796875
 20
-3698.7890625
 10
1868.96484375
 20
-3689.00390625
 10
1868.96484375
 20
-3679.21875
 10
1868.96484375
 20
-3669.43359375
 10
1868.96484375
 20
-3659.6484375
 10
1868.96484375
 20
-3649.86328125
 10
1868.96484375
 20
-3640.078125
 10
1859.1796875
 20
-3630.29296875
 10
1859.1796875
 20
-3620.5078125
 10
1859.1796875
 20
-3610.72265625
 10
1859.1796875
 20
-3600.9375
 10
1859.1796875
 20
-3591.15234375
 10
1859.1796875
 20
-3581.3671875
 10
1859.1796875
 20
-3571.58203125
 10
1859.1796875
 20
-3561.796875
 10
1859.1796875
 20
-3552.01171875
 10
1859.1796875
 20
-3542.2265625
 10
1859.1796875
 20
-3532.44140625
 10
1859.1796875
 20
-3522.65625
 10
1859.1796875
 20
-3512.87109375
 10
1859.1796875
 20
-3503.0859375
 10
1859.1796875
 20
-3493.30078125
 10
1859.1796875
 20
-3483.515625
 10
1859.1796875
 20
-3473.73046875
 10
1859.1796875
 20
-3463.9453125
 10
1859.1796875
 20
-3454.16015625
 10
1859.1796875
 20
-3444.375
 10
1859.1796875
 20
-3434.58984375
 10
1859.1796875
 20
-3424.8046875
 10
1859.1796875
 20
-3415.01953125
 10
1859.1796875
 20
-3405.234375
 10
1859.1796875
 20
-3395.44921875
 10
1859.1796875
 20
-3385.6640625
 10
1859.1796875
 20
-3375.87890625
 10
1859.1796875
 20
-3366.09375
 10
1859.1796875
 20
-3356.30859375
 10
1859.1796875
 20
-3346.5234375
 10
1859.1796875
 20
-3336.73828125
 10
1859.1796875
 20
-3326.953125
 10
1859.1796875
 20
-3317.16796875
 10
1859.1796875
 20
-3307.3828125
 10
1859.1796875
 20
-3297.59765625
 10
1859.1796875
 20
-3287.8125
 10
1859.1796875
 20
-3278.02734375
 10
1859.1796875
 20
-3268.2421875
 10
1859.1796875
 20
-3258.45703125
 10
1859.1796875
 20
-3248.671875
 10
1859.1796875
 20
-3238.88671875
 10
1859.1796875
 20
-3229.1015625
 10
1859.1796875
 20
-3219.31640625
 10
1859.1796875
 20
-3209.53125
 10
1859.1796875
 20
-3199.74609375
 10
1859.1796875
 20
-3189.9609375
 10
1859.1796875
 20
-3180.17578125
 10
1859.1796875
 20
-3170.390625
 10
1859.1796875
 20
-3160.60546875
 10
1859.1796875
 20
-3150.8203125
 10
1859.1796875
 20
-3141.03515625
 10
1849.39453125
 20
-3141.03515625
 10
1839.609375
 20
-3141.03515625
 10
1829.82421875
 20
-3141.03515625
 10
1820.0390625
 20
-3141.03515625
 10
1810.25390625
 20
-3141.03515625
 10
1800.46875
 20
-3141.03515625
 10
1790.68359375
 20
-3141.03515625
 10
1780.8984375
 20
-3141.03515625
 10
1771.11328125
 20
-3141.03515625
 10
1761.328125
 20
-3141.03515625
 10
1751.54296875
 20
-3141.03515625
 10
1741.7578125
 20
-3141.03515625
 10
1731.97265625
 20
-3141.03515625
 10
1722.1875
 20
-3141.03515625
 10
1712.40234375
 20
-3141.03515625
 10
1702.6171875
 20
-3141.03515625
 10
1692.83203125
 20
-3141.03515625
 10
1683.046875
 20
-3141.03515625
 10
1673.26171875
 20
-3141.03515625
 10
1663.4765625
 20
-3141.03515625
 10
1653.69140625
 20
-3141.03515625
 10
1643.90625
 20
-3141.03515625
 10
1634.12109375
 20
-3141.03515625
 10
1624.3359375
 20
-3141.03515625
 10
1614.55078125
 20
-3141.03515625
 10
1604.765625
 20
-3141.03515625
 10
1594.98046875
 20
-3141.03515625
 10
1585.1953125
 20
-3141.03515625
 10
1575.41015625
 20
-3141.03515625
 10
1565.625
 20
-3141.03515625
 10
1555.83984375
 20
-3141.03515625
 10
1546.0546875
 20
-3141.03515625
 10
1536.26953125
 20
-3141.03515625
 10
1526.484375
 20
-3141.03515625
 10
1516.69921875
 20
-3141.03515625
 10
1506.9140625
 20
-3141.03515625
 10
1497.12890625
 20
-3141.03515625
 10
1487.34375
 20
-3141.03515625
 10
1477.55859375
 20
-3141.03515625
 10
1467.7734375
 20
-3131.25
 10
1457.98828125
 20
-3141.03515625
 10
1448.203125
 20
-3141.03515625
 10
1438.41796875
 20
-3141.03515625
 10
1428.6328125
 20
-3141.03515625
 10
1418.84765625
 20
-3141.03515625
 10
1409.0625
 20
-3141.03515625
 10
1399.27734375
 20
-3141.03515625
 10
1389.4921875
 20
-3141.03515625
 10
1379.70703125
 20
-3141.03515625
 10
1369.921875
 20
-3141.03515625
 10
1360.13671875
 20
-3141.03515625
 10
1350.3515625
 20
-3141.03515625
 10
1340.56640625
 20
-3141.03515625
 10
1330.78125
 20
-3141.03515625
 10
1320.99609375
 20
-3141.03515625
 10
1311.2109375
 20
-3141.03515625
 10
1301.42578125
 20
-3141.03515625
 10
1291.640625
 20
-3131.25
 10
1281.85546875
 20
-3131.25
 10
1272.0703125
 20
-3131.25
 10
1262.28515625
 20
-3141.03515625
 10
1252.5
 20
-3141.03515625
 10
1242.71484375
 20
-3141.03515625
 10
1232.9296875
 20
-3141.03515625
 10
1223.14453125
 20
-3141.03515625
 10
1213.359375
 20
-3141.03515625
 10
1203.57421875
 20
-3141.03515625
 10
1193.7890625
 20
-3141.03515625
 10
1184.00390625
 20
-3141.03515625
 10
1174.21875
 20
-3141.03515625
 10
1164.43359375
 20
-3141.03515625
 10
1154.6484375
 20
-3141.03515625
 10
1144.86328125
 20
-3141.03515625
 10
1135.078125
 20
-3141.03515625
 10
1125.29296875
 20
-3141.03515625
 10
1115.5078125
 20
-3141.03515625
 10
1105.72265625
 20
-3141.03515625
 10
1095.9375
 20
-3141.03515625
 10
1086.15234375
 20
-3141.03515625
 10
1076.3671875
 20
-3141.03515625
 10
1066.58203125
 20
-3141.03515625
 10
1056.796875
 20
-3141.03515625
 10
1047.01171875
 20
-3141.03515625
 10
1037.2265625
 20
-3141.03515625
 10
1027.44140625
 20
-3141.03515625
 10
1017.65625
 20
-3141.03515625
 10
1007.87109375
 20
-3141.03515625
 10
998.0859375
 20
-3131.25
 10
988.30078125
 20
-3141.03515625
 10
978.515625
 20
-3141.03515625
 10
968.73046875
 20
-3141.03515625
 10
958.9453125
 20
-3131.25
 10
949.16015625
 20
-3131.25
 10
939.375
 20
-3131.25
 10
929.58984375
 20
-3131.25
 10
919.8046875
 20
-3131.25
 10
910.01953125
 20
-3131.25
 10
900.234375
 20
-3131.25
 10
890.44921875
 20
-3131.25
 10
880.6640625
 20
-3131.25
 10
870.87890625
 20
-3131.25
 10
861.09375
 20
-3131.25
 10
851.30859375
 20
-3131.25
 10
841.5234375
 20
-3131.25
 10
831.73828125
 20
-3131.25
 10
821.953125
 20
-3131.25
 10
812.16796875
 20
-3141.03515625
 10
802.3828125
 20
-3141.03515625
 10
792.59765625
 20
-3141.03515625
 10
782.8125
 20
-3141.03515625
 10
773.02734375
 20
-3141.03515625
 10
763.2421875
 20
-3141.03515625
 10
753.45703125
 20
-3141.03515625
 10
743.671875
 20
-3141.03515625
 10
733.88671875
 20
-3141.03515625
 10
724.1015625
 20
-3131.25
 10
714.31640625
 20
-3141.03515625
 10
704.53125
 20
-3141.03515625
 10
694.74609375
 20
-3141.03515625
 10
684.9609375
 20
-3131.25
 10
675.17578125
 20
-3131.25
 10
665.390625
 20
-3121.46484375
 10
665.390625
 20
-3111.6796875
 10
665.390625
 20
-3101.89453125
 10
665.390625
 20
-3092.109375
 10
665.390625
 20
-3082.32421875
 10
665.390625
 20
-3072.5390625
 10
665.390625
 20
-3062.75390625
 10
665.390625
 20
-3052.96875
 10
665.390625
 20
-3043.18359375
 10
665.390625
 20
-3033.3984375
 10
665.390625
 20
-3023.61328125
 10
665.390625
 20
-3013.828125
 10
665.390625
 20
-3004.04296875
 10
665.390625
 20
-2994.2578125
 10
665.390625
 20
-2984.47265625
 10
665.390625
 20
-2974.6875
 10
665.390625
 20
-2964.90234375
 10
665.390625
 20
-2955.1171875
 10
665.390625
 20
-2945.33203125
 10
665.390625
 20
-2935.546875
 10
665.390625
 20
-2925.76171875
 10
665.390625
 20
-2915.9765625
 10
665.390625
 20
-2906.19140625
 10
665.390625
 20
-2896.40625
 10
665.390625
 20
-2886.62109375
 10
665.390625
 20
-2876.8359375
 10
665.390625
 20
-2867.05078125
 10
665.390625
 20
-2857.265625
 10
665.390625
 20
-2847.48046875
 10
665.390625
 20
-2837.6953125
 10
665.390625
 20
-2827.91015625
 10
665.390625
 20
-2818.125
 10
665.390625
 20
-2808.33984375
 10
665.390625
 20
-2798.5546875
 10
665.390625
 20
-2788.76953125
 10
665.390625
 20
-2778.984375
 10
665.390625
 20
-2769.19921875
 10
665.390625
 20
-2759.4140625
 10
665.390625
 20
-2749.62890625
 10
665.390625
 20
-2739.84375
 10
665.390625
 20
-2730.05859375
 10
665.390625
 20
-2720.2734375
 10
665.390625
 20
-2710.48828125
 10
665.390625
 20
-2700.703125
 10
665.390625
 20
-2690.91796875
 10
665.390625
 20
-2681.1328125
 10
665.390625
 20
-2671.34765625
 10
665.390625
 20
-2661.5625
 10
665.390625
 20
-2651.77734375
 10
665.390625
 20
-2641.9921875
 10
665.390625
 20
-2632.20703125
 10
665.390625
 20
-2622.421875
 10
665.390625
 20
-2612.63671875
 10
665.390625
 20
-2602.8515625
 10
665.390625
 20
-2593.06640625
 10
665.390625
 20
-2583.28125
 10
665.390625
 20
-2573.49609375
 10
665.390625
 20
-2563.7109375
 10
665.390625
 20
-2553.92578125
 10
665.390625
 20
-2544.140625
 10
665.390625
 20
-2534.35546875
 10
665.390625
 20
-2524.5703125
 10
665.390625
 20
-2514.78515625
 10
665.390625
 20
-2505.0
 10
665.390625
 20
-2495.21484375
 10
665.390625
 20
-2485.4296875
 10
665.390625
 20
-2475.64453125
 10
665.390625
 20
-2465.859375
 10
665.390625
 20
-2456.07421875
 10
665.390625
 20
-2446.2890625
 10
665.390625
 20
-2436.50390625
 10
665.390625
 20
-2426.71875
 10
665.390625
 20
-2416.93359375
 10
665.390625
 20
-2407.1484375
 10
665.390625
 20
-2397.36328125
 10
665.390625
 20
-2387.578125
 10
665.390625
 20
-2377.79296875
 10
665.390625
 20
-2368.0078125
 10
665.390625
 20
-2358.22265625
 10
665.390625
 20
-2348.4375
 10
665.390625
 20
-2338.65234375
 10
665.390625
 20
-2328.8671875
 10
665.390625
 20
-2319.08203125
 10
665.390625
 20
-2309.296875
 10
665.390625
 20
-2299.51171875
 10
665.390625
 20
-2289.7265625
 10
665.390625
 20
-2279.94140625
 10
665.390625
 20
-2270.15625
 10
665.390625
 20
-2260.37109375
 10
665.390625
 20
-2250.5859375
 10
665.390625
 20
-2240.80078125
 10
665.390625
 20
-2231.015625
 10
665.390625
 20
-2221.23046875
 10
665.390625
 20
-2211.4453125
 10
665.390625
 20
-2201.66015625
 10
665.390625
 20
-2191.875
 10
665.390625
 20
-2182.08984375
 10
665.390625
 20
-2172.3046875
 10
665.390625
 20
-2162.51953125
 10
665.390625
 20
-2152.734375
 10
665.390625
 20
-2142.94921875
 10
665.390625
 20
-2133.1640625
 10
665.390625
 20
-2123.37890625
 10
665.390625
 20
-2113.59375
 10
665.390625
 20
-2103.80859375
 10
665.390625
 20
-2094.0234375
 10
665.390625
 20
-2084.23828125
 10
665.390625
 20
-2074.453125
 10
665.390625
 20
-2064.66796875
 10
665.390625
 20
-2054.8828125
 10
665.390625
 20
-2045.09765625
 10
665.390625
 20
-2035.3125
 10
665.390625
 20
-2025.52734375
 10
665.390625
 20
-2015.7421875
 10
665.390625
 20
-2005.95703125
 10
665.390625
 20
-1996.171875
 10
665.390625
 20
-1986.38671875
 10
665.390625
 20
-1976.6015625
 10
665.390625
 20
-1966.81640625
 10
665.390625
 20
-1957.03125
 10
665.390625
 20
-1947.24609375
 10
665.390625
 20
-1937.4609375
 10
665.390625
 20
-1927.67578125
 10
665.390625
 20
-1917.890625
 10
655.60546875
 20
-1908.10546875
 10
665.390625
 20
-1898.3203125
 10
665.390625
 20
-1888.53515625
 10
665.390625
 20
-1878.75
 10
675.17578125
 20
-1868.96484375
 10
684.9609375
 20
-1868.96484375
 10
694.74609375
 20
-1868.96484375
 10
704.53125
 20
-1868.96484375
 10
714.31640625
 20
-1868.96484375
 10
724.1015625
 20
-1868.96484375
 10
733.88671875
 20
-1868.96484375
 10
743.671875
 20
-1868.96484375
 10
753.45703125
 20
-1868.96484375
 10
763.2421875
 20
-1868.96484375
 10
773.02734375
 20
-1868.96484375
 10
782.8125
 20
-1868.96484375
 10
792.59765625
 20
-1868.96484375
 10
802.3828125
 20
-1868.96484375
 10
812.16796875
 20
-1868.96484375
 10
821.953125
 20
-1868.96484375
 10
831.73828125
 20
-1868.96484375
 10
841.5234375
 20
-1868.96484375
 10
851.30859375
 20
-1868.96484375
 10
861.09375
 20
-1868.96484375
 10
870.87890625
 20
-1868.96484375
 10
880.6640625
 20
-1868.96484375
 10
890.44921875
 20
-1868.96484375
 10
900.234375
 20
-1868.96484375
 10
910.01953125
 20
-1868.96484375
 10
919.8046875
 20
-1868.96484375
 10
929.58984375
 20
-1868.96484375
 10
939.375
 20
-1868.96484375
 10
949.16015625
 20
-1868.96484375
 10
958.9453125
 20
-1868.96484375
 10
968.73046875
 20
-1868.96484375
 10
978.515625
 20
-1868.96484375
 10
988.30078125
 20
-1868.96484375
 10
998.0859375
 20
-1868.96484375
 10
1007.87109375
 20
-1868.96484375
 10
1017.65625
 20
-1868.96484375
 10
1027.44140625
 20
-1868.96484375
 10
1037.2265625
 20
-1868.96484375
 10
1047.01171875
 20
-1868.96484375
 10
1056.796875
 20
-1868.96484375
 10
1066.58203125
 20
-1868.96484375
 10
1076.3671875
 20
-1868.96484375
 10
1086.15234375
 20
-1868.96484375
 10
1095.9375
 20
-1868.96484375
 10
1105.72265625
 20
-1868.96484375
 10
1115.5078125
 20
-1868.96484375
 10
1125.29296875
 20
-1868.96484375
 10
1135.078125
 20
-1868.96484375
 10
1144.86328125
 20
-1868.96484375
 10
1154.6484375
 20
-1868.96484375
 10
1164.43359375
 20
-1868.96484375
 10
1174.21875
 20
-1868.96484375
 10
1184.00390625
 20
-1859.1796875
 10
1193.7890625
 20
-1868.96484375
 10
1203.57421875
 20
-1859.1796875
 10
1213.359375
 20
-1868.96484375
 10
1223.14453125
 20
-1868.96484375
 10
1232.9296875
 20
-1868.96484375
 10
1242.71484375
 20
-1868.96484375
 10
1252.5
 20
-1868.96484375
 10
1262.28515625
 20
-1868.96484375
 10
1272.0703125
 20
-1868.96484375
 10
1281.85546875
 20
-1868.96484375
 10
1291.640625
 20
-1868.96484375
 10
1301.42578125
 20
-1868.96484375
 10
1311.2109375
 20
-1868.96484375
 10
1320.99609375
 20
-1868.96484375
 10
1330.78125
 20
-1868.96484375
 10
1340.56640625
 20
-1868.96484375
 10
1350.3515625
 20
-1868.96484375
 10
1360.13671875
 20
-1868.96484375
 10
1369.921875
 20
-1868.96484375
 10
1379.70703125
 20
-1859.1796875
 10
1389.4921875
 20
-1868.96484375
 10
1399.27734375
 20
-1859.1796875
 10
1409.0625
 20
-1868.96484375
 10
1418.84765625
 20
-1868.96484375
 10
1428.6328125
 20
-1868.96484375
 10
1438.41796875
 20
-1868.96484375
 10
1448.203125
 20
-1868.96484375
 10
1457.98828125
 20
-1868.96484375
 10
1467.7734375
 20
-1868.96484375
 10
1477.55859375
 20
-1868.96484375
 10
1487.34375
 20
-1868.96484375
 10
1497.12890625
 20
-1859.1796875
 10
1506.9140625
 20
-1868.96484375
 10
1516.69921875
 20
-1868.96484375
 10
1526.484375
 20
-1868.96484375
 10
1536.26953125
 20
-1868.96484375
 10
1546.0546875
 20
-1868.96484375
 10
1555.83984375
 20
-1868.96484375
 10
1565.625
 20
-1868.96484375
 10
1575.41015625
 20
-1868.96484375
 10
1585.1953125
 20
-1868.96484375
 10
1594.98046875
 20
-1859.1796875
 10
1604.765625
 20
-1859.1796875
 10
1614.55078125
 20
-1859.1796875
 10
1624.3359375
 20
-1868.96484375
 10
1634.12109375
 20
-1868.96484375
 10
1643.90625
 20
-1868.96484375
 10
1653.69140625
 20
-1868.96484375
 10
1663.4765625
 20
-1868.96484375
 10
1673.26171875
 20
-1868.96484375
 10
1683.046875
 20
-1868.96484375
 10
1692.83203125
 20
-1868.96484375
 10
1702.6171875
 20
-1868.96484375
 10
1712.40234375
 20
-1868.96484375
 10
1722.1875
 20
-1868.96484375
 10
1731.97265625
 20
-1868.96484375
 10
1741.7578125
 20
-1868.96484375
 10
1751.54296875
 20
-1868.96484375
 10
1761.328125
 20
-1868.96484375
 10
1771.11328125
 20
-1868.96484375
 10
1780.8984375
 20
-1868.96484375
 10
1790.68359375
 20
-1868.96484375
 10
1800.46875
 20
-1868.96484375
 10
1810.25390625
 20
-1868.96484375
 10
1820.0390625
 20
-1868.96484375
 10
1829.82421875
 20
-1868.96484375
 10
1839.609375
 20
-1868.96484375
 10
1849.39453125
 20
-1868.96484375
 10
1859.1796875
 20
-1868.96484375
 10
1868.96484375
 20
-1868.96484375
 10
1868.96484375
 20
-1859.1796875
 10
1868.96484375
 20
-1849.39453125
 10
1868.96484375
 20
-1839.609375
 10
1868.96484375
 20
-1829.82421875
 10
1868.96484375
 20
-1820.0390625
 10
1868.96484375
 20
-1810.25390625
 10
1868.96484375
 20
-1800.46875
 10
1868.96484375
 20
-1790.68359375
 10
1868.96484375
 20
-1780.8984375
 10
1868.96484375
 20
-1771.11328125
 10
1868.96484375
 20
-1761.328125
 10
1868.96484375
 20
-1751.54296875
 10
1868.96484375
 20
-1741.7578125
 10
1868.96484375
 20
-1731.97265625
 10
1868.96484375
 20
-1722.1875
 10
1868.96484375
 20
-1712.40234375
 10
1868.96484375
 20
-1702.6171875
 10
1868.96484375
 20
-1692.83203125
 10
1868.96484375
 20
-1683.046875
 10
1868.96484375
 20
-1673.26171875
 10
1868.96484375
 20
-1663.4765625
 10
1868.96484375
 20
-1653.69140625
 10
1868.96484375
 20
-1643.90625
 10
1868.96484375
 20
-1634.12109375
 10
1868.96484375
 20
-1624.3359375
 10
1868.96484375
 20
-1614.55078125
 10
1868.96484375
 20
-1604.765625
 10
1868.96484375
 20
-1594.98046875
 10
1868.96484375
 20
-1585.1953125
 10
1868.96484375
 20
-1575.41015625
 10
1868.96484375
 20
-1565.625
 10
1868.96484375
 20
-1555.83984375
 10
1868.96484375
 20
-1546.0546875
 10
1868.96484375
 20
-1536.26953125
 10
1868.96484375
 20
-1526.484375
 10
1868.96484375
 20
-1516.69921875
 10
1868.96484375
 20
-1506.9140625
 10
1868.96484375
 20
-1497.12890625
 10
1868.96484375
 20
-1487.34375
 10
1868.96484375
 20
-1477.55859375
 10
1868.96484375
 20
-1467.7734375
 10
1868.96484375
 20
-1457.98828125
 10
1868.96484375
 20
-1448.203125
 10
1868.96484375
 20
-1438.41796875
 10
1868.96484375
 20
-1428.6328125
 10
1859.1796875
 20
-1418.84765625
 10
1859.1796875
 20
-1409.0625
 10
1859.1796875
 20
-1399.27734375
 10
1868.96484375
 20
-1389.4921875
 10
1868.96484375
 20
-1379.70703125
 10
1868.96484375
 20
-1369.921875
 10
1868.96484375
 20
-1360.13671875
 10
1868.96484375
 20
-1350.3515625
 10
1868.96484375
 20
-1340.56640625
 10
1868.96484375
 20
-1330.78125
 10
1868.96484375
 20
-1320.99609375
 10
1868.96484375
 20
-1311.2109375
 10
1868.96484375
 20
-1301.42578125
 10
1868.96484375
 20
-1291.640625
 10
1868.96484375
 20
-1281.85546875
 10
1868.96484375
 20
-1272.0703125
 10
1868.96484375
 20
-1262.28515625
 10
1868.96484375
 20
-1252.5
 10
1868.96484375
 20
-1242.71484375
 10
1868.96484375
 20
-1232.9296875
 10
1868.96484375
 20
-1223.14453125
 10
1868.96484375
 20
-1213.359375
 10
1868.96484375
 20
-1203.57421875
 10
1868.96484375
 20
-1193.7890625
 10
1868.96484375
 20
-1184.00390625
 10
1868.96484375
 20
-1174.21875
 10
1868.96484375
 20
-1164.43359375
 10
1868.96484375
 20
-1154.6484375
 10
1868.96484375
 20
-1144.86328125
 10
1868.96484375
 20
-1135.078125
 10
1868.96484375
 20
-1125.29296875
 10
1868.96484375
 20
-1115.5078125
 10
1868.96484375
 20
-1105.72265625
 10
1868.96484375
 20
-1095.9375
 10
1868.96484375
 20
-1086.15234375
 10
1868.96484375
 20
-1076.3671875
 10
1868.96484375
 20
-1066.58203125
 10
1868.96484375
 20
-1056.796875
 10
1868.96484375
 20
-1047.01171875
 10
1868.96484375
 20
-1037.2265625
 10
1868.96484375
 20
-1027.44140625
 10
1868.96484375
 20
-1017.65625
 10
1868.96484375
 20
-1007.87109375
 10
1868.96484375
 20
-998.0859375
 10
1868.96484375
 20
-988.30078125
 10
1868.96484375
 20
-978.515625
 10
1868.96484375
 20
-968.73046875
 10
1868.96484375
 20
-958.9453125
 10
1868.96484375
 20
-949.16015625
 10
1868.96484375
 20
-939.375
 10
1868.96484375
 20
-929.58984375
 10
1859.1796875
 20
-919.8046875
 10
1868.96484375
 20
-910.01953125
 10
1868.96484375
 20
-900.234375
 10
1859.1796875
 20
-890.44921875
 10
1868.96484375
 20
-880.6640625
 10
1868.96484375
 20
-870.87890625
 10
1868.96484375
 20
-861.09375
 10
1868.96484375
 20
-851.30859375
 10
1868.96484375
 20
-841.5234375
 10
1868.96484375
 20
-831.73828125
 10
1868.96484375
 20
-821.953125
 10
1868.96484375
 20
-812.16796875
 10
1868.96484375
 20
-802.3828125
 10
1868.96484375
 20
-792.59765625
 10
1868.96484375
 20
-782.8125
 10
1868.96484375
 20
-773.02734375
 10
1868.96484375
 20
-763.2421875
 10
1868.96484375
 20
-753.45703125
 10
1868.96484375
 20
-743.671875
 10
1868.96484375
 20
-733.88671875
 10
1868.96484375
 20
-724.1015625
 10
1868.96484375
 20
-714.31640625
 10
1868.96484375
 20
-704.53125
 10
1868.96484375
 20
-694.74609375
 10
1868.96484375
 20
-684.9609375
 10
1878.75
 20
-675.17578125
 10
1888.53515625
 20
-675.17578125
 10
1898.3203125
 20
-675.17578125
 10
1908.10546875
 20
-675.17578125
 10
1917.890625
 20
-675.17578125
 10
1927.67578125
 20
-675.17578125
 10
1937.4609375
 20
-675.17578125
 10
1947.24609375
 20
-675.17578125
 10
1957.03125
 20
-675.17578125
 10
1966.81640625
 20
-675.17578125
 10
1976.6015625
 20
-684.9609375
 10
1986.38671875
 20
-684.9609375
 10
1996.171875
 20
-684.9609375
 10
2005.95703125
 20
-684.9609375
 10
2015.7421875
 20
-684.9609375
 10
2025.52734375
 20
-675.17578125
 10
2035.3125
 20
-675.17578125
 10
2045.09765625
 20
-675.17578125
 10
2054.8828125
 20
-675.17578125
 10
2064.66796875
 20
-675.17578125
 10
2074.453125
 20
-675.17578125
 10
2084.23828125
 20
-675.17578125
 10
2094.0234375
 20
-684.9609375
 10
2103.80859375
 20
-684.9609375
 10
2113.59375
 20
-684.9609375
 10
2123.37890625
 20
-684.9609375
 10
2133.1640625
 20
-684.9609375
 10
2142.94921875
 20
-684.9609375
 10
2152.734375
 20
-675.17578125
 10
2162.51953125
 20
-675.17578125
 10
2172.3046875
 20
-684.9609375
 10
2182.08984375
 20
-684.9609375
 10
2191.875
 20
-675.17578125
 10
2201.66015625
 20
-684.9609375
 10
2211.4453125
 20
-684.9609375
 10
2221.23046875
 20
-684.9609375
 10
2231.015625
 20
-675.17578125
 10
2240.80078125
 20
-675.17578125
 10
2250.5859375
 20
-684.9609375
 10
2260.37109375
 20
-675.17578125
 10
2270.15625
 20
-675.17578125
 10
2279.94140625
 20
-675.17578125
 10
2289.7265625
 20
-675.17578125
 10
2299.51171875
 20
-675.17578125
 10
2309.296875
 20
-675.17578125
 10
2319.08203125
 20
-675.17578125
 10
2328.8671875
 20
-675.17578125
 10
2338.65234375
 20
-675.17578125
 10
2348.4375
 20
-675.17578125
 10
2358.22265625
 20
-675.17578125
 10
2368.0078125
 20
-675.17578125
 10
2377.79296875
 20
-675.17578125
 10
2387.578125
 20
-675.17578125
 10
2397.36328125
 20
-675.17578125
 10
2407.1484375
 20
-675.17578125
 10
2416.93359375
 20
-675.17578125
 10
2426.71875
 20
-675.17578125
 10
2436.50390625
 20
-675.17578125
 10
2446.2890625
 20
-675.17578125
 10
2456.07421875
 20
-675.17578125
 10
2465.859375
 20
-675.17578125
 10
2475.64453125
 20
-675.17578125
 10
2485.4296875
 20
-675.17578125
 10
2495.21484375
 20
-675.17578125
 10
2505.0
 20
-675.17578125
 10
2514.78515625
 20
-675.17578125
 10
2524.5703125
 20
-675.17578125
 10
2534.35546875
 20
-675.17578125
 10
2544.140625
 20
-675.17578125
 10
2553.92578125
 20
-675.17578125
 10
2563.7109375
 20
-684.9609375
 10
2573.49609375
 20
-675.17578125
 10
2583.28125
 20
-684.9609375
 10
2593.06640625
 20
-684.9609375
 10
2602.8515625
 20
-684.9609375
 10
2612.63671875
 20
-684.9609375
 10
2622.421875
 20
-684.9609375
 10
2632.20703125
 20
-684.9609375
 10
2641.9921875
 20
-684.9609375
 10
2651.77734375
 20
-675.17578125
 10
2661.5625
 20
-675.17578125
 10
2671.34765625
 20
-675.17578125
 10
2681.1328125
 20
-675.17578125
 10
2690.91796875
 20
-675.17578125
 10
2700.703125
 20
-675.17578125
 10
2710.48828125
 20
-675.17578125
 10
2720.2734375
 20
-675.17578125
 10
2730.05859375
 20
-684.9609375
 10
2739.84375
 20
-684.9609375
 10
2749.62890625
 20
-675.17578125
 10
2759.4140625
 20
-684.9609375
 10
2769.19921875
 20
-684.9609375
 10
2778.984375
 20
-684.9609375
 10
2788.76953125
 20
-684.9609375
 10
2798.5546875
 20
-684.9609375
 10
2808.33984375
 20
-684.9609375
 10
2818.125
 20
-675.17578125
 10
2827.91015625
 20
-684.9609375
 10
2837.6953125
 20
-684.9609375
 10
2847.48046875
 20
-684.9609375
 10
2857.265625
 20
-684.9609375
 10
2867.05078125
 20
-684.9609375
 10
2876.8359375
 20
-684.9609375
 10
2886.62109375
 20
-684.9609375
 10
2896.40625
 20
-684.9609375
 10
2906.19140625
 20
-684.9609375
 10
2915.9765625
 20
-684.9609375
 10
2925.76171875
 20
-684.9609375
 10
2935.546875
 20
-684.9609375
 10
2945.33203125
 20
-675.17578125
 10
2955.1171875
 20
-684.9609375
 10
2964.90234375
 20
-684.9609375
 10
2974.6875
 20
-675.17578125
 10
2984.47265625
 20
-684.9609375
 10
2994.2578125
 20
-684.9609375
 10
3004.04296875
 20
-684.9609375
 10
3013.828125
 20
-675.17578125
 10
3023.61328125
 20
-675.17578125
 10
3033.3984375
 20
-675.17578125
 10
3043.18359375
 20
-675.17578125
 10
3052.96875
 20
-675.17578125
 10
3062.75390625
 20
-675.17578125
 10
3072.5390625
 20
-684.9609375
  0
LWPOLYLINE
  5
39
330
17
100
AcDbEntity
  8
substrate
100
AcDbPolyline
 90
10
 70
1
 43
0.5
 10
2602.8515625
 20
-3865.13671875
 10
2602.8515625
 20
-3874.921875
 10
2602.8515625
 20
-3884.70703125
 10
2593.06640625
 20
-3894.4921875
 10
2602.8515625
 20
-3904.27734375
 10
2612.63671875
 20
-3904.27734375
 10
2622.421875
 20
-3904.27734375
 10
2632.20703125
 20
-3894.4921875
 10
2622.421875
 20
-3884.70703125
 10
2612.63671875
 20
-3874.921875
  0
ENDSEC
  0
SECTION
  2
OBJECTS
  0
DICTIONARY
  5
A
330
0
100
AcDbDictionary
280
0
281
1
  3
ACAD_COLOR
350
B
  3
ACAD_GROUP
350
C
  3
ACAD_LAYOUT
350
D
  3
ACAD_MATERIAL
350
E
  3
ACAD_MLEADERSTYLE
350
F
  3
ACAD_MLINESTYLE
350
10
  3
ACAD_PLOTSETTINGS
350
11
  3
ACAD_PLOTSTYLENAME
350
12
  3
ACAD_SCALELIST
350
14
  3
ACAD_TABLESTYLE
350
15
  3
ACAD_VISUALSTYLE
350
16
  3
EZDXF_META
350
2D
  0
DICTIONARY
  5
B
330
A
100
AcDbDictionary
280
0
281
1
  0
DICTIONARY
  5
C
330
A
100
AcDbDictionary
280
0
281
1
  0
DICTIONARY
  5
D
330
A
100
AcDbDictionary
280
0
281
1
  3
Model
350
1A
  3
Layout1
350
1E
  0
DICTIONARY
  5
E
330
A
100
AcDbDictionary
280
0
281
1
  3
ByBlock
350
1F
  3
ByLayer
350
20
  3
Global
350
21
  0
DICTIONARY
  5
F
330
A
100
AcDbDictionary
280
0
281
1
  3
Standard
350
2C
  0
DICTIONARY
  5
10
330
A
100
AcDbDictionary
280
0
281
1
  3
Standard
350
22
  0
DICTIONARY
  5
11
330
A
100
AcDbDictionary
280
0
281
1
  0
ACDBDICTIONARYWDFLT
  5
12
330
A
100
AcDbDictionary
280
0
281
1
  3
Normal
350
13
100
AcDbDictionaryWithDefault
340
13
  0
ACDBPLACEHOLDER
  5
13
330
12
  0
DICTIONARY
  5
14
330
A
100
AcDbDictionary
280
0
281
1
  0
DICTIONARY
  5
15
330
A
100
AcDbDictionary
280
0
281
1
  0
DICTIONARY
  5
16
330
A
100
AcDbDictionary
280
0
281
1
  0
LAYOUT
  5
1A
330
D
100
AcDbPlotSettings
  1

  2
Adobe PDF
  4
A3
  6

 40
7.5
 41
20.0
 42
7.5
 43
20.0
 44
420.0
 45
297.0
 46
0.0
 47
0.0
 48
0.0
 49
0.0
140
0.0
141
0.0
142
1.0
143
1.0
 70
1024
 72
1
 73
0
 74
5
  7

 75
16
 76
0
 77
2
 78
300
147
1.0
148
0.0
149
0.0
100
AcDbLayout
  1
Model
 70
1
 71
0
 10
0.0
 20
0.0
 11
420.0
 21
297.0
 12
0.0
 22
0.0
 32
0.0
 14
1e+20
 24
1e+20
 34
1e+20
 15
-1e+20
 25
-1e+20
 35
-1e+20
146
0.0
 13
0.0
 23
0.0
 33
0.0
 16
1.0
 26
0.0
 36
0.0
 17
0.0
 27
1.0
 37
0.0
 76
1
330
17
  0
LAYOUT
  5
1E
330
D
100
AcDbPlotSettings
  1

  2
Adobe PDF
  4
A3
  6

 40
7.5
 41
20.0
 42
7.5
 43
20.0
 44
420.0
 45
297.0
 46
0.0
 47
0.0
 48
0.0
 49
0.0
140
0.0
141
0.0
142
1.0
143
1.0
 70
0
 72
1
 73
0
 74
5
  7

 75
16
 76
0
 77
2
 78
300
147
1.0
148
0.0
149
0.0
100
AcDbLayout
  1
Layout1
 70
1
 71
1
 10
0.0
 20
0.0
 11
420.0
 21
297.0
 12
0.0
 22
0.0
 32
0.0
 14
1e+20
 24
1e+20
 34
1e+20
 15
-1e+20
 25
-1e+20
 35
-1e+20
146
0.0
 13
0.0
 23
0.0
 33
0.0
 16
1.0
 26
0.0
 36
0.0
 17
0.0
 27
1.0
 37
0.0
 76
1
330
1B
  0
MATERIAL
  5
1F
102
{ACAD_REACTORS
330
E
102
}
330
E
100
AcDbMaterial
  1
ByBlock
  2

 70
0
 40
1.0
 71
1
 41
1.0
 91
-1023410177
 42
1.0
 72
1
  3

 73
1
 74
1
 75
1
 44
0.5
 73
0
 45
1.0
 46
1.0
 77
1
  4

 78
1
 79
1
170
1
 48
1.0
171
1
  6

172
1
173
1
174
1
140
1.0
141
1.0
175
1
  7

176
1
177
1
178
1
143
1.0
179
1
  8

270
1
271
1
272
1
145
1.0
146
1.0
273
1
  9

274
1
275
1
276
1
 42
1.0
 72
1
  3

 73
1
 74
1
 75
1
 94
63
  0
MATERIAL
  5
20
102
{ACAD_REACTORS
330
E
102
}
330
E
100
AcDbMaterial
  1
ByLayer
  2

 70
0
 40
1.0
 71
1
 41
1.0
 91
-1023410177
 42
1.0
 72
1
  3

 73
1
 74
1
 75
1
 44
0.5
 73
0
 45
1.0
 46
1.0
 77
1
  4

 78
1
 79
1
170
1
 48
1.0
171
1
  6

172
1
173
1
174
1
140
1.0
141
1.0
175
1
  7

176
1
177
1
178
1
143
1.0
179
1
  8

270
1
271
1
272
1
145
1.0
146
1.0
273
1
  9

274
1
275
1
276
1
 42
1.0
 72
1
  3

 73
1
 74
1
 75
1
 94
63
  0
MATERIAL
  5
21
102
{ACAD_REACTORS
330
E
102
}
330
E
100
AcDbMaterial
  1
Global
  2

 70
0
 40
1.0
 71
1
 41
1.0
 91
-1023410177
 42
1.0
 72
1
  3

 73
1
 74
1
 75
1
 44
0.5
 73
0
 45
1.0
 46
1.0
 77
1
  4

 78
1
 79
1
170
1
 48
1.0
171
1
  6

172
1
173
1
174
1
140
1.0
141
1.0
175
1
  7

176
1
177
1
178
1
143
1.0
179
1
  8

270
1
271
1
272
1
145
1.0
146
1.0
273
1
  9

274
1
275
1
276
1
 42
1.0
 72
1
  3

 73
1
 74
1
 75
1
 94
63
  0
MLINESTYLE
  5
22
102
{ACAD_REACTORS
330
10
102
}
330
10
100
AcDbMlineStyle
  2
Standard
 70
0
  3

 62
256
 51
90.0
 52
90.0
 71
2
 49
0.5
 62
256
  6
BYLAYER
 49
-0.5
 62
256
  6
BYLAYER
  0
MLEADERSTYLE
  5
2C
102
{ACAD_REACTORS
330
F
102
}
330
F
100
AcDbMLeaderStyle
179
2
170
2
171
1
172
0
 90
2
 40
0.0
 41
0.0
173
1
 91
-1056964608
 92
-2
290
1
 42
2.0
291
1
 43
8.0
  3
Standard
 44
4.0
300

342
29
174
1
175
1
176
0
178
1
 93
-1056964608
 45
4.0
292
0
297
0
 46
4.0
 94
-1056964608
 47
1.0
 49
1.0
140
1.0
294
1
141
0.0
177
0
142
1.0
295
0
296
0
143
3.75
271
0
272
9
273
9
  0
DICTIONARY
  5
2D
330
A
100
AcDbDictionary
281
1
  3
CREATED_BY_EZDXF
350
2E
  3
WRITTEN_BY_EZDXF
350
3C
  0
DICTIONARYVAR
  5
2E
330
2D
100
DictionaryVariables
280
0
  1
1.1.0 @ 2025-01-07T12:34:29.311753+00:00
  0
DICTIONARYVAR
  5
3C
330
2D
100
DictionaryVariables
280
0
  1
1.1.0 @ 2025-01-07T12:34:29.320576+00:00
  0
ENDSEC
  0
EOF
