  0
SECTION
  2
HEADER
  9
$ACADVER
  1
AC1027
  9
$ACADMAINTVER
 70
105
  9
$DWGCODEPAGE
  3
ANSI_1252
  9
$LASTSAVEDBY
  1
ezdxf
  9
$REQUIREDVERSIONS
160
0
  9
$INSBASE
 10
0.0
 20
0.0
 30
0.0
  9
$EXTMIN
 10
1e+20
 20
1e+20
 30
1e+20
  9
$EXTMAX
 10
-1e+20
 20
-1e+20
 30
-1e+20
  9
$LIMMIN
 10
0.0
 20
0.0
  9
$LIMMAX
 10
420.0
 20
297.0
  9
$ORTHOMODE
 70
0
  9
$REGENMODE
 70
1
  9
$FILLMODE
 70
1
  9
$QTEXTMODE
 70
0
  9
$MIRRTEXT
 70
1
  9
$LTSCALE
 40
1.0
  9
$ATTMODE
 70
1
  9
$TEXTSIZE
 40
2.5
  9
$TRACEWID
 40
1.0
  9
$TEXTSTYLE
  7
Standard
  9
$CLAYER
  8
0
  9
$CELTYPE
  6
ByLayer
  9
$CECOLOR
 62
256
  9
$CELTSCALE
 40
1.0
  9
$DISPSILH
 70
0
  9
$DIMSCALE
 40
1.0
  9
$DIMASZ
 40
2.5
  9
$DIMEXO
 40
0.625
  9
$DIMDLI
 40
3.75
  9
$DIMRND
 40
0.0
  9
$DIMDLE
 40
0.0
  9
$DIMEXE
 40
1.25
  9
$DIMTP
 40
0.0
  9
$DIMTM
 40
0.0
  9
$DIMTXT
 40
2.5
  9
$DIMCEN
 40
2.5
  9
$DIMTSZ
 40
0.0
  9
$DIMTOL
 70
0
  9
$DIMLIM
 70
0
  9
$DIMTIH
 70
0
  9
$DIMTOH
 70
0
  9
$DIMSE1
 70
0
  9
$DIMSE2
 70
0
  9
$DIMTAD
 70
1
  9
$DIMZIN
 70
8
  9
$DIMBLK
  1

  9
$DIMASO
 70
1
  9
$DIMSHO
 70
1
  9
$DIMPOST
  1

  9
$DIMAPOST
  1

  9
$DIMALT
 70
0
  9
$DIMALTD
 70
3
  9
$DIMALTF
 40
0.03937007874
  9
$DIMLFAC
 40
1.0
  9
$DIMTOFL
 70
1
  9
$DIMTVP
 40
0.0
  9
$DIMTIX
 70
0
  9
$DIMSOXD
 70
0
  9
$DIMSAH
 70
0
  9
$DIMBLK1
  1

  9
$DIMBLK2
  1

  9
$DIMSTYLE
  2
ISO-25
  9
$DIMCLRD
 70
0
  9
$DIMCLRE
 70
0
  9
$DIMCLRT
 70
0
  9
$DIMTFAC
 40
1.0
  9
$DIMGAP
 40
0.625
  9
$DIMJUST
 70
0
  9
$DIMSD1
 70
0
  9
$DIMSD2
 70
0
  9
$DIMTOLJ
 70
0
  9
$DIMTZIN
 70
8
  9
$DIMALTZ
 70
0
  9
$DIMALTTZ
 70
0
  9
$DIMUPT
 70
0
  9
$DIMDEC
 70
2
  9
$DIMTDEC
 70
2
  9
$DIMALTU
 70
2
  9
$DIMALTTD
 70
3
  9
$DIMTXSTY
  7
Standard
  9
$DIMAUNIT
 70
0
  9
$DIMADEC
 70
0
  9
$DIMALTRND
 40
0.0
  9
$DIMAZIN
 70
0
  9
$DIMDSEP
 70
44
  9
$DIMATFIT
 70
3
  9
$DIMFRAC
 70
0
  9
$DIMLDRBLK
  1

  9
$DIMLUNIT
 70
2
  9
$DIMLWD
 70
-2
  9
$DIMLWE
 70
-2
  9
$DIMTMOVE
 70
0
  9
$DIMFXL
 40
1.0
  9
$DIMFXLON
 70
0
  9
$DIMJOGANG
 40
0.785398163397
  9
$DIMTFILL
 70
0
  9
$DIMTFILLCLR
 70
0
  9
$DIMARCSYM
 70
0
  9
$DIMLTYPE
  6

  9
$DIMLTEX1
  6

  9
$DIMLTEX2
  6

  9
$DIMTXTDIRECTION
 70
0
  9
$LUNITS
 70
2
  9
$LUPREC
 70
4
  9
$SKETCHINC
 40
1.0
  9
$FILLETRAD
 40
10.0
  9
$AUNITS
 70
0
  9
$AUPREC
 70
2
  9
$MENU
  1
.
  9
$ELEVATION
 40
0.0
  9
$PELEVATION
 40
0.0
  9
$THICKNESS
 40
0.0
  9
$LIMCHECK
 70
0
  9
$CHAMFERA
 40
0.0
  9
$CHAMFERB
 40
0.0
  9
$CHAMFERC
 40
0.0
  9
$CHAMFERD
 40
0.0
  9
$SKPOLY
 70
0
  9
$TDCREATE
 40
2460683.3974074074
  9
$TDUCREATE
 40
2458532.153996898
  9
$TDUPDATE
 40
2460683.3974074074
  9
$TDUUPDATE
 40
2458532.1544311
  9
$TDINDWG
 40
0.0
  9
$TDUSRTIMER
 40
0.0
  9
$USRTIMER
 70
1
  9
$ANGBASE
 50
0.0
  9
$ANGDIR
 70
0
  9
$PDMODE
 70
0
  9
$PDSIZE
 40
0.0
  9
$PLINEWID
 40
0.0
  9
$SPLFRAME
 70
0
  9
$SPLINETYPE
 70
6
  9
$SPLINESEGS
 70
8
  9
$HANDSEED
  5
39
  9
$SURFTAB1
 70
6
  9
$SURFTAB2
 70
6
  9
$SURFTYPE
 70
6
  9
$SURFU
 70
6
  9
$SURFV
 70
6
  9
$UCSBASE
  2

  9
$UCSNAME
  2

  9
$UCSORG
 10
0.0
 20
0.0
 30
0.0
  9
$UCSXDIR
 10
1.0
 20
0.0
 30
0.0
  9
$UCSYDIR
 10
0.0
 20
1.0
 30
0.0
  9
$UCSORTHOREF
  2

  9
$UCSORTHOVIEW
 70
0
  9
$UCSORGTOP
 10
0.0
 20
0.0
 30
0.0
  9
$UCSORGBOTTOM
 10
0.0
 20
0.0
 30
0.0
  9
$UCSORGLEFT
 10
0.0
 20
0.0
 30
0.0
  9
$UCSORGRIGHT
 10
0.0
 20
0.0
 30
0.0
  9
$UCSORGFRONT
 10
0.0
 20
0.0
 30
0.0
  9
$UCSORGBACK
 10
0.0
 20
0.0
 30
0.0
  9
$PUCSBASE
  2

  9
$PUCSNAME
  2

  9
$PUCSORG
 10
0.0
 20
0.0
 30
0.0
  9
$PUCSXDIR
 10
1.0
 20
0.0
 30
0.0
  9
$PUCSYDIR
 10
0.0
 20
1.0
 30
0.0
  9
$PUCSORTHOREF
  2

  9
$PUCSORTHOVIEW
 70
0
  9
$PUCSORGTOP
 10
0.0
 20
0.0
 30
0.0
  9
$PUCSORGBOTTOM
 10
0.0
 20
0.0
 30
0.0
  9
$PUCSORGLEFT
 10
0.0
 20
0.0
 30
0.0
  9
$PUCSORGRIGHT
 10
0.0
 20
0.0
 30
0.0
  9
$PUCSORGFRONT
 10
0.0
 20
0.0
 30
0.0
  9
$PUCSORGBACK
 10
0.0
 20
0.0
 30
0.0
  9
$USERI1
 70
0
  9
$USERI2
 70
0
  9
$USERI3
 70
0
  9
$USERI4
 70
0
  9
$USERI5
 70
0
  9
$USERR1
 40
0.0
  9
$USERR2
 40
0.0
  9
$USERR3
 40
0.0
  9
$USERR4
 40
0.0
  9
$USERR5
 40
0.0
  9
$WORLDVIEW
 70
1
  9
$SHADEDGE
 70
3
  9
$SHADEDIF
 70
70
  9
$TILEMODE
 70
1
  9
$MAXACTVP
 70
64
  9
$PINSBASE
 10
0.0
 20
0.0
 30
0.0
  9
$PLIMCHECK
 70
0
  9
$PEXTMIN
 10
1e+20
 20
1e+20
 30
1e+20
  9
$PEXTMAX
 10
-1e+20
 20
-1e+20
 30
-1e+20
  9
$PLIMMIN
 10
0.0
 20
0.0
  9
$PLIMMAX
 10
420.0
 20
297.0
  9
$UNITMODE
 70
0
  9
$VISRETAIN
 70
1
  9
$PLINEGEN
 70
0
  9
$PSLTSCALE
 70
1
  9
$TREEDEPTH
 70
3020
  9
$CMLSTYLE
  2
Standard
  9
$CMLJUST
 70
0
  9
$CMLSCALE
 40
20.0
  9
$PROXYGRAPHICS
 70
1
  9
$MEASUREMENT
 70
1
  9
$CELWEIGHT
370
-1
  9
$ENDCAPS
280
0
  9
$JOINSTYLE
280
0
  9
$LWDISPLAY
290
0
  9
$INSUNITS
 70
6
  9
$HYPERLINKBASE
  1

  9
$STYLESHEET
  1

  9
$XEDIT
290
1
  9
$CEPSNTYPE
380
0
  9
$PSTYLEMODE
290
1
  9
$FINGERPRINTGUID
  2
{44A53DFC-B0E8-48D9-B8D3-2D16B7DF7082}
  9
$VERSIONGUID
  2
{35BF8D6A-4129-4AB5-A329-B65E0B8B3515}
  9
$EXTNAMES
290
1
  9
$PSVPSCALE
 40
0.0
  9
$OLESTARTUP
290
0
  9
$SORTENTS
280
127
  9
$INDEXCTL
280
0
  9
$HIDETEXT
280
1
  9
$XCLIPFRAME
280
0
  9
$HALOGAP
280
0
  9
$OBSCOLOR
 70
257
  9
$OBSLTYPE
280
0
  9
$INTERSECTIONDISPLAY
280
0
  9
$INTERSECTIONCOLOR
 70
257
  9
$DIMASSOC
280
2
  9
$PROJECTNAME
  1

  9
$CAMERADISPLAY
290
0
  9
$LENSLENGTH
 40
50.0
  9
$CAMERAHEIGHT
 40
0.0
  9
$STEPSPERSEC
 40
24.0
  9
$STEPSIZE
 40
100.0
  9
$3DDWFPREC
 40
2.0
  9
$PSOLWIDTH
 40
0.005
  9
$PSOLHEIGHT
 40
0.08
  9
$LOFTANG1
 40
1.570796326795
  9
$LOFTANG2
 40
1.570796326795
  9
$LOFTMAG1
 40
0.0
  9
$LOFTMAG2
 40
0.0
  9
$LOFTPARAM
 70
7
  9
$LOFTNORMALS
280
1
  9
$LATITUDE
 40
37.795
  9
$LONGITUDE
 40
-122.394
  9
$NORTHDIRECTION
 40
0.0
  9
$TIMEZONE
 70
-8000
  9
$LIGHTGLYPHDISPLAY
280
1
  9
$TILEMODELIGHTSYNCH
280
1
  9
$CMATERIAL
347
20
  9
$SOLIDHIST
280
0
  9
$SHOWHIST
280
1
  9
$DWFFRAME
280
2
  9
$DGNFRAME
280
2
  9
$REALWORLDSCALE
290
1
  9
$INTERFERECOLOR
 62
256
  9
$CSHADOW
280
0
  9
$SHADOWPLANELOCATION
 40
0.0
  0
ENDSEC
  0
SECTION
  2
CLASSES
  0
CLASS
  1
ACDBDICTIONARYWDFLT
  2
AcDbDictionaryWithDefault
  3
ObjectDBX Classes
 90
0
 91
0
280
0
281
0
  0
CLASS
  1
SUN
  2
AcDbSun
  3
SCENEOE
 90
1153
 91
0
280
0
281
0
  0
CLASS
  1
VISUALSTYLE
  2
AcDbVisualStyle
  3
ObjectDBX Classes
 90
4095
 91
0
280
0
281
0
  0
CLASS
  1
MATERIAL
  2
AcDbMaterial
  3
ObjectDBX Classes
 90
1153
 91
0
280
0
281
0
  0
CLASS
  1
SCALE
  2
AcDbScale
  3
ObjectDBX Classes
 90
1153
 91
0
280
0
281
0
  0
CLASS
  1
TABLESTYLE
  2
AcDbTableStyle
  3
ObjectDBX Classes
 90
4095
 91
0
280
0
281
0
  0
CLASS
  1
MLEADERSTYLE
  2
AcDbMLeaderStyle
  3
ACDB_MLEADERSTYLE_CLASS
 90
4095
 91
0
280
0
281
0
  0
CLASS
  1
DICTIONARYVAR
  2
AcDbDictionaryVar
  3
ObjectDBX Classes
 90
0
 91
0
280
0
281
0
  0
CLASS
  1
CELLSTYLEMAP
  2
AcDbCellStyleMap
  3
ObjectDBX Classes
 90
1152
 91
0
280
0
281
0
  0
CLASS
  1
MENTALRAYRENDERSETTINGS
  2
AcDbMentalRayRenderSettings
  3
SCENEOE
 90
1024
 91
0
280
0
281
0
  0
CLASS
  1
ACDBDETAILVIEWSTYLE
  2
AcDbDetailViewStyle
  3
ObjectDBX Classes
 90
1025
 91
0
280
0
281
0
  0
CLASS
  1
ACDBSECTIONVIEWSTYLE
  2
AcDbSectionViewStyle
  3
ObjectDBX Classes
 90
1025
 91
0
280
0
281
0
  0
CLASS
  1
RASTERVARIABLES
  2
AcDbRasterVariables
  3
ISM
 90
0
 91
0
280
0
281
0
  0
CLASS
  1
LAYOUT
  2
AcDbLayout
  3
ObjectDBX Classes
 90
0
 91
0
280
0
281
0
  0
CLASS
  1
ACDBPLACEHOLDER
  2
AcDbPlaceHolder
  3
ObjectDBX Classes
 90
0
 91
0
280
0
281
0
  0
ENDSEC
  0
SECTION
  2
TABLES
  0
TABLE
  2
VPORT
  5
8
330
0
100
AcDbSymbolTable
 70
1
  0
VPORT
  5
23
330
8
100
AcDbSymbolTableRecord
100
AcDbViewportTableRecord
  2
*Active
 70
0
 10
0.0
 20
0.0
 11
1.0
 21
1.0
 12
0.0
 22
0.0
 13
0.0
 23
0.0
 14
0.5
 24
0.5
 15
0.5
 25
0.5
 16
0.0
 26
0.0
 36
1.0
 17
0.0
 27
0.0
 37
0.0
 40
1000.0
 41
1.34
 42
50.0
 43
0.0
 44
0.0
 50
0.0
 51
0.0
 71
0
 72
1000
 73
1
 74
3
 75
0
 76
0
 77
0
 78
0
281
0
 65
0
146
0.0
  0
ENDTAB
  0
TABLE
  2
LTYPE
  5
2
330
0
100
AcDbSymbolTable
 70
3
  0
LTYPE
  5
24
330
2
100
AcDbSymbolTableRecord
100
AcDbLinetypeTableRecord
  2
ByBlock
 70
0
  3

 72
65
 73
0
 40
0.0
  0
LTYPE
  5
25
330
2
100
AcDbSymbolTableRecord
100
AcDbLinetypeTableRecord
  2
ByLayer
 70
0
  3

 72
65
 73
0
 40
0.0
  0
LTYPE
  5
26
330
2
100
AcDbSymbolTableRecord
100
AcDbLinetypeTableRecord
  2
Continuous
 70
0
  3

 72
65
 73
0
 40
0.0
  0
ENDTAB
  0
TABLE
  2
LAYER
  5
1
330
0
100
AcDbSymbolTable
 70
5
  0
LAYER
  5
27
330
1
100
AcDbSymbolTableRecord
100
AcDbLayerTableRecord
  2
0
 70
0
 62
7
  6
Continuous
370
-3
390
13
347
21
  0
LAYER
  5
28
330
1
100
AcDbSymbolTableRecord
100
AcDbLayerTableRecord
  2
Defpoints
 70
0
 62
7
  6
Continuous
290
0
370
-3
390
13
347
21
  0
LAYER
  5
2F
330
1
100
AcDbSymbolTableRecord
100
AcDbLayerTableRecord
  2
conductor
 70
0
 62
1
  6
Continuous
370
-3
390
13
347
21
  0
LAYER
  5
30
330
1
100
AcDbSymbolTableRecord
100
AcDbLayerTableRecord
  2
dielectric
 70
0
 62
8
  6
Continuous
370
-3
390
13
347
21
  0
LAYER
  5
31
330
1
100
AcDbSymbolTableRecord
100
AcDbLayerTableRecord
  2
substrate
 70
0
 62
5
  6
Continuous
370
-3
390
13
347
21
  0
ENDTAB
  0
TABLE
  2
STYLE
  5
5
330
0
100
AcDbSymbolTable
 70
1
  0
STYLE
  5
29
330
5
100
AcDbSymbolTableRecord
100
AcDbTextStyleTableRecord
  2
Standard
 70
0
 40
0.0
 41
1.0
 50
0.0
 71
0
 42
2.5
  3
txt
  4

  0
ENDTAB
  0
TABLE
  2
VIEW
  5
7
330
0
100
AcDbSymbolTable
 70
0
  0
ENDTAB
  0
TABLE
  2
UCS
  5
6
330
0
100
AcDbSymbolTable
 70
0
  0
ENDTAB
  0
TABLE
  2
APPID
  5
3
330
0
100
AcDbSymbolTable
 70
3
  0
APPID
  5
2A
330
3
100
AcDbSymbolTableRecord
100
AcDbRegAppTableRecord
  2
ACAD
 70
0
  0
APPID
  5
36
330
3
100
AcDbSymbolTableRecord
100
AcDbRegAppTableRecord
  2
HATCHBACKGROUNDCOLOR
 70
0
  0
APPID
  5
37
330
3
100
AcDbSymbolTableRecord
100
AcDbRegAppTableRecord
  2
EZDXF
 70
0
  0
ENDTAB
  0
TABLE
  2
DIMSTYLE
  5
4
330
0
100
AcDbSymbolTable
 70
1
100
AcDbDimStyleTable
  0
DIMSTYLE
105
2B
330
4
100
AcDbSymbolTableRecord
100
AcDbDimStyleTableRecord
  2
Standard
 70
0
 40
1.0
 41
2.5
 42
0.625
 43
3.75
 44
1.25
 45
0.0
 46
0.0
 47
0.0
 48
0.0
 49
2.5
140
2.5
141
2.5
142
0.0
143
0.03937007874
144
1.0
145
0.0
146
1.0
147
0.625
148
0.0
 69
0
 70
0
 71
0
 72
0
 73
0
 74
0
 75
0
 76
0
 77
1
 78
8
 79
3
170
0
171
3
172
1
173
0
174
0
175
0
176
0
177
0
178
0
179
2
271
2
272
2
273
2
274
3
275
0
276
0
277
2
278
44
279
0
280
0
281
0
282
0
283
0
284
8
285
0
286
0
288
0
289
3
290
0
371
-2
372
-2
  0
ENDTAB
  0
TABLE
  2
BLOCK_RECORD
  5
9
330
0
100
AcDbSymbolTable
 70
2
  0
BLOCK_RECORD
  5
17
330
9
100
AcDbSymbolTableRecord
100
AcDbBlockTableRecord
  2
*Model_Space
340
1A
 70
0
280
1
281
0
  0
BLOCK_RECORD
  5
1B
330
9
100
AcDbSymbolTableRecord
100
AcDbBlockTableRecord
  2
*Paper_Space
340
1E
 70
0
280
1
281
0
  0
ENDTAB
  0
ENDSEC
  0
SECTION
  2
BLOCKS
  0
BLOCK
  5
18
330
17
100
AcDbEntity
  8
0
100
AcDbBlockBegin
  2
*Model_Space
 70
0
 10
0.0
 20
0.0
 30
0.0
  3
*Model_Space
  1

  0
ENDBLK
  5
19
330
17
100
AcDbEntity
  8
0
100
AcDbBlockEnd
  0
BLOCK
  5
1C
330
1B
100
AcDbEntity
  8
0
100
AcDbBlockBegin
  2
*Paper_Space
 70
0
 10
0.0
 20
0.0
 30
0.0
  3
*Paper_Space
  1

  0
ENDBLK
  5
1D
330
1B
100
AcDbEntity
  8
0
100
AcDbBlockEnd
  0
ENDSEC
  0
SECTION
  2
ENTITIES
  0
LWPOLYLINE
  5
32
330
17
100
AcDbEntity
  8
conductor
100
AcDbPolyline
 90
230
 70
1
 43
0.5
 10
2400.515625
 20
-2082.375
 10
2390.875
 20
-2092.015625
 10
2381.234375
 20
-2092.015625
 10
2371.59375
 20
-2092.015625
 10
2361.953125
 20
-2092.015625
 10
2352.3125
 20
-2092.015625
 10
2342.671875
 20
-2101.65625
 10
2333.03125
 20
-2101.65625
 10
2323.390625
 20
-2111.296875
 10
2313.75
 20
-2111.296875
 10
2304.109375
 20
-2111.296875
 10
2294.46875
 20
-2120.9375
 10
2284.828125
 20
-2120.9375
 10
2275.1875
 20
-2130.578125
 10
2265.546875
 20
-2130.578125
 10
2255.90625
 20
-2140.21875
 10
2246.265625
 20
-2140.21875
 10
2236.625
 20
-2149.859375
 10
2226.984375
 20
-2159.5
 10
2217.34375
 20
-2169.140625
 10
2207.703125
 20
-2169.140625
 10
2207.703125
 20
-2178.78125
 10
2198.0625
 20
-2188.421875
 10
2188.421875
 20
-2188.421875
 10
2188.421875
 20
-2198.0625
 10
2178.78125
 20
-2207.703125
 10
2169.140625
 20
-2217.34375
 10
2159.5
 20
-2226.984375
 10
2149.859375
 20
-2236.625
 10
2140.21875
 20
-2246.265625
 10
2140.21875
 20
-2255.90625
 10
2130.578125
 20
-2265.546875
 10
2130.578125
 20
-2275.1875
 10
2130.578125
 20
-2284.828125
 10
2120.9375
 20
-2294.46875
 10
2111.296875
 20
-2304.109375
 10
2111.296875
 20
-2313.75
 10
2101.65625
 20
-2323.390625
 10
2101.65625
 20
-2333.03125
 10
2101.65625
 20
-2342.671875
 10
2092.015625
 20
-2352.3125
 10
2092.015625
 20
-2361.953125
 10
2092.015625
 20
-2371.59375
 10
2092.015625
 20
-2381.234375
 10
2092.015625
 20
-2390.875
 10
2082.375
 20
-2400.515625
 10
2082.375
 20
-2410.15625
 10
2072.734375
 20
-2419.796875
 10
2082.375
 20
-2429.4375
 10
2082.375
 20
-2439.078125
 10
2082.375
 20
-2448.71875
 10
2082.375
 20
-2458.359375
 10
2082.375
 20
-2468.0
 10
2082.375
 20
-2477.640625
 10
2082.375
 20
-2487.28125
 10
2082.375
 20
-2496.921875
 10
2082.375
 20
-2506.5625
 10
2072.734375
 20
-2516.203125
 10
2082.375
 20
-2525.84375
 10
2082.375
 20
-2535.484375
 10
2082.375
 20
-2545.125
 10
2082.375
 20
-2554.765625
 10
2092.015625
 20
-2564.40625
 10
2092.015625
 20
-2574.046875
 10
2101.65625
 20
-2583.6875
 10
2101.65625
 20
-2593.328125
 10
2101.65625
 20
-2602.96875
 10
2111.296875
 20
-2612.609375
 10
2111.296875
 20
-2622.25
 10
2120.9375
 20
-2631.890625
 10
2120.9375
 20
-2641.53125
 10
2120.9375
 20
-2651.171875
 10
2130.578125
 20
-2660.8125
 10
2140.21875
 20
-2670.453125
 10
2140.21875
 20
-2680.09375
 10
2140.21875
 20
-2689.734375
 10
2149.859375
 20
-2699.375
 10
2159.5
 20
-2709.015625
 10
2169.140625
 20
-2718.65625
 10
2178.78125
 20
-2718.65625
 10
2188.421875
 20
-2728.296875
 10
2188.421875
 20
-2737.9375
 10
2198.0625
 20
-2747.578125
 10
2207.703125
 20
-2757.21875
 10
2217.34375
 20
-2757.21875
 10
2226.984375
 20
-2766.859375
 10
2236.625
 20
-2776.5
 10
2246.265625
 20
-2786.140625
 10
2255.90625
 20
-2786.140625
 10
2265.546875
 20
-2795.78125
 10
2275.1875
 20
-2805.421875
 10
2284.828125
 20
-2815.0625
 10
2294.46875
 20
-2815.0625
 10
2304.109375
 20
-2815.0625
 10
2313.75
 20
-2824.703125
 10
2323.390625
 20
-2824.703125
 10
2333.03125
 20
-2834.34375
 10
2342.671875
 20
-2834.34375
 10
2352.3125
 20
-2834.34375
 10
2361.953125
 20
-2834.34375
 10
2371.59375
 20
-2834.34375
 10
2381.234375
 20
-2843.984375
 10
2390.875
 20
-2843.984375
 10
2400.515625
 20
-2843.984375
 10
2410.15625
 20
-2853.625
 10
2419.796875
 20
-2853.625
 10
2429.4375
 20
-2853.625
 10
2439.078125
 20
-2853.625
 10
2448.71875
 20
-2853.625
 10
2458.359375
 20
-2853.625
 10
2468.0
 20
-2853.625
 10
2477.640625
 20
-2853.625
 10
2487.28125
 20
-2853.625
 10
2496.921875
 20
-2853.625
 10
2506.5625
 20
-2853.625
 10
2516.203125
 20
-2853.625
 10
2525.84375
 20
-2843.984375
 10
2535.484375
 20
-2853.625
 10
2545.125
 20
-2843.984375
 10
2554.765625
 20
-2843.984375
 10
2564.40625
 20
-2834.34375
 10
2574.046875
 20
-2834.34375
 10
2583.6875
 20
-2834.34375
 10
2593.328125
 20
-2824.703125
 10
2602.96875
 20
-2824.703125
 10
2612.609375
 20
-2824.703125
 10
2622.25
 20
-2824.703125
 10
2631.890625
 20
-2815.0625
 10
2641.53125
 20
-2815.0625
 10
2651.171875
 20
-2805.421875
 10
2660.8125
 20
-2805.421875
 10
2670.453125
 20
-2795.78125
 10
2680.09375
 20
-2786.140625
 10
2689.734375
 20
-2776.5
 10
2699.375
 20
-2766.859375
 10
2709.015625
 20
-2757.21875
 10
2718.65625
 20
-2757.21875
 10
2728.296875
 20
-2747.578125
 10
2737.9375
 20
-2737.9375
 10
2747.578125
 20
-2728.296875
 10
2757.21875
 20
-2718.65625
 10
2766.859375
 20
-2709.015625
 10
2776.5
 20
-2699.375
 10
2776.5
 20
-2689.734375
 10
2786.140625
 20
-2680.09375
 10
2786.140625
 20
-2670.453125
 10
2795.78125
 20
-2660.8125
 10
2805.421875
 20
-2651.171875
 10
2805.421875
 20
-2641.53125
 10
2815.0625
 20
-2631.890625
 10
2815.0625
 20
-2622.25
 10
2815.0625
 20
-2612.609375
 10
2824.703125
 20
-2602.96875
 10
2834.34375
 20
-2593.328125
 10
2834.34375
 20
-2583.6875
 10
2834.34375
 20
-2574.046875
 10
2834.34375
 20
-2564.40625
 10
2843.984375
 20
-2554.765625
 10
2843.984375
 20
-2545.125
 10
2843.984375
 20
-2535.484375
 10
2843.984375
 20
-2525.84375
 10
2843.984375
 20
-2516.203125
 10
2843.984375
 20
-2506.5625
 10
2843.984375
 20
-2496.921875
 10
2853.625
 20
-2487.28125
 10
2853.625
 20
-2477.640625
 10
2853.625
 20
-2468.0
 10
2853.625
 20
-2458.359375
 10
2853.625
 20
-2448.71875
 10
2853.625
 20
-2439.078125
 10
2843.984375
 20
-2429.4375
 10
2843.984375
 20
-2419.796875
 10
2843.984375
 20
-2410.15625
 10
2843.984375
 20
-2400.515625
 10
2843.984375
 20
-2390.875
 10
2834.34375
 20
-2381.234375
 10
2834.34375
 20
-2371.59375
 10
2834.34375
 20
-2361.953125
 10
2834.34375
 20
-2352.3125
 10
2834.34375
 20
-2342.671875
 10
2834.34375
 20
-2333.03125
 10
2824.703125
 20
-2323.390625
 10
2824.703125
 20
-2313.75
 10
2815.0625
 20
-2304.109375
 10
2815.0625
 20
-2294.46875
 10
2805.421875
 20
-2284.828125
 10
2805.421875
 20
-2275.1875
 10
2795.78125
 20
-2265.546875
 10
2795.78125
 20
-2255.90625
 10
2786.140625
 20
-2246.265625
 10
2776.5
 20
-2236.625
 10
2766.859375
 20
-2226.984375
 10
2757.21875
 20
-2217.34375
 10
2747.578125
 20
-2207.703125
 10
2747.578125
 20
-2198.0625
 10
2737.9375
 20
-2188.421875
 10
2728.296875
 20
-2178.78125
 10
2718.65625
 20
-2169.140625
 10
2709.015625
 20
-2159.5
 10
2699.375
 20
-2149.859375
 10
2689.734375
 20
-2149.859375
 10
2680.09375
 20
-2140.21875
 10
2670.453125
 20
-2130.578125
 10
2660.8125
 20
-2130.578125
 10
2651.171875
 20
-2120.9375
 10
2641.53125
 20
-2120.9375
 10
2631.890625
 20
-2111.296875
 10
2622.25
 20
-2111.296875
 10
2612.609375
 20
-2101.65625
 10
2602.96875
 20
-2101.65625
 10
2593.328125
 20
-2101.65625
 10
2583.6875
 20
-2092.015625
 10
2574.046875
 20
-2092.015625
 10
2564.40625
 20
-2092.015625
 10
2554.765625
 20
-2082.375
 10
2545.125
 20
-2092.015625
 10
2535.484375
 20
-2082.375
 10
2525.84375
 20
-2082.375
 10
2516.203125
 20
-2082.375
 10
2506.5625
 20
-2082.375
 10
2496.921875
 20
-2082.375
 10
2487.28125
 20
-2082.375
 10
2477.640625
 20
-2082.375
 10
2468.0
 20
-2082.375
 10
2458.359375
 20
-2082.375
 10
2448.71875
 20
-2082.375
 10
2439.078125
 20
-2082.375
 10
2429.4375
 20
-2082.375
 10
2419.796875
 20
-2082.375
 10
2410.15625
 20
-2082.375
  0
LWPOLYLINE
  5
33
330
17
100
AcDbEntity
  8
substrate
100
AcDbPolyline
 90
2044
 70
1
 43
0.5
 10
0.0
 20
-0.0
 10
0.0
 20
-9.640625
 10
0.0
 20
-19.28125
 10
0.0
 20
-28.921875
 10
0.0
 20
-38.5625
 10
0.0
 20
-48.203125
 10
0.0
 20
-57.84375
 10
0.0
 20
-67.484375
 10
0.0
 20
-77.125
 10
0.0
 20
-86.765625
 10
0.0
 20
-96.40625
 10
0.0
 20
-106.046875
 10
0.0
 20
-115.6875
 10
0.0
 20
-125.328125
 10
0.0
 20
-134.96875
 10
0.0
 20
-144.609375
 10
0.0
 20
-154.25
 10
0.0
 20
-163.890625
 10
0.0
 20
-173.53125
 10
0.0
 20
-183.171875
 10
0.0
 20
-192.8125
 10
0.0
 20
-202.453125
 10
0.0
 20
-212.09375
 10
0.0
 20
-221.734375
 10
0.0
 20
-231.375
 10
0.0
 20
-241.015625
 10
0.0
 20
-250.65625
 10
0.0
 20
-260.296875
 10
0.0
 20
-269.9375
 10
0.0
 20
-279.578125
 10
0.0
 20
-289.21875
 10
0.0
 20
-298.859375
 10
0.0
 20
-308.5
 10
0.0
 20
-318.140625
 10
0.0
 20
-327.78125
 10
0.0
 20
-337.421875
 10
0.0
 20
-347.0625
 10
0.0
 20
-356.703125
 10
0.0
 20
-366.34375
 10
0.0
 20
-375.984375
 10
0.0
 20
-385.625
 10
0.0
 20
-395.265625
 10
0.0
 20
-404.90625
 10
0.0
 20
-414.546875
 10
0.0
 20
-424.1875
 10
0.0
 20
-433.828125
 10
0.0
 20
-443.46875
 10
0.0
 20
-453.109375
 10
0.0
 20
-462.75
 10
0.0
 20
-472.390625
 10
0.0
 20
-482.03125
 10
0.0
 20
-491.671875
 10
0.0
 20
-501.3125
 10
0.0
 20
-510.953125
 10
0.0
 20
-520.59375
 10
0.0
 20
-530.234375
 10
0.0
 20
-539.875
 10
0.0
 20
-549.515625
 10
0.0
 20
-559.15625
 10
0.0
 20
-568.796875
 10
0.0
 20
-578.4375
 10
0.0
 20
-588.078125
 10
0.0
 20
-597.71875
 10
0.0
 20
-607.359375
 10
0.0
 20
-617.0
 10
0.0
 20
-626.640625
 10
0.0
 20
-636.28125
 10
0.0
 20
-645.921875
 10
0.0
 20
-655.5625
 10
0.0
 20
-665.203125
 10
0.0
 20
-674.84375
 10
0.0
 20
-684.484375
 10
0.0
 20
-694.125
 10
0.0
 20
-703.765625
 10
0.0
 20
-713.40625
 10
0.0
 20
-723.046875
 10
0.0
 20
-732.6875
 10
0.0
 20
-742.328125
 10
0.0
 20
-751.96875
 10
0.0
 20
-761.609375
 10
0.0
 20
-771.25
 10
0.0
 20
-780.890625
 10
0.0
 20
-790.53125
 10
0.0
 20
-800.171875
 10
0.0
 20
-809.8125
 10
0.0
 20
-819.453125
 10
0.0
 20
-829.09375
 10
0.0
 20
-838.734375
 10
0.0
 20
-848.375
 10
0.0
 20
-858.015625
 10
0.0
 20
-867.65625
 10
0.0
 20
-877.296875
 10
0.0
 20
-886.9375
 10
0.0
 20
-896.578125
 10
0.0
 20
-906.21875
 10
0.0
 20
-915.859375
 10
0.0
 20
-925.5
 10
0.0
 20
-935.140625
 10
0.0
 20
-944.78125
 10
0.0
 20
-954.421875
 10
0.0
 20
-964.0625
 10
0.0
 20
-973.703125
 10
0.0
 20
-983.34375
 10
0.0
 20
-992.984375
 10
0.0
 20
-1002.625
 10
0.0
 20
-1012.265625
 10
0.0
 20
-1021.90625
 10
0.0
 20
-1031.546875
 10
0.0
 20
-1041.1875
 10
0.0
 20
-1050.828125
 10
0.0
 20
-1060.46875
 10
0.0
 20
-1070.109375
 10
0.0
 20
-1079.75
 10
0.0
 20
-1089.390625
 10
0.0
 20
-1099.03125
 10
0.0
 20
-1108.671875
 10
0.0
 20
-1118.3125
 10
0.0
 20
-1127.953125
 10
0.0
 20
-1137.59375
 10
0.0
 20
-1147.234375
 10
0.0
 20
-1156.875
 10
0.0
 20
-1166.515625
 10
0.0
 20
-1176.15625
 10
0.0
 20
-1185.796875
 10
0.0
 20
-1195.4375
 10
0.0
 20
-1205.078125
 10
0.0
 20
-1214.71875
 10
0.0
 20
-1224.359375
 10
0.0
 20
-1234.0
 10
0.0
 20
-1243.640625
 10
0.0
 20
-1253.28125
 10
0.0
 20
-1262.921875
 10
0.0
 20
-1272.5625
 10
0.0
 20
-1282.203125
 10
0.0
 20
-1291.84375
 10
0.0
 20
-1301.484375
 10
0.0
 20
-1311.125
 10
0.0
 20
-1320.765625
 10
0.0
 20
-1330.40625
 10
0.0
 20
-1340.046875
 10
0.0
 20
-1349.6875
 10
0.0
 20
-1359.328125
 10
0.0
 20
-1368.96875
 10
0.0
 20
-1378.609375
 10
0.0
 20
-1388.25
 10
0.0
 20
-1397.890625
 10
0.0
 20
-1407.53125
 10
0.0
 20
-1417.171875
 10
0.0
 20
-1426.8125
 10
0.0
 20
-1436.453125
 10
0.0
 20
-1446.09375
 10
0.0
 20
-1455.734375
 10
0.0
 20
-1465.375
 10
0.0
 20
-1475.015625
 10
0.0
 20
-1484.65625
 10
0.0
 20
-1494.296875
 10
0.0
 20
-1503.9375
 10
0.0
 20
-1513.578125
 10
0.0
 20
-1523.21875
 10
0.0
 20
-1532.859375
 10
0.0
 20
-1542.5
 10
0.0
 20
-1552.140625
 10
0.0
 20
-1561.78125
 10
0.0
 20
-1571.421875
 10
0.0
 20
-1581.0625
 10
0.0
 20
-1590.703125
 10
0.0
 20
-1600.34375
 10
0.0
 20
-1609.984375
 10
0.0
 20
-1619.625
 10
0.0
 20
-1629.265625
 10
0.0
 20
-1638.90625
 10
0.0
 20
-1648.546875
 10
0.0
 20
-1658.1875
 10
0.0
 20
-1667.828125
 10
0.0
 20
-1677.46875
 10
0.0
 20
-1687.109375
 10
0.0
 20
-1696.75
 10
0.0
 20
-1706.390625
 10
0.0
 20
-1716.03125
 10
0.0
 20
-1725.671875
 10
0.0
 20
-1735.3125
 10
0.0
 20
-1744.953125
 10
0.0
 20
-1754.59375
 10
0.0
 20
-1764.234375
 10
0.0
 20
-1773.875
 10
0.0
 20
-1783.515625
 10
0.0
 20
-1793.15625
 10
0.0
 20
-1802.796875
 10
0.0
 20
-1812.4375
 10
0.0
 20
-1822.078125
 10
0.0
 20
-1831.71875
 10
0.0
 20
-1841.359375
 10
0.0
 20
-1851.0
 10
0.0
 20
-1860.640625
 10
0.0
 20
-1870.28125
 10
0.0
 20
-1879.921875
 10
0.0
 20
-1889.5625
 10
0.0
 20
-1899.203125
 10
0.0
 20
-1908.84375
 10
0.0
 20
-1918.484375
 10
0.0
 20
-1928.125
 10
0.0
 20
-1937.765625
 10
0.0
 20
-1947.40625
 10
0.0
 20
-1957.046875
 10
0.0
 20
-1966.6875
 10
0.0
 20
-1976.328125
 10
0.0
 20
-1985.96875
 10
0.0
 20
-1995.609375
 10
0.0
 20
-2005.25
 10
0.0
 20
-2014.890625
 10
0.0
 20
-2024.53125
 10
0.0
 20
-2034.171875
 10
0.0
 20
-2043.8125
 10
0.0
 20
-2053.453125
 10
0.0
 20
-2063.09375
 10
0.0
 20
-2072.734375
 10
0.0
 20
-2082.375
 10
0.0
 20
-2092.015625
 10
0.0
 20
-2101.65625
 10
0.0
 20
-2111.296875
 10
0.0
 20
-2120.9375
 10
0.0
 20
-2130.578125
 10
0.0
 20
-2140.21875
 10
0.0
 20
-2149.859375
 10
0.0
 20
-2159.5
 10
0.0
 20
-2169.140625
 10
0.0
 20
-2178.78125
 10
0.0
 20
-2188.421875
 10
0.0
 20
-2198.0625
 10
0.0
 20
-2207.703125
 10
0.0
 20
-2217.34375
 10
0.0
 20
-2226.984375
 10
0.0
 20
-2236.625
 10
0.0
 20
-2246.265625
 10
0.0
 20
-2255.90625
 10
0.0
 20
-2265.546875
 10
0.0
 20
-2275.1875
 10
0.0
 20
-2284.828125
 10
0.0
 20
-2294.46875
 10
0.0
 20
-2304.109375
 10
0.0
 20
-2313.75
 10
0.0
 20
-2323.390625
 10
0.0
 20
-2333.03125
 10
0.0
 20
-2342.671875
 10
0.0
 20
-2352.3125
 10
0.0
 20
-2361.953125
 10
0.0
 20
-2371.59375
 10
0.0
 20
-2381.234375
 10
0.0
 20
-2390.875
 10
0.0
 20
-2400.515625
 10
0.0
 20
-2410.15625
 10
0.0
 20
-2419.796875
 10
0.0
 20
-2429.4375
 10
0.0
 20
-2439.078125
 10
0.0
 20
-2448.71875
 10
0.0
 20
-2458.359375
 10
0.0
 20
-2468.0
 10
0.0
 20
-2477.640625
 10
0.0
 20
-2487.28125
 10
0.0
 20
-2496.921875
 10
0.0
 20
-2506.5625
 10
0.0
 20
-2516.203125
 10
0.0
 20
-2525.84375
 10
0.0
 20
-2535.484375
 10
0.0
 20
-2545.125
 10
0.0
 20
-2554.765625
 10
0.0
 20
-2564.40625
 10
0.0
 20
-2574.046875
 10
0.0
 20
-2583.6875
 10
0.0
 20
-2593.328125
 10
0.0
 20
-2602.96875
 10
0.0
 20
-2612.609375
 10
0.0
 20
-2622.25
 10
0.0
 20
-2631.890625
 10
0.0
 20
-2641.53125
 10
0.0
 20
-2651.171875
 10
0.0
 20
-2660.8125
 10
0.0
 20
-2670.453125
 10
0.0
 20
-2680.09375
 10
0.0
 20
-2689.734375
 10
0.0
 20
-2699.375
 10
0.0
 20
-2709.015625
 10
0.0
 20
-2718.65625
 10
0.0
 20
-2728.296875
 10
0.0
 20
-2737.9375
 10
0.0
 20
-2747.578125
 10
0.0
 20
-2757.21875
 10
0.0
 20
-2766.859375
 10
0.0
 20
-2776.5
 10
0.0
 20
-2786.140625
 10
0.0
 20
-2795.78125
 10
0.0
 20
-2805.421875
 10
0.0
 20
-2815.0625
 10
0.0
 20
-2824.703125
 10
0.0
 20
-2834.34375
 10
0.0
 20
-2843.984375
 10
0.0
 20
-2853.625
 10
0.0
 20
-2863.265625
 10
0.0
 20
-2872.90625
 10
0.0
 20
-2882.546875
 10
0.0
 20
-2892.1875
 10
0.0
 20
-2901.828125
 10
0.0
 20
-2911.46875
 10
0.0
 20
-2921.109375
 10
0.0
 20
-2930.75
 10
0.0
 20
-2940.390625
 10
0.0
 20
-2950.03125
 10
0.0
 20
-2959.671875
 10
0.0
 20
-2969.3125
 10
0.0
 20
-2978.953125
 10
0.0
 20
-2988.59375
 10
0.0
 20
-2998.234375
 10
0.0
 20
-3007.875
 10
0.0
 20
-3017.515625
 10
0.0
 20
-3027.15625
 10
0.0
 20
-3036.796875
 10
0.0
 20
-3046.4375
 10
0.0
 20
-3056.078125
 10
0.0
 20
-3065.71875
 10
0.0
 20
-3075.359375
 10
0.0
 20
-3085.0
 10
0.0
 20
-3094.640625
 10
0.0
 20
-3104.28125
 10
0.0
 20
-3113.921875
 10
0.0
 20
-3123.5625
 10
0.0
 20
-3133.203125
 10
0.0
 20
-3142.84375
 10
0.0
 20
-3152.484375
 10
0.0
 20
-3162.125
 10
0.0
 20
-3171.765625
 10
0.0
 20
-3181.40625
 10
0.0
 20
-3191.046875
 10
0.0
 20
-3200.6875
 10
0.0
 20
-3210.328125
 10
0.0
 20
-3219.96875
 10
0.0
 20
-3229.609375
 10
0.0
 20
-3239.25
 10
0.0
 20
-3248.890625
 10
0.0
 20
-3258.53125
 10
0.0
 20
-3268.171875
 10
0.0
 20
-3277.8125
 10
0.0
 20
-3287.453125
 10
0.0
 20
-3297.09375
 10
0.0
 20
-3306.734375
 10
0.0
 20
-3316.375
 10
0.0
 20
-3326.015625
 10
0.0
 20
-3335.65625
 10
0.0
 20
-3345.296875
 10
0.0
 20
-3354.9375
 10
0.0
 20
-3364.578125
 10
0.0
 20
-3374.21875
 10
0.0
 20
-3383.859375
 10
0.0
 20
-3393.5
 10
0.0
 20
-3403.140625
 10
0.0
 20
-3412.78125
 10
0.0
 20
-3422.421875
 10
0.0
 20
-3432.0625
 10
0.0
 20
-3441.703125
 10
0.0
 20
-3451.34375
 10
0.0
 20
-3460.984375
 10
0.0
 20
-3470.625
 10
0.0
 20
-3480.265625
 10
0.0
 20
-3489.90625
 10
0.0
 20
-3499.546875
 10
0.0
 20
-3509.1875
 10
0.0
 20
-3518.828125
 10
0.0
 20
-3528.46875
 10
0.0
 20
-3538.109375
 10
0.0
 20
-3547.75
 10
0.0
 20
-3557.390625
 10
0.0
 20
-3567.03125
 10
0.0
 20
-3576.671875
 10
0.0
 20
-3586.3125
 10
0.0
 20
-3595.953125
 10
0.0
 20
-3605.59375
 10
0.0
 20
-3615.234375
 10
0.0
 20
-3624.875
 10
0.0
 20
-3634.515625
 10
0.0
 20
-3644.15625
 10
0.0
 20
-3653.796875
 10
0.0
 20
-3663.4375
 10
0.0
 20
-3673.078125
 10
0.0
 20
-3682.71875
 10
0.0
 20
-3692.359375
 10
0.0
 20
-3702.0
 10
0.0
 20
-3711.640625
 10
0.0
 20
-3721.28125
 10
0.0
 20
-3730.921875
 10
0.0
 20
-3740.5625
 10
0.0
 20
-3750.203125
 10
0.0
 20
-3759.84375
 10
0.0
 20
-3769.484375
 10
0.0
 20
-3779.125
 10
0.0
 20
-3788.765625
 10
0.0
 20
-3798.40625
 10
0.0
 20
-3808.046875
 10
0.0
 20
-3817.6875
 10
0.0
 20
-3827.328125
 10
0.0
 20
-3836.96875
 10
0.0
 20
-3846.609375
 10
0.0
 20
-3856.25
 10
0.0
 20
-3865.890625
 10
0.0
 20
-3875.53125
 10
0.0
 20
-3885.171875
 10
0.0
 20
-3894.8125
 10
0.0
 20
-3904.453125
 10
0.0
 20
-3914.09375
 10
0.0
 20
-3923.734375
 10
0.0
 20
-3933.375
 10
0.0
 20
-3943.015625
 10
0.0
 20
-3952.65625
 10
0.0
 20
-3962.296875
 10
0.0
 20
-3971.9375
 10
0.0
 20
-3981.578125
 10
0.0
 20
-3991.21875
 10
0.0
 20
-4000.859375
 10
0.0
 20
-4010.5
 10
0.0
 20
-4020.140625
 10
0.0
 20
-4029.78125
 10
0.0
 20
-4039.421875
 10
0.0
 20
-4049.0625
 10
0.0
 20
-4058.703125
 10
0.0
 20
-4068.34375
 10
0.0
 20
-4077.984375
 10
0.0
 20
-4087.625
 10
0.0
 20
-4097.265625
 10
0.0
 20
-4106.90625
 10
0.0
 20
-4116.546875
 10
0.0
 20
-4126.1875
 10
0.0
 20
-4135.828125
 10
0.0
 20
-4145.46875
 10
0.0
 20
-4155.109375
 10
0.0
 20
-4164.75
 10
0.0
 20
-4174.390625
 10
0.0
 20
-4184.03125
 10
0.0
 20
-4193.671875
 10
0.0
 20
-4203.3125
 10
0.0
 20
-4212.953125
 10
0.0
 20
-4222.59375
 10
0.0
 20
-4232.234375
 10
0.0
 20
-4241.875
 10
0.0
 20
-4251.515625
 10
0.0
 20
-4261.15625
 10
0.0
 20
-4270.796875
 10
0.0
 20
-4280.4375
 10
0.0
 20
-4290.078125
 10
0.0
 20
-4299.71875
 10
0.0
 20
-4309.359375
 10
0.0
 20
-4319.0
 10
0.0
 20
-4328.640625
 10
0.0
 20
-4338.28125
 10
0.0
 20
-4347.921875
 10
0.0
 20
-4357.5625
 10
0.0
 20
-4367.203125
 10
0.0
 20
-4376.84375
 10
0.0
 20
-4386.484375
 10
0.0
 20
-4396.125
 10
0.0
 20
-4405.765625
 10
0.0
 20
-4415.40625
 10
0.0
 20
-4425.046875
 10
0.0
 20
-4434.6875
 10
0.0
 20
-4444.328125
 10
0.0
 20
-4453.96875
 10
0.0
 20
-4463.609375
 10
0.0
 20
-4473.25
 10
0.0
 20
-4482.890625
 10
0.0
 20
-4492.53125
 10
0.0
 20
-4502.171875
 10
0.0
 20
-4511.8125
 10
0.0
 20
-4521.453125
 10
0.0
 20
-4531.09375
 10
0.0
 20
-4540.734375
 10
0.0
 20
-4550.375
 10
0.0
 20
-4560.015625
 10
0.0
 20
-4569.65625
 10
0.0
 20
-4579.296875
 10
0.0
 20
-4588.9375
 10
0.0
 20
-4598.578125
 10
0.0
 20
-4608.21875
 10
0.0
 20
-4617.859375
 10
0.0
 20
-4627.5
 10
0.0
 20
-4637.140625
 10
0.0
 20
-4646.78125
 10
0.0
 20
-4656.421875
 10
0.0
 20
-4666.0625
 10
0.0
 20
-4675.703125
 10
0.0
 20
-4685.34375
 10
0.0
 20
-4694.984375
 10
0.0
 20
-4704.625
 10
0.0
 20
-4714.265625
 10
0.0
 20
-4723.90625
 10
0.0
 20
-4733.546875
 10
0.0
 20
-4743.1875
 10
0.0
 20
-4752.828125
 10
0.0
 20
-4762.46875
 10
0.0
 20
-4772.109375
 10
0.0
 20
-4781.75
 10
0.0
 20
-4791.390625
 10
0.0
 20
-4801.03125
 10
0.0
 20
-4810.671875
 10
0.0
 20
-4820.3125
 10
0.0
 20
-4829.953125
 10
0.0
 20
-4839.59375
 10
0.0
 20
-4849.234375
 10
0.0
 20
-4858.875
 10
0.0
 20
-4868.515625
 10
0.0
 20
-4878.15625
 10
0.0
 20
-4887.796875
 10
0.0
 20
-4897.4375
 10
0.0
 20
-4907.078125
 10
0.0
 20
-4916.71875
 10
0.0
 20
-4926.359375
 10
9.640625
 20
-4926.359375
 10
19.28125
 20
-4926.359375
 10
28.921875
 20
-4926.359375
 10
38.5625
 20
-4926.359375
 10
48.203125
 20
-4926.359375
 10
57.84375
 20
-4926.359375
 10
67.484375
 20
-4926.359375
 10
77.125
 20
-4926.359375
 10
86.765625
 20
-4926.359375
 10
96.40625
 20
-4926.359375
 10
106.046875
 20
-4926.359375
 10
115.6875
 20
-4926.359375
 10
125.328125
 20
-4926.359375
 10
134.96875
 20
-4926.359375
 10
144.609375
 20
-4926.359375
 10
154.25
 20
-4926.359375
 10
163.890625
 20
-4926.359375
 10
173.53125
 20
-4926.359375
 10
183.171875
 20
-4926.359375
 10
192.8125
 20
-4926.359375
 10
202.453125
 20
-4926.359375
 10
212.09375
 20
-4926.359375
 10
221.734375
 20
-4926.359375
 10
231.375
 20
-4926.359375
 10
241.015625
 20
-4926.359375
 10
250.65625
 20
-4926.359375
 10
260.296875
 20
-4926.359375
 10
269.9375
 20
-4926.359375
 10
279.578125
 20
-4926.359375
 10
289.21875
 20
-4926.359375
 10
298.859375
 20
-4926.359375
 10
308.5
 20
-4926.359375
 10
318.140625
 20
-4926.359375
 10
327.78125
 20
-4926.359375
 10
337.421875
 20
-4926.359375
 10
347.0625
 20
-4926.359375
 10
356.703125
 20
-4926.359375
 10
366.34375
 20
-4926.359375
 10
375.984375
 20
-4926.359375
 10
385.625
 20
-4926.359375
 10
395.265625
 20
-4926.359375
 10
404.90625
 20
-4926.359375
 10
414.546875
 20
-4926.359375
 10
424.1875
 20
-4926.359375
 10
433.828125
 20
-4926.359375
 10
443.46875
 20
-4926.359375
 10
453.109375
 20
-4926.359375
 10
462.75
 20
-4926.359375
 10
472.390625
 20
-4926.359375
 10
482.03125
 20
-4926.359375
 10
491.671875
 20
-4926.359375
 10
501.3125
 20
-4926.359375
 10
510.953125
 20
-4926.359375
 10
520.59375
 20
-4926.359375
 10
530.234375
 20
-4926.359375
 10
539.875
 20
-4926.359375
 10
549.515625
 20
-4926.359375
 10
559.15625
 20
-4926.359375
 10
568.796875
 20
-4926.359375
 10
578.4375
 20
-4926.359375
 10
588.078125
 20
-4926.359375
 10
597.71875
 20
-4926.359375
 10
607.359375
 20
-4926.359375
 10
617.0
 20
-4926.359375
 10
626.640625
 20
-4926.359375
 10
636.28125
 20
-4926.359375
 10
645.921875
 20
-4926.359375
 10
655.5625
 20
-4926.359375
 10
665.203125
 20
-4926.359375
 10
674.84375
 20
-4926.359375
 10
684.484375
 20
-4926.359375
 10
694.125
 20
-4926.359375
 10
703.765625
 20
-4926.359375
 10
713.40625
 20
-4926.359375
 10
723.046875
 20
-4926.359375
 10
732.6875
 20
-4926.359375
 10
742.328125
 20
-4926.359375
 10
751.96875
 20
-4926.359375
 10
761.609375
 20
-4926.359375
 10
771.25
 20
-4926.359375
 10
780.890625
 20
-4926.359375
 10
790.53125
 20
-4926.359375
 10
800.171875
 20
-4926.359375
 10
809.8125
 20
-4926.359375
 10
819.453125
 20
-4926.359375
 10
829.09375
 20
-4926.359375
 10
838.734375
 20
-4926.359375
 10
848.375
 20
-4926.359375
 10
858.015625
 20
-4926.359375
 10
867.65625
 20
-4926.359375
 10
877.296875
 20
-4926.359375
 10
886.9375
 20
-4926.359375
 10
896.578125
 20
-4926.359375
 10
906.21875
 20
-4926.359375
 10
915.859375
 20
-4926.359375
 10
925.5
 20
-4926.359375
 10
935.140625
 20
-4926.359375
 10
944.78125
 20
-4926.359375
 10
954.421875
 20
-4926.359375
 10
964.0625
 20
-4926.359375
 10
973.703125
 20
-4926.359375
 10
983.34375
 20
-4926.359375
 10
992.984375
 20
-4926.359375
 10
1002.625
 20
-4926.359375
 10
1012.265625
 20
-4926.359375
 10
1021.90625
 20
-4926.359375
 10
1031.546875
 20
-4926.359375
 10
1041.1875
 20
-4926.359375
 10
1050.828125
 20
-4926.359375
 10
1060.46875
 20
-4926.359375
 10
1070.109375
 20
-4926.359375
 10
1079.75
 20
-4926.359375
 10
1089.390625
 20
-4926.359375
 10
1099.03125
 20
-4926.359375
 10
1108.671875
 20
-4926.359375
 10
1118.3125
 20
-4926.359375
 10
1127.953125
 20
-4926.359375
 10
1137.59375
 20
-4926.359375
 10
1147.234375
 20
-4926.359375
 10
1156.875
 20
-4926.359375
 10
1166.515625
 20
-4926.359375
 10
1176.15625
 20
-4926.359375
 10
1185.796875
 20
-4926.359375
 10
1195.4375
 20
-4926.359375
 10
1205.078125
 20
-4926.359375
 10
1214.71875
 20
-4926.359375
 10
1224.359375
 20
-4926.359375
 10
1234.0
 20
-4926.359375
 10
1243.640625
 20
-4926.359375
 10
1253.28125
 20
-4926.359375
 10
1262.921875
 20
-4926.359375
 10
1272.5625
 20
-4926.359375
 10
1282.203125
 20
-4926.359375
 10
1291.84375
 20
-4926.359375
 10
1301.484375
 20
-4926.359375
 10
1311.125
 20
-4926.359375
 10
1320.765625
 20
-4926.359375
 10
1330.40625
 20
-4926.359375
 10
1340.046875
 20
-4926.359375
 10
1349.6875
 20
-4926.359375
 10
1359.328125
 20
-4926.359375
 10
1368.96875
 20
-4926.359375
 10
1378.609375
 20
-4926.359375
 10
1388.25
 20
-4926.359375
 10
1397.890625
 20
-4926.359375
 10
1407.53125
 20
-4926.359375
 10
1417.171875
 20
-4926.359375
 10
1426.8125
 20
-4926.359375
 10
1436.453125
 20
-4926.359375
 10
1446.09375
 20
-4926.359375
 10
1455.734375
 20
-4926.359375
 10
1465.375
 20
-4926.359375
 10
1475.015625
 20
-4926.359375
 10
1484.65625
 20
-4926.359375
 10
1494.296875
 20
-4926.359375
 10
1503.9375
 20
-4926.359375
 10
1513.578125
 20
-4926.359375
 10
1523.21875
 20
-4926.359375
 10
1532.859375
 20
-4926.359375
 10
1542.5
 20
-4926.359375
 10
1552.140625
 20
-4926.359375
 10
1561.78125
 20
-4926.359375
 10
1571.421875
 20
-4926.359375
 10
1581.0625
 20
-4926.359375
 10
1590.703125
 20
-4926.359375
 10
1600.34375
 20
-4926.359375
 10
1609.984375
 20
-4926.359375
 10
1619.625
 20
-4926.359375
 10
1629.265625
 20
-4926.359375
 10
1638.90625
 20
-4926.359375
 10
1648.546875
 20
-4926.359375
 10
1658.1875
 20
-4926.359375
 10
1667.828125
 20
-4926.359375
 10
1677.46875
 20
-4926.359375
 10
1687.109375
 20
-4926.359375
 10
1696.75
 20
-4926.359375
 10
1706.390625
 20
-4926.359375
 10
1716.03125
 20
-4926.359375
 10
1725.671875
 20
-4926.359375
 10
1735.3125
 20
-4926.359375
 10
1744.953125
 20
-4926.359375
 10
1754.59375
 20
-4926.359375
 10
1764.234375
 20
-4926.359375
 10
1773.875
 20
-4926.359375
 10
1783.515625
 20
-4926.359375
 10
1793.15625
 20
-4926.359375
 10
1802.796875
 20
-4926.359375
 10
1812.4375
 20
-4926.359375
 10
1822.078125
 20
-4926.359375
 10
1831.71875
 20
-4926.359375
 10
1841.359375
 20
-4926.359375
 10
1851.0
 20
-4926.359375
 10
1860.640625
 20
-4926.359375
 10
1870.28125
 20
-4926.359375
 10
1879.921875
 20
-4926.359375
 10
1889.5625
 20
-4926.359375
 10
1899.203125
 20
-4926.359375
 10
1908.84375
 20
-4926.359375
 10
1918.484375
 20
-4926.359375
 10
1928.125
 20
-4926.359375
 10
1937.765625
 20
-4926.359375
 10
1947.40625
 20
-4926.359375
 10
1957.046875
 20
-4926.359375
 10
1966.6875
 20
-4926.359375
 10
1976.328125
 20
-4926.359375
 10
1985.96875
 20
-4926.359375
 10
1995.609375
 20
-4926.359375
 10
2005.25
 20
-4926.359375
 10
2014.890625
 20
-4926.359375
 10
2024.53125
 20
-4926.359375
 10
2034.171875
 20
-4926.359375
 10
2043.8125
 20
-4926.359375
 10
2053.453125
 20
-4926.359375
 10
2063.09375
 20
-4926.359375
 10
2072.734375
 20
-4926.359375
 10
2082.375
 20
-4926.359375
 10
2092.015625
 20
-4926.359375
 10
2101.65625
 20
-4926.359375
 10
2111.296875
 20
-4926.359375
 10
2120.9375
 20
-4926.359375
 10
2130.578125
 20
-4926.359375
 10
2140.21875
 20
-4926.359375
 10
2149.859375
 20
-4926.359375
 10
2159.5
 20
-4926.359375
 10
2169.140625
 20
-4926.359375
 10
2178.78125
 20
-4926.359375
 10
2188.421875
 20
-4926.359375
 10
2198.0625
 20
-4926.359375
 10
2207.703125
 20
-4926.359375
 10
2217.34375
 20
-4926.359375
 10
2226.984375
 20
-4926.359375
 10
2236.625
 20
-4926.359375
 10
2246.265625
 20
-4926.359375
 10
2255.90625
 20
-4926.359375
 10
2265.546875
 20
-4926.359375
 10
2275.1875
 20
-4926.359375
 10
2284.828125
 20
-4926.359375
 10
2294.46875
 20
-4926.359375
 10
2304.109375
 20
-4926.359375
 10
2313.75
 20
-4926.359375
 10
2323.390625
 20
-4926.359375
 10
2333.03125
 20
-4926.359375
 10
2342.671875
 20
-4926.359375
 10
2352.3125
 20
-4926.359375
 10
2361.953125
 20
-4926.359375
 10
2371.59375
 20
-4926.359375
 10
2381.234375
 20
-4926.359375
 10
2390.875
 20
-4926.359375
 10
2400.515625
 20
-4926.359375
 10
2410.15625
 20
-4926.359375
 10
2419.796875
 20
-4926.359375
 10
2429.4375
 20
-4926.359375
 10
2439.078125
 20
-4926.359375
 10
2448.71875
 20
-4926.359375
 10
2458.359375
 20
-4926.359375
 10
2468.0
 20
-4926.359375
 10
2477.640625
 20
-4926.359375
 10
2487.28125
 20
-4926.359375
 10
2496.921875
 20
-4926.359375
 10
2506.5625
 20
-4926.359375
 10
2516.203125
 20
-4926.359375
 10
2525.84375
 20
-4926.359375
 10
2535.484375
 20
-4926.359375
 10
2545.125
 20
-4926.359375
 10
2554.765625
 20
-4926.359375
 10
2564.40625
 20
-4926.359375
 10
2574.046875
 20
-4926.359375
 10
2583.6875
 20
-4926.359375
 10
2593.328125
 20
-4926.359375
 10
2602.96875
 20
-4926.359375
 10
2612.609375
 20
-4926.359375
 10
2622.25
 20
-4926.359375
 10
2631.890625
 20
-4926.359375
 10
2641.53125
 20
-4926.359375
 10
2651.171875
 20
-4926.359375
 10
2660.8125
 20
-4926.359375
 10
2670.453125
 20
-4926.359375
 10
2680.09375
 20
-4926.359375
 10
2689.734375
 20
-4926.359375
 10
2699.375
 20
-4926.359375
 10
2709.015625
 20
-4926.359375
 10
2718.65625
 20
-4926.359375
 10
2728.296875
 20
-4926.359375
 10
2737.9375
 20
-4926.359375
 10
2747.578125
 20
-4926.359375
 10
2757.21875
 20
-4926.359375
 10
2766.859375
 20
-4926.359375
 10
2776.5
 20
-4926.359375
 10
2786.140625
 20
-4926.359375
 10
2795.78125
 20
-4926.359375
 10
2805.421875
 20
-4926.359375
 10
2815.0625
 20
-4926.359375
 10
2824.703125
 20
-4926.359375
 10
2834.34375
 20
-4926.359375
 10
2843.984375
 20
-4926.359375
 10
2853.625
 20
-4926.359375
 10
2863.265625
 20
-4926.359375
 10
2872.90625
 20
-4926.359375
 10
2882.546875
 20
-4926.359375
 10
2892.1875
 20
-4926.359375
 10
2901.828125
 20
-4926.359375
 10
2911.46875
 20
-4926.359375
 10
2921.109375
 20
-4926.359375
 10
2930.75
 20
-4926.359375
 10
2940.390625
 20
-4926.359375
 10
2950.03125
 20
-4926.359375
 10
2959.671875
 20
-4926.359375
 10
2969.3125
 20
-4926.359375
 10
2978.953125
 20
-4926.359375
 10
2988.59375
 20
-4926.359375
 10
2998.234375
 20
-4926.359375
 10
3007.875
 20
-4926.359375
 10
3017.515625
 20
-4926.359375
 10
3027.15625
 20
-4926.359375
 10
3036.796875
 20
-4926.359375
 10
3046.4375
 20
-4926.359375
 10
3056.078125
 20
-4926.359375
 10
3065.71875
 20
-4926.359375
 10
3075.359375
 20
-4926.359375
 10
3085.0
 20
-4926.359375
 10
3094.640625
 20
-4926.359375
 10
3104.28125
 20
-4926.359375
 10
3113.921875
 20
-4926.359375
 10
3123.5625
 20
-4926.359375
 10
3133.203125
 20
-4926.359375
 10
3142.84375
 20
-4926.359375
 10
3152.484375
 20
-4926.359375
 10
3162.125
 20
-4926.359375
 10
3171.765625
 20
-4926.359375
 10
3181.40625
 20
-4926.359375
 10
3191.046875
 20
-4926.359375
 10
3200.6875
 20
-4926.359375
 10
3210.328125
 20
-4926.359375
 10
3219.96875
 20
-4926.359375
 10
3229.609375
 20
-4926.359375
 10
3239.25
 20
-4926.359375
 10
3248.890625
 20
-4926.359375
 10
3258.53125
 20
-4926.359375
 10
3268.171875
 20
-4926.359375
 10
3277.8125
 20
-4926.359375
 10
3287.453125
 20
-4926.359375
 10
3297.09375
 20
-4926.359375
 10
3306.734375
 20
-4926.359375
 10
3316.375
 20
-4926.359375
 10
3326.015625
 20
-4926.359375
 10
3335.65625
 20
-4926.359375
 10
3345.296875
 20
-4926.359375
 10
3354.9375
 20
-4926.359375
 10
3364.578125
 20
-4926.359375
 10
3374.21875
 20
-4926.359375
 10
3383.859375
 20
-4926.359375
 10
3393.5
 20
-4926.359375
 10
3403.140625
 20
-4926.359375
 10
3412.78125
 20
-4926.359375
 10
3422.421875
 20
-4926.359375
 10
3432.0625
 20
-4926.359375
 10
3441.703125
 20
-4926.359375
 10
3451.34375
 20
-4926.359375
 10
3460.984375
 20
-4926.359375
 10
3470.625
 20
-4926.359375
 10
3480.265625
 20
-4926.359375
 10
3489.90625
 20
-4926.359375
 10
3499.546875
 20
-4926.359375
 10
3509.1875
 20
-4926.359375
 10
3518.828125
 20
-4926.359375
 10
3528.46875
 20
-4926.359375
 10
3538.109375
 20
-4926.359375
 10
3547.75
 20
-4926.359375
 10
3557.390625
 20
-4926.359375
 10
3567.03125
 20
-4926.359375
 10
3576.671875
 20
-4926.359375
 10
3586.3125
 20
-4926.359375
 10
3595.953125
 20
-4926.359375
 10
3605.59375
 20
-4926.359375
 10
3615.234375
 20
-4926.359375
 10
3624.875
 20
-4926.359375
 10
3634.515625
 20
-4926.359375
 10
3644.15625
 20
-4926.359375
 10
3653.796875
 20
-4926.359375
 10
3663.4375
 20
-4926.359375
 10
3673.078125
 20
-4926.359375
 10
3682.71875
 20
-4926.359375
 10
3692.359375
 20
-4926.359375
 10
3702.0
 20
-4926.359375
 10
3711.640625
 20
-4926.359375
 10
3721.28125
 20
-4926.359375
 10
3730.921875
 20
-4926.359375
 10
3740.5625
 20
-4926.359375
 10
3750.203125
 20
-4926.359375
 10
3759.84375
 20
-4926.359375
 10
3769.484375
 20
-4926.359375
 10
3779.125
 20
-4926.359375
 10
3788.765625
 20
-4926.359375
 10
3798.40625
 20
-4926.359375
 10
3808.046875
 20
-4926.359375
 10
3817.6875
 20
-4926.359375
 10
3827.328125
 20
-4926.359375
 10
3836.96875
 20
-4926.359375
 10
3846.609375
 20
-4926.359375
 10
3856.25
 20
-4926.359375
 10
3865.890625
 20
-4926.359375
 10
3875.53125
 20
-4926.359375
 10
3885.171875
 20
-4926.359375
 10
3894.8125
 20
-4926.359375
 10
3904.453125
 20
-4926.359375
 10
3914.09375
 20
-4926.359375
 10
3923.734375
 20
-4926.359375
 10
3933.375
 20
-4926.359375
 10
3943.015625
 20
-4926.359375
 10
3952.65625
 20
-4926.359375
 10
3962.296875
 20
-4926.359375
 10
3971.9375
 20
-4926.359375
 10
3981.578125
 20
-4926.359375
 10
3991.21875
 20
-4926.359375
 10
4000.859375
 20
-4926.359375
 10
4010.5
 20
-4926.359375
 10
4020.140625
 20
-4926.359375
 10
4029.78125
 20
-4926.359375
 10
4039.421875
 20
-4926.359375
 10
4049.0625
 20
-4926.359375
 10
4058.703125
 20
-4926.359375
 10
4068.34375
 20
-4926.359375
 10
4077.984375
 20
-4926.359375
 10
4087.625
 20
-4926.359375
 10
4097.265625
 20
-4926.359375
 10
4106.90625
 20
-4926.359375
 10
4116.546875
 20
-4926.359375
 10
4126.1875
 20
-4926.359375
 10
4135.828125
 20
-4926.359375
 10
4145.46875
 20
-4926.359375
 10
4155.109375
 20
-4926.359375
 10
4164.75
 20
-4926.359375
 10
4174.390625
 20
-4926.359375
 10
4184.03125
 20
-4926.359375
 10
4193.671875
 20
-4926.359375
 10
4203.3125
 20
-4926.359375
 10
4212.953125
 20
-4926.359375
 10
4222.59375
 20
-4926.359375
 10
4232.234375
 20
-4926.359375
 10
4241.875
 20
-4926.359375
 10
4251.515625
 20
-4926.359375
 10
4261.15625
 20
-4926.359375
 10
4270.796875
 20
-4926.359375
 10
4280.4375
 20
-4926.359375
 10
4290.078125
 20
-4926.359375
 10
4299.71875
 20
-4926.359375
 10
4309.359375
 20
-4926.359375
 10
4319.0
 20
-4926.359375
 10
4328.640625
 20
-4926.359375
 10
4338.28125
 20
-4926.359375
 10
4347.921875
 20
-4926.359375
 10
4357.5625
 20
-4926.359375
 10
4367.203125
 20
-4926.359375
 10
4376.84375
 20
-4926.359375
 10
4386.484375
 20
-4926.359375
 10
4396.125
 20
-4926.359375
 10
4405.765625
 20
-4926.359375
 10
4415.40625
 20
-4926.359375
 10
4425.046875
 20
-4926.359375
 10
4434.6875
 20
-4926.359375
 10
4444.328125
 20
-4926.359375
 10
4453.96875
 20
-4926.359375
 10
4463.609375
 20
-4926.359375
 10
4473.25
 20
-4926.359375
 10
4482.890625
 20
-4926.359375
 10
4492.53125
 20
-4926.359375
 10
4502.171875
 20
-4926.359375
 10
4511.8125
 20
-4926.359375
 10
4521.453125
 20
-4926.359375
 10
4531.09375
 20
-4926.359375
 10
4540.734375
 20
-4926.359375
 10
4550.375
 20
-4926.359375
 10
4560.015625
 20
-4926.359375
 10
4569.65625
 20
-4926.359375
 10
4579.296875
 20
-4926.359375
 10
4588.9375
 20
-4926.359375
 10
4598.578125
 20
-4926.359375
 10
4608.21875
 20
-4926.359375
 10
4617.859375
 20
-4926.359375
 10
4627.5
 20
-4926.359375
 10
4637.140625
 20
-4926.359375
 10
4646.78125
 20
-4926.359375
 10
4656.421875
 20
-4926.359375
 10
4666.0625
 20
-4926.359375
 10
4675.703125
 20
-4926.359375
 10
4685.34375
 20
-4926.359375
 10
4694.984375
 20
-4926.359375
 10
4704.625
 20
-4926.359375
 10
4714.265625
 20
-4926.359375
 10
4723.90625
 20
-4926.359375
 10
4733.546875
 20
-4926.359375
 10
4743.1875
 20
-4926.359375
 10
4752.828125
 20
-4926.359375
 10
4762.46875
 20
-4926.359375
 10
4772.109375
 20
-4926.359375
 10
4781.75
 20
-4926.359375
 10
4791.390625
 20
-4926.359375
 10
4801.03125
 20
-4926.359375
 10
4810.671875
 20
-4926.359375
 10
4820.3125
 20
-4926.359375
 10
4829.953125
 20
-4926.359375
 10
4839.59375
 20
-4926.359375
 10
4849.234375
 20
-4926.359375
 10
4858.875
 20
-4926.359375
 10
4868.515625
 20
-4926.359375
 10
4878.15625
 20
-4926.359375
 10
4887.796875
 20
-4926.359375
 10
4897.4375
 20
-4926.359375
 10
4907.078125
 20
-4926.359375
 10
4916.71875
 20
-4926.359375
 10
4926.359375
 20
-4926.359375
 10
4926.359375
 20
-4916.71875
 10
4926.359375
 20
-4907.078125
 10
4926.359375
 20
-4897.4375
 10
4926.359375
 20
-4887.796875
 10
4926.359375
 20
-4878.15625
 10
4926.359375
 20
-4868.515625
 10
4926.359375
 20
-4858.875
 10
4926.359375
 20
-4849.234375
 10
4926.359375
 20
-4839.59375
 10
4926.359375
 20
-4829.953125
 10
4926.359375
 20
-4820.3125
 10
4926.359375
 20
-4810.671875
 10
4926.359375
 20
-4801.03125
 10
4926.359375
 20
-4791.390625
 10
4926.359375
 20
-4781.75
 10
4926.359375
 20
-4772.109375
 10
4926.359375
 20
-4762.46875
 10
4926.359375
 20
-4752.828125
 10
4926.359375
 20
-4743.1875
 10
4926.359375
 20
-4733.546875
 10
4926.359375
 20
-4723.90625
 10
4926.359375
 20
-4714.265625
 10
4926.359375
 20
-4704.625
 10
4926.359375
 20
-4694.984375
 10
4926.359375
 20
-4685.34375
 10
4926.359375
 20
-4675.703125
 10
4926.359375
 20
-4666.0625
 10
4926.359375
 20
-4656.421875
 10
4926.359375
 20
-4646.78125
 10
4926.359375
 20
-4637.140625
 10
4926.359375
 20
-4627.5
 10
4926.359375
 20
-4617.859375
 10
4926.359375
 20
-4608.21875
 10
4926.359375
 20
-4598.578125
 10
4926.359375
 20
-4588.9375
 10
4926.359375
 20
-4579.296875
 10
4926.359375
 20
-4569.65625
 10
4926.359375
 20
-4560.015625
 10
4926.359375
 20
-4550.375
 10
4926.359375
 20
-4540.734375
 10
4926.359375
 20
-4531.09375
 10
4926.359375
 20
-4521.453125
 10
4926.359375
 20
-4511.8125
 10
4926.359375
 20
-4502.171875
 10
4926.359375
 20
-4492.53125
 10
4926.359375
 20
-4482.890625
 10
4926.359375
 20
-4473.25
 10
4926.359375
 20
-4463.609375
 10
4926.359375
 20
-4453.96875
 10
4926.359375
 20
-4444.328125
 10
4926.359375
 20
-4434.6875
 10
4926.359375
 20
-4425.046875
 10
4926.359375
 20
-4415.40625
 10
4926.359375
 20
-4405.765625
 10
4926.359375
 20
-4396.125
 10
4926.359375
 20
-4386.484375
 10
4926.359375
 20
-4376.84375
 10
4926.359375
 20
-4367.203125
 10
4926.359375
 20
-4357.5625
 10
4926.359375
 20
-4347.921875
 10
4926.359375
 20
-4338.28125
 10
4926.359375
 20
-4328.640625
 10
4926.359375
 20
-4319.0
 10
4926.359375
 20
-4309.359375
 10
4926.359375
 20
-4299.71875
 10
4926.359375
 20
-4290.078125
 10
4926.359375
 20
-4280.4375
 10
4926.359375
 20
-4270.796875
 10
4926.359375
 20
-4261.15625
 10
4926.359375
 20
-4251.515625
 10
4926.359375
 20
-4241.875
 10
4926.359375
 20
-4232.234375
 10
4926.359375
 20
-4222.59375
 10
4926.359375
 20
-4212.953125
 10
4926.359375
 20
-4203.3125
 10
4926.359375
 20
-4193.671875
 10
4926.359375
 20
-4184.03125
 10
4926.359375
 20
-4174.390625
 10
4926.359375
 20
-4164.75
 10
4926.359375
 20
-4155.109375
 10
4926.359375
 20
-4145.46875
 10
4926.359375
 20
-4135.828125
 10
4926.359375
 20
-4126.1875
 10
4926.359375
 20
-4116.546875
 10
4926.359375
 20
-4106.90625
 10
4926.359375
 20
-4097.265625
 10
4926.359375
 20
-4087.625
 10
4926.359375
 20
-4077.984375
 10
4926.359375
 20
-4068.34375
 10
4926.359375
 20
-4058.703125
 10
4926.359375
 20
-4049.0625
 10
4926.359375
 20
-4039.421875
 10
4926.359375
 20
-4029.78125
 10
4926.359375
 20
-4020.140625
 10
4926.359375
 20
-4010.5
 10
4926.359375
 20
-4000.859375
 10
4926.359375
 20
-3991.21875
 10
4926.359375
 20
-3981.578125
 10
4926.359375
 20
-3971.9375
 10
4926.359375
 20
-3962.296875
 10
4926.359375
 20
-3952.65625
 10
4926.359375
 20
-3943.015625
 10
4926.359375
 20
-3933.375
 10
4926.359375
 20
-3923.734375
 10
4926.359375
 20
-3914.09375
 10
4926.359375
 20
-3904.453125
 10
4926.359375
 20
-3894.8125
 10
4926.359375
 20
-3885.171875
 10
4926.359375
 20
-3875.53125
 10
4926.359375
 20
-3865.890625
 10
4926.359375
 20
-3856.25
 10
4926.359375
 20
-3846.609375
 10
4926.359375
 20
-3836.96875
 10
4926.359375
 20
-3827.328125
 10
4926.359375
 20
-3817.6875
 10
4926.359375
 20
-3808.046875
 10
4926.359375
 20
-3798.40625
 10
4926.359375
 20
-3788.765625
 10
4926.359375
 20
-3779.125
 10
4926.359375
 20
-3769.484375
 10
4926.359375
 20
-3759.84375
 10
4926.359375
 20
-3750.203125
 10
4926.359375
 20
-3740.5625
 10
4926.359375
 20
-3730.921875
 10
4926.359375
 20
-3721.28125
 10
4926.359375
 20
-3711.640625
 10
4926.359375
 20
-3702.0
 10
4926.359375
 20
-3692.359375
 10
4926.359375
 20
-3682.71875
 10
4926.359375
 20
-3673.078125
 10
4926.359375
 20
-3663.4375
 10
4926.359375
 20
-3653.796875
 10
4926.359375
 20
-3644.15625
 10
4926.359375
 20
-3634.515625
 10
4926.359375
 20
-3624.875
 10
4926.359375
 20
-3615.234375
 10
4926.359375
 20
-3605.59375
 10
4926.359375
 20
-3595.953125
 10
4926.359375
 20
-3586.3125
 10
4926.359375
 20
-3576.671875
 10
4926.359375
 20
-3567.03125
 10
4926.359375
 20
-3557.390625
 10
4926.359375
 20
-3547.75
 10
4926.359375
 20
-3538.109375
 10
4926.359375
 20
-3528.46875
 10
4926.359375
 20
-3518.828125
 10
4926.359375
 20
-3509.1875
 10
4926.359375
 20
-3499.546875
 10
4926.359375
 20
-3489.90625
 10
4926.359375
 20
-3480.265625
 10
4926.359375
 20
-3470.625
 10
4926.359375
 20
-3460.984375
 10
4926.359375
 20
-3451.34375
 10
4926.359375
 20
-3441.703125
 10
4926.359375
 20
-3432.0625
 10
4926.359375
 20
-3422.421875
 10
4926.359375
 20
-3412.78125
 10
4926.359375
 20
-3403.140625
 10
4926.359375
 20
-3393.5
 10
4926.359375
 20
-3383.859375
 10
4926.359375
 20
-3374.21875
 10
4926.359375
 20
-3364.578125
 10
4926.359375
 20
-3354.9375
 10
4926.359375
 20
-3345.296875
 10
4926.359375
 20
-3335.65625
 10
4926.359375
 20
-3326.015625
 10
4926.359375
 20
-3316.375
 10
4926.359375
 20
-3306.734375
 10
4926.359375
 20
-3297.09375
 10
4926.359375
 20
-3287.453125
 10
4926.359375
 20
-3277.8125
 10
4926.359375
 20
-3268.171875
 10
4926.359375
 20
-3258.53125
 10
4926.359375
 20
-3248.890625
 10
4926.359375
 20
-3239.25
 10
4926.359375
 20
-3229.609375
 10
4926.359375
 20
-3219.96875
 10
4926.359375
 20
-3210.328125
 10
4926.359375
 20
-3200.6875
 10
4926.359375
 20
-3191.046875
 10
4926.359375
 20
-3181.40625
 10
4926.359375
 20
-3171.765625
 10
4926.359375
 20
-3162.125
 10
4926.359375
 20
-3152.484375
 10
4926.359375
 20
-3142.84375
 10
4926.359375
 20
-3133.203125
 10
4926.359375
 20
-3123.5625
 10
4926.359375
 20
-3113.921875
 10
4926.359375
 20
-3104.28125
 10
4926.359375
 20
-3094.640625
 10
4926.359375
 20
-3085.0
 10
4926.359375
 20
-3075.359375
 10
4926.359375
 20
-3065.71875
 10
4926.359375
 20
-3056.078125
 10
4926.359375
 20
-3046.4375
 10
4926.359375
 20
-3036.796875
 10
4926.359375
 20
-3027.15625
 10
4926.359375
 20
-3017.515625
 10
4926.359375
 20
-3007.875
 10
4926.359375
 20
-2998.234375
 10
4926.359375
 20
-2988.59375
 10
4926.359375
 20
-2978.953125
 10
4926.359375
 20
-2969.3125
 10
4926.359375
 20
-2959.671875
 10
4926.359375
 20
-2950.03125
 10
4926.359375
 20
-2940.390625
 10
4926.359375
 20
-2930.75
 10
4926.359375
 20
-2921.109375
 10
4926.359375
 20
-2911.46875
 10
4926.359375
 20
-2901.828125
 10
4926.359375
 20
-2892.1875
 10
4926.359375
 20
-2882.546875
 10
4926.359375
 20
-2872.90625
 10
4926.359375
 20
-2863.265625
 10
4926.359375
 20
-2853.625
 10
4926.359375
 20
-2843.984375
 10
4926.359375
 20
-2834.34375
 10
4926.359375
 20
-2824.703125
 10
4926.359375
 20
-2815.0625
 10
4926.359375
 20
-2805.421875
 10
4926.359375
 20
-2795.78125
 10
4926.359375
 20
-2786.140625
 10
4926.359375
 20
-2776.5
 10
4926.359375
 20
-2766.859375
 10
4926.359375
 20
-2757.21875
 10
4926.359375
 20
-2747.578125
 10
4926.359375
 20
-2737.9375
 10
4926.359375
 20
-2728.296875
 10
4926.359375
 20
-2718.65625
 10
4926.359375
 20
-2709.015625
 10
4926.359375
 20
-2699.375
 10
4926.359375
 20
-2689.734375
 10
4926.359375
 20
-2680.09375
 10
4926.359375
 20
-2670.453125
 10
4926.359375
 20
-2660.8125
 10
4926.359375
 20
-2651.171875
 10
4926.359375
 20
-2641.53125
 10
4926.359375
 20
-2631.890625
 10
4926.359375
 20
-2622.25
 10
4926.359375
 20
-2612.609375
 10
4926.359375
 20
-2602.96875
 10
4926.359375
 20
-2593.328125
 10
4926.359375
 20
-2583.6875
 10
4926.359375
 20
-2574.046875
 10
4926.359375
 20
-2564.40625
 10
4926.359375
 20
-2554.765625
 10
4926.359375
 20
-2545.125
 10
4926.359375
 20
-2535.484375
 10
4926.359375
 20
-2525.84375
 10
4926.359375
 20
-2516.203125
 10
4926.359375
 20
-2506.5625
 10
4926.359375
 20
-2496.921875
 10
4926.359375
 20
-2487.28125
 10
4926.359375
 20
-2477.640625
 10
4926.359375
 20
-2468.0
 10
4926.359375
 20
-2458.359375
 10
4926.359375
 20
-2448.71875
 10
4926.359375
 20
-2439.078125
 10
4926.359375
 20
-2429.4375
 10
4926.359375
 20
-2419.796875
 10
4926.359375
 20
-2410.15625
 10
4926.359375
 20
-2400.515625
 10
4926.359375
 20
-2390.875
 10
4926.359375
 20
-2381.234375
 10
4926.359375
 20
-2371.59375
 10
4926.359375
 20
-2361.953125
 10
4926.359375
 20
-2352.3125
 10
4926.359375
 20
-2342.671875
 10
4926.359375
 20
-2333.03125
 10
4926.359375
 20
-2323.390625
 10
4926.359375
 20
-2313.75
 10
4926.359375
 20
-2304.109375
 10
4926.359375
 20
-2294.46875
 10
4926.359375
 20
-2284.828125
 10
4926.359375
 20
-2275.1875
 10
4926.359375
 20
-2265.546875
 10
4926.359375
 20
-2255.90625
 10
4926.359375
 20
-2246.265625
 10
4926.359375
 20
-2236.625
 10
4926.359375
 20
-2226.984375
 10
4926.359375
 20
-2217.34375
 10
4926.359375
 20
-2207.703125
 10
4926.359375
 20
-2198.0625
 10
4926.359375
 20
-2188.421875
 10
4926.359375
 20
-2178.78125
 10
4926.359375
 20
-2169.140625
 10
4926.359375
 20
-2159.5
 10
4926.359375
 20
-2149.859375
 10
4926.359375
 20
-2140.21875
 10
4926.359375
 20
-2130.578125
 10
4926.359375
 20
-2120.9375
 10
4926.359375
 20
-2111.296875
 10
4926.359375
 20
-2101.65625
 10
4926.359375
 20
-2092.015625
 10
4926.359375
 20
-2082.375
 10
4926.359375
 20
-2072.734375
 10
4926.359375
 20
-2063.09375
 10
4926.359375
 20
-2053.453125
 10
4926.359375
 20
-2043.8125
 10
4926.359375
 20
-2034.171875
 10
4926.359375
 20
-2024.53125
 10
4926.359375
 20
-2014.890625
 10
4926.359375
 20
-2005.25
 10
4926.359375
 20
-1995.609375
 10
4926.359375
 20
-1985.96875
 10
4926.359375
 20
-1976.328125
 10
4926.359375
 20
-1966.6875
 10
4926.359375
 20
-1957.046875
 10
4926.359375
 20
-1947.40625
 10
4926.359375
 20
-1937.765625
 10
4926.359375
 20
-1928.125
 10
4926.359375
 20
-1918.484375
 10
4926.359375
 20
-1908.84375
 10
4926.359375
 20
-1899.203125
 10
4926.359375
 20
-1889.5625
 10
4926.359375
 20
-1879.921875
 10
4926.359375
 20
-1870.28125
 10
4926.359375
 20
-1860.640625
 10
4926.359375
 20
-1851.0
 10
4926.359375
 20
-1841.359375
 10
4926.359375
 20
-1831.71875
 10
4926.359375
 20
-1822.078125
 10
4926.359375
 20
-1812.4375
 10
4926.359375
 20
-1802.796875
 10
4926.359375
 20
-1793.15625
 10
4926.359375
 20
-1783.515625
 10
4926.359375
 20
-1773.875
 10
4926.359375
 20
-1764.234375
 10
4926.359375
 20
-1754.59375
 10
4926.359375
 20
-1744.953125
 10
4926.359375
 20
-1735.3125
 10
4926.359375
 20
-1725.671875
 10
4926.359375
 20
-1716.03125
 10
4926.359375
 20
-1706.390625
 10
4926.359375
 20
-1696.75
 10
4926.359375
 20
-1687.109375
 10
4926.359375
 20
-1677.46875
 10
4926.359375
 20
-1667.828125
 10
4926.359375
 20
-1658.1875
 10
4926.359375
 20
-1648.546875
 10
4926.359375
 20
-1638.90625
 10
4926.359375
 20
-1629.265625
 10
4926.359375
 20
-1619.625
 10
4926.359375
 20
-1609.984375
 10
4926.359375
 20
-1600.34375
 10
4926.359375
 20
-1590.703125
 10
4926.359375
 20
-1581.0625
 10
4926.359375
 20
-1571.421875
 10
4926.359375
 20
-1561.78125
 10
4926.359375
 20
-1552.140625
 10
4926.359375
 20
-1542.5
 10
4926.359375
 20
-1532.859375
 10
4926.359375
 20
-1523.21875
 10
4926.359375
 20
-1513.578125
 10
4926.359375
 20
-1503.9375
 10
4926.359375
 20
-1494.296875
 10
4926.359375
 20
-1484.65625
 10
4926.359375
 20
-1475.015625
 10
4926.359375
 20
-1465.375
 10
4926.359375
 20
-1455.734375
 10
4926.359375
 20
-1446.09375
 10
4926.359375
 20
-1436.453125
 10
4926.359375
 20
-1426.8125
 10
4926.359375
 20
-1417.171875
 10
4926.359375
 20
-1407.53125
 10
4926.359375
 20
-1397.890625
 10
4926.359375
 20
-1388.25
 10
4926.359375
 20
-1378.609375
 10
4926.359375
 20
-1368.96875
 10
4926.359375
 20
-1359.328125
 10
4926.359375
 20
-1349.6875
 10
4926.359375
 20
-1340.046875
 10
4926.359375
 20
-1330.40625
 10
4926.359375
 20
-1320.765625
 10
4926.359375
 20
-1311.125
 10
4926.359375
 20
-1301.484375
 10
4926.359375
 20
-1291.84375
 10
4926.359375
 20
-1282.203125
 10
4926.359375
 20
-1272.5625
 10
4926.359375
 20
-1262.921875
 10
4926.359375
 20
-1253.28125
 10
4926.359375
 20
-1243.640625
 10
4926.359375
 20
-1234.0
 10
4926.359375
 20
-1224.359375
 10
4926.359375
 20
-1214.71875
 10
4926.359375
 20
-1205.078125
 10
4926.359375
 20
-1195.4375
 10
4926.359375
 20
-1185.796875
 10
4926.359375
 20
-1176.15625
 10
4926.359375
 20
-1166.515625
 10
4926.359375
 20
-1156.875
 10
4926.359375
 20
-1147.234375
 10
4926.359375
 20
-1137.59375
 10
4926.359375
 20
-1127.953125
 10
4926.359375
 20
-1118.3125
 10
4926.359375
 20
-1108.671875
 10
4926.359375
 20
-1099.03125
 10
4926.359375
 20
-1089.390625
 10
4926.359375
 20
-1079.75
 10
4926.359375
 20
-1070.109375
 10
4926.359375
 20
-1060.46875
 10
4926.359375
 20
-1050.828125
 10
4926.359375
 20
-1041.1875
 10
4926.359375
 20
-1031.546875
 10
4926.359375
 20
-1021.90625
 10
4926.359375
 20
-1012.265625
 10
4926.359375
 20
-1002.625
 10
4926.359375
 20
-992.984375
 10
4926.359375
 20
-983.34375
 10
4926.359375
 20
-973.703125
 10
4926.359375
 20
-964.0625
 10
4926.359375
 20
-954.421875
 10
4926.359375
 20
-944.78125
 10
4926.359375
 20
-935.140625
 10
4926.359375
 20
-925.5
 10
4926.359375
 20
-915.859375
 10
4926.359375
 20
-906.21875
 10
4926.359375
 20
-896.578125
 10
4926.359375
 20
-886.9375
 10
4926.359375
 20
-877.296875
 10
4926.359375
 20
-867.65625
 10
4926.359375
 20
-858.015625
 10
4926.359375
 20
-848.375
 10
4926.359375
 20
-838.734375
 10
4926.359375
 20
-829.09375
 10
4926.359375
 20
-819.453125
 10
4926.359375
 20
-809.8125
 10
4926.359375
 20
-800.171875
 10
4926.359375
 20
-790.53125
 10
4926.359375
 20
-780.890625
 10
4926.359375
 20
-771.25
 10
4926.359375
 20
-761.609375
 10
4926.359375
 20
-751.96875
 10
4926.359375
 20
-742.328125
 10
4926.359375
 20
-732.6875
 10
4926.359375
 20
-723.046875
 10
4926.359375
 20
-713.40625
 10
4926.359375
 20
-703.765625
 10
4926.359375
 20
-694.125
 10
4926.359375
 20
-684.484375
 10
4926.359375
 20
-674.84375
 10
4926.359375
 20
-665.203125
 10
4926.359375
 20
-655.5625
 10
4926.359375
 20
-645.921875
 10
4926.359375
 20
-636.28125
 10
4926.359375
 20
-626.640625
 10
4926.359375
 20
-617.0
 10
4926.359375
 20
-607.359375
 10
4926.359375
 20
-597.71875
 10
4926.359375
 20
-588.078125
 10
4926.359375
 20
-578.4375
 10
4926.359375
 20
-568.796875
 10
4926.359375
 20
-559.15625
 10
4926.359375
 20
-549.515625
 10
4926.359375
 20
-539.875
 10
4926.359375
 20
-530.234375
 10
4926.359375
 20
-520.59375
 10
4926.359375
 20
-510.953125
 10
4926.359375
 20
-501.3125
 10
4926.359375
 20
-491.671875
 10
4926.359375
 20
-482.03125
 10
4926.359375
 20
-472.390625
 10
4926.359375
 20
-462.75
 10
4926.359375
 20
-453.109375
 10
4926.359375
 20
-443.46875
 10
4926.359375
 20
-433.828125
 10
4926.359375
 20
-424.1875
 10
4926.359375
 20
-414.546875
 10
4926.359375
 20
-404.90625
 10
4926.359375
 20
-395.265625
 10
4926.359375
 20
-385.625
 10
4926.359375
 20
-375.984375
 10
4926.359375
 20
-366.34375
 10
4926.359375
 20
-356.703125
 10
4926.359375
 20
-347.0625
 10
4926.359375
 20
-337.421875
 10
4926.359375
 20
-327.78125
 10
4926.359375
 20
-318.140625
 10
4926.359375
 20
-308.5
 10
4926.359375
 20
-298.859375
 10
4926.359375
 20
-289.21875
 10
4926.359375
 20
-279.578125
 10
4926.359375
 20
-269.9375
 10
4926.359375
 20
-260.296875
 10
4926.359375
 20
-250.65625
 10
4926.359375
 20
-241.015625
 10
4926.359375
 20
-231.375
 10
4926.359375
 20
-221.734375
 10
4926.359375
 20
-212.09375
 10
4926.359375
 20
-202.453125
 10
4926.359375
 20
-192.8125
 10
4926.359375
 20
-183.171875
 10
4926.359375
 20
-173.53125
 10
4926.359375
 20
-163.890625
 10
4926.359375
 20
-154.25
 10
4926.359375
 20
-144.609375
 10
4926.359375
 20
-134.96875
 10
4926.359375
 20
-125.328125
 10
4926.359375
 20
-115.6875
 10
4926.359375
 20
-106.046875
 10
4926.359375
 20
-96.40625
 10
4926.359375
 20
-86.765625
 10
4926.359375
 20
-77.125
 10
4926.359375
 20
-67.484375
 10
4926.359375
 20
-57.84375
 10
4926.359375
 20
-48.203125
 10
4926.359375
 20
-38.5625
 10
4926.359375
 20
-28.921875
 10
4926.359375
 20
-19.28125
 10
4926.359375
 20
-9.640625
 10
4926.359375
 20
-0.0
 10
4916.71875
 20
-0.0
 10
4907.078125
 20
-0.0
 10
4897.4375
 20
-0.0
 10
4887.796875
 20
-0.0
 10
4878.15625
 20
-0.0
 10
4868.515625
 20
-0.0
 10
4858.875
 20
-0.0
 10
4849.234375
 20
-0.0
 10
4839.59375
 20
-0.0
 10
4829.953125
 20
-0.0
 10
4820.3125
 20
-0.0
 10
4810.671875
 20
-0.0
 10
4801.03125
 20
-0.0
 10
4791.390625
 20
-0.0
 10
4781.75
 20
-0.0
 10
4772.109375
 20
-0.0
 10
4762.46875
 20
-0.0
 10
4752.828125
 20
-0.0
 10
4743.1875
 20
-0.0
 10
4733.546875
 20
-0.0
 10
4723.90625
 20
-0.0
 10
4714.265625
 20
-0.0
 10
4704.625
 20
-0.0
 10
4694.984375
 20
-0.0
 10
4685.34375
 20
-0.0
 10
4675.703125
 20
-0.0
 10
4666.0625
 20
-0.0
 10
4656.421875
 20
-0.0
 10
4646.78125
 20
-0.0
 10
4637.140625
 20
-0.0
 10
4627.5
 20
-0.0
 10
4617.859375
 20
-0.0
 10
4608.21875
 20
-0.0
 10
4598.578125
 20
-0.0
 10
4588.9375
 20
-0.0
 10
4579.296875
 20
-0.0
 10
4569.65625
 20
-0.0
 10
4560.015625
 20
-0.0
 10
4550.375
 20
-0.0
 10
4540.734375
 20
-0.0
 10
4531.09375
 20
-0.0
 10
4521.453125
 20
-0.0
 10
4511.8125
 20
-0.0
 10
4502.171875
 20
-0.0
 10
4492.53125
 20
-0.0
 10
4482.890625
 20
-0.0
 10
4473.25
 20
-0.0
 10
4463.609375
 20
-0.0
 10
4453.96875
 20
-0.0
 10
4444.328125
 20
-0.0
 10
4434.6875
 20
-0.0
 10
4425.046875
 20
-0.0
 10
4415.40625
 20
-0.0
 10
4405.765625
 20
-0.0
 10
4396.125
 20
-0.0
 10
4386.484375
 20
-0.0
 10
4376.84375
 20
-0.0
 10
4367.203125
 20
-0.0
 10
4357.5625
 20
-0.0
 10
4347.921875
 20
-0.0
 10
4338.28125
 20
-0.0
 10
4328.640625
 20
-0.0
 10
4319.0
 20
-0.0
 10
4309.359375
 20
-0.0
 10
4299.71875
 20
-0.0
 10
4290.078125
 20
-0.0
 10
4280.4375
 20
-0.0
 10
4270.796875
 20
-0.0
 10
4261.15625
 20
-0.0
 10
4251.515625
 20
-0.0
 10
4241.875
 20
-0.0
 10
4232.234375
 20
-0.0
 10
4222.59375
 20
-0.0
 10
4212.953125
 20
-0.0
 10
4203.3125
 20
-0.0
 10
4193.671875
 20
-0.0
 10
4184.03125
 20
-0.0
 10
4174.390625
 20
-0.0
 10
4164.75
 20
-0.0
 10
4155.109375
 20
-0.0
 10
4145.46875
 20
-0.0
 10
4135.828125
 20
-0.0
 10
4126.1875
 20
-0.0
 10
4116.546875
 20
-0.0
 10
4106.90625
 20
-0.0
 10
4097.265625
 20
-0.0
 10
4087.625
 20
-0.0
 10
4077.984375
 20
-0.0
 10
4068.34375
 20
-0.0
 10
4058.703125
 20
-0.0
 10
4049.0625
 20
-0.0
 10
4039.421875
 20
-0.0
 10
4029.78125
 20
-0.0
 10
4020.140625
 20
-0.0
 10
4010.5
 20
-0.0
 10
4000.859375
 20
-0.0
 10
3991.21875
 20
-0.0
 10
3981.578125
 20
-0.0
 10
3971.9375
 20
-0.0
 10
3962.296875
 20
-0.0
 10
3952.65625
 20
-0.0
 10
3943.015625
 20
-0.0
 10
3933.375
 20
-0.0
 10
3923.734375
 20
-0.0
 10
3914.09375
 20
-0.0
 10
3904.453125
 20
-0.0
 10
3894.8125
 20
-0.0
 10
3885.171875
 20
-0.0
 10
3875.53125
 20
-0.0
 10
3865.890625
 20
-0.0
 10
3856.25
 20
-0.0
 10
3846.609375
 20
-0.0
 10
3836.96875
 20
-0.0
 10
3827.328125
 20
-0.0
 10
3817.6875
 20
-0.0
 10
3808.046875
 20
-0.0
 10
3798.40625
 20
-0.0
 10
3788.765625
 20
-0.0
 10
3779.125
 20
-0.0
 10
3769.484375
 20
-0.0
 10
3759.84375
 20
-0.0
 10
3750.203125
 20
-0.0
 10
3740.5625
 20
-0.0
 10
3730.921875
 20
-0.0
 10
3721.28125
 20
-0.0
 10
3711.640625
 20
-0.0
 10
3702.0
 20
-0.0
 10
3692.359375
 20
-0.0
 10
3682.71875
 20
-0.0
 10
3673.078125
 20
-0.0
 10
3663.4375
 20
-0.0
 10
3653.796875
 20
-0.0
 10
3644.15625
 20
-0.0
 10
3634.515625
 20
-0.0
 10
3624.875
 20
-0.0
 10
3615.234375
 20
-0.0
 10
3605.59375
 20
-0.0
 10
3595.953125
 20
-0.0
 10
3586.3125
 20
-0.0
 10
3576.671875
 20
-0.0
 10
3567.03125
 20
-0.0
 10
3557.390625
 20
-0.0
 10
3547.75
 20
-0.0
 10
3538.109375
 20
-0.0
 10
3528.46875
 20
-0.0
 10
3518.828125
 20
-0.0
 10
3509.1875
 20
-0.0
 10
3499.546875
 20
-0.0
 10
3489.90625
 20
-0.0
 10
3480.265625
 20
-0.0
 10
3470.625
 20
-0.0
 10
3460.984375
 20
-0.0
 10
3451.34375
 20
-0.0
 10
3441.703125
 20
-0.0
 10
3432.0625
 20
-0.0
 10
3422.421875
 20
-0.0
 10
3412.78125
 20
-0.0
 10
3403.140625
 20
-0.0
 10
3393.5
 20
-0.0
 10
3383.859375
 20
-0.0
 10
3374.21875
 20
-0.0
 10
3364.578125
 20
-0.0
 10
3354.9375
 20
-0.0
 10
3345.296875
 20
-0.0
 10
3335.65625
 20
-0.0
 10
3326.015625
 20
-0.0
 10
3316.375
 20
-0.0
 10
3306.734375
 20
-0.0
 10
3297.09375
 20
-0.0
 10
3287.453125
 20
-0.0
 10
3277.8125
 20
-0.0
 10
3268.171875
 20
-0.0
 10
3258.53125
 20
-0.0
 10
3248.890625
 20
-0.0
 10
3239.25
 20
-0.0
 10
3229.609375
 20
-0.0
 10
3219.96875
 20
-0.0
 10
3210.328125
 20
-0.0
 10
3200.6875
 20
-0.0
 10
3191.046875
 20
-0.0
 10
3181.40625
 20
-0.0
 10
3171.765625
 20
-0.0
 10
3162.125
 20
-0.0
 10
3152.484375
 20
-0.0
 10
3142.84375
 20
-0.0
 10
3133.203125
 20
-0.0
 10
3123.5625
 20
-0.0
 10
3113.921875
 20
-0.0
 10
3104.28125
 20
-0.0
 10
3094.640625
 20
-0.0
 10
3085.0
 20
-0.0
 10
3075.359375
 20
-0.0
 10
3065.71875
 20
-0.0
 10
3056.078125
 20
-0.0
 10
3046.4375
 20
-0.0
 10
3036.796875
 20
-0.0
 10
3027.15625
 20
-0.0
 10
3017.515625
 20
-0.0
 10
3007.875
 20
-0.0
 10
2998.234375
 20
-0.0
 10
2988.59375
 20
-0.0
 10
2978.953125
 20
-0.0
 10
2969.3125
 20
-0.0
 10
2959.671875
 20
-0.0
 10
2950.03125
 20
-0.0
 10
2940.390625
 20
-0.0
 10
2930.75
 20
-0.0
 10
2921.109375
 20
-0.0
 10
2911.46875
 20
-0.0
 10
2901.828125
 20
-0.0
 10
2892.1875
 20
-0.0
 10
2882.546875
 20
-0.0
 10
2872.90625
 20
-0.0
 10
2863.265625
 20
-0.0
 10
2853.625
 20
-0.0
 10
2843.984375
 20
-0.0
 10
2834.34375
 20
-0.0
 10
2824.703125
 20
-0.0
 10
2815.0625
 20
-0.0
 10
2805.421875
 20
-0.0
 10
2795.78125
 20
-0.0
 10
2786.140625
 20
-0.0
 10
2776.5
 20
-0.0
 10
2766.859375
 20
-0.0
 10
2757.21875
 20
-0.0
 10
2747.578125
 20
-0.0
 10
2737.9375
 20
-0.0
 10
2728.296875
 20
-0.0
 10
2718.65625
 20
-0.0
 10
2709.015625
 20
-0.0
 10
2699.375
 20
-0.0
 10
2689.734375
 20
-0.0
 10
2680.09375
 20
-0.0
 10
2670.453125
 20
-0.0
 10
2660.8125
 20
-0.0
 10
2651.171875
 20
-0.0
 10
2641.53125
 20
-0.0
 10
2631.890625
 20
-0.0
 10
2622.25
 20
-0.0
 10
2612.609375
 20
-0.0
 10
2602.96875
 20
-0.0
 10
2593.328125
 20
-0.0
 10
2583.6875
 20
-0.0
 10
2574.046875
 20
-0.0
 10
2564.40625
 20
-0.0
 10
2554.765625
 20
-0.0
 10
2545.125
 20
-0.0
 10
2535.484375
 20
-0.0
 10
2525.84375
 20
-0.0
 10
2516.203125
 20
-0.0
 10
2506.5625
 20
-0.0
 10
2496.921875
 20
-0.0
 10
2487.28125
 20
-0.0
 10
2477.640625
 20
-0.0
 10
2468.0
 20
-0.0
 10
2458.359375
 20
-0.0
 10
2448.71875
 20
-0.0
 10
2439.078125
 20
-0.0
 10
2429.4375
 20
-0.0
 10
2419.796875
 20
-0.0
 10
2410.15625
 20
-0.0
 10
2400.515625
 20
-0.0
 10
2390.875
 20
-0.0
 10
2381.234375
 20
-0.0
 10
2371.59375
 20
-0.0
 10
2361.953125
 20
-0.0
 10
2352.3125
 20
-0.0
 10
2342.671875
 20
-0.0
 10
2333.03125
 20
-0.0
 10
2323.390625
 20
-0.0
 10
2313.75
 20
-0.0
 10
2304.109375
 20
-0.0
 10
2294.46875
 20
-0.0
 10
2284.828125
 20
-0.0
 10
2275.1875
 20
-0.0
 10
2265.546875
 20
-0.0
 10
2255.90625
 20
-0.0
 10
2246.265625
 20
-0.0
 10
2236.625
 20
-0.0
 10
2226.984375
 20
-0.0
 10
2217.34375
 20
-0.0
 10
2207.703125
 20
-0.0
 10
2198.0625
 20
-0.0
 10
2188.421875
 20
-0.0
 10
2178.78125
 20
-0.0
 10
2169.140625
 20
-0.0
 10
2159.5
 20
-0.0
 10
2149.859375
 20
-0.0
 10
2140.21875
 20
-0.0
 10
2130.578125
 20
-0.0
 10
2120.9375
 20
-0.0
 10
2111.296875
 20
-0.0
 10
2101.65625
 20
-0.0
 10
2092.015625
 20
-0.0
 10
2082.375
 20
-0.0
 10
2072.734375
 20
-0.0
 10
2063.09375
 20
-0.0
 10
2053.453125
 20
-0.0
 10
2043.8125
 20
-0.0
 10
2034.171875
 20
-0.0
 10
2024.53125
 20
-0.0
 10
2014.890625
 20
-0.0
 10
2005.25
 20
-0.0
 10
1995.609375
 20
-0.0
 10
1985.96875
 20
-0.0
 10
1976.328125
 20
-0.0
 10
1966.6875
 20
-0.0
 10
1957.046875
 20
-0.0
 10
1947.40625
 20
-0.0
 10
1937.765625
 20
-0.0
 10
1928.125
 20
-0.0
 10
1918.484375
 20
-0.0
 10
1908.84375
 20
-0.0
 10
1899.203125
 20
-0.0
 10
1889.5625
 20
-0.0
 10
1879.921875
 20
-0.0
 10
1870.28125
 20
-0.0
 10
1860.640625
 20
-0.0
 10
1851.0
 20
-0.0
 10
1841.359375
 20
-0.0
 10
1831.71875
 20
-0.0
 10
1822.078125
 20
-0.0
 10
1812.4375
 20
-0.0
 10
1802.796875
 20
-0.0
 10
1793.15625
 20
-0.0
 10
1783.515625
 20
-0.0
 10
1773.875
 20
-0.0
 10
1764.234375
 20
-0.0
 10
1754.59375
 20
-0.0
 10
1744.953125
 20
-0.0
 10
1735.3125
 20
-0.0
 10
1725.671875
 20
-0.0
 10
1716.03125
 20
-0.0
 10
1706.390625
 20
-0.0
 10
1696.75
 20
-0.0
 10
1687.109375
 20
-0.0
 10
1677.46875
 20
-0.0
 10
1667.828125
 20
-0.0
 10
1658.1875
 20
-0.0
 10
1648.546875
 20
-0.0
 10
1638.90625
 20
-0.0
 10
1629.265625
 20
-0.0
 10
1619.625
 20
-0.0
 10
1609.984375
 20
-0.0
 10
1600.34375
 20
-0.0
 10
1590.703125
 20
-0.0
 10
1581.0625
 20
-0.0
 10
1571.421875
 20
-0.0
 10
1561.78125
 20
-0.0
 10
1552.140625
 20
-0.0
 10
1542.5
 20
-0.0
 10
1532.859375
 20
-0.0
 10
1523.21875
 20
-0.0
 10
1513.578125
 20
-0.0
 10
1503.9375
 20
-0.0
 10
1494.296875
 20
-0.0
 10
1484.65625
 20
-0.0
 10
1475.015625
 20
-0.0
 10
1465.375
 20
-0.0
 10
1455.734375
 20
-0.0
 10
1446.09375
 20
-0.0
 10
1436.453125
 20
-0.0
 10
1426.8125
 20
-0.0
 10
1417.171875
 20
-0.0
 10
1407.53125
 20
-0.0
 10
1397.890625
 20
-0.0
 10
1388.25
 20
-0.0
 10
1378.609375
 20
-0.0
 10
1368.96875
 20
-0.0
 10
1359.328125
 20
-0.0
 10
1349.6875
 20
-0.0
 10
1340.046875
 20
-0.0
 10
1330.40625
 20
-0.0
 10
1320.765625
 20
-0.0
 10
1311.125
 20
-0.0
 10
1301.484375
 20
-0.0
 10
1291.84375
 20
-0.0
 10
1282.203125
 20
-0.0
 10
1272.5625
 20
-0.0
 10
1262.921875
 20
-0.0
 10
1253.28125
 20
-0.0
 10
1243.640625
 20
-0.0
 10
1234.0
 20
-0.0
 10
1224.359375
 20
-0.0
 10
1214.71875
 20
-0.0
 10
1205.078125
 20
-0.0
 10
1195.4375
 20
-0.0
 10
1185.796875
 20
-0.0
 10
1176.15625
 20
-0.0
 10
1166.515625
 20
-0.0
 10
1156.875
 20
-0.0
 10
1147.234375
 20
-0.0
 10
1137.59375
 20
-0.0
 10
1127.953125
 20
-0.0
 10
1118.3125
 20
-0.0
 10
1108.671875
 20
-0.0
 10
1099.03125
 20
-0.0
 10
1089.390625
 20
-0.0
 10
1079.75
 20
-0.0
 10
1070.109375
 20
-0.0
 10
1060.46875
 20
-0.0
 10
1050.828125
 20
-0.0
 10
1041.1875
 20
-0.0
 10
1031.546875
 20
-0.0
 10
1021.90625
 20
-0.0
 10
1012.265625
 20
-0.0
 10
1002.625
 20
-0.0
 10
992.984375
 20
-0.0
 10
983.34375
 20
-0.0
 10
973.703125
 20
-0.0
 10
964.0625
 20
-0.0
 10
954.421875
 20
-0.0
 10
944.78125
 20
-0.0
 10
935.140625
 20
-0.0
 10
925.5
 20
-0.0
 10
915.859375
 20
-0.0
 10
906.21875
 20
-0.0
 10
896.578125
 20
-0.0
 10
886.9375
 20
-0.0
 10
877.296875
 20
-0.0
 10
867.65625
 20
-0.0
 10
858.015625
 20
-0.0
 10
848.375
 20
-0.0
 10
838.734375
 20
-0.0
 10
829.09375
 20
-0.0
 10
819.453125
 20
-0.0
 10
809.8125
 20
-0.0
 10
800.171875
 20
-0.0
 10
790.53125
 20
-0.0
 10
780.890625
 20
-0.0
 10
771.25
 20
-0.0
 10
761.609375
 20
-0.0
 10
751.96875
 20
-0.0
 10
742.328125
 20
-0.0
 10
732.6875
 20
-0.0
 10
723.046875
 20
-0.0
 10
713.40625
 20
-0.0
 10
703.765625
 20
-0.0
 10
694.125
 20
-0.0
 10
684.484375
 20
-0.0
 10
674.84375
 20
-0.0
 10
665.203125
 20
-0.0
 10
655.5625
 20
-0.0
 10
645.921875
 20
-0.0
 10
636.28125
 20
-0.0
 10
626.640625
 20
-0.0
 10
617.0
 20
-0.0
 10
607.359375
 20
-0.0
 10
597.71875
 20
-0.0
 10
588.078125
 20
-0.0
 10
578.4375
 20
-0.0
 10
568.796875
 20
-0.0
 10
559.15625
 20
-0.0
 10
549.515625
 20
-0.0
 10
539.875
 20
-0.0
 10
530.234375
 20
-0.0
 10
520.59375
 20
-0.0
 10
510.953125
 20
-0.0
 10
501.3125
 20
-0.0
 10
491.671875
 20
-0.0
 10
482.03125
 20
-0.0
 10
472.390625
 20
-0.0
 10
462.75
 20
-0.0
 10
453.109375
 20
-0.0
 10
443.46875
 20
-0.0
 10
433.828125
 20
-0.0
 10
424.1875
 20
-0.0
 10
414.546875
 20
-0.0
 10
404.90625
 20
-0.0
 10
395.265625
 20
-0.0
 10
385.625
 20
-0.0
 10
375.984375
 20
-0.0
 10
366.34375
 20
-0.0
 10
356.703125
 20
-0.0
 10
347.0625
 20
-0.0
 10
337.421875
 20
-0.0
 10
327.78125
 20
-0.0
 10
318.140625
 20
-0.0
 10
308.5
 20
-0.0
 10
298.859375
 20
-0.0
 10
289.21875
 20
-0.0
 10
279.578125
 20
-0.0
 10
269.9375
 20
-0.0
 10
260.296875
 20
-0.0
 10
250.65625
 20
-0.0
 10
241.015625
 20
-0.0
 10
231.375
 20
-0.0
 10
221.734375
 20
-0.0
 10
212.09375
 20
-0.0
 10
202.453125
 20
-0.0
 10
192.8125
 20
-0.0
 10
183.171875
 20
-0.0
 10
173.53125
 20
-0.0
 10
163.890625
 20
-0.0
 10
154.25
 20
-0.0
 10
144.609375
 20
-0.0
 10
134.96875
 20
-0.0
 10
125.328125
 20
-0.0
 10
115.6875
 20
-0.0
 10
106.046875
 20
-0.0
 10
96.40625
 20
-0.0
 10
86.765625
 20
-0.0
 10
77.125
 20
-0.0
 10
67.484375
 20
-0.0
 10
57.84375
 20
-0.0
 10
48.203125
 20
-0.0
 10
38.5625
 20
-0.0
 10
28.921875
 20
-0.0
 10
19.28125
 20
-0.0
 10
9.640625
 20
-0.0
  0
LWPOLYLINE
  5
34
330
17
100
AcDbEntity
  8
substrate
100
AcDbPolyline
 90
239
 70
1
 43
0.5
 10
2390.875
 20
-2072.734375
 10
2400.515625
 20
-2063.09375
 10
2410.15625
 20
-2063.09375
 10
2419.796875
 20
-2063.09375
 10
2429.4375
 20
-2063.09375
 10
2439.078125
 20
-2063.09375
 10
2448.71875
 20
-2063.09375
 10
2458.359375
 20
-2063.09375
 10
2468.0
 20
-2063.09375
 10
2477.640625
 20
-2063.09375
 10
2487.28125
 20
-2063.09375
 10
2496.921875
 20
-2063.09375
 10
2506.5625
 20
-2063.09375
 10
2516.203125
 20
-2063.09375
 10
2525.84375
 20
-2063.09375
 10
2535.484375
 20
-2072.734375
 10
2545.125
 20
-2072.734375
 10
2554.765625
 20
-2072.734375
 10
2564.40625
 20
-2072.734375
 10
2574.046875
 20
-2072.734375
 10
2583.6875
 20
-2072.734375
 10
2593.328125
 20
-2082.375
 10
2602.96875
 20
-2082.375
 10
2612.609375
 20
-2092.015625
 10
2622.25
 20
-2092.015625
 10
2631.890625
 20
-2092.015625
 10
2641.53125
 20
-2101.65625
 10
2651.171875
 20
-2101.65625
 10
2660.8125
 20
-2111.296875
 10
2670.453125
 20
-2111.296875
 10
2680.09375
 20
-2120.9375
 10
2689.734375
 20
-2130.578125
 10
2699.375
 20
-2140.21875
 10
2709.015625
 20
-2140.21875
 10
2718.65625
 20
-2149.859375
 10
2728.296875
 20
-2159.5
 10
2737.9375
 20
-2169.140625
 10
2747.578125
 20
-2178.78125
 10
2757.21875
 20
-2188.421875
 10
2766.859375
 20
-2198.0625
 10
2766.859375
 20
-2207.703125
 10
2776.5
 20
-2217.34375
 10
2786.140625
 20
-2226.984375
 10
2795.78125
 20
-2236.625
 10
2795.78125
 20
-2246.265625
 10
2805.421875
 20
-2255.90625
 10
2815.0625
 20
-2265.546875
 10
2824.703125
 20
-2275.1875
 10
2824.703125
 20
-2284.828125
 10
2834.34375
 20
-2294.46875
 10
2843.984375
 20
-2304.109375
 10
2843.984375
 20
-2313.75
 10
2843.984375
 20
-2323.390625
 10
2843.984375
 20
-2333.03125
 10
2843.984375
 20
-2342.671875
 10
2843.984375
 20
-2352.3125
 10
2853.625
 20
-2361.953125
 10
2853.625
 20
-2371.59375
 10
2853.625
 20
-2381.234375
 10
2863.265625
 20
-2390.875
 10
2863.265625
 20
-2400.515625
 10
2863.265625
 20
-2410.15625
 10
2863.265625
 20
-2419.796875
 10
2863.265625
 20
-2429.4375
 10
2863.265625
 20
-2439.078125
 10
2863.265625
 20
-2448.71875
 10
2863.265625
 20
-2458.359375
 10
2863.265625
 20
-2468.0
 10
2863.265625
 20
-2477.640625
 10
2863.265625
 20
-2487.28125
 10
2863.265625
 20
-2496.921875
 10
2863.265625
 20
-2506.5625
 10
2863.265625
 20
-2516.203125
 10
2863.265625
 20
-2525.84375
 10
2863.265625
 20
-2535.484375
 10
2863.265625
 20
-2545.125
 10
2853.625
 20
-2554.765625
 10
2853.625
 20
-2564.40625
 10
2843.984375
 20
-2574.046875
 10
2843.984375
 20
-2583.6875
 10
2843.984375
 20
-2593.328125
 10
2843.984375
 20
-2602.96875
 10
2843.984375
 20
-2612.609375
 10
2834.34375
 20
-2622.25
 10
2824.703125
 20
-2631.890625
 10
2824.703125
 20
-2641.53125
 10
2824.703125
 20
-2651.171875
 10
2815.0625
 20
-2660.8125
 10
2805.421875
 20
-2670.453125
 10
2795.78125
 20
-2680.09375
 10
2795.78125
 20
-2689.734375
 10
2786.140625
 20
-2699.375
 10
2786.140625
 20
-2709.015625
 10
2776.5
 20
-2718.65625
 10
2766.859375
 20
-2728.296875
 10
2757.21875
 20
-2728.296875
 10
2757.21875
 20
-2737.9375
 10
2747.578125
 20
-2747.578125
 10
2737.9375
 20
-2757.21875
 10
2728.296875
 20
-2757.21875
 10
2718.65625
 20
-2766.859375
 10
2709.015625
 20
-2776.5
 10
2699.375
 20
-2786.140625
 10
2689.734375
 20
-2795.78125
 10
2680.09375
 20
-2805.421875
 10
2670.453125
 20
-2805.421875
 10
2660.8125
 20
-2815.0625
 10
2651.171875
 20
-2824.703125
 10
2641.53125
 20
-2824.703125
 10
2631.890625
 20
-2834.34375
 10
2622.25
 20
-2834.34375
 10
2612.609375
 20
-2834.34375
 10
2602.96875
 20
-2843.984375
 10
2593.328125
 20
-2843.984375
 10
2583.6875
 20
-2843.984375
 10
2574.046875
 20
-2853.625
 10
2564.40625
 20
-2853.625
 10
2554.765625
 20
-2853.625
 10
2545.125
 20
-2863.265625
 10
2535.484375
 20
-2863.265625
 10
2525.84375
 20
-2863.265625
 10
2516.203125
 20
-2863.265625
 10
2506.5625
 20
-2872.90625
 10
2496.921875
 20
-2863.265625
 10
2487.28125
 20
-2863.265625
 10
2477.640625
 20
-2863.265625
 10
2468.0
 20
-2872.90625
 10
2458.359375
 20
-2872.90625
 10
2448.71875
 20
-2863.265625
 10
2439.078125
 20
-2872.90625
 10
2429.4375
 20
-2872.90625
 10
2419.796875
 20
-2863.265625
 10
2410.15625
 20
-2863.265625
 10
2400.515625
 20
-2863.265625
 10
2390.875
 20
-2863.265625
 10
2381.234375
 20
-2853.625
 10
2371.59375
 20
-2853.625
 10
2361.953125
 20
-2853.625
 10
2352.3125
 20
-2853.625
 10
2342.671875
 20
-2853.625
 10
2333.03125
 20
-2843.984375
 10
2323.390625
 20
-2843.984375
 10
2313.75
 20
-2834.34375
 10
2304.109375
 20
-2834.34375
 10
2294.46875
 20
-2834.34375
 10
2284.828125
 20
-2824.703125
 10
2275.1875
 20
-2824.703125
 10
2265.546875
 20
-2815.0625
 10
2255.90625
 20
-2805.421875
 10
2246.265625
 20
-2805.421875
 10
2236.625
 20
-2795.78125
 10
2226.984375
 20
-2786.140625
 10
2217.34375
 20
-2776.5
 10
2207.703125
 20
-2776.5
 10
2198.0625
 20
-2766.859375
 10
2198.0625
 20
-2757.21875
 10
2188.421875
 20
-2757.21875
 10
2178.78125
 20
-2747.578125
 10
2178.78125
 20
-2737.9375
 10
2169.140625
 20
-2728.296875
 10
2159.5
 20
-2728.296875
 10
2149.859375
 20
-2718.65625
 10
2140.21875
 20
-2709.015625
 10
2140.21875
 20
-2699.375
 10
2130.578125
 20
-2689.734375
 10
2130.578125
 20
-2680.09375
 10
2120.9375
 20
-2670.453125
 10
2120.9375
 20
-2660.8125
 10
2111.296875
 20
-2651.171875
 10
2111.296875
 20
-2641.53125
 10
2101.65625
 20
-2631.890625
 10
2101.65625
 20
-2622.25
 10
2092.015625
 20
-2612.609375
 10
2092.015625
 20
-2602.96875
 10
2082.375
 20
-2593.328125
 10
2082.375
 20
-2583.6875
 10
2082.375
 20
-2574.046875
 10
2072.734375
 20
-2564.40625
 10
2072.734375
 20
-2554.765625
 10
2063.09375
 20
-2545.125
 10
2063.09375
 20
-2535.484375
 10
2063.09375
 20
-2525.84375
 10
2063.09375
 20
-2516.203125
 10
2063.09375
 20
-2506.5625
 10
2063.09375
 20
-2496.921875
 10
2063.09375
 20
-2487.28125
 10
2063.09375
 20
-2477.640625
 10
2063.09375
 20
-2468.0
 10
2063.09375
 20
-2458.359375
 10
2072.734375
 20
-2448.71875
 10
2072.734375
 20
-2439.078125
 10
2063.09375
 20
-2429.4375
 10
2063.09375
 20
-2419.796875
 10
2063.09375
 20
-2410.15625
 10
2072.734375
 20
-2400.515625
 10
2072.734375
 20
-2390.875
 10
2072.734375
 20
-2381.234375
 10
2072.734375
 20
-2371.59375
 10
2072.734375
 20
-2361.953125
 10
2082.375
 20
-2352.3125
 10
2082.375
 20
-2342.671875
 10
2082.375
 20
-2333.03125
 10
2082.375
 20
-2323.390625
 10
2092.015625
 20
-2313.75
 10
2101.65625
 20
-2304.109375
 10
2101.65625
 20
-2294.46875
 10
2111.296875
 20
-2284.828125
 10
2111.296875
 20
-2275.1875
 10
2120.9375
 20
-2265.546875
 10
2120.9375
 20
-2255.90625
 10
2130.578125
 20
-2246.265625
 10
2130.578125
 20
-2236.625
 10
2140.21875
 20
-2226.984375
 10
2149.859375
 20
-2217.34375
 10
2159.5
 20
-2207.703125
 10
2169.140625
 20
-2198.0625
 10
2178.78125
 20
-2188.421875
 10
2188.421875
 20
-2178.78125
 10
2198.0625
 20
-2169.140625
 10
2207.703125
 20
-2159.5
 10
2217.34375
 20
-2149.859375
 10
2226.984375
 20
-2140.21875
 10
2236.625
 20
-2130.578125
 10
2246.265625
 20
-2130.578125
 10
2255.90625
 20
-2130.578125
 10
2265.546875
 20
-2120.9375
 10
2265.546875
 20
-2111.296875
 10
2275.1875
 20
-2101.65625
 10
2284.828125
 20
-2101.65625
 10
2294.46875
 20
-2101.65625
 10
2304.109375
 20
-2101.65625
 10
2313.75
 20
-2092.015625
 10
2323.390625
 20
-2092.015625
 10
2333.03125
 20
-2092.015625
 10
2342.671875
 20
-2082.375
 10
2352.3125
 20
-2082.375
 10
2361.953125
 20
-2082.375
 10
2371.59375
 20
-2072.734375
 10
2381.234375
 20
-2072.734375
  0
LWPOLYLINE
  5
35
330
17
100
AcDbEntity
  8
substrate
100
AcDbPolyline
 90
4
 70
1
 43
0.5
 10
1455.734375
 20
-1561.78125
 10
1465.375
 20
-1552.140625
 10
1475.015625
 20
-1561.78125
 10
1465.375
 20
-1571.421875
  0
ENDSEC
  0
SECTION
  2
OBJECTS
  0
DICTIONARY
  5
A
330
0
100
AcDbDictionary
280
0
281
1
  3
ACAD_COLOR
350
B
  3
ACAD_GROUP
350
C
  3
ACAD_LAYOUT
350
D
  3
ACAD_MATERIAL
350
E
  3
ACAD_MLEADERSTYLE
350
F
  3
ACAD_MLINESTYLE
350
10
  3
ACAD_PLOTSETTINGS
350
11
  3
ACAD_PLOTSTYLENAME
350
12
  3
ACAD_SCALELIST
350
14
  3
ACAD_TABLESTYLE
350
15
  3
ACAD_VISUALSTYLE
350
16
  3
EZDXF_META
350
2D
  0
DICTIONARY
  5
B
330
A
100
AcDbDictionary
280
0
281
1
  0
DICTIONARY
  5
C
330
A
100
AcDbDictionary
280
0
281
1
  0
DICTIONARY
  5
D
330
A
100
AcDbDictionary
280
0
281
1
  3
Model
350
1A
  3
Layout1
350
1E
  0
DICTIONARY
  5
E
330
A
100
AcDbDictionary
280
0
281
1
  3
ByBlock
350
1F
  3
ByLayer
350
20
  3
Global
350
21
  0
DICTIONARY
  5
F
330
A
100
AcDbDictionary
280
0
281
1
  3
Standard
350
2C
  0
DICTIONARY
  5
10
330
A
100
AcDbDictionary
280
0
281
1
  3
Standard
350
22
  0
DICTIONARY
  5
11
330
A
100
AcDbDictionary
280
0
281
1
  0
ACDBDICTIONARYWDFLT
  5
12
330
A
100
AcDbDictionary
280
0
281
1
  3
Normal
350
13
100
AcDbDictionaryWithDefault
340
13
  0
ACDBPLACEHOLDER
  5
13
330
12
  0
DICTIONARY
  5
14
330
A
100
AcDbDictionary
280
0
281
1
  0
DICTIONARY
  5
15
330
A
100
AcDbDictionary
280
0
281
1
  0
DICTIONARY
  5
16
330
A
100
AcDbDictionary
280
0
281
1
  0
LAYOUT
  5
1A
330
D
100
AcDbPlotSettings
  1

  2
Adobe PDF
  4
A3
  6

 40
7.5
 41
20.0
 42
7.5
 43
20.0
 44
420.0
 45
297.0
 46
0.0
 47
0.0
 48
0.0
 49
0.0
140
0.0
141
0.0
142
1.0
143
1.0
 70
1024
 72
1
 73
0
 74
5
  7

 75
16
 76
0
 77
2
 78
300
147
1.0
148
0.0
149
0.0
100
AcDbLayout
  1
Model
 70
1
 71
0
 10
0.0
 20
0.0
 11
420.0
 21
297.0
 12
0.0
 22
0.0
 32
0.0
 14
1e+20
 24
1e+20
 34
1e+20
 15
-1e+20
 25
-1e+20
 35
-1e+20
146
0.0
 13
0.0
 23
0.0
 33
0.0
 16
1.0
 26
0.0
 36
0.0
 17
0.0
 27
1.0
 37
0.0
 76
1
330
17
  0
LAYOUT
  5
1E
330
D
100
AcDbPlotSettings
  1

  2
Adobe PDF
  4
A3
  6

 40
7.5
 41
20.0
 42
7.5
 43
20.0
 44
420.0
 45
297.0
 46
0.0
 47
0.0
 48
0.0
 49
0.0
140
0.0
141
0.0
142
1.0
143
1.0
 70
0
 72
1
 73
0
 74
5
  7

 75
16
 76
0
 77
2
 78
300
147
1.0
148
0.0
149
0.0
100
AcDbLayout
  1
Layout1
 70
1
 71
1
 10
0.0
 20
0.0
 11
420.0
 21
297.0
 12
0.0
 22
0.0
 32
0.0
 14
1e+20
 24
1e+20
 34
1e+20
 15
-1e+20
 25
-1e+20
 35
-1e+20
146
0.0
 13
0.0
 23
0.0
 33
0.0
 16
1.0
 26
0.0
 36
0.0
 17
0.0
 27
1.0
 37
0.0
 76
1
330
1B
  0
MATERIAL
  5
1F
102
{ACAD_REACTORS
330
E
102
}
330
E
100
AcDbMaterial
  1
ByBlock
  2

 70
0
 40
1.0
 71
1
 41
1.0
 91
-1023410177
 42
1.0
 72
1
  3

 73
1
 74
1
 75
1
 44
0.5
 73
0
 45
1.0
 46
1.0
 77
1
  4

 78
1
 79
1
170
1
 48
1.0
171
1
  6

172
1
173
1
174
1
140
1.0
141
1.0
175
1
  7

176
1
177
1
178
1
143
1.0
179
1
  8

270
1
271
1
272
1
145
1.0
146
1.0
273
1
  9

274
1
275
1
276
1
 42
1.0
 72
1
  3

 73
1
 74
1
 75
1
 94
63
  0
MATERIAL
  5
20
102
{ACAD_REACTORS
330
E
102
}
330
E
100
AcDbMaterial
  1
ByLayer
  2

 70
0
 40
1.0
 71
1
 41
1.0
 91
-1023410177
 42
1.0
 72
1
  3

 73
1
 74
1
 75
1
 44
0.5
 73
0
 45
1.0
 46
1.0
 77
1
  4

 78
1
 79
1
170
1
 48
1.0
171
1
  6

172
1
173
1
174
1
140
1.0
141
1.0
175
1
  7

176
1
177
1
178
1
143
1.0
179
1
  8

270
1
271
1
272
1
145
1.0
146
1.0
273
1
  9

274
1
275
1
276
1
 42
1.0
 72
1
  3

 73
1
 74
1
 75
1
 94
63
  0
MATERIAL
  5
21
102
{ACAD_REACTORS
330
E
102
}
330
E
100
AcDbMaterial
  1
Global
  2

 70
0
 40
1.0
 71
1
 41
1.0
 91
-1023410177
 42
1.0
 72
1
  3

 73
1
 74
1
 75
1
 44
0.5
 73
0
 45
1.0
 46
1.0
 77
1
  4

 78
1
 79
1
170
1
 48
1.0
171
1
  6

172
1
173
1
174
1
140
1.0
141
1.0
175
1
  7

176
1
177
1
178
1
143
1.0
179
1
  8

270
1
271
1
272
1
145
1.0
146
1.0
273
1
  9

274
1
275
1
276
1
 42
1.0
 72
1
  3

 73
1
 74
1
 75
1
 94
63
  0
MLINESTYLE
  5
22
102
{ACAD_REACTORS
330
10
102
}
330
10
100
AcDbMlineStyle
  2
Standard
 70
0
  3

 62
256
 51
90.0
 52
90.0
 71
2
 49
0.5
 62
256
  6
BYLAYER
 49
-0.5
 62
256
  6
BYLAYER
  0
MLEADERSTYLE
  5
2C
102
{ACAD_REACTORS
330
F
102
}
330
F
100
AcDbMLeaderStyle
179
2
170
2
171
1
172
0
 90
2
 40
0.0
 41
0.0
173
1
 91
-1056964608
 92
-2
290
1
 42
2.0
291
1
 43
8.0
  3
Standard
 44
4.0
300

342
29
174
1
175
1
176
0
178
1
 93
-1056964608
 45
4.0
292
0
297
0
 46
4.0
 94
-1056964608
 47
1.0
 49
1.0
140
1.0
294
1
141
0.0
177
0
142
1.0
295
0
296
0
143
3.75
271
0
272
9
273
9
  0
DICTIONARY
  5
2D
330
A
100
AcDbDictionary
281
1
  3
CREATED_BY_EZDXF
350
2E
  3
WRITTEN_BY_EZDXF
350
38
  0
DICTIONARYVAR
  5
2E
330
2D
100
DictionaryVariables
280
0
  1
1.1.0 @ 2025-01-07T12:32:16.756036+00:00
  0
DICTIONARYVAR
  5
38
330
2D
100
DictionaryVariables
280
0
  1
1.1.0 @ 2025-01-07T12:32:16.760745+00:00
  0
ENDSEC
  0
EOF
