  0
SECTION
  2
HEADER
  9
$ACADVER
  1
AC1027
  9
$ACADMAINTVER
 70
105
  9
$DWGCODEPAGE
  3
ANSI_1252
  9
$LASTSAVEDBY
  1
ezdxf
  9
$REQUIREDVERSIONS
160
0
  9
$INSBASE
 10
0.0
 20
0.0
 30
0.0
  9
$EXTMIN
 10
1e+20
 20
1e+20
 30
1e+20
  9
$EXTMAX
 10
-1e+20
 20
-1e+20
 30
-1e+20
  9
$LIMMIN
 10
0.0
 20
0.0
  9
$LIMMAX
 10
420.0
 20
297.0
  9
$ORTHOMODE
 70
0
  9
$REGENMODE
 70
1
  9
$FILLMODE
 70
1
  9
$QTEXTMODE
 70
0
  9
$MIRRTEXT
 70
1
  9
$LTSCALE
 40
1.0
  9
$ATTMODE
 70
1
  9
$TEXTSIZE
 40
2.5
  9
$TRACEWID
 40
1.0
  9
$TEXTSTYLE
  7
Standard
  9
$CLAYER
  8
0
  9
$CELTYPE
  6
ByLayer
  9
$CECOLOR
 62
256
  9
$CELTSCALE
 40
1.0
  9
$DISPSILH
 70
0
  9
$DIMSCALE
 40
1.0
  9
$DIMASZ
 40
2.5
  9
$DIMEXO
 40
0.625
  9
$DIMDLI
 40
3.75
  9
$DIMRND
 40
0.0
  9
$DIMDLE
 40
0.0
  9
$DIMEXE
 40
1.25
  9
$DIMTP
 40
0.0
  9
$DIMTM
 40
0.0
  9
$DIMTXT
 40
2.5
  9
$DIMCEN
 40
2.5
  9
$DIMTSZ
 40
0.0
  9
$DIMTOL
 70
0
  9
$DIMLIM
 70
0
  9
$DIMTIH
 70
0
  9
$DIMTOH
 70
0
  9
$DIMSE1
 70
0
  9
$DIMSE2
 70
0
  9
$DIMTAD
 70
1
  9
$DIMZIN
 70
8
  9
$DIMBLK
  1

  9
$DIMASO
 70
1
  9
$DIMSHO
 70
1
  9
$DIMPOST
  1

  9
$DIMAPOST
  1

  9
$DIMALT
 70
0
  9
$DIMALTD
 70
3
  9
$DIMALTF
 40
0.03937007874
  9
$DIMLFAC
 40
1.0
  9
$DIMTOFL
 70
1
  9
$DIMTVP
 40
0.0
  9
$DIMTIX
 70
0
  9
$DIMSOXD
 70
0
  9
$DIMSAH
 70
0
  9
$DIMBLK1
  1

  9
$DIMBLK2
  1

  9
$DIMSTYLE
  2
ISO-25
  9
$DIMCLRD
 70
0
  9
$DIMCLRE
 70
0
  9
$DIMCLRT
 70
0
  9
$DIMTFAC
 40
1.0
  9
$DIMGAP
 40
0.625
  9
$DIMJUST
 70
0
  9
$DIMSD1
 70
0
  9
$DIMSD2
 70
0
  9
$DIMTOLJ
 70
0
  9
$DIMTZIN
 70
8
  9
$DIMALTZ
 70
0
  9
$DIMALTTZ
 70
0
  9
$DIMUPT
 70
0
  9
$DIMDEC
 70
2
  9
$DIMTDEC
 70
2
  9
$DIMALTU
 70
2
  9
$DIMALTTD
 70
3
  9
$DIMTXSTY
  7
Standard
  9
$DIMAUNIT
 70
0
  9
$DIMADEC
 70
0
  9
$DIMALTRND
 40
0.0
  9
$DIMAZIN
 70
0
  9
$DIMDSEP
 70
44
  9
$DIMATFIT
 70
3
  9
$DIMFRAC
 70
0
  9
$DIMLDRBLK
  1

  9
$DIMLUNIT
 70
2
  9
$DIMLWD
 70
-2
  9
$DIMLWE
 70
-2
  9
$DIMTMOVE
 70
0
  9
$DIMFXL
 40
1.0
  9
$DIMFXLON
 70
0
  9
$DIMJOGANG
 40
0.785398163397
  9
$DIMTFILL
 70
0
  9
$DIMTFILLCLR
 70
0
  9
$DIMARCSYM
 70
0
  9
$DIMLTYPE
  6

  9
$DIMLTEX1
  6

  9
$DIMLTEX2
  6

  9
$DIMTXTDIRECTION
 70
0
  9
$LUNITS
 70
2
  9
$LUPREC
 70
4
  9
$SKETCHINC
 40
1.0
  9
$FILLETRAD
 40
10.0
  9
$AUNITS
 70
0
  9
$AUPREC
 70
2
  9
$MENU
  1
.
  9
$ELEVATION
 40
0.0
  9
$PELEVATION
 40
0.0
  9
$THICKNESS
 40
0.0
  9
$LIMCHECK
 70
0
  9
$CHAMFERA
 40
0.0
  9
$CHAMFERB
 40
0.0
  9
$CHAMFERC
 40
0.0
  9
$CHAMFERD
 40
0.0
  9
$SKPOLY
 70
0
  9
$TDCREATE
 40
2460741.6275810185
  9
$TDUCREATE
 40
2458532.153996898
  9
$TDUPDATE
 40
2460741.6275810185
  9
$TDUUPDATE
 40
2458532.1544311
  9
$TDINDWG
 40
0.0
  9
$TDUSRTIMER
 40
0.0
  9
$USRTIMER
 70
1
  9
$ANGBASE
 50
0.0
  9
$ANGDIR
 70
0
  9
$PDMODE
 70
0
  9
$PDSIZE
 40
0.0
  9
$PLINEWID
 40
0.0
  9
$SPLFRAME
 70
0
  9
$SPLINETYPE
 70
6
  9
$SPLINESEGS
 70
8
  9
$HANDSEED
  5
3E
  9
$SURFTAB1
 70
6
  9
$SURFTAB2
 70
6
  9
$SURFTYPE
 70
6
  9
$SURFU
 70
6
  9
$SURFV
 70
6
  9
$UCSBASE
  2

  9
$UCSNAME
  2

  9
$UCSORG
 10
0.0
 20
0.0
 30
0.0
  9
$UCSXDIR
 10
1.0
 20
0.0
 30
0.0
  9
$UCSYDIR
 10
0.0
 20
1.0
 30
0.0
  9
$UCSORTHOREF
  2

  9
$UCSORTHOVIEW
 70
0
  9
$UCSORGTOP
 10
0.0
 20
0.0
 30
0.0
  9
$UCSORGBOTTOM
 10
0.0
 20
0.0
 30
0.0
  9
$UCSORGLEFT
 10
0.0
 20
0.0
 30
0.0
  9
$UCSORGRIGHT
 10
0.0
 20
0.0
 30
0.0
  9
$UCSORGFRONT
 10
0.0
 20
0.0
 30
0.0
  9
$UCSORGBACK
 10
0.0
 20
0.0
 30
0.0
  9
$PUCSBASE
  2

  9
$PUCSNAME
  2

  9
$PUCSORG
 10
0.0
 20
0.0
 30
0.0
  9
$PUCSXDIR
 10
1.0
 20
0.0
 30
0.0
  9
$PUCSYDIR
 10
0.0
 20
1.0
 30
0.0
  9
$PUCSORTHOREF
  2

  9
$PUCSORTHOVIEW
 70
0
  9
$PUCSORGTOP
 10
0.0
 20
0.0
 30
0.0
  9
$PUCSORGBOTTOM
 10
0.0
 20
0.0
 30
0.0
  9
$PUCSORGLEFT
 10
0.0
 20
0.0
 30
0.0
  9
$PUCSORGRIGHT
 10
0.0
 20
0.0
 30
0.0
  9
$PUCSORGFRONT
 10
0.0
 20
0.0
 30
0.0
  9
$PUCSORGBACK
 10
0.0
 20
0.0
 30
0.0
  9
$USERI1
 70
0
  9
$USERI2
 70
0
  9
$USERI3
 70
0
  9
$USERI4
 70
0
  9
$USERI5
 70
0
  9
$USERR1
 40
0.0
  9
$USERR2
 40
0.0
  9
$USERR3
 40
0.0
  9
$USERR4
 40
0.0
  9
$USERR5
 40
0.0
  9
$WORLDVIEW
 70
1
  9
$SHADEDGE
 70
3
  9
$SHADEDIF
 70
70
  9
$TILEMODE
 70
1
  9
$MAXACTVP
 70
64
  9
$PINSBASE
 10
0.0
 20
0.0
 30
0.0
  9
$PLIMCHECK
 70
0
  9
$PEXTMIN
 10
1e+20
 20
1e+20
 30
1e+20
  9
$PEXTMAX
 10
-1e+20
 20
-1e+20
 30
-1e+20
  9
$PLIMMIN
 10
0.0
 20
0.0
  9
$PLIMMAX
 10
420.0
 20
297.0
  9
$UNITMODE
 70
0
  9
$VISRETAIN
 70
1
  9
$PLINEGEN
 70
0
  9
$PSLTSCALE
 70
1
  9
$TREEDEPTH
 70
3020
  9
$CMLSTYLE
  2
Standard
  9
$CMLJUST
 70
0
  9
$CMLSCALE
 40
20.0
  9
$PROXYGRAPHICS
 70
1
  9
$MEASUREMENT
 70
1
  9
$CELWEIGHT
370
-1
  9
$ENDCAPS
280
0
  9
$JOINSTYLE
280
0
  9
$LWDISPLAY
290
0
  9
$INSUNITS
 70
6
  9
$HYPERLINKBASE
  1

  9
$STYLESHEET
  1

  9
$XEDIT
290
1
  9
$CEPSNTYPE
380
0
  9
$PSTYLEMODE
290
1
  9
$FINGERPRINTGUID
  2
{92700D5E-689F-48ED-A943-1BC341BEC8C7}
  9
$VERSIONGUID
  2
{929AB89E-AC1C-46D6-A3A2-E092346D36B0}
  9
$EXTNAMES
290
1
  9
$PSVPSCALE
 40
0.0
  9
$OLESTARTUP
290
0
  9
$SORTENTS
280
127
  9
$INDEXCTL
280
0
  9
$HIDETEXT
280
1
  9
$XCLIPFRAME
280
0
  9
$HALOGAP
280
0
  9
$OBSCOLOR
 70
257
  9
$OBSLTYPE
280
0
  9
$INTERSECTIONDISPLAY
280
0
  9
$INTERSECTIONCOLOR
 70
257
  9
$DIMASSOC
280
2
  9
$PROJECTNAME
  1

  9
$CAMERADISPLAY
290
0
  9
$LENSLENGTH
 40
50.0
  9
$CAMERAHEIGHT
 40
0.0
  9
$STEPSPERSEC
 40
24.0
  9
$STEPSIZE
 40
100.0
  9
$3DDWFPREC
 40
2.0
  9
$PSOLWIDTH
 40
0.005
  9
$PSOLHEIGHT
 40
0.08
  9
$LOFTANG1
 40
1.570796326795
  9
$LOFTANG2
 40
1.570796326795
  9
$LOFTMAG1
 40
0.0
  9
$LOFTMAG2
 40
0.0
  9
$LOFTPARAM
 70
7
  9
$LOFTNORMALS
280
1
  9
$LATITUDE
 40
37.795
  9
$LONGITUDE
 40
-122.394
  9
$NORTHDIRECTION
 40
0.0
  9
$TIMEZONE
 70
-8000
  9
$LIGHTGLYPHDISPLAY
280
1
  9
$TILEMODELIGHTSYNCH
280
1
  9
$CMATERIAL
347
20
  9
$SOLIDHIST
280
0
  9
$SHOWHIST
280
1
  9
$DWFFRAME
280
2
  9
$DGNFRAME
280
2
  9
$REALWORLDSCALE
290
1
  9
$INTERFERECOLOR
 62
256
  9
$CSHADOW
280
0
  9
$SHADOWPLANELOCATION
 40
0.0
  0
ENDSEC
  0
SECTION
  2
CLASSES
  0
CLASS
  1
ACDBDICTIONARYWDFLT
  2
AcDbDictionaryWithDefault
  3
ObjectDBX Classes
 90
0
 91
0
280
0
281
0
  0
CLASS
  1
SUN
  2
AcDbSun
  3
SCENEOE
 90
1153
 91
0
280
0
281
0
  0
CLASS
  1
VISUALSTYLE
  2
AcDbVisualStyle
  3
ObjectDBX Classes
 90
4095
 91
0
280
0
281
0
  0
CLASS
  1
MATERIAL
  2
AcDbMaterial
  3
ObjectDBX Classes
 90
1153
 91
0
280
0
281
0
  0
CLASS
  1
SCALE
  2
AcDbScale
  3
ObjectDBX Classes
 90
1153
 91
0
280
0
281
0
  0
CLASS
  1
TABLESTYLE
  2
AcDbTableStyle
  3
ObjectDBX Classes
 90
4095
 91
0
280
0
281
0
  0
CLASS
  1
MLEADERSTYLE
  2
AcDbMLeaderStyle
  3
ACDB_MLEADERSTYLE_CLASS
 90
4095
 91
0
280
0
281
0
  0
CLASS
  1
DICTIONARYVAR
  2
AcDbDictionaryVar
  3
ObjectDBX Classes
 90
0
 91
0
280
0
281
0
  0
CLASS
  1
CELLSTYLEMAP
  2
AcDbCellStyleMap
  3
ObjectDBX Classes
 90
1152
 91
0
280
0
281
0
  0
CLASS
  1
MENTALRAYRENDERSETTINGS
  2
AcDbMentalRayRenderSettings
  3
SCENEOE
 90
1024
 91
0
280
0
281
0
  0
CLASS
  1
ACDBDETAILVIEWSTYLE
  2
AcDbDetailViewStyle
  3
ObjectDBX Classes
 90
1025
 91
0
280
0
281
0
  0
CLASS
  1
ACDBSECTIONVIEWSTYLE
  2
AcDbSectionViewStyle
  3
ObjectDBX Classes
 90
1025
 91
0
280
0
281
0
  0
CLASS
  1
RASTERVARIABLES
  2
AcDbRasterVariables
  3
ISM
 90
0
 91
0
280
0
281
0
  0
CLASS
  1
ACDBPLACEHOLDER
  2
AcDbPlaceHolder
  3
ObjectDBX Classes
 90
0
 91
0
280
0
281
0
  0
CLASS
  1
LAYOUT
  2
AcDbLayout
  3
ObjectDBX Classes
 90
0
 91
0
280
0
281
0
  0
ENDSEC
  0
SECTION
  2
TABLES
  0
TABLE
  2
VPORT
  5
8
330
0
100
AcDbSymbolTable
 70
1
  0
VPORT
  5
23
330
8
100
AcDbSymbolTableRecord
100
AcDbViewportTableRecord
  2
*Active
 70
0
 10
0.0
 20
0.0
 11
1.0
 21
1.0
 12
0.0
 22
0.0
 13
0.0
 23
0.0
 14
0.5
 24
0.5
 15
0.5
 25
0.5
 16
0.0
 26
0.0
 36
1.0
 17
0.0
 27
0.0
 37
0.0
 40
1000.0
 41
1.34
 42
50.0
 43
0.0
 44
0.0
 50
0.0
 51
0.0
 71
0
 72
1000
 73
1
 74
3
 75
0
 76
0
 77
0
 78
0
281
0
 65
0
146
0.0
  0
ENDTAB
  0
TABLE
  2
LTYPE
  5
2
330
0
100
AcDbSymbolTable
 70
3
  0
LTYPE
  5
24
330
2
100
AcDbSymbolTableRecord
100
AcDbLinetypeTableRecord
  2
ByBlock
 70
0
  3

 72
65
 73
0
 40
0.0
  0
LTYPE
  5
25
330
2
100
AcDbSymbolTableRecord
100
AcDbLinetypeTableRecord
  2
ByLayer
 70
0
  3

 72
65
 73
0
 40
0.0
  0
LTYPE
  5
26
330
2
100
AcDbSymbolTableRecord
100
AcDbLinetypeTableRecord
  2
Continuous
 70
0
  3

 72
65
 73
0
 40
0.0
  0
ENDTAB
  0
TABLE
  2
LAYER
  5
1
330
0
100
AcDbSymbolTable
 70
5
  0
LAYER
  5
27
330
1
100
AcDbSymbolTableRecord
100
AcDbLayerTableRecord
  2
0
 70
0
 62
7
  6
Continuous
370
-3
390
13
347
21
  0
LAYER
  5
28
330
1
100
AcDbSymbolTableRecord
100
AcDbLayerTableRecord
  2
Defpoints
 70
0
 62
7
  6
Continuous
290
0
370
-3
390
13
347
21
  0
LAYER
  5
2F
330
1
100
AcDbSymbolTableRecord
100
AcDbLayerTableRecord
  2
conductor
 70
0
 62
1
  6
Continuous
370
-3
390
13
347
21
  0
LAYER
  5
30
330
1
100
AcDbSymbolTableRecord
100
AcDbLayerTableRecord
  2
dielectric
 70
0
 62
8
  6
Continuous
370
-3
390
13
347
21
  0
LAYER
  5
31
330
1
100
AcDbSymbolTableRecord
100
AcDbLayerTableRecord
  2
substrate
 70
0
 62
5
  6
Continuous
370
-3
390
13
347
21
  0
ENDTAB
  0
TABLE
  2
STYLE
  5
5
330
0
100
AcDbSymbolTable
 70
1
  0
STYLE
  5
29
330
5
100
AcDbSymbolTableRecord
100
AcDbTextStyleTableRecord
  2
Standard
 70
0
 40
0.0
 41
1.0
 50
0.0
 71
0
 42
2.5
  3
txt
  4

  0
ENDTAB
  0
TABLE
  2
VIEW
  5
7
330
0
100
AcDbSymbolTable
 70
0
  0
ENDTAB
  0
TABLE
  2
UCS
  5
6
330
0
100
AcDbSymbolTable
 70
0
  0
ENDTAB
  0
TABLE
  2
APPID
  5
3
330
0
100
AcDbSymbolTable
 70
3
  0
APPID
  5
2A
330
3
100
AcDbSymbolTableRecord
100
AcDbRegAppTableRecord
  2
ACAD
 70
0
  0
APPID
  5
3B
330
3
100
AcDbSymbolTableRecord
100
AcDbRegAppTableRecord
  2
HATCHBACKGROUNDCOLOR
 70
0
  0
APPID
  5
3C
330
3
100
AcDbSymbolTableRecord
100
AcDbRegAppTableRecord
  2
EZDXF
 70
0
  0
ENDTAB
  0
TABLE
  2
DIMSTYLE
  5
4
330
0
100
AcDbSymbolTable
 70
1
100
AcDbDimStyleTable
  0
DIMSTYLE
105
2B
330
4
100
AcDbSymbolTableRecord
100
AcDbDimStyleTableRecord
  2
Standard
 70
0
 40
1.0
 41
2.5
 42
0.625
 43
3.75
 44
1.25
 45
0.0
 46
0.0
 47
0.0
 48
0.0
 49
2.5
140
2.5
141
2.5
142
0.0
143
0.03937007874
144
1.0
145
0.0
146
1.0
147
0.625
148
0.0
 69
0
 70
0
 71
0
 72
0
 73
0
 74
0
 75
0
 76
0
 77
1
 78
8
 79
3
170
0
171
3
172
1
173
0
174
0
175
0
176
0
177
0
178
0
179
2
271
2
272
2
273
2
274
3
275
0
276
0
277
2
278
44
279
0
280
0
281
0
282
0
283
0
284
8
285
0
286
0
288
0
289
3
290
0
371
-2
372
-2
  0
ENDTAB
  0
TABLE
  2
BLOCK_RECORD
  5
9
330
0
100
AcDbSymbolTable
 70
2
  0
BLOCK_RECORD
  5
17
330
9
100
AcDbSymbolTableRecord
100
AcDbBlockTableRecord
  2
*Model_Space
340
1A
 70
0
280
1
281
0
  0
BLOCK_RECORD
  5
1B
330
9
100
AcDbSymbolTableRecord
100
AcDbBlockTableRecord
  2
*Paper_Space
340
1E
 70
0
280
1
281
0
  0
ENDTAB
  0
ENDSEC
  0
SECTION
  2
BLOCKS
  0
BLOCK
  5
18
330
17
100
AcDbEntity
  8
0
100
AcDbBlockBegin
  2
*Model_Space
 70
0
 10
0.0
 20
0.0
 30
0.0
  3
*Model_Space
  1

  0
ENDBLK
  5
19
330
17
100
AcDbEntity
  8
0
100
AcDbBlockEnd
  0
BLOCK
  5
1C
330
1B
100
AcDbEntity
  8
0
100
AcDbBlockBegin
  2
*Paper_Space
 70
0
 10
0.0
 20
0.0
 30
0.0
  3
*Paper_Space
  1

  0
ENDBLK
  5
1D
330
1B
100
AcDbEntity
  8
0
100
AcDbBlockEnd
  0
ENDSEC
  0
SECTION
  2
ENTITIES
  0
LWPOLYLINE
  5
32
330
17
100
AcDbEntity
  8
conductor
100
AcDbPolyline
 90
244
 70
1
 43
0.5
 10
2394.6796875
 20
-2048.4609375
 10
2385.0625
 20
-2058.078125
 10
2375.4453125
 20
-2058.078125
 10
2365.828125
 20
-2067.6953125
 10
2356.2109375
 20
-2067.6953125
 10
2346.59375
 20
-2067.6953125
 10
2336.9765625
 20
-2067.6953125
 10
2327.359375
 20
-2067.6953125
 10
2317.7421875
 20
-2067.6953125
 10
2308.125
 20
-2077.3125
 10
2298.5078125
 20
-2077.3125
 10
2288.890625
 20
-2086.9296875
 10
2279.2734375
 20
-2086.9296875
 10
2269.65625
 20
-2086.9296875
 10
2260.0390625
 20
-2096.546875
 10
2250.421875
 20
-2096.546875
 10
2240.8046875
 20
-2106.1640625
 10
2231.1875
 20
-2115.78125
 10
2221.5703125
 20
-2115.78125
 10
2211.953125
 20
-2125.3984375
 10
2202.3359375
 20
-2135.015625
 10
2192.71875
 20
-2144.6328125
 10
2183.1015625
 20
-2154.25
 10
2173.484375
 20
-2163.8671875
 10
2163.8671875
 20
-2173.484375
 10
2163.8671875
 20
-2183.1015625
 10
2154.25
 20
-2192.71875
 10
2144.6328125
 20
-2192.71875
 10
2144.6328125
 20
-2202.3359375
 10
2135.015625
 20
-2211.953125
 10
2125.3984375
 20
-2221.5703125
 10
2125.3984375
 20
-2231.1875
 10
2115.78125
 20
-2240.8046875
 10
2106.1640625
 20
-2250.421875
 10
2106.1640625
 20
-2260.0390625
 10
2096.546875
 20
-2269.65625
 10
2096.546875
 20
-2279.2734375
 10
2086.9296875
 20
-2288.890625
 10
2086.9296875
 20
-2298.5078125
 10
2086.9296875
 20
-2308.125
 10
2077.3125
 20
-2317.7421875
 10
2077.3125
 20
-2327.359375
 10
2077.3125
 20
-2336.9765625
 10
2067.6953125
 20
-2346.59375
 10
2067.6953125
 20
-2356.2109375
 10
2058.078125
 20
-2365.828125
 10
2058.078125
 20
-2375.4453125
 10
2058.078125
 20
-2385.0625
 10
2058.078125
 20
-2394.6796875
 10
2058.078125
 20
-2404.296875
 10
2058.078125
 20
-2413.9140625
 10
2058.078125
 20
-2423.53125
 10
2058.078125
 20
-2433.1484375
 10
2058.078125
 20
-2442.765625
 10
2067.6953125
 20
-2452.3828125
 10
2058.078125
 20
-2462.0
 10
2067.6953125
 20
-2471.6171875
 10
2058.078125
 20
-2481.234375
 10
2067.6953125
 20
-2490.8515625
 10
2058.078125
 20
-2500.46875
 10
2067.6953125
 20
-2510.0859375
 10
2058.078125
 20
-2519.703125
 10
2067.6953125
 20
-2529.3203125
 10
2067.6953125
 20
-2538.9375
 10
2067.6953125
 20
-2548.5546875
 10
2067.6953125
 20
-2558.171875
 10
2067.6953125
 20
-2567.7890625
 10
2077.3125
 20
-2577.40625
 10
2077.3125
 20
-2587.0234375
 10
2077.3125
 20
-2596.640625
 10
2077.3125
 20
-2606.2578125
 10
2086.9296875
 20
-2615.875
 10
2086.9296875
 20
-2625.4921875
 10
2086.9296875
 20
-2635.109375
 10
2096.546875
 20
-2644.7265625
 10
2096.546875
 20
-2654.34375
 10
2106.1640625
 20
-2663.9609375
 10
2115.78125
 20
-2673.578125
 10
2115.78125
 20
-2683.1953125
 10
2125.3984375
 20
-2692.8125
 10
2125.3984375
 20
-2702.4296875
 10
2125.3984375
 20
-2712.046875
 10
2135.015625
 20
-2721.6640625
 10
2144.6328125
 20
-2721.6640625
 10
2154.25
 20
-2731.28125
 10
2163.8671875
 20
-2740.8984375
 10
2173.484375
 20
-2740.8984375
 10
2183.1015625
 20
-2750.515625
 10
2183.1015625
 20
-2760.1328125
 10
2192.71875
 20
-2769.75
 10
2202.3359375
 20
-2779.3671875
 10
2211.953125
 20
-2788.984375
 10
2221.5703125
 20
-2798.6015625
 10
2231.1875
 20
-2798.6015625
 10
2240.8046875
 20
-2808.21875
 10
2250.421875
 20
-2808.21875
 10
2260.0390625
 20
-2817.8359375
 10
2269.65625
 20
-2827.453125
 10
2279.2734375
 20
-2827.453125
 10
2288.890625
 20
-2827.453125
 10
2298.5078125
 20
-2827.453125
 10
2308.125
 20
-2837.0703125
 10
2317.7421875
 20
-2837.0703125
 10
2327.359375
 20
-2846.6875
 10
2336.9765625
 20
-2846.6875
 10
2346.59375
 20
-2856.3046875
 10
2356.2109375
 20
-2856.3046875
 10
2365.828125
 20
-2856.3046875
 10
2375.4453125
 20
-2856.3046875
 10
2385.0625
 20
-2856.3046875
 10
2394.6796875
 20
-2865.921875
 10
2404.296875
 20
-2865.921875
 10
2413.9140625
 20
-2865.921875
 10
2423.53125
 20
-2865.921875
 10
2433.1484375
 20
-2865.921875
 10
2442.765625
 20
-2865.921875
 10
2452.3828125
 20
-2865.921875
 10
2462.0
 20
-2865.921875
 10
2471.6171875
 20
-2865.921875
 10
2481.234375
 20
-2865.921875
 10
2490.8515625
 20
-2865.921875
 10
2500.46875
 20
-2865.921875
 10
2510.0859375
 20
-2865.921875
 10
2519.703125
 20
-2856.3046875
 10
2529.3203125
 20
-2856.3046875
 10
2538.9375
 20
-2856.3046875
 10
2548.5546875
 20
-2856.3046875
 10
2558.171875
 20
-2856.3046875
 10
2567.7890625
 20
-2846.6875
 10
2577.40625
 20
-2846.6875
 10
2587.0234375
 20
-2837.0703125
 10
2596.640625
 20
-2837.0703125
 10
2606.2578125
 20
-2837.0703125
 10
2615.875
 20
-2827.453125
 10
2625.4921875
 20
-2827.453125
 10
2635.109375
 20
-2827.453125
 10
2644.7265625
 20
-2817.8359375
 10
2654.34375
 20
-2808.21875
 10
2663.9609375
 20
-2808.21875
 10
2673.578125
 20
-2798.6015625
 10
2683.1953125
 20
-2788.984375
 10
2692.8125
 20
-2779.3671875
 10
2702.4296875
 20
-2779.3671875
 10
2712.046875
 20
-2769.75
 10
2721.6640625
 20
-2769.75
 10
2731.28125
 20
-2760.1328125
 10
2740.8984375
 20
-2750.515625
 10
2750.515625
 20
-2740.8984375
 10
2760.1328125
 20
-2740.8984375
 10
2769.75
 20
-2731.28125
 10
2769.75
 20
-2721.6640625
 10
2779.3671875
 20
-2712.046875
 10
2788.984375
 20
-2702.4296875
 10
2798.6015625
 20
-2692.8125
 10
2798.6015625
 20
-2683.1953125
 10
2808.21875
 20
-2673.578125
 10
2817.8359375
 20
-2663.9609375
 10
2827.453125
 20
-2654.34375
 10
2827.453125
 20
-2644.7265625
 10
2827.453125
 20
-2635.109375
 10
2827.453125
 20
-2625.4921875
 10
2827.453125
 20
-2615.875
 10
2837.0703125
 20
-2606.2578125
 10
2837.0703125
 20
-2596.640625
 10
2846.6875
 20
-2587.0234375
 10
2846.6875
 20
-2577.40625
 10
2846.6875
 20
-2567.7890625
 10
2846.6875
 20
-2558.171875
 10
2856.3046875
 20
-2548.5546875
 10
2856.3046875
 20
-2538.9375
 10
2856.3046875
 20
-2529.3203125
 10
2856.3046875
 20
-2519.703125
 10
2865.921875
 20
-2510.0859375
 10
2865.921875
 20
-2500.46875
 10
2865.921875
 20
-2490.8515625
 10
2865.921875
 20
-2481.234375
 10
2865.921875
 20
-2471.6171875
 10
2865.921875
 20
-2462.0
 10
2865.921875
 20
-2452.3828125
 10
2865.921875
 20
-2442.765625
 10
2865.921875
 20
-2433.1484375
 10
2865.921875
 20
-2423.53125
 10
2856.3046875
 20
-2413.9140625
 10
2865.921875
 20
-2404.296875
 10
2865.921875
 20
-2394.6796875
 10
2865.921875
 20
-2385.0625
 10
2856.3046875
 20
-2375.4453125
 10
2856.3046875
 20
-2365.828125
 10
2856.3046875
 20
-2356.2109375
 10
2846.6875
 20
-2346.59375
 10
2846.6875
 20
-2336.9765625
 10
2846.6875
 20
-2327.359375
 10
2846.6875
 20
-2317.7421875
 10
2837.0703125
 20
-2308.125
 10
2837.0703125
 20
-2298.5078125
 10
2827.453125
 20
-2288.890625
 10
2827.453125
 20
-2279.2734375
 10
2827.453125
 20
-2269.65625
 10
2817.8359375
 20
-2260.0390625
 10
2817.8359375
 20
-2250.421875
 10
2808.21875
 20
-2240.8046875
 10
2798.6015625
 20
-2231.1875
 10
2788.984375
 20
-2221.5703125
 10
2779.3671875
 20
-2211.953125
 10
2769.75
 20
-2202.3359375
 10
2760.1328125
 20
-2192.71875
 10
2760.1328125
 20
-2183.1015625
 10
2750.515625
 20
-2173.484375
 10
2740.8984375
 20
-2163.8671875
 10
2731.28125
 20
-2154.25
 10
2721.6640625
 20
-2144.6328125
 10
2712.046875
 20
-2135.015625
 10
2702.4296875
 20
-2135.015625
 10
2692.8125
 20
-2125.3984375
 10
2683.1953125
 20
-2115.78125
 10
2673.578125
 20
-2106.1640625
 10
2663.9609375
 20
-2096.546875
 10
2654.34375
 20
-2096.546875
 10
2644.7265625
 20
-2096.546875
 10
2635.109375
 20
-2086.9296875
 10
2625.4921875
 20
-2086.9296875
 10
2615.875
 20
-2086.9296875
 10
2606.2578125
 20
-2086.9296875
 10
2596.640625
 20
-2077.3125
 10
2587.0234375
 20
-2077.3125
 10
2577.40625
 20
-2067.6953125
 10
2567.7890625
 20
-2067.6953125
 10
2558.171875
 20
-2067.6953125
 10
2548.5546875
 20
-2067.6953125
 10
2538.9375
 20
-2067.6953125
 10
2529.3203125
 20
-2058.078125
 10
2519.703125
 20
-2048.4609375
 10
2510.0859375
 20
-2058.078125
 10
2500.46875
 20
-2058.078125
 10
2490.8515625
 20
-2048.4609375
 10
2481.234375
 20
-2048.4609375
 10
2471.6171875
 20
-2048.4609375
 10
2462.0
 20
-2048.4609375
 10
2452.3828125
 20
-2048.4609375
 10
2442.765625
 20
-2048.4609375
 10
2433.1484375
 20
-2048.4609375
 10
2423.53125
 20
-2048.4609375
 10
2413.9140625
 20
-2048.4609375
 10
2404.296875
 20
-2048.4609375
  0
LWPOLYLINE
  5
33
330
17
100
AcDbEntity
  8
conductor
100
AcDbPolyline
 90
4
 70
1
 43
0.5
 10
2298.5078125
 20
-2625.4921875
 10
2308.125
 20
-2615.875
 10
2317.7421875
 20
-2625.4921875
 10
2308.125
 20
-2635.109375
  0
LWPOLYLINE
  5
34
330
17
100
AcDbEntity
  8
conductor
100
AcDbPolyline
 90
4
 70
1
 43
0.5
 10
2240.8046875
 20
-2452.3828125
 10
2250.421875
 20
-2442.765625
 10
2260.0390625
 20
-2452.3828125
 10
2250.421875
 20
-2462.0
  0
LWPOLYLINE
  5
35
330
17
100
AcDbEntity
  8
conductor
100
AcDbPolyline
 90
4
 70
1
 43
0.5
 10
2356.2109375
 20
-2250.421875
 10
2365.828125
 20
-2240.8046875
 10
2375.4453125
 20
-2250.421875
 10
2365.828125
 20
-2260.0390625
  0
LWPOLYLINE
  5
36
330
17
100
AcDbEntity
  8
substrate
100
AcDbPolyline
 90
2044
 70
1
 43
0.5
 10
0.0
 20
-0.0
 10
0.0
 20
-9.6171875
 10
0.0
 20
-19.234375
 10
0.0
 20
-28.8515625
 10
0.0
 20
-38.46875
 10
0.0
 20
-48.0859375
 10
0.0
 20
-57.703125
 10
0.0
 20
-67.3203125
 10
0.0
 20
-76.9375
 10
0.0
 20
-86.5546875
 10
0.0
 20
-96.171875
 10
0.0
 20
-105.7890625
 10
0.0
 20
-115.40625
 10
0.0
 20
-125.0234375
 10
0.0
 20
-134.640625
 10
0.0
 20
-144.2578125
 10
0.0
 20
-153.875
 10
0.0
 20
-163.4921875
 10
0.0
 20
-173.109375
 10
0.0
 20
-182.7265625
 10
0.0
 20
-192.34375
 10
0.0
 20
-201.9609375
 10
0.0
 20
-211.578125
 10
0.0
 20
-221.1953125
 10
0.0
 20
-230.8125
 10
0.0
 20
-240.4296875
 10
0.0
 20
-250.046875
 10
0.0
 20
-259.6640625
 10
0.0
 20
-269.28125
 10
0.0
 20
-278.8984375
 10
0.0
 20
-288.515625
 10
0.0
 20
-298.1328125
 10
0.0
 20
-307.75
 10
0.0
 20
-317.3671875
 10
0.0
 20
-326.984375
 10
0.0
 20
-336.6015625
 10
0.0
 20
-346.21875
 10
0.0
 20
-355.8359375
 10
0.0
 20
-365.453125
 10
0.0
 20
-375.0703125
 10
0.0
 20
-384.6875
 10
0.0
 20
-394.3046875
 10
0.0
 20
-403.921875
 10
0.0
 20
-413.5390625
 10
0.0
 20
-423.15625
 10
0.0
 20
-432.7734375
 10
0.0
 20
-442.390625
 10
0.0
 20
-452.0078125
 10
0.0
 20
-461.625
 10
0.0
 20
-471.2421875
 10
0.0
 20
-480.859375
 10
0.0
 20
-490.4765625
 10
0.0
 20
-500.09375
 10
0.0
 20
-509.7109375
 10
0.0
 20
-519.328125
 10
0.0
 20
-528.9453125
 10
0.0
 20
-538.5625
 10
0.0
 20
-548.1796875
 10
0.0
 20
-557.796875
 10
0.0
 20
-567.4140625
 10
0.0
 20
-577.03125
 10
0.0
 20
-586.6484375
 10
0.0
 20
-596.265625
 10
0.0
 20
-605.8828125
 10
0.0
 20
-615.5
 10
0.0
 20
-625.1171875
 10
0.0
 20
-634.734375
 10
0.0
 20
-644.3515625
 10
0.0
 20
-653.96875
 10
0.0
 20
-663.5859375
 10
0.0
 20
-673.203125
 10
0.0
 20
-682.8203125
 10
0.0
 20
-692.4375
 10
0.0
 20
-702.0546875
 10
0.0
 20
-711.671875
 10
0.0
 20
-721.2890625
 10
0.0
 20
-730.90625
 10
0.0
 20
-740.5234375
 10
0.0
 20
-750.140625
 10
0.0
 20
-759.7578125
 10
0.0
 20
-769.375
 10
0.0
 20
-778.9921875
 10
0.0
 20
-788.609375
 10
0.0
 20
-798.2265625
 10
0.0
 20
-807.84375
 10
0.0
 20
-817.4609375
 10
0.0
 20
-827.078125
 10
0.0
 20
-836.6953125
 10
0.0
 20
-846.3125
 10
0.0
 20
-855.9296875
 10
0.0
 20
-865.546875
 10
0.0
 20
-875.1640625
 10
0.0
 20
-884.78125
 10
0.0
 20
-894.3984375
 10
0.0
 20
-904.015625
 10
0.0
 20
-913.6328125
 10
0.0
 20
-923.25
 10
0.0
 20
-932.8671875
 10
0.0
 20
-942.484375
 10
0.0
 20
-952.1015625
 10
0.0
 20
-961.71875
 10
0.0
 20
-971.3359375
 10
0.0
 20
-980.953125
 10
0.0
 20
-990.5703125
 10
0.0
 20
-1000.1875
 10
0.0
 20
-1009.8046875
 10
0.0
 20
-1019.421875
 10
0.0
 20
-1029.0390625
 10
0.0
 20
-1038.65625
 10
0.0
 20
-1048.2734375
 10
0.0
 20
-1057.890625
 10
0.0
 20
-1067.5078125
 10
0.0
 20
-1077.125
 10
0.0
 20
-1086.7421875
 10
0.0
 20
-1096.359375
 10
0.0
 20
-1105.9765625
 10
0.0
 20
-1115.59375
 10
0.0
 20
-1125.2109375
 10
0.0
 20
-1134.828125
 10
0.0
 20
-1144.4453125
 10
0.0
 20
-1154.0625
 10
0.0
 20
-1163.6796875
 10
0.0
 20
-1173.296875
 10
0.0
 20
-1182.9140625
 10
0.0
 20
-1192.53125
 10
0.0
 20
-1202.1484375
 10
0.0
 20
-1211.765625
 10
0.0
 20
-1221.3828125
 10
0.0
 20
-1231.0
 10
0.0
 20
-1240.6171875
 10
0.0
 20
-1250.234375
 10
0.0
 20
-1259.8515625
 10
0.0
 20
-1269.46875
 10
0.0
 20
-1279.0859375
 10
0.0
 20
-1288.703125
 10
0.0
 20
-1298.3203125
 10
0.0
 20
-1307.9375
 10
0.0
 20
-1317.5546875
 10
0.0
 20
-1327.171875
 10
0.0
 20
-1336.7890625
 10
0.0
 20
-1346.40625
 10
0.0
 20
-1356.0234375
 10
0.0
 20
-1365.640625
 10
0.0
 20
-1375.2578125
 10
0.0
 20
-1384.875
 10
0.0
 20
-1394.4921875
 10
0.0
 20
-1404.109375
 10
0.0
 20
-1413.7265625
 10
0.0
 20
-1423.34375
 10
0.0
 20
-1432.9609375
 10
0.0
 20
-1442.578125
 10
0.0
 20
-1452.1953125
 10
0.0
 20
-1461.8125
 10
0.0
 20
-1471.4296875
 10
0.0
 20
-1481.046875
 10
0.0
 20
-1490.6640625
 10
0.0
 20
-1500.28125
 10
0.0
 20
-1509.8984375
 10
0.0
 20
-1519.515625
 10
0.0
 20
-1529.1328125
 10
0.0
 20
-1538.75
 10
0.0
 20
-1548.3671875
 10
0.0
 20
-1557.984375
 10
0.0
 20
-1567.6015625
 10
0.0
 20
-1577.21875
 10
0.0
 20
-1586.8359375
 10
0.0
 20
-1596.453125
 10
0.0
 20
-1606.0703125
 10
0.0
 20
-1615.6875
 10
0.0
 20
-1625.3046875
 10
0.0
 20
-1634.921875
 10
0.0
 20
-1644.5390625
 10
0.0
 20
-1654.15625
 10
0.0
 20
-1663.7734375
 10
0.0
 20
-1673.390625
 10
0.0
 20
-1683.0078125
 10
0.0
 20
-1692.625
 10
0.0
 20
-1702.2421875
 10
0.0
 20
-1711.859375
 10
0.0
 20
-1721.4765625
 10
0.0
 20
-1731.09375
 10
0.0
 20
-1740.7109375
 10
0.0
 20
-1750.328125
 10
0.0
 20
-1759.9453125
 10
0.0
 20
-1769.5625
 10
0.0
 20
-1779.1796875
 10
0.0
 20
-1788.796875
 10
0.0
 20
-1798.4140625
 10
0.0
 20
-1808.03125
 10
0.0
 20
-1817.6484375
 10
0.0
 20
-1827.265625
 10
0.0
 20
-1836.8828125
 10
0.0
 20
-1846.5
 10
0.0
 20
-1856.1171875
 10
0.0
 20
-1865.734375
 10
0.0
 20
-1875.3515625
 10
0.0
 20
-1884.96875
 10
0.0
 20
-1894.5859375
 10
0.0
 20
-1904.203125
 10
0.0
 20
-1913.8203125
 10
0.0
 20
-1923.4375
 10
0.0
 20
-1933.0546875
 10
0.0
 20
-1942.671875
 10
0.0
 20
-1952.2890625
 10
0.0
 20
-1961.90625
 10
0.0
 20
-1971.5234375
 10
0.0
 20
-1981.140625
 10
0.0
 20
-1990.7578125
 10
0.0
 20
-2000.375
 10
0.0
 20
-2009.9921875
 10
0.0
 20
-2019.609375
 10
0.0
 20
-2029.2265625
 10
0.0
 20
-2038.84375
 10
0.0
 20
-2048.4609375
 10
0.0
 20
-2058.078125
 10
0.0
 20
-2067.6953125
 10
0.0
 20
-2077.3125
 10
0.0
 20
-2086.9296875
 10
0.0
 20
-2096.546875
 10
0.0
 20
-2106.1640625
 10
0.0
 20
-2115.78125
 10
0.0
 20
-2125.3984375
 10
0.0
 20
-2135.015625
 10
0.0
 20
-2144.6328125
 10
0.0
 20
-2154.25
 10
0.0
 20
-2163.8671875
 10
0.0
 20
-2173.484375
 10
0.0
 20
-2183.1015625
 10
0.0
 20
-2192.71875
 10
0.0
 20
-2202.3359375
 10
0.0
 20
-2211.953125
 10
0.0
 20
-2221.5703125
 10
0.0
 20
-2231.1875
 10
0.0
 20
-2240.8046875
 10
0.0
 20
-2250.421875
 10
0.0
 20
-2260.0390625
 10
0.0
 20
-2269.65625
 10
0.0
 20
-2279.2734375
 10
0.0
 20
-2288.890625
 10
0.0
 20
-2298.5078125
 10
0.0
 20
-2308.125
 10
0.0
 20
-2317.7421875
 10
0.0
 20
-2327.359375
 10
0.0
 20
-2336.9765625
 10
0.0
 20
-2346.59375
 10
0.0
 20
-2356.2109375
 10
0.0
 20
-2365.828125
 10
0.0
 20
-2375.4453125
 10
0.0
 20
-2385.0625
 10
0.0
 20
-2394.6796875
 10
0.0
 20
-2404.296875
 10
0.0
 20
-2413.9140625
 10
0.0
 20
-2423.53125
 10
0.0
 20
-2433.1484375
 10
0.0
 20
-2442.765625
 10
0.0
 20
-2452.3828125
 10
0.0
 20
-2462.0
 10
0.0
 20
-2471.6171875
 10
0.0
 20
-2481.234375
 10
0.0
 20
-2490.8515625
 10
0.0
 20
-2500.46875
 10
0.0
 20
-2510.0859375
 10
0.0
 20
-2519.703125
 10
0.0
 20
-2529.3203125
 10
0.0
 20
-2538.9375
 10
0.0
 20
-2548.5546875
 10
0.0
 20
-2558.171875
 10
0.0
 20
-2567.7890625
 10
0.0
 20
-2577.40625
 10
0.0
 20
-2587.0234375
 10
0.0
 20
-2596.640625
 10
0.0
 20
-2606.2578125
 10
0.0
 20
-2615.875
 10
0.0
 20
-2625.4921875
 10
0.0
 20
-2635.109375
 10
0.0
 20
-2644.7265625
 10
0.0
 20
-2654.34375
 10
0.0
 20
-2663.9609375
 10
0.0
 20
-2673.578125
 10
0.0
 20
-2683.1953125
 10
0.0
 20
-2692.8125
 10
0.0
 20
-2702.4296875
 10
0.0
 20
-2712.046875
 10
0.0
 20
-2721.6640625
 10
0.0
 20
-2731.28125
 10
0.0
 20
-2740.8984375
 10
0.0
 20
-2750.515625
 10
0.0
 20
-2760.1328125
 10
0.0
 20
-2769.75
 10
0.0
 20
-2779.3671875
 10
0.0
 20
-2788.984375
 10
0.0
 20
-2798.6015625
 10
0.0
 20
-2808.21875
 10
0.0
 20
-2817.8359375
 10
0.0
 20
-2827.453125
 10
0.0
 20
-2837.0703125
 10
0.0
 20
-2846.6875
 10
0.0
 20
-2856.3046875
 10
0.0
 20
-2865.921875
 10
0.0
 20
-2875.5390625
 10
0.0
 20
-2885.15625
 10
0.0
 20
-2894.7734375
 10
0.0
 20
-2904.390625
 10
0.0
 20
-2914.0078125
 10
0.0
 20
-2923.625
 10
0.0
 20
-2933.2421875
 10
0.0
 20
-2942.859375
 10
0.0
 20
-2952.4765625
 10
0.0
 20
-2962.09375
 10
0.0
 20
-2971.7109375
 10
0.0
 20
-2981.328125
 10
0.0
 20
-2990.9453125
 10
0.0
 20
-3000.5625
 10
0.0
 20
-3010.1796875
 10
0.0
 20
-3019.796875
 10
0.0
 20
-3029.4140625
 10
0.0
 20
-3039.03125
 10
0.0
 20
-3048.6484375
 10
0.0
 20
-3058.265625
 10
0.0
 20
-3067.8828125
 10
0.0
 20
-3077.5
 10
0.0
 20
-3087.1171875
 10
0.0
 20
-3096.734375
 10
0.0
 20
-3106.3515625
 10
0.0
 20
-3115.96875
 10
0.0
 20
-3125.5859375
 10
0.0
 20
-3135.203125
 10
0.0
 20
-3144.8203125
 10
0.0
 20
-3154.4375
 10
0.0
 20
-3164.0546875
 10
0.0
 20
-3173.671875
 10
0.0
 20
-3183.2890625
 10
0.0
 20
-3192.90625
 10
0.0
 20
-3202.5234375
 10
0.0
 20
-3212.140625
 10
0.0
 20
-3221.7578125
 10
0.0
 20
-3231.375
 10
0.0
 20
-3240.9921875
 10
0.0
 20
-3250.609375
 10
0.0
 20
-3260.2265625
 10
0.0
 20
-3269.84375
 10
0.0
 20
-3279.4609375
 10
0.0
 20
-3289.078125
 10
0.0
 20
-3298.6953125
 10
0.0
 20
-3308.3125
 10
0.0
 20
-3317.9296875
 10
0.0
 20
-3327.546875
 10
0.0
 20
-3337.1640625
 10
0.0
 20
-3346.78125
 10
0.0
 20
-3356.3984375
 10
0.0
 20
-3366.015625
 10
0.0
 20
-3375.6328125
 10
0.0
 20
-3385.25
 10
0.0
 20
-3394.8671875
 10
0.0
 20
-3404.484375
 10
0.0
 20
-3414.1015625
 10
0.0
 20
-3423.71875
 10
0.0
 20
-3433.3359375
 10
0.0
 20
-3442.953125
 10
0.0
 20
-3452.5703125
 10
0.0
 20
-3462.1875
 10
0.0
 20
-3471.8046875
 10
0.0
 20
-3481.421875
 10
0.0
 20
-3491.0390625
 10
0.0
 20
-3500.65625
 10
0.0
 20
-3510.2734375
 10
0.0
 20
-3519.890625
 10
0.0
 20
-3529.5078125
 10
0.0
 20
-3539.125
 10
0.0
 20
-3548.7421875
 10
0.0
 20
-3558.359375
 10
0.0
 20
-3567.9765625
 10
0.0
 20
-3577.59375
 10
0.0
 20
-3587.2109375
 10
0.0
 20
-3596.828125
 10
0.0
 20
-3606.4453125
 10
0.0
 20
-3616.0625
 10
0.0
 20
-3625.6796875
 10
0.0
 20
-3635.296875
 10
0.0
 20
-3644.9140625
 10
0.0
 20
-3654.53125
 10
0.0
 20
-3664.1484375
 10
0.0
 20
-3673.765625
 10
0.0
 20
-3683.3828125
 10
0.0
 20
-3693.0
 10
0.0
 20
-3702.6171875
 10
0.0
 20
-3712.234375
 10
0.0
 20
-3721.8515625
 10
0.0
 20
-3731.46875
 10
0.0
 20
-3741.0859375
 10
0.0
 20
-3750.703125
 10
0.0
 20
-3760.3203125
 10
0.0
 20
-3769.9375
 10
0.0
 20
-3779.5546875
 10
0.0
 20
-3789.171875
 10
0.0
 20
-3798.7890625
 10
0.0
 20
-3808.40625
 10
0.0
 20
-3818.0234375
 10
0.0
 20
-3827.640625
 10
0.0
 20
-3837.2578125
 10
0.0
 20
-3846.875
 10
0.0
 20
-3856.4921875
 10
0.0
 20
-3866.109375
 10
0.0
 20
-3875.7265625
 10
0.0
 20
-3885.34375
 10
0.0
 20
-3894.9609375
 10
0.0
 20
-3904.578125
 10
0.0
 20
-3914.1953125
 10
0.0
 20
-3923.8125
 10
0.0
 20
-3933.4296875
 10
0.0
 20
-3943.046875
 10
0.0
 20
-3952.6640625
 10
0.0
 20
-3962.28125
 10
0.0
 20
-3971.8984375
 10
0.0
 20
-3981.515625
 10
0.0
 20
-3991.1328125
 10
0.0
 20
-4000.75
 10
0.0
 20
-4010.3671875
 10
0.0
 20
-4019.984375
 10
0.0
 20
-4029.6015625
 10
0.0
 20
-4039.21875
 10
0.0
 20
-4048.8359375
 10
0.0
 20
-4058.453125
 10
0.0
 20
-4068.0703125
 10
0.0
 20
-4077.6875
 10
0.0
 20
-4087.3046875
 10
0.0
 20
-4096.921875
 10
0.0
 20
-4106.5390625
 10
0.0
 20
-4116.15625
 10
0.0
 20
-4125.7734375
 10
0.0
 20
-4135.390625
 10
0.0
 20
-4145.0078125
 10
0.0
 20
-4154.625
 10
0.0
 20
-4164.2421875
 10
0.0
 20
-4173.859375
 10
0.0
 20
-4183.4765625
 10
0.0
 20
-4193.09375
 10
0.0
 20
-4202.7109375
 10
0.0
 20
-4212.328125
 10
0.0
 20
-4221.9453125
 10
0.0
 20
-4231.5625
 10
0.0
 20
-4241.1796875
 10
0.0
 20
-4250.796875
 10
0.0
 20
-4260.4140625
 10
0.0
 20
-4270.03125
 10
0.0
 20
-4279.6484375
 10
0.0
 20
-4289.265625
 10
0.0
 20
-4298.8828125
 10
0.0
 20
-4308.5
 10
0.0
 20
-4318.1171875
 10
0.0
 20
-4327.734375
 10
0.0
 20
-4337.3515625
 10
0.0
 20
-4346.96875
 10
0.0
 20
-4356.5859375
 10
0.0
 20
-4366.203125
 10
0.0
 20
-4375.8203125
 10
0.0
 20
-4385.4375
 10
0.0
 20
-4395.0546875
 10
0.0
 20
-4404.671875
 10
0.0
 20
-4414.2890625
 10
0.0
 20
-4423.90625
 10
0.0
 20
-4433.5234375
 10
0.0
 20
-4443.140625
 10
0.0
 20
-4452.7578125
 10
0.0
 20
-4462.375
 10
0.0
 20
-4471.9921875
 10
0.0
 20
-4481.609375
 10
0.0
 20
-4491.2265625
 10
0.0
 20
-4500.84375
 10
0.0
 20
-4510.4609375
 10
0.0
 20
-4520.078125
 10
0.0
 20
-4529.6953125
 10
0.0
 20
-4539.3125
 10
0.0
 20
-4548.9296875
 10
0.0
 20
-4558.546875
 10
0.0
 20
-4568.1640625
 10
0.0
 20
-4577.78125
 10
0.0
 20
-4587.3984375
 10
0.0
 20
-4597.015625
 10
0.0
 20
-4606.6328125
 10
0.0
 20
-4616.25
 10
0.0
 20
-4625.8671875
 10
0.0
 20
-4635.484375
 10
0.0
 20
-4645.1015625
 10
0.0
 20
-4654.71875
 10
0.0
 20
-4664.3359375
 10
0.0
 20
-4673.953125
 10
0.0
 20
-4683.5703125
 10
0.0
 20
-4693.1875
 10
0.0
 20
-4702.8046875
 10
0.0
 20
-4712.421875
 10
0.0
 20
-4722.0390625
 10
0.0
 20
-4731.65625
 10
0.0
 20
-4741.2734375
 10
0.0
 20
-4750.890625
 10
0.0
 20
-4760.5078125
 10
0.0
 20
-4770.125
 10
0.0
 20
-4779.7421875
 10
0.0
 20
-4789.359375
 10
0.0
 20
-4798.9765625
 10
0.0
 20
-4808.59375
 10
0.0
 20
-4818.2109375
 10
0.0
 20
-4827.828125
 10
0.0
 20
-4837.4453125
 10
0.0
 20
-4847.0625
 10
0.0
 20
-4856.6796875
 10
0.0
 20
-4866.296875
 10
0.0
 20
-4875.9140625
 10
0.0
 20
-4885.53125
 10
0.0
 20
-4895.1484375
 10
0.0
 20
-4904.765625
 10
0.0
 20
-4914.3828125
 10
9.6171875
 20
-4914.3828125
 10
19.234375
 20
-4914.3828125
 10
28.8515625
 20
-4914.3828125
 10
38.46875
 20
-4914.3828125
 10
48.0859375
 20
-4914.3828125
 10
57.703125
 20
-4914.3828125
 10
67.3203125
 20
-4914.3828125
 10
76.9375
 20
-4914.3828125
 10
86.5546875
 20
-4914.3828125
 10
96.171875
 20
-4914.3828125
 10
105.7890625
 20
-4914.3828125
 10
115.40625
 20
-4914.3828125
 10
125.0234375
 20
-4914.3828125
 10
134.640625
 20
-4914.3828125
 10
144.2578125
 20
-4914.3828125
 10
153.875
 20
-4914.3828125
 10
163.4921875
 20
-4914.3828125
 10
173.109375
 20
-4914.3828125
 10
182.7265625
 20
-4914.3828125
 10
192.34375
 20
-4914.3828125
 10
201.9609375
 20
-4914.3828125
 10
211.578125
 20
-4914.3828125
 10
221.1953125
 20
-4914.3828125
 10
230.8125
 20
-4914.3828125
 10
240.4296875
 20
-4914.3828125
 10
250.046875
 20
-4914.3828125
 10
259.6640625
 20
-4914.3828125
 10
269.28125
 20
-4914.3828125
 10
278.8984375
 20
-4914.3828125
 10
288.515625
 20
-4914.3828125
 10
298.1328125
 20
-4914.3828125
 10
307.75
 20
-4914.3828125
 10
317.3671875
 20
-4914.3828125
 10
326.984375
 20
-4914.3828125
 10
336.6015625
 20
-4914.3828125
 10
346.21875
 20
-4914.3828125
 10
355.8359375
 20
-4914.3828125
 10
365.453125
 20
-4914.3828125
 10
375.0703125
 20
-4914.3828125
 10
384.6875
 20
-4914.3828125
 10
394.3046875
 20
-4914.3828125
 10
403.921875
 20
-4914.3828125
 10
413.5390625
 20
-4914.3828125
 10
423.15625
 20
-4914.3828125
 10
432.7734375
 20
-4914.3828125
 10
442.390625
 20
-4914.3828125
 10
452.0078125
 20
-4914.3828125
 10
461.625
 20
-4914.3828125
 10
471.2421875
 20
-4914.3828125
 10
480.859375
 20
-4914.3828125
 10
490.4765625
 20
-4914.3828125
 10
500.09375
 20
-4914.3828125
 10
509.7109375
 20
-4914.3828125
 10
519.328125
 20
-4914.3828125
 10
528.9453125
 20
-4914.3828125
 10
538.5625
 20
-4914.3828125
 10
548.1796875
 20
-4914.3828125
 10
557.796875
 20
-4914.3828125
 10
567.4140625
 20
-4914.3828125
 10
577.03125
 20
-4914.3828125
 10
586.6484375
 20
-4914.3828125
 10
596.265625
 20
-4914.3828125
 10
605.8828125
 20
-4914.3828125
 10
615.5
 20
-4914.3828125
 10
625.1171875
 20
-4914.3828125
 10
634.734375
 20
-4914.3828125
 10
644.3515625
 20
-4914.3828125
 10
653.96875
 20
-4914.3828125
 10
663.5859375
 20
-4914.3828125
 10
673.203125
 20
-4914.3828125
 10
682.8203125
 20
-4914.3828125
 10
692.4375
 20
-4914.3828125
 10
702.0546875
 20
-4914.3828125
 10
711.671875
 20
-4914.3828125
 10
721.2890625
 20
-4914.3828125
 10
730.90625
 20
-4914.3828125
 10
740.5234375
 20
-4914.3828125
 10
750.140625
 20
-4914.3828125
 10
759.7578125
 20
-4914.3828125
 10
769.375
 20
-4914.3828125
 10
778.9921875
 20
-4914.3828125
 10
788.609375
 20
-4914.3828125
 10
798.2265625
 20
-4914.3828125
 10
807.84375
 20
-4914.3828125
 10
817.4609375
 20
-4914.3828125
 10
827.078125
 20
-4914.3828125
 10
836.6953125
 20
-4914.3828125
 10
846.3125
 20
-4914.3828125
 10
855.9296875
 20
-4914.3828125
 10
865.546875
 20
-4914.3828125
 10
875.1640625
 20
-4914.3828125
 10
884.78125
 20
-4914.3828125
 10
894.3984375
 20
-4914.3828125
 10
904.015625
 20
-4914.3828125
 10
913.6328125
 20
-4914.3828125
 10
923.25
 20
-4914.3828125
 10
932.8671875
 20
-4914.3828125
 10
942.484375
 20
-4914.3828125
 10
952.1015625
 20
-4914.3828125
 10
961.71875
 20
-4914.3828125
 10
971.3359375
 20
-4914.3828125
 10
980.953125
 20
-4914.3828125
 10
990.5703125
 20
-4914.3828125
 10
1000.1875
 20
-4914.3828125
 10
1009.8046875
 20
-4914.3828125
 10
1019.421875
 20
-4914.3828125
 10
1029.0390625
 20
-4914.3828125
 10
1038.65625
 20
-4914.3828125
 10
1048.2734375
 20
-4914.3828125
 10
1057.890625
 20
-4914.3828125
 10
1067.5078125
 20
-4914.3828125
 10
1077.125
 20
-4914.3828125
 10
1086.7421875
 20
-4914.3828125
 10
1096.359375
 20
-4914.3828125
 10
1105.9765625
 20
-4914.3828125
 10
1115.59375
 20
-4914.3828125
 10
1125.2109375
 20
-4914.3828125
 10
1134.828125
 20
-4914.3828125
 10
1144.4453125
 20
-4914.3828125
 10
1154.0625
 20
-4914.3828125
 10
1163.6796875
 20
-4914.3828125
 10
1173.296875
 20
-4914.3828125
 10
1182.9140625
 20
-4914.3828125
 10
1192.53125
 20
-4914.3828125
 10
1202.1484375
 20
-4914.3828125
 10
1211.765625
 20
-4914.3828125
 10
1221.3828125
 20
-4914.3828125
 10
1231.0
 20
-4914.3828125
 10
1240.6171875
 20
-4914.3828125
 10
1250.234375
 20
-4914.3828125
 10
1259.8515625
 20
-4914.3828125
 10
1269.46875
 20
-4914.3828125
 10
1279.0859375
 20
-4914.3828125
 10
1288.703125
 20
-4914.3828125
 10
1298.3203125
 20
-4914.3828125
 10
1307.9375
 20
-4914.3828125
 10
1317.5546875
 20
-4914.3828125
 10
1327.171875
 20
-4914.3828125
 10
1336.7890625
 20
-4914.3828125
 10
1346.40625
 20
-4914.3828125
 10
1356.0234375
 20
-4914.3828125
 10
1365.640625
 20
-4914.3828125
 10
1375.2578125
 20
-4914.3828125
 10
1384.875
 20
-4914.3828125
 10
1394.4921875
 20
-4914.3828125
 10
1404.109375
 20
-4914.3828125
 10
1413.7265625
 20
-4914.3828125
 10
1423.34375
 20
-4914.3828125
 10
1432.9609375
 20
-4914.3828125
 10
1442.578125
 20
-4914.3828125
 10
1452.1953125
 20
-4914.3828125
 10
1461.8125
 20
-4914.3828125
 10
1471.4296875
 20
-4914.3828125
 10
1481.046875
 20
-4914.3828125
 10
1490.6640625
 20
-4914.3828125
 10
1500.28125
 20
-4914.3828125
 10
1509.8984375
 20
-4914.3828125
 10
1519.515625
 20
-4914.3828125
 10
1529.1328125
 20
-4914.3828125
 10
1538.75
 20
-4914.3828125
 10
1548.3671875
 20
-4914.3828125
 10
1557.984375
 20
-4914.3828125
 10
1567.6015625
 20
-4914.3828125
 10
1577.21875
 20
-4914.3828125
 10
1586.8359375
 20
-4914.3828125
 10
1596.453125
 20
-4914.3828125
 10
1606.0703125
 20
-4914.3828125
 10
1615.6875
 20
-4914.3828125
 10
1625.3046875
 20
-4914.3828125
 10
1634.921875
 20
-4914.3828125
 10
1644.5390625
 20
-4914.3828125
 10
1654.15625
 20
-4914.3828125
 10
1663.7734375
 20
-4914.3828125
 10
1673.390625
 20
-4914.3828125
 10
1683.0078125
 20
-4914.3828125
 10
1692.625
 20
-4914.3828125
 10
1702.2421875
 20
-4914.3828125
 10
1711.859375
 20
-4914.3828125
 10
1721.4765625
 20
-4914.3828125
 10
1731.09375
 20
-4914.3828125
 10
1740.7109375
 20
-4914.3828125
 10
1750.328125
 20
-4914.3828125
 10
1759.9453125
 20
-4914.3828125
 10
1769.5625
 20
-4914.3828125
 10
1779.1796875
 20
-4914.3828125
 10
1788.796875
 20
-4914.3828125
 10
1798.4140625
 20
-4914.3828125
 10
1808.03125
 20
-4914.3828125
 10
1817.6484375
 20
-4914.3828125
 10
1827.265625
 20
-4914.3828125
 10
1836.8828125
 20
-4914.3828125
 10
1846.5
 20
-4914.3828125
 10
1856.1171875
 20
-4914.3828125
 10
1865.734375
 20
-4914.3828125
 10
1875.3515625
 20
-4914.3828125
 10
1884.96875
 20
-4914.3828125
 10
1894.5859375
 20
-4914.3828125
 10
1904.203125
 20
-4914.3828125
 10
1913.8203125
 20
-4914.3828125
 10
1923.4375
 20
-4914.3828125
 10
1933.0546875
 20
-4914.3828125
 10
1942.671875
 20
-4914.3828125
 10
1952.2890625
 20
-4914.3828125
 10
1961.90625
 20
-4914.3828125
 10
1971.5234375
 20
-4914.3828125
 10
1981.140625
 20
-4914.3828125
 10
1990.7578125
 20
-4914.3828125
 10
2000.375
 20
-4914.3828125
 10
2009.9921875
 20
-4914.3828125
 10
2019.609375
 20
-4914.3828125
 10
2029.2265625
 20
-4914.3828125
 10
2038.84375
 20
-4914.3828125
 10
2048.4609375
 20
-4914.3828125
 10
2058.078125
 20
-4914.3828125
 10
2067.6953125
 20
-4914.3828125
 10
2077.3125
 20
-4914.3828125
 10
2086.9296875
 20
-4914.3828125
 10
2096.546875
 20
-4914.3828125
 10
2106.1640625
 20
-4914.3828125
 10
2115.78125
 20
-4914.3828125
 10
2125.3984375
 20
-4914.3828125
 10
2135.015625
 20
-4914.3828125
 10
2144.6328125
 20
-4914.3828125
 10
2154.25
 20
-4914.3828125
 10
2163.8671875
 20
-4914.3828125
 10
2173.484375
 20
-4914.3828125
 10
2183.1015625
 20
-4914.3828125
 10
2192.71875
 20
-4914.3828125
 10
2202.3359375
 20
-4914.3828125
 10
2211.953125
 20
-4914.3828125
 10
2221.5703125
 20
-4914.3828125
 10
2231.1875
 20
-4914.3828125
 10
2240.8046875
 20
-4914.3828125
 10
2250.421875
 20
-4914.3828125
 10
2260.0390625
 20
-4914.3828125
 10
2269.65625
 20
-4914.3828125
 10
2279.2734375
 20
-4914.3828125
 10
2288.890625
 20
-4914.3828125
 10
2298.5078125
 20
-4914.3828125
 10
2308.125
 20
-4914.3828125
 10
2317.7421875
 20
-4914.3828125
 10
2327.359375
 20
-4914.3828125
 10
2336.9765625
 20
-4914.3828125
 10
2346.59375
 20
-4914.3828125
 10
2356.2109375
 20
-4914.3828125
 10
2365.828125
 20
-4914.3828125
 10
2375.4453125
 20
-4914.3828125
 10
2385.0625
 20
-4914.3828125
 10
2394.6796875
 20
-4914.3828125
 10
2404.296875
 20
-4914.3828125
 10
2413.9140625
 20
-4914.3828125
 10
2423.53125
 20
-4914.3828125
 10
2433.1484375
 20
-4914.3828125
 10
2442.765625
 20
-4914.3828125
 10
2452.3828125
 20
-4914.3828125
 10
2462.0
 20
-4914.3828125
 10
2471.6171875
 20
-4914.3828125
 10
2481.234375
 20
-4914.3828125
 10
2490.8515625
 20
-4914.3828125
 10
2500.46875
 20
-4914.3828125
 10
2510.0859375
 20
-4914.3828125
 10
2519.703125
 20
-4914.3828125
 10
2529.3203125
 20
-4914.3828125
 10
2538.9375
 20
-4914.3828125
 10
2548.5546875
 20
-4914.3828125
 10
2558.171875
 20
-4914.3828125
 10
2567.7890625
 20
-4914.3828125
 10
2577.40625
 20
-4914.3828125
 10
2587.0234375
 20
-4914.3828125
 10
2596.640625
 20
-4914.3828125
 10
2606.2578125
 20
-4914.3828125
 10
2615.875
 20
-4914.3828125
 10
2625.4921875
 20
-4914.3828125
 10
2635.109375
 20
-4914.3828125
 10
2644.7265625
 20
-4914.3828125
 10
2654.34375
 20
-4914.3828125
 10
2663.9609375
 20
-4914.3828125
 10
2673.578125
 20
-4914.3828125
 10
2683.1953125
 20
-4914.3828125
 10
2692.8125
 20
-4914.3828125
 10
2702.4296875
 20
-4914.3828125
 10
2712.046875
 20
-4914.3828125
 10
2721.6640625
 20
-4914.3828125
 10
2731.28125
 20
-4914.3828125
 10
2740.8984375
 20
-4914.3828125
 10
2750.515625
 20
-4914.3828125
 10
2760.1328125
 20
-4914.3828125
 10
2769.75
 20
-4914.3828125
 10
2779.3671875
 20
-4914.3828125
 10
2788.984375
 20
-4914.3828125
 10
2798.6015625
 20
-4914.3828125
 10
2808.21875
 20
-4914.3828125
 10
2817.8359375
 20
-4914.3828125
 10
2827.453125
 20
-4914.3828125
 10
2837.0703125
 20
-4914.3828125
 10
2846.6875
 20
-4914.3828125
 10
2856.3046875
 20
-4914.3828125
 10
2865.921875
 20
-4914.3828125
 10
2875.5390625
 20
-4914.3828125
 10
2885.15625
 20
-4914.3828125
 10
2894.7734375
 20
-4914.3828125
 10
2904.390625
 20
-4914.3828125
 10
2914.0078125
 20
-4914.3828125
 10
2923.625
 20
-4914.3828125
 10
2933.2421875
 20
-4914.3828125
 10
2942.859375
 20
-4914.3828125
 10
2952.4765625
 20
-4914.3828125
 10
2962.09375
 20
-4914.3828125
 10
2971.7109375
 20
-4914.3828125
 10
2981.328125
 20
-4914.3828125
 10
2990.9453125
 20
-4914.3828125
 10
3000.5625
 20
-4914.3828125
 10
3010.1796875
 20
-4914.3828125
 10
3019.796875
 20
-4914.3828125
 10
3029.4140625
 20
-4914.3828125
 10
3039.03125
 20
-4914.3828125
 10
3048.6484375
 20
-4914.3828125
 10
3058.265625
 20
-4914.3828125
 10
3067.8828125
 20
-4914.3828125
 10
3077.5
 20
-4914.3828125
 10
3087.1171875
 20
-4914.3828125
 10
3096.734375
 20
-4914.3828125
 10
3106.3515625
 20
-4914.3828125
 10
3115.96875
 20
-4914.3828125
 10
3125.5859375
 20
-4914.3828125
 10
3135.203125
 20
-4914.3828125
 10
3144.8203125
 20
-4914.3828125
 10
3154.4375
 20
-4914.3828125
 10
3164.0546875
 20
-4914.3828125
 10
3173.671875
 20
-4914.3828125
 10
3183.2890625
 20
-4914.3828125
 10
3192.90625
 20
-4914.3828125
 10
3202.5234375
 20
-4914.3828125
 10
3212.140625
 20
-4914.3828125
 10
3221.7578125
 20
-4914.3828125
 10
3231.375
 20
-4914.3828125
 10
3240.9921875
 20
-4914.3828125
 10
3250.609375
 20
-4914.3828125
 10
3260.2265625
 20
-4914.3828125
 10
3269.84375
 20
-4914.3828125
 10
3279.4609375
 20
-4914.3828125
 10
3289.078125
 20
-4914.3828125
 10
3298.6953125
 20
-4914.3828125
 10
3308.3125
 20
-4914.3828125
 10
3317.9296875
 20
-4914.3828125
 10
3327.546875
 20
-4914.3828125
 10
3337.1640625
 20
-4914.3828125
 10
3346.78125
 20
-4914.3828125
 10
3356.3984375
 20
-4914.3828125
 10
3366.015625
 20
-4914.3828125
 10
3375.6328125
 20
-4914.3828125
 10
3385.25
 20
-4914.3828125
 10
3394.8671875
 20
-4914.3828125
 10
3404.484375
 20
-4914.3828125
 10
3414.1015625
 20
-4914.3828125
 10
3423.71875
 20
-4914.3828125
 10
3433.3359375
 20
-4914.3828125
 10
3442.953125
 20
-4914.3828125
 10
3452.5703125
 20
-4914.3828125
 10
3462.1875
 20
-4914.3828125
 10
3471.8046875
 20
-4914.3828125
 10
3481.421875
 20
-4914.3828125
 10
3491.0390625
 20
-4914.3828125
 10
3500.65625
 20
-4914.3828125
 10
3510.2734375
 20
-4914.3828125
 10
3519.890625
 20
-4914.3828125
 10
3529.5078125
 20
-4914.3828125
 10
3539.125
 20
-4914.3828125
 10
3548.7421875
 20
-4914.3828125
 10
3558.359375
 20
-4914.3828125
 10
3567.9765625
 20
-4914.3828125
 10
3577.59375
 20
-4914.3828125
 10
3587.2109375
 20
-4914.3828125
 10
3596.828125
 20
-4914.3828125
 10
3606.4453125
 20
-4914.3828125
 10
3616.0625
 20
-4914.3828125
 10
3625.6796875
 20
-4914.3828125
 10
3635.296875
 20
-4914.3828125
 10
3644.9140625
 20
-4914.3828125
 10
3654.53125
 20
-4914.3828125
 10
3664.1484375
 20
-4914.3828125
 10
3673.765625
 20
-4914.3828125
 10
3683.3828125
 20
-4914.3828125
 10
3693.0
 20
-4914.3828125
 10
3702.6171875
 20
-4914.3828125
 10
3712.234375
 20
-4914.3828125
 10
3721.8515625
 20
-4914.3828125
 10
3731.46875
 20
-4914.3828125
 10
3741.0859375
 20
-4914.3828125
 10
3750.703125
 20
-4914.3828125
 10
3760.3203125
 20
-4914.3828125
 10
3769.9375
 20
-4914.3828125
 10
3779.5546875
 20
-4914.3828125
 10
3789.171875
 20
-4914.3828125
 10
3798.7890625
 20
-4914.3828125
 10
3808.40625
 20
-4914.3828125
 10
3818.0234375
 20
-4914.3828125
 10
3827.640625
 20
-4914.3828125
 10
3837.2578125
 20
-4914.3828125
 10
3846.875
 20
-4914.3828125
 10
3856.4921875
 20
-4914.3828125
 10
3866.109375
 20
-4914.3828125
 10
3875.7265625
 20
-4914.3828125
 10
3885.34375
 20
-4914.3828125
 10
3894.9609375
 20
-4914.3828125
 10
3904.578125
 20
-4914.3828125
 10
3914.1953125
 20
-4914.3828125
 10
3923.8125
 20
-4914.3828125
 10
3933.4296875
 20
-4914.3828125
 10
3943.046875
 20
-4914.3828125
 10
3952.6640625
 20
-4914.3828125
 10
3962.28125
 20
-4914.3828125
 10
3971.8984375
 20
-4914.3828125
 10
3981.515625
 20
-4914.3828125
 10
3991.1328125
 20
-4914.3828125
 10
4000.75
 20
-4914.3828125
 10
4010.3671875
 20
-4914.3828125
 10
4019.984375
 20
-4914.3828125
 10
4029.6015625
 20
-4914.3828125
 10
4039.21875
 20
-4914.3828125
 10
4048.8359375
 20
-4914.3828125
 10
4058.453125
 20
-4914.3828125
 10
4068.0703125
 20
-4914.3828125
 10
4077.6875
 20
-4914.3828125
 10
4087.3046875
 20
-4914.3828125
 10
4096.921875
 20
-4914.3828125
 10
4106.5390625
 20
-4914.3828125
 10
4116.15625
 20
-4914.3828125
 10
4125.7734375
 20
-4914.3828125
 10
4135.390625
 20
-4914.3828125
 10
4145.0078125
 20
-4914.3828125
 10
4154.625
 20
-4914.3828125
 10
4164.2421875
 20
-4914.3828125
 10
4173.859375
 20
-4914.3828125
 10
4183.4765625
 20
-4914.3828125
 10
4193.09375
 20
-4914.3828125
 10
4202.7109375
 20
-4914.3828125
 10
4212.328125
 20
-4914.3828125
 10
4221.9453125
 20
-4914.3828125
 10
4231.5625
 20
-4914.3828125
 10
4241.1796875
 20
-4914.3828125
 10
4250.796875
 20
-4914.3828125
 10
4260.4140625
 20
-4914.3828125
 10
4270.03125
 20
-4914.3828125
 10
4279.6484375
 20
-4914.3828125
 10
4289.265625
 20
-4914.3828125
 10
4298.8828125
 20
-4914.3828125
 10
4308.5
 20
-4914.3828125
 10
4318.1171875
 20
-4914.3828125
 10
4327.734375
 20
-4914.3828125
 10
4337.3515625
 20
-4914.3828125
 10
4346.96875
 20
-4914.3828125
 10
4356.5859375
 20
-4914.3828125
 10
4366.203125
 20
-4914.3828125
 10
4375.8203125
 20
-4914.3828125
 10
4385.4375
 20
-4914.3828125
 10
4395.0546875
 20
-4914.3828125
 10
4404.671875
 20
-4914.3828125
 10
4414.2890625
 20
-4914.3828125
 10
4423.90625
 20
-4914.3828125
 10
4433.5234375
 20
-4914.3828125
 10
4443.140625
 20
-4914.3828125
 10
4452.7578125
 20
-4914.3828125
 10
4462.375
 20
-4914.3828125
 10
4471.9921875
 20
-4914.3828125
 10
4481.609375
 20
-4914.3828125
 10
4491.2265625
 20
-4914.3828125
 10
4500.84375
 20
-4914.3828125
 10
4510.4609375
 20
-4914.3828125
 10
4520.078125
 20
-4914.3828125
 10
4529.6953125
 20
-4914.3828125
 10
4539.3125
 20
-4914.3828125
 10
4548.9296875
 20
-4914.3828125
 10
4558.546875
 20
-4914.3828125
 10
4568.1640625
 20
-4914.3828125
 10
4577.78125
 20
-4914.3828125
 10
4587.3984375
 20
-4914.3828125
 10
4597.015625
 20
-4914.3828125
 10
4606.6328125
 20
-4914.3828125
 10
4616.25
 20
-4914.3828125
 10
4625.8671875
 20
-4914.3828125
 10
4635.484375
 20
-4914.3828125
 10
4645.1015625
 20
-4914.3828125
 10
4654.71875
 20
-4914.3828125
 10
4664.3359375
 20
-4914.3828125
 10
4673.953125
 20
-4914.3828125
 10
4683.5703125
 20
-4914.3828125
 10
4693.1875
 20
-4914.3828125
 10
4702.8046875
 20
-4914.3828125
 10
4712.421875
 20
-4914.3828125
 10
4722.0390625
 20
-4914.3828125
 10
4731.65625
 20
-4914.3828125
 10
4741.2734375
 20
-4914.3828125
 10
4750.890625
 20
-4914.3828125
 10
4760.5078125
 20
-4914.3828125
 10
4770.125
 20
-4914.3828125
 10
4779.7421875
 20
-4914.3828125
 10
4789.359375
 20
-4914.3828125
 10
4798.9765625
 20
-4914.3828125
 10
4808.59375
 20
-4914.3828125
 10
4818.2109375
 20
-4914.3828125
 10
4827.828125
 20
-4914.3828125
 10
4837.4453125
 20
-4914.3828125
 10
4847.0625
 20
-4914.3828125
 10
4856.6796875
 20
-4914.3828125
 10
4866.296875
 20
-4914.3828125
 10
4875.9140625
 20
-4914.3828125
 10
4885.53125
 20
-4914.3828125
 10
4895.1484375
 20
-4914.3828125
 10
4904.765625
 20
-4914.3828125
 10
4914.3828125
 20
-4914.3828125
 10
4914.3828125
 20
-4904.765625
 10
4914.3828125
 20
-4895.1484375
 10
4914.3828125
 20
-4885.53125
 10
4914.3828125
 20
-4875.9140625
 10
4914.3828125
 20
-4866.296875
 10
4914.3828125
 20
-4856.6796875
 10
4914.3828125
 20
-4847.0625
 10
4914.3828125
 20
-4837.4453125
 10
4914.3828125
 20
-4827.828125
 10
4914.3828125
 20
-4818.2109375
 10
4914.3828125
 20
-4808.59375
 10
4914.3828125
 20
-4798.9765625
 10
4914.3828125
 20
-4789.359375
 10
4914.3828125
 20
-4779.7421875
 10
4914.3828125
 20
-4770.125
 10
4914.3828125
 20
-4760.5078125
 10
4914.3828125
 20
-4750.890625
 10
4914.3828125
 20
-4741.2734375
 10
4914.3828125
 20
-4731.65625
 10
4914.3828125
 20
-4722.0390625
 10
4914.3828125
 20
-4712.421875
 10
4914.3828125
 20
-4702.8046875
 10
4914.3828125
 20
-4693.1875
 10
4914.3828125
 20
-4683.5703125
 10
4914.3828125
 20
-4673.953125
 10
4914.3828125
 20
-4664.3359375
 10
4914.3828125
 20
-4654.71875
 10
4914.3828125
 20
-4645.1015625
 10
4914.3828125
 20
-4635.484375
 10
4914.3828125
 20
-4625.8671875
 10
4914.3828125
 20
-4616.25
 10
4914.3828125
 20
-4606.6328125
 10
4914.3828125
 20
-4597.015625
 10
4914.3828125
 20
-4587.3984375
 10
4914.3828125
 20
-4577.78125
 10
4914.3828125
 20
-4568.1640625
 10
4914.3828125
 20
-4558.546875
 10
4914.3828125
 20
-4548.9296875
 10
4914.3828125
 20
-4539.3125
 10
4914.3828125
 20
-4529.6953125
 10
4914.3828125
 20
-4520.078125
 10
4914.3828125
 20
-4510.4609375
 10
4914.3828125
 20
-4500.84375
 10
4914.3828125
 20
-4491.2265625
 10
4914.3828125
 20
-4481.609375
 10
4914.3828125
 20
-4471.9921875
 10
4914.3828125
 20
-4462.375
 10
4914.3828125
 20
-4452.7578125
 10
4914.3828125
 20
-4443.140625
 10
4914.3828125
 20
-4433.5234375
 10
4914.3828125
 20
-4423.90625
 10
4914.3828125
 20
-4414.2890625
 10
4914.3828125
 20
-4404.671875
 10
4914.3828125
 20
-4395.0546875
 10
4914.3828125
 20
-4385.4375
 10
4914.3828125
 20
-4375.8203125
 10
4914.3828125
 20
-4366.203125
 10
4914.3828125
 20
-4356.5859375
 10
4914.3828125
 20
-4346.96875
 10
4914.3828125
 20
-4337.3515625
 10
4914.3828125
 20
-4327.734375
 10
4914.3828125
 20
-4318.1171875
 10
4914.3828125
 20
-4308.5
 10
4914.3828125
 20
-4298.8828125
 10
4914.3828125
 20
-4289.265625
 10
4914.3828125
 20
-4279.6484375
 10
4914.3828125
 20
-4270.03125
 10
4914.3828125
 20
-4260.4140625
 10
4914.3828125
 20
-4250.796875
 10
4914.3828125
 20
-4241.1796875
 10
4914.3828125
 20
-4231.5625
 10
4914.3828125
 20
-4221.9453125
 10
4914.3828125
 20
-4212.328125
 10
4914.3828125
 20
-4202.7109375
 10
4914.3828125
 20
-4193.09375
 10
4914.3828125
 20
-4183.4765625
 10
4914.3828125
 20
-4173.859375
 10
4914.3828125
 20
-4164.2421875
 10
4914.3828125
 20
-4154.625
 10
4914.3828125
 20
-4145.0078125
 10
4914.3828125
 20
-4135.390625
 10
4914.3828125
 20
-4125.7734375
 10
4914.3828125
 20
-4116.15625
 10
4914.3828125
 20
-4106.5390625
 10
4914.3828125
 20
-4096.921875
 10
4914.3828125
 20
-4087.3046875
 10
4914.3828125
 20
-4077.6875
 10
4914.3828125
 20
-4068.0703125
 10
4914.3828125
 20
-4058.453125
 10
4914.3828125
 20
-4048.8359375
 10
4914.3828125
 20
-4039.21875
 10
4914.3828125
 20
-4029.6015625
 10
4914.3828125
 20
-4019.984375
 10
4914.3828125
 20
-4010.3671875
 10
4914.3828125
 20
-4000.75
 10
4914.3828125
 20
-3991.1328125
 10
4914.3828125
 20
-3981.515625
 10
4914.3828125
 20
-3971.8984375
 10
4914.3828125
 20
-3962.28125
 10
4914.3828125
 20
-3952.6640625
 10
4914.3828125
 20
-3943.046875
 10
4914.3828125
 20
-3933.4296875
 10
4914.3828125
 20
-3923.8125
 10
4914.3828125
 20
-3914.1953125
 10
4914.3828125
 20
-3904.578125
 10
4914.3828125
 20
-3894.9609375
 10
4914.3828125
 20
-3885.34375
 10
4914.3828125
 20
-3875.7265625
 10
4914.3828125
 20
-3866.109375
 10
4914.3828125
 20
-3856.4921875
 10
4914.3828125
 20
-3846.875
 10
4914.3828125
 20
-3837.2578125
 10
4914.3828125
 20
-3827.640625
 10
4914.3828125
 20
-3818.0234375
 10
4914.3828125
 20
-3808.40625
 10
4914.3828125
 20
-3798.7890625
 10
4914.3828125
 20
-3789.171875
 10
4914.3828125
 20
-3779.5546875
 10
4914.3828125
 20
-3769.9375
 10
4914.3828125
 20
-3760.3203125
 10
4914.3828125
 20
-3750.703125
 10
4914.3828125
 20
-3741.0859375
 10
4914.3828125
 20
-3731.46875
 10
4914.3828125
 20
-3721.8515625
 10
4914.3828125
 20
-3712.234375
 10
4914.3828125
 20
-3702.6171875
 10
4914.3828125
 20
-3693.0
 10
4914.3828125
 20
-3683.3828125
 10
4914.3828125
 20
-3673.765625
 10
4914.3828125
 20
-3664.1484375
 10
4914.3828125
 20
-3654.53125
 10
4914.3828125
 20
-3644.9140625
 10
4914.3828125
 20
-3635.296875
 10
4914.3828125
 20
-3625.6796875
 10
4914.3828125
 20
-3616.0625
 10
4914.3828125
 20
-3606.4453125
 10
4914.3828125
 20
-3596.828125
 10
4914.3828125
 20
-3587.2109375
 10
4914.3828125
 20
-3577.59375
 10
4914.3828125
 20
-3567.9765625
 10
4914.3828125
 20
-3558.359375
 10
4914.3828125
 20
-3548.7421875
 10
4914.3828125
 20
-3539.125
 10
4914.3828125
 20
-3529.5078125
 10
4914.3828125
 20
-3519.890625
 10
4914.3828125
 20
-3510.2734375
 10
4914.3828125
 20
-3500.65625
 10
4914.3828125
 20
-3491.0390625
 10
4914.3828125
 20
-3481.421875
 10
4914.3828125
 20
-3471.8046875
 10
4914.3828125
 20
-3462.1875
 10
4914.3828125
 20
-3452.5703125
 10
4914.3828125
 20
-3442.953125
 10
4914.3828125
 20
-3433.3359375
 10
4914.3828125
 20
-3423.71875
 10
4914.3828125
 20
-3414.1015625
 10
4914.3828125
 20
-3404.484375
 10
4914.3828125
 20
-3394.8671875
 10
4914.3828125
 20
-3385.25
 10
4914.3828125
 20
-3375.6328125
 10
4914.3828125
 20
-3366.015625
 10
4914.3828125
 20
-3356.3984375
 10
4914.3828125
 20
-3346.78125
 10
4914.3828125
 20
-3337.1640625
 10
4914.3828125
 20
-3327.546875
 10
4914.3828125
 20
-3317.9296875
 10
4914.3828125
 20
-3308.3125
 10
4914.3828125
 20
-3298.6953125
 10
4914.3828125
 20
-3289.078125
 10
4914.3828125
 20
-3279.4609375
 10
4914.3828125
 20
-3269.84375
 10
4914.3828125
 20
-3260.2265625
 10
4914.3828125
 20
-3250.609375
 10
4914.3828125
 20
-3240.9921875
 10
4914.3828125
 20
-3231.375
 10
4914.3828125
 20
-3221.7578125
 10
4914.3828125
 20
-3212.140625
 10
4914.3828125
 20
-3202.5234375
 10
4914.3828125
 20
-3192.90625
 10
4914.3828125
 20
-3183.2890625
 10
4914.3828125
 20
-3173.671875
 10
4914.3828125
 20
-3164.0546875
 10
4914.3828125
 20
-3154.4375
 10
4914.3828125
 20
-3144.8203125
 10
4914.3828125
 20
-3135.203125
 10
4914.3828125
 20
-3125.5859375
 10
4914.3828125
 20
-3115.96875
 10
4914.3828125
 20
-3106.3515625
 10
4914.3828125
 20
-3096.734375
 10
4914.3828125
 20
-3087.1171875
 10
4914.3828125
 20
-3077.5
 10
4914.3828125
 20
-3067.8828125
 10
4914.3828125
 20
-3058.265625
 10
4914.3828125
 20
-3048.6484375
 10
4914.3828125
 20
-3039.03125
 10
4914.3828125
 20
-3029.4140625
 10
4914.3828125
 20
-3019.796875
 10
4914.3828125
 20
-3010.1796875
 10
4914.3828125
 20
-3000.5625
 10
4914.3828125
 20
-2990.9453125
 10
4914.3828125
 20
-2981.328125
 10
4914.3828125
 20
-2971.7109375
 10
4914.3828125
 20
-2962.09375
 10
4914.3828125
 20
-2952.4765625
 10
4914.3828125
 20
-2942.859375
 10
4914.3828125
 20
-2933.2421875
 10
4914.3828125
 20
-2923.625
 10
4914.3828125
 20
-2914.0078125
 10
4914.3828125
 20
-2904.390625
 10
4914.3828125
 20
-2894.7734375
 10
4914.3828125
 20
-2885.15625
 10
4914.3828125
 20
-2875.5390625
 10
4914.3828125
 20
-2865.921875
 10
4914.3828125
 20
-2856.3046875
 10
4914.3828125
 20
-2846.6875
 10
4914.3828125
 20
-2837.0703125
 10
4914.3828125
 20
-2827.453125
 10
4914.3828125
 20
-2817.8359375
 10
4914.3828125
 20
-2808.21875
 10
4914.3828125
 20
-2798.6015625
 10
4914.3828125
 20
-2788.984375
 10
4914.3828125
 20
-2779.3671875
 10
4914.3828125
 20
-2769.75
 10
4914.3828125
 20
-2760.1328125
 10
4914.3828125
 20
-2750.515625
 10
4914.3828125
 20
-2740.8984375
 10
4914.3828125
 20
-2731.28125
 10
4914.3828125
 20
-2721.6640625
 10
4914.3828125
 20
-2712.046875
 10
4914.3828125
 20
-2702.4296875
 10
4914.3828125
 20
-2692.8125
 10
4914.3828125
 20
-2683.1953125
 10
4914.3828125
 20
-2673.578125
 10
4914.3828125
 20
-2663.9609375
 10
4914.3828125
 20
-2654.34375
 10
4914.3828125
 20
-2644.7265625
 10
4914.3828125
 20
-2635.109375
 10
4914.3828125
 20
-2625.4921875
 10
4914.3828125
 20
-2615.875
 10
4914.3828125
 20
-2606.2578125
 10
4914.3828125
 20
-2596.640625
 10
4914.3828125
 20
-2587.0234375
 10
4914.3828125
 20
-2577.40625
 10
4914.3828125
 20
-2567.7890625
 10
4914.3828125
 20
-2558.171875
 10
4914.3828125
 20
-2548.5546875
 10
4914.3828125
 20
-2538.9375
 10
4914.3828125
 20
-2529.3203125
 10
4914.3828125
 20
-2519.703125
 10
4914.3828125
 20
-2510.0859375
 10
4914.3828125
 20
-2500.46875
 10
4914.3828125
 20
-2490.8515625
 10
4914.3828125
 20
-2481.234375
 10
4914.3828125
 20
-2471.6171875
 10
4914.3828125
 20
-2462.0
 10
4914.3828125
 20
-2452.3828125
 10
4914.3828125
 20
-2442.765625
 10
4914.3828125
 20
-2433.1484375
 10
4914.3828125
 20
-2423.53125
 10
4914.3828125
 20
-2413.9140625
 10
4914.3828125
 20
-2404.296875
 10
4914.3828125
 20
-2394.6796875
 10
4914.3828125
 20
-2385.0625
 10
4914.3828125
 20
-2375.4453125
 10
4914.3828125
 20
-2365.828125
 10
4914.3828125
 20
-2356.2109375
 10
4914.3828125
 20
-2346.59375
 10
4914.3828125
 20
-2336.9765625
 10
4914.3828125
 20
-2327.359375
 10
4914.3828125
 20
-2317.7421875
 10
4914.3828125
 20
-2308.125
 10
4914.3828125
 20
-2298.5078125
 10
4914.3828125
 20
-2288.890625
 10
4914.3828125
 20
-2279.2734375
 10
4914.3828125
 20
-2269.65625
 10
4914.3828125
 20
-2260.0390625
 10
4914.3828125
 20
-2250.421875
 10
4914.3828125
 20
-2240.8046875
 10
4914.3828125
 20
-2231.1875
 10
4914.3828125
 20
-2221.5703125
 10
4914.3828125
 20
-2211.953125
 10
4914.3828125
 20
-2202.3359375
 10
4914.3828125
 20
-2192.71875
 10
4914.3828125
 20
-2183.1015625
 10
4914.3828125
 20
-2173.484375
 10
4914.3828125
 20
-2163.8671875
 10
4914.3828125
 20
-2154.25
 10
4914.3828125
 20
-2144.6328125
 10
4914.3828125
 20
-2135.015625
 10
4914.3828125
 20
-2125.3984375
 10
4914.3828125
 20
-2115.78125
 10
4914.3828125
 20
-2106.1640625
 10
4914.3828125
 20
-2096.546875
 10
4914.3828125
 20
-2086.9296875
 10
4914.3828125
 20
-2077.3125
 10
4914.3828125
 20
-2067.6953125
 10
4914.3828125
 20
-2058.078125
 10
4914.3828125
 20
-2048.4609375
 10
4914.3828125
 20
-2038.84375
 10
4914.3828125
 20
-2029.2265625
 10
4914.3828125
 20
-2019.609375
 10
4914.3828125
 20
-2009.9921875
 10
4914.3828125
 20
-2000.375
 10
4914.3828125
 20
-1990.7578125
 10
4914.3828125
 20
-1981.140625
 10
4914.3828125
 20
-1971.5234375
 10
4914.3828125
 20
-1961.90625
 10
4914.3828125
 20
-1952.2890625
 10
4914.3828125
 20
-1942.671875
 10
4914.3828125
 20
-1933.0546875
 10
4914.3828125
 20
-1923.4375
 10
4914.3828125
 20
-1913.8203125
 10
4914.3828125
 20
-1904.203125
 10
4914.3828125
 20
-1894.5859375
 10
4914.3828125
 20
-1884.96875
 10
4914.3828125
 20
-1875.3515625
 10
4914.3828125
 20
-1865.734375
 10
4914.3828125
 20
-1856.1171875
 10
4914.3828125
 20
-1846.5
 10
4914.3828125
 20
-1836.8828125
 10
4914.3828125
 20
-1827.265625
 10
4914.3828125
 20
-1817.6484375
 10
4914.3828125
 20
-1808.03125
 10
4914.3828125
 20
-1798.4140625
 10
4914.3828125
 20
-1788.796875
 10
4914.3828125
 20
-1779.1796875
 10
4914.3828125
 20
-1769.5625
 10
4914.3828125
 20
-1759.9453125
 10
4914.3828125
 20
-1750.328125
 10
4914.3828125
 20
-1740.7109375
 10
4914.3828125
 20
-1731.09375
 10
4914.3828125
 20
-1721.4765625
 10
4914.3828125
 20
-1711.859375
 10
4914.3828125
 20
-1702.2421875
 10
4914.3828125
 20
-1692.625
 10
4914.3828125
 20
-1683.0078125
 10
4914.3828125
 20
-1673.390625
 10
4914.3828125
 20
-1663.7734375
 10
4914.3828125
 20
-1654.15625
 10
4914.3828125
 20
-1644.5390625
 10
4914.3828125
 20
-1634.921875
 10
4914.3828125
 20
-1625.3046875
 10
4914.3828125
 20
-1615.6875
 10
4914.3828125
 20
-1606.0703125
 10
4914.3828125
 20
-1596.453125
 10
4914.3828125
 20
-1586.8359375
 10
4914.3828125
 20
-1577.21875
 10
4914.3828125
 20
-1567.6015625
 10
4914.3828125
 20
-1557.984375
 10
4914.3828125
 20
-1548.3671875
 10
4914.3828125
 20
-1538.75
 10
4914.3828125
 20
-1529.1328125
 10
4914.3828125
 20
-1519.515625
 10
4914.3828125
 20
-1509.8984375
 10
4914.3828125
 20
-1500.28125
 10
4914.3828125
 20
-1490.6640625
 10
4914.3828125
 20
-1481.046875
 10
4914.3828125
 20
-1471.4296875
 10
4914.3828125
 20
-1461.8125
 10
4914.3828125
 20
-1452.1953125
 10
4914.3828125
 20
-1442.578125
 10
4914.3828125
 20
-1432.9609375
 10
4914.3828125
 20
-1423.34375
 10
4914.3828125
 20
-1413.7265625
 10
4914.3828125
 20
-1404.109375
 10
4914.3828125
 20
-1394.4921875
 10
4914.3828125
 20
-1384.875
 10
4914.3828125
 20
-1375.2578125
 10
4914.3828125
 20
-1365.640625
 10
4914.3828125
 20
-1356.0234375
 10
4914.3828125
 20
-1346.40625
 10
4914.3828125
 20
-1336.7890625
 10
4914.3828125
 20
-1327.171875
 10
4914.3828125
 20
-1317.5546875
 10
4914.3828125
 20
-1307.9375
 10
4914.3828125
 20
-1298.3203125
 10
4914.3828125
 20
-1288.703125
 10
4914.3828125
 20
-1279.0859375
 10
4914.3828125
 20
-1269.46875
 10
4914.3828125
 20
-1259.8515625
 10
4914.3828125
 20
-1250.234375
 10
4914.3828125
 20
-1240.6171875
 10
4914.3828125
 20
-1231.0
 10
4914.3828125
 20
-1221.3828125
 10
4914.3828125
 20
-1211.765625
 10
4914.3828125
 20
-1202.1484375
 10
4914.3828125
 20
-1192.53125
 10
4914.3828125
 20
-1182.9140625
 10
4914.3828125
 20
-1173.296875
 10
4914.3828125
 20
-1163.6796875
 10
4914.3828125
 20
-1154.0625
 10
4914.3828125
 20
-1144.4453125
 10
4914.3828125
 20
-1134.828125
 10
4914.3828125
 20
-1125.2109375
 10
4914.3828125
 20
-1115.59375
 10
4914.3828125
 20
-1105.9765625
 10
4914.3828125
 20
-1096.359375
 10
4914.3828125
 20
-1086.7421875
 10
4914.3828125
 20
-1077.125
 10
4914.3828125
 20
-1067.5078125
 10
4914.3828125
 20
-1057.890625
 10
4914.3828125
 20
-1048.2734375
 10
4914.3828125
 20
-1038.65625
 10
4914.3828125
 20
-1029.0390625
 10
4914.3828125
 20
-1019.421875
 10
4914.3828125
 20
-1009.8046875
 10
4914.3828125
 20
-1000.1875
 10
4914.3828125
 20
-990.5703125
 10
4914.3828125
 20
-980.953125
 10
4914.3828125
 20
-971.3359375
 10
4914.3828125
 20
-961.71875
 10
4914.3828125
 20
-952.1015625
 10
4914.3828125
 20
-942.484375
 10
4914.3828125
 20
-932.8671875
 10
4914.3828125
 20
-923.25
 10
4914.3828125
 20
-913.6328125
 10
4914.3828125
 20
-904.015625
 10
4914.3828125
 20
-894.3984375
 10
4914.3828125
 20
-884.78125
 10
4914.3828125
 20
-875.1640625
 10
4914.3828125
 20
-865.546875
 10
4914.3828125
 20
-855.9296875
 10
4914.3828125
 20
-846.3125
 10
4914.3828125
 20
-836.6953125
 10
4914.3828125
 20
-827.078125
 10
4914.3828125
 20
-817.4609375
 10
4914.3828125
 20
-807.84375
 10
4914.3828125
 20
-798.2265625
 10
4914.3828125
 20
-788.609375
 10
4914.3828125
 20
-778.9921875
 10
4914.3828125
 20
-769.375
 10
4914.3828125
 20
-759.7578125
 10
4914.3828125
 20
-750.140625
 10
4914.3828125
 20
-740.5234375
 10
4914.3828125
 20
-730.90625
 10
4914.3828125
 20
-721.2890625
 10
4914.3828125
 20
-711.671875
 10
4914.3828125
 20
-702.0546875
 10
4914.3828125
 20
-692.4375
 10
4914.3828125
 20
-682.8203125
 10
4914.3828125
 20
-673.203125
 10
4914.3828125
 20
-663.5859375
 10
4914.3828125
 20
-653.96875
 10
4914.3828125
 20
-644.3515625
 10
4914.3828125
 20
-634.734375
 10
4914.3828125
 20
-625.1171875
 10
4914.3828125
 20
-615.5
 10
4914.3828125
 20
-605.8828125
 10
4914.3828125
 20
-596.265625
 10
4914.3828125
 20
-586.6484375
 10
4914.3828125
 20
-577.03125
 10
4914.3828125
 20
-567.4140625
 10
4914.3828125
 20
-557.796875
 10
4914.3828125
 20
-548.1796875
 10
4914.3828125
 20
-538.5625
 10
4914.3828125
 20
-528.9453125
 10
4914.3828125
 20
-519.328125
 10
4914.3828125
 20
-509.7109375
 10
4914.3828125
 20
-500.09375
 10
4914.3828125
 20
-490.4765625
 10
4914.3828125
 20
-480.859375
 10
4914.3828125
 20
-471.2421875
 10
4914.3828125
 20
-461.625
 10
4914.3828125
 20
-452.0078125
 10
4914.3828125
 20
-442.390625
 10
4914.3828125
 20
-432.7734375
 10
4914.3828125
 20
-423.15625
 10
4914.3828125
 20
-413.5390625
 10
4914.3828125
 20
-403.921875
 10
4914.3828125
 20
-394.3046875
 10
4914.3828125
 20
-384.6875
 10
4914.3828125
 20
-375.0703125
 10
4914.3828125
 20
-365.453125
 10
4914.3828125
 20
-355.8359375
 10
4914.3828125
 20
-346.21875
 10
4914.3828125
 20
-336.6015625
 10
4914.3828125
 20
-326.984375
 10
4914.3828125
 20
-317.3671875
 10
4914.3828125
 20
-307.75
 10
4914.3828125
 20
-298.1328125
 10
4914.3828125
 20
-288.515625
 10
4914.3828125
 20
-278.8984375
 10
4914.3828125
 20
-269.28125
 10
4914.3828125
 20
-259.6640625
 10
4914.3828125
 20
-250.046875
 10
4914.3828125
 20
-240.4296875
 10
4914.3828125
 20
-230.8125
 10
4914.3828125
 20
-221.1953125
 10
4914.3828125
 20
-211.578125
 10
4914.3828125
 20
-201.9609375
 10
4914.3828125
 20
-192.34375
 10
4914.3828125
 20
-182.7265625
 10
4914.3828125
 20
-173.109375
 10
4914.3828125
 20
-163.4921875
 10
4914.3828125
 20
-153.875
 10
4914.3828125
 20
-144.2578125
 10
4914.3828125
 20
-134.640625
 10
4914.3828125
 20
-125.0234375
 10
4914.3828125
 20
-115.40625
 10
4914.3828125
 20
-105.7890625
 10
4914.3828125
 20
-96.171875
 10
4914.3828125
 20
-86.5546875
 10
4914.3828125
 20
-76.9375
 10
4914.3828125
 20
-67.3203125
 10
4914.3828125
 20
-57.703125
 10
4914.3828125
 20
-48.0859375
 10
4914.3828125
 20
-38.46875
 10
4914.3828125
 20
-28.8515625
 10
4914.3828125
 20
-19.234375
 10
4914.3828125
 20
-9.6171875
 10
4914.3828125
 20
-0.0
 10
4904.765625
 20
-0.0
 10
4895.1484375
 20
-0.0
 10
4885.53125
 20
-0.0
 10
4875.9140625
 20
-0.0
 10
4866.296875
 20
-0.0
 10
4856.6796875
 20
-0.0
 10
4847.0625
 20
-0.0
 10
4837.4453125
 20
-0.0
 10
4827.828125
 20
-0.0
 10
4818.2109375
 20
-0.0
 10
4808.59375
 20
-0.0
 10
4798.9765625
 20
-0.0
 10
4789.359375
 20
-0.0
 10
4779.7421875
 20
-0.0
 10
4770.125
 20
-0.0
 10
4760.5078125
 20
-0.0
 10
4750.890625
 20
-0.0
 10
4741.2734375
 20
-0.0
 10
4731.65625
 20
-0.0
 10
4722.0390625
 20
-0.0
 10
4712.421875
 20
-0.0
 10
4702.8046875
 20
-0.0
 10
4693.1875
 20
-0.0
 10
4683.5703125
 20
-0.0
 10
4673.953125
 20
-0.0
 10
4664.3359375
 20
-0.0
 10
4654.71875
 20
-0.0
 10
4645.1015625
 20
-0.0
 10
4635.484375
 20
-0.0
 10
4625.8671875
 20
-0.0
 10
4616.25
 20
-0.0
 10
4606.6328125
 20
-0.0
 10
4597.015625
 20
-0.0
 10
4587.3984375
 20
-0.0
 10
4577.78125
 20
-0.0
 10
4568.1640625
 20
-0.0
 10
4558.546875
 20
-0.0
 10
4548.9296875
 20
-0.0
 10
4539.3125
 20
-0.0
 10
4529.6953125
 20
-0.0
 10
4520.078125
 20
-0.0
 10
4510.4609375
 20
-0.0
 10
4500.84375
 20
-0.0
 10
4491.2265625
 20
-0.0
 10
4481.609375
 20
-0.0
 10
4471.9921875
 20
-0.0
 10
4462.375
 20
-0.0
 10
4452.7578125
 20
-0.0
 10
4443.140625
 20
-0.0
 10
4433.5234375
 20
-0.0
 10
4423.90625
 20
-0.0
 10
4414.2890625
 20
-0.0
 10
4404.671875
 20
-0.0
 10
4395.0546875
 20
-0.0
 10
4385.4375
 20
-0.0
 10
4375.8203125
 20
-0.0
 10
4366.203125
 20
-0.0
 10
4356.5859375
 20
-0.0
 10
4346.96875
 20
-0.0
 10
4337.3515625
 20
-0.0
 10
4327.734375
 20
-0.0
 10
4318.1171875
 20
-0.0
 10
4308.5
 20
-0.0
 10
4298.8828125
 20
-0.0
 10
4289.265625
 20
-0.0
 10
4279.6484375
 20
-0.0
 10
4270.03125
 20
-0.0
 10
4260.4140625
 20
-0.0
 10
4250.796875
 20
-0.0
 10
4241.1796875
 20
-0.0
 10
4231.5625
 20
-0.0
 10
4221.9453125
 20
-0.0
 10
4212.328125
 20
-0.0
 10
4202.7109375
 20
-0.0
 10
4193.09375
 20
-0.0
 10
4183.4765625
 20
-0.0
 10
4173.859375
 20
-0.0
 10
4164.2421875
 20
-0.0
 10
4154.625
 20
-0.0
 10
4145.0078125
 20
-0.0
 10
4135.390625
 20
-0.0
 10
4125.7734375
 20
-0.0
 10
4116.15625
 20
-0.0
 10
4106.5390625
 20
-0.0
 10
4096.921875
 20
-0.0
 10
4087.3046875
 20
-0.0
 10
4077.6875
 20
-0.0
 10
4068.0703125
 20
-0.0
 10
4058.453125
 20
-0.0
 10
4048.8359375
 20
-0.0
 10
4039.21875
 20
-0.0
 10
4029.6015625
 20
-0.0
 10
4019.984375
 20
-0.0
 10
4010.3671875
 20
-0.0
 10
4000.75
 20
-0.0
 10
3991.1328125
 20
-0.0
 10
3981.515625
 20
-0.0
 10
3971.8984375
 20
-0.0
 10
3962.28125
 20
-0.0
 10
3952.6640625
 20
-0.0
 10
3943.046875
 20
-0.0
 10
3933.4296875
 20
-0.0
 10
3923.8125
 20
-0.0
 10
3914.1953125
 20
-0.0
 10
3904.578125
 20
-0.0
 10
3894.9609375
 20
-0.0
 10
3885.34375
 20
-0.0
 10
3875.7265625
 20
-0.0
 10
3866.109375
 20
-0.0
 10
3856.4921875
 20
-0.0
 10
3846.875
 20
-0.0
 10
3837.2578125
 20
-0.0
 10
3827.640625
 20
-0.0
 10
3818.0234375
 20
-0.0
 10
3808.40625
 20
-0.0
 10
3798.7890625
 20
-0.0
 10
3789.171875
 20
-0.0
 10
3779.5546875
 20
-0.0
 10
3769.9375
 20
-0.0
 10
3760.3203125
 20
-0.0
 10
3750.703125
 20
-0.0
 10
3741.0859375
 20
-0.0
 10
3731.46875
 20
-0.0
 10
3721.8515625
 20
-0.0
 10
3712.234375
 20
-0.0
 10
3702.6171875
 20
-0.0
 10
3693.0
 20
-0.0
 10
3683.3828125
 20
-0.0
 10
3673.765625
 20
-0.0
 10
3664.1484375
 20
-0.0
 10
3654.53125
 20
-0.0
 10
3644.9140625
 20
-0.0
 10
3635.296875
 20
-0.0
 10
3625.6796875
 20
-0.0
 10
3616.0625
 20
-0.0
 10
3606.4453125
 20
-0.0
 10
3596.828125
 20
-0.0
 10
3587.2109375
 20
-0.0
 10
3577.59375
 20
-0.0
 10
3567.9765625
 20
-0.0
 10
3558.359375
 20
-0.0
 10
3548.7421875
 20
-0.0
 10
3539.125
 20
-0.0
 10
3529.5078125
 20
-0.0
 10
3519.890625
 20
-0.0
 10
3510.2734375
 20
-0.0
 10
3500.65625
 20
-0.0
 10
3491.0390625
 20
-0.0
 10
3481.421875
 20
-0.0
 10
3471.8046875
 20
-0.0
 10
3462.1875
 20
-0.0
 10
3452.5703125
 20
-0.0
 10
3442.953125
 20
-0.0
 10
3433.3359375
 20
-0.0
 10
3423.71875
 20
-0.0
 10
3414.1015625
 20
-0.0
 10
3404.484375
 20
-0.0
 10
3394.8671875
 20
-0.0
 10
3385.25
 20
-0.0
 10
3375.6328125
 20
-0.0
 10
3366.015625
 20
-0.0
 10
3356.3984375
 20
-0.0
 10
3346.78125
 20
-0.0
 10
3337.1640625
 20
-0.0
 10
3327.546875
 20
-0.0
 10
3317.9296875
 20
-0.0
 10
3308.3125
 20
-0.0
 10
3298.6953125
 20
-0.0
 10
3289.078125
 20
-0.0
 10
3279.4609375
 20
-0.0
 10
3269.84375
 20
-0.0
 10
3260.2265625
 20
-0.0
 10
3250.609375
 20
-0.0
 10
3240.9921875
 20
-0.0
 10
3231.375
 20
-0.0
 10
3221.7578125
 20
-0.0
 10
3212.140625
 20
-0.0
 10
3202.5234375
 20
-0.0
 10
3192.90625
 20
-0.0
 10
3183.2890625
 20
-0.0
 10
3173.671875
 20
-0.0
 10
3164.0546875
 20
-0.0
 10
3154.4375
 20
-0.0
 10
3144.8203125
 20
-0.0
 10
3135.203125
 20
-0.0
 10
3125.5859375
 20
-0.0
 10
3115.96875
 20
-0.0
 10
3106.3515625
 20
-0.0
 10
3096.734375
 20
-0.0
 10
3087.1171875
 20
-0.0
 10
3077.5
 20
-0.0
 10
3067.8828125
 20
-0.0
 10
3058.265625
 20
-0.0
 10
3048.6484375
 20
-0.0
 10
3039.03125
 20
-0.0
 10
3029.4140625
 20
-0.0
 10
3019.796875
 20
-0.0
 10
3010.1796875
 20
-0.0
 10
3000.5625
 20
-0.0
 10
2990.9453125
 20
-0.0
 10
2981.328125
 20
-0.0
 10
2971.7109375
 20
-0.0
 10
2962.09375
 20
-0.0
 10
2952.4765625
 20
-0.0
 10
2942.859375
 20
-0.0
 10
2933.2421875
 20
-0.0
 10
2923.625
 20
-0.0
 10
2914.0078125
 20
-0.0
 10
2904.390625
 20
-0.0
 10
2894.7734375
 20
-0.0
 10
2885.15625
 20
-0.0
 10
2875.5390625
 20
-0.0
 10
2865.921875
 20
-0.0
 10
2856.3046875
 20
-0.0
 10
2846.6875
 20
-0.0
 10
2837.0703125
 20
-0.0
 10
2827.453125
 20
-0.0
 10
2817.8359375
 20
-0.0
 10
2808.21875
 20
-0.0
 10
2798.6015625
 20
-0.0
 10
2788.984375
 20
-0.0
 10
2779.3671875
 20
-0.0
 10
2769.75
 20
-0.0
 10
2760.1328125
 20
-0.0
 10
2750.515625
 20
-0.0
 10
2740.8984375
 20
-0.0
 10
2731.28125
 20
-0.0
 10
2721.6640625
 20
-0.0
 10
2712.046875
 20
-0.0
 10
2702.4296875
 20
-0.0
 10
2692.8125
 20
-0.0
 10
2683.1953125
 20
-0.0
 10
2673.578125
 20
-0.0
 10
2663.9609375
 20
-0.0
 10
2654.34375
 20
-0.0
 10
2644.7265625
 20
-0.0
 10
2635.109375
 20
-0.0
 10
2625.4921875
 20
-0.0
 10
2615.875
 20
-0.0
 10
2606.2578125
 20
-0.0
 10
2596.640625
 20
-0.0
 10
2587.0234375
 20
-0.0
 10
2577.40625
 20
-0.0
 10
2567.7890625
 20
-0.0
 10
2558.171875
 20
-0.0
 10
2548.5546875
 20
-0.0
 10
2538.9375
 20
-0.0
 10
2529.3203125
 20
-0.0
 10
2519.703125
 20
-0.0
 10
2510.0859375
 20
-0.0
 10
2500.46875
 20
-0.0
 10
2490.8515625
 20
-0.0
 10
2481.234375
 20
-0.0
 10
2471.6171875
 20
-0.0
 10
2462.0
 20
-0.0
 10
2452.3828125
 20
-0.0
 10
2442.765625
 20
-0.0
 10
2433.1484375
 20
-0.0
 10
2423.53125
 20
-0.0
 10
2413.9140625
 20
-0.0
 10
2404.296875
 20
-0.0
 10
2394.6796875
 20
-0.0
 10
2385.0625
 20
-0.0
 10
2375.4453125
 20
-0.0
 10
2365.828125
 20
-0.0
 10
2356.2109375
 20
-0.0
 10
2346.59375
 20
-0.0
 10
2336.9765625
 20
-0.0
 10
2327.359375
 20
-0.0
 10
2317.7421875
 20
-0.0
 10
2308.125
 20
-0.0
 10
2298.5078125
 20
-0.0
 10
2288.890625
 20
-0.0
 10
2279.2734375
 20
-0.0
 10
2269.65625
 20
-0.0
 10
2260.0390625
 20
-0.0
 10
2250.421875
 20
-0.0
 10
2240.8046875
 20
-0.0
 10
2231.1875
 20
-0.0
 10
2221.5703125
 20
-0.0
 10
2211.953125
 20
-0.0
 10
2202.3359375
 20
-0.0
 10
2192.71875
 20
-0.0
 10
2183.1015625
 20
-0.0
 10
2173.484375
 20
-0.0
 10
2163.8671875
 20
-0.0
 10
2154.25
 20
-0.0
 10
2144.6328125
 20
-0.0
 10
2135.015625
 20
-0.0
 10
2125.3984375
 20
-0.0
 10
2115.78125
 20
-0.0
 10
2106.1640625
 20
-0.0
 10
2096.546875
 20
-0.0
 10
2086.9296875
 20
-0.0
 10
2077.3125
 20
-0.0
 10
2067.6953125
 20
-0.0
 10
2058.078125
 20
-0.0
 10
2048.4609375
 20
-0.0
 10
2038.84375
 20
-0.0
 10
2029.2265625
 20
-0.0
 10
2019.609375
 20
-0.0
 10
2009.9921875
 20
-0.0
 10
2000.375
 20
-0.0
 10
1990.7578125
 20
-0.0
 10
1981.140625
 20
-0.0
 10
1971.5234375
 20
-0.0
 10
1961.90625
 20
-0.0
 10
1952.2890625
 20
-0.0
 10
1942.671875
 20
-0.0
 10
1933.0546875
 20
-0.0
 10
1923.4375
 20
-0.0
 10
1913.8203125
 20
-0.0
 10
1904.203125
 20
-0.0
 10
1894.5859375
 20
-0.0
 10
1884.96875
 20
-0.0
 10
1875.3515625
 20
-0.0
 10
1865.734375
 20
-0.0
 10
1856.1171875
 20
-0.0
 10
1846.5
 20
-0.0
 10
1836.8828125
 20
-0.0
 10
1827.265625
 20
-0.0
 10
1817.6484375
 20
-0.0
 10
1808.03125
 20
-0.0
 10
1798.4140625
 20
-0.0
 10
1788.796875
 20
-0.0
 10
1779.1796875
 20
-0.0
 10
1769.5625
 20
-0.0
 10
1759.9453125
 20
-0.0
 10
1750.328125
 20
-0.0
 10
1740.7109375
 20
-0.0
 10
1731.09375
 20
-0.0
 10
1721.4765625
 20
-0.0
 10
1711.859375
 20
-0.0
 10
1702.2421875
 20
-0.0
 10
1692.625
 20
-0.0
 10
1683.0078125
 20
-0.0
 10
1673.390625
 20
-0.0
 10
1663.7734375
 20
-0.0
 10
1654.15625
 20
-0.0
 10
1644.5390625
 20
-0.0
 10
1634.921875
 20
-0.0
 10
1625.3046875
 20
-0.0
 10
1615.6875
 20
-0.0
 10
1606.0703125
 20
-0.0
 10
1596.453125
 20
-0.0
 10
1586.8359375
 20
-0.0
 10
1577.21875
 20
-0.0
 10
1567.6015625
 20
-0.0
 10
1557.984375
 20
-0.0
 10
1548.3671875
 20
-0.0
 10
1538.75
 20
-0.0
 10
1529.1328125
 20
-0.0
 10
1519.515625
 20
-0.0
 10
1509.8984375
 20
-0.0
 10
1500.28125
 20
-0.0
 10
1490.6640625
 20
-0.0
 10
1481.046875
 20
-0.0
 10
1471.4296875
 20
-0.0
 10
1461.8125
 20
-0.0
 10
1452.1953125
 20
-0.0
 10
1442.578125
 20
-0.0
 10
1432.9609375
 20
-0.0
 10
1423.34375
 20
-0.0
 10
1413.7265625
 20
-0.0
 10
1404.109375
 20
-0.0
 10
1394.4921875
 20
-0.0
 10
1384.875
 20
-0.0
 10
1375.2578125
 20
-0.0
 10
1365.640625
 20
-0.0
 10
1356.0234375
 20
-0.0
 10
1346.40625
 20
-0.0
 10
1336.7890625
 20
-0.0
 10
1327.171875
 20
-0.0
 10
1317.5546875
 20
-0.0
 10
1307.9375
 20
-0.0
 10
1298.3203125
 20
-0.0
 10
1288.703125
 20
-0.0
 10
1279.0859375
 20
-0.0
 10
1269.46875
 20
-0.0
 10
1259.8515625
 20
-0.0
 10
1250.234375
 20
-0.0
 10
1240.6171875
 20
-0.0
 10
1231.0
 20
-0.0
 10
1221.3828125
 20
-0.0
 10
1211.765625
 20
-0.0
 10
1202.1484375
 20
-0.0
 10
1192.53125
 20
-0.0
 10
1182.9140625
 20
-0.0
 10
1173.296875
 20
-0.0
 10
1163.6796875
 20
-0.0
 10
1154.0625
 20
-0.0
 10
1144.4453125
 20
-0.0
 10
1134.828125
 20
-0.0
 10
1125.2109375
 20
-0.0
 10
1115.59375
 20
-0.0
 10
1105.9765625
 20
-0.0
 10
1096.359375
 20
-0.0
 10
1086.7421875
 20
-0.0
 10
1077.125
 20
-0.0
 10
1067.5078125
 20
-0.0
 10
1057.890625
 20
-0.0
 10
1048.2734375
 20
-0.0
 10
1038.65625
 20
-0.0
 10
1029.0390625
 20
-0.0
 10
1019.421875
 20
-0.0
 10
1009.8046875
 20
-0.0
 10
1000.1875
 20
-0.0
 10
990.5703125
 20
-0.0
 10
980.953125
 20
-0.0
 10
971.3359375
 20
-0.0
 10
961.71875
 20
-0.0
 10
952.1015625
 20
-0.0
 10
942.484375
 20
-0.0
 10
932.8671875
 20
-0.0
 10
923.25
 20
-0.0
 10
913.6328125
 20
-0.0
 10
904.015625
 20
-0.0
 10
894.3984375
 20
-0.0
 10
884.78125
 20
-0.0
 10
875.1640625
 20
-0.0
 10
865.546875
 20
-0.0
 10
855.9296875
 20
-0.0
 10
846.3125
 20
-0.0
 10
836.6953125
 20
-0.0
 10
827.078125
 20
-0.0
 10
817.4609375
 20
-0.0
 10
807.84375
 20
-0.0
 10
798.2265625
 20
-0.0
 10
788.609375
 20
-0.0
 10
778.9921875
 20
-0.0
 10
769.375
 20
-0.0
 10
759.7578125
 20
-0.0
 10
750.140625
 20
-0.0
 10
740.5234375
 20
-0.0
 10
730.90625
 20
-0.0
 10
721.2890625
 20
-0.0
 10
711.671875
 20
-0.0
 10
702.0546875
 20
-0.0
 10
692.4375
 20
-0.0
 10
682.8203125
 20
-0.0
 10
673.203125
 20
-0.0
 10
663.5859375
 20
-0.0
 10
653.96875
 20
-0.0
 10
644.3515625
 20
-0.0
 10
634.734375
 20
-0.0
 10
625.1171875
 20
-0.0
 10
615.5
 20
-0.0
 10
605.8828125
 20
-0.0
 10
596.265625
 20
-0.0
 10
586.6484375
 20
-0.0
 10
577.03125
 20
-0.0
 10
567.4140625
 20
-0.0
 10
557.796875
 20
-0.0
 10
548.1796875
 20
-0.0
 10
538.5625
 20
-0.0
 10
528.9453125
 20
-0.0
 10
519.328125
 20
-0.0
 10
509.7109375
 20
-0.0
 10
500.09375
 20
-0.0
 10
490.4765625
 20
-0.0
 10
480.859375
 20
-0.0
 10
471.2421875
 20
-0.0
 10
461.625
 20
-0.0
 10
452.0078125
 20
-0.0
 10
442.390625
 20
-0.0
 10
432.7734375
 20
-0.0
 10
423.15625
 20
-0.0
 10
413.5390625
 20
-0.0
 10
403.921875
 20
-0.0
 10
394.3046875
 20
-0.0
 10
384.6875
 20
-0.0
 10
375.0703125
 20
-0.0
 10
365.453125
 20
-0.0
 10
355.8359375
 20
-0.0
 10
346.21875
 20
-0.0
 10
336.6015625
 20
-0.0
 10
326.984375
 20
-0.0
 10
317.3671875
 20
-0.0
 10
307.75
 20
-0.0
 10
298.1328125
 20
-0.0
 10
288.515625
 20
-0.0
 10
278.8984375
 20
-0.0
 10
269.28125
 20
-0.0
 10
259.6640625
 20
-0.0
 10
250.046875
 20
-0.0
 10
240.4296875
 20
-0.0
 10
230.8125
 20
-0.0
 10
221.1953125
 20
-0.0
 10
211.578125
 20
-0.0
 10
201.9609375
 20
-0.0
 10
192.34375
 20
-0.0
 10
182.7265625
 20
-0.0
 10
173.109375
 20
-0.0
 10
163.4921875
 20
-0.0
 10
153.875
 20
-0.0
 10
144.2578125
 20
-0.0
 10
134.640625
 20
-0.0
 10
125.0234375
 20
-0.0
 10
115.40625
 20
-0.0
 10
105.7890625
 20
-0.0
 10
96.171875
 20
-0.0
 10
86.5546875
 20
-0.0
 10
76.9375
 20
-0.0
 10
67.3203125
 20
-0.0
 10
57.703125
 20
-0.0
 10
48.0859375
 20
-0.0
 10
38.46875
 20
-0.0
 10
28.8515625
 20
-0.0
 10
19.234375
 20
-0.0
 10
9.6171875
 20
-0.0
  0
LWPOLYLINE
  5
37
330
17
100
AcDbEntity
  8
substrate
100
AcDbPolyline
 90
4
 70
1
 43
0.5
 10
355.8359375
 20
-2856.3046875
 10
365.453125
 20
-2846.6875
 10
375.0703125
 20
-2856.3046875
 10
365.453125
 20
-2865.921875
  0
LWPOLYLINE
  5
38
330
17
100
AcDbEntity
  8
substrate
100
AcDbPolyline
 90
252
 70
1
 43
0.5
 10
2423.53125
 20
-2038.84375
 10
2433.1484375
 20
-2029.2265625
 10
2442.765625
 20
-2038.84375
 10
2452.3828125
 20
-2029.2265625
 10
2462.0
 20
-2029.2265625
 10
2471.6171875
 20
-2029.2265625
 10
2481.234375
 20
-2038.84375
 10
2490.8515625
 20
-2038.84375
 10
2500.46875
 20
-2038.84375
 10
2510.0859375
 20
-2038.84375
 10
2519.703125
 20
-2038.84375
 10
2529.3203125
 20
-2038.84375
 10
2538.9375
 20
-2048.4609375
 10
2548.5546875
 20
-2048.4609375
 10
2558.171875
 20
-2048.4609375
 10
2567.7890625
 20
-2058.078125
 10
2577.40625
 20
-2058.078125
 10
2587.0234375
 20
-2058.078125
 10
2596.640625
 20
-2058.078125
 10
2606.2578125
 20
-2067.6953125
 10
2615.875
 20
-2067.6953125
 10
2625.4921875
 20
-2067.6953125
 10
2635.109375
 20
-2077.3125
 10
2644.7265625
 20
-2077.3125
 10
2654.34375
 20
-2086.9296875
 10
2663.9609375
 20
-2086.9296875
 10
2673.578125
 20
-2096.546875
 10
2683.1953125
 20
-2106.1640625
 10
2692.8125
 20
-2106.1640625
 10
2702.4296875
 20
-2115.78125
 10
2712.046875
 20
-2125.3984375
 10
2721.6640625
 20
-2125.3984375
 10
2731.28125
 20
-2135.015625
 10
2731.28125
 20
-2144.6328125
 10
2740.8984375
 20
-2144.6328125
 10
2750.515625
 20
-2154.25
 10
2750.515625
 20
-2163.8671875
 10
2760.1328125
 20
-2163.8671875
 10
2769.75
 20
-2173.484375
 10
2779.3671875
 20
-2183.1015625
 10
2788.984375
 20
-2192.71875
 10
2788.984375
 20
-2202.3359375
 10
2798.6015625
 20
-2211.953125
 10
2808.21875
 20
-2221.5703125
 10
2808.21875
 20
-2231.1875
 10
2817.8359375
 20
-2240.8046875
 10
2827.453125
 20
-2250.421875
 10
2837.0703125
 20
-2260.0390625
 10
2846.6875
 20
-2269.65625
 10
2846.6875
 20
-2279.2734375
 10
2846.6875
 20
-2288.890625
 10
2856.3046875
 20
-2298.5078125
 10
2856.3046875
 20
-2308.125
 10
2856.3046875
 20
-2317.7421875
 10
2856.3046875
 20
-2327.359375
 10
2865.921875
 20
-2336.9765625
 10
2865.921875
 20
-2346.59375
 10
2875.5390625
 20
-2356.2109375
 10
2875.5390625
 20
-2365.828125
 10
2875.5390625
 20
-2375.4453125
 10
2875.5390625
 20
-2385.0625
 10
2875.5390625
 20
-2394.6796875
 10
2875.5390625
 20
-2404.296875
 10
2875.5390625
 20
-2413.9140625
 10
2875.5390625
 20
-2423.53125
 10
2875.5390625
 20
-2433.1484375
 10
2875.5390625
 20
-2442.765625
 10
2875.5390625
 20
-2452.3828125
 10
2885.15625
 20
-2462.0
 10
2875.5390625
 20
-2471.6171875
 10
2875.5390625
 20
-2481.234375
 10
2875.5390625
 20
-2490.8515625
 10
2875.5390625
 20
-2500.46875
 10
2875.5390625
 20
-2510.0859375
 10
2875.5390625
 20
-2519.703125
 10
2875.5390625
 20
-2529.3203125
 10
2875.5390625
 20
-2538.9375
 10
2875.5390625
 20
-2548.5546875
 10
2865.921875
 20
-2558.171875
 10
2865.921875
 20
-2567.7890625
 10
2865.921875
 20
-2577.40625
 10
2856.3046875
 20
-2587.0234375
 10
2856.3046875
 20
-2596.640625
 10
2846.6875
 20
-2606.2578125
 10
2846.6875
 20
-2615.875
 10
2846.6875
 20
-2625.4921875
 10
2837.0703125
 20
-2635.109375
 10
2837.0703125
 20
-2644.7265625
 10
2837.0703125
 20
-2654.34375
 10
2827.453125
 20
-2663.9609375
 10
2817.8359375
 20
-2673.578125
 10
2817.8359375
 20
-2683.1953125
 10
2808.21875
 20
-2692.8125
 10
2798.6015625
 20
-2702.4296875
 10
2788.984375
 20
-2712.046875
 10
2788.984375
 20
-2721.6640625
 10
2779.3671875
 20
-2731.28125
 10
2769.75
 20
-2740.8984375
 10
2760.1328125
 20
-2750.515625
 10
2750.515625
 20
-2760.1328125
 10
2740.8984375
 20
-2760.1328125
 10
2731.28125
 20
-2769.75
 10
2721.6640625
 20
-2779.3671875
 10
2712.046875
 20
-2788.984375
 10
2702.4296875
 20
-2798.6015625
 10
2692.8125
 20
-2798.6015625
 10
2683.1953125
 20
-2808.21875
 10
2673.578125
 20
-2808.21875
 10
2663.9609375
 20
-2817.8359375
 10
2654.34375
 20
-2827.453125
 10
2644.7265625
 20
-2837.0703125
 10
2635.109375
 20
-2837.0703125
 10
2625.4921875
 20
-2846.6875
 10
2615.875
 20
-2846.6875
 10
2606.2578125
 20
-2846.6875
 10
2596.640625
 20
-2856.3046875
 10
2587.0234375
 20
-2856.3046875
 10
2577.40625
 20
-2865.921875
 10
2567.7890625
 20
-2865.921875
 10
2558.171875
 20
-2865.921875
 10
2548.5546875
 20
-2875.5390625
 10
2538.9375
 20
-2875.5390625
 10
2529.3203125
 20
-2875.5390625
 10
2519.703125
 20
-2875.5390625
 10
2510.0859375
 20
-2875.5390625
 10
2500.46875
 20
-2875.5390625
 10
2490.8515625
 20
-2875.5390625
 10
2481.234375
 20
-2875.5390625
 10
2471.6171875
 20
-2885.15625
 10
2462.0
 20
-2885.15625
 10
2452.3828125
 20
-2875.5390625
 10
2442.765625
 20
-2885.15625
 10
2433.1484375
 20
-2875.5390625
 10
2423.53125
 20
-2875.5390625
 10
2413.9140625
 20
-2875.5390625
 10
2404.296875
 20
-2875.5390625
 10
2394.6796875
 20
-2875.5390625
 10
2385.0625
 20
-2875.5390625
 10
2375.4453125
 20
-2875.5390625
 10
2365.828125
 20
-2875.5390625
 10
2356.2109375
 20
-2865.921875
 10
2346.59375
 20
-2865.921875
 10
2336.9765625
 20
-2865.921875
 10
2327.359375
 20
-2856.3046875
 10
2317.7421875
 20
-2856.3046875
 10
2308.125
 20
-2856.3046875
 10
2298.5078125
 20
-2846.6875
 10
2288.890625
 20
-2846.6875
 10
2279.2734375
 20
-2837.0703125
 10
2269.65625
 20
-2837.0703125
 10
2260.0390625
 20
-2827.453125
 10
2250.421875
 20
-2827.453125
 10
2240.8046875
 20
-2817.8359375
 10
2231.1875
 20
-2817.8359375
 10
2221.5703125
 20
-2808.21875
 10
2211.953125
 20
-2798.6015625
 10
2202.3359375
 20
-2788.984375
 10
2192.71875
 20
-2788.984375
 10
2183.1015625
 20
-2779.3671875
 10
2173.484375
 20
-2769.75
 10
2163.8671875
 20
-2760.1328125
 10
2163.8671875
 20
-2750.515625
 10
2154.25
 20
-2750.515625
 10
2144.6328125
 20
-2740.8984375
 10
2135.015625
 20
-2731.28125
 10
2125.3984375
 20
-2721.6640625
 10
2115.78125
 20
-2712.046875
 10
2106.1640625
 20
-2702.4296875
 10
2106.1640625
 20
-2692.8125
 10
2106.1640625
 20
-2683.1953125
 10
2096.546875
 20
-2673.578125
 10
2086.9296875
 20
-2663.9609375
 10
2086.9296875
 20
-2654.34375
 10
2086.9296875
 20
-2644.7265625
 10
2077.3125
 20
-2635.109375
 10
2067.6953125
 20
-2625.4921875
 10
2067.6953125
 20
-2615.875
 10
2067.6953125
 20
-2606.2578125
 10
2067.6953125
 20
-2596.640625
 10
2058.078125
 20
-2587.0234375
 10
2058.078125
 20
-2577.40625
 10
2058.078125
 20
-2567.7890625
 10
2048.4609375
 20
-2558.171875
 10
2048.4609375
 20
-2548.5546875
 10
2048.4609375
 20
-2538.9375
 10
2048.4609375
 20
-2529.3203125
 10
2048.4609375
 20
-2519.703125
 10
2048.4609375
 20
-2510.0859375
 10
2048.4609375
 20
-2500.46875
 10
2048.4609375
 20
-2490.8515625
 10
2048.4609375
 20
-2481.234375
 10
2048.4609375
 20
-2471.6171875
 10
2048.4609375
 20
-2462.0
 10
2038.84375
 20
-2452.3828125
 10
2048.4609375
 20
-2442.765625
 10
2038.84375
 20
-2433.1484375
 10
2038.84375
 20
-2423.53125
 10
2038.84375
 20
-2413.9140625
 10
2038.84375
 20
-2404.296875
 10
2038.84375
 20
-2394.6796875
 10
2038.84375
 20
-2385.0625
 10
2038.84375
 20
-2375.4453125
 10
2048.4609375
 20
-2365.828125
 10
2048.4609375
 20
-2356.2109375
 10
2058.078125
 20
-2346.59375
 10
2058.078125
 20
-2336.9765625
 10
2058.078125
 20
-2327.359375
 10
2067.6953125
 20
-2317.7421875
 10
2067.6953125
 20
-2308.125
 10
2067.6953125
 20
-2298.5078125
 10
2067.6953125
 20
-2288.890625
 10
2077.3125
 20
-2279.2734375
 10
2077.3125
 20
-2269.65625
 10
2086.9296875
 20
-2260.0390625
 10
2086.9296875
 20
-2250.421875
 10
2096.546875
 20
-2240.8046875
 10
2106.1640625
 20
-2231.1875
 10
2115.78125
 20
-2221.5703125
 10
2125.3984375
 20
-2211.953125
 10
2125.3984375
 20
-2202.3359375
 10
2135.015625
 20
-2192.71875
 10
2144.6328125
 20
-2183.1015625
 10
2144.6328125
 20
-2173.484375
 10
2154.25
 20
-2163.8671875
 10
2163.8671875
 20
-2163.8671875
 10
2163.8671875
 20
-2154.25
 10
2173.484375
 20
-2144.6328125
 10
2183.1015625
 20
-2135.015625
 10
2192.71875
 20
-2125.3984375
 10
2202.3359375
 20
-2115.78125
 10
2211.953125
 20
-2115.78125
 10
2221.5703125
 20
-2106.1640625
 10
2231.1875
 20
-2096.546875
 10
2240.8046875
 20
-2096.546875
 10
2250.421875
 20
-2086.9296875
 10
2260.0390625
 20
-2086.9296875
 10
2269.65625
 20
-2077.3125
 10
2279.2734375
 20
-2077.3125
 10
2288.890625
 20
-2067.6953125
 10
2298.5078125
 20
-2067.6953125
 10
2308.125
 20
-2058.078125
 10
2317.7421875
 20
-2058.078125
 10
2327.359375
 20
-2058.078125
 10
2336.9765625
 20
-2058.078125
 10
2346.59375
 20
-2048.4609375
 10
2356.2109375
 20
-2048.4609375
 10
2365.828125
 20
-2048.4609375
 10
2375.4453125
 20
-2038.84375
 10
2385.0625
 20
-2038.84375
 10
2394.6796875
 20
-2038.84375
 10
2404.296875
 20
-2038.84375
 10
2413.9140625
 20
-2038.84375
  0
LWPOLYLINE
  5
39
330
17
100
AcDbEntity
  8
substrate
100
AcDbPolyline
 90
4
 70
1
 43
0.5
 10
4587.3984375
 20
-1961.90625
 10
4597.015625
 20
-1952.2890625
 10
4606.6328125
 20
-1961.90625
 10
4597.015625
 20
-1971.5234375
  0
LWPOLYLINE
  5
3A
330
17
100
AcDbEntity
  8
substrate
100
AcDbPolyline
 90
4
 70
1
 43
0.5
 10
4587.3984375
 20
-1346.40625
 10
4597.015625
 20
-1336.7890625
 10
4606.6328125
 20
-1346.40625
 10
4597.015625
 20
-1356.0234375
  0
ENDSEC
  0
SECTION
  2
OBJECTS
  0
DICTIONARY
  5
A
330
0
100
AcDbDictionary
280
0
281
1
  3
ACAD_COLOR
350
B
  3
ACAD_GROUP
350
C
  3
ACAD_LAYOUT
350
D
  3
ACAD_MATERIAL
350
E
  3
ACAD_MLEADERSTYLE
350
F
  3
ACAD_MLINESTYLE
350
10
  3
ACAD_PLOTSETTINGS
350
11
  3
ACAD_PLOTSTYLENAME
350
12
  3
ACAD_SCALELIST
350
14
  3
ACAD_TABLESTYLE
350
15
  3
ACAD_VISUALSTYLE
350
16
  3
EZDXF_META
350
2D
  0
DICTIONARY
  5
B
330
A
100
AcDbDictionary
280
0
281
1
  0
DICTIONARY
  5
C
330
A
100
AcDbDictionary
280
0
281
1
  0
DICTIONARY
  5
D
330
A
100
AcDbDictionary
280
0
281
1
  3
Model
350
1A
  3
Layout1
350
1E
  0
DICTIONARY
  5
E
330
A
100
AcDbDictionary
280
0
281
1
  3
ByBlock
350
1F
  3
ByLayer
350
20
  3
Global
350
21
  0
DICTIONARY
  5
F
330
A
100
AcDbDictionary
280
0
281
1
  3
Standard
350
2C
  0
DICTIONARY
  5
10
330
A
100
AcDbDictionary
280
0
281
1
  3
Standard
350
22
  0
DICTIONARY
  5
11
330
A
100
AcDbDictionary
280
0
281
1
  0
ACDBDICTIONARYWDFLT
  5
12
330
A
100
AcDbDictionary
280
0
281
1
  3
Normal
350
13
100
AcDbDictionaryWithDefault
340
13
  0
ACDBPLACEHOLDER
  5
13
330
12
  0
DICTIONARY
  5
14
330
A
100
AcDbDictionary
280
0
281
1
  0
DICTIONARY
  5
15
330
A
100
AcDbDictionary
280
0
281
1
  0
DICTIONARY
  5
16
330
A
100
AcDbDictionary
280
0
281
1
  0
LAYOUT
  5
1A
330
D
100
AcDbPlotSettings
  1

  2
Adobe PDF
  4
A3
  6

 40
7.5
 41
20.0
 42
7.5
 43
20.0
 44
420.0
 45
297.0
 46
0.0
 47
0.0
 48
0.0
 49
0.0
140
0.0
141
0.0
142
1.0
143
1.0
 70
1024
 72
1
 73
0
 74
5
  7

 75
16
 76
0
 77
2
 78
300
147
1.0
148
0.0
149
0.0
100
AcDbLayout
  1
Model
 70
1
 71
0
 10
0.0
 20
0.0
 11
420.0
 21
297.0
 12
0.0
 22
0.0
 32
0.0
 14
1e+20
 24
1e+20
 34
1e+20
 15
-1e+20
 25
-1e+20
 35
-1e+20
146
0.0
 13
0.0
 23
0.0
 33
0.0
 16
1.0
 26
0.0
 36
0.0
 17
0.0
 27
1.0
 37
0.0
 76
1
330
17
  0
LAYOUT
  5
1E
330
D
100
AcDbPlotSettings
  1

  2
Adobe PDF
  4
A3
  6

 40
7.5
 41
20.0
 42
7.5
 43
20.0
 44
420.0
 45
297.0
 46
0.0
 47
0.0
 48
0.0
 49
0.0
140
0.0
141
0.0
142
1.0
143
1.0
 70
0
 72
1
 73
0
 74
5
  7

 75
16
 76
0
 77
2
 78
300
147
1.0
148
0.0
149
0.0
100
AcDbLayout
  1
Layout1
 70
1
 71
1
 10
0.0
 20
0.0
 11
420.0
 21
297.0
 12
0.0
 22
0.0
 32
0.0
 14
1e+20
 24
1e+20
 34
1e+20
 15
-1e+20
 25
-1e+20
 35
-1e+20
146
0.0
 13
0.0
 23
0.0
 33
0.0
 16
1.0
 26
0.0
 36
0.0
 17
0.0
 27
1.0
 37
0.0
 76
1
330
1B
  0
MATERIAL
  5
1F
102
{ACAD_REACTORS
330
E
102
}
330
E
100
AcDbMaterial
  1
ByBlock
  2

 70
0
 40
1.0
 71
1
 41
1.0
 91
-1023410177
 42
1.0
 72
1
  3

 73
1
 74
1
 75
1
 44
0.5
 73
0
 45
1.0
 46
1.0
 77
1
  4

 78
1
 79
1
170
1
 48
1.0
171
1
  6

172
1
173
1
174
1
140
1.0
141
1.0
175
1
  7

176
1
177
1
178
1
143
1.0
179
1
  8

270
1
271
1
272
1
145
1.0
146
1.0
273
1
  9

274
1
275
1
276
1
 42
1.0
 72
1
  3

 73
1
 74
1
 75
1
 94
63
  0
MATERIAL
  5
20
102
{ACAD_REACTORS
330
E
102
}
330
E
100
AcDbMaterial
  1
ByLayer
  2

 70
0
 40
1.0
 71
1
 41
1.0
 91
-1023410177
 42
1.0
 72
1
  3

 73
1
 74
1
 75
1
 44
0.5
 73
0
 45
1.0
 46
1.0
 77
1
  4

 78
1
 79
1
170
1
 48
1.0
171
1
  6

172
1
173
1
174
1
140
1.0
141
1.0
175
1
  7

176
1
177
1
178
1
143
1.0
179
1
  8

270
1
271
1
272
1
145
1.0
146
1.0
273
1
  9

274
1
275
1
276
1
 42
1.0
 72
1
  3

 73
1
 74
1
 75
1
 94
63
  0
MATERIAL
  5
21
102
{ACAD_REACTORS
330
E
102
}
330
E
100
AcDbMaterial
  1
Global
  2

 70
0
 40
1.0
 71
1
 41
1.0
 91
-1023410177
 42
1.0
 72
1
  3

 73
1
 74
1
 75
1
 44
0.5
 73
0
 45
1.0
 46
1.0
 77
1
  4

 78
1
 79
1
170
1
 48
1.0
171
1
  6

172
1
173
1
174
1
140
1.0
141
1.0
175
1
  7

176
1
177
1
178
1
143
1.0
179
1
  8

270
1
271
1
272
1
145
1.0
146
1.0
273
1
  9

274
1
275
1
276
1
 42
1.0
 72
1
  3

 73
1
 74
1
 75
1
 94
63
  0
MLINESTYLE
  5
22
102
{ACAD_REACTORS
330
10
102
}
330
10
100
AcDbMlineStyle
  2
Standard
 70
0
  3

 62
256
 51
90.0
 52
90.0
 71
2
 49
0.5
 62
256
  6
BYLAYER
 49
-0.5
 62
256
  6
BYLAYER
  0
MLEADERSTYLE
  5
2C
102
{ACAD_REACTORS
330
F
102
}
330
F
100
AcDbMLeaderStyle
179
2
170
2
171
1
172
0
 90
2
 40
0.0
 41
0.0
173
1
 91
-1056964608
 92
-2
290
1
 42
2.0
291
1
 43
8.0
  3
Standard
 44
4.0
300

342
29
174
1
175
1
176
0
178
1
 93
-1056964608
 45
4.0
292
0
297
0
 46
4.0
 94
-1056964608
 47
1.0
 49
1.0
140
1.0
294
1
141
0.0
177
0
142
1.0
295
0
296
0
143
3.75
271
0
272
9
273
9
  0
DICTIONARY
  5
2D
330
A
100
AcDbDictionary
281
1
  3
CREATED_BY_EZDXF
350
2E
  3
WRITTEN_BY_EZDXF
350
3D
  0
DICTIONARYVAR
  5
2E
330
2D
100
DictionaryVariables
280
0
  1
1.1.0 @ 2025-03-06T18:03:43.886328+00:00
  0
DICTIONARYVAR
  5
3D
330
2D
100
DictionaryVariables
280
0
  1
1.1.0 @ 2025-03-06T18:03:43.891204+00:00
  0
ENDSEC
  0
EOF
