  0
SECTION
  2
HEADER
  9
$ACADVER
  1
AC1027
  9
$ACADMAINTVER
 70
105
  9
$DWGCODEPAGE
  3
ANSI_1252
  9
$LASTSAVEDBY
  1
ezdxf
  9
$REQUIREDVERSIONS
160
0
  9
$INSBASE
 10
0.0
 20
0.0
 30
0.0
  9
$EXTMIN
 10
1e+20
 20
1e+20
 30
1e+20
  9
$EXTMAX
 10
-1e+20
 20
-1e+20
 30
-1e+20
  9
$LIMMIN
 10
0.0
 20
0.0
  9
$LIMMAX
 10
420.0
 20
297.0
  9
$ORTHOMODE
 70
0
  9
$REGENMODE
 70
1
  9
$FILLMODE
 70
1
  9
$QTEXTMODE
 70
0
  9
$MIRRTEXT
 70
1
  9
$LTSCALE
 40
1.0
  9
$ATTMODE
 70
1
  9
$TEXTSIZE
 40
2.5
  9
$TRACEWID
 40
1.0
  9
$TEXTSTYLE
  7
Standard
  9
$CLAYER
  8
0
  9
$CELTYPE
  6
ByLayer
  9
$CECOLOR
 62
256
  9
$CELTSCALE
 40
1.0
  9
$DISPSILH
 70
0
  9
$DIMSCALE
 40
1.0
  9
$DIMASZ
 40
2.5
  9
$DIMEXO
 40
0.625
  9
$DIMDLI
 40
3.75
  9
$DIMRND
 40
0.0
  9
$DIMDLE
 40
0.0
  9
$DIMEXE
 40
1.25
  9
$DIMTP
 40
0.0
  9
$DIMTM
 40
0.0
  9
$DIMTXT
 40
2.5
  9
$DIMCEN
 40
2.5
  9
$DIMTSZ
 40
0.0
  9
$DIMTOL
 70
0
  9
$DIMLIM
 70
0
  9
$DIMTIH
 70
0
  9
$DIMTOH
 70
0
  9
$DIMSE1
 70
0
  9
$DIMSE2
 70
0
  9
$DIMTAD
 70
1
  9
$DIMZIN
 70
8
  9
$DIMBLK
  1

  9
$DIMASO
 70
1
  9
$DIMSHO
 70
1
  9
$DIMPOST
  1

  9
$DIMAPOST
  1

  9
$DIMALT
 70
0
  9
$DIMALTD
 70
3
  9
$DIMALTF
 40
0.03937007874
  9
$DIMLFAC
 40
1.0
  9
$DIMTOFL
 70
1
  9
$DIMTVP
 40
0.0
  9
$DIMTIX
 70
0
  9
$DIMSOXD
 70
0
  9
$DIMSAH
 70
0
  9
$DIMBLK1
  1

  9
$DIMBLK2
  1

  9
$DIMSTYLE
  2
ISO-25
  9
$DIMCLRD
 70
0
  9
$DIMCLRE
 70
0
  9
$DIMCLRT
 70
0
  9
$DIMTFAC
 40
1.0
  9
$DIMGAP
 40
0.625
  9
$DIMJUST
 70
0
  9
$DIMSD1
 70
0
  9
$DIMSD2
 70
0
  9
$DIMTOLJ
 70
0
  9
$DIMTZIN
 70
8
  9
$DIMALTZ
 70
0
  9
$DIMALTTZ
 70
0
  9
$DIMUPT
 70
0
  9
$DIMDEC
 70
2
  9
$DIMTDEC
 70
2
  9
$DIMALTU
 70
2
  9
$DIMALTTD
 70
3
  9
$DIMTXSTY
  7
Standard
  9
$DIMAUNIT
 70
0
  9
$DIMADEC
 70
0
  9
$DIMALTRND
 40
0.0
  9
$DIMAZIN
 70
0
  9
$DIMDSEP
 70
44
  9
$DIMATFIT
 70
3
  9
$DIMFRAC
 70
0
  9
$DIMLDRBLK
  1

  9
$DIMLUNIT
 70
2
  9
$DIMLWD
 70
-2
  9
$DIMLWE
 70
-2
  9
$DIMTMOVE
 70
0
  9
$DIMFXL
 40
1.0
  9
$DIMFXLON
 70
0
  9
$DIMJOGANG
 40
0.785398163397
  9
$DIMTFILL
 70
0
  9
$DIMTFILLCLR
 70
0
  9
$DIMARCSYM
 70
0
  9
$DIMLTYPE
  6

  9
$DIMLTEX1
  6

  9
$DIMLTEX2
  6

  9
$DIMTXTDIRECTION
 70
0
  9
$LUNITS
 70
2
  9
$LUPREC
 70
4
  9
$SKETCHINC
 40
1.0
  9
$FILLETRAD
 40
10.0
  9
$AUNITS
 70
0
  9
$AUPREC
 70
2
  9
$MENU
  1
.
  9
$ELEVATION
 40
0.0
  9
$PELEVATION
 40
0.0
  9
$THICKNESS
 40
0.0
  9
$LIMCHECK
 70
0
  9
$CHAMFERA
 40
0.0
  9
$CHAMFERB
 40
0.0
  9
$CHAMFERC
 40
0.0
  9
$CHAMFERD
 40
0.0
  9
$SKPOLY
 70
0
  9
$TDCREATE
 40
2460676.484722222
  9
$TDUCREATE
 40
2458532.153996898
  9
$TDUPDATE
 40
2460676.484722222
  9
$TDUUPDATE
 40
2458532.1544311
  9
$TDINDWG
 40
0.0
  9
$TDUSRTIMER
 40
0.0
  9
$USRTIMER
 70
1
  9
$ANGBASE
 50
0.0
  9
$ANGDIR
 70
0
  9
$PDMODE
 70
0
  9
$PDSIZE
 40
0.0
  9
$PLINEWID
 40
0.0
  9
$SPLFRAME
 70
0
  9
$SPLINETYPE
 70
6
  9
$SPLINESEGS
 70
8
  9
$HANDSEED
  5
3B
  9
$SURFTAB1
 70
6
  9
$SURFTAB2
 70
6
  9
$SURFTYPE
 70
6
  9
$SURFU
 70
6
  9
$SURFV
 70
6
  9
$UCSBASE
  2

  9
$UCSNAME
  2

  9
$UCSORG
 10
0.0
 20
0.0
 30
0.0
  9
$UCSXDIR
 10
1.0
 20
0.0
 30
0.0
  9
$UCSYDIR
 10
0.0
 20
1.0
 30
0.0
  9
$UCSORTHOREF
  2

  9
$UCSORTHOVIEW
 70
0
  9
$UCSORGTOP
 10
0.0
 20
0.0
 30
0.0
  9
$UCSORGBOTTOM
 10
0.0
 20
0.0
 30
0.0
  9
$UCSORGLEFT
 10
0.0
 20
0.0
 30
0.0
  9
$UCSORGRIGHT
 10
0.0
 20
0.0
 30
0.0
  9
$UCSORGFRONT
 10
0.0
 20
0.0
 30
0.0
  9
$UCSORGBACK
 10
0.0
 20
0.0
 30
0.0
  9
$PUCSBASE
  2

  9
$PUCSNAME
  2

  9
$PUCSORG
 10
0.0
 20
0.0
 30
0.0
  9
$PUCSXDIR
 10
1.0
 20
0.0
 30
0.0
  9
$PUCSYDIR
 10
0.0
 20
1.0
 30
0.0
  9
$PUCSORTHOREF
  2

  9
$PUCSORTHOVIEW
 70
0
  9
$PUCSORGTOP
 10
0.0
 20
0.0
 30
0.0
  9
$PUCSORGBOTTOM
 10
0.0
 20
0.0
 30
0.0
  9
$PUCSORGLEFT
 10
0.0
 20
0.0
 30
0.0
  9
$PUCSORGRIGHT
 10
0.0
 20
0.0
 30
0.0
  9
$PUCSORGFRONT
 10
0.0
 20
0.0
 30
0.0
  9
$PUCSORGBACK
 10
0.0
 20
0.0
 30
0.0
  9
$USERI1
 70
0
  9
$USERI2
 70
0
  9
$USERI3
 70
0
  9
$USERI4
 70
0
  9
$USERI5
 70
0
  9
$USERR1
 40
0.0
  9
$USERR2
 40
0.0
  9
$USERR3
 40
0.0
  9
$USERR4
 40
0.0
  9
$USERR5
 40
0.0
  9
$WORLDVIEW
 70
1
  9
$SHADEDGE
 70
3
  9
$SHADEDIF
 70
70
  9
$TILEMODE
 70
1
  9
$MAXACTVP
 70
64
  9
$PINSBASE
 10
0.0
 20
0.0
 30
0.0
  9
$PLIMCHECK
 70
0
  9
$PEXTMIN
 10
1e+20
 20
1e+20
 30
1e+20
  9
$PEXTMAX
 10
-1e+20
 20
-1e+20
 30
-1e+20
  9
$PLIMMIN
 10
0.0
 20
0.0
  9
$PLIMMAX
 10
420.0
 20
297.0
  9
$UNITMODE
 70
0
  9
$VISRETAIN
 70
1
  9
$PLINEGEN
 70
0
  9
$PSLTSCALE
 70
1
  9
$TREEDEPTH
 70
3020
  9
$CMLSTYLE
  2
Standard
  9
$CMLJUST
 70
0
  9
$CMLSCALE
 40
20.0
  9
$PROXYGRAPHICS
 70
1
  9
$MEASUREMENT
 70
1
  9
$CELWEIGHT
370
-1
  9
$ENDCAPS
280
0
  9
$JOINSTYLE
280
0
  9
$LWDISPLAY
290
0
  9
$INSUNITS
 70
6
  9
$HYPERLINKBASE
  1

  9
$STYLESHEET
  1

  9
$XEDIT
290
1
  9
$CEPSNTYPE
380
0
  9
$PSTYLEMODE
290
1
  9
$FINGERPRINTGUID
  2
{B8EB2A86-5F29-4022-9FF6-AB6FBC838B16}
  9
$VERSIONGUID
  2
{A2708568-23CE-4F3B-9BCB-519ED79F0BDA}
  9
$EXTNAMES
290
1
  9
$PSVPSCALE
 40
0.0
  9
$OLESTARTUP
290
0
  9
$SORTENTS
280
127
  9
$INDEXCTL
280
0
  9
$HIDETEXT
280
1
  9
$XCLIPFRAME
280
0
  9
$HALOGAP
280
0
  9
$OBSCOLOR
 70
257
  9
$OBSLTYPE
280
0
  9
$INTERSECTIONDISPLAY
280
0
  9
$INTERSECTIONCOLOR
 70
257
  9
$DIMASSOC
280
2
  9
$PROJECTNAME
  1

  9
$CAMERADISPLAY
290
0
  9
$LENSLENGTH
 40
50.0
  9
$CAMERAHEIGHT
 40
0.0
  9
$STEPSPERSEC
 40
24.0
  9
$STEPSIZE
 40
100.0
  9
$3DDWFPREC
 40
2.0
  9
$PSOLWIDTH
 40
0.005
  9
$PSOLHEIGHT
 40
0.08
  9
$LOFTANG1
 40
1.570796326795
  9
$LOFTANG2
 40
1.570796326795
  9
$LOFTMAG1
 40
0.0
  9
$LOFTMAG2
 40
0.0
  9
$LOFTPARAM
 70
7
  9
$LOFTNORMALS
280
1
  9
$LATITUDE
 40
37.795
  9
$LONGITUDE
 40
-122.394
  9
$NORTHDIRECTION
 40
0.0
  9
$TIMEZONE
 70
-8000
  9
$LIGHTGLYPHDISPLAY
280
1
  9
$TILEMODELIGHTSYNCH
280
1
  9
$CMATERIAL
347
20
  9
$SOLIDHIST
280
0
  9
$SHOWHIST
280
1
  9
$DWFFRAME
280
2
  9
$DGNFRAME
280
2
  9
$REALWORLDSCALE
290
1
  9
$INTERFERECOLOR
 62
256
  9
$CSHADOW
280
0
  9
$SHADOWPLANELOCATION
 40
0.0
  0
ENDSEC
  0
SECTION
  2
CLASSES
  0
CLASS
  1
ACDBDICTIONARYWDFLT
  2
AcDbDictionaryWithDefault
  3
ObjectDBX Classes
 90
0
 91
0
280
0
281
0
  0
CLASS
  1
SUN
  2
AcDbSun
  3
SCENEOE
 90
1153
 91
0
280
0
281
0
  0
CLASS
  1
VISUALSTYLE
  2
AcDbVisualStyle
  3
ObjectDBX Classes
 90
4095
 91
0
280
0
281
0
  0
CLASS
  1
MATERIAL
  2
AcDbMaterial
  3
ObjectDBX Classes
 90
1153
 91
0
280
0
281
0
  0
CLASS
  1
SCALE
  2
AcDbScale
  3
ObjectDBX Classes
 90
1153
 91
0
280
0
281
0
  0
CLASS
  1
TABLESTYLE
  2
AcDbTableStyle
  3
ObjectDBX Classes
 90
4095
 91
0
280
0
281
0
  0
CLASS
  1
MLEADERSTYLE
  2
AcDbMLeaderStyle
  3
ACDB_MLEADERSTYLE_CLASS
 90
4095
 91
0
280
0
281
0
  0
CLASS
  1
DICTIONARYVAR
  2
AcDbDictionaryVar
  3
ObjectDBX Classes
 90
0
 91
0
280
0
281
0
  0
CLASS
  1
CELLSTYLEMAP
  2
AcDbCellStyleMap
  3
ObjectDBX Classes
 90
1152
 91
0
280
0
281
0
  0
CLASS
  1
MENTALRAYRENDERSETTINGS
  2
AcDbMentalRayRenderSettings
  3
SCENEOE
 90
1024
 91
0
280
0
281
0
  0
CLASS
  1
ACDBDETAILVIEWSTYLE
  2
AcDbDetailViewStyle
  3
ObjectDBX Classes
 90
1025
 91
0
280
0
281
0
  0
CLASS
  1
ACDBSECTIONVIEWSTYLE
  2
AcDbSectionViewStyle
  3
ObjectDBX Classes
 90
1025
 91
0
280
0
281
0
  0
CLASS
  1
RASTERVARIABLES
  2
AcDbRasterVariables
  3
ISM
 90
0
 91
0
280
0
281
0
  0
CLASS
  1
ACDBPLACEHOLDER
  2
AcDbPlaceHolder
  3
ObjectDBX Classes
 90
0
 91
0
280
0
281
0
  0
CLASS
  1
LAYOUT
  2
AcDbLayout
  3
ObjectDBX Classes
 90
0
 91
0
280
0
281
0
  0
ENDSEC
  0
SECTION
  2
TABLES
  0
TABLE
  2
VPORT
  5
8
330
0
100
AcDbSymbolTable
 70
1
  0
VPORT
  5
23
330
8
100
AcDbSymbolTableRecord
100
AcDbViewportTableRecord
  2
*Active
 70
0
 10
0.0
 20
0.0
 11
1.0
 21
1.0
 12
0.0
 22
0.0
 13
0.0
 23
0.0
 14
0.5
 24
0.5
 15
0.5
 25
0.5
 16
0.0
 26
0.0
 36
1.0
 17
0.0
 27
0.0
 37
0.0
 40
1000.0
 41
1.34
 42
50.0
 43
0.0
 44
0.0
 50
0.0
 51
0.0
 71
0
 72
1000
 73
1
 74
3
 75
0
 76
0
 77
0
 78
0
281
0
 65
0
146
0.0
  0
ENDTAB
  0
TABLE
  2
LTYPE
  5
2
330
0
100
AcDbSymbolTable
 70
3
  0
LTYPE
  5
24
330
2
100
AcDbSymbolTableRecord
100
AcDbLinetypeTableRecord
  2
ByBlock
 70
0
  3

 72
65
 73
0
 40
0.0
  0
LTYPE
  5
25
330
2
100
AcDbSymbolTableRecord
100
AcDbLinetypeTableRecord
  2
ByLayer
 70
0
  3

 72
65
 73
0
 40
0.0
  0
LTYPE
  5
26
330
2
100
AcDbSymbolTableRecord
100
AcDbLinetypeTableRecord
  2
Continuous
 70
0
  3

 72
65
 73
0
 40
0.0
  0
ENDTAB
  0
TABLE
  2
LAYER
  5
1
330
0
100
AcDbSymbolTable
 70
5
  0
LAYER
  5
27
330
1
100
AcDbSymbolTableRecord
100
AcDbLayerTableRecord
  2
0
 70
0
 62
7
  6
Continuous
370
-3
390
13
347
21
  0
LAYER
  5
28
330
1
100
AcDbSymbolTableRecord
100
AcDbLayerTableRecord
  2
Defpoints
 70
0
 62
7
  6
Continuous
290
0
370
-3
390
13
347
21
  0
LAYER
  5
2F
330
1
100
AcDbSymbolTableRecord
100
AcDbLayerTableRecord
  2
conductor
 70
0
 62
1
  6
Continuous
370
-3
390
13
347
21
  0
LAYER
  5
30
330
1
100
AcDbSymbolTableRecord
100
AcDbLayerTableRecord
  2
dielectric
 70
0
 62
8
  6
Continuous
370
-3
390
13
347
21
  0
LAYER
  5
31
330
1
100
AcDbSymbolTableRecord
100
AcDbLayerTableRecord
  2
substrate
 70
0
 62
5
  6
Continuous
370
-3
390
13
347
21
  0
ENDTAB
  0
TABLE
  2
STYLE
  5
5
330
0
100
AcDbSymbolTable
 70
1
  0
STYLE
  5
29
330
5
100
AcDbSymbolTableRecord
100
AcDbTextStyleTableRecord
  2
Standard
 70
0
 40
0.0
 41
1.0
 50
0.0
 71
0
 42
2.5
  3
txt
  4

  0
ENDTAB
  0
TABLE
  2
VIEW
  5
7
330
0
100
AcDbSymbolTable
 70
0
  0
ENDTAB
  0
TABLE
  2
UCS
  5
6
330
0
100
AcDbSymbolTable
 70
0
  0
ENDTAB
  0
TABLE
  2
APPID
  5
3
330
0
100
AcDbSymbolTable
 70
3
  0
APPID
  5
2A
330
3
100
AcDbSymbolTableRecord
100
AcDbRegAppTableRecord
  2
ACAD
 70
0
  0
APPID
  5
38
330
3
100
AcDbSymbolTableRecord
100
AcDbRegAppTableRecord
  2
HATCHBACKGROUNDCOLOR
 70
0
  0
APPID
  5
39
330
3
100
AcDbSymbolTableRecord
100
AcDbRegAppTableRecord
  2
EZDXF
 70
0
  0
ENDTAB
  0
TABLE
  2
DIMSTYLE
  5
4
330
0
100
AcDbSymbolTable
 70
1
100
AcDbDimStyleTable
  0
DIMSTYLE
105
2B
330
4
100
AcDbSymbolTableRecord
100
AcDbDimStyleTableRecord
  2
Standard
 70
0
 40
1.0
 41
2.5
 42
0.625
 43
3.75
 44
1.25
 45
0.0
 46
0.0
 47
0.0
 48
0.0
 49
2.5
140
2.5
141
2.5
142
0.0
143
0.03937007874
144
1.0
145
0.0
146
1.0
147
0.625
148
0.0
 69
0
 70
0
 71
0
 72
0
 73
0
 74
0
 75
0
 76
0
 77
1
 78
8
 79
3
170
0
171
3
172
1
173
0
174
0
175
0
176
0
177
0
178
0
179
2
271
2
272
2
273
2
274
3
275
0
276
0
277
2
278
44
279
0
280
0
281
0
282
0
283
0
284
8
285
0
286
0
288
0
289
3
290
0
371
-2
372
-2
  0
ENDTAB
  0
TABLE
  2
BLOCK_RECORD
  5
9
330
0
100
AcDbSymbolTable
 70
2
  0
BLOCK_RECORD
  5
17
330
9
100
AcDbSymbolTableRecord
100
AcDbBlockTableRecord
  2
*Model_Space
340
1A
 70
0
280
1
281
0
  0
BLOCK_RECORD
  5
1B
330
9
100
AcDbSymbolTableRecord
100
AcDbBlockTableRecord
  2
*Paper_Space
340
1E
 70
0
280
1
281
0
  0
ENDTAB
  0
ENDSEC
  0
SECTION
  2
BLOCKS
  0
BLOCK
  5
18
330
17
100
AcDbEntity
  8
0
100
AcDbBlockBegin
  2
*Model_Space
 70
0
 10
0.0
 20
0.0
 30
0.0
  3
*Model_Space
  1

  0
ENDBLK
  5
19
330
17
100
AcDbEntity
  8
0
100
AcDbBlockEnd
  0
BLOCK
  5
1C
330
1B
100
AcDbEntity
  8
0
100
AcDbBlockBegin
  2
*Paper_Space
 70
0
 10
0.0
 20
0.0
 30
0.0
  3
*Paper_Space
  1

  0
ENDBLK
  5
1D
330
1B
100
AcDbEntity
  8
0
100
AcDbBlockEnd
  0
ENDSEC
  0
SECTION
  2
ENTITIES
  0
LWPOLYLINE
  5
32
330
17
100
AcDbEntity
  8
conductor
100
AcDbPolyline
 90
171
 70
1
 43
0.5
 10
2556.8203125
 20
-2239.6953125
 10
2546.91015625
 20
-2249.60546875
 10
2537.0
 20
-2249.60546875
 10
2527.08984375
 20
-2249.60546875
 10
2517.1796875
 20
-2249.60546875
 10
2507.26953125
 20
-2259.515625
 10
2497.359375
 20
-2259.515625
 10
2487.44921875
 20
-2259.515625
 10
2477.5390625
 20
-2259.515625
 10
2467.62890625
 20
-2259.515625
 10
2457.71875
 20
-2259.515625
 10
2447.80859375
 20
-2259.515625
 10
2437.8984375
 20
-2269.42578125
 10
2427.98828125
 20
-2269.42578125
 10
2418.078125
 20
-2279.3359375
 10
2408.16796875
 20
-2279.3359375
 10
2398.2578125
 20
-2279.3359375
 10
2388.34765625
 20
-2289.24609375
 10
2378.4375
 20
-2299.15625
 10
2368.52734375
 20
-2299.15625
 10
2358.6171875
 20
-2309.06640625
 10
2348.70703125
 20
-2318.9765625
 10
2338.796875
 20
-2328.88671875
 10
2328.88671875
 20
-2328.88671875
 10
2328.88671875
 20
-2338.796875
 10
2318.9765625
 20
-2348.70703125
 10
2309.06640625
 20
-2358.6171875
 10
2299.15625
 20
-2368.52734375
 10
2289.24609375
 20
-2378.4375
 10
2279.3359375
 20
-2388.34765625
 10
2279.3359375
 20
-2398.2578125
 10
2269.42578125
 20
-2408.16796875
 10
2259.515625
 20
-2418.078125
 10
2259.515625
 20
-2427.98828125
 10
2249.60546875
 20
-2437.8984375
 10
2249.60546875
 20
-2447.80859375
 10
2249.60546875
 20
-2457.71875
 10
2249.60546875
 20
-2467.62890625
 10
2249.60546875
 20
-2477.5390625
 10
2259.515625
 20
-2487.44921875
 10
2249.60546875
 20
-2497.359375
 10
2249.60546875
 20
-2507.26953125
 10
2249.60546875
 20
-2517.1796875
 10
2249.60546875
 20
-2527.08984375
 10
2249.60546875
 20
-2537.0
 10
2249.60546875
 20
-2546.91015625
 10
2239.6953125
 20
-2556.8203125
 10
2239.6953125
 20
-2566.73046875
 10
2239.6953125
 20
-2576.640625
 10
2239.6953125
 20
-2586.55078125
 10
2239.6953125
 20
-2596.4609375
 10
2249.60546875
 20
-2606.37109375
 10
2249.60546875
 20
-2616.28125
 10
2259.515625
 20
-2626.19140625
 10
2269.42578125
 20
-2636.1015625
 10
2269.42578125
 20
-2646.01171875
 10
2279.3359375
 20
-2655.921875
 10
2289.24609375
 20
-2665.83203125
 10
2299.15625
 20
-2665.83203125
 10
2309.06640625
 20
-2675.7421875
 10
2299.15625
 20
-2685.65234375
 10
2309.06640625
 20
-2685.65234375
 10
2318.9765625
 20
-2685.65234375
 10
2328.88671875
 20
-2695.5625
 10
2328.88671875
 20
-2705.47265625
 10
2328.88671875
 20
-2715.3828125
 10
2338.796875
 20
-2725.29296875
 10
2338.796875
 20
-2735.203125
 10
2348.70703125
 20
-2745.11328125
 10
2358.6171875
 20
-2755.0234375
 10
2358.6171875
 20
-2764.93359375
 10
2368.52734375
 20
-2764.93359375
 10
2378.4375
 20
-2774.84375
 10
2388.34765625
 20
-2784.75390625
 10
2398.2578125
 20
-2784.75390625
 10
2408.16796875
 20
-2794.6640625
 10
2418.078125
 20
-2794.6640625
 10
2427.98828125
 20
-2804.57421875
 10
2437.8984375
 20
-2794.6640625
 10
2447.80859375
 20
-2804.57421875
 10
2457.71875
 20
-2814.484375
 10
2467.62890625
 20
-2814.484375
 10
2477.5390625
 20
-2814.484375
 10
2487.44921875
 20
-2814.484375
 10
2497.359375
 20
-2814.484375
 10
2507.26953125
 20
-2814.484375
 10
2517.1796875
 20
-2814.484375
 10
2527.08984375
 20
-2814.484375
 10
2537.0
 20
-2814.484375
 10
2546.91015625
 20
-2814.484375
 10
2556.8203125
 20
-2814.484375
 10
2566.73046875
 20
-2814.484375
 10
2576.640625
 20
-2814.484375
 10
2586.55078125
 20
-2814.484375
 10
2596.4609375
 20
-2804.57421875
 10
2606.37109375
 20
-2804.57421875
 10
2616.28125
 20
-2804.57421875
 10
2626.19140625
 20
-2804.57421875
 10
2636.1015625
 20
-2804.57421875
 10
2646.01171875
 20
-2794.6640625
 10
2655.921875
 20
-2784.75390625
 10
2665.83203125
 20
-2784.75390625
 10
2675.7421875
 20
-2784.75390625
 10
2685.65234375
 20
-2774.84375
 10
2695.5625
 20
-2764.93359375
 10
2705.47265625
 20
-2764.93359375
 10
2715.3828125
 20
-2755.0234375
 10
2725.29296875
 20
-2745.11328125
 10
2735.203125
 20
-2735.203125
 10
2745.11328125
 20
-2735.203125
 10
2745.11328125
 20
-2725.29296875
 10
2755.0234375
 20
-2715.3828125
 10
2764.93359375
 20
-2715.3828125
 10
2764.93359375
 20
-2705.47265625
 10
2774.84375
 20
-2695.5625
 10
2774.84375
 20
-2685.65234375
 10
2784.75390625
 20
-2675.7421875
 10
2784.75390625
 20
-2665.83203125
 10
2794.6640625
 20
-2655.921875
 10
2794.6640625
 20
-2646.01171875
 10
2794.6640625
 20
-2636.1015625
 10
2804.57421875
 20
-2626.19140625
 10
2804.57421875
 20
-2616.28125
 10
2804.57421875
 20
-2606.37109375
 10
2804.57421875
 20
-2596.4609375
 10
2804.57421875
 20
-2586.55078125
 10
2804.57421875
 20
-2576.640625
 10
2804.57421875
 20
-2566.73046875
 10
2804.57421875
 20
-2556.8203125
 10
2814.484375
 20
-2546.91015625
 10
2804.57421875
 20
-2537.0
 10
2804.57421875
 20
-2527.08984375
 10
2814.484375
 20
-2517.1796875
 10
2814.484375
 20
-2507.26953125
 10
2814.484375
 20
-2497.359375
 10
2814.484375
 20
-2487.44921875
 10
2814.484375
 20
-2477.5390625
 10
2814.484375
 20
-2467.62890625
 10
2804.57421875
 20
-2457.71875
 10
2804.57421875
 20
-2447.80859375
 10
2804.57421875
 20
-2437.8984375
 10
2794.6640625
 20
-2427.98828125
 10
2794.6640625
 20
-2418.078125
 10
2794.6640625
 20
-2408.16796875
 10
2794.6640625
 20
-2398.2578125
 10
2784.75390625
 20
-2388.34765625
 10
2784.75390625
 20
-2378.4375
 10
2774.84375
 20
-2368.52734375
 10
2764.93359375
 20
-2358.6171875
 10
2755.0234375
 20
-2348.70703125
 10
2745.11328125
 20
-2348.70703125
 10
2735.203125
 20
-2338.796875
 10
2735.203125
 20
-2328.88671875
 10
2725.29296875
 20
-2328.88671875
 10
2715.3828125
 20
-2328.88671875
 10
2705.47265625
 20
-2318.9765625
 10
2705.47265625
 20
-2309.06640625
 10
2695.5625
 20
-2309.06640625
 10
2685.65234375
 20
-2299.15625
 10
2675.7421875
 20
-2289.24609375
 10
2665.83203125
 20
-2279.3359375
 10
2655.921875
 20
-2269.42578125
 10
2646.01171875
 20
-2269.42578125
 10
2636.1015625
 20
-2259.515625
 10
2626.19140625
 20
-2259.515625
 10
2616.28125
 20
-2259.515625
 10
2606.37109375
 20
-2259.515625
 10
2596.4609375
 20
-2249.60546875
 10
2586.55078125
 20
-2249.60546875
 10
2576.640625
 20
-2249.60546875
 10
2566.73046875
 20
-2249.60546875
  0
LWPOLYLINE
  5
33
330
17
100
AcDbEntity
  8
substrate
100
AcDbPolyline
 90
2044
 70
1
 43
0.5
 10
0.0
 20
-0.0
 10
0.0
 20
-9.91015625
 10
0.0
 20
-19.8203125
 10
0.0
 20
-29.73046875
 10
0.0
 20
-39.640625
 10
0.0
 20
-49.55078125
 10
0.0
 20
-59.4609375
 10
0.0
 20
-69.37109375
 10
0.0
 20
-79.28125
 10
0.0
 20
-89.19140625
 10
0.0
 20
-99.1015625
 10
0.0
 20
-109.01171875
 10
0.0
 20
-118.921875
 10
0.0
 20
-128.83203125
 10
0.0
 20
-138.7421875
 10
0.0
 20
-148.65234375
 10
0.0
 20
-158.5625
 10
0.0
 20
-168.47265625
 10
0.0
 20
-178.3828125
 10
0.0
 20
-188.29296875
 10
0.0
 20
-198.203125
 10
0.0
 20
-208.11328125
 10
0.0
 20
-218.0234375
 10
0.0
 20
-227.93359375
 10
0.0
 20
-237.84375
 10
0.0
 20
-247.75390625
 10
0.0
 20
-257.6640625
 10
0.0
 20
-267.57421875
 10
0.0
 20
-277.484375
 10
0.0
 20
-287.39453125
 10
0.0
 20
-297.3046875
 10
0.0
 20
-307.21484375
 10
0.0
 20
-317.125
 10
0.0
 20
-327.03515625
 10
0.0
 20
-336.9453125
 10
0.0
 20
-346.85546875
 10
0.0
 20
-356.765625
 10
0.0
 20
-366.67578125
 10
0.0
 20
-376.5859375
 10
0.0
 20
-386.49609375
 10
0.0
 20
-396.40625
 10
0.0
 20
-406.31640625
 10
0.0
 20
-416.2265625
 10
0.0
 20
-426.13671875
 10
0.0
 20
-436.046875
 10
0.0
 20
-445.95703125
 10
0.0
 20
-455.8671875
 10
0.0
 20
-465.77734375
 10
0.0
 20
-475.6875
 10
0.0
 20
-485.59765625
 10
0.0
 20
-495.5078125
 10
0.0
 20
-505.41796875
 10
0.0
 20
-515.328125
 10
0.0
 20
-525.23828125
 10
0.0
 20
-535.1484375
 10
0.0
 20
-545.05859375
 10
0.0
 20
-554.96875
 10
0.0
 20
-564.87890625
 10
0.0
 20
-574.7890625
 10
0.0
 20
-584.69921875
 10
0.0
 20
-594.609375
 10
0.0
 20
-604.51953125
 10
0.0
 20
-614.4296875
 10
0.0
 20
-624.33984375
 10
0.0
 20
-634.25
 10
0.0
 20
-644.16015625
 10
0.0
 20
-654.0703125
 10
0.0
 20
-663.98046875
 10
0.0
 20
-673.890625
 10
0.0
 20
-683.80078125
 10
0.0
 20
-693.7109375
 10
0.0
 20
-703.62109375
 10
0.0
 20
-713.53125
 10
0.0
 20
-723.44140625
 10
0.0
 20
-733.3515625
 10
0.0
 20
-743.26171875
 10
0.0
 20
-753.171875
 10
0.0
 20
-763.08203125
 10
0.0
 20
-772.9921875
 10
0.0
 20
-782.90234375
 10
0.0
 20
-792.8125
 10
0.0
 20
-802.72265625
 10
0.0
 20
-812.6328125
 10
0.0
 20
-822.54296875
 10
0.0
 20
-832.453125
 10
0.0
 20
-842.36328125
 10
0.0
 20
-852.2734375
 10
0.0
 20
-862.18359375
 10
0.0
 20
-872.09375
 10
0.0
 20
-882.00390625
 10
0.0
 20
-891.9140625
 10
0.0
 20
-901.82421875
 10
0.0
 20
-911.734375
 10
0.0
 20
-921.64453125
 10
0.0
 20
-931.5546875
 10
0.0
 20
-941.46484375
 10
0.0
 20
-951.375
 10
0.0
 20
-961.28515625
 10
0.0
 20
-971.1953125
 10
0.0
 20
-981.10546875
 10
0.0
 20
-991.015625
 10
0.0
 20
-1000.92578125
 10
0.0
 20
-1010.8359375
 10
0.0
 20
-1020.74609375
 10
0.0
 20
-1030.65625
 10
0.0
 20
-1040.56640625
 10
0.0
 20
-1050.4765625
 10
0.0
 20
-1060.38671875
 10
0.0
 20
-1070.296875
 10
0.0
 20
-1080.20703125
 10
0.0
 20
-1090.1171875
 10
0.0
 20
-1100.02734375
 10
0.0
 20
-1109.9375
 10
0.0
 20
-1119.84765625
 10
0.0
 20
-1129.7578125
 10
0.0
 20
-1139.66796875
 10
0.0
 20
-1149.578125
 10
0.0
 20
-1159.48828125
 10
0.0
 20
-1169.3984375
 10
0.0
 20
-1179.30859375
 10
0.0
 20
-1189.21875
 10
0.0
 20
-1199.12890625
 10
0.0
 20
-1209.0390625
 10
0.0
 20
-1218.94921875
 10
0.0
 20
-1228.859375
 10
0.0
 20
-1238.76953125
 10
0.0
 20
-1248.6796875
 10
0.0
 20
-1258.58984375
 10
0.0
 20
-1268.5
 10
0.0
 20
-1278.41015625
 10
0.0
 20
-1288.3203125
 10
0.0
 20
-1298.23046875
 10
0.0
 20
-1308.140625
 10
0.0
 20
-1318.05078125
 10
0.0
 20
-1327.9609375
 10
0.0
 20
-1337.87109375
 10
0.0
 20
-1347.78125
 10
0.0
 20
-1357.69140625
 10
0.0
 20
-1367.6015625
 10
0.0
 20
-1377.51171875
 10
0.0
 20
-1387.421875
 10
0.0
 20
-1397.33203125
 10
0.0
 20
-1407.2421875
 10
0.0
 20
-1417.15234375
 10
0.0
 20
-1427.0625
 10
0.0
 20
-1436.97265625
 10
0.0
 20
-1446.8828125
 10
0.0
 20
-1456.79296875
 10
0.0
 20
-1466.703125
 10
0.0
 20
-1476.61328125
 10
0.0
 20
-1486.5234375
 10
0.0
 20
-1496.43359375
 10
0.0
 20
-1506.34375
 10
0.0
 20
-1516.25390625
 10
0.0
 20
-1526.1640625
 10
0.0
 20
-1536.07421875
 10
0.0
 20
-1545.984375
 10
0.0
 20
-1555.89453125
 10
0.0
 20
-1565.8046875
 10
0.0
 20
-1575.71484375
 10
0.0
 20
-1585.625
 10
0.0
 20
-1595.53515625
 10
0.0
 20
-1605.4453125
 10
0.0
 20
-1615.35546875
 10
0.0
 20
-1625.265625
 10
0.0
 20
-1635.17578125
 10
0.0
 20
-1645.0859375
 10
0.0
 20
-1654.99609375
 10
0.0
 20
-1664.90625
 10
0.0
 20
-1674.81640625
 10
0.0
 20
-1684.7265625
 10
0.0
 20
-1694.63671875
 10
0.0
 20
-1704.546875
 10
0.0
 20
-1714.45703125
 10
0.0
 20
-1724.3671875
 10
0.0
 20
-1734.27734375
 10
0.0
 20
-1744.1875
 10
0.0
 20
-1754.09765625
 10
0.0
 20
-1764.0078125
 10
0.0
 20
-1773.91796875
 10
0.0
 20
-1783.828125
 10
0.0
 20
-1793.73828125
 10
0.0
 20
-1803.6484375
 10
0.0
 20
-1813.55859375
 10
0.0
 20
-1823.46875
 10
0.0
 20
-1833.37890625
 10
0.0
 20
-1843.2890625
 10
0.0
 20
-1853.19921875
 10
0.0
 20
-1863.109375
 10
0.0
 20
-1873.01953125
 10
0.0
 20
-1882.9296875
 10
0.0
 20
-1892.83984375
 10
0.0
 20
-1902.75
 10
0.0
 20
-1912.66015625
 10
0.0
 20
-1922.5703125
 10
0.0
 20
-1932.48046875
 10
0.0
 20
-1942.390625
 10
0.0
 20
-1952.30078125
 10
0.0
 20
-1962.2109375
 10
0.0
 20
-1972.12109375
 10
0.0
 20
-1982.03125
 10
0.0
 20
-1991.94140625
 10
0.0
 20
-2001.8515625
 10
0.0
 20
-2011.76171875
 10
0.0
 20
-2021.671875
 10
0.0
 20
-2031.58203125
 10
0.0
 20
-2041.4921875
 10
0.0
 20
-2051.40234375
 10
0.0
 20
-2061.3125
 10
0.0
 20
-2071.22265625
 10
0.0
 20
-2081.1328125
 10
0.0
 20
-2091.04296875
 10
0.0
 20
-2100.953125
 10
0.0
 20
-2110.86328125
 10
0.0
 20
-2120.7734375
 10
0.0
 20
-2130.68359375
 10
0.0
 20
-2140.59375
 10
0.0
 20
-2150.50390625
 10
0.0
 20
-2160.4140625
 10
0.0
 20
-2170.32421875
 10
0.0
 20
-2180.234375
 10
0.0
 20
-2190.14453125
 10
0.0
 20
-2200.0546875
 10
0.0
 20
-2209.96484375
 10
0.0
 20
-2219.875
 10
0.0
 20
-2229.78515625
 10
0.0
 20
-2239.6953125
 10
0.0
 20
-2249.60546875
 10
0.0
 20
-2259.515625
 10
0.0
 20
-2269.42578125
 10
0.0
 20
-2279.3359375
 10
0.0
 20
-2289.24609375
 10
0.0
 20
-2299.15625
 10
0.0
 20
-2309.06640625
 10
0.0
 20
-2318.9765625
 10
0.0
 20
-2328.88671875
 10
0.0
 20
-2338.796875
 10
0.0
 20
-2348.70703125
 10
0.0
 20
-2358.6171875
 10
0.0
 20
-2368.52734375
 10
0.0
 20
-2378.4375
 10
0.0
 20
-2388.34765625
 10
0.0
 20
-2398.2578125
 10
0.0
 20
-2408.16796875
 10
0.0
 20
-2418.078125
 10
0.0
 20
-2427.98828125
 10
0.0
 20
-2437.8984375
 10
0.0
 20
-2447.80859375
 10
0.0
 20
-2457.71875
 10
0.0
 20
-2467.62890625
 10
0.0
 20
-2477.5390625
 10
0.0
 20
-2487.44921875
 10
0.0
 20
-2497.359375
 10
0.0
 20
-2507.26953125
 10
0.0
 20
-2517.1796875
 10
0.0
 20
-2527.08984375
 10
0.0
 20
-2537.0
 10
0.0
 20
-2546.91015625
 10
0.0
 20
-2556.8203125
 10
0.0
 20
-2566.73046875
 10
0.0
 20
-2576.640625
 10
0.0
 20
-2586.55078125
 10
0.0
 20
-2596.4609375
 10
0.0
 20
-2606.37109375
 10
0.0
 20
-2616.28125
 10
0.0
 20
-2626.19140625
 10
0.0
 20
-2636.1015625
 10
0.0
 20
-2646.01171875
 10
0.0
 20
-2655.921875
 10
0.0
 20
-2665.83203125
 10
0.0
 20
-2675.7421875
 10
0.0
 20
-2685.65234375
 10
0.0
 20
-2695.5625
 10
0.0
 20
-2705.47265625
 10
0.0
 20
-2715.3828125
 10
0.0
 20
-2725.29296875
 10
0.0
 20
-2735.203125
 10
0.0
 20
-2745.11328125
 10
0.0
 20
-2755.0234375
 10
0.0
 20
-2764.93359375
 10
0.0
 20
-2774.84375
 10
0.0
 20
-2784.75390625
 10
0.0
 20
-2794.6640625
 10
0.0
 20
-2804.57421875
 10
0.0
 20
-2814.484375
 10
0.0
 20
-2824.39453125
 10
0.0
 20
-2834.3046875
 10
0.0
 20
-2844.21484375
 10
0.0
 20
-2854.125
 10
0.0
 20
-2864.03515625
 10
0.0
 20
-2873.9453125
 10
0.0
 20
-2883.85546875
 10
0.0
 20
-2893.765625
 10
0.0
 20
-2903.67578125
 10
0.0
 20
-2913.5859375
 10
0.0
 20
-2923.49609375
 10
0.0
 20
-2933.40625
 10
0.0
 20
-2943.31640625
 10
0.0
 20
-2953.2265625
 10
0.0
 20
-2963.13671875
 10
0.0
 20
-2973.046875
 10
0.0
 20
-2982.95703125
 10
0.0
 20
-2992.8671875
 10
0.0
 20
-3002.77734375
 10
0.0
 20
-3012.6875
 10
0.0
 20
-3022.59765625
 10
0.0
 20
-3032.5078125
 10
0.0
 20
-3042.41796875
 10
0.0
 20
-3052.328125
 10
0.0
 20
-3062.23828125
 10
0.0
 20
-3072.1484375
 10
0.0
 20
-3082.05859375
 10
0.0
 20
-3091.96875
 10
0.0
 20
-3101.87890625
 10
0.0
 20
-3111.7890625
 10
0.0
 20
-3121.69921875
 10
0.0
 20
-3131.609375
 10
0.0
 20
-3141.51953125
 10
0.0
 20
-3151.4296875
 10
0.0
 20
-3161.33984375
 10
0.0
 20
-3171.25
 10
0.0
 20
-3181.16015625
 10
0.0
 20
-3191.0703125
 10
0.0
 20
-3200.98046875
 10
0.0
 20
-3210.890625
 10
0.0
 20
-3220.80078125
 10
0.0
 20
-3230.7109375
 10
0.0
 20
-3240.62109375
 10
0.0
 20
-3250.53125
 10
0.0
 20
-3260.44140625
 10
0.0
 20
-3270.3515625
 10
0.0
 20
-3280.26171875
 10
0.0
 20
-3290.171875
 10
0.0
 20
-3300.08203125
 10
0.0
 20
-3309.9921875
 10
0.0
 20
-3319.90234375
 10
0.0
 20
-3329.8125
 10
0.0
 20
-3339.72265625
 10
0.0
 20
-3349.6328125
 10
0.0
 20
-3359.54296875
 10
0.0
 20
-3369.453125
 10
0.0
 20
-3379.36328125
 10
0.0
 20
-3389.2734375
 10
0.0
 20
-3399.18359375
 10
0.0
 20
-3409.09375
 10
0.0
 20
-3419.00390625
 10
0.0
 20
-3428.9140625
 10
0.0
 20
-3438.82421875
 10
0.0
 20
-3448.734375
 10
0.0
 20
-3458.64453125
 10
0.0
 20
-3468.5546875
 10
0.0
 20
-3478.46484375
 10
0.0
 20
-3488.375
 10
0.0
 20
-3498.28515625
 10
0.0
 20
-3508.1953125
 10
0.0
 20
-3518.10546875
 10
0.0
 20
-3528.015625
 10
0.0
 20
-3537.92578125
 10
0.0
 20
-3547.8359375
 10
0.0
 20
-3557.74609375
 10
0.0
 20
-3567.65625
 10
0.0
 20
-3577.56640625
 10
0.0
 20
-3587.4765625
 10
0.0
 20
-3597.38671875
 10
0.0
 20
-3607.296875
 10
0.0
 20
-3617.20703125
 10
0.0
 20
-3627.1171875
 10
0.0
 20
-3637.02734375
 10
0.0
 20
-3646.9375
 10
0.0
 20
-3656.84765625
 10
0.0
 20
-3666.7578125
 10
0.0
 20
-3676.66796875
 10
0.0
 20
-3686.578125
 10
0.0
 20
-3696.48828125
 10
0.0
 20
-3706.3984375
 10
0.0
 20
-3716.30859375
 10
0.0
 20
-3726.21875
 10
0.0
 20
-3736.12890625
 10
0.0
 20
-3746.0390625
 10
0.0
 20
-3755.94921875
 10
0.0
 20
-3765.859375
 10
0.0
 20
-3775.76953125
 10
0.0
 20
-3785.6796875
 10
0.0
 20
-3795.58984375
 10
0.0
 20
-3805.5
 10
0.0
 20
-3815.41015625
 10
0.0
 20
-3825.3203125
 10
0.0
 20
-3835.23046875
 10
0.0
 20
-3845.140625
 10
0.0
 20
-3855.05078125
 10
0.0
 20
-3864.9609375
 10
0.0
 20
-3874.87109375
 10
0.0
 20
-3884.78125
 10
0.0
 20
-3894.69140625
 10
0.0
 20
-3904.6015625
 10
0.0
 20
-3914.51171875
 10
0.0
 20
-3924.421875
 10
0.0
 20
-3934.33203125
 10
0.0
 20
-3944.2421875
 10
0.0
 20
-3954.15234375
 10
0.0
 20
-3964.0625
 10
0.0
 20
-3973.97265625
 10
0.0
 20
-3983.8828125
 10
0.0
 20
-3993.79296875
 10
0.0
 20
-4003.703125
 10
0.0
 20
-4013.61328125
 10
0.0
 20
-4023.5234375
 10
0.0
 20
-4033.43359375
 10
0.0
 20
-4043.34375
 10
0.0
 20
-4053.25390625
 10
0.0
 20
-4063.1640625
 10
0.0
 20
-4073.07421875
 10
0.0
 20
-4082.984375
 10
0.0
 20
-4092.89453125
 10
0.0
 20
-4102.8046875
 10
0.0
 20
-4112.71484375
 10
0.0
 20
-4122.625
 10
0.0
 20
-4132.53515625
 10
0.0
 20
-4142.4453125
 10
0.0
 20
-4152.35546875
 10
0.0
 20
-4162.265625
 10
0.0
 20
-4172.17578125
 10
0.0
 20
-4182.0859375
 10
0.0
 20
-4191.99609375
 10
0.0
 20
-4201.90625
 10
0.0
 20
-4211.81640625
 10
0.0
 20
-4221.7265625
 10
0.0
 20
-4231.63671875
 10
0.0
 20
-4241.546875
 10
0.0
 20
-4251.45703125
 10
0.0
 20
-4261.3671875
 10
0.0
 20
-4271.27734375
 10
0.0
 20
-4281.1875
 10
0.0
 20
-4291.09765625
 10
0.0
 20
-4301.0078125
 10
0.0
 20
-4310.91796875
 10
0.0
 20
-4320.828125
 10
0.0
 20
-4330.73828125
 10
0.0
 20
-4340.6484375
 10
0.0
 20
-4350.55859375
 10
0.0
 20
-4360.46875
 10
0.0
 20
-4370.37890625
 10
0.0
 20
-4380.2890625
 10
0.0
 20
-4390.19921875
 10
0.0
 20
-4400.109375
 10
0.0
 20
-4410.01953125
 10
0.0
 20
-4419.9296875
 10
0.0
 20
-4429.83984375
 10
0.0
 20
-4439.75
 10
0.0
 20
-4449.66015625
 10
0.0
 20
-4459.5703125
 10
0.0
 20
-4469.48046875
 10
0.0
 20
-4479.390625
 10
0.0
 20
-4489.30078125
 10
0.0
 20
-4499.2109375
 10
0.0
 20
-4509.12109375
 10
0.0
 20
-4519.03125
 10
0.0
 20
-4528.94140625
 10
0.0
 20
-4538.8515625
 10
0.0
 20
-4548.76171875
 10
0.0
 20
-4558.671875
 10
0.0
 20
-4568.58203125
 10
0.0
 20
-4578.4921875
 10
0.0
 20
-4588.40234375
 10
0.0
 20
-4598.3125
 10
0.0
 20
-4608.22265625
 10
0.0
 20
-4618.1328125
 10
0.0
 20
-4628.04296875
 10
0.0
 20
-4637.953125
 10
0.0
 20
-4647.86328125
 10
0.0
 20
-4657.7734375
 10
0.0
 20
-4667.68359375
 10
0.0
 20
-4677.59375
 10
0.0
 20
-4687.50390625
 10
0.0
 20
-4697.4140625
 10
0.0
 20
-4707.32421875
 10
0.0
 20
-4717.234375
 10
0.0
 20
-4727.14453125
 10
0.0
 20
-4737.0546875
 10
0.0
 20
-4746.96484375
 10
0.0
 20
-4756.875
 10
0.0
 20
-4766.78515625
 10
0.0
 20
-4776.6953125
 10
0.0
 20
-4786.60546875
 10
0.0
 20
-4796.515625
 10
0.0
 20
-4806.42578125
 10
0.0
 20
-4816.3359375
 10
0.0
 20
-4826.24609375
 10
0.0
 20
-4836.15625
 10
0.0
 20
-4846.06640625
 10
0.0
 20
-4855.9765625
 10
0.0
 20
-4865.88671875
 10
0.0
 20
-4875.796875
 10
0.0
 20
-4885.70703125
 10
0.0
 20
-4895.6171875
 10
0.0
 20
-4905.52734375
 10
0.0
 20
-4915.4375
 10
0.0
 20
-4925.34765625
 10
0.0
 20
-4935.2578125
 10
0.0
 20
-4945.16796875
 10
0.0
 20
-4955.078125
 10
0.0
 20
-4964.98828125
 10
0.0
 20
-4974.8984375
 10
0.0
 20
-4984.80859375
 10
0.0
 20
-4994.71875
 10
0.0
 20
-5004.62890625
 10
0.0
 20
-5014.5390625
 10
0.0
 20
-5024.44921875
 10
0.0
 20
-5034.359375
 10
0.0
 20
-5044.26953125
 10
0.0
 20
-5054.1796875
 10
0.0
 20
-5064.08984375
 10
9.91015625
 20
-5064.08984375
 10
19.8203125
 20
-5064.08984375
 10
29.73046875
 20
-5064.08984375
 10
39.640625
 20
-5064.08984375
 10
49.55078125
 20
-5064.08984375
 10
59.4609375
 20
-5064.08984375
 10
69.37109375
 20
-5064.08984375
 10
79.28125
 20
-5064.08984375
 10
89.19140625
 20
-5064.08984375
 10
99.1015625
 20
-5064.08984375
 10
109.01171875
 20
-5064.08984375
 10
118.921875
 20
-5064.08984375
 10
128.83203125
 20
-5064.08984375
 10
138.7421875
 20
-5064.08984375
 10
148.65234375
 20
-5064.08984375
 10
158.5625
 20
-5064.08984375
 10
168.47265625
 20
-5064.08984375
 10
178.3828125
 20
-5064.08984375
 10
188.29296875
 20
-5064.08984375
 10
198.203125
 20
-5064.08984375
 10
208.11328125
 20
-5064.08984375
 10
218.0234375
 20
-5064.08984375
 10
227.93359375
 20
-5064.08984375
 10
237.84375
 20
-5064.08984375
 10
247.75390625
 20
-5064.08984375
 10
257.6640625
 20
-5064.08984375
 10
267.57421875
 20
-5064.08984375
 10
277.484375
 20
-5064.08984375
 10
287.39453125
 20
-5064.08984375
 10
297.3046875
 20
-5064.08984375
 10
307.21484375
 20
-5064.08984375
 10
317.125
 20
-5064.08984375
 10
327.03515625
 20
-5064.08984375
 10
336.9453125
 20
-5064.08984375
 10
346.85546875
 20
-5064.08984375
 10
356.765625
 20
-5064.08984375
 10
366.67578125
 20
-5064.08984375
 10
376.5859375
 20
-5064.08984375
 10
386.49609375
 20
-5064.08984375
 10
396.40625
 20
-5064.08984375
 10
406.31640625
 20
-5064.08984375
 10
416.2265625
 20
-5064.08984375
 10
426.13671875
 20
-5064.08984375
 10
436.046875
 20
-5064.08984375
 10
445.95703125
 20
-5064.08984375
 10
455.8671875
 20
-5064.08984375
 10
465.77734375
 20
-5064.08984375
 10
475.6875
 20
-5064.08984375
 10
485.59765625
 20
-5064.08984375
 10
495.5078125
 20
-5064.08984375
 10
505.41796875
 20
-5064.08984375
 10
515.328125
 20
-5064.08984375
 10
525.23828125
 20
-5064.08984375
 10
535.1484375
 20
-5064.08984375
 10
545.05859375
 20
-5064.08984375
 10
554.96875
 20
-5064.08984375
 10
564.87890625
 20
-5064.08984375
 10
574.7890625
 20
-5064.08984375
 10
584.69921875
 20
-5064.08984375
 10
594.609375
 20
-5064.08984375
 10
604.51953125
 20
-5064.08984375
 10
614.4296875
 20
-5064.08984375
 10
624.33984375
 20
-5064.08984375
 10
634.25
 20
-5064.08984375
 10
644.16015625
 20
-5064.08984375
 10
654.0703125
 20
-5064.08984375
 10
663.98046875
 20
-5064.08984375
 10
673.890625
 20
-5064.08984375
 10
683.80078125
 20
-5064.08984375
 10
693.7109375
 20
-5064.08984375
 10
703.62109375
 20
-5064.08984375
 10
713.53125
 20
-5064.08984375
 10
723.44140625
 20
-5064.08984375
 10
733.3515625
 20
-5064.08984375
 10
743.26171875
 20
-5064.08984375
 10
753.171875
 20
-5064.08984375
 10
763.08203125
 20
-5064.08984375
 10
772.9921875
 20
-5064.08984375
 10
782.90234375
 20
-5064.08984375
 10
792.8125
 20
-5064.08984375
 10
802.72265625
 20
-5064.08984375
 10
812.6328125
 20
-5064.08984375
 10
822.54296875
 20
-5064.08984375
 10
832.453125
 20
-5064.08984375
 10
842.36328125
 20
-5064.08984375
 10
852.2734375
 20
-5064.08984375
 10
862.18359375
 20
-5064.08984375
 10
872.09375
 20
-5064.08984375
 10
882.00390625
 20
-5064.08984375
 10
891.9140625
 20
-5064.08984375
 10
901.82421875
 20
-5064.08984375
 10
911.734375
 20
-5064.08984375
 10
921.64453125
 20
-5064.08984375
 10
931.5546875
 20
-5064.08984375
 10
941.46484375
 20
-5064.08984375
 10
951.375
 20
-5064.08984375
 10
961.28515625
 20
-5064.08984375
 10
971.1953125
 20
-5064.08984375
 10
981.10546875
 20
-5064.08984375
 10
991.015625
 20
-5064.08984375
 10
1000.92578125
 20
-5064.08984375
 10
1010.8359375
 20
-5064.08984375
 10
1020.74609375
 20
-5064.08984375
 10
1030.65625
 20
-5064.08984375
 10
1040.56640625
 20
-5064.08984375
 10
1050.4765625
 20
-5064.08984375
 10
1060.38671875
 20
-5064.08984375
 10
1070.296875
 20
-5064.08984375
 10
1080.20703125
 20
-5064.08984375
 10
1090.1171875
 20
-5064.08984375
 10
1100.02734375
 20
-5064.08984375
 10
1109.9375
 20
-5064.08984375
 10
1119.84765625
 20
-5064.08984375
 10
1129.7578125
 20
-5064.08984375
 10
1139.66796875
 20
-5064.08984375
 10
1149.578125
 20
-5064.08984375
 10
1159.48828125
 20
-5064.08984375
 10
1169.3984375
 20
-5064.08984375
 10
1179.30859375
 20
-5064.08984375
 10
1189.21875
 20
-5064.08984375
 10
1199.12890625
 20
-5064.08984375
 10
1209.0390625
 20
-5064.08984375
 10
1218.94921875
 20
-5064.08984375
 10
1228.859375
 20
-5064.08984375
 10
1238.76953125
 20
-5064.08984375
 10
1248.6796875
 20
-5064.08984375
 10
1258.58984375
 20
-5064.08984375
 10
1268.5
 20
-5064.08984375
 10
1278.41015625
 20
-5064.08984375
 10
1288.3203125
 20
-5064.08984375
 10
1298.23046875
 20
-5064.08984375
 10
1308.140625
 20
-5064.08984375
 10
1318.05078125
 20
-5064.08984375
 10
1327.9609375
 20
-5064.08984375
 10
1337.87109375
 20
-5064.08984375
 10
1347.78125
 20
-5064.08984375
 10
1357.69140625
 20
-5064.08984375
 10
1367.6015625
 20
-5064.08984375
 10
1377.51171875
 20
-5064.08984375
 10
1387.421875
 20
-5064.08984375
 10
1397.33203125
 20
-5064.08984375
 10
1407.2421875
 20
-5064.08984375
 10
1417.15234375
 20
-5064.08984375
 10
1427.0625
 20
-5064.08984375
 10
1436.97265625
 20
-5064.08984375
 10
1446.8828125
 20
-5064.08984375
 10
1456.79296875
 20
-5064.08984375
 10
1466.703125
 20
-5064.08984375
 10
1476.61328125
 20
-5064.08984375
 10
1486.5234375
 20
-5064.08984375
 10
1496.43359375
 20
-5064.08984375
 10
1506.34375
 20
-5064.08984375
 10
1516.25390625
 20
-5064.08984375
 10
1526.1640625
 20
-5064.08984375
 10
1536.07421875
 20
-5064.08984375
 10
1545.984375
 20
-5064.08984375
 10
1555.89453125
 20
-5064.08984375
 10
1565.8046875
 20
-5064.08984375
 10
1575.71484375
 20
-5064.08984375
 10
1585.625
 20
-5064.08984375
 10
1595.53515625
 20
-5064.08984375
 10
1605.4453125
 20
-5064.08984375
 10
1615.35546875
 20
-5064.08984375
 10
1625.265625
 20
-5064.08984375
 10
1635.17578125
 20
-5064.08984375
 10
1645.0859375
 20
-5064.08984375
 10
1654.99609375
 20
-5064.08984375
 10
1664.90625
 20
-5064.08984375
 10
1674.81640625
 20
-5064.08984375
 10
1684.7265625
 20
-5064.08984375
 10
1694.63671875
 20
-5064.08984375
 10
1704.546875
 20
-5064.08984375
 10
1714.45703125
 20
-5064.08984375
 10
1724.3671875
 20
-5064.08984375
 10
1734.27734375
 20
-5064.08984375
 10
1744.1875
 20
-5064.08984375
 10
1754.09765625
 20
-5064.08984375
 10
1764.0078125
 20
-5064.08984375
 10
1773.91796875
 20
-5064.08984375
 10
1783.828125
 20
-5064.08984375
 10
1793.73828125
 20
-5064.08984375
 10
1803.6484375
 20
-5064.08984375
 10
1813.55859375
 20
-5064.08984375
 10
1823.46875
 20
-5064.08984375
 10
1833.37890625
 20
-5064.08984375
 10
1843.2890625
 20
-5064.08984375
 10
1853.19921875
 20
-5064.08984375
 10
1863.109375
 20
-5064.08984375
 10
1873.01953125
 20
-5064.08984375
 10
1882.9296875
 20
-5064.08984375
 10
1892.83984375
 20
-5064.08984375
 10
1902.75
 20
-5064.08984375
 10
1912.66015625
 20
-5064.08984375
 10
1922.5703125
 20
-5064.08984375
 10
1932.48046875
 20
-5064.08984375
 10
1942.390625
 20
-5064.08984375
 10
1952.30078125
 20
-5064.08984375
 10
1962.2109375
 20
-5064.08984375
 10
1972.12109375
 20
-5064.08984375
 10
1982.03125
 20
-5064.08984375
 10
1991.94140625
 20
-5064.08984375
 10
2001.8515625
 20
-5064.08984375
 10
2011.76171875
 20
-5064.08984375
 10
2021.671875
 20
-5064.08984375
 10
2031.58203125
 20
-5064.08984375
 10
2041.4921875
 20
-5064.08984375
 10
2051.40234375
 20
-5064.08984375
 10
2061.3125
 20
-5064.08984375
 10
2071.22265625
 20
-5064.08984375
 10
2081.1328125
 20
-5064.08984375
 10
2091.04296875
 20
-5064.08984375
 10
2100.953125
 20
-5064.08984375
 10
2110.86328125
 20
-5064.08984375
 10
2120.7734375
 20
-5064.08984375
 10
2130.68359375
 20
-5064.08984375
 10
2140.59375
 20
-5064.08984375
 10
2150.50390625
 20
-5064.08984375
 10
2160.4140625
 20
-5064.08984375
 10
2170.32421875
 20
-5064.08984375
 10
2180.234375
 20
-5064.08984375
 10
2190.14453125
 20
-5064.08984375
 10
2200.0546875
 20
-5064.08984375
 10
2209.96484375
 20
-5064.08984375
 10
2219.875
 20
-5064.08984375
 10
2229.78515625
 20
-5064.08984375
 10
2239.6953125
 20
-5064.08984375
 10
2249.60546875
 20
-5064.08984375
 10
2259.515625
 20
-5064.08984375
 10
2269.42578125
 20
-5064.08984375
 10
2279.3359375
 20
-5064.08984375
 10
2289.24609375
 20
-5064.08984375
 10
2299.15625
 20
-5064.08984375
 10
2309.06640625
 20
-5064.08984375
 10
2318.9765625
 20
-5064.08984375
 10
2328.88671875
 20
-5064.08984375
 10
2338.796875
 20
-5064.08984375
 10
2348.70703125
 20
-5064.08984375
 10
2358.6171875
 20
-5064.08984375
 10
2368.52734375
 20
-5064.08984375
 10
2378.4375
 20
-5064.08984375
 10
2388.34765625
 20
-5064.08984375
 10
2398.2578125
 20
-5064.08984375
 10
2408.16796875
 20
-5064.08984375
 10
2418.078125
 20
-5064.08984375
 10
2427.98828125
 20
-5064.08984375
 10
2437.8984375
 20
-5064.08984375
 10
2447.80859375
 20
-5064.08984375
 10
2457.71875
 20
-5064.08984375
 10
2467.62890625
 20
-5064.08984375
 10
2477.5390625
 20
-5064.08984375
 10
2487.44921875
 20
-5064.08984375
 10
2497.359375
 20
-5064.08984375
 10
2507.26953125
 20
-5064.08984375
 10
2517.1796875
 20
-5064.08984375
 10
2527.08984375
 20
-5064.08984375
 10
2537.0
 20
-5064.08984375
 10
2546.91015625
 20
-5064.08984375
 10
2556.8203125
 20
-5064.08984375
 10
2566.73046875
 20
-5064.08984375
 10
2576.640625
 20
-5064.08984375
 10
2586.55078125
 20
-5064.08984375
 10
2596.4609375
 20
-5064.08984375
 10
2606.37109375
 20
-5064.08984375
 10
2616.28125
 20
-5064.08984375
 10
2626.19140625
 20
-5064.08984375
 10
2636.1015625
 20
-5064.08984375
 10
2646.01171875
 20
-5064.08984375
 10
2655.921875
 20
-5064.08984375
 10
2665.83203125
 20
-5064.08984375
 10
2675.7421875
 20
-5064.08984375
 10
2685.65234375
 20
-5064.08984375
 10
2695.5625
 20
-5064.08984375
 10
2705.47265625
 20
-5064.08984375
 10
2715.3828125
 20
-5064.08984375
 10
2725.29296875
 20
-5064.08984375
 10
2735.203125
 20
-5064.08984375
 10
2745.11328125
 20
-5064.08984375
 10
2755.0234375
 20
-5064.08984375
 10
2764.93359375
 20
-5064.08984375
 10
2774.84375
 20
-5064.08984375
 10
2784.75390625
 20
-5064.08984375
 10
2794.6640625
 20
-5064.08984375
 10
2804.57421875
 20
-5064.08984375
 10
2814.484375
 20
-5064.08984375
 10
2824.39453125
 20
-5064.08984375
 10
2834.3046875
 20
-5064.08984375
 10
2844.21484375
 20
-5064.08984375
 10
2854.125
 20
-5064.08984375
 10
2864.03515625
 20
-5064.08984375
 10
2873.9453125
 20
-5064.08984375
 10
2883.85546875
 20
-5064.08984375
 10
2893.765625
 20
-5064.08984375
 10
2903.67578125
 20
-5064.08984375
 10
2913.5859375
 20
-5064.08984375
 10
2923.49609375
 20
-5064.08984375
 10
2933.40625
 20
-5064.08984375
 10
2943.31640625
 20
-5064.08984375
 10
2953.2265625
 20
-5064.08984375
 10
2963.13671875
 20
-5064.08984375
 10
2973.046875
 20
-5064.08984375
 10
2982.95703125
 20
-5064.08984375
 10
2992.8671875
 20
-5064.08984375
 10
3002.77734375
 20
-5064.08984375
 10
3012.6875
 20
-5064.08984375
 10
3022.59765625
 20
-5064.08984375
 10
3032.5078125
 20
-5064.08984375
 10
3042.41796875
 20
-5064.08984375
 10
3052.328125
 20
-5064.08984375
 10
3062.23828125
 20
-5064.08984375
 10
3072.1484375
 20
-5064.08984375
 10
3082.05859375
 20
-5064.08984375
 10
3091.96875
 20
-5064.08984375
 10
3101.87890625
 20
-5064.08984375
 10
3111.7890625
 20
-5064.08984375
 10
3121.69921875
 20
-5064.08984375
 10
3131.609375
 20
-5064.08984375
 10
3141.51953125
 20
-5064.08984375
 10
3151.4296875
 20
-5064.08984375
 10
3161.33984375
 20
-5064.08984375
 10
3171.25
 20
-5064.08984375
 10
3181.16015625
 20
-5064.08984375
 10
3191.0703125
 20
-5064.08984375
 10
3200.98046875
 20
-5064.08984375
 10
3210.890625
 20
-5064.08984375
 10
3220.80078125
 20
-5064.08984375
 10
3230.7109375
 20
-5064.08984375
 10
3240.62109375
 20
-5064.08984375
 10
3250.53125
 20
-5064.08984375
 10
3260.44140625
 20
-5064.08984375
 10
3270.3515625
 20
-5064.08984375
 10
3280.26171875
 20
-5064.08984375
 10
3290.171875
 20
-5064.08984375
 10
3300.08203125
 20
-5064.08984375
 10
3309.9921875
 20
-5064.08984375
 10
3319.90234375
 20
-5064.08984375
 10
3329.8125
 20
-5064.08984375
 10
3339.72265625
 20
-5064.08984375
 10
3349.6328125
 20
-5064.08984375
 10
3359.54296875
 20
-5064.08984375
 10
3369.453125
 20
-5064.08984375
 10
3379.36328125
 20
-5064.08984375
 10
3389.2734375
 20
-5064.08984375
 10
3399.18359375
 20
-5064.08984375
 10
3409.09375
 20
-5064.08984375
 10
3419.00390625
 20
-5064.08984375
 10
3428.9140625
 20
-5064.08984375
 10
3438.82421875
 20
-5064.08984375
 10
3448.734375
 20
-5064.08984375
 10
3458.64453125
 20
-5064.08984375
 10
3468.5546875
 20
-5064.08984375
 10
3478.46484375
 20
-5064.08984375
 10
3488.375
 20
-5064.08984375
 10
3498.28515625
 20
-5064.08984375
 10
3508.1953125
 20
-5064.08984375
 10
3518.10546875
 20
-5064.08984375
 10
3528.015625
 20
-5064.08984375
 10
3537.92578125
 20
-5064.08984375
 10
3547.8359375
 20
-5064.08984375
 10
3557.74609375
 20
-5064.08984375
 10
3567.65625
 20
-5064.08984375
 10
3577.56640625
 20
-5064.08984375
 10
3587.4765625
 20
-5064.08984375
 10
3597.38671875
 20
-5064.08984375
 10
3607.296875
 20
-5064.08984375
 10
3617.20703125
 20
-5064.08984375
 10
3627.1171875
 20
-5064.08984375
 10
3637.02734375
 20
-5064.08984375
 10
3646.9375
 20
-5064.08984375
 10
3656.84765625
 20
-5064.08984375
 10
3666.7578125
 20
-5064.08984375
 10
3676.66796875
 20
-5064.08984375
 10
3686.578125
 20
-5064.08984375
 10
3696.48828125
 20
-5064.08984375
 10
3706.3984375
 20
-5064.08984375
 10
3716.30859375
 20
-5064.08984375
 10
3726.21875
 20
-5064.08984375
 10
3736.12890625
 20
-5064.08984375
 10
3746.0390625
 20
-5064.08984375
 10
3755.94921875
 20
-5064.08984375
 10
3765.859375
 20
-5064.08984375
 10
3775.76953125
 20
-5064.08984375
 10
3785.6796875
 20
-5064.08984375
 10
3795.58984375
 20
-5064.08984375
 10
3805.5
 20
-5064.08984375
 10
3815.41015625
 20
-5064.08984375
 10
3825.3203125
 20
-5064.08984375
 10
3835.23046875
 20
-5064.08984375
 10
3845.140625
 20
-5064.08984375
 10
3855.05078125
 20
-5064.08984375
 10
3864.9609375
 20
-5064.08984375
 10
3874.87109375
 20
-5064.08984375
 10
3884.78125
 20
-5064.08984375
 10
3894.69140625
 20
-5064.08984375
 10
3904.6015625
 20
-5064.08984375
 10
3914.51171875
 20
-5064.08984375
 10
3924.421875
 20
-5064.08984375
 10
3934.33203125
 20
-5064.08984375
 10
3944.2421875
 20
-5064.08984375
 10
3954.15234375
 20
-5064.08984375
 10
3964.0625
 20
-5064.08984375
 10
3973.97265625
 20
-5064.08984375
 10
3983.8828125
 20
-5064.08984375
 10
3993.79296875
 20
-5064.08984375
 10
4003.703125
 20
-5064.08984375
 10
4013.61328125
 20
-5064.08984375
 10
4023.5234375
 20
-5064.08984375
 10
4033.43359375
 20
-5064.08984375
 10
4043.34375
 20
-5064.08984375
 10
4053.25390625
 20
-5064.08984375
 10
4063.1640625
 20
-5064.08984375
 10
4073.07421875
 20
-5064.08984375
 10
4082.984375
 20
-5064.08984375
 10
4092.89453125
 20
-5064.08984375
 10
4102.8046875
 20
-5064.08984375
 10
4112.71484375
 20
-5064.08984375
 10
4122.625
 20
-5064.08984375
 10
4132.53515625
 20
-5064.08984375
 10
4142.4453125
 20
-5064.08984375
 10
4152.35546875
 20
-5064.08984375
 10
4162.265625
 20
-5064.08984375
 10
4172.17578125
 20
-5064.08984375
 10
4182.0859375
 20
-5064.08984375
 10
4191.99609375
 20
-5064.08984375
 10
4201.90625
 20
-5064.08984375
 10
4211.81640625
 20
-5064.08984375
 10
4221.7265625
 20
-5064.08984375
 10
4231.63671875
 20
-5064.08984375
 10
4241.546875
 20
-5064.08984375
 10
4251.45703125
 20
-5064.08984375
 10
4261.3671875
 20
-5064.08984375
 10
4271.27734375
 20
-5064.08984375
 10
4281.1875
 20
-5064.08984375
 10
4291.09765625
 20
-5064.08984375
 10
4301.0078125
 20
-5064.08984375
 10
4310.91796875
 20
-5064.08984375
 10
4320.828125
 20
-5064.08984375
 10
4330.73828125
 20
-5064.08984375
 10
4340.6484375
 20
-5064.08984375
 10
4350.55859375
 20
-5064.08984375
 10
4360.46875
 20
-5064.08984375
 10
4370.37890625
 20
-5064.08984375
 10
4380.2890625
 20
-5064.08984375
 10
4390.19921875
 20
-5064.08984375
 10
4400.109375
 20
-5064.08984375
 10
4410.01953125
 20
-5064.08984375
 10
4419.9296875
 20
-5064.08984375
 10
4429.83984375
 20
-5064.08984375
 10
4439.75
 20
-5064.08984375
 10
4449.66015625
 20
-5064.08984375
 10
4459.5703125
 20
-5064.08984375
 10
4469.48046875
 20
-5064.08984375
 10
4479.390625
 20
-5064.08984375
 10
4489.30078125
 20
-5064.08984375
 10
4499.2109375
 20
-5064.08984375
 10
4509.12109375
 20
-5064.08984375
 10
4519.03125
 20
-5064.08984375
 10
4528.94140625
 20
-5064.08984375
 10
4538.8515625
 20
-5064.08984375
 10
4548.76171875
 20
-5064.08984375
 10
4558.671875
 20
-5064.08984375
 10
4568.58203125
 20
-5064.08984375
 10
4578.4921875
 20
-5064.08984375
 10
4588.40234375
 20
-5064.08984375
 10
4598.3125
 20
-5064.08984375
 10
4608.22265625
 20
-5064.08984375
 10
4618.1328125
 20
-5064.08984375
 10
4628.04296875
 20
-5064.08984375
 10
4637.953125
 20
-5064.08984375
 10
4647.86328125
 20
-5064.08984375
 10
4657.7734375
 20
-5064.08984375
 10
4667.68359375
 20
-5064.08984375
 10
4677.59375
 20
-5064.08984375
 10
4687.50390625
 20
-5064.08984375
 10
4697.4140625
 20
-5064.08984375
 10
4707.32421875
 20
-5064.08984375
 10
4717.234375
 20
-5064.08984375
 10
4727.14453125
 20
-5064.08984375
 10
4737.0546875
 20
-5064.08984375
 10
4746.96484375
 20
-5064.08984375
 10
4756.875
 20
-5064.08984375
 10
4766.78515625
 20
-5064.08984375
 10
4776.6953125
 20
-5064.08984375
 10
4786.60546875
 20
-5064.08984375
 10
4796.515625
 20
-5064.08984375
 10
4806.42578125
 20
-5064.08984375
 10
4816.3359375
 20
-5064.08984375
 10
4826.24609375
 20
-5064.08984375
 10
4836.15625
 20
-5064.08984375
 10
4846.06640625
 20
-5064.08984375
 10
4855.9765625
 20
-5064.08984375
 10
4865.88671875
 20
-5064.08984375
 10
4875.796875
 20
-5064.08984375
 10
4885.70703125
 20
-5064.08984375
 10
4895.6171875
 20
-5064.08984375
 10
4905.52734375
 20
-5064.08984375
 10
4915.4375
 20
-5064.08984375
 10
4925.34765625
 20
-5064.08984375
 10
4935.2578125
 20
-5064.08984375
 10
4945.16796875
 20
-5064.08984375
 10
4955.078125
 20
-5064.08984375
 10
4964.98828125
 20
-5064.08984375
 10
4974.8984375
 20
-5064.08984375
 10
4984.80859375
 20
-5064.08984375
 10
4994.71875
 20
-5064.08984375
 10
5004.62890625
 20
-5064.08984375
 10
5014.5390625
 20
-5064.08984375
 10
5024.44921875
 20
-5064.08984375
 10
5034.359375
 20
-5064.08984375
 10
5044.26953125
 20
-5064.08984375
 10
5054.1796875
 20
-5064.08984375
 10
5064.08984375
 20
-5064.08984375
 10
5064.08984375
 20
-5054.1796875
 10
5064.08984375
 20
-5044.26953125
 10
5064.08984375
 20
-5034.359375
 10
5064.08984375
 20
-5024.44921875
 10
5064.08984375
 20
-5014.5390625
 10
5064.08984375
 20
-5004.62890625
 10
5064.08984375
 20
-4994.71875
 10
5064.08984375
 20
-4984.80859375
 10
5064.08984375
 20
-4974.8984375
 10
5064.08984375
 20
-4964.98828125
 10
5064.08984375
 20
-4955.078125
 10
5064.08984375
 20
-4945.16796875
 10
5064.08984375
 20
-4935.2578125
 10
5064.08984375
 20
-4925.34765625
 10
5064.08984375
 20
-4915.4375
 10
5064.08984375
 20
-4905.52734375
 10
5064.08984375
 20
-4895.6171875
 10
5064.08984375
 20
-4885.70703125
 10
5064.08984375
 20
-4875.796875
 10
5064.08984375
 20
-4865.88671875
 10
5064.08984375
 20
-4855.9765625
 10
5064.08984375
 20
-4846.06640625
 10
5064.08984375
 20
-4836.15625
 10
5064.08984375
 20
-4826.24609375
 10
5064.08984375
 20
-4816.3359375
 10
5064.08984375
 20
-4806.42578125
 10
5064.08984375
 20
-4796.515625
 10
5064.08984375
 20
-4786.60546875
 10
5064.08984375
 20
-4776.6953125
 10
5064.08984375
 20
-4766.78515625
 10
5064.08984375
 20
-4756.875
 10
5064.08984375
 20
-4746.96484375
 10
5064.08984375
 20
-4737.0546875
 10
5064.08984375
 20
-4727.14453125
 10
5064.08984375
 20
-4717.234375
 10
5064.08984375
 20
-4707.32421875
 10
5064.08984375
 20
-4697.4140625
 10
5064.08984375
 20
-4687.50390625
 10
5064.08984375
 20
-4677.59375
 10
5064.08984375
 20
-4667.68359375
 10
5064.08984375
 20
-4657.7734375
 10
5064.08984375
 20
-4647.86328125
 10
5064.08984375
 20
-4637.953125
 10
5064.08984375
 20
-4628.04296875
 10
5064.08984375
 20
-4618.1328125
 10
5064.08984375
 20
-4608.22265625
 10
5064.08984375
 20
-4598.3125
 10
5064.08984375
 20
-4588.40234375
 10
5064.08984375
 20
-4578.4921875
 10
5064.08984375
 20
-4568.58203125
 10
5064.08984375
 20
-4558.671875
 10
5064.08984375
 20
-4548.76171875
 10
5064.08984375
 20
-4538.8515625
 10
5064.08984375
 20
-4528.94140625
 10
5064.08984375
 20
-4519.03125
 10
5064.08984375
 20
-4509.12109375
 10
5064.08984375
 20
-4499.2109375
 10
5064.08984375
 20
-4489.30078125
 10
5064.08984375
 20
-4479.390625
 10
5064.08984375
 20
-4469.48046875
 10
5064.08984375
 20
-4459.5703125
 10
5064.08984375
 20
-4449.66015625
 10
5064.08984375
 20
-4439.75
 10
5064.08984375
 20
-4429.83984375
 10
5064.08984375
 20
-4419.9296875
 10
5064.08984375
 20
-4410.01953125
 10
5064.08984375
 20
-4400.109375
 10
5064.08984375
 20
-4390.19921875
 10
5064.08984375
 20
-4380.2890625
 10
5064.08984375
 20
-4370.37890625
 10
5064.08984375
 20
-4360.46875
 10
5064.08984375
 20
-4350.55859375
 10
5064.08984375
 20
-4340.6484375
 10
5064.08984375
 20
-4330.73828125
 10
5064.08984375
 20
-4320.828125
 10
5064.08984375
 20
-4310.91796875
 10
5064.08984375
 20
-4301.0078125
 10
5064.08984375
 20
-4291.09765625
 10
5064.08984375
 20
-4281.1875
 10
5064.08984375
 20
-4271.27734375
 10
5064.08984375
 20
-4261.3671875
 10
5064.08984375
 20
-4251.45703125
 10
5064.08984375
 20
-4241.546875
 10
5064.08984375
 20
-4231.63671875
 10
5064.08984375
 20
-4221.7265625
 10
5064.08984375
 20
-4211.81640625
 10
5064.08984375
 20
-4201.90625
 10
5064.08984375
 20
-4191.99609375
 10
5064.08984375
 20
-4182.0859375
 10
5064.08984375
 20
-4172.17578125
 10
5064.08984375
 20
-4162.265625
 10
5064.08984375
 20
-4152.35546875
 10
5064.08984375
 20
-4142.4453125
 10
5064.08984375
 20
-4132.53515625
 10
5064.08984375
 20
-4122.625
 10
5064.08984375
 20
-4112.71484375
 10
5064.08984375
 20
-4102.8046875
 10
5064.08984375
 20
-4092.89453125
 10
5064.08984375
 20
-4082.984375
 10
5064.08984375
 20
-4073.07421875
 10
5064.08984375
 20
-4063.1640625
 10
5064.08984375
 20
-4053.25390625
 10
5064.08984375
 20
-4043.34375
 10
5064.08984375
 20
-4033.43359375
 10
5064.08984375
 20
-4023.5234375
 10
5064.08984375
 20
-4013.61328125
 10
5064.08984375
 20
-4003.703125
 10
5064.08984375
 20
-3993.79296875
 10
5064.08984375
 20
-3983.8828125
 10
5064.08984375
 20
-3973.97265625
 10
5064.08984375
 20
-3964.0625
 10
5064.08984375
 20
-3954.15234375
 10
5064.08984375
 20
-3944.2421875
 10
5064.08984375
 20
-3934.33203125
 10
5064.08984375
 20
-3924.421875
 10
5064.08984375
 20
-3914.51171875
 10
5064.08984375
 20
-3904.6015625
 10
5064.08984375
 20
-3894.69140625
 10
5064.08984375
 20
-3884.78125
 10
5064.08984375
 20
-3874.87109375
 10
5064.08984375
 20
-3864.9609375
 10
5064.08984375
 20
-3855.05078125
 10
5064.08984375
 20
-3845.140625
 10
5064.08984375
 20
-3835.23046875
 10
5064.08984375
 20
-3825.3203125
 10
5064.08984375
 20
-3815.41015625
 10
5064.08984375
 20
-3805.5
 10
5064.08984375
 20
-3795.58984375
 10
5064.08984375
 20
-3785.6796875
 10
5064.08984375
 20
-3775.76953125
 10
5064.08984375
 20
-3765.859375
 10
5064.08984375
 20
-3755.94921875
 10
5064.08984375
 20
-3746.0390625
 10
5064.08984375
 20
-3736.12890625
 10
5064.08984375
 20
-3726.21875
 10
5064.08984375
 20
-3716.30859375
 10
5064.08984375
 20
-3706.3984375
 10
5064.08984375
 20
-3696.48828125
 10
5064.08984375
 20
-3686.578125
 10
5064.08984375
 20
-3676.66796875
 10
5064.08984375
 20
-3666.7578125
 10
5064.08984375
 20
-3656.84765625
 10
5064.08984375
 20
-3646.9375
 10
5064.08984375
 20
-3637.02734375
 10
5064.08984375
 20
-3627.1171875
 10
5064.08984375
 20
-3617.20703125
 10
5064.08984375
 20
-3607.296875
 10
5064.08984375
 20
-3597.38671875
 10
5064.08984375
 20
-3587.4765625
 10
5064.08984375
 20
-3577.56640625
 10
5064.08984375
 20
-3567.65625
 10
5064.08984375
 20
-3557.74609375
 10
5064.08984375
 20
-3547.8359375
 10
5064.08984375
 20
-3537.92578125
 10
5064.08984375
 20
-3528.015625
 10
5064.08984375
 20
-3518.10546875
 10
5064.08984375
 20
-3508.1953125
 10
5064.08984375
 20
-3498.28515625
 10
5064.08984375
 20
-3488.375
 10
5064.08984375
 20
-3478.46484375
 10
5064.08984375
 20
-3468.5546875
 10
5064.08984375
 20
-3458.64453125
 10
5064.08984375
 20
-3448.734375
 10
5064.08984375
 20
-3438.82421875
 10
5064.08984375
 20
-3428.9140625
 10
5064.08984375
 20
-3419.00390625
 10
5064.08984375
 20
-3409.09375
 10
5064.08984375
 20
-3399.18359375
 10
5064.08984375
 20
-3389.2734375
 10
5064.08984375
 20
-3379.36328125
 10
5064.08984375
 20
-3369.453125
 10
5064.08984375
 20
-3359.54296875
 10
5064.08984375
 20
-3349.6328125
 10
5064.08984375
 20
-3339.72265625
 10
5064.08984375
 20
-3329.8125
 10
5064.08984375
 20
-3319.90234375
 10
5064.08984375
 20
-3309.9921875
 10
5064.08984375
 20
-3300.08203125
 10
5064.08984375
 20
-3290.171875
 10
5064.08984375
 20
-3280.26171875
 10
5064.08984375
 20
-3270.3515625
 10
5064.08984375
 20
-3260.44140625
 10
5064.08984375
 20
-3250.53125
 10
5064.08984375
 20
-3240.62109375
 10
5064.08984375
 20
-3230.7109375
 10
5064.08984375
 20
-3220.80078125
 10
5064.08984375
 20
-3210.890625
 10
5064.08984375
 20
-3200.98046875
 10
5064.08984375
 20
-3191.0703125
 10
5064.08984375
 20
-3181.16015625
 10
5064.08984375
 20
-3171.25
 10
5064.08984375
 20
-3161.33984375
 10
5064.08984375
 20
-3151.4296875
 10
5064.08984375
 20
-3141.51953125
 10
5064.08984375
 20
-3131.609375
 10
5064.08984375
 20
-3121.69921875
 10
5064.08984375
 20
-3111.7890625
 10
5064.08984375
 20
-3101.87890625
 10
5064.08984375
 20
-3091.96875
 10
5064.08984375
 20
-3082.05859375
 10
5064.08984375
 20
-3072.1484375
 10
5064.08984375
 20
-3062.23828125
 10
5064.08984375
 20
-3052.328125
 10
5064.08984375
 20
-3042.41796875
 10
5064.08984375
 20
-3032.5078125
 10
5064.08984375
 20
-3022.59765625
 10
5064.08984375
 20
-3012.6875
 10
5064.08984375
 20
-3002.77734375
 10
5064.08984375
 20
-2992.8671875
 10
5064.08984375
 20
-2982.95703125
 10
5064.08984375
 20
-2973.046875
 10
5064.08984375
 20
-2963.13671875
 10
5064.08984375
 20
-2953.2265625
 10
5064.08984375
 20
-2943.31640625
 10
5064.08984375
 20
-2933.40625
 10
5064.08984375
 20
-2923.49609375
 10
5064.08984375
 20
-2913.5859375
 10
5064.08984375
 20
-2903.67578125
 10
5064.08984375
 20
-2893.765625
 10
5064.08984375
 20
-2883.85546875
 10
5064.08984375
 20
-2873.9453125
 10
5064.08984375
 20
-2864.03515625
 10
5064.08984375
 20
-2854.125
 10
5064.08984375
 20
-2844.21484375
 10
5064.08984375
 20
-2834.3046875
 10
5064.08984375
 20
-2824.39453125
 10
5064.08984375
 20
-2814.484375
 10
5064.08984375
 20
-2804.57421875
 10
5064.08984375
 20
-2794.6640625
 10
5064.08984375
 20
-2784.75390625
 10
5064.08984375
 20
-2774.84375
 10
5064.08984375
 20
-2764.93359375
 10
5064.08984375
 20
-2755.0234375
 10
5064.08984375
 20
-2745.11328125
 10
5064.08984375
 20
-2735.203125
 10
5064.08984375
 20
-2725.29296875
 10
5064.08984375
 20
-2715.3828125
 10
5064.08984375
 20
-2705.47265625
 10
5064.08984375
 20
-2695.5625
 10
5064.08984375
 20
-2685.65234375
 10
5064.08984375
 20
-2675.7421875
 10
5064.08984375
 20
-2665.83203125
 10
5064.08984375
 20
-2655.921875
 10
5064.08984375
 20
-2646.01171875
 10
5064.08984375
 20
-2636.1015625
 10
5064.08984375
 20
-2626.19140625
 10
5064.08984375
 20
-2616.28125
 10
5064.08984375
 20
-2606.37109375
 10
5064.08984375
 20
-2596.4609375
 10
5064.08984375
 20
-2586.55078125
 10
5064.08984375
 20
-2576.640625
 10
5064.08984375
 20
-2566.73046875
 10
5064.08984375
 20
-2556.8203125
 10
5064.08984375
 20
-2546.91015625
 10
5064.08984375
 20
-2537.0
 10
5064.08984375
 20
-2527.08984375
 10
5064.08984375
 20
-2517.1796875
 10
5064.08984375
 20
-2507.26953125
 10
5064.08984375
 20
-2497.359375
 10
5064.08984375
 20
-2487.44921875
 10
5064.08984375
 20
-2477.5390625
 10
5064.08984375
 20
-2467.62890625
 10
5064.08984375
 20
-2457.71875
 10
5064.08984375
 20
-2447.80859375
 10
5064.08984375
 20
-2437.8984375
 10
5064.08984375
 20
-2427.98828125
 10
5064.08984375
 20
-2418.078125
 10
5064.08984375
 20
-2408.16796875
 10
5064.08984375
 20
-2398.2578125
 10
5064.08984375
 20
-2388.34765625
 10
5064.08984375
 20
-2378.4375
 10
5064.08984375
 20
-2368.52734375
 10
5064.08984375
 20
-2358.6171875
 10
5064.08984375
 20
-2348.70703125
 10
5064.08984375
 20
-2338.796875
 10
5064.08984375
 20
-2328.88671875
 10
5064.08984375
 20
-2318.9765625
 10
5064.08984375
 20
-2309.06640625
 10
5064.08984375
 20
-2299.15625
 10
5064.08984375
 20
-2289.24609375
 10
5064.08984375
 20
-2279.3359375
 10
5064.08984375
 20
-2269.42578125
 10
5064.08984375
 20
-2259.515625
 10
5064.08984375
 20
-2249.60546875
 10
5064.08984375
 20
-2239.6953125
 10
5064.08984375
 20
-2229.78515625
 10
5064.08984375
 20
-2219.875
 10
5064.08984375
 20
-2209.96484375
 10
5064.08984375
 20
-2200.0546875
 10
5064.08984375
 20
-2190.14453125
 10
5064.08984375
 20
-2180.234375
 10
5064.08984375
 20
-2170.32421875
 10
5064.08984375
 20
-2160.4140625
 10
5064.08984375
 20
-2150.50390625
 10
5064.08984375
 20
-2140.59375
 10
5064.08984375
 20
-2130.68359375
 10
5064.08984375
 20
-2120.7734375
 10
5064.08984375
 20
-2110.86328125
 10
5064.08984375
 20
-2100.953125
 10
5064.08984375
 20
-2091.04296875
 10
5064.08984375
 20
-2081.1328125
 10
5064.08984375
 20
-2071.22265625
 10
5064.08984375
 20
-2061.3125
 10
5064.08984375
 20
-2051.40234375
 10
5064.08984375
 20
-2041.4921875
 10
5064.08984375
 20
-2031.58203125
 10
5064.08984375
 20
-2021.671875
 10
5064.08984375
 20
-2011.76171875
 10
5064.08984375
 20
-2001.8515625
 10
5064.08984375
 20
-1991.94140625
 10
5064.08984375
 20
-1982.03125
 10
5064.08984375
 20
-1972.12109375
 10
5064.08984375
 20
-1962.2109375
 10
5064.08984375
 20
-1952.30078125
 10
5064.08984375
 20
-1942.390625
 10
5064.08984375
 20
-1932.48046875
 10
5064.08984375
 20
-1922.5703125
 10
5064.08984375
 20
-1912.66015625
 10
5064.08984375
 20
-1902.75
 10
5064.08984375
 20
-1892.83984375
 10
5064.08984375
 20
-1882.9296875
 10
5064.08984375
 20
-1873.01953125
 10
5064.08984375
 20
-1863.109375
 10
5064.08984375
 20
-1853.19921875
 10
5064.08984375
 20
-1843.2890625
 10
5064.08984375
 20
-1833.37890625
 10
5064.08984375
 20
-1823.46875
 10
5064.08984375
 20
-1813.55859375
 10
5064.08984375
 20
-1803.6484375
 10
5064.08984375
 20
-1793.73828125
 10
5064.08984375
 20
-1783.828125
 10
5064.08984375
 20
-1773.91796875
 10
5064.08984375
 20
-1764.0078125
 10
5064.08984375
 20
-1754.09765625
 10
5064.08984375
 20
-1744.1875
 10
5064.08984375
 20
-1734.27734375
 10
5064.08984375
 20
-1724.3671875
 10
5064.08984375
 20
-1714.45703125
 10
5064.08984375
 20
-1704.546875
 10
5064.08984375
 20
-1694.63671875
 10
5064.08984375
 20
-1684.7265625
 10
5064.08984375
 20
-1674.81640625
 10
5064.08984375
 20
-1664.90625
 10
5064.08984375
 20
-1654.99609375
 10
5064.08984375
 20
-1645.0859375
 10
5064.08984375
 20
-1635.17578125
 10
5064.08984375
 20
-1625.265625
 10
5064.08984375
 20
-1615.35546875
 10
5064.08984375
 20
-1605.4453125
 10
5064.08984375
 20
-1595.53515625
 10
5064.08984375
 20
-1585.625
 10
5064.08984375
 20
-1575.71484375
 10
5064.08984375
 20
-1565.8046875
 10
5064.08984375
 20
-1555.89453125
 10
5064.08984375
 20
-1545.984375
 10
5064.08984375
 20
-1536.07421875
 10
5064.08984375
 20
-1526.1640625
 10
5064.08984375
 20
-1516.25390625
 10
5064.08984375
 20
-1506.34375
 10
5064.08984375
 20
-1496.43359375
 10
5064.08984375
 20
-1486.5234375
 10
5064.08984375
 20
-1476.61328125
 10
5064.08984375
 20
-1466.703125
 10
5064.08984375
 20
-1456.79296875
 10
5064.08984375
 20
-1446.8828125
 10
5064.08984375
 20
-1436.97265625
 10
5064.08984375
 20
-1427.0625
 10
5064.08984375
 20
-1417.15234375
 10
5064.08984375
 20
-1407.2421875
 10
5064.08984375
 20
-1397.33203125
 10
5064.08984375
 20
-1387.421875
 10
5064.08984375
 20
-1377.51171875
 10
5064.08984375
 20
-1367.6015625
 10
5064.08984375
 20
-1357.69140625
 10
5064.08984375
 20
-1347.78125
 10
5064.08984375
 20
-1337.87109375
 10
5064.08984375
 20
-1327.9609375
 10
5064.08984375
 20
-1318.05078125
 10
5064.08984375
 20
-1308.140625
 10
5064.08984375
 20
-1298.23046875
 10
5064.08984375
 20
-1288.3203125
 10
5064.08984375
 20
-1278.41015625
 10
5064.08984375
 20
-1268.5
 10
5064.08984375
 20
-1258.58984375
 10
5064.08984375
 20
-1248.6796875
 10
5064.08984375
 20
-1238.76953125
 10
5064.08984375
 20
-1228.859375
 10
5064.08984375
 20
-1218.94921875
 10
5064.08984375
 20
-1209.0390625
 10
5064.08984375
 20
-1199.12890625
 10
5064.08984375
 20
-1189.21875
 10
5064.08984375
 20
-1179.30859375
 10
5064.08984375
 20
-1169.3984375
 10
5064.08984375
 20
-1159.48828125
 10
5064.08984375
 20
-1149.578125
 10
5064.08984375
 20
-1139.66796875
 10
5064.08984375
 20
-1129.7578125
 10
5064.08984375
 20
-1119.84765625
 10
5064.08984375
 20
-1109.9375
 10
5064.08984375
 20
-1100.02734375
 10
5064.08984375
 20
-1090.1171875
 10
5064.08984375
 20
-1080.20703125
 10
5064.08984375
 20
-1070.296875
 10
5064.08984375
 20
-1060.38671875
 10
5064.08984375
 20
-1050.4765625
 10
5064.08984375
 20
-1040.56640625
 10
5064.08984375
 20
-1030.65625
 10
5064.08984375
 20
-1020.74609375
 10
5064.08984375
 20
-1010.8359375
 10
5064.08984375
 20
-1000.92578125
 10
5064.08984375
 20
-991.015625
 10
5064.08984375
 20
-981.10546875
 10
5064.08984375
 20
-971.1953125
 10
5064.08984375
 20
-961.28515625
 10
5064.08984375
 20
-951.375
 10
5064.08984375
 20
-941.46484375
 10
5064.08984375
 20
-931.5546875
 10
5064.08984375
 20
-921.64453125
 10
5064.08984375
 20
-911.734375
 10
5064.08984375
 20
-901.82421875
 10
5064.08984375
 20
-891.9140625
 10
5064.08984375
 20
-882.00390625
 10
5064.08984375
 20
-872.09375
 10
5064.08984375
 20
-862.18359375
 10
5064.08984375
 20
-852.2734375
 10
5064.08984375
 20
-842.36328125
 10
5064.08984375
 20
-832.453125
 10
5064.08984375
 20
-822.54296875
 10
5064.08984375
 20
-812.6328125
 10
5064.08984375
 20
-802.72265625
 10
5064.08984375
 20
-792.8125
 10
5064.08984375
 20
-782.90234375
 10
5064.08984375
 20
-772.9921875
 10
5064.08984375
 20
-763.08203125
 10
5064.08984375
 20
-753.171875
 10
5064.08984375
 20
-743.26171875
 10
5064.08984375
 20
-733.3515625
 10
5064.08984375
 20
-723.44140625
 10
5064.08984375
 20
-713.53125
 10
5064.08984375
 20
-703.62109375
 10
5064.08984375
 20
-693.7109375
 10
5064.08984375
 20
-683.80078125
 10
5064.08984375
 20
-673.890625
 10
5064.08984375
 20
-663.98046875
 10
5064.08984375
 20
-654.0703125
 10
5064.08984375
 20
-644.16015625
 10
5064.08984375
 20
-634.25
 10
5064.08984375
 20
-624.33984375
 10
5064.08984375
 20
-614.4296875
 10
5064.08984375
 20
-604.51953125
 10
5064.08984375
 20
-594.609375
 10
5064.08984375
 20
-584.69921875
 10
5064.08984375
 20
-574.7890625
 10
5064.08984375
 20
-564.87890625
 10
5064.08984375
 20
-554.96875
 10
5064.08984375
 20
-545.05859375
 10
5064.08984375
 20
-535.1484375
 10
5064.08984375
 20
-525.23828125
 10
5064.08984375
 20
-515.328125
 10
5064.08984375
 20
-505.41796875
 10
5064.08984375
 20
-495.5078125
 10
5064.08984375
 20
-485.59765625
 10
5064.08984375
 20
-475.6875
 10
5064.08984375
 20
-465.77734375
 10
5064.08984375
 20
-455.8671875
 10
5064.08984375
 20
-445.95703125
 10
5064.08984375
 20
-436.046875
 10
5064.08984375
 20
-426.13671875
 10
5064.08984375
 20
-416.2265625
 10
5064.08984375
 20
-406.31640625
 10
5064.08984375
 20
-396.40625
 10
5064.08984375
 20
-386.49609375
 10
5064.08984375
 20
-376.5859375
 10
5064.08984375
 20
-366.67578125
 10
5064.08984375
 20
-356.765625
 10
5064.08984375
 20
-346.85546875
 10
5064.08984375
 20
-336.9453125
 10
5064.08984375
 20
-327.03515625
 10
5064.08984375
 20
-317.125
 10
5064.08984375
 20
-307.21484375
 10
5064.08984375
 20
-297.3046875
 10
5064.08984375
 20
-287.39453125
 10
5064.08984375
 20
-277.484375
 10
5064.08984375
 20
-267.57421875
 10
5064.08984375
 20
-257.6640625
 10
5064.08984375
 20
-247.75390625
 10
5064.08984375
 20
-237.84375
 10
5064.08984375
 20
-227.93359375
 10
5064.08984375
 20
-218.0234375
 10
5064.08984375
 20
-208.11328125
 10
5064.08984375
 20
-198.203125
 10
5064.08984375
 20
-188.29296875
 10
5064.08984375
 20
-178.3828125
 10
5064.08984375
 20
-168.47265625
 10
5064.08984375
 20
-158.5625
 10
5064.08984375
 20
-148.65234375
 10
5064.08984375
 20
-138.7421875
 10
5064.08984375
 20
-128.83203125
 10
5064.08984375
 20
-118.921875
 10
5064.08984375
 20
-109.01171875
 10
5064.08984375
 20
-99.1015625
 10
5064.08984375
 20
-89.19140625
 10
5064.08984375
 20
-79.28125
 10
5064.08984375
 20
-69.37109375
 10
5064.08984375
 20
-59.4609375
 10
5064.08984375
 20
-49.55078125
 10
5064.08984375
 20
-39.640625
 10
5064.08984375
 20
-29.73046875
 10
5064.08984375
 20
-19.8203125
 10
5064.08984375
 20
-9.91015625
 10
5064.08984375
 20
-0.0
 10
5054.1796875
 20
-0.0
 10
5044.26953125
 20
-0.0
 10
5034.359375
 20
-0.0
 10
5024.44921875
 20
-0.0
 10
5014.5390625
 20
-0.0
 10
5004.62890625
 20
-0.0
 10
4994.71875
 20
-0.0
 10
4984.80859375
 20
-0.0
 10
4974.8984375
 20
-0.0
 10
4964.98828125
 20
-0.0
 10
4955.078125
 20
-0.0
 10
4945.16796875
 20
-0.0
 10
4935.2578125
 20
-0.0
 10
4925.34765625
 20
-0.0
 10
4915.4375
 20
-0.0
 10
4905.52734375
 20
-0.0
 10
4895.6171875
 20
-0.0
 10
4885.70703125
 20
-0.0
 10
4875.796875
 20
-0.0
 10
4865.88671875
 20
-0.0
 10
4855.9765625
 20
-0.0
 10
4846.06640625
 20
-0.0
 10
4836.15625
 20
-0.0
 10
4826.24609375
 20
-0.0
 10
4816.3359375
 20
-0.0
 10
4806.42578125
 20
-0.0
 10
4796.515625
 20
-0.0
 10
4786.60546875
 20
-0.0
 10
4776.6953125
 20
-0.0
 10
4766.78515625
 20
-0.0
 10
4756.875
 20
-0.0
 10
4746.96484375
 20
-0.0
 10
4737.0546875
 20
-0.0
 10
4727.14453125
 20
-0.0
 10
4717.234375
 20
-0.0
 10
4707.32421875
 20
-0.0
 10
4697.4140625
 20
-0.0
 10
4687.50390625
 20
-0.0
 10
4677.59375
 20
-0.0
 10
4667.68359375
 20
-0.0
 10
4657.7734375
 20
-0.0
 10
4647.86328125
 20
-0.0
 10
4637.953125
 20
-0.0
 10
4628.04296875
 20
-0.0
 10
4618.1328125
 20
-0.0
 10
4608.22265625
 20
-0.0
 10
4598.3125
 20
-0.0
 10
4588.40234375
 20
-0.0
 10
4578.4921875
 20
-0.0
 10
4568.58203125
 20
-0.0
 10
4558.671875
 20
-0.0
 10
4548.76171875
 20
-0.0
 10
4538.8515625
 20
-0.0
 10
4528.94140625
 20
-0.0
 10
4519.03125
 20
-0.0
 10
4509.12109375
 20
-0.0
 10
4499.2109375
 20
-0.0
 10
4489.30078125
 20
-0.0
 10
4479.390625
 20
-0.0
 10
4469.48046875
 20
-0.0
 10
4459.5703125
 20
-0.0
 10
4449.66015625
 20
-0.0
 10
4439.75
 20
-0.0
 10
4429.83984375
 20
-0.0
 10
4419.9296875
 20
-0.0
 10
4410.01953125
 20
-0.0
 10
4400.109375
 20
-0.0
 10
4390.19921875
 20
-0.0
 10
4380.2890625
 20
-0.0
 10
4370.37890625
 20
-0.0
 10
4360.46875
 20
-0.0
 10
4350.55859375
 20
-0.0
 10
4340.6484375
 20
-0.0
 10
4330.73828125
 20
-0.0
 10
4320.828125
 20
-0.0
 10
4310.91796875
 20
-0.0
 10
4301.0078125
 20
-0.0
 10
4291.09765625
 20
-0.0
 10
4281.1875
 20
-0.0
 10
4271.27734375
 20
-0.0
 10
4261.3671875
 20
-0.0
 10
4251.45703125
 20
-0.0
 10
4241.546875
 20
-0.0
 10
4231.63671875
 20
-0.0
 10
4221.7265625
 20
-0.0
 10
4211.81640625
 20
-0.0
 10
4201.90625
 20
-0.0
 10
4191.99609375
 20
-0.0
 10
4182.0859375
 20
-0.0
 10
4172.17578125
 20
-0.0
 10
4162.265625
 20
-0.0
 10
4152.35546875
 20
-0.0
 10
4142.4453125
 20
-0.0
 10
4132.53515625
 20
-0.0
 10
4122.625
 20
-0.0
 10
4112.71484375
 20
-0.0
 10
4102.8046875
 20
-0.0
 10
4092.89453125
 20
-0.0
 10
4082.984375
 20
-0.0
 10
4073.07421875
 20
-0.0
 10
4063.1640625
 20
-0.0
 10
4053.25390625
 20
-0.0
 10
4043.34375
 20
-0.0
 10
4033.43359375
 20
-0.0
 10
4023.5234375
 20
-0.0
 10
4013.61328125
 20
-0.0
 10
4003.703125
 20
-0.0
 10
3993.79296875
 20
-0.0
 10
3983.8828125
 20
-0.0
 10
3973.97265625
 20
-0.0
 10
3964.0625
 20
-0.0
 10
3954.15234375
 20
-0.0
 10
3944.2421875
 20
-0.0
 10
3934.33203125
 20
-0.0
 10
3924.421875
 20
-0.0
 10
3914.51171875
 20
-0.0
 10
3904.6015625
 20
-0.0
 10
3894.69140625
 20
-0.0
 10
3884.78125
 20
-0.0
 10
3874.87109375
 20
-0.0
 10
3864.9609375
 20
-0.0
 10
3855.05078125
 20
-0.0
 10
3845.140625
 20
-0.0
 10
3835.23046875
 20
-0.0
 10
3825.3203125
 20
-0.0
 10
3815.41015625
 20
-0.0
 10
3805.5
 20
-0.0
 10
3795.58984375
 20
-0.0
 10
3785.6796875
 20
-0.0
 10
3775.76953125
 20
-0.0
 10
3765.859375
 20
-0.0
 10
3755.94921875
 20
-0.0
 10
3746.0390625
 20
-0.0
 10
3736.12890625
 20
-0.0
 10
3726.21875
 20
-0.0
 10
3716.30859375
 20
-0.0
 10
3706.3984375
 20
-0.0
 10
3696.48828125
 20
-0.0
 10
3686.578125
 20
-0.0
 10
3676.66796875
 20
-0.0
 10
3666.7578125
 20
-0.0
 10
3656.84765625
 20
-0.0
 10
3646.9375
 20
-0.0
 10
3637.02734375
 20
-0.0
 10
3627.1171875
 20
-0.0
 10
3617.20703125
 20
-0.0
 10
3607.296875
 20
-0.0
 10
3597.38671875
 20
-0.0
 10
3587.4765625
 20
-0.0
 10
3577.56640625
 20
-0.0
 10
3567.65625
 20
-0.0
 10
3557.74609375
 20
-0.0
 10
3547.8359375
 20
-0.0
 10
3537.92578125
 20
-0.0
 10
3528.015625
 20
-0.0
 10
3518.10546875
 20
-0.0
 10
3508.1953125
 20
-0.0
 10
3498.28515625
 20
-0.0
 10
3488.375
 20
-0.0
 10
3478.46484375
 20
-0.0
 10
3468.5546875
 20
-0.0
 10
3458.64453125
 20
-0.0
 10
3448.734375
 20
-0.0
 10
3438.82421875
 20
-0.0
 10
3428.9140625
 20
-0.0
 10
3419.00390625
 20
-0.0
 10
3409.09375
 20
-0.0
 10
3399.18359375
 20
-0.0
 10
3389.2734375
 20
-0.0
 10
3379.36328125
 20
-0.0
 10
3369.453125
 20
-0.0
 10
3359.54296875
 20
-0.0
 10
3349.6328125
 20
-0.0
 10
3339.72265625
 20
-0.0
 10
3329.8125
 20
-0.0
 10
3319.90234375
 20
-0.0
 10
3309.9921875
 20
-0.0
 10
3300.08203125
 20
-0.0
 10
3290.171875
 20
-0.0
 10
3280.26171875
 20
-0.0
 10
3270.3515625
 20
-0.0
 10
3260.44140625
 20
-0.0
 10
3250.53125
 20
-0.0
 10
3240.62109375
 20
-0.0
 10
3230.7109375
 20
-0.0
 10
3220.80078125
 20
-0.0
 10
3210.890625
 20
-0.0
 10
3200.98046875
 20
-0.0
 10
3191.0703125
 20
-0.0
 10
3181.16015625
 20
-0.0
 10
3171.25
 20
-0.0
 10
3161.33984375
 20
-0.0
 10
3151.4296875
 20
-0.0
 10
3141.51953125
 20
-0.0
 10
3131.609375
 20
-0.0
 10
3121.69921875
 20
-0.0
 10
3111.7890625
 20
-0.0
 10
3101.87890625
 20
-0.0
 10
3091.96875
 20
-0.0
 10
3082.05859375
 20
-0.0
 10
3072.1484375
 20
-0.0
 10
3062.23828125
 20
-0.0
 10
3052.328125
 20
-0.0
 10
3042.41796875
 20
-0.0
 10
3032.5078125
 20
-0.0
 10
3022.59765625
 20
-0.0
 10
3012.6875
 20
-0.0
 10
3002.77734375
 20
-0.0
 10
2992.8671875
 20
-0.0
 10
2982.95703125
 20
-0.0
 10
2973.046875
 20
-0.0
 10
2963.13671875
 20
-0.0
 10
2953.2265625
 20
-0.0
 10
2943.31640625
 20
-0.0
 10
2933.40625
 20
-0.0
 10
2923.49609375
 20
-0.0
 10
2913.5859375
 20
-0.0
 10
2903.67578125
 20
-0.0
 10
2893.765625
 20
-0.0
 10
2883.85546875
 20
-0.0
 10
2873.9453125
 20
-0.0
 10
2864.03515625
 20
-0.0
 10
2854.125
 20
-0.0
 10
2844.21484375
 20
-0.0
 10
2834.3046875
 20
-0.0
 10
2824.39453125
 20
-0.0
 10
2814.484375
 20
-0.0
 10
2804.57421875
 20
-0.0
 10
2794.6640625
 20
-0.0
 10
2784.75390625
 20
-0.0
 10
2774.84375
 20
-0.0
 10
2764.93359375
 20
-0.0
 10
2755.0234375
 20
-0.0
 10
2745.11328125
 20
-0.0
 10
2735.203125
 20
-0.0
 10
2725.29296875
 20
-0.0
 10
2715.3828125
 20
-0.0
 10
2705.47265625
 20
-0.0
 10
2695.5625
 20
-0.0
 10
2685.65234375
 20
-0.0
 10
2675.7421875
 20
-0.0
 10
2665.83203125
 20
-0.0
 10
2655.921875
 20
-0.0
 10
2646.01171875
 20
-0.0
 10
2636.1015625
 20
-0.0
 10
2626.19140625
 20
-0.0
 10
2616.28125
 20
-0.0
 10
2606.37109375
 20
-0.0
 10
2596.4609375
 20
-0.0
 10
2586.55078125
 20
-0.0
 10
2576.640625
 20
-0.0
 10
2566.73046875
 20
-0.0
 10
2556.8203125
 20
-0.0
 10
2546.91015625
 20
-0.0
 10
2537.0
 20
-0.0
 10
2527.08984375
 20
-0.0
 10
2517.1796875
 20
-0.0
 10
2507.26953125
 20
-0.0
 10
2497.359375
 20
-0.0
 10
2487.44921875
 20
-0.0
 10
2477.5390625
 20
-0.0
 10
2467.62890625
 20
-0.0
 10
2457.71875
 20
-0.0
 10
2447.80859375
 20
-0.0
 10
2437.8984375
 20
-0.0
 10
2427.98828125
 20
-0.0
 10
2418.078125
 20
-0.0
 10
2408.16796875
 20
-0.0
 10
2398.2578125
 20
-0.0
 10
2388.34765625
 20
-0.0
 10
2378.4375
 20
-0.0
 10
2368.52734375
 20
-0.0
 10
2358.6171875
 20
-0.0
 10
2348.70703125
 20
-0.0
 10
2338.796875
 20
-0.0
 10
2328.88671875
 20
-0.0
 10
2318.9765625
 20
-0.0
 10
2309.06640625
 20
-0.0
 10
2299.15625
 20
-0.0
 10
2289.24609375
 20
-0.0
 10
2279.3359375
 20
-0.0
 10
2269.42578125
 20
-0.0
 10
2259.515625
 20
-0.0
 10
2249.60546875
 20
-0.0
 10
2239.6953125
 20
-0.0
 10
2229.78515625
 20
-0.0
 10
2219.875
 20
-0.0
 10
2209.96484375
 20
-0.0
 10
2200.0546875
 20
-0.0
 10
2190.14453125
 20
-0.0
 10
2180.234375
 20
-0.0
 10
2170.32421875
 20
-0.0
 10
2160.4140625
 20
-0.0
 10
2150.50390625
 20
-0.0
 10
2140.59375
 20
-0.0
 10
2130.68359375
 20
-0.0
 10
2120.7734375
 20
-0.0
 10
2110.86328125
 20
-0.0
 10
2100.953125
 20
-0.0
 10
2091.04296875
 20
-0.0
 10
2081.1328125
 20
-0.0
 10
2071.22265625
 20
-0.0
 10
2061.3125
 20
-0.0
 10
2051.40234375
 20
-0.0
 10
2041.4921875
 20
-0.0
 10
2031.58203125
 20
-0.0
 10
2021.671875
 20
-0.0
 10
2011.76171875
 20
-0.0
 10
2001.8515625
 20
-0.0
 10
1991.94140625
 20
-0.0
 10
1982.03125
 20
-0.0
 10
1972.12109375
 20
-0.0
 10
1962.2109375
 20
-0.0
 10
1952.30078125
 20
-0.0
 10
1942.390625
 20
-0.0
 10
1932.48046875
 20
-0.0
 10
1922.5703125
 20
-0.0
 10
1912.66015625
 20
-0.0
 10
1902.75
 20
-0.0
 10
1892.83984375
 20
-0.0
 10
1882.9296875
 20
-0.0
 10
1873.01953125
 20
-0.0
 10
1863.109375
 20
-0.0
 10
1853.19921875
 20
-0.0
 10
1843.2890625
 20
-0.0
 10
1833.37890625
 20
-0.0
 10
1823.46875
 20
-0.0
 10
1813.55859375
 20
-0.0
 10
1803.6484375
 20
-0.0
 10
1793.73828125
 20
-0.0
 10
1783.828125
 20
-0.0
 10
1773.91796875
 20
-0.0
 10
1764.0078125
 20
-0.0
 10
1754.09765625
 20
-0.0
 10
1744.1875
 20
-0.0
 10
1734.27734375
 20
-0.0
 10
1724.3671875
 20
-0.0
 10
1714.45703125
 20
-0.0
 10
1704.546875
 20
-0.0
 10
1694.63671875
 20
-0.0
 10
1684.7265625
 20
-0.0
 10
1674.81640625
 20
-0.0
 10
1664.90625
 20
-0.0
 10
1654.99609375
 20
-0.0
 10
1645.0859375
 20
-0.0
 10
1635.17578125
 20
-0.0
 10
1625.265625
 20
-0.0
 10
1615.35546875
 20
-0.0
 10
1605.4453125
 20
-0.0
 10
1595.53515625
 20
-0.0
 10
1585.625
 20
-0.0
 10
1575.71484375
 20
-0.0
 10
1565.8046875
 20
-0.0
 10
1555.89453125
 20
-0.0
 10
1545.984375
 20
-0.0
 10
1536.07421875
 20
-0.0
 10
1526.1640625
 20
-0.0
 10
1516.25390625
 20
-0.0
 10
1506.34375
 20
-0.0
 10
1496.43359375
 20
-0.0
 10
1486.5234375
 20
-0.0
 10
1476.61328125
 20
-0.0
 10
1466.703125
 20
-0.0
 10
1456.79296875
 20
-0.0
 10
1446.8828125
 20
-0.0
 10
1436.97265625
 20
-0.0
 10
1427.0625
 20
-0.0
 10
1417.15234375
 20
-0.0
 10
1407.2421875
 20
-0.0
 10
1397.33203125
 20
-0.0
 10
1387.421875
 20
-0.0
 10
1377.51171875
 20
-0.0
 10
1367.6015625
 20
-0.0
 10
1357.69140625
 20
-0.0
 10
1347.78125
 20
-0.0
 10
1337.87109375
 20
-0.0
 10
1327.9609375
 20
-0.0
 10
1318.05078125
 20
-0.0
 10
1308.140625
 20
-0.0
 10
1298.23046875
 20
-0.0
 10
1288.3203125
 20
-0.0
 10
1278.41015625
 20
-0.0
 10
1268.5
 20
-0.0
 10
1258.58984375
 20
-0.0
 10
1248.6796875
 20
-0.0
 10
1238.76953125
 20
-0.0
 10
1228.859375
 20
-0.0
 10
1218.94921875
 20
-0.0
 10
1209.0390625
 20
-0.0
 10
1199.12890625
 20
-0.0
 10
1189.21875
 20
-0.0
 10
1179.30859375
 20
-0.0
 10
1169.3984375
 20
-0.0
 10
1159.48828125
 20
-0.0
 10
1149.578125
 20
-0.0
 10
1139.66796875
 20
-0.0
 10
1129.7578125
 20
-0.0
 10
1119.84765625
 20
-0.0
 10
1109.9375
 20
-0.0
 10
1100.02734375
 20
-0.0
 10
1090.1171875
 20
-0.0
 10
1080.20703125
 20
-0.0
 10
1070.296875
 20
-0.0
 10
1060.38671875
 20
-0.0
 10
1050.4765625
 20
-0.0
 10
1040.56640625
 20
-0.0
 10
1030.65625
 20
-0.0
 10
1020.74609375
 20
-0.0
 10
1010.8359375
 20
-0.0
 10
1000.92578125
 20
-0.0
 10
991.015625
 20
-0.0
 10
981.10546875
 20
-0.0
 10
971.1953125
 20
-0.0
 10
961.28515625
 20
-0.0
 10
951.375
 20
-0.0
 10
941.46484375
 20
-0.0
 10
931.5546875
 20
-0.0
 10
921.64453125
 20
-0.0
 10
911.734375
 20
-0.0
 10
901.82421875
 20
-0.0
 10
891.9140625
 20
-0.0
 10
882.00390625
 20
-0.0
 10
872.09375
 20
-0.0
 10
862.18359375
 20
-0.0
 10
852.2734375
 20
-0.0
 10
842.36328125
 20
-0.0
 10
832.453125
 20
-0.0
 10
822.54296875
 20
-0.0
 10
812.6328125
 20
-0.0
 10
802.72265625
 20
-0.0
 10
792.8125
 20
-0.0
 10
782.90234375
 20
-0.0
 10
772.9921875
 20
-0.0
 10
763.08203125
 20
-0.0
 10
753.171875
 20
-0.0
 10
743.26171875
 20
-0.0
 10
733.3515625
 20
-0.0
 10
723.44140625
 20
-0.0
 10
713.53125
 20
-0.0
 10
703.62109375
 20
-0.0
 10
693.7109375
 20
-0.0
 10
683.80078125
 20
-0.0
 10
673.890625
 20
-0.0
 10
663.98046875
 20
-0.0
 10
654.0703125
 20
-0.0
 10
644.16015625
 20
-0.0
 10
634.25
 20
-0.0
 10
624.33984375
 20
-0.0
 10
614.4296875
 20
-0.0
 10
604.51953125
 20
-0.0
 10
594.609375
 20
-0.0
 10
584.69921875
 20
-0.0
 10
574.7890625
 20
-0.0
 10
564.87890625
 20
-0.0
 10
554.96875
 20
-0.0
 10
545.05859375
 20
-0.0
 10
535.1484375
 20
-0.0
 10
525.23828125
 20
-0.0
 10
515.328125
 20
-0.0
 10
505.41796875
 20
-0.0
 10
495.5078125
 20
-0.0
 10
485.59765625
 20
-0.0
 10
475.6875
 20
-0.0
 10
465.77734375
 20
-0.0
 10
455.8671875
 20
-0.0
 10
445.95703125
 20
-0.0
 10
436.046875
 20
-0.0
 10
426.13671875
 20
-0.0
 10
416.2265625
 20
-0.0
 10
406.31640625
 20
-0.0
 10
396.40625
 20
-0.0
 10
386.49609375
 20
-0.0
 10
376.5859375
 20
-0.0
 10
366.67578125
 20
-0.0
 10
356.765625
 20
-0.0
 10
346.85546875
 20
-0.0
 10
336.9453125
 20
-0.0
 10
327.03515625
 20
-0.0
 10
317.125
 20
-0.0
 10
307.21484375
 20
-0.0
 10
297.3046875
 20
-0.0
 10
287.39453125
 20
-0.0
 10
277.484375
 20
-0.0
 10
267.57421875
 20
-0.0
 10
257.6640625
 20
-0.0
 10
247.75390625
 20
-0.0
 10
237.84375
 20
-0.0
 10
227.93359375
 20
-0.0
 10
218.0234375
 20
-0.0
 10
208.11328125
 20
-0.0
 10
198.203125
 20
-0.0
 10
188.29296875
 20
-0.0
 10
178.3828125
 20
-0.0
 10
168.47265625
 20
-0.0
 10
158.5625
 20
-0.0
 10
148.65234375
 20
-0.0
 10
138.7421875
 20
-0.0
 10
128.83203125
 20
-0.0
 10
118.921875
 20
-0.0
 10
109.01171875
 20
-0.0
 10
99.1015625
 20
-0.0
 10
89.19140625
 20
-0.0
 10
79.28125
 20
-0.0
 10
69.37109375
 20
-0.0
 10
59.4609375
 20
-0.0
 10
49.55078125
 20
-0.0
 10
39.640625
 20
-0.0
 10
29.73046875
 20
-0.0
 10
19.8203125
 20
-0.0
 10
9.91015625
 20
-0.0
  0
LWPOLYLINE
  5
34
330
17
100
AcDbEntity
  8
substrate
100
AcDbPolyline
 90
4
 70
1
 43
0.5
 10
1318.05078125
 20
-3121.69921875
 10
1327.9609375
 20
-3111.7890625
 10
1337.87109375
 20
-3121.69921875
 10
1327.9609375
 20
-3131.609375
  0
LWPOLYLINE
  5
35
330
17
100
AcDbEntity
  8
substrate
100
AcDbPolyline
 90
4
 70
1
 43
0.5
 10
1298.23046875
 20
-3121.69921875
 10
1308.140625
 20
-3111.7890625
 10
1318.05078125
 20
-3121.69921875
 10
1308.140625
 20
-3131.609375
  0
LWPOLYLINE
  5
36
330
17
100
AcDbEntity
  8
substrate
100
AcDbPolyline
 90
177
 70
1
 43
0.5
 10
2507.26953125
 20
-2239.6953125
 10
2517.1796875
 20
-2229.78515625
 10
2527.08984375
 20
-2229.78515625
 10
2537.0
 20
-2229.78515625
 10
2546.91015625
 20
-2229.78515625
 10
2556.8203125
 20
-2229.78515625
 10
2566.73046875
 20
-2229.78515625
 10
2576.640625
 20
-2229.78515625
 10
2586.55078125
 20
-2229.78515625
 10
2596.4609375
 20
-2239.6953125
 10
2606.37109375
 20
-2239.6953125
 10
2616.28125
 20
-2239.6953125
 10
2626.19140625
 20
-2239.6953125
 10
2636.1015625
 20
-2249.60546875
 10
2646.01171875
 20
-2249.60546875
 10
2655.921875
 20
-2259.515625
 10
2665.83203125
 20
-2259.515625
 10
2675.7421875
 20
-2269.42578125
 10
2685.65234375
 20
-2279.3359375
 10
2695.5625
 20
-2289.24609375
 10
2705.47265625
 20
-2299.15625
 10
2715.3828125
 20
-2299.15625
 10
2725.29296875
 20
-2309.06640625
 10
2735.203125
 20
-2309.06640625
 10
2745.11328125
 20
-2318.9765625
 10
2755.0234375
 20
-2318.9765625
 10
2764.93359375
 20
-2328.88671875
 10
2764.93359375
 20
-2338.796875
 10
2774.84375
 20
-2348.70703125
 10
2774.84375
 20
-2358.6171875
 10
2784.75390625
 20
-2358.6171875
 10
2794.6640625
 20
-2368.52734375
 10
2804.57421875
 20
-2378.4375
 10
2804.57421875
 20
-2388.34765625
 10
2804.57421875
 20
-2398.2578125
 10
2814.484375
 20
-2408.16796875
 10
2814.484375
 20
-2418.078125
 10
2814.484375
 20
-2427.98828125
 10
2814.484375
 20
-2437.8984375
 10
2814.484375
 20
-2447.80859375
 10
2824.39453125
 20
-2457.71875
 10
2824.39453125
 20
-2467.62890625
 10
2824.39453125
 20
-2477.5390625
 10
2834.3046875
 20
-2487.44921875
 10
2834.3046875
 20
-2497.359375
 10
2834.3046875
 20
-2507.26953125
 10
2824.39453125
 20
-2517.1796875
 10
2824.39453125
 20
-2527.08984375
 10
2824.39453125
 20
-2537.0
 10
2824.39453125
 20
-2546.91015625
 10
2824.39453125
 20
-2556.8203125
 10
2824.39453125
 20
-2566.73046875
 10
2824.39453125
 20
-2576.640625
 10
2814.484375
 20
-2586.55078125
 10
2814.484375
 20
-2596.4609375
 10
2814.484375
 20
-2606.37109375
 10
2814.484375
 20
-2616.28125
 10
2814.484375
 20
-2626.19140625
 10
2814.484375
 20
-2636.1015625
 10
2804.57421875
 20
-2646.01171875
 10
2804.57421875
 20
-2655.921875
 10
2804.57421875
 20
-2665.83203125
 10
2794.6640625
 20
-2675.7421875
 10
2794.6640625
 20
-2685.65234375
 10
2784.75390625
 20
-2695.5625
 10
2774.84375
 20
-2705.47265625
 10
2774.84375
 20
-2715.3828125
 10
2764.93359375
 20
-2725.29296875
 10
2764.93359375
 20
-2735.203125
 10
2755.0234375
 20
-2745.11328125
 10
2745.11328125
 20
-2745.11328125
 10
2735.203125
 20
-2755.0234375
 10
2725.29296875
 20
-2755.0234375
 10
2715.3828125
 20
-2764.93359375
 10
2705.47265625
 20
-2774.84375
 10
2695.5625
 20
-2784.75390625
 10
2685.65234375
 20
-2794.6640625
 10
2675.7421875
 20
-2804.57421875
 10
2665.83203125
 20
-2804.57421875
 10
2655.921875
 20
-2804.57421875
 10
2646.01171875
 20
-2804.57421875
 10
2636.1015625
 20
-2814.484375
 10
2626.19140625
 20
-2814.484375
 10
2616.28125
 20
-2814.484375
 10
2606.37109375
 20
-2824.39453125
 10
2596.4609375
 20
-2824.39453125
 10
2586.55078125
 20
-2824.39453125
 10
2576.640625
 20
-2834.3046875
 10
2566.73046875
 20
-2834.3046875
 10
2556.8203125
 20
-2834.3046875
 10
2546.91015625
 20
-2834.3046875
 10
2537.0
 20
-2834.3046875
 10
2527.08984375
 20
-2834.3046875
 10
2517.1796875
 20
-2834.3046875
 10
2507.26953125
 20
-2834.3046875
 10
2497.359375
 20
-2834.3046875
 10
2487.44921875
 20
-2834.3046875
 10
2477.5390625
 20
-2834.3046875
 10
2467.62890625
 20
-2834.3046875
 10
2457.71875
 20
-2834.3046875
 10
2447.80859375
 20
-2824.39453125
 10
2437.8984375
 20
-2824.39453125
 10
2427.98828125
 20
-2814.484375
 10
2418.078125
 20
-2814.484375
 10
2408.16796875
 20
-2814.484375
 10
2398.2578125
 20
-2804.57421875
 10
2388.34765625
 20
-2804.57421875
 10
2378.4375
 20
-2794.6640625
 10
2368.52734375
 20
-2784.75390625
 10
2358.6171875
 20
-2784.75390625
 10
2348.70703125
 20
-2774.84375
 10
2348.70703125
 20
-2764.93359375
 10
2338.796875
 20
-2755.0234375
 10
2328.88671875
 20
-2745.11328125
 10
2318.9765625
 20
-2735.203125
 10
2309.06640625
 20
-2725.29296875
 10
2299.15625
 20
-2715.3828125
 10
2299.15625
 20
-2705.47265625
 10
2289.24609375
 20
-2695.5625
 10
2279.3359375
 20
-2695.5625
 10
2269.42578125
 20
-2685.65234375
 10
2269.42578125
 20
-2675.7421875
 10
2259.515625
 20
-2665.83203125
 10
2249.60546875
 20
-2655.921875
 10
2249.60546875
 20
-2646.01171875
 10
2239.6953125
 20
-2636.1015625
 10
2239.6953125
 20
-2626.19140625
 10
2229.78515625
 20
-2616.28125
 10
2229.78515625
 20
-2606.37109375
 10
2229.78515625
 20
-2596.4609375
 10
2229.78515625
 20
-2586.55078125
 10
2229.78515625
 20
-2576.640625
 10
2229.78515625
 20
-2566.73046875
 10
2229.78515625
 20
-2556.8203125
 10
2229.78515625
 20
-2546.91015625
 10
2229.78515625
 20
-2537.0
 10
2229.78515625
 20
-2527.08984375
 10
2229.78515625
 20
-2517.1796875
 10
2229.78515625
 20
-2507.26953125
 10
2229.78515625
 20
-2497.359375
 10
2229.78515625
 20
-2487.44921875
 10
2239.6953125
 20
-2477.5390625
 10
2229.78515625
 20
-2467.62890625
 10
2229.78515625
 20
-2457.71875
 10
2229.78515625
 20
-2447.80859375
 10
2239.6953125
 20
-2437.8984375
 10
2239.6953125
 20
-2427.98828125
 10
2249.60546875
 20
-2418.078125
 10
2249.60546875
 20
-2408.16796875
 10
2259.515625
 20
-2398.2578125
 10
2259.515625
 20
-2388.34765625
 10
2269.42578125
 20
-2378.4375
 10
2279.3359375
 20
-2368.52734375
 10
2289.24609375
 20
-2368.52734375
 10
2289.24609375
 20
-2358.6171875
 10
2299.15625
 20
-2348.70703125
 10
2299.15625
 20
-2338.796875
 10
2309.06640625
 20
-2328.88671875
 10
2318.9765625
 20
-2318.9765625
 10
2328.88671875
 20
-2318.9765625
 10
2338.796875
 20
-2309.06640625
 10
2348.70703125
 20
-2299.15625
 10
2358.6171875
 20
-2289.24609375
 10
2368.52734375
 20
-2289.24609375
 10
2378.4375
 20
-2279.3359375
 10
2388.34765625
 20
-2279.3359375
 10
2398.2578125
 20
-2269.42578125
 10
2408.16796875
 20
-2259.515625
 10
2418.078125
 20
-2259.515625
 10
2427.98828125
 20
-2249.60546875
 10
2437.8984375
 20
-2249.60546875
 10
2447.80859375
 20
-2239.6953125
 10
2457.71875
 20
-2239.6953125
 10
2467.62890625
 20
-2239.6953125
 10
2477.5390625
 20
-2239.6953125
 10
2487.44921875
 20
-2239.6953125
 10
2497.359375
 20
-2239.6953125
  0
LWPOLYLINE
  5
37
330
17
100
AcDbEntity
  8
substrate
100
AcDbPolyline
 90
4
 70
1
 43
0.5
 10
525.23828125
 20
-1456.79296875
 10
535.1484375
 20
-1446.8828125
 10
545.05859375
 20
-1456.79296875
 10
535.1484375
 20
-1466.703125
  0
ENDSEC
  0
SECTION
  2
OBJECTS
  0
DICTIONARY
  5
A
330
0
100
AcDbDictionary
280
0
281
1
  3
ACAD_COLOR
350
B
  3
ACAD_GROUP
350
C
  3
ACAD_LAYOUT
350
D
  3
ACAD_MATERIAL
350
E
  3
ACAD_MLEADERSTYLE
350
F
  3
ACAD_MLINESTYLE
350
10
  3
ACAD_PLOTSETTINGS
350
11
  3
ACAD_PLOTSTYLENAME
350
12
  3
ACAD_SCALELIST
350
14
  3
ACAD_TABLESTYLE
350
15
  3
ACAD_VISUALSTYLE
350
16
  3
EZDXF_META
350
2D
  0
DICTIONARY
  5
B
330
A
100
AcDbDictionary
280
0
281
1
  0
DICTIONARY
  5
C
330
A
100
AcDbDictionary
280
0
281
1
  0
DICTIONARY
  5
D
330
A
100
AcDbDictionary
280
0
281
1
  3
Model
350
1A
  3
Layout1
350
1E
  0
DICTIONARY
  5
E
330
A
100
AcDbDictionary
280
0
281
1
  3
ByBlock
350
1F
  3
ByLayer
350
20
  3
Global
350
21
  0
DICTIONARY
  5
F
330
A
100
AcDbDictionary
280
0
281
1
  3
Standard
350
2C
  0
DICTIONARY
  5
10
330
A
100
AcDbDictionary
280
0
281
1
  3
Standard
350
22
  0
DICTIONARY
  5
11
330
A
100
AcDbDictionary
280
0
281
1
  0
ACDBDICTIONARYWDFLT
  5
12
330
A
100
AcDbDictionary
280
0
281
1
  3
Normal
350
13
100
AcDbDictionaryWithDefault
340
13
  0
ACDBPLACEHOLDER
  5
13
330
12
  0
DICTIONARY
  5
14
330
A
100
AcDbDictionary
280
0
281
1
  0
DICTIONARY
  5
15
330
A
100
AcDbDictionary
280
0
281
1
  0
DICTIONARY
  5
16
330
A
100
AcDbDictionary
280
0
281
1
  0
LAYOUT
  5
1A
330
D
100
AcDbPlotSettings
  1

  2
Adobe PDF
  4
A3
  6

 40
7.5
 41
20.0
 42
7.5
 43
20.0
 44
420.0
 45
297.0
 46
0.0
 47
0.0
 48
0.0
 49
0.0
140
0.0
141
0.0
142
1.0
143
1.0
 70
1024
 72
1
 73
0
 74
5
  7

 75
16
 76
0
 77
2
 78
300
147
1.0
148
0.0
149
0.0
100
AcDbLayout
  1
Model
 70
1
 71
0
 10
0.0
 20
0.0
 11
420.0
 21
297.0
 12
0.0
 22
0.0
 32
0.0
 14
1e+20
 24
1e+20
 34
1e+20
 15
-1e+20
 25
-1e+20
 35
-1e+20
146
0.0
 13
0.0
 23
0.0
 33
0.0
 16
1.0
 26
0.0
 36
0.0
 17
0.0
 27
1.0
 37
0.0
 76
1
330
17
  0
LAYOUT
  5
1E
330
D
100
AcDbPlotSettings
  1

  2
Adobe PDF
  4
A3
  6

 40
7.5
 41
20.0
 42
7.5
 43
20.0
 44
420.0
 45
297.0
 46
0.0
 47
0.0
 48
0.0
 49
0.0
140
0.0
141
0.0
142
1.0
143
1.0
 70
0
 72
1
 73
0
 74
5
  7

 75
16
 76
0
 77
2
 78
300
147
1.0
148
0.0
149
0.0
100
AcDbLayout
  1
Layout1
 70
1
 71
1
 10
0.0
 20
0.0
 11
420.0
 21
297.0
 12
0.0
 22
0.0
 32
0.0
 14
1e+20
 24
1e+20
 34
1e+20
 15
-1e+20
 25
-1e+20
 35
-1e+20
146
0.0
 13
0.0
 23
0.0
 33
0.0
 16
1.0
 26
0.0
 36
0.0
 17
0.0
 27
1.0
 37
0.0
 76
1
330
1B
  0
MATERIAL
  5
1F
102
{ACAD_REACTORS
330
E
102
}
330
E
100
AcDbMaterial
  1
ByBlock
  2

 70
0
 40
1.0
 71
1
 41
1.0
 91
-1023410177
 42
1.0
 72
1
  3

 73
1
 74
1
 75
1
 44
0.5
 73
0
 45
1.0
 46
1.0
 77
1
  4

 78
1
 79
1
170
1
 48
1.0
171
1
  6

172
1
173
1
174
1
140
1.0
141
1.0
175
1
  7

176
1
177
1
178
1
143
1.0
179
1
  8

270
1
271
1
272
1
145
1.0
146
1.0
273
1
  9

274
1
275
1
276
1
 42
1.0
 72
1
  3

 73
1
 74
1
 75
1
 94
63
  0
MATERIAL
  5
20
102
{ACAD_REACTORS
330
E
102
}
330
E
100
AcDbMaterial
  1
ByLayer
  2

 70
0
 40
1.0
 71
1
 41
1.0
 91
-1023410177
 42
1.0
 72
1
  3

 73
1
 74
1
 75
1
 44
0.5
 73
0
 45
1.0
 46
1.0
 77
1
  4

 78
1
 79
1
170
1
 48
1.0
171
1
  6

172
1
173
1
174
1
140
1.0
141
1.0
175
1
  7

176
1
177
1
178
1
143
1.0
179
1
  8

270
1
271
1
272
1
145
1.0
146
1.0
273
1
  9

274
1
275
1
276
1
 42
1.0
 72
1
  3

 73
1
 74
1
 75
1
 94
63
  0
MATERIAL
  5
21
102
{ACAD_REACTORS
330
E
102
}
330
E
100
AcDbMaterial
  1
Global
  2

 70
0
 40
1.0
 71
1
 41
1.0
 91
-1023410177
 42
1.0
 72
1
  3

 73
1
 74
1
 75
1
 44
0.5
 73
0
 45
1.0
 46
1.0
 77
1
  4

 78
1
 79
1
170
1
 48
1.0
171
1
  6

172
1
173
1
174
1
140
1.0
141
1.0
175
1
  7

176
1
177
1
178
1
143
1.0
179
1
  8

270
1
271
1
272
1
145
1.0
146
1.0
273
1
  9

274
1
275
1
276
1
 42
1.0
 72
1
  3

 73
1
 74
1
 75
1
 94
63
  0
MLINESTYLE
  5
22
102
{ACAD_REACTORS
330
10
102
}
330
10
100
AcDbMlineStyle
  2
Standard
 70
0
  3

 62
256
 51
90.0
 52
90.0
 71
2
 49
0.5
 62
256
  6
BYLAYER
 49
-0.5
 62
256
  6
BYLAYER
  0
MLEADERSTYLE
  5
2C
102
{ACAD_REACTORS
330
F
102
}
330
F
100
AcDbMLeaderStyle
179
2
170
2
171
1
172
0
 90
2
 40
0.0
 41
0.0
173
1
 91
-1056964608
 92
-2
290
1
 42
2.0
291
1
 43
8.0
  3
Standard
 44
4.0
300

342
29
174
1
175
1
176
0
178
1
 93
-1056964608
 45
4.0
292
0
297
0
 46
4.0
 94
-1056964608
 47
1.0
 49
1.0
140
1.0
294
1
141
0.0
177
0
142
1.0
295
0
296
0
143
3.75
271
0
272
9
273
9
  0
DICTIONARY
  5
2D
330
A
100
AcDbDictionary
281
1
  3
CREATED_BY_EZDXF
350
2E
  3
WRITTEN_BY_EZDXF
350
3A
  0
DICTIONARYVAR
  5
2E
330
2D
100
DictionaryVariables
280
0
  1
1.1.0 @ 2024-12-31T14:38:00.778517+00:00
  0
DICTIONARYVAR
  5
3A
330
2D
100
DictionaryVariables
280
0
  1
1.1.0 @ 2024-12-31T14:38:00.783072+00:00
  0
ENDSEC
  0
EOF
