  0
SECTION
  2
HEADER
  9
$ACADVER
  1
AC1027
  9
$ACADMAINTVER
 70
105
  9
$DWGCODEPAGE
  3
ANSI_1252
  9
$LASTSAVEDBY
  1
ezdxf
  9
$REQUIREDVERSIONS
160
0
  9
$INSBASE
 10
0.0
 20
0.0
 30
0.0
  9
$EXTMIN
 10
1e+20
 20
1e+20
 30
1e+20
  9
$EXTMAX
 10
-1e+20
 20
-1e+20
 30
-1e+20
  9
$LIMMIN
 10
0.0
 20
0.0
  9
$LIMMAX
 10
420.0
 20
297.0
  9
$ORTHOMODE
 70
0
  9
$REGENMODE
 70
1
  9
$FILLMODE
 70
1
  9
$QTEXTMODE
 70
0
  9
$MIRRTEXT
 70
1
  9
$LTSCALE
 40
1.0
  9
$ATTMODE
 70
1
  9
$TEXTSIZE
 40
2.5
  9
$TRACEWID
 40
1.0
  9
$TEXTSTYLE
  7
Standard
  9
$CLAYER
  8
0
  9
$CELTYPE
  6
ByLayer
  9
$CECOLOR
 62
256
  9
$CELTSCALE
 40
1.0
  9
$DISPSILH
 70
0
  9
$DIMSCALE
 40
1.0
  9
$DIMASZ
 40
2.5
  9
$DIMEXO
 40
0.625
  9
$DIMDLI
 40
3.75
  9
$DIMRND
 40
0.0
  9
$DIMDLE
 40
0.0
  9
$DIMEXE
 40
1.25
  9
$DIMTP
 40
0.0
  9
$DIMTM
 40
0.0
  9
$DIMTXT
 40
2.5
  9
$DIMCEN
 40
2.5
  9
$DIMTSZ
 40
0.0
  9
$DIMTOL
 70
0
  9
$DIMLIM
 70
0
  9
$DIMTIH
 70
0
  9
$DIMTOH
 70
0
  9
$DIMSE1
 70
0
  9
$DIMSE2
 70
0
  9
$DIMTAD
 70
1
  9
$DIMZIN
 70
8
  9
$DIMBLK
  1

  9
$DIMASO
 70
1
  9
$DIMSHO
 70
1
  9
$DIMPOST
  1

  9
$DIMAPOST
  1

  9
$DIMALT
 70
0
  9
$DIMALTD
 70
3
  9
$DIMALTF
 40
0.03937007874
  9
$DIMLFAC
 40
1.0
  9
$DIMTOFL
 70
1
  9
$DIMTVP
 40
0.0
  9
$DIMTIX
 70
0
  9
$DIMSOXD
 70
0
  9
$DIMSAH
 70
0
  9
$DIMBLK1
  1

  9
$DIMBLK2
  1

  9
$DIMSTYLE
  2
ISO-25
  9
$DIMCLRD
 70
0
  9
$DIMCLRE
 70
0
  9
$DIMCLRT
 70
0
  9
$DIMTFAC
 40
1.0
  9
$DIMGAP
 40
0.625
  9
$DIMJUST
 70
0
  9
$DIMSD1
 70
0
  9
$DIMSD2
 70
0
  9
$DIMTOLJ
 70
0
  9
$DIMTZIN
 70
8
  9
$DIMALTZ
 70
0
  9
$DIMALTTZ
 70
0
  9
$DIMUPT
 70
0
  9
$DIMDEC
 70
2
  9
$DIMTDEC
 70
2
  9
$DIMALTU
 70
2
  9
$DIMALTTD
 70
3
  9
$DIMTXSTY
  7
Standard
  9
$DIMAUNIT
 70
0
  9
$DIMADEC
 70
0
  9
$DIMALTRND
 40
0.0
  9
$DIMAZIN
 70
0
  9
$DIMDSEP
 70
44
  9
$DIMATFIT
 70
3
  9
$DIMFRAC
 70
0
  9
$DIMLDRBLK
  1

  9
$DIMLUNIT
 70
2
  9
$DIMLWD
 70
-2
  9
$DIMLWE
 70
-2
  9
$DIMTMOVE
 70
0
  9
$DIMFXL
 40
1.0
  9
$DIMFXLON
 70
0
  9
$DIMJOGANG
 40
0.785398163397
  9
$DIMTFILL
 70
0
  9
$DIMTFILLCLR
 70
0
  9
$DIMARCSYM
 70
0
  9
$DIMLTYPE
  6

  9
$DIMLTEX1
  6

  9
$DIMLTEX2
  6

  9
$DIMTXTDIRECTION
 70
0
  9
$LUNITS
 70
2
  9
$LUPREC
 70
4
  9
$SKETCHINC
 40
1.0
  9
$FILLETRAD
 40
10.0
  9
$AUNITS
 70
0
  9
$AUPREC
 70
2
  9
$MENU
  1
.
  9
$ELEVATION
 40
0.0
  9
$PELEVATION
 40
0.0
  9
$THICKNESS
 40
0.0
  9
$LIMCHECK
 70
0
  9
$CHAMFERA
 40
0.0
  9
$CHAMFERB
 40
0.0
  9
$CHAMFERC
 40
0.0
  9
$CHAMFERD
 40
0.0
  9
$SKPOLY
 70
0
  9
$TDCREATE
 40
2460683.4012152776
  9
$TDUCREATE
 40
2458532.153996898
  9
$TDUPDATE
 40
2460683.4012152776
  9
$TDUUPDATE
 40
2458532.1544311
  9
$TDINDWG
 40
0.0
  9
$TDUSRTIMER
 40
0.0
  9
$USRTIMER
 70
1
  9
$ANGBASE
 50
0.0
  9
$ANGDIR
 70
0
  9
$PDMODE
 70
0
  9
$PDSIZE
 40
0.0
  9
$PLINEWID
 40
0.0
  9
$SPLFRAME
 70
0
  9
$SPLINETYPE
 70
6
  9
$SPLINESEGS
 70
8
  9
$HANDSEED
  5
3C
  9
$SURFTAB1
 70
6
  9
$SURFTAB2
 70
6
  9
$SURFTYPE
 70
6
  9
$SURFU
 70
6
  9
$SURFV
 70
6
  9
$UCSBASE
  2

  9
$UCSNAME
  2

  9
$UCSORG
 10
0.0
 20
0.0
 30
0.0
  9
$UCSXDIR
 10
1.0
 20
0.0
 30
0.0
  9
$UCSYDIR
 10
0.0
 20
1.0
 30
0.0
  9
$UCSORTHOREF
  2

  9
$UCSORTHOVIEW
 70
0
  9
$UCSORGTOP
 10
0.0
 20
0.0
 30
0.0
  9
$UCSORGBOTTOM
 10
0.0
 20
0.0
 30
0.0
  9
$UCSORGLEFT
 10
0.0
 20
0.0
 30
0.0
  9
$UCSORGRIGHT
 10
0.0
 20
0.0
 30
0.0
  9
$UCSORGFRONT
 10
0.0
 20
0.0
 30
0.0
  9
$UCSORGBACK
 10
0.0
 20
0.0
 30
0.0
  9
$PUCSBASE
  2

  9
$PUCSNAME
  2

  9
$PUCSORG
 10
0.0
 20
0.0
 30
0.0
  9
$PUCSXDIR
 10
1.0
 20
0.0
 30
0.0
  9
$PUCSYDIR
 10
0.0
 20
1.0
 30
0.0
  9
$PUCSORTHOREF
  2

  9
$PUCSORTHOVIEW
 70
0
  9
$PUCSORGTOP
 10
0.0
 20
0.0
 30
0.0
  9
$PUCSORGBOTTOM
 10
0.0
 20
0.0
 30
0.0
  9
$PUCSORGLEFT
 10
0.0
 20
0.0
 30
0.0
  9
$PUCSORGRIGHT
 10
0.0
 20
0.0
 30
0.0
  9
$PUCSORGFRONT
 10
0.0
 20
0.0
 30
0.0
  9
$PUCSORGBACK
 10
0.0
 20
0.0
 30
0.0
  9
$USERI1
 70
0
  9
$USERI2
 70
0
  9
$USERI3
 70
0
  9
$USERI4
 70
0
  9
$USERI5
 70
0
  9
$USERR1
 40
0.0
  9
$USERR2
 40
0.0
  9
$USERR3
 40
0.0
  9
$USERR4
 40
0.0
  9
$USERR5
 40
0.0
  9
$WORLDVIEW
 70
1
  9
$SHADEDGE
 70
3
  9
$SHADEDIF
 70
70
  9
$TILEMODE
 70
1
  9
$MAXACTVP
 70
64
  9
$PINSBASE
 10
0.0
 20
0.0
 30
0.0
  9
$PLIMCHECK
 70
0
  9
$PEXTMIN
 10
1e+20
 20
1e+20
 30
1e+20
  9
$PEXTMAX
 10
-1e+20
 20
-1e+20
 30
-1e+20
  9
$PLIMMIN
 10
0.0
 20
0.0
  9
$PLIMMAX
 10
420.0
 20
297.0
  9
$UNITMODE
 70
0
  9
$VISRETAIN
 70
1
  9
$PLINEGEN
 70
0
  9
$PSLTSCALE
 70
1
  9
$TREEDEPTH
 70
3020
  9
$CMLSTYLE
  2
Standard
  9
$CMLJUST
 70
0
  9
$CMLSCALE
 40
20.0
  9
$PROXYGRAPHICS
 70
1
  9
$MEASUREMENT
 70
1
  9
$CELWEIGHT
370
-1
  9
$ENDCAPS
280
0
  9
$JOINSTYLE
280
0
  9
$LWDISPLAY
290
0
  9
$INSUNITS
 70
6
  9
$HYPERLINKBASE
  1

  9
$STYLESHEET
  1

  9
$XEDIT
290
1
  9
$CEPSNTYPE
380
0
  9
$PSTYLEMODE
290
1
  9
$FINGERPRINTGUID
  2
{30AAF8D0-E677-4098-A46F-95EDB483DFD6}
  9
$VERSIONGUID
  2
{9C5AA75D-9EBA-45EE-A94A-2B9978D70599}
  9
$EXTNAMES
290
1
  9
$PSVPSCALE
 40
0.0
  9
$OLESTARTUP
290
0
  9
$SORTENTS
280
127
  9
$INDEXCTL
280
0
  9
$HIDETEXT
280
1
  9
$XCLIPFRAME
280
0
  9
$HALOGAP
280
0
  9
$OBSCOLOR
 70
257
  9
$OBSLTYPE
280
0
  9
$INTERSECTIONDISPLAY
280
0
  9
$INTERSECTIONCOLOR
 70
257
  9
$DIMASSOC
280
2
  9
$PROJECTNAME
  1

  9
$CAMERADISPLAY
290
0
  9
$LENSLENGTH
 40
50.0
  9
$CAMERAHEIGHT
 40
0.0
  9
$STEPSPERSEC
 40
24.0
  9
$STEPSIZE
 40
100.0
  9
$3DDWFPREC
 40
2.0
  9
$PSOLWIDTH
 40
0.005
  9
$PSOLHEIGHT
 40
0.08
  9
$LOFTANG1
 40
1.570796326795
  9
$LOFTANG2
 40
1.570796326795
  9
$LOFTMAG1
 40
0.0
  9
$LOFTMAG2
 40
0.0
  9
$LOFTPARAM
 70
7
  9
$LOFTNORMALS
280
1
  9
$LATITUDE
 40
37.795
  9
$LONGITUDE
 40
-122.394
  9
$NORTHDIRECTION
 40
0.0
  9
$TIMEZONE
 70
-8000
  9
$LIGHTGLYPHDISPLAY
280
1
  9
$TILEMODELIGHTSYNCH
280
1
  9
$CMATERIAL
347
20
  9
$SOLIDHIST
280
0
  9
$SHOWHIST
280
1
  9
$DWFFRAME
280
2
  9
$DGNFRAME
280
2
  9
$REALWORLDSCALE
290
1
  9
$INTERFERECOLOR
 62
256
  9
$CSHADOW
280
0
  9
$SHADOWPLANELOCATION
 40
0.0
  0
ENDSEC
  0
SECTION
  2
CLASSES
  0
CLASS
  1
ACDBDICTIONARYWDFLT
  2
AcDbDictionaryWithDefault
  3
ObjectDBX Classes
 90
0
 91
0
280
0
281
0
  0
CLASS
  1
SUN
  2
AcDbSun
  3
SCENEOE
 90
1153
 91
0
280
0
281
0
  0
CLASS
  1
VISUALSTYLE
  2
AcDbVisualStyle
  3
ObjectDBX Classes
 90
4095
 91
0
280
0
281
0
  0
CLASS
  1
MATERIAL
  2
AcDbMaterial
  3
ObjectDBX Classes
 90
1153
 91
0
280
0
281
0
  0
CLASS
  1
SCALE
  2
AcDbScale
  3
ObjectDBX Classes
 90
1153
 91
0
280
0
281
0
  0
CLASS
  1
TABLESTYLE
  2
AcDbTableStyle
  3
ObjectDBX Classes
 90
4095
 91
0
280
0
281
0
  0
CLASS
  1
MLEADERSTYLE
  2
AcDbMLeaderStyle
  3
ACDB_MLEADERSTYLE_CLASS
 90
4095
 91
0
280
0
281
0
  0
CLASS
  1
DICTIONARYVAR
  2
AcDbDictionaryVar
  3
ObjectDBX Classes
 90
0
 91
0
280
0
281
0
  0
CLASS
  1
CELLSTYLEMAP
  2
AcDbCellStyleMap
  3
ObjectDBX Classes
 90
1152
 91
0
280
0
281
0
  0
CLASS
  1
MENTALRAYRENDERSETTINGS
  2
AcDbMentalRayRenderSettings
  3
SCENEOE
 90
1024
 91
0
280
0
281
0
  0
CLASS
  1
ACDBDETAILVIEWSTYLE
  2
AcDbDetailViewStyle
  3
ObjectDBX Classes
 90
1025
 91
0
280
0
281
0
  0
CLASS
  1
ACDBSECTIONVIEWSTYLE
  2
AcDbSectionViewStyle
  3
ObjectDBX Classes
 90
1025
 91
0
280
0
281
0
  0
CLASS
  1
RASTERVARIABLES
  2
AcDbRasterVariables
  3
ISM
 90
0
 91
0
280
0
281
0
  0
CLASS
  1
LAYOUT
  2
AcDbLayout
  3
ObjectDBX Classes
 90
0
 91
0
280
0
281
0
  0
CLASS
  1
ACDBPLACEHOLDER
  2
AcDbPlaceHolder
  3
ObjectDBX Classes
 90
0
 91
0
280
0
281
0
  0
ENDSEC
  0
SECTION
  2
TABLES
  0
TABLE
  2
VPORT
  5
8
330
0
100
AcDbSymbolTable
 70
1
  0
VPORT
  5
23
330
8
100
AcDbSymbolTableRecord
100
AcDbViewportTableRecord
  2
*Active
 70
0
 10
0.0
 20
0.0
 11
1.0
 21
1.0
 12
0.0
 22
0.0
 13
0.0
 23
0.0
 14
0.5
 24
0.5
 15
0.5
 25
0.5
 16
0.0
 26
0.0
 36
1.0
 17
0.0
 27
0.0
 37
0.0
 40
1000.0
 41
1.34
 42
50.0
 43
0.0
 44
0.0
 50
0.0
 51
0.0
 71
0
 72
1000
 73
1
 74
3
 75
0
 76
0
 77
0
 78
0
281
0
 65
0
146
0.0
  0
ENDTAB
  0
TABLE
  2
LTYPE
  5
2
330
0
100
AcDbSymbolTable
 70
3
  0
LTYPE
  5
24
330
2
100
AcDbSymbolTableRecord
100
AcDbLinetypeTableRecord
  2
ByBlock
 70
0
  3

 72
65
 73
0
 40
0.0
  0
LTYPE
  5
25
330
2
100
AcDbSymbolTableRecord
100
AcDbLinetypeTableRecord
  2
ByLayer
 70
0
  3

 72
65
 73
0
 40
0.0
  0
LTYPE
  5
26
330
2
100
AcDbSymbolTableRecord
100
AcDbLinetypeTableRecord
  2
Continuous
 70
0
  3

 72
65
 73
0
 40
0.0
  0
ENDTAB
  0
TABLE
  2
LAYER
  5
1
330
0
100
AcDbSymbolTable
 70
5
  0
LAYER
  5
27
330
1
100
AcDbSymbolTableRecord
100
AcDbLayerTableRecord
  2
0
 70
0
 62
7
  6
Continuous
370
-3
390
13
347
21
  0
LAYER
  5
28
330
1
100
AcDbSymbolTableRecord
100
AcDbLayerTableRecord
  2
Defpoints
 70
0
 62
7
  6
Continuous
290
0
370
-3
390
13
347
21
  0
LAYER
  5
2F
330
1
100
AcDbSymbolTableRecord
100
AcDbLayerTableRecord
  2
conductor
 70
0
 62
1
  6
Continuous
370
-3
390
13
347
21
  0
LAYER
  5
30
330
1
100
AcDbSymbolTableRecord
100
AcDbLayerTableRecord
  2
dielectric
 70
0
 62
8
  6
Continuous
370
-3
390
13
347
21
  0
LAYER
  5
31
330
1
100
AcDbSymbolTableRecord
100
AcDbLayerTableRecord
  2
substrate
 70
0
 62
5
  6
Continuous
370
-3
390
13
347
21
  0
ENDTAB
  0
TABLE
  2
STYLE
  5
5
330
0
100
AcDbSymbolTable
 70
1
  0
STYLE
  5
29
330
5
100
AcDbSymbolTableRecord
100
AcDbTextStyleTableRecord
  2
Standard
 70
0
 40
0.0
 41
1.0
 50
0.0
 71
0
 42
2.5
  3
txt
  4

  0
ENDTAB
  0
TABLE
  2
VIEW
  5
7
330
0
100
AcDbSymbolTable
 70
0
  0
ENDTAB
  0
TABLE
  2
UCS
  5
6
330
0
100
AcDbSymbolTable
 70
0
  0
ENDTAB
  0
TABLE
  2
APPID
  5
3
330
0
100
AcDbSymbolTable
 70
3
  0
APPID
  5
2A
330
3
100
AcDbSymbolTableRecord
100
AcDbRegAppTableRecord
  2
ACAD
 70
0
  0
APPID
  5
39
330
3
100
AcDbSymbolTableRecord
100
AcDbRegAppTableRecord
  2
HATCHBACKGROUNDCOLOR
 70
0
  0
APPID
  5
3A
330
3
100
AcDbSymbolTableRecord
100
AcDbRegAppTableRecord
  2
EZDXF
 70
0
  0
ENDTAB
  0
TABLE
  2
DIMSTYLE
  5
4
330
0
100
AcDbSymbolTable
 70
1
100
AcDbDimStyleTable
  0
DIMSTYLE
105
2B
330
4
100
AcDbSymbolTableRecord
100
AcDbDimStyleTableRecord
  2
Standard
 70
0
 40
1.0
 41
2.5
 42
0.625
 43
3.75
 44
1.25
 45
0.0
 46
0.0
 47
0.0
 48
0.0
 49
2.5
140
2.5
141
2.5
142
0.0
143
0.03937007874
144
1.0
145
0.0
146
1.0
147
0.625
148
0.0
 69
0
 70
0
 71
0
 72
0
 73
0
 74
0
 75
0
 76
0
 77
1
 78
8
 79
3
170
0
171
3
172
1
173
0
174
0
175
0
176
0
177
0
178
0
179
2
271
2
272
2
273
2
274
3
275
0
276
0
277
2
278
44
279
0
280
0
281
0
282
0
283
0
284
8
285
0
286
0
288
0
289
3
290
0
371
-2
372
-2
  0
ENDTAB
  0
TABLE
  2
BLOCK_RECORD
  5
9
330
0
100
AcDbSymbolTable
 70
2
  0
BLOCK_RECORD
  5
17
330
9
100
AcDbSymbolTableRecord
100
AcDbBlockTableRecord
  2
*Model_Space
340
1A
 70
0
280
1
281
0
  0
BLOCK_RECORD
  5
1B
330
9
100
AcDbSymbolTableRecord
100
AcDbBlockTableRecord
  2
*Paper_Space
340
1E
 70
0
280
1
281
0
  0
ENDTAB
  0
ENDSEC
  0
SECTION
  2
BLOCKS
  0
BLOCK
  5
18
330
17
100
AcDbEntity
  8
0
100
AcDbBlockBegin
  2
*Model_Space
 70
0
 10
0.0
 20
0.0
 30
0.0
  3
*Model_Space
  1

  0
ENDBLK
  5
19
330
17
100
AcDbEntity
  8
0
100
AcDbBlockEnd
  0
BLOCK
  5
1C
330
1B
100
AcDbEntity
  8
0
100
AcDbBlockBegin
  2
*Paper_Space
 70
0
 10
0.0
 20
0.0
 30
0.0
  3
*Paper_Space
  1

  0
ENDBLK
  5
1D
330
1B
100
AcDbEntity
  8
0
100
AcDbBlockEnd
  0
ENDSEC
  0
SECTION
  2
ENTITIES
  0
LWPOLYLINE
  5
32
330
17
100
AcDbEntity
  8
conductor
100
AcDbPolyline
 90
192
 70
1
 43
0.5
 10
2470.3125
 20
-2221.2890625
 10
2460.3515625
 20
-2231.25
 10
2450.390625
 20
-2231.25
 10
2440.4296875
 20
-2231.25
 10
2430.46875
 20
-2241.2109375
 10
2420.5078125
 20
-2251.171875
 10
2410.546875
 20
-2251.171875
 10
2400.5859375
 20
-2251.171875
 10
2390.625
 20
-2261.1328125
 10
2380.6640625
 20
-2271.09375
 10
2370.703125
 20
-2271.09375
 10
2360.7421875
 20
-2271.09375
 10
2360.7421875
 20
-2281.0546875
 10
2350.78125
 20
-2291.015625
 10
2340.8203125
 20
-2291.015625
 10
2330.859375
 20
-2300.9765625
 10
2320.8984375
 20
-2300.9765625
 10
2310.9375
 20
-2310.9375
 10
2300.9765625
 20
-2320.8984375
 10
2291.015625
 20
-2330.859375
 10
2281.0546875
 20
-2340.8203125
 10
2281.0546875
 20
-2350.78125
 10
2271.09375
 20
-2360.7421875
 10
2271.09375
 20
-2370.703125
 10
2261.1328125
 20
-2380.6640625
 10
2261.1328125
 20
-2390.625
 10
2251.171875
 20
-2400.5859375
 10
2241.2109375
 20
-2410.546875
 10
2251.171875
 20
-2420.5078125
 10
2241.2109375
 20
-2430.46875
 10
2241.2109375
 20
-2440.4296875
 10
2231.25
 20
-2450.390625
 10
2231.25
 20
-2460.3515625
 10
2221.2890625
 20
-2470.3125
 10
2221.2890625
 20
-2480.2734375
 10
2221.2890625
 20
-2490.234375
 10
2221.2890625
 20
-2500.1953125
 10
2221.2890625
 20
-2510.15625
 10
2221.2890625
 20
-2520.1171875
 10
2221.2890625
 20
-2530.078125
 10
2221.2890625
 20
-2540.0390625
 10
2211.328125
 20
-2550.0
 10
2211.328125
 20
-2559.9609375
 10
2211.328125
 20
-2569.921875
 10
2221.2890625
 20
-2579.8828125
 10
2221.2890625
 20
-2589.84375
 10
2221.2890625
 20
-2599.8046875
 10
2221.2890625
 20
-2609.765625
 10
2221.2890625
 20
-2619.7265625
 10
2231.25
 20
-2629.6875
 10
2231.25
 20
-2639.6484375
 10
2231.25
 20
-2649.609375
 10
2231.25
 20
-2659.5703125
 10
2241.2109375
 20
-2669.53125
 10
2241.2109375
 20
-2679.4921875
 10
2251.171875
 20
-2689.453125
 10
2261.1328125
 20
-2699.4140625
 10
2261.1328125
 20
-2709.375
 10
2271.09375
 20
-2719.3359375
 10
2271.09375
 20
-2729.296875
 10
2271.09375
 20
-2739.2578125
 10
2281.0546875
 20
-2739.2578125
 10
2291.015625
 20
-2749.21875
 10
2291.015625
 20
-2759.1796875
 10
2300.9765625
 20
-2769.140625
 10
2310.9375
 20
-2779.1015625
 10
2320.8984375
 20
-2789.0625
 10
2330.859375
 20
-2799.0234375
 10
2340.8203125
 20
-2808.984375
 10
2350.78125
 20
-2818.9453125
 10
2360.7421875
 20
-2818.9453125
 10
2370.703125
 20
-2828.90625
 10
2380.6640625
 20
-2828.90625
 10
2390.625
 20
-2838.8671875
 10
2400.5859375
 20
-2838.8671875
 10
2410.546875
 20
-2848.828125
 10
2420.5078125
 20
-2848.828125
 10
2430.46875
 20
-2858.7890625
 10
2440.4296875
 20
-2858.7890625
 10
2450.390625
 20
-2858.7890625
 10
2460.3515625
 20
-2858.7890625
 10
2470.3125
 20
-2858.7890625
 10
2480.2734375
 20
-2868.75
 10
2490.234375
 20
-2868.75
 10
2500.1953125
 20
-2868.75
 10
2510.15625
 20
-2868.75
 10
2520.1171875
 20
-2878.7109375
 10
2530.078125
 20
-2878.7109375
 10
2540.0390625
 20
-2878.7109375
 10
2550.0
 20
-2878.7109375
 10
2559.9609375
 20
-2878.7109375
 10
2569.921875
 20
-2878.7109375
 10
2579.8828125
 20
-2868.75
 10
2589.84375
 20
-2868.75
 10
2599.8046875
 20
-2868.75
 10
2609.765625
 20
-2868.75
 10
2619.7265625
 20
-2858.7890625
 10
2629.6875
 20
-2858.7890625
 10
2639.6484375
 20
-2858.7890625
 10
2649.609375
 20
-2858.7890625
 10
2659.5703125
 20
-2848.828125
 10
2669.53125
 20
-2848.828125
 10
2679.4921875
 20
-2838.8671875
 10
2689.453125
 20
-2838.8671875
 10
2699.4140625
 20
-2838.8671875
 10
2709.375
 20
-2828.90625
 10
2719.3359375
 20
-2818.9453125
 10
2729.296875
 20
-2818.9453125
 10
2739.2578125
 20
-2808.984375
 10
2749.21875
 20
-2808.984375
 10
2749.21875
 20
-2799.0234375
 10
2759.1796875
 20
-2789.0625
 10
2769.140625
 20
-2789.0625
 10
2779.1015625
 20
-2779.1015625
 10
2789.0625
 20
-2769.140625
 10
2799.0234375
 20
-2759.1796875
 10
2799.0234375
 20
-2749.21875
 10
2808.984375
 20
-2739.2578125
 10
2808.984375
 20
-2729.296875
 10
2818.9453125
 20
-2719.3359375
 10
2828.90625
 20
-2709.375
 10
2838.8671875
 20
-2699.4140625
 10
2848.828125
 20
-2689.453125
 10
2838.8671875
 20
-2679.4921875
 10
2848.828125
 20
-2669.53125
 10
2858.7890625
 20
-2669.53125
 10
2858.7890625
 20
-2659.5703125
 10
2858.7890625
 20
-2649.609375
 10
2858.7890625
 20
-2639.6484375
 10
2858.7890625
 20
-2629.6875
 10
2868.75
 20
-2619.7265625
 10
2868.75
 20
-2609.765625
 10
2878.7109375
 20
-2599.8046875
 10
2878.7109375
 20
-2589.84375
 10
2878.7109375
 20
-2579.8828125
 10
2878.7109375
 20
-2569.921875
 10
2868.75
 20
-2559.9609375
 10
2878.7109375
 20
-2550.0
 10
2878.7109375
 20
-2540.0390625
 10
2878.7109375
 20
-2530.078125
 10
2878.7109375
 20
-2520.1171875
 10
2878.7109375
 20
-2510.15625
 10
2878.7109375
 20
-2500.1953125
 10
2868.75
 20
-2490.234375
 10
2868.75
 20
-2480.2734375
 10
2868.75
 20
-2470.3125
 10
2868.75
 20
-2460.3515625
 10
2858.7890625
 20
-2450.390625
 10
2858.7890625
 20
-2440.4296875
 10
2858.7890625
 20
-2430.46875
 10
2848.828125
 20
-2420.5078125
 10
2848.828125
 20
-2410.546875
 10
2848.828125
 20
-2400.5859375
 10
2838.8671875
 20
-2390.625
 10
2838.8671875
 20
-2380.6640625
 10
2828.90625
 20
-2370.703125
 10
2818.9453125
 20
-2360.7421875
 10
2818.9453125
 20
-2350.78125
 10
2808.984375
 20
-2340.8203125
 10
2799.0234375
 20
-2330.859375
 10
2789.0625
 20
-2320.8984375
 10
2779.1015625
 20
-2310.9375
 10
2769.140625
 20
-2300.9765625
 10
2759.1796875
 20
-2291.015625
 10
2749.21875
 20
-2291.015625
 10
2739.2578125
 20
-2281.0546875
 10
2729.296875
 20
-2271.09375
 10
2719.3359375
 20
-2261.1328125
 10
2709.375
 20
-2261.1328125
 10
2699.4140625
 20
-2251.171875
 10
2689.453125
 20
-2251.171875
 10
2679.4921875
 20
-2241.2109375
 10
2669.53125
 20
-2241.2109375
 10
2659.5703125
 20
-2241.2109375
 10
2649.609375
 20
-2241.2109375
 10
2639.6484375
 20
-2231.25
 10
2629.6875
 20
-2231.25
 10
2619.7265625
 20
-2221.2890625
 10
2609.765625
 20
-2221.2890625
 10
2599.8046875
 20
-2221.2890625
 10
2589.84375
 20
-2221.2890625
 10
2579.8828125
 20
-2221.2890625
 10
2569.921875
 20
-2221.2890625
 10
2559.9609375
 20
-2221.2890625
 10
2550.0
 20
-2221.2890625
 10
2540.0390625
 20
-2221.2890625
 10
2530.078125
 20
-2221.2890625
 10
2520.1171875
 20
-2221.2890625
 10
2510.15625
 20
-2221.2890625
 10
2500.1953125
 20
-2221.2890625
 10
2490.234375
 20
-2221.2890625
 10
2480.2734375
 20
-2221.2890625
  0
LWPOLYLINE
  5
33
330
17
100
AcDbEntity
  8
conductor
100
AcDbPolyline
 90
4
 70
1
 43
0.5
 10
2699.4140625
 20
-2460.3515625
 10
2709.375
 20
-2450.390625
 10
2719.3359375
 20
-2460.3515625
 10
2709.375
 20
-2470.3125
  0
LWPOLYLINE
  5
34
330
17
100
AcDbEntity
  8
conductor
100
AcDbPolyline
 90
4
 70
1
 43
0.5
 10
2699.4140625
 20
-2430.46875
 10
2709.375
 20
-2420.5078125
 10
2719.3359375
 20
-2430.46875
 10
2709.375
 20
-2440.4296875
  0
LWPOLYLINE
  5
35
330
17
100
AcDbEntity
  8
conductor
100
AcDbPolyline
 90
12
 70
1
 43
0.5
 10
2679.4921875
 20
-2370.703125
 10
2689.453125
 20
-2360.7421875
 10
2699.4140625
 20
-2370.703125
 10
2699.4140625
 20
-2380.6640625
 10
2699.4140625
 20
-2390.625
 10
2699.4140625
 20
-2400.5859375
 10
2699.4140625
 20
-2410.546875
 10
2689.453125
 20
-2420.5078125
 10
2679.4921875
 20
-2410.546875
 10
2669.53125
 20
-2400.5859375
 10
2669.53125
 20
-2390.625
 10
2679.4921875
 20
-2380.6640625
  0
LWPOLYLINE
  5
36
330
17
100
AcDbEntity
  8
substrate
100
AcDbPolyline
 90
2044
 70
1
 43
0.5
 10
0.0
 20
-0.0
 10
0.0
 20
-9.9609375
 10
0.0
 20
-19.921875
 10
0.0
 20
-29.8828125
 10
0.0
 20
-39.84375
 10
0.0
 20
-49.8046875
 10
0.0
 20
-59.765625
 10
0.0
 20
-69.7265625
 10
0.0
 20
-79.6875
 10
0.0
 20
-89.6484375
 10
0.0
 20
-99.609375
 10
0.0
 20
-109.5703125
 10
0.0
 20
-119.53125
 10
0.0
 20
-129.4921875
 10
0.0
 20
-139.453125
 10
0.0
 20
-149.4140625
 10
0.0
 20
-159.375
 10
0.0
 20
-169.3359375
 10
0.0
 20
-179.296875
 10
0.0
 20
-189.2578125
 10
0.0
 20
-199.21875
 10
0.0
 20
-209.1796875
 10
0.0
 20
-219.140625
 10
0.0
 20
-229.1015625
 10
0.0
 20
-239.0625
 10
0.0
 20
-249.0234375
 10
0.0
 20
-258.984375
 10
0.0
 20
-268.9453125
 10
0.0
 20
-278.90625
 10
0.0
 20
-288.8671875
 10
0.0
 20
-298.828125
 10
0.0
 20
-308.7890625
 10
0.0
 20
-318.75
 10
0.0
 20
-328.7109375
 10
0.0
 20
-338.671875
 10
0.0
 20
-348.6328125
 10
0.0
 20
-358.59375
 10
0.0
 20
-368.5546875
 10
0.0
 20
-378.515625
 10
0.0
 20
-388.4765625
 10
0.0
 20
-398.4375
 10
0.0
 20
-408.3984375
 10
0.0
 20
-418.359375
 10
0.0
 20
-428.3203125
 10
0.0
 20
-438.28125
 10
0.0
 20
-448.2421875
 10
0.0
 20
-458.203125
 10
0.0
 20
-468.1640625
 10
0.0
 20
-478.125
 10
0.0
 20
-488.0859375
 10
0.0
 20
-498.046875
 10
0.0
 20
-508.0078125
 10
0.0
 20
-517.96875
 10
0.0
 20
-527.9296875
 10
0.0
 20
-537.890625
 10
0.0
 20
-547.8515625
 10
0.0
 20
-557.8125
 10
0.0
 20
-567.7734375
 10
0.0
 20
-577.734375
 10
0.0
 20
-587.6953125
 10
0.0
 20
-597.65625
 10
0.0
 20
-607.6171875
 10
0.0
 20
-617.578125
 10
0.0
 20
-627.5390625
 10
0.0
 20
-637.5
 10
0.0
 20
-647.4609375
 10
0.0
 20
-657.421875
 10
0.0
 20
-667.3828125
 10
0.0
 20
-677.34375
 10
0.0
 20
-687.3046875
 10
0.0
 20
-697.265625
 10
0.0
 20
-707.2265625
 10
0.0
 20
-717.1875
 10
0.0
 20
-727.1484375
 10
0.0
 20
-737.109375
 10
0.0
 20
-747.0703125
 10
0.0
 20
-757.03125
 10
0.0
 20
-766.9921875
 10
0.0
 20
-776.953125
 10
0.0
 20
-786.9140625
 10
0.0
 20
-796.875
 10
0.0
 20
-806.8359375
 10
0.0
 20
-816.796875
 10
0.0
 20
-826.7578125
 10
0.0
 20
-836.71875
 10
0.0
 20
-846.6796875
 10
0.0
 20
-856.640625
 10
0.0
 20
-866.6015625
 10
0.0
 20
-876.5625
 10
0.0
 20
-886.5234375
 10
0.0
 20
-896.484375
 10
0.0
 20
-906.4453125
 10
0.0
 20
-916.40625
 10
0.0
 20
-926.3671875
 10
0.0
 20
-936.328125
 10
0.0
 20
-946.2890625
 10
0.0
 20
-956.25
 10
0.0
 20
-966.2109375
 10
0.0
 20
-976.171875
 10
0.0
 20
-986.1328125
 10
0.0
 20
-996.09375
 10
0.0
 20
-1006.0546875
 10
0.0
 20
-1016.015625
 10
0.0
 20
-1025.9765625
 10
0.0
 20
-1035.9375
 10
0.0
 20
-1045.8984375
 10
0.0
 20
-1055.859375
 10
0.0
 20
-1065.8203125
 10
0.0
 20
-1075.78125
 10
0.0
 20
-1085.7421875
 10
0.0
 20
-1095.703125
 10
0.0
 20
-1105.6640625
 10
0.0
 20
-1115.625
 10
0.0
 20
-1125.5859375
 10
0.0
 20
-1135.546875
 10
0.0
 20
-1145.5078125
 10
0.0
 20
-1155.46875
 10
0.0
 20
-1165.4296875
 10
0.0
 20
-1175.390625
 10
0.0
 20
-1185.3515625
 10
0.0
 20
-1195.3125
 10
0.0
 20
-1205.2734375
 10
0.0
 20
-1215.234375
 10
0.0
 20
-1225.1953125
 10
0.0
 20
-1235.15625
 10
0.0
 20
-1245.1171875
 10
0.0
 20
-1255.078125
 10
0.0
 20
-1265.0390625
 10
0.0
 20
-1275.0
 10
0.0
 20
-1284.9609375
 10
0.0
 20
-1294.921875
 10
0.0
 20
-1304.8828125
 10
0.0
 20
-1314.84375
 10
0.0
 20
-1324.8046875
 10
0.0
 20
-1334.765625
 10
0.0
 20
-1344.7265625
 10
0.0
 20
-1354.6875
 10
0.0
 20
-1364.6484375
 10
0.0
 20
-1374.609375
 10
0.0
 20
-1384.5703125
 10
0.0
 20
-1394.53125
 10
0.0
 20
-1404.4921875
 10
0.0
 20
-1414.453125
 10
0.0
 20
-1424.4140625
 10
0.0
 20
-1434.375
 10
0.0
 20
-1444.3359375
 10
0.0
 20
-1454.296875
 10
0.0
 20
-1464.2578125
 10
0.0
 20
-1474.21875
 10
0.0
 20
-1484.1796875
 10
0.0
 20
-1494.140625
 10
0.0
 20
-1504.1015625
 10
0.0
 20
-1514.0625
 10
0.0
 20
-1524.0234375
 10
0.0
 20
-1533.984375
 10
0.0
 20
-1543.9453125
 10
0.0
 20
-1553.90625
 10
0.0
 20
-1563.8671875
 10
0.0
 20
-1573.828125
 10
0.0
 20
-1583.7890625
 10
0.0
 20
-1593.75
 10
0.0
 20
-1603.7109375
 10
0.0
 20
-1613.671875
 10
0.0
 20
-1623.6328125
 10
0.0
 20
-1633.59375
 10
0.0
 20
-1643.5546875
 10
0.0
 20
-1653.515625
 10
0.0
 20
-1663.4765625
 10
0.0
 20
-1673.4375
 10
0.0
 20
-1683.3984375
 10
0.0
 20
-1693.359375
 10
0.0
 20
-1703.3203125
 10
0.0
 20
-1713.28125
 10
0.0
 20
-1723.2421875
 10
0.0
 20
-1733.203125
 10
0.0
 20
-1743.1640625
 10
0.0
 20
-1753.125
 10
0.0
 20
-1763.0859375
 10
0.0
 20
-1773.046875
 10
0.0
 20
-1783.0078125
 10
0.0
 20
-1792.96875
 10
0.0
 20
-1802.9296875
 10
0.0
 20
-1812.890625
 10
0.0
 20
-1822.8515625
 10
0.0
 20
-1832.8125
 10
0.0
 20
-1842.7734375
 10
0.0
 20
-1852.734375
 10
0.0
 20
-1862.6953125
 10
0.0
 20
-1872.65625
 10
0.0
 20
-1882.6171875
 10
0.0
 20
-1892.578125
 10
0.0
 20
-1902.5390625
 10
0.0
 20
-1912.5
 10
0.0
 20
-1922.4609375
 10
0.0
 20
-1932.421875
 10
0.0
 20
-1942.3828125
 10
0.0
 20
-1952.34375
 10
0.0
 20
-1962.3046875
 10
0.0
 20
-1972.265625
 10
0.0
 20
-1982.2265625
 10
0.0
 20
-1992.1875
 10
0.0
 20
-2002.1484375
 10
0.0
 20
-2012.109375
 10
0.0
 20
-2022.0703125
 10
0.0
 20
-2032.03125
 10
0.0
 20
-2041.9921875
 10
0.0
 20
-2051.953125
 10
0.0
 20
-2061.9140625
 10
0.0
 20
-2071.875
 10
0.0
 20
-2081.8359375
 10
0.0
 20
-2091.796875
 10
0.0
 20
-2101.7578125
 10
0.0
 20
-2111.71875
 10
0.0
 20
-2121.6796875
 10
0.0
 20
-2131.640625
 10
0.0
 20
-2141.6015625
 10
0.0
 20
-2151.5625
 10
0.0
 20
-2161.5234375
 10
0.0
 20
-2171.484375
 10
0.0
 20
-2181.4453125
 10
0.0
 20
-2191.40625
 10
0.0
 20
-2201.3671875
 10
0.0
 20
-2211.328125
 10
0.0
 20
-2221.2890625
 10
0.0
 20
-2231.25
 10
0.0
 20
-2241.2109375
 10
0.0
 20
-2251.171875
 10
0.0
 20
-2261.1328125
 10
0.0
 20
-2271.09375
 10
0.0
 20
-2281.0546875
 10
0.0
 20
-2291.015625
 10
0.0
 20
-2300.9765625
 10
0.0
 20
-2310.9375
 10
0.0
 20
-2320.8984375
 10
0.0
 20
-2330.859375
 10
0.0
 20
-2340.8203125
 10
0.0
 20
-2350.78125
 10
0.0
 20
-2360.7421875
 10
0.0
 20
-2370.703125
 10
0.0
 20
-2380.6640625
 10
0.0
 20
-2390.625
 10
0.0
 20
-2400.5859375
 10
0.0
 20
-2410.546875
 10
0.0
 20
-2420.5078125
 10
0.0
 20
-2430.46875
 10
0.0
 20
-2440.4296875
 10
0.0
 20
-2450.390625
 10
0.0
 20
-2460.3515625
 10
0.0
 20
-2470.3125
 10
0.0
 20
-2480.2734375
 10
0.0
 20
-2490.234375
 10
0.0
 20
-2500.1953125
 10
0.0
 20
-2510.15625
 10
0.0
 20
-2520.1171875
 10
0.0
 20
-2530.078125
 10
0.0
 20
-2540.0390625
 10
0.0
 20
-2550.0
 10
0.0
 20
-2559.9609375
 10
0.0
 20
-2569.921875
 10
0.0
 20
-2579.8828125
 10
0.0
 20
-2589.84375
 10
0.0
 20
-2599.8046875
 10
0.0
 20
-2609.765625
 10
0.0
 20
-2619.7265625
 10
0.0
 20
-2629.6875
 10
0.0
 20
-2639.6484375
 10
0.0
 20
-2649.609375
 10
0.0
 20
-2659.5703125
 10
0.0
 20
-2669.53125
 10
0.0
 20
-2679.4921875
 10
0.0
 20
-2689.453125
 10
0.0
 20
-2699.4140625
 10
0.0
 20
-2709.375
 10
0.0
 20
-2719.3359375
 10
0.0
 20
-2729.296875
 10
0.0
 20
-2739.2578125
 10
0.0
 20
-2749.21875
 10
0.0
 20
-2759.1796875
 10
0.0
 20
-2769.140625
 10
0.0
 20
-2779.1015625
 10
0.0
 20
-2789.0625
 10
0.0
 20
-2799.0234375
 10
0.0
 20
-2808.984375
 10
0.0
 20
-2818.9453125
 10
0.0
 20
-2828.90625
 10
0.0
 20
-2838.8671875
 10
0.0
 20
-2848.828125
 10
0.0
 20
-2858.7890625
 10
0.0
 20
-2868.75
 10
0.0
 20
-2878.7109375
 10
0.0
 20
-2888.671875
 10
0.0
 20
-2898.6328125
 10
0.0
 20
-2908.59375
 10
0.0
 20
-2918.5546875
 10
0.0
 20
-2928.515625
 10
0.0
 20
-2938.4765625
 10
0.0
 20
-2948.4375
 10
0.0
 20
-2958.3984375
 10
0.0
 20
-2968.359375
 10
0.0
 20
-2978.3203125
 10
0.0
 20
-2988.28125
 10
0.0
 20
-2998.2421875
 10
0.0
 20
-3008.203125
 10
0.0
 20
-3018.1640625
 10
0.0
 20
-3028.125
 10
0.0
 20
-3038.0859375
 10
0.0
 20
-3048.046875
 10
0.0
 20
-3058.0078125
 10
0.0
 20
-3067.96875
 10
0.0
 20
-3077.9296875
 10
0.0
 20
-3087.890625
 10
0.0
 20
-3097.8515625
 10
0.0
 20
-3107.8125
 10
0.0
 20
-3117.7734375
 10
0.0
 20
-3127.734375
 10
0.0
 20
-3137.6953125
 10
0.0
 20
-3147.65625
 10
0.0
 20
-3157.6171875
 10
0.0
 20
-3167.578125
 10
0.0
 20
-3177.5390625
 10
0.0
 20
-3187.5
 10
0.0
 20
-3197.4609375
 10
0.0
 20
-3207.421875
 10
0.0
 20
-3217.3828125
 10
0.0
 20
-3227.34375
 10
0.0
 20
-3237.3046875
 10
0.0
 20
-3247.265625
 10
0.0
 20
-3257.2265625
 10
0.0
 20
-3267.1875
 10
0.0
 20
-3277.1484375
 10
0.0
 20
-3287.109375
 10
0.0
 20
-3297.0703125
 10
0.0
 20
-3307.03125
 10
0.0
 20
-3316.9921875
 10
0.0
 20
-3326.953125
 10
0.0
 20
-3336.9140625
 10
0.0
 20
-3346.875
 10
0.0
 20
-3356.8359375
 10
0.0
 20
-3366.796875
 10
0.0
 20
-3376.7578125
 10
0.0
 20
-3386.71875
 10
0.0
 20
-3396.6796875
 10
0.0
 20
-3406.640625
 10
0.0
 20
-3416.6015625
 10
0.0
 20
-3426.5625
 10
0.0
 20
-3436.5234375
 10
0.0
 20
-3446.484375
 10
0.0
 20
-3456.4453125
 10
0.0
 20
-3466.40625
 10
0.0
 20
-3476.3671875
 10
0.0
 20
-3486.328125
 10
0.0
 20
-3496.2890625
 10
0.0
 20
-3506.25
 10
0.0
 20
-3516.2109375
 10
0.0
 20
-3526.171875
 10
0.0
 20
-3536.1328125
 10
0.0
 20
-3546.09375
 10
0.0
 20
-3556.0546875
 10
0.0
 20
-3566.015625
 10
0.0
 20
-3575.9765625
 10
0.0
 20
-3585.9375
 10
0.0
 20
-3595.8984375
 10
0.0
 20
-3605.859375
 10
0.0
 20
-3615.8203125
 10
0.0
 20
-3625.78125
 10
0.0
 20
-3635.7421875
 10
0.0
 20
-3645.703125
 10
0.0
 20
-3655.6640625
 10
0.0
 20
-3665.625
 10
0.0
 20
-3675.5859375
 10
0.0
 20
-3685.546875
 10
0.0
 20
-3695.5078125
 10
0.0
 20
-3705.46875
 10
0.0
 20
-3715.4296875
 10
0.0
 20
-3725.390625
 10
0.0
 20
-3735.3515625
 10
0.0
 20
-3745.3125
 10
0.0
 20
-3755.2734375
 10
0.0
 20
-3765.234375
 10
0.0
 20
-3775.1953125
 10
0.0
 20
-3785.15625
 10
0.0
 20
-3795.1171875
 10
0.0
 20
-3805.078125
 10
0.0
 20
-3815.0390625
 10
0.0
 20
-3825.0
 10
0.0
 20
-3834.9609375
 10
0.0
 20
-3844.921875
 10
0.0
 20
-3854.8828125
 10
0.0
 20
-3864.84375
 10
0.0
 20
-3874.8046875
 10
0.0
 20
-3884.765625
 10
0.0
 20
-3894.7265625
 10
0.0
 20
-3904.6875
 10
0.0
 20
-3914.6484375
 10
0.0
 20
-3924.609375
 10
0.0
 20
-3934.5703125
 10
0.0
 20
-3944.53125
 10
0.0
 20
-3954.4921875
 10
0.0
 20
-3964.453125
 10
0.0
 20
-3974.4140625
 10
0.0
 20
-3984.375
 10
0.0
 20
-3994.3359375
 10
0.0
 20
-4004.296875
 10
0.0
 20
-4014.2578125
 10
0.0
 20
-4024.21875
 10
0.0
 20
-4034.1796875
 10
0.0
 20
-4044.140625
 10
0.0
 20
-4054.1015625
 10
0.0
 20
-4064.0625
 10
0.0
 20
-4074.0234375
 10
0.0
 20
-4083.984375
 10
0.0
 20
-4093.9453125
 10
0.0
 20
-4103.90625
 10
0.0
 20
-4113.8671875
 10
0.0
 20
-4123.828125
 10
0.0
 20
-4133.7890625
 10
0.0
 20
-4143.75
 10
0.0
 20
-4153.7109375
 10
0.0
 20
-4163.671875
 10
0.0
 20
-4173.6328125
 10
0.0
 20
-4183.59375
 10
0.0
 20
-4193.5546875
 10
0.0
 20
-4203.515625
 10
0.0
 20
-4213.4765625
 10
0.0
 20
-4223.4375
 10
0.0
 20
-4233.3984375
 10
0.0
 20
-4243.359375
 10
0.0
 20
-4253.3203125
 10
0.0
 20
-4263.28125
 10
0.0
 20
-4273.2421875
 10
0.0
 20
-4283.203125
 10
0.0
 20
-4293.1640625
 10
0.0
 20
-4303.125
 10
0.0
 20
-4313.0859375
 10
0.0
 20
-4323.046875
 10
0.0
 20
-4333.0078125
 10
0.0
 20
-4342.96875
 10
0.0
 20
-4352.9296875
 10
0.0
 20
-4362.890625
 10
0.0
 20
-4372.8515625
 10
0.0
 20
-4382.8125
 10
0.0
 20
-4392.7734375
 10
0.0
 20
-4402.734375
 10
0.0
 20
-4412.6953125
 10
0.0
 20
-4422.65625
 10
0.0
 20
-4432.6171875
 10
0.0
 20
-4442.578125
 10
0.0
 20
-4452.5390625
 10
0.0
 20
-4462.5
 10
0.0
 20
-4472.4609375
 10
0.0
 20
-4482.421875
 10
0.0
 20
-4492.3828125
 10
0.0
 20
-4502.34375
 10
0.0
 20
-4512.3046875
 10
0.0
 20
-4522.265625
 10
0.0
 20
-4532.2265625
 10
0.0
 20
-4542.1875
 10
0.0
 20
-4552.1484375
 10
0.0
 20
-4562.109375
 10
0.0
 20
-4572.0703125
 10
0.0
 20
-4582.03125
 10
0.0
 20
-4591.9921875
 10
0.0
 20
-4601.953125
 10
0.0
 20
-4611.9140625
 10
0.0
 20
-4621.875
 10
0.0
 20
-4631.8359375
 10
0.0
 20
-4641.796875
 10
0.0
 20
-4651.7578125
 10
0.0
 20
-4661.71875
 10
0.0
 20
-4671.6796875
 10
0.0
 20
-4681.640625
 10
0.0
 20
-4691.6015625
 10
0.0
 20
-4701.5625
 10
0.0
 20
-4711.5234375
 10
0.0
 20
-4721.484375
 10
0.0
 20
-4731.4453125
 10
0.0
 20
-4741.40625
 10
0.0
 20
-4751.3671875
 10
0.0
 20
-4761.328125
 10
0.0
 20
-4771.2890625
 10
0.0
 20
-4781.25
 10
0.0
 20
-4791.2109375
 10
0.0
 20
-4801.171875
 10
0.0
 20
-4811.1328125
 10
0.0
 20
-4821.09375
 10
0.0
 20
-4831.0546875
 10
0.0
 20
-4841.015625
 10
0.0
 20
-4850.9765625
 10
0.0
 20
-4860.9375
 10
0.0
 20
-4870.8984375
 10
0.0
 20
-4880.859375
 10
0.0
 20
-4890.8203125
 10
0.0
 20
-4900.78125
 10
0.0
 20
-4910.7421875
 10
0.0
 20
-4920.703125
 10
0.0
 20
-4930.6640625
 10
0.0
 20
-4940.625
 10
0.0
 20
-4950.5859375
 10
0.0
 20
-4960.546875
 10
0.0
 20
-4970.5078125
 10
0.0
 20
-4980.46875
 10
0.0
 20
-4990.4296875
 10
0.0
 20
-5000.390625
 10
0.0
 20
-5010.3515625
 10
0.0
 20
-5020.3125
 10
0.0
 20
-5030.2734375
 10
0.0
 20
-5040.234375
 10
0.0
 20
-5050.1953125
 10
0.0
 20
-5060.15625
 10
0.0
 20
-5070.1171875
 10
0.0
 20
-5080.078125
 10
0.0
 20
-5090.0390625
 10
9.9609375
 20
-5090.0390625
 10
19.921875
 20
-5090.0390625
 10
29.8828125
 20
-5090.0390625
 10
39.84375
 20
-5090.0390625
 10
49.8046875
 20
-5090.0390625
 10
59.765625
 20
-5090.0390625
 10
69.7265625
 20
-5090.0390625
 10
79.6875
 20
-5090.0390625
 10
89.6484375
 20
-5090.0390625
 10
99.609375
 20
-5090.0390625
 10
109.5703125
 20
-5090.0390625
 10
119.53125
 20
-5090.0390625
 10
129.4921875
 20
-5090.0390625
 10
139.453125
 20
-5090.0390625
 10
149.4140625
 20
-5090.0390625
 10
159.375
 20
-5090.0390625
 10
169.3359375
 20
-5090.0390625
 10
179.296875
 20
-5090.0390625
 10
189.2578125
 20
-5090.0390625
 10
199.21875
 20
-5090.0390625
 10
209.1796875
 20
-5090.0390625
 10
219.140625
 20
-5090.0390625
 10
229.1015625
 20
-5090.0390625
 10
239.0625
 20
-5090.0390625
 10
249.0234375
 20
-5090.0390625
 10
258.984375
 20
-5090.0390625
 10
268.9453125
 20
-5090.0390625
 10
278.90625
 20
-5090.0390625
 10
288.8671875
 20
-5090.0390625
 10
298.828125
 20
-5090.0390625
 10
308.7890625
 20
-5090.0390625
 10
318.75
 20
-5090.0390625
 10
328.7109375
 20
-5090.0390625
 10
338.671875
 20
-5090.0390625
 10
348.6328125
 20
-5090.0390625
 10
358.59375
 20
-5090.0390625
 10
368.5546875
 20
-5090.0390625
 10
378.515625
 20
-5090.0390625
 10
388.4765625
 20
-5090.0390625
 10
398.4375
 20
-5090.0390625
 10
408.3984375
 20
-5090.0390625
 10
418.359375
 20
-5090.0390625
 10
428.3203125
 20
-5090.0390625
 10
438.28125
 20
-5090.0390625
 10
448.2421875
 20
-5090.0390625
 10
458.203125
 20
-5090.0390625
 10
468.1640625
 20
-5090.0390625
 10
478.125
 20
-5090.0390625
 10
488.0859375
 20
-5090.0390625
 10
498.046875
 20
-5090.0390625
 10
508.0078125
 20
-5090.0390625
 10
517.96875
 20
-5090.0390625
 10
527.9296875
 20
-5090.0390625
 10
537.890625
 20
-5090.0390625
 10
547.8515625
 20
-5090.0390625
 10
557.8125
 20
-5090.0390625
 10
567.7734375
 20
-5090.0390625
 10
577.734375
 20
-5090.0390625
 10
587.6953125
 20
-5090.0390625
 10
597.65625
 20
-5090.0390625
 10
607.6171875
 20
-5090.0390625
 10
617.578125
 20
-5090.0390625
 10
627.5390625
 20
-5090.0390625
 10
637.5
 20
-5090.0390625
 10
647.4609375
 20
-5090.0390625
 10
657.421875
 20
-5090.0390625
 10
667.3828125
 20
-5090.0390625
 10
677.34375
 20
-5090.0390625
 10
687.3046875
 20
-5090.0390625
 10
697.265625
 20
-5090.0390625
 10
707.2265625
 20
-5090.0390625
 10
717.1875
 20
-5090.0390625
 10
727.1484375
 20
-5090.0390625
 10
737.109375
 20
-5090.0390625
 10
747.0703125
 20
-5090.0390625
 10
757.03125
 20
-5090.0390625
 10
766.9921875
 20
-5090.0390625
 10
776.953125
 20
-5090.0390625
 10
786.9140625
 20
-5090.0390625
 10
796.875
 20
-5090.0390625
 10
806.8359375
 20
-5090.0390625
 10
816.796875
 20
-5090.0390625
 10
826.7578125
 20
-5090.0390625
 10
836.71875
 20
-5090.0390625
 10
846.6796875
 20
-5090.0390625
 10
856.640625
 20
-5090.0390625
 10
866.6015625
 20
-5090.0390625
 10
876.5625
 20
-5090.0390625
 10
886.5234375
 20
-5090.0390625
 10
896.484375
 20
-5090.0390625
 10
906.4453125
 20
-5090.0390625
 10
916.40625
 20
-5090.0390625
 10
926.3671875
 20
-5090.0390625
 10
936.328125
 20
-5090.0390625
 10
946.2890625
 20
-5090.0390625
 10
956.25
 20
-5090.0390625
 10
966.2109375
 20
-5090.0390625
 10
976.171875
 20
-5090.0390625
 10
986.1328125
 20
-5090.0390625
 10
996.09375
 20
-5090.0390625
 10
1006.0546875
 20
-5090.0390625
 10
1016.015625
 20
-5090.0390625
 10
1025.9765625
 20
-5090.0390625
 10
1035.9375
 20
-5090.0390625
 10
1045.8984375
 20
-5090.0390625
 10
1055.859375
 20
-5090.0390625
 10
1065.8203125
 20
-5090.0390625
 10
1075.78125
 20
-5090.0390625
 10
1085.7421875
 20
-5090.0390625
 10
1095.703125
 20
-5090.0390625
 10
1105.6640625
 20
-5090.0390625
 10
1115.625
 20
-5090.0390625
 10
1125.5859375
 20
-5090.0390625
 10
1135.546875
 20
-5090.0390625
 10
1145.5078125
 20
-5090.0390625
 10
1155.46875
 20
-5090.0390625
 10
1165.4296875
 20
-5090.0390625
 10
1175.390625
 20
-5090.0390625
 10
1185.3515625
 20
-5090.0390625
 10
1195.3125
 20
-5090.0390625
 10
1205.2734375
 20
-5090.0390625
 10
1215.234375
 20
-5090.0390625
 10
1225.1953125
 20
-5090.0390625
 10
1235.15625
 20
-5090.0390625
 10
1245.1171875
 20
-5090.0390625
 10
1255.078125
 20
-5090.0390625
 10
1265.0390625
 20
-5090.0390625
 10
1275.0
 20
-5090.0390625
 10
1284.9609375
 20
-5090.0390625
 10
1294.921875
 20
-5090.0390625
 10
1304.8828125
 20
-5090.0390625
 10
1314.84375
 20
-5090.0390625
 10
1324.8046875
 20
-5090.0390625
 10
1334.765625
 20
-5090.0390625
 10
1344.7265625
 20
-5090.0390625
 10
1354.6875
 20
-5090.0390625
 10
1364.6484375
 20
-5090.0390625
 10
1374.609375
 20
-5090.0390625
 10
1384.5703125
 20
-5090.0390625
 10
1394.53125
 20
-5090.0390625
 10
1404.4921875
 20
-5090.0390625
 10
1414.453125
 20
-5090.0390625
 10
1424.4140625
 20
-5090.0390625
 10
1434.375
 20
-5090.0390625
 10
1444.3359375
 20
-5090.0390625
 10
1454.296875
 20
-5090.0390625
 10
1464.2578125
 20
-5090.0390625
 10
1474.21875
 20
-5090.0390625
 10
1484.1796875
 20
-5090.0390625
 10
1494.140625
 20
-5090.0390625
 10
1504.1015625
 20
-5090.0390625
 10
1514.0625
 20
-5090.0390625
 10
1524.0234375
 20
-5090.0390625
 10
1533.984375
 20
-5090.0390625
 10
1543.9453125
 20
-5090.0390625
 10
1553.90625
 20
-5090.0390625
 10
1563.8671875
 20
-5090.0390625
 10
1573.828125
 20
-5090.0390625
 10
1583.7890625
 20
-5090.0390625
 10
1593.75
 20
-5090.0390625
 10
1603.7109375
 20
-5090.0390625
 10
1613.671875
 20
-5090.0390625
 10
1623.6328125
 20
-5090.0390625
 10
1633.59375
 20
-5090.0390625
 10
1643.5546875
 20
-5090.0390625
 10
1653.515625
 20
-5090.0390625
 10
1663.4765625
 20
-5090.0390625
 10
1673.4375
 20
-5090.0390625
 10
1683.3984375
 20
-5090.0390625
 10
1693.359375
 20
-5090.0390625
 10
1703.3203125
 20
-5090.0390625
 10
1713.28125
 20
-5090.0390625
 10
1723.2421875
 20
-5090.0390625
 10
1733.203125
 20
-5090.0390625
 10
1743.1640625
 20
-5090.0390625
 10
1753.125
 20
-5090.0390625
 10
1763.0859375
 20
-5090.0390625
 10
1773.046875
 20
-5090.0390625
 10
1783.0078125
 20
-5090.0390625
 10
1792.96875
 20
-5090.0390625
 10
1802.9296875
 20
-5090.0390625
 10
1812.890625
 20
-5090.0390625
 10
1822.8515625
 20
-5090.0390625
 10
1832.8125
 20
-5090.0390625
 10
1842.7734375
 20
-5090.0390625
 10
1852.734375
 20
-5090.0390625
 10
1862.6953125
 20
-5090.0390625
 10
1872.65625
 20
-5090.0390625
 10
1882.6171875
 20
-5090.0390625
 10
1892.578125
 20
-5090.0390625
 10
1902.5390625
 20
-5090.0390625
 10
1912.5
 20
-5090.0390625
 10
1922.4609375
 20
-5090.0390625
 10
1932.421875
 20
-5090.0390625
 10
1942.3828125
 20
-5090.0390625
 10
1952.34375
 20
-5090.0390625
 10
1962.3046875
 20
-5090.0390625
 10
1972.265625
 20
-5090.0390625
 10
1982.2265625
 20
-5090.0390625
 10
1992.1875
 20
-5090.0390625
 10
2002.1484375
 20
-5090.0390625
 10
2012.109375
 20
-5090.0390625
 10
2022.0703125
 20
-5090.0390625
 10
2032.03125
 20
-5090.0390625
 10
2041.9921875
 20
-5090.0390625
 10
2051.953125
 20
-5090.0390625
 10
2061.9140625
 20
-5090.0390625
 10
2071.875
 20
-5090.0390625
 10
2081.8359375
 20
-5090.0390625
 10
2091.796875
 20
-5090.0390625
 10
2101.7578125
 20
-5090.0390625
 10
2111.71875
 20
-5090.0390625
 10
2121.6796875
 20
-5090.0390625
 10
2131.640625
 20
-5090.0390625
 10
2141.6015625
 20
-5090.0390625
 10
2151.5625
 20
-5090.0390625
 10
2161.5234375
 20
-5090.0390625
 10
2171.484375
 20
-5090.0390625
 10
2181.4453125
 20
-5090.0390625
 10
2191.40625
 20
-5090.0390625
 10
2201.3671875
 20
-5090.0390625
 10
2211.328125
 20
-5090.0390625
 10
2221.2890625
 20
-5090.0390625
 10
2231.25
 20
-5090.0390625
 10
2241.2109375
 20
-5090.0390625
 10
2251.171875
 20
-5090.0390625
 10
2261.1328125
 20
-5090.0390625
 10
2271.09375
 20
-5090.0390625
 10
2281.0546875
 20
-5090.0390625
 10
2291.015625
 20
-5090.0390625
 10
2300.9765625
 20
-5090.0390625
 10
2310.9375
 20
-5090.0390625
 10
2320.8984375
 20
-5090.0390625
 10
2330.859375
 20
-5090.0390625
 10
2340.8203125
 20
-5090.0390625
 10
2350.78125
 20
-5090.0390625
 10
2360.7421875
 20
-5090.0390625
 10
2370.703125
 20
-5090.0390625
 10
2380.6640625
 20
-5090.0390625
 10
2390.625
 20
-5090.0390625
 10
2400.5859375
 20
-5090.0390625
 10
2410.546875
 20
-5090.0390625
 10
2420.5078125
 20
-5090.0390625
 10
2430.46875
 20
-5090.0390625
 10
2440.4296875
 20
-5090.0390625
 10
2450.390625
 20
-5090.0390625
 10
2460.3515625
 20
-5090.0390625
 10
2470.3125
 20
-5090.0390625
 10
2480.2734375
 20
-5090.0390625
 10
2490.234375
 20
-5090.0390625
 10
2500.1953125
 20
-5090.0390625
 10
2510.15625
 20
-5090.0390625
 10
2520.1171875
 20
-5090.0390625
 10
2530.078125
 20
-5090.0390625
 10
2540.0390625
 20
-5090.0390625
 10
2550.0
 20
-5090.0390625
 10
2559.9609375
 20
-5090.0390625
 10
2569.921875
 20
-5090.0390625
 10
2579.8828125
 20
-5090.0390625
 10
2589.84375
 20
-5090.0390625
 10
2599.8046875
 20
-5090.0390625
 10
2609.765625
 20
-5090.0390625
 10
2619.7265625
 20
-5090.0390625
 10
2629.6875
 20
-5090.0390625
 10
2639.6484375
 20
-5090.0390625
 10
2649.609375
 20
-5090.0390625
 10
2659.5703125
 20
-5090.0390625
 10
2669.53125
 20
-5090.0390625
 10
2679.4921875
 20
-5090.0390625
 10
2689.453125
 20
-5090.0390625
 10
2699.4140625
 20
-5090.0390625
 10
2709.375
 20
-5090.0390625
 10
2719.3359375
 20
-5090.0390625
 10
2729.296875
 20
-5090.0390625
 10
2739.2578125
 20
-5090.0390625
 10
2749.21875
 20
-5090.0390625
 10
2759.1796875
 20
-5090.0390625
 10
2769.140625
 20
-5090.0390625
 10
2779.1015625
 20
-5090.0390625
 10
2789.0625
 20
-5090.0390625
 10
2799.0234375
 20
-5090.0390625
 10
2808.984375
 20
-5090.0390625
 10
2818.9453125
 20
-5090.0390625
 10
2828.90625
 20
-5090.0390625
 10
2838.8671875
 20
-5090.0390625
 10
2848.828125
 20
-5090.0390625
 10
2858.7890625
 20
-5090.0390625
 10
2868.75
 20
-5090.0390625
 10
2878.7109375
 20
-5090.0390625
 10
2888.671875
 20
-5090.0390625
 10
2898.6328125
 20
-5090.0390625
 10
2908.59375
 20
-5090.0390625
 10
2918.5546875
 20
-5090.0390625
 10
2928.515625
 20
-5090.0390625
 10
2938.4765625
 20
-5090.0390625
 10
2948.4375
 20
-5090.0390625
 10
2958.3984375
 20
-5090.0390625
 10
2968.359375
 20
-5090.0390625
 10
2978.3203125
 20
-5090.0390625
 10
2988.28125
 20
-5090.0390625
 10
2998.2421875
 20
-5090.0390625
 10
3008.203125
 20
-5090.0390625
 10
3018.1640625
 20
-5090.0390625
 10
3028.125
 20
-5090.0390625
 10
3038.0859375
 20
-5090.0390625
 10
3048.046875
 20
-5090.0390625
 10
3058.0078125
 20
-5090.0390625
 10
3067.96875
 20
-5090.0390625
 10
3077.9296875
 20
-5090.0390625
 10
3087.890625
 20
-5090.0390625
 10
3097.8515625
 20
-5090.0390625
 10
3107.8125
 20
-5090.0390625
 10
3117.7734375
 20
-5090.0390625
 10
3127.734375
 20
-5090.0390625
 10
3137.6953125
 20
-5090.0390625
 10
3147.65625
 20
-5090.0390625
 10
3157.6171875
 20
-5090.0390625
 10
3167.578125
 20
-5090.0390625
 10
3177.5390625
 20
-5090.0390625
 10
3187.5
 20
-5090.0390625
 10
3197.4609375
 20
-5090.0390625
 10
3207.421875
 20
-5090.0390625
 10
3217.3828125
 20
-5090.0390625
 10
3227.34375
 20
-5090.0390625
 10
3237.3046875
 20
-5090.0390625
 10
3247.265625
 20
-5090.0390625
 10
3257.2265625
 20
-5090.0390625
 10
3267.1875
 20
-5090.0390625
 10
3277.1484375
 20
-5090.0390625
 10
3287.109375
 20
-5090.0390625
 10
3297.0703125
 20
-5090.0390625
 10
3307.03125
 20
-5090.0390625
 10
3316.9921875
 20
-5090.0390625
 10
3326.953125
 20
-5090.0390625
 10
3336.9140625
 20
-5090.0390625
 10
3346.875
 20
-5090.0390625
 10
3356.8359375
 20
-5090.0390625
 10
3366.796875
 20
-5090.0390625
 10
3376.7578125
 20
-5090.0390625
 10
3386.71875
 20
-5090.0390625
 10
3396.6796875
 20
-5090.0390625
 10
3406.640625
 20
-5090.0390625
 10
3416.6015625
 20
-5090.0390625
 10
3426.5625
 20
-5090.0390625
 10
3436.5234375
 20
-5090.0390625
 10
3446.484375
 20
-5090.0390625
 10
3456.4453125
 20
-5090.0390625
 10
3466.40625
 20
-5090.0390625
 10
3476.3671875
 20
-5090.0390625
 10
3486.328125
 20
-5090.0390625
 10
3496.2890625
 20
-5090.0390625
 10
3506.25
 20
-5090.0390625
 10
3516.2109375
 20
-5090.0390625
 10
3526.171875
 20
-5090.0390625
 10
3536.1328125
 20
-5090.0390625
 10
3546.09375
 20
-5090.0390625
 10
3556.0546875
 20
-5090.0390625
 10
3566.015625
 20
-5090.0390625
 10
3575.9765625
 20
-5090.0390625
 10
3585.9375
 20
-5090.0390625
 10
3595.8984375
 20
-5090.0390625
 10
3605.859375
 20
-5090.0390625
 10
3615.8203125
 20
-5090.0390625
 10
3625.78125
 20
-5090.0390625
 10
3635.7421875
 20
-5090.0390625
 10
3645.703125
 20
-5090.0390625
 10
3655.6640625
 20
-5090.0390625
 10
3665.625
 20
-5090.0390625
 10
3675.5859375
 20
-5090.0390625
 10
3685.546875
 20
-5090.0390625
 10
3695.5078125
 20
-5090.0390625
 10
3705.46875
 20
-5090.0390625
 10
3715.4296875
 20
-5090.0390625
 10
3725.390625
 20
-5090.0390625
 10
3735.3515625
 20
-5090.0390625
 10
3745.3125
 20
-5090.0390625
 10
3755.2734375
 20
-5090.0390625
 10
3765.234375
 20
-5090.0390625
 10
3775.1953125
 20
-5090.0390625
 10
3785.15625
 20
-5090.0390625
 10
3795.1171875
 20
-5090.0390625
 10
3805.078125
 20
-5090.0390625
 10
3815.0390625
 20
-5090.0390625
 10
3825.0
 20
-5090.0390625
 10
3834.9609375
 20
-5090.0390625
 10
3844.921875
 20
-5090.0390625
 10
3854.8828125
 20
-5090.0390625
 10
3864.84375
 20
-5090.0390625
 10
3874.8046875
 20
-5090.0390625
 10
3884.765625
 20
-5090.0390625
 10
3894.7265625
 20
-5090.0390625
 10
3904.6875
 20
-5090.0390625
 10
3914.6484375
 20
-5090.0390625
 10
3924.609375
 20
-5090.0390625
 10
3934.5703125
 20
-5090.0390625
 10
3944.53125
 20
-5090.0390625
 10
3954.4921875
 20
-5090.0390625
 10
3964.453125
 20
-5090.0390625
 10
3974.4140625
 20
-5090.0390625
 10
3984.375
 20
-5090.0390625
 10
3994.3359375
 20
-5090.0390625
 10
4004.296875
 20
-5090.0390625
 10
4014.2578125
 20
-5090.0390625
 10
4024.21875
 20
-5090.0390625
 10
4034.1796875
 20
-5090.0390625
 10
4044.140625
 20
-5090.0390625
 10
4054.1015625
 20
-5090.0390625
 10
4064.0625
 20
-5090.0390625
 10
4074.0234375
 20
-5090.0390625
 10
4083.984375
 20
-5090.0390625
 10
4093.9453125
 20
-5090.0390625
 10
4103.90625
 20
-5090.0390625
 10
4113.8671875
 20
-5090.0390625
 10
4123.828125
 20
-5090.0390625
 10
4133.7890625
 20
-5090.0390625
 10
4143.75
 20
-5090.0390625
 10
4153.7109375
 20
-5090.0390625
 10
4163.671875
 20
-5090.0390625
 10
4173.6328125
 20
-5090.0390625
 10
4183.59375
 20
-5090.0390625
 10
4193.5546875
 20
-5090.0390625
 10
4203.515625
 20
-5090.0390625
 10
4213.4765625
 20
-5090.0390625
 10
4223.4375
 20
-5090.0390625
 10
4233.3984375
 20
-5090.0390625
 10
4243.359375
 20
-5090.0390625
 10
4253.3203125
 20
-5090.0390625
 10
4263.28125
 20
-5090.0390625
 10
4273.2421875
 20
-5090.0390625
 10
4283.203125
 20
-5090.0390625
 10
4293.1640625
 20
-5090.0390625
 10
4303.125
 20
-5090.0390625
 10
4313.0859375
 20
-5090.0390625
 10
4323.046875
 20
-5090.0390625
 10
4333.0078125
 20
-5090.0390625
 10
4342.96875
 20
-5090.0390625
 10
4352.9296875
 20
-5090.0390625
 10
4362.890625
 20
-5090.0390625
 10
4372.8515625
 20
-5090.0390625
 10
4382.8125
 20
-5090.0390625
 10
4392.7734375
 20
-5090.0390625
 10
4402.734375
 20
-5090.0390625
 10
4412.6953125
 20
-5090.0390625
 10
4422.65625
 20
-5090.0390625
 10
4432.6171875
 20
-5090.0390625
 10
4442.578125
 20
-5090.0390625
 10
4452.5390625
 20
-5090.0390625
 10
4462.5
 20
-5090.0390625
 10
4472.4609375
 20
-5090.0390625
 10
4482.421875
 20
-5090.0390625
 10
4492.3828125
 20
-5090.0390625
 10
4502.34375
 20
-5090.0390625
 10
4512.3046875
 20
-5090.0390625
 10
4522.265625
 20
-5090.0390625
 10
4532.2265625
 20
-5090.0390625
 10
4542.1875
 20
-5090.0390625
 10
4552.1484375
 20
-5090.0390625
 10
4562.109375
 20
-5090.0390625
 10
4572.0703125
 20
-5090.0390625
 10
4582.03125
 20
-5090.0390625
 10
4591.9921875
 20
-5090.0390625
 10
4601.953125
 20
-5090.0390625
 10
4611.9140625
 20
-5090.0390625
 10
4621.875
 20
-5090.0390625
 10
4631.8359375
 20
-5090.0390625
 10
4641.796875
 20
-5090.0390625
 10
4651.7578125
 20
-5090.0390625
 10
4661.71875
 20
-5090.0390625
 10
4671.6796875
 20
-5090.0390625
 10
4681.640625
 20
-5090.0390625
 10
4691.6015625
 20
-5090.0390625
 10
4701.5625
 20
-5090.0390625
 10
4711.5234375
 20
-5090.0390625
 10
4721.484375
 20
-5090.0390625
 10
4731.4453125
 20
-5090.0390625
 10
4741.40625
 20
-5090.0390625
 10
4751.3671875
 20
-5090.0390625
 10
4761.328125
 20
-5090.0390625
 10
4771.2890625
 20
-5090.0390625
 10
4781.25
 20
-5090.0390625
 10
4791.2109375
 20
-5090.0390625
 10
4801.171875
 20
-5090.0390625
 10
4811.1328125
 20
-5090.0390625
 10
4821.09375
 20
-5090.0390625
 10
4831.0546875
 20
-5090.0390625
 10
4841.015625
 20
-5090.0390625
 10
4850.9765625
 20
-5090.0390625
 10
4860.9375
 20
-5090.0390625
 10
4870.8984375
 20
-5090.0390625
 10
4880.859375
 20
-5090.0390625
 10
4890.8203125
 20
-5090.0390625
 10
4900.78125
 20
-5090.0390625
 10
4910.7421875
 20
-5090.0390625
 10
4920.703125
 20
-5090.0390625
 10
4930.6640625
 20
-5090.0390625
 10
4940.625
 20
-5090.0390625
 10
4950.5859375
 20
-5090.0390625
 10
4960.546875
 20
-5090.0390625
 10
4970.5078125
 20
-5090.0390625
 10
4980.46875
 20
-5090.0390625
 10
4990.4296875
 20
-5090.0390625
 10
5000.390625
 20
-5090.0390625
 10
5010.3515625
 20
-5090.0390625
 10
5020.3125
 20
-5090.0390625
 10
5030.2734375
 20
-5090.0390625
 10
5040.234375
 20
-5090.0390625
 10
5050.1953125
 20
-5090.0390625
 10
5060.15625
 20
-5090.0390625
 10
5070.1171875
 20
-5090.0390625
 10
5080.078125
 20
-5090.0390625
 10
5090.0390625
 20
-5090.0390625
 10
5090.0390625
 20
-5080.078125
 10
5090.0390625
 20
-5070.1171875
 10
5090.0390625
 20
-5060.15625
 10
5090.0390625
 20
-5050.1953125
 10
5090.0390625
 20
-5040.234375
 10
5090.0390625
 20
-5030.2734375
 10
5090.0390625
 20
-5020.3125
 10
5090.0390625
 20
-5010.3515625
 10
5090.0390625
 20
-5000.390625
 10
5090.0390625
 20
-4990.4296875
 10
5090.0390625
 20
-4980.46875
 10
5090.0390625
 20
-4970.5078125
 10
5090.0390625
 20
-4960.546875
 10
5090.0390625
 20
-4950.5859375
 10
5090.0390625
 20
-4940.625
 10
5090.0390625
 20
-4930.6640625
 10
5090.0390625
 20
-4920.703125
 10
5090.0390625
 20
-4910.7421875
 10
5090.0390625
 20
-4900.78125
 10
5090.0390625
 20
-4890.8203125
 10
5090.0390625
 20
-4880.859375
 10
5090.0390625
 20
-4870.8984375
 10
5090.0390625
 20
-4860.9375
 10
5090.0390625
 20
-4850.9765625
 10
5090.0390625
 20
-4841.015625
 10
5090.0390625
 20
-4831.0546875
 10
5090.0390625
 20
-4821.09375
 10
5090.0390625
 20
-4811.1328125
 10
5090.0390625
 20
-4801.171875
 10
5090.0390625
 20
-4791.2109375
 10
5090.0390625
 20
-4781.25
 10
5090.0390625
 20
-4771.2890625
 10
5090.0390625
 20
-4761.328125
 10
5090.0390625
 20
-4751.3671875
 10
5090.0390625
 20
-4741.40625
 10
5090.0390625
 20
-4731.4453125
 10
5090.0390625
 20
-4721.484375
 10
5090.0390625
 20
-4711.5234375
 10
5090.0390625
 20
-4701.5625
 10
5090.0390625
 20
-4691.6015625
 10
5090.0390625
 20
-4681.640625
 10
5090.0390625
 20
-4671.6796875
 10
5090.0390625
 20
-4661.71875
 10
5090.0390625
 20
-4651.7578125
 10
5090.0390625
 20
-4641.796875
 10
5090.0390625
 20
-4631.8359375
 10
5090.0390625
 20
-4621.875
 10
5090.0390625
 20
-4611.9140625
 10
5090.0390625
 20
-4601.953125
 10
5090.0390625
 20
-4591.9921875
 10
5090.0390625
 20
-4582.03125
 10
5090.0390625
 20
-4572.0703125
 10
5090.0390625
 20
-4562.109375
 10
5090.0390625
 20
-4552.1484375
 10
5090.0390625
 20
-4542.1875
 10
5090.0390625
 20
-4532.2265625
 10
5090.0390625
 20
-4522.265625
 10
5090.0390625
 20
-4512.3046875
 10
5090.0390625
 20
-4502.34375
 10
5090.0390625
 20
-4492.3828125
 10
5090.0390625
 20
-4482.421875
 10
5090.0390625
 20
-4472.4609375
 10
5090.0390625
 20
-4462.5
 10
5090.0390625
 20
-4452.5390625
 10
5090.0390625
 20
-4442.578125
 10
5090.0390625
 20
-4432.6171875
 10
5090.0390625
 20
-4422.65625
 10
5090.0390625
 20
-4412.6953125
 10
5090.0390625
 20
-4402.734375
 10
5090.0390625
 20
-4392.7734375
 10
5090.0390625
 20
-4382.8125
 10
5090.0390625
 20
-4372.8515625
 10
5090.0390625
 20
-4362.890625
 10
5090.0390625
 20
-4352.9296875
 10
5090.0390625
 20
-4342.96875
 10
5090.0390625
 20
-4333.0078125
 10
5090.0390625
 20
-4323.046875
 10
5090.0390625
 20
-4313.0859375
 10
5090.0390625
 20
-4303.125
 10
5090.0390625
 20
-4293.1640625
 10
5090.0390625
 20
-4283.203125
 10
5090.0390625
 20
-4273.2421875
 10
5090.0390625
 20
-4263.28125
 10
5090.0390625
 20
-4253.3203125
 10
5090.0390625
 20
-4243.359375
 10
5090.0390625
 20
-4233.3984375
 10
5090.0390625
 20
-4223.4375
 10
5090.0390625
 20
-4213.4765625
 10
5090.0390625
 20
-4203.515625
 10
5090.0390625
 20
-4193.5546875
 10
5090.0390625
 20
-4183.59375
 10
5090.0390625
 20
-4173.6328125
 10
5090.0390625
 20
-4163.671875
 10
5090.0390625
 20
-4153.7109375
 10
5090.0390625
 20
-4143.75
 10
5090.0390625
 20
-4133.7890625
 10
5090.0390625
 20
-4123.828125
 10
5090.0390625
 20
-4113.8671875
 10
5090.0390625
 20
-4103.90625
 10
5090.0390625
 20
-4093.9453125
 10
5090.0390625
 20
-4083.984375
 10
5090.0390625
 20
-4074.0234375
 10
5090.0390625
 20
-4064.0625
 10
5090.0390625
 20
-4054.1015625
 10
5090.0390625
 20
-4044.140625
 10
5090.0390625
 20
-4034.1796875
 10
5090.0390625
 20
-4024.21875
 10
5090.0390625
 20
-4014.2578125
 10
5090.0390625
 20
-4004.296875
 10
5090.0390625
 20
-3994.3359375
 10
5090.0390625
 20
-3984.375
 10
5090.0390625
 20
-3974.4140625
 10
5090.0390625
 20
-3964.453125
 10
5090.0390625
 20
-3954.4921875
 10
5090.0390625
 20
-3944.53125
 10
5090.0390625
 20
-3934.5703125
 10
5090.0390625
 20
-3924.609375
 10
5090.0390625
 20
-3914.6484375
 10
5090.0390625
 20
-3904.6875
 10
5090.0390625
 20
-3894.7265625
 10
5090.0390625
 20
-3884.765625
 10
5090.0390625
 20
-3874.8046875
 10
5090.0390625
 20
-3864.84375
 10
5090.0390625
 20
-3854.8828125
 10
5090.0390625
 20
-3844.921875
 10
5090.0390625
 20
-3834.9609375
 10
5090.0390625
 20
-3825.0
 10
5090.0390625
 20
-3815.0390625
 10
5090.0390625
 20
-3805.078125
 10
5090.0390625
 20
-3795.1171875
 10
5090.0390625
 20
-3785.15625
 10
5090.0390625
 20
-3775.1953125
 10
5090.0390625
 20
-3765.234375
 10
5090.0390625
 20
-3755.2734375
 10
5090.0390625
 20
-3745.3125
 10
5090.0390625
 20
-3735.3515625
 10
5090.0390625
 20
-3725.390625
 10
5090.0390625
 20
-3715.4296875
 10
5090.0390625
 20
-3705.46875
 10
5090.0390625
 20
-3695.5078125
 10
5090.0390625
 20
-3685.546875
 10
5090.0390625
 20
-3675.5859375
 10
5090.0390625
 20
-3665.625
 10
5090.0390625
 20
-3655.6640625
 10
5090.0390625
 20
-3645.703125
 10
5090.0390625
 20
-3635.7421875
 10
5090.0390625
 20
-3625.78125
 10
5090.0390625
 20
-3615.8203125
 10
5090.0390625
 20
-3605.859375
 10
5090.0390625
 20
-3595.8984375
 10
5090.0390625
 20
-3585.9375
 10
5090.0390625
 20
-3575.9765625
 10
5090.0390625
 20
-3566.015625
 10
5090.0390625
 20
-3556.0546875
 10
5090.0390625
 20
-3546.09375
 10
5090.0390625
 20
-3536.1328125
 10
5090.0390625
 20
-3526.171875
 10
5090.0390625
 20
-3516.2109375
 10
5090.0390625
 20
-3506.25
 10
5090.0390625
 20
-3496.2890625
 10
5090.0390625
 20
-3486.328125
 10
5090.0390625
 20
-3476.3671875
 10
5090.0390625
 20
-3466.40625
 10
5090.0390625
 20
-3456.4453125
 10
5090.0390625
 20
-3446.484375
 10
5090.0390625
 20
-3436.5234375
 10
5090.0390625
 20
-3426.5625
 10
5090.0390625
 20
-3416.6015625
 10
5090.0390625
 20
-3406.640625
 10
5090.0390625
 20
-3396.6796875
 10
5090.0390625
 20
-3386.71875
 10
5090.0390625
 20
-3376.7578125
 10
5090.0390625
 20
-3366.796875
 10
5090.0390625
 20
-3356.8359375
 10
5090.0390625
 20
-3346.875
 10
5090.0390625
 20
-3336.9140625
 10
5090.0390625
 20
-3326.953125
 10
5090.0390625
 20
-3316.9921875
 10
5090.0390625
 20
-3307.03125
 10
5090.0390625
 20
-3297.0703125
 10
5090.0390625
 20
-3287.109375
 10
5090.0390625
 20
-3277.1484375
 10
5090.0390625
 20
-3267.1875
 10
5090.0390625
 20
-3257.2265625
 10
5090.0390625
 20
-3247.265625
 10
5090.0390625
 20
-3237.3046875
 10
5090.0390625
 20
-3227.34375
 10
5090.0390625
 20
-3217.3828125
 10
5090.0390625
 20
-3207.421875
 10
5090.0390625
 20
-3197.4609375
 10
5090.0390625
 20
-3187.5
 10
5090.0390625
 20
-3177.5390625
 10
5090.0390625
 20
-3167.578125
 10
5090.0390625
 20
-3157.6171875
 10
5090.0390625
 20
-3147.65625
 10
5090.0390625
 20
-3137.6953125
 10
5090.0390625
 20
-3127.734375
 10
5090.0390625
 20
-3117.7734375
 10
5090.0390625
 20
-3107.8125
 10
5090.0390625
 20
-3097.8515625
 10
5090.0390625
 20
-3087.890625
 10
5090.0390625
 20
-3077.9296875
 10
5090.0390625
 20
-3067.96875
 10
5090.0390625
 20
-3058.0078125
 10
5090.0390625
 20
-3048.046875
 10
5090.0390625
 20
-3038.0859375
 10
5090.0390625
 20
-3028.125
 10
5090.0390625
 20
-3018.1640625
 10
5090.0390625
 20
-3008.203125
 10
5090.0390625
 20
-2998.2421875
 10
5090.0390625
 20
-2988.28125
 10
5090.0390625
 20
-2978.3203125
 10
5090.0390625
 20
-2968.359375
 10
5090.0390625
 20
-2958.3984375
 10
5090.0390625
 20
-2948.4375
 10
5090.0390625
 20
-2938.4765625
 10
5090.0390625
 20
-2928.515625
 10
5090.0390625
 20
-2918.5546875
 10
5090.0390625
 20
-2908.59375
 10
5090.0390625
 20
-2898.6328125
 10
5090.0390625
 20
-2888.671875
 10
5090.0390625
 20
-2878.7109375
 10
5090.0390625
 20
-2868.75
 10
5090.0390625
 20
-2858.7890625
 10
5090.0390625
 20
-2848.828125
 10
5090.0390625
 20
-2838.8671875
 10
5090.0390625
 20
-2828.90625
 10
5090.0390625
 20
-2818.9453125
 10
5090.0390625
 20
-2808.984375
 10
5090.0390625
 20
-2799.0234375
 10
5090.0390625
 20
-2789.0625
 10
5090.0390625
 20
-2779.1015625
 10
5090.0390625
 20
-2769.140625
 10
5090.0390625
 20
-2759.1796875
 10
5090.0390625
 20
-2749.21875
 10
5090.0390625
 20
-2739.2578125
 10
5090.0390625
 20
-2729.296875
 10
5090.0390625
 20
-2719.3359375
 10
5090.0390625
 20
-2709.375
 10
5090.0390625
 20
-2699.4140625
 10
5090.0390625
 20
-2689.453125
 10
5090.0390625
 20
-2679.4921875
 10
5090.0390625
 20
-2669.53125
 10
5090.0390625
 20
-2659.5703125
 10
5090.0390625
 20
-2649.609375
 10
5090.0390625
 20
-2639.6484375
 10
5090.0390625
 20
-2629.6875
 10
5090.0390625
 20
-2619.7265625
 10
5090.0390625
 20
-2609.765625
 10
5090.0390625
 20
-2599.8046875
 10
5090.0390625
 20
-2589.84375
 10
5090.0390625
 20
-2579.8828125
 10
5090.0390625
 20
-2569.921875
 10
5090.0390625
 20
-2559.9609375
 10
5090.0390625
 20
-2550.0
 10
5090.0390625
 20
-2540.0390625
 10
5090.0390625
 20
-2530.078125
 10
5090.0390625
 20
-2520.1171875
 10
5090.0390625
 20
-2510.15625
 10
5090.0390625
 20
-2500.1953125
 10
5090.0390625
 20
-2490.234375
 10
5090.0390625
 20
-2480.2734375
 10
5090.0390625
 20
-2470.3125
 10
5090.0390625
 20
-2460.3515625
 10
5090.0390625
 20
-2450.390625
 10
5090.0390625
 20
-2440.4296875
 10
5090.0390625
 20
-2430.46875
 10
5090.0390625
 20
-2420.5078125
 10
5090.0390625
 20
-2410.546875
 10
5090.0390625
 20
-2400.5859375
 10
5090.0390625
 20
-2390.625
 10
5090.0390625
 20
-2380.6640625
 10
5090.0390625
 20
-2370.703125
 10
5090.0390625
 20
-2360.7421875
 10
5090.0390625
 20
-2350.78125
 10
5090.0390625
 20
-2340.8203125
 10
5090.0390625
 20
-2330.859375
 10
5090.0390625
 20
-2320.8984375
 10
5090.0390625
 20
-2310.9375
 10
5090.0390625
 20
-2300.9765625
 10
5090.0390625
 20
-2291.015625
 10
5090.0390625
 20
-2281.0546875
 10
5090.0390625
 20
-2271.09375
 10
5090.0390625
 20
-2261.1328125
 10
5090.0390625
 20
-2251.171875
 10
5090.0390625
 20
-2241.2109375
 10
5090.0390625
 20
-2231.25
 10
5090.0390625
 20
-2221.2890625
 10
5090.0390625
 20
-2211.328125
 10
5090.0390625
 20
-2201.3671875
 10
5090.0390625
 20
-2191.40625
 10
5090.0390625
 20
-2181.4453125
 10
5090.0390625
 20
-2171.484375
 10
5090.0390625
 20
-2161.5234375
 10
5090.0390625
 20
-2151.5625
 10
5090.0390625
 20
-2141.6015625
 10
5090.0390625
 20
-2131.640625
 10
5090.0390625
 20
-2121.6796875
 10
5090.0390625
 20
-2111.71875
 10
5090.0390625
 20
-2101.7578125
 10
5090.0390625
 20
-2091.796875
 10
5090.0390625
 20
-2081.8359375
 10
5090.0390625
 20
-2071.875
 10
5090.0390625
 20
-2061.9140625
 10
5090.0390625
 20
-2051.953125
 10
5090.0390625
 20
-2041.9921875
 10
5090.0390625
 20
-2032.03125
 10
5090.0390625
 20
-2022.0703125
 10
5090.0390625
 20
-2012.109375
 10
5090.0390625
 20
-2002.1484375
 10
5090.0390625
 20
-1992.1875
 10
5090.0390625
 20
-1982.2265625
 10
5090.0390625
 20
-1972.265625
 10
5090.0390625
 20
-1962.3046875
 10
5090.0390625
 20
-1952.34375
 10
5090.0390625
 20
-1942.3828125
 10
5090.0390625
 20
-1932.421875
 10
5090.0390625
 20
-1922.4609375
 10
5090.0390625
 20
-1912.5
 10
5090.0390625
 20
-1902.5390625
 10
5090.0390625
 20
-1892.578125
 10
5090.0390625
 20
-1882.6171875
 10
5090.0390625
 20
-1872.65625
 10
5090.0390625
 20
-1862.6953125
 10
5090.0390625
 20
-1852.734375
 10
5090.0390625
 20
-1842.7734375
 10
5090.0390625
 20
-1832.8125
 10
5090.0390625
 20
-1822.8515625
 10
5090.0390625
 20
-1812.890625
 10
5090.0390625
 20
-1802.9296875
 10
5090.0390625
 20
-1792.96875
 10
5090.0390625
 20
-1783.0078125
 10
5090.0390625
 20
-1773.046875
 10
5090.0390625
 20
-1763.0859375
 10
5090.0390625
 20
-1753.125
 10
5090.0390625
 20
-1743.1640625
 10
5090.0390625
 20
-1733.203125
 10
5090.0390625
 20
-1723.2421875
 10
5090.0390625
 20
-1713.28125
 10
5090.0390625
 20
-1703.3203125
 10
5090.0390625
 20
-1693.359375
 10
5090.0390625
 20
-1683.3984375
 10
5090.0390625
 20
-1673.4375
 10
5090.0390625
 20
-1663.4765625
 10
5090.0390625
 20
-1653.515625
 10
5090.0390625
 20
-1643.5546875
 10
5090.0390625
 20
-1633.59375
 10
5090.0390625
 20
-1623.6328125
 10
5090.0390625
 20
-1613.671875
 10
5090.0390625
 20
-1603.7109375
 10
5090.0390625
 20
-1593.75
 10
5090.0390625
 20
-1583.7890625
 10
5090.0390625
 20
-1573.828125
 10
5090.0390625
 20
-1563.8671875
 10
5090.0390625
 20
-1553.90625
 10
5090.0390625
 20
-1543.9453125
 10
5090.0390625
 20
-1533.984375
 10
5090.0390625
 20
-1524.0234375
 10
5090.0390625
 20
-1514.0625
 10
5090.0390625
 20
-1504.1015625
 10
5090.0390625
 20
-1494.140625
 10
5090.0390625
 20
-1484.1796875
 10
5090.0390625
 20
-1474.21875
 10
5090.0390625
 20
-1464.2578125
 10
5090.0390625
 20
-1454.296875
 10
5090.0390625
 20
-1444.3359375
 10
5090.0390625
 20
-1434.375
 10
5090.0390625
 20
-1424.4140625
 10
5090.0390625
 20
-1414.453125
 10
5090.0390625
 20
-1404.4921875
 10
5090.0390625
 20
-1394.53125
 10
5090.0390625
 20
-1384.5703125
 10
5090.0390625
 20
-1374.609375
 10
5090.0390625
 20
-1364.6484375
 10
5090.0390625
 20
-1354.6875
 10
5090.0390625
 20
-1344.7265625
 10
5090.0390625
 20
-1334.765625
 10
5090.0390625
 20
-1324.8046875
 10
5090.0390625
 20
-1314.84375
 10
5090.0390625
 20
-1304.8828125
 10
5090.0390625
 20
-1294.921875
 10
5090.0390625
 20
-1284.9609375
 10
5090.0390625
 20
-1275.0
 10
5090.0390625
 20
-1265.0390625
 10
5090.0390625
 20
-1255.078125
 10
5090.0390625
 20
-1245.1171875
 10
5090.0390625
 20
-1235.15625
 10
5090.0390625
 20
-1225.1953125
 10
5090.0390625
 20
-1215.234375
 10
5090.0390625
 20
-1205.2734375
 10
5090.0390625
 20
-1195.3125
 10
5090.0390625
 20
-1185.3515625
 10
5090.0390625
 20
-1175.390625
 10
5090.0390625
 20
-1165.4296875
 10
5090.0390625
 20
-1155.46875
 10
5090.0390625
 20
-1145.5078125
 10
5090.0390625
 20
-1135.546875
 10
5090.0390625
 20
-1125.5859375
 10
5090.0390625
 20
-1115.625
 10
5090.0390625
 20
-1105.6640625
 10
5090.0390625
 20
-1095.703125
 10
5090.0390625
 20
-1085.7421875
 10
5090.0390625
 20
-1075.78125
 10
5090.0390625
 20
-1065.8203125
 10
5090.0390625
 20
-1055.859375
 10
5090.0390625
 20
-1045.8984375
 10
5090.0390625
 20
-1035.9375
 10
5090.0390625
 20
-1025.9765625
 10
5090.0390625
 20
-1016.015625
 10
5090.0390625
 20
-1006.0546875
 10
5090.0390625
 20
-996.09375
 10
5090.0390625
 20
-986.1328125
 10
5090.0390625
 20
-976.171875
 10
5090.0390625
 20
-966.2109375
 10
5090.0390625
 20
-956.25
 10
5090.0390625
 20
-946.2890625
 10
5090.0390625
 20
-936.328125
 10
5090.0390625
 20
-926.3671875
 10
5090.0390625
 20
-916.40625
 10
5090.0390625
 20
-906.4453125
 10
5090.0390625
 20
-896.484375
 10
5090.0390625
 20
-886.5234375
 10
5090.0390625
 20
-876.5625
 10
5090.0390625
 20
-866.6015625
 10
5090.0390625
 20
-856.640625
 10
5090.0390625
 20
-846.6796875
 10
5090.0390625
 20
-836.71875
 10
5090.0390625
 20
-826.7578125
 10
5090.0390625
 20
-816.796875
 10
5090.0390625
 20
-806.8359375
 10
5090.0390625
 20
-796.875
 10
5090.0390625
 20
-786.9140625
 10
5090.0390625
 20
-776.953125
 10
5090.0390625
 20
-766.9921875
 10
5090.0390625
 20
-757.03125
 10
5090.0390625
 20
-747.0703125
 10
5090.0390625
 20
-737.109375
 10
5090.0390625
 20
-727.1484375
 10
5090.0390625
 20
-717.1875
 10
5090.0390625
 20
-707.2265625
 10
5090.0390625
 20
-697.265625
 10
5090.0390625
 20
-687.3046875
 10
5090.0390625
 20
-677.34375
 10
5090.0390625
 20
-667.3828125
 10
5090.0390625
 20
-657.421875
 10
5090.0390625
 20
-647.4609375
 10
5090.0390625
 20
-637.5
 10
5090.0390625
 20
-627.5390625
 10
5090.0390625
 20
-617.578125
 10
5090.0390625
 20
-607.6171875
 10
5090.0390625
 20
-597.65625
 10
5090.0390625
 20
-587.6953125
 10
5090.0390625
 20
-577.734375
 10
5090.0390625
 20
-567.7734375
 10
5090.0390625
 20
-557.8125
 10
5090.0390625
 20
-547.8515625
 10
5090.0390625
 20
-537.890625
 10
5090.0390625
 20
-527.9296875
 10
5090.0390625
 20
-517.96875
 10
5090.0390625
 20
-508.0078125
 10
5090.0390625
 20
-498.046875
 10
5090.0390625
 20
-488.0859375
 10
5090.0390625
 20
-478.125
 10
5090.0390625
 20
-468.1640625
 10
5090.0390625
 20
-458.203125
 10
5090.0390625
 20
-448.2421875
 10
5090.0390625
 20
-438.28125
 10
5090.0390625
 20
-428.3203125
 10
5090.0390625
 20
-418.359375
 10
5090.0390625
 20
-408.3984375
 10
5090.0390625
 20
-398.4375
 10
5090.0390625
 20
-388.4765625
 10
5090.0390625
 20
-378.515625
 10
5090.0390625
 20
-368.5546875
 10
5090.0390625
 20
-358.59375
 10
5090.0390625
 20
-348.6328125
 10
5090.0390625
 20
-338.671875
 10
5090.0390625
 20
-328.7109375
 10
5090.0390625
 20
-318.75
 10
5090.0390625
 20
-308.7890625
 10
5090.0390625
 20
-298.828125
 10
5090.0390625
 20
-288.8671875
 10
5090.0390625
 20
-278.90625
 10
5090.0390625
 20
-268.9453125
 10
5090.0390625
 20
-258.984375
 10
5090.0390625
 20
-249.0234375
 10
5090.0390625
 20
-239.0625
 10
5090.0390625
 20
-229.1015625
 10
5090.0390625
 20
-219.140625
 10
5090.0390625
 20
-209.1796875
 10
5090.0390625
 20
-199.21875
 10
5090.0390625
 20
-189.2578125
 10
5090.0390625
 20
-179.296875
 10
5090.0390625
 20
-169.3359375
 10
5090.0390625
 20
-159.375
 10
5090.0390625
 20
-149.4140625
 10
5090.0390625
 20
-139.453125
 10
5090.0390625
 20
-129.4921875
 10
5090.0390625
 20
-119.53125
 10
5090.0390625
 20
-109.5703125
 10
5090.0390625
 20
-99.609375
 10
5090.0390625
 20
-89.6484375
 10
5090.0390625
 20
-79.6875
 10
5090.0390625
 20
-69.7265625
 10
5090.0390625
 20
-59.765625
 10
5090.0390625
 20
-49.8046875
 10
5090.0390625
 20
-39.84375
 10
5090.0390625
 20
-29.8828125
 10
5090.0390625
 20
-19.921875
 10
5090.0390625
 20
-9.9609375
 10
5090.0390625
 20
-0.0
 10
5080.078125
 20
-0.0
 10
5070.1171875
 20
-0.0
 10
5060.15625
 20
-0.0
 10
5050.1953125
 20
-0.0
 10
5040.234375
 20
-0.0
 10
5030.2734375
 20
-0.0
 10
5020.3125
 20
-0.0
 10
5010.3515625
 20
-0.0
 10
5000.390625
 20
-0.0
 10
4990.4296875
 20
-0.0
 10
4980.46875
 20
-0.0
 10
4970.5078125
 20
-0.0
 10
4960.546875
 20
-0.0
 10
4950.5859375
 20
-0.0
 10
4940.625
 20
-0.0
 10
4930.6640625
 20
-0.0
 10
4920.703125
 20
-0.0
 10
4910.7421875
 20
-0.0
 10
4900.78125
 20
-0.0
 10
4890.8203125
 20
-0.0
 10
4880.859375
 20
-0.0
 10
4870.8984375
 20
-0.0
 10
4860.9375
 20
-0.0
 10
4850.9765625
 20
-0.0
 10
4841.015625
 20
-0.0
 10
4831.0546875
 20
-0.0
 10
4821.09375
 20
-0.0
 10
4811.1328125
 20
-0.0
 10
4801.171875
 20
-0.0
 10
4791.2109375
 20
-0.0
 10
4781.25
 20
-0.0
 10
4771.2890625
 20
-0.0
 10
4761.328125
 20
-0.0
 10
4751.3671875
 20
-0.0
 10
4741.40625
 20
-0.0
 10
4731.4453125
 20
-0.0
 10
4721.484375
 20
-0.0
 10
4711.5234375
 20
-0.0
 10
4701.5625
 20
-0.0
 10
4691.6015625
 20
-0.0
 10
4681.640625
 20
-0.0
 10
4671.6796875
 20
-0.0
 10
4661.71875
 20
-0.0
 10
4651.7578125
 20
-0.0
 10
4641.796875
 20
-0.0
 10
4631.8359375
 20
-0.0
 10
4621.875
 20
-0.0
 10
4611.9140625
 20
-0.0
 10
4601.953125
 20
-0.0
 10
4591.9921875
 20
-0.0
 10
4582.03125
 20
-0.0
 10
4572.0703125
 20
-0.0
 10
4562.109375
 20
-0.0
 10
4552.1484375
 20
-0.0
 10
4542.1875
 20
-0.0
 10
4532.2265625
 20
-0.0
 10
4522.265625
 20
-0.0
 10
4512.3046875
 20
-0.0
 10
4502.34375
 20
-0.0
 10
4492.3828125
 20
-0.0
 10
4482.421875
 20
-0.0
 10
4472.4609375
 20
-0.0
 10
4462.5
 20
-0.0
 10
4452.5390625
 20
-0.0
 10
4442.578125
 20
-0.0
 10
4432.6171875
 20
-0.0
 10
4422.65625
 20
-0.0
 10
4412.6953125
 20
-0.0
 10
4402.734375
 20
-0.0
 10
4392.7734375
 20
-0.0
 10
4382.8125
 20
-0.0
 10
4372.8515625
 20
-0.0
 10
4362.890625
 20
-0.0
 10
4352.9296875
 20
-0.0
 10
4342.96875
 20
-0.0
 10
4333.0078125
 20
-0.0
 10
4323.046875
 20
-0.0
 10
4313.0859375
 20
-0.0
 10
4303.125
 20
-0.0
 10
4293.1640625
 20
-0.0
 10
4283.203125
 20
-0.0
 10
4273.2421875
 20
-0.0
 10
4263.28125
 20
-0.0
 10
4253.3203125
 20
-0.0
 10
4243.359375
 20
-0.0
 10
4233.3984375
 20
-0.0
 10
4223.4375
 20
-0.0
 10
4213.4765625
 20
-0.0
 10
4203.515625
 20
-0.0
 10
4193.5546875
 20
-0.0
 10
4183.59375
 20
-0.0
 10
4173.6328125
 20
-0.0
 10
4163.671875
 20
-0.0
 10
4153.7109375
 20
-0.0
 10
4143.75
 20
-0.0
 10
4133.7890625
 20
-0.0
 10
4123.828125
 20
-0.0
 10
4113.8671875
 20
-0.0
 10
4103.90625
 20
-0.0
 10
4093.9453125
 20
-0.0
 10
4083.984375
 20
-0.0
 10
4074.0234375
 20
-0.0
 10
4064.0625
 20
-0.0
 10
4054.1015625
 20
-0.0
 10
4044.140625
 20
-0.0
 10
4034.1796875
 20
-0.0
 10
4024.21875
 20
-0.0
 10
4014.2578125
 20
-0.0
 10
4004.296875
 20
-0.0
 10
3994.3359375
 20
-0.0
 10
3984.375
 20
-0.0
 10
3974.4140625
 20
-0.0
 10
3964.453125
 20
-0.0
 10
3954.4921875
 20
-0.0
 10
3944.53125
 20
-0.0
 10
3934.5703125
 20
-0.0
 10
3924.609375
 20
-0.0
 10
3914.6484375
 20
-0.0
 10
3904.6875
 20
-0.0
 10
3894.7265625
 20
-0.0
 10
3884.765625
 20
-0.0
 10
3874.8046875
 20
-0.0
 10
3864.84375
 20
-0.0
 10
3854.8828125
 20
-0.0
 10
3844.921875
 20
-0.0
 10
3834.9609375
 20
-0.0
 10
3825.0
 20
-0.0
 10
3815.0390625
 20
-0.0
 10
3805.078125
 20
-0.0
 10
3795.1171875
 20
-0.0
 10
3785.15625
 20
-0.0
 10
3775.1953125
 20
-0.0
 10
3765.234375
 20
-0.0
 10
3755.2734375
 20
-0.0
 10
3745.3125
 20
-0.0
 10
3735.3515625
 20
-0.0
 10
3725.390625
 20
-0.0
 10
3715.4296875
 20
-0.0
 10
3705.46875
 20
-0.0
 10
3695.5078125
 20
-0.0
 10
3685.546875
 20
-0.0
 10
3675.5859375
 20
-0.0
 10
3665.625
 20
-0.0
 10
3655.6640625
 20
-0.0
 10
3645.703125
 20
-0.0
 10
3635.7421875
 20
-0.0
 10
3625.78125
 20
-0.0
 10
3615.8203125
 20
-0.0
 10
3605.859375
 20
-0.0
 10
3595.8984375
 20
-0.0
 10
3585.9375
 20
-0.0
 10
3575.9765625
 20
-0.0
 10
3566.015625
 20
-0.0
 10
3556.0546875
 20
-0.0
 10
3546.09375
 20
-0.0
 10
3536.1328125
 20
-0.0
 10
3526.171875
 20
-0.0
 10
3516.2109375
 20
-0.0
 10
3506.25
 20
-0.0
 10
3496.2890625
 20
-0.0
 10
3486.328125
 20
-0.0
 10
3476.3671875
 20
-0.0
 10
3466.40625
 20
-0.0
 10
3456.4453125
 20
-0.0
 10
3446.484375
 20
-0.0
 10
3436.5234375
 20
-0.0
 10
3426.5625
 20
-0.0
 10
3416.6015625
 20
-0.0
 10
3406.640625
 20
-0.0
 10
3396.6796875
 20
-0.0
 10
3386.71875
 20
-0.0
 10
3376.7578125
 20
-0.0
 10
3366.796875
 20
-0.0
 10
3356.8359375
 20
-0.0
 10
3346.875
 20
-0.0
 10
3336.9140625
 20
-0.0
 10
3326.953125
 20
-0.0
 10
3316.9921875
 20
-0.0
 10
3307.03125
 20
-0.0
 10
3297.0703125
 20
-0.0
 10
3287.109375
 20
-0.0
 10
3277.1484375
 20
-0.0
 10
3267.1875
 20
-0.0
 10
3257.2265625
 20
-0.0
 10
3247.265625
 20
-0.0
 10
3237.3046875
 20
-0.0
 10
3227.34375
 20
-0.0
 10
3217.3828125
 20
-0.0
 10
3207.421875
 20
-0.0
 10
3197.4609375
 20
-0.0
 10
3187.5
 20
-0.0
 10
3177.5390625
 20
-0.0
 10
3167.578125
 20
-0.0
 10
3157.6171875
 20
-0.0
 10
3147.65625
 20
-0.0
 10
3137.6953125
 20
-0.0
 10
3127.734375
 20
-0.0
 10
3117.7734375
 20
-0.0
 10
3107.8125
 20
-0.0
 10
3097.8515625
 20
-0.0
 10
3087.890625
 20
-0.0
 10
3077.9296875
 20
-0.0
 10
3067.96875
 20
-0.0
 10
3058.0078125
 20
-0.0
 10
3048.046875
 20
-0.0
 10
3038.0859375
 20
-0.0
 10
3028.125
 20
-0.0
 10
3018.1640625
 20
-0.0
 10
3008.203125
 20
-0.0
 10
2998.2421875
 20
-0.0
 10
2988.28125
 20
-0.0
 10
2978.3203125
 20
-0.0
 10
2968.359375
 20
-0.0
 10
2958.3984375
 20
-0.0
 10
2948.4375
 20
-0.0
 10
2938.4765625
 20
-0.0
 10
2928.515625
 20
-0.0
 10
2918.5546875
 20
-0.0
 10
2908.59375
 20
-0.0
 10
2898.6328125
 20
-0.0
 10
2888.671875
 20
-0.0
 10
2878.7109375
 20
-0.0
 10
2868.75
 20
-0.0
 10
2858.7890625
 20
-0.0
 10
2848.828125
 20
-0.0
 10
2838.8671875
 20
-0.0
 10
2828.90625
 20
-0.0
 10
2818.9453125
 20
-0.0
 10
2808.984375
 20
-0.0
 10
2799.0234375
 20
-0.0
 10
2789.0625
 20
-0.0
 10
2779.1015625
 20
-0.0
 10
2769.140625
 20
-0.0
 10
2759.1796875
 20
-0.0
 10
2749.21875
 20
-0.0
 10
2739.2578125
 20
-0.0
 10
2729.296875
 20
-0.0
 10
2719.3359375
 20
-0.0
 10
2709.375
 20
-0.0
 10
2699.4140625
 20
-0.0
 10
2689.453125
 20
-0.0
 10
2679.4921875
 20
-0.0
 10
2669.53125
 20
-0.0
 10
2659.5703125
 20
-0.0
 10
2649.609375
 20
-0.0
 10
2639.6484375
 20
-0.0
 10
2629.6875
 20
-0.0
 10
2619.7265625
 20
-0.0
 10
2609.765625
 20
-0.0
 10
2599.8046875
 20
-0.0
 10
2589.84375
 20
-0.0
 10
2579.8828125
 20
-0.0
 10
2569.921875
 20
-0.0
 10
2559.9609375
 20
-0.0
 10
2550.0
 20
-0.0
 10
2540.0390625
 20
-0.0
 10
2530.078125
 20
-0.0
 10
2520.1171875
 20
-0.0
 10
2510.15625
 20
-0.0
 10
2500.1953125
 20
-0.0
 10
2490.234375
 20
-0.0
 10
2480.2734375
 20
-0.0
 10
2470.3125
 20
-0.0
 10
2460.3515625
 20
-0.0
 10
2450.390625
 20
-0.0
 10
2440.4296875
 20
-0.0
 10
2430.46875
 20
-0.0
 10
2420.5078125
 20
-0.0
 10
2410.546875
 20
-0.0
 10
2400.5859375
 20
-0.0
 10
2390.625
 20
-0.0
 10
2380.6640625
 20
-0.0
 10
2370.703125
 20
-0.0
 10
2360.7421875
 20
-0.0
 10
2350.78125
 20
-0.0
 10
2340.8203125
 20
-0.0
 10
2330.859375
 20
-0.0
 10
2320.8984375
 20
-0.0
 10
2310.9375
 20
-0.0
 10
2300.9765625
 20
-0.0
 10
2291.015625
 20
-0.0
 10
2281.0546875
 20
-0.0
 10
2271.09375
 20
-0.0
 10
2261.1328125
 20
-0.0
 10
2251.171875
 20
-0.0
 10
2241.2109375
 20
-0.0
 10
2231.25
 20
-0.0
 10
2221.2890625
 20
-0.0
 10
2211.328125
 20
-0.0
 10
2201.3671875
 20
-0.0
 10
2191.40625
 20
-0.0
 10
2181.4453125
 20
-0.0
 10
2171.484375
 20
-0.0
 10
2161.5234375
 20
-0.0
 10
2151.5625
 20
-0.0
 10
2141.6015625
 20
-0.0
 10
2131.640625
 20
-0.0
 10
2121.6796875
 20
-0.0
 10
2111.71875
 20
-0.0
 10
2101.7578125
 20
-0.0
 10
2091.796875
 20
-0.0
 10
2081.8359375
 20
-0.0
 10
2071.875
 20
-0.0
 10
2061.9140625
 20
-0.0
 10
2051.953125
 20
-0.0
 10
2041.9921875
 20
-0.0
 10
2032.03125
 20
-0.0
 10
2022.0703125
 20
-0.0
 10
2012.109375
 20
-0.0
 10
2002.1484375
 20
-0.0
 10
1992.1875
 20
-0.0
 10
1982.2265625
 20
-0.0
 10
1972.265625
 20
-0.0
 10
1962.3046875
 20
-0.0
 10
1952.34375
 20
-0.0
 10
1942.3828125
 20
-0.0
 10
1932.421875
 20
-0.0
 10
1922.4609375
 20
-0.0
 10
1912.5
 20
-0.0
 10
1902.5390625
 20
-0.0
 10
1892.578125
 20
-0.0
 10
1882.6171875
 20
-0.0
 10
1872.65625
 20
-0.0
 10
1862.6953125
 20
-0.0
 10
1852.734375
 20
-0.0
 10
1842.7734375
 20
-0.0
 10
1832.8125
 20
-0.0
 10
1822.8515625
 20
-0.0
 10
1812.890625
 20
-0.0
 10
1802.9296875
 20
-0.0
 10
1792.96875
 20
-0.0
 10
1783.0078125
 20
-0.0
 10
1773.046875
 20
-0.0
 10
1763.0859375
 20
-0.0
 10
1753.125
 20
-0.0
 10
1743.1640625
 20
-0.0
 10
1733.203125
 20
-0.0
 10
1723.2421875
 20
-0.0
 10
1713.28125
 20
-0.0
 10
1703.3203125
 20
-0.0
 10
1693.359375
 20
-0.0
 10
1683.3984375
 20
-0.0
 10
1673.4375
 20
-0.0
 10
1663.4765625
 20
-0.0
 10
1653.515625
 20
-0.0
 10
1643.5546875
 20
-0.0
 10
1633.59375
 20
-0.0
 10
1623.6328125
 20
-0.0
 10
1613.671875
 20
-0.0
 10
1603.7109375
 20
-0.0
 10
1593.75
 20
-0.0
 10
1583.7890625
 20
-0.0
 10
1573.828125
 20
-0.0
 10
1563.8671875
 20
-0.0
 10
1553.90625
 20
-0.0
 10
1543.9453125
 20
-0.0
 10
1533.984375
 20
-0.0
 10
1524.0234375
 20
-0.0
 10
1514.0625
 20
-0.0
 10
1504.1015625
 20
-0.0
 10
1494.140625
 20
-0.0
 10
1484.1796875
 20
-0.0
 10
1474.21875
 20
-0.0
 10
1464.2578125
 20
-0.0
 10
1454.296875
 20
-0.0
 10
1444.3359375
 20
-0.0
 10
1434.375
 20
-0.0
 10
1424.4140625
 20
-0.0
 10
1414.453125
 20
-0.0
 10
1404.4921875
 20
-0.0
 10
1394.53125
 20
-0.0
 10
1384.5703125
 20
-0.0
 10
1374.609375
 20
-0.0
 10
1364.6484375
 20
-0.0
 10
1354.6875
 20
-0.0
 10
1344.7265625
 20
-0.0
 10
1334.765625
 20
-0.0
 10
1324.8046875
 20
-0.0
 10
1314.84375
 20
-0.0
 10
1304.8828125
 20
-0.0
 10
1294.921875
 20
-0.0
 10
1284.9609375
 20
-0.0
 10
1275.0
 20
-0.0
 10
1265.0390625
 20
-0.0
 10
1255.078125
 20
-0.0
 10
1245.1171875
 20
-0.0
 10
1235.15625
 20
-0.0
 10
1225.1953125
 20
-0.0
 10
1215.234375
 20
-0.0
 10
1205.2734375
 20
-0.0
 10
1195.3125
 20
-0.0
 10
1185.3515625
 20
-0.0
 10
1175.390625
 20
-0.0
 10
1165.4296875
 20
-0.0
 10
1155.46875
 20
-0.0
 10
1145.5078125
 20
-0.0
 10
1135.546875
 20
-0.0
 10
1125.5859375
 20
-0.0
 10
1115.625
 20
-0.0
 10
1105.6640625
 20
-0.0
 10
1095.703125
 20
-0.0
 10
1085.7421875
 20
-0.0
 10
1075.78125
 20
-0.0
 10
1065.8203125
 20
-0.0
 10
1055.859375
 20
-0.0
 10
1045.8984375
 20
-0.0
 10
1035.9375
 20
-0.0
 10
1025.9765625
 20
-0.0
 10
1016.015625
 20
-0.0
 10
1006.0546875
 20
-0.0
 10
996.09375
 20
-0.0
 10
986.1328125
 20
-0.0
 10
976.171875
 20
-0.0
 10
966.2109375
 20
-0.0
 10
956.25
 20
-0.0
 10
946.2890625
 20
-0.0
 10
936.328125
 20
-0.0
 10
926.3671875
 20
-0.0
 10
916.40625
 20
-0.0
 10
906.4453125
 20
-0.0
 10
896.484375
 20
-0.0
 10
886.5234375
 20
-0.0
 10
876.5625
 20
-0.0
 10
866.6015625
 20
-0.0
 10
856.640625
 20
-0.0
 10
846.6796875
 20
-0.0
 10
836.71875
 20
-0.0
 10
826.7578125
 20
-0.0
 10
816.796875
 20
-0.0
 10
806.8359375
 20
-0.0
 10
796.875
 20
-0.0
 10
786.9140625
 20
-0.0
 10
776.953125
 20
-0.0
 10
766.9921875
 20
-0.0
 10
757.03125
 20
-0.0
 10
747.0703125
 20
-0.0
 10
737.109375
 20
-0.0
 10
727.1484375
 20
-0.0
 10
717.1875
 20
-0.0
 10
707.2265625
 20
-0.0
 10
697.265625
 20
-0.0
 10
687.3046875
 20
-0.0
 10
677.34375
 20
-0.0
 10
667.3828125
 20
-0.0
 10
657.421875
 20
-0.0
 10
647.4609375
 20
-0.0
 10
637.5
 20
-0.0
 10
627.5390625
 20
-0.0
 10
617.578125
 20
-0.0
 10
607.6171875
 20
-0.0
 10
597.65625
 20
-0.0
 10
587.6953125
 20
-0.0
 10
577.734375
 20
-0.0
 10
567.7734375
 20
-0.0
 10
557.8125
 20
-0.0
 10
547.8515625
 20
-0.0
 10
537.890625
 20
-0.0
 10
527.9296875
 20
-0.0
 10
517.96875
 20
-0.0
 10
508.0078125
 20
-0.0
 10
498.046875
 20
-0.0
 10
488.0859375
 20
-0.0
 10
478.125
 20
-0.0
 10
468.1640625
 20
-0.0
 10
458.203125
 20
-0.0
 10
448.2421875
 20
-0.0
 10
438.28125
 20
-0.0
 10
428.3203125
 20
-0.0
 10
418.359375
 20
-0.0
 10
408.3984375
 20
-0.0
 10
398.4375
 20
-0.0
 10
388.4765625
 20
-0.0
 10
378.515625
 20
-0.0
 10
368.5546875
 20
-0.0
 10
358.59375
 20
-0.0
 10
348.6328125
 20
-0.0
 10
338.671875
 20
-0.0
 10
328.7109375
 20
-0.0
 10
318.75
 20
-0.0
 10
308.7890625
 20
-0.0
 10
298.828125
 20
-0.0
 10
288.8671875
 20
-0.0
 10
278.90625
 20
-0.0
 10
268.9453125
 20
-0.0
 10
258.984375
 20
-0.0
 10
249.0234375
 20
-0.0
 10
239.0625
 20
-0.0
 10
229.1015625
 20
-0.0
 10
219.140625
 20
-0.0
 10
209.1796875
 20
-0.0
 10
199.21875
 20
-0.0
 10
189.2578125
 20
-0.0
 10
179.296875
 20
-0.0
 10
169.3359375
 20
-0.0
 10
159.375
 20
-0.0
 10
149.4140625
 20
-0.0
 10
139.453125
 20
-0.0
 10
129.4921875
 20
-0.0
 10
119.53125
 20
-0.0
 10
109.5703125
 20
-0.0
 10
99.609375
 20
-0.0
 10
89.6484375
 20
-0.0
 10
79.6875
 20
-0.0
 10
69.7265625
 20
-0.0
 10
59.765625
 20
-0.0
 10
49.8046875
 20
-0.0
 10
39.84375
 20
-0.0
 10
29.8828125
 20
-0.0
 10
19.921875
 20
-0.0
 10
9.9609375
 20
-0.0
  0
LWPOLYLINE
  5
37
330
17
100
AcDbEntity
  8
substrate
100
AcDbPolyline
 90
196
 70
1
 43
0.5
 10
2460.3515625
 20
-2211.328125
 10
2470.3125
 20
-2201.3671875
 10
2480.2734375
 20
-2211.328125
 10
2490.234375
 20
-2211.328125
 10
2500.1953125
 20
-2201.3671875
 10
2510.15625
 20
-2211.328125
 10
2520.1171875
 20
-2201.3671875
 10
2530.078125
 20
-2201.3671875
 10
2540.0390625
 20
-2201.3671875
 10
2550.0
 20
-2201.3671875
 10
2559.9609375
 20
-2201.3671875
 10
2569.921875
 20
-2201.3671875
 10
2579.8828125
 20
-2201.3671875
 10
2589.84375
 20
-2211.328125
 10
2599.8046875
 20
-2211.328125
 10
2609.765625
 20
-2211.328125
 10
2619.7265625
 20
-2211.328125
 10
2629.6875
 20
-2211.328125
 10
2639.6484375
 20
-2221.2890625
 10
2649.609375
 20
-2221.2890625
 10
2659.5703125
 20
-2221.2890625
 10
2669.53125
 20
-2221.2890625
 10
2679.4921875
 20
-2231.25
 10
2689.453125
 20
-2231.25
 10
2699.4140625
 20
-2241.2109375
 10
2709.375
 20
-2241.2109375
 10
2719.3359375
 20
-2251.171875
 10
2729.296875
 20
-2251.171875
 10
2739.2578125
 20
-2261.1328125
 10
2749.21875
 20
-2271.09375
 10
2759.1796875
 20
-2281.0546875
 10
2769.140625
 20
-2281.0546875
 10
2779.1015625
 20
-2291.015625
 10
2789.0625
 20
-2300.9765625
 10
2799.0234375
 20
-2310.9375
 10
2799.0234375
 20
-2320.8984375
 10
2808.984375
 20
-2330.859375
 10
2818.9453125
 20
-2340.8203125
 10
2828.90625
 20
-2350.78125
 10
2838.8671875
 20
-2360.7421875
 10
2838.8671875
 20
-2370.703125
 10
2848.828125
 20
-2380.6640625
 10
2858.7890625
 20
-2390.625
 10
2858.7890625
 20
-2400.5859375
 10
2868.75
 20
-2410.546875
 10
2868.75
 20
-2420.5078125
 10
2868.75
 20
-2430.46875
 10
2878.7109375
 20
-2440.4296875
 10
2878.7109375
 20
-2450.390625
 10
2878.7109375
 20
-2460.3515625
 10
2888.671875
 20
-2470.3125
 10
2888.671875
 20
-2480.2734375
 10
2888.671875
 20
-2490.234375
 10
2888.671875
 20
-2500.1953125
 10
2888.671875
 20
-2510.15625
 10
2888.671875
 20
-2520.1171875
 10
2888.671875
 20
-2530.078125
 10
2888.671875
 20
-2540.0390625
 10
2888.671875
 20
-2550.0
 10
2888.671875
 20
-2559.9609375
 10
2888.671875
 20
-2569.921875
 10
2888.671875
 20
-2579.8828125
 10
2888.671875
 20
-2589.84375
 10
2888.671875
 20
-2599.8046875
 10
2888.671875
 20
-2609.765625
 10
2888.671875
 20
-2619.7265625
 10
2888.671875
 20
-2629.6875
 10
2878.7109375
 20
-2639.6484375
 10
2878.7109375
 20
-2649.609375
 10
2868.75
 20
-2659.5703125
 10
2868.75
 20
-2669.53125
 10
2868.75
 20
-2679.4921875
 10
2858.7890625
 20
-2689.453125
 10
2848.828125
 20
-2699.4140625
 10
2848.828125
 20
-2709.375
 10
2838.8671875
 20
-2719.3359375
 10
2828.90625
 20
-2729.296875
 10
2828.90625
 20
-2739.2578125
 10
2818.9453125
 20
-2749.21875
 10
2808.984375
 20
-2759.1796875
 10
2799.0234375
 20
-2769.140625
 10
2799.0234375
 20
-2779.1015625
 10
2789.0625
 20
-2789.0625
 10
2779.1015625
 20
-2799.0234375
 10
2769.140625
 20
-2799.0234375
 10
2759.1796875
 20
-2808.984375
 10
2749.21875
 20
-2818.9453125
 10
2739.2578125
 20
-2828.90625
 10
2729.296875
 20
-2828.90625
 10
2719.3359375
 20
-2838.8671875
 10
2709.375
 20
-2848.828125
 10
2699.4140625
 20
-2848.828125
 10
2689.453125
 20
-2858.7890625
 10
2679.4921875
 20
-2858.7890625
 10
2669.53125
 20
-2858.7890625
 10
2659.5703125
 20
-2868.75
 10
2649.609375
 20
-2868.75
 10
2639.6484375
 20
-2878.7109375
 10
2629.6875
 20
-2878.7109375
 10
2619.7265625
 20
-2878.7109375
 10
2609.765625
 20
-2888.671875
 10
2599.8046875
 20
-2888.671875
 10
2589.84375
 20
-2888.671875
 10
2579.8828125
 20
-2888.671875
 10
2569.921875
 20
-2888.671875
 10
2559.9609375
 20
-2898.6328125
 10
2550.0
 20
-2898.6328125
 10
2540.0390625
 20
-2898.6328125
 10
2530.078125
 20
-2898.6328125
 10
2520.1171875
 20
-2898.6328125
 10
2510.15625
 20
-2888.671875
 10
2500.1953125
 20
-2878.7109375
 10
2490.234375
 20
-2878.7109375
 10
2480.2734375
 20
-2878.7109375
 10
2470.3125
 20
-2878.7109375
 10
2460.3515625
 20
-2878.7109375
 10
2450.390625
 20
-2878.7109375
 10
2440.4296875
 20
-2868.75
 10
2430.46875
 20
-2868.75
 10
2420.5078125
 20
-2868.75
 10
2410.546875
 20
-2858.7890625
 10
2400.5859375
 20
-2858.7890625
 10
2390.625
 20
-2858.7890625
 10
2380.6640625
 20
-2848.828125
 10
2370.703125
 20
-2848.828125
 10
2360.7421875
 20
-2838.8671875
 10
2350.78125
 20
-2838.8671875
 10
2340.8203125
 20
-2828.90625
 10
2330.859375
 20
-2818.9453125
 10
2320.8984375
 20
-2808.984375
 10
2310.9375
 20
-2799.0234375
 10
2300.9765625
 20
-2789.0625
 10
2291.015625
 20
-2779.1015625
 10
2281.0546875
 20
-2769.140625
 10
2271.09375
 20
-2759.1796875
 10
2271.09375
 20
-2749.21875
 10
2261.1328125
 20
-2739.2578125
 10
2261.1328125
 20
-2729.296875
 10
2251.171875
 20
-2719.3359375
 10
2241.2109375
 20
-2709.375
 10
2241.2109375
 20
-2699.4140625
 10
2231.25
 20
-2689.453125
 10
2231.25
 20
-2679.4921875
 10
2221.2890625
 20
-2669.53125
 10
2221.2890625
 20
-2659.5703125
 10
2221.2890625
 20
-2649.609375
 10
2211.328125
 20
-2639.6484375
 10
2211.328125
 20
-2629.6875
 10
2211.328125
 20
-2619.7265625
 10
2211.328125
 20
-2609.765625
 10
2211.328125
 20
-2599.8046875
 10
2201.3671875
 20
-2589.84375
 10
2201.3671875
 20
-2579.8828125
 10
2191.40625
 20
-2569.921875
 10
2201.3671875
 20
-2559.9609375
 10
2201.3671875
 20
-2550.0
 10
2201.3671875
 20
-2540.0390625
 10
2201.3671875
 20
-2530.078125
 10
2211.328125
 20
-2520.1171875
 10
2201.3671875
 20
-2510.15625
 10
2201.3671875
 20
-2500.1953125
 10
2201.3671875
 20
-2490.234375
 10
2211.328125
 20
-2480.2734375
 10
2211.328125
 20
-2470.3125
 10
2211.328125
 20
-2460.3515625
 10
2211.328125
 20
-2450.390625
 10
2211.328125
 20
-2440.4296875
 10
2221.2890625
 20
-2430.46875
 10
2231.25
 20
-2420.5078125
 10
2231.25
 20
-2410.546875
 10
2241.2109375
 20
-2400.5859375
 10
2241.2109375
 20
-2390.625
 10
2241.2109375
 20
-2380.6640625
 10
2251.171875
 20
-2370.703125
 10
2261.1328125
 20
-2360.7421875
 10
2261.1328125
 20
-2350.78125
 10
2271.09375
 20
-2340.8203125
 10
2281.0546875
 20
-2330.859375
 10
2281.0546875
 20
-2320.8984375
 10
2291.015625
 20
-2310.9375
 10
2300.9765625
 20
-2300.9765625
 10
2310.9375
 20
-2291.015625
 10
2320.8984375
 20
-2291.015625
 10
2330.859375
 20
-2281.0546875
 10
2340.8203125
 20
-2271.09375
 10
2350.78125
 20
-2261.1328125
 10
2360.7421875
 20
-2261.1328125
 10
2370.703125
 20
-2251.171875
 10
2380.6640625
 20
-2251.171875
 10
2390.625
 20
-2241.2109375
 10
2400.5859375
 20
-2231.25
 10
2410.546875
 20
-2231.25
 10
2420.5078125
 20
-2231.25
 10
2430.46875
 20
-2221.2890625
 10
2440.4296875
 20
-2221.2890625
 10
2450.390625
 20
-2221.2890625
  0
LWPOLYLINE
  5
38
330
17
100
AcDbEntity
  8
substrate
100
AcDbPolyline
 90
3
 70
1
 43
0.5
 10
2679.4921875
 20
-2390.625
 10
2689.453125
 20
-2400.5859375
 10
2689.453125
 20
-2390.625
  0
ENDSEC
  0
SECTION
  2
OBJECTS
  0
DICTIONARY
  5
A
330
0
100
AcDbDictionary
280
0
281
1
  3
ACAD_COLOR
350
B
  3
ACAD_GROUP
350
C
  3
ACAD_LAYOUT
350
D
  3
ACAD_MATERIAL
350
E
  3
ACAD_MLEADERSTYLE
350
F
  3
ACAD_MLINESTYLE
350
10
  3
ACAD_PLOTSETTINGS
350
11
  3
ACAD_PLOTSTYLENAME
350
12
  3
ACAD_SCALELIST
350
14
  3
ACAD_TABLESTYLE
350
15
  3
ACAD_VISUALSTYLE
350
16
  3
EZDXF_META
350
2D
  0
DICTIONARY
  5
B
330
A
100
AcDbDictionary
280
0
281
1
  0
DICTIONARY
  5
C
330
A
100
AcDbDictionary
280
0
281
1
  0
DICTIONARY
  5
D
330
A
100
AcDbDictionary
280
0
281
1
  3
Model
350
1A
  3
Layout1
350
1E
  0
DICTIONARY
  5
E
330
A
100
AcDbDictionary
280
0
281
1
  3
ByBlock
350
1F
  3
ByLayer
350
20
  3
Global
350
21
  0
DICTIONARY
  5
F
330
A
100
AcDbDictionary
280
0
281
1
  3
Standard
350
2C
  0
DICTIONARY
  5
10
330
A
100
AcDbDictionary
280
0
281
1
  3
Standard
350
22
  0
DICTIONARY
  5
11
330
A
100
AcDbDictionary
280
0
281
1
  0
ACDBDICTIONARYWDFLT
  5
12
330
A
100
AcDbDictionary
280
0
281
1
  3
Normal
350
13
100
AcDbDictionaryWithDefault
340
13
  0
ACDBPLACEHOLDER
  5
13
330
12
  0
DICTIONARY
  5
14
330
A
100
AcDbDictionary
280
0
281
1
  0
DICTIONARY
  5
15
330
A
100
AcDbDictionary
280
0
281
1
  0
DICTIONARY
  5
16
330
A
100
AcDbDictionary
280
0
281
1
  0
LAYOUT
  5
1A
330
D
100
AcDbPlotSettings
  1

  2
Adobe PDF
  4
A3
  6

 40
7.5
 41
20.0
 42
7.5
 43
20.0
 44
420.0
 45
297.0
 46
0.0
 47
0.0
 48
0.0
 49
0.0
140
0.0
141
0.0
142
1.0
143
1.0
 70
1024
 72
1
 73
0
 74
5
  7

 75
16
 76
0
 77
2
 78
300
147
1.0
148
0.0
149
0.0
100
AcDbLayout
  1
Model
 70
1
 71
0
 10
0.0
 20
0.0
 11
420.0
 21
297.0
 12
0.0
 22
0.0
 32
0.0
 14
1e+20
 24
1e+20
 34
1e+20
 15
-1e+20
 25
-1e+20
 35
-1e+20
146
0.0
 13
0.0
 23
0.0
 33
0.0
 16
1.0
 26
0.0
 36
0.0
 17
0.0
 27
1.0
 37
0.0
 76
1
330
17
  0
LAYOUT
  5
1E
330
D
100
AcDbPlotSettings
  1

  2
Adobe PDF
  4
A3
  6

 40
7.5
 41
20.0
 42
7.5
 43
20.0
 44
420.0
 45
297.0
 46
0.0
 47
0.0
 48
0.0
 49
0.0
140
0.0
141
0.0
142
1.0
143
1.0
 70
0
 72
1
 73
0
 74
5
  7

 75
16
 76
0
 77
2
 78
300
147
1.0
148
0.0
149
0.0
100
AcDbLayout
  1
Layout1
 70
1
 71
1
 10
0.0
 20
0.0
 11
420.0
 21
297.0
 12
0.0
 22
0.0
 32
0.0
 14
1e+20
 24
1e+20
 34
1e+20
 15
-1e+20
 25
-1e+20
 35
-1e+20
146
0.0
 13
0.0
 23
0.0
 33
0.0
 16
1.0
 26
0.0
 36
0.0
 17
0.0
 27
1.0
 37
0.0
 76
1
330
1B
  0
MATERIAL
  5
1F
102
{ACAD_REACTORS
330
E
102
}
330
E
100
AcDbMaterial
  1
ByBlock
  2

 70
0
 40
1.0
 71
1
 41
1.0
 91
-1023410177
 42
1.0
 72
1
  3

 73
1
 74
1
 75
1
 44
0.5
 73
0
 45
1.0
 46
1.0
 77
1
  4

 78
1
 79
1
170
1
 48
1.0
171
1
  6

172
1
173
1
174
1
140
1.0
141
1.0
175
1
  7

176
1
177
1
178
1
143
1.0
179
1
  8

270
1
271
1
272
1
145
1.0
146
1.0
273
1
  9

274
1
275
1
276
1
 42
1.0
 72
1
  3

 73
1
 74
1
 75
1
 94
63
  0
MATERIAL
  5
20
102
{ACAD_REACTORS
330
E
102
}
330
E
100
AcDbMaterial
  1
ByLayer
  2

 70
0
 40
1.0
 71
1
 41
1.0
 91
-1023410177
 42
1.0
 72
1
  3

 73
1
 74
1
 75
1
 44
0.5
 73
0
 45
1.0
 46
1.0
 77
1
  4

 78
1
 79
1
170
1
 48
1.0
171
1
  6

172
1
173
1
174
1
140
1.0
141
1.0
175
1
  7

176
1
177
1
178
1
143
1.0
179
1
  8

270
1
271
1
272
1
145
1.0
146
1.0
273
1
  9

274
1
275
1
276
1
 42
1.0
 72
1
  3

 73
1
 74
1
 75
1
 94
63
  0
MATERIAL
  5
21
102
{ACAD_REACTORS
330
E
102
}
330
E
100
AcDbMaterial
  1
Global
  2

 70
0
 40
1.0
 71
1
 41
1.0
 91
-1023410177
 42
1.0
 72
1
  3

 73
1
 74
1
 75
1
 44
0.5
 73
0
 45
1.0
 46
1.0
 77
1
  4

 78
1
 79
1
170
1
 48
1.0
171
1
  6

172
1
173
1
174
1
140
1.0
141
1.0
175
1
  7

176
1
177
1
178
1
143
1.0
179
1
  8

270
1
271
1
272
1
145
1.0
146
1.0
273
1
  9

274
1
275
1
276
1
 42
1.0
 72
1
  3

 73
1
 74
1
 75
1
 94
63
  0
MLINESTYLE
  5
22
102
{ACAD_REACTORS
330
10
102
}
330
10
100
AcDbMlineStyle
  2
Standard
 70
0
  3

 62
256
 51
90.0
 52
90.0
 71
2
 49
0.5
 62
256
  6
BYLAYER
 49
-0.5
 62
256
  6
BYLAYER
  0
MLEADERSTYLE
  5
2C
102
{ACAD_REACTORS
330
F
102
}
330
F
100
AcDbMLeaderStyle
179
2
170
2
171
1
172
0
 90
2
 40
0.0
 41
0.0
173
1
 91
-1056964608
 92
-2
290
1
 42
2.0
291
1
 43
8.0
  3
Standard
 44
4.0
300

342
29
174
1
175
1
176
0
178
1
 93
-1056964608
 45
4.0
292
0
297
0
 46
4.0
 94
-1056964608
 47
1.0
 49
1.0
140
1.0
294
1
141
0.0
177
0
142
1.0
295
0
296
0
143
3.75
271
0
272
9
273
9
  0
DICTIONARY
  5
2D
330
A
100
AcDbDictionary
281
1
  3
CREATED_BY_EZDXF
350
2E
  3
WRITTEN_BY_EZDXF
350
3B
  0
DICTIONARYVAR
  5
2E
330
2D
100
DictionaryVariables
280
0
  1
1.1.0 @ 2025-01-07T12:37:45.341034+00:00
  0
DICTIONARYVAR
  5
3B
330
2D
100
DictionaryVariables
280
0
  1
1.1.0 @ 2025-01-07T12:37:45.345798+00:00
  0
ENDSEC
  0
EOF
