  0
SECTION
  2
HEADER
  9
$ACADVER
  1
AC1027
  9
$ACADMAINTVER
 70
105
  9
$DWGCODEPAGE
  3
ANSI_1252
  9
$LASTSAVEDBY
  1
ezdxf
  9
$REQUIREDVERSIONS
160
0
  9
$INSBASE
 10
0.0
 20
0.0
 30
0.0
  9
$EXTMIN
 10
1e+20
 20
1e+20
 30
1e+20
  9
$EXTMAX
 10
-1e+20
 20
-1e+20
 30
-1e+20
  9
$LIMMIN
 10
0.0
 20
0.0
  9
$LIMMAX
 10
420.0
 20
297.0
  9
$ORTHOMODE
 70
0
  9
$REGENMODE
 70
1
  9
$FILLMODE
 70
1
  9
$QTEXTMODE
 70
0
  9
$MIRRTEXT
 70
1
  9
$LTSCALE
 40
1.0
  9
$ATTMODE
 70
1
  9
$TEXTSIZE
 40
2.5
  9
$TRACEWID
 40
1.0
  9
$TEXTSTYLE
  7
Standard
  9
$CLAYER
  8
0
  9
$CELTYPE
  6
ByLayer
  9
$CECOLOR
 62
256
  9
$CELTSCALE
 40
1.0
  9
$DISPSILH
 70
0
  9
$DIMSCALE
 40
1.0
  9
$DIMASZ
 40
2.5
  9
$DIMEXO
 40
0.625
  9
$DIMDLI
 40
3.75
  9
$DIMRND
 40
0.0
  9
$DIMDLE
 40
0.0
  9
$DIMEXE
 40
1.25
  9
$DIMTP
 40
0.0
  9
$DIMTM
 40
0.0
  9
$DIMTXT
 40
2.5
  9
$DIMCEN
 40
2.5
  9
$DIMTSZ
 40
0.0
  9
$DIMTOL
 70
0
  9
$DIMLIM
 70
0
  9
$DIMTIH
 70
0
  9
$DIMTOH
 70
0
  9
$DIMSE1
 70
0
  9
$DIMSE2
 70
0
  9
$DIMTAD
 70
1
  9
$DIMZIN
 70
8
  9
$DIMBLK
  1

  9
$DIMASO
 70
1
  9
$DIMSHO
 70
1
  9
$DIMPOST
  1

  9
$DIMAPOST
  1

  9
$DIMALT
 70
0
  9
$DIMALTD
 70
3
  9
$DIMALTF
 40
0.03937007874
  9
$DIMLFAC
 40
1.0
  9
$DIMTOFL
 70
1
  9
$DIMTVP
 40
0.0
  9
$DIMTIX
 70
0
  9
$DIMSOXD
 70
0
  9
$DIMSAH
 70
0
  9
$DIMBLK1
  1

  9
$DIMBLK2
  1

  9
$DIMSTYLE
  2
ISO-25
  9
$DIMCLRD
 70
0
  9
$DIMCLRE
 70
0
  9
$DIMCLRT
 70
0
  9
$DIMTFAC
 40
1.0
  9
$DIMGAP
 40
0.625
  9
$DIMJUST
 70
0
  9
$DIMSD1
 70
0
  9
$DIMSD2
 70
0
  9
$DIMTOLJ
 70
0
  9
$DIMTZIN
 70
8
  9
$DIMALTZ
 70
0
  9
$DIMALTTZ
 70
0
  9
$DIMUPT
 70
0
  9
$DIMDEC
 70
2
  9
$DIMTDEC
 70
2
  9
$DIMALTU
 70
2
  9
$DIMALTTD
 70
3
  9
$DIMTXSTY
  7
Standard
  9
$DIMAUNIT
 70
0
  9
$DIMADEC
 70
0
  9
$DIMALTRND
 40
0.0
  9
$DIMAZIN
 70
0
  9
$DIMDSEP
 70
44
  9
$DIMATFIT
 70
3
  9
$DIMFRAC
 70
0
  9
$DIMLDRBLK
  1

  9
$DIMLUNIT
 70
2
  9
$DIMLWD
 70
-2
  9
$DIMLWE
 70
-2
  9
$DIMTMOVE
 70
0
  9
$DIMFXL
 40
1.0
  9
$DIMFXLON
 70
0
  9
$DIMJOGANG
 40
0.785398163397
  9
$DIMTFILL
 70
0
  9
$DIMTFILLCLR
 70
0
  9
$DIMARCSYM
 70
0
  9
$DIMLTYPE
  6

  9
$DIMLTEX1
  6

  9
$DIMLTEX2
  6

  9
$DIMTXTDIRECTION
 70
0
  9
$LUNITS
 70
2
  9
$LUPREC
 70
4
  9
$SKETCHINC
 40
1.0
  9
$FILLETRAD
 40
10.0
  9
$AUNITS
 70
0
  9
$AUPREC
 70
2
  9
$MENU
  1
.
  9
$ELEVATION
 40
0.0
  9
$PELEVATION
 40
0.0
  9
$THICKNESS
 40
0.0
  9
$LIMCHECK
 70
0
  9
$CHAMFERA
 40
0.0
  9
$CHAMFERB
 40
0.0
  9
$CHAMFERC
 40
0.0
  9
$CHAMFERD
 40
0.0
  9
$SKPOLY
 70
0
  9
$TDCREATE
 40
2460673.6540393517
  9
$TDUCREATE
 40
2458532.153996898
  9
$TDUPDATE
 40
2460673.6540393517
  9
$TDUUPDATE
 40
2458532.1544311
  9
$TDINDWG
 40
0.0
  9
$TDUSRTIMER
 40
0.0
  9
$USRTIMER
 70
1
  9
$ANGBASE
 50
0.0
  9
$ANGDIR
 70
0
  9
$PDMODE
 70
0
  9
$PDSIZE
 40
0.0
  9
$PLINEWID
 40
0.0
  9
$SPLFRAME
 70
0
  9
$SPLINETYPE
 70
6
  9
$SPLINESEGS
 70
8
  9
$HANDSEED
  5
38
  9
$SURFTAB1
 70
6
  9
$SURFTAB2
 70
6
  9
$SURFTYPE
 70
6
  9
$SURFU
 70
6
  9
$SURFV
 70
6
  9
$UCSBASE
  2

  9
$UCSNAME
  2

  9
$UCSORG
 10
0.0
 20
0.0
 30
0.0
  9
$UCSXDIR
 10
1.0
 20
0.0
 30
0.0
  9
$UCSYDIR
 10
0.0
 20
1.0
 30
0.0
  9
$UCSORTHOREF
  2

  9
$UCSORTHOVIEW
 70
0
  9
$UCSORGTOP
 10
0.0
 20
0.0
 30
0.0
  9
$UCSORGBOTTOM
 10
0.0
 20
0.0
 30
0.0
  9
$UCSORGLEFT
 10
0.0
 20
0.0
 30
0.0
  9
$UCSORGRIGHT
 10
0.0
 20
0.0
 30
0.0
  9
$UCSORGFRONT
 10
0.0
 20
0.0
 30
0.0
  9
$UCSORGBACK
 10
0.0
 20
0.0
 30
0.0
  9
$PUCSBASE
  2

  9
$PUCSNAME
  2

  9
$PUCSORG
 10
0.0
 20
0.0
 30
0.0
  9
$PUCSXDIR
 10
1.0
 20
0.0
 30
0.0
  9
$PUCSYDIR
 10
0.0
 20
1.0
 30
0.0
  9
$PUCSORTHOREF
  2

  9
$PUCSORTHOVIEW
 70
0
  9
$PUCSORGTOP
 10
0.0
 20
0.0
 30
0.0
  9
$PUCSORGBOTTOM
 10
0.0
 20
0.0
 30
0.0
  9
$PUCSORGLEFT
 10
0.0
 20
0.0
 30
0.0
  9
$PUCSORGRIGHT
 10
0.0
 20
0.0
 30
0.0
  9
$PUCSORGFRONT
 10
0.0
 20
0.0
 30
0.0
  9
$PUCSORGBACK
 10
0.0
 20
0.0
 30
0.0
  9
$USERI1
 70
0
  9
$USERI2
 70
0
  9
$USERI3
 70
0
  9
$USERI4
 70
0
  9
$USERI5
 70
0
  9
$USERR1
 40
0.0
  9
$USERR2
 40
0.0
  9
$USERR3
 40
0.0
  9
$USERR4
 40
0.0
  9
$USERR5
 40
0.0
  9
$WORLDVIEW
 70
1
  9
$SHADEDGE
 70
3
  9
$SHADEDIF
 70
70
  9
$TILEMODE
 70
1
  9
$MAXACTVP
 70
64
  9
$PINSBASE
 10
0.0
 20
0.0
 30
0.0
  9
$PLIMCHECK
 70
0
  9
$PEXTMIN
 10
1e+20
 20
1e+20
 30
1e+20
  9
$PEXTMAX
 10
-1e+20
 20
-1e+20
 30
-1e+20
  9
$PLIMMIN
 10
0.0
 20
0.0
  9
$PLIMMAX
 10
420.0
 20
297.0
  9
$UNITMODE
 70
0
  9
$VISRETAIN
 70
1
  9
$PLINEGEN
 70
0
  9
$PSLTSCALE
 70
1
  9
$TREEDEPTH
 70
3020
  9
$CMLSTYLE
  2
Standard
  9
$CMLJUST
 70
0
  9
$CMLSCALE
 40
20.0
  9
$PROXYGRAPHICS
 70
1
  9
$MEASUREMENT
 70
1
  9
$CELWEIGHT
370
-1
  9
$ENDCAPS
280
0
  9
$JOINSTYLE
280
0
  9
$LWDISPLAY
290
0
  9
$INSUNITS
 70
6
  9
$HYPERLINKBASE
  1

  9
$STYLESHEET
  1

  9
$XEDIT
290
1
  9
$CEPSNTYPE
380
0
  9
$PSTYLEMODE
290
1
  9
$FINGERPRINTGUID
  2
{B7D28FEC-37D9-43C1-B26F-75E9EB6977A4}
  9
$VERSIONGUID
  2
{134A5DBF-099B-49D0-B362-D2E0800D2389}
  9
$EXTNAMES
290
1
  9
$PSVPSCALE
 40
0.0
  9
$OLESTARTUP
290
0
  9
$SORTENTS
280
127
  9
$INDEXCTL
280
0
  9
$HIDETEXT
280
1
  9
$XCLIPFRAME
280
0
  9
$HALOGAP
280
0
  9
$OBSCOLOR
 70
257
  9
$OBSLTYPE
280
0
  9
$INTERSECTIONDISPLAY
280
0
  9
$INTERSECTIONCOLOR
 70
257
  9
$DIMASSOC
280
2
  9
$PROJECTNAME
  1

  9
$CAMERADISPLAY
290
0
  9
$LENSLENGTH
 40
50.0
  9
$CAMERAHEIGHT
 40
0.0
  9
$STEPSPERSEC
 40
24.0
  9
$STEPSIZE
 40
100.0
  9
$3DDWFPREC
 40
2.0
  9
$PSOLWIDTH
 40
0.005
  9
$PSOLHEIGHT
 40
0.08
  9
$LOFTANG1
 40
1.570796326795
  9
$LOFTANG2
 40
1.570796326795
  9
$LOFTMAG1
 40
0.0
  9
$LOFTMAG2
 40
0.0
  9
$LOFTPARAM
 70
7
  9
$LOFTNORMALS
280
1
  9
$LATITUDE
 40
37.795
  9
$LONGITUDE
 40
-122.394
  9
$NORTHDIRECTION
 40
0.0
  9
$TIMEZONE
 70
-8000
  9
$LIGHTGLYPHDISPLAY
280
1
  9
$TILEMODELIGHTSYNCH
280
1
  9
$CMATERIAL
347
20
  9
$SOLIDHIST
280
0
  9
$SHOWHIST
280
1
  9
$DWFFRAME
280
2
  9
$DGNFRAME
280
2
  9
$REALWORLDSCALE
290
1
  9
$INTERFERECOLOR
 62
256
  9
$CSHADOW
280
0
  9
$SHADOWPLANELOCATION
 40
0.0
  0
ENDSEC
  0
SECTION
  2
CLASSES
  0
CLASS
  1
ACDBDICTIONARYWDFLT
  2
AcDbDictionaryWithDefault
  3
ObjectDBX Classes
 90
0
 91
0
280
0
281
0
  0
CLASS
  1
SUN
  2
AcDbSun
  3
SCENEOE
 90
1153
 91
0
280
0
281
0
  0
CLASS
  1
VISUALSTYLE
  2
AcDbVisualStyle
  3
ObjectDBX Classes
 90
4095
 91
0
280
0
281
0
  0
CLASS
  1
MATERIAL
  2
AcDbMaterial
  3
ObjectDBX Classes
 90
1153
 91
0
280
0
281
0
  0
CLASS
  1
SCALE
  2
AcDbScale
  3
ObjectDBX Classes
 90
1153
 91
0
280
0
281
0
  0
CLASS
  1
TABLESTYLE
  2
AcDbTableStyle
  3
ObjectDBX Classes
 90
4095
 91
0
280
0
281
0
  0
CLASS
  1
MLEADERSTYLE
  2
AcDbMLeaderStyle
  3
ACDB_MLEADERSTYLE_CLASS
 90
4095
 91
0
280
0
281
0
  0
CLASS
  1
DICTIONARYVAR
  2
AcDbDictionaryVar
  3
ObjectDBX Classes
 90
0
 91
0
280
0
281
0
  0
CLASS
  1
CELLSTYLEMAP
  2
AcDbCellStyleMap
  3
ObjectDBX Classes
 90
1152
 91
0
280
0
281
0
  0
CLASS
  1
MENTALRAYRENDERSETTINGS
  2
AcDbMentalRayRenderSettings
  3
SCENEOE
 90
1024
 91
0
280
0
281
0
  0
CLASS
  1
ACDBDETAILVIEWSTYLE
  2
AcDbDetailViewStyle
  3
ObjectDBX Classes
 90
1025
 91
0
280
0
281
0
  0
CLASS
  1
ACDBSECTIONVIEWSTYLE
  2
AcDbSectionViewStyle
  3
ObjectDBX Classes
 90
1025
 91
0
280
0
281
0
  0
CLASS
  1
RASTERVARIABLES
  2
AcDbRasterVariables
  3
ISM
 90
0
 91
0
280
0
281
0
  0
CLASS
  1
ACDBPLACEHOLDER
  2
AcDbPlaceHolder
  3
ObjectDBX Classes
 90
0
 91
0
280
0
281
0
  0
CLASS
  1
LAYOUT
  2
AcDbLayout
  3
ObjectDBX Classes
 90
0
 91
0
280
0
281
0
  0
ENDSEC
  0
SECTION
  2
TABLES
  0
TABLE
  2
VPORT
  5
8
330
0
100
AcDbSymbolTable
 70
1
  0
VPORT
  5
23
330
8
100
AcDbSymbolTableRecord
100
AcDbViewportTableRecord
  2
*Active
 70
0
 10
0.0
 20
0.0
 11
1.0
 21
1.0
 12
0.0
 22
0.0
 13
0.0
 23
0.0
 14
0.5
 24
0.5
 15
0.5
 25
0.5
 16
0.0
 26
0.0
 36
1.0
 17
0.0
 27
0.0
 37
0.0
 40
1000.0
 41
1.34
 42
50.0
 43
0.0
 44
0.0
 50
0.0
 51
0.0
 71
0
 72
1000
 73
1
 74
3
 75
0
 76
0
 77
0
 78
0
281
0
 65
0
146
0.0
  0
ENDTAB
  0
TABLE
  2
LTYPE
  5
2
330
0
100
AcDbSymbolTable
 70
3
  0
LTYPE
  5
24
330
2
100
AcDbSymbolTableRecord
100
AcDbLinetypeTableRecord
  2
ByBlock
 70
0
  3

 72
65
 73
0
 40
0.0
  0
LTYPE
  5
25
330
2
100
AcDbSymbolTableRecord
100
AcDbLinetypeTableRecord
  2
ByLayer
 70
0
  3

 72
65
 73
0
 40
0.0
  0
LTYPE
  5
26
330
2
100
AcDbSymbolTableRecord
100
AcDbLinetypeTableRecord
  2
Continuous
 70
0
  3

 72
65
 73
0
 40
0.0
  0
ENDTAB
  0
TABLE
  2
LAYER
  5
1
330
0
100
AcDbSymbolTable
 70
5
  0
LAYER
  5
27
330
1
100
AcDbSymbolTableRecord
100
AcDbLayerTableRecord
  2
0
 70
0
 62
7
  6
Continuous
370
-3
390
13
347
21
  0
LAYER
  5
28
330
1
100
AcDbSymbolTableRecord
100
AcDbLayerTableRecord
  2
Defpoints
 70
0
 62
7
  6
Continuous
290
0
370
-3
390
13
347
21
  0
LAYER
  5
2F
330
1
100
AcDbSymbolTableRecord
100
AcDbLayerTableRecord
  2
conductor
 70
0
 62
1
  6
Continuous
370
-3
390
13
347
21
  0
LAYER
  5
30
330
1
100
AcDbSymbolTableRecord
100
AcDbLayerTableRecord
  2
dielectric
 70
0
 62
8
  6
Continuous
370
-3
390
13
347
21
  0
LAYER
  5
31
330
1
100
AcDbSymbolTableRecord
100
AcDbLayerTableRecord
  2
substrate
 70
0
 62
5
  6
Continuous
370
-3
390
13
347
21
  0
ENDTAB
  0
TABLE
  2
STYLE
  5
5
330
0
100
AcDbSymbolTable
 70
1
  0
STYLE
  5
29
330
5
100
AcDbSymbolTableRecord
100
AcDbTextStyleTableRecord
  2
Standard
 70
0
 40
0.0
 41
1.0
 50
0.0
 71
0
 42
2.5
  3
txt
  4

  0
ENDTAB
  0
TABLE
  2
VIEW
  5
7
330
0
100
AcDbSymbolTable
 70
0
  0
ENDTAB
  0
TABLE
  2
UCS
  5
6
330
0
100
AcDbSymbolTable
 70
0
  0
ENDTAB
  0
TABLE
  2
APPID
  5
3
330
0
100
AcDbSymbolTable
 70
3
  0
APPID
  5
2A
330
3
100
AcDbSymbolTableRecord
100
AcDbRegAppTableRecord
  2
ACAD
 70
0
  0
APPID
  5
35
330
3
100
AcDbSymbolTableRecord
100
AcDbRegAppTableRecord
  2
HATCHBACKGROUNDCOLOR
 70
0
  0
APPID
  5
36
330
3
100
AcDbSymbolTableRecord
100
AcDbRegAppTableRecord
  2
EZDXF
 70
0
  0
ENDTAB
  0
TABLE
  2
DIMSTYLE
  5
4
330
0
100
AcDbSymbolTable
 70
1
100
AcDbDimStyleTable
  0
DIMSTYLE
105
2B
330
4
100
AcDbSymbolTableRecord
100
AcDbDimStyleTableRecord
  2
Standard
 70
0
 40
1.0
 41
2.5
 42
0.625
 43
3.75
 44
1.25
 45
0.0
 46
0.0
 47
0.0
 48
0.0
 49
2.5
140
2.5
141
2.5
142
0.0
143
0.03937007874
144
1.0
145
0.0
146
1.0
147
0.625
148
0.0
 69
0
 70
0
 71
0
 72
0
 73
0
 74
0
 75
0
 76
0
 77
1
 78
8
 79
3
170
0
171
3
172
1
173
0
174
0
175
0
176
0
177
0
178
0
179
2
271
2
272
2
273
2
274
3
275
0
276
0
277
2
278
44
279
0
280
0
281
0
282
0
283
0
284
8
285
0
286
0
288
0
289
3
290
0
371
-2
372
-2
  0
ENDTAB
  0
TABLE
  2
BLOCK_RECORD
  5
9
330
0
100
AcDbSymbolTable
 70
2
  0
BLOCK_RECORD
  5
17
330
9
100
AcDbSymbolTableRecord
100
AcDbBlockTableRecord
  2
*Model_Space
340
1A
 70
0
280
1
281
0
  0
BLOCK_RECORD
  5
1B
330
9
100
AcDbSymbolTableRecord
100
AcDbBlockTableRecord
  2
*Paper_Space
340
1E
 70
0
280
1
281
0
  0
ENDTAB
  0
ENDSEC
  0
SECTION
  2
BLOCKS
  0
BLOCK
  5
18
330
17
100
AcDbEntity
  8
0
100
AcDbBlockBegin
  2
*Model_Space
 70
0
 10
0.0
 20
0.0
 30
0.0
  3
*Model_Space
  1

  0
ENDBLK
  5
19
330
17
100
AcDbEntity
  8
0
100
AcDbBlockEnd
  0
BLOCK
  5
1C
330
1B
100
AcDbEntity
  8
0
100
AcDbBlockBegin
  2
*Paper_Space
 70
0
 10
0.0
 20
0.0
 30
0.0
  3
*Paper_Space
  1

  0
ENDBLK
  5
1D
330
1B
100
AcDbEntity
  8
0
100
AcDbBlockEnd
  0
ENDSEC
  0
SECTION
  2
ENTITIES
  0
LWPOLYLINE
  5
32
330
17
100
AcDbEntity
  8
conductor
100
AcDbPolyline
 90
236
 70
1
 43
0.5
 10
2342.78125
 20
-2150.75
 10
2342.78125
 20
-2160.3515625
 10
2342.78125
 20
-2169.953125
 10
2342.78125
 20
-2179.5546875
 10
2333.1796875
 20
-2189.15625
 10
2323.578125
 20
-2189.15625
 10
2313.9765625
 20
-2189.15625
 10
2304.375
 20
-2189.15625
 10
2294.7734375
 20
-2189.15625
 10
2285.171875
 20
-2189.15625
 10
2275.5703125
 20
-2189.15625
 10
2265.96875
 20
-2189.15625
 10
2265.96875
 20
-2198.7578125
 10
2265.96875
 20
-2208.359375
 10
2265.96875
 20
-2217.9609375
 10
2256.3671875
 20
-2227.5625
 10
2246.765625
 20
-2227.5625
 10
2237.1640625
 20
-2227.5625
 10
2227.5625
 20
-2227.5625
 10
2227.5625
 20
-2237.1640625
 10
2227.5625
 20
-2246.765625
 10
2227.5625
 20
-2256.3671875
 10
2227.5625
 20
-2265.96875
 10
2227.5625
 20
-2275.5703125
 10
2227.5625
 20
-2285.171875
 10
2227.5625
 20
-2294.7734375
 10
2217.9609375
 20
-2304.375
 10
2208.359375
 20
-2304.375
 10
2198.7578125
 20
-2304.375
 10
2189.15625
 20
-2304.375
 10
2189.15625
 20
-2313.9765625
 10
2189.15625
 20
-2323.578125
 10
2189.15625
 20
-2333.1796875
 10
2179.5546875
 20
-2342.78125
 10
2169.953125
 20
-2342.78125
 10
2160.3515625
 20
-2342.78125
 10
2150.75
 20
-2342.78125
 10
2150.75
 20
-2352.3828125
 10
2150.75
 20
-2361.984375
 10
2150.75
 20
-2371.5859375
 10
2150.75
 20
-2381.1875
 10
2150.75
 20
-2390.7890625
 10
2150.75
 20
-2400.390625
 10
2150.75
 20
-2409.9921875
 10
2150.75
 20
-2419.59375
 10
2150.75
 20
-2429.1953125
 10
2150.75
 20
-2438.796875
 10
2150.75
 20
-2448.3984375
 10
2150.75
 20
-2458.0
 10
2150.75
 20
-2467.6015625
 10
2150.75
 20
-2477.203125
 10
2150.75
 20
-2486.8046875
 10
2150.75
 20
-2496.40625
 10
2150.75
 20
-2506.0078125
 10
2150.75
 20
-2515.609375
 10
2150.75
 20
-2525.2109375
 10
2160.3515625
 20
-2525.2109375
 10
2169.953125
 20
-2525.2109375
 10
2179.5546875
 20
-2525.2109375
 10
2189.15625
 20
-2534.8125
 10
2189.15625
 20
-2544.4140625
 10
2189.15625
 20
-2554.015625
 10
2189.15625
 20
-2563.6171875
 10
2189.15625
 20
-2573.21875
 10
2189.15625
 20
-2582.8203125
 10
2189.15625
 20
-2592.421875
 10
2189.15625
 20
-2602.0234375
 10
2189.15625
 20
-2611.625
 10
2189.15625
 20
-2621.2265625
 10
2189.15625
 20
-2630.828125
 10
2189.15625
 20
-2640.4296875
 10
2198.7578125
 20
-2640.4296875
 10
2208.359375
 20
-2640.4296875
 10
2217.9609375
 20
-2640.4296875
 10
2227.5625
 20
-2650.03125
 10
2227.5625
 20
-2659.6328125
 10
2227.5625
 20
-2669.234375
 10
2227.5625
 20
-2678.8359375
 10
2237.1640625
 20
-2678.8359375
 10
2246.765625
 20
-2678.8359375
 10
2256.3671875
 20
-2678.8359375
 10
2265.96875
 20
-2678.8359375
 10
2275.5703125
 20
-2678.8359375
 10
2285.171875
 20
-2678.8359375
 10
2294.7734375
 20
-2678.8359375
 10
2304.375
 20
-2688.4375
 10
2304.375
 20
-2698.0390625
 10
2304.375
 20
-2707.640625
 10
2304.375
 20
-2717.2421875
 10
2313.9765625
 20
-2717.2421875
 10
2323.578125
 20
-2717.2421875
 10
2333.1796875
 20
-2717.2421875
 10
2342.78125
 20
-2717.2421875
 10
2352.3828125
 20
-2717.2421875
 10
2361.984375
 20
-2717.2421875
 10
2371.5859375
 20
-2717.2421875
 10
2381.1875
 20
-2726.84375
 10
2381.1875
 20
-2736.4453125
 10
2381.1875
 20
-2746.046875
 10
2381.1875
 20
-2755.6484375
 10
2390.7890625
 20
-2755.6484375
 10
2400.390625
 20
-2755.6484375
 10
2409.9921875
 20
-2755.6484375
 10
2419.59375
 20
-2755.6484375
 10
2429.1953125
 20
-2755.6484375
 10
2438.796875
 20
-2755.6484375
 10
2448.3984375
 20
-2755.6484375
 10
2458.0
 20
-2755.6484375
 10
2467.6015625
 20
-2755.6484375
 10
2477.203125
 20
-2755.6484375
 10
2486.8046875
 20
-2755.6484375
 10
2496.40625
 20
-2755.6484375
 10
2506.0078125
 20
-2755.6484375
 10
2515.609375
 20
-2755.6484375
 10
2525.2109375
 20
-2755.6484375
 10
2534.8125
 20
-2755.6484375
 10
2544.4140625
 20
-2755.6484375
 10
2554.015625
 20
-2755.6484375
 10
2563.6171875
 20
-2755.6484375
 10
2563.6171875
 20
-2746.046875
 10
2563.6171875
 20
-2736.4453125
 10
2563.6171875
 20
-2726.84375
 10
2573.21875
 20
-2717.2421875
 10
2582.8203125
 20
-2717.2421875
 10
2592.421875
 20
-2717.2421875
 10
2602.0234375
 20
-2717.2421875
 10
2611.625
 20
-2717.2421875
 10
2621.2265625
 20
-2717.2421875
 10
2630.828125
 20
-2717.2421875
 10
2640.4296875
 20
-2717.2421875
 10
2640.4296875
 20
-2707.640625
 10
2640.4296875
 20
-2698.0390625
 10
2640.4296875
 20
-2688.4375
 10
2650.03125
 20
-2678.8359375
 10
2659.6328125
 20
-2678.8359375
 10
2669.234375
 20
-2678.8359375
 10
2678.8359375
 20
-2678.8359375
 10
2678.8359375
 20
-2669.234375
 10
2678.8359375
 20
-2659.6328125
 10
2678.8359375
 20
-2650.03125
 10
2688.4375
 20
-2640.4296875
 10
2698.0390625
 20
-2640.4296875
 10
2707.640625
 20
-2640.4296875
 10
2717.2421875
 20
-2640.4296875
 10
2717.2421875
 20
-2630.828125
 10
2717.2421875
 20
-2621.2265625
 10
2717.2421875
 20
-2611.625
 10
2717.2421875
 20
-2602.0234375
 10
2717.2421875
 20
-2592.421875
 10
2717.2421875
 20
-2582.8203125
 10
2717.2421875
 20
-2573.21875
 10
2726.84375
 20
-2563.6171875
 10
2736.4453125
 20
-2563.6171875
 10
2746.046875
 20
-2563.6171875
 10
2755.6484375
 20
-2563.6171875
 10
2755.6484375
 20
-2554.015625
 10
2755.6484375
 20
-2544.4140625
 10
2755.6484375
 20
-2534.8125
 10
2755.6484375
 20
-2525.2109375
 10
2755.6484375
 20
-2515.609375
 10
2755.6484375
 20
-2506.0078125
 10
2755.6484375
 20
-2496.40625
 10
2755.6484375
 20
-2486.8046875
 10
2755.6484375
 20
-2477.203125
 10
2755.6484375
 20
-2467.6015625
 10
2755.6484375
 20
-2458.0
 10
2755.6484375
 20
-2448.3984375
 10
2755.6484375
 20
-2438.796875
 10
2755.6484375
 20
-2429.1953125
 10
2755.6484375
 20
-2419.59375
 10
2755.6484375
 20
-2409.9921875
 10
2755.6484375
 20
-2400.390625
 10
2755.6484375
 20
-2390.7890625
 10
2755.6484375
 20
-2381.1875
 10
2755.6484375
 20
-2371.5859375
 10
2755.6484375
 20
-2361.984375
 10
2755.6484375
 20
-2352.3828125
 10
2755.6484375
 20
-2342.78125
 10
2746.046875
 20
-2342.78125
 10
2736.4453125
 20
-2342.78125
 10
2726.84375
 20
-2342.78125
 10
2717.2421875
 20
-2333.1796875
 10
2717.2421875
 20
-2323.578125
 10
2717.2421875
 20
-2313.9765625
 10
2717.2421875
 20
-2304.375
 10
2717.2421875
 20
-2294.7734375
 10
2717.2421875
 20
-2285.171875
 10
2717.2421875
 20
-2275.5703125
 10
2717.2421875
 20
-2265.96875
 10
2707.640625
 20
-2265.96875
 10
2698.0390625
 20
-2265.96875
 10
2688.4375
 20
-2265.96875
 10
2678.8359375
 20
-2256.3671875
 10
2678.8359375
 20
-2246.765625
 10
2678.8359375
 20
-2237.1640625
 10
2678.8359375
 20
-2227.5625
 10
2669.234375
 20
-2227.5625
 10
2659.6328125
 20
-2227.5625
 10
2650.03125
 20
-2227.5625
 10
2640.4296875
 20
-2227.5625
 10
2630.828125
 20
-2227.5625
 10
2621.2265625
 20
-2227.5625
 10
2611.625
 20
-2227.5625
 10
2602.0234375
 20
-2217.9609375
 10
2602.0234375
 20
-2208.359375
 10
2602.0234375
 20
-2198.7578125
 10
2602.0234375
 20
-2189.15625
 10
2592.421875
 20
-2189.15625
 10
2582.8203125
 20
-2189.15625
 10
2573.21875
 20
-2189.15625
 10
2563.6171875
 20
-2179.5546875
 10
2563.6171875
 20
-2169.953125
 10
2563.6171875
 20
-2160.3515625
 10
2563.6171875
 20
-2150.75
 10
2554.015625
 20
-2150.75
 10
2544.4140625
 20
-2150.75
 10
2534.8125
 20
-2150.75
 10
2525.2109375
 20
-2150.75
 10
2515.609375
 20
-2150.75
 10
2506.0078125
 20
-2150.75
 10
2496.40625
 20
-2150.75
 10
2486.8046875
 20
-2150.75
 10
2477.203125
 20
-2150.75
 10
2467.6015625
 20
-2150.75
 10
2458.0
 20
-2150.75
 10
2448.3984375
 20
-2150.75
 10
2438.796875
 20
-2150.75
 10
2429.1953125
 20
-2150.75
 10
2419.59375
 20
-2150.75
 10
2409.9921875
 20
-2150.75
 10
2400.390625
 20
-2150.75
 10
2390.7890625
 20
-2150.75
 10
2381.1875
 20
-2150.75
 10
2371.5859375
 20
-2150.75
 10
2361.984375
 20
-2150.75
 10
2352.3828125
 20
-2150.75
  0
LWPOLYLINE
  5
33
330
17
100
AcDbEntity
  8
substrate
100
AcDbPolyline
 90
2044
 70
1
 43
0.5
 10
0.0
 20
-0.0
 10
0.0
 20
-9.6015625
 10
0.0
 20
-19.203125
 10
0.0
 20
-28.8046875
 10
0.0
 20
-38.40625
 10
0.0
 20
-48.0078125
 10
0.0
 20
-57.609375
 10
0.0
 20
-67.2109375
 10
0.0
 20
-76.8125
 10
0.0
 20
-86.4140625
 10
0.0
 20
-96.015625
 10
0.0
 20
-105.6171875
 10
0.0
 20
-115.21875
 10
0.0
 20
-124.8203125
 10
0.0
 20
-134.421875
 10
0.0
 20
-144.0234375
 10
0.0
 20
-153.625
 10
0.0
 20
-163.2265625
 10
0.0
 20
-172.828125
 10
0.0
 20
-182.4296875
 10
0.0
 20
-192.03125
 10
0.0
 20
-201.6328125
 10
0.0
 20
-211.234375
 10
0.0
 20
-220.8359375
 10
0.0
 20
-230.4375
 10
0.0
 20
-240.0390625
 10
0.0
 20
-249.640625
 10
0.0
 20
-259.2421875
 10
0.0
 20
-268.84375
 10
0.0
 20
-278.4453125
 10
0.0
 20
-288.046875
 10
0.0
 20
-297.6484375
 10
0.0
 20
-307.25
 10
0.0
 20
-316.8515625
 10
0.0
 20
-326.453125
 10
0.0
 20
-336.0546875
 10
0.0
 20
-345.65625
 10
0.0
 20
-355.2578125
 10
0.0
 20
-364.859375
 10
0.0
 20
-374.4609375
 10
0.0
 20
-384.0625
 10
0.0
 20
-393.6640625
 10
0.0
 20
-403.265625
 10
0.0
 20
-412.8671875
 10
0.0
 20
-422.46875
 10
0.0
 20
-432.0703125
 10
0.0
 20
-441.671875
 10
0.0
 20
-451.2734375
 10
0.0
 20
-460.875
 10
0.0
 20
-470.4765625
 10
0.0
 20
-480.078125
 10
0.0
 20
-489.6796875
 10
0.0
 20
-499.28125
 10
0.0
 20
-508.8828125
 10
0.0
 20
-518.484375
 10
0.0
 20
-528.0859375
 10
0.0
 20
-537.6875
 10
0.0
 20
-547.2890625
 10
0.0
 20
-556.890625
 10
0.0
 20
-566.4921875
 10
0.0
 20
-576.09375
 10
0.0
 20
-585.6953125
 10
0.0
 20
-595.296875
 10
0.0
 20
-604.8984375
 10
0.0
 20
-614.5
 10
0.0
 20
-624.1015625
 10
0.0
 20
-633.703125
 10
0.0
 20
-643.3046875
 10
0.0
 20
-652.90625
 10
0.0
 20
-662.5078125
 10
0.0
 20
-672.109375
 10
0.0
 20
-681.7109375
 10
0.0
 20
-691.3125
 10
0.0
 20
-700.9140625
 10
0.0
 20
-710.515625
 10
0.0
 20
-720.1171875
 10
0.0
 20
-729.71875
 10
0.0
 20
-739.3203125
 10
0.0
 20
-748.921875
 10
0.0
 20
-758.5234375
 10
0.0
 20
-768.125
 10
0.0
 20
-777.7265625
 10
0.0
 20
-787.328125
 10
0.0
 20
-796.9296875
 10
0.0
 20
-806.53125
 10
0.0
 20
-816.1328125
 10
0.0
 20
-825.734375
 10
0.0
 20
-835.3359375
 10
0.0
 20
-844.9375
 10
0.0
 20
-854.5390625
 10
0.0
 20
-864.140625
 10
0.0
 20
-873.7421875
 10
0.0
 20
-883.34375
 10
0.0
 20
-892.9453125
 10
0.0
 20
-902.546875
 10
0.0
 20
-912.1484375
 10
0.0
 20
-921.75
 10
0.0
 20
-931.3515625
 10
0.0
 20
-940.953125
 10
0.0
 20
-950.5546875
 10
0.0
 20
-960.15625
 10
0.0
 20
-969.7578125
 10
0.0
 20
-979.359375
 10
0.0
 20
-988.9609375
 10
0.0
 20
-998.5625
 10
0.0
 20
-1008.1640625
 10
0.0
 20
-1017.765625
 10
0.0
 20
-1027.3671875
 10
0.0
 20
-1036.96875
 10
0.0
 20
-1046.5703125
 10
0.0
 20
-1056.171875
 10
0.0
 20
-1065.7734375
 10
0.0
 20
-1075.375
 10
0.0
 20
-1084.9765625
 10
0.0
 20
-1094.578125
 10
0.0
 20
-1104.1796875
 10
0.0
 20
-1113.78125
 10
0.0
 20
-1123.3828125
 10
0.0
 20
-1132.984375
 10
0.0
 20
-1142.5859375
 10
0.0
 20
-1152.1875
 10
0.0
 20
-1161.7890625
 10
0.0
 20
-1171.390625
 10
0.0
 20
-1180.9921875
 10
0.0
 20
-1190.59375
 10
0.0
 20
-1200.1953125
 10
0.0
 20
-1209.796875
 10
0.0
 20
-1219.3984375
 10
0.0
 20
-1229.0
 10
0.0
 20
-1238.6015625
 10
0.0
 20
-1248.203125
 10
0.0
 20
-1257.8046875
 10
0.0
 20
-1267.40625
 10
0.0
 20
-1277.0078125
 10
0.0
 20
-1286.609375
 10
0.0
 20
-1296.2109375
 10
0.0
 20
-1305.8125
 10
0.0
 20
-1315.4140625
 10
0.0
 20
-1325.015625
 10
0.0
 20
-1334.6171875
 10
0.0
 20
-1344.21875
 10
0.0
 20
-1353.8203125
 10
0.0
 20
-1363.421875
 10
0.0
 20
-1373.0234375
 10
0.0
 20
-1382.625
 10
0.0
 20
-1392.2265625
 10
0.0
 20
-1401.828125
 10
0.0
 20
-1411.4296875
 10
0.0
 20
-1421.03125
 10
0.0
 20
-1430.6328125
 10
0.0
 20
-1440.234375
 10
0.0
 20
-1449.8359375
 10
0.0
 20
-1459.4375
 10
0.0
 20
-1469.0390625
 10
0.0
 20
-1478.640625
 10
0.0
 20
-1488.2421875
 10
0.0
 20
-1497.84375
 10
0.0
 20
-1507.4453125
 10
0.0
 20
-1517.046875
 10
0.0
 20
-1526.6484375
 10
0.0
 20
-1536.25
 10
0.0
 20
-1545.8515625
 10
0.0
 20
-1555.453125
 10
0.0
 20
-1565.0546875
 10
0.0
 20
-1574.65625
 10
0.0
 20
-1584.2578125
 10
0.0
 20
-1593.859375
 10
0.0
 20
-1603.4609375
 10
0.0
 20
-1613.0625
 10
0.0
 20
-1622.6640625
 10
0.0
 20
-1632.265625
 10
0.0
 20
-1641.8671875
 10
0.0
 20
-1651.46875
 10
0.0
 20
-1661.0703125
 10
0.0
 20
-1670.671875
 10
0.0
 20
-1680.2734375
 10
0.0
 20
-1689.875
 10
0.0
 20
-1699.4765625
 10
0.0
 20
-1709.078125
 10
0.0
 20
-1718.6796875
 10
0.0
 20
-1728.28125
 10
0.0
 20
-1737.8828125
 10
0.0
 20
-1747.484375
 10
0.0
 20
-1757.0859375
 10
0.0
 20
-1766.6875
 10
0.0
 20
-1776.2890625
 10
0.0
 20
-1785.890625
 10
0.0
 20
-1795.4921875
 10
0.0
 20
-1805.09375
 10
0.0
 20
-1814.6953125
 10
0.0
 20
-1824.296875
 10
0.0
 20
-1833.8984375
 10
0.0
 20
-1843.5
 10
0.0
 20
-1853.1015625
 10
0.0
 20
-1862.703125
 10
0.0
 20
-1872.3046875
 10
0.0
 20
-1881.90625
 10
0.0
 20
-1891.5078125
 10
0.0
 20
-1901.109375
 10
0.0
 20
-1910.7109375
 10
0.0
 20
-1920.3125
 10
0.0
 20
-1929.9140625
 10
0.0
 20
-1939.515625
 10
0.0
 20
-1949.1171875
 10
0.0
 20
-1958.71875
 10
0.0
 20
-1968.3203125
 10
0.0
 20
-1977.921875
 10
0.0
 20
-1987.5234375
 10
0.0
 20
-1997.125
 10
0.0
 20
-2006.7265625
 10
0.0
 20
-2016.328125
 10
0.0
 20
-2025.9296875
 10
0.0
 20
-2035.53125
 10
0.0
 20
-2045.1328125
 10
0.0
 20
-2054.734375
 10
0.0
 20
-2064.3359375
 10
0.0
 20
-2073.9375
 10
0.0
 20
-2083.5390625
 10
0.0
 20
-2093.140625
 10
0.0
 20
-2102.7421875
 10
0.0
 20
-2112.34375
 10
0.0
 20
-2121.9453125
 10
0.0
 20
-2131.546875
 10
0.0
 20
-2141.1484375
 10
0.0
 20
-2150.75
 10
0.0
 20
-2160.3515625
 10
0.0
 20
-2169.953125
 10
0.0
 20
-2179.5546875
 10
0.0
 20
-2189.15625
 10
0.0
 20
-2198.7578125
 10
0.0
 20
-2208.359375
 10
0.0
 20
-2217.9609375
 10
0.0
 20
-2227.5625
 10
0.0
 20
-2237.1640625
 10
0.0
 20
-2246.765625
 10
0.0
 20
-2256.3671875
 10
0.0
 20
-2265.96875
 10
0.0
 20
-2275.5703125
 10
0.0
 20
-2285.171875
 10
0.0
 20
-2294.7734375
 10
0.0
 20
-2304.375
 10
0.0
 20
-2313.9765625
 10
0.0
 20
-2323.578125
 10
0.0
 20
-2333.1796875
 10
0.0
 20
-2342.78125
 10
0.0
 20
-2352.3828125
 10
0.0
 20
-2361.984375
 10
0.0
 20
-2371.5859375
 10
0.0
 20
-2381.1875
 10
0.0
 20
-2390.7890625
 10
0.0
 20
-2400.390625
 10
0.0
 20
-2409.9921875
 10
0.0
 20
-2419.59375
 10
0.0
 20
-2429.1953125
 10
0.0
 20
-2438.796875
 10
0.0
 20
-2448.3984375
 10
0.0
 20
-2458.0
 10
0.0
 20
-2467.6015625
 10
0.0
 20
-2477.203125
 10
0.0
 20
-2486.8046875
 10
0.0
 20
-2496.40625
 10
0.0
 20
-2506.0078125
 10
0.0
 20
-2515.609375
 10
0.0
 20
-2525.2109375
 10
0.0
 20
-2534.8125
 10
0.0
 20
-2544.4140625
 10
0.0
 20
-2554.015625
 10
0.0
 20
-2563.6171875
 10
0.0
 20
-2573.21875
 10
0.0
 20
-2582.8203125
 10
0.0
 20
-2592.421875
 10
0.0
 20
-2602.0234375
 10
0.0
 20
-2611.625
 10
0.0
 20
-2621.2265625
 10
0.0
 20
-2630.828125
 10
0.0
 20
-2640.4296875
 10
0.0
 20
-2650.03125
 10
0.0
 20
-2659.6328125
 10
0.0
 20
-2669.234375
 10
0.0
 20
-2678.8359375
 10
0.0
 20
-2688.4375
 10
0.0
 20
-2698.0390625
 10
0.0
 20
-2707.640625
 10
0.0
 20
-2717.2421875
 10
0.0
 20
-2726.84375
 10
0.0
 20
-2736.4453125
 10
0.0
 20
-2746.046875
 10
0.0
 20
-2755.6484375
 10
0.0
 20
-2765.25
 10
0.0
 20
-2774.8515625
 10
0.0
 20
-2784.453125
 10
0.0
 20
-2794.0546875
 10
0.0
 20
-2803.65625
 10
0.0
 20
-2813.2578125
 10
0.0
 20
-2822.859375
 10
0.0
 20
-2832.4609375
 10
0.0
 20
-2842.0625
 10
0.0
 20
-2851.6640625
 10
0.0
 20
-2861.265625
 10
0.0
 20
-2870.8671875
 10
0.0
 20
-2880.46875
 10
0.0
 20
-2890.0703125
 10
0.0
 20
-2899.671875
 10
0.0
 20
-2909.2734375
 10
0.0
 20
-2918.875
 10
0.0
 20
-2928.4765625
 10
0.0
 20
-2938.078125
 10
0.0
 20
-2947.6796875
 10
0.0
 20
-2957.28125
 10
0.0
 20
-2966.8828125
 10
0.0
 20
-2976.484375
 10
0.0
 20
-2986.0859375
 10
0.0
 20
-2995.6875
 10
0.0
 20
-3005.2890625
 10
0.0
 20
-3014.890625
 10
0.0
 20
-3024.4921875
 10
0.0
 20
-3034.09375
 10
0.0
 20
-3043.6953125
 10
0.0
 20
-3053.296875
 10
0.0
 20
-3062.8984375
 10
0.0
 20
-3072.5
 10
0.0
 20
-3082.1015625
 10
0.0
 20
-3091.703125
 10
0.0
 20
-3101.3046875
 10
0.0
 20
-3110.90625
 10
0.0
 20
-3120.5078125
 10
0.0
 20
-3130.109375
 10
0.0
 20
-3139.7109375
 10
0.0
 20
-3149.3125
 10
0.0
 20
-3158.9140625
 10
0.0
 20
-3168.515625
 10
0.0
 20
-3178.1171875
 10
0.0
 20
-3187.71875
 10
0.0
 20
-3197.3203125
 10
0.0
 20
-3206.921875
 10
0.0
 20
-3216.5234375
 10
0.0
 20
-3226.125
 10
0.0
 20
-3235.7265625
 10
0.0
 20
-3245.328125
 10
0.0
 20
-3254.9296875
 10
0.0
 20
-3264.53125
 10
0.0
 20
-3274.1328125
 10
0.0
 20
-3283.734375
 10
0.0
 20
-3293.3359375
 10
0.0
 20
-3302.9375
 10
0.0
 20
-3312.5390625
 10
0.0
 20
-3322.140625
 10
0.0
 20
-3331.7421875
 10
0.0
 20
-3341.34375
 10
0.0
 20
-3350.9453125
 10
0.0
 20
-3360.546875
 10
0.0
 20
-3370.1484375
 10
0.0
 20
-3379.75
 10
0.0
 20
-3389.3515625
 10
0.0
 20
-3398.953125
 10
0.0
 20
-3408.5546875
 10
0.0
 20
-3418.15625
 10
0.0
 20
-3427.7578125
 10
0.0
 20
-3437.359375
 10
0.0
 20
-3446.9609375
 10
0.0
 20
-3456.5625
 10
0.0
 20
-3466.1640625
 10
0.0
 20
-3475.765625
 10
0.0
 20
-3485.3671875
 10
0.0
 20
-3494.96875
 10
0.0
 20
-3504.5703125
 10
0.0
 20
-3514.171875
 10
0.0
 20
-3523.7734375
 10
0.0
 20
-3533.375
 10
0.0
 20
-3542.9765625
 10
0.0
 20
-3552.578125
 10
0.0
 20
-3562.1796875
 10
0.0
 20
-3571.78125
 10
0.0
 20
-3581.3828125
 10
0.0
 20
-3590.984375
 10
0.0
 20
-3600.5859375
 10
0.0
 20
-3610.1875
 10
0.0
 20
-3619.7890625
 10
0.0
 20
-3629.390625
 10
0.0
 20
-3638.9921875
 10
0.0
 20
-3648.59375
 10
0.0
 20
-3658.1953125
 10
0.0
 20
-3667.796875
 10
0.0
 20
-3677.3984375
 10
0.0
 20
-3687.0
 10
0.0
 20
-3696.6015625
 10
0.0
 20
-3706.203125
 10
0.0
 20
-3715.8046875
 10
0.0
 20
-3725.40625
 10
0.0
 20
-3735.0078125
 10
0.0
 20
-3744.609375
 10
0.0
 20
-3754.2109375
 10
0.0
 20
-3763.8125
 10
0.0
 20
-3773.4140625
 10
0.0
 20
-3783.015625
 10
0.0
 20
-3792.6171875
 10
0.0
 20
-3802.21875
 10
0.0
 20
-3811.8203125
 10
0.0
 20
-3821.421875
 10
0.0
 20
-3831.0234375
 10
0.0
 20
-3840.625
 10
0.0
 20
-3850.2265625
 10
0.0
 20
-3859.828125
 10
0.0
 20
-3869.4296875
 10
0.0
 20
-3879.03125
 10
0.0
 20
-3888.6328125
 10
0.0
 20
-3898.234375
 10
0.0
 20
-3907.8359375
 10
0.0
 20
-3917.4375
 10
0.0
 20
-3927.0390625
 10
0.0
 20
-3936.640625
 10
0.0
 20
-3946.2421875
 10
0.0
 20
-3955.84375
 10
0.0
 20
-3965.4453125
 10
0.0
 20
-3975.046875
 10
0.0
 20
-3984.6484375
 10
0.0
 20
-3994.25
 10
0.0
 20
-4003.8515625
 10
0.0
 20
-4013.453125
 10
0.0
 20
-4023.0546875
 10
0.0
 20
-4032.65625
 10
0.0
 20
-4042.2578125
 10
0.0
 20
-4051.859375
 10
0.0
 20
-4061.4609375
 10
0.0
 20
-4071.0625
 10
0.0
 20
-4080.6640625
 10
0.0
 20
-4090.265625
 10
0.0
 20
-4099.8671875
 10
0.0
 20
-4109.46875
 10
0.0
 20
-4119.0703125
 10
0.0
 20
-4128.671875
 10
0.0
 20
-4138.2734375
 10
0.0
 20
-4147.875
 10
0.0
 20
-4157.4765625
 10
0.0
 20
-4167.078125
 10
0.0
 20
-4176.6796875
 10
0.0
 20
-4186.28125
 10
0.0
 20
-4195.8828125
 10
0.0
 20
-4205.484375
 10
0.0
 20
-4215.0859375
 10
0.0
 20
-4224.6875
 10
0.0
 20
-4234.2890625
 10
0.0
 20
-4243.890625
 10
0.0
 20
-4253.4921875
 10
0.0
 20
-4263.09375
 10
0.0
 20
-4272.6953125
 10
0.0
 20
-4282.296875
 10
0.0
 20
-4291.8984375
 10
0.0
 20
-4301.5
 10
0.0
 20
-4311.1015625
 10
0.0
 20
-4320.703125
 10
0.0
 20
-4330.3046875
 10
0.0
 20
-4339.90625
 10
0.0
 20
-4349.5078125
 10
0.0
 20
-4359.109375
 10
0.0
 20
-4368.7109375
 10
0.0
 20
-4378.3125
 10
0.0
 20
-4387.9140625
 10
0.0
 20
-4397.515625
 10
0.0
 20
-4407.1171875
 10
0.0
 20
-4416.71875
 10
0.0
 20
-4426.3203125
 10
0.0
 20
-4435.921875
 10
0.0
 20
-4445.5234375
 10
0.0
 20
-4455.125
 10
0.0
 20
-4464.7265625
 10
0.0
 20
-4474.328125
 10
0.0
 20
-4483.9296875
 10
0.0
 20
-4493.53125
 10
0.0
 20
-4503.1328125
 10
0.0
 20
-4512.734375
 10
0.0
 20
-4522.3359375
 10
0.0
 20
-4531.9375
 10
0.0
 20
-4541.5390625
 10
0.0
 20
-4551.140625
 10
0.0
 20
-4560.7421875
 10
0.0
 20
-4570.34375
 10
0.0
 20
-4579.9453125
 10
0.0
 20
-4589.546875
 10
0.0
 20
-4599.1484375
 10
0.0
 20
-4608.75
 10
0.0
 20
-4618.3515625
 10
0.0
 20
-4627.953125
 10
0.0
 20
-4637.5546875
 10
0.0
 20
-4647.15625
 10
0.0
 20
-4656.7578125
 10
0.0
 20
-4666.359375
 10
0.0
 20
-4675.9609375
 10
0.0
 20
-4685.5625
 10
0.0
 20
-4695.1640625
 10
0.0
 20
-4704.765625
 10
0.0
 20
-4714.3671875
 10
0.0
 20
-4723.96875
 10
0.0
 20
-4733.5703125
 10
0.0
 20
-4743.171875
 10
0.0
 20
-4752.7734375
 10
0.0
 20
-4762.375
 10
0.0
 20
-4771.9765625
 10
0.0
 20
-4781.578125
 10
0.0
 20
-4791.1796875
 10
0.0
 20
-4800.78125
 10
0.0
 20
-4810.3828125
 10
0.0
 20
-4819.984375
 10
0.0
 20
-4829.5859375
 10
0.0
 20
-4839.1875
 10
0.0
 20
-4848.7890625
 10
0.0
 20
-4858.390625
 10
0.0
 20
-4867.9921875
 10
0.0
 20
-4877.59375
 10
0.0
 20
-4887.1953125
 10
0.0
 20
-4896.796875
 10
0.0
 20
-4906.3984375
 10
9.6015625
 20
-4906.3984375
 10
19.203125
 20
-4906.3984375
 10
28.8046875
 20
-4906.3984375
 10
38.40625
 20
-4906.3984375
 10
48.0078125
 20
-4906.3984375
 10
57.609375
 20
-4906.3984375
 10
67.2109375
 20
-4906.3984375
 10
76.8125
 20
-4906.3984375
 10
86.4140625
 20
-4906.3984375
 10
96.015625
 20
-4906.3984375
 10
105.6171875
 20
-4906.3984375
 10
115.21875
 20
-4906.3984375
 10
124.8203125
 20
-4906.3984375
 10
134.421875
 20
-4906.3984375
 10
144.0234375
 20
-4906.3984375
 10
153.625
 20
-4906.3984375
 10
163.2265625
 20
-4906.3984375
 10
172.828125
 20
-4906.3984375
 10
182.4296875
 20
-4906.3984375
 10
192.03125
 20
-4906.3984375
 10
201.6328125
 20
-4906.3984375
 10
211.234375
 20
-4906.3984375
 10
220.8359375
 20
-4906.3984375
 10
230.4375
 20
-4906.3984375
 10
240.0390625
 20
-4906.3984375
 10
249.640625
 20
-4906.3984375
 10
259.2421875
 20
-4906.3984375
 10
268.84375
 20
-4906.3984375
 10
278.4453125
 20
-4906.3984375
 10
288.046875
 20
-4906.3984375
 10
297.6484375
 20
-4906.3984375
 10
307.25
 20
-4906.3984375
 10
316.8515625
 20
-4906.3984375
 10
326.453125
 20
-4906.3984375
 10
336.0546875
 20
-4906.3984375
 10
345.65625
 20
-4906.3984375
 10
355.2578125
 20
-4906.3984375
 10
364.859375
 20
-4906.3984375
 10
374.4609375
 20
-4906.3984375
 10
384.0625
 20
-4906.3984375
 10
393.6640625
 20
-4906.3984375
 10
403.265625
 20
-4906.3984375
 10
412.8671875
 20
-4906.3984375
 10
422.46875
 20
-4906.3984375
 10
432.0703125
 20
-4906.3984375
 10
441.671875
 20
-4906.3984375
 10
451.2734375
 20
-4906.3984375
 10
460.875
 20
-4906.3984375
 10
470.4765625
 20
-4906.3984375
 10
480.078125
 20
-4906.3984375
 10
489.6796875
 20
-4906.3984375
 10
499.28125
 20
-4906.3984375
 10
508.8828125
 20
-4906.3984375
 10
518.484375
 20
-4906.3984375
 10
528.0859375
 20
-4906.3984375
 10
537.6875
 20
-4906.3984375
 10
547.2890625
 20
-4906.3984375
 10
556.890625
 20
-4906.3984375
 10
566.4921875
 20
-4906.3984375
 10
576.09375
 20
-4906.3984375
 10
585.6953125
 20
-4906.3984375
 10
595.296875
 20
-4906.3984375
 10
604.8984375
 20
-4906.3984375
 10
614.5
 20
-4906.3984375
 10
624.1015625
 20
-4906.3984375
 10
633.703125
 20
-4906.3984375
 10
643.3046875
 20
-4906.3984375
 10
652.90625
 20
-4906.3984375
 10
662.5078125
 20
-4906.3984375
 10
672.109375
 20
-4906.3984375
 10
681.7109375
 20
-4906.3984375
 10
691.3125
 20
-4906.3984375
 10
700.9140625
 20
-4906.3984375
 10
710.515625
 20
-4906.3984375
 10
720.1171875
 20
-4906.3984375
 10
729.71875
 20
-4906.3984375
 10
739.3203125
 20
-4906.3984375
 10
748.921875
 20
-4906.3984375
 10
758.5234375
 20
-4906.3984375
 10
768.125
 20
-4906.3984375
 10
777.7265625
 20
-4906.3984375
 10
787.328125
 20
-4906.3984375
 10
796.9296875
 20
-4906.3984375
 10
806.53125
 20
-4906.3984375
 10
816.1328125
 20
-4906.3984375
 10
825.734375
 20
-4906.3984375
 10
835.3359375
 20
-4906.3984375
 10
844.9375
 20
-4906.3984375
 10
854.5390625
 20
-4906.3984375
 10
864.140625
 20
-4906.3984375
 10
873.7421875
 20
-4906.3984375
 10
883.34375
 20
-4906.3984375
 10
892.9453125
 20
-4906.3984375
 10
902.546875
 20
-4906.3984375
 10
912.1484375
 20
-4906.3984375
 10
921.75
 20
-4906.3984375
 10
931.3515625
 20
-4906.3984375
 10
940.953125
 20
-4906.3984375
 10
950.5546875
 20
-4906.3984375
 10
960.15625
 20
-4906.3984375
 10
969.7578125
 20
-4906.3984375
 10
979.359375
 20
-4906.3984375
 10
988.9609375
 20
-4906.3984375
 10
998.5625
 20
-4906.3984375
 10
1008.1640625
 20
-4906.3984375
 10
1017.765625
 20
-4906.3984375
 10
1027.3671875
 20
-4906.3984375
 10
1036.96875
 20
-4906.3984375
 10
1046.5703125
 20
-4906.3984375
 10
1056.171875
 20
-4906.3984375
 10
1065.7734375
 20
-4906.3984375
 10
1075.375
 20
-4906.3984375
 10
1084.9765625
 20
-4906.3984375
 10
1094.578125
 20
-4906.3984375
 10
1104.1796875
 20
-4906.3984375
 10
1113.78125
 20
-4906.3984375
 10
1123.3828125
 20
-4906.3984375
 10
1132.984375
 20
-4906.3984375
 10
1142.5859375
 20
-4906.3984375
 10
1152.1875
 20
-4906.3984375
 10
1161.7890625
 20
-4906.3984375
 10
1171.390625
 20
-4906.3984375
 10
1180.9921875
 20
-4906.3984375
 10
1190.59375
 20
-4906.3984375
 10
1200.1953125
 20
-4906.3984375
 10
1209.796875
 20
-4906.3984375
 10
1219.3984375
 20
-4906.3984375
 10
1229.0
 20
-4906.3984375
 10
1238.6015625
 20
-4906.3984375
 10
1248.203125
 20
-4906.3984375
 10
1257.8046875
 20
-4906.3984375
 10
1267.40625
 20
-4906.3984375
 10
1277.0078125
 20
-4906.3984375
 10
1286.609375
 20
-4906.3984375
 10
1296.2109375
 20
-4906.3984375
 10
1305.8125
 20
-4906.3984375
 10
1315.4140625
 20
-4906.3984375
 10
1325.015625
 20
-4906.3984375
 10
1334.6171875
 20
-4906.3984375
 10
1344.21875
 20
-4906.3984375
 10
1353.8203125
 20
-4906.3984375
 10
1363.421875
 20
-4906.3984375
 10
1373.0234375
 20
-4906.3984375
 10
1382.625
 20
-4906.3984375
 10
1392.2265625
 20
-4906.3984375
 10
1401.828125
 20
-4906.3984375
 10
1411.4296875
 20
-4906.3984375
 10
1421.03125
 20
-4906.3984375
 10
1430.6328125
 20
-4906.3984375
 10
1440.234375
 20
-4906.3984375
 10
1449.8359375
 20
-4906.3984375
 10
1459.4375
 20
-4906.3984375
 10
1469.0390625
 20
-4906.3984375
 10
1478.640625
 20
-4906.3984375
 10
1488.2421875
 20
-4906.3984375
 10
1497.84375
 20
-4906.3984375
 10
1507.4453125
 20
-4906.3984375
 10
1517.046875
 20
-4906.3984375
 10
1526.6484375
 20
-4906.3984375
 10
1536.25
 20
-4906.3984375
 10
1545.8515625
 20
-4906.3984375
 10
1555.453125
 20
-4906.3984375
 10
1565.0546875
 20
-4906.3984375
 10
1574.65625
 20
-4906.3984375
 10
1584.2578125
 20
-4906.3984375
 10
1593.859375
 20
-4906.3984375
 10
1603.4609375
 20
-4906.3984375
 10
1613.0625
 20
-4906.3984375
 10
1622.6640625
 20
-4906.3984375
 10
1632.265625
 20
-4906.3984375
 10
1641.8671875
 20
-4906.3984375
 10
1651.46875
 20
-4906.3984375
 10
1661.0703125
 20
-4906.3984375
 10
1670.671875
 20
-4906.3984375
 10
1680.2734375
 20
-4906.3984375
 10
1689.875
 20
-4906.3984375
 10
1699.4765625
 20
-4906.3984375
 10
1709.078125
 20
-4906.3984375
 10
1718.6796875
 20
-4906.3984375
 10
1728.28125
 20
-4906.3984375
 10
1737.8828125
 20
-4906.3984375
 10
1747.484375
 20
-4906.3984375
 10
1757.0859375
 20
-4906.3984375
 10
1766.6875
 20
-4906.3984375
 10
1776.2890625
 20
-4906.3984375
 10
1785.890625
 20
-4906.3984375
 10
1795.4921875
 20
-4906.3984375
 10
1805.09375
 20
-4906.3984375
 10
1814.6953125
 20
-4906.3984375
 10
1824.296875
 20
-4906.3984375
 10
1833.8984375
 20
-4906.3984375
 10
1843.5
 20
-4906.3984375
 10
1853.1015625
 20
-4906.3984375
 10
1862.703125
 20
-4906.3984375
 10
1872.3046875
 20
-4906.3984375
 10
1881.90625
 20
-4906.3984375
 10
1891.5078125
 20
-4906.3984375
 10
1901.109375
 20
-4906.3984375
 10
1910.7109375
 20
-4906.3984375
 10
1920.3125
 20
-4906.3984375
 10
1929.9140625
 20
-4906.3984375
 10
1939.515625
 20
-4906.3984375
 10
1949.1171875
 20
-4906.3984375
 10
1958.71875
 20
-4906.3984375
 10
1968.3203125
 20
-4906.3984375
 10
1977.921875
 20
-4906.3984375
 10
1987.5234375
 20
-4906.3984375
 10
1997.125
 20
-4906.3984375
 10
2006.7265625
 20
-4906.3984375
 10
2016.328125
 20
-4906.3984375
 10
2025.9296875
 20
-4906.3984375
 10
2035.53125
 20
-4906.3984375
 10
2045.1328125
 20
-4906.3984375
 10
2054.734375
 20
-4906.3984375
 10
2064.3359375
 20
-4906.3984375
 10
2073.9375
 20
-4906.3984375
 10
2083.5390625
 20
-4906.3984375
 10
2093.140625
 20
-4906.3984375
 10
2102.7421875
 20
-4906.3984375
 10
2112.34375
 20
-4906.3984375
 10
2121.9453125
 20
-4906.3984375
 10
2131.546875
 20
-4906.3984375
 10
2141.1484375
 20
-4906.3984375
 10
2150.75
 20
-4906.3984375
 10
2160.3515625
 20
-4906.3984375
 10
2169.953125
 20
-4906.3984375
 10
2179.5546875
 20
-4906.3984375
 10
2189.15625
 20
-4906.3984375
 10
2198.7578125
 20
-4906.3984375
 10
2208.359375
 20
-4906.3984375
 10
2217.9609375
 20
-4906.3984375
 10
2227.5625
 20
-4906.3984375
 10
2237.1640625
 20
-4906.3984375
 10
2246.765625
 20
-4906.3984375
 10
2256.3671875
 20
-4906.3984375
 10
2265.96875
 20
-4906.3984375
 10
2275.5703125
 20
-4906.3984375
 10
2285.171875
 20
-4906.3984375
 10
2294.7734375
 20
-4906.3984375
 10
2304.375
 20
-4906.3984375
 10
2313.9765625
 20
-4906.3984375
 10
2323.578125
 20
-4906.3984375
 10
2333.1796875
 20
-4906.3984375
 10
2342.78125
 20
-4906.3984375
 10
2352.3828125
 20
-4906.3984375
 10
2361.984375
 20
-4906.3984375
 10
2371.5859375
 20
-4906.3984375
 10
2381.1875
 20
-4906.3984375
 10
2390.7890625
 20
-4906.3984375
 10
2400.390625
 20
-4906.3984375
 10
2409.9921875
 20
-4906.3984375
 10
2419.59375
 20
-4906.3984375
 10
2429.1953125
 20
-4906.3984375
 10
2438.796875
 20
-4906.3984375
 10
2448.3984375
 20
-4906.3984375
 10
2458.0
 20
-4906.3984375
 10
2467.6015625
 20
-4906.3984375
 10
2477.203125
 20
-4906.3984375
 10
2486.8046875
 20
-4906.3984375
 10
2496.40625
 20
-4906.3984375
 10
2506.0078125
 20
-4906.3984375
 10
2515.609375
 20
-4906.3984375
 10
2525.2109375
 20
-4906.3984375
 10
2534.8125
 20
-4906.3984375
 10
2544.4140625
 20
-4906.3984375
 10
2554.015625
 20
-4906.3984375
 10
2563.6171875
 20
-4906.3984375
 10
2573.21875
 20
-4906.3984375
 10
2582.8203125
 20
-4906.3984375
 10
2592.421875
 20
-4906.3984375
 10
2602.0234375
 20
-4906.3984375
 10
2611.625
 20
-4906.3984375
 10
2621.2265625
 20
-4906.3984375
 10
2630.828125
 20
-4906.3984375
 10
2640.4296875
 20
-4906.3984375
 10
2650.03125
 20
-4906.3984375
 10
2659.6328125
 20
-4906.3984375
 10
2669.234375
 20
-4906.3984375
 10
2678.8359375
 20
-4906.3984375
 10
2688.4375
 20
-4906.3984375
 10
2698.0390625
 20
-4906.3984375
 10
2707.640625
 20
-4906.3984375
 10
2717.2421875
 20
-4906.3984375
 10
2726.84375
 20
-4906.3984375
 10
2736.4453125
 20
-4906.3984375
 10
2746.046875
 20
-4906.3984375
 10
2755.6484375
 20
-4906.3984375
 10
2765.25
 20
-4906.3984375
 10
2774.8515625
 20
-4906.3984375
 10
2784.453125
 20
-4906.3984375
 10
2794.0546875
 20
-4906.3984375
 10
2803.65625
 20
-4906.3984375
 10
2813.2578125
 20
-4906.3984375
 10
2822.859375
 20
-4906.3984375
 10
2832.4609375
 20
-4906.3984375
 10
2842.0625
 20
-4906.3984375
 10
2851.6640625
 20
-4906.3984375
 10
2861.265625
 20
-4906.3984375
 10
2870.8671875
 20
-4906.3984375
 10
2880.46875
 20
-4906.3984375
 10
2890.0703125
 20
-4906.3984375
 10
2899.671875
 20
-4906.3984375
 10
2909.2734375
 20
-4906.3984375
 10
2918.875
 20
-4906.3984375
 10
2928.4765625
 20
-4906.3984375
 10
2938.078125
 20
-4906.3984375
 10
2947.6796875
 20
-4906.3984375
 10
2957.28125
 20
-4906.3984375
 10
2966.8828125
 20
-4906.3984375
 10
2976.484375
 20
-4906.3984375
 10
2986.0859375
 20
-4906.3984375
 10
2995.6875
 20
-4906.3984375
 10
3005.2890625
 20
-4906.3984375
 10
3014.890625
 20
-4906.3984375
 10
3024.4921875
 20
-4906.3984375
 10
3034.09375
 20
-4906.3984375
 10
3043.6953125
 20
-4906.3984375
 10
3053.296875
 20
-4906.3984375
 10
3062.8984375
 20
-4906.3984375
 10
3072.5
 20
-4906.3984375
 10
3082.1015625
 20
-4906.3984375
 10
3091.703125
 20
-4906.3984375
 10
3101.3046875
 20
-4906.3984375
 10
3110.90625
 20
-4906.3984375
 10
3120.5078125
 20
-4906.3984375
 10
3130.109375
 20
-4906.3984375
 10
3139.7109375
 20
-4906.3984375
 10
3149.3125
 20
-4906.3984375
 10
3158.9140625
 20
-4906.3984375
 10
3168.515625
 20
-4906.3984375
 10
3178.1171875
 20
-4906.3984375
 10
3187.71875
 20
-4906.3984375
 10
3197.3203125
 20
-4906.3984375
 10
3206.921875
 20
-4906.3984375
 10
3216.5234375
 20
-4906.3984375
 10
3226.125
 20
-4906.3984375
 10
3235.7265625
 20
-4906.3984375
 10
3245.328125
 20
-4906.3984375
 10
3254.9296875
 20
-4906.3984375
 10
3264.53125
 20
-4906.3984375
 10
3274.1328125
 20
-4906.3984375
 10
3283.734375
 20
-4906.3984375
 10
3293.3359375
 20
-4906.3984375
 10
3302.9375
 20
-4906.3984375
 10
3312.5390625
 20
-4906.3984375
 10
3322.140625
 20
-4906.3984375
 10
3331.7421875
 20
-4906.3984375
 10
3341.34375
 20
-4906.3984375
 10
3350.9453125
 20
-4906.3984375
 10
3360.546875
 20
-4906.3984375
 10
3370.1484375
 20
-4906.3984375
 10
3379.75
 20
-4906.3984375
 10
3389.3515625
 20
-4906.3984375
 10
3398.953125
 20
-4906.3984375
 10
3408.5546875
 20
-4906.3984375
 10
3418.15625
 20
-4906.3984375
 10
3427.7578125
 20
-4906.3984375
 10
3437.359375
 20
-4906.3984375
 10
3446.9609375
 20
-4906.3984375
 10
3456.5625
 20
-4906.3984375
 10
3466.1640625
 20
-4906.3984375
 10
3475.765625
 20
-4906.3984375
 10
3485.3671875
 20
-4906.3984375
 10
3494.96875
 20
-4906.3984375
 10
3504.5703125
 20
-4906.3984375
 10
3514.171875
 20
-4906.3984375
 10
3523.7734375
 20
-4906.3984375
 10
3533.375
 20
-4906.3984375
 10
3542.9765625
 20
-4906.3984375
 10
3552.578125
 20
-4906.3984375
 10
3562.1796875
 20
-4906.3984375
 10
3571.78125
 20
-4906.3984375
 10
3581.3828125
 20
-4906.3984375
 10
3590.984375
 20
-4906.3984375
 10
3600.5859375
 20
-4906.3984375
 10
3610.1875
 20
-4906.3984375
 10
3619.7890625
 20
-4906.3984375
 10
3629.390625
 20
-4906.3984375
 10
3638.9921875
 20
-4906.3984375
 10
3648.59375
 20
-4906.3984375
 10
3658.1953125
 20
-4906.3984375
 10
3667.796875
 20
-4906.3984375
 10
3677.3984375
 20
-4906.3984375
 10
3687.0
 20
-4906.3984375
 10
3696.6015625
 20
-4906.3984375
 10
3706.203125
 20
-4906.3984375
 10
3715.8046875
 20
-4906.3984375
 10
3725.40625
 20
-4906.3984375
 10
3735.0078125
 20
-4906.3984375
 10
3744.609375
 20
-4906.3984375
 10
3754.2109375
 20
-4906.3984375
 10
3763.8125
 20
-4906.3984375
 10
3773.4140625
 20
-4906.3984375
 10
3783.015625
 20
-4906.3984375
 10
3792.6171875
 20
-4906.3984375
 10
3802.21875
 20
-4906.3984375
 10
3811.8203125
 20
-4906.3984375
 10
3821.421875
 20
-4906.3984375
 10
3831.0234375
 20
-4906.3984375
 10
3840.625
 20
-4906.3984375
 10
3850.2265625
 20
-4906.3984375
 10
3859.828125
 20
-4906.3984375
 10
3869.4296875
 20
-4906.3984375
 10
3879.03125
 20
-4906.3984375
 10
3888.6328125
 20
-4906.3984375
 10
3898.234375
 20
-4906.3984375
 10
3907.8359375
 20
-4906.3984375
 10
3917.4375
 20
-4906.3984375
 10
3927.0390625
 20
-4906.3984375
 10
3936.640625
 20
-4906.3984375
 10
3946.2421875
 20
-4906.3984375
 10
3955.84375
 20
-4906.3984375
 10
3965.4453125
 20
-4906.3984375
 10
3975.046875
 20
-4906.3984375
 10
3984.6484375
 20
-4906.3984375
 10
3994.25
 20
-4906.3984375
 10
4003.8515625
 20
-4906.3984375
 10
4013.453125
 20
-4906.3984375
 10
4023.0546875
 20
-4906.3984375
 10
4032.65625
 20
-4906.3984375
 10
4042.2578125
 20
-4906.3984375
 10
4051.859375
 20
-4906.3984375
 10
4061.4609375
 20
-4906.3984375
 10
4071.0625
 20
-4906.3984375
 10
4080.6640625
 20
-4906.3984375
 10
4090.265625
 20
-4906.3984375
 10
4099.8671875
 20
-4906.3984375
 10
4109.46875
 20
-4906.3984375
 10
4119.0703125
 20
-4906.3984375
 10
4128.671875
 20
-4906.3984375
 10
4138.2734375
 20
-4906.3984375
 10
4147.875
 20
-4906.3984375
 10
4157.4765625
 20
-4906.3984375
 10
4167.078125
 20
-4906.3984375
 10
4176.6796875
 20
-4906.3984375
 10
4186.28125
 20
-4906.3984375
 10
4195.8828125
 20
-4906.3984375
 10
4205.484375
 20
-4906.3984375
 10
4215.0859375
 20
-4906.3984375
 10
4224.6875
 20
-4906.3984375
 10
4234.2890625
 20
-4906.3984375
 10
4243.890625
 20
-4906.3984375
 10
4253.4921875
 20
-4906.3984375
 10
4263.09375
 20
-4906.3984375
 10
4272.6953125
 20
-4906.3984375
 10
4282.296875
 20
-4906.3984375
 10
4291.8984375
 20
-4906.3984375
 10
4301.5
 20
-4906.3984375
 10
4311.1015625
 20
-4906.3984375
 10
4320.703125
 20
-4906.3984375
 10
4330.3046875
 20
-4906.3984375
 10
4339.90625
 20
-4906.3984375
 10
4349.5078125
 20
-4906.3984375
 10
4359.109375
 20
-4906.3984375
 10
4368.7109375
 20
-4906.3984375
 10
4378.3125
 20
-4906.3984375
 10
4387.9140625
 20
-4906.3984375
 10
4397.515625
 20
-4906.3984375
 10
4407.1171875
 20
-4906.3984375
 10
4416.71875
 20
-4906.3984375
 10
4426.3203125
 20
-4906.3984375
 10
4435.921875
 20
-4906.3984375
 10
4445.5234375
 20
-4906.3984375
 10
4455.125
 20
-4906.3984375
 10
4464.7265625
 20
-4906.3984375
 10
4474.328125
 20
-4906.3984375
 10
4483.9296875
 20
-4906.3984375
 10
4493.53125
 20
-4906.3984375
 10
4503.1328125
 20
-4906.3984375
 10
4512.734375
 20
-4906.3984375
 10
4522.3359375
 20
-4906.3984375
 10
4531.9375
 20
-4906.3984375
 10
4541.5390625
 20
-4906.3984375
 10
4551.140625
 20
-4906.3984375
 10
4560.7421875
 20
-4906.3984375
 10
4570.34375
 20
-4906.3984375
 10
4579.9453125
 20
-4906.3984375
 10
4589.546875
 20
-4906.3984375
 10
4599.1484375
 20
-4906.3984375
 10
4608.75
 20
-4906.3984375
 10
4618.3515625
 20
-4906.3984375
 10
4627.953125
 20
-4906.3984375
 10
4637.5546875
 20
-4906.3984375
 10
4647.15625
 20
-4906.3984375
 10
4656.7578125
 20
-4906.3984375
 10
4666.359375
 20
-4906.3984375
 10
4675.9609375
 20
-4906.3984375
 10
4685.5625
 20
-4906.3984375
 10
4695.1640625
 20
-4906.3984375
 10
4704.765625
 20
-4906.3984375
 10
4714.3671875
 20
-4906.3984375
 10
4723.96875
 20
-4906.3984375
 10
4733.5703125
 20
-4906.3984375
 10
4743.171875
 20
-4906.3984375
 10
4752.7734375
 20
-4906.3984375
 10
4762.375
 20
-4906.3984375
 10
4771.9765625
 20
-4906.3984375
 10
4781.578125
 20
-4906.3984375
 10
4791.1796875
 20
-4906.3984375
 10
4800.78125
 20
-4906.3984375
 10
4810.3828125
 20
-4906.3984375
 10
4819.984375
 20
-4906.3984375
 10
4829.5859375
 20
-4906.3984375
 10
4839.1875
 20
-4906.3984375
 10
4848.7890625
 20
-4906.3984375
 10
4858.390625
 20
-4906.3984375
 10
4867.9921875
 20
-4906.3984375
 10
4877.59375
 20
-4906.3984375
 10
4887.1953125
 20
-4906.3984375
 10
4896.796875
 20
-4906.3984375
 10
4906.3984375
 20
-4906.3984375
 10
4906.3984375
 20
-4896.796875
 10
4906.3984375
 20
-4887.1953125
 10
4906.3984375
 20
-4877.59375
 10
4906.3984375
 20
-4867.9921875
 10
4906.3984375
 20
-4858.390625
 10
4906.3984375
 20
-4848.7890625
 10
4906.3984375
 20
-4839.1875
 10
4906.3984375
 20
-4829.5859375
 10
4906.3984375
 20
-4819.984375
 10
4906.3984375
 20
-4810.3828125
 10
4906.3984375
 20
-4800.78125
 10
4906.3984375
 20
-4791.1796875
 10
4906.3984375
 20
-4781.578125
 10
4906.3984375
 20
-4771.9765625
 10
4906.3984375
 20
-4762.375
 10
4906.3984375
 20
-4752.7734375
 10
4906.3984375
 20
-4743.171875
 10
4906.3984375
 20
-4733.5703125
 10
4906.3984375
 20
-4723.96875
 10
4906.3984375
 20
-4714.3671875
 10
4906.3984375
 20
-4704.765625
 10
4906.3984375
 20
-4695.1640625
 10
4906.3984375
 20
-4685.5625
 10
4906.3984375
 20
-4675.9609375
 10
4906.3984375
 20
-4666.359375
 10
4906.3984375
 20
-4656.7578125
 10
4906.3984375
 20
-4647.15625
 10
4906.3984375
 20
-4637.5546875
 10
4906.3984375
 20
-4627.953125
 10
4906.3984375
 20
-4618.3515625
 10
4906.3984375
 20
-4608.75
 10
4906.3984375
 20
-4599.1484375
 10
4906.3984375
 20
-4589.546875
 10
4906.3984375
 20
-4579.9453125
 10
4906.3984375
 20
-4570.34375
 10
4906.3984375
 20
-4560.7421875
 10
4906.3984375
 20
-4551.140625
 10
4906.3984375
 20
-4541.5390625
 10
4906.3984375
 20
-4531.9375
 10
4906.3984375
 20
-4522.3359375
 10
4906.3984375
 20
-4512.734375
 10
4906.3984375
 20
-4503.1328125
 10
4906.3984375
 20
-4493.53125
 10
4906.3984375
 20
-4483.9296875
 10
4906.3984375
 20
-4474.328125
 10
4906.3984375
 20
-4464.7265625
 10
4906.3984375
 20
-4455.125
 10
4906.3984375
 20
-4445.5234375
 10
4906.3984375
 20
-4435.921875
 10
4906.3984375
 20
-4426.3203125
 10
4906.3984375
 20
-4416.71875
 10
4906.3984375
 20
-4407.1171875
 10
4906.3984375
 20
-4397.515625
 10
4906.3984375
 20
-4387.9140625
 10
4906.3984375
 20
-4378.3125
 10
4906.3984375
 20
-4368.7109375
 10
4906.3984375
 20
-4359.109375
 10
4906.3984375
 20
-4349.5078125
 10
4906.3984375
 20
-4339.90625
 10
4906.3984375
 20
-4330.3046875
 10
4906.3984375
 20
-4320.703125
 10
4906.3984375
 20
-4311.1015625
 10
4906.3984375
 20
-4301.5
 10
4906.3984375
 20
-4291.8984375
 10
4906.3984375
 20
-4282.296875
 10
4906.3984375
 20
-4272.6953125
 10
4906.3984375
 20
-4263.09375
 10
4906.3984375
 20
-4253.4921875
 10
4906.3984375
 20
-4243.890625
 10
4906.3984375
 20
-4234.2890625
 10
4906.3984375
 20
-4224.6875
 10
4906.3984375
 20
-4215.0859375
 10
4906.3984375
 20
-4205.484375
 10
4906.3984375
 20
-4195.8828125
 10
4906.3984375
 20
-4186.28125
 10
4906.3984375
 20
-4176.6796875
 10
4906.3984375
 20
-4167.078125
 10
4906.3984375
 20
-4157.4765625
 10
4906.3984375
 20
-4147.875
 10
4906.3984375
 20
-4138.2734375
 10
4906.3984375
 20
-4128.671875
 10
4906.3984375
 20
-4119.0703125
 10
4906.3984375
 20
-4109.46875
 10
4906.3984375
 20
-4099.8671875
 10
4906.3984375
 20
-4090.265625
 10
4906.3984375
 20
-4080.6640625
 10
4906.3984375
 20
-4071.0625
 10
4906.3984375
 20
-4061.4609375
 10
4906.3984375
 20
-4051.859375
 10
4906.3984375
 20
-4042.2578125
 10
4906.3984375
 20
-4032.65625
 10
4906.3984375
 20
-4023.0546875
 10
4906.3984375
 20
-4013.453125
 10
4906.3984375
 20
-4003.8515625
 10
4906.3984375
 20
-3994.25
 10
4906.3984375
 20
-3984.6484375
 10
4906.3984375
 20
-3975.046875
 10
4906.3984375
 20
-3965.4453125
 10
4906.3984375
 20
-3955.84375
 10
4906.3984375
 20
-3946.2421875
 10
4906.3984375
 20
-3936.640625
 10
4906.3984375
 20
-3927.0390625
 10
4906.3984375
 20
-3917.4375
 10
4906.3984375
 20
-3907.8359375
 10
4906.3984375
 20
-3898.234375
 10
4906.3984375
 20
-3888.6328125
 10
4906.3984375
 20
-3879.03125
 10
4906.3984375
 20
-3869.4296875
 10
4906.3984375
 20
-3859.828125
 10
4906.3984375
 20
-3850.2265625
 10
4906.3984375
 20
-3840.625
 10
4906.3984375
 20
-3831.0234375
 10
4906.3984375
 20
-3821.421875
 10
4906.3984375
 20
-3811.8203125
 10
4906.3984375
 20
-3802.21875
 10
4906.3984375
 20
-3792.6171875
 10
4906.3984375
 20
-3783.015625
 10
4906.3984375
 20
-3773.4140625
 10
4906.3984375
 20
-3763.8125
 10
4906.3984375
 20
-3754.2109375
 10
4906.3984375
 20
-3744.609375
 10
4906.3984375
 20
-3735.0078125
 10
4906.3984375
 20
-3725.40625
 10
4906.3984375
 20
-3715.8046875
 10
4906.3984375
 20
-3706.203125
 10
4906.3984375
 20
-3696.6015625
 10
4906.3984375
 20
-3687.0
 10
4906.3984375
 20
-3677.3984375
 10
4906.3984375
 20
-3667.796875
 10
4906.3984375
 20
-3658.1953125
 10
4906.3984375
 20
-3648.59375
 10
4906.3984375
 20
-3638.9921875
 10
4906.3984375
 20
-3629.390625
 10
4906.3984375
 20
-3619.7890625
 10
4906.3984375
 20
-3610.1875
 10
4906.3984375
 20
-3600.5859375
 10
4906.3984375
 20
-3590.984375
 10
4906.3984375
 20
-3581.3828125
 10
4906.3984375
 20
-3571.78125
 10
4906.3984375
 20
-3562.1796875
 10
4906.3984375
 20
-3552.578125
 10
4906.3984375
 20
-3542.9765625
 10
4906.3984375
 20
-3533.375
 10
4906.3984375
 20
-3523.7734375
 10
4906.3984375
 20
-3514.171875
 10
4906.3984375
 20
-3504.5703125
 10
4906.3984375
 20
-3494.96875
 10
4906.3984375
 20
-3485.3671875
 10
4906.3984375
 20
-3475.765625
 10
4906.3984375
 20
-3466.1640625
 10
4906.3984375
 20
-3456.5625
 10
4906.3984375
 20
-3446.9609375
 10
4906.3984375
 20
-3437.359375
 10
4906.3984375
 20
-3427.7578125
 10
4906.3984375
 20
-3418.15625
 10
4906.3984375
 20
-3408.5546875
 10
4906.3984375
 20
-3398.953125
 10
4906.3984375
 20
-3389.3515625
 10
4906.3984375
 20
-3379.75
 10
4906.3984375
 20
-3370.1484375
 10
4906.3984375
 20
-3360.546875
 10
4906.3984375
 20
-3350.9453125
 10
4906.3984375
 20
-3341.34375
 10
4906.3984375
 20
-3331.7421875
 10
4906.3984375
 20
-3322.140625
 10
4906.3984375
 20
-3312.5390625
 10
4906.3984375
 20
-3302.9375
 10
4906.3984375
 20
-3293.3359375
 10
4906.3984375
 20
-3283.734375
 10
4906.3984375
 20
-3274.1328125
 10
4906.3984375
 20
-3264.53125
 10
4906.3984375
 20
-3254.9296875
 10
4906.3984375
 20
-3245.328125
 10
4906.3984375
 20
-3235.7265625
 10
4906.3984375
 20
-3226.125
 10
4906.3984375
 20
-3216.5234375
 10
4906.3984375
 20
-3206.921875
 10
4906.3984375
 20
-3197.3203125
 10
4906.3984375
 20
-3187.71875
 10
4906.3984375
 20
-3178.1171875
 10
4906.3984375
 20
-3168.515625
 10
4906.3984375
 20
-3158.9140625
 10
4906.3984375
 20
-3149.3125
 10
4906.3984375
 20
-3139.7109375
 10
4906.3984375
 20
-3130.109375
 10
4906.3984375
 20
-3120.5078125
 10
4906.3984375
 20
-3110.90625
 10
4906.3984375
 20
-3101.3046875
 10
4906.3984375
 20
-3091.703125
 10
4906.3984375
 20
-3082.1015625
 10
4906.3984375
 20
-3072.5
 10
4906.3984375
 20
-3062.8984375
 10
4906.3984375
 20
-3053.296875
 10
4906.3984375
 20
-3043.6953125
 10
4906.3984375
 20
-3034.09375
 10
4906.3984375
 20
-3024.4921875
 10
4906.3984375
 20
-3014.890625
 10
4906.3984375
 20
-3005.2890625
 10
4906.3984375
 20
-2995.6875
 10
4906.3984375
 20
-2986.0859375
 10
4906.3984375
 20
-2976.484375
 10
4906.3984375
 20
-2966.8828125
 10
4906.3984375
 20
-2957.28125
 10
4906.3984375
 20
-2947.6796875
 10
4906.3984375
 20
-2938.078125
 10
4906.3984375
 20
-2928.4765625
 10
4906.3984375
 20
-2918.875
 10
4906.3984375
 20
-2909.2734375
 10
4906.3984375
 20
-2899.671875
 10
4906.3984375
 20
-2890.0703125
 10
4906.3984375
 20
-2880.46875
 10
4906.3984375
 20
-2870.8671875
 10
4906.3984375
 20
-2861.265625
 10
4906.3984375
 20
-2851.6640625
 10
4906.3984375
 20
-2842.0625
 10
4906.3984375
 20
-2832.4609375
 10
4906.3984375
 20
-2822.859375
 10
4906.3984375
 20
-2813.2578125
 10
4906.3984375
 20
-2803.65625
 10
4906.3984375
 20
-2794.0546875
 10
4906.3984375
 20
-2784.453125
 10
4906.3984375
 20
-2774.8515625
 10
4906.3984375
 20
-2765.25
 10
4906.3984375
 20
-2755.6484375
 10
4906.3984375
 20
-2746.046875
 10
4906.3984375
 20
-2736.4453125
 10
4906.3984375
 20
-2726.84375
 10
4906.3984375
 20
-2717.2421875
 10
4906.3984375
 20
-2707.640625
 10
4906.3984375
 20
-2698.0390625
 10
4906.3984375
 20
-2688.4375
 10
4906.3984375
 20
-2678.8359375
 10
4906.3984375
 20
-2669.234375
 10
4906.3984375
 20
-2659.6328125
 10
4906.3984375
 20
-2650.03125
 10
4906.3984375
 20
-2640.4296875
 10
4906.3984375
 20
-2630.828125
 10
4906.3984375
 20
-2621.2265625
 10
4906.3984375
 20
-2611.625
 10
4906.3984375
 20
-2602.0234375
 10
4906.3984375
 20
-2592.421875
 10
4906.3984375
 20
-2582.8203125
 10
4906.3984375
 20
-2573.21875
 10
4906.3984375
 20
-2563.6171875
 10
4906.3984375
 20
-2554.015625
 10
4906.3984375
 20
-2544.4140625
 10
4906.3984375
 20
-2534.8125
 10
4906.3984375
 20
-2525.2109375
 10
4906.3984375
 20
-2515.609375
 10
4906.3984375
 20
-2506.0078125
 10
4906.3984375
 20
-2496.40625
 10
4906.3984375
 20
-2486.8046875
 10
4906.3984375
 20
-2477.203125
 10
4906.3984375
 20
-2467.6015625
 10
4906.3984375
 20
-2458.0
 10
4906.3984375
 20
-2448.3984375
 10
4906.3984375
 20
-2438.796875
 10
4906.3984375
 20
-2429.1953125
 10
4906.3984375
 20
-2419.59375
 10
4906.3984375
 20
-2409.9921875
 10
4906.3984375
 20
-2400.390625
 10
4906.3984375
 20
-2390.7890625
 10
4906.3984375
 20
-2381.1875
 10
4906.3984375
 20
-2371.5859375
 10
4906.3984375
 20
-2361.984375
 10
4906.3984375
 20
-2352.3828125
 10
4906.3984375
 20
-2342.78125
 10
4906.3984375
 20
-2333.1796875
 10
4906.3984375
 20
-2323.578125
 10
4906.3984375
 20
-2313.9765625
 10
4906.3984375
 20
-2304.375
 10
4906.3984375
 20
-2294.7734375
 10
4906.3984375
 20
-2285.171875
 10
4906.3984375
 20
-2275.5703125
 10
4906.3984375
 20
-2265.96875
 10
4906.3984375
 20
-2256.3671875
 10
4906.3984375
 20
-2246.765625
 10
4906.3984375
 20
-2237.1640625
 10
4906.3984375
 20
-2227.5625
 10
4906.3984375
 20
-2217.9609375
 10
4906.3984375
 20
-2208.359375
 10
4906.3984375
 20
-2198.7578125
 10
4906.3984375
 20
-2189.15625
 10
4906.3984375
 20
-2179.5546875
 10
4906.3984375
 20
-2169.953125
 10
4906.3984375
 20
-2160.3515625
 10
4906.3984375
 20
-2150.75
 10
4906.3984375
 20
-2141.1484375
 10
4906.3984375
 20
-2131.546875
 10
4906.3984375
 20
-2121.9453125
 10
4906.3984375
 20
-2112.34375
 10
4906.3984375
 20
-2102.7421875
 10
4906.3984375
 20
-2093.140625
 10
4906.3984375
 20
-2083.5390625
 10
4906.3984375
 20
-2073.9375
 10
4906.3984375
 20
-2064.3359375
 10
4906.3984375
 20
-2054.734375
 10
4906.3984375
 20
-2045.1328125
 10
4906.3984375
 20
-2035.53125
 10
4906.3984375
 20
-2025.9296875
 10
4906.3984375
 20
-2016.328125
 10
4906.3984375
 20
-2006.7265625
 10
4906.3984375
 20
-1997.125
 10
4906.3984375
 20
-1987.5234375
 10
4906.3984375
 20
-1977.921875
 10
4906.3984375
 20
-1968.3203125
 10
4906.3984375
 20
-1958.71875
 10
4906.3984375
 20
-1949.1171875
 10
4906.3984375
 20
-1939.515625
 10
4906.3984375
 20
-1929.9140625
 10
4906.3984375
 20
-1920.3125
 10
4906.3984375
 20
-1910.7109375
 10
4906.3984375
 20
-1901.109375
 10
4906.3984375
 20
-1891.5078125
 10
4906.3984375
 20
-1881.90625
 10
4906.3984375
 20
-1872.3046875
 10
4906.3984375
 20
-1862.703125
 10
4906.3984375
 20
-1853.1015625
 10
4906.3984375
 20
-1843.5
 10
4906.3984375
 20
-1833.8984375
 10
4906.3984375
 20
-1824.296875
 10
4906.3984375
 20
-1814.6953125
 10
4906.3984375
 20
-1805.09375
 10
4906.3984375
 20
-1795.4921875
 10
4906.3984375
 20
-1785.890625
 10
4906.3984375
 20
-1776.2890625
 10
4906.3984375
 20
-1766.6875
 10
4906.3984375
 20
-1757.0859375
 10
4906.3984375
 20
-1747.484375
 10
4906.3984375
 20
-1737.8828125
 10
4906.3984375
 20
-1728.28125
 10
4906.3984375
 20
-1718.6796875
 10
4906.3984375
 20
-1709.078125
 10
4906.3984375
 20
-1699.4765625
 10
4906.3984375
 20
-1689.875
 10
4906.3984375
 20
-1680.2734375
 10
4906.3984375
 20
-1670.671875
 10
4906.3984375
 20
-1661.0703125
 10
4906.3984375
 20
-1651.46875
 10
4906.3984375
 20
-1641.8671875
 10
4906.3984375
 20
-1632.265625
 10
4906.3984375
 20
-1622.6640625
 10
4906.3984375
 20
-1613.0625
 10
4906.3984375
 20
-1603.4609375
 10
4906.3984375
 20
-1593.859375
 10
4906.3984375
 20
-1584.2578125
 10
4906.3984375
 20
-1574.65625
 10
4906.3984375
 20
-1565.0546875
 10
4906.3984375
 20
-1555.453125
 10
4906.3984375
 20
-1545.8515625
 10
4906.3984375
 20
-1536.25
 10
4906.3984375
 20
-1526.6484375
 10
4906.3984375
 20
-1517.046875
 10
4906.3984375
 20
-1507.4453125
 10
4906.3984375
 20
-1497.84375
 10
4906.3984375
 20
-1488.2421875
 10
4906.3984375
 20
-1478.640625
 10
4906.3984375
 20
-1469.0390625
 10
4906.3984375
 20
-1459.4375
 10
4906.3984375
 20
-1449.8359375
 10
4906.3984375
 20
-1440.234375
 10
4906.3984375
 20
-1430.6328125
 10
4906.3984375
 20
-1421.03125
 10
4906.3984375
 20
-1411.4296875
 10
4906.3984375
 20
-1401.828125
 10
4906.3984375
 20
-1392.2265625
 10
4906.3984375
 20
-1382.625
 10
4906.3984375
 20
-1373.0234375
 10
4906.3984375
 20
-1363.421875
 10
4906.3984375
 20
-1353.8203125
 10
4906.3984375
 20
-1344.21875
 10
4906.3984375
 20
-1334.6171875
 10
4906.3984375
 20
-1325.015625
 10
4906.3984375
 20
-1315.4140625
 10
4906.3984375
 20
-1305.8125
 10
4906.3984375
 20
-1296.2109375
 10
4906.3984375
 20
-1286.609375
 10
4906.3984375
 20
-1277.0078125
 10
4906.3984375
 20
-1267.40625
 10
4906.3984375
 20
-1257.8046875
 10
4906.3984375
 20
-1248.203125
 10
4906.3984375
 20
-1238.6015625
 10
4906.3984375
 20
-1229.0
 10
4906.3984375
 20
-1219.3984375
 10
4906.3984375
 20
-1209.796875
 10
4906.3984375
 20
-1200.1953125
 10
4906.3984375
 20
-1190.59375
 10
4906.3984375
 20
-1180.9921875
 10
4906.3984375
 20
-1171.390625
 10
4906.3984375
 20
-1161.7890625
 10
4906.3984375
 20
-1152.1875
 10
4906.3984375
 20
-1142.5859375
 10
4906.3984375
 20
-1132.984375
 10
4906.3984375
 20
-1123.3828125
 10
4906.3984375
 20
-1113.78125
 10
4906.3984375
 20
-1104.1796875
 10
4906.3984375
 20
-1094.578125
 10
4906.3984375
 20
-1084.9765625
 10
4906.3984375
 20
-1075.375
 10
4906.3984375
 20
-1065.7734375
 10
4906.3984375
 20
-1056.171875
 10
4906.3984375
 20
-1046.5703125
 10
4906.3984375
 20
-1036.96875
 10
4906.3984375
 20
-1027.3671875
 10
4906.3984375
 20
-1017.765625
 10
4906.3984375
 20
-1008.1640625
 10
4906.3984375
 20
-998.5625
 10
4906.3984375
 20
-988.9609375
 10
4906.3984375
 20
-979.359375
 10
4906.3984375
 20
-969.7578125
 10
4906.3984375
 20
-960.15625
 10
4906.3984375
 20
-950.5546875
 10
4906.3984375
 20
-940.953125
 10
4906.3984375
 20
-931.3515625
 10
4906.3984375
 20
-921.75
 10
4906.3984375
 20
-912.1484375
 10
4906.3984375
 20
-902.546875
 10
4906.3984375
 20
-892.9453125
 10
4906.3984375
 20
-883.34375
 10
4906.3984375
 20
-873.7421875
 10
4906.3984375
 20
-864.140625
 10
4906.3984375
 20
-854.5390625
 10
4906.3984375
 20
-844.9375
 10
4906.3984375
 20
-835.3359375
 10
4906.3984375
 20
-825.734375
 10
4906.3984375
 20
-816.1328125
 10
4906.3984375
 20
-806.53125
 10
4906.3984375
 20
-796.9296875
 10
4906.3984375
 20
-787.328125
 10
4906.3984375
 20
-777.7265625
 10
4906.3984375
 20
-768.125
 10
4906.3984375
 20
-758.5234375
 10
4906.3984375
 20
-748.921875
 10
4906.3984375
 20
-739.3203125
 10
4906.3984375
 20
-729.71875
 10
4906.3984375
 20
-720.1171875
 10
4906.3984375
 20
-710.515625
 10
4906.3984375
 20
-700.9140625
 10
4906.3984375
 20
-691.3125
 10
4906.3984375
 20
-681.7109375
 10
4906.3984375
 20
-672.109375
 10
4906.3984375
 20
-662.5078125
 10
4906.3984375
 20
-652.90625
 10
4906.3984375
 20
-643.3046875
 10
4906.3984375
 20
-633.703125
 10
4906.3984375
 20
-624.1015625
 10
4906.3984375
 20
-614.5
 10
4906.3984375
 20
-604.8984375
 10
4906.3984375
 20
-595.296875
 10
4906.3984375
 20
-585.6953125
 10
4906.3984375
 20
-576.09375
 10
4906.3984375
 20
-566.4921875
 10
4906.3984375
 20
-556.890625
 10
4906.3984375
 20
-547.2890625
 10
4906.3984375
 20
-537.6875
 10
4906.3984375
 20
-528.0859375
 10
4906.3984375
 20
-518.484375
 10
4906.3984375
 20
-508.8828125
 10
4906.3984375
 20
-499.28125
 10
4906.3984375
 20
-489.6796875
 10
4906.3984375
 20
-480.078125
 10
4906.3984375
 20
-470.4765625
 10
4906.3984375
 20
-460.875
 10
4906.3984375
 20
-451.2734375
 10
4906.3984375
 20
-441.671875
 10
4906.3984375
 20
-432.0703125
 10
4906.3984375
 20
-422.46875
 10
4906.3984375
 20
-412.8671875
 10
4906.3984375
 20
-403.265625
 10
4906.3984375
 20
-393.6640625
 10
4906.3984375
 20
-384.0625
 10
4906.3984375
 20
-374.4609375
 10
4906.3984375
 20
-364.859375
 10
4906.3984375
 20
-355.2578125
 10
4906.3984375
 20
-345.65625
 10
4906.3984375
 20
-336.0546875
 10
4906.3984375
 20
-326.453125
 10
4906.3984375
 20
-316.8515625
 10
4906.3984375
 20
-307.25
 10
4906.3984375
 20
-297.6484375
 10
4906.3984375
 20
-288.046875
 10
4906.3984375
 20
-278.4453125
 10
4906.3984375
 20
-268.84375
 10
4906.3984375
 20
-259.2421875
 10
4906.3984375
 20
-249.640625
 10
4906.3984375
 20
-240.0390625
 10
4906.3984375
 20
-230.4375
 10
4906.3984375
 20
-220.8359375
 10
4906.3984375
 20
-211.234375
 10
4906.3984375
 20
-201.6328125
 10
4906.3984375
 20
-192.03125
 10
4906.3984375
 20
-182.4296875
 10
4906.3984375
 20
-172.828125
 10
4906.3984375
 20
-163.2265625
 10
4906.3984375
 20
-153.625
 10
4906.3984375
 20
-144.0234375
 10
4906.3984375
 20
-134.421875
 10
4906.3984375
 20
-124.8203125
 10
4906.3984375
 20
-115.21875
 10
4906.3984375
 20
-105.6171875
 10
4906.3984375
 20
-96.015625
 10
4906.3984375
 20
-86.4140625
 10
4906.3984375
 20
-76.8125
 10
4906.3984375
 20
-67.2109375
 10
4906.3984375
 20
-57.609375
 10
4906.3984375
 20
-48.0078125
 10
4906.3984375
 20
-38.40625
 10
4906.3984375
 20
-28.8046875
 10
4906.3984375
 20
-19.203125
 10
4906.3984375
 20
-9.6015625
 10
4906.3984375
 20
-0.0
 10
4896.796875
 20
-0.0
 10
4887.1953125
 20
-0.0
 10
4877.59375
 20
-0.0
 10
4867.9921875
 20
-0.0
 10
4858.390625
 20
-0.0
 10
4848.7890625
 20
-0.0
 10
4839.1875
 20
-0.0
 10
4829.5859375
 20
-0.0
 10
4819.984375
 20
-0.0
 10
4810.3828125
 20
-0.0
 10
4800.78125
 20
-0.0
 10
4791.1796875
 20
-0.0
 10
4781.578125
 20
-0.0
 10
4771.9765625
 20
-0.0
 10
4762.375
 20
-0.0
 10
4752.7734375
 20
-0.0
 10
4743.171875
 20
-0.0
 10
4733.5703125
 20
-0.0
 10
4723.96875
 20
-0.0
 10
4714.3671875
 20
-0.0
 10
4704.765625
 20
-0.0
 10
4695.1640625
 20
-0.0
 10
4685.5625
 20
-0.0
 10
4675.9609375
 20
-0.0
 10
4666.359375
 20
-0.0
 10
4656.7578125
 20
-0.0
 10
4647.15625
 20
-0.0
 10
4637.5546875
 20
-0.0
 10
4627.953125
 20
-0.0
 10
4618.3515625
 20
-0.0
 10
4608.75
 20
-0.0
 10
4599.1484375
 20
-0.0
 10
4589.546875
 20
-0.0
 10
4579.9453125
 20
-0.0
 10
4570.34375
 20
-0.0
 10
4560.7421875
 20
-0.0
 10
4551.140625
 20
-0.0
 10
4541.5390625
 20
-0.0
 10
4531.9375
 20
-0.0
 10
4522.3359375
 20
-0.0
 10
4512.734375
 20
-0.0
 10
4503.1328125
 20
-0.0
 10
4493.53125
 20
-0.0
 10
4483.9296875
 20
-0.0
 10
4474.328125
 20
-0.0
 10
4464.7265625
 20
-0.0
 10
4455.125
 20
-0.0
 10
4445.5234375
 20
-0.0
 10
4435.921875
 20
-0.0
 10
4426.3203125
 20
-0.0
 10
4416.71875
 20
-0.0
 10
4407.1171875
 20
-0.0
 10
4397.515625
 20
-0.0
 10
4387.9140625
 20
-0.0
 10
4378.3125
 20
-0.0
 10
4368.7109375
 20
-0.0
 10
4359.109375
 20
-0.0
 10
4349.5078125
 20
-0.0
 10
4339.90625
 20
-0.0
 10
4330.3046875
 20
-0.0
 10
4320.703125
 20
-0.0
 10
4311.1015625
 20
-0.0
 10
4301.5
 20
-0.0
 10
4291.8984375
 20
-0.0
 10
4282.296875
 20
-0.0
 10
4272.6953125
 20
-0.0
 10
4263.09375
 20
-0.0
 10
4253.4921875
 20
-0.0
 10
4243.890625
 20
-0.0
 10
4234.2890625
 20
-0.0
 10
4224.6875
 20
-0.0
 10
4215.0859375
 20
-0.0
 10
4205.484375
 20
-0.0
 10
4195.8828125
 20
-0.0
 10
4186.28125
 20
-0.0
 10
4176.6796875
 20
-0.0
 10
4167.078125
 20
-0.0
 10
4157.4765625
 20
-0.0
 10
4147.875
 20
-0.0
 10
4138.2734375
 20
-0.0
 10
4128.671875
 20
-0.0
 10
4119.0703125
 20
-0.0
 10
4109.46875
 20
-0.0
 10
4099.8671875
 20
-0.0
 10
4090.265625
 20
-0.0
 10
4080.6640625
 20
-0.0
 10
4071.0625
 20
-0.0
 10
4061.4609375
 20
-0.0
 10
4051.859375
 20
-0.0
 10
4042.2578125
 20
-0.0
 10
4032.65625
 20
-0.0
 10
4023.0546875
 20
-0.0
 10
4013.453125
 20
-0.0
 10
4003.8515625
 20
-0.0
 10
3994.25
 20
-0.0
 10
3984.6484375
 20
-0.0
 10
3975.046875
 20
-0.0
 10
3965.4453125
 20
-0.0
 10
3955.84375
 20
-0.0
 10
3946.2421875
 20
-0.0
 10
3936.640625
 20
-0.0
 10
3927.0390625
 20
-0.0
 10
3917.4375
 20
-0.0
 10
3907.8359375
 20
-0.0
 10
3898.234375
 20
-0.0
 10
3888.6328125
 20
-0.0
 10
3879.03125
 20
-0.0
 10
3869.4296875
 20
-0.0
 10
3859.828125
 20
-0.0
 10
3850.2265625
 20
-0.0
 10
3840.625
 20
-0.0
 10
3831.0234375
 20
-0.0
 10
3821.421875
 20
-0.0
 10
3811.8203125
 20
-0.0
 10
3802.21875
 20
-0.0
 10
3792.6171875
 20
-0.0
 10
3783.015625
 20
-0.0
 10
3773.4140625
 20
-0.0
 10
3763.8125
 20
-0.0
 10
3754.2109375
 20
-0.0
 10
3744.609375
 20
-0.0
 10
3735.0078125
 20
-0.0
 10
3725.40625
 20
-0.0
 10
3715.8046875
 20
-0.0
 10
3706.203125
 20
-0.0
 10
3696.6015625
 20
-0.0
 10
3687.0
 20
-0.0
 10
3677.3984375
 20
-0.0
 10
3667.796875
 20
-0.0
 10
3658.1953125
 20
-0.0
 10
3648.59375
 20
-0.0
 10
3638.9921875
 20
-0.0
 10
3629.390625
 20
-0.0
 10
3619.7890625
 20
-0.0
 10
3610.1875
 20
-0.0
 10
3600.5859375
 20
-0.0
 10
3590.984375
 20
-0.0
 10
3581.3828125
 20
-0.0
 10
3571.78125
 20
-0.0
 10
3562.1796875
 20
-0.0
 10
3552.578125
 20
-0.0
 10
3542.9765625
 20
-0.0
 10
3533.375
 20
-0.0
 10
3523.7734375
 20
-0.0
 10
3514.171875
 20
-0.0
 10
3504.5703125
 20
-0.0
 10
3494.96875
 20
-0.0
 10
3485.3671875
 20
-0.0
 10
3475.765625
 20
-0.0
 10
3466.1640625
 20
-0.0
 10
3456.5625
 20
-0.0
 10
3446.9609375
 20
-0.0
 10
3437.359375
 20
-0.0
 10
3427.7578125
 20
-0.0
 10
3418.15625
 20
-0.0
 10
3408.5546875
 20
-0.0
 10
3398.953125
 20
-0.0
 10
3389.3515625
 20
-0.0
 10
3379.75
 20
-0.0
 10
3370.1484375
 20
-0.0
 10
3360.546875
 20
-0.0
 10
3350.9453125
 20
-0.0
 10
3341.34375
 20
-0.0
 10
3331.7421875
 20
-0.0
 10
3322.140625
 20
-0.0
 10
3312.5390625
 20
-0.0
 10
3302.9375
 20
-0.0
 10
3293.3359375
 20
-0.0
 10
3283.734375
 20
-0.0
 10
3274.1328125
 20
-0.0
 10
3264.53125
 20
-0.0
 10
3254.9296875
 20
-0.0
 10
3245.328125
 20
-0.0
 10
3235.7265625
 20
-0.0
 10
3226.125
 20
-0.0
 10
3216.5234375
 20
-0.0
 10
3206.921875
 20
-0.0
 10
3197.3203125
 20
-0.0
 10
3187.71875
 20
-0.0
 10
3178.1171875
 20
-0.0
 10
3168.515625
 20
-0.0
 10
3158.9140625
 20
-0.0
 10
3149.3125
 20
-0.0
 10
3139.7109375
 20
-0.0
 10
3130.109375
 20
-0.0
 10
3120.5078125
 20
-0.0
 10
3110.90625
 20
-0.0
 10
3101.3046875
 20
-0.0
 10
3091.703125
 20
-0.0
 10
3082.1015625
 20
-0.0
 10
3072.5
 20
-0.0
 10
3062.8984375
 20
-0.0
 10
3053.296875
 20
-0.0
 10
3043.6953125
 20
-0.0
 10
3034.09375
 20
-0.0
 10
3024.4921875
 20
-0.0
 10
3014.890625
 20
-0.0
 10
3005.2890625
 20
-0.0
 10
2995.6875
 20
-0.0
 10
2986.0859375
 20
-0.0
 10
2976.484375
 20
-0.0
 10
2966.8828125
 20
-0.0
 10
2957.28125
 20
-0.0
 10
2947.6796875
 20
-0.0
 10
2938.078125
 20
-0.0
 10
2928.4765625
 20
-0.0
 10
2918.875
 20
-0.0
 10
2909.2734375
 20
-0.0
 10
2899.671875
 20
-0.0
 10
2890.0703125
 20
-0.0
 10
2880.46875
 20
-0.0
 10
2870.8671875
 20
-0.0
 10
2861.265625
 20
-0.0
 10
2851.6640625
 20
-0.0
 10
2842.0625
 20
-0.0
 10
2832.4609375
 20
-0.0
 10
2822.859375
 20
-0.0
 10
2813.2578125
 20
-0.0
 10
2803.65625
 20
-0.0
 10
2794.0546875
 20
-0.0
 10
2784.453125
 20
-0.0
 10
2774.8515625
 20
-0.0
 10
2765.25
 20
-0.0
 10
2755.6484375
 20
-0.0
 10
2746.046875
 20
-0.0
 10
2736.4453125
 20
-0.0
 10
2726.84375
 20
-0.0
 10
2717.2421875
 20
-0.0
 10
2707.640625
 20
-0.0
 10
2698.0390625
 20
-0.0
 10
2688.4375
 20
-0.0
 10
2678.8359375
 20
-0.0
 10
2669.234375
 20
-0.0
 10
2659.6328125
 20
-0.0
 10
2650.03125
 20
-0.0
 10
2640.4296875
 20
-0.0
 10
2630.828125
 20
-0.0
 10
2621.2265625
 20
-0.0
 10
2611.625
 20
-0.0
 10
2602.0234375
 20
-0.0
 10
2592.421875
 20
-0.0
 10
2582.8203125
 20
-0.0
 10
2573.21875
 20
-0.0
 10
2563.6171875
 20
-0.0
 10
2554.015625
 20
-0.0
 10
2544.4140625
 20
-0.0
 10
2534.8125
 20
-0.0
 10
2525.2109375
 20
-0.0
 10
2515.609375
 20
-0.0
 10
2506.0078125
 20
-0.0
 10
2496.40625
 20
-0.0
 10
2486.8046875
 20
-0.0
 10
2477.203125
 20
-0.0
 10
2467.6015625
 20
-0.0
 10
2458.0
 20
-0.0
 10
2448.3984375
 20
-0.0
 10
2438.796875
 20
-0.0
 10
2429.1953125
 20
-0.0
 10
2419.59375
 20
-0.0
 10
2409.9921875
 20
-0.0
 10
2400.390625
 20
-0.0
 10
2390.7890625
 20
-0.0
 10
2381.1875
 20
-0.0
 10
2371.5859375
 20
-0.0
 10
2361.984375
 20
-0.0
 10
2352.3828125
 20
-0.0
 10
2342.78125
 20
-0.0
 10
2333.1796875
 20
-0.0
 10
2323.578125
 20
-0.0
 10
2313.9765625
 20
-0.0
 10
2304.375
 20
-0.0
 10
2294.7734375
 20
-0.0
 10
2285.171875
 20
-0.0
 10
2275.5703125
 20
-0.0
 10
2265.96875
 20
-0.0
 10
2256.3671875
 20
-0.0
 10
2246.765625
 20
-0.0
 10
2237.1640625
 20
-0.0
 10
2227.5625
 20
-0.0
 10
2217.9609375
 20
-0.0
 10
2208.359375
 20
-0.0
 10
2198.7578125
 20
-0.0
 10
2189.15625
 20
-0.0
 10
2179.5546875
 20
-0.0
 10
2169.953125
 20
-0.0
 10
2160.3515625
 20
-0.0
 10
2150.75
 20
-0.0
 10
2141.1484375
 20
-0.0
 10
2131.546875
 20
-0.0
 10
2121.9453125
 20
-0.0
 10
2112.34375
 20
-0.0
 10
2102.7421875
 20
-0.0
 10
2093.140625
 20
-0.0
 10
2083.5390625
 20
-0.0
 10
2073.9375
 20
-0.0
 10
2064.3359375
 20
-0.0
 10
2054.734375
 20
-0.0
 10
2045.1328125
 20
-0.0
 10
2035.53125
 20
-0.0
 10
2025.9296875
 20
-0.0
 10
2016.328125
 20
-0.0
 10
2006.7265625
 20
-0.0
 10
1997.125
 20
-0.0
 10
1987.5234375
 20
-0.0
 10
1977.921875
 20
-0.0
 10
1968.3203125
 20
-0.0
 10
1958.71875
 20
-0.0
 10
1949.1171875
 20
-0.0
 10
1939.515625
 20
-0.0
 10
1929.9140625
 20
-0.0
 10
1920.3125
 20
-0.0
 10
1910.7109375
 20
-0.0
 10
1901.109375
 20
-0.0
 10
1891.5078125
 20
-0.0
 10
1881.90625
 20
-0.0
 10
1872.3046875
 20
-0.0
 10
1862.703125
 20
-0.0
 10
1853.1015625
 20
-0.0
 10
1843.5
 20
-0.0
 10
1833.8984375
 20
-0.0
 10
1824.296875
 20
-0.0
 10
1814.6953125
 20
-0.0
 10
1805.09375
 20
-0.0
 10
1795.4921875
 20
-0.0
 10
1785.890625
 20
-0.0
 10
1776.2890625
 20
-0.0
 10
1766.6875
 20
-0.0
 10
1757.0859375
 20
-0.0
 10
1747.484375
 20
-0.0
 10
1737.8828125
 20
-0.0
 10
1728.28125
 20
-0.0
 10
1718.6796875
 20
-0.0
 10
1709.078125
 20
-0.0
 10
1699.4765625
 20
-0.0
 10
1689.875
 20
-0.0
 10
1680.2734375
 20
-0.0
 10
1670.671875
 20
-0.0
 10
1661.0703125
 20
-0.0
 10
1651.46875
 20
-0.0
 10
1641.8671875
 20
-0.0
 10
1632.265625
 20
-0.0
 10
1622.6640625
 20
-0.0
 10
1613.0625
 20
-0.0
 10
1603.4609375
 20
-0.0
 10
1593.859375
 20
-0.0
 10
1584.2578125
 20
-0.0
 10
1574.65625
 20
-0.0
 10
1565.0546875
 20
-0.0
 10
1555.453125
 20
-0.0
 10
1545.8515625
 20
-0.0
 10
1536.25
 20
-0.0
 10
1526.6484375
 20
-0.0
 10
1517.046875
 20
-0.0
 10
1507.4453125
 20
-0.0
 10
1497.84375
 20
-0.0
 10
1488.2421875
 20
-0.0
 10
1478.640625
 20
-0.0
 10
1469.0390625
 20
-0.0
 10
1459.4375
 20
-0.0
 10
1449.8359375
 20
-0.0
 10
1440.234375
 20
-0.0
 10
1430.6328125
 20
-0.0
 10
1421.03125
 20
-0.0
 10
1411.4296875
 20
-0.0
 10
1401.828125
 20
-0.0
 10
1392.2265625
 20
-0.0
 10
1382.625
 20
-0.0
 10
1373.0234375
 20
-0.0
 10
1363.421875
 20
-0.0
 10
1353.8203125
 20
-0.0
 10
1344.21875
 20
-0.0
 10
1334.6171875
 20
-0.0
 10
1325.015625
 20
-0.0
 10
1315.4140625
 20
-0.0
 10
1305.8125
 20
-0.0
 10
1296.2109375
 20
-0.0
 10
1286.609375
 20
-0.0
 10
1277.0078125
 20
-0.0
 10
1267.40625
 20
-0.0
 10
1257.8046875
 20
-0.0
 10
1248.203125
 20
-0.0
 10
1238.6015625
 20
-0.0
 10
1229.0
 20
-0.0
 10
1219.3984375
 20
-0.0
 10
1209.796875
 20
-0.0
 10
1200.1953125
 20
-0.0
 10
1190.59375
 20
-0.0
 10
1180.9921875
 20
-0.0
 10
1171.390625
 20
-0.0
 10
1161.7890625
 20
-0.0
 10
1152.1875
 20
-0.0
 10
1142.5859375
 20
-0.0
 10
1132.984375
 20
-0.0
 10
1123.3828125
 20
-0.0
 10
1113.78125
 20
-0.0
 10
1104.1796875
 20
-0.0
 10
1094.578125
 20
-0.0
 10
1084.9765625
 20
-0.0
 10
1075.375
 20
-0.0
 10
1065.7734375
 20
-0.0
 10
1056.171875
 20
-0.0
 10
1046.5703125
 20
-0.0
 10
1036.96875
 20
-0.0
 10
1027.3671875
 20
-0.0
 10
1017.765625
 20
-0.0
 10
1008.1640625
 20
-0.0
 10
998.5625
 20
-0.0
 10
988.9609375
 20
-0.0
 10
979.359375
 20
-0.0
 10
969.7578125
 20
-0.0
 10
960.15625
 20
-0.0
 10
950.5546875
 20
-0.0
 10
940.953125
 20
-0.0
 10
931.3515625
 20
-0.0
 10
921.75
 20
-0.0
 10
912.1484375
 20
-0.0
 10
902.546875
 20
-0.0
 10
892.9453125
 20
-0.0
 10
883.34375
 20
-0.0
 10
873.7421875
 20
-0.0
 10
864.140625
 20
-0.0
 10
854.5390625
 20
-0.0
 10
844.9375
 20
-0.0
 10
835.3359375
 20
-0.0
 10
825.734375
 20
-0.0
 10
816.1328125
 20
-0.0
 10
806.53125
 20
-0.0
 10
796.9296875
 20
-0.0
 10
787.328125
 20
-0.0
 10
777.7265625
 20
-0.0
 10
768.125
 20
-0.0
 10
758.5234375
 20
-0.0
 10
748.921875
 20
-0.0
 10
739.3203125
 20
-0.0
 10
729.71875
 20
-0.0
 10
720.1171875
 20
-0.0
 10
710.515625
 20
-0.0
 10
700.9140625
 20
-0.0
 10
691.3125
 20
-0.0
 10
681.7109375
 20
-0.0
 10
672.109375
 20
-0.0
 10
662.5078125
 20
-0.0
 10
652.90625
 20
-0.0
 10
643.3046875
 20
-0.0
 10
633.703125
 20
-0.0
 10
624.1015625
 20
-0.0
 10
614.5
 20
-0.0
 10
604.8984375
 20
-0.0
 10
595.296875
 20
-0.0
 10
585.6953125
 20
-0.0
 10
576.09375
 20
-0.0
 10
566.4921875
 20
-0.0
 10
556.890625
 20
-0.0
 10
547.2890625
 20
-0.0
 10
537.6875
 20
-0.0
 10
528.0859375
 20
-0.0
 10
518.484375
 20
-0.0
 10
508.8828125
 20
-0.0
 10
499.28125
 20
-0.0
 10
489.6796875
 20
-0.0
 10
480.078125
 20
-0.0
 10
470.4765625
 20
-0.0
 10
460.875
 20
-0.0
 10
451.2734375
 20
-0.0
 10
441.671875
 20
-0.0
 10
432.0703125
 20
-0.0
 10
422.46875
 20
-0.0
 10
412.8671875
 20
-0.0
 10
403.265625
 20
-0.0
 10
393.6640625
 20
-0.0
 10
384.0625
 20
-0.0
 10
374.4609375
 20
-0.0
 10
364.859375
 20
-0.0
 10
355.2578125
 20
-0.0
 10
345.65625
 20
-0.0
 10
336.0546875
 20
-0.0
 10
326.453125
 20
-0.0
 10
316.8515625
 20
-0.0
 10
307.25
 20
-0.0
 10
297.6484375
 20
-0.0
 10
288.046875
 20
-0.0
 10
278.4453125
 20
-0.0
 10
268.84375
 20
-0.0
 10
259.2421875
 20
-0.0
 10
249.640625
 20
-0.0
 10
240.0390625
 20
-0.0
 10
230.4375
 20
-0.0
 10
220.8359375
 20
-0.0
 10
211.234375
 20
-0.0
 10
201.6328125
 20
-0.0
 10
192.03125
 20
-0.0
 10
182.4296875
 20
-0.0
 10
172.828125
 20
-0.0
 10
163.2265625
 20
-0.0
 10
153.625
 20
-0.0
 10
144.0234375
 20
-0.0
 10
134.421875
 20
-0.0
 10
124.8203125
 20
-0.0
 10
115.21875
 20
-0.0
 10
105.6171875
 20
-0.0
 10
96.015625
 20
-0.0
 10
86.4140625
 20
-0.0
 10
76.8125
 20
-0.0
 10
67.2109375
 20
-0.0
 10
57.609375
 20
-0.0
 10
48.0078125
 20
-0.0
 10
38.40625
 20
-0.0
 10
28.8046875
 20
-0.0
 10
19.203125
 20
-0.0
 10
9.6015625
 20
-0.0
  0
LWPOLYLINE
  5
34
330
17
100
AcDbEntity
  8
substrate
100
AcDbPolyline
 90
240
 70
1
 43
0.5
 10
2333.1796875
 20
-2150.75
 10
2342.78125
 20
-2141.1484375
 10
2352.3828125
 20
-2141.1484375
 10
2361.984375
 20
-2141.1484375
 10
2371.5859375
 20
-2141.1484375
 10
2381.1875
 20
-2141.1484375
 10
2390.7890625
 20
-2141.1484375
 10
2400.390625
 20
-2141.1484375
 10
2409.9921875
 20
-2141.1484375
 10
2419.59375
 20
-2141.1484375
 10
2429.1953125
 20
-2141.1484375
 10
2438.796875
 20
-2141.1484375
 10
2448.3984375
 20
-2141.1484375
 10
2458.0
 20
-2141.1484375
 10
2467.6015625
 20
-2141.1484375
 10
2477.203125
 20
-2141.1484375
 10
2486.8046875
 20
-2141.1484375
 10
2496.40625
 20
-2141.1484375
 10
2506.0078125
 20
-2141.1484375
 10
2515.609375
 20
-2141.1484375
 10
2525.2109375
 20
-2141.1484375
 10
2534.8125
 20
-2141.1484375
 10
2544.4140625
 20
-2141.1484375
 10
2554.015625
 20
-2141.1484375
 10
2563.6171875
 20
-2141.1484375
 10
2573.21875
 20
-2150.75
 10
2573.21875
 20
-2160.3515625
 10
2573.21875
 20
-2169.953125
 10
2573.21875
 20
-2179.5546875
 10
2582.8203125
 20
-2179.5546875
 10
2592.421875
 20
-2179.5546875
 10
2602.0234375
 20
-2179.5546875
 10
2611.625
 20
-2179.5546875
 10
2621.2265625
 20
-2179.5546875
 10
2630.828125
 20
-2179.5546875
 10
2640.4296875
 20
-2179.5546875
 10
2650.03125
 20
-2189.15625
 10
2650.03125
 20
-2198.7578125
 10
2650.03125
 20
-2208.359375
 10
2650.03125
 20
-2217.9609375
 10
2659.6328125
 20
-2217.9609375
 10
2669.234375
 20
-2217.9609375
 10
2678.8359375
 20
-2217.9609375
 10
2688.4375
 20
-2227.5625
 10
2688.4375
 20
-2237.1640625
 10
2688.4375
 20
-2246.765625
 10
2688.4375
 20
-2256.3671875
 10
2698.0390625
 20
-2256.3671875
 10
2707.640625
 20
-2256.3671875
 10
2717.2421875
 20
-2256.3671875
 10
2726.84375
 20
-2265.96875
 10
2726.84375
 20
-2275.5703125
 10
2726.84375
 20
-2285.171875
 10
2726.84375
 20
-2294.7734375
 10
2726.84375
 20
-2304.375
 10
2726.84375
 20
-2313.9765625
 10
2726.84375
 20
-2323.578125
 10
2726.84375
 20
-2333.1796875
 10
2736.4453125
 20
-2333.1796875
 10
2746.046875
 20
-2333.1796875
 10
2755.6484375
 20
-2333.1796875
 10
2765.25
 20
-2342.78125
 10
2765.25
 20
-2352.3828125
 10
2765.25
 20
-2361.984375
 10
2765.25
 20
-2371.5859375
 10
2765.25
 20
-2381.1875
 10
2765.25
 20
-2390.7890625
 10
2765.25
 20
-2400.390625
 10
2765.25
 20
-2409.9921875
 10
2765.25
 20
-2419.59375
 10
2765.25
 20
-2429.1953125
 10
2765.25
 20
-2438.796875
 10
2765.25
 20
-2448.3984375
 10
2765.25
 20
-2458.0
 10
2765.25
 20
-2467.6015625
 10
2765.25
 20
-2477.203125
 10
2765.25
 20
-2486.8046875
 10
2765.25
 20
-2496.40625
 10
2765.25
 20
-2506.0078125
 10
2765.25
 20
-2515.609375
 10
2765.25
 20
-2525.2109375
 10
2765.25
 20
-2534.8125
 10
2765.25
 20
-2544.4140625
 10
2765.25
 20
-2554.015625
 10
2765.25
 20
-2563.6171875
 10
2765.25
 20
-2573.21875
 10
2765.25
 20
-2582.8203125
 10
2765.25
 20
-2592.421875
 10
2765.25
 20
-2602.0234375
 10
2755.6484375
 20
-2611.625
 10
2746.046875
 20
-2611.625
 10
2736.4453125
 20
-2611.625
 10
2726.84375
 20
-2611.625
 10
2726.84375
 20
-2621.2265625
 10
2726.84375
 20
-2630.828125
 10
2726.84375
 20
-2640.4296875
 10
2717.2421875
 20
-2650.03125
 10
2707.640625
 20
-2650.03125
 10
2698.0390625
 20
-2650.03125
 10
2688.4375
 20
-2650.03125
 10
2688.4375
 20
-2659.6328125
 10
2688.4375
 20
-2669.234375
 10
2688.4375
 20
-2678.8359375
 10
2678.8359375
 20
-2688.4375
 10
2669.234375
 20
-2688.4375
 10
2659.6328125
 20
-2688.4375
 10
2650.03125
 20
-2688.4375
 10
2650.03125
 20
-2698.0390625
 10
2650.03125
 20
-2707.640625
 10
2650.03125
 20
-2717.2421875
 10
2640.4296875
 20
-2726.84375
 10
2630.828125
 20
-2726.84375
 10
2621.2265625
 20
-2726.84375
 10
2611.625
 20
-2726.84375
 10
2611.625
 20
-2736.4453125
 10
2611.625
 20
-2746.046875
 10
2611.625
 20
-2755.6484375
 10
2602.0234375
 20
-2765.25
 10
2592.421875
 20
-2765.25
 10
2582.8203125
 20
-2765.25
 10
2573.21875
 20
-2765.25
 10
2563.6171875
 20
-2765.25
 10
2554.015625
 20
-2765.25
 10
2544.4140625
 20
-2765.25
 10
2534.8125
 20
-2765.25
 10
2525.2109375
 20
-2765.25
 10
2515.609375
 20
-2765.25
 10
2506.0078125
 20
-2765.25
 10
2496.40625
 20
-2765.25
 10
2486.8046875
 20
-2765.25
 10
2477.203125
 20
-2765.25
 10
2467.6015625
 20
-2765.25
 10
2458.0
 20
-2765.25
 10
2448.3984375
 20
-2765.25
 10
2438.796875
 20
-2765.25
 10
2429.1953125
 20
-2765.25
 10
2419.59375
 20
-2765.25
 10
2409.9921875
 20
-2765.25
 10
2400.390625
 20
-2765.25
 10
2390.7890625
 20
-2765.25
 10
2381.1875
 20
-2765.25
 10
2371.5859375
 20
-2765.25
 10
2361.984375
 20
-2765.25
 10
2352.3828125
 20
-2765.25
 10
2342.78125
 20
-2765.25
 10
2333.1796875
 20
-2755.6484375
 10
2333.1796875
 20
-2746.046875
 10
2333.1796875
 20
-2736.4453125
 10
2333.1796875
 20
-2726.84375
 10
2323.578125
 20
-2726.84375
 10
2313.9765625
 20
-2726.84375
 10
2304.375
 20
-2726.84375
 10
2294.7734375
 20
-2726.84375
 10
2285.171875
 20
-2726.84375
 10
2275.5703125
 20
-2726.84375
 10
2265.96875
 20
-2726.84375
 10
2256.3671875
 20
-2717.2421875
 10
2256.3671875
 20
-2707.640625
 10
2256.3671875
 20
-2698.0390625
 10
2256.3671875
 20
-2688.4375
 10
2246.765625
 20
-2688.4375
 10
2237.1640625
 20
-2688.4375
 10
2227.5625
 20
-2688.4375
 10
2217.9609375
 20
-2678.8359375
 10
2217.9609375
 20
-2669.234375
 10
2217.9609375
 20
-2659.6328125
 10
2217.9609375
 20
-2650.03125
 10
2208.359375
 20
-2650.03125
 10
2198.7578125
 20
-2650.03125
 10
2189.15625
 20
-2650.03125
 10
2179.5546875
 20
-2640.4296875
 10
2179.5546875
 20
-2630.828125
 10
2179.5546875
 20
-2621.2265625
 10
2179.5546875
 20
-2611.625
 10
2179.5546875
 20
-2602.0234375
 10
2179.5546875
 20
-2592.421875
 10
2179.5546875
 20
-2582.8203125
 10
2179.5546875
 20
-2573.21875
 10
2169.953125
 20
-2573.21875
 10
2160.3515625
 20
-2573.21875
 10
2150.75
 20
-2573.21875
 10
2141.1484375
 20
-2563.6171875
 10
2141.1484375
 20
-2554.015625
 10
2141.1484375
 20
-2544.4140625
 10
2141.1484375
 20
-2534.8125
 10
2141.1484375
 20
-2525.2109375
 10
2141.1484375
 20
-2515.609375
 10
2141.1484375
 20
-2506.0078125
 10
2141.1484375
 20
-2496.40625
 10
2141.1484375
 20
-2486.8046875
 10
2141.1484375
 20
-2477.203125
 10
2141.1484375
 20
-2467.6015625
 10
2141.1484375
 20
-2458.0
 10
2141.1484375
 20
-2448.3984375
 10
2141.1484375
 20
-2438.796875
 10
2141.1484375
 20
-2429.1953125
 10
2141.1484375
 20
-2419.59375
 10
2141.1484375
 20
-2409.9921875
 10
2141.1484375
 20
-2400.390625
 10
2141.1484375
 20
-2390.7890625
 10
2141.1484375
 20
-2381.1875
 10
2141.1484375
 20
-2371.5859375
 10
2141.1484375
 20
-2361.984375
 10
2141.1484375
 20
-2352.3828125
 10
2141.1484375
 20
-2342.78125
 10
2150.75
 20
-2333.1796875
 10
2160.3515625
 20
-2333.1796875
 10
2169.953125
 20
-2333.1796875
 10
2179.5546875
 20
-2333.1796875
 10
2179.5546875
 20
-2323.578125
 10
2179.5546875
 20
-2313.9765625
 10
2179.5546875
 20
-2304.375
 10
2179.5546875
 20
-2294.7734375
 10
2179.5546875
 20
-2285.171875
 10
2179.5546875
 20
-2275.5703125
 10
2179.5546875
 20
-2265.96875
 10
2189.15625
 20
-2256.3671875
 10
2198.7578125
 20
-2256.3671875
 10
2208.359375
 20
-2256.3671875
 10
2217.9609375
 20
-2256.3671875
 10
2217.9609375
 20
-2246.765625
 10
2217.9609375
 20
-2237.1640625
 10
2217.9609375
 20
-2227.5625
 10
2227.5625
 20
-2217.9609375
 10
2237.1640625
 20
-2217.9609375
 10
2246.765625
 20
-2217.9609375
 10
2256.3671875
 20
-2217.9609375
 10
2256.3671875
 20
-2208.359375
 10
2256.3671875
 20
-2198.7578125
 10
2256.3671875
 20
-2189.15625
 10
2265.96875
 20
-2179.5546875
 10
2275.5703125
 20
-2179.5546875
 10
2285.171875
 20
-2179.5546875
 10
2294.7734375
 20
-2179.5546875
 10
2304.375
 20
-2179.5546875
 10
2313.9765625
 20
-2179.5546875
 10
2323.578125
 20
-2179.5546875
 10
2333.1796875
 20
-2179.5546875
 10
2333.1796875
 20
-2169.953125
 10
2333.1796875
 20
-2160.3515625
  0
ENDSEC
  0
SECTION
  2
OBJECTS
  0
DICTIONARY
  5
A
330
0
100
AcDbDictionary
280
0
281
1
  3
ACAD_COLOR
350
B
  3
ACAD_GROUP
350
C
  3
ACAD_LAYOUT
350
D
  3
ACAD_MATERIAL
350
E
  3
ACAD_MLEADERSTYLE
350
F
  3
ACAD_MLINESTYLE
350
10
  3
ACAD_PLOTSETTINGS
350
11
  3
ACAD_PLOTSTYLENAME
350
12
  3
ACAD_SCALELIST
350
14
  3
ACAD_TABLESTYLE
350
15
  3
ACAD_VISUALSTYLE
350
16
  3
EZDXF_META
350
2D
  0
DICTIONARY
  5
B
330
A
100
AcDbDictionary
280
0
281
1
  0
DICTIONARY
  5
C
330
A
100
AcDbDictionary
280
0
281
1
  0
DICTIONARY
  5
D
330
A
100
AcDbDictionary
280
0
281
1
  3
Model
350
1A
  3
Layout1
350
1E
  0
DICTIONARY
  5
E
330
A
100
AcDbDictionary
280
0
281
1
  3
ByBlock
350
1F
  3
ByLayer
350
20
  3
Global
350
21
  0
DICTIONARY
  5
F
330
A
100
AcDbDictionary
280
0
281
1
  3
Standard
350
2C
  0
DICTIONARY
  5
10
330
A
100
AcDbDictionary
280
0
281
1
  3
Standard
350
22
  0
DICTIONARY
  5
11
330
A
100
AcDbDictionary
280
0
281
1
  0
ACDBDICTIONARYWDFLT
  5
12
330
A
100
AcDbDictionary
280
0
281
1
  3
Normal
350
13
100
AcDbDictionaryWithDefault
340
13
  0
ACDBPLACEHOLDER
  5
13
330
12
  0
DICTIONARY
  5
14
330
A
100
AcDbDictionary
280
0
281
1
  0
DICTIONARY
  5
15
330
A
100
AcDbDictionary
280
0
281
1
  0
DICTIONARY
  5
16
330
A
100
AcDbDictionary
280
0
281
1
  0
LAYOUT
  5
1A
330
D
100
AcDbPlotSettings
  1

  2
Adobe PDF
  4
A3
  6

 40
7.5
 41
20.0
 42
7.5
 43
20.0
 44
420.0
 45
297.0
 46
0.0
 47
0.0
 48
0.0
 49
0.0
140
0.0
141
0.0
142
1.0
143
1.0
 70
1024
 72
1
 73
0
 74
5
  7

 75
16
 76
0
 77
2
 78
300
147
1.0
148
0.0
149
0.0
100
AcDbLayout
  1
Model
 70
1
 71
0
 10
0.0
 20
0.0
 11
420.0
 21
297.0
 12
0.0
 22
0.0
 32
0.0
 14
1e+20
 24
1e+20
 34
1e+20
 15
-1e+20
 25
-1e+20
 35
-1e+20
146
0.0
 13
0.0
 23
0.0
 33
0.0
 16
1.0
 26
0.0
 36
0.0
 17
0.0
 27
1.0
 37
0.0
 76
1
330
17
  0
LAYOUT
  5
1E
330
D
100
AcDbPlotSettings
  1

  2
Adobe PDF
  4
A3
  6

 40
7.5
 41
20.0
 42
7.5
 43
20.0
 44
420.0
 45
297.0
 46
0.0
 47
0.0
 48
0.0
 49
0.0
140
0.0
141
0.0
142
1.0
143
1.0
 70
0
 72
1
 73
0
 74
5
  7

 75
16
 76
0
 77
2
 78
300
147
1.0
148
0.0
149
0.0
100
AcDbLayout
  1
Layout1
 70
1
 71
1
 10
0.0
 20
0.0
 11
420.0
 21
297.0
 12
0.0
 22
0.0
 32
0.0
 14
1e+20
 24
1e+20
 34
1e+20
 15
-1e+20
 25
-1e+20
 35
-1e+20
146
0.0
 13
0.0
 23
0.0
 33
0.0
 16
1.0
 26
0.0
 36
0.0
 17
0.0
 27
1.0
 37
0.0
 76
1
330
1B
  0
MATERIAL
  5
1F
102
{ACAD_REACTORS
330
E
102
}
330
E
100
AcDbMaterial
  1
ByBlock
  2

 70
0
 40
1.0
 71
1
 41
1.0
 91
-1023410177
 42
1.0
 72
1
  3

 73
1
 74
1
 75
1
 44
0.5
 73
0
 45
1.0
 46
1.0
 77
1
  4

 78
1
 79
1
170
1
 48
1.0
171
1
  6

172
1
173
1
174
1
140
1.0
141
1.0
175
1
  7

176
1
177
1
178
1
143
1.0
179
1
  8

270
1
271
1
272
1
145
1.0
146
1.0
273
1
  9

274
1
275
1
276
1
 42
1.0
 72
1
  3

 73
1
 74
1
 75
1
 94
63
  0
MATERIAL
  5
20
102
{ACAD_REACTORS
330
E
102
}
330
E
100
AcDbMaterial
  1
ByLayer
  2

 70
0
 40
1.0
 71
1
 41
1.0
 91
-1023410177
 42
1.0
 72
1
  3

 73
1
 74
1
 75
1
 44
0.5
 73
0
 45
1.0
 46
1.0
 77
1
  4

 78
1
 79
1
170
1
 48
1.0
171
1
  6

172
1
173
1
174
1
140
1.0
141
1.0
175
1
  7

176
1
177
1
178
1
143
1.0
179
1
  8

270
1
271
1
272
1
145
1.0
146
1.0
273
1
  9

274
1
275
1
276
1
 42
1.0
 72
1
  3

 73
1
 74
1
 75
1
 94
63
  0
MATERIAL
  5
21
102
{ACAD_REACTORS
330
E
102
}
330
E
100
AcDbMaterial
  1
Global
  2

 70
0
 40
1.0
 71
1
 41
1.0
 91
-1023410177
 42
1.0
 72
1
  3

 73
1
 74
1
 75
1
 44
0.5
 73
0
 45
1.0
 46
1.0
 77
1
  4

 78
1
 79
1
170
1
 48
1.0
171
1
  6

172
1
173
1
174
1
140
1.0
141
1.0
175
1
  7

176
1
177
1
178
1
143
1.0
179
1
  8

270
1
271
1
272
1
145
1.0
146
1.0
273
1
  9

274
1
275
1
276
1
 42
1.0
 72
1
  3

 73
1
 74
1
 75
1
 94
63
  0
MLINESTYLE
  5
22
102
{ACAD_REACTORS
330
10
102
}
330
10
100
AcDbMlineStyle
  2
Standard
 70
0
  3

 62
256
 51
90.0
 52
90.0
 71
2
 49
0.5
 62
256
  6
BYLAYER
 49
-0.5
 62
256
  6
BYLAYER
  0
MLEADERSTYLE
  5
2C
102
{ACAD_REACTORS
330
F
102
}
330
F
100
AcDbMLeaderStyle
179
2
170
2
171
1
172
0
 90
2
 40
0.0
 41
0.0
173
1
 91
-1056964608
 92
-2
290
1
 42
2.0
291
1
 43
8.0
  3
Standard
 44
4.0
300

342
29
174
1
175
1
176
0
178
1
 93
-1056964608
 45
4.0
292
0
297
0
 46
4.0
 94
-1056964608
 47
1.0
 49
1.0
140
1.0
294
1
141
0.0
177
0
142
1.0
295
0
296
0
143
3.75
271
0
272
9
273
9
  0
DICTIONARY
  5
2D
330
A
100
AcDbDictionary
281
1
  3
CREATED_BY_EZDXF
350
2E
  3
WRITTEN_BY_EZDXF
350
37
  0
DICTIONARYVAR
  5
2E
330
2D
100
DictionaryVariables
280
0
  1
1.1.0 @ 2024-12-28T18:41:49.311138+00:00
  0
DICTIONARYVAR
  5
37
330
2D
100
DictionaryVariables
280
0
  1
1.1.0 @ 2024-12-28T18:41:49.318109+00:00
  0
ENDSEC
  0
EOF
