  0
SECTION
  2
HEADER
  9
$ACADVER
  1
AC1027
  9
$ACADMAINTVER
 70
105
  9
$DWGCODEPAGE
  3
ANSI_1252
  9
$LASTSAVEDBY
  1
ezdxf
  9
$REQUIREDVERSIONS
160
0
  9
$INSBASE
 10
0.0
 20
0.0
 30
0.0
  9
$EXTMIN
 10
1e+20
 20
1e+20
 30
1e+20
  9
$EXTMAX
 10
-1e+20
 20
-1e+20
 30
-1e+20
  9
$LIMMIN
 10
0.0
 20
0.0
  9
$LIMMAX
 10
420.0
 20
297.0
  9
$ORTHOMODE
 70
0
  9
$REGENMODE
 70
1
  9
$FILLMODE
 70
1
  9
$QTEXTMODE
 70
0
  9
$MIRRTEXT
 70
1
  9
$LTSCALE
 40
1.0
  9
$ATTMODE
 70
1
  9
$TEXTSIZE
 40
2.5
  9
$TRACEWID
 40
1.0
  9
$TEXTSTYLE
  7
Standard
  9
$CLAYER
  8
0
  9
$CELTYPE
  6
ByLayer
  9
$CECOLOR
 62
256
  9
$CELTSCALE
 40
1.0
  9
$DISPSILH
 70
0
  9
$DIMSCALE
 40
1.0
  9
$DIMASZ
 40
2.5
  9
$DIMEXO
 40
0.625
  9
$DIMDLI
 40
3.75
  9
$DIMRND
 40
0.0
  9
$DIMDLE
 40
0.0
  9
$DIMEXE
 40
1.25
  9
$DIMTP
 40
0.0
  9
$DIMTM
 40
0.0
  9
$DIMTXT
 40
2.5
  9
$DIMCEN
 40
2.5
  9
$DIMTSZ
 40
0.0
  9
$DIMTOL
 70
0
  9
$DIMLIM
 70
0
  9
$DIMTIH
 70
0
  9
$DIMTOH
 70
0
  9
$DIMSE1
 70
0
  9
$DIMSE2
 70
0
  9
$DIMTAD
 70
1
  9
$DIMZIN
 70
8
  9
$DIMBLK
  1

  9
$DIMASO
 70
1
  9
$DIMSHO
 70
1
  9
$DIMPOST
  1

  9
$DIMAPOST
  1

  9
$DIMALT
 70
0
  9
$DIMALTD
 70
3
  9
$DIMALTF
 40
0.03937007874
  9
$DIMLFAC
 40
1.0
  9
$DIMTOFL
 70
1
  9
$DIMTVP
 40
0.0
  9
$DIMTIX
 70
0
  9
$DIMSOXD
 70
0
  9
$DIMSAH
 70
0
  9
$DIMBLK1
  1

  9
$DIMBLK2
  1

  9
$DIMSTYLE
  2
ISO-25
  9
$DIMCLRD
 70
0
  9
$DIMCLRE
 70
0
  9
$DIMCLRT
 70
0
  9
$DIMTFAC
 40
1.0
  9
$DIMGAP
 40
0.625
  9
$DIMJUST
 70
0
  9
$DIMSD1
 70
0
  9
$DIMSD2
 70
0
  9
$DIMTOLJ
 70
0
  9
$DIMTZIN
 70
8
  9
$DIMALTZ
 70
0
  9
$DIMALTTZ
 70
0
  9
$DIMUPT
 70
0
  9
$DIMDEC
 70
2
  9
$DIMTDEC
 70
2
  9
$DIMALTU
 70
2
  9
$DIMALTTD
 70
3
  9
$DIMTXSTY
  7
Standard
  9
$DIMAUNIT
 70
0
  9
$DIMADEC
 70
0
  9
$DIMALTRND
 40
0.0
  9
$DIMAZIN
 70
0
  9
$DIMDSEP
 70
44
  9
$DIMATFIT
 70
3
  9
$DIMFRAC
 70
0
  9
$DIMLDRBLK
  1

  9
$DIMLUNIT
 70
2
  9
$DIMLWD
 70
-2
  9
$DIMLWE
 70
-2
  9
$DIMTMOVE
 70
0
  9
$DIMFXL
 40
1.0
  9
$DIMFXLON
 70
0
  9
$DIMJOGANG
 40
0.785398163397
  9
$DIMTFILL
 70
0
  9
$DIMTFILLCLR
 70
0
  9
$DIMARCSYM
 70
0
  9
$DIMLTYPE
  6

  9
$DIMLTEX1
  6

  9
$DIMLTEX2
  6

  9
$DIMTXTDIRECTION
 70
0
  9
$LUNITS
 70
2
  9
$LUPREC
 70
4
  9
$SKETCHINC
 40
1.0
  9
$FILLETRAD
 40
10.0
  9
$AUNITS
 70
0
  9
$AUPREC
 70
2
  9
$MENU
  1
.
  9
$ELEVATION
 40
0.0
  9
$PELEVATION
 40
0.0
  9
$THICKNESS
 40
0.0
  9
$LIMCHECK
 70
0
  9
$CHAMFERA
 40
0.0
  9
$CHAMFERB
 40
0.0
  9
$CHAMFERC
 40
0.0
  9
$CHAMFERD
 40
0.0
  9
$SKPOLY
 70
0
  9
$TDCREATE
 40
2460709.9345949073
  9
$TDUCREATE
 40
2458532.153996898
  9
$TDUPDATE
 40
2460709.9345949073
  9
$TDUUPDATE
 40
2458532.1544311
  9
$TDINDWG
 40
0.0
  9
$TDUSRTIMER
 40
0.0
  9
$USRTIMER
 70
1
  9
$ANGBASE
 50
0.0
  9
$ANGDIR
 70
0
  9
$PDMODE
 70
0
  9
$PDSIZE
 40
0.0
  9
$PLINEWID
 40
0.0
  9
$SPLFRAME
 70
0
  9
$SPLINETYPE
 70
6
  9
$SPLINESEGS
 70
8
  9
$HANDSEED
  5
39
  9
$SURFTAB1
 70
6
  9
$SURFTAB2
 70
6
  9
$SURFTYPE
 70
6
  9
$SURFU
 70
6
  9
$SURFV
 70
6
  9
$UCSBASE
  2

  9
$UCSNAME
  2

  9
$UCSORG
 10
0.0
 20
0.0
 30
0.0
  9
$UCSXDIR
 10
1.0
 20
0.0
 30
0.0
  9
$UCSYDIR
 10
0.0
 20
1.0
 30
0.0
  9
$UCSORTHOREF
  2

  9
$UCSORTHOVIEW
 70
0
  9
$UCSORGTOP
 10
0.0
 20
0.0
 30
0.0
  9
$UCSORGBOTTOM
 10
0.0
 20
0.0
 30
0.0
  9
$UCSORGLEFT
 10
0.0
 20
0.0
 30
0.0
  9
$UCSORGRIGHT
 10
0.0
 20
0.0
 30
0.0
  9
$UCSORGFRONT
 10
0.0
 20
0.0
 30
0.0
  9
$UCSORGBACK
 10
0.0
 20
0.0
 30
0.0
  9
$PUCSBASE
  2

  9
$PUCSNAME
  2

  9
$PUCSORG
 10
0.0
 20
0.0
 30
0.0
  9
$PUCSXDIR
 10
1.0
 20
0.0
 30
0.0
  9
$PUCSYDIR
 10
0.0
 20
1.0
 30
0.0
  9
$PUCSORTHOREF
  2

  9
$PUCSORTHOVIEW
 70
0
  9
$PUCSORGTOP
 10
0.0
 20
0.0
 30
0.0
  9
$PUCSORGBOTTOM
 10
0.0
 20
0.0
 30
0.0
  9
$PUCSORGLEFT
 10
0.0
 20
0.0
 30
0.0
  9
$PUCSORGRIGHT
 10
0.0
 20
0.0
 30
0.0
  9
$PUCSORGFRONT
 10
0.0
 20
0.0
 30
0.0
  9
$PUCSORGBACK
 10
0.0
 20
0.0
 30
0.0
  9
$USERI1
 70
0
  9
$USERI2
 70
0
  9
$USERI3
 70
0
  9
$USERI4
 70
0
  9
$USERI5
 70
0
  9
$USERR1
 40
0.0
  9
$USERR2
 40
0.0
  9
$USERR3
 40
0.0
  9
$USERR4
 40
0.0
  9
$USERR5
 40
0.0
  9
$WORLDVIEW
 70
1
  9
$SHADEDGE
 70
3
  9
$SHADEDIF
 70
70
  9
$TILEMODE
 70
1
  9
$MAXACTVP
 70
64
  9
$PINSBASE
 10
0.0
 20
0.0
 30
0.0
  9
$PLIMCHECK
 70
0
  9
$PEXTMIN
 10
1e+20
 20
1e+20
 30
1e+20
  9
$PEXTMAX
 10
-1e+20
 20
-1e+20
 30
-1e+20
  9
$PLIMMIN
 10
0.0
 20
0.0
  9
$PLIMMAX
 10
420.0
 20
297.0
  9
$UNITMODE
 70
0
  9
$VISRETAIN
 70
1
  9
$PLINEGEN
 70
0
  9
$PSLTSCALE
 70
1
  9
$TREEDEPTH
 70
3020
  9
$CMLSTYLE
  2
Standard
  9
$CMLJUST
 70
0
  9
$CMLSCALE
 40
20.0
  9
$PROXYGRAPHICS
 70
1
  9
$MEASUREMENT
 70
1
  9
$CELWEIGHT
370
-1
  9
$ENDCAPS
280
0
  9
$JOINSTYLE
280
0
  9
$LWDISPLAY
290
0
  9
$INSUNITS
 70
6
  9
$HYPERLINKBASE
  1

  9
$STYLESHEET
  1

  9
$XEDIT
290
1
  9
$CEPSNTYPE
380
0
  9
$PSTYLEMODE
290
1
  9
$FINGERPRINTGUID
  2
{A19E2E92-FFB8-49E3-B8EF-0F9195939D7F}
  9
$VERSIONGUID
  2
{674058DD-E054-497F-A535-F3A112D32847}
  9
$EXTNAMES
290
1
  9
$PSVPSCALE
 40
0.0
  9
$OLESTARTUP
290
0
  9
$SORTENTS
280
127
  9
$INDEXCTL
280
0
  9
$HIDETEXT
280
1
  9
$XCLIPFRAME
280
0
  9
$HALOGAP
280
0
  9
$OBSCOLOR
 70
257
  9
$OBSLTYPE
280
0
  9
$INTERSECTIONDISPLAY
280
0
  9
$INTERSECTIONCOLOR
 70
257
  9
$DIMASSOC
280
2
  9
$PROJECTNAME
  1

  9
$CAMERADISPLAY
290
0
  9
$LENSLENGTH
 40
50.0
  9
$CAMERAHEIGHT
 40
0.0
  9
$STEPSPERSEC
 40
24.0
  9
$STEPSIZE
 40
100.0
  9
$3DDWFPREC
 40
2.0
  9
$PSOLWIDTH
 40
0.005
  9
$PSOLHEIGHT
 40
0.08
  9
$LOFTANG1
 40
1.570796326795
  9
$LOFTANG2
 40
1.570796326795
  9
$LOFTMAG1
 40
0.0
  9
$LOFTMAG2
 40
0.0
  9
$LOFTPARAM
 70
7
  9
$LOFTNORMALS
280
1
  9
$LATITUDE
 40
37.795
  9
$LONGITUDE
 40
-122.394
  9
$NORTHDIRECTION
 40
0.0
  9
$TIMEZONE
 70
-8000
  9
$LIGHTGLYPHDISPLAY
280
1
  9
$TILEMODELIGHTSYNCH
280
1
  9
$CMATERIAL
347
20
  9
$SOLIDHIST
280
0
  9
$SHOWHIST
280
1
  9
$DWFFRAME
280
2
  9
$DGNFRAME
280
2
  9
$REALWORLDSCALE
290
1
  9
$INTERFERECOLOR
 62
256
  9
$CSHADOW
280
0
  9
$SHADOWPLANELOCATION
 40
0.0
  0
ENDSEC
  0
SECTION
  2
CLASSES
  0
CLASS
  1
ACDBDICTIONARYWDFLT
  2
AcDbDictionaryWithDefault
  3
ObjectDBX Classes
 90
0
 91
0
280
0
281
0
  0
CLASS
  1
SUN
  2
AcDbSun
  3
SCENEOE
 90
1153
 91
0
280
0
281
0
  0
CLASS
  1
VISUALSTYLE
  2
AcDbVisualStyle
  3
ObjectDBX Classes
 90
4095
 91
0
280
0
281
0
  0
CLASS
  1
MATERIAL
  2
AcDbMaterial
  3
ObjectDBX Classes
 90
1153
 91
0
280
0
281
0
  0
CLASS
  1
SCALE
  2
AcDbScale
  3
ObjectDBX Classes
 90
1153
 91
0
280
0
281
0
  0
CLASS
  1
TABLESTYLE
  2
AcDbTableStyle
  3
ObjectDBX Classes
 90
4095
 91
0
280
0
281
0
  0
CLASS
  1
MLEADERSTYLE
  2
AcDbMLeaderStyle
  3
ACDB_MLEADERSTYLE_CLASS
 90
4095
 91
0
280
0
281
0
  0
CLASS
  1
DICTIONARYVAR
  2
AcDbDictionaryVar
  3
ObjectDBX Classes
 90
0
 91
0
280
0
281
0
  0
CLASS
  1
CELLSTYLEMAP
  2
AcDbCellStyleMap
  3
ObjectDBX Classes
 90
1152
 91
0
280
0
281
0
  0
CLASS
  1
MENTALRAYRENDERSETTINGS
  2
AcDbMentalRayRenderSettings
  3
SCENEOE
 90
1024
 91
0
280
0
281
0
  0
CLASS
  1
ACDBDETAILVIEWSTYLE
  2
AcDbDetailViewStyle
  3
ObjectDBX Classes
 90
1025
 91
0
280
0
281
0
  0
CLASS
  1
ACDBSECTIONVIEWSTYLE
  2
AcDbSectionViewStyle
  3
ObjectDBX Classes
 90
1025
 91
0
280
0
281
0
  0
CLASS
  1
RASTERVARIABLES
  2
AcDbRasterVariables
  3
ISM
 90
0
 91
0
280
0
281
0
  0
CLASS
  1
LAYOUT
  2
AcDbLayout
  3
ObjectDBX Classes
 90
0
 91
0
280
0
281
0
  0
CLASS
  1
ACDBPLACEHOLDER
  2
AcDbPlaceHolder
  3
ObjectDBX Classes
 90
0
 91
0
280
0
281
0
  0
ENDSEC
  0
SECTION
  2
TABLES
  0
TABLE
  2
VPORT
  5
8
330
0
100
AcDbSymbolTable
 70
1
  0
VPORT
  5
23
330
8
100
AcDbSymbolTableRecord
100
AcDbViewportTableRecord
  2
*Active
 70
0
 10
0.0
 20
0.0
 11
1.0
 21
1.0
 12
0.0
 22
0.0
 13
0.0
 23
0.0
 14
0.5
 24
0.5
 15
0.5
 25
0.5
 16
0.0
 26
0.0
 36
1.0
 17
0.0
 27
0.0
 37
0.0
 40
1000.0
 41
1.34
 42
50.0
 43
0.0
 44
0.0
 50
0.0
 51
0.0
 71
0
 72
1000
 73
1
 74
3
 75
0
 76
0
 77
0
 78
0
281
0
 65
0
146
0.0
  0
ENDTAB
  0
TABLE
  2
LTYPE
  5
2
330
0
100
AcDbSymbolTable
 70
3
  0
LTYPE
  5
24
330
2
100
AcDbSymbolTableRecord
100
AcDbLinetypeTableRecord
  2
ByBlock
 70
0
  3

 72
65
 73
0
 40
0.0
  0
LTYPE
  5
25
330
2
100
AcDbSymbolTableRecord
100
AcDbLinetypeTableRecord
  2
ByLayer
 70
0
  3

 72
65
 73
0
 40
0.0
  0
LTYPE
  5
26
330
2
100
AcDbSymbolTableRecord
100
AcDbLinetypeTableRecord
  2
Continuous
 70
0
  3

 72
65
 73
0
 40
0.0
  0
ENDTAB
  0
TABLE
  2
LAYER
  5
1
330
0
100
AcDbSymbolTable
 70
5
  0
LAYER
  5
27
330
1
100
AcDbSymbolTableRecord
100
AcDbLayerTableRecord
  2
0
 70
0
 62
7
  6
Continuous
370
-3
390
13
347
21
  0
LAYER
  5
28
330
1
100
AcDbSymbolTableRecord
100
AcDbLayerTableRecord
  2
Defpoints
 70
0
 62
7
  6
Continuous
290
0
370
-3
390
13
347
21
  0
LAYER
  5
2F
330
1
100
AcDbSymbolTableRecord
100
AcDbLayerTableRecord
  2
conductor
 70
0
 62
1
  6
Continuous
370
-3
390
13
347
21
  0
LAYER
  5
30
330
1
100
AcDbSymbolTableRecord
100
AcDbLayerTableRecord
  2
dielectric
 70
0
 62
8
  6
Continuous
370
-3
390
13
347
21
  0
LAYER
  5
31
330
1
100
AcDbSymbolTableRecord
100
AcDbLayerTableRecord
  2
substrate
 70
0
 62
5
  6
Continuous
370
-3
390
13
347
21
  0
ENDTAB
  0
TABLE
  2
STYLE
  5
5
330
0
100
AcDbSymbolTable
 70
1
  0
STYLE
  5
29
330
5
100
AcDbSymbolTableRecord
100
AcDbTextStyleTableRecord
  2
Standard
 70
0
 40
0.0
 41
1.0
 50
0.0
 71
0
 42
2.5
  3
txt
  4

  0
ENDTAB
  0
TABLE
  2
VIEW
  5
7
330
0
100
AcDbSymbolTable
 70
0
  0
ENDTAB
  0
TABLE
  2
UCS
  5
6
330
0
100
AcDbSymbolTable
 70
0
  0
ENDTAB
  0
TABLE
  2
APPID
  5
3
330
0
100
AcDbSymbolTable
 70
3
  0
APPID
  5
2A
330
3
100
AcDbSymbolTableRecord
100
AcDbRegAppTableRecord
  2
ACAD
 70
0
  0
APPID
  5
36
330
3
100
AcDbSymbolTableRecord
100
AcDbRegAppTableRecord
  2
HATCHBACKGROUNDCOLOR
 70
0
  0
APPID
  5
37
330
3
100
AcDbSymbolTableRecord
100
AcDbRegAppTableRecord
  2
EZDXF
 70
0
  0
ENDTAB
  0
TABLE
  2
DIMSTYLE
  5
4
330
0
100
AcDbSymbolTable
 70
1
100
AcDbDimStyleTable
  0
DIMSTYLE
105
2B
330
4
100
AcDbSymbolTableRecord
100
AcDbDimStyleTableRecord
  2
Standard
 70
0
 40
1.0
 41
2.5
 42
0.625
 43
3.75
 44
1.25
 45
0.0
 46
0.0
 47
0.0
 48
0.0
 49
2.5
140
2.5
141
2.5
142
0.0
143
0.03937007874
144
1.0
145
0.0
146
1.0
147
0.625
148
0.0
 69
0
 70
0
 71
0
 72
0
 73
0
 74
0
 75
0
 76
0
 77
1
 78
8
 79
3
170
0
171
3
172
1
173
0
174
0
175
0
176
0
177
0
178
0
179
2
271
2
272
2
273
2
274
3
275
0
276
0
277
2
278
44
279
0
280
0
281
0
282
0
283
0
284
8
285
0
286
0
288
0
289
3
290
0
371
-2
372
-2
  0
ENDTAB
  0
TABLE
  2
BLOCK_RECORD
  5
9
330
0
100
AcDbSymbolTable
 70
2
  0
BLOCK_RECORD
  5
17
330
9
100
AcDbSymbolTableRecord
100
AcDbBlockTableRecord
  2
*Model_Space
340
1A
 70
0
280
1
281
0
  0
BLOCK_RECORD
  5
1B
330
9
100
AcDbSymbolTableRecord
100
AcDbBlockTableRecord
  2
*Paper_Space
340
1E
 70
0
280
1
281
0
  0
ENDTAB
  0
ENDSEC
  0
SECTION
  2
BLOCKS
  0
BLOCK
  5
18
330
17
100
AcDbEntity
  8
0
100
AcDbBlockBegin
  2
*Model_Space
 70
0
 10
0.0
 20
0.0
 30
0.0
  3
*Model_Space
  1

  0
ENDBLK
  5
19
330
17
100
AcDbEntity
  8
0
100
AcDbBlockEnd
  0
BLOCK
  5
1C
330
1B
100
AcDbEntity
  8
0
100
AcDbBlockBegin
  2
*Paper_Space
 70
0
 10
0.0
 20
0.0
 30
0.0
  3
*Paper_Space
  1

  0
ENDBLK
  5
1D
330
1B
100
AcDbEntity
  8
0
100
AcDbBlockEnd
  0
ENDSEC
  0
SECTION
  2
ENTITIES
  0
LWPOLYLINE
  5
32
330
17
100
AcDbEntity
  8
conductor
100
AcDbPolyline
 90
255
 70
1
 43
0.5
 10
2371.103515625
 20
-2044.716796875
 10
2361.50390625
 20
-2054.31640625
 10
2351.904296875
 20
-2054.31640625
 10
2342.3046875
 20
-2054.31640625
 10
2332.705078125
 20
-2063.916015625
 10
2323.10546875
 20
-2063.916015625
 10
2313.505859375
 20
-2063.916015625
 10
2303.90625
 20
-2063.916015625
 10
2294.306640625
 20
-2063.916015625
 10
2294.306640625
 20
-2073.515625
 10
2284.70703125
 20
-2083.115234375
 10
2275.107421875
 20
-2083.115234375
 10
2265.5078125
 20
-2083.115234375
 10
2255.908203125
 20
-2092.71484375
 10
2246.30859375
 20
-2102.314453125
 10
2236.708984375
 20
-2102.314453125
 10
2227.109375
 20
-2102.314453125
 10
2236.708984375
 20
-2111.9140625
 10
2227.109375
 20
-2121.513671875
 10
2217.509765625
 20
-2121.513671875
 10
2207.91015625
 20
-2121.513671875
 10
2198.310546875
 20
-2131.11328125
 10
2188.7109375
 20
-2131.11328125
 10
2179.111328125
 20
-2140.712890625
 10
2179.111328125
 20
-2150.3125
 10
2169.51171875
 20
-2159.912109375
 10
2159.912109375
 20
-2159.912109375
 10
2159.912109375
 20
-2169.51171875
 10
2150.3125
 20
-2179.111328125
 10
2140.712890625
 20
-2188.7109375
 10
2131.11328125
 20
-2198.310546875
 10
2121.513671875
 20
-2207.91015625
 10
2111.9140625
 20
-2217.509765625
 10
2111.9140625
 20
-2227.109375
 10
2102.314453125
 20
-2236.708984375
 10
2102.314453125
 20
-2246.30859375
 10
2092.71484375
 20
-2255.908203125
 10
2092.71484375
 20
-2265.5078125
 10
2092.71484375
 20
-2275.107421875
 10
2083.115234375
 20
-2284.70703125
 10
2073.515625
 20
-2284.70703125
 10
2073.515625
 20
-2294.306640625
 10
2073.515625
 20
-2303.90625
 10
2073.515625
 20
-2313.505859375
 10
2063.916015625
 20
-2323.10546875
 10
2063.916015625
 20
-2332.705078125
 10
2063.916015625
 20
-2342.3046875
 10
2063.916015625
 20
-2351.904296875
 10
2054.31640625
 20
-2361.50390625
 10
2054.31640625
 20
-2371.103515625
 10
2054.31640625
 20
-2380.703125
 10
2054.31640625
 20
-2390.302734375
 10
2054.31640625
 20
-2399.90234375
 10
2044.716796875
 20
-2409.501953125
 10
2054.31640625
 20
-2419.1015625
 10
2054.31640625
 20
-2428.701171875
 10
2044.716796875
 20
-2438.30078125
 10
2044.716796875
 20
-2447.900390625
 10
2044.716796875
 20
-2457.5
 10
2044.716796875
 20
-2467.099609375
 10
2044.716796875
 20
-2476.69921875
 10
2044.716796875
 20
-2486.298828125
 10
2044.716796875
 20
-2495.8984375
 10
2054.31640625
 20
-2505.498046875
 10
2044.716796875
 20
-2515.09765625
 10
2054.31640625
 20
-2524.697265625
 10
2054.31640625
 20
-2534.296875
 10
2063.916015625
 20
-2543.896484375
 10
2063.916015625
 20
-2553.49609375
 10
2063.916015625
 20
-2563.095703125
 10
2063.916015625
 20
-2572.6953125
 10
2063.916015625
 20
-2582.294921875
 10
2073.515625
 20
-2591.89453125
 10
2073.515625
 20
-2601.494140625
 10
2073.515625
 20
-2611.09375
 10
2083.115234375
 20
-2620.693359375
 10
2083.115234375
 20
-2630.29296875
 10
2083.115234375
 20
-2639.892578125
 10
2092.71484375
 20
-2649.4921875
 10
2102.314453125
 20
-2659.091796875
 10
2102.314453125
 20
-2668.69140625
 10
2111.9140625
 20
-2678.291015625
 10
2121.513671875
 20
-2687.890625
 10
2121.513671875
 20
-2697.490234375
 10
2131.11328125
 20
-2707.08984375
 10
2140.712890625
 20
-2716.689453125
 10
2150.3125
 20
-2726.2890625
 10
2150.3125
 20
-2735.888671875
 10
2159.912109375
 20
-2745.48828125
 10
2169.51171875
 20
-2755.087890625
 10
2179.111328125
 20
-2755.087890625
 10
2188.7109375
 20
-2764.6875
 10
2198.310546875
 20
-2774.287109375
 10
2207.91015625
 20
-2783.88671875
 10
2217.509765625
 20
-2783.88671875
 10
2227.109375
 20
-2793.486328125
 10
2236.708984375
 20
-2803.0859375
 10
2246.30859375
 20
-2803.0859375
 10
2255.908203125
 20
-2812.685546875
 10
2265.5078125
 20
-2812.685546875
 10
2275.107421875
 20
-2822.28515625
 10
2284.70703125
 20
-2812.685546875
 10
2294.306640625
 20
-2812.685546875
 10
2303.90625
 20
-2822.28515625
 10
2303.90625
 20
-2831.884765625
 10
2313.505859375
 20
-2831.884765625
 10
2323.10546875
 20
-2841.484375
 10
2332.705078125
 20
-2841.484375
 10
2342.3046875
 20
-2851.083984375
 10
2351.904296875
 20
-2851.083984375
 10
2361.50390625
 20
-2851.083984375
 10
2371.103515625
 20
-2851.083984375
 10
2380.703125
 20
-2851.083984375
 10
2390.302734375
 20
-2851.083984375
 10
2399.90234375
 20
-2860.68359375
 10
2409.501953125
 20
-2860.68359375
 10
2419.1015625
 20
-2860.68359375
 10
2428.701171875
 20
-2860.68359375
 10
2438.30078125
 20
-2860.68359375
 10
2447.900390625
 20
-2860.68359375
 10
2457.5
 20
-2860.68359375
 10
2467.099609375
 20
-2860.68359375
 10
2476.69921875
 20
-2860.68359375
 10
2486.298828125
 20
-2860.68359375
 10
2495.8984375
 20
-2860.68359375
 10
2505.498046875
 20
-2860.68359375
 10
2515.09765625
 20
-2851.083984375
 10
2524.697265625
 20
-2851.083984375
 10
2534.296875
 20
-2851.083984375
 10
2543.896484375
 20
-2851.083984375
 10
2553.49609375
 20
-2851.083984375
 10
2563.095703125
 20
-2841.484375
 10
2572.6953125
 20
-2841.484375
 10
2582.294921875
 20
-2841.484375
 10
2591.89453125
 20
-2841.484375
 10
2601.494140625
 20
-2831.884765625
 10
2611.09375
 20
-2831.884765625
 10
2620.693359375
 20
-2831.884765625
 10
2630.29296875
 20
-2831.884765625
 10
2639.892578125
 20
-2822.28515625
 10
2649.4921875
 20
-2812.685546875
 10
2659.091796875
 20
-2812.685546875
 10
2668.69140625
 20
-2803.0859375
 10
2678.291015625
 20
-2803.0859375
 10
2687.890625
 20
-2793.486328125
 10
2697.490234375
 20
-2783.88671875
 10
2707.08984375
 20
-2774.287109375
 10
2716.689453125
 20
-2774.287109375
 10
2726.2890625
 20
-2764.6875
 10
2735.888671875
 20
-2755.087890625
 10
2745.48828125
 20
-2745.48828125
 10
2755.087890625
 20
-2735.888671875
 10
2764.6875
 20
-2726.2890625
 10
2774.287109375
 20
-2716.689453125
 10
2783.88671875
 20
-2707.08984375
 10
2793.486328125
 20
-2697.490234375
 10
2793.486328125
 20
-2687.890625
 10
2803.0859375
 20
-2678.291015625
 10
2812.685546875
 20
-2678.291015625
 10
2812.685546875
 20
-2668.69140625
 10
2822.28515625
 20
-2659.091796875
 10
2812.685546875
 20
-2649.4921875
 10
2822.28515625
 20
-2639.892578125
 10
2831.884765625
 20
-2639.892578125
 10
2822.28515625
 20
-2630.29296875
 10
2831.884765625
 20
-2620.693359375
 10
2831.884765625
 20
-2611.09375
 10
2841.484375
 20
-2601.494140625
 10
2841.484375
 20
-2591.89453125
 10
2851.083984375
 20
-2582.294921875
 10
2851.083984375
 20
-2572.6953125
 10
2851.083984375
 20
-2563.095703125
 10
2851.083984375
 20
-2553.49609375
 10
2860.68359375
 20
-2543.896484375
 10
2860.68359375
 20
-2534.296875
 10
2860.68359375
 20
-2524.697265625
 10
2860.68359375
 20
-2515.09765625
 10
2860.68359375
 20
-2505.498046875
 10
2860.68359375
 20
-2495.8984375
 10
2870.283203125
 20
-2486.298828125
 10
2870.283203125
 20
-2476.69921875
 10
2870.283203125
 20
-2467.099609375
 10
2870.283203125
 20
-2457.5
 10
2870.283203125
 20
-2447.900390625
 10
2870.283203125
 20
-2438.30078125
 10
2860.68359375
 20
-2428.701171875
 10
2860.68359375
 20
-2419.1015625
 10
2860.68359375
 20
-2409.501953125
 10
2860.68359375
 20
-2399.90234375
 10
2860.68359375
 20
-2390.302734375
 10
2851.083984375
 20
-2380.703125
 10
2851.083984375
 20
-2371.103515625
 10
2851.083984375
 20
-2361.50390625
 10
2851.083984375
 20
-2351.904296875
 10
2841.484375
 20
-2342.3046875
 10
2841.484375
 20
-2332.705078125
 10
2841.484375
 20
-2323.10546875
 10
2831.884765625
 20
-2313.505859375
 10
2831.884765625
 20
-2303.90625
 10
2822.28515625
 20
-2294.306640625
 10
2822.28515625
 20
-2284.70703125
 10
2822.28515625
 20
-2275.107421875
 10
2812.685546875
 20
-2265.5078125
 10
2812.685546875
 20
-2255.908203125
 10
2803.0859375
 20
-2246.30859375
 10
2803.0859375
 20
-2236.708984375
 10
2793.486328125
 20
-2227.109375
 10
2793.486328125
 20
-2217.509765625
 10
2783.88671875
 20
-2207.91015625
 10
2774.287109375
 20
-2198.310546875
 10
2764.6875
 20
-2198.310546875
 10
2755.087890625
 20
-2188.7109375
 10
2764.6875
 20
-2179.111328125
 10
2755.087890625
 20
-2179.111328125
 10
2745.48828125
 20
-2169.51171875
 10
2745.48828125
 20
-2159.912109375
 10
2735.888671875
 20
-2159.912109375
 10
2726.2890625
 20
-2150.3125
 10
2726.2890625
 20
-2140.712890625
 10
2716.689453125
 20
-2131.11328125
 10
2707.08984375
 20
-2131.11328125
 10
2697.490234375
 20
-2121.513671875
 10
2687.890625
 20
-2121.513671875
 10
2678.291015625
 20
-2111.9140625
 10
2668.69140625
 20
-2102.314453125
 10
2659.091796875
 20
-2092.71484375
 10
2649.4921875
 20
-2092.71484375
 10
2639.892578125
 20
-2092.71484375
 10
2630.29296875
 20
-2083.115234375
 10
2620.693359375
 20
-2083.115234375
 10
2611.09375
 20
-2083.115234375
 10
2601.494140625
 20
-2073.515625
 10
2591.89453125
 20
-2063.916015625
 10
2582.294921875
 20
-2063.916015625
 10
2572.6953125
 20
-2063.916015625
 10
2563.095703125
 20
-2054.31640625
 10
2553.49609375
 20
-2054.31640625
 10
2543.896484375
 20
-2054.31640625
 10
2534.296875
 20
-2044.716796875
 10
2524.697265625
 20
-2054.31640625
 10
2515.09765625
 20
-2044.716796875
 10
2505.498046875
 20
-2044.716796875
 10
2495.8984375
 20
-2044.716796875
 10
2486.298828125
 20
-2044.716796875
 10
2476.69921875
 20
-2044.716796875
 10
2467.099609375
 20
-2054.31640625
 10
2457.5
 20
-2044.716796875
 10
2447.900390625
 20
-2054.31640625
 10
2438.30078125
 20
-2054.31640625
 10
2428.701171875
 20
-2054.31640625
 10
2419.1015625
 20
-2044.716796875
 10
2409.501953125
 20
-2044.716796875
 10
2399.90234375
 20
-2054.31640625
 10
2390.302734375
 20
-2054.31640625
 10
2380.703125
 20
-2044.716796875
  0
LWPOLYLINE
  5
33
330
17
100
AcDbEntity
  8
substrate
100
AcDbPolyline
 90
2044
 70
1
 43
0.5
 10
0.0
 20
-0.0
 10
0.0
 20
-9.599609375
 10
0.0
 20
-19.19921875
 10
0.0
 20
-28.798828125
 10
0.0
 20
-38.3984375
 10
0.0
 20
-47.998046875
 10
0.0
 20
-57.59765625
 10
0.0
 20
-67.197265625
 10
0.0
 20
-76.796875
 10
0.0
 20
-86.396484375
 10
0.0
 20
-95.99609375
 10
0.0
 20
-105.595703125
 10
0.0
 20
-115.1953125
 10
0.0
 20
-124.794921875
 10
0.0
 20
-134.39453125
 10
0.0
 20
-143.994140625
 10
0.0
 20
-153.59375
 10
0.0
 20
-163.193359375
 10
0.0
 20
-172.79296875
 10
0.0
 20
-182.392578125
 10
0.0
 20
-191.9921875
 10
0.0
 20
-201.591796875
 10
0.0
 20
-211.19140625
 10
0.0
 20
-220.791015625
 10
0.0
 20
-230.390625
 10
0.0
 20
-239.990234375
 10
0.0
 20
-249.58984375
 10
0.0
 20
-259.189453125
 10
0.0
 20
-268.7890625
 10
0.0
 20
-278.388671875
 10
0.0
 20
-287.98828125
 10
0.0
 20
-297.587890625
 10
0.0
 20
-307.1875
 10
0.0
 20
-316.787109375
 10
0.0
 20
-326.38671875
 10
0.0
 20
-335.986328125
 10
0.0
 20
-345.5859375
 10
0.0
 20
-355.185546875
 10
0.0
 20
-364.78515625
 10
0.0
 20
-374.384765625
 10
0.0
 20
-383.984375
 10
0.0
 20
-393.583984375
 10
0.0
 20
-403.18359375
 10
0.0
 20
-412.783203125
 10
0.0
 20
-422.3828125
 10
0.0
 20
-431.982421875
 10
0.0
 20
-441.58203125
 10
0.0
 20
-451.181640625
 10
0.0
 20
-460.78125
 10
0.0
 20
-470.380859375
 10
0.0
 20
-479.98046875
 10
0.0
 20
-489.580078125
 10
0.0
 20
-499.1796875
 10
0.0
 20
-508.779296875
 10
0.0
 20
-518.37890625
 10
0.0
 20
-527.978515625
 10
0.0
 20
-537.578125
 10
0.0
 20
-547.177734375
 10
0.0
 20
-556.77734375
 10
0.0
 20
-566.376953125
 10
0.0
 20
-575.9765625
 10
0.0
 20
-585.576171875
 10
0.0
 20
-595.17578125
 10
0.0
 20
-604.775390625
 10
0.0
 20
-614.375
 10
0.0
 20
-623.974609375
 10
0.0
 20
-633.57421875
 10
0.0
 20
-643.173828125
 10
0.0
 20
-652.7734375
 10
0.0
 20
-662.373046875
 10
0.0
 20
-671.97265625
 10
0.0
 20
-681.572265625
 10
0.0
 20
-691.171875
 10
0.0
 20
-700.771484375
 10
0.0
 20
-710.37109375
 10
0.0
 20
-719.970703125
 10
0.0
 20
-729.5703125
 10
0.0
 20
-739.169921875
 10
0.0
 20
-748.76953125
 10
0.0
 20
-758.369140625
 10
0.0
 20
-767.96875
 10
0.0
 20
-777.568359375
 10
0.0
 20
-787.16796875
 10
0.0
 20
-796.767578125
 10
0.0
 20
-806.3671875
 10
0.0
 20
-815.966796875
 10
0.0
 20
-825.56640625
 10
0.0
 20
-835.166015625
 10
0.0
 20
-844.765625
 10
0.0
 20
-854.365234375
 10
0.0
 20
-863.96484375
 10
0.0
 20
-873.564453125
 10
0.0
 20
-883.1640625
 10
0.0
 20
-892.763671875
 10
0.0
 20
-902.36328125
 10
0.0
 20
-911.962890625
 10
0.0
 20
-921.5625
 10
0.0
 20
-931.162109375
 10
0.0
 20
-940.76171875
 10
0.0
 20
-950.361328125
 10
0.0
 20
-959.9609375
 10
0.0
 20
-969.560546875
 10
0.0
 20
-979.16015625
 10
0.0
 20
-988.759765625
 10
0.0
 20
-998.359375
 10
0.0
 20
-1007.958984375
 10
0.0
 20
-1017.55859375
 10
0.0
 20
-1027.158203125
 10
0.0
 20
-1036.7578125
 10
0.0
 20
-1046.357421875
 10
0.0
 20
-1055.95703125
 10
0.0
 20
-1065.556640625
 10
0.0
 20
-1075.15625
 10
0.0
 20
-1084.755859375
 10
0.0
 20
-1094.35546875
 10
0.0
 20
-1103.955078125
 10
0.0
 20
-1113.5546875
 10
0.0
 20
-1123.154296875
 10
0.0
 20
-1132.75390625
 10
0.0
 20
-1142.353515625
 10
0.0
 20
-1151.953125
 10
0.0
 20
-1161.552734375
 10
0.0
 20
-1171.15234375
 10
0.0
 20
-1180.751953125
 10
0.0
 20
-1190.3515625
 10
0.0
 20
-1199.951171875
 10
0.0
 20
-1209.55078125
 10
0.0
 20
-1219.150390625
 10
0.0
 20
-1228.75
 10
0.0
 20
-1238.349609375
 10
0.0
 20
-1247.94921875
 10
0.0
 20
-1257.548828125
 10
0.0
 20
-1267.1484375
 10
0.0
 20
-1276.748046875
 10
0.0
 20
-1286.34765625
 10
0.0
 20
-1295.947265625
 10
0.0
 20
-1305.546875
 10
0.0
 20
-1315.146484375
 10
0.0
 20
-1324.74609375
 10
0.0
 20
-1334.345703125
 10
0.0
 20
-1343.9453125
 10
0.0
 20
-1353.544921875
 10
0.0
 20
-1363.14453125
 10
0.0
 20
-1372.744140625
 10
0.0
 20
-1382.34375
 10
0.0
 20
-1391.943359375
 10
0.0
 20
-1401.54296875
 10
0.0
 20
-1411.142578125
 10
0.0
 20
-1420.7421875
 10
0.0
 20
-1430.341796875
 10
0.0
 20
-1439.94140625
 10
0.0
 20
-1449.541015625
 10
0.0
 20
-1459.140625
 10
0.0
 20
-1468.740234375
 10
0.0
 20
-1478.33984375
 10
0.0
 20
-1487.939453125
 10
0.0
 20
-1497.5390625
 10
0.0
 20
-1507.138671875
 10
0.0
 20
-1516.73828125
 10
0.0
 20
-1526.337890625
 10
0.0
 20
-1535.9375
 10
0.0
 20
-1545.537109375
 10
0.0
 20
-1555.13671875
 10
0.0
 20
-1564.736328125
 10
0.0
 20
-1574.3359375
 10
0.0
 20
-1583.935546875
 10
0.0
 20
-1593.53515625
 10
0.0
 20
-1603.134765625
 10
0.0
 20
-1612.734375
 10
0.0
 20
-1622.333984375
 10
0.0
 20
-1631.93359375
 10
0.0
 20
-1641.533203125
 10
0.0
 20
-1651.1328125
 10
0.0
 20
-1660.732421875
 10
0.0
 20
-1670.33203125
 10
0.0
 20
-1679.931640625
 10
0.0
 20
-1689.53125
 10
0.0
 20
-1699.130859375
 10
0.0
 20
-1708.73046875
 10
0.0
 20
-1718.330078125
 10
0.0
 20
-1727.9296875
 10
0.0
 20
-1737.529296875
 10
0.0
 20
-1747.12890625
 10
0.0
 20
-1756.728515625
 10
0.0
 20
-1766.328125
 10
0.0
 20
-1775.927734375
 10
0.0
 20
-1785.52734375
 10
0.0
 20
-1795.126953125
 10
0.0
 20
-1804.7265625
 10
0.0
 20
-1814.326171875
 10
0.0
 20
-1823.92578125
 10
0.0
 20
-1833.525390625
 10
0.0
 20
-1843.125
 10
0.0
 20
-1852.724609375
 10
0.0
 20
-1862.32421875
 10
0.0
 20
-1871.923828125
 10
0.0
 20
-1881.5234375
 10
0.0
 20
-1891.123046875
 10
0.0
 20
-1900.72265625
 10
0.0
 20
-1910.322265625
 10
0.0
 20
-1919.921875
 10
0.0
 20
-1929.521484375
 10
0.0
 20
-1939.12109375
 10
0.0
 20
-1948.720703125
 10
0.0
 20
-1958.3203125
 10
0.0
 20
-1967.919921875
 10
0.0
 20
-1977.51953125
 10
0.0
 20
-1987.119140625
 10
0.0
 20
-1996.71875
 10
0.0
 20
-2006.318359375
 10
0.0
 20
-2015.91796875
 10
0.0
 20
-2025.517578125
 10
0.0
 20
-2035.1171875
 10
0.0
 20
-2044.716796875
 10
0.0
 20
-2054.31640625
 10
0.0
 20
-2063.916015625
 10
0.0
 20
-2073.515625
 10
0.0
 20
-2083.115234375
 10
0.0
 20
-2092.71484375
 10
0.0
 20
-2102.314453125
 10
0.0
 20
-2111.9140625
 10
0.0
 20
-2121.513671875
 10
0.0
 20
-2131.11328125
 10
0.0
 20
-2140.712890625
 10
0.0
 20
-2150.3125
 10
0.0
 20
-2159.912109375
 10
0.0
 20
-2169.51171875
 10
0.0
 20
-2179.111328125
 10
0.0
 20
-2188.7109375
 10
0.0
 20
-2198.310546875
 10
0.0
 20
-2207.91015625
 10
0.0
 20
-2217.509765625
 10
0.0
 20
-2227.109375
 10
0.0
 20
-2236.708984375
 10
0.0
 20
-2246.30859375
 10
0.0
 20
-2255.908203125
 10
0.0
 20
-2265.5078125
 10
0.0
 20
-2275.107421875
 10
0.0
 20
-2284.70703125
 10
0.0
 20
-2294.306640625
 10
0.0
 20
-2303.90625
 10
0.0
 20
-2313.505859375
 10
0.0
 20
-2323.10546875
 10
0.0
 20
-2332.705078125
 10
0.0
 20
-2342.3046875
 10
0.0
 20
-2351.904296875
 10
0.0
 20
-2361.50390625
 10
0.0
 20
-2371.103515625
 10
0.0
 20
-2380.703125
 10
0.0
 20
-2390.302734375
 10
0.0
 20
-2399.90234375
 10
0.0
 20
-2409.501953125
 10
0.0
 20
-2419.1015625
 10
0.0
 20
-2428.701171875
 10
0.0
 20
-2438.30078125
 10
0.0
 20
-2447.900390625
 10
0.0
 20
-2457.5
 10
0.0
 20
-2467.099609375
 10
0.0
 20
-2476.69921875
 10
0.0
 20
-2486.298828125
 10
0.0
 20
-2495.8984375
 10
0.0
 20
-2505.498046875
 10
0.0
 20
-2515.09765625
 10
0.0
 20
-2524.697265625
 10
0.0
 20
-2534.296875
 10
0.0
 20
-2543.896484375
 10
0.0
 20
-2553.49609375
 10
0.0
 20
-2563.095703125
 10
0.0
 20
-2572.6953125
 10
0.0
 20
-2582.294921875
 10
0.0
 20
-2591.89453125
 10
0.0
 20
-2601.494140625
 10
0.0
 20
-2611.09375
 10
0.0
 20
-2620.693359375
 10
0.0
 20
-2630.29296875
 10
0.0
 20
-2639.892578125
 10
0.0
 20
-2649.4921875
 10
0.0
 20
-2659.091796875
 10
0.0
 20
-2668.69140625
 10
0.0
 20
-2678.291015625
 10
0.0
 20
-2687.890625
 10
0.0
 20
-2697.490234375
 10
0.0
 20
-2707.08984375
 10
0.0
 20
-2716.689453125
 10
0.0
 20
-2726.2890625
 10
0.0
 20
-2735.888671875
 10
0.0
 20
-2745.48828125
 10
0.0
 20
-2755.087890625
 10
0.0
 20
-2764.6875
 10
0.0
 20
-2774.287109375
 10
0.0
 20
-2783.88671875
 10
0.0
 20
-2793.486328125
 10
0.0
 20
-2803.0859375
 10
0.0
 20
-2812.685546875
 10
0.0
 20
-2822.28515625
 10
0.0
 20
-2831.884765625
 10
0.0
 20
-2841.484375
 10
0.0
 20
-2851.083984375
 10
0.0
 20
-2860.68359375
 10
0.0
 20
-2870.283203125
 10
0.0
 20
-2879.8828125
 10
0.0
 20
-2889.482421875
 10
0.0
 20
-2899.08203125
 10
0.0
 20
-2908.681640625
 10
0.0
 20
-2918.28125
 10
0.0
 20
-2927.880859375
 10
0.0
 20
-2937.48046875
 10
0.0
 20
-2947.080078125
 10
0.0
 20
-2956.6796875
 10
0.0
 20
-2966.279296875
 10
0.0
 20
-2975.87890625
 10
0.0
 20
-2985.478515625
 10
0.0
 20
-2995.078125
 10
0.0
 20
-3004.677734375
 10
0.0
 20
-3014.27734375
 10
0.0
 20
-3023.876953125
 10
0.0
 20
-3033.4765625
 10
0.0
 20
-3043.076171875
 10
0.0
 20
-3052.67578125
 10
0.0
 20
-3062.275390625
 10
0.0
 20
-3071.875
 10
0.0
 20
-3081.474609375
 10
0.0
 20
-3091.07421875
 10
0.0
 20
-3100.673828125
 10
0.0
 20
-3110.2734375
 10
0.0
 20
-3119.873046875
 10
0.0
 20
-3129.47265625
 10
0.0
 20
-3139.072265625
 10
0.0
 20
-3148.671875
 10
0.0
 20
-3158.271484375
 10
0.0
 20
-3167.87109375
 10
0.0
 20
-3177.470703125
 10
0.0
 20
-3187.0703125
 10
0.0
 20
-3196.669921875
 10
0.0
 20
-3206.26953125
 10
0.0
 20
-3215.869140625
 10
0.0
 20
-3225.46875
 10
0.0
 20
-3235.068359375
 10
0.0
 20
-3244.66796875
 10
0.0
 20
-3254.267578125
 10
0.0
 20
-3263.8671875
 10
0.0
 20
-3273.466796875
 10
0.0
 20
-3283.06640625
 10
0.0
 20
-3292.666015625
 10
0.0
 20
-3302.265625
 10
0.0
 20
-3311.865234375
 10
0.0
 20
-3321.46484375
 10
0.0
 20
-3331.064453125
 10
0.0
 20
-3340.6640625
 10
0.0
 20
-3350.263671875
 10
0.0
 20
-3359.86328125
 10
0.0
 20
-3369.462890625
 10
0.0
 20
-3379.0625
 10
0.0
 20
-3388.662109375
 10
0.0
 20
-3398.26171875
 10
0.0
 20
-3407.861328125
 10
0.0
 20
-3417.4609375
 10
0.0
 20
-3427.060546875
 10
0.0
 20
-3436.66015625
 10
0.0
 20
-3446.259765625
 10
0.0
 20
-3455.859375
 10
0.0
 20
-3465.458984375
 10
0.0
 20
-3475.05859375
 10
0.0
 20
-3484.658203125
 10
0.0
 20
-3494.2578125
 10
0.0
 20
-3503.857421875
 10
0.0
 20
-3513.45703125
 10
0.0
 20
-3523.056640625
 10
0.0
 20
-3532.65625
 10
0.0
 20
-3542.255859375
 10
0.0
 20
-3551.85546875
 10
0.0
 20
-3561.455078125
 10
0.0
 20
-3571.0546875
 10
0.0
 20
-3580.654296875
 10
0.0
 20
-3590.25390625
 10
0.0
 20
-3599.853515625
 10
0.0
 20
-3609.453125
 10
0.0
 20
-3619.052734375
 10
0.0
 20
-3628.65234375
 10
0.0
 20
-3638.251953125
 10
0.0
 20
-3647.8515625
 10
0.0
 20
-3657.451171875
 10
0.0
 20
-3667.05078125
 10
0.0
 20
-3676.650390625
 10
0.0
 20
-3686.25
 10
0.0
 20
-3695.849609375
 10
0.0
 20
-3705.44921875
 10
0.0
 20
-3715.048828125
 10
0.0
 20
-3724.6484375
 10
0.0
 20
-3734.248046875
 10
0.0
 20
-3743.84765625
 10
0.0
 20
-3753.447265625
 10
0.0
 20
-3763.046875
 10
0.0
 20
-3772.646484375
 10
0.0
 20
-3782.24609375
 10
0.0
 20
-3791.845703125
 10
0.0
 20
-3801.4453125
 10
0.0
 20
-3811.044921875
 10
0.0
 20
-3820.64453125
 10
0.0
 20
-3830.244140625
 10
0.0
 20
-3839.84375
 10
0.0
 20
-3849.443359375
 10
0.0
 20
-3859.04296875
 10
0.0
 20
-3868.642578125
 10
0.0
 20
-3878.2421875
 10
0.0
 20
-3887.841796875
 10
0.0
 20
-3897.44140625
 10
0.0
 20
-3907.041015625
 10
0.0
 20
-3916.640625
 10
0.0
 20
-3926.240234375
 10
0.0
 20
-3935.83984375
 10
0.0
 20
-3945.439453125
 10
0.0
 20
-3955.0390625
 10
0.0
 20
-3964.638671875
 10
0.0
 20
-3974.23828125
 10
0.0
 20
-3983.837890625
 10
0.0
 20
-3993.4375
 10
0.0
 20
-4003.037109375
 10
0.0
 20
-4012.63671875
 10
0.0
 20
-4022.236328125
 10
0.0
 20
-4031.8359375
 10
0.0
 20
-4041.435546875
 10
0.0
 20
-4051.03515625
 10
0.0
 20
-4060.634765625
 10
0.0
 20
-4070.234375
 10
0.0
 20
-4079.833984375
 10
0.0
 20
-4089.43359375
 10
0.0
 20
-4099.033203125
 10
0.0
 20
-4108.6328125
 10
0.0
 20
-4118.232421875
 10
0.0
 20
-4127.83203125
 10
0.0
 20
-4137.431640625
 10
0.0
 20
-4147.03125
 10
0.0
 20
-4156.630859375
 10
0.0
 20
-4166.23046875
 10
0.0
 20
-4175.830078125
 10
0.0
 20
-4185.4296875
 10
0.0
 20
-4195.029296875
 10
0.0
 20
-4204.62890625
 10
0.0
 20
-4214.228515625
 10
0.0
 20
-4223.828125
 10
0.0
 20
-4233.427734375
 10
0.0
 20
-4243.02734375
 10
0.0
 20
-4252.626953125
 10
0.0
 20
-4262.2265625
 10
0.0
 20
-4271.826171875
 10
0.0
 20
-4281.42578125
 10
0.0
 20
-4291.025390625
 10
0.0
 20
-4300.625
 10
0.0
 20
-4310.224609375
 10
0.0
 20
-4319.82421875
 10
0.0
 20
-4329.423828125
 10
0.0
 20
-4339.0234375
 10
0.0
 20
-4348.623046875
 10
0.0
 20
-4358.22265625
 10
0.0
 20
-4367.822265625
 10
0.0
 20
-4377.421875
 10
0.0
 20
-4387.021484375
 10
0.0
 20
-4396.62109375
 10
0.0
 20
-4406.220703125
 10
0.0
 20
-4415.8203125
 10
0.0
 20
-4425.419921875
 10
0.0
 20
-4435.01953125
 10
0.0
 20
-4444.619140625
 10
0.0
 20
-4454.21875
 10
0.0
 20
-4463.818359375
 10
0.0
 20
-4473.41796875
 10
0.0
 20
-4483.017578125
 10
0.0
 20
-4492.6171875
 10
0.0
 20
-4502.216796875
 10
0.0
 20
-4511.81640625
 10
0.0
 20
-4521.416015625
 10
0.0
 20
-4531.015625
 10
0.0
 20
-4540.615234375
 10
0.0
 20
-4550.21484375
 10
0.0
 20
-4559.814453125
 10
0.0
 20
-4569.4140625
 10
0.0
 20
-4579.013671875
 10
0.0
 20
-4588.61328125
 10
0.0
 20
-4598.212890625
 10
0.0
 20
-4607.8125
 10
0.0
 20
-4617.412109375
 10
0.0
 20
-4627.01171875
 10
0.0
 20
-4636.611328125
 10
0.0
 20
-4646.2109375
 10
0.0
 20
-4655.810546875
 10
0.0
 20
-4665.41015625
 10
0.0
 20
-4675.009765625
 10
0.0
 20
-4684.609375
 10
0.0
 20
-4694.208984375
 10
0.0
 20
-4703.80859375
 10
0.0
 20
-4713.408203125
 10
0.0
 20
-4723.0078125
 10
0.0
 20
-4732.607421875
 10
0.0
 20
-4742.20703125
 10
0.0
 20
-4751.806640625
 10
0.0
 20
-4761.40625
 10
0.0
 20
-4771.005859375
 10
0.0
 20
-4780.60546875
 10
0.0
 20
-4790.205078125
 10
0.0
 20
-4799.8046875
 10
0.0
 20
-4809.404296875
 10
0.0
 20
-4819.00390625
 10
0.0
 20
-4828.603515625
 10
0.0
 20
-4838.203125
 10
0.0
 20
-4847.802734375
 10
0.0
 20
-4857.40234375
 10
0.0
 20
-4867.001953125
 10
0.0
 20
-4876.6015625
 10
0.0
 20
-4886.201171875
 10
0.0
 20
-4895.80078125
 10
0.0
 20
-4905.400390625
 10
9.599609375
 20
-4905.400390625
 10
19.19921875
 20
-4905.400390625
 10
28.798828125
 20
-4905.400390625
 10
38.3984375
 20
-4905.400390625
 10
47.998046875
 20
-4905.400390625
 10
57.59765625
 20
-4905.400390625
 10
67.197265625
 20
-4905.400390625
 10
76.796875
 20
-4905.400390625
 10
86.396484375
 20
-4905.400390625
 10
95.99609375
 20
-4905.400390625
 10
105.595703125
 20
-4905.400390625
 10
115.1953125
 20
-4905.400390625
 10
124.794921875
 20
-4905.400390625
 10
134.39453125
 20
-4905.400390625
 10
143.994140625
 20
-4905.400390625
 10
153.59375
 20
-4905.400390625
 10
163.193359375
 20
-4905.400390625
 10
172.79296875
 20
-4905.400390625
 10
182.392578125
 20
-4905.400390625
 10
191.9921875
 20
-4905.400390625
 10
201.591796875
 20
-4905.400390625
 10
211.19140625
 20
-4905.400390625
 10
220.791015625
 20
-4905.400390625
 10
230.390625
 20
-4905.400390625
 10
239.990234375
 20
-4905.400390625
 10
249.58984375
 20
-4905.400390625
 10
259.189453125
 20
-4905.400390625
 10
268.7890625
 20
-4905.400390625
 10
278.388671875
 20
-4905.400390625
 10
287.98828125
 20
-4905.400390625
 10
297.587890625
 20
-4905.400390625
 10
307.1875
 20
-4905.400390625
 10
316.787109375
 20
-4905.400390625
 10
326.38671875
 20
-4905.400390625
 10
335.986328125
 20
-4905.400390625
 10
345.5859375
 20
-4905.400390625
 10
355.185546875
 20
-4905.400390625
 10
364.78515625
 20
-4905.400390625
 10
374.384765625
 20
-4905.400390625
 10
383.984375
 20
-4905.400390625
 10
393.583984375
 20
-4905.400390625
 10
403.18359375
 20
-4905.400390625
 10
412.783203125
 20
-4905.400390625
 10
422.3828125
 20
-4905.400390625
 10
431.982421875
 20
-4905.400390625
 10
441.58203125
 20
-4905.400390625
 10
451.181640625
 20
-4905.400390625
 10
460.78125
 20
-4905.400390625
 10
470.380859375
 20
-4905.400390625
 10
479.98046875
 20
-4905.400390625
 10
489.580078125
 20
-4905.400390625
 10
499.1796875
 20
-4905.400390625
 10
508.779296875
 20
-4905.400390625
 10
518.37890625
 20
-4905.400390625
 10
527.978515625
 20
-4905.400390625
 10
537.578125
 20
-4905.400390625
 10
547.177734375
 20
-4905.400390625
 10
556.77734375
 20
-4905.400390625
 10
566.376953125
 20
-4905.400390625
 10
575.9765625
 20
-4905.400390625
 10
585.576171875
 20
-4905.400390625
 10
595.17578125
 20
-4905.400390625
 10
604.775390625
 20
-4905.400390625
 10
614.375
 20
-4905.400390625
 10
623.974609375
 20
-4905.400390625
 10
633.57421875
 20
-4905.400390625
 10
643.173828125
 20
-4905.400390625
 10
652.7734375
 20
-4905.400390625
 10
662.373046875
 20
-4905.400390625
 10
671.97265625
 20
-4905.400390625
 10
681.572265625
 20
-4905.400390625
 10
691.171875
 20
-4905.400390625
 10
700.771484375
 20
-4905.400390625
 10
710.37109375
 20
-4905.400390625
 10
719.970703125
 20
-4905.400390625
 10
729.5703125
 20
-4905.400390625
 10
739.169921875
 20
-4905.400390625
 10
748.76953125
 20
-4905.400390625
 10
758.369140625
 20
-4905.400390625
 10
767.96875
 20
-4905.400390625
 10
777.568359375
 20
-4905.400390625
 10
787.16796875
 20
-4905.400390625
 10
796.767578125
 20
-4905.400390625
 10
806.3671875
 20
-4905.400390625
 10
815.966796875
 20
-4905.400390625
 10
825.56640625
 20
-4905.400390625
 10
835.166015625
 20
-4905.400390625
 10
844.765625
 20
-4905.400390625
 10
854.365234375
 20
-4905.400390625
 10
863.96484375
 20
-4905.400390625
 10
873.564453125
 20
-4905.400390625
 10
883.1640625
 20
-4905.400390625
 10
892.763671875
 20
-4905.400390625
 10
902.36328125
 20
-4905.400390625
 10
911.962890625
 20
-4905.400390625
 10
921.5625
 20
-4905.400390625
 10
931.162109375
 20
-4905.400390625
 10
940.76171875
 20
-4905.400390625
 10
950.361328125
 20
-4905.400390625
 10
959.9609375
 20
-4905.400390625
 10
969.560546875
 20
-4905.400390625
 10
979.16015625
 20
-4905.400390625
 10
988.759765625
 20
-4905.400390625
 10
998.359375
 20
-4905.400390625
 10
1007.958984375
 20
-4905.400390625
 10
1017.55859375
 20
-4905.400390625
 10
1027.158203125
 20
-4905.400390625
 10
1036.7578125
 20
-4905.400390625
 10
1046.357421875
 20
-4905.400390625
 10
1055.95703125
 20
-4905.400390625
 10
1065.556640625
 20
-4905.400390625
 10
1075.15625
 20
-4905.400390625
 10
1084.755859375
 20
-4905.400390625
 10
1094.35546875
 20
-4905.400390625
 10
1103.955078125
 20
-4905.400390625
 10
1113.5546875
 20
-4905.400390625
 10
1123.154296875
 20
-4905.400390625
 10
1132.75390625
 20
-4905.400390625
 10
1142.353515625
 20
-4905.400390625
 10
1151.953125
 20
-4905.400390625
 10
1161.552734375
 20
-4905.400390625
 10
1171.15234375
 20
-4905.400390625
 10
1180.751953125
 20
-4905.400390625
 10
1190.3515625
 20
-4905.400390625
 10
1199.951171875
 20
-4905.400390625
 10
1209.55078125
 20
-4905.400390625
 10
1219.150390625
 20
-4905.400390625
 10
1228.75
 20
-4905.400390625
 10
1238.349609375
 20
-4905.400390625
 10
1247.94921875
 20
-4905.400390625
 10
1257.548828125
 20
-4905.400390625
 10
1267.1484375
 20
-4905.400390625
 10
1276.748046875
 20
-4905.400390625
 10
1286.34765625
 20
-4905.400390625
 10
1295.947265625
 20
-4905.400390625
 10
1305.546875
 20
-4905.400390625
 10
1315.146484375
 20
-4905.400390625
 10
1324.74609375
 20
-4905.400390625
 10
1334.345703125
 20
-4905.400390625
 10
1343.9453125
 20
-4905.400390625
 10
1353.544921875
 20
-4905.400390625
 10
1363.14453125
 20
-4905.400390625
 10
1372.744140625
 20
-4905.400390625
 10
1382.34375
 20
-4905.400390625
 10
1391.943359375
 20
-4905.400390625
 10
1401.54296875
 20
-4905.400390625
 10
1411.142578125
 20
-4905.400390625
 10
1420.7421875
 20
-4905.400390625
 10
1430.341796875
 20
-4905.400390625
 10
1439.94140625
 20
-4905.400390625
 10
1449.541015625
 20
-4905.400390625
 10
1459.140625
 20
-4905.400390625
 10
1468.740234375
 20
-4905.400390625
 10
1478.33984375
 20
-4905.400390625
 10
1487.939453125
 20
-4905.400390625
 10
1497.5390625
 20
-4905.400390625
 10
1507.138671875
 20
-4905.400390625
 10
1516.73828125
 20
-4905.400390625
 10
1526.337890625
 20
-4905.400390625
 10
1535.9375
 20
-4905.400390625
 10
1545.537109375
 20
-4905.400390625
 10
1555.13671875
 20
-4905.400390625
 10
1564.736328125
 20
-4905.400390625
 10
1574.3359375
 20
-4905.400390625
 10
1583.935546875
 20
-4905.400390625
 10
1593.53515625
 20
-4905.400390625
 10
1603.134765625
 20
-4905.400390625
 10
1612.734375
 20
-4905.400390625
 10
1622.333984375
 20
-4905.400390625
 10
1631.93359375
 20
-4905.400390625
 10
1641.533203125
 20
-4905.400390625
 10
1651.1328125
 20
-4905.400390625
 10
1660.732421875
 20
-4905.400390625
 10
1670.33203125
 20
-4905.400390625
 10
1679.931640625
 20
-4905.400390625
 10
1689.53125
 20
-4905.400390625
 10
1699.130859375
 20
-4905.400390625
 10
1708.73046875
 20
-4905.400390625
 10
1718.330078125
 20
-4905.400390625
 10
1727.9296875
 20
-4905.400390625
 10
1737.529296875
 20
-4905.400390625
 10
1747.12890625
 20
-4905.400390625
 10
1756.728515625
 20
-4905.400390625
 10
1766.328125
 20
-4905.400390625
 10
1775.927734375
 20
-4905.400390625
 10
1785.52734375
 20
-4905.400390625
 10
1795.126953125
 20
-4905.400390625
 10
1804.7265625
 20
-4905.400390625
 10
1814.326171875
 20
-4905.400390625
 10
1823.92578125
 20
-4905.400390625
 10
1833.525390625
 20
-4905.400390625
 10
1843.125
 20
-4905.400390625
 10
1852.724609375
 20
-4905.400390625
 10
1862.32421875
 20
-4905.400390625
 10
1871.923828125
 20
-4905.400390625
 10
1881.5234375
 20
-4905.400390625
 10
1891.123046875
 20
-4905.400390625
 10
1900.72265625
 20
-4905.400390625
 10
1910.322265625
 20
-4905.400390625
 10
1919.921875
 20
-4905.400390625
 10
1929.521484375
 20
-4905.400390625
 10
1939.12109375
 20
-4905.400390625
 10
1948.720703125
 20
-4905.400390625
 10
1958.3203125
 20
-4905.400390625
 10
1967.919921875
 20
-4905.400390625
 10
1977.51953125
 20
-4905.400390625
 10
1987.119140625
 20
-4905.400390625
 10
1996.71875
 20
-4905.400390625
 10
2006.318359375
 20
-4905.400390625
 10
2015.91796875
 20
-4905.400390625
 10
2025.517578125
 20
-4905.400390625
 10
2035.1171875
 20
-4905.400390625
 10
2044.716796875
 20
-4905.400390625
 10
2054.31640625
 20
-4905.400390625
 10
2063.916015625
 20
-4905.400390625
 10
2073.515625
 20
-4905.400390625
 10
2083.115234375
 20
-4905.400390625
 10
2092.71484375
 20
-4905.400390625
 10
2102.314453125
 20
-4905.400390625
 10
2111.9140625
 20
-4905.400390625
 10
2121.513671875
 20
-4905.400390625
 10
2131.11328125
 20
-4905.400390625
 10
2140.712890625
 20
-4905.400390625
 10
2150.3125
 20
-4905.400390625
 10
2159.912109375
 20
-4905.400390625
 10
2169.51171875
 20
-4905.400390625
 10
2179.111328125
 20
-4905.400390625
 10
2188.7109375
 20
-4905.400390625
 10
2198.310546875
 20
-4905.400390625
 10
2207.91015625
 20
-4905.400390625
 10
2217.509765625
 20
-4905.400390625
 10
2227.109375
 20
-4905.400390625
 10
2236.708984375
 20
-4905.400390625
 10
2246.30859375
 20
-4905.400390625
 10
2255.908203125
 20
-4905.400390625
 10
2265.5078125
 20
-4905.400390625
 10
2275.107421875
 20
-4905.400390625
 10
2284.70703125
 20
-4905.400390625
 10
2294.306640625
 20
-4905.400390625
 10
2303.90625
 20
-4905.400390625
 10
2313.505859375
 20
-4905.400390625
 10
2323.10546875
 20
-4905.400390625
 10
2332.705078125
 20
-4905.400390625
 10
2342.3046875
 20
-4905.400390625
 10
2351.904296875
 20
-4905.400390625
 10
2361.50390625
 20
-4905.400390625
 10
2371.103515625
 20
-4905.400390625
 10
2380.703125
 20
-4905.400390625
 10
2390.302734375
 20
-4905.400390625
 10
2399.90234375
 20
-4905.400390625
 10
2409.501953125
 20
-4905.400390625
 10
2419.1015625
 20
-4905.400390625
 10
2428.701171875
 20
-4905.400390625
 10
2438.30078125
 20
-4905.400390625
 10
2447.900390625
 20
-4905.400390625
 10
2457.5
 20
-4905.400390625
 10
2467.099609375
 20
-4905.400390625
 10
2476.69921875
 20
-4905.400390625
 10
2486.298828125
 20
-4905.400390625
 10
2495.8984375
 20
-4905.400390625
 10
2505.498046875
 20
-4905.400390625
 10
2515.09765625
 20
-4905.400390625
 10
2524.697265625
 20
-4905.400390625
 10
2534.296875
 20
-4905.400390625
 10
2543.896484375
 20
-4905.400390625
 10
2553.49609375
 20
-4905.400390625
 10
2563.095703125
 20
-4905.400390625
 10
2572.6953125
 20
-4905.400390625
 10
2582.294921875
 20
-4905.400390625
 10
2591.89453125
 20
-4905.400390625
 10
2601.494140625
 20
-4905.400390625
 10
2611.09375
 20
-4905.400390625
 10
2620.693359375
 20
-4905.400390625
 10
2630.29296875
 20
-4905.400390625
 10
2639.892578125
 20
-4905.400390625
 10
2649.4921875
 20
-4905.400390625
 10
2659.091796875
 20
-4905.400390625
 10
2668.69140625
 20
-4905.400390625
 10
2678.291015625
 20
-4905.400390625
 10
2687.890625
 20
-4905.400390625
 10
2697.490234375
 20
-4905.400390625
 10
2707.08984375
 20
-4905.400390625
 10
2716.689453125
 20
-4905.400390625
 10
2726.2890625
 20
-4905.400390625
 10
2735.888671875
 20
-4905.400390625
 10
2745.48828125
 20
-4905.400390625
 10
2755.087890625
 20
-4905.400390625
 10
2764.6875
 20
-4905.400390625
 10
2774.287109375
 20
-4905.400390625
 10
2783.88671875
 20
-4905.400390625
 10
2793.486328125
 20
-4905.400390625
 10
2803.0859375
 20
-4905.400390625
 10
2812.685546875
 20
-4905.400390625
 10
2822.28515625
 20
-4905.400390625
 10
2831.884765625
 20
-4905.400390625
 10
2841.484375
 20
-4905.400390625
 10
2851.083984375
 20
-4905.400390625
 10
2860.68359375
 20
-4905.400390625
 10
2870.283203125
 20
-4905.400390625
 10
2879.8828125
 20
-4905.400390625
 10
2889.482421875
 20
-4905.400390625
 10
2899.08203125
 20
-4905.400390625
 10
2908.681640625
 20
-4905.400390625
 10
2918.28125
 20
-4905.400390625
 10
2927.880859375
 20
-4905.400390625
 10
2937.48046875
 20
-4905.400390625
 10
2947.080078125
 20
-4905.400390625
 10
2956.6796875
 20
-4905.400390625
 10
2966.279296875
 20
-4905.400390625
 10
2975.87890625
 20
-4905.400390625
 10
2985.478515625
 20
-4905.400390625
 10
2995.078125
 20
-4905.400390625
 10
3004.677734375
 20
-4905.400390625
 10
3014.27734375
 20
-4905.400390625
 10
3023.876953125
 20
-4905.400390625
 10
3033.4765625
 20
-4905.400390625
 10
3043.076171875
 20
-4905.400390625
 10
3052.67578125
 20
-4905.400390625
 10
3062.275390625
 20
-4905.400390625
 10
3071.875
 20
-4905.400390625
 10
3081.474609375
 20
-4905.400390625
 10
3091.07421875
 20
-4905.400390625
 10
3100.673828125
 20
-4905.400390625
 10
3110.2734375
 20
-4905.400390625
 10
3119.873046875
 20
-4905.400390625
 10
3129.47265625
 20
-4905.400390625
 10
3139.072265625
 20
-4905.400390625
 10
3148.671875
 20
-4905.400390625
 10
3158.271484375
 20
-4905.400390625
 10
3167.87109375
 20
-4905.400390625
 10
3177.470703125
 20
-4905.400390625
 10
3187.0703125
 20
-4905.400390625
 10
3196.669921875
 20
-4905.400390625
 10
3206.26953125
 20
-4905.400390625
 10
3215.869140625
 20
-4905.400390625
 10
3225.46875
 20
-4905.400390625
 10
3235.068359375
 20
-4905.400390625
 10
3244.66796875
 20
-4905.400390625
 10
3254.267578125
 20
-4905.400390625
 10
3263.8671875
 20
-4905.400390625
 10
3273.466796875
 20
-4905.400390625
 10
3283.06640625
 20
-4905.400390625
 10
3292.666015625
 20
-4905.400390625
 10
3302.265625
 20
-4905.400390625
 10
3311.865234375
 20
-4905.400390625
 10
3321.46484375
 20
-4905.400390625
 10
3331.064453125
 20
-4905.400390625
 10
3340.6640625
 20
-4905.400390625
 10
3350.263671875
 20
-4905.400390625
 10
3359.86328125
 20
-4905.400390625
 10
3369.462890625
 20
-4905.400390625
 10
3379.0625
 20
-4905.400390625
 10
3388.662109375
 20
-4905.400390625
 10
3398.26171875
 20
-4905.400390625
 10
3407.861328125
 20
-4905.400390625
 10
3417.4609375
 20
-4905.400390625
 10
3427.060546875
 20
-4905.400390625
 10
3436.66015625
 20
-4905.400390625
 10
3446.259765625
 20
-4905.400390625
 10
3455.859375
 20
-4905.400390625
 10
3465.458984375
 20
-4905.400390625
 10
3475.05859375
 20
-4905.400390625
 10
3484.658203125
 20
-4905.400390625
 10
3494.2578125
 20
-4905.400390625
 10
3503.857421875
 20
-4905.400390625
 10
3513.45703125
 20
-4905.400390625
 10
3523.056640625
 20
-4905.400390625
 10
3532.65625
 20
-4905.400390625
 10
3542.255859375
 20
-4905.400390625
 10
3551.85546875
 20
-4905.400390625
 10
3561.455078125
 20
-4905.400390625
 10
3571.0546875
 20
-4905.400390625
 10
3580.654296875
 20
-4905.400390625
 10
3590.25390625
 20
-4905.400390625
 10
3599.853515625
 20
-4905.400390625
 10
3609.453125
 20
-4905.400390625
 10
3619.052734375
 20
-4905.400390625
 10
3628.65234375
 20
-4905.400390625
 10
3638.251953125
 20
-4905.400390625
 10
3647.8515625
 20
-4905.400390625
 10
3657.451171875
 20
-4905.400390625
 10
3667.05078125
 20
-4905.400390625
 10
3676.650390625
 20
-4905.400390625
 10
3686.25
 20
-4905.400390625
 10
3695.849609375
 20
-4905.400390625
 10
3705.44921875
 20
-4905.400390625
 10
3715.048828125
 20
-4905.400390625
 10
3724.6484375
 20
-4905.400390625
 10
3734.248046875
 20
-4905.400390625
 10
3743.84765625
 20
-4905.400390625
 10
3753.447265625
 20
-4905.400390625
 10
3763.046875
 20
-4905.400390625
 10
3772.646484375
 20
-4905.400390625
 10
3782.24609375
 20
-4905.400390625
 10
3791.845703125
 20
-4905.400390625
 10
3801.4453125
 20
-4905.400390625
 10
3811.044921875
 20
-4905.400390625
 10
3820.64453125
 20
-4905.400390625
 10
3830.244140625
 20
-4905.400390625
 10
3839.84375
 20
-4905.400390625
 10
3849.443359375
 20
-4905.400390625
 10
3859.04296875
 20
-4905.400390625
 10
3868.642578125
 20
-4905.400390625
 10
3878.2421875
 20
-4905.400390625
 10
3887.841796875
 20
-4905.400390625
 10
3897.44140625
 20
-4905.400390625
 10
3907.041015625
 20
-4905.400390625
 10
3916.640625
 20
-4905.400390625
 10
3926.240234375
 20
-4905.400390625
 10
3935.83984375
 20
-4905.400390625
 10
3945.439453125
 20
-4905.400390625
 10
3955.0390625
 20
-4905.400390625
 10
3964.638671875
 20
-4905.400390625
 10
3974.23828125
 20
-4905.400390625
 10
3983.837890625
 20
-4905.400390625
 10
3993.4375
 20
-4905.400390625
 10
4003.037109375
 20
-4905.400390625
 10
4012.63671875
 20
-4905.400390625
 10
4022.236328125
 20
-4905.400390625
 10
4031.8359375
 20
-4905.400390625
 10
4041.435546875
 20
-4905.400390625
 10
4051.03515625
 20
-4905.400390625
 10
4060.634765625
 20
-4905.400390625
 10
4070.234375
 20
-4905.400390625
 10
4079.833984375
 20
-4905.400390625
 10
4089.43359375
 20
-4905.400390625
 10
4099.033203125
 20
-4905.400390625
 10
4108.6328125
 20
-4905.400390625
 10
4118.232421875
 20
-4905.400390625
 10
4127.83203125
 20
-4905.400390625
 10
4137.431640625
 20
-4905.400390625
 10
4147.03125
 20
-4905.400390625
 10
4156.630859375
 20
-4905.400390625
 10
4166.23046875
 20
-4905.400390625
 10
4175.830078125
 20
-4905.400390625
 10
4185.4296875
 20
-4905.400390625
 10
4195.029296875
 20
-4905.400390625
 10
4204.62890625
 20
-4905.400390625
 10
4214.228515625
 20
-4905.400390625
 10
4223.828125
 20
-4905.400390625
 10
4233.427734375
 20
-4905.400390625
 10
4243.02734375
 20
-4905.400390625
 10
4252.626953125
 20
-4905.400390625
 10
4262.2265625
 20
-4905.400390625
 10
4271.826171875
 20
-4905.400390625
 10
4281.42578125
 20
-4905.400390625
 10
4291.025390625
 20
-4905.400390625
 10
4300.625
 20
-4905.400390625
 10
4310.224609375
 20
-4905.400390625
 10
4319.82421875
 20
-4905.400390625
 10
4329.423828125
 20
-4905.400390625
 10
4339.0234375
 20
-4905.400390625
 10
4348.623046875
 20
-4905.400390625
 10
4358.22265625
 20
-4905.400390625
 10
4367.822265625
 20
-4905.400390625
 10
4377.421875
 20
-4905.400390625
 10
4387.021484375
 20
-4905.400390625
 10
4396.62109375
 20
-4905.400390625
 10
4406.220703125
 20
-4905.400390625
 10
4415.8203125
 20
-4905.400390625
 10
4425.419921875
 20
-4905.400390625
 10
4435.01953125
 20
-4905.400390625
 10
4444.619140625
 20
-4905.400390625
 10
4454.21875
 20
-4905.400390625
 10
4463.818359375
 20
-4905.400390625
 10
4473.41796875
 20
-4905.400390625
 10
4483.017578125
 20
-4905.400390625
 10
4492.6171875
 20
-4905.400390625
 10
4502.216796875
 20
-4905.400390625
 10
4511.81640625
 20
-4905.400390625
 10
4521.416015625
 20
-4905.400390625
 10
4531.015625
 20
-4905.400390625
 10
4540.615234375
 20
-4905.400390625
 10
4550.21484375
 20
-4905.400390625
 10
4559.814453125
 20
-4905.400390625
 10
4569.4140625
 20
-4905.400390625
 10
4579.013671875
 20
-4905.400390625
 10
4588.61328125
 20
-4905.400390625
 10
4598.212890625
 20
-4905.400390625
 10
4607.8125
 20
-4905.400390625
 10
4617.412109375
 20
-4905.400390625
 10
4627.01171875
 20
-4905.400390625
 10
4636.611328125
 20
-4905.400390625
 10
4646.2109375
 20
-4905.400390625
 10
4655.810546875
 20
-4905.400390625
 10
4665.41015625
 20
-4905.400390625
 10
4675.009765625
 20
-4905.400390625
 10
4684.609375
 20
-4905.400390625
 10
4694.208984375
 20
-4905.400390625
 10
4703.80859375
 20
-4905.400390625
 10
4713.408203125
 20
-4905.400390625
 10
4723.0078125
 20
-4905.400390625
 10
4732.607421875
 20
-4905.400390625
 10
4742.20703125
 20
-4905.400390625
 10
4751.806640625
 20
-4905.400390625
 10
4761.40625
 20
-4905.400390625
 10
4771.005859375
 20
-4905.400390625
 10
4780.60546875
 20
-4905.400390625
 10
4790.205078125
 20
-4905.400390625
 10
4799.8046875
 20
-4905.400390625
 10
4809.404296875
 20
-4905.400390625
 10
4819.00390625
 20
-4905.400390625
 10
4828.603515625
 20
-4905.400390625
 10
4838.203125
 20
-4905.400390625
 10
4847.802734375
 20
-4905.400390625
 10
4857.40234375
 20
-4905.400390625
 10
4867.001953125
 20
-4905.400390625
 10
4876.6015625
 20
-4905.400390625
 10
4886.201171875
 20
-4905.400390625
 10
4895.80078125
 20
-4905.400390625
 10
4905.400390625
 20
-4905.400390625
 10
4905.400390625
 20
-4895.80078125
 10
4905.400390625
 20
-4886.201171875
 10
4905.400390625
 20
-4876.6015625
 10
4905.400390625
 20
-4867.001953125
 10
4905.400390625
 20
-4857.40234375
 10
4905.400390625
 20
-4847.802734375
 10
4905.400390625
 20
-4838.203125
 10
4905.400390625
 20
-4828.603515625
 10
4905.400390625
 20
-4819.00390625
 10
4905.400390625
 20
-4809.404296875
 10
4905.400390625
 20
-4799.8046875
 10
4905.400390625
 20
-4790.205078125
 10
4905.400390625
 20
-4780.60546875
 10
4905.400390625
 20
-4771.005859375
 10
4905.400390625
 20
-4761.40625
 10
4905.400390625
 20
-4751.806640625
 10
4905.400390625
 20
-4742.20703125
 10
4905.400390625
 20
-4732.607421875
 10
4905.400390625
 20
-4723.0078125
 10
4905.400390625
 20
-4713.408203125
 10
4905.400390625
 20
-4703.80859375
 10
4905.400390625
 20
-4694.208984375
 10
4905.400390625
 20
-4684.609375
 10
4905.400390625
 20
-4675.009765625
 10
4905.400390625
 20
-4665.41015625
 10
4905.400390625
 20
-4655.810546875
 10
4905.400390625
 20
-4646.2109375
 10
4905.400390625
 20
-4636.611328125
 10
4905.400390625
 20
-4627.01171875
 10
4905.400390625
 20
-4617.412109375
 10
4905.400390625
 20
-4607.8125
 10
4905.400390625
 20
-4598.212890625
 10
4905.400390625
 20
-4588.61328125
 10
4905.400390625
 20
-4579.013671875
 10
4905.400390625
 20
-4569.4140625
 10
4905.400390625
 20
-4559.814453125
 10
4905.400390625
 20
-4550.21484375
 10
4905.400390625
 20
-4540.615234375
 10
4905.400390625
 20
-4531.015625
 10
4905.400390625
 20
-4521.416015625
 10
4905.400390625
 20
-4511.81640625
 10
4905.400390625
 20
-4502.216796875
 10
4905.400390625
 20
-4492.6171875
 10
4905.400390625
 20
-4483.017578125
 10
4905.400390625
 20
-4473.41796875
 10
4905.400390625
 20
-4463.818359375
 10
4905.400390625
 20
-4454.21875
 10
4905.400390625
 20
-4444.619140625
 10
4905.400390625
 20
-4435.01953125
 10
4905.400390625
 20
-4425.419921875
 10
4905.400390625
 20
-4415.8203125
 10
4905.400390625
 20
-4406.220703125
 10
4905.400390625
 20
-4396.62109375
 10
4905.400390625
 20
-4387.021484375
 10
4905.400390625
 20
-4377.421875
 10
4905.400390625
 20
-4367.822265625
 10
4905.400390625
 20
-4358.22265625
 10
4905.400390625
 20
-4348.623046875
 10
4905.400390625
 20
-4339.0234375
 10
4905.400390625
 20
-4329.423828125
 10
4905.400390625
 20
-4319.82421875
 10
4905.400390625
 20
-4310.224609375
 10
4905.400390625
 20
-4300.625
 10
4905.400390625
 20
-4291.025390625
 10
4905.400390625
 20
-4281.42578125
 10
4905.400390625
 20
-4271.826171875
 10
4905.400390625
 20
-4262.2265625
 10
4905.400390625
 20
-4252.626953125
 10
4905.400390625
 20
-4243.02734375
 10
4905.400390625
 20
-4233.427734375
 10
4905.400390625
 20
-4223.828125
 10
4905.400390625
 20
-4214.228515625
 10
4905.400390625
 20
-4204.62890625
 10
4905.400390625
 20
-4195.029296875
 10
4905.400390625
 20
-4185.4296875
 10
4905.400390625
 20
-4175.830078125
 10
4905.400390625
 20
-4166.23046875
 10
4905.400390625
 20
-4156.630859375
 10
4905.400390625
 20
-4147.03125
 10
4905.400390625
 20
-4137.431640625
 10
4905.400390625
 20
-4127.83203125
 10
4905.400390625
 20
-4118.232421875
 10
4905.400390625
 20
-4108.6328125
 10
4905.400390625
 20
-4099.033203125
 10
4905.400390625
 20
-4089.43359375
 10
4905.400390625
 20
-4079.833984375
 10
4905.400390625
 20
-4070.234375
 10
4905.400390625
 20
-4060.634765625
 10
4905.400390625
 20
-4051.03515625
 10
4905.400390625
 20
-4041.435546875
 10
4905.400390625
 20
-4031.8359375
 10
4905.400390625
 20
-4022.236328125
 10
4905.400390625
 20
-4012.63671875
 10
4905.400390625
 20
-4003.037109375
 10
4905.400390625
 20
-3993.4375
 10
4905.400390625
 20
-3983.837890625
 10
4905.400390625
 20
-3974.23828125
 10
4905.400390625
 20
-3964.638671875
 10
4905.400390625
 20
-3955.0390625
 10
4905.400390625
 20
-3945.439453125
 10
4905.400390625
 20
-3935.83984375
 10
4905.400390625
 20
-3926.240234375
 10
4905.400390625
 20
-3916.640625
 10
4905.400390625
 20
-3907.041015625
 10
4905.400390625
 20
-3897.44140625
 10
4905.400390625
 20
-3887.841796875
 10
4905.400390625
 20
-3878.2421875
 10
4905.400390625
 20
-3868.642578125
 10
4905.400390625
 20
-3859.04296875
 10
4905.400390625
 20
-3849.443359375
 10
4905.400390625
 20
-3839.84375
 10
4905.400390625
 20
-3830.244140625
 10
4905.400390625
 20
-3820.64453125
 10
4905.400390625
 20
-3811.044921875
 10
4905.400390625
 20
-3801.4453125
 10
4905.400390625
 20
-3791.845703125
 10
4905.400390625
 20
-3782.24609375
 10
4905.400390625
 20
-3772.646484375
 10
4905.400390625
 20
-3763.046875
 10
4905.400390625
 20
-3753.447265625
 10
4905.400390625
 20
-3743.84765625
 10
4905.400390625
 20
-3734.248046875
 10
4905.400390625
 20
-3724.6484375
 10
4905.400390625
 20
-3715.048828125
 10
4905.400390625
 20
-3705.44921875
 10
4905.400390625
 20
-3695.849609375
 10
4905.400390625
 20
-3686.25
 10
4905.400390625
 20
-3676.650390625
 10
4905.400390625
 20
-3667.05078125
 10
4905.400390625
 20
-3657.451171875
 10
4905.400390625
 20
-3647.8515625
 10
4905.400390625
 20
-3638.251953125
 10
4905.400390625
 20
-3628.65234375
 10
4905.400390625
 20
-3619.052734375
 10
4905.400390625
 20
-3609.453125
 10
4905.400390625
 20
-3599.853515625
 10
4905.400390625
 20
-3590.25390625
 10
4905.400390625
 20
-3580.654296875
 10
4905.400390625
 20
-3571.0546875
 10
4905.400390625
 20
-3561.455078125
 10
4905.400390625
 20
-3551.85546875
 10
4905.400390625
 20
-3542.255859375
 10
4905.400390625
 20
-3532.65625
 10
4905.400390625
 20
-3523.056640625
 10
4905.400390625
 20
-3513.45703125
 10
4905.400390625
 20
-3503.857421875
 10
4905.400390625
 20
-3494.2578125
 10
4905.400390625
 20
-3484.658203125
 10
4905.400390625
 20
-3475.05859375
 10
4905.400390625
 20
-3465.458984375
 10
4905.400390625
 20
-3455.859375
 10
4905.400390625
 20
-3446.259765625
 10
4905.400390625
 20
-3436.66015625
 10
4905.400390625
 20
-3427.060546875
 10
4905.400390625
 20
-3417.4609375
 10
4905.400390625
 20
-3407.861328125
 10
4905.400390625
 20
-3398.26171875
 10
4905.400390625
 20
-3388.662109375
 10
4905.400390625
 20
-3379.0625
 10
4905.400390625
 20
-3369.462890625
 10
4905.400390625
 20
-3359.86328125
 10
4905.400390625
 20
-3350.263671875
 10
4905.400390625
 20
-3340.6640625
 10
4905.400390625
 20
-3331.064453125
 10
4905.400390625
 20
-3321.46484375
 10
4905.400390625
 20
-3311.865234375
 10
4905.400390625
 20
-3302.265625
 10
4905.400390625
 20
-3292.666015625
 10
4905.400390625
 20
-3283.06640625
 10
4905.400390625
 20
-3273.466796875
 10
4905.400390625
 20
-3263.8671875
 10
4905.400390625
 20
-3254.267578125
 10
4905.400390625
 20
-3244.66796875
 10
4905.400390625
 20
-3235.068359375
 10
4905.400390625
 20
-3225.46875
 10
4905.400390625
 20
-3215.869140625
 10
4905.400390625
 20
-3206.26953125
 10
4905.400390625
 20
-3196.669921875
 10
4905.400390625
 20
-3187.0703125
 10
4905.400390625
 20
-3177.470703125
 10
4905.400390625
 20
-3167.87109375
 10
4905.400390625
 20
-3158.271484375
 10
4905.400390625
 20
-3148.671875
 10
4905.400390625
 20
-3139.072265625
 10
4905.400390625
 20
-3129.47265625
 10
4905.400390625
 20
-3119.873046875
 10
4905.400390625
 20
-3110.2734375
 10
4905.400390625
 20
-3100.673828125
 10
4905.400390625
 20
-3091.07421875
 10
4905.400390625
 20
-3081.474609375
 10
4905.400390625
 20
-3071.875
 10
4905.400390625
 20
-3062.275390625
 10
4905.400390625
 20
-3052.67578125
 10
4905.400390625
 20
-3043.076171875
 10
4905.400390625
 20
-3033.4765625
 10
4905.400390625
 20
-3023.876953125
 10
4905.400390625
 20
-3014.27734375
 10
4905.400390625
 20
-3004.677734375
 10
4905.400390625
 20
-2995.078125
 10
4905.400390625
 20
-2985.478515625
 10
4905.400390625
 20
-2975.87890625
 10
4905.400390625
 20
-2966.279296875
 10
4905.400390625
 20
-2956.6796875
 10
4905.400390625
 20
-2947.080078125
 10
4905.400390625
 20
-2937.48046875
 10
4905.400390625
 20
-2927.880859375
 10
4905.400390625
 20
-2918.28125
 10
4905.400390625
 20
-2908.681640625
 10
4905.400390625
 20
-2899.08203125
 10
4905.400390625
 20
-2889.482421875
 10
4905.400390625
 20
-2879.8828125
 10
4905.400390625
 20
-2870.283203125
 10
4905.400390625
 20
-2860.68359375
 10
4905.400390625
 20
-2851.083984375
 10
4905.400390625
 20
-2841.484375
 10
4905.400390625
 20
-2831.884765625
 10
4905.400390625
 20
-2822.28515625
 10
4905.400390625
 20
-2812.685546875
 10
4905.400390625
 20
-2803.0859375
 10
4905.400390625
 20
-2793.486328125
 10
4905.400390625
 20
-2783.88671875
 10
4905.400390625
 20
-2774.287109375
 10
4905.400390625
 20
-2764.6875
 10
4905.400390625
 20
-2755.087890625
 10
4905.400390625
 20
-2745.48828125
 10
4905.400390625
 20
-2735.888671875
 10
4905.400390625
 20
-2726.2890625
 10
4905.400390625
 20
-2716.689453125
 10
4905.400390625
 20
-2707.08984375
 10
4905.400390625
 20
-2697.490234375
 10
4905.400390625
 20
-2687.890625
 10
4905.400390625
 20
-2678.291015625
 10
4905.400390625
 20
-2668.69140625
 10
4905.400390625
 20
-2659.091796875
 10
4905.400390625
 20
-2649.4921875
 10
4905.400390625
 20
-2639.892578125
 10
4905.400390625
 20
-2630.29296875
 10
4905.400390625
 20
-2620.693359375
 10
4905.400390625
 20
-2611.09375
 10
4905.400390625
 20
-2601.494140625
 10
4905.400390625
 20
-2591.89453125
 10
4905.400390625
 20
-2582.294921875
 10
4905.400390625
 20
-2572.6953125
 10
4905.400390625
 20
-2563.095703125
 10
4905.400390625
 20
-2553.49609375
 10
4905.400390625
 20
-2543.896484375
 10
4905.400390625
 20
-2534.296875
 10
4905.400390625
 20
-2524.697265625
 10
4905.400390625
 20
-2515.09765625
 10
4905.400390625
 20
-2505.498046875
 10
4905.400390625
 20
-2495.8984375
 10
4905.400390625
 20
-2486.298828125
 10
4905.400390625
 20
-2476.69921875
 10
4905.400390625
 20
-2467.099609375
 10
4905.400390625
 20
-2457.5
 10
4905.400390625
 20
-2447.900390625
 10
4905.400390625
 20
-2438.30078125
 10
4905.400390625
 20
-2428.701171875
 10
4905.400390625
 20
-2419.1015625
 10
4905.400390625
 20
-2409.501953125
 10
4905.400390625
 20
-2399.90234375
 10
4905.400390625
 20
-2390.302734375
 10
4905.400390625
 20
-2380.703125
 10
4905.400390625
 20
-2371.103515625
 10
4905.400390625
 20
-2361.50390625
 10
4905.400390625
 20
-2351.904296875
 10
4905.400390625
 20
-2342.3046875
 10
4905.400390625
 20
-2332.705078125
 10
4905.400390625
 20
-2323.10546875
 10
4905.400390625
 20
-2313.505859375
 10
4905.400390625
 20
-2303.90625
 10
4905.400390625
 20
-2294.306640625
 10
4905.400390625
 20
-2284.70703125
 10
4905.400390625
 20
-2275.107421875
 10
4905.400390625
 20
-2265.5078125
 10
4905.400390625
 20
-2255.908203125
 10
4905.400390625
 20
-2246.30859375
 10
4905.400390625
 20
-2236.708984375
 10
4905.400390625
 20
-2227.109375
 10
4905.400390625
 20
-2217.509765625
 10
4905.400390625
 20
-2207.91015625
 10
4905.400390625
 20
-2198.310546875
 10
4905.400390625
 20
-2188.7109375
 10
4905.400390625
 20
-2179.111328125
 10
4905.400390625
 20
-2169.51171875
 10
4905.400390625
 20
-2159.912109375
 10
4905.400390625
 20
-2150.3125
 10
4905.400390625
 20
-2140.712890625
 10
4905.400390625
 20
-2131.11328125
 10
4905.400390625
 20
-2121.513671875
 10
4905.400390625
 20
-2111.9140625
 10
4905.400390625
 20
-2102.314453125
 10
4905.400390625
 20
-2092.71484375
 10
4905.400390625
 20
-2083.115234375
 10
4905.400390625
 20
-2073.515625
 10
4905.400390625
 20
-2063.916015625
 10
4905.400390625
 20
-2054.31640625
 10
4905.400390625
 20
-2044.716796875
 10
4905.400390625
 20
-2035.1171875
 10
4905.400390625
 20
-2025.517578125
 10
4905.400390625
 20
-2015.91796875
 10
4905.400390625
 20
-2006.318359375
 10
4905.400390625
 20
-1996.71875
 10
4905.400390625
 20
-1987.119140625
 10
4905.400390625
 20
-1977.51953125
 10
4905.400390625
 20
-1967.919921875
 10
4905.400390625
 20
-1958.3203125
 10
4905.400390625
 20
-1948.720703125
 10
4905.400390625
 20
-1939.12109375
 10
4905.400390625
 20
-1929.521484375
 10
4905.400390625
 20
-1919.921875
 10
4905.400390625
 20
-1910.322265625
 10
4905.400390625
 20
-1900.72265625
 10
4905.400390625
 20
-1891.123046875
 10
4905.400390625
 20
-1881.5234375
 10
4905.400390625
 20
-1871.923828125
 10
4905.400390625
 20
-1862.32421875
 10
4905.400390625
 20
-1852.724609375
 10
4905.400390625
 20
-1843.125
 10
4905.400390625
 20
-1833.525390625
 10
4905.400390625
 20
-1823.92578125
 10
4905.400390625
 20
-1814.326171875
 10
4905.400390625
 20
-1804.7265625
 10
4905.400390625
 20
-1795.126953125
 10
4905.400390625
 20
-1785.52734375
 10
4905.400390625
 20
-1775.927734375
 10
4905.400390625
 20
-1766.328125
 10
4905.400390625
 20
-1756.728515625
 10
4905.400390625
 20
-1747.12890625
 10
4905.400390625
 20
-1737.529296875
 10
4905.400390625
 20
-1727.9296875
 10
4905.400390625
 20
-1718.330078125
 10
4905.400390625
 20
-1708.73046875
 10
4905.400390625
 20
-1699.130859375
 10
4905.400390625
 20
-1689.53125
 10
4905.400390625
 20
-1679.931640625
 10
4905.400390625
 20
-1670.33203125
 10
4905.400390625
 20
-1660.732421875
 10
4905.400390625
 20
-1651.1328125
 10
4905.400390625
 20
-1641.533203125
 10
4905.400390625
 20
-1631.93359375
 10
4905.400390625
 20
-1622.333984375
 10
4905.400390625
 20
-1612.734375
 10
4905.400390625
 20
-1603.134765625
 10
4905.400390625
 20
-1593.53515625
 10
4905.400390625
 20
-1583.935546875
 10
4905.400390625
 20
-1574.3359375
 10
4905.400390625
 20
-1564.736328125
 10
4905.400390625
 20
-1555.13671875
 10
4905.400390625
 20
-1545.537109375
 10
4905.400390625
 20
-1535.9375
 10
4905.400390625
 20
-1526.337890625
 10
4905.400390625
 20
-1516.73828125
 10
4905.400390625
 20
-1507.138671875
 10
4905.400390625
 20
-1497.5390625
 10
4905.400390625
 20
-1487.939453125
 10
4905.400390625
 20
-1478.33984375
 10
4905.400390625
 20
-1468.740234375
 10
4905.400390625
 20
-1459.140625
 10
4905.400390625
 20
-1449.541015625
 10
4905.400390625
 20
-1439.94140625
 10
4905.400390625
 20
-1430.341796875
 10
4905.400390625
 20
-1420.7421875
 10
4905.400390625
 20
-1411.142578125
 10
4905.400390625
 20
-1401.54296875
 10
4905.400390625
 20
-1391.943359375
 10
4905.400390625
 20
-1382.34375
 10
4905.400390625
 20
-1372.744140625
 10
4905.400390625
 20
-1363.14453125
 10
4905.400390625
 20
-1353.544921875
 10
4905.400390625
 20
-1343.9453125
 10
4905.400390625
 20
-1334.345703125
 10
4905.400390625
 20
-1324.74609375
 10
4905.400390625
 20
-1315.146484375
 10
4905.400390625
 20
-1305.546875
 10
4905.400390625
 20
-1295.947265625
 10
4905.400390625
 20
-1286.34765625
 10
4905.400390625
 20
-1276.748046875
 10
4905.400390625
 20
-1267.1484375
 10
4905.400390625
 20
-1257.548828125
 10
4905.400390625
 20
-1247.94921875
 10
4905.400390625
 20
-1238.349609375
 10
4905.400390625
 20
-1228.75
 10
4905.400390625
 20
-1219.150390625
 10
4905.400390625
 20
-1209.55078125
 10
4905.400390625
 20
-1199.951171875
 10
4905.400390625
 20
-1190.3515625
 10
4905.400390625
 20
-1180.751953125
 10
4905.400390625
 20
-1171.15234375
 10
4905.400390625
 20
-1161.552734375
 10
4905.400390625
 20
-1151.953125
 10
4905.400390625
 20
-1142.353515625
 10
4905.400390625
 20
-1132.75390625
 10
4905.400390625
 20
-1123.154296875
 10
4905.400390625
 20
-1113.5546875
 10
4905.400390625
 20
-1103.955078125
 10
4905.400390625
 20
-1094.35546875
 10
4905.400390625
 20
-1084.755859375
 10
4905.400390625
 20
-1075.15625
 10
4905.400390625
 20
-1065.556640625
 10
4905.400390625
 20
-1055.95703125
 10
4905.400390625
 20
-1046.357421875
 10
4905.400390625
 20
-1036.7578125
 10
4905.400390625
 20
-1027.158203125
 10
4905.400390625
 20
-1017.55859375
 10
4905.400390625
 20
-1007.958984375
 10
4905.400390625
 20
-998.359375
 10
4905.400390625
 20
-988.759765625
 10
4905.400390625
 20
-979.16015625
 10
4905.400390625
 20
-969.560546875
 10
4905.400390625
 20
-959.9609375
 10
4905.400390625
 20
-950.361328125
 10
4905.400390625
 20
-940.76171875
 10
4905.400390625
 20
-931.162109375
 10
4905.400390625
 20
-921.5625
 10
4905.400390625
 20
-911.962890625
 10
4905.400390625
 20
-902.36328125
 10
4905.400390625
 20
-892.763671875
 10
4905.400390625
 20
-883.1640625
 10
4905.400390625
 20
-873.564453125
 10
4905.400390625
 20
-863.96484375
 10
4905.400390625
 20
-854.365234375
 10
4905.400390625
 20
-844.765625
 10
4905.400390625
 20
-835.166015625
 10
4905.400390625
 20
-825.56640625
 10
4905.400390625
 20
-815.966796875
 10
4905.400390625
 20
-806.3671875
 10
4905.400390625
 20
-796.767578125
 10
4905.400390625
 20
-787.16796875
 10
4905.400390625
 20
-777.568359375
 10
4905.400390625
 20
-767.96875
 10
4905.400390625
 20
-758.369140625
 10
4905.400390625
 20
-748.76953125
 10
4905.400390625
 20
-739.169921875
 10
4905.400390625
 20
-729.5703125
 10
4905.400390625
 20
-719.970703125
 10
4905.400390625
 20
-710.37109375
 10
4905.400390625
 20
-700.771484375
 10
4905.400390625
 20
-691.171875
 10
4905.400390625
 20
-681.572265625
 10
4905.400390625
 20
-671.97265625
 10
4905.400390625
 20
-662.373046875
 10
4905.400390625
 20
-652.7734375
 10
4905.400390625
 20
-643.173828125
 10
4905.400390625
 20
-633.57421875
 10
4905.400390625
 20
-623.974609375
 10
4905.400390625
 20
-614.375
 10
4905.400390625
 20
-604.775390625
 10
4905.400390625
 20
-595.17578125
 10
4905.400390625
 20
-585.576171875
 10
4905.400390625
 20
-575.9765625
 10
4905.400390625
 20
-566.376953125
 10
4905.400390625
 20
-556.77734375
 10
4905.400390625
 20
-547.177734375
 10
4905.400390625
 20
-537.578125
 10
4905.400390625
 20
-527.978515625
 10
4905.400390625
 20
-518.37890625
 10
4905.400390625
 20
-508.779296875
 10
4905.400390625
 20
-499.1796875
 10
4905.400390625
 20
-489.580078125
 10
4905.400390625
 20
-479.98046875
 10
4905.400390625
 20
-470.380859375
 10
4905.400390625
 20
-460.78125
 10
4905.400390625
 20
-451.181640625
 10
4905.400390625
 20
-441.58203125
 10
4905.400390625
 20
-431.982421875
 10
4905.400390625
 20
-422.3828125
 10
4905.400390625
 20
-412.783203125
 10
4905.400390625
 20
-403.18359375
 10
4905.400390625
 20
-393.583984375
 10
4905.400390625
 20
-383.984375
 10
4905.400390625
 20
-374.384765625
 10
4905.400390625
 20
-364.78515625
 10
4905.400390625
 20
-355.185546875
 10
4905.400390625
 20
-345.5859375
 10
4905.400390625
 20
-335.986328125
 10
4905.400390625
 20
-326.38671875
 10
4905.400390625
 20
-316.787109375
 10
4905.400390625
 20
-307.1875
 10
4905.400390625
 20
-297.587890625
 10
4905.400390625
 20
-287.98828125
 10
4905.400390625
 20
-278.388671875
 10
4905.400390625
 20
-268.7890625
 10
4905.400390625
 20
-259.189453125
 10
4905.400390625
 20
-249.58984375
 10
4905.400390625
 20
-239.990234375
 10
4905.400390625
 20
-230.390625
 10
4905.400390625
 20
-220.791015625
 10
4905.400390625
 20
-211.19140625
 10
4905.400390625
 20
-201.591796875
 10
4905.400390625
 20
-191.9921875
 10
4905.400390625
 20
-182.392578125
 10
4905.400390625
 20
-172.79296875
 10
4905.400390625
 20
-163.193359375
 10
4905.400390625
 20
-153.59375
 10
4905.400390625
 20
-143.994140625
 10
4905.400390625
 20
-134.39453125
 10
4905.400390625
 20
-124.794921875
 10
4905.400390625
 20
-115.1953125
 10
4905.400390625
 20
-105.595703125
 10
4905.400390625
 20
-95.99609375
 10
4905.400390625
 20
-86.396484375
 10
4905.400390625
 20
-76.796875
 10
4905.400390625
 20
-67.197265625
 10
4905.400390625
 20
-57.59765625
 10
4905.400390625
 20
-47.998046875
 10
4905.400390625
 20
-38.3984375
 10
4905.400390625
 20
-28.798828125
 10
4905.400390625
 20
-19.19921875
 10
4905.400390625
 20
-9.599609375
 10
4905.400390625
 20
-0.0
 10
4895.80078125
 20
-0.0
 10
4886.201171875
 20
-0.0
 10
4876.6015625
 20
-0.0
 10
4867.001953125
 20
-0.0
 10
4857.40234375
 20
-0.0
 10
4847.802734375
 20
-0.0
 10
4838.203125
 20
-0.0
 10
4828.603515625
 20
-0.0
 10
4819.00390625
 20
-0.0
 10
4809.404296875
 20
-0.0
 10
4799.8046875
 20
-0.0
 10
4790.205078125
 20
-0.0
 10
4780.60546875
 20
-0.0
 10
4771.005859375
 20
-0.0
 10
4761.40625
 20
-0.0
 10
4751.806640625
 20
-0.0
 10
4742.20703125
 20
-0.0
 10
4732.607421875
 20
-0.0
 10
4723.0078125
 20
-0.0
 10
4713.408203125
 20
-0.0
 10
4703.80859375
 20
-0.0
 10
4694.208984375
 20
-0.0
 10
4684.609375
 20
-0.0
 10
4675.009765625
 20
-0.0
 10
4665.41015625
 20
-0.0
 10
4655.810546875
 20
-0.0
 10
4646.2109375
 20
-0.0
 10
4636.611328125
 20
-0.0
 10
4627.01171875
 20
-0.0
 10
4617.412109375
 20
-0.0
 10
4607.8125
 20
-0.0
 10
4598.212890625
 20
-0.0
 10
4588.61328125
 20
-0.0
 10
4579.013671875
 20
-0.0
 10
4569.4140625
 20
-0.0
 10
4559.814453125
 20
-0.0
 10
4550.21484375
 20
-0.0
 10
4540.615234375
 20
-0.0
 10
4531.015625
 20
-0.0
 10
4521.416015625
 20
-0.0
 10
4511.81640625
 20
-0.0
 10
4502.216796875
 20
-0.0
 10
4492.6171875
 20
-0.0
 10
4483.017578125
 20
-0.0
 10
4473.41796875
 20
-0.0
 10
4463.818359375
 20
-0.0
 10
4454.21875
 20
-0.0
 10
4444.619140625
 20
-0.0
 10
4435.01953125
 20
-0.0
 10
4425.419921875
 20
-0.0
 10
4415.8203125
 20
-0.0
 10
4406.220703125
 20
-0.0
 10
4396.62109375
 20
-0.0
 10
4387.021484375
 20
-0.0
 10
4377.421875
 20
-0.0
 10
4367.822265625
 20
-0.0
 10
4358.22265625
 20
-0.0
 10
4348.623046875
 20
-0.0
 10
4339.0234375
 20
-0.0
 10
4329.423828125
 20
-0.0
 10
4319.82421875
 20
-0.0
 10
4310.224609375
 20
-0.0
 10
4300.625
 20
-0.0
 10
4291.025390625
 20
-0.0
 10
4281.42578125
 20
-0.0
 10
4271.826171875
 20
-0.0
 10
4262.2265625
 20
-0.0
 10
4252.626953125
 20
-0.0
 10
4243.02734375
 20
-0.0
 10
4233.427734375
 20
-0.0
 10
4223.828125
 20
-0.0
 10
4214.228515625
 20
-0.0
 10
4204.62890625
 20
-0.0
 10
4195.029296875
 20
-0.0
 10
4185.4296875
 20
-0.0
 10
4175.830078125
 20
-0.0
 10
4166.23046875
 20
-0.0
 10
4156.630859375
 20
-0.0
 10
4147.03125
 20
-0.0
 10
4137.431640625
 20
-0.0
 10
4127.83203125
 20
-0.0
 10
4118.232421875
 20
-0.0
 10
4108.6328125
 20
-0.0
 10
4099.033203125
 20
-0.0
 10
4089.43359375
 20
-0.0
 10
4079.833984375
 20
-0.0
 10
4070.234375
 20
-0.0
 10
4060.634765625
 20
-0.0
 10
4051.03515625
 20
-0.0
 10
4041.435546875
 20
-0.0
 10
4031.8359375
 20
-0.0
 10
4022.236328125
 20
-0.0
 10
4012.63671875
 20
-0.0
 10
4003.037109375
 20
-0.0
 10
3993.4375
 20
-0.0
 10
3983.837890625
 20
-0.0
 10
3974.23828125
 20
-0.0
 10
3964.638671875
 20
-0.0
 10
3955.0390625
 20
-0.0
 10
3945.439453125
 20
-0.0
 10
3935.83984375
 20
-0.0
 10
3926.240234375
 20
-0.0
 10
3916.640625
 20
-0.0
 10
3907.041015625
 20
-0.0
 10
3897.44140625
 20
-0.0
 10
3887.841796875
 20
-0.0
 10
3878.2421875
 20
-0.0
 10
3868.642578125
 20
-0.0
 10
3859.04296875
 20
-0.0
 10
3849.443359375
 20
-0.0
 10
3839.84375
 20
-0.0
 10
3830.244140625
 20
-0.0
 10
3820.64453125
 20
-0.0
 10
3811.044921875
 20
-0.0
 10
3801.4453125
 20
-0.0
 10
3791.845703125
 20
-0.0
 10
3782.24609375
 20
-0.0
 10
3772.646484375
 20
-0.0
 10
3763.046875
 20
-0.0
 10
3753.447265625
 20
-0.0
 10
3743.84765625
 20
-0.0
 10
3734.248046875
 20
-0.0
 10
3724.6484375
 20
-0.0
 10
3715.048828125
 20
-0.0
 10
3705.44921875
 20
-0.0
 10
3695.849609375
 20
-0.0
 10
3686.25
 20
-0.0
 10
3676.650390625
 20
-0.0
 10
3667.05078125
 20
-0.0
 10
3657.451171875
 20
-0.0
 10
3647.8515625
 20
-0.0
 10
3638.251953125
 20
-0.0
 10
3628.65234375
 20
-0.0
 10
3619.052734375
 20
-0.0
 10
3609.453125
 20
-0.0
 10
3599.853515625
 20
-0.0
 10
3590.25390625
 20
-0.0
 10
3580.654296875
 20
-0.0
 10
3571.0546875
 20
-0.0
 10
3561.455078125
 20
-0.0
 10
3551.85546875
 20
-0.0
 10
3542.255859375
 20
-0.0
 10
3532.65625
 20
-0.0
 10
3523.056640625
 20
-0.0
 10
3513.45703125
 20
-0.0
 10
3503.857421875
 20
-0.0
 10
3494.2578125
 20
-0.0
 10
3484.658203125
 20
-0.0
 10
3475.05859375
 20
-0.0
 10
3465.458984375
 20
-0.0
 10
3455.859375
 20
-0.0
 10
3446.259765625
 20
-0.0
 10
3436.66015625
 20
-0.0
 10
3427.060546875
 20
-0.0
 10
3417.4609375
 20
-0.0
 10
3407.861328125
 20
-0.0
 10
3398.26171875
 20
-0.0
 10
3388.662109375
 20
-0.0
 10
3379.0625
 20
-0.0
 10
3369.462890625
 20
-0.0
 10
3359.86328125
 20
-0.0
 10
3350.263671875
 20
-0.0
 10
3340.6640625
 20
-0.0
 10
3331.064453125
 20
-0.0
 10
3321.46484375
 20
-0.0
 10
3311.865234375
 20
-0.0
 10
3302.265625
 20
-0.0
 10
3292.666015625
 20
-0.0
 10
3283.06640625
 20
-0.0
 10
3273.466796875
 20
-0.0
 10
3263.8671875
 20
-0.0
 10
3254.267578125
 20
-0.0
 10
3244.66796875
 20
-0.0
 10
3235.068359375
 20
-0.0
 10
3225.46875
 20
-0.0
 10
3215.869140625
 20
-0.0
 10
3206.26953125
 20
-0.0
 10
3196.669921875
 20
-0.0
 10
3187.0703125
 20
-0.0
 10
3177.470703125
 20
-0.0
 10
3167.87109375
 20
-0.0
 10
3158.271484375
 20
-0.0
 10
3148.671875
 20
-0.0
 10
3139.072265625
 20
-0.0
 10
3129.47265625
 20
-0.0
 10
3119.873046875
 20
-0.0
 10
3110.2734375
 20
-0.0
 10
3100.673828125
 20
-0.0
 10
3091.07421875
 20
-0.0
 10
3081.474609375
 20
-0.0
 10
3071.875
 20
-0.0
 10
3062.275390625
 20
-0.0
 10
3052.67578125
 20
-0.0
 10
3043.076171875
 20
-0.0
 10
3033.4765625
 20
-0.0
 10
3023.876953125
 20
-0.0
 10
3014.27734375
 20
-0.0
 10
3004.677734375
 20
-0.0
 10
2995.078125
 20
-0.0
 10
2985.478515625
 20
-0.0
 10
2975.87890625
 20
-0.0
 10
2966.279296875
 20
-0.0
 10
2956.6796875
 20
-0.0
 10
2947.080078125
 20
-0.0
 10
2937.48046875
 20
-0.0
 10
2927.880859375
 20
-0.0
 10
2918.28125
 20
-0.0
 10
2908.681640625
 20
-0.0
 10
2899.08203125
 20
-0.0
 10
2889.482421875
 20
-0.0
 10
2879.8828125
 20
-0.0
 10
2870.283203125
 20
-0.0
 10
2860.68359375
 20
-0.0
 10
2851.083984375
 20
-0.0
 10
2841.484375
 20
-0.0
 10
2831.884765625
 20
-0.0
 10
2822.28515625
 20
-0.0
 10
2812.685546875
 20
-0.0
 10
2803.0859375
 20
-0.0
 10
2793.486328125
 20
-0.0
 10
2783.88671875
 20
-0.0
 10
2774.287109375
 20
-0.0
 10
2764.6875
 20
-0.0
 10
2755.087890625
 20
-0.0
 10
2745.48828125
 20
-0.0
 10
2735.888671875
 20
-0.0
 10
2726.2890625
 20
-0.0
 10
2716.689453125
 20
-0.0
 10
2707.08984375
 20
-0.0
 10
2697.490234375
 20
-0.0
 10
2687.890625
 20
-0.0
 10
2678.291015625
 20
-0.0
 10
2668.69140625
 20
-0.0
 10
2659.091796875
 20
-0.0
 10
2649.4921875
 20
-0.0
 10
2639.892578125
 20
-0.0
 10
2630.29296875
 20
-0.0
 10
2620.693359375
 20
-0.0
 10
2611.09375
 20
-0.0
 10
2601.494140625
 20
-0.0
 10
2591.89453125
 20
-0.0
 10
2582.294921875
 20
-0.0
 10
2572.6953125
 20
-0.0
 10
2563.095703125
 20
-0.0
 10
2553.49609375
 20
-0.0
 10
2543.896484375
 20
-0.0
 10
2534.296875
 20
-0.0
 10
2524.697265625
 20
-0.0
 10
2515.09765625
 20
-0.0
 10
2505.498046875
 20
-0.0
 10
2495.8984375
 20
-0.0
 10
2486.298828125
 20
-0.0
 10
2476.69921875
 20
-0.0
 10
2467.099609375
 20
-0.0
 10
2457.5
 20
-0.0
 10
2447.900390625
 20
-0.0
 10
2438.30078125
 20
-0.0
 10
2428.701171875
 20
-0.0
 10
2419.1015625
 20
-0.0
 10
2409.501953125
 20
-0.0
 10
2399.90234375
 20
-0.0
 10
2390.302734375
 20
-0.0
 10
2380.703125
 20
-0.0
 10
2371.103515625
 20
-0.0
 10
2361.50390625
 20
-0.0
 10
2351.904296875
 20
-0.0
 10
2342.3046875
 20
-0.0
 10
2332.705078125
 20
-0.0
 10
2323.10546875
 20
-0.0
 10
2313.505859375
 20
-0.0
 10
2303.90625
 20
-0.0
 10
2294.306640625
 20
-0.0
 10
2284.70703125
 20
-0.0
 10
2275.107421875
 20
-0.0
 10
2265.5078125
 20
-0.0
 10
2255.908203125
 20
-0.0
 10
2246.30859375
 20
-0.0
 10
2236.708984375
 20
-0.0
 10
2227.109375
 20
-0.0
 10
2217.509765625
 20
-0.0
 10
2207.91015625
 20
-0.0
 10
2198.310546875
 20
-0.0
 10
2188.7109375
 20
-0.0
 10
2179.111328125
 20
-0.0
 10
2169.51171875
 20
-0.0
 10
2159.912109375
 20
-0.0
 10
2150.3125
 20
-0.0
 10
2140.712890625
 20
-0.0
 10
2131.11328125
 20
-0.0
 10
2121.513671875
 20
-0.0
 10
2111.9140625
 20
-0.0
 10
2102.314453125
 20
-0.0
 10
2092.71484375
 20
-0.0
 10
2083.115234375
 20
-0.0
 10
2073.515625
 20
-0.0
 10
2063.916015625
 20
-0.0
 10
2054.31640625
 20
-0.0
 10
2044.716796875
 20
-0.0
 10
2035.1171875
 20
-0.0
 10
2025.517578125
 20
-0.0
 10
2015.91796875
 20
-0.0
 10
2006.318359375
 20
-0.0
 10
1996.71875
 20
-0.0
 10
1987.119140625
 20
-0.0
 10
1977.51953125
 20
-0.0
 10
1967.919921875
 20
-0.0
 10
1958.3203125
 20
-0.0
 10
1948.720703125
 20
-0.0
 10
1939.12109375
 20
-0.0
 10
1929.521484375
 20
-0.0
 10
1919.921875
 20
-0.0
 10
1910.322265625
 20
-0.0
 10
1900.72265625
 20
-0.0
 10
1891.123046875
 20
-0.0
 10
1881.5234375
 20
-0.0
 10
1871.923828125
 20
-0.0
 10
1862.32421875
 20
-0.0
 10
1852.724609375
 20
-0.0
 10
1843.125
 20
-0.0
 10
1833.525390625
 20
-0.0
 10
1823.92578125
 20
-0.0
 10
1814.326171875
 20
-0.0
 10
1804.7265625
 20
-0.0
 10
1795.126953125
 20
-0.0
 10
1785.52734375
 20
-0.0
 10
1775.927734375
 20
-0.0
 10
1766.328125
 20
-0.0
 10
1756.728515625
 20
-0.0
 10
1747.12890625
 20
-0.0
 10
1737.529296875
 20
-0.0
 10
1727.9296875
 20
-0.0
 10
1718.330078125
 20
-0.0
 10
1708.73046875
 20
-0.0
 10
1699.130859375
 20
-0.0
 10
1689.53125
 20
-0.0
 10
1679.931640625
 20
-0.0
 10
1670.33203125
 20
-0.0
 10
1660.732421875
 20
-0.0
 10
1651.1328125
 20
-0.0
 10
1641.533203125
 20
-0.0
 10
1631.93359375
 20
-0.0
 10
1622.333984375
 20
-0.0
 10
1612.734375
 20
-0.0
 10
1603.134765625
 20
-0.0
 10
1593.53515625
 20
-0.0
 10
1583.935546875
 20
-0.0
 10
1574.3359375
 20
-0.0
 10
1564.736328125
 20
-0.0
 10
1555.13671875
 20
-0.0
 10
1545.537109375
 20
-0.0
 10
1535.9375
 20
-0.0
 10
1526.337890625
 20
-0.0
 10
1516.73828125
 20
-0.0
 10
1507.138671875
 20
-0.0
 10
1497.5390625
 20
-0.0
 10
1487.939453125
 20
-0.0
 10
1478.33984375
 20
-0.0
 10
1468.740234375
 20
-0.0
 10
1459.140625
 20
-0.0
 10
1449.541015625
 20
-0.0
 10
1439.94140625
 20
-0.0
 10
1430.341796875
 20
-0.0
 10
1420.7421875
 20
-0.0
 10
1411.142578125
 20
-0.0
 10
1401.54296875
 20
-0.0
 10
1391.943359375
 20
-0.0
 10
1382.34375
 20
-0.0
 10
1372.744140625
 20
-0.0
 10
1363.14453125
 20
-0.0
 10
1353.544921875
 20
-0.0
 10
1343.9453125
 20
-0.0
 10
1334.345703125
 20
-0.0
 10
1324.74609375
 20
-0.0
 10
1315.146484375
 20
-0.0
 10
1305.546875
 20
-0.0
 10
1295.947265625
 20
-0.0
 10
1286.34765625
 20
-0.0
 10
1276.748046875
 20
-0.0
 10
1267.1484375
 20
-0.0
 10
1257.548828125
 20
-0.0
 10
1247.94921875
 20
-0.0
 10
1238.349609375
 20
-0.0
 10
1228.75
 20
-0.0
 10
1219.150390625
 20
-0.0
 10
1209.55078125
 20
-0.0
 10
1199.951171875
 20
-0.0
 10
1190.3515625
 20
-0.0
 10
1180.751953125
 20
-0.0
 10
1171.15234375
 20
-0.0
 10
1161.552734375
 20
-0.0
 10
1151.953125
 20
-0.0
 10
1142.353515625
 20
-0.0
 10
1132.75390625
 20
-0.0
 10
1123.154296875
 20
-0.0
 10
1113.5546875
 20
-0.0
 10
1103.955078125
 20
-0.0
 10
1094.35546875
 20
-0.0
 10
1084.755859375
 20
-0.0
 10
1075.15625
 20
-0.0
 10
1065.556640625
 20
-0.0
 10
1055.95703125
 20
-0.0
 10
1046.357421875
 20
-0.0
 10
1036.7578125
 20
-0.0
 10
1027.158203125
 20
-0.0
 10
1017.55859375
 20
-0.0
 10
1007.958984375
 20
-0.0
 10
998.359375
 20
-0.0
 10
988.759765625
 20
-0.0
 10
979.16015625
 20
-0.0
 10
969.560546875
 20
-0.0
 10
959.9609375
 20
-0.0
 10
950.361328125
 20
-0.0
 10
940.76171875
 20
-0.0
 10
931.162109375
 20
-0.0
 10
921.5625
 20
-0.0
 10
911.962890625
 20
-0.0
 10
902.36328125
 20
-0.0
 10
892.763671875
 20
-0.0
 10
883.1640625
 20
-0.0
 10
873.564453125
 20
-0.0
 10
863.96484375
 20
-0.0
 10
854.365234375
 20
-0.0
 10
844.765625
 20
-0.0
 10
835.166015625
 20
-0.0
 10
825.56640625
 20
-0.0
 10
815.966796875
 20
-0.0
 10
806.3671875
 20
-0.0
 10
796.767578125
 20
-0.0
 10
787.16796875
 20
-0.0
 10
777.568359375
 20
-0.0
 10
767.96875
 20
-0.0
 10
758.369140625
 20
-0.0
 10
748.76953125
 20
-0.0
 10
739.169921875
 20
-0.0
 10
729.5703125
 20
-0.0
 10
719.970703125
 20
-0.0
 10
710.37109375
 20
-0.0
 10
700.771484375
 20
-0.0
 10
691.171875
 20
-0.0
 10
681.572265625
 20
-0.0
 10
671.97265625
 20
-0.0
 10
662.373046875
 20
-0.0
 10
652.7734375
 20
-0.0
 10
643.173828125
 20
-0.0
 10
633.57421875
 20
-0.0
 10
623.974609375
 20
-0.0
 10
614.375
 20
-0.0
 10
604.775390625
 20
-0.0
 10
595.17578125
 20
-0.0
 10
585.576171875
 20
-0.0
 10
575.9765625
 20
-0.0
 10
566.376953125
 20
-0.0
 10
556.77734375
 20
-0.0
 10
547.177734375
 20
-0.0
 10
537.578125
 20
-0.0
 10
527.978515625
 20
-0.0
 10
518.37890625
 20
-0.0
 10
508.779296875
 20
-0.0
 10
499.1796875
 20
-0.0
 10
489.580078125
 20
-0.0
 10
479.98046875
 20
-0.0
 10
470.380859375
 20
-0.0
 10
460.78125
 20
-0.0
 10
451.181640625
 20
-0.0
 10
441.58203125
 20
-0.0
 10
431.982421875
 20
-0.0
 10
422.3828125
 20
-0.0
 10
412.783203125
 20
-0.0
 10
403.18359375
 20
-0.0
 10
393.583984375
 20
-0.0
 10
383.984375
 20
-0.0
 10
374.384765625
 20
-0.0
 10
364.78515625
 20
-0.0
 10
355.185546875
 20
-0.0
 10
345.5859375
 20
-0.0
 10
335.986328125
 20
-0.0
 10
326.38671875
 20
-0.0
 10
316.787109375
 20
-0.0
 10
307.1875
 20
-0.0
 10
297.587890625
 20
-0.0
 10
287.98828125
 20
-0.0
 10
278.388671875
 20
-0.0
 10
268.7890625
 20
-0.0
 10
259.189453125
 20
-0.0
 10
249.58984375
 20
-0.0
 10
239.990234375
 20
-0.0
 10
230.390625
 20
-0.0
 10
220.791015625
 20
-0.0
 10
211.19140625
 20
-0.0
 10
201.591796875
 20
-0.0
 10
191.9921875
 20
-0.0
 10
182.392578125
 20
-0.0
 10
172.79296875
 20
-0.0
 10
163.193359375
 20
-0.0
 10
153.59375
 20
-0.0
 10
143.994140625
 20
-0.0
 10
134.39453125
 20
-0.0
 10
124.794921875
 20
-0.0
 10
115.1953125
 20
-0.0
 10
105.595703125
 20
-0.0
 10
95.99609375
 20
-0.0
 10
86.396484375
 20
-0.0
 10
76.796875
 20
-0.0
 10
67.197265625
 20
-0.0
 10
57.59765625
 20
-0.0
 10
47.998046875
 20
-0.0
 10
38.3984375
 20
-0.0
 10
28.798828125
 20
-0.0
 10
19.19921875
 20
-0.0
 10
9.599609375
 20
-0.0
  0
LWPOLYLINE
  5
34
330
17
100
AcDbEntity
  8
substrate
100
AcDbPolyline
 90
4
 70
1
 43
0.5
 10
1622.333984375
 20
-3062.275390625
 10
1631.93359375
 20
-3052.67578125
 10
1641.533203125
 20
-3062.275390625
 10
1631.93359375
 20
-3071.875
  0
LWPOLYLINE
  5
35
330
17
100
AcDbEntity
  8
substrate
100
AcDbPolyline
 90
253
 70
1
 43
0.5
 10
2380.703125
 20
-2035.1171875
 10
2390.302734375
 20
-2025.517578125
 10
2399.90234375
 20
-2035.1171875
 10
2409.501953125
 20
-2025.517578125
 10
2419.1015625
 20
-2025.517578125
 10
2428.701171875
 20
-2025.517578125
 10
2438.30078125
 20
-2035.1171875
 10
2447.900390625
 20
-2025.517578125
 10
2457.5
 20
-2035.1171875
 10
2467.099609375
 20
-2025.517578125
 10
2476.69921875
 20
-2035.1171875
 10
2486.298828125
 20
-2025.517578125
 10
2495.8984375
 20
-2025.517578125
 10
2505.498046875
 20
-2035.1171875
 10
2515.09765625
 20
-2035.1171875
 10
2524.697265625
 20
-2035.1171875
 10
2534.296875
 20
-2035.1171875
 10
2543.896484375
 20
-2035.1171875
 10
2553.49609375
 20
-2035.1171875
 10
2563.095703125
 20
-2035.1171875
 10
2572.6953125
 20
-2044.716796875
 10
2582.294921875
 20
-2044.716796875
 10
2591.89453125
 20
-2054.31640625
 10
2601.494140625
 20
-2054.31640625
 10
2611.09375
 20
-2063.916015625
 10
2620.693359375
 20
-2063.916015625
 10
2630.29296875
 20
-2073.515625
 10
2639.892578125
 20
-2073.515625
 10
2649.4921875
 20
-2083.115234375
 10
2659.091796875
 20
-2083.115234375
 10
2668.69140625
 20
-2083.115234375
 10
2678.291015625
 20
-2092.71484375
 10
2687.890625
 20
-2092.71484375
 10
2697.490234375
 20
-2102.314453125
 10
2707.08984375
 20
-2102.314453125
 10
2716.689453125
 20
-2111.9140625
 10
2716.689453125
 20
-2121.513671875
 10
2726.2890625
 20
-2121.513671875
 10
2735.888671875
 20
-2131.11328125
 10
2735.888671875
 20
-2140.712890625
 10
2745.48828125
 20
-2150.3125
 10
2755.087890625
 20
-2159.912109375
 10
2764.6875
 20
-2169.51171875
 10
2774.287109375
 20
-2179.111328125
 10
2783.88671875
 20
-2188.7109375
 10
2793.486328125
 20
-2198.310546875
 10
2793.486328125
 20
-2207.91015625
 10
2803.0859375
 20
-2217.509765625
 10
2812.685546875
 20
-2227.109375
 10
2812.685546875
 20
-2236.708984375
 10
2822.28515625
 20
-2246.30859375
 10
2831.884765625
 20
-2255.908203125
 10
2831.884765625
 20
-2265.5078125
 10
2831.884765625
 20
-2275.107421875
 10
2841.484375
 20
-2284.70703125
 10
2841.484375
 20
-2294.306640625
 10
2841.484375
 20
-2303.90625
 10
2851.083984375
 20
-2313.505859375
 10
2851.083984375
 20
-2323.10546875
 10
2851.083984375
 20
-2332.705078125
 10
2860.68359375
 20
-2342.3046875
 10
2860.68359375
 20
-2351.904296875
 10
2870.283203125
 20
-2361.50390625
 10
2870.283203125
 20
-2371.103515625
 10
2870.283203125
 20
-2380.703125
 10
2870.283203125
 20
-2390.302734375
 10
2870.283203125
 20
-2399.90234375
 10
2879.8828125
 20
-2409.501953125
 10
2879.8828125
 20
-2419.1015625
 10
2879.8828125
 20
-2428.701171875
 10
2889.482421875
 20
-2438.30078125
 10
2889.482421875
 20
-2447.900390625
 10
2889.482421875
 20
-2457.5
 10
2889.482421875
 20
-2467.099609375
 10
2889.482421875
 20
-2476.69921875
 10
2879.8828125
 20
-2486.298828125
 10
2870.283203125
 20
-2495.8984375
 10
2879.8828125
 20
-2505.498046875
 10
2870.283203125
 20
-2515.09765625
 10
2870.283203125
 20
-2524.697265625
 10
2879.8828125
 20
-2534.296875
 10
2870.283203125
 20
-2543.896484375
 10
2870.283203125
 20
-2553.49609375
 10
2870.283203125
 20
-2563.095703125
 10
2860.68359375
 20
-2572.6953125
 10
2860.68359375
 20
-2582.294921875
 10
2851.083984375
 20
-2591.89453125
 10
2851.083984375
 20
-2601.494140625
 10
2851.083984375
 20
-2611.09375
 10
2851.083984375
 20
-2620.693359375
 10
2841.484375
 20
-2630.29296875
 10
2841.484375
 20
-2639.892578125
 10
2831.884765625
 20
-2649.4921875
 10
2831.884765625
 20
-2659.091796875
 10
2822.28515625
 20
-2668.69140625
 10
2822.28515625
 20
-2678.291015625
 10
2822.28515625
 20
-2687.890625
 10
2812.685546875
 20
-2697.490234375
 10
2803.0859375
 20
-2707.08984375
 10
2793.486328125
 20
-2716.689453125
 10
2783.88671875
 20
-2726.2890625
 10
2774.287109375
 20
-2735.888671875
 10
2764.6875
 20
-2745.48828125
 10
2755.087890625
 20
-2755.087890625
 10
2745.48828125
 20
-2755.087890625
 10
2745.48828125
 20
-2764.6875
 10
2735.888671875
 20
-2774.287109375
 10
2726.2890625
 20
-2774.287109375
 10
2716.689453125
 20
-2783.88671875
 10
2707.08984375
 20
-2793.486328125
 10
2697.490234375
 20
-2803.0859375
 10
2687.890625
 20
-2812.685546875
 10
2678.291015625
 20
-2812.685546875
 10
2668.69140625
 20
-2812.685546875
 10
2659.091796875
 20
-2822.28515625
 10
2649.4921875
 20
-2831.884765625
 10
2639.892578125
 20
-2841.484375
 10
2630.29296875
 20
-2841.484375
 10
2620.693359375
 20
-2851.083984375
 10
2611.09375
 20
-2851.083984375
 10
2601.494140625
 20
-2851.083984375
 10
2591.89453125
 20
-2860.68359375
 10
2582.294921875
 20
-2851.083984375
 10
2572.6953125
 20
-2860.68359375
 10
2563.095703125
 20
-2860.68359375
 10
2553.49609375
 20
-2860.68359375
 10
2543.896484375
 20
-2860.68359375
 10
2534.296875
 20
-2870.283203125
 10
2524.697265625
 20
-2870.283203125
 10
2515.09765625
 20
-2870.283203125
 10
2505.498046875
 20
-2870.283203125
 10
2495.8984375
 20
-2870.283203125
 10
2486.298828125
 20
-2870.283203125
 10
2476.69921875
 20
-2879.8828125
 10
2467.099609375
 20
-2870.283203125
 10
2457.5
 20
-2870.283203125
 10
2447.900390625
 20
-2879.8828125
 10
2438.30078125
 20
-2879.8828125
 10
2428.701171875
 20
-2879.8828125
 10
2419.1015625
 20
-2870.283203125
 10
2409.501953125
 20
-2870.283203125
 10
2399.90234375
 20
-2870.283203125
 10
2390.302734375
 20
-2870.283203125
 10
2380.703125
 20
-2870.283203125
 10
2371.103515625
 20
-2870.283203125
 10
2361.50390625
 20
-2870.283203125
 10
2351.904296875
 20
-2870.283203125
 10
2342.3046875
 20
-2860.68359375
 10
2332.705078125
 20
-2860.68359375
 10
2323.10546875
 20
-2851.083984375
 10
2313.505859375
 20
-2851.083984375
 10
2303.90625
 20
-2851.083984375
 10
2294.306640625
 20
-2851.083984375
 10
2284.70703125
 20
-2841.484375
 10
2284.70703125
 20
-2831.884765625
 10
2275.107421875
 20
-2831.884765625
 10
2265.5078125
 20
-2831.884765625
 10
2255.908203125
 20
-2822.28515625
 10
2246.30859375
 20
-2822.28515625
 10
2236.708984375
 20
-2822.28515625
 10
2227.109375
 20
-2812.685546875
 10
2217.509765625
 20
-2803.0859375
 10
2207.91015625
 20
-2793.486328125
 10
2198.310546875
 20
-2793.486328125
 10
2188.7109375
 20
-2783.88671875
 10
2179.111328125
 20
-2774.287109375
 10
2169.51171875
 20
-2764.6875
 10
2159.912109375
 20
-2755.087890625
 10
2150.3125
 20
-2745.48828125
 10
2140.712890625
 20
-2735.888671875
 10
2131.11328125
 20
-2726.2890625
 10
2121.513671875
 20
-2716.689453125
 10
2121.513671875
 20
-2707.08984375
 10
2111.9140625
 20
-2697.490234375
 10
2102.314453125
 20
-2687.890625
 10
2092.71484375
 20
-2678.291015625
 10
2083.115234375
 20
-2668.69140625
 10
2083.115234375
 20
-2659.091796875
 10
2073.515625
 20
-2649.4921875
 10
2073.515625
 20
-2639.892578125
 10
2063.916015625
 20
-2630.29296875
 10
2063.916015625
 20
-2620.693359375
 10
2054.31640625
 20
-2611.09375
 10
2054.31640625
 20
-2601.494140625
 10
2054.31640625
 20
-2591.89453125
 10
2054.31640625
 20
-2582.294921875
 10
2044.716796875
 20
-2572.6953125
 10
2044.716796875
 20
-2563.095703125
 10
2035.1171875
 20
-2553.49609375
 10
2035.1171875
 20
-2543.896484375
 10
2035.1171875
 20
-2534.296875
 10
2035.1171875
 20
-2524.697265625
 10
2035.1171875
 20
-2515.09765625
 10
2035.1171875
 20
-2505.498046875
 10
2035.1171875
 20
-2495.8984375
 10
2025.517578125
 20
-2486.298828125
 10
2035.1171875
 20
-2476.69921875
 10
2025.517578125
 20
-2467.099609375
 10
2035.1171875
 20
-2457.5
 10
2025.517578125
 20
-2447.900390625
 10
2025.517578125
 20
-2438.30078125
 10
2035.1171875
 20
-2428.701171875
 10
2035.1171875
 20
-2419.1015625
 10
2035.1171875
 20
-2409.501953125
 10
2035.1171875
 20
-2399.90234375
 10
2035.1171875
 20
-2390.302734375
 10
2035.1171875
 20
-2380.703125
 10
2035.1171875
 20
-2371.103515625
 10
2044.716796875
 20
-2361.50390625
 10
2044.716796875
 20
-2351.904296875
 10
2044.716796875
 20
-2342.3046875
 10
2044.716796875
 20
-2332.705078125
 10
2054.31640625
 20
-2323.10546875
 10
2054.31640625
 20
-2313.505859375
 10
2054.31640625
 20
-2303.90625
 10
2054.31640625
 20
-2294.306640625
 10
2063.916015625
 20
-2284.70703125
 10
2063.916015625
 20
-2275.107421875
 10
2073.515625
 20
-2265.5078125
 10
2073.515625
 20
-2255.908203125
 10
2083.115234375
 20
-2246.30859375
 10
2083.115234375
 20
-2236.708984375
 10
2092.71484375
 20
-2227.109375
 10
2102.314453125
 20
-2217.509765625
 10
2111.9140625
 20
-2207.91015625
 10
2121.513671875
 20
-2198.310546875
 10
2121.513671875
 20
-2188.7109375
 10
2131.11328125
 20
-2179.111328125
 10
2140.712890625
 20
-2169.51171875
 10
2150.3125
 20
-2159.912109375
 10
2159.912109375
 20
-2150.3125
 10
2169.51171875
 20
-2140.712890625
 10
2179.111328125
 20
-2131.11328125
 10
2188.7109375
 20
-2121.513671875
 10
2198.310546875
 20
-2111.9140625
 10
2207.91015625
 20
-2111.9140625
 10
2217.509765625
 20
-2102.314453125
 10
2227.109375
 20
-2092.71484375
 10
2236.708984375
 20
-2083.115234375
 10
2246.30859375
 20
-2083.115234375
 10
2255.908203125
 20
-2073.515625
 10
2265.5078125
 20
-2073.515625
 10
2275.107421875
 20
-2063.916015625
 10
2284.70703125
 20
-2063.916015625
 10
2294.306640625
 20
-2054.31640625
 10
2303.90625
 20
-2054.31640625
 10
2313.505859375
 20
-2044.716796875
 10
2323.10546875
 20
-2044.716796875
 10
2332.705078125
 20
-2044.716796875
 10
2342.3046875
 20
-2035.1171875
 10
2351.904296875
 20
-2035.1171875
 10
2361.50390625
 20
-2035.1171875
 10
2371.103515625
 20
-2035.1171875
  0
ENDSEC
  0
SECTION
  2
OBJECTS
  0
DICTIONARY
  5
A
330
0
100
AcDbDictionary
280
0
281
1
  3
ACAD_COLOR
350
B
  3
ACAD_GROUP
350
C
  3
ACAD_LAYOUT
350
D
  3
ACAD_MATERIAL
350
E
  3
ACAD_MLEADERSTYLE
350
F
  3
ACAD_MLINESTYLE
350
10
  3
ACAD_PLOTSETTINGS
350
11
  3
ACAD_PLOTSTYLENAME
350
12
  3
ACAD_SCALELIST
350
14
  3
ACAD_TABLESTYLE
350
15
  3
ACAD_VISUALSTYLE
350
16
  3
EZDXF_META
350
2D
  0
DICTIONARY
  5
B
330
A
100
AcDbDictionary
280
0
281
1
  0
DICTIONARY
  5
C
330
A
100
AcDbDictionary
280
0
281
1
  0
DICTIONARY
  5
D
330
A
100
AcDbDictionary
280
0
281
1
  3
Model
350
1A
  3
Layout1
350
1E
  0
DICTIONARY
  5
E
330
A
100
AcDbDictionary
280
0
281
1
  3
ByBlock
350
1F
  3
ByLayer
350
20
  3
Global
350
21
  0
DICTIONARY
  5
F
330
A
100
AcDbDictionary
280
0
281
1
  3
Standard
350
2C
  0
DICTIONARY
  5
10
330
A
100
AcDbDictionary
280
0
281
1
  3
Standard
350
22
  0
DICTIONARY
  5
11
330
A
100
AcDbDictionary
280
0
281
1
  0
ACDBDICTIONARYWDFLT
  5
12
330
A
100
AcDbDictionary
280
0
281
1
  3
Normal
350
13
100
AcDbDictionaryWithDefault
340
13
  0
ACDBPLACEHOLDER
  5
13
330
12
  0
DICTIONARY
  5
14
330
A
100
AcDbDictionary
280
0
281
1
  0
DICTIONARY
  5
15
330
A
100
AcDbDictionary
280
0
281
1
  0
DICTIONARY
  5
16
330
A
100
AcDbDictionary
280
0
281
1
  0
LAYOUT
  5
1A
330
D
100
AcDbPlotSettings
  1

  2
Adobe PDF
  4
A3
  6

 40
7.5
 41
20.0
 42
7.5
 43
20.0
 44
420.0
 45
297.0
 46
0.0
 47
0.0
 48
0.0
 49
0.0
140
0.0
141
0.0
142
1.0
143
1.0
 70
1024
 72
1
 73
0
 74
5
  7

 75
16
 76
0
 77
2
 78
300
147
1.0
148
0.0
149
0.0
100
AcDbLayout
  1
Model
 70
1
 71
0
 10
0.0
 20
0.0
 11
420.0
 21
297.0
 12
0.0
 22
0.0
 32
0.0
 14
1e+20
 24
1e+20
 34
1e+20
 15
-1e+20
 25
-1e+20
 35
-1e+20
146
0.0
 13
0.0
 23
0.0
 33
0.0
 16
1.0
 26
0.0
 36
0.0
 17
0.0
 27
1.0
 37
0.0
 76
1
330
17
  0
LAYOUT
  5
1E
330
D
100
AcDbPlotSettings
  1

  2
Adobe PDF
  4
A3
  6

 40
7.5
 41
20.0
 42
7.5
 43
20.0
 44
420.0
 45
297.0
 46
0.0
 47
0.0
 48
0.0
 49
0.0
140
0.0
141
0.0
142
1.0
143
1.0
 70
0
 72
1
 73
0
 74
5
  7

 75
16
 76
0
 77
2
 78
300
147
1.0
148
0.0
149
0.0
100
AcDbLayout
  1
Layout1
 70
1
 71
1
 10
0.0
 20
0.0
 11
420.0
 21
297.0
 12
0.0
 22
0.0
 32
0.0
 14
1e+20
 24
1e+20
 34
1e+20
 15
-1e+20
 25
-1e+20
 35
-1e+20
146
0.0
 13
0.0
 23
0.0
 33
0.0
 16
1.0
 26
0.0
 36
0.0
 17
0.0
 27
1.0
 37
0.0
 76
1
330
1B
  0
MATERIAL
  5
1F
102
{ACAD_REACTORS
330
E
102
}
330
E
100
AcDbMaterial
  1
ByBlock
  2

 70
0
 40
1.0
 71
1
 41
1.0
 91
-1023410177
 42
1.0
 72
1
  3

 73
1
 74
1
 75
1
 44
0.5
 73
0
 45
1.0
 46
1.0
 77
1
  4

 78
1
 79
1
170
1
 48
1.0
171
1
  6

172
1
173
1
174
1
140
1.0
141
1.0
175
1
  7

176
1
177
1
178
1
143
1.0
179
1
  8

270
1
271
1
272
1
145
1.0
146
1.0
273
1
  9

274
1
275
1
276
1
 42
1.0
 72
1
  3

 73
1
 74
1
 75
1
 94
63
  0
MATERIAL
  5
20
102
{ACAD_REACTORS
330
E
102
}
330
E
100
AcDbMaterial
  1
ByLayer
  2

 70
0
 40
1.0
 71
1
 41
1.0
 91
-1023410177
 42
1.0
 72
1
  3

 73
1
 74
1
 75
1
 44
0.5
 73
0
 45
1.0
 46
1.0
 77
1
  4

 78
1
 79
1
170
1
 48
1.0
171
1
  6

172
1
173
1
174
1
140
1.0
141
1.0
175
1
  7

176
1
177
1
178
1
143
1.0
179
1
  8

270
1
271
1
272
1
145
1.0
146
1.0
273
1
  9

274
1
275
1
276
1
 42
1.0
 72
1
  3

 73
1
 74
1
 75
1
 94
63
  0
MATERIAL
  5
21
102
{ACAD_REACTORS
330
E
102
}
330
E
100
AcDbMaterial
  1
Global
  2

 70
0
 40
1.0
 71
1
 41
1.0
 91
-1023410177
 42
1.0
 72
1
  3

 73
1
 74
1
 75
1
 44
0.5
 73
0
 45
1.0
 46
1.0
 77
1
  4

 78
1
 79
1
170
1
 48
1.0
171
1
  6

172
1
173
1
174
1
140
1.0
141
1.0
175
1
  7

176
1
177
1
178
1
143
1.0
179
1
  8

270
1
271
1
272
1
145
1.0
146
1.0
273
1
  9

274
1
275
1
276
1
 42
1.0
 72
1
  3

 73
1
 74
1
 75
1
 94
63
  0
MLINESTYLE
  5
22
102
{ACAD_REACTORS
330
10
102
}
330
10
100
AcDbMlineStyle
  2
Standard
 70
0
  3

 62
256
 51
90.0
 52
90.0
 71
2
 49
0.5
 62
256
  6
BYLAYER
 49
-0.5
 62
256
  6
BYLAYER
  0
MLEADERSTYLE
  5
2C
102
{ACAD_REACTORS
330
F
102
}
330
F
100
AcDbMLeaderStyle
179
2
170
2
171
1
172
0
 90
2
 40
0.0
 41
0.0
173
1
 91
-1056964608
 92
-2
290
1
 42
2.0
291
1
 43
8.0
  3
Standard
 44
4.0
300

342
29
174
1
175
1
176
0
178
1
 93
-1056964608
 45
4.0
292
0
297
0
 46
4.0
 94
-1056964608
 47
1.0
 49
1.0
140
1.0
294
1
141
0.0
177
0
142
1.0
295
0
296
0
143
3.75
271
0
272
9
273
9
  0
DICTIONARY
  5
2D
330
A
100
AcDbDictionary
281
1
  3
CREATED_BY_EZDXF
350
2E
  3
WRITTEN_BY_EZDXF
350
38
  0
DICTIONARYVAR
  5
2E
330
2D
100
DictionaryVariables
280
0
  1
1.1.0 @ 2025-02-03T01:25:49.245882+00:00
  0
DICTIONARYVAR
  5
38
330
2D
100
DictionaryVariables
280
0
  1
1.1.0 @ 2025-02-03T01:25:49.250847+00:00
  0
ENDSEC
  0
EOF
