  0
SECTION
  2
HEADER
  9
$ACADVER
  1
AC1027
  9
$ACADMAINTVER
 70
105
  9
$DWGCODEPAGE
  3
ANSI_1252
  9
$LASTSAVEDBY
  1
ezdxf
  9
$REQUIREDVERSIONS
160
0
  9
$INSBASE
 10
0.0
 20
0.0
 30
0.0
  9
$EXTMIN
 10
1e+20
 20
1e+20
 30
1e+20
  9
$EXTMAX
 10
-1e+20
 20
-1e+20
 30
-1e+20
  9
$LIMMIN
 10
0.0
 20
0.0
  9
$LIMMAX
 10
420.0
 20
297.0
  9
$ORTHOMODE
 70
0
  9
$REGENMODE
 70
1
  9
$FILLMODE
 70
1
  9
$QTEXTMODE
 70
0
  9
$MIRRTEXT
 70
1
  9
$LTSCALE
 40
1.0
  9
$ATTMODE
 70
1
  9
$TEXTSIZE
 40
2.5
  9
$TRACEWID
 40
1.0
  9
$TEXTSTYLE
  7
Standard
  9
$CLAYER
  8
0
  9
$CELTYPE
  6
ByLayer
  9
$CECOLOR
 62
256
  9
$CELTSCALE
 40
1.0
  9
$DISPSILH
 70
0
  9
$DIMSCALE
 40
1.0
  9
$DIMASZ
 40
2.5
  9
$DIMEXO
 40
0.625
  9
$DIMDLI
 40
3.75
  9
$DIMRND
 40
0.0
  9
$DIMDLE
 40
0.0
  9
$DIMEXE
 40
1.25
  9
$DIMTP
 40
0.0
  9
$DIMTM
 40
0.0
  9
$DIMTXT
 40
2.5
  9
$DIMCEN
 40
2.5
  9
$DIMTSZ
 40
0.0
  9
$DIMTOL
 70
0
  9
$DIMLIM
 70
0
  9
$DIMTIH
 70
0
  9
$DIMTOH
 70
0
  9
$DIMSE1
 70
0
  9
$DIMSE2
 70
0
  9
$DIMTAD
 70
1
  9
$DIMZIN
 70
8
  9
$DIMBLK
  1

  9
$DIMASO
 70
1
  9
$DIMSHO
 70
1
  9
$DIMPOST
  1

  9
$DIMAPOST
  1

  9
$DIMALT
 70
0
  9
$DIMALTD
 70
3
  9
$DIMALTF
 40
0.03937007874
  9
$DIMLFAC
 40
1.0
  9
$DIMTOFL
 70
1
  9
$DIMTVP
 40
0.0
  9
$DIMTIX
 70
0
  9
$DIMSOXD
 70
0
  9
$DIMSAH
 70
0
  9
$DIMBLK1
  1

  9
$DIMBLK2
  1

  9
$DIMSTYLE
  2
ISO-25
  9
$DIMCLRD
 70
0
  9
$DIMCLRE
 70
0
  9
$DIMCLRT
 70
0
  9
$DIMTFAC
 40
1.0
  9
$DIMGAP
 40
0.625
  9
$DIMJUST
 70
0
  9
$DIMSD1
 70
0
  9
$DIMSD2
 70
0
  9
$DIMTOLJ
 70
0
  9
$DIMTZIN
 70
8
  9
$DIMALTZ
 70
0
  9
$DIMALTTZ
 70
0
  9
$DIMUPT
 70
0
  9
$DIMDEC
 70
2
  9
$DIMTDEC
 70
2
  9
$DIMALTU
 70
2
  9
$DIMALTTD
 70
3
  9
$DIMTXSTY
  7
Standard
  9
$DIMAUNIT
 70
0
  9
$DIMADEC
 70
0
  9
$DIMALTRND
 40
0.0
  9
$DIMAZIN
 70
0
  9
$DIMDSEP
 70
44
  9
$DIMATFIT
 70
3
  9
$DIMFRAC
 70
0
  9
$DIMLDRBLK
  1

  9
$DIMLUNIT
 70
2
  9
$DIMLWD
 70
-2
  9
$DIMLWE
 70
-2
  9
$DIMTMOVE
 70
0
  9
$DIMFXL
 40
1.0
  9
$DIMFXLON
 70
0
  9
$DIMJOGANG
 40
0.785398163397
  9
$DIMTFILL
 70
0
  9
$DIMTFILLCLR
 70
0
  9
$DIMARCSYM
 70
0
  9
$DIMLTYPE
  6

  9
$DIMLTEX1
  6

  9
$DIMLTEX2
  6

  9
$DIMTXTDIRECTION
 70
0
  9
$LUNITS
 70
2
  9
$LUPREC
 70
4
  9
$SKETCHINC
 40
1.0
  9
$FILLETRAD
 40
10.0
  9
$AUNITS
 70
0
  9
$AUPREC
 70
2
  9
$MENU
  1
.
  9
$ELEVATION
 40
0.0
  9
$PELEVATION
 40
0.0
  9
$THICKNESS
 40
0.0
  9
$LIMCHECK
 70
0
  9
$CHAMFERA
 40
0.0
  9
$CHAMFERB
 40
0.0
  9
$CHAMFERC
 40
0.0
  9
$CHAMFERD
 40
0.0
  9
$SKPOLY
 70
0
  9
$TDCREATE
 40
2460676.3979282407
  9
$TDUCREATE
 40
2458532.153996898
  9
$TDUPDATE
 40
2460676.3979282407
  9
$TDUUPDATE
 40
2458532.1544311
  9
$TDINDWG
 40
0.0
  9
$TDUSRTIMER
 40
0.0
  9
$USRTIMER
 70
1
  9
$ANGBASE
 50
0.0
  9
$ANGDIR
 70
0
  9
$PDMODE
 70
0
  9
$PDSIZE
 40
0.0
  9
$PLINEWID
 40
0.0
  9
$SPLFRAME
 70
0
  9
$SPLINETYPE
 70
6
  9
$SPLINESEGS
 70
8
  9
$HANDSEED
  5
44
  9
$SURFTAB1
 70
6
  9
$SURFTAB2
 70
6
  9
$SURFTYPE
 70
6
  9
$SURFU
 70
6
  9
$SURFV
 70
6
  9
$UCSBASE
  2

  9
$UCSNAME
  2

  9
$UCSORG
 10
0.0
 20
0.0
 30
0.0
  9
$UCSXDIR
 10
1.0
 20
0.0
 30
0.0
  9
$UCSYDIR
 10
0.0
 20
1.0
 30
0.0
  9
$UCSORTHOREF
  2

  9
$UCSORTHOVIEW
 70
0
  9
$UCSORGTOP
 10
0.0
 20
0.0
 30
0.0
  9
$UCSORGBOTTOM
 10
0.0
 20
0.0
 30
0.0
  9
$UCSORGLEFT
 10
0.0
 20
0.0
 30
0.0
  9
$UCSORGRIGHT
 10
0.0
 20
0.0
 30
0.0
  9
$UCSORGFRONT
 10
0.0
 20
0.0
 30
0.0
  9
$UCSORGBACK
 10
0.0
 20
0.0
 30
0.0
  9
$PUCSBASE
  2

  9
$PUCSNAME
  2

  9
$PUCSORG
 10
0.0
 20
0.0
 30
0.0
  9
$PUCSXDIR
 10
1.0
 20
0.0
 30
0.0
  9
$PUCSYDIR
 10
0.0
 20
1.0
 30
0.0
  9
$PUCSORTHOREF
  2

  9
$PUCSORTHOVIEW
 70
0
  9
$PUCSORGTOP
 10
0.0
 20
0.0
 30
0.0
  9
$PUCSORGBOTTOM
 10
0.0
 20
0.0
 30
0.0
  9
$PUCSORGLEFT
 10
0.0
 20
0.0
 30
0.0
  9
$PUCSORGRIGHT
 10
0.0
 20
0.0
 30
0.0
  9
$PUCSORGFRONT
 10
0.0
 20
0.0
 30
0.0
  9
$PUCSORGBACK
 10
0.0
 20
0.0
 30
0.0
  9
$USERI1
 70
0
  9
$USERI2
 70
0
  9
$USERI3
 70
0
  9
$USERI4
 70
0
  9
$USERI5
 70
0
  9
$USERR1
 40
0.0
  9
$USERR2
 40
0.0
  9
$USERR3
 40
0.0
  9
$USERR4
 40
0.0
  9
$USERR5
 40
0.0
  9
$WORLDVIEW
 70
1
  9
$SHADEDGE
 70
3
  9
$SHADEDIF
 70
70
  9
$TILEMODE
 70
1
  9
$MAXACTVP
 70
64
  9
$PINSBASE
 10
0.0
 20
0.0
 30
0.0
  9
$PLIMCHECK
 70
0
  9
$PEXTMIN
 10
1e+20
 20
1e+20
 30
1e+20
  9
$PEXTMAX
 10
-1e+20
 20
-1e+20
 30
-1e+20
  9
$PLIMMIN
 10
0.0
 20
0.0
  9
$PLIMMAX
 10
420.0
 20
297.0
  9
$UNITMODE
 70
0
  9
$VISRETAIN
 70
1
  9
$PLINEGEN
 70
0
  9
$PSLTSCALE
 70
1
  9
$TREEDEPTH
 70
3020
  9
$CMLSTYLE
  2
Standard
  9
$CMLJUST
 70
0
  9
$CMLSCALE
 40
20.0
  9
$PROXYGRAPHICS
 70
1
  9
$MEASUREMENT
 70
1
  9
$CELWEIGHT
370
-1
  9
$ENDCAPS
280
0
  9
$JOINSTYLE
280
0
  9
$LWDISPLAY
290
0
  9
$INSUNITS
 70
6
  9
$HYPERLINKBASE
  1

  9
$STYLESHEET
  1

  9
$XEDIT
290
1
  9
$CEPSNTYPE
380
0
  9
$PSTYLEMODE
290
1
  9
$FINGERPRINTGUID
  2
{E399FED1-EBC3-4007-AE68-4FCBE876722D}
  9
$VERSIONGUID
  2
{8CB64985-F0D5-40B0-8582-8429E6099F66}
  9
$EXTNAMES
290
1
  9
$PSVPSCALE
 40
0.0
  9
$OLESTARTUP
290
0
  9
$SORTENTS
280
127
  9
$INDEXCTL
280
0
  9
$HIDETEXT
280
1
  9
$XCLIPFRAME
280
0
  9
$HALOGAP
280
0
  9
$OBSCOLOR
 70
257
  9
$OBSLTYPE
280
0
  9
$INTERSECTIONDISPLAY
280
0
  9
$INTERSECTIONCOLOR
 70
257
  9
$DIMASSOC
280
2
  9
$PROJECTNAME
  1

  9
$CAMERADISPLAY
290
0
  9
$LENSLENGTH
 40
50.0
  9
$CAMERAHEIGHT
 40
0.0
  9
$STEPSPERSEC
 40
24.0
  9
$STEPSIZE
 40
100.0
  9
$3DDWFPREC
 40
2.0
  9
$PSOLWIDTH
 40
0.005
  9
$PSOLHEIGHT
 40
0.08
  9
$LOFTANG1
 40
1.570796326795
  9
$LOFTANG2
 40
1.570796326795
  9
$LOFTMAG1
 40
0.0
  9
$LOFTMAG2
 40
0.0
  9
$LOFTPARAM
 70
7
  9
$LOFTNORMALS
280
1
  9
$LATITUDE
 40
37.795
  9
$LONGITUDE
 40
-122.394
  9
$NORTHDIRECTION
 40
0.0
  9
$TIMEZONE
 70
-8000
  9
$LIGHTGLYPHDISPLAY
280
1
  9
$TILEMODELIGHTSYNCH
280
1
  9
$CMATERIAL
347
20
  9
$SOLIDHIST
280
0
  9
$SHOWHIST
280
1
  9
$DWFFRAME
280
2
  9
$DGNFRAME
280
2
  9
$REALWORLDSCALE
290
1
  9
$INTERFERECOLOR
 62
256
  9
$CSHADOW
280
0
  9
$SHADOWPLANELOCATION
 40
0.0
  0
ENDSEC
  0
SECTION
  2
CLASSES
  0
CLASS
  1
ACDBDICTIONARYWDFLT
  2
AcDbDictionaryWithDefault
  3
ObjectDBX Classes
 90
0
 91
0
280
0
281
0
  0
CLASS
  1
SUN
  2
AcDbSun
  3
SCENEOE
 90
1153
 91
0
280
0
281
0
  0
CLASS
  1
VISUALSTYLE
  2
AcDbVisualStyle
  3
ObjectDBX Classes
 90
4095
 91
0
280
0
281
0
  0
CLASS
  1
MATERIAL
  2
AcDbMaterial
  3
ObjectDBX Classes
 90
1153
 91
0
280
0
281
0
  0
CLASS
  1
SCALE
  2
AcDbScale
  3
ObjectDBX Classes
 90
1153
 91
0
280
0
281
0
  0
CLASS
  1
TABLESTYLE
  2
AcDbTableStyle
  3
ObjectDBX Classes
 90
4095
 91
0
280
0
281
0
  0
CLASS
  1
MLEADERSTYLE
  2
AcDbMLeaderStyle
  3
ACDB_MLEADERSTYLE_CLASS
 90
4095
 91
0
280
0
281
0
  0
CLASS
  1
DICTIONARYVAR
  2
AcDbDictionaryVar
  3
ObjectDBX Classes
 90
0
 91
0
280
0
281
0
  0
CLASS
  1
CELLSTYLEMAP
  2
AcDbCellStyleMap
  3
ObjectDBX Classes
 90
1152
 91
0
280
0
281
0
  0
CLASS
  1
MENTALRAYRENDERSETTINGS
  2
AcDbMentalRayRenderSettings
  3
SCENEOE
 90
1024
 91
0
280
0
281
0
  0
CLASS
  1
ACDBDETAILVIEWSTYLE
  2
AcDbDetailViewStyle
  3
ObjectDBX Classes
 90
1025
 91
0
280
0
281
0
  0
CLASS
  1
ACDBSECTIONVIEWSTYLE
  2
AcDbSectionViewStyle
  3
ObjectDBX Classes
 90
1025
 91
0
280
0
281
0
  0
CLASS
  1
RASTERVARIABLES
  2
AcDbRasterVariables
  3
ISM
 90
0
 91
0
280
0
281
0
  0
CLASS
  1
LAYOUT
  2
AcDbLayout
  3
ObjectDBX Classes
 90
0
 91
0
280
0
281
0
  0
CLASS
  1
ACDBPLACEHOLDER
  2
AcDbPlaceHolder
  3
ObjectDBX Classes
 90
0
 91
0
280
0
281
0
  0
ENDSEC
  0
SECTION
  2
TABLES
  0
TABLE
  2
VPORT
  5
8
330
0
100
AcDbSymbolTable
 70
1
  0
VPORT
  5
23
330
8
100
AcDbSymbolTableRecord
100
AcDbViewportTableRecord
  2
*Active
 70
0
 10
0.0
 20
0.0
 11
1.0
 21
1.0
 12
0.0
 22
0.0
 13
0.0
 23
0.0
 14
0.5
 24
0.5
 15
0.5
 25
0.5
 16
0.0
 26
0.0
 36
1.0
 17
0.0
 27
0.0
 37
0.0
 40
1000.0
 41
1.34
 42
50.0
 43
0.0
 44
0.0
 50
0.0
 51
0.0
 71
0
 72
1000
 73
1
 74
3
 75
0
 76
0
 77
0
 78
0
281
0
 65
0
146
0.0
  0
ENDTAB
  0
TABLE
  2
LTYPE
  5
2
330
0
100
AcDbSymbolTable
 70
3
  0
LTYPE
  5
24
330
2
100
AcDbSymbolTableRecord
100
AcDbLinetypeTableRecord
  2
ByBlock
 70
0
  3

 72
65
 73
0
 40
0.0
  0
LTYPE
  5
25
330
2
100
AcDbSymbolTableRecord
100
AcDbLinetypeTableRecord
  2
ByLayer
 70
0
  3

 72
65
 73
0
 40
0.0
  0
LTYPE
  5
26
330
2
100
AcDbSymbolTableRecord
100
AcDbLinetypeTableRecord
  2
Continuous
 70
0
  3

 72
65
 73
0
 40
0.0
  0
ENDTAB
  0
TABLE
  2
LAYER
  5
1
330
0
100
AcDbSymbolTable
 70
5
  0
LAYER
  5
27
330
1
100
AcDbSymbolTableRecord
100
AcDbLayerTableRecord
  2
0
 70
0
 62
7
  6
Continuous
370
-3
390
13
347
21
  0
LAYER
  5
28
330
1
100
AcDbSymbolTableRecord
100
AcDbLayerTableRecord
  2
Defpoints
 70
0
 62
7
  6
Continuous
290
0
370
-3
390
13
347
21
  0
LAYER
  5
2F
330
1
100
AcDbSymbolTableRecord
100
AcDbLayerTableRecord
  2
conductor
 70
0
 62
1
  6
Continuous
370
-3
390
13
347
21
  0
LAYER
  5
30
330
1
100
AcDbSymbolTableRecord
100
AcDbLayerTableRecord
  2
dielectric
 70
0
 62
8
  6
Continuous
370
-3
390
13
347
21
  0
LAYER
  5
31
330
1
100
AcDbSymbolTableRecord
100
AcDbLayerTableRecord
  2
substrate
 70
0
 62
5
  6
Continuous
370
-3
390
13
347
21
  0
ENDTAB
  0
TABLE
  2
STYLE
  5
5
330
0
100
AcDbSymbolTable
 70
1
  0
STYLE
  5
29
330
5
100
AcDbSymbolTableRecord
100
AcDbTextStyleTableRecord
  2
Standard
 70
0
 40
0.0
 41
1.0
 50
0.0
 71
0
 42
2.5
  3
txt
  4

  0
ENDTAB
  0
TABLE
  2
VIEW
  5
7
330
0
100
AcDbSymbolTable
 70
0
  0
ENDTAB
  0
TABLE
  2
UCS
  5
6
330
0
100
AcDbSymbolTable
 70
0
  0
ENDTAB
  0
TABLE
  2
APPID
  5
3
330
0
100
AcDbSymbolTable
 70
3
  0
APPID
  5
2A
330
3
100
AcDbSymbolTableRecord
100
AcDbRegAppTableRecord
  2
ACAD
 70
0
  0
APPID
  5
41
330
3
100
AcDbSymbolTableRecord
100
AcDbRegAppTableRecord
  2
HATCHBACKGROUNDCOLOR
 70
0
  0
APPID
  5
42
330
3
100
AcDbSymbolTableRecord
100
AcDbRegAppTableRecord
  2
EZDXF
 70
0
  0
ENDTAB
  0
TABLE
  2
DIMSTYLE
  5
4
330
0
100
AcDbSymbolTable
 70
1
100
AcDbDimStyleTable
  0
DIMSTYLE
105
2B
330
4
100
AcDbSymbolTableRecord
100
AcDbDimStyleTableRecord
  2
Standard
 70
0
 40
1.0
 41
2.5
 42
0.625
 43
3.75
 44
1.25
 45
0.0
 46
0.0
 47
0.0
 48
0.0
 49
2.5
140
2.5
141
2.5
142
0.0
143
0.03937007874
144
1.0
145
0.0
146
1.0
147
0.625
148
0.0
 69
0
 70
0
 71
0
 72
0
 73
0
 74
0
 75
0
 76
0
 77
1
 78
8
 79
3
170
0
171
3
172
1
173
0
174
0
175
0
176
0
177
0
178
0
179
2
271
2
272
2
273
2
274
3
275
0
276
0
277
2
278
44
279
0
280
0
281
0
282
0
283
0
284
8
285
0
286
0
288
0
289
3
290
0
371
-2
372
-2
  0
ENDTAB
  0
TABLE
  2
BLOCK_RECORD
  5
9
330
0
100
AcDbSymbolTable
 70
2
  0
BLOCK_RECORD
  5
17
330
9
100
AcDbSymbolTableRecord
100
AcDbBlockTableRecord
  2
*Model_Space
340
1A
 70
0
280
1
281
0
  0
BLOCK_RECORD
  5
1B
330
9
100
AcDbSymbolTableRecord
100
AcDbBlockTableRecord
  2
*Paper_Space
340
1E
 70
0
280
1
281
0
  0
ENDTAB
  0
ENDSEC
  0
SECTION
  2
BLOCKS
  0
BLOCK
  5
18
330
17
100
AcDbEntity
  8
0
100
AcDbBlockBegin
  2
*Model_Space
 70
0
 10
0.0
 20
0.0
 30
0.0
  3
*Model_Space
  1

  0
ENDBLK
  5
19
330
17
100
AcDbEntity
  8
0
100
AcDbBlockEnd
  0
BLOCK
  5
1C
330
1B
100
AcDbEntity
  8
0
100
AcDbBlockBegin
  2
*Paper_Space
 70
0
 10
0.0
 20
0.0
 30
0.0
  3
*Paper_Space
  1

  0
ENDBLK
  5
1D
330
1B
100
AcDbEntity
  8
0
100
AcDbBlockEnd
  0
ENDSEC
  0
SECTION
  2
ENTITIES
  0
LWPOLYLINE
  5
32
330
17
100
AcDbEntity
  8
conductor
100
AcDbPolyline
 90
215
 70
1
 43
0.5
 10
2404.599609375
 20
-2088.45703125
 10
2395.01953125
 20
-2098.037109375
 10
2385.439453125
 20
-2098.037109375
 10
2375.859375
 20
-2098.037109375
 10
2366.279296875
 20
-2098.037109375
 10
2356.69921875
 20
-2098.037109375
 10
2347.119140625
 20
-2107.6171875
 10
2337.5390625
 20
-2107.6171875
 10
2327.958984375
 20
-2107.6171875
 10
2318.37890625
 20
-2107.6171875
 10
2308.798828125
 20
-2117.197265625
 10
2299.21875
 20
-2126.77734375
 10
2289.638671875
 20
-2126.77734375
 10
2280.05859375
 20
-2126.77734375
 10
2270.478515625
 20
-2136.357421875
 10
2260.8984375
 20
-2145.9375
 10
2251.318359375
 20
-2145.9375
 10
2241.73828125
 20
-2155.517578125
 10
2232.158203125
 20
-2165.09765625
 10
2222.578125
 20
-2174.677734375
 10
2212.998046875
 20
-2184.2578125
 10
2203.41796875
 20
-2184.2578125
 10
2193.837890625
 20
-2193.837890625
 10
2184.2578125
 20
-2203.41796875
 10
2174.677734375
 20
-2212.998046875
 10
2174.677734375
 20
-2222.578125
 10
2165.09765625
 20
-2232.158203125
 10
2155.517578125
 20
-2241.73828125
 10
2155.517578125
 20
-2251.318359375
 10
2145.9375
 20
-2260.8984375
 10
2145.9375
 20
-2270.478515625
 10
2136.357421875
 20
-2280.05859375
 10
2136.357421875
 20
-2289.638671875
 10
2126.77734375
 20
-2299.21875
 10
2126.77734375
 20
-2308.798828125
 10
2117.197265625
 20
-2318.37890625
 10
2117.197265625
 20
-2327.958984375
 10
2107.6171875
 20
-2337.5390625
 10
2107.6171875
 20
-2347.119140625
 10
2107.6171875
 20
-2356.69921875
 10
2098.037109375
 20
-2366.279296875
 10
2098.037109375
 20
-2375.859375
 10
2098.037109375
 20
-2385.439453125
 10
2098.037109375
 20
-2395.01953125
 10
2098.037109375
 20
-2404.599609375
 10
2098.037109375
 20
-2414.1796875
 10
2088.45703125
 20
-2423.759765625
 10
2088.45703125
 20
-2433.33984375
 10
2098.037109375
 20
-2442.919921875
 10
2098.037109375
 20
-2452.5
 10
2098.037109375
 20
-2462.080078125
 10
2098.037109375
 20
-2471.66015625
 10
2098.037109375
 20
-2481.240234375
 10
2098.037109375
 20
-2490.8203125
 10
2098.037109375
 20
-2500.400390625
 10
2098.037109375
 20
-2509.98046875
 10
2107.6171875
 20
-2519.560546875
 10
2107.6171875
 20
-2529.140625
 10
2107.6171875
 20
-2538.720703125
 10
2107.6171875
 20
-2548.30078125
 10
2107.6171875
 20
-2557.880859375
 10
2117.197265625
 20
-2567.4609375
 10
2117.197265625
 20
-2577.041015625
 10
2117.197265625
 20
-2586.62109375
 10
2126.77734375
 20
-2596.201171875
 10
2126.77734375
 20
-2605.78125
 10
2136.357421875
 20
-2615.361328125
 10
2136.357421875
 20
-2624.94140625
 10
2145.9375
 20
-2634.521484375
 10
2155.517578125
 20
-2644.1015625
 10
2155.517578125
 20
-2653.681640625
 10
2155.517578125
 20
-2663.26171875
 10
2165.09765625
 20
-2672.841796875
 10
2174.677734375
 20
-2682.421875
 10
2184.2578125
 20
-2692.001953125
 10
2193.837890625
 20
-2701.58203125
 10
2203.41796875
 20
-2711.162109375
 10
2212.998046875
 20
-2720.7421875
 10
2222.578125
 20
-2720.7421875
 10
2232.158203125
 20
-2730.322265625
 10
2241.73828125
 20
-2730.322265625
 10
2251.318359375
 20
-2739.90234375
 10
2251.318359375
 20
-2749.482421875
 10
2260.8984375
 20
-2749.482421875
 10
2270.478515625
 20
-2759.0625
 10
2280.05859375
 20
-2768.642578125
 10
2289.638671875
 20
-2768.642578125
 10
2299.21875
 20
-2778.22265625
 10
2308.798828125
 20
-2778.22265625
 10
2318.37890625
 20
-2778.22265625
 10
2327.958984375
 20
-2787.802734375
 10
2337.5390625
 20
-2787.802734375
 10
2347.119140625
 20
-2787.802734375
 10
2356.69921875
 20
-2787.802734375
 10
2366.279296875
 20
-2797.3828125
 10
2375.859375
 20
-2797.3828125
 10
2385.439453125
 20
-2797.3828125
 10
2395.01953125
 20
-2797.3828125
 10
2404.599609375
 20
-2806.962890625
 10
2414.1796875
 20
-2806.962890625
 10
2423.759765625
 20
-2806.962890625
 10
2433.33984375
 20
-2806.962890625
 10
2442.919921875
 20
-2806.962890625
 10
2452.5
 20
-2806.962890625
 10
2462.080078125
 20
-2797.3828125
 10
2471.66015625
 20
-2806.962890625
 10
2481.240234375
 20
-2806.962890625
 10
2490.8203125
 20
-2806.962890625
 10
2500.400390625
 20
-2806.962890625
 10
2509.98046875
 20
-2797.3828125
 10
2519.560546875
 20
-2797.3828125
 10
2529.140625
 20
-2797.3828125
 10
2538.720703125
 20
-2787.802734375
 10
2548.30078125
 20
-2787.802734375
 10
2557.880859375
 20
-2787.802734375
 10
2567.4609375
 20
-2778.22265625
 10
2577.041015625
 20
-2778.22265625
 10
2586.62109375
 20
-2768.642578125
 10
2596.201171875
 20
-2768.642578125
 10
2605.78125
 20
-2768.642578125
 10
2615.361328125
 20
-2759.0625
 10
2624.94140625
 20
-2759.0625
 10
2634.521484375
 20
-2749.482421875
 10
2644.1015625
 20
-2749.482421875
 10
2653.681640625
 20
-2749.482421875
 10
2663.26171875
 20
-2739.90234375
 10
2672.841796875
 20
-2739.90234375
 10
2672.841796875
 20
-2730.322265625
 10
2682.421875
 20
-2720.7421875
 10
2692.001953125
 20
-2711.162109375
 10
2701.58203125
 20
-2701.58203125
 10
2711.162109375
 20
-2692.001953125
 10
2720.7421875
 20
-2692.001953125
 10
2730.322265625
 20
-2682.421875
 10
2739.90234375
 20
-2672.841796875
 10
2749.482421875
 20
-2663.26171875
 10
2749.482421875
 20
-2653.681640625
 10
2749.482421875
 20
-2644.1015625
 10
2759.0625
 20
-2634.521484375
 10
2759.0625
 20
-2624.94140625
 10
2768.642578125
 20
-2615.361328125
 10
2768.642578125
 20
-2605.78125
 10
2768.642578125
 20
-2596.201171875
 10
2778.22265625
 20
-2586.62109375
 10
2787.802734375
 20
-2577.041015625
 10
2787.802734375
 20
-2567.4609375
 10
2787.802734375
 20
-2557.880859375
 10
2797.3828125
 20
-2548.30078125
 10
2797.3828125
 20
-2538.720703125
 10
2797.3828125
 20
-2529.140625
 10
2806.962890625
 20
-2519.560546875
 10
2797.3828125
 20
-2509.98046875
 10
2797.3828125
 20
-2500.400390625
 10
2806.962890625
 20
-2490.8203125
 10
2806.962890625
 20
-2481.240234375
 10
2806.962890625
 20
-2471.66015625
 10
2806.962890625
 20
-2462.080078125
 10
2806.962890625
 20
-2452.5
 10
2806.962890625
 20
-2442.919921875
 10
2806.962890625
 20
-2433.33984375
 10
2806.962890625
 20
-2423.759765625
 10
2806.962890625
 20
-2414.1796875
 10
2806.962890625
 20
-2404.599609375
 10
2797.3828125
 20
-2395.01953125
 10
2797.3828125
 20
-2385.439453125
 10
2797.3828125
 20
-2375.859375
 10
2797.3828125
 20
-2366.279296875
 10
2797.3828125
 20
-2356.69921875
 10
2787.802734375
 20
-2347.119140625
 10
2787.802734375
 20
-2337.5390625
 10
2778.22265625
 20
-2327.958984375
 10
2778.22265625
 20
-2318.37890625
 10
2778.22265625
 20
-2308.798828125
 10
2778.22265625
 20
-2299.21875
 10
2768.642578125
 20
-2289.638671875
 10
2768.642578125
 20
-2280.05859375
 10
2759.0625
 20
-2270.478515625
 10
2759.0625
 20
-2260.8984375
 10
2749.482421875
 20
-2251.318359375
 10
2749.482421875
 20
-2241.73828125
 10
2739.90234375
 20
-2232.158203125
 10
2730.322265625
 20
-2222.578125
 10
2720.7421875
 20
-2212.998046875
 10
2711.162109375
 20
-2203.41796875
 10
2701.58203125
 20
-2193.837890625
 10
2692.001953125
 20
-2184.2578125
 10
2682.421875
 20
-2174.677734375
 10
2672.841796875
 20
-2165.09765625
 10
2663.26171875
 20
-2155.517578125
 10
2653.681640625
 20
-2155.517578125
 10
2644.1015625
 20
-2145.9375
 10
2634.521484375
 20
-2136.357421875
 10
2624.94140625
 20
-2136.357421875
 10
2615.361328125
 20
-2136.357421875
 10
2605.78125
 20
-2126.77734375
 10
2596.201171875
 20
-2126.77734375
 10
2586.62109375
 20
-2117.197265625
 10
2577.041015625
 20
-2117.197265625
 10
2567.4609375
 20
-2107.6171875
 10
2557.880859375
 20
-2098.037109375
 10
2548.30078125
 20
-2098.037109375
 10
2538.720703125
 20
-2098.037109375
 10
2529.140625
 20
-2098.037109375
 10
2519.560546875
 20
-2098.037109375
 10
2509.98046875
 20
-2098.037109375
 10
2500.400390625
 20
-2098.037109375
 10
2490.8203125
 20
-2088.45703125
 10
2481.240234375
 20
-2088.45703125
 10
2471.66015625
 20
-2088.45703125
 10
2462.080078125
 20
-2088.45703125
 10
2452.5
 20
-2088.45703125
 10
2442.919921875
 20
-2088.45703125
 10
2433.33984375
 20
-2088.45703125
 10
2423.759765625
 20
-2088.45703125
 10
2414.1796875
 20
-2088.45703125
  0
LWPOLYLINE
  5
33
330
17
100
AcDbEntity
  8
conductor
100
AcDbPolyline
 90
4
 70
1
 43
0.5
 10
2500.400390625
 20
-2567.4609375
 10
2509.98046875
 20
-2557.880859375
 10
2519.560546875
 20
-2567.4609375
 10
2509.98046875
 20
-2577.041015625
  0
LWPOLYLINE
  5
34
330
17
100
AcDbEntity
  8
conductor
100
AcDbPolyline
 90
4
 70
1
 43
0.5
 10
2500.400390625
 20
-2490.8203125
 10
2509.98046875
 20
-2481.240234375
 10
2519.560546875
 20
-2490.8203125
 10
2509.98046875
 20
-2500.400390625
  0
LWPOLYLINE
  5
35
330
17
100
AcDbEntity
  8
conductor
100
AcDbPolyline
 90
4
 70
1
 43
0.5
 10
2347.119140625
 20
-2414.1796875
 10
2356.69921875
 20
-2404.599609375
 10
2366.279296875
 20
-2414.1796875
 10
2356.69921875
 20
-2423.759765625
  0
LWPOLYLINE
  5
36
330
17
100
AcDbEntity
  8
conductor
100
AcDbPolyline
 90
8
 70
1
 43
0.5
 10
2347.119140625
 20
-2337.5390625
 10
2356.69921875
 20
-2327.958984375
 10
2366.279296875
 20
-2327.958984375
 10
2375.859375
 20
-2327.958984375
 10
2385.439453125
 20
-2337.5390625
 10
2375.859375
 20
-2347.119140625
 10
2366.279296875
 20
-2347.119140625
 10
2356.69921875
 20
-2347.119140625
  0
LWPOLYLINE
  5
37
330
17
100
AcDbEntity
  8
substrate
100
AcDbPolyline
 90
2044
 70
1
 43
0.5
 10
0.0
 20
-0.0
 10
0.0
 20
-9.580078125
 10
0.0
 20
-19.16015625
 10
0.0
 20
-28.740234375
 10
0.0
 20
-38.3203125
 10
0.0
 20
-47.900390625
 10
0.0
 20
-57.48046875
 10
0.0
 20
-67.060546875
 10
0.0
 20
-76.640625
 10
0.0
 20
-86.220703125
 10
0.0
 20
-95.80078125
 10
0.0
 20
-105.380859375
 10
0.0
 20
-114.9609375
 10
0.0
 20
-124.541015625
 10
0.0
 20
-134.12109375
 10
0.0
 20
-143.701171875
 10
0.0
 20
-153.28125
 10
0.0
 20
-162.861328125
 10
0.0
 20
-172.44140625
 10
0.0
 20
-182.021484375
 10
0.0
 20
-191.6015625
 10
0.0
 20
-201.181640625
 10
0.0
 20
-210.76171875
 10
0.0
 20
-220.341796875
 10
0.0
 20
-229.921875
 10
0.0
 20
-239.501953125
 10
0.0
 20
-249.08203125
 10
0.0
 20
-258.662109375
 10
0.0
 20
-268.2421875
 10
0.0
 20
-277.822265625
 10
0.0
 20
-287.40234375
 10
0.0
 20
-296.982421875
 10
0.0
 20
-306.5625
 10
0.0
 20
-316.142578125
 10
0.0
 20
-325.72265625
 10
0.0
 20
-335.302734375
 10
0.0
 20
-344.8828125
 10
0.0
 20
-354.462890625
 10
0.0
 20
-364.04296875
 10
0.0
 20
-373.623046875
 10
0.0
 20
-383.203125
 10
0.0
 20
-392.783203125
 10
0.0
 20
-402.36328125
 10
0.0
 20
-411.943359375
 10
0.0
 20
-421.5234375
 10
0.0
 20
-431.103515625
 10
0.0
 20
-440.68359375
 10
0.0
 20
-450.263671875
 10
0.0
 20
-459.84375
 10
0.0
 20
-469.423828125
 10
0.0
 20
-479.00390625
 10
0.0
 20
-488.583984375
 10
0.0
 20
-498.1640625
 10
0.0
 20
-507.744140625
 10
0.0
 20
-517.32421875
 10
0.0
 20
-526.904296875
 10
0.0
 20
-536.484375
 10
0.0
 20
-546.064453125
 10
0.0
 20
-555.64453125
 10
0.0
 20
-565.224609375
 10
0.0
 20
-574.8046875
 10
0.0
 20
-584.384765625
 10
0.0
 20
-593.96484375
 10
0.0
 20
-603.544921875
 10
0.0
 20
-613.125
 10
0.0
 20
-622.705078125
 10
0.0
 20
-632.28515625
 10
0.0
 20
-641.865234375
 10
0.0
 20
-651.4453125
 10
0.0
 20
-661.025390625
 10
0.0
 20
-670.60546875
 10
0.0
 20
-680.185546875
 10
0.0
 20
-689.765625
 10
0.0
 20
-699.345703125
 10
0.0
 20
-708.92578125
 10
0.0
 20
-718.505859375
 10
0.0
 20
-728.0859375
 10
0.0
 20
-737.666015625
 10
0.0
 20
-747.24609375
 10
0.0
 20
-756.826171875
 10
0.0
 20
-766.40625
 10
0.0
 20
-775.986328125
 10
0.0
 20
-785.56640625
 10
0.0
 20
-795.146484375
 10
0.0
 20
-804.7265625
 10
0.0
 20
-814.306640625
 10
0.0
 20
-823.88671875
 10
0.0
 20
-833.466796875
 10
0.0
 20
-843.046875
 10
0.0
 20
-852.626953125
 10
0.0
 20
-862.20703125
 10
0.0
 20
-871.787109375
 10
0.0
 20
-881.3671875
 10
0.0
 20
-890.947265625
 10
0.0
 20
-900.52734375
 10
0.0
 20
-910.107421875
 10
0.0
 20
-919.6875
 10
0.0
 20
-929.267578125
 10
0.0
 20
-938.84765625
 10
0.0
 20
-948.427734375
 10
0.0
 20
-958.0078125
 10
0.0
 20
-967.587890625
 10
0.0
 20
-977.16796875
 10
0.0
 20
-986.748046875
 10
0.0
 20
-996.328125
 10
0.0
 20
-1005.908203125
 10
0.0
 20
-1015.48828125
 10
0.0
 20
-1025.068359375
 10
0.0
 20
-1034.6484375
 10
0.0
 20
-1044.228515625
 10
0.0
 20
-1053.80859375
 10
0.0
 20
-1063.388671875
 10
0.0
 20
-1072.96875
 10
0.0
 20
-1082.548828125
 10
0.0
 20
-1092.12890625
 10
0.0
 20
-1101.708984375
 10
0.0
 20
-1111.2890625
 10
0.0
 20
-1120.869140625
 10
0.0
 20
-1130.44921875
 10
0.0
 20
-1140.029296875
 10
0.0
 20
-1149.609375
 10
0.0
 20
-1159.189453125
 10
0.0
 20
-1168.76953125
 10
0.0
 20
-1178.349609375
 10
0.0
 20
-1187.9296875
 10
0.0
 20
-1197.509765625
 10
0.0
 20
-1207.08984375
 10
0.0
 20
-1216.669921875
 10
0.0
 20
-1226.25
 10
0.0
 20
-1235.830078125
 10
0.0
 20
-1245.41015625
 10
0.0
 20
-1254.990234375
 10
0.0
 20
-1264.5703125
 10
0.0
 20
-1274.150390625
 10
0.0
 20
-1283.73046875
 10
0.0
 20
-1293.310546875
 10
0.0
 20
-1302.890625
 10
0.0
 20
-1312.470703125
 10
0.0
 20
-1322.05078125
 10
0.0
 20
-1331.630859375
 10
0.0
 20
-1341.2109375
 10
0.0
 20
-1350.791015625
 10
0.0
 20
-1360.37109375
 10
0.0
 20
-1369.951171875
 10
0.0
 20
-1379.53125
 10
0.0
 20
-1389.111328125
 10
0.0
 20
-1398.69140625
 10
0.0
 20
-1408.271484375
 10
0.0
 20
-1417.8515625
 10
0.0
 20
-1427.431640625
 10
0.0
 20
-1437.01171875
 10
0.0
 20
-1446.591796875
 10
0.0
 20
-1456.171875
 10
0.0
 20
-1465.751953125
 10
0.0
 20
-1475.33203125
 10
0.0
 20
-1484.912109375
 10
0.0
 20
-1494.4921875
 10
0.0
 20
-1504.072265625
 10
0.0
 20
-1513.65234375
 10
0.0
 20
-1523.232421875
 10
0.0
 20
-1532.8125
 10
0.0
 20
-1542.392578125
 10
0.0
 20
-1551.97265625
 10
0.0
 20
-1561.552734375
 10
0.0
 20
-1571.1328125
 10
0.0
 20
-1580.712890625
 10
0.0
 20
-1590.29296875
 10
0.0
 20
-1599.873046875
 10
0.0
 20
-1609.453125
 10
0.0
 20
-1619.033203125
 10
0.0
 20
-1628.61328125
 10
0.0
 20
-1638.193359375
 10
0.0
 20
-1647.7734375
 10
0.0
 20
-1657.353515625
 10
0.0
 20
-1666.93359375
 10
0.0
 20
-1676.513671875
 10
0.0
 20
-1686.09375
 10
0.0
 20
-1695.673828125
 10
0.0
 20
-1705.25390625
 10
0.0
 20
-1714.833984375
 10
0.0
 20
-1724.4140625
 10
0.0
 20
-1733.994140625
 10
0.0
 20
-1743.57421875
 10
0.0
 20
-1753.154296875
 10
0.0
 20
-1762.734375
 10
0.0
 20
-1772.314453125
 10
0.0
 20
-1781.89453125
 10
0.0
 20
-1791.474609375
 10
0.0
 20
-1801.0546875
 10
0.0
 20
-1810.634765625
 10
0.0
 20
-1820.21484375
 10
0.0
 20
-1829.794921875
 10
0.0
 20
-1839.375
 10
0.0
 20
-1848.955078125
 10
0.0
 20
-1858.53515625
 10
0.0
 20
-1868.115234375
 10
0.0
 20
-1877.6953125
 10
0.0
 20
-1887.275390625
 10
0.0
 20
-1896.85546875
 10
0.0
 20
-1906.435546875
 10
0.0
 20
-1916.015625
 10
0.0
 20
-1925.595703125
 10
0.0
 20
-1935.17578125
 10
0.0
 20
-1944.755859375
 10
0.0
 20
-1954.3359375
 10
0.0
 20
-1963.916015625
 10
0.0
 20
-1973.49609375
 10
0.0
 20
-1983.076171875
 10
0.0
 20
-1992.65625
 10
0.0
 20
-2002.236328125
 10
0.0
 20
-2011.81640625
 10
0.0
 20
-2021.396484375
 10
0.0
 20
-2030.9765625
 10
0.0
 20
-2040.556640625
 10
0.0
 20
-2050.13671875
 10
0.0
 20
-2059.716796875
 10
0.0
 20
-2069.296875
 10
0.0
 20
-2078.876953125
 10
0.0
 20
-2088.45703125
 10
0.0
 20
-2098.037109375
 10
0.0
 20
-2107.6171875
 10
0.0
 20
-2117.197265625
 10
0.0
 20
-2126.77734375
 10
0.0
 20
-2136.357421875
 10
0.0
 20
-2145.9375
 10
0.0
 20
-2155.517578125
 10
0.0
 20
-2165.09765625
 10
0.0
 20
-2174.677734375
 10
0.0
 20
-2184.2578125
 10
0.0
 20
-2193.837890625
 10
0.0
 20
-2203.41796875
 10
0.0
 20
-2212.998046875
 10
0.0
 20
-2222.578125
 10
0.0
 20
-2232.158203125
 10
0.0
 20
-2241.73828125
 10
0.0
 20
-2251.318359375
 10
0.0
 20
-2260.8984375
 10
0.0
 20
-2270.478515625
 10
0.0
 20
-2280.05859375
 10
0.0
 20
-2289.638671875
 10
0.0
 20
-2299.21875
 10
0.0
 20
-2308.798828125
 10
0.0
 20
-2318.37890625
 10
0.0
 20
-2327.958984375
 10
0.0
 20
-2337.5390625
 10
0.0
 20
-2347.119140625
 10
0.0
 20
-2356.69921875
 10
0.0
 20
-2366.279296875
 10
0.0
 20
-2375.859375
 10
0.0
 20
-2385.439453125
 10
0.0
 20
-2395.01953125
 10
0.0
 20
-2404.599609375
 10
0.0
 20
-2414.1796875
 10
0.0
 20
-2423.759765625
 10
0.0
 20
-2433.33984375
 10
0.0
 20
-2442.919921875
 10
0.0
 20
-2452.5
 10
0.0
 20
-2462.080078125
 10
0.0
 20
-2471.66015625
 10
0.0
 20
-2481.240234375
 10
0.0
 20
-2490.8203125
 10
0.0
 20
-2500.400390625
 10
0.0
 20
-2509.98046875
 10
0.0
 20
-2519.560546875
 10
0.0
 20
-2529.140625
 10
0.0
 20
-2538.720703125
 10
0.0
 20
-2548.30078125
 10
0.0
 20
-2557.880859375
 10
0.0
 20
-2567.4609375
 10
0.0
 20
-2577.041015625
 10
0.0
 20
-2586.62109375
 10
0.0
 20
-2596.201171875
 10
0.0
 20
-2605.78125
 10
0.0
 20
-2615.361328125
 10
0.0
 20
-2624.94140625
 10
0.0
 20
-2634.521484375
 10
0.0
 20
-2644.1015625
 10
0.0
 20
-2653.681640625
 10
0.0
 20
-2663.26171875
 10
0.0
 20
-2672.841796875
 10
0.0
 20
-2682.421875
 10
0.0
 20
-2692.001953125
 10
0.0
 20
-2701.58203125
 10
0.0
 20
-2711.162109375
 10
0.0
 20
-2720.7421875
 10
0.0
 20
-2730.322265625
 10
0.0
 20
-2739.90234375
 10
0.0
 20
-2749.482421875
 10
0.0
 20
-2759.0625
 10
0.0
 20
-2768.642578125
 10
0.0
 20
-2778.22265625
 10
0.0
 20
-2787.802734375
 10
0.0
 20
-2797.3828125
 10
0.0
 20
-2806.962890625
 10
0.0
 20
-2816.54296875
 10
0.0
 20
-2826.123046875
 10
0.0
 20
-2835.703125
 10
0.0
 20
-2845.283203125
 10
0.0
 20
-2854.86328125
 10
0.0
 20
-2864.443359375
 10
0.0
 20
-2874.0234375
 10
0.0
 20
-2883.603515625
 10
0.0
 20
-2893.18359375
 10
0.0
 20
-2902.763671875
 10
0.0
 20
-2912.34375
 10
0.0
 20
-2921.923828125
 10
0.0
 20
-2931.50390625
 10
0.0
 20
-2941.083984375
 10
0.0
 20
-2950.6640625
 10
0.0
 20
-2960.244140625
 10
0.0
 20
-2969.82421875
 10
0.0
 20
-2979.404296875
 10
0.0
 20
-2988.984375
 10
0.0
 20
-2998.564453125
 10
0.0
 20
-3008.14453125
 10
0.0
 20
-3017.724609375
 10
0.0
 20
-3027.3046875
 10
0.0
 20
-3036.884765625
 10
0.0
 20
-3046.46484375
 10
0.0
 20
-3056.044921875
 10
0.0
 20
-3065.625
 10
0.0
 20
-3075.205078125
 10
0.0
 20
-3084.78515625
 10
0.0
 20
-3094.365234375
 10
0.0
 20
-3103.9453125
 10
0.0
 20
-3113.525390625
 10
0.0
 20
-3123.10546875
 10
0.0
 20
-3132.685546875
 10
0.0
 20
-3142.265625
 10
0.0
 20
-3151.845703125
 10
0.0
 20
-3161.42578125
 10
0.0
 20
-3171.005859375
 10
0.0
 20
-3180.5859375
 10
0.0
 20
-3190.166015625
 10
0.0
 20
-3199.74609375
 10
0.0
 20
-3209.326171875
 10
0.0
 20
-3218.90625
 10
0.0
 20
-3228.486328125
 10
0.0
 20
-3238.06640625
 10
0.0
 20
-3247.646484375
 10
0.0
 20
-3257.2265625
 10
0.0
 20
-3266.806640625
 10
0.0
 20
-3276.38671875
 10
0.0
 20
-3285.966796875
 10
0.0
 20
-3295.546875
 10
0.0
 20
-3305.126953125
 10
0.0
 20
-3314.70703125
 10
0.0
 20
-3324.287109375
 10
0.0
 20
-3333.8671875
 10
0.0
 20
-3343.447265625
 10
0.0
 20
-3353.02734375
 10
0.0
 20
-3362.607421875
 10
0.0
 20
-3372.1875
 10
0.0
 20
-3381.767578125
 10
0.0
 20
-3391.34765625
 10
0.0
 20
-3400.927734375
 10
0.0
 20
-3410.5078125
 10
0.0
 20
-3420.087890625
 10
0.0
 20
-3429.66796875
 10
0.0
 20
-3439.248046875
 10
0.0
 20
-3448.828125
 10
0.0
 20
-3458.408203125
 10
0.0
 20
-3467.98828125
 10
0.0
 20
-3477.568359375
 10
0.0
 20
-3487.1484375
 10
0.0
 20
-3496.728515625
 10
0.0
 20
-3506.30859375
 10
0.0
 20
-3515.888671875
 10
0.0
 20
-3525.46875
 10
0.0
 20
-3535.048828125
 10
0.0
 20
-3544.62890625
 10
0.0
 20
-3554.208984375
 10
0.0
 20
-3563.7890625
 10
0.0
 20
-3573.369140625
 10
0.0
 20
-3582.94921875
 10
0.0
 20
-3592.529296875
 10
0.0
 20
-3602.109375
 10
0.0
 20
-3611.689453125
 10
0.0
 20
-3621.26953125
 10
0.0
 20
-3630.849609375
 10
0.0
 20
-3640.4296875
 10
0.0
 20
-3650.009765625
 10
0.0
 20
-3659.58984375
 10
0.0
 20
-3669.169921875
 10
0.0
 20
-3678.75
 10
0.0
 20
-3688.330078125
 10
0.0
 20
-3697.91015625
 10
0.0
 20
-3707.490234375
 10
0.0
 20
-3717.0703125
 10
0.0
 20
-3726.650390625
 10
0.0
 20
-3736.23046875
 10
0.0
 20
-3745.810546875
 10
0.0
 20
-3755.390625
 10
0.0
 20
-3764.970703125
 10
0.0
 20
-3774.55078125
 10
0.0
 20
-3784.130859375
 10
0.0
 20
-3793.7109375
 10
0.0
 20
-3803.291015625
 10
0.0
 20
-3812.87109375
 10
0.0
 20
-3822.451171875
 10
0.0
 20
-3832.03125
 10
0.0
 20
-3841.611328125
 10
0.0
 20
-3851.19140625
 10
0.0
 20
-3860.771484375
 10
0.0
 20
-3870.3515625
 10
0.0
 20
-3879.931640625
 10
0.0
 20
-3889.51171875
 10
0.0
 20
-3899.091796875
 10
0.0
 20
-3908.671875
 10
0.0
 20
-3918.251953125
 10
0.0
 20
-3927.83203125
 10
0.0
 20
-3937.412109375
 10
0.0
 20
-3946.9921875
 10
0.0
 20
-3956.572265625
 10
0.0
 20
-3966.15234375
 10
0.0
 20
-3975.732421875
 10
0.0
 20
-3985.3125
 10
0.0
 20
-3994.892578125
 10
0.0
 20
-4004.47265625
 10
0.0
 20
-4014.052734375
 10
0.0
 20
-4023.6328125
 10
0.0
 20
-4033.212890625
 10
0.0
 20
-4042.79296875
 10
0.0
 20
-4052.373046875
 10
0.0
 20
-4061.953125
 10
0.0
 20
-4071.533203125
 10
0.0
 20
-4081.11328125
 10
0.0
 20
-4090.693359375
 10
0.0
 20
-4100.2734375
 10
0.0
 20
-4109.853515625
 10
0.0
 20
-4119.43359375
 10
0.0
 20
-4129.013671875
 10
0.0
 20
-4138.59375
 10
0.0
 20
-4148.173828125
 10
0.0
 20
-4157.75390625
 10
0.0
 20
-4167.333984375
 10
0.0
 20
-4176.9140625
 10
0.0
 20
-4186.494140625
 10
0.0
 20
-4196.07421875
 10
0.0
 20
-4205.654296875
 10
0.0
 20
-4215.234375
 10
0.0
 20
-4224.814453125
 10
0.0
 20
-4234.39453125
 10
0.0
 20
-4243.974609375
 10
0.0
 20
-4253.5546875
 10
0.0
 20
-4263.134765625
 10
0.0
 20
-4272.71484375
 10
0.0
 20
-4282.294921875
 10
0.0
 20
-4291.875
 10
0.0
 20
-4301.455078125
 10
0.0
 20
-4311.03515625
 10
0.0
 20
-4320.615234375
 10
0.0
 20
-4330.1953125
 10
0.0
 20
-4339.775390625
 10
0.0
 20
-4349.35546875
 10
0.0
 20
-4358.935546875
 10
0.0
 20
-4368.515625
 10
0.0
 20
-4378.095703125
 10
0.0
 20
-4387.67578125
 10
0.0
 20
-4397.255859375
 10
0.0
 20
-4406.8359375
 10
0.0
 20
-4416.416015625
 10
0.0
 20
-4425.99609375
 10
0.0
 20
-4435.576171875
 10
0.0
 20
-4445.15625
 10
0.0
 20
-4454.736328125
 10
0.0
 20
-4464.31640625
 10
0.0
 20
-4473.896484375
 10
0.0
 20
-4483.4765625
 10
0.0
 20
-4493.056640625
 10
0.0
 20
-4502.63671875
 10
0.0
 20
-4512.216796875
 10
0.0
 20
-4521.796875
 10
0.0
 20
-4531.376953125
 10
0.0
 20
-4540.95703125
 10
0.0
 20
-4550.537109375
 10
0.0
 20
-4560.1171875
 10
0.0
 20
-4569.697265625
 10
0.0
 20
-4579.27734375
 10
0.0
 20
-4588.857421875
 10
0.0
 20
-4598.4375
 10
0.0
 20
-4608.017578125
 10
0.0
 20
-4617.59765625
 10
0.0
 20
-4627.177734375
 10
0.0
 20
-4636.7578125
 10
0.0
 20
-4646.337890625
 10
0.0
 20
-4655.91796875
 10
0.0
 20
-4665.498046875
 10
0.0
 20
-4675.078125
 10
0.0
 20
-4684.658203125
 10
0.0
 20
-4694.23828125
 10
0.0
 20
-4703.818359375
 10
0.0
 20
-4713.3984375
 10
0.0
 20
-4722.978515625
 10
0.0
 20
-4732.55859375
 10
0.0
 20
-4742.138671875
 10
0.0
 20
-4751.71875
 10
0.0
 20
-4761.298828125
 10
0.0
 20
-4770.87890625
 10
0.0
 20
-4780.458984375
 10
0.0
 20
-4790.0390625
 10
0.0
 20
-4799.619140625
 10
0.0
 20
-4809.19921875
 10
0.0
 20
-4818.779296875
 10
0.0
 20
-4828.359375
 10
0.0
 20
-4837.939453125
 10
0.0
 20
-4847.51953125
 10
0.0
 20
-4857.099609375
 10
0.0
 20
-4866.6796875
 10
0.0
 20
-4876.259765625
 10
0.0
 20
-4885.83984375
 10
0.0
 20
-4895.419921875
 10
9.580078125
 20
-4895.419921875
 10
19.16015625
 20
-4895.419921875
 10
28.740234375
 20
-4895.419921875
 10
38.3203125
 20
-4895.419921875
 10
47.900390625
 20
-4895.419921875
 10
57.48046875
 20
-4895.419921875
 10
67.060546875
 20
-4895.419921875
 10
76.640625
 20
-4895.419921875
 10
86.220703125
 20
-4895.419921875
 10
95.80078125
 20
-4895.419921875
 10
105.380859375
 20
-4895.419921875
 10
114.9609375
 20
-4895.419921875
 10
124.541015625
 20
-4895.419921875
 10
134.12109375
 20
-4895.419921875
 10
143.701171875
 20
-4895.419921875
 10
153.28125
 20
-4895.419921875
 10
162.861328125
 20
-4895.419921875
 10
172.44140625
 20
-4895.419921875
 10
182.021484375
 20
-4895.419921875
 10
191.6015625
 20
-4895.419921875
 10
201.181640625
 20
-4895.419921875
 10
210.76171875
 20
-4895.419921875
 10
220.341796875
 20
-4895.419921875
 10
229.921875
 20
-4895.419921875
 10
239.501953125
 20
-4895.419921875
 10
249.08203125
 20
-4895.419921875
 10
258.662109375
 20
-4895.419921875
 10
268.2421875
 20
-4895.419921875
 10
277.822265625
 20
-4895.419921875
 10
287.40234375
 20
-4895.419921875
 10
296.982421875
 20
-4895.419921875
 10
306.5625
 20
-4895.419921875
 10
316.142578125
 20
-4895.419921875
 10
325.72265625
 20
-4895.419921875
 10
335.302734375
 20
-4895.419921875
 10
344.8828125
 20
-4895.419921875
 10
354.462890625
 20
-4895.419921875
 10
364.04296875
 20
-4895.419921875
 10
373.623046875
 20
-4895.419921875
 10
383.203125
 20
-4895.419921875
 10
392.783203125
 20
-4895.419921875
 10
402.36328125
 20
-4895.419921875
 10
411.943359375
 20
-4895.419921875
 10
421.5234375
 20
-4895.419921875
 10
431.103515625
 20
-4895.419921875
 10
440.68359375
 20
-4895.419921875
 10
450.263671875
 20
-4895.419921875
 10
459.84375
 20
-4895.419921875
 10
469.423828125
 20
-4895.419921875
 10
479.00390625
 20
-4895.419921875
 10
488.583984375
 20
-4895.419921875
 10
498.1640625
 20
-4895.419921875
 10
507.744140625
 20
-4895.419921875
 10
517.32421875
 20
-4895.419921875
 10
526.904296875
 20
-4895.419921875
 10
536.484375
 20
-4895.419921875
 10
546.064453125
 20
-4895.419921875
 10
555.64453125
 20
-4895.419921875
 10
565.224609375
 20
-4895.419921875
 10
574.8046875
 20
-4895.419921875
 10
584.384765625
 20
-4895.419921875
 10
593.96484375
 20
-4895.419921875
 10
603.544921875
 20
-4895.419921875
 10
613.125
 20
-4895.419921875
 10
622.705078125
 20
-4895.419921875
 10
632.28515625
 20
-4895.419921875
 10
641.865234375
 20
-4895.419921875
 10
651.4453125
 20
-4895.419921875
 10
661.025390625
 20
-4895.419921875
 10
670.60546875
 20
-4895.419921875
 10
680.185546875
 20
-4895.419921875
 10
689.765625
 20
-4895.419921875
 10
699.345703125
 20
-4895.419921875
 10
708.92578125
 20
-4895.419921875
 10
718.505859375
 20
-4895.419921875
 10
728.0859375
 20
-4895.419921875
 10
737.666015625
 20
-4895.419921875
 10
747.24609375
 20
-4895.419921875
 10
756.826171875
 20
-4895.419921875
 10
766.40625
 20
-4895.419921875
 10
775.986328125
 20
-4895.419921875
 10
785.56640625
 20
-4895.419921875
 10
795.146484375
 20
-4895.419921875
 10
804.7265625
 20
-4895.419921875
 10
814.306640625
 20
-4895.419921875
 10
823.88671875
 20
-4895.419921875
 10
833.466796875
 20
-4895.419921875
 10
843.046875
 20
-4895.419921875
 10
852.626953125
 20
-4895.419921875
 10
862.20703125
 20
-4895.419921875
 10
871.787109375
 20
-4895.419921875
 10
881.3671875
 20
-4895.419921875
 10
890.947265625
 20
-4895.419921875
 10
900.52734375
 20
-4895.419921875
 10
910.107421875
 20
-4895.419921875
 10
919.6875
 20
-4895.419921875
 10
929.267578125
 20
-4895.419921875
 10
938.84765625
 20
-4895.419921875
 10
948.427734375
 20
-4895.419921875
 10
958.0078125
 20
-4895.419921875
 10
967.587890625
 20
-4895.419921875
 10
977.16796875
 20
-4895.419921875
 10
986.748046875
 20
-4895.419921875
 10
996.328125
 20
-4895.419921875
 10
1005.908203125
 20
-4895.419921875
 10
1015.48828125
 20
-4895.419921875
 10
1025.068359375
 20
-4895.419921875
 10
1034.6484375
 20
-4895.419921875
 10
1044.228515625
 20
-4895.419921875
 10
1053.80859375
 20
-4895.419921875
 10
1063.388671875
 20
-4895.419921875
 10
1072.96875
 20
-4895.419921875
 10
1082.548828125
 20
-4895.419921875
 10
1092.12890625
 20
-4895.419921875
 10
1101.708984375
 20
-4895.419921875
 10
1111.2890625
 20
-4895.419921875
 10
1120.869140625
 20
-4895.419921875
 10
1130.44921875
 20
-4895.419921875
 10
1140.029296875
 20
-4895.419921875
 10
1149.609375
 20
-4895.419921875
 10
1159.189453125
 20
-4895.419921875
 10
1168.76953125
 20
-4895.419921875
 10
1178.349609375
 20
-4895.419921875
 10
1187.9296875
 20
-4895.419921875
 10
1197.509765625
 20
-4895.419921875
 10
1207.08984375
 20
-4895.419921875
 10
1216.669921875
 20
-4895.419921875
 10
1226.25
 20
-4895.419921875
 10
1235.830078125
 20
-4895.419921875
 10
1245.41015625
 20
-4895.419921875
 10
1254.990234375
 20
-4895.419921875
 10
1264.5703125
 20
-4895.419921875
 10
1274.150390625
 20
-4895.419921875
 10
1283.73046875
 20
-4895.419921875
 10
1293.310546875
 20
-4895.419921875
 10
1302.890625
 20
-4895.419921875
 10
1312.470703125
 20
-4895.419921875
 10
1322.05078125
 20
-4895.419921875
 10
1331.630859375
 20
-4895.419921875
 10
1341.2109375
 20
-4895.419921875
 10
1350.791015625
 20
-4895.419921875
 10
1360.37109375
 20
-4895.419921875
 10
1369.951171875
 20
-4895.419921875
 10
1379.53125
 20
-4895.419921875
 10
1389.111328125
 20
-4895.419921875
 10
1398.69140625
 20
-4895.419921875
 10
1408.271484375
 20
-4895.419921875
 10
1417.8515625
 20
-4895.419921875
 10
1427.431640625
 20
-4895.419921875
 10
1437.01171875
 20
-4895.419921875
 10
1446.591796875
 20
-4895.419921875
 10
1456.171875
 20
-4895.419921875
 10
1465.751953125
 20
-4895.419921875
 10
1475.33203125
 20
-4895.419921875
 10
1484.912109375
 20
-4895.419921875
 10
1494.4921875
 20
-4895.419921875
 10
1504.072265625
 20
-4895.419921875
 10
1513.65234375
 20
-4895.419921875
 10
1523.232421875
 20
-4895.419921875
 10
1532.8125
 20
-4895.419921875
 10
1542.392578125
 20
-4895.419921875
 10
1551.97265625
 20
-4895.419921875
 10
1561.552734375
 20
-4895.419921875
 10
1571.1328125
 20
-4895.419921875
 10
1580.712890625
 20
-4895.419921875
 10
1590.29296875
 20
-4895.419921875
 10
1599.873046875
 20
-4895.419921875
 10
1609.453125
 20
-4895.419921875
 10
1619.033203125
 20
-4895.419921875
 10
1628.61328125
 20
-4895.419921875
 10
1638.193359375
 20
-4895.419921875
 10
1647.7734375
 20
-4895.419921875
 10
1657.353515625
 20
-4895.419921875
 10
1666.93359375
 20
-4895.419921875
 10
1676.513671875
 20
-4895.419921875
 10
1686.09375
 20
-4895.419921875
 10
1695.673828125
 20
-4895.419921875
 10
1705.25390625
 20
-4895.419921875
 10
1714.833984375
 20
-4895.419921875
 10
1724.4140625
 20
-4895.419921875
 10
1733.994140625
 20
-4895.419921875
 10
1743.57421875
 20
-4895.419921875
 10
1753.154296875
 20
-4895.419921875
 10
1762.734375
 20
-4895.419921875
 10
1772.314453125
 20
-4895.419921875
 10
1781.89453125
 20
-4895.419921875
 10
1791.474609375
 20
-4895.419921875
 10
1801.0546875
 20
-4895.419921875
 10
1810.634765625
 20
-4895.419921875
 10
1820.21484375
 20
-4895.419921875
 10
1829.794921875
 20
-4895.419921875
 10
1839.375
 20
-4895.419921875
 10
1848.955078125
 20
-4895.419921875
 10
1858.53515625
 20
-4895.419921875
 10
1868.115234375
 20
-4895.419921875
 10
1877.6953125
 20
-4895.419921875
 10
1887.275390625
 20
-4895.419921875
 10
1896.85546875
 20
-4895.419921875
 10
1906.435546875
 20
-4895.419921875
 10
1916.015625
 20
-4895.419921875
 10
1925.595703125
 20
-4895.419921875
 10
1935.17578125
 20
-4895.419921875
 10
1944.755859375
 20
-4895.419921875
 10
1954.3359375
 20
-4895.419921875
 10
1963.916015625
 20
-4895.419921875
 10
1973.49609375
 20
-4895.419921875
 10
1983.076171875
 20
-4895.419921875
 10
1992.65625
 20
-4895.419921875
 10
2002.236328125
 20
-4895.419921875
 10
2011.81640625
 20
-4895.419921875
 10
2021.396484375
 20
-4895.419921875
 10
2030.9765625
 20
-4895.419921875
 10
2040.556640625
 20
-4895.419921875
 10
2050.13671875
 20
-4895.419921875
 10
2059.716796875
 20
-4895.419921875
 10
2069.296875
 20
-4895.419921875
 10
2078.876953125
 20
-4895.419921875
 10
2088.45703125
 20
-4895.419921875
 10
2098.037109375
 20
-4895.419921875
 10
2107.6171875
 20
-4895.419921875
 10
2117.197265625
 20
-4895.419921875
 10
2126.77734375
 20
-4895.419921875
 10
2136.357421875
 20
-4895.419921875
 10
2145.9375
 20
-4895.419921875
 10
2155.517578125
 20
-4895.419921875
 10
2165.09765625
 20
-4895.419921875
 10
2174.677734375
 20
-4895.419921875
 10
2184.2578125
 20
-4895.419921875
 10
2193.837890625
 20
-4895.419921875
 10
2203.41796875
 20
-4895.419921875
 10
2212.998046875
 20
-4895.419921875
 10
2222.578125
 20
-4895.419921875
 10
2232.158203125
 20
-4895.419921875
 10
2241.73828125
 20
-4895.419921875
 10
2251.318359375
 20
-4895.419921875
 10
2260.8984375
 20
-4895.419921875
 10
2270.478515625
 20
-4895.419921875
 10
2280.05859375
 20
-4895.419921875
 10
2289.638671875
 20
-4895.419921875
 10
2299.21875
 20
-4895.419921875
 10
2308.798828125
 20
-4895.419921875
 10
2318.37890625
 20
-4895.419921875
 10
2327.958984375
 20
-4895.419921875
 10
2337.5390625
 20
-4895.419921875
 10
2347.119140625
 20
-4895.419921875
 10
2356.69921875
 20
-4895.419921875
 10
2366.279296875
 20
-4895.419921875
 10
2375.859375
 20
-4895.419921875
 10
2385.439453125
 20
-4895.419921875
 10
2395.01953125
 20
-4895.419921875
 10
2404.599609375
 20
-4895.419921875
 10
2414.1796875
 20
-4895.419921875
 10
2423.759765625
 20
-4895.419921875
 10
2433.33984375
 20
-4895.419921875
 10
2442.919921875
 20
-4895.419921875
 10
2452.5
 20
-4895.419921875
 10
2462.080078125
 20
-4895.419921875
 10
2471.66015625
 20
-4895.419921875
 10
2481.240234375
 20
-4895.419921875
 10
2490.8203125
 20
-4895.419921875
 10
2500.400390625
 20
-4895.419921875
 10
2509.98046875
 20
-4895.419921875
 10
2519.560546875
 20
-4895.419921875
 10
2529.140625
 20
-4895.419921875
 10
2538.720703125
 20
-4895.419921875
 10
2548.30078125
 20
-4895.419921875
 10
2557.880859375
 20
-4895.419921875
 10
2567.4609375
 20
-4895.419921875
 10
2577.041015625
 20
-4895.419921875
 10
2586.62109375
 20
-4895.419921875
 10
2596.201171875
 20
-4895.419921875
 10
2605.78125
 20
-4895.419921875
 10
2615.361328125
 20
-4895.419921875
 10
2624.94140625
 20
-4895.419921875
 10
2634.521484375
 20
-4895.419921875
 10
2644.1015625
 20
-4895.419921875
 10
2653.681640625
 20
-4895.419921875
 10
2663.26171875
 20
-4895.419921875
 10
2672.841796875
 20
-4895.419921875
 10
2682.421875
 20
-4895.419921875
 10
2692.001953125
 20
-4895.419921875
 10
2701.58203125
 20
-4895.419921875
 10
2711.162109375
 20
-4895.419921875
 10
2720.7421875
 20
-4895.419921875
 10
2730.322265625
 20
-4895.419921875
 10
2739.90234375
 20
-4895.419921875
 10
2749.482421875
 20
-4895.419921875
 10
2759.0625
 20
-4895.419921875
 10
2768.642578125
 20
-4895.419921875
 10
2778.22265625
 20
-4895.419921875
 10
2787.802734375
 20
-4895.419921875
 10
2797.3828125
 20
-4895.419921875
 10
2806.962890625
 20
-4895.419921875
 10
2816.54296875
 20
-4895.419921875
 10
2826.123046875
 20
-4895.419921875
 10
2835.703125
 20
-4895.419921875
 10
2845.283203125
 20
-4895.419921875
 10
2854.86328125
 20
-4895.419921875
 10
2864.443359375
 20
-4895.419921875
 10
2874.0234375
 20
-4895.419921875
 10
2883.603515625
 20
-4895.419921875
 10
2893.18359375
 20
-4895.419921875
 10
2902.763671875
 20
-4895.419921875
 10
2912.34375
 20
-4895.419921875
 10
2921.923828125
 20
-4895.419921875
 10
2931.50390625
 20
-4895.419921875
 10
2941.083984375
 20
-4895.419921875
 10
2950.6640625
 20
-4895.419921875
 10
2960.244140625
 20
-4895.419921875
 10
2969.82421875
 20
-4895.419921875
 10
2979.404296875
 20
-4895.419921875
 10
2988.984375
 20
-4895.419921875
 10
2998.564453125
 20
-4895.419921875
 10
3008.14453125
 20
-4895.419921875
 10
3017.724609375
 20
-4895.419921875
 10
3027.3046875
 20
-4895.419921875
 10
3036.884765625
 20
-4895.419921875
 10
3046.46484375
 20
-4895.419921875
 10
3056.044921875
 20
-4895.419921875
 10
3065.625
 20
-4895.419921875
 10
3075.205078125
 20
-4895.419921875
 10
3084.78515625
 20
-4895.419921875
 10
3094.365234375
 20
-4895.419921875
 10
3103.9453125
 20
-4895.419921875
 10
3113.525390625
 20
-4895.419921875
 10
3123.10546875
 20
-4895.419921875
 10
3132.685546875
 20
-4895.419921875
 10
3142.265625
 20
-4895.419921875
 10
3151.845703125
 20
-4895.419921875
 10
3161.42578125
 20
-4895.419921875
 10
3171.005859375
 20
-4895.419921875
 10
3180.5859375
 20
-4895.419921875
 10
3190.166015625
 20
-4895.419921875
 10
3199.74609375
 20
-4895.419921875
 10
3209.326171875
 20
-4895.419921875
 10
3218.90625
 20
-4895.419921875
 10
3228.486328125
 20
-4895.419921875
 10
3238.06640625
 20
-4895.419921875
 10
3247.646484375
 20
-4895.419921875
 10
3257.2265625
 20
-4895.419921875
 10
3266.806640625
 20
-4895.419921875
 10
3276.38671875
 20
-4895.419921875
 10
3285.966796875
 20
-4895.419921875
 10
3295.546875
 20
-4895.419921875
 10
3305.126953125
 20
-4895.419921875
 10
3314.70703125
 20
-4895.419921875
 10
3324.287109375
 20
-4895.419921875
 10
3333.8671875
 20
-4895.419921875
 10
3343.447265625
 20
-4895.419921875
 10
3353.02734375
 20
-4895.419921875
 10
3362.607421875
 20
-4895.419921875
 10
3372.1875
 20
-4895.419921875
 10
3381.767578125
 20
-4895.419921875
 10
3391.34765625
 20
-4895.419921875
 10
3400.927734375
 20
-4895.419921875
 10
3410.5078125
 20
-4895.419921875
 10
3420.087890625
 20
-4895.419921875
 10
3429.66796875
 20
-4895.419921875
 10
3439.248046875
 20
-4895.419921875
 10
3448.828125
 20
-4895.419921875
 10
3458.408203125
 20
-4895.419921875
 10
3467.98828125
 20
-4895.419921875
 10
3477.568359375
 20
-4895.419921875
 10
3487.1484375
 20
-4895.419921875
 10
3496.728515625
 20
-4895.419921875
 10
3506.30859375
 20
-4895.419921875
 10
3515.888671875
 20
-4895.419921875
 10
3525.46875
 20
-4895.419921875
 10
3535.048828125
 20
-4895.419921875
 10
3544.62890625
 20
-4895.419921875
 10
3554.208984375
 20
-4895.419921875
 10
3563.7890625
 20
-4895.419921875
 10
3573.369140625
 20
-4895.419921875
 10
3582.94921875
 20
-4895.419921875
 10
3592.529296875
 20
-4895.419921875
 10
3602.109375
 20
-4895.419921875
 10
3611.689453125
 20
-4895.419921875
 10
3621.26953125
 20
-4895.419921875
 10
3630.849609375
 20
-4895.419921875
 10
3640.4296875
 20
-4895.419921875
 10
3650.009765625
 20
-4895.419921875
 10
3659.58984375
 20
-4895.419921875
 10
3669.169921875
 20
-4895.419921875
 10
3678.75
 20
-4895.419921875
 10
3688.330078125
 20
-4895.419921875
 10
3697.91015625
 20
-4895.419921875
 10
3707.490234375
 20
-4895.419921875
 10
3717.0703125
 20
-4895.419921875
 10
3726.650390625
 20
-4895.419921875
 10
3736.23046875
 20
-4895.419921875
 10
3745.810546875
 20
-4895.419921875
 10
3755.390625
 20
-4895.419921875
 10
3764.970703125
 20
-4895.419921875
 10
3774.55078125
 20
-4895.419921875
 10
3784.130859375
 20
-4895.419921875
 10
3793.7109375
 20
-4895.419921875
 10
3803.291015625
 20
-4895.419921875
 10
3812.87109375
 20
-4895.419921875
 10
3822.451171875
 20
-4895.419921875
 10
3832.03125
 20
-4895.419921875
 10
3841.611328125
 20
-4895.419921875
 10
3851.19140625
 20
-4895.419921875
 10
3860.771484375
 20
-4895.419921875
 10
3870.3515625
 20
-4895.419921875
 10
3879.931640625
 20
-4895.419921875
 10
3889.51171875
 20
-4895.419921875
 10
3899.091796875
 20
-4895.419921875
 10
3908.671875
 20
-4895.419921875
 10
3918.251953125
 20
-4895.419921875
 10
3927.83203125
 20
-4895.419921875
 10
3937.412109375
 20
-4895.419921875
 10
3946.9921875
 20
-4895.419921875
 10
3956.572265625
 20
-4895.419921875
 10
3966.15234375
 20
-4895.419921875
 10
3975.732421875
 20
-4895.419921875
 10
3985.3125
 20
-4895.419921875
 10
3994.892578125
 20
-4895.419921875
 10
4004.47265625
 20
-4895.419921875
 10
4014.052734375
 20
-4895.419921875
 10
4023.6328125
 20
-4895.419921875
 10
4033.212890625
 20
-4895.419921875
 10
4042.79296875
 20
-4895.419921875
 10
4052.373046875
 20
-4895.419921875
 10
4061.953125
 20
-4895.419921875
 10
4071.533203125
 20
-4895.419921875
 10
4081.11328125
 20
-4895.419921875
 10
4090.693359375
 20
-4895.419921875
 10
4100.2734375
 20
-4895.419921875
 10
4109.853515625
 20
-4895.419921875
 10
4119.43359375
 20
-4895.419921875
 10
4129.013671875
 20
-4895.419921875
 10
4138.59375
 20
-4895.419921875
 10
4148.173828125
 20
-4895.419921875
 10
4157.75390625
 20
-4895.419921875
 10
4167.333984375
 20
-4895.419921875
 10
4176.9140625
 20
-4895.419921875
 10
4186.494140625
 20
-4895.419921875
 10
4196.07421875
 20
-4895.419921875
 10
4205.654296875
 20
-4895.419921875
 10
4215.234375
 20
-4895.419921875
 10
4224.814453125
 20
-4895.419921875
 10
4234.39453125
 20
-4895.419921875
 10
4243.974609375
 20
-4895.419921875
 10
4253.5546875
 20
-4895.419921875
 10
4263.134765625
 20
-4895.419921875
 10
4272.71484375
 20
-4895.419921875
 10
4282.294921875
 20
-4895.419921875
 10
4291.875
 20
-4895.419921875
 10
4301.455078125
 20
-4895.419921875
 10
4311.03515625
 20
-4895.419921875
 10
4320.615234375
 20
-4895.419921875
 10
4330.1953125
 20
-4895.419921875
 10
4339.775390625
 20
-4895.419921875
 10
4349.35546875
 20
-4895.419921875
 10
4358.935546875
 20
-4895.419921875
 10
4368.515625
 20
-4895.419921875
 10
4378.095703125
 20
-4895.419921875
 10
4387.67578125
 20
-4895.419921875
 10
4397.255859375
 20
-4895.419921875
 10
4406.8359375
 20
-4895.419921875
 10
4416.416015625
 20
-4895.419921875
 10
4425.99609375
 20
-4895.419921875
 10
4435.576171875
 20
-4895.419921875
 10
4445.15625
 20
-4895.419921875
 10
4454.736328125
 20
-4895.419921875
 10
4464.31640625
 20
-4895.419921875
 10
4473.896484375
 20
-4895.419921875
 10
4483.4765625
 20
-4895.419921875
 10
4493.056640625
 20
-4895.419921875
 10
4502.63671875
 20
-4895.419921875
 10
4512.216796875
 20
-4895.419921875
 10
4521.796875
 20
-4895.419921875
 10
4531.376953125
 20
-4895.419921875
 10
4540.95703125
 20
-4895.419921875
 10
4550.537109375
 20
-4895.419921875
 10
4560.1171875
 20
-4895.419921875
 10
4569.697265625
 20
-4895.419921875
 10
4579.27734375
 20
-4895.419921875
 10
4588.857421875
 20
-4895.419921875
 10
4598.4375
 20
-4895.419921875
 10
4608.017578125
 20
-4895.419921875
 10
4617.59765625
 20
-4895.419921875
 10
4627.177734375
 20
-4895.419921875
 10
4636.7578125
 20
-4895.419921875
 10
4646.337890625
 20
-4895.419921875
 10
4655.91796875
 20
-4895.419921875
 10
4665.498046875
 20
-4895.419921875
 10
4675.078125
 20
-4895.419921875
 10
4684.658203125
 20
-4895.419921875
 10
4694.23828125
 20
-4895.419921875
 10
4703.818359375
 20
-4895.419921875
 10
4713.3984375
 20
-4895.419921875
 10
4722.978515625
 20
-4895.419921875
 10
4732.55859375
 20
-4895.419921875
 10
4742.138671875
 20
-4895.419921875
 10
4751.71875
 20
-4895.419921875
 10
4761.298828125
 20
-4895.419921875
 10
4770.87890625
 20
-4895.419921875
 10
4780.458984375
 20
-4895.419921875
 10
4790.0390625
 20
-4895.419921875
 10
4799.619140625
 20
-4895.419921875
 10
4809.19921875
 20
-4895.419921875
 10
4818.779296875
 20
-4895.419921875
 10
4828.359375
 20
-4895.419921875
 10
4837.939453125
 20
-4895.419921875
 10
4847.51953125
 20
-4895.419921875
 10
4857.099609375
 20
-4895.419921875
 10
4866.6796875
 20
-4895.419921875
 10
4876.259765625
 20
-4895.419921875
 10
4885.83984375
 20
-4895.419921875
 10
4895.419921875
 20
-4895.419921875
 10
4895.419921875
 20
-4885.83984375
 10
4895.419921875
 20
-4876.259765625
 10
4895.419921875
 20
-4866.6796875
 10
4895.419921875
 20
-4857.099609375
 10
4895.419921875
 20
-4847.51953125
 10
4895.419921875
 20
-4837.939453125
 10
4895.419921875
 20
-4828.359375
 10
4895.419921875
 20
-4818.779296875
 10
4895.419921875
 20
-4809.19921875
 10
4895.419921875
 20
-4799.619140625
 10
4895.419921875
 20
-4790.0390625
 10
4895.419921875
 20
-4780.458984375
 10
4895.419921875
 20
-4770.87890625
 10
4895.419921875
 20
-4761.298828125
 10
4895.419921875
 20
-4751.71875
 10
4895.419921875
 20
-4742.138671875
 10
4895.419921875
 20
-4732.55859375
 10
4895.419921875
 20
-4722.978515625
 10
4895.419921875
 20
-4713.3984375
 10
4895.419921875
 20
-4703.818359375
 10
4895.419921875
 20
-4694.23828125
 10
4895.419921875
 20
-4684.658203125
 10
4895.419921875
 20
-4675.078125
 10
4895.419921875
 20
-4665.498046875
 10
4895.419921875
 20
-4655.91796875
 10
4895.419921875
 20
-4646.337890625
 10
4895.419921875
 20
-4636.7578125
 10
4895.419921875
 20
-4627.177734375
 10
4895.419921875
 20
-4617.59765625
 10
4895.419921875
 20
-4608.017578125
 10
4895.419921875
 20
-4598.4375
 10
4895.419921875
 20
-4588.857421875
 10
4895.419921875
 20
-4579.27734375
 10
4895.419921875
 20
-4569.697265625
 10
4895.419921875
 20
-4560.1171875
 10
4895.419921875
 20
-4550.537109375
 10
4895.419921875
 20
-4540.95703125
 10
4895.419921875
 20
-4531.376953125
 10
4895.419921875
 20
-4521.796875
 10
4895.419921875
 20
-4512.216796875
 10
4895.419921875
 20
-4502.63671875
 10
4895.419921875
 20
-4493.056640625
 10
4895.419921875
 20
-4483.4765625
 10
4895.419921875
 20
-4473.896484375
 10
4895.419921875
 20
-4464.31640625
 10
4895.419921875
 20
-4454.736328125
 10
4895.419921875
 20
-4445.15625
 10
4895.419921875
 20
-4435.576171875
 10
4895.419921875
 20
-4425.99609375
 10
4895.419921875
 20
-4416.416015625
 10
4895.419921875
 20
-4406.8359375
 10
4895.419921875
 20
-4397.255859375
 10
4895.419921875
 20
-4387.67578125
 10
4895.419921875
 20
-4378.095703125
 10
4895.419921875
 20
-4368.515625
 10
4895.419921875
 20
-4358.935546875
 10
4895.419921875
 20
-4349.35546875
 10
4895.419921875
 20
-4339.775390625
 10
4895.419921875
 20
-4330.1953125
 10
4895.419921875
 20
-4320.615234375
 10
4895.419921875
 20
-4311.03515625
 10
4895.419921875
 20
-4301.455078125
 10
4895.419921875
 20
-4291.875
 10
4895.419921875
 20
-4282.294921875
 10
4895.419921875
 20
-4272.71484375
 10
4895.419921875
 20
-4263.134765625
 10
4895.419921875
 20
-4253.5546875
 10
4895.419921875
 20
-4243.974609375
 10
4895.419921875
 20
-4234.39453125
 10
4895.419921875
 20
-4224.814453125
 10
4895.419921875
 20
-4215.234375
 10
4895.419921875
 20
-4205.654296875
 10
4895.419921875
 20
-4196.07421875
 10
4895.419921875
 20
-4186.494140625
 10
4895.419921875
 20
-4176.9140625
 10
4895.419921875
 20
-4167.333984375
 10
4895.419921875
 20
-4157.75390625
 10
4895.419921875
 20
-4148.173828125
 10
4895.419921875
 20
-4138.59375
 10
4895.419921875
 20
-4129.013671875
 10
4895.419921875
 20
-4119.43359375
 10
4895.419921875
 20
-4109.853515625
 10
4895.419921875
 20
-4100.2734375
 10
4895.419921875
 20
-4090.693359375
 10
4895.419921875
 20
-4081.11328125
 10
4895.419921875
 20
-4071.533203125
 10
4895.419921875
 20
-4061.953125
 10
4895.419921875
 20
-4052.373046875
 10
4895.419921875
 20
-4042.79296875
 10
4895.419921875
 20
-4033.212890625
 10
4895.419921875
 20
-4023.6328125
 10
4895.419921875
 20
-4014.052734375
 10
4895.419921875
 20
-4004.47265625
 10
4895.419921875
 20
-3994.892578125
 10
4895.419921875
 20
-3985.3125
 10
4895.419921875
 20
-3975.732421875
 10
4895.419921875
 20
-3966.15234375
 10
4895.419921875
 20
-3956.572265625
 10
4895.419921875
 20
-3946.9921875
 10
4895.419921875
 20
-3937.412109375
 10
4895.419921875
 20
-3927.83203125
 10
4895.419921875
 20
-3918.251953125
 10
4895.419921875
 20
-3908.671875
 10
4895.419921875
 20
-3899.091796875
 10
4895.419921875
 20
-3889.51171875
 10
4895.419921875
 20
-3879.931640625
 10
4895.419921875
 20
-3870.3515625
 10
4895.419921875
 20
-3860.771484375
 10
4895.419921875
 20
-3851.19140625
 10
4895.419921875
 20
-3841.611328125
 10
4895.419921875
 20
-3832.03125
 10
4895.419921875
 20
-3822.451171875
 10
4895.419921875
 20
-3812.87109375
 10
4895.419921875
 20
-3803.291015625
 10
4895.419921875
 20
-3793.7109375
 10
4895.419921875
 20
-3784.130859375
 10
4895.419921875
 20
-3774.55078125
 10
4895.419921875
 20
-3764.970703125
 10
4895.419921875
 20
-3755.390625
 10
4895.419921875
 20
-3745.810546875
 10
4895.419921875
 20
-3736.23046875
 10
4895.419921875
 20
-3726.650390625
 10
4895.419921875
 20
-3717.0703125
 10
4895.419921875
 20
-3707.490234375
 10
4895.419921875
 20
-3697.91015625
 10
4895.419921875
 20
-3688.330078125
 10
4895.419921875
 20
-3678.75
 10
4895.419921875
 20
-3669.169921875
 10
4895.419921875
 20
-3659.58984375
 10
4895.419921875
 20
-3650.009765625
 10
4895.419921875
 20
-3640.4296875
 10
4895.419921875
 20
-3630.849609375
 10
4895.419921875
 20
-3621.26953125
 10
4895.419921875
 20
-3611.689453125
 10
4895.419921875
 20
-3602.109375
 10
4895.419921875
 20
-3592.529296875
 10
4895.419921875
 20
-3582.94921875
 10
4895.419921875
 20
-3573.369140625
 10
4895.419921875
 20
-3563.7890625
 10
4895.419921875
 20
-3554.208984375
 10
4895.419921875
 20
-3544.62890625
 10
4895.419921875
 20
-3535.048828125
 10
4895.419921875
 20
-3525.46875
 10
4895.419921875
 20
-3515.888671875
 10
4895.419921875
 20
-3506.30859375
 10
4895.419921875
 20
-3496.728515625
 10
4895.419921875
 20
-3487.1484375
 10
4895.419921875
 20
-3477.568359375
 10
4895.419921875
 20
-3467.98828125
 10
4895.419921875
 20
-3458.408203125
 10
4895.419921875
 20
-3448.828125
 10
4895.419921875
 20
-3439.248046875
 10
4895.419921875
 20
-3429.66796875
 10
4895.419921875
 20
-3420.087890625
 10
4895.419921875
 20
-3410.5078125
 10
4895.419921875
 20
-3400.927734375
 10
4895.419921875
 20
-3391.34765625
 10
4895.419921875
 20
-3381.767578125
 10
4895.419921875
 20
-3372.1875
 10
4895.419921875
 20
-3362.607421875
 10
4895.419921875
 20
-3353.02734375
 10
4895.419921875
 20
-3343.447265625
 10
4895.419921875
 20
-3333.8671875
 10
4895.419921875
 20
-3324.287109375
 10
4895.419921875
 20
-3314.70703125
 10
4895.419921875
 20
-3305.126953125
 10
4895.419921875
 20
-3295.546875
 10
4895.419921875
 20
-3285.966796875
 10
4895.419921875
 20
-3276.38671875
 10
4895.419921875
 20
-3266.806640625
 10
4895.419921875
 20
-3257.2265625
 10
4895.419921875
 20
-3247.646484375
 10
4895.419921875
 20
-3238.06640625
 10
4895.419921875
 20
-3228.486328125
 10
4895.419921875
 20
-3218.90625
 10
4895.419921875
 20
-3209.326171875
 10
4895.419921875
 20
-3199.74609375
 10
4895.419921875
 20
-3190.166015625
 10
4895.419921875
 20
-3180.5859375
 10
4895.419921875
 20
-3171.005859375
 10
4895.419921875
 20
-3161.42578125
 10
4895.419921875
 20
-3151.845703125
 10
4895.419921875
 20
-3142.265625
 10
4895.419921875
 20
-3132.685546875
 10
4895.419921875
 20
-3123.10546875
 10
4895.419921875
 20
-3113.525390625
 10
4895.419921875
 20
-3103.9453125
 10
4895.419921875
 20
-3094.365234375
 10
4895.419921875
 20
-3084.78515625
 10
4895.419921875
 20
-3075.205078125
 10
4895.419921875
 20
-3065.625
 10
4895.419921875
 20
-3056.044921875
 10
4895.419921875
 20
-3046.46484375
 10
4895.419921875
 20
-3036.884765625
 10
4895.419921875
 20
-3027.3046875
 10
4895.419921875
 20
-3017.724609375
 10
4895.419921875
 20
-3008.14453125
 10
4895.419921875
 20
-2998.564453125
 10
4895.419921875
 20
-2988.984375
 10
4895.419921875
 20
-2979.404296875
 10
4895.419921875
 20
-2969.82421875
 10
4895.419921875
 20
-2960.244140625
 10
4895.419921875
 20
-2950.6640625
 10
4895.419921875
 20
-2941.083984375
 10
4895.419921875
 20
-2931.50390625
 10
4895.419921875
 20
-2921.923828125
 10
4895.419921875
 20
-2912.34375
 10
4895.419921875
 20
-2902.763671875
 10
4895.419921875
 20
-2893.18359375
 10
4895.419921875
 20
-2883.603515625
 10
4895.419921875
 20
-2874.0234375
 10
4895.419921875
 20
-2864.443359375
 10
4895.419921875
 20
-2854.86328125
 10
4895.419921875
 20
-2845.283203125
 10
4895.419921875
 20
-2835.703125
 10
4895.419921875
 20
-2826.123046875
 10
4895.419921875
 20
-2816.54296875
 10
4895.419921875
 20
-2806.962890625
 10
4895.419921875
 20
-2797.3828125
 10
4895.419921875
 20
-2787.802734375
 10
4895.419921875
 20
-2778.22265625
 10
4895.419921875
 20
-2768.642578125
 10
4895.419921875
 20
-2759.0625
 10
4895.419921875
 20
-2749.482421875
 10
4895.419921875
 20
-2739.90234375
 10
4895.419921875
 20
-2730.322265625
 10
4895.419921875
 20
-2720.7421875
 10
4895.419921875
 20
-2711.162109375
 10
4895.419921875
 20
-2701.58203125
 10
4895.419921875
 20
-2692.001953125
 10
4895.419921875
 20
-2682.421875
 10
4895.419921875
 20
-2672.841796875
 10
4895.419921875
 20
-2663.26171875
 10
4895.419921875
 20
-2653.681640625
 10
4895.419921875
 20
-2644.1015625
 10
4895.419921875
 20
-2634.521484375
 10
4895.419921875
 20
-2624.94140625
 10
4895.419921875
 20
-2615.361328125
 10
4895.419921875
 20
-2605.78125
 10
4895.419921875
 20
-2596.201171875
 10
4895.419921875
 20
-2586.62109375
 10
4895.419921875
 20
-2577.041015625
 10
4895.419921875
 20
-2567.4609375
 10
4895.419921875
 20
-2557.880859375
 10
4895.419921875
 20
-2548.30078125
 10
4895.419921875
 20
-2538.720703125
 10
4895.419921875
 20
-2529.140625
 10
4895.419921875
 20
-2519.560546875
 10
4895.419921875
 20
-2509.98046875
 10
4895.419921875
 20
-2500.400390625
 10
4895.419921875
 20
-2490.8203125
 10
4895.419921875
 20
-2481.240234375
 10
4895.419921875
 20
-2471.66015625
 10
4895.419921875
 20
-2462.080078125
 10
4895.419921875
 20
-2452.5
 10
4895.419921875
 20
-2442.919921875
 10
4895.419921875
 20
-2433.33984375
 10
4895.419921875
 20
-2423.759765625
 10
4895.419921875
 20
-2414.1796875
 10
4895.419921875
 20
-2404.599609375
 10
4895.419921875
 20
-2395.01953125
 10
4895.419921875
 20
-2385.439453125
 10
4895.419921875
 20
-2375.859375
 10
4895.419921875
 20
-2366.279296875
 10
4895.419921875
 20
-2356.69921875
 10
4895.419921875
 20
-2347.119140625
 10
4895.419921875
 20
-2337.5390625
 10
4895.419921875
 20
-2327.958984375
 10
4895.419921875
 20
-2318.37890625
 10
4895.419921875
 20
-2308.798828125
 10
4895.419921875
 20
-2299.21875
 10
4895.419921875
 20
-2289.638671875
 10
4895.419921875
 20
-2280.05859375
 10
4895.419921875
 20
-2270.478515625
 10
4895.419921875
 20
-2260.8984375
 10
4895.419921875
 20
-2251.318359375
 10
4895.419921875
 20
-2241.73828125
 10
4895.419921875
 20
-2232.158203125
 10
4895.419921875
 20
-2222.578125
 10
4895.419921875
 20
-2212.998046875
 10
4895.419921875
 20
-2203.41796875
 10
4895.419921875
 20
-2193.837890625
 10
4895.419921875
 20
-2184.2578125
 10
4895.419921875
 20
-2174.677734375
 10
4895.419921875
 20
-2165.09765625
 10
4895.419921875
 20
-2155.517578125
 10
4895.419921875
 20
-2145.9375
 10
4895.419921875
 20
-2136.357421875
 10
4895.419921875
 20
-2126.77734375
 10
4895.419921875
 20
-2117.197265625
 10
4895.419921875
 20
-2107.6171875
 10
4895.419921875
 20
-2098.037109375
 10
4895.419921875
 20
-2088.45703125
 10
4895.419921875
 20
-2078.876953125
 10
4895.419921875
 20
-2069.296875
 10
4895.419921875
 20
-2059.716796875
 10
4895.419921875
 20
-2050.13671875
 10
4895.419921875
 20
-2040.556640625
 10
4895.419921875
 20
-2030.9765625
 10
4895.419921875
 20
-2021.396484375
 10
4895.419921875
 20
-2011.81640625
 10
4895.419921875
 20
-2002.236328125
 10
4895.419921875
 20
-1992.65625
 10
4895.419921875
 20
-1983.076171875
 10
4895.419921875
 20
-1973.49609375
 10
4895.419921875
 20
-1963.916015625
 10
4895.419921875
 20
-1954.3359375
 10
4895.419921875
 20
-1944.755859375
 10
4895.419921875
 20
-1935.17578125
 10
4895.419921875
 20
-1925.595703125
 10
4895.419921875
 20
-1916.015625
 10
4895.419921875
 20
-1906.435546875
 10
4895.419921875
 20
-1896.85546875
 10
4895.419921875
 20
-1887.275390625
 10
4895.419921875
 20
-1877.6953125
 10
4895.419921875
 20
-1868.115234375
 10
4895.419921875
 20
-1858.53515625
 10
4895.419921875
 20
-1848.955078125
 10
4895.419921875
 20
-1839.375
 10
4895.419921875
 20
-1829.794921875
 10
4895.419921875
 20
-1820.21484375
 10
4895.419921875
 20
-1810.634765625
 10
4895.419921875
 20
-1801.0546875
 10
4895.419921875
 20
-1791.474609375
 10
4895.419921875
 20
-1781.89453125
 10
4895.419921875
 20
-1772.314453125
 10
4895.419921875
 20
-1762.734375
 10
4895.419921875
 20
-1753.154296875
 10
4895.419921875
 20
-1743.57421875
 10
4895.419921875
 20
-1733.994140625
 10
4895.419921875
 20
-1724.4140625
 10
4895.419921875
 20
-1714.833984375
 10
4895.419921875
 20
-1705.25390625
 10
4895.419921875
 20
-1695.673828125
 10
4895.419921875
 20
-1686.09375
 10
4895.419921875
 20
-1676.513671875
 10
4895.419921875
 20
-1666.93359375
 10
4895.419921875
 20
-1657.353515625
 10
4895.419921875
 20
-1647.7734375
 10
4895.419921875
 20
-1638.193359375
 10
4895.419921875
 20
-1628.61328125
 10
4895.419921875
 20
-1619.033203125
 10
4895.419921875
 20
-1609.453125
 10
4895.419921875
 20
-1599.873046875
 10
4895.419921875
 20
-1590.29296875
 10
4895.419921875
 20
-1580.712890625
 10
4895.419921875
 20
-1571.1328125
 10
4895.419921875
 20
-1561.552734375
 10
4895.419921875
 20
-1551.97265625
 10
4895.419921875
 20
-1542.392578125
 10
4895.419921875
 20
-1532.8125
 10
4895.419921875
 20
-1523.232421875
 10
4895.419921875
 20
-1513.65234375
 10
4895.419921875
 20
-1504.072265625
 10
4895.419921875
 20
-1494.4921875
 10
4895.419921875
 20
-1484.912109375
 10
4895.419921875
 20
-1475.33203125
 10
4895.419921875
 20
-1465.751953125
 10
4895.419921875
 20
-1456.171875
 10
4895.419921875
 20
-1446.591796875
 10
4895.419921875
 20
-1437.01171875
 10
4895.419921875
 20
-1427.431640625
 10
4895.419921875
 20
-1417.8515625
 10
4895.419921875
 20
-1408.271484375
 10
4895.419921875
 20
-1398.69140625
 10
4895.419921875
 20
-1389.111328125
 10
4895.419921875
 20
-1379.53125
 10
4895.419921875
 20
-1369.951171875
 10
4895.419921875
 20
-1360.37109375
 10
4895.419921875
 20
-1350.791015625
 10
4895.419921875
 20
-1341.2109375
 10
4895.419921875
 20
-1331.630859375
 10
4895.419921875
 20
-1322.05078125
 10
4895.419921875
 20
-1312.470703125
 10
4895.419921875
 20
-1302.890625
 10
4895.419921875
 20
-1293.310546875
 10
4895.419921875
 20
-1283.73046875
 10
4895.419921875
 20
-1274.150390625
 10
4895.419921875
 20
-1264.5703125
 10
4895.419921875
 20
-1254.990234375
 10
4895.419921875
 20
-1245.41015625
 10
4895.419921875
 20
-1235.830078125
 10
4895.419921875
 20
-1226.25
 10
4895.419921875
 20
-1216.669921875
 10
4895.419921875
 20
-1207.08984375
 10
4895.419921875
 20
-1197.509765625
 10
4895.419921875
 20
-1187.9296875
 10
4895.419921875
 20
-1178.349609375
 10
4895.419921875
 20
-1168.76953125
 10
4895.419921875
 20
-1159.189453125
 10
4895.419921875
 20
-1149.609375
 10
4895.419921875
 20
-1140.029296875
 10
4895.419921875
 20
-1130.44921875
 10
4895.419921875
 20
-1120.869140625
 10
4895.419921875
 20
-1111.2890625
 10
4895.419921875
 20
-1101.708984375
 10
4895.419921875
 20
-1092.12890625
 10
4895.419921875
 20
-1082.548828125
 10
4895.419921875
 20
-1072.96875
 10
4895.419921875
 20
-1063.388671875
 10
4895.419921875
 20
-1053.80859375
 10
4895.419921875
 20
-1044.228515625
 10
4895.419921875
 20
-1034.6484375
 10
4895.419921875
 20
-1025.068359375
 10
4895.419921875
 20
-1015.48828125
 10
4895.419921875
 20
-1005.908203125
 10
4895.419921875
 20
-996.328125
 10
4895.419921875
 20
-986.748046875
 10
4895.419921875
 20
-977.16796875
 10
4895.419921875
 20
-967.587890625
 10
4895.419921875
 20
-958.0078125
 10
4895.419921875
 20
-948.427734375
 10
4895.419921875
 20
-938.84765625
 10
4895.419921875
 20
-929.267578125
 10
4895.419921875
 20
-919.6875
 10
4895.419921875
 20
-910.107421875
 10
4895.419921875
 20
-900.52734375
 10
4895.419921875
 20
-890.947265625
 10
4895.419921875
 20
-881.3671875
 10
4895.419921875
 20
-871.787109375
 10
4895.419921875
 20
-862.20703125
 10
4895.419921875
 20
-852.626953125
 10
4895.419921875
 20
-843.046875
 10
4895.419921875
 20
-833.466796875
 10
4895.419921875
 20
-823.88671875
 10
4895.419921875
 20
-814.306640625
 10
4895.419921875
 20
-804.7265625
 10
4895.419921875
 20
-795.146484375
 10
4895.419921875
 20
-785.56640625
 10
4895.419921875
 20
-775.986328125
 10
4895.419921875
 20
-766.40625
 10
4895.419921875
 20
-756.826171875
 10
4895.419921875
 20
-747.24609375
 10
4895.419921875
 20
-737.666015625
 10
4895.419921875
 20
-728.0859375
 10
4895.419921875
 20
-718.505859375
 10
4895.419921875
 20
-708.92578125
 10
4895.419921875
 20
-699.345703125
 10
4895.419921875
 20
-689.765625
 10
4895.419921875
 20
-680.185546875
 10
4895.419921875
 20
-670.60546875
 10
4895.419921875
 20
-661.025390625
 10
4895.419921875
 20
-651.4453125
 10
4895.419921875
 20
-641.865234375
 10
4895.419921875
 20
-632.28515625
 10
4895.419921875
 20
-622.705078125
 10
4895.419921875
 20
-613.125
 10
4895.419921875
 20
-603.544921875
 10
4895.419921875
 20
-593.96484375
 10
4895.419921875
 20
-584.384765625
 10
4895.419921875
 20
-574.8046875
 10
4895.419921875
 20
-565.224609375
 10
4895.419921875
 20
-555.64453125
 10
4895.419921875
 20
-546.064453125
 10
4895.419921875
 20
-536.484375
 10
4895.419921875
 20
-526.904296875
 10
4895.419921875
 20
-517.32421875
 10
4895.419921875
 20
-507.744140625
 10
4895.419921875
 20
-498.1640625
 10
4895.419921875
 20
-488.583984375
 10
4895.419921875
 20
-479.00390625
 10
4895.419921875
 20
-469.423828125
 10
4895.419921875
 20
-459.84375
 10
4895.419921875
 20
-450.263671875
 10
4895.419921875
 20
-440.68359375
 10
4895.419921875
 20
-431.103515625
 10
4895.419921875
 20
-421.5234375
 10
4895.419921875
 20
-411.943359375
 10
4895.419921875
 20
-402.36328125
 10
4895.419921875
 20
-392.783203125
 10
4895.419921875
 20
-383.203125
 10
4895.419921875
 20
-373.623046875
 10
4895.419921875
 20
-364.04296875
 10
4895.419921875
 20
-354.462890625
 10
4895.419921875
 20
-344.8828125
 10
4895.419921875
 20
-335.302734375
 10
4895.419921875
 20
-325.72265625
 10
4895.419921875
 20
-316.142578125
 10
4895.419921875
 20
-306.5625
 10
4895.419921875
 20
-296.982421875
 10
4895.419921875
 20
-287.40234375
 10
4895.419921875
 20
-277.822265625
 10
4895.419921875
 20
-268.2421875
 10
4895.419921875
 20
-258.662109375
 10
4895.419921875
 20
-249.08203125
 10
4895.419921875
 20
-239.501953125
 10
4895.419921875
 20
-229.921875
 10
4895.419921875
 20
-220.341796875
 10
4895.419921875
 20
-210.76171875
 10
4895.419921875
 20
-201.181640625
 10
4895.419921875
 20
-191.6015625
 10
4895.419921875
 20
-182.021484375
 10
4895.419921875
 20
-172.44140625
 10
4895.419921875
 20
-162.861328125
 10
4895.419921875
 20
-153.28125
 10
4895.419921875
 20
-143.701171875
 10
4895.419921875
 20
-134.12109375
 10
4895.419921875
 20
-124.541015625
 10
4895.419921875
 20
-114.9609375
 10
4895.419921875
 20
-105.380859375
 10
4895.419921875
 20
-95.80078125
 10
4895.419921875
 20
-86.220703125
 10
4895.419921875
 20
-76.640625
 10
4895.419921875
 20
-67.060546875
 10
4895.419921875
 20
-57.48046875
 10
4895.419921875
 20
-47.900390625
 10
4895.419921875
 20
-38.3203125
 10
4895.419921875
 20
-28.740234375
 10
4895.419921875
 20
-19.16015625
 10
4895.419921875
 20
-9.580078125
 10
4895.419921875
 20
-0.0
 10
4885.83984375
 20
-0.0
 10
4876.259765625
 20
-0.0
 10
4866.6796875
 20
-0.0
 10
4857.099609375
 20
-0.0
 10
4847.51953125
 20
-0.0
 10
4837.939453125
 20
-0.0
 10
4828.359375
 20
-0.0
 10
4818.779296875
 20
-0.0
 10
4809.19921875
 20
-0.0
 10
4799.619140625
 20
-0.0
 10
4790.0390625
 20
-0.0
 10
4780.458984375
 20
-0.0
 10
4770.87890625
 20
-0.0
 10
4761.298828125
 20
-0.0
 10
4751.71875
 20
-0.0
 10
4742.138671875
 20
-0.0
 10
4732.55859375
 20
-0.0
 10
4722.978515625
 20
-0.0
 10
4713.3984375
 20
-0.0
 10
4703.818359375
 20
-0.0
 10
4694.23828125
 20
-0.0
 10
4684.658203125
 20
-0.0
 10
4675.078125
 20
-0.0
 10
4665.498046875
 20
-0.0
 10
4655.91796875
 20
-0.0
 10
4646.337890625
 20
-0.0
 10
4636.7578125
 20
-0.0
 10
4627.177734375
 20
-0.0
 10
4617.59765625
 20
-0.0
 10
4608.017578125
 20
-0.0
 10
4598.4375
 20
-0.0
 10
4588.857421875
 20
-0.0
 10
4579.27734375
 20
-0.0
 10
4569.697265625
 20
-0.0
 10
4560.1171875
 20
-0.0
 10
4550.537109375
 20
-0.0
 10
4540.95703125
 20
-0.0
 10
4531.376953125
 20
-0.0
 10
4521.796875
 20
-0.0
 10
4512.216796875
 20
-0.0
 10
4502.63671875
 20
-0.0
 10
4493.056640625
 20
-0.0
 10
4483.4765625
 20
-0.0
 10
4473.896484375
 20
-0.0
 10
4464.31640625
 20
-0.0
 10
4454.736328125
 20
-0.0
 10
4445.15625
 20
-0.0
 10
4435.576171875
 20
-0.0
 10
4425.99609375
 20
-0.0
 10
4416.416015625
 20
-0.0
 10
4406.8359375
 20
-0.0
 10
4397.255859375
 20
-0.0
 10
4387.67578125
 20
-0.0
 10
4378.095703125
 20
-0.0
 10
4368.515625
 20
-0.0
 10
4358.935546875
 20
-0.0
 10
4349.35546875
 20
-0.0
 10
4339.775390625
 20
-0.0
 10
4330.1953125
 20
-0.0
 10
4320.615234375
 20
-0.0
 10
4311.03515625
 20
-0.0
 10
4301.455078125
 20
-0.0
 10
4291.875
 20
-0.0
 10
4282.294921875
 20
-0.0
 10
4272.71484375
 20
-0.0
 10
4263.134765625
 20
-0.0
 10
4253.5546875
 20
-0.0
 10
4243.974609375
 20
-0.0
 10
4234.39453125
 20
-0.0
 10
4224.814453125
 20
-0.0
 10
4215.234375
 20
-0.0
 10
4205.654296875
 20
-0.0
 10
4196.07421875
 20
-0.0
 10
4186.494140625
 20
-0.0
 10
4176.9140625
 20
-0.0
 10
4167.333984375
 20
-0.0
 10
4157.75390625
 20
-0.0
 10
4148.173828125
 20
-0.0
 10
4138.59375
 20
-0.0
 10
4129.013671875
 20
-0.0
 10
4119.43359375
 20
-0.0
 10
4109.853515625
 20
-0.0
 10
4100.2734375
 20
-0.0
 10
4090.693359375
 20
-0.0
 10
4081.11328125
 20
-0.0
 10
4071.533203125
 20
-0.0
 10
4061.953125
 20
-0.0
 10
4052.373046875
 20
-0.0
 10
4042.79296875
 20
-0.0
 10
4033.212890625
 20
-0.0
 10
4023.6328125
 20
-0.0
 10
4014.052734375
 20
-0.0
 10
4004.47265625
 20
-0.0
 10
3994.892578125
 20
-0.0
 10
3985.3125
 20
-0.0
 10
3975.732421875
 20
-0.0
 10
3966.15234375
 20
-0.0
 10
3956.572265625
 20
-0.0
 10
3946.9921875
 20
-0.0
 10
3937.412109375
 20
-0.0
 10
3927.83203125
 20
-0.0
 10
3918.251953125
 20
-0.0
 10
3908.671875
 20
-0.0
 10
3899.091796875
 20
-0.0
 10
3889.51171875
 20
-0.0
 10
3879.931640625
 20
-0.0
 10
3870.3515625
 20
-0.0
 10
3860.771484375
 20
-0.0
 10
3851.19140625
 20
-0.0
 10
3841.611328125
 20
-0.0
 10
3832.03125
 20
-0.0
 10
3822.451171875
 20
-0.0
 10
3812.87109375
 20
-0.0
 10
3803.291015625
 20
-0.0
 10
3793.7109375
 20
-0.0
 10
3784.130859375
 20
-0.0
 10
3774.55078125
 20
-0.0
 10
3764.970703125
 20
-0.0
 10
3755.390625
 20
-0.0
 10
3745.810546875
 20
-0.0
 10
3736.23046875
 20
-0.0
 10
3726.650390625
 20
-0.0
 10
3717.0703125
 20
-0.0
 10
3707.490234375
 20
-0.0
 10
3697.91015625
 20
-0.0
 10
3688.330078125
 20
-0.0
 10
3678.75
 20
-0.0
 10
3669.169921875
 20
-0.0
 10
3659.58984375
 20
-0.0
 10
3650.009765625
 20
-0.0
 10
3640.4296875
 20
-0.0
 10
3630.849609375
 20
-0.0
 10
3621.26953125
 20
-0.0
 10
3611.689453125
 20
-0.0
 10
3602.109375
 20
-0.0
 10
3592.529296875
 20
-0.0
 10
3582.94921875
 20
-0.0
 10
3573.369140625
 20
-0.0
 10
3563.7890625
 20
-0.0
 10
3554.208984375
 20
-0.0
 10
3544.62890625
 20
-0.0
 10
3535.048828125
 20
-0.0
 10
3525.46875
 20
-0.0
 10
3515.888671875
 20
-0.0
 10
3506.30859375
 20
-0.0
 10
3496.728515625
 20
-0.0
 10
3487.1484375
 20
-0.0
 10
3477.568359375
 20
-0.0
 10
3467.98828125
 20
-0.0
 10
3458.408203125
 20
-0.0
 10
3448.828125
 20
-0.0
 10
3439.248046875
 20
-0.0
 10
3429.66796875
 20
-0.0
 10
3420.087890625
 20
-0.0
 10
3410.5078125
 20
-0.0
 10
3400.927734375
 20
-0.0
 10
3391.34765625
 20
-0.0
 10
3381.767578125
 20
-0.0
 10
3372.1875
 20
-0.0
 10
3362.607421875
 20
-0.0
 10
3353.02734375
 20
-0.0
 10
3343.447265625
 20
-0.0
 10
3333.8671875
 20
-0.0
 10
3324.287109375
 20
-0.0
 10
3314.70703125
 20
-0.0
 10
3305.126953125
 20
-0.0
 10
3295.546875
 20
-0.0
 10
3285.966796875
 20
-0.0
 10
3276.38671875
 20
-0.0
 10
3266.806640625
 20
-0.0
 10
3257.2265625
 20
-0.0
 10
3247.646484375
 20
-0.0
 10
3238.06640625
 20
-0.0
 10
3228.486328125
 20
-0.0
 10
3218.90625
 20
-0.0
 10
3209.326171875
 20
-0.0
 10
3199.74609375
 20
-0.0
 10
3190.166015625
 20
-0.0
 10
3180.5859375
 20
-0.0
 10
3171.005859375
 20
-0.0
 10
3161.42578125
 20
-0.0
 10
3151.845703125
 20
-0.0
 10
3142.265625
 20
-0.0
 10
3132.685546875
 20
-0.0
 10
3123.10546875
 20
-0.0
 10
3113.525390625
 20
-0.0
 10
3103.9453125
 20
-0.0
 10
3094.365234375
 20
-0.0
 10
3084.78515625
 20
-0.0
 10
3075.205078125
 20
-0.0
 10
3065.625
 20
-0.0
 10
3056.044921875
 20
-0.0
 10
3046.46484375
 20
-0.0
 10
3036.884765625
 20
-0.0
 10
3027.3046875
 20
-0.0
 10
3017.724609375
 20
-0.0
 10
3008.14453125
 20
-0.0
 10
2998.564453125
 20
-0.0
 10
2988.984375
 20
-0.0
 10
2979.404296875
 20
-0.0
 10
2969.82421875
 20
-0.0
 10
2960.244140625
 20
-0.0
 10
2950.6640625
 20
-0.0
 10
2941.083984375
 20
-0.0
 10
2931.50390625
 20
-0.0
 10
2921.923828125
 20
-0.0
 10
2912.34375
 20
-0.0
 10
2902.763671875
 20
-0.0
 10
2893.18359375
 20
-0.0
 10
2883.603515625
 20
-0.0
 10
2874.0234375
 20
-0.0
 10
2864.443359375
 20
-0.0
 10
2854.86328125
 20
-0.0
 10
2845.283203125
 20
-0.0
 10
2835.703125
 20
-0.0
 10
2826.123046875
 20
-0.0
 10
2816.54296875
 20
-0.0
 10
2806.962890625
 20
-0.0
 10
2797.3828125
 20
-0.0
 10
2787.802734375
 20
-0.0
 10
2778.22265625
 20
-0.0
 10
2768.642578125
 20
-0.0
 10
2759.0625
 20
-0.0
 10
2749.482421875
 20
-0.0
 10
2739.90234375
 20
-0.0
 10
2730.322265625
 20
-0.0
 10
2720.7421875
 20
-0.0
 10
2711.162109375
 20
-0.0
 10
2701.58203125
 20
-0.0
 10
2692.001953125
 20
-0.0
 10
2682.421875
 20
-0.0
 10
2672.841796875
 20
-0.0
 10
2663.26171875
 20
-0.0
 10
2653.681640625
 20
-0.0
 10
2644.1015625
 20
-0.0
 10
2634.521484375
 20
-0.0
 10
2624.94140625
 20
-0.0
 10
2615.361328125
 20
-0.0
 10
2605.78125
 20
-0.0
 10
2596.201171875
 20
-0.0
 10
2586.62109375
 20
-0.0
 10
2577.041015625
 20
-0.0
 10
2567.4609375
 20
-0.0
 10
2557.880859375
 20
-0.0
 10
2548.30078125
 20
-0.0
 10
2538.720703125
 20
-0.0
 10
2529.140625
 20
-0.0
 10
2519.560546875
 20
-0.0
 10
2509.98046875
 20
-0.0
 10
2500.400390625
 20
-0.0
 10
2490.8203125
 20
-0.0
 10
2481.240234375
 20
-0.0
 10
2471.66015625
 20
-0.0
 10
2462.080078125
 20
-0.0
 10
2452.5
 20
-0.0
 10
2442.919921875
 20
-0.0
 10
2433.33984375
 20
-0.0
 10
2423.759765625
 20
-0.0
 10
2414.1796875
 20
-0.0
 10
2404.599609375
 20
-0.0
 10
2395.01953125
 20
-0.0
 10
2385.439453125
 20
-0.0
 10
2375.859375
 20
-0.0
 10
2366.279296875
 20
-0.0
 10
2356.69921875
 20
-0.0
 10
2347.119140625
 20
-0.0
 10
2337.5390625
 20
-0.0
 10
2327.958984375
 20
-0.0
 10
2318.37890625
 20
-0.0
 10
2308.798828125
 20
-0.0
 10
2299.21875
 20
-0.0
 10
2289.638671875
 20
-0.0
 10
2280.05859375
 20
-0.0
 10
2270.478515625
 20
-0.0
 10
2260.8984375
 20
-0.0
 10
2251.318359375
 20
-0.0
 10
2241.73828125
 20
-0.0
 10
2232.158203125
 20
-0.0
 10
2222.578125
 20
-0.0
 10
2212.998046875
 20
-0.0
 10
2203.41796875
 20
-0.0
 10
2193.837890625
 20
-0.0
 10
2184.2578125
 20
-0.0
 10
2174.677734375
 20
-0.0
 10
2165.09765625
 20
-0.0
 10
2155.517578125
 20
-0.0
 10
2145.9375
 20
-0.0
 10
2136.357421875
 20
-0.0
 10
2126.77734375
 20
-0.0
 10
2117.197265625
 20
-0.0
 10
2107.6171875
 20
-0.0
 10
2098.037109375
 20
-0.0
 10
2088.45703125
 20
-0.0
 10
2078.876953125
 20
-0.0
 10
2069.296875
 20
-0.0
 10
2059.716796875
 20
-0.0
 10
2050.13671875
 20
-0.0
 10
2040.556640625
 20
-0.0
 10
2030.9765625
 20
-0.0
 10
2021.396484375
 20
-0.0
 10
2011.81640625
 20
-0.0
 10
2002.236328125
 20
-0.0
 10
1992.65625
 20
-0.0
 10
1983.076171875
 20
-0.0
 10
1973.49609375
 20
-0.0
 10
1963.916015625
 20
-0.0
 10
1954.3359375
 20
-0.0
 10
1944.755859375
 20
-0.0
 10
1935.17578125
 20
-0.0
 10
1925.595703125
 20
-0.0
 10
1916.015625
 20
-0.0
 10
1906.435546875
 20
-0.0
 10
1896.85546875
 20
-0.0
 10
1887.275390625
 20
-0.0
 10
1877.6953125
 20
-0.0
 10
1868.115234375
 20
-0.0
 10
1858.53515625
 20
-0.0
 10
1848.955078125
 20
-0.0
 10
1839.375
 20
-0.0
 10
1829.794921875
 20
-0.0
 10
1820.21484375
 20
-0.0
 10
1810.634765625
 20
-0.0
 10
1801.0546875
 20
-0.0
 10
1791.474609375
 20
-0.0
 10
1781.89453125
 20
-0.0
 10
1772.314453125
 20
-0.0
 10
1762.734375
 20
-0.0
 10
1753.154296875
 20
-0.0
 10
1743.57421875
 20
-0.0
 10
1733.994140625
 20
-0.0
 10
1724.4140625
 20
-0.0
 10
1714.833984375
 20
-0.0
 10
1705.25390625
 20
-0.0
 10
1695.673828125
 20
-0.0
 10
1686.09375
 20
-0.0
 10
1676.513671875
 20
-0.0
 10
1666.93359375
 20
-0.0
 10
1657.353515625
 20
-0.0
 10
1647.7734375
 20
-0.0
 10
1638.193359375
 20
-0.0
 10
1628.61328125
 20
-0.0
 10
1619.033203125
 20
-0.0
 10
1609.453125
 20
-0.0
 10
1599.873046875
 20
-0.0
 10
1590.29296875
 20
-0.0
 10
1580.712890625
 20
-0.0
 10
1571.1328125
 20
-0.0
 10
1561.552734375
 20
-0.0
 10
1551.97265625
 20
-0.0
 10
1542.392578125
 20
-0.0
 10
1532.8125
 20
-0.0
 10
1523.232421875
 20
-0.0
 10
1513.65234375
 20
-0.0
 10
1504.072265625
 20
-0.0
 10
1494.4921875
 20
-0.0
 10
1484.912109375
 20
-0.0
 10
1475.33203125
 20
-0.0
 10
1465.751953125
 20
-0.0
 10
1456.171875
 20
-0.0
 10
1446.591796875
 20
-0.0
 10
1437.01171875
 20
-0.0
 10
1427.431640625
 20
-0.0
 10
1417.8515625
 20
-0.0
 10
1408.271484375
 20
-0.0
 10
1398.69140625
 20
-0.0
 10
1389.111328125
 20
-0.0
 10
1379.53125
 20
-0.0
 10
1369.951171875
 20
-0.0
 10
1360.37109375
 20
-0.0
 10
1350.791015625
 20
-0.0
 10
1341.2109375
 20
-0.0
 10
1331.630859375
 20
-0.0
 10
1322.05078125
 20
-0.0
 10
1312.470703125
 20
-0.0
 10
1302.890625
 20
-0.0
 10
1293.310546875
 20
-0.0
 10
1283.73046875
 20
-0.0
 10
1274.150390625
 20
-0.0
 10
1264.5703125
 20
-0.0
 10
1254.990234375
 20
-0.0
 10
1245.41015625
 20
-0.0
 10
1235.830078125
 20
-0.0
 10
1226.25
 20
-0.0
 10
1216.669921875
 20
-0.0
 10
1207.08984375
 20
-0.0
 10
1197.509765625
 20
-0.0
 10
1187.9296875
 20
-0.0
 10
1178.349609375
 20
-0.0
 10
1168.76953125
 20
-0.0
 10
1159.189453125
 20
-0.0
 10
1149.609375
 20
-0.0
 10
1140.029296875
 20
-0.0
 10
1130.44921875
 20
-0.0
 10
1120.869140625
 20
-0.0
 10
1111.2890625
 20
-0.0
 10
1101.708984375
 20
-0.0
 10
1092.12890625
 20
-0.0
 10
1082.548828125
 20
-0.0
 10
1072.96875
 20
-0.0
 10
1063.388671875
 20
-0.0
 10
1053.80859375
 20
-0.0
 10
1044.228515625
 20
-0.0
 10
1034.6484375
 20
-0.0
 10
1025.068359375
 20
-0.0
 10
1015.48828125
 20
-0.0
 10
1005.908203125
 20
-0.0
 10
996.328125
 20
-0.0
 10
986.748046875
 20
-0.0
 10
977.16796875
 20
-0.0
 10
967.587890625
 20
-0.0
 10
958.0078125
 20
-0.0
 10
948.427734375
 20
-0.0
 10
938.84765625
 20
-0.0
 10
929.267578125
 20
-0.0
 10
919.6875
 20
-0.0
 10
910.107421875
 20
-0.0
 10
900.52734375
 20
-0.0
 10
890.947265625
 20
-0.0
 10
881.3671875
 20
-0.0
 10
871.787109375
 20
-0.0
 10
862.20703125
 20
-0.0
 10
852.626953125
 20
-0.0
 10
843.046875
 20
-0.0
 10
833.466796875
 20
-0.0
 10
823.88671875
 20
-0.0
 10
814.306640625
 20
-0.0
 10
804.7265625
 20
-0.0
 10
795.146484375
 20
-0.0
 10
785.56640625
 20
-0.0
 10
775.986328125
 20
-0.0
 10
766.40625
 20
-0.0
 10
756.826171875
 20
-0.0
 10
747.24609375
 20
-0.0
 10
737.666015625
 20
-0.0
 10
728.0859375
 20
-0.0
 10
718.505859375
 20
-0.0
 10
708.92578125
 20
-0.0
 10
699.345703125
 20
-0.0
 10
689.765625
 20
-0.0
 10
680.185546875
 20
-0.0
 10
670.60546875
 20
-0.0
 10
661.025390625
 20
-0.0
 10
651.4453125
 20
-0.0
 10
641.865234375
 20
-0.0
 10
632.28515625
 20
-0.0
 10
622.705078125
 20
-0.0
 10
613.125
 20
-0.0
 10
603.544921875
 20
-0.0
 10
593.96484375
 20
-0.0
 10
584.384765625
 20
-0.0
 10
574.8046875
 20
-0.0
 10
565.224609375
 20
-0.0
 10
555.64453125
 20
-0.0
 10
546.064453125
 20
-0.0
 10
536.484375
 20
-0.0
 10
526.904296875
 20
-0.0
 10
517.32421875
 20
-0.0
 10
507.744140625
 20
-0.0
 10
498.1640625
 20
-0.0
 10
488.583984375
 20
-0.0
 10
479.00390625
 20
-0.0
 10
469.423828125
 20
-0.0
 10
459.84375
 20
-0.0
 10
450.263671875
 20
-0.0
 10
440.68359375
 20
-0.0
 10
431.103515625
 20
-0.0
 10
421.5234375
 20
-0.0
 10
411.943359375
 20
-0.0
 10
402.36328125
 20
-0.0
 10
392.783203125
 20
-0.0
 10
383.203125
 20
-0.0
 10
373.623046875
 20
-0.0
 10
364.04296875
 20
-0.0
 10
354.462890625
 20
-0.0
 10
344.8828125
 20
-0.0
 10
335.302734375
 20
-0.0
 10
325.72265625
 20
-0.0
 10
316.142578125
 20
-0.0
 10
306.5625
 20
-0.0
 10
296.982421875
 20
-0.0
 10
287.40234375
 20
-0.0
 10
277.822265625
 20
-0.0
 10
268.2421875
 20
-0.0
 10
258.662109375
 20
-0.0
 10
249.08203125
 20
-0.0
 10
239.501953125
 20
-0.0
 10
229.921875
 20
-0.0
 10
220.341796875
 20
-0.0
 10
210.76171875
 20
-0.0
 10
201.181640625
 20
-0.0
 10
191.6015625
 20
-0.0
 10
182.021484375
 20
-0.0
 10
172.44140625
 20
-0.0
 10
162.861328125
 20
-0.0
 10
153.28125
 20
-0.0
 10
143.701171875
 20
-0.0
 10
134.12109375
 20
-0.0
 10
124.541015625
 20
-0.0
 10
114.9609375
 20
-0.0
 10
105.380859375
 20
-0.0
 10
95.80078125
 20
-0.0
 10
86.220703125
 20
-0.0
 10
76.640625
 20
-0.0
 10
67.060546875
 20
-0.0
 10
57.48046875
 20
-0.0
 10
47.900390625
 20
-0.0
 10
38.3203125
 20
-0.0
 10
28.740234375
 20
-0.0
 10
19.16015625
 20
-0.0
 10
9.580078125
 20
-0.0
  0
LWPOLYLINE
  5
38
330
17
100
AcDbEntity
  8
substrate
100
AcDbPolyline
 90
4
 70
1
 43
0.5
 10
3975.732421875
 20
-3592.529296875
 10
3985.3125
 20
-3582.94921875
 10
3994.892578125
 20
-3592.529296875
 10
3985.3125
 20
-3602.109375
  0
LWPOLYLINE
  5
39
330
17
100
AcDbEntity
  8
substrate
100
AcDbPolyline
 90
10
 70
1
 43
0.5
 10
3994.892578125
 20
-3563.7890625
 10
4004.47265625
 20
-3554.208984375
 10
4014.052734375
 20
-3563.7890625
 10
4023.6328125
 20
-3563.7890625
 10
4033.212890625
 20
-3573.369140625
 10
4023.6328125
 20
-3582.94921875
 10
4014.052734375
 20
-3582.94921875
 10
4004.47265625
 20
-3592.529296875
 10
3994.892578125
 20
-3582.94921875
 10
3985.3125
 20
-3573.369140625
  0
LWPOLYLINE
  5
3A
330
17
100
AcDbEntity
  8
substrate
100
AcDbPolyline
 90
4
 70
1
 43
0.5
 10
4358.935546875
 20
-2998.564453125
 10
4368.515625
 20
-2988.984375
 10
4378.095703125
 20
-2998.564453125
 10
4368.515625
 20
-3008.14453125
  0
LWPOLYLINE
  5
3B
330
17
100
AcDbEntity
  8
substrate
100
AcDbPolyline
 90
4
 70
1
 43
0.5
 10
1676.513671875
 20
-2596.201171875
 10
1686.09375
 20
-2586.62109375
 10
1695.673828125
 20
-2596.201171875
 10
1686.09375
 20
-2605.78125
  0
LWPOLYLINE
  5
3C
330
17
100
AcDbEntity
  8
substrate
100
AcDbPolyline
 90
224
 70
1
 43
0.5
 10
2442.919921875
 20
-2078.876953125
 10
2452.5
 20
-2069.296875
 10
2462.080078125
 20
-2069.296875
 10
2471.66015625
 20
-2078.876953125
 10
2481.240234375
 20
-2078.876953125
 10
2490.8203125
 20
-2078.876953125
 10
2500.400390625
 20
-2078.876953125
 10
2509.98046875
 20
-2078.876953125
 10
2519.560546875
 20
-2088.45703125
 10
2529.140625
 20
-2088.45703125
 10
2538.720703125
 20
-2088.45703125
 10
2548.30078125
 20
-2088.45703125
 10
2557.880859375
 20
-2088.45703125
 10
2567.4609375
 20
-2088.45703125
 10
2577.041015625
 20
-2098.037109375
 10
2586.62109375
 20
-2098.037109375
 10
2596.201171875
 20
-2107.6171875
 10
2605.78125
 20
-2107.6171875
 10
2615.361328125
 20
-2117.197265625
 10
2624.94140625
 20
-2117.197265625
 10
2634.521484375
 20
-2126.77734375
 10
2644.1015625
 20
-2136.357421875
 10
2653.681640625
 20
-2136.357421875
 10
2663.26171875
 20
-2145.9375
 10
2672.841796875
 20
-2155.517578125
 10
2682.421875
 20
-2155.517578125
 10
2692.001953125
 20
-2165.09765625
 10
2701.58203125
 20
-2174.677734375
 10
2711.162109375
 20
-2184.2578125
 10
2720.7421875
 20
-2193.837890625
 10
2720.7421875
 20
-2203.41796875
 10
2730.322265625
 20
-2203.41796875
 10
2739.90234375
 20
-2212.998046875
 10
2739.90234375
 20
-2222.578125
 10
2749.482421875
 20
-2222.578125
 10
2759.0625
 20
-2232.158203125
 10
2759.0625
 20
-2241.73828125
 10
2768.642578125
 20
-2251.318359375
 10
2768.642578125
 20
-2260.8984375
 10
2778.22265625
 20
-2270.478515625
 10
2787.802734375
 20
-2280.05859375
 10
2787.802734375
 20
-2289.638671875
 10
2787.802734375
 20
-2299.21875
 10
2797.3828125
 20
-2308.798828125
 10
2797.3828125
 20
-2318.37890625
 10
2797.3828125
 20
-2327.958984375
 10
2797.3828125
 20
-2337.5390625
 10
2806.962890625
 20
-2347.119140625
 10
2806.962890625
 20
-2356.69921875
 10
2806.962890625
 20
-2366.279296875
 10
2816.54296875
 20
-2375.859375
 10
2816.54296875
 20
-2385.439453125
 10
2816.54296875
 20
-2395.01953125
 10
2816.54296875
 20
-2404.599609375
 10
2816.54296875
 20
-2414.1796875
 10
2816.54296875
 20
-2423.759765625
 10
2826.123046875
 20
-2433.33984375
 10
2826.123046875
 20
-2442.919921875
 10
2826.123046875
 20
-2452.5
 10
2826.123046875
 20
-2462.080078125
 10
2826.123046875
 20
-2471.66015625
 10
2816.54296875
 20
-2481.240234375
 10
2816.54296875
 20
-2490.8203125
 10
2816.54296875
 20
-2500.400390625
 10
2816.54296875
 20
-2509.98046875
 10
2816.54296875
 20
-2519.560546875
 10
2816.54296875
 20
-2529.140625
 10
2816.54296875
 20
-2538.720703125
 10
2806.962890625
 20
-2548.30078125
 10
2806.962890625
 20
-2557.880859375
 10
2806.962890625
 20
-2567.4609375
 10
2797.3828125
 20
-2577.041015625
 10
2797.3828125
 20
-2586.62109375
 10
2787.802734375
 20
-2596.201171875
 10
2787.802734375
 20
-2605.78125
 10
2778.22265625
 20
-2615.361328125
 10
2778.22265625
 20
-2624.94140625
 10
2778.22265625
 20
-2634.521484375
 10
2768.642578125
 20
-2644.1015625
 10
2768.642578125
 20
-2653.681640625
 10
2759.0625
 20
-2663.26171875
 10
2759.0625
 20
-2672.841796875
 10
2749.482421875
 20
-2682.421875
 10
2739.90234375
 20
-2692.001953125
 10
2730.322265625
 20
-2692.001953125
 10
2720.7421875
 20
-2701.58203125
 10
2711.162109375
 20
-2711.162109375
 10
2701.58203125
 20
-2720.7421875
 10
2692.001953125
 20
-2730.322265625
 10
2682.421875
 20
-2739.90234375
 10
2672.841796875
 20
-2749.482421875
 10
2663.26171875
 20
-2749.482421875
 10
2653.681640625
 20
-2759.0625
 10
2644.1015625
 20
-2759.0625
 10
2634.521484375
 20
-2768.642578125
 10
2624.94140625
 20
-2778.22265625
 10
2615.361328125
 20
-2778.22265625
 10
2605.78125
 20
-2778.22265625
 10
2596.201171875
 20
-2787.802734375
 10
2586.62109375
 20
-2787.802734375
 10
2577.041015625
 20
-2787.802734375
 10
2567.4609375
 20
-2797.3828125
 10
2557.880859375
 20
-2797.3828125
 10
2548.30078125
 20
-2797.3828125
 10
2538.720703125
 20
-2806.962890625
 10
2529.140625
 20
-2806.962890625
 10
2519.560546875
 20
-2816.54296875
 10
2509.98046875
 20
-2816.54296875
 10
2500.400390625
 20
-2816.54296875
 10
2490.8203125
 20
-2816.54296875
 10
2481.240234375
 20
-2816.54296875
 10
2471.66015625
 20
-2816.54296875
 10
2462.080078125
 20
-2826.123046875
 10
2452.5
 20
-2826.123046875
 10
2442.919921875
 20
-2826.123046875
 10
2433.33984375
 20
-2826.123046875
 10
2423.759765625
 20
-2826.123046875
 10
2414.1796875
 20
-2826.123046875
 10
2404.599609375
 20
-2816.54296875
 10
2395.01953125
 20
-2816.54296875
 10
2385.439453125
 20
-2816.54296875
 10
2375.859375
 20
-2816.54296875
 10
2366.279296875
 20
-2816.54296875
 10
2356.69921875
 20
-2816.54296875
 10
2347.119140625
 20
-2806.962890625
 10
2337.5390625
 20
-2806.962890625
 10
2327.958984375
 20
-2806.962890625
 10
2318.37890625
 20
-2797.3828125
 10
2308.798828125
 20
-2797.3828125
 10
2299.21875
 20
-2797.3828125
 10
2289.638671875
 20
-2787.802734375
 10
2280.05859375
 20
-2787.802734375
 10
2270.478515625
 20
-2778.22265625
 10
2260.8984375
 20
-2768.642578125
 10
2251.318359375
 20
-2759.0625
 10
2241.73828125
 20
-2749.482421875
 10
2232.158203125
 20
-2739.90234375
 10
2222.578125
 20
-2739.90234375
 10
2212.998046875
 20
-2730.322265625
 10
2203.41796875
 20
-2730.322265625
 10
2193.837890625
 20
-2720.7421875
 10
2184.2578125
 20
-2711.162109375
 10
2174.677734375
 20
-2701.58203125
 10
2165.09765625
 20
-2692.001953125
 10
2165.09765625
 20
-2682.421875
 10
2155.517578125
 20
-2682.421875
 10
2145.9375
 20
-2672.841796875
 10
2145.9375
 20
-2663.26171875
 10
2136.357421875
 20
-2653.681640625
 10
2126.77734375
 20
-2644.1015625
 10
2126.77734375
 20
-2634.521484375
 10
2117.197265625
 20
-2624.94140625
 10
2117.197265625
 20
-2615.361328125
 10
2107.6171875
 20
-2605.78125
 10
2107.6171875
 20
-2596.201171875
 10
2098.037109375
 20
-2586.62109375
 10
2098.037109375
 20
-2577.041015625
 10
2098.037109375
 20
-2567.4609375
 10
2088.45703125
 20
-2557.880859375
 10
2088.45703125
 20
-2548.30078125
 10
2088.45703125
 20
-2538.720703125
 10
2088.45703125
 20
-2529.140625
 10
2078.876953125
 20
-2519.560546875
 10
2088.45703125
 20
-2509.98046875
 10
2078.876953125
 20
-2500.400390625
 10
2078.876953125
 20
-2490.8203125
 10
2078.876953125
 20
-2481.240234375
 10
2078.876953125
 20
-2471.66015625
 10
2078.876953125
 20
-2462.080078125
 10
2078.876953125
 20
-2452.5
 10
2078.876953125
 20
-2442.919921875
 10
2078.876953125
 20
-2433.33984375
 10
2078.876953125
 20
-2423.759765625
 10
2078.876953125
 20
-2414.1796875
 10
2078.876953125
 20
-2404.599609375
 10
2078.876953125
 20
-2395.01953125
 10
2078.876953125
 20
-2385.439453125
 10
2078.876953125
 20
-2375.859375
 10
2088.45703125
 20
-2366.279296875
 10
2088.45703125
 20
-2356.69921875
 10
2088.45703125
 20
-2347.119140625
 10
2098.037109375
 20
-2337.5390625
 10
2098.037109375
 20
-2327.958984375
 10
2098.037109375
 20
-2318.37890625
 10
2107.6171875
 20
-2308.798828125
 10
2107.6171875
 20
-2299.21875
 10
2117.197265625
 20
-2289.638671875
 10
2126.77734375
 20
-2280.05859375
 10
2126.77734375
 20
-2270.478515625
 10
2126.77734375
 20
-2260.8984375
 10
2136.357421875
 20
-2251.318359375
 10
2145.9375
 20
-2241.73828125
 10
2155.517578125
 20
-2232.158203125
 10
2155.517578125
 20
-2222.578125
 10
2165.09765625
 20
-2212.998046875
 10
2174.677734375
 20
-2203.41796875
 10
2174.677734375
 20
-2193.837890625
 10
2184.2578125
 20
-2184.2578125
 10
2193.837890625
 20
-2184.2578125
 10
2203.41796875
 20
-2174.677734375
 10
2212.998046875
 20
-2165.09765625
 10
2222.578125
 20
-2155.517578125
 10
2232.158203125
 20
-2145.9375
 10
2241.73828125
 20
-2136.357421875
 10
2251.318359375
 20
-2136.357421875
 10
2260.8984375
 20
-2126.77734375
 10
2270.478515625
 20
-2117.197265625
 10
2280.05859375
 20
-2117.197265625
 10
2289.638671875
 20
-2107.6171875
 10
2299.21875
 20
-2107.6171875
 10
2308.798828125
 20
-2098.037109375
 10
2318.37890625
 20
-2098.037109375
 10
2327.958984375
 20
-2098.037109375
 10
2337.5390625
 20
-2098.037109375
 10
2347.119140625
 20
-2088.45703125
 10
2356.69921875
 20
-2088.45703125
 10
2366.279296875
 20
-2088.45703125
 10
2375.859375
 20
-2078.876953125
 10
2385.439453125
 20
-2078.876953125
 10
2395.01953125
 20
-2078.876953125
 10
2404.599609375
 20
-2078.876953125
 10
2414.1796875
 20
-2078.876953125
 10
2423.759765625
 20
-2078.876953125
 10
2433.33984375
 20
-2078.876953125
  0
LWPOLYLINE
  5
3D
330
17
100
AcDbEntity
  8
substrate
100
AcDbPolyline
 90
2
 70
1
 43
0.5
 10
2356.69921875
 20
-2337.5390625
 10
2366.279296875
 20
-2337.5390625
  0
LWPOLYLINE
  5
3E
330
17
100
AcDbEntity
  8
substrate
100
AcDbPolyline
 90
4
 70
1
 43
0.5
 10
1504.072265625
 20
-2021.396484375
 10
1513.65234375
 20
-2011.81640625
 10
1523.232421875
 20
-2021.396484375
 10
1513.65234375
 20
-2030.9765625
  0
LWPOLYLINE
  5
3F
330
17
100
AcDbEntity
  8
substrate
100
AcDbPolyline
 90
4
 70
1
 43
0.5
 10
1484.912109375
 20
-2021.396484375
 10
1494.4921875
 20
-2011.81640625
 10
1504.072265625
 20
-2021.396484375
 10
1494.4921875
 20
-2030.9765625
  0
LWPOLYLINE
  5
40
330
17
100
AcDbEntity
  8
substrate
100
AcDbPolyline
 90
4
 70
1
 43
0.5
 10
2529.140625
 20
-1159.189453125
 10
2538.720703125
 20
-1149.609375
 10
2548.30078125
 20
-1159.189453125
 10
2538.720703125
 20
-1168.76953125
  0
ENDSEC
  0
SECTION
  2
OBJECTS
  0
DICTIONARY
  5
A
330
0
100
AcDbDictionary
280
0
281
1
  3
ACAD_COLOR
350
B
  3
ACAD_GROUP
350
C
  3
ACAD_LAYOUT
350
D
  3
ACAD_MATERIAL
350
E
  3
ACAD_MLEADERSTYLE
350
F
  3
ACAD_MLINESTYLE
350
10
  3
ACAD_PLOTSETTINGS
350
11
  3
ACAD_PLOTSTYLENAME
350
12
  3
ACAD_SCALELIST
350
14
  3
ACAD_TABLESTYLE
350
15
  3
ACAD_VISUALSTYLE
350
16
  3
EZDXF_META
350
2D
  0
DICTIONARY
  5
B
330
A
100
AcDbDictionary
280
0
281
1
  0
DICTIONARY
  5
C
330
A
100
AcDbDictionary
280
0
281
1
  0
DICTIONARY
  5
D
330
A
100
AcDbDictionary
280
0
281
1
  3
Model
350
1A
  3
Layout1
350
1E
  0
DICTIONARY
  5
E
330
A
100
AcDbDictionary
280
0
281
1
  3
ByBlock
350
1F
  3
ByLayer
350
20
  3
Global
350
21
  0
DICTIONARY
  5
F
330
A
100
AcDbDictionary
280
0
281
1
  3
Standard
350
2C
  0
DICTIONARY
  5
10
330
A
100
AcDbDictionary
280
0
281
1
  3
Standard
350
22
  0
DICTIONARY
  5
11
330
A
100
AcDbDictionary
280
0
281
1
  0
ACDBDICTIONARYWDFLT
  5
12
330
A
100
AcDbDictionary
280
0
281
1
  3
Normal
350
13
100
AcDbDictionaryWithDefault
340
13
  0
ACDBPLACEHOLDER
  5
13
330
12
  0
DICTIONARY
  5
14
330
A
100
AcDbDictionary
280
0
281
1
  0
DICTIONARY
  5
15
330
A
100
AcDbDictionary
280
0
281
1
  0
DICTIONARY
  5
16
330
A
100
AcDbDictionary
280
0
281
1
  0
LAYOUT
  5
1A
330
D
100
AcDbPlotSettings
  1

  2
Adobe PDF
  4
A3
  6

 40
7.5
 41
20.0
 42
7.5
 43
20.0
 44
420.0
 45
297.0
 46
0.0
 47
0.0
 48
0.0
 49
0.0
140
0.0
141
0.0
142
1.0
143
1.0
 70
1024
 72
1
 73
0
 74
5
  7

 75
16
 76
0
 77
2
 78
300
147
1.0
148
0.0
149
0.0
100
AcDbLayout
  1
Model
 70
1
 71
0
 10
0.0
 20
0.0
 11
420.0
 21
297.0
 12
0.0
 22
0.0
 32
0.0
 14
1e+20
 24
1e+20
 34
1e+20
 15
-1e+20
 25
-1e+20
 35
-1e+20
146
0.0
 13
0.0
 23
0.0
 33
0.0
 16
1.0
 26
0.0
 36
0.0
 17
0.0
 27
1.0
 37
0.0
 76
1
330
17
  0
LAYOUT
  5
1E
330
D
100
AcDbPlotSettings
  1

  2
Adobe PDF
  4
A3
  6

 40
7.5
 41
20.0
 42
7.5
 43
20.0
 44
420.0
 45
297.0
 46
0.0
 47
0.0
 48
0.0
 49
0.0
140
0.0
141
0.0
142
1.0
143
1.0
 70
0
 72
1
 73
0
 74
5
  7

 75
16
 76
0
 77
2
 78
300
147
1.0
148
0.0
149
0.0
100
AcDbLayout
  1
Layout1
 70
1
 71
1
 10
0.0
 20
0.0
 11
420.0
 21
297.0
 12
0.0
 22
0.0
 32
0.0
 14
1e+20
 24
1e+20
 34
1e+20
 15
-1e+20
 25
-1e+20
 35
-1e+20
146
0.0
 13
0.0
 23
0.0
 33
0.0
 16
1.0
 26
0.0
 36
0.0
 17
0.0
 27
1.0
 37
0.0
 76
1
330
1B
  0
MATERIAL
  5
1F
102
{ACAD_REACTORS
330
E
102
}
330
E
100
AcDbMaterial
  1
ByBlock
  2

 70
0
 40
1.0
 71
1
 41
1.0
 91
-1023410177
 42
1.0
 72
1
  3

 73
1
 74
1
 75
1
 44
0.5
 73
0
 45
1.0
 46
1.0
 77
1
  4

 78
1
 79
1
170
1
 48
1.0
171
1
  6

172
1
173
1
174
1
140
1.0
141
1.0
175
1
  7

176
1
177
1
178
1
143
1.0
179
1
  8

270
1
271
1
272
1
145
1.0
146
1.0
273
1
  9

274
1
275
1
276
1
 42
1.0
 72
1
  3

 73
1
 74
1
 75
1
 94
63
  0
MATERIAL
  5
20
102
{ACAD_REACTORS
330
E
102
}
330
E
100
AcDbMaterial
  1
ByLayer
  2

 70
0
 40
1.0
 71
1
 41
1.0
 91
-1023410177
 42
1.0
 72
1
  3

 73
1
 74
1
 75
1
 44
0.5
 73
0
 45
1.0
 46
1.0
 77
1
  4

 78
1
 79
1
170
1
 48
1.0
171
1
  6

172
1
173
1
174
1
140
1.0
141
1.0
175
1
  7

176
1
177
1
178
1
143
1.0
179
1
  8

270
1
271
1
272
1
145
1.0
146
1.0
273
1
  9

274
1
275
1
276
1
 42
1.0
 72
1
  3

 73
1
 74
1
 75
1
 94
63
  0
MATERIAL
  5
21
102
{ACAD_REACTORS
330
E
102
}
330
E
100
AcDbMaterial
  1
Global
  2

 70
0
 40
1.0
 71
1
 41
1.0
 91
-1023410177
 42
1.0
 72
1
  3

 73
1
 74
1
 75
1
 44
0.5
 73
0
 45
1.0
 46
1.0
 77
1
  4

 78
1
 79
1
170
1
 48
1.0
171
1
  6

172
1
173
1
174
1
140
1.0
141
1.0
175
1
  7

176
1
177
1
178
1
143
1.0
179
1
  8

270
1
271
1
272
1
145
1.0
146
1.0
273
1
  9

274
1
275
1
276
1
 42
1.0
 72
1
  3

 73
1
 74
1
 75
1
 94
63
  0
MLINESTYLE
  5
22
102
{ACAD_REACTORS
330
10
102
}
330
10
100
AcDbMlineStyle
  2
Standard
 70
0
  3

 62
256
 51
90.0
 52
90.0
 71
2
 49
0.5
 62
256
  6
BYLAYER
 49
-0.5
 62
256
  6
BYLAYER
  0
MLEADERSTYLE
  5
2C
102
{ACAD_REACTORS
330
F
102
}
330
F
100
AcDbMLeaderStyle
179
2
170
2
171
1
172
0
 90
2
 40
0.0
 41
0.0
173
1
 91
-1056964608
 92
-2
290
1
 42
2.0
291
1
 43
8.0
  3
Standard
 44
4.0
300

342
29
174
1
175
1
176
0
178
1
 93
-1056964608
 45
4.0
292
0
297
0
 46
4.0
 94
-1056964608
 47
1.0
 49
1.0
140
1.0
294
1
141
0.0
177
0
142
1.0
295
0
296
0
143
3.75
271
0
272
9
273
9
  0
DICTIONARY
  5
2D
330
A
100
AcDbDictionary
281
1
  3
CREATED_BY_EZDXF
350
2E
  3
WRITTEN_BY_EZDXF
350
43
  0
DICTIONARYVAR
  5
2E
330
2D
100
DictionaryVariables
280
0
  1
1.1.0 @ 2024-12-31T12:33:01.898793+00:00
  0
DICTIONARYVAR
  5
43
330
2D
100
DictionaryVariables
280
0
  1
1.1.0 @ 2024-12-31T12:33:01.903860+00:00
  0
ENDSEC
  0
EOF
