  0
SECTION
  2
HEADER
  9
$ACADVER
  1
AC1027
  9
$ACADMAINTVER
 70
105
  9
$DWGCODEPAGE
  3
ANSI_1252
  9
$LASTSAVEDBY
  1
ezdxf
  9
$REQUIREDVERSIONS
160
0
  9
$INSBASE
 10
0.0
 20
0.0
 30
0.0
  9
$EXTMIN
 10
1e+20
 20
1e+20
 30
1e+20
  9
$EXTMAX
 10
-1e+20
 20
-1e+20
 30
-1e+20
  9
$LIMMIN
 10
0.0
 20
0.0
  9
$LIMMAX
 10
420.0
 20
297.0
  9
$ORTHOMODE
 70
0
  9
$REGENMODE
 70
1
  9
$FILLMODE
 70
1
  9
$QTEXTMODE
 70
0
  9
$MIRRTEXT
 70
1
  9
$LTSCALE
 40
1.0
  9
$ATTMODE
 70
1
  9
$TEXTSIZE
 40
2.5
  9
$TRACEWID
 40
1.0
  9
$TEXTSTYLE
  7
Standard
  9
$CLAYER
  8
0
  9
$CELTYPE
  6
ByLayer
  9
$CECOLOR
 62
256
  9
$CELTSCALE
 40
1.0
  9
$DISPSILH
 70
0
  9
$DIMSCALE
 40
1.0
  9
$DIMASZ
 40
2.5
  9
$DIMEXO
 40
0.625
  9
$DIMDLI
 40
3.75
  9
$DIMRND
 40
0.0
  9
$DIMDLE
 40
0.0
  9
$DIMEXE
 40
1.25
  9
$DIMTP
 40
0.0
  9
$DIMTM
 40
0.0
  9
$DIMTXT
 40
2.5
  9
$DIMCEN
 40
2.5
  9
$DIMTSZ
 40
0.0
  9
$DIMTOL
 70
0
  9
$DIMLIM
 70
0
  9
$DIMTIH
 70
0
  9
$DIMTOH
 70
0
  9
$DIMSE1
 70
0
  9
$DIMSE2
 70
0
  9
$DIMTAD
 70
1
  9
$DIMZIN
 70
8
  9
$DIMBLK
  1

  9
$DIMASO
 70
1
  9
$DIMSHO
 70
1
  9
$DIMPOST
  1

  9
$DIMAPOST
  1

  9
$DIMALT
 70
0
  9
$DIMALTD
 70
3
  9
$DIMALTF
 40
0.03937007874
  9
$DIMLFAC
 40
1.0
  9
$DIMTOFL
 70
1
  9
$DIMTVP
 40
0.0
  9
$DIMTIX
 70
0
  9
$DIMSOXD
 70
0
  9
$DIMSAH
 70
0
  9
$DIMBLK1
  1

  9
$DIMBLK2
  1

  9
$DIMSTYLE
  2
ISO-25
  9
$DIMCLRD
 70
0
  9
$DIMCLRE
 70
0
  9
$DIMCLRT
 70
0
  9
$DIMTFAC
 40
1.0
  9
$DIMGAP
 40
0.625
  9
$DIMJUST
 70
0
  9
$DIMSD1
 70
0
  9
$DIMSD2
 70
0
  9
$DIMTOLJ
 70
0
  9
$DIMTZIN
 70
8
  9
$DIMALTZ
 70
0
  9
$DIMALTTZ
 70
0
  9
$DIMUPT
 70
0
  9
$DIMDEC
 70
2
  9
$DIMTDEC
 70
2
  9
$DIMALTU
 70
2
  9
$DIMALTTD
 70
3
  9
$DIMTXSTY
  7
Standard
  9
$DIMAUNIT
 70
0
  9
$DIMADEC
 70
0
  9
$DIMALTRND
 40
0.0
  9
$DIMAZIN
 70
0
  9
$DIMDSEP
 70
44
  9
$DIMATFIT
 70
3
  9
$DIMFRAC
 70
0
  9
$DIMLDRBLK
  1

  9
$DIMLUNIT
 70
2
  9
$DIMLWD
 70
-2
  9
$DIMLWE
 70
-2
  9
$DIMTMOVE
 70
0
  9
$DIMFXL
 40
1.0
  9
$DIMFXLON
 70
0
  9
$DIMJOGANG
 40
0.785398163397
  9
$DIMTFILL
 70
0
  9
$DIMTFILLCLR
 70
0
  9
$DIMARCSYM
 70
0
  9
$DIMLTYPE
  6

  9
$DIMLTEX1
  6

  9
$DIMLTEX2
  6

  9
$DIMTXTDIRECTION
 70
0
  9
$LUNITS
 70
2
  9
$LUPREC
 70
4
  9
$SKETCHINC
 40
1.0
  9
$FILLETRAD
 40
10.0
  9
$AUNITS
 70
0
  9
$AUPREC
 70
2
  9
$MENU
  1
.
  9
$ELEVATION
 40
0.0
  9
$PELEVATION
 40
0.0
  9
$THICKNESS
 40
0.0
  9
$LIMCHECK
 70
0
  9
$CHAMFERA
 40
0.0
  9
$CHAMFERB
 40
0.0
  9
$CHAMFERC
 40
0.0
  9
$CHAMFERD
 40
0.0
  9
$SKPOLY
 70
0
  9
$TDCREATE
 40
2460709.936423611
  9
$TDUCREATE
 40
2458532.153996898
  9
$TDUPDATE
 40
2460709.936423611
  9
$TDUUPDATE
 40
2458532.1544311
  9
$TDINDWG
 40
0.0
  9
$TDUSRTIMER
 40
0.0
  9
$USRTIMER
 70
1
  9
$ANGBASE
 50
0.0
  9
$ANGDIR
 70
0
  9
$PDMODE
 70
0
  9
$PDSIZE
 40
0.0
  9
$PLINEWID
 40
0.0
  9
$SPLFRAME
 70
0
  9
$SPLINETYPE
 70
6
  9
$SPLINESEGS
 70
8
  9
$HANDSEED
  5
4F
  9
$SURFTAB1
 70
6
  9
$SURFTAB2
 70
6
  9
$SURFTYPE
 70
6
  9
$SURFU
 70
6
  9
$SURFV
 70
6
  9
$UCSBASE
  2

  9
$UCSNAME
  2

  9
$UCSORG
 10
0.0
 20
0.0
 30
0.0
  9
$UCSXDIR
 10
1.0
 20
0.0
 30
0.0
  9
$UCSYDIR
 10
0.0
 20
1.0
 30
0.0
  9
$UCSORTHOREF
  2

  9
$UCSORTHOVIEW
 70
0
  9
$UCSORGTOP
 10
0.0
 20
0.0
 30
0.0
  9
$UCSORGBOTTOM
 10
0.0
 20
0.0
 30
0.0
  9
$UCSORGLEFT
 10
0.0
 20
0.0
 30
0.0
  9
$UCSORGRIGHT
 10
0.0
 20
0.0
 30
0.0
  9
$UCSORGFRONT
 10
0.0
 20
0.0
 30
0.0
  9
$UCSORGBACK
 10
0.0
 20
0.0
 30
0.0
  9
$PUCSBASE
  2

  9
$PUCSNAME
  2

  9
$PUCSORG
 10
0.0
 20
0.0
 30
0.0
  9
$PUCSXDIR
 10
1.0
 20
0.0
 30
0.0
  9
$PUCSYDIR
 10
0.0
 20
1.0
 30
0.0
  9
$PUCSORTHOREF
  2

  9
$PUCSORTHOVIEW
 70
0
  9
$PUCSORGTOP
 10
0.0
 20
0.0
 30
0.0
  9
$PUCSORGBOTTOM
 10
0.0
 20
0.0
 30
0.0
  9
$PUCSORGLEFT
 10
0.0
 20
0.0
 30
0.0
  9
$PUCSORGRIGHT
 10
0.0
 20
0.0
 30
0.0
  9
$PUCSORGFRONT
 10
0.0
 20
0.0
 30
0.0
  9
$PUCSORGBACK
 10
0.0
 20
0.0
 30
0.0
  9
$USERI1
 70
0
  9
$USERI2
 70
0
  9
$USERI3
 70
0
  9
$USERI4
 70
0
  9
$USERI5
 70
0
  9
$USERR1
 40
0.0
  9
$USERR2
 40
0.0
  9
$USERR3
 40
0.0
  9
$USERR4
 40
0.0
  9
$USERR5
 40
0.0
  9
$WORLDVIEW
 70
1
  9
$SHADEDGE
 70
3
  9
$SHADEDIF
 70
70
  9
$TILEMODE
 70
1
  9
$MAXACTVP
 70
64
  9
$PINSBASE
 10
0.0
 20
0.0
 30
0.0
  9
$PLIMCHECK
 70
0
  9
$PEXTMIN
 10
1e+20
 20
1e+20
 30
1e+20
  9
$PEXTMAX
 10
-1e+20
 20
-1e+20
 30
-1e+20
  9
$PLIMMIN
 10
0.0
 20
0.0
  9
$PLIMMAX
 10
420.0
 20
297.0
  9
$UNITMODE
 70
0
  9
$VISRETAIN
 70
1
  9
$PLINEGEN
 70
0
  9
$PSLTSCALE
 70
1
  9
$TREEDEPTH
 70
3020
  9
$CMLSTYLE
  2
Standard
  9
$CMLJUST
 70
0
  9
$CMLSCALE
 40
20.0
  9
$PROXYGRAPHICS
 70
1
  9
$MEASUREMENT
 70
1
  9
$CELWEIGHT
370
-1
  9
$ENDCAPS
280
0
  9
$JOINSTYLE
280
0
  9
$LWDISPLAY
290
0
  9
$INSUNITS
 70
6
  9
$HYPERLINKBASE
  1

  9
$STYLESHEET
  1

  9
$XEDIT
290
1
  9
$CEPSNTYPE
380
0
  9
$PSTYLEMODE
290
1
  9
$FINGERPRINTGUID
  2
{6B0E27E5-79D5-460D-B800-8976B9B7CF2E}
  9
$VERSIONGUID
  2
{01E733D3-7CE6-40B2-A4D8-39233F422B5C}
  9
$EXTNAMES
290
1
  9
$PSVPSCALE
 40
0.0
  9
$OLESTARTUP
290
0
  9
$SORTENTS
280
127
  9
$INDEXCTL
280
0
  9
$HIDETEXT
280
1
  9
$XCLIPFRAME
280
0
  9
$HALOGAP
280
0
  9
$OBSCOLOR
 70
257
  9
$OBSLTYPE
280
0
  9
$INTERSECTIONDISPLAY
280
0
  9
$INTERSECTIONCOLOR
 70
257
  9
$DIMASSOC
280
2
  9
$PROJECTNAME
  1

  9
$CAMERADISPLAY
290
0
  9
$LENSLENGTH
 40
50.0
  9
$CAMERAHEIGHT
 40
0.0
  9
$STEPSPERSEC
 40
24.0
  9
$STEPSIZE
 40
100.0
  9
$3DDWFPREC
 40
2.0
  9
$PSOLWIDTH
 40
0.005
  9
$PSOLHEIGHT
 40
0.08
  9
$LOFTANG1
 40
1.570796326795
  9
$LOFTANG2
 40
1.570796326795
  9
$LOFTMAG1
 40
0.0
  9
$LOFTMAG2
 40
0.0
  9
$LOFTPARAM
 70
7
  9
$LOFTNORMALS
280
1
  9
$LATITUDE
 40
37.795
  9
$LONGITUDE
 40
-122.394
  9
$NORTHDIRECTION
 40
0.0
  9
$TIMEZONE
 70
-8000
  9
$LIGHTGLYPHDISPLAY
280
1
  9
$TILEMODELIGHTSYNCH
280
1
  9
$CMATERIAL
347
20
  9
$SOLIDHIST
280
0
  9
$SHOWHIST
280
1
  9
$DWFFRAME
280
2
  9
$DGNFRAME
280
2
  9
$REALWORLDSCALE
290
1
  9
$INTERFERECOLOR
 62
256
  9
$CSHADOW
280
0
  9
$SHADOWPLANELOCATION
 40
0.0
  0
ENDSEC
  0
SECTION
  2
CLASSES
  0
CLASS
  1
ACDBDICTIONARYWDFLT
  2
AcDbDictionaryWithDefault
  3
ObjectDBX Classes
 90
0
 91
0
280
0
281
0
  0
CLASS
  1
SUN
  2
AcDbSun
  3
SCENEOE
 90
1153
 91
0
280
0
281
0
  0
CLASS
  1
VISUALSTYLE
  2
AcDbVisualStyle
  3
ObjectDBX Classes
 90
4095
 91
0
280
0
281
0
  0
CLASS
  1
MATERIAL
  2
AcDbMaterial
  3
ObjectDBX Classes
 90
1153
 91
0
280
0
281
0
  0
CLASS
  1
SCALE
  2
AcDbScale
  3
ObjectDBX Classes
 90
1153
 91
0
280
0
281
0
  0
CLASS
  1
TABLESTYLE
  2
AcDbTableStyle
  3
ObjectDBX Classes
 90
4095
 91
0
280
0
281
0
  0
CLASS
  1
MLEADERSTYLE
  2
AcDbMLeaderStyle
  3
ACDB_MLEADERSTYLE_CLASS
 90
4095
 91
0
280
0
281
0
  0
CLASS
  1
DICTIONARYVAR
  2
AcDbDictionaryVar
  3
ObjectDBX Classes
 90
0
 91
0
280
0
281
0
  0
CLASS
  1
CELLSTYLEMAP
  2
AcDbCellStyleMap
  3
ObjectDBX Classes
 90
1152
 91
0
280
0
281
0
  0
CLASS
  1
MENTALRAYRENDERSETTINGS
  2
AcDbMentalRayRenderSettings
  3
SCENEOE
 90
1024
 91
0
280
0
281
0
  0
CLASS
  1
ACDBDETAILVIEWSTYLE
  2
AcDbDetailViewStyle
  3
ObjectDBX Classes
 90
1025
 91
0
280
0
281
0
  0
CLASS
  1
ACDBSECTIONVIEWSTYLE
  2
AcDbSectionViewStyle
  3
ObjectDBX Classes
 90
1025
 91
0
280
0
281
0
  0
CLASS
  1
RASTERVARIABLES
  2
AcDbRasterVariables
  3
ISM
 90
0
 91
0
280
0
281
0
  0
CLASS
  1
ACDBPLACEHOLDER
  2
AcDbPlaceHolder
  3
ObjectDBX Classes
 90
0
 91
0
280
0
281
0
  0
CLASS
  1
LAYOUT
  2
AcDbLayout
  3
ObjectDBX Classes
 90
0
 91
0
280
0
281
0
  0
ENDSEC
  0
SECTION
  2
TABLES
  0
TABLE
  2
VPORT
  5
8
330
0
100
AcDbSymbolTable
 70
1
  0
VPORT
  5
23
330
8
100
AcDbSymbolTableRecord
100
AcDbViewportTableRecord
  2
*Active
 70
0
 10
0.0
 20
0.0
 11
1.0
 21
1.0
 12
0.0
 22
0.0
 13
0.0
 23
0.0
 14
0.5
 24
0.5
 15
0.5
 25
0.5
 16
0.0
 26
0.0
 36
1.0
 17
0.0
 27
0.0
 37
0.0
 40
1000.0
 41
1.34
 42
50.0
 43
0.0
 44
0.0
 50
0.0
 51
0.0
 71
0
 72
1000
 73
1
 74
3
 75
0
 76
0
 77
0
 78
0
281
0
 65
0
146
0.0
  0
ENDTAB
  0
TABLE
  2
LTYPE
  5
2
330
0
100
AcDbSymbolTable
 70
3
  0
LTYPE
  5
24
330
2
100
AcDbSymbolTableRecord
100
AcDbLinetypeTableRecord
  2
ByBlock
 70
0
  3

 72
65
 73
0
 40
0.0
  0
LTYPE
  5
25
330
2
100
AcDbSymbolTableRecord
100
AcDbLinetypeTableRecord
  2
ByLayer
 70
0
  3

 72
65
 73
0
 40
0.0
  0
LTYPE
  5
26
330
2
100
AcDbSymbolTableRecord
100
AcDbLinetypeTableRecord
  2
Continuous
 70
0
  3

 72
65
 73
0
 40
0.0
  0
ENDTAB
  0
TABLE
  2
LAYER
  5
1
330
0
100
AcDbSymbolTable
 70
5
  0
LAYER
  5
27
330
1
100
AcDbSymbolTableRecord
100
AcDbLayerTableRecord
  2
0
 70
0
 62
7
  6
Continuous
370
-3
390
13
347
21
  0
LAYER
  5
28
330
1
100
AcDbSymbolTableRecord
100
AcDbLayerTableRecord
  2
Defpoints
 70
0
 62
7
  6
Continuous
290
0
370
-3
390
13
347
21
  0
LAYER
  5
2F
330
1
100
AcDbSymbolTableRecord
100
AcDbLayerTableRecord
  2
conductor
 70
0
 62
1
  6
Continuous
370
-3
390
13
347
21
  0
LAYER
  5
30
330
1
100
AcDbSymbolTableRecord
100
AcDbLayerTableRecord
  2
dielectric
 70
0
 62
8
  6
Continuous
370
-3
390
13
347
21
  0
LAYER
  5
31
330
1
100
AcDbSymbolTableRecord
100
AcDbLayerTableRecord
  2
substrate
 70
0
 62
5
  6
Continuous
370
-3
390
13
347
21
  0
ENDTAB
  0
TABLE
  2
STYLE
  5
5
330
0
100
AcDbSymbolTable
 70
1
  0
STYLE
  5
29
330
5
100
AcDbSymbolTableRecord
100
AcDbTextStyleTableRecord
  2
Standard
 70
0
 40
0.0
 41
1.0
 50
0.0
 71
0
 42
2.5
  3
txt
  4

  0
ENDTAB
  0
TABLE
  2
VIEW
  5
7
330
0
100
AcDbSymbolTable
 70
0
  0
ENDTAB
  0
TABLE
  2
UCS
  5
6
330
0
100
AcDbSymbolTable
 70
0
  0
ENDTAB
  0
TABLE
  2
APPID
  5
3
330
0
100
AcDbSymbolTable
 70
3
  0
APPID
  5
2A
330
3
100
AcDbSymbolTableRecord
100
AcDbRegAppTableRecord
  2
ACAD
 70
0
  0
APPID
  5
4C
330
3
100
AcDbSymbolTableRecord
100
AcDbRegAppTableRecord
  2
HATCHBACKGROUNDCOLOR
 70
0
  0
APPID
  5
4D
330
3
100
AcDbSymbolTableRecord
100
AcDbRegAppTableRecord
  2
EZDXF
 70
0
  0
ENDTAB
  0
TABLE
  2
DIMSTYLE
  5
4
330
0
100
AcDbSymbolTable
 70
1
100
AcDbDimStyleTable
  0
DIMSTYLE
105
2B
330
4
100
AcDbSymbolTableRecord
100
AcDbDimStyleTableRecord
  2
Standard
 70
0
 40
1.0
 41
2.5
 42
0.625
 43
3.75
 44
1.25
 45
0.0
 46
0.0
 47
0.0
 48
0.0
 49
2.5
140
2.5
141
2.5
142
0.0
143
0.03937007874
144
1.0
145
0.0
146
1.0
147
0.625
148
0.0
 69
0
 70
0
 71
0
 72
0
 73
0
 74
0
 75
0
 76
0
 77
1
 78
8
 79
3
170
0
171
3
172
1
173
0
174
0
175
0
176
0
177
0
178
0
179
2
271
2
272
2
273
2
274
3
275
0
276
0
277
2
278
44
279
0
280
0
281
0
282
0
283
0
284
8
285
0
286
0
288
0
289
3
290
0
371
-2
372
-2
  0
ENDTAB
  0
TABLE
  2
BLOCK_RECORD
  5
9
330
0
100
AcDbSymbolTable
 70
2
  0
BLOCK_RECORD
  5
17
330
9
100
AcDbSymbolTableRecord
100
AcDbBlockTableRecord
  2
*Model_Space
340
1A
 70
0
280
1
281
0
  0
BLOCK_RECORD
  5
1B
330
9
100
AcDbSymbolTableRecord
100
AcDbBlockTableRecord
  2
*Paper_Space
340
1E
 70
0
280
1
281
0
  0
ENDTAB
  0
ENDSEC
  0
SECTION
  2
BLOCKS
  0
BLOCK
  5
18
330
17
100
AcDbEntity
  8
0
100
AcDbBlockBegin
  2
*Model_Space
 70
0
 10
0.0
 20
0.0
 30
0.0
  3
*Model_Space
  1

  0
ENDBLK
  5
19
330
17
100
AcDbEntity
  8
0
100
AcDbBlockEnd
  0
BLOCK
  5
1C
330
1B
100
AcDbEntity
  8
0
100
AcDbBlockBegin
  2
*Paper_Space
 70
0
 10
0.0
 20
0.0
 30
0.0
  3
*Paper_Space
  1

  0
ENDBLK
  5
1D
330
1B
100
AcDbEntity
  8
0
100
AcDbBlockEnd
  0
ENDSEC
  0
SECTION
  2
ENTITIES
  0
LWPOLYLINE
  5
32
330
17
100
AcDbEntity
  8
conductor
100
AcDbPolyline
 90
1416
 70
1
 43
0.5
 10
1954.609375
 20
-783.828125
 10
1944.6875
 20
-793.75
 10
1934.765625
 20
-793.75
 10
1934.765625
 20
-803.671875
 10
1934.765625
 20
-813.59375
 10
1934.765625
 20
-823.515625
 10
1934.765625
 20
-833.4375
 10
1924.84375
 20
-843.359375
 10
1924.84375
 20
-853.28125
 10
1924.84375
 20
-863.203125
 10
1924.84375
 20
-873.125
 10
1924.84375
 20
-883.046875
 10
1924.84375
 20
-892.96875
 10
1924.84375
 20
-902.890625
 10
1924.84375
 20
-912.8125
 10
1924.84375
 20
-922.734375
 10
1924.84375
 20
-932.65625
 10
1924.84375
 20
-942.578125
 10
1924.84375
 20
-952.5
 10
1924.84375
 20
-962.421875
 10
1934.765625
 20
-972.34375
 10
1934.765625
 20
-982.265625
 10
1934.765625
 20
-992.1875
 10
1934.765625
 20
-1002.109375
 10
1934.765625
 20
-1012.03125
 10
1934.765625
 20
-1021.953125
 10
1934.765625
 20
-1031.875
 10
1934.765625
 20
-1041.796875
 10
1934.765625
 20
-1051.71875
 10
1924.84375
 20
-1061.640625
 10
1924.84375
 20
-1071.5625
 10
1924.84375
 20
-1081.484375
 10
1924.84375
 20
-1091.40625
 10
1924.84375
 20
-1101.328125
 10
1924.84375
 20
-1111.25
 10
1924.84375
 20
-1121.171875
 10
1924.84375
 20
-1131.09375
 10
1924.84375
 20
-1141.015625
 10
1934.765625
 20
-1150.9375
 10
1924.84375
 20
-1160.859375
 10
1924.84375
 20
-1170.78125
 10
1924.84375
 20
-1180.703125
 10
1924.84375
 20
-1190.625
 10
1924.84375
 20
-1200.546875
 10
1924.84375
 20
-1210.46875
 10
1924.84375
 20
-1220.390625
 10
1924.84375
 20
-1230.3125
 10
1924.84375
 20
-1240.234375
 10
1924.84375
 20
-1250.15625
 10
1924.84375
 20
-1260.078125
 10
1924.84375
 20
-1270.0
 10
1924.84375
 20
-1279.921875
 10
1924.84375
 20
-1289.84375
 10
1924.84375
 20
-1299.765625
 10
1934.765625
 20
-1309.6875
 10
1924.84375
 20
-1319.609375
 10
1934.765625
 20
-1329.53125
 10
1934.765625
 20
-1339.453125
 10
1934.765625
 20
-1349.375
 10
1934.765625
 20
-1359.296875
 10
1934.765625
 20
-1369.21875
 10
1924.84375
 20
-1379.140625
 10
1934.765625
 20
-1389.0625
 10
1924.84375
 20
-1398.984375
 10
1934.765625
 20
-1408.90625
 10
1934.765625
 20
-1418.828125
 10
1934.765625
 20
-1428.75
 10
1924.84375
 20
-1438.671875
 10
1934.765625
 20
-1448.59375
 10
1924.84375
 20
-1458.515625
 10
1934.765625
 20
-1468.4375
 10
1934.765625
 20
-1478.359375
 10
1934.765625
 20
-1488.28125
 10
1934.765625
 20
-1498.203125
 10
1934.765625
 20
-1508.125
 10
1934.765625
 20
-1518.046875
 10
1934.765625
 20
-1527.96875
 10
1934.765625
 20
-1537.890625
 10
1934.765625
 20
-1547.8125
 10
1934.765625
 20
-1557.734375
 10
1924.84375
 20
-1567.65625
 10
1924.84375
 20
-1577.578125
 10
1924.84375
 20
-1587.5
 10
1924.84375
 20
-1597.421875
 10
1924.84375
 20
-1607.34375
 10
1924.84375
 20
-1617.265625
 10
1924.84375
 20
-1627.1875
 10
1924.84375
 20
-1637.109375
 10
1934.765625
 20
-1647.03125
 10
1934.765625
 20
-1656.953125
 10
1934.765625
 20
-1666.875
 10
1934.765625
 20
-1676.796875
 10
1934.765625
 20
-1686.71875
 10
1934.765625
 20
-1696.640625
 10
1934.765625
 20
-1706.5625
 10
1924.84375
 20
-1716.484375
 10
1924.84375
 20
-1726.40625
 10
1924.84375
 20
-1736.328125
 10
1924.84375
 20
-1746.25
 10
1924.84375
 20
-1756.171875
 10
1924.84375
 20
-1766.09375
 10
1924.84375
 20
-1776.015625
 10
1924.84375
 20
-1785.9375
 10
1924.84375
 20
-1795.859375
 10
1924.84375
 20
-1805.78125
 10
1924.84375
 20
-1815.703125
 10
1924.84375
 20
-1825.625
 10
1924.84375
 20
-1835.546875
 10
1934.765625
 20
-1845.46875
 10
1924.84375
 20
-1855.390625
 10
1934.765625
 20
-1865.3125
 10
1924.84375
 20
-1875.234375
 10
1934.765625
 20
-1885.15625
 10
1924.84375
 20
-1895.078125
 10
1934.765625
 20
-1905.0
 10
1924.84375
 20
-1914.921875
 10
1914.921875
 20
-1924.84375
 10
1905.0
 20
-1934.765625
 10
1895.078125
 20
-1934.765625
 10
1885.15625
 20
-1934.765625
 10
1875.234375
 20
-1924.84375
 10
1865.3125
 20
-1924.84375
 10
1855.390625
 20
-1924.84375
 10
1845.46875
 20
-1924.84375
 10
1835.546875
 20
-1924.84375
 10
1825.625
 20
-1924.84375
 10
1815.703125
 20
-1924.84375
 10
1805.78125
 20
-1934.765625
 10
1795.859375
 20
-1934.765625
 10
1785.9375
 20
-1924.84375
 10
1776.015625
 20
-1924.84375
 10
1766.09375
 20
-1924.84375
 10
1756.171875
 20
-1924.84375
 10
1746.25
 20
-1924.84375
 10
1736.328125
 20
-1924.84375
 10
1726.40625
 20
-1924.84375
 10
1716.484375
 20
-1924.84375
 10
1706.5625
 20
-1924.84375
 10
1696.640625
 20
-1934.765625
 10
1686.71875
 20
-1934.765625
 10
1676.796875
 20
-1934.765625
 10
1666.875
 20
-1934.765625
 10
1656.953125
 20
-1934.765625
 10
1647.03125
 20
-1934.765625
 10
1637.109375
 20
-1934.765625
 10
1627.1875
 20
-1934.765625
 10
1617.265625
 20
-1934.765625
 10
1607.34375
 20
-1934.765625
 10
1597.421875
 20
-1934.765625
 10
1587.5
 20
-1934.765625
 10
1577.578125
 20
-1934.765625
 10
1567.65625
 20
-1934.765625
 10
1557.734375
 20
-1924.84375
 10
1547.8125
 20
-1924.84375
 10
1537.890625
 20
-1924.84375
 10
1527.96875
 20
-1924.84375
 10
1518.046875
 20
-1924.84375
 10
1508.125
 20
-1934.765625
 10
1498.203125
 20
-1924.84375
 10
1488.28125
 20
-1924.84375
 10
1478.359375
 20
-1924.84375
 10
1468.4375
 20
-1924.84375
 10
1458.515625
 20
-1924.84375
 10
1448.59375
 20
-1924.84375
 10
1438.671875
 20
-1924.84375
 10
1428.75
 20
-1924.84375
 10
1418.828125
 20
-1924.84375
 10
1408.90625
 20
-1924.84375
 10
1398.984375
 20
-1924.84375
 10
1389.0625
 20
-1924.84375
 10
1379.140625
 20
-1924.84375
 10
1369.21875
 20
-1924.84375
 10
1359.296875
 20
-1924.84375
 10
1349.375
 20
-1924.84375
 10
1339.453125
 20
-1924.84375
 10
1329.53125
 20
-1924.84375
 10
1319.609375
 20
-1924.84375
 10
1309.6875
 20
-1924.84375
 10
1299.765625
 20
-1924.84375
 10
1289.84375
 20
-1924.84375
 10
1279.921875
 20
-1924.84375
 10
1270.0
 20
-1924.84375
 10
1260.078125
 20
-1924.84375
 10
1250.15625
 20
-1924.84375
 10
1240.234375
 20
-1924.84375
 10
1230.3125
 20
-1924.84375
 10
1220.390625
 20
-1924.84375
 10
1210.46875
 20
-1924.84375
 10
1200.546875
 20
-1924.84375
 10
1190.625
 20
-1924.84375
 10
1180.703125
 20
-1924.84375
 10
1170.78125
 20
-1924.84375
 10
1160.859375
 20
-1924.84375
 10
1150.9375
 20
-1924.84375
 10
1141.015625
 20
-1924.84375
 10
1131.09375
 20
-1924.84375
 10
1121.171875
 20
-1924.84375
 10
1111.25
 20
-1924.84375
 10
1101.328125
 20
-1924.84375
 10
1091.40625
 20
-1924.84375
 10
1081.484375
 20
-1924.84375
 10
1071.5625
 20
-1924.84375
 10
1061.640625
 20
-1924.84375
 10
1051.71875
 20
-1924.84375
 10
1041.796875
 20
-1924.84375
 10
1031.875
 20
-1924.84375
 10
1021.953125
 20
-1924.84375
 10
1012.03125
 20
-1924.84375
 10
1002.109375
 20
-1924.84375
 10
992.1875
 20
-1924.84375
 10
982.265625
 20
-1924.84375
 10
972.34375
 20
-1924.84375
 10
962.421875
 20
-1924.84375
 10
952.5
 20
-1924.84375
 10
942.578125
 20
-1934.765625
 10
932.65625
 20
-1934.765625
 10
922.734375
 20
-1924.84375
 10
912.8125
 20
-1924.84375
 10
902.890625
 20
-1924.84375
 10
892.96875
 20
-1924.84375
 10
883.046875
 20
-1924.84375
 10
873.125
 20
-1924.84375
 10
863.203125
 20
-1924.84375
 10
853.28125
 20
-1924.84375
 10
843.359375
 20
-1924.84375
 10
833.4375
 20
-1924.84375
 10
823.515625
 20
-1924.84375
 10
813.59375
 20
-1924.84375
 10
803.671875
 20
-1914.921875
 10
793.75
 20
-1924.84375
 10
783.828125
 20
-1924.84375
 10
773.90625
 20
-1934.765625
 10
763.984375
 20
-1934.765625
 10
763.984375
 20
-1944.6875
 10
763.984375
 20
-1954.609375
 10
763.984375
 20
-1964.53125
 10
773.90625
 20
-1974.453125
 10
763.984375
 20
-1984.375
 10
763.984375
 20
-1994.296875
 10
763.984375
 20
-2004.21875
 10
773.90625
 20
-2014.140625
 10
763.984375
 20
-2024.0625
 10
763.984375
 20
-2033.984375
 10
763.984375
 20
-2043.90625
 10
763.984375
 20
-2053.828125
 10
763.984375
 20
-2063.75
 10
763.984375
 20
-2073.671875
 10
763.984375
 20
-2083.59375
 10
763.984375
 20
-2093.515625
 10
763.984375
 20
-2103.4375
 10
763.984375
 20
-2113.359375
 10
763.984375
 20
-2123.28125
 10
763.984375
 20
-2133.203125
 10
763.984375
 20
-2143.125
 10
763.984375
 20
-2153.046875
 10
763.984375
 20
-2162.96875
 10
763.984375
 20
-2172.890625
 10
763.984375
 20
-2182.8125
 10
763.984375
 20
-2192.734375
 10
763.984375
 20
-2202.65625
 10
763.984375
 20
-2212.578125
 10
763.984375
 20
-2222.5
 10
763.984375
 20
-2232.421875
 10
763.984375
 20
-2242.34375
 10
763.984375
 20
-2252.265625
 10
763.984375
 20
-2262.1875
 10
763.984375
 20
-2272.109375
 10
763.984375
 20
-2282.03125
 10
754.0625
 20
-2291.953125
 10
763.984375
 20
-2301.875
 10
763.984375
 20
-2311.796875
 10
763.984375
 20
-2321.71875
 10
754.0625
 20
-2331.640625
 10
763.984375
 20
-2341.5625
 10
763.984375
 20
-2351.484375
 10
763.984375
 20
-2361.40625
 10
763.984375
 20
-2371.328125
 10
763.984375
 20
-2381.25
 10
763.984375
 20
-2391.171875
 10
763.984375
 20
-2401.09375
 10
763.984375
 20
-2411.015625
 10
763.984375
 20
-2420.9375
 10
763.984375
 20
-2430.859375
 10
763.984375
 20
-2440.78125
 10
754.0625
 20
-2450.703125
 10
763.984375
 20
-2460.625
 10
754.0625
 20
-2470.546875
 10
754.0625
 20
-2480.46875
 10
754.0625
 20
-2490.390625
 10
754.0625
 20
-2500.3125
 10
754.0625
 20
-2510.234375
 10
754.0625
 20
-2520.15625
 10
754.0625
 20
-2530.078125
 10
754.0625
 20
-2540.0
 10
763.984375
 20
-2549.921875
 10
754.0625
 20
-2559.84375
 10
754.0625
 20
-2569.765625
 10
763.984375
 20
-2579.6875
 10
763.984375
 20
-2589.609375
 10
763.984375
 20
-2599.53125
 10
754.0625
 20
-2609.453125
 10
763.984375
 20
-2619.375
 10
763.984375
 20
-2629.296875
 10
763.984375
 20
-2639.21875
 10
763.984375
 20
-2649.140625
 10
763.984375
 20
-2659.0625
 10
763.984375
 20
-2668.984375
 10
763.984375
 20
-2678.90625
 10
763.984375
 20
-2688.828125
 10
763.984375
 20
-2698.75
 10
763.984375
 20
-2708.671875
 10
763.984375
 20
-2718.59375
 10
763.984375
 20
-2728.515625
 10
763.984375
 20
-2738.4375
 10
763.984375
 20
-2748.359375
 10
763.984375
 20
-2758.28125
 10
763.984375
 20
-2768.203125
 10
763.984375
 20
-2778.125
 10
763.984375
 20
-2788.046875
 10
763.984375
 20
-2797.96875
 10
763.984375
 20
-2807.890625
 10
763.984375
 20
-2817.8125
 10
763.984375
 20
-2827.734375
 10
763.984375
 20
-2837.65625
 10
763.984375
 20
-2847.578125
 10
763.984375
 20
-2857.5
 10
763.984375
 20
-2867.421875
 10
763.984375
 20
-2877.34375
 10
763.984375
 20
-2887.265625
 10
763.984375
 20
-2897.1875
 10
763.984375
 20
-2907.109375
 10
763.984375
 20
-2917.03125
 10
763.984375
 20
-2926.953125
 10
763.984375
 20
-2936.875
 10
763.984375
 20
-2946.796875
 10
763.984375
 20
-2956.71875
 10
763.984375
 20
-2966.640625
 10
763.984375
 20
-2976.5625
 10
763.984375
 20
-2986.484375
 10
763.984375
 20
-2996.40625
 10
763.984375
 20
-3006.328125
 10
763.984375
 20
-3016.25
 10
763.984375
 20
-3026.171875
 10
763.984375
 20
-3036.09375
 10
763.984375
 20
-3046.015625
 10
763.984375
 20
-3055.9375
 10
763.984375
 20
-3065.859375
 10
763.984375
 20
-3075.78125
 10
763.984375
 20
-3085.703125
 10
763.984375
 20
-3095.625
 10
754.0625
 20
-3105.546875
 10
763.984375
 20
-3115.46875
 10
754.0625
 20
-3125.390625
 10
763.984375
 20
-3135.3125
 10
754.0625
 20
-3145.234375
 10
763.984375
 20
-3155.15625
 10
773.90625
 20
-3145.234375
 10
783.828125
 20
-3145.234375
 10
793.75
 20
-3145.234375
 10
803.671875
 20
-3155.15625
 10
813.59375
 20
-3145.234375
 10
823.515625
 20
-3155.15625
 10
833.4375
 20
-3145.234375
 10
843.359375
 20
-3155.15625
 10
853.28125
 20
-3145.234375
 10
863.203125
 20
-3155.15625
 10
873.125
 20
-3145.234375
 10
883.046875
 20
-3155.15625
 10
892.96875
 20
-3145.234375
 10
902.890625
 20
-3155.15625
 10
912.8125
 20
-3145.234375
 10
922.734375
 20
-3155.15625
 10
932.65625
 20
-3145.234375
 10
942.578125
 20
-3155.15625
 10
952.5
 20
-3145.234375
 10
962.421875
 20
-3155.15625
 10
972.34375
 20
-3145.234375
 10
982.265625
 20
-3145.234375
 10
992.1875
 20
-3145.234375
 10
1002.109375
 20
-3145.234375
 10
1012.03125
 20
-3145.234375
 10
1021.953125
 20
-3145.234375
 10
1031.875
 20
-3145.234375
 10
1041.796875
 20
-3145.234375
 10
1051.71875
 20
-3145.234375
 10
1061.640625
 20
-3145.234375
 10
1071.5625
 20
-3145.234375
 10
1081.484375
 20
-3145.234375
 10
1091.40625
 20
-3145.234375
 10
1101.328125
 20
-3145.234375
 10
1111.25
 20
-3145.234375
 10
1121.171875
 20
-3145.234375
 10
1131.09375
 20
-3145.234375
 10
1141.015625
 20
-3145.234375
 10
1150.9375
 20
-3145.234375
 10
1160.859375
 20
-3145.234375
 10
1170.78125
 20
-3145.234375
 10
1180.703125
 20
-3145.234375
 10
1190.625
 20
-3145.234375
 10
1200.546875
 20
-3145.234375
 10
1210.46875
 20
-3145.234375
 10
1220.390625
 20
-3145.234375
 10
1230.3125
 20
-3145.234375
 10
1240.234375
 20
-3145.234375
 10
1250.15625
 20
-3145.234375
 10
1260.078125
 20
-3145.234375
 10
1270.0
 20
-3145.234375
 10
1279.921875
 20
-3145.234375
 10
1289.84375
 20
-3145.234375
 10
1299.765625
 20
-3145.234375
 10
1309.6875
 20
-3145.234375
 10
1319.609375
 20
-3145.234375
 10
1329.53125
 20
-3145.234375
 10
1339.453125
 20
-3145.234375
 10
1349.375
 20
-3145.234375
 10
1359.296875
 20
-3145.234375
 10
1369.21875
 20
-3145.234375
 10
1379.140625
 20
-3145.234375
 10
1389.0625
 20
-3145.234375
 10
1398.984375
 20
-3155.15625
 10
1408.90625
 20
-3145.234375
 10
1418.828125
 20
-3155.15625
 10
1428.75
 20
-3155.15625
 10
1438.671875
 20
-3155.15625
 10
1448.59375
 20
-3145.234375
 10
1458.515625
 20
-3155.15625
 10
1468.4375
 20
-3145.234375
 10
1478.359375
 20
-3155.15625
 10
1488.28125
 20
-3145.234375
 10
1498.203125
 20
-3155.15625
 10
1508.125
 20
-3145.234375
 10
1518.046875
 20
-3145.234375
 10
1527.96875
 20
-3145.234375
 10
1537.890625
 20
-3145.234375
 10
1547.8125
 20
-3145.234375
 10
1557.734375
 20
-3145.234375
 10
1567.65625
 20
-3145.234375
 10
1577.578125
 20
-3145.234375
 10
1587.5
 20
-3145.234375
 10
1597.421875
 20
-3145.234375
 10
1607.34375
 20
-3145.234375
 10
1617.265625
 20
-3145.234375
 10
1627.1875
 20
-3145.234375
 10
1637.109375
 20
-3145.234375
 10
1647.03125
 20
-3145.234375
 10
1656.953125
 20
-3155.15625
 10
1666.875
 20
-3145.234375
 10
1676.796875
 20
-3145.234375
 10
1686.71875
 20
-3145.234375
 10
1696.640625
 20
-3145.234375
 10
1706.5625
 20
-3145.234375
 10
1716.484375
 20
-3145.234375
 10
1726.40625
 20
-3145.234375
 10
1736.328125
 20
-3145.234375
 10
1746.25
 20
-3145.234375
 10
1756.171875
 20
-3145.234375
 10
1766.09375
 20
-3145.234375
 10
1776.015625
 20
-3155.15625
 10
1785.9375
 20
-3145.234375
 10
1795.859375
 20
-3145.234375
 10
1805.78125
 20
-3145.234375
 10
1815.703125
 20
-3145.234375
 10
1825.625
 20
-3145.234375
 10
1835.546875
 20
-3155.15625
 10
1845.46875
 20
-3155.15625
 10
1855.390625
 20
-3155.15625
 10
1865.3125
 20
-3155.15625
 10
1875.234375
 20
-3145.234375
 10
1885.15625
 20
-3145.234375
 10
1895.078125
 20
-3145.234375
 10
1905.0
 20
-3155.15625
 10
1914.921875
 20
-3155.15625
 10
1924.84375
 20
-3165.078125
 10
1924.84375
 20
-3175.0
 10
1924.84375
 20
-3184.921875
 10
1924.84375
 20
-3194.84375
 10
1924.84375
 20
-3204.765625
 10
1924.84375
 20
-3214.6875
 10
1924.84375
 20
-3224.609375
 10
1924.84375
 20
-3234.53125
 10
1924.84375
 20
-3244.453125
 10
1924.84375
 20
-3254.375
 10
1924.84375
 20
-3264.296875
 10
1924.84375
 20
-3274.21875
 10
1924.84375
 20
-3284.140625
 10
1934.765625
 20
-3294.0625
 10
1934.765625
 20
-3303.984375
 10
1924.84375
 20
-3313.90625
 10
1934.765625
 20
-3323.828125
 10
1924.84375
 20
-3333.75
 10
1924.84375
 20
-3343.671875
 10
1924.84375
 20
-3353.59375
 10
1924.84375
 20
-3363.515625
 10
1924.84375
 20
-3373.4375
 10
1924.84375
 20
-3383.359375
 10
1924.84375
 20
-3393.28125
 10
1924.84375
 20
-3403.203125
 10
1924.84375
 20
-3413.125
 10
1924.84375
 20
-3423.046875
 10
1924.84375
 20
-3432.96875
 10
1924.84375
 20
-3442.890625
 10
1924.84375
 20
-3452.8125
 10
1924.84375
 20
-3462.734375
 10
1924.84375
 20
-3472.65625
 10
1924.84375
 20
-3482.578125
 10
1924.84375
 20
-3492.5
 10
1924.84375
 20
-3502.421875
 10
1924.84375
 20
-3512.34375
 10
1924.84375
 20
-3522.265625
 10
1924.84375
 20
-3532.1875
 10
1924.84375
 20
-3542.109375
 10
1924.84375
 20
-3552.03125
 10
1924.84375
 20
-3561.953125
 10
1924.84375
 20
-3571.875
 10
1924.84375
 20
-3581.796875
 10
1924.84375
 20
-3591.71875
 10
1924.84375
 20
-3601.640625
 10
1924.84375
 20
-3611.5625
 10
1924.84375
 20
-3621.484375
 10
1924.84375
 20
-3631.40625
 10
1924.84375
 20
-3641.328125
 10
1924.84375
 20
-3651.25
 10
1924.84375
 20
-3661.171875
 10
1924.84375
 20
-3671.09375
 10
1924.84375
 20
-3681.015625
 10
1924.84375
 20
-3690.9375
 10
1924.84375
 20
-3700.859375
 10
1924.84375
 20
-3710.78125
 10
1924.84375
 20
-3720.703125
 10
1924.84375
 20
-3730.625
 10
1924.84375
 20
-3740.546875
 10
1924.84375
 20
-3750.46875
 10
1924.84375
 20
-3760.390625
 10
1924.84375
 20
-3770.3125
 10
1924.84375
 20
-3780.234375
 10
1924.84375
 20
-3790.15625
 10
1924.84375
 20
-3800.078125
 10
1924.84375
 20
-3810.0
 10
1924.84375
 20
-3819.921875
 10
1924.84375
 20
-3829.84375
 10
1924.84375
 20
-3839.765625
 10
1924.84375
 20
-3849.6875
 10
1924.84375
 20
-3859.609375
 10
1924.84375
 20
-3869.53125
 10
1924.84375
 20
-3879.453125
 10
1924.84375
 20
-3889.375
 10
1924.84375
 20
-3899.296875
 10
1924.84375
 20
-3909.21875
 10
1924.84375
 20
-3919.140625
 10
1924.84375
 20
-3929.0625
 10
1924.84375
 20
-3938.984375
 10
1924.84375
 20
-3948.90625
 10
1924.84375
 20
-3958.828125
 10
1924.84375
 20
-3968.75
 10
1924.84375
 20
-3978.671875
 10
1924.84375
 20
-3988.59375
 10
1924.84375
 20
-3998.515625
 10
1924.84375
 20
-4008.4375
 10
1924.84375
 20
-4018.359375
 10
1924.84375
 20
-4028.28125
 10
1924.84375
 20
-4038.203125
 10
1924.84375
 20
-4048.125
 10
1924.84375
 20
-4058.046875
 10
1924.84375
 20
-4067.96875
 10
1924.84375
 20
-4077.890625
 10
1924.84375
 20
-4087.8125
 10
1924.84375
 20
-4097.734375
 10
1924.84375
 20
-4107.65625
 10
1924.84375
 20
-4117.578125
 10
1924.84375
 20
-4127.5
 10
1924.84375
 20
-4137.421875
 10
1924.84375
 20
-4147.34375
 10
1924.84375
 20
-4157.265625
 10
1924.84375
 20
-4167.1875
 10
1924.84375
 20
-4177.109375
 10
1924.84375
 20
-4187.03125
 10
1934.765625
 20
-4196.953125
 10
1924.84375
 20
-4206.875
 10
1934.765625
 20
-4216.796875
 10
1924.84375
 20
-4226.71875
 10
1934.765625
 20
-4236.640625
 10
1934.765625
 20
-4246.5625
 10
1924.84375
 20
-4256.484375
 10
1924.84375
 20
-4266.40625
 10
1924.84375
 20
-4276.328125
 10
1924.84375
 20
-4286.25
 10
1934.765625
 20
-4296.171875
 10
1924.84375
 20
-4306.09375
 10
1924.84375
 20
-4316.015625
 10
1924.84375
 20
-4325.9375
 10
1934.765625
 20
-4335.859375
 10
1934.765625
 20
-4345.78125
 10
1944.6875
 20
-4335.859375
 10
1954.609375
 20
-4335.859375
 10
1964.53125
 20
-4335.859375
 10
1974.453125
 20
-4345.78125
 10
1984.375
 20
-4335.859375
 10
1994.296875
 20
-4335.859375
 10
2004.21875
 20
-4335.859375
 10
2014.140625
 20
-4335.859375
 10
2024.0625
 20
-4335.859375
 10
2033.984375
 20
-4335.859375
 10
2043.90625
 20
-4335.859375
 10
2053.828125
 20
-4335.859375
 10
2063.75
 20
-4335.859375
 10
2073.671875
 20
-4335.859375
 10
2083.59375
 20
-4335.859375
 10
2093.515625
 20
-4335.859375
 10
2103.4375
 20
-4335.859375
 10
2113.359375
 20
-4335.859375
 10
2123.28125
 20
-4345.78125
 10
2133.203125
 20
-4345.78125
 10
2143.125
 20
-4335.859375
 10
2153.046875
 20
-4345.78125
 10
2162.96875
 20
-4345.78125
 10
2172.890625
 20
-4335.859375
 10
2182.8125
 20
-4335.859375
 10
2192.734375
 20
-4335.859375
 10
2202.65625
 20
-4345.78125
 10
2212.578125
 20
-4335.859375
 10
2222.5
 20
-4335.859375
 10
2232.421875
 20
-4345.78125
 10
2242.34375
 20
-4345.78125
 10
2252.265625
 20
-4335.859375
 10
2262.1875
 20
-4335.859375
 10
2272.109375
 20
-4335.859375
 10
2282.03125
 20
-4345.78125
 10
2291.953125
 20
-4345.78125
 10
2301.875
 20
-4345.78125
 10
2311.796875
 20
-4345.78125
 10
2321.71875
 20
-4345.78125
 10
2331.640625
 20
-4345.78125
 10
2341.5625
 20
-4335.859375
 10
2351.484375
 20
-4335.859375
 10
2361.40625
 20
-4345.78125
 10
2371.328125
 20
-4335.859375
 10
2381.25
 20
-4345.78125
 10
2391.171875
 20
-4345.78125
 10
2401.09375
 20
-4345.78125
 10
2411.015625
 20
-4345.78125
 10
2420.9375
 20
-4345.78125
 10
2430.859375
 20
-4345.78125
 10
2440.78125
 20
-4345.78125
 10
2450.703125
 20
-4345.78125
 10
2460.625
 20
-4345.78125
 10
2470.546875
 20
-4345.78125
 10
2480.46875
 20
-4345.78125
 10
2490.390625
 20
-4345.78125
 10
2500.3125
 20
-4345.78125
 10
2510.234375
 20
-4345.78125
 10
2520.15625
 20
-4345.78125
 10
2530.078125
 20
-4345.78125
 10
2540.0
 20
-4355.703125
 10
2549.921875
 20
-4345.78125
 10
2559.84375
 20
-4355.703125
 10
2569.765625
 20
-4355.703125
 10
2579.6875
 20
-4355.703125
 10
2589.609375
 20
-4345.78125
 10
2599.53125
 20
-4345.78125
 10
2609.453125
 20
-4355.703125
 10
2619.375
 20
-4355.703125
 10
2629.296875
 20
-4345.78125
 10
2639.21875
 20
-4355.703125
 10
2649.140625
 20
-4355.703125
 10
2659.0625
 20
-4355.703125
 10
2668.984375
 20
-4345.78125
 10
2678.90625
 20
-4345.78125
 10
2688.828125
 20
-4355.703125
 10
2698.75
 20
-4355.703125
 10
2708.671875
 20
-4355.703125
 10
2718.59375
 20
-4355.703125
 10
2728.515625
 20
-4345.78125
 10
2738.4375
 20
-4345.78125
 10
2748.359375
 20
-4345.78125
 10
2758.28125
 20
-4345.78125
 10
2768.203125
 20
-4355.703125
 10
2778.125
 20
-4355.703125
 10
2788.046875
 20
-4355.703125
 10
2797.96875
 20
-4355.703125
 10
2807.890625
 20
-4355.703125
 10
2817.8125
 20
-4355.703125
 10
2827.734375
 20
-4345.78125
 10
2837.65625
 20
-4345.78125
 10
2847.578125
 20
-4345.78125
 10
2857.5
 20
-4345.78125
 10
2867.421875
 20
-4345.78125
 10
2877.34375
 20
-4345.78125
 10
2887.265625
 20
-4345.78125
 10
2897.1875
 20
-4345.78125
 10
2907.109375
 20
-4345.78125
 10
2917.03125
 20
-4345.78125
 10
2926.953125
 20
-4345.78125
 10
2936.875
 20
-4345.78125
 10
2946.796875
 20
-4345.78125
 10
2956.71875
 20
-4335.859375
 10
2966.640625
 20
-4335.859375
 10
2976.5625
 20
-4335.859375
 10
2986.484375
 20
-4335.859375
 10
2996.40625
 20
-4335.859375
 10
3006.328125
 20
-4335.859375
 10
3016.25
 20
-4335.859375
 10
3026.171875
 20
-4335.859375
 10
3036.09375
 20
-4335.859375
 10
3046.015625
 20
-4335.859375
 10
3055.9375
 20
-4335.859375
 10
3065.859375
 20
-4335.859375
 10
3075.78125
 20
-4335.859375
 10
3085.703125
 20
-4335.859375
 10
3095.625
 20
-4325.9375
 10
3105.546875
 20
-4325.9375
 10
3115.46875
 20
-4335.859375
 10
3125.390625
 20
-4335.859375
 10
3135.3125
 20
-4325.9375
 10
3135.3125
 20
-4316.015625
 10
3135.3125
 20
-4306.09375
 10
3135.3125
 20
-4296.171875
 10
3135.3125
 20
-4286.25
 10
3145.234375
 20
-4276.328125
 10
3145.234375
 20
-4266.40625
 10
3145.234375
 20
-4256.484375
 10
3145.234375
 20
-4246.5625
 10
3145.234375
 20
-4236.640625
 10
3145.234375
 20
-4226.71875
 10
3145.234375
 20
-4216.796875
 10
3145.234375
 20
-4206.875
 10
3145.234375
 20
-4196.953125
 10
3145.234375
 20
-4187.03125
 10
3145.234375
 20
-4177.109375
 10
3145.234375
 20
-4167.1875
 10
3145.234375
 20
-4157.265625
 10
3145.234375
 20
-4147.34375
 10
3145.234375
 20
-4137.421875
 10
3145.234375
 20
-4127.5
 10
3145.234375
 20
-4117.578125
 10
3145.234375
 20
-4107.65625
 10
3145.234375
 20
-4097.734375
 10
3145.234375
 20
-4087.8125
 10
3145.234375
 20
-4077.890625
 10
3145.234375
 20
-4067.96875
 10
3145.234375
 20
-4058.046875
 10
3145.234375
 20
-4048.125
 10
3145.234375
 20
-4038.203125
 10
3145.234375
 20
-4028.28125
 10
3145.234375
 20
-4018.359375
 10
3145.234375
 20
-4008.4375
 10
3145.234375
 20
-3998.515625
 10
3145.234375
 20
-3988.59375
 10
3145.234375
 20
-3978.671875
 10
3145.234375
 20
-3968.75
 10
3145.234375
 20
-3958.828125
 10
3145.234375
 20
-3948.90625
 10
3145.234375
 20
-3938.984375
 10
3145.234375
 20
-3929.0625
 10
3145.234375
 20
-3919.140625
 10
3145.234375
 20
-3909.21875
 10
3145.234375
 20
-3899.296875
 10
3145.234375
 20
-3889.375
 10
3145.234375
 20
-3879.453125
 10
3145.234375
 20
-3869.53125
 10
3145.234375
 20
-3859.609375
 10
3145.234375
 20
-3849.6875
 10
3145.234375
 20
-3839.765625
 10
3145.234375
 20
-3829.84375
 10
3145.234375
 20
-3819.921875
 10
3145.234375
 20
-3810.0
 10
3145.234375
 20
-3800.078125
 10
3145.234375
 20
-3790.15625
 10
3145.234375
 20
-3780.234375
 10
3145.234375
 20
-3770.3125
 10
3145.234375
 20
-3760.390625
 10
3145.234375
 20
-3750.46875
 10
3145.234375
 20
-3740.546875
 10
3145.234375
 20
-3730.625
 10
3145.234375
 20
-3720.703125
 10
3145.234375
 20
-3710.78125
 10
3145.234375
 20
-3700.859375
 10
3145.234375
 20
-3690.9375
 10
3145.234375
 20
-3681.015625
 10
3145.234375
 20
-3671.09375
 10
3145.234375
 20
-3661.171875
 10
3145.234375
 20
-3651.25
 10
3145.234375
 20
-3641.328125
 10
3145.234375
 20
-3631.40625
 10
3145.234375
 20
-3621.484375
 10
3145.234375
 20
-3611.5625
 10
3145.234375
 20
-3601.640625
 10
3145.234375
 20
-3591.71875
 10
3145.234375
 20
-3581.796875
 10
3145.234375
 20
-3571.875
 10
3145.234375
 20
-3561.953125
 10
3145.234375
 20
-3552.03125
 10
3145.234375
 20
-3542.109375
 10
3145.234375
 20
-3532.1875
 10
3145.234375
 20
-3522.265625
 10
3145.234375
 20
-3512.34375
 10
3145.234375
 20
-3502.421875
 10
3145.234375
 20
-3492.5
 10
3145.234375
 20
-3482.578125
 10
3145.234375
 20
-3472.65625
 10
3145.234375
 20
-3462.734375
 10
3145.234375
 20
-3452.8125
 10
3145.234375
 20
-3442.890625
 10
3145.234375
 20
-3432.96875
 10
3145.234375
 20
-3423.046875
 10
3145.234375
 20
-3413.125
 10
3145.234375
 20
-3403.203125
 10
3135.3125
 20
-3393.28125
 10
3145.234375
 20
-3383.359375
 10
3145.234375
 20
-3373.4375
 10
3145.234375
 20
-3363.515625
 10
3145.234375
 20
-3353.59375
 10
3145.234375
 20
-3343.671875
 10
3145.234375
 20
-3333.75
 10
3145.234375
 20
-3323.828125
 10
3145.234375
 20
-3313.90625
 10
3145.234375
 20
-3303.984375
 10
3145.234375
 20
-3294.0625
 10
3145.234375
 20
-3284.140625
 10
3145.234375
 20
-3274.21875
 10
3145.234375
 20
-3264.296875
 10
3135.3125
 20
-3254.375
 10
3135.3125
 20
-3244.453125
 10
3135.3125
 20
-3234.53125
 10
3135.3125
 20
-3224.609375
 10
3135.3125
 20
-3214.6875
 10
3145.234375
 20
-3204.765625
 10
3145.234375
 20
-3194.84375
 10
3145.234375
 20
-3184.921875
 10
3145.234375
 20
-3175.0
 10
3145.234375
 20
-3165.078125
 10
3145.234375
 20
-3155.15625
 10
3155.15625
 20
-3145.234375
 10
3165.078125
 20
-3145.234375
 10
3175.0
 20
-3145.234375
 10
3184.921875
 20
-3145.234375
 10
3194.84375
 20
-3145.234375
 10
3204.765625
 20
-3145.234375
 10
3214.6875
 20
-3145.234375
 10
3224.609375
 20
-3145.234375
 10
3234.53125
 20
-3145.234375
 10
3244.453125
 20
-3145.234375
 10
3254.375
 20
-3145.234375
 10
3264.296875
 20
-3145.234375
 10
3274.21875
 20
-3145.234375
 10
3284.140625
 20
-3145.234375
 10
3294.0625
 20
-3145.234375
 10
3303.984375
 20
-3145.234375
 10
3313.90625
 20
-3145.234375
 10
3323.828125
 20
-3145.234375
 10
3333.75
 20
-3145.234375
 10
3343.671875
 20
-3145.234375
 10
3353.59375
 20
-3145.234375
 10
3363.515625
 20
-3145.234375
 10
3373.4375
 20
-3145.234375
 10
3383.359375
 20
-3155.15625
 10
3393.28125
 20
-3155.15625
 10
3403.203125
 20
-3155.15625
 10
3413.125
 20
-3155.15625
 10
3423.046875
 20
-3155.15625
 10
3432.96875
 20
-3155.15625
 10
3442.890625
 20
-3155.15625
 10
3452.8125
 20
-3145.234375
 10
3462.734375
 20
-3155.15625
 10
3472.65625
 20
-3155.15625
 10
3482.578125
 20
-3155.15625
 10
3492.5
 20
-3155.15625
 10
3502.421875
 20
-3155.15625
 10
3512.34375
 20
-3155.15625
 10
3522.265625
 20
-3155.15625
 10
3532.1875
 20
-3145.234375
 10
3542.109375
 20
-3145.234375
 10
3552.03125
 20
-3145.234375
 10
3561.953125
 20
-3145.234375
 10
3571.875
 20
-3155.15625
 10
3581.796875
 20
-3155.15625
 10
3591.71875
 20
-3145.234375
 10
3601.640625
 20
-3155.15625
 10
3611.5625
 20
-3155.15625
 10
3621.484375
 20
-3155.15625
 10
3631.40625
 20
-3155.15625
 10
3641.328125
 20
-3145.234375
 10
3651.25
 20
-3155.15625
 10
3661.171875
 20
-3155.15625
 10
3671.09375
 20
-3145.234375
 10
3681.015625
 20
-3145.234375
 10
3690.9375
 20
-3145.234375
 10
3700.859375
 20
-3155.15625
 10
3710.78125
 20
-3145.234375
 10
3720.703125
 20
-3155.15625
 10
3730.625
 20
-3155.15625
 10
3740.546875
 20
-3155.15625
 10
3750.46875
 20
-3145.234375
 10
3760.390625
 20
-3145.234375
 10
3770.3125
 20
-3155.15625
 10
3780.234375
 20
-3155.15625
 10
3790.15625
 20
-3145.234375
 10
3800.078125
 20
-3145.234375
 10
3810.0
 20
-3155.15625
 10
3819.921875
 20
-3145.234375
 10
3829.84375
 20
-3145.234375
 10
3839.765625
 20
-3145.234375
 10
3849.6875
 20
-3155.15625
 10
3859.609375
 20
-3155.15625
 10
3869.53125
 20
-3145.234375
 10
3879.453125
 20
-3145.234375
 10
3889.375
 20
-3155.15625
 10
3899.296875
 20
-3145.234375
 10
3909.21875
 20
-3145.234375
 10
3919.140625
 20
-3145.234375
 10
3929.0625
 20
-3145.234375
 10
3938.984375
 20
-3145.234375
 10
3948.90625
 20
-3145.234375
 10
3958.828125
 20
-3145.234375
 10
3968.75
 20
-3145.234375
 10
3978.671875
 20
-3145.234375
 10
3988.59375
 20
-3145.234375
 10
3998.515625
 20
-3145.234375
 10
4008.4375
 20
-3145.234375
 10
4018.359375
 20
-3145.234375
 10
4028.28125
 20
-3145.234375
 10
4038.203125
 20
-3155.15625
 10
4048.125
 20
-3145.234375
 10
4058.046875
 20
-3145.234375
 10
4067.96875
 20
-3145.234375
 10
4077.890625
 20
-3145.234375
 10
4087.8125
 20
-3145.234375
 10
4097.734375
 20
-3145.234375
 10
4107.65625
 20
-3145.234375
 10
4117.578125
 20
-3145.234375
 10
4127.5
 20
-3145.234375
 10
4137.421875
 20
-3155.15625
 10
4147.34375
 20
-3145.234375
 10
4157.265625
 20
-3145.234375
 10
4167.1875
 20
-3145.234375
 10
4177.109375
 20
-3145.234375
 10
4187.03125
 20
-3145.234375
 10
4196.953125
 20
-3145.234375
 10
4206.875
 20
-3145.234375
 10
4216.796875
 20
-3155.15625
 10
4226.71875
 20
-3155.15625
 10
4236.640625
 20
-3145.234375
 10
4246.5625
 20
-3155.15625
 10
4256.484375
 20
-3155.15625
 10
4266.40625
 20
-3145.234375
 10
4276.328125
 20
-3145.234375
 10
4286.25
 20
-3155.15625
 10
4296.171875
 20
-3155.15625
 10
4306.09375
 20
-3145.234375
 10
4316.015625
 20
-3145.234375
 10
4325.9375
 20
-3145.234375
 10
4335.859375
 20
-3135.3125
 10
4325.9375
 20
-3125.390625
 10
4325.9375
 20
-3115.46875
 10
4325.9375
 20
-3105.546875
 10
4325.9375
 20
-3095.625
 10
4325.9375
 20
-3085.703125
 10
4325.9375
 20
-3075.78125
 10
4325.9375
 20
-3065.859375
 10
4325.9375
 20
-3055.9375
 10
4325.9375
 20
-3046.015625
 10
4325.9375
 20
-3036.09375
 10
4316.015625
 20
-3026.171875
 10
4325.9375
 20
-3016.25
 10
4316.015625
 20
-3006.328125
 10
4325.9375
 20
-2996.40625
 10
4325.9375
 20
-2986.484375
 10
4325.9375
 20
-2976.5625
 10
4325.9375
 20
-2966.640625
 10
4325.9375
 20
-2956.71875
 10
4316.015625
 20
-2946.796875
 10
4325.9375
 20
-2936.875
 10
4325.9375
 20
-2926.953125
 10
4325.9375
 20
-2917.03125
 10
4316.015625
 20
-2907.109375
 10
4325.9375
 20
-2897.1875
 10
4316.015625
 20
-2887.265625
 10
4316.015625
 20
-2877.34375
 10
4316.015625
 20
-2867.421875
 10
4316.015625
 20
-2857.5
 10
4316.015625
 20
-2847.578125
 10
4316.015625
 20
-2837.65625
 10
4316.015625
 20
-2827.734375
 10
4316.015625
 20
-2817.8125
 10
4316.015625
 20
-2807.890625
 10
4316.015625
 20
-2797.96875
 10
4316.015625
 20
-2788.046875
 10
4316.015625
 20
-2778.125
 10
4316.015625
 20
-2768.203125
 10
4316.015625
 20
-2758.28125
 10
4306.09375
 20
-2748.359375
 10
4316.015625
 20
-2738.4375
 10
4306.09375
 20
-2728.515625
 10
4306.09375
 20
-2718.59375
 10
4306.09375
 20
-2708.671875
 10
4306.09375
 20
-2698.75
 10
4306.09375
 20
-2688.828125
 10
4306.09375
 20
-2678.90625
 10
4306.09375
 20
-2668.984375
 10
4306.09375
 20
-2659.0625
 10
4306.09375
 20
-2649.140625
 10
4306.09375
 20
-2639.21875
 10
4306.09375
 20
-2629.296875
 10
4306.09375
 20
-2619.375
 10
4306.09375
 20
-2609.453125
 10
4306.09375
 20
-2599.53125
 10
4306.09375
 20
-2589.609375
 10
4316.015625
 20
-2579.6875
 10
4306.09375
 20
-2569.765625
 10
4306.09375
 20
-2559.84375
 10
4306.09375
 20
-2549.921875
 10
4306.09375
 20
-2540.0
 10
4306.09375
 20
-2530.078125
 10
4306.09375
 20
-2520.15625
 10
4306.09375
 20
-2510.234375
 10
4306.09375
 20
-2500.3125
 10
4306.09375
 20
-2490.390625
 10
4306.09375
 20
-2480.46875
 10
4306.09375
 20
-2470.546875
 10
4306.09375
 20
-2460.625
 10
4296.171875
 20
-2450.703125
 10
4306.09375
 20
-2440.78125
 10
4296.171875
 20
-2430.859375
 10
4306.09375
 20
-2420.9375
 10
4296.171875
 20
-2411.015625
 10
4306.09375
 20
-2401.09375
 10
4296.171875
 20
-2391.171875
 10
4296.171875
 20
-2381.25
 10
4296.171875
 20
-2371.328125
 10
4296.171875
 20
-2361.40625
 10
4296.171875
 20
-2351.484375
 10
4296.171875
 20
-2341.5625
 10
4296.171875
 20
-2331.640625
 10
4296.171875
 20
-2321.71875
 10
4296.171875
 20
-2311.796875
 10
4296.171875
 20
-2301.875
 10
4296.171875
 20
-2291.953125
 10
4296.171875
 20
-2282.03125
 10
4296.171875
 20
-2272.109375
 10
4296.171875
 20
-2262.1875
 10
4286.25
 20
-2252.265625
 10
4286.25
 20
-2242.34375
 10
4296.171875
 20
-2232.421875
 10
4286.25
 20
-2222.5
 10
4286.25
 20
-2212.578125
 10
4286.25
 20
-2202.65625
 10
4286.25
 20
-2192.734375
 10
4286.25
 20
-2182.8125
 10
4286.25
 20
-2172.890625
 10
4296.171875
 20
-2162.96875
 10
4296.171875
 20
-2153.046875
 10
4286.25
 20
-2143.125
 10
4286.25
 20
-2133.203125
 10
4286.25
 20
-2123.28125
 10
4286.25
 20
-2113.359375
 10
4286.25
 20
-2103.4375
 10
4286.25
 20
-2093.515625
 10
4286.25
 20
-2083.59375
 10
4296.171875
 20
-2073.671875
 10
4286.25
 20
-2063.75
 10
4286.25
 20
-2053.828125
 10
4286.25
 20
-2043.90625
 10
4286.25
 20
-2033.984375
 10
4276.328125
 20
-2024.0625
 10
4276.328125
 20
-2014.140625
 10
4276.328125
 20
-2004.21875
 10
4276.328125
 20
-1994.296875
 10
4276.328125
 20
-1984.375
 10
4276.328125
 20
-1974.453125
 10
4276.328125
 20
-1964.53125
 10
4286.25
 20
-1954.609375
 10
4286.25
 20
-1944.6875
 10
4276.328125
 20
-1934.765625
 10
4266.40625
 20
-1934.765625
 10
4256.484375
 20
-1934.765625
 10
4246.5625
 20
-1934.765625
 10
4236.640625
 20
-1934.765625
 10
4226.71875
 20
-1934.765625
 10
4216.796875
 20
-1934.765625
 10
4206.875
 20
-1934.765625
 10
4196.953125
 20
-1934.765625
 10
4187.03125
 20
-1934.765625
 10
4177.109375
 20
-1934.765625
 10
4167.1875
 20
-1924.84375
 10
4157.265625
 20
-1924.84375
 10
4147.34375
 20
-1924.84375
 10
4137.421875
 20
-1924.84375
 10
4127.5
 20
-1924.84375
 10
4117.578125
 20
-1934.765625
 10
4107.65625
 20
-1934.765625
 10
4097.734375
 20
-1924.84375
 10
4087.8125
 20
-1924.84375
 10
4077.890625
 20
-1924.84375
 10
4067.96875
 20
-1924.84375
 10
4058.046875
 20
-1924.84375
 10
4048.125
 20
-1924.84375
 10
4038.203125
 20
-1924.84375
 10
4028.28125
 20
-1924.84375
 10
4018.359375
 20
-1924.84375
 10
4008.4375
 20
-1924.84375
 10
3998.515625
 20
-1924.84375
 10
3988.59375
 20
-1924.84375
 10
3978.671875
 20
-1924.84375
 10
3968.75
 20
-1924.84375
 10
3958.828125
 20
-1924.84375
 10
3948.90625
 20
-1924.84375
 10
3938.984375
 20
-1924.84375
 10
3929.0625
 20
-1924.84375
 10
3919.140625
 20
-1924.84375
 10
3909.21875
 20
-1924.84375
 10
3899.296875
 20
-1934.765625
 10
3889.375
 20
-1934.765625
 10
3879.453125
 20
-1934.765625
 10
3869.53125
 20
-1934.765625
 10
3859.609375
 20
-1934.765625
 10
3849.6875
 20
-1924.84375
 10
3839.765625
 20
-1934.765625
 10
3829.84375
 20
-1924.84375
 10
3819.921875
 20
-1934.765625
 10
3810.0
 20
-1924.84375
 10
3800.078125
 20
-1934.765625
 10
3790.15625
 20
-1934.765625
 10
3780.234375
 20
-1934.765625
 10
3770.3125
 20
-1924.84375
 10
3760.390625
 20
-1924.84375
 10
3750.46875
 20
-1924.84375
 10
3740.546875
 20
-1924.84375
 10
3730.625
 20
-1924.84375
 10
3720.703125
 20
-1924.84375
 10
3710.78125
 20
-1924.84375
 10
3700.859375
 20
-1924.84375
 10
3690.9375
 20
-1924.84375
 10
3681.015625
 20
-1924.84375
 10
3671.09375
 20
-1924.84375
 10
3661.171875
 20
-1924.84375
 10
3651.25
 20
-1924.84375
 10
3641.328125
 20
-1924.84375
 10
3631.40625
 20
-1924.84375
 10
3621.484375
 20
-1924.84375
 10
3611.5625
 20
-1924.84375
 10
3601.640625
 20
-1934.765625
 10
3591.71875
 20
-1934.765625
 10
3581.796875
 20
-1934.765625
 10
3571.875
 20
-1924.84375
 10
3561.953125
 20
-1924.84375
 10
3552.03125
 20
-1934.765625
 10
3542.109375
 20
-1924.84375
 10
3532.1875
 20
-1924.84375
 10
3522.265625
 20
-1924.84375
 10
3512.34375
 20
-1924.84375
 10
3502.421875
 20
-1924.84375
 10
3492.5
 20
-1924.84375
 10
3482.578125
 20
-1934.765625
 10
3472.65625
 20
-1934.765625
 10
3462.734375
 20
-1934.765625
 10
3452.8125
 20
-1924.84375
 10
3442.890625
 20
-1934.765625
 10
3432.96875
 20
-1934.765625
 10
3423.046875
 20
-1924.84375
 10
3413.125
 20
-1924.84375
 10
3403.203125
 20
-1924.84375
 10
3393.28125
 20
-1934.765625
 10
3383.359375
 20
-1934.765625
 10
3373.4375
 20
-1924.84375
 10
3363.515625
 20
-1924.84375
 10
3353.59375
 20
-1924.84375
 10
3343.671875
 20
-1924.84375
 10
3333.75
 20
-1924.84375
 10
3323.828125
 20
-1924.84375
 10
3313.90625
 20
-1924.84375
 10
3303.984375
 20
-1924.84375
 10
3294.0625
 20
-1924.84375
 10
3284.140625
 20
-1924.84375
 10
3274.21875
 20
-1924.84375
 10
3264.296875
 20
-1924.84375
 10
3254.375
 20
-1934.765625
 10
3244.453125
 20
-1934.765625
 10
3234.53125
 20
-1934.765625
 10
3224.609375
 20
-1924.84375
 10
3214.6875
 20
-1924.84375
 10
3204.765625
 20
-1924.84375
 10
3194.84375
 20
-1924.84375
 10
3184.921875
 20
-1934.765625
 10
3175.0
 20
-1924.84375
 10
3165.078125
 20
-1924.84375
 10
3155.15625
 20
-1924.84375
 10
3145.234375
 20
-1914.921875
 10
3145.234375
 20
-1905.0
 10
3145.234375
 20
-1895.078125
 10
3145.234375
 20
-1885.15625
 10
3145.234375
 20
-1875.234375
 10
3145.234375
 20
-1865.3125
 10
3145.234375
 20
-1855.390625
 10
3145.234375
 20
-1845.46875
 10
3145.234375
 20
-1835.546875
 10
3145.234375
 20
-1825.625
 10
3145.234375
 20
-1815.703125
 10
3135.3125
 20
-1805.78125
 10
3145.234375
 20
-1795.859375
 10
3145.234375
 20
-1785.9375
 10
3145.234375
 20
-1776.015625
 10
3145.234375
 20
-1766.09375
 10
3135.3125
 20
-1756.171875
 10
3135.3125
 20
-1746.25
 10
3145.234375
 20
-1736.328125
 10
3135.3125
 20
-1726.40625
 10
3135.3125
 20
-1716.484375
 10
3135.3125
 20
-1706.5625
 10
3145.234375
 20
-1696.640625
 10
3145.234375
 20
-1686.71875
 10
3135.3125
 20
-1676.796875
 10
3135.3125
 20
-1666.875
 10
3135.3125
 20
-1656.953125
 10
3135.3125
 20
-1647.03125
 10
3145.234375
 20
-1637.109375
 10
3145.234375
 20
-1627.1875
 10
3145.234375
 20
-1617.265625
 10
3145.234375
 20
-1607.34375
 10
3145.234375
 20
-1597.421875
 10
3145.234375
 20
-1587.5
 10
3145.234375
 20
-1577.578125
 10
3145.234375
 20
-1567.65625
 10
3145.234375
 20
-1557.734375
 10
3145.234375
 20
-1547.8125
 10
3145.234375
 20
-1537.890625
 10
3145.234375
 20
-1527.96875
 10
3145.234375
 20
-1518.046875
 10
3145.234375
 20
-1508.125
 10
3145.234375
 20
-1498.203125
 10
3135.3125
 20
-1488.28125
 10
3145.234375
 20
-1478.359375
 10
3145.234375
 20
-1468.4375
 10
3145.234375
 20
-1458.515625
 10
3145.234375
 20
-1448.59375
 10
3135.3125
 20
-1438.671875
 10
3145.234375
 20
-1428.75
 10
3145.234375
 20
-1418.828125
 10
3145.234375
 20
-1408.90625
 10
3145.234375
 20
-1398.984375
 10
3145.234375
 20
-1389.0625
 10
3145.234375
 20
-1379.140625
 10
3145.234375
 20
-1369.21875
 10
3145.234375
 20
-1359.296875
 10
3145.234375
 20
-1349.375
 10
3145.234375
 20
-1339.453125
 10
3145.234375
 20
-1329.53125
 10
3145.234375
 20
-1319.609375
 10
3145.234375
 20
-1309.6875
 10
3145.234375
 20
-1299.765625
 10
3145.234375
 20
-1289.84375
 10
3145.234375
 20
-1279.921875
 10
3145.234375
 20
-1270.0
 10
3145.234375
 20
-1260.078125
 10
3145.234375
 20
-1250.15625
 10
3145.234375
 20
-1240.234375
 10
3145.234375
 20
-1230.3125
 10
3145.234375
 20
-1220.390625
 10
3145.234375
 20
-1210.46875
 10
3145.234375
 20
-1200.546875
 10
3145.234375
 20
-1190.625
 10
3145.234375
 20
-1180.703125
 10
3145.234375
 20
-1170.78125
 10
3145.234375
 20
-1160.859375
 10
3145.234375
 20
-1150.9375
 10
3145.234375
 20
-1141.015625
 10
3145.234375
 20
-1131.09375
 10
3145.234375
 20
-1121.171875
 10
3145.234375
 20
-1111.25
 10
3145.234375
 20
-1101.328125
 10
3135.3125
 20
-1091.40625
 10
3135.3125
 20
-1081.484375
 10
3145.234375
 20
-1071.5625
 10
3145.234375
 20
-1061.640625
 10
3145.234375
 20
-1051.71875
 10
3145.234375
 20
-1041.796875
 10
3145.234375
 20
-1031.875
 10
3145.234375
 20
-1021.953125
 10
3145.234375
 20
-1012.03125
 10
3145.234375
 20
-1002.109375
 10
3145.234375
 20
-992.1875
 10
3145.234375
 20
-982.265625
 10
3145.234375
 20
-972.34375
 10
3145.234375
 20
-962.421875
 10
3145.234375
 20
-952.5
 10
3145.234375
 20
-942.578125
 10
3145.234375
 20
-932.65625
 10
3145.234375
 20
-922.734375
 10
3145.234375
 20
-912.8125
 10
3145.234375
 20
-902.890625
 10
3145.234375
 20
-892.96875
 10
3145.234375
 20
-883.046875
 10
3145.234375
 20
-873.125
 10
3145.234375
 20
-863.203125
 10
3145.234375
 20
-853.28125
 10
3145.234375
 20
-843.359375
 10
3145.234375
 20
-833.4375
 10
3145.234375
 20
-823.515625
 10
3145.234375
 20
-813.59375
 10
3135.3125
 20
-803.671875
 10
3125.390625
 20
-793.75
 10
3115.46875
 20
-793.75
 10
3105.546875
 20
-803.671875
 10
3095.625
 20
-793.75
 10
3085.703125
 20
-793.75
 10
3075.78125
 20
-793.75
 10
3065.859375
 20
-793.75
 10
3055.9375
 20
-793.75
 10
3046.015625
 20
-793.75
 10
3036.09375
 20
-793.75
 10
3026.171875
 20
-793.75
 10
3016.25
 20
-793.75
 10
3006.328125
 20
-793.75
 10
2996.40625
 20
-793.75
 10
2986.484375
 20
-793.75
 10
2976.5625
 20
-793.75
 10
2966.640625
 20
-793.75
 10
2956.71875
 20
-793.75
 10
2946.796875
 20
-793.75
 10
2936.875
 20
-793.75
 10
2926.953125
 20
-783.828125
 10
2917.03125
 20
-793.75
 10
2907.109375
 20
-793.75
 10
2897.1875
 20
-793.75
 10
2887.265625
 20
-793.75
 10
2877.34375
 20
-793.75
 10
2867.421875
 20
-793.75
 10
2857.5
 20
-793.75
 10
2847.578125
 20
-793.75
 10
2837.65625
 20
-793.75
 10
2827.734375
 20
-793.75
 10
2817.8125
 20
-793.75
 10
2807.890625
 20
-793.75
 10
2797.96875
 20
-793.75
 10
2788.046875
 20
-793.75
 10
2778.125
 20
-793.75
 10
2768.203125
 20
-783.828125
 10
2758.28125
 20
-783.828125
 10
2748.359375
 20
-793.75
 10
2738.4375
 20
-793.75
 10
2728.515625
 20
-793.75
 10
2718.59375
 20
-793.75
 10
2708.671875
 20
-793.75
 10
2698.75
 20
-793.75
 10
2688.828125
 20
-793.75
 10
2678.90625
 20
-793.75
 10
2668.984375
 20
-793.75
 10
2659.0625
 20
-793.75
 10
2649.140625
 20
-793.75
 10
2639.21875
 20
-793.75
 10
2629.296875
 20
-793.75
 10
2619.375
 20
-793.75
 10
2609.453125
 20
-783.828125
 10
2599.53125
 20
-783.828125
 10
2589.609375
 20
-783.828125
 10
2579.6875
 20
-793.75
 10
2569.765625
 20
-783.828125
 10
2559.84375
 20
-783.828125
 10
2549.921875
 20
-783.828125
 10
2540.0
 20
-793.75
 10
2530.078125
 20
-793.75
 10
2520.15625
 20
-793.75
 10
2510.234375
 20
-793.75
 10
2500.3125
 20
-793.75
 10
2490.390625
 20
-793.75
 10
2480.46875
 20
-793.75
 10
2470.546875
 20
-793.75
 10
2460.625
 20
-793.75
 10
2450.703125
 20
-793.75
 10
2440.78125
 20
-793.75
 10
2430.859375
 20
-793.75
 10
2420.9375
 20
-793.75
 10
2411.015625
 20
-793.75
 10
2401.09375
 20
-793.75
 10
2391.171875
 20
-793.75
 10
2381.25
 20
-793.75
 10
2371.328125
 20
-793.75
 10
2361.40625
 20
-793.75
 10
2351.484375
 20
-793.75
 10
2341.5625
 20
-793.75
 10
2331.640625
 20
-793.75
 10
2321.71875
 20
-793.75
 10
2311.796875
 20
-793.75
 10
2301.875
 20
-783.828125
 10
2291.953125
 20
-783.828125
 10
2282.03125
 20
-783.828125
 10
2272.109375
 20
-783.828125
 10
2262.1875
 20
-783.828125
 10
2252.265625
 20
-793.75
 10
2242.34375
 20
-793.75
 10
2232.421875
 20
-793.75
 10
2222.5
 20
-793.75
 10
2212.578125
 20
-793.75
 10
2202.65625
 20
-793.75
 10
2192.734375
 20
-793.75
 10
2182.8125
 20
-793.75
 10
2172.890625
 20
-793.75
 10
2162.96875
 20
-793.75
 10
2153.046875
 20
-793.75
 10
2143.125
 20
-793.75
 10
2133.203125
 20
-783.828125
 10
2123.28125
 20
-783.828125
 10
2113.359375
 20
-783.828125
 10
2103.4375
 20
-793.75
 10
2093.515625
 20
-783.828125
 10
2083.59375
 20
-783.828125
 10
2073.671875
 20
-783.828125
 10
2063.75
 20
-783.828125
 10
2053.828125
 20
-783.828125
 10
2043.90625
 20
-783.828125
 10
2033.984375
 20
-783.828125
 10
2024.0625
 20
-793.75
 10
2014.140625
 20
-793.75
 10
2004.21875
 20
-793.75
 10
1994.296875
 20
-793.75
 10
1984.375
 20
-793.75
 10
1974.453125
 20
-793.75
 10
1964.53125
 20
-783.828125
  0
LWPOLYLINE
  5
33
330
17
100
AcDbEntity
  8
conductor
100
AcDbPolyline
 90
8
 70
1
 43
0.5
 10
1815.703125
 20
-2966.640625
 10
1825.625
 20
-2956.71875
 10
1835.546875
 20
-2956.71875
 10
1845.46875
 20
-2956.71875
 10
1855.390625
 20
-2966.640625
 10
1845.46875
 20
-2976.5625
 10
1835.546875
 20
-2986.484375
 10
1825.625
 20
-2976.5625
  0
LWPOLYLINE
  5
34
330
17
100
AcDbEntity
  8
conductor
100
AcDbPolyline
 90
4
 70
1
 43
0.5
 10
2917.03125
 20
-2817.8125
 10
2926.953125
 20
-2807.890625
 10
2936.875
 20
-2817.8125
 10
2926.953125
 20
-2827.734375
  0
LWPOLYLINE
  5
35
330
17
100
AcDbEntity
  8
conductor
100
AcDbPolyline
 90
26
 70
1
 43
0.5
 10
2103.4375
 20
-2797.96875
 10
2113.359375
 20
-2788.046875
 10
2123.28125
 20
-2788.046875
 10
2133.203125
 20
-2788.046875
 10
2143.125
 20
-2797.96875
 10
2153.046875
 20
-2807.890625
 10
2162.96875
 20
-2817.8125
 10
2162.96875
 20
-2827.734375
 10
2153.046875
 20
-2837.65625
 10
2143.125
 20
-2827.734375
 10
2153.046875
 20
-2837.65625
 10
2143.125
 20
-2847.578125
 10
2133.203125
 20
-2847.578125
 10
2123.28125
 20
-2847.578125
 10
2113.359375
 20
-2857.5
 10
2103.4375
 20
-2847.578125
 10
2093.515625
 20
-2847.578125
 10
2083.59375
 20
-2847.578125
 10
2073.671875
 20
-2837.65625
 10
2083.59375
 20
-2827.734375
 10
2093.515625
 20
-2827.734375
 10
2103.4375
 20
-2827.734375
 10
2093.515625
 20
-2827.734375
 10
2083.59375
 20
-2817.8125
 10
2093.515625
 20
-2807.890625
 10
2103.4375
 20
-2807.890625
  0
LWPOLYLINE
  5
36
330
17
100
AcDbEntity
  8
conductor
100
AcDbPolyline
 90
19
 70
1
 43
0.5
 10
3661.171875
 20
-2202.65625
 10
3671.09375
 20
-2192.734375
 10
3681.015625
 20
-2202.65625
 10
3681.015625
 20
-2212.578125
 10
3690.9375
 20
-2222.5
 10
3690.9375
 20
-2232.421875
 10
3690.9375
 20
-2242.34375
 10
3681.015625
 20
-2252.265625
 10
3681.015625
 20
-2262.1875
 10
3671.09375
 20
-2272.109375
 10
3661.171875
 20
-2272.109375
 10
3651.25
 20
-2262.1875
 10
3651.25
 20
-2252.265625
 10
3641.328125
 20
-2242.34375
 10
3641.328125
 20
-2232.421875
 10
3631.40625
 20
-2222.5
 10
3631.40625
 20
-2212.578125
 10
3641.328125
 20
-2202.65625
 10
3651.25
 20
-2212.578125
  0
LWPOLYLINE
  5
37
330
17
100
AcDbEntity
  8
conductor
100
AcDbPolyline
 90
4
 70
1
 43
0.5
 10
3641.328125
 20
-2202.65625
 10
3651.25
 20
-2192.734375
 10
3661.171875
 20
-2202.65625
 10
3651.25
 20
-2212.578125
  0
LWPOLYLINE
  5
38
330
17
100
AcDbEntity
  8
conductor
100
AcDbPolyline
 90
4
 70
1
 43
0.5
 10
2837.65625
 20
-2182.8125
 10
2847.578125
 20
-2172.890625
 10
2857.5
 20
-2182.8125
 10
2847.578125
 20
-2192.734375
  0
LWPOLYLINE
  5
39
330
17
100
AcDbEntity
  8
conductor
100
AcDbPolyline
 90
37
 70
1
 43
0.5
 10
2857.5
 20
-2103.4375
 10
2867.421875
 20
-2093.515625
 10
2877.34375
 20
-2093.515625
 10
2887.265625
 20
-2093.515625
 10
2897.1875
 20
-2093.515625
 10
2907.109375
 20
-2093.515625
 10
2917.03125
 20
-2093.515625
 10
2926.953125
 20
-2103.4375
 10
2936.875
 20
-2113.359375
 10
2946.796875
 20
-2123.28125
 10
2956.71875
 20
-2133.203125
 10
2956.71875
 20
-2143.125
 10
2956.71875
 20
-2153.046875
 10
2946.796875
 20
-2162.96875
 10
2936.875
 20
-2162.96875
 10
2936.875
 20
-2172.890625
 10
2946.796875
 20
-2182.8125
 10
2936.875
 20
-2192.734375
 10
2926.953125
 20
-2192.734375
 10
2917.03125
 20
-2192.734375
 10
2907.109375
 20
-2192.734375
 10
2897.1875
 20
-2182.8125
 10
2907.109375
 20
-2172.890625
 10
2897.1875
 20
-2172.890625
 10
2887.265625
 20
-2162.96875
 10
2877.34375
 20
-2162.96875
 10
2867.421875
 20
-2172.890625
 10
2857.5
 20
-2172.890625
 10
2847.578125
 20
-2172.890625
 10
2837.65625
 20
-2172.890625
 10
2827.734375
 20
-2162.96875
 10
2827.734375
 20
-2153.046875
 10
2817.8125
 20
-2143.125
 10
2827.734375
 20
-2133.203125
 10
2827.734375
 20
-2123.28125
 10
2837.65625
 20
-2113.359375
 10
2847.578125
 20
-2113.359375
  0
LWPOLYLINE
  5
3A
330
17
100
AcDbEntity
  8
conductor
100
AcDbPolyline
 90
22
 70
1
 43
0.5
 10
2738.4375
 20
-1647.03125
 10
2748.359375
 20
-1637.109375
 10
2758.28125
 20
-1647.03125
 10
2768.203125
 20
-1656.953125
 10
2778.125
 20
-1666.875
 10
2778.125
 20
-1676.796875
 10
2778.125
 20
-1686.71875
 10
2768.203125
 20
-1696.640625
 10
2758.28125
 20
-1696.640625
 10
2748.359375
 20
-1696.640625
 10
2738.4375
 20
-1686.71875
 10
2728.515625
 20
-1696.640625
 10
2718.59375
 20
-1696.640625
 10
2708.671875
 20
-1696.640625
 10
2698.75
 20
-1686.71875
 10
2708.671875
 20
-1676.796875
 10
2698.75
 20
-1676.796875
 10
2688.828125
 20
-1666.875
 10
2698.75
 20
-1656.953125
 10
2708.671875
 20
-1647.03125
 10
2718.59375
 20
-1656.953125
 10
2728.515625
 20
-1647.03125
  0
LWPOLYLINE
  5
3B
330
17
100
AcDbEntity
  8
conductor
100
AcDbPolyline
 90
4
 70
1
 43
0.5
 10
2708.671875
 20
-1647.03125
 10
2718.59375
 20
-1637.109375
 10
2728.515625
 20
-1647.03125
 10
2718.59375
 20
-1656.953125
  0
LWPOLYLINE
  5
3C
330
17
100
AcDbEntity
  8
dielectric
100
AcDbPolyline
 90
2
 70
1
 43
0.5
 10
4673.203125
 20
-1309.6875
 10
4683.125
 20
-1309.6875
  0
LWPOLYLINE
  5
3D
330
17
100
AcDbEntity
  8
substrate
100
AcDbPolyline
 90
2044
 70
1
 43
0.5
 10
0.0
 20
-0.0
 10
0.0
 20
-9.921875
 10
0.0
 20
-19.84375
 10
0.0
 20
-29.765625
 10
0.0
 20
-39.6875
 10
0.0
 20
-49.609375
 10
0.0
 20
-59.53125
 10
0.0
 20
-69.453125
 10
0.0
 20
-79.375
 10
0.0
 20
-89.296875
 10
0.0
 20
-99.21875
 10
0.0
 20
-109.140625
 10
0.0
 20
-119.0625
 10
0.0
 20
-128.984375
 10
0.0
 20
-138.90625
 10
0.0
 20
-148.828125
 10
0.0
 20
-158.75
 10
0.0
 20
-168.671875
 10
0.0
 20
-178.59375
 10
0.0
 20
-188.515625
 10
0.0
 20
-198.4375
 10
0.0
 20
-208.359375
 10
0.0
 20
-218.28125
 10
0.0
 20
-228.203125
 10
0.0
 20
-238.125
 10
0.0
 20
-248.046875
 10
0.0
 20
-257.96875
 10
0.0
 20
-267.890625
 10
0.0
 20
-277.8125
 10
0.0
 20
-287.734375
 10
0.0
 20
-297.65625
 10
0.0
 20
-307.578125
 10
0.0
 20
-317.5
 10
0.0
 20
-327.421875
 10
0.0
 20
-337.34375
 10
0.0
 20
-347.265625
 10
0.0
 20
-357.1875
 10
0.0
 20
-367.109375
 10
0.0
 20
-377.03125
 10
0.0
 20
-386.953125
 10
0.0
 20
-396.875
 10
0.0
 20
-406.796875
 10
0.0
 20
-416.71875
 10
0.0
 20
-426.640625
 10
0.0
 20
-436.5625
 10
0.0
 20
-446.484375
 10
0.0
 20
-456.40625
 10
0.0
 20
-466.328125
 10
0.0
 20
-476.25
 10
0.0
 20
-486.171875
 10
0.0
 20
-496.09375
 10
0.0
 20
-506.015625
 10
0.0
 20
-515.9375
 10
0.0
 20
-525.859375
 10
0.0
 20
-535.78125
 10
0.0
 20
-545.703125
 10
0.0
 20
-555.625
 10
0.0
 20
-565.546875
 10
0.0
 20
-575.46875
 10
0.0
 20
-585.390625
 10
0.0
 20
-595.3125
 10
0.0
 20
-605.234375
 10
0.0
 20
-615.15625
 10
0.0
 20
-625.078125
 10
0.0
 20
-635.0
 10
0.0
 20
-644.921875
 10
0.0
 20
-654.84375
 10
0.0
 20
-664.765625
 10
0.0
 20
-674.6875
 10
0.0
 20
-684.609375
 10
0.0
 20
-694.53125
 10
0.0
 20
-704.453125
 10
0.0
 20
-714.375
 10
0.0
 20
-724.296875
 10
0.0
 20
-734.21875
 10
0.0
 20
-744.140625
 10
0.0
 20
-754.0625
 10
0.0
 20
-763.984375
 10
0.0
 20
-773.90625
 10
0.0
 20
-783.828125
 10
0.0
 20
-793.75
 10
0.0
 20
-803.671875
 10
0.0
 20
-813.59375
 10
0.0
 20
-823.515625
 10
0.0
 20
-833.4375
 10
0.0
 20
-843.359375
 10
0.0
 20
-853.28125
 10
0.0
 20
-863.203125
 10
0.0
 20
-873.125
 10
0.0
 20
-883.046875
 10
0.0
 20
-892.96875
 10
0.0
 20
-902.890625
 10
0.0
 20
-912.8125
 10
0.0
 20
-922.734375
 10
0.0
 20
-932.65625
 10
0.0
 20
-942.578125
 10
0.0
 20
-952.5
 10
0.0
 20
-962.421875
 10
0.0
 20
-972.34375
 10
0.0
 20
-982.265625
 10
0.0
 20
-992.1875
 10
0.0
 20
-1002.109375
 10
0.0
 20
-1012.03125
 10
0.0
 20
-1021.953125
 10
0.0
 20
-1031.875
 10
0.0
 20
-1041.796875
 10
0.0
 20
-1051.71875
 10
0.0
 20
-1061.640625
 10
0.0
 20
-1071.5625
 10
0.0
 20
-1081.484375
 10
0.0
 20
-1091.40625
 10
0.0
 20
-1101.328125
 10
0.0
 20
-1111.25
 10
0.0
 20
-1121.171875
 10
0.0
 20
-1131.09375
 10
0.0
 20
-1141.015625
 10
0.0
 20
-1150.9375
 10
0.0
 20
-1160.859375
 10
0.0
 20
-1170.78125
 10
0.0
 20
-1180.703125
 10
0.0
 20
-1190.625
 10
0.0
 20
-1200.546875
 10
0.0
 20
-1210.46875
 10
0.0
 20
-1220.390625
 10
0.0
 20
-1230.3125
 10
0.0
 20
-1240.234375
 10
0.0
 20
-1250.15625
 10
0.0
 20
-1260.078125
 10
0.0
 20
-1270.0
 10
0.0
 20
-1279.921875
 10
0.0
 20
-1289.84375
 10
0.0
 20
-1299.765625
 10
0.0
 20
-1309.6875
 10
0.0
 20
-1319.609375
 10
0.0
 20
-1329.53125
 10
0.0
 20
-1339.453125
 10
0.0
 20
-1349.375
 10
0.0
 20
-1359.296875
 10
0.0
 20
-1369.21875
 10
0.0
 20
-1379.140625
 10
0.0
 20
-1389.0625
 10
0.0
 20
-1398.984375
 10
0.0
 20
-1408.90625
 10
0.0
 20
-1418.828125
 10
0.0
 20
-1428.75
 10
0.0
 20
-1438.671875
 10
0.0
 20
-1448.59375
 10
0.0
 20
-1458.515625
 10
0.0
 20
-1468.4375
 10
0.0
 20
-1478.359375
 10
0.0
 20
-1488.28125
 10
0.0
 20
-1498.203125
 10
0.0
 20
-1508.125
 10
0.0
 20
-1518.046875
 10
0.0
 20
-1527.96875
 10
0.0
 20
-1537.890625
 10
0.0
 20
-1547.8125
 10
0.0
 20
-1557.734375
 10
0.0
 20
-1567.65625
 10
0.0
 20
-1577.578125
 10
0.0
 20
-1587.5
 10
0.0
 20
-1597.421875
 10
0.0
 20
-1607.34375
 10
0.0
 20
-1617.265625
 10
0.0
 20
-1627.1875
 10
0.0
 20
-1637.109375
 10
0.0
 20
-1647.03125
 10
0.0
 20
-1656.953125
 10
0.0
 20
-1666.875
 10
0.0
 20
-1676.796875
 10
0.0
 20
-1686.71875
 10
0.0
 20
-1696.640625
 10
0.0
 20
-1706.5625
 10
0.0
 20
-1716.484375
 10
0.0
 20
-1726.40625
 10
0.0
 20
-1736.328125
 10
0.0
 20
-1746.25
 10
0.0
 20
-1756.171875
 10
0.0
 20
-1766.09375
 10
0.0
 20
-1776.015625
 10
0.0
 20
-1785.9375
 10
0.0
 20
-1795.859375
 10
0.0
 20
-1805.78125
 10
0.0
 20
-1815.703125
 10
0.0
 20
-1825.625
 10
0.0
 20
-1835.546875
 10
0.0
 20
-1845.46875
 10
0.0
 20
-1855.390625
 10
0.0
 20
-1865.3125
 10
0.0
 20
-1875.234375
 10
0.0
 20
-1885.15625
 10
0.0
 20
-1895.078125
 10
0.0
 20
-1905.0
 10
0.0
 20
-1914.921875
 10
0.0
 20
-1924.84375
 10
0.0
 20
-1934.765625
 10
0.0
 20
-1944.6875
 10
0.0
 20
-1954.609375
 10
0.0
 20
-1964.53125
 10
0.0
 20
-1974.453125
 10
0.0
 20
-1984.375
 10
0.0
 20
-1994.296875
 10
0.0
 20
-2004.21875
 10
0.0
 20
-2014.140625
 10
0.0
 20
-2024.0625
 10
0.0
 20
-2033.984375
 10
0.0
 20
-2043.90625
 10
0.0
 20
-2053.828125
 10
0.0
 20
-2063.75
 10
0.0
 20
-2073.671875
 10
0.0
 20
-2083.59375
 10
0.0
 20
-2093.515625
 10
0.0
 20
-2103.4375
 10
0.0
 20
-2113.359375
 10
0.0
 20
-2123.28125
 10
0.0
 20
-2133.203125
 10
0.0
 20
-2143.125
 10
0.0
 20
-2153.046875
 10
0.0
 20
-2162.96875
 10
0.0
 20
-2172.890625
 10
0.0
 20
-2182.8125
 10
0.0
 20
-2192.734375
 10
0.0
 20
-2202.65625
 10
0.0
 20
-2212.578125
 10
0.0
 20
-2222.5
 10
0.0
 20
-2232.421875
 10
0.0
 20
-2242.34375
 10
0.0
 20
-2252.265625
 10
0.0
 20
-2262.1875
 10
0.0
 20
-2272.109375
 10
0.0
 20
-2282.03125
 10
0.0
 20
-2291.953125
 10
0.0
 20
-2301.875
 10
0.0
 20
-2311.796875
 10
0.0
 20
-2321.71875
 10
0.0
 20
-2331.640625
 10
0.0
 20
-2341.5625
 10
0.0
 20
-2351.484375
 10
0.0
 20
-2361.40625
 10
0.0
 20
-2371.328125
 10
0.0
 20
-2381.25
 10
0.0
 20
-2391.171875
 10
0.0
 20
-2401.09375
 10
0.0
 20
-2411.015625
 10
0.0
 20
-2420.9375
 10
0.0
 20
-2430.859375
 10
0.0
 20
-2440.78125
 10
0.0
 20
-2450.703125
 10
0.0
 20
-2460.625
 10
0.0
 20
-2470.546875
 10
0.0
 20
-2480.46875
 10
0.0
 20
-2490.390625
 10
0.0
 20
-2500.3125
 10
0.0
 20
-2510.234375
 10
0.0
 20
-2520.15625
 10
0.0
 20
-2530.078125
 10
0.0
 20
-2540.0
 10
0.0
 20
-2549.921875
 10
0.0
 20
-2559.84375
 10
0.0
 20
-2569.765625
 10
0.0
 20
-2579.6875
 10
0.0
 20
-2589.609375
 10
0.0
 20
-2599.53125
 10
0.0
 20
-2609.453125
 10
0.0
 20
-2619.375
 10
0.0
 20
-2629.296875
 10
0.0
 20
-2639.21875
 10
0.0
 20
-2649.140625
 10
0.0
 20
-2659.0625
 10
0.0
 20
-2668.984375
 10
0.0
 20
-2678.90625
 10
0.0
 20
-2688.828125
 10
0.0
 20
-2698.75
 10
0.0
 20
-2708.671875
 10
0.0
 20
-2718.59375
 10
0.0
 20
-2728.515625
 10
0.0
 20
-2738.4375
 10
0.0
 20
-2748.359375
 10
0.0
 20
-2758.28125
 10
0.0
 20
-2768.203125
 10
0.0
 20
-2778.125
 10
0.0
 20
-2788.046875
 10
0.0
 20
-2797.96875
 10
0.0
 20
-2807.890625
 10
0.0
 20
-2817.8125
 10
0.0
 20
-2827.734375
 10
0.0
 20
-2837.65625
 10
0.0
 20
-2847.578125
 10
0.0
 20
-2857.5
 10
0.0
 20
-2867.421875
 10
0.0
 20
-2877.34375
 10
0.0
 20
-2887.265625
 10
0.0
 20
-2897.1875
 10
0.0
 20
-2907.109375
 10
0.0
 20
-2917.03125
 10
0.0
 20
-2926.953125
 10
0.0
 20
-2936.875
 10
0.0
 20
-2946.796875
 10
0.0
 20
-2956.71875
 10
0.0
 20
-2966.640625
 10
0.0
 20
-2976.5625
 10
0.0
 20
-2986.484375
 10
0.0
 20
-2996.40625
 10
0.0
 20
-3006.328125
 10
0.0
 20
-3016.25
 10
0.0
 20
-3026.171875
 10
0.0
 20
-3036.09375
 10
0.0
 20
-3046.015625
 10
0.0
 20
-3055.9375
 10
0.0
 20
-3065.859375
 10
0.0
 20
-3075.78125
 10
0.0
 20
-3085.703125
 10
0.0
 20
-3095.625
 10
0.0
 20
-3105.546875
 10
0.0
 20
-3115.46875
 10
0.0
 20
-3125.390625
 10
0.0
 20
-3135.3125
 10
0.0
 20
-3145.234375
 10
0.0
 20
-3155.15625
 10
0.0
 20
-3165.078125
 10
0.0
 20
-3175.0
 10
0.0
 20
-3184.921875
 10
0.0
 20
-3194.84375
 10
0.0
 20
-3204.765625
 10
0.0
 20
-3214.6875
 10
0.0
 20
-3224.609375
 10
0.0
 20
-3234.53125
 10
0.0
 20
-3244.453125
 10
0.0
 20
-3254.375
 10
0.0
 20
-3264.296875
 10
0.0
 20
-3274.21875
 10
0.0
 20
-3284.140625
 10
0.0
 20
-3294.0625
 10
0.0
 20
-3303.984375
 10
0.0
 20
-3313.90625
 10
0.0
 20
-3323.828125
 10
0.0
 20
-3333.75
 10
0.0
 20
-3343.671875
 10
0.0
 20
-3353.59375
 10
0.0
 20
-3363.515625
 10
0.0
 20
-3373.4375
 10
0.0
 20
-3383.359375
 10
0.0
 20
-3393.28125
 10
0.0
 20
-3403.203125
 10
0.0
 20
-3413.125
 10
0.0
 20
-3423.046875
 10
0.0
 20
-3432.96875
 10
0.0
 20
-3442.890625
 10
0.0
 20
-3452.8125
 10
0.0
 20
-3462.734375
 10
0.0
 20
-3472.65625
 10
0.0
 20
-3482.578125
 10
0.0
 20
-3492.5
 10
0.0
 20
-3502.421875
 10
0.0
 20
-3512.34375
 10
0.0
 20
-3522.265625
 10
0.0
 20
-3532.1875
 10
0.0
 20
-3542.109375
 10
0.0
 20
-3552.03125
 10
0.0
 20
-3561.953125
 10
0.0
 20
-3571.875
 10
0.0
 20
-3581.796875
 10
0.0
 20
-3591.71875
 10
0.0
 20
-3601.640625
 10
0.0
 20
-3611.5625
 10
0.0
 20
-3621.484375
 10
0.0
 20
-3631.40625
 10
0.0
 20
-3641.328125
 10
0.0
 20
-3651.25
 10
0.0
 20
-3661.171875
 10
0.0
 20
-3671.09375
 10
0.0
 20
-3681.015625
 10
0.0
 20
-3690.9375
 10
0.0
 20
-3700.859375
 10
0.0
 20
-3710.78125
 10
0.0
 20
-3720.703125
 10
0.0
 20
-3730.625
 10
0.0
 20
-3740.546875
 10
0.0
 20
-3750.46875
 10
0.0
 20
-3760.390625
 10
0.0
 20
-3770.3125
 10
0.0
 20
-3780.234375
 10
0.0
 20
-3790.15625
 10
0.0
 20
-3800.078125
 10
0.0
 20
-3810.0
 10
0.0
 20
-3819.921875
 10
0.0
 20
-3829.84375
 10
0.0
 20
-3839.765625
 10
0.0
 20
-3849.6875
 10
0.0
 20
-3859.609375
 10
0.0
 20
-3869.53125
 10
0.0
 20
-3879.453125
 10
0.0
 20
-3889.375
 10
0.0
 20
-3899.296875
 10
0.0
 20
-3909.21875
 10
0.0
 20
-3919.140625
 10
0.0
 20
-3929.0625
 10
0.0
 20
-3938.984375
 10
0.0
 20
-3948.90625
 10
0.0
 20
-3958.828125
 10
0.0
 20
-3968.75
 10
0.0
 20
-3978.671875
 10
0.0
 20
-3988.59375
 10
0.0
 20
-3998.515625
 10
0.0
 20
-4008.4375
 10
0.0
 20
-4018.359375
 10
0.0
 20
-4028.28125
 10
0.0
 20
-4038.203125
 10
0.0
 20
-4048.125
 10
0.0
 20
-4058.046875
 10
0.0
 20
-4067.96875
 10
0.0
 20
-4077.890625
 10
0.0
 20
-4087.8125
 10
0.0
 20
-4097.734375
 10
0.0
 20
-4107.65625
 10
0.0
 20
-4117.578125
 10
0.0
 20
-4127.5
 10
0.0
 20
-4137.421875
 10
0.0
 20
-4147.34375
 10
0.0
 20
-4157.265625
 10
0.0
 20
-4167.1875
 10
0.0
 20
-4177.109375
 10
0.0
 20
-4187.03125
 10
0.0
 20
-4196.953125
 10
0.0
 20
-4206.875
 10
0.0
 20
-4216.796875
 10
0.0
 20
-4226.71875
 10
0.0
 20
-4236.640625
 10
0.0
 20
-4246.5625
 10
0.0
 20
-4256.484375
 10
0.0
 20
-4266.40625
 10
0.0
 20
-4276.328125
 10
0.0
 20
-4286.25
 10
0.0
 20
-4296.171875
 10
0.0
 20
-4306.09375
 10
0.0
 20
-4316.015625
 10
0.0
 20
-4325.9375
 10
0.0
 20
-4335.859375
 10
0.0
 20
-4345.78125
 10
0.0
 20
-4355.703125
 10
0.0
 20
-4365.625
 10
0.0
 20
-4375.546875
 10
0.0
 20
-4385.46875
 10
0.0
 20
-4395.390625
 10
0.0
 20
-4405.3125
 10
0.0
 20
-4415.234375
 10
0.0
 20
-4425.15625
 10
0.0
 20
-4435.078125
 10
0.0
 20
-4445.0
 10
0.0
 20
-4454.921875
 10
0.0
 20
-4464.84375
 10
0.0
 20
-4474.765625
 10
0.0
 20
-4484.6875
 10
0.0
 20
-4494.609375
 10
0.0
 20
-4504.53125
 10
0.0
 20
-4514.453125
 10
0.0
 20
-4524.375
 10
0.0
 20
-4534.296875
 10
0.0
 20
-4544.21875
 10
0.0
 20
-4554.140625
 10
0.0
 20
-4564.0625
 10
0.0
 20
-4573.984375
 10
0.0
 20
-4583.90625
 10
0.0
 20
-4593.828125
 10
0.0
 20
-4603.75
 10
0.0
 20
-4613.671875
 10
0.0
 20
-4623.59375
 10
0.0
 20
-4633.515625
 10
0.0
 20
-4643.4375
 10
0.0
 20
-4653.359375
 10
0.0
 20
-4663.28125
 10
0.0
 20
-4673.203125
 10
0.0
 20
-4683.125
 10
0.0
 20
-4693.046875
 10
0.0
 20
-4702.96875
 10
0.0
 20
-4712.890625
 10
0.0
 20
-4722.8125
 10
0.0
 20
-4732.734375
 10
0.0
 20
-4742.65625
 10
0.0
 20
-4752.578125
 10
0.0
 20
-4762.5
 10
0.0
 20
-4772.421875
 10
0.0
 20
-4782.34375
 10
0.0
 20
-4792.265625
 10
0.0
 20
-4802.1875
 10
0.0
 20
-4812.109375
 10
0.0
 20
-4822.03125
 10
0.0
 20
-4831.953125
 10
0.0
 20
-4841.875
 10
0.0
 20
-4851.796875
 10
0.0
 20
-4861.71875
 10
0.0
 20
-4871.640625
 10
0.0
 20
-4881.5625
 10
0.0
 20
-4891.484375
 10
0.0
 20
-4901.40625
 10
0.0
 20
-4911.328125
 10
0.0
 20
-4921.25
 10
0.0
 20
-4931.171875
 10
0.0
 20
-4941.09375
 10
0.0
 20
-4951.015625
 10
0.0
 20
-4960.9375
 10
0.0
 20
-4970.859375
 10
0.0
 20
-4980.78125
 10
0.0
 20
-4990.703125
 10
0.0
 20
-5000.625
 10
0.0
 20
-5010.546875
 10
0.0
 20
-5020.46875
 10
0.0
 20
-5030.390625
 10
0.0
 20
-5040.3125
 10
0.0
 20
-5050.234375
 10
0.0
 20
-5060.15625
 10
0.0
 20
-5070.078125
 10
9.921875
 20
-5070.078125
 10
19.84375
 20
-5070.078125
 10
29.765625
 20
-5070.078125
 10
39.6875
 20
-5070.078125
 10
49.609375
 20
-5070.078125
 10
59.53125
 20
-5070.078125
 10
69.453125
 20
-5070.078125
 10
79.375
 20
-5070.078125
 10
89.296875
 20
-5070.078125
 10
99.21875
 20
-5070.078125
 10
109.140625
 20
-5070.078125
 10
119.0625
 20
-5070.078125
 10
128.984375
 20
-5070.078125
 10
138.90625
 20
-5070.078125
 10
148.828125
 20
-5070.078125
 10
158.75
 20
-5070.078125
 10
168.671875
 20
-5070.078125
 10
178.59375
 20
-5070.078125
 10
188.515625
 20
-5070.078125
 10
198.4375
 20
-5070.078125
 10
208.359375
 20
-5070.078125
 10
218.28125
 20
-5070.078125
 10
228.203125
 20
-5070.078125
 10
238.125
 20
-5070.078125
 10
248.046875
 20
-5070.078125
 10
257.96875
 20
-5070.078125
 10
267.890625
 20
-5070.078125
 10
277.8125
 20
-5070.078125
 10
287.734375
 20
-5070.078125
 10
297.65625
 20
-5070.078125
 10
307.578125
 20
-5070.078125
 10
317.5
 20
-5070.078125
 10
327.421875
 20
-5070.078125
 10
337.34375
 20
-5070.078125
 10
347.265625
 20
-5070.078125
 10
357.1875
 20
-5070.078125
 10
367.109375
 20
-5070.078125
 10
377.03125
 20
-5070.078125
 10
386.953125
 20
-5070.078125
 10
396.875
 20
-5070.078125
 10
406.796875
 20
-5070.078125
 10
416.71875
 20
-5070.078125
 10
426.640625
 20
-5070.078125
 10
436.5625
 20
-5070.078125
 10
446.484375
 20
-5070.078125
 10
456.40625
 20
-5070.078125
 10
466.328125
 20
-5070.078125
 10
476.25
 20
-5070.078125
 10
486.171875
 20
-5070.078125
 10
496.09375
 20
-5070.078125
 10
506.015625
 20
-5070.078125
 10
515.9375
 20
-5070.078125
 10
525.859375
 20
-5070.078125
 10
535.78125
 20
-5070.078125
 10
545.703125
 20
-5070.078125
 10
555.625
 20
-5070.078125
 10
565.546875
 20
-5070.078125
 10
575.46875
 20
-5070.078125
 10
585.390625
 20
-5070.078125
 10
595.3125
 20
-5070.078125
 10
605.234375
 20
-5070.078125
 10
615.15625
 20
-5070.078125
 10
625.078125
 20
-5070.078125
 10
635.0
 20
-5070.078125
 10
644.921875
 20
-5070.078125
 10
654.84375
 20
-5070.078125
 10
664.765625
 20
-5070.078125
 10
674.6875
 20
-5070.078125
 10
684.609375
 20
-5070.078125
 10
694.53125
 20
-5070.078125
 10
704.453125
 20
-5070.078125
 10
714.375
 20
-5070.078125
 10
724.296875
 20
-5070.078125
 10
734.21875
 20
-5070.078125
 10
744.140625
 20
-5070.078125
 10
754.0625
 20
-5070.078125
 10
763.984375
 20
-5070.078125
 10
773.90625
 20
-5070.078125
 10
783.828125
 20
-5070.078125
 10
793.75
 20
-5070.078125
 10
803.671875
 20
-5070.078125
 10
813.59375
 20
-5070.078125
 10
823.515625
 20
-5070.078125
 10
833.4375
 20
-5070.078125
 10
843.359375
 20
-5070.078125
 10
853.28125
 20
-5070.078125
 10
863.203125
 20
-5070.078125
 10
873.125
 20
-5070.078125
 10
883.046875
 20
-5070.078125
 10
892.96875
 20
-5070.078125
 10
902.890625
 20
-5070.078125
 10
912.8125
 20
-5070.078125
 10
922.734375
 20
-5070.078125
 10
932.65625
 20
-5070.078125
 10
942.578125
 20
-5070.078125
 10
952.5
 20
-5070.078125
 10
962.421875
 20
-5070.078125
 10
972.34375
 20
-5070.078125
 10
982.265625
 20
-5070.078125
 10
992.1875
 20
-5070.078125
 10
1002.109375
 20
-5070.078125
 10
1012.03125
 20
-5070.078125
 10
1021.953125
 20
-5070.078125
 10
1031.875
 20
-5070.078125
 10
1041.796875
 20
-5070.078125
 10
1051.71875
 20
-5070.078125
 10
1061.640625
 20
-5070.078125
 10
1071.5625
 20
-5070.078125
 10
1081.484375
 20
-5070.078125
 10
1091.40625
 20
-5070.078125
 10
1101.328125
 20
-5070.078125
 10
1111.25
 20
-5070.078125
 10
1121.171875
 20
-5070.078125
 10
1131.09375
 20
-5070.078125
 10
1141.015625
 20
-5070.078125
 10
1150.9375
 20
-5070.078125
 10
1160.859375
 20
-5070.078125
 10
1170.78125
 20
-5070.078125
 10
1180.703125
 20
-5070.078125
 10
1190.625
 20
-5070.078125
 10
1200.546875
 20
-5070.078125
 10
1210.46875
 20
-5070.078125
 10
1220.390625
 20
-5070.078125
 10
1230.3125
 20
-5070.078125
 10
1240.234375
 20
-5070.078125
 10
1250.15625
 20
-5070.078125
 10
1260.078125
 20
-5070.078125
 10
1270.0
 20
-5070.078125
 10
1279.921875
 20
-5070.078125
 10
1289.84375
 20
-5070.078125
 10
1299.765625
 20
-5070.078125
 10
1309.6875
 20
-5070.078125
 10
1319.609375
 20
-5070.078125
 10
1329.53125
 20
-5070.078125
 10
1339.453125
 20
-5070.078125
 10
1349.375
 20
-5070.078125
 10
1359.296875
 20
-5070.078125
 10
1369.21875
 20
-5070.078125
 10
1379.140625
 20
-5070.078125
 10
1389.0625
 20
-5070.078125
 10
1398.984375
 20
-5070.078125
 10
1408.90625
 20
-5070.078125
 10
1418.828125
 20
-5070.078125
 10
1428.75
 20
-5070.078125
 10
1438.671875
 20
-5070.078125
 10
1448.59375
 20
-5070.078125
 10
1458.515625
 20
-5070.078125
 10
1468.4375
 20
-5070.078125
 10
1478.359375
 20
-5070.078125
 10
1488.28125
 20
-5070.078125
 10
1498.203125
 20
-5070.078125
 10
1508.125
 20
-5070.078125
 10
1518.046875
 20
-5070.078125
 10
1527.96875
 20
-5070.078125
 10
1537.890625
 20
-5070.078125
 10
1547.8125
 20
-5070.078125
 10
1557.734375
 20
-5070.078125
 10
1567.65625
 20
-5070.078125
 10
1577.578125
 20
-5070.078125
 10
1587.5
 20
-5070.078125
 10
1597.421875
 20
-5070.078125
 10
1607.34375
 20
-5070.078125
 10
1617.265625
 20
-5070.078125
 10
1627.1875
 20
-5070.078125
 10
1637.109375
 20
-5070.078125
 10
1647.03125
 20
-5070.078125
 10
1656.953125
 20
-5070.078125
 10
1666.875
 20
-5070.078125
 10
1676.796875
 20
-5070.078125
 10
1686.71875
 20
-5070.078125
 10
1696.640625
 20
-5070.078125
 10
1706.5625
 20
-5070.078125
 10
1716.484375
 20
-5070.078125
 10
1726.40625
 20
-5070.078125
 10
1736.328125
 20
-5070.078125
 10
1746.25
 20
-5070.078125
 10
1756.171875
 20
-5070.078125
 10
1766.09375
 20
-5070.078125
 10
1776.015625
 20
-5070.078125
 10
1785.9375
 20
-5070.078125
 10
1795.859375
 20
-5070.078125
 10
1805.78125
 20
-5070.078125
 10
1815.703125
 20
-5070.078125
 10
1825.625
 20
-5070.078125
 10
1835.546875
 20
-5070.078125
 10
1845.46875
 20
-5070.078125
 10
1855.390625
 20
-5070.078125
 10
1865.3125
 20
-5070.078125
 10
1875.234375
 20
-5070.078125
 10
1885.15625
 20
-5070.078125
 10
1895.078125
 20
-5070.078125
 10
1905.0
 20
-5070.078125
 10
1914.921875
 20
-5070.078125
 10
1924.84375
 20
-5070.078125
 10
1934.765625
 20
-5070.078125
 10
1944.6875
 20
-5070.078125
 10
1954.609375
 20
-5070.078125
 10
1964.53125
 20
-5070.078125
 10
1974.453125
 20
-5070.078125
 10
1984.375
 20
-5070.078125
 10
1994.296875
 20
-5070.078125
 10
2004.21875
 20
-5070.078125
 10
2014.140625
 20
-5070.078125
 10
2024.0625
 20
-5070.078125
 10
2033.984375
 20
-5070.078125
 10
2043.90625
 20
-5070.078125
 10
2053.828125
 20
-5070.078125
 10
2063.75
 20
-5070.078125
 10
2073.671875
 20
-5070.078125
 10
2083.59375
 20
-5070.078125
 10
2093.515625
 20
-5070.078125
 10
2103.4375
 20
-5070.078125
 10
2113.359375
 20
-5070.078125
 10
2123.28125
 20
-5070.078125
 10
2133.203125
 20
-5070.078125
 10
2143.125
 20
-5070.078125
 10
2153.046875
 20
-5070.078125
 10
2162.96875
 20
-5070.078125
 10
2172.890625
 20
-5070.078125
 10
2182.8125
 20
-5070.078125
 10
2192.734375
 20
-5070.078125
 10
2202.65625
 20
-5070.078125
 10
2212.578125
 20
-5070.078125
 10
2222.5
 20
-5070.078125
 10
2232.421875
 20
-5070.078125
 10
2242.34375
 20
-5070.078125
 10
2252.265625
 20
-5070.078125
 10
2262.1875
 20
-5070.078125
 10
2272.109375
 20
-5070.078125
 10
2282.03125
 20
-5070.078125
 10
2291.953125
 20
-5070.078125
 10
2301.875
 20
-5070.078125
 10
2311.796875
 20
-5070.078125
 10
2321.71875
 20
-5070.078125
 10
2331.640625
 20
-5070.078125
 10
2341.5625
 20
-5070.078125
 10
2351.484375
 20
-5070.078125
 10
2361.40625
 20
-5070.078125
 10
2371.328125
 20
-5070.078125
 10
2381.25
 20
-5070.078125
 10
2391.171875
 20
-5070.078125
 10
2401.09375
 20
-5070.078125
 10
2411.015625
 20
-5070.078125
 10
2420.9375
 20
-5070.078125
 10
2430.859375
 20
-5070.078125
 10
2440.78125
 20
-5070.078125
 10
2450.703125
 20
-5070.078125
 10
2460.625
 20
-5070.078125
 10
2470.546875
 20
-5070.078125
 10
2480.46875
 20
-5070.078125
 10
2490.390625
 20
-5070.078125
 10
2500.3125
 20
-5070.078125
 10
2510.234375
 20
-5070.078125
 10
2520.15625
 20
-5070.078125
 10
2530.078125
 20
-5070.078125
 10
2540.0
 20
-5070.078125
 10
2549.921875
 20
-5070.078125
 10
2559.84375
 20
-5070.078125
 10
2569.765625
 20
-5070.078125
 10
2579.6875
 20
-5070.078125
 10
2589.609375
 20
-5070.078125
 10
2599.53125
 20
-5070.078125
 10
2609.453125
 20
-5070.078125
 10
2619.375
 20
-5070.078125
 10
2629.296875
 20
-5070.078125
 10
2639.21875
 20
-5070.078125
 10
2649.140625
 20
-5070.078125
 10
2659.0625
 20
-5070.078125
 10
2668.984375
 20
-5070.078125
 10
2678.90625
 20
-5070.078125
 10
2688.828125
 20
-5070.078125
 10
2698.75
 20
-5070.078125
 10
2708.671875
 20
-5070.078125
 10
2718.59375
 20
-5070.078125
 10
2728.515625
 20
-5070.078125
 10
2738.4375
 20
-5070.078125
 10
2748.359375
 20
-5070.078125
 10
2758.28125
 20
-5070.078125
 10
2768.203125
 20
-5070.078125
 10
2778.125
 20
-5070.078125
 10
2788.046875
 20
-5070.078125
 10
2797.96875
 20
-5070.078125
 10
2807.890625
 20
-5070.078125
 10
2817.8125
 20
-5070.078125
 10
2827.734375
 20
-5070.078125
 10
2837.65625
 20
-5070.078125
 10
2847.578125
 20
-5070.078125
 10
2857.5
 20
-5070.078125
 10
2867.421875
 20
-5070.078125
 10
2877.34375
 20
-5070.078125
 10
2887.265625
 20
-5070.078125
 10
2897.1875
 20
-5070.078125
 10
2907.109375
 20
-5070.078125
 10
2917.03125
 20
-5070.078125
 10
2926.953125
 20
-5070.078125
 10
2936.875
 20
-5070.078125
 10
2946.796875
 20
-5070.078125
 10
2956.71875
 20
-5070.078125
 10
2966.640625
 20
-5070.078125
 10
2976.5625
 20
-5070.078125
 10
2986.484375
 20
-5070.078125
 10
2996.40625
 20
-5070.078125
 10
3006.328125
 20
-5070.078125
 10
3016.25
 20
-5070.078125
 10
3026.171875
 20
-5070.078125
 10
3036.09375
 20
-5070.078125
 10
3046.015625
 20
-5070.078125
 10
3055.9375
 20
-5070.078125
 10
3065.859375
 20
-5070.078125
 10
3075.78125
 20
-5070.078125
 10
3085.703125
 20
-5070.078125
 10
3095.625
 20
-5070.078125
 10
3105.546875
 20
-5070.078125
 10
3115.46875
 20
-5070.078125
 10
3125.390625
 20
-5070.078125
 10
3135.3125
 20
-5070.078125
 10
3145.234375
 20
-5070.078125
 10
3155.15625
 20
-5070.078125
 10
3165.078125
 20
-5070.078125
 10
3175.0
 20
-5070.078125
 10
3184.921875
 20
-5070.078125
 10
3194.84375
 20
-5070.078125
 10
3204.765625
 20
-5070.078125
 10
3214.6875
 20
-5070.078125
 10
3224.609375
 20
-5070.078125
 10
3234.53125
 20
-5070.078125
 10
3244.453125
 20
-5070.078125
 10
3254.375
 20
-5070.078125
 10
3264.296875
 20
-5070.078125
 10
3274.21875
 20
-5070.078125
 10
3284.140625
 20
-5070.078125
 10
3294.0625
 20
-5070.078125
 10
3303.984375
 20
-5070.078125
 10
3313.90625
 20
-5070.078125
 10
3323.828125
 20
-5070.078125
 10
3333.75
 20
-5070.078125
 10
3343.671875
 20
-5070.078125
 10
3353.59375
 20
-5070.078125
 10
3363.515625
 20
-5070.078125
 10
3373.4375
 20
-5070.078125
 10
3383.359375
 20
-5070.078125
 10
3393.28125
 20
-5070.078125
 10
3403.203125
 20
-5070.078125
 10
3413.125
 20
-5070.078125
 10
3423.046875
 20
-5070.078125
 10
3432.96875
 20
-5070.078125
 10
3442.890625
 20
-5070.078125
 10
3452.8125
 20
-5070.078125
 10
3462.734375
 20
-5070.078125
 10
3472.65625
 20
-5070.078125
 10
3482.578125
 20
-5070.078125
 10
3492.5
 20
-5070.078125
 10
3502.421875
 20
-5070.078125
 10
3512.34375
 20
-5070.078125
 10
3522.265625
 20
-5070.078125
 10
3532.1875
 20
-5070.078125
 10
3542.109375
 20
-5070.078125
 10
3552.03125
 20
-5070.078125
 10
3561.953125
 20
-5070.078125
 10
3571.875
 20
-5070.078125
 10
3581.796875
 20
-5070.078125
 10
3591.71875
 20
-5070.078125
 10
3601.640625
 20
-5070.078125
 10
3611.5625
 20
-5070.078125
 10
3621.484375
 20
-5070.078125
 10
3631.40625
 20
-5070.078125
 10
3641.328125
 20
-5070.078125
 10
3651.25
 20
-5070.078125
 10
3661.171875
 20
-5070.078125
 10
3671.09375
 20
-5070.078125
 10
3681.015625
 20
-5070.078125
 10
3690.9375
 20
-5070.078125
 10
3700.859375
 20
-5070.078125
 10
3710.78125
 20
-5070.078125
 10
3720.703125
 20
-5070.078125
 10
3730.625
 20
-5070.078125
 10
3740.546875
 20
-5070.078125
 10
3750.46875
 20
-5070.078125
 10
3760.390625
 20
-5070.078125
 10
3770.3125
 20
-5070.078125
 10
3780.234375
 20
-5070.078125
 10
3790.15625
 20
-5070.078125
 10
3800.078125
 20
-5070.078125
 10
3810.0
 20
-5070.078125
 10
3819.921875
 20
-5070.078125
 10
3829.84375
 20
-5070.078125
 10
3839.765625
 20
-5070.078125
 10
3849.6875
 20
-5070.078125
 10
3859.609375
 20
-5070.078125
 10
3869.53125
 20
-5070.078125
 10
3879.453125
 20
-5070.078125
 10
3889.375
 20
-5070.078125
 10
3899.296875
 20
-5070.078125
 10
3909.21875
 20
-5070.078125
 10
3919.140625
 20
-5070.078125
 10
3929.0625
 20
-5070.078125
 10
3938.984375
 20
-5070.078125
 10
3948.90625
 20
-5070.078125
 10
3958.828125
 20
-5070.078125
 10
3968.75
 20
-5070.078125
 10
3978.671875
 20
-5070.078125
 10
3988.59375
 20
-5070.078125
 10
3998.515625
 20
-5070.078125
 10
4008.4375
 20
-5070.078125
 10
4018.359375
 20
-5070.078125
 10
4028.28125
 20
-5070.078125
 10
4038.203125
 20
-5070.078125
 10
4048.125
 20
-5070.078125
 10
4058.046875
 20
-5070.078125
 10
4067.96875
 20
-5070.078125
 10
4077.890625
 20
-5070.078125
 10
4087.8125
 20
-5070.078125
 10
4097.734375
 20
-5070.078125
 10
4107.65625
 20
-5070.078125
 10
4117.578125
 20
-5070.078125
 10
4127.5
 20
-5070.078125
 10
4137.421875
 20
-5070.078125
 10
4147.34375
 20
-5070.078125
 10
4157.265625
 20
-5070.078125
 10
4167.1875
 20
-5070.078125
 10
4177.109375
 20
-5070.078125
 10
4187.03125
 20
-5070.078125
 10
4196.953125
 20
-5070.078125
 10
4206.875
 20
-5070.078125
 10
4216.796875
 20
-5070.078125
 10
4226.71875
 20
-5070.078125
 10
4236.640625
 20
-5070.078125
 10
4246.5625
 20
-5070.078125
 10
4256.484375
 20
-5070.078125
 10
4266.40625
 20
-5070.078125
 10
4276.328125
 20
-5070.078125
 10
4286.25
 20
-5070.078125
 10
4296.171875
 20
-5070.078125
 10
4306.09375
 20
-5070.078125
 10
4316.015625
 20
-5070.078125
 10
4325.9375
 20
-5070.078125
 10
4335.859375
 20
-5070.078125
 10
4345.78125
 20
-5070.078125
 10
4355.703125
 20
-5070.078125
 10
4365.625
 20
-5070.078125
 10
4375.546875
 20
-5070.078125
 10
4385.46875
 20
-5070.078125
 10
4395.390625
 20
-5070.078125
 10
4405.3125
 20
-5070.078125
 10
4415.234375
 20
-5070.078125
 10
4425.15625
 20
-5070.078125
 10
4435.078125
 20
-5070.078125
 10
4445.0
 20
-5070.078125
 10
4454.921875
 20
-5070.078125
 10
4464.84375
 20
-5070.078125
 10
4474.765625
 20
-5070.078125
 10
4484.6875
 20
-5070.078125
 10
4494.609375
 20
-5070.078125
 10
4504.53125
 20
-5070.078125
 10
4514.453125
 20
-5070.078125
 10
4524.375
 20
-5070.078125
 10
4534.296875
 20
-5070.078125
 10
4544.21875
 20
-5070.078125
 10
4554.140625
 20
-5070.078125
 10
4564.0625
 20
-5070.078125
 10
4573.984375
 20
-5070.078125
 10
4583.90625
 20
-5070.078125
 10
4593.828125
 20
-5070.078125
 10
4603.75
 20
-5070.078125
 10
4613.671875
 20
-5070.078125
 10
4623.59375
 20
-5070.078125
 10
4633.515625
 20
-5070.078125
 10
4643.4375
 20
-5070.078125
 10
4653.359375
 20
-5070.078125
 10
4663.28125
 20
-5070.078125
 10
4673.203125
 20
-5070.078125
 10
4683.125
 20
-5070.078125
 10
4693.046875
 20
-5070.078125
 10
4702.96875
 20
-5070.078125
 10
4712.890625
 20
-5070.078125
 10
4722.8125
 20
-5070.078125
 10
4732.734375
 20
-5070.078125
 10
4742.65625
 20
-5070.078125
 10
4752.578125
 20
-5070.078125
 10
4762.5
 20
-5070.078125
 10
4772.421875
 20
-5070.078125
 10
4782.34375
 20
-5070.078125
 10
4792.265625
 20
-5070.078125
 10
4802.1875
 20
-5070.078125
 10
4812.109375
 20
-5070.078125
 10
4822.03125
 20
-5070.078125
 10
4831.953125
 20
-5070.078125
 10
4841.875
 20
-5070.078125
 10
4851.796875
 20
-5070.078125
 10
4861.71875
 20
-5070.078125
 10
4871.640625
 20
-5070.078125
 10
4881.5625
 20
-5070.078125
 10
4891.484375
 20
-5070.078125
 10
4901.40625
 20
-5070.078125
 10
4911.328125
 20
-5070.078125
 10
4921.25
 20
-5070.078125
 10
4931.171875
 20
-5070.078125
 10
4941.09375
 20
-5070.078125
 10
4951.015625
 20
-5070.078125
 10
4960.9375
 20
-5070.078125
 10
4970.859375
 20
-5070.078125
 10
4980.78125
 20
-5070.078125
 10
4990.703125
 20
-5070.078125
 10
5000.625
 20
-5070.078125
 10
5010.546875
 20
-5070.078125
 10
5020.46875
 20
-5070.078125
 10
5030.390625
 20
-5070.078125
 10
5040.3125
 20
-5070.078125
 10
5050.234375
 20
-5070.078125
 10
5060.15625
 20
-5070.078125
 10
5070.078125
 20
-5070.078125
 10
5070.078125
 20
-5060.15625
 10
5070.078125
 20
-5050.234375
 10
5070.078125
 20
-5040.3125
 10
5070.078125
 20
-5030.390625
 10
5070.078125
 20
-5020.46875
 10
5070.078125
 20
-5010.546875
 10
5070.078125
 20
-5000.625
 10
5070.078125
 20
-4990.703125
 10
5070.078125
 20
-4980.78125
 10
5070.078125
 20
-4970.859375
 10
5070.078125
 20
-4960.9375
 10
5070.078125
 20
-4951.015625
 10
5070.078125
 20
-4941.09375
 10
5070.078125
 20
-4931.171875
 10
5070.078125
 20
-4921.25
 10
5070.078125
 20
-4911.328125
 10
5070.078125
 20
-4901.40625
 10
5070.078125
 20
-4891.484375
 10
5070.078125
 20
-4881.5625
 10
5070.078125
 20
-4871.640625
 10
5070.078125
 20
-4861.71875
 10
5070.078125
 20
-4851.796875
 10
5070.078125
 20
-4841.875
 10
5070.078125
 20
-4831.953125
 10
5070.078125
 20
-4822.03125
 10
5070.078125
 20
-4812.109375
 10
5070.078125
 20
-4802.1875
 10
5070.078125
 20
-4792.265625
 10
5070.078125
 20
-4782.34375
 10
5070.078125
 20
-4772.421875
 10
5070.078125
 20
-4762.5
 10
5070.078125
 20
-4752.578125
 10
5070.078125
 20
-4742.65625
 10
5070.078125
 20
-4732.734375
 10
5070.078125
 20
-4722.8125
 10
5070.078125
 20
-4712.890625
 10
5070.078125
 20
-4702.96875
 10
5070.078125
 20
-4693.046875
 10
5070.078125
 20
-4683.125
 10
5070.078125
 20
-4673.203125
 10
5070.078125
 20
-4663.28125
 10
5070.078125
 20
-4653.359375
 10
5070.078125
 20
-4643.4375
 10
5070.078125
 20
-4633.515625
 10
5070.078125
 20
-4623.59375
 10
5070.078125
 20
-4613.671875
 10
5070.078125
 20
-4603.75
 10
5070.078125
 20
-4593.828125
 10
5070.078125
 20
-4583.90625
 10
5070.078125
 20
-4573.984375
 10
5070.078125
 20
-4564.0625
 10
5070.078125
 20
-4554.140625
 10
5070.078125
 20
-4544.21875
 10
5070.078125
 20
-4534.296875
 10
5070.078125
 20
-4524.375
 10
5070.078125
 20
-4514.453125
 10
5070.078125
 20
-4504.53125
 10
5070.078125
 20
-4494.609375
 10
5070.078125
 20
-4484.6875
 10
5070.078125
 20
-4474.765625
 10
5070.078125
 20
-4464.84375
 10
5070.078125
 20
-4454.921875
 10
5070.078125
 20
-4445.0
 10
5070.078125
 20
-4435.078125
 10
5070.078125
 20
-4425.15625
 10
5070.078125
 20
-4415.234375
 10
5070.078125
 20
-4405.3125
 10
5070.078125
 20
-4395.390625
 10
5070.078125
 20
-4385.46875
 10
5070.078125
 20
-4375.546875
 10
5070.078125
 20
-4365.625
 10
5070.078125
 20
-4355.703125
 10
5070.078125
 20
-4345.78125
 10
5070.078125
 20
-4335.859375
 10
5070.078125
 20
-4325.9375
 10
5070.078125
 20
-4316.015625
 10
5070.078125
 20
-4306.09375
 10
5070.078125
 20
-4296.171875
 10
5070.078125
 20
-4286.25
 10
5070.078125
 20
-4276.328125
 10
5070.078125
 20
-4266.40625
 10
5070.078125
 20
-4256.484375
 10
5070.078125
 20
-4246.5625
 10
5070.078125
 20
-4236.640625
 10
5070.078125
 20
-4226.71875
 10
5070.078125
 20
-4216.796875
 10
5070.078125
 20
-4206.875
 10
5070.078125
 20
-4196.953125
 10
5070.078125
 20
-4187.03125
 10
5070.078125
 20
-4177.109375
 10
5070.078125
 20
-4167.1875
 10
5070.078125
 20
-4157.265625
 10
5070.078125
 20
-4147.34375
 10
5070.078125
 20
-4137.421875
 10
5070.078125
 20
-4127.5
 10
5070.078125
 20
-4117.578125
 10
5070.078125
 20
-4107.65625
 10
5070.078125
 20
-4097.734375
 10
5070.078125
 20
-4087.8125
 10
5070.078125
 20
-4077.890625
 10
5070.078125
 20
-4067.96875
 10
5070.078125
 20
-4058.046875
 10
5070.078125
 20
-4048.125
 10
5070.078125
 20
-4038.203125
 10
5070.078125
 20
-4028.28125
 10
5070.078125
 20
-4018.359375
 10
5070.078125
 20
-4008.4375
 10
5070.078125
 20
-3998.515625
 10
5070.078125
 20
-3988.59375
 10
5070.078125
 20
-3978.671875
 10
5070.078125
 20
-3968.75
 10
5070.078125
 20
-3958.828125
 10
5070.078125
 20
-3948.90625
 10
5070.078125
 20
-3938.984375
 10
5070.078125
 20
-3929.0625
 10
5070.078125
 20
-3919.140625
 10
5070.078125
 20
-3909.21875
 10
5070.078125
 20
-3899.296875
 10
5070.078125
 20
-3889.375
 10
5070.078125
 20
-3879.453125
 10
5070.078125
 20
-3869.53125
 10
5070.078125
 20
-3859.609375
 10
5070.078125
 20
-3849.6875
 10
5070.078125
 20
-3839.765625
 10
5070.078125
 20
-3829.84375
 10
5070.078125
 20
-3819.921875
 10
5070.078125
 20
-3810.0
 10
5070.078125
 20
-3800.078125
 10
5070.078125
 20
-3790.15625
 10
5070.078125
 20
-3780.234375
 10
5070.078125
 20
-3770.3125
 10
5070.078125
 20
-3760.390625
 10
5070.078125
 20
-3750.46875
 10
5070.078125
 20
-3740.546875
 10
5070.078125
 20
-3730.625
 10
5070.078125
 20
-3720.703125
 10
5070.078125
 20
-3710.78125
 10
5070.078125
 20
-3700.859375
 10
5070.078125
 20
-3690.9375
 10
5070.078125
 20
-3681.015625
 10
5070.078125
 20
-3671.09375
 10
5070.078125
 20
-3661.171875
 10
5070.078125
 20
-3651.25
 10
5070.078125
 20
-3641.328125
 10
5070.078125
 20
-3631.40625
 10
5070.078125
 20
-3621.484375
 10
5070.078125
 20
-3611.5625
 10
5070.078125
 20
-3601.640625
 10
5070.078125
 20
-3591.71875
 10
5070.078125
 20
-3581.796875
 10
5070.078125
 20
-3571.875
 10
5070.078125
 20
-3561.953125
 10
5070.078125
 20
-3552.03125
 10
5070.078125
 20
-3542.109375
 10
5070.078125
 20
-3532.1875
 10
5070.078125
 20
-3522.265625
 10
5070.078125
 20
-3512.34375
 10
5070.078125
 20
-3502.421875
 10
5070.078125
 20
-3492.5
 10
5070.078125
 20
-3482.578125
 10
5070.078125
 20
-3472.65625
 10
5070.078125
 20
-3462.734375
 10
5070.078125
 20
-3452.8125
 10
5070.078125
 20
-3442.890625
 10
5070.078125
 20
-3432.96875
 10
5070.078125
 20
-3423.046875
 10
5070.078125
 20
-3413.125
 10
5070.078125
 20
-3403.203125
 10
5070.078125
 20
-3393.28125
 10
5070.078125
 20
-3383.359375
 10
5070.078125
 20
-3373.4375
 10
5070.078125
 20
-3363.515625
 10
5070.078125
 20
-3353.59375
 10
5070.078125
 20
-3343.671875
 10
5070.078125
 20
-3333.75
 10
5070.078125
 20
-3323.828125
 10
5070.078125
 20
-3313.90625
 10
5070.078125
 20
-3303.984375
 10
5070.078125
 20
-3294.0625
 10
5070.078125
 20
-3284.140625
 10
5070.078125
 20
-3274.21875
 10
5070.078125
 20
-3264.296875
 10
5070.078125
 20
-3254.375
 10
5070.078125
 20
-3244.453125
 10
5070.078125
 20
-3234.53125
 10
5070.078125
 20
-3224.609375
 10
5070.078125
 20
-3214.6875
 10
5070.078125
 20
-3204.765625
 10
5070.078125
 20
-3194.84375
 10
5070.078125
 20
-3184.921875
 10
5070.078125
 20
-3175.0
 10
5070.078125
 20
-3165.078125
 10
5070.078125
 20
-3155.15625
 10
5070.078125
 20
-3145.234375
 10
5070.078125
 20
-3135.3125
 10
5070.078125
 20
-3125.390625
 10
5070.078125
 20
-3115.46875
 10
5070.078125
 20
-3105.546875
 10
5070.078125
 20
-3095.625
 10
5070.078125
 20
-3085.703125
 10
5070.078125
 20
-3075.78125
 10
5070.078125
 20
-3065.859375
 10
5070.078125
 20
-3055.9375
 10
5070.078125
 20
-3046.015625
 10
5070.078125
 20
-3036.09375
 10
5070.078125
 20
-3026.171875
 10
5070.078125
 20
-3016.25
 10
5070.078125
 20
-3006.328125
 10
5070.078125
 20
-2996.40625
 10
5070.078125
 20
-2986.484375
 10
5070.078125
 20
-2976.5625
 10
5070.078125
 20
-2966.640625
 10
5070.078125
 20
-2956.71875
 10
5070.078125
 20
-2946.796875
 10
5070.078125
 20
-2936.875
 10
5070.078125
 20
-2926.953125
 10
5070.078125
 20
-2917.03125
 10
5070.078125
 20
-2907.109375
 10
5070.078125
 20
-2897.1875
 10
5070.078125
 20
-2887.265625
 10
5070.078125
 20
-2877.34375
 10
5070.078125
 20
-2867.421875
 10
5070.078125
 20
-2857.5
 10
5070.078125
 20
-2847.578125
 10
5070.078125
 20
-2837.65625
 10
5070.078125
 20
-2827.734375
 10
5070.078125
 20
-2817.8125
 10
5070.078125
 20
-2807.890625
 10
5070.078125
 20
-2797.96875
 10
5070.078125
 20
-2788.046875
 10
5070.078125
 20
-2778.125
 10
5070.078125
 20
-2768.203125
 10
5070.078125
 20
-2758.28125
 10
5070.078125
 20
-2748.359375
 10
5070.078125
 20
-2738.4375
 10
5070.078125
 20
-2728.515625
 10
5070.078125
 20
-2718.59375
 10
5070.078125
 20
-2708.671875
 10
5070.078125
 20
-2698.75
 10
5070.078125
 20
-2688.828125
 10
5070.078125
 20
-2678.90625
 10
5070.078125
 20
-2668.984375
 10
5070.078125
 20
-2659.0625
 10
5070.078125
 20
-2649.140625
 10
5070.078125
 20
-2639.21875
 10
5070.078125
 20
-2629.296875
 10
5070.078125
 20
-2619.375
 10
5070.078125
 20
-2609.453125
 10
5070.078125
 20
-2599.53125
 10
5070.078125
 20
-2589.609375
 10
5070.078125
 20
-2579.6875
 10
5070.078125
 20
-2569.765625
 10
5070.078125
 20
-2559.84375
 10
5070.078125
 20
-2549.921875
 10
5070.078125
 20
-2540.0
 10
5070.078125
 20
-2530.078125
 10
5070.078125
 20
-2520.15625
 10
5070.078125
 20
-2510.234375
 10
5070.078125
 20
-2500.3125
 10
5070.078125
 20
-2490.390625
 10
5070.078125
 20
-2480.46875
 10
5070.078125
 20
-2470.546875
 10
5070.078125
 20
-2460.625
 10
5070.078125
 20
-2450.703125
 10
5070.078125
 20
-2440.78125
 10
5070.078125
 20
-2430.859375
 10
5070.078125
 20
-2420.9375
 10
5070.078125
 20
-2411.015625
 10
5070.078125
 20
-2401.09375
 10
5070.078125
 20
-2391.171875
 10
5070.078125
 20
-2381.25
 10
5070.078125
 20
-2371.328125
 10
5070.078125
 20
-2361.40625
 10
5070.078125
 20
-2351.484375
 10
5070.078125
 20
-2341.5625
 10
5070.078125
 20
-2331.640625
 10
5070.078125
 20
-2321.71875
 10
5070.078125
 20
-2311.796875
 10
5070.078125
 20
-2301.875
 10
5070.078125
 20
-2291.953125
 10
5070.078125
 20
-2282.03125
 10
5070.078125
 20
-2272.109375
 10
5070.078125
 20
-2262.1875
 10
5070.078125
 20
-2252.265625
 10
5070.078125
 20
-2242.34375
 10
5070.078125
 20
-2232.421875
 10
5070.078125
 20
-2222.5
 10
5070.078125
 20
-2212.578125
 10
5070.078125
 20
-2202.65625
 10
5070.078125
 20
-2192.734375
 10
5070.078125
 20
-2182.8125
 10
5070.078125
 20
-2172.890625
 10
5070.078125
 20
-2162.96875
 10
5070.078125
 20
-2153.046875
 10
5070.078125
 20
-2143.125
 10
5070.078125
 20
-2133.203125
 10
5070.078125
 20
-2123.28125
 10
5070.078125
 20
-2113.359375
 10
5070.078125
 20
-2103.4375
 10
5070.078125
 20
-2093.515625
 10
5070.078125
 20
-2083.59375
 10
5070.078125
 20
-2073.671875
 10
5070.078125
 20
-2063.75
 10
5070.078125
 20
-2053.828125
 10
5070.078125
 20
-2043.90625
 10
5070.078125
 20
-2033.984375
 10
5070.078125
 20
-2024.0625
 10
5070.078125
 20
-2014.140625
 10
5070.078125
 20
-2004.21875
 10
5070.078125
 20
-1994.296875
 10
5070.078125
 20
-1984.375
 10
5070.078125
 20
-1974.453125
 10
5070.078125
 20
-1964.53125
 10
5070.078125
 20
-1954.609375
 10
5070.078125
 20
-1944.6875
 10
5070.078125
 20
-1934.765625
 10
5070.078125
 20
-1924.84375
 10
5070.078125
 20
-1914.921875
 10
5070.078125
 20
-1905.0
 10
5070.078125
 20
-1895.078125
 10
5070.078125
 20
-1885.15625
 10
5070.078125
 20
-1875.234375
 10
5070.078125
 20
-1865.3125
 10
5070.078125
 20
-1855.390625
 10
5070.078125
 20
-1845.46875
 10
5070.078125
 20
-1835.546875
 10
5070.078125
 20
-1825.625
 10
5070.078125
 20
-1815.703125
 10
5070.078125
 20
-1805.78125
 10
5070.078125
 20
-1795.859375
 10
5070.078125
 20
-1785.9375
 10
5070.078125
 20
-1776.015625
 10
5070.078125
 20
-1766.09375
 10
5070.078125
 20
-1756.171875
 10
5070.078125
 20
-1746.25
 10
5070.078125
 20
-1736.328125
 10
5070.078125
 20
-1726.40625
 10
5070.078125
 20
-1716.484375
 10
5070.078125
 20
-1706.5625
 10
5070.078125
 20
-1696.640625
 10
5070.078125
 20
-1686.71875
 10
5070.078125
 20
-1676.796875
 10
5070.078125
 20
-1666.875
 10
5070.078125
 20
-1656.953125
 10
5070.078125
 20
-1647.03125
 10
5070.078125
 20
-1637.109375
 10
5070.078125
 20
-1627.1875
 10
5070.078125
 20
-1617.265625
 10
5070.078125
 20
-1607.34375
 10
5070.078125
 20
-1597.421875
 10
5070.078125
 20
-1587.5
 10
5070.078125
 20
-1577.578125
 10
5070.078125
 20
-1567.65625
 10
5070.078125
 20
-1557.734375
 10
5070.078125
 20
-1547.8125
 10
5070.078125
 20
-1537.890625
 10
5070.078125
 20
-1527.96875
 10
5070.078125
 20
-1518.046875
 10
5070.078125
 20
-1508.125
 10
5070.078125
 20
-1498.203125
 10
5070.078125
 20
-1488.28125
 10
5070.078125
 20
-1478.359375
 10
5070.078125
 20
-1468.4375
 10
5070.078125
 20
-1458.515625
 10
5070.078125
 20
-1448.59375
 10
5070.078125
 20
-1438.671875
 10
5070.078125
 20
-1428.75
 10
5070.078125
 20
-1418.828125
 10
5070.078125
 20
-1408.90625
 10
5070.078125
 20
-1398.984375
 10
5070.078125
 20
-1389.0625
 10
5070.078125
 20
-1379.140625
 10
5070.078125
 20
-1369.21875
 10
5070.078125
 20
-1359.296875
 10
5070.078125
 20
-1349.375
 10
5070.078125
 20
-1339.453125
 10
5070.078125
 20
-1329.53125
 10
5070.078125
 20
-1319.609375
 10
5070.078125
 20
-1309.6875
 10
5070.078125
 20
-1299.765625
 10
5070.078125
 20
-1289.84375
 10
5070.078125
 20
-1279.921875
 10
5070.078125
 20
-1270.0
 10
5070.078125
 20
-1260.078125
 10
5070.078125
 20
-1250.15625
 10
5070.078125
 20
-1240.234375
 10
5070.078125
 20
-1230.3125
 10
5070.078125
 20
-1220.390625
 10
5070.078125
 20
-1210.46875
 10
5070.078125
 20
-1200.546875
 10
5070.078125
 20
-1190.625
 10
5070.078125
 20
-1180.703125
 10
5070.078125
 20
-1170.78125
 10
5070.078125
 20
-1160.859375
 10
5070.078125
 20
-1150.9375
 10
5070.078125
 20
-1141.015625
 10
5070.078125
 20
-1131.09375
 10
5070.078125
 20
-1121.171875
 10
5070.078125
 20
-1111.25
 10
5070.078125
 20
-1101.328125
 10
5070.078125
 20
-1091.40625
 10
5070.078125
 20
-1081.484375
 10
5070.078125
 20
-1071.5625
 10
5070.078125
 20
-1061.640625
 10
5070.078125
 20
-1051.71875
 10
5070.078125
 20
-1041.796875
 10
5070.078125
 20
-1031.875
 10
5070.078125
 20
-1021.953125
 10
5070.078125
 20
-1012.03125
 10
5070.078125
 20
-1002.109375
 10
5070.078125
 20
-992.1875
 10
5070.078125
 20
-982.265625
 10
5070.078125
 20
-972.34375
 10
5070.078125
 20
-962.421875
 10
5070.078125
 20
-952.5
 10
5070.078125
 20
-942.578125
 10
5070.078125
 20
-932.65625
 10
5070.078125
 20
-922.734375
 10
5070.078125
 20
-912.8125
 10
5070.078125
 20
-902.890625
 10
5070.078125
 20
-892.96875
 10
5070.078125
 20
-883.046875
 10
5070.078125
 20
-873.125
 10
5070.078125
 20
-863.203125
 10
5070.078125
 20
-853.28125
 10
5070.078125
 20
-843.359375
 10
5070.078125
 20
-833.4375
 10
5070.078125
 20
-823.515625
 10
5070.078125
 20
-813.59375
 10
5070.078125
 20
-803.671875
 10
5070.078125
 20
-793.75
 10
5070.078125
 20
-783.828125
 10
5070.078125
 20
-773.90625
 10
5070.078125
 20
-763.984375
 10
5070.078125
 20
-754.0625
 10
5070.078125
 20
-744.140625
 10
5070.078125
 20
-734.21875
 10
5070.078125
 20
-724.296875
 10
5070.078125
 20
-714.375
 10
5070.078125
 20
-704.453125
 10
5070.078125
 20
-694.53125
 10
5070.078125
 20
-684.609375
 10
5070.078125
 20
-674.6875
 10
5070.078125
 20
-664.765625
 10
5070.078125
 20
-654.84375
 10
5070.078125
 20
-644.921875
 10
5070.078125
 20
-635.0
 10
5070.078125
 20
-625.078125
 10
5070.078125
 20
-615.15625
 10
5070.078125
 20
-605.234375
 10
5070.078125
 20
-595.3125
 10
5070.078125
 20
-585.390625
 10
5070.078125
 20
-575.46875
 10
5070.078125
 20
-565.546875
 10
5070.078125
 20
-555.625
 10
5070.078125
 20
-545.703125
 10
5070.078125
 20
-535.78125
 10
5070.078125
 20
-525.859375
 10
5070.078125
 20
-515.9375
 10
5070.078125
 20
-506.015625
 10
5070.078125
 20
-496.09375
 10
5070.078125
 20
-486.171875
 10
5070.078125
 20
-476.25
 10
5070.078125
 20
-466.328125
 10
5070.078125
 20
-456.40625
 10
5070.078125
 20
-446.484375
 10
5070.078125
 20
-436.5625
 10
5070.078125
 20
-426.640625
 10
5070.078125
 20
-416.71875
 10
5070.078125
 20
-406.796875
 10
5070.078125
 20
-396.875
 10
5070.078125
 20
-386.953125
 10
5070.078125
 20
-377.03125
 10
5070.078125
 20
-367.109375
 10
5070.078125
 20
-357.1875
 10
5070.078125
 20
-347.265625
 10
5070.078125
 20
-337.34375
 10
5070.078125
 20
-327.421875
 10
5070.078125
 20
-317.5
 10
5070.078125
 20
-307.578125
 10
5070.078125
 20
-297.65625
 10
5070.078125
 20
-287.734375
 10
5070.078125
 20
-277.8125
 10
5070.078125
 20
-267.890625
 10
5070.078125
 20
-257.96875
 10
5070.078125
 20
-248.046875
 10
5070.078125
 20
-238.125
 10
5070.078125
 20
-228.203125
 10
5070.078125
 20
-218.28125
 10
5070.078125
 20
-208.359375
 10
5070.078125
 20
-198.4375
 10
5070.078125
 20
-188.515625
 10
5070.078125
 20
-178.59375
 10
5070.078125
 20
-168.671875
 10
5070.078125
 20
-158.75
 10
5070.078125
 20
-148.828125
 10
5070.078125
 20
-138.90625
 10
5070.078125
 20
-128.984375
 10
5070.078125
 20
-119.0625
 10
5070.078125
 20
-109.140625
 10
5070.078125
 20
-99.21875
 10
5070.078125
 20
-89.296875
 10
5070.078125
 20
-79.375
 10
5070.078125
 20
-69.453125
 10
5070.078125
 20
-59.53125
 10
5070.078125
 20
-49.609375
 10
5070.078125
 20
-39.6875
 10
5070.078125
 20
-29.765625
 10
5070.078125
 20
-19.84375
 10
5070.078125
 20
-9.921875
 10
5070.078125
 20
-0.0
 10
5060.15625
 20
-0.0
 10
5050.234375
 20
-0.0
 10
5040.3125
 20
-0.0
 10
5030.390625
 20
-0.0
 10
5020.46875
 20
-0.0
 10
5010.546875
 20
-0.0
 10
5000.625
 20
-0.0
 10
4990.703125
 20
-0.0
 10
4980.78125
 20
-0.0
 10
4970.859375
 20
-0.0
 10
4960.9375
 20
-0.0
 10
4951.015625
 20
-0.0
 10
4941.09375
 20
-0.0
 10
4931.171875
 20
-0.0
 10
4921.25
 20
-0.0
 10
4911.328125
 20
-0.0
 10
4901.40625
 20
-0.0
 10
4891.484375
 20
-0.0
 10
4881.5625
 20
-0.0
 10
4871.640625
 20
-0.0
 10
4861.71875
 20
-0.0
 10
4851.796875
 20
-0.0
 10
4841.875
 20
-0.0
 10
4831.953125
 20
-0.0
 10
4822.03125
 20
-0.0
 10
4812.109375
 20
-0.0
 10
4802.1875
 20
-0.0
 10
4792.265625
 20
-0.0
 10
4782.34375
 20
-0.0
 10
4772.421875
 20
-0.0
 10
4762.5
 20
-0.0
 10
4752.578125
 20
-0.0
 10
4742.65625
 20
-0.0
 10
4732.734375
 20
-0.0
 10
4722.8125
 20
-0.0
 10
4712.890625
 20
-0.0
 10
4702.96875
 20
-0.0
 10
4693.046875
 20
-0.0
 10
4683.125
 20
-0.0
 10
4673.203125
 20
-0.0
 10
4663.28125
 20
-0.0
 10
4653.359375
 20
-0.0
 10
4643.4375
 20
-0.0
 10
4633.515625
 20
-0.0
 10
4623.59375
 20
-0.0
 10
4613.671875
 20
-0.0
 10
4603.75
 20
-0.0
 10
4593.828125
 20
-0.0
 10
4583.90625
 20
-0.0
 10
4573.984375
 20
-0.0
 10
4564.0625
 20
-0.0
 10
4554.140625
 20
-0.0
 10
4544.21875
 20
-0.0
 10
4534.296875
 20
-0.0
 10
4524.375
 20
-0.0
 10
4514.453125
 20
-0.0
 10
4504.53125
 20
-0.0
 10
4494.609375
 20
-0.0
 10
4484.6875
 20
-0.0
 10
4474.765625
 20
-0.0
 10
4464.84375
 20
-0.0
 10
4454.921875
 20
-0.0
 10
4445.0
 20
-0.0
 10
4435.078125
 20
-0.0
 10
4425.15625
 20
-0.0
 10
4415.234375
 20
-0.0
 10
4405.3125
 20
-0.0
 10
4395.390625
 20
-0.0
 10
4385.46875
 20
-0.0
 10
4375.546875
 20
-0.0
 10
4365.625
 20
-0.0
 10
4355.703125
 20
-0.0
 10
4345.78125
 20
-0.0
 10
4335.859375
 20
-0.0
 10
4325.9375
 20
-0.0
 10
4316.015625
 20
-0.0
 10
4306.09375
 20
-0.0
 10
4296.171875
 20
-0.0
 10
4286.25
 20
-0.0
 10
4276.328125
 20
-0.0
 10
4266.40625
 20
-0.0
 10
4256.484375
 20
-0.0
 10
4246.5625
 20
-0.0
 10
4236.640625
 20
-0.0
 10
4226.71875
 20
-0.0
 10
4216.796875
 20
-0.0
 10
4206.875
 20
-0.0
 10
4196.953125
 20
-0.0
 10
4187.03125
 20
-0.0
 10
4177.109375
 20
-0.0
 10
4167.1875
 20
-0.0
 10
4157.265625
 20
-0.0
 10
4147.34375
 20
-0.0
 10
4137.421875
 20
-0.0
 10
4127.5
 20
-0.0
 10
4117.578125
 20
-0.0
 10
4107.65625
 20
-0.0
 10
4097.734375
 20
-0.0
 10
4087.8125
 20
-0.0
 10
4077.890625
 20
-0.0
 10
4067.96875
 20
-0.0
 10
4058.046875
 20
-0.0
 10
4048.125
 20
-0.0
 10
4038.203125
 20
-0.0
 10
4028.28125
 20
-0.0
 10
4018.359375
 20
-0.0
 10
4008.4375
 20
-0.0
 10
3998.515625
 20
-0.0
 10
3988.59375
 20
-0.0
 10
3978.671875
 20
-0.0
 10
3968.75
 20
-0.0
 10
3958.828125
 20
-0.0
 10
3948.90625
 20
-0.0
 10
3938.984375
 20
-0.0
 10
3929.0625
 20
-0.0
 10
3919.140625
 20
-0.0
 10
3909.21875
 20
-0.0
 10
3899.296875
 20
-0.0
 10
3889.375
 20
-0.0
 10
3879.453125
 20
-0.0
 10
3869.53125
 20
-0.0
 10
3859.609375
 20
-0.0
 10
3849.6875
 20
-0.0
 10
3839.765625
 20
-0.0
 10
3829.84375
 20
-0.0
 10
3819.921875
 20
-0.0
 10
3810.0
 20
-0.0
 10
3800.078125
 20
-0.0
 10
3790.15625
 20
-0.0
 10
3780.234375
 20
-0.0
 10
3770.3125
 20
-0.0
 10
3760.390625
 20
-0.0
 10
3750.46875
 20
-0.0
 10
3740.546875
 20
-0.0
 10
3730.625
 20
-0.0
 10
3720.703125
 20
-0.0
 10
3710.78125
 20
-0.0
 10
3700.859375
 20
-0.0
 10
3690.9375
 20
-0.0
 10
3681.015625
 20
-0.0
 10
3671.09375
 20
-0.0
 10
3661.171875
 20
-0.0
 10
3651.25
 20
-0.0
 10
3641.328125
 20
-0.0
 10
3631.40625
 20
-0.0
 10
3621.484375
 20
-0.0
 10
3611.5625
 20
-0.0
 10
3601.640625
 20
-0.0
 10
3591.71875
 20
-0.0
 10
3581.796875
 20
-0.0
 10
3571.875
 20
-0.0
 10
3561.953125
 20
-0.0
 10
3552.03125
 20
-0.0
 10
3542.109375
 20
-0.0
 10
3532.1875
 20
-0.0
 10
3522.265625
 20
-0.0
 10
3512.34375
 20
-0.0
 10
3502.421875
 20
-0.0
 10
3492.5
 20
-0.0
 10
3482.578125
 20
-0.0
 10
3472.65625
 20
-0.0
 10
3462.734375
 20
-0.0
 10
3452.8125
 20
-0.0
 10
3442.890625
 20
-0.0
 10
3432.96875
 20
-0.0
 10
3423.046875
 20
-0.0
 10
3413.125
 20
-0.0
 10
3403.203125
 20
-0.0
 10
3393.28125
 20
-0.0
 10
3383.359375
 20
-0.0
 10
3373.4375
 20
-0.0
 10
3363.515625
 20
-0.0
 10
3353.59375
 20
-0.0
 10
3343.671875
 20
-0.0
 10
3333.75
 20
-0.0
 10
3323.828125
 20
-0.0
 10
3313.90625
 20
-0.0
 10
3303.984375
 20
-0.0
 10
3294.0625
 20
-0.0
 10
3284.140625
 20
-0.0
 10
3274.21875
 20
-0.0
 10
3264.296875
 20
-0.0
 10
3254.375
 20
-0.0
 10
3244.453125
 20
-0.0
 10
3234.53125
 20
-0.0
 10
3224.609375
 20
-0.0
 10
3214.6875
 20
-0.0
 10
3204.765625
 20
-0.0
 10
3194.84375
 20
-0.0
 10
3184.921875
 20
-0.0
 10
3175.0
 20
-0.0
 10
3165.078125
 20
-0.0
 10
3155.15625
 20
-0.0
 10
3145.234375
 20
-0.0
 10
3135.3125
 20
-0.0
 10
3125.390625
 20
-0.0
 10
3115.46875
 20
-0.0
 10
3105.546875
 20
-0.0
 10
3095.625
 20
-0.0
 10
3085.703125
 20
-0.0
 10
3075.78125
 20
-0.0
 10
3065.859375
 20
-0.0
 10
3055.9375
 20
-0.0
 10
3046.015625
 20
-0.0
 10
3036.09375
 20
-0.0
 10
3026.171875
 20
-0.0
 10
3016.25
 20
-0.0
 10
3006.328125
 20
-0.0
 10
2996.40625
 20
-0.0
 10
2986.484375
 20
-0.0
 10
2976.5625
 20
-0.0
 10
2966.640625
 20
-0.0
 10
2956.71875
 20
-0.0
 10
2946.796875
 20
-0.0
 10
2936.875
 20
-0.0
 10
2926.953125
 20
-0.0
 10
2917.03125
 20
-0.0
 10
2907.109375
 20
-0.0
 10
2897.1875
 20
-0.0
 10
2887.265625
 20
-0.0
 10
2877.34375
 20
-0.0
 10
2867.421875
 20
-0.0
 10
2857.5
 20
-0.0
 10
2847.578125
 20
-0.0
 10
2837.65625
 20
-0.0
 10
2827.734375
 20
-0.0
 10
2817.8125
 20
-0.0
 10
2807.890625
 20
-0.0
 10
2797.96875
 20
-0.0
 10
2788.046875
 20
-0.0
 10
2778.125
 20
-0.0
 10
2768.203125
 20
-0.0
 10
2758.28125
 20
-0.0
 10
2748.359375
 20
-0.0
 10
2738.4375
 20
-0.0
 10
2728.515625
 20
-0.0
 10
2718.59375
 20
-0.0
 10
2708.671875
 20
-0.0
 10
2698.75
 20
-0.0
 10
2688.828125
 20
-0.0
 10
2678.90625
 20
-0.0
 10
2668.984375
 20
-0.0
 10
2659.0625
 20
-0.0
 10
2649.140625
 20
-0.0
 10
2639.21875
 20
-0.0
 10
2629.296875
 20
-0.0
 10
2619.375
 20
-0.0
 10
2609.453125
 20
-0.0
 10
2599.53125
 20
-0.0
 10
2589.609375
 20
-0.0
 10
2579.6875
 20
-0.0
 10
2569.765625
 20
-0.0
 10
2559.84375
 20
-0.0
 10
2549.921875
 20
-0.0
 10
2540.0
 20
-0.0
 10
2530.078125
 20
-0.0
 10
2520.15625
 20
-0.0
 10
2510.234375
 20
-0.0
 10
2500.3125
 20
-0.0
 10
2490.390625
 20
-0.0
 10
2480.46875
 20
-0.0
 10
2470.546875
 20
-0.0
 10
2460.625
 20
-0.0
 10
2450.703125
 20
-0.0
 10
2440.78125
 20
-0.0
 10
2430.859375
 20
-0.0
 10
2420.9375
 20
-0.0
 10
2411.015625
 20
-0.0
 10
2401.09375
 20
-0.0
 10
2391.171875
 20
-0.0
 10
2381.25
 20
-0.0
 10
2371.328125
 20
-0.0
 10
2361.40625
 20
-0.0
 10
2351.484375
 20
-0.0
 10
2341.5625
 20
-0.0
 10
2331.640625
 20
-0.0
 10
2321.71875
 20
-0.0
 10
2311.796875
 20
-0.0
 10
2301.875
 20
-0.0
 10
2291.953125
 20
-0.0
 10
2282.03125
 20
-0.0
 10
2272.109375
 20
-0.0
 10
2262.1875
 20
-0.0
 10
2252.265625
 20
-0.0
 10
2242.34375
 20
-0.0
 10
2232.421875
 20
-0.0
 10
2222.5
 20
-0.0
 10
2212.578125
 20
-0.0
 10
2202.65625
 20
-0.0
 10
2192.734375
 20
-0.0
 10
2182.8125
 20
-0.0
 10
2172.890625
 20
-0.0
 10
2162.96875
 20
-0.0
 10
2153.046875
 20
-0.0
 10
2143.125
 20
-0.0
 10
2133.203125
 20
-0.0
 10
2123.28125
 20
-0.0
 10
2113.359375
 20
-0.0
 10
2103.4375
 20
-0.0
 10
2093.515625
 20
-0.0
 10
2083.59375
 20
-0.0
 10
2073.671875
 20
-0.0
 10
2063.75
 20
-0.0
 10
2053.828125
 20
-0.0
 10
2043.90625
 20
-0.0
 10
2033.984375
 20
-0.0
 10
2024.0625
 20
-0.0
 10
2014.140625
 20
-0.0
 10
2004.21875
 20
-0.0
 10
1994.296875
 20
-0.0
 10
1984.375
 20
-0.0
 10
1974.453125
 20
-0.0
 10
1964.53125
 20
-0.0
 10
1954.609375
 20
-0.0
 10
1944.6875
 20
-0.0
 10
1934.765625
 20
-0.0
 10
1924.84375
 20
-0.0
 10
1914.921875
 20
-0.0
 10
1905.0
 20
-0.0
 10
1895.078125
 20
-0.0
 10
1885.15625
 20
-0.0
 10
1875.234375
 20
-0.0
 10
1865.3125
 20
-0.0
 10
1855.390625
 20
-0.0
 10
1845.46875
 20
-0.0
 10
1835.546875
 20
-0.0
 10
1825.625
 20
-0.0
 10
1815.703125
 20
-0.0
 10
1805.78125
 20
-0.0
 10
1795.859375
 20
-0.0
 10
1785.9375
 20
-0.0
 10
1776.015625
 20
-0.0
 10
1766.09375
 20
-0.0
 10
1756.171875
 20
-0.0
 10
1746.25
 20
-0.0
 10
1736.328125
 20
-0.0
 10
1726.40625
 20
-0.0
 10
1716.484375
 20
-0.0
 10
1706.5625
 20
-0.0
 10
1696.640625
 20
-0.0
 10
1686.71875
 20
-0.0
 10
1676.796875
 20
-0.0
 10
1666.875
 20
-0.0
 10
1656.953125
 20
-0.0
 10
1647.03125
 20
-0.0
 10
1637.109375
 20
-0.0
 10
1627.1875
 20
-0.0
 10
1617.265625
 20
-0.0
 10
1607.34375
 20
-0.0
 10
1597.421875
 20
-0.0
 10
1587.5
 20
-0.0
 10
1577.578125
 20
-0.0
 10
1567.65625
 20
-0.0
 10
1557.734375
 20
-0.0
 10
1547.8125
 20
-0.0
 10
1537.890625
 20
-0.0
 10
1527.96875
 20
-0.0
 10
1518.046875
 20
-0.0
 10
1508.125
 20
-0.0
 10
1498.203125
 20
-0.0
 10
1488.28125
 20
-0.0
 10
1478.359375
 20
-0.0
 10
1468.4375
 20
-0.0
 10
1458.515625
 20
-0.0
 10
1448.59375
 20
-0.0
 10
1438.671875
 20
-0.0
 10
1428.75
 20
-0.0
 10
1418.828125
 20
-0.0
 10
1408.90625
 20
-0.0
 10
1398.984375
 20
-0.0
 10
1389.0625
 20
-0.0
 10
1379.140625
 20
-0.0
 10
1369.21875
 20
-0.0
 10
1359.296875
 20
-0.0
 10
1349.375
 20
-0.0
 10
1339.453125
 20
-0.0
 10
1329.53125
 20
-0.0
 10
1319.609375
 20
-0.0
 10
1309.6875
 20
-0.0
 10
1299.765625
 20
-0.0
 10
1289.84375
 20
-0.0
 10
1279.921875
 20
-0.0
 10
1270.0
 20
-0.0
 10
1260.078125
 20
-0.0
 10
1250.15625
 20
-0.0
 10
1240.234375
 20
-0.0
 10
1230.3125
 20
-0.0
 10
1220.390625
 20
-0.0
 10
1210.46875
 20
-0.0
 10
1200.546875
 20
-0.0
 10
1190.625
 20
-0.0
 10
1180.703125
 20
-0.0
 10
1170.78125
 20
-0.0
 10
1160.859375
 20
-0.0
 10
1150.9375
 20
-0.0
 10
1141.015625
 20
-0.0
 10
1131.09375
 20
-0.0
 10
1121.171875
 20
-0.0
 10
1111.25
 20
-0.0
 10
1101.328125
 20
-0.0
 10
1091.40625
 20
-0.0
 10
1081.484375
 20
-0.0
 10
1071.5625
 20
-0.0
 10
1061.640625
 20
-0.0
 10
1051.71875
 20
-0.0
 10
1041.796875
 20
-0.0
 10
1031.875
 20
-0.0
 10
1021.953125
 20
-0.0
 10
1012.03125
 20
-0.0
 10
1002.109375
 20
-0.0
 10
992.1875
 20
-0.0
 10
982.265625
 20
-0.0
 10
972.34375
 20
-0.0
 10
962.421875
 20
-0.0
 10
952.5
 20
-0.0
 10
942.578125
 20
-0.0
 10
932.65625
 20
-0.0
 10
922.734375
 20
-0.0
 10
912.8125
 20
-0.0
 10
902.890625
 20
-0.0
 10
892.96875
 20
-0.0
 10
883.046875
 20
-0.0
 10
873.125
 20
-0.0
 10
863.203125
 20
-0.0
 10
853.28125
 20
-0.0
 10
843.359375
 20
-0.0
 10
833.4375
 20
-0.0
 10
823.515625
 20
-0.0
 10
813.59375
 20
-0.0
 10
803.671875
 20
-0.0
 10
793.75
 20
-0.0
 10
783.828125
 20
-0.0
 10
773.90625
 20
-0.0
 10
763.984375
 20
-0.0
 10
754.0625
 20
-0.0
 10
744.140625
 20
-0.0
 10
734.21875
 20
-0.0
 10
724.296875
 20
-0.0
 10
714.375
 20
-0.0
 10
704.453125
 20
-0.0
 10
694.53125
 20
-0.0
 10
684.609375
 20
-0.0
 10
674.6875
 20
-0.0
 10
664.765625
 20
-0.0
 10
654.84375
 20
-0.0
 10
644.921875
 20
-0.0
 10
635.0
 20
-0.0
 10
625.078125
 20
-0.0
 10
615.15625
 20
-0.0
 10
605.234375
 20
-0.0
 10
595.3125
 20
-0.0
 10
585.390625
 20
-0.0
 10
575.46875
 20
-0.0
 10
565.546875
 20
-0.0
 10
555.625
 20
-0.0
 10
545.703125
 20
-0.0
 10
535.78125
 20
-0.0
 10
525.859375
 20
-0.0
 10
515.9375
 20
-0.0
 10
506.015625
 20
-0.0
 10
496.09375
 20
-0.0
 10
486.171875
 20
-0.0
 10
476.25
 20
-0.0
 10
466.328125
 20
-0.0
 10
456.40625
 20
-0.0
 10
446.484375
 20
-0.0
 10
436.5625
 20
-0.0
 10
426.640625
 20
-0.0
 10
416.71875
 20
-0.0
 10
406.796875
 20
-0.0
 10
396.875
 20
-0.0
 10
386.953125
 20
-0.0
 10
377.03125
 20
-0.0
 10
367.109375
 20
-0.0
 10
357.1875
 20
-0.0
 10
347.265625
 20
-0.0
 10
337.34375
 20
-0.0
 10
327.421875
 20
-0.0
 10
317.5
 20
-0.0
 10
307.578125
 20
-0.0
 10
297.65625
 20
-0.0
 10
287.734375
 20
-0.0
 10
277.8125
 20
-0.0
 10
267.890625
 20
-0.0
 10
257.96875
 20
-0.0
 10
248.046875
 20
-0.0
 10
238.125
 20
-0.0
 10
228.203125
 20
-0.0
 10
218.28125
 20
-0.0
 10
208.359375
 20
-0.0
 10
198.4375
 20
-0.0
 10
188.515625
 20
-0.0
 10
178.59375
 20
-0.0
 10
168.671875
 20
-0.0
 10
158.75
 20
-0.0
 10
148.828125
 20
-0.0
 10
138.90625
 20
-0.0
 10
128.984375
 20
-0.0
 10
119.0625
 20
-0.0
 10
109.140625
 20
-0.0
 10
99.21875
 20
-0.0
 10
89.296875
 20
-0.0
 10
79.375
 20
-0.0
 10
69.453125
 20
-0.0
 10
59.53125
 20
-0.0
 10
49.609375
 20
-0.0
 10
39.6875
 20
-0.0
 10
29.765625
 20
-0.0
 10
19.84375
 20
-0.0
 10
9.921875
 20
-0.0
  0
LWPOLYLINE
  5
3E
330
17
100
AcDbEntity
  8
substrate
100
AcDbPolyline
 90
4
 70
1
 43
0.5
 10
783.828125
 20
-3978.671875
 10
793.75
 20
-3968.75
 10
803.671875
 20
-3978.671875
 10
793.75
 20
-3988.59375
  0
LWPOLYLINE
  5
3F
330
17
100
AcDbEntity
  8
substrate
100
AcDbPolyline
 90
1428
 70
1
 43
0.5
 10
1924.84375
 20
-783.828125
 10
1934.765625
 20
-773.90625
 10
1944.6875
 20
-773.90625
 10
1954.609375
 20
-773.90625
 10
1964.53125
 20
-773.90625
 10
1974.453125
 20
-773.90625
 10
1984.375
 20
-773.90625
 10
1994.296875
 20
-773.90625
 10
2004.21875
 20
-773.90625
 10
2014.140625
 20
-773.90625
 10
2024.0625
 20
-773.90625
 10
2033.984375
 20
-773.90625
 10
2043.90625
 20
-773.90625
 10
2053.828125
 20
-773.90625
 10
2063.75
 20
-773.90625
 10
2073.671875
 20
-773.90625
 10
2083.59375
 20
-773.90625
 10
2093.515625
 20
-773.90625
 10
2103.4375
 20
-773.90625
 10
2113.359375
 20
-773.90625
 10
2123.28125
 20
-773.90625
 10
2133.203125
 20
-773.90625
 10
2143.125
 20
-773.90625
 10
2153.046875
 20
-773.90625
 10
2162.96875
 20
-773.90625
 10
2172.890625
 20
-773.90625
 10
2182.8125
 20
-773.90625
 10
2192.734375
 20
-773.90625
 10
2202.65625
 20
-773.90625
 10
2212.578125
 20
-773.90625
 10
2222.5
 20
-773.90625
 10
2232.421875
 20
-773.90625
 10
2242.34375
 20
-773.90625
 10
2252.265625
 20
-773.90625
 10
2262.1875
 20
-773.90625
 10
2272.109375
 20
-773.90625
 10
2282.03125
 20
-773.90625
 10
2291.953125
 20
-773.90625
 10
2301.875
 20
-773.90625
 10
2311.796875
 20
-773.90625
 10
2321.71875
 20
-773.90625
 10
2331.640625
 20
-773.90625
 10
2341.5625
 20
-773.90625
 10
2351.484375
 20
-773.90625
 10
2361.40625
 20
-773.90625
 10
2371.328125
 20
-773.90625
 10
2381.25
 20
-783.828125
 10
2391.171875
 20
-773.90625
 10
2401.09375
 20
-773.90625
 10
2411.015625
 20
-773.90625
 10
2420.9375
 20
-773.90625
 10
2430.859375
 20
-773.90625
 10
2440.78125
 20
-773.90625
 10
2450.703125
 20
-773.90625
 10
2460.625
 20
-773.90625
 10
2470.546875
 20
-773.90625
 10
2480.46875
 20
-773.90625
 10
2490.390625
 20
-773.90625
 10
2500.3125
 20
-773.90625
 10
2510.234375
 20
-773.90625
 10
2520.15625
 20
-773.90625
 10
2530.078125
 20
-773.90625
 10
2540.0
 20
-773.90625
 10
2549.921875
 20
-773.90625
 10
2559.84375
 20
-773.90625
 10
2569.765625
 20
-773.90625
 10
2579.6875
 20
-773.90625
 10
2589.609375
 20
-773.90625
 10
2599.53125
 20
-773.90625
 10
2609.453125
 20
-773.90625
 10
2619.375
 20
-773.90625
 10
2629.296875
 20
-773.90625
 10
2639.21875
 20
-773.90625
 10
2649.140625
 20
-773.90625
 10
2659.0625
 20
-773.90625
 10
2668.984375
 20
-773.90625
 10
2678.90625
 20
-773.90625
 10
2688.828125
 20
-773.90625
 10
2698.75
 20
-773.90625
 10
2708.671875
 20
-773.90625
 10
2718.59375
 20
-773.90625
 10
2728.515625
 20
-773.90625
 10
2738.4375
 20
-773.90625
 10
2748.359375
 20
-773.90625
 10
2758.28125
 20
-773.90625
 10
2768.203125
 20
-773.90625
 10
2778.125
 20
-773.90625
 10
2788.046875
 20
-773.90625
 10
2797.96875
 20
-773.90625
 10
2807.890625
 20
-773.90625
 10
2817.8125
 20
-773.90625
 10
2827.734375
 20
-773.90625
 10
2837.65625
 20
-773.90625
 10
2847.578125
 20
-773.90625
 10
2857.5
 20
-773.90625
 10
2867.421875
 20
-773.90625
 10
2877.34375
 20
-773.90625
 10
2887.265625
 20
-773.90625
 10
2897.1875
 20
-773.90625
 10
2907.109375
 20
-773.90625
 10
2917.03125
 20
-773.90625
 10
2926.953125
 20
-773.90625
 10
2936.875
 20
-773.90625
 10
2946.796875
 20
-773.90625
 10
2956.71875
 20
-773.90625
 10
2966.640625
 20
-773.90625
 10
2976.5625
 20
-773.90625
 10
2986.484375
 20
-773.90625
 10
2996.40625
 20
-773.90625
 10
3006.328125
 20
-773.90625
 10
3016.25
 20
-773.90625
 10
3026.171875
 20
-773.90625
 10
3036.09375
 20
-773.90625
 10
3046.015625
 20
-773.90625
 10
3055.9375
 20
-773.90625
 10
3065.859375
 20
-783.828125
 10
3075.78125
 20
-783.828125
 10
3085.703125
 20
-783.828125
 10
3095.625
 20
-783.828125
 10
3105.546875
 20
-773.90625
 10
3115.46875
 20
-783.828125
 10
3125.390625
 20
-773.90625
 10
3135.3125
 20
-783.828125
 10
3145.234375
 20
-793.75
 10
3155.15625
 20
-803.671875
 10
3155.15625
 20
-813.59375
 10
3165.078125
 20
-823.515625
 10
3165.078125
 20
-833.4375
 10
3155.15625
 20
-843.359375
 10
3165.078125
 20
-853.28125
 10
3155.15625
 20
-863.203125
 10
3155.15625
 20
-873.125
 10
3155.15625
 20
-883.046875
 10
3165.078125
 20
-892.96875
 10
3165.078125
 20
-902.890625
 10
3165.078125
 20
-912.8125
 10
3165.078125
 20
-922.734375
 10
3155.15625
 20
-932.65625
 10
3155.15625
 20
-942.578125
 10
3165.078125
 20
-952.5
 10
3155.15625
 20
-962.421875
 10
3165.078125
 20
-972.34375
 10
3165.078125
 20
-982.265625
 10
3165.078125
 20
-992.1875
 10
3165.078125
 20
-1002.109375
 10
3155.15625
 20
-1012.03125
 10
3155.15625
 20
-1021.953125
 10
3165.078125
 20
-1031.875
 10
3165.078125
 20
-1041.796875
 10
3165.078125
 20
-1051.71875
 10
3155.15625
 20
-1061.640625
 10
3155.15625
 20
-1071.5625
 10
3155.15625
 20
-1081.484375
 10
3155.15625
 20
-1091.40625
 10
3155.15625
 20
-1101.328125
 10
3155.15625
 20
-1111.25
 10
3155.15625
 20
-1121.171875
 10
3165.078125
 20
-1131.09375
 10
3165.078125
 20
-1141.015625
 10
3165.078125
 20
-1150.9375
 10
3165.078125
 20
-1160.859375
 10
3165.078125
 20
-1170.78125
 10
3155.15625
 20
-1180.703125
 10
3165.078125
 20
-1190.625
 10
3155.15625
 20
-1200.546875
 10
3155.15625
 20
-1210.46875
 10
3165.078125
 20
-1220.390625
 10
3155.15625
 20
-1230.3125
 10
3155.15625
 20
-1240.234375
 10
3155.15625
 20
-1250.15625
 10
3155.15625
 20
-1260.078125
 10
3155.15625
 20
-1270.0
 10
3155.15625
 20
-1279.921875
 10
3155.15625
 20
-1289.84375
 10
3155.15625
 20
-1299.765625
 10
3155.15625
 20
-1309.6875
 10
3155.15625
 20
-1319.609375
 10
3165.078125
 20
-1329.53125
 10
3155.15625
 20
-1339.453125
 10
3165.078125
 20
-1349.375
 10
3165.078125
 20
-1359.296875
 10
3165.078125
 20
-1369.21875
 10
3165.078125
 20
-1379.140625
 10
3165.078125
 20
-1389.0625
 10
3165.078125
 20
-1398.984375
 10
3155.15625
 20
-1408.90625
 10
3155.15625
 20
-1418.828125
 10
3155.15625
 20
-1428.75
 10
3155.15625
 20
-1438.671875
 10
3165.078125
 20
-1448.59375
 10
3155.15625
 20
-1458.515625
 10
3155.15625
 20
-1468.4375
 10
3155.15625
 20
-1478.359375
 10
3155.15625
 20
-1488.28125
 10
3155.15625
 20
-1498.203125
 10
3155.15625
 20
-1508.125
 10
3155.15625
 20
-1518.046875
 10
3165.078125
 20
-1527.96875
 10
3155.15625
 20
-1537.890625
 10
3165.078125
 20
-1547.8125
 10
3165.078125
 20
-1557.734375
 10
3165.078125
 20
-1567.65625
 10
3155.15625
 20
-1577.578125
 10
3165.078125
 20
-1587.5
 10
3165.078125
 20
-1597.421875
 10
3165.078125
 20
-1607.34375
 10
3155.15625
 20
-1617.265625
 10
3155.15625
 20
-1627.1875
 10
3155.15625
 20
-1637.109375
 10
3155.15625
 20
-1647.03125
 10
3155.15625
 20
-1656.953125
 10
3155.15625
 20
-1666.875
 10
3155.15625
 20
-1676.796875
 10
3155.15625
 20
-1686.71875
 10
3155.15625
 20
-1696.640625
 10
3155.15625
 20
-1706.5625
 10
3155.15625
 20
-1716.484375
 10
3155.15625
 20
-1726.40625
 10
3155.15625
 20
-1736.328125
 10
3155.15625
 20
-1746.25
 10
3155.15625
 20
-1756.171875
 10
3165.078125
 20
-1766.09375
 10
3155.15625
 20
-1776.015625
 10
3165.078125
 20
-1785.9375
 10
3165.078125
 20
-1795.859375
 10
3165.078125
 20
-1805.78125
 10
3155.15625
 20
-1815.703125
 10
3165.078125
 20
-1825.625
 10
3165.078125
 20
-1835.546875
 10
3165.078125
 20
-1845.46875
 10
3165.078125
 20
-1855.390625
 10
3165.078125
 20
-1865.3125
 10
3165.078125
 20
-1875.234375
 10
3165.078125
 20
-1885.15625
 10
3165.078125
 20
-1895.078125
 10
3165.078125
 20
-1905.0
 10
3165.078125
 20
-1914.921875
 10
3175.0
 20
-1914.921875
 10
3184.921875
 20
-1914.921875
 10
3194.84375
 20
-1914.921875
 10
3204.765625
 20
-1914.921875
 10
3214.6875
 20
-1914.921875
 10
3224.609375
 20
-1914.921875
 10
3234.53125
 20
-1914.921875
 10
3244.453125
 20
-1914.921875
 10
3254.375
 20
-1914.921875
 10
3264.296875
 20
-1914.921875
 10
3274.21875
 20
-1914.921875
 10
3284.140625
 20
-1914.921875
 10
3294.0625
 20
-1905.0
 10
3303.984375
 20
-1905.0
 10
3313.90625
 20
-1905.0
 10
3323.828125
 20
-1914.921875
 10
3333.75
 20
-1905.0
 10
3343.671875
 20
-1914.921875
 10
3353.59375
 20
-1914.921875
 10
3363.515625
 20
-1914.921875
 10
3373.4375
 20
-1914.921875
 10
3383.359375
 20
-1914.921875
 10
3393.28125
 20
-1914.921875
 10
3403.203125
 20
-1914.921875
 10
3413.125
 20
-1914.921875
 10
3423.046875
 20
-1914.921875
 10
3432.96875
 20
-1914.921875
 10
3442.890625
 20
-1914.921875
 10
3452.8125
 20
-1914.921875
 10
3462.734375
 20
-1914.921875
 10
3472.65625
 20
-1914.921875
 10
3482.578125
 20
-1914.921875
 10
3492.5
 20
-1914.921875
 10
3502.421875
 20
-1914.921875
 10
3512.34375
 20
-1914.921875
 10
3522.265625
 20
-1905.0
 10
3532.1875
 20
-1914.921875
 10
3542.109375
 20
-1914.921875
 10
3552.03125
 20
-1914.921875
 10
3561.953125
 20
-1914.921875
 10
3571.875
 20
-1914.921875
 10
3581.796875
 20
-1914.921875
 10
3591.71875
 20
-1914.921875
 10
3601.640625
 20
-1914.921875
 10
3611.5625
 20
-1914.921875
 10
3621.484375
 20
-1905.0
 10
3631.40625
 20
-1914.921875
 10
3641.328125
 20
-1905.0
 10
3651.25
 20
-1905.0
 10
3661.171875
 20
-1914.921875
 10
3671.09375
 20
-1914.921875
 10
3681.015625
 20
-1905.0
 10
3690.9375
 20
-1914.921875
 10
3700.859375
 20
-1914.921875
 10
3710.78125
 20
-1914.921875
 10
3720.703125
 20
-1914.921875
 10
3730.625
 20
-1914.921875
 10
3740.546875
 20
-1905.0
 10
3750.46875
 20
-1914.921875
 10
3760.390625
 20
-1914.921875
 10
3770.3125
 20
-1914.921875
 10
3780.234375
 20
-1914.921875
 10
3790.15625
 20
-1914.921875
 10
3800.078125
 20
-1914.921875
 10
3810.0
 20
-1914.921875
 10
3819.921875
 20
-1914.921875
 10
3829.84375
 20
-1914.921875
 10
3839.765625
 20
-1914.921875
 10
3849.6875
 20
-1914.921875
 10
3859.609375
 20
-1914.921875
 10
3869.53125
 20
-1914.921875
 10
3879.453125
 20
-1914.921875
 10
3889.375
 20
-1914.921875
 10
3899.296875
 20
-1914.921875
 10
3909.21875
 20
-1914.921875
 10
3919.140625
 20
-1914.921875
 10
3929.0625
 20
-1905.0
 10
3938.984375
 20
-1905.0
 10
3948.90625
 20
-1905.0
 10
3958.828125
 20
-1905.0
 10
3968.75
 20
-1905.0
 10
3978.671875
 20
-1914.921875
 10
3988.59375
 20
-1905.0
 10
3998.515625
 20
-1905.0
 10
4008.4375
 20
-1914.921875
 10
4018.359375
 20
-1914.921875
 10
4028.28125
 20
-1905.0
 10
4038.203125
 20
-1914.921875
 10
4048.125
 20
-1905.0
 10
4058.046875
 20
-1914.921875
 10
4067.96875
 20
-1914.921875
 10
4077.890625
 20
-1914.921875
 10
4087.8125
 20
-1914.921875
 10
4097.734375
 20
-1914.921875
 10
4107.65625
 20
-1914.921875
 10
4117.578125
 20
-1914.921875
 10
4127.5
 20
-1914.921875
 10
4137.421875
 20
-1914.921875
 10
4147.34375
 20
-1914.921875
 10
4157.265625
 20
-1914.921875
 10
4167.1875
 20
-1914.921875
 10
4177.109375
 20
-1914.921875
 10
4187.03125
 20
-1914.921875
 10
4196.953125
 20
-1914.921875
 10
4206.875
 20
-1914.921875
 10
4216.796875
 20
-1914.921875
 10
4226.71875
 20
-1914.921875
 10
4236.640625
 20
-1914.921875
 10
4246.5625
 20
-1914.921875
 10
4256.484375
 20
-1914.921875
 10
4266.40625
 20
-1914.921875
 10
4276.328125
 20
-1914.921875
 10
4286.25
 20
-1924.84375
 10
4296.171875
 20
-1934.765625
 10
4306.09375
 20
-1944.6875
 10
4296.171875
 20
-1954.609375
 10
4296.171875
 20
-1964.53125
 10
4296.171875
 20
-1974.453125
 10
4286.25
 20
-1984.375
 10
4286.25
 20
-1994.296875
 10
4286.25
 20
-2004.21875
 10
4296.171875
 20
-2014.140625
 10
4296.171875
 20
-2024.0625
 10
4296.171875
 20
-2033.984375
 10
4306.09375
 20
-2043.90625
 10
4306.09375
 20
-2053.828125
 10
4306.09375
 20
-2063.75
 10
4306.09375
 20
-2073.671875
 10
4306.09375
 20
-2083.59375
 10
4306.09375
 20
-2093.515625
 10
4306.09375
 20
-2103.4375
 10
4306.09375
 20
-2113.359375
 10
4306.09375
 20
-2123.28125
 10
4306.09375
 20
-2133.203125
 10
4306.09375
 20
-2143.125
 10
4306.09375
 20
-2153.046875
 10
4306.09375
 20
-2162.96875
 10
4306.09375
 20
-2172.890625
 10
4306.09375
 20
-2182.8125
 10
4306.09375
 20
-2192.734375
 10
4306.09375
 20
-2202.65625
 10
4306.09375
 20
-2212.578125
 10
4306.09375
 20
-2222.5
 10
4306.09375
 20
-2232.421875
 10
4306.09375
 20
-2242.34375
 10
4306.09375
 20
-2252.265625
 10
4316.015625
 20
-2262.1875
 10
4306.09375
 20
-2272.109375
 10
4316.015625
 20
-2282.03125
 10
4316.015625
 20
-2291.953125
 10
4316.015625
 20
-2301.875
 10
4316.015625
 20
-2311.796875
 10
4316.015625
 20
-2321.71875
 10
4316.015625
 20
-2331.640625
 10
4316.015625
 20
-2341.5625
 10
4316.015625
 20
-2351.484375
 10
4316.015625
 20
-2361.40625
 10
4316.015625
 20
-2371.328125
 10
4316.015625
 20
-2381.25
 10
4316.015625
 20
-2391.171875
 10
4316.015625
 20
-2401.09375
 10
4316.015625
 20
-2411.015625
 10
4316.015625
 20
-2420.9375
 10
4316.015625
 20
-2430.859375
 10
4316.015625
 20
-2440.78125
 10
4316.015625
 20
-2450.703125
 10
4316.015625
 20
-2460.625
 10
4316.015625
 20
-2470.546875
 10
4316.015625
 20
-2480.46875
 10
4316.015625
 20
-2490.390625
 10
4316.015625
 20
-2500.3125
 10
4316.015625
 20
-2510.234375
 10
4316.015625
 20
-2520.15625
 10
4316.015625
 20
-2530.078125
 10
4316.015625
 20
-2540.0
 10
4325.9375
 20
-2549.921875
 10
4325.9375
 20
-2559.84375
 10
4325.9375
 20
-2569.765625
 10
4325.9375
 20
-2579.6875
 10
4325.9375
 20
-2589.609375
 10
4325.9375
 20
-2599.53125
 10
4325.9375
 20
-2609.453125
 10
4325.9375
 20
-2619.375
 10
4325.9375
 20
-2629.296875
 10
4325.9375
 20
-2639.21875
 10
4325.9375
 20
-2649.140625
 10
4325.9375
 20
-2659.0625
 10
4325.9375
 20
-2668.984375
 10
4325.9375
 20
-2678.90625
 10
4325.9375
 20
-2688.828125
 10
4325.9375
 20
-2698.75
 10
4325.9375
 20
-2708.671875
 10
4325.9375
 20
-2718.59375
 10
4325.9375
 20
-2728.515625
 10
4325.9375
 20
-2738.4375
 10
4325.9375
 20
-2748.359375
 10
4325.9375
 20
-2758.28125
 10
4335.859375
 20
-2768.203125
 10
4335.859375
 20
-2778.125
 10
4325.9375
 20
-2788.046875
 10
4335.859375
 20
-2797.96875
 10
4335.859375
 20
-2807.890625
 10
4335.859375
 20
-2817.8125
 10
4335.859375
 20
-2827.734375
 10
4335.859375
 20
-2837.65625
 10
4335.859375
 20
-2847.578125
 10
4335.859375
 20
-2857.5
 10
4335.859375
 20
-2867.421875
 10
4335.859375
 20
-2877.34375
 10
4335.859375
 20
-2887.265625
 10
4335.859375
 20
-2897.1875
 10
4335.859375
 20
-2907.109375
 10
4335.859375
 20
-2917.03125
 10
4335.859375
 20
-2926.953125
 10
4335.859375
 20
-2936.875
 10
4335.859375
 20
-2946.796875
 10
4335.859375
 20
-2956.71875
 10
4335.859375
 20
-2966.640625
 10
4335.859375
 20
-2976.5625
 10
4335.859375
 20
-2986.484375
 10
4335.859375
 20
-2996.40625
 10
4335.859375
 20
-3006.328125
 10
4335.859375
 20
-3016.25
 10
4335.859375
 20
-3026.171875
 10
4345.78125
 20
-3036.09375
 10
4345.78125
 20
-3046.015625
 10
4345.78125
 20
-3055.9375
 10
4345.78125
 20
-3065.859375
 10
4345.78125
 20
-3075.78125
 10
4335.859375
 20
-3085.703125
 10
4335.859375
 20
-3095.625
 10
4345.78125
 20
-3105.546875
 10
4345.78125
 20
-3115.46875
 10
4345.78125
 20
-3125.390625
 10
4345.78125
 20
-3135.3125
 10
4345.78125
 20
-3145.234375
 10
4345.78125
 20
-3155.15625
 10
4335.859375
 20
-3165.078125
 10
4325.9375
 20
-3165.078125
 10
4316.015625
 20
-3165.078125
 10
4306.09375
 20
-3165.078125
 10
4296.171875
 20
-3165.078125
 10
4286.25
 20
-3165.078125
 10
4276.328125
 20
-3165.078125
 10
4266.40625
 20
-3165.078125
 10
4256.484375
 20
-3165.078125
 10
4246.5625
 20
-3165.078125
 10
4236.640625
 20
-3165.078125
 10
4226.71875
 20
-3165.078125
 10
4216.796875
 20
-3165.078125
 10
4206.875
 20
-3165.078125
 10
4196.953125
 20
-3165.078125
 10
4187.03125
 20
-3165.078125
 10
4177.109375
 20
-3165.078125
 10
4167.1875
 20
-3165.078125
 10
4157.265625
 20
-3165.078125
 10
4147.34375
 20
-3165.078125
 10
4137.421875
 20
-3165.078125
 10
4127.5
 20
-3165.078125
 10
4117.578125
 20
-3165.078125
 10
4107.65625
 20
-3165.078125
 10
4097.734375
 20
-3165.078125
 10
4087.8125
 20
-3165.078125
 10
4077.890625
 20
-3165.078125
 10
4067.96875
 20
-3165.078125
 10
4058.046875
 20
-3165.078125
 10
4048.125
 20
-3165.078125
 10
4038.203125
 20
-3165.078125
 10
4028.28125
 20
-3165.078125
 10
4018.359375
 20
-3165.078125
 10
4008.4375
 20
-3165.078125
 10
3998.515625
 20
-3165.078125
 10
3988.59375
 20
-3165.078125
 10
3978.671875
 20
-3165.078125
 10
3968.75
 20
-3165.078125
 10
3958.828125
 20
-3165.078125
 10
3948.90625
 20
-3165.078125
 10
3938.984375
 20
-3165.078125
 10
3929.0625
 20
-3165.078125
 10
3919.140625
 20
-3165.078125
 10
3909.21875
 20
-3165.078125
 10
3899.296875
 20
-3165.078125
 10
3889.375
 20
-3165.078125
 10
3879.453125
 20
-3165.078125
 10
3869.53125
 20
-3165.078125
 10
3859.609375
 20
-3165.078125
 10
3849.6875
 20
-3165.078125
 10
3839.765625
 20
-3165.078125
 10
3829.84375
 20
-3165.078125
 10
3819.921875
 20
-3165.078125
 10
3810.0
 20
-3165.078125
 10
3800.078125
 20
-3165.078125
 10
3790.15625
 20
-3165.078125
 10
3780.234375
 20
-3165.078125
 10
3770.3125
 20
-3165.078125
 10
3760.390625
 20
-3165.078125
 10
3750.46875
 20
-3165.078125
 10
3740.546875
 20
-3165.078125
 10
3730.625
 20
-3165.078125
 10
3720.703125
 20
-3165.078125
 10
3710.78125
 20
-3165.078125
 10
3700.859375
 20
-3165.078125
 10
3690.9375
 20
-3165.078125
 10
3681.015625
 20
-3165.078125
 10
3671.09375
 20
-3165.078125
 10
3661.171875
 20
-3165.078125
 10
3651.25
 20
-3165.078125
 10
3641.328125
 20
-3165.078125
 10
3631.40625
 20
-3165.078125
 10
3621.484375
 20
-3165.078125
 10
3611.5625
 20
-3165.078125
 10
3601.640625
 20
-3165.078125
 10
3591.71875
 20
-3165.078125
 10
3581.796875
 20
-3165.078125
 10
3571.875
 20
-3165.078125
 10
3561.953125
 20
-3165.078125
 10
3552.03125
 20
-3165.078125
 10
3542.109375
 20
-3165.078125
 10
3532.1875
 20
-3165.078125
 10
3522.265625
 20
-3165.078125
 10
3512.34375
 20
-3165.078125
 10
3502.421875
 20
-3165.078125
 10
3492.5
 20
-3165.078125
 10
3482.578125
 20
-3165.078125
 10
3472.65625
 20
-3175.0
 10
3462.734375
 20
-3175.0
 10
3452.8125
 20
-3165.078125
 10
3442.890625
 20
-3165.078125
 10
3432.96875
 20
-3165.078125
 10
3423.046875
 20
-3165.078125
 10
3413.125
 20
-3165.078125
 10
3403.203125
 20
-3165.078125
 10
3393.28125
 20
-3165.078125
 10
3383.359375
 20
-3165.078125
 10
3373.4375
 20
-3165.078125
 10
3363.515625
 20
-3165.078125
 10
3353.59375
 20
-3165.078125
 10
3343.671875
 20
-3165.078125
 10
3333.75
 20
-3165.078125
 10
3323.828125
 20
-3165.078125
 10
3313.90625
 20
-3165.078125
 10
3303.984375
 20
-3165.078125
 10
3294.0625
 20
-3165.078125
 10
3284.140625
 20
-3165.078125
 10
3274.21875
 20
-3165.078125
 10
3264.296875
 20
-3165.078125
 10
3254.375
 20
-3165.078125
 10
3244.453125
 20
-3165.078125
 10
3234.53125
 20
-3165.078125
 10
3224.609375
 20
-3165.078125
 10
3214.6875
 20
-3165.078125
 10
3204.765625
 20
-3165.078125
 10
3194.84375
 20
-3155.15625
 10
3184.921875
 20
-3155.15625
 10
3175.0
 20
-3155.15625
 10
3165.078125
 20
-3155.15625
 10
3165.078125
 20
-3165.078125
 10
3165.078125
 20
-3175.0
 10
3155.15625
 20
-3184.921875
 10
3165.078125
 20
-3194.84375
 10
3155.15625
 20
-3204.765625
 10
3155.15625
 20
-3214.6875
 10
3155.15625
 20
-3224.609375
 10
3155.15625
 20
-3234.53125
 10
3155.15625
 20
-3244.453125
 10
3155.15625
 20
-3254.375
 10
3155.15625
 20
-3264.296875
 10
3165.078125
 20
-3274.21875
 10
3165.078125
 20
-3284.140625
 10
3165.078125
 20
-3294.0625
 10
3165.078125
 20
-3303.984375
 10
3165.078125
 20
-3313.90625
 10
3155.15625
 20
-3323.828125
 10
3155.15625
 20
-3333.75
 10
3155.15625
 20
-3343.671875
 10
3155.15625
 20
-3353.59375
 10
3165.078125
 20
-3363.515625
 10
3155.15625
 20
-3373.4375
 10
3155.15625
 20
-3383.359375
 10
3155.15625
 20
-3393.28125
 10
3155.15625
 20
-3403.203125
 10
3155.15625
 20
-3413.125
 10
3155.15625
 20
-3423.046875
 10
3155.15625
 20
-3432.96875
 10
3155.15625
 20
-3442.890625
 10
3155.15625
 20
-3452.8125
 10
3155.15625
 20
-3462.734375
 10
3155.15625
 20
-3472.65625
 10
3155.15625
 20
-3482.578125
 10
3155.15625
 20
-3492.5
 10
3155.15625
 20
-3502.421875
 10
3165.078125
 20
-3512.34375
 10
3165.078125
 20
-3522.265625
 10
3155.15625
 20
-3532.1875
 10
3165.078125
 20
-3542.109375
 10
3165.078125
 20
-3552.03125
 10
3165.078125
 20
-3561.953125
 10
3165.078125
 20
-3571.875
 10
3165.078125
 20
-3581.796875
 10
3165.078125
 20
-3591.71875
 10
3165.078125
 20
-3601.640625
 10
3165.078125
 20
-3611.5625
 10
3165.078125
 20
-3621.484375
 10
3155.15625
 20
-3631.40625
 10
3155.15625
 20
-3641.328125
 10
3155.15625
 20
-3651.25
 10
3155.15625
 20
-3661.171875
 10
3165.078125
 20
-3671.09375
 10
3165.078125
 20
-3681.015625
 10
3165.078125
 20
-3690.9375
 10
3165.078125
 20
-3700.859375
 10
3165.078125
 20
-3710.78125
 10
3165.078125
 20
-3720.703125
 10
3165.078125
 20
-3730.625
 10
3165.078125
 20
-3740.546875
 10
3165.078125
 20
-3750.46875
 10
3165.078125
 20
-3760.390625
 10
3165.078125
 20
-3770.3125
 10
3165.078125
 20
-3780.234375
 10
3165.078125
 20
-3790.15625
 10
3165.078125
 20
-3800.078125
 10
3165.078125
 20
-3810.0
 10
3165.078125
 20
-3819.921875
 10
3165.078125
 20
-3829.84375
 10
3165.078125
 20
-3839.765625
 10
3165.078125
 20
-3849.6875
 10
3165.078125
 20
-3859.609375
 10
3165.078125
 20
-3869.53125
 10
3165.078125
 20
-3879.453125
 10
3165.078125
 20
-3889.375
 10
3165.078125
 20
-3899.296875
 10
3165.078125
 20
-3909.21875
 10
3165.078125
 20
-3919.140625
 10
3165.078125
 20
-3929.0625
 10
3165.078125
 20
-3938.984375
 10
3165.078125
 20
-3948.90625
 10
3165.078125
 20
-3958.828125
 10
3165.078125
 20
-3968.75
 10
3165.078125
 20
-3978.671875
 10
3165.078125
 20
-3988.59375
 10
3165.078125
 20
-3998.515625
 10
3165.078125
 20
-4008.4375
 10
3165.078125
 20
-4018.359375
 10
3165.078125
 20
-4028.28125
 10
3165.078125
 20
-4038.203125
 10
3165.078125
 20
-4048.125
 10
3165.078125
 20
-4058.046875
 10
3165.078125
 20
-4067.96875
 10
3165.078125
 20
-4077.890625
 10
3155.15625
 20
-4087.8125
 10
3165.078125
 20
-4097.734375
 10
3165.078125
 20
-4107.65625
 10
3165.078125
 20
-4117.578125
 10
3165.078125
 20
-4127.5
 10
3165.078125
 20
-4137.421875
 10
3165.078125
 20
-4147.34375
 10
3155.15625
 20
-4157.265625
 10
3155.15625
 20
-4167.1875
 10
3155.15625
 20
-4177.109375
 10
3155.15625
 20
-4187.03125
 10
3155.15625
 20
-4196.953125
 10
3155.15625
 20
-4206.875
 10
3155.15625
 20
-4216.796875
 10
3165.078125
 20
-4226.71875
 10
3155.15625
 20
-4236.640625
 10
3155.15625
 20
-4246.5625
 10
3155.15625
 20
-4256.484375
 10
3155.15625
 20
-4266.40625
 10
3155.15625
 20
-4276.328125
 10
3155.15625
 20
-4286.25
 10
3155.15625
 20
-4296.171875
 10
3155.15625
 20
-4306.09375
 10
3155.15625
 20
-4316.015625
 10
3145.234375
 20
-4325.9375
 10
3145.234375
 20
-4335.859375
 10
3145.234375
 20
-4345.78125
 10
3135.3125
 20
-4355.703125
 10
3125.390625
 20
-4355.703125
 10
3115.46875
 20
-4355.703125
 10
3105.546875
 20
-4355.703125
 10
3095.625
 20
-4355.703125
 10
3085.703125
 20
-4355.703125
 10
3075.78125
 20
-4355.703125
 10
3065.859375
 20
-4345.78125
 10
3055.9375
 20
-4345.78125
 10
3046.015625
 20
-4345.78125
 10
3036.09375
 20
-4355.703125
 10
3026.171875
 20
-4345.78125
 10
3016.25
 20
-4355.703125
 10
3006.328125
 20
-4355.703125
 10
2996.40625
 20
-4355.703125
 10
2986.484375
 20
-4355.703125
 10
2976.5625
 20
-4355.703125
 10
2966.640625
 20
-4355.703125
 10
2956.71875
 20
-4355.703125
 10
2946.796875
 20
-4365.625
 10
2936.875
 20
-4355.703125
 10
2926.953125
 20
-4355.703125
 10
2917.03125
 20
-4355.703125
 10
2907.109375
 20
-4355.703125
 10
2897.1875
 20
-4365.625
 10
2887.265625
 20
-4365.625
 10
2877.34375
 20
-4365.625
 10
2867.421875
 20
-4365.625
 10
2857.5
 20
-4365.625
 10
2847.578125
 20
-4365.625
 10
2837.65625
 20
-4365.625
 10
2827.734375
 20
-4365.625
 10
2817.8125
 20
-4365.625
 10
2807.890625
 20
-4365.625
 10
2797.96875
 20
-4375.546875
 10
2788.046875
 20
-4375.546875
 10
2778.125
 20
-4365.625
 10
2768.203125
 20
-4365.625
 10
2758.28125
 20
-4365.625
 10
2748.359375
 20
-4365.625
 10
2738.4375
 20
-4365.625
 10
2728.515625
 20
-4365.625
 10
2718.59375
 20
-4375.546875
 10
2708.671875
 20
-4375.546875
 10
2698.75
 20
-4365.625
 10
2688.828125
 20
-4365.625
 10
2678.90625
 20
-4365.625
 10
2668.984375
 20
-4365.625
 10
2659.0625
 20
-4365.625
 10
2649.140625
 20
-4365.625
 10
2639.21875
 20
-4365.625
 10
2629.296875
 20
-4365.625
 10
2619.375
 20
-4365.625
 10
2609.453125
 20
-4365.625
 10
2599.53125
 20
-4365.625
 10
2589.609375
 20
-4365.625
 10
2579.6875
 20
-4365.625
 10
2569.765625
 20
-4365.625
 10
2559.84375
 20
-4365.625
 10
2549.921875
 20
-4365.625
 10
2540.0
 20
-4365.625
 10
2530.078125
 20
-4365.625
 10
2520.15625
 20
-4365.625
 10
2510.234375
 20
-4365.625
 10
2500.3125
 20
-4365.625
 10
2490.390625
 20
-4355.703125
 10
2480.46875
 20
-4365.625
 10
2470.546875
 20
-4365.625
 10
2460.625
 20
-4365.625
 10
2450.703125
 20
-4355.703125
 10
2440.78125
 20
-4365.625
 10
2430.859375
 20
-4355.703125
 10
2420.9375
 20
-4355.703125
 10
2411.015625
 20
-4355.703125
 10
2401.09375
 20
-4355.703125
 10
2391.171875
 20
-4365.625
 10
2381.25
 20
-4355.703125
 10
2371.328125
 20
-4355.703125
 10
2361.40625
 20
-4355.703125
 10
2351.484375
 20
-4355.703125
 10
2341.5625
 20
-4365.625
 10
2331.640625
 20
-4355.703125
 10
2321.71875
 20
-4365.625
 10
2311.796875
 20
-4365.625
 10
2301.875
 20
-4365.625
 10
2291.953125
 20
-4355.703125
 10
2282.03125
 20
-4355.703125
 10
2272.109375
 20
-4355.703125
 10
2262.1875
 20
-4355.703125
 10
2252.265625
 20
-4355.703125
 10
2242.34375
 20
-4355.703125
 10
2232.421875
 20
-4355.703125
 10
2222.5
 20
-4355.703125
 10
2212.578125
 20
-4355.703125
 10
2202.65625
 20
-4355.703125
 10
2192.734375
 20
-4355.703125
 10
2182.8125
 20
-4355.703125
 10
2172.890625
 20
-4355.703125
 10
2162.96875
 20
-4355.703125
 10
2153.046875
 20
-4355.703125
 10
2143.125
 20
-4355.703125
 10
2133.203125
 20
-4355.703125
 10
2123.28125
 20
-4355.703125
 10
2113.359375
 20
-4355.703125
 10
2103.4375
 20
-4355.703125
 10
2093.515625
 20
-4355.703125
 10
2083.59375
 20
-4355.703125
 10
2073.671875
 20
-4355.703125
 10
2063.75
 20
-4355.703125
 10
2053.828125
 20
-4355.703125
 10
2043.90625
 20
-4355.703125
 10
2033.984375
 20
-4355.703125
 10
2024.0625
 20
-4355.703125
 10
2014.140625
 20
-4355.703125
 10
2004.21875
 20
-4355.703125
 10
1994.296875
 20
-4355.703125
 10
1984.375
 20
-4355.703125
 10
1974.453125
 20
-4355.703125
 10
1964.53125
 20
-4355.703125
 10
1954.609375
 20
-4355.703125
 10
1944.6875
 20
-4365.625
 10
1934.765625
 20
-4365.625
 10
1924.84375
 20
-4355.703125
 10
1914.921875
 20
-4345.78125
 10
1914.921875
 20
-4335.859375
 10
1914.921875
 20
-4325.9375
 10
1914.921875
 20
-4316.015625
 10
1914.921875
 20
-4306.09375
 10
1914.921875
 20
-4296.171875
 10
1914.921875
 20
-4286.25
 10
1914.921875
 20
-4276.328125
 10
1914.921875
 20
-4266.40625
 10
1914.921875
 20
-4256.484375
 10
1914.921875
 20
-4246.5625
 10
1914.921875
 20
-4236.640625
 10
1914.921875
 20
-4226.71875
 10
1914.921875
 20
-4216.796875
 10
1914.921875
 20
-4206.875
 10
1914.921875
 20
-4196.953125
 10
1914.921875
 20
-4187.03125
 10
1914.921875
 20
-4177.109375
 10
1914.921875
 20
-4167.1875
 10
1914.921875
 20
-4157.265625
 10
1914.921875
 20
-4147.34375
 10
1914.921875
 20
-4137.421875
 10
1914.921875
 20
-4127.5
 10
1914.921875
 20
-4117.578125
 10
1914.921875
 20
-4107.65625
 10
1905.0
 20
-4097.734375
 10
1914.921875
 20
-4087.8125
 10
1905.0
 20
-4077.890625
 10
1914.921875
 20
-4067.96875
 10
1914.921875
 20
-4058.046875
 10
1914.921875
 20
-4048.125
 10
1905.0
 20
-4038.203125
 10
1914.921875
 20
-4028.28125
 10
1914.921875
 20
-4018.359375
 10
1914.921875
 20
-4008.4375
 10
1914.921875
 20
-3998.515625
 10
1914.921875
 20
-3988.59375
 10
1914.921875
 20
-3978.671875
 10
1914.921875
 20
-3968.75
 10
1914.921875
 20
-3958.828125
 10
1914.921875
 20
-3948.90625
 10
1905.0
 20
-3938.984375
 10
1914.921875
 20
-3929.0625
 10
1914.921875
 20
-3919.140625
 10
1914.921875
 20
-3909.21875
 10
1914.921875
 20
-3899.296875
 10
1914.921875
 20
-3889.375
 10
1914.921875
 20
-3879.453125
 10
1914.921875
 20
-3869.53125
 10
1914.921875
 20
-3859.609375
 10
1914.921875
 20
-3849.6875
 10
1914.921875
 20
-3839.765625
 10
1914.921875
 20
-3829.84375
 10
1905.0
 20
-3819.921875
 10
1905.0
 20
-3810.0
 10
1905.0
 20
-3800.078125
 10
1905.0
 20
-3790.15625
 10
1905.0
 20
-3780.234375
 10
1905.0
 20
-3770.3125
 10
1905.0
 20
-3760.390625
 10
1905.0
 20
-3750.46875
 10
1905.0
 20
-3740.546875
 10
1905.0
 20
-3730.625
 10
1905.0
 20
-3720.703125
 10
1905.0
 20
-3710.78125
 10
1905.0
 20
-3700.859375
 10
1905.0
 20
-3690.9375
 10
1905.0
 20
-3681.015625
 10
1905.0
 20
-3671.09375
 10
1905.0
 20
-3661.171875
 10
1905.0
 20
-3651.25
 10
1905.0
 20
-3641.328125
 10
1905.0
 20
-3631.40625
 10
1905.0
 20
-3621.484375
 10
1905.0
 20
-3611.5625
 10
1905.0
 20
-3601.640625
 10
1905.0
 20
-3591.71875
 10
1905.0
 20
-3581.796875
 10
1905.0
 20
-3571.875
 10
1905.0
 20
-3561.953125
 10
1914.921875
 20
-3552.03125
 10
1905.0
 20
-3542.109375
 10
1905.0
 20
-3532.1875
 10
1905.0
 20
-3522.265625
 10
1905.0
 20
-3512.34375
 10
1905.0
 20
-3502.421875
 10
1914.921875
 20
-3492.5
 10
1905.0
 20
-3482.578125
 10
1905.0
 20
-3472.65625
 10
1905.0
 20
-3462.734375
 10
1905.0
 20
-3452.8125
 10
1905.0
 20
-3442.890625
 10
1914.921875
 20
-3432.96875
 10
1914.921875
 20
-3423.046875
 10
1914.921875
 20
-3413.125
 10
1914.921875
 20
-3403.203125
 10
1914.921875
 20
-3393.28125
 10
1914.921875
 20
-3383.359375
 10
1914.921875
 20
-3373.4375
 10
1914.921875
 20
-3363.515625
 10
1914.921875
 20
-3353.59375
 10
1914.921875
 20
-3343.671875
 10
1914.921875
 20
-3333.75
 10
1914.921875
 20
-3323.828125
 10
1914.921875
 20
-3313.90625
 10
1914.921875
 20
-3303.984375
 10
1914.921875
 20
-3294.0625
 10
1914.921875
 20
-3284.140625
 10
1914.921875
 20
-3274.21875
 10
1914.921875
 20
-3264.296875
 10
1914.921875
 20
-3254.375
 10
1914.921875
 20
-3244.453125
 10
1905.0
 20
-3234.53125
 10
1905.0
 20
-3224.609375
 10
1914.921875
 20
-3214.6875
 10
1905.0
 20
-3204.765625
 10
1905.0
 20
-3194.84375
 10
1905.0
 20
-3184.921875
 10
1914.921875
 20
-3175.0
 10
1905.0
 20
-3165.078125
 10
1895.078125
 20
-3165.078125
 10
1885.15625
 20
-3165.078125
 10
1875.234375
 20
-3165.078125
 10
1865.3125
 20
-3165.078125
 10
1855.390625
 20
-3165.078125
 10
1845.46875
 20
-3165.078125
 10
1835.546875
 20
-3165.078125
 10
1825.625
 20
-3165.078125
 10
1815.703125
 20
-3165.078125
 10
1805.78125
 20
-3165.078125
 10
1795.859375
 20
-3165.078125
 10
1785.9375
 20
-3165.078125
 10
1776.015625
 20
-3165.078125
 10
1766.09375
 20
-3165.078125
 10
1756.171875
 20
-3165.078125
 10
1746.25
 20
-3165.078125
 10
1736.328125
 20
-3165.078125
 10
1726.40625
 20
-3165.078125
 10
1716.484375
 20
-3165.078125
 10
1706.5625
 20
-3165.078125
 10
1696.640625
 20
-3165.078125
 10
1686.71875
 20
-3165.078125
 10
1676.796875
 20
-3165.078125
 10
1666.875
 20
-3165.078125
 10
1656.953125
 20
-3165.078125
 10
1647.03125
 20
-3165.078125
 10
1637.109375
 20
-3165.078125
 10
1627.1875
 20
-3165.078125
 10
1617.265625
 20
-3165.078125
 10
1607.34375
 20
-3165.078125
 10
1597.421875
 20
-3165.078125
 10
1587.5
 20
-3165.078125
 10
1577.578125
 20
-3165.078125
 10
1567.65625
 20
-3165.078125
 10
1557.734375
 20
-3165.078125
 10
1547.8125
 20
-3165.078125
 10
1537.890625
 20
-3165.078125
 10
1527.96875
 20
-3165.078125
 10
1518.046875
 20
-3165.078125
 10
1508.125
 20
-3165.078125
 10
1498.203125
 20
-3165.078125
 10
1488.28125
 20
-3165.078125
 10
1478.359375
 20
-3165.078125
 10
1468.4375
 20
-3165.078125
 10
1458.515625
 20
-3165.078125
 10
1448.59375
 20
-3165.078125
 10
1438.671875
 20
-3165.078125
 10
1428.75
 20
-3165.078125
 10
1418.828125
 20
-3165.078125
 10
1408.90625
 20
-3165.078125
 10
1398.984375
 20
-3165.078125
 10
1389.0625
 20
-3165.078125
 10
1379.140625
 20
-3165.078125
 10
1369.21875
 20
-3165.078125
 10
1359.296875
 20
-3165.078125
 10
1349.375
 20
-3165.078125
 10
1339.453125
 20
-3165.078125
 10
1329.53125
 20
-3165.078125
 10
1319.609375
 20
-3165.078125
 10
1309.6875
 20
-3165.078125
 10
1299.765625
 20
-3165.078125
 10
1289.84375
 20
-3165.078125
 10
1279.921875
 20
-3165.078125
 10
1270.0
 20
-3165.078125
 10
1260.078125
 20
-3165.078125
 10
1250.15625
 20
-3165.078125
 10
1240.234375
 20
-3165.078125
 10
1230.3125
 20
-3165.078125
 10
1220.390625
 20
-3165.078125
 10
1210.46875
 20
-3165.078125
 10
1200.546875
 20
-3165.078125
 10
1190.625
 20
-3165.078125
 10
1180.703125
 20
-3165.078125
 10
1170.78125
 20
-3165.078125
 10
1160.859375
 20
-3165.078125
 10
1150.9375
 20
-3165.078125
 10
1141.015625
 20
-3165.078125
 10
1131.09375
 20
-3165.078125
 10
1121.171875
 20
-3165.078125
 10
1111.25
 20
-3165.078125
 10
1101.328125
 20
-3165.078125
 10
1091.40625
 20
-3165.078125
 10
1081.484375
 20
-3165.078125
 10
1071.5625
 20
-3165.078125
 10
1061.640625
 20
-3165.078125
 10
1051.71875
 20
-3165.078125
 10
1041.796875
 20
-3165.078125
 10
1031.875
 20
-3165.078125
 10
1021.953125
 20
-3165.078125
 10
1012.03125
 20
-3165.078125
 10
1002.109375
 20
-3165.078125
 10
992.1875
 20
-3165.078125
 10
982.265625
 20
-3165.078125
 10
972.34375
 20
-3165.078125
 10
962.421875
 20
-3165.078125
 10
952.5
 20
-3165.078125
 10
942.578125
 20
-3165.078125
 10
932.65625
 20
-3165.078125
 10
922.734375
 20
-3165.078125
 10
912.8125
 20
-3165.078125
 10
902.890625
 20
-3165.078125
 10
892.96875
 20
-3165.078125
 10
883.046875
 20
-3165.078125
 10
873.125
 20
-3165.078125
 10
863.203125
 20
-3165.078125
 10
853.28125
 20
-3165.078125
 10
843.359375
 20
-3165.078125
 10
833.4375
 20
-3165.078125
 10
823.515625
 20
-3165.078125
 10
813.59375
 20
-3165.078125
 10
803.671875
 20
-3165.078125
 10
793.75
 20
-3165.078125
 10
783.828125
 20
-3165.078125
 10
773.90625
 20
-3165.078125
 10
763.984375
 20
-3165.078125
 10
754.0625
 20
-3165.078125
 10
744.140625
 20
-3165.078125
 10
734.21875
 20
-3155.15625
 10
734.21875
 20
-3145.234375
 10
734.21875
 20
-3135.3125
 10
744.140625
 20
-3125.390625
 10
744.140625
 20
-3115.46875
 10
744.140625
 20
-3105.546875
 10
744.140625
 20
-3095.625
 10
744.140625
 20
-3085.703125
 10
744.140625
 20
-3075.78125
 10
744.140625
 20
-3065.859375
 10
744.140625
 20
-3055.9375
 10
744.140625
 20
-3046.015625
 10
744.140625
 20
-3036.09375
 10
744.140625
 20
-3026.171875
 10
744.140625
 20
-3016.25
 10
744.140625
 20
-3006.328125
 10
744.140625
 20
-2996.40625
 10
744.140625
 20
-2986.484375
 10
744.140625
 20
-2976.5625
 10
744.140625
 20
-2966.640625
 10
744.140625
 20
-2956.71875
 10
744.140625
 20
-2946.796875
 10
744.140625
 20
-2936.875
 10
744.140625
 20
-2926.953125
 10
744.140625
 20
-2917.03125
 10
744.140625
 20
-2907.109375
 10
744.140625
 20
-2897.1875
 10
744.140625
 20
-2887.265625
 10
744.140625
 20
-2877.34375
 10
744.140625
 20
-2867.421875
 10
744.140625
 20
-2857.5
 10
744.140625
 20
-2847.578125
 10
744.140625
 20
-2837.65625
 10
744.140625
 20
-2827.734375
 10
744.140625
 20
-2817.8125
 10
744.140625
 20
-2807.890625
 10
744.140625
 20
-2797.96875
 10
744.140625
 20
-2788.046875
 10
744.140625
 20
-2778.125
 10
744.140625
 20
-2768.203125
 10
744.140625
 20
-2758.28125
 10
744.140625
 20
-2748.359375
 10
744.140625
 20
-2738.4375
 10
744.140625
 20
-2728.515625
 10
744.140625
 20
-2718.59375
 10
744.140625
 20
-2708.671875
 10
744.140625
 20
-2698.75
 10
744.140625
 20
-2688.828125
 10
744.140625
 20
-2678.90625
 10
744.140625
 20
-2668.984375
 10
744.140625
 20
-2659.0625
 10
744.140625
 20
-2649.140625
 10
744.140625
 20
-2639.21875
 10
744.140625
 20
-2629.296875
 10
744.140625
 20
-2619.375
 10
744.140625
 20
-2609.453125
 10
744.140625
 20
-2599.53125
 10
744.140625
 20
-2589.609375
 10
744.140625
 20
-2579.6875
 10
744.140625
 20
-2569.765625
 10
744.140625
 20
-2559.84375
 10
744.140625
 20
-2549.921875
 10
744.140625
 20
-2540.0
 10
744.140625
 20
-2530.078125
 10
744.140625
 20
-2520.15625
 10
744.140625
 20
-2510.234375
 10
744.140625
 20
-2500.3125
 10
744.140625
 20
-2490.390625
 10
744.140625
 20
-2480.46875
 10
744.140625
 20
-2470.546875
 10
744.140625
 20
-2460.625
 10
744.140625
 20
-2450.703125
 10
744.140625
 20
-2440.78125
 10
744.140625
 20
-2430.859375
 10
744.140625
 20
-2420.9375
 10
744.140625
 20
-2411.015625
 10
744.140625
 20
-2401.09375
 10
744.140625
 20
-2391.171875
 10
744.140625
 20
-2381.25
 10
744.140625
 20
-2371.328125
 10
744.140625
 20
-2361.40625
 10
744.140625
 20
-2351.484375
 10
744.140625
 20
-2341.5625
 10
744.140625
 20
-2331.640625
 10
744.140625
 20
-2321.71875
 10
744.140625
 20
-2311.796875
 10
744.140625
 20
-2301.875
 10
744.140625
 20
-2291.953125
 10
744.140625
 20
-2282.03125
 10
744.140625
 20
-2272.109375
 10
744.140625
 20
-2262.1875
 10
744.140625
 20
-2252.265625
 10
744.140625
 20
-2242.34375
 10
744.140625
 20
-2232.421875
 10
744.140625
 20
-2222.5
 10
744.140625
 20
-2212.578125
 10
744.140625
 20
-2202.65625
 10
744.140625
 20
-2192.734375
 10
744.140625
 20
-2182.8125
 10
744.140625
 20
-2172.890625
 10
744.140625
 20
-2162.96875
 10
744.140625
 20
-2153.046875
 10
744.140625
 20
-2143.125
 10
744.140625
 20
-2133.203125
 10
744.140625
 20
-2123.28125
 10
744.140625
 20
-2113.359375
 10
744.140625
 20
-2103.4375
 10
744.140625
 20
-2093.515625
 10
744.140625
 20
-2083.59375
 10
744.140625
 20
-2073.671875
 10
744.140625
 20
-2063.75
 10
744.140625
 20
-2053.828125
 10
744.140625
 20
-2043.90625
 10
744.140625
 20
-2033.984375
 10
744.140625
 20
-2024.0625
 10
754.0625
 20
-2014.140625
 10
754.0625
 20
-2004.21875
 10
754.0625
 20
-1994.296875
 10
754.0625
 20
-1984.375
 10
754.0625
 20
-1974.453125
 10
754.0625
 20
-1964.53125
 10
754.0625
 20
-1954.609375
 10
754.0625
 20
-1944.6875
 10
754.0625
 20
-1934.765625
 10
744.140625
 20
-1924.84375
 10
754.0625
 20
-1914.921875
 10
763.984375
 20
-1914.921875
 10
773.90625
 20
-1905.0
 10
783.828125
 20
-1905.0
 10
793.75
 20
-1905.0
 10
803.671875
 20
-1905.0
 10
813.59375
 20
-1905.0
 10
823.515625
 20
-1905.0
 10
833.4375
 20
-1905.0
 10
843.359375
 20
-1905.0
 10
853.28125
 20
-1905.0
 10
863.203125
 20
-1905.0
 10
873.125
 20
-1905.0
 10
883.046875
 20
-1905.0
 10
892.96875
 20
-1905.0
 10
902.890625
 20
-1914.921875
 10
912.8125
 20
-1914.921875
 10
922.734375
 20
-1914.921875
 10
932.65625
 20
-1914.921875
 10
942.578125
 20
-1914.921875
 10
952.5
 20
-1914.921875
 10
962.421875
 20
-1914.921875
 10
972.34375
 20
-1914.921875
 10
982.265625
 20
-1905.0
 10
992.1875
 20
-1905.0
 10
1002.109375
 20
-1905.0
 10
1012.03125
 20
-1905.0
 10
1021.953125
 20
-1905.0
 10
1031.875
 20
-1905.0
 10
1041.796875
 20
-1905.0
 10
1051.71875
 20
-1905.0
 10
1061.640625
 20
-1914.921875
 10
1071.5625
 20
-1914.921875
 10
1081.484375
 20
-1905.0
 10
1091.40625
 20
-1914.921875
 10
1101.328125
 20
-1914.921875
 10
1111.25
 20
-1905.0
 10
1121.171875
 20
-1905.0
 10
1131.09375
 20
-1905.0
 10
1141.015625
 20
-1905.0
 10
1150.9375
 20
-1914.921875
 10
1160.859375
 20
-1914.921875
 10
1170.78125
 20
-1914.921875
 10
1180.703125
 20
-1914.921875
 10
1190.625
 20
-1914.921875
 10
1200.546875
 20
-1905.0
 10
1210.46875
 20
-1905.0
 10
1220.390625
 20
-1914.921875
 10
1230.3125
 20
-1914.921875
 10
1240.234375
 20
-1905.0
 10
1250.15625
 20
-1914.921875
 10
1260.078125
 20
-1914.921875
 10
1270.0
 20
-1914.921875
 10
1279.921875
 20
-1914.921875
 10
1289.84375
 20
-1914.921875
 10
1299.765625
 20
-1914.921875
 10
1309.6875
 20
-1914.921875
 10
1319.609375
 20
-1914.921875
 10
1329.53125
 20
-1914.921875
 10
1339.453125
 20
-1914.921875
 10
1349.375
 20
-1914.921875
 10
1359.296875
 20
-1914.921875
 10
1369.21875
 20
-1914.921875
 10
1379.140625
 20
-1914.921875
 10
1389.0625
 20
-1905.0
 10
1398.984375
 20
-1905.0
 10
1408.90625
 20
-1914.921875
 10
1418.828125
 20
-1914.921875
 10
1428.75
 20
-1914.921875
 10
1438.671875
 20
-1914.921875
 10
1448.59375
 20
-1914.921875
 10
1458.515625
 20
-1914.921875
 10
1468.4375
 20
-1914.921875
 10
1478.359375
 20
-1914.921875
 10
1488.28125
 20
-1914.921875
 10
1498.203125
 20
-1914.921875
 10
1508.125
 20
-1914.921875
 10
1518.046875
 20
-1914.921875
 10
1527.96875
 20
-1914.921875
 10
1537.890625
 20
-1914.921875
 10
1547.8125
 20
-1914.921875
 10
1557.734375
 20
-1914.921875
 10
1567.65625
 20
-1914.921875
 10
1577.578125
 20
-1914.921875
 10
1587.5
 20
-1914.921875
 10
1597.421875
 20
-1914.921875
 10
1607.34375
 20
-1914.921875
 10
1617.265625
 20
-1914.921875
 10
1627.1875
 20
-1914.921875
 10
1637.109375
 20
-1914.921875
 10
1647.03125
 20
-1914.921875
 10
1656.953125
 20
-1914.921875
 10
1666.875
 20
-1914.921875
 10
1676.796875
 20
-1914.921875
 10
1686.71875
 20
-1914.921875
 10
1696.640625
 20
-1914.921875
 10
1706.5625
 20
-1914.921875
 10
1716.484375
 20
-1914.921875
 10
1726.40625
 20
-1914.921875
 10
1736.328125
 20
-1914.921875
 10
1746.25
 20
-1914.921875
 10
1756.171875
 20
-1914.921875
 10
1766.09375
 20
-1914.921875
 10
1776.015625
 20
-1914.921875
 10
1785.9375
 20
-1914.921875
 10
1795.859375
 20
-1914.921875
 10
1805.78125
 20
-1914.921875
 10
1815.703125
 20
-1914.921875
 10
1825.625
 20
-1914.921875
 10
1835.546875
 20
-1914.921875
 10
1845.46875
 20
-1914.921875
 10
1855.390625
 20
-1914.921875
 10
1865.3125
 20
-1905.0
 10
1875.234375
 20
-1914.921875
 10
1885.15625
 20
-1914.921875
 10
1895.078125
 20
-1914.921875
 10
1905.0
 20
-1914.921875
 10
1914.921875
 20
-1905.0
 10
1914.921875
 20
-1895.078125
 10
1914.921875
 20
-1885.15625
 10
1914.921875
 20
-1875.234375
 10
1914.921875
 20
-1865.3125
 10
1914.921875
 20
-1855.390625
 10
1914.921875
 20
-1845.46875
 10
1905.0
 20
-1835.546875
 10
1914.921875
 20
-1825.625
 10
1914.921875
 20
-1815.703125
 10
1905.0
 20
-1805.78125
 10
1905.0
 20
-1795.859375
 10
1914.921875
 20
-1785.9375
 10
1905.0
 20
-1776.015625
 10
1914.921875
 20
-1766.09375
 10
1914.921875
 20
-1756.171875
 10
1914.921875
 20
-1746.25
 10
1914.921875
 20
-1736.328125
 10
1914.921875
 20
-1726.40625
 10
1914.921875
 20
-1716.484375
 10
1914.921875
 20
-1706.5625
 10
1914.921875
 20
-1696.640625
 10
1914.921875
 20
-1686.71875
 10
1914.921875
 20
-1676.796875
 10
1914.921875
 20
-1666.875
 10
1914.921875
 20
-1656.953125
 10
1914.921875
 20
-1647.03125
 10
1914.921875
 20
-1637.109375
 10
1914.921875
 20
-1627.1875
 10
1914.921875
 20
-1617.265625
 10
1914.921875
 20
-1607.34375
 10
1914.921875
 20
-1597.421875
 10
1914.921875
 20
-1587.5
 10
1914.921875
 20
-1577.578125
 10
1914.921875
 20
-1567.65625
 10
1914.921875
 20
-1557.734375
 10
1914.921875
 20
-1547.8125
 10
1914.921875
 20
-1537.890625
 10
1914.921875
 20
-1527.96875
 10
1914.921875
 20
-1518.046875
 10
1914.921875
 20
-1508.125
 10
1914.921875
 20
-1498.203125
 10
1914.921875
 20
-1488.28125
 10
1914.921875
 20
-1478.359375
 10
1914.921875
 20
-1468.4375
 10
1914.921875
 20
-1458.515625
 10
1914.921875
 20
-1448.59375
 10
1914.921875
 20
-1438.671875
 10
1914.921875
 20
-1428.75
 10
1914.921875
 20
-1418.828125
 10
1914.921875
 20
-1408.90625
 10
1914.921875
 20
-1398.984375
 10
1914.921875
 20
-1389.0625
 10
1914.921875
 20
-1379.140625
 10
1914.921875
 20
-1369.21875
 10
1914.921875
 20
-1359.296875
 10
1914.921875
 20
-1349.375
 10
1914.921875
 20
-1339.453125
 10
1914.921875
 20
-1329.53125
 10
1914.921875
 20
-1319.609375
 10
1914.921875
 20
-1309.6875
 10
1914.921875
 20
-1299.765625
 10
1914.921875
 20
-1289.84375
 10
1914.921875
 20
-1279.921875
 10
1914.921875
 20
-1270.0
 10
1914.921875
 20
-1260.078125
 10
1914.921875
 20
-1250.15625
 10
1914.921875
 20
-1240.234375
 10
1914.921875
 20
-1230.3125
 10
1914.921875
 20
-1220.390625
 10
1914.921875
 20
-1210.46875
 10
1914.921875
 20
-1200.546875
 10
1914.921875
 20
-1190.625
 10
1914.921875
 20
-1180.703125
 10
1914.921875
 20
-1170.78125
 10
1914.921875
 20
-1160.859375
 10
1914.921875
 20
-1150.9375
 10
1914.921875
 20
-1141.015625
 10
1914.921875
 20
-1131.09375
 10
1914.921875
 20
-1121.171875
 10
1914.921875
 20
-1111.25
 10
1914.921875
 20
-1101.328125
 10
1914.921875
 20
-1091.40625
 10
1914.921875
 20
-1081.484375
 10
1914.921875
 20
-1071.5625
 10
1914.921875
 20
-1061.640625
 10
1914.921875
 20
-1051.71875
 10
1914.921875
 20
-1041.796875
 10
1914.921875
 20
-1031.875
 10
1914.921875
 20
-1021.953125
 10
1914.921875
 20
-1012.03125
 10
1914.921875
 20
-1002.109375
 10
1914.921875
 20
-992.1875
 10
1914.921875
 20
-982.265625
 10
1914.921875
 20
-972.34375
 10
1914.921875
 20
-962.421875
 10
1914.921875
 20
-952.5
 10
1914.921875
 20
-942.578125
 10
1914.921875
 20
-932.65625
 10
1914.921875
 20
-922.734375
 10
1914.921875
 20
-912.8125
 10
1914.921875
 20
-902.890625
 10
1914.921875
 20
-892.96875
 10
1914.921875
 20
-883.046875
 10
1914.921875
 20
-873.125
 10
1914.921875
 20
-863.203125
 10
1914.921875
 20
-853.28125
 10
1914.921875
 20
-843.359375
 10
1914.921875
 20
-833.4375
 10
1914.921875
 20
-823.515625
 10
1914.921875
 20
-813.59375
 10
1914.921875
 20
-803.671875
 10
1914.921875
 20
-793.75
  0
LWPOLYLINE
  5
40
330
17
100
AcDbEntity
  8
substrate
100
AcDbPolyline
 90
1
 70
1
 43
0.5
 10
3393.28125
 20
-2857.5
  0
LWPOLYLINE
  5
41
330
17
100
AcDbEntity
  8
substrate
100
AcDbPolyline
 90
1
 70
1
 43
0.5
 10
2083.59375
 20
-2857.5
  0
LWPOLYLINE
  5
42
330
17
100
AcDbEntity
  8
substrate
100
AcDbPolyline
 90
1
 70
1
 43
0.5
 10
2926.953125
 20
-2817.8125
  0
LWPOLYLINE
  5
43
330
17
100
AcDbEntity
  8
substrate
100
AcDbPolyline
 90
1
 70
1
 43
0.5
 10
2093.515625
 20
-2817.8125
  0
LWPOLYLINE
  5
44
330
17
100
AcDbEntity
  8
substrate
100
AcDbPolyline
 90
11
 70
1
 43
0.5
 10
2133.203125
 20
-2797.96875
 10
2133.203125
 20
-2807.890625
 10
2123.28125
 20
-2817.8125
 10
2113.359375
 20
-2817.8125
 10
2123.28125
 20
-2827.734375
 10
2113.359375
 20
-2837.65625
 10
2123.28125
 20
-2827.734375
 10
2133.203125
 20
-2837.65625
 10
2133.203125
 20
-2827.734375
 10
2143.125
 20
-2817.8125
 10
2133.203125
 20
-2807.890625
  0
LWPOLYLINE
  5
45
330
17
100
AcDbEntity
  8
substrate
100
AcDbPolyline
 90
11
 70
1
 43
0.5
 10
3661.171875
 20
-2212.578125
 10
3651.25
 20
-2222.5
 10
3641.328125
 20
-2222.5
 10
3651.25
 20
-2222.5
 10
3661.171875
 20
-2232.421875
 10
3661.171875
 20
-2242.34375
 10
3671.09375
 20
-2242.34375
 10
3681.015625
 20
-2242.34375
 10
3681.015625
 20
-2232.421875
 10
3681.015625
 20
-2222.5
 10
3671.09375
 20
-2212.578125
  0
LWPOLYLINE
  5
46
330
17
100
AcDbEntity
  8
substrate
100
AcDbPolyline
 90
1
 70
1
 43
0.5
 10
2907.109375
 20
-2182.8125
  0
LWPOLYLINE
  5
47
330
17
100
AcDbEntity
  8
substrate
100
AcDbPolyline
 90
1
 70
1
 43
0.5
 10
2847.578125
 20
-2182.8125
  0
LWPOLYLINE
  5
48
330
17
100
AcDbEntity
  8
substrate
100
AcDbPolyline
 90
36
 70
1
 43
0.5
 10
2867.421875
 20
-2103.4375
 10
2867.421875
 20
-2113.359375
 10
2867.421875
 20
-2123.28125
 10
2857.5
 20
-2133.203125
 10
2847.578125
 20
-2123.28125
 10
2847.578125
 20
-2133.203125
 10
2837.65625
 20
-2143.125
 10
2827.734375
 20
-2143.125
 10
2837.65625
 20
-2143.125
 10
2847.578125
 20
-2153.046875
 10
2847.578125
 20
-2162.96875
 10
2847.578125
 20
-2153.046875
 10
2857.5
 20
-2143.125
 10
2867.421875
 20
-2153.046875
 10
2867.421875
 20
-2162.96875
 10
2877.34375
 20
-2153.046875
 10
2887.265625
 20
-2153.046875
 10
2897.1875
 20
-2153.046875
 10
2907.109375
 20
-2162.96875
 10
2917.03125
 20
-2153.046875
 10
2926.953125
 20
-2162.96875
 10
2926.953125
 20
-2172.890625
 10
2926.953125
 20
-2182.8125
 10
2926.953125
 20
-2172.890625
 10
2926.953125
 20
-2162.96875
 10
2936.875
 20
-2153.046875
 10
2946.796875
 20
-2153.046875
 10
2946.796875
 20
-2143.125
 10
2936.875
 20
-2133.203125
 10
2926.953125
 20
-2123.28125
 10
2917.03125
 20
-2113.359375
 10
2917.03125
 20
-2103.4375
 10
2907.109375
 20
-2103.4375
 10
2897.1875
 20
-2103.4375
 10
2887.265625
 20
-2103.4375
 10
2877.34375
 20
-2113.359375
  0
LWPOLYLINE
  5
49
330
17
100
AcDbEntity
  8
substrate
100
AcDbPolyline
 90
1
 70
1
 43
0.5
 10
2708.671875
 20
-1686.71875
  0
LWPOLYLINE
  5
4A
330
17
100
AcDbEntity
  8
substrate
100
AcDbPolyline
 90
4
 70
1
 43
0.5
 10
2768.203125
 20
-1666.875
 10
2768.203125
 20
-1676.796875
 10
2768.203125
 20
-1686.71875
 10
2768.203125
 20
-1676.796875
  0
LWPOLYLINE
  5
4B
330
17
100
AcDbEntity
  8
substrate
100
AcDbPolyline
 90
17
 70
1
 43
0.5
 10
2748.359375
 20
-1647.03125
 10
2748.359375
 20
-1656.953125
 10
2738.4375
 20
-1666.875
 10
2728.515625
 20
-1656.953125
 10
2718.59375
 20
-1666.875
 10
2708.671875
 20
-1656.953125
 10
2708.671875
 20
-1666.875
 10
2718.59375
 20
-1666.875
 10
2728.515625
 20
-1676.796875
 10
2728.515625
 20
-1686.71875
 10
2728.515625
 20
-1676.796875
 10
2738.4375
 20
-1666.875
 10
2748.359375
 20
-1676.796875
 10
2748.359375
 20
-1686.71875
 10
2748.359375
 20
-1676.796875
 10
2748.359375
 20
-1666.875
 10
2748.359375
 20
-1656.953125
  0
ENDSEC
  0
SECTION
  2
OBJECTS
  0
DICTIONARY
  5
A
330
0
100
AcDbDictionary
280
0
281
1
  3
ACAD_COLOR
350
B
  3
ACAD_GROUP
350
C
  3
ACAD_LAYOUT
350
D
  3
ACAD_MATERIAL
350
E
  3
ACAD_MLEADERSTYLE
350
F
  3
ACAD_MLINESTYLE
350
10
  3
ACAD_PLOTSETTINGS
350
11
  3
ACAD_PLOTSTYLENAME
350
12
  3
ACAD_SCALELIST
350
14
  3
ACAD_TABLESTYLE
350
15
  3
ACAD_VISUALSTYLE
350
16
  3
EZDXF_META
350
2D
  0
DICTIONARY
  5
B
330
A
100
AcDbDictionary
280
0
281
1
  0
DICTIONARY
  5
C
330
A
100
AcDbDictionary
280
0
281
1
  0
DICTIONARY
  5
D
330
A
100
AcDbDictionary
280
0
281
1
  3
Model
350
1A
  3
Layout1
350
1E
  0
DICTIONARY
  5
E
330
A
100
AcDbDictionary
280
0
281
1
  3
ByBlock
350
1F
  3
ByLayer
350
20
  3
Global
350
21
  0
DICTIONARY
  5
F
330
A
100
AcDbDictionary
280
0
281
1
  3
Standard
350
2C
  0
DICTIONARY
  5
10
330
A
100
AcDbDictionary
280
0
281
1
  3
Standard
350
22
  0
DICTIONARY
  5
11
330
A
100
AcDbDictionary
280
0
281
1
  0
ACDBDICTIONARYWDFLT
  5
12
330
A
100
AcDbDictionary
280
0
281
1
  3
Normal
350
13
100
AcDbDictionaryWithDefault
340
13
  0
ACDBPLACEHOLDER
  5
13
330
12
  0
DICTIONARY
  5
14
330
A
100
AcDbDictionary
280
0
281
1
  0
DICTIONARY
  5
15
330
A
100
AcDbDictionary
280
0
281
1
  0
DICTIONARY
  5
16
330
A
100
AcDbDictionary
280
0
281
1
  0
LAYOUT
  5
1A
330
D
100
AcDbPlotSettings
  1

  2
Adobe PDF
  4
A3
  6

 40
7.5
 41
20.0
 42
7.5
 43
20.0
 44
420.0
 45
297.0
 46
0.0
 47
0.0
 48
0.0
 49
0.0
140
0.0
141
0.0
142
1.0
143
1.0
 70
1024
 72
1
 73
0
 74
5
  7

 75
16
 76
0
 77
2
 78
300
147
1.0
148
0.0
149
0.0
100
AcDbLayout
  1
Model
 70
1
 71
0
 10
0.0
 20
0.0
 11
420.0
 21
297.0
 12
0.0
 22
0.0
 32
0.0
 14
1e+20
 24
1e+20
 34
1e+20
 15
-1e+20
 25
-1e+20
 35
-1e+20
146
0.0
 13
0.0
 23
0.0
 33
0.0
 16
1.0
 26
0.0
 36
0.0
 17
0.0
 27
1.0
 37
0.0
 76
1
330
17
  0
LAYOUT
  5
1E
330
D
100
AcDbPlotSettings
  1

  2
Adobe PDF
  4
A3
  6

 40
7.5
 41
20.0
 42
7.5
 43
20.0
 44
420.0
 45
297.0
 46
0.0
 47
0.0
 48
0.0
 49
0.0
140
0.0
141
0.0
142
1.0
143
1.0
 70
0
 72
1
 73
0
 74
5
  7

 75
16
 76
0
 77
2
 78
300
147
1.0
148
0.0
149
0.0
100
AcDbLayout
  1
Layout1
 70
1
 71
1
 10
0.0
 20
0.0
 11
420.0
 21
297.0
 12
0.0
 22
0.0
 32
0.0
 14
1e+20
 24
1e+20
 34
1e+20
 15
-1e+20
 25
-1e+20
 35
-1e+20
146
0.0
 13
0.0
 23
0.0
 33
0.0
 16
1.0
 26
0.0
 36
0.0
 17
0.0
 27
1.0
 37
0.0
 76
1
330
1B
  0
MATERIAL
  5
1F
102
{ACAD_REACTORS
330
E
102
}
330
E
100
AcDbMaterial
  1
ByBlock
  2

 70
0
 40
1.0
 71
1
 41
1.0
 91
-1023410177
 42
1.0
 72
1
  3

 73
1
 74
1
 75
1
 44
0.5
 73
0
 45
1.0
 46
1.0
 77
1
  4

 78
1
 79
1
170
1
 48
1.0
171
1
  6

172
1
173
1
174
1
140
1.0
141
1.0
175
1
  7

176
1
177
1
178
1
143
1.0
179
1
  8

270
1
271
1
272
1
145
1.0
146
1.0
273
1
  9

274
1
275
1
276
1
 42
1.0
 72
1
  3

 73
1
 74
1
 75
1
 94
63
  0
MATERIAL
  5
20
102
{ACAD_REACTORS
330
E
102
}
330
E
100
AcDbMaterial
  1
ByLayer
  2

 70
0
 40
1.0
 71
1
 41
1.0
 91
-1023410177
 42
1.0
 72
1
  3

 73
1
 74
1
 75
1
 44
0.5
 73
0
 45
1.0
 46
1.0
 77
1
  4

 78
1
 79
1
170
1
 48
1.0
171
1
  6

172
1
173
1
174
1
140
1.0
141
1.0
175
1
  7

176
1
177
1
178
1
143
1.0
179
1
  8

270
1
271
1
272
1
145
1.0
146
1.0
273
1
  9

274
1
275
1
276
1
 42
1.0
 72
1
  3

 73
1
 74
1
 75
1
 94
63
  0
MATERIAL
  5
21
102
{ACAD_REACTORS
330
E
102
}
330
E
100
AcDbMaterial
  1
Global
  2

 70
0
 40
1.0
 71
1
 41
1.0
 91
-1023410177
 42
1.0
 72
1
  3

 73
1
 74
1
 75
1
 44
0.5
 73
0
 45
1.0
 46
1.0
 77
1
  4

 78
1
 79
1
170
1
 48
1.0
171
1
  6

172
1
173
1
174
1
140
1.0
141
1.0
175
1
  7

176
1
177
1
178
1
143
1.0
179
1
  8

270
1
271
1
272
1
145
1.0
146
1.0
273
1
  9

274
1
275
1
276
1
 42
1.0
 72
1
  3

 73
1
 74
1
 75
1
 94
63
  0
MLINESTYLE
  5
22
102
{ACAD_REACTORS
330
10
102
}
330
10
100
AcDbMlineStyle
  2
Standard
 70
0
  3

 62
256
 51
90.0
 52
90.0
 71
2
 49
0.5
 62
256
  6
BYLAYER
 49
-0.5
 62
256
  6
BYLAYER
  0
MLEADERSTYLE
  5
2C
102
{ACAD_REACTORS
330
F
102
}
330
F
100
AcDbMLeaderStyle
179
2
170
2
171
1
172
0
 90
2
 40
0.0
 41
0.0
173
1
 91
-1056964608
 92
-2
290
1
 42
2.0
291
1
 43
8.0
  3
Standard
 44
4.0
300

342
29
174
1
175
1
176
0
178
1
 93
-1056964608
 45
4.0
292
0
297
0
 46
4.0
 94
-1056964608
 47
1.0
 49
1.0
140
1.0
294
1
141
0.0
177
0
142
1.0
295
0
296
0
143
3.75
271
0
272
9
273
9
  0
DICTIONARY
  5
2D
330
A
100
AcDbDictionary
281
1
  3
CREATED_BY_EZDXF
350
2E
  3
WRITTEN_BY_EZDXF
350
4E
  0
DICTIONARYVAR
  5
2E
330
2D
100
DictionaryVariables
280
0
  1
1.1.0 @ 2025-02-03T01:28:27.964809+00:00
  0
DICTIONARYVAR
  5
4E
330
2D
100
DictionaryVariables
280
0
  1
1.1.0 @ 2025-02-03T01:28:27.974298+00:00
  0
ENDSEC
  0
EOF
