  0
SECTION
  2
HEADER
  9
$ACADVER
  1
AC1027
  9
$ACADMAINTVER
 70
105
  9
$DWGCODEPAGE
  3
ANSI_1252
  9
$LASTSAVEDBY
  1
ezdxf
  9
$REQUIREDVERSIONS
160
0
  9
$INSBASE
 10
0.0
 20
0.0
 30
0.0
  9
$EXTMIN
 10
1e+20
 20
1e+20
 30
1e+20
  9
$EXTMAX
 10
-1e+20
 20
-1e+20
 30
-1e+20
  9
$LIMMIN
 10
0.0
 20
0.0
  9
$LIMMAX
 10
420.0
 20
297.0
  9
$ORTHOMODE
 70
0
  9
$REGENMODE
 70
1
  9
$FILLMODE
 70
1
  9
$QTEXTMODE
 70
0
  9
$MIRRTEXT
 70
1
  9
$LTSCALE
 40
1.0
  9
$ATTMODE
 70
1
  9
$TEXTSIZE
 40
2.5
  9
$TRACEWID
 40
1.0
  9
$TEXTSTYLE
  7
Standard
  9
$CLAYER
  8
0
  9
$CELTYPE
  6
ByLayer
  9
$CECOLOR
 62
256
  9
$CELTSCALE
 40
1.0
  9
$DISPSILH
 70
0
  9
$DIMSCALE
 40
1.0
  9
$DIMASZ
 40
2.5
  9
$DIMEXO
 40
0.625
  9
$DIMDLI
 40
3.75
  9
$DIMRND
 40
0.0
  9
$DIMDLE
 40
0.0
  9
$DIMEXE
 40
1.25
  9
$DIMTP
 40
0.0
  9
$DIMTM
 40
0.0
  9
$DIMTXT
 40
2.5
  9
$DIMCEN
 40
2.5
  9
$DIMTSZ
 40
0.0
  9
$DIMTOL
 70
0
  9
$DIMLIM
 70
0
  9
$DIMTIH
 70
0
  9
$DIMTOH
 70
0
  9
$DIMSE1
 70
0
  9
$DIMSE2
 70
0
  9
$DIMTAD
 70
1
  9
$DIMZIN
 70
8
  9
$DIMBLK
  1

  9
$DIMASO
 70
1
  9
$DIMSHO
 70
1
  9
$DIMPOST
  1

  9
$DIMAPOST
  1

  9
$DIMALT
 70
0
  9
$DIMALTD
 70
3
  9
$DIMALTF
 40
0.03937007874
  9
$DIMLFAC
 40
1.0
  9
$DIMTOFL
 70
1
  9
$DIMTVP
 40
0.0
  9
$DIMTIX
 70
0
  9
$DIMSOXD
 70
0
  9
$DIMSAH
 70
0
  9
$DIMBLK1
  1

  9
$DIMBLK2
  1

  9
$DIMSTYLE
  2
ISO-25
  9
$DIMCLRD
 70
0
  9
$DIMCLRE
 70
0
  9
$DIMCLRT
 70
0
  9
$DIMTFAC
 40
1.0
  9
$DIMGAP
 40
0.625
  9
$DIMJUST
 70
0
  9
$DIMSD1
 70
0
  9
$DIMSD2
 70
0
  9
$DIMTOLJ
 70
0
  9
$DIMTZIN
 70
8
  9
$DIMALTZ
 70
0
  9
$DIMALTTZ
 70
0
  9
$DIMUPT
 70
0
  9
$DIMDEC
 70
2
  9
$DIMTDEC
 70
2
  9
$DIMALTU
 70
2
  9
$DIMALTTD
 70
3
  9
$DIMTXSTY
  7
Standard
  9
$DIMAUNIT
 70
0
  9
$DIMADEC
 70
0
  9
$DIMALTRND
 40
0.0
  9
$DIMAZIN
 70
0
  9
$DIMDSEP
 70
44
  9
$DIMATFIT
 70
3
  9
$DIMFRAC
 70
0
  9
$DIMLDRBLK
  1

  9
$DIMLUNIT
 70
2
  9
$DIMLWD
 70
-2
  9
$DIMLWE
 70
-2
  9
$DIMTMOVE
 70
0
  9
$DIMFXL
 40
1.0
  9
$DIMFXLON
 70
0
  9
$DIMJOGANG
 40
0.785398163397
  9
$DIMTFILL
 70
0
  9
$DIMTFILLCLR
 70
0
  9
$DIMARCSYM
 70
0
  9
$DIMLTYPE
  6

  9
$DIMLTEX1
  6

  9
$DIMLTEX2
  6

  9
$DIMTXTDIRECTION
 70
0
  9
$LUNITS
 70
2
  9
$LUPREC
 70
4
  9
$SKETCHINC
 40
1.0
  9
$FILLETRAD
 40
10.0
  9
$AUNITS
 70
0
  9
$AUPREC
 70
2
  9
$MENU
  1
.
  9
$ELEVATION
 40
0.0
  9
$PELEVATION
 40
0.0
  9
$THICKNESS
 40
0.0
  9
$LIMCHECK
 70
0
  9
$CHAMFERA
 40
0.0
  9
$CHAMFERB
 40
0.0
  9
$CHAMFERC
 40
0.0
  9
$CHAMFERD
 40
0.0
  9
$SKPOLY
 70
0
  9
$TDCREATE
 40
2460710.882453704
  9
$TDUCREATE
 40
2458532.153996898
  9
$TDUPDATE
 40
2460710.882453704
  9
$TDUUPDATE
 40
2458532.1544311
  9
$TDINDWG
 40
0.0
  9
$TDUSRTIMER
 40
0.0
  9
$USRTIMER
 70
1
  9
$ANGBASE
 50
0.0
  9
$ANGDIR
 70
0
  9
$PDMODE
 70
0
  9
$PDSIZE
 40
0.0
  9
$PLINEWID
 40
0.0
  9
$SPLFRAME
 70
0
  9
$SPLINETYPE
 70
6
  9
$SPLINESEGS
 70
8
  9
$HANDSEED
  5
93
  9
$SURFTAB1
 70
6
  9
$SURFTAB2
 70
6
  9
$SURFTYPE
 70
6
  9
$SURFU
 70
6
  9
$SURFV
 70
6
  9
$UCSBASE
  2

  9
$UCSNAME
  2

  9
$UCSORG
 10
0.0
 20
0.0
 30
0.0
  9
$UCSXDIR
 10
1.0
 20
0.0
 30
0.0
  9
$UCSYDIR
 10
0.0
 20
1.0
 30
0.0
  9
$UCSORTHOREF
  2

  9
$UCSORTHOVIEW
 70
0
  9
$UCSORGTOP
 10
0.0
 20
0.0
 30
0.0
  9
$UCSORGBOTTOM
 10
0.0
 20
0.0
 30
0.0
  9
$UCSORGLEFT
 10
0.0
 20
0.0
 30
0.0
  9
$UCSORGRIGHT
 10
0.0
 20
0.0
 30
0.0
  9
$UCSORGFRONT
 10
0.0
 20
0.0
 30
0.0
  9
$UCSORGBACK
 10
0.0
 20
0.0
 30
0.0
  9
$PUCSBASE
  2

  9
$PUCSNAME
  2

  9
$PUCSORG
 10
0.0
 20
0.0
 30
0.0
  9
$PUCSXDIR
 10
1.0
 20
0.0
 30
0.0
  9
$PUCSYDIR
 10
0.0
 20
1.0
 30
0.0
  9
$PUCSORTHOREF
  2

  9
$PUCSORTHOVIEW
 70
0
  9
$PUCSORGTOP
 10
0.0
 20
0.0
 30
0.0
  9
$PUCSORGBOTTOM
 10
0.0
 20
0.0
 30
0.0
  9
$PUCSORGLEFT
 10
0.0
 20
0.0
 30
0.0
  9
$PUCSORGRIGHT
 10
0.0
 20
0.0
 30
0.0
  9
$PUCSORGFRONT
 10
0.0
 20
0.0
 30
0.0
  9
$PUCSORGBACK
 10
0.0
 20
0.0
 30
0.0
  9
$USERI1
 70
0
  9
$USERI2
 70
0
  9
$USERI3
 70
0
  9
$USERI4
 70
0
  9
$USERI5
 70
0
  9
$USERR1
 40
0.0
  9
$USERR2
 40
0.0
  9
$USERR3
 40
0.0
  9
$USERR4
 40
0.0
  9
$USERR5
 40
0.0
  9
$WORLDVIEW
 70
1
  9
$SHADEDGE
 70
3
  9
$SHADEDIF
 70
70
  9
$TILEMODE
 70
1
  9
$MAXACTVP
 70
64
  9
$PINSBASE
 10
0.0
 20
0.0
 30
0.0
  9
$PLIMCHECK
 70
0
  9
$PEXTMIN
 10
1e+20
 20
1e+20
 30
1e+20
  9
$PEXTMAX
 10
-1e+20
 20
-1e+20
 30
-1e+20
  9
$PLIMMIN
 10
0.0
 20
0.0
  9
$PLIMMAX
 10
420.0
 20
297.0
  9
$UNITMODE
 70
0
  9
$VISRETAIN
 70
1
  9
$PLINEGEN
 70
0
  9
$PSLTSCALE
 70
1
  9
$TREEDEPTH
 70
3020
  9
$CMLSTYLE
  2
Standard
  9
$CMLJUST
 70
0
  9
$CMLSCALE
 40
20.0
  9
$PROXYGRAPHICS
 70
1
  9
$MEASUREMENT
 70
1
  9
$CELWEIGHT
370
-1
  9
$ENDCAPS
280
0
  9
$JOINSTYLE
280
0
  9
$LWDISPLAY
290
0
  9
$INSUNITS
 70
6
  9
$HYPERLINKBASE
  1

  9
$STYLESHEET
  1

  9
$XEDIT
290
1
  9
$CEPSNTYPE
380
0
  9
$PSTYLEMODE
290
1
  9
$FINGERPRINTGUID
  2
{B6D21E7E-F620-4FCA-A169-E30008D9454E}
  9
$VERSIONGUID
  2
{1E6082CC-24C4-4C8F-8974-552772443FA6}
  9
$EXTNAMES
290
1
  9
$PSVPSCALE
 40
0.0
  9
$OLESTARTUP
290
0
  9
$SORTENTS
280
127
  9
$INDEXCTL
280
0
  9
$HIDETEXT
280
1
  9
$XCLIPFRAME
280
0
  9
$HALOGAP
280
0
  9
$OBSCOLOR
 70
257
  9
$OBSLTYPE
280
0
  9
$INTERSECTIONDISPLAY
280
0
  9
$INTERSECTIONCOLOR
 70
257
  9
$DIMASSOC
280
2
  9
$PROJECTNAME
  1

  9
$CAMERADISPLAY
290
0
  9
$LENSLENGTH
 40
50.0
  9
$CAMERAHEIGHT
 40
0.0
  9
$STEPSPERSEC
 40
24.0
  9
$STEPSIZE
 40
100.0
  9
$3DDWFPREC
 40
2.0
  9
$PSOLWIDTH
 40
0.005
  9
$PSOLHEIGHT
 40
0.08
  9
$LOFTANG1
 40
1.570796326795
  9
$LOFTANG2
 40
1.570796326795
  9
$LOFTMAG1
 40
0.0
  9
$LOFTMAG2
 40
0.0
  9
$LOFTPARAM
 70
7
  9
$LOFTNORMALS
280
1
  9
$LATITUDE
 40
37.795
  9
$LONGITUDE
 40
-122.394
  9
$NORTHDIRECTION
 40
0.0
  9
$TIMEZONE
 70
-8000
  9
$LIGHTGLYPHDISPLAY
280
1
  9
$TILEMODELIGHTSYNCH
280
1
  9
$CMATERIAL
347
20
  9
$SOLIDHIST
280
0
  9
$SHOWHIST
280
1
  9
$DWFFRAME
280
2
  9
$DGNFRAME
280
2
  9
$REALWORLDSCALE
290
1
  9
$INTERFERECOLOR
 62
256
  9
$CSHADOW
280
0
  9
$SHADOWPLANELOCATION
 40
0.0
  0
ENDSEC
  0
SECTION
  2
CLASSES
  0
CLASS
  1
ACDBDICTIONARYWDFLT
  2
AcDbDictionaryWithDefault
  3
ObjectDBX Classes
 90
0
 91
0
280
0
281
0
  0
CLASS
  1
SUN
  2
AcDbSun
  3
SCENEOE
 90
1153
 91
0
280
0
281
0
  0
CLASS
  1
VISUALSTYLE
  2
AcDbVisualStyle
  3
ObjectDBX Classes
 90
4095
 91
0
280
0
281
0
  0
CLASS
  1
MATERIAL
  2
AcDbMaterial
  3
ObjectDBX Classes
 90
1153
 91
0
280
0
281
0
  0
CLASS
  1
SCALE
  2
AcDbScale
  3
ObjectDBX Classes
 90
1153
 91
0
280
0
281
0
  0
CLASS
  1
TABLESTYLE
  2
AcDbTableStyle
  3
ObjectDBX Classes
 90
4095
 91
0
280
0
281
0
  0
CLASS
  1
MLEADERSTYLE
  2
AcDbMLeaderStyle
  3
ACDB_MLEADERSTYLE_CLASS
 90
4095
 91
0
280
0
281
0
  0
CLASS
  1
DICTIONARYVAR
  2
AcDbDictionaryVar
  3
ObjectDBX Classes
 90
0
 91
0
280
0
281
0
  0
CLASS
  1
CELLSTYLEMAP
  2
AcDbCellStyleMap
  3
ObjectDBX Classes
 90
1152
 91
0
280
0
281
0
  0
CLASS
  1
MENTALRAYRENDERSETTINGS
  2
AcDbMentalRayRenderSettings
  3
SCENEOE
 90
1024
 91
0
280
0
281
0
  0
CLASS
  1
ACDBDETAILVIEWSTYLE
  2
AcDbDetailViewStyle
  3
ObjectDBX Classes
 90
1025
 91
0
280
0
281
0
  0
CLASS
  1
ACDBSECTIONVIEWSTYLE
  2
AcDbSectionViewStyle
  3
ObjectDBX Classes
 90
1025
 91
0
280
0
281
0
  0
CLASS
  1
RASTERVARIABLES
  2
AcDbRasterVariables
  3
ISM
 90
0
 91
0
280
0
281
0
  0
CLASS
  1
LAYOUT
  2
AcDbLayout
  3
ObjectDBX Classes
 90
0
 91
0
280
0
281
0
  0
CLASS
  1
ACDBPLACEHOLDER
  2
AcDbPlaceHolder
  3
ObjectDBX Classes
 90
0
 91
0
280
0
281
0
  0
ENDSEC
  0
SECTION
  2
TABLES
  0
TABLE
  2
VPORT
  5
8
330
0
100
AcDbSymbolTable
 70
1
  0
VPORT
  5
23
330
8
100
AcDbSymbolTableRecord
100
AcDbViewportTableRecord
  2
*Active
 70
0
 10
0.0
 20
0.0
 11
1.0
 21
1.0
 12
0.0
 22
0.0
 13
0.0
 23
0.0
 14
0.5
 24
0.5
 15
0.5
 25
0.5
 16
0.0
 26
0.0
 36
1.0
 17
0.0
 27
0.0
 37
0.0
 40
1000.0
 41
1.34
 42
50.0
 43
0.0
 44
0.0
 50
0.0
 51
0.0
 71
0
 72
1000
 73
1
 74
3
 75
0
 76
0
 77
0
 78
0
281
0
 65
0
146
0.0
  0
ENDTAB
  0
TABLE
  2
LTYPE
  5
2
330
0
100
AcDbSymbolTable
 70
3
  0
LTYPE
  5
24
330
2
100
AcDbSymbolTableRecord
100
AcDbLinetypeTableRecord
  2
ByBlock
 70
0
  3

 72
65
 73
0
 40
0.0
  0
LTYPE
  5
25
330
2
100
AcDbSymbolTableRecord
100
AcDbLinetypeTableRecord
  2
ByLayer
 70
0
  3

 72
65
 73
0
 40
0.0
  0
LTYPE
  5
26
330
2
100
AcDbSymbolTableRecord
100
AcDbLinetypeTableRecord
  2
Continuous
 70
0
  3

 72
65
 73
0
 40
0.0
  0
ENDTAB
  0
TABLE
  2
LAYER
  5
1
330
0
100
AcDbSymbolTable
 70
5
  0
LAYER
  5
27
330
1
100
AcDbSymbolTableRecord
100
AcDbLayerTableRecord
  2
0
 70
0
 62
7
  6
Continuous
370
-3
390
13
347
21
  0
LAYER
  5
28
330
1
100
AcDbSymbolTableRecord
100
AcDbLayerTableRecord
  2
Defpoints
 70
0
 62
7
  6
Continuous
290
0
370
-3
390
13
347
21
  0
LAYER
  5
2F
330
1
100
AcDbSymbolTableRecord
100
AcDbLayerTableRecord
  2
conductor
 70
0
 62
1
  6
Continuous
370
-3
390
13
347
21
  0
LAYER
  5
30
330
1
100
AcDbSymbolTableRecord
100
AcDbLayerTableRecord
  2
dielectric
 70
0
 62
8
  6
Continuous
370
-3
390
13
347
21
  0
LAYER
  5
31
330
1
100
AcDbSymbolTableRecord
100
AcDbLayerTableRecord
  2
substrate
 70
0
 62
5
  6
Continuous
370
-3
390
13
347
21
  0
ENDTAB
  0
TABLE
  2
STYLE
  5
5
330
0
100
AcDbSymbolTable
 70
1
  0
STYLE
  5
29
330
5
100
AcDbSymbolTableRecord
100
AcDbTextStyleTableRecord
  2
Standard
 70
0
 40
0.0
 41
1.0
 50
0.0
 71
0
 42
2.5
  3
txt
  4

  0
ENDTAB
  0
TABLE
  2
VIEW
  5
7
330
0
100
AcDbSymbolTable
 70
0
  0
ENDTAB
  0
TABLE
  2
UCS
  5
6
330
0
100
AcDbSymbolTable
 70
0
  0
ENDTAB
  0
TABLE
  2
APPID
  5
3
330
0
100
AcDbSymbolTable
 70
3
  0
APPID
  5
2A
330
3
100
AcDbSymbolTableRecord
100
AcDbRegAppTableRecord
  2
ACAD
 70
0
  0
APPID
  5
90
330
3
100
AcDbSymbolTableRecord
100
AcDbRegAppTableRecord
  2
HATCHBACKGROUNDCOLOR
 70
0
  0
APPID
  5
91
330
3
100
AcDbSymbolTableRecord
100
AcDbRegAppTableRecord
  2
EZDXF
 70
0
  0
ENDTAB
  0
TABLE
  2
DIMSTYLE
  5
4
330
0
100
AcDbSymbolTable
 70
1
100
AcDbDimStyleTable
  0
DIMSTYLE
105
2B
330
4
100
AcDbSymbolTableRecord
100
AcDbDimStyleTableRecord
  2
Standard
 70
0
 40
1.0
 41
2.5
 42
0.625
 43
3.75
 44
1.25
 45
0.0
 46
0.0
 47
0.0
 48
0.0
 49
2.5
140
2.5
141
2.5
142
0.0
143
0.03937007874
144
1.0
145
0.0
146
1.0
147
0.625
148
0.0
 69
0
 70
0
 71
0
 72
0
 73
0
 74
0
 75
0
 76
0
 77
1
 78
8
 79
3
170
0
171
3
172
1
173
0
174
0
175
0
176
0
177
0
178
0
179
2
271
2
272
2
273
2
274
3
275
0
276
0
277
2
278
44
279
0
280
0
281
0
282
0
283
0
284
8
285
0
286
0
288
0
289
3
290
0
371
-2
372
-2
  0
ENDTAB
  0
TABLE
  2
BLOCK_RECORD
  5
9
330
0
100
AcDbSymbolTable
 70
2
  0
BLOCK_RECORD
  5
17
330
9
100
AcDbSymbolTableRecord
100
AcDbBlockTableRecord
  2
*Model_Space
340
1A
 70
0
280
1
281
0
  0
BLOCK_RECORD
  5
1B
330
9
100
AcDbSymbolTableRecord
100
AcDbBlockTableRecord
  2
*Paper_Space
340
1E
 70
0
280
1
281
0
  0
ENDTAB
  0
ENDSEC
  0
SECTION
  2
BLOCKS
  0
BLOCK
  5
18
330
17
100
AcDbEntity
  8
0
100
AcDbBlockBegin
  2
*Model_Space
 70
0
 10
0.0
 20
0.0
 30
0.0
  3
*Model_Space
  1

  0
ENDBLK
  5
19
330
17
100
AcDbEntity
  8
0
100
AcDbBlockEnd
  0
BLOCK
  5
1C
330
1B
100
AcDbEntity
  8
0
100
AcDbBlockBegin
  2
*Paper_Space
 70
0
 10
0.0
 20
0.0
 30
0.0
  3
*Paper_Space
  1

  0
ENDBLK
  5
1D
330
1B
100
AcDbEntity
  8
0
100
AcDbBlockEnd
  0
ENDSEC
  0
SECTION
  2
ENTITIES
  0
LWPOLYLINE
  5
32
330
17
100
AcDbEntity
  8
conductor
100
AcDbPolyline
 90
233
 70
1
 43
0.5
 10
2401.3828125
 20
-2077.38671875
 10
2401.3828125
 20
-2086.916015625
 10
2391.853515625
 20
-2096.4453125
 10
2382.32421875
 20
-2086.916015625
 10
2372.794921875
 20
-2096.4453125
 10
2363.265625
 20
-2096.4453125
 10
2353.736328125
 20
-2105.974609375
 10
2344.20703125
 20
-2105.974609375
 10
2334.677734375
 20
-2105.974609375
 10
2325.1484375
 20
-2105.974609375
 10
2315.619140625
 20
-2115.50390625
 10
2306.08984375
 20
-2115.50390625
 10
2296.560546875
 20
-2115.50390625
 10
2287.03125
 20
-2115.50390625
 10
2277.501953125
 20
-2125.033203125
 10
2267.97265625
 20
-2125.033203125
 10
2258.443359375
 20
-2134.5625
 10
2248.9140625
 20
-2134.5625
 10
2239.384765625
 20
-2134.5625
 10
2229.85546875
 20
-2144.091796875
 10
2220.326171875
 20
-2153.62109375
 10
2220.326171875
 20
-2163.150390625
 10
2210.796875
 20
-2172.6796875
 10
2201.267578125
 20
-2172.6796875
 10
2191.73828125
 20
-2172.6796875
 10
2182.208984375
 20
-2182.208984375
 10
2172.6796875
 20
-2191.73828125
 10
2172.6796875
 20
-2201.267578125
 10
2172.6796875
 20
-2210.796875
 10
2163.150390625
 20
-2220.326171875
 10
2163.150390625
 20
-2229.85546875
 10
2153.62109375
 20
-2239.384765625
 10
2144.091796875
 20
-2239.384765625
 10
2134.5625
 20
-2248.9140625
 10
2125.033203125
 20
-2258.443359375
 10
2115.50390625
 20
-2267.97265625
 10
2105.974609375
 20
-2267.97265625
 10
2115.50390625
 20
-2277.501953125
 10
2105.974609375
 20
-2287.03125
 10
2096.4453125
 20
-2287.03125
 10
2105.974609375
 20
-2296.560546875
 10
2096.4453125
 20
-2306.08984375
 10
2105.974609375
 20
-2315.619140625
 10
2105.974609375
 20
-2325.1484375
 10
2105.974609375
 20
-2334.677734375
 10
2096.4453125
 20
-2344.20703125
 10
2096.4453125
 20
-2353.736328125
 10
2086.916015625
 20
-2363.265625
 10
2077.38671875
 20
-2372.794921875
 10
2077.38671875
 20
-2382.32421875
 10
2077.38671875
 20
-2391.853515625
 10
2077.38671875
 20
-2401.3828125
 10
2086.916015625
 20
-2410.912109375
 10
2077.38671875
 20
-2420.44140625
 10
2086.916015625
 20
-2429.970703125
 10
2086.916015625
 20
-2439.5
 10
2086.916015625
 20
-2449.029296875
 10
2086.916015625
 20
-2458.55859375
 10
2086.916015625
 20
-2468.087890625
 10
2086.916015625
 20
-2477.6171875
 10
2086.916015625
 20
-2487.146484375
 10
2096.4453125
 20
-2496.67578125
 10
2096.4453125
 20
-2506.205078125
 10
2105.974609375
 20
-2515.734375
 10
2096.4453125
 20
-2525.263671875
 10
2096.4453125
 20
-2534.79296875
 10
2096.4453125
 20
-2544.322265625
 10
2105.974609375
 20
-2553.8515625
 10
2105.974609375
 20
-2563.380859375
 10
2115.50390625
 20
-2572.91015625
 10
2125.033203125
 20
-2582.439453125
 10
2134.5625
 20
-2591.96875
 10
2134.5625
 20
-2601.498046875
 10
2134.5625
 20
-2611.02734375
 10
2134.5625
 20
-2620.556640625
 10
2134.5625
 20
-2630.0859375
 10
2144.091796875
 20
-2630.0859375
 10
2153.62109375
 20
-2639.615234375
 10
2163.150390625
 20
-2649.14453125
 10
2172.6796875
 20
-2658.673828125
 10
2182.208984375
 20
-2658.673828125
 10
2191.73828125
 20
-2658.673828125
 10
2201.267578125
 20
-2668.203125
 10
2201.267578125
 20
-2677.732421875
 10
2191.73828125
 20
-2687.26171875
 10
2201.267578125
 20
-2687.26171875
 10
2210.796875
 20
-2696.791015625
 10
2220.326171875
 20
-2706.3203125
 10
2229.85546875
 20
-2715.849609375
 10
2229.85546875
 20
-2725.37890625
 10
2239.384765625
 20
-2725.37890625
 10
2248.9140625
 20
-2734.908203125
 10
2258.443359375
 20
-2725.37890625
 10
2267.97265625
 20
-2734.908203125
 10
2267.97265625
 20
-2744.4375
 10
2277.501953125
 20
-2744.4375
 10
2287.03125
 20
-2744.4375
 10
2296.560546875
 20
-2753.966796875
 10
2306.08984375
 20
-2753.966796875
 10
2315.619140625
 20
-2763.49609375
 10
2325.1484375
 20
-2773.025390625
 10
2334.677734375
 20
-2782.5546875
 10
2344.20703125
 20
-2782.5546875
 10
2353.736328125
 20
-2782.5546875
 10
2363.265625
 20
-2782.5546875
 10
2372.794921875
 20
-2782.5546875
 10
2382.32421875
 20
-2782.5546875
 10
2391.853515625
 20
-2782.5546875
 10
2401.3828125
 20
-2782.5546875
 10
2410.912109375
 20
-2782.5546875
 10
2420.44140625
 20
-2782.5546875
 10
2429.970703125
 20
-2782.5546875
 10
2439.5
 20
-2782.5546875
 10
2449.029296875
 20
-2782.5546875
 10
2458.55859375
 20
-2773.025390625
 10
2468.087890625
 20
-2773.025390625
 10
2477.6171875
 20
-2782.5546875
 10
2487.146484375
 20
-2782.5546875
 10
2496.67578125
 20
-2773.025390625
 10
2506.205078125
 20
-2773.025390625
 10
2515.734375
 20
-2773.025390625
 10
2525.263671875
 20
-2773.025390625
 10
2534.79296875
 20
-2773.025390625
 10
2544.322265625
 20
-2763.49609375
 10
2553.8515625
 20
-2773.025390625
 10
2563.380859375
 20
-2763.49609375
 10
2572.91015625
 20
-2773.025390625
 10
2582.439453125
 20
-2763.49609375
 10
2591.96875
 20
-2763.49609375
 10
2582.439453125
 20
-2753.966796875
 10
2591.96875
 20
-2744.4375
 10
2601.498046875
 20
-2744.4375
 10
2611.02734375
 20
-2734.908203125
 10
2620.556640625
 20
-2734.908203125
 10
2630.0859375
 20
-2725.37890625
 10
2630.0859375
 20
-2715.849609375
 10
2639.615234375
 20
-2706.3203125
 10
2649.14453125
 20
-2715.849609375
 10
2649.14453125
 20
-2706.3203125
 10
2649.14453125
 20
-2696.791015625
 10
2658.673828125
 20
-2687.26171875
 10
2668.203125
 20
-2687.26171875
 10
2677.732421875
 20
-2687.26171875
 10
2687.26171875
 20
-2696.791015625
 10
2687.26171875
 20
-2687.26171875
 10
2687.26171875
 20
-2677.732421875
 10
2687.26171875
 20
-2668.203125
 10
2696.791015625
 20
-2658.673828125
 10
2706.3203125
 20
-2649.14453125
 10
2715.849609375
 20
-2639.615234375
 10
2725.37890625
 20
-2649.14453125
 10
2725.37890625
 20
-2639.615234375
 10
2734.908203125
 20
-2630.0859375
 10
2734.908203125
 20
-2620.556640625
 10
2744.4375
 20
-2611.02734375
 10
2744.4375
 20
-2601.498046875
 10
2744.4375
 20
-2591.96875
 10
2744.4375
 20
-2582.439453125
 10
2753.966796875
 20
-2572.91015625
 10
2753.966796875
 20
-2563.380859375
 10
2763.49609375
 20
-2553.8515625
 10
2773.025390625
 20
-2544.322265625
 10
2773.025390625
 20
-2534.79296875
 10
2773.025390625
 20
-2525.263671875
 10
2773.025390625
 20
-2515.734375
 10
2782.5546875
 20
-2506.205078125
 10
2792.083984375
 20
-2496.67578125
 10
2782.5546875
 20
-2487.146484375
 10
2792.083984375
 20
-2477.6171875
 10
2782.5546875
 20
-2468.087890625
 10
2792.083984375
 20
-2458.55859375
 10
2782.5546875
 20
-2449.029296875
 10
2782.5546875
 20
-2439.5
 10
2773.025390625
 20
-2429.970703125
 10
2782.5546875
 20
-2420.44140625
 10
2773.025390625
 20
-2410.912109375
 10
2782.5546875
 20
-2401.3828125
 10
2773.025390625
 20
-2391.853515625
 10
2773.025390625
 20
-2382.32421875
 10
2773.025390625
 20
-2372.794921875
 10
2773.025390625
 20
-2363.265625
 10
2782.5546875
 20
-2353.736328125
 10
2782.5546875
 20
-2344.20703125
 10
2773.025390625
 20
-2334.677734375
 10
2773.025390625
 20
-2325.1484375
 10
2763.49609375
 20
-2315.619140625
 10
2763.49609375
 20
-2306.08984375
 10
2763.49609375
 20
-2296.560546875
 10
2753.966796875
 20
-2287.03125
 10
2744.4375
 20
-2277.501953125
 10
2744.4375
 20
-2267.97265625
 10
2744.4375
 20
-2258.443359375
 10
2744.4375
 20
-2248.9140625
 10
2734.908203125
 20
-2248.9140625
 10
2725.37890625
 20
-2239.384765625
 10
2715.849609375
 20
-2239.384765625
 10
2706.3203125
 20
-2229.85546875
 10
2696.791015625
 20
-2220.326171875
 10
2696.791015625
 20
-2210.796875
 10
2687.26171875
 20
-2201.267578125
 10
2687.26171875
 20
-2191.73828125
 10
2677.732421875
 20
-2191.73828125
 10
2668.203125
 20
-2182.208984375
 10
2658.673828125
 20
-2172.6796875
 10
2649.14453125
 20
-2163.150390625
 10
2639.615234375
 20
-2163.150390625
 10
2630.0859375
 20
-2153.62109375
 10
2620.556640625
 20
-2153.62109375
 10
2611.02734375
 20
-2144.091796875
 10
2601.498046875
 20
-2134.5625
 10
2591.96875
 20
-2125.033203125
 10
2582.439453125
 20
-2115.50390625
 10
2572.91015625
 20
-2115.50390625
 10
2563.380859375
 20
-2115.50390625
 10
2553.8515625
 20
-2105.974609375
 10
2563.380859375
 20
-2096.4453125
 10
2553.8515625
 20
-2105.974609375
 10
2544.322265625
 20
-2115.50390625
 10
2534.79296875
 20
-2105.974609375
 10
2534.79296875
 20
-2096.4453125
 10
2525.263671875
 20
-2096.4453125
 10
2515.734375
 20
-2096.4453125
 10
2506.205078125
 20
-2086.916015625
 10
2496.67578125
 20
-2096.4453125
 10
2487.146484375
 20
-2096.4453125
 10
2477.6171875
 20
-2096.4453125
 10
2468.087890625
 20
-2086.916015625
 10
2458.55859375
 20
-2086.916015625
 10
2449.029296875
 20
-2077.38671875
 10
2439.5
 20
-2077.38671875
 10
2429.970703125
 20
-2077.38671875
 10
2420.44140625
 20
-2077.38671875
 10
2410.912109375
 20
-2077.38671875
  0
LWPOLYLINE
  5
33
330
17
100
AcDbEntity
  8
conductor
100
AcDbPolyline
 90
4
 70
1
 43
0.5
 10
2296.560546875
 20
-2439.5
 10
2306.08984375
 20
-2429.970703125
 10
2315.619140625
 20
-2439.5
 10
2306.08984375
 20
-2449.029296875
  0
LWPOLYLINE
  5
34
330
17
100
AcDbEntity
  8
conductor
100
AcDbPolyline
 90
4
 70
1
 43
0.5
 10
2277.501953125
 20
-2439.5
 10
2287.03125
 20
-2429.970703125
 10
2296.560546875
 20
-2439.5
 10
2287.03125
 20
-2449.029296875
  0
LWPOLYLINE
  5
35
330
17
100
AcDbEntity
  8
conductor
100
AcDbPolyline
 90
4
 70
1
 43
0.5
 10
2267.97265625
 20
-2353.736328125
 10
2277.501953125
 20
-2344.20703125
 10
2287.03125
 20
-2353.736328125
 10
2277.501953125
 20
-2363.265625
  0
LWPOLYLINE
  5
36
330
17
100
AcDbEntity
  8
conductor
100
AcDbPolyline
 90
4
 70
1
 43
0.5
 10
2744.4375
 20
-2296.560546875
 10
2753.966796875
 20
-2287.03125
 10
2763.49609375
 20
-2296.560546875
 10
2753.966796875
 20
-2306.08984375
  0
LWPOLYLINE
  5
37
330
17
100
AcDbEntity
  8
conductor
100
AcDbPolyline
 90
1
 70
1
 43
0.5
 10
2067.857421875
 20
-1858.212890625
  0
LWPOLYLINE
  5
38
330
17
100
AcDbEntity
  8
substrate
100
AcDbPolyline
 90
2044
 70
1
 43
0.5
 10
0.0
 20
-0.0
 10
0.0
 20
-9.529296875
 10
0.0
 20
-19.05859375
 10
0.0
 20
-28.587890625
 10
0.0
 20
-38.1171875
 10
0.0
 20
-47.646484375
 10
0.0
 20
-57.17578125
 10
0.0
 20
-66.705078125
 10
0.0
 20
-76.234375
 10
0.0
 20
-85.763671875
 10
0.0
 20
-95.29296875
 10
0.0
 20
-104.822265625
 10
0.0
 20
-114.3515625
 10
0.0
 20
-123.880859375
 10
0.0
 20
-133.41015625
 10
0.0
 20
-142.939453125
 10
0.0
 20
-152.46875
 10
0.0
 20
-161.998046875
 10
0.0
 20
-171.52734375
 10
0.0
 20
-181.056640625
 10
0.0
 20
-190.5859375
 10
0.0
 20
-200.115234375
 10
0.0
 20
-209.64453125
 10
0.0
 20
-219.173828125
 10
0.0
 20
-228.703125
 10
0.0
 20
-238.232421875
 10
0.0
 20
-247.76171875
 10
0.0
 20
-257.291015625
 10
0.0
 20
-266.8203125
 10
0.0
 20
-276.349609375
 10
0.0
 20
-285.87890625
 10
0.0
 20
-295.408203125
 10
0.0
 20
-304.9375
 10
0.0
 20
-314.466796875
 10
0.0
 20
-323.99609375
 10
0.0
 20
-333.525390625
 10
0.0
 20
-343.0546875
 10
0.0
 20
-352.583984375
 10
0.0
 20
-362.11328125
 10
0.0
 20
-371.642578125
 10
0.0
 20
-381.171875
 10
0.0
 20
-390.701171875
 10
0.0
 20
-400.23046875
 10
0.0
 20
-409.759765625
 10
0.0
 20
-419.2890625
 10
0.0
 20
-428.818359375
 10
0.0
 20
-438.34765625
 10
0.0
 20
-447.876953125
 10
0.0
 20
-457.40625
 10
0.0
 20
-466.935546875
 10
0.0
 20
-476.46484375
 10
0.0
 20
-485.994140625
 10
0.0
 20
-495.5234375
 10
0.0
 20
-505.052734375
 10
0.0
 20
-514.58203125
 10
0.0
 20
-524.111328125
 10
0.0
 20
-533.640625
 10
0.0
 20
-543.169921875
 10
0.0
 20
-552.69921875
 10
0.0
 20
-562.228515625
 10
0.0
 20
-571.7578125
 10
0.0
 20
-581.287109375
 10
0.0
 20
-590.81640625
 10
0.0
 20
-600.345703125
 10
0.0
 20
-609.875
 10
0.0
 20
-619.404296875
 10
0.0
 20
-628.93359375
 10
0.0
 20
-638.462890625
 10
0.0
 20
-647.9921875
 10
0.0
 20
-657.521484375
 10
0.0
 20
-667.05078125
 10
0.0
 20
-676.580078125
 10
0.0
 20
-686.109375
 10
0.0
 20
-695.638671875
 10
0.0
 20
-705.16796875
 10
0.0
 20
-714.697265625
 10
0.0
 20
-724.2265625
 10
0.0
 20
-733.755859375
 10
0.0
 20
-743.28515625
 10
0.0
 20
-752.814453125
 10
0.0
 20
-762.34375
 10
0.0
 20
-771.873046875
 10
0.0
 20
-781.40234375
 10
0.0
 20
-790.931640625
 10
0.0
 20
-800.4609375
 10
0.0
 20
-809.990234375
 10
0.0
 20
-819.51953125
 10
0.0
 20
-829.048828125
 10
0.0
 20
-838.578125
 10
0.0
 20
-848.107421875
 10
0.0
 20
-857.63671875
 10
0.0
 20
-867.166015625
 10
0.0
 20
-876.6953125
 10
0.0
 20
-886.224609375
 10
0.0
 20
-895.75390625
 10
0.0
 20
-905.283203125
 10
0.0
 20
-914.8125
 10
0.0
 20
-924.341796875
 10
0.0
 20
-933.87109375
 10
0.0
 20
-943.400390625
 10
0.0
 20
-952.9296875
 10
0.0
 20
-962.458984375
 10
0.0
 20
-971.98828125
 10
0.0
 20
-981.517578125
 10
0.0
 20
-991.046875
 10
0.0
 20
-1000.576171875
 10
0.0
 20
-1010.10546875
 10
0.0
 20
-1019.634765625
 10
0.0
 20
-1029.1640625
 10
0.0
 20
-1038.693359375
 10
0.0
 20
-1048.22265625
 10
0.0
 20
-1057.751953125
 10
0.0
 20
-1067.28125
 10
0.0
 20
-1076.810546875
 10
0.0
 20
-1086.33984375
 10
0.0
 20
-1095.869140625
 10
0.0
 20
-1105.3984375
 10
0.0
 20
-1114.927734375
 10
0.0
 20
-1124.45703125
 10
0.0
 20
-1133.986328125
 10
0.0
 20
-1143.515625
 10
0.0
 20
-1153.044921875
 10
0.0
 20
-1162.57421875
 10
0.0
 20
-1172.103515625
 10
0.0
 20
-1181.6328125
 10
0.0
 20
-1191.162109375
 10
0.0
 20
-1200.69140625
 10
0.0
 20
-1210.220703125
 10
0.0
 20
-1219.75
 10
0.0
 20
-1229.279296875
 10
0.0
 20
-1238.80859375
 10
0.0
 20
-1248.337890625
 10
0.0
 20
-1257.8671875
 10
0.0
 20
-1267.396484375
 10
0.0
 20
-1276.92578125
 10
0.0
 20
-1286.455078125
 10
0.0
 20
-1295.984375
 10
0.0
 20
-1305.513671875
 10
0.0
 20
-1315.04296875
 10
0.0
 20
-1324.572265625
 10
0.0
 20
-1334.1015625
 10
0.0
 20
-1343.630859375
 10
0.0
 20
-1353.16015625
 10
0.0
 20
-1362.689453125
 10
0.0
 20
-1372.21875
 10
0.0
 20
-1381.748046875
 10
0.0
 20
-1391.27734375
 10
0.0
 20
-1400.806640625
 10
0.0
 20
-1410.3359375
 10
0.0
 20
-1419.865234375
 10
0.0
 20
-1429.39453125
 10
0.0
 20
-1438.923828125
 10
0.0
 20
-1448.453125
 10
0.0
 20
-1457.982421875
 10
0.0
 20
-1467.51171875
 10
0.0
 20
-1477.041015625
 10
0.0
 20
-1486.5703125
 10
0.0
 20
-1496.099609375
 10
0.0
 20
-1505.62890625
 10
0.0
 20
-1515.158203125
 10
0.0
 20
-1524.6875
 10
0.0
 20
-1534.216796875
 10
0.0
 20
-1543.74609375
 10
0.0
 20
-1553.275390625
 10
0.0
 20
-1562.8046875
 10
0.0
 20
-1572.333984375
 10
0.0
 20
-1581.86328125
 10
0.0
 20
-1591.392578125
 10
0.0
 20
-1600.921875
 10
0.0
 20
-1610.451171875
 10
0.0
 20
-1619.98046875
 10
0.0
 20
-1629.509765625
 10
0.0
 20
-1639.0390625
 10
0.0
 20
-1648.568359375
 10
0.0
 20
-1658.09765625
 10
0.0
 20
-1667.626953125
 10
0.0
 20
-1677.15625
 10
0.0
 20
-1686.685546875
 10
0.0
 20
-1696.21484375
 10
0.0
 20
-1705.744140625
 10
0.0
 20
-1715.2734375
 10
0.0
 20
-1724.802734375
 10
0.0
 20
-1734.33203125
 10
0.0
 20
-1743.861328125
 10
0.0
 20
-1753.390625
 10
0.0
 20
-1762.919921875
 10
0.0
 20
-1772.44921875
 10
0.0
 20
-1781.978515625
 10
0.0
 20
-1791.5078125
 10
0.0
 20
-1801.037109375
 10
0.0
 20
-1810.56640625
 10
0.0
 20
-1820.095703125
 10
0.0
 20
-1829.625
 10
0.0
 20
-1839.154296875
 10
0.0
 20
-1848.68359375
 10
0.0
 20
-1858.212890625
 10
0.0
 20
-1867.7421875
 10
0.0
 20
-1877.271484375
 10
0.0
 20
-1886.80078125
 10
0.0
 20
-1896.330078125
 10
0.0
 20
-1905.859375
 10
0.0
 20
-1915.388671875
 10
0.0
 20
-1924.91796875
 10
0.0
 20
-1934.447265625
 10
0.0
 20
-1943.9765625
 10
0.0
 20
-1953.505859375
 10
0.0
 20
-1963.03515625
 10
0.0
 20
-1972.564453125
 10
0.0
 20
-1982.09375
 10
0.0
 20
-1991.623046875
 10
0.0
 20
-2001.15234375
 10
0.0
 20
-2010.681640625
 10
0.0
 20
-2020.2109375
 10
0.0
 20
-2029.740234375
 10
0.0
 20
-2039.26953125
 10
0.0
 20
-2048.798828125
 10
0.0
 20
-2058.328125
 10
0.0
 20
-2067.857421875
 10
0.0
 20
-2077.38671875
 10
0.0
 20
-2086.916015625
 10
0.0
 20
-2096.4453125
 10
0.0
 20
-2105.974609375
 10
0.0
 20
-2115.50390625
 10
0.0
 20
-2125.033203125
 10
0.0
 20
-2134.5625
 10
0.0
 20
-2144.091796875
 10
0.0
 20
-2153.62109375
 10
0.0
 20
-2163.150390625
 10
0.0
 20
-2172.6796875
 10
0.0
 20
-2182.208984375
 10
0.0
 20
-2191.73828125
 10
0.0
 20
-2201.267578125
 10
0.0
 20
-2210.796875
 10
0.0
 20
-2220.326171875
 10
0.0
 20
-2229.85546875
 10
0.0
 20
-2239.384765625
 10
0.0
 20
-2248.9140625
 10
0.0
 20
-2258.443359375
 10
0.0
 20
-2267.97265625
 10
0.0
 20
-2277.501953125
 10
0.0
 20
-2287.03125
 10
0.0
 20
-2296.560546875
 10
0.0
 20
-2306.08984375
 10
0.0
 20
-2315.619140625
 10
0.0
 20
-2325.1484375
 10
0.0
 20
-2334.677734375
 10
0.0
 20
-2344.20703125
 10
0.0
 20
-2353.736328125
 10
0.0
 20
-2363.265625
 10
0.0
 20
-2372.794921875
 10
0.0
 20
-2382.32421875
 10
0.0
 20
-2391.853515625
 10
0.0
 20
-2401.3828125
 10
0.0
 20
-2410.912109375
 10
0.0
 20
-2420.44140625
 10
0.0
 20
-2429.970703125
 10
0.0
 20
-2439.5
 10
0.0
 20
-2449.029296875
 10
0.0
 20
-2458.55859375
 10
0.0
 20
-2468.087890625
 10
0.0
 20
-2477.6171875
 10
0.0
 20
-2487.146484375
 10
0.0
 20
-2496.67578125
 10
0.0
 20
-2506.205078125
 10
0.0
 20
-2515.734375
 10
0.0
 20
-2525.263671875
 10
0.0
 20
-2534.79296875
 10
0.0
 20
-2544.322265625
 10
0.0
 20
-2553.8515625
 10
0.0
 20
-2563.380859375
 10
0.0
 20
-2572.91015625
 10
0.0
 20
-2582.439453125
 10
0.0
 20
-2591.96875
 10
0.0
 20
-2601.498046875
 10
0.0
 20
-2611.02734375
 10
0.0
 20
-2620.556640625
 10
0.0
 20
-2630.0859375
 10
0.0
 20
-2639.615234375
 10
0.0
 20
-2649.14453125
 10
0.0
 20
-2658.673828125
 10
0.0
 20
-2668.203125
 10
0.0
 20
-2677.732421875
 10
0.0
 20
-2687.26171875
 10
0.0
 20
-2696.791015625
 10
0.0
 20
-2706.3203125
 10
0.0
 20
-2715.849609375
 10
0.0
 20
-2725.37890625
 10
0.0
 20
-2734.908203125
 10
0.0
 20
-2744.4375
 10
0.0
 20
-2753.966796875
 10
0.0
 20
-2763.49609375
 10
0.0
 20
-2773.025390625
 10
0.0
 20
-2782.5546875
 10
0.0
 20
-2792.083984375
 10
0.0
 20
-2801.61328125
 10
0.0
 20
-2811.142578125
 10
0.0
 20
-2820.671875
 10
0.0
 20
-2830.201171875
 10
0.0
 20
-2839.73046875
 10
0.0
 20
-2849.259765625
 10
0.0
 20
-2858.7890625
 10
0.0
 20
-2868.318359375
 10
0.0
 20
-2877.84765625
 10
0.0
 20
-2887.376953125
 10
0.0
 20
-2896.90625
 10
0.0
 20
-2906.435546875
 10
0.0
 20
-2915.96484375
 10
0.0
 20
-2925.494140625
 10
0.0
 20
-2935.0234375
 10
0.0
 20
-2944.552734375
 10
0.0
 20
-2954.08203125
 10
0.0
 20
-2963.611328125
 10
0.0
 20
-2973.140625
 10
0.0
 20
-2982.669921875
 10
0.0
 20
-2992.19921875
 10
0.0
 20
-3001.728515625
 10
0.0
 20
-3011.2578125
 10
0.0
 20
-3020.787109375
 10
0.0
 20
-3030.31640625
 10
0.0
 20
-3039.845703125
 10
0.0
 20
-3049.375
 10
0.0
 20
-3058.904296875
 10
0.0
 20
-3068.43359375
 10
0.0
 20
-3077.962890625
 10
0.0
 20
-3087.4921875
 10
0.0
 20
-3097.021484375
 10
0.0
 20
-3106.55078125
 10
0.0
 20
-3116.080078125
 10
0.0
 20
-3125.609375
 10
0.0
 20
-3135.138671875
 10
0.0
 20
-3144.66796875
 10
0.0
 20
-3154.197265625
 10
0.0
 20
-3163.7265625
 10
0.0
 20
-3173.255859375
 10
0.0
 20
-3182.78515625
 10
0.0
 20
-3192.314453125
 10
0.0
 20
-3201.84375
 10
0.0
 20
-3211.373046875
 10
0.0
 20
-3220.90234375
 10
0.0
 20
-3230.431640625
 10
0.0
 20
-3239.9609375
 10
0.0
 20
-3249.490234375
 10
0.0
 20
-3259.01953125
 10
0.0
 20
-3268.548828125
 10
0.0
 20
-3278.078125
 10
0.0
 20
-3287.607421875
 10
0.0
 20
-3297.13671875
 10
0.0
 20
-3306.666015625
 10
0.0
 20
-3316.1953125
 10
0.0
 20
-3325.724609375
 10
0.0
 20
-3335.25390625
 10
0.0
 20
-3344.783203125
 10
0.0
 20
-3354.3125
 10
0.0
 20
-3363.841796875
 10
0.0
 20
-3373.37109375
 10
0.0
 20
-3382.900390625
 10
0.0
 20
-3392.4296875
 10
0.0
 20
-3401.958984375
 10
0.0
 20
-3411.48828125
 10
0.0
 20
-3421.017578125
 10
0.0
 20
-3430.546875
 10
0.0
 20
-3440.076171875
 10
0.0
 20
-3449.60546875
 10
0.0
 20
-3459.134765625
 10
0.0
 20
-3468.6640625
 10
0.0
 20
-3478.193359375
 10
0.0
 20
-3487.72265625
 10
0.0
 20
-3497.251953125
 10
0.0
 20
-3506.78125
 10
0.0
 20
-3516.310546875
 10
0.0
 20
-3525.83984375
 10
0.0
 20
-3535.369140625
 10
0.0
 20
-3544.8984375
 10
0.0
 20
-3554.427734375
 10
0.0
 20
-3563.95703125
 10
0.0
 20
-3573.486328125
 10
0.0
 20
-3583.015625
 10
0.0
 20
-3592.544921875
 10
0.0
 20
-3602.07421875
 10
0.0
 20
-3611.603515625
 10
0.0
 20
-3621.1328125
 10
0.0
 20
-3630.662109375
 10
0.0
 20
-3640.19140625
 10
0.0
 20
-3649.720703125
 10
0.0
 20
-3659.25
 10
0.0
 20
-3668.779296875
 10
0.0
 20
-3678.30859375
 10
0.0
 20
-3687.837890625
 10
0.0
 20
-3697.3671875
 10
0.0
 20
-3706.896484375
 10
0.0
 20
-3716.42578125
 10
0.0
 20
-3725.955078125
 10
0.0
 20
-3735.484375
 10
0.0
 20
-3745.013671875
 10
0.0
 20
-3754.54296875
 10
0.0
 20
-3764.072265625
 10
0.0
 20
-3773.6015625
 10
0.0
 20
-3783.130859375
 10
0.0
 20
-3792.66015625
 10
0.0
 20
-3802.189453125
 10
0.0
 20
-3811.71875
 10
0.0
 20
-3821.248046875
 10
0.0
 20
-3830.77734375
 10
0.0
 20
-3840.306640625
 10
0.0
 20
-3849.8359375
 10
0.0
 20
-3859.365234375
 10
0.0
 20
-3868.89453125
 10
0.0
 20
-3878.423828125
 10
0.0
 20
-3887.953125
 10
0.0
 20
-3897.482421875
 10
0.0
 20
-3907.01171875
 10
0.0
 20
-3916.541015625
 10
0.0
 20
-3926.0703125
 10
0.0
 20
-3935.599609375
 10
0.0
 20
-3945.12890625
 10
0.0
 20
-3954.658203125
 10
0.0
 20
-3964.1875
 10
0.0
 20
-3973.716796875
 10
0.0
 20
-3983.24609375
 10
0.0
 20
-3992.775390625
 10
0.0
 20
-4002.3046875
 10
0.0
 20
-4011.833984375
 10
0.0
 20
-4021.36328125
 10
0.0
 20
-4030.892578125
 10
0.0
 20
-4040.421875
 10
0.0
 20
-4049.951171875
 10
0.0
 20
-4059.48046875
 10
0.0
 20
-4069.009765625
 10
0.0
 20
-4078.5390625
 10
0.0
 20
-4088.068359375
 10
0.0
 20
-4097.59765625
 10
0.0
 20
-4107.126953125
 10
0.0
 20
-4116.65625
 10
0.0
 20
-4126.185546875
 10
0.0
 20
-4135.71484375
 10
0.0
 20
-4145.244140625
 10
0.0
 20
-4154.7734375
 10
0.0
 20
-4164.302734375
 10
0.0
 20
-4173.83203125
 10
0.0
 20
-4183.361328125
 10
0.0
 20
-4192.890625
 10
0.0
 20
-4202.419921875
 10
0.0
 20
-4211.94921875
 10
0.0
 20
-4221.478515625
 10
0.0
 20
-4231.0078125
 10
0.0
 20
-4240.537109375
 10
0.0
 20
-4250.06640625
 10
0.0
 20
-4259.595703125
 10
0.0
 20
-4269.125
 10
0.0
 20
-4278.654296875
 10
0.0
 20
-4288.18359375
 10
0.0
 20
-4297.712890625
 10
0.0
 20
-4307.2421875
 10
0.0
 20
-4316.771484375
 10
0.0
 20
-4326.30078125
 10
0.0
 20
-4335.830078125
 10
0.0
 20
-4345.359375
 10
0.0
 20
-4354.888671875
 10
0.0
 20
-4364.41796875
 10
0.0
 20
-4373.947265625
 10
0.0
 20
-4383.4765625
 10
0.0
 20
-4393.005859375
 10
0.0
 20
-4402.53515625
 10
0.0
 20
-4412.064453125
 10
0.0
 20
-4421.59375
 10
0.0
 20
-4431.123046875
 10
0.0
 20
-4440.65234375
 10
0.0
 20
-4450.181640625
 10
0.0
 20
-4459.7109375
 10
0.0
 20
-4469.240234375
 10
0.0
 20
-4478.76953125
 10
0.0
 20
-4488.298828125
 10
0.0
 20
-4497.828125
 10
0.0
 20
-4507.357421875
 10
0.0
 20
-4516.88671875
 10
0.0
 20
-4526.416015625
 10
0.0
 20
-4535.9453125
 10
0.0
 20
-4545.474609375
 10
0.0
 20
-4555.00390625
 10
0.0
 20
-4564.533203125
 10
0.0
 20
-4574.0625
 10
0.0
 20
-4583.591796875
 10
0.0
 20
-4593.12109375
 10
0.0
 20
-4602.650390625
 10
0.0
 20
-4612.1796875
 10
0.0
 20
-4621.708984375
 10
0.0
 20
-4631.23828125
 10
0.0
 20
-4640.767578125
 10
0.0
 20
-4650.296875
 10
0.0
 20
-4659.826171875
 10
0.0
 20
-4669.35546875
 10
0.0
 20
-4678.884765625
 10
0.0
 20
-4688.4140625
 10
0.0
 20
-4697.943359375
 10
0.0
 20
-4707.47265625
 10
0.0
 20
-4717.001953125
 10
0.0
 20
-4726.53125
 10
0.0
 20
-4736.060546875
 10
0.0
 20
-4745.58984375
 10
0.0
 20
-4755.119140625
 10
0.0
 20
-4764.6484375
 10
0.0
 20
-4774.177734375
 10
0.0
 20
-4783.70703125
 10
0.0
 20
-4793.236328125
 10
0.0
 20
-4802.765625
 10
0.0
 20
-4812.294921875
 10
0.0
 20
-4821.82421875
 10
0.0
 20
-4831.353515625
 10
0.0
 20
-4840.8828125
 10
0.0
 20
-4850.412109375
 10
0.0
 20
-4859.94140625
 10
0.0
 20
-4869.470703125
 10
9.529296875
 20
-4869.470703125
 10
19.05859375
 20
-4869.470703125
 10
28.587890625
 20
-4869.470703125
 10
38.1171875
 20
-4869.470703125
 10
47.646484375
 20
-4869.470703125
 10
57.17578125
 20
-4869.470703125
 10
66.705078125
 20
-4869.470703125
 10
76.234375
 20
-4869.470703125
 10
85.763671875
 20
-4869.470703125
 10
95.29296875
 20
-4869.470703125
 10
104.822265625
 20
-4869.470703125
 10
114.3515625
 20
-4869.470703125
 10
123.880859375
 20
-4869.470703125
 10
133.41015625
 20
-4869.470703125
 10
142.939453125
 20
-4869.470703125
 10
152.46875
 20
-4869.470703125
 10
161.998046875
 20
-4869.470703125
 10
171.52734375
 20
-4869.470703125
 10
181.056640625
 20
-4869.470703125
 10
190.5859375
 20
-4869.470703125
 10
200.115234375
 20
-4869.470703125
 10
209.64453125
 20
-4869.470703125
 10
219.173828125
 20
-4869.470703125
 10
228.703125
 20
-4869.470703125
 10
238.232421875
 20
-4869.470703125
 10
247.76171875
 20
-4869.470703125
 10
257.291015625
 20
-4869.470703125
 10
266.8203125
 20
-4869.470703125
 10
276.349609375
 20
-4869.470703125
 10
285.87890625
 20
-4869.470703125
 10
295.408203125
 20
-4869.470703125
 10
304.9375
 20
-4869.470703125
 10
314.466796875
 20
-4869.470703125
 10
323.99609375
 20
-4869.470703125
 10
333.525390625
 20
-4869.470703125
 10
343.0546875
 20
-4869.470703125
 10
352.583984375
 20
-4869.470703125
 10
362.11328125
 20
-4869.470703125
 10
371.642578125
 20
-4869.470703125
 10
381.171875
 20
-4869.470703125
 10
390.701171875
 20
-4869.470703125
 10
400.23046875
 20
-4869.470703125
 10
409.759765625
 20
-4869.470703125
 10
419.2890625
 20
-4869.470703125
 10
428.818359375
 20
-4869.470703125
 10
438.34765625
 20
-4869.470703125
 10
447.876953125
 20
-4869.470703125
 10
457.40625
 20
-4869.470703125
 10
466.935546875
 20
-4869.470703125
 10
476.46484375
 20
-4869.470703125
 10
485.994140625
 20
-4869.470703125
 10
495.5234375
 20
-4869.470703125
 10
505.052734375
 20
-4869.470703125
 10
514.58203125
 20
-4869.470703125
 10
524.111328125
 20
-4869.470703125
 10
533.640625
 20
-4869.470703125
 10
543.169921875
 20
-4869.470703125
 10
552.69921875
 20
-4869.470703125
 10
562.228515625
 20
-4869.470703125
 10
571.7578125
 20
-4869.470703125
 10
581.287109375
 20
-4869.470703125
 10
590.81640625
 20
-4869.470703125
 10
600.345703125
 20
-4869.470703125
 10
609.875
 20
-4869.470703125
 10
619.404296875
 20
-4869.470703125
 10
628.93359375
 20
-4869.470703125
 10
638.462890625
 20
-4869.470703125
 10
647.9921875
 20
-4869.470703125
 10
657.521484375
 20
-4869.470703125
 10
667.05078125
 20
-4869.470703125
 10
676.580078125
 20
-4869.470703125
 10
686.109375
 20
-4869.470703125
 10
695.638671875
 20
-4869.470703125
 10
705.16796875
 20
-4869.470703125
 10
714.697265625
 20
-4869.470703125
 10
724.2265625
 20
-4869.470703125
 10
733.755859375
 20
-4869.470703125
 10
743.28515625
 20
-4869.470703125
 10
752.814453125
 20
-4869.470703125
 10
762.34375
 20
-4869.470703125
 10
771.873046875
 20
-4869.470703125
 10
781.40234375
 20
-4869.470703125
 10
790.931640625
 20
-4869.470703125
 10
800.4609375
 20
-4869.470703125
 10
809.990234375
 20
-4869.470703125
 10
819.51953125
 20
-4869.470703125
 10
829.048828125
 20
-4869.470703125
 10
838.578125
 20
-4869.470703125
 10
848.107421875
 20
-4869.470703125
 10
857.63671875
 20
-4869.470703125
 10
867.166015625
 20
-4869.470703125
 10
876.6953125
 20
-4869.470703125
 10
886.224609375
 20
-4869.470703125
 10
895.75390625
 20
-4869.470703125
 10
905.283203125
 20
-4869.470703125
 10
914.8125
 20
-4869.470703125
 10
924.341796875
 20
-4869.470703125
 10
933.87109375
 20
-4869.470703125
 10
943.400390625
 20
-4869.470703125
 10
952.9296875
 20
-4869.470703125
 10
962.458984375
 20
-4869.470703125
 10
971.98828125
 20
-4869.470703125
 10
981.517578125
 20
-4869.470703125
 10
991.046875
 20
-4869.470703125
 10
1000.576171875
 20
-4869.470703125
 10
1010.10546875
 20
-4869.470703125
 10
1019.634765625
 20
-4869.470703125
 10
1029.1640625
 20
-4869.470703125
 10
1038.693359375
 20
-4869.470703125
 10
1048.22265625
 20
-4869.470703125
 10
1057.751953125
 20
-4869.470703125
 10
1067.28125
 20
-4869.470703125
 10
1076.810546875
 20
-4869.470703125
 10
1086.33984375
 20
-4869.470703125
 10
1095.869140625
 20
-4869.470703125
 10
1105.3984375
 20
-4869.470703125
 10
1114.927734375
 20
-4869.470703125
 10
1124.45703125
 20
-4869.470703125
 10
1133.986328125
 20
-4869.470703125
 10
1143.515625
 20
-4869.470703125
 10
1153.044921875
 20
-4869.470703125
 10
1162.57421875
 20
-4869.470703125
 10
1172.103515625
 20
-4869.470703125
 10
1181.6328125
 20
-4869.470703125
 10
1191.162109375
 20
-4869.470703125
 10
1200.69140625
 20
-4869.470703125
 10
1210.220703125
 20
-4869.470703125
 10
1219.75
 20
-4869.470703125
 10
1229.279296875
 20
-4869.470703125
 10
1238.80859375
 20
-4869.470703125
 10
1248.337890625
 20
-4869.470703125
 10
1257.8671875
 20
-4869.470703125
 10
1267.396484375
 20
-4869.470703125
 10
1276.92578125
 20
-4869.470703125
 10
1286.455078125
 20
-4869.470703125
 10
1295.984375
 20
-4869.470703125
 10
1305.513671875
 20
-4869.470703125
 10
1315.04296875
 20
-4869.470703125
 10
1324.572265625
 20
-4869.470703125
 10
1334.1015625
 20
-4869.470703125
 10
1343.630859375
 20
-4869.470703125
 10
1353.16015625
 20
-4869.470703125
 10
1362.689453125
 20
-4869.470703125
 10
1372.21875
 20
-4869.470703125
 10
1381.748046875
 20
-4869.470703125
 10
1391.27734375
 20
-4869.470703125
 10
1400.806640625
 20
-4869.470703125
 10
1410.3359375
 20
-4869.470703125
 10
1419.865234375
 20
-4869.470703125
 10
1429.39453125
 20
-4869.470703125
 10
1438.923828125
 20
-4869.470703125
 10
1448.453125
 20
-4869.470703125
 10
1457.982421875
 20
-4869.470703125
 10
1467.51171875
 20
-4869.470703125
 10
1477.041015625
 20
-4869.470703125
 10
1486.5703125
 20
-4869.470703125
 10
1496.099609375
 20
-4869.470703125
 10
1505.62890625
 20
-4869.470703125
 10
1515.158203125
 20
-4869.470703125
 10
1524.6875
 20
-4869.470703125
 10
1534.216796875
 20
-4869.470703125
 10
1543.74609375
 20
-4869.470703125
 10
1553.275390625
 20
-4869.470703125
 10
1562.8046875
 20
-4869.470703125
 10
1572.333984375
 20
-4869.470703125
 10
1581.86328125
 20
-4869.470703125
 10
1591.392578125
 20
-4869.470703125
 10
1600.921875
 20
-4869.470703125
 10
1610.451171875
 20
-4869.470703125
 10
1619.98046875
 20
-4869.470703125
 10
1629.509765625
 20
-4869.470703125
 10
1639.0390625
 20
-4869.470703125
 10
1648.568359375
 20
-4869.470703125
 10
1658.09765625
 20
-4869.470703125
 10
1667.626953125
 20
-4869.470703125
 10
1677.15625
 20
-4869.470703125
 10
1686.685546875
 20
-4869.470703125
 10
1696.21484375
 20
-4869.470703125
 10
1705.744140625
 20
-4869.470703125
 10
1715.2734375
 20
-4869.470703125
 10
1724.802734375
 20
-4869.470703125
 10
1734.33203125
 20
-4869.470703125
 10
1743.861328125
 20
-4869.470703125
 10
1753.390625
 20
-4869.470703125
 10
1762.919921875
 20
-4869.470703125
 10
1772.44921875
 20
-4869.470703125
 10
1781.978515625
 20
-4869.470703125
 10
1791.5078125
 20
-4869.470703125
 10
1801.037109375
 20
-4869.470703125
 10
1810.56640625
 20
-4869.470703125
 10
1820.095703125
 20
-4869.470703125
 10
1829.625
 20
-4869.470703125
 10
1839.154296875
 20
-4869.470703125
 10
1848.68359375
 20
-4869.470703125
 10
1858.212890625
 20
-4869.470703125
 10
1867.7421875
 20
-4869.470703125
 10
1877.271484375
 20
-4869.470703125
 10
1886.80078125
 20
-4869.470703125
 10
1896.330078125
 20
-4869.470703125
 10
1905.859375
 20
-4869.470703125
 10
1915.388671875
 20
-4869.470703125
 10
1924.91796875
 20
-4869.470703125
 10
1934.447265625
 20
-4869.470703125
 10
1943.9765625
 20
-4869.470703125
 10
1953.505859375
 20
-4869.470703125
 10
1963.03515625
 20
-4869.470703125
 10
1972.564453125
 20
-4869.470703125
 10
1982.09375
 20
-4869.470703125
 10
1991.623046875
 20
-4869.470703125
 10
2001.15234375
 20
-4869.470703125
 10
2010.681640625
 20
-4869.470703125
 10
2020.2109375
 20
-4869.470703125
 10
2029.740234375
 20
-4869.470703125
 10
2039.26953125
 20
-4869.470703125
 10
2048.798828125
 20
-4869.470703125
 10
2058.328125
 20
-4869.470703125
 10
2067.857421875
 20
-4869.470703125
 10
2077.38671875
 20
-4869.470703125
 10
2086.916015625
 20
-4869.470703125
 10
2096.4453125
 20
-4869.470703125
 10
2105.974609375
 20
-4869.470703125
 10
2115.50390625
 20
-4869.470703125
 10
2125.033203125
 20
-4869.470703125
 10
2134.5625
 20
-4869.470703125
 10
2144.091796875
 20
-4869.470703125
 10
2153.62109375
 20
-4869.470703125
 10
2163.150390625
 20
-4869.470703125
 10
2172.6796875
 20
-4869.470703125
 10
2182.208984375
 20
-4869.470703125
 10
2191.73828125
 20
-4869.470703125
 10
2201.267578125
 20
-4869.470703125
 10
2210.796875
 20
-4869.470703125
 10
2220.326171875
 20
-4869.470703125
 10
2229.85546875
 20
-4869.470703125
 10
2239.384765625
 20
-4869.470703125
 10
2248.9140625
 20
-4869.470703125
 10
2258.443359375
 20
-4869.470703125
 10
2267.97265625
 20
-4869.470703125
 10
2277.501953125
 20
-4869.470703125
 10
2287.03125
 20
-4869.470703125
 10
2296.560546875
 20
-4869.470703125
 10
2306.08984375
 20
-4869.470703125
 10
2315.619140625
 20
-4869.470703125
 10
2325.1484375
 20
-4869.470703125
 10
2334.677734375
 20
-4869.470703125
 10
2344.20703125
 20
-4869.470703125
 10
2353.736328125
 20
-4869.470703125
 10
2363.265625
 20
-4869.470703125
 10
2372.794921875
 20
-4869.470703125
 10
2382.32421875
 20
-4869.470703125
 10
2391.853515625
 20
-4869.470703125
 10
2401.3828125
 20
-4869.470703125
 10
2410.912109375
 20
-4869.470703125
 10
2420.44140625
 20
-4869.470703125
 10
2429.970703125
 20
-4869.470703125
 10
2439.5
 20
-4869.470703125
 10
2449.029296875
 20
-4869.470703125
 10
2458.55859375
 20
-4869.470703125
 10
2468.087890625
 20
-4869.470703125
 10
2477.6171875
 20
-4869.470703125
 10
2487.146484375
 20
-4869.470703125
 10
2496.67578125
 20
-4869.470703125
 10
2506.205078125
 20
-4869.470703125
 10
2515.734375
 20
-4869.470703125
 10
2525.263671875
 20
-4869.470703125
 10
2534.79296875
 20
-4869.470703125
 10
2544.322265625
 20
-4869.470703125
 10
2553.8515625
 20
-4869.470703125
 10
2563.380859375
 20
-4869.470703125
 10
2572.91015625
 20
-4869.470703125
 10
2582.439453125
 20
-4869.470703125
 10
2591.96875
 20
-4869.470703125
 10
2601.498046875
 20
-4869.470703125
 10
2611.02734375
 20
-4869.470703125
 10
2620.556640625
 20
-4869.470703125
 10
2630.0859375
 20
-4869.470703125
 10
2639.615234375
 20
-4869.470703125
 10
2649.14453125
 20
-4869.470703125
 10
2658.673828125
 20
-4869.470703125
 10
2668.203125
 20
-4869.470703125
 10
2677.732421875
 20
-4869.470703125
 10
2687.26171875
 20
-4869.470703125
 10
2696.791015625
 20
-4869.470703125
 10
2706.3203125
 20
-4869.470703125
 10
2715.849609375
 20
-4869.470703125
 10
2725.37890625
 20
-4869.470703125
 10
2734.908203125
 20
-4869.470703125
 10
2744.4375
 20
-4869.470703125
 10
2753.966796875
 20
-4869.470703125
 10
2763.49609375
 20
-4869.470703125
 10
2773.025390625
 20
-4869.470703125
 10
2782.5546875
 20
-4869.470703125
 10
2792.083984375
 20
-4869.470703125
 10
2801.61328125
 20
-4869.470703125
 10
2811.142578125
 20
-4869.470703125
 10
2820.671875
 20
-4869.470703125
 10
2830.201171875
 20
-4869.470703125
 10
2839.73046875
 20
-4869.470703125
 10
2849.259765625
 20
-4869.470703125
 10
2858.7890625
 20
-4869.470703125
 10
2868.318359375
 20
-4869.470703125
 10
2877.84765625
 20
-4869.470703125
 10
2887.376953125
 20
-4869.470703125
 10
2896.90625
 20
-4869.470703125
 10
2906.435546875
 20
-4869.470703125
 10
2915.96484375
 20
-4869.470703125
 10
2925.494140625
 20
-4869.470703125
 10
2935.0234375
 20
-4869.470703125
 10
2944.552734375
 20
-4869.470703125
 10
2954.08203125
 20
-4869.470703125
 10
2963.611328125
 20
-4869.470703125
 10
2973.140625
 20
-4869.470703125
 10
2982.669921875
 20
-4869.470703125
 10
2992.19921875
 20
-4869.470703125
 10
3001.728515625
 20
-4869.470703125
 10
3011.2578125
 20
-4869.470703125
 10
3020.787109375
 20
-4869.470703125
 10
3030.31640625
 20
-4869.470703125
 10
3039.845703125
 20
-4869.470703125
 10
3049.375
 20
-4869.470703125
 10
3058.904296875
 20
-4869.470703125
 10
3068.43359375
 20
-4869.470703125
 10
3077.962890625
 20
-4869.470703125
 10
3087.4921875
 20
-4869.470703125
 10
3097.021484375
 20
-4869.470703125
 10
3106.55078125
 20
-4869.470703125
 10
3116.080078125
 20
-4869.470703125
 10
3125.609375
 20
-4869.470703125
 10
3135.138671875
 20
-4869.470703125
 10
3144.66796875
 20
-4869.470703125
 10
3154.197265625
 20
-4869.470703125
 10
3163.7265625
 20
-4869.470703125
 10
3173.255859375
 20
-4869.470703125
 10
3182.78515625
 20
-4869.470703125
 10
3192.314453125
 20
-4869.470703125
 10
3201.84375
 20
-4869.470703125
 10
3211.373046875
 20
-4869.470703125
 10
3220.90234375
 20
-4869.470703125
 10
3230.431640625
 20
-4869.470703125
 10
3239.9609375
 20
-4869.470703125
 10
3249.490234375
 20
-4869.470703125
 10
3259.01953125
 20
-4869.470703125
 10
3268.548828125
 20
-4869.470703125
 10
3278.078125
 20
-4869.470703125
 10
3287.607421875
 20
-4869.470703125
 10
3297.13671875
 20
-4869.470703125
 10
3306.666015625
 20
-4869.470703125
 10
3316.1953125
 20
-4869.470703125
 10
3325.724609375
 20
-4869.470703125
 10
3335.25390625
 20
-4869.470703125
 10
3344.783203125
 20
-4869.470703125
 10
3354.3125
 20
-4869.470703125
 10
3363.841796875
 20
-4869.470703125
 10
3373.37109375
 20
-4869.470703125
 10
3382.900390625
 20
-4869.470703125
 10
3392.4296875
 20
-4869.470703125
 10
3401.958984375
 20
-4869.470703125
 10
3411.48828125
 20
-4869.470703125
 10
3421.017578125
 20
-4869.470703125
 10
3430.546875
 20
-4869.470703125
 10
3440.076171875
 20
-4869.470703125
 10
3449.60546875
 20
-4869.470703125
 10
3459.134765625
 20
-4869.470703125
 10
3468.6640625
 20
-4869.470703125
 10
3478.193359375
 20
-4869.470703125
 10
3487.72265625
 20
-4869.470703125
 10
3497.251953125
 20
-4869.470703125
 10
3506.78125
 20
-4869.470703125
 10
3516.310546875
 20
-4869.470703125
 10
3525.83984375
 20
-4869.470703125
 10
3535.369140625
 20
-4869.470703125
 10
3544.8984375
 20
-4869.470703125
 10
3554.427734375
 20
-4869.470703125
 10
3563.95703125
 20
-4869.470703125
 10
3573.486328125
 20
-4869.470703125
 10
3583.015625
 20
-4869.470703125
 10
3592.544921875
 20
-4869.470703125
 10
3602.07421875
 20
-4869.470703125
 10
3611.603515625
 20
-4869.470703125
 10
3621.1328125
 20
-4869.470703125
 10
3630.662109375
 20
-4869.470703125
 10
3640.19140625
 20
-4869.470703125
 10
3649.720703125
 20
-4869.470703125
 10
3659.25
 20
-4869.470703125
 10
3668.779296875
 20
-4869.470703125
 10
3678.30859375
 20
-4869.470703125
 10
3687.837890625
 20
-4869.470703125
 10
3697.3671875
 20
-4869.470703125
 10
3706.896484375
 20
-4869.470703125
 10
3716.42578125
 20
-4869.470703125
 10
3725.955078125
 20
-4869.470703125
 10
3735.484375
 20
-4869.470703125
 10
3745.013671875
 20
-4869.470703125
 10
3754.54296875
 20
-4869.470703125
 10
3764.072265625
 20
-4869.470703125
 10
3773.6015625
 20
-4869.470703125
 10
3783.130859375
 20
-4869.470703125
 10
3792.66015625
 20
-4869.470703125
 10
3802.189453125
 20
-4869.470703125
 10
3811.71875
 20
-4869.470703125
 10
3821.248046875
 20
-4869.470703125
 10
3830.77734375
 20
-4869.470703125
 10
3840.306640625
 20
-4869.470703125
 10
3849.8359375
 20
-4869.470703125
 10
3859.365234375
 20
-4869.470703125
 10
3868.89453125
 20
-4869.470703125
 10
3878.423828125
 20
-4869.470703125
 10
3887.953125
 20
-4869.470703125
 10
3897.482421875
 20
-4869.470703125
 10
3907.01171875
 20
-4869.470703125
 10
3916.541015625
 20
-4869.470703125
 10
3926.0703125
 20
-4869.470703125
 10
3935.599609375
 20
-4869.470703125
 10
3945.12890625
 20
-4869.470703125
 10
3954.658203125
 20
-4869.470703125
 10
3964.1875
 20
-4869.470703125
 10
3973.716796875
 20
-4869.470703125
 10
3983.24609375
 20
-4869.470703125
 10
3992.775390625
 20
-4869.470703125
 10
4002.3046875
 20
-4869.470703125
 10
4011.833984375
 20
-4869.470703125
 10
4021.36328125
 20
-4869.470703125
 10
4030.892578125
 20
-4869.470703125
 10
4040.421875
 20
-4869.470703125
 10
4049.951171875
 20
-4869.470703125
 10
4059.48046875
 20
-4869.470703125
 10
4069.009765625
 20
-4869.470703125
 10
4078.5390625
 20
-4869.470703125
 10
4088.068359375
 20
-4869.470703125
 10
4097.59765625
 20
-4869.470703125
 10
4107.126953125
 20
-4869.470703125
 10
4116.65625
 20
-4869.470703125
 10
4126.185546875
 20
-4869.470703125
 10
4135.71484375
 20
-4869.470703125
 10
4145.244140625
 20
-4869.470703125
 10
4154.7734375
 20
-4869.470703125
 10
4164.302734375
 20
-4869.470703125
 10
4173.83203125
 20
-4869.470703125
 10
4183.361328125
 20
-4869.470703125
 10
4192.890625
 20
-4869.470703125
 10
4202.419921875
 20
-4869.470703125
 10
4211.94921875
 20
-4869.470703125
 10
4221.478515625
 20
-4869.470703125
 10
4231.0078125
 20
-4869.470703125
 10
4240.537109375
 20
-4869.470703125
 10
4250.06640625
 20
-4869.470703125
 10
4259.595703125
 20
-4869.470703125
 10
4269.125
 20
-4869.470703125
 10
4278.654296875
 20
-4869.470703125
 10
4288.18359375
 20
-4869.470703125
 10
4297.712890625
 20
-4869.470703125
 10
4307.2421875
 20
-4869.470703125
 10
4316.771484375
 20
-4869.470703125
 10
4326.30078125
 20
-4869.470703125
 10
4335.830078125
 20
-4869.470703125
 10
4345.359375
 20
-4869.470703125
 10
4354.888671875
 20
-4869.470703125
 10
4364.41796875
 20
-4869.470703125
 10
4373.947265625
 20
-4869.470703125
 10
4383.4765625
 20
-4869.470703125
 10
4393.005859375
 20
-4869.470703125
 10
4402.53515625
 20
-4869.470703125
 10
4412.064453125
 20
-4869.470703125
 10
4421.59375
 20
-4869.470703125
 10
4431.123046875
 20
-4869.470703125
 10
4440.65234375
 20
-4869.470703125
 10
4450.181640625
 20
-4869.470703125
 10
4459.7109375
 20
-4869.470703125
 10
4469.240234375
 20
-4869.470703125
 10
4478.76953125
 20
-4869.470703125
 10
4488.298828125
 20
-4869.470703125
 10
4497.828125
 20
-4869.470703125
 10
4507.357421875
 20
-4869.470703125
 10
4516.88671875
 20
-4869.470703125
 10
4526.416015625
 20
-4869.470703125
 10
4535.9453125
 20
-4869.470703125
 10
4545.474609375
 20
-4869.470703125
 10
4555.00390625
 20
-4869.470703125
 10
4564.533203125
 20
-4869.470703125
 10
4574.0625
 20
-4869.470703125
 10
4583.591796875
 20
-4869.470703125
 10
4593.12109375
 20
-4869.470703125
 10
4602.650390625
 20
-4869.470703125
 10
4612.1796875
 20
-4869.470703125
 10
4621.708984375
 20
-4869.470703125
 10
4631.23828125
 20
-4869.470703125
 10
4640.767578125
 20
-4869.470703125
 10
4650.296875
 20
-4869.470703125
 10
4659.826171875
 20
-4869.470703125
 10
4669.35546875
 20
-4869.470703125
 10
4678.884765625
 20
-4869.470703125
 10
4688.4140625
 20
-4869.470703125
 10
4697.943359375
 20
-4869.470703125
 10
4707.47265625
 20
-4869.470703125
 10
4717.001953125
 20
-4869.470703125
 10
4726.53125
 20
-4869.470703125
 10
4736.060546875
 20
-4869.470703125
 10
4745.58984375
 20
-4869.470703125
 10
4755.119140625
 20
-4869.470703125
 10
4764.6484375
 20
-4869.470703125
 10
4774.177734375
 20
-4869.470703125
 10
4783.70703125
 20
-4869.470703125
 10
4793.236328125
 20
-4869.470703125
 10
4802.765625
 20
-4869.470703125
 10
4812.294921875
 20
-4869.470703125
 10
4821.82421875
 20
-4869.470703125
 10
4831.353515625
 20
-4869.470703125
 10
4840.8828125
 20
-4869.470703125
 10
4850.412109375
 20
-4869.470703125
 10
4859.94140625
 20
-4869.470703125
 10
4869.470703125
 20
-4869.470703125
 10
4869.470703125
 20
-4859.94140625
 10
4869.470703125
 20
-4850.412109375
 10
4869.470703125
 20
-4840.8828125
 10
4869.470703125
 20
-4831.353515625
 10
4869.470703125
 20
-4821.82421875
 10
4869.470703125
 20
-4812.294921875
 10
4869.470703125
 20
-4802.765625
 10
4869.470703125
 20
-4793.236328125
 10
4869.470703125
 20
-4783.70703125
 10
4869.470703125
 20
-4774.177734375
 10
4869.470703125
 20
-4764.6484375
 10
4869.470703125
 20
-4755.119140625
 10
4869.470703125
 20
-4745.58984375
 10
4869.470703125
 20
-4736.060546875
 10
4869.470703125
 20
-4726.53125
 10
4869.470703125
 20
-4717.001953125
 10
4869.470703125
 20
-4707.47265625
 10
4869.470703125
 20
-4697.943359375
 10
4869.470703125
 20
-4688.4140625
 10
4869.470703125
 20
-4678.884765625
 10
4869.470703125
 20
-4669.35546875
 10
4869.470703125
 20
-4659.826171875
 10
4869.470703125
 20
-4650.296875
 10
4869.470703125
 20
-4640.767578125
 10
4869.470703125
 20
-4631.23828125
 10
4869.470703125
 20
-4621.708984375
 10
4869.470703125
 20
-4612.1796875
 10
4869.470703125
 20
-4602.650390625
 10
4869.470703125
 20
-4593.12109375
 10
4869.470703125
 20
-4583.591796875
 10
4869.470703125
 20
-4574.0625
 10
4869.470703125
 20
-4564.533203125
 10
4869.470703125
 20
-4555.00390625
 10
4869.470703125
 20
-4545.474609375
 10
4869.470703125
 20
-4535.9453125
 10
4869.470703125
 20
-4526.416015625
 10
4869.470703125
 20
-4516.88671875
 10
4869.470703125
 20
-4507.357421875
 10
4869.470703125
 20
-4497.828125
 10
4869.470703125
 20
-4488.298828125
 10
4869.470703125
 20
-4478.76953125
 10
4869.470703125
 20
-4469.240234375
 10
4869.470703125
 20
-4459.7109375
 10
4869.470703125
 20
-4450.181640625
 10
4869.470703125
 20
-4440.65234375
 10
4869.470703125
 20
-4431.123046875
 10
4869.470703125
 20
-4421.59375
 10
4869.470703125
 20
-4412.064453125
 10
4869.470703125
 20
-4402.53515625
 10
4869.470703125
 20
-4393.005859375
 10
4869.470703125
 20
-4383.4765625
 10
4869.470703125
 20
-4373.947265625
 10
4869.470703125
 20
-4364.41796875
 10
4869.470703125
 20
-4354.888671875
 10
4869.470703125
 20
-4345.359375
 10
4869.470703125
 20
-4335.830078125
 10
4869.470703125
 20
-4326.30078125
 10
4869.470703125
 20
-4316.771484375
 10
4869.470703125
 20
-4307.2421875
 10
4869.470703125
 20
-4297.712890625
 10
4869.470703125
 20
-4288.18359375
 10
4869.470703125
 20
-4278.654296875
 10
4869.470703125
 20
-4269.125
 10
4869.470703125
 20
-4259.595703125
 10
4869.470703125
 20
-4250.06640625
 10
4869.470703125
 20
-4240.537109375
 10
4869.470703125
 20
-4231.0078125
 10
4869.470703125
 20
-4221.478515625
 10
4869.470703125
 20
-4211.94921875
 10
4869.470703125
 20
-4202.419921875
 10
4869.470703125
 20
-4192.890625
 10
4869.470703125
 20
-4183.361328125
 10
4869.470703125
 20
-4173.83203125
 10
4869.470703125
 20
-4164.302734375
 10
4869.470703125
 20
-4154.7734375
 10
4869.470703125
 20
-4145.244140625
 10
4869.470703125
 20
-4135.71484375
 10
4869.470703125
 20
-4126.185546875
 10
4869.470703125
 20
-4116.65625
 10
4869.470703125
 20
-4107.126953125
 10
4869.470703125
 20
-4097.59765625
 10
4869.470703125
 20
-4088.068359375
 10
4869.470703125
 20
-4078.5390625
 10
4869.470703125
 20
-4069.009765625
 10
4869.470703125
 20
-4059.48046875
 10
4869.470703125
 20
-4049.951171875
 10
4869.470703125
 20
-4040.421875
 10
4869.470703125
 20
-4030.892578125
 10
4869.470703125
 20
-4021.36328125
 10
4869.470703125
 20
-4011.833984375
 10
4869.470703125
 20
-4002.3046875
 10
4869.470703125
 20
-3992.775390625
 10
4869.470703125
 20
-3983.24609375
 10
4869.470703125
 20
-3973.716796875
 10
4869.470703125
 20
-3964.1875
 10
4869.470703125
 20
-3954.658203125
 10
4869.470703125
 20
-3945.12890625
 10
4869.470703125
 20
-3935.599609375
 10
4869.470703125
 20
-3926.0703125
 10
4869.470703125
 20
-3916.541015625
 10
4869.470703125
 20
-3907.01171875
 10
4869.470703125
 20
-3897.482421875
 10
4869.470703125
 20
-3887.953125
 10
4869.470703125
 20
-3878.423828125
 10
4869.470703125
 20
-3868.89453125
 10
4869.470703125
 20
-3859.365234375
 10
4869.470703125
 20
-3849.8359375
 10
4869.470703125
 20
-3840.306640625
 10
4869.470703125
 20
-3830.77734375
 10
4869.470703125
 20
-3821.248046875
 10
4869.470703125
 20
-3811.71875
 10
4869.470703125
 20
-3802.189453125
 10
4869.470703125
 20
-3792.66015625
 10
4869.470703125
 20
-3783.130859375
 10
4869.470703125
 20
-3773.6015625
 10
4869.470703125
 20
-3764.072265625
 10
4869.470703125
 20
-3754.54296875
 10
4869.470703125
 20
-3745.013671875
 10
4869.470703125
 20
-3735.484375
 10
4869.470703125
 20
-3725.955078125
 10
4869.470703125
 20
-3716.42578125
 10
4869.470703125
 20
-3706.896484375
 10
4869.470703125
 20
-3697.3671875
 10
4869.470703125
 20
-3687.837890625
 10
4869.470703125
 20
-3678.30859375
 10
4869.470703125
 20
-3668.779296875
 10
4869.470703125
 20
-3659.25
 10
4869.470703125
 20
-3649.720703125
 10
4869.470703125
 20
-3640.19140625
 10
4869.470703125
 20
-3630.662109375
 10
4869.470703125
 20
-3621.1328125
 10
4869.470703125
 20
-3611.603515625
 10
4869.470703125
 20
-3602.07421875
 10
4869.470703125
 20
-3592.544921875
 10
4869.470703125
 20
-3583.015625
 10
4869.470703125
 20
-3573.486328125
 10
4869.470703125
 20
-3563.95703125
 10
4869.470703125
 20
-3554.427734375
 10
4869.470703125
 20
-3544.8984375
 10
4869.470703125
 20
-3535.369140625
 10
4869.470703125
 20
-3525.83984375
 10
4869.470703125
 20
-3516.310546875
 10
4869.470703125
 20
-3506.78125
 10
4869.470703125
 20
-3497.251953125
 10
4869.470703125
 20
-3487.72265625
 10
4869.470703125
 20
-3478.193359375
 10
4869.470703125
 20
-3468.6640625
 10
4869.470703125
 20
-3459.134765625
 10
4869.470703125
 20
-3449.60546875
 10
4869.470703125
 20
-3440.076171875
 10
4869.470703125
 20
-3430.546875
 10
4869.470703125
 20
-3421.017578125
 10
4869.470703125
 20
-3411.48828125
 10
4869.470703125
 20
-3401.958984375
 10
4869.470703125
 20
-3392.4296875
 10
4869.470703125
 20
-3382.900390625
 10
4869.470703125
 20
-3373.37109375
 10
4869.470703125
 20
-3363.841796875
 10
4869.470703125
 20
-3354.3125
 10
4869.470703125
 20
-3344.783203125
 10
4869.470703125
 20
-3335.25390625
 10
4869.470703125
 20
-3325.724609375
 10
4869.470703125
 20
-3316.1953125
 10
4869.470703125
 20
-3306.666015625
 10
4869.470703125
 20
-3297.13671875
 10
4869.470703125
 20
-3287.607421875
 10
4869.470703125
 20
-3278.078125
 10
4869.470703125
 20
-3268.548828125
 10
4869.470703125
 20
-3259.01953125
 10
4869.470703125
 20
-3249.490234375
 10
4869.470703125
 20
-3239.9609375
 10
4869.470703125
 20
-3230.431640625
 10
4869.470703125
 20
-3220.90234375
 10
4869.470703125
 20
-3211.373046875
 10
4869.470703125
 20
-3201.84375
 10
4869.470703125
 20
-3192.314453125
 10
4869.470703125
 20
-3182.78515625
 10
4869.470703125
 20
-3173.255859375
 10
4869.470703125
 20
-3163.7265625
 10
4869.470703125
 20
-3154.197265625
 10
4869.470703125
 20
-3144.66796875
 10
4869.470703125
 20
-3135.138671875
 10
4869.470703125
 20
-3125.609375
 10
4869.470703125
 20
-3116.080078125
 10
4869.470703125
 20
-3106.55078125
 10
4869.470703125
 20
-3097.021484375
 10
4869.470703125
 20
-3087.4921875
 10
4869.470703125
 20
-3077.962890625
 10
4869.470703125
 20
-3068.43359375
 10
4869.470703125
 20
-3058.904296875
 10
4869.470703125
 20
-3049.375
 10
4869.470703125
 20
-3039.845703125
 10
4869.470703125
 20
-3030.31640625
 10
4869.470703125
 20
-3020.787109375
 10
4869.470703125
 20
-3011.2578125
 10
4869.470703125
 20
-3001.728515625
 10
4869.470703125
 20
-2992.19921875
 10
4869.470703125
 20
-2982.669921875
 10
4869.470703125
 20
-2973.140625
 10
4869.470703125
 20
-2963.611328125
 10
4869.470703125
 20
-2954.08203125
 10
4869.470703125
 20
-2944.552734375
 10
4869.470703125
 20
-2935.0234375
 10
4869.470703125
 20
-2925.494140625
 10
4869.470703125
 20
-2915.96484375
 10
4869.470703125
 20
-2906.435546875
 10
4869.470703125
 20
-2896.90625
 10
4869.470703125
 20
-2887.376953125
 10
4869.470703125
 20
-2877.84765625
 10
4869.470703125
 20
-2868.318359375
 10
4869.470703125
 20
-2858.7890625
 10
4869.470703125
 20
-2849.259765625
 10
4869.470703125
 20
-2839.73046875
 10
4869.470703125
 20
-2830.201171875
 10
4869.470703125
 20
-2820.671875
 10
4869.470703125
 20
-2811.142578125
 10
4869.470703125
 20
-2801.61328125
 10
4869.470703125
 20
-2792.083984375
 10
4869.470703125
 20
-2782.5546875
 10
4869.470703125
 20
-2773.025390625
 10
4869.470703125
 20
-2763.49609375
 10
4869.470703125
 20
-2753.966796875
 10
4869.470703125
 20
-2744.4375
 10
4869.470703125
 20
-2734.908203125
 10
4869.470703125
 20
-2725.37890625
 10
4869.470703125
 20
-2715.849609375
 10
4869.470703125
 20
-2706.3203125
 10
4869.470703125
 20
-2696.791015625
 10
4869.470703125
 20
-2687.26171875
 10
4869.470703125
 20
-2677.732421875
 10
4869.470703125
 20
-2668.203125
 10
4869.470703125
 20
-2658.673828125
 10
4869.470703125
 20
-2649.14453125
 10
4869.470703125
 20
-2639.615234375
 10
4869.470703125
 20
-2630.0859375
 10
4869.470703125
 20
-2620.556640625
 10
4869.470703125
 20
-2611.02734375
 10
4869.470703125
 20
-2601.498046875
 10
4869.470703125
 20
-2591.96875
 10
4869.470703125
 20
-2582.439453125
 10
4869.470703125
 20
-2572.91015625
 10
4869.470703125
 20
-2563.380859375
 10
4869.470703125
 20
-2553.8515625
 10
4869.470703125
 20
-2544.322265625
 10
4869.470703125
 20
-2534.79296875
 10
4869.470703125
 20
-2525.263671875
 10
4869.470703125
 20
-2515.734375
 10
4869.470703125
 20
-2506.205078125
 10
4869.470703125
 20
-2496.67578125
 10
4869.470703125
 20
-2487.146484375
 10
4869.470703125
 20
-2477.6171875
 10
4869.470703125
 20
-2468.087890625
 10
4869.470703125
 20
-2458.55859375
 10
4869.470703125
 20
-2449.029296875
 10
4869.470703125
 20
-2439.5
 10
4869.470703125
 20
-2429.970703125
 10
4869.470703125
 20
-2420.44140625
 10
4869.470703125
 20
-2410.912109375
 10
4869.470703125
 20
-2401.3828125
 10
4869.470703125
 20
-2391.853515625
 10
4869.470703125
 20
-2382.32421875
 10
4869.470703125
 20
-2372.794921875
 10
4869.470703125
 20
-2363.265625
 10
4869.470703125
 20
-2353.736328125
 10
4869.470703125
 20
-2344.20703125
 10
4869.470703125
 20
-2334.677734375
 10
4869.470703125
 20
-2325.1484375
 10
4869.470703125
 20
-2315.619140625
 10
4869.470703125
 20
-2306.08984375
 10
4869.470703125
 20
-2296.560546875
 10
4869.470703125
 20
-2287.03125
 10
4869.470703125
 20
-2277.501953125
 10
4869.470703125
 20
-2267.97265625
 10
4869.470703125
 20
-2258.443359375
 10
4869.470703125
 20
-2248.9140625
 10
4869.470703125
 20
-2239.384765625
 10
4869.470703125
 20
-2229.85546875
 10
4869.470703125
 20
-2220.326171875
 10
4869.470703125
 20
-2210.796875
 10
4869.470703125
 20
-2201.267578125
 10
4869.470703125
 20
-2191.73828125
 10
4869.470703125
 20
-2182.208984375
 10
4869.470703125
 20
-2172.6796875
 10
4869.470703125
 20
-2163.150390625
 10
4869.470703125
 20
-2153.62109375
 10
4869.470703125
 20
-2144.091796875
 10
4869.470703125
 20
-2134.5625
 10
4869.470703125
 20
-2125.033203125
 10
4869.470703125
 20
-2115.50390625
 10
4869.470703125
 20
-2105.974609375
 10
4869.470703125
 20
-2096.4453125
 10
4869.470703125
 20
-2086.916015625
 10
4869.470703125
 20
-2077.38671875
 10
4869.470703125
 20
-2067.857421875
 10
4869.470703125
 20
-2058.328125
 10
4869.470703125
 20
-2048.798828125
 10
4869.470703125
 20
-2039.26953125
 10
4869.470703125
 20
-2029.740234375
 10
4869.470703125
 20
-2020.2109375
 10
4869.470703125
 20
-2010.681640625
 10
4869.470703125
 20
-2001.15234375
 10
4869.470703125
 20
-1991.623046875
 10
4869.470703125
 20
-1982.09375
 10
4869.470703125
 20
-1972.564453125
 10
4869.470703125
 20
-1963.03515625
 10
4869.470703125
 20
-1953.505859375
 10
4869.470703125
 20
-1943.9765625
 10
4869.470703125
 20
-1934.447265625
 10
4869.470703125
 20
-1924.91796875
 10
4869.470703125
 20
-1915.388671875
 10
4869.470703125
 20
-1905.859375
 10
4869.470703125
 20
-1896.330078125
 10
4869.470703125
 20
-1886.80078125
 10
4869.470703125
 20
-1877.271484375
 10
4869.470703125
 20
-1867.7421875
 10
4869.470703125
 20
-1858.212890625
 10
4869.470703125
 20
-1848.68359375
 10
4869.470703125
 20
-1839.154296875
 10
4869.470703125
 20
-1829.625
 10
4869.470703125
 20
-1820.095703125
 10
4869.470703125
 20
-1810.56640625
 10
4869.470703125
 20
-1801.037109375
 10
4869.470703125
 20
-1791.5078125
 10
4869.470703125
 20
-1781.978515625
 10
4869.470703125
 20
-1772.44921875
 10
4869.470703125
 20
-1762.919921875
 10
4869.470703125
 20
-1753.390625
 10
4869.470703125
 20
-1743.861328125
 10
4869.470703125
 20
-1734.33203125
 10
4869.470703125
 20
-1724.802734375
 10
4869.470703125
 20
-1715.2734375
 10
4869.470703125
 20
-1705.744140625
 10
4869.470703125
 20
-1696.21484375
 10
4869.470703125
 20
-1686.685546875
 10
4869.470703125
 20
-1677.15625
 10
4869.470703125
 20
-1667.626953125
 10
4869.470703125
 20
-1658.09765625
 10
4869.470703125
 20
-1648.568359375
 10
4869.470703125
 20
-1639.0390625
 10
4869.470703125
 20
-1629.509765625
 10
4869.470703125
 20
-1619.98046875
 10
4869.470703125
 20
-1610.451171875
 10
4869.470703125
 20
-1600.921875
 10
4869.470703125
 20
-1591.392578125
 10
4869.470703125
 20
-1581.86328125
 10
4869.470703125
 20
-1572.333984375
 10
4869.470703125
 20
-1562.8046875
 10
4869.470703125
 20
-1553.275390625
 10
4869.470703125
 20
-1543.74609375
 10
4869.470703125
 20
-1534.216796875
 10
4869.470703125
 20
-1524.6875
 10
4869.470703125
 20
-1515.158203125
 10
4869.470703125
 20
-1505.62890625
 10
4869.470703125
 20
-1496.099609375
 10
4869.470703125
 20
-1486.5703125
 10
4869.470703125
 20
-1477.041015625
 10
4869.470703125
 20
-1467.51171875
 10
4869.470703125
 20
-1457.982421875
 10
4869.470703125
 20
-1448.453125
 10
4869.470703125
 20
-1438.923828125
 10
4869.470703125
 20
-1429.39453125
 10
4869.470703125
 20
-1419.865234375
 10
4869.470703125
 20
-1410.3359375
 10
4869.470703125
 20
-1400.806640625
 10
4869.470703125
 20
-1391.27734375
 10
4869.470703125
 20
-1381.748046875
 10
4869.470703125
 20
-1372.21875
 10
4869.470703125
 20
-1362.689453125
 10
4869.470703125
 20
-1353.16015625
 10
4869.470703125
 20
-1343.630859375
 10
4869.470703125
 20
-1334.1015625
 10
4869.470703125
 20
-1324.572265625
 10
4869.470703125
 20
-1315.04296875
 10
4869.470703125
 20
-1305.513671875
 10
4869.470703125
 20
-1295.984375
 10
4869.470703125
 20
-1286.455078125
 10
4869.470703125
 20
-1276.92578125
 10
4869.470703125
 20
-1267.396484375
 10
4869.470703125
 20
-1257.8671875
 10
4869.470703125
 20
-1248.337890625
 10
4869.470703125
 20
-1238.80859375
 10
4869.470703125
 20
-1229.279296875
 10
4869.470703125
 20
-1219.75
 10
4869.470703125
 20
-1210.220703125
 10
4869.470703125
 20
-1200.69140625
 10
4869.470703125
 20
-1191.162109375
 10
4869.470703125
 20
-1181.6328125
 10
4869.470703125
 20
-1172.103515625
 10
4869.470703125
 20
-1162.57421875
 10
4869.470703125
 20
-1153.044921875
 10
4869.470703125
 20
-1143.515625
 10
4869.470703125
 20
-1133.986328125
 10
4869.470703125
 20
-1124.45703125
 10
4869.470703125
 20
-1114.927734375
 10
4869.470703125
 20
-1105.3984375
 10
4869.470703125
 20
-1095.869140625
 10
4869.470703125
 20
-1086.33984375
 10
4869.470703125
 20
-1076.810546875
 10
4869.470703125
 20
-1067.28125
 10
4869.470703125
 20
-1057.751953125
 10
4869.470703125
 20
-1048.22265625
 10
4869.470703125
 20
-1038.693359375
 10
4869.470703125
 20
-1029.1640625
 10
4869.470703125
 20
-1019.634765625
 10
4869.470703125
 20
-1010.10546875
 10
4869.470703125
 20
-1000.576171875
 10
4869.470703125
 20
-991.046875
 10
4869.470703125
 20
-981.517578125
 10
4869.470703125
 20
-971.98828125
 10
4869.470703125
 20
-962.458984375
 10
4869.470703125
 20
-952.9296875
 10
4869.470703125
 20
-943.400390625
 10
4869.470703125
 20
-933.87109375
 10
4869.470703125
 20
-924.341796875
 10
4869.470703125
 20
-914.8125
 10
4869.470703125
 20
-905.283203125
 10
4869.470703125
 20
-895.75390625
 10
4869.470703125
 20
-886.224609375
 10
4869.470703125
 20
-876.6953125
 10
4869.470703125
 20
-867.166015625
 10
4869.470703125
 20
-857.63671875
 10
4869.470703125
 20
-848.107421875
 10
4869.470703125
 20
-838.578125
 10
4869.470703125
 20
-829.048828125
 10
4869.470703125
 20
-819.51953125
 10
4869.470703125
 20
-809.990234375
 10
4869.470703125
 20
-800.4609375
 10
4869.470703125
 20
-790.931640625
 10
4869.470703125
 20
-781.40234375
 10
4869.470703125
 20
-771.873046875
 10
4869.470703125
 20
-762.34375
 10
4869.470703125
 20
-752.814453125
 10
4869.470703125
 20
-743.28515625
 10
4869.470703125
 20
-733.755859375
 10
4869.470703125
 20
-724.2265625
 10
4869.470703125
 20
-714.697265625
 10
4869.470703125
 20
-705.16796875
 10
4869.470703125
 20
-695.638671875
 10
4869.470703125
 20
-686.109375
 10
4869.470703125
 20
-676.580078125
 10
4869.470703125
 20
-667.05078125
 10
4869.470703125
 20
-657.521484375
 10
4869.470703125
 20
-647.9921875
 10
4869.470703125
 20
-638.462890625
 10
4869.470703125
 20
-628.93359375
 10
4869.470703125
 20
-619.404296875
 10
4869.470703125
 20
-609.875
 10
4869.470703125
 20
-600.345703125
 10
4869.470703125
 20
-590.81640625
 10
4869.470703125
 20
-581.287109375
 10
4869.470703125
 20
-571.7578125
 10
4869.470703125
 20
-562.228515625
 10
4869.470703125
 20
-552.69921875
 10
4869.470703125
 20
-543.169921875
 10
4869.470703125
 20
-533.640625
 10
4869.470703125
 20
-524.111328125
 10
4869.470703125
 20
-514.58203125
 10
4869.470703125
 20
-505.052734375
 10
4869.470703125
 20
-495.5234375
 10
4869.470703125
 20
-485.994140625
 10
4869.470703125
 20
-476.46484375
 10
4869.470703125
 20
-466.935546875
 10
4869.470703125
 20
-457.40625
 10
4869.470703125
 20
-447.876953125
 10
4869.470703125
 20
-438.34765625
 10
4869.470703125
 20
-428.818359375
 10
4869.470703125
 20
-419.2890625
 10
4869.470703125
 20
-409.759765625
 10
4869.470703125
 20
-400.23046875
 10
4869.470703125
 20
-390.701171875
 10
4869.470703125
 20
-381.171875
 10
4869.470703125
 20
-371.642578125
 10
4869.470703125
 20
-362.11328125
 10
4869.470703125
 20
-352.583984375
 10
4869.470703125
 20
-343.0546875
 10
4869.470703125
 20
-333.525390625
 10
4869.470703125
 20
-323.99609375
 10
4869.470703125
 20
-314.466796875
 10
4869.470703125
 20
-304.9375
 10
4869.470703125
 20
-295.408203125
 10
4869.470703125
 20
-285.87890625
 10
4869.470703125
 20
-276.349609375
 10
4869.470703125
 20
-266.8203125
 10
4869.470703125
 20
-257.291015625
 10
4869.470703125
 20
-247.76171875
 10
4869.470703125
 20
-238.232421875
 10
4869.470703125
 20
-228.703125
 10
4869.470703125
 20
-219.173828125
 10
4869.470703125
 20
-209.64453125
 10
4869.470703125
 20
-200.115234375
 10
4869.470703125
 20
-190.5859375
 10
4869.470703125
 20
-181.056640625
 10
4869.470703125
 20
-171.52734375
 10
4869.470703125
 20
-161.998046875
 10
4869.470703125
 20
-152.46875
 10
4869.470703125
 20
-142.939453125
 10
4869.470703125
 20
-133.41015625
 10
4869.470703125
 20
-123.880859375
 10
4869.470703125
 20
-114.3515625
 10
4869.470703125
 20
-104.822265625
 10
4869.470703125
 20
-95.29296875
 10
4869.470703125
 20
-85.763671875
 10
4869.470703125
 20
-76.234375
 10
4869.470703125
 20
-66.705078125
 10
4869.470703125
 20
-57.17578125
 10
4869.470703125
 20
-47.646484375
 10
4869.470703125
 20
-38.1171875
 10
4869.470703125
 20
-28.587890625
 10
4869.470703125
 20
-19.05859375
 10
4869.470703125
 20
-9.529296875
 10
4869.470703125
 20
-0.0
 10
4859.94140625
 20
-0.0
 10
4850.412109375
 20
-0.0
 10
4840.8828125
 20
-0.0
 10
4831.353515625
 20
-0.0
 10
4821.82421875
 20
-0.0
 10
4812.294921875
 20
-0.0
 10
4802.765625
 20
-0.0
 10
4793.236328125
 20
-0.0
 10
4783.70703125
 20
-0.0
 10
4774.177734375
 20
-0.0
 10
4764.6484375
 20
-0.0
 10
4755.119140625
 20
-0.0
 10
4745.58984375
 20
-0.0
 10
4736.060546875
 20
-0.0
 10
4726.53125
 20
-0.0
 10
4717.001953125
 20
-0.0
 10
4707.47265625
 20
-0.0
 10
4697.943359375
 20
-0.0
 10
4688.4140625
 20
-0.0
 10
4678.884765625
 20
-0.0
 10
4669.35546875
 20
-0.0
 10
4659.826171875
 20
-0.0
 10
4650.296875
 20
-0.0
 10
4640.767578125
 20
-0.0
 10
4631.23828125
 20
-0.0
 10
4621.708984375
 20
-0.0
 10
4612.1796875
 20
-0.0
 10
4602.650390625
 20
-0.0
 10
4593.12109375
 20
-0.0
 10
4583.591796875
 20
-0.0
 10
4574.0625
 20
-0.0
 10
4564.533203125
 20
-0.0
 10
4555.00390625
 20
-0.0
 10
4545.474609375
 20
-0.0
 10
4535.9453125
 20
-0.0
 10
4526.416015625
 20
-0.0
 10
4516.88671875
 20
-0.0
 10
4507.357421875
 20
-0.0
 10
4497.828125
 20
-0.0
 10
4488.298828125
 20
-0.0
 10
4478.76953125
 20
-0.0
 10
4469.240234375
 20
-0.0
 10
4459.7109375
 20
-0.0
 10
4450.181640625
 20
-0.0
 10
4440.65234375
 20
-0.0
 10
4431.123046875
 20
-0.0
 10
4421.59375
 20
-0.0
 10
4412.064453125
 20
-0.0
 10
4402.53515625
 20
-0.0
 10
4393.005859375
 20
-0.0
 10
4383.4765625
 20
-0.0
 10
4373.947265625
 20
-0.0
 10
4364.41796875
 20
-0.0
 10
4354.888671875
 20
-0.0
 10
4345.359375
 20
-0.0
 10
4335.830078125
 20
-0.0
 10
4326.30078125
 20
-0.0
 10
4316.771484375
 20
-0.0
 10
4307.2421875
 20
-0.0
 10
4297.712890625
 20
-0.0
 10
4288.18359375
 20
-0.0
 10
4278.654296875
 20
-0.0
 10
4269.125
 20
-0.0
 10
4259.595703125
 20
-0.0
 10
4250.06640625
 20
-0.0
 10
4240.537109375
 20
-0.0
 10
4231.0078125
 20
-0.0
 10
4221.478515625
 20
-0.0
 10
4211.94921875
 20
-0.0
 10
4202.419921875
 20
-0.0
 10
4192.890625
 20
-0.0
 10
4183.361328125
 20
-0.0
 10
4173.83203125
 20
-0.0
 10
4164.302734375
 20
-0.0
 10
4154.7734375
 20
-0.0
 10
4145.244140625
 20
-0.0
 10
4135.71484375
 20
-0.0
 10
4126.185546875
 20
-0.0
 10
4116.65625
 20
-0.0
 10
4107.126953125
 20
-0.0
 10
4097.59765625
 20
-0.0
 10
4088.068359375
 20
-0.0
 10
4078.5390625
 20
-0.0
 10
4069.009765625
 20
-0.0
 10
4059.48046875
 20
-0.0
 10
4049.951171875
 20
-0.0
 10
4040.421875
 20
-0.0
 10
4030.892578125
 20
-0.0
 10
4021.36328125
 20
-0.0
 10
4011.833984375
 20
-0.0
 10
4002.3046875
 20
-0.0
 10
3992.775390625
 20
-0.0
 10
3983.24609375
 20
-0.0
 10
3973.716796875
 20
-0.0
 10
3964.1875
 20
-0.0
 10
3954.658203125
 20
-0.0
 10
3945.12890625
 20
-0.0
 10
3935.599609375
 20
-0.0
 10
3926.0703125
 20
-0.0
 10
3916.541015625
 20
-0.0
 10
3907.01171875
 20
-0.0
 10
3897.482421875
 20
-0.0
 10
3887.953125
 20
-0.0
 10
3878.423828125
 20
-0.0
 10
3868.89453125
 20
-0.0
 10
3859.365234375
 20
-0.0
 10
3849.8359375
 20
-0.0
 10
3840.306640625
 20
-0.0
 10
3830.77734375
 20
-0.0
 10
3821.248046875
 20
-0.0
 10
3811.71875
 20
-0.0
 10
3802.189453125
 20
-0.0
 10
3792.66015625
 20
-0.0
 10
3783.130859375
 20
-0.0
 10
3773.6015625
 20
-0.0
 10
3764.072265625
 20
-0.0
 10
3754.54296875
 20
-0.0
 10
3745.013671875
 20
-0.0
 10
3735.484375
 20
-0.0
 10
3725.955078125
 20
-0.0
 10
3716.42578125
 20
-0.0
 10
3706.896484375
 20
-0.0
 10
3697.3671875
 20
-0.0
 10
3687.837890625
 20
-0.0
 10
3678.30859375
 20
-0.0
 10
3668.779296875
 20
-0.0
 10
3659.25
 20
-0.0
 10
3649.720703125
 20
-0.0
 10
3640.19140625
 20
-0.0
 10
3630.662109375
 20
-0.0
 10
3621.1328125
 20
-0.0
 10
3611.603515625
 20
-0.0
 10
3602.07421875
 20
-0.0
 10
3592.544921875
 20
-0.0
 10
3583.015625
 20
-0.0
 10
3573.486328125
 20
-0.0
 10
3563.95703125
 20
-0.0
 10
3554.427734375
 20
-0.0
 10
3544.8984375
 20
-0.0
 10
3535.369140625
 20
-0.0
 10
3525.83984375
 20
-0.0
 10
3516.310546875
 20
-0.0
 10
3506.78125
 20
-0.0
 10
3497.251953125
 20
-0.0
 10
3487.72265625
 20
-0.0
 10
3478.193359375
 20
-0.0
 10
3468.6640625
 20
-0.0
 10
3459.134765625
 20
-0.0
 10
3449.60546875
 20
-0.0
 10
3440.076171875
 20
-0.0
 10
3430.546875
 20
-0.0
 10
3421.017578125
 20
-0.0
 10
3411.48828125
 20
-0.0
 10
3401.958984375
 20
-0.0
 10
3392.4296875
 20
-0.0
 10
3382.900390625
 20
-0.0
 10
3373.37109375
 20
-0.0
 10
3363.841796875
 20
-0.0
 10
3354.3125
 20
-0.0
 10
3344.783203125
 20
-0.0
 10
3335.25390625
 20
-0.0
 10
3325.724609375
 20
-0.0
 10
3316.1953125
 20
-0.0
 10
3306.666015625
 20
-0.0
 10
3297.13671875
 20
-0.0
 10
3287.607421875
 20
-0.0
 10
3278.078125
 20
-0.0
 10
3268.548828125
 20
-0.0
 10
3259.01953125
 20
-0.0
 10
3249.490234375
 20
-0.0
 10
3239.9609375
 20
-0.0
 10
3230.431640625
 20
-0.0
 10
3220.90234375
 20
-0.0
 10
3211.373046875
 20
-0.0
 10
3201.84375
 20
-0.0
 10
3192.314453125
 20
-0.0
 10
3182.78515625
 20
-0.0
 10
3173.255859375
 20
-0.0
 10
3163.7265625
 20
-0.0
 10
3154.197265625
 20
-0.0
 10
3144.66796875
 20
-0.0
 10
3135.138671875
 20
-0.0
 10
3125.609375
 20
-0.0
 10
3116.080078125
 20
-0.0
 10
3106.55078125
 20
-0.0
 10
3097.021484375
 20
-0.0
 10
3087.4921875
 20
-0.0
 10
3077.962890625
 20
-0.0
 10
3068.43359375
 20
-0.0
 10
3058.904296875
 20
-0.0
 10
3049.375
 20
-0.0
 10
3039.845703125
 20
-0.0
 10
3030.31640625
 20
-0.0
 10
3020.787109375
 20
-0.0
 10
3011.2578125
 20
-0.0
 10
3001.728515625
 20
-0.0
 10
2992.19921875
 20
-0.0
 10
2982.669921875
 20
-0.0
 10
2973.140625
 20
-0.0
 10
2963.611328125
 20
-0.0
 10
2954.08203125
 20
-0.0
 10
2944.552734375
 20
-0.0
 10
2935.0234375
 20
-0.0
 10
2925.494140625
 20
-0.0
 10
2915.96484375
 20
-0.0
 10
2906.435546875
 20
-0.0
 10
2896.90625
 20
-0.0
 10
2887.376953125
 20
-0.0
 10
2877.84765625
 20
-0.0
 10
2868.318359375
 20
-0.0
 10
2858.7890625
 20
-0.0
 10
2849.259765625
 20
-0.0
 10
2839.73046875
 20
-0.0
 10
2830.201171875
 20
-0.0
 10
2820.671875
 20
-0.0
 10
2811.142578125
 20
-0.0
 10
2801.61328125
 20
-0.0
 10
2792.083984375
 20
-0.0
 10
2782.5546875
 20
-0.0
 10
2773.025390625
 20
-0.0
 10
2763.49609375
 20
-0.0
 10
2753.966796875
 20
-0.0
 10
2744.4375
 20
-0.0
 10
2734.908203125
 20
-0.0
 10
2725.37890625
 20
-0.0
 10
2715.849609375
 20
-0.0
 10
2706.3203125
 20
-0.0
 10
2696.791015625
 20
-0.0
 10
2687.26171875
 20
-0.0
 10
2677.732421875
 20
-0.0
 10
2668.203125
 20
-0.0
 10
2658.673828125
 20
-0.0
 10
2649.14453125
 20
-0.0
 10
2639.615234375
 20
-0.0
 10
2630.0859375
 20
-0.0
 10
2620.556640625
 20
-0.0
 10
2611.02734375
 20
-0.0
 10
2601.498046875
 20
-0.0
 10
2591.96875
 20
-0.0
 10
2582.439453125
 20
-0.0
 10
2572.91015625
 20
-0.0
 10
2563.380859375
 20
-0.0
 10
2553.8515625
 20
-0.0
 10
2544.322265625
 20
-0.0
 10
2534.79296875
 20
-0.0
 10
2525.263671875
 20
-0.0
 10
2515.734375
 20
-0.0
 10
2506.205078125
 20
-0.0
 10
2496.67578125
 20
-0.0
 10
2487.146484375
 20
-0.0
 10
2477.6171875
 20
-0.0
 10
2468.087890625
 20
-0.0
 10
2458.55859375
 20
-0.0
 10
2449.029296875
 20
-0.0
 10
2439.5
 20
-0.0
 10
2429.970703125
 20
-0.0
 10
2420.44140625
 20
-0.0
 10
2410.912109375
 20
-0.0
 10
2401.3828125
 20
-0.0
 10
2391.853515625
 20
-0.0
 10
2382.32421875
 20
-0.0
 10
2372.794921875
 20
-0.0
 10
2363.265625
 20
-0.0
 10
2353.736328125
 20
-0.0
 10
2344.20703125
 20
-0.0
 10
2334.677734375
 20
-0.0
 10
2325.1484375
 20
-0.0
 10
2315.619140625
 20
-0.0
 10
2306.08984375
 20
-0.0
 10
2296.560546875
 20
-0.0
 10
2287.03125
 20
-0.0
 10
2277.501953125
 20
-0.0
 10
2267.97265625
 20
-0.0
 10
2258.443359375
 20
-0.0
 10
2248.9140625
 20
-0.0
 10
2239.384765625
 20
-0.0
 10
2229.85546875
 20
-0.0
 10
2220.326171875
 20
-0.0
 10
2210.796875
 20
-0.0
 10
2201.267578125
 20
-0.0
 10
2191.73828125
 20
-0.0
 10
2182.208984375
 20
-0.0
 10
2172.6796875
 20
-0.0
 10
2163.150390625
 20
-0.0
 10
2153.62109375
 20
-0.0
 10
2144.091796875
 20
-0.0
 10
2134.5625
 20
-0.0
 10
2125.033203125
 20
-0.0
 10
2115.50390625
 20
-0.0
 10
2105.974609375
 20
-0.0
 10
2096.4453125
 20
-0.0
 10
2086.916015625
 20
-0.0
 10
2077.38671875
 20
-0.0
 10
2067.857421875
 20
-0.0
 10
2058.328125
 20
-0.0
 10
2048.798828125
 20
-0.0
 10
2039.26953125
 20
-0.0
 10
2029.740234375
 20
-0.0
 10
2020.2109375
 20
-0.0
 10
2010.681640625
 20
-0.0
 10
2001.15234375
 20
-0.0
 10
1991.623046875
 20
-0.0
 10
1982.09375
 20
-0.0
 10
1972.564453125
 20
-0.0
 10
1963.03515625
 20
-0.0
 10
1953.505859375
 20
-0.0
 10
1943.9765625
 20
-0.0
 10
1934.447265625
 20
-0.0
 10
1924.91796875
 20
-0.0
 10
1915.388671875
 20
-0.0
 10
1905.859375
 20
-0.0
 10
1896.330078125
 20
-0.0
 10
1886.80078125
 20
-0.0
 10
1877.271484375
 20
-0.0
 10
1867.7421875
 20
-0.0
 10
1858.212890625
 20
-0.0
 10
1848.68359375
 20
-0.0
 10
1839.154296875
 20
-0.0
 10
1829.625
 20
-0.0
 10
1820.095703125
 20
-0.0
 10
1810.56640625
 20
-0.0
 10
1801.037109375
 20
-0.0
 10
1791.5078125
 20
-0.0
 10
1781.978515625
 20
-0.0
 10
1772.44921875
 20
-0.0
 10
1762.919921875
 20
-0.0
 10
1753.390625
 20
-0.0
 10
1743.861328125
 20
-0.0
 10
1734.33203125
 20
-0.0
 10
1724.802734375
 20
-0.0
 10
1715.2734375
 20
-0.0
 10
1705.744140625
 20
-0.0
 10
1696.21484375
 20
-0.0
 10
1686.685546875
 20
-0.0
 10
1677.15625
 20
-0.0
 10
1667.626953125
 20
-0.0
 10
1658.09765625
 20
-0.0
 10
1648.568359375
 20
-0.0
 10
1639.0390625
 20
-0.0
 10
1629.509765625
 20
-0.0
 10
1619.98046875
 20
-0.0
 10
1610.451171875
 20
-0.0
 10
1600.921875
 20
-0.0
 10
1591.392578125
 20
-0.0
 10
1581.86328125
 20
-0.0
 10
1572.333984375
 20
-0.0
 10
1562.8046875
 20
-0.0
 10
1553.275390625
 20
-0.0
 10
1543.74609375
 20
-0.0
 10
1534.216796875
 20
-0.0
 10
1524.6875
 20
-0.0
 10
1515.158203125
 20
-0.0
 10
1505.62890625
 20
-0.0
 10
1496.099609375
 20
-0.0
 10
1486.5703125
 20
-0.0
 10
1477.041015625
 20
-0.0
 10
1467.51171875
 20
-0.0
 10
1457.982421875
 20
-0.0
 10
1448.453125
 20
-0.0
 10
1438.923828125
 20
-0.0
 10
1429.39453125
 20
-0.0
 10
1419.865234375
 20
-0.0
 10
1410.3359375
 20
-0.0
 10
1400.806640625
 20
-0.0
 10
1391.27734375
 20
-0.0
 10
1381.748046875
 20
-0.0
 10
1372.21875
 20
-0.0
 10
1362.689453125
 20
-0.0
 10
1353.16015625
 20
-0.0
 10
1343.630859375
 20
-0.0
 10
1334.1015625
 20
-0.0
 10
1324.572265625
 20
-0.0
 10
1315.04296875
 20
-0.0
 10
1305.513671875
 20
-0.0
 10
1295.984375
 20
-0.0
 10
1286.455078125
 20
-0.0
 10
1276.92578125
 20
-0.0
 10
1267.396484375
 20
-0.0
 10
1257.8671875
 20
-0.0
 10
1248.337890625
 20
-0.0
 10
1238.80859375
 20
-0.0
 10
1229.279296875
 20
-0.0
 10
1219.75
 20
-0.0
 10
1210.220703125
 20
-0.0
 10
1200.69140625
 20
-0.0
 10
1191.162109375
 20
-0.0
 10
1181.6328125
 20
-0.0
 10
1172.103515625
 20
-0.0
 10
1162.57421875
 20
-0.0
 10
1153.044921875
 20
-0.0
 10
1143.515625
 20
-0.0
 10
1133.986328125
 20
-0.0
 10
1124.45703125
 20
-0.0
 10
1114.927734375
 20
-0.0
 10
1105.3984375
 20
-0.0
 10
1095.869140625
 20
-0.0
 10
1086.33984375
 20
-0.0
 10
1076.810546875
 20
-0.0
 10
1067.28125
 20
-0.0
 10
1057.751953125
 20
-0.0
 10
1048.22265625
 20
-0.0
 10
1038.693359375
 20
-0.0
 10
1029.1640625
 20
-0.0
 10
1019.634765625
 20
-0.0
 10
1010.10546875
 20
-0.0
 10
1000.576171875
 20
-0.0
 10
991.046875
 20
-0.0
 10
981.517578125
 20
-0.0
 10
971.98828125
 20
-0.0
 10
962.458984375
 20
-0.0
 10
952.9296875
 20
-0.0
 10
943.400390625
 20
-0.0
 10
933.87109375
 20
-0.0
 10
924.341796875
 20
-0.0
 10
914.8125
 20
-0.0
 10
905.283203125
 20
-0.0
 10
895.75390625
 20
-0.0
 10
886.224609375
 20
-0.0
 10
876.6953125
 20
-0.0
 10
867.166015625
 20
-0.0
 10
857.63671875
 20
-0.0
 10
848.107421875
 20
-0.0
 10
838.578125
 20
-0.0
 10
829.048828125
 20
-0.0
 10
819.51953125
 20
-0.0
 10
809.990234375
 20
-0.0
 10
800.4609375
 20
-0.0
 10
790.931640625
 20
-0.0
 10
781.40234375
 20
-0.0
 10
771.873046875
 20
-0.0
 10
762.34375
 20
-0.0
 10
752.814453125
 20
-0.0
 10
743.28515625
 20
-0.0
 10
733.755859375
 20
-0.0
 10
724.2265625
 20
-0.0
 10
714.697265625
 20
-0.0
 10
705.16796875
 20
-0.0
 10
695.638671875
 20
-0.0
 10
686.109375
 20
-0.0
 10
676.580078125
 20
-0.0
 10
667.05078125
 20
-0.0
 10
657.521484375
 20
-0.0
 10
647.9921875
 20
-0.0
 10
638.462890625
 20
-0.0
 10
628.93359375
 20
-0.0
 10
619.404296875
 20
-0.0
 10
609.875
 20
-0.0
 10
600.345703125
 20
-0.0
 10
590.81640625
 20
-0.0
 10
581.287109375
 20
-0.0
 10
571.7578125
 20
-0.0
 10
562.228515625
 20
-0.0
 10
552.69921875
 20
-0.0
 10
543.169921875
 20
-0.0
 10
533.640625
 20
-0.0
 10
524.111328125
 20
-0.0
 10
514.58203125
 20
-0.0
 10
505.052734375
 20
-0.0
 10
495.5234375
 20
-0.0
 10
485.994140625
 20
-0.0
 10
476.46484375
 20
-0.0
 10
466.935546875
 20
-0.0
 10
457.40625
 20
-0.0
 10
447.876953125
 20
-0.0
 10
438.34765625
 20
-0.0
 10
428.818359375
 20
-0.0
 10
419.2890625
 20
-0.0
 10
409.759765625
 20
-0.0
 10
400.23046875
 20
-0.0
 10
390.701171875
 20
-0.0
 10
381.171875
 20
-0.0
 10
371.642578125
 20
-0.0
 10
362.11328125
 20
-0.0
 10
352.583984375
 20
-0.0
 10
343.0546875
 20
-0.0
 10
333.525390625
 20
-0.0
 10
323.99609375
 20
-0.0
 10
314.466796875
 20
-0.0
 10
304.9375
 20
-0.0
 10
295.408203125
 20
-0.0
 10
285.87890625
 20
-0.0
 10
276.349609375
 20
-0.0
 10
266.8203125
 20
-0.0
 10
257.291015625
 20
-0.0
 10
247.76171875
 20
-0.0
 10
238.232421875
 20
-0.0
 10
228.703125
 20
-0.0
 10
219.173828125
 20
-0.0
 10
209.64453125
 20
-0.0
 10
200.115234375
 20
-0.0
 10
190.5859375
 20
-0.0
 10
181.056640625
 20
-0.0
 10
171.52734375
 20
-0.0
 10
161.998046875
 20
-0.0
 10
152.46875
 20
-0.0
 10
142.939453125
 20
-0.0
 10
133.41015625
 20
-0.0
 10
123.880859375
 20
-0.0
 10
114.3515625
 20
-0.0
 10
104.822265625
 20
-0.0
 10
95.29296875
 20
-0.0
 10
85.763671875
 20
-0.0
 10
76.234375
 20
-0.0
 10
66.705078125
 20
-0.0
 10
57.17578125
 20
-0.0
 10
47.646484375
 20
-0.0
 10
38.1171875
 20
-0.0
 10
28.587890625
 20
-0.0
 10
19.05859375
 20
-0.0
 10
9.529296875
 20
-0.0
  0
LWPOLYLINE
  5
39
330
17
100
AcDbEntity
  8
substrate
100
AcDbPolyline
 90
4
 70
1
 43
0.5
 10
3116.080078125
 20
-4717.001953125
 10
3125.609375
 20
-4707.47265625
 10
3135.138671875
 20
-4717.001953125
 10
3125.609375
 20
-4726.53125
  0
LWPOLYLINE
  5
3A
330
17
100
AcDbEntity
  8
substrate
100
AcDbPolyline
 90
4
 70
1
 43
0.5
 10
2125.033203125
 20
-4202.419921875
 10
2134.5625
 20
-4192.890625
 10
2144.091796875
 20
-4202.419921875
 10
2134.5625
 20
-4211.94921875
  0
LWPOLYLINE
  5
3B
330
17
100
AcDbEntity
  8
substrate
100
AcDbPolyline
 90
4
 70
1
 43
0.5
 10
3440.076171875
 20
-4107.126953125
 10
3449.60546875
 20
-4097.59765625
 10
3459.134765625
 20
-4107.126953125
 10
3449.60546875
 20
-4116.65625
  0
LWPOLYLINE
  5
3C
330
17
100
AcDbEntity
  8
substrate
100
AcDbPolyline
 90
4
 70
1
 43
0.5
 10
686.109375
 20
-4107.126953125
 10
695.638671875
 20
-4097.59765625
 10
705.16796875
 20
-4107.126953125
 10
695.638671875
 20
-4116.65625
  0
LWPOLYLINE
  5
3D
330
17
100
AcDbEntity
  8
substrate
100
AcDbPolyline
 90
6
 70
1
 43
0.5
 10
1172.103515625
 20
-3764.072265625
 10
1181.6328125
 20
-3754.54296875
 10
1191.162109375
 20
-3754.54296875
 10
1200.69140625
 20
-3764.072265625
 10
1191.162109375
 20
-3773.6015625
 10
1181.6328125
 20
-3773.6015625
  0
LWPOLYLINE
  5
3E
330
17
100
AcDbEntity
  8
substrate
100
AcDbPolyline
 90
4
 70
1
 43
0.5
 10
1172.103515625
 20
-3745.013671875
 10
1181.6328125
 20
-3735.484375
 10
1191.162109375
 20
-3745.013671875
 10
1181.6328125
 20
-3754.54296875
  0
LWPOLYLINE
  5
3F
330
17
100
AcDbEntity
  8
substrate
100
AcDbPolyline
 90
6
 70
1
 43
0.5
 10
1905.859375
 20
-3497.251953125
 10
1915.388671875
 20
-3487.72265625
 10
1924.91796875
 20
-3487.72265625
 10
1934.447265625
 20
-3497.251953125
 10
1924.91796875
 20
-3506.78125
 10
1915.388671875
 20
-3506.78125
  0
LWPOLYLINE
  5
40
330
17
100
AcDbEntity
  8
substrate
100
AcDbPolyline
 90
6
 70
1
 43
0.5
 10
1295.984375
 20
-3497.251953125
 10
1305.513671875
 20
-3487.72265625
 10
1315.04296875
 20
-3487.72265625
 10
1324.572265625
 20
-3497.251953125
 10
1315.04296875
 20
-3506.78125
 10
1305.513671875
 20
-3506.78125
  0
LWPOLYLINE
  5
41
330
17
100
AcDbEntity
  8
substrate
100
AcDbPolyline
 90
6
 70
1
 43
0.5
 10
686.109375
 20
-3497.251953125
 10
695.638671875
 20
-3487.72265625
 10
705.16796875
 20
-3487.72265625
 10
714.697265625
 20
-3497.251953125
 10
705.16796875
 20
-3506.78125
 10
695.638671875
 20
-3506.78125
  0
LWPOLYLINE
  5
42
330
17
100
AcDbEntity
  8
substrate
100
AcDbPolyline
 90
4
 70
1
 43
0.5
 10
4640.767578125
 20
-3306.666015625
 10
4650.296875
 20
-3297.13671875
 10
4659.826171875
 20
-3306.666015625
 10
4650.296875
 20
-3316.1953125
  0
LWPOLYLINE
  5
43
330
17
100
AcDbEntity
  8
substrate
100
AcDbPolyline
 90
4
 70
1
 43
0.5
 10
4030.892578125
 20
-3306.666015625
 10
4040.421875
 20
-3297.13671875
 10
4049.951171875
 20
-3306.666015625
 10
4040.421875
 20
-3316.1953125
  0
LWPOLYLINE
  5
44
330
17
100
AcDbEntity
  8
substrate
100
AcDbPolyline
 90
4
 70
1
 43
0.5
 10
2515.734375
 20
-3125.609375
 10
2525.263671875
 20
-3116.080078125
 10
2534.79296875
 20
-3125.609375
 10
2525.263671875
 20
-3135.138671875
  0
LWPOLYLINE
  5
45
330
17
100
AcDbEntity
  8
substrate
100
AcDbPolyline
 90
4
 70
1
 43
0.5
 10
2496.67578125
 20
-3125.609375
 10
2506.205078125
 20
-3116.080078125
 10
2515.734375
 20
-3125.609375
 10
2506.205078125
 20
-3135.138671875
  0
LWPOLYLINE
  5
46
330
17
100
AcDbEntity
  8
substrate
100
AcDbPolyline
 90
4
 70
1
 43
0.5
 10
1762.919921875
 20
-3039.845703125
 10
1772.44921875
 20
-3030.31640625
 10
1781.978515625
 20
-3039.845703125
 10
1772.44921875
 20
-3049.375
  0
LWPOLYLINE
  5
47
330
17
100
AcDbEntity
  8
substrate
100
AcDbPolyline
 90
4
 70
1
 43
0.5
 10
1153.044921875
 20
-3039.845703125
 10
1162.57421875
 20
-3030.31640625
 10
1172.103515625
 20
-3039.845703125
 10
1162.57421875
 20
-3049.375
  0
LWPOLYLINE
  5
48
330
17
100
AcDbEntity
  8
substrate
100
AcDbPolyline
 90
4
 70
1
 43
0.5
 10
4412.064453125
 20
-2982.669921875
 10
4421.59375
 20
-2973.140625
 10
4431.123046875
 20
-2982.669921875
 10
4421.59375
 20
-2992.19921875
  0
LWPOLYLINE
  5
49
330
17
100
AcDbEntity
  8
substrate
100
AcDbPolyline
 90
4
 70
1
 43
0.5
 10
4564.533203125
 20
-2830.201171875
 10
4574.0625
 20
-2820.671875
 10
4583.591796875
 20
-2830.201171875
 10
4574.0625
 20
-2839.73046875
  0
LWPOLYLINE
  5
4A
330
17
100
AcDbEntity
  8
substrate
100
AcDbPolyline
 90
4
 70
1
 43
0.5
 10
4412.064453125
 20
-2830.201171875
 10
4421.59375
 20
-2820.671875
 10
4431.123046875
 20
-2830.201171875
 10
4421.59375
 20
-2839.73046875
  0
LWPOLYLINE
  5
4B
330
17
100
AcDbEntity
  8
substrate
100
AcDbPolyline
 90
4
 70
1
 43
0.5
 10
3954.658203125
 20
-2830.201171875
 10
3964.1875
 20
-2820.671875
 10
3973.716796875
 20
-2830.201171875
 10
3964.1875
 20
-2839.73046875
  0
LWPOLYLINE
  5
4C
330
17
100
AcDbEntity
  8
substrate
100
AcDbPolyline
 90
4
 70
1
 43
0.5
 10
2248.9140625
 20
-2763.49609375
 10
2258.443359375
 20
-2753.966796875
 10
2267.97265625
 20
-2763.49609375
 10
2258.443359375
 20
-2773.025390625
  0
LWPOLYLINE
  5
4D
330
17
100
AcDbEntity
  8
substrate
100
AcDbPolyline
 90
4
 70
1
 43
0.5
 10
2220.326171875
 20
-2763.49609375
 10
2229.85546875
 20
-2753.966796875
 10
2239.384765625
 20
-2763.49609375
 10
2229.85546875
 20
-2773.025390625
  0
LWPOLYLINE
  5
4E
330
17
100
AcDbEntity
  8
substrate
100
AcDbPolyline
 90
4
 70
1
 43
0.5
 10
2639.615234375
 20
-2734.908203125
 10
2649.14453125
 20
-2725.37890625
 10
2658.673828125
 20
-2734.908203125
 10
2649.14453125
 20
-2744.4375
  0
LWPOLYLINE
  5
4F
330
17
100
AcDbEntity
  8
substrate
100
AcDbPolyline
 90
4
 70
1
 43
0.5
 10
2649.14453125
 20
-2725.37890625
 10
2658.673828125
 20
-2715.849609375
 10
2668.203125
 20
-2725.37890625
 10
2658.673828125
 20
-2734.908203125
  0
LWPOLYLINE
  5
50
330
17
100
AcDbEntity
  8
substrate
100
AcDbPolyline
 90
4
 70
1
 43
0.5
 10
4640.767578125
 20
-2696.791015625
 10
4650.296875
 20
-2687.26171875
 10
4659.826171875
 20
-2696.791015625
 10
4650.296875
 20
-2706.3203125
  0
LWPOLYLINE
  5
51
330
17
100
AcDbEntity
  8
substrate
100
AcDbPolyline
 90
4
 70
1
 43
0.5
 10
1057.751953125
 20
-2677.732421875
 10
1067.28125
 20
-2668.203125
 10
1076.810546875
 20
-2677.732421875
 10
1067.28125
 20
-2687.26171875
  0
LWPOLYLINE
  5
52
330
17
100
AcDbEntity
  8
substrate
100
AcDbPolyline
 90
6
 70
1
 43
0.5
 10
705.16796875
 20
-2620.556640625
 10
714.697265625
 20
-2611.02734375
 10
724.2265625
 20
-2611.02734375
 10
733.755859375
 20
-2620.556640625
 10
724.2265625
 20
-2630.0859375
 10
714.697265625
 20
-2630.0859375
  0
LWPOLYLINE
  5
53
330
17
100
AcDbEntity
  8
substrate
100
AcDbPolyline
 90
4
 70
1
 43
0.5
 10
1820.095703125
 20
-2601.498046875
 10
1829.625
 20
-2591.96875
 10
1839.154296875
 20
-2601.498046875
 10
1829.625
 20
-2611.02734375
  0
LWPOLYLINE
  5
54
330
17
100
AcDbEntity
  8
substrate
100
AcDbPolyline
 90
4
 70
1
 43
0.5
 10
4412.064453125
 20
-2372.794921875
 10
4421.59375
 20
-2363.265625
 10
4431.123046875
 20
-2372.794921875
 10
4421.59375
 20
-2382.32421875
  0
LWPOLYLINE
  5
55
330
17
100
AcDbEntity
  8
substrate
100
AcDbPolyline
 90
4
 70
1
 43
0.5
 10
4564.533203125
 20
-2220.326171875
 10
4574.0625
 20
-2210.796875
 10
4583.591796875
 20
-2220.326171875
 10
4574.0625
 20
-2229.85546875
  0
LWPOLYLINE
  5
56
330
17
100
AcDbEntity
  8
substrate
100
AcDbPolyline
 90
4
 70
1
 43
0.5
 10
2887.376953125
 20
-2201.267578125
 10
2896.90625
 20
-2191.73828125
 10
2906.435546875
 20
-2201.267578125
 10
2896.90625
 20
-2210.796875
  0
LWPOLYLINE
  5
57
330
17
100
AcDbEntity
  8
substrate
100
AcDbPolyline
 90
4
 70
1
 43
0.5
 10
2611.02734375
 20
-2105.974609375
 10
2620.556640625
 20
-2096.4453125
 10
2630.0859375
 20
-2105.974609375
 10
2620.556640625
 20
-2115.50390625
  0
LWPOLYLINE
  5
58
330
17
100
AcDbEntity
  8
substrate
100
AcDbPolyline
 90
4
 70
1
 43
0.5
 10
2591.96875
 20
-2105.974609375
 10
2601.498046875
 20
-2096.4453125
 10
2611.02734375
 20
-2105.974609375
 10
2601.498046875
 20
-2115.50390625
  0
LWPOLYLINE
  5
59
330
17
100
AcDbEntity
  8
substrate
100
AcDbPolyline
 90
4
 70
1
 43
0.5
 10
2553.8515625
 20
-2096.4453125
 10
2563.380859375
 20
-2086.916015625
 10
2572.91015625
 20
-2096.4453125
 10
2563.380859375
 20
-2105.974609375
  0
LWPOLYLINE
  5
5A
330
17
100
AcDbEntity
  8
substrate
100
AcDbPolyline
 90
4
 70
1
 43
0.5
 10
4640.767578125
 20
-2086.916015625
 10
4650.296875
 20
-2077.38671875
 10
4659.826171875
 20
-2086.916015625
 10
4650.296875
 20
-2096.4453125
  0
LWPOLYLINE
  5
5B
330
17
100
AcDbEntity
  8
substrate
100
AcDbPolyline
 90
4
 70
1
 43
0.5
 10
4564.533203125
 20
-2067.857421875
 10
4574.0625
 20
-2058.328125
 10
4583.591796875
 20
-2067.857421875
 10
4574.0625
 20
-2077.38671875
  0
LWPOLYLINE
  5
5C
330
17
100
AcDbEntity
  8
substrate
100
AcDbPolyline
 90
259
 70
1
 43
0.5
 10
2420.44140625
 20
-2067.857421875
 10
2429.970703125
 20
-2058.328125
 10
2439.5
 20
-2058.328125
 10
2449.029296875
 20
-2058.328125
 10
2458.55859375
 20
-2067.857421875
 10
2468.087890625
 20
-2067.857421875
 10
2477.6171875
 20
-2067.857421875
 10
2487.146484375
 20
-2077.38671875
 10
2487.146484375
 20
-2086.916015625
 10
2496.67578125
 20
-2086.916015625
 10
2496.67578125
 20
-2077.38671875
 10
2506.205078125
 20
-2067.857421875
 10
2515.734375
 20
-2077.38671875
 10
2515.734375
 20
-2086.916015625
 10
2525.263671875
 20
-2086.916015625
 10
2534.79296875
 20
-2086.916015625
 10
2544.322265625
 20
-2086.916015625
 10
2553.8515625
 20
-2096.4453125
 10
2563.380859375
 20
-2105.974609375
 10
2572.91015625
 20
-2096.4453125
 10
2582.439453125
 20
-2096.4453125
 10
2591.96875
 20
-2105.974609375
 10
2591.96875
 20
-2115.50390625
 10
2601.498046875
 20
-2115.50390625
 10
2611.02734375
 20
-2125.033203125
 10
2620.556640625
 20
-2125.033203125
 10
2630.0859375
 20
-2134.5625
 10
2630.0859375
 20
-2144.091796875
 10
2639.615234375
 20
-2144.091796875
 10
2649.14453125
 20
-2153.62109375
 10
2658.673828125
 20
-2163.150390625
 10
2668.203125
 20
-2172.6796875
 10
2677.732421875
 20
-2172.6796875
 10
2687.26171875
 20
-2172.6796875
 10
2696.791015625
 20
-2182.208984375
 10
2696.791015625
 20
-2191.73828125
 10
2696.791015625
 20
-2201.267578125
 10
2706.3203125
 20
-2210.796875
 10
2715.849609375
 20
-2210.796875
 10
2725.37890625
 20
-2220.326171875
 10
2725.37890625
 20
-2229.85546875
 10
2734.908203125
 20
-2229.85546875
 10
2744.4375
 20
-2229.85546875
 10
2753.966796875
 20
-2239.384765625
 10
2753.966796875
 20
-2248.9140625
 10
2763.49609375
 20
-2258.443359375
 10
2763.49609375
 20
-2267.97265625
 10
2763.49609375
 20
-2277.501953125
 10
2763.49609375
 20
-2287.03125
 10
2773.025390625
 20
-2296.560546875
 10
2782.5546875
 20
-2306.08984375
 10
2782.5546875
 20
-2315.619140625
 10
2782.5546875
 20
-2325.1484375
 10
2792.083984375
 20
-2334.677734375
 10
2792.083984375
 20
-2344.20703125
 10
2792.083984375
 20
-2353.736328125
 10
2792.083984375
 20
-2363.265625
 10
2792.083984375
 20
-2372.794921875
 10
2792.083984375
 20
-2382.32421875
 10
2792.083984375
 20
-2391.853515625
 10
2792.083984375
 20
-2401.3828125
 10
2792.083984375
 20
-2410.912109375
 10
2801.61328125
 20
-2420.44140625
 10
2792.083984375
 20
-2429.970703125
 10
2792.083984375
 20
-2439.5
 10
2792.083984375
 20
-2449.029296875
 10
2801.61328125
 20
-2458.55859375
 10
2801.61328125
 20
-2468.087890625
 10
2801.61328125
 20
-2477.6171875
 10
2801.61328125
 20
-2487.146484375
 10
2801.61328125
 20
-2496.67578125
 10
2801.61328125
 20
-2506.205078125
 10
2801.61328125
 20
-2515.734375
 10
2792.083984375
 20
-2525.263671875
 10
2782.5546875
 20
-2525.263671875
 10
2782.5546875
 20
-2534.79296875
 10
2782.5546875
 20
-2544.322265625
 10
2782.5546875
 20
-2553.8515625
 10
2782.5546875
 20
-2563.380859375
 10
2773.025390625
 20
-2572.91015625
 10
2763.49609375
 20
-2572.91015625
 10
2763.49609375
 20
-2582.439453125
 10
2753.966796875
 20
-2591.96875
 10
2753.966796875
 20
-2601.498046875
 10
2753.966796875
 20
-2611.02734375
 10
2753.966796875
 20
-2620.556640625
 10
2753.966796875
 20
-2630.0859375
 10
2744.4375
 20
-2639.615234375
 10
2734.908203125
 20
-2639.615234375
 10
2734.908203125
 20
-2649.14453125
 10
2725.37890625
 20
-2658.673828125
 10
2715.849609375
 20
-2668.203125
 10
2706.3203125
 20
-2658.673828125
 10
2696.791015625
 20
-2668.203125
 10
2696.791015625
 20
-2677.732421875
 10
2696.791015625
 20
-2687.26171875
 10
2696.791015625
 20
-2696.791015625
 10
2687.26171875
 20
-2706.3203125
 10
2677.732421875
 20
-2696.791015625
 10
2668.203125
 20
-2706.3203125
 10
2658.673828125
 20
-2696.791015625
 10
2658.673828125
 20
-2706.3203125
 10
2658.673828125
 20
-2715.849609375
 10
2649.14453125
 20
-2725.37890625
 10
2639.615234375
 20
-2734.908203125
 10
2630.0859375
 20
-2744.4375
 10
2620.556640625
 20
-2753.966796875
 10
2611.02734375
 20
-2744.4375
 10
2601.498046875
 20
-2753.966796875
 10
2611.02734375
 20
-2763.49609375
 10
2601.498046875
 20
-2773.025390625
 10
2591.96875
 20
-2773.025390625
 10
2582.439453125
 20
-2782.5546875
 10
2572.91015625
 20
-2782.5546875
 10
2563.380859375
 20
-2782.5546875
 10
2553.8515625
 20
-2782.5546875
 10
2544.322265625
 20
-2782.5546875
 10
2534.79296875
 20
-2782.5546875
 10
2525.263671875
 20
-2782.5546875
 10
2515.734375
 20
-2792.083984375
 10
2506.205078125
 20
-2792.083984375
 10
2496.67578125
 20
-2792.083984375
 10
2487.146484375
 20
-2792.083984375
 10
2477.6171875
 20
-2792.083984375
 10
2468.087890625
 20
-2792.083984375
 10
2458.55859375
 20
-2792.083984375
 10
2449.029296875
 20
-2801.61328125
 10
2439.5
 20
-2801.61328125
 10
2429.970703125
 20
-2792.083984375
 10
2429.970703125
 20
-2801.61328125
 10
2420.44140625
 20
-2811.142578125
 10
2410.912109375
 20
-2811.142578125
 10
2401.3828125
 20
-2801.61328125
 10
2401.3828125
 20
-2792.083984375
 10
2391.853515625
 20
-2801.61328125
 10
2382.32421875
 20
-2792.083984375
 10
2372.794921875
 20
-2801.61328125
 10
2363.265625
 20
-2801.61328125
 10
2353.736328125
 20
-2801.61328125
 10
2344.20703125
 20
-2801.61328125
 10
2334.677734375
 20
-2801.61328125
 10
2325.1484375
 20
-2792.083984375
 10
2325.1484375
 20
-2782.5546875
 10
2315.619140625
 20
-2782.5546875
 10
2306.08984375
 20
-2773.025390625
 10
2306.08984375
 20
-2763.49609375
 10
2296.560546875
 20
-2763.49609375
 10
2287.03125
 20
-2753.966796875
 10
2277.501953125
 20
-2753.966796875
 10
2267.97265625
 20
-2753.966796875
 10
2258.443359375
 20
-2753.966796875
 10
2248.9140625
 20
-2753.966796875
 10
2239.384765625
 20
-2753.966796875
 10
2229.85546875
 20
-2753.966796875
 10
2220.326171875
 20
-2744.4375
 10
2220.326171875
 20
-2734.908203125
 10
2220.326171875
 20
-2725.37890625
 10
2210.796875
 20
-2734.908203125
 10
2201.267578125
 20
-2725.37890625
 10
2201.267578125
 20
-2715.849609375
 10
2201.267578125
 20
-2706.3203125
 10
2201.267578125
 20
-2696.791015625
 10
2191.73828125
 20
-2696.791015625
 10
2182.208984375
 20
-2696.791015625
 10
2172.6796875
 20
-2687.26171875
 10
2182.208984375
 20
-2677.732421875
 10
2191.73828125
 20
-2677.732421875
 10
2182.208984375
 20
-2677.732421875
 10
2172.6796875
 20
-2677.732421875
 10
2163.150390625
 20
-2668.203125
 10
2163.150390625
 20
-2658.673828125
 10
2153.62109375
 20
-2649.14453125
 10
2144.091796875
 20
-2658.673828125
 10
2134.5625
 20
-2649.14453125
 10
2134.5625
 20
-2639.615234375
 10
2125.033203125
 20
-2630.0859375
 10
2125.033203125
 20
-2620.556640625
 10
2125.033203125
 20
-2611.02734375
 10
2125.033203125
 20
-2601.498046875
 10
2115.50390625
 20
-2591.96875
 10
2115.50390625
 20
-2582.439453125
 10
2105.974609375
 20
-2582.439453125
 10
2096.4453125
 20
-2572.91015625
 10
2096.4453125
 20
-2563.380859375
 10
2096.4453125
 20
-2553.8515625
 10
2086.916015625
 20
-2553.8515625
 10
2077.38671875
 20
-2544.322265625
 10
2086.916015625
 20
-2534.79296875
 10
2086.916015625
 20
-2525.263671875
 10
2086.916015625
 20
-2515.734375
 10
2086.916015625
 20
-2506.205078125
 10
2086.916015625
 20
-2496.67578125
 10
2077.38671875
 20
-2487.146484375
 10
2077.38671875
 20
-2477.6171875
 10
2077.38671875
 20
-2468.087890625
 10
2067.857421875
 20
-2458.55859375
 10
2067.857421875
 20
-2449.029296875
 10
2067.857421875
 20
-2439.5
 10
2067.857421875
 20
-2429.970703125
 10
2067.857421875
 20
-2420.44140625
 10
2067.857421875
 20
-2410.912109375
 10
2067.857421875
 20
-2401.3828125
 10
2067.857421875
 20
-2391.853515625
 10
2058.328125
 20
-2382.32421875
 10
2067.857421875
 20
-2372.794921875
 10
2067.857421875
 20
-2363.265625
 10
2077.38671875
 20
-2353.736328125
 10
2086.916015625
 20
-2353.736328125
 10
2086.916015625
 20
-2344.20703125
 10
2086.916015625
 20
-2334.677734375
 10
2086.916015625
 20
-2325.1484375
 10
2096.4453125
 20
-2315.619140625
 10
2086.916015625
 20
-2315.619140625
 10
2077.38671875
 20
-2306.08984375
 10
2086.916015625
 20
-2296.560546875
 10
2096.4453125
 20
-2296.560546875
 10
2086.916015625
 20
-2296.560546875
 10
2077.38671875
 20
-2287.03125
 10
2086.916015625
 20
-2277.501953125
 10
2096.4453125
 20
-2267.97265625
 10
2105.974609375
 20
-2258.443359375
 10
2115.50390625
 20
-2248.9140625
 10
2125.033203125
 20
-2248.9140625
 10
2134.5625
 20
-2239.384765625
 10
2144.091796875
 20
-2229.85546875
 10
2153.62109375
 20
-2220.326171875
 10
2153.62109375
 20
-2210.796875
 10
2163.150390625
 20
-2201.267578125
 10
2153.62109375
 20
-2191.73828125
 10
2163.150390625
 20
-2182.208984375
 10
2172.6796875
 20
-2182.208984375
 10
2172.6796875
 20
-2172.6796875
 10
2182.208984375
 20
-2163.150390625
 10
2191.73828125
 20
-2163.150390625
 10
2201.267578125
 20
-2163.150390625
 10
2210.796875
 20
-2163.150390625
 10
2201.267578125
 20
-2153.62109375
 10
2210.796875
 20
-2144.091796875
 10
2220.326171875
 20
-2134.5625
 10
2229.85546875
 20
-2125.033203125
 10
2239.384765625
 20
-2125.033203125
 10
2248.9140625
 20
-2115.50390625
 10
2258.443359375
 20
-2125.033203125
 10
2267.97265625
 20
-2115.50390625
 10
2277.501953125
 20
-2115.50390625
 10
2287.03125
 20
-2105.974609375
 10
2296.560546875
 20
-2105.974609375
 10
2306.08984375
 20
-2105.974609375
 10
2315.619140625
 20
-2096.4453125
 10
2325.1484375
 20
-2096.4453125
 10
2334.677734375
 20
-2096.4453125
 10
2344.20703125
 20
-2086.916015625
 10
2353.736328125
 20
-2077.38671875
 10
2363.265625
 20
-2077.38671875
 10
2372.794921875
 20
-2086.916015625
 10
2382.32421875
 20
-2077.38671875
 10
2391.853515625
 20
-2077.38671875
 10
2401.3828125
 20
-2067.857421875
 10
2410.912109375
 20
-2067.857421875
  0
LWPOLYLINE
  5
5D
330
17
100
AcDbEntity
  8
substrate
100
AcDbPolyline
 90
1
 70
1
 43
0.5
 10
2296.560546875
 20
-2363.265625
  0
LWPOLYLINE
  5
5E
330
17
100
AcDbEntity
  8
substrate
100
AcDbPolyline
 90
1
 70
1
 43
0.5
 10
2277.501953125
 20
-2353.736328125
  0
LWPOLYLINE
  5
5F
330
17
100
AcDbEntity
  8
substrate
100
AcDbPolyline
 90
4
 70
1
 43
0.5
 10
1057.751953125
 20
-2067.857421875
 10
1067.28125
 20
-2058.328125
 10
1076.810546875
 20
-2067.857421875
 10
1067.28125
 20
-2077.38671875
  0
LWPOLYLINE
  5
60
330
17
100
AcDbEntity
  8
substrate
100
AcDbPolyline
 90
4
 70
1
 43
0.5
 10
600.345703125
 20
-2067.857421875
 10
609.875
 20
-2058.328125
 10
619.404296875
 20
-2067.857421875
 10
609.875
 20
-2077.38671875
  0
LWPOLYLINE
  5
61
330
17
100
AcDbEntity
  8
substrate
100
AcDbPolyline
 90
4
 70
1
 43
0.5
 10
447.876953125
 20
-2067.857421875
 10
457.40625
 20
-2058.328125
 10
466.935546875
 20
-2067.857421875
 10
457.40625
 20
-2077.38671875
  0
LWPOLYLINE
  5
62
330
17
100
AcDbEntity
  8
substrate
100
AcDbPolyline
 90
4
 70
1
 43
0.5
 10
295.408203125
 20
-2067.857421875
 10
304.9375
 20
-2058.328125
 10
314.466796875
 20
-2067.857421875
 10
304.9375
 20
-2077.38671875
  0
LWPOLYLINE
  5
63
330
17
100
AcDbEntity
  8
substrate
100
AcDbPolyline
 90
4
 70
1
 43
0.5
 10
295.408203125
 20
-2048.798828125
 10
304.9375
 20
-2039.26953125
 10
314.466796875
 20
-2048.798828125
 10
304.9375
 20
-2058.328125
  0
LWPOLYLINE
  5
64
330
17
100
AcDbEntity
  8
substrate
100
AcDbPolyline
 90
4
 70
1
 43
0.5
 10
266.8203125
 20
-2048.798828125
 10
276.349609375
 20
-2039.26953125
 10
285.87890625
 20
-2048.798828125
 10
276.349609375
 20
-2058.328125
  0
LWPOLYLINE
  5
65
330
17
100
AcDbEntity
  8
substrate
100
AcDbPolyline
 90
4
 70
1
 43
0.5
 10
2058.328125
 20
-1858.212890625
 10
2067.857421875
 20
-1848.68359375
 10
2077.38671875
 20
-1858.212890625
 10
2067.857421875
 20
-1867.7421875
  0
LWPOLYLINE
  5
66
330
17
100
AcDbEntity
  8
substrate
100
AcDbPolyline
 90
4
 70
1
 43
0.5
 10
447.876953125
 20
-1762.919921875
 10
457.40625
 20
-1753.390625
 10
466.935546875
 20
-1762.919921875
 10
457.40625
 20
-1772.44921875
  0
LWPOLYLINE
  5
67
330
17
100
AcDbEntity
  8
substrate
100
AcDbPolyline
 90
4
 70
1
 43
0.5
 10
3973.716796875
 20
-1610.451171875
 10
3983.24609375
 20
-1600.921875
 10
3992.775390625
 20
-1610.451171875
 10
3983.24609375
 20
-1619.98046875
  0
LWPOLYLINE
  5
68
330
17
100
AcDbEntity
  8
substrate
100
AcDbPolyline
 90
4
 70
1
 43
0.5
 10
3954.658203125
 20
-1610.451171875
 10
3964.1875
 20
-1600.921875
 10
3973.716796875
 20
-1610.451171875
 10
3964.1875
 20
-1619.98046875
  0
LWPOLYLINE
  5
69
330
17
100
AcDbEntity
  8
substrate
100
AcDbPolyline
 90
4
 70
1
 43
0.5
 10
2410.912109375
 20
-1591.392578125
 10
2420.44140625
 20
-1581.86328125
 10
2429.970703125
 20
-1591.392578125
 10
2420.44140625
 20
-1600.921875
  0
LWPOLYLINE
  5
6A
330
17
100
AcDbEntity
  8
substrate
100
AcDbPolyline
 90
4
 70
1
 43
0.5
 10
2734.908203125
 20
-1457.982421875
 10
2744.4375
 20
-1448.453125
 10
2753.966796875
 20
-1457.982421875
 10
2744.4375
 20
-1467.51171875
  0
LWPOLYLINE
  5
6B
330
17
100
AcDbEntity
  8
substrate
100
AcDbPolyline
 90
4
 70
1
 43
0.5
 10
2125.033203125
 20
-1457.982421875
 10
2134.5625
 20
-1448.453125
 10
2144.091796875
 20
-1457.982421875
 10
2134.5625
 20
-1467.51171875
  0
LWPOLYLINE
  5
6C
330
17
100
AcDbEntity
  8
substrate
100
AcDbPolyline
 90
4
 70
1
 43
0.5
 10
1667.626953125
 20
-1457.982421875
 10
1677.15625
 20
-1448.453125
 10
1686.685546875
 20
-1457.982421875
 10
1677.15625
 20
-1467.51171875
  0
LWPOLYLINE
  5
6D
330
17
100
AcDbEntity
  8
substrate
100
AcDbPolyline
 90
4
 70
1
 43
0.5
 10
295.408203125
 20
-1457.982421875
 10
304.9375
 20
-1448.453125
 10
314.466796875
 20
-1457.982421875
 10
304.9375
 20
-1467.51171875
  0
LWPOLYLINE
  5
6E
330
17
100
AcDbEntity
  8
substrate
100
AcDbPolyline
 90
4
 70
1
 43
0.5
 10
295.408203125
 20
-1438.923828125
 10
304.9375
 20
-1429.39453125
 10
314.466796875
 20
-1438.923828125
 10
304.9375
 20
-1448.453125
  0
LWPOLYLINE
  5
6F
330
17
100
AcDbEntity
  8
substrate
100
AcDbPolyline
 90
4
 70
1
 43
0.5
 10
266.8203125
 20
-1438.923828125
 10
276.349609375
 20
-1429.39453125
 10
285.87890625
 20
-1438.923828125
 10
276.349609375
 20
-1448.453125
  0
LWPOLYLINE
  5
70
330
17
100
AcDbEntity
  8
substrate
100
AcDbPolyline
 90
4
 70
1
 43
0.5
 10
3525.83984375
 20
-1315.04296875
 10
3535.369140625
 20
-1305.513671875
 10
3544.8984375
 20
-1315.04296875
 10
3535.369140625
 20
-1324.572265625
  0
LWPOLYLINE
  5
71
330
17
100
AcDbEntity
  8
substrate
100
AcDbPolyline
 90
4
 70
1
 43
0.5
 10
4821.82421875
 20
-1219.75
 10
4831.353515625
 20
-1210.220703125
 10
4840.8828125
 20
-1219.75
 10
4831.353515625
 20
-1229.279296875
  0
LWPOLYLINE
  5
72
330
17
100
AcDbEntity
  8
substrate
100
AcDbPolyline
 90
4
 70
1
 43
0.5
 10
905.283203125
 20
-1153.044921875
 10
914.8125
 20
-1143.515625
 10
924.341796875
 20
-1153.044921875
 10
914.8125
 20
-1162.57421875
  0
LWPOLYLINE
  5
73
330
17
100
AcDbEntity
  8
substrate
100
AcDbPolyline
 90
4
 70
1
 43
0.5
 10
4030.892578125
 20
-867.166015625
 10
4040.421875
 20
-857.63671875
 10
4049.951171875
 20
-867.166015625
 10
4040.421875
 20
-876.6953125
  0
LWPOLYLINE
  5
74
330
17
100
AcDbEntity
  8
substrate
100
AcDbPolyline
 90
4
 70
1
 43
0.5
 10
4030.892578125
 20
-848.107421875
 10
4040.421875
 20
-838.578125
 10
4049.951171875
 20
-848.107421875
 10
4040.421875
 20
-857.63671875
  0
LWPOLYLINE
  5
75
330
17
100
AcDbEntity
  8
substrate
100
AcDbPolyline
 90
4
 70
1
 43
0.5
 10
2734.908203125
 20
-848.107421875
 10
2744.4375
 20
-838.578125
 10
2753.966796875
 20
-848.107421875
 10
2744.4375
 20
-857.63671875
  0
LWPOLYLINE
  5
76
330
17
100
AcDbEntity
  8
substrate
100
AcDbPolyline
 90
4
 70
1
 43
0.5
 10
905.283203125
 20
-848.107421875
 10
914.8125
 20
-838.578125
 10
924.341796875
 20
-848.107421875
 10
914.8125
 20
-857.63671875
  0
LWPOLYLINE
  5
77
330
17
100
AcDbEntity
  8
substrate
100
AcDbPolyline
 90
4
 70
1
 43
0.5
 10
295.408203125
 20
-848.107421875
 10
304.9375
 20
-838.578125
 10
314.466796875
 20
-848.107421875
 10
304.9375
 20
-857.63671875
  0
LWPOLYLINE
  5
78
330
17
100
AcDbEntity
  8
substrate
100
AcDbPolyline
 90
4
 70
1
 43
0.5
 10
1696.21484375
 20
-695.638671875
 10
1705.744140625
 20
-686.109375
 10
1715.2734375
 20
-695.638671875
 10
1705.744140625
 20
-705.16796875
  0
LWPOLYLINE
  5
79
330
17
100
AcDbEntity
  8
substrate
100
AcDbPolyline
 90
4
 70
1
 43
0.5
 10
295.408203125
 20
-409.759765625
 10
304.9375
 20
-400.23046875
 10
314.466796875
 20
-409.759765625
 10
304.9375
 20
-419.2890625
  0
LWPOLYLINE
  5
7A
330
17
100
AcDbEntity
  8
substrate
100
AcDbPolyline
 90
4
 70
1
 43
0.5
 10
905.283203125
 20
-390.701171875
 10
914.8125
 20
-381.171875
 10
924.341796875
 20
-390.701171875
 10
914.8125
 20
-400.23046875
  0
LWPOLYLINE
  5
7B
330
17
100
AcDbEntity
  8
substrate
100
AcDbPolyline
 90
4
 70
1
 43
0.5
 10
295.408203125
 20
-390.701171875
 10
304.9375
 20
-381.171875
 10
314.466796875
 20
-390.701171875
 10
304.9375
 20
-400.23046875
  0
LWPOLYLINE
  5
7C
330
17
100
AcDbEntity
  8
substrate
100
AcDbPolyline
 90
4
 70
1
 43
0.5
 10
3087.4921875
 20
-304.9375
 10
3097.021484375
 20
-295.408203125
 10
3106.55078125
 20
-304.9375
 10
3097.021484375
 20
-314.466796875
  0
LWPOLYLINE
  5
7D
330
17
100
AcDbEntity
  8
substrate
100
AcDbPolyline
 90
4
 70
1
 43
0.5
 10
905.283203125
 20
-257.291015625
 10
914.8125
 20
-247.76171875
 10
924.341796875
 20
-257.291015625
 10
914.8125
 20
-266.8203125
  0
LWPOLYLINE
  5
7E
330
17
100
AcDbEntity
  8
substrate
100
AcDbPolyline
 90
4
 70
1
 43
0.5
 10
600.345703125
 20
-257.291015625
 10
609.875
 20
-247.76171875
 10
619.404296875
 20
-257.291015625
 10
609.875
 20
-266.8203125
  0
LWPOLYLINE
  5
7F
330
17
100
AcDbEntity
  8
substrate
100
AcDbPolyline
 90
4
 70
1
 43
0.5
 10
3344.783203125
 20
-238.232421875
 10
3354.3125
 20
-228.703125
 10
3363.841796875
 20
-238.232421875
 10
3354.3125
 20
-247.76171875
  0
LWPOLYLINE
  5
80
330
17
100
AcDbEntity
  8
substrate
100
AcDbPolyline
 90
4
 70
1
 43
0.5
 10
1820.095703125
 20
-238.232421875
 10
1829.625
 20
-228.703125
 10
1839.154296875
 20
-238.232421875
 10
1829.625
 20
-247.76171875
  0
LWPOLYLINE
  5
81
330
17
100
AcDbEntity
  8
substrate
100
AcDbPolyline
 90
4
 70
1
 43
0.5
 10
1515.158203125
 20
-238.232421875
 10
1524.6875
 20
-228.703125
 10
1534.216796875
 20
-238.232421875
 10
1524.6875
 20
-247.76171875
  0
LWPOLYLINE
  5
82
330
17
100
AcDbEntity
  8
substrate
100
AcDbPolyline
 90
4
 70
1
 43
0.5
 10
1210.220703125
 20
-238.232421875
 10
1219.75
 20
-228.703125
 10
1229.279296875
 20
-238.232421875
 10
1219.75
 20
-247.76171875
  0
LWPOLYLINE
  5
83
330
17
100
AcDbEntity
  8
substrate
100
AcDbPolyline
 90
4
 70
1
 43
0.5
 10
905.283203125
 20
-238.232421875
 10
914.8125
 20
-228.703125
 10
924.341796875
 20
-238.232421875
 10
914.8125
 20
-247.76171875
  0
LWPOLYLINE
  5
84
330
17
100
AcDbEntity
  8
substrate
100
AcDbPolyline
 90
4
 70
1
 43
0.5
 10
600.345703125
 20
-238.232421875
 10
609.875
 20
-228.703125
 10
619.404296875
 20
-238.232421875
 10
609.875
 20
-247.76171875
  0
LWPOLYLINE
  5
85
330
17
100
AcDbEntity
  8
substrate
100
AcDbPolyline
 90
4
 70
1
 43
0.5
 10
4821.82421875
 20
-152.46875
 10
4831.353515625
 20
-142.939453125
 10
4840.8828125
 20
-152.46875
 10
4831.353515625
 20
-161.998046875
  0
LWPOLYLINE
  5
86
330
17
100
AcDbEntity
  8
substrate
100
AcDbPolyline
 90
4
 70
1
 43
0.5
 10
9.529296875
 20
-95.29296875
 10
19.05859375
 20
-85.763671875
 10
28.587890625
 20
-95.29296875
 10
19.05859375
 20
-104.822265625
  0
LWPOLYLINE
  5
87
330
17
100
AcDbEntity
  8
substrate
100
AcDbPolyline
 90
6
 70
1
 43
0.5
 10
3363.841796875
 20
-76.234375
 10
3373.37109375
 20
-66.705078125
 10
3382.900390625
 20
-66.705078125
 10
3392.4296875
 20
-76.234375
 10
3382.900390625
 20
-85.763671875
 10
3373.37109375
 20
-85.763671875
  0
LWPOLYLINE
  5
88
330
17
100
AcDbEntity
  8
substrate
100
AcDbPolyline
 90
6
 70
1
 43
0.5
 10
2753.966796875
 20
-76.234375
 10
2763.49609375
 20
-66.705078125
 10
2773.025390625
 20
-66.705078125
 10
2782.5546875
 20
-76.234375
 10
2773.025390625
 20
-85.763671875
 10
2763.49609375
 20
-85.763671875
  0
LWPOLYLINE
  5
89
330
17
100
AcDbEntity
  8
substrate
100
AcDbPolyline
 90
4
 70
1
 43
0.5
 10
2144.091796875
 20
-76.234375
 10
2153.62109375
 20
-66.705078125
 10
2163.150390625
 20
-76.234375
 10
2153.62109375
 20
-85.763671875
  0
LWPOLYLINE
  5
8A
330
17
100
AcDbEntity
  8
substrate
100
AcDbPolyline
 90
4
 70
1
 43
0.5
 10
1534.216796875
 20
-76.234375
 10
1543.74609375
 20
-66.705078125
 10
1553.275390625
 20
-76.234375
 10
1543.74609375
 20
-85.763671875
  0
LWPOLYLINE
  5
8B
330
17
100
AcDbEntity
  8
substrate
100
AcDbPolyline
 90
4
 70
1
 43
0.5
 10
924.341796875
 20
-76.234375
 10
933.87109375
 20
-66.705078125
 10
943.400390625
 20
-76.234375
 10
933.87109375
 20
-85.763671875
  0
LWPOLYLINE
  5
8C
330
17
100
AcDbEntity
  8
substrate
100
AcDbPolyline
 90
4
 70
1
 43
0.5
 10
314.466796875
 20
-76.234375
 10
323.99609375
 20
-66.705078125
 10
333.525390625
 20
-76.234375
 10
323.99609375
 20
-85.763671875
  0
LWPOLYLINE
  5
8D
330
17
100
AcDbEntity
  8
substrate
100
AcDbPolyline
 90
4
 70
1
 43
0.5
 10
9.529296875
 20
-76.234375
 10
19.05859375
 20
-66.705078125
 10
28.587890625
 20
-76.234375
 10
19.05859375
 20
-85.763671875
  0
LWPOLYLINE
  5
8E
330
17
100
AcDbEntity
  8
substrate
100
AcDbPolyline
 90
7
 70
1
 43
0.5
 10
3973.716796875
 20
-66.705078125
 10
3983.24609375
 20
-57.17578125
 10
3992.775390625
 20
-66.705078125
 10
4002.3046875
 20
-76.234375
 10
3992.775390625
 20
-85.763671875
 10
3983.24609375
 20
-85.763671875
 10
3973.716796875
 20
-76.234375
  0
LWPOLYLINE
  5
8F
330
17
100
AcDbEntity
  8
substrate
100
AcDbPolyline
 90
4
 70
1
 43
0.5
 10
1010.10546875
 20
-9.529296875
 10
1019.634765625
 20
-0.0
 10
1029.1640625
 20
-9.529296875
 10
1019.634765625
 20
-19.05859375
  0
ENDSEC
  0
SECTION
  2
OBJECTS
  0
DICTIONARY
  5
A
330
0
100
AcDbDictionary
280
0
281
1
  3
ACAD_COLOR
350
B
  3
ACAD_GROUP
350
C
  3
ACAD_LAYOUT
350
D
  3
ACAD_MATERIAL
350
E
  3
ACAD_MLEADERSTYLE
350
F
  3
ACAD_MLINESTYLE
350
10
  3
ACAD_PLOTSETTINGS
350
11
  3
ACAD_PLOTSTYLENAME
350
12
  3
ACAD_SCALELIST
350
14
  3
ACAD_TABLESTYLE
350
15
  3
ACAD_VISUALSTYLE
350
16
  3
EZDXF_META
350
2D
  0
DICTIONARY
  5
B
330
A
100
AcDbDictionary
280
0
281
1
  0
DICTIONARY
  5
C
330
A
100
AcDbDictionary
280
0
281
1
  0
DICTIONARY
  5
D
330
A
100
AcDbDictionary
280
0
281
1
  3
Model
350
1A
  3
Layout1
350
1E
  0
DICTIONARY
  5
E
330
A
100
AcDbDictionary
280
0
281
1
  3
ByBlock
350
1F
  3
ByLayer
350
20
  3
Global
350
21
  0
DICTIONARY
  5
F
330
A
100
AcDbDictionary
280
0
281
1
  3
Standard
350
2C
  0
DICTIONARY
  5
10
330
A
100
AcDbDictionary
280
0
281
1
  3
Standard
350
22
  0
DICTIONARY
  5
11
330
A
100
AcDbDictionary
280
0
281
1
  0
ACDBDICTIONARYWDFLT
  5
12
330
A
100
AcDbDictionary
280
0
281
1
  3
Normal
350
13
100
AcDbDictionaryWithDefault
340
13
  0
ACDBPLACEHOLDER
  5
13
330
12
  0
DICTIONARY
  5
14
330
A
100
AcDbDictionary
280
0
281
1
  0
DICTIONARY
  5
15
330
A
100
AcDbDictionary
280
0
281
1
  0
DICTIONARY
  5
16
330
A
100
AcDbDictionary
280
0
281
1
  0
LAYOUT
  5
1A
330
D
100
AcDbPlotSettings
  1

  2
Adobe PDF
  4
A3
  6

 40
7.5
 41
20.0
 42
7.5
 43
20.0
 44
420.0
 45
297.0
 46
0.0
 47
0.0
 48
0.0
 49
0.0
140
0.0
141
0.0
142
1.0
143
1.0
 70
1024
 72
1
 73
0
 74
5
  7

 75
16
 76
0
 77
2
 78
300
147
1.0
148
0.0
149
0.0
100
AcDbLayout
  1
Model
 70
1
 71
0
 10
0.0
 20
0.0
 11
420.0
 21
297.0
 12
0.0
 22
0.0
 32
0.0
 14
1e+20
 24
1e+20
 34
1e+20
 15
-1e+20
 25
-1e+20
 35
-1e+20
146
0.0
 13
0.0
 23
0.0
 33
0.0
 16
1.0
 26
0.0
 36
0.0
 17
0.0
 27
1.0
 37
0.0
 76
1
330
17
  0
LAYOUT
  5
1E
330
D
100
AcDbPlotSettings
  1

  2
Adobe PDF
  4
A3
  6

 40
7.5
 41
20.0
 42
7.5
 43
20.0
 44
420.0
 45
297.0
 46
0.0
 47
0.0
 48
0.0
 49
0.0
140
0.0
141
0.0
142
1.0
143
1.0
 70
0
 72
1
 73
0
 74
5
  7

 75
16
 76
0
 77
2
 78
300
147
1.0
148
0.0
149
0.0
100
AcDbLayout
  1
Layout1
 70
1
 71
1
 10
0.0
 20
0.0
 11
420.0
 21
297.0
 12
0.0
 22
0.0
 32
0.0
 14
1e+20
 24
1e+20
 34
1e+20
 15
-1e+20
 25
-1e+20
 35
-1e+20
146
0.0
 13
0.0
 23
0.0
 33
0.0
 16
1.0
 26
0.0
 36
0.0
 17
0.0
 27
1.0
 37
0.0
 76
1
330
1B
  0
MATERIAL
  5
1F
102
{ACAD_REACTORS
330
E
102
}
330
E
100
AcDbMaterial
  1
ByBlock
  2

 70
0
 40
1.0
 71
1
 41
1.0
 91
-1023410177
 42
1.0
 72
1
  3

 73
1
 74
1
 75
1
 44
0.5
 73
0
 45
1.0
 46
1.0
 77
1
  4

 78
1
 79
1
170
1
 48
1.0
171
1
  6

172
1
173
1
174
1
140
1.0
141
1.0
175
1
  7

176
1
177
1
178
1
143
1.0
179
1
  8

270
1
271
1
272
1
145
1.0
146
1.0
273
1
  9

274
1
275
1
276
1
 42
1.0
 72
1
  3

 73
1
 74
1
 75
1
 94
63
  0
MATERIAL
  5
20
102
{ACAD_REACTORS
330
E
102
}
330
E
100
AcDbMaterial
  1
ByLayer
  2

 70
0
 40
1.0
 71
1
 41
1.0
 91
-1023410177
 42
1.0
 72
1
  3

 73
1
 74
1
 75
1
 44
0.5
 73
0
 45
1.0
 46
1.0
 77
1
  4

 78
1
 79
1
170
1
 48
1.0
171
1
  6

172
1
173
1
174
1
140
1.0
141
1.0
175
1
  7

176
1
177
1
178
1
143
1.0
179
1
  8

270
1
271
1
272
1
145
1.0
146
1.0
273
1
  9

274
1
275
1
276
1
 42
1.0
 72
1
  3

 73
1
 74
1
 75
1
 94
63
  0
MATERIAL
  5
21
102
{ACAD_REACTORS
330
E
102
}
330
E
100
AcDbMaterial
  1
Global
  2

 70
0
 40
1.0
 71
1
 41
1.0
 91
-1023410177
 42
1.0
 72
1
  3

 73
1
 74
1
 75
1
 44
0.5
 73
0
 45
1.0
 46
1.0
 77
1
  4

 78
1
 79
1
170
1
 48
1.0
171
1
  6

172
1
173
1
174
1
140
1.0
141
1.0
175
1
  7

176
1
177
1
178
1
143
1.0
179
1
  8

270
1
271
1
272
1
145
1.0
146
1.0
273
1
  9

274
1
275
1
276
1
 42
1.0
 72
1
  3

 73
1
 74
1
 75
1
 94
63
  0
MLINESTYLE
  5
22
102
{ACAD_REACTORS
330
10
102
}
330
10
100
AcDbMlineStyle
  2
Standard
 70
0
  3

 62
256
 51
90.0
 52
90.0
 71
2
 49
0.5
 62
256
  6
BYLAYER
 49
-0.5
 62
256
  6
BYLAYER
  0
MLEADERSTYLE
  5
2C
102
{ACAD_REACTORS
330
F
102
}
330
F
100
AcDbMLeaderStyle
179
2
170
2
171
1
172
0
 90
2
 40
0.0
 41
0.0
173
1
 91
-1056964608
 92
-2
290
1
 42
2.0
291
1
 43
8.0
  3
Standard
 44
4.0
300

342
29
174
1
175
1
176
0
178
1
 93
-1056964608
 45
4.0
292
0
297
0
 46
4.0
 94
-1056964608
 47
1.0
 49
1.0
140
1.0
294
1
141
0.0
177
0
142
1.0
295
0
296
0
143
3.75
271
0
272
9
273
9
  0
DICTIONARY
  5
2D
330
A
100
AcDbDictionary
281
1
  3
CREATED_BY_EZDXF
350
2E
  3
WRITTEN_BY_EZDXF
350
92
  0
DICTIONARYVAR
  5
2E
330
2D
100
DictionaryVariables
280
0
  1
1.1.0 @ 2025-02-04T00:10:44.946558+00:00
  0
DICTIONARYVAR
  5
92
330
2D
100
DictionaryVariables
280
0
  1
1.1.0 @ 2025-02-04T00:10:44.953473+00:00
  0
ENDSEC
  0
EOF
