  0
SECTION
  2
HEADER
  9
$ACADVER
  1
AC1027
  9
$ACADMAINTVER
 70
105
  9
$DWGCODEPAGE
  3
ANSI_1252
  9
$LASTSAVEDBY
  1
ezdxf
  9
$REQUIREDVERSIONS
160
0
  9
$INSBASE
 10
0.0
 20
0.0
 30
0.0
  9
$EXTMIN
 10
1e+20
 20
1e+20
 30
1e+20
  9
$EXTMAX
 10
-1e+20
 20
-1e+20
 30
-1e+20
  9
$LIMMIN
 10
0.0
 20
0.0
  9
$LIMMAX
 10
420.0
 20
297.0
  9
$ORTHOMODE
 70
0
  9
$REGENMODE
 70
1
  9
$FILLMODE
 70
1
  9
$QTEXTMODE
 70
0
  9
$MIRRTEXT
 70
1
  9
$LTSCALE
 40
1.0
  9
$ATTMODE
 70
1
  9
$TEXTSIZE
 40
2.5
  9
$TRACEWID
 40
1.0
  9
$TEXTSTYLE
  7
Standard
  9
$CLAYER
  8
0
  9
$CELTYPE
  6
ByLayer
  9
$CECOLOR
 62
256
  9
$CELTSCALE
 40
1.0
  9
$DISPSILH
 70
0
  9
$DIMSCALE
 40
1.0
  9
$DIMASZ
 40
2.5
  9
$DIMEXO
 40
0.625
  9
$DIMDLI
 40
3.75
  9
$DIMRND
 40
0.0
  9
$DIMDLE
 40
0.0
  9
$DIMEXE
 40
1.25
  9
$DIMTP
 40
0.0
  9
$DIMTM
 40
0.0
  9
$DIMTXT
 40
2.5
  9
$DIMCEN
 40
2.5
  9
$DIMTSZ
 40
0.0
  9
$DIMTOL
 70
0
  9
$DIMLIM
 70
0
  9
$DIMTIH
 70
0
  9
$DIMTOH
 70
0
  9
$DIMSE1
 70
0
  9
$DIMSE2
 70
0
  9
$DIMTAD
 70
1
  9
$DIMZIN
 70
8
  9
$DIMBLK
  1

  9
$DIMASO
 70
1
  9
$DIMSHO
 70
1
  9
$DIMPOST
  1

  9
$DIMAPOST
  1

  9
$DIMALT
 70
0
  9
$DIMALTD
 70
3
  9
$DIMALTF
 40
0.03937007874
  9
$DIMLFAC
 40
1.0
  9
$DIMTOFL
 70
1
  9
$DIMTVP
 40
0.0
  9
$DIMTIX
 70
0
  9
$DIMSOXD
 70
0
  9
$DIMSAH
 70
0
  9
$DIMBLK1
  1

  9
$DIMBLK2
  1

  9
$DIMSTYLE
  2
ISO-25
  9
$DIMCLRD
 70
0
  9
$DIMCLRE
 70
0
  9
$DIMCLRT
 70
0
  9
$DIMTFAC
 40
1.0
  9
$DIMGAP
 40
0.625
  9
$DIMJUST
 70
0
  9
$DIMSD1
 70
0
  9
$DIMSD2
 70
0
  9
$DIMTOLJ
 70
0
  9
$DIMTZIN
 70
8
  9
$DIMALTZ
 70
0
  9
$DIMALTTZ
 70
0
  9
$DIMUPT
 70
0
  9
$DIMDEC
 70
2
  9
$DIMTDEC
 70
2
  9
$DIMALTU
 70
2
  9
$DIMALTTD
 70
3
  9
$DIMTXSTY
  7
Standard
  9
$DIMAUNIT
 70
0
  9
$DIMADEC
 70
0
  9
$DIMALTRND
 40
0.0
  9
$DIMAZIN
 70
0
  9
$DIMDSEP
 70
44
  9
$DIMATFIT
 70
3
  9
$DIMFRAC
 70
0
  9
$DIMLDRBLK
  1

  9
$DIMLUNIT
 70
2
  9
$DIMLWD
 70
-2
  9
$DIMLWE
 70
-2
  9
$DIMTMOVE
 70
0
  9
$DIMFXL
 40
1.0
  9
$DIMFXLON
 70
0
  9
$DIMJOGANG
 40
0.785398163397
  9
$DIMTFILL
 70
0
  9
$DIMTFILLCLR
 70
0
  9
$DIMARCSYM
 70
0
  9
$DIMLTYPE
  6

  9
$DIMLTEX1
  6

  9
$DIMLTEX2
  6

  9
$DIMTXTDIRECTION
 70
0
  9
$LUNITS
 70
2
  9
$LUPREC
 70
4
  9
$SKETCHINC
 40
1.0
  9
$FILLETRAD
 40
10.0
  9
$AUNITS
 70
0
  9
$AUPREC
 70
2
  9
$MENU
  1
.
  9
$ELEVATION
 40
0.0
  9
$PELEVATION
 40
0.0
  9
$THICKNESS
 40
0.0
  9
$LIMCHECK
 70
0
  9
$CHAMFERA
 40
0.0
  9
$CHAMFERB
 40
0.0
  9
$CHAMFERC
 40
0.0
  9
$CHAMFERD
 40
0.0
  9
$SKPOLY
 70
0
  9
$TDCREATE
 40
2460676.399525463
  9
$TDUCREATE
 40
2458532.153996898
  9
$TDUPDATE
 40
2460676.399525463
  9
$TDUUPDATE
 40
2458532.1544311
  9
$TDINDWG
 40
0.0
  9
$TDUSRTIMER
 40
0.0
  9
$USRTIMER
 70
1
  9
$ANGBASE
 50
0.0
  9
$ANGDIR
 70
0
  9
$PDMODE
 70
0
  9
$PDSIZE
 40
0.0
  9
$PLINEWID
 40
0.0
  9
$SPLFRAME
 70
0
  9
$SPLINETYPE
 70
6
  9
$SPLINESEGS
 70
8
  9
$HANDSEED
  5
56
  9
$SURFTAB1
 70
6
  9
$SURFTAB2
 70
6
  9
$SURFTYPE
 70
6
  9
$SURFU
 70
6
  9
$SURFV
 70
6
  9
$UCSBASE
  2

  9
$UCSNAME
  2

  9
$UCSORG
 10
0.0
 20
0.0
 30
0.0
  9
$UCSXDIR
 10
1.0
 20
0.0
 30
0.0
  9
$UCSYDIR
 10
0.0
 20
1.0
 30
0.0
  9
$UCSORTHOREF
  2

  9
$UCSORTHOVIEW
 70
0
  9
$UCSORGTOP
 10
0.0
 20
0.0
 30
0.0
  9
$UCSORGBOTTOM
 10
0.0
 20
0.0
 30
0.0
  9
$UCSORGLEFT
 10
0.0
 20
0.0
 30
0.0
  9
$UCSORGRIGHT
 10
0.0
 20
0.0
 30
0.0
  9
$UCSORGFRONT
 10
0.0
 20
0.0
 30
0.0
  9
$UCSORGBACK
 10
0.0
 20
0.0
 30
0.0
  9
$PUCSBASE
  2

  9
$PUCSNAME
  2

  9
$PUCSORG
 10
0.0
 20
0.0
 30
0.0
  9
$PUCSXDIR
 10
1.0
 20
0.0
 30
0.0
  9
$PUCSYDIR
 10
0.0
 20
1.0
 30
0.0
  9
$PUCSORTHOREF
  2

  9
$PUCSORTHOVIEW
 70
0
  9
$PUCSORGTOP
 10
0.0
 20
0.0
 30
0.0
  9
$PUCSORGBOTTOM
 10
0.0
 20
0.0
 30
0.0
  9
$PUCSORGLEFT
 10
0.0
 20
0.0
 30
0.0
  9
$PUCSORGRIGHT
 10
0.0
 20
0.0
 30
0.0
  9
$PUCSORGFRONT
 10
0.0
 20
0.0
 30
0.0
  9
$PUCSORGBACK
 10
0.0
 20
0.0
 30
0.0
  9
$USERI1
 70
0
  9
$USERI2
 70
0
  9
$USERI3
 70
0
  9
$USERI4
 70
0
  9
$USERI5
 70
0
  9
$USERR1
 40
0.0
  9
$USERR2
 40
0.0
  9
$USERR3
 40
0.0
  9
$USERR4
 40
0.0
  9
$USERR5
 40
0.0
  9
$WORLDVIEW
 70
1
  9
$SHADEDGE
 70
3
  9
$SHADEDIF
 70
70
  9
$TILEMODE
 70
1
  9
$MAXACTVP
 70
64
  9
$PINSBASE
 10
0.0
 20
0.0
 30
0.0
  9
$PLIMCHECK
 70
0
  9
$PEXTMIN
 10
1e+20
 20
1e+20
 30
1e+20
  9
$PEXTMAX
 10
-1e+20
 20
-1e+20
 30
-1e+20
  9
$PLIMMIN
 10
0.0
 20
0.0
  9
$PLIMMAX
 10
420.0
 20
297.0
  9
$UNITMODE
 70
0
  9
$VISRETAIN
 70
1
  9
$PLINEGEN
 70
0
  9
$PSLTSCALE
 70
1
  9
$TREEDEPTH
 70
3020
  9
$CMLSTYLE
  2
Standard
  9
$CMLJUST
 70
0
  9
$CMLSCALE
 40
20.0
  9
$PROXYGRAPHICS
 70
1
  9
$MEASUREMENT
 70
1
  9
$CELWEIGHT
370
-1
  9
$ENDCAPS
280
0
  9
$JOINSTYLE
280
0
  9
$LWDISPLAY
290
0
  9
$INSUNITS
 70
6
  9
$HYPERLINKBASE
  1

  9
$STYLESHEET
  1

  9
$XEDIT
290
1
  9
$CEPSNTYPE
380
0
  9
$PSTYLEMODE
290
1
  9
$FINGERPRINTGUID
  2
{A73821C1-F53B-43E3-B142-A8EBB3325E5D}
  9
$VERSIONGUID
  2
{A6E8EAB5-24ED-45B6-9307-89DA6E6CABA5}
  9
$EXTNAMES
290
1
  9
$PSVPSCALE
 40
0.0
  9
$OLESTARTUP
290
0
  9
$SORTENTS
280
127
  9
$INDEXCTL
280
0
  9
$HIDETEXT
280
1
  9
$XCLIPFRAME
280
0
  9
$HALOGAP
280
0
  9
$OBSCOLOR
 70
257
  9
$OBSLTYPE
280
0
  9
$INTERSECTIONDISPLAY
280
0
  9
$INTERSECTIONCOLOR
 70
257
  9
$DIMASSOC
280
2
  9
$PROJECTNAME
  1

  9
$CAMERADISPLAY
290
0
  9
$LENSLENGTH
 40
50.0
  9
$CAMERAHEIGHT
 40
0.0
  9
$STEPSPERSEC
 40
24.0
  9
$STEPSIZE
 40
100.0
  9
$3DDWFPREC
 40
2.0
  9
$PSOLWIDTH
 40
0.005
  9
$PSOLHEIGHT
 40
0.08
  9
$LOFTANG1
 40
1.570796326795
  9
$LOFTANG2
 40
1.570796326795
  9
$LOFTMAG1
 40
0.0
  9
$LOFTMAG2
 40
0.0
  9
$LOFTPARAM
 70
7
  9
$LOFTNORMALS
280
1
  9
$LATITUDE
 40
37.795
  9
$LONGITUDE
 40
-122.394
  9
$NORTHDIRECTION
 40
0.0
  9
$TIMEZONE
 70
-8000
  9
$LIGHTGLYPHDISPLAY
280
1
  9
$TILEMODELIGHTSYNCH
280
1
  9
$CMATERIAL
347
20
  9
$SOLIDHIST
280
0
  9
$SHOWHIST
280
1
  9
$DWFFRAME
280
2
  9
$DGNFRAME
280
2
  9
$REALWORLDSCALE
290
1
  9
$INTERFERECOLOR
 62
256
  9
$CSHADOW
280
0
  9
$SHADOWPLANELOCATION
 40
0.0
  0
ENDSEC
  0
SECTION
  2
CLASSES
  0
CLASS
  1
ACDBDICTIONARYWDFLT
  2
AcDbDictionaryWithDefault
  3
ObjectDBX Classes
 90
0
 91
0
280
0
281
0
  0
CLASS
  1
SUN
  2
AcDbSun
  3
SCENEOE
 90
1153
 91
0
280
0
281
0
  0
CLASS
  1
VISUALSTYLE
  2
AcDbVisualStyle
  3
ObjectDBX Classes
 90
4095
 91
0
280
0
281
0
  0
CLASS
  1
MATERIAL
  2
AcDbMaterial
  3
ObjectDBX Classes
 90
1153
 91
0
280
0
281
0
  0
CLASS
  1
SCALE
  2
AcDbScale
  3
ObjectDBX Classes
 90
1153
 91
0
280
0
281
0
  0
CLASS
  1
TABLESTYLE
  2
AcDbTableStyle
  3
ObjectDBX Classes
 90
4095
 91
0
280
0
281
0
  0
CLASS
  1
MLEADERSTYLE
  2
AcDbMLeaderStyle
  3
ACDB_MLEADERSTYLE_CLASS
 90
4095
 91
0
280
0
281
0
  0
CLASS
  1
DICTIONARYVAR
  2
AcDbDictionaryVar
  3
ObjectDBX Classes
 90
0
 91
0
280
0
281
0
  0
CLASS
  1
CELLSTYLEMAP
  2
AcDbCellStyleMap
  3
ObjectDBX Classes
 90
1152
 91
0
280
0
281
0
  0
CLASS
  1
MENTALRAYRENDERSETTINGS
  2
AcDbMentalRayRenderSettings
  3
SCENEOE
 90
1024
 91
0
280
0
281
0
  0
CLASS
  1
ACDBDETAILVIEWSTYLE
  2
AcDbDetailViewStyle
  3
ObjectDBX Classes
 90
1025
 91
0
280
0
281
0
  0
CLASS
  1
ACDBSECTIONVIEWSTYLE
  2
AcDbSectionViewStyle
  3
ObjectDBX Classes
 90
1025
 91
0
280
0
281
0
  0
CLASS
  1
RASTERVARIABLES
  2
AcDbRasterVariables
  3
ISM
 90
0
 91
0
280
0
281
0
  0
CLASS
  1
ACDBPLACEHOLDER
  2
AcDbPlaceHolder
  3
ObjectDBX Classes
 90
0
 91
0
280
0
281
0
  0
CLASS
  1
LAYOUT
  2
AcDbLayout
  3
ObjectDBX Classes
 90
0
 91
0
280
0
281
0
  0
ENDSEC
  0
SECTION
  2
TABLES
  0
TABLE
  2
VPORT
  5
8
330
0
100
AcDbSymbolTable
 70
1
  0
VPORT
  5
23
330
8
100
AcDbSymbolTableRecord
100
AcDbViewportTableRecord
  2
*Active
 70
0
 10
0.0
 20
0.0
 11
1.0
 21
1.0
 12
0.0
 22
0.0
 13
0.0
 23
0.0
 14
0.5
 24
0.5
 15
0.5
 25
0.5
 16
0.0
 26
0.0
 36
1.0
 17
0.0
 27
0.0
 37
0.0
 40
1000.0
 41
1.34
 42
50.0
 43
0.0
 44
0.0
 50
0.0
 51
0.0
 71
0
 72
1000
 73
1
 74
3
 75
0
 76
0
 77
0
 78
0
281
0
 65
0
146
0.0
  0
ENDTAB
  0
TABLE
  2
LTYPE
  5
2
330
0
100
AcDbSymbolTable
 70
3
  0
LTYPE
  5
24
330
2
100
AcDbSymbolTableRecord
100
AcDbLinetypeTableRecord
  2
ByBlock
 70
0
  3

 72
65
 73
0
 40
0.0
  0
LTYPE
  5
25
330
2
100
AcDbSymbolTableRecord
100
AcDbLinetypeTableRecord
  2
ByLayer
 70
0
  3

 72
65
 73
0
 40
0.0
  0
LTYPE
  5
26
330
2
100
AcDbSymbolTableRecord
100
AcDbLinetypeTableRecord
  2
Continuous
 70
0
  3

 72
65
 73
0
 40
0.0
  0
ENDTAB
  0
TABLE
  2
LAYER
  5
1
330
0
100
AcDbSymbolTable
 70
5
  0
LAYER
  5
27
330
1
100
AcDbSymbolTableRecord
100
AcDbLayerTableRecord
  2
0
 70
0
 62
7
  6
Continuous
370
-3
390
13
347
21
  0
LAYER
  5
28
330
1
100
AcDbSymbolTableRecord
100
AcDbLayerTableRecord
  2
Defpoints
 70
0
 62
7
  6
Continuous
290
0
370
-3
390
13
347
21
  0
LAYER
  5
2F
330
1
100
AcDbSymbolTableRecord
100
AcDbLayerTableRecord
  2
conductor
 70
0
 62
1
  6
Continuous
370
-3
390
13
347
21
  0
LAYER
  5
30
330
1
100
AcDbSymbolTableRecord
100
AcDbLayerTableRecord
  2
dielectric
 70
0
 62
8
  6
Continuous
370
-3
390
13
347
21
  0
LAYER
  5
31
330
1
100
AcDbSymbolTableRecord
100
AcDbLayerTableRecord
  2
substrate
 70
0
 62
5
  6
Continuous
370
-3
390
13
347
21
  0
ENDTAB
  0
TABLE
  2
STYLE
  5
5
330
0
100
AcDbSymbolTable
 70
1
  0
STYLE
  5
29
330
5
100
AcDbSymbolTableRecord
100
AcDbTextStyleTableRecord
  2
Standard
 70
0
 40
0.0
 41
1.0
 50
0.0
 71
0
 42
2.5
  3
txt
  4

  0
ENDTAB
  0
TABLE
  2
VIEW
  5
7
330
0
100
AcDbSymbolTable
 70
0
  0
ENDTAB
  0
TABLE
  2
UCS
  5
6
330
0
100
AcDbSymbolTable
 70
0
  0
ENDTAB
  0
TABLE
  2
APPID
  5
3
330
0
100
AcDbSymbolTable
 70
3
  0
APPID
  5
2A
330
3
100
AcDbSymbolTableRecord
100
AcDbRegAppTableRecord
  2
ACAD
 70
0
  0
APPID
  5
53
330
3
100
AcDbSymbolTableRecord
100
AcDbRegAppTableRecord
  2
HATCHBACKGROUNDCOLOR
 70
0
  0
APPID
  5
54
330
3
100
AcDbSymbolTableRecord
100
AcDbRegAppTableRecord
  2
EZDXF
 70
0
  0
ENDTAB
  0
TABLE
  2
DIMSTYLE
  5
4
330
0
100
AcDbSymbolTable
 70
1
100
AcDbDimStyleTable
  0
DIMSTYLE
105
2B
330
4
100
AcDbSymbolTableRecord
100
AcDbDimStyleTableRecord
  2
Standard
 70
0
 40
1.0
 41
2.5
 42
0.625
 43
3.75
 44
1.25
 45
0.0
 46
0.0
 47
0.0
 48
0.0
 49
2.5
140
2.5
141
2.5
142
0.0
143
0.03937007874
144
1.0
145
0.0
146
1.0
147
0.625
148
0.0
 69
0
 70
0
 71
0
 72
0
 73
0
 74
0
 75
0
 76
0
 77
1
 78
8
 79
3
170
0
171
3
172
1
173
0
174
0
175
0
176
0
177
0
178
0
179
2
271
2
272
2
273
2
274
3
275
0
276
0
277
2
278
44
279
0
280
0
281
0
282
0
283
0
284
8
285
0
286
0
288
0
289
3
290
0
371
-2
372
-2
  0
ENDTAB
  0
TABLE
  2
BLOCK_RECORD
  5
9
330
0
100
AcDbSymbolTable
 70
2
  0
BLOCK_RECORD
  5
17
330
9
100
AcDbSymbolTableRecord
100
AcDbBlockTableRecord
  2
*Model_Space
340
1A
 70
0
280
1
281
0
  0
BLOCK_RECORD
  5
1B
330
9
100
AcDbSymbolTableRecord
100
AcDbBlockTableRecord
  2
*Paper_Space
340
1E
 70
0
280
1
281
0
  0
ENDTAB
  0
ENDSEC
  0
SECTION
  2
BLOCKS
  0
BLOCK
  5
18
330
17
100
AcDbEntity
  8
0
100
AcDbBlockBegin
  2
*Model_Space
 70
0
 10
0.0
 20
0.0
 30
0.0
  3
*Model_Space
  1

  0
ENDBLK
  5
19
330
17
100
AcDbEntity
  8
0
100
AcDbBlockEnd
  0
BLOCK
  5
1C
330
1B
100
AcDbEntity
  8
0
100
AcDbBlockBegin
  2
*Paper_Space
 70
0
 10
0.0
 20
0.0
 30
0.0
  3
*Paper_Space
  1

  0
ENDBLK
  5
1D
330
1B
100
AcDbEntity
  8
0
100
AcDbBlockEnd
  0
ENDSEC
  0
SECTION
  2
ENTITIES
  0
LWPOLYLINE
  5
32
330
17
100
AcDbEntity
  8
conductor
100
AcDbPolyline
 90
1536
 70
1
 43
0.5
 10
1822.5
 20
-598.0078125
 10
1813.0078125
 20
-607.5
 10
1803.515625
 20
-607.5
 10
1794.0234375
 20
-616.9921875
 10
1794.0234375
 20
-626.484375
 10
1794.0234375
 20
-635.9765625
 10
1803.515625
 20
-645.46875
 10
1803.515625
 20
-654.9609375
 10
1803.515625
 20
-664.453125
 10
1803.515625
 20
-673.9453125
 10
1813.0078125
 20
-683.4375
 10
1813.0078125
 20
-692.9296875
 10
1813.0078125
 20
-702.421875
 10
1803.515625
 20
-711.9140625
 10
1813.0078125
 20
-721.40625
 10
1803.515625
 20
-730.8984375
 10
1803.515625
 20
-740.390625
 10
1803.515625
 20
-749.8828125
 10
1803.515625
 20
-759.375
 10
1803.515625
 20
-768.8671875
 10
1803.515625
 20
-778.359375
 10
1803.515625
 20
-787.8515625
 10
1803.515625
 20
-797.34375
 10
1803.515625
 20
-806.8359375
 10
1803.515625
 20
-816.328125
 10
1803.515625
 20
-825.8203125
 10
1803.515625
 20
-835.3125
 10
1803.515625
 20
-844.8046875
 10
1813.0078125
 20
-854.296875
 10
1813.0078125
 20
-863.7890625
 10
1813.0078125
 20
-873.28125
 10
1813.0078125
 20
-882.7734375
 10
1813.0078125
 20
-892.265625
 10
1813.0078125
 20
-901.7578125
 10
1813.0078125
 20
-911.25
 10
1813.0078125
 20
-920.7421875
 10
1813.0078125
 20
-930.234375
 10
1813.0078125
 20
-939.7265625
 10
1813.0078125
 20
-949.21875
 10
1813.0078125
 20
-958.7109375
 10
1813.0078125
 20
-968.203125
 10
1803.515625
 20
-977.6953125
 10
1813.0078125
 20
-987.1875
 10
1803.515625
 20
-996.6796875
 10
1803.515625
 20
-1006.171875
 10
1803.515625
 20
-1015.6640625
 10
1803.515625
 20
-1025.15625
 10
1803.515625
 20
-1034.6484375
 10
1803.515625
 20
-1044.140625
 10
1803.515625
 20
-1053.6328125
 10
1813.0078125
 20
-1063.125
 10
1813.0078125
 20
-1072.6171875
 10
1813.0078125
 20
-1082.109375
 10
1813.0078125
 20
-1091.6015625
 10
1813.0078125
 20
-1101.09375
 10
1813.0078125
 20
-1110.5859375
 10
1813.0078125
 20
-1120.078125
 10
1813.0078125
 20
-1129.5703125
 10
1803.515625
 20
-1139.0625
 10
1803.515625
 20
-1148.5546875
 10
1813.0078125
 20
-1158.046875
 10
1803.515625
 20
-1167.5390625
 10
1803.515625
 20
-1177.03125
 10
1803.515625
 20
-1186.5234375
 10
1803.515625
 20
-1196.015625
 10
1803.515625
 20
-1205.5078125
 10
1803.515625
 20
-1215.0
 10
1803.515625
 20
-1224.4921875
 10
1803.515625
 20
-1233.984375
 10
1803.515625
 20
-1243.4765625
 10
1803.515625
 20
-1252.96875
 10
1803.515625
 20
-1262.4609375
 10
1803.515625
 20
-1271.953125
 10
1803.515625
 20
-1281.4453125
 10
1803.515625
 20
-1290.9375
 10
1803.515625
 20
-1300.4296875
 10
1803.515625
 20
-1309.921875
 10
1813.0078125
 20
-1319.4140625
 10
1803.515625
 20
-1328.90625
 10
1803.515625
 20
-1338.3984375
 10
1803.515625
 20
-1347.890625
 10
1803.515625
 20
-1357.3828125
 10
1803.515625
 20
-1366.875
 10
1803.515625
 20
-1376.3671875
 10
1803.515625
 20
-1385.859375
 10
1803.515625
 20
-1395.3515625
 10
1803.515625
 20
-1404.84375
 10
1803.515625
 20
-1414.3359375
 10
1803.515625
 20
-1423.828125
 10
1803.515625
 20
-1433.3203125
 10
1803.515625
 20
-1442.8125
 10
1803.515625
 20
-1452.3046875
 10
1803.515625
 20
-1461.796875
 10
1803.515625
 20
-1471.2890625
 10
1803.515625
 20
-1480.78125
 10
1803.515625
 20
-1490.2734375
 10
1803.515625
 20
-1499.765625
 10
1803.515625
 20
-1509.2578125
 10
1813.0078125
 20
-1518.75
 10
1803.515625
 20
-1528.2421875
 10
1803.515625
 20
-1537.734375
 10
1803.515625
 20
-1547.2265625
 10
1803.515625
 20
-1556.71875
 10
1803.515625
 20
-1566.2109375
 10
1803.515625
 20
-1575.703125
 10
1803.515625
 20
-1585.1953125
 10
1803.515625
 20
-1594.6875
 10
1803.515625
 20
-1604.1796875
 10
1813.0078125
 20
-1613.671875
 10
1803.515625
 20
-1623.1640625
 10
1803.515625
 20
-1632.65625
 10
1813.0078125
 20
-1642.1484375
 10
1813.0078125
 20
-1651.640625
 10
1803.515625
 20
-1661.1328125
 10
1803.515625
 20
-1670.625
 10
1813.0078125
 20
-1680.1171875
 10
1813.0078125
 20
-1689.609375
 10
1813.0078125
 20
-1699.1015625
 10
1813.0078125
 20
-1708.59375
 10
1813.0078125
 20
-1718.0859375
 10
1813.0078125
 20
-1727.578125
 10
1813.0078125
 20
-1737.0703125
 10
1813.0078125
 20
-1746.5625
 10
1813.0078125
 20
-1756.0546875
 10
1813.0078125
 20
-1765.546875
 10
1813.0078125
 20
-1775.0390625
 10
1813.0078125
 20
-1784.53125
 10
1803.515625
 20
-1794.0234375
 10
1794.0234375
 20
-1803.515625
 10
1784.53125
 20
-1813.0078125
 10
1775.0390625
 20
-1813.0078125
 10
1765.546875
 20
-1813.0078125
 10
1756.0546875
 20
-1813.0078125
 10
1746.5625
 20
-1813.0078125
 10
1737.0703125
 20
-1813.0078125
 10
1727.578125
 20
-1813.0078125
 10
1718.0859375
 20
-1803.515625
 10
1708.59375
 20
-1813.0078125
 10
1699.1015625
 20
-1803.515625
 10
1689.609375
 20
-1813.0078125
 10
1680.1171875
 20
-1813.0078125
 10
1670.625
 20
-1803.515625
 10
1661.1328125
 20
-1803.515625
 10
1651.640625
 20
-1803.515625
 10
1642.1484375
 20
-1803.515625
 10
1632.65625
 20
-1803.515625
 10
1623.1640625
 20
-1803.515625
 10
1613.671875
 20
-1813.0078125
 10
1604.1796875
 20
-1813.0078125
 10
1594.6875
 20
-1813.0078125
 10
1585.1953125
 20
-1813.0078125
 10
1575.703125
 20
-1813.0078125
 10
1566.2109375
 20
-1813.0078125
 10
1556.71875
 20
-1813.0078125
 10
1547.2265625
 20
-1803.515625
 10
1537.734375
 20
-1813.0078125
 10
1528.2421875
 20
-1813.0078125
 10
1518.75
 20
-1803.515625
 10
1509.2578125
 20
-1813.0078125
 10
1499.765625
 20
-1813.0078125
 10
1490.2734375
 20
-1803.515625
 10
1480.78125
 20
-1803.515625
 10
1471.2890625
 20
-1803.515625
 10
1461.796875
 20
-1803.515625
 10
1452.3046875
 20
-1803.515625
 10
1442.8125
 20
-1803.515625
 10
1433.3203125
 20
-1803.515625
 10
1423.828125
 20
-1803.515625
 10
1414.3359375
 20
-1803.515625
 10
1404.84375
 20
-1803.515625
 10
1395.3515625
 20
-1803.515625
 10
1385.859375
 20
-1803.515625
 10
1376.3671875
 20
-1803.515625
 10
1366.875
 20
-1803.515625
 10
1357.3828125
 20
-1803.515625
 10
1347.890625
 20
-1813.0078125
 10
1338.3984375
 20
-1803.515625
 10
1328.90625
 20
-1803.515625
 10
1319.4140625
 20
-1803.515625
 10
1309.921875
 20
-1803.515625
 10
1300.4296875
 20
-1803.515625
 10
1290.9375
 20
-1803.515625
 10
1281.4453125
 20
-1803.515625
 10
1271.953125
 20
-1813.0078125
 10
1262.4609375
 20
-1803.515625
 10
1252.96875
 20
-1803.515625
 10
1243.4765625
 20
-1803.515625
 10
1233.984375
 20
-1803.515625
 10
1224.4921875
 20
-1813.0078125
 10
1215.0
 20
-1803.515625
 10
1205.5078125
 20
-1803.515625
 10
1196.015625
 20
-1813.0078125
 10
1186.5234375
 20
-1803.515625
 10
1177.03125
 20
-1803.515625
 10
1167.5390625
 20
-1803.515625
 10
1158.046875
 20
-1803.515625
 10
1148.5546875
 20
-1813.0078125
 10
1139.0625
 20
-1813.0078125
 10
1129.5703125
 20
-1813.0078125
 10
1120.078125
 20
-1813.0078125
 10
1110.5859375
 20
-1813.0078125
 10
1101.09375
 20
-1813.0078125
 10
1091.6015625
 20
-1803.515625
 10
1082.109375
 20
-1813.0078125
 10
1072.6171875
 20
-1803.515625
 10
1063.125
 20
-1803.515625
 10
1053.6328125
 20
-1803.515625
 10
1044.140625
 20
-1803.515625
 10
1034.6484375
 20
-1803.515625
 10
1025.15625
 20
-1803.515625
 10
1015.6640625
 20
-1803.515625
 10
1006.171875
 20
-1803.515625
 10
996.6796875
 20
-1803.515625
 10
987.1875
 20
-1803.515625
 10
977.6953125
 20
-1803.515625
 10
968.203125
 20
-1803.515625
 10
958.7109375
 20
-1803.515625
 10
949.21875
 20
-1803.515625
 10
939.7265625
 20
-1803.515625
 10
930.234375
 20
-1803.515625
 10
920.7421875
 20
-1803.515625
 10
911.25
 20
-1803.515625
 10
901.7578125
 20
-1803.515625
 10
892.265625
 20
-1803.515625
 10
882.7734375
 20
-1803.515625
 10
873.28125
 20
-1803.515625
 10
863.7890625
 20
-1803.515625
 10
854.296875
 20
-1803.515625
 10
844.8046875
 20
-1803.515625
 10
835.3125
 20
-1803.515625
 10
825.8203125
 20
-1803.515625
 10
816.328125
 20
-1803.515625
 10
806.8359375
 20
-1803.515625
 10
797.34375
 20
-1803.515625
 10
787.8515625
 20
-1803.515625
 10
778.359375
 20
-1803.515625
 10
768.8671875
 20
-1803.515625
 10
759.375
 20
-1803.515625
 10
749.8828125
 20
-1803.515625
 10
740.390625
 20
-1803.515625
 10
730.8984375
 20
-1803.515625
 10
721.40625
 20
-1803.515625
 10
711.9140625
 20
-1803.515625
 10
702.421875
 20
-1803.515625
 10
692.9296875
 20
-1803.515625
 10
683.4375
 20
-1803.515625
 10
673.9453125
 20
-1803.515625
 10
664.453125
 20
-1803.515625
 10
654.9609375
 20
-1794.0234375
 10
645.46875
 20
-1794.0234375
 10
635.9765625
 20
-1794.0234375
 10
626.484375
 20
-1794.0234375
 10
616.9921875
 20
-1794.0234375
 10
607.5
 20
-1803.515625
 10
598.0078125
 20
-1813.0078125
 10
598.0078125
 20
-1822.5
 10
598.0078125
 20
-1831.9921875
 10
598.0078125
 20
-1841.484375
 10
588.515625
 20
-1850.9765625
 10
598.0078125
 20
-1860.46875
 10
598.0078125
 20
-1869.9609375
 10
598.0078125
 20
-1879.453125
 10
598.0078125
 20
-1888.9453125
 10
598.0078125
 20
-1898.4375
 10
598.0078125
 20
-1907.9296875
 10
598.0078125
 20
-1917.421875
 10
588.515625
 20
-1926.9140625
 10
588.515625
 20
-1936.40625
 10
598.0078125
 20
-1945.8984375
 10
588.515625
 20
-1955.390625
 10
588.515625
 20
-1964.8828125
 10
588.515625
 20
-1974.375
 10
588.515625
 20
-1983.8671875
 10
588.515625
 20
-1993.359375
 10
588.515625
 20
-2002.8515625
 10
588.515625
 20
-2012.34375
 10
588.515625
 20
-2021.8359375
 10
598.0078125
 20
-2031.328125
 10
588.515625
 20
-2040.8203125
 10
588.515625
 20
-2050.3125
 10
588.515625
 20
-2059.8046875
 10
588.515625
 20
-2069.296875
 10
588.515625
 20
-2078.7890625
 10
588.515625
 20
-2088.28125
 10
588.515625
 20
-2097.7734375
 10
588.515625
 20
-2107.265625
 10
588.515625
 20
-2116.7578125
 10
588.515625
 20
-2126.25
 10
588.515625
 20
-2135.7421875
 10
588.515625
 20
-2145.234375
 10
588.515625
 20
-2154.7265625
 10
588.515625
 20
-2164.21875
 10
588.515625
 20
-2173.7109375
 10
588.515625
 20
-2183.203125
 10
588.515625
 20
-2192.6953125
 10
588.515625
 20
-2202.1875
 10
588.515625
 20
-2211.6796875
 10
588.515625
 20
-2221.171875
 10
588.515625
 20
-2230.6640625
 10
588.515625
 20
-2240.15625
 10
588.515625
 20
-2249.6484375
 10
588.515625
 20
-2259.140625
 10
588.515625
 20
-2268.6328125
 10
588.515625
 20
-2278.125
 10
588.515625
 20
-2287.6171875
 10
588.515625
 20
-2297.109375
 10
588.515625
 20
-2306.6015625
 10
588.515625
 20
-2316.09375
 10
588.515625
 20
-2325.5859375
 10
588.515625
 20
-2335.078125
 10
588.515625
 20
-2344.5703125
 10
588.515625
 20
-2354.0625
 10
588.515625
 20
-2363.5546875
 10
588.515625
 20
-2373.046875
 10
588.515625
 20
-2382.5390625
 10
588.515625
 20
-2392.03125
 10
588.515625
 20
-2401.5234375
 10
588.515625
 20
-2411.015625
 10
588.515625
 20
-2420.5078125
 10
588.515625
 20
-2430.0
 10
588.515625
 20
-2439.4921875
 10
588.515625
 20
-2448.984375
 10
588.515625
 20
-2458.4765625
 10
588.515625
 20
-2467.96875
 10
588.515625
 20
-2477.4609375
 10
588.515625
 20
-2486.953125
 10
588.515625
 20
-2496.4453125
 10
588.515625
 20
-2505.9375
 10
588.515625
 20
-2515.4296875
 10
588.515625
 20
-2524.921875
 10
588.515625
 20
-2534.4140625
 10
588.515625
 20
-2543.90625
 10
588.515625
 20
-2553.3984375
 10
588.515625
 20
-2562.890625
 10
588.515625
 20
-2572.3828125
 10
588.515625
 20
-2581.875
 10
588.515625
 20
-2591.3671875
 10
588.515625
 20
-2600.859375
 10
588.515625
 20
-2610.3515625
 10
588.515625
 20
-2619.84375
 10
588.515625
 20
-2629.3359375
 10
588.515625
 20
-2638.828125
 10
588.515625
 20
-2648.3203125
 10
588.515625
 20
-2657.8125
 10
588.515625
 20
-2667.3046875
 10
588.515625
 20
-2676.796875
 10
588.515625
 20
-2686.2890625
 10
588.515625
 20
-2695.78125
 10
588.515625
 20
-2705.2734375
 10
588.515625
 20
-2714.765625
 10
588.515625
 20
-2724.2578125
 10
588.515625
 20
-2733.75
 10
588.515625
 20
-2743.2421875
 10
588.515625
 20
-2752.734375
 10
588.515625
 20
-2762.2265625
 10
588.515625
 20
-2771.71875
 10
588.515625
 20
-2781.2109375
 10
588.515625
 20
-2790.703125
 10
588.515625
 20
-2800.1953125
 10
588.515625
 20
-2809.6875
 10
588.515625
 20
-2819.1796875
 10
588.515625
 20
-2828.671875
 10
588.515625
 20
-2838.1640625
 10
588.515625
 20
-2847.65625
 10
588.515625
 20
-2857.1484375
 10
588.515625
 20
-2866.640625
 10
588.515625
 20
-2876.1328125
 10
588.515625
 20
-2885.625
 10
588.515625
 20
-2895.1171875
 10
588.515625
 20
-2904.609375
 10
588.515625
 20
-2914.1015625
 10
588.515625
 20
-2923.59375
 10
588.515625
 20
-2933.0859375
 10
588.515625
 20
-2942.578125
 10
588.515625
 20
-2952.0703125
 10
588.515625
 20
-2961.5625
 10
588.515625
 20
-2971.0546875
 10
588.515625
 20
-2980.546875
 10
588.515625
 20
-2990.0390625
 10
588.515625
 20
-2999.53125
 10
588.515625
 20
-3009.0234375
 10
588.515625
 20
-3018.515625
 10
588.515625
 20
-3028.0078125
 10
588.515625
 20
-3037.5
 10
588.515625
 20
-3046.9921875
 10
598.0078125
 20
-3056.484375
 10
607.5
 20
-3065.9765625
 10
616.9921875
 20
-3056.484375
 10
626.484375
 20
-3056.484375
 10
635.9765625
 20
-3056.484375
 10
645.46875
 20
-3056.484375
 10
654.9609375
 20
-3056.484375
 10
664.453125
 20
-3056.484375
 10
673.9453125
 20
-3046.9921875
 10
683.4375
 20
-3046.9921875
 10
692.9296875
 20
-3046.9921875
 10
702.421875
 20
-3046.9921875
 10
711.9140625
 20
-3046.9921875
 10
721.40625
 20
-3046.9921875
 10
730.8984375
 20
-3056.484375
 10
740.390625
 20
-3056.484375
 10
749.8828125
 20
-3046.9921875
 10
759.375
 20
-3056.484375
 10
768.8671875
 20
-3056.484375
 10
778.359375
 20
-3056.484375
 10
787.8515625
 20
-3056.484375
 10
797.34375
 20
-3056.484375
 10
806.8359375
 20
-3056.484375
 10
816.328125
 20
-3046.9921875
 10
825.8203125
 20
-3056.484375
 10
835.3125
 20
-3046.9921875
 10
844.8046875
 20
-3056.484375
 10
854.296875
 20
-3056.484375
 10
863.7890625
 20
-3056.484375
 10
873.28125
 20
-3056.484375
 10
882.7734375
 20
-3056.484375
 10
892.265625
 20
-3056.484375
 10
901.7578125
 20
-3056.484375
 10
911.25
 20
-3056.484375
 10
920.7421875
 20
-3056.484375
 10
930.234375
 20
-3056.484375
 10
939.7265625
 20
-3046.9921875
 10
949.21875
 20
-3046.9921875
 10
958.7109375
 20
-3046.9921875
 10
968.203125
 20
-3046.9921875
 10
977.6953125
 20
-3046.9921875
 10
987.1875
 20
-3046.9921875
 10
996.6796875
 20
-3056.484375
 10
1006.171875
 20
-3056.484375
 10
1015.6640625
 20
-3056.484375
 10
1025.15625
 20
-3056.484375
 10
1034.6484375
 20
-3056.484375
 10
1044.140625
 20
-3056.484375
 10
1053.6328125
 20
-3046.9921875
 10
1063.125
 20
-3056.484375
 10
1072.6171875
 20
-3056.484375
 10
1082.109375
 20
-3056.484375
 10
1091.6015625
 20
-3046.9921875
 10
1101.09375
 20
-3056.484375
 10
1110.5859375
 20
-3046.9921875
 10
1120.078125
 20
-3046.9921875
 10
1129.5703125
 20
-3046.9921875
 10
1139.0625
 20
-3046.9921875
 10
1148.5546875
 20
-3046.9921875
 10
1158.046875
 20
-3046.9921875
 10
1167.5390625
 20
-3046.9921875
 10
1177.03125
 20
-3046.9921875
 10
1186.5234375
 20
-3056.484375
 10
1196.015625
 20
-3046.9921875
 10
1205.5078125
 20
-3046.9921875
 10
1215.0
 20
-3046.9921875
 10
1224.4921875
 20
-3056.484375
 10
1233.984375
 20
-3056.484375
 10
1243.4765625
 20
-3056.484375
 10
1252.96875
 20
-3056.484375
 10
1262.4609375
 20
-3056.484375
 10
1271.953125
 20
-3046.9921875
 10
1281.4453125
 20
-3046.9921875
 10
1290.9375
 20
-3046.9921875
 10
1300.4296875
 20
-3046.9921875
 10
1309.921875
 20
-3056.484375
 10
1319.4140625
 20
-3056.484375
 10
1328.90625
 20
-3056.484375
 10
1338.3984375
 20
-3056.484375
 10
1347.890625
 20
-3056.484375
 10
1357.3828125
 20
-3056.484375
 10
1366.875
 20
-3056.484375
 10
1376.3671875
 20
-3056.484375
 10
1385.859375
 20
-3056.484375
 10
1395.3515625
 20
-3056.484375
 10
1404.84375
 20
-3056.484375
 10
1414.3359375
 20
-3056.484375
 10
1423.828125
 20
-3056.484375
 10
1433.3203125
 20
-3056.484375
 10
1442.8125
 20
-3056.484375
 10
1452.3046875
 20
-3056.484375
 10
1461.796875
 20
-3056.484375
 10
1471.2890625
 20
-3056.484375
 10
1480.78125
 20
-3056.484375
 10
1490.2734375
 20
-3056.484375
 10
1499.765625
 20
-3056.484375
 10
1509.2578125
 20
-3056.484375
 10
1518.75
 20
-3056.484375
 10
1528.2421875
 20
-3056.484375
 10
1537.734375
 20
-3056.484375
 10
1547.2265625
 20
-3056.484375
 10
1556.71875
 20
-3056.484375
 10
1566.2109375
 20
-3056.484375
 10
1575.703125
 20
-3056.484375
 10
1585.1953125
 20
-3056.484375
 10
1594.6875
 20
-3056.484375
 10
1604.1796875
 20
-3056.484375
 10
1613.671875
 20
-3056.484375
 10
1623.1640625
 20
-3056.484375
 10
1632.65625
 20
-3056.484375
 10
1642.1484375
 20
-3056.484375
 10
1651.640625
 20
-3056.484375
 10
1661.1328125
 20
-3056.484375
 10
1670.625
 20
-3056.484375
 10
1680.1171875
 20
-3056.484375
 10
1689.609375
 20
-3056.484375
 10
1699.1015625
 20
-3056.484375
 10
1708.59375
 20
-3056.484375
 10
1718.0859375
 20
-3056.484375
 10
1727.578125
 20
-3056.484375
 10
1737.0703125
 20
-3046.9921875
 10
1746.5625
 20
-3046.9921875
 10
1756.0546875
 20
-3046.9921875
 10
1765.546875
 20
-3046.9921875
 10
1775.0390625
 20
-3056.484375
 10
1784.53125
 20
-3056.484375
 10
1794.0234375
 20
-3065.9765625
 10
1794.0234375
 20
-3075.46875
 10
1794.0234375
 20
-3084.9609375
 10
1794.0234375
 20
-3094.453125
 10
1803.515625
 20
-3103.9453125
 10
1794.0234375
 20
-3113.4375
 10
1803.515625
 20
-3122.9296875
 10
1803.515625
 20
-3132.421875
 10
1803.515625
 20
-3141.9140625
 10
1803.515625
 20
-3151.40625
 10
1803.515625
 20
-3160.8984375
 10
1803.515625
 20
-3170.390625
 10
1803.515625
 20
-3179.8828125
 10
1803.515625
 20
-3189.375
 10
1803.515625
 20
-3198.8671875
 10
1803.515625
 20
-3208.359375
 10
1803.515625
 20
-3217.8515625
 10
1803.515625
 20
-3227.34375
 10
1803.515625
 20
-3236.8359375
 10
1803.515625
 20
-3246.328125
 10
1803.515625
 20
-3255.8203125
 10
1803.515625
 20
-3265.3125
 10
1803.515625
 20
-3274.8046875
 10
1803.515625
 20
-3284.296875
 10
1803.515625
 20
-3293.7890625
 10
1794.0234375
 20
-3303.28125
 10
1803.515625
 20
-3312.7734375
 10
1794.0234375
 20
-3322.265625
 10
1794.0234375
 20
-3331.7578125
 10
1794.0234375
 20
-3341.25
 10
1803.515625
 20
-3350.7421875
 10
1794.0234375
 20
-3360.234375
 10
1794.0234375
 20
-3369.7265625
 10
1794.0234375
 20
-3379.21875
 10
1803.515625
 20
-3388.7109375
 10
1794.0234375
 20
-3398.203125
 10
1794.0234375
 20
-3407.6953125
 10
1794.0234375
 20
-3417.1875
 10
1803.515625
 20
-3426.6796875
 10
1794.0234375
 20
-3436.171875
 10
1794.0234375
 20
-3445.6640625
 10
1803.515625
 20
-3455.15625
 10
1803.515625
 20
-3464.6484375
 10
1794.0234375
 20
-3474.140625
 10
1794.0234375
 20
-3483.6328125
 10
1794.0234375
 20
-3493.125
 10
1803.515625
 20
-3502.6171875
 10
1803.515625
 20
-3512.109375
 10
1803.515625
 20
-3521.6015625
 10
1803.515625
 20
-3531.09375
 10
1803.515625
 20
-3540.5859375
 10
1803.515625
 20
-3550.078125
 10
1803.515625
 20
-3559.5703125
 10
1803.515625
 20
-3569.0625
 10
1803.515625
 20
-3578.5546875
 10
1803.515625
 20
-3588.046875
 10
1803.515625
 20
-3597.5390625
 10
1794.0234375
 20
-3607.03125
 10
1803.515625
 20
-3616.5234375
 10
1794.0234375
 20
-3626.015625
 10
1794.0234375
 20
-3635.5078125
 10
1794.0234375
 20
-3645.0
 10
1803.515625
 20
-3654.4921875
 10
1803.515625
 20
-3663.984375
 10
1794.0234375
 20
-3673.4765625
 10
1794.0234375
 20
-3682.96875
 10
1803.515625
 20
-3692.4609375
 10
1794.0234375
 20
-3701.953125
 10
1794.0234375
 20
-3711.4453125
 10
1794.0234375
 20
-3720.9375
 10
1803.515625
 20
-3730.4296875
 10
1794.0234375
 20
-3739.921875
 10
1794.0234375
 20
-3749.4140625
 10
1794.0234375
 20
-3758.90625
 10
1803.515625
 20
-3768.3984375
 10
1794.0234375
 20
-3777.890625
 10
1803.515625
 20
-3787.3828125
 10
1794.0234375
 20
-3796.875
 10
1803.515625
 20
-3806.3671875
 10
1794.0234375
 20
-3815.859375
 10
1794.0234375
 20
-3825.3515625
 10
1794.0234375
 20
-3834.84375
 10
1794.0234375
 20
-3844.3359375
 10
1794.0234375
 20
-3853.828125
 10
1794.0234375
 20
-3863.3203125
 10
1794.0234375
 20
-3872.8125
 10
1794.0234375
 20
-3882.3046875
 10
1794.0234375
 20
-3891.796875
 10
1794.0234375
 20
-3901.2890625
 10
1794.0234375
 20
-3910.78125
 10
1794.0234375
 20
-3920.2734375
 10
1794.0234375
 20
-3929.765625
 10
1794.0234375
 20
-3939.2578125
 10
1794.0234375
 20
-3948.75
 10
1794.0234375
 20
-3958.2421875
 10
1794.0234375
 20
-3967.734375
 10
1794.0234375
 20
-3977.2265625
 10
1794.0234375
 20
-3986.71875
 10
1794.0234375
 20
-3996.2109375
 10
1794.0234375
 20
-4005.703125
 10
1794.0234375
 20
-4015.1953125
 10
1794.0234375
 20
-4024.6875
 10
1794.0234375
 20
-4034.1796875
 10
1794.0234375
 20
-4043.671875
 10
1794.0234375
 20
-4053.1640625
 10
1794.0234375
 20
-4062.65625
 10
1794.0234375
 20
-4072.1484375
 10
1794.0234375
 20
-4081.640625
 10
1794.0234375
 20
-4091.1328125
 10
1794.0234375
 20
-4100.625
 10
1794.0234375
 20
-4110.1171875
 10
1794.0234375
 20
-4119.609375
 10
1794.0234375
 20
-4129.1015625
 10
1803.515625
 20
-4138.59375
 10
1803.515625
 20
-4148.0859375
 10
1803.515625
 20
-4157.578125
 10
1803.515625
 20
-4167.0703125
 10
1803.515625
 20
-4176.5625
 10
1803.515625
 20
-4186.0546875
 10
1803.515625
 20
-4195.546875
 10
1803.515625
 20
-4205.0390625
 10
1794.0234375
 20
-4214.53125
 10
1794.0234375
 20
-4224.0234375
 10
1784.53125
 20
-4233.515625
 10
1784.53125
 20
-4243.0078125
 10
1784.53125
 20
-4252.5
 10
1794.0234375
 20
-4261.9921875
 10
1803.515625
 20
-4261.9921875
 10
1813.0078125
 20
-4261.9921875
 10
1822.5
 20
-4271.484375
 10
1831.9921875
 20
-4271.484375
 10
1841.484375
 20
-4271.484375
 10
1850.9765625
 20
-4271.484375
 10
1860.46875
 20
-4271.484375
 10
1869.9609375
 20
-4261.9921875
 10
1879.453125
 20
-4261.9921875
 10
1888.9453125
 20
-4261.9921875
 10
1898.4375
 20
-4261.9921875
 10
1907.9296875
 20
-4261.9921875
 10
1917.421875
 20
-4261.9921875
 10
1926.9140625
 20
-4261.9921875
 10
1936.40625
 20
-4261.9921875
 10
1945.8984375
 20
-4271.484375
 10
1955.390625
 20
-4271.484375
 10
1964.8828125
 20
-4261.9921875
 10
1974.375
 20
-4261.9921875
 10
1983.8671875
 20
-4271.484375
 10
1993.359375
 20
-4261.9921875
 10
2002.8515625
 20
-4261.9921875
 10
2012.34375
 20
-4261.9921875
 10
2021.8359375
 20
-4261.9921875
 10
2031.328125
 20
-4261.9921875
 10
2040.8203125
 20
-4261.9921875
 10
2050.3125
 20
-4261.9921875
 10
2059.8046875
 20
-4261.9921875
 10
2069.296875
 20
-4261.9921875
 10
2078.7890625
 20
-4261.9921875
 10
2088.28125
 20
-4261.9921875
 10
2097.7734375
 20
-4271.484375
 10
2107.265625
 20
-4271.484375
 10
2116.7578125
 20
-4271.484375
 10
2126.25
 20
-4261.9921875
 10
2135.7421875
 20
-4271.484375
 10
2145.234375
 20
-4261.9921875
 10
2154.7265625
 20
-4261.9921875
 10
2164.21875
 20
-4261.9921875
 10
2173.7109375
 20
-4261.9921875
 10
2183.203125
 20
-4261.9921875
 10
2192.6953125
 20
-4261.9921875
 10
2202.1875
 20
-4261.9921875
 10
2211.6796875
 20
-4261.9921875
 10
2221.171875
 20
-4261.9921875
 10
2230.6640625
 20
-4261.9921875
 10
2240.15625
 20
-4261.9921875
 10
2249.6484375
 20
-4261.9921875
 10
2259.140625
 20
-4261.9921875
 10
2268.6328125
 20
-4261.9921875
 10
2278.125
 20
-4261.9921875
 10
2287.6171875
 20
-4261.9921875
 10
2297.109375
 20
-4261.9921875
 10
2306.6015625
 20
-4261.9921875
 10
2316.09375
 20
-4261.9921875
 10
2325.5859375
 20
-4261.9921875
 10
2335.078125
 20
-4261.9921875
 10
2344.5703125
 20
-4261.9921875
 10
2354.0625
 20
-4261.9921875
 10
2363.5546875
 20
-4261.9921875
 10
2373.046875
 20
-4261.9921875
 10
2382.5390625
 20
-4261.9921875
 10
2392.03125
 20
-4261.9921875
 10
2401.5234375
 20
-4271.484375
 10
2411.015625
 20
-4271.484375
 10
2420.5078125
 20
-4261.9921875
 10
2430.0
 20
-4261.9921875
 10
2439.4921875
 20
-4261.9921875
 10
2448.984375
 20
-4261.9921875
 10
2458.4765625
 20
-4261.9921875
 10
2467.96875
 20
-4261.9921875
 10
2477.4609375
 20
-4261.9921875
 10
2486.953125
 20
-4261.9921875
 10
2496.4453125
 20
-4261.9921875
 10
2505.9375
 20
-4261.9921875
 10
2515.4296875
 20
-4261.9921875
 10
2524.921875
 20
-4261.9921875
 10
2534.4140625
 20
-4261.9921875
 10
2543.90625
 20
-4261.9921875
 10
2553.3984375
 20
-4271.484375
 10
2562.890625
 20
-4271.484375
 10
2572.3828125
 20
-4271.484375
 10
2581.875
 20
-4271.484375
 10
2591.3671875
 20
-4271.484375
 10
2600.859375
 20
-4271.484375
 10
2610.3515625
 20
-4271.484375
 10
2619.84375
 20
-4271.484375
 10
2629.3359375
 20
-4271.484375
 10
2638.828125
 20
-4271.484375
 10
2648.3203125
 20
-4271.484375
 10
2657.8125
 20
-4271.484375
 10
2667.3046875
 20
-4271.484375
 10
2676.796875
 20
-4271.484375
 10
2686.2890625
 20
-4271.484375
 10
2695.78125
 20
-4271.484375
 10
2705.2734375
 20
-4271.484375
 10
2714.765625
 20
-4271.484375
 10
2724.2578125
 20
-4261.9921875
 10
2733.75
 20
-4261.9921875
 10
2743.2421875
 20
-4261.9921875
 10
2752.734375
 20
-4261.9921875
 10
2762.2265625
 20
-4261.9921875
 10
2771.71875
 20
-4261.9921875
 10
2781.2109375
 20
-4261.9921875
 10
2790.703125
 20
-4261.9921875
 10
2800.1953125
 20
-4261.9921875
 10
2809.6875
 20
-4261.9921875
 10
2819.1796875
 20
-4261.9921875
 10
2828.671875
 20
-4261.9921875
 10
2838.1640625
 20
-4261.9921875
 10
2847.65625
 20
-4261.9921875
 10
2857.1484375
 20
-4261.9921875
 10
2866.640625
 20
-4271.484375
 10
2876.1328125
 20
-4261.9921875
 10
2885.625
 20
-4261.9921875
 10
2895.1171875
 20
-4261.9921875
 10
2904.609375
 20
-4261.9921875
 10
2914.1015625
 20
-4261.9921875
 10
2923.59375
 20
-4261.9921875
 10
2933.0859375
 20
-4261.9921875
 10
2942.578125
 20
-4261.9921875
 10
2952.0703125
 20
-4261.9921875
 10
2961.5625
 20
-4261.9921875
 10
2971.0546875
 20
-4261.9921875
 10
2980.546875
 20
-4261.9921875
 10
2990.0390625
 20
-4271.484375
 10
2999.53125
 20
-4261.9921875
 10
3009.0234375
 20
-4271.484375
 10
3018.515625
 20
-4261.9921875
 10
3028.0078125
 20
-4261.9921875
 10
3037.5
 20
-4252.5
 10
3046.9921875
 20
-4252.5
 10
3046.9921875
 20
-4243.0078125
 10
3056.484375
 20
-4233.515625
 10
3056.484375
 20
-4224.0234375
 10
3046.9921875
 20
-4214.53125
 10
3046.9921875
 20
-4205.0390625
 10
3046.9921875
 20
-4195.546875
 10
3046.9921875
 20
-4186.0546875
 10
3046.9921875
 20
-4176.5625
 10
3046.9921875
 20
-4167.0703125
 10
3046.9921875
 20
-4157.578125
 10
3046.9921875
 20
-4148.0859375
 10
3046.9921875
 20
-4138.59375
 10
3046.9921875
 20
-4129.1015625
 10
3046.9921875
 20
-4119.609375
 10
3046.9921875
 20
-4110.1171875
 10
3037.5
 20
-4100.625
 10
3037.5
 20
-4091.1328125
 10
3037.5
 20
-4081.640625
 10
3037.5
 20
-4072.1484375
 10
3037.5
 20
-4062.65625
 10
3037.5
 20
-4053.1640625
 10
3037.5
 20
-4043.671875
 10
3037.5
 20
-4034.1796875
 10
3037.5
 20
-4024.6875
 10
3037.5
 20
-4015.1953125
 10
3037.5
 20
-4005.703125
 10
3037.5
 20
-3996.2109375
 10
3037.5
 20
-3986.71875
 10
3037.5
 20
-3977.2265625
 10
3037.5
 20
-3967.734375
 10
3037.5
 20
-3958.2421875
 10
3037.5
 20
-3948.75
 10
3037.5
 20
-3939.2578125
 10
3037.5
 20
-3929.765625
 10
3037.5
 20
-3920.2734375
 10
3037.5
 20
-3910.78125
 10
3037.5
 20
-3901.2890625
 10
3037.5
 20
-3891.796875
 10
3037.5
 20
-3882.3046875
 10
3037.5
 20
-3872.8125
 10
3037.5
 20
-3863.3203125
 10
3037.5
 20
-3853.828125
 10
3037.5
 20
-3844.3359375
 10
3037.5
 20
-3834.84375
 10
3037.5
 20
-3825.3515625
 10
3037.5
 20
-3815.859375
 10
3037.5
 20
-3806.3671875
 10
3037.5
 20
-3796.875
 10
3037.5
 20
-3787.3828125
 10
3037.5
 20
-3777.890625
 10
3037.5
 20
-3768.3984375
 10
3037.5
 20
-3758.90625
 10
3037.5
 20
-3749.4140625
 10
3037.5
 20
-3739.921875
 10
3037.5
 20
-3730.4296875
 10
3037.5
 20
-3720.9375
 10
3037.5
 20
-3711.4453125
 10
3037.5
 20
-3701.953125
 10
3037.5
 20
-3692.4609375
 10
3037.5
 20
-3682.96875
 10
3037.5
 20
-3673.4765625
 10
3037.5
 20
-3663.984375
 10
3037.5
 20
-3654.4921875
 10
3037.5
 20
-3645.0
 10
3037.5
 20
-3635.5078125
 10
3037.5
 20
-3626.015625
 10
3037.5
 20
-3616.5234375
 10
3037.5
 20
-3607.03125
 10
3037.5
 20
-3597.5390625
 10
3037.5
 20
-3588.046875
 10
3037.5
 20
-3578.5546875
 10
3037.5
 20
-3569.0625
 10
3037.5
 20
-3559.5703125
 10
3037.5
 20
-3550.078125
 10
3046.9921875
 20
-3540.5859375
 10
3037.5
 20
-3531.09375
 10
3037.5
 20
-3521.6015625
 10
3037.5
 20
-3512.109375
 10
3037.5
 20
-3502.6171875
 10
3037.5
 20
-3493.125
 10
3037.5
 20
-3483.6328125
 10
3037.5
 20
-3474.140625
 10
3037.5
 20
-3464.6484375
 10
3037.5
 20
-3455.15625
 10
3037.5
 20
-3445.6640625
 10
3037.5
 20
-3436.171875
 10
3037.5
 20
-3426.6796875
 10
3037.5
 20
-3417.1875
 10
3037.5
 20
-3407.6953125
 10
3037.5
 20
-3398.203125
 10
3037.5
 20
-3388.7109375
 10
3037.5
 20
-3379.21875
 10
3037.5
 20
-3369.7265625
 10
3037.5
 20
-3360.234375
 10
3037.5
 20
-3350.7421875
 10
3037.5
 20
-3341.25
 10
3037.5
 20
-3331.7578125
 10
3037.5
 20
-3322.265625
 10
3037.5
 20
-3312.7734375
 10
3037.5
 20
-3303.28125
 10
3037.5
 20
-3293.7890625
 10
3037.5
 20
-3284.296875
 10
3037.5
 20
-3274.8046875
 10
3037.5
 20
-3265.3125
 10
3037.5
 20
-3255.8203125
 10
3046.9921875
 20
-3246.328125
 10
3046.9921875
 20
-3236.8359375
 10
3046.9921875
 20
-3227.34375
 10
3046.9921875
 20
-3217.8515625
 10
3046.9921875
 20
-3208.359375
 10
3046.9921875
 20
-3198.8671875
 10
3046.9921875
 20
-3189.375
 10
3046.9921875
 20
-3179.8828125
 10
3046.9921875
 20
-3170.390625
 10
3037.5
 20
-3160.8984375
 10
3037.5
 20
-3151.40625
 10
3037.5
 20
-3141.9140625
 10
3046.9921875
 20
-3132.421875
 10
3046.9921875
 20
-3122.9296875
 10
3046.9921875
 20
-3113.4375
 10
3046.9921875
 20
-3103.9453125
 10
3046.9921875
 20
-3094.453125
 10
3046.9921875
 20
-3084.9609375
 10
3037.5
 20
-3075.46875
 10
3037.5
 20
-3065.9765625
 10
3046.9921875
 20
-3056.484375
 10
3046.9921875
 20
-3046.9921875
 10
3046.9921875
 20
-3037.5
 10
3056.484375
 20
-3028.0078125
 10
3065.9765625
 20
-3037.5
 10
3075.46875
 20
-3037.5
 10
3084.9609375
 20
-3037.5
 10
3094.453125
 20
-3037.5
 10
3103.9453125
 20
-3037.5
 10
3113.4375
 20
-3046.9921875
 10
3122.9296875
 20
-3046.9921875
 10
3132.421875
 20
-3046.9921875
 10
3141.9140625
 20
-3046.9921875
 10
3151.40625
 20
-3046.9921875
 10
3160.8984375
 20
-3046.9921875
 10
3170.390625
 20
-3046.9921875
 10
3179.8828125
 20
-3046.9921875
 10
3189.375
 20
-3046.9921875
 10
3198.8671875
 20
-3046.9921875
 10
3208.359375
 20
-3046.9921875
 10
3217.8515625
 20
-3046.9921875
 10
3227.34375
 20
-3046.9921875
 10
3236.8359375
 20
-3046.9921875
 10
3246.328125
 20
-3046.9921875
 10
3255.8203125
 20
-3046.9921875
 10
3265.3125
 20
-3046.9921875
 10
3274.8046875
 20
-3046.9921875
 10
3284.296875
 20
-3046.9921875
 10
3293.7890625
 20
-3046.9921875
 10
3303.28125
 20
-3046.9921875
 10
3312.7734375
 20
-3046.9921875
 10
3322.265625
 20
-3046.9921875
 10
3331.7578125
 20
-3046.9921875
 10
3341.25
 20
-3037.5
 10
3350.7421875
 20
-3046.9921875
 10
3360.234375
 20
-3037.5
 10
3369.7265625
 20
-3037.5
 10
3379.21875
 20
-3037.5
 10
3388.7109375
 20
-3037.5
 10
3398.203125
 20
-3046.9921875
 10
3407.6953125
 20
-3046.9921875
 10
3417.1875
 20
-3046.9921875
 10
3426.6796875
 20
-3046.9921875
 10
3436.171875
 20
-3046.9921875
 10
3445.6640625
 20
-3046.9921875
 10
3455.15625
 20
-3046.9921875
 10
3464.6484375
 20
-3046.9921875
 10
3474.140625
 20
-3046.9921875
 10
3483.6328125
 20
-3046.9921875
 10
3493.125
 20
-3046.9921875
 10
3502.6171875
 20
-3046.9921875
 10
3512.109375
 20
-3037.5
 10
3521.6015625
 20
-3037.5
 10
3531.09375
 20
-3037.5
 10
3540.5859375
 20
-3037.5
 10
3550.078125
 20
-3037.5
 10
3559.5703125
 20
-3037.5
 10
3569.0625
 20
-3037.5
 10
3578.5546875
 20
-3037.5
 10
3588.046875
 20
-3037.5
 10
3597.5390625
 20
-3037.5
 10
3607.03125
 20
-3037.5
 10
3616.5234375
 20
-3037.5
 10
3626.015625
 20
-3037.5
 10
3635.5078125
 20
-3037.5
 10
3645.0
 20
-3037.5
 10
3654.4921875
 20
-3046.9921875
 10
3663.984375
 20
-3037.5
 10
3673.4765625
 20
-3037.5
 10
3682.96875
 20
-3037.5
 10
3692.4609375
 20
-3037.5
 10
3701.953125
 20
-3037.5
 10
3711.4453125
 20
-3037.5
 10
3720.9375
 20
-3037.5
 10
3730.4296875
 20
-3046.9921875
 10
3739.921875
 20
-3037.5
 10
3749.4140625
 20
-3046.9921875
 10
3758.90625
 20
-3037.5
 10
3768.3984375
 20
-3046.9921875
 10
3777.890625
 20
-3046.9921875
 10
3787.3828125
 20
-3037.5
 10
3796.875
 20
-3037.5
 10
3806.3671875
 20
-3046.9921875
 10
3815.859375
 20
-3046.9921875
 10
3825.3515625
 20
-3046.9921875
 10
3834.84375
 20
-3046.9921875
 10
3844.3359375
 20
-3046.9921875
 10
3853.828125
 20
-3046.9921875
 10
3863.3203125
 20
-3046.9921875
 10
3872.8125
 20
-3046.9921875
 10
3882.3046875
 20
-3046.9921875
 10
3891.796875
 20
-3037.5
 10
3901.2890625
 20
-3046.9921875
 10
3910.78125
 20
-3037.5
 10
3920.2734375
 20
-3037.5
 10
3929.765625
 20
-3046.9921875
 10
3939.2578125
 20
-3037.5
 10
3948.75
 20
-3037.5
 10
3958.2421875
 20
-3037.5
 10
3967.734375
 20
-3037.5
 10
3977.2265625
 20
-3037.5
 10
3986.71875
 20
-3037.5
 10
3996.2109375
 20
-3037.5
 10
4005.703125
 20
-3046.9921875
 10
4015.1953125
 20
-3037.5
 10
4024.6875
 20
-3037.5
 10
4034.1796875
 20
-3046.9921875
 10
4043.671875
 20
-3046.9921875
 10
4053.1640625
 20
-3046.9921875
 10
4062.65625
 20
-3046.9921875
 10
4072.1484375
 20
-3046.9921875
 10
4081.640625
 20
-3046.9921875
 10
4091.1328125
 20
-3046.9921875
 10
4100.625
 20
-3046.9921875
 10
4110.1171875
 20
-3046.9921875
 10
4119.609375
 20
-3046.9921875
 10
4129.1015625
 20
-3046.9921875
 10
4138.59375
 20
-3046.9921875
 10
4148.0859375
 20
-3037.5
 10
4157.578125
 20
-3037.5
 10
4167.0703125
 20
-3037.5
 10
4176.5625
 20
-3046.9921875
 10
4186.0546875
 20
-3046.9921875
 10
4195.546875
 20
-3046.9921875
 10
4205.0390625
 20
-3046.9921875
 10
4214.53125
 20
-3046.9921875
 10
4224.0234375
 20
-3046.9921875
 10
4233.515625
 20
-3046.9921875
 10
4243.0078125
 20
-3046.9921875
 10
4252.5
 20
-3037.5
 10
4252.5
 20
-3028.0078125
 10
4252.5
 20
-3018.515625
 10
4252.5
 20
-3009.0234375
 10
4252.5
 20
-2999.53125
 10
4252.5
 20
-2990.0390625
 10
4252.5
 20
-2980.546875
 10
4252.5
 20
-2971.0546875
 10
4252.5
 20
-2961.5625
 10
4252.5
 20
-2952.0703125
 10
4252.5
 20
-2942.578125
 10
4252.5
 20
-2933.0859375
 10
4252.5
 20
-2923.59375
 10
4252.5
 20
-2914.1015625
 10
4252.5
 20
-2904.609375
 10
4252.5
 20
-2895.1171875
 10
4252.5
 20
-2885.625
 10
4252.5
 20
-2876.1328125
 10
4252.5
 20
-2866.640625
 10
4252.5
 20
-2857.1484375
 10
4252.5
 20
-2847.65625
 10
4252.5
 20
-2838.1640625
 10
4252.5
 20
-2828.671875
 10
4252.5
 20
-2819.1796875
 10
4252.5
 20
-2809.6875
 10
4252.5
 20
-2800.1953125
 10
4252.5
 20
-2790.703125
 10
4252.5
 20
-2781.2109375
 10
4252.5
 20
-2771.71875
 10
4252.5
 20
-2762.2265625
 10
4252.5
 20
-2752.734375
 10
4252.5
 20
-2743.2421875
 10
4252.5
 20
-2733.75
 10
4252.5
 20
-2724.2578125
 10
4252.5
 20
-2714.765625
 10
4252.5
 20
-2705.2734375
 10
4252.5
 20
-2695.78125
 10
4252.5
 20
-2686.2890625
 10
4243.0078125
 20
-2676.796875
 10
4243.0078125
 20
-2667.3046875
 10
4243.0078125
 20
-2657.8125
 10
4243.0078125
 20
-2648.3203125
 10
4243.0078125
 20
-2638.828125
 10
4243.0078125
 20
-2629.3359375
 10
4243.0078125
 20
-2619.84375
 10
4252.5
 20
-2610.3515625
 10
4252.5
 20
-2600.859375
 10
4252.5
 20
-2591.3671875
 10
4252.5
 20
-2581.875
 10
4252.5
 20
-2572.3828125
 10
4252.5
 20
-2562.890625
 10
4252.5
 20
-2553.3984375
 10
4252.5
 20
-2543.90625
 10
4252.5
 20
-2534.4140625
 10
4252.5
 20
-2524.921875
 10
4252.5
 20
-2515.4296875
 10
4252.5
 20
-2505.9375
 10
4252.5
 20
-2496.4453125
 10
4252.5
 20
-2486.953125
 10
4252.5
 20
-2477.4609375
 10
4252.5
 20
-2467.96875
 10
4252.5
 20
-2458.4765625
 10
4252.5
 20
-2448.984375
 10
4252.5
 20
-2439.4921875
 10
4252.5
 20
-2430.0
 10
4252.5
 20
-2420.5078125
 10
4252.5
 20
-2411.015625
 10
4252.5
 20
-2401.5234375
 10
4252.5
 20
-2392.03125
 10
4252.5
 20
-2382.5390625
 10
4252.5
 20
-2373.046875
 10
4252.5
 20
-2363.5546875
 10
4252.5
 20
-2354.0625
 10
4252.5
 20
-2344.5703125
 10
4252.5
 20
-2335.078125
 10
4252.5
 20
-2325.5859375
 10
4252.5
 20
-2316.09375
 10
4252.5
 20
-2306.6015625
 10
4252.5
 20
-2297.109375
 10
4252.5
 20
-2287.6171875
 10
4252.5
 20
-2278.125
 10
4252.5
 20
-2268.6328125
 10
4252.5
 20
-2259.140625
 10
4252.5
 20
-2249.6484375
 10
4252.5
 20
-2240.15625
 10
4252.5
 20
-2230.6640625
 10
4252.5
 20
-2221.171875
 10
4252.5
 20
-2211.6796875
 10
4252.5
 20
-2202.1875
 10
4252.5
 20
-2192.6953125
 10
4252.5
 20
-2183.203125
 10
4252.5
 20
-2173.7109375
 10
4252.5
 20
-2164.21875
 10
4252.5
 20
-2154.7265625
 10
4252.5
 20
-2145.234375
 10
4252.5
 20
-2135.7421875
 10
4252.5
 20
-2126.25
 10
4252.5
 20
-2116.7578125
 10
4252.5
 20
-2107.265625
 10
4252.5
 20
-2097.7734375
 10
4252.5
 20
-2088.28125
 10
4252.5
 20
-2078.7890625
 10
4252.5
 20
-2069.296875
 10
4252.5
 20
-2059.8046875
 10
4252.5
 20
-2050.3125
 10
4252.5
 20
-2040.8203125
 10
4252.5
 20
-2031.328125
 10
4252.5
 20
-2021.8359375
 10
4252.5
 20
-2012.34375
 10
4252.5
 20
-2002.8515625
 10
4252.5
 20
-1993.359375
 10
4252.5
 20
-1983.8671875
 10
4252.5
 20
-1974.375
 10
4252.5
 20
-1964.8828125
 10
4252.5
 20
-1955.390625
 10
4252.5
 20
-1945.8984375
 10
4261.9921875
 20
-1936.40625
 10
4252.5
 20
-1926.9140625
 10
4252.5
 20
-1917.421875
 10
4252.5
 20
-1907.9296875
 10
4252.5
 20
-1898.4375
 10
4252.5
 20
-1888.9453125
 10
4252.5
 20
-1879.453125
 10
4261.9921875
 20
-1869.9609375
 10
4252.5
 20
-1860.46875
 10
4252.5
 20
-1850.9765625
 10
4261.9921875
 20
-1841.484375
 10
4261.9921875
 20
-1831.9921875
 10
4252.5
 20
-1822.5
 10
4252.5
 20
-1813.0078125
 10
4252.5
 20
-1803.515625
 10
4243.0078125
 20
-1803.515625
 10
4233.515625
 20
-1794.0234375
 10
4224.0234375
 20
-1794.0234375
 10
4214.53125
 20
-1794.0234375
 10
4205.0390625
 20
-1794.0234375
 10
4195.546875
 20
-1803.515625
 10
4186.0546875
 20
-1803.515625
 10
4176.5625
 20
-1803.515625
 10
4167.0703125
 20
-1813.0078125
 10
4157.578125
 20
-1803.515625
 10
4148.0859375
 20
-1813.0078125
 10
4138.59375
 20
-1803.515625
 10
4129.1015625
 20
-1803.515625
 10
4119.609375
 20
-1803.515625
 10
4110.1171875
 20
-1803.515625
 10
4100.625
 20
-1803.515625
 10
4091.1328125
 20
-1803.515625
 10
4081.640625
 20
-1803.515625
 10
4072.1484375
 20
-1813.0078125
 10
4062.65625
 20
-1803.515625
 10
4053.1640625
 20
-1803.515625
 10
4043.671875
 20
-1803.515625
 10
4034.1796875
 20
-1803.515625
 10
4024.6875
 20
-1803.515625
 10
4015.1953125
 20
-1803.515625
 10
4005.703125
 20
-1803.515625
 10
3996.2109375
 20
-1803.515625
 10
3986.71875
 20
-1803.515625
 10
3977.2265625
 20
-1803.515625
 10
3967.734375
 20
-1813.0078125
 10
3958.2421875
 20
-1813.0078125
 10
3948.75
 20
-1813.0078125
 10
3939.2578125
 20
-1813.0078125
 10
3929.765625
 20
-1813.0078125
 10
3920.2734375
 20
-1813.0078125
 10
3910.78125
 20
-1813.0078125
 10
3901.2890625
 20
-1803.515625
 10
3891.796875
 20
-1803.515625
 10
3882.3046875
 20
-1813.0078125
 10
3872.8125
 20
-1803.515625
 10
3863.3203125
 20
-1813.0078125
 10
3853.828125
 20
-1813.0078125
 10
3844.3359375
 20
-1813.0078125
 10
3834.84375
 20
-1813.0078125
 10
3825.3515625
 20
-1803.515625
 10
3815.859375
 20
-1803.515625
 10
3806.3671875
 20
-1803.515625
 10
3796.875
 20
-1803.515625
 10
3787.3828125
 20
-1803.515625
 10
3777.890625
 20
-1803.515625
 10
3768.3984375
 20
-1813.0078125
 10
3758.90625
 20
-1803.515625
 10
3749.4140625
 20
-1803.515625
 10
3739.921875
 20
-1813.0078125
 10
3730.4296875
 20
-1813.0078125
 10
3720.9375
 20
-1813.0078125
 10
3711.4453125
 20
-1813.0078125
 10
3701.953125
 20
-1813.0078125
 10
3692.4609375
 20
-1813.0078125
 10
3682.96875
 20
-1813.0078125
 10
3673.4765625
 20
-1813.0078125
 10
3663.984375
 20
-1813.0078125
 10
3654.4921875
 20
-1813.0078125
 10
3645.0
 20
-1813.0078125
 10
3635.5078125
 20
-1813.0078125
 10
3626.015625
 20
-1813.0078125
 10
3616.5234375
 20
-1813.0078125
 10
3607.03125
 20
-1813.0078125
 10
3597.5390625
 20
-1803.515625
 10
3588.046875
 20
-1803.515625
 10
3578.5546875
 20
-1813.0078125
 10
3569.0625
 20
-1803.515625
 10
3559.5703125
 20
-1813.0078125
 10
3550.078125
 20
-1803.515625
 10
3540.5859375
 20
-1813.0078125
 10
3531.09375
 20
-1803.515625
 10
3521.6015625
 20
-1803.515625
 10
3512.109375
 20
-1803.515625
 10
3502.6171875
 20
-1803.515625
 10
3493.125
 20
-1803.515625
 10
3483.6328125
 20
-1803.515625
 10
3474.140625
 20
-1803.515625
 10
3464.6484375
 20
-1813.0078125
 10
3455.15625
 20
-1803.515625
 10
3445.6640625
 20
-1803.515625
 10
3436.171875
 20
-1803.515625
 10
3426.6796875
 20
-1813.0078125
 10
3417.1875
 20
-1803.515625
 10
3407.6953125
 20
-1813.0078125
 10
3398.203125
 20
-1803.515625
 10
3388.7109375
 20
-1813.0078125
 10
3379.21875
 20
-1803.515625
 10
3369.7265625
 20
-1803.515625
 10
3360.234375
 20
-1803.515625
 10
3350.7421875
 20
-1813.0078125
 10
3341.25
 20
-1803.515625
 10
3331.7578125
 20
-1813.0078125
 10
3322.265625
 20
-1803.515625
 10
3312.7734375
 20
-1813.0078125
 10
3303.28125
 20
-1803.515625
 10
3293.7890625
 20
-1813.0078125
 10
3284.296875
 20
-1803.515625
 10
3274.8046875
 20
-1813.0078125
 10
3265.3125
 20
-1803.515625
 10
3255.8203125
 20
-1813.0078125
 10
3246.328125
 20
-1803.515625
 10
3236.8359375
 20
-1813.0078125
 10
3227.34375
 20
-1803.515625
 10
3217.8515625
 20
-1803.515625
 10
3208.359375
 20
-1803.515625
 10
3198.8671875
 20
-1803.515625
 10
3189.375
 20
-1803.515625
 10
3179.8828125
 20
-1813.0078125
 10
3170.390625
 20
-1813.0078125
 10
3160.8984375
 20
-1813.0078125
 10
3151.40625
 20
-1813.0078125
 10
3141.9140625
 20
-1813.0078125
 10
3132.421875
 20
-1813.0078125
 10
3122.9296875
 20
-1813.0078125
 10
3113.4375
 20
-1803.515625
 10
3103.9453125
 20
-1813.0078125
 10
3094.453125
 20
-1813.0078125
 10
3084.9609375
 20
-1813.0078125
 10
3075.46875
 20
-1803.515625
 10
3065.9765625
 20
-1803.515625
 10
3056.484375
 20
-1803.515625
 10
3046.9921875
 20
-1794.0234375
 10
3046.9921875
 20
-1784.53125
 10
3037.5
 20
-1775.0390625
 10
3046.9921875
 20
-1765.546875
 10
3046.9921875
 20
-1756.0546875
 10
3037.5
 20
-1746.5625
 10
3037.5
 20
-1737.0703125
 10
3037.5
 20
-1727.578125
 10
3037.5
 20
-1718.0859375
 10
3037.5
 20
-1708.59375
 10
3037.5
 20
-1699.1015625
 10
3037.5
 20
-1689.609375
 10
3037.5
 20
-1680.1171875
 10
3037.5
 20
-1670.625
 10
3037.5
 20
-1661.1328125
 10
3037.5
 20
-1651.640625
 10
3037.5
 20
-1642.1484375
 10
3037.5
 20
-1632.65625
 10
3037.5
 20
-1623.1640625
 10
3037.5
 20
-1613.671875
 10
3046.9921875
 20
-1604.1796875
 10
3037.5
 20
-1594.6875
 10
3037.5
 20
-1585.1953125
 10
3046.9921875
 20
-1575.703125
 10
3046.9921875
 20
-1566.2109375
 10
3037.5
 20
-1556.71875
 10
3037.5
 20
-1547.2265625
 10
3037.5
 20
-1537.734375
 10
3037.5
 20
-1528.2421875
 10
3037.5
 20
-1518.75
 10
3037.5
 20
-1509.2578125
 10
3037.5
 20
-1499.765625
 10
3037.5
 20
-1490.2734375
 10
3037.5
 20
-1480.78125
 10
3046.9921875
 20
-1471.2890625
 10
3046.9921875
 20
-1461.796875
 10
3046.9921875
 20
-1452.3046875
 10
3037.5
 20
-1442.8125
 10
3046.9921875
 20
-1433.3203125
 10
3046.9921875
 20
-1423.828125
 10
3046.9921875
 20
-1414.3359375
 10
3037.5
 20
-1404.84375
 10
3037.5
 20
-1395.3515625
 10
3046.9921875
 20
-1385.859375
 10
3046.9921875
 20
-1376.3671875
 10
3037.5
 20
-1366.875
 10
3046.9921875
 20
-1357.3828125
 10
3046.9921875
 20
-1347.890625
 10
3046.9921875
 20
-1338.3984375
 10
3037.5
 20
-1328.90625
 10
3037.5
 20
-1319.4140625
 10
3037.5
 20
-1309.921875
 10
3037.5
 20
-1300.4296875
 10
3037.5
 20
-1290.9375
 10
3037.5
 20
-1281.4453125
 10
3046.9921875
 20
-1271.953125
 10
3037.5
 20
-1262.4609375
 10
3037.5
 20
-1252.96875
 10
3037.5
 20
-1243.4765625
 10
3046.9921875
 20
-1233.984375
 10
3037.5
 20
-1224.4921875
 10
3037.5
 20
-1215.0
 10
3037.5
 20
-1205.5078125
 10
3037.5
 20
-1196.015625
 10
3037.5
 20
-1186.5234375
 10
3037.5
 20
-1177.03125
 10
3037.5
 20
-1167.5390625
 10
3046.9921875
 20
-1158.046875
 10
3046.9921875
 20
-1148.5546875
 10
3037.5
 20
-1139.0625
 10
3037.5
 20
-1129.5703125
 10
3037.5
 20
-1120.078125
 10
3037.5
 20
-1110.5859375
 10
3037.5
 20
-1101.09375
 10
3037.5
 20
-1091.6015625
 10
3046.9921875
 20
-1082.109375
 10
3037.5
 20
-1072.6171875
 10
3037.5
 20
-1063.125
 10
3037.5
 20
-1053.6328125
 10
3046.9921875
 20
-1044.140625
 10
3046.9921875
 20
-1034.6484375
 10
3046.9921875
 20
-1025.15625
 10
3046.9921875
 20
-1015.6640625
 10
3046.9921875
 20
-1006.171875
 10
3046.9921875
 20
-996.6796875
 10
3037.5
 20
-987.1875
 10
3046.9921875
 20
-977.6953125
 10
3046.9921875
 20
-968.203125
 10
3046.9921875
 20
-958.7109375
 10
3046.9921875
 20
-949.21875
 10
3046.9921875
 20
-939.7265625
 10
3046.9921875
 20
-930.234375
 10
3046.9921875
 20
-920.7421875
 10
3037.5
 20
-911.25
 10
3046.9921875
 20
-901.7578125
 10
3046.9921875
 20
-892.265625
 10
3037.5
 20
-882.7734375
 10
3037.5
 20
-873.28125
 10
3046.9921875
 20
-863.7890625
 10
3046.9921875
 20
-854.296875
 10
3046.9921875
 20
-844.8046875
 10
3037.5
 20
-835.3125
 10
3046.9921875
 20
-825.8203125
 10
3046.9921875
 20
-816.328125
 10
3046.9921875
 20
-806.8359375
 10
3046.9921875
 20
-797.34375
 10
3046.9921875
 20
-787.8515625
 10
3046.9921875
 20
-778.359375
 10
3046.9921875
 20
-768.8671875
 10
3046.9921875
 20
-759.375
 10
3046.9921875
 20
-749.8828125
 10
3046.9921875
 20
-740.390625
 10
3046.9921875
 20
-730.8984375
 10
3046.9921875
 20
-721.40625
 10
3046.9921875
 20
-711.9140625
 10
3046.9921875
 20
-702.421875
 10
3046.9921875
 20
-692.9296875
 10
3046.9921875
 20
-683.4375
 10
3046.9921875
 20
-673.9453125
 10
3046.9921875
 20
-664.453125
 10
3046.9921875
 20
-654.9609375
 10
3056.484375
 20
-645.46875
 10
3056.484375
 20
-635.9765625
 10
3056.484375
 20
-626.484375
 10
3056.484375
 20
-616.9921875
 10
3056.484375
 20
-607.5
 10
3046.9921875
 20
-607.5
 10
3037.5
 20
-598.0078125
 10
3028.0078125
 20
-607.5
 10
3018.515625
 20
-598.0078125
 10
3009.0234375
 20
-607.5
 10
2999.53125
 20
-598.0078125
 10
2990.0390625
 20
-598.0078125
 10
2980.546875
 20
-598.0078125
 10
2971.0546875
 20
-598.0078125
 10
2961.5625
 20
-598.0078125
 10
2952.0703125
 20
-598.0078125
 10
2942.578125
 20
-598.0078125
 10
2933.0859375
 20
-598.0078125
 10
2923.59375
 20
-598.0078125
 10
2914.1015625
 20
-598.0078125
 10
2904.609375
 20
-598.0078125
 10
2895.1171875
 20
-598.0078125
 10
2885.625
 20
-598.0078125
 10
2876.1328125
 20
-598.0078125
 10
2866.640625
 20
-598.0078125
 10
2857.1484375
 20
-598.0078125
 10
2847.65625
 20
-598.0078125
 10
2838.1640625
 20
-598.0078125
 10
2828.671875
 20
-598.0078125
 10
2819.1796875
 20
-598.0078125
 10
2809.6875
 20
-598.0078125
 10
2800.1953125
 20
-598.0078125
 10
2790.703125
 20
-598.0078125
 10
2781.2109375
 20
-607.5
 10
2771.71875
 20
-598.0078125
 10
2762.2265625
 20
-598.0078125
 10
2752.734375
 20
-598.0078125
 10
2743.2421875
 20
-598.0078125
 10
2733.75
 20
-598.0078125
 10
2724.2578125
 20
-598.0078125
 10
2714.765625
 20
-598.0078125
 10
2705.2734375
 20
-598.0078125
 10
2695.78125
 20
-598.0078125
 10
2686.2890625
 20
-598.0078125
 10
2676.796875
 20
-598.0078125
 10
2667.3046875
 20
-598.0078125
 10
2657.8125
 20
-598.0078125
 10
2648.3203125
 20
-598.0078125
 10
2638.828125
 20
-598.0078125
 10
2629.3359375
 20
-607.5
 10
2619.84375
 20
-598.0078125
 10
2610.3515625
 20
-598.0078125
 10
2600.859375
 20
-598.0078125
 10
2591.3671875
 20
-598.0078125
 10
2581.875
 20
-598.0078125
 10
2572.3828125
 20
-598.0078125
 10
2562.890625
 20
-598.0078125
 10
2553.3984375
 20
-598.0078125
 10
2543.90625
 20
-598.0078125
 10
2534.4140625
 20
-598.0078125
 10
2524.921875
 20
-598.0078125
 10
2515.4296875
 20
-598.0078125
 10
2505.9375
 20
-598.0078125
 10
2496.4453125
 20
-598.0078125
 10
2486.953125
 20
-598.0078125
 10
2477.4609375
 20
-598.0078125
 10
2467.96875
 20
-598.0078125
 10
2458.4765625
 20
-598.0078125
 10
2448.984375
 20
-598.0078125
 10
2439.4921875
 20
-598.0078125
 10
2430.0
 20
-598.0078125
 10
2420.5078125
 20
-598.0078125
 10
2411.015625
 20
-598.0078125
 10
2401.5234375
 20
-598.0078125
 10
2392.03125
 20
-598.0078125
 10
2382.5390625
 20
-598.0078125
 10
2373.046875
 20
-598.0078125
 10
2363.5546875
 20
-598.0078125
 10
2354.0625
 20
-598.0078125
 10
2344.5703125
 20
-598.0078125
 10
2335.078125
 20
-598.0078125
 10
2325.5859375
 20
-598.0078125
 10
2316.09375
 20
-598.0078125
 10
2306.6015625
 20
-598.0078125
 10
2297.109375
 20
-598.0078125
 10
2287.6171875
 20
-598.0078125
 10
2278.125
 20
-598.0078125
 10
2268.6328125
 20
-598.0078125
 10
2259.140625
 20
-598.0078125
 10
2249.6484375
 20
-598.0078125
 10
2240.15625
 20
-598.0078125
 10
2230.6640625
 20
-598.0078125
 10
2221.171875
 20
-598.0078125
 10
2211.6796875
 20
-598.0078125
 10
2202.1875
 20
-598.0078125
 10
2192.6953125
 20
-607.5
 10
2183.203125
 20
-598.0078125
 10
2173.7109375
 20
-607.5
 10
2164.21875
 20
-598.0078125
 10
2154.7265625
 20
-598.0078125
 10
2145.234375
 20
-598.0078125
 10
2135.7421875
 20
-598.0078125
 10
2126.25
 20
-598.0078125
 10
2116.7578125
 20
-598.0078125
 10
2107.265625
 20
-598.0078125
 10
2097.7734375
 20
-598.0078125
 10
2088.28125
 20
-598.0078125
 10
2078.7890625
 20
-598.0078125
 10
2069.296875
 20
-598.0078125
 10
2059.8046875
 20
-598.0078125
 10
2050.3125
 20
-598.0078125
 10
2040.8203125
 20
-598.0078125
 10
2031.328125
 20
-598.0078125
 10
2021.8359375
 20
-598.0078125
 10
2012.34375
 20
-598.0078125
 10
2002.8515625
 20
-598.0078125
 10
1993.359375
 20
-598.0078125
 10
1983.8671875
 20
-598.0078125
 10
1974.375
 20
-598.0078125
 10
1964.8828125
 20
-598.0078125
 10
1955.390625
 20
-598.0078125
 10
1945.8984375
 20
-598.0078125
 10
1936.40625
 20
-598.0078125
 10
1926.9140625
 20
-598.0078125
 10
1917.421875
 20
-598.0078125
 10
1907.9296875
 20
-598.0078125
 10
1898.4375
 20
-598.0078125
 10
1888.9453125
 20
-607.5
 10
1879.453125
 20
-598.0078125
 10
1869.9609375
 20
-598.0078125
 10
1860.46875
 20
-598.0078125
 10
1850.9765625
 20
-598.0078125
 10
1841.484375
 20
-598.0078125
 10
1831.9921875
 20
-598.0078125
  0
LWPOLYLINE
  5
33
330
17
100
AcDbEntity
  8
conductor
100
AcDbPolyline
 90
4
 70
1
 43
0.5
 10
2819.1796875
 20
-3569.0625
 10
2828.671875
 20
-3559.5703125
 10
2838.1640625
 20
-3569.0625
 10
2828.671875
 20
-3578.5546875
  0
LWPOLYLINE
  5
34
330
17
100
AcDbEntity
  8
conductor
100
AcDbPolyline
 90
4
 70
1
 43
0.5
 10
2857.1484375
 20
-3531.09375
 10
2866.640625
 20
-3521.6015625
 10
2876.1328125
 20
-3531.09375
 10
2866.640625
 20
-3540.5859375
  0
LWPOLYLINE
  5
35
330
17
100
AcDbEntity
  8
conductor
100
AcDbPolyline
 90
4
 70
1
 43
0.5
 10
1888.9453125
 20
-3151.40625
 10
1898.4375
 20
-3141.9140625
 10
1907.9296875
 20
-3151.40625
 10
1898.4375
 20
-3160.8984375
  0
LWPOLYLINE
  5
36
330
17
100
AcDbEntity
  8
conductor
100
AcDbPolyline
 90
6
 70
1
 43
0.5
 10
1907.9296875
 20
-3141.9140625
 10
1917.421875
 20
-3132.421875
 10
1926.9140625
 20
-3141.9140625
 10
1926.9140625
 20
-3151.40625
 10
1917.421875
 20
-3160.8984375
 10
1907.9296875
 20
-3151.40625
  0
LWPOLYLINE
  5
37
330
17
100
AcDbEntity
  8
conductor
100
AcDbPolyline
 90
4
 70
1
 43
0.5
 10
3654.4921875
 20
-2961.5625
 10
3663.984375
 20
-2952.0703125
 10
3673.4765625
 20
-2961.5625
 10
3663.984375
 20
-2971.0546875
  0
LWPOLYLINE
  5
38
330
17
100
AcDbEntity
  8
conductor
100
AcDbPolyline
 90
10
 70
1
 43
0.5
 10
3170.390625
 20
-2040.8203125
 10
3179.8828125
 20
-2031.328125
 10
3189.375
 20
-2040.8203125
 10
3198.8671875
 20
-2050.3125
 10
3189.375
 20
-2059.8046875
 10
3179.8828125
 20
-2059.8046875
 10
3170.390625
 20
-2059.8046875
 10
3160.8984375
 20
-2059.8046875
 10
3151.40625
 20
-2050.3125
 10
3160.8984375
 20
-2040.8203125
  0
LWPOLYLINE
  5
39
330
17
100
AcDbEntity
  8
conductor
100
AcDbPolyline
 90
4
 70
1
 43
0.5
 10
3160.8984375
 20
-2012.34375
 10
3170.390625
 20
-2002.8515625
 10
3179.8828125
 20
-2012.34375
 10
3170.390625
 20
-2021.8359375
  0
LWPOLYLINE
  5
3A
330
17
100
AcDbEntity
  8
conductor
100
AcDbPolyline
 90
4
 70
1
 43
0.5
 10
2933.0859375
 20
-1936.40625
 10
2942.578125
 20
-1926.9140625
 10
2952.0703125
 20
-1936.40625
 10
2942.578125
 20
-1945.8984375
  0
LWPOLYLINE
  5
3B
330
17
100
AcDbEntity
  8
conductor
100
AcDbPolyline
 90
4
 70
1
 43
0.5
 10
2933.0859375
 20
-1898.4375
 10
2942.578125
 20
-1888.9453125
 10
2952.0703125
 20
-1898.4375
 10
2942.578125
 20
-1907.9296875
  0
LWPOLYLINE
  5
3C
330
17
100
AcDbEntity
  8
conductor
100
AcDbPolyline
 90
4
 70
1
 43
0.5
 10
2914.1015625
 20
-1898.4375
 10
2923.59375
 20
-1888.9453125
 10
2933.0859375
 20
-1898.4375
 10
2923.59375
 20
-1907.9296875
  0
LWPOLYLINE
  5
3D
330
17
100
AcDbEntity
  8
conductor
100
AcDbPolyline
 90
4
 70
1
 43
0.5
 10
2895.1171875
 20
-1898.4375
 10
2904.609375
 20
-1888.9453125
 10
2914.1015625
 20
-1898.4375
 10
2904.609375
 20
-1907.9296875
  0
LWPOLYLINE
  5
3E
330
17
100
AcDbEntity
  8
conductor
100
AcDbPolyline
 90
4
 70
1
 43
0.5
 10
2173.7109375
 20
-1594.6875
 10
2183.203125
 20
-1585.1953125
 10
2192.6953125
 20
-1594.6875
 10
2183.203125
 20
-1604.1796875
  0
LWPOLYLINE
  5
3F
330
17
100
AcDbEntity
  8
conductor
100
AcDbPolyline
 90
4
 70
1
 43
0.5
 10
2173.7109375
 20
-1556.71875
 10
2183.203125
 20
-1547.2265625
 10
2192.6953125
 20
-1556.71875
 10
2183.203125
 20
-1566.2109375
  0
LWPOLYLINE
  5
40
330
17
100
AcDbEntity
  8
conductor
100
AcDbPolyline
 90
4
 70
1
 43
0.5
 10
2781.2109375
 20
-1442.8125
 10
2790.703125
 20
-1433.3203125
 10
2800.1953125
 20
-1442.8125
 10
2790.703125
 20
-1452.3046875
  0
LWPOLYLINE
  5
41
330
17
100
AcDbEntity
  8
conductor
100
AcDbPolyline
 90
4
 70
1
 43
0.5
 10
2743.2421875
 20
-1442.8125
 10
2752.734375
 20
-1433.3203125
 10
2762.2265625
 20
-1442.8125
 10
2752.734375
 20
-1452.3046875
  0
LWPOLYLINE
  5
42
330
17
100
AcDbEntity
  8
conductor
100
AcDbPolyline
 90
4
 70
1
 43
0.5
 10
2705.2734375
 20
-1442.8125
 10
2714.765625
 20
-1433.3203125
 10
2724.2578125
 20
-1442.8125
 10
2714.765625
 20
-1452.3046875
  0
LWPOLYLINE
  5
43
330
17
100
AcDbEntity
  8
conductor
100
AcDbPolyline
 90
4
 70
1
 43
0.5
 10
2895.1171875
 20
-1404.84375
 10
2904.609375
 20
-1395.3515625
 10
2914.1015625
 20
-1404.84375
 10
2904.609375
 20
-1414.3359375
  0
LWPOLYLINE
  5
44
330
17
100
AcDbEntity
  8
conductor
100
AcDbPolyline
 90
4
 70
1
 43
0.5
 10
2781.2109375
 20
-1404.84375
 10
2790.703125
 20
-1395.3515625
 10
2800.1953125
 20
-1404.84375
 10
2790.703125
 20
-1414.3359375
  0
LWPOLYLINE
  5
45
330
17
100
AcDbEntity
  8
conductor
100
AcDbPolyline
 90
4
 70
1
 43
0.5
 10
2762.2265625
 20
-1404.84375
 10
2771.71875
 20
-1395.3515625
 10
2781.2109375
 20
-1404.84375
 10
2771.71875
 20
-1414.3359375
  0
LWPOLYLINE
  5
46
330
17
100
AcDbEntity
  8
conductor
100
AcDbPolyline
 90
4
 70
1
 43
0.5
 10
2743.2421875
 20
-1404.84375
 10
2752.734375
 20
-1395.3515625
 10
2762.2265625
 20
-1404.84375
 10
2752.734375
 20
-1414.3359375
  0
LWPOLYLINE
  5
47
330
17
100
AcDbEntity
  8
conductor
100
AcDbPolyline
 90
4
 70
1
 43
0.5
 10
2705.2734375
 20
-1404.84375
 10
2714.765625
 20
-1395.3515625
 10
2724.2578125
 20
-1404.84375
 10
2714.765625
 20
-1414.3359375
  0
LWPOLYLINE
  5
48
330
17
100
AcDbEntity
  8
substrate
100
AcDbPolyline
 90
2044
 70
1
 43
0.5
 10
0.0
 20
-0.0
 10
0.0
 20
-9.4921875
 10
0.0
 20
-18.984375
 10
0.0
 20
-28.4765625
 10
0.0
 20
-37.96875
 10
0.0
 20
-47.4609375
 10
0.0
 20
-56.953125
 10
0.0
 20
-66.4453125
 10
0.0
 20
-75.9375
 10
0.0
 20
-85.4296875
 10
0.0
 20
-94.921875
 10
0.0
 20
-104.4140625
 10
0.0
 20
-113.90625
 10
0.0
 20
-123.3984375
 10
0.0
 20
-132.890625
 10
0.0
 20
-142.3828125
 10
0.0
 20
-151.875
 10
0.0
 20
-161.3671875
 10
0.0
 20
-170.859375
 10
0.0
 20
-180.3515625
 10
0.0
 20
-189.84375
 10
0.0
 20
-199.3359375
 10
0.0
 20
-208.828125
 10
0.0
 20
-218.3203125
 10
0.0
 20
-227.8125
 10
0.0
 20
-237.3046875
 10
0.0
 20
-246.796875
 10
0.0
 20
-256.2890625
 10
0.0
 20
-265.78125
 10
0.0
 20
-275.2734375
 10
0.0
 20
-284.765625
 10
0.0
 20
-294.2578125
 10
0.0
 20
-303.75
 10
0.0
 20
-313.2421875
 10
0.0
 20
-322.734375
 10
0.0
 20
-332.2265625
 10
0.0
 20
-341.71875
 10
0.0
 20
-351.2109375
 10
0.0
 20
-360.703125
 10
0.0
 20
-370.1953125
 10
0.0
 20
-379.6875
 10
0.0
 20
-389.1796875
 10
0.0
 20
-398.671875
 10
0.0
 20
-408.1640625
 10
0.0
 20
-417.65625
 10
0.0
 20
-427.1484375
 10
0.0
 20
-436.640625
 10
0.0
 20
-446.1328125
 10
0.0
 20
-455.625
 10
0.0
 20
-465.1171875
 10
0.0
 20
-474.609375
 10
0.0
 20
-484.1015625
 10
0.0
 20
-493.59375
 10
0.0
 20
-503.0859375
 10
0.0
 20
-512.578125
 10
0.0
 20
-522.0703125
 10
0.0
 20
-531.5625
 10
0.0
 20
-541.0546875
 10
0.0
 20
-550.546875
 10
0.0
 20
-560.0390625
 10
0.0
 20
-569.53125
 10
0.0
 20
-579.0234375
 10
0.0
 20
-588.515625
 10
0.0
 20
-598.0078125
 10
0.0
 20
-607.5
 10
0.0
 20
-616.9921875
 10
0.0
 20
-626.484375
 10
0.0
 20
-635.9765625
 10
0.0
 20
-645.46875
 10
0.0
 20
-654.9609375
 10
0.0
 20
-664.453125
 10
0.0
 20
-673.9453125
 10
0.0
 20
-683.4375
 10
0.0
 20
-692.9296875
 10
0.0
 20
-702.421875
 10
0.0
 20
-711.9140625
 10
0.0
 20
-721.40625
 10
0.0
 20
-730.8984375
 10
0.0
 20
-740.390625
 10
0.0
 20
-749.8828125
 10
0.0
 20
-759.375
 10
0.0
 20
-768.8671875
 10
0.0
 20
-778.359375
 10
0.0
 20
-787.8515625
 10
0.0
 20
-797.34375
 10
0.0
 20
-806.8359375
 10
0.0
 20
-816.328125
 10
0.0
 20
-825.8203125
 10
0.0
 20
-835.3125
 10
0.0
 20
-844.8046875
 10
0.0
 20
-854.296875
 10
0.0
 20
-863.7890625
 10
0.0
 20
-873.28125
 10
0.0
 20
-882.7734375
 10
0.0
 20
-892.265625
 10
0.0
 20
-901.7578125
 10
0.0
 20
-911.25
 10
0.0
 20
-920.7421875
 10
0.0
 20
-930.234375
 10
0.0
 20
-939.7265625
 10
0.0
 20
-949.21875
 10
0.0
 20
-958.7109375
 10
0.0
 20
-968.203125
 10
0.0
 20
-977.6953125
 10
0.0
 20
-987.1875
 10
0.0
 20
-996.6796875
 10
0.0
 20
-1006.171875
 10
0.0
 20
-1015.6640625
 10
0.0
 20
-1025.15625
 10
0.0
 20
-1034.6484375
 10
0.0
 20
-1044.140625
 10
0.0
 20
-1053.6328125
 10
0.0
 20
-1063.125
 10
0.0
 20
-1072.6171875
 10
0.0
 20
-1082.109375
 10
0.0
 20
-1091.6015625
 10
0.0
 20
-1101.09375
 10
0.0
 20
-1110.5859375
 10
0.0
 20
-1120.078125
 10
0.0
 20
-1129.5703125
 10
0.0
 20
-1139.0625
 10
0.0
 20
-1148.5546875
 10
0.0
 20
-1158.046875
 10
0.0
 20
-1167.5390625
 10
0.0
 20
-1177.03125
 10
0.0
 20
-1186.5234375
 10
0.0
 20
-1196.015625
 10
0.0
 20
-1205.5078125
 10
0.0
 20
-1215.0
 10
0.0
 20
-1224.4921875
 10
0.0
 20
-1233.984375
 10
0.0
 20
-1243.4765625
 10
0.0
 20
-1252.96875
 10
0.0
 20
-1262.4609375
 10
0.0
 20
-1271.953125
 10
0.0
 20
-1281.4453125
 10
0.0
 20
-1290.9375
 10
0.0
 20
-1300.4296875
 10
0.0
 20
-1309.921875
 10
0.0
 20
-1319.4140625
 10
0.0
 20
-1328.90625
 10
0.0
 20
-1338.3984375
 10
0.0
 20
-1347.890625
 10
0.0
 20
-1357.3828125
 10
0.0
 20
-1366.875
 10
0.0
 20
-1376.3671875
 10
0.0
 20
-1385.859375
 10
0.0
 20
-1395.3515625
 10
0.0
 20
-1404.84375
 10
0.0
 20
-1414.3359375
 10
0.0
 20
-1423.828125
 10
0.0
 20
-1433.3203125
 10
0.0
 20
-1442.8125
 10
0.0
 20
-1452.3046875
 10
0.0
 20
-1461.796875
 10
0.0
 20
-1471.2890625
 10
0.0
 20
-1480.78125
 10
0.0
 20
-1490.2734375
 10
0.0
 20
-1499.765625
 10
0.0
 20
-1509.2578125
 10
0.0
 20
-1518.75
 10
0.0
 20
-1528.2421875
 10
0.0
 20
-1537.734375
 10
0.0
 20
-1547.2265625
 10
0.0
 20
-1556.71875
 10
0.0
 20
-1566.2109375
 10
0.0
 20
-1575.703125
 10
0.0
 20
-1585.1953125
 10
0.0
 20
-1594.6875
 10
0.0
 20
-1604.1796875
 10
0.0
 20
-1613.671875
 10
0.0
 20
-1623.1640625
 10
0.0
 20
-1632.65625
 10
0.0
 20
-1642.1484375
 10
0.0
 20
-1651.640625
 10
0.0
 20
-1661.1328125
 10
0.0
 20
-1670.625
 10
0.0
 20
-1680.1171875
 10
0.0
 20
-1689.609375
 10
0.0
 20
-1699.1015625
 10
0.0
 20
-1708.59375
 10
0.0
 20
-1718.0859375
 10
0.0
 20
-1727.578125
 10
0.0
 20
-1737.0703125
 10
0.0
 20
-1746.5625
 10
0.0
 20
-1756.0546875
 10
0.0
 20
-1765.546875
 10
0.0
 20
-1775.0390625
 10
0.0
 20
-1784.53125
 10
0.0
 20
-1794.0234375
 10
0.0
 20
-1803.515625
 10
0.0
 20
-1813.0078125
 10
0.0
 20
-1822.5
 10
0.0
 20
-1831.9921875
 10
0.0
 20
-1841.484375
 10
0.0
 20
-1850.9765625
 10
0.0
 20
-1860.46875
 10
0.0
 20
-1869.9609375
 10
0.0
 20
-1879.453125
 10
0.0
 20
-1888.9453125
 10
0.0
 20
-1898.4375
 10
0.0
 20
-1907.9296875
 10
0.0
 20
-1917.421875
 10
0.0
 20
-1926.9140625
 10
0.0
 20
-1936.40625
 10
0.0
 20
-1945.8984375
 10
0.0
 20
-1955.390625
 10
0.0
 20
-1964.8828125
 10
0.0
 20
-1974.375
 10
0.0
 20
-1983.8671875
 10
0.0
 20
-1993.359375
 10
0.0
 20
-2002.8515625
 10
0.0
 20
-2012.34375
 10
0.0
 20
-2021.8359375
 10
0.0
 20
-2031.328125
 10
0.0
 20
-2040.8203125
 10
0.0
 20
-2050.3125
 10
0.0
 20
-2059.8046875
 10
0.0
 20
-2069.296875
 10
0.0
 20
-2078.7890625
 10
0.0
 20
-2088.28125
 10
0.0
 20
-2097.7734375
 10
0.0
 20
-2107.265625
 10
0.0
 20
-2116.7578125
 10
0.0
 20
-2126.25
 10
0.0
 20
-2135.7421875
 10
0.0
 20
-2145.234375
 10
0.0
 20
-2154.7265625
 10
0.0
 20
-2164.21875
 10
0.0
 20
-2173.7109375
 10
0.0
 20
-2183.203125
 10
0.0
 20
-2192.6953125
 10
0.0
 20
-2202.1875
 10
0.0
 20
-2211.6796875
 10
0.0
 20
-2221.171875
 10
0.0
 20
-2230.6640625
 10
0.0
 20
-2240.15625
 10
0.0
 20
-2249.6484375
 10
0.0
 20
-2259.140625
 10
0.0
 20
-2268.6328125
 10
0.0
 20
-2278.125
 10
0.0
 20
-2287.6171875
 10
0.0
 20
-2297.109375
 10
0.0
 20
-2306.6015625
 10
0.0
 20
-2316.09375
 10
0.0
 20
-2325.5859375
 10
0.0
 20
-2335.078125
 10
0.0
 20
-2344.5703125
 10
0.0
 20
-2354.0625
 10
0.0
 20
-2363.5546875
 10
0.0
 20
-2373.046875
 10
0.0
 20
-2382.5390625
 10
0.0
 20
-2392.03125
 10
0.0
 20
-2401.5234375
 10
0.0
 20
-2411.015625
 10
0.0
 20
-2420.5078125
 10
0.0
 20
-2430.0
 10
0.0
 20
-2439.4921875
 10
0.0
 20
-2448.984375
 10
0.0
 20
-2458.4765625
 10
0.0
 20
-2467.96875
 10
0.0
 20
-2477.4609375
 10
0.0
 20
-2486.953125
 10
0.0
 20
-2496.4453125
 10
0.0
 20
-2505.9375
 10
0.0
 20
-2515.4296875
 10
0.0
 20
-2524.921875
 10
0.0
 20
-2534.4140625
 10
0.0
 20
-2543.90625
 10
0.0
 20
-2553.3984375
 10
0.0
 20
-2562.890625
 10
0.0
 20
-2572.3828125
 10
0.0
 20
-2581.875
 10
0.0
 20
-2591.3671875
 10
0.0
 20
-2600.859375
 10
0.0
 20
-2610.3515625
 10
0.0
 20
-2619.84375
 10
0.0
 20
-2629.3359375
 10
0.0
 20
-2638.828125
 10
0.0
 20
-2648.3203125
 10
0.0
 20
-2657.8125
 10
0.0
 20
-2667.3046875
 10
0.0
 20
-2676.796875
 10
0.0
 20
-2686.2890625
 10
0.0
 20
-2695.78125
 10
0.0
 20
-2705.2734375
 10
0.0
 20
-2714.765625
 10
0.0
 20
-2724.2578125
 10
0.0
 20
-2733.75
 10
0.0
 20
-2743.2421875
 10
0.0
 20
-2752.734375
 10
0.0
 20
-2762.2265625
 10
0.0
 20
-2771.71875
 10
0.0
 20
-2781.2109375
 10
0.0
 20
-2790.703125
 10
0.0
 20
-2800.1953125
 10
0.0
 20
-2809.6875
 10
0.0
 20
-2819.1796875
 10
0.0
 20
-2828.671875
 10
0.0
 20
-2838.1640625
 10
0.0
 20
-2847.65625
 10
0.0
 20
-2857.1484375
 10
0.0
 20
-2866.640625
 10
0.0
 20
-2876.1328125
 10
0.0
 20
-2885.625
 10
0.0
 20
-2895.1171875
 10
0.0
 20
-2904.609375
 10
0.0
 20
-2914.1015625
 10
0.0
 20
-2923.59375
 10
0.0
 20
-2933.0859375
 10
0.0
 20
-2942.578125
 10
0.0
 20
-2952.0703125
 10
0.0
 20
-2961.5625
 10
0.0
 20
-2971.0546875
 10
0.0
 20
-2980.546875
 10
0.0
 20
-2990.0390625
 10
0.0
 20
-2999.53125
 10
0.0
 20
-3009.0234375
 10
0.0
 20
-3018.515625
 10
0.0
 20
-3028.0078125
 10
0.0
 20
-3037.5
 10
0.0
 20
-3046.9921875
 10
0.0
 20
-3056.484375
 10
0.0
 20
-3065.9765625
 10
0.0
 20
-3075.46875
 10
0.0
 20
-3084.9609375
 10
0.0
 20
-3094.453125
 10
0.0
 20
-3103.9453125
 10
0.0
 20
-3113.4375
 10
0.0
 20
-3122.9296875
 10
0.0
 20
-3132.421875
 10
0.0
 20
-3141.9140625
 10
0.0
 20
-3151.40625
 10
0.0
 20
-3160.8984375
 10
0.0
 20
-3170.390625
 10
0.0
 20
-3179.8828125
 10
0.0
 20
-3189.375
 10
0.0
 20
-3198.8671875
 10
0.0
 20
-3208.359375
 10
0.0
 20
-3217.8515625
 10
0.0
 20
-3227.34375
 10
0.0
 20
-3236.8359375
 10
0.0
 20
-3246.328125
 10
0.0
 20
-3255.8203125
 10
0.0
 20
-3265.3125
 10
0.0
 20
-3274.8046875
 10
0.0
 20
-3284.296875
 10
0.0
 20
-3293.7890625
 10
0.0
 20
-3303.28125
 10
0.0
 20
-3312.7734375
 10
0.0
 20
-3322.265625
 10
0.0
 20
-3331.7578125
 10
0.0
 20
-3341.25
 10
0.0
 20
-3350.7421875
 10
0.0
 20
-3360.234375
 10
0.0
 20
-3369.7265625
 10
0.0
 20
-3379.21875
 10
0.0
 20
-3388.7109375
 10
0.0
 20
-3398.203125
 10
0.0
 20
-3407.6953125
 10
0.0
 20
-3417.1875
 10
0.0
 20
-3426.6796875
 10
0.0
 20
-3436.171875
 10
0.0
 20
-3445.6640625
 10
0.0
 20
-3455.15625
 10
0.0
 20
-3464.6484375
 10
0.0
 20
-3474.140625
 10
0.0
 20
-3483.6328125
 10
0.0
 20
-3493.125
 10
0.0
 20
-3502.6171875
 10
0.0
 20
-3512.109375
 10
0.0
 20
-3521.6015625
 10
0.0
 20
-3531.09375
 10
0.0
 20
-3540.5859375
 10
0.0
 20
-3550.078125
 10
0.0
 20
-3559.5703125
 10
0.0
 20
-3569.0625
 10
0.0
 20
-3578.5546875
 10
0.0
 20
-3588.046875
 10
0.0
 20
-3597.5390625
 10
0.0
 20
-3607.03125
 10
0.0
 20
-3616.5234375
 10
0.0
 20
-3626.015625
 10
0.0
 20
-3635.5078125
 10
0.0
 20
-3645.0
 10
0.0
 20
-3654.4921875
 10
0.0
 20
-3663.984375
 10
0.0
 20
-3673.4765625
 10
0.0
 20
-3682.96875
 10
0.0
 20
-3692.4609375
 10
0.0
 20
-3701.953125
 10
0.0
 20
-3711.4453125
 10
0.0
 20
-3720.9375
 10
0.0
 20
-3730.4296875
 10
0.0
 20
-3739.921875
 10
0.0
 20
-3749.4140625
 10
0.0
 20
-3758.90625
 10
0.0
 20
-3768.3984375
 10
0.0
 20
-3777.890625
 10
0.0
 20
-3787.3828125
 10
0.0
 20
-3796.875
 10
0.0
 20
-3806.3671875
 10
0.0
 20
-3815.859375
 10
0.0
 20
-3825.3515625
 10
0.0
 20
-3834.84375
 10
0.0
 20
-3844.3359375
 10
0.0
 20
-3853.828125
 10
0.0
 20
-3863.3203125
 10
0.0
 20
-3872.8125
 10
0.0
 20
-3882.3046875
 10
0.0
 20
-3891.796875
 10
0.0
 20
-3901.2890625
 10
0.0
 20
-3910.78125
 10
0.0
 20
-3920.2734375
 10
0.0
 20
-3929.765625
 10
0.0
 20
-3939.2578125
 10
0.0
 20
-3948.75
 10
0.0
 20
-3958.2421875
 10
0.0
 20
-3967.734375
 10
0.0
 20
-3977.2265625
 10
0.0
 20
-3986.71875
 10
0.0
 20
-3996.2109375
 10
0.0
 20
-4005.703125
 10
0.0
 20
-4015.1953125
 10
0.0
 20
-4024.6875
 10
0.0
 20
-4034.1796875
 10
0.0
 20
-4043.671875
 10
0.0
 20
-4053.1640625
 10
0.0
 20
-4062.65625
 10
0.0
 20
-4072.1484375
 10
0.0
 20
-4081.640625
 10
0.0
 20
-4091.1328125
 10
0.0
 20
-4100.625
 10
0.0
 20
-4110.1171875
 10
0.0
 20
-4119.609375
 10
0.0
 20
-4129.1015625
 10
0.0
 20
-4138.59375
 10
0.0
 20
-4148.0859375
 10
0.0
 20
-4157.578125
 10
0.0
 20
-4167.0703125
 10
0.0
 20
-4176.5625
 10
0.0
 20
-4186.0546875
 10
0.0
 20
-4195.546875
 10
0.0
 20
-4205.0390625
 10
0.0
 20
-4214.53125
 10
0.0
 20
-4224.0234375
 10
0.0
 20
-4233.515625
 10
0.0
 20
-4243.0078125
 10
0.0
 20
-4252.5
 10
0.0
 20
-4261.9921875
 10
0.0
 20
-4271.484375
 10
0.0
 20
-4280.9765625
 10
0.0
 20
-4290.46875
 10
0.0
 20
-4299.9609375
 10
0.0
 20
-4309.453125
 10
0.0
 20
-4318.9453125
 10
0.0
 20
-4328.4375
 10
0.0
 20
-4337.9296875
 10
0.0
 20
-4347.421875
 10
0.0
 20
-4356.9140625
 10
0.0
 20
-4366.40625
 10
0.0
 20
-4375.8984375
 10
0.0
 20
-4385.390625
 10
0.0
 20
-4394.8828125
 10
0.0
 20
-4404.375
 10
0.0
 20
-4413.8671875
 10
0.0
 20
-4423.359375
 10
0.0
 20
-4432.8515625
 10
0.0
 20
-4442.34375
 10
0.0
 20
-4451.8359375
 10
0.0
 20
-4461.328125
 10
0.0
 20
-4470.8203125
 10
0.0
 20
-4480.3125
 10
0.0
 20
-4489.8046875
 10
0.0
 20
-4499.296875
 10
0.0
 20
-4508.7890625
 10
0.0
 20
-4518.28125
 10
0.0
 20
-4527.7734375
 10
0.0
 20
-4537.265625
 10
0.0
 20
-4546.7578125
 10
0.0
 20
-4556.25
 10
0.0
 20
-4565.7421875
 10
0.0
 20
-4575.234375
 10
0.0
 20
-4584.7265625
 10
0.0
 20
-4594.21875
 10
0.0
 20
-4603.7109375
 10
0.0
 20
-4613.203125
 10
0.0
 20
-4622.6953125
 10
0.0
 20
-4632.1875
 10
0.0
 20
-4641.6796875
 10
0.0
 20
-4651.171875
 10
0.0
 20
-4660.6640625
 10
0.0
 20
-4670.15625
 10
0.0
 20
-4679.6484375
 10
0.0
 20
-4689.140625
 10
0.0
 20
-4698.6328125
 10
0.0
 20
-4708.125
 10
0.0
 20
-4717.6171875
 10
0.0
 20
-4727.109375
 10
0.0
 20
-4736.6015625
 10
0.0
 20
-4746.09375
 10
0.0
 20
-4755.5859375
 10
0.0
 20
-4765.078125
 10
0.0
 20
-4774.5703125
 10
0.0
 20
-4784.0625
 10
0.0
 20
-4793.5546875
 10
0.0
 20
-4803.046875
 10
0.0
 20
-4812.5390625
 10
0.0
 20
-4822.03125
 10
0.0
 20
-4831.5234375
 10
0.0
 20
-4841.015625
 10
0.0
 20
-4850.5078125
 10
9.4921875
 20
-4850.5078125
 10
18.984375
 20
-4850.5078125
 10
28.4765625
 20
-4850.5078125
 10
37.96875
 20
-4850.5078125
 10
47.4609375
 20
-4850.5078125
 10
56.953125
 20
-4850.5078125
 10
66.4453125
 20
-4850.5078125
 10
75.9375
 20
-4850.5078125
 10
85.4296875
 20
-4850.5078125
 10
94.921875
 20
-4850.5078125
 10
104.4140625
 20
-4850.5078125
 10
113.90625
 20
-4850.5078125
 10
123.3984375
 20
-4850.5078125
 10
132.890625
 20
-4850.5078125
 10
142.3828125
 20
-4850.5078125
 10
151.875
 20
-4850.5078125
 10
161.3671875
 20
-4850.5078125
 10
170.859375
 20
-4850.5078125
 10
180.3515625
 20
-4850.5078125
 10
189.84375
 20
-4850.5078125
 10
199.3359375
 20
-4850.5078125
 10
208.828125
 20
-4850.5078125
 10
218.3203125
 20
-4850.5078125
 10
227.8125
 20
-4850.5078125
 10
237.3046875
 20
-4850.5078125
 10
246.796875
 20
-4850.5078125
 10
256.2890625
 20
-4850.5078125
 10
265.78125
 20
-4850.5078125
 10
275.2734375
 20
-4850.5078125
 10
284.765625
 20
-4850.5078125
 10
294.2578125
 20
-4850.5078125
 10
303.75
 20
-4850.5078125
 10
313.2421875
 20
-4850.5078125
 10
322.734375
 20
-4850.5078125
 10
332.2265625
 20
-4850.5078125
 10
341.71875
 20
-4850.5078125
 10
351.2109375
 20
-4850.5078125
 10
360.703125
 20
-4850.5078125
 10
370.1953125
 20
-4850.5078125
 10
379.6875
 20
-4850.5078125
 10
389.1796875
 20
-4850.5078125
 10
398.671875
 20
-4850.5078125
 10
408.1640625
 20
-4850.5078125
 10
417.65625
 20
-4850.5078125
 10
427.1484375
 20
-4850.5078125
 10
436.640625
 20
-4850.5078125
 10
446.1328125
 20
-4850.5078125
 10
455.625
 20
-4850.5078125
 10
465.1171875
 20
-4850.5078125
 10
474.609375
 20
-4850.5078125
 10
484.1015625
 20
-4850.5078125
 10
493.59375
 20
-4850.5078125
 10
503.0859375
 20
-4850.5078125
 10
512.578125
 20
-4850.5078125
 10
522.0703125
 20
-4850.5078125
 10
531.5625
 20
-4850.5078125
 10
541.0546875
 20
-4850.5078125
 10
550.546875
 20
-4850.5078125
 10
560.0390625
 20
-4850.5078125
 10
569.53125
 20
-4850.5078125
 10
579.0234375
 20
-4850.5078125
 10
588.515625
 20
-4850.5078125
 10
598.0078125
 20
-4850.5078125
 10
607.5
 20
-4850.5078125
 10
616.9921875
 20
-4850.5078125
 10
626.484375
 20
-4850.5078125
 10
635.9765625
 20
-4850.5078125
 10
645.46875
 20
-4850.5078125
 10
654.9609375
 20
-4850.5078125
 10
664.453125
 20
-4850.5078125
 10
673.9453125
 20
-4850.5078125
 10
683.4375
 20
-4850.5078125
 10
692.9296875
 20
-4850.5078125
 10
702.421875
 20
-4850.5078125
 10
711.9140625
 20
-4850.5078125
 10
721.40625
 20
-4850.5078125
 10
730.8984375
 20
-4850.5078125
 10
740.390625
 20
-4850.5078125
 10
749.8828125
 20
-4850.5078125
 10
759.375
 20
-4850.5078125
 10
768.8671875
 20
-4850.5078125
 10
778.359375
 20
-4850.5078125
 10
787.8515625
 20
-4850.5078125
 10
797.34375
 20
-4850.5078125
 10
806.8359375
 20
-4850.5078125
 10
816.328125
 20
-4850.5078125
 10
825.8203125
 20
-4850.5078125
 10
835.3125
 20
-4850.5078125
 10
844.8046875
 20
-4850.5078125
 10
854.296875
 20
-4850.5078125
 10
863.7890625
 20
-4850.5078125
 10
873.28125
 20
-4850.5078125
 10
882.7734375
 20
-4850.5078125
 10
892.265625
 20
-4850.5078125
 10
901.7578125
 20
-4850.5078125
 10
911.25
 20
-4850.5078125
 10
920.7421875
 20
-4850.5078125
 10
930.234375
 20
-4850.5078125
 10
939.7265625
 20
-4850.5078125
 10
949.21875
 20
-4850.5078125
 10
958.7109375
 20
-4850.5078125
 10
968.203125
 20
-4850.5078125
 10
977.6953125
 20
-4850.5078125
 10
987.1875
 20
-4850.5078125
 10
996.6796875
 20
-4850.5078125
 10
1006.171875
 20
-4850.5078125
 10
1015.6640625
 20
-4850.5078125
 10
1025.15625
 20
-4850.5078125
 10
1034.6484375
 20
-4850.5078125
 10
1044.140625
 20
-4850.5078125
 10
1053.6328125
 20
-4850.5078125
 10
1063.125
 20
-4850.5078125
 10
1072.6171875
 20
-4850.5078125
 10
1082.109375
 20
-4850.5078125
 10
1091.6015625
 20
-4850.5078125
 10
1101.09375
 20
-4850.5078125
 10
1110.5859375
 20
-4850.5078125
 10
1120.078125
 20
-4850.5078125
 10
1129.5703125
 20
-4850.5078125
 10
1139.0625
 20
-4850.5078125
 10
1148.5546875
 20
-4850.5078125
 10
1158.046875
 20
-4850.5078125
 10
1167.5390625
 20
-4850.5078125
 10
1177.03125
 20
-4850.5078125
 10
1186.5234375
 20
-4850.5078125
 10
1196.015625
 20
-4850.5078125
 10
1205.5078125
 20
-4850.5078125
 10
1215.0
 20
-4850.5078125
 10
1224.4921875
 20
-4850.5078125
 10
1233.984375
 20
-4850.5078125
 10
1243.4765625
 20
-4850.5078125
 10
1252.96875
 20
-4850.5078125
 10
1262.4609375
 20
-4850.5078125
 10
1271.953125
 20
-4850.5078125
 10
1281.4453125
 20
-4850.5078125
 10
1290.9375
 20
-4850.5078125
 10
1300.4296875
 20
-4850.5078125
 10
1309.921875
 20
-4850.5078125
 10
1319.4140625
 20
-4850.5078125
 10
1328.90625
 20
-4850.5078125
 10
1338.3984375
 20
-4850.5078125
 10
1347.890625
 20
-4850.5078125
 10
1357.3828125
 20
-4850.5078125
 10
1366.875
 20
-4850.5078125
 10
1376.3671875
 20
-4850.5078125
 10
1385.859375
 20
-4850.5078125
 10
1395.3515625
 20
-4850.5078125
 10
1404.84375
 20
-4850.5078125
 10
1414.3359375
 20
-4850.5078125
 10
1423.828125
 20
-4850.5078125
 10
1433.3203125
 20
-4850.5078125
 10
1442.8125
 20
-4850.5078125
 10
1452.3046875
 20
-4850.5078125
 10
1461.796875
 20
-4850.5078125
 10
1471.2890625
 20
-4850.5078125
 10
1480.78125
 20
-4850.5078125
 10
1490.2734375
 20
-4850.5078125
 10
1499.765625
 20
-4850.5078125
 10
1509.2578125
 20
-4850.5078125
 10
1518.75
 20
-4850.5078125
 10
1528.2421875
 20
-4850.5078125
 10
1537.734375
 20
-4850.5078125
 10
1547.2265625
 20
-4850.5078125
 10
1556.71875
 20
-4850.5078125
 10
1566.2109375
 20
-4850.5078125
 10
1575.703125
 20
-4850.5078125
 10
1585.1953125
 20
-4850.5078125
 10
1594.6875
 20
-4850.5078125
 10
1604.1796875
 20
-4850.5078125
 10
1613.671875
 20
-4850.5078125
 10
1623.1640625
 20
-4850.5078125
 10
1632.65625
 20
-4850.5078125
 10
1642.1484375
 20
-4850.5078125
 10
1651.640625
 20
-4850.5078125
 10
1661.1328125
 20
-4850.5078125
 10
1670.625
 20
-4850.5078125
 10
1680.1171875
 20
-4850.5078125
 10
1689.609375
 20
-4850.5078125
 10
1699.1015625
 20
-4850.5078125
 10
1708.59375
 20
-4850.5078125
 10
1718.0859375
 20
-4850.5078125
 10
1727.578125
 20
-4850.5078125
 10
1737.0703125
 20
-4850.5078125
 10
1746.5625
 20
-4850.5078125
 10
1756.0546875
 20
-4850.5078125
 10
1765.546875
 20
-4850.5078125
 10
1775.0390625
 20
-4850.5078125
 10
1784.53125
 20
-4850.5078125
 10
1794.0234375
 20
-4850.5078125
 10
1803.515625
 20
-4850.5078125
 10
1813.0078125
 20
-4850.5078125
 10
1822.5
 20
-4850.5078125
 10
1831.9921875
 20
-4850.5078125
 10
1841.484375
 20
-4850.5078125
 10
1850.9765625
 20
-4850.5078125
 10
1860.46875
 20
-4850.5078125
 10
1869.9609375
 20
-4850.5078125
 10
1879.453125
 20
-4850.5078125
 10
1888.9453125
 20
-4850.5078125
 10
1898.4375
 20
-4850.5078125
 10
1907.9296875
 20
-4850.5078125
 10
1917.421875
 20
-4850.5078125
 10
1926.9140625
 20
-4850.5078125
 10
1936.40625
 20
-4850.5078125
 10
1945.8984375
 20
-4850.5078125
 10
1955.390625
 20
-4850.5078125
 10
1964.8828125
 20
-4850.5078125
 10
1974.375
 20
-4850.5078125
 10
1983.8671875
 20
-4850.5078125
 10
1993.359375
 20
-4850.5078125
 10
2002.8515625
 20
-4850.5078125
 10
2012.34375
 20
-4850.5078125
 10
2021.8359375
 20
-4850.5078125
 10
2031.328125
 20
-4850.5078125
 10
2040.8203125
 20
-4850.5078125
 10
2050.3125
 20
-4850.5078125
 10
2059.8046875
 20
-4850.5078125
 10
2069.296875
 20
-4850.5078125
 10
2078.7890625
 20
-4850.5078125
 10
2088.28125
 20
-4850.5078125
 10
2097.7734375
 20
-4850.5078125
 10
2107.265625
 20
-4850.5078125
 10
2116.7578125
 20
-4850.5078125
 10
2126.25
 20
-4850.5078125
 10
2135.7421875
 20
-4850.5078125
 10
2145.234375
 20
-4850.5078125
 10
2154.7265625
 20
-4850.5078125
 10
2164.21875
 20
-4850.5078125
 10
2173.7109375
 20
-4850.5078125
 10
2183.203125
 20
-4850.5078125
 10
2192.6953125
 20
-4850.5078125
 10
2202.1875
 20
-4850.5078125
 10
2211.6796875
 20
-4850.5078125
 10
2221.171875
 20
-4850.5078125
 10
2230.6640625
 20
-4850.5078125
 10
2240.15625
 20
-4850.5078125
 10
2249.6484375
 20
-4850.5078125
 10
2259.140625
 20
-4850.5078125
 10
2268.6328125
 20
-4850.5078125
 10
2278.125
 20
-4850.5078125
 10
2287.6171875
 20
-4850.5078125
 10
2297.109375
 20
-4850.5078125
 10
2306.6015625
 20
-4850.5078125
 10
2316.09375
 20
-4850.5078125
 10
2325.5859375
 20
-4850.5078125
 10
2335.078125
 20
-4850.5078125
 10
2344.5703125
 20
-4850.5078125
 10
2354.0625
 20
-4850.5078125
 10
2363.5546875
 20
-4850.5078125
 10
2373.046875
 20
-4850.5078125
 10
2382.5390625
 20
-4850.5078125
 10
2392.03125
 20
-4850.5078125
 10
2401.5234375
 20
-4850.5078125
 10
2411.015625
 20
-4850.5078125
 10
2420.5078125
 20
-4850.5078125
 10
2430.0
 20
-4850.5078125
 10
2439.4921875
 20
-4850.5078125
 10
2448.984375
 20
-4850.5078125
 10
2458.4765625
 20
-4850.5078125
 10
2467.96875
 20
-4850.5078125
 10
2477.4609375
 20
-4850.5078125
 10
2486.953125
 20
-4850.5078125
 10
2496.4453125
 20
-4850.5078125
 10
2505.9375
 20
-4850.5078125
 10
2515.4296875
 20
-4850.5078125
 10
2524.921875
 20
-4850.5078125
 10
2534.4140625
 20
-4850.5078125
 10
2543.90625
 20
-4850.5078125
 10
2553.3984375
 20
-4850.5078125
 10
2562.890625
 20
-4850.5078125
 10
2572.3828125
 20
-4850.5078125
 10
2581.875
 20
-4850.5078125
 10
2591.3671875
 20
-4850.5078125
 10
2600.859375
 20
-4850.5078125
 10
2610.3515625
 20
-4850.5078125
 10
2619.84375
 20
-4850.5078125
 10
2629.3359375
 20
-4850.5078125
 10
2638.828125
 20
-4850.5078125
 10
2648.3203125
 20
-4850.5078125
 10
2657.8125
 20
-4850.5078125
 10
2667.3046875
 20
-4850.5078125
 10
2676.796875
 20
-4850.5078125
 10
2686.2890625
 20
-4850.5078125
 10
2695.78125
 20
-4850.5078125
 10
2705.2734375
 20
-4850.5078125
 10
2714.765625
 20
-4850.5078125
 10
2724.2578125
 20
-4850.5078125
 10
2733.75
 20
-4850.5078125
 10
2743.2421875
 20
-4850.5078125
 10
2752.734375
 20
-4850.5078125
 10
2762.2265625
 20
-4850.5078125
 10
2771.71875
 20
-4850.5078125
 10
2781.2109375
 20
-4850.5078125
 10
2790.703125
 20
-4850.5078125
 10
2800.1953125
 20
-4850.5078125
 10
2809.6875
 20
-4850.5078125
 10
2819.1796875
 20
-4850.5078125
 10
2828.671875
 20
-4850.5078125
 10
2838.1640625
 20
-4850.5078125
 10
2847.65625
 20
-4850.5078125
 10
2857.1484375
 20
-4850.5078125
 10
2866.640625
 20
-4850.5078125
 10
2876.1328125
 20
-4850.5078125
 10
2885.625
 20
-4850.5078125
 10
2895.1171875
 20
-4850.5078125
 10
2904.609375
 20
-4850.5078125
 10
2914.1015625
 20
-4850.5078125
 10
2923.59375
 20
-4850.5078125
 10
2933.0859375
 20
-4850.5078125
 10
2942.578125
 20
-4850.5078125
 10
2952.0703125
 20
-4850.5078125
 10
2961.5625
 20
-4850.5078125
 10
2971.0546875
 20
-4850.5078125
 10
2980.546875
 20
-4850.5078125
 10
2990.0390625
 20
-4850.5078125
 10
2999.53125
 20
-4850.5078125
 10
3009.0234375
 20
-4850.5078125
 10
3018.515625
 20
-4850.5078125
 10
3028.0078125
 20
-4850.5078125
 10
3037.5
 20
-4850.5078125
 10
3046.9921875
 20
-4850.5078125
 10
3056.484375
 20
-4850.5078125
 10
3065.9765625
 20
-4850.5078125
 10
3075.46875
 20
-4850.5078125
 10
3084.9609375
 20
-4850.5078125
 10
3094.453125
 20
-4850.5078125
 10
3103.9453125
 20
-4850.5078125
 10
3113.4375
 20
-4850.5078125
 10
3122.9296875
 20
-4850.5078125
 10
3132.421875
 20
-4850.5078125
 10
3141.9140625
 20
-4850.5078125
 10
3151.40625
 20
-4850.5078125
 10
3160.8984375
 20
-4850.5078125
 10
3170.390625
 20
-4850.5078125
 10
3179.8828125
 20
-4850.5078125
 10
3189.375
 20
-4850.5078125
 10
3198.8671875
 20
-4850.5078125
 10
3208.359375
 20
-4850.5078125
 10
3217.8515625
 20
-4850.5078125
 10
3227.34375
 20
-4850.5078125
 10
3236.8359375
 20
-4850.5078125
 10
3246.328125
 20
-4850.5078125
 10
3255.8203125
 20
-4850.5078125
 10
3265.3125
 20
-4850.5078125
 10
3274.8046875
 20
-4850.5078125
 10
3284.296875
 20
-4850.5078125
 10
3293.7890625
 20
-4850.5078125
 10
3303.28125
 20
-4850.5078125
 10
3312.7734375
 20
-4850.5078125
 10
3322.265625
 20
-4850.5078125
 10
3331.7578125
 20
-4850.5078125
 10
3341.25
 20
-4850.5078125
 10
3350.7421875
 20
-4850.5078125
 10
3360.234375
 20
-4850.5078125
 10
3369.7265625
 20
-4850.5078125
 10
3379.21875
 20
-4850.5078125
 10
3388.7109375
 20
-4850.5078125
 10
3398.203125
 20
-4850.5078125
 10
3407.6953125
 20
-4850.5078125
 10
3417.1875
 20
-4850.5078125
 10
3426.6796875
 20
-4850.5078125
 10
3436.171875
 20
-4850.5078125
 10
3445.6640625
 20
-4850.5078125
 10
3455.15625
 20
-4850.5078125
 10
3464.6484375
 20
-4850.5078125
 10
3474.140625
 20
-4850.5078125
 10
3483.6328125
 20
-4850.5078125
 10
3493.125
 20
-4850.5078125
 10
3502.6171875
 20
-4850.5078125
 10
3512.109375
 20
-4850.5078125
 10
3521.6015625
 20
-4850.5078125
 10
3531.09375
 20
-4850.5078125
 10
3540.5859375
 20
-4850.5078125
 10
3550.078125
 20
-4850.5078125
 10
3559.5703125
 20
-4850.5078125
 10
3569.0625
 20
-4850.5078125
 10
3578.5546875
 20
-4850.5078125
 10
3588.046875
 20
-4850.5078125
 10
3597.5390625
 20
-4850.5078125
 10
3607.03125
 20
-4850.5078125
 10
3616.5234375
 20
-4850.5078125
 10
3626.015625
 20
-4850.5078125
 10
3635.5078125
 20
-4850.5078125
 10
3645.0
 20
-4850.5078125
 10
3654.4921875
 20
-4850.5078125
 10
3663.984375
 20
-4850.5078125
 10
3673.4765625
 20
-4850.5078125
 10
3682.96875
 20
-4850.5078125
 10
3692.4609375
 20
-4850.5078125
 10
3701.953125
 20
-4850.5078125
 10
3711.4453125
 20
-4850.5078125
 10
3720.9375
 20
-4850.5078125
 10
3730.4296875
 20
-4850.5078125
 10
3739.921875
 20
-4850.5078125
 10
3749.4140625
 20
-4850.5078125
 10
3758.90625
 20
-4850.5078125
 10
3768.3984375
 20
-4850.5078125
 10
3777.890625
 20
-4850.5078125
 10
3787.3828125
 20
-4850.5078125
 10
3796.875
 20
-4850.5078125
 10
3806.3671875
 20
-4850.5078125
 10
3815.859375
 20
-4850.5078125
 10
3825.3515625
 20
-4850.5078125
 10
3834.84375
 20
-4850.5078125
 10
3844.3359375
 20
-4850.5078125
 10
3853.828125
 20
-4850.5078125
 10
3863.3203125
 20
-4850.5078125
 10
3872.8125
 20
-4850.5078125
 10
3882.3046875
 20
-4850.5078125
 10
3891.796875
 20
-4850.5078125
 10
3901.2890625
 20
-4850.5078125
 10
3910.78125
 20
-4850.5078125
 10
3920.2734375
 20
-4850.5078125
 10
3929.765625
 20
-4850.5078125
 10
3939.2578125
 20
-4850.5078125
 10
3948.75
 20
-4850.5078125
 10
3958.2421875
 20
-4850.5078125
 10
3967.734375
 20
-4850.5078125
 10
3977.2265625
 20
-4850.5078125
 10
3986.71875
 20
-4850.5078125
 10
3996.2109375
 20
-4850.5078125
 10
4005.703125
 20
-4850.5078125
 10
4015.1953125
 20
-4850.5078125
 10
4024.6875
 20
-4850.5078125
 10
4034.1796875
 20
-4850.5078125
 10
4043.671875
 20
-4850.5078125
 10
4053.1640625
 20
-4850.5078125
 10
4062.65625
 20
-4850.5078125
 10
4072.1484375
 20
-4850.5078125
 10
4081.640625
 20
-4850.5078125
 10
4091.1328125
 20
-4850.5078125
 10
4100.625
 20
-4850.5078125
 10
4110.1171875
 20
-4850.5078125
 10
4119.609375
 20
-4850.5078125
 10
4129.1015625
 20
-4850.5078125
 10
4138.59375
 20
-4850.5078125
 10
4148.0859375
 20
-4850.5078125
 10
4157.578125
 20
-4850.5078125
 10
4167.0703125
 20
-4850.5078125
 10
4176.5625
 20
-4850.5078125
 10
4186.0546875
 20
-4850.5078125
 10
4195.546875
 20
-4850.5078125
 10
4205.0390625
 20
-4850.5078125
 10
4214.53125
 20
-4850.5078125
 10
4224.0234375
 20
-4850.5078125
 10
4233.515625
 20
-4850.5078125
 10
4243.0078125
 20
-4850.5078125
 10
4252.5
 20
-4850.5078125
 10
4261.9921875
 20
-4850.5078125
 10
4271.484375
 20
-4850.5078125
 10
4280.9765625
 20
-4850.5078125
 10
4290.46875
 20
-4850.5078125
 10
4299.9609375
 20
-4850.5078125
 10
4309.453125
 20
-4850.5078125
 10
4318.9453125
 20
-4850.5078125
 10
4328.4375
 20
-4850.5078125
 10
4337.9296875
 20
-4850.5078125
 10
4347.421875
 20
-4850.5078125
 10
4356.9140625
 20
-4850.5078125
 10
4366.40625
 20
-4850.5078125
 10
4375.8984375
 20
-4850.5078125
 10
4385.390625
 20
-4850.5078125
 10
4394.8828125
 20
-4850.5078125
 10
4404.375
 20
-4850.5078125
 10
4413.8671875
 20
-4850.5078125
 10
4423.359375
 20
-4850.5078125
 10
4432.8515625
 20
-4850.5078125
 10
4442.34375
 20
-4850.5078125
 10
4451.8359375
 20
-4850.5078125
 10
4461.328125
 20
-4850.5078125
 10
4470.8203125
 20
-4850.5078125
 10
4480.3125
 20
-4850.5078125
 10
4489.8046875
 20
-4850.5078125
 10
4499.296875
 20
-4850.5078125
 10
4508.7890625
 20
-4850.5078125
 10
4518.28125
 20
-4850.5078125
 10
4527.7734375
 20
-4850.5078125
 10
4537.265625
 20
-4850.5078125
 10
4546.7578125
 20
-4850.5078125
 10
4556.25
 20
-4850.5078125
 10
4565.7421875
 20
-4850.5078125
 10
4575.234375
 20
-4850.5078125
 10
4584.7265625
 20
-4850.5078125
 10
4594.21875
 20
-4850.5078125
 10
4603.7109375
 20
-4850.5078125
 10
4613.203125
 20
-4850.5078125
 10
4622.6953125
 20
-4850.5078125
 10
4632.1875
 20
-4850.5078125
 10
4641.6796875
 20
-4850.5078125
 10
4651.171875
 20
-4850.5078125
 10
4660.6640625
 20
-4850.5078125
 10
4670.15625
 20
-4850.5078125
 10
4679.6484375
 20
-4850.5078125
 10
4689.140625
 20
-4850.5078125
 10
4698.6328125
 20
-4850.5078125
 10
4708.125
 20
-4850.5078125
 10
4717.6171875
 20
-4850.5078125
 10
4727.109375
 20
-4850.5078125
 10
4736.6015625
 20
-4850.5078125
 10
4746.09375
 20
-4850.5078125
 10
4755.5859375
 20
-4850.5078125
 10
4765.078125
 20
-4850.5078125
 10
4774.5703125
 20
-4850.5078125
 10
4784.0625
 20
-4850.5078125
 10
4793.5546875
 20
-4850.5078125
 10
4803.046875
 20
-4850.5078125
 10
4812.5390625
 20
-4850.5078125
 10
4822.03125
 20
-4850.5078125
 10
4831.5234375
 20
-4850.5078125
 10
4841.015625
 20
-4850.5078125
 10
4850.5078125
 20
-4850.5078125
 10
4850.5078125
 20
-4841.015625
 10
4850.5078125
 20
-4831.5234375
 10
4850.5078125
 20
-4822.03125
 10
4850.5078125
 20
-4812.5390625
 10
4850.5078125
 20
-4803.046875
 10
4850.5078125
 20
-4793.5546875
 10
4850.5078125
 20
-4784.0625
 10
4850.5078125
 20
-4774.5703125
 10
4850.5078125
 20
-4765.078125
 10
4850.5078125
 20
-4755.5859375
 10
4850.5078125
 20
-4746.09375
 10
4850.5078125
 20
-4736.6015625
 10
4850.5078125
 20
-4727.109375
 10
4850.5078125
 20
-4717.6171875
 10
4850.5078125
 20
-4708.125
 10
4850.5078125
 20
-4698.6328125
 10
4850.5078125
 20
-4689.140625
 10
4850.5078125
 20
-4679.6484375
 10
4850.5078125
 20
-4670.15625
 10
4850.5078125
 20
-4660.6640625
 10
4850.5078125
 20
-4651.171875
 10
4850.5078125
 20
-4641.6796875
 10
4850.5078125
 20
-4632.1875
 10
4850.5078125
 20
-4622.6953125
 10
4850.5078125
 20
-4613.203125
 10
4850.5078125
 20
-4603.7109375
 10
4850.5078125
 20
-4594.21875
 10
4850.5078125
 20
-4584.7265625
 10
4850.5078125
 20
-4575.234375
 10
4850.5078125
 20
-4565.7421875
 10
4850.5078125
 20
-4556.25
 10
4850.5078125
 20
-4546.7578125
 10
4850.5078125
 20
-4537.265625
 10
4850.5078125
 20
-4527.7734375
 10
4850.5078125
 20
-4518.28125
 10
4850.5078125
 20
-4508.7890625
 10
4850.5078125
 20
-4499.296875
 10
4850.5078125
 20
-4489.8046875
 10
4850.5078125
 20
-4480.3125
 10
4850.5078125
 20
-4470.8203125
 10
4850.5078125
 20
-4461.328125
 10
4850.5078125
 20
-4451.8359375
 10
4850.5078125
 20
-4442.34375
 10
4850.5078125
 20
-4432.8515625
 10
4850.5078125
 20
-4423.359375
 10
4850.5078125
 20
-4413.8671875
 10
4850.5078125
 20
-4404.375
 10
4850.5078125
 20
-4394.8828125
 10
4850.5078125
 20
-4385.390625
 10
4850.5078125
 20
-4375.8984375
 10
4850.5078125
 20
-4366.40625
 10
4850.5078125
 20
-4356.9140625
 10
4850.5078125
 20
-4347.421875
 10
4850.5078125
 20
-4337.9296875
 10
4850.5078125
 20
-4328.4375
 10
4850.5078125
 20
-4318.9453125
 10
4850.5078125
 20
-4309.453125
 10
4850.5078125
 20
-4299.9609375
 10
4850.5078125
 20
-4290.46875
 10
4850.5078125
 20
-4280.9765625
 10
4850.5078125
 20
-4271.484375
 10
4850.5078125
 20
-4261.9921875
 10
4850.5078125
 20
-4252.5
 10
4850.5078125
 20
-4243.0078125
 10
4850.5078125
 20
-4233.515625
 10
4850.5078125
 20
-4224.0234375
 10
4850.5078125
 20
-4214.53125
 10
4850.5078125
 20
-4205.0390625
 10
4850.5078125
 20
-4195.546875
 10
4850.5078125
 20
-4186.0546875
 10
4850.5078125
 20
-4176.5625
 10
4850.5078125
 20
-4167.0703125
 10
4850.5078125
 20
-4157.578125
 10
4850.5078125
 20
-4148.0859375
 10
4850.5078125
 20
-4138.59375
 10
4850.5078125
 20
-4129.1015625
 10
4850.5078125
 20
-4119.609375
 10
4850.5078125
 20
-4110.1171875
 10
4850.5078125
 20
-4100.625
 10
4850.5078125
 20
-4091.1328125
 10
4850.5078125
 20
-4081.640625
 10
4850.5078125
 20
-4072.1484375
 10
4850.5078125
 20
-4062.65625
 10
4850.5078125
 20
-4053.1640625
 10
4850.5078125
 20
-4043.671875
 10
4850.5078125
 20
-4034.1796875
 10
4850.5078125
 20
-4024.6875
 10
4850.5078125
 20
-4015.1953125
 10
4850.5078125
 20
-4005.703125
 10
4850.5078125
 20
-3996.2109375
 10
4850.5078125
 20
-3986.71875
 10
4850.5078125
 20
-3977.2265625
 10
4850.5078125
 20
-3967.734375
 10
4850.5078125
 20
-3958.2421875
 10
4850.5078125
 20
-3948.75
 10
4850.5078125
 20
-3939.2578125
 10
4850.5078125
 20
-3929.765625
 10
4850.5078125
 20
-3920.2734375
 10
4850.5078125
 20
-3910.78125
 10
4850.5078125
 20
-3901.2890625
 10
4850.5078125
 20
-3891.796875
 10
4850.5078125
 20
-3882.3046875
 10
4850.5078125
 20
-3872.8125
 10
4850.5078125
 20
-3863.3203125
 10
4850.5078125
 20
-3853.828125
 10
4850.5078125
 20
-3844.3359375
 10
4850.5078125
 20
-3834.84375
 10
4850.5078125
 20
-3825.3515625
 10
4850.5078125
 20
-3815.859375
 10
4850.5078125
 20
-3806.3671875
 10
4850.5078125
 20
-3796.875
 10
4850.5078125
 20
-3787.3828125
 10
4850.5078125
 20
-3777.890625
 10
4850.5078125
 20
-3768.3984375
 10
4850.5078125
 20
-3758.90625
 10
4850.5078125
 20
-3749.4140625
 10
4850.5078125
 20
-3739.921875
 10
4850.5078125
 20
-3730.4296875
 10
4850.5078125
 20
-3720.9375
 10
4850.5078125
 20
-3711.4453125
 10
4850.5078125
 20
-3701.953125
 10
4850.5078125
 20
-3692.4609375
 10
4850.5078125
 20
-3682.96875
 10
4850.5078125
 20
-3673.4765625
 10
4850.5078125
 20
-3663.984375
 10
4850.5078125
 20
-3654.4921875
 10
4850.5078125
 20
-3645.0
 10
4850.5078125
 20
-3635.5078125
 10
4850.5078125
 20
-3626.015625
 10
4850.5078125
 20
-3616.5234375
 10
4850.5078125
 20
-3607.03125
 10
4850.5078125
 20
-3597.5390625
 10
4850.5078125
 20
-3588.046875
 10
4850.5078125
 20
-3578.5546875
 10
4850.5078125
 20
-3569.0625
 10
4850.5078125
 20
-3559.5703125
 10
4850.5078125
 20
-3550.078125
 10
4850.5078125
 20
-3540.5859375
 10
4850.5078125
 20
-3531.09375
 10
4850.5078125
 20
-3521.6015625
 10
4850.5078125
 20
-3512.109375
 10
4850.5078125
 20
-3502.6171875
 10
4850.5078125
 20
-3493.125
 10
4850.5078125
 20
-3483.6328125
 10
4850.5078125
 20
-3474.140625
 10
4850.5078125
 20
-3464.6484375
 10
4850.5078125
 20
-3455.15625
 10
4850.5078125
 20
-3445.6640625
 10
4850.5078125
 20
-3436.171875
 10
4850.5078125
 20
-3426.6796875
 10
4850.5078125
 20
-3417.1875
 10
4850.5078125
 20
-3407.6953125
 10
4850.5078125
 20
-3398.203125
 10
4850.5078125
 20
-3388.7109375
 10
4850.5078125
 20
-3379.21875
 10
4850.5078125
 20
-3369.7265625
 10
4850.5078125
 20
-3360.234375
 10
4850.5078125
 20
-3350.7421875
 10
4850.5078125
 20
-3341.25
 10
4850.5078125
 20
-3331.7578125
 10
4850.5078125
 20
-3322.265625
 10
4850.5078125
 20
-3312.7734375
 10
4850.5078125
 20
-3303.28125
 10
4850.5078125
 20
-3293.7890625
 10
4850.5078125
 20
-3284.296875
 10
4850.5078125
 20
-3274.8046875
 10
4850.5078125
 20
-3265.3125
 10
4850.5078125
 20
-3255.8203125
 10
4850.5078125
 20
-3246.328125
 10
4850.5078125
 20
-3236.8359375
 10
4850.5078125
 20
-3227.34375
 10
4850.5078125
 20
-3217.8515625
 10
4850.5078125
 20
-3208.359375
 10
4850.5078125
 20
-3198.8671875
 10
4850.5078125
 20
-3189.375
 10
4850.5078125
 20
-3179.8828125
 10
4850.5078125
 20
-3170.390625
 10
4850.5078125
 20
-3160.8984375
 10
4850.5078125
 20
-3151.40625
 10
4850.5078125
 20
-3141.9140625
 10
4850.5078125
 20
-3132.421875
 10
4850.5078125
 20
-3122.9296875
 10
4850.5078125
 20
-3113.4375
 10
4850.5078125
 20
-3103.9453125
 10
4850.5078125
 20
-3094.453125
 10
4850.5078125
 20
-3084.9609375
 10
4850.5078125
 20
-3075.46875
 10
4850.5078125
 20
-3065.9765625
 10
4850.5078125
 20
-3056.484375
 10
4850.5078125
 20
-3046.9921875
 10
4850.5078125
 20
-3037.5
 10
4850.5078125
 20
-3028.0078125
 10
4850.5078125
 20
-3018.515625
 10
4850.5078125
 20
-3009.0234375
 10
4850.5078125
 20
-2999.53125
 10
4850.5078125
 20
-2990.0390625
 10
4850.5078125
 20
-2980.546875
 10
4850.5078125
 20
-2971.0546875
 10
4850.5078125
 20
-2961.5625
 10
4850.5078125
 20
-2952.0703125
 10
4850.5078125
 20
-2942.578125
 10
4850.5078125
 20
-2933.0859375
 10
4850.5078125
 20
-2923.59375
 10
4850.5078125
 20
-2914.1015625
 10
4850.5078125
 20
-2904.609375
 10
4850.5078125
 20
-2895.1171875
 10
4850.5078125
 20
-2885.625
 10
4850.5078125
 20
-2876.1328125
 10
4850.5078125
 20
-2866.640625
 10
4850.5078125
 20
-2857.1484375
 10
4850.5078125
 20
-2847.65625
 10
4850.5078125
 20
-2838.1640625
 10
4850.5078125
 20
-2828.671875
 10
4850.5078125
 20
-2819.1796875
 10
4850.5078125
 20
-2809.6875
 10
4850.5078125
 20
-2800.1953125
 10
4850.5078125
 20
-2790.703125
 10
4850.5078125
 20
-2781.2109375
 10
4850.5078125
 20
-2771.71875
 10
4850.5078125
 20
-2762.2265625
 10
4850.5078125
 20
-2752.734375
 10
4850.5078125
 20
-2743.2421875
 10
4850.5078125
 20
-2733.75
 10
4850.5078125
 20
-2724.2578125
 10
4850.5078125
 20
-2714.765625
 10
4850.5078125
 20
-2705.2734375
 10
4850.5078125
 20
-2695.78125
 10
4850.5078125
 20
-2686.2890625
 10
4850.5078125
 20
-2676.796875
 10
4850.5078125
 20
-2667.3046875
 10
4850.5078125
 20
-2657.8125
 10
4850.5078125
 20
-2648.3203125
 10
4850.5078125
 20
-2638.828125
 10
4850.5078125
 20
-2629.3359375
 10
4850.5078125
 20
-2619.84375
 10
4850.5078125
 20
-2610.3515625
 10
4850.5078125
 20
-2600.859375
 10
4850.5078125
 20
-2591.3671875
 10
4850.5078125
 20
-2581.875
 10
4850.5078125
 20
-2572.3828125
 10
4850.5078125
 20
-2562.890625
 10
4850.5078125
 20
-2553.3984375
 10
4850.5078125
 20
-2543.90625
 10
4850.5078125
 20
-2534.4140625
 10
4850.5078125
 20
-2524.921875
 10
4850.5078125
 20
-2515.4296875
 10
4850.5078125
 20
-2505.9375
 10
4850.5078125
 20
-2496.4453125
 10
4850.5078125
 20
-2486.953125
 10
4850.5078125
 20
-2477.4609375
 10
4850.5078125
 20
-2467.96875
 10
4850.5078125
 20
-2458.4765625
 10
4850.5078125
 20
-2448.984375
 10
4850.5078125
 20
-2439.4921875
 10
4850.5078125
 20
-2430.0
 10
4850.5078125
 20
-2420.5078125
 10
4850.5078125
 20
-2411.015625
 10
4850.5078125
 20
-2401.5234375
 10
4850.5078125
 20
-2392.03125
 10
4850.5078125
 20
-2382.5390625
 10
4850.5078125
 20
-2373.046875
 10
4850.5078125
 20
-2363.5546875
 10
4850.5078125
 20
-2354.0625
 10
4850.5078125
 20
-2344.5703125
 10
4850.5078125
 20
-2335.078125
 10
4850.5078125
 20
-2325.5859375
 10
4850.5078125
 20
-2316.09375
 10
4850.5078125
 20
-2306.6015625
 10
4850.5078125
 20
-2297.109375
 10
4850.5078125
 20
-2287.6171875
 10
4850.5078125
 20
-2278.125
 10
4850.5078125
 20
-2268.6328125
 10
4850.5078125
 20
-2259.140625
 10
4850.5078125
 20
-2249.6484375
 10
4850.5078125
 20
-2240.15625
 10
4850.5078125
 20
-2230.6640625
 10
4850.5078125
 20
-2221.171875
 10
4850.5078125
 20
-2211.6796875
 10
4850.5078125
 20
-2202.1875
 10
4850.5078125
 20
-2192.6953125
 10
4850.5078125
 20
-2183.203125
 10
4850.5078125
 20
-2173.7109375
 10
4850.5078125
 20
-2164.21875
 10
4850.5078125
 20
-2154.7265625
 10
4850.5078125
 20
-2145.234375
 10
4850.5078125
 20
-2135.7421875
 10
4850.5078125
 20
-2126.25
 10
4850.5078125
 20
-2116.7578125
 10
4850.5078125
 20
-2107.265625
 10
4850.5078125
 20
-2097.7734375
 10
4850.5078125
 20
-2088.28125
 10
4850.5078125
 20
-2078.7890625
 10
4850.5078125
 20
-2069.296875
 10
4850.5078125
 20
-2059.8046875
 10
4850.5078125
 20
-2050.3125
 10
4850.5078125
 20
-2040.8203125
 10
4850.5078125
 20
-2031.328125
 10
4850.5078125
 20
-2021.8359375
 10
4850.5078125
 20
-2012.34375
 10
4850.5078125
 20
-2002.8515625
 10
4850.5078125
 20
-1993.359375
 10
4850.5078125
 20
-1983.8671875
 10
4850.5078125
 20
-1974.375
 10
4850.5078125
 20
-1964.8828125
 10
4850.5078125
 20
-1955.390625
 10
4850.5078125
 20
-1945.8984375
 10
4850.5078125
 20
-1936.40625
 10
4850.5078125
 20
-1926.9140625
 10
4850.5078125
 20
-1917.421875
 10
4850.5078125
 20
-1907.9296875
 10
4850.5078125
 20
-1898.4375
 10
4850.5078125
 20
-1888.9453125
 10
4850.5078125
 20
-1879.453125
 10
4850.5078125
 20
-1869.9609375
 10
4850.5078125
 20
-1860.46875
 10
4850.5078125
 20
-1850.9765625
 10
4850.5078125
 20
-1841.484375
 10
4850.5078125
 20
-1831.9921875
 10
4850.5078125
 20
-1822.5
 10
4850.5078125
 20
-1813.0078125
 10
4850.5078125
 20
-1803.515625
 10
4850.5078125
 20
-1794.0234375
 10
4850.5078125
 20
-1784.53125
 10
4850.5078125
 20
-1775.0390625
 10
4850.5078125
 20
-1765.546875
 10
4850.5078125
 20
-1756.0546875
 10
4850.5078125
 20
-1746.5625
 10
4850.5078125
 20
-1737.0703125
 10
4850.5078125
 20
-1727.578125
 10
4850.5078125
 20
-1718.0859375
 10
4850.5078125
 20
-1708.59375
 10
4850.5078125
 20
-1699.1015625
 10
4850.5078125
 20
-1689.609375
 10
4850.5078125
 20
-1680.1171875
 10
4850.5078125
 20
-1670.625
 10
4850.5078125
 20
-1661.1328125
 10
4850.5078125
 20
-1651.640625
 10
4850.5078125
 20
-1642.1484375
 10
4850.5078125
 20
-1632.65625
 10
4850.5078125
 20
-1623.1640625
 10
4850.5078125
 20
-1613.671875
 10
4850.5078125
 20
-1604.1796875
 10
4850.5078125
 20
-1594.6875
 10
4850.5078125
 20
-1585.1953125
 10
4850.5078125
 20
-1575.703125
 10
4850.5078125
 20
-1566.2109375
 10
4850.5078125
 20
-1556.71875
 10
4850.5078125
 20
-1547.2265625
 10
4850.5078125
 20
-1537.734375
 10
4850.5078125
 20
-1528.2421875
 10
4850.5078125
 20
-1518.75
 10
4850.5078125
 20
-1509.2578125
 10
4850.5078125
 20
-1499.765625
 10
4850.5078125
 20
-1490.2734375
 10
4850.5078125
 20
-1480.78125
 10
4850.5078125
 20
-1471.2890625
 10
4850.5078125
 20
-1461.796875
 10
4850.5078125
 20
-1452.3046875
 10
4850.5078125
 20
-1442.8125
 10
4850.5078125
 20
-1433.3203125
 10
4850.5078125
 20
-1423.828125
 10
4850.5078125
 20
-1414.3359375
 10
4850.5078125
 20
-1404.84375
 10
4850.5078125
 20
-1395.3515625
 10
4850.5078125
 20
-1385.859375
 10
4850.5078125
 20
-1376.3671875
 10
4850.5078125
 20
-1366.875
 10
4850.5078125
 20
-1357.3828125
 10
4850.5078125
 20
-1347.890625
 10
4850.5078125
 20
-1338.3984375
 10
4850.5078125
 20
-1328.90625
 10
4850.5078125
 20
-1319.4140625
 10
4850.5078125
 20
-1309.921875
 10
4850.5078125
 20
-1300.4296875
 10
4850.5078125
 20
-1290.9375
 10
4850.5078125
 20
-1281.4453125
 10
4850.5078125
 20
-1271.953125
 10
4850.5078125
 20
-1262.4609375
 10
4850.5078125
 20
-1252.96875
 10
4850.5078125
 20
-1243.4765625
 10
4850.5078125
 20
-1233.984375
 10
4850.5078125
 20
-1224.4921875
 10
4850.5078125
 20
-1215.0
 10
4850.5078125
 20
-1205.5078125
 10
4850.5078125
 20
-1196.015625
 10
4850.5078125
 20
-1186.5234375
 10
4850.5078125
 20
-1177.03125
 10
4850.5078125
 20
-1167.5390625
 10
4850.5078125
 20
-1158.046875
 10
4850.5078125
 20
-1148.5546875
 10
4850.5078125
 20
-1139.0625
 10
4850.5078125
 20
-1129.5703125
 10
4850.5078125
 20
-1120.078125
 10
4850.5078125
 20
-1110.5859375
 10
4850.5078125
 20
-1101.09375
 10
4850.5078125
 20
-1091.6015625
 10
4850.5078125
 20
-1082.109375
 10
4850.5078125
 20
-1072.6171875
 10
4850.5078125
 20
-1063.125
 10
4850.5078125
 20
-1053.6328125
 10
4850.5078125
 20
-1044.140625
 10
4850.5078125
 20
-1034.6484375
 10
4850.5078125
 20
-1025.15625
 10
4850.5078125
 20
-1015.6640625
 10
4850.5078125
 20
-1006.171875
 10
4850.5078125
 20
-996.6796875
 10
4850.5078125
 20
-987.1875
 10
4850.5078125
 20
-977.6953125
 10
4850.5078125
 20
-968.203125
 10
4850.5078125
 20
-958.7109375
 10
4850.5078125
 20
-949.21875
 10
4850.5078125
 20
-939.7265625
 10
4850.5078125
 20
-930.234375
 10
4850.5078125
 20
-920.7421875
 10
4850.5078125
 20
-911.25
 10
4850.5078125
 20
-901.7578125
 10
4850.5078125
 20
-892.265625
 10
4850.5078125
 20
-882.7734375
 10
4850.5078125
 20
-873.28125
 10
4850.5078125
 20
-863.7890625
 10
4850.5078125
 20
-854.296875
 10
4850.5078125
 20
-844.8046875
 10
4850.5078125
 20
-835.3125
 10
4850.5078125
 20
-825.8203125
 10
4850.5078125
 20
-816.328125
 10
4850.5078125
 20
-806.8359375
 10
4850.5078125
 20
-797.34375
 10
4850.5078125
 20
-787.8515625
 10
4850.5078125
 20
-778.359375
 10
4850.5078125
 20
-768.8671875
 10
4850.5078125
 20
-759.375
 10
4850.5078125
 20
-749.8828125
 10
4850.5078125
 20
-740.390625
 10
4850.5078125
 20
-730.8984375
 10
4850.5078125
 20
-721.40625
 10
4850.5078125
 20
-711.9140625
 10
4850.5078125
 20
-702.421875
 10
4850.5078125
 20
-692.9296875
 10
4850.5078125
 20
-683.4375
 10
4850.5078125
 20
-673.9453125
 10
4850.5078125
 20
-664.453125
 10
4850.5078125
 20
-654.9609375
 10
4850.5078125
 20
-645.46875
 10
4850.5078125
 20
-635.9765625
 10
4850.5078125
 20
-626.484375
 10
4850.5078125
 20
-616.9921875
 10
4850.5078125
 20
-607.5
 10
4850.5078125
 20
-598.0078125
 10
4850.5078125
 20
-588.515625
 10
4850.5078125
 20
-579.0234375
 10
4850.5078125
 20
-569.53125
 10
4850.5078125
 20
-560.0390625
 10
4850.5078125
 20
-550.546875
 10
4850.5078125
 20
-541.0546875
 10
4850.5078125
 20
-531.5625
 10
4850.5078125
 20
-522.0703125
 10
4850.5078125
 20
-512.578125
 10
4850.5078125
 20
-503.0859375
 10
4850.5078125
 20
-493.59375
 10
4850.5078125
 20
-484.1015625
 10
4850.5078125
 20
-474.609375
 10
4850.5078125
 20
-465.1171875
 10
4850.5078125
 20
-455.625
 10
4850.5078125
 20
-446.1328125
 10
4850.5078125
 20
-436.640625
 10
4850.5078125
 20
-427.1484375
 10
4850.5078125
 20
-417.65625
 10
4850.5078125
 20
-408.1640625
 10
4850.5078125
 20
-398.671875
 10
4850.5078125
 20
-389.1796875
 10
4850.5078125
 20
-379.6875
 10
4850.5078125
 20
-370.1953125
 10
4850.5078125
 20
-360.703125
 10
4850.5078125
 20
-351.2109375
 10
4850.5078125
 20
-341.71875
 10
4850.5078125
 20
-332.2265625
 10
4850.5078125
 20
-322.734375
 10
4850.5078125
 20
-313.2421875
 10
4850.5078125
 20
-303.75
 10
4850.5078125
 20
-294.2578125
 10
4850.5078125
 20
-284.765625
 10
4850.5078125
 20
-275.2734375
 10
4850.5078125
 20
-265.78125
 10
4850.5078125
 20
-256.2890625
 10
4850.5078125
 20
-246.796875
 10
4850.5078125
 20
-237.3046875
 10
4850.5078125
 20
-227.8125
 10
4850.5078125
 20
-218.3203125
 10
4850.5078125
 20
-208.828125
 10
4850.5078125
 20
-199.3359375
 10
4850.5078125
 20
-189.84375
 10
4850.5078125
 20
-180.3515625
 10
4850.5078125
 20
-170.859375
 10
4850.5078125
 20
-161.3671875
 10
4850.5078125
 20
-151.875
 10
4850.5078125
 20
-142.3828125
 10
4850.5078125
 20
-132.890625
 10
4850.5078125
 20
-123.3984375
 10
4850.5078125
 20
-113.90625
 10
4850.5078125
 20
-104.4140625
 10
4850.5078125
 20
-94.921875
 10
4850.5078125
 20
-85.4296875
 10
4850.5078125
 20
-75.9375
 10
4850.5078125
 20
-66.4453125
 10
4850.5078125
 20
-56.953125
 10
4850.5078125
 20
-47.4609375
 10
4850.5078125
 20
-37.96875
 10
4850.5078125
 20
-28.4765625
 10
4850.5078125
 20
-18.984375
 10
4850.5078125
 20
-9.4921875
 10
4850.5078125
 20
-0.0
 10
4841.015625
 20
-0.0
 10
4831.5234375
 20
-0.0
 10
4822.03125
 20
-0.0
 10
4812.5390625
 20
-0.0
 10
4803.046875
 20
-0.0
 10
4793.5546875
 20
-0.0
 10
4784.0625
 20
-0.0
 10
4774.5703125
 20
-0.0
 10
4765.078125
 20
-0.0
 10
4755.5859375
 20
-0.0
 10
4746.09375
 20
-0.0
 10
4736.6015625
 20
-0.0
 10
4727.109375
 20
-0.0
 10
4717.6171875
 20
-0.0
 10
4708.125
 20
-0.0
 10
4698.6328125
 20
-0.0
 10
4689.140625
 20
-0.0
 10
4679.6484375
 20
-0.0
 10
4670.15625
 20
-0.0
 10
4660.6640625
 20
-0.0
 10
4651.171875
 20
-0.0
 10
4641.6796875
 20
-0.0
 10
4632.1875
 20
-0.0
 10
4622.6953125
 20
-0.0
 10
4613.203125
 20
-0.0
 10
4603.7109375
 20
-0.0
 10
4594.21875
 20
-0.0
 10
4584.7265625
 20
-0.0
 10
4575.234375
 20
-0.0
 10
4565.7421875
 20
-0.0
 10
4556.25
 20
-0.0
 10
4546.7578125
 20
-0.0
 10
4537.265625
 20
-0.0
 10
4527.7734375
 20
-0.0
 10
4518.28125
 20
-0.0
 10
4508.7890625
 20
-0.0
 10
4499.296875
 20
-0.0
 10
4489.8046875
 20
-0.0
 10
4480.3125
 20
-0.0
 10
4470.8203125
 20
-0.0
 10
4461.328125
 20
-0.0
 10
4451.8359375
 20
-0.0
 10
4442.34375
 20
-0.0
 10
4432.8515625
 20
-0.0
 10
4423.359375
 20
-0.0
 10
4413.8671875
 20
-0.0
 10
4404.375
 20
-0.0
 10
4394.8828125
 20
-0.0
 10
4385.390625
 20
-0.0
 10
4375.8984375
 20
-0.0
 10
4366.40625
 20
-0.0
 10
4356.9140625
 20
-0.0
 10
4347.421875
 20
-0.0
 10
4337.9296875
 20
-0.0
 10
4328.4375
 20
-0.0
 10
4318.9453125
 20
-0.0
 10
4309.453125
 20
-0.0
 10
4299.9609375
 20
-0.0
 10
4290.46875
 20
-0.0
 10
4280.9765625
 20
-0.0
 10
4271.484375
 20
-0.0
 10
4261.9921875
 20
-0.0
 10
4252.5
 20
-0.0
 10
4243.0078125
 20
-0.0
 10
4233.515625
 20
-0.0
 10
4224.0234375
 20
-0.0
 10
4214.53125
 20
-0.0
 10
4205.0390625
 20
-0.0
 10
4195.546875
 20
-0.0
 10
4186.0546875
 20
-0.0
 10
4176.5625
 20
-0.0
 10
4167.0703125
 20
-0.0
 10
4157.578125
 20
-0.0
 10
4148.0859375
 20
-0.0
 10
4138.59375
 20
-0.0
 10
4129.1015625
 20
-0.0
 10
4119.609375
 20
-0.0
 10
4110.1171875
 20
-0.0
 10
4100.625
 20
-0.0
 10
4091.1328125
 20
-0.0
 10
4081.640625
 20
-0.0
 10
4072.1484375
 20
-0.0
 10
4062.65625
 20
-0.0
 10
4053.1640625
 20
-0.0
 10
4043.671875
 20
-0.0
 10
4034.1796875
 20
-0.0
 10
4024.6875
 20
-0.0
 10
4015.1953125
 20
-0.0
 10
4005.703125
 20
-0.0
 10
3996.2109375
 20
-0.0
 10
3986.71875
 20
-0.0
 10
3977.2265625
 20
-0.0
 10
3967.734375
 20
-0.0
 10
3958.2421875
 20
-0.0
 10
3948.75
 20
-0.0
 10
3939.2578125
 20
-0.0
 10
3929.765625
 20
-0.0
 10
3920.2734375
 20
-0.0
 10
3910.78125
 20
-0.0
 10
3901.2890625
 20
-0.0
 10
3891.796875
 20
-0.0
 10
3882.3046875
 20
-0.0
 10
3872.8125
 20
-0.0
 10
3863.3203125
 20
-0.0
 10
3853.828125
 20
-0.0
 10
3844.3359375
 20
-0.0
 10
3834.84375
 20
-0.0
 10
3825.3515625
 20
-0.0
 10
3815.859375
 20
-0.0
 10
3806.3671875
 20
-0.0
 10
3796.875
 20
-0.0
 10
3787.3828125
 20
-0.0
 10
3777.890625
 20
-0.0
 10
3768.3984375
 20
-0.0
 10
3758.90625
 20
-0.0
 10
3749.4140625
 20
-0.0
 10
3739.921875
 20
-0.0
 10
3730.4296875
 20
-0.0
 10
3720.9375
 20
-0.0
 10
3711.4453125
 20
-0.0
 10
3701.953125
 20
-0.0
 10
3692.4609375
 20
-0.0
 10
3682.96875
 20
-0.0
 10
3673.4765625
 20
-0.0
 10
3663.984375
 20
-0.0
 10
3654.4921875
 20
-0.0
 10
3645.0
 20
-0.0
 10
3635.5078125
 20
-0.0
 10
3626.015625
 20
-0.0
 10
3616.5234375
 20
-0.0
 10
3607.03125
 20
-0.0
 10
3597.5390625
 20
-0.0
 10
3588.046875
 20
-0.0
 10
3578.5546875
 20
-0.0
 10
3569.0625
 20
-0.0
 10
3559.5703125
 20
-0.0
 10
3550.078125
 20
-0.0
 10
3540.5859375
 20
-0.0
 10
3531.09375
 20
-0.0
 10
3521.6015625
 20
-0.0
 10
3512.109375
 20
-0.0
 10
3502.6171875
 20
-0.0
 10
3493.125
 20
-0.0
 10
3483.6328125
 20
-0.0
 10
3474.140625
 20
-0.0
 10
3464.6484375
 20
-0.0
 10
3455.15625
 20
-0.0
 10
3445.6640625
 20
-0.0
 10
3436.171875
 20
-0.0
 10
3426.6796875
 20
-0.0
 10
3417.1875
 20
-0.0
 10
3407.6953125
 20
-0.0
 10
3398.203125
 20
-0.0
 10
3388.7109375
 20
-0.0
 10
3379.21875
 20
-0.0
 10
3369.7265625
 20
-0.0
 10
3360.234375
 20
-0.0
 10
3350.7421875
 20
-0.0
 10
3341.25
 20
-0.0
 10
3331.7578125
 20
-0.0
 10
3322.265625
 20
-0.0
 10
3312.7734375
 20
-0.0
 10
3303.28125
 20
-0.0
 10
3293.7890625
 20
-0.0
 10
3284.296875
 20
-0.0
 10
3274.8046875
 20
-0.0
 10
3265.3125
 20
-0.0
 10
3255.8203125
 20
-0.0
 10
3246.328125
 20
-0.0
 10
3236.8359375
 20
-0.0
 10
3227.34375
 20
-0.0
 10
3217.8515625
 20
-0.0
 10
3208.359375
 20
-0.0
 10
3198.8671875
 20
-0.0
 10
3189.375
 20
-0.0
 10
3179.8828125
 20
-0.0
 10
3170.390625
 20
-0.0
 10
3160.8984375
 20
-0.0
 10
3151.40625
 20
-0.0
 10
3141.9140625
 20
-0.0
 10
3132.421875
 20
-0.0
 10
3122.9296875
 20
-0.0
 10
3113.4375
 20
-0.0
 10
3103.9453125
 20
-0.0
 10
3094.453125
 20
-0.0
 10
3084.9609375
 20
-0.0
 10
3075.46875
 20
-0.0
 10
3065.9765625
 20
-0.0
 10
3056.484375
 20
-0.0
 10
3046.9921875
 20
-0.0
 10
3037.5
 20
-0.0
 10
3028.0078125
 20
-0.0
 10
3018.515625
 20
-0.0
 10
3009.0234375
 20
-0.0
 10
2999.53125
 20
-0.0
 10
2990.0390625
 20
-0.0
 10
2980.546875
 20
-0.0
 10
2971.0546875
 20
-0.0
 10
2961.5625
 20
-0.0
 10
2952.0703125
 20
-0.0
 10
2942.578125
 20
-0.0
 10
2933.0859375
 20
-0.0
 10
2923.59375
 20
-0.0
 10
2914.1015625
 20
-0.0
 10
2904.609375
 20
-0.0
 10
2895.1171875
 20
-0.0
 10
2885.625
 20
-0.0
 10
2876.1328125
 20
-0.0
 10
2866.640625
 20
-0.0
 10
2857.1484375
 20
-0.0
 10
2847.65625
 20
-0.0
 10
2838.1640625
 20
-0.0
 10
2828.671875
 20
-0.0
 10
2819.1796875
 20
-0.0
 10
2809.6875
 20
-0.0
 10
2800.1953125
 20
-0.0
 10
2790.703125
 20
-0.0
 10
2781.2109375
 20
-0.0
 10
2771.71875
 20
-0.0
 10
2762.2265625
 20
-0.0
 10
2752.734375
 20
-0.0
 10
2743.2421875
 20
-0.0
 10
2733.75
 20
-0.0
 10
2724.2578125
 20
-0.0
 10
2714.765625
 20
-0.0
 10
2705.2734375
 20
-0.0
 10
2695.78125
 20
-0.0
 10
2686.2890625
 20
-0.0
 10
2676.796875
 20
-0.0
 10
2667.3046875
 20
-0.0
 10
2657.8125
 20
-0.0
 10
2648.3203125
 20
-0.0
 10
2638.828125
 20
-0.0
 10
2629.3359375
 20
-0.0
 10
2619.84375
 20
-0.0
 10
2610.3515625
 20
-0.0
 10
2600.859375
 20
-0.0
 10
2591.3671875
 20
-0.0
 10
2581.875
 20
-0.0
 10
2572.3828125
 20
-0.0
 10
2562.890625
 20
-0.0
 10
2553.3984375
 20
-0.0
 10
2543.90625
 20
-0.0
 10
2534.4140625
 20
-0.0
 10
2524.921875
 20
-0.0
 10
2515.4296875
 20
-0.0
 10
2505.9375
 20
-0.0
 10
2496.4453125
 20
-0.0
 10
2486.953125
 20
-0.0
 10
2477.4609375
 20
-0.0
 10
2467.96875
 20
-0.0
 10
2458.4765625
 20
-0.0
 10
2448.984375
 20
-0.0
 10
2439.4921875
 20
-0.0
 10
2430.0
 20
-0.0
 10
2420.5078125
 20
-0.0
 10
2411.015625
 20
-0.0
 10
2401.5234375
 20
-0.0
 10
2392.03125
 20
-0.0
 10
2382.5390625
 20
-0.0
 10
2373.046875
 20
-0.0
 10
2363.5546875
 20
-0.0
 10
2354.0625
 20
-0.0
 10
2344.5703125
 20
-0.0
 10
2335.078125
 20
-0.0
 10
2325.5859375
 20
-0.0
 10
2316.09375
 20
-0.0
 10
2306.6015625
 20
-0.0
 10
2297.109375
 20
-0.0
 10
2287.6171875
 20
-0.0
 10
2278.125
 20
-0.0
 10
2268.6328125
 20
-0.0
 10
2259.140625
 20
-0.0
 10
2249.6484375
 20
-0.0
 10
2240.15625
 20
-0.0
 10
2230.6640625
 20
-0.0
 10
2221.171875
 20
-0.0
 10
2211.6796875
 20
-0.0
 10
2202.1875
 20
-0.0
 10
2192.6953125
 20
-0.0
 10
2183.203125
 20
-0.0
 10
2173.7109375
 20
-0.0
 10
2164.21875
 20
-0.0
 10
2154.7265625
 20
-0.0
 10
2145.234375
 20
-0.0
 10
2135.7421875
 20
-0.0
 10
2126.25
 20
-0.0
 10
2116.7578125
 20
-0.0
 10
2107.265625
 20
-0.0
 10
2097.7734375
 20
-0.0
 10
2088.28125
 20
-0.0
 10
2078.7890625
 20
-0.0
 10
2069.296875
 20
-0.0
 10
2059.8046875
 20
-0.0
 10
2050.3125
 20
-0.0
 10
2040.8203125
 20
-0.0
 10
2031.328125
 20
-0.0
 10
2021.8359375
 20
-0.0
 10
2012.34375
 20
-0.0
 10
2002.8515625
 20
-0.0
 10
1993.359375
 20
-0.0
 10
1983.8671875
 20
-0.0
 10
1974.375
 20
-0.0
 10
1964.8828125
 20
-0.0
 10
1955.390625
 20
-0.0
 10
1945.8984375
 20
-0.0
 10
1936.40625
 20
-0.0
 10
1926.9140625
 20
-0.0
 10
1917.421875
 20
-0.0
 10
1907.9296875
 20
-0.0
 10
1898.4375
 20
-0.0
 10
1888.9453125
 20
-0.0
 10
1879.453125
 20
-0.0
 10
1869.9609375
 20
-0.0
 10
1860.46875
 20
-0.0
 10
1850.9765625
 20
-0.0
 10
1841.484375
 20
-0.0
 10
1831.9921875
 20
-0.0
 10
1822.5
 20
-0.0
 10
1813.0078125
 20
-0.0
 10
1803.515625
 20
-0.0
 10
1794.0234375
 20
-0.0
 10
1784.53125
 20
-0.0
 10
1775.0390625
 20
-0.0
 10
1765.546875
 20
-0.0
 10
1756.0546875
 20
-0.0
 10
1746.5625
 20
-0.0
 10
1737.0703125
 20
-0.0
 10
1727.578125
 20
-0.0
 10
1718.0859375
 20
-0.0
 10
1708.59375
 20
-0.0
 10
1699.1015625
 20
-0.0
 10
1689.609375
 20
-0.0
 10
1680.1171875
 20
-0.0
 10
1670.625
 20
-0.0
 10
1661.1328125
 20
-0.0
 10
1651.640625
 20
-0.0
 10
1642.1484375
 20
-0.0
 10
1632.65625
 20
-0.0
 10
1623.1640625
 20
-0.0
 10
1613.671875
 20
-0.0
 10
1604.1796875
 20
-0.0
 10
1594.6875
 20
-0.0
 10
1585.1953125
 20
-0.0
 10
1575.703125
 20
-0.0
 10
1566.2109375
 20
-0.0
 10
1556.71875
 20
-0.0
 10
1547.2265625
 20
-0.0
 10
1537.734375
 20
-0.0
 10
1528.2421875
 20
-0.0
 10
1518.75
 20
-0.0
 10
1509.2578125
 20
-0.0
 10
1499.765625
 20
-0.0
 10
1490.2734375
 20
-0.0
 10
1480.78125
 20
-0.0
 10
1471.2890625
 20
-0.0
 10
1461.796875
 20
-0.0
 10
1452.3046875
 20
-0.0
 10
1442.8125
 20
-0.0
 10
1433.3203125
 20
-0.0
 10
1423.828125
 20
-0.0
 10
1414.3359375
 20
-0.0
 10
1404.84375
 20
-0.0
 10
1395.3515625
 20
-0.0
 10
1385.859375
 20
-0.0
 10
1376.3671875
 20
-0.0
 10
1366.875
 20
-0.0
 10
1357.3828125
 20
-0.0
 10
1347.890625
 20
-0.0
 10
1338.3984375
 20
-0.0
 10
1328.90625
 20
-0.0
 10
1319.4140625
 20
-0.0
 10
1309.921875
 20
-0.0
 10
1300.4296875
 20
-0.0
 10
1290.9375
 20
-0.0
 10
1281.4453125
 20
-0.0
 10
1271.953125
 20
-0.0
 10
1262.4609375
 20
-0.0
 10
1252.96875
 20
-0.0
 10
1243.4765625
 20
-0.0
 10
1233.984375
 20
-0.0
 10
1224.4921875
 20
-0.0
 10
1215.0
 20
-0.0
 10
1205.5078125
 20
-0.0
 10
1196.015625
 20
-0.0
 10
1186.5234375
 20
-0.0
 10
1177.03125
 20
-0.0
 10
1167.5390625
 20
-0.0
 10
1158.046875
 20
-0.0
 10
1148.5546875
 20
-0.0
 10
1139.0625
 20
-0.0
 10
1129.5703125
 20
-0.0
 10
1120.078125
 20
-0.0
 10
1110.5859375
 20
-0.0
 10
1101.09375
 20
-0.0
 10
1091.6015625
 20
-0.0
 10
1082.109375
 20
-0.0
 10
1072.6171875
 20
-0.0
 10
1063.125
 20
-0.0
 10
1053.6328125
 20
-0.0
 10
1044.140625
 20
-0.0
 10
1034.6484375
 20
-0.0
 10
1025.15625
 20
-0.0
 10
1015.6640625
 20
-0.0
 10
1006.171875
 20
-0.0
 10
996.6796875
 20
-0.0
 10
987.1875
 20
-0.0
 10
977.6953125
 20
-0.0
 10
968.203125
 20
-0.0
 10
958.7109375
 20
-0.0
 10
949.21875
 20
-0.0
 10
939.7265625
 20
-0.0
 10
930.234375
 20
-0.0
 10
920.7421875
 20
-0.0
 10
911.25
 20
-0.0
 10
901.7578125
 20
-0.0
 10
892.265625
 20
-0.0
 10
882.7734375
 20
-0.0
 10
873.28125
 20
-0.0
 10
863.7890625
 20
-0.0
 10
854.296875
 20
-0.0
 10
844.8046875
 20
-0.0
 10
835.3125
 20
-0.0
 10
825.8203125
 20
-0.0
 10
816.328125
 20
-0.0
 10
806.8359375
 20
-0.0
 10
797.34375
 20
-0.0
 10
787.8515625
 20
-0.0
 10
778.359375
 20
-0.0
 10
768.8671875
 20
-0.0
 10
759.375
 20
-0.0
 10
749.8828125
 20
-0.0
 10
740.390625
 20
-0.0
 10
730.8984375
 20
-0.0
 10
721.40625
 20
-0.0
 10
711.9140625
 20
-0.0
 10
702.421875
 20
-0.0
 10
692.9296875
 20
-0.0
 10
683.4375
 20
-0.0
 10
673.9453125
 20
-0.0
 10
664.453125
 20
-0.0
 10
654.9609375
 20
-0.0
 10
645.46875
 20
-0.0
 10
635.9765625
 20
-0.0
 10
626.484375
 20
-0.0
 10
616.9921875
 20
-0.0
 10
607.5
 20
-0.0
 10
598.0078125
 20
-0.0
 10
588.515625
 20
-0.0
 10
579.0234375
 20
-0.0
 10
569.53125
 20
-0.0
 10
560.0390625
 20
-0.0
 10
550.546875
 20
-0.0
 10
541.0546875
 20
-0.0
 10
531.5625
 20
-0.0
 10
522.0703125
 20
-0.0
 10
512.578125
 20
-0.0
 10
503.0859375
 20
-0.0
 10
493.59375
 20
-0.0
 10
484.1015625
 20
-0.0
 10
474.609375
 20
-0.0
 10
465.1171875
 20
-0.0
 10
455.625
 20
-0.0
 10
446.1328125
 20
-0.0
 10
436.640625
 20
-0.0
 10
427.1484375
 20
-0.0
 10
417.65625
 20
-0.0
 10
408.1640625
 20
-0.0
 10
398.671875
 20
-0.0
 10
389.1796875
 20
-0.0
 10
379.6875
 20
-0.0
 10
370.1953125
 20
-0.0
 10
360.703125
 20
-0.0
 10
351.2109375
 20
-0.0
 10
341.71875
 20
-0.0
 10
332.2265625
 20
-0.0
 10
322.734375
 20
-0.0
 10
313.2421875
 20
-0.0
 10
303.75
 20
-0.0
 10
294.2578125
 20
-0.0
 10
284.765625
 20
-0.0
 10
275.2734375
 20
-0.0
 10
265.78125
 20
-0.0
 10
256.2890625
 20
-0.0
 10
246.796875
 20
-0.0
 10
237.3046875
 20
-0.0
 10
227.8125
 20
-0.0
 10
218.3203125
 20
-0.0
 10
208.828125
 20
-0.0
 10
199.3359375
 20
-0.0
 10
189.84375
 20
-0.0
 10
180.3515625
 20
-0.0
 10
170.859375
 20
-0.0
 10
161.3671875
 20
-0.0
 10
151.875
 20
-0.0
 10
142.3828125
 20
-0.0
 10
132.890625
 20
-0.0
 10
123.3984375
 20
-0.0
 10
113.90625
 20
-0.0
 10
104.4140625
 20
-0.0
 10
94.921875
 20
-0.0
 10
85.4296875
 20
-0.0
 10
75.9375
 20
-0.0
 10
66.4453125
 20
-0.0
 10
56.953125
 20
-0.0
 10
47.4609375
 20
-0.0
 10
37.96875
 20
-0.0
 10
28.4765625
 20
-0.0
 10
18.984375
 20
-0.0
 10
9.4921875
 20
-0.0
  0
LWPOLYLINE
  5
49
330
17
100
AcDbEntity
  8
substrate
100
AcDbPolyline
 90
6
 70
1
 43
0.5
 10
3958.2421875
 20
-3531.09375
 10
3967.734375
 20
-3521.6015625
 10
3977.2265625
 20
-3531.09375
 10
3977.2265625
 20
-3540.5859375
 10
3967.734375
 20
-3550.078125
 10
3958.2421875
 20
-3540.5859375
  0
LWPOLYLINE
  5
4A
330
17
100
AcDbEntity
  8
substrate
100
AcDbPolyline
 90
1547
 70
1
 43
0.5
 10
1822.5
 20
-588.515625
 10
1831.9921875
 20
-579.0234375
 10
1841.484375
 20
-579.0234375
 10
1850.9765625
 20
-579.0234375
 10
1860.46875
 20
-579.0234375
 10
1869.9609375
 20
-579.0234375
 10
1879.453125
 20
-579.0234375
 10
1888.9453125
 20
-579.0234375
 10
1898.4375
 20
-579.0234375
 10
1907.9296875
 20
-579.0234375
 10
1917.421875
 20
-579.0234375
 10
1926.9140625
 20
-579.0234375
 10
1936.40625
 20
-588.515625
 10
1945.8984375
 20
-588.515625
 10
1955.390625
 20
-588.515625
 10
1964.8828125
 20
-588.515625
 10
1974.375
 20
-588.515625
 10
1983.8671875
 20
-588.515625
 10
1993.359375
 20
-579.0234375
 10
2002.8515625
 20
-579.0234375
 10
2012.34375
 20
-579.0234375
 10
2021.8359375
 20
-579.0234375
 10
2031.328125
 20
-579.0234375
 10
2040.8203125
 20
-579.0234375
 10
2050.3125
 20
-588.515625
 10
2059.8046875
 20
-588.515625
 10
2069.296875
 20
-588.515625
 10
2078.7890625
 20
-588.515625
 10
2088.28125
 20
-588.515625
 10
2097.7734375
 20
-588.515625
 10
2107.265625
 20
-588.515625
 10
2116.7578125
 20
-588.515625
 10
2126.25
 20
-579.0234375
 10
2135.7421875
 20
-588.515625
 10
2145.234375
 20
-579.0234375
 10
2154.7265625
 20
-579.0234375
 10
2164.21875
 20
-579.0234375
 10
2173.7109375
 20
-588.515625
 10
2183.203125
 20
-579.0234375
 10
2192.6953125
 20
-588.515625
 10
2202.1875
 20
-588.515625
 10
2211.6796875
 20
-588.515625
 10
2221.171875
 20
-588.515625
 10
2230.6640625
 20
-579.0234375
 10
2240.15625
 20
-579.0234375
 10
2249.6484375
 20
-579.0234375
 10
2259.140625
 20
-579.0234375
 10
2268.6328125
 20
-579.0234375
 10
2278.125
 20
-579.0234375
 10
2287.6171875
 20
-579.0234375
 10
2297.109375
 20
-579.0234375
 10
2306.6015625
 20
-579.0234375
 10
2316.09375
 20
-579.0234375
 10
2325.5859375
 20
-579.0234375
 10
2335.078125
 20
-579.0234375
 10
2344.5703125
 20
-579.0234375
 10
2354.0625
 20
-579.0234375
 10
2363.5546875
 20
-588.515625
 10
2373.046875
 20
-588.515625
 10
2382.5390625
 20
-588.515625
 10
2392.03125
 20
-588.515625
 10
2401.5234375
 20
-588.515625
 10
2411.015625
 20
-588.515625
 10
2420.5078125
 20
-588.515625
 10
2430.0
 20
-588.515625
 10
2439.4921875
 20
-588.515625
 10
2448.984375
 20
-579.0234375
 10
2458.4765625
 20
-579.0234375
 10
2467.96875
 20
-579.0234375
 10
2477.4609375
 20
-588.515625
 10
2486.953125
 20
-588.515625
 10
2496.4453125
 20
-588.515625
 10
2505.9375
 20
-588.515625
 10
2515.4296875
 20
-588.515625
 10
2524.921875
 20
-579.0234375
 10
2534.4140625
 20
-579.0234375
 10
2543.90625
 20
-579.0234375
 10
2553.3984375
 20
-579.0234375
 10
2562.890625
 20
-579.0234375
 10
2572.3828125
 20
-579.0234375
 10
2581.875
 20
-579.0234375
 10
2591.3671875
 20
-588.515625
 10
2600.859375
 20
-579.0234375
 10
2610.3515625
 20
-579.0234375
 10
2619.84375
 20
-588.515625
 10
2629.3359375
 20
-588.515625
 10
2638.828125
 20
-588.515625
 10
2648.3203125
 20
-588.515625
 10
2657.8125
 20
-588.515625
 10
2667.3046875
 20
-588.515625
 10
2676.796875
 20
-588.515625
 10
2686.2890625
 20
-588.515625
 10
2695.78125
 20
-588.515625
 10
2705.2734375
 20
-588.515625
 10
2714.765625
 20
-588.515625
 10
2724.2578125
 20
-588.515625
 10
2733.75
 20
-588.515625
 10
2743.2421875
 20
-588.515625
 10
2752.734375
 20
-588.515625
 10
2762.2265625
 20
-588.515625
 10
2771.71875
 20
-588.515625
 10
2781.2109375
 20
-588.515625
 10
2790.703125
 20
-588.515625
 10
2800.1953125
 20
-588.515625
 10
2809.6875
 20
-588.515625
 10
2819.1796875
 20
-579.0234375
 10
2828.671875
 20
-579.0234375
 10
2838.1640625
 20
-579.0234375
 10
2847.65625
 20
-588.515625
 10
2857.1484375
 20
-588.515625
 10
2866.640625
 20
-588.515625
 10
2876.1328125
 20
-588.515625
 10
2885.625
 20
-579.0234375
 10
2895.1171875
 20
-588.515625
 10
2904.609375
 20
-579.0234375
 10
2914.1015625
 20
-579.0234375
 10
2923.59375
 20
-579.0234375
 10
2933.0859375
 20
-579.0234375
 10
2942.578125
 20
-579.0234375
 10
2952.0703125
 20
-579.0234375
 10
2961.5625
 20
-579.0234375
 10
2971.0546875
 20
-579.0234375
 10
2980.546875
 20
-579.0234375
 10
2990.0390625
 20
-579.0234375
 10
2999.53125
 20
-579.0234375
 10
3009.0234375
 20
-579.0234375
 10
3018.515625
 20
-579.0234375
 10
3028.0078125
 20
-579.0234375
 10
3037.5
 20
-579.0234375
 10
3046.9921875
 20
-588.515625
 10
3056.484375
 20
-579.0234375
 10
3065.9765625
 20
-588.515625
 10
3075.46875
 20
-588.515625
 10
3084.9609375
 20
-598.0078125
 10
3084.9609375
 20
-607.5
 10
3084.9609375
 20
-616.9921875
 10
3075.46875
 20
-626.484375
 10
3075.46875
 20
-635.9765625
 10
3065.9765625
 20
-645.46875
 10
3065.9765625
 20
-654.9609375
 10
3065.9765625
 20
-664.453125
 10
3056.484375
 20
-673.9453125
 10
3065.9765625
 20
-683.4375
 10
3056.484375
 20
-692.9296875
 10
3065.9765625
 20
-702.421875
 10
3065.9765625
 20
-711.9140625
 10
3065.9765625
 20
-721.40625
 10
3065.9765625
 20
-730.8984375
 10
3065.9765625
 20
-740.390625
 10
3065.9765625
 20
-749.8828125
 10
3065.9765625
 20
-759.375
 10
3065.9765625
 20
-768.8671875
 10
3065.9765625
 20
-778.359375
 10
3065.9765625
 20
-787.8515625
 10
3056.484375
 20
-797.34375
 10
3056.484375
 20
-806.8359375
 10
3056.484375
 20
-816.328125
 10
3056.484375
 20
-825.8203125
 10
3056.484375
 20
-835.3125
 10
3056.484375
 20
-844.8046875
 10
3056.484375
 20
-854.296875
 10
3056.484375
 20
-863.7890625
 10
3056.484375
 20
-873.28125
 10
3056.484375
 20
-882.7734375
 10
3056.484375
 20
-892.265625
 10
3056.484375
 20
-901.7578125
 10
3056.484375
 20
-911.25
 10
3056.484375
 20
-920.7421875
 10
3056.484375
 20
-930.234375
 10
3056.484375
 20
-939.7265625
 10
3056.484375
 20
-949.21875
 10
3056.484375
 20
-958.7109375
 10
3056.484375
 20
-968.203125
 10
3056.484375
 20
-977.6953125
 10
3056.484375
 20
-987.1875
 10
3056.484375
 20
-996.6796875
 10
3056.484375
 20
-1006.171875
 10
3056.484375
 20
-1015.6640625
 10
3056.484375
 20
-1025.15625
 10
3056.484375
 20
-1034.6484375
 10
3056.484375
 20
-1044.140625
 10
3056.484375
 20
-1053.6328125
 10
3056.484375
 20
-1063.125
 10
3056.484375
 20
-1072.6171875
 10
3056.484375
 20
-1082.109375
 10
3056.484375
 20
-1091.6015625
 10
3056.484375
 20
-1101.09375
 10
3056.484375
 20
-1110.5859375
 10
3056.484375
 20
-1120.078125
 10
3056.484375
 20
-1129.5703125
 10
3056.484375
 20
-1139.0625
 10
3056.484375
 20
-1148.5546875
 10
3056.484375
 20
-1158.046875
 10
3056.484375
 20
-1167.5390625
 10
3056.484375
 20
-1177.03125
 10
3056.484375
 20
-1186.5234375
 10
3056.484375
 20
-1196.015625
 10
3056.484375
 20
-1205.5078125
 10
3056.484375
 20
-1215.0
 10
3056.484375
 20
-1224.4921875
 10
3065.9765625
 20
-1233.984375
 10
3056.484375
 20
-1243.4765625
 10
3056.484375
 20
-1252.96875
 10
3056.484375
 20
-1262.4609375
 10
3056.484375
 20
-1271.953125
 10
3056.484375
 20
-1281.4453125
 10
3056.484375
 20
-1290.9375
 10
3056.484375
 20
-1300.4296875
 10
3056.484375
 20
-1309.921875
 10
3056.484375
 20
-1319.4140625
 10
3056.484375
 20
-1328.90625
 10
3056.484375
 20
-1338.3984375
 10
3056.484375
 20
-1347.890625
 10
3056.484375
 20
-1357.3828125
 10
3056.484375
 20
-1366.875
 10
3056.484375
 20
-1376.3671875
 10
3056.484375
 20
-1385.859375
 10
3056.484375
 20
-1395.3515625
 10
3056.484375
 20
-1404.84375
 10
3056.484375
 20
-1414.3359375
 10
3056.484375
 20
-1423.828125
 10
3056.484375
 20
-1433.3203125
 10
3056.484375
 20
-1442.8125
 10
3056.484375
 20
-1452.3046875
 10
3056.484375
 20
-1461.796875
 10
3056.484375
 20
-1471.2890625
 10
3056.484375
 20
-1480.78125
 10
3056.484375
 20
-1490.2734375
 10
3056.484375
 20
-1499.765625
 10
3056.484375
 20
-1509.2578125
 10
3056.484375
 20
-1518.75
 10
3056.484375
 20
-1528.2421875
 10
3056.484375
 20
-1537.734375
 10
3056.484375
 20
-1547.2265625
 10
3056.484375
 20
-1556.71875
 10
3056.484375
 20
-1566.2109375
 10
3056.484375
 20
-1575.703125
 10
3056.484375
 20
-1585.1953125
 10
3056.484375
 20
-1594.6875
 10
3056.484375
 20
-1604.1796875
 10
3056.484375
 20
-1613.671875
 10
3056.484375
 20
-1623.1640625
 10
3056.484375
 20
-1632.65625
 10
3056.484375
 20
-1642.1484375
 10
3056.484375
 20
-1651.640625
 10
3056.484375
 20
-1661.1328125
 10
3056.484375
 20
-1670.625
 10
3056.484375
 20
-1680.1171875
 10
3056.484375
 20
-1689.609375
 10
3056.484375
 20
-1699.1015625
 10
3056.484375
 20
-1708.59375
 10
3056.484375
 20
-1718.0859375
 10
3056.484375
 20
-1727.578125
 10
3056.484375
 20
-1737.0703125
 10
3056.484375
 20
-1746.5625
 10
3056.484375
 20
-1756.0546875
 10
3056.484375
 20
-1765.546875
 10
3056.484375
 20
-1775.0390625
 10
3056.484375
 20
-1784.53125
 10
3065.9765625
 20
-1794.0234375
 10
3075.46875
 20
-1794.0234375
 10
3084.9609375
 20
-1794.0234375
 10
3094.453125
 20
-1794.0234375
 10
3103.9453125
 20
-1794.0234375
 10
3113.4375
 20
-1794.0234375
 10
3122.9296875
 20
-1794.0234375
 10
3132.421875
 20
-1794.0234375
 10
3141.9140625
 20
-1794.0234375
 10
3151.40625
 20
-1794.0234375
 10
3160.8984375
 20
-1794.0234375
 10
3170.390625
 20
-1794.0234375
 10
3179.8828125
 20
-1794.0234375
 10
3189.375
 20
-1794.0234375
 10
3198.8671875
 20
-1794.0234375
 10
3208.359375
 20
-1794.0234375
 10
3217.8515625
 20
-1794.0234375
 10
3227.34375
 20
-1794.0234375
 10
3236.8359375
 20
-1794.0234375
 10
3246.328125
 20
-1794.0234375
 10
3255.8203125
 20
-1794.0234375
 10
3265.3125
 20
-1794.0234375
 10
3274.8046875
 20
-1794.0234375
 10
3284.296875
 20
-1794.0234375
 10
3293.7890625
 20
-1794.0234375
 10
3303.28125
 20
-1794.0234375
 10
3312.7734375
 20
-1794.0234375
 10
3322.265625
 20
-1794.0234375
 10
3331.7578125
 20
-1794.0234375
 10
3341.25
 20
-1794.0234375
 10
3350.7421875
 20
-1794.0234375
 10
3360.234375
 20
-1794.0234375
 10
3369.7265625
 20
-1794.0234375
 10
3379.21875
 20
-1794.0234375
 10
3388.7109375
 20
-1794.0234375
 10
3398.203125
 20
-1794.0234375
 10
3407.6953125
 20
-1794.0234375
 10
3417.1875
 20
-1794.0234375
 10
3426.6796875
 20
-1794.0234375
 10
3436.171875
 20
-1794.0234375
 10
3445.6640625
 20
-1794.0234375
 10
3455.15625
 20
-1794.0234375
 10
3464.6484375
 20
-1794.0234375
 10
3474.140625
 20
-1794.0234375
 10
3483.6328125
 20
-1794.0234375
 10
3493.125
 20
-1794.0234375
 10
3502.6171875
 20
-1794.0234375
 10
3512.109375
 20
-1794.0234375
 10
3521.6015625
 20
-1794.0234375
 10
3531.09375
 20
-1794.0234375
 10
3540.5859375
 20
-1794.0234375
 10
3550.078125
 20
-1794.0234375
 10
3559.5703125
 20
-1794.0234375
 10
3569.0625
 20
-1794.0234375
 10
3578.5546875
 20
-1794.0234375
 10
3588.046875
 20
-1794.0234375
 10
3597.5390625
 20
-1794.0234375
 10
3607.03125
 20
-1794.0234375
 10
3616.5234375
 20
-1794.0234375
 10
3626.015625
 20
-1794.0234375
 10
3635.5078125
 20
-1794.0234375
 10
3645.0
 20
-1794.0234375
 10
3654.4921875
 20
-1794.0234375
 10
3663.984375
 20
-1794.0234375
 10
3673.4765625
 20
-1794.0234375
 10
3682.96875
 20
-1794.0234375
 10
3692.4609375
 20
-1794.0234375
 10
3701.953125
 20
-1794.0234375
 10
3711.4453125
 20
-1794.0234375
 10
3720.9375
 20
-1794.0234375
 10
3730.4296875
 20
-1794.0234375
 10
3739.921875
 20
-1794.0234375
 10
3749.4140625
 20
-1794.0234375
 10
3758.90625
 20
-1794.0234375
 10
3768.3984375
 20
-1794.0234375
 10
3777.890625
 20
-1794.0234375
 10
3787.3828125
 20
-1794.0234375
 10
3796.875
 20
-1794.0234375
 10
3806.3671875
 20
-1794.0234375
 10
3815.859375
 20
-1794.0234375
 10
3825.3515625
 20
-1784.53125
 10
3834.84375
 20
-1794.0234375
 10
3844.3359375
 20
-1794.0234375
 10
3853.828125
 20
-1794.0234375
 10
3863.3203125
 20
-1794.0234375
 10
3872.8125
 20
-1794.0234375
 10
3882.3046875
 20
-1794.0234375
 10
3891.796875
 20
-1794.0234375
 10
3901.2890625
 20
-1794.0234375
 10
3910.78125
 20
-1794.0234375
 10
3920.2734375
 20
-1794.0234375
 10
3929.765625
 20
-1794.0234375
 10
3939.2578125
 20
-1794.0234375
 10
3948.75
 20
-1794.0234375
 10
3958.2421875
 20
-1794.0234375
 10
3967.734375
 20
-1794.0234375
 10
3977.2265625
 20
-1794.0234375
 10
3986.71875
 20
-1794.0234375
 10
3996.2109375
 20
-1794.0234375
 10
4005.703125
 20
-1794.0234375
 10
4015.1953125
 20
-1794.0234375
 10
4024.6875
 20
-1794.0234375
 10
4034.1796875
 20
-1794.0234375
 10
4043.671875
 20
-1794.0234375
 10
4053.1640625
 20
-1794.0234375
 10
4062.65625
 20
-1794.0234375
 10
4072.1484375
 20
-1794.0234375
 10
4081.640625
 20
-1794.0234375
 10
4091.1328125
 20
-1794.0234375
 10
4100.625
 20
-1794.0234375
 10
4110.1171875
 20
-1784.53125
 10
4119.609375
 20
-1784.53125
 10
4129.1015625
 20
-1784.53125
 10
4138.59375
 20
-1794.0234375
 10
4148.0859375
 20
-1794.0234375
 10
4157.578125
 20
-1794.0234375
 10
4167.0703125
 20
-1794.0234375
 10
4176.5625
 20
-1784.53125
 10
4186.0546875
 20
-1784.53125
 10
4195.546875
 20
-1784.53125
 10
4205.0390625
 20
-1784.53125
 10
4214.53125
 20
-1784.53125
 10
4224.0234375
 20
-1775.0390625
 10
4233.515625
 20
-1775.0390625
 10
4243.0078125
 20
-1775.0390625
 10
4252.5
 20
-1784.53125
 10
4261.9921875
 20
-1794.0234375
 10
4271.484375
 20
-1803.515625
 10
4271.484375
 20
-1813.0078125
 10
4271.484375
 20
-1822.5
 10
4271.484375
 20
-1831.9921875
 10
4271.484375
 20
-1841.484375
 10
4271.484375
 20
-1850.9765625
 10
4271.484375
 20
-1860.46875
 10
4271.484375
 20
-1869.9609375
 10
4271.484375
 20
-1879.453125
 10
4271.484375
 20
-1888.9453125
 10
4271.484375
 20
-1898.4375
 10
4271.484375
 20
-1907.9296875
 10
4271.484375
 20
-1917.421875
 10
4271.484375
 20
-1926.9140625
 10
4271.484375
 20
-1936.40625
 10
4271.484375
 20
-1945.8984375
 10
4271.484375
 20
-1955.390625
 10
4271.484375
 20
-1964.8828125
 10
4271.484375
 20
-1974.375
 10
4271.484375
 20
-1983.8671875
 10
4271.484375
 20
-1993.359375
 10
4271.484375
 20
-2002.8515625
 10
4271.484375
 20
-2012.34375
 10
4271.484375
 20
-2021.8359375
 10
4271.484375
 20
-2031.328125
 10
4271.484375
 20
-2040.8203125
 10
4271.484375
 20
-2050.3125
 10
4271.484375
 20
-2059.8046875
 10
4271.484375
 20
-2069.296875
 10
4271.484375
 20
-2078.7890625
 10
4271.484375
 20
-2088.28125
 10
4271.484375
 20
-2097.7734375
 10
4271.484375
 20
-2107.265625
 10
4271.484375
 20
-2116.7578125
 10
4271.484375
 20
-2126.25
 10
4271.484375
 20
-2135.7421875
 10
4271.484375
 20
-2145.234375
 10
4271.484375
 20
-2154.7265625
 10
4271.484375
 20
-2164.21875
 10
4271.484375
 20
-2173.7109375
 10
4271.484375
 20
-2183.203125
 10
4271.484375
 20
-2192.6953125
 10
4271.484375
 20
-2202.1875
 10
4271.484375
 20
-2211.6796875
 10
4271.484375
 20
-2221.171875
 10
4271.484375
 20
-2230.6640625
 10
4271.484375
 20
-2240.15625
 10
4271.484375
 20
-2249.6484375
 10
4271.484375
 20
-2259.140625
 10
4271.484375
 20
-2268.6328125
 10
4271.484375
 20
-2278.125
 10
4271.484375
 20
-2287.6171875
 10
4271.484375
 20
-2297.109375
 10
4271.484375
 20
-2306.6015625
 10
4271.484375
 20
-2316.09375
 10
4271.484375
 20
-2325.5859375
 10
4271.484375
 20
-2335.078125
 10
4271.484375
 20
-2344.5703125
 10
4271.484375
 20
-2354.0625
 10
4271.484375
 20
-2363.5546875
 10
4271.484375
 20
-2373.046875
 10
4271.484375
 20
-2382.5390625
 10
4271.484375
 20
-2392.03125
 10
4271.484375
 20
-2401.5234375
 10
4271.484375
 20
-2411.015625
 10
4271.484375
 20
-2420.5078125
 10
4271.484375
 20
-2430.0
 10
4271.484375
 20
-2439.4921875
 10
4271.484375
 20
-2448.984375
 10
4271.484375
 20
-2458.4765625
 10
4271.484375
 20
-2467.96875
 10
4271.484375
 20
-2477.4609375
 10
4261.9921875
 20
-2486.953125
 10
4271.484375
 20
-2496.4453125
 10
4261.9921875
 20
-2505.9375
 10
4271.484375
 20
-2515.4296875
 10
4261.9921875
 20
-2524.921875
 10
4271.484375
 20
-2534.4140625
 10
4261.9921875
 20
-2543.90625
 10
4261.9921875
 20
-2553.3984375
 10
4261.9921875
 20
-2562.890625
 10
4261.9921875
 20
-2572.3828125
 10
4261.9921875
 20
-2581.875
 10
4261.9921875
 20
-2591.3671875
 10
4261.9921875
 20
-2600.859375
 10
4261.9921875
 20
-2610.3515625
 10
4261.9921875
 20
-2619.84375
 10
4261.9921875
 20
-2629.3359375
 10
4261.9921875
 20
-2638.828125
 10
4261.9921875
 20
-2648.3203125
 10
4261.9921875
 20
-2657.8125
 10
4261.9921875
 20
-2667.3046875
 10
4261.9921875
 20
-2676.796875
 10
4261.9921875
 20
-2686.2890625
 10
4261.9921875
 20
-2695.78125
 10
4261.9921875
 20
-2705.2734375
 10
4261.9921875
 20
-2714.765625
 10
4261.9921875
 20
-2724.2578125
 10
4261.9921875
 20
-2733.75
 10
4271.484375
 20
-2743.2421875
 10
4261.9921875
 20
-2752.734375
 10
4271.484375
 20
-2762.2265625
 10
4271.484375
 20
-2771.71875
 10
4271.484375
 20
-2781.2109375
 10
4271.484375
 20
-2790.703125
 10
4271.484375
 20
-2800.1953125
 10
4271.484375
 20
-2809.6875
 10
4271.484375
 20
-2819.1796875
 10
4271.484375
 20
-2828.671875
 10
4271.484375
 20
-2838.1640625
 10
4271.484375
 20
-2847.65625
 10
4271.484375
 20
-2857.1484375
 10
4271.484375
 20
-2866.640625
 10
4271.484375
 20
-2876.1328125
 10
4271.484375
 20
-2885.625
 10
4271.484375
 20
-2895.1171875
 10
4271.484375
 20
-2904.609375
 10
4271.484375
 20
-2914.1015625
 10
4271.484375
 20
-2923.59375
 10
4271.484375
 20
-2933.0859375
 10
4271.484375
 20
-2942.578125
 10
4271.484375
 20
-2952.0703125
 10
4271.484375
 20
-2961.5625
 10
4271.484375
 20
-2971.0546875
 10
4271.484375
 20
-2980.546875
 10
4271.484375
 20
-2990.0390625
 10
4271.484375
 20
-2999.53125
 10
4271.484375
 20
-3009.0234375
 10
4271.484375
 20
-3018.515625
 10
4271.484375
 20
-3028.0078125
 10
4261.9921875
 20
-3037.5
 10
4261.9921875
 20
-3046.9921875
 10
4252.5
 20
-3056.484375
 10
4243.0078125
 20
-3065.9765625
 10
4233.515625
 20
-3065.9765625
 10
4224.0234375
 20
-3065.9765625
 10
4214.53125
 20
-3065.9765625
 10
4205.0390625
 20
-3065.9765625
 10
4195.546875
 20
-3065.9765625
 10
4186.0546875
 20
-3056.484375
 10
4176.5625
 20
-3056.484375
 10
4167.0703125
 20
-3065.9765625
 10
4157.578125
 20
-3056.484375
 10
4148.0859375
 20
-3065.9765625
 10
4138.59375
 20
-3065.9765625
 10
4129.1015625
 20
-3065.9765625
 10
4119.609375
 20
-3065.9765625
 10
4110.1171875
 20
-3065.9765625
 10
4100.625
 20
-3065.9765625
 10
4091.1328125
 20
-3065.9765625
 10
4081.640625
 20
-3065.9765625
 10
4072.1484375
 20
-3065.9765625
 10
4062.65625
 20
-3065.9765625
 10
4053.1640625
 20
-3065.9765625
 10
4043.671875
 20
-3065.9765625
 10
4034.1796875
 20
-3065.9765625
 10
4024.6875
 20
-3065.9765625
 10
4015.1953125
 20
-3065.9765625
 10
4005.703125
 20
-3065.9765625
 10
3996.2109375
 20
-3065.9765625
 10
3986.71875
 20
-3065.9765625
 10
3977.2265625
 20
-3065.9765625
 10
3967.734375
 20
-3065.9765625
 10
3958.2421875
 20
-3065.9765625
 10
3948.75
 20
-3065.9765625
 10
3939.2578125
 20
-3065.9765625
 10
3929.765625
 20
-3056.484375
 10
3920.2734375
 20
-3065.9765625
 10
3910.78125
 20
-3065.9765625
 10
3901.2890625
 20
-3065.9765625
 10
3891.796875
 20
-3065.9765625
 10
3882.3046875
 20
-3065.9765625
 10
3872.8125
 20
-3065.9765625
 10
3863.3203125
 20
-3065.9765625
 10
3853.828125
 20
-3065.9765625
 10
3844.3359375
 20
-3065.9765625
 10
3834.84375
 20
-3065.9765625
 10
3825.3515625
 20
-3065.9765625
 10
3815.859375
 20
-3065.9765625
 10
3806.3671875
 20
-3065.9765625
 10
3796.875
 20
-3065.9765625
 10
3787.3828125
 20
-3065.9765625
 10
3777.890625
 20
-3065.9765625
 10
3768.3984375
 20
-3065.9765625
 10
3758.90625
 20
-3065.9765625
 10
3749.4140625
 20
-3065.9765625
 10
3739.921875
 20
-3065.9765625
 10
3730.4296875
 20
-3065.9765625
 10
3720.9375
 20
-3065.9765625
 10
3711.4453125
 20
-3065.9765625
 10
3701.953125
 20
-3056.484375
 10
3692.4609375
 20
-3065.9765625
 10
3682.96875
 20
-3065.9765625
 10
3673.4765625
 20
-3065.9765625
 10
3663.984375
 20
-3065.9765625
 10
3654.4921875
 20
-3065.9765625
 10
3645.0
 20
-3065.9765625
 10
3635.5078125
 20
-3065.9765625
 10
3626.015625
 20
-3065.9765625
 10
3616.5234375
 20
-3065.9765625
 10
3607.03125
 20
-3056.484375
 10
3597.5390625
 20
-3065.9765625
 10
3588.046875
 20
-3056.484375
 10
3578.5546875
 20
-3056.484375
 10
3569.0625
 20
-3065.9765625
 10
3559.5703125
 20
-3065.9765625
 10
3550.078125
 20
-3065.9765625
 10
3540.5859375
 20
-3065.9765625
 10
3531.09375
 20
-3065.9765625
 10
3521.6015625
 20
-3065.9765625
 10
3512.109375
 20
-3065.9765625
 10
3502.6171875
 20
-3065.9765625
 10
3493.125
 20
-3065.9765625
 10
3483.6328125
 20
-3065.9765625
 10
3474.140625
 20
-3065.9765625
 10
3464.6484375
 20
-3065.9765625
 10
3455.15625
 20
-3065.9765625
 10
3445.6640625
 20
-3065.9765625
 10
3436.171875
 20
-3065.9765625
 10
3426.6796875
 20
-3065.9765625
 10
3417.1875
 20
-3065.9765625
 10
3407.6953125
 20
-3065.9765625
 10
3398.203125
 20
-3065.9765625
 10
3388.7109375
 20
-3065.9765625
 10
3379.21875
 20
-3056.484375
 10
3369.7265625
 20
-3056.484375
 10
3360.234375
 20
-3056.484375
 10
3350.7421875
 20
-3056.484375
 10
3341.25
 20
-3065.9765625
 10
3331.7578125
 20
-3065.9765625
 10
3322.265625
 20
-3065.9765625
 10
3312.7734375
 20
-3065.9765625
 10
3303.28125
 20
-3065.9765625
 10
3293.7890625
 20
-3065.9765625
 10
3284.296875
 20
-3065.9765625
 10
3274.8046875
 20
-3065.9765625
 10
3265.3125
 20
-3065.9765625
 10
3255.8203125
 20
-3065.9765625
 10
3246.328125
 20
-3065.9765625
 10
3236.8359375
 20
-3065.9765625
 10
3227.34375
 20
-3065.9765625
 10
3217.8515625
 20
-3065.9765625
 10
3208.359375
 20
-3065.9765625
 10
3198.8671875
 20
-3065.9765625
 10
3189.375
 20
-3065.9765625
 10
3179.8828125
 20
-3065.9765625
 10
3170.390625
 20
-3065.9765625
 10
3160.8984375
 20
-3065.9765625
 10
3151.40625
 20
-3065.9765625
 10
3141.9140625
 20
-3065.9765625
 10
3132.421875
 20
-3065.9765625
 10
3122.9296875
 20
-3065.9765625
 10
3113.4375
 20
-3065.9765625
 10
3103.9453125
 20
-3065.9765625
 10
3094.453125
 20
-3065.9765625
 10
3084.9609375
 20
-3056.484375
 10
3075.46875
 20
-3056.484375
 10
3065.9765625
 20
-3065.9765625
 10
3056.484375
 20
-3065.9765625
 10
3056.484375
 20
-3075.46875
 10
3056.484375
 20
-3084.9609375
 10
3056.484375
 20
-3094.453125
 10
3056.484375
 20
-3103.9453125
 10
3056.484375
 20
-3113.4375
 10
3056.484375
 20
-3122.9296875
 10
3056.484375
 20
-3132.421875
 10
3056.484375
 20
-3141.9140625
 10
3056.484375
 20
-3151.40625
 10
3056.484375
 20
-3160.8984375
 10
3056.484375
 20
-3170.390625
 10
3056.484375
 20
-3179.8828125
 10
3065.9765625
 20
-3189.375
 10
3056.484375
 20
-3198.8671875
 10
3056.484375
 20
-3208.359375
 10
3056.484375
 20
-3217.8515625
 10
3065.9765625
 20
-3227.34375
 10
3056.484375
 20
-3236.8359375
 10
3056.484375
 20
-3246.328125
 10
3056.484375
 20
-3255.8203125
 10
3056.484375
 20
-3265.3125
 10
3056.484375
 20
-3274.8046875
 10
3056.484375
 20
-3284.296875
 10
3056.484375
 20
-3293.7890625
 10
3056.484375
 20
-3303.28125
 10
3056.484375
 20
-3312.7734375
 10
3056.484375
 20
-3322.265625
 10
3056.484375
 20
-3331.7578125
 10
3056.484375
 20
-3341.25
 10
3056.484375
 20
-3350.7421875
 10
3056.484375
 20
-3360.234375
 10
3056.484375
 20
-3369.7265625
 10
3056.484375
 20
-3379.21875
 10
3056.484375
 20
-3388.7109375
 10
3056.484375
 20
-3398.203125
 10
3056.484375
 20
-3407.6953125
 10
3056.484375
 20
-3417.1875
 10
3056.484375
 20
-3426.6796875
 10
3056.484375
 20
-3436.171875
 10
3056.484375
 20
-3445.6640625
 10
3056.484375
 20
-3455.15625
 10
3056.484375
 20
-3464.6484375
 10
3056.484375
 20
-3474.140625
 10
3056.484375
 20
-3483.6328125
 10
3056.484375
 20
-3493.125
 10
3056.484375
 20
-3502.6171875
 10
3056.484375
 20
-3512.109375
 10
3056.484375
 20
-3521.6015625
 10
3056.484375
 20
-3531.09375
 10
3056.484375
 20
-3540.5859375
 10
3056.484375
 20
-3550.078125
 10
3056.484375
 20
-3559.5703125
 10
3056.484375
 20
-3569.0625
 10
3056.484375
 20
-3578.5546875
 10
3056.484375
 20
-3588.046875
 10
3056.484375
 20
-3597.5390625
 10
3056.484375
 20
-3607.03125
 10
3056.484375
 20
-3616.5234375
 10
3056.484375
 20
-3626.015625
 10
3056.484375
 20
-3635.5078125
 10
3056.484375
 20
-3645.0
 10
3056.484375
 20
-3654.4921875
 10
3056.484375
 20
-3663.984375
 10
3056.484375
 20
-3673.4765625
 10
3056.484375
 20
-3682.96875
 10
3056.484375
 20
-3692.4609375
 10
3056.484375
 20
-3701.953125
 10
3056.484375
 20
-3711.4453125
 10
3056.484375
 20
-3720.9375
 10
3056.484375
 20
-3730.4296875
 10
3056.484375
 20
-3739.921875
 10
3056.484375
 20
-3749.4140625
 10
3056.484375
 20
-3758.90625
 10
3056.484375
 20
-3768.3984375
 10
3056.484375
 20
-3777.890625
 10
3056.484375
 20
-3787.3828125
 10
3056.484375
 20
-3796.875
 10
3056.484375
 20
-3806.3671875
 10
3056.484375
 20
-3815.859375
 10
3056.484375
 20
-3825.3515625
 10
3056.484375
 20
-3834.84375
 10
3056.484375
 20
-3844.3359375
 10
3056.484375
 20
-3853.828125
 10
3056.484375
 20
-3863.3203125
 10
3056.484375
 20
-3872.8125
 10
3056.484375
 20
-3882.3046875
 10
3056.484375
 20
-3891.796875
 10
3056.484375
 20
-3901.2890625
 10
3056.484375
 20
-3910.78125
 10
3056.484375
 20
-3920.2734375
 10
3056.484375
 20
-3929.765625
 10
3056.484375
 20
-3939.2578125
 10
3056.484375
 20
-3948.75
 10
3056.484375
 20
-3958.2421875
 10
3056.484375
 20
-3967.734375
 10
3056.484375
 20
-3977.2265625
 10
3056.484375
 20
-3986.71875
 10
3056.484375
 20
-3996.2109375
 10
3056.484375
 20
-4005.703125
 10
3056.484375
 20
-4015.1953125
 10
3056.484375
 20
-4024.6875
 10
3056.484375
 20
-4034.1796875
 10
3056.484375
 20
-4043.671875
 10
3056.484375
 20
-4053.1640625
 10
3056.484375
 20
-4062.65625
 10
3056.484375
 20
-4072.1484375
 10
3056.484375
 20
-4081.640625
 10
3056.484375
 20
-4091.1328125
 10
3056.484375
 20
-4100.625
 10
3056.484375
 20
-4110.1171875
 10
3056.484375
 20
-4119.609375
 10
3056.484375
 20
-4129.1015625
 10
3056.484375
 20
-4138.59375
 10
3056.484375
 20
-4148.0859375
 10
3056.484375
 20
-4157.578125
 10
3056.484375
 20
-4167.0703125
 10
3056.484375
 20
-4176.5625
 10
3056.484375
 20
-4186.0546875
 10
3056.484375
 20
-4195.546875
 10
3056.484375
 20
-4205.0390625
 10
3065.9765625
 20
-4214.53125
 10
3065.9765625
 20
-4224.0234375
 10
3075.46875
 20
-4233.515625
 10
3075.46875
 20
-4243.0078125
 10
3065.9765625
 20
-4252.5
 10
3056.484375
 20
-4261.9921875
 10
3046.9921875
 20
-4271.484375
 10
3037.5
 20
-4271.484375
 10
3028.0078125
 20
-4280.9765625
 10
3018.515625
 20
-4280.9765625
 10
3009.0234375
 20
-4280.9765625
 10
2999.53125
 20
-4280.9765625
 10
2990.0390625
 20
-4280.9765625
 10
2980.546875
 20
-4280.9765625
 10
2971.0546875
 20
-4280.9765625
 10
2961.5625
 20
-4280.9765625
 10
2952.0703125
 20
-4280.9765625
 10
2942.578125
 20
-4280.9765625
 10
2933.0859375
 20
-4280.9765625
 10
2923.59375
 20
-4280.9765625
 10
2914.1015625
 20
-4280.9765625
 10
2904.609375
 20
-4280.9765625
 10
2895.1171875
 20
-4280.9765625
 10
2885.625
 20
-4280.9765625
 10
2876.1328125
 20
-4280.9765625
 10
2866.640625
 20
-4280.9765625
 10
2857.1484375
 20
-4280.9765625
 10
2847.65625
 20
-4280.9765625
 10
2838.1640625
 20
-4280.9765625
 10
2828.671875
 20
-4280.9765625
 10
2819.1796875
 20
-4280.9765625
 10
2809.6875
 20
-4280.9765625
 10
2800.1953125
 20
-4280.9765625
 10
2790.703125
 20
-4280.9765625
 10
2781.2109375
 20
-4280.9765625
 10
2771.71875
 20
-4280.9765625
 10
2762.2265625
 20
-4280.9765625
 10
2752.734375
 20
-4280.9765625
 10
2743.2421875
 20
-4280.9765625
 10
2733.75
 20
-4280.9765625
 10
2724.2578125
 20
-4280.9765625
 10
2714.765625
 20
-4280.9765625
 10
2705.2734375
 20
-4280.9765625
 10
2695.78125
 20
-4280.9765625
 10
2686.2890625
 20
-4280.9765625
 10
2676.796875
 20
-4280.9765625
 10
2667.3046875
 20
-4280.9765625
 10
2657.8125
 20
-4280.9765625
 10
2648.3203125
 20
-4280.9765625
 10
2638.828125
 20
-4280.9765625
 10
2629.3359375
 20
-4280.9765625
 10
2619.84375
 20
-4280.9765625
 10
2610.3515625
 20
-4280.9765625
 10
2600.859375
 20
-4280.9765625
 10
2591.3671875
 20
-4280.9765625
 10
2581.875
 20
-4280.9765625
 10
2572.3828125
 20
-4280.9765625
 10
2562.890625
 20
-4280.9765625
 10
2553.3984375
 20
-4280.9765625
 10
2543.90625
 20
-4280.9765625
 10
2534.4140625
 20
-4280.9765625
 10
2524.921875
 20
-4280.9765625
 10
2515.4296875
 20
-4280.9765625
 10
2505.9375
 20
-4280.9765625
 10
2496.4453125
 20
-4280.9765625
 10
2486.953125
 20
-4280.9765625
 10
2477.4609375
 20
-4280.9765625
 10
2467.96875
 20
-4280.9765625
 10
2458.4765625
 20
-4280.9765625
 10
2448.984375
 20
-4280.9765625
 10
2439.4921875
 20
-4280.9765625
 10
2430.0
 20
-4280.9765625
 10
2420.5078125
 20
-4280.9765625
 10
2411.015625
 20
-4280.9765625
 10
2401.5234375
 20
-4280.9765625
 10
2392.03125
 20
-4280.9765625
 10
2382.5390625
 20
-4280.9765625
 10
2373.046875
 20
-4280.9765625
 10
2363.5546875
 20
-4280.9765625
 10
2354.0625
 20
-4280.9765625
 10
2344.5703125
 20
-4280.9765625
 10
2335.078125
 20
-4280.9765625
 10
2325.5859375
 20
-4280.9765625
 10
2316.09375
 20
-4280.9765625
 10
2306.6015625
 20
-4280.9765625
 10
2297.109375
 20
-4280.9765625
 10
2287.6171875
 20
-4280.9765625
 10
2278.125
 20
-4280.9765625
 10
2268.6328125
 20
-4280.9765625
 10
2259.140625
 20
-4280.9765625
 10
2249.6484375
 20
-4280.9765625
 10
2240.15625
 20
-4280.9765625
 10
2230.6640625
 20
-4280.9765625
 10
2221.171875
 20
-4280.9765625
 10
2211.6796875
 20
-4280.9765625
 10
2202.1875
 20
-4280.9765625
 10
2192.6953125
 20
-4280.9765625
 10
2183.203125
 20
-4280.9765625
 10
2173.7109375
 20
-4280.9765625
 10
2164.21875
 20
-4280.9765625
 10
2154.7265625
 20
-4280.9765625
 10
2145.234375
 20
-4280.9765625
 10
2135.7421875
 20
-4280.9765625
 10
2126.25
 20
-4280.9765625
 10
2116.7578125
 20
-4280.9765625
 10
2107.265625
 20
-4280.9765625
 10
2097.7734375
 20
-4280.9765625
 10
2088.28125
 20
-4280.9765625
 10
2078.7890625
 20
-4280.9765625
 10
2069.296875
 20
-4280.9765625
 10
2059.8046875
 20
-4280.9765625
 10
2050.3125
 20
-4280.9765625
 10
2040.8203125
 20
-4280.9765625
 10
2031.328125
 20
-4280.9765625
 10
2021.8359375
 20
-4280.9765625
 10
2012.34375
 20
-4280.9765625
 10
2002.8515625
 20
-4280.9765625
 10
1993.359375
 20
-4280.9765625
 10
1983.8671875
 20
-4280.9765625
 10
1974.375
 20
-4280.9765625
 10
1964.8828125
 20
-4280.9765625
 10
1955.390625
 20
-4280.9765625
 10
1945.8984375
 20
-4280.9765625
 10
1936.40625
 20
-4280.9765625
 10
1926.9140625
 20
-4280.9765625
 10
1917.421875
 20
-4280.9765625
 10
1907.9296875
 20
-4280.9765625
 10
1898.4375
 20
-4280.9765625
 10
1888.9453125
 20
-4280.9765625
 10
1879.453125
 20
-4280.9765625
 10
1869.9609375
 20
-4280.9765625
 10
1860.46875
 20
-4280.9765625
 10
1850.9765625
 20
-4280.9765625
 10
1841.484375
 20
-4280.9765625
 10
1831.9921875
 20
-4280.9765625
 10
1822.5
 20
-4280.9765625
 10
1813.0078125
 20
-4280.9765625
 10
1803.515625
 20
-4280.9765625
 10
1794.0234375
 20
-4280.9765625
 10
1784.53125
 20
-4271.484375
 10
1775.0390625
 20
-4261.9921875
 10
1765.546875
 20
-4252.5
 10
1775.0390625
 20
-4243.0078125
 10
1765.546875
 20
-4233.515625
 10
1775.0390625
 20
-4224.0234375
 10
1784.53125
 20
-4214.53125
 10
1784.53125
 20
-4205.0390625
 10
1784.53125
 20
-4195.546875
 10
1794.0234375
 20
-4186.0546875
 10
1794.0234375
 20
-4176.5625
 10
1794.0234375
 20
-4167.0703125
 10
1784.53125
 20
-4157.578125
 10
1784.53125
 20
-4148.0859375
 10
1784.53125
 20
-4138.59375
 10
1784.53125
 20
-4129.1015625
 10
1784.53125
 20
-4119.609375
 10
1784.53125
 20
-4110.1171875
 10
1784.53125
 20
-4100.625
 10
1784.53125
 20
-4091.1328125
 10
1784.53125
 20
-4081.640625
 10
1784.53125
 20
-4072.1484375
 10
1784.53125
 20
-4062.65625
 10
1784.53125
 20
-4053.1640625
 10
1784.53125
 20
-4043.671875
 10
1775.0390625
 20
-4034.1796875
 10
1784.53125
 20
-4024.6875
 10
1775.0390625
 20
-4015.1953125
 10
1775.0390625
 20
-4005.703125
 10
1775.0390625
 20
-3996.2109375
 10
1784.53125
 20
-3986.71875
 10
1775.0390625
 20
-3977.2265625
 10
1784.53125
 20
-3967.734375
 10
1784.53125
 20
-3958.2421875
 10
1784.53125
 20
-3948.75
 10
1784.53125
 20
-3939.2578125
 10
1784.53125
 20
-3929.765625
 10
1784.53125
 20
-3920.2734375
 10
1784.53125
 20
-3910.78125
 10
1775.0390625
 20
-3901.2890625
 10
1775.0390625
 20
-3891.796875
 10
1784.53125
 20
-3882.3046875
 10
1784.53125
 20
-3872.8125
 10
1784.53125
 20
-3863.3203125
 10
1784.53125
 20
-3853.828125
 10
1784.53125
 20
-3844.3359375
 10
1784.53125
 20
-3834.84375
 10
1784.53125
 20
-3825.3515625
 10
1784.53125
 20
-3815.859375
 10
1784.53125
 20
-3806.3671875
 10
1784.53125
 20
-3796.875
 10
1784.53125
 20
-3787.3828125
 10
1784.53125
 20
-3777.890625
 10
1784.53125
 20
-3768.3984375
 10
1784.53125
 20
-3758.90625
 10
1784.53125
 20
-3749.4140625
 10
1784.53125
 20
-3739.921875
 10
1784.53125
 20
-3730.4296875
 10
1784.53125
 20
-3720.9375
 10
1784.53125
 20
-3711.4453125
 10
1784.53125
 20
-3701.953125
 10
1784.53125
 20
-3692.4609375
 10
1784.53125
 20
-3682.96875
 10
1784.53125
 20
-3673.4765625
 10
1784.53125
 20
-3663.984375
 10
1784.53125
 20
-3654.4921875
 10
1784.53125
 20
-3645.0
 10
1784.53125
 20
-3635.5078125
 10
1784.53125
 20
-3626.015625
 10
1784.53125
 20
-3616.5234375
 10
1784.53125
 20
-3607.03125
 10
1784.53125
 20
-3597.5390625
 10
1784.53125
 20
-3588.046875
 10
1784.53125
 20
-3578.5546875
 10
1784.53125
 20
-3569.0625
 10
1784.53125
 20
-3559.5703125
 10
1784.53125
 20
-3550.078125
 10
1784.53125
 20
-3540.5859375
 10
1784.53125
 20
-3531.09375
 10
1784.53125
 20
-3521.6015625
 10
1784.53125
 20
-3512.109375
 10
1784.53125
 20
-3502.6171875
 10
1784.53125
 20
-3493.125
 10
1784.53125
 20
-3483.6328125
 10
1784.53125
 20
-3474.140625
 10
1784.53125
 20
-3464.6484375
 10
1784.53125
 20
-3455.15625
 10
1784.53125
 20
-3445.6640625
 10
1784.53125
 20
-3436.171875
 10
1784.53125
 20
-3426.6796875
 10
1784.53125
 20
-3417.1875
 10
1784.53125
 20
-3407.6953125
 10
1784.53125
 20
-3398.203125
 10
1784.53125
 20
-3388.7109375
 10
1784.53125
 20
-3379.21875
 10
1784.53125
 20
-3369.7265625
 10
1784.53125
 20
-3360.234375
 10
1784.53125
 20
-3350.7421875
 10
1784.53125
 20
-3341.25
 10
1784.53125
 20
-3331.7578125
 10
1784.53125
 20
-3322.265625
 10
1784.53125
 20
-3312.7734375
 10
1784.53125
 20
-3303.28125
 10
1784.53125
 20
-3293.7890625
 10
1784.53125
 20
-3284.296875
 10
1784.53125
 20
-3274.8046875
 10
1784.53125
 20
-3265.3125
 10
1784.53125
 20
-3255.8203125
 10
1784.53125
 20
-3246.328125
 10
1784.53125
 20
-3236.8359375
 10
1784.53125
 20
-3227.34375
 10
1784.53125
 20
-3217.8515625
 10
1784.53125
 20
-3208.359375
 10
1784.53125
 20
-3198.8671875
 10
1784.53125
 20
-3189.375
 10
1784.53125
 20
-3179.8828125
 10
1784.53125
 20
-3170.390625
 10
1784.53125
 20
-3160.8984375
 10
1784.53125
 20
-3151.40625
 10
1784.53125
 20
-3141.9140625
 10
1784.53125
 20
-3132.421875
 10
1784.53125
 20
-3122.9296875
 10
1784.53125
 20
-3113.4375
 10
1784.53125
 20
-3103.9453125
 10
1784.53125
 20
-3094.453125
 10
1784.53125
 20
-3084.9609375
 10
1775.0390625
 20
-3075.46875
 10
1765.546875
 20
-3065.9765625
 10
1756.0546875
 20
-3065.9765625
 10
1746.5625
 20
-3065.9765625
 10
1737.0703125
 20
-3065.9765625
 10
1727.578125
 20
-3065.9765625
 10
1718.0859375
 20
-3065.9765625
 10
1708.59375
 20
-3065.9765625
 10
1699.1015625
 20
-3075.46875
 10
1689.609375
 20
-3075.46875
 10
1680.1171875
 20
-3075.46875
 10
1670.625
 20
-3075.46875
 10
1661.1328125
 20
-3075.46875
 10
1651.640625
 20
-3075.46875
 10
1642.1484375
 20
-3075.46875
 10
1632.65625
 20
-3075.46875
 10
1623.1640625
 20
-3075.46875
 10
1613.671875
 20
-3075.46875
 10
1604.1796875
 20
-3075.46875
 10
1594.6875
 20
-3075.46875
 10
1585.1953125
 20
-3075.46875
 10
1575.703125
 20
-3075.46875
 10
1566.2109375
 20
-3075.46875
 10
1556.71875
 20
-3075.46875
 10
1547.2265625
 20
-3075.46875
 10
1537.734375
 20
-3075.46875
 10
1528.2421875
 20
-3075.46875
 10
1518.75
 20
-3065.9765625
 10
1509.2578125
 20
-3065.9765625
 10
1499.765625
 20
-3065.9765625
 10
1490.2734375
 20
-3065.9765625
 10
1480.78125
 20
-3065.9765625
 10
1471.2890625
 20
-3075.46875
 10
1461.796875
 20
-3075.46875
 10
1452.3046875
 20
-3075.46875
 10
1442.8125
 20
-3075.46875
 10
1433.3203125
 20
-3065.9765625
 10
1423.828125
 20
-3065.9765625
 10
1414.3359375
 20
-3075.46875
 10
1404.84375
 20
-3075.46875
 10
1395.3515625
 20
-3075.46875
 10
1385.859375
 20
-3065.9765625
 10
1376.3671875
 20
-3075.46875
 10
1366.875
 20
-3065.9765625
 10
1357.3828125
 20
-3065.9765625
 10
1347.890625
 20
-3065.9765625
 10
1338.3984375
 20
-3065.9765625
 10
1328.90625
 20
-3065.9765625
 10
1319.4140625
 20
-3075.46875
 10
1309.921875
 20
-3065.9765625
 10
1300.4296875
 20
-3065.9765625
 10
1290.9375
 20
-3065.9765625
 10
1281.4453125
 20
-3065.9765625
 10
1271.953125
 20
-3065.9765625
 10
1262.4609375
 20
-3065.9765625
 10
1252.96875
 20
-3065.9765625
 10
1243.4765625
 20
-3065.9765625
 10
1233.984375
 20
-3065.9765625
 10
1224.4921875
 20
-3065.9765625
 10
1215.0
 20
-3065.9765625
 10
1205.5078125
 20
-3065.9765625
 10
1196.015625
 20
-3065.9765625
 10
1186.5234375
 20
-3065.9765625
 10
1177.03125
 20
-3065.9765625
 10
1167.5390625
 20
-3065.9765625
 10
1158.046875
 20
-3065.9765625
 10
1148.5546875
 20
-3065.9765625
 10
1139.0625
 20
-3065.9765625
 10
1129.5703125
 20
-3065.9765625
 10
1120.078125
 20
-3065.9765625
 10
1110.5859375
 20
-3065.9765625
 10
1101.09375
 20
-3065.9765625
 10
1091.6015625
 20
-3065.9765625
 10
1082.109375
 20
-3065.9765625
 10
1072.6171875
 20
-3065.9765625
 10
1063.125
 20
-3065.9765625
 10
1053.6328125
 20
-3065.9765625
 10
1044.140625
 20
-3065.9765625
 10
1034.6484375
 20
-3065.9765625
 10
1025.15625
 20
-3065.9765625
 10
1015.6640625
 20
-3065.9765625
 10
1006.171875
 20
-3065.9765625
 10
996.6796875
 20
-3065.9765625
 10
987.1875
 20
-3065.9765625
 10
977.6953125
 20
-3065.9765625
 10
968.203125
 20
-3065.9765625
 10
958.7109375
 20
-3065.9765625
 10
949.21875
 20
-3065.9765625
 10
939.7265625
 20
-3065.9765625
 10
930.234375
 20
-3065.9765625
 10
920.7421875
 20
-3065.9765625
 10
911.25
 20
-3065.9765625
 10
901.7578125
 20
-3075.46875
 10
892.265625
 20
-3065.9765625
 10
882.7734375
 20
-3075.46875
 10
873.28125
 20
-3065.9765625
 10
863.7890625
 20
-3065.9765625
 10
854.296875
 20
-3065.9765625
 10
844.8046875
 20
-3065.9765625
 10
835.3125
 20
-3065.9765625
 10
825.8203125
 20
-3065.9765625
 10
816.328125
 20
-3065.9765625
 10
806.8359375
 20
-3065.9765625
 10
797.34375
 20
-3065.9765625
 10
787.8515625
 20
-3065.9765625
 10
778.359375
 20
-3065.9765625
 10
768.8671875
 20
-3075.46875
 10
759.375
 20
-3065.9765625
 10
749.8828125
 20
-3065.9765625
 10
740.390625
 20
-3065.9765625
 10
730.8984375
 20
-3065.9765625
 10
721.40625
 20
-3065.9765625
 10
711.9140625
 20
-3065.9765625
 10
702.421875
 20
-3065.9765625
 10
692.9296875
 20
-3065.9765625
 10
683.4375
 20
-3065.9765625
 10
673.9453125
 20
-3065.9765625
 10
664.453125
 20
-3065.9765625
 10
654.9609375
 20
-3065.9765625
 10
645.46875
 20
-3075.46875
 10
635.9765625
 20
-3075.46875
 10
626.484375
 20
-3075.46875
 10
616.9921875
 20
-3075.46875
 10
607.5
 20
-3075.46875
 10
598.0078125
 20
-3084.9609375
 10
588.515625
 20
-3075.46875
 10
579.0234375
 20
-3065.9765625
 10
579.0234375
 20
-3056.484375
 10
569.53125
 20
-3046.9921875
 10
569.53125
 20
-3037.5
 10
569.53125
 20
-3028.0078125
 10
569.53125
 20
-3018.515625
 10
569.53125
 20
-3009.0234375
 10
569.53125
 20
-2999.53125
 10
569.53125
 20
-2990.0390625
 10
569.53125
 20
-2980.546875
 10
569.53125
 20
-2971.0546875
 10
569.53125
 20
-2961.5625
 10
569.53125
 20
-2952.0703125
 10
569.53125
 20
-2942.578125
 10
569.53125
 20
-2933.0859375
 10
569.53125
 20
-2923.59375
 10
569.53125
 20
-2914.1015625
 10
569.53125
 20
-2904.609375
 10
569.53125
 20
-2895.1171875
 10
569.53125
 20
-2885.625
 10
569.53125
 20
-2876.1328125
 10
569.53125
 20
-2866.640625
 10
569.53125
 20
-2857.1484375
 10
569.53125
 20
-2847.65625
 10
569.53125
 20
-2838.1640625
 10
569.53125
 20
-2828.671875
 10
569.53125
 20
-2819.1796875
 10
569.53125
 20
-2809.6875
 10
569.53125
 20
-2800.1953125
 10
569.53125
 20
-2790.703125
 10
569.53125
 20
-2781.2109375
 10
569.53125
 20
-2771.71875
 10
569.53125
 20
-2762.2265625
 10
579.0234375
 20
-2752.734375
 10
579.0234375
 20
-2743.2421875
 10
569.53125
 20
-2733.75
 10
569.53125
 20
-2724.2578125
 10
569.53125
 20
-2714.765625
 10
569.53125
 20
-2705.2734375
 10
569.53125
 20
-2695.78125
 10
569.53125
 20
-2686.2890625
 10
569.53125
 20
-2676.796875
 10
569.53125
 20
-2667.3046875
 10
569.53125
 20
-2657.8125
 10
569.53125
 20
-2648.3203125
 10
569.53125
 20
-2638.828125
 10
569.53125
 20
-2629.3359375
 10
569.53125
 20
-2619.84375
 10
569.53125
 20
-2610.3515625
 10
569.53125
 20
-2600.859375
 10
569.53125
 20
-2591.3671875
 10
569.53125
 20
-2581.875
 10
569.53125
 20
-2572.3828125
 10
569.53125
 20
-2562.890625
 10
569.53125
 20
-2553.3984375
 10
569.53125
 20
-2543.90625
 10
569.53125
 20
-2534.4140625
 10
569.53125
 20
-2524.921875
 10
569.53125
 20
-2515.4296875
 10
569.53125
 20
-2505.9375
 10
569.53125
 20
-2496.4453125
 10
569.53125
 20
-2486.953125
 10
569.53125
 20
-2477.4609375
 10
569.53125
 20
-2467.96875
 10
569.53125
 20
-2458.4765625
 10
569.53125
 20
-2448.984375
 10
569.53125
 20
-2439.4921875
 10
569.53125
 20
-2430.0
 10
569.53125
 20
-2420.5078125
 10
569.53125
 20
-2411.015625
 10
569.53125
 20
-2401.5234375
 10
569.53125
 20
-2392.03125
 10
569.53125
 20
-2382.5390625
 10
579.0234375
 20
-2373.046875
 10
579.0234375
 20
-2363.5546875
 10
579.0234375
 20
-2354.0625
 10
579.0234375
 20
-2344.5703125
 10
579.0234375
 20
-2335.078125
 10
579.0234375
 20
-2325.5859375
 10
579.0234375
 20
-2316.09375
 10
569.53125
 20
-2306.6015625
 10
579.0234375
 20
-2297.109375
 10
569.53125
 20
-2287.6171875
 10
569.53125
 20
-2278.125
 10
569.53125
 20
-2268.6328125
 10
569.53125
 20
-2259.140625
 10
569.53125
 20
-2249.6484375
 10
569.53125
 20
-2240.15625
 10
569.53125
 20
-2230.6640625
 10
569.53125
 20
-2221.171875
 10
569.53125
 20
-2211.6796875
 10
569.53125
 20
-2202.1875
 10
569.53125
 20
-2192.6953125
 10
569.53125
 20
-2183.203125
 10
569.53125
 20
-2173.7109375
 10
569.53125
 20
-2164.21875
 10
569.53125
 20
-2154.7265625
 10
569.53125
 20
-2145.234375
 10
569.53125
 20
-2135.7421875
 10
569.53125
 20
-2126.25
 10
569.53125
 20
-2116.7578125
 10
579.0234375
 20
-2107.265625
 10
579.0234375
 20
-2097.7734375
 10
579.0234375
 20
-2088.28125
 10
569.53125
 20
-2078.7890625
 10
579.0234375
 20
-2069.296875
 10
579.0234375
 20
-2059.8046875
 10
579.0234375
 20
-2050.3125
 10
569.53125
 20
-2040.8203125
 10
579.0234375
 20
-2031.328125
 10
579.0234375
 20
-2021.8359375
 10
579.0234375
 20
-2012.34375
 10
569.53125
 20
-2002.8515625
 10
579.0234375
 20
-1993.359375
 10
579.0234375
 20
-1983.8671875
 10
579.0234375
 20
-1974.375
 10
579.0234375
 20
-1964.8828125
 10
579.0234375
 20
-1955.390625
 10
579.0234375
 20
-1945.8984375
 10
579.0234375
 20
-1936.40625
 10
579.0234375
 20
-1926.9140625
 10
579.0234375
 20
-1917.421875
 10
579.0234375
 20
-1907.9296875
 10
579.0234375
 20
-1898.4375
 10
579.0234375
 20
-1888.9453125
 10
579.0234375
 20
-1879.453125
 10
579.0234375
 20
-1869.9609375
 10
579.0234375
 20
-1860.46875
 10
579.0234375
 20
-1850.9765625
 10
579.0234375
 20
-1841.484375
 10
579.0234375
 20
-1831.9921875
 10
579.0234375
 20
-1822.5
 10
579.0234375
 20
-1813.0078125
 10
588.515625
 20
-1803.515625
 10
588.515625
 20
-1794.0234375
 10
598.0078125
 20
-1784.53125
 10
607.5
 20
-1775.0390625
 10
616.9921875
 20
-1775.0390625
 10
626.484375
 20
-1775.0390625
 10
635.9765625
 20
-1775.0390625
 10
645.46875
 20
-1784.53125
 10
654.9609375
 20
-1784.53125
 10
664.453125
 20
-1784.53125
 10
673.9453125
 20
-1784.53125
 10
683.4375
 20
-1784.53125
 10
692.9296875
 20
-1784.53125
 10
702.421875
 20
-1784.53125
 10
711.9140625
 20
-1784.53125
 10
721.40625
 20
-1784.53125
 10
730.8984375
 20
-1784.53125
 10
740.390625
 20
-1784.53125
 10
749.8828125
 20
-1784.53125
 10
759.375
 20
-1784.53125
 10
768.8671875
 20
-1784.53125
 10
778.359375
 20
-1784.53125
 10
787.8515625
 20
-1784.53125
 10
797.34375
 20
-1784.53125
 10
806.8359375
 20
-1784.53125
 10
816.328125
 20
-1794.0234375
 10
825.8203125
 20
-1794.0234375
 10
835.3125
 20
-1784.53125
 10
844.8046875
 20
-1784.53125
 10
854.296875
 20
-1784.53125
 10
863.7890625
 20
-1784.53125
 10
873.28125
 20
-1784.53125
 10
882.7734375
 20
-1784.53125
 10
892.265625
 20
-1794.0234375
 10
901.7578125
 20
-1794.0234375
 10
911.25
 20
-1784.53125
 10
920.7421875
 20
-1784.53125
 10
930.234375
 20
-1784.53125
 10
939.7265625
 20
-1784.53125
 10
949.21875
 20
-1784.53125
 10
958.7109375
 20
-1784.53125
 10
968.203125
 20
-1794.0234375
 10
977.6953125
 20
-1784.53125
 10
987.1875
 20
-1784.53125
 10
996.6796875
 20
-1784.53125
 10
1006.171875
 20
-1794.0234375
 10
1015.6640625
 20
-1794.0234375
 10
1025.15625
 20
-1794.0234375
 10
1034.6484375
 20
-1794.0234375
 10
1044.140625
 20
-1794.0234375
 10
1053.6328125
 20
-1794.0234375
 10
1063.125
 20
-1794.0234375
 10
1072.6171875
 20
-1794.0234375
 10
1082.109375
 20
-1794.0234375
 10
1091.6015625
 20
-1794.0234375
 10
1101.09375
 20
-1794.0234375
 10
1110.5859375
 20
-1794.0234375
 10
1120.078125
 20
-1794.0234375
 10
1129.5703125
 20
-1794.0234375
 10
1139.0625
 20
-1794.0234375
 10
1148.5546875
 20
-1794.0234375
 10
1158.046875
 20
-1794.0234375
 10
1167.5390625
 20
-1794.0234375
 10
1177.03125
 20
-1794.0234375
 10
1186.5234375
 20
-1794.0234375
 10
1196.015625
 20
-1794.0234375
 10
1205.5078125
 20
-1794.0234375
 10
1215.0
 20
-1794.0234375
 10
1224.4921875
 20
-1794.0234375
 10
1233.984375
 20
-1794.0234375
 10
1243.4765625
 20
-1794.0234375
 10
1252.96875
 20
-1794.0234375
 10
1262.4609375
 20
-1794.0234375
 10
1271.953125
 20
-1794.0234375
 10
1281.4453125
 20
-1794.0234375
 10
1290.9375
 20
-1794.0234375
 10
1300.4296875
 20
-1794.0234375
 10
1309.921875
 20
-1794.0234375
 10
1319.4140625
 20
-1794.0234375
 10
1328.90625
 20
-1794.0234375
 10
1338.3984375
 20
-1794.0234375
 10
1347.890625
 20
-1794.0234375
 10
1357.3828125
 20
-1794.0234375
 10
1366.875
 20
-1794.0234375
 10
1376.3671875
 20
-1794.0234375
 10
1385.859375
 20
-1794.0234375
 10
1395.3515625
 20
-1784.53125
 10
1404.84375
 20
-1794.0234375
 10
1414.3359375
 20
-1794.0234375
 10
1423.828125
 20
-1794.0234375
 10
1433.3203125
 20
-1794.0234375
 10
1442.8125
 20
-1794.0234375
 10
1452.3046875
 20
-1794.0234375
 10
1461.796875
 20
-1794.0234375
 10
1471.2890625
 20
-1794.0234375
 10
1480.78125
 20
-1794.0234375
 10
1490.2734375
 20
-1794.0234375
 10
1499.765625
 20
-1794.0234375
 10
1509.2578125
 20
-1794.0234375
 10
1518.75
 20
-1794.0234375
 10
1528.2421875
 20
-1794.0234375
 10
1537.734375
 20
-1794.0234375
 10
1547.2265625
 20
-1794.0234375
 10
1556.71875
 20
-1794.0234375
 10
1566.2109375
 20
-1794.0234375
 10
1575.703125
 20
-1794.0234375
 10
1585.1953125
 20
-1794.0234375
 10
1594.6875
 20
-1794.0234375
 10
1604.1796875
 20
-1794.0234375
 10
1613.671875
 20
-1794.0234375
 10
1623.1640625
 20
-1794.0234375
 10
1632.65625
 20
-1794.0234375
 10
1642.1484375
 20
-1794.0234375
 10
1651.640625
 20
-1794.0234375
 10
1661.1328125
 20
-1794.0234375
 10
1670.625
 20
-1794.0234375
 10
1680.1171875
 20
-1794.0234375
 10
1689.609375
 20
-1794.0234375
 10
1699.1015625
 20
-1794.0234375
 10
1708.59375
 20
-1794.0234375
 10
1718.0859375
 20
-1794.0234375
 10
1727.578125
 20
-1794.0234375
 10
1737.0703125
 20
-1794.0234375
 10
1746.5625
 20
-1794.0234375
 10
1756.0546875
 20
-1794.0234375
 10
1765.546875
 20
-1794.0234375
 10
1775.0390625
 20
-1794.0234375
 10
1784.53125
 20
-1794.0234375
 10
1794.0234375
 20
-1784.53125
 10
1794.0234375
 20
-1775.0390625
 10
1794.0234375
 20
-1765.546875
 10
1794.0234375
 20
-1756.0546875
 10
1794.0234375
 20
-1746.5625
 10
1794.0234375
 20
-1737.0703125
 10
1794.0234375
 20
-1727.578125
 10
1794.0234375
 20
-1718.0859375
 10
1794.0234375
 20
-1708.59375
 10
1794.0234375
 20
-1699.1015625
 10
1794.0234375
 20
-1689.609375
 10
1794.0234375
 20
-1680.1171875
 10
1784.53125
 20
-1670.625
 10
1794.0234375
 20
-1661.1328125
 10
1794.0234375
 20
-1651.640625
 10
1794.0234375
 20
-1642.1484375
 10
1784.53125
 20
-1632.65625
 10
1794.0234375
 20
-1623.1640625
 10
1794.0234375
 20
-1613.671875
 10
1794.0234375
 20
-1604.1796875
 10
1784.53125
 20
-1594.6875
 10
1784.53125
 20
-1585.1953125
 10
1784.53125
 20
-1575.703125
 10
1784.53125
 20
-1566.2109375
 10
1784.53125
 20
-1556.71875
 10
1784.53125
 20
-1547.2265625
 10
1794.0234375
 20
-1537.734375
 10
1784.53125
 20
-1528.2421875
 10
1784.53125
 20
-1518.75
 10
1784.53125
 20
-1509.2578125
 10
1784.53125
 20
-1499.765625
 10
1784.53125
 20
-1490.2734375
 10
1784.53125
 20
-1480.78125
 10
1794.0234375
 20
-1471.2890625
 10
1794.0234375
 20
-1461.796875
 10
1784.53125
 20
-1452.3046875
 10
1784.53125
 20
-1442.8125
 10
1784.53125
 20
-1433.3203125
 10
1784.53125
 20
-1423.828125
 10
1784.53125
 20
-1414.3359375
 10
1784.53125
 20
-1404.84375
 10
1794.0234375
 20
-1395.3515625
 10
1794.0234375
 20
-1385.859375
 10
1794.0234375
 20
-1376.3671875
 10
1784.53125
 20
-1366.875
 10
1784.53125
 20
-1357.3828125
 10
1784.53125
 20
-1347.890625
 10
1794.0234375
 20
-1338.3984375
 10
1794.0234375
 20
-1328.90625
 10
1794.0234375
 20
-1319.4140625
 10
1794.0234375
 20
-1309.921875
 10
1794.0234375
 20
-1300.4296875
 10
1794.0234375
 20
-1290.9375
 10
1794.0234375
 20
-1281.4453125
 10
1794.0234375
 20
-1271.953125
 10
1794.0234375
 20
-1262.4609375
 10
1794.0234375
 20
-1252.96875
 10
1794.0234375
 20
-1243.4765625
 10
1794.0234375
 20
-1233.984375
 10
1794.0234375
 20
-1224.4921875
 10
1794.0234375
 20
-1215.0
 10
1794.0234375
 20
-1205.5078125
 10
1794.0234375
 20
-1196.015625
 10
1794.0234375
 20
-1186.5234375
 10
1794.0234375
 20
-1177.03125
 10
1794.0234375
 20
-1167.5390625
 10
1794.0234375
 20
-1158.046875
 10
1794.0234375
 20
-1148.5546875
 10
1794.0234375
 20
-1139.0625
 10
1794.0234375
 20
-1129.5703125
 10
1794.0234375
 20
-1120.078125
 10
1794.0234375
 20
-1110.5859375
 10
1794.0234375
 20
-1101.09375
 10
1794.0234375
 20
-1091.6015625
 10
1794.0234375
 20
-1082.109375
 10
1794.0234375
 20
-1072.6171875
 10
1794.0234375
 20
-1063.125
 10
1794.0234375
 20
-1053.6328125
 10
1794.0234375
 20
-1044.140625
 10
1794.0234375
 20
-1034.6484375
 10
1794.0234375
 20
-1025.15625
 10
1794.0234375
 20
-1015.6640625
 10
1794.0234375
 20
-1006.171875
 10
1794.0234375
 20
-996.6796875
 10
1794.0234375
 20
-987.1875
 10
1794.0234375
 20
-977.6953125
 10
1794.0234375
 20
-968.203125
 10
1794.0234375
 20
-958.7109375
 10
1794.0234375
 20
-949.21875
 10
1794.0234375
 20
-939.7265625
 10
1794.0234375
 20
-930.234375
 10
1794.0234375
 20
-920.7421875
 10
1794.0234375
 20
-911.25
 10
1794.0234375
 20
-901.7578125
 10
1794.0234375
 20
-892.265625
 10
1794.0234375
 20
-882.7734375
 10
1794.0234375
 20
-873.28125
 10
1794.0234375
 20
-863.7890625
 10
1794.0234375
 20
-854.296875
 10
1794.0234375
 20
-844.8046875
 10
1784.53125
 20
-835.3125
 10
1784.53125
 20
-825.8203125
 10
1784.53125
 20
-816.328125
 10
1784.53125
 20
-806.8359375
 10
1784.53125
 20
-797.34375
 10
1794.0234375
 20
-787.8515625
 10
1794.0234375
 20
-778.359375
 10
1794.0234375
 20
-768.8671875
 10
1794.0234375
 20
-759.375
 10
1794.0234375
 20
-749.8828125
 10
1794.0234375
 20
-740.390625
 10
1794.0234375
 20
-730.8984375
 10
1794.0234375
 20
-721.40625
 10
1794.0234375
 20
-711.9140625
 10
1794.0234375
 20
-702.421875
 10
1794.0234375
 20
-692.9296875
 10
1794.0234375
 20
-683.4375
 10
1794.0234375
 20
-673.9453125
 10
1794.0234375
 20
-664.453125
 10
1784.53125
 20
-654.9609375
 10
1784.53125
 20
-645.46875
 10
1775.0390625
 20
-635.9765625
 10
1775.0390625
 20
-626.484375
 10
1775.0390625
 20
-616.9921875
 10
1775.0390625
 20
-607.5
 10
1775.0390625
 20
-598.0078125
 10
1784.53125
 20
-588.515625
 10
1794.0234375
 20
-588.515625
 10
1803.515625
 20
-588.515625
 10
1813.0078125
 20
-588.515625
  0
LWPOLYLINE
  5
4B
330
17
100
AcDbEntity
  8
substrate
100
AcDbPolyline
 90
2
 70
1
 43
0.5
 10
1917.421875
 20
-3141.9140625
 10
1917.421875
 20
-3151.40625
  0
LWPOLYLINE
  5
4C
330
17
100
AcDbEntity
  8
substrate
100
AcDbPolyline
 90
5
 70
1
 43
0.5
 10
3179.8828125
 20
-2040.8203125
 10
3170.390625
 20
-2050.3125
 10
3160.8984375
 20
-2050.3125
 10
3170.390625
 20
-2050.3125
 10
3179.8828125
 20
-2050.3125
  0
LWPOLYLINE
  5
4D
330
17
100
AcDbEntity
  8
substrate
100
AcDbPolyline
 90
1
 70
1
 43
0.5
 10
2790.703125
 20
-1442.8125
  0
LWPOLYLINE
  5
4E
330
17
100
AcDbEntity
  8
substrate
100
AcDbPolyline
 90
1
 70
1
 43
0.5
 10
2752.734375
 20
-1442.8125
  0
LWPOLYLINE
  5
4F
330
17
100
AcDbEntity
  8
substrate
100
AcDbPolyline
 90
1
 70
1
 43
0.5
 10
2714.765625
 20
-1442.8125
  0
LWPOLYLINE
  5
50
330
17
100
AcDbEntity
  8
substrate
100
AcDbPolyline
 90
1
 70
1
 43
0.5
 10
2790.703125
 20
-1404.84375
  0
LWPOLYLINE
  5
51
330
17
100
AcDbEntity
  8
substrate
100
AcDbPolyline
 90
1
 70
1
 43
0.5
 10
2771.71875
 20
-1404.84375
  0
LWPOLYLINE
  5
52
330
17
100
AcDbEntity
  8
substrate
100
AcDbPolyline
 90
1
 70
1
 43
0.5
 10
2752.734375
 20
-1404.84375
  0
ENDSEC
  0
SECTION
  2
OBJECTS
  0
DICTIONARY
  5
A
330
0
100
AcDbDictionary
280
0
281
1
  3
ACAD_COLOR
350
B
  3
ACAD_GROUP
350
C
  3
ACAD_LAYOUT
350
D
  3
ACAD_MATERIAL
350
E
  3
ACAD_MLEADERSTYLE
350
F
  3
ACAD_MLINESTYLE
350
10
  3
ACAD_PLOTSETTINGS
350
11
  3
ACAD_PLOTSTYLENAME
350
12
  3
ACAD_SCALELIST
350
14
  3
ACAD_TABLESTYLE
350
15
  3
ACAD_VISUALSTYLE
350
16
  3
EZDXF_META
350
2D
  0
DICTIONARY
  5
B
330
A
100
AcDbDictionary
280
0
281
1
  0
DICTIONARY
  5
C
330
A
100
AcDbDictionary
280
0
281
1
  0
DICTIONARY
  5
D
330
A
100
AcDbDictionary
280
0
281
1
  3
Model
350
1A
  3
Layout1
350
1E
  0
DICTIONARY
  5
E
330
A
100
AcDbDictionary
280
0
281
1
  3
ByBlock
350
1F
  3
ByLayer
350
20
  3
Global
350
21
  0
DICTIONARY
  5
F
330
A
100
AcDbDictionary
280
0
281
1
  3
Standard
350
2C
  0
DICTIONARY
  5
10
330
A
100
AcDbDictionary
280
0
281
1
  3
Standard
350
22
  0
DICTIONARY
  5
11
330
A
100
AcDbDictionary
280
0
281
1
  0
ACDBDICTIONARYWDFLT
  5
12
330
A
100
AcDbDictionary
280
0
281
1
  3
Normal
350
13
100
AcDbDictionaryWithDefault
340
13
  0
ACDBPLACEHOLDER
  5
13
330
12
  0
DICTIONARY
  5
14
330
A
100
AcDbDictionary
280
0
281
1
  0
DICTIONARY
  5
15
330
A
100
AcDbDictionary
280
0
281
1
  0
DICTIONARY
  5
16
330
A
100
AcDbDictionary
280
0
281
1
  0
LAYOUT
  5
1A
330
D
100
AcDbPlotSettings
  1

  2
Adobe PDF
  4
A3
  6

 40
7.5
 41
20.0
 42
7.5
 43
20.0
 44
420.0
 45
297.0
 46
0.0
 47
0.0
 48
0.0
 49
0.0
140
0.0
141
0.0
142
1.0
143
1.0
 70
1024
 72
1
 73
0
 74
5
  7

 75
16
 76
0
 77
2
 78
300
147
1.0
148
0.0
149
0.0
100
AcDbLayout
  1
Model
 70
1
 71
0
 10
0.0
 20
0.0
 11
420.0
 21
297.0
 12
0.0
 22
0.0
 32
0.0
 14
1e+20
 24
1e+20
 34
1e+20
 15
-1e+20
 25
-1e+20
 35
-1e+20
146
0.0
 13
0.0
 23
0.0
 33
0.0
 16
1.0
 26
0.0
 36
0.0
 17
0.0
 27
1.0
 37
0.0
 76
1
330
17
  0
LAYOUT
  5
1E
330
D
100
AcDbPlotSettings
  1

  2
Adobe PDF
  4
A3
  6

 40
7.5
 41
20.0
 42
7.5
 43
20.0
 44
420.0
 45
297.0
 46
0.0
 47
0.0
 48
0.0
 49
0.0
140
0.0
141
0.0
142
1.0
143
1.0
 70
0
 72
1
 73
0
 74
5
  7

 75
16
 76
0
 77
2
 78
300
147
1.0
148
0.0
149
0.0
100
AcDbLayout
  1
Layout1
 70
1
 71
1
 10
0.0
 20
0.0
 11
420.0
 21
297.0
 12
0.0
 22
0.0
 32
0.0
 14
1e+20
 24
1e+20
 34
1e+20
 15
-1e+20
 25
-1e+20
 35
-1e+20
146
0.0
 13
0.0
 23
0.0
 33
0.0
 16
1.0
 26
0.0
 36
0.0
 17
0.0
 27
1.0
 37
0.0
 76
1
330
1B
  0
MATERIAL
  5
1F
102
{ACAD_REACTORS
330
E
102
}
330
E
100
AcDbMaterial
  1
ByBlock
  2

 70
0
 40
1.0
 71
1
 41
1.0
 91
-1023410177
 42
1.0
 72
1
  3

 73
1
 74
1
 75
1
 44
0.5
 73
0
 45
1.0
 46
1.0
 77
1
  4

 78
1
 79
1
170
1
 48
1.0
171
1
  6

172
1
173
1
174
1
140
1.0
141
1.0
175
1
  7

176
1
177
1
178
1
143
1.0
179
1
  8

270
1
271
1
272
1
145
1.0
146
1.0
273
1
  9

274
1
275
1
276
1
 42
1.0
 72
1
  3

 73
1
 74
1
 75
1
 94
63
  0
MATERIAL
  5
20
102
{ACAD_REACTORS
330
E
102
}
330
E
100
AcDbMaterial
  1
ByLayer
  2

 70
0
 40
1.0
 71
1
 41
1.0
 91
-1023410177
 42
1.0
 72
1
  3

 73
1
 74
1
 75
1
 44
0.5
 73
0
 45
1.0
 46
1.0
 77
1
  4

 78
1
 79
1
170
1
 48
1.0
171
1
  6

172
1
173
1
174
1
140
1.0
141
1.0
175
1
  7

176
1
177
1
178
1
143
1.0
179
1
  8

270
1
271
1
272
1
145
1.0
146
1.0
273
1
  9

274
1
275
1
276
1
 42
1.0
 72
1
  3

 73
1
 74
1
 75
1
 94
63
  0
MATERIAL
  5
21
102
{ACAD_REACTORS
330
E
102
}
330
E
100
AcDbMaterial
  1
Global
  2

 70
0
 40
1.0
 71
1
 41
1.0
 91
-1023410177
 42
1.0
 72
1
  3

 73
1
 74
1
 75
1
 44
0.5
 73
0
 45
1.0
 46
1.0
 77
1
  4

 78
1
 79
1
170
1
 48
1.0
171
1
  6

172
1
173
1
174
1
140
1.0
141
1.0
175
1
  7

176
1
177
1
178
1
143
1.0
179
1
  8

270
1
271
1
272
1
145
1.0
146
1.0
273
1
  9

274
1
275
1
276
1
 42
1.0
 72
1
  3

 73
1
 74
1
 75
1
 94
63
  0
MLINESTYLE
  5
22
102
{ACAD_REACTORS
330
10
102
}
330
10
100
AcDbMlineStyle
  2
Standard
 70
0
  3

 62
256
 51
90.0
 52
90.0
 71
2
 49
0.5
 62
256
  6
BYLAYER
 49
-0.5
 62
256
  6
BYLAYER
  0
MLEADERSTYLE
  5
2C
102
{ACAD_REACTORS
330
F
102
}
330
F
100
AcDbMLeaderStyle
179
2
170
2
171
1
172
0
 90
2
 40
0.0
 41
0.0
173
1
 91
-1056964608
 92
-2
290
1
 42
2.0
291
1
 43
8.0
  3
Standard
 44
4.0
300

342
29
174
1
175
1
176
0
178
1
 93
-1056964608
 45
4.0
292
0
297
0
 46
4.0
 94
-1056964608
 47
1.0
 49
1.0
140
1.0
294
1
141
0.0
177
0
142
1.0
295
0
296
0
143
3.75
271
0
272
9
273
9
  0
DICTIONARY
  5
2D
330
A
100
AcDbDictionary
281
1
  3
CREATED_BY_EZDXF
350
2E
  3
WRITTEN_BY_EZDXF
350
55
  0
DICTIONARYVAR
  5
2E
330
2D
100
DictionaryVariables
280
0
  1
1.1.0 @ 2024-12-31T12:35:19.952650+00:00
  0
DICTIONARYVAR
  5
55
330
2D
100
DictionaryVariables
280
0
  1
1.1.0 @ 2024-12-31T12:35:19.962767+00:00
  0
ENDSEC
  0
EOF
