  0
SECTION
  2
HEADER
  9
$ACADVER
  1
AC1027
  9
$ACADMAINTVER
 70
105
  9
$DWGCODEPAGE
  3
ANSI_1252
  9
$LASTSAVEDBY
  1
ezdxf
  9
$REQUIREDVERSIONS
160
0
  9
$INSBASE
 10
0.0
 20
0.0
 30
0.0
  9
$EXTMIN
 10
1e+20
 20
1e+20
 30
1e+20
  9
$EXTMAX
 10
-1e+20
 20
-1e+20
 30
-1e+20
  9
$LIMMIN
 10
0.0
 20
0.0
  9
$LIMMAX
 10
420.0
 20
297.0
  9
$ORTHOMODE
 70
0
  9
$REGENMODE
 70
1
  9
$FILLMODE
 70
1
  9
$QTEXTMODE
 70
0
  9
$MIRRTEXT
 70
1
  9
$LTSCALE
 40
1.0
  9
$ATTMODE
 70
1
  9
$TEXTSIZE
 40
2.5
  9
$TRACEWID
 40
1.0
  9
$TEXTSTYLE
  7
Standard
  9
$CLAYER
  8
0
  9
$CELTYPE
  6
ByLayer
  9
$CECOLOR
 62
256
  9
$CELTSCALE
 40
1.0
  9
$DISPSILH
 70
0
  9
$DIMSCALE
 40
1.0
  9
$DIMASZ
 40
2.5
  9
$DIMEXO
 40
0.625
  9
$DIMDLI
 40
3.75
  9
$DIMRND
 40
0.0
  9
$DIMDLE
 40
0.0
  9
$DIMEXE
 40
1.25
  9
$DIMTP
 40
0.0
  9
$DIMTM
 40
0.0
  9
$DIMTXT
 40
2.5
  9
$DIMCEN
 40
2.5
  9
$DIMTSZ
 40
0.0
  9
$DIMTOL
 70
0
  9
$DIMLIM
 70
0
  9
$DIMTIH
 70
0
  9
$DIMTOH
 70
0
  9
$DIMSE1
 70
0
  9
$DIMSE2
 70
0
  9
$DIMTAD
 70
1
  9
$DIMZIN
 70
8
  9
$DIMBLK
  1

  9
$DIMASO
 70
1
  9
$DIMSHO
 70
1
  9
$DIMPOST
  1

  9
$DIMAPOST
  1

  9
$DIMALT
 70
0
  9
$DIMALTD
 70
3
  9
$DIMALTF
 40
0.03937007874
  9
$DIMLFAC
 40
1.0
  9
$DIMTOFL
 70
1
  9
$DIMTVP
 40
0.0
  9
$DIMTIX
 70
0
  9
$DIMSOXD
 70
0
  9
$DIMSAH
 70
0
  9
$DIMBLK1
  1

  9
$DIMBLK2
  1

  9
$DIMSTYLE
  2
ISO-25
  9
$DIMCLRD
 70
0
  9
$DIMCLRE
 70
0
  9
$DIMCLRT
 70
0
  9
$DIMTFAC
 40
1.0
  9
$DIMGAP
 40
0.625
  9
$DIMJUST
 70
0
  9
$DIMSD1
 70
0
  9
$DIMSD2
 70
0
  9
$DIMTOLJ
 70
0
  9
$DIMTZIN
 70
8
  9
$DIMALTZ
 70
0
  9
$DIMALTTZ
 70
0
  9
$DIMUPT
 70
0
  9
$DIMDEC
 70
2
  9
$DIMTDEC
 70
2
  9
$DIMALTU
 70
2
  9
$DIMALTTD
 70
3
  9
$DIMTXSTY
  7
Standard
  9
$DIMAUNIT
 70
0
  9
$DIMADEC
 70
0
  9
$DIMALTRND
 40
0.0
  9
$DIMAZIN
 70
0
  9
$DIMDSEP
 70
44
  9
$DIMATFIT
 70
3
  9
$DIMFRAC
 70
0
  9
$DIMLDRBLK
  1

  9
$DIMLUNIT
 70
2
  9
$DIMLWD
 70
-2
  9
$DIMLWE
 70
-2
  9
$DIMTMOVE
 70
0
  9
$DIMFXL
 40
1.0
  9
$DIMFXLON
 70
0
  9
$DIMJOGANG
 40
0.785398163397
  9
$DIMTFILL
 70
0
  9
$DIMTFILLCLR
 70
0
  9
$DIMARCSYM
 70
0
  9
$DIMLTYPE
  6

  9
$DIMLTEX1
  6

  9
$DIMLTEX2
  6

  9
$DIMTXTDIRECTION
 70
0
  9
$LUNITS
 70
2
  9
$LUPREC
 70
4
  9
$SKETCHINC
 40
1.0
  9
$FILLETRAD
 40
10.0
  9
$AUNITS
 70
0
  9
$AUPREC
 70
2
  9
$MENU
  1
.
  9
$ELEVATION
 40
0.0
  9
$PELEVATION
 40
0.0
  9
$THICKNESS
 40
0.0
  9
$LIMCHECK
 70
0
  9
$CHAMFERA
 40
0.0
  9
$CHAMFERB
 40
0.0
  9
$CHAMFERC
 40
0.0
  9
$CHAMFERD
 40
0.0
  9
$SKPOLY
 70
0
  9
$TDCREATE
 40
2460671.4266666668
  9
$TDUCREATE
 40
2458532.153996898
  9
$TDUPDATE
 40
2460671.4266666668
  9
$TDUUPDATE
 40
2458532.1544311
  9
$TDINDWG
 40
0.0
  9
$TDUSRTIMER
 40
0.0
  9
$USRTIMER
 70
1
  9
$ANGBASE
 50
0.0
  9
$ANGDIR
 70
0
  9
$PDMODE
 70
0
  9
$PDSIZE
 40
0.0
  9
$PLINEWID
 40
0.0
  9
$SPLFRAME
 70
0
  9
$SPLINETYPE
 70
6
  9
$SPLINESEGS
 70
8
  9
$HANDSEED
  5
38
  9
$SURFTAB1
 70
6
  9
$SURFTAB2
 70
6
  9
$SURFTYPE
 70
6
  9
$SURFU
 70
6
  9
$SURFV
 70
6
  9
$UCSBASE
  2

  9
$UCSNAME
  2

  9
$UCSORG
 10
0.0
 20
0.0
 30
0.0
  9
$UCSXDIR
 10
1.0
 20
0.0
 30
0.0
  9
$UCSYDIR
 10
0.0
 20
1.0
 30
0.0
  9
$UCSORTHOREF
  2

  9
$UCSORTHOVIEW
 70
0
  9
$UCSORGTOP
 10
0.0
 20
0.0
 30
0.0
  9
$UCSORGBOTTOM
 10
0.0
 20
0.0
 30
0.0
  9
$UCSORGLEFT
 10
0.0
 20
0.0
 30
0.0
  9
$UCSORGRIGHT
 10
0.0
 20
0.0
 30
0.0
  9
$UCSORGFRONT
 10
0.0
 20
0.0
 30
0.0
  9
$UCSORGBACK
 10
0.0
 20
0.0
 30
0.0
  9
$PUCSBASE
  2

  9
$PUCSNAME
  2

  9
$PUCSORG
 10
0.0
 20
0.0
 30
0.0
  9
$PUCSXDIR
 10
1.0
 20
0.0
 30
0.0
  9
$PUCSYDIR
 10
0.0
 20
1.0
 30
0.0
  9
$PUCSORTHOREF
  2

  9
$PUCSORTHOVIEW
 70
0
  9
$PUCSORGTOP
 10
0.0
 20
0.0
 30
0.0
  9
$PUCSORGBOTTOM
 10
0.0
 20
0.0
 30
0.0
  9
$PUCSORGLEFT
 10
0.0
 20
0.0
 30
0.0
  9
$PUCSORGRIGHT
 10
0.0
 20
0.0
 30
0.0
  9
$PUCSORGFRONT
 10
0.0
 20
0.0
 30
0.0
  9
$PUCSORGBACK
 10
0.0
 20
0.0
 30
0.0
  9
$USERI1
 70
0
  9
$USERI2
 70
0
  9
$USERI3
 70
0
  9
$USERI4
 70
0
  9
$USERI5
 70
0
  9
$USERR1
 40
0.0
  9
$USERR2
 40
0.0
  9
$USERR3
 40
0.0
  9
$USERR4
 40
0.0
  9
$USERR5
 40
0.0
  9
$WORLDVIEW
 70
1
  9
$SHADEDGE
 70
3
  9
$SHADEDIF
 70
70
  9
$TILEMODE
 70
1
  9
$MAXACTVP
 70
64
  9
$PINSBASE
 10
0.0
 20
0.0
 30
0.0
  9
$PLIMCHECK
 70
0
  9
$PEXTMIN
 10
1e+20
 20
1e+20
 30
1e+20
  9
$PEXTMAX
 10
-1e+20
 20
-1e+20
 30
-1e+20
  9
$PLIMMIN
 10
0.0
 20
0.0
  9
$PLIMMAX
 10
420.0
 20
297.0
  9
$UNITMODE
 70
0
  9
$VISRETAIN
 70
1
  9
$PLINEGEN
 70
0
  9
$PSLTSCALE
 70
1
  9
$TREEDEPTH
 70
3020
  9
$CMLSTYLE
  2
Standard
  9
$CMLJUST
 70
0
  9
$CMLSCALE
 40
20.0
  9
$PROXYGRAPHICS
 70
1
  9
$MEASUREMENT
 70
1
  9
$CELWEIGHT
370
-1
  9
$ENDCAPS
280
0
  9
$JOINSTYLE
280
0
  9
$LWDISPLAY
290
0
  9
$INSUNITS
 70
6
  9
$HYPERLINKBASE
  1

  9
$STYLESHEET
  1

  9
$XEDIT
290
1
  9
$CEPSNTYPE
380
0
  9
$PSTYLEMODE
290
1
  9
$FINGERPRINTGUID
  2
{8C213F30-7769-49F5-9E0A-D4734E203055}
  9
$VERSIONGUID
  2
{638F523A-6579-4446-AACD-B9A1FF25BADF}
  9
$EXTNAMES
290
1
  9
$PSVPSCALE
 40
0.0
  9
$OLESTARTUP
290
0
  9
$SORTENTS
280
127
  9
$INDEXCTL
280
0
  9
$HIDETEXT
280
1
  9
$XCLIPFRAME
280
0
  9
$HALOGAP
280
0
  9
$OBSCOLOR
 70
257
  9
$OBSLTYPE
280
0
  9
$INTERSECTIONDISPLAY
280
0
  9
$INTERSECTIONCOLOR
 70
257
  9
$DIMASSOC
280
2
  9
$PROJECTNAME
  1

  9
$CAMERADISPLAY
290
0
  9
$LENSLENGTH
 40
50.0
  9
$CAMERAHEIGHT
 40
0.0
  9
$STEPSPERSEC
 40
24.0
  9
$STEPSIZE
 40
100.0
  9
$3DDWFPREC
 40
2.0
  9
$PSOLWIDTH
 40
0.005
  9
$PSOLHEIGHT
 40
0.08
  9
$LOFTANG1
 40
1.570796326795
  9
$LOFTANG2
 40
1.570796326795
  9
$LOFTMAG1
 40
0.0
  9
$LOFTMAG2
 40
0.0
  9
$LOFTPARAM
 70
7
  9
$LOFTNORMALS
280
1
  9
$LATITUDE
 40
37.795
  9
$LONGITUDE
 40
-122.394
  9
$NORTHDIRECTION
 40
0.0
  9
$TIMEZONE
 70
-8000
  9
$LIGHTGLYPHDISPLAY
280
1
  9
$TILEMODELIGHTSYNCH
280
1
  9
$CMATERIAL
347
20
  9
$SOLIDHIST
280
0
  9
$SHOWHIST
280
1
  9
$DWFFRAME
280
2
  9
$DGNFRAME
280
2
  9
$REALWORLDSCALE
290
1
  9
$INTERFERECOLOR
 62
256
  9
$CSHADOW
280
0
  9
$SHADOWPLANELOCATION
 40
0.0
  0
ENDSEC
  0
SECTION
  2
CLASSES
  0
CLASS
  1
ACDBDICTIONARYWDFLT
  2
AcDbDictionaryWithDefault
  3
ObjectDBX Classes
 90
0
 91
0
280
0
281
0
  0
CLASS
  1
SUN
  2
AcDbSun
  3
SCENEOE
 90
1153
 91
0
280
0
281
0
  0
CLASS
  1
VISUALSTYLE
  2
AcDbVisualStyle
  3
ObjectDBX Classes
 90
4095
 91
0
280
0
281
0
  0
CLASS
  1
MATERIAL
  2
AcDbMaterial
  3
ObjectDBX Classes
 90
1153
 91
0
280
0
281
0
  0
CLASS
  1
SCALE
  2
AcDbScale
  3
ObjectDBX Classes
 90
1153
 91
0
280
0
281
0
  0
CLASS
  1
TABLESTYLE
  2
AcDbTableStyle
  3
ObjectDBX Classes
 90
4095
 91
0
280
0
281
0
  0
CLASS
  1
MLEADERSTYLE
  2
AcDbMLeaderStyle
  3
ACDB_MLEADERSTYLE_CLASS
 90
4095
 91
0
280
0
281
0
  0
CLASS
  1
DICTIONARYVAR
  2
AcDbDictionaryVar
  3
ObjectDBX Classes
 90
0
 91
0
280
0
281
0
  0
CLASS
  1
CELLSTYLEMAP
  2
AcDbCellStyleMap
  3
ObjectDBX Classes
 90
1152
 91
0
280
0
281
0
  0
CLASS
  1
MENTALRAYRENDERSETTINGS
  2
AcDbMentalRayRenderSettings
  3
SCENEOE
 90
1024
 91
0
280
0
281
0
  0
CLASS
  1
ACDBDETAILVIEWSTYLE
  2
AcDbDetailViewStyle
  3
ObjectDBX Classes
 90
1025
 91
0
280
0
281
0
  0
CLASS
  1
ACDBSECTIONVIEWSTYLE
  2
AcDbSectionViewStyle
  3
ObjectDBX Classes
 90
1025
 91
0
280
0
281
0
  0
CLASS
  1
RASTERVARIABLES
  2
AcDbRasterVariables
  3
ISM
 90
0
 91
0
280
0
281
0
  0
CLASS
  1
LAYOUT
  2
AcDbLayout
  3
ObjectDBX Classes
 90
0
 91
0
280
0
281
0
  0
CLASS
  1
ACDBPLACEHOLDER
  2
AcDbPlaceHolder
  3
ObjectDBX Classes
 90
0
 91
0
280
0
281
0
  0
ENDSEC
  0
SECTION
  2
TABLES
  0
TABLE
  2
VPORT
  5
8
330
0
100
AcDbSymbolTable
 70
1
  0
VPORT
  5
23
330
8
100
AcDbSymbolTableRecord
100
AcDbViewportTableRecord
  2
*Active
 70
0
 10
0.0
 20
0.0
 11
1.0
 21
1.0
 12
0.0
 22
0.0
 13
0.0
 23
0.0
 14
0.5
 24
0.5
 15
0.5
 25
0.5
 16
0.0
 26
0.0
 36
1.0
 17
0.0
 27
0.0
 37
0.0
 40
1000.0
 41
1.34
 42
50.0
 43
0.0
 44
0.0
 50
0.0
 51
0.0
 71
0
 72
1000
 73
1
 74
3
 75
0
 76
0
 77
0
 78
0
281
0
 65
0
146
0.0
  0
ENDTAB
  0
TABLE
  2
LTYPE
  5
2
330
0
100
AcDbSymbolTable
 70
3
  0
LTYPE
  5
24
330
2
100
AcDbSymbolTableRecord
100
AcDbLinetypeTableRecord
  2
ByBlock
 70
0
  3

 72
65
 73
0
 40
0.0
  0
LTYPE
  5
25
330
2
100
AcDbSymbolTableRecord
100
AcDbLinetypeTableRecord
  2
ByLayer
 70
0
  3

 72
65
 73
0
 40
0.0
  0
LTYPE
  5
26
330
2
100
AcDbSymbolTableRecord
100
AcDbLinetypeTableRecord
  2
Continuous
 70
0
  3

 72
65
 73
0
 40
0.0
  0
ENDTAB
  0
TABLE
  2
LAYER
  5
1
330
0
100
AcDbSymbolTable
 70
5
  0
LAYER
  5
27
330
1
100
AcDbSymbolTableRecord
100
AcDbLayerTableRecord
  2
0
 70
0
 62
7
  6
Continuous
370
-3
390
13
347
21
  0
LAYER
  5
28
330
1
100
AcDbSymbolTableRecord
100
AcDbLayerTableRecord
  2
Defpoints
 70
0
 62
7
  6
Continuous
290
0
370
-3
390
13
347
21
  0
LAYER
  5
2F
330
1
100
AcDbSymbolTableRecord
100
AcDbLayerTableRecord
  2
conductor
 70
0
 62
1
  6
Continuous
370
-3
390
13
347
21
  0
LAYER
  5
30
330
1
100
AcDbSymbolTableRecord
100
AcDbLayerTableRecord
  2
dielectric
 70
0
 62
8
  6
Continuous
370
-3
390
13
347
21
  0
LAYER
  5
31
330
1
100
AcDbSymbolTableRecord
100
AcDbLayerTableRecord
  2
substrate
 70
0
 62
5
  6
Continuous
370
-3
390
13
347
21
  0
ENDTAB
  0
TABLE
  2
STYLE
  5
5
330
0
100
AcDbSymbolTable
 70
1
  0
STYLE
  5
29
330
5
100
AcDbSymbolTableRecord
100
AcDbTextStyleTableRecord
  2
Standard
 70
0
 40
0.0
 41
1.0
 50
0.0
 71
0
 42
2.5
  3
txt
  4

  0
ENDTAB
  0
TABLE
  2
VIEW
  5
7
330
0
100
AcDbSymbolTable
 70
0
  0
ENDTAB
  0
TABLE
  2
UCS
  5
6
330
0
100
AcDbSymbolTable
 70
0
  0
ENDTAB
  0
TABLE
  2
APPID
  5
3
330
0
100
AcDbSymbolTable
 70
3
  0
APPID
  5
2A
330
3
100
AcDbSymbolTableRecord
100
AcDbRegAppTableRecord
  2
ACAD
 70
0
  0
APPID
  5
35
330
3
100
AcDbSymbolTableRecord
100
AcDbRegAppTableRecord
  2
HATCHBACKGROUNDCOLOR
 70
0
  0
APPID
  5
36
330
3
100
AcDbSymbolTableRecord
100
AcDbRegAppTableRecord
  2
EZDXF
 70
0
  0
ENDTAB
  0
TABLE
  2
DIMSTYLE
  5
4
330
0
100
AcDbSymbolTable
 70
1
100
AcDbDimStyleTable
  0
DIMSTYLE
105
2B
330
4
100
AcDbSymbolTableRecord
100
AcDbDimStyleTableRecord
  2
Standard
 70
0
 40
1.0
 41
2.5
 42
0.625
 43
3.75
 44
1.25
 45
0.0
 46
0.0
 47
0.0
 48
0.0
 49
2.5
140
2.5
141
2.5
142
0.0
143
0.03937007874
144
1.0
145
0.0
146
1.0
147
0.625
148
0.0
 69
0
 70
0
 71
0
 72
0
 73
0
 74
0
 75
0
 76
0
 77
1
 78
8
 79
3
170
0
171
3
172
1
173
0
174
0
175
0
176
0
177
0
178
0
179
2
271
2
272
2
273
2
274
3
275
0
276
0
277
2
278
44
279
0
280
0
281
0
282
0
283
0
284
8
285
0
286
0
288
0
289
3
290
0
371
-2
372
-2
  0
ENDTAB
  0
TABLE
  2
BLOCK_RECORD
  5
9
330
0
100
AcDbSymbolTable
 70
2
  0
BLOCK_RECORD
  5
17
330
9
100
AcDbSymbolTableRecord
100
AcDbBlockTableRecord
  2
*Model_Space
340
1A
 70
0
280
1
281
0
  0
BLOCK_RECORD
  5
1B
330
9
100
AcDbSymbolTableRecord
100
AcDbBlockTableRecord
  2
*Paper_Space
340
1E
 70
0
280
1
281
0
  0
ENDTAB
  0
ENDSEC
  0
SECTION
  2
BLOCKS
  0
BLOCK
  5
18
330
17
100
AcDbEntity
  8
0
100
AcDbBlockBegin
  2
*Model_Space
 70
0
 10
0.0
 20
0.0
 30
0.0
  3
*Model_Space
  1

  0
ENDBLK
  5
19
330
17
100
AcDbEntity
  8
0
100
AcDbBlockEnd
  0
BLOCK
  5
1C
330
1B
100
AcDbEntity
  8
0
100
AcDbBlockBegin
  2
*Paper_Space
 70
0
 10
0.0
 20
0.0
 30
0.0
  3
*Paper_Space
  1

  0
ENDBLK
  5
1D
330
1B
100
AcDbEntity
  8
0
100
AcDbBlockEnd
  0
ENDSEC
  0
SECTION
  2
ENTITIES
  0
LWPOLYLINE
  5
32
330
17
100
AcDbEntity
  8
conductor
100
AcDbPolyline
 90
331
 70
1
 43
0.5
 10
2432.046875
 20
-2079.0078125
 10
2432.046875
 20
-2088.814453125
 10
2432.046875
 20
-2098.62109375
 10
2432.046875
 20
-2108.427734375
 10
2422.240234375
 20
-2118.234375
 10
2412.43359375
 20
-2118.234375
 10
2402.626953125
 20
-2118.234375
 10
2392.8203125
 20
-2118.234375
 10
2383.013671875
 20
-2118.234375
 10
2373.20703125
 20
-2118.234375
 10
2363.400390625
 20
-2118.234375
 10
2353.59375
 20
-2118.234375
 10
2343.787109375
 20
-2118.234375
 10
2333.98046875
 20
-2118.234375
 10
2324.173828125
 20
-2118.234375
 10
2314.3671875
 20
-2118.234375
 10
2314.3671875
 20
-2128.041015625
 10
2314.3671875
 20
-2137.84765625
 10
2314.3671875
 20
-2147.654296875
 10
2304.560546875
 20
-2157.4609375
 10
2294.75390625
 20
-2157.4609375
 10
2284.947265625
 20
-2157.4609375
 10
2275.140625
 20
-2157.4609375
 10
2265.333984375
 20
-2157.4609375
 10
2255.52734375
 20
-2157.4609375
 10
2245.720703125
 20
-2157.4609375
 10
2235.9140625
 20
-2157.4609375
 10
2235.9140625
 20
-2167.267578125
 10
2235.9140625
 20
-2177.07421875
 10
2235.9140625
 20
-2186.880859375
 10
2235.9140625
 20
-2196.6875
 10
2235.9140625
 20
-2206.494140625
 10
2235.9140625
 20
-2216.30078125
 10
2235.9140625
 20
-2226.107421875
 10
2226.107421875
 20
-2235.9140625
 10
2216.30078125
 20
-2235.9140625
 10
2206.494140625
 20
-2235.9140625
 10
2196.6875
 20
-2235.9140625
 10
2186.880859375
 20
-2235.9140625
 10
2177.07421875
 20
-2235.9140625
 10
2167.267578125
 20
-2235.9140625
 10
2157.4609375
 20
-2235.9140625
 10
2157.4609375
 20
-2245.720703125
 10
2157.4609375
 20
-2255.52734375
 10
2157.4609375
 20
-2265.333984375
 10
2157.4609375
 20
-2275.140625
 10
2157.4609375
 20
-2284.947265625
 10
2157.4609375
 20
-2294.75390625
 10
2157.4609375
 20
-2304.560546875
 10
2147.654296875
 20
-2314.3671875
 10
2137.84765625
 20
-2314.3671875
 10
2128.041015625
 20
-2314.3671875
 10
2118.234375
 20
-2314.3671875
 10
2118.234375
 20
-2324.173828125
 10
2118.234375
 20
-2333.98046875
 10
2118.234375
 20
-2343.787109375
 10
2118.234375
 20
-2353.59375
 10
2118.234375
 20
-2363.400390625
 10
2118.234375
 20
-2373.20703125
 10
2118.234375
 20
-2383.013671875
 10
2118.234375
 20
-2392.8203125
 10
2118.234375
 20
-2402.626953125
 10
2118.234375
 20
-2412.43359375
 10
2118.234375
 20
-2422.240234375
 10
2108.427734375
 20
-2432.046875
 10
2098.62109375
 20
-2432.046875
 10
2088.814453125
 20
-2432.046875
 10
2079.0078125
 20
-2432.046875
 10
2079.0078125
 20
-2441.853515625
 10
2079.0078125
 20
-2451.66015625
 10
2079.0078125
 20
-2461.466796875
 10
2088.814453125
 20
-2461.466796875
 10
2098.62109375
 20
-2461.466796875
 10
2108.427734375
 20
-2461.466796875
 10
2118.234375
 20
-2471.2734375
 10
2118.234375
 20
-2481.080078125
 10
2118.234375
 20
-2490.88671875
 10
2118.234375
 20
-2500.693359375
 10
2108.427734375
 20
-2510.5
 10
2098.62109375
 20
-2510.5
 10
2088.814453125
 20
-2510.5
 10
2079.0078125
 20
-2510.5
 10
2079.0078125
 20
-2520.306640625
 10
2079.0078125
 20
-2530.11328125
 10
2079.0078125
 20
-2539.919921875
 10
2079.0078125
 20
-2549.7265625
 10
2079.0078125
 20
-2559.533203125
 10
2079.0078125
 20
-2569.33984375
 10
2079.0078125
 20
-2579.146484375
 10
2088.814453125
 20
-2579.146484375
 10
2098.62109375
 20
-2579.146484375
 10
2108.427734375
 20
-2579.146484375
 10
2118.234375
 20
-2588.953125
 10
2118.234375
 20
-2598.759765625
 10
2118.234375
 20
-2608.56640625
 10
2118.234375
 20
-2618.373046875
 10
2118.234375
 20
-2628.1796875
 10
2118.234375
 20
-2637.986328125
 10
2118.234375
 20
-2647.79296875
 10
2118.234375
 20
-2657.599609375
 10
2118.234375
 20
-2667.40625
 10
2118.234375
 20
-2677.212890625
 10
2118.234375
 20
-2687.01953125
 10
2118.234375
 20
-2696.826171875
 10
2118.234375
 20
-2706.6328125
 10
2118.234375
 20
-2716.439453125
 10
2118.234375
 20
-2726.24609375
 10
2118.234375
 20
-2736.052734375
 10
2128.041015625
 20
-2736.052734375
 10
2137.84765625
 20
-2736.052734375
 10
2147.654296875
 20
-2736.052734375
 10
2157.4609375
 20
-2745.859375
 10
2157.4609375
 20
-2755.666015625
 10
2157.4609375
 20
-2765.47265625
 10
2157.4609375
 20
-2775.279296875
 10
2167.267578125
 20
-2775.279296875
 10
2177.07421875
 20
-2775.279296875
 10
2186.880859375
 20
-2775.279296875
 10
2196.6875
 20
-2785.0859375
 10
2196.6875
 20
-2794.892578125
 10
2196.6875
 20
-2804.69921875
 10
2196.6875
 20
-2814.505859375
 10
2206.494140625
 20
-2814.505859375
 10
2216.30078125
 20
-2814.505859375
 10
2226.107421875
 20
-2814.505859375
 10
2235.9140625
 20
-2824.3125
 10
2235.9140625
 20
-2834.119140625
 10
2235.9140625
 20
-2843.92578125
 10
2235.9140625
 20
-2853.732421875
 10
2245.720703125
 20
-2853.732421875
 10
2255.52734375
 20
-2853.732421875
 10
2265.333984375
 20
-2853.732421875
 10
2275.140625
 20
-2863.5390625
 10
2275.140625
 20
-2873.345703125
 10
2275.140625
 20
-2883.15234375
 10
2275.140625
 20
-2892.958984375
 10
2284.947265625
 20
-2892.958984375
 10
2294.75390625
 20
-2892.958984375
 10
2304.560546875
 20
-2892.958984375
 10
2314.3671875
 20
-2892.958984375
 10
2324.173828125
 20
-2892.958984375
 10
2333.98046875
 20
-2892.958984375
 10
2343.787109375
 20
-2892.958984375
 10
2353.59375
 20
-2892.958984375
 10
2363.400390625
 20
-2892.958984375
 10
2373.20703125
 20
-2892.958984375
 10
2383.013671875
 20
-2892.958984375
 10
2392.8203125
 20
-2892.958984375
 10
2402.626953125
 20
-2892.958984375
 10
2412.43359375
 20
-2892.958984375
 10
2422.240234375
 20
-2892.958984375
 10
2432.046875
 20
-2902.765625
 10
2432.046875
 20
-2912.572265625
 10
2432.046875
 20
-2922.37890625
 10
2432.046875
 20
-2932.185546875
 10
2441.853515625
 20
-2932.185546875
 10
2451.66015625
 20
-2932.185546875
 10
2461.466796875
 20
-2932.185546875
 10
2471.2734375
 20
-2932.185546875
 10
2481.080078125
 20
-2932.185546875
 10
2490.88671875
 20
-2932.185546875
 10
2500.693359375
 20
-2932.185546875
 10
2510.5
 20
-2932.185546875
 10
2520.306640625
 20
-2932.185546875
 10
2530.11328125
 20
-2932.185546875
 10
2539.919921875
 20
-2932.185546875
 10
2549.7265625
 20
-2932.185546875
 10
2559.533203125
 20
-2932.185546875
 10
2569.33984375
 20
-2932.185546875
 10
2579.146484375
 20
-2932.185546875
 10
2588.953125
 20
-2932.185546875
 10
2598.759765625
 20
-2932.185546875
 10
2608.56640625
 20
-2932.185546875
 10
2618.373046875
 20
-2932.185546875
 10
2618.373046875
 20
-2922.37890625
 10
2618.373046875
 20
-2912.572265625
 10
2618.373046875
 20
-2902.765625
 10
2628.1796875
 20
-2892.958984375
 10
2637.986328125
 20
-2892.958984375
 10
2647.79296875
 20
-2892.958984375
 10
2657.599609375
 20
-2892.958984375
 10
2667.40625
 20
-2892.958984375
 10
2677.212890625
 20
-2892.958984375
 10
2687.01953125
 20
-2892.958984375
 10
2696.826171875
 20
-2892.958984375
 10
2696.826171875
 20
-2883.15234375
 10
2696.826171875
 20
-2873.345703125
 10
2696.826171875
 20
-2863.5390625
 10
2706.6328125
 20
-2853.732421875
 10
2716.439453125
 20
-2853.732421875
 10
2726.24609375
 20
-2853.732421875
 10
2736.052734375
 20
-2853.732421875
 10
2745.859375
 20
-2853.732421875
 10
2755.666015625
 20
-2853.732421875
 10
2765.47265625
 20
-2853.732421875
 10
2775.279296875
 20
-2853.732421875
 10
2775.279296875
 20
-2843.92578125
 10
2775.279296875
 20
-2834.119140625
 10
2775.279296875
 20
-2824.3125
 10
2785.0859375
 20
-2814.505859375
 10
2794.892578125
 20
-2814.505859375
 10
2804.69921875
 20
-2814.505859375
 10
2814.505859375
 20
-2814.505859375
 10
2814.505859375
 20
-2804.69921875
 10
2814.505859375
 20
-2794.892578125
 10
2814.505859375
 20
-2785.0859375
 10
2824.3125
 20
-2775.279296875
 10
2834.119140625
 20
-2775.279296875
 10
2843.92578125
 20
-2775.279296875
 10
2853.732421875
 20
-2775.279296875
 10
2853.732421875
 20
-2765.47265625
 10
2853.732421875
 20
-2755.666015625
 10
2853.732421875
 20
-2745.859375
 10
2853.732421875
 20
-2736.052734375
 10
2853.732421875
 20
-2726.24609375
 10
2853.732421875
 20
-2716.439453125
 10
2853.732421875
 20
-2706.6328125
 10
2863.5390625
 20
-2696.826171875
 10
2873.345703125
 20
-2696.826171875
 10
2883.15234375
 20
-2696.826171875
 10
2892.958984375
 20
-2696.826171875
 10
2892.958984375
 20
-2687.01953125
 10
2892.958984375
 20
-2677.212890625
 10
2892.958984375
 20
-2667.40625
 10
2892.958984375
 20
-2657.599609375
 10
2892.958984375
 20
-2647.79296875
 10
2892.958984375
 20
-2637.986328125
 10
2892.958984375
 20
-2628.1796875
 10
2902.765625
 20
-2618.373046875
 10
2912.572265625
 20
-2618.373046875
 10
2922.37890625
 20
-2618.373046875
 10
2932.185546875
 20
-2618.373046875
 10
2932.185546875
 20
-2608.56640625
 10
2932.185546875
 20
-2598.759765625
 10
2932.185546875
 20
-2588.953125
 10
2932.185546875
 20
-2579.146484375
 10
2932.185546875
 20
-2569.33984375
 10
2932.185546875
 20
-2559.533203125
 10
2932.185546875
 20
-2549.7265625
 10
2932.185546875
 20
-2539.919921875
 10
2932.185546875
 20
-2530.11328125
 10
2932.185546875
 20
-2520.306640625
 10
2932.185546875
 20
-2510.5
 10
2932.185546875
 20
-2500.693359375
 10
2932.185546875
 20
-2490.88671875
 10
2932.185546875
 20
-2481.080078125
 10
2932.185546875
 20
-2471.2734375
 10
2932.185546875
 20
-2461.466796875
 10
2932.185546875
 20
-2451.66015625
 10
2932.185546875
 20
-2441.853515625
 10
2932.185546875
 20
-2432.046875
 10
2932.185546875
 20
-2422.240234375
 10
2932.185546875
 20
-2412.43359375
 10
2932.185546875
 20
-2402.626953125
 10
2932.185546875
 20
-2392.8203125
 10
2922.37890625
 20
-2392.8203125
 10
2912.572265625
 20
-2392.8203125
 10
2902.765625
 20
-2392.8203125
 10
2892.958984375
 20
-2383.013671875
 10
2892.958984375
 20
-2373.20703125
 10
2892.958984375
 20
-2363.400390625
 10
2892.958984375
 20
-2353.59375
 10
2892.958984375
 20
-2343.787109375
 10
2892.958984375
 20
-2333.98046875
 10
2892.958984375
 20
-2324.173828125
 10
2892.958984375
 20
-2314.3671875
 10
2883.15234375
 20
-2314.3671875
 10
2873.345703125
 20
-2314.3671875
 10
2863.5390625
 20
-2314.3671875
 10
2853.732421875
 20
-2304.560546875
 10
2853.732421875
 20
-2294.75390625
 10
2853.732421875
 20
-2284.947265625
 10
2853.732421875
 20
-2275.140625
 10
2853.732421875
 20
-2265.333984375
 10
2853.732421875
 20
-2255.52734375
 10
2853.732421875
 20
-2245.720703125
 10
2853.732421875
 20
-2235.9140625
 10
2843.92578125
 20
-2235.9140625
 10
2834.119140625
 20
-2235.9140625
 10
2824.3125
 20
-2235.9140625
 10
2814.505859375
 20
-2226.107421875
 10
2814.505859375
 20
-2216.30078125
 10
2814.505859375
 20
-2206.494140625
 10
2814.505859375
 20
-2196.6875
 10
2804.69921875
 20
-2196.6875
 10
2794.892578125
 20
-2196.6875
 10
2785.0859375
 20
-2196.6875
 10
2775.279296875
 20
-2186.880859375
 10
2775.279296875
 20
-2177.07421875
 10
2775.279296875
 20
-2167.267578125
 10
2775.279296875
 20
-2157.4609375
 10
2765.47265625
 20
-2157.4609375
 10
2755.666015625
 20
-2157.4609375
 10
2745.859375
 20
-2157.4609375
 10
2736.052734375
 20
-2157.4609375
 10
2726.24609375
 20
-2157.4609375
 10
2716.439453125
 20
-2157.4609375
 10
2706.6328125
 20
-2157.4609375
 10
2696.826171875
 20
-2147.654296875
 10
2696.826171875
 20
-2137.84765625
 10
2696.826171875
 20
-2128.041015625
 10
2696.826171875
 20
-2118.234375
 10
2687.01953125
 20
-2118.234375
 10
2677.212890625
 20
-2118.234375
 10
2667.40625
 20
-2118.234375
 10
2657.599609375
 20
-2118.234375
 10
2647.79296875
 20
-2118.234375
 10
2637.986328125
 20
-2118.234375
 10
2628.1796875
 20
-2118.234375
 10
2618.373046875
 20
-2118.234375
 10
2608.56640625
 20
-2118.234375
 10
2598.759765625
 20
-2118.234375
 10
2588.953125
 20
-2118.234375
 10
2579.146484375
 20
-2108.427734375
 10
2579.146484375
 20
-2098.62109375
 10
2579.146484375
 20
-2088.814453125
 10
2579.146484375
 20
-2079.0078125
 10
2569.33984375
 20
-2079.0078125
 10
2559.533203125
 20
-2079.0078125
 10
2549.7265625
 20
-2079.0078125
 10
2539.919921875
 20
-2079.0078125
 10
2530.11328125
 20
-2079.0078125
 10
2520.306640625
 20
-2079.0078125
 10
2510.5
 20
-2079.0078125
 10
2500.693359375
 20
-2079.0078125
 10
2490.88671875
 20
-2079.0078125
 10
2481.080078125
 20
-2079.0078125
 10
2471.2734375
 20
-2079.0078125
 10
2461.466796875
 20
-2079.0078125
 10
2451.66015625
 20
-2079.0078125
 10
2441.853515625
 20
-2079.0078125
  0
LWPOLYLINE
  5
33
330
17
100
AcDbEntity
  8
substrate
100
AcDbPolyline
 90
2044
 70
1
 43
0.5
 10
0.0
 20
-0.0
 10
0.0
 20
-9.806640625
 10
0.0
 20
-19.61328125
 10
0.0
 20
-29.419921875
 10
0.0
 20
-39.2265625
 10
0.0
 20
-49.033203125
 10
0.0
 20
-58.83984375
 10
0.0
 20
-68.646484375
 10
0.0
 20
-78.453125
 10
0.0
 20
-88.259765625
 10
0.0
 20
-98.06640625
 10
0.0
 20
-107.873046875
 10
0.0
 20
-117.6796875
 10
0.0
 20
-127.486328125
 10
0.0
 20
-137.29296875
 10
0.0
 20
-147.099609375
 10
0.0
 20
-156.90625
 10
0.0
 20
-166.712890625
 10
0.0
 20
-176.51953125
 10
0.0
 20
-186.326171875
 10
0.0
 20
-196.1328125
 10
0.0
 20
-205.939453125
 10
0.0
 20
-215.74609375
 10
0.0
 20
-225.552734375
 10
0.0
 20
-235.359375
 10
0.0
 20
-245.166015625
 10
0.0
 20
-254.97265625
 10
0.0
 20
-264.779296875
 10
0.0
 20
-274.5859375
 10
0.0
 20
-284.392578125
 10
0.0
 20
-294.19921875
 10
0.0
 20
-304.005859375
 10
0.0
 20
-313.8125
 10
0.0
 20
-323.619140625
 10
0.0
 20
-333.42578125
 10
0.0
 20
-343.232421875
 10
0.0
 20
-353.0390625
 10
0.0
 20
-362.845703125
 10
0.0
 20
-372.65234375
 10
0.0
 20
-382.458984375
 10
0.0
 20
-392.265625
 10
0.0
 20
-402.072265625
 10
0.0
 20
-411.87890625
 10
0.0
 20
-421.685546875
 10
0.0
 20
-431.4921875
 10
0.0
 20
-441.298828125
 10
0.0
 20
-451.10546875
 10
0.0
 20
-460.912109375
 10
0.0
 20
-470.71875
 10
0.0
 20
-480.525390625
 10
0.0
 20
-490.33203125
 10
0.0
 20
-500.138671875
 10
0.0
 20
-509.9453125
 10
0.0
 20
-519.751953125
 10
0.0
 20
-529.55859375
 10
0.0
 20
-539.365234375
 10
0.0
 20
-549.171875
 10
0.0
 20
-558.978515625
 10
0.0
 20
-568.78515625
 10
0.0
 20
-578.591796875
 10
0.0
 20
-588.3984375
 10
0.0
 20
-598.205078125
 10
0.0
 20
-608.01171875
 10
0.0
 20
-617.818359375
 10
0.0
 20
-627.625
 10
0.0
 20
-637.431640625
 10
0.0
 20
-647.23828125
 10
0.0
 20
-657.044921875
 10
0.0
 20
-666.8515625
 10
0.0
 20
-676.658203125
 10
0.0
 20
-686.46484375
 10
0.0
 20
-696.271484375
 10
0.0
 20
-706.078125
 10
0.0
 20
-715.884765625
 10
0.0
 20
-725.69140625
 10
0.0
 20
-735.498046875
 10
0.0
 20
-745.3046875
 10
0.0
 20
-755.111328125
 10
0.0
 20
-764.91796875
 10
0.0
 20
-774.724609375
 10
0.0
 20
-784.53125
 10
0.0
 20
-794.337890625
 10
0.0
 20
-804.14453125
 10
0.0
 20
-813.951171875
 10
0.0
 20
-823.7578125
 10
0.0
 20
-833.564453125
 10
0.0
 20
-843.37109375
 10
0.0
 20
-853.177734375
 10
0.0
 20
-862.984375
 10
0.0
 20
-872.791015625
 10
0.0
 20
-882.59765625
 10
0.0
 20
-892.404296875
 10
0.0
 20
-902.2109375
 10
0.0
 20
-912.017578125
 10
0.0
 20
-921.82421875
 10
0.0
 20
-931.630859375
 10
0.0
 20
-941.4375
 10
0.0
 20
-951.244140625
 10
0.0
 20
-961.05078125
 10
0.0
 20
-970.857421875
 10
0.0
 20
-980.6640625
 10
0.0
 20
-990.470703125
 10
0.0
 20
-1000.27734375
 10
0.0
 20
-1010.083984375
 10
0.0
 20
-1019.890625
 10
0.0
 20
-1029.697265625
 10
0.0
 20
-1039.50390625
 10
0.0
 20
-1049.310546875
 10
0.0
 20
-1059.1171875
 10
0.0
 20
-1068.923828125
 10
0.0
 20
-1078.73046875
 10
0.0
 20
-1088.537109375
 10
0.0
 20
-1098.34375
 10
0.0
 20
-1108.150390625
 10
0.0
 20
-1117.95703125
 10
0.0
 20
-1127.763671875
 10
0.0
 20
-1137.5703125
 10
0.0
 20
-1147.376953125
 10
0.0
 20
-1157.18359375
 10
0.0
 20
-1166.990234375
 10
0.0
 20
-1176.796875
 10
0.0
 20
-1186.603515625
 10
0.0
 20
-1196.41015625
 10
0.0
 20
-1206.216796875
 10
0.0
 20
-1216.0234375
 10
0.0
 20
-1225.830078125
 10
0.0
 20
-1235.63671875
 10
0.0
 20
-1245.443359375
 10
0.0
 20
-1255.25
 10
0.0
 20
-1265.056640625
 10
0.0
 20
-1274.86328125
 10
0.0
 20
-1284.669921875
 10
0.0
 20
-1294.4765625
 10
0.0
 20
-1304.283203125
 10
0.0
 20
-1314.08984375
 10
0.0
 20
-1323.896484375
 10
0.0
 20
-1333.703125
 10
0.0
 20
-1343.509765625
 10
0.0
 20
-1353.31640625
 10
0.0
 20
-1363.123046875
 10
0.0
 20
-1372.9296875
 10
0.0
 20
-1382.736328125
 10
0.0
 20
-1392.54296875
 10
0.0
 20
-1402.349609375
 10
0.0
 20
-1412.15625
 10
0.0
 20
-1421.962890625
 10
0.0
 20
-1431.76953125
 10
0.0
 20
-1441.576171875
 10
0.0
 20
-1451.3828125
 10
0.0
 20
-1461.189453125
 10
0.0
 20
-1470.99609375
 10
0.0
 20
-1480.802734375
 10
0.0
 20
-1490.609375
 10
0.0
 20
-1500.416015625
 10
0.0
 20
-1510.22265625
 10
0.0
 20
-1520.029296875
 10
0.0
 20
-1529.8359375
 10
0.0
 20
-1539.642578125
 10
0.0
 20
-1549.44921875
 10
0.0
 20
-1559.255859375
 10
0.0
 20
-1569.0625
 10
0.0
 20
-1578.869140625
 10
0.0
 20
-1588.67578125
 10
0.0
 20
-1598.482421875
 10
0.0
 20
-1608.2890625
 10
0.0
 20
-1618.095703125
 10
0.0
 20
-1627.90234375
 10
0.0
 20
-1637.708984375
 10
0.0
 20
-1647.515625
 10
0.0
 20
-1657.322265625
 10
0.0
 20
-1667.12890625
 10
0.0
 20
-1676.935546875
 10
0.0
 20
-1686.7421875
 10
0.0
 20
-1696.548828125
 10
0.0
 20
-1706.35546875
 10
0.0
 20
-1716.162109375
 10
0.0
 20
-1725.96875
 10
0.0
 20
-1735.775390625
 10
0.0
 20
-1745.58203125
 10
0.0
 20
-1755.388671875
 10
0.0
 20
-1765.1953125
 10
0.0
 20
-1775.001953125
 10
0.0
 20
-1784.80859375
 10
0.0
 20
-1794.615234375
 10
0.0
 20
-1804.421875
 10
0.0
 20
-1814.228515625
 10
0.0
 20
-1824.03515625
 10
0.0
 20
-1833.841796875
 10
0.0
 20
-1843.6484375
 10
0.0
 20
-1853.455078125
 10
0.0
 20
-1863.26171875
 10
0.0
 20
-1873.068359375
 10
0.0
 20
-1882.875
 10
0.0
 20
-1892.681640625
 10
0.0
 20
-1902.48828125
 10
0.0
 20
-1912.294921875
 10
0.0
 20
-1922.1015625
 10
0.0
 20
-1931.908203125
 10
0.0
 20
-1941.71484375
 10
0.0
 20
-1951.521484375
 10
0.0
 20
-1961.328125
 10
0.0
 20
-1971.134765625
 10
0.0
 20
-1980.94140625
 10
0.0
 20
-1990.748046875
 10
0.0
 20
-2000.5546875
 10
0.0
 20
-2010.361328125
 10
0.0
 20
-2020.16796875
 10
0.0
 20
-2029.974609375
 10
0.0
 20
-2039.78125
 10
0.0
 20
-2049.587890625
 10
0.0
 20
-2059.39453125
 10
0.0
 20
-2069.201171875
 10
0.0
 20
-2079.0078125
 10
0.0
 20
-2088.814453125
 10
0.0
 20
-2098.62109375
 10
0.0
 20
-2108.427734375
 10
0.0
 20
-2118.234375
 10
0.0
 20
-2128.041015625
 10
0.0
 20
-2137.84765625
 10
0.0
 20
-2147.654296875
 10
0.0
 20
-2157.4609375
 10
0.0
 20
-2167.267578125
 10
0.0
 20
-2177.07421875
 10
0.0
 20
-2186.880859375
 10
0.0
 20
-2196.6875
 10
0.0
 20
-2206.494140625
 10
0.0
 20
-2216.30078125
 10
0.0
 20
-2226.107421875
 10
0.0
 20
-2235.9140625
 10
0.0
 20
-2245.720703125
 10
0.0
 20
-2255.52734375
 10
0.0
 20
-2265.333984375
 10
0.0
 20
-2275.140625
 10
0.0
 20
-2284.947265625
 10
0.0
 20
-2294.75390625
 10
0.0
 20
-2304.560546875
 10
0.0
 20
-2314.3671875
 10
0.0
 20
-2324.173828125
 10
0.0
 20
-2333.98046875
 10
0.0
 20
-2343.787109375
 10
0.0
 20
-2353.59375
 10
0.0
 20
-2363.400390625
 10
0.0
 20
-2373.20703125
 10
0.0
 20
-2383.013671875
 10
0.0
 20
-2392.8203125
 10
0.0
 20
-2402.626953125
 10
0.0
 20
-2412.43359375
 10
0.0
 20
-2422.240234375
 10
0.0
 20
-2432.046875
 10
0.0
 20
-2441.853515625
 10
0.0
 20
-2451.66015625
 10
0.0
 20
-2461.466796875
 10
0.0
 20
-2471.2734375
 10
0.0
 20
-2481.080078125
 10
0.0
 20
-2490.88671875
 10
0.0
 20
-2500.693359375
 10
0.0
 20
-2510.5
 10
0.0
 20
-2520.306640625
 10
0.0
 20
-2530.11328125
 10
0.0
 20
-2539.919921875
 10
0.0
 20
-2549.7265625
 10
0.0
 20
-2559.533203125
 10
0.0
 20
-2569.33984375
 10
0.0
 20
-2579.146484375
 10
0.0
 20
-2588.953125
 10
0.0
 20
-2598.759765625
 10
0.0
 20
-2608.56640625
 10
0.0
 20
-2618.373046875
 10
0.0
 20
-2628.1796875
 10
0.0
 20
-2637.986328125
 10
0.0
 20
-2647.79296875
 10
0.0
 20
-2657.599609375
 10
0.0
 20
-2667.40625
 10
0.0
 20
-2677.212890625
 10
0.0
 20
-2687.01953125
 10
0.0
 20
-2696.826171875
 10
0.0
 20
-2706.6328125
 10
0.0
 20
-2716.439453125
 10
0.0
 20
-2726.24609375
 10
0.0
 20
-2736.052734375
 10
0.0
 20
-2745.859375
 10
0.0
 20
-2755.666015625
 10
0.0
 20
-2765.47265625
 10
0.0
 20
-2775.279296875
 10
0.0
 20
-2785.0859375
 10
0.0
 20
-2794.892578125
 10
0.0
 20
-2804.69921875
 10
0.0
 20
-2814.505859375
 10
0.0
 20
-2824.3125
 10
0.0
 20
-2834.119140625
 10
0.0
 20
-2843.92578125
 10
0.0
 20
-2853.732421875
 10
0.0
 20
-2863.5390625
 10
0.0
 20
-2873.345703125
 10
0.0
 20
-2883.15234375
 10
0.0
 20
-2892.958984375
 10
0.0
 20
-2902.765625
 10
0.0
 20
-2912.572265625
 10
0.0
 20
-2922.37890625
 10
0.0
 20
-2932.185546875
 10
0.0
 20
-2941.9921875
 10
0.0
 20
-2951.798828125
 10
0.0
 20
-2961.60546875
 10
0.0
 20
-2971.412109375
 10
0.0
 20
-2981.21875
 10
0.0
 20
-2991.025390625
 10
0.0
 20
-3000.83203125
 10
0.0
 20
-3010.638671875
 10
0.0
 20
-3020.4453125
 10
0.0
 20
-3030.251953125
 10
0.0
 20
-3040.05859375
 10
0.0
 20
-3049.865234375
 10
0.0
 20
-3059.671875
 10
0.0
 20
-3069.478515625
 10
0.0
 20
-3079.28515625
 10
0.0
 20
-3089.091796875
 10
0.0
 20
-3098.8984375
 10
0.0
 20
-3108.705078125
 10
0.0
 20
-3118.51171875
 10
0.0
 20
-3128.318359375
 10
0.0
 20
-3138.125
 10
0.0
 20
-3147.931640625
 10
0.0
 20
-3157.73828125
 10
0.0
 20
-3167.544921875
 10
0.0
 20
-3177.3515625
 10
0.0
 20
-3187.158203125
 10
0.0
 20
-3196.96484375
 10
0.0
 20
-3206.771484375
 10
0.0
 20
-3216.578125
 10
0.0
 20
-3226.384765625
 10
0.0
 20
-3236.19140625
 10
0.0
 20
-3245.998046875
 10
0.0
 20
-3255.8046875
 10
0.0
 20
-3265.611328125
 10
0.0
 20
-3275.41796875
 10
0.0
 20
-3285.224609375
 10
0.0
 20
-3295.03125
 10
0.0
 20
-3304.837890625
 10
0.0
 20
-3314.64453125
 10
0.0
 20
-3324.451171875
 10
0.0
 20
-3334.2578125
 10
0.0
 20
-3344.064453125
 10
0.0
 20
-3353.87109375
 10
0.0
 20
-3363.677734375
 10
0.0
 20
-3373.484375
 10
0.0
 20
-3383.291015625
 10
0.0
 20
-3393.09765625
 10
0.0
 20
-3402.904296875
 10
0.0
 20
-3412.7109375
 10
0.0
 20
-3422.517578125
 10
0.0
 20
-3432.32421875
 10
0.0
 20
-3442.130859375
 10
0.0
 20
-3451.9375
 10
0.0
 20
-3461.744140625
 10
0.0
 20
-3471.55078125
 10
0.0
 20
-3481.357421875
 10
0.0
 20
-3491.1640625
 10
0.0
 20
-3500.970703125
 10
0.0
 20
-3510.77734375
 10
0.0
 20
-3520.583984375
 10
0.0
 20
-3530.390625
 10
0.0
 20
-3540.197265625
 10
0.0
 20
-3550.00390625
 10
0.0
 20
-3559.810546875
 10
0.0
 20
-3569.6171875
 10
0.0
 20
-3579.423828125
 10
0.0
 20
-3589.23046875
 10
0.0
 20
-3599.037109375
 10
0.0
 20
-3608.84375
 10
0.0
 20
-3618.650390625
 10
0.0
 20
-3628.45703125
 10
0.0
 20
-3638.263671875
 10
0.0
 20
-3648.0703125
 10
0.0
 20
-3657.876953125
 10
0.0
 20
-3667.68359375
 10
0.0
 20
-3677.490234375
 10
0.0
 20
-3687.296875
 10
0.0
 20
-3697.103515625
 10
0.0
 20
-3706.91015625
 10
0.0
 20
-3716.716796875
 10
0.0
 20
-3726.5234375
 10
0.0
 20
-3736.330078125
 10
0.0
 20
-3746.13671875
 10
0.0
 20
-3755.943359375
 10
0.0
 20
-3765.75
 10
0.0
 20
-3775.556640625
 10
0.0
 20
-3785.36328125
 10
0.0
 20
-3795.169921875
 10
0.0
 20
-3804.9765625
 10
0.0
 20
-3814.783203125
 10
0.0
 20
-3824.58984375
 10
0.0
 20
-3834.396484375
 10
0.0
 20
-3844.203125
 10
0.0
 20
-3854.009765625
 10
0.0
 20
-3863.81640625
 10
0.0
 20
-3873.623046875
 10
0.0
 20
-3883.4296875
 10
0.0
 20
-3893.236328125
 10
0.0
 20
-3903.04296875
 10
0.0
 20
-3912.849609375
 10
0.0
 20
-3922.65625
 10
0.0
 20
-3932.462890625
 10
0.0
 20
-3942.26953125
 10
0.0
 20
-3952.076171875
 10
0.0
 20
-3961.8828125
 10
0.0
 20
-3971.689453125
 10
0.0
 20
-3981.49609375
 10
0.0
 20
-3991.302734375
 10
0.0
 20
-4001.109375
 10
0.0
 20
-4010.916015625
 10
0.0
 20
-4020.72265625
 10
0.0
 20
-4030.529296875
 10
0.0
 20
-4040.3359375
 10
0.0
 20
-4050.142578125
 10
0.0
 20
-4059.94921875
 10
0.0
 20
-4069.755859375
 10
0.0
 20
-4079.5625
 10
0.0
 20
-4089.369140625
 10
0.0
 20
-4099.17578125
 10
0.0
 20
-4108.982421875
 10
0.0
 20
-4118.7890625
 10
0.0
 20
-4128.595703125
 10
0.0
 20
-4138.40234375
 10
0.0
 20
-4148.208984375
 10
0.0
 20
-4158.015625
 10
0.0
 20
-4167.822265625
 10
0.0
 20
-4177.62890625
 10
0.0
 20
-4187.435546875
 10
0.0
 20
-4197.2421875
 10
0.0
 20
-4207.048828125
 10
0.0
 20
-4216.85546875
 10
0.0
 20
-4226.662109375
 10
0.0
 20
-4236.46875
 10
0.0
 20
-4246.275390625
 10
0.0
 20
-4256.08203125
 10
0.0
 20
-4265.888671875
 10
0.0
 20
-4275.6953125
 10
0.0
 20
-4285.501953125
 10
0.0
 20
-4295.30859375
 10
0.0
 20
-4305.115234375
 10
0.0
 20
-4314.921875
 10
0.0
 20
-4324.728515625
 10
0.0
 20
-4334.53515625
 10
0.0
 20
-4344.341796875
 10
0.0
 20
-4354.1484375
 10
0.0
 20
-4363.955078125
 10
0.0
 20
-4373.76171875
 10
0.0
 20
-4383.568359375
 10
0.0
 20
-4393.375
 10
0.0
 20
-4403.181640625
 10
0.0
 20
-4412.98828125
 10
0.0
 20
-4422.794921875
 10
0.0
 20
-4432.6015625
 10
0.0
 20
-4442.408203125
 10
0.0
 20
-4452.21484375
 10
0.0
 20
-4462.021484375
 10
0.0
 20
-4471.828125
 10
0.0
 20
-4481.634765625
 10
0.0
 20
-4491.44140625
 10
0.0
 20
-4501.248046875
 10
0.0
 20
-4511.0546875
 10
0.0
 20
-4520.861328125
 10
0.0
 20
-4530.66796875
 10
0.0
 20
-4540.474609375
 10
0.0
 20
-4550.28125
 10
0.0
 20
-4560.087890625
 10
0.0
 20
-4569.89453125
 10
0.0
 20
-4579.701171875
 10
0.0
 20
-4589.5078125
 10
0.0
 20
-4599.314453125
 10
0.0
 20
-4609.12109375
 10
0.0
 20
-4618.927734375
 10
0.0
 20
-4628.734375
 10
0.0
 20
-4638.541015625
 10
0.0
 20
-4648.34765625
 10
0.0
 20
-4658.154296875
 10
0.0
 20
-4667.9609375
 10
0.0
 20
-4677.767578125
 10
0.0
 20
-4687.57421875
 10
0.0
 20
-4697.380859375
 10
0.0
 20
-4707.1875
 10
0.0
 20
-4716.994140625
 10
0.0
 20
-4726.80078125
 10
0.0
 20
-4736.607421875
 10
0.0
 20
-4746.4140625
 10
0.0
 20
-4756.220703125
 10
0.0
 20
-4766.02734375
 10
0.0
 20
-4775.833984375
 10
0.0
 20
-4785.640625
 10
0.0
 20
-4795.447265625
 10
0.0
 20
-4805.25390625
 10
0.0
 20
-4815.060546875
 10
0.0
 20
-4824.8671875
 10
0.0
 20
-4834.673828125
 10
0.0
 20
-4844.48046875
 10
0.0
 20
-4854.287109375
 10
0.0
 20
-4864.09375
 10
0.0
 20
-4873.900390625
 10
0.0
 20
-4883.70703125
 10
0.0
 20
-4893.513671875
 10
0.0
 20
-4903.3203125
 10
0.0
 20
-4913.126953125
 10
0.0
 20
-4922.93359375
 10
0.0
 20
-4932.740234375
 10
0.0
 20
-4942.546875
 10
0.0
 20
-4952.353515625
 10
0.0
 20
-4962.16015625
 10
0.0
 20
-4971.966796875
 10
0.0
 20
-4981.7734375
 10
0.0
 20
-4991.580078125
 10
0.0
 20
-5001.38671875
 10
0.0
 20
-5011.193359375
 10
9.806640625
 20
-5011.193359375
 10
19.61328125
 20
-5011.193359375
 10
29.419921875
 20
-5011.193359375
 10
39.2265625
 20
-5011.193359375
 10
49.033203125
 20
-5011.193359375
 10
58.83984375
 20
-5011.193359375
 10
68.646484375
 20
-5011.193359375
 10
78.453125
 20
-5011.193359375
 10
88.259765625
 20
-5011.193359375
 10
98.06640625
 20
-5011.193359375
 10
107.873046875
 20
-5011.193359375
 10
117.6796875
 20
-5011.193359375
 10
127.486328125
 20
-5011.193359375
 10
137.29296875
 20
-5011.193359375
 10
147.099609375
 20
-5011.193359375
 10
156.90625
 20
-5011.193359375
 10
166.712890625
 20
-5011.193359375
 10
176.51953125
 20
-5011.193359375
 10
186.326171875
 20
-5011.193359375
 10
196.1328125
 20
-5011.193359375
 10
205.939453125
 20
-5011.193359375
 10
215.74609375
 20
-5011.193359375
 10
225.552734375
 20
-5011.193359375
 10
235.359375
 20
-5011.193359375
 10
245.166015625
 20
-5011.193359375
 10
254.97265625
 20
-5011.193359375
 10
264.779296875
 20
-5011.193359375
 10
274.5859375
 20
-5011.193359375
 10
284.392578125
 20
-5011.193359375
 10
294.19921875
 20
-5011.193359375
 10
304.005859375
 20
-5011.193359375
 10
313.8125
 20
-5011.193359375
 10
323.619140625
 20
-5011.193359375
 10
333.42578125
 20
-5011.193359375
 10
343.232421875
 20
-5011.193359375
 10
353.0390625
 20
-5011.193359375
 10
362.845703125
 20
-5011.193359375
 10
372.65234375
 20
-5011.193359375
 10
382.458984375
 20
-5011.193359375
 10
392.265625
 20
-5011.193359375
 10
402.072265625
 20
-5011.193359375
 10
411.87890625
 20
-5011.193359375
 10
421.685546875
 20
-5011.193359375
 10
431.4921875
 20
-5011.193359375
 10
441.298828125
 20
-5011.193359375
 10
451.10546875
 20
-5011.193359375
 10
460.912109375
 20
-5011.193359375
 10
470.71875
 20
-5011.193359375
 10
480.525390625
 20
-5011.193359375
 10
490.33203125
 20
-5011.193359375
 10
500.138671875
 20
-5011.193359375
 10
509.9453125
 20
-5011.193359375
 10
519.751953125
 20
-5011.193359375
 10
529.55859375
 20
-5011.193359375
 10
539.365234375
 20
-5011.193359375
 10
549.171875
 20
-5011.193359375
 10
558.978515625
 20
-5011.193359375
 10
568.78515625
 20
-5011.193359375
 10
578.591796875
 20
-5011.193359375
 10
588.3984375
 20
-5011.193359375
 10
598.205078125
 20
-5011.193359375
 10
608.01171875
 20
-5011.193359375
 10
617.818359375
 20
-5011.193359375
 10
627.625
 20
-5011.193359375
 10
637.431640625
 20
-5011.193359375
 10
647.23828125
 20
-5011.193359375
 10
657.044921875
 20
-5011.193359375
 10
666.8515625
 20
-5011.193359375
 10
676.658203125
 20
-5011.193359375
 10
686.46484375
 20
-5011.193359375
 10
696.271484375
 20
-5011.193359375
 10
706.078125
 20
-5011.193359375
 10
715.884765625
 20
-5011.193359375
 10
725.69140625
 20
-5011.193359375
 10
735.498046875
 20
-5011.193359375
 10
745.3046875
 20
-5011.193359375
 10
755.111328125
 20
-5011.193359375
 10
764.91796875
 20
-5011.193359375
 10
774.724609375
 20
-5011.193359375
 10
784.53125
 20
-5011.193359375
 10
794.337890625
 20
-5011.193359375
 10
804.14453125
 20
-5011.193359375
 10
813.951171875
 20
-5011.193359375
 10
823.7578125
 20
-5011.193359375
 10
833.564453125
 20
-5011.193359375
 10
843.37109375
 20
-5011.193359375
 10
853.177734375
 20
-5011.193359375
 10
862.984375
 20
-5011.193359375
 10
872.791015625
 20
-5011.193359375
 10
882.59765625
 20
-5011.193359375
 10
892.404296875
 20
-5011.193359375
 10
902.2109375
 20
-5011.193359375
 10
912.017578125
 20
-5011.193359375
 10
921.82421875
 20
-5011.193359375
 10
931.630859375
 20
-5011.193359375
 10
941.4375
 20
-5011.193359375
 10
951.244140625
 20
-5011.193359375
 10
961.05078125
 20
-5011.193359375
 10
970.857421875
 20
-5011.193359375
 10
980.6640625
 20
-5011.193359375
 10
990.470703125
 20
-5011.193359375
 10
1000.27734375
 20
-5011.193359375
 10
1010.083984375
 20
-5011.193359375
 10
1019.890625
 20
-5011.193359375
 10
1029.697265625
 20
-5011.193359375
 10
1039.50390625
 20
-5011.193359375
 10
1049.310546875
 20
-5011.193359375
 10
1059.1171875
 20
-5011.193359375
 10
1068.923828125
 20
-5011.193359375
 10
1078.73046875
 20
-5011.193359375
 10
1088.537109375
 20
-5011.193359375
 10
1098.34375
 20
-5011.193359375
 10
1108.150390625
 20
-5011.193359375
 10
1117.95703125
 20
-5011.193359375
 10
1127.763671875
 20
-5011.193359375
 10
1137.5703125
 20
-5011.193359375
 10
1147.376953125
 20
-5011.193359375
 10
1157.18359375
 20
-5011.193359375
 10
1166.990234375
 20
-5011.193359375
 10
1176.796875
 20
-5011.193359375
 10
1186.603515625
 20
-5011.193359375
 10
1196.41015625
 20
-5011.193359375
 10
1206.216796875
 20
-5011.193359375
 10
1216.0234375
 20
-5011.193359375
 10
1225.830078125
 20
-5011.193359375
 10
1235.63671875
 20
-5011.193359375
 10
1245.443359375
 20
-5011.193359375
 10
1255.25
 20
-5011.193359375
 10
1265.056640625
 20
-5011.193359375
 10
1274.86328125
 20
-5011.193359375
 10
1284.669921875
 20
-5011.193359375
 10
1294.4765625
 20
-5011.193359375
 10
1304.283203125
 20
-5011.193359375
 10
1314.08984375
 20
-5011.193359375
 10
1323.896484375
 20
-5011.193359375
 10
1333.703125
 20
-5011.193359375
 10
1343.509765625
 20
-5011.193359375
 10
1353.31640625
 20
-5011.193359375
 10
1363.123046875
 20
-5011.193359375
 10
1372.9296875
 20
-5011.193359375
 10
1382.736328125
 20
-5011.193359375
 10
1392.54296875
 20
-5011.193359375
 10
1402.349609375
 20
-5011.193359375
 10
1412.15625
 20
-5011.193359375
 10
1421.962890625
 20
-5011.193359375
 10
1431.76953125
 20
-5011.193359375
 10
1441.576171875
 20
-5011.193359375
 10
1451.3828125
 20
-5011.193359375
 10
1461.189453125
 20
-5011.193359375
 10
1470.99609375
 20
-5011.193359375
 10
1480.802734375
 20
-5011.193359375
 10
1490.609375
 20
-5011.193359375
 10
1500.416015625
 20
-5011.193359375
 10
1510.22265625
 20
-5011.193359375
 10
1520.029296875
 20
-5011.193359375
 10
1529.8359375
 20
-5011.193359375
 10
1539.642578125
 20
-5011.193359375
 10
1549.44921875
 20
-5011.193359375
 10
1559.255859375
 20
-5011.193359375
 10
1569.0625
 20
-5011.193359375
 10
1578.869140625
 20
-5011.193359375
 10
1588.67578125
 20
-5011.193359375
 10
1598.482421875
 20
-5011.193359375
 10
1608.2890625
 20
-5011.193359375
 10
1618.095703125
 20
-5011.193359375
 10
1627.90234375
 20
-5011.193359375
 10
1637.708984375
 20
-5011.193359375
 10
1647.515625
 20
-5011.193359375
 10
1657.322265625
 20
-5011.193359375
 10
1667.12890625
 20
-5011.193359375
 10
1676.935546875
 20
-5011.193359375
 10
1686.7421875
 20
-5011.193359375
 10
1696.548828125
 20
-5011.193359375
 10
1706.35546875
 20
-5011.193359375
 10
1716.162109375
 20
-5011.193359375
 10
1725.96875
 20
-5011.193359375
 10
1735.775390625
 20
-5011.193359375
 10
1745.58203125
 20
-5011.193359375
 10
1755.388671875
 20
-5011.193359375
 10
1765.1953125
 20
-5011.193359375
 10
1775.001953125
 20
-5011.193359375
 10
1784.80859375
 20
-5011.193359375
 10
1794.615234375
 20
-5011.193359375
 10
1804.421875
 20
-5011.193359375
 10
1814.228515625
 20
-5011.193359375
 10
1824.03515625
 20
-5011.193359375
 10
1833.841796875
 20
-5011.193359375
 10
1843.6484375
 20
-5011.193359375
 10
1853.455078125
 20
-5011.193359375
 10
1863.26171875
 20
-5011.193359375
 10
1873.068359375
 20
-5011.193359375
 10
1882.875
 20
-5011.193359375
 10
1892.681640625
 20
-5011.193359375
 10
1902.48828125
 20
-5011.193359375
 10
1912.294921875
 20
-5011.193359375
 10
1922.1015625
 20
-5011.193359375
 10
1931.908203125
 20
-5011.193359375
 10
1941.71484375
 20
-5011.193359375
 10
1951.521484375
 20
-5011.193359375
 10
1961.328125
 20
-5011.193359375
 10
1971.134765625
 20
-5011.193359375
 10
1980.94140625
 20
-5011.193359375
 10
1990.748046875
 20
-5011.193359375
 10
2000.5546875
 20
-5011.193359375
 10
2010.361328125
 20
-5011.193359375
 10
2020.16796875
 20
-5011.193359375
 10
2029.974609375
 20
-5011.193359375
 10
2039.78125
 20
-5011.193359375
 10
2049.587890625
 20
-5011.193359375
 10
2059.39453125
 20
-5011.193359375
 10
2069.201171875
 20
-5011.193359375
 10
2079.0078125
 20
-5011.193359375
 10
2088.814453125
 20
-5011.193359375
 10
2098.62109375
 20
-5011.193359375
 10
2108.427734375
 20
-5011.193359375
 10
2118.234375
 20
-5011.193359375
 10
2128.041015625
 20
-5011.193359375
 10
2137.84765625
 20
-5011.193359375
 10
2147.654296875
 20
-5011.193359375
 10
2157.4609375
 20
-5011.193359375
 10
2167.267578125
 20
-5011.193359375
 10
2177.07421875
 20
-5011.193359375
 10
2186.880859375
 20
-5011.193359375
 10
2196.6875
 20
-5011.193359375
 10
2206.494140625
 20
-5011.193359375
 10
2216.30078125
 20
-5011.193359375
 10
2226.107421875
 20
-5011.193359375
 10
2235.9140625
 20
-5011.193359375
 10
2245.720703125
 20
-5011.193359375
 10
2255.52734375
 20
-5011.193359375
 10
2265.333984375
 20
-5011.193359375
 10
2275.140625
 20
-5011.193359375
 10
2284.947265625
 20
-5011.193359375
 10
2294.75390625
 20
-5011.193359375
 10
2304.560546875
 20
-5011.193359375
 10
2314.3671875
 20
-5011.193359375
 10
2324.173828125
 20
-5011.193359375
 10
2333.98046875
 20
-5011.193359375
 10
2343.787109375
 20
-5011.193359375
 10
2353.59375
 20
-5011.193359375
 10
2363.400390625
 20
-5011.193359375
 10
2373.20703125
 20
-5011.193359375
 10
2383.013671875
 20
-5011.193359375
 10
2392.8203125
 20
-5011.193359375
 10
2402.626953125
 20
-5011.193359375
 10
2412.43359375
 20
-5011.193359375
 10
2422.240234375
 20
-5011.193359375
 10
2432.046875
 20
-5011.193359375
 10
2441.853515625
 20
-5011.193359375
 10
2451.66015625
 20
-5011.193359375
 10
2461.466796875
 20
-5011.193359375
 10
2471.2734375
 20
-5011.193359375
 10
2481.080078125
 20
-5011.193359375
 10
2490.88671875
 20
-5011.193359375
 10
2500.693359375
 20
-5011.193359375
 10
2510.5
 20
-5011.193359375
 10
2520.306640625
 20
-5011.193359375
 10
2530.11328125
 20
-5011.193359375
 10
2539.919921875
 20
-5011.193359375
 10
2549.7265625
 20
-5011.193359375
 10
2559.533203125
 20
-5011.193359375
 10
2569.33984375
 20
-5011.193359375
 10
2579.146484375
 20
-5011.193359375
 10
2588.953125
 20
-5011.193359375
 10
2598.759765625
 20
-5011.193359375
 10
2608.56640625
 20
-5011.193359375
 10
2618.373046875
 20
-5011.193359375
 10
2628.1796875
 20
-5011.193359375
 10
2637.986328125
 20
-5011.193359375
 10
2647.79296875
 20
-5011.193359375
 10
2657.599609375
 20
-5011.193359375
 10
2667.40625
 20
-5011.193359375
 10
2677.212890625
 20
-5011.193359375
 10
2687.01953125
 20
-5011.193359375
 10
2696.826171875
 20
-5011.193359375
 10
2706.6328125
 20
-5011.193359375
 10
2716.439453125
 20
-5011.193359375
 10
2726.24609375
 20
-5011.193359375
 10
2736.052734375
 20
-5011.193359375
 10
2745.859375
 20
-5011.193359375
 10
2755.666015625
 20
-5011.193359375
 10
2765.47265625
 20
-5011.193359375
 10
2775.279296875
 20
-5011.193359375
 10
2785.0859375
 20
-5011.193359375
 10
2794.892578125
 20
-5011.193359375
 10
2804.69921875
 20
-5011.193359375
 10
2814.505859375
 20
-5011.193359375
 10
2824.3125
 20
-5011.193359375
 10
2834.119140625
 20
-5011.193359375
 10
2843.92578125
 20
-5011.193359375
 10
2853.732421875
 20
-5011.193359375
 10
2863.5390625
 20
-5011.193359375
 10
2873.345703125
 20
-5011.193359375
 10
2883.15234375
 20
-5011.193359375
 10
2892.958984375
 20
-5011.193359375
 10
2902.765625
 20
-5011.193359375
 10
2912.572265625
 20
-5011.193359375
 10
2922.37890625
 20
-5011.193359375
 10
2932.185546875
 20
-5011.193359375
 10
2941.9921875
 20
-5011.193359375
 10
2951.798828125
 20
-5011.193359375
 10
2961.60546875
 20
-5011.193359375
 10
2971.412109375
 20
-5011.193359375
 10
2981.21875
 20
-5011.193359375
 10
2991.025390625
 20
-5011.193359375
 10
3000.83203125
 20
-5011.193359375
 10
3010.638671875
 20
-5011.193359375
 10
3020.4453125
 20
-5011.193359375
 10
3030.251953125
 20
-5011.193359375
 10
3040.05859375
 20
-5011.193359375
 10
3049.865234375
 20
-5011.193359375
 10
3059.671875
 20
-5011.193359375
 10
3069.478515625
 20
-5011.193359375
 10
3079.28515625
 20
-5011.193359375
 10
3089.091796875
 20
-5011.193359375
 10
3098.8984375
 20
-5011.193359375
 10
3108.705078125
 20
-5011.193359375
 10
3118.51171875
 20
-5011.193359375
 10
3128.318359375
 20
-5011.193359375
 10
3138.125
 20
-5011.193359375
 10
3147.931640625
 20
-5011.193359375
 10
3157.73828125
 20
-5011.193359375
 10
3167.544921875
 20
-5011.193359375
 10
3177.3515625
 20
-5011.193359375
 10
3187.158203125
 20
-5011.193359375
 10
3196.96484375
 20
-5011.193359375
 10
3206.771484375
 20
-5011.193359375
 10
3216.578125
 20
-5011.193359375
 10
3226.384765625
 20
-5011.193359375
 10
3236.19140625
 20
-5011.193359375
 10
3245.998046875
 20
-5011.193359375
 10
3255.8046875
 20
-5011.193359375
 10
3265.611328125
 20
-5011.193359375
 10
3275.41796875
 20
-5011.193359375
 10
3285.224609375
 20
-5011.193359375
 10
3295.03125
 20
-5011.193359375
 10
3304.837890625
 20
-5011.193359375
 10
3314.64453125
 20
-5011.193359375
 10
3324.451171875
 20
-5011.193359375
 10
3334.2578125
 20
-5011.193359375
 10
3344.064453125
 20
-5011.193359375
 10
3353.87109375
 20
-5011.193359375
 10
3363.677734375
 20
-5011.193359375
 10
3373.484375
 20
-5011.193359375
 10
3383.291015625
 20
-5011.193359375
 10
3393.09765625
 20
-5011.193359375
 10
3402.904296875
 20
-5011.193359375
 10
3412.7109375
 20
-5011.193359375
 10
3422.517578125
 20
-5011.193359375
 10
3432.32421875
 20
-5011.193359375
 10
3442.130859375
 20
-5011.193359375
 10
3451.9375
 20
-5011.193359375
 10
3461.744140625
 20
-5011.193359375
 10
3471.55078125
 20
-5011.193359375
 10
3481.357421875
 20
-5011.193359375
 10
3491.1640625
 20
-5011.193359375
 10
3500.970703125
 20
-5011.193359375
 10
3510.77734375
 20
-5011.193359375
 10
3520.583984375
 20
-5011.193359375
 10
3530.390625
 20
-5011.193359375
 10
3540.197265625
 20
-5011.193359375
 10
3550.00390625
 20
-5011.193359375
 10
3559.810546875
 20
-5011.193359375
 10
3569.6171875
 20
-5011.193359375
 10
3579.423828125
 20
-5011.193359375
 10
3589.23046875
 20
-5011.193359375
 10
3599.037109375
 20
-5011.193359375
 10
3608.84375
 20
-5011.193359375
 10
3618.650390625
 20
-5011.193359375
 10
3628.45703125
 20
-5011.193359375
 10
3638.263671875
 20
-5011.193359375
 10
3648.0703125
 20
-5011.193359375
 10
3657.876953125
 20
-5011.193359375
 10
3667.68359375
 20
-5011.193359375
 10
3677.490234375
 20
-5011.193359375
 10
3687.296875
 20
-5011.193359375
 10
3697.103515625
 20
-5011.193359375
 10
3706.91015625
 20
-5011.193359375
 10
3716.716796875
 20
-5011.193359375
 10
3726.5234375
 20
-5011.193359375
 10
3736.330078125
 20
-5011.193359375
 10
3746.13671875
 20
-5011.193359375
 10
3755.943359375
 20
-5011.193359375
 10
3765.75
 20
-5011.193359375
 10
3775.556640625
 20
-5011.193359375
 10
3785.36328125
 20
-5011.193359375
 10
3795.169921875
 20
-5011.193359375
 10
3804.9765625
 20
-5011.193359375
 10
3814.783203125
 20
-5011.193359375
 10
3824.58984375
 20
-5011.193359375
 10
3834.396484375
 20
-5011.193359375
 10
3844.203125
 20
-5011.193359375
 10
3854.009765625
 20
-5011.193359375
 10
3863.81640625
 20
-5011.193359375
 10
3873.623046875
 20
-5011.193359375
 10
3883.4296875
 20
-5011.193359375
 10
3893.236328125
 20
-5011.193359375
 10
3903.04296875
 20
-5011.193359375
 10
3912.849609375
 20
-5011.193359375
 10
3922.65625
 20
-5011.193359375
 10
3932.462890625
 20
-5011.193359375
 10
3942.26953125
 20
-5011.193359375
 10
3952.076171875
 20
-5011.193359375
 10
3961.8828125
 20
-5011.193359375
 10
3971.689453125
 20
-5011.193359375
 10
3981.49609375
 20
-5011.193359375
 10
3991.302734375
 20
-5011.193359375
 10
4001.109375
 20
-5011.193359375
 10
4010.916015625
 20
-5011.193359375
 10
4020.72265625
 20
-5011.193359375
 10
4030.529296875
 20
-5011.193359375
 10
4040.3359375
 20
-5011.193359375
 10
4050.142578125
 20
-5011.193359375
 10
4059.94921875
 20
-5011.193359375
 10
4069.755859375
 20
-5011.193359375
 10
4079.5625
 20
-5011.193359375
 10
4089.369140625
 20
-5011.193359375
 10
4099.17578125
 20
-5011.193359375
 10
4108.982421875
 20
-5011.193359375
 10
4118.7890625
 20
-5011.193359375
 10
4128.595703125
 20
-5011.193359375
 10
4138.40234375
 20
-5011.193359375
 10
4148.208984375
 20
-5011.193359375
 10
4158.015625
 20
-5011.193359375
 10
4167.822265625
 20
-5011.193359375
 10
4177.62890625
 20
-5011.193359375
 10
4187.435546875
 20
-5011.193359375
 10
4197.2421875
 20
-5011.193359375
 10
4207.048828125
 20
-5011.193359375
 10
4216.85546875
 20
-5011.193359375
 10
4226.662109375
 20
-5011.193359375
 10
4236.46875
 20
-5011.193359375
 10
4246.275390625
 20
-5011.193359375
 10
4256.08203125
 20
-5011.193359375
 10
4265.888671875
 20
-5011.193359375
 10
4275.6953125
 20
-5011.193359375
 10
4285.501953125
 20
-5011.193359375
 10
4295.30859375
 20
-5011.193359375
 10
4305.115234375
 20
-5011.193359375
 10
4314.921875
 20
-5011.193359375
 10
4324.728515625
 20
-5011.193359375
 10
4334.53515625
 20
-5011.193359375
 10
4344.341796875
 20
-5011.193359375
 10
4354.1484375
 20
-5011.193359375
 10
4363.955078125
 20
-5011.193359375
 10
4373.76171875
 20
-5011.193359375
 10
4383.568359375
 20
-5011.193359375
 10
4393.375
 20
-5011.193359375
 10
4403.181640625
 20
-5011.193359375
 10
4412.98828125
 20
-5011.193359375
 10
4422.794921875
 20
-5011.193359375
 10
4432.6015625
 20
-5011.193359375
 10
4442.408203125
 20
-5011.193359375
 10
4452.21484375
 20
-5011.193359375
 10
4462.021484375
 20
-5011.193359375
 10
4471.828125
 20
-5011.193359375
 10
4481.634765625
 20
-5011.193359375
 10
4491.44140625
 20
-5011.193359375
 10
4501.248046875
 20
-5011.193359375
 10
4511.0546875
 20
-5011.193359375
 10
4520.861328125
 20
-5011.193359375
 10
4530.66796875
 20
-5011.193359375
 10
4540.474609375
 20
-5011.193359375
 10
4550.28125
 20
-5011.193359375
 10
4560.087890625
 20
-5011.193359375
 10
4569.89453125
 20
-5011.193359375
 10
4579.701171875
 20
-5011.193359375
 10
4589.5078125
 20
-5011.193359375
 10
4599.314453125
 20
-5011.193359375
 10
4609.12109375
 20
-5011.193359375
 10
4618.927734375
 20
-5011.193359375
 10
4628.734375
 20
-5011.193359375
 10
4638.541015625
 20
-5011.193359375
 10
4648.34765625
 20
-5011.193359375
 10
4658.154296875
 20
-5011.193359375
 10
4667.9609375
 20
-5011.193359375
 10
4677.767578125
 20
-5011.193359375
 10
4687.57421875
 20
-5011.193359375
 10
4697.380859375
 20
-5011.193359375
 10
4707.1875
 20
-5011.193359375
 10
4716.994140625
 20
-5011.193359375
 10
4726.80078125
 20
-5011.193359375
 10
4736.607421875
 20
-5011.193359375
 10
4746.4140625
 20
-5011.193359375
 10
4756.220703125
 20
-5011.193359375
 10
4766.02734375
 20
-5011.193359375
 10
4775.833984375
 20
-5011.193359375
 10
4785.640625
 20
-5011.193359375
 10
4795.447265625
 20
-5011.193359375
 10
4805.25390625
 20
-5011.193359375
 10
4815.060546875
 20
-5011.193359375
 10
4824.8671875
 20
-5011.193359375
 10
4834.673828125
 20
-5011.193359375
 10
4844.48046875
 20
-5011.193359375
 10
4854.287109375
 20
-5011.193359375
 10
4864.09375
 20
-5011.193359375
 10
4873.900390625
 20
-5011.193359375
 10
4883.70703125
 20
-5011.193359375
 10
4893.513671875
 20
-5011.193359375
 10
4903.3203125
 20
-5011.193359375
 10
4913.126953125
 20
-5011.193359375
 10
4922.93359375
 20
-5011.193359375
 10
4932.740234375
 20
-5011.193359375
 10
4942.546875
 20
-5011.193359375
 10
4952.353515625
 20
-5011.193359375
 10
4962.16015625
 20
-5011.193359375
 10
4971.966796875
 20
-5011.193359375
 10
4981.7734375
 20
-5011.193359375
 10
4991.580078125
 20
-5011.193359375
 10
5001.38671875
 20
-5011.193359375
 10
5011.193359375
 20
-5011.193359375
 10
5011.193359375
 20
-5001.38671875
 10
5011.193359375
 20
-4991.580078125
 10
5011.193359375
 20
-4981.7734375
 10
5011.193359375
 20
-4971.966796875
 10
5011.193359375
 20
-4962.16015625
 10
5011.193359375
 20
-4952.353515625
 10
5011.193359375
 20
-4942.546875
 10
5011.193359375
 20
-4932.740234375
 10
5011.193359375
 20
-4922.93359375
 10
5011.193359375
 20
-4913.126953125
 10
5011.193359375
 20
-4903.3203125
 10
5011.193359375
 20
-4893.513671875
 10
5011.193359375
 20
-4883.70703125
 10
5011.193359375
 20
-4873.900390625
 10
5011.193359375
 20
-4864.09375
 10
5011.193359375
 20
-4854.287109375
 10
5011.193359375
 20
-4844.48046875
 10
5011.193359375
 20
-4834.673828125
 10
5011.193359375
 20
-4824.8671875
 10
5011.193359375
 20
-4815.060546875
 10
5011.193359375
 20
-4805.25390625
 10
5011.193359375
 20
-4795.447265625
 10
5011.193359375
 20
-4785.640625
 10
5011.193359375
 20
-4775.833984375
 10
5011.193359375
 20
-4766.02734375
 10
5011.193359375
 20
-4756.220703125
 10
5011.193359375
 20
-4746.4140625
 10
5011.193359375
 20
-4736.607421875
 10
5011.193359375
 20
-4726.80078125
 10
5011.193359375
 20
-4716.994140625
 10
5011.193359375
 20
-4707.1875
 10
5011.193359375
 20
-4697.380859375
 10
5011.193359375
 20
-4687.57421875
 10
5011.193359375
 20
-4677.767578125
 10
5011.193359375
 20
-4667.9609375
 10
5011.193359375
 20
-4658.154296875
 10
5011.193359375
 20
-4648.34765625
 10
5011.193359375
 20
-4638.541015625
 10
5011.193359375
 20
-4628.734375
 10
5011.193359375
 20
-4618.927734375
 10
5011.193359375
 20
-4609.12109375
 10
5011.193359375
 20
-4599.314453125
 10
5011.193359375
 20
-4589.5078125
 10
5011.193359375
 20
-4579.701171875
 10
5011.193359375
 20
-4569.89453125
 10
5011.193359375
 20
-4560.087890625
 10
5011.193359375
 20
-4550.28125
 10
5011.193359375
 20
-4540.474609375
 10
5011.193359375
 20
-4530.66796875
 10
5011.193359375
 20
-4520.861328125
 10
5011.193359375
 20
-4511.0546875
 10
5011.193359375
 20
-4501.248046875
 10
5011.193359375
 20
-4491.44140625
 10
5011.193359375
 20
-4481.634765625
 10
5011.193359375
 20
-4471.828125
 10
5011.193359375
 20
-4462.021484375
 10
5011.193359375
 20
-4452.21484375
 10
5011.193359375
 20
-4442.408203125
 10
5011.193359375
 20
-4432.6015625
 10
5011.193359375
 20
-4422.794921875
 10
5011.193359375
 20
-4412.98828125
 10
5011.193359375
 20
-4403.181640625
 10
5011.193359375
 20
-4393.375
 10
5011.193359375
 20
-4383.568359375
 10
5011.193359375
 20
-4373.76171875
 10
5011.193359375
 20
-4363.955078125
 10
5011.193359375
 20
-4354.1484375
 10
5011.193359375
 20
-4344.341796875
 10
5011.193359375
 20
-4334.53515625
 10
5011.193359375
 20
-4324.728515625
 10
5011.193359375
 20
-4314.921875
 10
5011.193359375
 20
-4305.115234375
 10
5011.193359375
 20
-4295.30859375
 10
5011.193359375
 20
-4285.501953125
 10
5011.193359375
 20
-4275.6953125
 10
5011.193359375
 20
-4265.888671875
 10
5011.193359375
 20
-4256.08203125
 10
5011.193359375
 20
-4246.275390625
 10
5011.193359375
 20
-4236.46875
 10
5011.193359375
 20
-4226.662109375
 10
5011.193359375
 20
-4216.85546875
 10
5011.193359375
 20
-4207.048828125
 10
5011.193359375
 20
-4197.2421875
 10
5011.193359375
 20
-4187.435546875
 10
5011.193359375
 20
-4177.62890625
 10
5011.193359375
 20
-4167.822265625
 10
5011.193359375
 20
-4158.015625
 10
5011.193359375
 20
-4148.208984375
 10
5011.193359375
 20
-4138.40234375
 10
5011.193359375
 20
-4128.595703125
 10
5011.193359375
 20
-4118.7890625
 10
5011.193359375
 20
-4108.982421875
 10
5011.193359375
 20
-4099.17578125
 10
5011.193359375
 20
-4089.369140625
 10
5011.193359375
 20
-4079.5625
 10
5011.193359375
 20
-4069.755859375
 10
5011.193359375
 20
-4059.94921875
 10
5011.193359375
 20
-4050.142578125
 10
5011.193359375
 20
-4040.3359375
 10
5011.193359375
 20
-4030.529296875
 10
5011.193359375
 20
-4020.72265625
 10
5011.193359375
 20
-4010.916015625
 10
5011.193359375
 20
-4001.109375
 10
5011.193359375
 20
-3991.302734375
 10
5011.193359375
 20
-3981.49609375
 10
5011.193359375
 20
-3971.689453125
 10
5011.193359375
 20
-3961.8828125
 10
5011.193359375
 20
-3952.076171875
 10
5011.193359375
 20
-3942.26953125
 10
5011.193359375
 20
-3932.462890625
 10
5011.193359375
 20
-3922.65625
 10
5011.193359375
 20
-3912.849609375
 10
5011.193359375
 20
-3903.04296875
 10
5011.193359375
 20
-3893.236328125
 10
5011.193359375
 20
-3883.4296875
 10
5011.193359375
 20
-3873.623046875
 10
5011.193359375
 20
-3863.81640625
 10
5011.193359375
 20
-3854.009765625
 10
5011.193359375
 20
-3844.203125
 10
5011.193359375
 20
-3834.396484375
 10
5011.193359375
 20
-3824.58984375
 10
5011.193359375
 20
-3814.783203125
 10
5011.193359375
 20
-3804.9765625
 10
5011.193359375
 20
-3795.169921875
 10
5011.193359375
 20
-3785.36328125
 10
5011.193359375
 20
-3775.556640625
 10
5011.193359375
 20
-3765.75
 10
5011.193359375
 20
-3755.943359375
 10
5011.193359375
 20
-3746.13671875
 10
5011.193359375
 20
-3736.330078125
 10
5011.193359375
 20
-3726.5234375
 10
5011.193359375
 20
-3716.716796875
 10
5011.193359375
 20
-3706.91015625
 10
5011.193359375
 20
-3697.103515625
 10
5011.193359375
 20
-3687.296875
 10
5011.193359375
 20
-3677.490234375
 10
5011.193359375
 20
-3667.68359375
 10
5011.193359375
 20
-3657.876953125
 10
5011.193359375
 20
-3648.0703125
 10
5011.193359375
 20
-3638.263671875
 10
5011.193359375
 20
-3628.45703125
 10
5011.193359375
 20
-3618.650390625
 10
5011.193359375
 20
-3608.84375
 10
5011.193359375
 20
-3599.037109375
 10
5011.193359375
 20
-3589.23046875
 10
5011.193359375
 20
-3579.423828125
 10
5011.193359375
 20
-3569.6171875
 10
5011.193359375
 20
-3559.810546875
 10
5011.193359375
 20
-3550.00390625
 10
5011.193359375
 20
-3540.197265625
 10
5011.193359375
 20
-3530.390625
 10
5011.193359375
 20
-3520.583984375
 10
5011.193359375
 20
-3510.77734375
 10
5011.193359375
 20
-3500.970703125
 10
5011.193359375
 20
-3491.1640625
 10
5011.193359375
 20
-3481.357421875
 10
5011.193359375
 20
-3471.55078125
 10
5011.193359375
 20
-3461.744140625
 10
5011.193359375
 20
-3451.9375
 10
5011.193359375
 20
-3442.130859375
 10
5011.193359375
 20
-3432.32421875
 10
5011.193359375
 20
-3422.517578125
 10
5011.193359375
 20
-3412.7109375
 10
5011.193359375
 20
-3402.904296875
 10
5011.193359375
 20
-3393.09765625
 10
5011.193359375
 20
-3383.291015625
 10
5011.193359375
 20
-3373.484375
 10
5011.193359375
 20
-3363.677734375
 10
5011.193359375
 20
-3353.87109375
 10
5011.193359375
 20
-3344.064453125
 10
5011.193359375
 20
-3334.2578125
 10
5011.193359375
 20
-3324.451171875
 10
5011.193359375
 20
-3314.64453125
 10
5011.193359375
 20
-3304.837890625
 10
5011.193359375
 20
-3295.03125
 10
5011.193359375
 20
-3285.224609375
 10
5011.193359375
 20
-3275.41796875
 10
5011.193359375
 20
-3265.611328125
 10
5011.193359375
 20
-3255.8046875
 10
5011.193359375
 20
-3245.998046875
 10
5011.193359375
 20
-3236.19140625
 10
5011.193359375
 20
-3226.384765625
 10
5011.193359375
 20
-3216.578125
 10
5011.193359375
 20
-3206.771484375
 10
5011.193359375
 20
-3196.96484375
 10
5011.193359375
 20
-3187.158203125
 10
5011.193359375
 20
-3177.3515625
 10
5011.193359375
 20
-3167.544921875
 10
5011.193359375
 20
-3157.73828125
 10
5011.193359375
 20
-3147.931640625
 10
5011.193359375
 20
-3138.125
 10
5011.193359375
 20
-3128.318359375
 10
5011.193359375
 20
-3118.51171875
 10
5011.193359375
 20
-3108.705078125
 10
5011.193359375
 20
-3098.8984375
 10
5011.193359375
 20
-3089.091796875
 10
5011.193359375
 20
-3079.28515625
 10
5011.193359375
 20
-3069.478515625
 10
5011.193359375
 20
-3059.671875
 10
5011.193359375
 20
-3049.865234375
 10
5011.193359375
 20
-3040.05859375
 10
5011.193359375
 20
-3030.251953125
 10
5011.193359375
 20
-3020.4453125
 10
5011.193359375
 20
-3010.638671875
 10
5011.193359375
 20
-3000.83203125
 10
5011.193359375
 20
-2991.025390625
 10
5011.193359375
 20
-2981.21875
 10
5011.193359375
 20
-2971.412109375
 10
5011.193359375
 20
-2961.60546875
 10
5011.193359375
 20
-2951.798828125
 10
5011.193359375
 20
-2941.9921875
 10
5011.193359375
 20
-2932.185546875
 10
5011.193359375
 20
-2922.37890625
 10
5011.193359375
 20
-2912.572265625
 10
5011.193359375
 20
-2902.765625
 10
5011.193359375
 20
-2892.958984375
 10
5011.193359375
 20
-2883.15234375
 10
5011.193359375
 20
-2873.345703125
 10
5011.193359375
 20
-2863.5390625
 10
5011.193359375
 20
-2853.732421875
 10
5011.193359375
 20
-2843.92578125
 10
5011.193359375
 20
-2834.119140625
 10
5011.193359375
 20
-2824.3125
 10
5011.193359375
 20
-2814.505859375
 10
5011.193359375
 20
-2804.69921875
 10
5011.193359375
 20
-2794.892578125
 10
5011.193359375
 20
-2785.0859375
 10
5011.193359375
 20
-2775.279296875
 10
5011.193359375
 20
-2765.47265625
 10
5011.193359375
 20
-2755.666015625
 10
5011.193359375
 20
-2745.859375
 10
5011.193359375
 20
-2736.052734375
 10
5011.193359375
 20
-2726.24609375
 10
5011.193359375
 20
-2716.439453125
 10
5011.193359375
 20
-2706.6328125
 10
5011.193359375
 20
-2696.826171875
 10
5011.193359375
 20
-2687.01953125
 10
5011.193359375
 20
-2677.212890625
 10
5011.193359375
 20
-2667.40625
 10
5011.193359375
 20
-2657.599609375
 10
5011.193359375
 20
-2647.79296875
 10
5011.193359375
 20
-2637.986328125
 10
5011.193359375
 20
-2628.1796875
 10
5011.193359375
 20
-2618.373046875
 10
5011.193359375
 20
-2608.56640625
 10
5011.193359375
 20
-2598.759765625
 10
5011.193359375
 20
-2588.953125
 10
5011.193359375
 20
-2579.146484375
 10
5011.193359375
 20
-2569.33984375
 10
5011.193359375
 20
-2559.533203125
 10
5011.193359375
 20
-2549.7265625
 10
5011.193359375
 20
-2539.919921875
 10
5011.193359375
 20
-2530.11328125
 10
5011.193359375
 20
-2520.306640625
 10
5011.193359375
 20
-2510.5
 10
5011.193359375
 20
-2500.693359375
 10
5011.193359375
 20
-2490.88671875
 10
5011.193359375
 20
-2481.080078125
 10
5011.193359375
 20
-2471.2734375
 10
5011.193359375
 20
-2461.466796875
 10
5011.193359375
 20
-2451.66015625
 10
5011.193359375
 20
-2441.853515625
 10
5011.193359375
 20
-2432.046875
 10
5011.193359375
 20
-2422.240234375
 10
5011.193359375
 20
-2412.43359375
 10
5011.193359375
 20
-2402.626953125
 10
5011.193359375
 20
-2392.8203125
 10
5011.193359375
 20
-2383.013671875
 10
5011.193359375
 20
-2373.20703125
 10
5011.193359375
 20
-2363.400390625
 10
5011.193359375
 20
-2353.59375
 10
5011.193359375
 20
-2343.787109375
 10
5011.193359375
 20
-2333.98046875
 10
5011.193359375
 20
-2324.173828125
 10
5011.193359375
 20
-2314.3671875
 10
5011.193359375
 20
-2304.560546875
 10
5011.193359375
 20
-2294.75390625
 10
5011.193359375
 20
-2284.947265625
 10
5011.193359375
 20
-2275.140625
 10
5011.193359375
 20
-2265.333984375
 10
5011.193359375
 20
-2255.52734375
 10
5011.193359375
 20
-2245.720703125
 10
5011.193359375
 20
-2235.9140625
 10
5011.193359375
 20
-2226.107421875
 10
5011.193359375
 20
-2216.30078125
 10
5011.193359375
 20
-2206.494140625
 10
5011.193359375
 20
-2196.6875
 10
5011.193359375
 20
-2186.880859375
 10
5011.193359375
 20
-2177.07421875
 10
5011.193359375
 20
-2167.267578125
 10
5011.193359375
 20
-2157.4609375
 10
5011.193359375
 20
-2147.654296875
 10
5011.193359375
 20
-2137.84765625
 10
5011.193359375
 20
-2128.041015625
 10
5011.193359375
 20
-2118.234375
 10
5011.193359375
 20
-2108.427734375
 10
5011.193359375
 20
-2098.62109375
 10
5011.193359375
 20
-2088.814453125
 10
5011.193359375
 20
-2079.0078125
 10
5011.193359375
 20
-2069.201171875
 10
5011.193359375
 20
-2059.39453125
 10
5011.193359375
 20
-2049.587890625
 10
5011.193359375
 20
-2039.78125
 10
5011.193359375
 20
-2029.974609375
 10
5011.193359375
 20
-2020.16796875
 10
5011.193359375
 20
-2010.361328125
 10
5011.193359375
 20
-2000.5546875
 10
5011.193359375
 20
-1990.748046875
 10
5011.193359375
 20
-1980.94140625
 10
5011.193359375
 20
-1971.134765625
 10
5011.193359375
 20
-1961.328125
 10
5011.193359375
 20
-1951.521484375
 10
5011.193359375
 20
-1941.71484375
 10
5011.193359375
 20
-1931.908203125
 10
5011.193359375
 20
-1922.1015625
 10
5011.193359375
 20
-1912.294921875
 10
5011.193359375
 20
-1902.48828125
 10
5011.193359375
 20
-1892.681640625
 10
5011.193359375
 20
-1882.875
 10
5011.193359375
 20
-1873.068359375
 10
5011.193359375
 20
-1863.26171875
 10
5011.193359375
 20
-1853.455078125
 10
5011.193359375
 20
-1843.6484375
 10
5011.193359375
 20
-1833.841796875
 10
5011.193359375
 20
-1824.03515625
 10
5011.193359375
 20
-1814.228515625
 10
5011.193359375
 20
-1804.421875
 10
5011.193359375
 20
-1794.615234375
 10
5011.193359375
 20
-1784.80859375
 10
5011.193359375
 20
-1775.001953125
 10
5011.193359375
 20
-1765.1953125
 10
5011.193359375
 20
-1755.388671875
 10
5011.193359375
 20
-1745.58203125
 10
5011.193359375
 20
-1735.775390625
 10
5011.193359375
 20
-1725.96875
 10
5011.193359375
 20
-1716.162109375
 10
5011.193359375
 20
-1706.35546875
 10
5011.193359375
 20
-1696.548828125
 10
5011.193359375
 20
-1686.7421875
 10
5011.193359375
 20
-1676.935546875
 10
5011.193359375
 20
-1667.12890625
 10
5011.193359375
 20
-1657.322265625
 10
5011.193359375
 20
-1647.515625
 10
5011.193359375
 20
-1637.708984375
 10
5011.193359375
 20
-1627.90234375
 10
5011.193359375
 20
-1618.095703125
 10
5011.193359375
 20
-1608.2890625
 10
5011.193359375
 20
-1598.482421875
 10
5011.193359375
 20
-1588.67578125
 10
5011.193359375
 20
-1578.869140625
 10
5011.193359375
 20
-1569.0625
 10
5011.193359375
 20
-1559.255859375
 10
5011.193359375
 20
-1549.44921875
 10
5011.193359375
 20
-1539.642578125
 10
5011.193359375
 20
-1529.8359375
 10
5011.193359375
 20
-1520.029296875
 10
5011.193359375
 20
-1510.22265625
 10
5011.193359375
 20
-1500.416015625
 10
5011.193359375
 20
-1490.609375
 10
5011.193359375
 20
-1480.802734375
 10
5011.193359375
 20
-1470.99609375
 10
5011.193359375
 20
-1461.189453125
 10
5011.193359375
 20
-1451.3828125
 10
5011.193359375
 20
-1441.576171875
 10
5011.193359375
 20
-1431.76953125
 10
5011.193359375
 20
-1421.962890625
 10
5011.193359375
 20
-1412.15625
 10
5011.193359375
 20
-1402.349609375
 10
5011.193359375
 20
-1392.54296875
 10
5011.193359375
 20
-1382.736328125
 10
5011.193359375
 20
-1372.9296875
 10
5011.193359375
 20
-1363.123046875
 10
5011.193359375
 20
-1353.31640625
 10
5011.193359375
 20
-1343.509765625
 10
5011.193359375
 20
-1333.703125
 10
5011.193359375
 20
-1323.896484375
 10
5011.193359375
 20
-1314.08984375
 10
5011.193359375
 20
-1304.283203125
 10
5011.193359375
 20
-1294.4765625
 10
5011.193359375
 20
-1284.669921875
 10
5011.193359375
 20
-1274.86328125
 10
5011.193359375
 20
-1265.056640625
 10
5011.193359375
 20
-1255.25
 10
5011.193359375
 20
-1245.443359375
 10
5011.193359375
 20
-1235.63671875
 10
5011.193359375
 20
-1225.830078125
 10
5011.193359375
 20
-1216.0234375
 10
5011.193359375
 20
-1206.216796875
 10
5011.193359375
 20
-1196.41015625
 10
5011.193359375
 20
-1186.603515625
 10
5011.193359375
 20
-1176.796875
 10
5011.193359375
 20
-1166.990234375
 10
5011.193359375
 20
-1157.18359375
 10
5011.193359375
 20
-1147.376953125
 10
5011.193359375
 20
-1137.5703125
 10
5011.193359375
 20
-1127.763671875
 10
5011.193359375
 20
-1117.95703125
 10
5011.193359375
 20
-1108.150390625
 10
5011.193359375
 20
-1098.34375
 10
5011.193359375
 20
-1088.537109375
 10
5011.193359375
 20
-1078.73046875
 10
5011.193359375
 20
-1068.923828125
 10
5011.193359375
 20
-1059.1171875
 10
5011.193359375
 20
-1049.310546875
 10
5011.193359375
 20
-1039.50390625
 10
5011.193359375
 20
-1029.697265625
 10
5011.193359375
 20
-1019.890625
 10
5011.193359375
 20
-1010.083984375
 10
5011.193359375
 20
-1000.27734375
 10
5011.193359375
 20
-990.470703125
 10
5011.193359375
 20
-980.6640625
 10
5011.193359375
 20
-970.857421875
 10
5011.193359375
 20
-961.05078125
 10
5011.193359375
 20
-951.244140625
 10
5011.193359375
 20
-941.4375
 10
5011.193359375
 20
-931.630859375
 10
5011.193359375
 20
-921.82421875
 10
5011.193359375
 20
-912.017578125
 10
5011.193359375
 20
-902.2109375
 10
5011.193359375
 20
-892.404296875
 10
5011.193359375
 20
-882.59765625
 10
5011.193359375
 20
-872.791015625
 10
5011.193359375
 20
-862.984375
 10
5011.193359375
 20
-853.177734375
 10
5011.193359375
 20
-843.37109375
 10
5011.193359375
 20
-833.564453125
 10
5011.193359375
 20
-823.7578125
 10
5011.193359375
 20
-813.951171875
 10
5011.193359375
 20
-804.14453125
 10
5011.193359375
 20
-794.337890625
 10
5011.193359375
 20
-784.53125
 10
5011.193359375
 20
-774.724609375
 10
5011.193359375
 20
-764.91796875
 10
5011.193359375
 20
-755.111328125
 10
5011.193359375
 20
-745.3046875
 10
5011.193359375
 20
-735.498046875
 10
5011.193359375
 20
-725.69140625
 10
5011.193359375
 20
-715.884765625
 10
5011.193359375
 20
-706.078125
 10
5011.193359375
 20
-696.271484375
 10
5011.193359375
 20
-686.46484375
 10
5011.193359375
 20
-676.658203125
 10
5011.193359375
 20
-666.8515625
 10
5011.193359375
 20
-657.044921875
 10
5011.193359375
 20
-647.23828125
 10
5011.193359375
 20
-637.431640625
 10
5011.193359375
 20
-627.625
 10
5011.193359375
 20
-617.818359375
 10
5011.193359375
 20
-608.01171875
 10
5011.193359375
 20
-598.205078125
 10
5011.193359375
 20
-588.3984375
 10
5011.193359375
 20
-578.591796875
 10
5011.193359375
 20
-568.78515625
 10
5011.193359375
 20
-558.978515625
 10
5011.193359375
 20
-549.171875
 10
5011.193359375
 20
-539.365234375
 10
5011.193359375
 20
-529.55859375
 10
5011.193359375
 20
-519.751953125
 10
5011.193359375
 20
-509.9453125
 10
5011.193359375
 20
-500.138671875
 10
5011.193359375
 20
-490.33203125
 10
5011.193359375
 20
-480.525390625
 10
5011.193359375
 20
-470.71875
 10
5011.193359375
 20
-460.912109375
 10
5011.193359375
 20
-451.10546875
 10
5011.193359375
 20
-441.298828125
 10
5011.193359375
 20
-431.4921875
 10
5011.193359375
 20
-421.685546875
 10
5011.193359375
 20
-411.87890625
 10
5011.193359375
 20
-402.072265625
 10
5011.193359375
 20
-392.265625
 10
5011.193359375
 20
-382.458984375
 10
5011.193359375
 20
-372.65234375
 10
5011.193359375
 20
-362.845703125
 10
5011.193359375
 20
-353.0390625
 10
5011.193359375
 20
-343.232421875
 10
5011.193359375
 20
-333.42578125
 10
5011.193359375
 20
-323.619140625
 10
5011.193359375
 20
-313.8125
 10
5011.193359375
 20
-304.005859375
 10
5011.193359375
 20
-294.19921875
 10
5011.193359375
 20
-284.392578125
 10
5011.193359375
 20
-274.5859375
 10
5011.193359375
 20
-264.779296875
 10
5011.193359375
 20
-254.97265625
 10
5011.193359375
 20
-245.166015625
 10
5011.193359375
 20
-235.359375
 10
5011.193359375
 20
-225.552734375
 10
5011.193359375
 20
-215.74609375
 10
5011.193359375
 20
-205.939453125
 10
5011.193359375
 20
-196.1328125
 10
5011.193359375
 20
-186.326171875
 10
5011.193359375
 20
-176.51953125
 10
5011.193359375
 20
-166.712890625
 10
5011.193359375
 20
-156.90625
 10
5011.193359375
 20
-147.099609375
 10
5011.193359375
 20
-137.29296875
 10
5011.193359375
 20
-127.486328125
 10
5011.193359375
 20
-117.6796875
 10
5011.193359375
 20
-107.873046875
 10
5011.193359375
 20
-98.06640625
 10
5011.193359375
 20
-88.259765625
 10
5011.193359375
 20
-78.453125
 10
5011.193359375
 20
-68.646484375
 10
5011.193359375
 20
-58.83984375
 10
5011.193359375
 20
-49.033203125
 10
5011.193359375
 20
-39.2265625
 10
5011.193359375
 20
-29.419921875
 10
5011.193359375
 20
-19.61328125
 10
5011.193359375
 20
-9.806640625
 10
5011.193359375
 20
-0.0
 10
5001.38671875
 20
-0.0
 10
4991.580078125
 20
-0.0
 10
4981.7734375
 20
-0.0
 10
4971.966796875
 20
-0.0
 10
4962.16015625
 20
-0.0
 10
4952.353515625
 20
-0.0
 10
4942.546875
 20
-0.0
 10
4932.740234375
 20
-0.0
 10
4922.93359375
 20
-0.0
 10
4913.126953125
 20
-0.0
 10
4903.3203125
 20
-0.0
 10
4893.513671875
 20
-0.0
 10
4883.70703125
 20
-0.0
 10
4873.900390625
 20
-0.0
 10
4864.09375
 20
-0.0
 10
4854.287109375
 20
-0.0
 10
4844.48046875
 20
-0.0
 10
4834.673828125
 20
-0.0
 10
4824.8671875
 20
-0.0
 10
4815.060546875
 20
-0.0
 10
4805.25390625
 20
-0.0
 10
4795.447265625
 20
-0.0
 10
4785.640625
 20
-0.0
 10
4775.833984375
 20
-0.0
 10
4766.02734375
 20
-0.0
 10
4756.220703125
 20
-0.0
 10
4746.4140625
 20
-0.0
 10
4736.607421875
 20
-0.0
 10
4726.80078125
 20
-0.0
 10
4716.994140625
 20
-0.0
 10
4707.1875
 20
-0.0
 10
4697.380859375
 20
-0.0
 10
4687.57421875
 20
-0.0
 10
4677.767578125
 20
-0.0
 10
4667.9609375
 20
-0.0
 10
4658.154296875
 20
-0.0
 10
4648.34765625
 20
-0.0
 10
4638.541015625
 20
-0.0
 10
4628.734375
 20
-0.0
 10
4618.927734375
 20
-0.0
 10
4609.12109375
 20
-0.0
 10
4599.314453125
 20
-0.0
 10
4589.5078125
 20
-0.0
 10
4579.701171875
 20
-0.0
 10
4569.89453125
 20
-0.0
 10
4560.087890625
 20
-0.0
 10
4550.28125
 20
-0.0
 10
4540.474609375
 20
-0.0
 10
4530.66796875
 20
-0.0
 10
4520.861328125
 20
-0.0
 10
4511.0546875
 20
-0.0
 10
4501.248046875
 20
-0.0
 10
4491.44140625
 20
-0.0
 10
4481.634765625
 20
-0.0
 10
4471.828125
 20
-0.0
 10
4462.021484375
 20
-0.0
 10
4452.21484375
 20
-0.0
 10
4442.408203125
 20
-0.0
 10
4432.6015625
 20
-0.0
 10
4422.794921875
 20
-0.0
 10
4412.98828125
 20
-0.0
 10
4403.181640625
 20
-0.0
 10
4393.375
 20
-0.0
 10
4383.568359375
 20
-0.0
 10
4373.76171875
 20
-0.0
 10
4363.955078125
 20
-0.0
 10
4354.1484375
 20
-0.0
 10
4344.341796875
 20
-0.0
 10
4334.53515625
 20
-0.0
 10
4324.728515625
 20
-0.0
 10
4314.921875
 20
-0.0
 10
4305.115234375
 20
-0.0
 10
4295.30859375
 20
-0.0
 10
4285.501953125
 20
-0.0
 10
4275.6953125
 20
-0.0
 10
4265.888671875
 20
-0.0
 10
4256.08203125
 20
-0.0
 10
4246.275390625
 20
-0.0
 10
4236.46875
 20
-0.0
 10
4226.662109375
 20
-0.0
 10
4216.85546875
 20
-0.0
 10
4207.048828125
 20
-0.0
 10
4197.2421875
 20
-0.0
 10
4187.435546875
 20
-0.0
 10
4177.62890625
 20
-0.0
 10
4167.822265625
 20
-0.0
 10
4158.015625
 20
-0.0
 10
4148.208984375
 20
-0.0
 10
4138.40234375
 20
-0.0
 10
4128.595703125
 20
-0.0
 10
4118.7890625
 20
-0.0
 10
4108.982421875
 20
-0.0
 10
4099.17578125
 20
-0.0
 10
4089.369140625
 20
-0.0
 10
4079.5625
 20
-0.0
 10
4069.755859375
 20
-0.0
 10
4059.94921875
 20
-0.0
 10
4050.142578125
 20
-0.0
 10
4040.3359375
 20
-0.0
 10
4030.529296875
 20
-0.0
 10
4020.72265625
 20
-0.0
 10
4010.916015625
 20
-0.0
 10
4001.109375
 20
-0.0
 10
3991.302734375
 20
-0.0
 10
3981.49609375
 20
-0.0
 10
3971.689453125
 20
-0.0
 10
3961.8828125
 20
-0.0
 10
3952.076171875
 20
-0.0
 10
3942.26953125
 20
-0.0
 10
3932.462890625
 20
-0.0
 10
3922.65625
 20
-0.0
 10
3912.849609375
 20
-0.0
 10
3903.04296875
 20
-0.0
 10
3893.236328125
 20
-0.0
 10
3883.4296875
 20
-0.0
 10
3873.623046875
 20
-0.0
 10
3863.81640625
 20
-0.0
 10
3854.009765625
 20
-0.0
 10
3844.203125
 20
-0.0
 10
3834.396484375
 20
-0.0
 10
3824.58984375
 20
-0.0
 10
3814.783203125
 20
-0.0
 10
3804.9765625
 20
-0.0
 10
3795.169921875
 20
-0.0
 10
3785.36328125
 20
-0.0
 10
3775.556640625
 20
-0.0
 10
3765.75
 20
-0.0
 10
3755.943359375
 20
-0.0
 10
3746.13671875
 20
-0.0
 10
3736.330078125
 20
-0.0
 10
3726.5234375
 20
-0.0
 10
3716.716796875
 20
-0.0
 10
3706.91015625
 20
-0.0
 10
3697.103515625
 20
-0.0
 10
3687.296875
 20
-0.0
 10
3677.490234375
 20
-0.0
 10
3667.68359375
 20
-0.0
 10
3657.876953125
 20
-0.0
 10
3648.0703125
 20
-0.0
 10
3638.263671875
 20
-0.0
 10
3628.45703125
 20
-0.0
 10
3618.650390625
 20
-0.0
 10
3608.84375
 20
-0.0
 10
3599.037109375
 20
-0.0
 10
3589.23046875
 20
-0.0
 10
3579.423828125
 20
-0.0
 10
3569.6171875
 20
-0.0
 10
3559.810546875
 20
-0.0
 10
3550.00390625
 20
-0.0
 10
3540.197265625
 20
-0.0
 10
3530.390625
 20
-0.0
 10
3520.583984375
 20
-0.0
 10
3510.77734375
 20
-0.0
 10
3500.970703125
 20
-0.0
 10
3491.1640625
 20
-0.0
 10
3481.357421875
 20
-0.0
 10
3471.55078125
 20
-0.0
 10
3461.744140625
 20
-0.0
 10
3451.9375
 20
-0.0
 10
3442.130859375
 20
-0.0
 10
3432.32421875
 20
-0.0
 10
3422.517578125
 20
-0.0
 10
3412.7109375
 20
-0.0
 10
3402.904296875
 20
-0.0
 10
3393.09765625
 20
-0.0
 10
3383.291015625
 20
-0.0
 10
3373.484375
 20
-0.0
 10
3363.677734375
 20
-0.0
 10
3353.87109375
 20
-0.0
 10
3344.064453125
 20
-0.0
 10
3334.2578125
 20
-0.0
 10
3324.451171875
 20
-0.0
 10
3314.64453125
 20
-0.0
 10
3304.837890625
 20
-0.0
 10
3295.03125
 20
-0.0
 10
3285.224609375
 20
-0.0
 10
3275.41796875
 20
-0.0
 10
3265.611328125
 20
-0.0
 10
3255.8046875
 20
-0.0
 10
3245.998046875
 20
-0.0
 10
3236.19140625
 20
-0.0
 10
3226.384765625
 20
-0.0
 10
3216.578125
 20
-0.0
 10
3206.771484375
 20
-0.0
 10
3196.96484375
 20
-0.0
 10
3187.158203125
 20
-0.0
 10
3177.3515625
 20
-0.0
 10
3167.544921875
 20
-0.0
 10
3157.73828125
 20
-0.0
 10
3147.931640625
 20
-0.0
 10
3138.125
 20
-0.0
 10
3128.318359375
 20
-0.0
 10
3118.51171875
 20
-0.0
 10
3108.705078125
 20
-0.0
 10
3098.8984375
 20
-0.0
 10
3089.091796875
 20
-0.0
 10
3079.28515625
 20
-0.0
 10
3069.478515625
 20
-0.0
 10
3059.671875
 20
-0.0
 10
3049.865234375
 20
-0.0
 10
3040.05859375
 20
-0.0
 10
3030.251953125
 20
-0.0
 10
3020.4453125
 20
-0.0
 10
3010.638671875
 20
-0.0
 10
3000.83203125
 20
-0.0
 10
2991.025390625
 20
-0.0
 10
2981.21875
 20
-0.0
 10
2971.412109375
 20
-0.0
 10
2961.60546875
 20
-0.0
 10
2951.798828125
 20
-0.0
 10
2941.9921875
 20
-0.0
 10
2932.185546875
 20
-0.0
 10
2922.37890625
 20
-0.0
 10
2912.572265625
 20
-0.0
 10
2902.765625
 20
-0.0
 10
2892.958984375
 20
-0.0
 10
2883.15234375
 20
-0.0
 10
2873.345703125
 20
-0.0
 10
2863.5390625
 20
-0.0
 10
2853.732421875
 20
-0.0
 10
2843.92578125
 20
-0.0
 10
2834.119140625
 20
-0.0
 10
2824.3125
 20
-0.0
 10
2814.505859375
 20
-0.0
 10
2804.69921875
 20
-0.0
 10
2794.892578125
 20
-0.0
 10
2785.0859375
 20
-0.0
 10
2775.279296875
 20
-0.0
 10
2765.47265625
 20
-0.0
 10
2755.666015625
 20
-0.0
 10
2745.859375
 20
-0.0
 10
2736.052734375
 20
-0.0
 10
2726.24609375
 20
-0.0
 10
2716.439453125
 20
-0.0
 10
2706.6328125
 20
-0.0
 10
2696.826171875
 20
-0.0
 10
2687.01953125
 20
-0.0
 10
2677.212890625
 20
-0.0
 10
2667.40625
 20
-0.0
 10
2657.599609375
 20
-0.0
 10
2647.79296875
 20
-0.0
 10
2637.986328125
 20
-0.0
 10
2628.1796875
 20
-0.0
 10
2618.373046875
 20
-0.0
 10
2608.56640625
 20
-0.0
 10
2598.759765625
 20
-0.0
 10
2588.953125
 20
-0.0
 10
2579.146484375
 20
-0.0
 10
2569.33984375
 20
-0.0
 10
2559.533203125
 20
-0.0
 10
2549.7265625
 20
-0.0
 10
2539.919921875
 20
-0.0
 10
2530.11328125
 20
-0.0
 10
2520.306640625
 20
-0.0
 10
2510.5
 20
-0.0
 10
2500.693359375
 20
-0.0
 10
2490.88671875
 20
-0.0
 10
2481.080078125
 20
-0.0
 10
2471.2734375
 20
-0.0
 10
2461.466796875
 20
-0.0
 10
2451.66015625
 20
-0.0
 10
2441.853515625
 20
-0.0
 10
2432.046875
 20
-0.0
 10
2422.240234375
 20
-0.0
 10
2412.43359375
 20
-0.0
 10
2402.626953125
 20
-0.0
 10
2392.8203125
 20
-0.0
 10
2383.013671875
 20
-0.0
 10
2373.20703125
 20
-0.0
 10
2363.400390625
 20
-0.0
 10
2353.59375
 20
-0.0
 10
2343.787109375
 20
-0.0
 10
2333.98046875
 20
-0.0
 10
2324.173828125
 20
-0.0
 10
2314.3671875
 20
-0.0
 10
2304.560546875
 20
-0.0
 10
2294.75390625
 20
-0.0
 10
2284.947265625
 20
-0.0
 10
2275.140625
 20
-0.0
 10
2265.333984375
 20
-0.0
 10
2255.52734375
 20
-0.0
 10
2245.720703125
 20
-0.0
 10
2235.9140625
 20
-0.0
 10
2226.107421875
 20
-0.0
 10
2216.30078125
 20
-0.0
 10
2206.494140625
 20
-0.0
 10
2196.6875
 20
-0.0
 10
2186.880859375
 20
-0.0
 10
2177.07421875
 20
-0.0
 10
2167.267578125
 20
-0.0
 10
2157.4609375
 20
-0.0
 10
2147.654296875
 20
-0.0
 10
2137.84765625
 20
-0.0
 10
2128.041015625
 20
-0.0
 10
2118.234375
 20
-0.0
 10
2108.427734375
 20
-0.0
 10
2098.62109375
 20
-0.0
 10
2088.814453125
 20
-0.0
 10
2079.0078125
 20
-0.0
 10
2069.201171875
 20
-0.0
 10
2059.39453125
 20
-0.0
 10
2049.587890625
 20
-0.0
 10
2039.78125
 20
-0.0
 10
2029.974609375
 20
-0.0
 10
2020.16796875
 20
-0.0
 10
2010.361328125
 20
-0.0
 10
2000.5546875
 20
-0.0
 10
1990.748046875
 20
-0.0
 10
1980.94140625
 20
-0.0
 10
1971.134765625
 20
-0.0
 10
1961.328125
 20
-0.0
 10
1951.521484375
 20
-0.0
 10
1941.71484375
 20
-0.0
 10
1931.908203125
 20
-0.0
 10
1922.1015625
 20
-0.0
 10
1912.294921875
 20
-0.0
 10
1902.48828125
 20
-0.0
 10
1892.681640625
 20
-0.0
 10
1882.875
 20
-0.0
 10
1873.068359375
 20
-0.0
 10
1863.26171875
 20
-0.0
 10
1853.455078125
 20
-0.0
 10
1843.6484375
 20
-0.0
 10
1833.841796875
 20
-0.0
 10
1824.03515625
 20
-0.0
 10
1814.228515625
 20
-0.0
 10
1804.421875
 20
-0.0
 10
1794.615234375
 20
-0.0
 10
1784.80859375
 20
-0.0
 10
1775.001953125
 20
-0.0
 10
1765.1953125
 20
-0.0
 10
1755.388671875
 20
-0.0
 10
1745.58203125
 20
-0.0
 10
1735.775390625
 20
-0.0
 10
1725.96875
 20
-0.0
 10
1716.162109375
 20
-0.0
 10
1706.35546875
 20
-0.0
 10
1696.548828125
 20
-0.0
 10
1686.7421875
 20
-0.0
 10
1676.935546875
 20
-0.0
 10
1667.12890625
 20
-0.0
 10
1657.322265625
 20
-0.0
 10
1647.515625
 20
-0.0
 10
1637.708984375
 20
-0.0
 10
1627.90234375
 20
-0.0
 10
1618.095703125
 20
-0.0
 10
1608.2890625
 20
-0.0
 10
1598.482421875
 20
-0.0
 10
1588.67578125
 20
-0.0
 10
1578.869140625
 20
-0.0
 10
1569.0625
 20
-0.0
 10
1559.255859375
 20
-0.0
 10
1549.44921875
 20
-0.0
 10
1539.642578125
 20
-0.0
 10
1529.8359375
 20
-0.0
 10
1520.029296875
 20
-0.0
 10
1510.22265625
 20
-0.0
 10
1500.416015625
 20
-0.0
 10
1490.609375
 20
-0.0
 10
1480.802734375
 20
-0.0
 10
1470.99609375
 20
-0.0
 10
1461.189453125
 20
-0.0
 10
1451.3828125
 20
-0.0
 10
1441.576171875
 20
-0.0
 10
1431.76953125
 20
-0.0
 10
1421.962890625
 20
-0.0
 10
1412.15625
 20
-0.0
 10
1402.349609375
 20
-0.0
 10
1392.54296875
 20
-0.0
 10
1382.736328125
 20
-0.0
 10
1372.9296875
 20
-0.0
 10
1363.123046875
 20
-0.0
 10
1353.31640625
 20
-0.0
 10
1343.509765625
 20
-0.0
 10
1333.703125
 20
-0.0
 10
1323.896484375
 20
-0.0
 10
1314.08984375
 20
-0.0
 10
1304.283203125
 20
-0.0
 10
1294.4765625
 20
-0.0
 10
1284.669921875
 20
-0.0
 10
1274.86328125
 20
-0.0
 10
1265.056640625
 20
-0.0
 10
1255.25
 20
-0.0
 10
1245.443359375
 20
-0.0
 10
1235.63671875
 20
-0.0
 10
1225.830078125
 20
-0.0
 10
1216.0234375
 20
-0.0
 10
1206.216796875
 20
-0.0
 10
1196.41015625
 20
-0.0
 10
1186.603515625
 20
-0.0
 10
1176.796875
 20
-0.0
 10
1166.990234375
 20
-0.0
 10
1157.18359375
 20
-0.0
 10
1147.376953125
 20
-0.0
 10
1137.5703125
 20
-0.0
 10
1127.763671875
 20
-0.0
 10
1117.95703125
 20
-0.0
 10
1108.150390625
 20
-0.0
 10
1098.34375
 20
-0.0
 10
1088.537109375
 20
-0.0
 10
1078.73046875
 20
-0.0
 10
1068.923828125
 20
-0.0
 10
1059.1171875
 20
-0.0
 10
1049.310546875
 20
-0.0
 10
1039.50390625
 20
-0.0
 10
1029.697265625
 20
-0.0
 10
1019.890625
 20
-0.0
 10
1010.083984375
 20
-0.0
 10
1000.27734375
 20
-0.0
 10
990.470703125
 20
-0.0
 10
980.6640625
 20
-0.0
 10
970.857421875
 20
-0.0
 10
961.05078125
 20
-0.0
 10
951.244140625
 20
-0.0
 10
941.4375
 20
-0.0
 10
931.630859375
 20
-0.0
 10
921.82421875
 20
-0.0
 10
912.017578125
 20
-0.0
 10
902.2109375
 20
-0.0
 10
892.404296875
 20
-0.0
 10
882.59765625
 20
-0.0
 10
872.791015625
 20
-0.0
 10
862.984375
 20
-0.0
 10
853.177734375
 20
-0.0
 10
843.37109375
 20
-0.0
 10
833.564453125
 20
-0.0
 10
823.7578125
 20
-0.0
 10
813.951171875
 20
-0.0
 10
804.14453125
 20
-0.0
 10
794.337890625
 20
-0.0
 10
784.53125
 20
-0.0
 10
774.724609375
 20
-0.0
 10
764.91796875
 20
-0.0
 10
755.111328125
 20
-0.0
 10
745.3046875
 20
-0.0
 10
735.498046875
 20
-0.0
 10
725.69140625
 20
-0.0
 10
715.884765625
 20
-0.0
 10
706.078125
 20
-0.0
 10
696.271484375
 20
-0.0
 10
686.46484375
 20
-0.0
 10
676.658203125
 20
-0.0
 10
666.8515625
 20
-0.0
 10
657.044921875
 20
-0.0
 10
647.23828125
 20
-0.0
 10
637.431640625
 20
-0.0
 10
627.625
 20
-0.0
 10
617.818359375
 20
-0.0
 10
608.01171875
 20
-0.0
 10
598.205078125
 20
-0.0
 10
588.3984375
 20
-0.0
 10
578.591796875
 20
-0.0
 10
568.78515625
 20
-0.0
 10
558.978515625
 20
-0.0
 10
549.171875
 20
-0.0
 10
539.365234375
 20
-0.0
 10
529.55859375
 20
-0.0
 10
519.751953125
 20
-0.0
 10
509.9453125
 20
-0.0
 10
500.138671875
 20
-0.0
 10
490.33203125
 20
-0.0
 10
480.525390625
 20
-0.0
 10
470.71875
 20
-0.0
 10
460.912109375
 20
-0.0
 10
451.10546875
 20
-0.0
 10
441.298828125
 20
-0.0
 10
431.4921875
 20
-0.0
 10
421.685546875
 20
-0.0
 10
411.87890625
 20
-0.0
 10
402.072265625
 20
-0.0
 10
392.265625
 20
-0.0
 10
382.458984375
 20
-0.0
 10
372.65234375
 20
-0.0
 10
362.845703125
 20
-0.0
 10
353.0390625
 20
-0.0
 10
343.232421875
 20
-0.0
 10
333.42578125
 20
-0.0
 10
323.619140625
 20
-0.0
 10
313.8125
 20
-0.0
 10
304.005859375
 20
-0.0
 10
294.19921875
 20
-0.0
 10
284.392578125
 20
-0.0
 10
274.5859375
 20
-0.0
 10
264.779296875
 20
-0.0
 10
254.97265625
 20
-0.0
 10
245.166015625
 20
-0.0
 10
235.359375
 20
-0.0
 10
225.552734375
 20
-0.0
 10
215.74609375
 20
-0.0
 10
205.939453125
 20
-0.0
 10
196.1328125
 20
-0.0
 10
186.326171875
 20
-0.0
 10
176.51953125
 20
-0.0
 10
166.712890625
 20
-0.0
 10
156.90625
 20
-0.0
 10
147.099609375
 20
-0.0
 10
137.29296875
 20
-0.0
 10
127.486328125
 20
-0.0
 10
117.6796875
 20
-0.0
 10
107.873046875
 20
-0.0
 10
98.06640625
 20
-0.0
 10
88.259765625
 20
-0.0
 10
78.453125
 20
-0.0
 10
68.646484375
 20
-0.0
 10
58.83984375
 20
-0.0
 10
49.033203125
 20
-0.0
 10
39.2265625
 20
-0.0
 10
29.419921875
 20
-0.0
 10
19.61328125
 20
-0.0
 10
9.806640625
 20
-0.0
  0
LWPOLYLINE
  5
34
330
17
100
AcDbEntity
  8
substrate
100
AcDbPolyline
 90
328
 70
1
 43
0.5
 10
2383.013671875
 20
-2079.0078125
 10
2392.8203125
 20
-2069.201171875
 10
2402.626953125
 20
-2069.201171875
 10
2412.43359375
 20
-2069.201171875
 10
2422.240234375
 20
-2069.201171875
 10
2432.046875
 20
-2069.201171875
 10
2441.853515625
 20
-2069.201171875
 10
2451.66015625
 20
-2069.201171875
 10
2461.466796875
 20
-2069.201171875
 10
2471.2734375
 20
-2069.201171875
 10
2481.080078125
 20
-2069.201171875
 10
2490.88671875
 20
-2069.201171875
 10
2500.693359375
 20
-2069.201171875
 10
2510.5
 20
-2069.201171875
 10
2520.306640625
 20
-2069.201171875
 10
2530.11328125
 20
-2069.201171875
 10
2539.919921875
 20
-2069.201171875
 10
2549.7265625
 20
-2069.201171875
 10
2559.533203125
 20
-2069.201171875
 10
2569.33984375
 20
-2069.201171875
 10
2579.146484375
 20
-2069.201171875
 10
2588.953125
 20
-2069.201171875
 10
2598.759765625
 20
-2069.201171875
 10
2608.56640625
 20
-2069.201171875
 10
2618.373046875
 20
-2069.201171875
 10
2628.1796875
 20
-2069.201171875
 10
2637.986328125
 20
-2069.201171875
 10
2647.79296875
 20
-2069.201171875
 10
2657.599609375
 20
-2069.201171875
 10
2667.40625
 20
-2079.0078125
 10
2667.40625
 20
-2088.814453125
 10
2667.40625
 20
-2098.62109375
 10
2667.40625
 20
-2108.427734375
 10
2677.212890625
 20
-2108.427734375
 10
2687.01953125
 20
-2108.427734375
 10
2696.826171875
 20
-2108.427734375
 10
2706.6328125
 20
-2108.427734375
 10
2716.439453125
 20
-2108.427734375
 10
2726.24609375
 20
-2108.427734375
 10
2736.052734375
 20
-2108.427734375
 10
2745.859375
 20
-2118.234375
 10
2745.859375
 20
-2128.041015625
 10
2745.859375
 20
-2137.84765625
 10
2745.859375
 20
-2147.654296875
 10
2755.666015625
 20
-2147.654296875
 10
2765.47265625
 20
-2147.654296875
 10
2775.279296875
 20
-2147.654296875
 10
2785.0859375
 20
-2157.4609375
 10
2785.0859375
 20
-2167.267578125
 10
2785.0859375
 20
-2177.07421875
 10
2785.0859375
 20
-2186.880859375
 10
2794.892578125
 20
-2186.880859375
 10
2804.69921875
 20
-2186.880859375
 10
2814.505859375
 20
-2186.880859375
 10
2824.3125
 20
-2196.6875
 10
2824.3125
 20
-2206.494140625
 10
2824.3125
 20
-2216.30078125
 10
2824.3125
 20
-2226.107421875
 10
2834.119140625
 20
-2226.107421875
 10
2843.92578125
 20
-2226.107421875
 10
2853.732421875
 20
-2226.107421875
 10
2863.5390625
 20
-2235.9140625
 10
2863.5390625
 20
-2245.720703125
 10
2863.5390625
 20
-2255.52734375
 10
2863.5390625
 20
-2265.333984375
 10
2873.345703125
 20
-2265.333984375
 10
2883.15234375
 20
-2265.333984375
 10
2892.958984375
 20
-2265.333984375
 10
2902.765625
 20
-2275.140625
 10
2902.765625
 20
-2284.947265625
 10
2902.765625
 20
-2294.75390625
 10
2902.765625
 20
-2304.560546875
 10
2902.765625
 20
-2314.3671875
 10
2902.765625
 20
-2324.173828125
 10
2902.765625
 20
-2333.98046875
 10
2902.765625
 20
-2343.787109375
 10
2912.572265625
 20
-2343.787109375
 10
2922.37890625
 20
-2343.787109375
 10
2932.185546875
 20
-2343.787109375
 10
2941.9921875
 20
-2353.59375
 10
2941.9921875
 20
-2363.400390625
 10
2941.9921875
 20
-2373.20703125
 10
2941.9921875
 20
-2383.013671875
 10
2941.9921875
 20
-2392.8203125
 10
2941.9921875
 20
-2402.626953125
 10
2941.9921875
 20
-2412.43359375
 10
2941.9921875
 20
-2422.240234375
 10
2941.9921875
 20
-2432.046875
 10
2941.9921875
 20
-2441.853515625
 10
2941.9921875
 20
-2451.66015625
 10
2941.9921875
 20
-2461.466796875
 10
2941.9921875
 20
-2471.2734375
 10
2941.9921875
 20
-2481.080078125
 10
2941.9921875
 20
-2490.88671875
 10
2941.9921875
 20
-2500.693359375
 10
2941.9921875
 20
-2510.5
 10
2941.9921875
 20
-2520.306640625
 10
2941.9921875
 20
-2530.11328125
 10
2941.9921875
 20
-2539.919921875
 10
2941.9921875
 20
-2549.7265625
 10
2941.9921875
 20
-2559.533203125
 10
2941.9921875
 20
-2569.33984375
 10
2941.9921875
 20
-2579.146484375
 10
2941.9921875
 20
-2588.953125
 10
2941.9921875
 20
-2598.759765625
 10
2941.9921875
 20
-2608.56640625
 10
2941.9921875
 20
-2618.373046875
 10
2932.185546875
 20
-2628.1796875
 10
2922.37890625
 20
-2628.1796875
 10
2912.572265625
 20
-2628.1796875
 10
2902.765625
 20
-2628.1796875
 10
2902.765625
 20
-2637.986328125
 10
2902.765625
 20
-2647.79296875
 10
2902.765625
 20
-2657.599609375
 10
2902.765625
 20
-2667.40625
 10
2902.765625
 20
-2677.212890625
 10
2902.765625
 20
-2687.01953125
 10
2902.765625
 20
-2696.826171875
 10
2902.765625
 20
-2706.6328125
 10
2902.765625
 20
-2716.439453125
 10
2902.765625
 20
-2726.24609375
 10
2902.765625
 20
-2736.052734375
 10
2892.958984375
 20
-2745.859375
 10
2883.15234375
 20
-2745.859375
 10
2873.345703125
 20
-2745.859375
 10
2863.5390625
 20
-2745.859375
 10
2863.5390625
 20
-2755.666015625
 10
2863.5390625
 20
-2765.47265625
 10
2863.5390625
 20
-2775.279296875
 10
2853.732421875
 20
-2785.0859375
 10
2843.92578125
 20
-2785.0859375
 10
2834.119140625
 20
-2785.0859375
 10
2824.3125
 20
-2785.0859375
 10
2824.3125
 20
-2794.892578125
 10
2824.3125
 20
-2804.69921875
 10
2824.3125
 20
-2814.505859375
 10
2814.505859375
 20
-2824.3125
 10
2804.69921875
 20
-2824.3125
 10
2794.892578125
 20
-2824.3125
 10
2785.0859375
 20
-2824.3125
 10
2785.0859375
 20
-2834.119140625
 10
2785.0859375
 20
-2843.92578125
 10
2785.0859375
 20
-2853.732421875
 10
2775.279296875
 20
-2863.5390625
 10
2765.47265625
 20
-2863.5390625
 10
2755.666015625
 20
-2863.5390625
 10
2745.859375
 20
-2863.5390625
 10
2745.859375
 20
-2873.345703125
 10
2745.859375
 20
-2883.15234375
 10
2745.859375
 20
-2892.958984375
 10
2736.052734375
 20
-2902.765625
 10
2726.24609375
 20
-2902.765625
 10
2716.439453125
 20
-2902.765625
 10
2706.6328125
 20
-2902.765625
 10
2696.826171875
 20
-2902.765625
 10
2687.01953125
 20
-2902.765625
 10
2677.212890625
 20
-2902.765625
 10
2667.40625
 20
-2902.765625
 10
2657.599609375
 20
-2902.765625
 10
2647.79296875
 20
-2902.765625
 10
2637.986328125
 20
-2902.765625
 10
2628.1796875
 20
-2902.765625
 10
2628.1796875
 20
-2912.572265625
 10
2628.1796875
 20
-2922.37890625
 10
2628.1796875
 20
-2932.185546875
 10
2618.373046875
 20
-2941.9921875
 10
2608.56640625
 20
-2941.9921875
 10
2598.759765625
 20
-2941.9921875
 10
2588.953125
 20
-2941.9921875
 10
2579.146484375
 20
-2941.9921875
 10
2569.33984375
 20
-2941.9921875
 10
2559.533203125
 20
-2941.9921875
 10
2549.7265625
 20
-2941.9921875
 10
2539.919921875
 20
-2941.9921875
 10
2530.11328125
 20
-2941.9921875
 10
2520.306640625
 20
-2941.9921875
 10
2510.5
 20
-2941.9921875
 10
2500.693359375
 20
-2941.9921875
 10
2490.88671875
 20
-2941.9921875
 10
2481.080078125
 20
-2941.9921875
 10
2471.2734375
 20
-2941.9921875
 10
2461.466796875
 20
-2941.9921875
 10
2451.66015625
 20
-2941.9921875
 10
2441.853515625
 20
-2941.9921875
 10
2432.046875
 20
-2941.9921875
 10
2422.240234375
 20
-2941.9921875
 10
2412.43359375
 20
-2941.9921875
 10
2402.626953125
 20
-2941.9921875
 10
2392.8203125
 20
-2941.9921875
 10
2383.013671875
 20
-2932.185546875
 10
2383.013671875
 20
-2922.37890625
 10
2383.013671875
 20
-2912.572265625
 10
2383.013671875
 20
-2902.765625
 10
2373.20703125
 20
-2902.765625
 10
2363.400390625
 20
-2902.765625
 10
2353.59375
 20
-2902.765625
 10
2343.787109375
 20
-2902.765625
 10
2333.98046875
 20
-2902.765625
 10
2324.173828125
 20
-2902.765625
 10
2314.3671875
 20
-2902.765625
 10
2304.560546875
 20
-2902.765625
 10
2294.75390625
 20
-2902.765625
 10
2284.947265625
 20
-2902.765625
 10
2275.140625
 20
-2902.765625
 10
2265.333984375
 20
-2892.958984375
 10
2265.333984375
 20
-2883.15234375
 10
2265.333984375
 20
-2873.345703125
 10
2265.333984375
 20
-2863.5390625
 10
2255.52734375
 20
-2863.5390625
 10
2245.720703125
 20
-2863.5390625
 10
2235.9140625
 20
-2863.5390625
 10
2226.107421875
 20
-2853.732421875
 10
2226.107421875
 20
-2843.92578125
 10
2226.107421875
 20
-2834.119140625
 10
2226.107421875
 20
-2824.3125
 10
2216.30078125
 20
-2824.3125
 10
2206.494140625
 20
-2824.3125
 10
2196.6875
 20
-2824.3125
 10
2186.880859375
 20
-2814.505859375
 10
2186.880859375
 20
-2804.69921875
 10
2186.880859375
 20
-2794.892578125
 10
2186.880859375
 20
-2785.0859375
 10
2177.07421875
 20
-2785.0859375
 10
2167.267578125
 20
-2785.0859375
 10
2157.4609375
 20
-2785.0859375
 10
2147.654296875
 20
-2775.279296875
 10
2147.654296875
 20
-2765.47265625
 10
2147.654296875
 20
-2755.666015625
 10
2147.654296875
 20
-2745.859375
 10
2137.84765625
 20
-2745.859375
 10
2128.041015625
 20
-2745.859375
 10
2118.234375
 20
-2745.859375
 10
2108.427734375
 20
-2736.052734375
 10
2108.427734375
 20
-2726.24609375
 10
2108.427734375
 20
-2716.439453125
 10
2108.427734375
 20
-2706.6328125
 10
2108.427734375
 20
-2696.826171875
 10
2108.427734375
 20
-2687.01953125
 10
2108.427734375
 20
-2677.212890625
 10
2108.427734375
 20
-2667.40625
 10
2098.62109375
 20
-2667.40625
 10
2088.814453125
 20
-2667.40625
 10
2079.0078125
 20
-2667.40625
 10
2069.201171875
 20
-2657.599609375
 10
2069.201171875
 20
-2647.79296875
 10
2069.201171875
 20
-2637.986328125
 10
2069.201171875
 20
-2628.1796875
 10
2069.201171875
 20
-2618.373046875
 10
2069.201171875
 20
-2608.56640625
 10
2069.201171875
 20
-2598.759765625
 10
2069.201171875
 20
-2588.953125
 10
2069.201171875
 20
-2579.146484375
 10
2069.201171875
 20
-2569.33984375
 10
2069.201171875
 20
-2559.533203125
 10
2069.201171875
 20
-2549.7265625
 10
2069.201171875
 20
-2539.919921875
 10
2069.201171875
 20
-2530.11328125
 10
2069.201171875
 20
-2520.306640625
 10
2069.201171875
 20
-2510.5
 10
2069.201171875
 20
-2500.693359375
 10
2069.201171875
 20
-2490.88671875
 10
2069.201171875
 20
-2481.080078125
 10
2069.201171875
 20
-2471.2734375
 10
2069.201171875
 20
-2461.466796875
 10
2069.201171875
 20
-2451.66015625
 10
2069.201171875
 20
-2441.853515625
 10
2069.201171875
 20
-2432.046875
 10
2069.201171875
 20
-2422.240234375
 10
2069.201171875
 20
-2412.43359375
 10
2069.201171875
 20
-2402.626953125
 10
2069.201171875
 20
-2392.8203125
 10
2069.201171875
 20
-2383.013671875
 10
2069.201171875
 20
-2373.20703125
 10
2069.201171875
 20
-2363.400390625
 10
2069.201171875
 20
-2353.59375
 10
2079.0078125
 20
-2343.787109375
 10
2088.814453125
 20
-2343.787109375
 10
2098.62109375
 20
-2343.787109375
 10
2108.427734375
 20
-2343.787109375
 10
2108.427734375
 20
-2333.98046875
 10
2108.427734375
 20
-2324.173828125
 10
2108.427734375
 20
-2314.3671875
 10
2108.427734375
 20
-2304.560546875
 10
2108.427734375
 20
-2294.75390625
 10
2108.427734375
 20
-2284.947265625
 10
2108.427734375
 20
-2275.140625
 10
2118.234375
 20
-2265.333984375
 10
2128.041015625
 20
-2265.333984375
 10
2137.84765625
 20
-2265.333984375
 10
2147.654296875
 20
-2265.333984375
 10
2147.654296875
 20
-2255.52734375
 10
2147.654296875
 20
-2245.720703125
 10
2147.654296875
 20
-2235.9140625
 10
2157.4609375
 20
-2226.107421875
 10
2167.267578125
 20
-2226.107421875
 10
2177.07421875
 20
-2226.107421875
 10
2186.880859375
 20
-2226.107421875
 10
2186.880859375
 20
-2216.30078125
 10
2186.880859375
 20
-2206.494140625
 10
2186.880859375
 20
-2196.6875
 10
2196.6875
 20
-2186.880859375
 10
2206.494140625
 20
-2186.880859375
 10
2216.30078125
 20
-2186.880859375
 10
2226.107421875
 20
-2186.880859375
 10
2226.107421875
 20
-2177.07421875
 10
2226.107421875
 20
-2167.267578125
 10
2226.107421875
 20
-2157.4609375
 10
2235.9140625
 20
-2147.654296875
 10
2245.720703125
 20
-2147.654296875
 10
2255.52734375
 20
-2147.654296875
 10
2265.333984375
 20
-2147.654296875
 10
2265.333984375
 20
-2137.84765625
 10
2265.333984375
 20
-2128.041015625
 10
2265.333984375
 20
-2118.234375
 10
2275.140625
 20
-2108.427734375
 10
2284.947265625
 20
-2108.427734375
 10
2294.75390625
 20
-2108.427734375
 10
2304.560546875
 20
-2108.427734375
 10
2314.3671875
 20
-2108.427734375
 10
2324.173828125
 20
-2108.427734375
 10
2333.98046875
 20
-2108.427734375
 10
2343.787109375
 20
-2108.427734375
 10
2353.59375
 20
-2108.427734375
 10
2363.400390625
 20
-2108.427734375
 10
2373.20703125
 20
-2108.427734375
 10
2383.013671875
 20
-2108.427734375
 10
2383.013671875
 20
-2098.62109375
 10
2383.013671875
 20
-2088.814453125
  0
ENDSEC
  0
SECTION
  2
OBJECTS
  0
DICTIONARY
  5
A
330
0
100
AcDbDictionary
280
0
281
1
  3
ACAD_COLOR
350
B
  3
ACAD_GROUP
350
C
  3
ACAD_LAYOUT
350
D
  3
ACAD_MATERIAL
350
E
  3
ACAD_MLEADERSTYLE
350
F
  3
ACAD_MLINESTYLE
350
10
  3
ACAD_PLOTSETTINGS
350
11
  3
ACAD_PLOTSTYLENAME
350
12
  3
ACAD_SCALELIST
350
14
  3
ACAD_TABLESTYLE
350
15
  3
ACAD_VISUALSTYLE
350
16
  3
EZDXF_META
350
2D
  0
DICTIONARY
  5
B
330
A
100
AcDbDictionary
280
0
281
1
  0
DICTIONARY
  5
C
330
A
100
AcDbDictionary
280
0
281
1
  0
DICTIONARY
  5
D
330
A
100
AcDbDictionary
280
0
281
1
  3
Model
350
1A
  3
Layout1
350
1E
  0
DICTIONARY
  5
E
330
A
100
AcDbDictionary
280
0
281
1
  3
ByBlock
350
1F
  3
ByLayer
350
20
  3
Global
350
21
  0
DICTIONARY
  5
F
330
A
100
AcDbDictionary
280
0
281
1
  3
Standard
350
2C
  0
DICTIONARY
  5
10
330
A
100
AcDbDictionary
280
0
281
1
  3
Standard
350
22
  0
DICTIONARY
  5
11
330
A
100
AcDbDictionary
280
0
281
1
  0
ACDBDICTIONARYWDFLT
  5
12
330
A
100
AcDbDictionary
280
0
281
1
  3
Normal
350
13
100
AcDbDictionaryWithDefault
340
13
  0
ACDBPLACEHOLDER
  5
13
330
12
  0
DICTIONARY
  5
14
330
A
100
AcDbDictionary
280
0
281
1
  0
DICTIONARY
  5
15
330
A
100
AcDbDictionary
280
0
281
1
  0
DICTIONARY
  5
16
330
A
100
AcDbDictionary
280
0
281
1
  0
LAYOUT
  5
1A
330
D
100
AcDbPlotSettings
  1

  2
Adobe PDF
  4
A3
  6

 40
7.5
 41
20.0
 42
7.5
 43
20.0
 44
420.0
 45
297.0
 46
0.0
 47
0.0
 48
0.0
 49
0.0
140
0.0
141
0.0
142
1.0
143
1.0
 70
1024
 72
1
 73
0
 74
5
  7

 75
16
 76
0
 77
2
 78
300
147
1.0
148
0.0
149
0.0
100
AcDbLayout
  1
Model
 70
1
 71
0
 10
0.0
 20
0.0
 11
420.0
 21
297.0
 12
0.0
 22
0.0
 32
0.0
 14
1e+20
 24
1e+20
 34
1e+20
 15
-1e+20
 25
-1e+20
 35
-1e+20
146
0.0
 13
0.0
 23
0.0
 33
0.0
 16
1.0
 26
0.0
 36
0.0
 17
0.0
 27
1.0
 37
0.0
 76
1
330
17
  0
LAYOUT
  5
1E
330
D
100
AcDbPlotSettings
  1

  2
Adobe PDF
  4
A3
  6

 40
7.5
 41
20.0
 42
7.5
 43
20.0
 44
420.0
 45
297.0
 46
0.0
 47
0.0
 48
0.0
 49
0.0
140
0.0
141
0.0
142
1.0
143
1.0
 70
0
 72
1
 73
0
 74
5
  7

 75
16
 76
0
 77
2
 78
300
147
1.0
148
0.0
149
0.0
100
AcDbLayout
  1
Layout1
 70
1
 71
1
 10
0.0
 20
0.0
 11
420.0
 21
297.0
 12
0.0
 22
0.0
 32
0.0
 14
1e+20
 24
1e+20
 34
1e+20
 15
-1e+20
 25
-1e+20
 35
-1e+20
146
0.0
 13
0.0
 23
0.0
 33
0.0
 16
1.0
 26
0.0
 36
0.0
 17
0.0
 27
1.0
 37
0.0
 76
1
330
1B
  0
MATERIAL
  5
1F
102
{ACAD_REACTORS
330
E
102
}
330
E
100
AcDbMaterial
  1
ByBlock
  2

 70
0
 40
1.0
 71
1
 41
1.0
 91
-1023410177
 42
1.0
 72
1
  3

 73
1
 74
1
 75
1
 44
0.5
 73
0
 45
1.0
 46
1.0
 77
1
  4

 78
1
 79
1
170
1
 48
1.0
171
1
  6

172
1
173
1
174
1
140
1.0
141
1.0
175
1
  7

176
1
177
1
178
1
143
1.0
179
1
  8

270
1
271
1
272
1
145
1.0
146
1.0
273
1
  9

274
1
275
1
276
1
 42
1.0
 72
1
  3

 73
1
 74
1
 75
1
 94
63
  0
MATERIAL
  5
20
102
{ACAD_REACTORS
330
E
102
}
330
E
100
AcDbMaterial
  1
ByLayer
  2

 70
0
 40
1.0
 71
1
 41
1.0
 91
-1023410177
 42
1.0
 72
1
  3

 73
1
 74
1
 75
1
 44
0.5
 73
0
 45
1.0
 46
1.0
 77
1
  4

 78
1
 79
1
170
1
 48
1.0
171
1
  6

172
1
173
1
174
1
140
1.0
141
1.0
175
1
  7

176
1
177
1
178
1
143
1.0
179
1
  8

270
1
271
1
272
1
145
1.0
146
1.0
273
1
  9

274
1
275
1
276
1
 42
1.0
 72
1
  3

 73
1
 74
1
 75
1
 94
63
  0
MATERIAL
  5
21
102
{ACAD_REACTORS
330
E
102
}
330
E
100
AcDbMaterial
  1
Global
  2

 70
0
 40
1.0
 71
1
 41
1.0
 91
-1023410177
 42
1.0
 72
1
  3

 73
1
 74
1
 75
1
 44
0.5
 73
0
 45
1.0
 46
1.0
 77
1
  4

 78
1
 79
1
170
1
 48
1.0
171
1
  6

172
1
173
1
174
1
140
1.0
141
1.0
175
1
  7

176
1
177
1
178
1
143
1.0
179
1
  8

270
1
271
1
272
1
145
1.0
146
1.0
273
1
  9

274
1
275
1
276
1
 42
1.0
 72
1
  3

 73
1
 74
1
 75
1
 94
63
  0
MLINESTYLE
  5
22
102
{ACAD_REACTORS
330
10
102
}
330
10
100
AcDbMlineStyle
  2
Standard
 70
0
  3

 62
256
 51
90.0
 52
90.0
 71
2
 49
0.5
 62
256
  6
BYLAYER
 49
-0.5
 62
256
  6
BYLAYER
  0
MLEADERSTYLE
  5
2C
102
{ACAD_REACTORS
330
F
102
}
330
F
100
AcDbMLeaderStyle
179
2
170
2
171
1
172
0
 90
2
 40
0.0
 41
0.0
173
1
 91
-1056964608
 92
-2
290
1
 42
2.0
291
1
 43
8.0
  3
Standard
 44
4.0
300

342
29
174
1
175
1
176
0
178
1
 93
-1056964608
 45
4.0
292
0
297
0
 46
4.0
 94
-1056964608
 47
1.0
 49
1.0
140
1.0
294
1
141
0.0
177
0
142
1.0
295
0
296
0
143
3.75
271
0
272
9
273
9
  0
DICTIONARY
  5
2D
330
A
100
AcDbDictionary
281
1
  3
CREATED_BY_EZDXF
350
2E
  3
WRITTEN_BY_EZDXF
350
37
  0
DICTIONARYVAR
  5
2E
330
2D
100
DictionaryVariables
280
0
  1
1.1.0 @ 2024-12-26T13:14:24.625864+00:00
  0
DICTIONARYVAR
  5
37
330
2D
100
DictionaryVariables
280
0
  1
1.1.0 @ 2024-12-26T13:14:24.633375+00:00
  0
ENDSEC
  0
EOF
