  0
SECTION
  2
HEADER
  9
$ACADVER
  1
AC1027
  9
$ACADMAINTVER
 70
105
  9
$DWGCODEPAGE
  3
ANSI_1252
  9
$LASTSAVEDBY
  1
ezdxf
  9
$REQUIREDVERSIONS
160
0
  9
$INSBASE
 10
0.0
 20
0.0
 30
0.0
  9
$EXTMIN
 10
1e+20
 20
1e+20
 30
1e+20
  9
$EXTMAX
 10
-1e+20
 20
-1e+20
 30
-1e+20
  9
$LIMMIN
 10
0.0
 20
0.0
  9
$LIMMAX
 10
420.0
 20
297.0
  9
$ORTHOMODE
 70
0
  9
$REGENMODE
 70
1
  9
$FILLMODE
 70
1
  9
$QTEXTMODE
 70
0
  9
$MIRRTEXT
 70
1
  9
$LTSCALE
 40
1.0
  9
$ATTMODE
 70
1
  9
$TEXTSIZE
 40
2.5
  9
$TRACEWID
 40
1.0
  9
$TEXTSTYLE
  7
Standard
  9
$CLAYER
  8
0
  9
$CELTYPE
  6
ByLayer
  9
$CECOLOR
 62
256
  9
$CELTSCALE
 40
1.0
  9
$DISPSILH
 70
0
  9
$DIMSCALE
 40
1.0
  9
$DIMASZ
 40
2.5
  9
$DIMEXO
 40
0.625
  9
$DIMDLI
 40
3.75
  9
$DIMRND
 40
0.0
  9
$DIMDLE
 40
0.0
  9
$DIMEXE
 40
1.25
  9
$DIMTP
 40
0.0
  9
$DIMTM
 40
0.0
  9
$DIMTXT
 40
2.5
  9
$DIMCEN
 40
2.5
  9
$DIMTSZ
 40
0.0
  9
$DIMTOL
 70
0
  9
$DIMLIM
 70
0
  9
$DIMTIH
 70
0
  9
$DIMTOH
 70
0
  9
$DIMSE1
 70
0
  9
$DIMSE2
 70
0
  9
$DIMTAD
 70
1
  9
$DIMZIN
 70
8
  9
$DIMBLK
  1

  9
$DIMASO
 70
1
  9
$DIMSHO
 70
1
  9
$DIMPOST
  1

  9
$DIMAPOST
  1

  9
$DIMALT
 70
0
  9
$DIMALTD
 70
3
  9
$DIMALTF
 40
0.03937007874
  9
$DIMLFAC
 40
1.0
  9
$DIMTOFL
 70
1
  9
$DIMTVP
 40
0.0
  9
$DIMTIX
 70
0
  9
$DIMSOXD
 70
0
  9
$DIMSAH
 70
0
  9
$DIMBLK1
  1

  9
$DIMBLK2
  1

  9
$DIMSTYLE
  2
ISO-25
  9
$DIMCLRD
 70
0
  9
$DIMCLRE
 70
0
  9
$DIMCLRT
 70
0
  9
$DIMTFAC
 40
1.0
  9
$DIMGAP
 40
0.625
  9
$DIMJUST
 70
0
  9
$DIMSD1
 70
0
  9
$DIMSD2
 70
0
  9
$DIMTOLJ
 70
0
  9
$DIMTZIN
 70
8
  9
$DIMALTZ
 70
0
  9
$DIMALTTZ
 70
0
  9
$DIMUPT
 70
0
  9
$DIMDEC
 70
2
  9
$DIMTDEC
 70
2
  9
$DIMALTU
 70
2
  9
$DIMALTTD
 70
3
  9
$DIMTXSTY
  7
Standard
  9
$DIMAUNIT
 70
0
  9
$DIMADEC
 70
0
  9
$DIMALTRND
 40
0.0
  9
$DIMAZIN
 70
0
  9
$DIMDSEP
 70
44
  9
$DIMATFIT
 70
3
  9
$DIMFRAC
 70
0
  9
$DIMLDRBLK
  1

  9
$DIMLUNIT
 70
2
  9
$DIMLWD
 70
-2
  9
$DIMLWE
 70
-2
  9
$DIMTMOVE
 70
0
  9
$DIMFXL
 40
1.0
  9
$DIMFXLON
 70
0
  9
$DIMJOGANG
 40
0.785398163397
  9
$DIMTFILL
 70
0
  9
$DIMTFILLCLR
 70
0
  9
$DIMARCSYM
 70
0
  9
$DIMLTYPE
  6

  9
$DIMLTEX1
  6

  9
$DIMLTEX2
  6

  9
$DIMTXTDIRECTION
 70
0
  9
$LUNITS
 70
2
  9
$LUPREC
 70
4
  9
$SKETCHINC
 40
1.0
  9
$FILLETRAD
 40
10.0
  9
$AUNITS
 70
0
  9
$AUPREC
 70
2
  9
$MENU
  1
.
  9
$ELEVATION
 40
0.0
  9
$PELEVATION
 40
0.0
  9
$THICKNESS
 40
0.0
  9
$LIMCHECK
 70
0
  9
$CHAMFERA
 40
0.0
  9
$CHAMFERB
 40
0.0
  9
$CHAMFERC
 40
0.0
  9
$CHAMFERD
 40
0.0
  9
$SKPOLY
 70
0
  9
$TDCREATE
 40
2460709.9325694446
  9
$TDUCREATE
 40
2458532.153996898
  9
$TDUPDATE
 40
2460709.9325694446
  9
$TDUUPDATE
 40
2458532.1544311
  9
$TDINDWG
 40
0.0
  9
$TDUSRTIMER
 40
0.0
  9
$USRTIMER
 70
1
  9
$ANGBASE
 50
0.0
  9
$ANGDIR
 70
0
  9
$PDMODE
 70
0
  9
$PDSIZE
 40
0.0
  9
$PLINEWID
 40
0.0
  9
$SPLFRAME
 70
0
  9
$SPLINETYPE
 70
6
  9
$SPLINESEGS
 70
8
  9
$HANDSEED
  5
3B
  9
$SURFTAB1
 70
6
  9
$SURFTAB2
 70
6
  9
$SURFTYPE
 70
6
  9
$SURFU
 70
6
  9
$SURFV
 70
6
  9
$UCSBASE
  2

  9
$UCSNAME
  2

  9
$UCSORG
 10
0.0
 20
0.0
 30
0.0
  9
$UCSXDIR
 10
1.0
 20
0.0
 30
0.0
  9
$UCSYDIR
 10
0.0
 20
1.0
 30
0.0
  9
$UCSORTHOREF
  2

  9
$UCSORTHOVIEW
 70
0
  9
$UCSORGTOP
 10
0.0
 20
0.0
 30
0.0
  9
$UCSORGBOTTOM
 10
0.0
 20
0.0
 30
0.0
  9
$UCSORGLEFT
 10
0.0
 20
0.0
 30
0.0
  9
$UCSORGRIGHT
 10
0.0
 20
0.0
 30
0.0
  9
$UCSORGFRONT
 10
0.0
 20
0.0
 30
0.0
  9
$UCSORGBACK
 10
0.0
 20
0.0
 30
0.0
  9
$PUCSBASE
  2

  9
$PUCSNAME
  2

  9
$PUCSORG
 10
0.0
 20
0.0
 30
0.0
  9
$PUCSXDIR
 10
1.0
 20
0.0
 30
0.0
  9
$PUCSYDIR
 10
0.0
 20
1.0
 30
0.0
  9
$PUCSORTHOREF
  2

  9
$PUCSORTHOVIEW
 70
0
  9
$PUCSORGTOP
 10
0.0
 20
0.0
 30
0.0
  9
$PUCSORGBOTTOM
 10
0.0
 20
0.0
 30
0.0
  9
$PUCSORGLEFT
 10
0.0
 20
0.0
 30
0.0
  9
$PUCSORGRIGHT
 10
0.0
 20
0.0
 30
0.0
  9
$PUCSORGFRONT
 10
0.0
 20
0.0
 30
0.0
  9
$PUCSORGBACK
 10
0.0
 20
0.0
 30
0.0
  9
$USERI1
 70
0
  9
$USERI2
 70
0
  9
$USERI3
 70
0
  9
$USERI4
 70
0
  9
$USERI5
 70
0
  9
$USERR1
 40
0.0
  9
$USERR2
 40
0.0
  9
$USERR3
 40
0.0
  9
$USERR4
 40
0.0
  9
$USERR5
 40
0.0
  9
$WORLDVIEW
 70
1
  9
$SHADEDGE
 70
3
  9
$SHADEDIF
 70
70
  9
$TILEMODE
 70
1
  9
$MAXACTVP
 70
64
  9
$PINSBASE
 10
0.0
 20
0.0
 30
0.0
  9
$PLIMCHECK
 70
0
  9
$PEXTMIN
 10
1e+20
 20
1e+20
 30
1e+20
  9
$PEXTMAX
 10
-1e+20
 20
-1e+20
 30
-1e+20
  9
$PLIMMIN
 10
0.0
 20
0.0
  9
$PLIMMAX
 10
420.0
 20
297.0
  9
$UNITMODE
 70
0
  9
$VISRETAIN
 70
1
  9
$PLINEGEN
 70
0
  9
$PSLTSCALE
 70
1
  9
$TREEDEPTH
 70
3020
  9
$CMLSTYLE
  2
Standard
  9
$CMLJUST
 70
0
  9
$CMLSCALE
 40
20.0
  9
$PROXYGRAPHICS
 70
1
  9
$MEASUREMENT
 70
1
  9
$CELWEIGHT
370
-1
  9
$ENDCAPS
280
0
  9
$JOINSTYLE
280
0
  9
$LWDISPLAY
290
0
  9
$INSUNITS
 70
6
  9
$HYPERLINKBASE
  1

  9
$STYLESHEET
  1

  9
$XEDIT
290
1
  9
$CEPSNTYPE
380
0
  9
$PSTYLEMODE
290
1
  9
$FINGERPRINTGUID
  2
{923AADEB-3A65-4ACF-8B03-7FF86BAE4DE4}
  9
$VERSIONGUID
  2
{17256350-226B-4CD6-A7D1-B16D51374009}
  9
$EXTNAMES
290
1
  9
$PSVPSCALE
 40
0.0
  9
$OLESTARTUP
290
0
  9
$SORTENTS
280
127
  9
$INDEXCTL
280
0
  9
$HIDETEXT
280
1
  9
$XCLIPFRAME
280
0
  9
$HALOGAP
280
0
  9
$OBSCOLOR
 70
257
  9
$OBSLTYPE
280
0
  9
$INTERSECTIONDISPLAY
280
0
  9
$INTERSECTIONCOLOR
 70
257
  9
$DIMASSOC
280
2
  9
$PROJECTNAME
  1

  9
$CAMERADISPLAY
290
0
  9
$LENSLENGTH
 40
50.0
  9
$CAMERAHEIGHT
 40
0.0
  9
$STEPSPERSEC
 40
24.0
  9
$STEPSIZE
 40
100.0
  9
$3DDWFPREC
 40
2.0
  9
$PSOLWIDTH
 40
0.005
  9
$PSOLHEIGHT
 40
0.08
  9
$LOFTANG1
 40
1.570796326795
  9
$LOFTANG2
 40
1.570796326795
  9
$LOFTMAG1
 40
0.0
  9
$LOFTMAG2
 40
0.0
  9
$LOFTPARAM
 70
7
  9
$LOFTNORMALS
280
1
  9
$LATITUDE
 40
37.795
  9
$LONGITUDE
 40
-122.394
  9
$NORTHDIRECTION
 40
0.0
  9
$TIMEZONE
 70
-8000
  9
$LIGHTGLYPHDISPLAY
280
1
  9
$TILEMODELIGHTSYNCH
280
1
  9
$CMATERIAL
347
20
  9
$SOLIDHIST
280
0
  9
$SHOWHIST
280
1
  9
$DWFFRAME
280
2
  9
$DGNFRAME
280
2
  9
$REALWORLDSCALE
290
1
  9
$INTERFERECOLOR
 62
256
  9
$CSHADOW
280
0
  9
$SHADOWPLANELOCATION
 40
0.0
  0
ENDSEC
  0
SECTION
  2
CLASSES
  0
CLASS
  1
ACDBDICTIONARYWDFLT
  2
AcDbDictionaryWithDefault
  3
ObjectDBX Classes
 90
0
 91
0
280
0
281
0
  0
CLASS
  1
SUN
  2
AcDbSun
  3
SCENEOE
 90
1153
 91
0
280
0
281
0
  0
CLASS
  1
VISUALSTYLE
  2
AcDbVisualStyle
  3
ObjectDBX Classes
 90
4095
 91
0
280
0
281
0
  0
CLASS
  1
MATERIAL
  2
AcDbMaterial
  3
ObjectDBX Classes
 90
1153
 91
0
280
0
281
0
  0
CLASS
  1
SCALE
  2
AcDbScale
  3
ObjectDBX Classes
 90
1153
 91
0
280
0
281
0
  0
CLASS
  1
TABLESTYLE
  2
AcDbTableStyle
  3
ObjectDBX Classes
 90
4095
 91
0
280
0
281
0
  0
CLASS
  1
MLEADERSTYLE
  2
AcDbMLeaderStyle
  3
ACDB_MLEADERSTYLE_CLASS
 90
4095
 91
0
280
0
281
0
  0
CLASS
  1
DICTIONARYVAR
  2
AcDbDictionaryVar
  3
ObjectDBX Classes
 90
0
 91
0
280
0
281
0
  0
CLASS
  1
CELLSTYLEMAP
  2
AcDbCellStyleMap
  3
ObjectDBX Classes
 90
1152
 91
0
280
0
281
0
  0
CLASS
  1
MENTALRAYRENDERSETTINGS
  2
AcDbMentalRayRenderSettings
  3
SCENEOE
 90
1024
 91
0
280
0
281
0
  0
CLASS
  1
ACDBDETAILVIEWSTYLE
  2
AcDbDetailViewStyle
  3
ObjectDBX Classes
 90
1025
 91
0
280
0
281
0
  0
CLASS
  1
ACDBSECTIONVIEWSTYLE
  2
AcDbSectionViewStyle
  3
ObjectDBX Classes
 90
1025
 91
0
280
0
281
0
  0
CLASS
  1
RASTERVARIABLES
  2
AcDbRasterVariables
  3
ISM
 90
0
 91
0
280
0
281
0
  0
CLASS
  1
ACDBPLACEHOLDER
  2
AcDbPlaceHolder
  3
ObjectDBX Classes
 90
0
 91
0
280
0
281
0
  0
CLASS
  1
LAYOUT
  2
AcDbLayout
  3
ObjectDBX Classes
 90
0
 91
0
280
0
281
0
  0
ENDSEC
  0
SECTION
  2
TABLES
  0
TABLE
  2
VPORT
  5
8
330
0
100
AcDbSymbolTable
 70
1
  0
VPORT
  5
23
330
8
100
AcDbSymbolTableRecord
100
AcDbViewportTableRecord
  2
*Active
 70
0
 10
0.0
 20
0.0
 11
1.0
 21
1.0
 12
0.0
 22
0.0
 13
0.0
 23
0.0
 14
0.5
 24
0.5
 15
0.5
 25
0.5
 16
0.0
 26
0.0
 36
1.0
 17
0.0
 27
0.0
 37
0.0
 40
1000.0
 41
1.34
 42
50.0
 43
0.0
 44
0.0
 50
0.0
 51
0.0
 71
0
 72
1000
 73
1
 74
3
 75
0
 76
0
 77
0
 78
0
281
0
 65
0
146
0.0
  0
ENDTAB
  0
TABLE
  2
LTYPE
  5
2
330
0
100
AcDbSymbolTable
 70
3
  0
LTYPE
  5
24
330
2
100
AcDbSymbolTableRecord
100
AcDbLinetypeTableRecord
  2
ByBlock
 70
0
  3

 72
65
 73
0
 40
0.0
  0
LTYPE
  5
25
330
2
100
AcDbSymbolTableRecord
100
AcDbLinetypeTableRecord
  2
ByLayer
 70
0
  3

 72
65
 73
0
 40
0.0
  0
LTYPE
  5
26
330
2
100
AcDbSymbolTableRecord
100
AcDbLinetypeTableRecord
  2
Continuous
 70
0
  3

 72
65
 73
0
 40
0.0
  0
ENDTAB
  0
TABLE
  2
LAYER
  5
1
330
0
100
AcDbSymbolTable
 70
5
  0
LAYER
  5
27
330
1
100
AcDbSymbolTableRecord
100
AcDbLayerTableRecord
  2
0
 70
0
 62
7
  6
Continuous
370
-3
390
13
347
21
  0
LAYER
  5
28
330
1
100
AcDbSymbolTableRecord
100
AcDbLayerTableRecord
  2
Defpoints
 70
0
 62
7
  6
Continuous
290
0
370
-3
390
13
347
21
  0
LAYER
  5
2F
330
1
100
AcDbSymbolTableRecord
100
AcDbLayerTableRecord
  2
conductor
 70
0
 62
1
  6
Continuous
370
-3
390
13
347
21
  0
LAYER
  5
30
330
1
100
AcDbSymbolTableRecord
100
AcDbLayerTableRecord
  2
dielectric
 70
0
 62
8
  6
Continuous
370
-3
390
13
347
21
  0
LAYER
  5
31
330
1
100
AcDbSymbolTableRecord
100
AcDbLayerTableRecord
  2
substrate
 70
0
 62
5
  6
Continuous
370
-3
390
13
347
21
  0
ENDTAB
  0
TABLE
  2
STYLE
  5
5
330
0
100
AcDbSymbolTable
 70
1
  0
STYLE
  5
29
330
5
100
AcDbSymbolTableRecord
100
AcDbTextStyleTableRecord
  2
Standard
 70
0
 40
0.0
 41
1.0
 50
0.0
 71
0
 42
2.5
  3
txt
  4

  0
ENDTAB
  0
TABLE
  2
VIEW
  5
7
330
0
100
AcDbSymbolTable
 70
0
  0
ENDTAB
  0
TABLE
  2
UCS
  5
6
330
0
100
AcDbSymbolTable
 70
0
  0
ENDTAB
  0
TABLE
  2
APPID
  5
3
330
0
100
AcDbSymbolTable
 70
3
  0
APPID
  5
2A
330
3
100
AcDbSymbolTableRecord
100
AcDbRegAppTableRecord
  2
ACAD
 70
0
  0
APPID
  5
38
330
3
100
AcDbSymbolTableRecord
100
AcDbRegAppTableRecord
  2
HATCHBACKGROUNDCOLOR
 70
0
  0
APPID
  5
39
330
3
100
AcDbSymbolTableRecord
100
AcDbRegAppTableRecord
  2
EZDXF
 70
0
  0
ENDTAB
  0
TABLE
  2
DIMSTYLE
  5
4
330
0
100
AcDbSymbolTable
 70
1
100
AcDbDimStyleTable
  0
DIMSTYLE
105
2B
330
4
100
AcDbSymbolTableRecord
100
AcDbDimStyleTableRecord
  2
Standard
 70
0
 40
1.0
 41
2.5
 42
0.625
 43
3.75
 44
1.25
 45
0.0
 46
0.0
 47
0.0
 48
0.0
 49
2.5
140
2.5
141
2.5
142
0.0
143
0.03937007874
144
1.0
145
0.0
146
1.0
147
0.625
148
0.0
 69
0
 70
0
 71
0
 72
0
 73
0
 74
0
 75
0
 76
0
 77
1
 78
8
 79
3
170
0
171
3
172
1
173
0
174
0
175
0
176
0
177
0
178
0
179
2
271
2
272
2
273
2
274
3
275
0
276
0
277
2
278
44
279
0
280
0
281
0
282
0
283
0
284
8
285
0
286
0
288
0
289
3
290
0
371
-2
372
-2
  0
ENDTAB
  0
TABLE
  2
BLOCK_RECORD
  5
9
330
0
100
AcDbSymbolTable
 70
2
  0
BLOCK_RECORD
  5
17
330
9
100
AcDbSymbolTableRecord
100
AcDbBlockTableRecord
  2
*Model_Space
340
1A
 70
0
280
1
281
0
  0
BLOCK_RECORD
  5
1B
330
9
100
AcDbSymbolTableRecord
100
AcDbBlockTableRecord
  2
*Paper_Space
340
1E
 70
0
280
1
281
0
  0
ENDTAB
  0
ENDSEC
  0
SECTION
  2
BLOCKS
  0
BLOCK
  5
18
330
17
100
AcDbEntity
  8
0
100
AcDbBlockBegin
  2
*Model_Space
 70
0
 10
0.0
 20
0.0
 30
0.0
  3
*Model_Space
  1

  0
ENDBLK
  5
19
330
17
100
AcDbEntity
  8
0
100
AcDbBlockEnd
  0
BLOCK
  5
1C
330
1B
100
AcDbEntity
  8
0
100
AcDbBlockBegin
  2
*Paper_Space
 70
0
 10
0.0
 20
0.0
 30
0.0
  3
*Paper_Space
  1

  0
ENDBLK
  5
1D
330
1B
100
AcDbEntity
  8
0
100
AcDbBlockEnd
  0
ENDSEC
  0
SECTION
  2
ENTITIES
  0
LWPOLYLINE
  5
32
330
17
100
AcDbEntity
  8
conductor
100
AcDbPolyline
 90
180
 70
1
 43
0.5
 10
2416.365234375
 20
-2166.064453125
 10
2406.73828125
 20
-2175.69140625
 10
2397.111328125
 20
-2175.69140625
 10
2387.484375
 20
-2175.69140625
 10
2377.857421875
 20
-2175.69140625
 10
2368.23046875
 20
-2175.69140625
 10
2358.603515625
 20
-2185.318359375
 10
2348.9765625
 20
-2185.318359375
 10
2339.349609375
 20
-2194.9453125
 10
2329.72265625
 20
-2194.9453125
 10
2320.095703125
 20
-2204.572265625
 10
2310.46875
 20
-2204.572265625
 10
2300.841796875
 20
-2214.19921875
 10
2291.21484375
 20
-2223.826171875
 10
2281.587890625
 20
-2233.453125
 10
2271.9609375
 20
-2233.453125
 10
2262.333984375
 20
-2243.080078125
 10
2252.70703125
 20
-2252.70703125
 10
2243.080078125
 20
-2262.333984375
 10
2233.453125
 20
-2271.9609375
 10
2223.826171875
 20
-2281.587890625
 10
2223.826171875
 20
-2291.21484375
 10
2214.19921875
 20
-2300.841796875
 10
2204.572265625
 20
-2310.46875
 10
2204.572265625
 20
-2320.095703125
 10
2194.9453125
 20
-2329.72265625
 10
2194.9453125
 20
-2339.349609375
 10
2185.318359375
 20
-2348.9765625
 10
2185.318359375
 20
-2358.603515625
 10
2185.318359375
 20
-2368.23046875
 10
2175.69140625
 20
-2377.857421875
 10
2175.69140625
 20
-2387.484375
 10
2166.064453125
 20
-2397.111328125
 10
2166.064453125
 20
-2406.73828125
 10
2166.064453125
 20
-2416.365234375
 10
2166.064453125
 20
-2425.9921875
 10
2166.064453125
 20
-2435.619140625
 10
2156.4375
 20
-2445.24609375
 10
2166.064453125
 20
-2454.873046875
 10
2166.064453125
 20
-2464.5
 10
2156.4375
 20
-2474.126953125
 10
2156.4375
 20
-2483.75390625
 10
2166.064453125
 20
-2493.380859375
 10
2166.064453125
 20
-2503.0078125
 10
2156.4375
 20
-2512.634765625
 10
2166.064453125
 20
-2522.26171875
 10
2166.064453125
 20
-2531.888671875
 10
2175.69140625
 20
-2541.515625
 10
2175.69140625
 20
-2551.142578125
 10
2185.318359375
 20
-2560.76953125
 10
2175.69140625
 20
-2570.396484375
 10
2185.318359375
 20
-2580.0234375
 10
2185.318359375
 20
-2589.650390625
 10
2194.9453125
 20
-2599.27734375
 10
2194.9453125
 20
-2608.904296875
 10
2204.572265625
 20
-2618.53125
 10
2214.19921875
 20
-2628.158203125
 10
2223.826171875
 20
-2637.78515625
 10
2223.826171875
 20
-2647.412109375
 10
2233.453125
 20
-2647.412109375
 10
2243.080078125
 20
-2657.0390625
 10
2243.080078125
 20
-2666.666015625
 10
2252.70703125
 20
-2666.666015625
 10
2262.333984375
 20
-2676.29296875
 10
2262.333984375
 20
-2685.919921875
 10
2271.9609375
 20
-2685.919921875
 10
2281.587890625
 20
-2695.546875
 10
2291.21484375
 20
-2705.173828125
 10
2300.841796875
 20
-2705.173828125
 10
2310.46875
 20
-2714.80078125
 10
2320.095703125
 20
-2724.427734375
 10
2329.72265625
 20
-2724.427734375
 10
2339.349609375
 20
-2734.0546875
 10
2348.9765625
 20
-2734.0546875
 10
2358.603515625
 20
-2734.0546875
 10
2368.23046875
 20
-2743.681640625
 10
2377.857421875
 20
-2743.681640625
 10
2387.484375
 20
-2743.681640625
 10
2397.111328125
 20
-2743.681640625
 10
2406.73828125
 20
-2743.681640625
 10
2416.365234375
 20
-2753.30859375
 10
2425.9921875
 20
-2753.30859375
 10
2435.619140625
 20
-2753.30859375
 10
2445.24609375
 20
-2753.30859375
 10
2454.873046875
 20
-2753.30859375
 10
2464.5
 20
-2753.30859375
 10
2474.126953125
 20
-2753.30859375
 10
2483.75390625
 20
-2753.30859375
 10
2493.380859375
 20
-2753.30859375
 10
2503.0078125
 20
-2753.30859375
 10
2512.634765625
 20
-2753.30859375
 10
2522.26171875
 20
-2753.30859375
 10
2531.888671875
 20
-2753.30859375
 10
2541.515625
 20
-2743.681640625
 10
2551.142578125
 20
-2743.681640625
 10
2560.76953125
 20
-2743.681640625
 10
2570.396484375
 20
-2743.681640625
 10
2570.396484375
 20
-2734.0546875
 10
2580.0234375
 20
-2724.427734375
 10
2589.650390625
 20
-2724.427734375
 10
2599.27734375
 20
-2724.427734375
 10
2599.27734375
 20
-2714.80078125
 10
2608.904296875
 20
-2705.173828125
 10
2618.53125
 20
-2714.80078125
 10
2628.158203125
 20
-2705.173828125
 10
2637.78515625
 20
-2695.546875
 10
2647.412109375
 20
-2685.919921875
 10
2657.0390625
 20
-2685.919921875
 10
2666.666015625
 20
-2685.919921875
 10
2676.29296875
 20
-2676.29296875
 10
2676.29296875
 20
-2666.666015625
 10
2685.919921875
 20
-2657.0390625
 10
2695.546875
 20
-2647.412109375
 10
2695.546875
 20
-2637.78515625
 10
2705.173828125
 20
-2628.158203125
 10
2705.173828125
 20
-2618.53125
 10
2714.80078125
 20
-2608.904296875
 10
2724.427734375
 20
-2599.27734375
 10
2724.427734375
 20
-2589.650390625
 10
2724.427734375
 20
-2580.0234375
 10
2734.0546875
 20
-2570.396484375
 10
2734.0546875
 20
-2560.76953125
 10
2734.0546875
 20
-2551.142578125
 10
2743.681640625
 20
-2541.515625
 10
2743.681640625
 20
-2531.888671875
 10
2743.681640625
 20
-2522.26171875
 10
2743.681640625
 20
-2512.634765625
 10
2743.681640625
 20
-2503.0078125
 10
2753.30859375
 20
-2493.380859375
 10
2753.30859375
 20
-2483.75390625
 10
2753.30859375
 20
-2474.126953125
 10
2753.30859375
 20
-2464.5
 10
2753.30859375
 20
-2454.873046875
 10
2753.30859375
 20
-2445.24609375
 10
2753.30859375
 20
-2435.619140625
 10
2753.30859375
 20
-2425.9921875
 10
2753.30859375
 20
-2416.365234375
 10
2743.681640625
 20
-2406.73828125
 10
2743.681640625
 20
-2397.111328125
 10
2734.0546875
 20
-2387.484375
 10
2734.0546875
 20
-2377.857421875
 10
2734.0546875
 20
-2368.23046875
 10
2734.0546875
 20
-2358.603515625
 10
2734.0546875
 20
-2348.9765625
 10
2724.427734375
 20
-2339.349609375
 10
2714.80078125
 20
-2329.72265625
 10
2714.80078125
 20
-2320.095703125
 10
2705.173828125
 20
-2310.46875
 10
2705.173828125
 20
-2300.841796875
 10
2695.546875
 20
-2291.21484375
 10
2685.919921875
 20
-2281.587890625
 10
2685.919921875
 20
-2271.9609375
 10
2676.29296875
 20
-2262.333984375
 10
2676.29296875
 20
-2252.70703125
 10
2666.666015625
 20
-2252.70703125
 10
2657.0390625
 20
-2243.080078125
 10
2647.412109375
 20
-2243.080078125
 10
2637.78515625
 20
-2233.453125
 10
2628.158203125
 20
-2223.826171875
 10
2618.53125
 20
-2214.19921875
 10
2608.904296875
 20
-2214.19921875
 10
2599.27734375
 20
-2204.572265625
 10
2589.650390625
 20
-2204.572265625
 10
2580.0234375
 20
-2194.9453125
 10
2570.396484375
 20
-2194.9453125
 10
2560.76953125
 20
-2185.318359375
 10
2551.142578125
 20
-2185.318359375
 10
2541.515625
 20
-2175.69140625
 10
2531.888671875
 20
-2175.69140625
 10
2522.26171875
 20
-2175.69140625
 10
2512.634765625
 20
-2175.69140625
 10
2503.0078125
 20
-2175.69140625
 10
2493.380859375
 20
-2175.69140625
 10
2483.75390625
 20
-2166.064453125
 10
2474.126953125
 20
-2166.064453125
 10
2464.5
 20
-2166.064453125
 10
2454.873046875
 20
-2166.064453125
 10
2445.24609375
 20
-2166.064453125
 10
2435.619140625
 20
-2166.064453125
 10
2425.9921875
 20
-2166.064453125
  0
LWPOLYLINE
  5
33
330
17
100
AcDbEntity
  8
dielectric
100
AcDbPolyline
 90
1
 70
1
 43
0.5
 10
298.435546875
 20
-4794.22265625
  0
LWPOLYLINE
  5
34
330
17
100
AcDbEntity
  8
substrate
100
AcDbPolyline
 90
2044
 70
1
 43
0.5
 10
0.0
 20
-0.0
 10
0.0
 20
-9.626953125
 10
0.0
 20
-19.25390625
 10
0.0
 20
-28.880859375
 10
0.0
 20
-38.5078125
 10
0.0
 20
-48.134765625
 10
0.0
 20
-57.76171875
 10
0.0
 20
-67.388671875
 10
0.0
 20
-77.015625
 10
0.0
 20
-86.642578125
 10
0.0
 20
-96.26953125
 10
0.0
 20
-105.896484375
 10
0.0
 20
-115.5234375
 10
0.0
 20
-125.150390625
 10
0.0
 20
-134.77734375
 10
0.0
 20
-144.404296875
 10
0.0
 20
-154.03125
 10
0.0
 20
-163.658203125
 10
0.0
 20
-173.28515625
 10
0.0
 20
-182.912109375
 10
0.0
 20
-192.5390625
 10
0.0
 20
-202.166015625
 10
0.0
 20
-211.79296875
 10
0.0
 20
-221.419921875
 10
0.0
 20
-231.046875
 10
0.0
 20
-240.673828125
 10
0.0
 20
-250.30078125
 10
0.0
 20
-259.927734375
 10
0.0
 20
-269.5546875
 10
0.0
 20
-279.181640625
 10
0.0
 20
-288.80859375
 10
0.0
 20
-298.435546875
 10
0.0
 20
-308.0625
 10
0.0
 20
-317.689453125
 10
0.0
 20
-327.31640625
 10
0.0
 20
-336.943359375
 10
0.0
 20
-346.5703125
 10
0.0
 20
-356.197265625
 10
0.0
 20
-365.82421875
 10
0.0
 20
-375.451171875
 10
0.0
 20
-385.078125
 10
0.0
 20
-394.705078125
 10
0.0
 20
-404.33203125
 10
0.0
 20
-413.958984375
 10
0.0
 20
-423.5859375
 10
0.0
 20
-433.212890625
 10
0.0
 20
-442.83984375
 10
0.0
 20
-452.466796875
 10
0.0
 20
-462.09375
 10
0.0
 20
-471.720703125
 10
0.0
 20
-481.34765625
 10
0.0
 20
-490.974609375
 10
0.0
 20
-500.6015625
 10
0.0
 20
-510.228515625
 10
0.0
 20
-519.85546875
 10
0.0
 20
-529.482421875
 10
0.0
 20
-539.109375
 10
0.0
 20
-548.736328125
 10
0.0
 20
-558.36328125
 10
0.0
 20
-567.990234375
 10
0.0
 20
-577.6171875
 10
0.0
 20
-587.244140625
 10
0.0
 20
-596.87109375
 10
0.0
 20
-606.498046875
 10
0.0
 20
-616.125
 10
0.0
 20
-625.751953125
 10
0.0
 20
-635.37890625
 10
0.0
 20
-645.005859375
 10
0.0
 20
-654.6328125
 10
0.0
 20
-664.259765625
 10
0.0
 20
-673.88671875
 10
0.0
 20
-683.513671875
 10
0.0
 20
-693.140625
 10
0.0
 20
-702.767578125
 10
0.0
 20
-712.39453125
 10
0.0
 20
-722.021484375
 10
0.0
 20
-731.6484375
 10
0.0
 20
-741.275390625
 10
0.0
 20
-750.90234375
 10
0.0
 20
-760.529296875
 10
0.0
 20
-770.15625
 10
0.0
 20
-779.783203125
 10
0.0
 20
-789.41015625
 10
0.0
 20
-799.037109375
 10
0.0
 20
-808.6640625
 10
0.0
 20
-818.291015625
 10
0.0
 20
-827.91796875
 10
0.0
 20
-837.544921875
 10
0.0
 20
-847.171875
 10
0.0
 20
-856.798828125
 10
0.0
 20
-866.42578125
 10
0.0
 20
-876.052734375
 10
0.0
 20
-885.6796875
 10
0.0
 20
-895.306640625
 10
0.0
 20
-904.93359375
 10
0.0
 20
-914.560546875
 10
0.0
 20
-924.1875
 10
0.0
 20
-933.814453125
 10
0.0
 20
-943.44140625
 10
0.0
 20
-953.068359375
 10
0.0
 20
-962.6953125
 10
0.0
 20
-972.322265625
 10
0.0
 20
-981.94921875
 10
0.0
 20
-991.576171875
 10
0.0
 20
-1001.203125
 10
0.0
 20
-1010.830078125
 10
0.0
 20
-1020.45703125
 10
0.0
 20
-1030.083984375
 10
0.0
 20
-1039.7109375
 10
0.0
 20
-1049.337890625
 10
0.0
 20
-1058.96484375
 10
0.0
 20
-1068.591796875
 10
0.0
 20
-1078.21875
 10
0.0
 20
-1087.845703125
 10
0.0
 20
-1097.47265625
 10
0.0
 20
-1107.099609375
 10
0.0
 20
-1116.7265625
 10
0.0
 20
-1126.353515625
 10
0.0
 20
-1135.98046875
 10
0.0
 20
-1145.607421875
 10
0.0
 20
-1155.234375
 10
0.0
 20
-1164.861328125
 10
0.0
 20
-1174.48828125
 10
0.0
 20
-1184.115234375
 10
0.0
 20
-1193.7421875
 10
0.0
 20
-1203.369140625
 10
0.0
 20
-1212.99609375
 10
0.0
 20
-1222.623046875
 10
0.0
 20
-1232.25
 10
0.0
 20
-1241.876953125
 10
0.0
 20
-1251.50390625
 10
0.0
 20
-1261.130859375
 10
0.0
 20
-1270.7578125
 10
0.0
 20
-1280.384765625
 10
0.0
 20
-1290.01171875
 10
0.0
 20
-1299.638671875
 10
0.0
 20
-1309.265625
 10
0.0
 20
-1318.892578125
 10
0.0
 20
-1328.51953125
 10
0.0
 20
-1338.146484375
 10
0.0
 20
-1347.7734375
 10
0.0
 20
-1357.400390625
 10
0.0
 20
-1367.02734375
 10
0.0
 20
-1376.654296875
 10
0.0
 20
-1386.28125
 10
0.0
 20
-1395.908203125
 10
0.0
 20
-1405.53515625
 10
0.0
 20
-1415.162109375
 10
0.0
 20
-1424.7890625
 10
0.0
 20
-1434.416015625
 10
0.0
 20
-1444.04296875
 10
0.0
 20
-1453.669921875
 10
0.0
 20
-1463.296875
 10
0.0
 20
-1472.923828125
 10
0.0
 20
-1482.55078125
 10
0.0
 20
-1492.177734375
 10
0.0
 20
-1501.8046875
 10
0.0
 20
-1511.431640625
 10
0.0
 20
-1521.05859375
 10
0.0
 20
-1530.685546875
 10
0.0
 20
-1540.3125
 10
0.0
 20
-1549.939453125
 10
0.0
 20
-1559.56640625
 10
0.0
 20
-1569.193359375
 10
0.0
 20
-1578.8203125
 10
0.0
 20
-1588.447265625
 10
0.0
 20
-1598.07421875
 10
0.0
 20
-1607.701171875
 10
0.0
 20
-1617.328125
 10
0.0
 20
-1626.955078125
 10
0.0
 20
-1636.58203125
 10
0.0
 20
-1646.208984375
 10
0.0
 20
-1655.8359375
 10
0.0
 20
-1665.462890625
 10
0.0
 20
-1675.08984375
 10
0.0
 20
-1684.716796875
 10
0.0
 20
-1694.34375
 10
0.0
 20
-1703.970703125
 10
0.0
 20
-1713.59765625
 10
0.0
 20
-1723.224609375
 10
0.0
 20
-1732.8515625
 10
0.0
 20
-1742.478515625
 10
0.0
 20
-1752.10546875
 10
0.0
 20
-1761.732421875
 10
0.0
 20
-1771.359375
 10
0.0
 20
-1780.986328125
 10
0.0
 20
-1790.61328125
 10
0.0
 20
-1800.240234375
 10
0.0
 20
-1809.8671875
 10
0.0
 20
-1819.494140625
 10
0.0
 20
-1829.12109375
 10
0.0
 20
-1838.748046875
 10
0.0
 20
-1848.375
 10
0.0
 20
-1858.001953125
 10
0.0
 20
-1867.62890625
 10
0.0
 20
-1877.255859375
 10
0.0
 20
-1886.8828125
 10
0.0
 20
-1896.509765625
 10
0.0
 20
-1906.13671875
 10
0.0
 20
-1915.763671875
 10
0.0
 20
-1925.390625
 10
0.0
 20
-1935.017578125
 10
0.0
 20
-1944.64453125
 10
0.0
 20
-1954.271484375
 10
0.0
 20
-1963.8984375
 10
0.0
 20
-1973.525390625
 10
0.0
 20
-1983.15234375
 10
0.0
 20
-1992.779296875
 10
0.0
 20
-2002.40625
 10
0.0
 20
-2012.033203125
 10
0.0
 20
-2021.66015625
 10
0.0
 20
-2031.287109375
 10
0.0
 20
-2040.9140625
 10
0.0
 20
-2050.541015625
 10
0.0
 20
-2060.16796875
 10
0.0
 20
-2069.794921875
 10
0.0
 20
-2079.421875
 10
0.0
 20
-2089.048828125
 10
0.0
 20
-2098.67578125
 10
0.0
 20
-2108.302734375
 10
0.0
 20
-2117.9296875
 10
0.0
 20
-2127.556640625
 10
0.0
 20
-2137.18359375
 10
0.0
 20
-2146.810546875
 10
0.0
 20
-2156.4375
 10
0.0
 20
-2166.064453125
 10
0.0
 20
-2175.69140625
 10
0.0
 20
-2185.318359375
 10
0.0
 20
-2194.9453125
 10
0.0
 20
-2204.572265625
 10
0.0
 20
-2214.19921875
 10
0.0
 20
-2223.826171875
 10
0.0
 20
-2233.453125
 10
0.0
 20
-2243.080078125
 10
0.0
 20
-2252.70703125
 10
0.0
 20
-2262.333984375
 10
0.0
 20
-2271.9609375
 10
0.0
 20
-2281.587890625
 10
0.0
 20
-2291.21484375
 10
0.0
 20
-2300.841796875
 10
0.0
 20
-2310.46875
 10
0.0
 20
-2320.095703125
 10
0.0
 20
-2329.72265625
 10
0.0
 20
-2339.349609375
 10
0.0
 20
-2348.9765625
 10
0.0
 20
-2358.603515625
 10
0.0
 20
-2368.23046875
 10
0.0
 20
-2377.857421875
 10
0.0
 20
-2387.484375
 10
0.0
 20
-2397.111328125
 10
0.0
 20
-2406.73828125
 10
0.0
 20
-2416.365234375
 10
0.0
 20
-2425.9921875
 10
0.0
 20
-2435.619140625
 10
0.0
 20
-2445.24609375
 10
0.0
 20
-2454.873046875
 10
0.0
 20
-2464.5
 10
0.0
 20
-2474.126953125
 10
0.0
 20
-2483.75390625
 10
0.0
 20
-2493.380859375
 10
0.0
 20
-2503.0078125
 10
0.0
 20
-2512.634765625
 10
0.0
 20
-2522.26171875
 10
0.0
 20
-2531.888671875
 10
0.0
 20
-2541.515625
 10
0.0
 20
-2551.142578125
 10
0.0
 20
-2560.76953125
 10
0.0
 20
-2570.396484375
 10
0.0
 20
-2580.0234375
 10
0.0
 20
-2589.650390625
 10
0.0
 20
-2599.27734375
 10
0.0
 20
-2608.904296875
 10
0.0
 20
-2618.53125
 10
0.0
 20
-2628.158203125
 10
0.0
 20
-2637.78515625
 10
0.0
 20
-2647.412109375
 10
0.0
 20
-2657.0390625
 10
0.0
 20
-2666.666015625
 10
0.0
 20
-2676.29296875
 10
0.0
 20
-2685.919921875
 10
0.0
 20
-2695.546875
 10
0.0
 20
-2705.173828125
 10
0.0
 20
-2714.80078125
 10
0.0
 20
-2724.427734375
 10
0.0
 20
-2734.0546875
 10
0.0
 20
-2743.681640625
 10
0.0
 20
-2753.30859375
 10
0.0
 20
-2762.935546875
 10
0.0
 20
-2772.5625
 10
0.0
 20
-2782.189453125
 10
0.0
 20
-2791.81640625
 10
0.0
 20
-2801.443359375
 10
0.0
 20
-2811.0703125
 10
0.0
 20
-2820.697265625
 10
0.0
 20
-2830.32421875
 10
0.0
 20
-2839.951171875
 10
0.0
 20
-2849.578125
 10
0.0
 20
-2859.205078125
 10
0.0
 20
-2868.83203125
 10
0.0
 20
-2878.458984375
 10
0.0
 20
-2888.0859375
 10
0.0
 20
-2897.712890625
 10
0.0
 20
-2907.33984375
 10
0.0
 20
-2916.966796875
 10
0.0
 20
-2926.59375
 10
0.0
 20
-2936.220703125
 10
0.0
 20
-2945.84765625
 10
0.0
 20
-2955.474609375
 10
0.0
 20
-2965.1015625
 10
0.0
 20
-2974.728515625
 10
0.0
 20
-2984.35546875
 10
0.0
 20
-2993.982421875
 10
0.0
 20
-3003.609375
 10
0.0
 20
-3013.236328125
 10
0.0
 20
-3022.86328125
 10
0.0
 20
-3032.490234375
 10
0.0
 20
-3042.1171875
 10
0.0
 20
-3051.744140625
 10
0.0
 20
-3061.37109375
 10
0.0
 20
-3070.998046875
 10
0.0
 20
-3080.625
 10
0.0
 20
-3090.251953125
 10
0.0
 20
-3099.87890625
 10
0.0
 20
-3109.505859375
 10
0.0
 20
-3119.1328125
 10
0.0
 20
-3128.759765625
 10
0.0
 20
-3138.38671875
 10
0.0
 20
-3148.013671875
 10
0.0
 20
-3157.640625
 10
0.0
 20
-3167.267578125
 10
0.0
 20
-3176.89453125
 10
0.0
 20
-3186.521484375
 10
0.0
 20
-3196.1484375
 10
0.0
 20
-3205.775390625
 10
0.0
 20
-3215.40234375
 10
0.0
 20
-3225.029296875
 10
0.0
 20
-3234.65625
 10
0.0
 20
-3244.283203125
 10
0.0
 20
-3253.91015625
 10
0.0
 20
-3263.537109375
 10
0.0
 20
-3273.1640625
 10
0.0
 20
-3282.791015625
 10
0.0
 20
-3292.41796875
 10
0.0
 20
-3302.044921875
 10
0.0
 20
-3311.671875
 10
0.0
 20
-3321.298828125
 10
0.0
 20
-3330.92578125
 10
0.0
 20
-3340.552734375
 10
0.0
 20
-3350.1796875
 10
0.0
 20
-3359.806640625
 10
0.0
 20
-3369.43359375
 10
0.0
 20
-3379.060546875
 10
0.0
 20
-3388.6875
 10
0.0
 20
-3398.314453125
 10
0.0
 20
-3407.94140625
 10
0.0
 20
-3417.568359375
 10
0.0
 20
-3427.1953125
 10
0.0
 20
-3436.822265625
 10
0.0
 20
-3446.44921875
 10
0.0
 20
-3456.076171875
 10
0.0
 20
-3465.703125
 10
0.0
 20
-3475.330078125
 10
0.0
 20
-3484.95703125
 10
0.0
 20
-3494.583984375
 10
0.0
 20
-3504.2109375
 10
0.0
 20
-3513.837890625
 10
0.0
 20
-3523.46484375
 10
0.0
 20
-3533.091796875
 10
0.0
 20
-3542.71875
 10
0.0
 20
-3552.345703125
 10
0.0
 20
-3561.97265625
 10
0.0
 20
-3571.599609375
 10
0.0
 20
-3581.2265625
 10
0.0
 20
-3590.853515625
 10
0.0
 20
-3600.48046875
 10
0.0
 20
-3610.107421875
 10
0.0
 20
-3619.734375
 10
0.0
 20
-3629.361328125
 10
0.0
 20
-3638.98828125
 10
0.0
 20
-3648.615234375
 10
0.0
 20
-3658.2421875
 10
0.0
 20
-3667.869140625
 10
0.0
 20
-3677.49609375
 10
0.0
 20
-3687.123046875
 10
0.0
 20
-3696.75
 10
0.0
 20
-3706.376953125
 10
0.0
 20
-3716.00390625
 10
0.0
 20
-3725.630859375
 10
0.0
 20
-3735.2578125
 10
0.0
 20
-3744.884765625
 10
0.0
 20
-3754.51171875
 10
0.0
 20
-3764.138671875
 10
0.0
 20
-3773.765625
 10
0.0
 20
-3783.392578125
 10
0.0
 20
-3793.01953125
 10
0.0
 20
-3802.646484375
 10
0.0
 20
-3812.2734375
 10
0.0
 20
-3821.900390625
 10
0.0
 20
-3831.52734375
 10
0.0
 20
-3841.154296875
 10
0.0
 20
-3850.78125
 10
0.0
 20
-3860.408203125
 10
0.0
 20
-3870.03515625
 10
0.0
 20
-3879.662109375
 10
0.0
 20
-3889.2890625
 10
0.0
 20
-3898.916015625
 10
0.0
 20
-3908.54296875
 10
0.0
 20
-3918.169921875
 10
0.0
 20
-3927.796875
 10
0.0
 20
-3937.423828125
 10
0.0
 20
-3947.05078125
 10
0.0
 20
-3956.677734375
 10
0.0
 20
-3966.3046875
 10
0.0
 20
-3975.931640625
 10
0.0
 20
-3985.55859375
 10
0.0
 20
-3995.185546875
 10
0.0
 20
-4004.8125
 10
0.0
 20
-4014.439453125
 10
0.0
 20
-4024.06640625
 10
0.0
 20
-4033.693359375
 10
0.0
 20
-4043.3203125
 10
0.0
 20
-4052.947265625
 10
0.0
 20
-4062.57421875
 10
0.0
 20
-4072.201171875
 10
0.0
 20
-4081.828125
 10
0.0
 20
-4091.455078125
 10
0.0
 20
-4101.08203125
 10
0.0
 20
-4110.708984375
 10
0.0
 20
-4120.3359375
 10
0.0
 20
-4129.962890625
 10
0.0
 20
-4139.58984375
 10
0.0
 20
-4149.216796875
 10
0.0
 20
-4158.84375
 10
0.0
 20
-4168.470703125
 10
0.0
 20
-4178.09765625
 10
0.0
 20
-4187.724609375
 10
0.0
 20
-4197.3515625
 10
0.0
 20
-4206.978515625
 10
0.0
 20
-4216.60546875
 10
0.0
 20
-4226.232421875
 10
0.0
 20
-4235.859375
 10
0.0
 20
-4245.486328125
 10
0.0
 20
-4255.11328125
 10
0.0
 20
-4264.740234375
 10
0.0
 20
-4274.3671875
 10
0.0
 20
-4283.994140625
 10
0.0
 20
-4293.62109375
 10
0.0
 20
-4303.248046875
 10
0.0
 20
-4312.875
 10
0.0
 20
-4322.501953125
 10
0.0
 20
-4332.12890625
 10
0.0
 20
-4341.755859375
 10
0.0
 20
-4351.3828125
 10
0.0
 20
-4361.009765625
 10
0.0
 20
-4370.63671875
 10
0.0
 20
-4380.263671875
 10
0.0
 20
-4389.890625
 10
0.0
 20
-4399.517578125
 10
0.0
 20
-4409.14453125
 10
0.0
 20
-4418.771484375
 10
0.0
 20
-4428.3984375
 10
0.0
 20
-4438.025390625
 10
0.0
 20
-4447.65234375
 10
0.0
 20
-4457.279296875
 10
0.0
 20
-4466.90625
 10
0.0
 20
-4476.533203125
 10
0.0
 20
-4486.16015625
 10
0.0
 20
-4495.787109375
 10
0.0
 20
-4505.4140625
 10
0.0
 20
-4515.041015625
 10
0.0
 20
-4524.66796875
 10
0.0
 20
-4534.294921875
 10
0.0
 20
-4543.921875
 10
0.0
 20
-4553.548828125
 10
0.0
 20
-4563.17578125
 10
0.0
 20
-4572.802734375
 10
0.0
 20
-4582.4296875
 10
0.0
 20
-4592.056640625
 10
0.0
 20
-4601.68359375
 10
0.0
 20
-4611.310546875
 10
0.0
 20
-4620.9375
 10
0.0
 20
-4630.564453125
 10
0.0
 20
-4640.19140625
 10
0.0
 20
-4649.818359375
 10
0.0
 20
-4659.4453125
 10
0.0
 20
-4669.072265625
 10
0.0
 20
-4678.69921875
 10
0.0
 20
-4688.326171875
 10
0.0
 20
-4697.953125
 10
0.0
 20
-4707.580078125
 10
0.0
 20
-4717.20703125
 10
0.0
 20
-4726.833984375
 10
0.0
 20
-4736.4609375
 10
0.0
 20
-4746.087890625
 10
0.0
 20
-4755.71484375
 10
0.0
 20
-4765.341796875
 10
0.0
 20
-4774.96875
 10
0.0
 20
-4784.595703125
 10
0.0
 20
-4794.22265625
 10
0.0
 20
-4803.849609375
 10
0.0
 20
-4813.4765625
 10
0.0
 20
-4823.103515625
 10
0.0
 20
-4832.73046875
 10
0.0
 20
-4842.357421875
 10
0.0
 20
-4851.984375
 10
0.0
 20
-4861.611328125
 10
0.0
 20
-4871.23828125
 10
0.0
 20
-4880.865234375
 10
0.0
 20
-4890.4921875
 10
0.0
 20
-4900.119140625
 10
0.0
 20
-4909.74609375
 10
0.0
 20
-4919.373046875
 10
9.626953125
 20
-4919.373046875
 10
19.25390625
 20
-4919.373046875
 10
28.880859375
 20
-4919.373046875
 10
38.5078125
 20
-4919.373046875
 10
48.134765625
 20
-4919.373046875
 10
57.76171875
 20
-4919.373046875
 10
67.388671875
 20
-4919.373046875
 10
77.015625
 20
-4919.373046875
 10
86.642578125
 20
-4919.373046875
 10
96.26953125
 20
-4919.373046875
 10
105.896484375
 20
-4919.373046875
 10
115.5234375
 20
-4919.373046875
 10
125.150390625
 20
-4919.373046875
 10
134.77734375
 20
-4919.373046875
 10
144.404296875
 20
-4919.373046875
 10
154.03125
 20
-4919.373046875
 10
163.658203125
 20
-4919.373046875
 10
173.28515625
 20
-4919.373046875
 10
182.912109375
 20
-4919.373046875
 10
192.5390625
 20
-4919.373046875
 10
202.166015625
 20
-4919.373046875
 10
211.79296875
 20
-4919.373046875
 10
221.419921875
 20
-4919.373046875
 10
231.046875
 20
-4919.373046875
 10
240.673828125
 20
-4919.373046875
 10
250.30078125
 20
-4919.373046875
 10
259.927734375
 20
-4919.373046875
 10
269.5546875
 20
-4919.373046875
 10
279.181640625
 20
-4919.373046875
 10
288.80859375
 20
-4919.373046875
 10
298.435546875
 20
-4919.373046875
 10
308.0625
 20
-4919.373046875
 10
317.689453125
 20
-4919.373046875
 10
327.31640625
 20
-4919.373046875
 10
336.943359375
 20
-4919.373046875
 10
346.5703125
 20
-4919.373046875
 10
356.197265625
 20
-4919.373046875
 10
365.82421875
 20
-4919.373046875
 10
375.451171875
 20
-4919.373046875
 10
385.078125
 20
-4919.373046875
 10
394.705078125
 20
-4919.373046875
 10
404.33203125
 20
-4919.373046875
 10
413.958984375
 20
-4919.373046875
 10
423.5859375
 20
-4919.373046875
 10
433.212890625
 20
-4919.373046875
 10
442.83984375
 20
-4919.373046875
 10
452.466796875
 20
-4919.373046875
 10
462.09375
 20
-4919.373046875
 10
471.720703125
 20
-4919.373046875
 10
481.34765625
 20
-4919.373046875
 10
490.974609375
 20
-4919.373046875
 10
500.6015625
 20
-4919.373046875
 10
510.228515625
 20
-4919.373046875
 10
519.85546875
 20
-4919.373046875
 10
529.482421875
 20
-4919.373046875
 10
539.109375
 20
-4919.373046875
 10
548.736328125
 20
-4919.373046875
 10
558.36328125
 20
-4919.373046875
 10
567.990234375
 20
-4919.373046875
 10
577.6171875
 20
-4919.373046875
 10
587.244140625
 20
-4919.373046875
 10
596.87109375
 20
-4919.373046875
 10
606.498046875
 20
-4919.373046875
 10
616.125
 20
-4919.373046875
 10
625.751953125
 20
-4919.373046875
 10
635.37890625
 20
-4919.373046875
 10
645.005859375
 20
-4919.373046875
 10
654.6328125
 20
-4919.373046875
 10
664.259765625
 20
-4919.373046875
 10
673.88671875
 20
-4919.373046875
 10
683.513671875
 20
-4919.373046875
 10
693.140625
 20
-4919.373046875
 10
702.767578125
 20
-4919.373046875
 10
712.39453125
 20
-4919.373046875
 10
722.021484375
 20
-4919.373046875
 10
731.6484375
 20
-4919.373046875
 10
741.275390625
 20
-4919.373046875
 10
750.90234375
 20
-4919.373046875
 10
760.529296875
 20
-4919.373046875
 10
770.15625
 20
-4919.373046875
 10
779.783203125
 20
-4919.373046875
 10
789.41015625
 20
-4919.373046875
 10
799.037109375
 20
-4919.373046875
 10
808.6640625
 20
-4919.373046875
 10
818.291015625
 20
-4919.373046875
 10
827.91796875
 20
-4919.373046875
 10
837.544921875
 20
-4919.373046875
 10
847.171875
 20
-4919.373046875
 10
856.798828125
 20
-4919.373046875
 10
866.42578125
 20
-4919.373046875
 10
876.052734375
 20
-4919.373046875
 10
885.6796875
 20
-4919.373046875
 10
895.306640625
 20
-4919.373046875
 10
904.93359375
 20
-4919.373046875
 10
914.560546875
 20
-4919.373046875
 10
924.1875
 20
-4919.373046875
 10
933.814453125
 20
-4919.373046875
 10
943.44140625
 20
-4919.373046875
 10
953.068359375
 20
-4919.373046875
 10
962.6953125
 20
-4919.373046875
 10
972.322265625
 20
-4919.373046875
 10
981.94921875
 20
-4919.373046875
 10
991.576171875
 20
-4919.373046875
 10
1001.203125
 20
-4919.373046875
 10
1010.830078125
 20
-4919.373046875
 10
1020.45703125
 20
-4919.373046875
 10
1030.083984375
 20
-4919.373046875
 10
1039.7109375
 20
-4919.373046875
 10
1049.337890625
 20
-4919.373046875
 10
1058.96484375
 20
-4919.373046875
 10
1068.591796875
 20
-4919.373046875
 10
1078.21875
 20
-4919.373046875
 10
1087.845703125
 20
-4919.373046875
 10
1097.47265625
 20
-4919.373046875
 10
1107.099609375
 20
-4919.373046875
 10
1116.7265625
 20
-4919.373046875
 10
1126.353515625
 20
-4919.373046875
 10
1135.98046875
 20
-4919.373046875
 10
1145.607421875
 20
-4919.373046875
 10
1155.234375
 20
-4919.373046875
 10
1164.861328125
 20
-4919.373046875
 10
1174.48828125
 20
-4919.373046875
 10
1184.115234375
 20
-4919.373046875
 10
1193.7421875
 20
-4919.373046875
 10
1203.369140625
 20
-4919.373046875
 10
1212.99609375
 20
-4919.373046875
 10
1222.623046875
 20
-4919.373046875
 10
1232.25
 20
-4919.373046875
 10
1241.876953125
 20
-4919.373046875
 10
1251.50390625
 20
-4919.373046875
 10
1261.130859375
 20
-4919.373046875
 10
1270.7578125
 20
-4919.373046875
 10
1280.384765625
 20
-4919.373046875
 10
1290.01171875
 20
-4919.373046875
 10
1299.638671875
 20
-4919.373046875
 10
1309.265625
 20
-4919.373046875
 10
1318.892578125
 20
-4919.373046875
 10
1328.51953125
 20
-4919.373046875
 10
1338.146484375
 20
-4919.373046875
 10
1347.7734375
 20
-4919.373046875
 10
1357.400390625
 20
-4919.373046875
 10
1367.02734375
 20
-4919.373046875
 10
1376.654296875
 20
-4919.373046875
 10
1386.28125
 20
-4919.373046875
 10
1395.908203125
 20
-4919.373046875
 10
1405.53515625
 20
-4919.373046875
 10
1415.162109375
 20
-4919.373046875
 10
1424.7890625
 20
-4919.373046875
 10
1434.416015625
 20
-4919.373046875
 10
1444.04296875
 20
-4919.373046875
 10
1453.669921875
 20
-4919.373046875
 10
1463.296875
 20
-4919.373046875
 10
1472.923828125
 20
-4919.373046875
 10
1482.55078125
 20
-4919.373046875
 10
1492.177734375
 20
-4919.373046875
 10
1501.8046875
 20
-4919.373046875
 10
1511.431640625
 20
-4919.373046875
 10
1521.05859375
 20
-4919.373046875
 10
1530.685546875
 20
-4919.373046875
 10
1540.3125
 20
-4919.373046875
 10
1549.939453125
 20
-4919.373046875
 10
1559.56640625
 20
-4919.373046875
 10
1569.193359375
 20
-4919.373046875
 10
1578.8203125
 20
-4919.373046875
 10
1588.447265625
 20
-4919.373046875
 10
1598.07421875
 20
-4919.373046875
 10
1607.701171875
 20
-4919.373046875
 10
1617.328125
 20
-4919.373046875
 10
1626.955078125
 20
-4919.373046875
 10
1636.58203125
 20
-4919.373046875
 10
1646.208984375
 20
-4919.373046875
 10
1655.8359375
 20
-4919.373046875
 10
1665.462890625
 20
-4919.373046875
 10
1675.08984375
 20
-4919.373046875
 10
1684.716796875
 20
-4919.373046875
 10
1694.34375
 20
-4919.373046875
 10
1703.970703125
 20
-4919.373046875
 10
1713.59765625
 20
-4919.373046875
 10
1723.224609375
 20
-4919.373046875
 10
1732.8515625
 20
-4919.373046875
 10
1742.478515625
 20
-4919.373046875
 10
1752.10546875
 20
-4919.373046875
 10
1761.732421875
 20
-4919.373046875
 10
1771.359375
 20
-4919.373046875
 10
1780.986328125
 20
-4919.373046875
 10
1790.61328125
 20
-4919.373046875
 10
1800.240234375
 20
-4919.373046875
 10
1809.8671875
 20
-4919.373046875
 10
1819.494140625
 20
-4919.373046875
 10
1829.12109375
 20
-4919.373046875
 10
1838.748046875
 20
-4919.373046875
 10
1848.375
 20
-4919.373046875
 10
1858.001953125
 20
-4919.373046875
 10
1867.62890625
 20
-4919.373046875
 10
1877.255859375
 20
-4919.373046875
 10
1886.8828125
 20
-4919.373046875
 10
1896.509765625
 20
-4919.373046875
 10
1906.13671875
 20
-4919.373046875
 10
1915.763671875
 20
-4919.373046875
 10
1925.390625
 20
-4919.373046875
 10
1935.017578125
 20
-4919.373046875
 10
1944.64453125
 20
-4919.373046875
 10
1954.271484375
 20
-4919.373046875
 10
1963.8984375
 20
-4919.373046875
 10
1973.525390625
 20
-4919.373046875
 10
1983.15234375
 20
-4919.373046875
 10
1992.779296875
 20
-4919.373046875
 10
2002.40625
 20
-4919.373046875
 10
2012.033203125
 20
-4919.373046875
 10
2021.66015625
 20
-4919.373046875
 10
2031.287109375
 20
-4919.373046875
 10
2040.9140625
 20
-4919.373046875
 10
2050.541015625
 20
-4919.373046875
 10
2060.16796875
 20
-4919.373046875
 10
2069.794921875
 20
-4919.373046875
 10
2079.421875
 20
-4919.373046875
 10
2089.048828125
 20
-4919.373046875
 10
2098.67578125
 20
-4919.373046875
 10
2108.302734375
 20
-4919.373046875
 10
2117.9296875
 20
-4919.373046875
 10
2127.556640625
 20
-4919.373046875
 10
2137.18359375
 20
-4919.373046875
 10
2146.810546875
 20
-4919.373046875
 10
2156.4375
 20
-4919.373046875
 10
2166.064453125
 20
-4919.373046875
 10
2175.69140625
 20
-4919.373046875
 10
2185.318359375
 20
-4919.373046875
 10
2194.9453125
 20
-4919.373046875
 10
2204.572265625
 20
-4919.373046875
 10
2214.19921875
 20
-4919.373046875
 10
2223.826171875
 20
-4919.373046875
 10
2233.453125
 20
-4919.373046875
 10
2243.080078125
 20
-4919.373046875
 10
2252.70703125
 20
-4919.373046875
 10
2262.333984375
 20
-4919.373046875
 10
2271.9609375
 20
-4919.373046875
 10
2281.587890625
 20
-4919.373046875
 10
2291.21484375
 20
-4919.373046875
 10
2300.841796875
 20
-4919.373046875
 10
2310.46875
 20
-4919.373046875
 10
2320.095703125
 20
-4919.373046875
 10
2329.72265625
 20
-4919.373046875
 10
2339.349609375
 20
-4919.373046875
 10
2348.9765625
 20
-4919.373046875
 10
2358.603515625
 20
-4919.373046875
 10
2368.23046875
 20
-4919.373046875
 10
2377.857421875
 20
-4919.373046875
 10
2387.484375
 20
-4919.373046875
 10
2397.111328125
 20
-4919.373046875
 10
2406.73828125
 20
-4919.373046875
 10
2416.365234375
 20
-4919.373046875
 10
2425.9921875
 20
-4919.373046875
 10
2435.619140625
 20
-4919.373046875
 10
2445.24609375
 20
-4919.373046875
 10
2454.873046875
 20
-4919.373046875
 10
2464.5
 20
-4919.373046875
 10
2474.126953125
 20
-4919.373046875
 10
2483.75390625
 20
-4919.373046875
 10
2493.380859375
 20
-4919.373046875
 10
2503.0078125
 20
-4919.373046875
 10
2512.634765625
 20
-4919.373046875
 10
2522.26171875
 20
-4919.373046875
 10
2531.888671875
 20
-4919.373046875
 10
2541.515625
 20
-4919.373046875
 10
2551.142578125
 20
-4919.373046875
 10
2560.76953125
 20
-4919.373046875
 10
2570.396484375
 20
-4919.373046875
 10
2580.0234375
 20
-4919.373046875
 10
2589.650390625
 20
-4919.373046875
 10
2599.27734375
 20
-4919.373046875
 10
2608.904296875
 20
-4919.373046875
 10
2618.53125
 20
-4919.373046875
 10
2628.158203125
 20
-4919.373046875
 10
2637.78515625
 20
-4919.373046875
 10
2647.412109375
 20
-4919.373046875
 10
2657.0390625
 20
-4919.373046875
 10
2666.666015625
 20
-4919.373046875
 10
2676.29296875
 20
-4919.373046875
 10
2685.919921875
 20
-4919.373046875
 10
2695.546875
 20
-4919.373046875
 10
2705.173828125
 20
-4919.373046875
 10
2714.80078125
 20
-4919.373046875
 10
2724.427734375
 20
-4919.373046875
 10
2734.0546875
 20
-4919.373046875
 10
2743.681640625
 20
-4919.373046875
 10
2753.30859375
 20
-4919.373046875
 10
2762.935546875
 20
-4919.373046875
 10
2772.5625
 20
-4919.373046875
 10
2782.189453125
 20
-4919.373046875
 10
2791.81640625
 20
-4919.373046875
 10
2801.443359375
 20
-4919.373046875
 10
2811.0703125
 20
-4919.373046875
 10
2820.697265625
 20
-4919.373046875
 10
2830.32421875
 20
-4919.373046875
 10
2839.951171875
 20
-4919.373046875
 10
2849.578125
 20
-4919.373046875
 10
2859.205078125
 20
-4919.373046875
 10
2868.83203125
 20
-4919.373046875
 10
2878.458984375
 20
-4919.373046875
 10
2888.0859375
 20
-4919.373046875
 10
2897.712890625
 20
-4919.373046875
 10
2907.33984375
 20
-4919.373046875
 10
2916.966796875
 20
-4919.373046875
 10
2926.59375
 20
-4919.373046875
 10
2936.220703125
 20
-4919.373046875
 10
2945.84765625
 20
-4919.373046875
 10
2955.474609375
 20
-4919.373046875
 10
2965.1015625
 20
-4919.373046875
 10
2974.728515625
 20
-4919.373046875
 10
2984.35546875
 20
-4919.373046875
 10
2993.982421875
 20
-4919.373046875
 10
3003.609375
 20
-4919.373046875
 10
3013.236328125
 20
-4919.373046875
 10
3022.86328125
 20
-4919.373046875
 10
3032.490234375
 20
-4919.373046875
 10
3042.1171875
 20
-4919.373046875
 10
3051.744140625
 20
-4919.373046875
 10
3061.37109375
 20
-4919.373046875
 10
3070.998046875
 20
-4919.373046875
 10
3080.625
 20
-4919.373046875
 10
3090.251953125
 20
-4919.373046875
 10
3099.87890625
 20
-4919.373046875
 10
3109.505859375
 20
-4919.373046875
 10
3119.1328125
 20
-4919.373046875
 10
3128.759765625
 20
-4919.373046875
 10
3138.38671875
 20
-4919.373046875
 10
3148.013671875
 20
-4919.373046875
 10
3157.640625
 20
-4919.373046875
 10
3167.267578125
 20
-4919.373046875
 10
3176.89453125
 20
-4919.373046875
 10
3186.521484375
 20
-4919.373046875
 10
3196.1484375
 20
-4919.373046875
 10
3205.775390625
 20
-4919.373046875
 10
3215.40234375
 20
-4919.373046875
 10
3225.029296875
 20
-4919.373046875
 10
3234.65625
 20
-4919.373046875
 10
3244.283203125
 20
-4919.373046875
 10
3253.91015625
 20
-4919.373046875
 10
3263.537109375
 20
-4919.373046875
 10
3273.1640625
 20
-4919.373046875
 10
3282.791015625
 20
-4919.373046875
 10
3292.41796875
 20
-4919.373046875
 10
3302.044921875
 20
-4919.373046875
 10
3311.671875
 20
-4919.373046875
 10
3321.298828125
 20
-4919.373046875
 10
3330.92578125
 20
-4919.373046875
 10
3340.552734375
 20
-4919.373046875
 10
3350.1796875
 20
-4919.373046875
 10
3359.806640625
 20
-4919.373046875
 10
3369.43359375
 20
-4919.373046875
 10
3379.060546875
 20
-4919.373046875
 10
3388.6875
 20
-4919.373046875
 10
3398.314453125
 20
-4919.373046875
 10
3407.94140625
 20
-4919.373046875
 10
3417.568359375
 20
-4919.373046875
 10
3427.1953125
 20
-4919.373046875
 10
3436.822265625
 20
-4919.373046875
 10
3446.44921875
 20
-4919.373046875
 10
3456.076171875
 20
-4919.373046875
 10
3465.703125
 20
-4919.373046875
 10
3475.330078125
 20
-4919.373046875
 10
3484.95703125
 20
-4919.373046875
 10
3494.583984375
 20
-4919.373046875
 10
3504.2109375
 20
-4919.373046875
 10
3513.837890625
 20
-4919.373046875
 10
3523.46484375
 20
-4919.373046875
 10
3533.091796875
 20
-4919.373046875
 10
3542.71875
 20
-4919.373046875
 10
3552.345703125
 20
-4919.373046875
 10
3561.97265625
 20
-4919.373046875
 10
3571.599609375
 20
-4919.373046875
 10
3581.2265625
 20
-4919.373046875
 10
3590.853515625
 20
-4919.373046875
 10
3600.48046875
 20
-4919.373046875
 10
3610.107421875
 20
-4919.373046875
 10
3619.734375
 20
-4919.373046875
 10
3629.361328125
 20
-4919.373046875
 10
3638.98828125
 20
-4919.373046875
 10
3648.615234375
 20
-4919.373046875
 10
3658.2421875
 20
-4919.373046875
 10
3667.869140625
 20
-4919.373046875
 10
3677.49609375
 20
-4919.373046875
 10
3687.123046875
 20
-4919.373046875
 10
3696.75
 20
-4919.373046875
 10
3706.376953125
 20
-4919.373046875
 10
3716.00390625
 20
-4919.373046875
 10
3725.630859375
 20
-4919.373046875
 10
3735.2578125
 20
-4919.373046875
 10
3744.884765625
 20
-4919.373046875
 10
3754.51171875
 20
-4919.373046875
 10
3764.138671875
 20
-4919.373046875
 10
3773.765625
 20
-4919.373046875
 10
3783.392578125
 20
-4919.373046875
 10
3793.01953125
 20
-4919.373046875
 10
3802.646484375
 20
-4919.373046875
 10
3812.2734375
 20
-4919.373046875
 10
3821.900390625
 20
-4919.373046875
 10
3831.52734375
 20
-4919.373046875
 10
3841.154296875
 20
-4919.373046875
 10
3850.78125
 20
-4919.373046875
 10
3860.408203125
 20
-4919.373046875
 10
3870.03515625
 20
-4919.373046875
 10
3879.662109375
 20
-4919.373046875
 10
3889.2890625
 20
-4919.373046875
 10
3898.916015625
 20
-4919.373046875
 10
3908.54296875
 20
-4919.373046875
 10
3918.169921875
 20
-4919.373046875
 10
3927.796875
 20
-4919.373046875
 10
3937.423828125
 20
-4919.373046875
 10
3947.05078125
 20
-4919.373046875
 10
3956.677734375
 20
-4919.373046875
 10
3966.3046875
 20
-4919.373046875
 10
3975.931640625
 20
-4919.373046875
 10
3985.55859375
 20
-4919.373046875
 10
3995.185546875
 20
-4919.373046875
 10
4004.8125
 20
-4919.373046875
 10
4014.439453125
 20
-4919.373046875
 10
4024.06640625
 20
-4919.373046875
 10
4033.693359375
 20
-4919.373046875
 10
4043.3203125
 20
-4919.373046875
 10
4052.947265625
 20
-4919.373046875
 10
4062.57421875
 20
-4919.373046875
 10
4072.201171875
 20
-4919.373046875
 10
4081.828125
 20
-4919.373046875
 10
4091.455078125
 20
-4919.373046875
 10
4101.08203125
 20
-4919.373046875
 10
4110.708984375
 20
-4919.373046875
 10
4120.3359375
 20
-4919.373046875
 10
4129.962890625
 20
-4919.373046875
 10
4139.58984375
 20
-4919.373046875
 10
4149.216796875
 20
-4919.373046875
 10
4158.84375
 20
-4919.373046875
 10
4168.470703125
 20
-4919.373046875
 10
4178.09765625
 20
-4919.373046875
 10
4187.724609375
 20
-4919.373046875
 10
4197.3515625
 20
-4919.373046875
 10
4206.978515625
 20
-4919.373046875
 10
4216.60546875
 20
-4919.373046875
 10
4226.232421875
 20
-4919.373046875
 10
4235.859375
 20
-4919.373046875
 10
4245.486328125
 20
-4919.373046875
 10
4255.11328125
 20
-4919.373046875
 10
4264.740234375
 20
-4919.373046875
 10
4274.3671875
 20
-4919.373046875
 10
4283.994140625
 20
-4919.373046875
 10
4293.62109375
 20
-4919.373046875
 10
4303.248046875
 20
-4919.373046875
 10
4312.875
 20
-4919.373046875
 10
4322.501953125
 20
-4919.373046875
 10
4332.12890625
 20
-4919.373046875
 10
4341.755859375
 20
-4919.373046875
 10
4351.3828125
 20
-4919.373046875
 10
4361.009765625
 20
-4919.373046875
 10
4370.63671875
 20
-4919.373046875
 10
4380.263671875
 20
-4919.373046875
 10
4389.890625
 20
-4919.373046875
 10
4399.517578125
 20
-4919.373046875
 10
4409.14453125
 20
-4919.373046875
 10
4418.771484375
 20
-4919.373046875
 10
4428.3984375
 20
-4919.373046875
 10
4438.025390625
 20
-4919.373046875
 10
4447.65234375
 20
-4919.373046875
 10
4457.279296875
 20
-4919.373046875
 10
4466.90625
 20
-4919.373046875
 10
4476.533203125
 20
-4919.373046875
 10
4486.16015625
 20
-4919.373046875
 10
4495.787109375
 20
-4919.373046875
 10
4505.4140625
 20
-4919.373046875
 10
4515.041015625
 20
-4919.373046875
 10
4524.66796875
 20
-4919.373046875
 10
4534.294921875
 20
-4919.373046875
 10
4543.921875
 20
-4919.373046875
 10
4553.548828125
 20
-4919.373046875
 10
4563.17578125
 20
-4919.373046875
 10
4572.802734375
 20
-4919.373046875
 10
4582.4296875
 20
-4919.373046875
 10
4592.056640625
 20
-4919.373046875
 10
4601.68359375
 20
-4919.373046875
 10
4611.310546875
 20
-4919.373046875
 10
4620.9375
 20
-4919.373046875
 10
4630.564453125
 20
-4919.373046875
 10
4640.19140625
 20
-4919.373046875
 10
4649.818359375
 20
-4919.373046875
 10
4659.4453125
 20
-4919.373046875
 10
4669.072265625
 20
-4919.373046875
 10
4678.69921875
 20
-4919.373046875
 10
4688.326171875
 20
-4919.373046875
 10
4697.953125
 20
-4919.373046875
 10
4707.580078125
 20
-4919.373046875
 10
4717.20703125
 20
-4919.373046875
 10
4726.833984375
 20
-4919.373046875
 10
4736.4609375
 20
-4919.373046875
 10
4746.087890625
 20
-4919.373046875
 10
4755.71484375
 20
-4919.373046875
 10
4765.341796875
 20
-4919.373046875
 10
4774.96875
 20
-4919.373046875
 10
4784.595703125
 20
-4919.373046875
 10
4794.22265625
 20
-4919.373046875
 10
4803.849609375
 20
-4919.373046875
 10
4813.4765625
 20
-4919.373046875
 10
4823.103515625
 20
-4919.373046875
 10
4832.73046875
 20
-4919.373046875
 10
4842.357421875
 20
-4919.373046875
 10
4851.984375
 20
-4919.373046875
 10
4861.611328125
 20
-4919.373046875
 10
4871.23828125
 20
-4919.373046875
 10
4880.865234375
 20
-4919.373046875
 10
4890.4921875
 20
-4919.373046875
 10
4900.119140625
 20
-4919.373046875
 10
4909.74609375
 20
-4919.373046875
 10
4919.373046875
 20
-4919.373046875
 10
4919.373046875
 20
-4909.74609375
 10
4919.373046875
 20
-4900.119140625
 10
4919.373046875
 20
-4890.4921875
 10
4919.373046875
 20
-4880.865234375
 10
4919.373046875
 20
-4871.23828125
 10
4919.373046875
 20
-4861.611328125
 10
4919.373046875
 20
-4851.984375
 10
4919.373046875
 20
-4842.357421875
 10
4919.373046875
 20
-4832.73046875
 10
4919.373046875
 20
-4823.103515625
 10
4919.373046875
 20
-4813.4765625
 10
4919.373046875
 20
-4803.849609375
 10
4919.373046875
 20
-4794.22265625
 10
4919.373046875
 20
-4784.595703125
 10
4919.373046875
 20
-4774.96875
 10
4919.373046875
 20
-4765.341796875
 10
4919.373046875
 20
-4755.71484375
 10
4919.373046875
 20
-4746.087890625
 10
4919.373046875
 20
-4736.4609375
 10
4919.373046875
 20
-4726.833984375
 10
4919.373046875
 20
-4717.20703125
 10
4919.373046875
 20
-4707.580078125
 10
4919.373046875
 20
-4697.953125
 10
4919.373046875
 20
-4688.326171875
 10
4919.373046875
 20
-4678.69921875
 10
4919.373046875
 20
-4669.072265625
 10
4919.373046875
 20
-4659.4453125
 10
4919.373046875
 20
-4649.818359375
 10
4919.373046875
 20
-4640.19140625
 10
4919.373046875
 20
-4630.564453125
 10
4919.373046875
 20
-4620.9375
 10
4919.373046875
 20
-4611.310546875
 10
4919.373046875
 20
-4601.68359375
 10
4919.373046875
 20
-4592.056640625
 10
4919.373046875
 20
-4582.4296875
 10
4919.373046875
 20
-4572.802734375
 10
4919.373046875
 20
-4563.17578125
 10
4919.373046875
 20
-4553.548828125
 10
4919.373046875
 20
-4543.921875
 10
4919.373046875
 20
-4534.294921875
 10
4919.373046875
 20
-4524.66796875
 10
4919.373046875
 20
-4515.041015625
 10
4919.373046875
 20
-4505.4140625
 10
4919.373046875
 20
-4495.787109375
 10
4919.373046875
 20
-4486.16015625
 10
4919.373046875
 20
-4476.533203125
 10
4919.373046875
 20
-4466.90625
 10
4919.373046875
 20
-4457.279296875
 10
4919.373046875
 20
-4447.65234375
 10
4919.373046875
 20
-4438.025390625
 10
4919.373046875
 20
-4428.3984375
 10
4919.373046875
 20
-4418.771484375
 10
4919.373046875
 20
-4409.14453125
 10
4919.373046875
 20
-4399.517578125
 10
4919.373046875
 20
-4389.890625
 10
4919.373046875
 20
-4380.263671875
 10
4919.373046875
 20
-4370.63671875
 10
4919.373046875
 20
-4361.009765625
 10
4919.373046875
 20
-4351.3828125
 10
4919.373046875
 20
-4341.755859375
 10
4919.373046875
 20
-4332.12890625
 10
4919.373046875
 20
-4322.501953125
 10
4919.373046875
 20
-4312.875
 10
4919.373046875
 20
-4303.248046875
 10
4919.373046875
 20
-4293.62109375
 10
4919.373046875
 20
-4283.994140625
 10
4919.373046875
 20
-4274.3671875
 10
4919.373046875
 20
-4264.740234375
 10
4919.373046875
 20
-4255.11328125
 10
4919.373046875
 20
-4245.486328125
 10
4919.373046875
 20
-4235.859375
 10
4919.373046875
 20
-4226.232421875
 10
4919.373046875
 20
-4216.60546875
 10
4919.373046875
 20
-4206.978515625
 10
4919.373046875
 20
-4197.3515625
 10
4919.373046875
 20
-4187.724609375
 10
4919.373046875
 20
-4178.09765625
 10
4919.373046875
 20
-4168.470703125
 10
4919.373046875
 20
-4158.84375
 10
4919.373046875
 20
-4149.216796875
 10
4919.373046875
 20
-4139.58984375
 10
4919.373046875
 20
-4129.962890625
 10
4919.373046875
 20
-4120.3359375
 10
4919.373046875
 20
-4110.708984375
 10
4919.373046875
 20
-4101.08203125
 10
4919.373046875
 20
-4091.455078125
 10
4919.373046875
 20
-4081.828125
 10
4919.373046875
 20
-4072.201171875
 10
4919.373046875
 20
-4062.57421875
 10
4919.373046875
 20
-4052.947265625
 10
4919.373046875
 20
-4043.3203125
 10
4919.373046875
 20
-4033.693359375
 10
4919.373046875
 20
-4024.06640625
 10
4919.373046875
 20
-4014.439453125
 10
4919.373046875
 20
-4004.8125
 10
4919.373046875
 20
-3995.185546875
 10
4919.373046875
 20
-3985.55859375
 10
4919.373046875
 20
-3975.931640625
 10
4919.373046875
 20
-3966.3046875
 10
4919.373046875
 20
-3956.677734375
 10
4919.373046875
 20
-3947.05078125
 10
4919.373046875
 20
-3937.423828125
 10
4919.373046875
 20
-3927.796875
 10
4919.373046875
 20
-3918.169921875
 10
4919.373046875
 20
-3908.54296875
 10
4919.373046875
 20
-3898.916015625
 10
4919.373046875
 20
-3889.2890625
 10
4919.373046875
 20
-3879.662109375
 10
4919.373046875
 20
-3870.03515625
 10
4919.373046875
 20
-3860.408203125
 10
4919.373046875
 20
-3850.78125
 10
4919.373046875
 20
-3841.154296875
 10
4919.373046875
 20
-3831.52734375
 10
4919.373046875
 20
-3821.900390625
 10
4919.373046875
 20
-3812.2734375
 10
4919.373046875
 20
-3802.646484375
 10
4919.373046875
 20
-3793.01953125
 10
4919.373046875
 20
-3783.392578125
 10
4919.373046875
 20
-3773.765625
 10
4919.373046875
 20
-3764.138671875
 10
4919.373046875
 20
-3754.51171875
 10
4919.373046875
 20
-3744.884765625
 10
4919.373046875
 20
-3735.2578125
 10
4919.373046875
 20
-3725.630859375
 10
4919.373046875
 20
-3716.00390625
 10
4919.373046875
 20
-3706.376953125
 10
4919.373046875
 20
-3696.75
 10
4919.373046875
 20
-3687.123046875
 10
4919.373046875
 20
-3677.49609375
 10
4919.373046875
 20
-3667.869140625
 10
4919.373046875
 20
-3658.2421875
 10
4919.373046875
 20
-3648.615234375
 10
4919.373046875
 20
-3638.98828125
 10
4919.373046875
 20
-3629.361328125
 10
4919.373046875
 20
-3619.734375
 10
4919.373046875
 20
-3610.107421875
 10
4919.373046875
 20
-3600.48046875
 10
4919.373046875
 20
-3590.853515625
 10
4919.373046875
 20
-3581.2265625
 10
4919.373046875
 20
-3571.599609375
 10
4919.373046875
 20
-3561.97265625
 10
4919.373046875
 20
-3552.345703125
 10
4919.373046875
 20
-3542.71875
 10
4919.373046875
 20
-3533.091796875
 10
4919.373046875
 20
-3523.46484375
 10
4919.373046875
 20
-3513.837890625
 10
4919.373046875
 20
-3504.2109375
 10
4919.373046875
 20
-3494.583984375
 10
4919.373046875
 20
-3484.95703125
 10
4919.373046875
 20
-3475.330078125
 10
4919.373046875
 20
-3465.703125
 10
4919.373046875
 20
-3456.076171875
 10
4919.373046875
 20
-3446.44921875
 10
4919.373046875
 20
-3436.822265625
 10
4919.373046875
 20
-3427.1953125
 10
4919.373046875
 20
-3417.568359375
 10
4919.373046875
 20
-3407.94140625
 10
4919.373046875
 20
-3398.314453125
 10
4919.373046875
 20
-3388.6875
 10
4919.373046875
 20
-3379.060546875
 10
4919.373046875
 20
-3369.43359375
 10
4919.373046875
 20
-3359.806640625
 10
4919.373046875
 20
-3350.1796875
 10
4919.373046875
 20
-3340.552734375
 10
4919.373046875
 20
-3330.92578125
 10
4919.373046875
 20
-3321.298828125
 10
4919.373046875
 20
-3311.671875
 10
4919.373046875
 20
-3302.044921875
 10
4919.373046875
 20
-3292.41796875
 10
4919.373046875
 20
-3282.791015625
 10
4919.373046875
 20
-3273.1640625
 10
4919.373046875
 20
-3263.537109375
 10
4919.373046875
 20
-3253.91015625
 10
4919.373046875
 20
-3244.283203125
 10
4919.373046875
 20
-3234.65625
 10
4919.373046875
 20
-3225.029296875
 10
4919.373046875
 20
-3215.40234375
 10
4919.373046875
 20
-3205.775390625
 10
4919.373046875
 20
-3196.1484375
 10
4919.373046875
 20
-3186.521484375
 10
4919.373046875
 20
-3176.89453125
 10
4919.373046875
 20
-3167.267578125
 10
4919.373046875
 20
-3157.640625
 10
4919.373046875
 20
-3148.013671875
 10
4919.373046875
 20
-3138.38671875
 10
4919.373046875
 20
-3128.759765625
 10
4919.373046875
 20
-3119.1328125
 10
4919.373046875
 20
-3109.505859375
 10
4919.373046875
 20
-3099.87890625
 10
4919.373046875
 20
-3090.251953125
 10
4919.373046875
 20
-3080.625
 10
4919.373046875
 20
-3070.998046875
 10
4919.373046875
 20
-3061.37109375
 10
4919.373046875
 20
-3051.744140625
 10
4919.373046875
 20
-3042.1171875
 10
4919.373046875
 20
-3032.490234375
 10
4919.373046875
 20
-3022.86328125
 10
4919.373046875
 20
-3013.236328125
 10
4919.373046875
 20
-3003.609375
 10
4919.373046875
 20
-2993.982421875
 10
4919.373046875
 20
-2984.35546875
 10
4919.373046875
 20
-2974.728515625
 10
4919.373046875
 20
-2965.1015625
 10
4919.373046875
 20
-2955.474609375
 10
4919.373046875
 20
-2945.84765625
 10
4919.373046875
 20
-2936.220703125
 10
4919.373046875
 20
-2926.59375
 10
4919.373046875
 20
-2916.966796875
 10
4919.373046875
 20
-2907.33984375
 10
4919.373046875
 20
-2897.712890625
 10
4919.373046875
 20
-2888.0859375
 10
4919.373046875
 20
-2878.458984375
 10
4919.373046875
 20
-2868.83203125
 10
4919.373046875
 20
-2859.205078125
 10
4919.373046875
 20
-2849.578125
 10
4919.373046875
 20
-2839.951171875
 10
4919.373046875
 20
-2830.32421875
 10
4919.373046875
 20
-2820.697265625
 10
4919.373046875
 20
-2811.0703125
 10
4919.373046875
 20
-2801.443359375
 10
4919.373046875
 20
-2791.81640625
 10
4919.373046875
 20
-2782.189453125
 10
4919.373046875
 20
-2772.5625
 10
4919.373046875
 20
-2762.935546875
 10
4919.373046875
 20
-2753.30859375
 10
4919.373046875
 20
-2743.681640625
 10
4919.373046875
 20
-2734.0546875
 10
4919.373046875
 20
-2724.427734375
 10
4919.373046875
 20
-2714.80078125
 10
4919.373046875
 20
-2705.173828125
 10
4919.373046875
 20
-2695.546875
 10
4919.373046875
 20
-2685.919921875
 10
4919.373046875
 20
-2676.29296875
 10
4919.373046875
 20
-2666.666015625
 10
4919.373046875
 20
-2657.0390625
 10
4919.373046875
 20
-2647.412109375
 10
4919.373046875
 20
-2637.78515625
 10
4919.373046875
 20
-2628.158203125
 10
4919.373046875
 20
-2618.53125
 10
4919.373046875
 20
-2608.904296875
 10
4919.373046875
 20
-2599.27734375
 10
4919.373046875
 20
-2589.650390625
 10
4919.373046875
 20
-2580.0234375
 10
4919.373046875
 20
-2570.396484375
 10
4919.373046875
 20
-2560.76953125
 10
4919.373046875
 20
-2551.142578125
 10
4919.373046875
 20
-2541.515625
 10
4919.373046875
 20
-2531.888671875
 10
4919.373046875
 20
-2522.26171875
 10
4919.373046875
 20
-2512.634765625
 10
4919.373046875
 20
-2503.0078125
 10
4919.373046875
 20
-2493.380859375
 10
4919.373046875
 20
-2483.75390625
 10
4919.373046875
 20
-2474.126953125
 10
4919.373046875
 20
-2464.5
 10
4919.373046875
 20
-2454.873046875
 10
4919.373046875
 20
-2445.24609375
 10
4919.373046875
 20
-2435.619140625
 10
4919.373046875
 20
-2425.9921875
 10
4919.373046875
 20
-2416.365234375
 10
4919.373046875
 20
-2406.73828125
 10
4919.373046875
 20
-2397.111328125
 10
4919.373046875
 20
-2387.484375
 10
4919.373046875
 20
-2377.857421875
 10
4919.373046875
 20
-2368.23046875
 10
4919.373046875
 20
-2358.603515625
 10
4919.373046875
 20
-2348.9765625
 10
4919.373046875
 20
-2339.349609375
 10
4919.373046875
 20
-2329.72265625
 10
4919.373046875
 20
-2320.095703125
 10
4919.373046875
 20
-2310.46875
 10
4919.373046875
 20
-2300.841796875
 10
4919.373046875
 20
-2291.21484375
 10
4919.373046875
 20
-2281.587890625
 10
4919.373046875
 20
-2271.9609375
 10
4919.373046875
 20
-2262.333984375
 10
4919.373046875
 20
-2252.70703125
 10
4919.373046875
 20
-2243.080078125
 10
4919.373046875
 20
-2233.453125
 10
4919.373046875
 20
-2223.826171875
 10
4919.373046875
 20
-2214.19921875
 10
4919.373046875
 20
-2204.572265625
 10
4919.373046875
 20
-2194.9453125
 10
4919.373046875
 20
-2185.318359375
 10
4919.373046875
 20
-2175.69140625
 10
4919.373046875
 20
-2166.064453125
 10
4919.373046875
 20
-2156.4375
 10
4919.373046875
 20
-2146.810546875
 10
4919.373046875
 20
-2137.18359375
 10
4919.373046875
 20
-2127.556640625
 10
4919.373046875
 20
-2117.9296875
 10
4919.373046875
 20
-2108.302734375
 10
4919.373046875
 20
-2098.67578125
 10
4919.373046875
 20
-2089.048828125
 10
4919.373046875
 20
-2079.421875
 10
4919.373046875
 20
-2069.794921875
 10
4919.373046875
 20
-2060.16796875
 10
4919.373046875
 20
-2050.541015625
 10
4919.373046875
 20
-2040.9140625
 10
4919.373046875
 20
-2031.287109375
 10
4919.373046875
 20
-2021.66015625
 10
4919.373046875
 20
-2012.033203125
 10
4919.373046875
 20
-2002.40625
 10
4919.373046875
 20
-1992.779296875
 10
4919.373046875
 20
-1983.15234375
 10
4919.373046875
 20
-1973.525390625
 10
4919.373046875
 20
-1963.8984375
 10
4919.373046875
 20
-1954.271484375
 10
4919.373046875
 20
-1944.64453125
 10
4919.373046875
 20
-1935.017578125
 10
4919.373046875
 20
-1925.390625
 10
4919.373046875
 20
-1915.763671875
 10
4919.373046875
 20
-1906.13671875
 10
4919.373046875
 20
-1896.509765625
 10
4919.373046875
 20
-1886.8828125
 10
4919.373046875
 20
-1877.255859375
 10
4919.373046875
 20
-1867.62890625
 10
4919.373046875
 20
-1858.001953125
 10
4919.373046875
 20
-1848.375
 10
4919.373046875
 20
-1838.748046875
 10
4919.373046875
 20
-1829.12109375
 10
4919.373046875
 20
-1819.494140625
 10
4919.373046875
 20
-1809.8671875
 10
4919.373046875
 20
-1800.240234375
 10
4919.373046875
 20
-1790.61328125
 10
4919.373046875
 20
-1780.986328125
 10
4919.373046875
 20
-1771.359375
 10
4919.373046875
 20
-1761.732421875
 10
4919.373046875
 20
-1752.10546875
 10
4919.373046875
 20
-1742.478515625
 10
4919.373046875
 20
-1732.8515625
 10
4919.373046875
 20
-1723.224609375
 10
4919.373046875
 20
-1713.59765625
 10
4919.373046875
 20
-1703.970703125
 10
4919.373046875
 20
-1694.34375
 10
4919.373046875
 20
-1684.716796875
 10
4919.373046875
 20
-1675.08984375
 10
4919.373046875
 20
-1665.462890625
 10
4919.373046875
 20
-1655.8359375
 10
4919.373046875
 20
-1646.208984375
 10
4919.373046875
 20
-1636.58203125
 10
4919.373046875
 20
-1626.955078125
 10
4919.373046875
 20
-1617.328125
 10
4919.373046875
 20
-1607.701171875
 10
4919.373046875
 20
-1598.07421875
 10
4919.373046875
 20
-1588.447265625
 10
4919.373046875
 20
-1578.8203125
 10
4919.373046875
 20
-1569.193359375
 10
4919.373046875
 20
-1559.56640625
 10
4919.373046875
 20
-1549.939453125
 10
4919.373046875
 20
-1540.3125
 10
4919.373046875
 20
-1530.685546875
 10
4919.373046875
 20
-1521.05859375
 10
4919.373046875
 20
-1511.431640625
 10
4919.373046875
 20
-1501.8046875
 10
4919.373046875
 20
-1492.177734375
 10
4919.373046875
 20
-1482.55078125
 10
4919.373046875
 20
-1472.923828125
 10
4919.373046875
 20
-1463.296875
 10
4919.373046875
 20
-1453.669921875
 10
4919.373046875
 20
-1444.04296875
 10
4919.373046875
 20
-1434.416015625
 10
4919.373046875
 20
-1424.7890625
 10
4919.373046875
 20
-1415.162109375
 10
4919.373046875
 20
-1405.53515625
 10
4919.373046875
 20
-1395.908203125
 10
4919.373046875
 20
-1386.28125
 10
4919.373046875
 20
-1376.654296875
 10
4919.373046875
 20
-1367.02734375
 10
4919.373046875
 20
-1357.400390625
 10
4919.373046875
 20
-1347.7734375
 10
4919.373046875
 20
-1338.146484375
 10
4919.373046875
 20
-1328.51953125
 10
4919.373046875
 20
-1318.892578125
 10
4919.373046875
 20
-1309.265625
 10
4919.373046875
 20
-1299.638671875
 10
4919.373046875
 20
-1290.01171875
 10
4919.373046875
 20
-1280.384765625
 10
4919.373046875
 20
-1270.7578125
 10
4919.373046875
 20
-1261.130859375
 10
4919.373046875
 20
-1251.50390625
 10
4919.373046875
 20
-1241.876953125
 10
4919.373046875
 20
-1232.25
 10
4919.373046875
 20
-1222.623046875
 10
4919.373046875
 20
-1212.99609375
 10
4919.373046875
 20
-1203.369140625
 10
4919.373046875
 20
-1193.7421875
 10
4919.373046875
 20
-1184.115234375
 10
4919.373046875
 20
-1174.48828125
 10
4919.373046875
 20
-1164.861328125
 10
4919.373046875
 20
-1155.234375
 10
4919.373046875
 20
-1145.607421875
 10
4919.373046875
 20
-1135.98046875
 10
4919.373046875
 20
-1126.353515625
 10
4919.373046875
 20
-1116.7265625
 10
4919.373046875
 20
-1107.099609375
 10
4919.373046875
 20
-1097.47265625
 10
4919.373046875
 20
-1087.845703125
 10
4919.373046875
 20
-1078.21875
 10
4919.373046875
 20
-1068.591796875
 10
4919.373046875
 20
-1058.96484375
 10
4919.373046875
 20
-1049.337890625
 10
4919.373046875
 20
-1039.7109375
 10
4919.373046875
 20
-1030.083984375
 10
4919.373046875
 20
-1020.45703125
 10
4919.373046875
 20
-1010.830078125
 10
4919.373046875
 20
-1001.203125
 10
4919.373046875
 20
-991.576171875
 10
4919.373046875
 20
-981.94921875
 10
4919.373046875
 20
-972.322265625
 10
4919.373046875
 20
-962.6953125
 10
4919.373046875
 20
-953.068359375
 10
4919.373046875
 20
-943.44140625
 10
4919.373046875
 20
-933.814453125
 10
4919.373046875
 20
-924.1875
 10
4919.373046875
 20
-914.560546875
 10
4919.373046875
 20
-904.93359375
 10
4919.373046875
 20
-895.306640625
 10
4919.373046875
 20
-885.6796875
 10
4919.373046875
 20
-876.052734375
 10
4919.373046875
 20
-866.42578125
 10
4919.373046875
 20
-856.798828125
 10
4919.373046875
 20
-847.171875
 10
4919.373046875
 20
-837.544921875
 10
4919.373046875
 20
-827.91796875
 10
4919.373046875
 20
-818.291015625
 10
4919.373046875
 20
-808.6640625
 10
4919.373046875
 20
-799.037109375
 10
4919.373046875
 20
-789.41015625
 10
4919.373046875
 20
-779.783203125
 10
4919.373046875
 20
-770.15625
 10
4919.373046875
 20
-760.529296875
 10
4919.373046875
 20
-750.90234375
 10
4919.373046875
 20
-741.275390625
 10
4919.373046875
 20
-731.6484375
 10
4919.373046875
 20
-722.021484375
 10
4919.373046875
 20
-712.39453125
 10
4919.373046875
 20
-702.767578125
 10
4919.373046875
 20
-693.140625
 10
4919.373046875
 20
-683.513671875
 10
4919.373046875
 20
-673.88671875
 10
4919.373046875
 20
-664.259765625
 10
4919.373046875
 20
-654.6328125
 10
4919.373046875
 20
-645.005859375
 10
4919.373046875
 20
-635.37890625
 10
4919.373046875
 20
-625.751953125
 10
4919.373046875
 20
-616.125
 10
4919.373046875
 20
-606.498046875
 10
4919.373046875
 20
-596.87109375
 10
4919.373046875
 20
-587.244140625
 10
4919.373046875
 20
-577.6171875
 10
4919.373046875
 20
-567.990234375
 10
4919.373046875
 20
-558.36328125
 10
4919.373046875
 20
-548.736328125
 10
4919.373046875
 20
-539.109375
 10
4919.373046875
 20
-529.482421875
 10
4919.373046875
 20
-519.85546875
 10
4919.373046875
 20
-510.228515625
 10
4919.373046875
 20
-500.6015625
 10
4919.373046875
 20
-490.974609375
 10
4919.373046875
 20
-481.34765625
 10
4919.373046875
 20
-471.720703125
 10
4919.373046875
 20
-462.09375
 10
4919.373046875
 20
-452.466796875
 10
4919.373046875
 20
-442.83984375
 10
4919.373046875
 20
-433.212890625
 10
4919.373046875
 20
-423.5859375
 10
4919.373046875
 20
-413.958984375
 10
4919.373046875
 20
-404.33203125
 10
4919.373046875
 20
-394.705078125
 10
4919.373046875
 20
-385.078125
 10
4919.373046875
 20
-375.451171875
 10
4919.373046875
 20
-365.82421875
 10
4919.373046875
 20
-356.197265625
 10
4919.373046875
 20
-346.5703125
 10
4919.373046875
 20
-336.943359375
 10
4919.373046875
 20
-327.31640625
 10
4919.373046875
 20
-317.689453125
 10
4919.373046875
 20
-308.0625
 10
4919.373046875
 20
-298.435546875
 10
4919.373046875
 20
-288.80859375
 10
4919.373046875
 20
-279.181640625
 10
4919.373046875
 20
-269.5546875
 10
4919.373046875
 20
-259.927734375
 10
4919.373046875
 20
-250.30078125
 10
4919.373046875
 20
-240.673828125
 10
4919.373046875
 20
-231.046875
 10
4919.373046875
 20
-221.419921875
 10
4919.373046875
 20
-211.79296875
 10
4919.373046875
 20
-202.166015625
 10
4919.373046875
 20
-192.5390625
 10
4919.373046875
 20
-182.912109375
 10
4919.373046875
 20
-173.28515625
 10
4919.373046875
 20
-163.658203125
 10
4919.373046875
 20
-154.03125
 10
4919.373046875
 20
-144.404296875
 10
4919.373046875
 20
-134.77734375
 10
4919.373046875
 20
-125.150390625
 10
4919.373046875
 20
-115.5234375
 10
4919.373046875
 20
-105.896484375
 10
4919.373046875
 20
-96.26953125
 10
4919.373046875
 20
-86.642578125
 10
4919.373046875
 20
-77.015625
 10
4919.373046875
 20
-67.388671875
 10
4919.373046875
 20
-57.76171875
 10
4919.373046875
 20
-48.134765625
 10
4919.373046875
 20
-38.5078125
 10
4919.373046875
 20
-28.880859375
 10
4919.373046875
 20
-19.25390625
 10
4919.373046875
 20
-9.626953125
 10
4919.373046875
 20
-0.0
 10
4909.74609375
 20
-0.0
 10
4900.119140625
 20
-0.0
 10
4890.4921875
 20
-0.0
 10
4880.865234375
 20
-0.0
 10
4871.23828125
 20
-0.0
 10
4861.611328125
 20
-0.0
 10
4851.984375
 20
-0.0
 10
4842.357421875
 20
-0.0
 10
4832.73046875
 20
-0.0
 10
4823.103515625
 20
-0.0
 10
4813.4765625
 20
-0.0
 10
4803.849609375
 20
-0.0
 10
4794.22265625
 20
-0.0
 10
4784.595703125
 20
-0.0
 10
4774.96875
 20
-0.0
 10
4765.341796875
 20
-0.0
 10
4755.71484375
 20
-0.0
 10
4746.087890625
 20
-0.0
 10
4736.4609375
 20
-0.0
 10
4726.833984375
 20
-0.0
 10
4717.20703125
 20
-0.0
 10
4707.580078125
 20
-0.0
 10
4697.953125
 20
-0.0
 10
4688.326171875
 20
-0.0
 10
4678.69921875
 20
-0.0
 10
4669.072265625
 20
-0.0
 10
4659.4453125
 20
-0.0
 10
4649.818359375
 20
-0.0
 10
4640.19140625
 20
-0.0
 10
4630.564453125
 20
-0.0
 10
4620.9375
 20
-0.0
 10
4611.310546875
 20
-0.0
 10
4601.68359375
 20
-0.0
 10
4592.056640625
 20
-0.0
 10
4582.4296875
 20
-0.0
 10
4572.802734375
 20
-0.0
 10
4563.17578125
 20
-0.0
 10
4553.548828125
 20
-0.0
 10
4543.921875
 20
-0.0
 10
4534.294921875
 20
-0.0
 10
4524.66796875
 20
-0.0
 10
4515.041015625
 20
-0.0
 10
4505.4140625
 20
-0.0
 10
4495.787109375
 20
-0.0
 10
4486.16015625
 20
-0.0
 10
4476.533203125
 20
-0.0
 10
4466.90625
 20
-0.0
 10
4457.279296875
 20
-0.0
 10
4447.65234375
 20
-0.0
 10
4438.025390625
 20
-0.0
 10
4428.3984375
 20
-0.0
 10
4418.771484375
 20
-0.0
 10
4409.14453125
 20
-0.0
 10
4399.517578125
 20
-0.0
 10
4389.890625
 20
-0.0
 10
4380.263671875
 20
-0.0
 10
4370.63671875
 20
-0.0
 10
4361.009765625
 20
-0.0
 10
4351.3828125
 20
-0.0
 10
4341.755859375
 20
-0.0
 10
4332.12890625
 20
-0.0
 10
4322.501953125
 20
-0.0
 10
4312.875
 20
-0.0
 10
4303.248046875
 20
-0.0
 10
4293.62109375
 20
-0.0
 10
4283.994140625
 20
-0.0
 10
4274.3671875
 20
-0.0
 10
4264.740234375
 20
-0.0
 10
4255.11328125
 20
-0.0
 10
4245.486328125
 20
-0.0
 10
4235.859375
 20
-0.0
 10
4226.232421875
 20
-0.0
 10
4216.60546875
 20
-0.0
 10
4206.978515625
 20
-0.0
 10
4197.3515625
 20
-0.0
 10
4187.724609375
 20
-0.0
 10
4178.09765625
 20
-0.0
 10
4168.470703125
 20
-0.0
 10
4158.84375
 20
-0.0
 10
4149.216796875
 20
-0.0
 10
4139.58984375
 20
-0.0
 10
4129.962890625
 20
-0.0
 10
4120.3359375
 20
-0.0
 10
4110.708984375
 20
-0.0
 10
4101.08203125
 20
-0.0
 10
4091.455078125
 20
-0.0
 10
4081.828125
 20
-0.0
 10
4072.201171875
 20
-0.0
 10
4062.57421875
 20
-0.0
 10
4052.947265625
 20
-0.0
 10
4043.3203125
 20
-0.0
 10
4033.693359375
 20
-0.0
 10
4024.06640625
 20
-0.0
 10
4014.439453125
 20
-0.0
 10
4004.8125
 20
-0.0
 10
3995.185546875
 20
-0.0
 10
3985.55859375
 20
-0.0
 10
3975.931640625
 20
-0.0
 10
3966.3046875
 20
-0.0
 10
3956.677734375
 20
-0.0
 10
3947.05078125
 20
-0.0
 10
3937.423828125
 20
-0.0
 10
3927.796875
 20
-0.0
 10
3918.169921875
 20
-0.0
 10
3908.54296875
 20
-0.0
 10
3898.916015625
 20
-0.0
 10
3889.2890625
 20
-0.0
 10
3879.662109375
 20
-0.0
 10
3870.03515625
 20
-0.0
 10
3860.408203125
 20
-0.0
 10
3850.78125
 20
-0.0
 10
3841.154296875
 20
-0.0
 10
3831.52734375
 20
-0.0
 10
3821.900390625
 20
-0.0
 10
3812.2734375
 20
-0.0
 10
3802.646484375
 20
-0.0
 10
3793.01953125
 20
-0.0
 10
3783.392578125
 20
-0.0
 10
3773.765625
 20
-0.0
 10
3764.138671875
 20
-0.0
 10
3754.51171875
 20
-0.0
 10
3744.884765625
 20
-0.0
 10
3735.2578125
 20
-0.0
 10
3725.630859375
 20
-0.0
 10
3716.00390625
 20
-0.0
 10
3706.376953125
 20
-0.0
 10
3696.75
 20
-0.0
 10
3687.123046875
 20
-0.0
 10
3677.49609375
 20
-0.0
 10
3667.869140625
 20
-0.0
 10
3658.2421875
 20
-0.0
 10
3648.615234375
 20
-0.0
 10
3638.98828125
 20
-0.0
 10
3629.361328125
 20
-0.0
 10
3619.734375
 20
-0.0
 10
3610.107421875
 20
-0.0
 10
3600.48046875
 20
-0.0
 10
3590.853515625
 20
-0.0
 10
3581.2265625
 20
-0.0
 10
3571.599609375
 20
-0.0
 10
3561.97265625
 20
-0.0
 10
3552.345703125
 20
-0.0
 10
3542.71875
 20
-0.0
 10
3533.091796875
 20
-0.0
 10
3523.46484375
 20
-0.0
 10
3513.837890625
 20
-0.0
 10
3504.2109375
 20
-0.0
 10
3494.583984375
 20
-0.0
 10
3484.95703125
 20
-0.0
 10
3475.330078125
 20
-0.0
 10
3465.703125
 20
-0.0
 10
3456.076171875
 20
-0.0
 10
3446.44921875
 20
-0.0
 10
3436.822265625
 20
-0.0
 10
3427.1953125
 20
-0.0
 10
3417.568359375
 20
-0.0
 10
3407.94140625
 20
-0.0
 10
3398.314453125
 20
-0.0
 10
3388.6875
 20
-0.0
 10
3379.060546875
 20
-0.0
 10
3369.43359375
 20
-0.0
 10
3359.806640625
 20
-0.0
 10
3350.1796875
 20
-0.0
 10
3340.552734375
 20
-0.0
 10
3330.92578125
 20
-0.0
 10
3321.298828125
 20
-0.0
 10
3311.671875
 20
-0.0
 10
3302.044921875
 20
-0.0
 10
3292.41796875
 20
-0.0
 10
3282.791015625
 20
-0.0
 10
3273.1640625
 20
-0.0
 10
3263.537109375
 20
-0.0
 10
3253.91015625
 20
-0.0
 10
3244.283203125
 20
-0.0
 10
3234.65625
 20
-0.0
 10
3225.029296875
 20
-0.0
 10
3215.40234375
 20
-0.0
 10
3205.775390625
 20
-0.0
 10
3196.1484375
 20
-0.0
 10
3186.521484375
 20
-0.0
 10
3176.89453125
 20
-0.0
 10
3167.267578125
 20
-0.0
 10
3157.640625
 20
-0.0
 10
3148.013671875
 20
-0.0
 10
3138.38671875
 20
-0.0
 10
3128.759765625
 20
-0.0
 10
3119.1328125
 20
-0.0
 10
3109.505859375
 20
-0.0
 10
3099.87890625
 20
-0.0
 10
3090.251953125
 20
-0.0
 10
3080.625
 20
-0.0
 10
3070.998046875
 20
-0.0
 10
3061.37109375
 20
-0.0
 10
3051.744140625
 20
-0.0
 10
3042.1171875
 20
-0.0
 10
3032.490234375
 20
-0.0
 10
3022.86328125
 20
-0.0
 10
3013.236328125
 20
-0.0
 10
3003.609375
 20
-0.0
 10
2993.982421875
 20
-0.0
 10
2984.35546875
 20
-0.0
 10
2974.728515625
 20
-0.0
 10
2965.1015625
 20
-0.0
 10
2955.474609375
 20
-0.0
 10
2945.84765625
 20
-0.0
 10
2936.220703125
 20
-0.0
 10
2926.59375
 20
-0.0
 10
2916.966796875
 20
-0.0
 10
2907.33984375
 20
-0.0
 10
2897.712890625
 20
-0.0
 10
2888.0859375
 20
-0.0
 10
2878.458984375
 20
-0.0
 10
2868.83203125
 20
-0.0
 10
2859.205078125
 20
-0.0
 10
2849.578125
 20
-0.0
 10
2839.951171875
 20
-0.0
 10
2830.32421875
 20
-0.0
 10
2820.697265625
 20
-0.0
 10
2811.0703125
 20
-0.0
 10
2801.443359375
 20
-0.0
 10
2791.81640625
 20
-0.0
 10
2782.189453125
 20
-0.0
 10
2772.5625
 20
-0.0
 10
2762.935546875
 20
-0.0
 10
2753.30859375
 20
-0.0
 10
2743.681640625
 20
-0.0
 10
2734.0546875
 20
-0.0
 10
2724.427734375
 20
-0.0
 10
2714.80078125
 20
-0.0
 10
2705.173828125
 20
-0.0
 10
2695.546875
 20
-0.0
 10
2685.919921875
 20
-0.0
 10
2676.29296875
 20
-0.0
 10
2666.666015625
 20
-0.0
 10
2657.0390625
 20
-0.0
 10
2647.412109375
 20
-0.0
 10
2637.78515625
 20
-0.0
 10
2628.158203125
 20
-0.0
 10
2618.53125
 20
-0.0
 10
2608.904296875
 20
-0.0
 10
2599.27734375
 20
-0.0
 10
2589.650390625
 20
-0.0
 10
2580.0234375
 20
-0.0
 10
2570.396484375
 20
-0.0
 10
2560.76953125
 20
-0.0
 10
2551.142578125
 20
-0.0
 10
2541.515625
 20
-0.0
 10
2531.888671875
 20
-0.0
 10
2522.26171875
 20
-0.0
 10
2512.634765625
 20
-0.0
 10
2503.0078125
 20
-0.0
 10
2493.380859375
 20
-0.0
 10
2483.75390625
 20
-0.0
 10
2474.126953125
 20
-0.0
 10
2464.5
 20
-0.0
 10
2454.873046875
 20
-0.0
 10
2445.24609375
 20
-0.0
 10
2435.619140625
 20
-0.0
 10
2425.9921875
 20
-0.0
 10
2416.365234375
 20
-0.0
 10
2406.73828125
 20
-0.0
 10
2397.111328125
 20
-0.0
 10
2387.484375
 20
-0.0
 10
2377.857421875
 20
-0.0
 10
2368.23046875
 20
-0.0
 10
2358.603515625
 20
-0.0
 10
2348.9765625
 20
-0.0
 10
2339.349609375
 20
-0.0
 10
2329.72265625
 20
-0.0
 10
2320.095703125
 20
-0.0
 10
2310.46875
 20
-0.0
 10
2300.841796875
 20
-0.0
 10
2291.21484375
 20
-0.0
 10
2281.587890625
 20
-0.0
 10
2271.9609375
 20
-0.0
 10
2262.333984375
 20
-0.0
 10
2252.70703125
 20
-0.0
 10
2243.080078125
 20
-0.0
 10
2233.453125
 20
-0.0
 10
2223.826171875
 20
-0.0
 10
2214.19921875
 20
-0.0
 10
2204.572265625
 20
-0.0
 10
2194.9453125
 20
-0.0
 10
2185.318359375
 20
-0.0
 10
2175.69140625
 20
-0.0
 10
2166.064453125
 20
-0.0
 10
2156.4375
 20
-0.0
 10
2146.810546875
 20
-0.0
 10
2137.18359375
 20
-0.0
 10
2127.556640625
 20
-0.0
 10
2117.9296875
 20
-0.0
 10
2108.302734375
 20
-0.0
 10
2098.67578125
 20
-0.0
 10
2089.048828125
 20
-0.0
 10
2079.421875
 20
-0.0
 10
2069.794921875
 20
-0.0
 10
2060.16796875
 20
-0.0
 10
2050.541015625
 20
-0.0
 10
2040.9140625
 20
-0.0
 10
2031.287109375
 20
-0.0
 10
2021.66015625
 20
-0.0
 10
2012.033203125
 20
-0.0
 10
2002.40625
 20
-0.0
 10
1992.779296875
 20
-0.0
 10
1983.15234375
 20
-0.0
 10
1973.525390625
 20
-0.0
 10
1963.8984375
 20
-0.0
 10
1954.271484375
 20
-0.0
 10
1944.64453125
 20
-0.0
 10
1935.017578125
 20
-0.0
 10
1925.390625
 20
-0.0
 10
1915.763671875
 20
-0.0
 10
1906.13671875
 20
-0.0
 10
1896.509765625
 20
-0.0
 10
1886.8828125
 20
-0.0
 10
1877.255859375
 20
-0.0
 10
1867.62890625
 20
-0.0
 10
1858.001953125
 20
-0.0
 10
1848.375
 20
-0.0
 10
1838.748046875
 20
-0.0
 10
1829.12109375
 20
-0.0
 10
1819.494140625
 20
-0.0
 10
1809.8671875
 20
-0.0
 10
1800.240234375
 20
-0.0
 10
1790.61328125
 20
-0.0
 10
1780.986328125
 20
-0.0
 10
1771.359375
 20
-0.0
 10
1761.732421875
 20
-0.0
 10
1752.10546875
 20
-0.0
 10
1742.478515625
 20
-0.0
 10
1732.8515625
 20
-0.0
 10
1723.224609375
 20
-0.0
 10
1713.59765625
 20
-0.0
 10
1703.970703125
 20
-0.0
 10
1694.34375
 20
-0.0
 10
1684.716796875
 20
-0.0
 10
1675.08984375
 20
-0.0
 10
1665.462890625
 20
-0.0
 10
1655.8359375
 20
-0.0
 10
1646.208984375
 20
-0.0
 10
1636.58203125
 20
-0.0
 10
1626.955078125
 20
-0.0
 10
1617.328125
 20
-0.0
 10
1607.701171875
 20
-0.0
 10
1598.07421875
 20
-0.0
 10
1588.447265625
 20
-0.0
 10
1578.8203125
 20
-0.0
 10
1569.193359375
 20
-0.0
 10
1559.56640625
 20
-0.0
 10
1549.939453125
 20
-0.0
 10
1540.3125
 20
-0.0
 10
1530.685546875
 20
-0.0
 10
1521.05859375
 20
-0.0
 10
1511.431640625
 20
-0.0
 10
1501.8046875
 20
-0.0
 10
1492.177734375
 20
-0.0
 10
1482.55078125
 20
-0.0
 10
1472.923828125
 20
-0.0
 10
1463.296875
 20
-0.0
 10
1453.669921875
 20
-0.0
 10
1444.04296875
 20
-0.0
 10
1434.416015625
 20
-0.0
 10
1424.7890625
 20
-0.0
 10
1415.162109375
 20
-0.0
 10
1405.53515625
 20
-0.0
 10
1395.908203125
 20
-0.0
 10
1386.28125
 20
-0.0
 10
1376.654296875
 20
-0.0
 10
1367.02734375
 20
-0.0
 10
1357.400390625
 20
-0.0
 10
1347.7734375
 20
-0.0
 10
1338.146484375
 20
-0.0
 10
1328.51953125
 20
-0.0
 10
1318.892578125
 20
-0.0
 10
1309.265625
 20
-0.0
 10
1299.638671875
 20
-0.0
 10
1290.01171875
 20
-0.0
 10
1280.384765625
 20
-0.0
 10
1270.7578125
 20
-0.0
 10
1261.130859375
 20
-0.0
 10
1251.50390625
 20
-0.0
 10
1241.876953125
 20
-0.0
 10
1232.25
 20
-0.0
 10
1222.623046875
 20
-0.0
 10
1212.99609375
 20
-0.0
 10
1203.369140625
 20
-0.0
 10
1193.7421875
 20
-0.0
 10
1184.115234375
 20
-0.0
 10
1174.48828125
 20
-0.0
 10
1164.861328125
 20
-0.0
 10
1155.234375
 20
-0.0
 10
1145.607421875
 20
-0.0
 10
1135.98046875
 20
-0.0
 10
1126.353515625
 20
-0.0
 10
1116.7265625
 20
-0.0
 10
1107.099609375
 20
-0.0
 10
1097.47265625
 20
-0.0
 10
1087.845703125
 20
-0.0
 10
1078.21875
 20
-0.0
 10
1068.591796875
 20
-0.0
 10
1058.96484375
 20
-0.0
 10
1049.337890625
 20
-0.0
 10
1039.7109375
 20
-0.0
 10
1030.083984375
 20
-0.0
 10
1020.45703125
 20
-0.0
 10
1010.830078125
 20
-0.0
 10
1001.203125
 20
-0.0
 10
991.576171875
 20
-0.0
 10
981.94921875
 20
-0.0
 10
972.322265625
 20
-0.0
 10
962.6953125
 20
-0.0
 10
953.068359375
 20
-0.0
 10
943.44140625
 20
-0.0
 10
933.814453125
 20
-0.0
 10
924.1875
 20
-0.0
 10
914.560546875
 20
-0.0
 10
904.93359375
 20
-0.0
 10
895.306640625
 20
-0.0
 10
885.6796875
 20
-0.0
 10
876.052734375
 20
-0.0
 10
866.42578125
 20
-0.0
 10
856.798828125
 20
-0.0
 10
847.171875
 20
-0.0
 10
837.544921875
 20
-0.0
 10
827.91796875
 20
-0.0
 10
818.291015625
 20
-0.0
 10
808.6640625
 20
-0.0
 10
799.037109375
 20
-0.0
 10
789.41015625
 20
-0.0
 10
779.783203125
 20
-0.0
 10
770.15625
 20
-0.0
 10
760.529296875
 20
-0.0
 10
750.90234375
 20
-0.0
 10
741.275390625
 20
-0.0
 10
731.6484375
 20
-0.0
 10
722.021484375
 20
-0.0
 10
712.39453125
 20
-0.0
 10
702.767578125
 20
-0.0
 10
693.140625
 20
-0.0
 10
683.513671875
 20
-0.0
 10
673.88671875
 20
-0.0
 10
664.259765625
 20
-0.0
 10
654.6328125
 20
-0.0
 10
645.005859375
 20
-0.0
 10
635.37890625
 20
-0.0
 10
625.751953125
 20
-0.0
 10
616.125
 20
-0.0
 10
606.498046875
 20
-0.0
 10
596.87109375
 20
-0.0
 10
587.244140625
 20
-0.0
 10
577.6171875
 20
-0.0
 10
567.990234375
 20
-0.0
 10
558.36328125
 20
-0.0
 10
548.736328125
 20
-0.0
 10
539.109375
 20
-0.0
 10
529.482421875
 20
-0.0
 10
519.85546875
 20
-0.0
 10
510.228515625
 20
-0.0
 10
500.6015625
 20
-0.0
 10
490.974609375
 20
-0.0
 10
481.34765625
 20
-0.0
 10
471.720703125
 20
-0.0
 10
462.09375
 20
-0.0
 10
452.466796875
 20
-0.0
 10
442.83984375
 20
-0.0
 10
433.212890625
 20
-0.0
 10
423.5859375
 20
-0.0
 10
413.958984375
 20
-0.0
 10
404.33203125
 20
-0.0
 10
394.705078125
 20
-0.0
 10
385.078125
 20
-0.0
 10
375.451171875
 20
-0.0
 10
365.82421875
 20
-0.0
 10
356.197265625
 20
-0.0
 10
346.5703125
 20
-0.0
 10
336.943359375
 20
-0.0
 10
327.31640625
 20
-0.0
 10
317.689453125
 20
-0.0
 10
308.0625
 20
-0.0
 10
298.435546875
 20
-0.0
 10
288.80859375
 20
-0.0
 10
279.181640625
 20
-0.0
 10
269.5546875
 20
-0.0
 10
259.927734375
 20
-0.0
 10
250.30078125
 20
-0.0
 10
240.673828125
 20
-0.0
 10
231.046875
 20
-0.0
 10
221.419921875
 20
-0.0
 10
211.79296875
 20
-0.0
 10
202.166015625
 20
-0.0
 10
192.5390625
 20
-0.0
 10
182.912109375
 20
-0.0
 10
173.28515625
 20
-0.0
 10
163.658203125
 20
-0.0
 10
154.03125
 20
-0.0
 10
144.404296875
 20
-0.0
 10
134.77734375
 20
-0.0
 10
125.150390625
 20
-0.0
 10
115.5234375
 20
-0.0
 10
105.896484375
 20
-0.0
 10
96.26953125
 20
-0.0
 10
86.642578125
 20
-0.0
 10
77.015625
 20
-0.0
 10
67.388671875
 20
-0.0
 10
57.76171875
 20
-0.0
 10
48.134765625
 20
-0.0
 10
38.5078125
 20
-0.0
 10
28.880859375
 20
-0.0
 10
19.25390625
 20
-0.0
 10
9.626953125
 20
-0.0
  0
LWPOLYLINE
  5
35
330
17
100
AcDbEntity
  8
substrate
100
AcDbPolyline
 90
4
 70
1
 43
0.5
 10
1530.685546875
 20
-3128.759765625
 10
1540.3125
 20
-3119.1328125
 10
1549.939453125
 20
-3128.759765625
 10
1540.3125
 20
-3138.38671875
  0
LWPOLYLINE
  5
36
330
17
100
AcDbEntity
  8
substrate
100
AcDbPolyline
 90
183
 70
1
 43
0.5
 10
2358.603515625
 20
-2166.064453125
 10
2368.23046875
 20
-2156.4375
 10
2377.857421875
 20
-2156.4375
 10
2387.484375
 20
-2156.4375
 10
2397.111328125
 20
-2156.4375
 10
2406.73828125
 20
-2156.4375
 10
2416.365234375
 20
-2156.4375
 10
2425.9921875
 20
-2156.4375
 10
2435.619140625
 20
-2156.4375
 10
2445.24609375
 20
-2156.4375
 10
2454.873046875
 20
-2156.4375
 10
2464.5
 20
-2156.4375
 10
2474.126953125
 20
-2156.4375
 10
2483.75390625
 20
-2156.4375
 10
2493.380859375
 20
-2156.4375
 10
2503.0078125
 20
-2156.4375
 10
2512.634765625
 20
-2156.4375
 10
2522.26171875
 20
-2166.064453125
 10
2531.888671875
 20
-2166.064453125
 10
2541.515625
 20
-2166.064453125
 10
2551.142578125
 20
-2166.064453125
 10
2560.76953125
 20
-2175.69140625
 10
2570.396484375
 20
-2175.69140625
 10
2580.0234375
 20
-2185.318359375
 10
2589.650390625
 20
-2185.318359375
 10
2599.27734375
 20
-2185.318359375
 10
2608.904296875
 20
-2194.9453125
 10
2618.53125
 20
-2204.572265625
 10
2628.158203125
 20
-2214.19921875
 10
2637.78515625
 20
-2214.19921875
 10
2647.412109375
 20
-2223.826171875
 10
2657.0390625
 20
-2223.826171875
 10
2666.666015625
 20
-2233.453125
 10
2676.29296875
 20
-2243.080078125
 10
2685.919921875
 20
-2252.70703125
 10
2695.546875
 20
-2262.333984375
 10
2695.546875
 20
-2271.9609375
 10
2705.173828125
 20
-2281.587890625
 10
2714.80078125
 20
-2291.21484375
 10
2714.80078125
 20
-2300.841796875
 10
2724.427734375
 20
-2310.46875
 10
2734.0546875
 20
-2320.095703125
 10
2734.0546875
 20
-2329.72265625
 10
2743.681640625
 20
-2339.349609375
 10
2743.681640625
 20
-2348.9765625
 10
2743.681640625
 20
-2358.603515625
 10
2743.681640625
 20
-2368.23046875
 10
2753.30859375
 20
-2377.857421875
 10
2753.30859375
 20
-2387.484375
 10
2762.935546875
 20
-2397.111328125
 10
2762.935546875
 20
-2406.73828125
 10
2762.935546875
 20
-2416.365234375
 10
2762.935546875
 20
-2425.9921875
 10
2772.5625
 20
-2435.619140625
 10
2762.935546875
 20
-2445.24609375
 10
2772.5625
 20
-2454.873046875
 10
2772.5625
 20
-2464.5
 10
2772.5625
 20
-2474.126953125
 10
2772.5625
 20
-2483.75390625
 10
2772.5625
 20
-2493.380859375
 10
2762.935546875
 20
-2503.0078125
 10
2762.935546875
 20
-2512.634765625
 10
2762.935546875
 20
-2522.26171875
 10
2762.935546875
 20
-2531.888671875
 10
2753.30859375
 20
-2541.515625
 10
2753.30859375
 20
-2551.142578125
 10
2743.681640625
 20
-2560.76953125
 10
2743.681640625
 20
-2570.396484375
 10
2743.681640625
 20
-2580.0234375
 10
2734.0546875
 20
-2589.650390625
 10
2734.0546875
 20
-2599.27734375
 10
2724.427734375
 20
-2608.904296875
 10
2724.427734375
 20
-2618.53125
 10
2714.80078125
 20
-2628.158203125
 10
2714.80078125
 20
-2637.78515625
 10
2714.80078125
 20
-2647.412109375
 10
2705.173828125
 20
-2657.0390625
 10
2695.546875
 20
-2666.666015625
 10
2685.919921875
 20
-2676.29296875
 10
2676.29296875
 20
-2685.919921875
 10
2666.666015625
 20
-2695.546875
 10
2657.0390625
 20
-2705.173828125
 10
2647.412109375
 20
-2714.80078125
 10
2637.78515625
 20
-2714.80078125
 10
2628.158203125
 20
-2724.427734375
 10
2618.53125
 20
-2734.0546875
 10
2608.904296875
 20
-2734.0546875
 10
2599.27734375
 20
-2734.0546875
 10
2589.650390625
 20
-2743.681640625
 10
2580.0234375
 20
-2743.681640625
 10
2570.396484375
 20
-2753.30859375
 10
2560.76953125
 20
-2762.935546875
 10
2551.142578125
 20
-2762.935546875
 10
2541.515625
 20
-2762.935546875
 10
2531.888671875
 20
-2762.935546875
 10
2522.26171875
 20
-2762.935546875
 10
2512.634765625
 20
-2762.935546875
 10
2503.0078125
 20
-2772.5625
 10
2493.380859375
 20
-2772.5625
 10
2483.75390625
 20
-2772.5625
 10
2474.126953125
 20
-2772.5625
 10
2464.5
 20
-2772.5625
 10
2454.873046875
 20
-2772.5625
 10
2445.24609375
 20
-2772.5625
 10
2435.619140625
 20
-2772.5625
 10
2425.9921875
 20
-2772.5625
 10
2416.365234375
 20
-2762.935546875
 10
2406.73828125
 20
-2762.935546875
 10
2397.111328125
 20
-2762.935546875
 10
2387.484375
 20
-2762.935546875
 10
2377.857421875
 20
-2753.30859375
 10
2368.23046875
 20
-2753.30859375
 10
2358.603515625
 20
-2753.30859375
 10
2348.9765625
 20
-2753.30859375
 10
2339.349609375
 20
-2743.681640625
 10
2329.72265625
 20
-2743.681640625
 10
2320.095703125
 20
-2734.0546875
 10
2310.46875
 20
-2734.0546875
 10
2300.841796875
 20
-2724.427734375
 10
2291.21484375
 20
-2714.80078125
 10
2281.587890625
 20
-2714.80078125
 10
2271.9609375
 20
-2705.173828125
 10
2262.333984375
 20
-2695.546875
 10
2252.70703125
 20
-2685.919921875
 10
2243.080078125
 20
-2685.919921875
 10
2233.453125
 20
-2676.29296875
 10
2223.826171875
 20
-2666.666015625
 10
2223.826171875
 20
-2657.0390625
 10
2214.19921875
 20
-2647.412109375
 10
2204.572265625
 20
-2637.78515625
 10
2194.9453125
 20
-2628.158203125
 10
2185.318359375
 20
-2618.53125
 10
2185.318359375
 20
-2608.904296875
 10
2175.69140625
 20
-2599.27734375
 10
2175.69140625
 20
-2589.650390625
 10
2175.69140625
 20
-2580.0234375
 10
2166.064453125
 20
-2570.396484375
 10
2166.064453125
 20
-2560.76953125
 10
2156.4375
 20
-2551.142578125
 10
2156.4375
 20
-2541.515625
 10
2146.810546875
 20
-2531.888671875
 10
2146.810546875
 20
-2522.26171875
 10
2146.810546875
 20
-2512.634765625
 10
2146.810546875
 20
-2503.0078125
 10
2137.18359375
 20
-2493.380859375
 10
2137.18359375
 20
-2483.75390625
 10
2137.18359375
 20
-2474.126953125
 10
2146.810546875
 20
-2464.5
 10
2146.810546875
 20
-2454.873046875
 10
2146.810546875
 20
-2445.24609375
 10
2146.810546875
 20
-2435.619140625
 10
2146.810546875
 20
-2425.9921875
 10
2146.810546875
 20
-2416.365234375
 10
2156.4375
 20
-2406.73828125
 10
2156.4375
 20
-2397.111328125
 10
2156.4375
 20
-2387.484375
 10
2166.064453125
 20
-2377.857421875
 10
2166.064453125
 20
-2368.23046875
 10
2166.064453125
 20
-2358.603515625
 10
2175.69140625
 20
-2348.9765625
 10
2175.69140625
 20
-2339.349609375
 10
2185.318359375
 20
-2329.72265625
 10
2185.318359375
 20
-2320.095703125
 10
2185.318359375
 20
-2310.46875
 10
2194.9453125
 20
-2300.841796875
 10
2204.572265625
 20
-2291.21484375
 10
2214.19921875
 20
-2281.587890625
 10
2214.19921875
 20
-2271.9609375
 10
2223.826171875
 20
-2262.333984375
 10
2233.453125
 20
-2252.70703125
 10
2243.080078125
 20
-2243.080078125
 10
2252.70703125
 20
-2233.453125
 10
2262.333984375
 20
-2233.453125
 10
2262.333984375
 20
-2223.826171875
 10
2271.9609375
 20
-2214.19921875
 10
2281.587890625
 20
-2204.572265625
 10
2291.21484375
 20
-2204.572265625
 10
2300.841796875
 20
-2194.9453125
 10
2310.46875
 20
-2185.318359375
 10
2320.095703125
 20
-2185.318359375
 10
2329.72265625
 20
-2185.318359375
 10
2339.349609375
 20
-2175.69140625
 10
2348.9765625
 20
-2175.69140625
  0
LWPOLYLINE
  5
37
330
17
100
AcDbEntity
  8
substrate
100
AcDbPolyline
 90
4
 70
1
 43
0.5
 10
4813.4765625
 20
-154.03125
 10
4823.103515625
 20
-144.404296875
 10
4832.73046875
 20
-154.03125
 10
4823.103515625
 20
-163.658203125
  0
ENDSEC
  0
SECTION
  2
OBJECTS
  0
DICTIONARY
  5
A
330
0
100
AcDbDictionary
280
0
281
1
  3
ACAD_COLOR
350
B
  3
ACAD_GROUP
350
C
  3
ACAD_LAYOUT
350
D
  3
ACAD_MATERIAL
350
E
  3
ACAD_MLEADERSTYLE
350
F
  3
ACAD_MLINESTYLE
350
10
  3
ACAD_PLOTSETTINGS
350
11
  3
ACAD_PLOTSTYLENAME
350
12
  3
ACAD_SCALELIST
350
14
  3
ACAD_TABLESTYLE
350
15
  3
ACAD_VISUALSTYLE
350
16
  3
EZDXF_META
350
2D
  0
DICTIONARY
  5
B
330
A
100
AcDbDictionary
280
0
281
1
  0
DICTIONARY
  5
C
330
A
100
AcDbDictionary
280
0
281
1
  0
DICTIONARY
  5
D
330
A
100
AcDbDictionary
280
0
281
1
  3
Model
350
1A
  3
Layout1
350
1E
  0
DICTIONARY
  5
E
330
A
100
AcDbDictionary
280
0
281
1
  3
ByBlock
350
1F
  3
ByLayer
350
20
  3
Global
350
21
  0
DICTIONARY
  5
F
330
A
100
AcDbDictionary
280
0
281
1
  3
Standard
350
2C
  0
DICTIONARY
  5
10
330
A
100
AcDbDictionary
280
0
281
1
  3
Standard
350
22
  0
DICTIONARY
  5
11
330
A
100
AcDbDictionary
280
0
281
1
  0
ACDBDICTIONARYWDFLT
  5
12
330
A
100
AcDbDictionary
280
0
281
1
  3
Normal
350
13
100
AcDbDictionaryWithDefault
340
13
  0
ACDBPLACEHOLDER
  5
13
330
12
  0
DICTIONARY
  5
14
330
A
100
AcDbDictionary
280
0
281
1
  0
DICTIONARY
  5
15
330
A
100
AcDbDictionary
280
0
281
1
  0
DICTIONARY
  5
16
330
A
100
AcDbDictionary
280
0
281
1
  0
LAYOUT
  5
1A
330
D
100
AcDbPlotSettings
  1

  2
Adobe PDF
  4
A3
  6

 40
7.5
 41
20.0
 42
7.5
 43
20.0
 44
420.0
 45
297.0
 46
0.0
 47
0.0
 48
0.0
 49
0.0
140
0.0
141
0.0
142
1.0
143
1.0
 70
1024
 72
1
 73
0
 74
5
  7

 75
16
 76
0
 77
2
 78
300
147
1.0
148
0.0
149
0.0
100
AcDbLayout
  1
Model
 70
1
 71
0
 10
0.0
 20
0.0
 11
420.0
 21
297.0
 12
0.0
 22
0.0
 32
0.0
 14
1e+20
 24
1e+20
 34
1e+20
 15
-1e+20
 25
-1e+20
 35
-1e+20
146
0.0
 13
0.0
 23
0.0
 33
0.0
 16
1.0
 26
0.0
 36
0.0
 17
0.0
 27
1.0
 37
0.0
 76
1
330
17
  0
LAYOUT
  5
1E
330
D
100
AcDbPlotSettings
  1

  2
Adobe PDF
  4
A3
  6

 40
7.5
 41
20.0
 42
7.5
 43
20.0
 44
420.0
 45
297.0
 46
0.0
 47
0.0
 48
0.0
 49
0.0
140
0.0
141
0.0
142
1.0
143
1.0
 70
0
 72
1
 73
0
 74
5
  7

 75
16
 76
0
 77
2
 78
300
147
1.0
148
0.0
149
0.0
100
AcDbLayout
  1
Layout1
 70
1
 71
1
 10
0.0
 20
0.0
 11
420.0
 21
297.0
 12
0.0
 22
0.0
 32
0.0
 14
1e+20
 24
1e+20
 34
1e+20
 15
-1e+20
 25
-1e+20
 35
-1e+20
146
0.0
 13
0.0
 23
0.0
 33
0.0
 16
1.0
 26
0.0
 36
0.0
 17
0.0
 27
1.0
 37
0.0
 76
1
330
1B
  0
MATERIAL
  5
1F
102
{ACAD_REACTORS
330
E
102
}
330
E
100
AcDbMaterial
  1
ByBlock
  2

 70
0
 40
1.0
 71
1
 41
1.0
 91
-1023410177
 42
1.0
 72
1
  3

 73
1
 74
1
 75
1
 44
0.5
 73
0
 45
1.0
 46
1.0
 77
1
  4

 78
1
 79
1
170
1
 48
1.0
171
1
  6

172
1
173
1
174
1
140
1.0
141
1.0
175
1
  7

176
1
177
1
178
1
143
1.0
179
1
  8

270
1
271
1
272
1
145
1.0
146
1.0
273
1
  9

274
1
275
1
276
1
 42
1.0
 72
1
  3

 73
1
 74
1
 75
1
 94
63
  0
MATERIAL
  5
20
102
{ACAD_REACTORS
330
E
102
}
330
E
100
AcDbMaterial
  1
ByLayer
  2

 70
0
 40
1.0
 71
1
 41
1.0
 91
-1023410177
 42
1.0
 72
1
  3

 73
1
 74
1
 75
1
 44
0.5
 73
0
 45
1.0
 46
1.0
 77
1
  4

 78
1
 79
1
170
1
 48
1.0
171
1
  6

172
1
173
1
174
1
140
1.0
141
1.0
175
1
  7

176
1
177
1
178
1
143
1.0
179
1
  8

270
1
271
1
272
1
145
1.0
146
1.0
273
1
  9

274
1
275
1
276
1
 42
1.0
 72
1
  3

 73
1
 74
1
 75
1
 94
63
  0
MATERIAL
  5
21
102
{ACAD_REACTORS
330
E
102
}
330
E
100
AcDbMaterial
  1
Global
  2

 70
0
 40
1.0
 71
1
 41
1.0
 91
-1023410177
 42
1.0
 72
1
  3

 73
1
 74
1
 75
1
 44
0.5
 73
0
 45
1.0
 46
1.0
 77
1
  4

 78
1
 79
1
170
1
 48
1.0
171
1
  6

172
1
173
1
174
1
140
1.0
141
1.0
175
1
  7

176
1
177
1
178
1
143
1.0
179
1
  8

270
1
271
1
272
1
145
1.0
146
1.0
273
1
  9

274
1
275
1
276
1
 42
1.0
 72
1
  3

 73
1
 74
1
 75
1
 94
63
  0
MLINESTYLE
  5
22
102
{ACAD_REACTORS
330
10
102
}
330
10
100
AcDbMlineStyle
  2
Standard
 70
0
  3

 62
256
 51
90.0
 52
90.0
 71
2
 49
0.5
 62
256
  6
BYLAYER
 49
-0.5
 62
256
  6
BYLAYER
  0
MLEADERSTYLE
  5
2C
102
{ACAD_REACTORS
330
F
102
}
330
F
100
AcDbMLeaderStyle
179
2
170
2
171
1
172
0
 90
2
 40
0.0
 41
0.0
173
1
 91
-1056964608
 92
-2
290
1
 42
2.0
291
1
 43
8.0
  3
Standard
 44
4.0
300

342
29
174
1
175
1
176
0
178
1
 93
-1056964608
 45
4.0
292
0
297
0
 46
4.0
 94
-1056964608
 47
1.0
 49
1.0
140
1.0
294
1
141
0.0
177
0
142
1.0
295
0
296
0
143
3.75
271
0
272
9
273
9
  0
DICTIONARY
  5
2D
330
A
100
AcDbDictionary
281
1
  3
CREATED_BY_EZDXF
350
2E
  3
WRITTEN_BY_EZDXF
350
3A
  0
DICTIONARYVAR
  5
2E
330
2D
100
DictionaryVariables
280
0
  1
1.1.0 @ 2025-02-03T01:22:54.454980+00:00
  0
DICTIONARYVAR
  5
3A
330
2D
100
DictionaryVariables
280
0
  1
1.1.0 @ 2025-02-03T01:22:54.459649+00:00
  0
ENDSEC
  0
EOF
