  0
SECTION
  2
HEADER
  9
$ACADVER
  1
AC1027
  9
$ACADMAINTVER
 70
105
  9
$DWGCODEPAGE
  3
ANSI_1252
  9
$LASTSAVEDBY
  1
ezdxf
  9
$REQUIREDVERSIONS
160
0
  9
$INSBASE
 10
0.0
 20
0.0
 30
0.0
  9
$EXTMIN
 10
1e+20
 20
1e+20
 30
1e+20
  9
$EXTMAX
 10
-1e+20
 20
-1e+20
 30
-1e+20
  9
$LIMMIN
 10
0.0
 20
0.0
  9
$LIMMAX
 10
420.0
 20
297.0
  9
$ORTHOMODE
 70
0
  9
$REGENMODE
 70
1
  9
$FILLMODE
 70
1
  9
$QTEXTMODE
 70
0
  9
$MIRRTEXT
 70
1
  9
$LTSCALE
 40
1.0
  9
$ATTMODE
 70
1
  9
$TEXTSIZE
 40
2.5
  9
$TRACEWID
 40
1.0
  9
$TEXTSTYLE
  7
Standard
  9
$CLAYER
  8
0
  9
$CELTYPE
  6
ByLayer
  9
$CECOLOR
 62
256
  9
$CELTSCALE
 40
1.0
  9
$DISPSILH
 70
0
  9
$DIMSCALE
 40
1.0
  9
$DIMASZ
 40
2.5
  9
$DIMEXO
 40
0.625
  9
$DIMDLI
 40
3.75
  9
$DIMRND
 40
0.0
  9
$DIMDLE
 40
0.0
  9
$DIMEXE
 40
1.25
  9
$DIMTP
 40
0.0
  9
$DIMTM
 40
0.0
  9
$DIMTXT
 40
2.5
  9
$DIMCEN
 40
2.5
  9
$DIMTSZ
 40
0.0
  9
$DIMTOL
 70
0
  9
$DIMLIM
 70
0
  9
$DIMTIH
 70
0
  9
$DIMTOH
 70
0
  9
$DIMSE1
 70
0
  9
$DIMSE2
 70
0
  9
$DIMTAD
 70
1
  9
$DIMZIN
 70
8
  9
$DIMBLK
  1

  9
$DIMASO
 70
1
  9
$DIMSHO
 70
1
  9
$DIMPOST
  1

  9
$DIMAPOST
  1

  9
$DIMALT
 70
0
  9
$DIMALTD
 70
3
  9
$DIMALTF
 40
0.03937007874
  9
$DIMLFAC
 40
1.0
  9
$DIMTOFL
 70
1
  9
$DIMTVP
 40
0.0
  9
$DIMTIX
 70
0
  9
$DIMSOXD
 70
0
  9
$DIMSAH
 70
0
  9
$DIMBLK1
  1

  9
$DIMBLK2
  1

  9
$DIMSTYLE
  2
ISO-25
  9
$DIMCLRD
 70
0
  9
$DIMCLRE
 70
0
  9
$DIMCLRT
 70
0
  9
$DIMTFAC
 40
1.0
  9
$DIMGAP
 40
0.625
  9
$DIMJUST
 70
0
  9
$DIMSD1
 70
0
  9
$DIMSD2
 70
0
  9
$DIMTOLJ
 70
0
  9
$DIMTZIN
 70
8
  9
$DIMALTZ
 70
0
  9
$DIMALTTZ
 70
0
  9
$DIMUPT
 70
0
  9
$DIMDEC
 70
2
  9
$DIMTDEC
 70
2
  9
$DIMALTU
 70
2
  9
$DIMALTTD
 70
3
  9
$DIMTXSTY
  7
Standard
  9
$DIMAUNIT
 70
0
  9
$DIMADEC
 70
0
  9
$DIMALTRND
 40
0.0
  9
$DIMAZIN
 70
0
  9
$DIMDSEP
 70
44
  9
$DIMATFIT
 70
3
  9
$DIMFRAC
 70
0
  9
$DIMLDRBLK
  1

  9
$DIMLUNIT
 70
2
  9
$DIMLWD
 70
-2
  9
$DIMLWE
 70
-2
  9
$DIMTMOVE
 70
0
  9
$DIMFXL
 40
1.0
  9
$DIMFXLON
 70
0
  9
$DIMJOGANG
 40
0.785398163397
  9
$DIMTFILL
 70
0
  9
$DIMTFILLCLR
 70
0
  9
$DIMARCSYM
 70
0
  9
$DIMLTYPE
  6

  9
$DIMLTEX1
  6

  9
$DIMLTEX2
  6

  9
$DIMTXTDIRECTION
 70
0
  9
$LUNITS
 70
2
  9
$LUPREC
 70
4
  9
$SKETCHINC
 40
1.0
  9
$FILLETRAD
 40
10.0
  9
$AUNITS
 70
0
  9
$AUPREC
 70
2
  9
$MENU
  1
.
  9
$ELEVATION
 40
0.0
  9
$PELEVATION
 40
0.0
  9
$THICKNESS
 40
0.0
  9
$LIMCHECK
 70
0
  9
$CHAMFERA
 40
0.0
  9
$CHAMFERB
 40
0.0
  9
$CHAMFERC
 40
0.0
  9
$CHAMFERD
 40
0.0
  9
$SKPOLY
 70
0
  9
$TDCREATE
 40
2460710.8766203704
  9
$TDUCREATE
 40
2458532.153996898
  9
$TDUPDATE
 40
2460710.8766203704
  9
$TDUUPDATE
 40
2458532.1544311
  9
$TDINDWG
 40
0.0
  9
$TDUSRTIMER
 40
0.0
  9
$USRTIMER
 70
1
  9
$ANGBASE
 50
0.0
  9
$ANGDIR
 70
0
  9
$PDMODE
 70
0
  9
$PDSIZE
 40
0.0
  9
$PLINEWID
 40
0.0
  9
$SPLFRAME
 70
0
  9
$SPLINETYPE
 70
6
  9
$SPLINESEGS
 70
8
  9
$HANDSEED
  5
9C
  9
$SURFTAB1
 70
6
  9
$SURFTAB2
 70
6
  9
$SURFTYPE
 70
6
  9
$SURFU
 70
6
  9
$SURFV
 70
6
  9
$UCSBASE
  2

  9
$UCSNAME
  2

  9
$UCSORG
 10
0.0
 20
0.0
 30
0.0
  9
$UCSXDIR
 10
1.0
 20
0.0
 30
0.0
  9
$UCSYDIR
 10
0.0
 20
1.0
 30
0.0
  9
$UCSORTHOREF
  2

  9
$UCSORTHOVIEW
 70
0
  9
$UCSORGTOP
 10
0.0
 20
0.0
 30
0.0
  9
$UCSORGBOTTOM
 10
0.0
 20
0.0
 30
0.0
  9
$UCSORGLEFT
 10
0.0
 20
0.0
 30
0.0
  9
$UCSORGRIGHT
 10
0.0
 20
0.0
 30
0.0
  9
$UCSORGFRONT
 10
0.0
 20
0.0
 30
0.0
  9
$UCSORGBACK
 10
0.0
 20
0.0
 30
0.0
  9
$PUCSBASE
  2

  9
$PUCSNAME
  2

  9
$PUCSORG
 10
0.0
 20
0.0
 30
0.0
  9
$PUCSXDIR
 10
1.0
 20
0.0
 30
0.0
  9
$PUCSYDIR
 10
0.0
 20
1.0
 30
0.0
  9
$PUCSORTHOREF
  2

  9
$PUCSORTHOVIEW
 70
0
  9
$PUCSORGTOP
 10
0.0
 20
0.0
 30
0.0
  9
$PUCSORGBOTTOM
 10
0.0
 20
0.0
 30
0.0
  9
$PUCSORGLEFT
 10
0.0
 20
0.0
 30
0.0
  9
$PUCSORGRIGHT
 10
0.0
 20
0.0
 30
0.0
  9
$PUCSORGFRONT
 10
0.0
 20
0.0
 30
0.0
  9
$PUCSORGBACK
 10
0.0
 20
0.0
 30
0.0
  9
$USERI1
 70
0
  9
$USERI2
 70
0
  9
$USERI3
 70
0
  9
$USERI4
 70
0
  9
$USERI5
 70
0
  9
$USERR1
 40
0.0
  9
$USERR2
 40
0.0
  9
$USERR3
 40
0.0
  9
$USERR4
 40
0.0
  9
$USERR5
 40
0.0
  9
$WORLDVIEW
 70
1
  9
$SHADEDGE
 70
3
  9
$SHADEDIF
 70
70
  9
$TILEMODE
 70
1
  9
$MAXACTVP
 70
64
  9
$PINSBASE
 10
0.0
 20
0.0
 30
0.0
  9
$PLIMCHECK
 70
0
  9
$PEXTMIN
 10
1e+20
 20
1e+20
 30
1e+20
  9
$PEXTMAX
 10
-1e+20
 20
-1e+20
 30
-1e+20
  9
$PLIMMIN
 10
0.0
 20
0.0
  9
$PLIMMAX
 10
420.0
 20
297.0
  9
$UNITMODE
 70
0
  9
$VISRETAIN
 70
1
  9
$PLINEGEN
 70
0
  9
$PSLTSCALE
 70
1
  9
$TREEDEPTH
 70
3020
  9
$CMLSTYLE
  2
Standard
  9
$CMLJUST
 70
0
  9
$CMLSCALE
 40
20.0
  9
$PROXYGRAPHICS
 70
1
  9
$MEASUREMENT
 70
1
  9
$CELWEIGHT
370
-1
  9
$ENDCAPS
280
0
  9
$JOINSTYLE
280
0
  9
$LWDISPLAY
290
0
  9
$INSUNITS
 70
6
  9
$HYPERLINKBASE
  1

  9
$STYLESHEET
  1

  9
$XEDIT
290
1
  9
$CEPSNTYPE
380
0
  9
$PSTYLEMODE
290
1
  9
$FINGERPRINTGUID
  2
{F284AE6C-E239-4E37-8550-2EDBC9EC3167}
  9
$VERSIONGUID
  2
{3E60503E-086B-4354-B613-51A7452D1D02}
  9
$EXTNAMES
290
1
  9
$PSVPSCALE
 40
0.0
  9
$OLESTARTUP
290
0
  9
$SORTENTS
280
127
  9
$INDEXCTL
280
0
  9
$HIDETEXT
280
1
  9
$XCLIPFRAME
280
0
  9
$HALOGAP
280
0
  9
$OBSCOLOR
 70
257
  9
$OBSLTYPE
280
0
  9
$INTERSECTIONDISPLAY
280
0
  9
$INTERSECTIONCOLOR
 70
257
  9
$DIMASSOC
280
2
  9
$PROJECTNAME
  1

  9
$CAMERADISPLAY
290
0
  9
$LENSLENGTH
 40
50.0
  9
$CAMERAHEIGHT
 40
0.0
  9
$STEPSPERSEC
 40
24.0
  9
$STEPSIZE
 40
100.0
  9
$3DDWFPREC
 40
2.0
  9
$PSOLWIDTH
 40
0.005
  9
$PSOLHEIGHT
 40
0.08
  9
$LOFTANG1
 40
1.570796326795
  9
$LOFTANG2
 40
1.570796326795
  9
$LOFTMAG1
 40
0.0
  9
$LOFTMAG2
 40
0.0
  9
$LOFTPARAM
 70
7
  9
$LOFTNORMALS
280
1
  9
$LATITUDE
 40
37.795
  9
$LONGITUDE
 40
-122.394
  9
$NORTHDIRECTION
 40
0.0
  9
$TIMEZONE
 70
-8000
  9
$LIGHTGLYPHDISPLAY
280
1
  9
$TILEMODELIGHTSYNCH
280
1
  9
$CMATERIAL
347
20
  9
$SOLIDHIST
280
0
  9
$SHOWHIST
280
1
  9
$DWFFRAME
280
2
  9
$DGNFRAME
280
2
  9
$REALWORLDSCALE
290
1
  9
$INTERFERECOLOR
 62
256
  9
$CSHADOW
280
0
  9
$SHADOWPLANELOCATION
 40
0.0
  0
ENDSEC
  0
SECTION
  2
CLASSES
  0
CLASS
  1
ACDBDICTIONARYWDFLT
  2
AcDbDictionaryWithDefault
  3
ObjectDBX Classes
 90
0
 91
0
280
0
281
0
  0
CLASS
  1
SUN
  2
AcDbSun
  3
SCENEOE
 90
1153
 91
0
280
0
281
0
  0
CLASS
  1
VISUALSTYLE
  2
AcDbVisualStyle
  3
ObjectDBX Classes
 90
4095
 91
0
280
0
281
0
  0
CLASS
  1
MATERIAL
  2
AcDbMaterial
  3
ObjectDBX Classes
 90
1153
 91
0
280
0
281
0
  0
CLASS
  1
SCALE
  2
AcDbScale
  3
ObjectDBX Classes
 90
1153
 91
0
280
0
281
0
  0
CLASS
  1
TABLESTYLE
  2
AcDbTableStyle
  3
ObjectDBX Classes
 90
4095
 91
0
280
0
281
0
  0
CLASS
  1
MLEADERSTYLE
  2
AcDbMLeaderStyle
  3
ACDB_MLEADERSTYLE_CLASS
 90
4095
 91
0
280
0
281
0
  0
CLASS
  1
DICTIONARYVAR
  2
AcDbDictionaryVar
  3
ObjectDBX Classes
 90
0
 91
0
280
0
281
0
  0
CLASS
  1
CELLSTYLEMAP
  2
AcDbCellStyleMap
  3
ObjectDBX Classes
 90
1152
 91
0
280
0
281
0
  0
CLASS
  1
MENTALRAYRENDERSETTINGS
  2
AcDbMentalRayRenderSettings
  3
SCENEOE
 90
1024
 91
0
280
0
281
0
  0
CLASS
  1
ACDBDETAILVIEWSTYLE
  2
AcDbDetailViewStyle
  3
ObjectDBX Classes
 90
1025
 91
0
280
0
281
0
  0
CLASS
  1
ACDBSECTIONVIEWSTYLE
  2
AcDbSectionViewStyle
  3
ObjectDBX Classes
 90
1025
 91
0
280
0
281
0
  0
CLASS
  1
RASTERVARIABLES
  2
AcDbRasterVariables
  3
ISM
 90
0
 91
0
280
0
281
0
  0
CLASS
  1
ACDBPLACEHOLDER
  2
AcDbPlaceHolder
  3
ObjectDBX Classes
 90
0
 91
0
280
0
281
0
  0
CLASS
  1
LAYOUT
  2
AcDbLayout
  3
ObjectDBX Classes
 90
0
 91
0
280
0
281
0
  0
ENDSEC
  0
SECTION
  2
TABLES
  0
TABLE
  2
VPORT
  5
8
330
0
100
AcDbSymbolTable
 70
1
  0
VPORT
  5
23
330
8
100
AcDbSymbolTableRecord
100
AcDbViewportTableRecord
  2
*Active
 70
0
 10
0.0
 20
0.0
 11
1.0
 21
1.0
 12
0.0
 22
0.0
 13
0.0
 23
0.0
 14
0.5
 24
0.5
 15
0.5
 25
0.5
 16
0.0
 26
0.0
 36
1.0
 17
0.0
 27
0.0
 37
0.0
 40
1000.0
 41
1.34
 42
50.0
 43
0.0
 44
0.0
 50
0.0
 51
0.0
 71
0
 72
1000
 73
1
 74
3
 75
0
 76
0
 77
0
 78
0
281
0
 65
0
146
0.0
  0
ENDTAB
  0
TABLE
  2
LTYPE
  5
2
330
0
100
AcDbSymbolTable
 70
3
  0
LTYPE
  5
24
330
2
100
AcDbSymbolTableRecord
100
AcDbLinetypeTableRecord
  2
ByBlock
 70
0
  3

 72
65
 73
0
 40
0.0
  0
LTYPE
  5
25
330
2
100
AcDbSymbolTableRecord
100
AcDbLinetypeTableRecord
  2
ByLayer
 70
0
  3

 72
65
 73
0
 40
0.0
  0
LTYPE
  5
26
330
2
100
AcDbSymbolTableRecord
100
AcDbLinetypeTableRecord
  2
Continuous
 70
0
  3

 72
65
 73
0
 40
0.0
  0
ENDTAB
  0
TABLE
  2
LAYER
  5
1
330
0
100
AcDbSymbolTable
 70
5
  0
LAYER
  5
27
330
1
100
AcDbSymbolTableRecord
100
AcDbLayerTableRecord
  2
0
 70
0
 62
7
  6
Continuous
370
-3
390
13
347
21
  0
LAYER
  5
28
330
1
100
AcDbSymbolTableRecord
100
AcDbLayerTableRecord
  2
Defpoints
 70
0
 62
7
  6
Continuous
290
0
370
-3
390
13
347
21
  0
LAYER
  5
2F
330
1
100
AcDbSymbolTableRecord
100
AcDbLayerTableRecord
  2
conductor
 70
0
 62
1
  6
Continuous
370
-3
390
13
347
21
  0
LAYER
  5
30
330
1
100
AcDbSymbolTableRecord
100
AcDbLayerTableRecord
  2
dielectric
 70
0
 62
8
  6
Continuous
370
-3
390
13
347
21
  0
LAYER
  5
31
330
1
100
AcDbSymbolTableRecord
100
AcDbLayerTableRecord
  2
substrate
 70
0
 62
5
  6
Continuous
370
-3
390
13
347
21
  0
ENDTAB
  0
TABLE
  2
STYLE
  5
5
330
0
100
AcDbSymbolTable
 70
1
  0
STYLE
  5
29
330
5
100
AcDbSymbolTableRecord
100
AcDbTextStyleTableRecord
  2
Standard
 70
0
 40
0.0
 41
1.0
 50
0.0
 71
0
 42
2.5
  3
txt
  4

  0
ENDTAB
  0
TABLE
  2
VIEW
  5
7
330
0
100
AcDbSymbolTable
 70
0
  0
ENDTAB
  0
TABLE
  2
UCS
  5
6
330
0
100
AcDbSymbolTable
 70
0
  0
ENDTAB
  0
TABLE
  2
APPID
  5
3
330
0
100
AcDbSymbolTable
 70
3
  0
APPID
  5
2A
330
3
100
AcDbSymbolTableRecord
100
AcDbRegAppTableRecord
  2
ACAD
 70
0
  0
APPID
  5
99
330
3
100
AcDbSymbolTableRecord
100
AcDbRegAppTableRecord
  2
HATCHBACKGROUNDCOLOR
 70
0
  0
APPID
  5
9A
330
3
100
AcDbSymbolTableRecord
100
AcDbRegAppTableRecord
  2
EZDXF
 70
0
  0
ENDTAB
  0
TABLE
  2
DIMSTYLE
  5
4
330
0
100
AcDbSymbolTable
 70
1
100
AcDbDimStyleTable
  0
DIMSTYLE
105
2B
330
4
100
AcDbSymbolTableRecord
100
AcDbDimStyleTableRecord
  2
Standard
 70
0
 40
1.0
 41
2.5
 42
0.625
 43
3.75
 44
1.25
 45
0.0
 46
0.0
 47
0.0
 48
0.0
 49
2.5
140
2.5
141
2.5
142
0.0
143
0.03937007874
144
1.0
145
0.0
146
1.0
147
0.625
148
0.0
 69
0
 70
0
 71
0
 72
0
 73
0
 74
0
 75
0
 76
0
 77
1
 78
8
 79
3
170
0
171
3
172
1
173
0
174
0
175
0
176
0
177
0
178
0
179
2
271
2
272
2
273
2
274
3
275
0
276
0
277
2
278
44
279
0
280
0
281
0
282
0
283
0
284
8
285
0
286
0
288
0
289
3
290
0
371
-2
372
-2
  0
ENDTAB
  0
TABLE
  2
BLOCK_RECORD
  5
9
330
0
100
AcDbSymbolTable
 70
2
  0
BLOCK_RECORD
  5
17
330
9
100
AcDbSymbolTableRecord
100
AcDbBlockTableRecord
  2
*Model_Space
340
1A
 70
0
280
1
281
0
  0
BLOCK_RECORD
  5
1B
330
9
100
AcDbSymbolTableRecord
100
AcDbBlockTableRecord
  2
*Paper_Space
340
1E
 70
0
280
1
281
0
  0
ENDTAB
  0
ENDSEC
  0
SECTION
  2
BLOCKS
  0
BLOCK
  5
18
330
17
100
AcDbEntity
  8
0
100
AcDbBlockBegin
  2
*Model_Space
 70
0
 10
0.0
 20
0.0
 30
0.0
  3
*Model_Space
  1

  0
ENDBLK
  5
19
330
17
100
AcDbEntity
  8
0
100
AcDbBlockEnd
  0
BLOCK
  5
1C
330
1B
100
AcDbEntity
  8
0
100
AcDbBlockBegin
  2
*Paper_Space
 70
0
 10
0.0
 20
0.0
 30
0.0
  3
*Paper_Space
  1

  0
ENDBLK
  5
1D
330
1B
100
AcDbEntity
  8
0
100
AcDbBlockEnd
  0
ENDSEC
  0
SECTION
  2
ENTITIES
  0
LWPOLYLINE
  5
32
330
17
100
AcDbEntity
  8
conductor
100
AcDbPolyline
 90
1
 70
1
 43
0.5
 10
2648.96484375
 20
-3278.71875
  0
LWPOLYLINE
  5
33
330
17
100
AcDbEntity
  8
conductor
100
AcDbPolyline
 90
1
 70
1
 43
0.5
 10
2249.12109375
 20
-2688.94921875
  0
LWPOLYLINE
  5
34
330
17
100
AcDbEntity
  8
conductor
100
AcDbPolyline
 90
1
 70
1
 43
0.5
 10
2848.88671875
 20
-2369.07421875
  0
LWPOLYLINE
  5
35
330
17
100
AcDbEntity
  8
conductor
100
AcDbPolyline
 90
1
 70
1
 43
0.5
 10
2808.90234375
 20
-2369.07421875
  0
LWPOLYLINE
  5
36
330
17
100
AcDbEntity
  8
conductor
100
AcDbPolyline
 90
179
 70
1
 43
0.5
 10
2588.98828125
 20
-2289.10546875
 10
2578.9921875
 20
-2299.1015625
 10
2568.99609375
 20
-2309.09765625
 10
2559.0
 20
-2309.09765625
 10
2549.00390625
 20
-2309.09765625
 10
2539.0078125
 20
-2299.1015625
 10
2529.01171875
 20
-2309.09765625
 10
2519.015625
 20
-2309.09765625
 10
2509.01953125
 20
-2309.09765625
 10
2499.0234375
 20
-2309.09765625
 10
2489.02734375
 20
-2309.09765625
 10
2479.03125
 20
-2309.09765625
 10
2469.03515625
 20
-2309.09765625
 10
2459.0390625
 20
-2309.09765625
 10
2449.04296875
 20
-2309.09765625
 10
2439.046875
 20
-2319.09375
 10
2429.05078125
 20
-2319.09375
 10
2419.0546875
 20
-2319.09375
 10
2409.05859375
 20
-2329.08984375
 10
2399.0625
 20
-2329.08984375
 10
2389.06640625
 20
-2339.0859375
 10
2379.0703125
 20
-2339.0859375
 10
2369.07421875
 20
-2339.0859375
 10
2369.07421875
 20
-2349.08203125
 10
2359.078125
 20
-2359.078125
 10
2349.08203125
 20
-2359.078125
 10
2339.0859375
 20
-2369.07421875
 10
2329.08984375
 20
-2379.0703125
 10
2319.09375
 20
-2389.06640625
 10
2309.09765625
 20
-2399.0625
 10
2299.1015625
 20
-2409.05859375
 10
2299.1015625
 20
-2419.0546875
 10
2299.1015625
 20
-2429.05078125
 10
2289.10546875
 20
-2439.046875
 10
2289.10546875
 20
-2449.04296875
 10
2289.10546875
 20
-2459.0390625
 10
2289.10546875
 20
-2469.03515625
 10
2279.109375
 20
-2479.03125
 10
2279.109375
 20
-2489.02734375
 10
2279.109375
 20
-2499.0234375
 10
2279.109375
 20
-2509.01953125
 10
2279.109375
 20
-2519.015625
 10
2279.109375
 20
-2529.01171875
 10
2279.109375
 20
-2539.0078125
 10
2279.109375
 20
-2549.00390625
 10
2269.11328125
 20
-2559.0
 10
2279.109375
 20
-2568.99609375
 10
2269.11328125
 20
-2578.9921875
 10
2279.109375
 20
-2588.98828125
 10
2269.11328125
 20
-2598.984375
 10
2269.11328125
 20
-2608.98046875
 10
2269.11328125
 20
-2618.9765625
 10
2279.109375
 20
-2628.97265625
 10
2279.109375
 20
-2638.96875
 10
2269.11328125
 20
-2648.96484375
 10
2269.11328125
 20
-2658.9609375
 10
2269.11328125
 20
-2668.95703125
 10
2279.109375
 20
-2678.953125
 10
2269.11328125
 20
-2688.94921875
 10
2279.109375
 20
-2698.9453125
 10
2279.109375
 20
-2708.94140625
 10
2289.10546875
 20
-2698.9453125
 10
2299.1015625
 20
-2708.94140625
 10
2309.09765625
 20
-2708.94140625
 10
2319.09375
 20
-2718.9375
 10
2329.08984375
 20
-2718.9375
 10
2339.0859375
 20
-2728.93359375
 10
2349.08203125
 20
-2728.93359375
 10
2359.078125
 20
-2728.93359375
 10
2369.07421875
 20
-2738.9296875
 10
2379.0703125
 20
-2738.9296875
 10
2389.06640625
 20
-2748.92578125
 10
2399.0625
 20
-2758.921875
 10
2409.05859375
 20
-2768.91796875
 10
2399.0625
 20
-2778.9140625
 10
2409.05859375
 20
-2778.9140625
 10
2419.0546875
 20
-2788.91015625
 10
2409.05859375
 20
-2798.90625
 10
2419.0546875
 20
-2798.90625
 10
2429.05078125
 20
-2808.90234375
 10
2439.046875
 20
-2808.90234375
 10
2449.04296875
 20
-2808.90234375
 10
2459.0390625
 20
-2818.8984375
 10
2469.03515625
 20
-2808.90234375
 10
2479.03125
 20
-2808.90234375
 10
2489.02734375
 20
-2808.90234375
 10
2499.0234375
 20
-2818.8984375
 10
2509.01953125
 20
-2818.8984375
 10
2519.015625
 20
-2818.8984375
 10
2529.01171875
 20
-2818.8984375
 10
2539.0078125
 20
-2818.8984375
 10
2549.00390625
 20
-2818.8984375
 10
2559.0
 20
-2818.8984375
 10
2568.99609375
 20
-2818.8984375
 10
2578.9921875
 20
-2818.8984375
 10
2588.98828125
 20
-2818.8984375
 10
2598.984375
 20
-2828.89453125
 10
2608.98046875
 20
-2818.8984375
 10
2618.9765625
 20
-2818.8984375
 10
2628.97265625
 20
-2818.8984375
 10
2638.96875
 20
-2818.8984375
 10
2648.96484375
 20
-2808.90234375
 10
2658.9609375
 20
-2818.8984375
 10
2668.95703125
 20
-2808.90234375
 10
2678.953125
 20
-2808.90234375
 10
2688.94921875
 20
-2808.90234375
 10
2688.94921875
 20
-2798.90625
 10
2698.9453125
 20
-2788.91015625
 10
2708.94140625
 20
-2788.91015625
 10
2718.9375
 20
-2778.9140625
 10
2718.9375
 20
-2768.91796875
 10
2728.93359375
 20
-2758.921875
 10
2728.93359375
 20
-2748.92578125
 10
2738.9296875
 20
-2738.9296875
 10
2748.92578125
 20
-2738.9296875
 10
2758.921875
 20
-2728.93359375
 10
2768.91796875
 20
-2718.9375
 10
2778.9140625
 20
-2708.94140625
 10
2788.91015625
 20
-2698.9453125
 10
2798.90625
 20
-2688.94921875
 10
2808.90234375
 20
-2688.94921875
 10
2808.90234375
 20
-2678.953125
 10
2818.8984375
 20
-2668.95703125
 10
2828.89453125
 20
-2668.95703125
 10
2818.8984375
 20
-2658.9609375
 10
2828.89453125
 20
-2648.96484375
 10
2828.89453125
 20
-2638.96875
 10
2828.89453125
 20
-2628.97265625
 10
2838.890625
 20
-2618.9765625
 10
2838.890625
 20
-2608.98046875
 10
2838.890625
 20
-2598.984375
 10
2848.88671875
 20
-2588.98828125
 10
2838.890625
 20
-2578.9921875
 10
2838.890625
 20
-2568.99609375
 10
2838.890625
 20
-2559.0
 10
2838.890625
 20
-2549.00390625
 10
2838.890625
 20
-2539.0078125
 10
2838.890625
 20
-2529.01171875
 10
2848.88671875
 20
-2519.015625
 10
2838.890625
 20
-2509.01953125
 10
2838.890625
 20
-2499.0234375
 10
2828.89453125
 20
-2489.02734375
 10
2838.890625
 20
-2479.03125
 10
2828.89453125
 20
-2469.03515625
 10
2828.89453125
 20
-2459.0390625
 10
2828.89453125
 20
-2449.04296875
 10
2828.89453125
 20
-2439.046875
 10
2828.89453125
 20
-2429.05078125
 10
2818.8984375
 20
-2419.0546875
 10
2828.89453125
 20
-2409.05859375
 10
2818.8984375
 20
-2399.0625
 10
2828.89453125
 20
-2389.06640625
 10
2818.8984375
 20
-2389.06640625
 10
2808.90234375
 20
-2389.06640625
 10
2798.90625
 20
-2389.06640625
 10
2788.91015625
 20
-2389.06640625
 10
2778.9140625
 20
-2389.06640625
 10
2768.91796875
 20
-2379.0703125
 10
2768.91796875
 20
-2369.07421875
 10
2758.921875
 20
-2359.078125
 10
2768.91796875
 20
-2349.08203125
 10
2758.921875
 20
-2349.08203125
 10
2748.92578125
 20
-2339.0859375
 10
2738.9296875
 20
-2329.08984375
 10
2728.93359375
 20
-2339.0859375
 10
2718.9375
 20
-2329.08984375
 10
2718.9375
 20
-2319.09375
 10
2708.94140625
 20
-2319.09375
 10
2698.9453125
 20
-2319.09375
 10
2688.94921875
 20
-2319.09375
 10
2678.953125
 20
-2309.09765625
 10
2668.95703125
 20
-2309.09765625
 10
2658.9609375
 20
-2309.09765625
 10
2648.96484375
 20
-2309.09765625
 10
2638.96875
 20
-2309.09765625
 10
2628.97265625
 20
-2299.1015625
 10
2618.9765625
 20
-2289.10546875
 10
2608.98046875
 20
-2289.10546875
 10
2598.984375
 20
-2289.10546875
  0
LWPOLYLINE
  5
37
330
17
100
AcDbEntity
  8
conductor
100
AcDbPolyline
 90
107
 70
1
 43
0.5
 10
2259.1171875
 20
-2249.12109375
 10
2249.12109375
 20
-2259.1171875
 10
2239.125
 20
-2269.11328125
 10
2229.12890625
 20
-2269.11328125
 10
2219.1328125
 20
-2279.109375
 10
2219.1328125
 20
-2289.10546875
 10
2209.13671875
 20
-2299.1015625
 10
2199.140625
 20
-2299.1015625
 10
2189.14453125
 20
-2309.09765625
 10
2179.1484375
 20
-2319.09375
 10
2179.1484375
 20
-2329.08984375
 10
2179.1484375
 20
-2339.0859375
 10
2179.1484375
 20
-2349.08203125
 10
2179.1484375
 20
-2359.078125
 10
2189.14453125
 20
-2369.07421875
 10
2179.1484375
 20
-2379.0703125
 10
2169.15234375
 20
-2379.0703125
 10
2169.15234375
 20
-2389.06640625
 10
2159.15625
 20
-2399.0625
 10
2149.16015625
 20
-2399.0625
 10
2149.16015625
 20
-2409.05859375
 10
2149.16015625
 20
-2419.0546875
 10
2149.16015625
 20
-2429.05078125
 10
2159.15625
 20
-2439.046875
 10
2149.16015625
 20
-2449.04296875
 10
2139.1640625
 20
-2459.0390625
 10
2149.16015625
 20
-2469.03515625
 10
2139.1640625
 20
-2479.03125
 10
2139.1640625
 20
-2489.02734375
 10
2139.1640625
 20
-2499.0234375
 10
2139.1640625
 20
-2509.01953125
 10
2139.1640625
 20
-2519.015625
 10
2139.1640625
 20
-2529.01171875
 10
2139.1640625
 20
-2539.0078125
 10
2139.1640625
 20
-2549.00390625
 10
2129.16796875
 20
-2559.0
 10
2129.16796875
 20
-2568.99609375
 10
2129.16796875
 20
-2578.9921875
 10
2129.16796875
 20
-2588.98828125
 10
2139.1640625
 20
-2598.984375
 10
2139.1640625
 20
-2608.98046875
 10
2129.16796875
 20
-2618.9765625
 10
2129.16796875
 20
-2628.97265625
 10
2139.1640625
 20
-2638.96875
 10
2139.1640625
 20
-2648.96484375
 10
2139.1640625
 20
-2658.9609375
 10
2149.16015625
 20
-2668.95703125
 10
2149.16015625
 20
-2678.953125
 10
2149.16015625
 20
-2688.94921875
 10
2149.16015625
 20
-2698.9453125
 10
2149.16015625
 20
-2708.94140625
 10
2159.15625
 20
-2708.94140625
 10
2169.15234375
 20
-2718.9375
 10
2169.15234375
 20
-2728.93359375
 10
2179.1484375
 20
-2728.93359375
 10
2189.14453125
 20
-2738.9296875
 10
2179.1484375
 20
-2728.93359375
 10
2169.15234375
 20
-2718.9375
 10
2169.15234375
 20
-2708.94140625
 10
2179.1484375
 20
-2698.9453125
 10
2179.1484375
 20
-2688.94921875
 10
2169.15234375
 20
-2678.953125
 10
2169.15234375
 20
-2668.95703125
 10
2179.1484375
 20
-2658.9609375
 10
2169.15234375
 20
-2648.96484375
 10
2169.15234375
 20
-2638.96875
 10
2169.15234375
 20
-2628.97265625
 10
2169.15234375
 20
-2618.9765625
 10
2169.15234375
 20
-2608.98046875
 10
2169.15234375
 20
-2598.984375
 10
2159.15625
 20
-2588.98828125
 10
2169.15234375
 20
-2578.9921875
 10
2159.15625
 20
-2568.99609375
 10
2169.15234375
 20
-2559.0
 10
2159.15625
 20
-2549.00390625
 10
2159.15625
 20
-2539.0078125
 10
2159.15625
 20
-2529.01171875
 10
2159.15625
 20
-2519.015625
 10
2159.15625
 20
-2509.01953125
 10
2159.15625
 20
-2499.0234375
 10
2169.15234375
 20
-2489.02734375
 10
2159.15625
 20
-2479.03125
 10
2159.15625
 20
-2469.03515625
 10
2159.15625
 20
-2459.0390625
 10
2159.15625
 20
-2449.04296875
 10
2159.15625
 20
-2439.046875
 10
2169.15234375
 20
-2429.05078125
 10
2179.1484375
 20
-2419.0546875
 10
2169.15234375
 20
-2409.05859375
 10
2179.1484375
 20
-2399.0625
 10
2169.15234375
 20
-2389.06640625
 10
2179.1484375
 20
-2379.0703125
 10
2189.14453125
 20
-2379.0703125
 10
2189.14453125
 20
-2369.07421875
 10
2199.140625
 20
-2359.078125
 10
2209.13671875
 20
-2359.078125
 10
2209.13671875
 20
-2349.08203125
 10
2219.1328125
 20
-2339.0859375
 10
2229.12890625
 20
-2329.08984375
 10
2239.125
 20
-2319.09375
 10
2239.125
 20
-2309.09765625
 10
2239.125
 20
-2299.1015625
 10
2249.12109375
 20
-2289.10546875
 10
2259.1171875
 20
-2279.109375
 10
2259.1171875
 20
-2269.11328125
 10
2269.11328125
 20
-2259.1171875
 10
2269.11328125
 20
-2249.12109375
  0
LWPOLYLINE
  5
38
330
17
100
AcDbEntity
  8
conductor
100
AcDbPolyline
 90
4
 70
1
 43
0.5
 10
2139.1640625
 20
-2519.015625
 10
2149.16015625
 20
-2509.01953125
 10
2159.15625
 20
-2519.015625
 10
2149.16015625
 20
-2529.01171875
  0
LWPOLYLINE
  5
39
330
17
100
AcDbEntity
  8
conductor
100
AcDbPolyline
 90
1
 70
1
 43
0.5
 10
2718.9375
 20
-2189.14453125
  0
LWPOLYLINE
  5
3A
330
17
100
AcDbEntity
  8
conductor
100
AcDbPolyline
 90
323
 70
1
 43
0.5
 10
2758.921875
 20
-2169.15234375
 10
2748.92578125
 20
-2179.1484375
 10
2748.92578125
 20
-2189.14453125
 10
2738.9296875
 20
-2199.140625
 10
2748.92578125
 20
-2209.13671875
 10
2758.921875
 20
-2209.13671875
 10
2768.91796875
 20
-2209.13671875
 10
2778.9140625
 20
-2209.13671875
 10
2788.91015625
 20
-2219.1328125
 10
2788.91015625
 20
-2229.12890625
 10
2798.90625
 20
-2229.12890625
 10
2808.90234375
 20
-2229.12890625
 10
2818.8984375
 20
-2229.12890625
 10
2828.89453125
 20
-2239.125
 10
2818.8984375
 20
-2249.12109375
 10
2808.90234375
 20
-2249.12109375
 10
2818.8984375
 20
-2249.12109375
 10
2828.89453125
 20
-2249.12109375
 10
2838.890625
 20
-2249.12109375
 10
2848.88671875
 20
-2249.12109375
 10
2858.8828125
 20
-2259.1171875
 10
2848.88671875
 20
-2269.11328125
 10
2838.890625
 20
-2279.109375
 10
2848.88671875
 20
-2289.10546875
 10
2858.8828125
 20
-2299.1015625
 10
2868.87890625
 20
-2309.09765625
 10
2868.87890625
 20
-2319.09375
 10
2878.875
 20
-2329.08984375
 10
2878.875
 20
-2319.09375
 10
2888.87109375
 20
-2309.09765625
 10
2898.8671875
 20
-2319.09375
 10
2898.8671875
 20
-2329.08984375
 10
2908.86328125
 20
-2339.0859375
 10
2908.86328125
 20
-2349.08203125
 10
2908.86328125
 20
-2359.078125
 10
2908.86328125
 20
-2369.07421875
 10
2918.859375
 20
-2379.0703125
 10
2928.85546875
 20
-2389.06640625
 10
2928.85546875
 20
-2399.0625
 10
2928.85546875
 20
-2409.05859375
 10
2938.8515625
 20
-2419.0546875
 10
2928.85546875
 20
-2429.05078125
 10
2938.8515625
 20
-2439.046875
 10
2938.8515625
 20
-2449.04296875
 10
2938.8515625
 20
-2459.0390625
 10
2938.8515625
 20
-2469.03515625
 10
2938.8515625
 20
-2479.03125
 10
2938.8515625
 20
-2489.02734375
 10
2948.84765625
 20
-2499.0234375
 10
2938.8515625
 20
-2509.01953125
 10
2948.84765625
 20
-2519.015625
 10
2948.84765625
 20
-2529.01171875
 10
2948.84765625
 20
-2539.0078125
 10
2948.84765625
 20
-2549.00390625
 10
2948.84765625
 20
-2559.0
 10
2948.84765625
 20
-2568.99609375
 10
2948.84765625
 20
-2578.9921875
 10
2948.84765625
 20
-2588.98828125
 10
2948.84765625
 20
-2598.984375
 10
2948.84765625
 20
-2608.98046875
 10
2948.84765625
 20
-2618.9765625
 10
2948.84765625
 20
-2628.97265625
 10
2948.84765625
 20
-2638.96875
 10
2938.8515625
 20
-2648.96484375
 10
2938.8515625
 20
-2658.9609375
 10
2938.8515625
 20
-2668.95703125
 10
2938.8515625
 20
-2678.953125
 10
2928.85546875
 20
-2688.94921875
 10
2938.8515625
 20
-2698.9453125
 10
2928.85546875
 20
-2708.94140625
 10
2918.859375
 20
-2718.9375
 10
2918.859375
 20
-2728.93359375
 10
2908.86328125
 20
-2738.9296875
 10
2898.8671875
 20
-2748.92578125
 10
2888.87109375
 20
-2758.921875
 10
2878.875
 20
-2768.91796875
 10
2868.87890625
 20
-2778.9140625
 10
2858.8828125
 20
-2778.9140625
 10
2848.88671875
 20
-2788.91015625
 10
2848.88671875
 20
-2798.90625
 10
2848.88671875
 20
-2808.90234375
 10
2848.88671875
 20
-2818.8984375
 10
2838.890625
 20
-2828.89453125
 10
2828.89453125
 20
-2828.89453125
 10
2818.8984375
 20
-2838.890625
 10
2808.90234375
 20
-2848.88671875
 10
2808.90234375
 20
-2858.8828125
 10
2798.90625
 20
-2868.87890625
 10
2788.91015625
 20
-2868.87890625
 10
2778.9140625
 20
-2868.87890625
 10
2778.9140625
 20
-2878.875
 10
2768.91796875
 20
-2888.87109375
 10
2758.921875
 20
-2898.8671875
 10
2748.92578125
 20
-2898.8671875
 10
2738.9296875
 20
-2908.86328125
 10
2728.93359375
 20
-2918.859375
 10
2718.9375
 20
-2918.859375
 10
2708.94140625
 20
-2918.859375
 10
2698.9453125
 20
-2928.85546875
 10
2688.94921875
 20
-2928.85546875
 10
2678.953125
 20
-2928.85546875
 10
2668.95703125
 20
-2938.8515625
 10
2658.9609375
 20
-2928.85546875
 10
2648.96484375
 20
-2938.8515625
 10
2638.96875
 20
-2938.8515625
 10
2628.97265625
 20
-2938.8515625
 10
2618.9765625
 20
-2938.8515625
 10
2608.98046875
 20
-2938.8515625
 10
2598.984375
 20
-2938.8515625
 10
2588.98828125
 20
-2938.8515625
 10
2578.9921875
 20
-2938.8515625
 10
2568.99609375
 20
-2938.8515625
 10
2559.0
 20
-2948.84765625
 10
2549.00390625
 20
-2938.8515625
 10
2539.0078125
 20
-2938.8515625
 10
2529.01171875
 20
-2948.84765625
 10
2519.015625
 20
-2948.84765625
 10
2509.01953125
 20
-2938.8515625
 10
2499.0234375
 20
-2938.8515625
 10
2489.02734375
 20
-2948.84765625
 10
2479.03125
 20
-2938.8515625
 10
2469.03515625
 20
-2938.8515625
 10
2459.0390625
 20
-2938.8515625
 10
2449.04296875
 20
-2938.8515625
 10
2439.046875
 20
-2938.8515625
 10
2429.05078125
 20
-2928.85546875
 10
2419.0546875
 20
-2928.85546875
 10
2409.05859375
 20
-2918.859375
 10
2399.0625
 20
-2918.859375
 10
2389.06640625
 20
-2908.86328125
 10
2389.06640625
 20
-2898.8671875
 10
2379.0703125
 20
-2898.8671875
 10
2369.07421875
 20
-2898.8671875
 10
2359.078125
 20
-2888.87109375
 10
2359.078125
 20
-2878.875
 10
2349.08203125
 20
-2878.875
 10
2339.0859375
 20
-2868.87890625
 10
2349.08203125
 20
-2858.8828125
 10
2339.0859375
 20
-2848.88671875
 10
2339.0859375
 20
-2838.890625
 10
2349.08203125
 20
-2828.89453125
 10
2339.0859375
 20
-2838.890625
 10
2329.08984375
 20
-2848.88671875
 10
2319.09375
 20
-2848.88671875
 10
2309.09765625
 20
-2838.890625
 10
2299.1015625
 20
-2838.890625
 10
2289.10546875
 20
-2828.89453125
 10
2289.10546875
 20
-2818.8984375
 10
2279.109375
 20
-2828.89453125
 10
2269.11328125
 20
-2818.8984375
 10
2269.11328125
 20
-2808.90234375
 10
2269.11328125
 20
-2798.90625
 10
2259.1171875
 20
-2808.90234375
 10
2249.12109375
 20
-2798.90625
 10
2249.12109375
 20
-2788.91015625
 10
2239.125
 20
-2788.91015625
 10
2229.12890625
 20
-2778.9140625
 10
2219.1328125
 20
-2778.9140625
 10
2209.13671875
 20
-2778.9140625
 10
2199.140625
 20
-2768.91796875
 10
2209.13671875
 20
-2758.921875
 10
2199.140625
 20
-2758.921875
 10
2189.14453125
 20
-2758.921875
 10
2199.140625
 20
-2768.91796875
 10
2209.13671875
 20
-2778.9140625
 10
2209.13671875
 20
-2788.91015625
 10
2209.13671875
 20
-2798.90625
 10
2209.13671875
 20
-2808.90234375
 10
2209.13671875
 20
-2818.8984375
 10
2209.13671875
 20
-2828.89453125
 10
2219.1328125
 20
-2828.89453125
 10
2229.12890625
 20
-2838.890625
 10
2229.12890625
 20
-2848.88671875
 10
2239.125
 20
-2858.8828125
 10
2239.125
 20
-2868.87890625
 10
2249.12109375
 20
-2868.87890625
 10
2259.1171875
 20
-2868.87890625
 10
2269.11328125
 20
-2878.875
 10
2279.109375
 20
-2888.87109375
 10
2269.11328125
 20
-2898.8671875
 10
2279.109375
 20
-2898.8671875
 10
2289.10546875
 20
-2908.86328125
 10
2299.1015625
 20
-2898.8671875
 10
2309.09765625
 20
-2908.86328125
 10
2319.09375
 20
-2908.86328125
 10
2329.08984375
 20
-2918.859375
 10
2339.0859375
 20
-2918.859375
 10
2349.08203125
 20
-2918.859375
 10
2359.078125
 20
-2928.85546875
 10
2369.07421875
 20
-2928.85546875
 10
2379.0703125
 20
-2938.8515625
 10
2379.0703125
 20
-2948.84765625
 10
2389.06640625
 20
-2948.84765625
 10
2399.0625
 20
-2948.84765625
 10
2409.05859375
 20
-2958.84375
 10
2419.0546875
 20
-2968.83984375
 10
2429.05078125
 20
-2978.8359375
 10
2439.046875
 20
-2968.83984375
 10
2449.04296875
 20
-2978.8359375
 10
2459.0390625
 20
-2978.8359375
 10
2469.03515625
 20
-2978.8359375
 10
2479.03125
 20
-2978.8359375
 10
2489.02734375
 20
-2978.8359375
 10
2499.0234375
 20
-2988.83203125
 10
2509.01953125
 20
-2988.83203125
 10
2519.015625
 20
-2988.83203125
 10
2529.01171875
 20
-2988.83203125
 10
2539.0078125
 20
-2988.83203125
 10
2549.00390625
 20
-2988.83203125
 10
2559.0
 20
-2988.83203125
 10
2568.99609375
 20
-2988.83203125
 10
2578.9921875
 20
-2988.83203125
 10
2588.98828125
 20
-2978.8359375
 10
2598.984375
 20
-2978.8359375
 10
2608.98046875
 20
-2978.8359375
 10
2618.9765625
 20
-2978.8359375
 10
2628.97265625
 20
-2978.8359375
 10
2638.96875
 20
-2968.83984375
 10
2648.96484375
 20
-2968.83984375
 10
2658.9609375
 20
-2978.8359375
 10
2668.95703125
 20
-2968.83984375
 10
2678.953125
 20
-2958.84375
 10
2688.94921875
 20
-2958.84375
 10
2698.9453125
 20
-2958.84375
 10
2708.94140625
 20
-2958.84375
 10
2718.9375
 20
-2948.84765625
 10
2728.93359375
 20
-2948.84765625
 10
2738.9296875
 20
-2948.84765625
 10
2748.92578125
 20
-2948.84765625
 10
2758.921875
 20
-2938.8515625
 10
2768.91796875
 20
-2928.85546875
 10
2778.9140625
 20
-2928.85546875
 10
2788.91015625
 20
-2918.859375
 10
2798.90625
 20
-2918.859375
 10
2808.90234375
 20
-2918.859375
 10
2818.8984375
 20
-2918.859375
 10
2818.8984375
 20
-2908.86328125
 10
2828.89453125
 20
-2898.8671875
 10
2828.89453125
 20
-2888.87109375
 10
2838.890625
 20
-2878.875
 10
2848.88671875
 20
-2868.87890625
 10
2858.8828125
 20
-2878.875
 10
2868.87890625
 20
-2878.875
 10
2878.875
 20
-2868.87890625
 10
2878.875
 20
-2858.8828125
 10
2888.87109375
 20
-2848.88671875
 10
2898.8671875
 20
-2838.890625
 10
2908.86328125
 20
-2828.89453125
 10
2908.86328125
 20
-2818.8984375
 10
2918.859375
 20
-2808.90234375
 10
2918.859375
 20
-2798.90625
 10
2928.85546875
 20
-2788.91015625
 10
2928.85546875
 20
-2778.9140625
 10
2928.85546875
 20
-2768.91796875
 10
2938.8515625
 20
-2758.921875
 10
2938.8515625
 20
-2748.92578125
 10
2948.84765625
 20
-2738.9296875
 10
2948.84765625
 20
-2728.93359375
 10
2948.84765625
 20
-2718.9375
 10
2958.84375
 20
-2708.94140625
 10
2958.84375
 20
-2698.9453125
 10
2968.83984375
 20
-2688.94921875
 10
2968.83984375
 20
-2678.953125
 10
2978.8359375
 20
-2668.95703125
 10
2978.8359375
 20
-2658.9609375
 10
2978.8359375
 20
-2648.96484375
 10
2978.8359375
 20
-2638.96875
 10
2978.8359375
 20
-2628.97265625
 10
2988.83203125
 20
-2618.9765625
 10
2978.8359375
 20
-2608.98046875
 10
2988.83203125
 20
-2598.984375
 10
2978.8359375
 20
-2588.98828125
 10
2988.83203125
 20
-2578.9921875
 10
2978.8359375
 20
-2568.99609375
 10
2988.83203125
 20
-2559.0
 10
2988.83203125
 20
-2549.00390625
 10
2988.83203125
 20
-2539.0078125
 10
2988.83203125
 20
-2529.01171875
 10
2988.83203125
 20
-2519.015625
 10
2988.83203125
 20
-2509.01953125
 10
2978.8359375
 20
-2499.0234375
 10
2978.8359375
 20
-2489.02734375
 10
2978.8359375
 20
-2479.03125
 10
2978.8359375
 20
-2469.03515625
 10
2978.8359375
 20
-2459.0390625
 10
2978.8359375
 20
-2449.04296875
 10
2978.8359375
 20
-2439.046875
 10
2968.83984375
 20
-2429.05078125
 10
2968.83984375
 20
-2419.0546875
 10
2968.83984375
 20
-2409.05859375
 10
2958.84375
 20
-2399.0625
 10
2958.84375
 20
-2389.06640625
 10
2948.84765625
 20
-2379.0703125
 10
2958.84375
 20
-2369.07421875
 10
2948.84765625
 20
-2379.0703125
 10
2938.8515625
 20
-2369.07421875
 10
2938.8515625
 20
-2359.078125
 10
2938.8515625
 20
-2349.08203125
 10
2928.85546875
 20
-2349.08203125
 10
2918.859375
 20
-2349.08203125
 10
2908.86328125
 20
-2339.0859375
 10
2918.859375
 20
-2329.08984375
 10
2908.86328125
 20
-2319.09375
 10
2898.8671875
 20
-2309.09765625
 10
2908.86328125
 20
-2299.1015625
 10
2898.8671875
 20
-2289.10546875
 10
2898.8671875
 20
-2279.109375
 10
2888.87109375
 20
-2279.109375
 10
2878.875
 20
-2269.11328125
 10
2878.875
 20
-2259.1171875
 10
2868.87890625
 20
-2259.1171875
 10
2858.8828125
 20
-2249.12109375
 10
2858.8828125
 20
-2239.125
 10
2848.88671875
 20
-2249.12109375
 10
2838.890625
 20
-2239.125
 10
2838.890625
 20
-2229.12890625
 10
2828.89453125
 20
-2219.1328125
 10
2818.8984375
 20
-2209.13671875
 10
2808.90234375
 20
-2199.140625
 10
2798.90625
 20
-2189.14453125
 10
2788.91015625
 20
-2179.1484375
 10
2778.9140625
 20
-2169.15234375
 10
2768.91796875
 20
-2179.1484375
  0
LWPOLYLINE
  5
3B
330
17
100
AcDbEntity
  8
conductor
100
AcDbPolyline
 90
4
 70
1
 43
0.5
 10
2279.109375
 20
-2888.87109375
 10
2289.10546875
 20
-2878.875
 10
2299.1015625
 20
-2888.87109375
 10
2289.10546875
 20
-2898.8671875
  0
LWPOLYLINE
  5
3C
330
17
100
AcDbEntity
  8
conductor
100
AcDbPolyline
 90
4
 70
1
 43
0.5
 10
2808.90234375
 20
-2219.1328125
 10
2818.8984375
 20
-2209.13671875
 10
2828.89453125
 20
-2219.1328125
 10
2818.8984375
 20
-2229.12890625
  0
LWPOLYLINE
  5
3D
330
17
100
AcDbEntity
  8
conductor
100
AcDbPolyline
 90
4
 70
1
 43
0.5
 10
2788.91015625
 20
-2219.1328125
 10
2798.90625
 20
-2209.13671875
 10
2808.90234375
 20
-2219.1328125
 10
2798.90625
 20
-2229.12890625
  0
LWPOLYLINE
  5
3E
330
17
100
AcDbEntity
  8
conductor
100
AcDbPolyline
 90
4
 70
1
 43
0.5
 10
2748.92578125
 20
-2179.1484375
 10
2758.921875
 20
-2169.15234375
 10
2768.91796875
 20
-2179.1484375
 10
2758.921875
 20
-2189.14453125
  0
LWPOLYLINE
  5
3F
330
17
100
AcDbEntity
  8
conductor
100
AcDbPolyline
 90
2
 70
1
 43
0.5
 10
2718.9375
 20
-2159.15625
 10
2718.9375
 20
-2169.15234375
  0
LWPOLYLINE
  5
40
330
17
100
AcDbEntity
  8
conductor
100
AcDbPolyline
 90
98
 70
1
 43
0.5
 10
2628.97265625
 20
-2129.16796875
 10
2618.9765625
 20
-2139.1640625
 10
2608.98046875
 20
-2139.1640625
 10
2598.984375
 20
-2139.1640625
 10
2588.98828125
 20
-2139.1640625
 10
2578.9921875
 20
-2139.1640625
 10
2568.99609375
 20
-2139.1640625
 10
2559.0
 20
-2139.1640625
 10
2549.00390625
 20
-2139.1640625
 10
2539.0078125
 20
-2139.1640625
 10
2529.01171875
 20
-2139.1640625
 10
2519.015625
 20
-2139.1640625
 10
2509.01953125
 20
-2139.1640625
 10
2499.0234375
 20
-2139.1640625
 10
2489.02734375
 20
-2139.1640625
 10
2479.03125
 20
-2139.1640625
 10
2469.03515625
 20
-2139.1640625
 10
2459.0390625
 20
-2139.1640625
 10
2449.04296875
 20
-2139.1640625
 10
2439.046875
 20
-2139.1640625
 10
2429.05078125
 20
-2139.1640625
 10
2419.0546875
 20
-2139.1640625
 10
2409.05859375
 20
-2149.16015625
 10
2399.0625
 20
-2149.16015625
 10
2389.06640625
 20
-2159.15625
 10
2379.0703125
 20
-2159.15625
 10
2369.07421875
 20
-2159.15625
 10
2359.078125
 20
-2159.15625
 10
2349.08203125
 20
-2159.15625
 10
2339.0859375
 20
-2159.15625
 10
2329.08984375
 20
-2159.15625
 10
2319.09375
 20
-2169.15234375
 10
2309.09765625
 20
-2159.15625
 10
2299.1015625
 20
-2169.15234375
 10
2289.10546875
 20
-2169.15234375
 10
2279.109375
 20
-2169.15234375
 10
2269.11328125
 20
-2179.1484375
 10
2279.109375
 20
-2179.1484375
 10
2289.10546875
 20
-2189.14453125
 10
2289.10546875
 20
-2199.140625
 10
2299.1015625
 20
-2209.13671875
 10
2299.1015625
 20
-2219.1328125
 10
2309.09765625
 20
-2209.13671875
 10
2319.09375
 20
-2209.13671875
 10
2329.08984375
 20
-2209.13671875
 10
2339.0859375
 20
-2199.140625
 10
2349.08203125
 20
-2209.13671875
 10
2359.078125
 20
-2199.140625
 10
2369.07421875
 20
-2199.140625
 10
2379.0703125
 20
-2199.140625
 10
2389.06640625
 20
-2209.13671875
 10
2379.0703125
 20
-2199.140625
 10
2389.06640625
 20
-2189.14453125
 10
2399.0625
 20
-2189.14453125
 10
2409.05859375
 20
-2199.140625
 10
2409.05859375
 20
-2209.13671875
 10
2409.05859375
 20
-2199.140625
 10
2409.05859375
 20
-2189.14453125
 10
2419.0546875
 20
-2179.1484375
 10
2429.05078125
 20
-2169.15234375
 10
2439.046875
 20
-2179.1484375
 10
2449.04296875
 20
-2179.1484375
 10
2459.0390625
 20
-2179.1484375
 10
2469.03515625
 20
-2169.15234375
 10
2479.03125
 20
-2179.1484375
 10
2489.02734375
 20
-2179.1484375
 10
2499.0234375
 20
-2179.1484375
 10
2509.01953125
 20
-2169.15234375
 10
2519.015625
 20
-2179.1484375
 10
2529.01171875
 20
-2169.15234375
 10
2539.0078125
 20
-2169.15234375
 10
2549.00390625
 20
-2169.15234375
 10
2559.0
 20
-2169.15234375
 10
2568.99609375
 20
-2169.15234375
 10
2578.9921875
 20
-2169.15234375
 10
2588.98828125
 20
-2169.15234375
 10
2598.984375
 20
-2169.15234375
 10
2608.98046875
 20
-2179.1484375
 10
2618.9765625
 20
-2169.15234375
 10
2628.97265625
 20
-2169.15234375
 10
2638.96875
 20
-2179.1484375
 10
2648.96484375
 20
-2179.1484375
 10
2658.9609375
 20
-2179.1484375
 10
2668.95703125
 20
-2189.14453125
 10
2678.953125
 20
-2199.140625
 10
2688.94921875
 20
-2199.140625
 10
2698.9453125
 20
-2199.140625
 10
2688.94921875
 20
-2189.14453125
 10
2698.9453125
 20
-2179.1484375
 10
2698.9453125
 20
-2169.15234375
 10
2698.9453125
 20
-2159.15625
 10
2688.94921875
 20
-2159.15625
 10
2678.953125
 20
-2149.16015625
 10
2678.953125
 20
-2139.1640625
 10
2668.95703125
 20
-2149.16015625
 10
2658.9609375
 20
-2139.1640625
 10
2648.96484375
 20
-2139.1640625
 10
2638.96875
 20
-2139.1640625
  0
LWPOLYLINE
  5
41
330
17
100
AcDbEntity
  8
conductor
100
AcDbPolyline
 90
1
 70
1
 43
0.5
 10
2608.98046875
 20
-959.625
  0
LWPOLYLINE
  5
42
330
17
100
AcDbEntity
  8
substrate
100
AcDbPolyline
 90
2044
 70
1
 43
0.5
 10
0.0
 20
-0.0
 10
0.0
 20
-9.99609375
 10
0.0
 20
-19.9921875
 10
0.0
 20
-29.98828125
 10
0.0
 20
-39.984375
 10
0.0
 20
-49.98046875
 10
0.0
 20
-59.9765625
 10
0.0
 20
-69.97265625
 10
0.0
 20
-79.96875
 10
0.0
 20
-89.96484375
 10
0.0
 20
-99.9609375
 10
0.0
 20
-109.95703125
 10
0.0
 20
-119.953125
 10
0.0
 20
-129.94921875
 10
0.0
 20
-139.9453125
 10
0.0
 20
-149.94140625
 10
0.0
 20
-159.9375
 10
0.0
 20
-169.93359375
 10
0.0
 20
-179.9296875
 10
0.0
 20
-189.92578125
 10
0.0
 20
-199.921875
 10
0.0
 20
-209.91796875
 10
0.0
 20
-219.9140625
 10
0.0
 20
-229.91015625
 10
0.0
 20
-239.90625
 10
0.0
 20
-249.90234375
 10
0.0
 20
-259.8984375
 10
0.0
 20
-269.89453125
 10
0.0
 20
-279.890625
 10
0.0
 20
-289.88671875
 10
0.0
 20
-299.8828125
 10
0.0
 20
-309.87890625
 10
0.0
 20
-319.875
 10
0.0
 20
-329.87109375
 10
0.0
 20
-339.8671875
 10
0.0
 20
-349.86328125
 10
0.0
 20
-359.859375
 10
0.0
 20
-369.85546875
 10
0.0
 20
-379.8515625
 10
0.0
 20
-389.84765625
 10
0.0
 20
-399.84375
 10
0.0
 20
-409.83984375
 10
0.0
 20
-419.8359375
 10
0.0
 20
-429.83203125
 10
0.0
 20
-439.828125
 10
0.0
 20
-449.82421875
 10
0.0
 20
-459.8203125
 10
0.0
 20
-469.81640625
 10
0.0
 20
-479.8125
 10
0.0
 20
-489.80859375
 10
0.0
 20
-499.8046875
 10
0.0
 20
-509.80078125
 10
0.0
 20
-519.796875
 10
0.0
 20
-529.79296875
 10
0.0
 20
-539.7890625
 10
0.0
 20
-549.78515625
 10
0.0
 20
-559.78125
 10
0.0
 20
-569.77734375
 10
0.0
 20
-579.7734375
 10
0.0
 20
-589.76953125
 10
0.0
 20
-599.765625
 10
0.0
 20
-609.76171875
 10
0.0
 20
-619.7578125
 10
0.0
 20
-629.75390625
 10
0.0
 20
-639.75
 10
0.0
 20
-649.74609375
 10
0.0
 20
-659.7421875
 10
0.0
 20
-669.73828125
 10
0.0
 20
-679.734375
 10
0.0
 20
-689.73046875
 10
0.0
 20
-699.7265625
 10
0.0
 20
-709.72265625
 10
0.0
 20
-719.71875
 10
0.0
 20
-729.71484375
 10
0.0
 20
-739.7109375
 10
0.0
 20
-749.70703125
 10
0.0
 20
-759.703125
 10
0.0
 20
-769.69921875
 10
0.0
 20
-779.6953125
 10
0.0
 20
-789.69140625
 10
0.0
 20
-799.6875
 10
0.0
 20
-809.68359375
 10
0.0
 20
-819.6796875
 10
0.0
 20
-829.67578125
 10
0.0
 20
-839.671875
 10
0.0
 20
-849.66796875
 10
0.0
 20
-859.6640625
 10
0.0
 20
-869.66015625
 10
0.0
 20
-879.65625
 10
0.0
 20
-889.65234375
 10
0.0
 20
-899.6484375
 10
0.0
 20
-909.64453125
 10
0.0
 20
-919.640625
 10
0.0
 20
-929.63671875
 10
0.0
 20
-939.6328125
 10
0.0
 20
-949.62890625
 10
0.0
 20
-959.625
 10
0.0
 20
-969.62109375
 10
0.0
 20
-979.6171875
 10
0.0
 20
-989.61328125
 10
0.0
 20
-999.609375
 10
0.0
 20
-1009.60546875
 10
0.0
 20
-1019.6015625
 10
0.0
 20
-1029.59765625
 10
0.0
 20
-1039.59375
 10
0.0
 20
-1049.58984375
 10
0.0
 20
-1059.5859375
 10
0.0
 20
-1069.58203125
 10
0.0
 20
-1079.578125
 10
0.0
 20
-1089.57421875
 10
0.0
 20
-1099.5703125
 10
0.0
 20
-1109.56640625
 10
0.0
 20
-1119.5625
 10
0.0
 20
-1129.55859375
 10
0.0
 20
-1139.5546875
 10
0.0
 20
-1149.55078125
 10
0.0
 20
-1159.546875
 10
0.0
 20
-1169.54296875
 10
0.0
 20
-1179.5390625
 10
0.0
 20
-1189.53515625
 10
0.0
 20
-1199.53125
 10
0.0
 20
-1209.52734375
 10
0.0
 20
-1219.5234375
 10
0.0
 20
-1229.51953125
 10
0.0
 20
-1239.515625
 10
0.0
 20
-1249.51171875
 10
0.0
 20
-1259.5078125
 10
0.0
 20
-1269.50390625
 10
0.0
 20
-1279.5
 10
0.0
 20
-1289.49609375
 10
0.0
 20
-1299.4921875
 10
0.0
 20
-1309.48828125
 10
0.0
 20
-1319.484375
 10
0.0
 20
-1329.48046875
 10
0.0
 20
-1339.4765625
 10
0.0
 20
-1349.47265625
 10
0.0
 20
-1359.46875
 10
0.0
 20
-1369.46484375
 10
0.0
 20
-1379.4609375
 10
0.0
 20
-1389.45703125
 10
0.0
 20
-1399.453125
 10
0.0
 20
-1409.44921875
 10
0.0
 20
-1419.4453125
 10
0.0
 20
-1429.44140625
 10
0.0
 20
-1439.4375
 10
0.0
 20
-1449.43359375
 10
0.0
 20
-1459.4296875
 10
0.0
 20
-1469.42578125
 10
0.0
 20
-1479.421875
 10
0.0
 20
-1489.41796875
 10
0.0
 20
-1499.4140625
 10
0.0
 20
-1509.41015625
 10
0.0
 20
-1519.40625
 10
0.0
 20
-1529.40234375
 10
0.0
 20
-1539.3984375
 10
0.0
 20
-1549.39453125
 10
0.0
 20
-1559.390625
 10
0.0
 20
-1569.38671875
 10
0.0
 20
-1579.3828125
 10
0.0
 20
-1589.37890625
 10
0.0
 20
-1599.375
 10
0.0
 20
-1609.37109375
 10
0.0
 20
-1619.3671875
 10
0.0
 20
-1629.36328125
 10
0.0
 20
-1639.359375
 10
0.0
 20
-1649.35546875
 10
0.0
 20
-1659.3515625
 10
0.0
 20
-1669.34765625
 10
0.0
 20
-1679.34375
 10
0.0
 20
-1689.33984375
 10
0.0
 20
-1699.3359375
 10
0.0
 20
-1709.33203125
 10
0.0
 20
-1719.328125
 10
0.0
 20
-1729.32421875
 10
0.0
 20
-1739.3203125
 10
0.0
 20
-1749.31640625
 10
0.0
 20
-1759.3125
 10
0.0
 20
-1769.30859375
 10
0.0
 20
-1779.3046875
 10
0.0
 20
-1789.30078125
 10
0.0
 20
-1799.296875
 10
0.0
 20
-1809.29296875
 10
0.0
 20
-1819.2890625
 10
0.0
 20
-1829.28515625
 10
0.0
 20
-1839.28125
 10
0.0
 20
-1849.27734375
 10
0.0
 20
-1859.2734375
 10
0.0
 20
-1869.26953125
 10
0.0
 20
-1879.265625
 10
0.0
 20
-1889.26171875
 10
0.0
 20
-1899.2578125
 10
0.0
 20
-1909.25390625
 10
0.0
 20
-1919.25
 10
0.0
 20
-1929.24609375
 10
0.0
 20
-1939.2421875
 10
0.0
 20
-1949.23828125
 10
0.0
 20
-1959.234375
 10
0.0
 20
-1969.23046875
 10
0.0
 20
-1979.2265625
 10
0.0
 20
-1989.22265625
 10
0.0
 20
-1999.21875
 10
0.0
 20
-2009.21484375
 10
0.0
 20
-2019.2109375
 10
0.0
 20
-2029.20703125
 10
0.0
 20
-2039.203125
 10
0.0
 20
-2049.19921875
 10
0.0
 20
-2059.1953125
 10
0.0
 20
-2069.19140625
 10
0.0
 20
-2079.1875
 10
0.0
 20
-2089.18359375
 10
0.0
 20
-2099.1796875
 10
0.0
 20
-2109.17578125
 10
0.0
 20
-2119.171875
 10
0.0
 20
-2129.16796875
 10
0.0
 20
-2139.1640625
 10
0.0
 20
-2149.16015625
 10
0.0
 20
-2159.15625
 10
0.0
 20
-2169.15234375
 10
0.0
 20
-2179.1484375
 10
0.0
 20
-2189.14453125
 10
0.0
 20
-2199.140625
 10
0.0
 20
-2209.13671875
 10
0.0
 20
-2219.1328125
 10
0.0
 20
-2229.12890625
 10
0.0
 20
-2239.125
 10
0.0
 20
-2249.12109375
 10
0.0
 20
-2259.1171875
 10
0.0
 20
-2269.11328125
 10
0.0
 20
-2279.109375
 10
0.0
 20
-2289.10546875
 10
0.0
 20
-2299.1015625
 10
0.0
 20
-2309.09765625
 10
0.0
 20
-2319.09375
 10
0.0
 20
-2329.08984375
 10
0.0
 20
-2339.0859375
 10
0.0
 20
-2349.08203125
 10
0.0
 20
-2359.078125
 10
0.0
 20
-2369.07421875
 10
0.0
 20
-2379.0703125
 10
0.0
 20
-2389.06640625
 10
0.0
 20
-2399.0625
 10
0.0
 20
-2409.05859375
 10
0.0
 20
-2419.0546875
 10
0.0
 20
-2429.05078125
 10
0.0
 20
-2439.046875
 10
0.0
 20
-2449.04296875
 10
0.0
 20
-2459.0390625
 10
0.0
 20
-2469.03515625
 10
0.0
 20
-2479.03125
 10
0.0
 20
-2489.02734375
 10
0.0
 20
-2499.0234375
 10
0.0
 20
-2509.01953125
 10
0.0
 20
-2519.015625
 10
0.0
 20
-2529.01171875
 10
0.0
 20
-2539.0078125
 10
0.0
 20
-2549.00390625
 10
0.0
 20
-2559.0
 10
0.0
 20
-2568.99609375
 10
0.0
 20
-2578.9921875
 10
0.0
 20
-2588.98828125
 10
0.0
 20
-2598.984375
 10
0.0
 20
-2608.98046875
 10
0.0
 20
-2618.9765625
 10
0.0
 20
-2628.97265625
 10
0.0
 20
-2638.96875
 10
0.0
 20
-2648.96484375
 10
0.0
 20
-2658.9609375
 10
0.0
 20
-2668.95703125
 10
0.0
 20
-2678.953125
 10
0.0
 20
-2688.94921875
 10
0.0
 20
-2698.9453125
 10
0.0
 20
-2708.94140625
 10
0.0
 20
-2718.9375
 10
0.0
 20
-2728.93359375
 10
0.0
 20
-2738.9296875
 10
0.0
 20
-2748.92578125
 10
0.0
 20
-2758.921875
 10
0.0
 20
-2768.91796875
 10
0.0
 20
-2778.9140625
 10
0.0
 20
-2788.91015625
 10
0.0
 20
-2798.90625
 10
0.0
 20
-2808.90234375
 10
0.0
 20
-2818.8984375
 10
0.0
 20
-2828.89453125
 10
0.0
 20
-2838.890625
 10
0.0
 20
-2848.88671875
 10
0.0
 20
-2858.8828125
 10
0.0
 20
-2868.87890625
 10
0.0
 20
-2878.875
 10
0.0
 20
-2888.87109375
 10
0.0
 20
-2898.8671875
 10
0.0
 20
-2908.86328125
 10
0.0
 20
-2918.859375
 10
0.0
 20
-2928.85546875
 10
0.0
 20
-2938.8515625
 10
0.0
 20
-2948.84765625
 10
0.0
 20
-2958.84375
 10
0.0
 20
-2968.83984375
 10
0.0
 20
-2978.8359375
 10
0.0
 20
-2988.83203125
 10
0.0
 20
-2998.828125
 10
0.0
 20
-3008.82421875
 10
0.0
 20
-3018.8203125
 10
0.0
 20
-3028.81640625
 10
0.0
 20
-3038.8125
 10
0.0
 20
-3048.80859375
 10
0.0
 20
-3058.8046875
 10
0.0
 20
-3068.80078125
 10
0.0
 20
-3078.796875
 10
0.0
 20
-3088.79296875
 10
0.0
 20
-3098.7890625
 10
0.0
 20
-3108.78515625
 10
0.0
 20
-3118.78125
 10
0.0
 20
-3128.77734375
 10
0.0
 20
-3138.7734375
 10
0.0
 20
-3148.76953125
 10
0.0
 20
-3158.765625
 10
0.0
 20
-3168.76171875
 10
0.0
 20
-3178.7578125
 10
0.0
 20
-3188.75390625
 10
0.0
 20
-3198.75
 10
0.0
 20
-3208.74609375
 10
0.0
 20
-3218.7421875
 10
0.0
 20
-3228.73828125
 10
0.0
 20
-3238.734375
 10
0.0
 20
-3248.73046875
 10
0.0
 20
-3258.7265625
 10
0.0
 20
-3268.72265625
 10
0.0
 20
-3278.71875
 10
0.0
 20
-3288.71484375
 10
0.0
 20
-3298.7109375
 10
0.0
 20
-3308.70703125
 10
0.0
 20
-3318.703125
 10
0.0
 20
-3328.69921875
 10
0.0
 20
-3338.6953125
 10
0.0
 20
-3348.69140625
 10
0.0
 20
-3358.6875
 10
0.0
 20
-3368.68359375
 10
0.0
 20
-3378.6796875
 10
0.0
 20
-3388.67578125
 10
0.0
 20
-3398.671875
 10
0.0
 20
-3408.66796875
 10
0.0
 20
-3418.6640625
 10
0.0
 20
-3428.66015625
 10
0.0
 20
-3438.65625
 10
0.0
 20
-3448.65234375
 10
0.0
 20
-3458.6484375
 10
0.0
 20
-3468.64453125
 10
0.0
 20
-3478.640625
 10
0.0
 20
-3488.63671875
 10
0.0
 20
-3498.6328125
 10
0.0
 20
-3508.62890625
 10
0.0
 20
-3518.625
 10
0.0
 20
-3528.62109375
 10
0.0
 20
-3538.6171875
 10
0.0
 20
-3548.61328125
 10
0.0
 20
-3558.609375
 10
0.0
 20
-3568.60546875
 10
0.0
 20
-3578.6015625
 10
0.0
 20
-3588.59765625
 10
0.0
 20
-3598.59375
 10
0.0
 20
-3608.58984375
 10
0.0
 20
-3618.5859375
 10
0.0
 20
-3628.58203125
 10
0.0
 20
-3638.578125
 10
0.0
 20
-3648.57421875
 10
0.0
 20
-3658.5703125
 10
0.0
 20
-3668.56640625
 10
0.0
 20
-3678.5625
 10
0.0
 20
-3688.55859375
 10
0.0
 20
-3698.5546875
 10
0.0
 20
-3708.55078125
 10
0.0
 20
-3718.546875
 10
0.0
 20
-3728.54296875
 10
0.0
 20
-3738.5390625
 10
0.0
 20
-3748.53515625
 10
0.0
 20
-3758.53125
 10
0.0
 20
-3768.52734375
 10
0.0
 20
-3778.5234375
 10
0.0
 20
-3788.51953125
 10
0.0
 20
-3798.515625
 10
0.0
 20
-3808.51171875
 10
0.0
 20
-3818.5078125
 10
0.0
 20
-3828.50390625
 10
0.0
 20
-3838.5
 10
0.0
 20
-3848.49609375
 10
0.0
 20
-3858.4921875
 10
0.0
 20
-3868.48828125
 10
0.0
 20
-3878.484375
 10
0.0
 20
-3888.48046875
 10
0.0
 20
-3898.4765625
 10
0.0
 20
-3908.47265625
 10
0.0
 20
-3918.46875
 10
0.0
 20
-3928.46484375
 10
0.0
 20
-3938.4609375
 10
0.0
 20
-3948.45703125
 10
0.0
 20
-3958.453125
 10
0.0
 20
-3968.44921875
 10
0.0
 20
-3978.4453125
 10
0.0
 20
-3988.44140625
 10
0.0
 20
-3998.4375
 10
0.0
 20
-4008.43359375
 10
0.0
 20
-4018.4296875
 10
0.0
 20
-4028.42578125
 10
0.0
 20
-4038.421875
 10
0.0
 20
-4048.41796875
 10
0.0
 20
-4058.4140625
 10
0.0
 20
-4068.41015625
 10
0.0
 20
-4078.40625
 10
0.0
 20
-4088.40234375
 10
0.0
 20
-4098.3984375
 10
0.0
 20
-4108.39453125
 10
0.0
 20
-4118.390625
 10
0.0
 20
-4128.38671875
 10
0.0
 20
-4138.3828125
 10
0.0
 20
-4148.37890625
 10
0.0
 20
-4158.375
 10
0.0
 20
-4168.37109375
 10
0.0
 20
-4178.3671875
 10
0.0
 20
-4188.36328125
 10
0.0
 20
-4198.359375
 10
0.0
 20
-4208.35546875
 10
0.0
 20
-4218.3515625
 10
0.0
 20
-4228.34765625
 10
0.0
 20
-4238.34375
 10
0.0
 20
-4248.33984375
 10
0.0
 20
-4258.3359375
 10
0.0
 20
-4268.33203125
 10
0.0
 20
-4278.328125
 10
0.0
 20
-4288.32421875
 10
0.0
 20
-4298.3203125
 10
0.0
 20
-4308.31640625
 10
0.0
 20
-4318.3125
 10
0.0
 20
-4328.30859375
 10
0.0
 20
-4338.3046875
 10
0.0
 20
-4348.30078125
 10
0.0
 20
-4358.296875
 10
0.0
 20
-4368.29296875
 10
0.0
 20
-4378.2890625
 10
0.0
 20
-4388.28515625
 10
0.0
 20
-4398.28125
 10
0.0
 20
-4408.27734375
 10
0.0
 20
-4418.2734375
 10
0.0
 20
-4428.26953125
 10
0.0
 20
-4438.265625
 10
0.0
 20
-4448.26171875
 10
0.0
 20
-4458.2578125
 10
0.0
 20
-4468.25390625
 10
0.0
 20
-4478.25
 10
0.0
 20
-4488.24609375
 10
0.0
 20
-4498.2421875
 10
0.0
 20
-4508.23828125
 10
0.0
 20
-4518.234375
 10
0.0
 20
-4528.23046875
 10
0.0
 20
-4538.2265625
 10
0.0
 20
-4548.22265625
 10
0.0
 20
-4558.21875
 10
0.0
 20
-4568.21484375
 10
0.0
 20
-4578.2109375
 10
0.0
 20
-4588.20703125
 10
0.0
 20
-4598.203125
 10
0.0
 20
-4608.19921875
 10
0.0
 20
-4618.1953125
 10
0.0
 20
-4628.19140625
 10
0.0
 20
-4638.1875
 10
0.0
 20
-4648.18359375
 10
0.0
 20
-4658.1796875
 10
0.0
 20
-4668.17578125
 10
0.0
 20
-4678.171875
 10
0.0
 20
-4688.16796875
 10
0.0
 20
-4698.1640625
 10
0.0
 20
-4708.16015625
 10
0.0
 20
-4718.15625
 10
0.0
 20
-4728.15234375
 10
0.0
 20
-4738.1484375
 10
0.0
 20
-4748.14453125
 10
0.0
 20
-4758.140625
 10
0.0
 20
-4768.13671875
 10
0.0
 20
-4778.1328125
 10
0.0
 20
-4788.12890625
 10
0.0
 20
-4798.125
 10
0.0
 20
-4808.12109375
 10
0.0
 20
-4818.1171875
 10
0.0
 20
-4828.11328125
 10
0.0
 20
-4838.109375
 10
0.0
 20
-4848.10546875
 10
0.0
 20
-4858.1015625
 10
0.0
 20
-4868.09765625
 10
0.0
 20
-4878.09375
 10
0.0
 20
-4888.08984375
 10
0.0
 20
-4898.0859375
 10
0.0
 20
-4908.08203125
 10
0.0
 20
-4918.078125
 10
0.0
 20
-4928.07421875
 10
0.0
 20
-4938.0703125
 10
0.0
 20
-4948.06640625
 10
0.0
 20
-4958.0625
 10
0.0
 20
-4968.05859375
 10
0.0
 20
-4978.0546875
 10
0.0
 20
-4988.05078125
 10
0.0
 20
-4998.046875
 10
0.0
 20
-5008.04296875
 10
0.0
 20
-5018.0390625
 10
0.0
 20
-5028.03515625
 10
0.0
 20
-5038.03125
 10
0.0
 20
-5048.02734375
 10
0.0
 20
-5058.0234375
 10
0.0
 20
-5068.01953125
 10
0.0
 20
-5078.015625
 10
0.0
 20
-5088.01171875
 10
0.0
 20
-5098.0078125
 10
0.0
 20
-5108.00390625
 10
9.99609375
 20
-5108.00390625
 10
19.9921875
 20
-5108.00390625
 10
29.98828125
 20
-5108.00390625
 10
39.984375
 20
-5108.00390625
 10
49.98046875
 20
-5108.00390625
 10
59.9765625
 20
-5108.00390625
 10
69.97265625
 20
-5108.00390625
 10
79.96875
 20
-5108.00390625
 10
89.96484375
 20
-5108.00390625
 10
99.9609375
 20
-5108.00390625
 10
109.95703125
 20
-5108.00390625
 10
119.953125
 20
-5108.00390625
 10
129.94921875
 20
-5108.00390625
 10
139.9453125
 20
-5108.00390625
 10
149.94140625
 20
-5108.00390625
 10
159.9375
 20
-5108.00390625
 10
169.93359375
 20
-5108.00390625
 10
179.9296875
 20
-5108.00390625
 10
189.92578125
 20
-5108.00390625
 10
199.921875
 20
-5108.00390625
 10
209.91796875
 20
-5108.00390625
 10
219.9140625
 20
-5108.00390625
 10
229.91015625
 20
-5108.00390625
 10
239.90625
 20
-5108.00390625
 10
249.90234375
 20
-5108.00390625
 10
259.8984375
 20
-5108.00390625
 10
269.89453125
 20
-5108.00390625
 10
279.890625
 20
-5108.00390625
 10
289.88671875
 20
-5108.00390625
 10
299.8828125
 20
-5108.00390625
 10
309.87890625
 20
-5108.00390625
 10
319.875
 20
-5108.00390625
 10
329.87109375
 20
-5108.00390625
 10
339.8671875
 20
-5108.00390625
 10
349.86328125
 20
-5108.00390625
 10
359.859375
 20
-5108.00390625
 10
369.85546875
 20
-5108.00390625
 10
379.8515625
 20
-5108.00390625
 10
389.84765625
 20
-5108.00390625
 10
399.84375
 20
-5108.00390625
 10
409.83984375
 20
-5108.00390625
 10
419.8359375
 20
-5108.00390625
 10
429.83203125
 20
-5108.00390625
 10
439.828125
 20
-5108.00390625
 10
449.82421875
 20
-5108.00390625
 10
459.8203125
 20
-5108.00390625
 10
469.81640625
 20
-5108.00390625
 10
479.8125
 20
-5108.00390625
 10
489.80859375
 20
-5108.00390625
 10
499.8046875
 20
-5108.00390625
 10
509.80078125
 20
-5108.00390625
 10
519.796875
 20
-5108.00390625
 10
529.79296875
 20
-5108.00390625
 10
539.7890625
 20
-5108.00390625
 10
549.78515625
 20
-5108.00390625
 10
559.78125
 20
-5108.00390625
 10
569.77734375
 20
-5108.00390625
 10
579.7734375
 20
-5108.00390625
 10
589.76953125
 20
-5108.00390625
 10
599.765625
 20
-5108.00390625
 10
609.76171875
 20
-5108.00390625
 10
619.7578125
 20
-5108.00390625
 10
629.75390625
 20
-5108.00390625
 10
639.75
 20
-5108.00390625
 10
649.74609375
 20
-5108.00390625
 10
659.7421875
 20
-5108.00390625
 10
669.73828125
 20
-5108.00390625
 10
679.734375
 20
-5108.00390625
 10
689.73046875
 20
-5108.00390625
 10
699.7265625
 20
-5108.00390625
 10
709.72265625
 20
-5108.00390625
 10
719.71875
 20
-5108.00390625
 10
729.71484375
 20
-5108.00390625
 10
739.7109375
 20
-5108.00390625
 10
749.70703125
 20
-5108.00390625
 10
759.703125
 20
-5108.00390625
 10
769.69921875
 20
-5108.00390625
 10
779.6953125
 20
-5108.00390625
 10
789.69140625
 20
-5108.00390625
 10
799.6875
 20
-5108.00390625
 10
809.68359375
 20
-5108.00390625
 10
819.6796875
 20
-5108.00390625
 10
829.67578125
 20
-5108.00390625
 10
839.671875
 20
-5108.00390625
 10
849.66796875
 20
-5108.00390625
 10
859.6640625
 20
-5108.00390625
 10
869.66015625
 20
-5108.00390625
 10
879.65625
 20
-5108.00390625
 10
889.65234375
 20
-5108.00390625
 10
899.6484375
 20
-5108.00390625
 10
909.64453125
 20
-5108.00390625
 10
919.640625
 20
-5108.00390625
 10
929.63671875
 20
-5108.00390625
 10
939.6328125
 20
-5108.00390625
 10
949.62890625
 20
-5108.00390625
 10
959.625
 20
-5108.00390625
 10
969.62109375
 20
-5108.00390625
 10
979.6171875
 20
-5108.00390625
 10
989.61328125
 20
-5108.00390625
 10
999.609375
 20
-5108.00390625
 10
1009.60546875
 20
-5108.00390625
 10
1019.6015625
 20
-5108.00390625
 10
1029.59765625
 20
-5108.00390625
 10
1039.59375
 20
-5108.00390625
 10
1049.58984375
 20
-5108.00390625
 10
1059.5859375
 20
-5108.00390625
 10
1069.58203125
 20
-5108.00390625
 10
1079.578125
 20
-5108.00390625
 10
1089.57421875
 20
-5108.00390625
 10
1099.5703125
 20
-5108.00390625
 10
1109.56640625
 20
-5108.00390625
 10
1119.5625
 20
-5108.00390625
 10
1129.55859375
 20
-5108.00390625
 10
1139.5546875
 20
-5108.00390625
 10
1149.55078125
 20
-5108.00390625
 10
1159.546875
 20
-5108.00390625
 10
1169.54296875
 20
-5108.00390625
 10
1179.5390625
 20
-5108.00390625
 10
1189.53515625
 20
-5108.00390625
 10
1199.53125
 20
-5108.00390625
 10
1209.52734375
 20
-5108.00390625
 10
1219.5234375
 20
-5108.00390625
 10
1229.51953125
 20
-5108.00390625
 10
1239.515625
 20
-5108.00390625
 10
1249.51171875
 20
-5108.00390625
 10
1259.5078125
 20
-5108.00390625
 10
1269.50390625
 20
-5108.00390625
 10
1279.5
 20
-5108.00390625
 10
1289.49609375
 20
-5108.00390625
 10
1299.4921875
 20
-5108.00390625
 10
1309.48828125
 20
-5108.00390625
 10
1319.484375
 20
-5108.00390625
 10
1329.48046875
 20
-5108.00390625
 10
1339.4765625
 20
-5108.00390625
 10
1349.47265625
 20
-5108.00390625
 10
1359.46875
 20
-5108.00390625
 10
1369.46484375
 20
-5108.00390625
 10
1379.4609375
 20
-5108.00390625
 10
1389.45703125
 20
-5108.00390625
 10
1399.453125
 20
-5108.00390625
 10
1409.44921875
 20
-5108.00390625
 10
1419.4453125
 20
-5108.00390625
 10
1429.44140625
 20
-5108.00390625
 10
1439.4375
 20
-5108.00390625
 10
1449.43359375
 20
-5108.00390625
 10
1459.4296875
 20
-5108.00390625
 10
1469.42578125
 20
-5108.00390625
 10
1479.421875
 20
-5108.00390625
 10
1489.41796875
 20
-5108.00390625
 10
1499.4140625
 20
-5108.00390625
 10
1509.41015625
 20
-5108.00390625
 10
1519.40625
 20
-5108.00390625
 10
1529.40234375
 20
-5108.00390625
 10
1539.3984375
 20
-5108.00390625
 10
1549.39453125
 20
-5108.00390625
 10
1559.390625
 20
-5108.00390625
 10
1569.38671875
 20
-5108.00390625
 10
1579.3828125
 20
-5108.00390625
 10
1589.37890625
 20
-5108.00390625
 10
1599.375
 20
-5108.00390625
 10
1609.37109375
 20
-5108.00390625
 10
1619.3671875
 20
-5108.00390625
 10
1629.36328125
 20
-5108.00390625
 10
1639.359375
 20
-5108.00390625
 10
1649.35546875
 20
-5108.00390625
 10
1659.3515625
 20
-5108.00390625
 10
1669.34765625
 20
-5108.00390625
 10
1679.34375
 20
-5108.00390625
 10
1689.33984375
 20
-5108.00390625
 10
1699.3359375
 20
-5108.00390625
 10
1709.33203125
 20
-5108.00390625
 10
1719.328125
 20
-5108.00390625
 10
1729.32421875
 20
-5108.00390625
 10
1739.3203125
 20
-5108.00390625
 10
1749.31640625
 20
-5108.00390625
 10
1759.3125
 20
-5108.00390625
 10
1769.30859375
 20
-5108.00390625
 10
1779.3046875
 20
-5108.00390625
 10
1789.30078125
 20
-5108.00390625
 10
1799.296875
 20
-5108.00390625
 10
1809.29296875
 20
-5108.00390625
 10
1819.2890625
 20
-5108.00390625
 10
1829.28515625
 20
-5108.00390625
 10
1839.28125
 20
-5108.00390625
 10
1849.27734375
 20
-5108.00390625
 10
1859.2734375
 20
-5108.00390625
 10
1869.26953125
 20
-5108.00390625
 10
1879.265625
 20
-5108.00390625
 10
1889.26171875
 20
-5108.00390625
 10
1899.2578125
 20
-5108.00390625
 10
1909.25390625
 20
-5108.00390625
 10
1919.25
 20
-5108.00390625
 10
1929.24609375
 20
-5108.00390625
 10
1939.2421875
 20
-5108.00390625
 10
1949.23828125
 20
-5108.00390625
 10
1959.234375
 20
-5108.00390625
 10
1969.23046875
 20
-5108.00390625
 10
1979.2265625
 20
-5108.00390625
 10
1989.22265625
 20
-5108.00390625
 10
1999.21875
 20
-5108.00390625
 10
2009.21484375
 20
-5108.00390625
 10
2019.2109375
 20
-5108.00390625
 10
2029.20703125
 20
-5108.00390625
 10
2039.203125
 20
-5108.00390625
 10
2049.19921875
 20
-5108.00390625
 10
2059.1953125
 20
-5108.00390625
 10
2069.19140625
 20
-5108.00390625
 10
2079.1875
 20
-5108.00390625
 10
2089.18359375
 20
-5108.00390625
 10
2099.1796875
 20
-5108.00390625
 10
2109.17578125
 20
-5108.00390625
 10
2119.171875
 20
-5108.00390625
 10
2129.16796875
 20
-5108.00390625
 10
2139.1640625
 20
-5108.00390625
 10
2149.16015625
 20
-5108.00390625
 10
2159.15625
 20
-5108.00390625
 10
2169.15234375
 20
-5108.00390625
 10
2179.1484375
 20
-5108.00390625
 10
2189.14453125
 20
-5108.00390625
 10
2199.140625
 20
-5108.00390625
 10
2209.13671875
 20
-5108.00390625
 10
2219.1328125
 20
-5108.00390625
 10
2229.12890625
 20
-5108.00390625
 10
2239.125
 20
-5108.00390625
 10
2249.12109375
 20
-5108.00390625
 10
2259.1171875
 20
-5108.00390625
 10
2269.11328125
 20
-5108.00390625
 10
2279.109375
 20
-5108.00390625
 10
2289.10546875
 20
-5108.00390625
 10
2299.1015625
 20
-5108.00390625
 10
2309.09765625
 20
-5108.00390625
 10
2319.09375
 20
-5108.00390625
 10
2329.08984375
 20
-5108.00390625
 10
2339.0859375
 20
-5108.00390625
 10
2349.08203125
 20
-5108.00390625
 10
2359.078125
 20
-5108.00390625
 10
2369.07421875
 20
-5108.00390625
 10
2379.0703125
 20
-5108.00390625
 10
2389.06640625
 20
-5108.00390625
 10
2399.0625
 20
-5108.00390625
 10
2409.05859375
 20
-5108.00390625
 10
2419.0546875
 20
-5108.00390625
 10
2429.05078125
 20
-5108.00390625
 10
2439.046875
 20
-5108.00390625
 10
2449.04296875
 20
-5108.00390625
 10
2459.0390625
 20
-5108.00390625
 10
2469.03515625
 20
-5108.00390625
 10
2479.03125
 20
-5108.00390625
 10
2489.02734375
 20
-5108.00390625
 10
2499.0234375
 20
-5108.00390625
 10
2509.01953125
 20
-5108.00390625
 10
2519.015625
 20
-5108.00390625
 10
2529.01171875
 20
-5108.00390625
 10
2539.0078125
 20
-5108.00390625
 10
2549.00390625
 20
-5108.00390625
 10
2559.0
 20
-5108.00390625
 10
2568.99609375
 20
-5108.00390625
 10
2578.9921875
 20
-5108.00390625
 10
2588.98828125
 20
-5108.00390625
 10
2598.984375
 20
-5108.00390625
 10
2608.98046875
 20
-5108.00390625
 10
2618.9765625
 20
-5108.00390625
 10
2628.97265625
 20
-5108.00390625
 10
2638.96875
 20
-5108.00390625
 10
2648.96484375
 20
-5108.00390625
 10
2658.9609375
 20
-5108.00390625
 10
2668.95703125
 20
-5108.00390625
 10
2678.953125
 20
-5108.00390625
 10
2688.94921875
 20
-5108.00390625
 10
2698.9453125
 20
-5108.00390625
 10
2708.94140625
 20
-5108.00390625
 10
2718.9375
 20
-5108.00390625
 10
2728.93359375
 20
-5108.00390625
 10
2738.9296875
 20
-5108.00390625
 10
2748.92578125
 20
-5108.00390625
 10
2758.921875
 20
-5108.00390625
 10
2768.91796875
 20
-5108.00390625
 10
2778.9140625
 20
-5108.00390625
 10
2788.91015625
 20
-5108.00390625
 10
2798.90625
 20
-5108.00390625
 10
2808.90234375
 20
-5108.00390625
 10
2818.8984375
 20
-5108.00390625
 10
2828.89453125
 20
-5108.00390625
 10
2838.890625
 20
-5108.00390625
 10
2848.88671875
 20
-5108.00390625
 10
2858.8828125
 20
-5108.00390625
 10
2868.87890625
 20
-5108.00390625
 10
2878.875
 20
-5108.00390625
 10
2888.87109375
 20
-5108.00390625
 10
2898.8671875
 20
-5108.00390625
 10
2908.86328125
 20
-5108.00390625
 10
2918.859375
 20
-5108.00390625
 10
2928.85546875
 20
-5108.00390625
 10
2938.8515625
 20
-5108.00390625
 10
2948.84765625
 20
-5108.00390625
 10
2958.84375
 20
-5108.00390625
 10
2968.83984375
 20
-5108.00390625
 10
2978.8359375
 20
-5108.00390625
 10
2988.83203125
 20
-5108.00390625
 10
2998.828125
 20
-5108.00390625
 10
3008.82421875
 20
-5108.00390625
 10
3018.8203125
 20
-5108.00390625
 10
3028.81640625
 20
-5108.00390625
 10
3038.8125
 20
-5108.00390625
 10
3048.80859375
 20
-5108.00390625
 10
3058.8046875
 20
-5108.00390625
 10
3068.80078125
 20
-5108.00390625
 10
3078.796875
 20
-5108.00390625
 10
3088.79296875
 20
-5108.00390625
 10
3098.7890625
 20
-5108.00390625
 10
3108.78515625
 20
-5108.00390625
 10
3118.78125
 20
-5108.00390625
 10
3128.77734375
 20
-5108.00390625
 10
3138.7734375
 20
-5108.00390625
 10
3148.76953125
 20
-5108.00390625
 10
3158.765625
 20
-5108.00390625
 10
3168.76171875
 20
-5108.00390625
 10
3178.7578125
 20
-5108.00390625
 10
3188.75390625
 20
-5108.00390625
 10
3198.75
 20
-5108.00390625
 10
3208.74609375
 20
-5108.00390625
 10
3218.7421875
 20
-5108.00390625
 10
3228.73828125
 20
-5108.00390625
 10
3238.734375
 20
-5108.00390625
 10
3248.73046875
 20
-5108.00390625
 10
3258.7265625
 20
-5108.00390625
 10
3268.72265625
 20
-5108.00390625
 10
3278.71875
 20
-5108.00390625
 10
3288.71484375
 20
-5108.00390625
 10
3298.7109375
 20
-5108.00390625
 10
3308.70703125
 20
-5108.00390625
 10
3318.703125
 20
-5108.00390625
 10
3328.69921875
 20
-5108.00390625
 10
3338.6953125
 20
-5108.00390625
 10
3348.69140625
 20
-5108.00390625
 10
3358.6875
 20
-5108.00390625
 10
3368.68359375
 20
-5108.00390625
 10
3378.6796875
 20
-5108.00390625
 10
3388.67578125
 20
-5108.00390625
 10
3398.671875
 20
-5108.00390625
 10
3408.66796875
 20
-5108.00390625
 10
3418.6640625
 20
-5108.00390625
 10
3428.66015625
 20
-5108.00390625
 10
3438.65625
 20
-5108.00390625
 10
3448.65234375
 20
-5108.00390625
 10
3458.6484375
 20
-5108.00390625
 10
3468.64453125
 20
-5108.00390625
 10
3478.640625
 20
-5108.00390625
 10
3488.63671875
 20
-5108.00390625
 10
3498.6328125
 20
-5108.00390625
 10
3508.62890625
 20
-5108.00390625
 10
3518.625
 20
-5108.00390625
 10
3528.62109375
 20
-5108.00390625
 10
3538.6171875
 20
-5108.00390625
 10
3548.61328125
 20
-5108.00390625
 10
3558.609375
 20
-5108.00390625
 10
3568.60546875
 20
-5108.00390625
 10
3578.6015625
 20
-5108.00390625
 10
3588.59765625
 20
-5108.00390625
 10
3598.59375
 20
-5108.00390625
 10
3608.58984375
 20
-5108.00390625
 10
3618.5859375
 20
-5108.00390625
 10
3628.58203125
 20
-5108.00390625
 10
3638.578125
 20
-5108.00390625
 10
3648.57421875
 20
-5108.00390625
 10
3658.5703125
 20
-5108.00390625
 10
3668.56640625
 20
-5108.00390625
 10
3678.5625
 20
-5108.00390625
 10
3688.55859375
 20
-5108.00390625
 10
3698.5546875
 20
-5108.00390625
 10
3708.55078125
 20
-5108.00390625
 10
3718.546875
 20
-5108.00390625
 10
3728.54296875
 20
-5108.00390625
 10
3738.5390625
 20
-5108.00390625
 10
3748.53515625
 20
-5108.00390625
 10
3758.53125
 20
-5108.00390625
 10
3768.52734375
 20
-5108.00390625
 10
3778.5234375
 20
-5108.00390625
 10
3788.51953125
 20
-5108.00390625
 10
3798.515625
 20
-5108.00390625
 10
3808.51171875
 20
-5108.00390625
 10
3818.5078125
 20
-5108.00390625
 10
3828.50390625
 20
-5108.00390625
 10
3838.5
 20
-5108.00390625
 10
3848.49609375
 20
-5108.00390625
 10
3858.4921875
 20
-5108.00390625
 10
3868.48828125
 20
-5108.00390625
 10
3878.484375
 20
-5108.00390625
 10
3888.48046875
 20
-5108.00390625
 10
3898.4765625
 20
-5108.00390625
 10
3908.47265625
 20
-5108.00390625
 10
3918.46875
 20
-5108.00390625
 10
3928.46484375
 20
-5108.00390625
 10
3938.4609375
 20
-5108.00390625
 10
3948.45703125
 20
-5108.00390625
 10
3958.453125
 20
-5108.00390625
 10
3968.44921875
 20
-5108.00390625
 10
3978.4453125
 20
-5108.00390625
 10
3988.44140625
 20
-5108.00390625
 10
3998.4375
 20
-5108.00390625
 10
4008.43359375
 20
-5108.00390625
 10
4018.4296875
 20
-5108.00390625
 10
4028.42578125
 20
-5108.00390625
 10
4038.421875
 20
-5108.00390625
 10
4048.41796875
 20
-5108.00390625
 10
4058.4140625
 20
-5108.00390625
 10
4068.41015625
 20
-5108.00390625
 10
4078.40625
 20
-5108.00390625
 10
4088.40234375
 20
-5108.00390625
 10
4098.3984375
 20
-5108.00390625
 10
4108.39453125
 20
-5108.00390625
 10
4118.390625
 20
-5108.00390625
 10
4128.38671875
 20
-5108.00390625
 10
4138.3828125
 20
-5108.00390625
 10
4148.37890625
 20
-5108.00390625
 10
4158.375
 20
-5108.00390625
 10
4168.37109375
 20
-5108.00390625
 10
4178.3671875
 20
-5108.00390625
 10
4188.36328125
 20
-5108.00390625
 10
4198.359375
 20
-5108.00390625
 10
4208.35546875
 20
-5108.00390625
 10
4218.3515625
 20
-5108.00390625
 10
4228.34765625
 20
-5108.00390625
 10
4238.34375
 20
-5108.00390625
 10
4248.33984375
 20
-5108.00390625
 10
4258.3359375
 20
-5108.00390625
 10
4268.33203125
 20
-5108.00390625
 10
4278.328125
 20
-5108.00390625
 10
4288.32421875
 20
-5108.00390625
 10
4298.3203125
 20
-5108.00390625
 10
4308.31640625
 20
-5108.00390625
 10
4318.3125
 20
-5108.00390625
 10
4328.30859375
 20
-5108.00390625
 10
4338.3046875
 20
-5108.00390625
 10
4348.30078125
 20
-5108.00390625
 10
4358.296875
 20
-5108.00390625
 10
4368.29296875
 20
-5108.00390625
 10
4378.2890625
 20
-5108.00390625
 10
4388.28515625
 20
-5108.00390625
 10
4398.28125
 20
-5108.00390625
 10
4408.27734375
 20
-5108.00390625
 10
4418.2734375
 20
-5108.00390625
 10
4428.26953125
 20
-5108.00390625
 10
4438.265625
 20
-5108.00390625
 10
4448.26171875
 20
-5108.00390625
 10
4458.2578125
 20
-5108.00390625
 10
4468.25390625
 20
-5108.00390625
 10
4478.25
 20
-5108.00390625
 10
4488.24609375
 20
-5108.00390625
 10
4498.2421875
 20
-5108.00390625
 10
4508.23828125
 20
-5108.00390625
 10
4518.234375
 20
-5108.00390625
 10
4528.23046875
 20
-5108.00390625
 10
4538.2265625
 20
-5108.00390625
 10
4548.22265625
 20
-5108.00390625
 10
4558.21875
 20
-5108.00390625
 10
4568.21484375
 20
-5108.00390625
 10
4578.2109375
 20
-5108.00390625
 10
4588.20703125
 20
-5108.00390625
 10
4598.203125
 20
-5108.00390625
 10
4608.19921875
 20
-5108.00390625
 10
4618.1953125
 20
-5108.00390625
 10
4628.19140625
 20
-5108.00390625
 10
4638.1875
 20
-5108.00390625
 10
4648.18359375
 20
-5108.00390625
 10
4658.1796875
 20
-5108.00390625
 10
4668.17578125
 20
-5108.00390625
 10
4678.171875
 20
-5108.00390625
 10
4688.16796875
 20
-5108.00390625
 10
4698.1640625
 20
-5108.00390625
 10
4708.16015625
 20
-5108.00390625
 10
4718.15625
 20
-5108.00390625
 10
4728.15234375
 20
-5108.00390625
 10
4738.1484375
 20
-5108.00390625
 10
4748.14453125
 20
-5108.00390625
 10
4758.140625
 20
-5108.00390625
 10
4768.13671875
 20
-5108.00390625
 10
4778.1328125
 20
-5108.00390625
 10
4788.12890625
 20
-5108.00390625
 10
4798.125
 20
-5108.00390625
 10
4808.12109375
 20
-5108.00390625
 10
4818.1171875
 20
-5108.00390625
 10
4828.11328125
 20
-5108.00390625
 10
4838.109375
 20
-5108.00390625
 10
4848.10546875
 20
-5108.00390625
 10
4858.1015625
 20
-5108.00390625
 10
4868.09765625
 20
-5108.00390625
 10
4878.09375
 20
-5108.00390625
 10
4888.08984375
 20
-5108.00390625
 10
4898.0859375
 20
-5108.00390625
 10
4908.08203125
 20
-5108.00390625
 10
4918.078125
 20
-5108.00390625
 10
4928.07421875
 20
-5108.00390625
 10
4938.0703125
 20
-5108.00390625
 10
4948.06640625
 20
-5108.00390625
 10
4958.0625
 20
-5108.00390625
 10
4968.05859375
 20
-5108.00390625
 10
4978.0546875
 20
-5108.00390625
 10
4988.05078125
 20
-5108.00390625
 10
4998.046875
 20
-5108.00390625
 10
5008.04296875
 20
-5108.00390625
 10
5018.0390625
 20
-5108.00390625
 10
5028.03515625
 20
-5108.00390625
 10
5038.03125
 20
-5108.00390625
 10
5048.02734375
 20
-5108.00390625
 10
5058.0234375
 20
-5108.00390625
 10
5068.01953125
 20
-5108.00390625
 10
5078.015625
 20
-5108.00390625
 10
5088.01171875
 20
-5108.00390625
 10
5098.0078125
 20
-5108.00390625
 10
5108.00390625
 20
-5108.00390625
 10
5108.00390625
 20
-5098.0078125
 10
5108.00390625
 20
-5088.01171875
 10
5108.00390625
 20
-5078.015625
 10
5108.00390625
 20
-5068.01953125
 10
5108.00390625
 20
-5058.0234375
 10
5108.00390625
 20
-5048.02734375
 10
5108.00390625
 20
-5038.03125
 10
5108.00390625
 20
-5028.03515625
 10
5108.00390625
 20
-5018.0390625
 10
5108.00390625
 20
-5008.04296875
 10
5108.00390625
 20
-4998.046875
 10
5108.00390625
 20
-4988.05078125
 10
5108.00390625
 20
-4978.0546875
 10
5108.00390625
 20
-4968.05859375
 10
5108.00390625
 20
-4958.0625
 10
5108.00390625
 20
-4948.06640625
 10
5108.00390625
 20
-4938.0703125
 10
5108.00390625
 20
-4928.07421875
 10
5108.00390625
 20
-4918.078125
 10
5108.00390625
 20
-4908.08203125
 10
5108.00390625
 20
-4898.0859375
 10
5108.00390625
 20
-4888.08984375
 10
5108.00390625
 20
-4878.09375
 10
5108.00390625
 20
-4868.09765625
 10
5108.00390625
 20
-4858.1015625
 10
5108.00390625
 20
-4848.10546875
 10
5108.00390625
 20
-4838.109375
 10
5108.00390625
 20
-4828.11328125
 10
5108.00390625
 20
-4818.1171875
 10
5108.00390625
 20
-4808.12109375
 10
5108.00390625
 20
-4798.125
 10
5108.00390625
 20
-4788.12890625
 10
5108.00390625
 20
-4778.1328125
 10
5108.00390625
 20
-4768.13671875
 10
5108.00390625
 20
-4758.140625
 10
5108.00390625
 20
-4748.14453125
 10
5108.00390625
 20
-4738.1484375
 10
5108.00390625
 20
-4728.15234375
 10
5108.00390625
 20
-4718.15625
 10
5108.00390625
 20
-4708.16015625
 10
5108.00390625
 20
-4698.1640625
 10
5108.00390625
 20
-4688.16796875
 10
5108.00390625
 20
-4678.171875
 10
5108.00390625
 20
-4668.17578125
 10
5108.00390625
 20
-4658.1796875
 10
5108.00390625
 20
-4648.18359375
 10
5108.00390625
 20
-4638.1875
 10
5108.00390625
 20
-4628.19140625
 10
5108.00390625
 20
-4618.1953125
 10
5108.00390625
 20
-4608.19921875
 10
5108.00390625
 20
-4598.203125
 10
5108.00390625
 20
-4588.20703125
 10
5108.00390625
 20
-4578.2109375
 10
5108.00390625
 20
-4568.21484375
 10
5108.00390625
 20
-4558.21875
 10
5108.00390625
 20
-4548.22265625
 10
5108.00390625
 20
-4538.2265625
 10
5108.00390625
 20
-4528.23046875
 10
5108.00390625
 20
-4518.234375
 10
5108.00390625
 20
-4508.23828125
 10
5108.00390625
 20
-4498.2421875
 10
5108.00390625
 20
-4488.24609375
 10
5108.00390625
 20
-4478.25
 10
5108.00390625
 20
-4468.25390625
 10
5108.00390625
 20
-4458.2578125
 10
5108.00390625
 20
-4448.26171875
 10
5108.00390625
 20
-4438.265625
 10
5108.00390625
 20
-4428.26953125
 10
5108.00390625
 20
-4418.2734375
 10
5108.00390625
 20
-4408.27734375
 10
5108.00390625
 20
-4398.28125
 10
5108.00390625
 20
-4388.28515625
 10
5108.00390625
 20
-4378.2890625
 10
5108.00390625
 20
-4368.29296875
 10
5108.00390625
 20
-4358.296875
 10
5108.00390625
 20
-4348.30078125
 10
5108.00390625
 20
-4338.3046875
 10
5108.00390625
 20
-4328.30859375
 10
5108.00390625
 20
-4318.3125
 10
5108.00390625
 20
-4308.31640625
 10
5108.00390625
 20
-4298.3203125
 10
5108.00390625
 20
-4288.32421875
 10
5108.00390625
 20
-4278.328125
 10
5108.00390625
 20
-4268.33203125
 10
5108.00390625
 20
-4258.3359375
 10
5108.00390625
 20
-4248.33984375
 10
5108.00390625
 20
-4238.34375
 10
5108.00390625
 20
-4228.34765625
 10
5108.00390625
 20
-4218.3515625
 10
5108.00390625
 20
-4208.35546875
 10
5108.00390625
 20
-4198.359375
 10
5108.00390625
 20
-4188.36328125
 10
5108.00390625
 20
-4178.3671875
 10
5108.00390625
 20
-4168.37109375
 10
5108.00390625
 20
-4158.375
 10
5108.00390625
 20
-4148.37890625
 10
5108.00390625
 20
-4138.3828125
 10
5108.00390625
 20
-4128.38671875
 10
5108.00390625
 20
-4118.390625
 10
5108.00390625
 20
-4108.39453125
 10
5108.00390625
 20
-4098.3984375
 10
5108.00390625
 20
-4088.40234375
 10
5108.00390625
 20
-4078.40625
 10
5108.00390625
 20
-4068.41015625
 10
5108.00390625
 20
-4058.4140625
 10
5108.00390625
 20
-4048.41796875
 10
5108.00390625
 20
-4038.421875
 10
5108.00390625
 20
-4028.42578125
 10
5108.00390625
 20
-4018.4296875
 10
5108.00390625
 20
-4008.43359375
 10
5108.00390625
 20
-3998.4375
 10
5108.00390625
 20
-3988.44140625
 10
5108.00390625
 20
-3978.4453125
 10
5108.00390625
 20
-3968.44921875
 10
5108.00390625
 20
-3958.453125
 10
5108.00390625
 20
-3948.45703125
 10
5108.00390625
 20
-3938.4609375
 10
5108.00390625
 20
-3928.46484375
 10
5108.00390625
 20
-3918.46875
 10
5108.00390625
 20
-3908.47265625
 10
5108.00390625
 20
-3898.4765625
 10
5108.00390625
 20
-3888.48046875
 10
5108.00390625
 20
-3878.484375
 10
5108.00390625
 20
-3868.48828125
 10
5108.00390625
 20
-3858.4921875
 10
5108.00390625
 20
-3848.49609375
 10
5108.00390625
 20
-3838.5
 10
5108.00390625
 20
-3828.50390625
 10
5108.00390625
 20
-3818.5078125
 10
5108.00390625
 20
-3808.51171875
 10
5108.00390625
 20
-3798.515625
 10
5108.00390625
 20
-3788.51953125
 10
5108.00390625
 20
-3778.5234375
 10
5108.00390625
 20
-3768.52734375
 10
5108.00390625
 20
-3758.53125
 10
5108.00390625
 20
-3748.53515625
 10
5108.00390625
 20
-3738.5390625
 10
5108.00390625
 20
-3728.54296875
 10
5108.00390625
 20
-3718.546875
 10
5108.00390625
 20
-3708.55078125
 10
5108.00390625
 20
-3698.5546875
 10
5108.00390625
 20
-3688.55859375
 10
5108.00390625
 20
-3678.5625
 10
5108.00390625
 20
-3668.56640625
 10
5108.00390625
 20
-3658.5703125
 10
5108.00390625
 20
-3648.57421875
 10
5108.00390625
 20
-3638.578125
 10
5108.00390625
 20
-3628.58203125
 10
5108.00390625
 20
-3618.5859375
 10
5108.00390625
 20
-3608.58984375
 10
5108.00390625
 20
-3598.59375
 10
5108.00390625
 20
-3588.59765625
 10
5108.00390625
 20
-3578.6015625
 10
5108.00390625
 20
-3568.60546875
 10
5108.00390625
 20
-3558.609375
 10
5108.00390625
 20
-3548.61328125
 10
5108.00390625
 20
-3538.6171875
 10
5108.00390625
 20
-3528.62109375
 10
5108.00390625
 20
-3518.625
 10
5108.00390625
 20
-3508.62890625
 10
5108.00390625
 20
-3498.6328125
 10
5108.00390625
 20
-3488.63671875
 10
5108.00390625
 20
-3478.640625
 10
5108.00390625
 20
-3468.64453125
 10
5108.00390625
 20
-3458.6484375
 10
5108.00390625
 20
-3448.65234375
 10
5108.00390625
 20
-3438.65625
 10
5108.00390625
 20
-3428.66015625
 10
5108.00390625
 20
-3418.6640625
 10
5108.00390625
 20
-3408.66796875
 10
5108.00390625
 20
-3398.671875
 10
5108.00390625
 20
-3388.67578125
 10
5108.00390625
 20
-3378.6796875
 10
5108.00390625
 20
-3368.68359375
 10
5108.00390625
 20
-3358.6875
 10
5108.00390625
 20
-3348.69140625
 10
5108.00390625
 20
-3338.6953125
 10
5108.00390625
 20
-3328.69921875
 10
5108.00390625
 20
-3318.703125
 10
5108.00390625
 20
-3308.70703125
 10
5108.00390625
 20
-3298.7109375
 10
5108.00390625
 20
-3288.71484375
 10
5108.00390625
 20
-3278.71875
 10
5108.00390625
 20
-3268.72265625
 10
5108.00390625
 20
-3258.7265625
 10
5108.00390625
 20
-3248.73046875
 10
5108.00390625
 20
-3238.734375
 10
5108.00390625
 20
-3228.73828125
 10
5108.00390625
 20
-3218.7421875
 10
5108.00390625
 20
-3208.74609375
 10
5108.00390625
 20
-3198.75
 10
5108.00390625
 20
-3188.75390625
 10
5108.00390625
 20
-3178.7578125
 10
5108.00390625
 20
-3168.76171875
 10
5108.00390625
 20
-3158.765625
 10
5108.00390625
 20
-3148.76953125
 10
5108.00390625
 20
-3138.7734375
 10
5108.00390625
 20
-3128.77734375
 10
5108.00390625
 20
-3118.78125
 10
5108.00390625
 20
-3108.78515625
 10
5108.00390625
 20
-3098.7890625
 10
5108.00390625
 20
-3088.79296875
 10
5108.00390625
 20
-3078.796875
 10
5108.00390625
 20
-3068.80078125
 10
5108.00390625
 20
-3058.8046875
 10
5108.00390625
 20
-3048.80859375
 10
5108.00390625
 20
-3038.8125
 10
5108.00390625
 20
-3028.81640625
 10
5108.00390625
 20
-3018.8203125
 10
5108.00390625
 20
-3008.82421875
 10
5108.00390625
 20
-2998.828125
 10
5108.00390625
 20
-2988.83203125
 10
5108.00390625
 20
-2978.8359375
 10
5108.00390625
 20
-2968.83984375
 10
5108.00390625
 20
-2958.84375
 10
5108.00390625
 20
-2948.84765625
 10
5108.00390625
 20
-2938.8515625
 10
5108.00390625
 20
-2928.85546875
 10
5108.00390625
 20
-2918.859375
 10
5108.00390625
 20
-2908.86328125
 10
5108.00390625
 20
-2898.8671875
 10
5108.00390625
 20
-2888.87109375
 10
5108.00390625
 20
-2878.875
 10
5108.00390625
 20
-2868.87890625
 10
5108.00390625
 20
-2858.8828125
 10
5108.00390625
 20
-2848.88671875
 10
5108.00390625
 20
-2838.890625
 10
5108.00390625
 20
-2828.89453125
 10
5108.00390625
 20
-2818.8984375
 10
5108.00390625
 20
-2808.90234375
 10
5108.00390625
 20
-2798.90625
 10
5108.00390625
 20
-2788.91015625
 10
5108.00390625
 20
-2778.9140625
 10
5108.00390625
 20
-2768.91796875
 10
5108.00390625
 20
-2758.921875
 10
5108.00390625
 20
-2748.92578125
 10
5108.00390625
 20
-2738.9296875
 10
5108.00390625
 20
-2728.93359375
 10
5108.00390625
 20
-2718.9375
 10
5108.00390625
 20
-2708.94140625
 10
5108.00390625
 20
-2698.9453125
 10
5108.00390625
 20
-2688.94921875
 10
5108.00390625
 20
-2678.953125
 10
5108.00390625
 20
-2668.95703125
 10
5108.00390625
 20
-2658.9609375
 10
5108.00390625
 20
-2648.96484375
 10
5108.00390625
 20
-2638.96875
 10
5108.00390625
 20
-2628.97265625
 10
5108.00390625
 20
-2618.9765625
 10
5108.00390625
 20
-2608.98046875
 10
5108.00390625
 20
-2598.984375
 10
5108.00390625
 20
-2588.98828125
 10
5108.00390625
 20
-2578.9921875
 10
5108.00390625
 20
-2568.99609375
 10
5108.00390625
 20
-2559.0
 10
5108.00390625
 20
-2549.00390625
 10
5108.00390625
 20
-2539.0078125
 10
5108.00390625
 20
-2529.01171875
 10
5108.00390625
 20
-2519.015625
 10
5108.00390625
 20
-2509.01953125
 10
5108.00390625
 20
-2499.0234375
 10
5108.00390625
 20
-2489.02734375
 10
5108.00390625
 20
-2479.03125
 10
5108.00390625
 20
-2469.03515625
 10
5108.00390625
 20
-2459.0390625
 10
5108.00390625
 20
-2449.04296875
 10
5108.00390625
 20
-2439.046875
 10
5108.00390625
 20
-2429.05078125
 10
5108.00390625
 20
-2419.0546875
 10
5108.00390625
 20
-2409.05859375
 10
5108.00390625
 20
-2399.0625
 10
5108.00390625
 20
-2389.06640625
 10
5108.00390625
 20
-2379.0703125
 10
5108.00390625
 20
-2369.07421875
 10
5108.00390625
 20
-2359.078125
 10
5108.00390625
 20
-2349.08203125
 10
5108.00390625
 20
-2339.0859375
 10
5108.00390625
 20
-2329.08984375
 10
5108.00390625
 20
-2319.09375
 10
5108.00390625
 20
-2309.09765625
 10
5108.00390625
 20
-2299.1015625
 10
5108.00390625
 20
-2289.10546875
 10
5108.00390625
 20
-2279.109375
 10
5108.00390625
 20
-2269.11328125
 10
5108.00390625
 20
-2259.1171875
 10
5108.00390625
 20
-2249.12109375
 10
5108.00390625
 20
-2239.125
 10
5108.00390625
 20
-2229.12890625
 10
5108.00390625
 20
-2219.1328125
 10
5108.00390625
 20
-2209.13671875
 10
5108.00390625
 20
-2199.140625
 10
5108.00390625
 20
-2189.14453125
 10
5108.00390625
 20
-2179.1484375
 10
5108.00390625
 20
-2169.15234375
 10
5108.00390625
 20
-2159.15625
 10
5108.00390625
 20
-2149.16015625
 10
5108.00390625
 20
-2139.1640625
 10
5108.00390625
 20
-2129.16796875
 10
5108.00390625
 20
-2119.171875
 10
5108.00390625
 20
-2109.17578125
 10
5108.00390625
 20
-2099.1796875
 10
5108.00390625
 20
-2089.18359375
 10
5108.00390625
 20
-2079.1875
 10
5108.00390625
 20
-2069.19140625
 10
5108.00390625
 20
-2059.1953125
 10
5108.00390625
 20
-2049.19921875
 10
5108.00390625
 20
-2039.203125
 10
5108.00390625
 20
-2029.20703125
 10
5108.00390625
 20
-2019.2109375
 10
5108.00390625
 20
-2009.21484375
 10
5108.00390625
 20
-1999.21875
 10
5108.00390625
 20
-1989.22265625
 10
5108.00390625
 20
-1979.2265625
 10
5108.00390625
 20
-1969.23046875
 10
5108.00390625
 20
-1959.234375
 10
5108.00390625
 20
-1949.23828125
 10
5108.00390625
 20
-1939.2421875
 10
5108.00390625
 20
-1929.24609375
 10
5108.00390625
 20
-1919.25
 10
5108.00390625
 20
-1909.25390625
 10
5108.00390625
 20
-1899.2578125
 10
5108.00390625
 20
-1889.26171875
 10
5108.00390625
 20
-1879.265625
 10
5108.00390625
 20
-1869.26953125
 10
5108.00390625
 20
-1859.2734375
 10
5108.00390625
 20
-1849.27734375
 10
5108.00390625
 20
-1839.28125
 10
5108.00390625
 20
-1829.28515625
 10
5108.00390625
 20
-1819.2890625
 10
5108.00390625
 20
-1809.29296875
 10
5108.00390625
 20
-1799.296875
 10
5108.00390625
 20
-1789.30078125
 10
5108.00390625
 20
-1779.3046875
 10
5108.00390625
 20
-1769.30859375
 10
5108.00390625
 20
-1759.3125
 10
5108.00390625
 20
-1749.31640625
 10
5108.00390625
 20
-1739.3203125
 10
5108.00390625
 20
-1729.32421875
 10
5108.00390625
 20
-1719.328125
 10
5108.00390625
 20
-1709.33203125
 10
5108.00390625
 20
-1699.3359375
 10
5108.00390625
 20
-1689.33984375
 10
5108.00390625
 20
-1679.34375
 10
5108.00390625
 20
-1669.34765625
 10
5108.00390625
 20
-1659.3515625
 10
5108.00390625
 20
-1649.35546875
 10
5108.00390625
 20
-1639.359375
 10
5108.00390625
 20
-1629.36328125
 10
5108.00390625
 20
-1619.3671875
 10
5108.00390625
 20
-1609.37109375
 10
5108.00390625
 20
-1599.375
 10
5108.00390625
 20
-1589.37890625
 10
5108.00390625
 20
-1579.3828125
 10
5108.00390625
 20
-1569.38671875
 10
5108.00390625
 20
-1559.390625
 10
5108.00390625
 20
-1549.39453125
 10
5108.00390625
 20
-1539.3984375
 10
5108.00390625
 20
-1529.40234375
 10
5108.00390625
 20
-1519.40625
 10
5108.00390625
 20
-1509.41015625
 10
5108.00390625
 20
-1499.4140625
 10
5108.00390625
 20
-1489.41796875
 10
5108.00390625
 20
-1479.421875
 10
5108.00390625
 20
-1469.42578125
 10
5108.00390625
 20
-1459.4296875
 10
5108.00390625
 20
-1449.43359375
 10
5108.00390625
 20
-1439.4375
 10
5108.00390625
 20
-1429.44140625
 10
5108.00390625
 20
-1419.4453125
 10
5108.00390625
 20
-1409.44921875
 10
5108.00390625
 20
-1399.453125
 10
5108.00390625
 20
-1389.45703125
 10
5108.00390625
 20
-1379.4609375
 10
5108.00390625
 20
-1369.46484375
 10
5108.00390625
 20
-1359.46875
 10
5108.00390625
 20
-1349.47265625
 10
5108.00390625
 20
-1339.4765625
 10
5108.00390625
 20
-1329.48046875
 10
5108.00390625
 20
-1319.484375
 10
5108.00390625
 20
-1309.48828125
 10
5108.00390625
 20
-1299.4921875
 10
5108.00390625
 20
-1289.49609375
 10
5108.00390625
 20
-1279.5
 10
5108.00390625
 20
-1269.50390625
 10
5108.00390625
 20
-1259.5078125
 10
5108.00390625
 20
-1249.51171875
 10
5108.00390625
 20
-1239.515625
 10
5108.00390625
 20
-1229.51953125
 10
5108.00390625
 20
-1219.5234375
 10
5108.00390625
 20
-1209.52734375
 10
5108.00390625
 20
-1199.53125
 10
5108.00390625
 20
-1189.53515625
 10
5108.00390625
 20
-1179.5390625
 10
5108.00390625
 20
-1169.54296875
 10
5108.00390625
 20
-1159.546875
 10
5108.00390625
 20
-1149.55078125
 10
5108.00390625
 20
-1139.5546875
 10
5108.00390625
 20
-1129.55859375
 10
5108.00390625
 20
-1119.5625
 10
5108.00390625
 20
-1109.56640625
 10
5108.00390625
 20
-1099.5703125
 10
5108.00390625
 20
-1089.57421875
 10
5108.00390625
 20
-1079.578125
 10
5108.00390625
 20
-1069.58203125
 10
5108.00390625
 20
-1059.5859375
 10
5108.00390625
 20
-1049.58984375
 10
5108.00390625
 20
-1039.59375
 10
5108.00390625
 20
-1029.59765625
 10
5108.00390625
 20
-1019.6015625
 10
5108.00390625
 20
-1009.60546875
 10
5108.00390625
 20
-999.609375
 10
5108.00390625
 20
-989.61328125
 10
5108.00390625
 20
-979.6171875
 10
5108.00390625
 20
-969.62109375
 10
5108.00390625
 20
-959.625
 10
5108.00390625
 20
-949.62890625
 10
5108.00390625
 20
-939.6328125
 10
5108.00390625
 20
-929.63671875
 10
5108.00390625
 20
-919.640625
 10
5108.00390625
 20
-909.64453125
 10
5108.00390625
 20
-899.6484375
 10
5108.00390625
 20
-889.65234375
 10
5108.00390625
 20
-879.65625
 10
5108.00390625
 20
-869.66015625
 10
5108.00390625
 20
-859.6640625
 10
5108.00390625
 20
-849.66796875
 10
5108.00390625
 20
-839.671875
 10
5108.00390625
 20
-829.67578125
 10
5108.00390625
 20
-819.6796875
 10
5108.00390625
 20
-809.68359375
 10
5108.00390625
 20
-799.6875
 10
5108.00390625
 20
-789.69140625
 10
5108.00390625
 20
-779.6953125
 10
5108.00390625
 20
-769.69921875
 10
5108.00390625
 20
-759.703125
 10
5108.00390625
 20
-749.70703125
 10
5108.00390625
 20
-739.7109375
 10
5108.00390625
 20
-729.71484375
 10
5108.00390625
 20
-719.71875
 10
5108.00390625
 20
-709.72265625
 10
5108.00390625
 20
-699.7265625
 10
5108.00390625
 20
-689.73046875
 10
5108.00390625
 20
-679.734375
 10
5108.00390625
 20
-669.73828125
 10
5108.00390625
 20
-659.7421875
 10
5108.00390625
 20
-649.74609375
 10
5108.00390625
 20
-639.75
 10
5108.00390625
 20
-629.75390625
 10
5108.00390625
 20
-619.7578125
 10
5108.00390625
 20
-609.76171875
 10
5108.00390625
 20
-599.765625
 10
5108.00390625
 20
-589.76953125
 10
5108.00390625
 20
-579.7734375
 10
5108.00390625
 20
-569.77734375
 10
5108.00390625
 20
-559.78125
 10
5108.00390625
 20
-549.78515625
 10
5108.00390625
 20
-539.7890625
 10
5108.00390625
 20
-529.79296875
 10
5108.00390625
 20
-519.796875
 10
5108.00390625
 20
-509.80078125
 10
5108.00390625
 20
-499.8046875
 10
5108.00390625
 20
-489.80859375
 10
5108.00390625
 20
-479.8125
 10
5108.00390625
 20
-469.81640625
 10
5108.00390625
 20
-459.8203125
 10
5108.00390625
 20
-449.82421875
 10
5108.00390625
 20
-439.828125
 10
5108.00390625
 20
-429.83203125
 10
5108.00390625
 20
-419.8359375
 10
5108.00390625
 20
-409.83984375
 10
5108.00390625
 20
-399.84375
 10
5108.00390625
 20
-389.84765625
 10
5108.00390625
 20
-379.8515625
 10
5108.00390625
 20
-369.85546875
 10
5108.00390625
 20
-359.859375
 10
5108.00390625
 20
-349.86328125
 10
5108.00390625
 20
-339.8671875
 10
5108.00390625
 20
-329.87109375
 10
5108.00390625
 20
-319.875
 10
5108.00390625
 20
-309.87890625
 10
5108.00390625
 20
-299.8828125
 10
5108.00390625
 20
-289.88671875
 10
5108.00390625
 20
-279.890625
 10
5108.00390625
 20
-269.89453125
 10
5108.00390625
 20
-259.8984375
 10
5108.00390625
 20
-249.90234375
 10
5108.00390625
 20
-239.90625
 10
5108.00390625
 20
-229.91015625
 10
5108.00390625
 20
-219.9140625
 10
5108.00390625
 20
-209.91796875
 10
5108.00390625
 20
-199.921875
 10
5108.00390625
 20
-189.92578125
 10
5108.00390625
 20
-179.9296875
 10
5108.00390625
 20
-169.93359375
 10
5108.00390625
 20
-159.9375
 10
5108.00390625
 20
-149.94140625
 10
5108.00390625
 20
-139.9453125
 10
5108.00390625
 20
-129.94921875
 10
5108.00390625
 20
-119.953125
 10
5108.00390625
 20
-109.95703125
 10
5108.00390625
 20
-99.9609375
 10
5108.00390625
 20
-89.96484375
 10
5108.00390625
 20
-79.96875
 10
5108.00390625
 20
-69.97265625
 10
5108.00390625
 20
-59.9765625
 10
5108.00390625
 20
-49.98046875
 10
5108.00390625
 20
-39.984375
 10
5108.00390625
 20
-29.98828125
 10
5108.00390625
 20
-19.9921875
 10
5108.00390625
 20
-9.99609375
 10
5108.00390625
 20
-0.0
 10
5098.0078125
 20
-0.0
 10
5088.01171875
 20
-0.0
 10
5078.015625
 20
-0.0
 10
5068.01953125
 20
-0.0
 10
5058.0234375
 20
-0.0
 10
5048.02734375
 20
-0.0
 10
5038.03125
 20
-0.0
 10
5028.03515625
 20
-0.0
 10
5018.0390625
 20
-0.0
 10
5008.04296875
 20
-0.0
 10
4998.046875
 20
-0.0
 10
4988.05078125
 20
-0.0
 10
4978.0546875
 20
-0.0
 10
4968.05859375
 20
-0.0
 10
4958.0625
 20
-0.0
 10
4948.06640625
 20
-0.0
 10
4938.0703125
 20
-0.0
 10
4928.07421875
 20
-0.0
 10
4918.078125
 20
-0.0
 10
4908.08203125
 20
-0.0
 10
4898.0859375
 20
-0.0
 10
4888.08984375
 20
-0.0
 10
4878.09375
 20
-0.0
 10
4868.09765625
 20
-0.0
 10
4858.1015625
 20
-0.0
 10
4848.10546875
 20
-0.0
 10
4838.109375
 20
-0.0
 10
4828.11328125
 20
-0.0
 10
4818.1171875
 20
-0.0
 10
4808.12109375
 20
-0.0
 10
4798.125
 20
-0.0
 10
4788.12890625
 20
-0.0
 10
4778.1328125
 20
-0.0
 10
4768.13671875
 20
-0.0
 10
4758.140625
 20
-0.0
 10
4748.14453125
 20
-0.0
 10
4738.1484375
 20
-0.0
 10
4728.15234375
 20
-0.0
 10
4718.15625
 20
-0.0
 10
4708.16015625
 20
-0.0
 10
4698.1640625
 20
-0.0
 10
4688.16796875
 20
-0.0
 10
4678.171875
 20
-0.0
 10
4668.17578125
 20
-0.0
 10
4658.1796875
 20
-0.0
 10
4648.18359375
 20
-0.0
 10
4638.1875
 20
-0.0
 10
4628.19140625
 20
-0.0
 10
4618.1953125
 20
-0.0
 10
4608.19921875
 20
-0.0
 10
4598.203125
 20
-0.0
 10
4588.20703125
 20
-0.0
 10
4578.2109375
 20
-0.0
 10
4568.21484375
 20
-0.0
 10
4558.21875
 20
-0.0
 10
4548.22265625
 20
-0.0
 10
4538.2265625
 20
-0.0
 10
4528.23046875
 20
-0.0
 10
4518.234375
 20
-0.0
 10
4508.23828125
 20
-0.0
 10
4498.2421875
 20
-0.0
 10
4488.24609375
 20
-0.0
 10
4478.25
 20
-0.0
 10
4468.25390625
 20
-0.0
 10
4458.2578125
 20
-0.0
 10
4448.26171875
 20
-0.0
 10
4438.265625
 20
-0.0
 10
4428.26953125
 20
-0.0
 10
4418.2734375
 20
-0.0
 10
4408.27734375
 20
-0.0
 10
4398.28125
 20
-0.0
 10
4388.28515625
 20
-0.0
 10
4378.2890625
 20
-0.0
 10
4368.29296875
 20
-0.0
 10
4358.296875
 20
-0.0
 10
4348.30078125
 20
-0.0
 10
4338.3046875
 20
-0.0
 10
4328.30859375
 20
-0.0
 10
4318.3125
 20
-0.0
 10
4308.31640625
 20
-0.0
 10
4298.3203125
 20
-0.0
 10
4288.32421875
 20
-0.0
 10
4278.328125
 20
-0.0
 10
4268.33203125
 20
-0.0
 10
4258.3359375
 20
-0.0
 10
4248.33984375
 20
-0.0
 10
4238.34375
 20
-0.0
 10
4228.34765625
 20
-0.0
 10
4218.3515625
 20
-0.0
 10
4208.35546875
 20
-0.0
 10
4198.359375
 20
-0.0
 10
4188.36328125
 20
-0.0
 10
4178.3671875
 20
-0.0
 10
4168.37109375
 20
-0.0
 10
4158.375
 20
-0.0
 10
4148.37890625
 20
-0.0
 10
4138.3828125
 20
-0.0
 10
4128.38671875
 20
-0.0
 10
4118.390625
 20
-0.0
 10
4108.39453125
 20
-0.0
 10
4098.3984375
 20
-0.0
 10
4088.40234375
 20
-0.0
 10
4078.40625
 20
-0.0
 10
4068.41015625
 20
-0.0
 10
4058.4140625
 20
-0.0
 10
4048.41796875
 20
-0.0
 10
4038.421875
 20
-0.0
 10
4028.42578125
 20
-0.0
 10
4018.4296875
 20
-0.0
 10
4008.43359375
 20
-0.0
 10
3998.4375
 20
-0.0
 10
3988.44140625
 20
-0.0
 10
3978.4453125
 20
-0.0
 10
3968.44921875
 20
-0.0
 10
3958.453125
 20
-0.0
 10
3948.45703125
 20
-0.0
 10
3938.4609375
 20
-0.0
 10
3928.46484375
 20
-0.0
 10
3918.46875
 20
-0.0
 10
3908.47265625
 20
-0.0
 10
3898.4765625
 20
-0.0
 10
3888.48046875
 20
-0.0
 10
3878.484375
 20
-0.0
 10
3868.48828125
 20
-0.0
 10
3858.4921875
 20
-0.0
 10
3848.49609375
 20
-0.0
 10
3838.5
 20
-0.0
 10
3828.50390625
 20
-0.0
 10
3818.5078125
 20
-0.0
 10
3808.51171875
 20
-0.0
 10
3798.515625
 20
-0.0
 10
3788.51953125
 20
-0.0
 10
3778.5234375
 20
-0.0
 10
3768.52734375
 20
-0.0
 10
3758.53125
 20
-0.0
 10
3748.53515625
 20
-0.0
 10
3738.5390625
 20
-0.0
 10
3728.54296875
 20
-0.0
 10
3718.546875
 20
-0.0
 10
3708.55078125
 20
-0.0
 10
3698.5546875
 20
-0.0
 10
3688.55859375
 20
-0.0
 10
3678.5625
 20
-0.0
 10
3668.56640625
 20
-0.0
 10
3658.5703125
 20
-0.0
 10
3648.57421875
 20
-0.0
 10
3638.578125
 20
-0.0
 10
3628.58203125
 20
-0.0
 10
3618.5859375
 20
-0.0
 10
3608.58984375
 20
-0.0
 10
3598.59375
 20
-0.0
 10
3588.59765625
 20
-0.0
 10
3578.6015625
 20
-0.0
 10
3568.60546875
 20
-0.0
 10
3558.609375
 20
-0.0
 10
3548.61328125
 20
-0.0
 10
3538.6171875
 20
-0.0
 10
3528.62109375
 20
-0.0
 10
3518.625
 20
-0.0
 10
3508.62890625
 20
-0.0
 10
3498.6328125
 20
-0.0
 10
3488.63671875
 20
-0.0
 10
3478.640625
 20
-0.0
 10
3468.64453125
 20
-0.0
 10
3458.6484375
 20
-0.0
 10
3448.65234375
 20
-0.0
 10
3438.65625
 20
-0.0
 10
3428.66015625
 20
-0.0
 10
3418.6640625
 20
-0.0
 10
3408.66796875
 20
-0.0
 10
3398.671875
 20
-0.0
 10
3388.67578125
 20
-0.0
 10
3378.6796875
 20
-0.0
 10
3368.68359375
 20
-0.0
 10
3358.6875
 20
-0.0
 10
3348.69140625
 20
-0.0
 10
3338.6953125
 20
-0.0
 10
3328.69921875
 20
-0.0
 10
3318.703125
 20
-0.0
 10
3308.70703125
 20
-0.0
 10
3298.7109375
 20
-0.0
 10
3288.71484375
 20
-0.0
 10
3278.71875
 20
-0.0
 10
3268.72265625
 20
-0.0
 10
3258.7265625
 20
-0.0
 10
3248.73046875
 20
-0.0
 10
3238.734375
 20
-0.0
 10
3228.73828125
 20
-0.0
 10
3218.7421875
 20
-0.0
 10
3208.74609375
 20
-0.0
 10
3198.75
 20
-0.0
 10
3188.75390625
 20
-0.0
 10
3178.7578125
 20
-0.0
 10
3168.76171875
 20
-0.0
 10
3158.765625
 20
-0.0
 10
3148.76953125
 20
-0.0
 10
3138.7734375
 20
-0.0
 10
3128.77734375
 20
-0.0
 10
3118.78125
 20
-0.0
 10
3108.78515625
 20
-0.0
 10
3098.7890625
 20
-0.0
 10
3088.79296875
 20
-0.0
 10
3078.796875
 20
-0.0
 10
3068.80078125
 20
-0.0
 10
3058.8046875
 20
-0.0
 10
3048.80859375
 20
-0.0
 10
3038.8125
 20
-0.0
 10
3028.81640625
 20
-0.0
 10
3018.8203125
 20
-0.0
 10
3008.82421875
 20
-0.0
 10
2998.828125
 20
-0.0
 10
2988.83203125
 20
-0.0
 10
2978.8359375
 20
-0.0
 10
2968.83984375
 20
-0.0
 10
2958.84375
 20
-0.0
 10
2948.84765625
 20
-0.0
 10
2938.8515625
 20
-0.0
 10
2928.85546875
 20
-0.0
 10
2918.859375
 20
-0.0
 10
2908.86328125
 20
-0.0
 10
2898.8671875
 20
-0.0
 10
2888.87109375
 20
-0.0
 10
2878.875
 20
-0.0
 10
2868.87890625
 20
-0.0
 10
2858.8828125
 20
-0.0
 10
2848.88671875
 20
-0.0
 10
2838.890625
 20
-0.0
 10
2828.89453125
 20
-0.0
 10
2818.8984375
 20
-0.0
 10
2808.90234375
 20
-0.0
 10
2798.90625
 20
-0.0
 10
2788.91015625
 20
-0.0
 10
2778.9140625
 20
-0.0
 10
2768.91796875
 20
-0.0
 10
2758.921875
 20
-0.0
 10
2748.92578125
 20
-0.0
 10
2738.9296875
 20
-0.0
 10
2728.93359375
 20
-0.0
 10
2718.9375
 20
-0.0
 10
2708.94140625
 20
-0.0
 10
2698.9453125
 20
-0.0
 10
2688.94921875
 20
-0.0
 10
2678.953125
 20
-0.0
 10
2668.95703125
 20
-0.0
 10
2658.9609375
 20
-0.0
 10
2648.96484375
 20
-0.0
 10
2638.96875
 20
-0.0
 10
2628.97265625
 20
-0.0
 10
2618.9765625
 20
-0.0
 10
2608.98046875
 20
-0.0
 10
2598.984375
 20
-0.0
 10
2588.98828125
 20
-0.0
 10
2578.9921875
 20
-0.0
 10
2568.99609375
 20
-0.0
 10
2559.0
 20
-0.0
 10
2549.00390625
 20
-0.0
 10
2539.0078125
 20
-0.0
 10
2529.01171875
 20
-0.0
 10
2519.015625
 20
-0.0
 10
2509.01953125
 20
-0.0
 10
2499.0234375
 20
-0.0
 10
2489.02734375
 20
-0.0
 10
2479.03125
 20
-0.0
 10
2469.03515625
 20
-0.0
 10
2459.0390625
 20
-0.0
 10
2449.04296875
 20
-0.0
 10
2439.046875
 20
-0.0
 10
2429.05078125
 20
-0.0
 10
2419.0546875
 20
-0.0
 10
2409.05859375
 20
-0.0
 10
2399.0625
 20
-0.0
 10
2389.06640625
 20
-0.0
 10
2379.0703125
 20
-0.0
 10
2369.07421875
 20
-0.0
 10
2359.078125
 20
-0.0
 10
2349.08203125
 20
-0.0
 10
2339.0859375
 20
-0.0
 10
2329.08984375
 20
-0.0
 10
2319.09375
 20
-0.0
 10
2309.09765625
 20
-0.0
 10
2299.1015625
 20
-0.0
 10
2289.10546875
 20
-0.0
 10
2279.109375
 20
-0.0
 10
2269.11328125
 20
-0.0
 10
2259.1171875
 20
-0.0
 10
2249.12109375
 20
-0.0
 10
2239.125
 20
-0.0
 10
2229.12890625
 20
-0.0
 10
2219.1328125
 20
-0.0
 10
2209.13671875
 20
-0.0
 10
2199.140625
 20
-0.0
 10
2189.14453125
 20
-0.0
 10
2179.1484375
 20
-0.0
 10
2169.15234375
 20
-0.0
 10
2159.15625
 20
-0.0
 10
2149.16015625
 20
-0.0
 10
2139.1640625
 20
-0.0
 10
2129.16796875
 20
-0.0
 10
2119.171875
 20
-0.0
 10
2109.17578125
 20
-0.0
 10
2099.1796875
 20
-0.0
 10
2089.18359375
 20
-0.0
 10
2079.1875
 20
-0.0
 10
2069.19140625
 20
-0.0
 10
2059.1953125
 20
-0.0
 10
2049.19921875
 20
-0.0
 10
2039.203125
 20
-0.0
 10
2029.20703125
 20
-0.0
 10
2019.2109375
 20
-0.0
 10
2009.21484375
 20
-0.0
 10
1999.21875
 20
-0.0
 10
1989.22265625
 20
-0.0
 10
1979.2265625
 20
-0.0
 10
1969.23046875
 20
-0.0
 10
1959.234375
 20
-0.0
 10
1949.23828125
 20
-0.0
 10
1939.2421875
 20
-0.0
 10
1929.24609375
 20
-0.0
 10
1919.25
 20
-0.0
 10
1909.25390625
 20
-0.0
 10
1899.2578125
 20
-0.0
 10
1889.26171875
 20
-0.0
 10
1879.265625
 20
-0.0
 10
1869.26953125
 20
-0.0
 10
1859.2734375
 20
-0.0
 10
1849.27734375
 20
-0.0
 10
1839.28125
 20
-0.0
 10
1829.28515625
 20
-0.0
 10
1819.2890625
 20
-0.0
 10
1809.29296875
 20
-0.0
 10
1799.296875
 20
-0.0
 10
1789.30078125
 20
-0.0
 10
1779.3046875
 20
-0.0
 10
1769.30859375
 20
-0.0
 10
1759.3125
 20
-0.0
 10
1749.31640625
 20
-0.0
 10
1739.3203125
 20
-0.0
 10
1729.32421875
 20
-0.0
 10
1719.328125
 20
-0.0
 10
1709.33203125
 20
-0.0
 10
1699.3359375
 20
-0.0
 10
1689.33984375
 20
-0.0
 10
1679.34375
 20
-0.0
 10
1669.34765625
 20
-0.0
 10
1659.3515625
 20
-0.0
 10
1649.35546875
 20
-0.0
 10
1639.359375
 20
-0.0
 10
1629.36328125
 20
-0.0
 10
1619.3671875
 20
-0.0
 10
1609.37109375
 20
-0.0
 10
1599.375
 20
-0.0
 10
1589.37890625
 20
-0.0
 10
1579.3828125
 20
-0.0
 10
1569.38671875
 20
-0.0
 10
1559.390625
 20
-0.0
 10
1549.39453125
 20
-0.0
 10
1539.3984375
 20
-0.0
 10
1529.40234375
 20
-0.0
 10
1519.40625
 20
-0.0
 10
1509.41015625
 20
-0.0
 10
1499.4140625
 20
-0.0
 10
1489.41796875
 20
-0.0
 10
1479.421875
 20
-0.0
 10
1469.42578125
 20
-0.0
 10
1459.4296875
 20
-0.0
 10
1449.43359375
 20
-0.0
 10
1439.4375
 20
-0.0
 10
1429.44140625
 20
-0.0
 10
1419.4453125
 20
-0.0
 10
1409.44921875
 20
-0.0
 10
1399.453125
 20
-0.0
 10
1389.45703125
 20
-0.0
 10
1379.4609375
 20
-0.0
 10
1369.46484375
 20
-0.0
 10
1359.46875
 20
-0.0
 10
1349.47265625
 20
-0.0
 10
1339.4765625
 20
-0.0
 10
1329.48046875
 20
-0.0
 10
1319.484375
 20
-0.0
 10
1309.48828125
 20
-0.0
 10
1299.4921875
 20
-0.0
 10
1289.49609375
 20
-0.0
 10
1279.5
 20
-0.0
 10
1269.50390625
 20
-0.0
 10
1259.5078125
 20
-0.0
 10
1249.51171875
 20
-0.0
 10
1239.515625
 20
-0.0
 10
1229.51953125
 20
-0.0
 10
1219.5234375
 20
-0.0
 10
1209.52734375
 20
-0.0
 10
1199.53125
 20
-0.0
 10
1189.53515625
 20
-0.0
 10
1179.5390625
 20
-0.0
 10
1169.54296875
 20
-0.0
 10
1159.546875
 20
-0.0
 10
1149.55078125
 20
-0.0
 10
1139.5546875
 20
-0.0
 10
1129.55859375
 20
-0.0
 10
1119.5625
 20
-0.0
 10
1109.56640625
 20
-0.0
 10
1099.5703125
 20
-0.0
 10
1089.57421875
 20
-0.0
 10
1079.578125
 20
-0.0
 10
1069.58203125
 20
-0.0
 10
1059.5859375
 20
-0.0
 10
1049.58984375
 20
-0.0
 10
1039.59375
 20
-0.0
 10
1029.59765625
 20
-0.0
 10
1019.6015625
 20
-0.0
 10
1009.60546875
 20
-0.0
 10
999.609375
 20
-0.0
 10
989.61328125
 20
-0.0
 10
979.6171875
 20
-0.0
 10
969.62109375
 20
-0.0
 10
959.625
 20
-0.0
 10
949.62890625
 20
-0.0
 10
939.6328125
 20
-0.0
 10
929.63671875
 20
-0.0
 10
919.640625
 20
-0.0
 10
909.64453125
 20
-0.0
 10
899.6484375
 20
-0.0
 10
889.65234375
 20
-0.0
 10
879.65625
 20
-0.0
 10
869.66015625
 20
-0.0
 10
859.6640625
 20
-0.0
 10
849.66796875
 20
-0.0
 10
839.671875
 20
-0.0
 10
829.67578125
 20
-0.0
 10
819.6796875
 20
-0.0
 10
809.68359375
 20
-0.0
 10
799.6875
 20
-0.0
 10
789.69140625
 20
-0.0
 10
779.6953125
 20
-0.0
 10
769.69921875
 20
-0.0
 10
759.703125
 20
-0.0
 10
749.70703125
 20
-0.0
 10
739.7109375
 20
-0.0
 10
729.71484375
 20
-0.0
 10
719.71875
 20
-0.0
 10
709.72265625
 20
-0.0
 10
699.7265625
 20
-0.0
 10
689.73046875
 20
-0.0
 10
679.734375
 20
-0.0
 10
669.73828125
 20
-0.0
 10
659.7421875
 20
-0.0
 10
649.74609375
 20
-0.0
 10
639.75
 20
-0.0
 10
629.75390625
 20
-0.0
 10
619.7578125
 20
-0.0
 10
609.76171875
 20
-0.0
 10
599.765625
 20
-0.0
 10
589.76953125
 20
-0.0
 10
579.7734375
 20
-0.0
 10
569.77734375
 20
-0.0
 10
559.78125
 20
-0.0
 10
549.78515625
 20
-0.0
 10
539.7890625
 20
-0.0
 10
529.79296875
 20
-0.0
 10
519.796875
 20
-0.0
 10
509.80078125
 20
-0.0
 10
499.8046875
 20
-0.0
 10
489.80859375
 20
-0.0
 10
479.8125
 20
-0.0
 10
469.81640625
 20
-0.0
 10
459.8203125
 20
-0.0
 10
449.82421875
 20
-0.0
 10
439.828125
 20
-0.0
 10
429.83203125
 20
-0.0
 10
419.8359375
 20
-0.0
 10
409.83984375
 20
-0.0
 10
399.84375
 20
-0.0
 10
389.84765625
 20
-0.0
 10
379.8515625
 20
-0.0
 10
369.85546875
 20
-0.0
 10
359.859375
 20
-0.0
 10
349.86328125
 20
-0.0
 10
339.8671875
 20
-0.0
 10
329.87109375
 20
-0.0
 10
319.875
 20
-0.0
 10
309.87890625
 20
-0.0
 10
299.8828125
 20
-0.0
 10
289.88671875
 20
-0.0
 10
279.890625
 20
-0.0
 10
269.89453125
 20
-0.0
 10
259.8984375
 20
-0.0
 10
249.90234375
 20
-0.0
 10
239.90625
 20
-0.0
 10
229.91015625
 20
-0.0
 10
219.9140625
 20
-0.0
 10
209.91796875
 20
-0.0
 10
199.921875
 20
-0.0
 10
189.92578125
 20
-0.0
 10
179.9296875
 20
-0.0
 10
169.93359375
 20
-0.0
 10
159.9375
 20
-0.0
 10
149.94140625
 20
-0.0
 10
139.9453125
 20
-0.0
 10
129.94921875
 20
-0.0
 10
119.953125
 20
-0.0
 10
109.95703125
 20
-0.0
 10
99.9609375
 20
-0.0
 10
89.96484375
 20
-0.0
 10
79.96875
 20
-0.0
 10
69.97265625
 20
-0.0
 10
59.9765625
 20
-0.0
 10
49.98046875
 20
-0.0
 10
39.984375
 20
-0.0
 10
29.98828125
 20
-0.0
 10
19.9921875
 20
-0.0
 10
9.99609375
 20
-0.0
  0
LWPOLYLINE
  5
43
330
17
100
AcDbEntity
  8
substrate
100
AcDbPolyline
 90
4
 70
1
 43
0.5
 10
2898.8671875
 20
-4438.265625
 10
2908.86328125
 20
-4428.26953125
 10
2918.859375
 20
-4438.265625
 10
2908.86328125
 20
-4448.26171875
  0
LWPOLYLINE
  5
44
330
17
100
AcDbEntity
  8
substrate
100
AcDbPolyline
 90
4
 70
1
 43
0.5
 10
2229.12890625
 20
-4408.27734375
 10
2239.125
 20
-4398.28125
 10
2249.12109375
 20
-4408.27734375
 10
2239.125
 20
-4418.2734375
  0
LWPOLYLINE
  5
45
330
17
100
AcDbEntity
  8
substrate
100
AcDbPolyline
 90
4
 70
1
 43
0.5
 10
1529.40234375
 20
-4408.27734375
 10
1539.3984375
 20
-4398.28125
 10
1549.39453125
 20
-4408.27734375
 10
1539.3984375
 20
-4418.2734375
  0
LWPOLYLINE
  5
46
330
17
100
AcDbEntity
  8
substrate
100
AcDbPolyline
 90
4
 70
1
 43
0.5
 10
1519.40625
 20
-4398.28125
 10
1529.40234375
 20
-4388.28515625
 10
1539.3984375
 20
-4398.28125
 10
1529.40234375
 20
-4408.27734375
  0
LWPOLYLINE
  5
47
330
17
100
AcDbEntity
  8
substrate
100
AcDbPolyline
 90
4
 70
1
 43
0.5
 10
1559.390625
 20
-4388.28515625
 10
1569.38671875
 20
-4378.2890625
 10
1579.3828125
 20
-4388.28515625
 10
1569.38671875
 20
-4398.28125
  0
LWPOLYLINE
  5
48
330
17
100
AcDbEntity
  8
substrate
100
AcDbPolyline
 90
4
 70
1
 43
0.5
 10
1529.40234375
 20
-4388.28515625
 10
1539.3984375
 20
-4378.2890625
 10
1549.39453125
 20
-4388.28515625
 10
1539.3984375
 20
-4398.28125
  0
LWPOLYLINE
  5
49
330
17
100
AcDbEntity
  8
substrate
100
AcDbPolyline
 90
6
 70
1
 43
0.5
 10
3598.59375
 20
-4308.31640625
 10
3608.58984375
 20
-4298.3203125
 10
3618.5859375
 20
-4298.3203125
 10
3628.58203125
 20
-4308.31640625
 10
3618.5859375
 20
-4318.3125
 10
3608.58984375
 20
-4318.3125
  0
LWPOLYLINE
  5
4A
330
17
100
AcDbEntity
  8
substrate
100
AcDbPolyline
 90
4
 70
1
 43
0.5
 10
319.875
 20
-4158.375
 10
329.87109375
 20
-4148.37890625
 10
339.8671875
 20
-4158.375
 10
329.87109375
 20
-4168.37109375
  0
LWPOLYLINE
  5
4B
330
17
100
AcDbEntity
  8
substrate
100
AcDbPolyline
 90
4
 70
1
 43
0.5
 10
1049.58984375
 20
-4148.37890625
 10
1059.5859375
 20
-4138.3828125
 10
1069.58203125
 20
-4148.37890625
 10
1059.5859375
 20
-4158.375
  0
LWPOLYLINE
  5
4C
330
17
100
AcDbEntity
  8
substrate
100
AcDbPolyline
 90
4
 70
1
 43
0.5
 10
2868.87890625
 20
-4088.40234375
 10
2878.875
 20
-4078.40625
 10
2888.87109375
 20
-4088.40234375
 10
2878.875
 20
-4098.3984375
  0
LWPOLYLINE
  5
4D
330
17
100
AcDbEntity
  8
substrate
100
AcDbPolyline
 90
4
 70
1
 43
0.5
 10
4758.140625
 20
-4048.41796875
 10
4768.13671875
 20
-4038.421875
 10
4778.1328125
 20
-4048.41796875
 10
4768.13671875
 20
-4058.4140625
  0
LWPOLYLINE
  5
4E
330
17
100
AcDbEntity
  8
substrate
100
AcDbPolyline
 90
4
 70
1
 43
0.5
 10
1239.515625
 20
-3948.45703125
 10
1249.51171875
 20
-3938.4609375
 10
1259.5078125
 20
-3948.45703125
 10
1249.51171875
 20
-3958.453125
  0
LWPOLYLINE
  5
4F
330
17
100
AcDbEntity
  8
substrate
100
AcDbPolyline
 90
4
 70
1
 43
0.5
 10
1199.53125
 20
-3948.45703125
 10
1209.52734375
 20
-3938.4609375
 10
1219.5234375
 20
-3948.45703125
 10
1209.52734375
 20
-3958.453125
  0
LWPOLYLINE
  5
50
330
17
100
AcDbEntity
  8
substrate
100
AcDbPolyline
 90
4
 70
1
 43
0.5
 10
4248.33984375
 20
-3668.56640625
 10
4258.3359375
 20
-3658.5703125
 10
4268.33203125
 20
-3668.56640625
 10
4258.3359375
 20
-3678.5625
  0
LWPOLYLINE
  5
51
330
17
100
AcDbEntity
  8
substrate
100
AcDbPolyline
 90
4
 70
1
 43
0.5
 10
4228.34765625
 20
-3668.56640625
 10
4238.34375
 20
-3658.5703125
 10
4248.33984375
 20
-3668.56640625
 10
4238.34375
 20
-3678.5625
  0
LWPOLYLINE
  5
52
330
17
100
AcDbEntity
  8
substrate
100
AcDbPolyline
 90
6
 70
1
 43
0.5
 10
1999.21875
 20
-3668.56640625
 10
2009.21484375
 20
-3658.5703125
 10
2019.2109375
 20
-3658.5703125
 10
2029.20703125
 20
-3668.56640625
 10
2019.2109375
 20
-3678.5625
 10
2009.21484375
 20
-3678.5625
  0
LWPOLYLINE
  5
53
330
17
100
AcDbEntity
  8
substrate
100
AcDbPolyline
 90
4
 70
1
 43
0.5
 10
1369.46484375
 20
-3668.56640625
 10
1379.4609375
 20
-3658.5703125
 10
1389.45703125
 20
-3668.56640625
 10
1379.4609375
 20
-3678.5625
  0
LWPOLYLINE
  5
54
330
17
100
AcDbEntity
  8
substrate
100
AcDbPolyline
 90
4
 70
1
 43
0.5
 10
729.71484375
 20
-3668.56640625
 10
739.7109375
 20
-3658.5703125
 10
749.70703125
 20
-3668.56640625
 10
739.7109375
 20
-3678.5625
  0
LWPOLYLINE
  5
55
330
17
100
AcDbEntity
  8
substrate
100
AcDbPolyline
 90
4
 70
1
 43
0.5
 10
4228.34765625
 20
-3508.62890625
 10
4238.34375
 20
-3498.6328125
 10
4248.33984375
 20
-3508.62890625
 10
4238.34375
 20
-3518.625
  0
LWPOLYLINE
  5
56
330
17
100
AcDbEntity
  8
substrate
100
AcDbPolyline
 90
4
 70
1
 43
0.5
 10
699.7265625
 20
-3368.68359375
 10
709.72265625
 20
-3358.6875
 10
719.71875
 20
-3368.68359375
 10
709.72265625
 20
-3378.6796875
  0
LWPOLYLINE
  5
57
330
17
100
AcDbEntity
  8
substrate
100
AcDbPolyline
 90
6
 70
1
 43
0.5
 10
709.72265625
 20
-3348.69140625
 10
719.71875
 20
-3338.6953125
 10
729.71484375
 20
-3338.6953125
 10
739.7109375
 20
-3348.69140625
 10
729.71484375
 20
-3358.6875
 10
719.71875
 20
-3358.6875
  0
LWPOLYLINE
  5
58
330
17
100
AcDbEntity
  8
substrate
100
AcDbPolyline
 90
4
 70
1
 43
0.5
 10
2638.96875
 20
-3278.71875
 10
2648.96484375
 20
-3268.72265625
 10
2658.9609375
 20
-3278.71875
 10
2648.96484375
 20
-3288.71484375
  0
LWPOLYLINE
  5
59
330
17
100
AcDbEntity
  8
substrate
100
AcDbPolyline
 90
4
 70
1
 43
0.5
 10
2618.9765625
 20
-3278.71875
 10
2628.97265625
 20
-3268.72265625
 10
2638.96875
 20
-3278.71875
 10
2628.97265625
 20
-3288.71484375
  0
LWPOLYLINE
  5
5A
330
17
100
AcDbEntity
  8
substrate
100
AcDbPolyline
 90
4
 70
1
 43
0.5
 10
4628.19140625
 20
-3128.77734375
 10
4638.1875
 20
-3118.78125
 10
4648.18359375
 20
-3128.77734375
 10
4638.1875
 20
-3138.7734375
  0
LWPOLYLINE
  5
5B
330
17
100
AcDbEntity
  8
substrate
100
AcDbPolyline
 90
4
 70
1
 43
0.5
 10
1749.31640625
 20
-3128.77734375
 10
1759.3125
 20
-3118.78125
 10
1769.30859375
 20
-3128.77734375
 10
1759.3125
 20
-3138.7734375
  0
LWPOLYLINE
  5
5C
330
17
100
AcDbEntity
  8
substrate
100
AcDbPolyline
 90
4
 70
1
 43
0.5
 10
2159.15625
 20
-3118.78125
 10
2169.15234375
 20
-3108.78515625
 10
2179.1484375
 20
-3118.78125
 10
2169.15234375
 20
-3128.77734375
  0
LWPOLYLINE
  5
5D
330
17
100
AcDbEntity
  8
substrate
100
AcDbPolyline
 90
4
 70
1
 43
0.5
 10
2868.87890625
 20
-2988.83203125
 10
2878.875
 20
-2978.8359375
 10
2888.87109375
 20
-2988.83203125
 10
2878.875
 20
-2998.828125
  0
LWPOLYLINE
  5
5E
330
17
100
AcDbEntity
  8
substrate
100
AcDbPolyline
 90
4
 70
1
 43
0.5
 10
4148.37890625
 20
-2968.83984375
 10
4158.375
 20
-2958.84375
 10
4168.37109375
 20
-2968.83984375
 10
4158.375
 20
-2978.8359375
  0
LWPOLYLINE
  5
5F
330
17
100
AcDbEntity
  8
substrate
100
AcDbPolyline
 90
4
 70
1
 43
0.5
 10
2868.87890625
 20
-2968.83984375
 10
2878.875
 20
-2958.84375
 10
2888.87109375
 20
-2968.83984375
 10
2878.875
 20
-2978.8359375
  0
LWPOLYLINE
  5
60
330
17
100
AcDbEntity
  8
substrate
100
AcDbPolyline
 90
4
 70
1
 43
0.5
 10
2229.12890625
 20
-2968.83984375
 10
2239.125
 20
-2958.84375
 10
2249.12109375
 20
-2968.83984375
 10
2239.125
 20
-2978.8359375
  0
LWPOLYLINE
  5
61
330
17
100
AcDbEntity
  8
substrate
100
AcDbPolyline
 90
4
 70
1
 43
0.5
 10
859.6640625
 20
-2918.859375
 10
869.66015625
 20
-2908.86328125
 10
879.65625
 20
-2918.859375
 10
869.66015625
 20
-2928.85546875
  0
LWPOLYLINE
  5
62
330
17
100
AcDbEntity
  8
substrate
100
AcDbPolyline
 90
4
 70
1
 43
0.5
 10
3138.7734375
 20
-2878.875
 10
3148.76953125
 20
-2868.87890625
 10
3158.765625
 20
-2878.875
 10
3148.76953125
 20
-2888.87109375
  0
LWPOLYLINE
  5
63
330
17
100
AcDbEntity
  8
substrate
100
AcDbPolyline
 90
4
 70
1
 43
0.5
 10
2159.15625
 20
-2828.89453125
 10
2169.15234375
 20
-2818.8984375
 10
2179.1484375
 20
-2828.89453125
 10
2169.15234375
 20
-2838.890625
  0
LWPOLYLINE
  5
64
330
17
100
AcDbEntity
  8
substrate
100
AcDbPolyline
 90
4
 70
1
 43
0.5
 10
2329.08984375
 20
-2818.8984375
 10
2339.0859375
 20
-2808.90234375
 10
2349.08203125
 20
-2818.8984375
 10
2339.0859375
 20
-2828.89453125
  0
LWPOLYLINE
  5
65
330
17
100
AcDbEntity
  8
substrate
100
AcDbPolyline
 90
4
 70
1
 43
0.5
 10
3508.62890625
 20
-2808.90234375
 10
3518.625
 20
-2798.90625
 10
3528.62109375
 20
-2808.90234375
 10
3518.625
 20
-2818.8984375
  0
LWPOLYLINE
  5
66
330
17
100
AcDbEntity
  8
substrate
100
AcDbPolyline
 90
4
 70
1
 43
0.5
 10
2159.15625
 20
-2808.90234375
 10
2169.15234375
 20
-2798.90625
 10
2179.1484375
 20
-2808.90234375
 10
2169.15234375
 20
-2818.8984375
  0
LWPOLYLINE
  5
67
330
17
100
AcDbEntity
  8
substrate
100
AcDbPolyline
 90
4
 70
1
 43
0.5
 10
1589.37890625
 20
-2808.90234375
 10
1599.375
 20
-2798.90625
 10
1609.37109375
 20
-2808.90234375
 10
1599.375
 20
-2818.8984375
  0
LWPOLYLINE
  5
68
330
17
100
AcDbEntity
  8
substrate
100
AcDbPolyline
 90
4
 70
1
 43
0.5
 10
1269.50390625
 20
-2808.90234375
 10
1279.5
 20
-2798.90625
 10
1289.49609375
 20
-2808.90234375
 10
1279.5
 20
-2818.8984375
  0
LWPOLYLINE
  5
69
330
17
100
AcDbEntity
  8
substrate
100
AcDbPolyline
 90
4
 70
1
 43
0.5
 10
2299.1015625
 20
-2728.93359375
 10
2309.09765625
 20
-2718.9375
 10
2319.09375
 20
-2728.93359375
 10
2309.09765625
 20
-2738.9296875
  0
LWPOLYLINE
  5
6A
330
17
100
AcDbEntity
  8
substrate
100
AcDbPolyline
 90
4
 70
1
 43
0.5
 10
2249.12109375
 20
-2718.9375
 10
2259.1171875
 20
-2708.94140625
 10
2269.11328125
 20
-2718.9375
 10
2259.1171875
 20
-2728.93359375
  0
LWPOLYLINE
  5
6B
330
17
100
AcDbEntity
  8
substrate
100
AcDbPolyline
 90
4
 70
1
 43
0.5
 10
3088.79296875
 20
-2708.94140625
 10
3098.7890625
 20
-2698.9453125
 10
3108.78515625
 20
-2708.94140625
 10
3098.7890625
 20
-2718.9375
  0
LWPOLYLINE
  5
6C
330
17
100
AcDbEntity
  8
substrate
100
AcDbPolyline
 90
4
 70
1
 43
0.5
 10
4198.359375
 20
-2638.96875
 10
4208.35546875
 20
-2628.97265625
 10
4218.3515625
 20
-2638.96875
 10
4208.35546875
 20
-2648.96484375
  0
LWPOLYLINE
  5
6D
330
17
100
AcDbEntity
  8
substrate
100
AcDbPolyline
 90
4
 70
1
 43
0.5
 10
2249.12109375
 20
-2588.98828125
 10
2259.1171875
 20
-2578.9921875
 10
2269.11328125
 20
-2588.98828125
 10
2259.1171875
 20
-2598.984375
  0
LWPOLYLINE
  5
6E
330
17
100
AcDbEntity
  8
substrate
100
AcDbPolyline
 90
4
 70
1
 43
0.5
 10
2249.12109375
 20
-2519.015625
 10
2259.1171875
 20
-2509.01953125
 10
2269.11328125
 20
-2519.015625
 10
2259.1171875
 20
-2529.01171875
  0
LWPOLYLINE
  5
6F
330
17
100
AcDbEntity
  8
substrate
100
AcDbPolyline
 90
4
 70
1
 43
0.5
 10
4628.19140625
 20
-2489.02734375
 10
4638.1875
 20
-2479.03125
 10
4648.18359375
 20
-2489.02734375
 10
4638.1875
 20
-2499.0234375
  0
LWPOLYLINE
  5
70
330
17
100
AcDbEntity
  8
substrate
100
AcDbPolyline
 90
4
 70
1
 43
0.5
 10
2798.90625
 20
-2369.07421875
 10
2808.90234375
 20
-2359.078125
 10
2818.8984375
 20
-2369.07421875
 10
2808.90234375
 20
-2379.0703125
  0
LWPOLYLINE
  5
71
330
17
100
AcDbEntity
  8
substrate
100
AcDbPolyline
 90
6
 70
1
 43
0.5
 10
2818.8984375
 20
-2359.078125
 10
2828.89453125
 20
-2349.08203125
 10
2838.890625
 20
-2359.078125
 10
2838.890625
 20
-2369.07421875
 10
2828.89453125
 20
-2379.0703125
 10
2818.8984375
 20
-2369.07421875
  0
LWPOLYLINE
  5
72
330
17
100
AcDbEntity
  8
substrate
100
AcDbPolyline
 90
8
 70
1
 43
0.5
 10
2838.890625
 20
-2349.08203125
 10
2848.88671875
 20
-2339.0859375
 10
2858.8828125
 20
-2349.08203125
 10
2858.8828125
 20
-2359.078125
 10
2858.8828125
 20
-2369.07421875
 10
2848.88671875
 20
-2379.0703125
 10
2838.890625
 20
-2369.07421875
 10
2838.890625
 20
-2359.078125
  0
LWPOLYLINE
  5
73
330
17
100
AcDbEntity
  8
substrate
100
AcDbPolyline
 90
4
 70
1
 43
0.5
 10
4168.37109375
 20
-2329.08984375
 10
4178.3671875
 20
-2319.09375
 10
4188.36328125
 20
-2329.08984375
 10
4178.3671875
 20
-2339.0859375
  0
LWPOLYLINE
  5
74
330
17
100
AcDbEntity
  8
substrate
100
AcDbPolyline
 90
4
 70
1
 43
0.5
 10
4148.37890625
 20
-2329.08984375
 10
4158.375
 20
-2319.09375
 10
4168.37109375
 20
-2329.08984375
 10
4158.375
 20
-2339.0859375
  0
LWPOLYLINE
  5
75
330
17
100
AcDbEntity
  8
substrate
100
AcDbPolyline
 90
4
 70
1
 43
0.5
 10
4198.359375
 20
-2319.09375
 10
4208.35546875
 20
-2309.09765625
 10
4218.3515625
 20
-2319.09375
 10
4208.35546875
 20
-2329.08984375
  0
LWPOLYLINE
  5
76
330
17
100
AcDbEntity
  8
substrate
100
AcDbPolyline
 90
4
 70
1
 43
0.5
 10
3638.578125
 20
-2309.09765625
 10
3648.57421875
 20
-2299.1015625
 10
3658.5703125
 20
-2309.09765625
 10
3648.57421875
 20
-2319.09375
  0
LWPOLYLINE
  5
77
330
17
100
AcDbEntity
  8
substrate
100
AcDbPolyline
 90
197
 70
1
 43
0.5
 10
2559.0
 20
-2289.10546875
 10
2568.99609375
 20
-2279.109375
 10
2578.9921875
 20
-2289.10546875
 10
2588.98828125
 20
-2279.109375
 10
2598.984375
 20
-2279.109375
 10
2608.98046875
 20
-2279.109375
 10
2618.9765625
 20
-2279.109375
 10
2628.97265625
 20
-2279.109375
 10
2638.96875
 20
-2289.10546875
 10
2638.96875
 20
-2299.1015625
 10
2648.96484375
 20
-2299.1015625
 10
2658.9609375
 20
-2299.1015625
 10
2668.95703125
 20
-2299.1015625
 10
2678.953125
 20
-2299.1015625
 10
2688.94921875
 20
-2299.1015625
 10
2698.9453125
 20
-2309.09765625
 10
2708.94140625
 20
-2309.09765625
 10
2718.9375
 20
-2309.09765625
 10
2728.93359375
 20
-2319.09375
 10
2728.93359375
 20
-2329.08984375
 10
2738.9296875
 20
-2319.09375
 10
2748.92578125
 20
-2329.08984375
 10
2758.921875
 20
-2339.0859375
 10
2768.91796875
 20
-2339.0859375
 10
2778.9140625
 20
-2349.08203125
 10
2788.91015625
 20
-2359.078125
 10
2778.9140625
 20
-2369.07421875
 10
2788.91015625
 20
-2379.0703125
 10
2798.90625
 20
-2379.0703125
 10
2808.90234375
 20
-2379.0703125
 10
2818.8984375
 20
-2379.0703125
 10
2828.89453125
 20
-2379.0703125
 10
2838.890625
 20
-2379.0703125
 10
2848.88671875
 20
-2389.06640625
 10
2838.890625
 20
-2399.0625
 10
2838.890625
 20
-2409.05859375
 10
2848.88671875
 20
-2419.0546875
 10
2838.890625
 20
-2429.05078125
 10
2848.88671875
 20
-2439.046875
 10
2838.890625
 20
-2449.04296875
 10
2848.88671875
 20
-2459.0390625
 10
2838.890625
 20
-2469.03515625
 10
2848.88671875
 20
-2479.03125
 10
2838.890625
 20
-2489.02734375
 10
2848.88671875
 20
-2499.0234375
 10
2858.8828125
 20
-2509.01953125
 10
2858.8828125
 20
-2519.015625
 10
2848.88671875
 20
-2529.01171875
 10
2848.88671875
 20
-2539.0078125
 10
2848.88671875
 20
-2549.00390625
 10
2848.88671875
 20
-2559.0
 10
2848.88671875
 20
-2568.99609375
 10
2848.88671875
 20
-2578.9921875
 10
2858.8828125
 20
-2588.98828125
 10
2858.8828125
 20
-2598.984375
 10
2848.88671875
 20
-2608.98046875
 10
2848.88671875
 20
-2618.9765625
 10
2838.890625
 20
-2628.97265625
 10
2838.890625
 20
-2638.96875
 10
2838.890625
 20
-2648.96484375
 10
2838.890625
 20
-2658.9609375
 10
2838.890625
 20
-2668.95703125
 10
2828.89453125
 20
-2678.953125
 10
2818.8984375
 20
-2688.94921875
 10
2808.90234375
 20
-2698.9453125
 10
2798.90625
 20
-2708.94140625
 10
2788.91015625
 20
-2718.9375
 10
2778.9140625
 20
-2728.93359375
 10
2768.91796875
 20
-2728.93359375
 10
2758.921875
 20
-2738.9296875
 10
2758.921875
 20
-2748.92578125
 10
2758.921875
 20
-2758.921875
 10
2748.92578125
 20
-2768.91796875
 10
2738.9296875
 20
-2768.91796875
 10
2728.93359375
 20
-2778.9140625
 10
2718.9375
 20
-2788.91015625
 10
2708.94140625
 20
-2798.90625
 10
2698.9453125
 20
-2808.90234375
 10
2688.94921875
 20
-2818.8984375
 10
2678.953125
 20
-2818.8984375
 10
2668.95703125
 20
-2828.89453125
 10
2658.9609375
 20
-2828.89453125
 10
2648.96484375
 20
-2818.8984375
 10
2638.96875
 20
-2828.89453125
 10
2628.97265625
 20
-2828.89453125
 10
2618.9765625
 20
-2838.890625
 10
2608.98046875
 20
-2828.89453125
 10
2598.984375
 20
-2838.890625
 10
2588.98828125
 20
-2828.89453125
 10
2578.9921875
 20
-2838.890625
 10
2568.99609375
 20
-2838.890625
 10
2559.0
 20
-2838.890625
 10
2549.00390625
 20
-2828.89453125
 10
2539.0078125
 20
-2828.89453125
 10
2529.01171875
 20
-2838.890625
 10
2519.015625
 20
-2838.890625
 10
2509.01953125
 20
-2828.89453125
 10
2499.0234375
 20
-2838.890625
 10
2489.02734375
 20
-2828.89453125
 10
2489.02734375
 20
-2818.8984375
 10
2479.03125
 20
-2818.8984375
 10
2469.03515625
 20
-2818.8984375
 10
2459.0390625
 20
-2828.89453125
 10
2449.04296875
 20
-2818.8984375
 10
2439.046875
 20
-2828.89453125
 10
2429.05078125
 20
-2818.8984375
 10
2419.0546875
 20
-2808.90234375
 10
2409.05859375
 20
-2808.90234375
 10
2399.0625
 20
-2798.90625
 10
2399.0625
 20
-2788.91015625
 10
2389.06640625
 20
-2778.9140625
 10
2399.0625
 20
-2768.91796875
 10
2389.06640625
 20
-2768.91796875
 10
2379.0703125
 20
-2758.921875
 10
2379.0703125
 20
-2748.92578125
 10
2369.07421875
 20
-2748.92578125
 10
2359.078125
 20
-2748.92578125
 10
2349.08203125
 20
-2748.92578125
 10
2339.0859375
 20
-2738.9296875
 10
2329.08984375
 20
-2728.93359375
 10
2319.09375
 20
-2728.93359375
 10
2309.09765625
 20
-2718.9375
 10
2299.1015625
 20
-2718.9375
 10
2289.10546875
 20
-2718.9375
 10
2279.109375
 20
-2718.9375
 10
2269.11328125
 20
-2718.9375
 10
2259.1171875
 20
-2708.94140625
 10
2259.1171875
 20
-2698.9453125
 10
2259.1171875
 20
-2688.94921875
 10
2259.1171875
 20
-2698.9453125
 10
2259.1171875
 20
-2708.94140625
 10
2249.12109375
 20
-2718.9375
 10
2239.125
 20
-2708.94140625
 10
2239.125
 20
-2698.9453125
 10
2239.125
 20
-2688.94921875
 10
2239.125
 20
-2678.953125
 10
2239.125
 20
-2668.95703125
 10
2249.12109375
 20
-2658.9609375
 10
2259.1171875
 20
-2668.95703125
 10
2259.1171875
 20
-2658.9609375
 10
2259.1171875
 20
-2648.96484375
 10
2259.1171875
 20
-2638.96875
 10
2259.1171875
 20
-2628.97265625
 10
2259.1171875
 20
-2618.9765625
 10
2259.1171875
 20
-2608.98046875
 10
2259.1171875
 20
-2598.984375
 10
2269.11328125
 20
-2588.98828125
 10
2259.1171875
 20
-2578.9921875
 10
2269.11328125
 20
-2568.99609375
 10
2259.1171875
 20
-2568.99609375
 10
2249.12109375
 20
-2559.0
 10
2249.12109375
 20
-2549.00390625
 10
2259.1171875
 20
-2539.0078125
 10
2269.11328125
 20
-2549.00390625
 10
2259.1171875
 20
-2539.0078125
 10
2269.11328125
 20
-2529.01171875
 10
2269.11328125
 20
-2519.015625
 10
2269.11328125
 20
-2509.01953125
 10
2269.11328125
 20
-2499.0234375
 10
2269.11328125
 20
-2489.02734375
 10
2269.11328125
 20
-2479.03125
 10
2279.109375
 20
-2469.03515625
 10
2279.109375
 20
-2459.0390625
 10
2279.109375
 20
-2449.04296875
 10
2279.109375
 20
-2439.046875
 10
2289.10546875
 20
-2429.05078125
 10
2289.10546875
 20
-2419.0546875
 10
2289.10546875
 20
-2409.05859375
 10
2289.10546875
 20
-2399.0625
 10
2299.1015625
 20
-2389.06640625
 10
2309.09765625
 20
-2389.06640625
 10
2319.09375
 20
-2379.0703125
 10
2329.08984375
 20
-2369.07421875
 10
2339.0859375
 20
-2359.078125
 10
2349.08203125
 20
-2349.08203125
 10
2359.078125
 20
-2349.08203125
 10
2359.078125
 20
-2339.0859375
 10
2369.07421875
 20
-2329.08984375
 10
2379.0703125
 20
-2329.08984375
 10
2389.06640625
 20
-2329.08984375
 10
2399.0625
 20
-2319.09375
 10
2409.05859375
 20
-2319.09375
 10
2419.0546875
 20
-2309.09765625
 10
2429.05078125
 20
-2309.09765625
 10
2439.046875
 20
-2299.1015625
 10
2449.04296875
 20
-2299.1015625
 10
2459.0390625
 20
-2299.1015625
 10
2469.03515625
 20
-2299.1015625
 10
2479.03125
 20
-2299.1015625
 10
2489.02734375
 20
-2299.1015625
 10
2499.0234375
 20
-2299.1015625
 10
2509.01953125
 20
-2289.10546875
 10
2519.015625
 20
-2299.1015625
 10
2529.01171875
 20
-2289.10546875
 10
2539.0078125
 20
-2289.10546875
 10
2549.00390625
 20
-2289.10546875
 10
2559.0
 20
-2299.1015625
  0
LWPOLYLINE
  5
78
330
17
100
AcDbEntity
  8
substrate
100
AcDbPolyline
 90
4
 70
1
 43
0.5
 10
2429.05078125
 20
-2219.1328125
 10
2439.046875
 20
-2209.13671875
 10
2449.04296875
 20
-2219.1328125
 10
2439.046875
 20
-2229.12890625
  0
LWPOLYLINE
  5
79
330
17
100
AcDbEntity
  8
substrate
100
AcDbPolyline
 90
4
 70
1
 43
0.5
 10
2449.04296875
 20
-2199.140625
 10
2459.0390625
 20
-2189.14453125
 10
2469.03515625
 20
-2199.140625
 10
2459.0390625
 20
-2209.13671875
  0
LWPOLYLINE
  5
7A
330
17
100
AcDbEntity
  8
substrate
100
AcDbPolyline
 90
4
 70
1
 43
0.5
 10
1589.37890625
 20
-2169.15234375
 10
1599.375
 20
-2159.15625
 10
1609.37109375
 20
-2169.15234375
 10
1599.375
 20
-2179.1484375
  0
LWPOLYLINE
  5
7B
330
17
100
AcDbEntity
  8
substrate
100
AcDbPolyline
 90
4
 70
1
 43
0.5
 10
1109.56640625
 20
-2169.15234375
 10
1119.5625
 20
-2159.15625
 10
1129.55859375
 20
-2169.15234375
 10
1119.5625
 20
-2179.1484375
  0
LWPOLYLINE
  5
7C
330
17
100
AcDbEntity
  8
substrate
100
AcDbPolyline
 90
4
 70
1
 43
0.5
 10
2598.984375
 20
-2119.171875
 10
2608.98046875
 20
-2109.17578125
 10
2618.9765625
 20
-2119.171875
 10
2608.98046875
 20
-2129.16796875
  0
LWPOLYLINE
  5
7D
330
17
100
AcDbEntity
  8
substrate
100
AcDbPolyline
 90
4
 70
1
 43
0.5
 10
2578.9921875
 20
-2119.171875
 10
2588.98828125
 20
-2109.17578125
 10
2598.984375
 20
-2119.171875
 10
2588.98828125
 20
-2129.16796875
  0
LWPOLYLINE
  5
7E
330
17
100
AcDbEntity
  8
substrate
100
AcDbPolyline
 90
554
 70
1
 43
0.5
 10
2499.0234375
 20
-2119.171875
 10
2509.01953125
 20
-2109.17578125
 10
2519.015625
 20
-2119.171875
 10
2519.015625
 20
-2129.16796875
 10
2519.015625
 20
-2119.171875
 10
2529.01171875
 20
-2109.17578125
 10
2539.0078125
 20
-2119.171875
 10
2539.0078125
 20
-2129.16796875
 10
2539.0078125
 20
-2119.171875
 10
2549.00390625
 20
-2109.17578125
 10
2559.0
 20
-2119.171875
 10
2559.0
 20
-2129.16796875
 10
2559.0
 20
-2119.171875
 10
2568.99609375
 20
-2109.17578125
 10
2578.9921875
 20
-2119.171875
 10
2578.9921875
 20
-2129.16796875
 10
2588.98828125
 20
-2129.16796875
 10
2598.984375
 20
-2129.16796875
 10
2608.98046875
 20
-2129.16796875
 10
2618.9765625
 20
-2119.171875
 10
2628.97265625
 20
-2109.17578125
 10
2638.96875
 20
-2119.171875
 10
2648.96484375
 20
-2119.171875
 10
2658.9609375
 20
-2119.171875
 10
2668.95703125
 20
-2129.16796875
 10
2678.953125
 20
-2129.16796875
 10
2688.94921875
 20
-2139.1640625
 10
2688.94921875
 20
-2149.16015625
 10
2698.9453125
 20
-2139.1640625
 10
2708.94140625
 20
-2149.16015625
 10
2718.9375
 20
-2149.16015625
 10
2728.93359375
 20
-2159.15625
 10
2728.93359375
 20
-2169.15234375
 10
2728.93359375
 20
-2179.1484375
 10
2728.93359375
 20
-2169.15234375
 10
2738.9296875
 20
-2159.15625
 10
2748.92578125
 20
-2149.16015625
 10
2758.921875
 20
-2159.15625
 10
2768.91796875
 20
-2149.16015625
 10
2778.9140625
 20
-2149.16015625
 10
2788.91015625
 20
-2159.15625
 10
2798.90625
 20
-2159.15625
 10
2808.90234375
 20
-2169.15234375
 10
2808.90234375
 20
-2179.1484375
 10
2818.8984375
 20
-2189.14453125
 10
2818.8984375
 20
-2199.140625
 10
2828.89453125
 20
-2209.13671875
 10
2838.890625
 20
-2219.1328125
 10
2848.88671875
 20
-2209.13671875
 10
2858.8828125
 20
-2219.1328125
 10
2858.8828125
 20
-2229.12890625
 10
2868.87890625
 20
-2229.12890625
 10
2878.875
 20
-2239.125
 10
2868.87890625
 20
-2249.12109375
 10
2878.875
 20
-2239.125
 10
2888.87109375
 20
-2249.12109375
 10
2898.8671875
 20
-2259.1171875
 10
2898.8671875
 20
-2269.11328125
 10
2908.86328125
 20
-2279.109375
 10
2918.859375
 20
-2289.10546875
 10
2918.859375
 20
-2299.1015625
 10
2928.85546875
 20
-2309.09765625
 10
2928.85546875
 20
-2319.09375
 10
2928.85546875
 20
-2329.08984375
 10
2938.8515625
 20
-2339.0859375
 10
2948.84765625
 20
-2349.08203125
 10
2948.84765625
 20
-2359.078125
 10
2958.84375
 20
-2359.078125
 10
2968.83984375
 20
-2369.07421875
 10
2968.83984375
 20
-2379.0703125
 10
2978.8359375
 20
-2379.0703125
 10
2988.83203125
 20
-2389.06640625
 10
2978.8359375
 20
-2399.0625
 10
2978.8359375
 20
-2409.05859375
 10
2978.8359375
 20
-2419.0546875
 10
2988.83203125
 20
-2429.05078125
 10
2988.83203125
 20
-2439.046875
 10
2988.83203125
 20
-2449.04296875
 10
2988.83203125
 20
-2459.0390625
 10
2988.83203125
 20
-2469.03515625
 10
2998.828125
 20
-2479.03125
 10
2988.83203125
 20
-2489.02734375
 10
2998.828125
 20
-2499.0234375
 10
2998.828125
 20
-2509.01953125
 10
2998.828125
 20
-2519.015625
 10
2998.828125
 20
-2529.01171875
 10
2998.828125
 20
-2539.0078125
 10
2998.828125
 20
-2549.00390625
 10
2998.828125
 20
-2559.0
 10
2998.828125
 20
-2568.99609375
 10
2998.828125
 20
-2578.9921875
 10
2998.828125
 20
-2588.98828125
 10
2998.828125
 20
-2598.984375
 10
2998.828125
 20
-2608.98046875
 10
2998.828125
 20
-2618.9765625
 10
2988.83203125
 20
-2628.97265625
 10
2988.83203125
 20
-2638.96875
 10
2988.83203125
 20
-2648.96484375
 10
2988.83203125
 20
-2658.9609375
 10
2988.83203125
 20
-2668.95703125
 10
2988.83203125
 20
-2678.953125
 10
2988.83203125
 20
-2688.94921875
 10
2978.8359375
 20
-2698.9453125
 10
2978.8359375
 20
-2708.94140625
 10
2968.83984375
 20
-2718.9375
 10
2968.83984375
 20
-2728.93359375
 10
2958.84375
 20
-2738.9296875
 10
2958.84375
 20
-2748.92578125
 10
2948.84765625
 20
-2758.921875
 10
2948.84765625
 20
-2768.91796875
 10
2938.8515625
 20
-2778.9140625
 10
2938.8515625
 20
-2788.91015625
 10
2938.8515625
 20
-2798.90625
 10
2928.85546875
 20
-2808.90234375
 10
2918.859375
 20
-2818.8984375
 10
2918.859375
 20
-2828.89453125
 10
2908.86328125
 20
-2838.890625
 10
2908.86328125
 20
-2848.88671875
 10
2898.8671875
 20
-2858.8828125
 10
2888.87109375
 20
-2858.8828125
 10
2888.87109375
 20
-2868.87890625
 10
2888.87109375
 20
-2878.875
 10
2878.875
 20
-2888.87109375
 10
2868.87890625
 20
-2898.8671875
 10
2858.8828125
 20
-2898.8671875
 10
2848.88671875
 20
-2898.8671875
 10
2838.890625
 20
-2908.86328125
 10
2828.89453125
 20
-2908.86328125
 10
2838.890625
 20
-2918.859375
 10
2828.89453125
 20
-2928.85546875
 10
2818.8984375
 20
-2938.8515625
 10
2808.90234375
 20
-2928.85546875
 10
2798.90625
 20
-2938.8515625
 10
2788.91015625
 20
-2938.8515625
 10
2778.9140625
 20
-2938.8515625
 10
2768.91796875
 20
-2948.84765625
 10
2758.921875
 20
-2958.84375
 10
2748.92578125
 20
-2958.84375
 10
2738.9296875
 20
-2968.83984375
 10
2728.93359375
 20
-2968.83984375
 10
2718.9375
 20
-2968.83984375
 10
2708.94140625
 20
-2968.83984375
 10
2698.9453125
 20
-2978.8359375
 10
2688.94921875
 20
-2978.8359375
 10
2678.953125
 20
-2988.83203125
 10
2668.95703125
 20
-2988.83203125
 10
2658.9609375
 20
-2988.83203125
 10
2648.96484375
 20
-2988.83203125
 10
2638.96875
 20
-2998.828125
 10
2628.97265625
 20
-2988.83203125
 10
2618.9765625
 20
-2998.828125
 10
2608.98046875
 20
-2998.828125
 10
2598.984375
 20
-2998.828125
 10
2588.98828125
 20
-2998.828125
 10
2578.9921875
 20
-2998.828125
 10
2568.99609375
 20
-3008.82421875
 10
2559.0
 20
-3008.82421875
 10
2549.00390625
 20
-2998.828125
 10
2539.0078125
 20
-3008.82421875
 10
2529.01171875
 20
-2998.828125
 10
2519.015625
 20
-3008.82421875
 10
2509.01953125
 20
-2998.828125
 10
2499.0234375
 20
-2998.828125
 10
2489.02734375
 20
-2998.828125
 10
2479.03125
 20
-2998.828125
 10
2469.03515625
 20
-2998.828125
 10
2459.0390625
 20
-2998.828125
 10
2449.04296875
 20
-2998.828125
 10
2439.046875
 20
-2998.828125
 10
2429.05078125
 20
-2988.83203125
 10
2419.0546875
 20
-2988.83203125
 10
2409.05859375
 20
-2978.8359375
 10
2409.05859375
 20
-2968.83984375
 10
2399.0625
 20
-2978.8359375
 10
2389.06640625
 20
-2968.83984375
 10
2389.06640625
 20
-2958.84375
 10
2379.0703125
 20
-2958.84375
 10
2369.07421875
 20
-2958.84375
 10
2359.078125
 20
-2948.84765625
 10
2359.078125
 20
-2938.8515625
 10
2349.08203125
 20
-2938.8515625
 10
2339.0859375
 20
-2938.8515625
 10
2329.08984375
 20
-2938.8515625
 10
2319.09375
 20
-2928.85546875
 10
2309.09765625
 20
-2928.85546875
 10
2299.1015625
 20
-2928.85546875
 10
2289.10546875
 20
-2938.8515625
 10
2279.109375
 20
-2928.85546875
 10
2269.11328125
 20
-2918.859375
 10
2279.109375
 20
-2908.86328125
 10
2269.11328125
 20
-2908.86328125
 10
2259.1171875
 20
-2898.8671875
 10
2249.12109375
 20
-2898.8671875
 10
2239.125
 20
-2888.87109375
 10
2239.125
 20
-2878.875
 10
2229.12890625
 20
-2868.87890625
 10
2229.12890625
 20
-2858.8828125
 10
2219.1328125
 20
-2848.88671875
 10
2209.13671875
 20
-2848.88671875
 10
2199.140625
 20
-2838.890625
 10
2189.14453125
 20
-2838.890625
 10
2179.1484375
 20
-2828.89453125
 10
2189.14453125
 20
-2818.8984375
 10
2199.140625
 20
-2818.8984375
 10
2189.14453125
 20
-2808.90234375
 10
2189.14453125
 20
-2798.90625
 10
2199.140625
 20
-2788.91015625
 10
2189.14453125
 20
-2778.9140625
 10
2179.1484375
 20
-2768.91796875
 10
2169.15234375
 20
-2758.921875
 10
2159.15625
 20
-2748.92578125
 10
2149.16015625
 20
-2738.9296875
 10
2159.15625
 20
-2728.93359375
 10
2149.16015625
 20
-2718.9375
 10
2139.1640625
 20
-2708.94140625
 10
2139.1640625
 20
-2698.9453125
 10
2139.1640625
 20
-2688.94921875
 10
2129.16796875
 20
-2678.953125
 10
2129.16796875
 20
-2668.95703125
 10
2119.171875
 20
-2658.9609375
 10
2129.16796875
 20
-2648.96484375
 10
2119.171875
 20
-2638.96875
 10
2119.171875
 20
-2628.97265625
 10
2119.171875
 20
-2618.9765625
 10
2119.171875
 20
-2608.98046875
 10
2119.171875
 20
-2598.984375
 10
2119.171875
 20
-2588.98828125
 10
2109.17578125
 20
-2578.9921875
 10
2119.171875
 20
-2568.99609375
 10
2119.171875
 20
-2559.0
 10
2119.171875
 20
-2549.00390625
 10
2119.171875
 20
-2539.0078125
 10
2119.171875
 20
-2529.01171875
 10
2129.16796875
 20
-2519.015625
 10
2119.171875
 20
-2509.01953125
 10
2119.171875
 20
-2499.0234375
 10
2119.171875
 20
-2489.02734375
 10
2129.16796875
 20
-2479.03125
 10
2129.16796875
 20
-2469.03515625
 10
2129.16796875
 20
-2459.0390625
 10
2139.1640625
 20
-2449.04296875
 10
2129.16796875
 20
-2439.046875
 10
2139.1640625
 20
-2429.05078125
 10
2129.16796875
 20
-2419.0546875
 10
2139.1640625
 20
-2409.05859375
 10
2139.1640625
 20
-2399.0625
 10
2149.16015625
 20
-2389.06640625
 10
2149.16015625
 20
-2379.0703125
 10
2159.15625
 20
-2369.07421875
 10
2159.15625
 20
-2359.078125
 10
2169.15234375
 20
-2349.08203125
 10
2159.15625
 20
-2339.0859375
 10
2169.15234375
 20
-2329.08984375
 10
2159.15625
 20
-2319.09375
 10
2169.15234375
 20
-2309.09765625
 10
2179.1484375
 20
-2309.09765625
 10
2179.1484375
 20
-2299.1015625
 10
2189.14453125
 20
-2289.10546875
 10
2199.140625
 20
-2289.10546875
 10
2199.140625
 20
-2279.109375
 10
2209.13671875
 20
-2269.11328125
 10
2219.1328125
 20
-2269.11328125
 10
2219.1328125
 20
-2259.1171875
 10
2229.12890625
 20
-2249.12109375
 10
2239.125
 20
-2239.125
 10
2249.12109375
 20
-2229.12890625
 10
2259.1171875
 20
-2229.12890625
 10
2269.11328125
 20
-2229.12890625
 10
2279.109375
 20
-2229.12890625
 10
2289.10546875
 20
-2239.125
 10
2279.109375
 20
-2249.12109375
 10
2279.109375
 20
-2259.1171875
 10
2279.109375
 20
-2269.11328125
 10
2279.109375
 20
-2279.109375
 10
2269.11328125
 20
-2289.10546875
 10
2259.1171875
 20
-2289.10546875
 10
2259.1171875
 20
-2299.1015625
 10
2259.1171875
 20
-2309.09765625
 10
2249.12109375
 20
-2319.09375
 10
2239.125
 20
-2329.08984375
 10
2239.125
 20
-2339.0859375
 10
2239.125
 20
-2349.08203125
 10
2229.12890625
 20
-2359.078125
 10
2219.1328125
 20
-2349.08203125
 10
2229.12890625
 20
-2359.078125
 10
2219.1328125
 20
-2369.07421875
 10
2209.13671875
 20
-2369.07421875
 10
2199.140625
 20
-2369.07421875
 10
2199.140625
 20
-2379.0703125
 10
2189.14453125
 20
-2389.06640625
 10
2189.14453125
 20
-2399.0625
 10
2189.14453125
 20
-2409.05859375
 10
2189.14453125
 20
-2419.0546875
 10
2179.1484375
 20
-2429.05078125
 10
2179.1484375
 20
-2439.046875
 10
2179.1484375
 20
-2449.04296875
 10
2179.1484375
 20
-2459.0390625
 10
2169.15234375
 20
-2469.03515625
 10
2179.1484375
 20
-2479.03125
 10
2179.1484375
 20
-2489.02734375
 10
2179.1484375
 20
-2499.0234375
 10
2169.15234375
 20
-2509.01953125
 10
2169.15234375
 20
-2519.015625
 10
2169.15234375
 20
-2529.01171875
 10
2169.15234375
 20
-2539.0078125
 10
2169.15234375
 20
-2549.00390625
 10
2179.1484375
 20
-2559.0
 10
2169.15234375
 20
-2568.99609375
 10
2179.1484375
 20
-2578.9921875
 10
2169.15234375
 20
-2588.98828125
 10
2179.1484375
 20
-2598.984375
 10
2179.1484375
 20
-2608.98046875
 10
2179.1484375
 20
-2618.9765625
 10
2179.1484375
 20
-2628.97265625
 10
2189.14453125
 20
-2638.96875
 10
2179.1484375
 20
-2648.96484375
 10
2189.14453125
 20
-2658.9609375
 10
2199.140625
 20
-2668.95703125
 10
2189.14453125
 20
-2678.953125
 10
2199.140625
 20
-2688.94921875
 10
2189.14453125
 20
-2698.9453125
 10
2189.14453125
 20
-2708.94140625
 10
2199.140625
 20
-2718.9375
 10
2209.13671875
 20
-2728.93359375
 10
2219.1328125
 20
-2728.93359375
 10
2229.12890625
 20
-2738.9296875
 10
2219.1328125
 20
-2748.92578125
 10
2209.13671875
 20
-2748.92578125
 10
2219.1328125
 20
-2748.92578125
 10
2229.12890625
 20
-2748.92578125
 10
2239.125
 20
-2758.921875
 10
2229.12890625
 20
-2768.91796875
 10
2239.125
 20
-2778.9140625
 10
2249.12109375
 20
-2768.91796875
 10
2259.1171875
 20
-2778.9140625
 10
2259.1171875
 20
-2788.91015625
 10
2269.11328125
 20
-2788.91015625
 10
2279.109375
 20
-2798.90625
 10
2279.109375
 20
-2808.90234375
 10
2289.10546875
 20
-2808.90234375
 10
2299.1015625
 20
-2808.90234375
 10
2309.09765625
 20
-2818.8984375
 10
2309.09765625
 20
-2828.89453125
 10
2319.09375
 20
-2818.8984375
 10
2329.08984375
 20
-2818.8984375
 10
2339.0859375
 20
-2828.89453125
 10
2329.08984375
 20
-2838.890625
 10
2339.0859375
 20
-2828.89453125
 10
2349.08203125
 20
-2818.8984375
 10
2359.078125
 20
-2818.8984375
 10
2369.07421875
 20
-2818.8984375
 10
2379.0703125
 20
-2828.89453125
 10
2369.07421875
 20
-2838.890625
 10
2359.078125
 20
-2838.890625
 10
2359.078125
 20
-2848.88671875
 10
2359.078125
 20
-2858.8828125
 10
2359.078125
 20
-2868.87890625
 10
2369.07421875
 20
-2868.87890625
 10
2379.0703125
 20
-2878.875
 10
2379.0703125
 20
-2888.87109375
 10
2389.06640625
 20
-2888.87109375
 10
2399.0625
 20
-2898.8671875
 10
2399.0625
 20
-2908.86328125
 10
2409.05859375
 20
-2898.8671875
 10
2419.0546875
 20
-2908.86328125
 10
2419.0546875
 20
-2918.859375
 10
2429.05078125
 20
-2918.859375
 10
2439.046875
 20
-2918.859375
 10
2449.04296875
 20
-2918.859375
 10
2459.0390625
 20
-2928.85546875
 10
2469.03515625
 20
-2918.859375
 10
2479.03125
 20
-2918.859375
 10
2489.02734375
 20
-2928.85546875
 10
2499.0234375
 20
-2928.85546875
 10
2509.01953125
 20
-2928.85546875
 10
2519.015625
 20
-2928.85546875
 10
2529.01171875
 20
-2928.85546875
 10
2539.0078125
 20
-2928.85546875
 10
2549.00390625
 20
-2928.85546875
 10
2559.0
 20
-2928.85546875
 10
2568.99609375
 20
-2918.859375
 10
2578.9921875
 20
-2928.85546875
 10
2588.98828125
 20
-2918.859375
 10
2598.984375
 20
-2918.859375
 10
2608.98046875
 20
-2918.859375
 10
2618.9765625
 20
-2928.85546875
 10
2628.97265625
 20
-2918.859375
 10
2638.96875
 20
-2918.859375
 10
2648.96484375
 20
-2918.859375
 10
2658.9609375
 20
-2918.859375
 10
2668.95703125
 20
-2918.859375
 10
2678.953125
 20
-2918.859375
 10
2688.94921875
 20
-2908.86328125
 10
2698.9453125
 20
-2918.859375
 10
2708.94140625
 20
-2908.86328125
 10
2718.9375
 20
-2908.86328125
 10
2728.93359375
 20
-2898.8671875
 10
2738.9296875
 20
-2898.8671875
 10
2748.92578125
 20
-2888.87109375
 10
2758.921875
 20
-2888.87109375
 10
2758.921875
 20
-2878.875
 10
2768.91796875
 20
-2868.87890625
 10
2768.91796875
 20
-2858.8828125
 10
2778.9140625
 20
-2848.88671875
 10
2788.91015625
 20
-2858.8828125
 10
2798.90625
 20
-2848.88671875
 10
2808.90234375
 20
-2838.890625
 10
2818.8984375
 20
-2828.89453125
 10
2828.89453125
 20
-2818.8984375
 10
2838.890625
 20
-2808.90234375
 10
2838.890625
 20
-2798.90625
 10
2838.890625
 20
-2788.91015625
 10
2848.88671875
 20
-2778.9140625
 10
2858.8828125
 20
-2768.91796875
 10
2868.87890625
 20
-2768.91796875
 10
2878.875
 20
-2758.921875
 10
2888.87109375
 20
-2748.92578125
 10
2898.8671875
 20
-2738.9296875
 10
2908.86328125
 20
-2728.93359375
 10
2908.86328125
 20
-2718.9375
 10
2908.86328125
 20
-2708.94140625
 10
2918.859375
 20
-2698.9453125
 10
2918.859375
 20
-2688.94921875
 10
2918.859375
 20
-2678.953125
 10
2918.859375
 20
-2668.95703125
 10
2928.85546875
 20
-2658.9609375
 10
2928.85546875
 20
-2648.96484375
 10
2938.8515625
 20
-2638.96875
 10
2938.8515625
 20
-2628.97265625
 10
2938.8515625
 20
-2618.9765625
 10
2938.8515625
 20
-2608.98046875
 10
2938.8515625
 20
-2598.984375
 10
2938.8515625
 20
-2588.98828125
 10
2938.8515625
 20
-2578.9921875
 10
2938.8515625
 20
-2568.99609375
 10
2938.8515625
 20
-2559.0
 10
2928.85546875
 20
-2549.00390625
 10
2928.85546875
 20
-2539.0078125
 10
2928.85546875
 20
-2529.01171875
 10
2928.85546875
 20
-2519.015625
 10
2928.85546875
 20
-2509.01953125
 10
2928.85546875
 20
-2499.0234375
 10
2928.85546875
 20
-2489.02734375
 10
2928.85546875
 20
-2479.03125
 10
2928.85546875
 20
-2469.03515625
 10
2928.85546875
 20
-2459.0390625
 10
2918.859375
 20
-2449.04296875
 10
2918.859375
 20
-2439.046875
 10
2918.859375
 20
-2429.05078125
 10
2918.859375
 20
-2419.0546875
 10
2918.859375
 20
-2409.05859375
 10
2908.86328125
 20
-2399.0625
 10
2908.86328125
 20
-2389.06640625
 10
2898.8671875
 20
-2379.0703125
 10
2898.8671875
 20
-2369.07421875
 10
2898.8671875
 20
-2359.078125
 10
2888.87109375
 20
-2349.08203125
 10
2888.87109375
 20
-2339.0859375
 10
2878.875
 20
-2349.08203125
 10
2868.87890625
 20
-2339.0859375
 10
2868.87890625
 20
-2329.08984375
 10
2858.8828125
 20
-2319.09375
 10
2848.88671875
 20
-2309.09765625
 10
2838.890625
 20
-2299.1015625
 10
2838.890625
 20
-2289.10546875
 10
2828.89453125
 20
-2279.109375
 10
2828.89453125
 20
-2269.11328125
 10
2818.8984375
 20
-2269.11328125
 10
2808.90234375
 20
-2259.1171875
 10
2798.90625
 20
-2249.12109375
 10
2788.91015625
 20
-2249.12109375
 10
2778.9140625
 20
-2239.125
 10
2768.91796875
 20
-2229.12890625
 10
2758.921875
 20
-2229.12890625
 10
2748.92578125
 20
-2219.1328125
 10
2738.9296875
 20
-2209.13671875
 10
2728.93359375
 20
-2209.13671875
 10
2718.9375
 20
-2199.140625
 10
2708.94140625
 20
-2199.140625
 10
2698.9453125
 20
-2209.13671875
 10
2688.94921875
 20
-2209.13671875
 10
2678.953125
 20
-2209.13671875
 10
2668.95703125
 20
-2219.1328125
 10
2658.9609375
 20
-2209.13671875
 10
2658.9609375
 20
-2199.140625
 10
2648.96484375
 20
-2199.140625
 10
2638.96875
 20
-2189.14453125
 10
2628.97265625
 20
-2199.140625
 10
2618.9765625
 20
-2189.14453125
 10
2608.98046875
 20
-2189.14453125
 10
2598.984375
 20
-2189.14453125
 10
2588.98828125
 20
-2189.14453125
 10
2578.9921875
 20
-2189.14453125
 10
2568.99609375
 20
-2189.14453125
 10
2559.0
 20
-2189.14453125
 10
2549.00390625
 20
-2199.140625
 10
2539.0078125
 20
-2189.14453125
 10
2529.01171875
 20
-2189.14453125
 10
2519.015625
 20
-2189.14453125
 10
2509.01953125
 20
-2189.14453125
 10
2499.0234375
 20
-2189.14453125
 10
2489.02734375
 20
-2189.14453125
 10
2479.03125
 20
-2189.14453125
 10
2469.03515625
 20
-2199.140625
 10
2459.0390625
 20
-2189.14453125
 10
2449.04296875
 20
-2199.140625
 10
2439.046875
 20
-2209.13671875
 10
2429.05078125
 20
-2219.1328125
 10
2419.0546875
 20
-2209.13671875
 10
2409.05859375
 20
-2219.1328125
 10
2399.0625
 20
-2209.13671875
 10
2389.06640625
 20
-2219.1328125
 10
2379.0703125
 20
-2209.13671875
 10
2369.07421875
 20
-2209.13671875
 10
2359.078125
 20
-2209.13671875
 10
2349.08203125
 20
-2219.1328125
 10
2339.0859375
 20
-2219.1328125
 10
2329.08984375
 20
-2219.1328125
 10
2319.09375
 20
-2229.12890625
 10
2309.09765625
 20
-2229.12890625
 10
2299.1015625
 20
-2229.12890625
 10
2289.10546875
 20
-2229.12890625
 10
2279.109375
 20
-2229.12890625
 10
2269.11328125
 20
-2219.1328125
 10
2279.109375
 20
-2209.13671875
 10
2269.11328125
 20
-2199.140625
 10
2269.11328125
 20
-2189.14453125
 10
2259.1171875
 20
-2189.14453125
 10
2249.12109375
 20
-2179.1484375
 10
2259.1171875
 20
-2169.15234375
 10
2269.11328125
 20
-2159.15625
 10
2279.109375
 20
-2159.15625
 10
2289.10546875
 20
-2149.16015625
 10
2299.1015625
 20
-2149.16015625
 10
2309.09765625
 20
-2149.16015625
 10
2319.09375
 20
-2149.16015625
 10
2329.08984375
 20
-2149.16015625
 10
2339.0859375
 20
-2149.16015625
 10
2349.08203125
 20
-2149.16015625
 10
2359.078125
 20
-2149.16015625
 10
2369.07421875
 20
-2149.16015625
 10
2379.0703125
 20
-2139.1640625
 10
2389.06640625
 20
-2139.1640625
 10
2399.0625
 20
-2139.1640625
 10
2409.05859375
 20
-2129.16796875
 10
2419.0546875
 20
-2129.16796875
 10
2429.05078125
 20
-2129.16796875
 10
2439.046875
 20
-2129.16796875
 10
2449.04296875
 20
-2119.171875
 10
2459.0390625
 20
-2119.171875
 10
2469.03515625
 20
-2119.171875
 10
2479.03125
 20
-2129.16796875
 10
2489.02734375
 20
-2119.171875
 10
2499.0234375
 20
-2129.16796875
  0
LWPOLYLINE
  5
7F
330
17
100
AcDbEntity
  8
substrate
100
AcDbPolyline
 90
1
 70
1
 43
0.5
 10
2299.1015625
 20
-2908.86328125
  0
LWPOLYLINE
  5
80
330
17
100
AcDbEntity
  8
substrate
100
AcDbPolyline
 90
4
 70
1
 43
0.5
 10
1139.5546875
 20
-2079.1875
 10
1149.55078125
 20
-2069.19140625
 10
1159.546875
 20
-2079.1875
 10
1149.55078125
 20
-2089.18359375
  0
LWPOLYLINE
  5
81
330
17
100
AcDbEntity
  8
substrate
100
AcDbPolyline
 90
4
 70
1
 43
0.5
 10
1119.5625
 20
-2079.1875
 10
1129.55859375
 20
-2069.19140625
 10
1139.5546875
 20
-2079.1875
 10
1129.55859375
 20
-2089.18359375
  0
LWPOLYLINE
  5
82
330
17
100
AcDbEntity
  8
substrate
100
AcDbPolyline
 90
4
 70
1
 43
0.5
 10
1939.2421875
 20
-1699.3359375
 10
1949.23828125
 20
-1689.33984375
 10
1959.234375
 20
-1699.3359375
 10
1949.23828125
 20
-1709.33203125
  0
LWPOLYLINE
  5
83
330
17
100
AcDbEntity
  8
substrate
100
AcDbPolyline
 90
4
 70
1
 43
0.5
 10
1909.25390625
 20
-1689.33984375
 10
1919.25
 20
-1679.34375
 10
1929.24609375
 20
-1689.33984375
 10
1919.25
 20
-1699.3359375
  0
LWPOLYLINE
  5
84
330
17
100
AcDbEntity
  8
substrate
100
AcDbPolyline
 90
4
 70
1
 43
0.5
 10
2229.12890625
 20
-1529.40234375
 10
2239.125
 20
-1519.40625
 10
2249.12109375
 20
-1529.40234375
 10
2239.125
 20
-1539.3984375
  0
LWPOLYLINE
  5
85
330
17
100
AcDbEntity
  8
substrate
100
AcDbPolyline
 90
4
 70
1
 43
0.5
 10
1049.58984375
 20
-1269.50390625
 10
1059.5859375
 20
-1259.5078125
 10
1069.58203125
 20
-1269.50390625
 10
1059.5859375
 20
-1279.5
  0
LWPOLYLINE
  5
86
330
17
100
AcDbEntity
  8
substrate
100
AcDbPolyline
 90
4
 70
1
 43
0.5
 10
3608.58984375
 20
-1109.56640625
 10
3618.5859375
 20
-1099.5703125
 10
3628.58203125
 20
-1109.56640625
 10
3618.5859375
 20
-1119.5625
  0
LWPOLYLINE
  5
87
330
17
100
AcDbEntity
  8
substrate
100
AcDbPolyline
 90
4
 70
1
 43
0.5
 10
4198.359375
 20
-959.625
 10
4208.35546875
 20
-949.62890625
 10
4218.3515625
 20
-959.625
 10
4208.35546875
 20
-969.62109375
  0
LWPOLYLINE
  5
88
330
17
100
AcDbEntity
  8
substrate
100
AcDbPolyline
 90
4
 70
1
 43
0.5
 10
2598.984375
 20
-959.625
 10
2608.98046875
 20
-949.62890625
 10
2618.9765625
 20
-959.625
 10
2608.98046875
 20
-969.62109375
  0
LWPOLYLINE
  5
89
330
17
100
AcDbEntity
  8
substrate
100
AcDbPolyline
 90
4
 70
1
 43
0.5
 10
319.875
 20
-959.625
 10
329.87109375
 20
-949.62890625
 10
339.8671875
 20
-959.625
 10
329.87109375
 20
-969.62109375
  0
LWPOLYLINE
  5
8A
330
17
100
AcDbEntity
  8
substrate
100
AcDbPolyline
 90
4
 70
1
 43
0.5
 10
3508.62890625
 20
-889.65234375
 10
3518.625
 20
-879.65625
 10
3528.62109375
 20
-889.65234375
 10
3518.625
 20
-899.6484375
  0
LWPOLYLINE
  5
8B
330
17
100
AcDbEntity
  8
substrate
100
AcDbPolyline
 90
4
 70
1
 43
0.5
 10
309.87890625
 20
-889.65234375
 10
319.875
 20
-879.65625
 10
329.87109375
 20
-889.65234375
 10
319.875
 20
-899.6484375
  0
LWPOLYLINE
  5
8C
330
17
100
AcDbEntity
  8
substrate
100
AcDbPolyline
 90
4
 70
1
 43
0.5
 10
309.87890625
 20
-429.83203125
 10
319.875
 20
-419.8359375
 10
329.87109375
 20
-429.83203125
 10
319.875
 20
-439.828125
  0
LWPOLYLINE
  5
8D
330
17
100
AcDbEntity
  8
substrate
100
AcDbPolyline
 90
4
 70
1
 43
0.5
 10
1589.37890625
 20
-409.83984375
 10
1599.375
 20
-399.84375
 10
1609.37109375
 20
-409.83984375
 10
1599.375
 20
-419.8359375
  0
LWPOLYLINE
  5
8E
330
17
100
AcDbEntity
  8
substrate
100
AcDbPolyline
 90
4
 70
1
 43
0.5
 10
949.62890625
 20
-409.83984375
 10
959.625
 20
-399.84375
 10
969.62109375
 20
-409.83984375
 10
959.625
 20
-419.8359375
  0
LWPOLYLINE
  5
8F
330
17
100
AcDbEntity
  8
substrate
100
AcDbPolyline
 90
4
 70
1
 43
0.5
 10
4528.23046875
 20
-329.87109375
 10
4538.2265625
 20
-319.875
 10
4548.22265625
 20
-329.87109375
 10
4538.2265625
 20
-339.8671875
  0
LWPOLYLINE
  5
90
330
17
100
AcDbEntity
  8
substrate
100
AcDbPolyline
 90
4
 70
1
 43
0.5
 10
4518.234375
 20
-319.875
 10
4528.23046875
 20
-309.87890625
 10
4538.2265625
 20
-319.875
 10
4528.23046875
 20
-329.87109375
  0
LWPOLYLINE
  5
91
330
17
100
AcDbEntity
  8
substrate
100
AcDbPolyline
 90
4
 70
1
 43
0.5
 10
4528.23046875
 20
-309.87890625
 10
4538.2265625
 20
-299.8828125
 10
4548.22265625
 20
-309.87890625
 10
4538.2265625
 20
-319.875
  0
LWPOLYLINE
  5
92
330
17
100
AcDbEntity
  8
substrate
100
AcDbPolyline
 90
4
 70
1
 43
0.5
 10
3888.48046875
 20
-309.87890625
 10
3898.4765625
 20
-299.8828125
 10
3908.47265625
 20
-309.87890625
 10
3898.4765625
 20
-319.875
  0
LWPOLYLINE
  5
93
330
17
100
AcDbEntity
  8
substrate
100
AcDbPolyline
 90
4
 70
1
 43
0.5
 10
949.62890625
 20
-269.89453125
 10
959.625
 20
-259.8984375
 10
969.62109375
 20
-269.89453125
 10
959.625
 20
-279.890625
  0
LWPOLYLINE
  5
94
330
17
100
AcDbEntity
  8
substrate
100
AcDbPolyline
 90
4
 70
1
 43
0.5
 10
3508.62890625
 20
-249.90234375
 10
3518.625
 20
-239.90625
 10
3528.62109375
 20
-249.90234375
 10
3518.625
 20
-259.8984375
  0
LWPOLYLINE
  5
95
330
17
100
AcDbEntity
  8
substrate
100
AcDbPolyline
 90
4
 70
1
 43
0.5
 10
1589.37890625
 20
-249.90234375
 10
1599.375
 20
-239.90625
 10
1609.37109375
 20
-249.90234375
 10
1599.375
 20
-259.8984375
  0
LWPOLYLINE
  5
96
330
17
100
AcDbEntity
  8
substrate
100
AcDbPolyline
 90
4
 70
1
 43
0.5
 10
949.62890625
 20
-249.90234375
 10
959.625
 20
-239.90625
 10
969.62109375
 20
-249.90234375
 10
959.625
 20
-259.8984375
  0
LWPOLYLINE
  5
97
330
17
100
AcDbEntity
  8
substrate
100
AcDbPolyline
 90
4
 70
1
 43
0.5
 10
629.75390625
 20
-249.90234375
 10
639.75
 20
-239.90625
 10
649.74609375
 20
-249.90234375
 10
639.75
 20
-259.8984375
  0
LWPOLYLINE
  5
98
330
17
100
AcDbEntity
  8
substrate
100
AcDbPolyline
 90
4
 70
1
 43
0.5
 10
4168.37109375
 20
-79.96875
 10
4178.3671875
 20
-69.97265625
 10
4188.36328125
 20
-79.96875
 10
4178.3671875
 20
-89.96484375
  0
ENDSEC
  0
SECTION
  2
OBJECTS
  0
DICTIONARY
  5
A
330
0
100
AcDbDictionary
280
0
281
1
  3
ACAD_COLOR
350
B
  3
ACAD_GROUP
350
C
  3
ACAD_LAYOUT
350
D
  3
ACAD_MATERIAL
350
E
  3
ACAD_MLEADERSTYLE
350
F
  3
ACAD_MLINESTYLE
350
10
  3
ACAD_PLOTSETTINGS
350
11
  3
ACAD_PLOTSTYLENAME
350
12
  3
ACAD_SCALELIST
350
14
  3
ACAD_TABLESTYLE
350
15
  3
ACAD_VISUALSTYLE
350
16
  3
EZDXF_META
350
2D
  0
DICTIONARY
  5
B
330
A
100
AcDbDictionary
280
0
281
1
  0
DICTIONARY
  5
C
330
A
100
AcDbDictionary
280
0
281
1
  0
DICTIONARY
  5
D
330
A
100
AcDbDictionary
280
0
281
1
  3
Model
350
1A
  3
Layout1
350
1E
  0
DICTIONARY
  5
E
330
A
100
AcDbDictionary
280
0
281
1
  3
ByBlock
350
1F
  3
ByLayer
350
20
  3
Global
350
21
  0
DICTIONARY
  5
F
330
A
100
AcDbDictionary
280
0
281
1
  3
Standard
350
2C
  0
DICTIONARY
  5
10
330
A
100
AcDbDictionary
280
0
281
1
  3
Standard
350
22
  0
DICTIONARY
  5
11
330
A
100
AcDbDictionary
280
0
281
1
  0
ACDBDICTIONARYWDFLT
  5
12
330
A
100
AcDbDictionary
280
0
281
1
  3
Normal
350
13
100
AcDbDictionaryWithDefault
340
13
  0
ACDBPLACEHOLDER
  5
13
330
12
  0
DICTIONARY
  5
14
330
A
100
AcDbDictionary
280
0
281
1
  0
DICTIONARY
  5
15
330
A
100
AcDbDictionary
280
0
281
1
  0
DICTIONARY
  5
16
330
A
100
AcDbDictionary
280
0
281
1
  0
LAYOUT
  5
1A
330
D
100
AcDbPlotSettings
  1

  2
Adobe PDF
  4
A3
  6

 40
7.5
 41
20.0
 42
7.5
 43
20.0
 44
420.0
 45
297.0
 46
0.0
 47
0.0
 48
0.0
 49
0.0
140
0.0
141
0.0
142
1.0
143
1.0
 70
1024
 72
1
 73
0
 74
5
  7

 75
16
 76
0
 77
2
 78
300
147
1.0
148
0.0
149
0.0
100
AcDbLayout
  1
Model
 70
1
 71
0
 10
0.0
 20
0.0
 11
420.0
 21
297.0
 12
0.0
 22
0.0
 32
0.0
 14
1e+20
 24
1e+20
 34
1e+20
 15
-1e+20
 25
-1e+20
 35
-1e+20
146
0.0
 13
0.0
 23
0.0
 33
0.0
 16
1.0
 26
0.0
 36
0.0
 17
0.0
 27
1.0
 37
0.0
 76
1
330
17
  0
LAYOUT
  5
1E
330
D
100
AcDbPlotSettings
  1

  2
Adobe PDF
  4
A3
  6

 40
7.5
 41
20.0
 42
7.5
 43
20.0
 44
420.0
 45
297.0
 46
0.0
 47
0.0
 48
0.0
 49
0.0
140
0.0
141
0.0
142
1.0
143
1.0
 70
0
 72
1
 73
0
 74
5
  7

 75
16
 76
0
 77
2
 78
300
147
1.0
148
0.0
149
0.0
100
AcDbLayout
  1
Layout1
 70
1
 71
1
 10
0.0
 20
0.0
 11
420.0
 21
297.0
 12
0.0
 22
0.0
 32
0.0
 14
1e+20
 24
1e+20
 34
1e+20
 15
-1e+20
 25
-1e+20
 35
-1e+20
146
0.0
 13
0.0
 23
0.0
 33
0.0
 16
1.0
 26
0.0
 36
0.0
 17
0.0
 27
1.0
 37
0.0
 76
1
330
1B
  0
MATERIAL
  5
1F
102
{ACAD_REACTORS
330
E
102
}
330
E
100
AcDbMaterial
  1
ByBlock
  2

 70
0
 40
1.0
 71
1
 41
1.0
 91
-1023410177
 42
1.0
 72
1
  3

 73
1
 74
1
 75
1
 44
0.5
 73
0
 45
1.0
 46
1.0
 77
1
  4

 78
1
 79
1
170
1
 48
1.0
171
1
  6

172
1
173
1
174
1
140
1.0
141
1.0
175
1
  7

176
1
177
1
178
1
143
1.0
179
1
  8

270
1
271
1
272
1
145
1.0
146
1.0
273
1
  9

274
1
275
1
276
1
 42
1.0
 72
1
  3

 73
1
 74
1
 75
1
 94
63
  0
MATERIAL
  5
20
102
{ACAD_REACTORS
330
E
102
}
330
E
100
AcDbMaterial
  1
ByLayer
  2

 70
0
 40
1.0
 71
1
 41
1.0
 91
-1023410177
 42
1.0
 72
1
  3

 73
1
 74
1
 75
1
 44
0.5
 73
0
 45
1.0
 46
1.0
 77
1
  4

 78
1
 79
1
170
1
 48
1.0
171
1
  6

172
1
173
1
174
1
140
1.0
141
1.0
175
1
  7

176
1
177
1
178
1
143
1.0
179
1
  8

270
1
271
1
272
1
145
1.0
146
1.0
273
1
  9

274
1
275
1
276
1
 42
1.0
 72
1
  3

 73
1
 74
1
 75
1
 94
63
  0
MATERIAL
  5
21
102
{ACAD_REACTORS
330
E
102
}
330
E
100
AcDbMaterial
  1
Global
  2

 70
0
 40
1.0
 71
1
 41
1.0
 91
-1023410177
 42
1.0
 72
1
  3

 73
1
 74
1
 75
1
 44
0.5
 73
0
 45
1.0
 46
1.0
 77
1
  4

 78
1
 79
1
170
1
 48
1.0
171
1
  6

172
1
173
1
174
1
140
1.0
141
1.0
175
1
  7

176
1
177
1
178
1
143
1.0
179
1
  8

270
1
271
1
272
1
145
1.0
146
1.0
273
1
  9

274
1
275
1
276
1
 42
1.0
 72
1
  3

 73
1
 74
1
 75
1
 94
63
  0
MLINESTYLE
  5
22
102
{ACAD_REACTORS
330
10
102
}
330
10
100
AcDbMlineStyle
  2
Standard
 70
0
  3

 62
256
 51
90.0
 52
90.0
 71
2
 49
0.5
 62
256
  6
BYLAYER
 49
-0.5
 62
256
  6
BYLAYER
  0
MLEADERSTYLE
  5
2C
102
{ACAD_REACTORS
330
F
102
}
330
F
100
AcDbMLeaderStyle
179
2
170
2
171
1
172
0
 90
2
 40
0.0
 41
0.0
173
1
 91
-1056964608
 92
-2
290
1
 42
2.0
291
1
 43
8.0
  3
Standard
 44
4.0
300

342
29
174
1
175
1
176
0
178
1
 93
-1056964608
 45
4.0
292
0
297
0
 46
4.0
 94
-1056964608
 47
1.0
 49
1.0
140
1.0
294
1
141
0.0
177
0
142
1.0
295
0
296
0
143
3.75
271
0
272
9
273
9
  0
DICTIONARY
  5
2D
330
A
100
AcDbDictionary
281
1
  3
CREATED_BY_EZDXF
350
2E
  3
WRITTEN_BY_EZDXF
350
9B
  0
DICTIONARYVAR
  5
2E
330
2D
100
DictionaryVariables
280
0
  1
1.1.0 @ 2025-02-04T00:02:20.461402+00:00
  0
DICTIONARYVAR
  5
9B
330
2D
100
DictionaryVariables
280
0
  1
1.1.0 @ 2025-02-04T00:02:20.470018+00:00
  0
ENDSEC
  0
EOF
