  0
SECTION
  2
HEADER
  9
$ACADVER
  1
AC1027
  9
$ACADMAINTVER
 70
105
  9
$DWGCODEPAGE
  3
ANSI_1252
  9
$LASTSAVEDBY
  1
ezdxf
  9
$REQUIREDVERSIONS
160
0
  9
$INSBASE
 10
0.0
 20
0.0
 30
0.0
  9
$EXTMIN
 10
1e+20
 20
1e+20
 30
1e+20
  9
$EXTMAX
 10
-1e+20
 20
-1e+20
 30
-1e+20
  9
$LIMMIN
 10
0.0
 20
0.0
  9
$LIMMAX
 10
420.0
 20
297.0
  9
$ORTHOMODE
 70
0
  9
$REGENMODE
 70
1
  9
$FILLMODE
 70
1
  9
$QTEXTMODE
 70
0
  9
$MIRRTEXT
 70
1
  9
$LTSCALE
 40
1.0
  9
$ATTMODE
 70
1
  9
$TEXTSIZE
 40
2.5
  9
$TRACEWID
 40
1.0
  9
$TEXTSTYLE
  7
Standard
  9
$CLAYER
  8
0
  9
$CELTYPE
  6
ByLayer
  9
$CECOLOR
 62
256
  9
$CELTSCALE
 40
1.0
  9
$DISPSILH
 70
0
  9
$DIMSCALE
 40
1.0
  9
$DIMASZ
 40
2.5
  9
$DIMEXO
 40
0.625
  9
$DIMDLI
 40
3.75
  9
$DIMRND
 40
0.0
  9
$DIMDLE
 40
0.0
  9
$DIMEXE
 40
1.25
  9
$DIMTP
 40
0.0
  9
$DIMTM
 40
0.0
  9
$DIMTXT
 40
2.5
  9
$DIMCEN
 40
2.5
  9
$DIMTSZ
 40
0.0
  9
$DIMTOL
 70
0
  9
$DIMLIM
 70
0
  9
$DIMTIH
 70
0
  9
$DIMTOH
 70
0
  9
$DIMSE1
 70
0
  9
$DIMSE2
 70
0
  9
$DIMTAD
 70
1
  9
$DIMZIN
 70
8
  9
$DIMBLK
  1

  9
$DIMASO
 70
1
  9
$DIMSHO
 70
1
  9
$DIMPOST
  1

  9
$DIMAPOST
  1

  9
$DIMALT
 70
0
  9
$DIMALTD
 70
3
  9
$DIMALTF
 40
0.03937007874
  9
$DIMLFAC
 40
1.0
  9
$DIMTOFL
 70
1
  9
$DIMTVP
 40
0.0
  9
$DIMTIX
 70
0
  9
$DIMSOXD
 70
0
  9
$DIMSAH
 70
0
  9
$DIMBLK1
  1

  9
$DIMBLK2
  1

  9
$DIMSTYLE
  2
ISO-25
  9
$DIMCLRD
 70
0
  9
$DIMCLRE
 70
0
  9
$DIMCLRT
 70
0
  9
$DIMTFAC
 40
1.0
  9
$DIMGAP
 40
0.625
  9
$DIMJUST
 70
0
  9
$DIMSD1
 70
0
  9
$DIMSD2
 70
0
  9
$DIMTOLJ
 70
0
  9
$DIMTZIN
 70
8
  9
$DIMALTZ
 70
0
  9
$DIMALTTZ
 70
0
  9
$DIMUPT
 70
0
  9
$DIMDEC
 70
2
  9
$DIMTDEC
 70
2
  9
$DIMALTU
 70
2
  9
$DIMALTTD
 70
3
  9
$DIMTXSTY
  7
Standard
  9
$DIMAUNIT
 70
0
  9
$DIMADEC
 70
0
  9
$DIMALTRND
 40
0.0
  9
$DIMAZIN
 70
0
  9
$DIMDSEP
 70
44
  9
$DIMATFIT
 70
3
  9
$DIMFRAC
 70
0
  9
$DIMLDRBLK
  1

  9
$DIMLUNIT
 70
2
  9
$DIMLWD
 70
-2
  9
$DIMLWE
 70
-2
  9
$DIMTMOVE
 70
0
  9
$DIMFXL
 40
1.0
  9
$DIMFXLON
 70
0
  9
$DIMJOGANG
 40
0.785398163397
  9
$DIMTFILL
 70
0
  9
$DIMTFILLCLR
 70
0
  9
$DIMARCSYM
 70
0
  9
$DIMLTYPE
  6

  9
$DIMLTEX1
  6

  9
$DIMLTEX2
  6

  9
$DIMTXTDIRECTION
 70
0
  9
$LUNITS
 70
2
  9
$LUPREC
 70
4
  9
$SKETCHINC
 40
1.0
  9
$FILLETRAD
 40
10.0
  9
$AUNITS
 70
0
  9
$AUPREC
 70
2
  9
$MENU
  1
.
  9
$ELEVATION
 40
0.0
  9
$PELEVATION
 40
0.0
  9
$THICKNESS
 40
0.0
  9
$LIMCHECK
 70
0
  9
$CHAMFERA
 40
0.0
  9
$CHAMFERB
 40
0.0
  9
$CHAMFERC
 40
0.0
  9
$CHAMFERD
 40
0.0
  9
$SKPOLY
 70
0
  9
$TDCREATE
 40
2460676.398275463
  9
$TDUCREATE
 40
2458532.153996898
  9
$TDUPDATE
 40
2460676.398275463
  9
$TDUUPDATE
 40
2458532.1544311
  9
$TDINDWG
 40
0.0
  9
$TDUSRTIMER
 40
0.0
  9
$USRTIMER
 70
1
  9
$ANGBASE
 50
0.0
  9
$ANGDIR
 70
0
  9
$PDMODE
 70
0
  9
$PDSIZE
 40
0.0
  9
$PLINEWID
 40
0.0
  9
$SPLFRAME
 70
0
  9
$SPLINETYPE
 70
6
  9
$SPLINESEGS
 70
8
  9
$HANDSEED
  5
3C
  9
$SURFTAB1
 70
6
  9
$SURFTAB2
 70
6
  9
$SURFTYPE
 70
6
  9
$SURFU
 70
6
  9
$SURFV
 70
6
  9
$UCSBASE
  2

  9
$UCSNAME
  2

  9
$UCSORG
 10
0.0
 20
0.0
 30
0.0
  9
$UCSXDIR
 10
1.0
 20
0.0
 30
0.0
  9
$UCSYDIR
 10
0.0
 20
1.0
 30
0.0
  9
$UCSORTHOREF
  2

  9
$UCSORTHOVIEW
 70
0
  9
$UCSORGTOP
 10
0.0
 20
0.0
 30
0.0
  9
$UCSORGBOTTOM
 10
0.0
 20
0.0
 30
0.0
  9
$UCSORGLEFT
 10
0.0
 20
0.0
 30
0.0
  9
$UCSORGRIGHT
 10
0.0
 20
0.0
 30
0.0
  9
$UCSORGFRONT
 10
0.0
 20
0.0
 30
0.0
  9
$UCSORGBACK
 10
0.0
 20
0.0
 30
0.0
  9
$PUCSBASE
  2

  9
$PUCSNAME
  2

  9
$PUCSORG
 10
0.0
 20
0.0
 30
0.0
  9
$PUCSXDIR
 10
1.0
 20
0.0
 30
0.0
  9
$PUCSYDIR
 10
0.0
 20
1.0
 30
0.0
  9
$PUCSORTHOREF
  2

  9
$PUCSORTHOVIEW
 70
0
  9
$PUCSORGTOP
 10
0.0
 20
0.0
 30
0.0
  9
$PUCSORGBOTTOM
 10
0.0
 20
0.0
 30
0.0
  9
$PUCSORGLEFT
 10
0.0
 20
0.0
 30
0.0
  9
$PUCSORGRIGHT
 10
0.0
 20
0.0
 30
0.0
  9
$PUCSORGFRONT
 10
0.0
 20
0.0
 30
0.0
  9
$PUCSORGBACK
 10
0.0
 20
0.0
 30
0.0
  9
$USERI1
 70
0
  9
$USERI2
 70
0
  9
$USERI3
 70
0
  9
$USERI4
 70
0
  9
$USERI5
 70
0
  9
$USERR1
 40
0.0
  9
$USERR2
 40
0.0
  9
$USERR3
 40
0.0
  9
$USERR4
 40
0.0
  9
$USERR5
 40
0.0
  9
$WORLDVIEW
 70
1
  9
$SHADEDGE
 70
3
  9
$SHADEDIF
 70
70
  9
$TILEMODE
 70
1
  9
$MAXACTVP
 70
64
  9
$PINSBASE
 10
0.0
 20
0.0
 30
0.0
  9
$PLIMCHECK
 70
0
  9
$PEXTMIN
 10
1e+20
 20
1e+20
 30
1e+20
  9
$PEXTMAX
 10
-1e+20
 20
-1e+20
 30
-1e+20
  9
$PLIMMIN
 10
0.0
 20
0.0
  9
$PLIMMAX
 10
420.0
 20
297.0
  9
$UNITMODE
 70
0
  9
$VISRETAIN
 70
1
  9
$PLINEGEN
 70
0
  9
$PSLTSCALE
 70
1
  9
$TREEDEPTH
 70
3020
  9
$CMLSTYLE
  2
Standard
  9
$CMLJUST
 70
0
  9
$CMLSCALE
 40
20.0
  9
$PROXYGRAPHICS
 70
1
  9
$MEASUREMENT
 70
1
  9
$CELWEIGHT
370
-1
  9
$ENDCAPS
280
0
  9
$JOINSTYLE
280
0
  9
$LWDISPLAY
290
0
  9
$INSUNITS
 70
6
  9
$HYPERLINKBASE
  1

  9
$STYLESHEET
  1

  9
$XEDIT
290
1
  9
$CEPSNTYPE
380
0
  9
$PSTYLEMODE
290
1
  9
$FINGERPRINTGUID
  2
{AD3A0BF7-A5E7-4374-AD53-06B6304EE65B}
  9
$VERSIONGUID
  2
{43DC0EAF-A5CE-4F64-88DD-EA551988C7D2}
  9
$EXTNAMES
290
1
  9
$PSVPSCALE
 40
0.0
  9
$OLESTARTUP
290
0
  9
$SORTENTS
280
127
  9
$INDEXCTL
280
0
  9
$HIDETEXT
280
1
  9
$XCLIPFRAME
280
0
  9
$HALOGAP
280
0
  9
$OBSCOLOR
 70
257
  9
$OBSLTYPE
280
0
  9
$INTERSECTIONDISPLAY
280
0
  9
$INTERSECTIONCOLOR
 70
257
  9
$DIMASSOC
280
2
  9
$PROJECTNAME
  1

  9
$CAMERADISPLAY
290
0
  9
$LENSLENGTH
 40
50.0
  9
$CAMERAHEIGHT
 40
0.0
  9
$STEPSPERSEC
 40
24.0
  9
$STEPSIZE
 40
100.0
  9
$3DDWFPREC
 40
2.0
  9
$PSOLWIDTH
 40
0.005
  9
$PSOLHEIGHT
 40
0.08
  9
$LOFTANG1
 40
1.570796326795
  9
$LOFTANG2
 40
1.570796326795
  9
$LOFTMAG1
 40
0.0
  9
$LOFTMAG2
 40
0.0
  9
$LOFTPARAM
 70
7
  9
$LOFTNORMALS
280
1
  9
$LATITUDE
 40
37.795
  9
$LONGITUDE
 40
-122.394
  9
$NORTHDIRECTION
 40
0.0
  9
$TIMEZONE
 70
-8000
  9
$LIGHTGLYPHDISPLAY
280
1
  9
$TILEMODELIGHTSYNCH
280
1
  9
$CMATERIAL
347
20
  9
$SOLIDHIST
280
0
  9
$SHOWHIST
280
1
  9
$DWFFRAME
280
2
  9
$DGNFRAME
280
2
  9
$REALWORLDSCALE
290
1
  9
$INTERFERECOLOR
 62
256
  9
$CSHADOW
280
0
  9
$SHADOWPLANELOCATION
 40
0.0
  0
ENDSEC
  0
SECTION
  2
CLASSES
  0
CLASS
  1
ACDBDICTIONARYWDFLT
  2
AcDbDictionaryWithDefault
  3
ObjectDBX Classes
 90
0
 91
0
280
0
281
0
  0
CLASS
  1
SUN
  2
AcDbSun
  3
SCENEOE
 90
1153
 91
0
280
0
281
0
  0
CLASS
  1
VISUALSTYLE
  2
AcDbVisualStyle
  3
ObjectDBX Classes
 90
4095
 91
0
280
0
281
0
  0
CLASS
  1
MATERIAL
  2
AcDbMaterial
  3
ObjectDBX Classes
 90
1153
 91
0
280
0
281
0
  0
CLASS
  1
SCALE
  2
AcDbScale
  3
ObjectDBX Classes
 90
1153
 91
0
280
0
281
0
  0
CLASS
  1
TABLESTYLE
  2
AcDbTableStyle
  3
ObjectDBX Classes
 90
4095
 91
0
280
0
281
0
  0
CLASS
  1
MLEADERSTYLE
  2
AcDbMLeaderStyle
  3
ACDB_MLEADERSTYLE_CLASS
 90
4095
 91
0
280
0
281
0
  0
CLASS
  1
DICTIONARYVAR
  2
AcDbDictionaryVar
  3
ObjectDBX Classes
 90
0
 91
0
280
0
281
0
  0
CLASS
  1
CELLSTYLEMAP
  2
AcDbCellStyleMap
  3
ObjectDBX Classes
 90
1152
 91
0
280
0
281
0
  0
CLASS
  1
MENTALRAYRENDERSETTINGS
  2
AcDbMentalRayRenderSettings
  3
SCENEOE
 90
1024
 91
0
280
0
281
0
  0
CLASS
  1
ACDBDETAILVIEWSTYLE
  2
AcDbDetailViewStyle
  3
ObjectDBX Classes
 90
1025
 91
0
280
0
281
0
  0
CLASS
  1
ACDBSECTIONVIEWSTYLE
  2
AcDbSectionViewStyle
  3
ObjectDBX Classes
 90
1025
 91
0
280
0
281
0
  0
CLASS
  1
RASTERVARIABLES
  2
AcDbRasterVariables
  3
ISM
 90
0
 91
0
280
0
281
0
  0
CLASS
  1
ACDBPLACEHOLDER
  2
AcDbPlaceHolder
  3
ObjectDBX Classes
 90
0
 91
0
280
0
281
0
  0
CLASS
  1
LAYOUT
  2
AcDbLayout
  3
ObjectDBX Classes
 90
0
 91
0
280
0
281
0
  0
ENDSEC
  0
SECTION
  2
TABLES
  0
TABLE
  2
VPORT
  5
8
330
0
100
AcDbSymbolTable
 70
1
  0
VPORT
  5
23
330
8
100
AcDbSymbolTableRecord
100
AcDbViewportTableRecord
  2
*Active
 70
0
 10
0.0
 20
0.0
 11
1.0
 21
1.0
 12
0.0
 22
0.0
 13
0.0
 23
0.0
 14
0.5
 24
0.5
 15
0.5
 25
0.5
 16
0.0
 26
0.0
 36
1.0
 17
0.0
 27
0.0
 37
0.0
 40
1000.0
 41
1.34
 42
50.0
 43
0.0
 44
0.0
 50
0.0
 51
0.0
 71
0
 72
1000
 73
1
 74
3
 75
0
 76
0
 77
0
 78
0
281
0
 65
0
146
0.0
  0
ENDTAB
  0
TABLE
  2
LTYPE
  5
2
330
0
100
AcDbSymbolTable
 70
3
  0
LTYPE
  5
24
330
2
100
AcDbSymbolTableRecord
100
AcDbLinetypeTableRecord
  2
ByBlock
 70
0
  3

 72
65
 73
0
 40
0.0
  0
LTYPE
  5
25
330
2
100
AcDbSymbolTableRecord
100
AcDbLinetypeTableRecord
  2
ByLayer
 70
0
  3

 72
65
 73
0
 40
0.0
  0
LTYPE
  5
26
330
2
100
AcDbSymbolTableRecord
100
AcDbLinetypeTableRecord
  2
Continuous
 70
0
  3

 72
65
 73
0
 40
0.0
  0
ENDTAB
  0
TABLE
  2
LAYER
  5
1
330
0
100
AcDbSymbolTable
 70
5
  0
LAYER
  5
27
330
1
100
AcDbSymbolTableRecord
100
AcDbLayerTableRecord
  2
0
 70
0
 62
7
  6
Continuous
370
-3
390
13
347
21
  0
LAYER
  5
28
330
1
100
AcDbSymbolTableRecord
100
AcDbLayerTableRecord
  2
Defpoints
 70
0
 62
7
  6
Continuous
290
0
370
-3
390
13
347
21
  0
LAYER
  5
2F
330
1
100
AcDbSymbolTableRecord
100
AcDbLayerTableRecord
  2
conductor
 70
0
 62
1
  6
Continuous
370
-3
390
13
347
21
  0
LAYER
  5
30
330
1
100
AcDbSymbolTableRecord
100
AcDbLayerTableRecord
  2
dielectric
 70
0
 62
8
  6
Continuous
370
-3
390
13
347
21
  0
LAYER
  5
31
330
1
100
AcDbSymbolTableRecord
100
AcDbLayerTableRecord
  2
substrate
 70
0
 62
5
  6
Continuous
370
-3
390
13
347
21
  0
ENDTAB
  0
TABLE
  2
STYLE
  5
5
330
0
100
AcDbSymbolTable
 70
1
  0
STYLE
  5
29
330
5
100
AcDbSymbolTableRecord
100
AcDbTextStyleTableRecord
  2
Standard
 70
0
 40
0.0
 41
1.0
 50
0.0
 71
0
 42
2.5
  3
txt
  4

  0
ENDTAB
  0
TABLE
  2
VIEW
  5
7
330
0
100
AcDbSymbolTable
 70
0
  0
ENDTAB
  0
TABLE
  2
UCS
  5
6
330
0
100
AcDbSymbolTable
 70
0
  0
ENDTAB
  0
TABLE
  2
APPID
  5
3
330
0
100
AcDbSymbolTable
 70
3
  0
APPID
  5
2A
330
3
100
AcDbSymbolTableRecord
100
AcDbRegAppTableRecord
  2
ACAD
 70
0
  0
APPID
  5
39
330
3
100
AcDbSymbolTableRecord
100
AcDbRegAppTableRecord
  2
HATCHBACKGROUNDCOLOR
 70
0
  0
APPID
  5
3A
330
3
100
AcDbSymbolTableRecord
100
AcDbRegAppTableRecord
  2
EZDXF
 70
0
  0
ENDTAB
  0
TABLE
  2
DIMSTYLE
  5
4
330
0
100
AcDbSymbolTable
 70
1
100
AcDbDimStyleTable
  0
DIMSTYLE
105
2B
330
4
100
AcDbSymbolTableRecord
100
AcDbDimStyleTableRecord
  2
Standard
 70
0
 40
1.0
 41
2.5
 42
0.625
 43
3.75
 44
1.25
 45
0.0
 46
0.0
 47
0.0
 48
0.0
 49
2.5
140
2.5
141
2.5
142
0.0
143
0.03937007874
144
1.0
145
0.0
146
1.0
147
0.625
148
0.0
 69
0
 70
0
 71
0
 72
0
 73
0
 74
0
 75
0
 76
0
 77
1
 78
8
 79
3
170
0
171
3
172
1
173
0
174
0
175
0
176
0
177
0
178
0
179
2
271
2
272
2
273
2
274
3
275
0
276
0
277
2
278
44
279
0
280
0
281
0
282
0
283
0
284
8
285
0
286
0
288
0
289
3
290
0
371
-2
372
-2
  0
ENDTAB
  0
TABLE
  2
BLOCK_RECORD
  5
9
330
0
100
AcDbSymbolTable
 70
2
  0
BLOCK_RECORD
  5
17
330
9
100
AcDbSymbolTableRecord
100
AcDbBlockTableRecord
  2
*Model_Space
340
1A
 70
0
280
1
281
0
  0
BLOCK_RECORD
  5
1B
330
9
100
AcDbSymbolTableRecord
100
AcDbBlockTableRecord
  2
*Paper_Space
340
1E
 70
0
280
1
281
0
  0
ENDTAB
  0
ENDSEC
  0
SECTION
  2
BLOCKS
  0
BLOCK
  5
18
330
17
100
AcDbEntity
  8
0
100
AcDbBlockBegin
  2
*Model_Space
 70
0
 10
0.0
 20
0.0
 30
0.0
  3
*Model_Space
  1

  0
ENDBLK
  5
19
330
17
100
AcDbEntity
  8
0
100
AcDbBlockEnd
  0
BLOCK
  5
1C
330
1B
100
AcDbEntity
  8
0
100
AcDbBlockBegin
  2
*Paper_Space
 70
0
 10
0.0
 20
0.0
 30
0.0
  3
*Paper_Space
  1

  0
ENDBLK
  5
1D
330
1B
100
AcDbEntity
  8
0
100
AcDbBlockEnd
  0
ENDSEC
  0
SECTION
  2
ENTITIES
  0
LWPOLYLINE
  5
32
330
17
100
AcDbEntity
  8
conductor
100
AcDbPolyline
 90
237
 70
1
 43
0.5
 10
2491.625
 20
-2170.125
 10
2481.578125
 20
-2180.171875
 10
2471.53125
 20
-2180.171875
 10
2461.484375
 20
-2180.171875
 10
2451.4375
 20
-2180.171875
 10
2441.390625
 20
-2190.21875
 10
2431.34375
 20
-2190.21875
 10
2421.296875
 20
-2190.21875
 10
2411.25
 20
-2190.21875
 10
2401.203125
 20
-2200.265625
 10
2391.15625
 20
-2200.265625
 10
2381.109375
 20
-2200.265625
 10
2371.0625
 20
-2200.265625
 10
2361.015625
 20
-2200.265625
 10
2350.96875
 20
-2210.3125
 10
2340.921875
 20
-2220.359375
 10
2340.921875
 20
-2230.40625
 10
2330.875
 20
-2240.453125
 10
2320.828125
 20
-2250.5
 10
2320.828125
 20
-2260.546875
 10
2310.78125
 20
-2270.59375
 10
2300.734375
 20
-2270.59375
 10
2290.6875
 20
-2280.640625
 10
2280.640625
 20
-2280.640625
 10
2270.59375
 20
-2290.6875
 10
2260.546875
 20
-2300.734375
 10
2250.5
 20
-2300.734375
 10
2250.5
 20
-2310.78125
 10
2240.453125
 20
-2320.828125
 10
2240.453125
 20
-2330.875
 10
2230.40625
 20
-2340.921875
 10
2230.40625
 20
-2350.96875
 10
2220.359375
 20
-2361.015625
 10
2220.359375
 20
-2371.0625
 10
2220.359375
 20
-2381.109375
 10
2210.3125
 20
-2391.15625
 10
2200.265625
 20
-2401.203125
 10
2200.265625
 20
-2411.25
 10
2190.21875
 20
-2421.296875
 10
2190.21875
 20
-2431.34375
 10
2180.171875
 20
-2441.390625
 10
2180.171875
 20
-2451.4375
 10
2180.171875
 20
-2461.484375
 10
2180.171875
 20
-2471.53125
 10
2170.125
 20
-2481.578125
 10
2170.125
 20
-2491.625
 10
2170.125
 20
-2501.671875
 10
2170.125
 20
-2511.71875
 10
2170.125
 20
-2521.765625
 10
2170.125
 20
-2531.8125
 10
2170.125
 20
-2541.859375
 10
2170.125
 20
-2551.90625
 10
2170.125
 20
-2561.953125
 10
2170.125
 20
-2572.0
 10
2170.125
 20
-2582.046875
 10
2170.125
 20
-2592.09375
 10
2170.125
 20
-2602.140625
 10
2170.125
 20
-2612.1875
 10
2160.078125
 20
-2622.234375
 10
2170.125
 20
-2632.28125
 10
2170.125
 20
-2642.328125
 10
2180.171875
 20
-2652.375
 10
2180.171875
 20
-2662.421875
 10
2180.171875
 20
-2672.46875
 10
2180.171875
 20
-2682.515625
 10
2180.171875
 20
-2692.5625
 10
2190.21875
 20
-2702.609375
 10
2190.21875
 20
-2712.65625
 10
2200.265625
 20
-2722.703125
 10
2200.265625
 20
-2732.75
 10
2210.3125
 20
-2732.75
 10
2220.359375
 20
-2742.796875
 10
2220.359375
 20
-2752.84375
 10
2220.359375
 20
-2762.890625
 10
2220.359375
 20
-2772.9375
 10
2230.40625
 20
-2782.984375
 10
2240.453125
 20
-2793.03125
 10
2240.453125
 20
-2803.078125
 10
2240.453125
 20
-2813.125
 10
2240.453125
 20
-2823.171875
 10
2250.5
 20
-2823.171875
 10
2260.546875
 20
-2833.21875
 10
2270.59375
 20
-2843.265625
 10
2280.640625
 20
-2853.3125
 10
2280.640625
 20
-2863.359375
 10
2290.6875
 20
-2863.359375
 10
2300.734375
 20
-2873.40625
 10
2310.78125
 20
-2873.40625
 10
2320.828125
 20
-2883.453125
 10
2330.875
 20
-2883.453125
 10
2340.921875
 20
-2893.5
 10
2350.96875
 20
-2903.546875
 10
2361.015625
 20
-2913.59375
 10
2371.0625
 20
-2923.640625
 10
2381.109375
 20
-2923.640625
 10
2391.15625
 20
-2923.640625
 10
2401.203125
 20
-2933.6875
 10
2411.25
 20
-2943.734375
 10
2421.296875
 20
-2943.734375
 10
2431.34375
 20
-2943.734375
 10
2441.390625
 20
-2943.734375
 10
2451.4375
 20
-2953.78125
 10
2461.484375
 20
-2953.78125
 10
2471.53125
 20
-2953.78125
 10
2481.578125
 20
-2953.78125
 10
2491.625
 20
-2963.828125
 10
2501.671875
 20
-2963.828125
 10
2511.71875
 20
-2963.828125
 10
2521.765625
 20
-2973.875
 10
2531.8125
 20
-2963.828125
 10
2541.859375
 20
-2963.828125
 10
2551.90625
 20
-2963.828125
 10
2561.953125
 20
-2963.828125
 10
2572.0
 20
-2963.828125
 10
2582.046875
 20
-2963.828125
 10
2592.09375
 20
-2963.828125
 10
2602.140625
 20
-2963.828125
 10
2612.1875
 20
-2963.828125
 10
2622.234375
 20
-2963.828125
 10
2632.28125
 20
-2973.875
 10
2642.328125
 20
-2973.875
 10
2652.375
 20
-2963.828125
 10
2662.421875
 20
-2963.828125
 10
2672.46875
 20
-2953.78125
 10
2682.515625
 20
-2953.78125
 10
2692.5625
 20
-2953.78125
 10
2702.609375
 20
-2953.78125
 10
2712.65625
 20
-2943.734375
 10
2722.703125
 20
-2943.734375
 10
2732.75
 20
-2933.6875
 10
2742.796875
 20
-2923.640625
 10
2752.84375
 20
-2923.640625
 10
2762.890625
 20
-2913.59375
 10
2772.9375
 20
-2913.59375
 10
2782.984375
 20
-2903.546875
 10
2793.03125
 20
-2903.546875
 10
2803.078125
 20
-2903.546875
 10
2813.125
 20
-2893.5
 10
2823.171875
 20
-2883.453125
 10
2833.21875
 20
-2873.40625
 10
2843.265625
 20
-2863.359375
 10
2843.265625
 20
-2853.3125
 10
2853.3125
 20
-2843.265625
 10
2863.359375
 20
-2833.21875
 10
2873.40625
 20
-2833.21875
 10
2883.453125
 20
-2833.21875
 10
2893.5
 20
-2823.171875
 10
2893.5
 20
-2813.125
 10
2893.5
 20
-2803.078125
 10
2903.546875
 20
-2793.03125
 10
2903.546875
 20
-2782.984375
 10
2913.59375
 20
-2772.9375
 10
2923.640625
 20
-2762.890625
 10
2923.640625
 20
-2752.84375
 10
2923.640625
 20
-2742.796875
 10
2923.640625
 20
-2732.75
 10
2933.6875
 20
-2722.703125
 10
2943.734375
 20
-2722.703125
 10
2943.734375
 20
-2712.65625
 10
2943.734375
 20
-2702.609375
 10
2943.734375
 20
-2692.5625
 10
2953.78125
 20
-2682.515625
 10
2953.78125
 20
-2672.46875
 10
2963.828125
 20
-2662.421875
 10
2963.828125
 20
-2652.375
 10
2963.828125
 20
-2642.328125
 10
2963.828125
 20
-2632.28125
 10
2963.828125
 20
-2622.234375
 10
2963.828125
 20
-2612.1875
 10
2963.828125
 20
-2602.140625
 10
2973.875
 20
-2592.09375
 10
2973.875
 20
-2582.046875
 10
2963.828125
 20
-2572.0
 10
2963.828125
 20
-2561.953125
 10
2963.828125
 20
-2551.90625
 10
2963.828125
 20
-2541.859375
 10
2963.828125
 20
-2531.8125
 10
2963.828125
 20
-2521.765625
 10
2963.828125
 20
-2511.71875
 10
2963.828125
 20
-2501.671875
 10
2963.828125
 20
-2491.625
 10
2963.828125
 20
-2481.578125
 10
2963.828125
 20
-2471.53125
 10
2953.78125
 20
-2461.484375
 10
2953.78125
 20
-2451.4375
 10
2953.78125
 20
-2441.390625
 10
2953.78125
 20
-2431.34375
 10
2943.734375
 20
-2421.296875
 10
2943.734375
 20
-2411.25
 10
2933.6875
 20
-2401.203125
 10
2933.6875
 20
-2391.15625
 10
2923.640625
 20
-2381.109375
 10
2913.59375
 20
-2371.0625
 10
2913.59375
 20
-2361.015625
 10
2903.546875
 20
-2350.96875
 10
2893.5
 20
-2340.921875
 10
2883.453125
 20
-2330.875
 10
2883.453125
 20
-2320.828125
 10
2873.40625
 20
-2310.78125
 10
2863.359375
 20
-2300.734375
 10
2853.3125
 20
-2290.6875
 10
2853.3125
 20
-2280.640625
 10
2843.265625
 20
-2270.59375
 10
2833.21875
 20
-2260.546875
 10
2823.171875
 20
-2260.546875
 10
2813.125
 20
-2250.5
 10
2803.078125
 20
-2240.453125
 10
2793.03125
 20
-2230.40625
 10
2782.984375
 20
-2220.359375
 10
2772.9375
 20
-2210.3125
 10
2762.890625
 20
-2210.3125
 10
2752.84375
 20
-2210.3125
 10
2742.796875
 20
-2200.265625
 10
2732.75
 20
-2200.265625
 10
2722.703125
 20
-2190.21875
 10
2712.65625
 20
-2190.21875
 10
2702.609375
 20
-2190.21875
 10
2692.5625
 20
-2180.171875
 10
2682.515625
 20
-2180.171875
 10
2672.46875
 20
-2180.171875
 10
2662.421875
 20
-2170.125
 10
2652.375
 20
-2170.125
 10
2642.328125
 20
-2170.125
 10
2632.28125
 20
-2170.125
 10
2622.234375
 20
-2170.125
 10
2612.1875
 20
-2170.125
 10
2602.140625
 20
-2170.125
 10
2592.09375
 20
-2170.125
 10
2582.046875
 20
-2170.125
 10
2572.0
 20
-2170.125
 10
2561.953125
 20
-2170.125
 10
2551.90625
 20
-2170.125
 10
2541.859375
 20
-2170.125
 10
2531.8125
 20
-2170.125
 10
2521.765625
 20
-2170.125
 10
2511.71875
 20
-2170.125
 10
2501.671875
 20
-2170.125
  0
LWPOLYLINE
  5
33
330
17
100
AcDbEntity
  8
conductor
100
AcDbPolyline
 90
4
 70
1
 43
0.5
 10
2622.234375
 20
-2612.1875
 10
2632.28125
 20
-2602.140625
 10
2642.328125
 20
-2612.1875
 10
2632.28125
 20
-2622.234375
  0
LWPOLYLINE
  5
34
330
17
100
AcDbEntity
  8
conductor
100
AcDbPolyline
 90
4
 70
1
 43
0.5
 10
2461.484375
 20
-2531.8125
 10
2471.53125
 20
-2521.765625
 10
2481.578125
 20
-2531.8125
 10
2471.53125
 20
-2541.859375
  0
LWPOLYLINE
  5
35
330
17
100
AcDbEntity
  8
conductor
100
AcDbPolyline
 90
8
 70
1
 43
0.5
 10
2461.484375
 20
-2451.4375
 10
2471.53125
 20
-2441.390625
 10
2481.578125
 20
-2441.390625
 10
2491.625
 20
-2441.390625
 10
2501.671875
 20
-2451.4375
 10
2491.625
 20
-2461.484375
 10
2481.578125
 20
-2461.484375
 10
2471.53125
 20
-2461.484375
  0
LWPOLYLINE
  5
36
330
17
100
AcDbEntity
  8
substrate
100
AcDbPolyline
 90
2044
 70
1
 43
0.5
 10
0.0
 20
-0.0
 10
0.0
 20
-10.046875
 10
0.0
 20
-20.09375
 10
0.0
 20
-30.140625
 10
0.0
 20
-40.1875
 10
0.0
 20
-50.234375
 10
0.0
 20
-60.28125
 10
0.0
 20
-70.328125
 10
0.0
 20
-80.375
 10
0.0
 20
-90.421875
 10
0.0
 20
-100.46875
 10
0.0
 20
-110.515625
 10
0.0
 20
-120.5625
 10
0.0
 20
-130.609375
 10
0.0
 20
-140.65625
 10
0.0
 20
-150.703125
 10
0.0
 20
-160.75
 10
0.0
 20
-170.796875
 10
0.0
 20
-180.84375
 10
0.0
 20
-190.890625
 10
0.0
 20
-200.9375
 10
0.0
 20
-210.984375
 10
0.0
 20
-221.03125
 10
0.0
 20
-231.078125
 10
0.0
 20
-241.125
 10
0.0
 20
-251.171875
 10
0.0
 20
-261.21875
 10
0.0
 20
-271.265625
 10
0.0
 20
-281.3125
 10
0.0
 20
-291.359375
 10
0.0
 20
-301.40625
 10
0.0
 20
-311.453125
 10
0.0
 20
-321.5
 10
0.0
 20
-331.546875
 10
0.0
 20
-341.59375
 10
0.0
 20
-351.640625
 10
0.0
 20
-361.6875
 10
0.0
 20
-371.734375
 10
0.0
 20
-381.78125
 10
0.0
 20
-391.828125
 10
0.0
 20
-401.875
 10
0.0
 20
-411.921875
 10
0.0
 20
-421.96875
 10
0.0
 20
-432.015625
 10
0.0
 20
-442.0625
 10
0.0
 20
-452.109375
 10
0.0
 20
-462.15625
 10
0.0
 20
-472.203125
 10
0.0
 20
-482.25
 10
0.0
 20
-492.296875
 10
0.0
 20
-502.34375
 10
0.0
 20
-512.390625
 10
0.0
 20
-522.4375
 10
0.0
 20
-532.484375
 10
0.0
 20
-542.53125
 10
0.0
 20
-552.578125
 10
0.0
 20
-562.625
 10
0.0
 20
-572.671875
 10
0.0
 20
-582.71875
 10
0.0
 20
-592.765625
 10
0.0
 20
-602.8125
 10
0.0
 20
-612.859375
 10
0.0
 20
-622.90625
 10
0.0
 20
-632.953125
 10
0.0
 20
-643.0
 10
0.0
 20
-653.046875
 10
0.0
 20
-663.09375
 10
0.0
 20
-673.140625
 10
0.0
 20
-683.1875
 10
0.0
 20
-693.234375
 10
0.0
 20
-703.28125
 10
0.0
 20
-713.328125
 10
0.0
 20
-723.375
 10
0.0
 20
-733.421875
 10
0.0
 20
-743.46875
 10
0.0
 20
-753.515625
 10
0.0
 20
-763.5625
 10
0.0
 20
-773.609375
 10
0.0
 20
-783.65625
 10
0.0
 20
-793.703125
 10
0.0
 20
-803.75
 10
0.0
 20
-813.796875
 10
0.0
 20
-823.84375
 10
0.0
 20
-833.890625
 10
0.0
 20
-843.9375
 10
0.0
 20
-853.984375
 10
0.0
 20
-864.03125
 10
0.0
 20
-874.078125
 10
0.0
 20
-884.125
 10
0.0
 20
-894.171875
 10
0.0
 20
-904.21875
 10
0.0
 20
-914.265625
 10
0.0
 20
-924.3125
 10
0.0
 20
-934.359375
 10
0.0
 20
-944.40625
 10
0.0
 20
-954.453125
 10
0.0
 20
-964.5
 10
0.0
 20
-974.546875
 10
0.0
 20
-984.59375
 10
0.0
 20
-994.640625
 10
0.0
 20
-1004.6875
 10
0.0
 20
-1014.734375
 10
0.0
 20
-1024.78125
 10
0.0
 20
-1034.828125
 10
0.0
 20
-1044.875
 10
0.0
 20
-1054.921875
 10
0.0
 20
-1064.96875
 10
0.0
 20
-1075.015625
 10
0.0
 20
-1085.0625
 10
0.0
 20
-1095.109375
 10
0.0
 20
-1105.15625
 10
0.0
 20
-1115.203125
 10
0.0
 20
-1125.25
 10
0.0
 20
-1135.296875
 10
0.0
 20
-1145.34375
 10
0.0
 20
-1155.390625
 10
0.0
 20
-1165.4375
 10
0.0
 20
-1175.484375
 10
0.0
 20
-1185.53125
 10
0.0
 20
-1195.578125
 10
0.0
 20
-1205.625
 10
0.0
 20
-1215.671875
 10
0.0
 20
-1225.71875
 10
0.0
 20
-1235.765625
 10
0.0
 20
-1245.8125
 10
0.0
 20
-1255.859375
 10
0.0
 20
-1265.90625
 10
0.0
 20
-1275.953125
 10
0.0
 20
-1286.0
 10
0.0
 20
-1296.046875
 10
0.0
 20
-1306.09375
 10
0.0
 20
-1316.140625
 10
0.0
 20
-1326.1875
 10
0.0
 20
-1336.234375
 10
0.0
 20
-1346.28125
 10
0.0
 20
-1356.328125
 10
0.0
 20
-1366.375
 10
0.0
 20
-1376.421875
 10
0.0
 20
-1386.46875
 10
0.0
 20
-1396.515625
 10
0.0
 20
-1406.5625
 10
0.0
 20
-1416.609375
 10
0.0
 20
-1426.65625
 10
0.0
 20
-1436.703125
 10
0.0
 20
-1446.75
 10
0.0
 20
-1456.796875
 10
0.0
 20
-1466.84375
 10
0.0
 20
-1476.890625
 10
0.0
 20
-1486.9375
 10
0.0
 20
-1496.984375
 10
0.0
 20
-1507.03125
 10
0.0
 20
-1517.078125
 10
0.0
 20
-1527.125
 10
0.0
 20
-1537.171875
 10
0.0
 20
-1547.21875
 10
0.0
 20
-1557.265625
 10
0.0
 20
-1567.3125
 10
0.0
 20
-1577.359375
 10
0.0
 20
-1587.40625
 10
0.0
 20
-1597.453125
 10
0.0
 20
-1607.5
 10
0.0
 20
-1617.546875
 10
0.0
 20
-1627.59375
 10
0.0
 20
-1637.640625
 10
0.0
 20
-1647.6875
 10
0.0
 20
-1657.734375
 10
0.0
 20
-1667.78125
 10
0.0
 20
-1677.828125
 10
0.0
 20
-1687.875
 10
0.0
 20
-1697.921875
 10
0.0
 20
-1707.96875
 10
0.0
 20
-1718.015625
 10
0.0
 20
-1728.0625
 10
0.0
 20
-1738.109375
 10
0.0
 20
-1748.15625
 10
0.0
 20
-1758.203125
 10
0.0
 20
-1768.25
 10
0.0
 20
-1778.296875
 10
0.0
 20
-1788.34375
 10
0.0
 20
-1798.390625
 10
0.0
 20
-1808.4375
 10
0.0
 20
-1818.484375
 10
0.0
 20
-1828.53125
 10
0.0
 20
-1838.578125
 10
0.0
 20
-1848.625
 10
0.0
 20
-1858.671875
 10
0.0
 20
-1868.71875
 10
0.0
 20
-1878.765625
 10
0.0
 20
-1888.8125
 10
0.0
 20
-1898.859375
 10
0.0
 20
-1908.90625
 10
0.0
 20
-1918.953125
 10
0.0
 20
-1929.0
 10
0.0
 20
-1939.046875
 10
0.0
 20
-1949.09375
 10
0.0
 20
-1959.140625
 10
0.0
 20
-1969.1875
 10
0.0
 20
-1979.234375
 10
0.0
 20
-1989.28125
 10
0.0
 20
-1999.328125
 10
0.0
 20
-2009.375
 10
0.0
 20
-2019.421875
 10
0.0
 20
-2029.46875
 10
0.0
 20
-2039.515625
 10
0.0
 20
-2049.5625
 10
0.0
 20
-2059.609375
 10
0.0
 20
-2069.65625
 10
0.0
 20
-2079.703125
 10
0.0
 20
-2089.75
 10
0.0
 20
-2099.796875
 10
0.0
 20
-2109.84375
 10
0.0
 20
-2119.890625
 10
0.0
 20
-2129.9375
 10
0.0
 20
-2139.984375
 10
0.0
 20
-2150.03125
 10
0.0
 20
-2160.078125
 10
0.0
 20
-2170.125
 10
0.0
 20
-2180.171875
 10
0.0
 20
-2190.21875
 10
0.0
 20
-2200.265625
 10
0.0
 20
-2210.3125
 10
0.0
 20
-2220.359375
 10
0.0
 20
-2230.40625
 10
0.0
 20
-2240.453125
 10
0.0
 20
-2250.5
 10
0.0
 20
-2260.546875
 10
0.0
 20
-2270.59375
 10
0.0
 20
-2280.640625
 10
0.0
 20
-2290.6875
 10
0.0
 20
-2300.734375
 10
0.0
 20
-2310.78125
 10
0.0
 20
-2320.828125
 10
0.0
 20
-2330.875
 10
0.0
 20
-2340.921875
 10
0.0
 20
-2350.96875
 10
0.0
 20
-2361.015625
 10
0.0
 20
-2371.0625
 10
0.0
 20
-2381.109375
 10
0.0
 20
-2391.15625
 10
0.0
 20
-2401.203125
 10
0.0
 20
-2411.25
 10
0.0
 20
-2421.296875
 10
0.0
 20
-2431.34375
 10
0.0
 20
-2441.390625
 10
0.0
 20
-2451.4375
 10
0.0
 20
-2461.484375
 10
0.0
 20
-2471.53125
 10
0.0
 20
-2481.578125
 10
0.0
 20
-2491.625
 10
0.0
 20
-2501.671875
 10
0.0
 20
-2511.71875
 10
0.0
 20
-2521.765625
 10
0.0
 20
-2531.8125
 10
0.0
 20
-2541.859375
 10
0.0
 20
-2551.90625
 10
0.0
 20
-2561.953125
 10
0.0
 20
-2572.0
 10
0.0
 20
-2582.046875
 10
0.0
 20
-2592.09375
 10
0.0
 20
-2602.140625
 10
0.0
 20
-2612.1875
 10
0.0
 20
-2622.234375
 10
0.0
 20
-2632.28125
 10
0.0
 20
-2642.328125
 10
0.0
 20
-2652.375
 10
0.0
 20
-2662.421875
 10
0.0
 20
-2672.46875
 10
0.0
 20
-2682.515625
 10
0.0
 20
-2692.5625
 10
0.0
 20
-2702.609375
 10
0.0
 20
-2712.65625
 10
0.0
 20
-2722.703125
 10
0.0
 20
-2732.75
 10
0.0
 20
-2742.796875
 10
0.0
 20
-2752.84375
 10
0.0
 20
-2762.890625
 10
0.0
 20
-2772.9375
 10
0.0
 20
-2782.984375
 10
0.0
 20
-2793.03125
 10
0.0
 20
-2803.078125
 10
0.0
 20
-2813.125
 10
0.0
 20
-2823.171875
 10
0.0
 20
-2833.21875
 10
0.0
 20
-2843.265625
 10
0.0
 20
-2853.3125
 10
0.0
 20
-2863.359375
 10
0.0
 20
-2873.40625
 10
0.0
 20
-2883.453125
 10
0.0
 20
-2893.5
 10
0.0
 20
-2903.546875
 10
0.0
 20
-2913.59375
 10
0.0
 20
-2923.640625
 10
0.0
 20
-2933.6875
 10
0.0
 20
-2943.734375
 10
0.0
 20
-2953.78125
 10
0.0
 20
-2963.828125
 10
0.0
 20
-2973.875
 10
0.0
 20
-2983.921875
 10
0.0
 20
-2993.96875
 10
0.0
 20
-3004.015625
 10
0.0
 20
-3014.0625
 10
0.0
 20
-3024.109375
 10
0.0
 20
-3034.15625
 10
0.0
 20
-3044.203125
 10
0.0
 20
-3054.25
 10
0.0
 20
-3064.296875
 10
0.0
 20
-3074.34375
 10
0.0
 20
-3084.390625
 10
0.0
 20
-3094.4375
 10
0.0
 20
-3104.484375
 10
0.0
 20
-3114.53125
 10
0.0
 20
-3124.578125
 10
0.0
 20
-3134.625
 10
0.0
 20
-3144.671875
 10
0.0
 20
-3154.71875
 10
0.0
 20
-3164.765625
 10
0.0
 20
-3174.8125
 10
0.0
 20
-3184.859375
 10
0.0
 20
-3194.90625
 10
0.0
 20
-3204.953125
 10
0.0
 20
-3215.0
 10
0.0
 20
-3225.046875
 10
0.0
 20
-3235.09375
 10
0.0
 20
-3245.140625
 10
0.0
 20
-3255.1875
 10
0.0
 20
-3265.234375
 10
0.0
 20
-3275.28125
 10
0.0
 20
-3285.328125
 10
0.0
 20
-3295.375
 10
0.0
 20
-3305.421875
 10
0.0
 20
-3315.46875
 10
0.0
 20
-3325.515625
 10
0.0
 20
-3335.5625
 10
0.0
 20
-3345.609375
 10
0.0
 20
-3355.65625
 10
0.0
 20
-3365.703125
 10
0.0
 20
-3375.75
 10
0.0
 20
-3385.796875
 10
0.0
 20
-3395.84375
 10
0.0
 20
-3405.890625
 10
0.0
 20
-3415.9375
 10
0.0
 20
-3425.984375
 10
0.0
 20
-3436.03125
 10
0.0
 20
-3446.078125
 10
0.0
 20
-3456.125
 10
0.0
 20
-3466.171875
 10
0.0
 20
-3476.21875
 10
0.0
 20
-3486.265625
 10
0.0
 20
-3496.3125
 10
0.0
 20
-3506.359375
 10
0.0
 20
-3516.40625
 10
0.0
 20
-3526.453125
 10
0.0
 20
-3536.5
 10
0.0
 20
-3546.546875
 10
0.0
 20
-3556.59375
 10
0.0
 20
-3566.640625
 10
0.0
 20
-3576.6875
 10
0.0
 20
-3586.734375
 10
0.0
 20
-3596.78125
 10
0.0
 20
-3606.828125
 10
0.0
 20
-3616.875
 10
0.0
 20
-3626.921875
 10
0.0
 20
-3636.96875
 10
0.0
 20
-3647.015625
 10
0.0
 20
-3657.0625
 10
0.0
 20
-3667.109375
 10
0.0
 20
-3677.15625
 10
0.0
 20
-3687.203125
 10
0.0
 20
-3697.25
 10
0.0
 20
-3707.296875
 10
0.0
 20
-3717.34375
 10
0.0
 20
-3727.390625
 10
0.0
 20
-3737.4375
 10
0.0
 20
-3747.484375
 10
0.0
 20
-3757.53125
 10
0.0
 20
-3767.578125
 10
0.0
 20
-3777.625
 10
0.0
 20
-3787.671875
 10
0.0
 20
-3797.71875
 10
0.0
 20
-3807.765625
 10
0.0
 20
-3817.8125
 10
0.0
 20
-3827.859375
 10
0.0
 20
-3837.90625
 10
0.0
 20
-3847.953125
 10
0.0
 20
-3858.0
 10
0.0
 20
-3868.046875
 10
0.0
 20
-3878.09375
 10
0.0
 20
-3888.140625
 10
0.0
 20
-3898.1875
 10
0.0
 20
-3908.234375
 10
0.0
 20
-3918.28125
 10
0.0
 20
-3928.328125
 10
0.0
 20
-3938.375
 10
0.0
 20
-3948.421875
 10
0.0
 20
-3958.46875
 10
0.0
 20
-3968.515625
 10
0.0
 20
-3978.5625
 10
0.0
 20
-3988.609375
 10
0.0
 20
-3998.65625
 10
0.0
 20
-4008.703125
 10
0.0
 20
-4018.75
 10
0.0
 20
-4028.796875
 10
0.0
 20
-4038.84375
 10
0.0
 20
-4048.890625
 10
0.0
 20
-4058.9375
 10
0.0
 20
-4068.984375
 10
0.0
 20
-4079.03125
 10
0.0
 20
-4089.078125
 10
0.0
 20
-4099.125
 10
0.0
 20
-4109.171875
 10
0.0
 20
-4119.21875
 10
0.0
 20
-4129.265625
 10
0.0
 20
-4139.3125
 10
0.0
 20
-4149.359375
 10
0.0
 20
-4159.40625
 10
0.0
 20
-4169.453125
 10
0.0
 20
-4179.5
 10
0.0
 20
-4189.546875
 10
0.0
 20
-4199.59375
 10
0.0
 20
-4209.640625
 10
0.0
 20
-4219.6875
 10
0.0
 20
-4229.734375
 10
0.0
 20
-4239.78125
 10
0.0
 20
-4249.828125
 10
0.0
 20
-4259.875
 10
0.0
 20
-4269.921875
 10
0.0
 20
-4279.96875
 10
0.0
 20
-4290.015625
 10
0.0
 20
-4300.0625
 10
0.0
 20
-4310.109375
 10
0.0
 20
-4320.15625
 10
0.0
 20
-4330.203125
 10
0.0
 20
-4340.25
 10
0.0
 20
-4350.296875
 10
0.0
 20
-4360.34375
 10
0.0
 20
-4370.390625
 10
0.0
 20
-4380.4375
 10
0.0
 20
-4390.484375
 10
0.0
 20
-4400.53125
 10
0.0
 20
-4410.578125
 10
0.0
 20
-4420.625
 10
0.0
 20
-4430.671875
 10
0.0
 20
-4440.71875
 10
0.0
 20
-4450.765625
 10
0.0
 20
-4460.8125
 10
0.0
 20
-4470.859375
 10
0.0
 20
-4480.90625
 10
0.0
 20
-4490.953125
 10
0.0
 20
-4501.0
 10
0.0
 20
-4511.046875
 10
0.0
 20
-4521.09375
 10
0.0
 20
-4531.140625
 10
0.0
 20
-4541.1875
 10
0.0
 20
-4551.234375
 10
0.0
 20
-4561.28125
 10
0.0
 20
-4571.328125
 10
0.0
 20
-4581.375
 10
0.0
 20
-4591.421875
 10
0.0
 20
-4601.46875
 10
0.0
 20
-4611.515625
 10
0.0
 20
-4621.5625
 10
0.0
 20
-4631.609375
 10
0.0
 20
-4641.65625
 10
0.0
 20
-4651.703125
 10
0.0
 20
-4661.75
 10
0.0
 20
-4671.796875
 10
0.0
 20
-4681.84375
 10
0.0
 20
-4691.890625
 10
0.0
 20
-4701.9375
 10
0.0
 20
-4711.984375
 10
0.0
 20
-4722.03125
 10
0.0
 20
-4732.078125
 10
0.0
 20
-4742.125
 10
0.0
 20
-4752.171875
 10
0.0
 20
-4762.21875
 10
0.0
 20
-4772.265625
 10
0.0
 20
-4782.3125
 10
0.0
 20
-4792.359375
 10
0.0
 20
-4802.40625
 10
0.0
 20
-4812.453125
 10
0.0
 20
-4822.5
 10
0.0
 20
-4832.546875
 10
0.0
 20
-4842.59375
 10
0.0
 20
-4852.640625
 10
0.0
 20
-4862.6875
 10
0.0
 20
-4872.734375
 10
0.0
 20
-4882.78125
 10
0.0
 20
-4892.828125
 10
0.0
 20
-4902.875
 10
0.0
 20
-4912.921875
 10
0.0
 20
-4922.96875
 10
0.0
 20
-4933.015625
 10
0.0
 20
-4943.0625
 10
0.0
 20
-4953.109375
 10
0.0
 20
-4963.15625
 10
0.0
 20
-4973.203125
 10
0.0
 20
-4983.25
 10
0.0
 20
-4993.296875
 10
0.0
 20
-5003.34375
 10
0.0
 20
-5013.390625
 10
0.0
 20
-5023.4375
 10
0.0
 20
-5033.484375
 10
0.0
 20
-5043.53125
 10
0.0
 20
-5053.578125
 10
0.0
 20
-5063.625
 10
0.0
 20
-5073.671875
 10
0.0
 20
-5083.71875
 10
0.0
 20
-5093.765625
 10
0.0
 20
-5103.8125
 10
0.0
 20
-5113.859375
 10
0.0
 20
-5123.90625
 10
0.0
 20
-5133.953125
 10
10.046875
 20
-5133.953125
 10
20.09375
 20
-5133.953125
 10
30.140625
 20
-5133.953125
 10
40.1875
 20
-5133.953125
 10
50.234375
 20
-5133.953125
 10
60.28125
 20
-5133.953125
 10
70.328125
 20
-5133.953125
 10
80.375
 20
-5133.953125
 10
90.421875
 20
-5133.953125
 10
100.46875
 20
-5133.953125
 10
110.515625
 20
-5133.953125
 10
120.5625
 20
-5133.953125
 10
130.609375
 20
-5133.953125
 10
140.65625
 20
-5133.953125
 10
150.703125
 20
-5133.953125
 10
160.75
 20
-5133.953125
 10
170.796875
 20
-5133.953125
 10
180.84375
 20
-5133.953125
 10
190.890625
 20
-5133.953125
 10
200.9375
 20
-5133.953125
 10
210.984375
 20
-5133.953125
 10
221.03125
 20
-5133.953125
 10
231.078125
 20
-5133.953125
 10
241.125
 20
-5133.953125
 10
251.171875
 20
-5133.953125
 10
261.21875
 20
-5133.953125
 10
271.265625
 20
-5133.953125
 10
281.3125
 20
-5133.953125
 10
291.359375
 20
-5133.953125
 10
301.40625
 20
-5133.953125
 10
311.453125
 20
-5133.953125
 10
321.5
 20
-5133.953125
 10
331.546875
 20
-5133.953125
 10
341.59375
 20
-5133.953125
 10
351.640625
 20
-5133.953125
 10
361.6875
 20
-5133.953125
 10
371.734375
 20
-5133.953125
 10
381.78125
 20
-5133.953125
 10
391.828125
 20
-5133.953125
 10
401.875
 20
-5133.953125
 10
411.921875
 20
-5133.953125
 10
421.96875
 20
-5133.953125
 10
432.015625
 20
-5133.953125
 10
442.0625
 20
-5133.953125
 10
452.109375
 20
-5133.953125
 10
462.15625
 20
-5133.953125
 10
472.203125
 20
-5133.953125
 10
482.25
 20
-5133.953125
 10
492.296875
 20
-5133.953125
 10
502.34375
 20
-5133.953125
 10
512.390625
 20
-5133.953125
 10
522.4375
 20
-5133.953125
 10
532.484375
 20
-5133.953125
 10
542.53125
 20
-5133.953125
 10
552.578125
 20
-5133.953125
 10
562.625
 20
-5133.953125
 10
572.671875
 20
-5133.953125
 10
582.71875
 20
-5133.953125
 10
592.765625
 20
-5133.953125
 10
602.8125
 20
-5133.953125
 10
612.859375
 20
-5133.953125
 10
622.90625
 20
-5133.953125
 10
632.953125
 20
-5133.953125
 10
643.0
 20
-5133.953125
 10
653.046875
 20
-5133.953125
 10
663.09375
 20
-5133.953125
 10
673.140625
 20
-5133.953125
 10
683.1875
 20
-5133.953125
 10
693.234375
 20
-5133.953125
 10
703.28125
 20
-5133.953125
 10
713.328125
 20
-5133.953125
 10
723.375
 20
-5133.953125
 10
733.421875
 20
-5133.953125
 10
743.46875
 20
-5133.953125
 10
753.515625
 20
-5133.953125
 10
763.5625
 20
-5133.953125
 10
773.609375
 20
-5133.953125
 10
783.65625
 20
-5133.953125
 10
793.703125
 20
-5133.953125
 10
803.75
 20
-5133.953125
 10
813.796875
 20
-5133.953125
 10
823.84375
 20
-5133.953125
 10
833.890625
 20
-5133.953125
 10
843.9375
 20
-5133.953125
 10
853.984375
 20
-5133.953125
 10
864.03125
 20
-5133.953125
 10
874.078125
 20
-5133.953125
 10
884.125
 20
-5133.953125
 10
894.171875
 20
-5133.953125
 10
904.21875
 20
-5133.953125
 10
914.265625
 20
-5133.953125
 10
924.3125
 20
-5133.953125
 10
934.359375
 20
-5133.953125
 10
944.40625
 20
-5133.953125
 10
954.453125
 20
-5133.953125
 10
964.5
 20
-5133.953125
 10
974.546875
 20
-5133.953125
 10
984.59375
 20
-5133.953125
 10
994.640625
 20
-5133.953125
 10
1004.6875
 20
-5133.953125
 10
1014.734375
 20
-5133.953125
 10
1024.78125
 20
-5133.953125
 10
1034.828125
 20
-5133.953125
 10
1044.875
 20
-5133.953125
 10
1054.921875
 20
-5133.953125
 10
1064.96875
 20
-5133.953125
 10
1075.015625
 20
-5133.953125
 10
1085.0625
 20
-5133.953125
 10
1095.109375
 20
-5133.953125
 10
1105.15625
 20
-5133.953125
 10
1115.203125
 20
-5133.953125
 10
1125.25
 20
-5133.953125
 10
1135.296875
 20
-5133.953125
 10
1145.34375
 20
-5133.953125
 10
1155.390625
 20
-5133.953125
 10
1165.4375
 20
-5133.953125
 10
1175.484375
 20
-5133.953125
 10
1185.53125
 20
-5133.953125
 10
1195.578125
 20
-5133.953125
 10
1205.625
 20
-5133.953125
 10
1215.671875
 20
-5133.953125
 10
1225.71875
 20
-5133.953125
 10
1235.765625
 20
-5133.953125
 10
1245.8125
 20
-5133.953125
 10
1255.859375
 20
-5133.953125
 10
1265.90625
 20
-5133.953125
 10
1275.953125
 20
-5133.953125
 10
1286.0
 20
-5133.953125
 10
1296.046875
 20
-5133.953125
 10
1306.09375
 20
-5133.953125
 10
1316.140625
 20
-5133.953125
 10
1326.1875
 20
-5133.953125
 10
1336.234375
 20
-5133.953125
 10
1346.28125
 20
-5133.953125
 10
1356.328125
 20
-5133.953125
 10
1366.375
 20
-5133.953125
 10
1376.421875
 20
-5133.953125
 10
1386.46875
 20
-5133.953125
 10
1396.515625
 20
-5133.953125
 10
1406.5625
 20
-5133.953125
 10
1416.609375
 20
-5133.953125
 10
1426.65625
 20
-5133.953125
 10
1436.703125
 20
-5133.953125
 10
1446.75
 20
-5133.953125
 10
1456.796875
 20
-5133.953125
 10
1466.84375
 20
-5133.953125
 10
1476.890625
 20
-5133.953125
 10
1486.9375
 20
-5133.953125
 10
1496.984375
 20
-5133.953125
 10
1507.03125
 20
-5133.953125
 10
1517.078125
 20
-5133.953125
 10
1527.125
 20
-5133.953125
 10
1537.171875
 20
-5133.953125
 10
1547.21875
 20
-5133.953125
 10
1557.265625
 20
-5133.953125
 10
1567.3125
 20
-5133.953125
 10
1577.359375
 20
-5133.953125
 10
1587.40625
 20
-5133.953125
 10
1597.453125
 20
-5133.953125
 10
1607.5
 20
-5133.953125
 10
1617.546875
 20
-5133.953125
 10
1627.59375
 20
-5133.953125
 10
1637.640625
 20
-5133.953125
 10
1647.6875
 20
-5133.953125
 10
1657.734375
 20
-5133.953125
 10
1667.78125
 20
-5133.953125
 10
1677.828125
 20
-5133.953125
 10
1687.875
 20
-5133.953125
 10
1697.921875
 20
-5133.953125
 10
1707.96875
 20
-5133.953125
 10
1718.015625
 20
-5133.953125
 10
1728.0625
 20
-5133.953125
 10
1738.109375
 20
-5133.953125
 10
1748.15625
 20
-5133.953125
 10
1758.203125
 20
-5133.953125
 10
1768.25
 20
-5133.953125
 10
1778.296875
 20
-5133.953125
 10
1788.34375
 20
-5133.953125
 10
1798.390625
 20
-5133.953125
 10
1808.4375
 20
-5133.953125
 10
1818.484375
 20
-5133.953125
 10
1828.53125
 20
-5133.953125
 10
1838.578125
 20
-5133.953125
 10
1848.625
 20
-5133.953125
 10
1858.671875
 20
-5133.953125
 10
1868.71875
 20
-5133.953125
 10
1878.765625
 20
-5133.953125
 10
1888.8125
 20
-5133.953125
 10
1898.859375
 20
-5133.953125
 10
1908.90625
 20
-5133.953125
 10
1918.953125
 20
-5133.953125
 10
1929.0
 20
-5133.953125
 10
1939.046875
 20
-5133.953125
 10
1949.09375
 20
-5133.953125
 10
1959.140625
 20
-5133.953125
 10
1969.1875
 20
-5133.953125
 10
1979.234375
 20
-5133.953125
 10
1989.28125
 20
-5133.953125
 10
1999.328125
 20
-5133.953125
 10
2009.375
 20
-5133.953125
 10
2019.421875
 20
-5133.953125
 10
2029.46875
 20
-5133.953125
 10
2039.515625
 20
-5133.953125
 10
2049.5625
 20
-5133.953125
 10
2059.609375
 20
-5133.953125
 10
2069.65625
 20
-5133.953125
 10
2079.703125
 20
-5133.953125
 10
2089.75
 20
-5133.953125
 10
2099.796875
 20
-5133.953125
 10
2109.84375
 20
-5133.953125
 10
2119.890625
 20
-5133.953125
 10
2129.9375
 20
-5133.953125
 10
2139.984375
 20
-5133.953125
 10
2150.03125
 20
-5133.953125
 10
2160.078125
 20
-5133.953125
 10
2170.125
 20
-5133.953125
 10
2180.171875
 20
-5133.953125
 10
2190.21875
 20
-5133.953125
 10
2200.265625
 20
-5133.953125
 10
2210.3125
 20
-5133.953125
 10
2220.359375
 20
-5133.953125
 10
2230.40625
 20
-5133.953125
 10
2240.453125
 20
-5133.953125
 10
2250.5
 20
-5133.953125
 10
2260.546875
 20
-5133.953125
 10
2270.59375
 20
-5133.953125
 10
2280.640625
 20
-5133.953125
 10
2290.6875
 20
-5133.953125
 10
2300.734375
 20
-5133.953125
 10
2310.78125
 20
-5133.953125
 10
2320.828125
 20
-5133.953125
 10
2330.875
 20
-5133.953125
 10
2340.921875
 20
-5133.953125
 10
2350.96875
 20
-5133.953125
 10
2361.015625
 20
-5133.953125
 10
2371.0625
 20
-5133.953125
 10
2381.109375
 20
-5133.953125
 10
2391.15625
 20
-5133.953125
 10
2401.203125
 20
-5133.953125
 10
2411.25
 20
-5133.953125
 10
2421.296875
 20
-5133.953125
 10
2431.34375
 20
-5133.953125
 10
2441.390625
 20
-5133.953125
 10
2451.4375
 20
-5133.953125
 10
2461.484375
 20
-5133.953125
 10
2471.53125
 20
-5133.953125
 10
2481.578125
 20
-5133.953125
 10
2491.625
 20
-5133.953125
 10
2501.671875
 20
-5133.953125
 10
2511.71875
 20
-5133.953125
 10
2521.765625
 20
-5133.953125
 10
2531.8125
 20
-5133.953125
 10
2541.859375
 20
-5133.953125
 10
2551.90625
 20
-5133.953125
 10
2561.953125
 20
-5133.953125
 10
2572.0
 20
-5133.953125
 10
2582.046875
 20
-5133.953125
 10
2592.09375
 20
-5133.953125
 10
2602.140625
 20
-5133.953125
 10
2612.1875
 20
-5133.953125
 10
2622.234375
 20
-5133.953125
 10
2632.28125
 20
-5133.953125
 10
2642.328125
 20
-5133.953125
 10
2652.375
 20
-5133.953125
 10
2662.421875
 20
-5133.953125
 10
2672.46875
 20
-5133.953125
 10
2682.515625
 20
-5133.953125
 10
2692.5625
 20
-5133.953125
 10
2702.609375
 20
-5133.953125
 10
2712.65625
 20
-5133.953125
 10
2722.703125
 20
-5133.953125
 10
2732.75
 20
-5133.953125
 10
2742.796875
 20
-5133.953125
 10
2752.84375
 20
-5133.953125
 10
2762.890625
 20
-5133.953125
 10
2772.9375
 20
-5133.953125
 10
2782.984375
 20
-5133.953125
 10
2793.03125
 20
-5133.953125
 10
2803.078125
 20
-5133.953125
 10
2813.125
 20
-5133.953125
 10
2823.171875
 20
-5133.953125
 10
2833.21875
 20
-5133.953125
 10
2843.265625
 20
-5133.953125
 10
2853.3125
 20
-5133.953125
 10
2863.359375
 20
-5133.953125
 10
2873.40625
 20
-5133.953125
 10
2883.453125
 20
-5133.953125
 10
2893.5
 20
-5133.953125
 10
2903.546875
 20
-5133.953125
 10
2913.59375
 20
-5133.953125
 10
2923.640625
 20
-5133.953125
 10
2933.6875
 20
-5133.953125
 10
2943.734375
 20
-5133.953125
 10
2953.78125
 20
-5133.953125
 10
2963.828125
 20
-5133.953125
 10
2973.875
 20
-5133.953125
 10
2983.921875
 20
-5133.953125
 10
2993.96875
 20
-5133.953125
 10
3004.015625
 20
-5133.953125
 10
3014.0625
 20
-5133.953125
 10
3024.109375
 20
-5133.953125
 10
3034.15625
 20
-5133.953125
 10
3044.203125
 20
-5133.953125
 10
3054.25
 20
-5133.953125
 10
3064.296875
 20
-5133.953125
 10
3074.34375
 20
-5133.953125
 10
3084.390625
 20
-5133.953125
 10
3094.4375
 20
-5133.953125
 10
3104.484375
 20
-5133.953125
 10
3114.53125
 20
-5133.953125
 10
3124.578125
 20
-5133.953125
 10
3134.625
 20
-5133.953125
 10
3144.671875
 20
-5133.953125
 10
3154.71875
 20
-5133.953125
 10
3164.765625
 20
-5133.953125
 10
3174.8125
 20
-5133.953125
 10
3184.859375
 20
-5133.953125
 10
3194.90625
 20
-5133.953125
 10
3204.953125
 20
-5133.953125
 10
3215.0
 20
-5133.953125
 10
3225.046875
 20
-5133.953125
 10
3235.09375
 20
-5133.953125
 10
3245.140625
 20
-5133.953125
 10
3255.1875
 20
-5133.953125
 10
3265.234375
 20
-5133.953125
 10
3275.28125
 20
-5133.953125
 10
3285.328125
 20
-5133.953125
 10
3295.375
 20
-5133.953125
 10
3305.421875
 20
-5133.953125
 10
3315.46875
 20
-5133.953125
 10
3325.515625
 20
-5133.953125
 10
3335.5625
 20
-5133.953125
 10
3345.609375
 20
-5133.953125
 10
3355.65625
 20
-5133.953125
 10
3365.703125
 20
-5133.953125
 10
3375.75
 20
-5133.953125
 10
3385.796875
 20
-5133.953125
 10
3395.84375
 20
-5133.953125
 10
3405.890625
 20
-5133.953125
 10
3415.9375
 20
-5133.953125
 10
3425.984375
 20
-5133.953125
 10
3436.03125
 20
-5133.953125
 10
3446.078125
 20
-5133.953125
 10
3456.125
 20
-5133.953125
 10
3466.171875
 20
-5133.953125
 10
3476.21875
 20
-5133.953125
 10
3486.265625
 20
-5133.953125
 10
3496.3125
 20
-5133.953125
 10
3506.359375
 20
-5133.953125
 10
3516.40625
 20
-5133.953125
 10
3526.453125
 20
-5133.953125
 10
3536.5
 20
-5133.953125
 10
3546.546875
 20
-5133.953125
 10
3556.59375
 20
-5133.953125
 10
3566.640625
 20
-5133.953125
 10
3576.6875
 20
-5133.953125
 10
3586.734375
 20
-5133.953125
 10
3596.78125
 20
-5133.953125
 10
3606.828125
 20
-5133.953125
 10
3616.875
 20
-5133.953125
 10
3626.921875
 20
-5133.953125
 10
3636.96875
 20
-5133.953125
 10
3647.015625
 20
-5133.953125
 10
3657.0625
 20
-5133.953125
 10
3667.109375
 20
-5133.953125
 10
3677.15625
 20
-5133.953125
 10
3687.203125
 20
-5133.953125
 10
3697.25
 20
-5133.953125
 10
3707.296875
 20
-5133.953125
 10
3717.34375
 20
-5133.953125
 10
3727.390625
 20
-5133.953125
 10
3737.4375
 20
-5133.953125
 10
3747.484375
 20
-5133.953125
 10
3757.53125
 20
-5133.953125
 10
3767.578125
 20
-5133.953125
 10
3777.625
 20
-5133.953125
 10
3787.671875
 20
-5133.953125
 10
3797.71875
 20
-5133.953125
 10
3807.765625
 20
-5133.953125
 10
3817.8125
 20
-5133.953125
 10
3827.859375
 20
-5133.953125
 10
3837.90625
 20
-5133.953125
 10
3847.953125
 20
-5133.953125
 10
3858.0
 20
-5133.953125
 10
3868.046875
 20
-5133.953125
 10
3878.09375
 20
-5133.953125
 10
3888.140625
 20
-5133.953125
 10
3898.1875
 20
-5133.953125
 10
3908.234375
 20
-5133.953125
 10
3918.28125
 20
-5133.953125
 10
3928.328125
 20
-5133.953125
 10
3938.375
 20
-5133.953125
 10
3948.421875
 20
-5133.953125
 10
3958.46875
 20
-5133.953125
 10
3968.515625
 20
-5133.953125
 10
3978.5625
 20
-5133.953125
 10
3988.609375
 20
-5133.953125
 10
3998.65625
 20
-5133.953125
 10
4008.703125
 20
-5133.953125
 10
4018.75
 20
-5133.953125
 10
4028.796875
 20
-5133.953125
 10
4038.84375
 20
-5133.953125
 10
4048.890625
 20
-5133.953125
 10
4058.9375
 20
-5133.953125
 10
4068.984375
 20
-5133.953125
 10
4079.03125
 20
-5133.953125
 10
4089.078125
 20
-5133.953125
 10
4099.125
 20
-5133.953125
 10
4109.171875
 20
-5133.953125
 10
4119.21875
 20
-5133.953125
 10
4129.265625
 20
-5133.953125
 10
4139.3125
 20
-5133.953125
 10
4149.359375
 20
-5133.953125
 10
4159.40625
 20
-5133.953125
 10
4169.453125
 20
-5133.953125
 10
4179.5
 20
-5133.953125
 10
4189.546875
 20
-5133.953125
 10
4199.59375
 20
-5133.953125
 10
4209.640625
 20
-5133.953125
 10
4219.6875
 20
-5133.953125
 10
4229.734375
 20
-5133.953125
 10
4239.78125
 20
-5133.953125
 10
4249.828125
 20
-5133.953125
 10
4259.875
 20
-5133.953125
 10
4269.921875
 20
-5133.953125
 10
4279.96875
 20
-5133.953125
 10
4290.015625
 20
-5133.953125
 10
4300.0625
 20
-5133.953125
 10
4310.109375
 20
-5133.953125
 10
4320.15625
 20
-5133.953125
 10
4330.203125
 20
-5133.953125
 10
4340.25
 20
-5133.953125
 10
4350.296875
 20
-5133.953125
 10
4360.34375
 20
-5133.953125
 10
4370.390625
 20
-5133.953125
 10
4380.4375
 20
-5133.953125
 10
4390.484375
 20
-5133.953125
 10
4400.53125
 20
-5133.953125
 10
4410.578125
 20
-5133.953125
 10
4420.625
 20
-5133.953125
 10
4430.671875
 20
-5133.953125
 10
4440.71875
 20
-5133.953125
 10
4450.765625
 20
-5133.953125
 10
4460.8125
 20
-5133.953125
 10
4470.859375
 20
-5133.953125
 10
4480.90625
 20
-5133.953125
 10
4490.953125
 20
-5133.953125
 10
4501.0
 20
-5133.953125
 10
4511.046875
 20
-5133.953125
 10
4521.09375
 20
-5133.953125
 10
4531.140625
 20
-5133.953125
 10
4541.1875
 20
-5133.953125
 10
4551.234375
 20
-5133.953125
 10
4561.28125
 20
-5133.953125
 10
4571.328125
 20
-5133.953125
 10
4581.375
 20
-5133.953125
 10
4591.421875
 20
-5133.953125
 10
4601.46875
 20
-5133.953125
 10
4611.515625
 20
-5133.953125
 10
4621.5625
 20
-5133.953125
 10
4631.609375
 20
-5133.953125
 10
4641.65625
 20
-5133.953125
 10
4651.703125
 20
-5133.953125
 10
4661.75
 20
-5133.953125
 10
4671.796875
 20
-5133.953125
 10
4681.84375
 20
-5133.953125
 10
4691.890625
 20
-5133.953125
 10
4701.9375
 20
-5133.953125
 10
4711.984375
 20
-5133.953125
 10
4722.03125
 20
-5133.953125
 10
4732.078125
 20
-5133.953125
 10
4742.125
 20
-5133.953125
 10
4752.171875
 20
-5133.953125
 10
4762.21875
 20
-5133.953125
 10
4772.265625
 20
-5133.953125
 10
4782.3125
 20
-5133.953125
 10
4792.359375
 20
-5133.953125
 10
4802.40625
 20
-5133.953125
 10
4812.453125
 20
-5133.953125
 10
4822.5
 20
-5133.953125
 10
4832.546875
 20
-5133.953125
 10
4842.59375
 20
-5133.953125
 10
4852.640625
 20
-5133.953125
 10
4862.6875
 20
-5133.953125
 10
4872.734375
 20
-5133.953125
 10
4882.78125
 20
-5133.953125
 10
4892.828125
 20
-5133.953125
 10
4902.875
 20
-5133.953125
 10
4912.921875
 20
-5133.953125
 10
4922.96875
 20
-5133.953125
 10
4933.015625
 20
-5133.953125
 10
4943.0625
 20
-5133.953125
 10
4953.109375
 20
-5133.953125
 10
4963.15625
 20
-5133.953125
 10
4973.203125
 20
-5133.953125
 10
4983.25
 20
-5133.953125
 10
4993.296875
 20
-5133.953125
 10
5003.34375
 20
-5133.953125
 10
5013.390625
 20
-5133.953125
 10
5023.4375
 20
-5133.953125
 10
5033.484375
 20
-5133.953125
 10
5043.53125
 20
-5133.953125
 10
5053.578125
 20
-5133.953125
 10
5063.625
 20
-5133.953125
 10
5073.671875
 20
-5133.953125
 10
5083.71875
 20
-5133.953125
 10
5093.765625
 20
-5133.953125
 10
5103.8125
 20
-5133.953125
 10
5113.859375
 20
-5133.953125
 10
5123.90625
 20
-5133.953125
 10
5133.953125
 20
-5133.953125
 10
5133.953125
 20
-5123.90625
 10
5133.953125
 20
-5113.859375
 10
5133.953125
 20
-5103.8125
 10
5133.953125
 20
-5093.765625
 10
5133.953125
 20
-5083.71875
 10
5133.953125
 20
-5073.671875
 10
5133.953125
 20
-5063.625
 10
5133.953125
 20
-5053.578125
 10
5133.953125
 20
-5043.53125
 10
5133.953125
 20
-5033.484375
 10
5133.953125
 20
-5023.4375
 10
5133.953125
 20
-5013.390625
 10
5133.953125
 20
-5003.34375
 10
5133.953125
 20
-4993.296875
 10
5133.953125
 20
-4983.25
 10
5133.953125
 20
-4973.203125
 10
5133.953125
 20
-4963.15625
 10
5133.953125
 20
-4953.109375
 10
5133.953125
 20
-4943.0625
 10
5133.953125
 20
-4933.015625
 10
5133.953125
 20
-4922.96875
 10
5133.953125
 20
-4912.921875
 10
5133.953125
 20
-4902.875
 10
5133.953125
 20
-4892.828125
 10
5133.953125
 20
-4882.78125
 10
5133.953125
 20
-4872.734375
 10
5133.953125
 20
-4862.6875
 10
5133.953125
 20
-4852.640625
 10
5133.953125
 20
-4842.59375
 10
5133.953125
 20
-4832.546875
 10
5133.953125
 20
-4822.5
 10
5133.953125
 20
-4812.453125
 10
5133.953125
 20
-4802.40625
 10
5133.953125
 20
-4792.359375
 10
5133.953125
 20
-4782.3125
 10
5133.953125
 20
-4772.265625
 10
5133.953125
 20
-4762.21875
 10
5133.953125
 20
-4752.171875
 10
5133.953125
 20
-4742.125
 10
5133.953125
 20
-4732.078125
 10
5133.953125
 20
-4722.03125
 10
5133.953125
 20
-4711.984375
 10
5133.953125
 20
-4701.9375
 10
5133.953125
 20
-4691.890625
 10
5133.953125
 20
-4681.84375
 10
5133.953125
 20
-4671.796875
 10
5133.953125
 20
-4661.75
 10
5133.953125
 20
-4651.703125
 10
5133.953125
 20
-4641.65625
 10
5133.953125
 20
-4631.609375
 10
5133.953125
 20
-4621.5625
 10
5133.953125
 20
-4611.515625
 10
5133.953125
 20
-4601.46875
 10
5133.953125
 20
-4591.421875
 10
5133.953125
 20
-4581.375
 10
5133.953125
 20
-4571.328125
 10
5133.953125
 20
-4561.28125
 10
5133.953125
 20
-4551.234375
 10
5133.953125
 20
-4541.1875
 10
5133.953125
 20
-4531.140625
 10
5133.953125
 20
-4521.09375
 10
5133.953125
 20
-4511.046875
 10
5133.953125
 20
-4501.0
 10
5133.953125
 20
-4490.953125
 10
5133.953125
 20
-4480.90625
 10
5133.953125
 20
-4470.859375
 10
5133.953125
 20
-4460.8125
 10
5133.953125
 20
-4450.765625
 10
5133.953125
 20
-4440.71875
 10
5133.953125
 20
-4430.671875
 10
5133.953125
 20
-4420.625
 10
5133.953125
 20
-4410.578125
 10
5133.953125
 20
-4400.53125
 10
5133.953125
 20
-4390.484375
 10
5133.953125
 20
-4380.4375
 10
5133.953125
 20
-4370.390625
 10
5133.953125
 20
-4360.34375
 10
5133.953125
 20
-4350.296875
 10
5133.953125
 20
-4340.25
 10
5133.953125
 20
-4330.203125
 10
5133.953125
 20
-4320.15625
 10
5133.953125
 20
-4310.109375
 10
5133.953125
 20
-4300.0625
 10
5133.953125
 20
-4290.015625
 10
5133.953125
 20
-4279.96875
 10
5133.953125
 20
-4269.921875
 10
5133.953125
 20
-4259.875
 10
5133.953125
 20
-4249.828125
 10
5133.953125
 20
-4239.78125
 10
5133.953125
 20
-4229.734375
 10
5133.953125
 20
-4219.6875
 10
5133.953125
 20
-4209.640625
 10
5133.953125
 20
-4199.59375
 10
5133.953125
 20
-4189.546875
 10
5133.953125
 20
-4179.5
 10
5133.953125
 20
-4169.453125
 10
5133.953125
 20
-4159.40625
 10
5133.953125
 20
-4149.359375
 10
5133.953125
 20
-4139.3125
 10
5133.953125
 20
-4129.265625
 10
5133.953125
 20
-4119.21875
 10
5133.953125
 20
-4109.171875
 10
5133.953125
 20
-4099.125
 10
5133.953125
 20
-4089.078125
 10
5133.953125
 20
-4079.03125
 10
5133.953125
 20
-4068.984375
 10
5133.953125
 20
-4058.9375
 10
5133.953125
 20
-4048.890625
 10
5133.953125
 20
-4038.84375
 10
5133.953125
 20
-4028.796875
 10
5133.953125
 20
-4018.75
 10
5133.953125
 20
-4008.703125
 10
5133.953125
 20
-3998.65625
 10
5133.953125
 20
-3988.609375
 10
5133.953125
 20
-3978.5625
 10
5133.953125
 20
-3968.515625
 10
5133.953125
 20
-3958.46875
 10
5133.953125
 20
-3948.421875
 10
5133.953125
 20
-3938.375
 10
5133.953125
 20
-3928.328125
 10
5133.953125
 20
-3918.28125
 10
5133.953125
 20
-3908.234375
 10
5133.953125
 20
-3898.1875
 10
5133.953125
 20
-3888.140625
 10
5133.953125
 20
-3878.09375
 10
5133.953125
 20
-3868.046875
 10
5133.953125
 20
-3858.0
 10
5133.953125
 20
-3847.953125
 10
5133.953125
 20
-3837.90625
 10
5133.953125
 20
-3827.859375
 10
5133.953125
 20
-3817.8125
 10
5133.953125
 20
-3807.765625
 10
5133.953125
 20
-3797.71875
 10
5133.953125
 20
-3787.671875
 10
5133.953125
 20
-3777.625
 10
5133.953125
 20
-3767.578125
 10
5133.953125
 20
-3757.53125
 10
5133.953125
 20
-3747.484375
 10
5133.953125
 20
-3737.4375
 10
5133.953125
 20
-3727.390625
 10
5133.953125
 20
-3717.34375
 10
5133.953125
 20
-3707.296875
 10
5133.953125
 20
-3697.25
 10
5133.953125
 20
-3687.203125
 10
5133.953125
 20
-3677.15625
 10
5133.953125
 20
-3667.109375
 10
5133.953125
 20
-3657.0625
 10
5133.953125
 20
-3647.015625
 10
5133.953125
 20
-3636.96875
 10
5133.953125
 20
-3626.921875
 10
5133.953125
 20
-3616.875
 10
5133.953125
 20
-3606.828125
 10
5133.953125
 20
-3596.78125
 10
5133.953125
 20
-3586.734375
 10
5133.953125
 20
-3576.6875
 10
5133.953125
 20
-3566.640625
 10
5133.953125
 20
-3556.59375
 10
5133.953125
 20
-3546.546875
 10
5133.953125
 20
-3536.5
 10
5133.953125
 20
-3526.453125
 10
5133.953125
 20
-3516.40625
 10
5133.953125
 20
-3506.359375
 10
5133.953125
 20
-3496.3125
 10
5133.953125
 20
-3486.265625
 10
5133.953125
 20
-3476.21875
 10
5133.953125
 20
-3466.171875
 10
5133.953125
 20
-3456.125
 10
5133.953125
 20
-3446.078125
 10
5133.953125
 20
-3436.03125
 10
5133.953125
 20
-3425.984375
 10
5133.953125
 20
-3415.9375
 10
5133.953125
 20
-3405.890625
 10
5133.953125
 20
-3395.84375
 10
5133.953125
 20
-3385.796875
 10
5133.953125
 20
-3375.75
 10
5133.953125
 20
-3365.703125
 10
5133.953125
 20
-3355.65625
 10
5133.953125
 20
-3345.609375
 10
5133.953125
 20
-3335.5625
 10
5133.953125
 20
-3325.515625
 10
5133.953125
 20
-3315.46875
 10
5133.953125
 20
-3305.421875
 10
5133.953125
 20
-3295.375
 10
5133.953125
 20
-3285.328125
 10
5133.953125
 20
-3275.28125
 10
5133.953125
 20
-3265.234375
 10
5133.953125
 20
-3255.1875
 10
5133.953125
 20
-3245.140625
 10
5133.953125
 20
-3235.09375
 10
5133.953125
 20
-3225.046875
 10
5133.953125
 20
-3215.0
 10
5133.953125
 20
-3204.953125
 10
5133.953125
 20
-3194.90625
 10
5133.953125
 20
-3184.859375
 10
5133.953125
 20
-3174.8125
 10
5133.953125
 20
-3164.765625
 10
5133.953125
 20
-3154.71875
 10
5133.953125
 20
-3144.671875
 10
5133.953125
 20
-3134.625
 10
5133.953125
 20
-3124.578125
 10
5133.953125
 20
-3114.53125
 10
5133.953125
 20
-3104.484375
 10
5133.953125
 20
-3094.4375
 10
5133.953125
 20
-3084.390625
 10
5133.953125
 20
-3074.34375
 10
5133.953125
 20
-3064.296875
 10
5133.953125
 20
-3054.25
 10
5133.953125
 20
-3044.203125
 10
5133.953125
 20
-3034.15625
 10
5133.953125
 20
-3024.109375
 10
5133.953125
 20
-3014.0625
 10
5133.953125
 20
-3004.015625
 10
5133.953125
 20
-2993.96875
 10
5133.953125
 20
-2983.921875
 10
5133.953125
 20
-2973.875
 10
5133.953125
 20
-2963.828125
 10
5133.953125
 20
-2953.78125
 10
5133.953125
 20
-2943.734375
 10
5133.953125
 20
-2933.6875
 10
5133.953125
 20
-2923.640625
 10
5133.953125
 20
-2913.59375
 10
5133.953125
 20
-2903.546875
 10
5133.953125
 20
-2893.5
 10
5133.953125
 20
-2883.453125
 10
5133.953125
 20
-2873.40625
 10
5133.953125
 20
-2863.359375
 10
5133.953125
 20
-2853.3125
 10
5133.953125
 20
-2843.265625
 10
5133.953125
 20
-2833.21875
 10
5133.953125
 20
-2823.171875
 10
5133.953125
 20
-2813.125
 10
5133.953125
 20
-2803.078125
 10
5133.953125
 20
-2793.03125
 10
5133.953125
 20
-2782.984375
 10
5133.953125
 20
-2772.9375
 10
5133.953125
 20
-2762.890625
 10
5133.953125
 20
-2752.84375
 10
5133.953125
 20
-2742.796875
 10
5133.953125
 20
-2732.75
 10
5133.953125
 20
-2722.703125
 10
5133.953125
 20
-2712.65625
 10
5133.953125
 20
-2702.609375
 10
5133.953125
 20
-2692.5625
 10
5133.953125
 20
-2682.515625
 10
5133.953125
 20
-2672.46875
 10
5133.953125
 20
-2662.421875
 10
5133.953125
 20
-2652.375
 10
5133.953125
 20
-2642.328125
 10
5133.953125
 20
-2632.28125
 10
5133.953125
 20
-2622.234375
 10
5133.953125
 20
-2612.1875
 10
5133.953125
 20
-2602.140625
 10
5133.953125
 20
-2592.09375
 10
5133.953125
 20
-2582.046875
 10
5133.953125
 20
-2572.0
 10
5133.953125
 20
-2561.953125
 10
5133.953125
 20
-2551.90625
 10
5133.953125
 20
-2541.859375
 10
5133.953125
 20
-2531.8125
 10
5133.953125
 20
-2521.765625
 10
5133.953125
 20
-2511.71875
 10
5133.953125
 20
-2501.671875
 10
5133.953125
 20
-2491.625
 10
5133.953125
 20
-2481.578125
 10
5133.953125
 20
-2471.53125
 10
5133.953125
 20
-2461.484375
 10
5133.953125
 20
-2451.4375
 10
5133.953125
 20
-2441.390625
 10
5133.953125
 20
-2431.34375
 10
5133.953125
 20
-2421.296875
 10
5133.953125
 20
-2411.25
 10
5133.953125
 20
-2401.203125
 10
5133.953125
 20
-2391.15625
 10
5133.953125
 20
-2381.109375
 10
5133.953125
 20
-2371.0625
 10
5133.953125
 20
-2361.015625
 10
5133.953125
 20
-2350.96875
 10
5133.953125
 20
-2340.921875
 10
5133.953125
 20
-2330.875
 10
5133.953125
 20
-2320.828125
 10
5133.953125
 20
-2310.78125
 10
5133.953125
 20
-2300.734375
 10
5133.953125
 20
-2290.6875
 10
5133.953125
 20
-2280.640625
 10
5133.953125
 20
-2270.59375
 10
5133.953125
 20
-2260.546875
 10
5133.953125
 20
-2250.5
 10
5133.953125
 20
-2240.453125
 10
5133.953125
 20
-2230.40625
 10
5133.953125
 20
-2220.359375
 10
5133.953125
 20
-2210.3125
 10
5133.953125
 20
-2200.265625
 10
5133.953125
 20
-2190.21875
 10
5133.953125
 20
-2180.171875
 10
5133.953125
 20
-2170.125
 10
5133.953125
 20
-2160.078125
 10
5133.953125
 20
-2150.03125
 10
5133.953125
 20
-2139.984375
 10
5133.953125
 20
-2129.9375
 10
5133.953125
 20
-2119.890625
 10
5133.953125
 20
-2109.84375
 10
5133.953125
 20
-2099.796875
 10
5133.953125
 20
-2089.75
 10
5133.953125
 20
-2079.703125
 10
5133.953125
 20
-2069.65625
 10
5133.953125
 20
-2059.609375
 10
5133.953125
 20
-2049.5625
 10
5133.953125
 20
-2039.515625
 10
5133.953125
 20
-2029.46875
 10
5133.953125
 20
-2019.421875
 10
5133.953125
 20
-2009.375
 10
5133.953125
 20
-1999.328125
 10
5133.953125
 20
-1989.28125
 10
5133.953125
 20
-1979.234375
 10
5133.953125
 20
-1969.1875
 10
5133.953125
 20
-1959.140625
 10
5133.953125
 20
-1949.09375
 10
5133.953125
 20
-1939.046875
 10
5133.953125
 20
-1929.0
 10
5133.953125
 20
-1918.953125
 10
5133.953125
 20
-1908.90625
 10
5133.953125
 20
-1898.859375
 10
5133.953125
 20
-1888.8125
 10
5133.953125
 20
-1878.765625
 10
5133.953125
 20
-1868.71875
 10
5133.953125
 20
-1858.671875
 10
5133.953125
 20
-1848.625
 10
5133.953125
 20
-1838.578125
 10
5133.953125
 20
-1828.53125
 10
5133.953125
 20
-1818.484375
 10
5133.953125
 20
-1808.4375
 10
5133.953125
 20
-1798.390625
 10
5133.953125
 20
-1788.34375
 10
5133.953125
 20
-1778.296875
 10
5133.953125
 20
-1768.25
 10
5133.953125
 20
-1758.203125
 10
5133.953125
 20
-1748.15625
 10
5133.953125
 20
-1738.109375
 10
5133.953125
 20
-1728.0625
 10
5133.953125
 20
-1718.015625
 10
5133.953125
 20
-1707.96875
 10
5133.953125
 20
-1697.921875
 10
5133.953125
 20
-1687.875
 10
5133.953125
 20
-1677.828125
 10
5133.953125
 20
-1667.78125
 10
5133.953125
 20
-1657.734375
 10
5133.953125
 20
-1647.6875
 10
5133.953125
 20
-1637.640625
 10
5133.953125
 20
-1627.59375
 10
5133.953125
 20
-1617.546875
 10
5133.953125
 20
-1607.5
 10
5133.953125
 20
-1597.453125
 10
5133.953125
 20
-1587.40625
 10
5133.953125
 20
-1577.359375
 10
5133.953125
 20
-1567.3125
 10
5133.953125
 20
-1557.265625
 10
5133.953125
 20
-1547.21875
 10
5133.953125
 20
-1537.171875
 10
5133.953125
 20
-1527.125
 10
5133.953125
 20
-1517.078125
 10
5133.953125
 20
-1507.03125
 10
5133.953125
 20
-1496.984375
 10
5133.953125
 20
-1486.9375
 10
5133.953125
 20
-1476.890625
 10
5133.953125
 20
-1466.84375
 10
5133.953125
 20
-1456.796875
 10
5133.953125
 20
-1446.75
 10
5133.953125
 20
-1436.703125
 10
5133.953125
 20
-1426.65625
 10
5133.953125
 20
-1416.609375
 10
5133.953125
 20
-1406.5625
 10
5133.953125
 20
-1396.515625
 10
5133.953125
 20
-1386.46875
 10
5133.953125
 20
-1376.421875
 10
5133.953125
 20
-1366.375
 10
5133.953125
 20
-1356.328125
 10
5133.953125
 20
-1346.28125
 10
5133.953125
 20
-1336.234375
 10
5133.953125
 20
-1326.1875
 10
5133.953125
 20
-1316.140625
 10
5133.953125
 20
-1306.09375
 10
5133.953125
 20
-1296.046875
 10
5133.953125
 20
-1286.0
 10
5133.953125
 20
-1275.953125
 10
5133.953125
 20
-1265.90625
 10
5133.953125
 20
-1255.859375
 10
5133.953125
 20
-1245.8125
 10
5133.953125
 20
-1235.765625
 10
5133.953125
 20
-1225.71875
 10
5133.953125
 20
-1215.671875
 10
5133.953125
 20
-1205.625
 10
5133.953125
 20
-1195.578125
 10
5133.953125
 20
-1185.53125
 10
5133.953125
 20
-1175.484375
 10
5133.953125
 20
-1165.4375
 10
5133.953125
 20
-1155.390625
 10
5133.953125
 20
-1145.34375
 10
5133.953125
 20
-1135.296875
 10
5133.953125
 20
-1125.25
 10
5133.953125
 20
-1115.203125
 10
5133.953125
 20
-1105.15625
 10
5133.953125
 20
-1095.109375
 10
5133.953125
 20
-1085.0625
 10
5133.953125
 20
-1075.015625
 10
5133.953125
 20
-1064.96875
 10
5133.953125
 20
-1054.921875
 10
5133.953125
 20
-1044.875
 10
5133.953125
 20
-1034.828125
 10
5133.953125
 20
-1024.78125
 10
5133.953125
 20
-1014.734375
 10
5133.953125
 20
-1004.6875
 10
5133.953125
 20
-994.640625
 10
5133.953125
 20
-984.59375
 10
5133.953125
 20
-974.546875
 10
5133.953125
 20
-964.5
 10
5133.953125
 20
-954.453125
 10
5133.953125
 20
-944.40625
 10
5133.953125
 20
-934.359375
 10
5133.953125
 20
-924.3125
 10
5133.953125
 20
-914.265625
 10
5133.953125
 20
-904.21875
 10
5133.953125
 20
-894.171875
 10
5133.953125
 20
-884.125
 10
5133.953125
 20
-874.078125
 10
5133.953125
 20
-864.03125
 10
5133.953125
 20
-853.984375
 10
5133.953125
 20
-843.9375
 10
5133.953125
 20
-833.890625
 10
5133.953125
 20
-823.84375
 10
5133.953125
 20
-813.796875
 10
5133.953125
 20
-803.75
 10
5133.953125
 20
-793.703125
 10
5133.953125
 20
-783.65625
 10
5133.953125
 20
-773.609375
 10
5133.953125
 20
-763.5625
 10
5133.953125
 20
-753.515625
 10
5133.953125
 20
-743.46875
 10
5133.953125
 20
-733.421875
 10
5133.953125
 20
-723.375
 10
5133.953125
 20
-713.328125
 10
5133.953125
 20
-703.28125
 10
5133.953125
 20
-693.234375
 10
5133.953125
 20
-683.1875
 10
5133.953125
 20
-673.140625
 10
5133.953125
 20
-663.09375
 10
5133.953125
 20
-653.046875
 10
5133.953125
 20
-643.0
 10
5133.953125
 20
-632.953125
 10
5133.953125
 20
-622.90625
 10
5133.953125
 20
-612.859375
 10
5133.953125
 20
-602.8125
 10
5133.953125
 20
-592.765625
 10
5133.953125
 20
-582.71875
 10
5133.953125
 20
-572.671875
 10
5133.953125
 20
-562.625
 10
5133.953125
 20
-552.578125
 10
5133.953125
 20
-542.53125
 10
5133.953125
 20
-532.484375
 10
5133.953125
 20
-522.4375
 10
5133.953125
 20
-512.390625
 10
5133.953125
 20
-502.34375
 10
5133.953125
 20
-492.296875
 10
5133.953125
 20
-482.25
 10
5133.953125
 20
-472.203125
 10
5133.953125
 20
-462.15625
 10
5133.953125
 20
-452.109375
 10
5133.953125
 20
-442.0625
 10
5133.953125
 20
-432.015625
 10
5133.953125
 20
-421.96875
 10
5133.953125
 20
-411.921875
 10
5133.953125
 20
-401.875
 10
5133.953125
 20
-391.828125
 10
5133.953125
 20
-381.78125
 10
5133.953125
 20
-371.734375
 10
5133.953125
 20
-361.6875
 10
5133.953125
 20
-351.640625
 10
5133.953125
 20
-341.59375
 10
5133.953125
 20
-331.546875
 10
5133.953125
 20
-321.5
 10
5133.953125
 20
-311.453125
 10
5133.953125
 20
-301.40625
 10
5133.953125
 20
-291.359375
 10
5133.953125
 20
-281.3125
 10
5133.953125
 20
-271.265625
 10
5133.953125
 20
-261.21875
 10
5133.953125
 20
-251.171875
 10
5133.953125
 20
-241.125
 10
5133.953125
 20
-231.078125
 10
5133.953125
 20
-221.03125
 10
5133.953125
 20
-210.984375
 10
5133.953125
 20
-200.9375
 10
5133.953125
 20
-190.890625
 10
5133.953125
 20
-180.84375
 10
5133.953125
 20
-170.796875
 10
5133.953125
 20
-160.75
 10
5133.953125
 20
-150.703125
 10
5133.953125
 20
-140.65625
 10
5133.953125
 20
-130.609375
 10
5133.953125
 20
-120.5625
 10
5133.953125
 20
-110.515625
 10
5133.953125
 20
-100.46875
 10
5133.953125
 20
-90.421875
 10
5133.953125
 20
-80.375
 10
5133.953125
 20
-70.328125
 10
5133.953125
 20
-60.28125
 10
5133.953125
 20
-50.234375
 10
5133.953125
 20
-40.1875
 10
5133.953125
 20
-30.140625
 10
5133.953125
 20
-20.09375
 10
5133.953125
 20
-10.046875
 10
5133.953125
 20
-0.0
 10
5123.90625
 20
-0.0
 10
5113.859375
 20
-0.0
 10
5103.8125
 20
-0.0
 10
5093.765625
 20
-0.0
 10
5083.71875
 20
-0.0
 10
5073.671875
 20
-0.0
 10
5063.625
 20
-0.0
 10
5053.578125
 20
-0.0
 10
5043.53125
 20
-0.0
 10
5033.484375
 20
-0.0
 10
5023.4375
 20
-0.0
 10
5013.390625
 20
-0.0
 10
5003.34375
 20
-0.0
 10
4993.296875
 20
-0.0
 10
4983.25
 20
-0.0
 10
4973.203125
 20
-0.0
 10
4963.15625
 20
-0.0
 10
4953.109375
 20
-0.0
 10
4943.0625
 20
-0.0
 10
4933.015625
 20
-0.0
 10
4922.96875
 20
-0.0
 10
4912.921875
 20
-0.0
 10
4902.875
 20
-0.0
 10
4892.828125
 20
-0.0
 10
4882.78125
 20
-0.0
 10
4872.734375
 20
-0.0
 10
4862.6875
 20
-0.0
 10
4852.640625
 20
-0.0
 10
4842.59375
 20
-0.0
 10
4832.546875
 20
-0.0
 10
4822.5
 20
-0.0
 10
4812.453125
 20
-0.0
 10
4802.40625
 20
-0.0
 10
4792.359375
 20
-0.0
 10
4782.3125
 20
-0.0
 10
4772.265625
 20
-0.0
 10
4762.21875
 20
-0.0
 10
4752.171875
 20
-0.0
 10
4742.125
 20
-0.0
 10
4732.078125
 20
-0.0
 10
4722.03125
 20
-0.0
 10
4711.984375
 20
-0.0
 10
4701.9375
 20
-0.0
 10
4691.890625
 20
-0.0
 10
4681.84375
 20
-0.0
 10
4671.796875
 20
-0.0
 10
4661.75
 20
-0.0
 10
4651.703125
 20
-0.0
 10
4641.65625
 20
-0.0
 10
4631.609375
 20
-0.0
 10
4621.5625
 20
-0.0
 10
4611.515625
 20
-0.0
 10
4601.46875
 20
-0.0
 10
4591.421875
 20
-0.0
 10
4581.375
 20
-0.0
 10
4571.328125
 20
-0.0
 10
4561.28125
 20
-0.0
 10
4551.234375
 20
-0.0
 10
4541.1875
 20
-0.0
 10
4531.140625
 20
-0.0
 10
4521.09375
 20
-0.0
 10
4511.046875
 20
-0.0
 10
4501.0
 20
-0.0
 10
4490.953125
 20
-0.0
 10
4480.90625
 20
-0.0
 10
4470.859375
 20
-0.0
 10
4460.8125
 20
-0.0
 10
4450.765625
 20
-0.0
 10
4440.71875
 20
-0.0
 10
4430.671875
 20
-0.0
 10
4420.625
 20
-0.0
 10
4410.578125
 20
-0.0
 10
4400.53125
 20
-0.0
 10
4390.484375
 20
-0.0
 10
4380.4375
 20
-0.0
 10
4370.390625
 20
-0.0
 10
4360.34375
 20
-0.0
 10
4350.296875
 20
-0.0
 10
4340.25
 20
-0.0
 10
4330.203125
 20
-0.0
 10
4320.15625
 20
-0.0
 10
4310.109375
 20
-0.0
 10
4300.0625
 20
-0.0
 10
4290.015625
 20
-0.0
 10
4279.96875
 20
-0.0
 10
4269.921875
 20
-0.0
 10
4259.875
 20
-0.0
 10
4249.828125
 20
-0.0
 10
4239.78125
 20
-0.0
 10
4229.734375
 20
-0.0
 10
4219.6875
 20
-0.0
 10
4209.640625
 20
-0.0
 10
4199.59375
 20
-0.0
 10
4189.546875
 20
-0.0
 10
4179.5
 20
-0.0
 10
4169.453125
 20
-0.0
 10
4159.40625
 20
-0.0
 10
4149.359375
 20
-0.0
 10
4139.3125
 20
-0.0
 10
4129.265625
 20
-0.0
 10
4119.21875
 20
-0.0
 10
4109.171875
 20
-0.0
 10
4099.125
 20
-0.0
 10
4089.078125
 20
-0.0
 10
4079.03125
 20
-0.0
 10
4068.984375
 20
-0.0
 10
4058.9375
 20
-0.0
 10
4048.890625
 20
-0.0
 10
4038.84375
 20
-0.0
 10
4028.796875
 20
-0.0
 10
4018.75
 20
-0.0
 10
4008.703125
 20
-0.0
 10
3998.65625
 20
-0.0
 10
3988.609375
 20
-0.0
 10
3978.5625
 20
-0.0
 10
3968.515625
 20
-0.0
 10
3958.46875
 20
-0.0
 10
3948.421875
 20
-0.0
 10
3938.375
 20
-0.0
 10
3928.328125
 20
-0.0
 10
3918.28125
 20
-0.0
 10
3908.234375
 20
-0.0
 10
3898.1875
 20
-0.0
 10
3888.140625
 20
-0.0
 10
3878.09375
 20
-0.0
 10
3868.046875
 20
-0.0
 10
3858.0
 20
-0.0
 10
3847.953125
 20
-0.0
 10
3837.90625
 20
-0.0
 10
3827.859375
 20
-0.0
 10
3817.8125
 20
-0.0
 10
3807.765625
 20
-0.0
 10
3797.71875
 20
-0.0
 10
3787.671875
 20
-0.0
 10
3777.625
 20
-0.0
 10
3767.578125
 20
-0.0
 10
3757.53125
 20
-0.0
 10
3747.484375
 20
-0.0
 10
3737.4375
 20
-0.0
 10
3727.390625
 20
-0.0
 10
3717.34375
 20
-0.0
 10
3707.296875
 20
-0.0
 10
3697.25
 20
-0.0
 10
3687.203125
 20
-0.0
 10
3677.15625
 20
-0.0
 10
3667.109375
 20
-0.0
 10
3657.0625
 20
-0.0
 10
3647.015625
 20
-0.0
 10
3636.96875
 20
-0.0
 10
3626.921875
 20
-0.0
 10
3616.875
 20
-0.0
 10
3606.828125
 20
-0.0
 10
3596.78125
 20
-0.0
 10
3586.734375
 20
-0.0
 10
3576.6875
 20
-0.0
 10
3566.640625
 20
-0.0
 10
3556.59375
 20
-0.0
 10
3546.546875
 20
-0.0
 10
3536.5
 20
-0.0
 10
3526.453125
 20
-0.0
 10
3516.40625
 20
-0.0
 10
3506.359375
 20
-0.0
 10
3496.3125
 20
-0.0
 10
3486.265625
 20
-0.0
 10
3476.21875
 20
-0.0
 10
3466.171875
 20
-0.0
 10
3456.125
 20
-0.0
 10
3446.078125
 20
-0.0
 10
3436.03125
 20
-0.0
 10
3425.984375
 20
-0.0
 10
3415.9375
 20
-0.0
 10
3405.890625
 20
-0.0
 10
3395.84375
 20
-0.0
 10
3385.796875
 20
-0.0
 10
3375.75
 20
-0.0
 10
3365.703125
 20
-0.0
 10
3355.65625
 20
-0.0
 10
3345.609375
 20
-0.0
 10
3335.5625
 20
-0.0
 10
3325.515625
 20
-0.0
 10
3315.46875
 20
-0.0
 10
3305.421875
 20
-0.0
 10
3295.375
 20
-0.0
 10
3285.328125
 20
-0.0
 10
3275.28125
 20
-0.0
 10
3265.234375
 20
-0.0
 10
3255.1875
 20
-0.0
 10
3245.140625
 20
-0.0
 10
3235.09375
 20
-0.0
 10
3225.046875
 20
-0.0
 10
3215.0
 20
-0.0
 10
3204.953125
 20
-0.0
 10
3194.90625
 20
-0.0
 10
3184.859375
 20
-0.0
 10
3174.8125
 20
-0.0
 10
3164.765625
 20
-0.0
 10
3154.71875
 20
-0.0
 10
3144.671875
 20
-0.0
 10
3134.625
 20
-0.0
 10
3124.578125
 20
-0.0
 10
3114.53125
 20
-0.0
 10
3104.484375
 20
-0.0
 10
3094.4375
 20
-0.0
 10
3084.390625
 20
-0.0
 10
3074.34375
 20
-0.0
 10
3064.296875
 20
-0.0
 10
3054.25
 20
-0.0
 10
3044.203125
 20
-0.0
 10
3034.15625
 20
-0.0
 10
3024.109375
 20
-0.0
 10
3014.0625
 20
-0.0
 10
3004.015625
 20
-0.0
 10
2993.96875
 20
-0.0
 10
2983.921875
 20
-0.0
 10
2973.875
 20
-0.0
 10
2963.828125
 20
-0.0
 10
2953.78125
 20
-0.0
 10
2943.734375
 20
-0.0
 10
2933.6875
 20
-0.0
 10
2923.640625
 20
-0.0
 10
2913.59375
 20
-0.0
 10
2903.546875
 20
-0.0
 10
2893.5
 20
-0.0
 10
2883.453125
 20
-0.0
 10
2873.40625
 20
-0.0
 10
2863.359375
 20
-0.0
 10
2853.3125
 20
-0.0
 10
2843.265625
 20
-0.0
 10
2833.21875
 20
-0.0
 10
2823.171875
 20
-0.0
 10
2813.125
 20
-0.0
 10
2803.078125
 20
-0.0
 10
2793.03125
 20
-0.0
 10
2782.984375
 20
-0.0
 10
2772.9375
 20
-0.0
 10
2762.890625
 20
-0.0
 10
2752.84375
 20
-0.0
 10
2742.796875
 20
-0.0
 10
2732.75
 20
-0.0
 10
2722.703125
 20
-0.0
 10
2712.65625
 20
-0.0
 10
2702.609375
 20
-0.0
 10
2692.5625
 20
-0.0
 10
2682.515625
 20
-0.0
 10
2672.46875
 20
-0.0
 10
2662.421875
 20
-0.0
 10
2652.375
 20
-0.0
 10
2642.328125
 20
-0.0
 10
2632.28125
 20
-0.0
 10
2622.234375
 20
-0.0
 10
2612.1875
 20
-0.0
 10
2602.140625
 20
-0.0
 10
2592.09375
 20
-0.0
 10
2582.046875
 20
-0.0
 10
2572.0
 20
-0.0
 10
2561.953125
 20
-0.0
 10
2551.90625
 20
-0.0
 10
2541.859375
 20
-0.0
 10
2531.8125
 20
-0.0
 10
2521.765625
 20
-0.0
 10
2511.71875
 20
-0.0
 10
2501.671875
 20
-0.0
 10
2491.625
 20
-0.0
 10
2481.578125
 20
-0.0
 10
2471.53125
 20
-0.0
 10
2461.484375
 20
-0.0
 10
2451.4375
 20
-0.0
 10
2441.390625
 20
-0.0
 10
2431.34375
 20
-0.0
 10
2421.296875
 20
-0.0
 10
2411.25
 20
-0.0
 10
2401.203125
 20
-0.0
 10
2391.15625
 20
-0.0
 10
2381.109375
 20
-0.0
 10
2371.0625
 20
-0.0
 10
2361.015625
 20
-0.0
 10
2350.96875
 20
-0.0
 10
2340.921875
 20
-0.0
 10
2330.875
 20
-0.0
 10
2320.828125
 20
-0.0
 10
2310.78125
 20
-0.0
 10
2300.734375
 20
-0.0
 10
2290.6875
 20
-0.0
 10
2280.640625
 20
-0.0
 10
2270.59375
 20
-0.0
 10
2260.546875
 20
-0.0
 10
2250.5
 20
-0.0
 10
2240.453125
 20
-0.0
 10
2230.40625
 20
-0.0
 10
2220.359375
 20
-0.0
 10
2210.3125
 20
-0.0
 10
2200.265625
 20
-0.0
 10
2190.21875
 20
-0.0
 10
2180.171875
 20
-0.0
 10
2170.125
 20
-0.0
 10
2160.078125
 20
-0.0
 10
2150.03125
 20
-0.0
 10
2139.984375
 20
-0.0
 10
2129.9375
 20
-0.0
 10
2119.890625
 20
-0.0
 10
2109.84375
 20
-0.0
 10
2099.796875
 20
-0.0
 10
2089.75
 20
-0.0
 10
2079.703125
 20
-0.0
 10
2069.65625
 20
-0.0
 10
2059.609375
 20
-0.0
 10
2049.5625
 20
-0.0
 10
2039.515625
 20
-0.0
 10
2029.46875
 20
-0.0
 10
2019.421875
 20
-0.0
 10
2009.375
 20
-0.0
 10
1999.328125
 20
-0.0
 10
1989.28125
 20
-0.0
 10
1979.234375
 20
-0.0
 10
1969.1875
 20
-0.0
 10
1959.140625
 20
-0.0
 10
1949.09375
 20
-0.0
 10
1939.046875
 20
-0.0
 10
1929.0
 20
-0.0
 10
1918.953125
 20
-0.0
 10
1908.90625
 20
-0.0
 10
1898.859375
 20
-0.0
 10
1888.8125
 20
-0.0
 10
1878.765625
 20
-0.0
 10
1868.71875
 20
-0.0
 10
1858.671875
 20
-0.0
 10
1848.625
 20
-0.0
 10
1838.578125
 20
-0.0
 10
1828.53125
 20
-0.0
 10
1818.484375
 20
-0.0
 10
1808.4375
 20
-0.0
 10
1798.390625
 20
-0.0
 10
1788.34375
 20
-0.0
 10
1778.296875
 20
-0.0
 10
1768.25
 20
-0.0
 10
1758.203125
 20
-0.0
 10
1748.15625
 20
-0.0
 10
1738.109375
 20
-0.0
 10
1728.0625
 20
-0.0
 10
1718.015625
 20
-0.0
 10
1707.96875
 20
-0.0
 10
1697.921875
 20
-0.0
 10
1687.875
 20
-0.0
 10
1677.828125
 20
-0.0
 10
1667.78125
 20
-0.0
 10
1657.734375
 20
-0.0
 10
1647.6875
 20
-0.0
 10
1637.640625
 20
-0.0
 10
1627.59375
 20
-0.0
 10
1617.546875
 20
-0.0
 10
1607.5
 20
-0.0
 10
1597.453125
 20
-0.0
 10
1587.40625
 20
-0.0
 10
1577.359375
 20
-0.0
 10
1567.3125
 20
-0.0
 10
1557.265625
 20
-0.0
 10
1547.21875
 20
-0.0
 10
1537.171875
 20
-0.0
 10
1527.125
 20
-0.0
 10
1517.078125
 20
-0.0
 10
1507.03125
 20
-0.0
 10
1496.984375
 20
-0.0
 10
1486.9375
 20
-0.0
 10
1476.890625
 20
-0.0
 10
1466.84375
 20
-0.0
 10
1456.796875
 20
-0.0
 10
1446.75
 20
-0.0
 10
1436.703125
 20
-0.0
 10
1426.65625
 20
-0.0
 10
1416.609375
 20
-0.0
 10
1406.5625
 20
-0.0
 10
1396.515625
 20
-0.0
 10
1386.46875
 20
-0.0
 10
1376.421875
 20
-0.0
 10
1366.375
 20
-0.0
 10
1356.328125
 20
-0.0
 10
1346.28125
 20
-0.0
 10
1336.234375
 20
-0.0
 10
1326.1875
 20
-0.0
 10
1316.140625
 20
-0.0
 10
1306.09375
 20
-0.0
 10
1296.046875
 20
-0.0
 10
1286.0
 20
-0.0
 10
1275.953125
 20
-0.0
 10
1265.90625
 20
-0.0
 10
1255.859375
 20
-0.0
 10
1245.8125
 20
-0.0
 10
1235.765625
 20
-0.0
 10
1225.71875
 20
-0.0
 10
1215.671875
 20
-0.0
 10
1205.625
 20
-0.0
 10
1195.578125
 20
-0.0
 10
1185.53125
 20
-0.0
 10
1175.484375
 20
-0.0
 10
1165.4375
 20
-0.0
 10
1155.390625
 20
-0.0
 10
1145.34375
 20
-0.0
 10
1135.296875
 20
-0.0
 10
1125.25
 20
-0.0
 10
1115.203125
 20
-0.0
 10
1105.15625
 20
-0.0
 10
1095.109375
 20
-0.0
 10
1085.0625
 20
-0.0
 10
1075.015625
 20
-0.0
 10
1064.96875
 20
-0.0
 10
1054.921875
 20
-0.0
 10
1044.875
 20
-0.0
 10
1034.828125
 20
-0.0
 10
1024.78125
 20
-0.0
 10
1014.734375
 20
-0.0
 10
1004.6875
 20
-0.0
 10
994.640625
 20
-0.0
 10
984.59375
 20
-0.0
 10
974.546875
 20
-0.0
 10
964.5
 20
-0.0
 10
954.453125
 20
-0.0
 10
944.40625
 20
-0.0
 10
934.359375
 20
-0.0
 10
924.3125
 20
-0.0
 10
914.265625
 20
-0.0
 10
904.21875
 20
-0.0
 10
894.171875
 20
-0.0
 10
884.125
 20
-0.0
 10
874.078125
 20
-0.0
 10
864.03125
 20
-0.0
 10
853.984375
 20
-0.0
 10
843.9375
 20
-0.0
 10
833.890625
 20
-0.0
 10
823.84375
 20
-0.0
 10
813.796875
 20
-0.0
 10
803.75
 20
-0.0
 10
793.703125
 20
-0.0
 10
783.65625
 20
-0.0
 10
773.609375
 20
-0.0
 10
763.5625
 20
-0.0
 10
753.515625
 20
-0.0
 10
743.46875
 20
-0.0
 10
733.421875
 20
-0.0
 10
723.375
 20
-0.0
 10
713.328125
 20
-0.0
 10
703.28125
 20
-0.0
 10
693.234375
 20
-0.0
 10
683.1875
 20
-0.0
 10
673.140625
 20
-0.0
 10
663.09375
 20
-0.0
 10
653.046875
 20
-0.0
 10
643.0
 20
-0.0
 10
632.953125
 20
-0.0
 10
622.90625
 20
-0.0
 10
612.859375
 20
-0.0
 10
602.8125
 20
-0.0
 10
592.765625
 20
-0.0
 10
582.71875
 20
-0.0
 10
572.671875
 20
-0.0
 10
562.625
 20
-0.0
 10
552.578125
 20
-0.0
 10
542.53125
 20
-0.0
 10
532.484375
 20
-0.0
 10
522.4375
 20
-0.0
 10
512.390625
 20
-0.0
 10
502.34375
 20
-0.0
 10
492.296875
 20
-0.0
 10
482.25
 20
-0.0
 10
472.203125
 20
-0.0
 10
462.15625
 20
-0.0
 10
452.109375
 20
-0.0
 10
442.0625
 20
-0.0
 10
432.015625
 20
-0.0
 10
421.96875
 20
-0.0
 10
411.921875
 20
-0.0
 10
401.875
 20
-0.0
 10
391.828125
 20
-0.0
 10
381.78125
 20
-0.0
 10
371.734375
 20
-0.0
 10
361.6875
 20
-0.0
 10
351.640625
 20
-0.0
 10
341.59375
 20
-0.0
 10
331.546875
 20
-0.0
 10
321.5
 20
-0.0
 10
311.453125
 20
-0.0
 10
301.40625
 20
-0.0
 10
291.359375
 20
-0.0
 10
281.3125
 20
-0.0
 10
271.265625
 20
-0.0
 10
261.21875
 20
-0.0
 10
251.171875
 20
-0.0
 10
241.125
 20
-0.0
 10
231.078125
 20
-0.0
 10
221.03125
 20
-0.0
 10
210.984375
 20
-0.0
 10
200.9375
 20
-0.0
 10
190.890625
 20
-0.0
 10
180.84375
 20
-0.0
 10
170.796875
 20
-0.0
 10
160.75
 20
-0.0
 10
150.703125
 20
-0.0
 10
140.65625
 20
-0.0
 10
130.609375
 20
-0.0
 10
120.5625
 20
-0.0
 10
110.515625
 20
-0.0
 10
100.46875
 20
-0.0
 10
90.421875
 20
-0.0
 10
80.375
 20
-0.0
 10
70.328125
 20
-0.0
 10
60.28125
 20
-0.0
 10
50.234375
 20
-0.0
 10
40.1875
 20
-0.0
 10
30.140625
 20
-0.0
 10
20.09375
 20
-0.0
 10
10.046875
 20
-0.0
  0
LWPOLYLINE
  5
37
330
17
100
AcDbEntity
  8
substrate
100
AcDbPolyline
 90
240
 70
1
 43
0.5
 10
2501.671875
 20
-2160.078125
 10
2511.71875
 20
-2150.03125
 10
2521.765625
 20
-2150.03125
 10
2531.8125
 20
-2150.03125
 10
2541.859375
 20
-2150.03125
 10
2551.90625
 20
-2150.03125
 10
2561.953125
 20
-2150.03125
 10
2572.0
 20
-2150.03125
 10
2582.046875
 20
-2150.03125
 10
2592.09375
 20
-2150.03125
 10
2602.140625
 20
-2150.03125
 10
2612.1875
 20
-2150.03125
 10
2622.234375
 20
-2150.03125
 10
2632.28125
 20
-2150.03125
 10
2642.328125
 20
-2150.03125
 10
2652.375
 20
-2160.078125
 10
2662.421875
 20
-2160.078125
 10
2672.46875
 20
-2160.078125
 10
2682.515625
 20
-2160.078125
 10
2692.5625
 20
-2170.125
 10
2702.609375
 20
-2170.125
 10
2712.65625
 20
-2170.125
 10
2722.703125
 20
-2170.125
 10
2732.75
 20
-2180.171875
 10
2742.796875
 20
-2180.171875
 10
2752.84375
 20
-2190.21875
 10
2762.890625
 20
-2190.21875
 10
2772.9375
 20
-2200.265625
 10
2782.984375
 20
-2200.265625
 10
2793.03125
 20
-2210.3125
 10
2803.078125
 20
-2220.359375
 10
2813.125
 20
-2230.40625
 10
2823.171875
 20
-2240.453125
 10
2833.21875
 20
-2250.5
 10
2843.265625
 20
-2250.5
 10
2853.3125
 20
-2260.546875
 10
2853.3125
 20
-2270.59375
 10
2863.359375
 20
-2280.640625
 10
2873.40625
 20
-2290.6875
 10
2883.453125
 20
-2300.734375
 10
2893.5
 20
-2310.78125
 10
2893.5
 20
-2320.828125
 10
2903.546875
 20
-2330.875
 10
2913.59375
 20
-2340.921875
 10
2923.640625
 20
-2350.96875
 10
2923.640625
 20
-2361.015625
 10
2933.6875
 20
-2371.0625
 10
2943.734375
 20
-2381.109375
 10
2943.734375
 20
-2391.15625
 10
2953.78125
 20
-2401.203125
 10
2953.78125
 20
-2411.25
 10
2963.828125
 20
-2421.296875
 10
2963.828125
 20
-2431.34375
 10
2973.875
 20
-2441.390625
 10
2973.875
 20
-2451.4375
 10
2973.875
 20
-2461.484375
 10
2973.875
 20
-2471.53125
 10
2973.875
 20
-2481.578125
 10
2973.875
 20
-2491.625
 10
2983.921875
 20
-2501.671875
 10
2983.921875
 20
-2511.71875
 10
2983.921875
 20
-2521.765625
 10
2983.921875
 20
-2531.8125
 10
2983.921875
 20
-2541.859375
 10
2983.921875
 20
-2551.90625
 10
2983.921875
 20
-2561.953125
 10
2983.921875
 20
-2572.0
 10
2993.96875
 20
-2582.046875
 10
2993.96875
 20
-2592.09375
 10
2993.96875
 20
-2602.140625
 10
2983.921875
 20
-2612.1875
 10
2983.921875
 20
-2622.234375
 10
2973.875
 20
-2632.28125
 10
2973.875
 20
-2642.328125
 10
2973.875
 20
-2652.375
 10
2973.875
 20
-2662.421875
 10
2973.875
 20
-2672.46875
 10
2973.875
 20
-2682.515625
 10
2963.828125
 20
-2692.5625
 10
2963.828125
 20
-2702.609375
 10
2953.78125
 20
-2712.65625
 10
2953.78125
 20
-2722.703125
 10
2943.734375
 20
-2732.75
 10
2943.734375
 20
-2742.796875
 10
2943.734375
 20
-2752.84375
 10
2933.6875
 20
-2762.890625
 10
2923.640625
 20
-2772.9375
 10
2923.640625
 20
-2782.984375
 10
2913.59375
 20
-2793.03125
 10
2913.59375
 20
-2803.078125
 10
2903.546875
 20
-2813.125
 10
2903.546875
 20
-2823.171875
 10
2893.5
 20
-2833.21875
 10
2883.453125
 20
-2843.265625
 10
2873.40625
 20
-2853.3125
 10
2863.359375
 20
-2853.3125
 10
2863.359375
 20
-2863.359375
 10
2853.3125
 20
-2873.40625
 10
2843.265625
 20
-2883.453125
 10
2833.21875
 20
-2893.5
 10
2823.171875
 20
-2893.5
 10
2813.125
 20
-2903.546875
 10
2803.078125
 20
-2913.59375
 10
2793.03125
 20
-2913.59375
 10
2782.984375
 20
-2923.640625
 10
2772.9375
 20
-2923.640625
 10
2762.890625
 20
-2933.6875
 10
2752.84375
 20
-2933.6875
 10
2742.796875
 20
-2943.734375
 10
2732.75
 20
-2953.78125
 10
2722.703125
 20
-2953.78125
 10
2712.65625
 20
-2963.828125
 10
2702.609375
 20
-2963.828125
 10
2692.5625
 20
-2973.875
 10
2682.515625
 20
-2973.875
 10
2672.46875
 20
-2973.875
 10
2662.421875
 20
-2983.921875
 10
2652.375
 20
-2983.921875
 10
2642.328125
 20
-2983.921875
 10
2632.28125
 20
-2983.921875
 10
2622.234375
 20
-2983.921875
 10
2612.1875
 20
-2983.921875
 10
2602.140625
 20
-2983.921875
 10
2592.09375
 20
-2983.921875
 10
2582.046875
 20
-2983.921875
 10
2572.0
 20
-2983.921875
 10
2561.953125
 20
-2983.921875
 10
2551.90625
 20
-2993.96875
 10
2541.859375
 20
-2983.921875
 10
2531.8125
 20
-2993.96875
 10
2521.765625
 20
-2983.921875
 10
2511.71875
 20
-2983.921875
 10
2501.671875
 20
-2983.921875
 10
2491.625
 20
-2973.875
 10
2481.578125
 20
-2973.875
 10
2471.53125
 20
-2973.875
 10
2461.484375
 20
-2973.875
 10
2451.4375
 20
-2963.828125
 10
2441.390625
 20
-2963.828125
 10
2431.34375
 20
-2963.828125
 10
2421.296875
 20
-2953.78125
 10
2411.25
 20
-2953.78125
 10
2401.203125
 20
-2953.78125
 10
2391.15625
 20
-2953.78125
 10
2381.109375
 20
-2943.734375
 10
2371.0625
 20
-2933.6875
 10
2361.015625
 20
-2933.6875
 10
2350.96875
 20
-2923.640625
 10
2340.921875
 20
-2913.59375
 10
2330.875
 20
-2903.546875
 10
2320.828125
 20
-2903.546875
 10
2310.78125
 20
-2893.5
 10
2300.734375
 20
-2883.453125
 10
2290.6875
 20
-2883.453125
 10
2280.640625
 20
-2873.40625
 10
2270.59375
 20
-2863.359375
 10
2260.546875
 20
-2863.359375
 10
2250.5
 20
-2853.3125
 10
2240.453125
 20
-2843.265625
 10
2240.453125
 20
-2833.21875
 10
2230.40625
 20
-2833.21875
 10
2220.359375
 20
-2823.171875
 10
2220.359375
 20
-2813.125
 10
2220.359375
 20
-2803.078125
 10
2210.3125
 20
-2793.03125
 10
2210.3125
 20
-2782.984375
 10
2210.3125
 20
-2772.9375
 10
2200.265625
 20
-2762.890625
 10
2190.21875
 20
-2752.84375
 10
2190.21875
 20
-2742.796875
 10
2190.21875
 20
-2732.75
 10
2180.171875
 20
-2722.703125
 10
2170.125
 20
-2712.65625
 10
2170.125
 20
-2702.609375
 10
2170.125
 20
-2692.5625
 10
2160.078125
 20
-2682.515625
 10
2160.078125
 20
-2672.46875
 10
2160.078125
 20
-2662.421875
 10
2160.078125
 20
-2652.375
 10
2150.03125
 20
-2642.328125
 10
2150.03125
 20
-2632.28125
 10
2150.03125
 20
-2622.234375
 10
2150.03125
 20
-2612.1875
 10
2150.03125
 20
-2602.140625
 10
2150.03125
 20
-2592.09375
 10
2150.03125
 20
-2582.046875
 10
2150.03125
 20
-2572.0
 10
2160.078125
 20
-2561.953125
 10
2160.078125
 20
-2551.90625
 10
2160.078125
 20
-2541.859375
 10
2160.078125
 20
-2531.8125
 10
2150.03125
 20
-2521.765625
 10
2150.03125
 20
-2511.71875
 10
2150.03125
 20
-2501.671875
 10
2160.078125
 20
-2491.625
 10
2160.078125
 20
-2481.578125
 10
2160.078125
 20
-2471.53125
 10
2160.078125
 20
-2461.484375
 10
2170.125
 20
-2451.4375
 10
2170.125
 20
-2441.390625
 10
2170.125
 20
-2431.34375
 10
2170.125
 20
-2421.296875
 10
2180.171875
 20
-2411.25
 10
2180.171875
 20
-2401.203125
 10
2190.21875
 20
-2391.15625
 10
2200.265625
 20
-2381.109375
 10
2200.265625
 20
-2371.0625
 10
2210.3125
 20
-2361.015625
 10
2210.3125
 20
-2350.96875
 10
2210.3125
 20
-2340.921875
 10
2210.3125
 20
-2330.875
 10
2220.359375
 20
-2320.828125
 10
2230.40625
 20
-2310.78125
 10
2240.453125
 20
-2300.734375
 10
2250.5
 20
-2290.6875
 10
2260.546875
 20
-2280.640625
 10
2270.59375
 20
-2270.59375
 10
2280.640625
 20
-2270.59375
 10
2290.6875
 20
-2260.546875
 10
2300.734375
 20
-2250.5
 10
2310.78125
 20
-2240.453125
 10
2320.828125
 20
-2230.40625
 10
2320.828125
 20
-2220.359375
 10
2330.875
 20
-2210.3125
 10
2340.921875
 20
-2200.265625
 10
2350.96875
 20
-2190.21875
 10
2361.015625
 20
-2190.21875
 10
2371.0625
 20
-2190.21875
 10
2381.109375
 20
-2180.171875
 10
2391.15625
 20
-2180.171875
 10
2401.203125
 20
-2180.171875
 10
2411.25
 20
-2180.171875
 10
2421.296875
 20
-2170.125
 10
2431.34375
 20
-2170.125
 10
2441.390625
 20
-2170.125
 10
2451.4375
 20
-2170.125
 10
2461.484375
 20
-2170.125
 10
2471.53125
 20
-2160.078125
 10
2481.578125
 20
-2160.078125
 10
2491.625
 20
-2160.078125
  0
LWPOLYLINE
  5
38
330
17
100
AcDbEntity
  8
substrate
100
AcDbPolyline
 90
4
 70
1
 43
0.5
 10
2471.53125
 20
-2451.4375
 10
2481.578125
 20
-2451.4375
 10
2491.625
 20
-2451.4375
 10
2481.578125
 20
-2451.4375
  0
ENDSEC
  0
SECTION
  2
OBJECTS
  0
DICTIONARY
  5
A
330
0
100
AcDbDictionary
280
0
281
1
  3
ACAD_COLOR
350
B
  3
ACAD_GROUP
350
C
  3
ACAD_LAYOUT
350
D
  3
ACAD_MATERIAL
350
E
  3
ACAD_MLEADERSTYLE
350
F
  3
ACAD_MLINESTYLE
350
10
  3
ACAD_PLOTSETTINGS
350
11
  3
ACAD_PLOTSTYLENAME
350
12
  3
ACAD_SCALELIST
350
14
  3
ACAD_TABLESTYLE
350
15
  3
ACAD_VISUALSTYLE
350
16
  3
EZDXF_META
350
2D
  0
DICTIONARY
  5
B
330
A
100
AcDbDictionary
280
0
281
1
  0
DICTIONARY
  5
C
330
A
100
AcDbDictionary
280
0
281
1
  0
DICTIONARY
  5
D
330
A
100
AcDbDictionary
280
0
281
1
  3
Model
350
1A
  3
Layout1
350
1E
  0
DICTIONARY
  5
E
330
A
100
AcDbDictionary
280
0
281
1
  3
ByBlock
350
1F
  3
ByLayer
350
20
  3
Global
350
21
  0
DICTIONARY
  5
F
330
A
100
AcDbDictionary
280
0
281
1
  3
Standard
350
2C
  0
DICTIONARY
  5
10
330
A
100
AcDbDictionary
280
0
281
1
  3
Standard
350
22
  0
DICTIONARY
  5
11
330
A
100
AcDbDictionary
280
0
281
1
  0
ACDBDICTIONARYWDFLT
  5
12
330
A
100
AcDbDictionary
280
0
281
1
  3
Normal
350
13
100
AcDbDictionaryWithDefault
340
13
  0
ACDBPLACEHOLDER
  5
13
330
12
  0
DICTIONARY
  5
14
330
A
100
AcDbDictionary
280
0
281
1
  0
DICTIONARY
  5
15
330
A
100
AcDbDictionary
280
0
281
1
  0
DICTIONARY
  5
16
330
A
100
AcDbDictionary
280
0
281
1
  0
LAYOUT
  5
1A
330
D
100
AcDbPlotSettings
  1

  2
Adobe PDF
  4
A3
  6

 40
7.5
 41
20.0
 42
7.5
 43
20.0
 44
420.0
 45
297.0
 46
0.0
 47
0.0
 48
0.0
 49
0.0
140
0.0
141
0.0
142
1.0
143
1.0
 70
1024
 72
1
 73
0
 74
5
  7

 75
16
 76
0
 77
2
 78
300
147
1.0
148
0.0
149
0.0
100
AcDbLayout
  1
Model
 70
1
 71
0
 10
0.0
 20
0.0
 11
420.0
 21
297.0
 12
0.0
 22
0.0
 32
0.0
 14
1e+20
 24
1e+20
 34
1e+20
 15
-1e+20
 25
-1e+20
 35
-1e+20
146
0.0
 13
0.0
 23
0.0
 33
0.0
 16
1.0
 26
0.0
 36
0.0
 17
0.0
 27
1.0
 37
0.0
 76
1
330
17
  0
LAYOUT
  5
1E
330
D
100
AcDbPlotSettings
  1

  2
Adobe PDF
  4
A3
  6

 40
7.5
 41
20.0
 42
7.5
 43
20.0
 44
420.0
 45
297.0
 46
0.0
 47
0.0
 48
0.0
 49
0.0
140
0.0
141
0.0
142
1.0
143
1.0
 70
0
 72
1
 73
0
 74
5
  7

 75
16
 76
0
 77
2
 78
300
147
1.0
148
0.0
149
0.0
100
AcDbLayout
  1
Layout1
 70
1
 71
1
 10
0.0
 20
0.0
 11
420.0
 21
297.0
 12
0.0
 22
0.0
 32
0.0
 14
1e+20
 24
1e+20
 34
1e+20
 15
-1e+20
 25
-1e+20
 35
-1e+20
146
0.0
 13
0.0
 23
0.0
 33
0.0
 16
1.0
 26
0.0
 36
0.0
 17
0.0
 27
1.0
 37
0.0
 76
1
330
1B
  0
MATERIAL
  5
1F
102
{ACAD_REACTORS
330
E
102
}
330
E
100
AcDbMaterial
  1
ByBlock
  2

 70
0
 40
1.0
 71
1
 41
1.0
 91
-1023410177
 42
1.0
 72
1
  3

 73
1
 74
1
 75
1
 44
0.5
 73
0
 45
1.0
 46
1.0
 77
1
  4

 78
1
 79
1
170
1
 48
1.0
171
1
  6

172
1
173
1
174
1
140
1.0
141
1.0
175
1
  7

176
1
177
1
178
1
143
1.0
179
1
  8

270
1
271
1
272
1
145
1.0
146
1.0
273
1
  9

274
1
275
1
276
1
 42
1.0
 72
1
  3

 73
1
 74
1
 75
1
 94
63
  0
MATERIAL
  5
20
102
{ACAD_REACTORS
330
E
102
}
330
E
100
AcDbMaterial
  1
ByLayer
  2

 70
0
 40
1.0
 71
1
 41
1.0
 91
-1023410177
 42
1.0
 72
1
  3

 73
1
 74
1
 75
1
 44
0.5
 73
0
 45
1.0
 46
1.0
 77
1
  4

 78
1
 79
1
170
1
 48
1.0
171
1
  6

172
1
173
1
174
1
140
1.0
141
1.0
175
1
  7

176
1
177
1
178
1
143
1.0
179
1
  8

270
1
271
1
272
1
145
1.0
146
1.0
273
1
  9

274
1
275
1
276
1
 42
1.0
 72
1
  3

 73
1
 74
1
 75
1
 94
63
  0
MATERIAL
  5
21
102
{ACAD_REACTORS
330
E
102
}
330
E
100
AcDbMaterial
  1
Global
  2

 70
0
 40
1.0
 71
1
 41
1.0
 91
-1023410177
 42
1.0
 72
1
  3

 73
1
 74
1
 75
1
 44
0.5
 73
0
 45
1.0
 46
1.0
 77
1
  4

 78
1
 79
1
170
1
 48
1.0
171
1
  6

172
1
173
1
174
1
140
1.0
141
1.0
175
1
  7

176
1
177
1
178
1
143
1.0
179
1
  8

270
1
271
1
272
1
145
1.0
146
1.0
273
1
  9

274
1
275
1
276
1
 42
1.0
 72
1
  3

 73
1
 74
1
 75
1
 94
63
  0
MLINESTYLE
  5
22
102
{ACAD_REACTORS
330
10
102
}
330
10
100
AcDbMlineStyle
  2
Standard
 70
0
  3

 62
256
 51
90.0
 52
90.0
 71
2
 49
0.5
 62
256
  6
BYLAYER
 49
-0.5
 62
256
  6
BYLAYER
  0
MLEADERSTYLE
  5
2C
102
{ACAD_REACTORS
330
F
102
}
330
F
100
AcDbMLeaderStyle
179
2
170
2
171
1
172
0
 90
2
 40
0.0
 41
0.0
173
1
 91
-1056964608
 92
-2
290
1
 42
2.0
291
1
 43
8.0
  3
Standard
 44
4.0
300

342
29
174
1
175
1
176
0
178
1
 93
-1056964608
 45
4.0
292
0
297
0
 46
4.0
 94
-1056964608
 47
1.0
 49
1.0
140
1.0
294
1
141
0.0
177
0
142
1.0
295
0
296
0
143
3.75
271
0
272
9
273
9
  0
DICTIONARY
  5
2D
330
A
100
AcDbDictionary
281
1
  3
CREATED_BY_EZDXF
350
2E
  3
WRITTEN_BY_EZDXF
350
3B
  0
DICTIONARYVAR
  5
2E
330
2D
100
DictionaryVariables
280
0
  1
1.1.0 @ 2024-12-31T12:33:31.778348+00:00
  0
DICTIONARYVAR
  5
3B
330
2D
100
DictionaryVariables
280
0
  1
1.1.0 @ 2024-12-31T12:33:31.783236+00:00
  0
ENDSEC
  0
EOF
