  0
SECTION
  2
HEADER
  9
$ACADVER
  1
AC1027
  9
$ACADMAINTVER
 70
105
  9
$DWGCODEPAGE
  3
ANSI_1252
  9
$LASTSAVEDBY
  1
ezdxf
  9
$REQUIREDVERSIONS
160
0
  9
$INSBASE
 10
0.0
 20
0.0
 30
0.0
  9
$EXTMIN
 10
1e+20
 20
1e+20
 30
1e+20
  9
$EXTMAX
 10
-1e+20
 20
-1e+20
 30
-1e+20
  9
$LIMMIN
 10
0.0
 20
0.0
  9
$LIMMAX
 10
420.0
 20
297.0
  9
$ORTHOMODE
 70
0
  9
$REGENMODE
 70
1
  9
$FILLMODE
 70
1
  9
$QTEXTMODE
 70
0
  9
$MIRRTEXT
 70
1
  9
$LTSCALE
 40
1.0
  9
$ATTMODE
 70
1
  9
$TEXTSIZE
 40
2.5
  9
$TRACEWID
 40
1.0
  9
$TEXTSTYLE
  7
Standard
  9
$CLAYER
  8
0
  9
$CELTYPE
  6
ByLayer
  9
$CECOLOR
 62
256
  9
$CELTSCALE
 40
1.0
  9
$DISPSILH
 70
0
  9
$DIMSCALE
 40
1.0
  9
$DIMASZ
 40
2.5
  9
$DIMEXO
 40
0.625
  9
$DIMDLI
 40
3.75
  9
$DIMRND
 40
0.0
  9
$DIMDLE
 40
0.0
  9
$DIMEXE
 40
1.25
  9
$DIMTP
 40
0.0
  9
$DIMTM
 40
0.0
  9
$DIMTXT
 40
2.5
  9
$DIMCEN
 40
2.5
  9
$DIMTSZ
 40
0.0
  9
$DIMTOL
 70
0
  9
$DIMLIM
 70
0
  9
$DIMTIH
 70
0
  9
$DIMTOH
 70
0
  9
$DIMSE1
 70
0
  9
$DIMSE2
 70
0
  9
$DIMTAD
 70
1
  9
$DIMZIN
 70
8
  9
$DIMBLK
  1

  9
$DIMASO
 70
1
  9
$DIMSHO
 70
1
  9
$DIMPOST
  1

  9
$DIMAPOST
  1

  9
$DIMALT
 70
0
  9
$DIMALTD
 70
3
  9
$DIMALTF
 40
0.03937007874
  9
$DIMLFAC
 40
1.0
  9
$DIMTOFL
 70
1
  9
$DIMTVP
 40
0.0
  9
$DIMTIX
 70
0
  9
$DIMSOXD
 70
0
  9
$DIMSAH
 70
0
  9
$DIMBLK1
  1

  9
$DIMBLK2
  1

  9
$DIMSTYLE
  2
ISO-25
  9
$DIMCLRD
 70
0
  9
$DIMCLRE
 70
0
  9
$DIMCLRT
 70
0
  9
$DIMTFAC
 40
1.0
  9
$DIMGAP
 40
0.625
  9
$DIMJUST
 70
0
  9
$DIMSD1
 70
0
  9
$DIMSD2
 70
0
  9
$DIMTOLJ
 70
0
  9
$DIMTZIN
 70
8
  9
$DIMALTZ
 70
0
  9
$DIMALTTZ
 70
0
  9
$DIMUPT
 70
0
  9
$DIMDEC
 70
2
  9
$DIMTDEC
 70
2
  9
$DIMALTU
 70
2
  9
$DIMALTTD
 70
3
  9
$DIMTXSTY
  7
Standard
  9
$DIMAUNIT
 70
0
  9
$DIMADEC
 70
0
  9
$DIMALTRND
 40
0.0
  9
$DIMAZIN
 70
0
  9
$DIMDSEP
 70
44
  9
$DIMATFIT
 70
3
  9
$DIMFRAC
 70
0
  9
$DIMLDRBLK
  1

  9
$DIMLUNIT
 70
2
  9
$DIMLWD
 70
-2
  9
$DIMLWE
 70
-2
  9
$DIMTMOVE
 70
0
  9
$DIMFXL
 40
1.0
  9
$DIMFXLON
 70
0
  9
$DIMJOGANG
 40
0.785398163397
  9
$DIMTFILL
 70
0
  9
$DIMTFILLCLR
 70
0
  9
$DIMARCSYM
 70
0
  9
$DIMLTYPE
  6

  9
$DIMLTEX1
  6

  9
$DIMLTEX2
  6

  9
$DIMTXTDIRECTION
 70
0
  9
$LUNITS
 70
2
  9
$LUPREC
 70
4
  9
$SKETCHINC
 40
1.0
  9
$FILLETRAD
 40
10.0
  9
$AUNITS
 70
0
  9
$AUPREC
 70
2
  9
$MENU
  1
.
  9
$ELEVATION
 40
0.0
  9
$PELEVATION
 40
0.0
  9
$THICKNESS
 40
0.0
  9
$LIMCHECK
 70
0
  9
$CHAMFERA
 40
0.0
  9
$CHAMFERB
 40
0.0
  9
$CHAMFERC
 40
0.0
  9
$CHAMFERD
 40
0.0
  9
$SKPOLY
 70
0
  9
$TDCREATE
 40
2460676.398275463
  9
$TDUCREATE
 40
2458532.153996898
  9
$TDUPDATE
 40
2460676.398275463
  9
$TDUUPDATE
 40
2458532.1544311
  9
$TDINDWG
 40
0.0
  9
$TDUSRTIMER
 40
0.0
  9
$USRTIMER
 70
1
  9
$ANGBASE
 50
0.0
  9
$ANGDIR
 70
0
  9
$PDMODE
 70
0
  9
$PDSIZE
 40
0.0
  9
$PLINEWID
 40
0.0
  9
$SPLFRAME
 70
0
  9
$SPLINETYPE
 70
6
  9
$SPLINESEGS
 70
8
  9
$HANDSEED
  5
3B
  9
$SURFTAB1
 70
6
  9
$SURFTAB2
 70
6
  9
$SURFTYPE
 70
6
  9
$SURFU
 70
6
  9
$SURFV
 70
6
  9
$UCSBASE
  2

  9
$UCSNAME
  2

  9
$UCSORG
 10
0.0
 20
0.0
 30
0.0
  9
$UCSXDIR
 10
1.0
 20
0.0
 30
0.0
  9
$UCSYDIR
 10
0.0
 20
1.0
 30
0.0
  9
$UCSORTHOREF
  2

  9
$UCSORTHOVIEW
 70
0
  9
$UCSORGTOP
 10
0.0
 20
0.0
 30
0.0
  9
$UCSORGBOTTOM
 10
0.0
 20
0.0
 30
0.0
  9
$UCSORGLEFT
 10
0.0
 20
0.0
 30
0.0
  9
$UCSORGRIGHT
 10
0.0
 20
0.0
 30
0.0
  9
$UCSORGFRONT
 10
0.0
 20
0.0
 30
0.0
  9
$UCSORGBACK
 10
0.0
 20
0.0
 30
0.0
  9
$PUCSBASE
  2

  9
$PUCSNAME
  2

  9
$PUCSORG
 10
0.0
 20
0.0
 30
0.0
  9
$PUCSXDIR
 10
1.0
 20
0.0
 30
0.0
  9
$PUCSYDIR
 10
0.0
 20
1.0
 30
0.0
  9
$PUCSORTHOREF
  2

  9
$PUCSORTHOVIEW
 70
0
  9
$PUCSORGTOP
 10
0.0
 20
0.0
 30
0.0
  9
$PUCSORGBOTTOM
 10
0.0
 20
0.0
 30
0.0
  9
$PUCSORGLEFT
 10
0.0
 20
0.0
 30
0.0
  9
$PUCSORGRIGHT
 10
0.0
 20
0.0
 30
0.0
  9
$PUCSORGFRONT
 10
0.0
 20
0.0
 30
0.0
  9
$PUCSORGBACK
 10
0.0
 20
0.0
 30
0.0
  9
$USERI1
 70
0
  9
$USERI2
 70
0
  9
$USERI3
 70
0
  9
$USERI4
 70
0
  9
$USERI5
 70
0
  9
$USERR1
 40
0.0
  9
$USERR2
 40
0.0
  9
$USERR3
 40
0.0
  9
$USERR4
 40
0.0
  9
$USERR5
 40
0.0
  9
$WORLDVIEW
 70
1
  9
$SHADEDGE
 70
3
  9
$SHADEDIF
 70
70
  9
$TILEMODE
 70
1
  9
$MAXACTVP
 70
64
  9
$PINSBASE
 10
0.0
 20
0.0
 30
0.0
  9
$PLIMCHECK
 70
0
  9
$PEXTMIN
 10
1e+20
 20
1e+20
 30
1e+20
  9
$PEXTMAX
 10
-1e+20
 20
-1e+20
 30
-1e+20
  9
$PLIMMIN
 10
0.0
 20
0.0
  9
$PLIMMAX
 10
420.0
 20
297.0
  9
$UNITMODE
 70
0
  9
$VISRETAIN
 70
1
  9
$PLINEGEN
 70
0
  9
$PSLTSCALE
 70
1
  9
$TREEDEPTH
 70
3020
  9
$CMLSTYLE
  2
Standard
  9
$CMLJUST
 70
0
  9
$CMLSCALE
 40
20.0
  9
$PROXYGRAPHICS
 70
1
  9
$MEASUREMENT
 70
1
  9
$CELWEIGHT
370
-1
  9
$ENDCAPS
280
0
  9
$JOINSTYLE
280
0
  9
$LWDISPLAY
290
0
  9
$INSUNITS
 70
6
  9
$HYPERLINKBASE
  1

  9
$STYLESHEET
  1

  9
$XEDIT
290
1
  9
$CEPSNTYPE
380
0
  9
$PSTYLEMODE
290
1
  9
$FINGERPRINTGUID
  2
{2E9E3562-ED2D-4A22-93F9-600B599242A1}
  9
$VERSIONGUID
  2
{8426651D-8B0A-4856-BF4F-2F42315632EC}
  9
$EXTNAMES
290
1
  9
$PSVPSCALE
 40
0.0
  9
$OLESTARTUP
290
0
  9
$SORTENTS
280
127
  9
$INDEXCTL
280
0
  9
$HIDETEXT
280
1
  9
$XCLIPFRAME
280
0
  9
$HALOGAP
280
0
  9
$OBSCOLOR
 70
257
  9
$OBSLTYPE
280
0
  9
$INTERSECTIONDISPLAY
280
0
  9
$INTERSECTIONCOLOR
 70
257
  9
$DIMASSOC
280
2
  9
$PROJECTNAME
  1

  9
$CAMERADISPLAY
290
0
  9
$LENSLENGTH
 40
50.0
  9
$CAMERAHEIGHT
 40
0.0
  9
$STEPSPERSEC
 40
24.0
  9
$STEPSIZE
 40
100.0
  9
$3DDWFPREC
 40
2.0
  9
$PSOLWIDTH
 40
0.005
  9
$PSOLHEIGHT
 40
0.08
  9
$LOFTANG1
 40
1.570796326795
  9
$LOFTANG2
 40
1.570796326795
  9
$LOFTMAG1
 40
0.0
  9
$LOFTMAG2
 40
0.0
  9
$LOFTPARAM
 70
7
  9
$LOFTNORMALS
280
1
  9
$LATITUDE
 40
37.795
  9
$LONGITUDE
 40
-122.394
  9
$NORTHDIRECTION
 40
0.0
  9
$TIMEZONE
 70
-8000
  9
$LIGHTGLYPHDISPLAY
280
1
  9
$TILEMODELIGHTSYNCH
280
1
  9
$CMATERIAL
347
20
  9
$SOLIDHIST
280
0
  9
$SHOWHIST
280
1
  9
$DWFFRAME
280
2
  9
$DGNFRAME
280
2
  9
$REALWORLDSCALE
290
1
  9
$INTERFERECOLOR
 62
256
  9
$CSHADOW
280
0
  9
$SHADOWPLANELOCATION
 40
0.0
  0
ENDSEC
  0
SECTION
  2
CLASSES
  0
CLASS
  1
ACDBDICTIONARYWDFLT
  2
AcDbDictionaryWithDefault
  3
ObjectDBX Classes
 90
0
 91
0
280
0
281
0
  0
CLASS
  1
SUN
  2
AcDbSun
  3
SCENEOE
 90
1153
 91
0
280
0
281
0
  0
CLASS
  1
VISUALSTYLE
  2
AcDbVisualStyle
  3
ObjectDBX Classes
 90
4095
 91
0
280
0
281
0
  0
CLASS
  1
MATERIAL
  2
AcDbMaterial
  3
ObjectDBX Classes
 90
1153
 91
0
280
0
281
0
  0
CLASS
  1
SCALE
  2
AcDbScale
  3
ObjectDBX Classes
 90
1153
 91
0
280
0
281
0
  0
CLASS
  1
TABLESTYLE
  2
AcDbTableStyle
  3
ObjectDBX Classes
 90
4095
 91
0
280
0
281
0
  0
CLASS
  1
MLEADERSTYLE
  2
AcDbMLeaderStyle
  3
ACDB_MLEADERSTYLE_CLASS
 90
4095
 91
0
280
0
281
0
  0
CLASS
  1
DICTIONARYVAR
  2
AcDbDictionaryVar
  3
ObjectDBX Classes
 90
0
 91
0
280
0
281
0
  0
CLASS
  1
CELLSTYLEMAP
  2
AcDbCellStyleMap
  3
ObjectDBX Classes
 90
1152
 91
0
280
0
281
0
  0
CLASS
  1
MENTALRAYRENDERSETTINGS
  2
AcDbMentalRayRenderSettings
  3
SCENEOE
 90
1024
 91
0
280
0
281
0
  0
CLASS
  1
ACDBDETAILVIEWSTYLE
  2
AcDbDetailViewStyle
  3
ObjectDBX Classes
 90
1025
 91
0
280
0
281
0
  0
CLASS
  1
ACDBSECTIONVIEWSTYLE
  2
AcDbSectionViewStyle
  3
ObjectDBX Classes
 90
1025
 91
0
280
0
281
0
  0
CLASS
  1
RASTERVARIABLES
  2
AcDbRasterVariables
  3
ISM
 90
0
 91
0
280
0
281
0
  0
CLASS
  1
ACDBPLACEHOLDER
  2
AcDbPlaceHolder
  3
ObjectDBX Classes
 90
0
 91
0
280
0
281
0
  0
CLASS
  1
LAYOUT
  2
AcDbLayout
  3
ObjectDBX Classes
 90
0
 91
0
280
0
281
0
  0
ENDSEC
  0
SECTION
  2
TABLES
  0
TABLE
  2
VPORT
  5
8
330
0
100
AcDbSymbolTable
 70
1
  0
VPORT
  5
23
330
8
100
AcDbSymbolTableRecord
100
AcDbViewportTableRecord
  2
*Active
 70
0
 10
0.0
 20
0.0
 11
1.0
 21
1.0
 12
0.0
 22
0.0
 13
0.0
 23
0.0
 14
0.5
 24
0.5
 15
0.5
 25
0.5
 16
0.0
 26
0.0
 36
1.0
 17
0.0
 27
0.0
 37
0.0
 40
1000.0
 41
1.34
 42
50.0
 43
0.0
 44
0.0
 50
0.0
 51
0.0
 71
0
 72
1000
 73
1
 74
3
 75
0
 76
0
 77
0
 78
0
281
0
 65
0
146
0.0
  0
ENDTAB
  0
TABLE
  2
LTYPE
  5
2
330
0
100
AcDbSymbolTable
 70
3
  0
LTYPE
  5
24
330
2
100
AcDbSymbolTableRecord
100
AcDbLinetypeTableRecord
  2
ByBlock
 70
0
  3

 72
65
 73
0
 40
0.0
  0
LTYPE
  5
25
330
2
100
AcDbSymbolTableRecord
100
AcDbLinetypeTableRecord
  2
ByLayer
 70
0
  3

 72
65
 73
0
 40
0.0
  0
LTYPE
  5
26
330
2
100
AcDbSymbolTableRecord
100
AcDbLinetypeTableRecord
  2
Continuous
 70
0
  3

 72
65
 73
0
 40
0.0
  0
ENDTAB
  0
TABLE
  2
LAYER
  5
1
330
0
100
AcDbSymbolTable
 70
5
  0
LAYER
  5
27
330
1
100
AcDbSymbolTableRecord
100
AcDbLayerTableRecord
  2
0
 70
0
 62
7
  6
Continuous
370
-3
390
13
347
21
  0
LAYER
  5
28
330
1
100
AcDbSymbolTableRecord
100
AcDbLayerTableRecord
  2
Defpoints
 70
0
 62
7
  6
Continuous
290
0
370
-3
390
13
347
21
  0
LAYER
  5
2F
330
1
100
AcDbSymbolTableRecord
100
AcDbLayerTableRecord
  2
conductor
 70
0
 62
1
  6
Continuous
370
-3
390
13
347
21
  0
LAYER
  5
30
330
1
100
AcDbSymbolTableRecord
100
AcDbLayerTableRecord
  2
dielectric
 70
0
 62
8
  6
Continuous
370
-3
390
13
347
21
  0
LAYER
  5
31
330
1
100
AcDbSymbolTableRecord
100
AcDbLayerTableRecord
  2
substrate
 70
0
 62
5
  6
Continuous
370
-3
390
13
347
21
  0
ENDTAB
  0
TABLE
  2
STYLE
  5
5
330
0
100
AcDbSymbolTable
 70
1
  0
STYLE
  5
29
330
5
100
AcDbSymbolTableRecord
100
AcDbTextStyleTableRecord
  2
Standard
 70
0
 40
0.0
 41
1.0
 50
0.0
 71
0
 42
2.5
  3
txt
  4

  0
ENDTAB
  0
TABLE
  2
VIEW
  5
7
330
0
100
AcDbSymbolTable
 70
0
  0
ENDTAB
  0
TABLE
  2
UCS
  5
6
330
0
100
AcDbSymbolTable
 70
0
  0
ENDTAB
  0
TABLE
  2
APPID
  5
3
330
0
100
AcDbSymbolTable
 70
3
  0
APPID
  5
2A
330
3
100
AcDbSymbolTableRecord
100
AcDbRegAppTableRecord
  2
ACAD
 70
0
  0
APPID
  5
38
330
3
100
AcDbSymbolTableRecord
100
AcDbRegAppTableRecord
  2
HATCHBACKGROUNDCOLOR
 70
0
  0
APPID
  5
39
330
3
100
AcDbSymbolTableRecord
100
AcDbRegAppTableRecord
  2
EZDXF
 70
0
  0
ENDTAB
  0
TABLE
  2
DIMSTYLE
  5
4
330
0
100
AcDbSymbolTable
 70
1
100
AcDbDimStyleTable
  0
DIMSTYLE
105
2B
330
4
100
AcDbSymbolTableRecord
100
AcDbDimStyleTableRecord
  2
Standard
 70
0
 40
1.0
 41
2.5
 42
0.625
 43
3.75
 44
1.25
 45
0.0
 46
0.0
 47
0.0
 48
0.0
 49
2.5
140
2.5
141
2.5
142
0.0
143
0.03937007874
144
1.0
145
0.0
146
1.0
147
0.625
148
0.0
 69
0
 70
0
 71
0
 72
0
 73
0
 74
0
 75
0
 76
0
 77
1
 78
8
 79
3
170
0
171
3
172
1
173
0
174
0
175
0
176
0
177
0
178
0
179
2
271
2
272
2
273
2
274
3
275
0
276
0
277
2
278
44
279
0
280
0
281
0
282
0
283
0
284
8
285
0
286
0
288
0
289
3
290
0
371
-2
372
-2
  0
ENDTAB
  0
TABLE
  2
BLOCK_RECORD
  5
9
330
0
100
AcDbSymbolTable
 70
2
  0
BLOCK_RECORD
  5
17
330
9
100
AcDbSymbolTableRecord
100
AcDbBlockTableRecord
  2
*Model_Space
340
1A
 70
0
280
1
281
0
  0
BLOCK_RECORD
  5
1B
330
9
100
AcDbSymbolTableRecord
100
AcDbBlockTableRecord
  2
*Paper_Space
340
1E
 70
0
280
1
281
0
  0
ENDTAB
  0
ENDSEC
  0
SECTION
  2
BLOCKS
  0
BLOCK
  5
18
330
17
100
AcDbEntity
  8
0
100
AcDbBlockBegin
  2
*Model_Space
 70
0
 10
0.0
 20
0.0
 30
0.0
  3
*Model_Space
  1

  0
ENDBLK
  5
19
330
17
100
AcDbEntity
  8
0
100
AcDbBlockEnd
  0
BLOCK
  5
1C
330
1B
100
AcDbEntity
  8
0
100
AcDbBlockBegin
  2
*Paper_Space
 70
0
 10
0.0
 20
0.0
 30
0.0
  3
*Paper_Space
  1

  0
ENDBLK
  5
1D
330
1B
100
AcDbEntity
  8
0
100
AcDbBlockEnd
  0
ENDSEC
  0
SECTION
  2
ENTITIES
  0
LWPOLYLINE
  5
32
330
17
100
AcDbEntity
  8
conductor
100
AcDbPolyline
 90
213
 70
1
 43
0.5
 10
2567.40234375
 20
-2169.35546875
 10
2557.451171875
 20
-2179.306640625
 10
2547.5
 20
-2179.306640625
 10
2537.548828125
 20
-2179.306640625
 10
2527.59765625
 20
-2179.306640625
 10
2517.646484375
 20
-2179.306640625
 10
2507.6953125
 20
-2179.306640625
 10
2497.744140625
 20
-2179.306640625
 10
2487.79296875
 20
-2179.306640625
 10
2477.841796875
 20
-2179.306640625
 10
2467.890625
 20
-2179.306640625
 10
2457.939453125
 20
-2189.2578125
 10
2447.98828125
 20
-2189.2578125
 10
2438.037109375
 20
-2189.2578125
 10
2428.0859375
 20
-2189.2578125
 10
2418.134765625
 20
-2199.208984375
 10
2408.18359375
 20
-2199.208984375
 10
2398.232421875
 20
-2209.16015625
 10
2388.28125
 20
-2209.16015625
 10
2378.330078125
 20
-2219.111328125
 10
2368.37890625
 20
-2219.111328125
 10
2358.427734375
 20
-2229.0625
 10
2348.4765625
 20
-2229.0625
 10
2338.525390625
 20
-2239.013671875
 10
2328.57421875
 20
-2239.013671875
 10
2318.623046875
 20
-2248.96484375
 10
2308.671875
 20
-2258.916015625
 10
2298.720703125
 20
-2268.8671875
 10
2288.76953125
 20
-2268.8671875
 10
2278.818359375
 20
-2278.818359375
 10
2268.8671875
 20
-2288.76953125
 10
2268.8671875
 20
-2298.720703125
 10
2258.916015625
 20
-2308.671875
 10
2248.96484375
 20
-2318.623046875
 10
2248.96484375
 20
-2328.57421875
 10
2239.013671875
 20
-2338.525390625
 10
2239.013671875
 20
-2348.4765625
 10
2229.0625
 20
-2358.427734375
 10
2229.0625
 20
-2368.37890625
 10
2219.111328125
 20
-2378.330078125
 10
2219.111328125
 20
-2388.28125
 10
2209.16015625
 20
-2398.232421875
 10
2199.208984375
 20
-2408.18359375
 10
2199.208984375
 20
-2418.134765625
 10
2199.208984375
 20
-2428.0859375
 10
2189.2578125
 20
-2438.037109375
 10
2189.2578125
 20
-2447.98828125
 10
2189.2578125
 20
-2457.939453125
 10
2189.2578125
 20
-2467.890625
 10
2179.306640625
 20
-2477.841796875
 10
2179.306640625
 20
-2487.79296875
 10
2179.306640625
 20
-2497.744140625
 10
2179.306640625
 20
-2507.6953125
 10
2179.306640625
 20
-2517.646484375
 10
2179.306640625
 20
-2527.59765625
 10
2179.306640625
 20
-2537.548828125
 10
2179.306640625
 20
-2547.5
 10
2179.306640625
 20
-2557.451171875
 10
2179.306640625
 20
-2567.40234375
 10
2179.306640625
 20
-2577.353515625
 10
2179.306640625
 20
-2587.3046875
 10
2179.306640625
 20
-2597.255859375
 10
2179.306640625
 20
-2607.20703125
 10
2189.2578125
 20
-2617.158203125
 10
2189.2578125
 20
-2627.109375
 10
2189.2578125
 20
-2637.060546875
 10
2189.2578125
 20
-2647.01171875
 10
2199.208984375
 20
-2656.962890625
 10
2199.208984375
 20
-2666.9140625
 10
2209.16015625
 20
-2676.865234375
 10
2209.16015625
 20
-2686.81640625
 10
2209.16015625
 20
-2696.767578125
 10
2219.111328125
 20
-2706.71875
 10
2219.111328125
 20
-2716.669921875
 10
2229.0625
 20
-2726.62109375
 10
2239.013671875
 20
-2736.572265625
 10
2239.013671875
 20
-2746.5234375
 10
2239.013671875
 20
-2756.474609375
 10
2248.96484375
 20
-2766.42578125
 10
2258.916015625
 20
-2776.376953125
 10
2268.8671875
 20
-2786.328125
 10
2278.818359375
 20
-2796.279296875
 10
2288.76953125
 20
-2806.23046875
 10
2298.720703125
 20
-2816.181640625
 10
2308.671875
 20
-2826.1328125
 10
2318.623046875
 20
-2836.083984375
 10
2328.57421875
 20
-2836.083984375
 10
2338.525390625
 20
-2846.03515625
 10
2348.4765625
 20
-2855.986328125
 10
2358.427734375
 20
-2865.9375
 10
2368.37890625
 20
-2875.888671875
 10
2378.330078125
 20
-2875.888671875
 10
2388.28125
 20
-2875.888671875
 10
2398.232421875
 20
-2885.83984375
 10
2408.18359375
 20
-2885.83984375
 10
2418.134765625
 20
-2895.791015625
 10
2428.0859375
 20
-2895.791015625
 10
2438.037109375
 20
-2895.791015625
 10
2447.98828125
 20
-2895.791015625
 10
2457.939453125
 20
-2905.7421875
 10
2467.890625
 20
-2905.7421875
 10
2477.841796875
 20
-2905.7421875
 10
2487.79296875
 20
-2905.7421875
 10
2497.744140625
 20
-2915.693359375
 10
2507.6953125
 20
-2915.693359375
 10
2517.646484375
 20
-2915.693359375
 10
2527.59765625
 20
-2915.693359375
 10
2537.548828125
 20
-2915.693359375
 10
2547.5
 20
-2915.693359375
 10
2557.451171875
 20
-2915.693359375
 10
2567.40234375
 20
-2915.693359375
 10
2577.353515625
 20
-2915.693359375
 10
2587.3046875
 20
-2915.693359375
 10
2597.255859375
 20
-2915.693359375
 10
2607.20703125
 20
-2915.693359375
 10
2617.158203125
 20
-2915.693359375
 10
2627.109375
 20
-2905.7421875
 10
2637.060546875
 20
-2905.7421875
 10
2647.01171875
 20
-2905.7421875
 10
2656.962890625
 20
-2895.791015625
 10
2666.9140625
 20
-2885.83984375
 10
2676.865234375
 20
-2885.83984375
 10
2686.81640625
 20
-2875.888671875
 10
2696.767578125
 20
-2875.888671875
 10
2706.71875
 20
-2865.9375
 10
2716.669921875
 20
-2865.9375
 10
2726.62109375
 20
-2855.986328125
 10
2736.572265625
 20
-2855.986328125
 10
2746.5234375
 20
-2846.03515625
 10
2756.474609375
 20
-2846.03515625
 10
2766.42578125
 20
-2836.083984375
 10
2776.376953125
 20
-2836.083984375
 10
2776.376953125
 20
-2826.1328125
 10
2786.328125
 20
-2816.181640625
 10
2796.279296875
 20
-2816.181640625
 10
2806.23046875
 20
-2806.23046875
 10
2816.181640625
 20
-2796.279296875
 10
2826.1328125
 20
-2786.328125
 10
2836.083984375
 20
-2776.376953125
 10
2836.083984375
 20
-2766.42578125
 10
2846.03515625
 20
-2756.474609375
 10
2855.986328125
 20
-2756.474609375
 10
2855.986328125
 20
-2746.5234375
 10
2865.9375
 20
-2736.572265625
 10
2865.9375
 20
-2726.62109375
 10
2875.888671875
 20
-2716.669921875
 10
2875.888671875
 20
-2706.71875
 10
2875.888671875
 20
-2696.767578125
 10
2885.83984375
 20
-2686.81640625
 10
2885.83984375
 20
-2676.865234375
 10
2885.83984375
 20
-2666.9140625
 10
2895.791015625
 20
-2656.962890625
 10
2895.791015625
 20
-2647.01171875
 10
2905.7421875
 20
-2637.060546875
 10
2905.7421875
 20
-2627.109375
 10
2905.7421875
 20
-2617.158203125
 10
2905.7421875
 20
-2607.20703125
 10
2905.7421875
 20
-2597.255859375
 10
2905.7421875
 20
-2587.3046875
 10
2915.693359375
 20
-2577.353515625
 10
2905.7421875
 20
-2567.40234375
 10
2915.693359375
 20
-2557.451171875
 10
2905.7421875
 20
-2547.5
 10
2915.693359375
 20
-2537.548828125
 10
2915.693359375
 20
-2527.59765625
 10
2915.693359375
 20
-2517.646484375
 10
2915.693359375
 20
-2507.6953125
 10
2915.693359375
 20
-2497.744140625
 10
2905.7421875
 20
-2487.79296875
 10
2905.7421875
 20
-2477.841796875
 10
2905.7421875
 20
-2467.890625
 10
2895.791015625
 20
-2457.939453125
 10
2895.791015625
 20
-2447.98828125
 10
2895.791015625
 20
-2438.037109375
 10
2895.791015625
 20
-2428.0859375
 10
2895.791015625
 20
-2418.134765625
 10
2885.83984375
 20
-2408.18359375
 10
2875.888671875
 20
-2398.232421875
 10
2875.888671875
 20
-2388.28125
 10
2875.888671875
 20
-2378.330078125
 10
2865.9375
 20
-2368.37890625
 10
2855.986328125
 20
-2358.427734375
 10
2855.986328125
 20
-2348.4765625
 10
2846.03515625
 20
-2338.525390625
 10
2836.083984375
 20
-2328.57421875
 10
2836.083984375
 20
-2318.623046875
 10
2826.1328125
 20
-2308.671875
 10
2816.181640625
 20
-2298.720703125
 10
2806.23046875
 20
-2288.76953125
 10
2796.279296875
 20
-2278.818359375
 10
2786.328125
 20
-2268.8671875
 10
2786.328125
 20
-2258.916015625
 10
2776.376953125
 20
-2258.916015625
 10
2766.42578125
 20
-2248.96484375
 10
2756.474609375
 20
-2239.013671875
 10
2746.5234375
 20
-2239.013671875
 10
2736.572265625
 20
-2229.0625
 10
2726.62109375
 20
-2219.111328125
 10
2716.669921875
 20
-2219.111328125
 10
2706.71875
 20
-2209.16015625
 10
2696.767578125
 20
-2209.16015625
 10
2686.81640625
 20
-2209.16015625
 10
2676.865234375
 20
-2199.208984375
 10
2666.9140625
 20
-2199.208984375
 10
2656.962890625
 20
-2189.2578125
 10
2647.01171875
 20
-2179.306640625
 10
2637.060546875
 20
-2179.306640625
 10
2627.109375
 20
-2179.306640625
 10
2617.158203125
 20
-2179.306640625
 10
2607.20703125
 20
-2179.306640625
 10
2597.255859375
 20
-2179.306640625
 10
2587.3046875
 20
-2179.306640625
 10
2577.353515625
 20
-2179.306640625
  0
LWPOLYLINE
  5
33
330
17
100
AcDbEntity
  8
conductor
100
AcDbPolyline
 90
4
 70
1
 43
0.5
 10
2597.255859375
 20
-2666.9140625
 10
2607.20703125
 20
-2656.962890625
 10
2617.158203125
 20
-2666.9140625
 10
2607.20703125
 20
-2676.865234375
  0
LWPOLYLINE
  5
34
330
17
100
AcDbEntity
  8
conductor
100
AcDbPolyline
 90
4
 70
1
 43
0.5
 10
2597.255859375
 20
-2587.3046875
 10
2607.20703125
 20
-2577.353515625
 10
2617.158203125
 20
-2587.3046875
 10
2607.20703125
 20
-2597.255859375
  0
LWPOLYLINE
  5
35
330
17
100
AcDbEntity
  8
substrate
100
AcDbPolyline
 90
2044
 70
1
 43
0.5
 10
0.0
 20
-0.0
 10
0.0
 20
-9.951171875
 10
0.0
 20
-19.90234375
 10
0.0
 20
-29.853515625
 10
0.0
 20
-39.8046875
 10
0.0
 20
-49.755859375
 10
0.0
 20
-59.70703125
 10
0.0
 20
-69.658203125
 10
0.0
 20
-79.609375
 10
0.0
 20
-89.560546875
 10
0.0
 20
-99.51171875
 10
0.0
 20
-109.462890625
 10
0.0
 20
-119.4140625
 10
0.0
 20
-129.365234375
 10
0.0
 20
-139.31640625
 10
0.0
 20
-149.267578125
 10
0.0
 20
-159.21875
 10
0.0
 20
-169.169921875
 10
0.0
 20
-179.12109375
 10
0.0
 20
-189.072265625
 10
0.0
 20
-199.0234375
 10
0.0
 20
-208.974609375
 10
0.0
 20
-218.92578125
 10
0.0
 20
-228.876953125
 10
0.0
 20
-238.828125
 10
0.0
 20
-248.779296875
 10
0.0
 20
-258.73046875
 10
0.0
 20
-268.681640625
 10
0.0
 20
-278.6328125
 10
0.0
 20
-288.583984375
 10
0.0
 20
-298.53515625
 10
0.0
 20
-308.486328125
 10
0.0
 20
-318.4375
 10
0.0
 20
-328.388671875
 10
0.0
 20
-338.33984375
 10
0.0
 20
-348.291015625
 10
0.0
 20
-358.2421875
 10
0.0
 20
-368.193359375
 10
0.0
 20
-378.14453125
 10
0.0
 20
-388.095703125
 10
0.0
 20
-398.046875
 10
0.0
 20
-407.998046875
 10
0.0
 20
-417.94921875
 10
0.0
 20
-427.900390625
 10
0.0
 20
-437.8515625
 10
0.0
 20
-447.802734375
 10
0.0
 20
-457.75390625
 10
0.0
 20
-467.705078125
 10
0.0
 20
-477.65625
 10
0.0
 20
-487.607421875
 10
0.0
 20
-497.55859375
 10
0.0
 20
-507.509765625
 10
0.0
 20
-517.4609375
 10
0.0
 20
-527.412109375
 10
0.0
 20
-537.36328125
 10
0.0
 20
-547.314453125
 10
0.0
 20
-557.265625
 10
0.0
 20
-567.216796875
 10
0.0
 20
-577.16796875
 10
0.0
 20
-587.119140625
 10
0.0
 20
-597.0703125
 10
0.0
 20
-607.021484375
 10
0.0
 20
-616.97265625
 10
0.0
 20
-626.923828125
 10
0.0
 20
-636.875
 10
0.0
 20
-646.826171875
 10
0.0
 20
-656.77734375
 10
0.0
 20
-666.728515625
 10
0.0
 20
-676.6796875
 10
0.0
 20
-686.630859375
 10
0.0
 20
-696.58203125
 10
0.0
 20
-706.533203125
 10
0.0
 20
-716.484375
 10
0.0
 20
-726.435546875
 10
0.0
 20
-736.38671875
 10
0.0
 20
-746.337890625
 10
0.0
 20
-756.2890625
 10
0.0
 20
-766.240234375
 10
0.0
 20
-776.19140625
 10
0.0
 20
-786.142578125
 10
0.0
 20
-796.09375
 10
0.0
 20
-806.044921875
 10
0.0
 20
-815.99609375
 10
0.0
 20
-825.947265625
 10
0.0
 20
-835.8984375
 10
0.0
 20
-845.849609375
 10
0.0
 20
-855.80078125
 10
0.0
 20
-865.751953125
 10
0.0
 20
-875.703125
 10
0.0
 20
-885.654296875
 10
0.0
 20
-895.60546875
 10
0.0
 20
-905.556640625
 10
0.0
 20
-915.5078125
 10
0.0
 20
-925.458984375
 10
0.0
 20
-935.41015625
 10
0.0
 20
-945.361328125
 10
0.0
 20
-955.3125
 10
0.0
 20
-965.263671875
 10
0.0
 20
-975.21484375
 10
0.0
 20
-985.166015625
 10
0.0
 20
-995.1171875
 10
0.0
 20
-1005.068359375
 10
0.0
 20
-1015.01953125
 10
0.0
 20
-1024.970703125
 10
0.0
 20
-1034.921875
 10
0.0
 20
-1044.873046875
 10
0.0
 20
-1054.82421875
 10
0.0
 20
-1064.775390625
 10
0.0
 20
-1074.7265625
 10
0.0
 20
-1084.677734375
 10
0.0
 20
-1094.62890625
 10
0.0
 20
-1104.580078125
 10
0.0
 20
-1114.53125
 10
0.0
 20
-1124.482421875
 10
0.0
 20
-1134.43359375
 10
0.0
 20
-1144.384765625
 10
0.0
 20
-1154.3359375
 10
0.0
 20
-1164.287109375
 10
0.0
 20
-1174.23828125
 10
0.0
 20
-1184.189453125
 10
0.0
 20
-1194.140625
 10
0.0
 20
-1204.091796875
 10
0.0
 20
-1214.04296875
 10
0.0
 20
-1223.994140625
 10
0.0
 20
-1233.9453125
 10
0.0
 20
-1243.896484375
 10
0.0
 20
-1253.84765625
 10
0.0
 20
-1263.798828125
 10
0.0
 20
-1273.75
 10
0.0
 20
-1283.701171875
 10
0.0
 20
-1293.65234375
 10
0.0
 20
-1303.603515625
 10
0.0
 20
-1313.5546875
 10
0.0
 20
-1323.505859375
 10
0.0
 20
-1333.45703125
 10
0.0
 20
-1343.408203125
 10
0.0
 20
-1353.359375
 10
0.0
 20
-1363.310546875
 10
0.0
 20
-1373.26171875
 10
0.0
 20
-1383.212890625
 10
0.0
 20
-1393.1640625
 10
0.0
 20
-1403.115234375
 10
0.0
 20
-1413.06640625
 10
0.0
 20
-1423.017578125
 10
0.0
 20
-1432.96875
 10
0.0
 20
-1442.919921875
 10
0.0
 20
-1452.87109375
 10
0.0
 20
-1462.822265625
 10
0.0
 20
-1472.7734375
 10
0.0
 20
-1482.724609375
 10
0.0
 20
-1492.67578125
 10
0.0
 20
-1502.626953125
 10
0.0
 20
-1512.578125
 10
0.0
 20
-1522.529296875
 10
0.0
 20
-1532.48046875
 10
0.0
 20
-1542.431640625
 10
0.0
 20
-1552.3828125
 10
0.0
 20
-1562.333984375
 10
0.0
 20
-1572.28515625
 10
0.0
 20
-1582.236328125
 10
0.0
 20
-1592.1875
 10
0.0
 20
-1602.138671875
 10
0.0
 20
-1612.08984375
 10
0.0
 20
-1622.041015625
 10
0.0
 20
-1631.9921875
 10
0.0
 20
-1641.943359375
 10
0.0
 20
-1651.89453125
 10
0.0
 20
-1661.845703125
 10
0.0
 20
-1671.796875
 10
0.0
 20
-1681.748046875
 10
0.0
 20
-1691.69921875
 10
0.0
 20
-1701.650390625
 10
0.0
 20
-1711.6015625
 10
0.0
 20
-1721.552734375
 10
0.0
 20
-1731.50390625
 10
0.0
 20
-1741.455078125
 10
0.0
 20
-1751.40625
 10
0.0
 20
-1761.357421875
 10
0.0
 20
-1771.30859375
 10
0.0
 20
-1781.259765625
 10
0.0
 20
-1791.2109375
 10
0.0
 20
-1801.162109375
 10
0.0
 20
-1811.11328125
 10
0.0
 20
-1821.064453125
 10
0.0
 20
-1831.015625
 10
0.0
 20
-1840.966796875
 10
0.0
 20
-1850.91796875
 10
0.0
 20
-1860.869140625
 10
0.0
 20
-1870.8203125
 10
0.0
 20
-1880.771484375
 10
0.0
 20
-1890.72265625
 10
0.0
 20
-1900.673828125
 10
0.0
 20
-1910.625
 10
0.0
 20
-1920.576171875
 10
0.0
 20
-1930.52734375
 10
0.0
 20
-1940.478515625
 10
0.0
 20
-1950.4296875
 10
0.0
 20
-1960.380859375
 10
0.0
 20
-1970.33203125
 10
0.0
 20
-1980.283203125
 10
0.0
 20
-1990.234375
 10
0.0
 20
-2000.185546875
 10
0.0
 20
-2010.13671875
 10
0.0
 20
-2020.087890625
 10
0.0
 20
-2030.0390625
 10
0.0
 20
-2039.990234375
 10
0.0
 20
-2049.94140625
 10
0.0
 20
-2059.892578125
 10
0.0
 20
-2069.84375
 10
0.0
 20
-2079.794921875
 10
0.0
 20
-2089.74609375
 10
0.0
 20
-2099.697265625
 10
0.0
 20
-2109.6484375
 10
0.0
 20
-2119.599609375
 10
0.0
 20
-2129.55078125
 10
0.0
 20
-2139.501953125
 10
0.0
 20
-2149.453125
 10
0.0
 20
-2159.404296875
 10
0.0
 20
-2169.35546875
 10
0.0
 20
-2179.306640625
 10
0.0
 20
-2189.2578125
 10
0.0
 20
-2199.208984375
 10
0.0
 20
-2209.16015625
 10
0.0
 20
-2219.111328125
 10
0.0
 20
-2229.0625
 10
0.0
 20
-2239.013671875
 10
0.0
 20
-2248.96484375
 10
0.0
 20
-2258.916015625
 10
0.0
 20
-2268.8671875
 10
0.0
 20
-2278.818359375
 10
0.0
 20
-2288.76953125
 10
0.0
 20
-2298.720703125
 10
0.0
 20
-2308.671875
 10
0.0
 20
-2318.623046875
 10
0.0
 20
-2328.57421875
 10
0.0
 20
-2338.525390625
 10
0.0
 20
-2348.4765625
 10
0.0
 20
-2358.427734375
 10
0.0
 20
-2368.37890625
 10
0.0
 20
-2378.330078125
 10
0.0
 20
-2388.28125
 10
0.0
 20
-2398.232421875
 10
0.0
 20
-2408.18359375
 10
0.0
 20
-2418.134765625
 10
0.0
 20
-2428.0859375
 10
0.0
 20
-2438.037109375
 10
0.0
 20
-2447.98828125
 10
0.0
 20
-2457.939453125
 10
0.0
 20
-2467.890625
 10
0.0
 20
-2477.841796875
 10
0.0
 20
-2487.79296875
 10
0.0
 20
-2497.744140625
 10
0.0
 20
-2507.6953125
 10
0.0
 20
-2517.646484375
 10
0.0
 20
-2527.59765625
 10
0.0
 20
-2537.548828125
 10
0.0
 20
-2547.5
 10
0.0
 20
-2557.451171875
 10
0.0
 20
-2567.40234375
 10
0.0
 20
-2577.353515625
 10
0.0
 20
-2587.3046875
 10
0.0
 20
-2597.255859375
 10
0.0
 20
-2607.20703125
 10
0.0
 20
-2617.158203125
 10
0.0
 20
-2627.109375
 10
0.0
 20
-2637.060546875
 10
0.0
 20
-2647.01171875
 10
0.0
 20
-2656.962890625
 10
0.0
 20
-2666.9140625
 10
0.0
 20
-2676.865234375
 10
0.0
 20
-2686.81640625
 10
0.0
 20
-2696.767578125
 10
0.0
 20
-2706.71875
 10
0.0
 20
-2716.669921875
 10
0.0
 20
-2726.62109375
 10
0.0
 20
-2736.572265625
 10
0.0
 20
-2746.5234375
 10
0.0
 20
-2756.474609375
 10
0.0
 20
-2766.42578125
 10
0.0
 20
-2776.376953125
 10
0.0
 20
-2786.328125
 10
0.0
 20
-2796.279296875
 10
0.0
 20
-2806.23046875
 10
0.0
 20
-2816.181640625
 10
0.0
 20
-2826.1328125
 10
0.0
 20
-2836.083984375
 10
0.0
 20
-2846.03515625
 10
0.0
 20
-2855.986328125
 10
0.0
 20
-2865.9375
 10
0.0
 20
-2875.888671875
 10
0.0
 20
-2885.83984375
 10
0.0
 20
-2895.791015625
 10
0.0
 20
-2905.7421875
 10
0.0
 20
-2915.693359375
 10
0.0
 20
-2925.64453125
 10
0.0
 20
-2935.595703125
 10
0.0
 20
-2945.546875
 10
0.0
 20
-2955.498046875
 10
0.0
 20
-2965.44921875
 10
0.0
 20
-2975.400390625
 10
0.0
 20
-2985.3515625
 10
0.0
 20
-2995.302734375
 10
0.0
 20
-3005.25390625
 10
0.0
 20
-3015.205078125
 10
0.0
 20
-3025.15625
 10
0.0
 20
-3035.107421875
 10
0.0
 20
-3045.05859375
 10
0.0
 20
-3055.009765625
 10
0.0
 20
-3064.9609375
 10
0.0
 20
-3074.912109375
 10
0.0
 20
-3084.86328125
 10
0.0
 20
-3094.814453125
 10
0.0
 20
-3104.765625
 10
0.0
 20
-3114.716796875
 10
0.0
 20
-3124.66796875
 10
0.0
 20
-3134.619140625
 10
0.0
 20
-3144.5703125
 10
0.0
 20
-3154.521484375
 10
0.0
 20
-3164.47265625
 10
0.0
 20
-3174.423828125
 10
0.0
 20
-3184.375
 10
0.0
 20
-3194.326171875
 10
0.0
 20
-3204.27734375
 10
0.0
 20
-3214.228515625
 10
0.0
 20
-3224.1796875
 10
0.0
 20
-3234.130859375
 10
0.0
 20
-3244.08203125
 10
0.0
 20
-3254.033203125
 10
0.0
 20
-3263.984375
 10
0.0
 20
-3273.935546875
 10
0.0
 20
-3283.88671875
 10
0.0
 20
-3293.837890625
 10
0.0
 20
-3303.7890625
 10
0.0
 20
-3313.740234375
 10
0.0
 20
-3323.69140625
 10
0.0
 20
-3333.642578125
 10
0.0
 20
-3343.59375
 10
0.0
 20
-3353.544921875
 10
0.0
 20
-3363.49609375
 10
0.0
 20
-3373.447265625
 10
0.0
 20
-3383.3984375
 10
0.0
 20
-3393.349609375
 10
0.0
 20
-3403.30078125
 10
0.0
 20
-3413.251953125
 10
0.0
 20
-3423.203125
 10
0.0
 20
-3433.154296875
 10
0.0
 20
-3443.10546875
 10
0.0
 20
-3453.056640625
 10
0.0
 20
-3463.0078125
 10
0.0
 20
-3472.958984375
 10
0.0
 20
-3482.91015625
 10
0.0
 20
-3492.861328125
 10
0.0
 20
-3502.8125
 10
0.0
 20
-3512.763671875
 10
0.0
 20
-3522.71484375
 10
0.0
 20
-3532.666015625
 10
0.0
 20
-3542.6171875
 10
0.0
 20
-3552.568359375
 10
0.0
 20
-3562.51953125
 10
0.0
 20
-3572.470703125
 10
0.0
 20
-3582.421875
 10
0.0
 20
-3592.373046875
 10
0.0
 20
-3602.32421875
 10
0.0
 20
-3612.275390625
 10
0.0
 20
-3622.2265625
 10
0.0
 20
-3632.177734375
 10
0.0
 20
-3642.12890625
 10
0.0
 20
-3652.080078125
 10
0.0
 20
-3662.03125
 10
0.0
 20
-3671.982421875
 10
0.0
 20
-3681.93359375
 10
0.0
 20
-3691.884765625
 10
0.0
 20
-3701.8359375
 10
0.0
 20
-3711.787109375
 10
0.0
 20
-3721.73828125
 10
0.0
 20
-3731.689453125
 10
0.0
 20
-3741.640625
 10
0.0
 20
-3751.591796875
 10
0.0
 20
-3761.54296875
 10
0.0
 20
-3771.494140625
 10
0.0
 20
-3781.4453125
 10
0.0
 20
-3791.396484375
 10
0.0
 20
-3801.34765625
 10
0.0
 20
-3811.298828125
 10
0.0
 20
-3821.25
 10
0.0
 20
-3831.201171875
 10
0.0
 20
-3841.15234375
 10
0.0
 20
-3851.103515625
 10
0.0
 20
-3861.0546875
 10
0.0
 20
-3871.005859375
 10
0.0
 20
-3880.95703125
 10
0.0
 20
-3890.908203125
 10
0.0
 20
-3900.859375
 10
0.0
 20
-3910.810546875
 10
0.0
 20
-3920.76171875
 10
0.0
 20
-3930.712890625
 10
0.0
 20
-3940.6640625
 10
0.0
 20
-3950.615234375
 10
0.0
 20
-3960.56640625
 10
0.0
 20
-3970.517578125
 10
0.0
 20
-3980.46875
 10
0.0
 20
-3990.419921875
 10
0.0
 20
-4000.37109375
 10
0.0
 20
-4010.322265625
 10
0.0
 20
-4020.2734375
 10
0.0
 20
-4030.224609375
 10
0.0
 20
-4040.17578125
 10
0.0
 20
-4050.126953125
 10
0.0
 20
-4060.078125
 10
0.0
 20
-4070.029296875
 10
0.0
 20
-4079.98046875
 10
0.0
 20
-4089.931640625
 10
0.0
 20
-4099.8828125
 10
0.0
 20
-4109.833984375
 10
0.0
 20
-4119.78515625
 10
0.0
 20
-4129.736328125
 10
0.0
 20
-4139.6875
 10
0.0
 20
-4149.638671875
 10
0.0
 20
-4159.58984375
 10
0.0
 20
-4169.541015625
 10
0.0
 20
-4179.4921875
 10
0.0
 20
-4189.443359375
 10
0.0
 20
-4199.39453125
 10
0.0
 20
-4209.345703125
 10
0.0
 20
-4219.296875
 10
0.0
 20
-4229.248046875
 10
0.0
 20
-4239.19921875
 10
0.0
 20
-4249.150390625
 10
0.0
 20
-4259.1015625
 10
0.0
 20
-4269.052734375
 10
0.0
 20
-4279.00390625
 10
0.0
 20
-4288.955078125
 10
0.0
 20
-4298.90625
 10
0.0
 20
-4308.857421875
 10
0.0
 20
-4318.80859375
 10
0.0
 20
-4328.759765625
 10
0.0
 20
-4338.7109375
 10
0.0
 20
-4348.662109375
 10
0.0
 20
-4358.61328125
 10
0.0
 20
-4368.564453125
 10
0.0
 20
-4378.515625
 10
0.0
 20
-4388.466796875
 10
0.0
 20
-4398.41796875
 10
0.0
 20
-4408.369140625
 10
0.0
 20
-4418.3203125
 10
0.0
 20
-4428.271484375
 10
0.0
 20
-4438.22265625
 10
0.0
 20
-4448.173828125
 10
0.0
 20
-4458.125
 10
0.0
 20
-4468.076171875
 10
0.0
 20
-4478.02734375
 10
0.0
 20
-4487.978515625
 10
0.0
 20
-4497.9296875
 10
0.0
 20
-4507.880859375
 10
0.0
 20
-4517.83203125
 10
0.0
 20
-4527.783203125
 10
0.0
 20
-4537.734375
 10
0.0
 20
-4547.685546875
 10
0.0
 20
-4557.63671875
 10
0.0
 20
-4567.587890625
 10
0.0
 20
-4577.5390625
 10
0.0
 20
-4587.490234375
 10
0.0
 20
-4597.44140625
 10
0.0
 20
-4607.392578125
 10
0.0
 20
-4617.34375
 10
0.0
 20
-4627.294921875
 10
0.0
 20
-4637.24609375
 10
0.0
 20
-4647.197265625
 10
0.0
 20
-4657.1484375
 10
0.0
 20
-4667.099609375
 10
0.0
 20
-4677.05078125
 10
0.0
 20
-4687.001953125
 10
0.0
 20
-4696.953125
 10
0.0
 20
-4706.904296875
 10
0.0
 20
-4716.85546875
 10
0.0
 20
-4726.806640625
 10
0.0
 20
-4736.7578125
 10
0.0
 20
-4746.708984375
 10
0.0
 20
-4756.66015625
 10
0.0
 20
-4766.611328125
 10
0.0
 20
-4776.5625
 10
0.0
 20
-4786.513671875
 10
0.0
 20
-4796.46484375
 10
0.0
 20
-4806.416015625
 10
0.0
 20
-4816.3671875
 10
0.0
 20
-4826.318359375
 10
0.0
 20
-4836.26953125
 10
0.0
 20
-4846.220703125
 10
0.0
 20
-4856.171875
 10
0.0
 20
-4866.123046875
 10
0.0
 20
-4876.07421875
 10
0.0
 20
-4886.025390625
 10
0.0
 20
-4895.9765625
 10
0.0
 20
-4905.927734375
 10
0.0
 20
-4915.87890625
 10
0.0
 20
-4925.830078125
 10
0.0
 20
-4935.78125
 10
0.0
 20
-4945.732421875
 10
0.0
 20
-4955.68359375
 10
0.0
 20
-4965.634765625
 10
0.0
 20
-4975.5859375
 10
0.0
 20
-4985.537109375
 10
0.0
 20
-4995.48828125
 10
0.0
 20
-5005.439453125
 10
0.0
 20
-5015.390625
 10
0.0
 20
-5025.341796875
 10
0.0
 20
-5035.29296875
 10
0.0
 20
-5045.244140625
 10
0.0
 20
-5055.1953125
 10
0.0
 20
-5065.146484375
 10
0.0
 20
-5075.09765625
 10
0.0
 20
-5085.048828125
 10
9.951171875
 20
-5085.048828125
 10
19.90234375
 20
-5085.048828125
 10
29.853515625
 20
-5085.048828125
 10
39.8046875
 20
-5085.048828125
 10
49.755859375
 20
-5085.048828125
 10
59.70703125
 20
-5085.048828125
 10
69.658203125
 20
-5085.048828125
 10
79.609375
 20
-5085.048828125
 10
89.560546875
 20
-5085.048828125
 10
99.51171875
 20
-5085.048828125
 10
109.462890625
 20
-5085.048828125
 10
119.4140625
 20
-5085.048828125
 10
129.365234375
 20
-5085.048828125
 10
139.31640625
 20
-5085.048828125
 10
149.267578125
 20
-5085.048828125
 10
159.21875
 20
-5085.048828125
 10
169.169921875
 20
-5085.048828125
 10
179.12109375
 20
-5085.048828125
 10
189.072265625
 20
-5085.048828125
 10
199.0234375
 20
-5085.048828125
 10
208.974609375
 20
-5085.048828125
 10
218.92578125
 20
-5085.048828125
 10
228.876953125
 20
-5085.048828125
 10
238.828125
 20
-5085.048828125
 10
248.779296875
 20
-5085.048828125
 10
258.73046875
 20
-5085.048828125
 10
268.681640625
 20
-5085.048828125
 10
278.6328125
 20
-5085.048828125
 10
288.583984375
 20
-5085.048828125
 10
298.53515625
 20
-5085.048828125
 10
308.486328125
 20
-5085.048828125
 10
318.4375
 20
-5085.048828125
 10
328.388671875
 20
-5085.048828125
 10
338.33984375
 20
-5085.048828125
 10
348.291015625
 20
-5085.048828125
 10
358.2421875
 20
-5085.048828125
 10
368.193359375
 20
-5085.048828125
 10
378.14453125
 20
-5085.048828125
 10
388.095703125
 20
-5085.048828125
 10
398.046875
 20
-5085.048828125
 10
407.998046875
 20
-5085.048828125
 10
417.94921875
 20
-5085.048828125
 10
427.900390625
 20
-5085.048828125
 10
437.8515625
 20
-5085.048828125
 10
447.802734375
 20
-5085.048828125
 10
457.75390625
 20
-5085.048828125
 10
467.705078125
 20
-5085.048828125
 10
477.65625
 20
-5085.048828125
 10
487.607421875
 20
-5085.048828125
 10
497.55859375
 20
-5085.048828125
 10
507.509765625
 20
-5085.048828125
 10
517.4609375
 20
-5085.048828125
 10
527.412109375
 20
-5085.048828125
 10
537.36328125
 20
-5085.048828125
 10
547.314453125
 20
-5085.048828125
 10
557.265625
 20
-5085.048828125
 10
567.216796875
 20
-5085.048828125
 10
577.16796875
 20
-5085.048828125
 10
587.119140625
 20
-5085.048828125
 10
597.0703125
 20
-5085.048828125
 10
607.021484375
 20
-5085.048828125
 10
616.97265625
 20
-5085.048828125
 10
626.923828125
 20
-5085.048828125
 10
636.875
 20
-5085.048828125
 10
646.826171875
 20
-5085.048828125
 10
656.77734375
 20
-5085.048828125
 10
666.728515625
 20
-5085.048828125
 10
676.6796875
 20
-5085.048828125
 10
686.630859375
 20
-5085.048828125
 10
696.58203125
 20
-5085.048828125
 10
706.533203125
 20
-5085.048828125
 10
716.484375
 20
-5085.048828125
 10
726.435546875
 20
-5085.048828125
 10
736.38671875
 20
-5085.048828125
 10
746.337890625
 20
-5085.048828125
 10
756.2890625
 20
-5085.048828125
 10
766.240234375
 20
-5085.048828125
 10
776.19140625
 20
-5085.048828125
 10
786.142578125
 20
-5085.048828125
 10
796.09375
 20
-5085.048828125
 10
806.044921875
 20
-5085.048828125
 10
815.99609375
 20
-5085.048828125
 10
825.947265625
 20
-5085.048828125
 10
835.8984375
 20
-5085.048828125
 10
845.849609375
 20
-5085.048828125
 10
855.80078125
 20
-5085.048828125
 10
865.751953125
 20
-5085.048828125
 10
875.703125
 20
-5085.048828125
 10
885.654296875
 20
-5085.048828125
 10
895.60546875
 20
-5085.048828125
 10
905.556640625
 20
-5085.048828125
 10
915.5078125
 20
-5085.048828125
 10
925.458984375
 20
-5085.048828125
 10
935.41015625
 20
-5085.048828125
 10
945.361328125
 20
-5085.048828125
 10
955.3125
 20
-5085.048828125
 10
965.263671875
 20
-5085.048828125
 10
975.21484375
 20
-5085.048828125
 10
985.166015625
 20
-5085.048828125
 10
995.1171875
 20
-5085.048828125
 10
1005.068359375
 20
-5085.048828125
 10
1015.01953125
 20
-5085.048828125
 10
1024.970703125
 20
-5085.048828125
 10
1034.921875
 20
-5085.048828125
 10
1044.873046875
 20
-5085.048828125
 10
1054.82421875
 20
-5085.048828125
 10
1064.775390625
 20
-5085.048828125
 10
1074.7265625
 20
-5085.048828125
 10
1084.677734375
 20
-5085.048828125
 10
1094.62890625
 20
-5085.048828125
 10
1104.580078125
 20
-5085.048828125
 10
1114.53125
 20
-5085.048828125
 10
1124.482421875
 20
-5085.048828125
 10
1134.43359375
 20
-5085.048828125
 10
1144.384765625
 20
-5085.048828125
 10
1154.3359375
 20
-5085.048828125
 10
1164.287109375
 20
-5085.048828125
 10
1174.23828125
 20
-5085.048828125
 10
1184.189453125
 20
-5085.048828125
 10
1194.140625
 20
-5085.048828125
 10
1204.091796875
 20
-5085.048828125
 10
1214.04296875
 20
-5085.048828125
 10
1223.994140625
 20
-5085.048828125
 10
1233.9453125
 20
-5085.048828125
 10
1243.896484375
 20
-5085.048828125
 10
1253.84765625
 20
-5085.048828125
 10
1263.798828125
 20
-5085.048828125
 10
1273.75
 20
-5085.048828125
 10
1283.701171875
 20
-5085.048828125
 10
1293.65234375
 20
-5085.048828125
 10
1303.603515625
 20
-5085.048828125
 10
1313.5546875
 20
-5085.048828125
 10
1323.505859375
 20
-5085.048828125
 10
1333.45703125
 20
-5085.048828125
 10
1343.408203125
 20
-5085.048828125
 10
1353.359375
 20
-5085.048828125
 10
1363.310546875
 20
-5085.048828125
 10
1373.26171875
 20
-5085.048828125
 10
1383.212890625
 20
-5085.048828125
 10
1393.1640625
 20
-5085.048828125
 10
1403.115234375
 20
-5085.048828125
 10
1413.06640625
 20
-5085.048828125
 10
1423.017578125
 20
-5085.048828125
 10
1432.96875
 20
-5085.048828125
 10
1442.919921875
 20
-5085.048828125
 10
1452.87109375
 20
-5085.048828125
 10
1462.822265625
 20
-5085.048828125
 10
1472.7734375
 20
-5085.048828125
 10
1482.724609375
 20
-5085.048828125
 10
1492.67578125
 20
-5085.048828125
 10
1502.626953125
 20
-5085.048828125
 10
1512.578125
 20
-5085.048828125
 10
1522.529296875
 20
-5085.048828125
 10
1532.48046875
 20
-5085.048828125
 10
1542.431640625
 20
-5085.048828125
 10
1552.3828125
 20
-5085.048828125
 10
1562.333984375
 20
-5085.048828125
 10
1572.28515625
 20
-5085.048828125
 10
1582.236328125
 20
-5085.048828125
 10
1592.1875
 20
-5085.048828125
 10
1602.138671875
 20
-5085.048828125
 10
1612.08984375
 20
-5085.048828125
 10
1622.041015625
 20
-5085.048828125
 10
1631.9921875
 20
-5085.048828125
 10
1641.943359375
 20
-5085.048828125
 10
1651.89453125
 20
-5085.048828125
 10
1661.845703125
 20
-5085.048828125
 10
1671.796875
 20
-5085.048828125
 10
1681.748046875
 20
-5085.048828125
 10
1691.69921875
 20
-5085.048828125
 10
1701.650390625
 20
-5085.048828125
 10
1711.6015625
 20
-5085.048828125
 10
1721.552734375
 20
-5085.048828125
 10
1731.50390625
 20
-5085.048828125
 10
1741.455078125
 20
-5085.048828125
 10
1751.40625
 20
-5085.048828125
 10
1761.357421875
 20
-5085.048828125
 10
1771.30859375
 20
-5085.048828125
 10
1781.259765625
 20
-5085.048828125
 10
1791.2109375
 20
-5085.048828125
 10
1801.162109375
 20
-5085.048828125
 10
1811.11328125
 20
-5085.048828125
 10
1821.064453125
 20
-5085.048828125
 10
1831.015625
 20
-5085.048828125
 10
1840.966796875
 20
-5085.048828125
 10
1850.91796875
 20
-5085.048828125
 10
1860.869140625
 20
-5085.048828125
 10
1870.8203125
 20
-5085.048828125
 10
1880.771484375
 20
-5085.048828125
 10
1890.72265625
 20
-5085.048828125
 10
1900.673828125
 20
-5085.048828125
 10
1910.625
 20
-5085.048828125
 10
1920.576171875
 20
-5085.048828125
 10
1930.52734375
 20
-5085.048828125
 10
1940.478515625
 20
-5085.048828125
 10
1950.4296875
 20
-5085.048828125
 10
1960.380859375
 20
-5085.048828125
 10
1970.33203125
 20
-5085.048828125
 10
1980.283203125
 20
-5085.048828125
 10
1990.234375
 20
-5085.048828125
 10
2000.185546875
 20
-5085.048828125
 10
2010.13671875
 20
-5085.048828125
 10
2020.087890625
 20
-5085.048828125
 10
2030.0390625
 20
-5085.048828125
 10
2039.990234375
 20
-5085.048828125
 10
2049.94140625
 20
-5085.048828125
 10
2059.892578125
 20
-5085.048828125
 10
2069.84375
 20
-5085.048828125
 10
2079.794921875
 20
-5085.048828125
 10
2089.74609375
 20
-5085.048828125
 10
2099.697265625
 20
-5085.048828125
 10
2109.6484375
 20
-5085.048828125
 10
2119.599609375
 20
-5085.048828125
 10
2129.55078125
 20
-5085.048828125
 10
2139.501953125
 20
-5085.048828125
 10
2149.453125
 20
-5085.048828125
 10
2159.404296875
 20
-5085.048828125
 10
2169.35546875
 20
-5085.048828125
 10
2179.306640625
 20
-5085.048828125
 10
2189.2578125
 20
-5085.048828125
 10
2199.208984375
 20
-5085.048828125
 10
2209.16015625
 20
-5085.048828125
 10
2219.111328125
 20
-5085.048828125
 10
2229.0625
 20
-5085.048828125
 10
2239.013671875
 20
-5085.048828125
 10
2248.96484375
 20
-5085.048828125
 10
2258.916015625
 20
-5085.048828125
 10
2268.8671875
 20
-5085.048828125
 10
2278.818359375
 20
-5085.048828125
 10
2288.76953125
 20
-5085.048828125
 10
2298.720703125
 20
-5085.048828125
 10
2308.671875
 20
-5085.048828125
 10
2318.623046875
 20
-5085.048828125
 10
2328.57421875
 20
-5085.048828125
 10
2338.525390625
 20
-5085.048828125
 10
2348.4765625
 20
-5085.048828125
 10
2358.427734375
 20
-5085.048828125
 10
2368.37890625
 20
-5085.048828125
 10
2378.330078125
 20
-5085.048828125
 10
2388.28125
 20
-5085.048828125
 10
2398.232421875
 20
-5085.048828125
 10
2408.18359375
 20
-5085.048828125
 10
2418.134765625
 20
-5085.048828125
 10
2428.0859375
 20
-5085.048828125
 10
2438.037109375
 20
-5085.048828125
 10
2447.98828125
 20
-5085.048828125
 10
2457.939453125
 20
-5085.048828125
 10
2467.890625
 20
-5085.048828125
 10
2477.841796875
 20
-5085.048828125
 10
2487.79296875
 20
-5085.048828125
 10
2497.744140625
 20
-5085.048828125
 10
2507.6953125
 20
-5085.048828125
 10
2517.646484375
 20
-5085.048828125
 10
2527.59765625
 20
-5085.048828125
 10
2537.548828125
 20
-5085.048828125
 10
2547.5
 20
-5085.048828125
 10
2557.451171875
 20
-5085.048828125
 10
2567.40234375
 20
-5085.048828125
 10
2577.353515625
 20
-5085.048828125
 10
2587.3046875
 20
-5085.048828125
 10
2597.255859375
 20
-5085.048828125
 10
2607.20703125
 20
-5085.048828125
 10
2617.158203125
 20
-5085.048828125
 10
2627.109375
 20
-5085.048828125
 10
2637.060546875
 20
-5085.048828125
 10
2647.01171875
 20
-5085.048828125
 10
2656.962890625
 20
-5085.048828125
 10
2666.9140625
 20
-5085.048828125
 10
2676.865234375
 20
-5085.048828125
 10
2686.81640625
 20
-5085.048828125
 10
2696.767578125
 20
-5085.048828125
 10
2706.71875
 20
-5085.048828125
 10
2716.669921875
 20
-5085.048828125
 10
2726.62109375
 20
-5085.048828125
 10
2736.572265625
 20
-5085.048828125
 10
2746.5234375
 20
-5085.048828125
 10
2756.474609375
 20
-5085.048828125
 10
2766.42578125
 20
-5085.048828125
 10
2776.376953125
 20
-5085.048828125
 10
2786.328125
 20
-5085.048828125
 10
2796.279296875
 20
-5085.048828125
 10
2806.23046875
 20
-5085.048828125
 10
2816.181640625
 20
-5085.048828125
 10
2826.1328125
 20
-5085.048828125
 10
2836.083984375
 20
-5085.048828125
 10
2846.03515625
 20
-5085.048828125
 10
2855.986328125
 20
-5085.048828125
 10
2865.9375
 20
-5085.048828125
 10
2875.888671875
 20
-5085.048828125
 10
2885.83984375
 20
-5085.048828125
 10
2895.791015625
 20
-5085.048828125
 10
2905.7421875
 20
-5085.048828125
 10
2915.693359375
 20
-5085.048828125
 10
2925.64453125
 20
-5085.048828125
 10
2935.595703125
 20
-5085.048828125
 10
2945.546875
 20
-5085.048828125
 10
2955.498046875
 20
-5085.048828125
 10
2965.44921875
 20
-5085.048828125
 10
2975.400390625
 20
-5085.048828125
 10
2985.3515625
 20
-5085.048828125
 10
2995.302734375
 20
-5085.048828125
 10
3005.25390625
 20
-5085.048828125
 10
3015.205078125
 20
-5085.048828125
 10
3025.15625
 20
-5085.048828125
 10
3035.107421875
 20
-5085.048828125
 10
3045.05859375
 20
-5085.048828125
 10
3055.009765625
 20
-5085.048828125
 10
3064.9609375
 20
-5085.048828125
 10
3074.912109375
 20
-5085.048828125
 10
3084.86328125
 20
-5085.048828125
 10
3094.814453125
 20
-5085.048828125
 10
3104.765625
 20
-5085.048828125
 10
3114.716796875
 20
-5085.048828125
 10
3124.66796875
 20
-5085.048828125
 10
3134.619140625
 20
-5085.048828125
 10
3144.5703125
 20
-5085.048828125
 10
3154.521484375
 20
-5085.048828125
 10
3164.47265625
 20
-5085.048828125
 10
3174.423828125
 20
-5085.048828125
 10
3184.375
 20
-5085.048828125
 10
3194.326171875
 20
-5085.048828125
 10
3204.27734375
 20
-5085.048828125
 10
3214.228515625
 20
-5085.048828125
 10
3224.1796875
 20
-5085.048828125
 10
3234.130859375
 20
-5085.048828125
 10
3244.08203125
 20
-5085.048828125
 10
3254.033203125
 20
-5085.048828125
 10
3263.984375
 20
-5085.048828125
 10
3273.935546875
 20
-5085.048828125
 10
3283.88671875
 20
-5085.048828125
 10
3293.837890625
 20
-5085.048828125
 10
3303.7890625
 20
-5085.048828125
 10
3313.740234375
 20
-5085.048828125
 10
3323.69140625
 20
-5085.048828125
 10
3333.642578125
 20
-5085.048828125
 10
3343.59375
 20
-5085.048828125
 10
3353.544921875
 20
-5085.048828125
 10
3363.49609375
 20
-5085.048828125
 10
3373.447265625
 20
-5085.048828125
 10
3383.3984375
 20
-5085.048828125
 10
3393.349609375
 20
-5085.048828125
 10
3403.30078125
 20
-5085.048828125
 10
3413.251953125
 20
-5085.048828125
 10
3423.203125
 20
-5085.048828125
 10
3433.154296875
 20
-5085.048828125
 10
3443.10546875
 20
-5085.048828125
 10
3453.056640625
 20
-5085.048828125
 10
3463.0078125
 20
-5085.048828125
 10
3472.958984375
 20
-5085.048828125
 10
3482.91015625
 20
-5085.048828125
 10
3492.861328125
 20
-5085.048828125
 10
3502.8125
 20
-5085.048828125
 10
3512.763671875
 20
-5085.048828125
 10
3522.71484375
 20
-5085.048828125
 10
3532.666015625
 20
-5085.048828125
 10
3542.6171875
 20
-5085.048828125
 10
3552.568359375
 20
-5085.048828125
 10
3562.51953125
 20
-5085.048828125
 10
3572.470703125
 20
-5085.048828125
 10
3582.421875
 20
-5085.048828125
 10
3592.373046875
 20
-5085.048828125
 10
3602.32421875
 20
-5085.048828125
 10
3612.275390625
 20
-5085.048828125
 10
3622.2265625
 20
-5085.048828125
 10
3632.177734375
 20
-5085.048828125
 10
3642.12890625
 20
-5085.048828125
 10
3652.080078125
 20
-5085.048828125
 10
3662.03125
 20
-5085.048828125
 10
3671.982421875
 20
-5085.048828125
 10
3681.93359375
 20
-5085.048828125
 10
3691.884765625
 20
-5085.048828125
 10
3701.8359375
 20
-5085.048828125
 10
3711.787109375
 20
-5085.048828125
 10
3721.73828125
 20
-5085.048828125
 10
3731.689453125
 20
-5085.048828125
 10
3741.640625
 20
-5085.048828125
 10
3751.591796875
 20
-5085.048828125
 10
3761.54296875
 20
-5085.048828125
 10
3771.494140625
 20
-5085.048828125
 10
3781.4453125
 20
-5085.048828125
 10
3791.396484375
 20
-5085.048828125
 10
3801.34765625
 20
-5085.048828125
 10
3811.298828125
 20
-5085.048828125
 10
3821.25
 20
-5085.048828125
 10
3831.201171875
 20
-5085.048828125
 10
3841.15234375
 20
-5085.048828125
 10
3851.103515625
 20
-5085.048828125
 10
3861.0546875
 20
-5085.048828125
 10
3871.005859375
 20
-5085.048828125
 10
3880.95703125
 20
-5085.048828125
 10
3890.908203125
 20
-5085.048828125
 10
3900.859375
 20
-5085.048828125
 10
3910.810546875
 20
-5085.048828125
 10
3920.76171875
 20
-5085.048828125
 10
3930.712890625
 20
-5085.048828125
 10
3940.6640625
 20
-5085.048828125
 10
3950.615234375
 20
-5085.048828125
 10
3960.56640625
 20
-5085.048828125
 10
3970.517578125
 20
-5085.048828125
 10
3980.46875
 20
-5085.048828125
 10
3990.419921875
 20
-5085.048828125
 10
4000.37109375
 20
-5085.048828125
 10
4010.322265625
 20
-5085.048828125
 10
4020.2734375
 20
-5085.048828125
 10
4030.224609375
 20
-5085.048828125
 10
4040.17578125
 20
-5085.048828125
 10
4050.126953125
 20
-5085.048828125
 10
4060.078125
 20
-5085.048828125
 10
4070.029296875
 20
-5085.048828125
 10
4079.98046875
 20
-5085.048828125
 10
4089.931640625
 20
-5085.048828125
 10
4099.8828125
 20
-5085.048828125
 10
4109.833984375
 20
-5085.048828125
 10
4119.78515625
 20
-5085.048828125
 10
4129.736328125
 20
-5085.048828125
 10
4139.6875
 20
-5085.048828125
 10
4149.638671875
 20
-5085.048828125
 10
4159.58984375
 20
-5085.048828125
 10
4169.541015625
 20
-5085.048828125
 10
4179.4921875
 20
-5085.048828125
 10
4189.443359375
 20
-5085.048828125
 10
4199.39453125
 20
-5085.048828125
 10
4209.345703125
 20
-5085.048828125
 10
4219.296875
 20
-5085.048828125
 10
4229.248046875
 20
-5085.048828125
 10
4239.19921875
 20
-5085.048828125
 10
4249.150390625
 20
-5085.048828125
 10
4259.1015625
 20
-5085.048828125
 10
4269.052734375
 20
-5085.048828125
 10
4279.00390625
 20
-5085.048828125
 10
4288.955078125
 20
-5085.048828125
 10
4298.90625
 20
-5085.048828125
 10
4308.857421875
 20
-5085.048828125
 10
4318.80859375
 20
-5085.048828125
 10
4328.759765625
 20
-5085.048828125
 10
4338.7109375
 20
-5085.048828125
 10
4348.662109375
 20
-5085.048828125
 10
4358.61328125
 20
-5085.048828125
 10
4368.564453125
 20
-5085.048828125
 10
4378.515625
 20
-5085.048828125
 10
4388.466796875
 20
-5085.048828125
 10
4398.41796875
 20
-5085.048828125
 10
4408.369140625
 20
-5085.048828125
 10
4418.3203125
 20
-5085.048828125
 10
4428.271484375
 20
-5085.048828125
 10
4438.22265625
 20
-5085.048828125
 10
4448.173828125
 20
-5085.048828125
 10
4458.125
 20
-5085.048828125
 10
4468.076171875
 20
-5085.048828125
 10
4478.02734375
 20
-5085.048828125
 10
4487.978515625
 20
-5085.048828125
 10
4497.9296875
 20
-5085.048828125
 10
4507.880859375
 20
-5085.048828125
 10
4517.83203125
 20
-5085.048828125
 10
4527.783203125
 20
-5085.048828125
 10
4537.734375
 20
-5085.048828125
 10
4547.685546875
 20
-5085.048828125
 10
4557.63671875
 20
-5085.048828125
 10
4567.587890625
 20
-5085.048828125
 10
4577.5390625
 20
-5085.048828125
 10
4587.490234375
 20
-5085.048828125
 10
4597.44140625
 20
-5085.048828125
 10
4607.392578125
 20
-5085.048828125
 10
4617.34375
 20
-5085.048828125
 10
4627.294921875
 20
-5085.048828125
 10
4637.24609375
 20
-5085.048828125
 10
4647.197265625
 20
-5085.048828125
 10
4657.1484375
 20
-5085.048828125
 10
4667.099609375
 20
-5085.048828125
 10
4677.05078125
 20
-5085.048828125
 10
4687.001953125
 20
-5085.048828125
 10
4696.953125
 20
-5085.048828125
 10
4706.904296875
 20
-5085.048828125
 10
4716.85546875
 20
-5085.048828125
 10
4726.806640625
 20
-5085.048828125
 10
4736.7578125
 20
-5085.048828125
 10
4746.708984375
 20
-5085.048828125
 10
4756.66015625
 20
-5085.048828125
 10
4766.611328125
 20
-5085.048828125
 10
4776.5625
 20
-5085.048828125
 10
4786.513671875
 20
-5085.048828125
 10
4796.46484375
 20
-5085.048828125
 10
4806.416015625
 20
-5085.048828125
 10
4816.3671875
 20
-5085.048828125
 10
4826.318359375
 20
-5085.048828125
 10
4836.26953125
 20
-5085.048828125
 10
4846.220703125
 20
-5085.048828125
 10
4856.171875
 20
-5085.048828125
 10
4866.123046875
 20
-5085.048828125
 10
4876.07421875
 20
-5085.048828125
 10
4886.025390625
 20
-5085.048828125
 10
4895.9765625
 20
-5085.048828125
 10
4905.927734375
 20
-5085.048828125
 10
4915.87890625
 20
-5085.048828125
 10
4925.830078125
 20
-5085.048828125
 10
4935.78125
 20
-5085.048828125
 10
4945.732421875
 20
-5085.048828125
 10
4955.68359375
 20
-5085.048828125
 10
4965.634765625
 20
-5085.048828125
 10
4975.5859375
 20
-5085.048828125
 10
4985.537109375
 20
-5085.048828125
 10
4995.48828125
 20
-5085.048828125
 10
5005.439453125
 20
-5085.048828125
 10
5015.390625
 20
-5085.048828125
 10
5025.341796875
 20
-5085.048828125
 10
5035.29296875
 20
-5085.048828125
 10
5045.244140625
 20
-5085.048828125
 10
5055.1953125
 20
-5085.048828125
 10
5065.146484375
 20
-5085.048828125
 10
5075.09765625
 20
-5085.048828125
 10
5085.048828125
 20
-5085.048828125
 10
5085.048828125
 20
-5075.09765625
 10
5085.048828125
 20
-5065.146484375
 10
5085.048828125
 20
-5055.1953125
 10
5085.048828125
 20
-5045.244140625
 10
5085.048828125
 20
-5035.29296875
 10
5085.048828125
 20
-5025.341796875
 10
5085.048828125
 20
-5015.390625
 10
5085.048828125
 20
-5005.439453125
 10
5085.048828125
 20
-4995.48828125
 10
5085.048828125
 20
-4985.537109375
 10
5085.048828125
 20
-4975.5859375
 10
5085.048828125
 20
-4965.634765625
 10
5085.048828125
 20
-4955.68359375
 10
5085.048828125
 20
-4945.732421875
 10
5085.048828125
 20
-4935.78125
 10
5085.048828125
 20
-4925.830078125
 10
5085.048828125
 20
-4915.87890625
 10
5085.048828125
 20
-4905.927734375
 10
5085.048828125
 20
-4895.9765625
 10
5085.048828125
 20
-4886.025390625
 10
5085.048828125
 20
-4876.07421875
 10
5085.048828125
 20
-4866.123046875
 10
5085.048828125
 20
-4856.171875
 10
5085.048828125
 20
-4846.220703125
 10
5085.048828125
 20
-4836.26953125
 10
5085.048828125
 20
-4826.318359375
 10
5085.048828125
 20
-4816.3671875
 10
5085.048828125
 20
-4806.416015625
 10
5085.048828125
 20
-4796.46484375
 10
5085.048828125
 20
-4786.513671875
 10
5085.048828125
 20
-4776.5625
 10
5085.048828125
 20
-4766.611328125
 10
5085.048828125
 20
-4756.66015625
 10
5085.048828125
 20
-4746.708984375
 10
5085.048828125
 20
-4736.7578125
 10
5085.048828125
 20
-4726.806640625
 10
5085.048828125
 20
-4716.85546875
 10
5085.048828125
 20
-4706.904296875
 10
5085.048828125
 20
-4696.953125
 10
5085.048828125
 20
-4687.001953125
 10
5085.048828125
 20
-4677.05078125
 10
5085.048828125
 20
-4667.099609375
 10
5085.048828125
 20
-4657.1484375
 10
5085.048828125
 20
-4647.197265625
 10
5085.048828125
 20
-4637.24609375
 10
5085.048828125
 20
-4627.294921875
 10
5085.048828125
 20
-4617.34375
 10
5085.048828125
 20
-4607.392578125
 10
5085.048828125
 20
-4597.44140625
 10
5085.048828125
 20
-4587.490234375
 10
5085.048828125
 20
-4577.5390625
 10
5085.048828125
 20
-4567.587890625
 10
5085.048828125
 20
-4557.63671875
 10
5085.048828125
 20
-4547.685546875
 10
5085.048828125
 20
-4537.734375
 10
5085.048828125
 20
-4527.783203125
 10
5085.048828125
 20
-4517.83203125
 10
5085.048828125
 20
-4507.880859375
 10
5085.048828125
 20
-4497.9296875
 10
5085.048828125
 20
-4487.978515625
 10
5085.048828125
 20
-4478.02734375
 10
5085.048828125
 20
-4468.076171875
 10
5085.048828125
 20
-4458.125
 10
5085.048828125
 20
-4448.173828125
 10
5085.048828125
 20
-4438.22265625
 10
5085.048828125
 20
-4428.271484375
 10
5085.048828125
 20
-4418.3203125
 10
5085.048828125
 20
-4408.369140625
 10
5085.048828125
 20
-4398.41796875
 10
5085.048828125
 20
-4388.466796875
 10
5085.048828125
 20
-4378.515625
 10
5085.048828125
 20
-4368.564453125
 10
5085.048828125
 20
-4358.61328125
 10
5085.048828125
 20
-4348.662109375
 10
5085.048828125
 20
-4338.7109375
 10
5085.048828125
 20
-4328.759765625
 10
5085.048828125
 20
-4318.80859375
 10
5085.048828125
 20
-4308.857421875
 10
5085.048828125
 20
-4298.90625
 10
5085.048828125
 20
-4288.955078125
 10
5085.048828125
 20
-4279.00390625
 10
5085.048828125
 20
-4269.052734375
 10
5085.048828125
 20
-4259.1015625
 10
5085.048828125
 20
-4249.150390625
 10
5085.048828125
 20
-4239.19921875
 10
5085.048828125
 20
-4229.248046875
 10
5085.048828125
 20
-4219.296875
 10
5085.048828125
 20
-4209.345703125
 10
5085.048828125
 20
-4199.39453125
 10
5085.048828125
 20
-4189.443359375
 10
5085.048828125
 20
-4179.4921875
 10
5085.048828125
 20
-4169.541015625
 10
5085.048828125
 20
-4159.58984375
 10
5085.048828125
 20
-4149.638671875
 10
5085.048828125
 20
-4139.6875
 10
5085.048828125
 20
-4129.736328125
 10
5085.048828125
 20
-4119.78515625
 10
5085.048828125
 20
-4109.833984375
 10
5085.048828125
 20
-4099.8828125
 10
5085.048828125
 20
-4089.931640625
 10
5085.048828125
 20
-4079.98046875
 10
5085.048828125
 20
-4070.029296875
 10
5085.048828125
 20
-4060.078125
 10
5085.048828125
 20
-4050.126953125
 10
5085.048828125
 20
-4040.17578125
 10
5085.048828125
 20
-4030.224609375
 10
5085.048828125
 20
-4020.2734375
 10
5085.048828125
 20
-4010.322265625
 10
5085.048828125
 20
-4000.37109375
 10
5085.048828125
 20
-3990.419921875
 10
5085.048828125
 20
-3980.46875
 10
5085.048828125
 20
-3970.517578125
 10
5085.048828125
 20
-3960.56640625
 10
5085.048828125
 20
-3950.615234375
 10
5085.048828125
 20
-3940.6640625
 10
5085.048828125
 20
-3930.712890625
 10
5085.048828125
 20
-3920.76171875
 10
5085.048828125
 20
-3910.810546875
 10
5085.048828125
 20
-3900.859375
 10
5085.048828125
 20
-3890.908203125
 10
5085.048828125
 20
-3880.95703125
 10
5085.048828125
 20
-3871.005859375
 10
5085.048828125
 20
-3861.0546875
 10
5085.048828125
 20
-3851.103515625
 10
5085.048828125
 20
-3841.15234375
 10
5085.048828125
 20
-3831.201171875
 10
5085.048828125
 20
-3821.25
 10
5085.048828125
 20
-3811.298828125
 10
5085.048828125
 20
-3801.34765625
 10
5085.048828125
 20
-3791.396484375
 10
5085.048828125
 20
-3781.4453125
 10
5085.048828125
 20
-3771.494140625
 10
5085.048828125
 20
-3761.54296875
 10
5085.048828125
 20
-3751.591796875
 10
5085.048828125
 20
-3741.640625
 10
5085.048828125
 20
-3731.689453125
 10
5085.048828125
 20
-3721.73828125
 10
5085.048828125
 20
-3711.787109375
 10
5085.048828125
 20
-3701.8359375
 10
5085.048828125
 20
-3691.884765625
 10
5085.048828125
 20
-3681.93359375
 10
5085.048828125
 20
-3671.982421875
 10
5085.048828125
 20
-3662.03125
 10
5085.048828125
 20
-3652.080078125
 10
5085.048828125
 20
-3642.12890625
 10
5085.048828125
 20
-3632.177734375
 10
5085.048828125
 20
-3622.2265625
 10
5085.048828125
 20
-3612.275390625
 10
5085.048828125
 20
-3602.32421875
 10
5085.048828125
 20
-3592.373046875
 10
5085.048828125
 20
-3582.421875
 10
5085.048828125
 20
-3572.470703125
 10
5085.048828125
 20
-3562.51953125
 10
5085.048828125
 20
-3552.568359375
 10
5085.048828125
 20
-3542.6171875
 10
5085.048828125
 20
-3532.666015625
 10
5085.048828125
 20
-3522.71484375
 10
5085.048828125
 20
-3512.763671875
 10
5085.048828125
 20
-3502.8125
 10
5085.048828125
 20
-3492.861328125
 10
5085.048828125
 20
-3482.91015625
 10
5085.048828125
 20
-3472.958984375
 10
5085.048828125
 20
-3463.0078125
 10
5085.048828125
 20
-3453.056640625
 10
5085.048828125
 20
-3443.10546875
 10
5085.048828125
 20
-3433.154296875
 10
5085.048828125
 20
-3423.203125
 10
5085.048828125
 20
-3413.251953125
 10
5085.048828125
 20
-3403.30078125
 10
5085.048828125
 20
-3393.349609375
 10
5085.048828125
 20
-3383.3984375
 10
5085.048828125
 20
-3373.447265625
 10
5085.048828125
 20
-3363.49609375
 10
5085.048828125
 20
-3353.544921875
 10
5085.048828125
 20
-3343.59375
 10
5085.048828125
 20
-3333.642578125
 10
5085.048828125
 20
-3323.69140625
 10
5085.048828125
 20
-3313.740234375
 10
5085.048828125
 20
-3303.7890625
 10
5085.048828125
 20
-3293.837890625
 10
5085.048828125
 20
-3283.88671875
 10
5085.048828125
 20
-3273.935546875
 10
5085.048828125
 20
-3263.984375
 10
5085.048828125
 20
-3254.033203125
 10
5085.048828125
 20
-3244.08203125
 10
5085.048828125
 20
-3234.130859375
 10
5085.048828125
 20
-3224.1796875
 10
5085.048828125
 20
-3214.228515625
 10
5085.048828125
 20
-3204.27734375
 10
5085.048828125
 20
-3194.326171875
 10
5085.048828125
 20
-3184.375
 10
5085.048828125
 20
-3174.423828125
 10
5085.048828125
 20
-3164.47265625
 10
5085.048828125
 20
-3154.521484375
 10
5085.048828125
 20
-3144.5703125
 10
5085.048828125
 20
-3134.619140625
 10
5085.048828125
 20
-3124.66796875
 10
5085.048828125
 20
-3114.716796875
 10
5085.048828125
 20
-3104.765625
 10
5085.048828125
 20
-3094.814453125
 10
5085.048828125
 20
-3084.86328125
 10
5085.048828125
 20
-3074.912109375
 10
5085.048828125
 20
-3064.9609375
 10
5085.048828125
 20
-3055.009765625
 10
5085.048828125
 20
-3045.05859375
 10
5085.048828125
 20
-3035.107421875
 10
5085.048828125
 20
-3025.15625
 10
5085.048828125
 20
-3015.205078125
 10
5085.048828125
 20
-3005.25390625
 10
5085.048828125
 20
-2995.302734375
 10
5085.048828125
 20
-2985.3515625
 10
5085.048828125
 20
-2975.400390625
 10
5085.048828125
 20
-2965.44921875
 10
5085.048828125
 20
-2955.498046875
 10
5085.048828125
 20
-2945.546875
 10
5085.048828125
 20
-2935.595703125
 10
5085.048828125
 20
-2925.64453125
 10
5085.048828125
 20
-2915.693359375
 10
5085.048828125
 20
-2905.7421875
 10
5085.048828125
 20
-2895.791015625
 10
5085.048828125
 20
-2885.83984375
 10
5085.048828125
 20
-2875.888671875
 10
5085.048828125
 20
-2865.9375
 10
5085.048828125
 20
-2855.986328125
 10
5085.048828125
 20
-2846.03515625
 10
5085.048828125
 20
-2836.083984375
 10
5085.048828125
 20
-2826.1328125
 10
5085.048828125
 20
-2816.181640625
 10
5085.048828125
 20
-2806.23046875
 10
5085.048828125
 20
-2796.279296875
 10
5085.048828125
 20
-2786.328125
 10
5085.048828125
 20
-2776.376953125
 10
5085.048828125
 20
-2766.42578125
 10
5085.048828125
 20
-2756.474609375
 10
5085.048828125
 20
-2746.5234375
 10
5085.048828125
 20
-2736.572265625
 10
5085.048828125
 20
-2726.62109375
 10
5085.048828125
 20
-2716.669921875
 10
5085.048828125
 20
-2706.71875
 10
5085.048828125
 20
-2696.767578125
 10
5085.048828125
 20
-2686.81640625
 10
5085.048828125
 20
-2676.865234375
 10
5085.048828125
 20
-2666.9140625
 10
5085.048828125
 20
-2656.962890625
 10
5085.048828125
 20
-2647.01171875
 10
5085.048828125
 20
-2637.060546875
 10
5085.048828125
 20
-2627.109375
 10
5085.048828125
 20
-2617.158203125
 10
5085.048828125
 20
-2607.20703125
 10
5085.048828125
 20
-2597.255859375
 10
5085.048828125
 20
-2587.3046875
 10
5085.048828125
 20
-2577.353515625
 10
5085.048828125
 20
-2567.40234375
 10
5085.048828125
 20
-2557.451171875
 10
5085.048828125
 20
-2547.5
 10
5085.048828125
 20
-2537.548828125
 10
5085.048828125
 20
-2527.59765625
 10
5085.048828125
 20
-2517.646484375
 10
5085.048828125
 20
-2507.6953125
 10
5085.048828125
 20
-2497.744140625
 10
5085.048828125
 20
-2487.79296875
 10
5085.048828125
 20
-2477.841796875
 10
5085.048828125
 20
-2467.890625
 10
5085.048828125
 20
-2457.939453125
 10
5085.048828125
 20
-2447.98828125
 10
5085.048828125
 20
-2438.037109375
 10
5085.048828125
 20
-2428.0859375
 10
5085.048828125
 20
-2418.134765625
 10
5085.048828125
 20
-2408.18359375
 10
5085.048828125
 20
-2398.232421875
 10
5085.048828125
 20
-2388.28125
 10
5085.048828125
 20
-2378.330078125
 10
5085.048828125
 20
-2368.37890625
 10
5085.048828125
 20
-2358.427734375
 10
5085.048828125
 20
-2348.4765625
 10
5085.048828125
 20
-2338.525390625
 10
5085.048828125
 20
-2328.57421875
 10
5085.048828125
 20
-2318.623046875
 10
5085.048828125
 20
-2308.671875
 10
5085.048828125
 20
-2298.720703125
 10
5085.048828125
 20
-2288.76953125
 10
5085.048828125
 20
-2278.818359375
 10
5085.048828125
 20
-2268.8671875
 10
5085.048828125
 20
-2258.916015625
 10
5085.048828125
 20
-2248.96484375
 10
5085.048828125
 20
-2239.013671875
 10
5085.048828125
 20
-2229.0625
 10
5085.048828125
 20
-2219.111328125
 10
5085.048828125
 20
-2209.16015625
 10
5085.048828125
 20
-2199.208984375
 10
5085.048828125
 20
-2189.2578125
 10
5085.048828125
 20
-2179.306640625
 10
5085.048828125
 20
-2169.35546875
 10
5085.048828125
 20
-2159.404296875
 10
5085.048828125
 20
-2149.453125
 10
5085.048828125
 20
-2139.501953125
 10
5085.048828125
 20
-2129.55078125
 10
5085.048828125
 20
-2119.599609375
 10
5085.048828125
 20
-2109.6484375
 10
5085.048828125
 20
-2099.697265625
 10
5085.048828125
 20
-2089.74609375
 10
5085.048828125
 20
-2079.794921875
 10
5085.048828125
 20
-2069.84375
 10
5085.048828125
 20
-2059.892578125
 10
5085.048828125
 20
-2049.94140625
 10
5085.048828125
 20
-2039.990234375
 10
5085.048828125
 20
-2030.0390625
 10
5085.048828125
 20
-2020.087890625
 10
5085.048828125
 20
-2010.13671875
 10
5085.048828125
 20
-2000.185546875
 10
5085.048828125
 20
-1990.234375
 10
5085.048828125
 20
-1980.283203125
 10
5085.048828125
 20
-1970.33203125
 10
5085.048828125
 20
-1960.380859375
 10
5085.048828125
 20
-1950.4296875
 10
5085.048828125
 20
-1940.478515625
 10
5085.048828125
 20
-1930.52734375
 10
5085.048828125
 20
-1920.576171875
 10
5085.048828125
 20
-1910.625
 10
5085.048828125
 20
-1900.673828125
 10
5085.048828125
 20
-1890.72265625
 10
5085.048828125
 20
-1880.771484375
 10
5085.048828125
 20
-1870.8203125
 10
5085.048828125
 20
-1860.869140625
 10
5085.048828125
 20
-1850.91796875
 10
5085.048828125
 20
-1840.966796875
 10
5085.048828125
 20
-1831.015625
 10
5085.048828125
 20
-1821.064453125
 10
5085.048828125
 20
-1811.11328125
 10
5085.048828125
 20
-1801.162109375
 10
5085.048828125
 20
-1791.2109375
 10
5085.048828125
 20
-1781.259765625
 10
5085.048828125
 20
-1771.30859375
 10
5085.048828125
 20
-1761.357421875
 10
5085.048828125
 20
-1751.40625
 10
5085.048828125
 20
-1741.455078125
 10
5085.048828125
 20
-1731.50390625
 10
5085.048828125
 20
-1721.552734375
 10
5085.048828125
 20
-1711.6015625
 10
5085.048828125
 20
-1701.650390625
 10
5085.048828125
 20
-1691.69921875
 10
5085.048828125
 20
-1681.748046875
 10
5085.048828125
 20
-1671.796875
 10
5085.048828125
 20
-1661.845703125
 10
5085.048828125
 20
-1651.89453125
 10
5085.048828125
 20
-1641.943359375
 10
5085.048828125
 20
-1631.9921875
 10
5085.048828125
 20
-1622.041015625
 10
5085.048828125
 20
-1612.08984375
 10
5085.048828125
 20
-1602.138671875
 10
5085.048828125
 20
-1592.1875
 10
5085.048828125
 20
-1582.236328125
 10
5085.048828125
 20
-1572.28515625
 10
5085.048828125
 20
-1562.333984375
 10
5085.048828125
 20
-1552.3828125
 10
5085.048828125
 20
-1542.431640625
 10
5085.048828125
 20
-1532.48046875
 10
5085.048828125
 20
-1522.529296875
 10
5085.048828125
 20
-1512.578125
 10
5085.048828125
 20
-1502.626953125
 10
5085.048828125
 20
-1492.67578125
 10
5085.048828125
 20
-1482.724609375
 10
5085.048828125
 20
-1472.7734375
 10
5085.048828125
 20
-1462.822265625
 10
5085.048828125
 20
-1452.87109375
 10
5085.048828125
 20
-1442.919921875
 10
5085.048828125
 20
-1432.96875
 10
5085.048828125
 20
-1423.017578125
 10
5085.048828125
 20
-1413.06640625
 10
5085.048828125
 20
-1403.115234375
 10
5085.048828125
 20
-1393.1640625
 10
5085.048828125
 20
-1383.212890625
 10
5085.048828125
 20
-1373.26171875
 10
5085.048828125
 20
-1363.310546875
 10
5085.048828125
 20
-1353.359375
 10
5085.048828125
 20
-1343.408203125
 10
5085.048828125
 20
-1333.45703125
 10
5085.048828125
 20
-1323.505859375
 10
5085.048828125
 20
-1313.5546875
 10
5085.048828125
 20
-1303.603515625
 10
5085.048828125
 20
-1293.65234375
 10
5085.048828125
 20
-1283.701171875
 10
5085.048828125
 20
-1273.75
 10
5085.048828125
 20
-1263.798828125
 10
5085.048828125
 20
-1253.84765625
 10
5085.048828125
 20
-1243.896484375
 10
5085.048828125
 20
-1233.9453125
 10
5085.048828125
 20
-1223.994140625
 10
5085.048828125
 20
-1214.04296875
 10
5085.048828125
 20
-1204.091796875
 10
5085.048828125
 20
-1194.140625
 10
5085.048828125
 20
-1184.189453125
 10
5085.048828125
 20
-1174.23828125
 10
5085.048828125
 20
-1164.287109375
 10
5085.048828125
 20
-1154.3359375
 10
5085.048828125
 20
-1144.384765625
 10
5085.048828125
 20
-1134.43359375
 10
5085.048828125
 20
-1124.482421875
 10
5085.048828125
 20
-1114.53125
 10
5085.048828125
 20
-1104.580078125
 10
5085.048828125
 20
-1094.62890625
 10
5085.048828125
 20
-1084.677734375
 10
5085.048828125
 20
-1074.7265625
 10
5085.048828125
 20
-1064.775390625
 10
5085.048828125
 20
-1054.82421875
 10
5085.048828125
 20
-1044.873046875
 10
5085.048828125
 20
-1034.921875
 10
5085.048828125
 20
-1024.970703125
 10
5085.048828125
 20
-1015.01953125
 10
5085.048828125
 20
-1005.068359375
 10
5085.048828125
 20
-995.1171875
 10
5085.048828125
 20
-985.166015625
 10
5085.048828125
 20
-975.21484375
 10
5085.048828125
 20
-965.263671875
 10
5085.048828125
 20
-955.3125
 10
5085.048828125
 20
-945.361328125
 10
5085.048828125
 20
-935.41015625
 10
5085.048828125
 20
-925.458984375
 10
5085.048828125
 20
-915.5078125
 10
5085.048828125
 20
-905.556640625
 10
5085.048828125
 20
-895.60546875
 10
5085.048828125
 20
-885.654296875
 10
5085.048828125
 20
-875.703125
 10
5085.048828125
 20
-865.751953125
 10
5085.048828125
 20
-855.80078125
 10
5085.048828125
 20
-845.849609375
 10
5085.048828125
 20
-835.8984375
 10
5085.048828125
 20
-825.947265625
 10
5085.048828125
 20
-815.99609375
 10
5085.048828125
 20
-806.044921875
 10
5085.048828125
 20
-796.09375
 10
5085.048828125
 20
-786.142578125
 10
5085.048828125
 20
-776.19140625
 10
5085.048828125
 20
-766.240234375
 10
5085.048828125
 20
-756.2890625
 10
5085.048828125
 20
-746.337890625
 10
5085.048828125
 20
-736.38671875
 10
5085.048828125
 20
-726.435546875
 10
5085.048828125
 20
-716.484375
 10
5085.048828125
 20
-706.533203125
 10
5085.048828125
 20
-696.58203125
 10
5085.048828125
 20
-686.630859375
 10
5085.048828125
 20
-676.6796875
 10
5085.048828125
 20
-666.728515625
 10
5085.048828125
 20
-656.77734375
 10
5085.048828125
 20
-646.826171875
 10
5085.048828125
 20
-636.875
 10
5085.048828125
 20
-626.923828125
 10
5085.048828125
 20
-616.97265625
 10
5085.048828125
 20
-607.021484375
 10
5085.048828125
 20
-597.0703125
 10
5085.048828125
 20
-587.119140625
 10
5085.048828125
 20
-577.16796875
 10
5085.048828125
 20
-567.216796875
 10
5085.048828125
 20
-557.265625
 10
5085.048828125
 20
-547.314453125
 10
5085.048828125
 20
-537.36328125
 10
5085.048828125
 20
-527.412109375
 10
5085.048828125
 20
-517.4609375
 10
5085.048828125
 20
-507.509765625
 10
5085.048828125
 20
-497.55859375
 10
5085.048828125
 20
-487.607421875
 10
5085.048828125
 20
-477.65625
 10
5085.048828125
 20
-467.705078125
 10
5085.048828125
 20
-457.75390625
 10
5085.048828125
 20
-447.802734375
 10
5085.048828125
 20
-437.8515625
 10
5085.048828125
 20
-427.900390625
 10
5085.048828125
 20
-417.94921875
 10
5085.048828125
 20
-407.998046875
 10
5085.048828125
 20
-398.046875
 10
5085.048828125
 20
-388.095703125
 10
5085.048828125
 20
-378.14453125
 10
5085.048828125
 20
-368.193359375
 10
5085.048828125
 20
-358.2421875
 10
5085.048828125
 20
-348.291015625
 10
5085.048828125
 20
-338.33984375
 10
5085.048828125
 20
-328.388671875
 10
5085.048828125
 20
-318.4375
 10
5085.048828125
 20
-308.486328125
 10
5085.048828125
 20
-298.53515625
 10
5085.048828125
 20
-288.583984375
 10
5085.048828125
 20
-278.6328125
 10
5085.048828125
 20
-268.681640625
 10
5085.048828125
 20
-258.73046875
 10
5085.048828125
 20
-248.779296875
 10
5085.048828125
 20
-238.828125
 10
5085.048828125
 20
-228.876953125
 10
5085.048828125
 20
-218.92578125
 10
5085.048828125
 20
-208.974609375
 10
5085.048828125
 20
-199.0234375
 10
5085.048828125
 20
-189.072265625
 10
5085.048828125
 20
-179.12109375
 10
5085.048828125
 20
-169.169921875
 10
5085.048828125
 20
-159.21875
 10
5085.048828125
 20
-149.267578125
 10
5085.048828125
 20
-139.31640625
 10
5085.048828125
 20
-129.365234375
 10
5085.048828125
 20
-119.4140625
 10
5085.048828125
 20
-109.462890625
 10
5085.048828125
 20
-99.51171875
 10
5085.048828125
 20
-89.560546875
 10
5085.048828125
 20
-79.609375
 10
5085.048828125
 20
-69.658203125
 10
5085.048828125
 20
-59.70703125
 10
5085.048828125
 20
-49.755859375
 10
5085.048828125
 20
-39.8046875
 10
5085.048828125
 20
-29.853515625
 10
5085.048828125
 20
-19.90234375
 10
5085.048828125
 20
-9.951171875
 10
5085.048828125
 20
-0.0
 10
5075.09765625
 20
-0.0
 10
5065.146484375
 20
-0.0
 10
5055.1953125
 20
-0.0
 10
5045.244140625
 20
-0.0
 10
5035.29296875
 20
-0.0
 10
5025.341796875
 20
-0.0
 10
5015.390625
 20
-0.0
 10
5005.439453125
 20
-0.0
 10
4995.48828125
 20
-0.0
 10
4985.537109375
 20
-0.0
 10
4975.5859375
 20
-0.0
 10
4965.634765625
 20
-0.0
 10
4955.68359375
 20
-0.0
 10
4945.732421875
 20
-0.0
 10
4935.78125
 20
-0.0
 10
4925.830078125
 20
-0.0
 10
4915.87890625
 20
-0.0
 10
4905.927734375
 20
-0.0
 10
4895.9765625
 20
-0.0
 10
4886.025390625
 20
-0.0
 10
4876.07421875
 20
-0.0
 10
4866.123046875
 20
-0.0
 10
4856.171875
 20
-0.0
 10
4846.220703125
 20
-0.0
 10
4836.26953125
 20
-0.0
 10
4826.318359375
 20
-0.0
 10
4816.3671875
 20
-0.0
 10
4806.416015625
 20
-0.0
 10
4796.46484375
 20
-0.0
 10
4786.513671875
 20
-0.0
 10
4776.5625
 20
-0.0
 10
4766.611328125
 20
-0.0
 10
4756.66015625
 20
-0.0
 10
4746.708984375
 20
-0.0
 10
4736.7578125
 20
-0.0
 10
4726.806640625
 20
-0.0
 10
4716.85546875
 20
-0.0
 10
4706.904296875
 20
-0.0
 10
4696.953125
 20
-0.0
 10
4687.001953125
 20
-0.0
 10
4677.05078125
 20
-0.0
 10
4667.099609375
 20
-0.0
 10
4657.1484375
 20
-0.0
 10
4647.197265625
 20
-0.0
 10
4637.24609375
 20
-0.0
 10
4627.294921875
 20
-0.0
 10
4617.34375
 20
-0.0
 10
4607.392578125
 20
-0.0
 10
4597.44140625
 20
-0.0
 10
4587.490234375
 20
-0.0
 10
4577.5390625
 20
-0.0
 10
4567.587890625
 20
-0.0
 10
4557.63671875
 20
-0.0
 10
4547.685546875
 20
-0.0
 10
4537.734375
 20
-0.0
 10
4527.783203125
 20
-0.0
 10
4517.83203125
 20
-0.0
 10
4507.880859375
 20
-0.0
 10
4497.9296875
 20
-0.0
 10
4487.978515625
 20
-0.0
 10
4478.02734375
 20
-0.0
 10
4468.076171875
 20
-0.0
 10
4458.125
 20
-0.0
 10
4448.173828125
 20
-0.0
 10
4438.22265625
 20
-0.0
 10
4428.271484375
 20
-0.0
 10
4418.3203125
 20
-0.0
 10
4408.369140625
 20
-0.0
 10
4398.41796875
 20
-0.0
 10
4388.466796875
 20
-0.0
 10
4378.515625
 20
-0.0
 10
4368.564453125
 20
-0.0
 10
4358.61328125
 20
-0.0
 10
4348.662109375
 20
-0.0
 10
4338.7109375
 20
-0.0
 10
4328.759765625
 20
-0.0
 10
4318.80859375
 20
-0.0
 10
4308.857421875
 20
-0.0
 10
4298.90625
 20
-0.0
 10
4288.955078125
 20
-0.0
 10
4279.00390625
 20
-0.0
 10
4269.052734375
 20
-0.0
 10
4259.1015625
 20
-0.0
 10
4249.150390625
 20
-0.0
 10
4239.19921875
 20
-0.0
 10
4229.248046875
 20
-0.0
 10
4219.296875
 20
-0.0
 10
4209.345703125
 20
-0.0
 10
4199.39453125
 20
-0.0
 10
4189.443359375
 20
-0.0
 10
4179.4921875
 20
-0.0
 10
4169.541015625
 20
-0.0
 10
4159.58984375
 20
-0.0
 10
4149.638671875
 20
-0.0
 10
4139.6875
 20
-0.0
 10
4129.736328125
 20
-0.0
 10
4119.78515625
 20
-0.0
 10
4109.833984375
 20
-0.0
 10
4099.8828125
 20
-0.0
 10
4089.931640625
 20
-0.0
 10
4079.98046875
 20
-0.0
 10
4070.029296875
 20
-0.0
 10
4060.078125
 20
-0.0
 10
4050.126953125
 20
-0.0
 10
4040.17578125
 20
-0.0
 10
4030.224609375
 20
-0.0
 10
4020.2734375
 20
-0.0
 10
4010.322265625
 20
-0.0
 10
4000.37109375
 20
-0.0
 10
3990.419921875
 20
-0.0
 10
3980.46875
 20
-0.0
 10
3970.517578125
 20
-0.0
 10
3960.56640625
 20
-0.0
 10
3950.615234375
 20
-0.0
 10
3940.6640625
 20
-0.0
 10
3930.712890625
 20
-0.0
 10
3920.76171875
 20
-0.0
 10
3910.810546875
 20
-0.0
 10
3900.859375
 20
-0.0
 10
3890.908203125
 20
-0.0
 10
3880.95703125
 20
-0.0
 10
3871.005859375
 20
-0.0
 10
3861.0546875
 20
-0.0
 10
3851.103515625
 20
-0.0
 10
3841.15234375
 20
-0.0
 10
3831.201171875
 20
-0.0
 10
3821.25
 20
-0.0
 10
3811.298828125
 20
-0.0
 10
3801.34765625
 20
-0.0
 10
3791.396484375
 20
-0.0
 10
3781.4453125
 20
-0.0
 10
3771.494140625
 20
-0.0
 10
3761.54296875
 20
-0.0
 10
3751.591796875
 20
-0.0
 10
3741.640625
 20
-0.0
 10
3731.689453125
 20
-0.0
 10
3721.73828125
 20
-0.0
 10
3711.787109375
 20
-0.0
 10
3701.8359375
 20
-0.0
 10
3691.884765625
 20
-0.0
 10
3681.93359375
 20
-0.0
 10
3671.982421875
 20
-0.0
 10
3662.03125
 20
-0.0
 10
3652.080078125
 20
-0.0
 10
3642.12890625
 20
-0.0
 10
3632.177734375
 20
-0.0
 10
3622.2265625
 20
-0.0
 10
3612.275390625
 20
-0.0
 10
3602.32421875
 20
-0.0
 10
3592.373046875
 20
-0.0
 10
3582.421875
 20
-0.0
 10
3572.470703125
 20
-0.0
 10
3562.51953125
 20
-0.0
 10
3552.568359375
 20
-0.0
 10
3542.6171875
 20
-0.0
 10
3532.666015625
 20
-0.0
 10
3522.71484375
 20
-0.0
 10
3512.763671875
 20
-0.0
 10
3502.8125
 20
-0.0
 10
3492.861328125
 20
-0.0
 10
3482.91015625
 20
-0.0
 10
3472.958984375
 20
-0.0
 10
3463.0078125
 20
-0.0
 10
3453.056640625
 20
-0.0
 10
3443.10546875
 20
-0.0
 10
3433.154296875
 20
-0.0
 10
3423.203125
 20
-0.0
 10
3413.251953125
 20
-0.0
 10
3403.30078125
 20
-0.0
 10
3393.349609375
 20
-0.0
 10
3383.3984375
 20
-0.0
 10
3373.447265625
 20
-0.0
 10
3363.49609375
 20
-0.0
 10
3353.544921875
 20
-0.0
 10
3343.59375
 20
-0.0
 10
3333.642578125
 20
-0.0
 10
3323.69140625
 20
-0.0
 10
3313.740234375
 20
-0.0
 10
3303.7890625
 20
-0.0
 10
3293.837890625
 20
-0.0
 10
3283.88671875
 20
-0.0
 10
3273.935546875
 20
-0.0
 10
3263.984375
 20
-0.0
 10
3254.033203125
 20
-0.0
 10
3244.08203125
 20
-0.0
 10
3234.130859375
 20
-0.0
 10
3224.1796875
 20
-0.0
 10
3214.228515625
 20
-0.0
 10
3204.27734375
 20
-0.0
 10
3194.326171875
 20
-0.0
 10
3184.375
 20
-0.0
 10
3174.423828125
 20
-0.0
 10
3164.47265625
 20
-0.0
 10
3154.521484375
 20
-0.0
 10
3144.5703125
 20
-0.0
 10
3134.619140625
 20
-0.0
 10
3124.66796875
 20
-0.0
 10
3114.716796875
 20
-0.0
 10
3104.765625
 20
-0.0
 10
3094.814453125
 20
-0.0
 10
3084.86328125
 20
-0.0
 10
3074.912109375
 20
-0.0
 10
3064.9609375
 20
-0.0
 10
3055.009765625
 20
-0.0
 10
3045.05859375
 20
-0.0
 10
3035.107421875
 20
-0.0
 10
3025.15625
 20
-0.0
 10
3015.205078125
 20
-0.0
 10
3005.25390625
 20
-0.0
 10
2995.302734375
 20
-0.0
 10
2985.3515625
 20
-0.0
 10
2975.400390625
 20
-0.0
 10
2965.44921875
 20
-0.0
 10
2955.498046875
 20
-0.0
 10
2945.546875
 20
-0.0
 10
2935.595703125
 20
-0.0
 10
2925.64453125
 20
-0.0
 10
2915.693359375
 20
-0.0
 10
2905.7421875
 20
-0.0
 10
2895.791015625
 20
-0.0
 10
2885.83984375
 20
-0.0
 10
2875.888671875
 20
-0.0
 10
2865.9375
 20
-0.0
 10
2855.986328125
 20
-0.0
 10
2846.03515625
 20
-0.0
 10
2836.083984375
 20
-0.0
 10
2826.1328125
 20
-0.0
 10
2816.181640625
 20
-0.0
 10
2806.23046875
 20
-0.0
 10
2796.279296875
 20
-0.0
 10
2786.328125
 20
-0.0
 10
2776.376953125
 20
-0.0
 10
2766.42578125
 20
-0.0
 10
2756.474609375
 20
-0.0
 10
2746.5234375
 20
-0.0
 10
2736.572265625
 20
-0.0
 10
2726.62109375
 20
-0.0
 10
2716.669921875
 20
-0.0
 10
2706.71875
 20
-0.0
 10
2696.767578125
 20
-0.0
 10
2686.81640625
 20
-0.0
 10
2676.865234375
 20
-0.0
 10
2666.9140625
 20
-0.0
 10
2656.962890625
 20
-0.0
 10
2647.01171875
 20
-0.0
 10
2637.060546875
 20
-0.0
 10
2627.109375
 20
-0.0
 10
2617.158203125
 20
-0.0
 10
2607.20703125
 20
-0.0
 10
2597.255859375
 20
-0.0
 10
2587.3046875
 20
-0.0
 10
2577.353515625
 20
-0.0
 10
2567.40234375
 20
-0.0
 10
2557.451171875
 20
-0.0
 10
2547.5
 20
-0.0
 10
2537.548828125
 20
-0.0
 10
2527.59765625
 20
-0.0
 10
2517.646484375
 20
-0.0
 10
2507.6953125
 20
-0.0
 10
2497.744140625
 20
-0.0
 10
2487.79296875
 20
-0.0
 10
2477.841796875
 20
-0.0
 10
2467.890625
 20
-0.0
 10
2457.939453125
 20
-0.0
 10
2447.98828125
 20
-0.0
 10
2438.037109375
 20
-0.0
 10
2428.0859375
 20
-0.0
 10
2418.134765625
 20
-0.0
 10
2408.18359375
 20
-0.0
 10
2398.232421875
 20
-0.0
 10
2388.28125
 20
-0.0
 10
2378.330078125
 20
-0.0
 10
2368.37890625
 20
-0.0
 10
2358.427734375
 20
-0.0
 10
2348.4765625
 20
-0.0
 10
2338.525390625
 20
-0.0
 10
2328.57421875
 20
-0.0
 10
2318.623046875
 20
-0.0
 10
2308.671875
 20
-0.0
 10
2298.720703125
 20
-0.0
 10
2288.76953125
 20
-0.0
 10
2278.818359375
 20
-0.0
 10
2268.8671875
 20
-0.0
 10
2258.916015625
 20
-0.0
 10
2248.96484375
 20
-0.0
 10
2239.013671875
 20
-0.0
 10
2229.0625
 20
-0.0
 10
2219.111328125
 20
-0.0
 10
2209.16015625
 20
-0.0
 10
2199.208984375
 20
-0.0
 10
2189.2578125
 20
-0.0
 10
2179.306640625
 20
-0.0
 10
2169.35546875
 20
-0.0
 10
2159.404296875
 20
-0.0
 10
2149.453125
 20
-0.0
 10
2139.501953125
 20
-0.0
 10
2129.55078125
 20
-0.0
 10
2119.599609375
 20
-0.0
 10
2109.6484375
 20
-0.0
 10
2099.697265625
 20
-0.0
 10
2089.74609375
 20
-0.0
 10
2079.794921875
 20
-0.0
 10
2069.84375
 20
-0.0
 10
2059.892578125
 20
-0.0
 10
2049.94140625
 20
-0.0
 10
2039.990234375
 20
-0.0
 10
2030.0390625
 20
-0.0
 10
2020.087890625
 20
-0.0
 10
2010.13671875
 20
-0.0
 10
2000.185546875
 20
-0.0
 10
1990.234375
 20
-0.0
 10
1980.283203125
 20
-0.0
 10
1970.33203125
 20
-0.0
 10
1960.380859375
 20
-0.0
 10
1950.4296875
 20
-0.0
 10
1940.478515625
 20
-0.0
 10
1930.52734375
 20
-0.0
 10
1920.576171875
 20
-0.0
 10
1910.625
 20
-0.0
 10
1900.673828125
 20
-0.0
 10
1890.72265625
 20
-0.0
 10
1880.771484375
 20
-0.0
 10
1870.8203125
 20
-0.0
 10
1860.869140625
 20
-0.0
 10
1850.91796875
 20
-0.0
 10
1840.966796875
 20
-0.0
 10
1831.015625
 20
-0.0
 10
1821.064453125
 20
-0.0
 10
1811.11328125
 20
-0.0
 10
1801.162109375
 20
-0.0
 10
1791.2109375
 20
-0.0
 10
1781.259765625
 20
-0.0
 10
1771.30859375
 20
-0.0
 10
1761.357421875
 20
-0.0
 10
1751.40625
 20
-0.0
 10
1741.455078125
 20
-0.0
 10
1731.50390625
 20
-0.0
 10
1721.552734375
 20
-0.0
 10
1711.6015625
 20
-0.0
 10
1701.650390625
 20
-0.0
 10
1691.69921875
 20
-0.0
 10
1681.748046875
 20
-0.0
 10
1671.796875
 20
-0.0
 10
1661.845703125
 20
-0.0
 10
1651.89453125
 20
-0.0
 10
1641.943359375
 20
-0.0
 10
1631.9921875
 20
-0.0
 10
1622.041015625
 20
-0.0
 10
1612.08984375
 20
-0.0
 10
1602.138671875
 20
-0.0
 10
1592.1875
 20
-0.0
 10
1582.236328125
 20
-0.0
 10
1572.28515625
 20
-0.0
 10
1562.333984375
 20
-0.0
 10
1552.3828125
 20
-0.0
 10
1542.431640625
 20
-0.0
 10
1532.48046875
 20
-0.0
 10
1522.529296875
 20
-0.0
 10
1512.578125
 20
-0.0
 10
1502.626953125
 20
-0.0
 10
1492.67578125
 20
-0.0
 10
1482.724609375
 20
-0.0
 10
1472.7734375
 20
-0.0
 10
1462.822265625
 20
-0.0
 10
1452.87109375
 20
-0.0
 10
1442.919921875
 20
-0.0
 10
1432.96875
 20
-0.0
 10
1423.017578125
 20
-0.0
 10
1413.06640625
 20
-0.0
 10
1403.115234375
 20
-0.0
 10
1393.1640625
 20
-0.0
 10
1383.212890625
 20
-0.0
 10
1373.26171875
 20
-0.0
 10
1363.310546875
 20
-0.0
 10
1353.359375
 20
-0.0
 10
1343.408203125
 20
-0.0
 10
1333.45703125
 20
-0.0
 10
1323.505859375
 20
-0.0
 10
1313.5546875
 20
-0.0
 10
1303.603515625
 20
-0.0
 10
1293.65234375
 20
-0.0
 10
1283.701171875
 20
-0.0
 10
1273.75
 20
-0.0
 10
1263.798828125
 20
-0.0
 10
1253.84765625
 20
-0.0
 10
1243.896484375
 20
-0.0
 10
1233.9453125
 20
-0.0
 10
1223.994140625
 20
-0.0
 10
1214.04296875
 20
-0.0
 10
1204.091796875
 20
-0.0
 10
1194.140625
 20
-0.0
 10
1184.189453125
 20
-0.0
 10
1174.23828125
 20
-0.0
 10
1164.287109375
 20
-0.0
 10
1154.3359375
 20
-0.0
 10
1144.384765625
 20
-0.0
 10
1134.43359375
 20
-0.0
 10
1124.482421875
 20
-0.0
 10
1114.53125
 20
-0.0
 10
1104.580078125
 20
-0.0
 10
1094.62890625
 20
-0.0
 10
1084.677734375
 20
-0.0
 10
1074.7265625
 20
-0.0
 10
1064.775390625
 20
-0.0
 10
1054.82421875
 20
-0.0
 10
1044.873046875
 20
-0.0
 10
1034.921875
 20
-0.0
 10
1024.970703125
 20
-0.0
 10
1015.01953125
 20
-0.0
 10
1005.068359375
 20
-0.0
 10
995.1171875
 20
-0.0
 10
985.166015625
 20
-0.0
 10
975.21484375
 20
-0.0
 10
965.263671875
 20
-0.0
 10
955.3125
 20
-0.0
 10
945.361328125
 20
-0.0
 10
935.41015625
 20
-0.0
 10
925.458984375
 20
-0.0
 10
915.5078125
 20
-0.0
 10
905.556640625
 20
-0.0
 10
895.60546875
 20
-0.0
 10
885.654296875
 20
-0.0
 10
875.703125
 20
-0.0
 10
865.751953125
 20
-0.0
 10
855.80078125
 20
-0.0
 10
845.849609375
 20
-0.0
 10
835.8984375
 20
-0.0
 10
825.947265625
 20
-0.0
 10
815.99609375
 20
-0.0
 10
806.044921875
 20
-0.0
 10
796.09375
 20
-0.0
 10
786.142578125
 20
-0.0
 10
776.19140625
 20
-0.0
 10
766.240234375
 20
-0.0
 10
756.2890625
 20
-0.0
 10
746.337890625
 20
-0.0
 10
736.38671875
 20
-0.0
 10
726.435546875
 20
-0.0
 10
716.484375
 20
-0.0
 10
706.533203125
 20
-0.0
 10
696.58203125
 20
-0.0
 10
686.630859375
 20
-0.0
 10
676.6796875
 20
-0.0
 10
666.728515625
 20
-0.0
 10
656.77734375
 20
-0.0
 10
646.826171875
 20
-0.0
 10
636.875
 20
-0.0
 10
626.923828125
 20
-0.0
 10
616.97265625
 20
-0.0
 10
607.021484375
 20
-0.0
 10
597.0703125
 20
-0.0
 10
587.119140625
 20
-0.0
 10
577.16796875
 20
-0.0
 10
567.216796875
 20
-0.0
 10
557.265625
 20
-0.0
 10
547.314453125
 20
-0.0
 10
537.36328125
 20
-0.0
 10
527.412109375
 20
-0.0
 10
517.4609375
 20
-0.0
 10
507.509765625
 20
-0.0
 10
497.55859375
 20
-0.0
 10
487.607421875
 20
-0.0
 10
477.65625
 20
-0.0
 10
467.705078125
 20
-0.0
 10
457.75390625
 20
-0.0
 10
447.802734375
 20
-0.0
 10
437.8515625
 20
-0.0
 10
427.900390625
 20
-0.0
 10
417.94921875
 20
-0.0
 10
407.998046875
 20
-0.0
 10
398.046875
 20
-0.0
 10
388.095703125
 20
-0.0
 10
378.14453125
 20
-0.0
 10
368.193359375
 20
-0.0
 10
358.2421875
 20
-0.0
 10
348.291015625
 20
-0.0
 10
338.33984375
 20
-0.0
 10
328.388671875
 20
-0.0
 10
318.4375
 20
-0.0
 10
308.486328125
 20
-0.0
 10
298.53515625
 20
-0.0
 10
288.583984375
 20
-0.0
 10
278.6328125
 20
-0.0
 10
268.681640625
 20
-0.0
 10
258.73046875
 20
-0.0
 10
248.779296875
 20
-0.0
 10
238.828125
 20
-0.0
 10
228.876953125
 20
-0.0
 10
218.92578125
 20
-0.0
 10
208.974609375
 20
-0.0
 10
199.0234375
 20
-0.0
 10
189.072265625
 20
-0.0
 10
179.12109375
 20
-0.0
 10
169.169921875
 20
-0.0
 10
159.21875
 20
-0.0
 10
149.267578125
 20
-0.0
 10
139.31640625
 20
-0.0
 10
129.365234375
 20
-0.0
 10
119.4140625
 20
-0.0
 10
109.462890625
 20
-0.0
 10
99.51171875
 20
-0.0
 10
89.560546875
 20
-0.0
 10
79.609375
 20
-0.0
 10
69.658203125
 20
-0.0
 10
59.70703125
 20
-0.0
 10
49.755859375
 20
-0.0
 10
39.8046875
 20
-0.0
 10
29.853515625
 20
-0.0
 10
19.90234375
 20
-0.0
 10
9.951171875
 20
-0.0
  0
LWPOLYLINE
  5
36
330
17
100
AcDbEntity
  8
substrate
100
AcDbPolyline
 90
4
 70
1
 43
0.5
 10
1482.724609375
 20
-2895.791015625
 10
1492.67578125
 20
-2885.83984375
 10
1502.626953125
 20
-2895.791015625
 10
1492.67578125
 20
-2905.7421875
  0
LWPOLYLINE
  5
37
330
17
100
AcDbEntity
  8
substrate
100
AcDbPolyline
 90
219
 70
1
 43
0.5
 10
2477.841796875
 20
-2169.35546875
 10
2487.79296875
 20
-2159.404296875
 10
2497.744140625
 20
-2159.404296875
 10
2507.6953125
 20
-2159.404296875
 10
2517.646484375
 20
-2159.404296875
 10
2527.59765625
 20
-2159.404296875
 10
2537.548828125
 20
-2159.404296875
 10
2547.5
 20
-2159.404296875
 10
2557.451171875
 20
-2159.404296875
 10
2567.40234375
 20
-2159.404296875
 10
2577.353515625
 20
-2159.404296875
 10
2587.3046875
 20
-2159.404296875
 10
2597.255859375
 20
-2159.404296875
 10
2607.20703125
 20
-2159.404296875
 10
2617.158203125
 20
-2169.35546875
 10
2627.109375
 20
-2169.35546875
 10
2637.060546875
 20
-2169.35546875
 10
2647.01171875
 20
-2169.35546875
 10
2656.962890625
 20
-2169.35546875
 10
2666.9140625
 20
-2179.306640625
 10
2676.865234375
 20
-2179.306640625
 10
2686.81640625
 20
-2189.2578125
 10
2696.767578125
 20
-2189.2578125
 10
2706.71875
 20
-2199.208984375
 10
2716.669921875
 20
-2199.208984375
 10
2726.62109375
 20
-2209.16015625
 10
2736.572265625
 20
-2209.16015625
 10
2746.5234375
 20
-2219.111328125
 10
2756.474609375
 20
-2229.0625
 10
2766.42578125
 20
-2229.0625
 10
2776.376953125
 20
-2239.013671875
 10
2786.328125
 20
-2248.96484375
 10
2796.279296875
 20
-2258.916015625
 10
2806.23046875
 20
-2268.8671875
 10
2816.181640625
 20
-2278.818359375
 10
2826.1328125
 20
-2288.76953125
 10
2836.083984375
 20
-2298.720703125
 10
2836.083984375
 20
-2308.671875
 10
2846.03515625
 20
-2318.623046875
 10
2855.986328125
 20
-2328.57421875
 10
2865.9375
 20
-2338.525390625
 10
2865.9375
 20
-2348.4765625
 10
2875.888671875
 20
-2358.427734375
 10
2885.83984375
 20
-2368.37890625
 10
2885.83984375
 20
-2378.330078125
 10
2895.791015625
 20
-2388.28125
 10
2895.791015625
 20
-2398.232421875
 10
2905.7421875
 20
-2408.18359375
 10
2905.7421875
 20
-2418.134765625
 10
2915.693359375
 20
-2428.0859375
 10
2915.693359375
 20
-2438.037109375
 10
2915.693359375
 20
-2447.98828125
 10
2915.693359375
 20
-2457.939453125
 10
2915.693359375
 20
-2467.890625
 10
2915.693359375
 20
-2477.841796875
 10
2925.64453125
 20
-2487.79296875
 10
2925.64453125
 20
-2497.744140625
 10
2925.64453125
 20
-2507.6953125
 10
2925.64453125
 20
-2517.646484375
 10
2925.64453125
 20
-2527.59765625
 10
2925.64453125
 20
-2537.548828125
 10
2925.64453125
 20
-2547.5
 10
2925.64453125
 20
-2557.451171875
 10
2925.64453125
 20
-2567.40234375
 10
2925.64453125
 20
-2577.353515625
 10
2925.64453125
 20
-2587.3046875
 10
2925.64453125
 20
-2597.255859375
 10
2925.64453125
 20
-2607.20703125
 10
2925.64453125
 20
-2617.158203125
 10
2925.64453125
 20
-2627.109375
 10
2915.693359375
 20
-2637.060546875
 10
2915.693359375
 20
-2647.01171875
 10
2915.693359375
 20
-2656.962890625
 10
2905.7421875
 20
-2666.9140625
 10
2905.7421875
 20
-2676.865234375
 10
2905.7421875
 20
-2686.81640625
 10
2895.791015625
 20
-2696.767578125
 10
2895.791015625
 20
-2706.71875
 10
2895.791015625
 20
-2716.669921875
 10
2885.83984375
 20
-2726.62109375
 10
2885.83984375
 20
-2736.572265625
 10
2875.888671875
 20
-2746.5234375
 10
2875.888671875
 20
-2756.474609375
 10
2865.9375
 20
-2766.42578125
 10
2865.9375
 20
-2776.376953125
 10
2855.986328125
 20
-2786.328125
 10
2846.03515625
 20
-2786.328125
 10
2836.083984375
 20
-2796.279296875
 10
2826.1328125
 20
-2806.23046875
 10
2816.181640625
 20
-2816.181640625
 10
2806.23046875
 20
-2826.1328125
 10
2796.279296875
 20
-2836.083984375
 10
2786.328125
 20
-2846.03515625
 10
2776.376953125
 20
-2846.03515625
 10
2766.42578125
 20
-2855.986328125
 10
2756.474609375
 20
-2855.986328125
 10
2746.5234375
 20
-2865.9375
 10
2736.572265625
 20
-2875.888671875
 10
2726.62109375
 20
-2875.888671875
 10
2716.669921875
 20
-2875.888671875
 10
2706.71875
 20
-2885.83984375
 10
2696.767578125
 20
-2885.83984375
 10
2686.81640625
 20
-2895.791015625
 10
2676.865234375
 20
-2905.7421875
 10
2666.9140625
 20
-2905.7421875
 10
2656.962890625
 20
-2915.693359375
 10
2647.01171875
 20
-2915.693359375
 10
2637.060546875
 20
-2925.64453125
 10
2627.109375
 20
-2925.64453125
 10
2617.158203125
 20
-2925.64453125
 10
2607.20703125
 20
-2925.64453125
 10
2597.255859375
 20
-2925.64453125
 10
2587.3046875
 20
-2925.64453125
 10
2577.353515625
 20
-2925.64453125
 10
2567.40234375
 20
-2925.64453125
 10
2557.451171875
 20
-2925.64453125
 10
2547.5
 20
-2925.64453125
 10
2537.548828125
 20
-2935.595703125
 10
2527.59765625
 20
-2935.595703125
 10
2517.646484375
 20
-2925.64453125
 10
2507.6953125
 20
-2925.64453125
 10
2497.744140625
 20
-2925.64453125
 10
2487.79296875
 20
-2925.64453125
 10
2477.841796875
 20
-2925.64453125
 10
2467.890625
 20
-2925.64453125
 10
2457.939453125
 20
-2915.693359375
 10
2447.98828125
 20
-2915.693359375
 10
2438.037109375
 20
-2915.693359375
 10
2428.0859375
 20
-2915.693359375
 10
2418.134765625
 20
-2905.7421875
 10
2408.18359375
 20
-2905.7421875
 10
2398.232421875
 20
-2895.791015625
 10
2388.28125
 20
-2895.791015625
 10
2378.330078125
 20
-2895.791015625
 10
2368.37890625
 20
-2885.83984375
 10
2358.427734375
 20
-2885.83984375
 10
2348.4765625
 20
-2875.888671875
 10
2338.525390625
 20
-2865.9375
 10
2328.57421875
 20
-2855.986328125
 10
2318.623046875
 20
-2846.03515625
 10
2308.671875
 20
-2836.083984375
 10
2298.720703125
 20
-2836.083984375
 10
2288.76953125
 20
-2826.1328125
 10
2278.818359375
 20
-2826.1328125
 10
2268.8671875
 20
-2816.181640625
 10
2268.8671875
 20
-2806.23046875
 10
2258.916015625
 20
-2796.279296875
 10
2248.96484375
 20
-2786.328125
 10
2239.013671875
 20
-2776.376953125
 10
2229.0625
 20
-2766.42578125
 10
2229.0625
 20
-2756.474609375
 10
2219.111328125
 20
-2746.5234375
 10
2219.111328125
 20
-2736.572265625
 10
2209.16015625
 20
-2726.62109375
 10
2199.208984375
 20
-2716.669921875
 10
2199.208984375
 20
-2706.71875
 10
2199.208984375
 20
-2696.767578125
 10
2189.2578125
 20
-2686.81640625
 10
2189.2578125
 20
-2676.865234375
 10
2179.306640625
 20
-2666.9140625
 10
2179.306640625
 20
-2656.962890625
 10
2169.35546875
 20
-2647.01171875
 10
2169.35546875
 20
-2637.060546875
 10
2169.35546875
 20
-2627.109375
 10
2169.35546875
 20
-2617.158203125
 10
2169.35546875
 20
-2607.20703125
 10
2159.404296875
 20
-2597.255859375
 10
2159.404296875
 20
-2587.3046875
 10
2159.404296875
 20
-2577.353515625
 10
2159.404296875
 20
-2567.40234375
 10
2159.404296875
 20
-2557.451171875
 10
2159.404296875
 20
-2547.5
 10
2159.404296875
 20
-2537.548828125
 10
2159.404296875
 20
-2527.59765625
 10
2159.404296875
 20
-2517.646484375
 10
2159.404296875
 20
-2507.6953125
 10
2159.404296875
 20
-2497.744140625
 10
2169.35546875
 20
-2487.79296875
 10
2169.35546875
 20
-2477.841796875
 10
2169.35546875
 20
-2467.890625
 10
2169.35546875
 20
-2457.939453125
 10
2169.35546875
 20
-2447.98828125
 10
2179.306640625
 20
-2438.037109375
 10
2179.306640625
 20
-2428.0859375
 10
2179.306640625
 20
-2418.134765625
 10
2189.2578125
 20
-2408.18359375
 10
2189.2578125
 20
-2398.232421875
 10
2199.208984375
 20
-2388.28125
 10
2199.208984375
 20
-2378.330078125
 10
2209.16015625
 20
-2368.37890625
 10
2219.111328125
 20
-2358.427734375
 10
2219.111328125
 20
-2348.4765625
 10
2219.111328125
 20
-2338.525390625
 10
2229.0625
 20
-2328.57421875
 10
2239.013671875
 20
-2318.623046875
 10
2248.96484375
 20
-2308.671875
 10
2248.96484375
 20
-2298.720703125
 10
2258.916015625
 20
-2288.76953125
 10
2268.8671875
 20
-2278.818359375
 10
2278.818359375
 20
-2268.8671875
 10
2288.76953125
 20
-2258.916015625
 10
2298.720703125
 20
-2248.96484375
 10
2308.671875
 20
-2239.013671875
 10
2318.623046875
 20
-2229.0625
 10
2328.57421875
 20
-2229.0625
 10
2338.525390625
 20
-2219.111328125
 10
2348.4765625
 20
-2219.111328125
 10
2358.427734375
 20
-2209.16015625
 10
2368.37890625
 20
-2209.16015625
 10
2378.330078125
 20
-2199.208984375
 10
2388.28125
 20
-2199.208984375
 10
2398.232421875
 20
-2189.2578125
 10
2408.18359375
 20
-2189.2578125
 10
2418.134765625
 20
-2179.306640625
 10
2428.0859375
 20
-2179.306640625
 10
2438.037109375
 20
-2179.306640625
 10
2447.98828125
 20
-2169.35546875
 10
2457.939453125
 20
-2169.35546875
 10
2467.890625
 20
-2169.35546875
  0
ENDSEC
  0
SECTION
  2
OBJECTS
  0
DICTIONARY
  5
A
330
0
100
AcDbDictionary
280
0
281
1
  3
ACAD_COLOR
350
B
  3
ACAD_GROUP
350
C
  3
ACAD_LAYOUT
350
D
  3
ACAD_MATERIAL
350
E
  3
ACAD_MLEADERSTYLE
350
F
  3
ACAD_MLINESTYLE
350
10
  3
ACAD_PLOTSETTINGS
350
11
  3
ACAD_PLOTSTYLENAME
350
12
  3
ACAD_SCALELIST
350
14
  3
ACAD_TABLESTYLE
350
15
  3
ACAD_VISUALSTYLE
350
16
  3
EZDXF_META
350
2D
  0
DICTIONARY
  5
B
330
A
100
AcDbDictionary
280
0
281
1
  0
DICTIONARY
  5
C
330
A
100
AcDbDictionary
280
0
281
1
  0
DICTIONARY
  5
D
330
A
100
AcDbDictionary
280
0
281
1
  3
Model
350
1A
  3
Layout1
350
1E
  0
DICTIONARY
  5
E
330
A
100
AcDbDictionary
280
0
281
1
  3
ByBlock
350
1F
  3
ByLayer
350
20
  3
Global
350
21
  0
DICTIONARY
  5
F
330
A
100
AcDbDictionary
280
0
281
1
  3
Standard
350
2C
  0
DICTIONARY
  5
10
330
A
100
AcDbDictionary
280
0
281
1
  3
Standard
350
22
  0
DICTIONARY
  5
11
330
A
100
AcDbDictionary
280
0
281
1
  0
ACDBDICTIONARYWDFLT
  5
12
330
A
100
AcDbDictionary
280
0
281
1
  3
Normal
350
13
100
AcDbDictionaryWithDefault
340
13
  0
ACDBPLACEHOLDER
  5
13
330
12
  0
DICTIONARY
  5
14
330
A
100
AcDbDictionary
280
0
281
1
  0
DICTIONARY
  5
15
330
A
100
AcDbDictionary
280
0
281
1
  0
DICTIONARY
  5
16
330
A
100
AcDbDictionary
280
0
281
1
  0
LAYOUT
  5
1A
330
D
100
AcDbPlotSettings
  1

  2
Adobe PDF
  4
A3
  6

 40
7.5
 41
20.0
 42
7.5
 43
20.0
 44
420.0
 45
297.0
 46
0.0
 47
0.0
 48
0.0
 49
0.0
140
0.0
141
0.0
142
1.0
143
1.0
 70
1024
 72
1
 73
0
 74
5
  7

 75
16
 76
0
 77
2
 78
300
147
1.0
148
0.0
149
0.0
100
AcDbLayout
  1
Model
 70
1
 71
0
 10
0.0
 20
0.0
 11
420.0
 21
297.0
 12
0.0
 22
0.0
 32
0.0
 14
1e+20
 24
1e+20
 34
1e+20
 15
-1e+20
 25
-1e+20
 35
-1e+20
146
0.0
 13
0.0
 23
0.0
 33
0.0
 16
1.0
 26
0.0
 36
0.0
 17
0.0
 27
1.0
 37
0.0
 76
1
330
17
  0
LAYOUT
  5
1E
330
D
100
AcDbPlotSettings
  1

  2
Adobe PDF
  4
A3
  6

 40
7.5
 41
20.0
 42
7.5
 43
20.0
 44
420.0
 45
297.0
 46
0.0
 47
0.0
 48
0.0
 49
0.0
140
0.0
141
0.0
142
1.0
143
1.0
 70
0
 72
1
 73
0
 74
5
  7

 75
16
 76
0
 77
2
 78
300
147
1.0
148
0.0
149
0.0
100
AcDbLayout
  1
Layout1
 70
1
 71
1
 10
0.0
 20
0.0
 11
420.0
 21
297.0
 12
0.0
 22
0.0
 32
0.0
 14
1e+20
 24
1e+20
 34
1e+20
 15
-1e+20
 25
-1e+20
 35
-1e+20
146
0.0
 13
0.0
 23
0.0
 33
0.0
 16
1.0
 26
0.0
 36
0.0
 17
0.0
 27
1.0
 37
0.0
 76
1
330
1B
  0
MATERIAL
  5
1F
102
{ACAD_REACTORS
330
E
102
}
330
E
100
AcDbMaterial
  1
ByBlock
  2

 70
0
 40
1.0
 71
1
 41
1.0
 91
-1023410177
 42
1.0
 72
1
  3

 73
1
 74
1
 75
1
 44
0.5
 73
0
 45
1.0
 46
1.0
 77
1
  4

 78
1
 79
1
170
1
 48
1.0
171
1
  6

172
1
173
1
174
1
140
1.0
141
1.0
175
1
  7

176
1
177
1
178
1
143
1.0
179
1
  8

270
1
271
1
272
1
145
1.0
146
1.0
273
1
  9

274
1
275
1
276
1
 42
1.0
 72
1
  3

 73
1
 74
1
 75
1
 94
63
  0
MATERIAL
  5
20
102
{ACAD_REACTORS
330
E
102
}
330
E
100
AcDbMaterial
  1
ByLayer
  2

 70
0
 40
1.0
 71
1
 41
1.0
 91
-1023410177
 42
1.0
 72
1
  3

 73
1
 74
1
 75
1
 44
0.5
 73
0
 45
1.0
 46
1.0
 77
1
  4

 78
1
 79
1
170
1
 48
1.0
171
1
  6

172
1
173
1
174
1
140
1.0
141
1.0
175
1
  7

176
1
177
1
178
1
143
1.0
179
1
  8

270
1
271
1
272
1
145
1.0
146
1.0
273
1
  9

274
1
275
1
276
1
 42
1.0
 72
1
  3

 73
1
 74
1
 75
1
 94
63
  0
MATERIAL
  5
21
102
{ACAD_REACTORS
330
E
102
}
330
E
100
AcDbMaterial
  1
Global
  2

 70
0
 40
1.0
 71
1
 41
1.0
 91
-1023410177
 42
1.0
 72
1
  3

 73
1
 74
1
 75
1
 44
0.5
 73
0
 45
1.0
 46
1.0
 77
1
  4

 78
1
 79
1
170
1
 48
1.0
171
1
  6

172
1
173
1
174
1
140
1.0
141
1.0
175
1
  7

176
1
177
1
178
1
143
1.0
179
1
  8

270
1
271
1
272
1
145
1.0
146
1.0
273
1
  9

274
1
275
1
276
1
 42
1.0
 72
1
  3

 73
1
 74
1
 75
1
 94
63
  0
MLINESTYLE
  5
22
102
{ACAD_REACTORS
330
10
102
}
330
10
100
AcDbMlineStyle
  2
Standard
 70
0
  3

 62
256
 51
90.0
 52
90.0
 71
2
 49
0.5
 62
256
  6
BYLAYER
 49
-0.5
 62
256
  6
BYLAYER
  0
MLEADERSTYLE
  5
2C
102
{ACAD_REACTORS
330
F
102
}
330
F
100
AcDbMLeaderStyle
179
2
170
2
171
1
172
0
 90
2
 40
0.0
 41
0.0
173
1
 91
-1056964608
 92
-2
290
1
 42
2.0
291
1
 43
8.0
  3
Standard
 44
4.0
300

342
29
174
1
175
1
176
0
178
1
 93
-1056964608
 45
4.0
292
0
297
0
 46
4.0
 94
-1056964608
 47
1.0
 49
1.0
140
1.0
294
1
141
0.0
177
0
142
1.0
295
0
296
0
143
3.75
271
0
272
9
273
9
  0
DICTIONARY
  5
2D
330
A
100
AcDbDictionary
281
1
  3
CREATED_BY_EZDXF
350
2E
  3
WRITTEN_BY_EZDXF
350
3A
  0
DICTIONARYVAR
  5
2E
330
2D
100
DictionaryVariables
280
0
  1
1.1.0 @ 2024-12-31T12:33:31.747877+00:00
  0
DICTIONARYVAR
  5
3A
330
2D
100
DictionaryVariables
280
0
  1
1.1.0 @ 2024-12-31T12:33:31.752727+00:00
  0
ENDSEC
  0
EOF
