  0
SECTION
  2
HEADER
  9
$ACADVER
  1
AC1027
  9
$ACADMAINTVER
 70
105
  9
$DWGCODEPAGE
  3
ANSI_1252
  9
$LASTSAVEDBY
  1
ezdxf
  9
$REQUIREDVERSIONS
160
0
  9
$INSBASE
 10
0.0
 20
0.0
 30
0.0
  9
$EXTMIN
 10
1e+20
 20
1e+20
 30
1e+20
  9
$EXTMAX
 10
-1e+20
 20
-1e+20
 30
-1e+20
  9
$LIMMIN
 10
0.0
 20
0.0
  9
$LIMMAX
 10
420.0
 20
297.0
  9
$ORTHOMODE
 70
0
  9
$REGENMODE
 70
1
  9
$FILLMODE
 70
1
  9
$QTEXTMODE
 70
0
  9
$MIRRTEXT
 70
1
  9
$LTSCALE
 40
1.0
  9
$ATTMODE
 70
1
  9
$TEXTSIZE
 40
2.5
  9
$TRACEWID
 40
1.0
  9
$TEXTSTYLE
  7
Standard
  9
$CLAYER
  8
0
  9
$CELTYPE
  6
ByLayer
  9
$CECOLOR
 62
256
  9
$CELTSCALE
 40
1.0
  9
$DISPSILH
 70
0
  9
$DIMSCALE
 40
1.0
  9
$DIMASZ
 40
2.5
  9
$DIMEXO
 40
0.625
  9
$DIMDLI
 40
3.75
  9
$DIMRND
 40
0.0
  9
$DIMDLE
 40
0.0
  9
$DIMEXE
 40
1.25
  9
$DIMTP
 40
0.0
  9
$DIMTM
 40
0.0
  9
$DIMTXT
 40
2.5
  9
$DIMCEN
 40
2.5
  9
$DIMTSZ
 40
0.0
  9
$DIMTOL
 70
0
  9
$DIMLIM
 70
0
  9
$DIMTIH
 70
0
  9
$DIMTOH
 70
0
  9
$DIMSE1
 70
0
  9
$DIMSE2
 70
0
  9
$DIMTAD
 70
1
  9
$DIMZIN
 70
8
  9
$DIMBLK
  1

  9
$DIMASO
 70
1
  9
$DIMSHO
 70
1
  9
$DIMPOST
  1

  9
$DIMAPOST
  1

  9
$DIMALT
 70
0
  9
$DIMALTD
 70
3
  9
$DIMALTF
 40
0.03937007874
  9
$DIMLFAC
 40
1.0
  9
$DIMTOFL
 70
1
  9
$DIMTVP
 40
0.0
  9
$DIMTIX
 70
0
  9
$DIMSOXD
 70
0
  9
$DIMSAH
 70
0
  9
$DIMBLK1
  1

  9
$DIMBLK2
  1

  9
$DIMSTYLE
  2
ISO-25
  9
$DIMCLRD
 70
0
  9
$DIMCLRE
 70
0
  9
$DIMCLRT
 70
0
  9
$DIMTFAC
 40
1.0
  9
$DIMGAP
 40
0.625
  9
$DIMJUST
 70
0
  9
$DIMSD1
 70
0
  9
$DIMSD2
 70
0
  9
$DIMTOLJ
 70
0
  9
$DIMTZIN
 70
8
  9
$DIMALTZ
 70
0
  9
$DIMALTTZ
 70
0
  9
$DIMUPT
 70
0
  9
$DIMDEC
 70
2
  9
$DIMTDEC
 70
2
  9
$DIMALTU
 70
2
  9
$DIMALTTD
 70
3
  9
$DIMTXSTY
  7
Standard
  9
$DIMAUNIT
 70
0
  9
$DIMADEC
 70
0
  9
$DIMALTRND
 40
0.0
  9
$DIMAZIN
 70
0
  9
$DIMDSEP
 70
44
  9
$DIMATFIT
 70
3
  9
$DIMFRAC
 70
0
  9
$DIMLDRBLK
  1

  9
$DIMLUNIT
 70
2
  9
$DIMLWD
 70
-2
  9
$DIMLWE
 70
-2
  9
$DIMTMOVE
 70
0
  9
$DIMFXL
 40
1.0
  9
$DIMFXLON
 70
0
  9
$DIMJOGANG
 40
0.785398163397
  9
$DIMTFILL
 70
0
  9
$DIMTFILLCLR
 70
0
  9
$DIMARCSYM
 70
0
  9
$DIMLTYPE
  6

  9
$DIMLTEX1
  6

  9
$DIMLTEX2
  6

  9
$DIMTXTDIRECTION
 70
0
  9
$LUNITS
 70
2
  9
$LUPREC
 70
4
  9
$SKETCHINC
 40
1.0
  9
$FILLETRAD
 40
10.0
  9
$AUNITS
 70
0
  9
$AUPREC
 70
2
  9
$MENU
  1
.
  9
$ELEVATION
 40
0.0
  9
$PELEVATION
 40
0.0
  9
$THICKNESS
 40
0.0
  9
$LIMCHECK
 70
0
  9
$CHAMFERA
 40
0.0
  9
$CHAMFERB
 40
0.0
  9
$CHAMFERC
 40
0.0
  9
$CHAMFERD
 40
0.0
  9
$SKPOLY
 70
0
  9
$TDCREATE
 40
2460737.661979167
  9
$TDUCREATE
 40
2458532.153996898
  9
$TDUPDATE
 40
2460737.661979167
  9
$TDUUPDATE
 40
2458532.1544311
  9
$TDINDWG
 40
0.0
  9
$TDUSRTIMER
 40
0.0
  9
$USRTIMER
 70
1
  9
$ANGBASE
 50
0.0
  9
$ANGDIR
 70
0
  9
$PDMODE
 70
0
  9
$PDSIZE
 40
0.0
  9
$PLINEWID
 40
0.0
  9
$SPLFRAME
 70
0
  9
$SPLINETYPE
 70
6
  9
$SPLINESEGS
 70
8
  9
$HANDSEED
  5
FD
  9
$SURFTAB1
 70
6
  9
$SURFTAB2
 70
6
  9
$SURFTYPE
 70
6
  9
$SURFU
 70
6
  9
$SURFV
 70
6
  9
$UCSBASE
  2

  9
$UCSNAME
  2

  9
$UCSORG
 10
0.0
 20
0.0
 30
0.0
  9
$UCSXDIR
 10
1.0
 20
0.0
 30
0.0
  9
$UCSYDIR
 10
0.0
 20
1.0
 30
0.0
  9
$UCSORTHOREF
  2

  9
$UCSORTHOVIEW
 70
0
  9
$UCSORGTOP
 10
0.0
 20
0.0
 30
0.0
  9
$UCSORGBOTTOM
 10
0.0
 20
0.0
 30
0.0
  9
$UCSORGLEFT
 10
0.0
 20
0.0
 30
0.0
  9
$UCSORGRIGHT
 10
0.0
 20
0.0
 30
0.0
  9
$UCSORGFRONT
 10
0.0
 20
0.0
 30
0.0
  9
$UCSORGBACK
 10
0.0
 20
0.0
 30
0.0
  9
$PUCSBASE
  2

  9
$PUCSNAME
  2

  9
$PUCSORG
 10
0.0
 20
0.0
 30
0.0
  9
$PUCSXDIR
 10
1.0
 20
0.0
 30
0.0
  9
$PUCSYDIR
 10
0.0
 20
1.0
 30
0.0
  9
$PUCSORTHOREF
  2

  9
$PUCSORTHOVIEW
 70
0
  9
$PUCSORGTOP
 10
0.0
 20
0.0
 30
0.0
  9
$PUCSORGBOTTOM
 10
0.0
 20
0.0
 30
0.0
  9
$PUCSORGLEFT
 10
0.0
 20
0.0
 30
0.0
  9
$PUCSORGRIGHT
 10
0.0
 20
0.0
 30
0.0
  9
$PUCSORGFRONT
 10
0.0
 20
0.0
 30
0.0
  9
$PUCSORGBACK
 10
0.0
 20
0.0
 30
0.0
  9
$USERI1
 70
0
  9
$USERI2
 70
0
  9
$USERI3
 70
0
  9
$USERI4
 70
0
  9
$USERI5
 70
0
  9
$USERR1
 40
0.0
  9
$USERR2
 40
0.0
  9
$USERR3
 40
0.0
  9
$USERR4
 40
0.0
  9
$USERR5
 40
0.0
  9
$WORLDVIEW
 70
1
  9
$SHADEDGE
 70
3
  9
$SHADEDIF
 70
70
  9
$TILEMODE
 70
1
  9
$MAXACTVP
 70
64
  9
$PINSBASE
 10
0.0
 20
0.0
 30
0.0
  9
$PLIMCHECK
 70
0
  9
$PEXTMIN
 10
1e+20
 20
1e+20
 30
1e+20
  9
$PEXTMAX
 10
-1e+20
 20
-1e+20
 30
-1e+20
  9
$PLIMMIN
 10
0.0
 20
0.0
  9
$PLIMMAX
 10
420.0
 20
297.0
  9
$UNITMODE
 70
0
  9
$VISRETAIN
 70
1
  9
$PLINEGEN
 70
0
  9
$PSLTSCALE
 70
1
  9
$TREEDEPTH
 70
3020
  9
$CMLSTYLE
  2
Standard
  9
$CMLJUST
 70
0
  9
$CMLSCALE
 40
20.0
  9
$PROXYGRAPHICS
 70
1
  9
$MEASUREMENT
 70
1
  9
$CELWEIGHT
370
-1
  9
$ENDCAPS
280
0
  9
$JOINSTYLE
280
0
  9
$LWDISPLAY
290
0
  9
$INSUNITS
 70
6
  9
$HYPERLINKBASE
  1

  9
$STYLESHEET
  1

  9
$XEDIT
290
1
  9
$CEPSNTYPE
380
0
  9
$PSTYLEMODE
290
1
  9
$FINGERPRINTGUID
  2
{C66F93D1-3CC2-425C-A357-27B3B3407D34}
  9
$VERSIONGUID
  2
{F37B8E9F-4FFD-40D9-90A1-5B8DBC0F9435}
  9
$EXTNAMES
290
1
  9
$PSVPSCALE
 40
0.0
  9
$OLESTARTUP
290
0
  9
$SORTENTS
280
127
  9
$INDEXCTL
280
0
  9
$HIDETEXT
280
1
  9
$XCLIPFRAME
280
0
  9
$HALOGAP
280
0
  9
$OBSCOLOR
 70
257
  9
$OBSLTYPE
280
0
  9
$INTERSECTIONDISPLAY
280
0
  9
$INTERSECTIONCOLOR
 70
257
  9
$DIMASSOC
280
2
  9
$PROJECTNAME
  1

  9
$CAMERADISPLAY
290
0
  9
$LENSLENGTH
 40
50.0
  9
$CAMERAHEIGHT
 40
0.0
  9
$STEPSPERSEC
 40
24.0
  9
$STEPSIZE
 40
100.0
  9
$3DDWFPREC
 40
2.0
  9
$PSOLWIDTH
 40
0.005
  9
$PSOLHEIGHT
 40
0.08
  9
$LOFTANG1
 40
1.570796326795
  9
$LOFTANG2
 40
1.570796326795
  9
$LOFTMAG1
 40
0.0
  9
$LOFTMAG2
 40
0.0
  9
$LOFTPARAM
 70
7
  9
$LOFTNORMALS
280
1
  9
$LATITUDE
 40
37.795
  9
$LONGITUDE
 40
-122.394
  9
$NORTHDIRECTION
 40
0.0
  9
$TIMEZONE
 70
-8000
  9
$LIGHTGLYPHDISPLAY
280
1
  9
$TILEMODELIGHTSYNCH
280
1
  9
$CMATERIAL
347
20
  9
$SOLIDHIST
280
0
  9
$SHOWHIST
280
1
  9
$DWFFRAME
280
2
  9
$DGNFRAME
280
2
  9
$REALWORLDSCALE
290
1
  9
$INTERFERECOLOR
 62
256
  9
$CSHADOW
280
0
  9
$SHADOWPLANELOCATION
 40
0.0
  0
ENDSEC
  0
SECTION
  2
CLASSES
  0
CLASS
  1
ACDBDICTIONARYWDFLT
  2
AcDbDictionaryWithDefault
  3
ObjectDBX Classes
 90
0
 91
0
280
0
281
0
  0
CLASS
  1
SUN
  2
AcDbSun
  3
SCENEOE
 90
1153
 91
0
280
0
281
0
  0
CLASS
  1
VISUALSTYLE
  2
AcDbVisualStyle
  3
ObjectDBX Classes
 90
4095
 91
0
280
0
281
0
  0
CLASS
  1
MATERIAL
  2
AcDbMaterial
  3
ObjectDBX Classes
 90
1153
 91
0
280
0
281
0
  0
CLASS
  1
SCALE
  2
AcDbScale
  3
ObjectDBX Classes
 90
1153
 91
0
280
0
281
0
  0
CLASS
  1
TABLESTYLE
  2
AcDbTableStyle
  3
ObjectDBX Classes
 90
4095
 91
0
280
0
281
0
  0
CLASS
  1
MLEADERSTYLE
  2
AcDbMLeaderStyle
  3
ACDB_MLEADERSTYLE_CLASS
 90
4095
 91
0
280
0
281
0
  0
CLASS
  1
DICTIONARYVAR
  2
AcDbDictionaryVar
  3
ObjectDBX Classes
 90
0
 91
0
280
0
281
0
  0
CLASS
  1
CELLSTYLEMAP
  2
AcDbCellStyleMap
  3
ObjectDBX Classes
 90
1152
 91
0
280
0
281
0
  0
CLASS
  1
MENTALRAYRENDERSETTINGS
  2
AcDbMentalRayRenderSettings
  3
SCENEOE
 90
1024
 91
0
280
0
281
0
  0
CLASS
  1
ACDBDETAILVIEWSTYLE
  2
AcDbDetailViewStyle
  3
ObjectDBX Classes
 90
1025
 91
0
280
0
281
0
  0
CLASS
  1
ACDBSECTIONVIEWSTYLE
  2
AcDbSectionViewStyle
  3
ObjectDBX Classes
 90
1025
 91
0
280
0
281
0
  0
CLASS
  1
RASTERVARIABLES
  2
AcDbRasterVariables
  3
ISM
 90
0
 91
0
280
0
281
0
  0
CLASS
  1
ACDBPLACEHOLDER
  2
AcDbPlaceHolder
  3
ObjectDBX Classes
 90
0
 91
0
280
0
281
0
  0
CLASS
  1
LAYOUT
  2
AcDbLayout
  3
ObjectDBX Classes
 90
0
 91
0
280
0
281
0
  0
ENDSEC
  0
SECTION
  2
TABLES
  0
TABLE
  2
VPORT
  5
8
330
0
100
AcDbSymbolTable
 70
1
  0
VPORT
  5
23
330
8
100
AcDbSymbolTableRecord
100
AcDbViewportTableRecord
  2
*Active
 70
0
 10
0.0
 20
0.0
 11
1.0
 21
1.0
 12
0.0
 22
0.0
 13
0.0
 23
0.0
 14
0.5
 24
0.5
 15
0.5
 25
0.5
 16
0.0
 26
0.0
 36
1.0
 17
0.0
 27
0.0
 37
0.0
 40
1000.0
 41
1.34
 42
50.0
 43
0.0
 44
0.0
 50
0.0
 51
0.0
 71
0
 72
1000
 73
1
 74
3
 75
0
 76
0
 77
0
 78
0
281
0
 65
0
146
0.0
  0
ENDTAB
  0
TABLE
  2
LTYPE
  5
2
330
0
100
AcDbSymbolTable
 70
3
  0
LTYPE
  5
24
330
2
100
AcDbSymbolTableRecord
100
AcDbLinetypeTableRecord
  2
ByBlock
 70
0
  3

 72
65
 73
0
 40
0.0
  0
LTYPE
  5
25
330
2
100
AcDbSymbolTableRecord
100
AcDbLinetypeTableRecord
  2
ByLayer
 70
0
  3

 72
65
 73
0
 40
0.0
  0
LTYPE
  5
26
330
2
100
AcDbSymbolTableRecord
100
AcDbLinetypeTableRecord
  2
Continuous
 70
0
  3

 72
65
 73
0
 40
0.0
  0
ENDTAB
  0
TABLE
  2
LAYER
  5
1
330
0
100
AcDbSymbolTable
 70
5
  0
LAYER
  5
27
330
1
100
AcDbSymbolTableRecord
100
AcDbLayerTableRecord
  2
0
 70
0
 62
7
  6
Continuous
370
-3
390
13
347
21
  0
LAYER
  5
28
330
1
100
AcDbSymbolTableRecord
100
AcDbLayerTableRecord
  2
Defpoints
 70
0
 62
7
  6
Continuous
290
0
370
-3
390
13
347
21
  0
LAYER
  5
2F
330
1
100
AcDbSymbolTableRecord
100
AcDbLayerTableRecord
  2
conductor
 70
0
 62
1
  6
Continuous
370
-3
390
13
347
21
  0
LAYER
  5
30
330
1
100
AcDbSymbolTableRecord
100
AcDbLayerTableRecord
  2
dielectric
 70
0
 62
8
  6
Continuous
370
-3
390
13
347
21
  0
LAYER
  5
31
330
1
100
AcDbSymbolTableRecord
100
AcDbLayerTableRecord
  2
substrate
 70
0
 62
5
  6
Continuous
370
-3
390
13
347
21
  0
ENDTAB
  0
TABLE
  2
STYLE
  5
5
330
0
100
AcDbSymbolTable
 70
1
  0
STYLE
  5
29
330
5
100
AcDbSymbolTableRecord
100
AcDbTextStyleTableRecord
  2
Standard
 70
0
 40
0.0
 41
1.0
 50
0.0
 71
0
 42
2.5
  3
txt
  4

  0
ENDTAB
  0
TABLE
  2
VIEW
  5
7
330
0
100
AcDbSymbolTable
 70
0
  0
ENDTAB
  0
TABLE
  2
UCS
  5
6
330
0
100
AcDbSymbolTable
 70
0
  0
ENDTAB
  0
TABLE
  2
APPID
  5
3
330
0
100
AcDbSymbolTable
 70
3
  0
APPID
  5
2A
330
3
100
AcDbSymbolTableRecord
100
AcDbRegAppTableRecord
  2
ACAD
 70
0
  0
APPID
  5
FA
330
3
100
AcDbSymbolTableRecord
100
AcDbRegAppTableRecord
  2
HATCHBACKGROUNDCOLOR
 70
0
  0
APPID
  5
FB
330
3
100
AcDbSymbolTableRecord
100
AcDbRegAppTableRecord
  2
EZDXF
 70
0
  0
ENDTAB
  0
TABLE
  2
DIMSTYLE
  5
4
330
0
100
AcDbSymbolTable
 70
1
100
AcDbDimStyleTable
  0
DIMSTYLE
105
2B
330
4
100
AcDbSymbolTableRecord
100
AcDbDimStyleTableRecord
  2
Standard
 70
0
 40
1.0
 41
2.5
 42
0.625
 43
3.75
 44
1.25
 45
0.0
 46
0.0
 47
0.0
 48
0.0
 49
2.5
140
2.5
141
2.5
142
0.0
143
0.03937007874
144
1.0
145
0.0
146
1.0
147
0.625
148
0.0
 69
0
 70
0
 71
0
 72
0
 73
0
 74
0
 75
0
 76
0
 77
1
 78
8
 79
3
170
0
171
3
172
1
173
0
174
0
175
0
176
0
177
0
178
0
179
2
271
2
272
2
273
2
274
3
275
0
276
0
277
2
278
44
279
0
280
0
281
0
282
0
283
0
284
8
285
0
286
0
288
0
289
3
290
0
371
-2
372
-2
  0
ENDTAB
  0
TABLE
  2
BLOCK_RECORD
  5
9
330
0
100
AcDbSymbolTable
 70
2
  0
BLOCK_RECORD
  5
17
330
9
100
AcDbSymbolTableRecord
100
AcDbBlockTableRecord
  2
*Model_Space
340
1A
 70
0
280
1
281
0
  0
BLOCK_RECORD
  5
1B
330
9
100
AcDbSymbolTableRecord
100
AcDbBlockTableRecord
  2
*Paper_Space
340
1E
 70
0
280
1
281
0
  0
ENDTAB
  0
ENDSEC
  0
SECTION
  2
BLOCKS
  0
BLOCK
  5
18
330
17
100
AcDbEntity
  8
0
100
AcDbBlockBegin
  2
*Model_Space
 70
0
 10
0.0
 20
0.0
 30
0.0
  3
*Model_Space
  1

  0
ENDBLK
  5
19
330
17
100
AcDbEntity
  8
0
100
AcDbBlockEnd
  0
BLOCK
  5
1C
330
1B
100
AcDbEntity
  8
0
100
AcDbBlockBegin
  2
*Paper_Space
 70
0
 10
0.0
 20
0.0
 30
0.0
  3
*Paper_Space
  1

  0
ENDBLK
  5
1D
330
1B
100
AcDbEntity
  8
0
100
AcDbBlockEnd
  0
ENDSEC
  0
SECTION
  2
ENTITIES
  0
LWPOLYLINE
  5
32
330
17
100
AcDbEntity
  8
conductor
100
AcDbPolyline
 90
196
 70
1
 43
0.5
 10
2470.78125
 20
-2185.3125
 10
2460.9375
 20
-2195.15625
 10
2451.09375
 20
-2195.15625
 10
2441.25
 20
-2195.15625
 10
2431.40625
 20
-2205.0
 10
2421.5625
 20
-2205.0
 10
2411.71875
 20
-2214.84375
 10
2401.875
 20
-2214.84375
 10
2392.03125
 20
-2224.6875
 10
2382.1875
 20
-2224.6875
 10
2372.34375
 20
-2224.6875
 10
2362.5
 20
-2234.53125
 10
2352.65625
 20
-2234.53125
 10
2342.8125
 20
-2244.375
 10
2332.96875
 20
-2244.375
 10
2323.125
 20
-2244.375
 10
2313.28125
 20
-2254.21875
 10
2303.4375
 20
-2264.0625
 10
2303.4375
 20
-2273.90625
 10
2293.59375
 20
-2283.75
 10
2283.75
 20
-2293.59375
 10
2273.90625
 20
-2293.59375
 10
2264.0625
 20
-2303.4375
 10
2264.0625
 20
-2313.28125
 10
2254.21875
 20
-2323.125
 10
2244.375
 20
-2323.125
 10
2234.53125
 20
-2323.125
 10
2234.53125
 20
-2332.96875
 10
2224.6875
 20
-2342.8125
 10
2224.6875
 20
-2352.65625
 10
2214.84375
 20
-2362.5
 10
2214.84375
 20
-2372.34375
 10
2205.0
 20
-2382.1875
 10
2205.0
 20
-2392.03125
 10
2195.15625
 20
-2401.875
 10
2195.15625
 20
-2411.71875
 10
2195.15625
 20
-2421.5625
 10
2195.15625
 20
-2431.40625
 10
2195.15625
 20
-2441.25
 10
2195.15625
 20
-2451.09375
 10
2195.15625
 20
-2460.9375
 10
2195.15625
 20
-2470.78125
 10
2185.3125
 20
-2480.625
 10
2185.3125
 20
-2490.46875
 10
2185.3125
 20
-2500.3125
 10
2185.3125
 20
-2510.15625
 10
2185.3125
 20
-2520.0
 10
2185.3125
 20
-2529.84375
 10
2195.15625
 20
-2539.6875
 10
2195.15625
 20
-2549.53125
 10
2195.15625
 20
-2559.375
 10
2195.15625
 20
-2569.21875
 10
2195.15625
 20
-2579.0625
 10
2205.0
 20
-2588.90625
 10
2214.84375
 20
-2598.75
 10
2214.84375
 20
-2608.59375
 10
2205.0
 20
-2618.4375
 10
2214.84375
 20
-2628.28125
 10
2214.84375
 20
-2638.125
 10
2224.6875
 20
-2647.96875
 10
2234.53125
 20
-2657.8125
 10
2224.6875
 20
-2667.65625
 10
2234.53125
 20
-2677.5
 10
2244.375
 20
-2687.34375
 10
2254.21875
 20
-2697.1875
 10
2254.21875
 20
-2707.03125
 10
2264.0625
 20
-2716.875
 10
2264.0625
 20
-2726.71875
 10
2273.90625
 20
-2736.5625
 10
2283.75
 20
-2746.40625
 10
2293.59375
 20
-2746.40625
 10
2303.4375
 20
-2756.25
 10
2313.28125
 20
-2766.09375
 10
2323.125
 20
-2775.9375
 10
2332.96875
 20
-2775.9375
 10
2342.8125
 20
-2785.78125
 10
2352.65625
 20
-2785.78125
 10
2362.5
 20
-2795.625
 10
2372.34375
 20
-2805.46875
 10
2382.1875
 20
-2805.46875
 10
2392.03125
 20
-2815.3125
 10
2401.875
 20
-2825.15625
 10
2411.71875
 20
-2835.0
 10
2421.5625
 20
-2835.0
 10
2431.40625
 20
-2844.84375
 10
2441.25
 20
-2844.84375
 10
2451.09375
 20
-2835.0
 10
2460.9375
 20
-2835.0
 10
2470.78125
 20
-2844.84375
 10
2480.625
 20
-2835.0
 10
2490.46875
 20
-2835.0
 10
2500.3125
 20
-2844.84375
 10
2510.15625
 20
-2844.84375
 10
2520.0
 20
-2844.84375
 10
2529.84375
 20
-2854.6875
 10
2539.6875
 20
-2854.6875
 10
2549.53125
 20
-2854.6875
 10
2559.375
 20
-2854.6875
 10
2569.21875
 20
-2854.6875
 10
2579.0625
 20
-2844.84375
 10
2588.90625
 20
-2854.6875
 10
2598.75
 20
-2844.84375
 10
2608.59375
 20
-2844.84375
 10
2618.4375
 20
-2835.0
 10
2628.28125
 20
-2825.15625
 10
2638.125
 20
-2825.15625
 10
2647.96875
 20
-2825.15625
 10
2657.8125
 20
-2815.3125
 10
2667.65625
 20
-2805.46875
 10
2677.5
 20
-2805.46875
 10
2687.34375
 20
-2795.625
 10
2697.1875
 20
-2785.78125
 10
2707.03125
 20
-2775.9375
 10
2716.875
 20
-2775.9375
 10
2726.71875
 20
-2766.09375
 10
2736.5625
 20
-2756.25
 10
2736.5625
 20
-2746.40625
 10
2736.5625
 20
-2736.5625
 10
2736.5625
 20
-2726.71875
 10
2746.40625
 20
-2716.875
 10
2756.25
 20
-2707.03125
 10
2766.09375
 20
-2707.03125
 10
2775.9375
 20
-2707.03125
 10
2785.78125
 20
-2697.1875
 10
2785.78125
 20
-2687.34375
 10
2795.625
 20
-2677.5
 10
2805.46875
 20
-2667.65625
 10
2805.46875
 20
-2657.8125
 10
2815.3125
 20
-2647.96875
 10
2815.3125
 20
-2638.125
 10
2825.15625
 20
-2628.28125
 10
2825.15625
 20
-2618.4375
 10
2825.15625
 20
-2608.59375
 10
2825.15625
 20
-2598.75
 10
2825.15625
 20
-2588.90625
 10
2835.0
 20
-2579.0625
 10
2825.15625
 20
-2569.21875
 10
2825.15625
 20
-2559.375
 10
2825.15625
 20
-2549.53125
 10
2825.15625
 20
-2539.6875
 10
2825.15625
 20
-2529.84375
 10
2825.15625
 20
-2520.0
 10
2835.0
 20
-2510.15625
 10
2835.0
 20
-2500.3125
 10
2835.0
 20
-2490.46875
 10
2835.0
 20
-2480.625
 10
2835.0
 20
-2470.78125
 10
2844.84375
 20
-2460.9375
 10
2835.0
 20
-2451.09375
 10
2825.15625
 20
-2441.25
 10
2825.15625
 20
-2431.40625
 10
2825.15625
 20
-2421.5625
 10
2815.3125
 20
-2411.71875
 10
2825.15625
 20
-2401.875
 10
2815.3125
 20
-2392.03125
 10
2805.46875
 20
-2382.1875
 10
2795.625
 20
-2372.34375
 10
2795.625
 20
-2362.5
 10
2795.625
 20
-2352.65625
 10
2785.78125
 20
-2352.65625
 10
2775.9375
 20
-2342.8125
 10
2775.9375
 20
-2332.96875
 10
2775.9375
 20
-2323.125
 10
2775.9375
 20
-2313.28125
 10
2766.09375
 20
-2303.4375
 10
2756.25
 20
-2293.59375
 10
2756.25
 20
-2283.75
 10
2746.40625
 20
-2273.90625
 10
2736.5625
 20
-2273.90625
 10
2726.71875
 20
-2264.0625
 10
2716.875
 20
-2264.0625
 10
2707.03125
 20
-2254.21875
 10
2697.1875
 20
-2254.21875
 10
2687.34375
 20
-2244.375
 10
2677.5
 20
-2234.53125
 10
2667.65625
 20
-2224.6875
 10
2657.8125
 20
-2224.6875
 10
2647.96875
 20
-2214.84375
 10
2647.96875
 20
-2205.0
 10
2638.125
 20
-2205.0
 10
2628.28125
 20
-2205.0
 10
2618.4375
 20
-2195.15625
 10
2608.59375
 20
-2195.15625
 10
2598.75
 20
-2195.15625
 10
2588.90625
 20
-2195.15625
 10
2579.0625
 20
-2185.3125
 10
2569.21875
 20
-2185.3125
 10
2559.375
 20
-2185.3125
 10
2549.53125
 20
-2185.3125
 10
2539.6875
 20
-2185.3125
 10
2529.84375
 20
-2185.3125
 10
2520.0
 20
-2195.15625
 10
2510.15625
 20
-2195.15625
 10
2500.3125
 20
-2195.15625
 10
2490.46875
 20
-2195.15625
 10
2480.625
 20
-2195.15625
  0
LWPOLYLINE
  5
33
330
17
100
AcDbEntity
  8
dielectric
100
AcDbPolyline
 90
1
 70
1
 43
0.5
 10
2155.78125
 20
-2697.1875
  0
LWPOLYLINE
  5
34
330
17
100
AcDbEntity
  8
substrate
100
AcDbPolyline
 90
2044
 70
1
 43
0.5
 10
0.0
 20
-0.0
 10
0.0
 20
-9.84375
 10
0.0
 20
-19.6875
 10
0.0
 20
-29.53125
 10
0.0
 20
-39.375
 10
0.0
 20
-49.21875
 10
0.0
 20
-59.0625
 10
0.0
 20
-68.90625
 10
0.0
 20
-78.75
 10
0.0
 20
-88.59375
 10
0.0
 20
-98.4375
 10
0.0
 20
-108.28125
 10
0.0
 20
-118.125
 10
0.0
 20
-127.96875
 10
0.0
 20
-137.8125
 10
0.0
 20
-147.65625
 10
0.0
 20
-157.5
 10
0.0
 20
-167.34375
 10
0.0
 20
-177.1875
 10
0.0
 20
-187.03125
 10
0.0
 20
-196.875
 10
0.0
 20
-206.71875
 10
0.0
 20
-216.5625
 10
0.0
 20
-226.40625
 10
0.0
 20
-236.25
 10
0.0
 20
-246.09375
 10
0.0
 20
-255.9375
 10
0.0
 20
-265.78125
 10
0.0
 20
-275.625
 10
0.0
 20
-285.46875
 10
0.0
 20
-295.3125
 10
0.0
 20
-305.15625
 10
0.0
 20
-315.0
 10
0.0
 20
-324.84375
 10
0.0
 20
-334.6875
 10
0.0
 20
-344.53125
 10
0.0
 20
-354.375
 10
0.0
 20
-364.21875
 10
0.0
 20
-374.0625
 10
0.0
 20
-383.90625
 10
0.0
 20
-393.75
 10
0.0
 20
-403.59375
 10
0.0
 20
-413.4375
 10
0.0
 20
-423.28125
 10
0.0
 20
-433.125
 10
0.0
 20
-442.96875
 10
0.0
 20
-452.8125
 10
0.0
 20
-462.65625
 10
0.0
 20
-472.5
 10
0.0
 20
-482.34375
 10
0.0
 20
-492.1875
 10
0.0
 20
-502.03125
 10
0.0
 20
-511.875
 10
0.0
 20
-521.71875
 10
0.0
 20
-531.5625
 10
0.0
 20
-541.40625
 10
0.0
 20
-551.25
 10
0.0
 20
-561.09375
 10
0.0
 20
-570.9375
 10
0.0
 20
-580.78125
 10
0.0
 20
-590.625
 10
0.0
 20
-600.46875
 10
0.0
 20
-610.3125
 10
0.0
 20
-620.15625
 10
0.0
 20
-630.0
 10
0.0
 20
-639.84375
 10
0.0
 20
-649.6875
 10
0.0
 20
-659.53125
 10
0.0
 20
-669.375
 10
0.0
 20
-679.21875
 10
0.0
 20
-689.0625
 10
0.0
 20
-698.90625
 10
0.0
 20
-708.75
 10
0.0
 20
-718.59375
 10
0.0
 20
-728.4375
 10
0.0
 20
-738.28125
 10
0.0
 20
-748.125
 10
0.0
 20
-757.96875
 10
0.0
 20
-767.8125
 10
0.0
 20
-777.65625
 10
0.0
 20
-787.5
 10
0.0
 20
-797.34375
 10
0.0
 20
-807.1875
 10
0.0
 20
-817.03125
 10
0.0
 20
-826.875
 10
0.0
 20
-836.71875
 10
0.0
 20
-846.5625
 10
0.0
 20
-856.40625
 10
0.0
 20
-866.25
 10
0.0
 20
-876.09375
 10
0.0
 20
-885.9375
 10
0.0
 20
-895.78125
 10
0.0
 20
-905.625
 10
0.0
 20
-915.46875
 10
0.0
 20
-925.3125
 10
0.0
 20
-935.15625
 10
0.0
 20
-945.0
 10
0.0
 20
-954.84375
 10
0.0
 20
-964.6875
 10
0.0
 20
-974.53125
 10
0.0
 20
-984.375
 10
0.0
 20
-994.21875
 10
0.0
 20
-1004.0625
 10
0.0
 20
-1013.90625
 10
0.0
 20
-1023.75
 10
0.0
 20
-1033.59375
 10
0.0
 20
-1043.4375
 10
0.0
 20
-1053.28125
 10
0.0
 20
-1063.125
 10
0.0
 20
-1072.96875
 10
0.0
 20
-1082.8125
 10
0.0
 20
-1092.65625
 10
0.0
 20
-1102.5
 10
0.0
 20
-1112.34375
 10
0.0
 20
-1122.1875
 10
0.0
 20
-1132.03125
 10
0.0
 20
-1141.875
 10
0.0
 20
-1151.71875
 10
0.0
 20
-1161.5625
 10
0.0
 20
-1171.40625
 10
0.0
 20
-1181.25
 10
0.0
 20
-1191.09375
 10
0.0
 20
-1200.9375
 10
0.0
 20
-1210.78125
 10
0.0
 20
-1220.625
 10
0.0
 20
-1230.46875
 10
0.0
 20
-1240.3125
 10
0.0
 20
-1250.15625
 10
0.0
 20
-1260.0
 10
0.0
 20
-1269.84375
 10
0.0
 20
-1279.6875
 10
0.0
 20
-1289.53125
 10
0.0
 20
-1299.375
 10
0.0
 20
-1309.21875
 10
0.0
 20
-1319.0625
 10
0.0
 20
-1328.90625
 10
0.0
 20
-1338.75
 10
0.0
 20
-1348.59375
 10
0.0
 20
-1358.4375
 10
0.0
 20
-1368.28125
 10
0.0
 20
-1378.125
 10
0.0
 20
-1387.96875
 10
0.0
 20
-1397.8125
 10
0.0
 20
-1407.65625
 10
0.0
 20
-1417.5
 10
0.0
 20
-1427.34375
 10
0.0
 20
-1437.1875
 10
0.0
 20
-1447.03125
 10
0.0
 20
-1456.875
 10
0.0
 20
-1466.71875
 10
0.0
 20
-1476.5625
 10
0.0
 20
-1486.40625
 10
0.0
 20
-1496.25
 10
0.0
 20
-1506.09375
 10
0.0
 20
-1515.9375
 10
0.0
 20
-1525.78125
 10
0.0
 20
-1535.625
 10
0.0
 20
-1545.46875
 10
0.0
 20
-1555.3125
 10
0.0
 20
-1565.15625
 10
0.0
 20
-1575.0
 10
0.0
 20
-1584.84375
 10
0.0
 20
-1594.6875
 10
0.0
 20
-1604.53125
 10
0.0
 20
-1614.375
 10
0.0
 20
-1624.21875
 10
0.0
 20
-1634.0625
 10
0.0
 20
-1643.90625
 10
0.0
 20
-1653.75
 10
0.0
 20
-1663.59375
 10
0.0
 20
-1673.4375
 10
0.0
 20
-1683.28125
 10
0.0
 20
-1693.125
 10
0.0
 20
-1702.96875
 10
0.0
 20
-1712.8125
 10
0.0
 20
-1722.65625
 10
0.0
 20
-1732.5
 10
0.0
 20
-1742.34375
 10
0.0
 20
-1752.1875
 10
0.0
 20
-1762.03125
 10
0.0
 20
-1771.875
 10
0.0
 20
-1781.71875
 10
0.0
 20
-1791.5625
 10
0.0
 20
-1801.40625
 10
0.0
 20
-1811.25
 10
0.0
 20
-1821.09375
 10
0.0
 20
-1830.9375
 10
0.0
 20
-1840.78125
 10
0.0
 20
-1850.625
 10
0.0
 20
-1860.46875
 10
0.0
 20
-1870.3125
 10
0.0
 20
-1880.15625
 10
0.0
 20
-1890.0
 10
0.0
 20
-1899.84375
 10
0.0
 20
-1909.6875
 10
0.0
 20
-1919.53125
 10
0.0
 20
-1929.375
 10
0.0
 20
-1939.21875
 10
0.0
 20
-1949.0625
 10
0.0
 20
-1958.90625
 10
0.0
 20
-1968.75
 10
0.0
 20
-1978.59375
 10
0.0
 20
-1988.4375
 10
0.0
 20
-1998.28125
 10
0.0
 20
-2008.125
 10
0.0
 20
-2017.96875
 10
0.0
 20
-2027.8125
 10
0.0
 20
-2037.65625
 10
0.0
 20
-2047.5
 10
0.0
 20
-2057.34375
 10
0.0
 20
-2067.1875
 10
0.0
 20
-2077.03125
 10
0.0
 20
-2086.875
 10
0.0
 20
-2096.71875
 10
0.0
 20
-2106.5625
 10
0.0
 20
-2116.40625
 10
0.0
 20
-2126.25
 10
0.0
 20
-2136.09375
 10
0.0
 20
-2145.9375
 10
0.0
 20
-2155.78125
 10
0.0
 20
-2165.625
 10
0.0
 20
-2175.46875
 10
0.0
 20
-2185.3125
 10
0.0
 20
-2195.15625
 10
0.0
 20
-2205.0
 10
0.0
 20
-2214.84375
 10
0.0
 20
-2224.6875
 10
0.0
 20
-2234.53125
 10
0.0
 20
-2244.375
 10
0.0
 20
-2254.21875
 10
0.0
 20
-2264.0625
 10
0.0
 20
-2273.90625
 10
0.0
 20
-2283.75
 10
0.0
 20
-2293.59375
 10
0.0
 20
-2303.4375
 10
0.0
 20
-2313.28125
 10
0.0
 20
-2323.125
 10
0.0
 20
-2332.96875
 10
0.0
 20
-2342.8125
 10
0.0
 20
-2352.65625
 10
0.0
 20
-2362.5
 10
0.0
 20
-2372.34375
 10
0.0
 20
-2382.1875
 10
0.0
 20
-2392.03125
 10
0.0
 20
-2401.875
 10
0.0
 20
-2411.71875
 10
0.0
 20
-2421.5625
 10
0.0
 20
-2431.40625
 10
0.0
 20
-2441.25
 10
0.0
 20
-2451.09375
 10
0.0
 20
-2460.9375
 10
0.0
 20
-2470.78125
 10
0.0
 20
-2480.625
 10
0.0
 20
-2490.46875
 10
0.0
 20
-2500.3125
 10
0.0
 20
-2510.15625
 10
0.0
 20
-2520.0
 10
0.0
 20
-2529.84375
 10
0.0
 20
-2539.6875
 10
0.0
 20
-2549.53125
 10
0.0
 20
-2559.375
 10
0.0
 20
-2569.21875
 10
0.0
 20
-2579.0625
 10
0.0
 20
-2588.90625
 10
0.0
 20
-2598.75
 10
0.0
 20
-2608.59375
 10
0.0
 20
-2618.4375
 10
0.0
 20
-2628.28125
 10
0.0
 20
-2638.125
 10
0.0
 20
-2647.96875
 10
0.0
 20
-2657.8125
 10
0.0
 20
-2667.65625
 10
0.0
 20
-2677.5
 10
0.0
 20
-2687.34375
 10
0.0
 20
-2697.1875
 10
0.0
 20
-2707.03125
 10
0.0
 20
-2716.875
 10
0.0
 20
-2726.71875
 10
0.0
 20
-2736.5625
 10
0.0
 20
-2746.40625
 10
0.0
 20
-2756.25
 10
0.0
 20
-2766.09375
 10
0.0
 20
-2775.9375
 10
0.0
 20
-2785.78125
 10
0.0
 20
-2795.625
 10
0.0
 20
-2805.46875
 10
0.0
 20
-2815.3125
 10
0.0
 20
-2825.15625
 10
0.0
 20
-2835.0
 10
0.0
 20
-2844.84375
 10
0.0
 20
-2854.6875
 10
0.0
 20
-2864.53125
 10
0.0
 20
-2874.375
 10
0.0
 20
-2884.21875
 10
0.0
 20
-2894.0625
 10
0.0
 20
-2903.90625
 10
0.0
 20
-2913.75
 10
0.0
 20
-2923.59375
 10
0.0
 20
-2933.4375
 10
0.0
 20
-2943.28125
 10
0.0
 20
-2953.125
 10
0.0
 20
-2962.96875
 10
0.0
 20
-2972.8125
 10
0.0
 20
-2982.65625
 10
0.0
 20
-2992.5
 10
0.0
 20
-3002.34375
 10
0.0
 20
-3012.1875
 10
0.0
 20
-3022.03125
 10
0.0
 20
-3031.875
 10
0.0
 20
-3041.71875
 10
0.0
 20
-3051.5625
 10
0.0
 20
-3061.40625
 10
0.0
 20
-3071.25
 10
0.0
 20
-3081.09375
 10
0.0
 20
-3090.9375
 10
0.0
 20
-3100.78125
 10
0.0
 20
-3110.625
 10
0.0
 20
-3120.46875
 10
0.0
 20
-3130.3125
 10
0.0
 20
-3140.15625
 10
0.0
 20
-3150.0
 10
0.0
 20
-3159.84375
 10
0.0
 20
-3169.6875
 10
0.0
 20
-3179.53125
 10
0.0
 20
-3189.375
 10
0.0
 20
-3199.21875
 10
0.0
 20
-3209.0625
 10
0.0
 20
-3218.90625
 10
0.0
 20
-3228.75
 10
0.0
 20
-3238.59375
 10
0.0
 20
-3248.4375
 10
0.0
 20
-3258.28125
 10
0.0
 20
-3268.125
 10
0.0
 20
-3277.96875
 10
0.0
 20
-3287.8125
 10
0.0
 20
-3297.65625
 10
0.0
 20
-3307.5
 10
0.0
 20
-3317.34375
 10
0.0
 20
-3327.1875
 10
0.0
 20
-3337.03125
 10
0.0
 20
-3346.875
 10
0.0
 20
-3356.71875
 10
0.0
 20
-3366.5625
 10
0.0
 20
-3376.40625
 10
0.0
 20
-3386.25
 10
0.0
 20
-3396.09375
 10
0.0
 20
-3405.9375
 10
0.0
 20
-3415.78125
 10
0.0
 20
-3425.625
 10
0.0
 20
-3435.46875
 10
0.0
 20
-3445.3125
 10
0.0
 20
-3455.15625
 10
0.0
 20
-3465.0
 10
0.0
 20
-3474.84375
 10
0.0
 20
-3484.6875
 10
0.0
 20
-3494.53125
 10
0.0
 20
-3504.375
 10
0.0
 20
-3514.21875
 10
0.0
 20
-3524.0625
 10
0.0
 20
-3533.90625
 10
0.0
 20
-3543.75
 10
0.0
 20
-3553.59375
 10
0.0
 20
-3563.4375
 10
0.0
 20
-3573.28125
 10
0.0
 20
-3583.125
 10
0.0
 20
-3592.96875
 10
0.0
 20
-3602.8125
 10
0.0
 20
-3612.65625
 10
0.0
 20
-3622.5
 10
0.0
 20
-3632.34375
 10
0.0
 20
-3642.1875
 10
0.0
 20
-3652.03125
 10
0.0
 20
-3661.875
 10
0.0
 20
-3671.71875
 10
0.0
 20
-3681.5625
 10
0.0
 20
-3691.40625
 10
0.0
 20
-3701.25
 10
0.0
 20
-3711.09375
 10
0.0
 20
-3720.9375
 10
0.0
 20
-3730.78125
 10
0.0
 20
-3740.625
 10
0.0
 20
-3750.46875
 10
0.0
 20
-3760.3125
 10
0.0
 20
-3770.15625
 10
0.0
 20
-3780.0
 10
0.0
 20
-3789.84375
 10
0.0
 20
-3799.6875
 10
0.0
 20
-3809.53125
 10
0.0
 20
-3819.375
 10
0.0
 20
-3829.21875
 10
0.0
 20
-3839.0625
 10
0.0
 20
-3848.90625
 10
0.0
 20
-3858.75
 10
0.0
 20
-3868.59375
 10
0.0
 20
-3878.4375
 10
0.0
 20
-3888.28125
 10
0.0
 20
-3898.125
 10
0.0
 20
-3907.96875
 10
0.0
 20
-3917.8125
 10
0.0
 20
-3927.65625
 10
0.0
 20
-3937.5
 10
0.0
 20
-3947.34375
 10
0.0
 20
-3957.1875
 10
0.0
 20
-3967.03125
 10
0.0
 20
-3976.875
 10
0.0
 20
-3986.71875
 10
0.0
 20
-3996.5625
 10
0.0
 20
-4006.40625
 10
0.0
 20
-4016.25
 10
0.0
 20
-4026.09375
 10
0.0
 20
-4035.9375
 10
0.0
 20
-4045.78125
 10
0.0
 20
-4055.625
 10
0.0
 20
-4065.46875
 10
0.0
 20
-4075.3125
 10
0.0
 20
-4085.15625
 10
0.0
 20
-4095.0
 10
0.0
 20
-4104.84375
 10
0.0
 20
-4114.6875
 10
0.0
 20
-4124.53125
 10
0.0
 20
-4134.375
 10
0.0
 20
-4144.21875
 10
0.0
 20
-4154.0625
 10
0.0
 20
-4163.90625
 10
0.0
 20
-4173.75
 10
0.0
 20
-4183.59375
 10
0.0
 20
-4193.4375
 10
0.0
 20
-4203.28125
 10
0.0
 20
-4213.125
 10
0.0
 20
-4222.96875
 10
0.0
 20
-4232.8125
 10
0.0
 20
-4242.65625
 10
0.0
 20
-4252.5
 10
0.0
 20
-4262.34375
 10
0.0
 20
-4272.1875
 10
0.0
 20
-4282.03125
 10
0.0
 20
-4291.875
 10
0.0
 20
-4301.71875
 10
0.0
 20
-4311.5625
 10
0.0
 20
-4321.40625
 10
0.0
 20
-4331.25
 10
0.0
 20
-4341.09375
 10
0.0
 20
-4350.9375
 10
0.0
 20
-4360.78125
 10
0.0
 20
-4370.625
 10
0.0
 20
-4380.46875
 10
0.0
 20
-4390.3125
 10
0.0
 20
-4400.15625
 10
0.0
 20
-4410.0
 10
0.0
 20
-4419.84375
 10
0.0
 20
-4429.6875
 10
0.0
 20
-4439.53125
 10
0.0
 20
-4449.375
 10
0.0
 20
-4459.21875
 10
0.0
 20
-4469.0625
 10
0.0
 20
-4478.90625
 10
0.0
 20
-4488.75
 10
0.0
 20
-4498.59375
 10
0.0
 20
-4508.4375
 10
0.0
 20
-4518.28125
 10
0.0
 20
-4528.125
 10
0.0
 20
-4537.96875
 10
0.0
 20
-4547.8125
 10
0.0
 20
-4557.65625
 10
0.0
 20
-4567.5
 10
0.0
 20
-4577.34375
 10
0.0
 20
-4587.1875
 10
0.0
 20
-4597.03125
 10
0.0
 20
-4606.875
 10
0.0
 20
-4616.71875
 10
0.0
 20
-4626.5625
 10
0.0
 20
-4636.40625
 10
0.0
 20
-4646.25
 10
0.0
 20
-4656.09375
 10
0.0
 20
-4665.9375
 10
0.0
 20
-4675.78125
 10
0.0
 20
-4685.625
 10
0.0
 20
-4695.46875
 10
0.0
 20
-4705.3125
 10
0.0
 20
-4715.15625
 10
0.0
 20
-4725.0
 10
0.0
 20
-4734.84375
 10
0.0
 20
-4744.6875
 10
0.0
 20
-4754.53125
 10
0.0
 20
-4764.375
 10
0.0
 20
-4774.21875
 10
0.0
 20
-4784.0625
 10
0.0
 20
-4793.90625
 10
0.0
 20
-4803.75
 10
0.0
 20
-4813.59375
 10
0.0
 20
-4823.4375
 10
0.0
 20
-4833.28125
 10
0.0
 20
-4843.125
 10
0.0
 20
-4852.96875
 10
0.0
 20
-4862.8125
 10
0.0
 20
-4872.65625
 10
0.0
 20
-4882.5
 10
0.0
 20
-4892.34375
 10
0.0
 20
-4902.1875
 10
0.0
 20
-4912.03125
 10
0.0
 20
-4921.875
 10
0.0
 20
-4931.71875
 10
0.0
 20
-4941.5625
 10
0.0
 20
-4951.40625
 10
0.0
 20
-4961.25
 10
0.0
 20
-4971.09375
 10
0.0
 20
-4980.9375
 10
0.0
 20
-4990.78125
 10
0.0
 20
-5000.625
 10
0.0
 20
-5010.46875
 10
0.0
 20
-5020.3125
 10
0.0
 20
-5030.15625
 10
9.84375
 20
-5030.15625
 10
19.6875
 20
-5030.15625
 10
29.53125
 20
-5030.15625
 10
39.375
 20
-5030.15625
 10
49.21875
 20
-5030.15625
 10
59.0625
 20
-5030.15625
 10
68.90625
 20
-5030.15625
 10
78.75
 20
-5030.15625
 10
88.59375
 20
-5030.15625
 10
98.4375
 20
-5030.15625
 10
108.28125
 20
-5030.15625
 10
118.125
 20
-5030.15625
 10
127.96875
 20
-5030.15625
 10
137.8125
 20
-5030.15625
 10
147.65625
 20
-5030.15625
 10
157.5
 20
-5030.15625
 10
167.34375
 20
-5030.15625
 10
177.1875
 20
-5030.15625
 10
187.03125
 20
-5030.15625
 10
196.875
 20
-5030.15625
 10
206.71875
 20
-5030.15625
 10
216.5625
 20
-5030.15625
 10
226.40625
 20
-5030.15625
 10
236.25
 20
-5030.15625
 10
246.09375
 20
-5030.15625
 10
255.9375
 20
-5030.15625
 10
265.78125
 20
-5030.15625
 10
275.625
 20
-5030.15625
 10
285.46875
 20
-5030.15625
 10
295.3125
 20
-5030.15625
 10
305.15625
 20
-5030.15625
 10
315.0
 20
-5030.15625
 10
324.84375
 20
-5030.15625
 10
334.6875
 20
-5030.15625
 10
344.53125
 20
-5030.15625
 10
354.375
 20
-5030.15625
 10
364.21875
 20
-5030.15625
 10
374.0625
 20
-5030.15625
 10
383.90625
 20
-5030.15625
 10
393.75
 20
-5030.15625
 10
403.59375
 20
-5030.15625
 10
413.4375
 20
-5030.15625
 10
423.28125
 20
-5030.15625
 10
433.125
 20
-5030.15625
 10
442.96875
 20
-5030.15625
 10
452.8125
 20
-5030.15625
 10
462.65625
 20
-5030.15625
 10
472.5
 20
-5030.15625
 10
482.34375
 20
-5030.15625
 10
492.1875
 20
-5030.15625
 10
502.03125
 20
-5030.15625
 10
511.875
 20
-5030.15625
 10
521.71875
 20
-5030.15625
 10
531.5625
 20
-5030.15625
 10
541.40625
 20
-5030.15625
 10
551.25
 20
-5030.15625
 10
561.09375
 20
-5030.15625
 10
570.9375
 20
-5030.15625
 10
580.78125
 20
-5030.15625
 10
590.625
 20
-5030.15625
 10
600.46875
 20
-5030.15625
 10
610.3125
 20
-5030.15625
 10
620.15625
 20
-5030.15625
 10
630.0
 20
-5030.15625
 10
639.84375
 20
-5030.15625
 10
649.6875
 20
-5030.15625
 10
659.53125
 20
-5030.15625
 10
669.375
 20
-5030.15625
 10
679.21875
 20
-5030.15625
 10
689.0625
 20
-5030.15625
 10
698.90625
 20
-5030.15625
 10
708.75
 20
-5030.15625
 10
718.59375
 20
-5030.15625
 10
728.4375
 20
-5030.15625
 10
738.28125
 20
-5030.15625
 10
748.125
 20
-5030.15625
 10
757.96875
 20
-5030.15625
 10
767.8125
 20
-5030.15625
 10
777.65625
 20
-5030.15625
 10
787.5
 20
-5030.15625
 10
797.34375
 20
-5030.15625
 10
807.1875
 20
-5030.15625
 10
817.03125
 20
-5030.15625
 10
826.875
 20
-5030.15625
 10
836.71875
 20
-5030.15625
 10
846.5625
 20
-5030.15625
 10
856.40625
 20
-5030.15625
 10
866.25
 20
-5030.15625
 10
876.09375
 20
-5030.15625
 10
885.9375
 20
-5030.15625
 10
895.78125
 20
-5030.15625
 10
905.625
 20
-5030.15625
 10
915.46875
 20
-5030.15625
 10
925.3125
 20
-5030.15625
 10
935.15625
 20
-5030.15625
 10
945.0
 20
-5030.15625
 10
954.84375
 20
-5030.15625
 10
964.6875
 20
-5030.15625
 10
974.53125
 20
-5030.15625
 10
984.375
 20
-5030.15625
 10
994.21875
 20
-5030.15625
 10
1004.0625
 20
-5030.15625
 10
1013.90625
 20
-5030.15625
 10
1023.75
 20
-5030.15625
 10
1033.59375
 20
-5030.15625
 10
1043.4375
 20
-5030.15625
 10
1053.28125
 20
-5030.15625
 10
1063.125
 20
-5030.15625
 10
1072.96875
 20
-5030.15625
 10
1082.8125
 20
-5030.15625
 10
1092.65625
 20
-5030.15625
 10
1102.5
 20
-5030.15625
 10
1112.34375
 20
-5030.15625
 10
1122.1875
 20
-5030.15625
 10
1132.03125
 20
-5030.15625
 10
1141.875
 20
-5030.15625
 10
1151.71875
 20
-5030.15625
 10
1161.5625
 20
-5030.15625
 10
1171.40625
 20
-5030.15625
 10
1181.25
 20
-5030.15625
 10
1191.09375
 20
-5030.15625
 10
1200.9375
 20
-5030.15625
 10
1210.78125
 20
-5030.15625
 10
1220.625
 20
-5030.15625
 10
1230.46875
 20
-5030.15625
 10
1240.3125
 20
-5030.15625
 10
1250.15625
 20
-5030.15625
 10
1260.0
 20
-5030.15625
 10
1269.84375
 20
-5030.15625
 10
1279.6875
 20
-5030.15625
 10
1289.53125
 20
-5030.15625
 10
1299.375
 20
-5030.15625
 10
1309.21875
 20
-5030.15625
 10
1319.0625
 20
-5030.15625
 10
1328.90625
 20
-5030.15625
 10
1338.75
 20
-5030.15625
 10
1348.59375
 20
-5030.15625
 10
1358.4375
 20
-5030.15625
 10
1368.28125
 20
-5030.15625
 10
1378.125
 20
-5030.15625
 10
1387.96875
 20
-5030.15625
 10
1397.8125
 20
-5030.15625
 10
1407.65625
 20
-5030.15625
 10
1417.5
 20
-5030.15625
 10
1427.34375
 20
-5030.15625
 10
1437.1875
 20
-5030.15625
 10
1447.03125
 20
-5030.15625
 10
1456.875
 20
-5030.15625
 10
1466.71875
 20
-5030.15625
 10
1476.5625
 20
-5030.15625
 10
1486.40625
 20
-5030.15625
 10
1496.25
 20
-5030.15625
 10
1506.09375
 20
-5030.15625
 10
1515.9375
 20
-5030.15625
 10
1525.78125
 20
-5030.15625
 10
1535.625
 20
-5030.15625
 10
1545.46875
 20
-5030.15625
 10
1555.3125
 20
-5030.15625
 10
1565.15625
 20
-5030.15625
 10
1575.0
 20
-5030.15625
 10
1584.84375
 20
-5030.15625
 10
1594.6875
 20
-5030.15625
 10
1604.53125
 20
-5030.15625
 10
1614.375
 20
-5030.15625
 10
1624.21875
 20
-5030.15625
 10
1634.0625
 20
-5030.15625
 10
1643.90625
 20
-5030.15625
 10
1653.75
 20
-5030.15625
 10
1663.59375
 20
-5030.15625
 10
1673.4375
 20
-5030.15625
 10
1683.28125
 20
-5030.15625
 10
1693.125
 20
-5030.15625
 10
1702.96875
 20
-5030.15625
 10
1712.8125
 20
-5030.15625
 10
1722.65625
 20
-5030.15625
 10
1732.5
 20
-5030.15625
 10
1742.34375
 20
-5030.15625
 10
1752.1875
 20
-5030.15625
 10
1762.03125
 20
-5030.15625
 10
1771.875
 20
-5030.15625
 10
1781.71875
 20
-5030.15625
 10
1791.5625
 20
-5030.15625
 10
1801.40625
 20
-5030.15625
 10
1811.25
 20
-5030.15625
 10
1821.09375
 20
-5030.15625
 10
1830.9375
 20
-5030.15625
 10
1840.78125
 20
-5030.15625
 10
1850.625
 20
-5030.15625
 10
1860.46875
 20
-5030.15625
 10
1870.3125
 20
-5030.15625
 10
1880.15625
 20
-5030.15625
 10
1890.0
 20
-5030.15625
 10
1899.84375
 20
-5030.15625
 10
1909.6875
 20
-5030.15625
 10
1919.53125
 20
-5030.15625
 10
1929.375
 20
-5030.15625
 10
1939.21875
 20
-5030.15625
 10
1949.0625
 20
-5030.15625
 10
1958.90625
 20
-5030.15625
 10
1968.75
 20
-5030.15625
 10
1978.59375
 20
-5030.15625
 10
1988.4375
 20
-5030.15625
 10
1998.28125
 20
-5030.15625
 10
2008.125
 20
-5030.15625
 10
2017.96875
 20
-5030.15625
 10
2027.8125
 20
-5030.15625
 10
2037.65625
 20
-5030.15625
 10
2047.5
 20
-5030.15625
 10
2057.34375
 20
-5030.15625
 10
2067.1875
 20
-5030.15625
 10
2077.03125
 20
-5030.15625
 10
2086.875
 20
-5030.15625
 10
2096.71875
 20
-5030.15625
 10
2106.5625
 20
-5030.15625
 10
2116.40625
 20
-5030.15625
 10
2126.25
 20
-5030.15625
 10
2136.09375
 20
-5030.15625
 10
2145.9375
 20
-5030.15625
 10
2155.78125
 20
-5030.15625
 10
2165.625
 20
-5030.15625
 10
2175.46875
 20
-5030.15625
 10
2185.3125
 20
-5030.15625
 10
2195.15625
 20
-5030.15625
 10
2205.0
 20
-5030.15625
 10
2214.84375
 20
-5030.15625
 10
2224.6875
 20
-5030.15625
 10
2234.53125
 20
-5030.15625
 10
2244.375
 20
-5030.15625
 10
2254.21875
 20
-5030.15625
 10
2264.0625
 20
-5030.15625
 10
2273.90625
 20
-5030.15625
 10
2283.75
 20
-5030.15625
 10
2293.59375
 20
-5030.15625
 10
2303.4375
 20
-5030.15625
 10
2313.28125
 20
-5030.15625
 10
2323.125
 20
-5030.15625
 10
2332.96875
 20
-5030.15625
 10
2342.8125
 20
-5030.15625
 10
2352.65625
 20
-5030.15625
 10
2362.5
 20
-5030.15625
 10
2372.34375
 20
-5030.15625
 10
2382.1875
 20
-5030.15625
 10
2392.03125
 20
-5030.15625
 10
2401.875
 20
-5030.15625
 10
2411.71875
 20
-5030.15625
 10
2421.5625
 20
-5030.15625
 10
2431.40625
 20
-5030.15625
 10
2441.25
 20
-5030.15625
 10
2451.09375
 20
-5030.15625
 10
2460.9375
 20
-5030.15625
 10
2470.78125
 20
-5030.15625
 10
2480.625
 20
-5030.15625
 10
2490.46875
 20
-5030.15625
 10
2500.3125
 20
-5030.15625
 10
2510.15625
 20
-5030.15625
 10
2520.0
 20
-5030.15625
 10
2529.84375
 20
-5030.15625
 10
2539.6875
 20
-5030.15625
 10
2549.53125
 20
-5030.15625
 10
2559.375
 20
-5030.15625
 10
2569.21875
 20
-5030.15625
 10
2579.0625
 20
-5030.15625
 10
2588.90625
 20
-5030.15625
 10
2598.75
 20
-5030.15625
 10
2608.59375
 20
-5030.15625
 10
2618.4375
 20
-5030.15625
 10
2628.28125
 20
-5030.15625
 10
2638.125
 20
-5030.15625
 10
2647.96875
 20
-5030.15625
 10
2657.8125
 20
-5030.15625
 10
2667.65625
 20
-5030.15625
 10
2677.5
 20
-5030.15625
 10
2687.34375
 20
-5030.15625
 10
2697.1875
 20
-5030.15625
 10
2707.03125
 20
-5030.15625
 10
2716.875
 20
-5030.15625
 10
2726.71875
 20
-5030.15625
 10
2736.5625
 20
-5030.15625
 10
2746.40625
 20
-5030.15625
 10
2756.25
 20
-5030.15625
 10
2766.09375
 20
-5030.15625
 10
2775.9375
 20
-5030.15625
 10
2785.78125
 20
-5030.15625
 10
2795.625
 20
-5030.15625
 10
2805.46875
 20
-5030.15625
 10
2815.3125
 20
-5030.15625
 10
2825.15625
 20
-5030.15625
 10
2835.0
 20
-5030.15625
 10
2844.84375
 20
-5030.15625
 10
2854.6875
 20
-5030.15625
 10
2864.53125
 20
-5030.15625
 10
2874.375
 20
-5030.15625
 10
2884.21875
 20
-5030.15625
 10
2894.0625
 20
-5030.15625
 10
2903.90625
 20
-5030.15625
 10
2913.75
 20
-5030.15625
 10
2923.59375
 20
-5030.15625
 10
2933.4375
 20
-5030.15625
 10
2943.28125
 20
-5030.15625
 10
2953.125
 20
-5030.15625
 10
2962.96875
 20
-5030.15625
 10
2972.8125
 20
-5030.15625
 10
2982.65625
 20
-5030.15625
 10
2992.5
 20
-5030.15625
 10
3002.34375
 20
-5030.15625
 10
3012.1875
 20
-5030.15625
 10
3022.03125
 20
-5030.15625
 10
3031.875
 20
-5030.15625
 10
3041.71875
 20
-5030.15625
 10
3051.5625
 20
-5030.15625
 10
3061.40625
 20
-5030.15625
 10
3071.25
 20
-5030.15625
 10
3081.09375
 20
-5030.15625
 10
3090.9375
 20
-5030.15625
 10
3100.78125
 20
-5030.15625
 10
3110.625
 20
-5030.15625
 10
3120.46875
 20
-5030.15625
 10
3130.3125
 20
-5030.15625
 10
3140.15625
 20
-5030.15625
 10
3150.0
 20
-5030.15625
 10
3159.84375
 20
-5030.15625
 10
3169.6875
 20
-5030.15625
 10
3179.53125
 20
-5030.15625
 10
3189.375
 20
-5030.15625
 10
3199.21875
 20
-5030.15625
 10
3209.0625
 20
-5030.15625
 10
3218.90625
 20
-5030.15625
 10
3228.75
 20
-5030.15625
 10
3238.59375
 20
-5030.15625
 10
3248.4375
 20
-5030.15625
 10
3258.28125
 20
-5030.15625
 10
3268.125
 20
-5030.15625
 10
3277.96875
 20
-5030.15625
 10
3287.8125
 20
-5030.15625
 10
3297.65625
 20
-5030.15625
 10
3307.5
 20
-5030.15625
 10
3317.34375
 20
-5030.15625
 10
3327.1875
 20
-5030.15625
 10
3337.03125
 20
-5030.15625
 10
3346.875
 20
-5030.15625
 10
3356.71875
 20
-5030.15625
 10
3366.5625
 20
-5030.15625
 10
3376.40625
 20
-5030.15625
 10
3386.25
 20
-5030.15625
 10
3396.09375
 20
-5030.15625
 10
3405.9375
 20
-5030.15625
 10
3415.78125
 20
-5030.15625
 10
3425.625
 20
-5030.15625
 10
3435.46875
 20
-5030.15625
 10
3445.3125
 20
-5030.15625
 10
3455.15625
 20
-5030.15625
 10
3465.0
 20
-5030.15625
 10
3474.84375
 20
-5030.15625
 10
3484.6875
 20
-5030.15625
 10
3494.53125
 20
-5030.15625
 10
3504.375
 20
-5030.15625
 10
3514.21875
 20
-5030.15625
 10
3524.0625
 20
-5030.15625
 10
3533.90625
 20
-5030.15625
 10
3543.75
 20
-5030.15625
 10
3553.59375
 20
-5030.15625
 10
3563.4375
 20
-5030.15625
 10
3573.28125
 20
-5030.15625
 10
3583.125
 20
-5030.15625
 10
3592.96875
 20
-5030.15625
 10
3602.8125
 20
-5030.15625
 10
3612.65625
 20
-5030.15625
 10
3622.5
 20
-5030.15625
 10
3632.34375
 20
-5030.15625
 10
3642.1875
 20
-5030.15625
 10
3652.03125
 20
-5030.15625
 10
3661.875
 20
-5030.15625
 10
3671.71875
 20
-5030.15625
 10
3681.5625
 20
-5030.15625
 10
3691.40625
 20
-5030.15625
 10
3701.25
 20
-5030.15625
 10
3711.09375
 20
-5030.15625
 10
3720.9375
 20
-5030.15625
 10
3730.78125
 20
-5030.15625
 10
3740.625
 20
-5030.15625
 10
3750.46875
 20
-5030.15625
 10
3760.3125
 20
-5030.15625
 10
3770.15625
 20
-5030.15625
 10
3780.0
 20
-5030.15625
 10
3789.84375
 20
-5030.15625
 10
3799.6875
 20
-5030.15625
 10
3809.53125
 20
-5030.15625
 10
3819.375
 20
-5030.15625
 10
3829.21875
 20
-5030.15625
 10
3839.0625
 20
-5030.15625
 10
3848.90625
 20
-5030.15625
 10
3858.75
 20
-5030.15625
 10
3868.59375
 20
-5030.15625
 10
3878.4375
 20
-5030.15625
 10
3888.28125
 20
-5030.15625
 10
3898.125
 20
-5030.15625
 10
3907.96875
 20
-5030.15625
 10
3917.8125
 20
-5030.15625
 10
3927.65625
 20
-5030.15625
 10
3937.5
 20
-5030.15625
 10
3947.34375
 20
-5030.15625
 10
3957.1875
 20
-5030.15625
 10
3967.03125
 20
-5030.15625
 10
3976.875
 20
-5030.15625
 10
3986.71875
 20
-5030.15625
 10
3996.5625
 20
-5030.15625
 10
4006.40625
 20
-5030.15625
 10
4016.25
 20
-5030.15625
 10
4026.09375
 20
-5030.15625
 10
4035.9375
 20
-5030.15625
 10
4045.78125
 20
-5030.15625
 10
4055.625
 20
-5030.15625
 10
4065.46875
 20
-5030.15625
 10
4075.3125
 20
-5030.15625
 10
4085.15625
 20
-5030.15625
 10
4095.0
 20
-5030.15625
 10
4104.84375
 20
-5030.15625
 10
4114.6875
 20
-5030.15625
 10
4124.53125
 20
-5030.15625
 10
4134.375
 20
-5030.15625
 10
4144.21875
 20
-5030.15625
 10
4154.0625
 20
-5030.15625
 10
4163.90625
 20
-5030.15625
 10
4173.75
 20
-5030.15625
 10
4183.59375
 20
-5030.15625
 10
4193.4375
 20
-5030.15625
 10
4203.28125
 20
-5030.15625
 10
4213.125
 20
-5030.15625
 10
4222.96875
 20
-5030.15625
 10
4232.8125
 20
-5030.15625
 10
4242.65625
 20
-5030.15625
 10
4252.5
 20
-5030.15625
 10
4262.34375
 20
-5030.15625
 10
4272.1875
 20
-5030.15625
 10
4282.03125
 20
-5030.15625
 10
4291.875
 20
-5030.15625
 10
4301.71875
 20
-5030.15625
 10
4311.5625
 20
-5030.15625
 10
4321.40625
 20
-5030.15625
 10
4331.25
 20
-5030.15625
 10
4341.09375
 20
-5030.15625
 10
4350.9375
 20
-5030.15625
 10
4360.78125
 20
-5030.15625
 10
4370.625
 20
-5030.15625
 10
4380.46875
 20
-5030.15625
 10
4390.3125
 20
-5030.15625
 10
4400.15625
 20
-5030.15625
 10
4410.0
 20
-5030.15625
 10
4419.84375
 20
-5030.15625
 10
4429.6875
 20
-5030.15625
 10
4439.53125
 20
-5030.15625
 10
4449.375
 20
-5030.15625
 10
4459.21875
 20
-5030.15625
 10
4469.0625
 20
-5030.15625
 10
4478.90625
 20
-5030.15625
 10
4488.75
 20
-5030.15625
 10
4498.59375
 20
-5030.15625
 10
4508.4375
 20
-5030.15625
 10
4518.28125
 20
-5030.15625
 10
4528.125
 20
-5030.15625
 10
4537.96875
 20
-5030.15625
 10
4547.8125
 20
-5030.15625
 10
4557.65625
 20
-5030.15625
 10
4567.5
 20
-5030.15625
 10
4577.34375
 20
-5030.15625
 10
4587.1875
 20
-5030.15625
 10
4597.03125
 20
-5030.15625
 10
4606.875
 20
-5030.15625
 10
4616.71875
 20
-5030.15625
 10
4626.5625
 20
-5030.15625
 10
4636.40625
 20
-5030.15625
 10
4646.25
 20
-5030.15625
 10
4656.09375
 20
-5030.15625
 10
4665.9375
 20
-5030.15625
 10
4675.78125
 20
-5030.15625
 10
4685.625
 20
-5030.15625
 10
4695.46875
 20
-5030.15625
 10
4705.3125
 20
-5030.15625
 10
4715.15625
 20
-5030.15625
 10
4725.0
 20
-5030.15625
 10
4734.84375
 20
-5030.15625
 10
4744.6875
 20
-5030.15625
 10
4754.53125
 20
-5030.15625
 10
4764.375
 20
-5030.15625
 10
4774.21875
 20
-5030.15625
 10
4784.0625
 20
-5030.15625
 10
4793.90625
 20
-5030.15625
 10
4803.75
 20
-5030.15625
 10
4813.59375
 20
-5030.15625
 10
4823.4375
 20
-5030.15625
 10
4833.28125
 20
-5030.15625
 10
4843.125
 20
-5030.15625
 10
4852.96875
 20
-5030.15625
 10
4862.8125
 20
-5030.15625
 10
4872.65625
 20
-5030.15625
 10
4882.5
 20
-5030.15625
 10
4892.34375
 20
-5030.15625
 10
4902.1875
 20
-5030.15625
 10
4912.03125
 20
-5030.15625
 10
4921.875
 20
-5030.15625
 10
4931.71875
 20
-5030.15625
 10
4941.5625
 20
-5030.15625
 10
4951.40625
 20
-5030.15625
 10
4961.25
 20
-5030.15625
 10
4971.09375
 20
-5030.15625
 10
4980.9375
 20
-5030.15625
 10
4990.78125
 20
-5030.15625
 10
5000.625
 20
-5030.15625
 10
5010.46875
 20
-5030.15625
 10
5020.3125
 20
-5030.15625
 10
5030.15625
 20
-5030.15625
 10
5030.15625
 20
-5020.3125
 10
5030.15625
 20
-5010.46875
 10
5030.15625
 20
-5000.625
 10
5030.15625
 20
-4990.78125
 10
5030.15625
 20
-4980.9375
 10
5030.15625
 20
-4971.09375
 10
5030.15625
 20
-4961.25
 10
5030.15625
 20
-4951.40625
 10
5030.15625
 20
-4941.5625
 10
5030.15625
 20
-4931.71875
 10
5030.15625
 20
-4921.875
 10
5030.15625
 20
-4912.03125
 10
5030.15625
 20
-4902.1875
 10
5030.15625
 20
-4892.34375
 10
5030.15625
 20
-4882.5
 10
5030.15625
 20
-4872.65625
 10
5030.15625
 20
-4862.8125
 10
5030.15625
 20
-4852.96875
 10
5030.15625
 20
-4843.125
 10
5030.15625
 20
-4833.28125
 10
5030.15625
 20
-4823.4375
 10
5030.15625
 20
-4813.59375
 10
5030.15625
 20
-4803.75
 10
5030.15625
 20
-4793.90625
 10
5030.15625
 20
-4784.0625
 10
5030.15625
 20
-4774.21875
 10
5030.15625
 20
-4764.375
 10
5030.15625
 20
-4754.53125
 10
5030.15625
 20
-4744.6875
 10
5030.15625
 20
-4734.84375
 10
5030.15625
 20
-4725.0
 10
5030.15625
 20
-4715.15625
 10
5030.15625
 20
-4705.3125
 10
5030.15625
 20
-4695.46875
 10
5030.15625
 20
-4685.625
 10
5030.15625
 20
-4675.78125
 10
5030.15625
 20
-4665.9375
 10
5030.15625
 20
-4656.09375
 10
5030.15625
 20
-4646.25
 10
5030.15625
 20
-4636.40625
 10
5030.15625
 20
-4626.5625
 10
5030.15625
 20
-4616.71875
 10
5030.15625
 20
-4606.875
 10
5030.15625
 20
-4597.03125
 10
5030.15625
 20
-4587.1875
 10
5030.15625
 20
-4577.34375
 10
5030.15625
 20
-4567.5
 10
5030.15625
 20
-4557.65625
 10
5030.15625
 20
-4547.8125
 10
5030.15625
 20
-4537.96875
 10
5030.15625
 20
-4528.125
 10
5030.15625
 20
-4518.28125
 10
5030.15625
 20
-4508.4375
 10
5030.15625
 20
-4498.59375
 10
5030.15625
 20
-4488.75
 10
5030.15625
 20
-4478.90625
 10
5030.15625
 20
-4469.0625
 10
5030.15625
 20
-4459.21875
 10
5030.15625
 20
-4449.375
 10
5030.15625
 20
-4439.53125
 10
5030.15625
 20
-4429.6875
 10
5030.15625
 20
-4419.84375
 10
5030.15625
 20
-4410.0
 10
5030.15625
 20
-4400.15625
 10
5030.15625
 20
-4390.3125
 10
5030.15625
 20
-4380.46875
 10
5030.15625
 20
-4370.625
 10
5030.15625
 20
-4360.78125
 10
5030.15625
 20
-4350.9375
 10
5030.15625
 20
-4341.09375
 10
5030.15625
 20
-4331.25
 10
5030.15625
 20
-4321.40625
 10
5030.15625
 20
-4311.5625
 10
5030.15625
 20
-4301.71875
 10
5030.15625
 20
-4291.875
 10
5030.15625
 20
-4282.03125
 10
5030.15625
 20
-4272.1875
 10
5030.15625
 20
-4262.34375
 10
5030.15625
 20
-4252.5
 10
5030.15625
 20
-4242.65625
 10
5030.15625
 20
-4232.8125
 10
5030.15625
 20
-4222.96875
 10
5030.15625
 20
-4213.125
 10
5030.15625
 20
-4203.28125
 10
5030.15625
 20
-4193.4375
 10
5030.15625
 20
-4183.59375
 10
5030.15625
 20
-4173.75
 10
5030.15625
 20
-4163.90625
 10
5030.15625
 20
-4154.0625
 10
5030.15625
 20
-4144.21875
 10
5030.15625
 20
-4134.375
 10
5030.15625
 20
-4124.53125
 10
5030.15625
 20
-4114.6875
 10
5030.15625
 20
-4104.84375
 10
5030.15625
 20
-4095.0
 10
5030.15625
 20
-4085.15625
 10
5030.15625
 20
-4075.3125
 10
5030.15625
 20
-4065.46875
 10
5030.15625
 20
-4055.625
 10
5030.15625
 20
-4045.78125
 10
5030.15625
 20
-4035.9375
 10
5030.15625
 20
-4026.09375
 10
5030.15625
 20
-4016.25
 10
5030.15625
 20
-4006.40625
 10
5030.15625
 20
-3996.5625
 10
5030.15625
 20
-3986.71875
 10
5030.15625
 20
-3976.875
 10
5030.15625
 20
-3967.03125
 10
5030.15625
 20
-3957.1875
 10
5030.15625
 20
-3947.34375
 10
5030.15625
 20
-3937.5
 10
5030.15625
 20
-3927.65625
 10
5030.15625
 20
-3917.8125
 10
5030.15625
 20
-3907.96875
 10
5030.15625
 20
-3898.125
 10
5030.15625
 20
-3888.28125
 10
5030.15625
 20
-3878.4375
 10
5030.15625
 20
-3868.59375
 10
5030.15625
 20
-3858.75
 10
5030.15625
 20
-3848.90625
 10
5030.15625
 20
-3839.0625
 10
5030.15625
 20
-3829.21875
 10
5030.15625
 20
-3819.375
 10
5030.15625
 20
-3809.53125
 10
5030.15625
 20
-3799.6875
 10
5030.15625
 20
-3789.84375
 10
5030.15625
 20
-3780.0
 10
5030.15625
 20
-3770.15625
 10
5030.15625
 20
-3760.3125
 10
5030.15625
 20
-3750.46875
 10
5030.15625
 20
-3740.625
 10
5030.15625
 20
-3730.78125
 10
5030.15625
 20
-3720.9375
 10
5030.15625
 20
-3711.09375
 10
5030.15625
 20
-3701.25
 10
5030.15625
 20
-3691.40625
 10
5030.15625
 20
-3681.5625
 10
5030.15625
 20
-3671.71875
 10
5030.15625
 20
-3661.875
 10
5030.15625
 20
-3652.03125
 10
5030.15625
 20
-3642.1875
 10
5030.15625
 20
-3632.34375
 10
5030.15625
 20
-3622.5
 10
5030.15625
 20
-3612.65625
 10
5030.15625
 20
-3602.8125
 10
5030.15625
 20
-3592.96875
 10
5030.15625
 20
-3583.125
 10
5030.15625
 20
-3573.28125
 10
5030.15625
 20
-3563.4375
 10
5030.15625
 20
-3553.59375
 10
5030.15625
 20
-3543.75
 10
5030.15625
 20
-3533.90625
 10
5030.15625
 20
-3524.0625
 10
5030.15625
 20
-3514.21875
 10
5030.15625
 20
-3504.375
 10
5030.15625
 20
-3494.53125
 10
5030.15625
 20
-3484.6875
 10
5030.15625
 20
-3474.84375
 10
5030.15625
 20
-3465.0
 10
5030.15625
 20
-3455.15625
 10
5030.15625
 20
-3445.3125
 10
5030.15625
 20
-3435.46875
 10
5030.15625
 20
-3425.625
 10
5030.15625
 20
-3415.78125
 10
5030.15625
 20
-3405.9375
 10
5030.15625
 20
-3396.09375
 10
5030.15625
 20
-3386.25
 10
5030.15625
 20
-3376.40625
 10
5030.15625
 20
-3366.5625
 10
5030.15625
 20
-3356.71875
 10
5030.15625
 20
-3346.875
 10
5030.15625
 20
-3337.03125
 10
5030.15625
 20
-3327.1875
 10
5030.15625
 20
-3317.34375
 10
5030.15625
 20
-3307.5
 10
5030.15625
 20
-3297.65625
 10
5030.15625
 20
-3287.8125
 10
5030.15625
 20
-3277.96875
 10
5030.15625
 20
-3268.125
 10
5030.15625
 20
-3258.28125
 10
5030.15625
 20
-3248.4375
 10
5030.15625
 20
-3238.59375
 10
5030.15625
 20
-3228.75
 10
5030.15625
 20
-3218.90625
 10
5030.15625
 20
-3209.0625
 10
5030.15625
 20
-3199.21875
 10
5030.15625
 20
-3189.375
 10
5030.15625
 20
-3179.53125
 10
5030.15625
 20
-3169.6875
 10
5030.15625
 20
-3159.84375
 10
5030.15625
 20
-3150.0
 10
5030.15625
 20
-3140.15625
 10
5030.15625
 20
-3130.3125
 10
5030.15625
 20
-3120.46875
 10
5030.15625
 20
-3110.625
 10
5030.15625
 20
-3100.78125
 10
5030.15625
 20
-3090.9375
 10
5030.15625
 20
-3081.09375
 10
5030.15625
 20
-3071.25
 10
5030.15625
 20
-3061.40625
 10
5030.15625
 20
-3051.5625
 10
5030.15625
 20
-3041.71875
 10
5030.15625
 20
-3031.875
 10
5030.15625
 20
-3022.03125
 10
5030.15625
 20
-3012.1875
 10
5030.15625
 20
-3002.34375
 10
5030.15625
 20
-2992.5
 10
5030.15625
 20
-2982.65625
 10
5030.15625
 20
-2972.8125
 10
5030.15625
 20
-2962.96875
 10
5030.15625
 20
-2953.125
 10
5030.15625
 20
-2943.28125
 10
5030.15625
 20
-2933.4375
 10
5030.15625
 20
-2923.59375
 10
5030.15625
 20
-2913.75
 10
5030.15625
 20
-2903.90625
 10
5030.15625
 20
-2894.0625
 10
5030.15625
 20
-2884.21875
 10
5030.15625
 20
-2874.375
 10
5030.15625
 20
-2864.53125
 10
5030.15625
 20
-2854.6875
 10
5030.15625
 20
-2844.84375
 10
5030.15625
 20
-2835.0
 10
5030.15625
 20
-2825.15625
 10
5030.15625
 20
-2815.3125
 10
5030.15625
 20
-2805.46875
 10
5030.15625
 20
-2795.625
 10
5030.15625
 20
-2785.78125
 10
5030.15625
 20
-2775.9375
 10
5030.15625
 20
-2766.09375
 10
5030.15625
 20
-2756.25
 10
5030.15625
 20
-2746.40625
 10
5030.15625
 20
-2736.5625
 10
5030.15625
 20
-2726.71875
 10
5030.15625
 20
-2716.875
 10
5030.15625
 20
-2707.03125
 10
5030.15625
 20
-2697.1875
 10
5030.15625
 20
-2687.34375
 10
5030.15625
 20
-2677.5
 10
5030.15625
 20
-2667.65625
 10
5030.15625
 20
-2657.8125
 10
5030.15625
 20
-2647.96875
 10
5030.15625
 20
-2638.125
 10
5030.15625
 20
-2628.28125
 10
5030.15625
 20
-2618.4375
 10
5030.15625
 20
-2608.59375
 10
5030.15625
 20
-2598.75
 10
5030.15625
 20
-2588.90625
 10
5030.15625
 20
-2579.0625
 10
5030.15625
 20
-2569.21875
 10
5030.15625
 20
-2559.375
 10
5030.15625
 20
-2549.53125
 10
5030.15625
 20
-2539.6875
 10
5030.15625
 20
-2529.84375
 10
5030.15625
 20
-2520.0
 10
5030.15625
 20
-2510.15625
 10
5030.15625
 20
-2500.3125
 10
5030.15625
 20
-2490.46875
 10
5030.15625
 20
-2480.625
 10
5030.15625
 20
-2470.78125
 10
5030.15625
 20
-2460.9375
 10
5030.15625
 20
-2451.09375
 10
5030.15625
 20
-2441.25
 10
5030.15625
 20
-2431.40625
 10
5030.15625
 20
-2421.5625
 10
5030.15625
 20
-2411.71875
 10
5030.15625
 20
-2401.875
 10
5030.15625
 20
-2392.03125
 10
5030.15625
 20
-2382.1875
 10
5030.15625
 20
-2372.34375
 10
5030.15625
 20
-2362.5
 10
5030.15625
 20
-2352.65625
 10
5030.15625
 20
-2342.8125
 10
5030.15625
 20
-2332.96875
 10
5030.15625
 20
-2323.125
 10
5030.15625
 20
-2313.28125
 10
5030.15625
 20
-2303.4375
 10
5030.15625
 20
-2293.59375
 10
5030.15625
 20
-2283.75
 10
5030.15625
 20
-2273.90625
 10
5030.15625
 20
-2264.0625
 10
5030.15625
 20
-2254.21875
 10
5030.15625
 20
-2244.375
 10
5030.15625
 20
-2234.53125
 10
5030.15625
 20
-2224.6875
 10
5030.15625
 20
-2214.84375
 10
5030.15625
 20
-2205.0
 10
5030.15625
 20
-2195.15625
 10
5030.15625
 20
-2185.3125
 10
5030.15625
 20
-2175.46875
 10
5030.15625
 20
-2165.625
 10
5030.15625
 20
-2155.78125
 10
5030.15625
 20
-2145.9375
 10
5030.15625
 20
-2136.09375
 10
5030.15625
 20
-2126.25
 10
5030.15625
 20
-2116.40625
 10
5030.15625
 20
-2106.5625
 10
5030.15625
 20
-2096.71875
 10
5030.15625
 20
-2086.875
 10
5030.15625
 20
-2077.03125
 10
5030.15625
 20
-2067.1875
 10
5030.15625
 20
-2057.34375
 10
5030.15625
 20
-2047.5
 10
5030.15625
 20
-2037.65625
 10
5030.15625
 20
-2027.8125
 10
5030.15625
 20
-2017.96875
 10
5030.15625
 20
-2008.125
 10
5030.15625
 20
-1998.28125
 10
5030.15625
 20
-1988.4375
 10
5030.15625
 20
-1978.59375
 10
5030.15625
 20
-1968.75
 10
5030.15625
 20
-1958.90625
 10
5030.15625
 20
-1949.0625
 10
5030.15625
 20
-1939.21875
 10
5030.15625
 20
-1929.375
 10
5030.15625
 20
-1919.53125
 10
5030.15625
 20
-1909.6875
 10
5030.15625
 20
-1899.84375
 10
5030.15625
 20
-1890.0
 10
5030.15625
 20
-1880.15625
 10
5030.15625
 20
-1870.3125
 10
5030.15625
 20
-1860.46875
 10
5030.15625
 20
-1850.625
 10
5030.15625
 20
-1840.78125
 10
5030.15625
 20
-1830.9375
 10
5030.15625
 20
-1821.09375
 10
5030.15625
 20
-1811.25
 10
5030.15625
 20
-1801.40625
 10
5030.15625
 20
-1791.5625
 10
5030.15625
 20
-1781.71875
 10
5030.15625
 20
-1771.875
 10
5030.15625
 20
-1762.03125
 10
5030.15625
 20
-1752.1875
 10
5030.15625
 20
-1742.34375
 10
5030.15625
 20
-1732.5
 10
5030.15625
 20
-1722.65625
 10
5030.15625
 20
-1712.8125
 10
5030.15625
 20
-1702.96875
 10
5030.15625
 20
-1693.125
 10
5030.15625
 20
-1683.28125
 10
5030.15625
 20
-1673.4375
 10
5030.15625
 20
-1663.59375
 10
5030.15625
 20
-1653.75
 10
5030.15625
 20
-1643.90625
 10
5030.15625
 20
-1634.0625
 10
5030.15625
 20
-1624.21875
 10
5030.15625
 20
-1614.375
 10
5030.15625
 20
-1604.53125
 10
5030.15625
 20
-1594.6875
 10
5030.15625
 20
-1584.84375
 10
5030.15625
 20
-1575.0
 10
5030.15625
 20
-1565.15625
 10
5030.15625
 20
-1555.3125
 10
5030.15625
 20
-1545.46875
 10
5030.15625
 20
-1535.625
 10
5030.15625
 20
-1525.78125
 10
5030.15625
 20
-1515.9375
 10
5030.15625
 20
-1506.09375
 10
5030.15625
 20
-1496.25
 10
5030.15625
 20
-1486.40625
 10
5030.15625
 20
-1476.5625
 10
5030.15625
 20
-1466.71875
 10
5030.15625
 20
-1456.875
 10
5030.15625
 20
-1447.03125
 10
5030.15625
 20
-1437.1875
 10
5030.15625
 20
-1427.34375
 10
5030.15625
 20
-1417.5
 10
5030.15625
 20
-1407.65625
 10
5030.15625
 20
-1397.8125
 10
5030.15625
 20
-1387.96875
 10
5030.15625
 20
-1378.125
 10
5030.15625
 20
-1368.28125
 10
5030.15625
 20
-1358.4375
 10
5030.15625
 20
-1348.59375
 10
5030.15625
 20
-1338.75
 10
5030.15625
 20
-1328.90625
 10
5030.15625
 20
-1319.0625
 10
5030.15625
 20
-1309.21875
 10
5030.15625
 20
-1299.375
 10
5030.15625
 20
-1289.53125
 10
5030.15625
 20
-1279.6875
 10
5030.15625
 20
-1269.84375
 10
5030.15625
 20
-1260.0
 10
5030.15625
 20
-1250.15625
 10
5030.15625
 20
-1240.3125
 10
5030.15625
 20
-1230.46875
 10
5030.15625
 20
-1220.625
 10
5030.15625
 20
-1210.78125
 10
5030.15625
 20
-1200.9375
 10
5030.15625
 20
-1191.09375
 10
5030.15625
 20
-1181.25
 10
5030.15625
 20
-1171.40625
 10
5030.15625
 20
-1161.5625
 10
5030.15625
 20
-1151.71875
 10
5030.15625
 20
-1141.875
 10
5030.15625
 20
-1132.03125
 10
5030.15625
 20
-1122.1875
 10
5030.15625
 20
-1112.34375
 10
5030.15625
 20
-1102.5
 10
5030.15625
 20
-1092.65625
 10
5030.15625
 20
-1082.8125
 10
5030.15625
 20
-1072.96875
 10
5030.15625
 20
-1063.125
 10
5030.15625
 20
-1053.28125
 10
5030.15625
 20
-1043.4375
 10
5030.15625
 20
-1033.59375
 10
5030.15625
 20
-1023.75
 10
5030.15625
 20
-1013.90625
 10
5030.15625
 20
-1004.0625
 10
5030.15625
 20
-994.21875
 10
5030.15625
 20
-984.375
 10
5030.15625
 20
-974.53125
 10
5030.15625
 20
-964.6875
 10
5030.15625
 20
-954.84375
 10
5030.15625
 20
-945.0
 10
5030.15625
 20
-935.15625
 10
5030.15625
 20
-925.3125
 10
5030.15625
 20
-915.46875
 10
5030.15625
 20
-905.625
 10
5030.15625
 20
-895.78125
 10
5030.15625
 20
-885.9375
 10
5030.15625
 20
-876.09375
 10
5030.15625
 20
-866.25
 10
5030.15625
 20
-856.40625
 10
5030.15625
 20
-846.5625
 10
5030.15625
 20
-836.71875
 10
5030.15625
 20
-826.875
 10
5030.15625
 20
-817.03125
 10
5030.15625
 20
-807.1875
 10
5030.15625
 20
-797.34375
 10
5030.15625
 20
-787.5
 10
5030.15625
 20
-777.65625
 10
5030.15625
 20
-767.8125
 10
5030.15625
 20
-757.96875
 10
5030.15625
 20
-748.125
 10
5030.15625
 20
-738.28125
 10
5030.15625
 20
-728.4375
 10
5030.15625
 20
-718.59375
 10
5030.15625
 20
-708.75
 10
5030.15625
 20
-698.90625
 10
5030.15625
 20
-689.0625
 10
5030.15625
 20
-679.21875
 10
5030.15625
 20
-669.375
 10
5030.15625
 20
-659.53125
 10
5030.15625
 20
-649.6875
 10
5030.15625
 20
-639.84375
 10
5030.15625
 20
-630.0
 10
5030.15625
 20
-620.15625
 10
5030.15625
 20
-610.3125
 10
5030.15625
 20
-600.46875
 10
5030.15625
 20
-590.625
 10
5030.15625
 20
-580.78125
 10
5030.15625
 20
-570.9375
 10
5030.15625
 20
-561.09375
 10
5030.15625
 20
-551.25
 10
5030.15625
 20
-541.40625
 10
5030.15625
 20
-531.5625
 10
5030.15625
 20
-521.71875
 10
5030.15625
 20
-511.875
 10
5030.15625
 20
-502.03125
 10
5030.15625
 20
-492.1875
 10
5030.15625
 20
-482.34375
 10
5030.15625
 20
-472.5
 10
5030.15625
 20
-462.65625
 10
5030.15625
 20
-452.8125
 10
5030.15625
 20
-442.96875
 10
5030.15625
 20
-433.125
 10
5030.15625
 20
-423.28125
 10
5030.15625
 20
-413.4375
 10
5030.15625
 20
-403.59375
 10
5030.15625
 20
-393.75
 10
5030.15625
 20
-383.90625
 10
5030.15625
 20
-374.0625
 10
5030.15625
 20
-364.21875
 10
5030.15625
 20
-354.375
 10
5030.15625
 20
-344.53125
 10
5030.15625
 20
-334.6875
 10
5030.15625
 20
-324.84375
 10
5030.15625
 20
-315.0
 10
5030.15625
 20
-305.15625
 10
5030.15625
 20
-295.3125
 10
5030.15625
 20
-285.46875
 10
5030.15625
 20
-275.625
 10
5030.15625
 20
-265.78125
 10
5030.15625
 20
-255.9375
 10
5030.15625
 20
-246.09375
 10
5030.15625
 20
-236.25
 10
5030.15625
 20
-226.40625
 10
5030.15625
 20
-216.5625
 10
5030.15625
 20
-206.71875
 10
5030.15625
 20
-196.875
 10
5030.15625
 20
-187.03125
 10
5030.15625
 20
-177.1875
 10
5030.15625
 20
-167.34375
 10
5030.15625
 20
-157.5
 10
5030.15625
 20
-147.65625
 10
5030.15625
 20
-137.8125
 10
5030.15625
 20
-127.96875
 10
5030.15625
 20
-118.125
 10
5030.15625
 20
-108.28125
 10
5030.15625
 20
-98.4375
 10
5030.15625
 20
-88.59375
 10
5030.15625
 20
-78.75
 10
5030.15625
 20
-68.90625
 10
5030.15625
 20
-59.0625
 10
5030.15625
 20
-49.21875
 10
5030.15625
 20
-39.375
 10
5030.15625
 20
-29.53125
 10
5030.15625
 20
-19.6875
 10
5030.15625
 20
-9.84375
 10
5030.15625
 20
-0.0
 10
5020.3125
 20
-0.0
 10
5010.46875
 20
-0.0
 10
5000.625
 20
-0.0
 10
4990.78125
 20
-0.0
 10
4980.9375
 20
-0.0
 10
4971.09375
 20
-0.0
 10
4961.25
 20
-0.0
 10
4951.40625
 20
-0.0
 10
4941.5625
 20
-0.0
 10
4931.71875
 20
-0.0
 10
4921.875
 20
-0.0
 10
4912.03125
 20
-0.0
 10
4902.1875
 20
-0.0
 10
4892.34375
 20
-0.0
 10
4882.5
 20
-0.0
 10
4872.65625
 20
-0.0
 10
4862.8125
 20
-0.0
 10
4852.96875
 20
-0.0
 10
4843.125
 20
-0.0
 10
4833.28125
 20
-0.0
 10
4823.4375
 20
-0.0
 10
4813.59375
 20
-0.0
 10
4803.75
 20
-0.0
 10
4793.90625
 20
-0.0
 10
4784.0625
 20
-0.0
 10
4774.21875
 20
-0.0
 10
4764.375
 20
-0.0
 10
4754.53125
 20
-0.0
 10
4744.6875
 20
-0.0
 10
4734.84375
 20
-0.0
 10
4725.0
 20
-0.0
 10
4715.15625
 20
-0.0
 10
4705.3125
 20
-0.0
 10
4695.46875
 20
-0.0
 10
4685.625
 20
-0.0
 10
4675.78125
 20
-0.0
 10
4665.9375
 20
-0.0
 10
4656.09375
 20
-0.0
 10
4646.25
 20
-0.0
 10
4636.40625
 20
-0.0
 10
4626.5625
 20
-0.0
 10
4616.71875
 20
-0.0
 10
4606.875
 20
-0.0
 10
4597.03125
 20
-0.0
 10
4587.1875
 20
-0.0
 10
4577.34375
 20
-0.0
 10
4567.5
 20
-0.0
 10
4557.65625
 20
-0.0
 10
4547.8125
 20
-0.0
 10
4537.96875
 20
-0.0
 10
4528.125
 20
-0.0
 10
4518.28125
 20
-0.0
 10
4508.4375
 20
-0.0
 10
4498.59375
 20
-0.0
 10
4488.75
 20
-0.0
 10
4478.90625
 20
-0.0
 10
4469.0625
 20
-0.0
 10
4459.21875
 20
-0.0
 10
4449.375
 20
-0.0
 10
4439.53125
 20
-0.0
 10
4429.6875
 20
-0.0
 10
4419.84375
 20
-0.0
 10
4410.0
 20
-0.0
 10
4400.15625
 20
-0.0
 10
4390.3125
 20
-0.0
 10
4380.46875
 20
-0.0
 10
4370.625
 20
-0.0
 10
4360.78125
 20
-0.0
 10
4350.9375
 20
-0.0
 10
4341.09375
 20
-0.0
 10
4331.25
 20
-0.0
 10
4321.40625
 20
-0.0
 10
4311.5625
 20
-0.0
 10
4301.71875
 20
-0.0
 10
4291.875
 20
-0.0
 10
4282.03125
 20
-0.0
 10
4272.1875
 20
-0.0
 10
4262.34375
 20
-0.0
 10
4252.5
 20
-0.0
 10
4242.65625
 20
-0.0
 10
4232.8125
 20
-0.0
 10
4222.96875
 20
-0.0
 10
4213.125
 20
-0.0
 10
4203.28125
 20
-0.0
 10
4193.4375
 20
-0.0
 10
4183.59375
 20
-0.0
 10
4173.75
 20
-0.0
 10
4163.90625
 20
-0.0
 10
4154.0625
 20
-0.0
 10
4144.21875
 20
-0.0
 10
4134.375
 20
-0.0
 10
4124.53125
 20
-0.0
 10
4114.6875
 20
-0.0
 10
4104.84375
 20
-0.0
 10
4095.0
 20
-0.0
 10
4085.15625
 20
-0.0
 10
4075.3125
 20
-0.0
 10
4065.46875
 20
-0.0
 10
4055.625
 20
-0.0
 10
4045.78125
 20
-0.0
 10
4035.9375
 20
-0.0
 10
4026.09375
 20
-0.0
 10
4016.25
 20
-0.0
 10
4006.40625
 20
-0.0
 10
3996.5625
 20
-0.0
 10
3986.71875
 20
-0.0
 10
3976.875
 20
-0.0
 10
3967.03125
 20
-0.0
 10
3957.1875
 20
-0.0
 10
3947.34375
 20
-0.0
 10
3937.5
 20
-0.0
 10
3927.65625
 20
-0.0
 10
3917.8125
 20
-0.0
 10
3907.96875
 20
-0.0
 10
3898.125
 20
-0.0
 10
3888.28125
 20
-0.0
 10
3878.4375
 20
-0.0
 10
3868.59375
 20
-0.0
 10
3858.75
 20
-0.0
 10
3848.90625
 20
-0.0
 10
3839.0625
 20
-0.0
 10
3829.21875
 20
-0.0
 10
3819.375
 20
-0.0
 10
3809.53125
 20
-0.0
 10
3799.6875
 20
-0.0
 10
3789.84375
 20
-0.0
 10
3780.0
 20
-0.0
 10
3770.15625
 20
-0.0
 10
3760.3125
 20
-0.0
 10
3750.46875
 20
-0.0
 10
3740.625
 20
-0.0
 10
3730.78125
 20
-0.0
 10
3720.9375
 20
-0.0
 10
3711.09375
 20
-0.0
 10
3701.25
 20
-0.0
 10
3691.40625
 20
-0.0
 10
3681.5625
 20
-0.0
 10
3671.71875
 20
-0.0
 10
3661.875
 20
-0.0
 10
3652.03125
 20
-0.0
 10
3642.1875
 20
-0.0
 10
3632.34375
 20
-0.0
 10
3622.5
 20
-0.0
 10
3612.65625
 20
-0.0
 10
3602.8125
 20
-0.0
 10
3592.96875
 20
-0.0
 10
3583.125
 20
-0.0
 10
3573.28125
 20
-0.0
 10
3563.4375
 20
-0.0
 10
3553.59375
 20
-0.0
 10
3543.75
 20
-0.0
 10
3533.90625
 20
-0.0
 10
3524.0625
 20
-0.0
 10
3514.21875
 20
-0.0
 10
3504.375
 20
-0.0
 10
3494.53125
 20
-0.0
 10
3484.6875
 20
-0.0
 10
3474.84375
 20
-0.0
 10
3465.0
 20
-0.0
 10
3455.15625
 20
-0.0
 10
3445.3125
 20
-0.0
 10
3435.46875
 20
-0.0
 10
3425.625
 20
-0.0
 10
3415.78125
 20
-0.0
 10
3405.9375
 20
-0.0
 10
3396.09375
 20
-0.0
 10
3386.25
 20
-0.0
 10
3376.40625
 20
-0.0
 10
3366.5625
 20
-0.0
 10
3356.71875
 20
-0.0
 10
3346.875
 20
-0.0
 10
3337.03125
 20
-0.0
 10
3327.1875
 20
-0.0
 10
3317.34375
 20
-0.0
 10
3307.5
 20
-0.0
 10
3297.65625
 20
-0.0
 10
3287.8125
 20
-0.0
 10
3277.96875
 20
-0.0
 10
3268.125
 20
-0.0
 10
3258.28125
 20
-0.0
 10
3248.4375
 20
-0.0
 10
3238.59375
 20
-0.0
 10
3228.75
 20
-0.0
 10
3218.90625
 20
-0.0
 10
3209.0625
 20
-0.0
 10
3199.21875
 20
-0.0
 10
3189.375
 20
-0.0
 10
3179.53125
 20
-0.0
 10
3169.6875
 20
-0.0
 10
3159.84375
 20
-0.0
 10
3150.0
 20
-0.0
 10
3140.15625
 20
-0.0
 10
3130.3125
 20
-0.0
 10
3120.46875
 20
-0.0
 10
3110.625
 20
-0.0
 10
3100.78125
 20
-0.0
 10
3090.9375
 20
-0.0
 10
3081.09375
 20
-0.0
 10
3071.25
 20
-0.0
 10
3061.40625
 20
-0.0
 10
3051.5625
 20
-0.0
 10
3041.71875
 20
-0.0
 10
3031.875
 20
-0.0
 10
3022.03125
 20
-0.0
 10
3012.1875
 20
-0.0
 10
3002.34375
 20
-0.0
 10
2992.5
 20
-0.0
 10
2982.65625
 20
-0.0
 10
2972.8125
 20
-0.0
 10
2962.96875
 20
-0.0
 10
2953.125
 20
-0.0
 10
2943.28125
 20
-0.0
 10
2933.4375
 20
-0.0
 10
2923.59375
 20
-0.0
 10
2913.75
 20
-0.0
 10
2903.90625
 20
-0.0
 10
2894.0625
 20
-0.0
 10
2884.21875
 20
-0.0
 10
2874.375
 20
-0.0
 10
2864.53125
 20
-0.0
 10
2854.6875
 20
-0.0
 10
2844.84375
 20
-0.0
 10
2835.0
 20
-0.0
 10
2825.15625
 20
-0.0
 10
2815.3125
 20
-0.0
 10
2805.46875
 20
-0.0
 10
2795.625
 20
-0.0
 10
2785.78125
 20
-0.0
 10
2775.9375
 20
-0.0
 10
2766.09375
 20
-0.0
 10
2756.25
 20
-0.0
 10
2746.40625
 20
-0.0
 10
2736.5625
 20
-0.0
 10
2726.71875
 20
-0.0
 10
2716.875
 20
-0.0
 10
2707.03125
 20
-0.0
 10
2697.1875
 20
-0.0
 10
2687.34375
 20
-0.0
 10
2677.5
 20
-0.0
 10
2667.65625
 20
-0.0
 10
2657.8125
 20
-0.0
 10
2647.96875
 20
-0.0
 10
2638.125
 20
-0.0
 10
2628.28125
 20
-0.0
 10
2618.4375
 20
-0.0
 10
2608.59375
 20
-0.0
 10
2598.75
 20
-0.0
 10
2588.90625
 20
-0.0
 10
2579.0625
 20
-0.0
 10
2569.21875
 20
-0.0
 10
2559.375
 20
-0.0
 10
2549.53125
 20
-0.0
 10
2539.6875
 20
-0.0
 10
2529.84375
 20
-0.0
 10
2520.0
 20
-0.0
 10
2510.15625
 20
-0.0
 10
2500.3125
 20
-0.0
 10
2490.46875
 20
-0.0
 10
2480.625
 20
-0.0
 10
2470.78125
 20
-0.0
 10
2460.9375
 20
-0.0
 10
2451.09375
 20
-0.0
 10
2441.25
 20
-0.0
 10
2431.40625
 20
-0.0
 10
2421.5625
 20
-0.0
 10
2411.71875
 20
-0.0
 10
2401.875
 20
-0.0
 10
2392.03125
 20
-0.0
 10
2382.1875
 20
-0.0
 10
2372.34375
 20
-0.0
 10
2362.5
 20
-0.0
 10
2352.65625
 20
-0.0
 10
2342.8125
 20
-0.0
 10
2332.96875
 20
-0.0
 10
2323.125
 20
-0.0
 10
2313.28125
 20
-0.0
 10
2303.4375
 20
-0.0
 10
2293.59375
 20
-0.0
 10
2283.75
 20
-0.0
 10
2273.90625
 20
-0.0
 10
2264.0625
 20
-0.0
 10
2254.21875
 20
-0.0
 10
2244.375
 20
-0.0
 10
2234.53125
 20
-0.0
 10
2224.6875
 20
-0.0
 10
2214.84375
 20
-0.0
 10
2205.0
 20
-0.0
 10
2195.15625
 20
-0.0
 10
2185.3125
 20
-0.0
 10
2175.46875
 20
-0.0
 10
2165.625
 20
-0.0
 10
2155.78125
 20
-0.0
 10
2145.9375
 20
-0.0
 10
2136.09375
 20
-0.0
 10
2126.25
 20
-0.0
 10
2116.40625
 20
-0.0
 10
2106.5625
 20
-0.0
 10
2096.71875
 20
-0.0
 10
2086.875
 20
-0.0
 10
2077.03125
 20
-0.0
 10
2067.1875
 20
-0.0
 10
2057.34375
 20
-0.0
 10
2047.5
 20
-0.0
 10
2037.65625
 20
-0.0
 10
2027.8125
 20
-0.0
 10
2017.96875
 20
-0.0
 10
2008.125
 20
-0.0
 10
1998.28125
 20
-0.0
 10
1988.4375
 20
-0.0
 10
1978.59375
 20
-0.0
 10
1968.75
 20
-0.0
 10
1958.90625
 20
-0.0
 10
1949.0625
 20
-0.0
 10
1939.21875
 20
-0.0
 10
1929.375
 20
-0.0
 10
1919.53125
 20
-0.0
 10
1909.6875
 20
-0.0
 10
1899.84375
 20
-0.0
 10
1890.0
 20
-0.0
 10
1880.15625
 20
-0.0
 10
1870.3125
 20
-0.0
 10
1860.46875
 20
-0.0
 10
1850.625
 20
-0.0
 10
1840.78125
 20
-0.0
 10
1830.9375
 20
-0.0
 10
1821.09375
 20
-0.0
 10
1811.25
 20
-0.0
 10
1801.40625
 20
-0.0
 10
1791.5625
 20
-0.0
 10
1781.71875
 20
-0.0
 10
1771.875
 20
-0.0
 10
1762.03125
 20
-0.0
 10
1752.1875
 20
-0.0
 10
1742.34375
 20
-0.0
 10
1732.5
 20
-0.0
 10
1722.65625
 20
-0.0
 10
1712.8125
 20
-0.0
 10
1702.96875
 20
-0.0
 10
1693.125
 20
-0.0
 10
1683.28125
 20
-0.0
 10
1673.4375
 20
-0.0
 10
1663.59375
 20
-0.0
 10
1653.75
 20
-0.0
 10
1643.90625
 20
-0.0
 10
1634.0625
 20
-0.0
 10
1624.21875
 20
-0.0
 10
1614.375
 20
-0.0
 10
1604.53125
 20
-0.0
 10
1594.6875
 20
-0.0
 10
1584.84375
 20
-0.0
 10
1575.0
 20
-0.0
 10
1565.15625
 20
-0.0
 10
1555.3125
 20
-0.0
 10
1545.46875
 20
-0.0
 10
1535.625
 20
-0.0
 10
1525.78125
 20
-0.0
 10
1515.9375
 20
-0.0
 10
1506.09375
 20
-0.0
 10
1496.25
 20
-0.0
 10
1486.40625
 20
-0.0
 10
1476.5625
 20
-0.0
 10
1466.71875
 20
-0.0
 10
1456.875
 20
-0.0
 10
1447.03125
 20
-0.0
 10
1437.1875
 20
-0.0
 10
1427.34375
 20
-0.0
 10
1417.5
 20
-0.0
 10
1407.65625
 20
-0.0
 10
1397.8125
 20
-0.0
 10
1387.96875
 20
-0.0
 10
1378.125
 20
-0.0
 10
1368.28125
 20
-0.0
 10
1358.4375
 20
-0.0
 10
1348.59375
 20
-0.0
 10
1338.75
 20
-0.0
 10
1328.90625
 20
-0.0
 10
1319.0625
 20
-0.0
 10
1309.21875
 20
-0.0
 10
1299.375
 20
-0.0
 10
1289.53125
 20
-0.0
 10
1279.6875
 20
-0.0
 10
1269.84375
 20
-0.0
 10
1260.0
 20
-0.0
 10
1250.15625
 20
-0.0
 10
1240.3125
 20
-0.0
 10
1230.46875
 20
-0.0
 10
1220.625
 20
-0.0
 10
1210.78125
 20
-0.0
 10
1200.9375
 20
-0.0
 10
1191.09375
 20
-0.0
 10
1181.25
 20
-0.0
 10
1171.40625
 20
-0.0
 10
1161.5625
 20
-0.0
 10
1151.71875
 20
-0.0
 10
1141.875
 20
-0.0
 10
1132.03125
 20
-0.0
 10
1122.1875
 20
-0.0
 10
1112.34375
 20
-0.0
 10
1102.5
 20
-0.0
 10
1092.65625
 20
-0.0
 10
1082.8125
 20
-0.0
 10
1072.96875
 20
-0.0
 10
1063.125
 20
-0.0
 10
1053.28125
 20
-0.0
 10
1043.4375
 20
-0.0
 10
1033.59375
 20
-0.0
 10
1023.75
 20
-0.0
 10
1013.90625
 20
-0.0
 10
1004.0625
 20
-0.0
 10
994.21875
 20
-0.0
 10
984.375
 20
-0.0
 10
974.53125
 20
-0.0
 10
964.6875
 20
-0.0
 10
954.84375
 20
-0.0
 10
945.0
 20
-0.0
 10
935.15625
 20
-0.0
 10
925.3125
 20
-0.0
 10
915.46875
 20
-0.0
 10
905.625
 20
-0.0
 10
895.78125
 20
-0.0
 10
885.9375
 20
-0.0
 10
876.09375
 20
-0.0
 10
866.25
 20
-0.0
 10
856.40625
 20
-0.0
 10
846.5625
 20
-0.0
 10
836.71875
 20
-0.0
 10
826.875
 20
-0.0
 10
817.03125
 20
-0.0
 10
807.1875
 20
-0.0
 10
797.34375
 20
-0.0
 10
787.5
 20
-0.0
 10
777.65625
 20
-0.0
 10
767.8125
 20
-0.0
 10
757.96875
 20
-0.0
 10
748.125
 20
-0.0
 10
738.28125
 20
-0.0
 10
728.4375
 20
-0.0
 10
718.59375
 20
-0.0
 10
708.75
 20
-0.0
 10
698.90625
 20
-0.0
 10
689.0625
 20
-0.0
 10
679.21875
 20
-0.0
 10
669.375
 20
-0.0
 10
659.53125
 20
-0.0
 10
649.6875
 20
-0.0
 10
639.84375
 20
-0.0
 10
630.0
 20
-0.0
 10
620.15625
 20
-0.0
 10
610.3125
 20
-0.0
 10
600.46875
 20
-0.0
 10
590.625
 20
-0.0
 10
580.78125
 20
-0.0
 10
570.9375
 20
-0.0
 10
561.09375
 20
-0.0
 10
551.25
 20
-0.0
 10
541.40625
 20
-0.0
 10
531.5625
 20
-0.0
 10
521.71875
 20
-0.0
 10
511.875
 20
-0.0
 10
502.03125
 20
-0.0
 10
492.1875
 20
-0.0
 10
482.34375
 20
-0.0
 10
472.5
 20
-0.0
 10
462.65625
 20
-0.0
 10
452.8125
 20
-0.0
 10
442.96875
 20
-0.0
 10
433.125
 20
-0.0
 10
423.28125
 20
-0.0
 10
413.4375
 20
-0.0
 10
403.59375
 20
-0.0
 10
393.75
 20
-0.0
 10
383.90625
 20
-0.0
 10
374.0625
 20
-0.0
 10
364.21875
 20
-0.0
 10
354.375
 20
-0.0
 10
344.53125
 20
-0.0
 10
334.6875
 20
-0.0
 10
324.84375
 20
-0.0
 10
315.0
 20
-0.0
 10
305.15625
 20
-0.0
 10
295.3125
 20
-0.0
 10
285.46875
 20
-0.0
 10
275.625
 20
-0.0
 10
265.78125
 20
-0.0
 10
255.9375
 20
-0.0
 10
246.09375
 20
-0.0
 10
236.25
 20
-0.0
 10
226.40625
 20
-0.0
 10
216.5625
 20
-0.0
 10
206.71875
 20
-0.0
 10
196.875
 20
-0.0
 10
187.03125
 20
-0.0
 10
177.1875
 20
-0.0
 10
167.34375
 20
-0.0
 10
157.5
 20
-0.0
 10
147.65625
 20
-0.0
 10
137.8125
 20
-0.0
 10
127.96875
 20
-0.0
 10
118.125
 20
-0.0
 10
108.28125
 20
-0.0
 10
98.4375
 20
-0.0
 10
88.59375
 20
-0.0
 10
78.75
 20
-0.0
 10
68.90625
 20
-0.0
 10
59.0625
 20
-0.0
 10
49.21875
 20
-0.0
 10
39.375
 20
-0.0
 10
29.53125
 20
-0.0
 10
19.6875
 20
-0.0
 10
9.84375
 20
-0.0
  0
LWPOLYLINE
  5
35
330
17
100
AcDbEntity
  8
substrate
100
AcDbPolyline
 90
18
 70
1
 43
0.5
 10
4793.90625
 20
-5020.3125
 10
4803.75
 20
-5010.46875
 10
4813.59375
 20
-5010.46875
 10
4823.4375
 20
-5010.46875
 10
4833.28125
 20
-5010.46875
 10
4843.125
 20
-5010.46875
 10
4852.96875
 20
-5010.46875
 10
4862.8125
 20
-5010.46875
 10
4872.65625
 20
-5010.46875
 10
4882.5
 20
-5020.3125
 10
4872.65625
 20
-5030.15625
 10
4862.8125
 20
-5030.15625
 10
4852.96875
 20
-5030.15625
 10
4843.125
 20
-5030.15625
 10
4833.28125
 20
-5030.15625
 10
4823.4375
 20
-5030.15625
 10
4813.59375
 20
-5030.15625
 10
4803.75
 20
-5030.15625
  0
LWPOLYLINE
  5
36
330
17
100
AcDbEntity
  8
substrate
100
AcDbPolyline
 90
12
 70
1
 43
0.5
 10
4734.84375
 20
-5020.3125
 10
4744.6875
 20
-5010.46875
 10
4754.53125
 20
-5010.46875
 10
4764.375
 20
-5010.46875
 10
4774.21875
 20
-5010.46875
 10
4784.0625
 20
-5010.46875
 10
4793.90625
 20
-5020.3125
 10
4784.0625
 20
-5030.15625
 10
4774.21875
 20
-5030.15625
 10
4764.375
 20
-5030.15625
 10
4754.53125
 20
-5030.15625
 10
4744.6875
 20
-5030.15625
  0
LWPOLYLINE
  5
37
330
17
100
AcDbEntity
  8
substrate
100
AcDbPolyline
 90
60
 70
1
 43
0.5
 10
4439.53125
 20
-5020.3125
 10
4449.375
 20
-5010.46875
 10
4459.21875
 20
-5010.46875
 10
4469.0625
 20
-5010.46875
 10
4478.90625
 20
-5010.46875
 10
4488.75
 20
-5010.46875
 10
4498.59375
 20
-5010.46875
 10
4508.4375
 20
-5010.46875
 10
4518.28125
 20
-5010.46875
 10
4528.125
 20
-5010.46875
 10
4537.96875
 20
-5010.46875
 10
4547.8125
 20
-5010.46875
 10
4557.65625
 20
-5010.46875
 10
4567.5
 20
-5010.46875
 10
4577.34375
 20
-5010.46875
 10
4587.1875
 20
-5010.46875
 10
4597.03125
 20
-5010.46875
 10
4606.875
 20
-5010.46875
 10
4616.71875
 20
-5010.46875
 10
4626.5625
 20
-5010.46875
 10
4636.40625
 20
-5010.46875
 10
4646.25
 20
-5010.46875
 10
4656.09375
 20
-5010.46875
 10
4665.9375
 20
-5010.46875
 10
4675.78125
 20
-5010.46875
 10
4685.625
 20
-5010.46875
 10
4695.46875
 20
-5010.46875
 10
4705.3125
 20
-5010.46875
 10
4715.15625
 20
-5010.46875
 10
4725.0
 20
-5010.46875
 10
4734.84375
 20
-5020.3125
 10
4725.0
 20
-5030.15625
 10
4715.15625
 20
-5030.15625
 10
4705.3125
 20
-5030.15625
 10
4695.46875
 20
-5030.15625
 10
4685.625
 20
-5030.15625
 10
4675.78125
 20
-5030.15625
 10
4665.9375
 20
-5030.15625
 10
4656.09375
 20
-5030.15625
 10
4646.25
 20
-5030.15625
 10
4636.40625
 20
-5030.15625
 10
4626.5625
 20
-5030.15625
 10
4616.71875
 20
-5030.15625
 10
4606.875
 20
-5030.15625
 10
4597.03125
 20
-5030.15625
 10
4587.1875
 20
-5030.15625
 10
4577.34375
 20
-5030.15625
 10
4567.5
 20
-5030.15625
 10
4557.65625
 20
-5030.15625
 10
4547.8125
 20
-5030.15625
 10
4537.96875
 20
-5030.15625
 10
4528.125
 20
-5030.15625
 10
4518.28125
 20
-5030.15625
 10
4508.4375
 20
-5030.15625
 10
4498.59375
 20
-5030.15625
 10
4488.75
 20
-5030.15625
 10
4478.90625
 20
-5030.15625
 10
4469.0625
 20
-5030.15625
 10
4459.21875
 20
-5030.15625
 10
4449.375
 20
-5030.15625
  0
LWPOLYLINE
  5
38
330
17
100
AcDbEntity
  8
substrate
100
AcDbPolyline
 90
32
 70
1
 43
0.5
 10
4282.03125
 20
-5020.3125
 10
4291.875
 20
-5010.46875
 10
4301.71875
 20
-5010.46875
 10
4311.5625
 20
-5010.46875
 10
4321.40625
 20
-5010.46875
 10
4331.25
 20
-5010.46875
 10
4341.09375
 20
-5010.46875
 10
4350.9375
 20
-5010.46875
 10
4360.78125
 20
-5010.46875
 10
4370.625
 20
-5010.46875
 10
4380.46875
 20
-5010.46875
 10
4390.3125
 20
-5010.46875
 10
4400.15625
 20
-5010.46875
 10
4410.0
 20
-5010.46875
 10
4419.84375
 20
-5010.46875
 10
4429.6875
 20
-5010.46875
 10
4439.53125
 20
-5020.3125
 10
4429.6875
 20
-5030.15625
 10
4419.84375
 20
-5030.15625
 10
4410.0
 20
-5030.15625
 10
4400.15625
 20
-5030.15625
 10
4390.3125
 20
-5030.15625
 10
4380.46875
 20
-5030.15625
 10
4370.625
 20
-5030.15625
 10
4360.78125
 20
-5030.15625
 10
4350.9375
 20
-5030.15625
 10
4341.09375
 20
-5030.15625
 10
4331.25
 20
-5030.15625
 10
4321.40625
 20
-5030.15625
 10
4311.5625
 20
-5030.15625
 10
4301.71875
 20
-5030.15625
 10
4291.875
 20
-5030.15625
  0
LWPOLYLINE
  5
39
330
17
100
AcDbEntity
  8
substrate
100
AcDbPolyline
 90
34
 70
1
 43
0.5
 10
4104.84375
 20
-5020.3125
 10
4114.6875
 20
-5010.46875
 10
4124.53125
 20
-5010.46875
 10
4134.375
 20
-5010.46875
 10
4144.21875
 20
-5010.46875
 10
4154.0625
 20
-5010.46875
 10
4163.90625
 20
-5010.46875
 10
4173.75
 20
-5010.46875
 10
4183.59375
 20
-5010.46875
 10
4193.4375
 20
-5010.46875
 10
4203.28125
 20
-5010.46875
 10
4213.125
 20
-5010.46875
 10
4222.96875
 20
-5010.46875
 10
4232.8125
 20
-5010.46875
 10
4242.65625
 20
-5010.46875
 10
4252.5
 20
-5010.46875
 10
4262.34375
 20
-5010.46875
 10
4272.1875
 20
-5020.3125
 10
4262.34375
 20
-5030.15625
 10
4252.5
 20
-5030.15625
 10
4242.65625
 20
-5030.15625
 10
4232.8125
 20
-5030.15625
 10
4222.96875
 20
-5030.15625
 10
4213.125
 20
-5030.15625
 10
4203.28125
 20
-5030.15625
 10
4193.4375
 20
-5030.15625
 10
4183.59375
 20
-5030.15625
 10
4173.75
 20
-5030.15625
 10
4163.90625
 20
-5030.15625
 10
4154.0625
 20
-5030.15625
 10
4144.21875
 20
-5030.15625
 10
4134.375
 20
-5030.15625
 10
4124.53125
 20
-5030.15625
 10
4114.6875
 20
-5030.15625
  0
LWPOLYLINE
  5
3A
330
17
100
AcDbEntity
  8
substrate
100
AcDbPolyline
 90
42
 70
1
 43
0.5
 10
3898.125
 20
-5020.3125
 10
3907.96875
 20
-5010.46875
 10
3917.8125
 20
-5010.46875
 10
3927.65625
 20
-5010.46875
 10
3937.5
 20
-5010.46875
 10
3947.34375
 20
-5010.46875
 10
3957.1875
 20
-5010.46875
 10
3967.03125
 20
-5010.46875
 10
3976.875
 20
-5010.46875
 10
3986.71875
 20
-5010.46875
 10
3996.5625
 20
-5010.46875
 10
4006.40625
 20
-5010.46875
 10
4016.25
 20
-5010.46875
 10
4026.09375
 20
-5010.46875
 10
4035.9375
 20
-5010.46875
 10
4045.78125
 20
-5010.46875
 10
4055.625
 20
-5010.46875
 10
4065.46875
 20
-5010.46875
 10
4075.3125
 20
-5010.46875
 10
4085.15625
 20
-5010.46875
 10
4095.0
 20
-5010.46875
 10
4104.84375
 20
-5020.3125
 10
4095.0
 20
-5030.15625
 10
4085.15625
 20
-5030.15625
 10
4075.3125
 20
-5030.15625
 10
4065.46875
 20
-5030.15625
 10
4055.625
 20
-5030.15625
 10
4045.78125
 20
-5030.15625
 10
4035.9375
 20
-5030.15625
 10
4026.09375
 20
-5030.15625
 10
4016.25
 20
-5030.15625
 10
4006.40625
 20
-5030.15625
 10
3996.5625
 20
-5030.15625
 10
3986.71875
 20
-5030.15625
 10
3976.875
 20
-5030.15625
 10
3967.03125
 20
-5030.15625
 10
3957.1875
 20
-5030.15625
 10
3947.34375
 20
-5030.15625
 10
3937.5
 20
-5030.15625
 10
3927.65625
 20
-5030.15625
 10
3917.8125
 20
-5030.15625
 10
3907.96875
 20
-5030.15625
  0
LWPOLYLINE
  5
3B
330
17
100
AcDbEntity
  8
substrate
100
AcDbPolyline
 90
96
 70
1
 43
0.5
 10
3396.09375
 20
-5020.3125
 10
3405.9375
 20
-5010.46875
 10
3415.78125
 20
-5010.46875
 10
3425.625
 20
-5010.46875
 10
3435.46875
 20
-5010.46875
 10
3445.3125
 20
-5010.46875
 10
3455.15625
 20
-5010.46875
 10
3465.0
 20
-5010.46875
 10
3474.84375
 20
-5010.46875
 10
3484.6875
 20
-5010.46875
 10
3494.53125
 20
-5010.46875
 10
3504.375
 20
-5010.46875
 10
3514.21875
 20
-5010.46875
 10
3524.0625
 20
-5010.46875
 10
3533.90625
 20
-5010.46875
 10
3543.75
 20
-5010.46875
 10
3553.59375
 20
-5010.46875
 10
3563.4375
 20
-5010.46875
 10
3573.28125
 20
-5010.46875
 10
3583.125
 20
-5010.46875
 10
3592.96875
 20
-5010.46875
 10
3602.8125
 20
-5010.46875
 10
3612.65625
 20
-5010.46875
 10
3622.5
 20
-5010.46875
 10
3632.34375
 20
-5010.46875
 10
3642.1875
 20
-5010.46875
 10
3652.03125
 20
-5010.46875
 10
3661.875
 20
-5010.46875
 10
3671.71875
 20
-5010.46875
 10
3681.5625
 20
-5010.46875
 10
3691.40625
 20
-5010.46875
 10
3701.25
 20
-5010.46875
 10
3711.09375
 20
-5010.46875
 10
3720.9375
 20
-5010.46875
 10
3730.78125
 20
-5010.46875
 10
3740.625
 20
-5010.46875
 10
3750.46875
 20
-5010.46875
 10
3760.3125
 20
-5010.46875
 10
3770.15625
 20
-5010.46875
 10
3780.0
 20
-5010.46875
 10
3789.84375
 20
-5010.46875
 10
3799.6875
 20
-5010.46875
 10
3809.53125
 20
-5010.46875
 10
3819.375
 20
-5010.46875
 10
3829.21875
 20
-5010.46875
 10
3839.0625
 20
-5010.46875
 10
3848.90625
 20
-5010.46875
 10
3858.75
 20
-5010.46875
 10
3868.59375
 20
-5020.3125
 10
3858.75
 20
-5030.15625
 10
3848.90625
 20
-5030.15625
 10
3839.0625
 20
-5030.15625
 10
3829.21875
 20
-5030.15625
 10
3819.375
 20
-5030.15625
 10
3809.53125
 20
-5030.15625
 10
3799.6875
 20
-5030.15625
 10
3789.84375
 20
-5030.15625
 10
3780.0
 20
-5030.15625
 10
3770.15625
 20
-5030.15625
 10
3760.3125
 20
-5030.15625
 10
3750.46875
 20
-5030.15625
 10
3740.625
 20
-5030.15625
 10
3730.78125
 20
-5030.15625
 10
3720.9375
 20
-5030.15625
 10
3711.09375
 20
-5030.15625
 10
3701.25
 20
-5030.15625
 10
3691.40625
 20
-5030.15625
 10
3681.5625
 20
-5030.15625
 10
3671.71875
 20
-5030.15625
 10
3661.875
 20
-5030.15625
 10
3652.03125
 20
-5030.15625
 10
3642.1875
 20
-5030.15625
 10
3632.34375
 20
-5030.15625
 10
3622.5
 20
-5030.15625
 10
3612.65625
 20
-5030.15625
 10
3602.8125
 20
-5030.15625
 10
3592.96875
 20
-5030.15625
 10
3583.125
 20
-5030.15625
 10
3573.28125
 20
-5030.15625
 10
3563.4375
 20
-5030.15625
 10
3553.59375
 20
-5030.15625
 10
3543.75
 20
-5030.15625
 10
3533.90625
 20
-5030.15625
 10
3524.0625
 20
-5030.15625
 10
3514.21875
 20
-5030.15625
 10
3504.375
 20
-5030.15625
 10
3494.53125
 20
-5030.15625
 10
3484.6875
 20
-5030.15625
 10
3474.84375
 20
-5030.15625
 10
3465.0
 20
-5030.15625
 10
3455.15625
 20
-5030.15625
 10
3445.3125
 20
-5030.15625
 10
3435.46875
 20
-5030.15625
 10
3425.625
 20
-5030.15625
 10
3415.78125
 20
-5030.15625
 10
3405.9375
 20
-5030.15625
  0
LWPOLYLINE
  5
3C
330
17
100
AcDbEntity
  8
substrate
100
AcDbPolyline
 90
22
 70
1
 43
0.5
 10
3287.8125
 20
-5020.3125
 10
3297.65625
 20
-5010.46875
 10
3307.5
 20
-5010.46875
 10
3317.34375
 20
-5010.46875
 10
3327.1875
 20
-5010.46875
 10
3337.03125
 20
-5010.46875
 10
3346.875
 20
-5010.46875
 10
3356.71875
 20
-5010.46875
 10
3366.5625
 20
-5010.46875
 10
3376.40625
 20
-5010.46875
 10
3386.25
 20
-5010.46875
 10
3396.09375
 20
-5020.3125
 10
3386.25
 20
-5030.15625
 10
3376.40625
 20
-5030.15625
 10
3366.5625
 20
-5030.15625
 10
3356.71875
 20
-5030.15625
 10
3346.875
 20
-5030.15625
 10
3337.03125
 20
-5030.15625
 10
3327.1875
 20
-5030.15625
 10
3317.34375
 20
-5030.15625
 10
3307.5
 20
-5030.15625
 10
3297.65625
 20
-5030.15625
  0
LWPOLYLINE
  5
3D
330
17
100
AcDbEntity
  8
substrate
100
AcDbPolyline
 90
4
 70
1
 43
0.5
 10
3268.125
 20
-5020.3125
 10
3277.96875
 20
-5010.46875
 10
3287.8125
 20
-5020.3125
 10
3277.96875
 20
-5030.15625
  0
LWPOLYLINE
  5
3E
330
17
100
AcDbEntity
  8
substrate
100
AcDbPolyline
 90
10
 70
1
 43
0.5
 10
3179.53125
 20
-5020.3125
 10
3189.375
 20
-5010.46875
 10
3199.21875
 20
-5010.46875
 10
3209.0625
 20
-5010.46875
 10
3218.90625
 20
-5010.46875
 10
3228.75
 20
-5020.3125
 10
3218.90625
 20
-5030.15625
 10
3209.0625
 20
-5030.15625
 10
3199.21875
 20
-5030.15625
 10
3189.375
 20
-5030.15625
  0
LWPOLYLINE
  5
3F
330
17
100
AcDbEntity
  8
substrate
100
AcDbPolyline
 90
6
 70
1
 43
0.5
 10
3150.0
 20
-5020.3125
 10
3159.84375
 20
-5010.46875
 10
3169.6875
 20
-5010.46875
 10
3179.53125
 20
-5020.3125
 10
3169.6875
 20
-5030.15625
 10
3159.84375
 20
-5030.15625
  0
LWPOLYLINE
  5
40
330
17
100
AcDbEntity
  8
substrate
100
AcDbPolyline
 90
4
 70
1
 43
0.5
 10
3130.3125
 20
-5020.3125
 10
3140.15625
 20
-5010.46875
 10
3150.0
 20
-5020.3125
 10
3140.15625
 20
-5030.15625
  0
LWPOLYLINE
  5
41
330
17
100
AcDbEntity
  8
substrate
100
AcDbPolyline
 90
6
 70
1
 43
0.5
 10
3081.09375
 20
-5020.3125
 10
3090.9375
 20
-5010.46875
 10
3100.78125
 20
-5010.46875
 10
3110.625
 20
-5020.3125
 10
3100.78125
 20
-5030.15625
 10
3090.9375
 20
-5030.15625
  0
LWPOLYLINE
  5
42
330
17
100
AcDbEntity
  8
substrate
100
AcDbPolyline
 90
46
 70
1
 43
0.5
 10
2854.6875
 20
-5020.3125
 10
2864.53125
 20
-5010.46875
 10
2874.375
 20
-5010.46875
 10
2884.21875
 20
-5010.46875
 10
2894.0625
 20
-5010.46875
 10
2903.90625
 20
-5010.46875
 10
2913.75
 20
-5010.46875
 10
2923.59375
 20
-5010.46875
 10
2933.4375
 20
-5010.46875
 10
2943.28125
 20
-5010.46875
 10
2953.125
 20
-5010.46875
 10
2962.96875
 20
-5010.46875
 10
2972.8125
 20
-5010.46875
 10
2982.65625
 20
-5010.46875
 10
2992.5
 20
-5010.46875
 10
3002.34375
 20
-5010.46875
 10
3012.1875
 20
-5010.46875
 10
3022.03125
 20
-5010.46875
 10
3031.875
 20
-5010.46875
 10
3041.71875
 20
-5010.46875
 10
3051.5625
 20
-5010.46875
 10
3061.40625
 20
-5010.46875
 10
3071.25
 20
-5010.46875
 10
3081.09375
 20
-5020.3125
 10
3071.25
 20
-5030.15625
 10
3061.40625
 20
-5030.15625
 10
3051.5625
 20
-5030.15625
 10
3041.71875
 20
-5030.15625
 10
3031.875
 20
-5030.15625
 10
3022.03125
 20
-5030.15625
 10
3012.1875
 20
-5030.15625
 10
3002.34375
 20
-5030.15625
 10
2992.5
 20
-5030.15625
 10
2982.65625
 20
-5030.15625
 10
2972.8125
 20
-5030.15625
 10
2962.96875
 20
-5030.15625
 10
2953.125
 20
-5030.15625
 10
2943.28125
 20
-5030.15625
 10
2933.4375
 20
-5030.15625
 10
2923.59375
 20
-5030.15625
 10
2913.75
 20
-5030.15625
 10
2903.90625
 20
-5030.15625
 10
2894.0625
 20
-5030.15625
 10
2884.21875
 20
-5030.15625
 10
2874.375
 20
-5030.15625
 10
2864.53125
 20
-5030.15625
  0
LWPOLYLINE
  5
43
330
17
100
AcDbEntity
  8
substrate
100
AcDbPolyline
 90
18
 70
1
 43
0.5
 10
2766.09375
 20
-5020.3125
 10
2775.9375
 20
-5010.46875
 10
2785.78125
 20
-5010.46875
 10
2795.625
 20
-5010.46875
 10
2805.46875
 20
-5010.46875
 10
2815.3125
 20
-5010.46875
 10
2825.15625
 20
-5010.46875
 10
2835.0
 20
-5010.46875
 10
2844.84375
 20
-5010.46875
 10
2854.6875
 20
-5020.3125
 10
2844.84375
 20
-5030.15625
 10
2835.0
 20
-5030.15625
 10
2825.15625
 20
-5030.15625
 10
2815.3125
 20
-5030.15625
 10
2805.46875
 20
-5030.15625
 10
2795.625
 20
-5030.15625
 10
2785.78125
 20
-5030.15625
 10
2775.9375
 20
-5030.15625
  0
LWPOLYLINE
  5
44
330
17
100
AcDbEntity
  8
substrate
100
AcDbPolyline
 90
26
 70
1
 43
0.5
 10
2638.125
 20
-5020.3125
 10
2647.96875
 20
-5010.46875
 10
2657.8125
 20
-5010.46875
 10
2667.65625
 20
-5010.46875
 10
2677.5
 20
-5010.46875
 10
2687.34375
 20
-5010.46875
 10
2697.1875
 20
-5010.46875
 10
2707.03125
 20
-5010.46875
 10
2716.875
 20
-5010.46875
 10
2726.71875
 20
-5010.46875
 10
2736.5625
 20
-5010.46875
 10
2746.40625
 20
-5010.46875
 10
2756.25
 20
-5010.46875
 10
2766.09375
 20
-5020.3125
 10
2756.25
 20
-5030.15625
 10
2746.40625
 20
-5030.15625
 10
2736.5625
 20
-5030.15625
 10
2726.71875
 20
-5030.15625
 10
2716.875
 20
-5030.15625
 10
2707.03125
 20
-5030.15625
 10
2697.1875
 20
-5030.15625
 10
2687.34375
 20
-5030.15625
 10
2677.5
 20
-5030.15625
 10
2667.65625
 20
-5030.15625
 10
2657.8125
 20
-5030.15625
 10
2647.96875
 20
-5030.15625
  0
LWPOLYLINE
  5
45
330
17
100
AcDbEntity
  8
substrate
100
AcDbPolyline
 90
4
 70
1
 43
0.5
 10
2618.4375
 20
-5020.3125
 10
2628.28125
 20
-5010.46875
 10
2638.125
 20
-5020.3125
 10
2628.28125
 20
-5030.15625
  0
LWPOLYLINE
  5
46
330
17
100
AcDbEntity
  8
substrate
100
AcDbPolyline
 90
24
 70
1
 43
0.5
 10
2490.46875
 20
-5020.3125
 10
2500.3125
 20
-5010.46875
 10
2510.15625
 20
-5010.46875
 10
2520.0
 20
-5010.46875
 10
2529.84375
 20
-5010.46875
 10
2539.6875
 20
-5010.46875
 10
2549.53125
 20
-5010.46875
 10
2559.375
 20
-5010.46875
 10
2569.21875
 20
-5010.46875
 10
2579.0625
 20
-5010.46875
 10
2588.90625
 20
-5010.46875
 10
2598.75
 20
-5010.46875
 10
2608.59375
 20
-5020.3125
 10
2598.75
 20
-5030.15625
 10
2588.90625
 20
-5030.15625
 10
2579.0625
 20
-5030.15625
 10
2569.21875
 20
-5030.15625
 10
2559.375
 20
-5030.15625
 10
2549.53125
 20
-5030.15625
 10
2539.6875
 20
-5030.15625
 10
2529.84375
 20
-5030.15625
 10
2520.0
 20
-5030.15625
 10
2510.15625
 20
-5030.15625
 10
2500.3125
 20
-5030.15625
  0
LWPOLYLINE
  5
47
330
17
100
AcDbEntity
  8
substrate
100
AcDbPolyline
 90
8
 70
1
 43
0.5
 10
2451.09375
 20
-5020.3125
 10
2460.9375
 20
-5010.46875
 10
2470.78125
 20
-5010.46875
 10
2480.625
 20
-5010.46875
 10
2490.46875
 20
-5020.3125
 10
2480.625
 20
-5030.15625
 10
2470.78125
 20
-5030.15625
 10
2460.9375
 20
-5030.15625
  0
LWPOLYLINE
  5
48
330
17
100
AcDbEntity
  8
substrate
100
AcDbPolyline
 90
14
 70
1
 43
0.5
 10
2382.1875
 20
-5020.3125
 10
2392.03125
 20
-5010.46875
 10
2401.875
 20
-5010.46875
 10
2411.71875
 20
-5010.46875
 10
2421.5625
 20
-5010.46875
 10
2431.40625
 20
-5010.46875
 10
2441.25
 20
-5010.46875
 10
2451.09375
 20
-5020.3125
 10
2441.25
 20
-5030.15625
 10
2431.40625
 20
-5030.15625
 10
2421.5625
 20
-5030.15625
 10
2411.71875
 20
-5030.15625
 10
2401.875
 20
-5030.15625
 10
2392.03125
 20
-5030.15625
  0
LWPOLYLINE
  5
49
330
17
100
AcDbEntity
  8
substrate
100
AcDbPolyline
 90
4
 70
1
 43
0.5
 10
2362.5
 20
-5020.3125
 10
2372.34375
 20
-5010.46875
 10
2382.1875
 20
-5020.3125
 10
2372.34375
 20
-5030.15625
  0
LWPOLYLINE
  5
4A
330
17
100
AcDbEntity
  8
substrate
100
AcDbPolyline
 90
8
 70
1
 43
0.5
 10
2323.125
 20
-5020.3125
 10
2332.96875
 20
-5010.46875
 10
2342.8125
 20
-5010.46875
 10
2352.65625
 20
-5010.46875
 10
2362.5
 20
-5020.3125
 10
2352.65625
 20
-5030.15625
 10
2342.8125
 20
-5030.15625
 10
2332.96875
 20
-5030.15625
  0
LWPOLYLINE
  5
4B
330
17
100
AcDbEntity
  8
substrate
100
AcDbPolyline
 90
20
 70
1
 43
0.5
 10
2224.6875
 20
-5020.3125
 10
2234.53125
 20
-5010.46875
 10
2244.375
 20
-5010.46875
 10
2254.21875
 20
-5010.46875
 10
2264.0625
 20
-5010.46875
 10
2273.90625
 20
-5010.46875
 10
2283.75
 20
-5010.46875
 10
2293.59375
 20
-5010.46875
 10
2303.4375
 20
-5010.46875
 10
2313.28125
 20
-5010.46875
 10
2323.125
 20
-5020.3125
 10
2313.28125
 20
-5030.15625
 10
2303.4375
 20
-5030.15625
 10
2293.59375
 20
-5030.15625
 10
2283.75
 20
-5030.15625
 10
2273.90625
 20
-5030.15625
 10
2264.0625
 20
-5030.15625
 10
2254.21875
 20
-5030.15625
 10
2244.375
 20
-5030.15625
 10
2234.53125
 20
-5030.15625
  0
LWPOLYLINE
  5
4C
330
17
100
AcDbEntity
  8
substrate
100
AcDbPolyline
 90
14
 70
1
 43
0.5
 10
2136.09375
 20
-5020.3125
 10
2145.9375
 20
-5010.46875
 10
2155.78125
 20
-5010.46875
 10
2165.625
 20
-5010.46875
 10
2175.46875
 20
-5010.46875
 10
2185.3125
 20
-5010.46875
 10
2195.15625
 20
-5010.46875
 10
2205.0
 20
-5020.3125
 10
2195.15625
 20
-5030.15625
 10
2185.3125
 20
-5030.15625
 10
2175.46875
 20
-5030.15625
 10
2165.625
 20
-5030.15625
 10
2155.78125
 20
-5030.15625
 10
2145.9375
 20
-5030.15625
  0
LWPOLYLINE
  5
4D
330
17
100
AcDbEntity
  8
substrate
100
AcDbPolyline
 90
18
 70
1
 43
0.5
 10
2047.5
 20
-5020.3125
 10
2057.34375
 20
-5010.46875
 10
2067.1875
 20
-5010.46875
 10
2077.03125
 20
-5010.46875
 10
2086.875
 20
-5010.46875
 10
2096.71875
 20
-5010.46875
 10
2106.5625
 20
-5010.46875
 10
2116.40625
 20
-5010.46875
 10
2126.25
 20
-5010.46875
 10
2136.09375
 20
-5020.3125
 10
2126.25
 20
-5030.15625
 10
2116.40625
 20
-5030.15625
 10
2106.5625
 20
-5030.15625
 10
2096.71875
 20
-5030.15625
 10
2086.875
 20
-5030.15625
 10
2077.03125
 20
-5030.15625
 10
2067.1875
 20
-5030.15625
 10
2057.34375
 20
-5030.15625
  0
LWPOLYLINE
  5
4E
330
17
100
AcDbEntity
  8
substrate
100
AcDbPolyline
 90
8
 70
1
 43
0.5
 10
2008.125
 20
-5020.3125
 10
2017.96875
 20
-5010.46875
 10
2027.8125
 20
-5010.46875
 10
2037.65625
 20
-5010.46875
 10
2047.5
 20
-5020.3125
 10
2037.65625
 20
-5030.15625
 10
2027.8125
 20
-5030.15625
 10
2017.96875
 20
-5030.15625
  0
LWPOLYLINE
  5
4F
330
17
100
AcDbEntity
  8
substrate
100
AcDbPolyline
 90
6
 70
1
 43
0.5
 10
1949.0625
 20
-5020.3125
 10
1958.90625
 20
-5010.46875
 10
1968.75
 20
-5010.46875
 10
1978.59375
 20
-5020.3125
 10
1968.75
 20
-5030.15625
 10
1958.90625
 20
-5030.15625
  0
LWPOLYLINE
  5
50
330
17
100
AcDbEntity
  8
substrate
100
AcDbPolyline
 90
6
 70
1
 43
0.5
 10
1919.53125
 20
-5020.3125
 10
1929.375
 20
-5010.46875
 10
1939.21875
 20
-5010.46875
 10
1949.0625
 20
-5020.3125
 10
1939.21875
 20
-5030.15625
 10
1929.375
 20
-5030.15625
  0
LWPOLYLINE
  5
51
330
17
100
AcDbEntity
  8
substrate
100
AcDbPolyline
 90
20
 70
1
 43
0.5
 10
1771.875
 20
-5020.3125
 10
1781.71875
 20
-5010.46875
 10
1791.5625
 20
-5010.46875
 10
1801.40625
 20
-5010.46875
 10
1811.25
 20
-5010.46875
 10
1821.09375
 20
-5010.46875
 10
1830.9375
 20
-5010.46875
 10
1840.78125
 20
-5010.46875
 10
1850.625
 20
-5010.46875
 10
1860.46875
 20
-5010.46875
 10
1870.3125
 20
-5020.3125
 10
1860.46875
 20
-5030.15625
 10
1850.625
 20
-5030.15625
 10
1840.78125
 20
-5030.15625
 10
1830.9375
 20
-5030.15625
 10
1821.09375
 20
-5030.15625
 10
1811.25
 20
-5030.15625
 10
1801.40625
 20
-5030.15625
 10
1791.5625
 20
-5030.15625
 10
1781.71875
 20
-5030.15625
  0
LWPOLYLINE
  5
52
330
17
100
AcDbEntity
  8
substrate
100
AcDbPolyline
 90
34
 70
1
 43
0.5
 10
1584.84375
 20
-5020.3125
 10
1594.6875
 20
-5010.46875
 10
1604.53125
 20
-5010.46875
 10
1614.375
 20
-5010.46875
 10
1624.21875
 20
-5010.46875
 10
1634.0625
 20
-5010.46875
 10
1643.90625
 20
-5010.46875
 10
1653.75
 20
-5010.46875
 10
1663.59375
 20
-5010.46875
 10
1673.4375
 20
-5010.46875
 10
1683.28125
 20
-5010.46875
 10
1693.125
 20
-5010.46875
 10
1702.96875
 20
-5010.46875
 10
1712.8125
 20
-5010.46875
 10
1722.65625
 20
-5010.46875
 10
1732.5
 20
-5010.46875
 10
1742.34375
 20
-5010.46875
 10
1752.1875
 20
-5020.3125
 10
1742.34375
 20
-5030.15625
 10
1732.5
 20
-5030.15625
 10
1722.65625
 20
-5030.15625
 10
1712.8125
 20
-5030.15625
 10
1702.96875
 20
-5030.15625
 10
1693.125
 20
-5030.15625
 10
1683.28125
 20
-5030.15625
 10
1673.4375
 20
-5030.15625
 10
1663.59375
 20
-5030.15625
 10
1653.75
 20
-5030.15625
 10
1643.90625
 20
-5030.15625
 10
1634.0625
 20
-5030.15625
 10
1624.21875
 20
-5030.15625
 10
1614.375
 20
-5030.15625
 10
1604.53125
 20
-5030.15625
 10
1594.6875
 20
-5030.15625
  0
LWPOLYLINE
  5
53
330
17
100
AcDbEntity
  8
substrate
100
AcDbPolyline
 90
14
 70
1
 43
0.5
 10
1506.09375
 20
-5020.3125
 10
1515.9375
 20
-5010.46875
 10
1525.78125
 20
-5010.46875
 10
1535.625
 20
-5010.46875
 10
1545.46875
 20
-5010.46875
 10
1555.3125
 20
-5010.46875
 10
1565.15625
 20
-5010.46875
 10
1575.0
 20
-5020.3125
 10
1565.15625
 20
-5030.15625
 10
1555.3125
 20
-5030.15625
 10
1545.46875
 20
-5030.15625
 10
1535.625
 20
-5030.15625
 10
1525.78125
 20
-5030.15625
 10
1515.9375
 20
-5030.15625
  0
LWPOLYLINE
  5
54
330
17
100
AcDbEntity
  8
substrate
100
AcDbPolyline
 90
4
 70
1
 43
0.5
 10
1486.40625
 20
-5020.3125
 10
1496.25
 20
-5010.46875
 10
1506.09375
 20
-5020.3125
 10
1496.25
 20
-5030.15625
  0
LWPOLYLINE
  5
55
330
17
100
AcDbEntity
  8
substrate
100
AcDbPolyline
 90
14
 70
1
 43
0.5
 10
1417.5
 20
-5020.3125
 10
1427.34375
 20
-5010.46875
 10
1437.1875
 20
-5010.46875
 10
1447.03125
 20
-5010.46875
 10
1456.875
 20
-5010.46875
 10
1466.71875
 20
-5010.46875
 10
1476.5625
 20
-5010.46875
 10
1486.40625
 20
-5020.3125
 10
1476.5625
 20
-5030.15625
 10
1466.71875
 20
-5030.15625
 10
1456.875
 20
-5030.15625
 10
1447.03125
 20
-5030.15625
 10
1437.1875
 20
-5030.15625
 10
1427.34375
 20
-5030.15625
  0
LWPOLYLINE
  5
56
330
17
100
AcDbEntity
  8
substrate
100
AcDbPolyline
 90
6
 70
1
 43
0.5
 10
1378.125
 20
-5020.3125
 10
1387.96875
 20
-5010.46875
 10
1397.8125
 20
-5010.46875
 10
1407.65625
 20
-5020.3125
 10
1397.8125
 20
-5030.15625
 10
1387.96875
 20
-5030.15625
  0
LWPOLYLINE
  5
57
330
17
100
AcDbEntity
  8
substrate
100
AcDbPolyline
 90
6
 70
1
 43
0.5
 10
1319.0625
 20
-5020.3125
 10
1328.90625
 20
-5010.46875
 10
1338.75
 20
-5010.46875
 10
1348.59375
 20
-5020.3125
 10
1338.75
 20
-5030.15625
 10
1328.90625
 20
-5030.15625
  0
LWPOLYLINE
  5
58
330
17
100
AcDbEntity
  8
substrate
100
AcDbPolyline
 90
6
 70
1
 43
0.5
 10
1289.53125
 20
-5020.3125
 10
1299.375
 20
-5010.46875
 10
1309.21875
 20
-5010.46875
 10
1319.0625
 20
-5020.3125
 10
1309.21875
 20
-5030.15625
 10
1299.375
 20
-5030.15625
  0
LWPOLYLINE
  5
59
330
17
100
AcDbEntity
  8
substrate
100
AcDbPolyline
 90
14
 70
1
 43
0.5
 10
1191.09375
 20
-5020.3125
 10
1200.9375
 20
-5010.46875
 10
1210.78125
 20
-5010.46875
 10
1220.625
 20
-5010.46875
 10
1230.46875
 20
-5010.46875
 10
1240.3125
 20
-5010.46875
 10
1250.15625
 20
-5010.46875
 10
1260.0
 20
-5020.3125
 10
1250.15625
 20
-5030.15625
 10
1240.3125
 20
-5030.15625
 10
1230.46875
 20
-5030.15625
 10
1220.625
 20
-5030.15625
 10
1210.78125
 20
-5030.15625
 10
1200.9375
 20
-5030.15625
  0
LWPOLYLINE
  5
5A
330
17
100
AcDbEntity
  8
substrate
100
AcDbPolyline
 90
14
 70
1
 43
0.5
 10
1122.1875
 20
-5020.3125
 10
1132.03125
 20
-5010.46875
 10
1141.875
 20
-5010.46875
 10
1151.71875
 20
-5010.46875
 10
1161.5625
 20
-5010.46875
 10
1171.40625
 20
-5010.46875
 10
1181.25
 20
-5010.46875
 10
1191.09375
 20
-5020.3125
 10
1181.25
 20
-5030.15625
 10
1171.40625
 20
-5030.15625
 10
1161.5625
 20
-5030.15625
 10
1151.71875
 20
-5030.15625
 10
1141.875
 20
-5030.15625
 10
1132.03125
 20
-5030.15625
  0
LWPOLYLINE
  5
5B
330
17
100
AcDbEntity
  8
substrate
100
AcDbPolyline
 90
14
 70
1
 43
0.5
 10
1043.4375
 20
-5020.3125
 10
1053.28125
 20
-5010.46875
 10
1063.125
 20
-5010.46875
 10
1072.96875
 20
-5010.46875
 10
1082.8125
 20
-5010.46875
 10
1092.65625
 20
-5010.46875
 10
1102.5
 20
-5010.46875
 10
1112.34375
 20
-5020.3125
 10
1102.5
 20
-5030.15625
 10
1092.65625
 20
-5030.15625
 10
1082.8125
 20
-5030.15625
 10
1072.96875
 20
-5030.15625
 10
1063.125
 20
-5030.15625
 10
1053.28125
 20
-5030.15625
  0
LWPOLYLINE
  5
5C
330
17
100
AcDbEntity
  8
substrate
100
AcDbPolyline
 90
6
 70
1
 43
0.5
 10
1004.0625
 20
-5020.3125
 10
1013.90625
 20
-5010.46875
 10
1023.75
 20
-5010.46875
 10
1033.59375
 20
-5020.3125
 10
1023.75
 20
-5030.15625
 10
1013.90625
 20
-5030.15625
  0
LWPOLYLINE
  5
5D
330
17
100
AcDbEntity
  8
substrate
100
AcDbPolyline
 90
4
 70
1
 43
0.5
 10
984.375
 20
-5020.3125
 10
994.21875
 20
-5010.46875
 10
1004.0625
 20
-5020.3125
 10
994.21875
 20
-5030.15625
  0
LWPOLYLINE
  5
5E
330
17
100
AcDbEntity
  8
substrate
100
AcDbPolyline
 90
4
 70
1
 43
0.5
 10
964.6875
 20
-5020.3125
 10
974.53125
 20
-5010.46875
 10
984.375
 20
-5020.3125
 10
974.53125
 20
-5030.15625
  0
LWPOLYLINE
  5
5F
330
17
100
AcDbEntity
  8
substrate
100
AcDbPolyline
 90
8
 70
1
 43
0.5
 10
895.78125
 20
-5020.3125
 10
905.625
 20
-5010.46875
 10
915.46875
 20
-5010.46875
 10
925.3125
 20
-5010.46875
 10
935.15625
 20
-5020.3125
 10
925.3125
 20
-5030.15625
 10
915.46875
 20
-5030.15625
 10
905.625
 20
-5030.15625
  0
LWPOLYLINE
  5
60
330
17
100
AcDbEntity
  8
substrate
100
AcDbPolyline
 90
4
 70
1
 43
0.5
 10
876.09375
 20
-5020.3125
 10
885.9375
 20
-5010.46875
 10
895.78125
 20
-5020.3125
 10
885.9375
 20
-5030.15625
  0
LWPOLYLINE
  5
61
330
17
100
AcDbEntity
  8
substrate
100
AcDbPolyline
 90
18
 70
1
 43
0.5
 10
787.5
 20
-5020.3125
 10
797.34375
 20
-5010.46875
 10
807.1875
 20
-5010.46875
 10
817.03125
 20
-5010.46875
 10
826.875
 20
-5010.46875
 10
836.71875
 20
-5010.46875
 10
846.5625
 20
-5010.46875
 10
856.40625
 20
-5010.46875
 10
866.25
 20
-5010.46875
 10
876.09375
 20
-5020.3125
 10
866.25
 20
-5030.15625
 10
856.40625
 20
-5030.15625
 10
846.5625
 20
-5030.15625
 10
836.71875
 20
-5030.15625
 10
826.875
 20
-5030.15625
 10
817.03125
 20
-5030.15625
 10
807.1875
 20
-5030.15625
 10
797.34375
 20
-5030.15625
  0
LWPOLYLINE
  5
62
330
17
100
AcDbEntity
  8
substrate
100
AcDbPolyline
 90
4
 70
1
 43
0.5
 10
748.125
 20
-5020.3125
 10
757.96875
 20
-5010.46875
 10
767.8125
 20
-5020.3125
 10
757.96875
 20
-5030.15625
  0
LWPOLYLINE
  5
63
330
17
100
AcDbEntity
  8
substrate
100
AcDbPolyline
 90
6
 70
1
 43
0.5
 10
689.0625
 20
-5020.3125
 10
698.90625
 20
-5010.46875
 10
708.75
 20
-5010.46875
 10
718.59375
 20
-5020.3125
 10
708.75
 20
-5030.15625
 10
698.90625
 20
-5030.15625
  0
LWPOLYLINE
  5
64
330
17
100
AcDbEntity
  8
substrate
100
AcDbPolyline
 90
6
 70
1
 43
0.5
 10
659.53125
 20
-5020.3125
 10
669.375
 20
-5010.46875
 10
679.21875
 20
-5010.46875
 10
689.0625
 20
-5020.3125
 10
679.21875
 20
-5030.15625
 10
669.375
 20
-5030.15625
  0
LWPOLYLINE
  5
65
330
17
100
AcDbEntity
  8
substrate
100
AcDbPolyline
 90
4
 70
1
 43
0.5
 10
639.84375
 20
-5020.3125
 10
649.6875
 20
-5010.46875
 10
659.53125
 20
-5020.3125
 10
649.6875
 20
-5030.15625
  0
LWPOLYLINE
  5
66
330
17
100
AcDbEntity
  8
substrate
100
AcDbPolyline
 90
20
 70
1
 43
0.5
 10
541.40625
 20
-5020.3125
 10
551.25
 20
-5010.46875
 10
561.09375
 20
-5010.46875
 10
570.9375
 20
-5010.46875
 10
580.78125
 20
-5010.46875
 10
590.625
 20
-5010.46875
 10
600.46875
 20
-5010.46875
 10
610.3125
 20
-5010.46875
 10
620.15625
 20
-5010.46875
 10
630.0
 20
-5010.46875
 10
639.84375
 20
-5020.3125
 10
630.0
 20
-5030.15625
 10
620.15625
 20
-5030.15625
 10
610.3125
 20
-5030.15625
 10
600.46875
 20
-5030.15625
 10
590.625
 20
-5030.15625
 10
580.78125
 20
-5030.15625
 10
570.9375
 20
-5030.15625
 10
561.09375
 20
-5030.15625
 10
551.25
 20
-5030.15625
  0
LWPOLYLINE
  5
67
330
17
100
AcDbEntity
  8
substrate
100
AcDbPolyline
 90
8
 70
1
 43
0.5
 10
502.03125
 20
-5020.3125
 10
511.875
 20
-5010.46875
 10
521.71875
 20
-5010.46875
 10
531.5625
 20
-5010.46875
 10
541.40625
 20
-5020.3125
 10
531.5625
 20
-5030.15625
 10
521.71875
 20
-5030.15625
 10
511.875
 20
-5030.15625
  0
LWPOLYLINE
  5
68
330
17
100
AcDbEntity
  8
substrate
100
AcDbPolyline
 90
4
 70
1
 43
0.5
 10
275.625
 20
-5020.3125
 10
285.46875
 20
-5010.46875
 10
295.3125
 20
-5020.3125
 10
285.46875
 20
-5030.15625
  0
LWPOLYLINE
  5
69
330
17
100
AcDbEntity
  8
substrate
100
AcDbPolyline
 90
6
 70
1
 43
0.5
 10
196.875
 20
-5020.3125
 10
206.71875
 20
-5010.46875
 10
216.5625
 20
-5010.46875
 10
226.40625
 20
-5020.3125
 10
216.5625
 20
-5030.15625
 10
206.71875
 20
-5030.15625
  0
LWPOLYLINE
  5
6A
330
17
100
AcDbEntity
  8
substrate
100
AcDbPolyline
 90
14
 70
1
 43
0.5
 10
88.59375
 20
-5020.3125
 10
98.4375
 20
-5010.46875
 10
108.28125
 20
-5010.46875
 10
118.125
 20
-5010.46875
 10
127.96875
 20
-5010.46875
 10
137.8125
 20
-5010.46875
 10
147.65625
 20
-5010.46875
 10
157.5
 20
-5020.3125
 10
147.65625
 20
-5030.15625
 10
137.8125
 20
-5030.15625
 10
127.96875
 20
-5030.15625
 10
118.125
 20
-5030.15625
 10
108.28125
 20
-5030.15625
 10
98.4375
 20
-5030.15625
  0
LWPOLYLINE
  5
6B
330
17
100
AcDbEntity
  8
substrate
100
AcDbPolyline
 90
4
 70
1
 43
0.5
 10
49.21875
 20
-5020.3125
 10
59.0625
 20
-5010.46875
 10
68.90625
 20
-5020.3125
 10
59.0625
 20
-5030.15625
  0
LWPOLYLINE
  5
6C
330
17
100
AcDbEntity
  8
substrate
100
AcDbPolyline
 90
11
 70
1
 43
0.5
 10
0.0
 20
-5000.625
 10
9.84375
 20
-4990.78125
 10
19.6875
 20
-5000.625
 10
19.6875
 20
-5010.46875
 10
29.53125
 20
-5010.46875
 10
39.375
 20
-5020.3125
 10
29.53125
 20
-5030.15625
 10
19.6875
 20
-5030.15625
 10
9.84375
 20
-5030.15625
 10
0.0
 20
-5020.3125
 10
0.0
 20
-5010.46875
  0
LWPOLYLINE
  5
6D
330
17
100
AcDbEntity
  8
substrate
100
AcDbPolyline
 90
29
 70
1
 43
0.5
 10
5010.46875
 20
-4990.78125
 10
5020.3125
 20
-4980.9375
 10
5030.15625
 20
-4990.78125
 10
5030.15625
 20
-5000.625
 10
5030.15625
 20
-5010.46875
 10
5030.15625
 20
-5020.3125
 10
5020.3125
 20
-5030.15625
 10
5010.46875
 20
-5030.15625
 10
5000.625
 20
-5030.15625
 10
4990.78125
 20
-5030.15625
 10
4980.9375
 20
-5030.15625
 10
4971.09375
 20
-5030.15625
 10
4961.25
 20
-5030.15625
 10
4951.40625
 20
-5030.15625
 10
4941.5625
 20
-5030.15625
 10
4931.71875
 20
-5030.15625
 10
4921.875
 20
-5030.15625
 10
4912.03125
 20
-5020.3125
 10
4921.875
 20
-5010.46875
 10
4931.71875
 20
-5010.46875
 10
4941.5625
 20
-5010.46875
 10
4951.40625
 20
-5010.46875
 10
4961.25
 20
-5010.46875
 10
4971.09375
 20
-5010.46875
 10
4980.9375
 20
-5010.46875
 10
4990.78125
 20
-5010.46875
 10
5000.625
 20
-5010.46875
 10
5010.46875
 20
-5010.46875
 10
5010.46875
 20
-5000.625
  0
LWPOLYLINE
  5
6E
330
17
100
AcDbEntity
  8
substrate
100
AcDbPolyline
 90
4
 70
1
 43
0.5
 10
0.0
 20
-4980.9375
 10
9.84375
 20
-4971.09375
 10
19.6875
 20
-4980.9375
 10
9.84375
 20
-4990.78125
  0
LWPOLYLINE
  5
6F
330
17
100
AcDbEntity
  8
substrate
100
AcDbPolyline
 90
8
 70
1
 43
0.5
 10
5010.46875
 20
-4951.40625
 10
5020.3125
 20
-4941.5625
 10
5030.15625
 20
-4951.40625
 10
5030.15625
 20
-4961.25
 10
5030.15625
 20
-4971.09375
 10
5020.3125
 20
-4980.9375
 10
5010.46875
 20
-4971.09375
 10
5010.46875
 20
-4961.25
  0
LWPOLYLINE
  5
70
330
17
100
AcDbEntity
  8
substrate
100
AcDbPolyline
 90
4
 70
1
 43
0.5
 10
0.0
 20
-4941.5625
 10
9.84375
 20
-4931.71875
 10
19.6875
 20
-4941.5625
 10
9.84375
 20
-4951.40625
  0
LWPOLYLINE
  5
71
330
17
100
AcDbEntity
  8
substrate
100
AcDbPolyline
 90
6
 70
1
 43
0.5
 10
5010.46875
 20
-4921.875
 10
5020.3125
 20
-4912.03125
 10
5030.15625
 20
-4921.875
 10
5030.15625
 20
-4931.71875
 10
5020.3125
 20
-4941.5625
 10
5010.46875
 20
-4931.71875
  0
LWPOLYLINE
  5
72
330
17
100
AcDbEntity
  8
substrate
100
AcDbPolyline
 90
6
 70
1
 43
0.5
 10
5010.46875
 20
-4892.34375
 10
5020.3125
 20
-4882.5
 10
5030.15625
 20
-4892.34375
 10
5030.15625
 20
-4902.1875
 10
5020.3125
 20
-4912.03125
 10
5010.46875
 20
-4902.1875
  0
LWPOLYLINE
  5
73
330
17
100
AcDbEntity
  8
substrate
100
AcDbPolyline
 90
6
 70
1
 43
0.5
 10
0.0
 20
-4813.59375
 10
9.84375
 20
-4803.75
 10
19.6875
 20
-4813.59375
 10
19.6875
 20
-4823.4375
 10
9.84375
 20
-4833.28125
 10
0.0
 20
-4823.4375
  0
LWPOLYLINE
  5
74
330
17
100
AcDbEntity
  8
substrate
100
AcDbPolyline
 90
28
 70
1
 43
0.5
 10
5010.46875
 20
-4734.84375
 10
5020.3125
 20
-4725.0
 10
5030.15625
 20
-4734.84375
 10
5030.15625
 20
-4744.6875
 10
5030.15625
 20
-4754.53125
 10
5030.15625
 20
-4764.375
 10
5030.15625
 20
-4774.21875
 10
5030.15625
 20
-4784.0625
 10
5030.15625
 20
-4793.90625
 10
5030.15625
 20
-4803.75
 10
5030.15625
 20
-4813.59375
 10
5030.15625
 20
-4823.4375
 10
5030.15625
 20
-4833.28125
 10
5030.15625
 20
-4843.125
 10
5030.15625
 20
-4852.96875
 10
5020.3125
 20
-4862.8125
 10
5010.46875
 20
-4852.96875
 10
5010.46875
 20
-4843.125
 10
5010.46875
 20
-4833.28125
 10
5010.46875
 20
-4823.4375
 10
5010.46875
 20
-4813.59375
 10
5010.46875
 20
-4803.75
 10
5010.46875
 20
-4793.90625
 10
5010.46875
 20
-4784.0625
 10
5010.46875
 20
-4774.21875
 10
5010.46875
 20
-4764.375
 10
5010.46875
 20
-4754.53125
 10
5010.46875
 20
-4744.6875
  0
LWPOLYLINE
  5
75
330
17
100
AcDbEntity
  8
substrate
100
AcDbPolyline
 90
14
 70
1
 43
0.5
 10
0.0
 20
-4695.46875
 10
9.84375
 20
-4685.625
 10
19.6875
 20
-4695.46875
 10
19.6875
 20
-4705.3125
 10
19.6875
 20
-4715.15625
 10
19.6875
 20
-4725.0
 10
19.6875
 20
-4734.84375
 10
19.6875
 20
-4744.6875
 10
9.84375
 20
-4754.53125
 10
0.0
 20
-4744.6875
 10
0.0
 20
-4734.84375
 10
0.0
 20
-4725.0
 10
0.0
 20
-4715.15625
 10
0.0
 20
-4705.3125
  0
LWPOLYLINE
  5
76
330
17
100
AcDbEntity
  8
substrate
100
AcDbPolyline
 90
4
 70
1
 43
0.5
 10
0.0
 20
-4656.09375
 10
9.84375
 20
-4646.25
 10
19.6875
 20
-4656.09375
 10
9.84375
 20
-4665.9375
  0
LWPOLYLINE
  5
77
330
17
100
AcDbEntity
  8
substrate
100
AcDbPolyline
 90
24
 70
1
 43
0.5
 10
0.0
 20
-4528.125
 10
9.84375
 20
-4518.28125
 10
19.6875
 20
-4528.125
 10
19.6875
 20
-4537.96875
 10
19.6875
 20
-4547.8125
 10
19.6875
 20
-4557.65625
 10
19.6875
 20
-4567.5
 10
19.6875
 20
-4577.34375
 10
19.6875
 20
-4587.1875
 10
19.6875
 20
-4597.03125
 10
19.6875
 20
-4606.875
 10
19.6875
 20
-4616.71875
 10
19.6875
 20
-4626.5625
 10
9.84375
 20
-4636.40625
 10
0.0
 20
-4626.5625
 10
0.0
 20
-4616.71875
 10
0.0
 20
-4606.875
 10
0.0
 20
-4597.03125
 10
0.0
 20
-4587.1875
 10
0.0
 20
-4577.34375
 10
0.0
 20
-4567.5
 10
0.0
 20
-4557.65625
 10
0.0
 20
-4547.8125
 10
0.0
 20
-4537.96875
  0
LWPOLYLINE
  5
78
330
17
100
AcDbEntity
  8
substrate
100
AcDbPolyline
 90
6
 70
1
 43
0.5
 10
0.0
 20
-4488.75
 10
9.84375
 20
-4478.90625
 10
19.6875
 20
-4488.75
 10
19.6875
 20
-4498.59375
 10
9.84375
 20
-4508.4375
 10
0.0
 20
-4498.59375
  0
LWPOLYLINE
  5
79
330
17
100
AcDbEntity
  8
substrate
100
AcDbPolyline
 90
4
 70
1
 43
0.5
 10
0.0
 20
-4469.0625
 10
9.84375
 20
-4459.21875
 10
19.6875
 20
-4469.0625
 10
9.84375
 20
-4478.90625
  0
LWPOLYLINE
  5
7A
330
17
100
AcDbEntity
  8
substrate
100
AcDbPolyline
 90
6
 70
1
 43
0.5
 10
0.0
 20
-4410.0
 10
9.84375
 20
-4400.15625
 10
19.6875
 20
-4410.0
 10
19.6875
 20
-4419.84375
 10
9.84375
 20
-4429.6875
 10
0.0
 20
-4419.84375
  0
LWPOLYLINE
  5
7B
330
17
100
AcDbEntity
  8
substrate
100
AcDbPolyline
 90
4
 70
1
 43
0.5
 10
0.0
 20
-4370.625
 10
9.84375
 20
-4360.78125
 10
19.6875
 20
-4370.625
 10
9.84375
 20
-4380.46875
  0
LWPOLYLINE
  5
7C
330
17
100
AcDbEntity
  8
substrate
100
AcDbPolyline
 90
88
 70
1
 43
0.5
 10
5010.46875
 20
-4291.875
 10
5020.3125
 20
-4282.03125
 10
5030.15625
 20
-4291.875
 10
5030.15625
 20
-4301.71875
 10
5030.15625
 20
-4311.5625
 10
5030.15625
 20
-4321.40625
 10
5030.15625
 20
-4331.25
 10
5030.15625
 20
-4341.09375
 10
5030.15625
 20
-4350.9375
 10
5030.15625
 20
-4360.78125
 10
5030.15625
 20
-4370.625
 10
5030.15625
 20
-4380.46875
 10
5030.15625
 20
-4390.3125
 10
5030.15625
 20
-4400.15625
 10
5030.15625
 20
-4410.0
 10
5030.15625
 20
-4419.84375
 10
5030.15625
 20
-4429.6875
 10
5030.15625
 20
-4439.53125
 10
5030.15625
 20
-4449.375
 10
5030.15625
 20
-4459.21875
 10
5030.15625
 20
-4469.0625
 10
5030.15625
 20
-4478.90625
 10
5030.15625
 20
-4488.75
 10
5030.15625
 20
-4498.59375
 10
5030.15625
 20
-4508.4375
 10
5030.15625
 20
-4518.28125
 10
5030.15625
 20
-4528.125
 10
5030.15625
 20
-4537.96875
 10
5030.15625
 20
-4547.8125
 10
5030.15625
 20
-4557.65625
 10
5030.15625
 20
-4567.5
 10
5030.15625
 20
-4577.34375
 10
5030.15625
 20
-4587.1875
 10
5030.15625
 20
-4597.03125
 10
5030.15625
 20
-4606.875
 10
5030.15625
 20
-4616.71875
 10
5030.15625
 20
-4626.5625
 10
5030.15625
 20
-4636.40625
 10
5030.15625
 20
-4646.25
 10
5030.15625
 20
-4656.09375
 10
5030.15625
 20
-4665.9375
 10
5030.15625
 20
-4675.78125
 10
5030.15625
 20
-4685.625
 10
5030.15625
 20
-4695.46875
 10
5030.15625
 20
-4705.3125
 10
5020.3125
 20
-4715.15625
 10
5010.46875
 20
-4705.3125
 10
5010.46875
 20
-4695.46875
 10
5010.46875
 20
-4685.625
 10
5010.46875
 20
-4675.78125
 10
5010.46875
 20
-4665.9375
 10
5010.46875
 20
-4656.09375
 10
5010.46875
 20
-4646.25
 10
5010.46875
 20
-4636.40625
 10
5010.46875
 20
-4626.5625
 10
5010.46875
 20
-4616.71875
 10
5010.46875
 20
-4606.875
 10
5010.46875
 20
-4597.03125
 10
5010.46875
 20
-4587.1875
 10
5010.46875
 20
-4577.34375
 10
5010.46875
 20
-4567.5
 10
5010.46875
 20
-4557.65625
 10
5010.46875
 20
-4547.8125
 10
5010.46875
 20
-4537.96875
 10
5010.46875
 20
-4528.125
 10
5010.46875
 20
-4518.28125
 10
5010.46875
 20
-4508.4375
 10
5010.46875
 20
-4498.59375
 10
5010.46875
 20
-4488.75
 10
5010.46875
 20
-4478.90625
 10
5010.46875
 20
-4469.0625
 10
5010.46875
 20
-4459.21875
 10
5010.46875
 20
-4449.375
 10
5010.46875
 20
-4439.53125
 10
5010.46875
 20
-4429.6875
 10
5010.46875
 20
-4419.84375
 10
5010.46875
 20
-4410.0
 10
5010.46875
 20
-4400.15625
 10
5010.46875
 20
-4390.3125
 10
5010.46875
 20
-4380.46875
 10
5010.46875
 20
-4370.625
 10
5010.46875
 20
-4360.78125
 10
5010.46875
 20
-4350.9375
 10
5010.46875
 20
-4341.09375
 10
5010.46875
 20
-4331.25
 10
5010.46875
 20
-4321.40625
 10
5010.46875
 20
-4311.5625
 10
5010.46875
 20
-4301.71875
  0
LWPOLYLINE
  5
7D
330
17
100
AcDbEntity
  8
substrate
100
AcDbPolyline
 90
32
 70
1
 43
0.5
 10
0.0
 20
-4213.125
 10
9.84375
 20
-4203.28125
 10
19.6875
 20
-4213.125
 10
19.6875
 20
-4222.96875
 10
19.6875
 20
-4232.8125
 10
19.6875
 20
-4242.65625
 10
19.6875
 20
-4252.5
 10
19.6875
 20
-4262.34375
 10
19.6875
 20
-4272.1875
 10
19.6875
 20
-4282.03125
 10
19.6875
 20
-4291.875
 10
19.6875
 20
-4301.71875
 10
19.6875
 20
-4311.5625
 10
19.6875
 20
-4321.40625
 10
19.6875
 20
-4331.25
 10
19.6875
 20
-4341.09375
 10
19.6875
 20
-4350.9375
 10
9.84375
 20
-4360.78125
 10
0.0
 20
-4350.9375
 10
0.0
 20
-4341.09375
 10
0.0
 20
-4331.25
 10
0.0
 20
-4321.40625
 10
0.0
 20
-4311.5625
 10
0.0
 20
-4301.71875
 10
0.0
 20
-4291.875
 10
0.0
 20
-4282.03125
 10
0.0
 20
-4272.1875
 10
0.0
 20
-4262.34375
 10
0.0
 20
-4252.5
 10
0.0
 20
-4242.65625
 10
0.0
 20
-4232.8125
 10
0.0
 20
-4222.96875
  0
LWPOLYLINE
  5
7E
330
17
100
AcDbEntity
  8
substrate
100
AcDbPolyline
 90
6
 70
1
 43
0.5
 10
0.0
 20
-4173.75
 10
9.84375
 20
-4163.90625
 10
19.6875
 20
-4173.75
 10
19.6875
 20
-4183.59375
 10
9.84375
 20
-4193.4375
 10
0.0
 20
-4183.59375
  0
LWPOLYLINE
  5
7F
330
17
100
AcDbEntity
  8
substrate
100
AcDbPolyline
 90
4
 70
1
 43
0.5
 10
0.0
 20
-4154.0625
 10
9.84375
 20
-4144.21875
 10
19.6875
 20
-4154.0625
 10
9.84375
 20
-4163.90625
  0
LWPOLYLINE
  5
80
330
17
100
AcDbEntity
  8
substrate
100
AcDbPolyline
 90
4
 70
1
 43
0.5
 10
0.0
 20
-4114.6875
 10
9.84375
 20
-4104.84375
 10
19.6875
 20
-4114.6875
 10
9.84375
 20
-4124.53125
  0
LWPOLYLINE
  5
81
330
17
100
AcDbEntity
  8
substrate
100
AcDbPolyline
 90
4
 70
1
 43
0.5
 10
0.0
 20
-4095.0
 10
9.84375
 20
-4085.15625
 10
19.6875
 20
-4095.0
 10
9.84375
 20
-4104.84375
  0
LWPOLYLINE
  5
82
330
17
100
AcDbEntity
  8
substrate
100
AcDbPolyline
 90
4
 70
1
 43
0.5
 10
0.0
 20
-4075.3125
 10
9.84375
 20
-4065.46875
 10
19.6875
 20
-4075.3125
 10
9.84375
 20
-4085.15625
  0
LWPOLYLINE
  5
83
330
17
100
AcDbEntity
  8
substrate
100
AcDbPolyline
 90
10
 70
1
 43
0.5
 10
0.0
 20
-4026.09375
 10
9.84375
 20
-4016.25
 10
19.6875
 20
-4026.09375
 10
19.6875
 20
-4035.9375
 10
19.6875
 20
-4045.78125
 10
19.6875
 20
-4055.625
 10
9.84375
 20
-4065.46875
 10
0.0
 20
-4055.625
 10
0.0
 20
-4045.78125
 10
0.0
 20
-4035.9375
  0
LWPOLYLINE
  5
84
330
17
100
AcDbEntity
  8
substrate
100
AcDbPolyline
 90
4
 70
1
 43
0.5
 10
0.0
 20
-3996.5625
 10
9.84375
 20
-3986.71875
 10
19.6875
 20
-3996.5625
 10
9.84375
 20
-4006.40625
  0
LWPOLYLINE
  5
85
330
17
100
AcDbEntity
  8
substrate
100
AcDbPolyline
 90
6
 70
1
 43
0.5
 10
0.0
 20
-3937.5
 10
9.84375
 20
-3927.65625
 10
19.6875
 20
-3937.5
 10
19.6875
 20
-3947.34375
 10
9.84375
 20
-3957.1875
 10
0.0
 20
-3947.34375
  0
LWPOLYLINE
  5
86
330
17
100
AcDbEntity
  8
substrate
100
AcDbPolyline
 90
6
 70
1
 43
0.5
 10
0.0
 20
-3907.96875
 10
9.84375
 20
-3898.125
 10
19.6875
 20
-3907.96875
 10
19.6875
 20
-3917.8125
 10
9.84375
 20
-3927.65625
 10
0.0
 20
-3917.8125
  0
LWPOLYLINE
  5
87
330
17
100
AcDbEntity
  8
substrate
100
AcDbPolyline
 90
10
 70
1
 43
0.5
 10
0.0
 20
-3839.0625
 10
9.84375
 20
-3829.21875
 10
19.6875
 20
-3839.0625
 10
19.6875
 20
-3848.90625
 10
19.6875
 20
-3858.75
 10
19.6875
 20
-3868.59375
 10
9.84375
 20
-3878.4375
 10
0.0
 20
-3868.59375
 10
0.0
 20
-3858.75
 10
0.0
 20
-3848.90625
  0
LWPOLYLINE
  5
88
330
17
100
AcDbEntity
  8
substrate
100
AcDbPolyline
 90
4
 70
1
 43
0.5
 10
0.0
 20
-3780.0
 10
9.84375
 20
-3770.15625
 10
19.6875
 20
-3780.0
 10
9.84375
 20
-3789.84375
  0
LWPOLYLINE
  5
89
330
17
100
AcDbEntity
  8
substrate
100
AcDbPolyline
 90
4
 70
1
 43
0.5
 10
0.0
 20
-3760.3125
 10
9.84375
 20
-3750.46875
 10
19.6875
 20
-3760.3125
 10
9.84375
 20
-3770.15625
  0
LWPOLYLINE
  5
8A
330
17
100
AcDbEntity
  8
substrate
100
AcDbPolyline
 90
4
 70
1
 43
0.5
 10
0.0
 20
-3740.625
 10
9.84375
 20
-3730.78125
 10
19.6875
 20
-3740.625
 10
9.84375
 20
-3750.46875
  0
LWPOLYLINE
  5
8B
330
17
100
AcDbEntity
  8
substrate
100
AcDbPolyline
 90
32
 70
1
 43
0.5
 10
0.0
 20
-3583.125
 10
9.84375
 20
-3573.28125
 10
19.6875
 20
-3583.125
 10
19.6875
 20
-3592.96875
 10
19.6875
 20
-3602.8125
 10
19.6875
 20
-3612.65625
 10
19.6875
 20
-3622.5
 10
19.6875
 20
-3632.34375
 10
19.6875
 20
-3642.1875
 10
19.6875
 20
-3652.03125
 10
19.6875
 20
-3661.875
 10
19.6875
 20
-3671.71875
 10
19.6875
 20
-3681.5625
 10
19.6875
 20
-3691.40625
 10
19.6875
 20
-3701.25
 10
19.6875
 20
-3711.09375
 10
19.6875
 20
-3720.9375
 10
9.84375
 20
-3730.78125
 10
0.0
 20
-3720.9375
 10
0.0
 20
-3711.09375
 10
0.0
 20
-3701.25
 10
0.0
 20
-3691.40625
 10
0.0
 20
-3681.5625
 10
0.0
 20
-3671.71875
 10
0.0
 20
-3661.875
 10
0.0
 20
-3652.03125
 10
0.0
 20
-3642.1875
 10
0.0
 20
-3632.34375
 10
0.0
 20
-3622.5
 10
0.0
 20
-3612.65625
 10
0.0
 20
-3602.8125
 10
0.0
 20
-3592.96875
  0
LWPOLYLINE
  5
8C
330
17
100
AcDbEntity
  8
substrate
100
AcDbPolyline
 90
12
 70
1
 43
0.5
 10
0.0
 20
-3524.0625
 10
9.84375
 20
-3514.21875
 10
19.6875
 20
-3524.0625
 10
19.6875
 20
-3533.90625
 10
19.6875
 20
-3543.75
 10
19.6875
 20
-3553.59375
 10
19.6875
 20
-3563.4375
 10
9.84375
 20
-3573.28125
 10
0.0
 20
-3563.4375
 10
0.0
 20
-3553.59375
 10
0.0
 20
-3543.75
 10
0.0
 20
-3533.90625
  0
LWPOLYLINE
  5
8D
330
17
100
AcDbEntity
  8
substrate
100
AcDbPolyline
 90
50
 70
1
 43
0.5
 10
0.0
 20
-3268.125
 10
9.84375
 20
-3258.28125
 10
19.6875
 20
-3268.125
 10
19.6875
 20
-3277.96875
 10
19.6875
 20
-3287.8125
 10
19.6875
 20
-3297.65625
 10
19.6875
 20
-3307.5
 10
19.6875
 20
-3317.34375
 10
19.6875
 20
-3327.1875
 10
19.6875
 20
-3337.03125
 10
19.6875
 20
-3346.875
 10
19.6875
 20
-3356.71875
 10
19.6875
 20
-3366.5625
 10
19.6875
 20
-3376.40625
 10
19.6875
 20
-3386.25
 10
19.6875
 20
-3396.09375
 10
19.6875
 20
-3405.9375
 10
19.6875
 20
-3415.78125
 10
19.6875
 20
-3425.625
 10
19.6875
 20
-3435.46875
 10
19.6875
 20
-3445.3125
 10
19.6875
 20
-3455.15625
 10
19.6875
 20
-3465.0
 10
19.6875
 20
-3474.84375
 10
19.6875
 20
-3484.6875
 10
19.6875
 20
-3494.53125
 10
9.84375
 20
-3504.375
 10
0.0
 20
-3494.53125
 10
0.0
 20
-3484.6875
 10
0.0
 20
-3474.84375
 10
0.0
 20
-3465.0
 10
0.0
 20
-3455.15625
 10
0.0
 20
-3445.3125
 10
0.0
 20
-3435.46875
 10
0.0
 20
-3425.625
 10
0.0
 20
-3415.78125
 10
0.0
 20
-3405.9375
 10
0.0
 20
-3396.09375
 10
0.0
 20
-3386.25
 10
0.0
 20
-3376.40625
 10
0.0
 20
-3366.5625
 10
0.0
 20
-3356.71875
 10
0.0
 20
-3346.875
 10
0.0
 20
-3337.03125
 10
0.0
 20
-3327.1875
 10
0.0
 20
-3317.34375
 10
0.0
 20
-3307.5
 10
0.0
 20
-3297.65625
 10
0.0
 20
-3287.8125
 10
0.0
 20
-3277.96875
  0
LWPOLYLINE
  5
8E
330
17
100
AcDbEntity
  8
substrate
100
AcDbPolyline
 90
10
 70
1
 43
0.5
 10
0.0
 20
-3209.0625
 10
9.84375
 20
-3199.21875
 10
19.6875
 20
-3209.0625
 10
19.6875
 20
-3218.90625
 10
19.6875
 20
-3228.75
 10
19.6875
 20
-3238.59375
 10
9.84375
 20
-3248.4375
 10
0.0
 20
-3238.59375
 10
0.0
 20
-3228.75
 10
0.0
 20
-3218.90625
  0
LWPOLYLINE
  5
8F
330
17
100
AcDbEntity
  8
substrate
100
AcDbPolyline
 90
4
 70
1
 43
0.5
 10
0.0
 20
-3150.0
 10
9.84375
 20
-3140.15625
 10
19.6875
 20
-3150.0
 10
9.84375
 20
-3159.84375
  0
LWPOLYLINE
  5
90
330
17
100
AcDbEntity
  8
substrate
100
AcDbPolyline
 90
48
 70
1
 43
0.5
 10
0.0
 20
-2913.75
 10
9.84375
 20
-2903.90625
 10
19.6875
 20
-2913.75
 10
19.6875
 20
-2923.59375
 10
19.6875
 20
-2933.4375
 10
19.6875
 20
-2943.28125
 10
19.6875
 20
-2953.125
 10
19.6875
 20
-2962.96875
 10
19.6875
 20
-2972.8125
 10
19.6875
 20
-2982.65625
 10
19.6875
 20
-2992.5
 10
19.6875
 20
-3002.34375
 10
19.6875
 20
-3012.1875
 10
19.6875
 20
-3022.03125
 10
19.6875
 20
-3031.875
 10
19.6875
 20
-3041.71875
 10
19.6875
 20
-3051.5625
 10
19.6875
 20
-3061.40625
 10
19.6875
 20
-3071.25
 10
19.6875
 20
-3081.09375
 10
19.6875
 20
-3090.9375
 10
19.6875
 20
-3100.78125
 10
19.6875
 20
-3110.625
 10
19.6875
 20
-3120.46875
 10
19.6875
 20
-3130.3125
 10
9.84375
 20
-3140.15625
 10
0.0
 20
-3130.3125
 10
0.0
 20
-3120.46875
 10
0.0
 20
-3110.625
 10
0.0
 20
-3100.78125
 10
0.0
 20
-3090.9375
 10
0.0
 20
-3081.09375
 10
0.0
 20
-3071.25
 10
0.0
 20
-3061.40625
 10
0.0
 20
-3051.5625
 10
0.0
 20
-3041.71875
 10
0.0
 20
-3031.875
 10
0.0
 20
-3022.03125
 10
0.0
 20
-3012.1875
 10
0.0
 20
-3002.34375
 10
0.0
 20
-2992.5
 10
0.0
 20
-2982.65625
 10
0.0
 20
-2972.8125
 10
0.0
 20
-2962.96875
 10
0.0
 20
-2953.125
 10
0.0
 20
-2943.28125
 10
0.0
 20
-2933.4375
 10
0.0
 20
-2923.59375
  0
LWPOLYLINE
  5
91
330
17
100
AcDbEntity
  8
substrate
100
AcDbPolyline
 90
4
 70
1
 43
0.5
 10
0.0
 20
-2894.0625
 10
9.84375
 20
-2884.21875
 10
19.6875
 20
-2894.0625
 10
9.84375
 20
-2903.90625
  0
LWPOLYLINE
  5
92
330
17
100
AcDbEntity
  8
substrate
100
AcDbPolyline
 90
4
 70
1
 43
0.5
 10
2579.0625
 20
-2874.375
 10
2588.90625
 20
-2864.53125
 10
2598.75
 20
-2874.375
 10
2588.90625
 20
-2884.21875
  0
LWPOLYLINE
  5
93
330
17
100
AcDbEntity
  8
substrate
100
AcDbPolyline
 90
11
 70
1
 43
0.5
 10
2726.71875
 20
-2854.6875
 10
2736.5625
 20
-2844.84375
 10
2746.40625
 20
-2844.84375
 10
2756.25
 20
-2854.6875
 10
2756.25
 20
-2864.53125
 10
2756.25
 20
-2874.375
 10
2756.25
 20
-2884.21875
 10
2746.40625
 20
-2894.0625
 10
2736.5625
 20
-2884.21875
 10
2736.5625
 20
-2874.375
 10
2736.5625
 20
-2864.53125
  0
LWPOLYLINE
  5
94
330
17
100
AcDbEntity
  8
substrate
100
AcDbPolyline
 90
4
 70
1
 43
0.5
 10
2746.40625
 20
-2835.0
 10
2756.25
 20
-2825.15625
 10
2766.09375
 20
-2835.0
 10
2756.25
 20
-2844.84375
  0
LWPOLYLINE
  5
95
330
17
100
AcDbEntity
  8
substrate
100
AcDbPolyline
 90
11
 70
1
 43
0.5
 10
2175.46875
 20
-2736.5625
 10
2185.3125
 20
-2726.71875
 10
2195.15625
 20
-2726.71875
 10
2205.0
 20
-2736.5625
 10
2214.84375
 20
-2746.40625
 10
2214.84375
 20
-2756.25
 10
2205.0
 20
-2766.09375
 10
2195.15625
 20
-2766.09375
 10
2185.3125
 20
-2756.25
 10
2175.46875
 20
-2756.25
 10
2165.625
 20
-2746.40625
  0
LWPOLYLINE
  5
96
330
17
100
AcDbEntity
  8
substrate
100
AcDbPolyline
 90
6
 70
1
 43
0.5
 10
2145.9375
 20
-2736.5625
 10
2155.78125
 20
-2726.71875
 10
2165.625
 20
-2726.71875
 10
2175.46875
 20
-2736.5625
 10
2165.625
 20
-2746.40625
 10
2155.78125
 20
-2746.40625
  0
LWPOLYLINE
  5
97
330
17
100
AcDbEntity
  8
substrate
100
AcDbPolyline
 90
4
 70
1
 43
0.5
 10
2165.625
 20
-2726.71875
 10
2175.46875
 20
-2716.875
 10
2185.3125
 20
-2726.71875
 10
2175.46875
 20
-2736.5625
  0
LWPOLYLINE
  5
98
330
17
100
AcDbEntity
  8
substrate
100
AcDbPolyline
 90
34
 70
1
 43
0.5
 10
0.0
 20
-2716.875
 10
9.84375
 20
-2707.03125
 10
19.6875
 20
-2716.875
 10
19.6875
 20
-2726.71875
 10
19.6875
 20
-2736.5625
 10
19.6875
 20
-2746.40625
 10
19.6875
 20
-2756.25
 10
19.6875
 20
-2766.09375
 10
19.6875
 20
-2775.9375
 10
19.6875
 20
-2785.78125
 10
19.6875
 20
-2795.625
 10
19.6875
 20
-2805.46875
 10
19.6875
 20
-2815.3125
 10
19.6875
 20
-2825.15625
 10
19.6875
 20
-2835.0
 10
19.6875
 20
-2844.84375
 10
19.6875
 20
-2854.6875
 10
19.6875
 20
-2864.53125
 10
9.84375
 20
-2874.375
 10
0.0
 20
-2864.53125
 10
0.0
 20
-2854.6875
 10
0.0
 20
-2844.84375
 10
0.0
 20
-2835.0
 10
0.0
 20
-2825.15625
 10
0.0
 20
-2815.3125
 10
0.0
 20
-2805.46875
 10
0.0
 20
-2795.625
 10
0.0
 20
-2785.78125
 10
0.0
 20
-2775.9375
 10
0.0
 20
-2766.09375
 10
0.0
 20
-2756.25
 10
0.0
 20
-2746.40625
 10
0.0
 20
-2736.5625
 10
0.0
 20
-2726.71875
  0
LWPOLYLINE
  5
99
330
17
100
AcDbEntity
  8
substrate
100
AcDbPolyline
 90
4
 70
1
 43
0.5
 10
2145.9375
 20
-2707.03125
 10
2155.78125
 20
-2697.1875
 10
2165.625
 20
-2707.03125
 10
2155.78125
 20
-2716.875
  0
LWPOLYLINE
  5
9A
330
17
100
AcDbEntity
  8
substrate
100
AcDbPolyline
 90
4
 70
1
 43
0.5
 10
2165.625
 20
-2697.1875
 10
2175.46875
 20
-2687.34375
 10
2185.3125
 20
-2697.1875
 10
2175.46875
 20
-2707.03125
  0
LWPOLYLINE
  5
9B
330
17
100
AcDbEntity
  8
substrate
100
AcDbPolyline
 90
4
 70
1
 43
0.5
 10
2136.09375
 20
-2697.1875
 10
2145.9375
 20
-2687.34375
 10
2155.78125
 20
-2697.1875
 10
2145.9375
 20
-2707.03125
  0
LWPOLYLINE
  5
9C
330
17
100
AcDbEntity
  8
substrate
100
AcDbPolyline
 90
4
 70
1
 43
0.5
 10
2126.25
 20
-2667.65625
 10
2136.09375
 20
-2657.8125
 10
2145.9375
 20
-2667.65625
 10
2136.09375
 20
-2677.5
  0
LWPOLYLINE
  5
9D
330
17
100
AcDbEntity
  8
substrate
100
AcDbPolyline
 90
6
 70
1
 43
0.5
 10
2136.09375
 20
-2657.8125
 10
2145.9375
 20
-2647.96875
 10
2155.78125
 20
-2647.96875
 10
2165.625
 20
-2657.8125
 10
2155.78125
 20
-2667.65625
 10
2145.9375
 20
-2667.65625
  0
LWPOLYLINE
  5
9E
330
17
100
AcDbEntity
  8
substrate
100
AcDbPolyline
 90
16
 70
1
 43
0.5
 10
0.0
 20
-2638.125
 10
9.84375
 20
-2628.28125
 10
19.6875
 20
-2638.125
 10
19.6875
 20
-2647.96875
 10
19.6875
 20
-2657.8125
 10
19.6875
 20
-2667.65625
 10
19.6875
 20
-2677.5
 10
19.6875
 20
-2687.34375
 10
19.6875
 20
-2697.1875
 10
9.84375
 20
-2707.03125
 10
0.0
 20
-2697.1875
 10
0.0
 20
-2687.34375
 10
0.0
 20
-2677.5
 10
0.0
 20
-2667.65625
 10
0.0
 20
-2657.8125
 10
0.0
 20
-2647.96875
  0
LWPOLYLINE
  5
9F
330
17
100
AcDbEntity
  8
substrate
100
AcDbPolyline
 90
6
 70
1
 43
0.5
 10
0.0
 20
-2598.75
 10
9.84375
 20
-2588.90625
 10
19.6875
 20
-2598.75
 10
19.6875
 20
-2608.59375
 10
9.84375
 20
-2618.4375
 10
0.0
 20
-2608.59375
  0
LWPOLYLINE
  5
A0
330
17
100
AcDbEntity
  8
substrate
100
AcDbPolyline
 90
4
 70
1
 43
0.5
 10
0.0
 20
-2579.0625
 10
9.84375
 20
-2569.21875
 10
19.6875
 20
-2579.0625
 10
9.84375
 20
-2588.90625
  0
LWPOLYLINE
  5
A1
330
17
100
AcDbEntity
  8
substrate
100
AcDbPolyline
 90
8
 70
1
 43
0.5
 10
0.0
 20
-2539.6875
 10
9.84375
 20
-2529.84375
 10
19.6875
 20
-2539.6875
 10
19.6875
 20
-2549.53125
 10
19.6875
 20
-2559.375
 10
9.84375
 20
-2569.21875
 10
0.0
 20
-2559.375
 10
0.0
 20
-2549.53125
  0
LWPOLYLINE
  5
A2
330
17
100
AcDbEntity
  8
substrate
100
AcDbPolyline
 90
4
 70
1
 43
0.5
 10
2736.5625
 20
-2254.21875
 10
2746.40625
 20
-2244.375
 10
2756.25
 20
-2254.21875
 10
2746.40625
 20
-2264.0625
  0
LWPOLYLINE
  5
A3
330
17
100
AcDbEntity
  8
substrate
100
AcDbPolyline
 90
4
 70
1
 43
0.5
 10
2775.9375
 20
-2244.375
 10
2785.78125
 20
-2234.53125
 10
2795.625
 20
-2244.375
 10
2785.78125
 20
-2254.21875
  0
LWPOLYLINE
  5
A4
330
17
100
AcDbEntity
  8
substrate
100
AcDbPolyline
 90
8
 70
1
 43
0.5
 10
2805.46875
 20
-2234.53125
 10
2815.3125
 20
-2224.6875
 10
2825.15625
 20
-2234.53125
 10
2825.15625
 20
-2244.375
 10
2825.15625
 20
-2254.21875
 10
2815.3125
 20
-2264.0625
 10
2805.46875
 20
-2254.21875
 10
2795.625
 20
-2244.375
  0
LWPOLYLINE
  5
A5
330
17
100
AcDbEntity
  8
substrate
100
AcDbPolyline
 90
4
 70
1
 43
0.5
 10
2795.625
 20
-2224.6875
 10
2805.46875
 20
-2214.84375
 10
2815.3125
 20
-2224.6875
 10
2805.46875
 20
-2234.53125
  0
LWPOLYLINE
  5
A6
330
17
100
AcDbEntity
  8
substrate
100
AcDbPolyline
 90
6
 70
1
 43
0.5
 10
2244.375
 20
-2205.0
 10
2254.21875
 20
-2195.15625
 10
2264.0625
 20
-2205.0
 10
2264.0625
 20
-2214.84375
 10
2254.21875
 20
-2224.6875
 10
2244.375
 20
-2214.84375
  0
LWPOLYLINE
  5
A7
330
17
100
AcDbEntity
  8
substrate
100
AcDbPolyline
 90
206
 70
1
 43
0.5
 10
2451.09375
 20
-2185.3125
 10
2460.9375
 20
-2175.46875
 10
2470.78125
 20
-2175.46875
 10
2480.625
 20
-2175.46875
 10
2490.46875
 20
-2185.3125
 10
2500.3125
 20
-2175.46875
 10
2510.15625
 20
-2175.46875
 10
2520.0
 20
-2185.3125
 10
2529.84375
 20
-2175.46875
 10
2539.6875
 20
-2175.46875
 10
2549.53125
 20
-2175.46875
 10
2559.375
 20
-2175.46875
 10
2569.21875
 20
-2175.46875
 10
2579.0625
 20
-2175.46875
 10
2588.90625
 20
-2175.46875
 10
2598.75
 20
-2175.46875
 10
2608.59375
 20
-2175.46875
 10
2618.4375
 20
-2185.3125
 10
2628.28125
 20
-2185.3125
 10
2638.125
 20
-2195.15625
 10
2647.96875
 20
-2195.15625
 10
2657.8125
 20
-2205.0
 10
2667.65625
 20
-2205.0
 10
2677.5
 20
-2214.84375
 10
2687.34375
 20
-2224.6875
 10
2697.1875
 20
-2234.53125
 10
2707.03125
 20
-2244.375
 10
2716.875
 20
-2244.375
 10
2726.71875
 20
-2254.21875
 10
2736.5625
 20
-2264.0625
 10
2746.40625
 20
-2264.0625
 10
2756.25
 20
-2273.90625
 10
2766.09375
 20
-2283.75
 10
2775.9375
 20
-2283.75
 10
2785.78125
 20
-2293.59375
 10
2785.78125
 20
-2303.4375
 10
2785.78125
 20
-2313.28125
 10
2795.625
 20
-2323.125
 10
2795.625
 20
-2332.96875
 10
2795.625
 20
-2342.8125
 10
2805.46875
 20
-2352.65625
 10
2805.46875
 20
-2362.5
 10
2815.3125
 20
-2372.34375
 10
2825.15625
 20
-2382.1875
 10
2825.15625
 20
-2392.03125
 10
2835.0
 20
-2401.875
 10
2835.0
 20
-2411.71875
 10
2835.0
 20
-2421.5625
 10
2844.84375
 20
-2431.40625
 10
2844.84375
 20
-2441.25
 10
2854.6875
 20
-2451.09375
 10
2854.6875
 20
-2460.9375
 10
2854.6875
 20
-2470.78125
 10
2844.84375
 20
-2480.625
 10
2844.84375
 20
-2490.46875
 10
2844.84375
 20
-2500.3125
 10
2844.84375
 20
-2510.15625
 10
2844.84375
 20
-2520.0
 10
2844.84375
 20
-2529.84375
 10
2844.84375
 20
-2539.6875
 10
2844.84375
 20
-2549.53125
 10
2844.84375
 20
-2559.375
 10
2844.84375
 20
-2569.21875
 10
2844.84375
 20
-2579.0625
 10
2844.84375
 20
-2588.90625
 10
2844.84375
 20
-2598.75
 10
2844.84375
 20
-2608.59375
 10
2844.84375
 20
-2618.4375
 10
2844.84375
 20
-2628.28125
 10
2835.0
 20
-2638.125
 10
2825.15625
 20
-2647.96875
 10
2825.15625
 20
-2657.8125
 10
2825.15625
 20
-2667.65625
 10
2815.3125
 20
-2677.5
 10
2805.46875
 20
-2677.5
 10
2805.46875
 20
-2687.34375
 10
2795.625
 20
-2697.1875
 10
2795.625
 20
-2707.03125
 10
2785.78125
 20
-2716.875
 10
2775.9375
 20
-2716.875
 10
2766.09375
 20
-2716.875
 10
2756.25
 20
-2726.71875
 10
2756.25
 20
-2736.5625
 10
2756.25
 20
-2746.40625
 10
2746.40625
 20
-2756.25
 10
2736.5625
 20
-2766.09375
 10
2726.71875
 20
-2775.9375
 10
2716.875
 20
-2785.78125
 10
2707.03125
 20
-2785.78125
 10
2697.1875
 20
-2795.625
 10
2697.1875
 20
-2805.46875
 10
2687.34375
 20
-2815.3125
 10
2677.5
 20
-2815.3125
 10
2667.65625
 20
-2825.15625
 10
2657.8125
 20
-2825.15625
 10
2647.96875
 20
-2835.0
 10
2638.125
 20
-2835.0
 10
2628.28125
 20
-2844.84375
 10
2618.4375
 20
-2854.6875
 10
2608.59375
 20
-2854.6875
 10
2598.75
 20
-2864.53125
 10
2588.90625
 20
-2864.53125
 10
2579.0625
 20
-2874.375
 10
2569.21875
 20
-2864.53125
 10
2559.375
 20
-2864.53125
 10
2549.53125
 20
-2864.53125
 10
2539.6875
 20
-2864.53125
 10
2529.84375
 20
-2864.53125
 10
2520.0
 20
-2864.53125
 10
2510.15625
 20
-2854.6875
 10
2500.3125
 20
-2854.6875
 10
2490.46875
 20
-2854.6875
 10
2480.625
 20
-2854.6875
 10
2470.78125
 20
-2854.6875
 10
2460.9375
 20
-2854.6875
 10
2451.09375
 20
-2854.6875
 10
2441.25
 20
-2854.6875
 10
2431.40625
 20
-2864.53125
 10
2421.5625
 20
-2854.6875
 10
2411.71875
 20
-2854.6875
 10
2401.875
 20
-2844.84375
 10
2392.03125
 20
-2835.0
 10
2392.03125
 20
-2825.15625
 10
2382.1875
 20
-2825.15625
 10
2372.34375
 20
-2825.15625
 10
2362.5
 20
-2815.3125
 10
2362.5
 20
-2805.46875
 10
2352.65625
 20
-2805.46875
 10
2342.8125
 20
-2795.625
 10
2332.96875
 20
-2795.625
 10
2323.125
 20
-2785.78125
 10
2313.28125
 20
-2785.78125
 10
2303.4375
 20
-2775.9375
 10
2293.59375
 20
-2766.09375
 10
2283.75
 20
-2756.25
 10
2273.90625
 20
-2746.40625
 10
2264.0625
 20
-2736.5625
 10
2254.21875
 20
-2726.71875
 10
2254.21875
 20
-2716.875
 10
2244.375
 20
-2716.875
 10
2234.53125
 20
-2707.03125
 10
2224.6875
 20
-2697.1875
 10
2224.6875
 20
-2687.34375
 10
2224.6875
 20
-2677.5
 10
2214.84375
 20
-2667.65625
 10
2214.84375
 20
-2657.8125
 10
2214.84375
 20
-2647.96875
 10
2205.0
 20
-2638.125
 10
2205.0
 20
-2628.28125
 10
2195.15625
 20
-2618.4375
 10
2205.0
 20
-2608.59375
 10
2195.15625
 20
-2598.75
 10
2185.3125
 20
-2588.90625
 10
2185.3125
 20
-2579.0625
 10
2185.3125
 20
-2569.21875
 10
2185.3125
 20
-2559.375
 10
2185.3125
 20
-2549.53125
 10
2175.46875
 20
-2539.6875
 10
2175.46875
 20
-2529.84375
 10
2175.46875
 20
-2520.0
 10
2175.46875
 20
-2510.15625
 10
2175.46875
 20
-2500.3125
 10
2175.46875
 20
-2490.46875
 10
2175.46875
 20
-2480.625
 10
2175.46875
 20
-2470.78125
 10
2175.46875
 20
-2460.9375
 10
2175.46875
 20
-2451.09375
 10
2175.46875
 20
-2441.25
 10
2175.46875
 20
-2431.40625
 10
2185.3125
 20
-2421.5625
 10
2175.46875
 20
-2411.71875
 10
2175.46875
 20
-2401.875
 10
2185.3125
 20
-2392.03125
 10
2185.3125
 20
-2382.1875
 10
2185.3125
 20
-2372.34375
 10
2195.15625
 20
-2362.5
 10
2205.0
 20
-2362.5
 10
2214.84375
 20
-2352.65625
 10
2214.84375
 20
-2342.8125
 10
2224.6875
 20
-2332.96875
 10
2224.6875
 20
-2323.125
 10
2234.53125
 20
-2313.28125
 10
2244.375
 20
-2303.4375
 10
2254.21875
 20
-2293.59375
 10
2264.0625
 20
-2293.59375
 10
2273.90625
 20
-2283.75
 10
2283.75
 20
-2273.90625
 10
2293.59375
 20
-2273.90625
 10
2293.59375
 20
-2264.0625
 10
2303.4375
 20
-2254.21875
 10
2303.4375
 20
-2244.375
 10
2313.28125
 20
-2234.53125
 10
2323.125
 20
-2234.53125
 10
2332.96875
 20
-2234.53125
 10
2342.8125
 20
-2234.53125
 10
2342.8125
 20
-2224.6875
 10
2352.65625
 20
-2214.84375
 10
2362.5
 20
-2214.84375
 10
2372.34375
 20
-2205.0
 10
2382.1875
 20
-2214.84375
 10
2392.03125
 20
-2205.0
 10
2401.875
 20
-2205.0
 10
2411.71875
 20
-2195.15625
 10
2421.5625
 20
-2195.15625
 10
2431.40625
 20
-2185.3125
 10
2441.25
 20
-2185.3125
  0
LWPOLYLINE
  5
A8
330
17
100
AcDbEntity
  8
substrate
100
AcDbPolyline
 90
504
 70
1
 43
0.5
 10
5010.46875
 20
-1811.25
 10
5020.3125
 20
-1801.40625
 10
5030.15625
 20
-1811.25
 10
5030.15625
 20
-1821.09375
 10
5030.15625
 20
-1830.9375
 10
5030.15625
 20
-1840.78125
 10
5030.15625
 20
-1850.625
 10
5030.15625
 20
-1860.46875
 10
5030.15625
 20
-1870.3125
 10
5030.15625
 20
-1880.15625
 10
5030.15625
 20
-1890.0
 10
5030.15625
 20
-1899.84375
 10
5030.15625
 20
-1909.6875
 10
5030.15625
 20
-1919.53125
 10
5030.15625
 20
-1929.375
 10
5030.15625
 20
-1939.21875
 10
5030.15625
 20
-1949.0625
 10
5030.15625
 20
-1958.90625
 10
5030.15625
 20
-1968.75
 10
5030.15625
 20
-1978.59375
 10
5030.15625
 20
-1988.4375
 10
5030.15625
 20
-1998.28125
 10
5030.15625
 20
-2008.125
 10
5030.15625
 20
-2017.96875
 10
5030.15625
 20
-2027.8125
 10
5030.15625
 20
-2037.65625
 10
5030.15625
 20
-2047.5
 10
5030.15625
 20
-2057.34375
 10
5030.15625
 20
-2067.1875
 10
5030.15625
 20
-2077.03125
 10
5030.15625
 20
-2086.875
 10
5030.15625
 20
-2096.71875
 10
5030.15625
 20
-2106.5625
 10
5030.15625
 20
-2116.40625
 10
5030.15625
 20
-2126.25
 10
5030.15625
 20
-2136.09375
 10
5030.15625
 20
-2145.9375
 10
5030.15625
 20
-2155.78125
 10
5030.15625
 20
-2165.625
 10
5030.15625
 20
-2175.46875
 10
5030.15625
 20
-2185.3125
 10
5030.15625
 20
-2195.15625
 10
5030.15625
 20
-2205.0
 10
5030.15625
 20
-2214.84375
 10
5030.15625
 20
-2224.6875
 10
5030.15625
 20
-2234.53125
 10
5030.15625
 20
-2244.375
 10
5030.15625
 20
-2254.21875
 10
5030.15625
 20
-2264.0625
 10
5030.15625
 20
-2273.90625
 10
5030.15625
 20
-2283.75
 10
5030.15625
 20
-2293.59375
 10
5030.15625
 20
-2303.4375
 10
5030.15625
 20
-2313.28125
 10
5030.15625
 20
-2323.125
 10
5030.15625
 20
-2332.96875
 10
5030.15625
 20
-2342.8125
 10
5030.15625
 20
-2352.65625
 10
5030.15625
 20
-2362.5
 10
5030.15625
 20
-2372.34375
 10
5030.15625
 20
-2382.1875
 10
5030.15625
 20
-2392.03125
 10
5030.15625
 20
-2401.875
 10
5030.15625
 20
-2411.71875
 10
5030.15625
 20
-2421.5625
 10
5030.15625
 20
-2431.40625
 10
5030.15625
 20
-2441.25
 10
5030.15625
 20
-2451.09375
 10
5030.15625
 20
-2460.9375
 10
5030.15625
 20
-2470.78125
 10
5030.15625
 20
-2480.625
 10
5030.15625
 20
-2490.46875
 10
5030.15625
 20
-2500.3125
 10
5030.15625
 20
-2510.15625
 10
5030.15625
 20
-2520.0
 10
5030.15625
 20
-2529.84375
 10
5030.15625
 20
-2539.6875
 10
5030.15625
 20
-2549.53125
 10
5030.15625
 20
-2559.375
 10
5030.15625
 20
-2569.21875
 10
5030.15625
 20
-2579.0625
 10
5030.15625
 20
-2588.90625
 10
5030.15625
 20
-2598.75
 10
5030.15625
 20
-2608.59375
 10
5030.15625
 20
-2618.4375
 10
5030.15625
 20
-2628.28125
 10
5030.15625
 20
-2638.125
 10
5030.15625
 20
-2647.96875
 10
5030.15625
 20
-2657.8125
 10
5030.15625
 20
-2667.65625
 10
5030.15625
 20
-2677.5
 10
5030.15625
 20
-2687.34375
 10
5030.15625
 20
-2697.1875
 10
5030.15625
 20
-2707.03125
 10
5030.15625
 20
-2716.875
 10
5030.15625
 20
-2726.71875
 10
5030.15625
 20
-2736.5625
 10
5030.15625
 20
-2746.40625
 10
5030.15625
 20
-2756.25
 10
5030.15625
 20
-2766.09375
 10
5030.15625
 20
-2775.9375
 10
5030.15625
 20
-2785.78125
 10
5030.15625
 20
-2795.625
 10
5030.15625
 20
-2805.46875
 10
5030.15625
 20
-2815.3125
 10
5030.15625
 20
-2825.15625
 10
5030.15625
 20
-2835.0
 10
5030.15625
 20
-2844.84375
 10
5030.15625
 20
-2854.6875
 10
5030.15625
 20
-2864.53125
 10
5030.15625
 20
-2874.375
 10
5030.15625
 20
-2884.21875
 10
5030.15625
 20
-2894.0625
 10
5030.15625
 20
-2903.90625
 10
5030.15625
 20
-2913.75
 10
5030.15625
 20
-2923.59375
 10
5030.15625
 20
-2933.4375
 10
5030.15625
 20
-2943.28125
 10
5030.15625
 20
-2953.125
 10
5030.15625
 20
-2962.96875
 10
5030.15625
 20
-2972.8125
 10
5030.15625
 20
-2982.65625
 10
5030.15625
 20
-2992.5
 10
5030.15625
 20
-3002.34375
 10
5030.15625
 20
-3012.1875
 10
5030.15625
 20
-3022.03125
 10
5030.15625
 20
-3031.875
 10
5030.15625
 20
-3041.71875
 10
5030.15625
 20
-3051.5625
 10
5030.15625
 20
-3061.40625
 10
5030.15625
 20
-3071.25
 10
5030.15625
 20
-3081.09375
 10
5030.15625
 20
-3090.9375
 10
5030.15625
 20
-3100.78125
 10
5030.15625
 20
-3110.625
 10
5030.15625
 20
-3120.46875
 10
5030.15625
 20
-3130.3125
 10
5030.15625
 20
-3140.15625
 10
5030.15625
 20
-3150.0
 10
5030.15625
 20
-3159.84375
 10
5030.15625
 20
-3169.6875
 10
5030.15625
 20
-3179.53125
 10
5030.15625
 20
-3189.375
 10
5030.15625
 20
-3199.21875
 10
5030.15625
 20
-3209.0625
 10
5030.15625
 20
-3218.90625
 10
5030.15625
 20
-3228.75
 10
5030.15625
 20
-3238.59375
 10
5030.15625
 20
-3248.4375
 10
5030.15625
 20
-3258.28125
 10
5030.15625
 20
-3268.125
 10
5030.15625
 20
-3277.96875
 10
5030.15625
 20
-3287.8125
 10
5030.15625
 20
-3297.65625
 10
5030.15625
 20
-3307.5
 10
5030.15625
 20
-3317.34375
 10
5030.15625
 20
-3327.1875
 10
5030.15625
 20
-3337.03125
 10
5030.15625
 20
-3346.875
 10
5030.15625
 20
-3356.71875
 10
5030.15625
 20
-3366.5625
 10
5030.15625
 20
-3376.40625
 10
5030.15625
 20
-3386.25
 10
5030.15625
 20
-3396.09375
 10
5030.15625
 20
-3405.9375
 10
5030.15625
 20
-3415.78125
 10
5030.15625
 20
-3425.625
 10
5030.15625
 20
-3435.46875
 10
5030.15625
 20
-3445.3125
 10
5030.15625
 20
-3455.15625
 10
5030.15625
 20
-3465.0
 10
5030.15625
 20
-3474.84375
 10
5030.15625
 20
-3484.6875
 10
5030.15625
 20
-3494.53125
 10
5030.15625
 20
-3504.375
 10
5030.15625
 20
-3514.21875
 10
5030.15625
 20
-3524.0625
 10
5030.15625
 20
-3533.90625
 10
5030.15625
 20
-3543.75
 10
5030.15625
 20
-3553.59375
 10
5030.15625
 20
-3563.4375
 10
5030.15625
 20
-3573.28125
 10
5030.15625
 20
-3583.125
 10
5030.15625
 20
-3592.96875
 10
5030.15625
 20
-3602.8125
 10
5030.15625
 20
-3612.65625
 10
5030.15625
 20
-3622.5
 10
5030.15625
 20
-3632.34375
 10
5030.15625
 20
-3642.1875
 10
5030.15625
 20
-3652.03125
 10
5030.15625
 20
-3661.875
 10
5030.15625
 20
-3671.71875
 10
5030.15625
 20
-3681.5625
 10
5030.15625
 20
-3691.40625
 10
5030.15625
 20
-3701.25
 10
5030.15625
 20
-3711.09375
 10
5030.15625
 20
-3720.9375
 10
5030.15625
 20
-3730.78125
 10
5030.15625
 20
-3740.625
 10
5030.15625
 20
-3750.46875
 10
5030.15625
 20
-3760.3125
 10
5030.15625
 20
-3770.15625
 10
5030.15625
 20
-3780.0
 10
5030.15625
 20
-3789.84375
 10
5030.15625
 20
-3799.6875
 10
5030.15625
 20
-3809.53125
 10
5030.15625
 20
-3819.375
 10
5030.15625
 20
-3829.21875
 10
5030.15625
 20
-3839.0625
 10
5030.15625
 20
-3848.90625
 10
5030.15625
 20
-3858.75
 10
5030.15625
 20
-3868.59375
 10
5030.15625
 20
-3878.4375
 10
5030.15625
 20
-3888.28125
 10
5030.15625
 20
-3898.125
 10
5030.15625
 20
-3907.96875
 10
5030.15625
 20
-3917.8125
 10
5030.15625
 20
-3927.65625
 10
5030.15625
 20
-3937.5
 10
5030.15625
 20
-3947.34375
 10
5030.15625
 20
-3957.1875
 10
5030.15625
 20
-3967.03125
 10
5030.15625
 20
-3976.875
 10
5030.15625
 20
-3986.71875
 10
5030.15625
 20
-3996.5625
 10
5030.15625
 20
-4006.40625
 10
5030.15625
 20
-4016.25
 10
5030.15625
 20
-4026.09375
 10
5030.15625
 20
-4035.9375
 10
5030.15625
 20
-4045.78125
 10
5030.15625
 20
-4055.625
 10
5030.15625
 20
-4065.46875
 10
5030.15625
 20
-4075.3125
 10
5030.15625
 20
-4085.15625
 10
5030.15625
 20
-4095.0
 10
5030.15625
 20
-4104.84375
 10
5030.15625
 20
-4114.6875
 10
5030.15625
 20
-4124.53125
 10
5030.15625
 20
-4134.375
 10
5030.15625
 20
-4144.21875
 10
5030.15625
 20
-4154.0625
 10
5030.15625
 20
-4163.90625
 10
5030.15625
 20
-4173.75
 10
5030.15625
 20
-4183.59375
 10
5030.15625
 20
-4193.4375
 10
5030.15625
 20
-4203.28125
 10
5030.15625
 20
-4213.125
 10
5030.15625
 20
-4222.96875
 10
5030.15625
 20
-4232.8125
 10
5030.15625
 20
-4242.65625
 10
5030.15625
 20
-4252.5
 10
5030.15625
 20
-4262.34375
 10
5030.15625
 20
-4272.1875
 10
5020.3125
 20
-4282.03125
 10
5010.46875
 20
-4272.1875
 10
5010.46875
 20
-4262.34375
 10
5010.46875
 20
-4252.5
 10
5010.46875
 20
-4242.65625
 10
5010.46875
 20
-4232.8125
 10
5010.46875
 20
-4222.96875
 10
5010.46875
 20
-4213.125
 10
5010.46875
 20
-4203.28125
 10
5010.46875
 20
-4193.4375
 10
5010.46875
 20
-4183.59375
 10
5010.46875
 20
-4173.75
 10
5010.46875
 20
-4163.90625
 10
5010.46875
 20
-4154.0625
 10
5010.46875
 20
-4144.21875
 10
5010.46875
 20
-4134.375
 10
5010.46875
 20
-4124.53125
 10
5010.46875
 20
-4114.6875
 10
5010.46875
 20
-4104.84375
 10
5010.46875
 20
-4095.0
 10
5010.46875
 20
-4085.15625
 10
5010.46875
 20
-4075.3125
 10
5010.46875
 20
-4065.46875
 10
5010.46875
 20
-4055.625
 10
5010.46875
 20
-4045.78125
 10
5010.46875
 20
-4035.9375
 10
5010.46875
 20
-4026.09375
 10
5010.46875
 20
-4016.25
 10
5010.46875
 20
-4006.40625
 10
5010.46875
 20
-3996.5625
 10
5010.46875
 20
-3986.71875
 10
5010.46875
 20
-3976.875
 10
5010.46875
 20
-3967.03125
 10
5010.46875
 20
-3957.1875
 10
5010.46875
 20
-3947.34375
 10
5010.46875
 20
-3937.5
 10
5010.46875
 20
-3927.65625
 10
5010.46875
 20
-3917.8125
 10
5010.46875
 20
-3907.96875
 10
5010.46875
 20
-3898.125
 10
5010.46875
 20
-3888.28125
 10
5010.46875
 20
-3878.4375
 10
5010.46875
 20
-3868.59375
 10
5010.46875
 20
-3858.75
 10
5010.46875
 20
-3848.90625
 10
5010.46875
 20
-3839.0625
 10
5010.46875
 20
-3829.21875
 10
5010.46875
 20
-3819.375
 10
5010.46875
 20
-3809.53125
 10
5010.46875
 20
-3799.6875
 10
5010.46875
 20
-3789.84375
 10
5010.46875
 20
-3780.0
 10
5010.46875
 20
-3770.15625
 10
5010.46875
 20
-3760.3125
 10
5010.46875
 20
-3750.46875
 10
5010.46875
 20
-3740.625
 10
5010.46875
 20
-3730.78125
 10
5010.46875
 20
-3720.9375
 10
5010.46875
 20
-3711.09375
 10
5010.46875
 20
-3701.25
 10
5010.46875
 20
-3691.40625
 10
5010.46875
 20
-3681.5625
 10
5010.46875
 20
-3671.71875
 10
5010.46875
 20
-3661.875
 10
5010.46875
 20
-3652.03125
 10
5010.46875
 20
-3642.1875
 10
5010.46875
 20
-3632.34375
 10
5010.46875
 20
-3622.5
 10
5010.46875
 20
-3612.65625
 10
5010.46875
 20
-3602.8125
 10
5010.46875
 20
-3592.96875
 10
5010.46875
 20
-3583.125
 10
5010.46875
 20
-3573.28125
 10
5010.46875
 20
-3563.4375
 10
5010.46875
 20
-3553.59375
 10
5010.46875
 20
-3543.75
 10
5010.46875
 20
-3533.90625
 10
5010.46875
 20
-3524.0625
 10
5010.46875
 20
-3514.21875
 10
5010.46875
 20
-3504.375
 10
5010.46875
 20
-3494.53125
 10
5010.46875
 20
-3484.6875
 10
5010.46875
 20
-3474.84375
 10
5010.46875
 20
-3465.0
 10
5010.46875
 20
-3455.15625
 10
5010.46875
 20
-3445.3125
 10
5010.46875
 20
-3435.46875
 10
5010.46875
 20
-3425.625
 10
5010.46875
 20
-3415.78125
 10
5010.46875
 20
-3405.9375
 10
5010.46875
 20
-3396.09375
 10
5010.46875
 20
-3386.25
 10
5010.46875
 20
-3376.40625
 10
5010.46875
 20
-3366.5625
 10
5010.46875
 20
-3356.71875
 10
5010.46875
 20
-3346.875
 10
5010.46875
 20
-3337.03125
 10
5010.46875
 20
-3327.1875
 10
5010.46875
 20
-3317.34375
 10
5010.46875
 20
-3307.5
 10
5010.46875
 20
-3297.65625
 10
5010.46875
 20
-3287.8125
 10
5010.46875
 20
-3277.96875
 10
5010.46875
 20
-3268.125
 10
5010.46875
 20
-3258.28125
 10
5010.46875
 20
-3248.4375
 10
5010.46875
 20
-3238.59375
 10
5010.46875
 20
-3228.75
 10
5010.46875
 20
-3218.90625
 10
5010.46875
 20
-3209.0625
 10
5010.46875
 20
-3199.21875
 10
5010.46875
 20
-3189.375
 10
5010.46875
 20
-3179.53125
 10
5010.46875
 20
-3169.6875
 10
5010.46875
 20
-3159.84375
 10
5010.46875
 20
-3150.0
 10
5010.46875
 20
-3140.15625
 10
5010.46875
 20
-3130.3125
 10
5010.46875
 20
-3120.46875
 10
5010.46875
 20
-3110.625
 10
5010.46875
 20
-3100.78125
 10
5010.46875
 20
-3090.9375
 10
5010.46875
 20
-3081.09375
 10
5010.46875
 20
-3071.25
 10
5010.46875
 20
-3061.40625
 10
5010.46875
 20
-3051.5625
 10
5010.46875
 20
-3041.71875
 10
5010.46875
 20
-3031.875
 10
5010.46875
 20
-3022.03125
 10
5010.46875
 20
-3012.1875
 10
5010.46875
 20
-3002.34375
 10
5010.46875
 20
-2992.5
 10
5010.46875
 20
-2982.65625
 10
5010.46875
 20
-2972.8125
 10
5010.46875
 20
-2962.96875
 10
5010.46875
 20
-2953.125
 10
5010.46875
 20
-2943.28125
 10
5010.46875
 20
-2933.4375
 10
5010.46875
 20
-2923.59375
 10
5010.46875
 20
-2913.75
 10
5010.46875
 20
-2903.90625
 10
5010.46875
 20
-2894.0625
 10
5010.46875
 20
-2884.21875
 10
5010.46875
 20
-2874.375
 10
5010.46875
 20
-2864.53125
 10
5010.46875
 20
-2854.6875
 10
5010.46875
 20
-2844.84375
 10
5010.46875
 20
-2835.0
 10
5010.46875
 20
-2825.15625
 10
5010.46875
 20
-2815.3125
 10
5010.46875
 20
-2805.46875
 10
5010.46875
 20
-2795.625
 10
5010.46875
 20
-2785.78125
 10
5010.46875
 20
-2775.9375
 10
5010.46875
 20
-2766.09375
 10
5010.46875
 20
-2756.25
 10
5010.46875
 20
-2746.40625
 10
5010.46875
 20
-2736.5625
 10
5010.46875
 20
-2726.71875
 10
5010.46875
 20
-2716.875
 10
5010.46875
 20
-2707.03125
 10
5010.46875
 20
-2697.1875
 10
5010.46875
 20
-2687.34375
 10
5010.46875
 20
-2677.5
 10
5010.46875
 20
-2667.65625
 10
5010.46875
 20
-2657.8125
 10
5010.46875
 20
-2647.96875
 10
5010.46875
 20
-2638.125
 10
5010.46875
 20
-2628.28125
 10
5010.46875
 20
-2618.4375
 10
5010.46875
 20
-2608.59375
 10
5010.46875
 20
-2598.75
 10
5010.46875
 20
-2588.90625
 10
5010.46875
 20
-2579.0625
 10
5010.46875
 20
-2569.21875
 10
5010.46875
 20
-2559.375
 10
5010.46875
 20
-2549.53125
 10
5010.46875
 20
-2539.6875
 10
5010.46875
 20
-2529.84375
 10
5010.46875
 20
-2520.0
 10
5010.46875
 20
-2510.15625
 10
5010.46875
 20
-2500.3125
 10
5010.46875
 20
-2490.46875
 10
5010.46875
 20
-2480.625
 10
5010.46875
 20
-2470.78125
 10
5010.46875
 20
-2460.9375
 10
5010.46875
 20
-2451.09375
 10
5010.46875
 20
-2441.25
 10
5010.46875
 20
-2431.40625
 10
5010.46875
 20
-2421.5625
 10
5010.46875
 20
-2411.71875
 10
5010.46875
 20
-2401.875
 10
5010.46875
 20
-2392.03125
 10
5010.46875
 20
-2382.1875
 10
5010.46875
 20
-2372.34375
 10
5010.46875
 20
-2362.5
 10
5010.46875
 20
-2352.65625
 10
5010.46875
 20
-2342.8125
 10
5010.46875
 20
-2332.96875
 10
5010.46875
 20
-2323.125
 10
5010.46875
 20
-2313.28125
 10
5010.46875
 20
-2303.4375
 10
5010.46875
 20
-2293.59375
 10
5010.46875
 20
-2283.75
 10
5010.46875
 20
-2273.90625
 10
5010.46875
 20
-2264.0625
 10
5010.46875
 20
-2254.21875
 10
5010.46875
 20
-2244.375
 10
5010.46875
 20
-2234.53125
 10
5010.46875
 20
-2224.6875
 10
5010.46875
 20
-2214.84375
 10
5010.46875
 20
-2205.0
 10
5010.46875
 20
-2195.15625
 10
5010.46875
 20
-2185.3125
 10
5010.46875
 20
-2175.46875
 10
5010.46875
 20
-2165.625
 10
5010.46875
 20
-2155.78125
 10
5010.46875
 20
-2145.9375
 10
5010.46875
 20
-2136.09375
 10
5010.46875
 20
-2126.25
 10
5010.46875
 20
-2116.40625
 10
5010.46875
 20
-2106.5625
 10
5010.46875
 20
-2096.71875
 10
5010.46875
 20
-2086.875
 10
5010.46875
 20
-2077.03125
 10
5010.46875
 20
-2067.1875
 10
5010.46875
 20
-2057.34375
 10
5010.46875
 20
-2047.5
 10
5010.46875
 20
-2037.65625
 10
5010.46875
 20
-2027.8125
 10
5010.46875
 20
-2017.96875
 10
5010.46875
 20
-2008.125
 10
5010.46875
 20
-1998.28125
 10
5010.46875
 20
-1988.4375
 10
5010.46875
 20
-1978.59375
 10
5010.46875
 20
-1968.75
 10
5010.46875
 20
-1958.90625
 10
5010.46875
 20
-1949.0625
 10
5010.46875
 20
-1939.21875
 10
5010.46875
 20
-1929.375
 10
5010.46875
 20
-1919.53125
 10
5010.46875
 20
-1909.6875
 10
5010.46875
 20
-1899.84375
 10
5010.46875
 20
-1890.0
 10
5010.46875
 20
-1880.15625
 10
5010.46875
 20
-1870.3125
 10
5010.46875
 20
-1860.46875
 10
5010.46875
 20
-1850.625
 10
5010.46875
 20
-1840.78125
 10
5010.46875
 20
-1830.9375
 10
5010.46875
 20
-1821.09375
  0
LWPOLYLINE
  5
A9
330
17
100
AcDbEntity
  8
substrate
100
AcDbPolyline
 90
8
 70
1
 43
0.5
 10
5010.46875
 20
-1771.875
 10
5020.3125
 20
-1762.03125
 10
5030.15625
 20
-1771.875
 10
5030.15625
 20
-1781.71875
 10
5030.15625
 20
-1791.5625
 10
5020.3125
 20
-1801.40625
 10
5010.46875
 20
-1791.5625
 10
5010.46875
 20
-1781.71875
  0
LWPOLYLINE
  5
AA
330
17
100
AcDbEntity
  8
substrate
100
AcDbPolyline
 90
30
 70
1
 43
0.5
 10
5010.46875
 20
-1624.21875
 10
5020.3125
 20
-1614.375
 10
5030.15625
 20
-1624.21875
 10
5030.15625
 20
-1634.0625
 10
5030.15625
 20
-1643.90625
 10
5030.15625
 20
-1653.75
 10
5030.15625
 20
-1663.59375
 10
5030.15625
 20
-1673.4375
 10
5030.15625
 20
-1683.28125
 10
5030.15625
 20
-1693.125
 10
5030.15625
 20
-1702.96875
 10
5030.15625
 20
-1712.8125
 10
5030.15625
 20
-1722.65625
 10
5030.15625
 20
-1732.5
 10
5030.15625
 20
-1742.34375
 10
5030.15625
 20
-1752.1875
 10
5020.3125
 20
-1762.03125
 10
5010.46875
 20
-1752.1875
 10
5010.46875
 20
-1742.34375
 10
5010.46875
 20
-1732.5
 10
5010.46875
 20
-1722.65625
 10
5010.46875
 20
-1712.8125
 10
5010.46875
 20
-1702.96875
 10
5010.46875
 20
-1693.125
 10
5010.46875
 20
-1683.28125
 10
5010.46875
 20
-1673.4375
 10
5010.46875
 20
-1663.59375
 10
5010.46875
 20
-1653.75
 10
5010.46875
 20
-1643.90625
 10
5010.46875
 20
-1634.0625
  0
LWPOLYLINE
  5
AB
330
17
100
AcDbEntity
  8
substrate
100
AcDbPolyline
 90
192
 70
1
 43
0.5
 10
0.0
 20
-1594.6875
 10
9.84375
 20
-1584.84375
 10
19.6875
 20
-1594.6875
 10
19.6875
 20
-1604.53125
 10
19.6875
 20
-1614.375
 10
19.6875
 20
-1624.21875
 10
19.6875
 20
-1634.0625
 10
19.6875
 20
-1643.90625
 10
19.6875
 20
-1653.75
 10
19.6875
 20
-1663.59375
 10
19.6875
 20
-1673.4375
 10
19.6875
 20
-1683.28125
 10
19.6875
 20
-1693.125
 10
19.6875
 20
-1702.96875
 10
19.6875
 20
-1712.8125
 10
19.6875
 20
-1722.65625
 10
19.6875
 20
-1732.5
 10
19.6875
 20
-1742.34375
 10
19.6875
 20
-1752.1875
 10
19.6875
 20
-1762.03125
 10
19.6875
 20
-1771.875
 10
19.6875
 20
-1781.71875
 10
19.6875
 20
-1791.5625
 10
19.6875
 20
-1801.40625
 10
19.6875
 20
-1811.25
 10
19.6875
 20
-1821.09375
 10
19.6875
 20
-1830.9375
 10
19.6875
 20
-1840.78125
 10
19.6875
 20
-1850.625
 10
19.6875
 20
-1860.46875
 10
19.6875
 20
-1870.3125
 10
19.6875
 20
-1880.15625
 10
19.6875
 20
-1890.0
 10
19.6875
 20
-1899.84375
 10
19.6875
 20
-1909.6875
 10
19.6875
 20
-1919.53125
 10
19.6875
 20
-1929.375
 10
19.6875
 20
-1939.21875
 10
19.6875
 20
-1949.0625
 10
19.6875
 20
-1958.90625
 10
19.6875
 20
-1968.75
 10
19.6875
 20
-1978.59375
 10
19.6875
 20
-1988.4375
 10
19.6875
 20
-1998.28125
 10
19.6875
 20
-2008.125
 10
19.6875
 20
-2017.96875
 10
19.6875
 20
-2027.8125
 10
19.6875
 20
-2037.65625
 10
19.6875
 20
-2047.5
 10
19.6875
 20
-2057.34375
 10
19.6875
 20
-2067.1875
 10
19.6875
 20
-2077.03125
 10
19.6875
 20
-2086.875
 10
19.6875
 20
-2096.71875
 10
19.6875
 20
-2106.5625
 10
19.6875
 20
-2116.40625
 10
19.6875
 20
-2126.25
 10
19.6875
 20
-2136.09375
 10
19.6875
 20
-2145.9375
 10
19.6875
 20
-2155.78125
 10
19.6875
 20
-2165.625
 10
19.6875
 20
-2175.46875
 10
19.6875
 20
-2185.3125
 10
19.6875
 20
-2195.15625
 10
19.6875
 20
-2205.0
 10
19.6875
 20
-2214.84375
 10
19.6875
 20
-2224.6875
 10
19.6875
 20
-2234.53125
 10
19.6875
 20
-2244.375
 10
19.6875
 20
-2254.21875
 10
19.6875
 20
-2264.0625
 10
19.6875
 20
-2273.90625
 10
19.6875
 20
-2283.75
 10
19.6875
 20
-2293.59375
 10
19.6875
 20
-2303.4375
 10
19.6875
 20
-2313.28125
 10
19.6875
 20
-2323.125
 10
19.6875
 20
-2332.96875
 10
19.6875
 20
-2342.8125
 10
19.6875
 20
-2352.65625
 10
19.6875
 20
-2362.5
 10
19.6875
 20
-2372.34375
 10
19.6875
 20
-2382.1875
 10
19.6875
 20
-2392.03125
 10
19.6875
 20
-2401.875
 10
19.6875
 20
-2411.71875
 10
19.6875
 20
-2421.5625
 10
19.6875
 20
-2431.40625
 10
19.6875
 20
-2441.25
 10
19.6875
 20
-2451.09375
 10
19.6875
 20
-2460.9375
 10
19.6875
 20
-2470.78125
 10
19.6875
 20
-2480.625
 10
19.6875
 20
-2490.46875
 10
19.6875
 20
-2500.3125
 10
19.6875
 20
-2510.15625
 10
19.6875
 20
-2520.0
 10
9.84375
 20
-2529.84375
 10
0.0
 20
-2520.0
 10
0.0
 20
-2510.15625
 10
0.0
 20
-2500.3125
 10
0.0
 20
-2490.46875
 10
0.0
 20
-2480.625
 10
0.0
 20
-2470.78125
 10
0.0
 20
-2460.9375
 10
0.0
 20
-2451.09375
 10
0.0
 20
-2441.25
 10
0.0
 20
-2431.40625
 10
0.0
 20
-2421.5625
 10
0.0
 20
-2411.71875
 10
0.0
 20
-2401.875
 10
0.0
 20
-2392.03125
 10
0.0
 20
-2382.1875
 10
0.0
 20
-2372.34375
 10
0.0
 20
-2362.5
 10
0.0
 20
-2352.65625
 10
0.0
 20
-2342.8125
 10
0.0
 20
-2332.96875
 10
0.0
 20
-2323.125
 10
0.0
 20
-2313.28125
 10
0.0
 20
-2303.4375
 10
0.0
 20
-2293.59375
 10
0.0
 20
-2283.75
 10
0.0
 20
-2273.90625
 10
0.0
 20
-2264.0625
 10
0.0
 20
-2254.21875
 10
0.0
 20
-2244.375
 10
0.0
 20
-2234.53125
 10
0.0
 20
-2224.6875
 10
0.0
 20
-2214.84375
 10
0.0
 20
-2205.0
 10
0.0
 20
-2195.15625
 10
0.0
 20
-2185.3125
 10
0.0
 20
-2175.46875
 10
0.0
 20
-2165.625
 10
0.0
 20
-2155.78125
 10
0.0
 20
-2145.9375
 10
0.0
 20
-2136.09375
 10
0.0
 20
-2126.25
 10
0.0
 20
-2116.40625
 10
0.0
 20
-2106.5625
 10
0.0
 20
-2096.71875
 10
0.0
 20
-2086.875
 10
0.0
 20
-2077.03125
 10
0.0
 20
-2067.1875
 10
0.0
 20
-2057.34375
 10
0.0
 20
-2047.5
 10
0.0
 20
-2037.65625
 10
0.0
 20
-2027.8125
 10
0.0
 20
-2017.96875
 10
0.0
 20
-2008.125
 10
0.0
 20
-1998.28125
 10
0.0
 20
-1988.4375
 10
0.0
 20
-1978.59375
 10
0.0
 20
-1968.75
 10
0.0
 20
-1958.90625
 10
0.0
 20
-1949.0625
 10
0.0
 20
-1939.21875
 10
0.0
 20
-1929.375
 10
0.0
 20
-1919.53125
 10
0.0
 20
-1909.6875
 10
0.0
 20
-1899.84375
 10
0.0
 20
-1890.0
 10
0.0
 20
-1880.15625
 10
0.0
 20
-1870.3125
 10
0.0
 20
-1860.46875
 10
0.0
 20
-1850.625
 10
0.0
 20
-1840.78125
 10
0.0
 20
-1830.9375
 10
0.0
 20
-1821.09375
 10
0.0
 20
-1811.25
 10
0.0
 20
-1801.40625
 10
0.0
 20
-1791.5625
 10
0.0
 20
-1781.71875
 10
0.0
 20
-1771.875
 10
0.0
 20
-1762.03125
 10
0.0
 20
-1752.1875
 10
0.0
 20
-1742.34375
 10
0.0
 20
-1732.5
 10
0.0
 20
-1722.65625
 10
0.0
 20
-1712.8125
 10
0.0
 20
-1702.96875
 10
0.0
 20
-1693.125
 10
0.0
 20
-1683.28125
 10
0.0
 20
-1673.4375
 10
0.0
 20
-1663.59375
 10
0.0
 20
-1653.75
 10
0.0
 20
-1643.90625
 10
0.0
 20
-1634.0625
 10
0.0
 20
-1624.21875
 10
0.0
 20
-1614.375
 10
0.0
 20
-1604.53125
  0
LWPOLYLINE
  5
AC
330
17
100
AcDbEntity
  8
substrate
100
AcDbPolyline
 90
26
 70
1
 43
0.5
 10
5010.46875
 20
-1486.40625
 10
5020.3125
 20
-1476.5625
 10
5030.15625
 20
-1486.40625
 10
5030.15625
 20
-1496.25
 10
5030.15625
 20
-1506.09375
 10
5030.15625
 20
-1515.9375
 10
5030.15625
 20
-1525.78125
 10
5030.15625
 20
-1535.625
 10
5030.15625
 20
-1545.46875
 10
5030.15625
 20
-1555.3125
 10
5030.15625
 20
-1565.15625
 10
5030.15625
 20
-1575.0
 10
5030.15625
 20
-1584.84375
 10
5030.15625
 20
-1594.6875
 10
5020.3125
 20
-1604.53125
 10
5010.46875
 20
-1594.6875
 10
5010.46875
 20
-1584.84375
 10
5010.46875
 20
-1575.0
 10
5010.46875
 20
-1565.15625
 10
5010.46875
 20
-1555.3125
 10
5010.46875
 20
-1545.46875
 10
5010.46875
 20
-1535.625
 10
5010.46875
 20
-1525.78125
 10
5010.46875
 20
-1515.9375
 10
5010.46875
 20
-1506.09375
 10
5010.46875
 20
-1496.25
  0
LWPOLYLINE
  5
AD
330
17
100
AcDbEntity
  8
substrate
100
AcDbPolyline
 90
56
 70
1
 43
0.5
 10
0.0
 20
-1319.0625
 10
9.84375
 20
-1309.21875
 10
19.6875
 20
-1319.0625
 10
19.6875
 20
-1328.90625
 10
19.6875
 20
-1338.75
 10
19.6875
 20
-1348.59375
 10
19.6875
 20
-1358.4375
 10
19.6875
 20
-1368.28125
 10
19.6875
 20
-1378.125
 10
19.6875
 20
-1387.96875
 10
19.6875
 20
-1397.8125
 10
19.6875
 20
-1407.65625
 10
19.6875
 20
-1417.5
 10
19.6875
 20
-1427.34375
 10
19.6875
 20
-1437.1875
 10
19.6875
 20
-1447.03125
 10
19.6875
 20
-1456.875
 10
19.6875
 20
-1466.71875
 10
19.6875
 20
-1476.5625
 10
19.6875
 20
-1486.40625
 10
19.6875
 20
-1496.25
 10
19.6875
 20
-1506.09375
 10
19.6875
 20
-1515.9375
 10
19.6875
 20
-1525.78125
 10
19.6875
 20
-1535.625
 10
19.6875
 20
-1545.46875
 10
19.6875
 20
-1555.3125
 10
19.6875
 20
-1565.15625
 10
19.6875
 20
-1575.0
 10
9.84375
 20
-1584.84375
 10
0.0
 20
-1575.0
 10
0.0
 20
-1565.15625
 10
0.0
 20
-1555.3125
 10
0.0
 20
-1545.46875
 10
0.0
 20
-1535.625
 10
0.0
 20
-1525.78125
 10
0.0
 20
-1515.9375
 10
0.0
 20
-1506.09375
 10
0.0
 20
-1496.25
 10
0.0
 20
-1486.40625
 10
0.0
 20
-1476.5625
 10
0.0
 20
-1466.71875
 10
0.0
 20
-1456.875
 10
0.0
 20
-1447.03125
 10
0.0
 20
-1437.1875
 10
0.0
 20
-1427.34375
 10
0.0
 20
-1417.5
 10
0.0
 20
-1407.65625
 10
0.0
 20
-1397.8125
 10
0.0
 20
-1387.96875
 10
0.0
 20
-1378.125
 10
0.0
 20
-1368.28125
 10
0.0
 20
-1358.4375
 10
0.0
 20
-1348.59375
 10
0.0
 20
-1338.75
 10
0.0
 20
-1328.90625
  0
LWPOLYLINE
  5
AE
330
17
100
AcDbEntity
  8
substrate
100
AcDbPolyline
 90
14
 70
1
 43
0.5
 10
0.0
 20
-1250.15625
 10
9.84375
 20
-1240.3125
 10
19.6875
 20
-1250.15625
 10
19.6875
 20
-1260.0
 10
19.6875
 20
-1269.84375
 10
19.6875
 20
-1279.6875
 10
19.6875
 20
-1289.53125
 10
19.6875
 20
-1299.375
 10
9.84375
 20
-1309.21875
 10
0.0
 20
-1299.375
 10
0.0
 20
-1289.53125
 10
0.0
 20
-1279.6875
 10
0.0
 20
-1269.84375
 10
0.0
 20
-1260.0
  0
LWPOLYLINE
  5
AF
330
17
100
AcDbEntity
  8
substrate
100
AcDbPolyline
 90
32
 70
1
 43
0.5
 10
0.0
 20
-1092.65625
 10
9.84375
 20
-1082.8125
 10
19.6875
 20
-1092.65625
 10
19.6875
 20
-1102.5
 10
19.6875
 20
-1112.34375
 10
19.6875
 20
-1122.1875
 10
19.6875
 20
-1132.03125
 10
19.6875
 20
-1141.875
 10
19.6875
 20
-1151.71875
 10
19.6875
 20
-1161.5625
 10
19.6875
 20
-1171.40625
 10
19.6875
 20
-1181.25
 10
19.6875
 20
-1191.09375
 10
19.6875
 20
-1200.9375
 10
19.6875
 20
-1210.78125
 10
19.6875
 20
-1220.625
 10
19.6875
 20
-1230.46875
 10
9.84375
 20
-1240.3125
 10
0.0
 20
-1230.46875
 10
0.0
 20
-1220.625
 10
0.0
 20
-1210.78125
 10
0.0
 20
-1200.9375
 10
0.0
 20
-1191.09375
 10
0.0
 20
-1181.25
 10
0.0
 20
-1171.40625
 10
0.0
 20
-1161.5625
 10
0.0
 20
-1151.71875
 10
0.0
 20
-1141.875
 10
0.0
 20
-1132.03125
 10
0.0
 20
-1122.1875
 10
0.0
 20
-1112.34375
 10
0.0
 20
-1102.5
  0
LWPOLYLINE
  5
B0
330
17
100
AcDbEntity
  8
substrate
100
AcDbPolyline
 90
4
 70
1
 43
0.5
 10
0.0
 20
-1043.4375
 10
9.84375
 20
-1033.59375
 10
19.6875
 20
-1043.4375
 10
9.84375
 20
-1053.28125
  0
LWPOLYLINE
  5
B1
330
17
100
AcDbEntity
  8
substrate
100
AcDbPolyline
 90
4
 70
1
 43
0.5
 10
0.0
 20
-1023.75
 10
9.84375
 20
-1013.90625
 10
19.6875
 20
-1023.75
 10
9.84375
 20
-1033.59375
  0
LWPOLYLINE
  5
B2
330
17
100
AcDbEntity
  8
substrate
100
AcDbPolyline
 90
6
 70
1
 43
0.5
 10
0.0
 20
-994.21875
 10
9.84375
 20
-984.375
 10
19.6875
 20
-994.21875
 10
19.6875
 20
-1004.0625
 10
9.84375
 20
-1013.90625
 10
0.0
 20
-1004.0625
  0
LWPOLYLINE
  5
B3
330
17
100
AcDbEntity
  8
substrate
100
AcDbPolyline
 90
100
 70
1
 43
0.5
 10
5010.46875
 20
-984.375
 10
5020.3125
 20
-974.53125
 10
5030.15625
 20
-984.375
 10
5030.15625
 20
-994.21875
 10
5030.15625
 20
-1004.0625
 10
5030.15625
 20
-1013.90625
 10
5030.15625
 20
-1023.75
 10
5030.15625
 20
-1033.59375
 10
5030.15625
 20
-1043.4375
 10
5030.15625
 20
-1053.28125
 10
5030.15625
 20
-1063.125
 10
5030.15625
 20
-1072.96875
 10
5030.15625
 20
-1082.8125
 10
5030.15625
 20
-1092.65625
 10
5030.15625
 20
-1102.5
 10
5030.15625
 20
-1112.34375
 10
5030.15625
 20
-1122.1875
 10
5030.15625
 20
-1132.03125
 10
5030.15625
 20
-1141.875
 10
5030.15625
 20
-1151.71875
 10
5030.15625
 20
-1161.5625
 10
5030.15625
 20
-1171.40625
 10
5030.15625
 20
-1181.25
 10
5030.15625
 20
-1191.09375
 10
5030.15625
 20
-1200.9375
 10
5030.15625
 20
-1210.78125
 10
5030.15625
 20
-1220.625
 10
5030.15625
 20
-1230.46875
 10
5030.15625
 20
-1240.3125
 10
5030.15625
 20
-1250.15625
 10
5030.15625
 20
-1260.0
 10
5030.15625
 20
-1269.84375
 10
5030.15625
 20
-1279.6875
 10
5030.15625
 20
-1289.53125
 10
5030.15625
 20
-1299.375
 10
5030.15625
 20
-1309.21875
 10
5030.15625
 20
-1319.0625
 10
5030.15625
 20
-1328.90625
 10
5030.15625
 20
-1338.75
 10
5030.15625
 20
-1348.59375
 10
5030.15625
 20
-1358.4375
 10
5030.15625
 20
-1368.28125
 10
5030.15625
 20
-1378.125
 10
5030.15625
 20
-1387.96875
 10
5030.15625
 20
-1397.8125
 10
5030.15625
 20
-1407.65625
 10
5030.15625
 20
-1417.5
 10
5030.15625
 20
-1427.34375
 10
5030.15625
 20
-1437.1875
 10
5030.15625
 20
-1447.03125
 10
5030.15625
 20
-1456.875
 10
5020.3125
 20
-1466.71875
 10
5010.46875
 20
-1456.875
 10
5010.46875
 20
-1447.03125
 10
5010.46875
 20
-1437.1875
 10
5010.46875
 20
-1427.34375
 10
5010.46875
 20
-1417.5
 10
5010.46875
 20
-1407.65625
 10
5010.46875
 20
-1397.8125
 10
5010.46875
 20
-1387.96875
 10
5010.46875
 20
-1378.125
 10
5010.46875
 20
-1368.28125
 10
5010.46875
 20
-1358.4375
 10
5010.46875
 20
-1348.59375
 10
5010.46875
 20
-1338.75
 10
5010.46875
 20
-1328.90625
 10
5010.46875
 20
-1319.0625
 10
5010.46875
 20
-1309.21875
 10
5010.46875
 20
-1299.375
 10
5010.46875
 20
-1289.53125
 10
5010.46875
 20
-1279.6875
 10
5010.46875
 20
-1269.84375
 10
5010.46875
 20
-1260.0
 10
5010.46875
 20
-1250.15625
 10
5010.46875
 20
-1240.3125
 10
5010.46875
 20
-1230.46875
 10
5010.46875
 20
-1220.625
 10
5010.46875
 20
-1210.78125
 10
5010.46875
 20
-1200.9375
 10
5010.46875
 20
-1191.09375
 10
5010.46875
 20
-1181.25
 10
5010.46875
 20
-1171.40625
 10
5010.46875
 20
-1161.5625
 10
5010.46875
 20
-1151.71875
 10
5010.46875
 20
-1141.875
 10
5010.46875
 20
-1132.03125
 10
5010.46875
 20
-1122.1875
 10
5010.46875
 20
-1112.34375
 10
5010.46875
 20
-1102.5
 10
5010.46875
 20
-1092.65625
 10
5010.46875
 20
-1082.8125
 10
5010.46875
 20
-1072.96875
 10
5010.46875
 20
-1063.125
 10
5010.46875
 20
-1053.28125
 10
5010.46875
 20
-1043.4375
 10
5010.46875
 20
-1033.59375
 10
5010.46875
 20
-1023.75
 10
5010.46875
 20
-1013.90625
 10
5010.46875
 20
-1004.0625
 10
5010.46875
 20
-994.21875
  0
LWPOLYLINE
  5
B4
330
17
100
AcDbEntity
  8
substrate
100
AcDbPolyline
 90
10
 70
1
 43
0.5
 10
0.0
 20
-945.0
 10
9.84375
 20
-935.15625
 10
19.6875
 20
-945.0
 10
19.6875
 20
-954.84375
 10
19.6875
 20
-964.6875
 10
19.6875
 20
-974.53125
 10
9.84375
 20
-984.375
 10
0.0
 20
-974.53125
 10
0.0
 20
-964.6875
 10
0.0
 20
-954.84375
  0
LWPOLYLINE
  5
B5
330
17
100
AcDbEntity
  8
substrate
100
AcDbPolyline
 90
6
 70
1
 43
0.5
 10
0.0
 20
-876.09375
 10
9.84375
 20
-866.25
 10
19.6875
 20
-876.09375
 10
19.6875
 20
-885.9375
 10
9.84375
 20
-895.78125
 10
0.0
 20
-885.9375
  0
LWPOLYLINE
  5
B6
330
17
100
AcDbEntity
  8
substrate
100
AcDbPolyline
 90
4
 70
1
 43
0.5
 10
0.0
 20
-846.5625
 10
9.84375
 20
-836.71875
 10
19.6875
 20
-846.5625
 10
9.84375
 20
-856.40625
  0
LWPOLYLINE
  5
B7
330
17
100
AcDbEntity
  8
substrate
100
AcDbPolyline
 90
34
 70
1
 43
0.5
 10
5010.46875
 20
-817.03125
 10
5020.3125
 20
-807.1875
 10
5030.15625
 20
-817.03125
 10
5030.15625
 20
-826.875
 10
5030.15625
 20
-836.71875
 10
5030.15625
 20
-846.5625
 10
5030.15625
 20
-856.40625
 10
5030.15625
 20
-866.25
 10
5030.15625
 20
-876.09375
 10
5030.15625
 20
-885.9375
 10
5030.15625
 20
-895.78125
 10
5030.15625
 20
-905.625
 10
5030.15625
 20
-915.46875
 10
5030.15625
 20
-925.3125
 10
5030.15625
 20
-935.15625
 10
5030.15625
 20
-945.0
 10
5030.15625
 20
-954.84375
 10
5030.15625
 20
-964.6875
 10
5020.3125
 20
-974.53125
 10
5010.46875
 20
-964.6875
 10
5010.46875
 20
-954.84375
 10
5010.46875
 20
-945.0
 10
5010.46875
 20
-935.15625
 10
5010.46875
 20
-925.3125
 10
5010.46875
 20
-915.46875
 10
5010.46875
 20
-905.625
 10
5010.46875
 20
-895.78125
 10
5010.46875
 20
-885.9375
 10
5010.46875
 20
-876.09375
 10
5010.46875
 20
-866.25
 10
5010.46875
 20
-856.40625
 10
5010.46875
 20
-846.5625
 10
5010.46875
 20
-836.71875
 10
5010.46875
 20
-826.875
  0
LWPOLYLINE
  5
B8
330
17
100
AcDbEntity
  8
substrate
100
AcDbPolyline
 90
4
 70
1
 43
0.5
 10
0.0
 20
-797.34375
 10
9.84375
 20
-787.5
 10
19.6875
 20
-797.34375
 10
9.84375
 20
-807.1875
  0
LWPOLYLINE
  5
B9
330
17
100
AcDbEntity
  8
substrate
100
AcDbPolyline
 90
12
 70
1
 43
0.5
 10
5010.46875
 20
-748.125
 10
5020.3125
 20
-738.28125
 10
5030.15625
 20
-748.125
 10
5030.15625
 20
-757.96875
 10
5030.15625
 20
-767.8125
 10
5030.15625
 20
-777.65625
 10
5030.15625
 20
-787.5
 10
5020.3125
 20
-797.34375
 10
5010.46875
 20
-787.5
 10
5010.46875
 20
-777.65625
 10
5010.46875
 20
-767.8125
 10
5010.46875
 20
-757.96875
  0
LWPOLYLINE
  5
BA
330
17
100
AcDbEntity
  8
substrate
100
AcDbPolyline
 90
4
 70
1
 43
0.5
 10
0.0
 20
-689.0625
 10
9.84375
 20
-679.21875
 10
19.6875
 20
-689.0625
 10
9.84375
 20
-698.90625
  0
LWPOLYLINE
  5
BB
330
17
100
AcDbEntity
  8
substrate
100
AcDbPolyline
 90
18
 70
1
 43
0.5
 10
5010.46875
 20
-649.6875
 10
5020.3125
 20
-639.84375
 10
5030.15625
 20
-649.6875
 10
5030.15625
 20
-659.53125
 10
5030.15625
 20
-669.375
 10
5030.15625
 20
-679.21875
 10
5030.15625
 20
-689.0625
 10
5030.15625
 20
-698.90625
 10
5030.15625
 20
-708.75
 10
5030.15625
 20
-718.59375
 10
5020.3125
 20
-728.4375
 10
5010.46875
 20
-718.59375
 10
5010.46875
 20
-708.75
 10
5010.46875
 20
-698.90625
 10
5010.46875
 20
-689.0625
 10
5010.46875
 20
-679.21875
 10
5010.46875
 20
-669.375
 10
5010.46875
 20
-659.53125
  0
LWPOLYLINE
  5
BC
330
17
100
AcDbEntity
  8
substrate
100
AcDbPolyline
 90
4
 70
1
 43
0.5
 10
0.0
 20
-639.84375
 10
9.84375
 20
-630.0
 10
19.6875
 20
-639.84375
 10
9.84375
 20
-649.6875
  0
LWPOLYLINE
  5
BD
330
17
100
AcDbEntity
  8
substrate
100
AcDbPolyline
 90
10
 70
1
 43
0.5
 10
5010.46875
 20
-600.46875
 10
5020.3125
 20
-590.625
 10
5030.15625
 20
-600.46875
 10
5030.15625
 20
-610.3125
 10
5030.15625
 20
-620.15625
 10
5030.15625
 20
-630.0
 10
5020.3125
 20
-639.84375
 10
5010.46875
 20
-630.0
 10
5010.46875
 20
-620.15625
 10
5010.46875
 20
-610.3125
  0
LWPOLYLINE
  5
BE
330
17
100
AcDbEntity
  8
substrate
100
AcDbPolyline
 90
4
 70
1
 43
0.5
 10
0.0
 20
-570.9375
 10
9.84375
 20
-561.09375
 10
19.6875
 20
-570.9375
 10
9.84375
 20
-580.78125
  0
LWPOLYLINE
  5
BF
330
17
100
AcDbEntity
  8
substrate
100
AcDbPolyline
 90
4
 70
1
 43
0.5
 10
0.0
 20
-413.4375
 10
9.84375
 20
-403.59375
 10
19.6875
 20
-413.4375
 10
9.84375
 20
-423.28125
  0
LWPOLYLINE
  5
C0
330
17
100
AcDbEntity
  8
substrate
100
AcDbPolyline
 90
4
 70
1
 43
0.5
 10
5010.46875
 20
-354.375
 10
5020.3125
 20
-344.53125
 10
5030.15625
 20
-354.375
 10
5020.3125
 20
-364.21875
  0
LWPOLYLINE
  5
C1
330
17
100
AcDbEntity
  8
substrate
100
AcDbPolyline
 90
4
 70
1
 43
0.5
 10
0.0
 20
-344.53125
 10
9.84375
 20
-334.6875
 10
19.6875
 20
-344.53125
 10
9.84375
 20
-354.375
  0
LWPOLYLINE
  5
C2
330
17
100
AcDbEntity
  8
substrate
100
AcDbPolyline
 90
4
 70
1
 43
0.5
 10
0.0
 20
-265.78125
 10
9.84375
 20
-255.9375
 10
19.6875
 20
-265.78125
 10
9.84375
 20
-275.625
  0
LWPOLYLINE
  5
C3
330
17
100
AcDbEntity
  8
substrate
100
AcDbPolyline
 90
4
 70
1
 43
0.5
 10
5010.46875
 20
-246.09375
 10
5020.3125
 20
-236.25
 10
5030.15625
 20
-246.09375
 10
5020.3125
 20
-255.9375
  0
LWPOLYLINE
  5
C4
330
17
100
AcDbEntity
  8
substrate
100
AcDbPolyline
 90
4
 70
1
 43
0.5
 10
0.0
 20
-216.5625
 10
9.84375
 20
-206.71875
 10
19.6875
 20
-216.5625
 10
9.84375
 20
-226.40625
  0
LWPOLYLINE
  5
C5
330
17
100
AcDbEntity
  8
substrate
100
AcDbPolyline
 90
4
 70
1
 43
0.5
 10
5010.46875
 20
-206.71875
 10
5020.3125
 20
-196.875
 10
5030.15625
 20
-206.71875
 10
5020.3125
 20
-216.5625
  0
LWPOLYLINE
  5
C6
330
17
100
AcDbEntity
  8
substrate
100
AcDbPolyline
 90
4
 70
1
 43
0.5
 10
5010.46875
 20
-167.34375
 10
5020.3125
 20
-157.5
 10
5030.15625
 20
-167.34375
 10
5020.3125
 20
-177.1875
  0
LWPOLYLINE
  5
C7
330
17
100
AcDbEntity
  8
substrate
100
AcDbPolyline
 90
4
 70
1
 43
0.5
 10
0.0
 20
-167.34375
 10
9.84375
 20
-157.5
 10
19.6875
 20
-167.34375
 10
9.84375
 20
-177.1875
  0
LWPOLYLINE
  5
C8
330
17
100
AcDbEntity
  8
substrate
100
AcDbPolyline
 90
6
 70
1
 43
0.5
 10
0.0
 20
-137.8125
 10
9.84375
 20
-127.96875
 10
19.6875
 20
-137.8125
 10
19.6875
 20
-147.65625
 10
9.84375
 20
-157.5
 10
0.0
 20
-147.65625
  0
LWPOLYLINE
  5
C9
330
17
100
AcDbEntity
  8
substrate
100
AcDbPolyline
 90
8
 70
1
 43
0.5
 10
5010.46875
 20
-118.125
 10
5020.3125
 20
-108.28125
 10
5030.15625
 20
-118.125
 10
5030.15625
 20
-127.96875
 10
5030.15625
 20
-137.8125
 10
5020.3125
 20
-147.65625
 10
5010.46875
 20
-137.8125
 10
5010.46875
 20
-127.96875
  0
LWPOLYLINE
  5
CA
330
17
100
AcDbEntity
  8
substrate
100
AcDbPolyline
 90
4
 70
1
 43
0.5
 10
0.0
 20
-78.75
 10
9.84375
 20
-68.90625
 10
19.6875
 20
-78.75
 10
9.84375
 20
-88.59375
  0
LWPOLYLINE
  5
CB
330
17
100
AcDbEntity
  8
substrate
100
AcDbPolyline
 90
16
 70
1
 43
0.5
 10
5010.46875
 20
-39.375
 10
5020.3125
 20
-29.53125
 10
5030.15625
 20
-39.375
 10
5030.15625
 20
-49.21875
 10
5030.15625
 20
-59.0625
 10
5030.15625
 20
-68.90625
 10
5030.15625
 20
-78.75
 10
5030.15625
 20
-88.59375
 10
5030.15625
 20
-98.4375
 10
5020.3125
 20
-108.28125
 10
5010.46875
 20
-98.4375
 10
5010.46875
 20
-88.59375
 10
5010.46875
 20
-78.75
 10
5010.46875
 20
-68.90625
 10
5010.46875
 20
-59.0625
 10
5010.46875
 20
-49.21875
  0
LWPOLYLINE
  5
CC
330
17
100
AcDbEntity
  8
substrate
100
AcDbPolyline
 90
11
 70
1
 43
0.5
 10
4980.9375
 20
-9.84375
 10
4990.78125
 20
-0.0
 10
5000.625
 20
-0.0
 10
5010.46875
 20
-0.0
 10
5020.3125
 20
-0.0
 10
5030.15625
 20
-9.84375
 10
5030.15625
 20
-19.6875
 10
5020.3125
 20
-29.53125
 10
5010.46875
 20
-19.6875
 10
5000.625
 20
-19.6875
 10
4990.78125
 20
-19.6875
  0
LWPOLYLINE
  5
CD
330
17
100
AcDbEntity
  8
substrate
100
AcDbPolyline
 90
4
 70
1
 43
0.5
 10
4961.25
 20
-9.84375
 10
4971.09375
 20
-0.0
 10
4980.9375
 20
-9.84375
 10
4971.09375
 20
-19.6875
  0
LWPOLYLINE
  5
CE
330
17
100
AcDbEntity
  8
substrate
100
AcDbPolyline
 90
6
 70
1
 43
0.5
 10
4931.71875
 20
-9.84375
 10
4941.5625
 20
-0.0
 10
4951.40625
 20
-0.0
 10
4961.25
 20
-9.84375
 10
4951.40625
 20
-19.6875
 10
4941.5625
 20
-19.6875
  0
LWPOLYLINE
  5
CF
330
17
100
AcDbEntity
  8
substrate
100
AcDbPolyline
 90
8
 70
1
 43
0.5
 10
4892.34375
 20
-9.84375
 10
4902.1875
 20
-0.0
 10
4912.03125
 20
-0.0
 10
4921.875
 20
-0.0
 10
4931.71875
 20
-9.84375
 10
4921.875
 20
-19.6875
 10
4912.03125
 20
-19.6875
 10
4902.1875
 20
-19.6875
  0
LWPOLYLINE
  5
D0
330
17
100
AcDbEntity
  8
substrate
100
AcDbPolyline
 90
12
 70
1
 43
0.5
 10
4803.75
 20
-9.84375
 10
4813.59375
 20
-0.0
 10
4823.4375
 20
-0.0
 10
4833.28125
 20
-0.0
 10
4843.125
 20
-0.0
 10
4852.96875
 20
-0.0
 10
4862.8125
 20
-9.84375
 10
4852.96875
 20
-19.6875
 10
4843.125
 20
-19.6875
 10
4833.28125
 20
-19.6875
 10
4823.4375
 20
-19.6875
 10
4813.59375
 20
-19.6875
  0
LWPOLYLINE
  5
D1
330
17
100
AcDbEntity
  8
substrate
100
AcDbPolyline
 90
4
 70
1
 43
0.5
 10
4597.03125
 20
-9.84375
 10
4606.875
 20
-0.0
 10
4616.71875
 20
-9.84375
 10
4606.875
 20
-19.6875
  0
LWPOLYLINE
  5
D2
330
17
100
AcDbEntity
  8
substrate
100
AcDbPolyline
 90
4
 70
1
 43
0.5
 10
4154.0625
 20
-9.84375
 10
4163.90625
 20
-0.0
 10
4173.75
 20
-9.84375
 10
4163.90625
 20
-19.6875
  0
LWPOLYLINE
  5
D3
330
17
100
AcDbEntity
  8
substrate
100
AcDbPolyline
 90
14
 70
1
 43
0.5
 10
3947.34375
 20
-9.84375
 10
3957.1875
 20
-0.0
 10
3967.03125
 20
-0.0
 10
3976.875
 20
-0.0
 10
3986.71875
 20
-0.0
 10
3996.5625
 20
-0.0
 10
4006.40625
 20
-0.0
 10
4016.25
 20
-9.84375
 10
4006.40625
 20
-19.6875
 10
3996.5625
 20
-19.6875
 10
3986.71875
 20
-19.6875
 10
3976.875
 20
-19.6875
 10
3967.03125
 20
-19.6875
 10
3957.1875
 20
-19.6875
  0
LWPOLYLINE
  5
D4
330
17
100
AcDbEntity
  8
substrate
100
AcDbPolyline
 90
10
 70
1
 43
0.5
 10
3888.28125
 20
-9.84375
 10
3898.125
 20
-0.0
 10
3907.96875
 20
-0.0
 10
3917.8125
 20
-0.0
 10
3927.65625
 20
-0.0
 10
3937.5
 20
-9.84375
 10
3927.65625
 20
-19.6875
 10
3917.8125
 20
-19.6875
 10
3907.96875
 20
-19.6875
 10
3898.125
 20
-19.6875
  0
LWPOLYLINE
  5
D5
330
17
100
AcDbEntity
  8
substrate
100
AcDbPolyline
 90
4
 70
1
 43
0.5
 10
3868.59375
 20
-9.84375
 10
3878.4375
 20
-0.0
 10
3888.28125
 20
-9.84375
 10
3878.4375
 20
-19.6875
  0
LWPOLYLINE
  5
D6
330
17
100
AcDbEntity
  8
substrate
100
AcDbPolyline
 90
8
 70
1
 43
0.5
 10
3829.21875
 20
-9.84375
 10
3839.0625
 20
-0.0
 10
3848.90625
 20
-0.0
 10
3858.75
 20
-0.0
 10
3868.59375
 20
-9.84375
 10
3858.75
 20
-19.6875
 10
3848.90625
 20
-19.6875
 10
3839.0625
 20
-19.6875
  0
LWPOLYLINE
  5
D7
330
17
100
AcDbEntity
  8
substrate
100
AcDbPolyline
 90
6
 70
1
 43
0.5
 10
3799.6875
 20
-9.84375
 10
3809.53125
 20
-0.0
 10
3819.375
 20
-0.0
 10
3829.21875
 20
-9.84375
 10
3819.375
 20
-19.6875
 10
3809.53125
 20
-19.6875
  0
LWPOLYLINE
  5
D8
330
17
100
AcDbEntity
  8
substrate
100
AcDbPolyline
 90
6
 70
1
 43
0.5
 10
3750.46875
 20
-9.84375
 10
3760.3125
 20
-0.0
 10
3770.15625
 20
-0.0
 10
3780.0
 20
-9.84375
 10
3770.15625
 20
-19.6875
 10
3760.3125
 20
-19.6875
  0
LWPOLYLINE
  5
D9
330
17
100
AcDbEntity
  8
substrate
100
AcDbPolyline
 90
4
 70
1
 43
0.5
 10
3730.78125
 20
-9.84375
 10
3740.625
 20
-0.0
 10
3750.46875
 20
-9.84375
 10
3740.625
 20
-19.6875
  0
LWPOLYLINE
  5
DA
330
17
100
AcDbEntity
  8
substrate
100
AcDbPolyline
 90
16
 70
1
 43
0.5
 10
3652.03125
 20
-9.84375
 10
3661.875
 20
-0.0
 10
3671.71875
 20
-0.0
 10
3681.5625
 20
-0.0
 10
3691.40625
 20
-0.0
 10
3701.25
 20
-0.0
 10
3711.09375
 20
-0.0
 10
3720.9375
 20
-0.0
 10
3730.78125
 20
-9.84375
 10
3720.9375
 20
-19.6875
 10
3711.09375
 20
-19.6875
 10
3701.25
 20
-19.6875
 10
3691.40625
 20
-19.6875
 10
3681.5625
 20
-19.6875
 10
3671.71875
 20
-19.6875
 10
3661.875
 20
-19.6875
  0
LWPOLYLINE
  5
DB
330
17
100
AcDbEntity
  8
substrate
100
AcDbPolyline
 90
12
 70
1
 43
0.5
 10
3583.125
 20
-9.84375
 10
3592.96875
 20
-0.0
 10
3602.8125
 20
-0.0
 10
3612.65625
 20
-0.0
 10
3622.5
 20
-0.0
 10
3632.34375
 20
-0.0
 10
3642.1875
 20
-9.84375
 10
3632.34375
 20
-19.6875
 10
3622.5
 20
-19.6875
 10
3612.65625
 20
-19.6875
 10
3602.8125
 20
-19.6875
 10
3592.96875
 20
-19.6875
  0
LWPOLYLINE
  5
DC
330
17
100
AcDbEntity
  8
substrate
100
AcDbPolyline
 90
8
 70
1
 43
0.5
 10
3514.21875
 20
-9.84375
 10
3524.0625
 20
-0.0
 10
3533.90625
 20
-0.0
 10
3543.75
 20
-0.0
 10
3553.59375
 20
-9.84375
 10
3543.75
 20
-19.6875
 10
3533.90625
 20
-19.6875
 10
3524.0625
 20
-19.6875
  0
LWPOLYLINE
  5
DD
330
17
100
AcDbEntity
  8
substrate
100
AcDbPolyline
 90
6
 70
1
 43
0.5
 10
3484.6875
 20
-9.84375
 10
3494.53125
 20
-0.0
 10
3504.375
 20
-0.0
 10
3514.21875
 20
-9.84375
 10
3504.375
 20
-19.6875
 10
3494.53125
 20
-19.6875
  0
LWPOLYLINE
  5
DE
330
17
100
AcDbEntity
  8
substrate
100
AcDbPolyline
 90
26
 70
1
 43
0.5
 10
3337.03125
 20
-9.84375
 10
3346.875
 20
-0.0
 10
3356.71875
 20
-0.0
 10
3366.5625
 20
-0.0
 10
3376.40625
 20
-0.0
 10
3386.25
 20
-0.0
 10
3396.09375
 20
-0.0
 10
3405.9375
 20
-0.0
 10
3415.78125
 20
-0.0
 10
3425.625
 20
-0.0
 10
3435.46875
 20
-0.0
 10
3445.3125
 20
-0.0
 10
3455.15625
 20
-0.0
 10
3465.0
 20
-9.84375
 10
3455.15625
 20
-19.6875
 10
3445.3125
 20
-19.6875
 10
3435.46875
 20
-19.6875
 10
3425.625
 20
-19.6875
 10
3415.78125
 20
-19.6875
 10
3405.9375
 20
-19.6875
 10
3396.09375
 20
-19.6875
 10
3386.25
 20
-19.6875
 10
3376.40625
 20
-19.6875
 10
3366.5625
 20
-19.6875
 10
3356.71875
 20
-19.6875
 10
3346.875
 20
-19.6875
  0
LWPOLYLINE
  5
DF
330
17
100
AcDbEntity
  8
substrate
100
AcDbPolyline
 90
4
 70
1
 43
0.5
 10
3268.125
 20
-9.84375
 10
3277.96875
 20
-0.0
 10
3287.8125
 20
-9.84375
 10
3277.96875
 20
-19.6875
  0
LWPOLYLINE
  5
E0
330
17
100
AcDbEntity
  8
substrate
100
AcDbPolyline
 90
6
 70
1
 43
0.5
 10
3238.59375
 20
-9.84375
 10
3248.4375
 20
-0.0
 10
3258.28125
 20
-0.0
 10
3268.125
 20
-9.84375
 10
3258.28125
 20
-19.6875
 10
3248.4375
 20
-19.6875
  0
LWPOLYLINE
  5
E1
330
17
100
AcDbEntity
  8
substrate
100
AcDbPolyline
 90
14
 70
1
 43
0.5
 10
3169.6875
 20
-9.84375
 10
3179.53125
 20
-0.0
 10
3189.375
 20
-0.0
 10
3199.21875
 20
-0.0
 10
3209.0625
 20
-0.0
 10
3218.90625
 20
-0.0
 10
3228.75
 20
-0.0
 10
3238.59375
 20
-9.84375
 10
3228.75
 20
-19.6875
 10
3218.90625
 20
-19.6875
 10
3209.0625
 20
-19.6875
 10
3199.21875
 20
-19.6875
 10
3189.375
 20
-19.6875
 10
3179.53125
 20
-19.6875
  0
LWPOLYLINE
  5
E2
330
17
100
AcDbEntity
  8
substrate
100
AcDbPolyline
 90
10
 70
1
 43
0.5
 10
3120.46875
 20
-9.84375
 10
3130.3125
 20
-0.0
 10
3140.15625
 20
-0.0
 10
3150.0
 20
-0.0
 10
3159.84375
 20
-0.0
 10
3169.6875
 20
-9.84375
 10
3159.84375
 20
-19.6875
 10
3150.0
 20
-19.6875
 10
3140.15625
 20
-19.6875
 10
3130.3125
 20
-19.6875
  0
LWPOLYLINE
  5
E3
330
17
100
AcDbEntity
  8
substrate
100
AcDbPolyline
 90
22
 70
1
 43
0.5
 10
3012.1875
 20
-9.84375
 10
3022.03125
 20
-0.0
 10
3031.875
 20
-0.0
 10
3041.71875
 20
-0.0
 10
3051.5625
 20
-0.0
 10
3061.40625
 20
-0.0
 10
3071.25
 20
-0.0
 10
3081.09375
 20
-0.0
 10
3090.9375
 20
-0.0
 10
3100.78125
 20
-0.0
 10
3110.625
 20
-0.0
 10
3120.46875
 20
-9.84375
 10
3110.625
 20
-19.6875
 10
3100.78125
 20
-19.6875
 10
3090.9375
 20
-19.6875
 10
3081.09375
 20
-19.6875
 10
3071.25
 20
-19.6875
 10
3061.40625
 20
-19.6875
 10
3051.5625
 20
-19.6875
 10
3041.71875
 20
-19.6875
 10
3031.875
 20
-19.6875
 10
3022.03125
 20
-19.6875
  0
LWPOLYLINE
  5
E4
330
17
100
AcDbEntity
  8
substrate
100
AcDbPolyline
 90
90
 70
1
 43
0.5
 10
2539.6875
 20
-9.84375
 10
2549.53125
 20
-0.0
 10
2559.375
 20
-0.0
 10
2569.21875
 20
-0.0
 10
2579.0625
 20
-0.0
 10
2588.90625
 20
-0.0
 10
2598.75
 20
-0.0
 10
2608.59375
 20
-0.0
 10
2618.4375
 20
-0.0
 10
2628.28125
 20
-0.0
 10
2638.125
 20
-0.0
 10
2647.96875
 20
-0.0
 10
2657.8125
 20
-0.0
 10
2667.65625
 20
-0.0
 10
2677.5
 20
-0.0
 10
2687.34375
 20
-0.0
 10
2697.1875
 20
-0.0
 10
2707.03125
 20
-0.0
 10
2716.875
 20
-0.0
 10
2726.71875
 20
-0.0
 10
2736.5625
 20
-0.0
 10
2746.40625
 20
-0.0
 10
2756.25
 20
-0.0
 10
2766.09375
 20
-0.0
 10
2775.9375
 20
-0.0
 10
2785.78125
 20
-0.0
 10
2795.625
 20
-0.0
 10
2805.46875
 20
-0.0
 10
2815.3125
 20
-0.0
 10
2825.15625
 20
-0.0
 10
2835.0
 20
-0.0
 10
2844.84375
 20
-0.0
 10
2854.6875
 20
-0.0
 10
2864.53125
 20
-0.0
 10
2874.375
 20
-0.0
 10
2884.21875
 20
-0.0
 10
2894.0625
 20
-0.0
 10
2903.90625
 20
-0.0
 10
2913.75
 20
-0.0
 10
2923.59375
 20
-0.0
 10
2933.4375
 20
-0.0
 10
2943.28125
 20
-0.0
 10
2953.125
 20
-0.0
 10
2962.96875
 20
-0.0
 10
2972.8125
 20
-0.0
 10
2982.65625
 20
-9.84375
 10
2972.8125
 20
-19.6875
 10
2962.96875
 20
-19.6875
 10
2953.125
 20
-19.6875
 10
2943.28125
 20
-19.6875
 10
2933.4375
 20
-19.6875
 10
2923.59375
 20
-19.6875
 10
2913.75
 20
-19.6875
 10
2903.90625
 20
-19.6875
 10
2894.0625
 20
-19.6875
 10
2884.21875
 20
-19.6875
 10
2874.375
 20
-19.6875
 10
2864.53125
 20
-19.6875
 10
2854.6875
 20
-19.6875
 10
2844.84375
 20
-19.6875
 10
2835.0
 20
-19.6875
 10
2825.15625
 20
-19.6875
 10
2815.3125
 20
-19.6875
 10
2805.46875
 20
-19.6875
 10
2795.625
 20
-19.6875
 10
2785.78125
 20
-19.6875
 10
2775.9375
 20
-19.6875
 10
2766.09375
 20
-19.6875
 10
2756.25
 20
-19.6875
 10
2746.40625
 20
-19.6875
 10
2736.5625
 20
-19.6875
 10
2726.71875
 20
-19.6875
 10
2716.875
 20
-19.6875
 10
2707.03125
 20
-19.6875
 10
2697.1875
 20
-19.6875
 10
2687.34375
 20
-19.6875
 10
2677.5
 20
-19.6875
 10
2667.65625
 20
-19.6875
 10
2657.8125
 20
-19.6875
 10
2647.96875
 20
-19.6875
 10
2638.125
 20
-19.6875
 10
2628.28125
 20
-19.6875
 10
2618.4375
 20
-19.6875
 10
2608.59375
 20
-19.6875
 10
2598.75
 20
-19.6875
 10
2588.90625
 20
-19.6875
 10
2579.0625
 20
-19.6875
 10
2569.21875
 20
-19.6875
 10
2559.375
 20
-19.6875
 10
2549.53125
 20
-19.6875
  0
LWPOLYLINE
  5
E5
330
17
100
AcDbEntity
  8
substrate
100
AcDbPolyline
 90
16
 70
1
 43
0.5
 10
2460.9375
 20
-9.84375
 10
2470.78125
 20
-0.0
 10
2480.625
 20
-0.0
 10
2490.46875
 20
-0.0
 10
2500.3125
 20
-0.0
 10
2510.15625
 20
-0.0
 10
2520.0
 20
-0.0
 10
2529.84375
 20
-0.0
 10
2539.6875
 20
-9.84375
 10
2529.84375
 20
-19.6875
 10
2520.0
 20
-19.6875
 10
2510.15625
 20
-19.6875
 10
2500.3125
 20
-19.6875
 10
2490.46875
 20
-19.6875
 10
2480.625
 20
-19.6875
 10
2470.78125
 20
-19.6875
  0
LWPOLYLINE
  5
E6
330
17
100
AcDbEntity
  8
substrate
100
AcDbPolyline
 90
16
 70
1
 43
0.5
 10
2382.1875
 20
-9.84375
 10
2392.03125
 20
-0.0
 10
2401.875
 20
-0.0
 10
2411.71875
 20
-0.0
 10
2421.5625
 20
-0.0
 10
2431.40625
 20
-0.0
 10
2441.25
 20
-0.0
 10
2451.09375
 20
-0.0
 10
2460.9375
 20
-9.84375
 10
2451.09375
 20
-19.6875
 10
2441.25
 20
-19.6875
 10
2431.40625
 20
-19.6875
 10
2421.5625
 20
-19.6875
 10
2411.71875
 20
-19.6875
 10
2401.875
 20
-19.6875
 10
2392.03125
 20
-19.6875
  0
LWPOLYLINE
  5
E7
330
17
100
AcDbEntity
  8
substrate
100
AcDbPolyline
 90
30
 70
1
 43
0.5
 10
2214.84375
 20
-9.84375
 10
2224.6875
 20
-0.0
 10
2234.53125
 20
-0.0
 10
2244.375
 20
-0.0
 10
2254.21875
 20
-0.0
 10
2264.0625
 20
-0.0
 10
2273.90625
 20
-0.0
 10
2283.75
 20
-0.0
 10
2293.59375
 20
-0.0
 10
2303.4375
 20
-0.0
 10
2313.28125
 20
-0.0
 10
2323.125
 20
-0.0
 10
2332.96875
 20
-0.0
 10
2342.8125
 20
-0.0
 10
2352.65625
 20
-0.0
 10
2362.5
 20
-9.84375
 10
2352.65625
 20
-19.6875
 10
2342.8125
 20
-19.6875
 10
2332.96875
 20
-19.6875
 10
2323.125
 20
-19.6875
 10
2313.28125
 20
-19.6875
 10
2303.4375
 20
-19.6875
 10
2293.59375
 20
-19.6875
 10
2283.75
 20
-19.6875
 10
2273.90625
 20
-19.6875
 10
2264.0625
 20
-19.6875
 10
2254.21875
 20
-19.6875
 10
2244.375
 20
-19.6875
 10
2234.53125
 20
-19.6875
 10
2224.6875
 20
-19.6875
  0
LWPOLYLINE
  5
E8
330
17
100
AcDbEntity
  8
substrate
100
AcDbPolyline
 90
16
 70
1
 43
0.5
 10
2136.09375
 20
-9.84375
 10
2145.9375
 20
-0.0
 10
2155.78125
 20
-0.0
 10
2165.625
 20
-0.0
 10
2175.46875
 20
-0.0
 10
2185.3125
 20
-0.0
 10
2195.15625
 20
-0.0
 10
2205.0
 20
-0.0
 10
2214.84375
 20
-9.84375
 10
2205.0
 20
-19.6875
 10
2195.15625
 20
-19.6875
 10
2185.3125
 20
-19.6875
 10
2175.46875
 20
-19.6875
 10
2165.625
 20
-19.6875
 10
2155.78125
 20
-19.6875
 10
2145.9375
 20
-19.6875
  0
LWPOLYLINE
  5
E9
330
17
100
AcDbEntity
  8
substrate
100
AcDbPolyline
 90
16
 70
1
 43
0.5
 10
2057.34375
 20
-9.84375
 10
2067.1875
 20
-0.0
 10
2077.03125
 20
-0.0
 10
2086.875
 20
-0.0
 10
2096.71875
 20
-0.0
 10
2106.5625
 20
-0.0
 10
2116.40625
 20
-0.0
 10
2126.25
 20
-0.0
 10
2136.09375
 20
-9.84375
 10
2126.25
 20
-19.6875
 10
2116.40625
 20
-19.6875
 10
2106.5625
 20
-19.6875
 10
2096.71875
 20
-19.6875
 10
2086.875
 20
-19.6875
 10
2077.03125
 20
-19.6875
 10
2067.1875
 20
-19.6875
  0
LWPOLYLINE
  5
EA
330
17
100
AcDbEntity
  8
substrate
100
AcDbPolyline
 90
8
 70
1
 43
0.5
 10
2017.96875
 20
-9.84375
 10
2027.8125
 20
-0.0
 10
2037.65625
 20
-0.0
 10
2047.5
 20
-0.0
 10
2057.34375
 20
-9.84375
 10
2047.5
 20
-19.6875
 10
2037.65625
 20
-19.6875
 10
2027.8125
 20
-19.6875
  0
LWPOLYLINE
  5
EB
330
17
100
AcDbEntity
  8
substrate
100
AcDbPolyline
 90
14
 70
1
 43
0.5
 10
1899.84375
 20
-9.84375
 10
1909.6875
 20
-0.0
 10
1919.53125
 20
-0.0
 10
1929.375
 20
-0.0
 10
1939.21875
 20
-0.0
 10
1949.0625
 20
-0.0
 10
1958.90625
 20
-0.0
 10
1968.75
 20
-9.84375
 10
1958.90625
 20
-19.6875
 10
1949.0625
 20
-19.6875
 10
1939.21875
 20
-19.6875
 10
1929.375
 20
-19.6875
 10
1919.53125
 20
-19.6875
 10
1909.6875
 20
-19.6875
  0
LWPOLYLINE
  5
EC
330
17
100
AcDbEntity
  8
substrate
100
AcDbPolyline
 90
8
 70
1
 43
0.5
 10
1860.46875
 20
-9.84375
 10
1870.3125
 20
-0.0
 10
1880.15625
 20
-0.0
 10
1890.0
 20
-0.0
 10
1899.84375
 20
-9.84375
 10
1890.0
 20
-19.6875
 10
1880.15625
 20
-19.6875
 10
1870.3125
 20
-19.6875
  0
LWPOLYLINE
  5
ED
330
17
100
AcDbEntity
  8
substrate
100
AcDbPolyline
 90
4
 70
1
 43
0.5
 10
1830.9375
 20
-9.84375
 10
1840.78125
 20
-0.0
 10
1850.625
 20
-9.84375
 10
1840.78125
 20
-19.6875
  0
LWPOLYLINE
  5
EE
330
17
100
AcDbEntity
  8
substrate
100
AcDbPolyline
 90
6
 70
1
 43
0.5
 10
1762.03125
 20
-9.84375
 10
1771.875
 20
-0.0
 10
1781.71875
 20
-0.0
 10
1791.5625
 20
-9.84375
 10
1781.71875
 20
-19.6875
 10
1771.875
 20
-19.6875
  0
LWPOLYLINE
  5
EF
330
17
100
AcDbEntity
  8
substrate
100
AcDbPolyline
 90
12
 70
1
 43
0.5
 10
1673.4375
 20
-9.84375
 10
1683.28125
 20
-0.0
 10
1693.125
 20
-0.0
 10
1702.96875
 20
-0.0
 10
1712.8125
 20
-0.0
 10
1722.65625
 20
-0.0
 10
1732.5
 20
-9.84375
 10
1722.65625
 20
-19.6875
 10
1712.8125
 20
-19.6875
 10
1702.96875
 20
-19.6875
 10
1693.125
 20
-19.6875
 10
1683.28125
 20
-19.6875
  0
LWPOLYLINE
  5
F0
330
17
100
AcDbEntity
  8
substrate
100
AcDbPolyline
 90
12
 70
1
 43
0.5
 10
1604.53125
 20
-9.84375
 10
1614.375
 20
-0.0
 10
1624.21875
 20
-0.0
 10
1634.0625
 20
-0.0
 10
1643.90625
 20
-0.0
 10
1653.75
 20
-0.0
 10
1663.59375
 20
-9.84375
 10
1653.75
 20
-19.6875
 10
1643.90625
 20
-19.6875
 10
1634.0625
 20
-19.6875
 10
1624.21875
 20
-19.6875
 10
1614.375
 20
-19.6875
  0
LWPOLYLINE
  5
F1
330
17
100
AcDbEntity
  8
substrate
100
AcDbPolyline
 90
8
 70
1
 43
0.5
 10
1535.625
 20
-9.84375
 10
1545.46875
 20
-0.0
 10
1555.3125
 20
-0.0
 10
1565.15625
 20
-0.0
 10
1575.0
 20
-9.84375
 10
1565.15625
 20
-19.6875
 10
1555.3125
 20
-19.6875
 10
1545.46875
 20
-19.6875
  0
LWPOLYLINE
  5
F2
330
17
100
AcDbEntity
  8
substrate
100
AcDbPolyline
 90
48
 70
1
 43
0.5
 10
1260.0
 20
-9.84375
 10
1269.84375
 20
-0.0
 10
1279.6875
 20
-0.0
 10
1289.53125
 20
-0.0
 10
1299.375
 20
-0.0
 10
1309.21875
 20
-0.0
 10
1319.0625
 20
-0.0
 10
1328.90625
 20
-0.0
 10
1338.75
 20
-0.0
 10
1348.59375
 20
-0.0
 10
1358.4375
 20
-0.0
 10
1368.28125
 20
-0.0
 10
1378.125
 20
-0.0
 10
1387.96875
 20
-0.0
 10
1397.8125
 20
-0.0
 10
1407.65625
 20
-0.0
 10
1417.5
 20
-0.0
 10
1427.34375
 20
-0.0
 10
1437.1875
 20
-0.0
 10
1447.03125
 20
-0.0
 10
1456.875
 20
-0.0
 10
1466.71875
 20
-0.0
 10
1476.5625
 20
-0.0
 10
1486.40625
 20
-0.0
 10
1496.25
 20
-9.84375
 10
1486.40625
 20
-19.6875
 10
1476.5625
 20
-19.6875
 10
1466.71875
 20
-19.6875
 10
1456.875
 20
-19.6875
 10
1447.03125
 20
-19.6875
 10
1437.1875
 20
-19.6875
 10
1427.34375
 20
-19.6875
 10
1417.5
 20
-19.6875
 10
1407.65625
 20
-19.6875
 10
1397.8125
 20
-19.6875
 10
1387.96875
 20
-19.6875
 10
1378.125
 20
-19.6875
 10
1368.28125
 20
-19.6875
 10
1358.4375
 20
-19.6875
 10
1348.59375
 20
-19.6875
 10
1338.75
 20
-19.6875
 10
1328.90625
 20
-19.6875
 10
1319.0625
 20
-19.6875
 10
1309.21875
 20
-19.6875
 10
1299.375
 20
-19.6875
 10
1289.53125
 20
-19.6875
 10
1279.6875
 20
-19.6875
 10
1269.84375
 20
-19.6875
  0
LWPOLYLINE
  5
F3
330
17
100
AcDbEntity
  8
substrate
100
AcDbPolyline
 90
126
 70
1
 43
0.5
 10
639.84375
 20
-9.84375
 10
649.6875
 20
-0.0
 10
659.53125
 20
-0.0
 10
669.375
 20
-0.0
 10
679.21875
 20
-0.0
 10
689.0625
 20
-0.0
 10
698.90625
 20
-0.0
 10
708.75
 20
-0.0
 10
718.59375
 20
-0.0
 10
728.4375
 20
-0.0
 10
738.28125
 20
-0.0
 10
748.125
 20
-0.0
 10
757.96875
 20
-0.0
 10
767.8125
 20
-0.0
 10
777.65625
 20
-0.0
 10
787.5
 20
-0.0
 10
797.34375
 20
-0.0
 10
807.1875
 20
-0.0
 10
817.03125
 20
-0.0
 10
826.875
 20
-0.0
 10
836.71875
 20
-0.0
 10
846.5625
 20
-0.0
 10
856.40625
 20
-0.0
 10
866.25
 20
-0.0
 10
876.09375
 20
-0.0
 10
885.9375
 20
-0.0
 10
895.78125
 20
-0.0
 10
905.625
 20
-0.0
 10
915.46875
 20
-0.0
 10
925.3125
 20
-0.0
 10
935.15625
 20
-0.0
 10
945.0
 20
-0.0
 10
954.84375
 20
-0.0
 10
964.6875
 20
-0.0
 10
974.53125
 20
-0.0
 10
984.375
 20
-0.0
 10
994.21875
 20
-0.0
 10
1004.0625
 20
-0.0
 10
1013.90625
 20
-0.0
 10
1023.75
 20
-0.0
 10
1033.59375
 20
-0.0
 10
1043.4375
 20
-0.0
 10
1053.28125
 20
-0.0
 10
1063.125
 20
-0.0
 10
1072.96875
 20
-0.0
 10
1082.8125
 20
-0.0
 10
1092.65625
 20
-0.0
 10
1102.5
 20
-0.0
 10
1112.34375
 20
-0.0
 10
1122.1875
 20
-0.0
 10
1132.03125
 20
-0.0
 10
1141.875
 20
-0.0
 10
1151.71875
 20
-0.0
 10
1161.5625
 20
-0.0
 10
1171.40625
 20
-0.0
 10
1181.25
 20
-0.0
 10
1191.09375
 20
-0.0
 10
1200.9375
 20
-0.0
 10
1210.78125
 20
-0.0
 10
1220.625
 20
-0.0
 10
1230.46875
 20
-0.0
 10
1240.3125
 20
-0.0
 10
1250.15625
 20
-0.0
 10
1260.0
 20
-9.84375
 10
1250.15625
 20
-19.6875
 10
1240.3125
 20
-19.6875
 10
1230.46875
 20
-19.6875
 10
1220.625
 20
-19.6875
 10
1210.78125
 20
-19.6875
 10
1200.9375
 20
-19.6875
 10
1191.09375
 20
-19.6875
 10
1181.25
 20
-19.6875
 10
1171.40625
 20
-19.6875
 10
1161.5625
 20
-19.6875
 10
1151.71875
 20
-19.6875
 10
1141.875
 20
-19.6875
 10
1132.03125
 20
-19.6875
 10
1122.1875
 20
-19.6875
 10
1112.34375
 20
-19.6875
 10
1102.5
 20
-19.6875
 10
1092.65625
 20
-19.6875
 10
1082.8125
 20
-19.6875
 10
1072.96875
 20
-19.6875
 10
1063.125
 20
-19.6875
 10
1053.28125
 20
-19.6875
 10
1043.4375
 20
-19.6875
 10
1033.59375
 20
-19.6875
 10
1023.75
 20
-19.6875
 10
1013.90625
 20
-19.6875
 10
1004.0625
 20
-19.6875
 10
994.21875
 20
-19.6875
 10
984.375
 20
-19.6875
 10
974.53125
 20
-19.6875
 10
964.6875
 20
-19.6875
 10
954.84375
 20
-19.6875
 10
945.0
 20
-19.6875
 10
935.15625
 20
-19.6875
 10
925.3125
 20
-19.6875
 10
915.46875
 20
-19.6875
 10
905.625
 20
-19.6875
 10
895.78125
 20
-19.6875
 10
885.9375
 20
-19.6875
 10
876.09375
 20
-19.6875
 10
866.25
 20
-19.6875
 10
856.40625
 20
-19.6875
 10
846.5625
 20
-19.6875
 10
836.71875
 20
-19.6875
 10
826.875
 20
-19.6875
 10
817.03125
 20
-19.6875
 10
807.1875
 20
-19.6875
 10
797.34375
 20
-19.6875
 10
787.5
 20
-19.6875
 10
777.65625
 20
-19.6875
 10
767.8125
 20
-19.6875
 10
757.96875
 20
-19.6875
 10
748.125
 20
-19.6875
 10
738.28125
 20
-19.6875
 10
728.4375
 20
-19.6875
 10
718.59375
 20
-19.6875
 10
708.75
 20
-19.6875
 10
698.90625
 20
-19.6875
 10
689.0625
 20
-19.6875
 10
679.21875
 20
-19.6875
 10
669.375
 20
-19.6875
 10
659.53125
 20
-19.6875
 10
649.6875
 20
-19.6875
  0
LWPOLYLINE
  5
F4
330
17
100
AcDbEntity
  8
substrate
100
AcDbPolyline
 90
32
 70
1
 43
0.5
 10
482.34375
 20
-9.84375
 10
492.1875
 20
-0.0
 10
502.03125
 20
-0.0
 10
511.875
 20
-0.0
 10
521.71875
 20
-0.0
 10
531.5625
 20
-0.0
 10
541.40625
 20
-0.0
 10
551.25
 20
-0.0
 10
561.09375
 20
-0.0
 10
570.9375
 20
-0.0
 10
580.78125
 20
-0.0
 10
590.625
 20
-0.0
 10
600.46875
 20
-0.0
 10
610.3125
 20
-0.0
 10
620.15625
 20
-0.0
 10
630.0
 20
-0.0
 10
639.84375
 20
-9.84375
 10
630.0
 20
-19.6875
 10
620.15625
 20
-19.6875
 10
610.3125
 20
-19.6875
 10
600.46875
 20
-19.6875
 10
590.625
 20
-19.6875
 10
580.78125
 20
-19.6875
 10
570.9375
 20
-19.6875
 10
561.09375
 20
-19.6875
 10
551.25
 20
-19.6875
 10
541.40625
 20
-19.6875
 10
531.5625
 20
-19.6875
 10
521.71875
 20
-19.6875
 10
511.875
 20
-19.6875
 10
502.03125
 20
-19.6875
 10
492.1875
 20
-19.6875
  0
LWPOLYLINE
  5
F5
330
17
100
AcDbEntity
  8
substrate
100
AcDbPolyline
 90
40
 70
1
 43
0.5
 10
285.46875
 20
-9.84375
 10
295.3125
 20
-0.0
 10
305.15625
 20
-0.0
 10
315.0
 20
-0.0
 10
324.84375
 20
-0.0
 10
334.6875
 20
-0.0
 10
344.53125
 20
-0.0
 10
354.375
 20
-0.0
 10
364.21875
 20
-0.0
 10
374.0625
 20
-0.0
 10
383.90625
 20
-0.0
 10
393.75
 20
-0.0
 10
403.59375
 20
-0.0
 10
413.4375
 20
-0.0
 10
423.28125
 20
-0.0
 10
433.125
 20
-0.0
 10
442.96875
 20
-0.0
 10
452.8125
 20
-0.0
 10
462.65625
 20
-0.0
 10
472.5
 20
-0.0
 10
482.34375
 20
-9.84375
 10
472.5
 20
-19.6875
 10
462.65625
 20
-19.6875
 10
452.8125
 20
-19.6875
 10
442.96875
 20
-19.6875
 10
433.125
 20
-19.6875
 10
423.28125
 20
-19.6875
 10
413.4375
 20
-19.6875
 10
403.59375
 20
-19.6875
 10
393.75
 20
-19.6875
 10
383.90625
 20
-19.6875
 10
374.0625
 20
-19.6875
 10
364.21875
 20
-19.6875
 10
354.375
 20
-19.6875
 10
344.53125
 20
-19.6875
 10
334.6875
 20
-19.6875
 10
324.84375
 20
-19.6875
 10
315.0
 20
-19.6875
 10
305.15625
 20
-19.6875
 10
295.3125
 20
-19.6875
  0
LWPOLYLINE
  5
F6
330
17
100
AcDbEntity
  8
substrate
100
AcDbPolyline
 90
20
 70
1
 43
0.5
 10
187.03125
 20
-9.84375
 10
196.875
 20
-0.0
 10
206.71875
 20
-0.0
 10
216.5625
 20
-0.0
 10
226.40625
 20
-0.0
 10
236.25
 20
-0.0
 10
246.09375
 20
-0.0
 10
255.9375
 20
-0.0
 10
265.78125
 20
-0.0
 10
275.625
 20
-0.0
 10
285.46875
 20
-9.84375
 10
275.625
 20
-19.6875
 10
265.78125
 20
-19.6875
 10
255.9375
 20
-19.6875
 10
246.09375
 20
-19.6875
 10
236.25
 20
-19.6875
 10
226.40625
 20
-19.6875
 10
216.5625
 20
-19.6875
 10
206.71875
 20
-19.6875
 10
196.875
 20
-19.6875
  0
LWPOLYLINE
  5
F7
330
17
100
AcDbEntity
  8
substrate
100
AcDbPolyline
 90
4
 70
1
 43
0.5
 10
167.34375
 20
-9.84375
 10
177.1875
 20
-0.0
 10
187.03125
 20
-9.84375
 10
177.1875
 20
-19.6875
  0
LWPOLYLINE
  5
F8
330
17
100
AcDbEntity
  8
substrate
100
AcDbPolyline
 90
8
 70
1
 43
0.5
 10
127.96875
 20
-9.84375
 10
137.8125
 20
-0.0
 10
147.65625
 20
-0.0
 10
157.5
 20
-0.0
 10
167.34375
 20
-9.84375
 10
157.5
 20
-19.6875
 10
147.65625
 20
-19.6875
 10
137.8125
 20
-19.6875
  0
LWPOLYLINE
  5
F9
330
17
100
AcDbEntity
  8
substrate
100
AcDbPolyline
 90
35
 70
1
 43
0.5
 10
0.0
 20
-9.84375
 10
9.84375
 20
-0.0
 10
19.6875
 20
-0.0
 10
29.53125
 20
-0.0
 10
39.375
 20
-0.0
 10
49.21875
 20
-0.0
 10
59.0625
 20
-0.0
 10
68.90625
 20
-0.0
 10
78.75
 20
-0.0
 10
88.59375
 20
-0.0
 10
98.4375
 20
-0.0
 10
108.28125
 20
-0.0
 10
118.125
 20
-0.0
 10
127.96875
 20
-9.84375
 10
118.125
 20
-19.6875
 10
108.28125
 20
-19.6875
 10
98.4375
 20
-19.6875
 10
88.59375
 20
-19.6875
 10
78.75
 20
-19.6875
 10
68.90625
 20
-19.6875
 10
59.0625
 20
-19.6875
 10
49.21875
 20
-19.6875
 10
39.375
 20
-19.6875
 10
29.53125
 20
-19.6875
 10
19.6875
 20
-19.6875
 10
19.6875
 20
-29.53125
 10
19.6875
 20
-39.375
 10
19.6875
 20
-49.21875
 10
19.6875
 20
-59.0625
 10
9.84375
 20
-68.90625
 10
0.0
 20
-59.0625
 10
0.0
 20
-49.21875
 10
0.0
 20
-39.375
 10
0.0
 20
-29.53125
 10
0.0
 20
-19.6875
  0
ENDSEC
  0
SECTION
  2
OBJECTS
  0
DICTIONARY
  5
A
330
0
100
AcDbDictionary
280
0
281
1
  3
ACAD_COLOR
350
B
  3
ACAD_GROUP
350
C
  3
ACAD_LAYOUT
350
D
  3
ACAD_MATERIAL
350
E
  3
ACAD_MLEADERSTYLE
350
F
  3
ACAD_MLINESTYLE
350
10
  3
ACAD_PLOTSETTINGS
350
11
  3
ACAD_PLOTSTYLENAME
350
12
  3
ACAD_SCALELIST
350
14
  3
ACAD_TABLESTYLE
350
15
  3
ACAD_VISUALSTYLE
350
16
  3
EZDXF_META
350
2D
  0
DICTIONARY
  5
B
330
A
100
AcDbDictionary
280
0
281
1
  0
DICTIONARY
  5
C
330
A
100
AcDbDictionary
280
0
281
1
  0
DICTIONARY
  5
D
330
A
100
AcDbDictionary
280
0
281
1
  3
Model
350
1A
  3
Layout1
350
1E
  0
DICTIONARY
  5
E
330
A
100
AcDbDictionary
280
0
281
1
  3
ByBlock
350
1F
  3
ByLayer
350
20
  3
Global
350
21
  0
DICTIONARY
  5
F
330
A
100
AcDbDictionary
280
0
281
1
  3
Standard
350
2C
  0
DICTIONARY
  5
10
330
A
100
AcDbDictionary
280
0
281
1
  3
Standard
350
22
  0
DICTIONARY
  5
11
330
A
100
AcDbDictionary
280
0
281
1
  0
ACDBDICTIONARYWDFLT
  5
12
330
A
100
AcDbDictionary
280
0
281
1
  3
Normal
350
13
100
AcDbDictionaryWithDefault
340
13
  0
ACDBPLACEHOLDER
  5
13
330
12
  0
DICTIONARY
  5
14
330
A
100
AcDbDictionary
280
0
281
1
  0
DICTIONARY
  5
15
330
A
100
AcDbDictionary
280
0
281
1
  0
DICTIONARY
  5
16
330
A
100
AcDbDictionary
280
0
281
1
  0
LAYOUT
  5
1A
330
D
100
AcDbPlotSettings
  1

  2
Adobe PDF
  4
A3
  6

 40
7.5
 41
20.0
 42
7.5
 43
20.0
 44
420.0
 45
297.0
 46
0.0
 47
0.0
 48
0.0
 49
0.0
140
0.0
141
0.0
142
1.0
143
1.0
 70
1024
 72
1
 73
0
 74
5
  7

 75
16
 76
0
 77
2
 78
300
147
1.0
148
0.0
149
0.0
100
AcDbLayout
  1
Model
 70
1
 71
0
 10
0.0
 20
0.0
 11
420.0
 21
297.0
 12
0.0
 22
0.0
 32
0.0
 14
1e+20
 24
1e+20
 34
1e+20
 15
-1e+20
 25
-1e+20
 35
-1e+20
146
0.0
 13
0.0
 23
0.0
 33
0.0
 16
1.0
 26
0.0
 36
0.0
 17
0.0
 27
1.0
 37
0.0
 76
1
330
17
  0
LAYOUT
  5
1E
330
D
100
AcDbPlotSettings
  1

  2
Adobe PDF
  4
A3
  6

 40
7.5
 41
20.0
 42
7.5
 43
20.0
 44
420.0
 45
297.0
 46
0.0
 47
0.0
 48
0.0
 49
0.0
140
0.0
141
0.0
142
1.0
143
1.0
 70
0
 72
1
 73
0
 74
5
  7

 75
16
 76
0
 77
2
 78
300
147
1.0
148
0.0
149
0.0
100
AcDbLayout
  1
Layout1
 70
1
 71
1
 10
0.0
 20
0.0
 11
420.0
 21
297.0
 12
0.0
 22
0.0
 32
0.0
 14
1e+20
 24
1e+20
 34
1e+20
 15
-1e+20
 25
-1e+20
 35
-1e+20
146
0.0
 13
0.0
 23
0.0
 33
0.0
 16
1.0
 26
0.0
 36
0.0
 17
0.0
 27
1.0
 37
0.0
 76
1
330
1B
  0
MATERIAL
  5
1F
102
{ACAD_REACTORS
330
E
102
}
330
E
100
AcDbMaterial
  1
ByBlock
  2

 70
0
 40
1.0
 71
1
 41
1.0
 91
-1023410177
 42
1.0
 72
1
  3

 73
1
 74
1
 75
1
 44
0.5
 73
0
 45
1.0
 46
1.0
 77
1
  4

 78
1
 79
1
170
1
 48
1.0
171
1
  6

172
1
173
1
174
1
140
1.0
141
1.0
175
1
  7

176
1
177
1
178
1
143
1.0
179
1
  8

270
1
271
1
272
1
145
1.0
146
1.0
273
1
  9

274
1
275
1
276
1
 42
1.0
 72
1
  3

 73
1
 74
1
 75
1
 94
63
  0
MATERIAL
  5
20
102
{ACAD_REACTORS
330
E
102
}
330
E
100
AcDbMaterial
  1
ByLayer
  2

 70
0
 40
1.0
 71
1
 41
1.0
 91
-1023410177
 42
1.0
 72
1
  3

 73
1
 74
1
 75
1
 44
0.5
 73
0
 45
1.0
 46
1.0
 77
1
  4

 78
1
 79
1
170
1
 48
1.0
171
1
  6

172
1
173
1
174
1
140
1.0
141
1.0
175
1
  7

176
1
177
1
178
1
143
1.0
179
1
  8

270
1
271
1
272
1
145
1.0
146
1.0
273
1
  9

274
1
275
1
276
1
 42
1.0
 72
1
  3

 73
1
 74
1
 75
1
 94
63
  0
MATERIAL
  5
21
102
{ACAD_REACTORS
330
E
102
}
330
E
100
AcDbMaterial
  1
Global
  2

 70
0
 40
1.0
 71
1
 41
1.0
 91
-1023410177
 42
1.0
 72
1
  3

 73
1
 74
1
 75
1
 44
0.5
 73
0
 45
1.0
 46
1.0
 77
1
  4

 78
1
 79
1
170
1
 48
1.0
171
1
  6

172
1
173
1
174
1
140
1.0
141
1.0
175
1
  7

176
1
177
1
178
1
143
1.0
179
1
  8

270
1
271
1
272
1
145
1.0
146
1.0
273
1
  9

274
1
275
1
276
1
 42
1.0
 72
1
  3

 73
1
 74
1
 75
1
 94
63
  0
MLINESTYLE
  5
22
102
{ACAD_REACTORS
330
10
102
}
330
10
100
AcDbMlineStyle
  2
Standard
 70
0
  3

 62
256
 51
90.0
 52
90.0
 71
2
 49
0.5
 62
256
  6
BYLAYER
 49
-0.5
 62
256
  6
BYLAYER
  0
MLEADERSTYLE
  5
2C
102
{ACAD_REACTORS
330
F
102
}
330
F
100
AcDbMLeaderStyle
179
2
170
2
171
1
172
0
 90
2
 40
0.0
 41
0.0
173
1
 91
-1056964608
 92
-2
290
1
 42
2.0
291
1
 43
8.0
  3
Standard
 44
4.0
300

342
29
174
1
175
1
176
0
178
1
 93
-1056964608
 45
4.0
292
0
297
0
 46
4.0
 94
-1056964608
 47
1.0
 49
1.0
140
1.0
294
1
141
0.0
177
0
142
1.0
295
0
296
0
143
3.75
271
0
272
9
273
9
  0
DICTIONARY
  5
2D
330
A
100
AcDbDictionary
281
1
  3
CREATED_BY_EZDXF
350
2E
  3
WRITTEN_BY_EZDXF
350
FC
  0
DICTIONARYVAR
  5
2E
330
2D
100
DictionaryVariables
280
0
  1
1.1.0 @ 2025-03-02T18:53:15.325800+00:00
  0
DICTIONARYVAR
  5
FC
330
2D
100
DictionaryVariables
280
0
  1
1.1.0 @ 2025-03-02T18:53:15.339619+00:00
  0
ENDSEC
  0
EOF
