  0
SECTION
  2
HEADER
  9
$ACADVER
  1
AC1027
  9
$ACADMAINTVER
 70
105
  9
$DWGCODEPAGE
  3
ANSI_1252
  9
$LASTSAVEDBY
  1
ezdxf
  9
$REQUIREDVERSIONS
160
0
  9
$INSBASE
 10
0.0
 20
0.0
 30
0.0
  9
$EXTMIN
 10
1e+20
 20
1e+20
 30
1e+20
  9
$EXTMAX
 10
-1e+20
 20
-1e+20
 30
-1e+20
  9
$LIMMIN
 10
0.0
 20
0.0
  9
$LIMMAX
 10
420.0
 20
297.0
  9
$ORTHOMODE
 70
0
  9
$REGENMODE
 70
1
  9
$FILLMODE
 70
1
  9
$QTEXTMODE
 70
0
  9
$MIRRTEXT
 70
1
  9
$LTSCALE
 40
1.0
  9
$ATTMODE
 70
1
  9
$TEXTSIZE
 40
2.5
  9
$TRACEWID
 40
1.0
  9
$TEXTSTYLE
  7
Standard
  9
$CLAYER
  8
0
  9
$CELTYPE
  6
ByLayer
  9
$CECOLOR
 62
256
  9
$CELTSCALE
 40
1.0
  9
$DISPSILH
 70
0
  9
$DIMSCALE
 40
1.0
  9
$DIMASZ
 40
2.5
  9
$DIMEXO
 40
0.625
  9
$DIMDLI
 40
3.75
  9
$DIMRND
 40
0.0
  9
$DIMDLE
 40
0.0
  9
$DIMEXE
 40
1.25
  9
$DIMTP
 40
0.0
  9
$DIMTM
 40
0.0
  9
$DIMTXT
 40
2.5
  9
$DIMCEN
 40
2.5
  9
$DIMTSZ
 40
0.0
  9
$DIMTOL
 70
0
  9
$DIMLIM
 70
0
  9
$DIMTIH
 70
0
  9
$DIMTOH
 70
0
  9
$DIMSE1
 70
0
  9
$DIMSE2
 70
0
  9
$DIMTAD
 70
1
  9
$DIMZIN
 70
8
  9
$DIMBLK
  1

  9
$DIMASO
 70
1
  9
$DIMSHO
 70
1
  9
$DIMPOST
  1

  9
$DIMAPOST
  1

  9
$DIMALT
 70
0
  9
$DIMALTD
 70
3
  9
$DIMALTF
 40
0.03937007874
  9
$DIMLFAC
 40
1.0
  9
$DIMTOFL
 70
1
  9
$DIMTVP
 40
0.0
  9
$DIMTIX
 70
0
  9
$DIMSOXD
 70
0
  9
$DIMSAH
 70
0
  9
$DIMBLK1
  1

  9
$DIMBLK2
  1

  9
$DIMSTYLE
  2
ISO-25
  9
$DIMCLRD
 70
0
  9
$DIMCLRE
 70
0
  9
$DIMCLRT
 70
0
  9
$DIMTFAC
 40
1.0
  9
$DIMGAP
 40
0.625
  9
$DIMJUST
 70
0
  9
$DIMSD1
 70
0
  9
$DIMSD2
 70
0
  9
$DIMTOLJ
 70
0
  9
$DIMTZIN
 70
8
  9
$DIMALTZ
 70
0
  9
$DIMALTTZ
 70
0
  9
$DIMUPT
 70
0
  9
$DIMDEC
 70
2
  9
$DIMTDEC
 70
2
  9
$DIMALTU
 70
2
  9
$DIMALTTD
 70
3
  9
$DIMTXSTY
  7
Standard
  9
$DIMAUNIT
 70
0
  9
$DIMADEC
 70
0
  9
$DIMALTRND
 40
0.0
  9
$DIMAZIN
 70
0
  9
$DIMDSEP
 70
44
  9
$DIMATFIT
 70
3
  9
$DIMFRAC
 70
0
  9
$DIMLDRBLK
  1

  9
$DIMLUNIT
 70
2
  9
$DIMLWD
 70
-2
  9
$DIMLWE
 70
-2
  9
$DIMTMOVE
 70
0
  9
$DIMFXL
 40
1.0
  9
$DIMFXLON
 70
0
  9
$DIMJOGANG
 40
0.785398163397
  9
$DIMTFILL
 70
0
  9
$DIMTFILLCLR
 70
0
  9
$DIMARCSYM
 70
0
  9
$DIMLTYPE
  6

  9
$DIMLTEX1
  6

  9
$DIMLTEX2
  6

  9
$DIMTXTDIRECTION
 70
0
  9
$LUNITS
 70
2
  9
$LUPREC
 70
4
  9
$SKETCHINC
 40
1.0
  9
$FILLETRAD
 40
10.0
  9
$AUNITS
 70
0
  9
$AUPREC
 70
2
  9
$MENU
  1
.
  9
$ELEVATION
 40
0.0
  9
$PELEVATION
 40
0.0
  9
$THICKNESS
 40
0.0
  9
$LIMCHECK
 70
0
  9
$CHAMFERA
 40
0.0
  9
$CHAMFERB
 40
0.0
  9
$CHAMFERC
 40
0.0
  9
$CHAMFERD
 40
0.0
  9
$SKPOLY
 70
0
  9
$TDCREATE
 40
2460670.8790972224
  9
$TDUCREATE
 40
2458532.153996898
  9
$TDUPDATE
 40
2460670.8790972224
  9
$TDUUPDATE
 40
2458532.1544311
  9
$TDINDWG
 40
0.0
  9
$TDUSRTIMER
 40
0.0
  9
$USRTIMER
 70
1
  9
$ANGBASE
 50
0.0
  9
$ANGDIR
 70
0
  9
$PDMODE
 70
0
  9
$PDSIZE
 40
0.0
  9
$PLINEWID
 40
0.0
  9
$SPLFRAME
 70
0
  9
$SPLINETYPE
 70
6
  9
$SPLINESEGS
 70
8
  9
$HANDSEED
  5
38
  9
$SURFTAB1
 70
6
  9
$SURFTAB2
 70
6
  9
$SURFTYPE
 70
6
  9
$SURFU
 70
6
  9
$SURFV
 70
6
  9
$UCSBASE
  2

  9
$UCSNAME
  2

  9
$UCSORG
 10
0.0
 20
0.0
 30
0.0
  9
$UCSXDIR
 10
1.0
 20
0.0
 30
0.0
  9
$UCSYDIR
 10
0.0
 20
1.0
 30
0.0
  9
$UCSORTHOREF
  2

  9
$UCSORTHOVIEW
 70
0
  9
$UCSORGTOP
 10
0.0
 20
0.0
 30
0.0
  9
$UCSORGBOTTOM
 10
0.0
 20
0.0
 30
0.0
  9
$UCSORGLEFT
 10
0.0
 20
0.0
 30
0.0
  9
$UCSORGRIGHT
 10
0.0
 20
0.0
 30
0.0
  9
$UCSORGFRONT
 10
0.0
 20
0.0
 30
0.0
  9
$UCSORGBACK
 10
0.0
 20
0.0
 30
0.0
  9
$PUCSBASE
  2

  9
$PUCSNAME
  2

  9
$PUCSORG
 10
0.0
 20
0.0
 30
0.0
  9
$PUCSXDIR
 10
1.0
 20
0.0
 30
0.0
  9
$PUCSYDIR
 10
0.0
 20
1.0
 30
0.0
  9
$PUCSORTHOREF
  2

  9
$PUCSORTHOVIEW
 70
0
  9
$PUCSORGTOP
 10
0.0
 20
0.0
 30
0.0
  9
$PUCSORGBOTTOM
 10
0.0
 20
0.0
 30
0.0
  9
$PUCSORGLEFT
 10
0.0
 20
0.0
 30
0.0
  9
$PUCSORGRIGHT
 10
0.0
 20
0.0
 30
0.0
  9
$PUCSORGFRONT
 10
0.0
 20
0.0
 30
0.0
  9
$PUCSORGBACK
 10
0.0
 20
0.0
 30
0.0
  9
$USERI1
 70
0
  9
$USERI2
 70
0
  9
$USERI3
 70
0
  9
$USERI4
 70
0
  9
$USERI5
 70
0
  9
$USERR1
 40
0.0
  9
$USERR2
 40
0.0
  9
$USERR3
 40
0.0
  9
$USERR4
 40
0.0
  9
$USERR5
 40
0.0
  9
$WORLDVIEW
 70
1
  9
$SHADEDGE
 70
3
  9
$SHADEDIF
 70
70
  9
$TILEMODE
 70
1
  9
$MAXACTVP
 70
64
  9
$PINSBASE
 10
0.0
 20
0.0
 30
0.0
  9
$PLIMCHECK
 70
0
  9
$PEXTMIN
 10
1e+20
 20
1e+20
 30
1e+20
  9
$PEXTMAX
 10
-1e+20
 20
-1e+20
 30
-1e+20
  9
$PLIMMIN
 10
0.0
 20
0.0
  9
$PLIMMAX
 10
420.0
 20
297.0
  9
$UNITMODE
 70
0
  9
$VISRETAIN
 70
1
  9
$PLINEGEN
 70
0
  9
$PSLTSCALE
 70
1
  9
$TREEDEPTH
 70
3020
  9
$CMLSTYLE
  2
Standard
  9
$CMLJUST
 70
0
  9
$CMLSCALE
 40
20.0
  9
$PROXYGRAPHICS
 70
1
  9
$MEASUREMENT
 70
1
  9
$CELWEIGHT
370
-1
  9
$ENDCAPS
280
0
  9
$JOINSTYLE
280
0
  9
$LWDISPLAY
290
0
  9
$INSUNITS
 70
6
  9
$HYPERLINKBASE
  1

  9
$STYLESHEET
  1

  9
$XEDIT
290
1
  9
$CEPSNTYPE
380
0
  9
$PSTYLEMODE
290
1
  9
$FINGERPRINTGUID
  2
{20A55DE9-F3A7-42CA-87CA-729DE89686DA}
  9
$VERSIONGUID
  2
{076F7A85-93F9-4066-B37E-713B875AECEA}
  9
$EXTNAMES
290
1
  9
$PSVPSCALE
 40
0.0
  9
$OLESTARTUP
290
0
  9
$SORTENTS
280
127
  9
$INDEXCTL
280
0
  9
$HIDETEXT
280
1
  9
$XCLIPFRAME
280
0
  9
$HALOGAP
280
0
  9
$OBSCOLOR
 70
257
  9
$OBSLTYPE
280
0
  9
$INTERSECTIONDISPLAY
280
0
  9
$INTERSECTIONCOLOR
 70
257
  9
$DIMASSOC
280
2
  9
$PROJECTNAME
  1

  9
$CAMERADISPLAY
290
0
  9
$LENSLENGTH
 40
50.0
  9
$CAMERAHEIGHT
 40
0.0
  9
$STEPSPERSEC
 40
24.0
  9
$STEPSIZE
 40
100.0
  9
$3DDWFPREC
 40
2.0
  9
$PSOLWIDTH
 40
0.005
  9
$PSOLHEIGHT
 40
0.08
  9
$LOFTANG1
 40
1.570796326795
  9
$LOFTANG2
 40
1.570796326795
  9
$LOFTMAG1
 40
0.0
  9
$LOFTMAG2
 40
0.0
  9
$LOFTPARAM
 70
7
  9
$LOFTNORMALS
280
1
  9
$LATITUDE
 40
37.795
  9
$LONGITUDE
 40
-122.394
  9
$NORTHDIRECTION
 40
0.0
  9
$TIMEZONE
 70
-8000
  9
$LIGHTGLYPHDISPLAY
280
1
  9
$TILEMODELIGHTSYNCH
280
1
  9
$CMATERIAL
347
20
  9
$SOLIDHIST
280
0
  9
$SHOWHIST
280
1
  9
$DWFFRAME
280
2
  9
$DGNFRAME
280
2
  9
$REALWORLDSCALE
290
1
  9
$INTERFERECOLOR
 62
256
  9
$CSHADOW
280
0
  9
$SHADOWPLANELOCATION
 40
0.0
  0
ENDSEC
  0
SECTION
  2
CLASSES
  0
CLASS
  1
ACDBDICTIONARYWDFLT
  2
AcDbDictionaryWithDefault
  3
ObjectDBX Classes
 90
0
 91
0
280
0
281
0
  0
CLASS
  1
SUN
  2
AcDbSun
  3
SCENEOE
 90
1153
 91
0
280
0
281
0
  0
CLASS
  1
VISUALSTYLE
  2
AcDbVisualStyle
  3
ObjectDBX Classes
 90
4095
 91
0
280
0
281
0
  0
CLASS
  1
MATERIAL
  2
AcDbMaterial
  3
ObjectDBX Classes
 90
1153
 91
0
280
0
281
0
  0
CLASS
  1
SCALE
  2
AcDbScale
  3
ObjectDBX Classes
 90
1153
 91
0
280
0
281
0
  0
CLASS
  1
TABLESTYLE
  2
AcDbTableStyle
  3
ObjectDBX Classes
 90
4095
 91
0
280
0
281
0
  0
CLASS
  1
MLEADERSTYLE
  2
AcDbMLeaderStyle
  3
ACDB_MLEADERSTYLE_CLASS
 90
4095
 91
0
280
0
281
0
  0
CLASS
  1
DICTIONARYVAR
  2
AcDbDictionaryVar
  3
ObjectDBX Classes
 90
0
 91
0
280
0
281
0
  0
CLASS
  1
CELLSTYLEMAP
  2
AcDbCellStyleMap
  3
ObjectDBX Classes
 90
1152
 91
0
280
0
281
0
  0
CLASS
  1
MENTALRAYRENDERSETTINGS
  2
AcDbMentalRayRenderSettings
  3
SCENEOE
 90
1024
 91
0
280
0
281
0
  0
CLASS
  1
ACDBDETAILVIEWSTYLE
  2
AcDbDetailViewStyle
  3
ObjectDBX Classes
 90
1025
 91
0
280
0
281
0
  0
CLASS
  1
ACDBSECTIONVIEWSTYLE
  2
AcDbSectionViewStyle
  3
ObjectDBX Classes
 90
1025
 91
0
280
0
281
0
  0
CLASS
  1
RASTERVARIABLES
  2
AcDbRasterVariables
  3
ISM
 90
0
 91
0
280
0
281
0
  0
CLASS
  1
LAYOUT
  2
AcDbLayout
  3
ObjectDBX Classes
 90
0
 91
0
280
0
281
0
  0
CLASS
  1
ACDBPLACEHOLDER
  2
AcDbPlaceHolder
  3
ObjectDBX Classes
 90
0
 91
0
280
0
281
0
  0
ENDSEC
  0
SECTION
  2
TABLES
  0
TABLE
  2
VPORT
  5
8
330
0
100
AcDbSymbolTable
 70
1
  0
VPORT
  5
23
330
8
100
AcDbSymbolTableRecord
100
AcDbViewportTableRecord
  2
*Active
 70
0
 10
0.0
 20
0.0
 11
1.0
 21
1.0
 12
0.0
 22
0.0
 13
0.0
 23
0.0
 14
0.5
 24
0.5
 15
0.5
 25
0.5
 16
0.0
 26
0.0
 36
1.0
 17
0.0
 27
0.0
 37
0.0
 40
1000.0
 41
1.34
 42
50.0
 43
0.0
 44
0.0
 50
0.0
 51
0.0
 71
0
 72
1000
 73
1
 74
3
 75
0
 76
0
 77
0
 78
0
281
0
 65
0
146
0.0
  0
ENDTAB
  0
TABLE
  2
LTYPE
  5
2
330
0
100
AcDbSymbolTable
 70
3
  0
LTYPE
  5
24
330
2
100
AcDbSymbolTableRecord
100
AcDbLinetypeTableRecord
  2
ByBlock
 70
0
  3

 72
65
 73
0
 40
0.0
  0
LTYPE
  5
25
330
2
100
AcDbSymbolTableRecord
100
AcDbLinetypeTableRecord
  2
ByLayer
 70
0
  3

 72
65
 73
0
 40
0.0
  0
LTYPE
  5
26
330
2
100
AcDbSymbolTableRecord
100
AcDbLinetypeTableRecord
  2
Continuous
 70
0
  3

 72
65
 73
0
 40
0.0
  0
ENDTAB
  0
TABLE
  2
LAYER
  5
1
330
0
100
AcDbSymbolTable
 70
5
  0
LAYER
  5
27
330
1
100
AcDbSymbolTableRecord
100
AcDbLayerTableRecord
  2
0
 70
0
 62
7
  6
Continuous
370
-3
390
13
347
21
  0
LAYER
  5
28
330
1
100
AcDbSymbolTableRecord
100
AcDbLayerTableRecord
  2
Defpoints
 70
0
 62
7
  6
Continuous
290
0
370
-3
390
13
347
21
  0
LAYER
  5
2F
330
1
100
AcDbSymbolTableRecord
100
AcDbLayerTableRecord
  2
conductor
 70
0
 62
1
  6
Continuous
370
-3
390
13
347
21
  0
LAYER
  5
30
330
1
100
AcDbSymbolTableRecord
100
AcDbLayerTableRecord
  2
dielectric
 70
0
 62
8
  6
Continuous
370
-3
390
13
347
21
  0
LAYER
  5
31
330
1
100
AcDbSymbolTableRecord
100
AcDbLayerTableRecord
  2
substrate
 70
0
 62
5
  6
Continuous
370
-3
390
13
347
21
  0
ENDTAB
  0
TABLE
  2
STYLE
  5
5
330
0
100
AcDbSymbolTable
 70
1
  0
STYLE
  5
29
330
5
100
AcDbSymbolTableRecord
100
AcDbTextStyleTableRecord
  2
Standard
 70
0
 40
0.0
 41
1.0
 50
0.0
 71
0
 42
2.5
  3
txt
  4

  0
ENDTAB
  0
TABLE
  2
VIEW
  5
7
330
0
100
AcDbSymbolTable
 70
0
  0
ENDTAB
  0
TABLE
  2
UCS
  5
6
330
0
100
AcDbSymbolTable
 70
0
  0
ENDTAB
  0
TABLE
  2
APPID
  5
3
330
0
100
AcDbSymbolTable
 70
3
  0
APPID
  5
2A
330
3
100
AcDbSymbolTableRecord
100
AcDbRegAppTableRecord
  2
ACAD
 70
0
  0
APPID
  5
35
330
3
100
AcDbSymbolTableRecord
100
AcDbRegAppTableRecord
  2
HATCHBACKGROUNDCOLOR
 70
0
  0
APPID
  5
36
330
3
100
AcDbSymbolTableRecord
100
AcDbRegAppTableRecord
  2
EZDXF
 70
0
  0
ENDTAB
  0
TABLE
  2
DIMSTYLE
  5
4
330
0
100
AcDbSymbolTable
 70
1
100
AcDbDimStyleTable
  0
DIMSTYLE
105
2B
330
4
100
AcDbSymbolTableRecord
100
AcDbDimStyleTableRecord
  2
Standard
 70
0
 40
1.0
 41
2.5
 42
0.625
 43
3.75
 44
1.25
 45
0.0
 46
0.0
 47
0.0
 48
0.0
 49
2.5
140
2.5
141
2.5
142
0.0
143
0.03937007874
144
1.0
145
0.0
146
1.0
147
0.625
148
0.0
 69
0
 70
0
 71
0
 72
0
 73
0
 74
0
 75
0
 76
0
 77
1
 78
8
 79
3
170
0
171
3
172
1
173
0
174
0
175
0
176
0
177
0
178
0
179
2
271
2
272
2
273
2
274
3
275
0
276
0
277
2
278
44
279
0
280
0
281
0
282
0
283
0
284
8
285
0
286
0
288
0
289
3
290
0
371
-2
372
-2
  0
ENDTAB
  0
TABLE
  2
BLOCK_RECORD
  5
9
330
0
100
AcDbSymbolTable
 70
2
  0
BLOCK_RECORD
  5
17
330
9
100
AcDbSymbolTableRecord
100
AcDbBlockTableRecord
  2
*Model_Space
340
1A
 70
0
280
1
281
0
  0
BLOCK_RECORD
  5
1B
330
9
100
AcDbSymbolTableRecord
100
AcDbBlockTableRecord
  2
*Paper_Space
340
1E
 70
0
280
1
281
0
  0
ENDTAB
  0
ENDSEC
  0
SECTION
  2
BLOCKS
  0
BLOCK
  5
18
330
17
100
AcDbEntity
  8
0
100
AcDbBlockBegin
  2
*Model_Space
 70
0
 10
0.0
 20
0.0
 30
0.0
  3
*Model_Space
  1

  0
ENDBLK
  5
19
330
17
100
AcDbEntity
  8
0
100
AcDbBlockEnd
  0
BLOCK
  5
1C
330
1B
100
AcDbEntity
  8
0
100
AcDbBlockBegin
  2
*Paper_Space
 70
0
 10
0.0
 20
0.0
 30
0.0
  3
*Paper_Space
  1

  0
ENDBLK
  5
1D
330
1B
100
AcDbEntity
  8
0
100
AcDbBlockEnd
  0
ENDSEC
  0
SECTION
  2
ENTITIES
  0
LWPOLYLINE
  5
32
330
17
100
AcDbEntity
  8
conductor
100
AcDbPolyline
 90
264
 70
1
 43
0.5
 10
2468.4670194983482
 20
-2189.7691302001476
 10
2468.4670194983482
 20
-2199.722626246512
 10
2468.4670194983482
 20
-2209.6761222928762
 10
2468.4670194983482
 20
-2219.6296183392406
 10
2458.513523451984
 20
-2229.583114385605
 10
2448.5600274056196
 20
-2229.583114385605
 10
2438.6065313592553
 20
-2229.583114385605
 10
2428.653035312891
 20
-2229.583114385605
 10
2418.6995392665267
 20
-2229.583114385605
 10
2408.7460432201624
 20
-2229.583114385605
 10
2398.792547173798
 20
-2229.583114385605
 10
2388.839051127434
 20
-2229.583114385605
 10
2388.839051127434
 20
-2239.536610431969
 10
2388.839051127434
 20
-2249.4901064783335
 10
2388.839051127434
 20
-2259.443602524698
 10
2378.8855550810695
 20
-2269.397098571062
 10
2368.932059034705
 20
-2269.397098571062
 10
2358.978562988341
 20
-2269.397098571062
 10
2349.0250669419765
 20
-2269.397098571062
 10
2339.0715708956122
 20
-2269.397098571062
 10
2329.118074849248
 20
-2269.397098571062
 10
2319.1645788028836
 20
-2269.397098571062
 10
2309.2110827565193
 20
-2269.397098571062
 10
2309.2110827565193
 20
-2279.3505946174264
 10
2309.2110827565193
 20
-2289.3040906637907
 10
2309.2110827565193
 20
-2299.257586710155
 10
2299.257586710155
 20
-2309.2110827565193
 10
2289.3040906637907
 20
-2309.2110827565193
 10
2279.3505946174264
 20
-2309.2110827565193
 10
2269.397098571062
 20
-2309.2110827565193
 10
2269.397098571062
 20
-2319.1645788028836
 10
2269.397098571062
 20
-2329.118074849248
 10
2269.397098571062
 20
-2339.0715708956122
 10
2269.397098571062
 20
-2349.0250669419765
 10
2269.397098571062
 20
-2358.978562988341
 10
2269.397098571062
 20
-2368.932059034705
 10
2269.397098571062
 20
-2378.8855550810695
 10
2259.443602524698
 20
-2388.839051127434
 10
2249.4901064783335
 20
-2388.839051127434
 10
2239.536610431969
 20
-2388.839051127434
 10
2229.583114385605
 20
-2388.839051127434
 10
2229.583114385605
 20
-2398.792547173798
 10
2229.583114385605
 20
-2408.7460432201624
 10
2229.583114385605
 20
-2418.6995392665267
 10
2229.583114385605
 20
-2428.653035312891
 10
2229.583114385605
 20
-2438.6065313592553
 10
2229.583114385605
 20
-2448.5600274056196
 10
2229.583114385605
 20
-2458.513523451984
 10
2219.6296183392406
 20
-2468.4670194983482
 10
2209.6761222928762
 20
-2468.4670194983482
 10
2199.722626246512
 20
-2468.4670194983482
 10
2189.7691302001476
 20
-2468.4670194983482
 10
2189.7691302001476
 20
-2478.4205155447125
 10
2189.7691302001476
 20
-2488.374011591077
 10
2189.7691302001476
 20
-2498.327507637441
 10
2189.7691302001476
 20
-2508.2810036838055
 10
2189.7691302001476
 20
-2518.23449973017
 10
2189.7691302001476
 20
-2528.187995776534
 10
2189.7691302001476
 20
-2538.1414918228984
 10
2189.7691302001476
 20
-2548.0949878692627
 10
2189.7691302001476
 20
-2558.048483915627
 10
2189.7691302001476
 20
-2568.0019799619913
 10
2189.7691302001476
 20
-2577.9554760083556
 10
2189.7691302001476
 20
-2587.90897205472
 10
2189.7691302001476
 20
-2597.8624681010842
 10
2189.7691302001476
 20
-2607.8159641474485
 10
2189.7691302001476
 20
-2617.769460193813
 10
2199.722626246512
 20
-2617.769460193813
 10
2209.6761222928762
 20
-2617.769460193813
 10
2219.6296183392406
 20
-2617.769460193813
 10
2229.583114385605
 20
-2627.722956240177
 10
2229.583114385605
 20
-2637.6764522865415
 10
2229.583114385605
 20
-2647.6299483329058
 10
2229.583114385605
 20
-2657.58344437927
 10
2229.583114385605
 20
-2667.5369404256344
 10
2229.583114385605
 20
-2677.4904364719987
 10
2229.583114385605
 20
-2687.443932518363
 10
2229.583114385605
 20
-2697.3974285647273
 10
2239.536610431969
 20
-2697.3974285647273
 10
2249.4901064783335
 20
-2697.3974285647273
 10
2259.443602524698
 20
-2697.3974285647273
 10
2269.397098571062
 20
-2707.3509246110916
 10
2269.397098571062
 20
-2717.304420657456
 10
2269.397098571062
 20
-2727.2579167038202
 10
2269.397098571062
 20
-2737.2114127501845
 10
2269.397098571062
 20
-2747.164908796549
 10
2269.397098571062
 20
-2757.118404842913
 10
2269.397098571062
 20
-2767.0719008892775
 10
2269.397098571062
 20
-2777.0253969356418
 10
2279.3505946174264
 20
-2777.0253969356418
 10
2289.3040906637907
 20
-2777.0253969356418
 10
2299.257586710155
 20
-2777.0253969356418
 10
2309.2110827565193
 20
-2786.978892982006
 10
2309.2110827565193
 20
-2796.9323890283704
 10
2309.2110827565193
 20
-2806.8858850747347
 10
2309.2110827565193
 20
-2816.839381121099
 10
2319.1645788028836
 20
-2816.839381121099
 10
2329.118074849248
 20
-2816.839381121099
 10
2339.0715708956122
 20
-2816.839381121099
 10
2349.0250669419765
 20
-2816.839381121099
 10
2358.978562988341
 20
-2816.839381121099
 10
2368.932059034705
 20
-2816.839381121099
 10
2378.8855550810695
 20
-2816.839381121099
 10
2388.839051127434
 20
-2826.7928771674633
 10
2388.839051127434
 20
-2836.7463732138276
 10
2388.839051127434
 20
-2846.699869260192
 10
2388.839051127434
 20
-2856.653365306556
 10
2398.792547173798
 20
-2856.653365306556
 10
2408.7460432201624
 20
-2856.653365306556
 10
2418.6995392665267
 20
-2856.653365306556
 10
2428.653035312891
 20
-2856.653365306556
 10
2438.6065313592553
 20
-2856.653365306556
 10
2448.5600274056196
 20
-2856.653365306556
 10
2458.513523451984
 20
-2856.653365306556
 10
2468.4670194983482
 20
-2866.6068613529205
 10
2468.4670194983482
 20
-2876.560357399285
 10
2468.4670194983482
 20
-2886.513853445649
 10
2468.4670194983482
 20
-2896.4673494920135
 10
2478.4205155447125
 20
-2896.4673494920135
 10
2488.374011591077
 20
-2896.4673494920135
 10
2498.327507637441
 20
-2896.4673494920135
 10
2508.2810036838055
 20
-2896.4673494920135
 10
2518.23449973017
 20
-2896.4673494920135
 10
2528.187995776534
 20
-2896.4673494920135
 10
2538.1414918228984
 20
-2896.4673494920135
 10
2548.0949878692627
 20
-2896.4673494920135
 10
2558.048483915627
 20
-2896.4673494920135
 10
2568.0019799619913
 20
-2896.4673494920135
 10
2577.9554760083556
 20
-2896.4673494920135
 10
2587.90897205472
 20
-2896.4673494920135
 10
2597.8624681010842
 20
-2896.4673494920135
 10
2607.8159641474485
 20
-2896.4673494920135
 10
2617.769460193813
 20
-2896.4673494920135
 10
2617.769460193813
 20
-2886.513853445649
 10
2617.769460193813
 20
-2876.560357399285
 10
2617.769460193813
 20
-2866.6068613529205
 10
2627.722956240177
 20
-2856.653365306556
 10
2637.6764522865415
 20
-2856.653365306556
 10
2647.6299483329058
 20
-2856.653365306556
 10
2657.58344437927
 20
-2856.653365306556
 10
2667.5369404256344
 20
-2856.653365306556
 10
2677.4904364719987
 20
-2856.653365306556
 10
2687.443932518363
 20
-2856.653365306556
 10
2697.3974285647273
 20
-2856.653365306556
 10
2697.3974285647273
 20
-2846.699869260192
 10
2697.3974285647273
 20
-2836.7463732138276
 10
2697.3974285647273
 20
-2826.7928771674633
 10
2707.3509246110916
 20
-2816.839381121099
 10
2717.304420657456
 20
-2816.839381121099
 10
2727.2579167038202
 20
-2816.839381121099
 10
2737.2114127501845
 20
-2816.839381121099
 10
2747.164908796549
 20
-2816.839381121099
 10
2757.118404842913
 20
-2816.839381121099
 10
2767.0719008892775
 20
-2816.839381121099
 10
2777.0253969356418
 20
-2816.839381121099
 10
2777.0253969356418
 20
-2806.8858850747347
 10
2777.0253969356418
 20
-2796.9323890283704
 10
2777.0253969356418
 20
-2786.978892982006
 10
2786.978892982006
 20
-2777.0253969356418
 10
2796.9323890283704
 20
-2777.0253969356418
 10
2806.8858850747347
 20
-2777.0253969356418
 10
2816.839381121099
 20
-2777.0253969356418
 10
2816.839381121099
 20
-2767.0719008892775
 10
2816.839381121099
 20
-2757.118404842913
 10
2816.839381121099
 20
-2747.164908796549
 10
2826.7928771674633
 20
-2737.2114127501845
 10
2836.7463732138276
 20
-2737.2114127501845
 10
2846.699869260192
 20
-2737.2114127501845
 10
2856.653365306556
 20
-2737.2114127501845
 10
2856.653365306556
 20
-2727.2579167038202
 10
2856.653365306556
 20
-2717.304420657456
 10
2856.653365306556
 20
-2707.3509246110916
 10
2856.653365306556
 20
-2697.3974285647273
 10
2856.653365306556
 20
-2687.443932518363
 10
2856.653365306556
 20
-2677.4904364719987
 10
2856.653365306556
 20
-2667.5369404256344
 10
2856.653365306556
 20
-2657.58344437927
 10
2856.653365306556
 20
-2647.6299483329058
 10
2856.653365306556
 20
-2637.6764522865415
 10
2856.653365306556
 20
-2627.722956240177
 10
2856.653365306556
 20
-2617.769460193813
 10
2856.653365306556
 20
-2607.8159641474485
 10
2856.653365306556
 20
-2597.8624681010842
 10
2856.653365306556
 20
-2587.90897205472
 10
2866.6068613529205
 20
-2577.9554760083556
 10
2876.560357399285
 20
-2577.9554760083556
 10
2886.513853445649
 20
-2577.9554760083556
 10
2896.4673494920135
 20
-2577.9554760083556
 10
2896.4673494920135
 20
-2568.0019799619913
 10
2896.4673494920135
 20
-2558.048483915627
 10
2896.4673494920135
 20
-2548.0949878692627
 10
2896.4673494920135
 20
-2538.1414918228984
 10
2896.4673494920135
 20
-2528.187995776534
 10
2896.4673494920135
 20
-2518.23449973017
 10
2896.4673494920135
 20
-2508.2810036838055
 10
2896.4673494920135
 20
-2498.327507637441
 10
2896.4673494920135
 20
-2488.374011591077
 10
2896.4673494920135
 20
-2478.4205155447125
 10
2896.4673494920135
 20
-2468.4670194983482
 10
2886.513853445649
 20
-2468.4670194983482
 10
2876.560357399285
 20
-2468.4670194983482
 10
2866.6068613529205
 20
-2468.4670194983482
 10
2856.653365306556
 20
-2458.513523451984
 10
2856.653365306556
 20
-2448.5600274056196
 10
2856.653365306556
 20
-2438.6065313592553
 10
2856.653365306556
 20
-2428.653035312891
 10
2856.653365306556
 20
-2418.6995392665267
 10
2856.653365306556
 20
-2408.7460432201624
 10
2856.653365306556
 20
-2398.792547173798
 10
2856.653365306556
 20
-2388.839051127434
 10
2856.653365306556
 20
-2378.8855550810695
 10
2856.653365306556
 20
-2368.932059034705
 10
2856.653365306556
 20
-2358.978562988341
 10
2856.653365306556
 20
-2349.0250669419765
 10
2846.699869260192
 20
-2349.0250669419765
 10
2836.7463732138276
 20
-2349.0250669419765
 10
2826.7928771674633
 20
-2349.0250669419765
 10
2816.839381121099
 20
-2339.0715708956122
 10
2816.839381121099
 20
-2329.118074849248
 10
2816.839381121099
 20
-2319.1645788028836
 10
2816.839381121099
 20
-2309.2110827565193
 10
2806.8858850747347
 20
-2309.2110827565193
 10
2796.9323890283704
 20
-2309.2110827565193
 10
2786.978892982006
 20
-2309.2110827565193
 10
2777.0253969356418
 20
-2299.257586710155
 10
2777.0253969356418
 20
-2289.3040906637907
 10
2777.0253969356418
 20
-2279.3505946174264
 10
2777.0253969356418
 20
-2269.397098571062
 10
2767.0719008892775
 20
-2269.397098571062
 10
2757.118404842913
 20
-2269.397098571062
 10
2747.164908796549
 20
-2269.397098571062
 10
2737.2114127501845
 20
-2269.397098571062
 10
2727.2579167038202
 20
-2269.397098571062
 10
2717.304420657456
 20
-2269.397098571062
 10
2707.3509246110916
 20
-2269.397098571062
 10
2697.3974285647273
 20
-2259.443602524698
 10
2697.3974285647273
 20
-2249.4901064783335
 10
2697.3974285647273
 20
-2239.536610431969
 10
2697.3974285647273
 20
-2229.583114385605
 10
2687.443932518363
 20
-2229.583114385605
 10
2677.4904364719987
 20
-2229.583114385605
 10
2667.5369404256344
 20
-2229.583114385605
 10
2657.58344437927
 20
-2229.583114385605
 10
2647.6299483329058
 20
-2229.583114385605
 10
2637.6764522865415
 20
-2229.583114385605
 10
2627.722956240177
 20
-2229.583114385605
 10
2617.769460193813
 20
-2219.6296183392406
 10
2617.769460193813
 20
-2209.6761222928762
 10
2617.769460193813
 20
-2199.722626246512
 10
2617.769460193813
 20
-2189.7691302001476
 10
2607.8159641474485
 20
-2189.7691302001476
 10
2597.8624681010842
 20
-2189.7691302001476
 10
2587.90897205472
 20
-2189.7691302001476
 10
2577.9554760083556
 20
-2189.7691302001476
 10
2568.0019799619913
 20
-2189.7691302001476
 10
2558.048483915627
 20
-2189.7691302001476
 10
2548.0949878692627
 20
-2189.7691302001476
 10
2538.1414918228984
 20
-2189.7691302001476
 10
2528.187995776534
 20
-2189.7691302001476
 10
2518.23449973017
 20
-2189.7691302001476
 10
2508.2810036838055
 20
-2189.7691302001476
 10
2498.327507637441
 20
-2189.7691302001476
 10
2488.374011591077
 20
-2189.7691302001476
 10
2478.4205155447125
 20
-2189.7691302001476
  0
LWPOLYLINE
  5
33
330
17
100
AcDbEntity
  8
substrate
100
AcDbPolyline
 90
2044
 70
1
 43
0.5
 10
0.0
 20
-0.0
 10
0.0
 20
-9.953496046364307
 10
0.0
 20
-19.906992092728615
 10
0.0
 20
-29.860488139092922
 10
0.0
 20
-39.81398418545723
 10
0.0
 20
-49.76748023182154
 10
0.0
 20
-59.720976278185844
 10
0.0
 20
-69.67447232455015
 10
0.0
 20
-79.62796837091446
 10
0.0
 20
-89.58146441727877
 10
0.0
 20
-99.53496046364307
 10
0.0
 20
-109.48845651000738
 10
0.0
 20
-119.44195255637169
 10
0.0
 20
-129.395448602736
 10
0.0
 20
-139.3489446491003
 10
0.0
 20
-149.3024406954646
 10
0.0
 20
-159.25593674182892
 10
0.0
 20
-169.20943278819323
 10
0.0
 20
-179.16292883455753
 10
0.0
 20
-189.11642488092184
 10
0.0
 20
-199.06992092728615
 10
0.0
 20
-209.02341697365046
 10
0.0
 20
-218.97691302001476
 10
0.0
 20
-228.93040906637907
 10
0.0
 20
-238.88390511274338
 10
0.0
 20
-248.83740115910769
 10
0.0
 20
-258.790897205472
 10
0.0
 20
-268.7443932518363
 10
0.0
 20
-278.6978892982006
 10
0.0
 20
-288.6513853445649
 10
0.0
 20
-298.6048813909292
 10
0.0
 20
-308.55837743729353
 10
0.0
 20
-318.51187348365784
 10
0.0
 20
-328.46536953002214
 10
0.0
 20
-338.41886557638645
 10
0.0
 20
-348.37236162275076
 10
0.0
 20
-358.32585766911507
 10
0.0
 20
-368.2793537154794
 10
0.0
 20
-378.2328497618437
 10
0.0
 20
-388.186345808208
 10
0.0
 20
-398.1398418545723
 10
0.0
 20
-408.0933379009366
 10
0.0
 20
-418.0468339473009
 10
0.0
 20
-428.0003299936652
 10
0.0
 20
-437.9538260400295
 10
0.0
 20
-447.90732208639383
 10
0.0
 20
-457.86081813275814
 10
0.0
 20
-467.81431417912245
 10
0.0
 20
-477.76781022548676
 10
0.0
 20
-487.72130627185106
 10
0.0
 20
-497.67480231821537
 10
0.0
 20
-507.6282983645797
 10
0.0
 20
-517.581794410944
 10
0.0
 20
-527.5352904573083
 10
0.0
 20
-537.4887865036726
 10
0.0
 20
-547.4422825500369
 10
0.0
 20
-557.3957785964012
 10
0.0
 20
-567.3492746427655
 10
0.0
 20
-577.3027706891298
 10
0.0
 20
-587.2562667354941
 10
0.0
 20
-597.2097627818584
 10
0.0
 20
-607.1632588282228
 10
0.0
 20
-617.1167548745871
 10
0.0
 20
-627.0702509209514
 10
0.0
 20
-637.0237469673157
 10
0.0
 20
-646.97724301368
 10
0.0
 20
-656.9307390600443
 10
0.0
 20
-666.8842351064086
 10
0.0
 20
-676.8377311527729
 10
0.0
 20
-686.7912271991372
 10
0.0
 20
-696.7447232455015
 10
0.0
 20
-706.6982192918658
 10
0.0
 20
-716.6517153382301
 10
0.0
 20
-726.6052113845944
 10
0.0
 20
-736.5587074309587
 10
0.0
 20
-746.512203477323
 10
0.0
 20
-756.4656995236874
 10
0.0
 20
-766.4191955700517
 10
0.0
 20
-776.372691616416
 10
0.0
 20
-786.3261876627803
 10
0.0
 20
-796.2796837091446
 10
0.0
 20
-806.2331797555089
 10
0.0
 20
-816.1866758018732
 10
0.0
 20
-826.1401718482375
 10
0.0
 20
-836.0936678946018
 10
0.0
 20
-846.0471639409661
 10
0.0
 20
-856.0006599873304
 10
0.0
 20
-865.9541560336947
 10
0.0
 20
-875.907652080059
 10
0.0
 20
-885.8611481264234
 10
0.0
 20
-895.8146441727877
 10
0.0
 20
-905.768140219152
 10
0.0
 20
-915.7216362655163
 10
0.0
 20
-925.6751323118806
 10
0.0
 20
-935.6286283582449
 10
0.0
 20
-945.5821244046092
 10
0.0
 20
-955.5356204509735
 10
0.0
 20
-965.4891164973378
 10
0.0
 20
-975.4426125437021
 10
0.0
 20
-985.3961085900664
 10
0.0
 20
-995.3496046364307
 10
0.0
 20
-1005.303100682795
 10
0.0
 20
-1015.2565967291594
 10
0.0
 20
-1025.2100927755237
 10
0.0
 20
-1035.163588821888
 10
0.0
 20
-1045.1170848682523
 10
0.0
 20
-1055.0705809146166
 10
0.0
 20
-1065.024076960981
 10
0.0
 20
-1074.9775730073452
 10
0.0
 20
-1084.9310690537095
 10
0.0
 20
-1094.8845651000738
 10
0.0
 20
-1104.8380611464381
 10
0.0
 20
-1114.7915571928024
 10
0.0
 20
-1124.7450532391667
 10
0.0
 20
-1134.698549285531
 10
0.0
 20
-1144.6520453318954
 10
0.0
 20
-1154.6055413782597
 10
0.0
 20
-1164.559037424624
 10
0.0
 20
-1174.5125334709883
 10
0.0
 20
-1184.4660295173526
 10
0.0
 20
-1194.419525563717
 10
0.0
 20
-1204.3730216100812
 10
0.0
 20
-1214.3265176564455
 10
0.0
 20
-1224.2800137028098
 10
0.0
 20
-1234.2335097491741
 10
0.0
 20
-1244.1870057955384
 10
0.0
 20
-1254.1405018419027
 10
0.0
 20
-1264.093997888267
 10
0.0
 20
-1274.0474939346313
 10
0.0
 20
-1284.0009899809957
 10
0.0
 20
-1293.95448602736
 10
0.0
 20
-1303.9079820737243
 10
0.0
 20
-1313.8614781200886
 10
0.0
 20
-1323.8149741664529
 10
0.0
 20
-1333.7684702128172
 10
0.0
 20
-1343.7219662591815
 10
0.0
 20
-1353.6754623055458
 10
0.0
 20
-1363.6289583519101
 10
0.0
 20
-1373.5824543982744
 10
0.0
 20
-1383.5359504446387
 10
0.0
 20
-1393.489446491003
 10
0.0
 20
-1403.4429425373673
 10
0.0
 20
-1413.3964385837317
 10
0.0
 20
-1423.349934630096
 10
0.0
 20
-1433.3034306764603
 10
0.0
 20
-1443.2569267228246
 10
0.0
 20
-1453.2104227691889
 10
0.0
 20
-1463.1639188155532
 10
0.0
 20
-1473.1174148619175
 10
0.0
 20
-1483.0709109082818
 10
0.0
 20
-1493.024406954646
 10
0.0
 20
-1502.9779030010104
 10
0.0
 20
-1512.9313990473747
 10
0.0
 20
-1522.884895093739
 10
0.0
 20
-1532.8383911401033
 10
0.0
 20
-1542.7918871864676
 10
0.0
 20
-1552.745383232832
 10
0.0
 20
-1562.6988792791963
 10
0.0
 20
-1572.6523753255606
 10
0.0
 20
-1582.6058713719249
 10
0.0
 20
-1592.5593674182892
 10
0.0
 20
-1602.5128634646535
 10
0.0
 20
-1612.4663595110178
 10
0.0
 20
-1622.419855557382
 10
0.0
 20
-1632.3733516037464
 10
0.0
 20
-1642.3268476501107
 10
0.0
 20
-1652.280343696475
 10
0.0
 20
-1662.2338397428393
 10
0.0
 20
-1672.1873357892036
 10
0.0
 20
-1682.140831835568
 10
0.0
 20
-1692.0943278819323
 10
0.0
 20
-1702.0478239282966
 10
0.0
 20
-1712.0013199746609
 10
0.0
 20
-1721.9548160210252
 10
0.0
 20
-1731.9083120673895
 10
0.0
 20
-1741.8618081137538
 10
0.0
 20
-1751.815304160118
 10
0.0
 20
-1761.7688002064824
 10
0.0
 20
-1771.7222962528467
 10
0.0
 20
-1781.675792299211
 10
0.0
 20
-1791.6292883455753
 10
0.0
 20
-1801.5827843919396
 10
0.0
 20
-1811.536280438304
 10
0.0
 20
-1821.4897764846683
 10
0.0
 20
-1831.4432725310326
 10
0.0
 20
-1841.3967685773969
 10
0.0
 20
-1851.3502646237612
 10
0.0
 20
-1861.3037606701255
 10
0.0
 20
-1871.2572567164898
 10
0.0
 20
-1881.210752762854
 10
0.0
 20
-1891.1642488092184
 10
0.0
 20
-1901.1177448555827
 10
0.0
 20
-1911.071240901947
 10
0.0
 20
-1921.0247369483113
 10
0.0
 20
-1930.9782329946756
 10
0.0
 20
-1940.93172904104
 10
0.0
 20
-1950.8852250874043
 10
0.0
 20
-1960.8387211337686
 10
0.0
 20
-1970.7922171801329
 10
0.0
 20
-1980.7457132264972
 10
0.0
 20
-1990.6992092728615
 10
0.0
 20
-2000.6527053192258
 10
0.0
 20
-2010.60620136559
 10
0.0
 20
-2020.5596974119544
 10
0.0
 20
-2030.5131934583187
 10
0.0
 20
-2040.466689504683
 10
0.0
 20
-2050.4201855510473
 10
0.0
 20
-2060.3736815974116
 10
0.0
 20
-2070.327177643776
 10
0.0
 20
-2080.2806736901402
 10
0.0
 20
-2090.2341697365046
 10
0.0
 20
-2100.187665782869
 10
0.0
 20
-2110.141161829233
 10
0.0
 20
-2120.0946578755975
 10
0.0
 20
-2130.048153921962
 10
0.0
 20
-2140.001649968326
 10
0.0
 20
-2149.9551460146904
 10
0.0
 20
-2159.9086420610547
 10
0.0
 20
-2169.862138107419
 10
0.0
 20
-2179.8156341537833
 10
0.0
 20
-2189.7691302001476
 10
0.0
 20
-2199.722626246512
 10
0.0
 20
-2209.6761222928762
 10
0.0
 20
-2219.6296183392406
 10
0.0
 20
-2229.583114385605
 10
0.0
 20
-2239.536610431969
 10
0.0
 20
-2249.4901064783335
 10
0.0
 20
-2259.443602524698
 10
0.0
 20
-2269.397098571062
 10
0.0
 20
-2279.3505946174264
 10
0.0
 20
-2289.3040906637907
 10
0.0
 20
-2299.257586710155
 10
0.0
 20
-2309.2110827565193
 10
0.0
 20
-2319.1645788028836
 10
0.0
 20
-2329.118074849248
 10
0.0
 20
-2339.0715708956122
 10
0.0
 20
-2349.0250669419765
 10
0.0
 20
-2358.978562988341
 10
0.0
 20
-2368.932059034705
 10
0.0
 20
-2378.8855550810695
 10
0.0
 20
-2388.839051127434
 10
0.0
 20
-2398.792547173798
 10
0.0
 20
-2408.7460432201624
 10
0.0
 20
-2418.6995392665267
 10
0.0
 20
-2428.653035312891
 10
0.0
 20
-2438.6065313592553
 10
0.0
 20
-2448.5600274056196
 10
0.0
 20
-2458.513523451984
 10
0.0
 20
-2468.4670194983482
 10
0.0
 20
-2478.4205155447125
 10
0.0
 20
-2488.374011591077
 10
0.0
 20
-2498.327507637441
 10
0.0
 20
-2508.2810036838055
 10
0.0
 20
-2518.23449973017
 10
0.0
 20
-2528.187995776534
 10
0.0
 20
-2538.1414918228984
 10
0.0
 20
-2548.0949878692627
 10
0.0
 20
-2558.048483915627
 10
0.0
 20
-2568.0019799619913
 10
0.0
 20
-2577.9554760083556
 10
0.0
 20
-2587.90897205472
 10
0.0
 20
-2597.8624681010842
 10
0.0
 20
-2607.8159641474485
 10
0.0
 20
-2617.769460193813
 10
0.0
 20
-2627.722956240177
 10
0.0
 20
-2637.6764522865415
 10
0.0
 20
-2647.6299483329058
 10
0.0
 20
-2657.58344437927
 10
0.0
 20
-2667.5369404256344
 10
0.0
 20
-2677.4904364719987
 10
0.0
 20
-2687.443932518363
 10
0.0
 20
-2697.3974285647273
 10
0.0
 20
-2707.3509246110916
 10
0.0
 20
-2717.304420657456
 10
0.0
 20
-2727.2579167038202
 10
0.0
 20
-2737.2114127501845
 10
0.0
 20
-2747.164908796549
 10
0.0
 20
-2757.118404842913
 10
0.0
 20
-2767.0719008892775
 10
0.0
 20
-2777.0253969356418
 10
0.0
 20
-2786.978892982006
 10
0.0
 20
-2796.9323890283704
 10
0.0
 20
-2806.8858850747347
 10
0.0
 20
-2816.839381121099
 10
0.0
 20
-2826.7928771674633
 10
0.0
 20
-2836.7463732138276
 10
0.0
 20
-2846.699869260192
 10
0.0
 20
-2856.653365306556
 10
0.0
 20
-2866.6068613529205
 10
0.0
 20
-2876.560357399285
 10
0.0
 20
-2886.513853445649
 10
0.0
 20
-2896.4673494920135
 10
0.0
 20
-2906.4208455383778
 10
0.0
 20
-2916.374341584742
 10
0.0
 20
-2926.3278376311064
 10
0.0
 20
-2936.2813336774707
 10
0.0
 20
-2946.234829723835
 10
0.0
 20
-2956.1883257701993
 10
0.0
 20
-2966.1418218165636
 10
0.0
 20
-2976.095317862928
 10
0.0
 20
-2986.048813909292
 10
0.0
 20
-2996.0023099556565
 10
0.0
 20
-3005.955806002021
 10
0.0
 20
-3015.909302048385
 10
0.0
 20
-3025.8627980947495
 10
0.0
 20
-3035.8162941411138
 10
0.0
 20
-3045.769790187478
 10
0.0
 20
-3055.7232862338424
 10
0.0
 20
-3065.6767822802067
 10
0.0
 20
-3075.630278326571
 10
0.0
 20
-3085.5837743729353
 10
0.0
 20
-3095.5372704192996
 10
0.0
 20
-3105.490766465664
 10
0.0
 20
-3115.444262512028
 10
0.0
 20
-3125.3977585583925
 10
0.0
 20
-3135.351254604757
 10
0.0
 20
-3145.304750651121
 10
0.0
 20
-3155.2582466974854
 10
0.0
 20
-3165.2117427438498
 10
0.0
 20
-3175.165238790214
 10
0.0
 20
-3185.1187348365784
 10
0.0
 20
-3195.0722308829427
 10
0.0
 20
-3205.025726929307
 10
0.0
 20
-3214.9792229756713
 10
0.0
 20
-3224.9327190220356
 10
0.0
 20
-3234.8862150684
 10
0.0
 20
-3244.839711114764
 10
0.0
 20
-3254.7932071611285
 10
0.0
 20
-3264.746703207493
 10
0.0
 20
-3274.700199253857
 10
0.0
 20
-3284.6536953002214
 10
0.0
 20
-3294.6071913465858
 10
0.0
 20
-3304.56068739295
 10
0.0
 20
-3314.5141834393144
 10
0.0
 20
-3324.4676794856787
 10
0.0
 20
-3334.421175532043
 10
0.0
 20
-3344.3746715784073
 10
0.0
 20
-3354.3281676247716
 10
0.0
 20
-3364.281663671136
 10
0.0
 20
-3374.2351597175
 10
0.0
 20
-3384.1886557638645
 10
0.0
 20
-3394.142151810229
 10
0.0
 20
-3404.095647856593
 10
0.0
 20
-3414.0491439029574
 10
0.0
 20
-3424.0026399493217
 10
0.0
 20
-3433.956135995686
 10
0.0
 20
-3443.9096320420504
 10
0.0
 20
-3453.8631280884147
 10
0.0
 20
-3463.816624134779
 10
0.0
 20
-3473.7701201811433
 10
0.0
 20
-3483.7236162275076
 10
0.0
 20
-3493.677112273872
 10
0.0
 20
-3503.630608320236
 10
0.0
 20
-3513.5841043666005
 10
0.0
 20
-3523.537600412965
 10
0.0
 20
-3533.491096459329
 10
0.0
 20
-3543.4445925056934
 10
0.0
 20
-3553.3980885520577
 10
0.0
 20
-3563.351584598422
 10
0.0
 20
-3573.3050806447864
 10
0.0
 20
-3583.2585766911507
 10
0.0
 20
-3593.212072737515
 10
0.0
 20
-3603.1655687838793
 10
0.0
 20
-3613.1190648302436
 10
0.0
 20
-3623.072560876608
 10
0.0
 20
-3633.026056922972
 10
0.0
 20
-3642.9795529693365
 10
0.0
 20
-3652.933049015701
 10
0.0
 20
-3662.886545062065
 10
0.0
 20
-3672.8400411084294
 10
0.0
 20
-3682.7935371547937
 10
0.0
 20
-3692.747033201158
 10
0.0
 20
-3702.7005292475224
 10
0.0
 20
-3712.6540252938867
 10
0.0
 20
-3722.607521340251
 10
0.0
 20
-3732.5610173866153
 10
0.0
 20
-3742.5145134329796
 10
0.0
 20
-3752.468009479344
 10
0.0
 20
-3762.421505525708
 10
0.0
 20
-3772.3750015720725
 10
0.0
 20
-3782.328497618437
 10
0.0
 20
-3792.281993664801
 10
0.0
 20
-3802.2354897111654
 10
0.0
 20
-3812.1889857575297
 10
0.0
 20
-3822.142481803894
 10
0.0
 20
-3832.0959778502584
 10
0.0
 20
-3842.0494738966227
 10
0.0
 20
-3852.002969942987
 10
0.0
 20
-3861.9564659893513
 10
0.0
 20
-3871.9099620357156
 10
0.0
 20
-3881.86345808208
 10
0.0
 20
-3891.816954128444
 10
0.0
 20
-3901.7704501748085
 10
0.0
 20
-3911.723946221173
 10
0.0
 20
-3921.677442267537
 10
0.0
 20
-3931.6309383139014
 10
0.0
 20
-3941.5844343602657
 10
0.0
 20
-3951.53793040663
 10
0.0
 20
-3961.4914264529943
 10
0.0
 20
-3971.4449224993587
 10
0.0
 20
-3981.398418545723
 10
0.0
 20
-3991.3519145920873
 10
0.0
 20
-4001.3054106384516
 10
0.0
 20
-4011.258906684816
 10
0.0
 20
-4021.21240273118
 10
0.0
 20
-4031.1658987775445
 10
0.0
 20
-4041.119394823909
 10
0.0
 20
-4051.072890870273
 10
0.0
 20
-4061.0263869166374
 10
0.0
 20
-4070.9798829630017
 10
0.0
 20
-4080.933379009366
 10
0.0
 20
-4090.8868750557303
 10
0.0
 20
-4100.840371102095
 10
0.0
 20
-4110.793867148459
 10
0.0
 20
-4120.747363194823
 10
0.0
 20
-4130.700859241188
 10
0.0
 20
-4140.654355287552
 10
0.0
 20
-4150.607851333916
 10
0.0
 20
-4160.5613473802805
 10
0.0
 20
-4170.514843426645
 10
0.0
 20
-4180.468339473009
 10
0.0
 20
-4190.421835519373
 10
0.0
 20
-4200.375331565738
 10
0.0
 20
-4210.328827612102
 10
0.0
 20
-4220.282323658466
 10
0.0
 20
-4230.235819704831
 10
0.0
 20
-4240.189315751195
 10
0.0
 20
-4250.142811797559
 10
0.0
 20
-4260.096307843924
 10
0.0
 20
-4270.049803890288
 10
0.0
 20
-4280.003299936652
 10
0.0
 20
-4289.9567959830165
 10
0.0
 20
-4299.910292029381
 10
0.0
 20
-4309.863788075745
 10
0.0
 20
-4319.817284122109
 10
0.0
 20
-4329.770780168474
 10
0.0
 20
-4339.724276214838
 10
0.0
 20
-4349.677772261202
 10
0.0
 20
-4359.631268307567
 10
0.0
 20
-4369.584764353931
 10
0.0
 20
-4379.538260400295
 10
0.0
 20
-4389.49175644666
 10
0.0
 20
-4399.445252493024
 10
0.0
 20
-4409.398748539388
 10
0.0
 20
-4419.3522445857525
 10
0.0
 20
-4429.305740632117
 10
0.0
 20
-4439.259236678481
 10
0.0
 20
-4449.212732724845
 10
0.0
 20
-4459.16622877121
 10
0.0
 20
-4469.119724817574
 10
0.0
 20
-4479.073220863938
 10
0.0
 20
-4489.026716910303
 10
0.0
 20
-4498.980212956667
 10
0.0
 20
-4508.933709003031
 10
0.0
 20
-4518.887205049396
 10
0.0
 20
-4528.84070109576
 10
0.0
 20
-4538.794197142124
 10
0.0
 20
-4548.7476931884885
 10
0.0
 20
-4558.701189234853
 10
0.0
 20
-4568.654685281217
 10
0.0
 20
-4578.608181327581
 10
0.0
 20
-4588.561677373946
 10
0.0
 20
-4598.51517342031
 10
0.0
 20
-4608.468669466674
 10
0.0
 20
-4618.422165513039
 10
0.0
 20
-4628.375661559403
 10
0.0
 20
-4638.329157605767
 10
0.0
 20
-4648.282653652132
 10
0.0
 20
-4658.236149698496
 10
0.0
 20
-4668.18964574486
 10
0.0
 20
-4678.1431417912245
 10
0.0
 20
-4688.096637837589
 10
0.0
 20
-4698.050133883953
 10
0.0
 20
-4708.003629930317
 10
0.0
 20
-4717.957125976682
 10
0.0
 20
-4727.910622023046
 10
0.0
 20
-4737.86411806941
 10
0.0
 20
-4747.817614115775
 10
0.0
 20
-4757.771110162139
 10
0.0
 20
-4767.724606208503
 10
0.0
 20
-4777.678102254868
 10
0.0
 20
-4787.631598301232
 10
0.0
 20
-4797.585094347596
 10
0.0
 20
-4807.5385903939605
 10
0.0
 20
-4817.492086440325
 10
0.0
 20
-4827.445582486689
 10
0.0
 20
-4837.399078533053
 10
0.0
 20
-4847.352574579418
 10
0.0
 20
-4857.306070625782
 10
0.0
 20
-4867.259566672146
 10
0.0
 20
-4877.213062718511
 10
0.0
 20
-4887.166558764875
 10
0.0
 20
-4897.120054811239
 10
0.0
 20
-4907.073550857604
 10
0.0
 20
-4917.027046903968
 10
0.0
 20
-4926.980542950332
 10
0.0
 20
-4936.9340389966965
 10
0.0
 20
-4946.887535043061
 10
0.0
 20
-4956.841031089425
 10
0.0
 20
-4966.794527135789
 10
0.0
 20
-4976.748023182154
 10
0.0
 20
-4986.701519228518
 10
0.0
 20
-4996.655015274882
 10
0.0
 20
-5006.608511321247
 10
0.0
 20
-5016.562007367611
 10
0.0
 20
-5026.515503413975
 10
0.0
 20
-5036.46899946034
 10
0.0
 20
-5046.422495506704
 10
0.0
 20
-5056.375991553068
 10
0.0
 20
-5066.3294875994325
 10
0.0
 20
-5076.282983645797
 10
0.0
 20
-5086.236479692161
 10
9.953496046364307
 20
-5086.236479692161
 10
19.906992092728615
 20
-5086.236479692161
 10
29.860488139092922
 20
-5086.236479692161
 10
39.81398418545723
 20
-5086.236479692161
 10
49.76748023182154
 20
-5086.236479692161
 10
59.720976278185844
 20
-5086.236479692161
 10
69.67447232455015
 20
-5086.236479692161
 10
79.62796837091446
 20
-5086.236479692161
 10
89.58146441727877
 20
-5086.236479692161
 10
99.53496046364307
 20
-5086.236479692161
 10
109.48845651000738
 20
-5086.236479692161
 10
119.44195255637169
 20
-5086.236479692161
 10
129.395448602736
 20
-5086.236479692161
 10
139.3489446491003
 20
-5086.236479692161
 10
149.3024406954646
 20
-5086.236479692161
 10
159.25593674182892
 20
-5086.236479692161
 10
169.20943278819323
 20
-5086.236479692161
 10
179.16292883455753
 20
-5086.236479692161
 10
189.11642488092184
 20
-5086.236479692161
 10
199.06992092728615
 20
-5086.236479692161
 10
209.02341697365046
 20
-5086.236479692161
 10
218.97691302001476
 20
-5086.236479692161
 10
228.93040906637907
 20
-5086.236479692161
 10
238.88390511274338
 20
-5086.236479692161
 10
248.83740115910769
 20
-5086.236479692161
 10
258.790897205472
 20
-5086.236479692161
 10
268.7443932518363
 20
-5086.236479692161
 10
278.6978892982006
 20
-5086.236479692161
 10
288.6513853445649
 20
-5086.236479692161
 10
298.6048813909292
 20
-5086.236479692161
 10
308.55837743729353
 20
-5086.236479692161
 10
318.51187348365784
 20
-5086.236479692161
 10
328.46536953002214
 20
-5086.236479692161
 10
338.41886557638645
 20
-5086.236479692161
 10
348.37236162275076
 20
-5086.236479692161
 10
358.32585766911507
 20
-5086.236479692161
 10
368.2793537154794
 20
-5086.236479692161
 10
378.2328497618437
 20
-5086.236479692161
 10
388.186345808208
 20
-5086.236479692161
 10
398.1398418545723
 20
-5086.236479692161
 10
408.0933379009366
 20
-5086.236479692161
 10
418.0468339473009
 20
-5086.236479692161
 10
428.0003299936652
 20
-5086.236479692161
 10
437.9538260400295
 20
-5086.236479692161
 10
447.90732208639383
 20
-5086.236479692161
 10
457.86081813275814
 20
-5086.236479692161
 10
467.81431417912245
 20
-5086.236479692161
 10
477.76781022548676
 20
-5086.236479692161
 10
487.72130627185106
 20
-5086.236479692161
 10
497.67480231821537
 20
-5086.236479692161
 10
507.6282983645797
 20
-5086.236479692161
 10
517.581794410944
 20
-5086.236479692161
 10
527.5352904573083
 20
-5086.236479692161
 10
537.4887865036726
 20
-5086.236479692161
 10
547.4422825500369
 20
-5086.236479692161
 10
557.3957785964012
 20
-5086.236479692161
 10
567.3492746427655
 20
-5086.236479692161
 10
577.3027706891298
 20
-5086.236479692161
 10
587.2562667354941
 20
-5086.236479692161
 10
597.2097627818584
 20
-5086.236479692161
 10
607.1632588282228
 20
-5086.236479692161
 10
617.1167548745871
 20
-5086.236479692161
 10
627.0702509209514
 20
-5086.236479692161
 10
637.0237469673157
 20
-5086.236479692161
 10
646.97724301368
 20
-5086.236479692161
 10
656.9307390600443
 20
-5086.236479692161
 10
666.8842351064086
 20
-5086.236479692161
 10
676.8377311527729
 20
-5086.236479692161
 10
686.7912271991372
 20
-5086.236479692161
 10
696.7447232455015
 20
-5086.236479692161
 10
706.6982192918658
 20
-5086.236479692161
 10
716.6517153382301
 20
-5086.236479692161
 10
726.6052113845944
 20
-5086.236479692161
 10
736.5587074309587
 20
-5086.236479692161
 10
746.512203477323
 20
-5086.236479692161
 10
756.4656995236874
 20
-5086.236479692161
 10
766.4191955700517
 20
-5086.236479692161
 10
776.372691616416
 20
-5086.236479692161
 10
786.3261876627803
 20
-5086.236479692161
 10
796.2796837091446
 20
-5086.236479692161
 10
806.2331797555089
 20
-5086.236479692161
 10
816.1866758018732
 20
-5086.236479692161
 10
826.1401718482375
 20
-5086.236479692161
 10
836.0936678946018
 20
-5086.236479692161
 10
846.0471639409661
 20
-5086.236479692161
 10
856.0006599873304
 20
-5086.236479692161
 10
865.9541560336947
 20
-5086.236479692161
 10
875.907652080059
 20
-5086.236479692161
 10
885.8611481264234
 20
-5086.236479692161
 10
895.8146441727877
 20
-5086.236479692161
 10
905.768140219152
 20
-5086.236479692161
 10
915.7216362655163
 20
-5086.236479692161
 10
925.6751323118806
 20
-5086.236479692161
 10
935.6286283582449
 20
-5086.236479692161
 10
945.5821244046092
 20
-5086.236479692161
 10
955.5356204509735
 20
-5086.236479692161
 10
965.4891164973378
 20
-5086.236479692161
 10
975.4426125437021
 20
-5086.236479692161
 10
985.3961085900664
 20
-5086.236479692161
 10
995.3496046364307
 20
-5086.236479692161
 10
1005.303100682795
 20
-5086.236479692161
 10
1015.2565967291594
 20
-5086.236479692161
 10
1025.2100927755237
 20
-5086.236479692161
 10
1035.163588821888
 20
-5086.236479692161
 10
1045.1170848682523
 20
-5086.236479692161
 10
1055.0705809146166
 20
-5086.236479692161
 10
1065.024076960981
 20
-5086.236479692161
 10
1074.9775730073452
 20
-5086.236479692161
 10
1084.9310690537095
 20
-5086.236479692161
 10
1094.8845651000738
 20
-5086.236479692161
 10
1104.8380611464381
 20
-5086.236479692161
 10
1114.7915571928024
 20
-5086.236479692161
 10
1124.7450532391667
 20
-5086.236479692161
 10
1134.698549285531
 20
-5086.236479692161
 10
1144.6520453318954
 20
-5086.236479692161
 10
1154.6055413782597
 20
-5086.236479692161
 10
1164.559037424624
 20
-5086.236479692161
 10
1174.5125334709883
 20
-5086.236479692161
 10
1184.4660295173526
 20
-5086.236479692161
 10
1194.419525563717
 20
-5086.236479692161
 10
1204.3730216100812
 20
-5086.236479692161
 10
1214.3265176564455
 20
-5086.236479692161
 10
1224.2800137028098
 20
-5086.236479692161
 10
1234.2335097491741
 20
-5086.236479692161
 10
1244.1870057955384
 20
-5086.236479692161
 10
1254.1405018419027
 20
-5086.236479692161
 10
1264.093997888267
 20
-5086.236479692161
 10
1274.0474939346313
 20
-5086.236479692161
 10
1284.0009899809957
 20
-5086.236479692161
 10
1293.95448602736
 20
-5086.236479692161
 10
1303.9079820737243
 20
-5086.236479692161
 10
1313.8614781200886
 20
-5086.236479692161
 10
1323.8149741664529
 20
-5086.236479692161
 10
1333.7684702128172
 20
-5086.236479692161
 10
1343.7219662591815
 20
-5086.236479692161
 10
1353.6754623055458
 20
-5086.236479692161
 10
1363.6289583519101
 20
-5086.236479692161
 10
1373.5824543982744
 20
-5086.236479692161
 10
1383.5359504446387
 20
-5086.236479692161
 10
1393.489446491003
 20
-5086.236479692161
 10
1403.4429425373673
 20
-5086.236479692161
 10
1413.3964385837317
 20
-5086.236479692161
 10
1423.349934630096
 20
-5086.236479692161
 10
1433.3034306764603
 20
-5086.236479692161
 10
1443.2569267228246
 20
-5086.236479692161
 10
1453.2104227691889
 20
-5086.236479692161
 10
1463.1639188155532
 20
-5086.236479692161
 10
1473.1174148619175
 20
-5086.236479692161
 10
1483.0709109082818
 20
-5086.236479692161
 10
1493.024406954646
 20
-5086.236479692161
 10
1502.9779030010104
 20
-5086.236479692161
 10
1512.9313990473747
 20
-5086.236479692161
 10
1522.884895093739
 20
-5086.236479692161
 10
1532.8383911401033
 20
-5086.236479692161
 10
1542.7918871864676
 20
-5086.236479692161
 10
1552.745383232832
 20
-5086.236479692161
 10
1562.6988792791963
 20
-5086.236479692161
 10
1572.6523753255606
 20
-5086.236479692161
 10
1582.6058713719249
 20
-5086.236479692161
 10
1592.5593674182892
 20
-5086.236479692161
 10
1602.5128634646535
 20
-5086.236479692161
 10
1612.4663595110178
 20
-5086.236479692161
 10
1622.419855557382
 20
-5086.236479692161
 10
1632.3733516037464
 20
-5086.236479692161
 10
1642.3268476501107
 20
-5086.236479692161
 10
1652.280343696475
 20
-5086.236479692161
 10
1662.2338397428393
 20
-5086.236479692161
 10
1672.1873357892036
 20
-5086.236479692161
 10
1682.140831835568
 20
-5086.236479692161
 10
1692.0943278819323
 20
-5086.236479692161
 10
1702.0478239282966
 20
-5086.236479692161
 10
1712.0013199746609
 20
-5086.236479692161
 10
1721.9548160210252
 20
-5086.236479692161
 10
1731.9083120673895
 20
-5086.236479692161
 10
1741.8618081137538
 20
-5086.236479692161
 10
1751.815304160118
 20
-5086.236479692161
 10
1761.7688002064824
 20
-5086.236479692161
 10
1771.7222962528467
 20
-5086.236479692161
 10
1781.675792299211
 20
-5086.236479692161
 10
1791.6292883455753
 20
-5086.236479692161
 10
1801.5827843919396
 20
-5086.236479692161
 10
1811.536280438304
 20
-5086.236479692161
 10
1821.4897764846683
 20
-5086.236479692161
 10
1831.4432725310326
 20
-5086.236479692161
 10
1841.3967685773969
 20
-5086.236479692161
 10
1851.3502646237612
 20
-5086.236479692161
 10
1861.3037606701255
 20
-5086.236479692161
 10
1871.2572567164898
 20
-5086.236479692161
 10
1881.210752762854
 20
-5086.236479692161
 10
1891.1642488092184
 20
-5086.236479692161
 10
1901.1177448555827
 20
-5086.236479692161
 10
1911.071240901947
 20
-5086.236479692161
 10
1921.0247369483113
 20
-5086.236479692161
 10
1930.9782329946756
 20
-5086.236479692161
 10
1940.93172904104
 20
-5086.236479692161
 10
1950.8852250874043
 20
-5086.236479692161
 10
1960.8387211337686
 20
-5086.236479692161
 10
1970.7922171801329
 20
-5086.236479692161
 10
1980.7457132264972
 20
-5086.236479692161
 10
1990.6992092728615
 20
-5086.236479692161
 10
2000.6527053192258
 20
-5086.236479692161
 10
2010.60620136559
 20
-5086.236479692161
 10
2020.5596974119544
 20
-5086.236479692161
 10
2030.5131934583187
 20
-5086.236479692161
 10
2040.466689504683
 20
-5086.236479692161
 10
2050.4201855510473
 20
-5086.236479692161
 10
2060.3736815974116
 20
-5086.236479692161
 10
2070.327177643776
 20
-5086.236479692161
 10
2080.2806736901402
 20
-5086.236479692161
 10
2090.2341697365046
 20
-5086.236479692161
 10
2100.187665782869
 20
-5086.236479692161
 10
2110.141161829233
 20
-5086.236479692161
 10
2120.0946578755975
 20
-5086.236479692161
 10
2130.048153921962
 20
-5086.236479692161
 10
2140.001649968326
 20
-5086.236479692161
 10
2149.9551460146904
 20
-5086.236479692161
 10
2159.9086420610547
 20
-5086.236479692161
 10
2169.862138107419
 20
-5086.236479692161
 10
2179.8156341537833
 20
-5086.236479692161
 10
2189.7691302001476
 20
-5086.236479692161
 10
2199.722626246512
 20
-5086.236479692161
 10
2209.6761222928762
 20
-5086.236479692161
 10
2219.6296183392406
 20
-5086.236479692161
 10
2229.583114385605
 20
-5086.236479692161
 10
2239.536610431969
 20
-5086.236479692161
 10
2249.4901064783335
 20
-5086.236479692161
 10
2259.443602524698
 20
-5086.236479692161
 10
2269.397098571062
 20
-5086.236479692161
 10
2279.3505946174264
 20
-5086.236479692161
 10
2289.3040906637907
 20
-5086.236479692161
 10
2299.257586710155
 20
-5086.236479692161
 10
2309.2110827565193
 20
-5086.236479692161
 10
2319.1645788028836
 20
-5086.236479692161
 10
2329.118074849248
 20
-5086.236479692161
 10
2339.0715708956122
 20
-5086.236479692161
 10
2349.0250669419765
 20
-5086.236479692161
 10
2358.978562988341
 20
-5086.236479692161
 10
2368.932059034705
 20
-5086.236479692161
 10
2378.8855550810695
 20
-5086.236479692161
 10
2388.839051127434
 20
-5086.236479692161
 10
2398.792547173798
 20
-5086.236479692161
 10
2408.7460432201624
 20
-5086.236479692161
 10
2418.6995392665267
 20
-5086.236479692161
 10
2428.653035312891
 20
-5086.236479692161
 10
2438.6065313592553
 20
-5086.236479692161
 10
2448.5600274056196
 20
-5086.236479692161
 10
2458.513523451984
 20
-5086.236479692161
 10
2468.4670194983482
 20
-5086.236479692161
 10
2478.4205155447125
 20
-5086.236479692161
 10
2488.374011591077
 20
-5086.236479692161
 10
2498.327507637441
 20
-5086.236479692161
 10
2508.2810036838055
 20
-5086.236479692161
 10
2518.23449973017
 20
-5086.236479692161
 10
2528.187995776534
 20
-5086.236479692161
 10
2538.1414918228984
 20
-5086.236479692161
 10
2548.0949878692627
 20
-5086.236479692161
 10
2558.048483915627
 20
-5086.236479692161
 10
2568.0019799619913
 20
-5086.236479692161
 10
2577.9554760083556
 20
-5086.236479692161
 10
2587.90897205472
 20
-5086.236479692161
 10
2597.8624681010842
 20
-5086.236479692161
 10
2607.8159641474485
 20
-5086.236479692161
 10
2617.769460193813
 20
-5086.236479692161
 10
2627.722956240177
 20
-5086.236479692161
 10
2637.6764522865415
 20
-5086.236479692161
 10
2647.6299483329058
 20
-5086.236479692161
 10
2657.58344437927
 20
-5086.236479692161
 10
2667.5369404256344
 20
-5086.236479692161
 10
2677.4904364719987
 20
-5086.236479692161
 10
2687.443932518363
 20
-5086.236479692161
 10
2697.3974285647273
 20
-5086.236479692161
 10
2707.3509246110916
 20
-5086.236479692161
 10
2717.304420657456
 20
-5086.236479692161
 10
2727.2579167038202
 20
-5086.236479692161
 10
2737.2114127501845
 20
-5086.236479692161
 10
2747.164908796549
 20
-5086.236479692161
 10
2757.118404842913
 20
-5086.236479692161
 10
2767.0719008892775
 20
-5086.236479692161
 10
2777.0253969356418
 20
-5086.236479692161
 10
2786.978892982006
 20
-5086.236479692161
 10
2796.9323890283704
 20
-5086.236479692161
 10
2806.8858850747347
 20
-5086.236479692161
 10
2816.839381121099
 20
-5086.236479692161
 10
2826.7928771674633
 20
-5086.236479692161
 10
2836.7463732138276
 20
-5086.236479692161
 10
2846.699869260192
 20
-5086.236479692161
 10
2856.653365306556
 20
-5086.236479692161
 10
2866.6068613529205
 20
-5086.236479692161
 10
2876.560357399285
 20
-5086.236479692161
 10
2886.513853445649
 20
-5086.236479692161
 10
2896.4673494920135
 20
-5086.236479692161
 10
2906.4208455383778
 20
-5086.236479692161
 10
2916.374341584742
 20
-5086.236479692161
 10
2926.3278376311064
 20
-5086.236479692161
 10
2936.2813336774707
 20
-5086.236479692161
 10
2946.234829723835
 20
-5086.236479692161
 10
2956.1883257701993
 20
-5086.236479692161
 10
2966.1418218165636
 20
-5086.236479692161
 10
2976.095317862928
 20
-5086.236479692161
 10
2986.048813909292
 20
-5086.236479692161
 10
2996.0023099556565
 20
-5086.236479692161
 10
3005.955806002021
 20
-5086.236479692161
 10
3015.909302048385
 20
-5086.236479692161
 10
3025.8627980947495
 20
-5086.236479692161
 10
3035.8162941411138
 20
-5086.236479692161
 10
3045.769790187478
 20
-5086.236479692161
 10
3055.7232862338424
 20
-5086.236479692161
 10
3065.6767822802067
 20
-5086.236479692161
 10
3075.630278326571
 20
-5086.236479692161
 10
3085.5837743729353
 20
-5086.236479692161
 10
3095.5372704192996
 20
-5086.236479692161
 10
3105.490766465664
 20
-5086.236479692161
 10
3115.444262512028
 20
-5086.236479692161
 10
3125.3977585583925
 20
-5086.236479692161
 10
3135.351254604757
 20
-5086.236479692161
 10
3145.304750651121
 20
-5086.236479692161
 10
3155.2582466974854
 20
-5086.236479692161
 10
3165.2117427438498
 20
-5086.236479692161
 10
3175.165238790214
 20
-5086.236479692161
 10
3185.1187348365784
 20
-5086.236479692161
 10
3195.0722308829427
 20
-5086.236479692161
 10
3205.025726929307
 20
-5086.236479692161
 10
3214.9792229756713
 20
-5086.236479692161
 10
3224.9327190220356
 20
-5086.236479692161
 10
3234.8862150684
 20
-5086.236479692161
 10
3244.839711114764
 20
-5086.236479692161
 10
3254.7932071611285
 20
-5086.236479692161
 10
3264.746703207493
 20
-5086.236479692161
 10
3274.700199253857
 20
-5086.236479692161
 10
3284.6536953002214
 20
-5086.236479692161
 10
3294.6071913465858
 20
-5086.236479692161
 10
3304.56068739295
 20
-5086.236479692161
 10
3314.5141834393144
 20
-5086.236479692161
 10
3324.4676794856787
 20
-5086.236479692161
 10
3334.421175532043
 20
-5086.236479692161
 10
3344.3746715784073
 20
-5086.236479692161
 10
3354.3281676247716
 20
-5086.236479692161
 10
3364.281663671136
 20
-5086.236479692161
 10
3374.2351597175
 20
-5086.236479692161
 10
3384.1886557638645
 20
-5086.236479692161
 10
3394.142151810229
 20
-5086.236479692161
 10
3404.095647856593
 20
-5086.236479692161
 10
3414.0491439029574
 20
-5086.236479692161
 10
3424.0026399493217
 20
-5086.236479692161
 10
3433.956135995686
 20
-5086.236479692161
 10
3443.9096320420504
 20
-5086.236479692161
 10
3453.8631280884147
 20
-5086.236479692161
 10
3463.816624134779
 20
-5086.236479692161
 10
3473.7701201811433
 20
-5086.236479692161
 10
3483.7236162275076
 20
-5086.236479692161
 10
3493.677112273872
 20
-5086.236479692161
 10
3503.630608320236
 20
-5086.236479692161
 10
3513.5841043666005
 20
-5086.236479692161
 10
3523.537600412965
 20
-5086.236479692161
 10
3533.491096459329
 20
-5086.236479692161
 10
3543.4445925056934
 20
-5086.236479692161
 10
3553.3980885520577
 20
-5086.236479692161
 10
3563.351584598422
 20
-5086.236479692161
 10
3573.3050806447864
 20
-5086.236479692161
 10
3583.2585766911507
 20
-5086.236479692161
 10
3593.212072737515
 20
-5086.236479692161
 10
3603.1655687838793
 20
-5086.236479692161
 10
3613.1190648302436
 20
-5086.236479692161
 10
3623.072560876608
 20
-5086.236479692161
 10
3633.026056922972
 20
-5086.236479692161
 10
3642.9795529693365
 20
-5086.236479692161
 10
3652.933049015701
 20
-5086.236479692161
 10
3662.886545062065
 20
-5086.236479692161
 10
3672.8400411084294
 20
-5086.236479692161
 10
3682.7935371547937
 20
-5086.236479692161
 10
3692.747033201158
 20
-5086.236479692161
 10
3702.7005292475224
 20
-5086.236479692161
 10
3712.6540252938867
 20
-5086.236479692161
 10
3722.607521340251
 20
-5086.236479692161
 10
3732.5610173866153
 20
-5086.236479692161
 10
3742.5145134329796
 20
-5086.236479692161
 10
3752.468009479344
 20
-5086.236479692161
 10
3762.421505525708
 20
-5086.236479692161
 10
3772.3750015720725
 20
-5086.236479692161
 10
3782.328497618437
 20
-5086.236479692161
 10
3792.281993664801
 20
-5086.236479692161
 10
3802.2354897111654
 20
-5086.236479692161
 10
3812.1889857575297
 20
-5086.236479692161
 10
3822.142481803894
 20
-5086.236479692161
 10
3832.0959778502584
 20
-5086.236479692161
 10
3842.0494738966227
 20
-5086.236479692161
 10
3852.002969942987
 20
-5086.236479692161
 10
3861.9564659893513
 20
-5086.236479692161
 10
3871.9099620357156
 20
-5086.236479692161
 10
3881.86345808208
 20
-5086.236479692161
 10
3891.816954128444
 20
-5086.236479692161
 10
3901.7704501748085
 20
-5086.236479692161
 10
3911.723946221173
 20
-5086.236479692161
 10
3921.677442267537
 20
-5086.236479692161
 10
3931.6309383139014
 20
-5086.236479692161
 10
3941.5844343602657
 20
-5086.236479692161
 10
3951.53793040663
 20
-5086.236479692161
 10
3961.4914264529943
 20
-5086.236479692161
 10
3971.4449224993587
 20
-5086.236479692161
 10
3981.398418545723
 20
-5086.236479692161
 10
3991.3519145920873
 20
-5086.236479692161
 10
4001.3054106384516
 20
-5086.236479692161
 10
4011.258906684816
 20
-5086.236479692161
 10
4021.21240273118
 20
-5086.236479692161
 10
4031.1658987775445
 20
-5086.236479692161
 10
4041.119394823909
 20
-5086.236479692161
 10
4051.072890870273
 20
-5086.236479692161
 10
4061.0263869166374
 20
-5086.236479692161
 10
4070.9798829630017
 20
-5086.236479692161
 10
4080.933379009366
 20
-5086.236479692161
 10
4090.8868750557303
 20
-5086.236479692161
 10
4100.840371102095
 20
-5086.236479692161
 10
4110.793867148459
 20
-5086.236479692161
 10
4120.747363194823
 20
-5086.236479692161
 10
4130.700859241188
 20
-5086.236479692161
 10
4140.654355287552
 20
-5086.236479692161
 10
4150.607851333916
 20
-5086.236479692161
 10
4160.5613473802805
 20
-5086.236479692161
 10
4170.514843426645
 20
-5086.236479692161
 10
4180.468339473009
 20
-5086.236479692161
 10
4190.421835519373
 20
-5086.236479692161
 10
4200.375331565738
 20
-5086.236479692161
 10
4210.328827612102
 20
-5086.236479692161
 10
4220.282323658466
 20
-5086.236479692161
 10
4230.235819704831
 20
-5086.236479692161
 10
4240.189315751195
 20
-5086.236479692161
 10
4250.142811797559
 20
-5086.236479692161
 10
4260.096307843924
 20
-5086.236479692161
 10
4270.049803890288
 20
-5086.236479692161
 10
4280.003299936652
 20
-5086.236479692161
 10
4289.9567959830165
 20
-5086.236479692161
 10
4299.910292029381
 20
-5086.236479692161
 10
4309.863788075745
 20
-5086.236479692161
 10
4319.817284122109
 20
-5086.236479692161
 10
4329.770780168474
 20
-5086.236479692161
 10
4339.724276214838
 20
-5086.236479692161
 10
4349.677772261202
 20
-5086.236479692161
 10
4359.631268307567
 20
-5086.236479692161
 10
4369.584764353931
 20
-5086.236479692161
 10
4379.538260400295
 20
-5086.236479692161
 10
4389.49175644666
 20
-5086.236479692161
 10
4399.445252493024
 20
-5086.236479692161
 10
4409.398748539388
 20
-5086.236479692161
 10
4419.3522445857525
 20
-5086.236479692161
 10
4429.305740632117
 20
-5086.236479692161
 10
4439.259236678481
 20
-5086.236479692161
 10
4449.212732724845
 20
-5086.236479692161
 10
4459.16622877121
 20
-5086.236479692161
 10
4469.119724817574
 20
-5086.236479692161
 10
4479.073220863938
 20
-5086.236479692161
 10
4489.026716910303
 20
-5086.236479692161
 10
4498.980212956667
 20
-5086.236479692161
 10
4508.933709003031
 20
-5086.236479692161
 10
4518.887205049396
 20
-5086.236479692161
 10
4528.84070109576
 20
-5086.236479692161
 10
4538.794197142124
 20
-5086.236479692161
 10
4548.7476931884885
 20
-5086.236479692161
 10
4558.701189234853
 20
-5086.236479692161
 10
4568.654685281217
 20
-5086.236479692161
 10
4578.608181327581
 20
-5086.236479692161
 10
4588.561677373946
 20
-5086.236479692161
 10
4598.51517342031
 20
-5086.236479692161
 10
4608.468669466674
 20
-5086.236479692161
 10
4618.422165513039
 20
-5086.236479692161
 10
4628.375661559403
 20
-5086.236479692161
 10
4638.329157605767
 20
-5086.236479692161
 10
4648.282653652132
 20
-5086.236479692161
 10
4658.236149698496
 20
-5086.236479692161
 10
4668.18964574486
 20
-5086.236479692161
 10
4678.1431417912245
 20
-5086.236479692161
 10
4688.096637837589
 20
-5086.236479692161
 10
4698.050133883953
 20
-5086.236479692161
 10
4708.003629930317
 20
-5086.236479692161
 10
4717.957125976682
 20
-5086.236479692161
 10
4727.910622023046
 20
-5086.236479692161
 10
4737.86411806941
 20
-5086.236479692161
 10
4747.817614115775
 20
-5086.236479692161
 10
4757.771110162139
 20
-5086.236479692161
 10
4767.724606208503
 20
-5086.236479692161
 10
4777.678102254868
 20
-5086.236479692161
 10
4787.631598301232
 20
-5086.236479692161
 10
4797.585094347596
 20
-5086.236479692161
 10
4807.5385903939605
 20
-5086.236479692161
 10
4817.492086440325
 20
-5086.236479692161
 10
4827.445582486689
 20
-5086.236479692161
 10
4837.399078533053
 20
-5086.236479692161
 10
4847.352574579418
 20
-5086.236479692161
 10
4857.306070625782
 20
-5086.236479692161
 10
4867.259566672146
 20
-5086.236479692161
 10
4877.213062718511
 20
-5086.236479692161
 10
4887.166558764875
 20
-5086.236479692161
 10
4897.120054811239
 20
-5086.236479692161
 10
4907.073550857604
 20
-5086.236479692161
 10
4917.027046903968
 20
-5086.236479692161
 10
4926.980542950332
 20
-5086.236479692161
 10
4936.9340389966965
 20
-5086.236479692161
 10
4946.887535043061
 20
-5086.236479692161
 10
4956.841031089425
 20
-5086.236479692161
 10
4966.794527135789
 20
-5086.236479692161
 10
4976.748023182154
 20
-5086.236479692161
 10
4986.701519228518
 20
-5086.236479692161
 10
4996.655015274882
 20
-5086.236479692161
 10
5006.608511321247
 20
-5086.236479692161
 10
5016.562007367611
 20
-5086.236479692161
 10
5026.515503413975
 20
-5086.236479692161
 10
5036.46899946034
 20
-5086.236479692161
 10
5046.422495506704
 20
-5086.236479692161
 10
5056.375991553068
 20
-5086.236479692161
 10
5066.3294875994325
 20
-5086.236479692161
 10
5076.282983645797
 20
-5086.236479692161
 10
5086.236479692161
 20
-5086.236479692161
 10
5086.236479692161
 20
-5076.282983645797
 10
5086.236479692161
 20
-5066.3294875994325
 10
5086.236479692161
 20
-5056.375991553068
 10
5086.236479692161
 20
-5046.422495506704
 10
5086.236479692161
 20
-5036.46899946034
 10
5086.236479692161
 20
-5026.515503413975
 10
5086.236479692161
 20
-5016.562007367611
 10
5086.236479692161
 20
-5006.608511321247
 10
5086.236479692161
 20
-4996.655015274882
 10
5086.236479692161
 20
-4986.701519228518
 10
5086.236479692161
 20
-4976.748023182154
 10
5086.236479692161
 20
-4966.794527135789
 10
5086.236479692161
 20
-4956.841031089425
 10
5086.236479692161
 20
-4946.887535043061
 10
5086.236479692161
 20
-4936.9340389966965
 10
5086.236479692161
 20
-4926.980542950332
 10
5086.236479692161
 20
-4917.027046903968
 10
5086.236479692161
 20
-4907.073550857604
 10
5086.236479692161
 20
-4897.120054811239
 10
5086.236479692161
 20
-4887.166558764875
 10
5086.236479692161
 20
-4877.213062718511
 10
5086.236479692161
 20
-4867.259566672146
 10
5086.236479692161
 20
-4857.306070625782
 10
5086.236479692161
 20
-4847.352574579418
 10
5086.236479692161
 20
-4837.399078533053
 10
5086.236479692161
 20
-4827.445582486689
 10
5086.236479692161
 20
-4817.492086440325
 10
5086.236479692161
 20
-4807.5385903939605
 10
5086.236479692161
 20
-4797.585094347596
 10
5086.236479692161
 20
-4787.631598301232
 10
5086.236479692161
 20
-4777.678102254868
 10
5086.236479692161
 20
-4767.724606208503
 10
5086.236479692161
 20
-4757.771110162139
 10
5086.236479692161
 20
-4747.817614115775
 10
5086.236479692161
 20
-4737.86411806941
 10
5086.236479692161
 20
-4727.910622023046
 10
5086.236479692161
 20
-4717.957125976682
 10
5086.236479692161
 20
-4708.003629930317
 10
5086.236479692161
 20
-4698.050133883953
 10
5086.236479692161
 20
-4688.096637837589
 10
5086.236479692161
 20
-4678.1431417912245
 10
5086.236479692161
 20
-4668.18964574486
 10
5086.236479692161
 20
-4658.236149698496
 10
5086.236479692161
 20
-4648.282653652132
 10
5086.236479692161
 20
-4638.329157605767
 10
5086.236479692161
 20
-4628.375661559403
 10
5086.236479692161
 20
-4618.422165513039
 10
5086.236479692161
 20
-4608.468669466674
 10
5086.236479692161
 20
-4598.51517342031
 10
5086.236479692161
 20
-4588.561677373946
 10
5086.236479692161
 20
-4578.608181327581
 10
5086.236479692161
 20
-4568.654685281217
 10
5086.236479692161
 20
-4558.701189234853
 10
5086.236479692161
 20
-4548.7476931884885
 10
5086.236479692161
 20
-4538.794197142124
 10
5086.236479692161
 20
-4528.84070109576
 10
5086.236479692161
 20
-4518.887205049396
 10
5086.236479692161
 20
-4508.933709003031
 10
5086.236479692161
 20
-4498.980212956667
 10
5086.236479692161
 20
-4489.026716910303
 10
5086.236479692161
 20
-4479.073220863938
 10
5086.236479692161
 20
-4469.119724817574
 10
5086.236479692161
 20
-4459.16622877121
 10
5086.236479692161
 20
-4449.212732724845
 10
5086.236479692161
 20
-4439.259236678481
 10
5086.236479692161
 20
-4429.305740632117
 10
5086.236479692161
 20
-4419.3522445857525
 10
5086.236479692161
 20
-4409.398748539388
 10
5086.236479692161
 20
-4399.445252493024
 10
5086.236479692161
 20
-4389.49175644666
 10
5086.236479692161
 20
-4379.538260400295
 10
5086.236479692161
 20
-4369.584764353931
 10
5086.236479692161
 20
-4359.631268307567
 10
5086.236479692161
 20
-4349.677772261202
 10
5086.236479692161
 20
-4339.724276214838
 10
5086.236479692161
 20
-4329.770780168474
 10
5086.236479692161
 20
-4319.817284122109
 10
5086.236479692161
 20
-4309.863788075745
 10
5086.236479692161
 20
-4299.910292029381
 10
5086.236479692161
 20
-4289.9567959830165
 10
5086.236479692161
 20
-4280.003299936652
 10
5086.236479692161
 20
-4270.049803890288
 10
5086.236479692161
 20
-4260.096307843924
 10
5086.236479692161
 20
-4250.142811797559
 10
5086.236479692161
 20
-4240.189315751195
 10
5086.236479692161
 20
-4230.235819704831
 10
5086.236479692161
 20
-4220.282323658466
 10
5086.236479692161
 20
-4210.328827612102
 10
5086.236479692161
 20
-4200.375331565738
 10
5086.236479692161
 20
-4190.421835519373
 10
5086.236479692161
 20
-4180.468339473009
 10
5086.236479692161
 20
-4170.514843426645
 10
5086.236479692161
 20
-4160.5613473802805
 10
5086.236479692161
 20
-4150.607851333916
 10
5086.236479692161
 20
-4140.654355287552
 10
5086.236479692161
 20
-4130.700859241188
 10
5086.236479692161
 20
-4120.747363194823
 10
5086.236479692161
 20
-4110.793867148459
 10
5086.236479692161
 20
-4100.840371102095
 10
5086.236479692161
 20
-4090.8868750557303
 10
5086.236479692161
 20
-4080.933379009366
 10
5086.236479692161
 20
-4070.9798829630017
 10
5086.236479692161
 20
-4061.0263869166374
 10
5086.236479692161
 20
-4051.072890870273
 10
5086.236479692161
 20
-4041.119394823909
 10
5086.236479692161
 20
-4031.1658987775445
 10
5086.236479692161
 20
-4021.21240273118
 10
5086.236479692161
 20
-4011.258906684816
 10
5086.236479692161
 20
-4001.3054106384516
 10
5086.236479692161
 20
-3991.3519145920873
 10
5086.236479692161
 20
-3981.398418545723
 10
5086.236479692161
 20
-3971.4449224993587
 10
5086.236479692161
 20
-3961.4914264529943
 10
5086.236479692161
 20
-3951.53793040663
 10
5086.236479692161
 20
-3941.5844343602657
 10
5086.236479692161
 20
-3931.6309383139014
 10
5086.236479692161
 20
-3921.677442267537
 10
5086.236479692161
 20
-3911.723946221173
 10
5086.236479692161
 20
-3901.7704501748085
 10
5086.236479692161
 20
-3891.816954128444
 10
5086.236479692161
 20
-3881.86345808208
 10
5086.236479692161
 20
-3871.9099620357156
 10
5086.236479692161
 20
-3861.9564659893513
 10
5086.236479692161
 20
-3852.002969942987
 10
5086.236479692161
 20
-3842.0494738966227
 10
5086.236479692161
 20
-3832.0959778502584
 10
5086.236479692161
 20
-3822.142481803894
 10
5086.236479692161
 20
-3812.1889857575297
 10
5086.236479692161
 20
-3802.2354897111654
 10
5086.236479692161
 20
-3792.281993664801
 10
5086.236479692161
 20
-3782.328497618437
 10
5086.236479692161
 20
-3772.3750015720725
 10
5086.236479692161
 20
-3762.421505525708
 10
5086.236479692161
 20
-3752.468009479344
 10
5086.236479692161
 20
-3742.5145134329796
 10
5086.236479692161
 20
-3732.5610173866153
 10
5086.236479692161
 20
-3722.607521340251
 10
5086.236479692161
 20
-3712.6540252938867
 10
5086.236479692161
 20
-3702.7005292475224
 10
5086.236479692161
 20
-3692.747033201158
 10
5086.236479692161
 20
-3682.7935371547937
 10
5086.236479692161
 20
-3672.8400411084294
 10
5086.236479692161
 20
-3662.886545062065
 10
5086.236479692161
 20
-3652.933049015701
 10
5086.236479692161
 20
-3642.9795529693365
 10
5086.236479692161
 20
-3633.026056922972
 10
5086.236479692161
 20
-3623.072560876608
 10
5086.236479692161
 20
-3613.1190648302436
 10
5086.236479692161
 20
-3603.1655687838793
 10
5086.236479692161
 20
-3593.212072737515
 10
5086.236479692161
 20
-3583.2585766911507
 10
5086.236479692161
 20
-3573.3050806447864
 10
5086.236479692161
 20
-3563.351584598422
 10
5086.236479692161
 20
-3553.3980885520577
 10
5086.236479692161
 20
-3543.4445925056934
 10
5086.236479692161
 20
-3533.491096459329
 10
5086.236479692161
 20
-3523.537600412965
 10
5086.236479692161
 20
-3513.5841043666005
 10
5086.236479692161
 20
-3503.630608320236
 10
5086.236479692161
 20
-3493.677112273872
 10
5086.236479692161
 20
-3483.7236162275076
 10
5086.236479692161
 20
-3473.7701201811433
 10
5086.236479692161
 20
-3463.816624134779
 10
5086.236479692161
 20
-3453.8631280884147
 10
5086.236479692161
 20
-3443.9096320420504
 10
5086.236479692161
 20
-3433.956135995686
 10
5086.236479692161
 20
-3424.0026399493217
 10
5086.236479692161
 20
-3414.0491439029574
 10
5086.236479692161
 20
-3404.095647856593
 10
5086.236479692161
 20
-3394.142151810229
 10
5086.236479692161
 20
-3384.1886557638645
 10
5086.236479692161
 20
-3374.2351597175
 10
5086.236479692161
 20
-3364.281663671136
 10
5086.236479692161
 20
-3354.3281676247716
 10
5086.236479692161
 20
-3344.3746715784073
 10
5086.236479692161
 20
-3334.421175532043
 10
5086.236479692161
 20
-3324.4676794856787
 10
5086.236479692161
 20
-3314.5141834393144
 10
5086.236479692161
 20
-3304.56068739295
 10
5086.236479692161
 20
-3294.6071913465858
 10
5086.236479692161
 20
-3284.6536953002214
 10
5086.236479692161
 20
-3274.700199253857
 10
5086.236479692161
 20
-3264.746703207493
 10
5086.236479692161
 20
-3254.7932071611285
 10
5086.236479692161
 20
-3244.839711114764
 10
5086.236479692161
 20
-3234.8862150684
 10
5086.236479692161
 20
-3224.9327190220356
 10
5086.236479692161
 20
-3214.9792229756713
 10
5086.236479692161
 20
-3205.025726929307
 10
5086.236479692161
 20
-3195.0722308829427
 10
5086.236479692161
 20
-3185.1187348365784
 10
5086.236479692161
 20
-3175.165238790214
 10
5086.236479692161
 20
-3165.2117427438498
 10
5086.236479692161
 20
-3155.2582466974854
 10
5086.236479692161
 20
-3145.304750651121
 10
5086.236479692161
 20
-3135.351254604757
 10
5086.236479692161
 20
-3125.3977585583925
 10
5086.236479692161
 20
-3115.444262512028
 10
5086.236479692161
 20
-3105.490766465664
 10
5086.236479692161
 20
-3095.5372704192996
 10
5086.236479692161
 20
-3085.5837743729353
 10
5086.236479692161
 20
-3075.630278326571
 10
5086.236479692161
 20
-3065.6767822802067
 10
5086.236479692161
 20
-3055.7232862338424
 10
5086.236479692161
 20
-3045.769790187478
 10
5086.236479692161
 20
-3035.8162941411138
 10
5086.236479692161
 20
-3025.8627980947495
 10
5086.236479692161
 20
-3015.909302048385
 10
5086.236479692161
 20
-3005.955806002021
 10
5086.236479692161
 20
-2996.0023099556565
 10
5086.236479692161
 20
-2986.048813909292
 10
5086.236479692161
 20
-2976.095317862928
 10
5086.236479692161
 20
-2966.1418218165636
 10
5086.236479692161
 20
-2956.1883257701993
 10
5086.236479692161
 20
-2946.234829723835
 10
5086.236479692161
 20
-2936.2813336774707
 10
5086.236479692161
 20
-2926.3278376311064
 10
5086.236479692161
 20
-2916.374341584742
 10
5086.236479692161
 20
-2906.4208455383778
 10
5086.236479692161
 20
-2896.4673494920135
 10
5086.236479692161
 20
-2886.513853445649
 10
5086.236479692161
 20
-2876.560357399285
 10
5086.236479692161
 20
-2866.6068613529205
 10
5086.236479692161
 20
-2856.653365306556
 10
5086.236479692161
 20
-2846.699869260192
 10
5086.236479692161
 20
-2836.7463732138276
 10
5086.236479692161
 20
-2826.7928771674633
 10
5086.236479692161
 20
-2816.839381121099
 10
5086.236479692161
 20
-2806.8858850747347
 10
5086.236479692161
 20
-2796.9323890283704
 10
5086.236479692161
 20
-2786.978892982006
 10
5086.236479692161
 20
-2777.0253969356418
 10
5086.236479692161
 20
-2767.0719008892775
 10
5086.236479692161
 20
-2757.118404842913
 10
5086.236479692161
 20
-2747.164908796549
 10
5086.236479692161
 20
-2737.2114127501845
 10
5086.236479692161
 20
-2727.2579167038202
 10
5086.236479692161
 20
-2717.304420657456
 10
5086.236479692161
 20
-2707.3509246110916
 10
5086.236479692161
 20
-2697.3974285647273
 10
5086.236479692161
 20
-2687.443932518363
 10
5086.236479692161
 20
-2677.4904364719987
 10
5086.236479692161
 20
-2667.5369404256344
 10
5086.236479692161
 20
-2657.58344437927
 10
5086.236479692161
 20
-2647.6299483329058
 10
5086.236479692161
 20
-2637.6764522865415
 10
5086.236479692161
 20
-2627.722956240177
 10
5086.236479692161
 20
-2617.769460193813
 10
5086.236479692161
 20
-2607.8159641474485
 10
5086.236479692161
 20
-2597.8624681010842
 10
5086.236479692161
 20
-2587.90897205472
 10
5086.236479692161
 20
-2577.9554760083556
 10
5086.236479692161
 20
-2568.0019799619913
 10
5086.236479692161
 20
-2558.048483915627
 10
5086.236479692161
 20
-2548.0949878692627
 10
5086.236479692161
 20
-2538.1414918228984
 10
5086.236479692161
 20
-2528.187995776534
 10
5086.236479692161
 20
-2518.23449973017
 10
5086.236479692161
 20
-2508.2810036838055
 10
5086.236479692161
 20
-2498.327507637441
 10
5086.236479692161
 20
-2488.374011591077
 10
5086.236479692161
 20
-2478.4205155447125
 10
5086.236479692161
 20
-2468.4670194983482
 10
5086.236479692161
 20
-2458.513523451984
 10
5086.236479692161
 20
-2448.5600274056196
 10
5086.236479692161
 20
-2438.6065313592553
 10
5086.236479692161
 20
-2428.653035312891
 10
5086.236479692161
 20
-2418.6995392665267
 10
5086.236479692161
 20
-2408.7460432201624
 10
5086.236479692161
 20
-2398.792547173798
 10
5086.236479692161
 20
-2388.839051127434
 10
5086.236479692161
 20
-2378.8855550810695
 10
5086.236479692161
 20
-2368.932059034705
 10
5086.236479692161
 20
-2358.978562988341
 10
5086.236479692161
 20
-2349.0250669419765
 10
5086.236479692161
 20
-2339.0715708956122
 10
5086.236479692161
 20
-2329.118074849248
 10
5086.236479692161
 20
-2319.1645788028836
 10
5086.236479692161
 20
-2309.2110827565193
 10
5086.236479692161
 20
-2299.257586710155
 10
5086.236479692161
 20
-2289.3040906637907
 10
5086.236479692161
 20
-2279.3505946174264
 10
5086.236479692161
 20
-2269.397098571062
 10
5086.236479692161
 20
-2259.443602524698
 10
5086.236479692161
 20
-2249.4901064783335
 10
5086.236479692161
 20
-2239.536610431969
 10
5086.236479692161
 20
-2229.583114385605
 10
5086.236479692161
 20
-2219.6296183392406
 10
5086.236479692161
 20
-2209.6761222928762
 10
5086.236479692161
 20
-2199.722626246512
 10
5086.236479692161
 20
-2189.7691302001476
 10
5086.236479692161
 20
-2179.8156341537833
 10
5086.236479692161
 20
-2169.862138107419
 10
5086.236479692161
 20
-2159.9086420610547
 10
5086.236479692161
 20
-2149.9551460146904
 10
5086.236479692161
 20
-2140.001649968326
 10
5086.236479692161
 20
-2130.048153921962
 10
5086.236479692161
 20
-2120.0946578755975
 10
5086.236479692161
 20
-2110.141161829233
 10
5086.236479692161
 20
-2100.187665782869
 10
5086.236479692161
 20
-2090.2341697365046
 10
5086.236479692161
 20
-2080.2806736901402
 10
5086.236479692161
 20
-2070.327177643776
 10
5086.236479692161
 20
-2060.3736815974116
 10
5086.236479692161
 20
-2050.4201855510473
 10
5086.236479692161
 20
-2040.466689504683
 10
5086.236479692161
 20
-2030.5131934583187
 10
5086.236479692161
 20
-2020.5596974119544
 10
5086.236479692161
 20
-2010.60620136559
 10
5086.236479692161
 20
-2000.6527053192258
 10
5086.236479692161
 20
-1990.6992092728615
 10
5086.236479692161
 20
-1980.7457132264972
 10
5086.236479692161
 20
-1970.7922171801329
 10
5086.236479692161
 20
-1960.8387211337686
 10
5086.236479692161
 20
-1950.8852250874043
 10
5086.236479692161
 20
-1940.93172904104
 10
5086.236479692161
 20
-1930.9782329946756
 10
5086.236479692161
 20
-1921.0247369483113
 10
5086.236479692161
 20
-1911.071240901947
 10
5086.236479692161
 20
-1901.1177448555827
 10
5086.236479692161
 20
-1891.1642488092184
 10
5086.236479692161
 20
-1881.210752762854
 10
5086.236479692161
 20
-1871.2572567164898
 10
5086.236479692161
 20
-1861.3037606701255
 10
5086.236479692161
 20
-1851.3502646237612
 10
5086.236479692161
 20
-1841.3967685773969
 10
5086.236479692161
 20
-1831.4432725310326
 10
5086.236479692161
 20
-1821.4897764846683
 10
5086.236479692161
 20
-1811.536280438304
 10
5086.236479692161
 20
-1801.5827843919396
 10
5086.236479692161
 20
-1791.6292883455753
 10
5086.236479692161
 20
-1781.675792299211
 10
5086.236479692161
 20
-1771.7222962528467
 10
5086.236479692161
 20
-1761.7688002064824
 10
5086.236479692161
 20
-1751.815304160118
 10
5086.236479692161
 20
-1741.8618081137538
 10
5086.236479692161
 20
-1731.9083120673895
 10
5086.236479692161
 20
-1721.9548160210252
 10
5086.236479692161
 20
-1712.0013199746609
 10
5086.236479692161
 20
-1702.0478239282966
 10
5086.236479692161
 20
-1692.0943278819323
 10
5086.236479692161
 20
-1682.140831835568
 10
5086.236479692161
 20
-1672.1873357892036
 10
5086.236479692161
 20
-1662.2338397428393
 10
5086.236479692161
 20
-1652.280343696475
 10
5086.236479692161
 20
-1642.3268476501107
 10
5086.236479692161
 20
-1632.3733516037464
 10
5086.236479692161
 20
-1622.419855557382
 10
5086.236479692161
 20
-1612.4663595110178
 10
5086.236479692161
 20
-1602.5128634646535
 10
5086.236479692161
 20
-1592.5593674182892
 10
5086.236479692161
 20
-1582.6058713719249
 10
5086.236479692161
 20
-1572.6523753255606
 10
5086.236479692161
 20
-1562.6988792791963
 10
5086.236479692161
 20
-1552.745383232832
 10
5086.236479692161
 20
-1542.7918871864676
 10
5086.236479692161
 20
-1532.8383911401033
 10
5086.236479692161
 20
-1522.884895093739
 10
5086.236479692161
 20
-1512.9313990473747
 10
5086.236479692161
 20
-1502.9779030010104
 10
5086.236479692161
 20
-1493.024406954646
 10
5086.236479692161
 20
-1483.0709109082818
 10
5086.236479692161
 20
-1473.1174148619175
 10
5086.236479692161
 20
-1463.1639188155532
 10
5086.236479692161
 20
-1453.2104227691889
 10
5086.236479692161
 20
-1443.2569267228246
 10
5086.236479692161
 20
-1433.3034306764603
 10
5086.236479692161
 20
-1423.349934630096
 10
5086.236479692161
 20
-1413.3964385837317
 10
5086.236479692161
 20
-1403.4429425373673
 10
5086.236479692161
 20
-1393.489446491003
 10
5086.236479692161
 20
-1383.5359504446387
 10
5086.236479692161
 20
-1373.5824543982744
 10
5086.236479692161
 20
-1363.6289583519101
 10
5086.236479692161
 20
-1353.6754623055458
 10
5086.236479692161
 20
-1343.7219662591815
 10
5086.236479692161
 20
-1333.7684702128172
 10
5086.236479692161
 20
-1323.8149741664529
 10
5086.236479692161
 20
-1313.8614781200886
 10
5086.236479692161
 20
-1303.9079820737243
 10
5086.236479692161
 20
-1293.95448602736
 10
5086.236479692161
 20
-1284.0009899809957
 10
5086.236479692161
 20
-1274.0474939346313
 10
5086.236479692161
 20
-1264.093997888267
 10
5086.236479692161
 20
-1254.1405018419027
 10
5086.236479692161
 20
-1244.1870057955384
 10
5086.236479692161
 20
-1234.2335097491741
 10
5086.236479692161
 20
-1224.2800137028098
 10
5086.236479692161
 20
-1214.3265176564455
 10
5086.236479692161
 20
-1204.3730216100812
 10
5086.236479692161
 20
-1194.419525563717
 10
5086.236479692161
 20
-1184.4660295173526
 10
5086.236479692161
 20
-1174.5125334709883
 10
5086.236479692161
 20
-1164.559037424624
 10
5086.236479692161
 20
-1154.6055413782597
 10
5086.236479692161
 20
-1144.6520453318954
 10
5086.236479692161
 20
-1134.698549285531
 10
5086.236479692161
 20
-1124.7450532391667
 10
5086.236479692161
 20
-1114.7915571928024
 10
5086.236479692161
 20
-1104.8380611464381
 10
5086.236479692161
 20
-1094.8845651000738
 10
5086.236479692161
 20
-1084.9310690537095
 10
5086.236479692161
 20
-1074.9775730073452
 10
5086.236479692161
 20
-1065.024076960981
 10
5086.236479692161
 20
-1055.0705809146166
 10
5086.236479692161
 20
-1045.1170848682523
 10
5086.236479692161
 20
-1035.163588821888
 10
5086.236479692161
 20
-1025.2100927755237
 10
5086.236479692161
 20
-1015.2565967291594
 10
5086.236479692161
 20
-1005.303100682795
 10
5086.236479692161
 20
-995.3496046364307
 10
5086.236479692161
 20
-985.3961085900664
 10
5086.236479692161
 20
-975.4426125437021
 10
5086.236479692161
 20
-965.4891164973378
 10
5086.236479692161
 20
-955.5356204509735
 10
5086.236479692161
 20
-945.5821244046092
 10
5086.236479692161
 20
-935.6286283582449
 10
5086.236479692161
 20
-925.6751323118806
 10
5086.236479692161
 20
-915.7216362655163
 10
5086.236479692161
 20
-905.768140219152
 10
5086.236479692161
 20
-895.8146441727877
 10
5086.236479692161
 20
-885.8611481264234
 10
5086.236479692161
 20
-875.907652080059
 10
5086.236479692161
 20
-865.9541560336947
 10
5086.236479692161
 20
-856.0006599873304
 10
5086.236479692161
 20
-846.0471639409661
 10
5086.236479692161
 20
-836.0936678946018
 10
5086.236479692161
 20
-826.1401718482375
 10
5086.236479692161
 20
-816.1866758018732
 10
5086.236479692161
 20
-806.2331797555089
 10
5086.236479692161
 20
-796.2796837091446
 10
5086.236479692161
 20
-786.3261876627803
 10
5086.236479692161
 20
-776.372691616416
 10
5086.236479692161
 20
-766.4191955700517
 10
5086.236479692161
 20
-756.4656995236874
 10
5086.236479692161
 20
-746.512203477323
 10
5086.236479692161
 20
-736.5587074309587
 10
5086.236479692161
 20
-726.6052113845944
 10
5086.236479692161
 20
-716.6517153382301
 10
5086.236479692161
 20
-706.6982192918658
 10
5086.236479692161
 20
-696.7447232455015
 10
5086.236479692161
 20
-686.7912271991372
 10
5086.236479692161
 20
-676.8377311527729
 10
5086.236479692161
 20
-666.8842351064086
 10
5086.236479692161
 20
-656.9307390600443
 10
5086.236479692161
 20
-646.97724301368
 10
5086.236479692161
 20
-637.0237469673157
 10
5086.236479692161
 20
-627.0702509209514
 10
5086.236479692161
 20
-617.1167548745871
 10
5086.236479692161
 20
-607.1632588282228
 10
5086.236479692161
 20
-597.2097627818584
 10
5086.236479692161
 20
-587.2562667354941
 10
5086.236479692161
 20
-577.3027706891298
 10
5086.236479692161
 20
-567.3492746427655
 10
5086.236479692161
 20
-557.3957785964012
 10
5086.236479692161
 20
-547.4422825500369
 10
5086.236479692161
 20
-537.4887865036726
 10
5086.236479692161
 20
-527.5352904573083
 10
5086.236479692161
 20
-517.581794410944
 10
5086.236479692161
 20
-507.6282983645797
 10
5086.236479692161
 20
-497.67480231821537
 10
5086.236479692161
 20
-487.72130627185106
 10
5086.236479692161
 20
-477.76781022548676
 10
5086.236479692161
 20
-467.81431417912245
 10
5086.236479692161
 20
-457.86081813275814
 10
5086.236479692161
 20
-447.90732208639383
 10
5086.236479692161
 20
-437.9538260400295
 10
5086.236479692161
 20
-428.0003299936652
 10
5086.236479692161
 20
-418.0468339473009
 10
5086.236479692161
 20
-408.0933379009366
 10
5086.236479692161
 20
-398.1398418545723
 10
5086.236479692161
 20
-388.186345808208
 10
5086.236479692161
 20
-378.2328497618437
 10
5086.236479692161
 20
-368.2793537154794
 10
5086.236479692161
 20
-358.32585766911507
 10
5086.236479692161
 20
-348.37236162275076
 10
5086.236479692161
 20
-338.41886557638645
 10
5086.236479692161
 20
-328.46536953002214
 10
5086.236479692161
 20
-318.51187348365784
 10
5086.236479692161
 20
-308.55837743729353
 10
5086.236479692161
 20
-298.6048813909292
 10
5086.236479692161
 20
-288.6513853445649
 10
5086.236479692161
 20
-278.6978892982006
 10
5086.236479692161
 20
-268.7443932518363
 10
5086.236479692161
 20
-258.790897205472
 10
5086.236479692161
 20
-248.83740115910769
 10
5086.236479692161
 20
-238.88390511274338
 10
5086.236479692161
 20
-228.93040906637907
 10
5086.236479692161
 20
-218.97691302001476
 10
5086.236479692161
 20
-209.02341697365046
 10
5086.236479692161
 20
-199.06992092728615
 10
5086.236479692161
 20
-189.11642488092184
 10
5086.236479692161
 20
-179.16292883455753
 10
5086.236479692161
 20
-169.20943278819323
 10
5086.236479692161
 20
-159.25593674182892
 10
5086.236479692161
 20
-149.3024406954646
 10
5086.236479692161
 20
-139.3489446491003
 10
5086.236479692161
 20
-129.395448602736
 10
5086.236479692161
 20
-119.44195255637169
 10
5086.236479692161
 20
-109.48845651000738
 10
5086.236479692161
 20
-99.53496046364307
 10
5086.236479692161
 20
-89.58146441727877
 10
5086.236479692161
 20
-79.62796837091446
 10
5086.236479692161
 20
-69.67447232455015
 10
5086.236479692161
 20
-59.720976278185844
 10
5086.236479692161
 20
-49.76748023182154
 10
5086.236479692161
 20
-39.81398418545723
 10
5086.236479692161
 20
-29.860488139092922
 10
5086.236479692161
 20
-19.906992092728615
 10
5086.236479692161
 20
-9.953496046364307
 10
5086.236479692161
 20
-0.0
 10
5076.282983645797
 20
-0.0
 10
5066.3294875994325
 20
-0.0
 10
5056.375991553068
 20
-0.0
 10
5046.422495506704
 20
-0.0
 10
5036.46899946034
 20
-0.0
 10
5026.515503413975
 20
-0.0
 10
5016.562007367611
 20
-0.0
 10
5006.608511321247
 20
-0.0
 10
4996.655015274882
 20
-0.0
 10
4986.701519228518
 20
-0.0
 10
4976.748023182154
 20
-0.0
 10
4966.794527135789
 20
-0.0
 10
4956.841031089425
 20
-0.0
 10
4946.887535043061
 20
-0.0
 10
4936.9340389966965
 20
-0.0
 10
4926.980542950332
 20
-0.0
 10
4917.027046903968
 20
-0.0
 10
4907.073550857604
 20
-0.0
 10
4897.120054811239
 20
-0.0
 10
4887.166558764875
 20
-0.0
 10
4877.213062718511
 20
-0.0
 10
4867.259566672146
 20
-0.0
 10
4857.306070625782
 20
-0.0
 10
4847.352574579418
 20
-0.0
 10
4837.399078533053
 20
-0.0
 10
4827.445582486689
 20
-0.0
 10
4817.492086440325
 20
-0.0
 10
4807.5385903939605
 20
-0.0
 10
4797.585094347596
 20
-0.0
 10
4787.631598301232
 20
-0.0
 10
4777.678102254868
 20
-0.0
 10
4767.724606208503
 20
-0.0
 10
4757.771110162139
 20
-0.0
 10
4747.817614115775
 20
-0.0
 10
4737.86411806941
 20
-0.0
 10
4727.910622023046
 20
-0.0
 10
4717.957125976682
 20
-0.0
 10
4708.003629930317
 20
-0.0
 10
4698.050133883953
 20
-0.0
 10
4688.096637837589
 20
-0.0
 10
4678.1431417912245
 20
-0.0
 10
4668.18964574486
 20
-0.0
 10
4658.236149698496
 20
-0.0
 10
4648.282653652132
 20
-0.0
 10
4638.329157605767
 20
-0.0
 10
4628.375661559403
 20
-0.0
 10
4618.422165513039
 20
-0.0
 10
4608.468669466674
 20
-0.0
 10
4598.51517342031
 20
-0.0
 10
4588.561677373946
 20
-0.0
 10
4578.608181327581
 20
-0.0
 10
4568.654685281217
 20
-0.0
 10
4558.701189234853
 20
-0.0
 10
4548.7476931884885
 20
-0.0
 10
4538.794197142124
 20
-0.0
 10
4528.84070109576
 20
-0.0
 10
4518.887205049396
 20
-0.0
 10
4508.933709003031
 20
-0.0
 10
4498.980212956667
 20
-0.0
 10
4489.026716910303
 20
-0.0
 10
4479.073220863938
 20
-0.0
 10
4469.119724817574
 20
-0.0
 10
4459.16622877121
 20
-0.0
 10
4449.212732724845
 20
-0.0
 10
4439.259236678481
 20
-0.0
 10
4429.305740632117
 20
-0.0
 10
4419.3522445857525
 20
-0.0
 10
4409.398748539388
 20
-0.0
 10
4399.445252493024
 20
-0.0
 10
4389.49175644666
 20
-0.0
 10
4379.538260400295
 20
-0.0
 10
4369.584764353931
 20
-0.0
 10
4359.631268307567
 20
-0.0
 10
4349.677772261202
 20
-0.0
 10
4339.724276214838
 20
-0.0
 10
4329.770780168474
 20
-0.0
 10
4319.817284122109
 20
-0.0
 10
4309.863788075745
 20
-0.0
 10
4299.910292029381
 20
-0.0
 10
4289.9567959830165
 20
-0.0
 10
4280.003299936652
 20
-0.0
 10
4270.049803890288
 20
-0.0
 10
4260.096307843924
 20
-0.0
 10
4250.142811797559
 20
-0.0
 10
4240.189315751195
 20
-0.0
 10
4230.235819704831
 20
-0.0
 10
4220.282323658466
 20
-0.0
 10
4210.328827612102
 20
-0.0
 10
4200.375331565738
 20
-0.0
 10
4190.421835519373
 20
-0.0
 10
4180.468339473009
 20
-0.0
 10
4170.514843426645
 20
-0.0
 10
4160.5613473802805
 20
-0.0
 10
4150.607851333916
 20
-0.0
 10
4140.654355287552
 20
-0.0
 10
4130.700859241188
 20
-0.0
 10
4120.747363194823
 20
-0.0
 10
4110.793867148459
 20
-0.0
 10
4100.840371102095
 20
-0.0
 10
4090.8868750557303
 20
-0.0
 10
4080.933379009366
 20
-0.0
 10
4070.9798829630017
 20
-0.0
 10
4061.0263869166374
 20
-0.0
 10
4051.072890870273
 20
-0.0
 10
4041.119394823909
 20
-0.0
 10
4031.1658987775445
 20
-0.0
 10
4021.21240273118
 20
-0.0
 10
4011.258906684816
 20
-0.0
 10
4001.3054106384516
 20
-0.0
 10
3991.3519145920873
 20
-0.0
 10
3981.398418545723
 20
-0.0
 10
3971.4449224993587
 20
-0.0
 10
3961.4914264529943
 20
-0.0
 10
3951.53793040663
 20
-0.0
 10
3941.5844343602657
 20
-0.0
 10
3931.6309383139014
 20
-0.0
 10
3921.677442267537
 20
-0.0
 10
3911.723946221173
 20
-0.0
 10
3901.7704501748085
 20
-0.0
 10
3891.816954128444
 20
-0.0
 10
3881.86345808208
 20
-0.0
 10
3871.9099620357156
 20
-0.0
 10
3861.9564659893513
 20
-0.0
 10
3852.002969942987
 20
-0.0
 10
3842.0494738966227
 20
-0.0
 10
3832.0959778502584
 20
-0.0
 10
3822.142481803894
 20
-0.0
 10
3812.1889857575297
 20
-0.0
 10
3802.2354897111654
 20
-0.0
 10
3792.281993664801
 20
-0.0
 10
3782.328497618437
 20
-0.0
 10
3772.3750015720725
 20
-0.0
 10
3762.421505525708
 20
-0.0
 10
3752.468009479344
 20
-0.0
 10
3742.5145134329796
 20
-0.0
 10
3732.5610173866153
 20
-0.0
 10
3722.607521340251
 20
-0.0
 10
3712.6540252938867
 20
-0.0
 10
3702.7005292475224
 20
-0.0
 10
3692.747033201158
 20
-0.0
 10
3682.7935371547937
 20
-0.0
 10
3672.8400411084294
 20
-0.0
 10
3662.886545062065
 20
-0.0
 10
3652.933049015701
 20
-0.0
 10
3642.9795529693365
 20
-0.0
 10
3633.026056922972
 20
-0.0
 10
3623.072560876608
 20
-0.0
 10
3613.1190648302436
 20
-0.0
 10
3603.1655687838793
 20
-0.0
 10
3593.212072737515
 20
-0.0
 10
3583.2585766911507
 20
-0.0
 10
3573.3050806447864
 20
-0.0
 10
3563.351584598422
 20
-0.0
 10
3553.3980885520577
 20
-0.0
 10
3543.4445925056934
 20
-0.0
 10
3533.491096459329
 20
-0.0
 10
3523.537600412965
 20
-0.0
 10
3513.5841043666005
 20
-0.0
 10
3503.630608320236
 20
-0.0
 10
3493.677112273872
 20
-0.0
 10
3483.7236162275076
 20
-0.0
 10
3473.7701201811433
 20
-0.0
 10
3463.816624134779
 20
-0.0
 10
3453.8631280884147
 20
-0.0
 10
3443.9096320420504
 20
-0.0
 10
3433.956135995686
 20
-0.0
 10
3424.0026399493217
 20
-0.0
 10
3414.0491439029574
 20
-0.0
 10
3404.095647856593
 20
-0.0
 10
3394.142151810229
 20
-0.0
 10
3384.1886557638645
 20
-0.0
 10
3374.2351597175
 20
-0.0
 10
3364.281663671136
 20
-0.0
 10
3354.3281676247716
 20
-0.0
 10
3344.3746715784073
 20
-0.0
 10
3334.421175532043
 20
-0.0
 10
3324.4676794856787
 20
-0.0
 10
3314.5141834393144
 20
-0.0
 10
3304.56068739295
 20
-0.0
 10
3294.6071913465858
 20
-0.0
 10
3284.6536953002214
 20
-0.0
 10
3274.700199253857
 20
-0.0
 10
3264.746703207493
 20
-0.0
 10
3254.7932071611285
 20
-0.0
 10
3244.839711114764
 20
-0.0
 10
3234.8862150684
 20
-0.0
 10
3224.9327190220356
 20
-0.0
 10
3214.9792229756713
 20
-0.0
 10
3205.025726929307
 20
-0.0
 10
3195.0722308829427
 20
-0.0
 10
3185.1187348365784
 20
-0.0
 10
3175.165238790214
 20
-0.0
 10
3165.2117427438498
 20
-0.0
 10
3155.2582466974854
 20
-0.0
 10
3145.304750651121
 20
-0.0
 10
3135.351254604757
 20
-0.0
 10
3125.3977585583925
 20
-0.0
 10
3115.444262512028
 20
-0.0
 10
3105.490766465664
 20
-0.0
 10
3095.5372704192996
 20
-0.0
 10
3085.5837743729353
 20
-0.0
 10
3075.630278326571
 20
-0.0
 10
3065.6767822802067
 20
-0.0
 10
3055.7232862338424
 20
-0.0
 10
3045.769790187478
 20
-0.0
 10
3035.8162941411138
 20
-0.0
 10
3025.8627980947495
 20
-0.0
 10
3015.909302048385
 20
-0.0
 10
3005.955806002021
 20
-0.0
 10
2996.0023099556565
 20
-0.0
 10
2986.048813909292
 20
-0.0
 10
2976.095317862928
 20
-0.0
 10
2966.1418218165636
 20
-0.0
 10
2956.1883257701993
 20
-0.0
 10
2946.234829723835
 20
-0.0
 10
2936.2813336774707
 20
-0.0
 10
2926.3278376311064
 20
-0.0
 10
2916.374341584742
 20
-0.0
 10
2906.4208455383778
 20
-0.0
 10
2896.4673494920135
 20
-0.0
 10
2886.513853445649
 20
-0.0
 10
2876.560357399285
 20
-0.0
 10
2866.6068613529205
 20
-0.0
 10
2856.653365306556
 20
-0.0
 10
2846.699869260192
 20
-0.0
 10
2836.7463732138276
 20
-0.0
 10
2826.7928771674633
 20
-0.0
 10
2816.839381121099
 20
-0.0
 10
2806.8858850747347
 20
-0.0
 10
2796.9323890283704
 20
-0.0
 10
2786.978892982006
 20
-0.0
 10
2777.0253969356418
 20
-0.0
 10
2767.0719008892775
 20
-0.0
 10
2757.118404842913
 20
-0.0
 10
2747.164908796549
 20
-0.0
 10
2737.2114127501845
 20
-0.0
 10
2727.2579167038202
 20
-0.0
 10
2717.304420657456
 20
-0.0
 10
2707.3509246110916
 20
-0.0
 10
2697.3974285647273
 20
-0.0
 10
2687.443932518363
 20
-0.0
 10
2677.4904364719987
 20
-0.0
 10
2667.5369404256344
 20
-0.0
 10
2657.58344437927
 20
-0.0
 10
2647.6299483329058
 20
-0.0
 10
2637.6764522865415
 20
-0.0
 10
2627.722956240177
 20
-0.0
 10
2617.769460193813
 20
-0.0
 10
2607.8159641474485
 20
-0.0
 10
2597.8624681010842
 20
-0.0
 10
2587.90897205472
 20
-0.0
 10
2577.9554760083556
 20
-0.0
 10
2568.0019799619913
 20
-0.0
 10
2558.048483915627
 20
-0.0
 10
2548.0949878692627
 20
-0.0
 10
2538.1414918228984
 20
-0.0
 10
2528.187995776534
 20
-0.0
 10
2518.23449973017
 20
-0.0
 10
2508.2810036838055
 20
-0.0
 10
2498.327507637441
 20
-0.0
 10
2488.374011591077
 20
-0.0
 10
2478.4205155447125
 20
-0.0
 10
2468.4670194983482
 20
-0.0
 10
2458.513523451984
 20
-0.0
 10
2448.5600274056196
 20
-0.0
 10
2438.6065313592553
 20
-0.0
 10
2428.653035312891
 20
-0.0
 10
2418.6995392665267
 20
-0.0
 10
2408.7460432201624
 20
-0.0
 10
2398.792547173798
 20
-0.0
 10
2388.839051127434
 20
-0.0
 10
2378.8855550810695
 20
-0.0
 10
2368.932059034705
 20
-0.0
 10
2358.978562988341
 20
-0.0
 10
2349.0250669419765
 20
-0.0
 10
2339.0715708956122
 20
-0.0
 10
2329.118074849248
 20
-0.0
 10
2319.1645788028836
 20
-0.0
 10
2309.2110827565193
 20
-0.0
 10
2299.257586710155
 20
-0.0
 10
2289.3040906637907
 20
-0.0
 10
2279.3505946174264
 20
-0.0
 10
2269.397098571062
 20
-0.0
 10
2259.443602524698
 20
-0.0
 10
2249.4901064783335
 20
-0.0
 10
2239.536610431969
 20
-0.0
 10
2229.583114385605
 20
-0.0
 10
2219.6296183392406
 20
-0.0
 10
2209.6761222928762
 20
-0.0
 10
2199.722626246512
 20
-0.0
 10
2189.7691302001476
 20
-0.0
 10
2179.8156341537833
 20
-0.0
 10
2169.862138107419
 20
-0.0
 10
2159.9086420610547
 20
-0.0
 10
2149.9551460146904
 20
-0.0
 10
2140.001649968326
 20
-0.0
 10
2130.048153921962
 20
-0.0
 10
2120.0946578755975
 20
-0.0
 10
2110.141161829233
 20
-0.0
 10
2100.187665782869
 20
-0.0
 10
2090.2341697365046
 20
-0.0
 10
2080.2806736901402
 20
-0.0
 10
2070.327177643776
 20
-0.0
 10
2060.3736815974116
 20
-0.0
 10
2050.4201855510473
 20
-0.0
 10
2040.466689504683
 20
-0.0
 10
2030.5131934583187
 20
-0.0
 10
2020.5596974119544
 20
-0.0
 10
2010.60620136559
 20
-0.0
 10
2000.6527053192258
 20
-0.0
 10
1990.6992092728615
 20
-0.0
 10
1980.7457132264972
 20
-0.0
 10
1970.7922171801329
 20
-0.0
 10
1960.8387211337686
 20
-0.0
 10
1950.8852250874043
 20
-0.0
 10
1940.93172904104
 20
-0.0
 10
1930.9782329946756
 20
-0.0
 10
1921.0247369483113
 20
-0.0
 10
1911.071240901947
 20
-0.0
 10
1901.1177448555827
 20
-0.0
 10
1891.1642488092184
 20
-0.0
 10
1881.210752762854
 20
-0.0
 10
1871.2572567164898
 20
-0.0
 10
1861.3037606701255
 20
-0.0
 10
1851.3502646237612
 20
-0.0
 10
1841.3967685773969
 20
-0.0
 10
1831.4432725310326
 20
-0.0
 10
1821.4897764846683
 20
-0.0
 10
1811.536280438304
 20
-0.0
 10
1801.5827843919396
 20
-0.0
 10
1791.6292883455753
 20
-0.0
 10
1781.675792299211
 20
-0.0
 10
1771.7222962528467
 20
-0.0
 10
1761.7688002064824
 20
-0.0
 10
1751.815304160118
 20
-0.0
 10
1741.8618081137538
 20
-0.0
 10
1731.9083120673895
 20
-0.0
 10
1721.9548160210252
 20
-0.0
 10
1712.0013199746609
 20
-0.0
 10
1702.0478239282966
 20
-0.0
 10
1692.0943278819323
 20
-0.0
 10
1682.140831835568
 20
-0.0
 10
1672.1873357892036
 20
-0.0
 10
1662.2338397428393
 20
-0.0
 10
1652.280343696475
 20
-0.0
 10
1642.3268476501107
 20
-0.0
 10
1632.3733516037464
 20
-0.0
 10
1622.419855557382
 20
-0.0
 10
1612.4663595110178
 20
-0.0
 10
1602.5128634646535
 20
-0.0
 10
1592.5593674182892
 20
-0.0
 10
1582.6058713719249
 20
-0.0
 10
1572.6523753255606
 20
-0.0
 10
1562.6988792791963
 20
-0.0
 10
1552.745383232832
 20
-0.0
 10
1542.7918871864676
 20
-0.0
 10
1532.8383911401033
 20
-0.0
 10
1522.884895093739
 20
-0.0
 10
1512.9313990473747
 20
-0.0
 10
1502.9779030010104
 20
-0.0
 10
1493.024406954646
 20
-0.0
 10
1483.0709109082818
 20
-0.0
 10
1473.1174148619175
 20
-0.0
 10
1463.1639188155532
 20
-0.0
 10
1453.2104227691889
 20
-0.0
 10
1443.2569267228246
 20
-0.0
 10
1433.3034306764603
 20
-0.0
 10
1423.349934630096
 20
-0.0
 10
1413.3964385837317
 20
-0.0
 10
1403.4429425373673
 20
-0.0
 10
1393.489446491003
 20
-0.0
 10
1383.5359504446387
 20
-0.0
 10
1373.5824543982744
 20
-0.0
 10
1363.6289583519101
 20
-0.0
 10
1353.6754623055458
 20
-0.0
 10
1343.7219662591815
 20
-0.0
 10
1333.7684702128172
 20
-0.0
 10
1323.8149741664529
 20
-0.0
 10
1313.8614781200886
 20
-0.0
 10
1303.9079820737243
 20
-0.0
 10
1293.95448602736
 20
-0.0
 10
1284.0009899809957
 20
-0.0
 10
1274.0474939346313
 20
-0.0
 10
1264.093997888267
 20
-0.0
 10
1254.1405018419027
 20
-0.0
 10
1244.1870057955384
 20
-0.0
 10
1234.2335097491741
 20
-0.0
 10
1224.2800137028098
 20
-0.0
 10
1214.3265176564455
 20
-0.0
 10
1204.3730216100812
 20
-0.0
 10
1194.419525563717
 20
-0.0
 10
1184.4660295173526
 20
-0.0
 10
1174.5125334709883
 20
-0.0
 10
1164.559037424624
 20
-0.0
 10
1154.6055413782597
 20
-0.0
 10
1144.6520453318954
 20
-0.0
 10
1134.698549285531
 20
-0.0
 10
1124.7450532391667
 20
-0.0
 10
1114.7915571928024
 20
-0.0
 10
1104.8380611464381
 20
-0.0
 10
1094.8845651000738
 20
-0.0
 10
1084.9310690537095
 20
-0.0
 10
1074.9775730073452
 20
-0.0
 10
1065.024076960981
 20
-0.0
 10
1055.0705809146166
 20
-0.0
 10
1045.1170848682523
 20
-0.0
 10
1035.163588821888
 20
-0.0
 10
1025.2100927755237
 20
-0.0
 10
1015.2565967291594
 20
-0.0
 10
1005.303100682795
 20
-0.0
 10
995.3496046364307
 20
-0.0
 10
985.3961085900664
 20
-0.0
 10
975.4426125437021
 20
-0.0
 10
965.4891164973378
 20
-0.0
 10
955.5356204509735
 20
-0.0
 10
945.5821244046092
 20
-0.0
 10
935.6286283582449
 20
-0.0
 10
925.6751323118806
 20
-0.0
 10
915.7216362655163
 20
-0.0
 10
905.768140219152
 20
-0.0
 10
895.8146441727877
 20
-0.0
 10
885.8611481264234
 20
-0.0
 10
875.907652080059
 20
-0.0
 10
865.9541560336947
 20
-0.0
 10
856.0006599873304
 20
-0.0
 10
846.0471639409661
 20
-0.0
 10
836.0936678946018
 20
-0.0
 10
826.1401718482375
 20
-0.0
 10
816.1866758018732
 20
-0.0
 10
806.2331797555089
 20
-0.0
 10
796.2796837091446
 20
-0.0
 10
786.3261876627803
 20
-0.0
 10
776.372691616416
 20
-0.0
 10
766.4191955700517
 20
-0.0
 10
756.4656995236874
 20
-0.0
 10
746.512203477323
 20
-0.0
 10
736.5587074309587
 20
-0.0
 10
726.6052113845944
 20
-0.0
 10
716.6517153382301
 20
-0.0
 10
706.6982192918658
 20
-0.0
 10
696.7447232455015
 20
-0.0
 10
686.7912271991372
 20
-0.0
 10
676.8377311527729
 20
-0.0
 10
666.8842351064086
 20
-0.0
 10
656.9307390600443
 20
-0.0
 10
646.97724301368
 20
-0.0
 10
637.0237469673157
 20
-0.0
 10
627.0702509209514
 20
-0.0
 10
617.1167548745871
 20
-0.0
 10
607.1632588282228
 20
-0.0
 10
597.2097627818584
 20
-0.0
 10
587.2562667354941
 20
-0.0
 10
577.3027706891298
 20
-0.0
 10
567.3492746427655
 20
-0.0
 10
557.3957785964012
 20
-0.0
 10
547.4422825500369
 20
-0.0
 10
537.4887865036726
 20
-0.0
 10
527.5352904573083
 20
-0.0
 10
517.581794410944
 20
-0.0
 10
507.6282983645797
 20
-0.0
 10
497.67480231821537
 20
-0.0
 10
487.72130627185106
 20
-0.0
 10
477.76781022548676
 20
-0.0
 10
467.81431417912245
 20
-0.0
 10
457.86081813275814
 20
-0.0
 10
447.90732208639383
 20
-0.0
 10
437.9538260400295
 20
-0.0
 10
428.0003299936652
 20
-0.0
 10
418.0468339473009
 20
-0.0
 10
408.0933379009366
 20
-0.0
 10
398.1398418545723
 20
-0.0
 10
388.186345808208
 20
-0.0
 10
378.2328497618437
 20
-0.0
 10
368.2793537154794
 20
-0.0
 10
358.32585766911507
 20
-0.0
 10
348.37236162275076
 20
-0.0
 10
338.41886557638645
 20
-0.0
 10
328.46536953002214
 20
-0.0
 10
318.51187348365784
 20
-0.0
 10
308.55837743729353
 20
-0.0
 10
298.6048813909292
 20
-0.0
 10
288.6513853445649
 20
-0.0
 10
278.6978892982006
 20
-0.0
 10
268.7443932518363
 20
-0.0
 10
258.790897205472
 20
-0.0
 10
248.83740115910769
 20
-0.0
 10
238.88390511274338
 20
-0.0
 10
228.93040906637907
 20
-0.0
 10
218.97691302001476
 20
-0.0
 10
209.02341697365046
 20
-0.0
 10
199.06992092728615
 20
-0.0
 10
189.11642488092184
 20
-0.0
 10
179.16292883455753
 20
-0.0
 10
169.20943278819323
 20
-0.0
 10
159.25593674182892
 20
-0.0
 10
149.3024406954646
 20
-0.0
 10
139.3489446491003
 20
-0.0
 10
129.395448602736
 20
-0.0
 10
119.44195255637169
 20
-0.0
 10
109.48845651000738
 20
-0.0
 10
99.53496046364307
 20
-0.0
 10
89.58146441727877
 20
-0.0
 10
79.62796837091446
 20
-0.0
 10
69.67447232455015
 20
-0.0
 10
59.720976278185844
 20
-0.0
 10
49.76748023182154
 20
-0.0
 10
39.81398418545723
 20
-0.0
 10
29.860488139092922
 20
-0.0
 10
19.906992092728615
 20
-0.0
 10
9.953496046364307
 20
-0.0
  0
LWPOLYLINE
  5
34
330
17
100
AcDbEntity
  8
substrate
100
AcDbPolyline
 90
268
 70
1
 43
0.5
 10
2418.6995392665267
 20
-2189.7691302001476
 10
2428.653035312891
 20
-2179.8156341537833
 10
2438.6065313592553
 20
-2179.8156341537833
 10
2448.5600274056196
 20
-2179.8156341537833
 10
2458.513523451984
 20
-2179.8156341537833
 10
2468.4670194983482
 20
-2179.8156341537833
 10
2478.4205155447125
 20
-2179.8156341537833
 10
2488.374011591077
 20
-2179.8156341537833
 10
2498.327507637441
 20
-2179.8156341537833
 10
2508.2810036838055
 20
-2179.8156341537833
 10
2518.23449973017
 20
-2179.8156341537833
 10
2528.187995776534
 20
-2179.8156341537833
 10
2538.1414918228984
 20
-2179.8156341537833
 10
2548.0949878692627
 20
-2179.8156341537833
 10
2558.048483915627
 20
-2179.8156341537833
 10
2568.0019799619913
 20
-2179.8156341537833
 10
2577.9554760083556
 20
-2179.8156341537833
 10
2587.90897205472
 20
-2179.8156341537833
 10
2597.8624681010842
 20
-2179.8156341537833
 10
2607.8159641474485
 20
-2179.8156341537833
 10
2617.769460193813
 20
-2179.8156341537833
 10
2627.722956240177
 20
-2179.8156341537833
 10
2637.6764522865415
 20
-2179.8156341537833
 10
2647.6299483329058
 20
-2179.8156341537833
 10
2657.58344437927
 20
-2179.8156341537833
 10
2667.5369404256344
 20
-2189.7691302001476
 10
2667.5369404256344
 20
-2199.722626246512
 10
2667.5369404256344
 20
-2209.6761222928762
 10
2667.5369404256344
 20
-2219.6296183392406
 10
2677.4904364719987
 20
-2219.6296183392406
 10
2687.443932518363
 20
-2219.6296183392406
 10
2697.3974285647273
 20
-2219.6296183392406
 10
2707.3509246110916
 20
-2219.6296183392406
 10
2717.304420657456
 20
-2219.6296183392406
 10
2727.2579167038202
 20
-2219.6296183392406
 10
2737.2114127501845
 20
-2219.6296183392406
 10
2747.164908796549
 20
-2229.583114385605
 10
2747.164908796549
 20
-2239.536610431969
 10
2747.164908796549
 20
-2249.4901064783335
 10
2747.164908796549
 20
-2259.443602524698
 10
2757.118404842913
 20
-2259.443602524698
 10
2767.0719008892775
 20
-2259.443602524698
 10
2777.0253969356418
 20
-2259.443602524698
 10
2786.978892982006
 20
-2269.397098571062
 10
2786.978892982006
 20
-2279.3505946174264
 10
2786.978892982006
 20
-2289.3040906637907
 10
2786.978892982006
 20
-2299.257586710155
 10
2796.9323890283704
 20
-2299.257586710155
 10
2806.8858850747347
 20
-2299.257586710155
 10
2816.839381121099
 20
-2299.257586710155
 10
2826.7928771674633
 20
-2309.2110827565193
 10
2826.7928771674633
 20
-2319.1645788028836
 10
2826.7928771674633
 20
-2329.118074849248
 10
2826.7928771674633
 20
-2339.0715708956122
 10
2836.7463732138276
 20
-2339.0715708956122
 10
2846.699869260192
 20
-2339.0715708956122
 10
2856.653365306556
 20
-2339.0715708956122
 10
2866.6068613529205
 20
-2349.0250669419765
 10
2866.6068613529205
 20
-2358.978562988341
 10
2866.6068613529205
 20
-2368.932059034705
 10
2866.6068613529205
 20
-2378.8855550810695
 10
2866.6068613529205
 20
-2388.839051127434
 10
2866.6068613529205
 20
-2398.792547173798
 10
2866.6068613529205
 20
-2408.7460432201624
 10
2866.6068613529205
 20
-2418.6995392665267
 10
2876.560357399285
 20
-2418.6995392665267
 10
2886.513853445649
 20
-2418.6995392665267
 10
2896.4673494920135
 20
-2418.6995392665267
 10
2906.4208455383778
 20
-2428.653035312891
 10
2906.4208455383778
 20
-2438.6065313592553
 10
2906.4208455383778
 20
-2448.5600274056196
 10
2906.4208455383778
 20
-2458.513523451984
 10
2906.4208455383778
 20
-2468.4670194983482
 10
2906.4208455383778
 20
-2478.4205155447125
 10
2906.4208455383778
 20
-2488.374011591077
 10
2906.4208455383778
 20
-2498.327507637441
 10
2906.4208455383778
 20
-2508.2810036838055
 10
2906.4208455383778
 20
-2518.23449973017
 10
2906.4208455383778
 20
-2528.187995776534
 10
2906.4208455383778
 20
-2538.1414918228984
 10
2906.4208455383778
 20
-2548.0949878692627
 10
2906.4208455383778
 20
-2558.048483915627
 10
2906.4208455383778
 20
-2568.0019799619913
 10
2906.4208455383778
 20
-2577.9554760083556
 10
2906.4208455383778
 20
-2587.90897205472
 10
2906.4208455383778
 20
-2597.8624681010842
 10
2906.4208455383778
 20
-2607.8159641474485
 10
2906.4208455383778
 20
-2617.769460193813
 10
2906.4208455383778
 20
-2627.722956240177
 10
2906.4208455383778
 20
-2637.6764522865415
 10
2906.4208455383778
 20
-2647.6299483329058
 10
2906.4208455383778
 20
-2657.58344437927
 10
2896.4673494920135
 20
-2667.5369404256344
 10
2886.513853445649
 20
-2667.5369404256344
 10
2876.560357399285
 20
-2667.5369404256344
 10
2866.6068613529205
 20
-2667.5369404256344
 10
2866.6068613529205
 20
-2677.4904364719987
 10
2866.6068613529205
 20
-2687.443932518363
 10
2866.6068613529205
 20
-2697.3974285647273
 10
2866.6068613529205
 20
-2707.3509246110916
 10
2866.6068613529205
 20
-2717.304420657456
 10
2866.6068613529205
 20
-2727.2579167038202
 10
2866.6068613529205
 20
-2737.2114127501845
 10
2856.653365306556
 20
-2747.164908796549
 10
2846.699869260192
 20
-2747.164908796549
 10
2836.7463732138276
 20
-2747.164908796549
 10
2826.7928771674633
 20
-2747.164908796549
 10
2826.7928771674633
 20
-2757.118404842913
 10
2826.7928771674633
 20
-2767.0719008892775
 10
2826.7928771674633
 20
-2777.0253969356418
 10
2816.839381121099
 20
-2786.978892982006
 10
2806.8858850747347
 20
-2786.978892982006
 10
2796.9323890283704
 20
-2786.978892982006
 10
2786.978892982006
 20
-2786.978892982006
 10
2786.978892982006
 20
-2796.9323890283704
 10
2786.978892982006
 20
-2806.8858850747347
 10
2786.978892982006
 20
-2816.839381121099
 10
2777.0253969356418
 20
-2826.7928771674633
 10
2767.0719008892775
 20
-2826.7928771674633
 10
2757.118404842913
 20
-2826.7928771674633
 10
2747.164908796549
 20
-2826.7928771674633
 10
2747.164908796549
 20
-2836.7463732138276
 10
2747.164908796549
 20
-2846.699869260192
 10
2747.164908796549
 20
-2856.653365306556
 10
2737.2114127501845
 20
-2866.6068613529205
 10
2727.2579167038202
 20
-2866.6068613529205
 10
2717.304420657456
 20
-2866.6068613529205
 10
2707.3509246110916
 20
-2866.6068613529205
 10
2697.3974285647273
 20
-2866.6068613529205
 10
2687.443932518363
 20
-2866.6068613529205
 10
2677.4904364719987
 20
-2866.6068613529205
 10
2667.5369404256344
 20
-2866.6068613529205
 10
2667.5369404256344
 20
-2876.560357399285
 10
2667.5369404256344
 20
-2886.513853445649
 10
2667.5369404256344
 20
-2896.4673494920135
 10
2657.58344437927
 20
-2906.4208455383778
 10
2647.6299483329058
 20
-2906.4208455383778
 10
2637.6764522865415
 20
-2906.4208455383778
 10
2627.722956240177
 20
-2906.4208455383778
 10
2617.769460193813
 20
-2906.4208455383778
 10
2607.8159641474485
 20
-2906.4208455383778
 10
2597.8624681010842
 20
-2906.4208455383778
 10
2587.90897205472
 20
-2906.4208455383778
 10
2577.9554760083556
 20
-2906.4208455383778
 10
2568.0019799619913
 20
-2906.4208455383778
 10
2558.048483915627
 20
-2906.4208455383778
 10
2548.0949878692627
 20
-2906.4208455383778
 10
2538.1414918228984
 20
-2906.4208455383778
 10
2528.187995776534
 20
-2906.4208455383778
 10
2518.23449973017
 20
-2906.4208455383778
 10
2508.2810036838055
 20
-2906.4208455383778
 10
2498.327507637441
 20
-2906.4208455383778
 10
2488.374011591077
 20
-2906.4208455383778
 10
2478.4205155447125
 20
-2906.4208455383778
 10
2468.4670194983482
 20
-2906.4208455383778
 10
2458.513523451984
 20
-2896.4673494920135
 10
2458.513523451984
 20
-2886.513853445649
 10
2458.513523451984
 20
-2876.560357399285
 10
2458.513523451984
 20
-2866.6068613529205
 10
2448.5600274056196
 20
-2866.6068613529205
 10
2438.6065313592553
 20
-2866.6068613529205
 10
2428.653035312891
 20
-2866.6068613529205
 10
2418.6995392665267
 20
-2866.6068613529205
 10
2408.7460432201624
 20
-2866.6068613529205
 10
2398.792547173798
 20
-2866.6068613529205
 10
2388.839051127434
 20
-2866.6068613529205
 10
2378.8855550810695
 20
-2866.6068613529205
 10
2368.932059034705
 20
-2866.6068613529205
 10
2358.978562988341
 20
-2866.6068613529205
 10
2349.0250669419765
 20
-2866.6068613529205
 10
2339.0715708956122
 20
-2856.653365306556
 10
2339.0715708956122
 20
-2846.699869260192
 10
2339.0715708956122
 20
-2836.7463732138276
 10
2339.0715708956122
 20
-2826.7928771674633
 10
2329.118074849248
 20
-2826.7928771674633
 10
2319.1645788028836
 20
-2826.7928771674633
 10
2309.2110827565193
 20
-2826.7928771674633
 10
2299.257586710155
 20
-2816.839381121099
 10
2299.257586710155
 20
-2806.8858850747347
 10
2299.257586710155
 20
-2796.9323890283704
 10
2299.257586710155
 20
-2786.978892982006
 10
2289.3040906637907
 20
-2786.978892982006
 10
2279.3505946174264
 20
-2786.978892982006
 10
2269.397098571062
 20
-2786.978892982006
 10
2259.443602524698
 20
-2777.0253969356418
 10
2259.443602524698
 20
-2767.0719008892775
 10
2259.443602524698
 20
-2757.118404842913
 10
2259.443602524698
 20
-2747.164908796549
 10
2249.4901064783335
 20
-2747.164908796549
 10
2239.536610431969
 20
-2747.164908796549
 10
2229.583114385605
 20
-2747.164908796549
 10
2219.6296183392406
 20
-2737.2114127501845
 10
2219.6296183392406
 20
-2727.2579167038202
 10
2219.6296183392406
 20
-2717.304420657456
 10
2219.6296183392406
 20
-2707.3509246110916
 10
2219.6296183392406
 20
-2697.3974285647273
 10
2219.6296183392406
 20
-2687.443932518363
 10
2219.6296183392406
 20
-2677.4904364719987
 10
2219.6296183392406
 20
-2667.5369404256344
 10
2209.6761222928762
 20
-2667.5369404256344
 10
2199.722626246512
 20
-2667.5369404256344
 10
2189.7691302001476
 20
-2667.5369404256344
 10
2179.8156341537833
 20
-2657.58344437927
 10
2179.8156341537833
 20
-2647.6299483329058
 10
2179.8156341537833
 20
-2637.6764522865415
 10
2179.8156341537833
 20
-2627.722956240177
 10
2179.8156341537833
 20
-2617.769460193813
 10
2179.8156341537833
 20
-2607.8159641474485
 10
2179.8156341537833
 20
-2597.8624681010842
 10
2179.8156341537833
 20
-2587.90897205472
 10
2179.8156341537833
 20
-2577.9554760083556
 10
2179.8156341537833
 20
-2568.0019799619913
 10
2179.8156341537833
 20
-2558.048483915627
 10
2179.8156341537833
 20
-2548.0949878692627
 10
2179.8156341537833
 20
-2538.1414918228984
 10
2179.8156341537833
 20
-2528.187995776534
 10
2179.8156341537833
 20
-2518.23449973017
 10
2179.8156341537833
 20
-2508.2810036838055
 10
2179.8156341537833
 20
-2498.327507637441
 10
2179.8156341537833
 20
-2488.374011591077
 10
2179.8156341537833
 20
-2478.4205155447125
 10
2179.8156341537833
 20
-2468.4670194983482
 10
2179.8156341537833
 20
-2458.513523451984
 10
2179.8156341537833
 20
-2448.5600274056196
 10
2179.8156341537833
 20
-2438.6065313592553
 10
2179.8156341537833
 20
-2428.653035312891
 10
2189.7691302001476
 20
-2418.6995392665267
 10
2199.722626246512
 20
-2418.6995392665267
 10
2209.6761222928762
 20
-2418.6995392665267
 10
2219.6296183392406
 20
-2418.6995392665267
 10
2219.6296183392406
 20
-2408.7460432201624
 10
2219.6296183392406
 20
-2398.792547173798
 10
2219.6296183392406
 20
-2388.839051127434
 10
2219.6296183392406
 20
-2378.8855550810695
 10
2219.6296183392406
 20
-2368.932059034705
 10
2219.6296183392406
 20
-2358.978562988341
 10
2219.6296183392406
 20
-2349.0250669419765
 10
2229.583114385605
 20
-2339.0715708956122
 10
2239.536610431969
 20
-2339.0715708956122
 10
2249.4901064783335
 20
-2339.0715708956122
 10
2259.443602524698
 20
-2339.0715708956122
 10
2259.443602524698
 20
-2329.118074849248
 10
2259.443602524698
 20
-2319.1645788028836
 10
2259.443602524698
 20
-2309.2110827565193
 10
2269.397098571062
 20
-2299.257586710155
 10
2279.3505946174264
 20
-2299.257586710155
 10
2289.3040906637907
 20
-2299.257586710155
 10
2299.257586710155
 20
-2299.257586710155
 10
2299.257586710155
 20
-2289.3040906637907
 10
2299.257586710155
 20
-2279.3505946174264
 10
2299.257586710155
 20
-2269.397098571062
 10
2309.2110827565193
 20
-2259.443602524698
 10
2319.1645788028836
 20
-2259.443602524698
 10
2329.118074849248
 20
-2259.443602524698
 10
2339.0715708956122
 20
-2259.443602524698
 10
2339.0715708956122
 20
-2249.4901064783335
 10
2339.0715708956122
 20
-2239.536610431969
 10
2339.0715708956122
 20
-2229.583114385605
 10
2349.0250669419765
 20
-2219.6296183392406
 10
2358.978562988341
 20
-2219.6296183392406
 10
2368.932059034705
 20
-2219.6296183392406
 10
2378.8855550810695
 20
-2219.6296183392406
 10
2388.839051127434
 20
-2219.6296183392406
 10
2398.792547173798
 20
-2219.6296183392406
 10
2408.7460432201624
 20
-2219.6296183392406
 10
2418.6995392665267
 20
-2219.6296183392406
 10
2418.6995392665267
 20
-2209.6761222928762
 10
2418.6995392665267
 20
-2199.722626246512
  0
ENDSEC
  0
SECTION
  2
OBJECTS
  0
DICTIONARY
  5
A
330
0
100
AcDbDictionary
280
0
281
1
  3
ACAD_COLOR
350
B
  3
ACAD_GROUP
350
C
  3
ACAD_LAYOUT
350
D
  3
ACAD_MATERIAL
350
E
  3
ACAD_MLEADERSTYLE
350
F
  3
ACAD_MLINESTYLE
350
10
  3
ACAD_PLOTSETTINGS
350
11
  3
ACAD_PLOTSTYLENAME
350
12
  3
ACAD_SCALELIST
350
14
  3
ACAD_TABLESTYLE
350
15
  3
ACAD_VISUALSTYLE
350
16
  3
EZDXF_META
350
2D
  0
DICTIONARY
  5
B
330
A
100
AcDbDictionary
280
0
281
1
  0
DICTIONARY
  5
C
330
A
100
AcDbDictionary
280
0
281
1
  0
DICTIONARY
  5
D
330
A
100
AcDbDictionary
280
0
281
1
  3
Model
350
1A
  3
Layout1
350
1E
  0
DICTIONARY
  5
E
330
A
100
AcDbDictionary
280
0
281
1
  3
ByBlock
350
1F
  3
ByLayer
350
20
  3
Global
350
21
  0
DICTIONARY
  5
F
330
A
100
AcDbDictionary
280
0
281
1
  3
Standard
350
2C
  0
DICTIONARY
  5
10
330
A
100
AcDbDictionary
280
0
281
1
  3
Standard
350
22
  0
DICTIONARY
  5
11
330
A
100
AcDbDictionary
280
0
281
1
  0
ACDBDICTIONARYWDFLT
  5
12
330
A
100
AcDbDictionary
280
0
281
1
  3
Normal
350
13
100
AcDbDictionaryWithDefault
340
13
  0
ACDBPLACEHOLDER
  5
13
330
12
  0
DICTIONARY
  5
14
330
A
100
AcDbDictionary
280
0
281
1
  0
DICTIONARY
  5
15
330
A
100
AcDbDictionary
280
0
281
1
  0
DICTIONARY
  5
16
330
A
100
AcDbDictionary
280
0
281
1
  0
LAYOUT
  5
1A
330
D
100
AcDbPlotSettings
  1

  2
Adobe PDF
  4
A3
  6

 40
7.5
 41
20.0
 42
7.5
 43
20.0
 44
420.0
 45
297.0
 46
0.0
 47
0.0
 48
0.0
 49
0.0
140
0.0
141
0.0
142
1.0
143
1.0
 70
1024
 72
1
 73
0
 74
5
  7

 75
16
 76
0
 77
2
 78
300
147
1.0
148
0.0
149
0.0
100
AcDbLayout
  1
Model
 70
1
 71
0
 10
0.0
 20
0.0
 11
420.0
 21
297.0
 12
0.0
 22
0.0
 32
0.0
 14
1e+20
 24
1e+20
 34
1e+20
 15
-1e+20
 25
-1e+20
 35
-1e+20
146
0.0
 13
0.0
 23
0.0
 33
0.0
 16
1.0
 26
0.0
 36
0.0
 17
0.0
 27
1.0
 37
0.0
 76
1
330
17
  0
LAYOUT
  5
1E
330
D
100
AcDbPlotSettings
  1

  2
Adobe PDF
  4
A3
  6

 40
7.5
 41
20.0
 42
7.5
 43
20.0
 44
420.0
 45
297.0
 46
0.0
 47
0.0
 48
0.0
 49
0.0
140
0.0
141
0.0
142
1.0
143
1.0
 70
0
 72
1
 73
0
 74
5
  7

 75
16
 76
0
 77
2
 78
300
147
1.0
148
0.0
149
0.0
100
AcDbLayout
  1
Layout1
 70
1
 71
1
 10
0.0
 20
0.0
 11
420.0
 21
297.0
 12
0.0
 22
0.0
 32
0.0
 14
1e+20
 24
1e+20
 34
1e+20
 15
-1e+20
 25
-1e+20
 35
-1e+20
146
0.0
 13
0.0
 23
0.0
 33
0.0
 16
1.0
 26
0.0
 36
0.0
 17
0.0
 27
1.0
 37
0.0
 76
1
330
1B
  0
MATERIAL
  5
1F
102
{ACAD_REACTORS
330
E
102
}
330
E
100
AcDbMaterial
  1
ByBlock
  2

 70
0
 40
1.0
 71
1
 41
1.0
 91
-1023410177
 42
1.0
 72
1
  3

 73
1
 74
1
 75
1
 44
0.5
 73
0
 45
1.0
 46
1.0
 77
1
  4

 78
1
 79
1
170
1
 48
1.0
171
1
  6

172
1
173
1
174
1
140
1.0
141
1.0
175
1
  7

176
1
177
1
178
1
143
1.0
179
1
  8

270
1
271
1
272
1
145
1.0
146
1.0
273
1
  9

274
1
275
1
276
1
 42
1.0
 72
1
  3

 73
1
 74
1
 75
1
 94
63
  0
MATERIAL
  5
20
102
{ACAD_REACTORS
330
E
102
}
330
E
100
AcDbMaterial
  1
ByLayer
  2

 70
0
 40
1.0
 71
1
 41
1.0
 91
-1023410177
 42
1.0
 72
1
  3

 73
1
 74
1
 75
1
 44
0.5
 73
0
 45
1.0
 46
1.0
 77
1
  4

 78
1
 79
1
170
1
 48
1.0
171
1
  6

172
1
173
1
174
1
140
1.0
141
1.0
175
1
  7

176
1
177
1
178
1
143
1.0
179
1
  8

270
1
271
1
272
1
145
1.0
146
1.0
273
1
  9

274
1
275
1
276
1
 42
1.0
 72
1
  3

 73
1
 74
1
 75
1
 94
63
  0
MATERIAL
  5
21
102
{ACAD_REACTORS
330
E
102
}
330
E
100
AcDbMaterial
  1
Global
  2

 70
0
 40
1.0
 71
1
 41
1.0
 91
-1023410177
 42
1.0
 72
1
  3

 73
1
 74
1
 75
1
 44
0.5
 73
0
 45
1.0
 46
1.0
 77
1
  4

 78
1
 79
1
170
1
 48
1.0
171
1
  6

172
1
173
1
174
1
140
1.0
141
1.0
175
1
  7

176
1
177
1
178
1
143
1.0
179
1
  8

270
1
271
1
272
1
145
1.0
146
1.0
273
1
  9

274
1
275
1
276
1
 42
1.0
 72
1
  3

 73
1
 74
1
 75
1
 94
63
  0
MLINESTYLE
  5
22
102
{ACAD_REACTORS
330
10
102
}
330
10
100
AcDbMlineStyle
  2
Standard
 70
0
  3

 62
256
 51
90.0
 52
90.0
 71
2
 49
0.5
 62
256
  6
BYLAYER
 49
-0.5
 62
256
  6
BYLAYER
  0
MLEADERSTYLE
  5
2C
102
{ACAD_REACTORS
330
F
102
}
330
F
100
AcDbMLeaderStyle
179
2
170
2
171
1
172
0
 90
2
 40
0.0
 41
0.0
173
1
 91
-1056964608
 92
-2
290
1
 42
2.0
291
1
 43
8.0
  3
Standard
 44
4.0
300

342
29
174
1
175
1
176
0
178
1
 93
-1056964608
 45
4.0
292
0
297
0
 46
4.0
 94
-1056964608
 47
1.0
 49
1.0
140
1.0
294
1
141
0.0
177
0
142
1.0
295
0
296
0
143
3.75
271
0
272
9
273
9
  0
DICTIONARY
  5
2D
330
A
100
AcDbDictionary
281
1
  3
CREATED_BY_EZDXF
350
2E
  3
WRITTEN_BY_EZDXF
350
37
  0
DICTIONARYVAR
  5
2E
330
2D
100
DictionaryVariables
280
0
  1
1.1.0 @ 2024-12-26T00:05:54.971040+00:00
  0
DICTIONARYVAR
  5
37
330
2D
100
DictionaryVariables
280
0
  1
1.1.0 @ 2024-12-26T00:05:54.976054+00:00
  0
ENDSEC
  0
EOF
