  0
SECTION
  2
HEADER
  9
$ACADVER
  1
AC1027
  9
$ACADMAINTVER
 70
105
  9
$DWGCODEPAGE
  3
ANSI_1252
  9
$LASTSAVEDBY
  1
ezdxf
  9
$REQUIREDVERSIONS
160
0
  9
$INSBASE
 10
0.0
 20
0.0
 30
0.0
  9
$EXTMIN
 10
1e+20
 20
1e+20
 30
1e+20
  9
$EXTMAX
 10
-1e+20
 20
-1e+20
 30
-1e+20
  9
$LIMMIN
 10
0.0
 20
0.0
  9
$LIMMAX
 10
420.0
 20
297.0
  9
$ORTHOMODE
 70
0
  9
$REGENMODE
 70
1
  9
$FILLMODE
 70
1
  9
$QTEXTMODE
 70
0
  9
$MIRRTEXT
 70
1
  9
$LTSCALE
 40
1.0
  9
$ATTMODE
 70
1
  9
$TEXTSIZE
 40
2.5
  9
$TRACEWID
 40
1.0
  9
$TEXTSTYLE
  7
Standard
  9
$CLAYER
  8
0
  9
$CELTYPE
  6
ByLayer
  9
$CECOLOR
 62
256
  9
$CELTSCALE
 40
1.0
  9
$DISPSILH
 70
0
  9
$DIMSCALE
 40
1.0
  9
$DIMASZ
 40
2.5
  9
$DIMEXO
 40
0.625
  9
$DIMDLI
 40
3.75
  9
$DIMRND
 40
0.0
  9
$DIMDLE
 40
0.0
  9
$DIMEXE
 40
1.25
  9
$DIMTP
 40
0.0
  9
$DIMTM
 40
0.0
  9
$DIMTXT
 40
2.5
  9
$DIMCEN
 40
2.5
  9
$DIMTSZ
 40
0.0
  9
$DIMTOL
 70
0
  9
$DIMLIM
 70
0
  9
$DIMTIH
 70
0
  9
$DIMTOH
 70
0
  9
$DIMSE1
 70
0
  9
$DIMSE2
 70
0
  9
$DIMTAD
 70
1
  9
$DIMZIN
 70
8
  9
$DIMBLK
  1

  9
$DIMASO
 70
1
  9
$DIMSHO
 70
1
  9
$DIMPOST
  1

  9
$DIMAPOST
  1

  9
$DIMALT
 70
0
  9
$DIMALTD
 70
3
  9
$DIMALTF
 40
0.03937007874
  9
$DIMLFAC
 40
1.0
  9
$DIMTOFL
 70
1
  9
$DIMTVP
 40
0.0
  9
$DIMTIX
 70
0
  9
$DIMSOXD
 70
0
  9
$DIMSAH
 70
0
  9
$DIMBLK1
  1

  9
$DIMBLK2
  1

  9
$DIMSTYLE
  2
ISO-25
  9
$DIMCLRD
 70
0
  9
$DIMCLRE
 70
0
  9
$DIMCLRT
 70
0
  9
$DIMTFAC
 40
1.0
  9
$DIMGAP
 40
0.625
  9
$DIMJUST
 70
0
  9
$DIMSD1
 70
0
  9
$DIMSD2
 70
0
  9
$DIMTOLJ
 70
0
  9
$DIMTZIN
 70
8
  9
$DIMALTZ
 70
0
  9
$DIMALTTZ
 70
0
  9
$DIMUPT
 70
0
  9
$DIMDEC
 70
2
  9
$DIMTDEC
 70
2
  9
$DIMALTU
 70
2
  9
$DIMALTTD
 70
3
  9
$DIMTXSTY
  7
Standard
  9
$DIMAUNIT
 70
0
  9
$DIMADEC
 70
0
  9
$DIMALTRND
 40
0.0
  9
$DIMAZIN
 70
0
  9
$DIMDSEP
 70
44
  9
$DIMATFIT
 70
3
  9
$DIMFRAC
 70
0
  9
$DIMLDRBLK
  1

  9
$DIMLUNIT
 70
2
  9
$DIMLWD
 70
-2
  9
$DIMLWE
 70
-2
  9
$DIMTMOVE
 70
0
  9
$DIMFXL
 40
1.0
  9
$DIMFXLON
 70
0
  9
$DIMJOGANG
 40
0.785398163397
  9
$DIMTFILL
 70
0
  9
$DIMTFILLCLR
 70
0
  9
$DIMARCSYM
 70
0
  9
$DIMLTYPE
  6

  9
$DIMLTEX1
  6

  9
$DIMLTEX2
  6

  9
$DIMTXTDIRECTION
 70
0
  9
$LUNITS
 70
2
  9
$LUPREC
 70
4
  9
$SKETCHINC
 40
1.0
  9
$FILLETRAD
 40
10.0
  9
$AUNITS
 70
0
  9
$AUPREC
 70
2
  9
$MENU
  1
.
  9
$ELEVATION
 40
0.0
  9
$PELEVATION
 40
0.0
  9
$THICKNESS
 40
0.0
  9
$LIMCHECK
 70
0
  9
$CHAMFERA
 40
0.0
  9
$CHAMFERB
 40
0.0
  9
$CHAMFERC
 40
0.0
  9
$CHAMFERD
 40
0.0
  9
$SKPOLY
 70
0
  9
$TDCREATE
 40
2460724.6313425926
  9
$TDUCREATE
 40
2458532.153996898
  9
$TDUPDATE
 40
2460724.6313425926
  9
$TDUUPDATE
 40
2458532.1544311
  9
$TDINDWG
 40
0.0
  9
$TDUSRTIMER
 40
0.0
  9
$USRTIMER
 70
1
  9
$ANGBASE
 50
0.0
  9
$ANGDIR
 70
0
  9
$PDMODE
 70
0
  9
$PDSIZE
 40
0.0
  9
$PLINEWID
 40
0.0
  9
$SPLFRAME
 70
0
  9
$SPLINETYPE
 70
6
  9
$SPLINESEGS
 70
8
  9
$HANDSEED
  5
4F
  9
$SURFTAB1
 70
6
  9
$SURFTAB2
 70
6
  9
$SURFTYPE
 70
6
  9
$SURFU
 70
6
  9
$SURFV
 70
6
  9
$UCSBASE
  2

  9
$UCSNAME
  2

  9
$UCSORG
 10
0.0
 20
0.0
 30
0.0
  9
$UCSXDIR
 10
1.0
 20
0.0
 30
0.0
  9
$UCSYDIR
 10
0.0
 20
1.0
 30
0.0
  9
$UCSORTHOREF
  2

  9
$UCSORTHOVIEW
 70
0
  9
$UCSORGTOP
 10
0.0
 20
0.0
 30
0.0
  9
$UCSORGBOTTOM
 10
0.0
 20
0.0
 30
0.0
  9
$UCSORGLEFT
 10
0.0
 20
0.0
 30
0.0
  9
$UCSORGRIGHT
 10
0.0
 20
0.0
 30
0.0
  9
$UCSORGFRONT
 10
0.0
 20
0.0
 30
0.0
  9
$UCSORGBACK
 10
0.0
 20
0.0
 30
0.0
  9
$PUCSBASE
  2

  9
$PUCSNAME
  2

  9
$PUCSORG
 10
0.0
 20
0.0
 30
0.0
  9
$PUCSXDIR
 10
1.0
 20
0.0
 30
0.0
  9
$PUCSYDIR
 10
0.0
 20
1.0
 30
0.0
  9
$PUCSORTHOREF
  2

  9
$PUCSORTHOVIEW
 70
0
  9
$PUCSORGTOP
 10
0.0
 20
0.0
 30
0.0
  9
$PUCSORGBOTTOM
 10
0.0
 20
0.0
 30
0.0
  9
$PUCSORGLEFT
 10
0.0
 20
0.0
 30
0.0
  9
$PUCSORGRIGHT
 10
0.0
 20
0.0
 30
0.0
  9
$PUCSORGFRONT
 10
0.0
 20
0.0
 30
0.0
  9
$PUCSORGBACK
 10
0.0
 20
0.0
 30
0.0
  9
$USERI1
 70
0
  9
$USERI2
 70
0
  9
$USERI3
 70
0
  9
$USERI4
 70
0
  9
$USERI5
 70
0
  9
$USERR1
 40
0.0
  9
$USERR2
 40
0.0
  9
$USERR3
 40
0.0
  9
$USERR4
 40
0.0
  9
$USERR5
 40
0.0
  9
$WORLDVIEW
 70
1
  9
$SHADEDGE
 70
3
  9
$SHADEDIF
 70
70
  9
$TILEMODE
 70
1
  9
$MAXACTVP
 70
64
  9
$PINSBASE
 10
0.0
 20
0.0
 30
0.0
  9
$PLIMCHECK
 70
0
  9
$PEXTMIN
 10
1e+20
 20
1e+20
 30
1e+20
  9
$PEXTMAX
 10
-1e+20
 20
-1e+20
 30
-1e+20
  9
$PLIMMIN
 10
0.0
 20
0.0
  9
$PLIMMAX
 10
420.0
 20
297.0
  9
$UNITMODE
 70
0
  9
$VISRETAIN
 70
1
  9
$PLINEGEN
 70
0
  9
$PSLTSCALE
 70
1
  9
$TREEDEPTH
 70
3020
  9
$CMLSTYLE
  2
Standard
  9
$CMLJUST
 70
0
  9
$CMLSCALE
 40
20.0
  9
$PROXYGRAPHICS
 70
1
  9
$MEASUREMENT
 70
1
  9
$CELWEIGHT
370
-1
  9
$ENDCAPS
280
0
  9
$JOINSTYLE
280
0
  9
$LWDISPLAY
290
0
  9
$INSUNITS
 70
6
  9
$HYPERLINKBASE
  1

  9
$STYLESHEET
  1

  9
$XEDIT
290
1
  9
$CEPSNTYPE
380
0
  9
$PSTYLEMODE
290
1
  9
$FINGERPRINTGUID
  2
{F32D66C0-6254-412C-B177-0CA6E85C8CA4}
  9
$VERSIONGUID
  2
{2482DAEF-F937-4A32-B8EE-6BD7FBF6F176}
  9
$EXTNAMES
290
1
  9
$PSVPSCALE
 40
0.0
  9
$OLESTARTUP
290
0
  9
$SORTENTS
280
127
  9
$INDEXCTL
280
0
  9
$HIDETEXT
280
1
  9
$XCLIPFRAME
280
0
  9
$HALOGAP
280
0
  9
$OBSCOLOR
 70
257
  9
$OBSLTYPE
280
0
  9
$INTERSECTIONDISPLAY
280
0
  9
$INTERSECTIONCOLOR
 70
257
  9
$DIMASSOC
280
2
  9
$PROJECTNAME
  1

  9
$CAMERADISPLAY
290
0
  9
$LENSLENGTH
 40
50.0
  9
$CAMERAHEIGHT
 40
0.0
  9
$STEPSPERSEC
 40
24.0
  9
$STEPSIZE
 40
100.0
  9
$3DDWFPREC
 40
2.0
  9
$PSOLWIDTH
 40
0.005
  9
$PSOLHEIGHT
 40
0.08
  9
$LOFTANG1
 40
1.570796326795
  9
$LOFTANG2
 40
1.570796326795
  9
$LOFTMAG1
 40
0.0
  9
$LOFTMAG2
 40
0.0
  9
$LOFTPARAM
 70
7
  9
$LOFTNORMALS
280
1
  9
$LATITUDE
 40
37.795
  9
$LONGITUDE
 40
-122.394
  9
$NORTHDIRECTION
 40
0.0
  9
$TIMEZONE
 70
-8000
  9
$LIGHTGLYPHDISPLAY
280
1
  9
$TILEMODELIGHTSYNCH
280
1
  9
$CMATERIAL
347
20
  9
$SOLIDHIST
280
0
  9
$SHOWHIST
280
1
  9
$DWFFRAME
280
2
  9
$DGNFRAME
280
2
  9
$REALWORLDSCALE
290
1
  9
$INTERFERECOLOR
 62
256
  9
$CSHADOW
280
0
  9
$SHADOWPLANELOCATION
 40
0.0
  0
ENDSEC
  0
SECTION
  2
CLASSES
  0
CLASS
  1
ACDBDICTIONARYWDFLT
  2
AcDbDictionaryWithDefault
  3
ObjectDBX Classes
 90
0
 91
0
280
0
281
0
  0
CLASS
  1
SUN
  2
AcDbSun
  3
SCENEOE
 90
1153
 91
0
280
0
281
0
  0
CLASS
  1
VISUALSTYLE
  2
AcDbVisualStyle
  3
ObjectDBX Classes
 90
4095
 91
0
280
0
281
0
  0
CLASS
  1
MATERIAL
  2
AcDbMaterial
  3
ObjectDBX Classes
 90
1153
 91
0
280
0
281
0
  0
CLASS
  1
SCALE
  2
AcDbScale
  3
ObjectDBX Classes
 90
1153
 91
0
280
0
281
0
  0
CLASS
  1
TABLESTYLE
  2
AcDbTableStyle
  3
ObjectDBX Classes
 90
4095
 91
0
280
0
281
0
  0
CLASS
  1
MLEADERSTYLE
  2
AcDbMLeaderStyle
  3
ACDB_MLEADERSTYLE_CLASS
 90
4095
 91
0
280
0
281
0
  0
CLASS
  1
DICTIONARYVAR
  2
AcDbDictionaryVar
  3
ObjectDBX Classes
 90
0
 91
0
280
0
281
0
  0
CLASS
  1
CELLSTYLEMAP
  2
AcDbCellStyleMap
  3
ObjectDBX Classes
 90
1152
 91
0
280
0
281
0
  0
CLASS
  1
MENTALRAYRENDERSETTINGS
  2
AcDbMentalRayRenderSettings
  3
SCENEOE
 90
1024
 91
0
280
0
281
0
  0
CLASS
  1
ACDBDETAILVIEWSTYLE
  2
AcDbDetailViewStyle
  3
ObjectDBX Classes
 90
1025
 91
0
280
0
281
0
  0
CLASS
  1
ACDBSECTIONVIEWSTYLE
  2
AcDbSectionViewStyle
  3
ObjectDBX Classes
 90
1025
 91
0
280
0
281
0
  0
CLASS
  1
RASTERVARIABLES
  2
AcDbRasterVariables
  3
ISM
 90
0
 91
0
280
0
281
0
  0
CLASS
  1
ACDBPLACEHOLDER
  2
AcDbPlaceHolder
  3
ObjectDBX Classes
 90
0
 91
0
280
0
281
0
  0
CLASS
  1
LAYOUT
  2
AcDbLayout
  3
ObjectDBX Classes
 90
0
 91
0
280
0
281
0
  0
ENDSEC
  0
SECTION
  2
TABLES
  0
TABLE
  2
VPORT
  5
8
330
0
100
AcDbSymbolTable
 70
1
  0
VPORT
  5
23
330
8
100
AcDbSymbolTableRecord
100
AcDbViewportTableRecord
  2
*Active
 70
0
 10
0.0
 20
0.0
 11
1.0
 21
1.0
 12
0.0
 22
0.0
 13
0.0
 23
0.0
 14
0.5
 24
0.5
 15
0.5
 25
0.5
 16
0.0
 26
0.0
 36
1.0
 17
0.0
 27
0.0
 37
0.0
 40
1000.0
 41
1.34
 42
50.0
 43
0.0
 44
0.0
 50
0.0
 51
0.0
 71
0
 72
1000
 73
1
 74
3
 75
0
 76
0
 77
0
 78
0
281
0
 65
0
146
0.0
  0
ENDTAB
  0
TABLE
  2
LTYPE
  5
2
330
0
100
AcDbSymbolTable
 70
3
  0
LTYPE
  5
24
330
2
100
AcDbSymbolTableRecord
100
AcDbLinetypeTableRecord
  2
ByBlock
 70
0
  3

 72
65
 73
0
 40
0.0
  0
LTYPE
  5
25
330
2
100
AcDbSymbolTableRecord
100
AcDbLinetypeTableRecord
  2
ByLayer
 70
0
  3

 72
65
 73
0
 40
0.0
  0
LTYPE
  5
26
330
2
100
AcDbSymbolTableRecord
100
AcDbLinetypeTableRecord
  2
Continuous
 70
0
  3

 72
65
 73
0
 40
0.0
  0
ENDTAB
  0
TABLE
  2
LAYER
  5
1
330
0
100
AcDbSymbolTable
 70
5
  0
LAYER
  5
27
330
1
100
AcDbSymbolTableRecord
100
AcDbLayerTableRecord
  2
0
 70
0
 62
7
  6
Continuous
370
-3
390
13
347
21
  0
LAYER
  5
28
330
1
100
AcDbSymbolTableRecord
100
AcDbLayerTableRecord
  2
Defpoints
 70
0
 62
7
  6
Continuous
290
0
370
-3
390
13
347
21
  0
LAYER
  5
2F
330
1
100
AcDbSymbolTableRecord
100
AcDbLayerTableRecord
  2
conductor
 70
0
 62
1
  6
Continuous
370
-3
390
13
347
21
  0
LAYER
  5
30
330
1
100
AcDbSymbolTableRecord
100
AcDbLayerTableRecord
  2
dielectric
 70
0
 62
8
  6
Continuous
370
-3
390
13
347
21
  0
LAYER
  5
31
330
1
100
AcDbSymbolTableRecord
100
AcDbLayerTableRecord
  2
substrate
 70
0
 62
5
  6
Continuous
370
-3
390
13
347
21
  0
ENDTAB
  0
TABLE
  2
STYLE
  5
5
330
0
100
AcDbSymbolTable
 70
1
  0
STYLE
  5
29
330
5
100
AcDbSymbolTableRecord
100
AcDbTextStyleTableRecord
  2
Standard
 70
0
 40
0.0
 41
1.0
 50
0.0
 71
0
 42
2.5
  3
txt
  4

  0
ENDTAB
  0
TABLE
  2
VIEW
  5
7
330
0
100
AcDbSymbolTable
 70
0
  0
ENDTAB
  0
TABLE
  2
UCS
  5
6
330
0
100
AcDbSymbolTable
 70
0
  0
ENDTAB
  0
TABLE
  2
APPID
  5
3
330
0
100
AcDbSymbolTable
 70
3
  0
APPID
  5
2A
330
3
100
AcDbSymbolTableRecord
100
AcDbRegAppTableRecord
  2
ACAD
 70
0
  0
APPID
  5
4C
330
3
100
AcDbSymbolTableRecord
100
AcDbRegAppTableRecord
  2
HATCHBACKGROUNDCOLOR
 70
0
  0
APPID
  5
4D
330
3
100
AcDbSymbolTableRecord
100
AcDbRegAppTableRecord
  2
EZDXF
 70
0
  0
ENDTAB
  0
TABLE
  2
DIMSTYLE
  5
4
330
0
100
AcDbSymbolTable
 70
1
100
AcDbDimStyleTable
  0
DIMSTYLE
105
2B
330
4
100
AcDbSymbolTableRecord
100
AcDbDimStyleTableRecord
  2
Standard
 70
0
 40
1.0
 41
2.5
 42
0.625
 43
3.75
 44
1.25
 45
0.0
 46
0.0
 47
0.0
 48
0.0
 49
2.5
140
2.5
141
2.5
142
0.0
143
0.03937007874
144
1.0
145
0.0
146
1.0
147
0.625
148
0.0
 69
0
 70
0
 71
0
 72
0
 73
0
 74
0
 75
0
 76
0
 77
1
 78
8
 79
3
170
0
171
3
172
1
173
0
174
0
175
0
176
0
177
0
178
0
179
2
271
2
272
2
273
2
274
3
275
0
276
0
277
2
278
44
279
0
280
0
281
0
282
0
283
0
284
8
285
0
286
0
288
0
289
3
290
0
371
-2
372
-2
  0
ENDTAB
  0
TABLE
  2
BLOCK_RECORD
  5
9
330
0
100
AcDbSymbolTable
 70
2
  0
BLOCK_RECORD
  5
17
330
9
100
AcDbSymbolTableRecord
100
AcDbBlockTableRecord
  2
*Model_Space
340
1A
 70
0
280
1
281
0
  0
BLOCK_RECORD
  5
1B
330
9
100
AcDbSymbolTableRecord
100
AcDbBlockTableRecord
  2
*Paper_Space
340
1E
 70
0
280
1
281
0
  0
ENDTAB
  0
ENDSEC
  0
SECTION
  2
BLOCKS
  0
BLOCK
  5
18
330
17
100
AcDbEntity
  8
0
100
AcDbBlockBegin
  2
*Model_Space
 70
0
 10
0.0
 20
0.0
 30
0.0
  3
*Model_Space
  1

  0
ENDBLK
  5
19
330
17
100
AcDbEntity
  8
0
100
AcDbBlockEnd
  0
BLOCK
  5
1C
330
1B
100
AcDbEntity
  8
0
100
AcDbBlockBegin
  2
*Paper_Space
 70
0
 10
0.0
 20
0.0
 30
0.0
  3
*Paper_Space
  1

  0
ENDBLK
  5
1D
330
1B
100
AcDbEntity
  8
0
100
AcDbBlockEnd
  0
ENDSEC
  0
SECTION
  2
ENTITIES
  0
LWPOLYLINE
  5
32
330
17
100
AcDbEntity
  8
conductor
100
AcDbPolyline
 90
1487
 70
1
 43
0.5
 10
3080.966796875
 20
-676.07421875
 10
3071.30859375
 20
-685.732421875
 10
3061.650390625
 20
-685.732421875
 10
3051.9921875
 20
-695.390625
 10
3051.9921875
 20
-705.048828125
 10
3042.333984375
 20
-714.70703125
 10
3032.67578125
 20
-724.365234375
 10
3032.67578125
 20
-734.0234375
 10
3023.017578125
 20
-743.681640625
 10
3013.359375
 20
-743.681640625
 10
3003.701171875
 20
-743.681640625
 10
2994.04296875
 20
-743.681640625
 10
2984.384765625
 20
-734.0234375
 10
2984.384765625
 20
-724.365234375
 10
2974.7265625
 20
-734.0234375
 10
2965.068359375
 20
-734.0234375
 10
2955.41015625
 20
-734.0234375
 10
2945.751953125
 20
-734.0234375
 10
2936.09375
 20
-743.681640625
 10
2926.435546875
 20
-734.0234375
 10
2916.77734375
 20
-734.0234375
 10
2907.119140625
 20
-724.365234375
 10
2897.4609375
 20
-714.70703125
 10
2887.802734375
 20
-714.70703125
 10
2878.14453125
 20
-714.70703125
 10
2868.486328125
 20
-724.365234375
 10
2858.828125
 20
-724.365234375
 10
2849.169921875
 20
-724.365234375
 10
2839.51171875
 20
-724.365234375
 10
2829.853515625
 20
-734.0234375
 10
2820.1953125
 20
-734.0234375
 10
2810.537109375
 20
-734.0234375
 10
2800.87890625
 20
-743.681640625
 10
2791.220703125
 20
-743.681640625
 10
2781.5625
 20
-743.681640625
 10
2771.904296875
 20
-753.33984375
 10
2762.24609375
 20
-743.681640625
 10
2752.587890625
 20
-743.681640625
 10
2742.9296875
 20
-743.681640625
 10
2733.271484375
 20
-743.681640625
 10
2723.61328125
 20
-743.681640625
 10
2713.955078125
 20
-743.681640625
 10
2704.296875
 20
-743.681640625
 10
2694.638671875
 20
-753.33984375
 10
2684.98046875
 20
-743.681640625
 10
2675.322265625
 20
-743.681640625
 10
2665.6640625
 20
-743.681640625
 10
2656.005859375
 20
-743.681640625
 10
2646.34765625
 20
-743.681640625
 10
2636.689453125
 20
-743.681640625
 10
2627.03125
 20
-743.681640625
 10
2617.373046875
 20
-743.681640625
 10
2607.71484375
 20
-743.681640625
 10
2598.056640625
 20
-743.681640625
 10
2588.3984375
 20
-734.0234375
 10
2578.740234375
 20
-734.0234375
 10
2569.08203125
 20
-734.0234375
 10
2559.423828125
 20
-743.681640625
 10
2549.765625
 20
-743.681640625
 10
2540.107421875
 20
-743.681640625
 10
2530.44921875
 20
-743.681640625
 10
2520.791015625
 20
-743.681640625
 10
2511.1328125
 20
-743.681640625
 10
2501.474609375
 20
-743.681640625
 10
2491.81640625
 20
-753.33984375
 10
2482.158203125
 20
-753.33984375
 10
2472.5
 20
-762.998046875
 10
2462.841796875
 20
-753.33984375
 10
2453.18359375
 20
-762.998046875
 10
2443.525390625
 20
-753.33984375
 10
2433.8671875
 20
-753.33984375
 10
2424.208984375
 20
-753.33984375
 10
2414.55078125
 20
-753.33984375
 10
2404.892578125
 20
-762.998046875
 10
2395.234375
 20
-762.998046875
 10
2385.576171875
 20
-753.33984375
 10
2375.91796875
 20
-753.33984375
 10
2366.259765625
 20
-753.33984375
 10
2356.6015625
 20
-753.33984375
 10
2346.943359375
 20
-753.33984375
 10
2337.28515625
 20
-753.33984375
 10
2327.626953125
 20
-753.33984375
 10
2317.96875
 20
-753.33984375
 10
2308.310546875
 20
-753.33984375
 10
2298.65234375
 20
-753.33984375
 10
2288.994140625
 20
-753.33984375
 10
2279.3359375
 20
-753.33984375
 10
2269.677734375
 20
-753.33984375
 10
2260.01953125
 20
-753.33984375
 10
2250.361328125
 20
-762.998046875
 10
2240.703125
 20
-762.998046875
 10
2231.044921875
 20
-762.998046875
 10
2221.38671875
 20
-762.998046875
 10
2211.728515625
 20
-772.65625
 10
2202.0703125
 20
-762.998046875
 10
2192.412109375
 20
-762.998046875
 10
2182.75390625
 20
-762.998046875
 10
2173.095703125
 20
-772.65625
 10
2163.4375
 20
-782.314453125
 10
2153.779296875
 20
-782.314453125
 10
2144.12109375
 20
-782.314453125
 10
2134.462890625
 20
-782.314453125
 10
2124.8046875
 20
-782.314453125
 10
2115.146484375
 20
-772.65625
 10
2105.48828125
 20
-772.65625
 10
2095.830078125
 20
-772.65625
 10
2086.171875
 20
-772.65625
 10
2076.513671875
 20
-762.998046875
 10
2066.85546875
 20
-762.998046875
 10
2057.197265625
 20
-762.998046875
 10
2047.5390625
 20
-753.33984375
 10
2037.880859375
 20
-753.33984375
 10
2028.22265625
 20
-753.33984375
 10
2018.564453125
 20
-753.33984375
 10
2008.90625
 20
-762.998046875
 10
1999.248046875
 20
-753.33984375
 10
1989.58984375
 20
-753.33984375
 10
1979.931640625
 20
-753.33984375
 10
1970.2734375
 20
-743.681640625
 10
1960.615234375
 20
-743.681640625
 10
1950.95703125
 20
-743.681640625
 10
1941.298828125
 20
-743.681640625
 10
1931.640625
 20
-734.0234375
 10
1921.982421875
 20
-724.365234375
 10
1912.32421875
 20
-724.365234375
 10
1902.666015625
 20
-724.365234375
 10
1893.0078125
 20
-724.365234375
 10
1883.349609375
 20
-714.70703125
 10
1893.0078125
 20
-705.048828125
 10
1883.349609375
 20
-714.70703125
 10
1873.69140625
 20
-724.365234375
 10
1873.69140625
 20
-734.0234375
 10
1873.69140625
 20
-743.681640625
 10
1873.69140625
 20
-753.33984375
 10
1873.69140625
 20
-762.998046875
 10
1873.69140625
 20
-772.65625
 10
1873.69140625
 20
-782.314453125
 10
1873.69140625
 20
-791.97265625
 10
1873.69140625
 20
-801.630859375
 10
1873.69140625
 20
-811.2890625
 10
1873.69140625
 20
-820.947265625
 10
1873.69140625
 20
-830.60546875
 10
1873.69140625
 20
-840.263671875
 10
1873.69140625
 20
-849.921875
 10
1873.69140625
 20
-859.580078125
 10
1873.69140625
 20
-869.23828125
 10
1873.69140625
 20
-878.896484375
 10
1864.033203125
 20
-888.5546875
 10
1864.033203125
 20
-898.212890625
 10
1864.033203125
 20
-907.87109375
 10
1864.033203125
 20
-917.529296875
 10
1864.033203125
 20
-927.1875
 10
1873.69140625
 20
-936.845703125
 10
1873.69140625
 20
-946.50390625
 10
1873.69140625
 20
-956.162109375
 10
1873.69140625
 20
-965.8203125
 10
1873.69140625
 20
-975.478515625
 10
1864.033203125
 20
-985.13671875
 10
1864.033203125
 20
-994.794921875
 10
1864.033203125
 20
-1004.453125
 10
1854.375
 20
-1014.111328125
 10
1854.375
 20
-1023.76953125
 10
1854.375
 20
-1033.427734375
 10
1854.375
 20
-1043.0859375
 10
1854.375
 20
-1052.744140625
 10
1844.716796875
 20
-1062.40234375
 10
1854.375
 20
-1072.060546875
 10
1854.375
 20
-1081.71875
 10
1864.033203125
 20
-1091.376953125
 10
1864.033203125
 20
-1101.03515625
 10
1873.69140625
 20
-1110.693359375
 10
1864.033203125
 20
-1120.3515625
 10
1864.033203125
 20
-1130.009765625
 10
1864.033203125
 20
-1139.66796875
 10
1864.033203125
 20
-1149.326171875
 10
1864.033203125
 20
-1158.984375
 10
1864.033203125
 20
-1168.642578125
 10
1854.375
 20
-1178.30078125
 10
1864.033203125
 20
-1187.958984375
 10
1854.375
 20
-1197.6171875
 10
1844.716796875
 20
-1207.275390625
 10
1844.716796875
 20
-1216.93359375
 10
1844.716796875
 20
-1226.591796875
 10
1854.375
 20
-1236.25
 10
1854.375
 20
-1245.908203125
 10
1854.375
 20
-1255.56640625
 10
1864.033203125
 20
-1265.224609375
 10
1864.033203125
 20
-1274.8828125
 10
1854.375
 20
-1284.541015625
 10
1844.716796875
 20
-1294.19921875
 10
1844.716796875
 20
-1303.857421875
 10
1844.716796875
 20
-1313.515625
 10
1844.716796875
 20
-1323.173828125
 10
1844.716796875
 20
-1332.83203125
 10
1844.716796875
 20
-1342.490234375
 10
1844.716796875
 20
-1352.1484375
 10
1835.05859375
 20
-1361.806640625
 10
1835.05859375
 20
-1371.46484375
 10
1844.716796875
 20
-1381.123046875
 10
1844.716796875
 20
-1390.78125
 10
1844.716796875
 20
-1400.439453125
 10
1844.716796875
 20
-1410.09765625
 10
1854.375
 20
-1410.09765625
 10
1864.033203125
 20
-1419.755859375
 10
1864.033203125
 20
-1429.4140625
 10
1854.375
 20
-1439.072265625
 10
1854.375
 20
-1448.73046875
 10
1854.375
 20
-1458.388671875
 10
1854.375
 20
-1468.046875
 10
1854.375
 20
-1477.705078125
 10
1844.716796875
 20
-1487.36328125
 10
1854.375
 20
-1487.36328125
 10
1864.033203125
 20
-1497.021484375
 10
1854.375
 20
-1506.6796875
 10
1854.375
 20
-1516.337890625
 10
1854.375
 20
-1525.99609375
 10
1854.375
 20
-1535.654296875
 10
1864.033203125
 20
-1545.3125
 10
1864.033203125
 20
-1554.970703125
 10
1864.033203125
 20
-1564.62890625
 10
1864.033203125
 20
-1574.287109375
 10
1864.033203125
 20
-1583.9453125
 10
1854.375
 20
-1593.603515625
 10
1854.375
 20
-1603.26171875
 10
1854.375
 20
-1612.919921875
 10
1854.375
 20
-1622.578125
 10
1854.375
 20
-1632.236328125
 10
1854.375
 20
-1641.89453125
 10
1864.033203125
 20
-1651.552734375
 10
1854.375
 20
-1661.2109375
 10
1854.375
 20
-1670.869140625
 10
1844.716796875
 20
-1680.52734375
 10
1844.716796875
 20
-1690.185546875
 10
1844.716796875
 20
-1699.84375
 10
1854.375
 20
-1709.501953125
 10
1854.375
 20
-1719.16015625
 10
1854.375
 20
-1728.818359375
 10
1854.375
 20
-1738.4765625
 10
1854.375
 20
-1748.134765625
 10
1854.375
 20
-1757.79296875
 10
1854.375
 20
-1767.451171875
 10
1864.033203125
 20
-1777.109375
 10
1864.033203125
 20
-1786.767578125
 10
1864.033203125
 20
-1796.42578125
 10
1854.375
 20
-1806.083984375
 10
1854.375
 20
-1815.7421875
 10
1844.716796875
 20
-1825.400390625
 10
1835.05859375
 20
-1835.05859375
 10
1825.400390625
 20
-1835.05859375
 10
1815.7421875
 20
-1844.716796875
 10
1806.083984375
 20
-1844.716796875
 10
1796.42578125
 20
-1844.716796875
 10
1786.767578125
 20
-1844.716796875
 10
1777.109375
 20
-1844.716796875
 10
1767.451171875
 20
-1844.716796875
 10
1757.79296875
 20
-1835.05859375
 10
1748.134765625
 20
-1835.05859375
 10
1738.4765625
 20
-1835.05859375
 10
1728.818359375
 20
-1835.05859375
 10
1719.16015625
 20
-1835.05859375
 10
1709.501953125
 20
-1835.05859375
 10
1699.84375
 20
-1835.05859375
 10
1690.185546875
 20
-1835.05859375
 10
1680.52734375
 20
-1835.05859375
 10
1670.869140625
 20
-1825.400390625
 10
1661.2109375
 20
-1825.400390625
 10
1651.552734375
 20
-1835.05859375
 10
1641.89453125
 20
-1835.05859375
 10
1632.236328125
 20
-1835.05859375
 10
1622.578125
 20
-1835.05859375
 10
1612.919921875
 20
-1835.05859375
 10
1603.26171875
 20
-1835.05859375
 10
1593.603515625
 20
-1835.05859375
 10
1583.9453125
 20
-1825.400390625
 10
1574.287109375
 20
-1835.05859375
 10
1564.62890625
 20
-1835.05859375
 10
1554.970703125
 20
-1835.05859375
 10
1545.3125
 20
-1835.05859375
 10
1535.654296875
 20
-1835.05859375
 10
1525.99609375
 20
-1835.05859375
 10
1516.337890625
 20
-1835.05859375
 10
1506.6796875
 20
-1825.400390625
 10
1497.021484375
 20
-1835.05859375
 10
1487.36328125
 20
-1835.05859375
 10
1477.705078125
 20
-1835.05859375
 10
1468.046875
 20
-1825.400390625
 10
1458.388671875
 20
-1835.05859375
 10
1448.73046875
 20
-1835.05859375
 10
1439.072265625
 20
-1835.05859375
 10
1429.4140625
 20
-1835.05859375
 10
1419.755859375
 20
-1835.05859375
 10
1410.09765625
 20
-1835.05859375
 10
1400.439453125
 20
-1835.05859375
 10
1390.78125
 20
-1835.05859375
 10
1381.123046875
 20
-1835.05859375
 10
1371.46484375
 20
-1835.05859375
 10
1361.806640625
 20
-1835.05859375
 10
1352.1484375
 20
-1835.05859375
 10
1342.490234375
 20
-1835.05859375
 10
1332.83203125
 20
-1835.05859375
 10
1323.173828125
 20
-1835.05859375
 10
1313.515625
 20
-1835.05859375
 10
1303.857421875
 20
-1835.05859375
 10
1294.19921875
 20
-1825.400390625
 10
1284.541015625
 20
-1825.400390625
 10
1274.8828125
 20
-1825.400390625
 10
1265.224609375
 20
-1825.400390625
 10
1255.56640625
 20
-1825.400390625
 10
1245.908203125
 20
-1835.05859375
 10
1236.25
 20
-1825.400390625
 10
1226.591796875
 20
-1835.05859375
 10
1216.93359375
 20
-1835.05859375
 10
1207.275390625
 20
-1835.05859375
 10
1197.6171875
 20
-1825.400390625
 10
1187.958984375
 20
-1835.05859375
 10
1178.30078125
 20
-1835.05859375
 10
1168.642578125
 20
-1835.05859375
 10
1158.984375
 20
-1825.400390625
 10
1149.326171875
 20
-1835.05859375
 10
1139.66796875
 20
-1825.400390625
 10
1130.009765625
 20
-1825.400390625
 10
1120.3515625
 20
-1825.400390625
 10
1110.693359375
 20
-1835.05859375
 10
1101.03515625
 20
-1835.05859375
 10
1091.376953125
 20
-1835.05859375
 10
1081.71875
 20
-1835.05859375
 10
1072.060546875
 20
-1835.05859375
 10
1062.40234375
 20
-1835.05859375
 10
1052.744140625
 20
-1835.05859375
 10
1043.0859375
 20
-1835.05859375
 10
1033.427734375
 20
-1835.05859375
 10
1023.76953125
 20
-1835.05859375
 10
1014.111328125
 20
-1835.05859375
 10
1004.453125
 20
-1835.05859375
 10
994.794921875
 20
-1835.05859375
 10
985.13671875
 20
-1825.400390625
 10
975.478515625
 20
-1835.05859375
 10
965.8203125
 20
-1835.05859375
 10
956.162109375
 20
-1835.05859375
 10
946.50390625
 20
-1835.05859375
 10
936.845703125
 20
-1844.716796875
 10
927.1875
 20
-1835.05859375
 10
917.529296875
 20
-1835.05859375
 10
907.87109375
 20
-1835.05859375
 10
898.212890625
 20
-1835.05859375
 10
888.5546875
 20
-1835.05859375
 10
878.896484375
 20
-1835.05859375
 10
869.23828125
 20
-1844.716796875
 10
859.580078125
 20
-1844.716796875
 10
849.921875
 20
-1844.716796875
 10
840.263671875
 20
-1844.716796875
 10
830.60546875
 20
-1844.716796875
 10
820.947265625
 20
-1844.716796875
 10
811.2890625
 20
-1835.05859375
 10
801.630859375
 20
-1844.716796875
 10
791.97265625
 20
-1844.716796875
 10
782.314453125
 20
-1844.716796875
 10
772.65625
 20
-1844.716796875
 10
762.998046875
 20
-1844.716796875
 10
753.33984375
 20
-1854.375
 10
743.681640625
 20
-1854.375
 10
734.0234375
 20
-1854.375
 10
724.365234375
 20
-1854.375
 10
714.70703125
 20
-1854.375
 10
705.048828125
 20
-1854.375
 10
695.390625
 20
-1854.375
 10
685.732421875
 20
-1854.375
 10
676.07421875
 20
-1854.375
 10
666.416015625
 20
-1864.033203125
 10
656.7578125
 20
-1864.033203125
 10
666.416015625
 20
-1873.69140625
 10
666.416015625
 20
-1883.349609375
 10
666.416015625
 20
-1893.0078125
 10
666.416015625
 20
-1902.666015625
 10
666.416015625
 20
-1912.32421875
 10
676.07421875
 20
-1921.982421875
 10
676.07421875
 20
-1931.640625
 10
676.07421875
 20
-1941.298828125
 10
676.07421875
 20
-1950.95703125
 10
666.416015625
 20
-1960.615234375
 10
676.07421875
 20
-1970.2734375
 10
676.07421875
 20
-1979.931640625
 10
676.07421875
 20
-1989.58984375
 10
676.07421875
 20
-1999.248046875
 10
676.07421875
 20
-2008.90625
 10
676.07421875
 20
-2018.564453125
 10
676.07421875
 20
-2028.22265625
 10
676.07421875
 20
-2037.880859375
 10
676.07421875
 20
-2047.5390625
 10
685.732421875
 20
-2057.197265625
 10
685.732421875
 20
-2066.85546875
 10
685.732421875
 20
-2076.513671875
 10
685.732421875
 20
-2086.171875
 10
685.732421875
 20
-2095.830078125
 10
685.732421875
 20
-2105.48828125
 10
685.732421875
 20
-2115.146484375
 10
685.732421875
 20
-2124.8046875
 10
685.732421875
 20
-2134.462890625
 10
685.732421875
 20
-2144.12109375
 10
685.732421875
 20
-2153.779296875
 10
685.732421875
 20
-2163.4375
 10
685.732421875
 20
-2173.095703125
 10
685.732421875
 20
-2182.75390625
 10
685.732421875
 20
-2192.412109375
 10
685.732421875
 20
-2202.0703125
 10
685.732421875
 20
-2211.728515625
 10
685.732421875
 20
-2221.38671875
 10
685.732421875
 20
-2231.044921875
 10
685.732421875
 20
-2240.703125
 10
685.732421875
 20
-2250.361328125
 10
685.732421875
 20
-2260.01953125
 10
685.732421875
 20
-2269.677734375
 10
695.390625
 20
-2279.3359375
 10
695.390625
 20
-2288.994140625
 10
695.390625
 20
-2298.65234375
 10
695.390625
 20
-2308.310546875
 10
695.390625
 20
-2317.96875
 10
695.390625
 20
-2327.626953125
 10
695.390625
 20
-2337.28515625
 10
705.048828125
 20
-2346.943359375
 10
705.048828125
 20
-2356.6015625
 10
705.048828125
 20
-2366.259765625
 10
705.048828125
 20
-2375.91796875
 10
714.70703125
 20
-2385.576171875
 10
714.70703125
 20
-2395.234375
 10
714.70703125
 20
-2404.892578125
 10
714.70703125
 20
-2414.55078125
 10
714.70703125
 20
-2424.208984375
 10
714.70703125
 20
-2433.8671875
 10
714.70703125
 20
-2443.525390625
 10
714.70703125
 20
-2453.18359375
 10
714.70703125
 20
-2462.841796875
 10
714.70703125
 20
-2472.5
 10
714.70703125
 20
-2482.158203125
 10
705.048828125
 20
-2491.81640625
 10
705.048828125
 20
-2501.474609375
 10
705.048828125
 20
-2511.1328125
 10
714.70703125
 20
-2520.791015625
 10
705.048828125
 20
-2530.44921875
 10
714.70703125
 20
-2540.107421875
 10
714.70703125
 20
-2549.765625
 10
714.70703125
 20
-2559.423828125
 10
714.70703125
 20
-2569.08203125
 10
714.70703125
 20
-2578.740234375
 10
714.70703125
 20
-2588.3984375
 10
714.70703125
 20
-2598.056640625
 10
724.365234375
 20
-2607.71484375
 10
724.365234375
 20
-2617.373046875
 10
724.365234375
 20
-2627.03125
 10
724.365234375
 20
-2636.689453125
 10
724.365234375
 20
-2646.34765625
 10
724.365234375
 20
-2656.005859375
 10
724.365234375
 20
-2665.6640625
 10
724.365234375
 20
-2675.322265625
 10
724.365234375
 20
-2684.98046875
 10
734.0234375
 20
-2694.638671875
 10
734.0234375
 20
-2704.296875
 10
734.0234375
 20
-2713.955078125
 10
734.0234375
 20
-2723.61328125
 10
734.0234375
 20
-2733.271484375
 10
724.365234375
 20
-2742.9296875
 10
734.0234375
 20
-2752.587890625
 10
724.365234375
 20
-2762.24609375
 10
734.0234375
 20
-2771.904296875
 10
734.0234375
 20
-2781.5625
 10
734.0234375
 20
-2791.220703125
 10
734.0234375
 20
-2800.87890625
 10
734.0234375
 20
-2810.537109375
 10
724.365234375
 20
-2820.1953125
 10
724.365234375
 20
-2829.853515625
 10
724.365234375
 20
-2839.51171875
 10
724.365234375
 20
-2849.169921875
 10
724.365234375
 20
-2858.828125
 10
734.0234375
 20
-2868.486328125
 10
734.0234375
 20
-2878.14453125
 10
734.0234375
 20
-2887.802734375
 10
734.0234375
 20
-2897.4609375
 10
734.0234375
 20
-2907.119140625
 10
734.0234375
 20
-2916.77734375
 10
743.681640625
 20
-2926.435546875
 10
743.681640625
 20
-2936.09375
 10
743.681640625
 20
-2945.751953125
 10
753.33984375
 20
-2955.41015625
 10
753.33984375
 20
-2965.068359375
 10
753.33984375
 20
-2974.7265625
 10
753.33984375
 20
-2984.384765625
 10
753.33984375
 20
-2994.04296875
 10
743.681640625
 20
-3003.701171875
 10
743.681640625
 20
-3013.359375
 10
734.0234375
 20
-3023.017578125
 10
734.0234375
 20
-3032.67578125
 10
734.0234375
 20
-3042.333984375
 10
734.0234375
 20
-3051.9921875
 10
734.0234375
 20
-3061.650390625
 10
743.681640625
 20
-3071.30859375
 10
753.33984375
 20
-3071.30859375
 10
762.998046875
 20
-3071.30859375
 10
772.65625
 20
-3080.966796875
 10
782.314453125
 20
-3080.966796875
 10
791.97265625
 20
-3080.966796875
 10
801.630859375
 20
-3090.625
 10
811.2890625
 20
-3090.625
 10
820.947265625
 20
-3090.625
 10
830.60546875
 20
-3080.966796875
 10
840.263671875
 20
-3080.966796875
 10
849.921875
 20
-3080.966796875
 10
859.580078125
 20
-3080.966796875
 10
869.23828125
 20
-3080.966796875
 10
878.896484375
 20
-3080.966796875
 10
888.5546875
 20
-3080.966796875
 10
898.212890625
 20
-3080.966796875
 10
907.87109375
 20
-3071.30859375
 10
917.529296875
 20
-3071.30859375
 10
927.1875
 20
-3071.30859375
 10
936.845703125
 20
-3071.30859375
 10
946.50390625
 20
-3071.30859375
 10
956.162109375
 20
-3071.30859375
 10
965.8203125
 20
-3071.30859375
 10
975.478515625
 20
-3071.30859375
 10
985.13671875
 20
-3071.30859375
 10
994.794921875
 20
-3071.30859375
 10
1004.453125
 20
-3071.30859375
 10
1014.111328125
 20
-3061.650390625
 10
1023.76953125
 20
-3061.650390625
 10
1033.427734375
 20
-3061.650390625
 10
1043.0859375
 20
-3061.650390625
 10
1052.744140625
 20
-3061.650390625
 10
1062.40234375
 20
-3061.650390625
 10
1072.060546875
 20
-3051.9921875
 10
1081.71875
 20
-3061.650390625
 10
1091.376953125
 20
-3061.650390625
 10
1101.03515625
 20
-3071.30859375
 10
1110.693359375
 20
-3071.30859375
 10
1120.3515625
 20
-3071.30859375
 10
1130.009765625
 20
-3071.30859375
 10
1139.66796875
 20
-3071.30859375
 10
1149.326171875
 20
-3071.30859375
 10
1158.984375
 20
-3071.30859375
 10
1168.642578125
 20
-3071.30859375
 10
1178.30078125
 20
-3071.30859375
 10
1187.958984375
 20
-3071.30859375
 10
1197.6171875
 20
-3071.30859375
 10
1207.275390625
 20
-3071.30859375
 10
1216.93359375
 20
-3071.30859375
 10
1226.591796875
 20
-3061.650390625
 10
1236.25
 20
-3061.650390625
 10
1245.908203125
 20
-3061.650390625
 10
1255.56640625
 20
-3061.650390625
 10
1265.224609375
 20
-3071.30859375
 10
1274.8828125
 20
-3061.650390625
 10
1284.541015625
 20
-3061.650390625
 10
1294.19921875
 20
-3061.650390625
 10
1303.857421875
 20
-3061.650390625
 10
1313.515625
 20
-3061.650390625
 10
1323.173828125
 20
-3061.650390625
 10
1332.83203125
 20
-3061.650390625
 10
1342.490234375
 20
-3061.650390625
 10
1352.1484375
 20
-3061.650390625
 10
1361.806640625
 20
-3061.650390625
 10
1371.46484375
 20
-3061.650390625
 10
1381.123046875
 20
-3061.650390625
 10
1390.78125
 20
-3061.650390625
 10
1400.439453125
 20
-3061.650390625
 10
1410.09765625
 20
-3071.30859375
 10
1419.755859375
 20
-3071.30859375
 10
1429.4140625
 20
-3071.30859375
 10
1439.072265625
 20
-3071.30859375
 10
1448.73046875
 20
-3061.650390625
 10
1458.388671875
 20
-3061.650390625
 10
1468.046875
 20
-3061.650390625
 10
1477.705078125
 20
-3061.650390625
 10
1487.36328125
 20
-3061.650390625
 10
1497.021484375
 20
-3061.650390625
 10
1506.6796875
 20
-3061.650390625
 10
1516.337890625
 20
-3061.650390625
 10
1525.99609375
 20
-3051.9921875
 10
1535.654296875
 20
-3051.9921875
 10
1545.3125
 20
-3051.9921875
 10
1554.970703125
 20
-3051.9921875
 10
1564.62890625
 20
-3061.650390625
 10
1574.287109375
 20
-3061.650390625
 10
1583.9453125
 20
-3061.650390625
 10
1593.603515625
 20
-3061.650390625
 10
1603.26171875
 20
-3061.650390625
 10
1612.919921875
 20
-3051.9921875
 10
1622.578125
 20
-3051.9921875
 10
1632.236328125
 20
-3051.9921875
 10
1641.89453125
 20
-3051.9921875
 10
1651.552734375
 20
-3051.9921875
 10
1661.2109375
 20
-3051.9921875
 10
1670.869140625
 20
-3051.9921875
 10
1680.52734375
 20
-3051.9921875
 10
1690.185546875
 20
-3051.9921875
 10
1699.84375
 20
-3051.9921875
 10
1709.501953125
 20
-3051.9921875
 10
1719.16015625
 20
-3051.9921875
 10
1728.818359375
 20
-3051.9921875
 10
1738.4765625
 20
-3061.650390625
 10
1748.134765625
 20
-3061.650390625
 10
1757.79296875
 20
-3061.650390625
 10
1767.451171875
 20
-3061.650390625
 10
1777.109375
 20
-3061.650390625
 10
1786.767578125
 20
-3051.9921875
 10
1796.42578125
 20
-3051.9921875
 10
1806.083984375
 20
-3051.9921875
 10
1815.7421875
 20
-3051.9921875
 10
1825.400390625
 20
-3061.650390625
 10
1835.05859375
 20
-3061.650390625
 10
1844.716796875
 20
-3071.30859375
 10
1854.375
 20
-3080.966796875
 10
1864.033203125
 20
-3090.625
 10
1864.033203125
 20
-3100.283203125
 10
1873.69140625
 20
-3109.94140625
 10
1873.69140625
 20
-3119.599609375
 10
1873.69140625
 20
-3129.2578125
 10
1873.69140625
 20
-3138.916015625
 10
1864.033203125
 20
-3148.57421875
 10
1864.033203125
 20
-3158.232421875
 10
1864.033203125
 20
-3167.890625
 10
1864.033203125
 20
-3177.548828125
 10
1864.033203125
 20
-3187.20703125
 10
1864.033203125
 20
-3196.865234375
 10
1864.033203125
 20
-3206.5234375
 10
1854.375
 20
-3216.181640625
 10
1844.716796875
 20
-3225.83984375
 10
1844.716796875
 20
-3235.498046875
 10
1854.375
 20
-3235.498046875
 10
1864.033203125
 20
-3245.15625
 10
1864.033203125
 20
-3254.814453125
 10
1864.033203125
 20
-3264.47265625
 10
1873.69140625
 20
-3274.130859375
 10
1864.033203125
 20
-3283.7890625
 10
1854.375
 20
-3293.447265625
 10
1854.375
 20
-3303.10546875
 10
1854.375
 20
-3312.763671875
 10
1854.375
 20
-3322.421875
 10
1854.375
 20
-3332.080078125
 10
1844.716796875
 20
-3341.73828125
 10
1854.375
 20
-3341.73828125
 10
1864.033203125
 20
-3351.396484375
 10
1854.375
 20
-3361.0546875
 10
1854.375
 20
-3370.712890625
 10
1844.716796875
 20
-3380.37109375
 10
1854.375
 20
-3390.029296875
 10
1864.033203125
 20
-3399.6875
 10
1864.033203125
 20
-3409.345703125
 10
1864.033203125
 20
-3419.00390625
 10
1864.033203125
 20
-3428.662109375
 10
1864.033203125
 20
-3438.3203125
 10
1864.033203125
 20
-3447.978515625
 10
1854.375
 20
-3457.63671875
 10
1854.375
 20
-3467.294921875
 10
1854.375
 20
-3476.953125
 10
1854.375
 20
-3486.611328125
 10
1844.716796875
 20
-3496.26953125
 10
1854.375
 20
-3496.26953125
 10
1864.033203125
 20
-3505.927734375
 10
1854.375
 20
-3515.5859375
 10
1854.375
 20
-3525.244140625
 10
1844.716796875
 20
-3534.90234375
 10
1854.375
 20
-3544.560546875
 10
1854.375
 20
-3554.21875
 10
1864.033203125
 20
-3563.876953125
 10
1864.033203125
 20
-3573.53515625
 10
1873.69140625
 20
-3583.193359375
 10
1864.033203125
 20
-3592.8515625
 10
1854.375
 20
-3602.509765625
 10
1854.375
 20
-3612.16796875
 10
1854.375
 20
-3621.826171875
 10
1864.033203125
 20
-3631.484375
 10
1864.033203125
 20
-3641.142578125
 10
1864.033203125
 20
-3650.80078125
 10
1873.69140625
 20
-3660.458984375
 10
1864.033203125
 20
-3670.1171875
 10
1854.375
 20
-3679.775390625
 10
1854.375
 20
-3689.43359375
 10
1854.375
 20
-3699.091796875
 10
1864.033203125
 20
-3708.75
 10
1864.033203125
 20
-3718.408203125
 10
1864.033203125
 20
-3728.06640625
 10
1873.69140625
 20
-3737.724609375
 10
1864.033203125
 20
-3747.3828125
 10
1864.033203125
 20
-3757.041015625
 10
1854.375
 20
-3766.69921875
 10
1854.375
 20
-3776.357421875
 10
1854.375
 20
-3786.015625
 10
1854.375
 20
-3795.673828125
 10
1844.716796875
 20
-3805.33203125
 10
1854.375
 20
-3805.33203125
 10
1864.033203125
 20
-3814.990234375
 10
1854.375
 20
-3824.6484375
 10
1854.375
 20
-3834.306640625
 10
1854.375
 20
-3843.96484375
 10
1864.033203125
 20
-3853.623046875
 10
1854.375
 20
-3863.28125
 10
1854.375
 20
-3872.939453125
 10
1854.375
 20
-3882.59765625
 10
1854.375
 20
-3892.255859375
 10
1854.375
 20
-3901.9140625
 10
1854.375
 20
-3911.572265625
 10
1854.375
 20
-3921.23046875
 10
1854.375
 20
-3930.888671875
 10
1854.375
 20
-3940.546875
 10
1854.375
 20
-3950.205078125
 10
1854.375
 20
-3959.86328125
 10
1854.375
 20
-3969.521484375
 10
1854.375
 20
-3979.1796875
 10
1854.375
 20
-3988.837890625
 10
1844.716796875
 20
-3998.49609375
 10
1854.375
 20
-4008.154296875
 10
1854.375
 20
-4017.8125
 10
1854.375
 20
-4027.470703125
 10
1854.375
 20
-4037.12890625
 10
1854.375
 20
-4046.787109375
 10
1854.375
 20
-4056.4453125
 10
1854.375
 20
-4066.103515625
 10
1854.375
 20
-4075.76171875
 10
1854.375
 20
-4085.419921875
 10
1854.375
 20
-4095.078125
 10
1854.375
 20
-4104.736328125
 10
1844.716796875
 20
-4114.39453125
 10
1854.375
 20
-4124.052734375
 10
1854.375
 20
-4133.7109375
 10
1854.375
 20
-4143.369140625
 10
1844.716796875
 20
-4153.02734375
 10
1854.375
 20
-4162.685546875
 10
1854.375
 20
-4172.34375
 10
1854.375
 20
-4182.001953125
 10
1854.375
 20
-4191.66015625
 10
1854.375
 20
-4201.318359375
 10
1854.375
 20
-4210.9765625
 10
1854.375
 20
-4220.634765625
 10
1864.033203125
 20
-4230.29296875
 10
1854.375
 20
-4239.951171875
 10
1854.375
 20
-4249.609375
 10
1854.375
 20
-4259.267578125
 10
1854.375
 20
-4268.92578125
 10
1864.033203125
 20
-4278.583984375
 10
1864.033203125
 20
-4288.2421875
 10
1873.69140625
 20
-4278.583984375
 10
1883.349609375
 20
-4288.2421875
 10
1893.0078125
 20
-4297.900390625
 10
1902.666015625
 20
-4288.2421875
 10
1912.32421875
 20
-4288.2421875
 10
1921.982421875
 20
-4288.2421875
 10
1931.640625
 20
-4288.2421875
 10
1941.298828125
 20
-4288.2421875
 10
1950.95703125
 20
-4288.2421875
 10
1960.615234375
 20
-4288.2421875
 10
1970.2734375
 20
-4288.2421875
 10
1979.931640625
 20
-4288.2421875
 10
1989.58984375
 20
-4288.2421875
 10
1999.248046875
 20
-4288.2421875
 10
2008.90625
 20
-4297.900390625
 10
2018.564453125
 20
-4297.900390625
 10
2028.22265625
 20
-4297.900390625
 10
2037.880859375
 20
-4297.900390625
 10
2047.5390625
 20
-4297.900390625
 10
2057.197265625
 20
-4297.900390625
 10
2066.85546875
 20
-4297.900390625
 10
2076.513671875
 20
-4288.2421875
 10
2086.171875
 20
-4297.900390625
 10
2095.830078125
 20
-4297.900390625
 10
2105.48828125
 20
-4297.900390625
 10
2115.146484375
 20
-4297.900390625
 10
2124.8046875
 20
-4297.900390625
 10
2134.462890625
 20
-4297.900390625
 10
2144.12109375
 20
-4297.900390625
 10
2153.779296875
 20
-4288.2421875
 10
2163.4375
 20
-4297.900390625
 10
2173.095703125
 20
-4297.900390625
 10
2182.75390625
 20
-4297.900390625
 10
2192.412109375
 20
-4297.900390625
 10
2202.0703125
 20
-4297.900390625
 10
2211.728515625
 20
-4297.900390625
 10
2221.38671875
 20
-4288.2421875
 10
2231.044921875
 20
-4288.2421875
 10
2240.703125
 20
-4297.900390625
 10
2250.361328125
 20
-4297.900390625
 10
2260.01953125
 20
-4297.900390625
 10
2269.677734375
 20
-4297.900390625
 10
2279.3359375
 20
-4297.900390625
 10
2288.994140625
 20
-4288.2421875
 10
2298.65234375
 20
-4297.900390625
 10
2308.310546875
 20
-4288.2421875
 10
2317.96875
 20
-4297.900390625
 10
2327.626953125
 20
-4297.900390625
 10
2337.28515625
 20
-4297.900390625
 10
2346.943359375
 20
-4297.900390625
 10
2356.6015625
 20
-4297.900390625
 10
2366.259765625
 20
-4297.900390625
 10
2375.91796875
 20
-4297.900390625
 10
2385.576171875
 20
-4288.2421875
 10
2395.234375
 20
-4297.900390625
 10
2404.892578125
 20
-4288.2421875
 10
2414.55078125
 20
-4297.900390625
 10
2424.208984375
 20
-4288.2421875
 10
2433.8671875
 20
-4297.900390625
 10
2443.525390625
 20
-4288.2421875
 10
2453.18359375
 20
-4288.2421875
 10
2462.841796875
 20
-4288.2421875
 10
2472.5
 20
-4297.900390625
 10
2482.158203125
 20
-4297.900390625
 10
2491.81640625
 20
-4297.900390625
 10
2501.474609375
 20
-4288.2421875
 10
2511.1328125
 20
-4297.900390625
 10
2520.791015625
 20
-4288.2421875
 10
2530.44921875
 20
-4288.2421875
 10
2540.107421875
 20
-4288.2421875
 10
2549.765625
 20
-4288.2421875
 10
2559.423828125
 20
-4288.2421875
 10
2569.08203125
 20
-4288.2421875
 10
2578.740234375
 20
-4288.2421875
 10
2588.3984375
 20
-4288.2421875
 10
2598.056640625
 20
-4288.2421875
 10
2607.71484375
 20
-4288.2421875
 10
2617.373046875
 20
-4288.2421875
 10
2627.03125
 20
-4288.2421875
 10
2636.689453125
 20
-4288.2421875
 10
2646.34765625
 20
-4288.2421875
 10
2656.005859375
 20
-4288.2421875
 10
2665.6640625
 20
-4297.900390625
 10
2675.322265625
 20
-4288.2421875
 10
2684.98046875
 20
-4288.2421875
 10
2694.638671875
 20
-4288.2421875
 10
2704.296875
 20
-4288.2421875
 10
2713.955078125
 20
-4288.2421875
 10
2723.61328125
 20
-4288.2421875
 10
2733.271484375
 20
-4288.2421875
 10
2742.9296875
 20
-4288.2421875
 10
2752.587890625
 20
-4288.2421875
 10
2762.24609375
 20
-4288.2421875
 10
2771.904296875
 20
-4288.2421875
 10
2781.5625
 20
-4288.2421875
 10
2791.220703125
 20
-4288.2421875
 10
2800.87890625
 20
-4288.2421875
 10
2810.537109375
 20
-4288.2421875
 10
2820.1953125
 20
-4288.2421875
 10
2829.853515625
 20
-4288.2421875
 10
2839.51171875
 20
-4288.2421875
 10
2849.169921875
 20
-4288.2421875
 10
2858.828125
 20
-4288.2421875
 10
2868.486328125
 20
-4288.2421875
 10
2878.14453125
 20
-4288.2421875
 10
2887.802734375
 20
-4288.2421875
 10
2897.4609375
 20
-4288.2421875
 10
2907.119140625
 20
-4288.2421875
 10
2916.77734375
 20
-4288.2421875
 10
2926.435546875
 20
-4288.2421875
 10
2936.09375
 20
-4288.2421875
 10
2945.751953125
 20
-4288.2421875
 10
2955.41015625
 20
-4288.2421875
 10
2965.068359375
 20
-4288.2421875
 10
2974.7265625
 20
-4288.2421875
 10
2984.384765625
 20
-4288.2421875
 10
2994.04296875
 20
-4288.2421875
 10
3003.701171875
 20
-4288.2421875
 10
3013.359375
 20
-4297.900390625
 10
3023.017578125
 20
-4288.2421875
 10
3032.67578125
 20
-4297.900390625
 10
3042.333984375
 20
-4288.2421875
 10
3051.9921875
 20
-4297.900390625
 10
3061.650390625
 20
-4288.2421875
 10
3071.30859375
 20
-4278.583984375
 10
3071.30859375
 20
-4268.92578125
 10
3071.30859375
 20
-4259.267578125
 10
3071.30859375
 20
-4249.609375
 10
3071.30859375
 20
-4239.951171875
 10
3071.30859375
 20
-4230.29296875
 10
3071.30859375
 20
-4220.634765625
 10
3071.30859375
 20
-4210.9765625
 10
3071.30859375
 20
-4201.318359375
 10
3071.30859375
 20
-4191.66015625
 10
3071.30859375
 20
-4182.001953125
 10
3071.30859375
 20
-4172.34375
 10
3071.30859375
 20
-4162.685546875
 10
3071.30859375
 20
-4153.02734375
 10
3071.30859375
 20
-4143.369140625
 10
3071.30859375
 20
-4133.7109375
 10
3071.30859375
 20
-4124.052734375
 10
3071.30859375
 20
-4114.39453125
 10
3071.30859375
 20
-4104.736328125
 10
3071.30859375
 20
-4095.078125
 10
3071.30859375
 20
-4085.419921875
 10
3071.30859375
 20
-4075.76171875
 10
3071.30859375
 20
-4066.103515625
 10
3071.30859375
 20
-4056.4453125
 10
3061.650390625
 20
-4046.787109375
 10
3071.30859375
 20
-4037.12890625
 10
3061.650390625
 20
-4027.470703125
 10
3071.30859375
 20
-4017.8125
 10
3061.650390625
 20
-4008.154296875
 10
3061.650390625
 20
-3998.49609375
 10
3061.650390625
 20
-3988.837890625
 10
3061.650390625
 20
-3979.1796875
 10
3061.650390625
 20
-3969.521484375
 10
3061.650390625
 20
-3959.86328125
 10
3061.650390625
 20
-3950.205078125
 10
3061.650390625
 20
-3940.546875
 10
3061.650390625
 20
-3930.888671875
 10
3061.650390625
 20
-3921.23046875
 10
3061.650390625
 20
-3911.572265625
 10
3061.650390625
 20
-3901.9140625
 10
3061.650390625
 20
-3892.255859375
 10
3061.650390625
 20
-3882.59765625
 10
3061.650390625
 20
-3872.939453125
 10
3061.650390625
 20
-3863.28125
 10
3061.650390625
 20
-3853.623046875
 10
3061.650390625
 20
-3843.96484375
 10
3061.650390625
 20
-3834.306640625
 10
3061.650390625
 20
-3824.6484375
 10
3061.650390625
 20
-3814.990234375
 10
3061.650390625
 20
-3805.33203125
 10
3061.650390625
 20
-3795.673828125
 10
3061.650390625
 20
-3786.015625
 10
3061.650390625
 20
-3776.357421875
 10
3061.650390625
 20
-3766.69921875
 10
3061.650390625
 20
-3757.041015625
 10
3061.650390625
 20
-3747.3828125
 10
3061.650390625
 20
-3737.724609375
 10
3061.650390625
 20
-3728.06640625
 10
3061.650390625
 20
-3718.408203125
 10
3061.650390625
 20
-3708.75
 10
3061.650390625
 20
-3699.091796875
 10
3061.650390625
 20
-3689.43359375
 10
3061.650390625
 20
-3679.775390625
 10
3061.650390625
 20
-3670.1171875
 10
3061.650390625
 20
-3660.458984375
 10
3061.650390625
 20
-3650.80078125
 10
3061.650390625
 20
-3641.142578125
 10
3061.650390625
 20
-3631.484375
 10
3061.650390625
 20
-3621.826171875
 10
3061.650390625
 20
-3612.16796875
 10
3061.650390625
 20
-3602.509765625
 10
3061.650390625
 20
-3592.8515625
 10
3061.650390625
 20
-3583.193359375
 10
3061.650390625
 20
-3573.53515625
 10
3061.650390625
 20
-3563.876953125
 10
3061.650390625
 20
-3554.21875
 10
3061.650390625
 20
-3544.560546875
 10
3061.650390625
 20
-3534.90234375
 10
3061.650390625
 20
-3525.244140625
 10
3061.650390625
 20
-3515.5859375
 10
3061.650390625
 20
-3505.927734375
 10
3061.650390625
 20
-3496.26953125
 10
3061.650390625
 20
-3486.611328125
 10
3061.650390625
 20
-3476.953125
 10
3061.650390625
 20
-3467.294921875
 10
3061.650390625
 20
-3457.63671875
 10
3061.650390625
 20
-3447.978515625
 10
3061.650390625
 20
-3438.3203125
 10
3061.650390625
 20
-3428.662109375
 10
3071.30859375
 20
-3419.00390625
 10
3071.30859375
 20
-3409.345703125
 10
3071.30859375
 20
-3399.6875
 10
3071.30859375
 20
-3390.029296875
 10
3071.30859375
 20
-3380.37109375
 10
3071.30859375
 20
-3370.712890625
 10
3071.30859375
 20
-3361.0546875
 10
3071.30859375
 20
-3351.396484375
 10
3071.30859375
 20
-3341.73828125
 10
3071.30859375
 20
-3332.080078125
 10
3071.30859375
 20
-3322.421875
 10
3061.650390625
 20
-3312.763671875
 10
3061.650390625
 20
-3303.10546875
 10
3061.650390625
 20
-3293.447265625
 10
3061.650390625
 20
-3283.7890625
 10
3071.30859375
 20
-3274.130859375
 10
3071.30859375
 20
-3264.47265625
 10
3071.30859375
 20
-3254.814453125
 10
3080.966796875
 20
-3245.15625
 10
3080.966796875
 20
-3235.498046875
 10
3080.966796875
 20
-3225.83984375
 10
3080.966796875
 20
-3216.181640625
 10
3090.625
 20
-3206.5234375
 10
3090.625
 20
-3196.865234375
 10
3090.625
 20
-3187.20703125
 10
3090.625
 20
-3177.548828125
 10
3080.966796875
 20
-3167.890625
 10
3080.966796875
 20
-3158.232421875
 10
3071.30859375
 20
-3148.57421875
 10
3071.30859375
 20
-3138.916015625
 10
3071.30859375
 20
-3129.2578125
 10
3071.30859375
 20
-3119.599609375
 10
3071.30859375
 20
-3109.94140625
 10
3071.30859375
 20
-3100.283203125
 10
3080.966796875
 20
-3090.625
 10
3080.966796875
 20
-3080.966796875
 10
3090.625
 20
-3071.30859375
 10
3100.283203125
 20
-3071.30859375
 10
3109.94140625
 20
-3071.30859375
 10
3119.599609375
 20
-3071.30859375
 10
3129.2578125
 20
-3071.30859375
 10
3138.916015625
 20
-3071.30859375
 10
3148.57421875
 20
-3071.30859375
 10
3158.232421875
 20
-3071.30859375
 10
3167.890625
 20
-3071.30859375
 10
3177.548828125
 20
-3071.30859375
 10
3187.20703125
 20
-3071.30859375
 10
3196.865234375
 20
-3071.30859375
 10
3206.5234375
 20
-3071.30859375
 10
3216.181640625
 20
-3071.30859375
 10
3225.83984375
 20
-3061.650390625
 10
3235.498046875
 20
-3061.650390625
 10
3245.15625
 20
-3061.650390625
 10
3254.814453125
 20
-3061.650390625
 10
3264.47265625
 20
-3061.650390625
 10
3274.130859375
 20
-3071.30859375
 10
3283.7890625
 20
-3061.650390625
 10
3293.447265625
 20
-3071.30859375
 10
3303.10546875
 20
-3071.30859375
 10
3312.763671875
 20
-3071.30859375
 10
3322.421875
 20
-3071.30859375
 10
3332.080078125
 20
-3061.650390625
 10
3341.73828125
 20
-3071.30859375
 10
3351.396484375
 20
-3071.30859375
 10
3361.0546875
 20
-3061.650390625
 10
3370.712890625
 20
-3061.650390625
 10
3380.37109375
 20
-3051.9921875
 10
3390.029296875
 20
-3051.9921875
 10
3399.6875
 20
-3051.9921875
 10
3409.345703125
 20
-3051.9921875
 10
3419.00390625
 20
-3051.9921875
 10
3428.662109375
 20
-3061.650390625
 10
3438.3203125
 20
-3061.650390625
 10
3447.978515625
 20
-3061.650390625
 10
3457.63671875
 20
-3061.650390625
 10
3467.294921875
 20
-3061.650390625
 10
3476.953125
 20
-3061.650390625
 10
3486.611328125
 20
-3061.650390625
 10
3496.26953125
 20
-3061.650390625
 10
3505.927734375
 20
-3061.650390625
 10
3515.5859375
 20
-3061.650390625
 10
3525.244140625
 20
-3061.650390625
 10
3534.90234375
 20
-3061.650390625
 10
3544.560546875
 20
-3051.9921875
 10
3554.21875
 20
-3051.9921875
 10
3563.876953125
 20
-3061.650390625
 10
3573.53515625
 20
-3061.650390625
 10
3583.193359375
 20
-3071.30859375
 10
3592.8515625
 20
-3071.30859375
 10
3602.509765625
 20
-3071.30859375
 10
3612.16796875
 20
-3071.30859375
 10
3621.826171875
 20
-3071.30859375
 10
3631.484375
 20
-3071.30859375
 10
3641.142578125
 20
-3071.30859375
 10
3650.80078125
 20
-3071.30859375
 10
3660.458984375
 20
-3071.30859375
 10
3670.1171875
 20
-3071.30859375
 10
3679.775390625
 20
-3071.30859375
 10
3689.43359375
 20
-3061.650390625
 10
3699.091796875
 20
-3061.650390625
 10
3708.75
 20
-3061.650390625
 10
3718.408203125
 20
-3061.650390625
 10
3728.06640625
 20
-3061.650390625
 10
3737.724609375
 20
-3071.30859375
 10
3747.3828125
 20
-3071.30859375
 10
3757.041015625
 20
-3071.30859375
 10
3766.69921875
 20
-3071.30859375
 10
3776.357421875
 20
-3071.30859375
 10
3786.015625
 20
-3071.30859375
 10
3795.673828125
 20
-3071.30859375
 10
3805.33203125
 20
-3080.966796875
 10
3814.990234375
 20
-3080.966796875
 10
3824.6484375
 20
-3080.966796875
 10
3834.306640625
 20
-3080.966796875
 10
3843.96484375
 20
-3080.966796875
 10
3853.623046875
 20
-3071.30859375
 10
3863.28125
 20
-3071.30859375
 10
3872.939453125
 20
-3071.30859375
 10
3882.59765625
 20
-3071.30859375
 10
3892.255859375
 20
-3080.966796875
 10
3901.9140625
 20
-3080.966796875
 10
3911.572265625
 20
-3080.966796875
 10
3921.23046875
 20
-3090.625
 10
3930.888671875
 20
-3080.966796875
 10
3940.546875
 20
-3080.966796875
 10
3950.205078125
 20
-3080.966796875
 10
3959.86328125
 20
-3090.625
 10
3969.521484375
 20
-3090.625
 10
3979.1796875
 20
-3090.625
 10
3988.837890625
 20
-3090.625
 10
3998.49609375
 20
-3090.625
 10
4008.154296875
 20
-3090.625
 10
4017.8125
 20
-3090.625
 10
4027.470703125
 20
-3090.625
 10
4037.12890625
 20
-3090.625
 10
4046.787109375
 20
-3090.625
 10
4056.4453125
 20
-3090.625
 10
4066.103515625
 20
-3090.625
 10
4075.76171875
 20
-3090.625
 10
4085.419921875
 20
-3090.625
 10
4095.078125
 20
-3100.283203125
 10
4104.736328125
 20
-3090.625
 10
4114.39453125
 20
-3090.625
 10
4124.052734375
 20
-3090.625
 10
4133.7109375
 20
-3100.283203125
 10
4143.369140625
 20
-3100.283203125
 10
4153.02734375
 20
-3100.283203125
 10
4162.685546875
 20
-3090.625
 10
4172.34375
 20
-3100.283203125
 10
4182.001953125
 20
-3090.625
 10
4191.66015625
 20
-3090.625
 10
4201.318359375
 20
-3090.625
 10
4210.9765625
 20
-3100.283203125
 10
4220.634765625
 20
-3100.283203125
 10
4230.29296875
 20
-3100.283203125
 10
4239.951171875
 20
-3100.283203125
 10
4249.609375
 20
-3100.283203125
 10
4259.267578125
 20
-3100.283203125
 10
4268.92578125
 20
-3100.283203125
 10
4278.583984375
 20
-3090.625
 10
4288.2421875
 20
-3100.283203125
 10
4288.2421875
 20
-3109.94140625
 10
4288.2421875
 20
-3100.283203125
 10
4297.900390625
 20
-3090.625
 10
4307.55859375
 20
-3080.966796875
 10
4307.55859375
 20
-3071.30859375
 10
4307.55859375
 20
-3061.650390625
 10
4307.55859375
 20
-3051.9921875
 10
4307.55859375
 20
-3042.333984375
 10
4317.216796875
 20
-3032.67578125
 10
4317.216796875
 20
-3023.017578125
 10
4317.216796875
 20
-3013.359375
 10
4317.216796875
 20
-3003.701171875
 10
4317.216796875
 20
-2994.04296875
 10
4317.216796875
 20
-2984.384765625
 10
4317.216796875
 20
-2974.7265625
 10
4317.216796875
 20
-2965.068359375
 10
4317.216796875
 20
-2955.41015625
 10
4317.216796875
 20
-2945.751953125
 10
4317.216796875
 20
-2936.09375
 10
4317.216796875
 20
-2926.435546875
 10
4317.216796875
 20
-2916.77734375
 10
4317.216796875
 20
-2907.119140625
 10
4317.216796875
 20
-2897.4609375
 10
4317.216796875
 20
-2887.802734375
 10
4317.216796875
 20
-2878.14453125
 10
4317.216796875
 20
-2868.486328125
 10
4317.216796875
 20
-2858.828125
 10
4317.216796875
 20
-2849.169921875
 10
4317.216796875
 20
-2839.51171875
 10
4317.216796875
 20
-2829.853515625
 10
4317.216796875
 20
-2820.1953125
 10
4317.216796875
 20
-2810.537109375
 10
4317.216796875
 20
-2800.87890625
 10
4317.216796875
 20
-2791.220703125
 10
4317.216796875
 20
-2781.5625
 10
4317.216796875
 20
-2771.904296875
 10
4317.216796875
 20
-2762.24609375
 10
4317.216796875
 20
-2752.587890625
 10
4317.216796875
 20
-2742.9296875
 10
4317.216796875
 20
-2733.271484375
 10
4317.216796875
 20
-2723.61328125
 10
4317.216796875
 20
-2713.955078125
 10
4326.875
 20
-2704.296875
 10
4326.875
 20
-2694.638671875
 10
4326.875
 20
-2684.98046875
 10
4326.875
 20
-2675.322265625
 10
4326.875
 20
-2665.6640625
 10
4317.216796875
 20
-2656.005859375
 10
4317.216796875
 20
-2646.34765625
 10
4317.216796875
 20
-2636.689453125
 10
4317.216796875
 20
-2627.03125
 10
4317.216796875
 20
-2617.373046875
 10
4317.216796875
 20
-2607.71484375
 10
4317.216796875
 20
-2598.056640625
 10
4317.216796875
 20
-2588.3984375
 10
4317.216796875
 20
-2578.740234375
 10
4317.216796875
 20
-2569.08203125
 10
4317.216796875
 20
-2559.423828125
 10
4317.216796875
 20
-2549.765625
 10
4317.216796875
 20
-2540.107421875
 10
4317.216796875
 20
-2530.44921875
 10
4317.216796875
 20
-2520.791015625
 10
4317.216796875
 20
-2511.1328125
 10
4317.216796875
 20
-2501.474609375
 10
4317.216796875
 20
-2491.81640625
 10
4317.216796875
 20
-2482.158203125
 10
4317.216796875
 20
-2472.5
 10
4317.216796875
 20
-2462.841796875
 10
4317.216796875
 20
-2453.18359375
 10
4307.55859375
 20
-2443.525390625
 10
4317.216796875
 20
-2433.8671875
 10
4307.55859375
 20
-2424.208984375
 10
4317.216796875
 20
-2414.55078125
 10
4317.216796875
 20
-2404.892578125
 10
4317.216796875
 20
-2395.234375
 10
4317.216796875
 20
-2385.576171875
 10
4326.875
 20
-2375.91796875
 10
4326.875
 20
-2366.259765625
 10
4326.875
 20
-2356.6015625
 10
4317.216796875
 20
-2346.943359375
 10
4317.216796875
 20
-2337.28515625
 10
4317.216796875
 20
-2327.626953125
 10
4317.216796875
 20
-2317.96875
 10
4317.216796875
 20
-2308.310546875
 10
4317.216796875
 20
-2298.65234375
 10
4317.216796875
 20
-2288.994140625
 10
4317.216796875
 20
-2279.3359375
 10
4307.55859375
 20
-2269.677734375
 10
4307.55859375
 20
-2260.01953125
 10
4307.55859375
 20
-2250.361328125
 10
4317.216796875
 20
-2240.703125
 10
4317.216796875
 20
-2231.044921875
 10
4317.216796875
 20
-2221.38671875
 10
4317.216796875
 20
-2211.728515625
 10
4317.216796875
 20
-2202.0703125
 10
4317.216796875
 20
-2192.412109375
 10
4317.216796875
 20
-2182.75390625
 10
4307.55859375
 20
-2173.095703125
 10
4317.216796875
 20
-2163.4375
 10
4317.216796875
 20
-2153.779296875
 10
4317.216796875
 20
-2144.12109375
 10
4307.55859375
 20
-2134.462890625
 10
4317.216796875
 20
-2124.8046875
 10
4307.55859375
 20
-2115.146484375
 10
4317.216796875
 20
-2105.48828125
 10
4317.216796875
 20
-2095.830078125
 10
4317.216796875
 20
-2086.171875
 10
4317.216796875
 20
-2076.513671875
 10
4317.216796875
 20
-2066.85546875
 10
4317.216796875
 20
-2057.197265625
 10
4317.216796875
 20
-2047.5390625
 10
4317.216796875
 20
-2037.880859375
 10
4317.216796875
 20
-2028.22265625
 10
4307.55859375
 20
-2018.564453125
 10
4317.216796875
 20
-2008.90625
 10
4307.55859375
 20
-1999.248046875
 10
4307.55859375
 20
-1989.58984375
 10
4307.55859375
 20
-1979.931640625
 10
4307.55859375
 20
-1970.2734375
 10
4307.55859375
 20
-1960.615234375
 10
4307.55859375
 20
-1950.95703125
 10
4307.55859375
 20
-1941.298828125
 10
4317.216796875
 20
-1931.640625
 10
4307.55859375
 20
-1921.982421875
 10
4317.216796875
 20
-1912.32421875
 10
4307.55859375
 20
-1902.666015625
 10
4317.216796875
 20
-1893.0078125
 10
4307.55859375
 20
-1883.349609375
 10
4307.55859375
 20
-1873.69140625
 10
4307.55859375
 20
-1864.033203125
 10
4307.55859375
 20
-1854.375
 10
4307.55859375
 20
-1844.716796875
 10
4297.900390625
 20
-1835.05859375
 10
4288.2421875
 20
-1825.400390625
 10
4278.583984375
 20
-1835.05859375
 10
4268.92578125
 20
-1825.400390625
 10
4259.267578125
 20
-1825.400390625
 10
4249.609375
 20
-1825.400390625
 10
4239.951171875
 20
-1825.400390625
 10
4230.29296875
 20
-1825.400390625
 10
4220.634765625
 20
-1825.400390625
 10
4210.9765625
 20
-1825.400390625
 10
4201.318359375
 20
-1835.05859375
 10
4191.66015625
 20
-1835.05859375
 10
4182.001953125
 20
-1835.05859375
 10
4172.34375
 20
-1835.05859375
 10
4162.685546875
 20
-1835.05859375
 10
4153.02734375
 20
-1825.400390625
 10
4143.369140625
 20
-1825.400390625
 10
4133.7109375
 20
-1825.400390625
 10
4124.052734375
 20
-1825.400390625
 10
4114.39453125
 20
-1825.400390625
 10
4104.736328125
 20
-1825.400390625
 10
4095.078125
 20
-1825.400390625
 10
4085.419921875
 20
-1825.400390625
 10
4075.76171875
 20
-1825.400390625
 10
4066.103515625
 20
-1825.400390625
 10
4056.4453125
 20
-1825.400390625
 10
4046.787109375
 20
-1825.400390625
 10
4037.12890625
 20
-1825.400390625
 10
4027.470703125
 20
-1835.05859375
 10
4017.8125
 20
-1825.400390625
 10
4008.154296875
 20
-1825.400390625
 10
3998.49609375
 20
-1825.400390625
 10
3988.837890625
 20
-1825.400390625
 10
3979.1796875
 20
-1825.400390625
 10
3969.521484375
 20
-1825.400390625
 10
3959.86328125
 20
-1825.400390625
 10
3950.205078125
 20
-1825.400390625
 10
3940.546875
 20
-1825.400390625
 10
3930.888671875
 20
-1825.400390625
 10
3921.23046875
 20
-1825.400390625
 10
3911.572265625
 20
-1825.400390625
 10
3901.9140625
 20
-1825.400390625
 10
3892.255859375
 20
-1825.400390625
 10
3882.59765625
 20
-1825.400390625
 10
3872.939453125
 20
-1825.400390625
 10
3863.28125
 20
-1825.400390625
 10
3853.623046875
 20
-1825.400390625
 10
3843.96484375
 20
-1825.400390625
 10
3834.306640625
 20
-1825.400390625
 10
3824.6484375
 20
-1825.400390625
 10
3814.990234375
 20
-1825.400390625
 10
3805.33203125
 20
-1825.400390625
 10
3795.673828125
 20
-1825.400390625
 10
3786.015625
 20
-1825.400390625
 10
3776.357421875
 20
-1825.400390625
 10
3766.69921875
 20
-1825.400390625
 10
3757.041015625
 20
-1825.400390625
 10
3747.3828125
 20
-1825.400390625
 10
3737.724609375
 20
-1825.400390625
 10
3728.06640625
 20
-1825.400390625
 10
3718.408203125
 20
-1825.400390625
 10
3708.75
 20
-1825.400390625
 10
3699.091796875
 20
-1825.400390625
 10
3689.43359375
 20
-1825.400390625
 10
3679.775390625
 20
-1825.400390625
 10
3670.1171875
 20
-1825.400390625
 10
3660.458984375
 20
-1825.400390625
 10
3650.80078125
 20
-1825.400390625
 10
3641.142578125
 20
-1825.400390625
 10
3631.484375
 20
-1825.400390625
 10
3621.826171875
 20
-1825.400390625
 10
3612.16796875
 20
-1825.400390625
 10
3602.509765625
 20
-1825.400390625
 10
3592.8515625
 20
-1825.400390625
 10
3583.193359375
 20
-1825.400390625
 10
3573.53515625
 20
-1825.400390625
 10
3563.876953125
 20
-1825.400390625
 10
3554.21875
 20
-1825.400390625
 10
3544.560546875
 20
-1825.400390625
 10
3534.90234375
 20
-1825.400390625
 10
3525.244140625
 20
-1825.400390625
 10
3515.5859375
 20
-1825.400390625
 10
3505.927734375
 20
-1825.400390625
 10
3496.26953125
 20
-1825.400390625
 10
3486.611328125
 20
-1825.400390625
 10
3476.953125
 20
-1825.400390625
 10
3467.294921875
 20
-1825.400390625
 10
3457.63671875
 20
-1825.400390625
 10
3447.978515625
 20
-1825.400390625
 10
3438.3203125
 20
-1825.400390625
 10
3428.662109375
 20
-1825.400390625
 10
3419.00390625
 20
-1825.400390625
 10
3409.345703125
 20
-1835.05859375
 10
3399.6875
 20
-1825.400390625
 10
3390.029296875
 20
-1825.400390625
 10
3380.37109375
 20
-1825.400390625
 10
3370.712890625
 20
-1825.400390625
 10
3361.0546875
 20
-1825.400390625
 10
3351.396484375
 20
-1825.400390625
 10
3341.73828125
 20
-1825.400390625
 10
3332.080078125
 20
-1825.400390625
 10
3322.421875
 20
-1825.400390625
 10
3312.763671875
 20
-1825.400390625
 10
3303.10546875
 20
-1825.400390625
 10
3293.447265625
 20
-1825.400390625
 10
3283.7890625
 20
-1825.400390625
 10
3274.130859375
 20
-1825.400390625
 10
3264.47265625
 20
-1825.400390625
 10
3254.814453125
 20
-1825.400390625
 10
3245.15625
 20
-1825.400390625
 10
3235.498046875
 20
-1825.400390625
 10
3225.83984375
 20
-1835.05859375
 10
3216.181640625
 20
-1835.05859375
 10
3206.5234375
 20
-1835.05859375
 10
3196.865234375
 20
-1835.05859375
 10
3187.20703125
 20
-1844.716796875
 10
3177.548828125
 20
-1844.716796875
 10
3167.890625
 20
-1844.716796875
 10
3158.232421875
 20
-1844.716796875
 10
3148.57421875
 20
-1844.716796875
 10
3138.916015625
 20
-1844.716796875
 10
3129.2578125
 20
-1835.05859375
 10
3119.599609375
 20
-1825.400390625
 10
3109.94140625
 20
-1825.400390625
 10
3100.283203125
 20
-1815.7421875
 10
3100.283203125
 20
-1806.083984375
 10
3100.283203125
 20
-1796.42578125
 10
3100.283203125
 20
-1786.767578125
 10
3100.283203125
 20
-1777.109375
 10
3090.625
 20
-1767.451171875
 10
3090.625
 20
-1757.79296875
 10
3090.625
 20
-1748.134765625
 10
3090.625
 20
-1738.4765625
 10
3090.625
 20
-1728.818359375
 10
3090.625
 20
-1719.16015625
 10
3090.625
 20
-1709.501953125
 10
3090.625
 20
-1699.84375
 10
3090.625
 20
-1690.185546875
 10
3090.625
 20
-1680.52734375
 10
3090.625
 20
-1670.869140625
 10
3090.625
 20
-1661.2109375
 10
3090.625
 20
-1651.552734375
 10
3090.625
 20
-1641.89453125
 10
3090.625
 20
-1632.236328125
 10
3090.625
 20
-1622.578125
 10
3090.625
 20
-1612.919921875
 10
3090.625
 20
-1603.26171875
 10
3080.966796875
 20
-1593.603515625
 10
3080.966796875
 20
-1583.9453125
 10
3080.966796875
 20
-1574.287109375
 10
3080.966796875
 20
-1564.62890625
 10
3080.966796875
 20
-1554.970703125
 10
3080.966796875
 20
-1545.3125
 10
3080.966796875
 20
-1535.654296875
 10
3080.966796875
 20
-1525.99609375
 10
3080.966796875
 20
-1516.337890625
 10
3080.966796875
 20
-1506.6796875
 10
3080.966796875
 20
-1497.021484375
 10
3080.966796875
 20
-1487.36328125
 10
3090.625
 20
-1477.705078125
 10
3090.625
 20
-1468.046875
 10
3080.966796875
 20
-1458.388671875
 10
3090.625
 20
-1448.73046875
 10
3080.966796875
 20
-1439.072265625
 10
3090.625
 20
-1429.4140625
 10
3080.966796875
 20
-1419.755859375
 10
3080.966796875
 20
-1410.09765625
 10
3080.966796875
 20
-1400.439453125
 10
3090.625
 20
-1390.78125
 10
3080.966796875
 20
-1381.123046875
 10
3080.966796875
 20
-1371.46484375
 10
3080.966796875
 20
-1361.806640625
 10
3080.966796875
 20
-1352.1484375
 10
3080.966796875
 20
-1342.490234375
 10
3080.966796875
 20
-1332.83203125
 10
3090.625
 20
-1323.173828125
 10
3090.625
 20
-1313.515625
 10
3080.966796875
 20
-1303.857421875
 10
3080.966796875
 20
-1294.19921875
 10
3071.30859375
 20
-1284.541015625
 10
3080.966796875
 20
-1274.8828125
 10
3071.30859375
 20
-1265.224609375
 10
3071.30859375
 20
-1255.56640625
 10
3071.30859375
 20
-1245.908203125
 10
3080.966796875
 20
-1236.25
 10
3080.966796875
 20
-1226.591796875
 10
3080.966796875
 20
-1216.93359375
 10
3071.30859375
 20
-1207.275390625
 10
3080.966796875
 20
-1197.6171875
 10
3080.966796875
 20
-1187.958984375
 10
3080.966796875
 20
-1178.30078125
 10
3080.966796875
 20
-1168.642578125
 10
3090.625
 20
-1158.984375
 10
3080.966796875
 20
-1149.326171875
 10
3080.966796875
 20
-1139.66796875
 10
3080.966796875
 20
-1130.009765625
 10
3080.966796875
 20
-1120.3515625
 10
3080.966796875
 20
-1110.693359375
 10
3080.966796875
 20
-1101.03515625
 10
3080.966796875
 20
-1091.376953125
 10
3080.966796875
 20
-1081.71875
 10
3080.966796875
 20
-1072.060546875
 10
3080.966796875
 20
-1062.40234375
 10
3080.966796875
 20
-1052.744140625
 10
3080.966796875
 20
-1043.0859375
 10
3080.966796875
 20
-1033.427734375
 10
3080.966796875
 20
-1023.76953125
 10
3080.966796875
 20
-1014.111328125
 10
3080.966796875
 20
-1004.453125
 10
3080.966796875
 20
-994.794921875
 10
3080.966796875
 20
-985.13671875
 10
3080.966796875
 20
-975.478515625
 10
3080.966796875
 20
-965.8203125
 10
3080.966796875
 20
-956.162109375
 10
3080.966796875
 20
-946.50390625
 10
3080.966796875
 20
-936.845703125
 10
3080.966796875
 20
-927.1875
 10
3080.966796875
 20
-917.529296875
 10
3080.966796875
 20
-907.87109375
 10
3080.966796875
 20
-898.212890625
 10
3090.625
 20
-888.5546875
 10
3090.625
 20
-878.896484375
 10
3090.625
 20
-869.23828125
 10
3090.625
 20
-859.580078125
 10
3090.625
 20
-849.921875
 10
3090.625
 20
-840.263671875
 10
3090.625
 20
-830.60546875
 10
3090.625
 20
-820.947265625
 10
3090.625
 20
-811.2890625
 10
3080.966796875
 20
-801.630859375
 10
3090.625
 20
-791.97265625
 10
3080.966796875
 20
-782.314453125
 10
3090.625
 20
-772.65625
 10
3080.966796875
 20
-762.998046875
 10
3080.966796875
 20
-753.33984375
 10
3071.30859375
 20
-743.681640625
 10
3080.966796875
 20
-734.0234375
 10
3080.966796875
 20
-724.365234375
 10
3080.966796875
 20
-714.70703125
 10
3090.625
 20
-705.048828125
 10
3090.625
 20
-695.390625
 10
3080.966796875
 20
-685.732421875
  0
LWPOLYLINE
  5
33
330
17
100
AcDbEntity
  8
conductor
100
AcDbPolyline
 90
4
 70
1
 43
0.5
 10
2018.564453125
 20
-3100.283203125
 10
2028.22265625
 20
-3090.625
 10
2037.880859375
 20
-3100.283203125
 10
2028.22265625
 20
-3109.94140625
  0
LWPOLYLINE
  5
34
330
17
100
AcDbEntity
  8
conductor
100
AcDbPolyline
 90
6
 70
1
 43
0.5
 10
2008.90625
 20
-3080.966796875
 10
2018.564453125
 20
-3071.30859375
 10
2028.22265625
 20
-3080.966796875
 10
2028.22265625
 20
-3090.625
 10
2018.564453125
 20
-3100.283203125
 10
2008.90625
 20
-3090.625
  0
LWPOLYLINE
  5
35
330
17
100
AcDbEntity
  8
conductor
100
AcDbPolyline
 90
7
 70
1
 43
0.5
 10
1622.578125
 20
-2916.77734375
 10
1632.236328125
 20
-2907.119140625
 10
1641.89453125
 20
-2916.77734375
 10
1641.89453125
 20
-2926.435546875
 10
1632.236328125
 20
-2936.09375
 10
1622.578125
 20
-2936.09375
 10
1612.919921875
 20
-2926.435546875
  0
LWPOLYLINE
  5
36
330
17
100
AcDbEntity
  8
conductor
100
AcDbPolyline
 90
4
 70
1
 43
0.5
 10
3863.28125
 20
-2887.802734375
 10
3872.939453125
 20
-2878.14453125
 10
3882.59765625
 20
-2887.802734375
 10
3872.939453125
 20
-2897.4609375
  0
LWPOLYLINE
  5
37
330
17
100
AcDbEntity
  8
conductor
100
AcDbPolyline
 90
9
 70
1
 43
0.5
 10
1448.73046875
 20
-2858.828125
 10
1458.388671875
 20
-2849.169921875
 10
1468.046875
 20
-2849.169921875
 10
1477.705078125
 20
-2858.828125
 10
1477.705078125
 20
-2868.486328125
 10
1468.046875
 20
-2878.14453125
 10
1458.388671875
 20
-2878.14453125
 10
1448.73046875
 20
-2878.14453125
 10
1439.072265625
 20
-2868.486328125
  0
LWPOLYLINE
  5
38
330
17
100
AcDbEntity
  8
conductor
100
AcDbPolyline
 90
4
 70
1
 43
0.5
 10
1130.009765625
 20
-2636.689453125
 10
1139.66796875
 20
-2627.03125
 10
1149.326171875
 20
-2636.689453125
 10
1139.66796875
 20
-2646.34765625
  0
LWPOLYLINE
  5
39
330
17
100
AcDbEntity
  8
conductor
100
AcDbPolyline
 90
11
 70
1
 43
0.5
 10
1158.984375
 20
-2607.71484375
 10
1168.642578125
 20
-2598.056640625
 10
1178.30078125
 20
-2607.71484375
 10
1187.958984375
 20
-2617.373046875
 10
1178.30078125
 20
-2627.03125
 10
1178.30078125
 20
-2636.689453125
 10
1168.642578125
 20
-2646.34765625
 10
1158.984375
 20
-2646.34765625
 10
1149.326171875
 20
-2636.689453125
 10
1139.66796875
 20
-2627.03125
 10
1149.326171875
 20
-2617.373046875
  0
LWPOLYLINE
  5
3A
330
17
100
AcDbEntity
  8
conductor
100
AcDbPolyline
 90
13
 70
1
 43
0.5
 10
1835.05859375
 20
-2433.8671875
 10
1844.716796875
 20
-2424.208984375
 10
1854.375
 20
-2424.208984375
 10
1864.033203125
 20
-2433.8671875
 10
1864.033203125
 20
-2443.525390625
 10
1873.69140625
 20
-2453.18359375
 10
1883.349609375
 20
-2462.841796875
 10
1873.69140625
 20
-2472.5
 10
1864.033203125
 20
-2482.158203125
 10
1854.375
 20
-2472.5
 10
1844.716796875
 20
-2462.841796875
 10
1835.05859375
 20
-2453.18359375
 10
1844.716796875
 20
-2443.525390625
  0
LWPOLYLINE
  5
3B
330
17
100
AcDbEntity
  8
conductor
100
AcDbPolyline
 90
6
 70
1
 43
0.5
 10
1825.400390625
 20
-2414.55078125
 10
1835.05859375
 20
-2404.892578125
 10
1844.716796875
 20
-2404.892578125
 10
1854.375
 20
-2414.55078125
 10
1844.716796875
 20
-2424.208984375
 10
1835.05859375
 20
-2424.208984375
  0
LWPOLYLINE
  5
3C
330
17
100
AcDbEntity
  8
conductor
100
AcDbPolyline
 90
21
 70
1
 43
0.5
 10
1603.26171875
 20
-2279.3359375
 10
1612.919921875
 20
-2269.677734375
 10
1622.578125
 20
-2279.3359375
 10
1632.236328125
 20
-2269.677734375
 10
1641.89453125
 20
-2279.3359375
 10
1641.89453125
 20
-2288.994140625
 10
1651.552734375
 20
-2288.994140625
 10
1661.2109375
 20
-2298.65234375
 10
1661.2109375
 20
-2308.310546875
 10
1651.552734375
 20
-2317.96875
 10
1641.89453125
 20
-2327.626953125
 10
1641.89453125
 20
-2337.28515625
 10
1632.236328125
 20
-2346.943359375
 10
1622.578125
 20
-2337.28515625
 10
1612.919921875
 20
-2346.943359375
 10
1603.26171875
 20
-2337.28515625
 10
1593.603515625
 20
-2327.626953125
 10
1593.603515625
 20
-2317.96875
 10
1593.603515625
 20
-2308.310546875
 10
1603.26171875
 20
-2298.65234375
 10
1603.26171875
 20
-2288.994140625
  0
LWPOLYLINE
  5
3D
330
17
100
AcDbEntity
  8
conductor
100
AcDbPolyline
 90
10
 70
1
 43
0.5
 10
2858.828125
 20
-1989.58984375
 10
2868.486328125
 20
-1979.931640625
 10
2878.14453125
 20
-1989.58984375
 10
2887.802734375
 20
-1979.931640625
 10
2897.4609375
 20
-1989.58984375
 10
2897.4609375
 20
-1999.248046875
 10
2887.802734375
 20
-2008.90625
 10
2878.14453125
 20
-2008.90625
 10
2868.486328125
 20
-2008.90625
 10
2858.828125
 20
-1999.248046875
  0
LWPOLYLINE
  5
3E
330
17
100
AcDbEntity
  8
conductor
100
AcDbPolyline
 90
4
 70
1
 43
0.5
 10
2057.197265625
 20
-1400.439453125
 10
2066.85546875
 20
-1390.78125
 10
2076.513671875
 20
-1400.439453125
 10
2066.85546875
 20
-1410.09765625
  0
LWPOLYLINE
  5
3F
330
17
100
AcDbEntity
  8
substrate
100
AcDbPolyline
 90
2044
 70
1
 43
0.5
 10
0.0
 20
-0.0
 10
0.0
 20
-9.658203125
 10
0.0
 20
-19.31640625
 10
0.0
 20
-28.974609375
 10
0.0
 20
-38.6328125
 10
0.0
 20
-48.291015625
 10
0.0
 20
-57.94921875
 10
0.0
 20
-67.607421875
 10
0.0
 20
-77.265625
 10
0.0
 20
-86.923828125
 10
0.0
 20
-96.58203125
 10
0.0
 20
-106.240234375
 10
0.0
 20
-115.8984375
 10
0.0
 20
-125.556640625
 10
0.0
 20
-135.21484375
 10
0.0
 20
-144.873046875
 10
0.0
 20
-154.53125
 10
0.0
 20
-164.189453125
 10
0.0
 20
-173.84765625
 10
0.0
 20
-183.505859375
 10
0.0
 20
-193.1640625
 10
0.0
 20
-202.822265625
 10
0.0
 20
-212.48046875
 10
0.0
 20
-222.138671875
 10
0.0
 20
-231.796875
 10
0.0
 20
-241.455078125
 10
0.0
 20
-251.11328125
 10
0.0
 20
-260.771484375
 10
0.0
 20
-270.4296875
 10
0.0
 20
-280.087890625
 10
0.0
 20
-289.74609375
 10
0.0
 20
-299.404296875
 10
0.0
 20
-309.0625
 10
0.0
 20
-318.720703125
 10
0.0
 20
-328.37890625
 10
0.0
 20
-338.037109375
 10
0.0
 20
-347.6953125
 10
0.0
 20
-357.353515625
 10
0.0
 20
-367.01171875
 10
0.0
 20
-376.669921875
 10
0.0
 20
-386.328125
 10
0.0
 20
-395.986328125
 10
0.0
 20
-405.64453125
 10
0.0
 20
-415.302734375
 10
0.0
 20
-424.9609375
 10
0.0
 20
-434.619140625
 10
0.0
 20
-444.27734375
 10
0.0
 20
-453.935546875
 10
0.0
 20
-463.59375
 10
0.0
 20
-473.251953125
 10
0.0
 20
-482.91015625
 10
0.0
 20
-492.568359375
 10
0.0
 20
-502.2265625
 10
0.0
 20
-511.884765625
 10
0.0
 20
-521.54296875
 10
0.0
 20
-531.201171875
 10
0.0
 20
-540.859375
 10
0.0
 20
-550.517578125
 10
0.0
 20
-560.17578125
 10
0.0
 20
-569.833984375
 10
0.0
 20
-579.4921875
 10
0.0
 20
-589.150390625
 10
0.0
 20
-598.80859375
 10
0.0
 20
-608.466796875
 10
0.0
 20
-618.125
 10
0.0
 20
-627.783203125
 10
0.0
 20
-637.44140625
 10
0.0
 20
-647.099609375
 10
0.0
 20
-656.7578125
 10
0.0
 20
-666.416015625
 10
0.0
 20
-676.07421875
 10
0.0
 20
-685.732421875
 10
0.0
 20
-695.390625
 10
0.0
 20
-705.048828125
 10
0.0
 20
-714.70703125
 10
0.0
 20
-724.365234375
 10
0.0
 20
-734.0234375
 10
0.0
 20
-743.681640625
 10
0.0
 20
-753.33984375
 10
0.0
 20
-762.998046875
 10
0.0
 20
-772.65625
 10
0.0
 20
-782.314453125
 10
0.0
 20
-791.97265625
 10
0.0
 20
-801.630859375
 10
0.0
 20
-811.2890625
 10
0.0
 20
-820.947265625
 10
0.0
 20
-830.60546875
 10
0.0
 20
-840.263671875
 10
0.0
 20
-849.921875
 10
0.0
 20
-859.580078125
 10
0.0
 20
-869.23828125
 10
0.0
 20
-878.896484375
 10
0.0
 20
-888.5546875
 10
0.0
 20
-898.212890625
 10
0.0
 20
-907.87109375
 10
0.0
 20
-917.529296875
 10
0.0
 20
-927.1875
 10
0.0
 20
-936.845703125
 10
0.0
 20
-946.50390625
 10
0.0
 20
-956.162109375
 10
0.0
 20
-965.8203125
 10
0.0
 20
-975.478515625
 10
0.0
 20
-985.13671875
 10
0.0
 20
-994.794921875
 10
0.0
 20
-1004.453125
 10
0.0
 20
-1014.111328125
 10
0.0
 20
-1023.76953125
 10
0.0
 20
-1033.427734375
 10
0.0
 20
-1043.0859375
 10
0.0
 20
-1052.744140625
 10
0.0
 20
-1062.40234375
 10
0.0
 20
-1072.060546875
 10
0.0
 20
-1081.71875
 10
0.0
 20
-1091.376953125
 10
0.0
 20
-1101.03515625
 10
0.0
 20
-1110.693359375
 10
0.0
 20
-1120.3515625
 10
0.0
 20
-1130.009765625
 10
0.0
 20
-1139.66796875
 10
0.0
 20
-1149.326171875
 10
0.0
 20
-1158.984375
 10
0.0
 20
-1168.642578125
 10
0.0
 20
-1178.30078125
 10
0.0
 20
-1187.958984375
 10
0.0
 20
-1197.6171875
 10
0.0
 20
-1207.275390625
 10
0.0
 20
-1216.93359375
 10
0.0
 20
-1226.591796875
 10
0.0
 20
-1236.25
 10
0.0
 20
-1245.908203125
 10
0.0
 20
-1255.56640625
 10
0.0
 20
-1265.224609375
 10
0.0
 20
-1274.8828125
 10
0.0
 20
-1284.541015625
 10
0.0
 20
-1294.19921875
 10
0.0
 20
-1303.857421875
 10
0.0
 20
-1313.515625
 10
0.0
 20
-1323.173828125
 10
0.0
 20
-1332.83203125
 10
0.0
 20
-1342.490234375
 10
0.0
 20
-1352.1484375
 10
0.0
 20
-1361.806640625
 10
0.0
 20
-1371.46484375
 10
0.0
 20
-1381.123046875
 10
0.0
 20
-1390.78125
 10
0.0
 20
-1400.439453125
 10
0.0
 20
-1410.09765625
 10
0.0
 20
-1419.755859375
 10
0.0
 20
-1429.4140625
 10
0.0
 20
-1439.072265625
 10
0.0
 20
-1448.73046875
 10
0.0
 20
-1458.388671875
 10
0.0
 20
-1468.046875
 10
0.0
 20
-1477.705078125
 10
0.0
 20
-1487.36328125
 10
0.0
 20
-1497.021484375
 10
0.0
 20
-1506.6796875
 10
0.0
 20
-1516.337890625
 10
0.0
 20
-1525.99609375
 10
0.0
 20
-1535.654296875
 10
0.0
 20
-1545.3125
 10
0.0
 20
-1554.970703125
 10
0.0
 20
-1564.62890625
 10
0.0
 20
-1574.287109375
 10
0.0
 20
-1583.9453125
 10
0.0
 20
-1593.603515625
 10
0.0
 20
-1603.26171875
 10
0.0
 20
-1612.919921875
 10
0.0
 20
-1622.578125
 10
0.0
 20
-1632.236328125
 10
0.0
 20
-1641.89453125
 10
0.0
 20
-1651.552734375
 10
0.0
 20
-1661.2109375
 10
0.0
 20
-1670.869140625
 10
0.0
 20
-1680.52734375
 10
0.0
 20
-1690.185546875
 10
0.0
 20
-1699.84375
 10
0.0
 20
-1709.501953125
 10
0.0
 20
-1719.16015625
 10
0.0
 20
-1728.818359375
 10
0.0
 20
-1738.4765625
 10
0.0
 20
-1748.134765625
 10
0.0
 20
-1757.79296875
 10
0.0
 20
-1767.451171875
 10
0.0
 20
-1777.109375
 10
0.0
 20
-1786.767578125
 10
0.0
 20
-1796.42578125
 10
0.0
 20
-1806.083984375
 10
0.0
 20
-1815.7421875
 10
0.0
 20
-1825.400390625
 10
0.0
 20
-1835.05859375
 10
0.0
 20
-1844.716796875
 10
0.0
 20
-1854.375
 10
0.0
 20
-1864.033203125
 10
0.0
 20
-1873.69140625
 10
0.0
 20
-1883.349609375
 10
0.0
 20
-1893.0078125
 10
0.0
 20
-1902.666015625
 10
0.0
 20
-1912.32421875
 10
0.0
 20
-1921.982421875
 10
0.0
 20
-1931.640625
 10
0.0
 20
-1941.298828125
 10
0.0
 20
-1950.95703125
 10
0.0
 20
-1960.615234375
 10
0.0
 20
-1970.2734375
 10
0.0
 20
-1979.931640625
 10
0.0
 20
-1989.58984375
 10
0.0
 20
-1999.248046875
 10
0.0
 20
-2008.90625
 10
0.0
 20
-2018.564453125
 10
0.0
 20
-2028.22265625
 10
0.0
 20
-2037.880859375
 10
0.0
 20
-2047.5390625
 10
0.0
 20
-2057.197265625
 10
0.0
 20
-2066.85546875
 10
0.0
 20
-2076.513671875
 10
0.0
 20
-2086.171875
 10
0.0
 20
-2095.830078125
 10
0.0
 20
-2105.48828125
 10
0.0
 20
-2115.146484375
 10
0.0
 20
-2124.8046875
 10
0.0
 20
-2134.462890625
 10
0.0
 20
-2144.12109375
 10
0.0
 20
-2153.779296875
 10
0.0
 20
-2163.4375
 10
0.0
 20
-2173.095703125
 10
0.0
 20
-2182.75390625
 10
0.0
 20
-2192.412109375
 10
0.0
 20
-2202.0703125
 10
0.0
 20
-2211.728515625
 10
0.0
 20
-2221.38671875
 10
0.0
 20
-2231.044921875
 10
0.0
 20
-2240.703125
 10
0.0
 20
-2250.361328125
 10
0.0
 20
-2260.01953125
 10
0.0
 20
-2269.677734375
 10
0.0
 20
-2279.3359375
 10
0.0
 20
-2288.994140625
 10
0.0
 20
-2298.65234375
 10
0.0
 20
-2308.310546875
 10
0.0
 20
-2317.96875
 10
0.0
 20
-2327.626953125
 10
0.0
 20
-2337.28515625
 10
0.0
 20
-2346.943359375
 10
0.0
 20
-2356.6015625
 10
0.0
 20
-2366.259765625
 10
0.0
 20
-2375.91796875
 10
0.0
 20
-2385.576171875
 10
0.0
 20
-2395.234375
 10
0.0
 20
-2404.892578125
 10
0.0
 20
-2414.55078125
 10
0.0
 20
-2424.208984375
 10
0.0
 20
-2433.8671875
 10
0.0
 20
-2443.525390625
 10
0.0
 20
-2453.18359375
 10
0.0
 20
-2462.841796875
 10
0.0
 20
-2472.5
 10
0.0
 20
-2482.158203125
 10
0.0
 20
-2491.81640625
 10
0.0
 20
-2501.474609375
 10
0.0
 20
-2511.1328125
 10
0.0
 20
-2520.791015625
 10
0.0
 20
-2530.44921875
 10
0.0
 20
-2540.107421875
 10
0.0
 20
-2549.765625
 10
0.0
 20
-2559.423828125
 10
0.0
 20
-2569.08203125
 10
0.0
 20
-2578.740234375
 10
0.0
 20
-2588.3984375
 10
0.0
 20
-2598.056640625
 10
0.0
 20
-2607.71484375
 10
0.0
 20
-2617.373046875
 10
0.0
 20
-2627.03125
 10
0.0
 20
-2636.689453125
 10
0.0
 20
-2646.34765625
 10
0.0
 20
-2656.005859375
 10
0.0
 20
-2665.6640625
 10
0.0
 20
-2675.322265625
 10
0.0
 20
-2684.98046875
 10
0.0
 20
-2694.638671875
 10
0.0
 20
-2704.296875
 10
0.0
 20
-2713.955078125
 10
0.0
 20
-2723.61328125
 10
0.0
 20
-2733.271484375
 10
0.0
 20
-2742.9296875
 10
0.0
 20
-2752.587890625
 10
0.0
 20
-2762.24609375
 10
0.0
 20
-2771.904296875
 10
0.0
 20
-2781.5625
 10
0.0
 20
-2791.220703125
 10
0.0
 20
-2800.87890625
 10
0.0
 20
-2810.537109375
 10
0.0
 20
-2820.1953125
 10
0.0
 20
-2829.853515625
 10
0.0
 20
-2839.51171875
 10
0.0
 20
-2849.169921875
 10
0.0
 20
-2858.828125
 10
0.0
 20
-2868.486328125
 10
0.0
 20
-2878.14453125
 10
0.0
 20
-2887.802734375
 10
0.0
 20
-2897.4609375
 10
0.0
 20
-2907.119140625
 10
0.0
 20
-2916.77734375
 10
0.0
 20
-2926.435546875
 10
0.0
 20
-2936.09375
 10
0.0
 20
-2945.751953125
 10
0.0
 20
-2955.41015625
 10
0.0
 20
-2965.068359375
 10
0.0
 20
-2974.7265625
 10
0.0
 20
-2984.384765625
 10
0.0
 20
-2994.04296875
 10
0.0
 20
-3003.701171875
 10
0.0
 20
-3013.359375
 10
0.0
 20
-3023.017578125
 10
0.0
 20
-3032.67578125
 10
0.0
 20
-3042.333984375
 10
0.0
 20
-3051.9921875
 10
0.0
 20
-3061.650390625
 10
0.0
 20
-3071.30859375
 10
0.0
 20
-3080.966796875
 10
0.0
 20
-3090.625
 10
0.0
 20
-3100.283203125
 10
0.0
 20
-3109.94140625
 10
0.0
 20
-3119.599609375
 10
0.0
 20
-3129.2578125
 10
0.0
 20
-3138.916015625
 10
0.0
 20
-3148.57421875
 10
0.0
 20
-3158.232421875
 10
0.0
 20
-3167.890625
 10
0.0
 20
-3177.548828125
 10
0.0
 20
-3187.20703125
 10
0.0
 20
-3196.865234375
 10
0.0
 20
-3206.5234375
 10
0.0
 20
-3216.181640625
 10
0.0
 20
-3225.83984375
 10
0.0
 20
-3235.498046875
 10
0.0
 20
-3245.15625
 10
0.0
 20
-3254.814453125
 10
0.0
 20
-3264.47265625
 10
0.0
 20
-3274.130859375
 10
0.0
 20
-3283.7890625
 10
0.0
 20
-3293.447265625
 10
0.0
 20
-3303.10546875
 10
0.0
 20
-3312.763671875
 10
0.0
 20
-3322.421875
 10
0.0
 20
-3332.080078125
 10
0.0
 20
-3341.73828125
 10
0.0
 20
-3351.396484375
 10
0.0
 20
-3361.0546875
 10
0.0
 20
-3370.712890625
 10
0.0
 20
-3380.37109375
 10
0.0
 20
-3390.029296875
 10
0.0
 20
-3399.6875
 10
0.0
 20
-3409.345703125
 10
0.0
 20
-3419.00390625
 10
0.0
 20
-3428.662109375
 10
0.0
 20
-3438.3203125
 10
0.0
 20
-3447.978515625
 10
0.0
 20
-3457.63671875
 10
0.0
 20
-3467.294921875
 10
0.0
 20
-3476.953125
 10
0.0
 20
-3486.611328125
 10
0.0
 20
-3496.26953125
 10
0.0
 20
-3505.927734375
 10
0.0
 20
-3515.5859375
 10
0.0
 20
-3525.244140625
 10
0.0
 20
-3534.90234375
 10
0.0
 20
-3544.560546875
 10
0.0
 20
-3554.21875
 10
0.0
 20
-3563.876953125
 10
0.0
 20
-3573.53515625
 10
0.0
 20
-3583.193359375
 10
0.0
 20
-3592.8515625
 10
0.0
 20
-3602.509765625
 10
0.0
 20
-3612.16796875
 10
0.0
 20
-3621.826171875
 10
0.0
 20
-3631.484375
 10
0.0
 20
-3641.142578125
 10
0.0
 20
-3650.80078125
 10
0.0
 20
-3660.458984375
 10
0.0
 20
-3670.1171875
 10
0.0
 20
-3679.775390625
 10
0.0
 20
-3689.43359375
 10
0.0
 20
-3699.091796875
 10
0.0
 20
-3708.75
 10
0.0
 20
-3718.408203125
 10
0.0
 20
-3728.06640625
 10
0.0
 20
-3737.724609375
 10
0.0
 20
-3747.3828125
 10
0.0
 20
-3757.041015625
 10
0.0
 20
-3766.69921875
 10
0.0
 20
-3776.357421875
 10
0.0
 20
-3786.015625
 10
0.0
 20
-3795.673828125
 10
0.0
 20
-3805.33203125
 10
0.0
 20
-3814.990234375
 10
0.0
 20
-3824.6484375
 10
0.0
 20
-3834.306640625
 10
0.0
 20
-3843.96484375
 10
0.0
 20
-3853.623046875
 10
0.0
 20
-3863.28125
 10
0.0
 20
-3872.939453125
 10
0.0
 20
-3882.59765625
 10
0.0
 20
-3892.255859375
 10
0.0
 20
-3901.9140625
 10
0.0
 20
-3911.572265625
 10
0.0
 20
-3921.23046875
 10
0.0
 20
-3930.888671875
 10
0.0
 20
-3940.546875
 10
0.0
 20
-3950.205078125
 10
0.0
 20
-3959.86328125
 10
0.0
 20
-3969.521484375
 10
0.0
 20
-3979.1796875
 10
0.0
 20
-3988.837890625
 10
0.0
 20
-3998.49609375
 10
0.0
 20
-4008.154296875
 10
0.0
 20
-4017.8125
 10
0.0
 20
-4027.470703125
 10
0.0
 20
-4037.12890625
 10
0.0
 20
-4046.787109375
 10
0.0
 20
-4056.4453125
 10
0.0
 20
-4066.103515625
 10
0.0
 20
-4075.76171875
 10
0.0
 20
-4085.419921875
 10
0.0
 20
-4095.078125
 10
0.0
 20
-4104.736328125
 10
0.0
 20
-4114.39453125
 10
0.0
 20
-4124.052734375
 10
0.0
 20
-4133.7109375
 10
0.0
 20
-4143.369140625
 10
0.0
 20
-4153.02734375
 10
0.0
 20
-4162.685546875
 10
0.0
 20
-4172.34375
 10
0.0
 20
-4182.001953125
 10
0.0
 20
-4191.66015625
 10
0.0
 20
-4201.318359375
 10
0.0
 20
-4210.9765625
 10
0.0
 20
-4220.634765625
 10
0.0
 20
-4230.29296875
 10
0.0
 20
-4239.951171875
 10
0.0
 20
-4249.609375
 10
0.0
 20
-4259.267578125
 10
0.0
 20
-4268.92578125
 10
0.0
 20
-4278.583984375
 10
0.0
 20
-4288.2421875
 10
0.0
 20
-4297.900390625
 10
0.0
 20
-4307.55859375
 10
0.0
 20
-4317.216796875
 10
0.0
 20
-4326.875
 10
0.0
 20
-4336.533203125
 10
0.0
 20
-4346.19140625
 10
0.0
 20
-4355.849609375
 10
0.0
 20
-4365.5078125
 10
0.0
 20
-4375.166015625
 10
0.0
 20
-4384.82421875
 10
0.0
 20
-4394.482421875
 10
0.0
 20
-4404.140625
 10
0.0
 20
-4413.798828125
 10
0.0
 20
-4423.45703125
 10
0.0
 20
-4433.115234375
 10
0.0
 20
-4442.7734375
 10
0.0
 20
-4452.431640625
 10
0.0
 20
-4462.08984375
 10
0.0
 20
-4471.748046875
 10
0.0
 20
-4481.40625
 10
0.0
 20
-4491.064453125
 10
0.0
 20
-4500.72265625
 10
0.0
 20
-4510.380859375
 10
0.0
 20
-4520.0390625
 10
0.0
 20
-4529.697265625
 10
0.0
 20
-4539.35546875
 10
0.0
 20
-4549.013671875
 10
0.0
 20
-4558.671875
 10
0.0
 20
-4568.330078125
 10
0.0
 20
-4577.98828125
 10
0.0
 20
-4587.646484375
 10
0.0
 20
-4597.3046875
 10
0.0
 20
-4606.962890625
 10
0.0
 20
-4616.62109375
 10
0.0
 20
-4626.279296875
 10
0.0
 20
-4635.9375
 10
0.0
 20
-4645.595703125
 10
0.0
 20
-4655.25390625
 10
0.0
 20
-4664.912109375
 10
0.0
 20
-4674.5703125
 10
0.0
 20
-4684.228515625
 10
0.0
 20
-4693.88671875
 10
0.0
 20
-4703.544921875
 10
0.0
 20
-4713.203125
 10
0.0
 20
-4722.861328125
 10
0.0
 20
-4732.51953125
 10
0.0
 20
-4742.177734375
 10
0.0
 20
-4751.8359375
 10
0.0
 20
-4761.494140625
 10
0.0
 20
-4771.15234375
 10
0.0
 20
-4780.810546875
 10
0.0
 20
-4790.46875
 10
0.0
 20
-4800.126953125
 10
0.0
 20
-4809.78515625
 10
0.0
 20
-4819.443359375
 10
0.0
 20
-4829.1015625
 10
0.0
 20
-4838.759765625
 10
0.0
 20
-4848.41796875
 10
0.0
 20
-4858.076171875
 10
0.0
 20
-4867.734375
 10
0.0
 20
-4877.392578125
 10
0.0
 20
-4887.05078125
 10
0.0
 20
-4896.708984375
 10
0.0
 20
-4906.3671875
 10
0.0
 20
-4916.025390625
 10
0.0
 20
-4925.68359375
 10
0.0
 20
-4935.341796875
 10
9.658203125
 20
-4935.341796875
 10
19.31640625
 20
-4935.341796875
 10
28.974609375
 20
-4935.341796875
 10
38.6328125
 20
-4935.341796875
 10
48.291015625
 20
-4935.341796875
 10
57.94921875
 20
-4935.341796875
 10
67.607421875
 20
-4935.341796875
 10
77.265625
 20
-4935.341796875
 10
86.923828125
 20
-4935.341796875
 10
96.58203125
 20
-4935.341796875
 10
106.240234375
 20
-4935.341796875
 10
115.8984375
 20
-4935.341796875
 10
125.556640625
 20
-4935.341796875
 10
135.21484375
 20
-4935.341796875
 10
144.873046875
 20
-4935.341796875
 10
154.53125
 20
-4935.341796875
 10
164.189453125
 20
-4935.341796875
 10
173.84765625
 20
-4935.341796875
 10
183.505859375
 20
-4935.341796875
 10
193.1640625
 20
-4935.341796875
 10
202.822265625
 20
-4935.341796875
 10
212.48046875
 20
-4935.341796875
 10
222.138671875
 20
-4935.341796875
 10
231.796875
 20
-4935.341796875
 10
241.455078125
 20
-4935.341796875
 10
251.11328125
 20
-4935.341796875
 10
260.771484375
 20
-4935.341796875
 10
270.4296875
 20
-4935.341796875
 10
280.087890625
 20
-4935.341796875
 10
289.74609375
 20
-4935.341796875
 10
299.404296875
 20
-4935.341796875
 10
309.0625
 20
-4935.341796875
 10
318.720703125
 20
-4935.341796875
 10
328.37890625
 20
-4935.341796875
 10
338.037109375
 20
-4935.341796875
 10
347.6953125
 20
-4935.341796875
 10
357.353515625
 20
-4935.341796875
 10
367.01171875
 20
-4935.341796875
 10
376.669921875
 20
-4935.341796875
 10
386.328125
 20
-4935.341796875
 10
395.986328125
 20
-4935.341796875
 10
405.64453125
 20
-4935.341796875
 10
415.302734375
 20
-4935.341796875
 10
424.9609375
 20
-4935.341796875
 10
434.619140625
 20
-4935.341796875
 10
444.27734375
 20
-4935.341796875
 10
453.935546875
 20
-4935.341796875
 10
463.59375
 20
-4935.341796875
 10
473.251953125
 20
-4935.341796875
 10
482.91015625
 20
-4935.341796875
 10
492.568359375
 20
-4935.341796875
 10
502.2265625
 20
-4935.341796875
 10
511.884765625
 20
-4935.341796875
 10
521.54296875
 20
-4935.341796875
 10
531.201171875
 20
-4935.341796875
 10
540.859375
 20
-4935.341796875
 10
550.517578125
 20
-4935.341796875
 10
560.17578125
 20
-4935.341796875
 10
569.833984375
 20
-4935.341796875
 10
579.4921875
 20
-4935.341796875
 10
589.150390625
 20
-4935.341796875
 10
598.80859375
 20
-4935.341796875
 10
608.466796875
 20
-4935.341796875
 10
618.125
 20
-4935.341796875
 10
627.783203125
 20
-4935.341796875
 10
637.44140625
 20
-4935.341796875
 10
647.099609375
 20
-4935.341796875
 10
656.7578125
 20
-4935.341796875
 10
666.416015625
 20
-4935.341796875
 10
676.07421875
 20
-4935.341796875
 10
685.732421875
 20
-4935.341796875
 10
695.390625
 20
-4935.341796875
 10
705.048828125
 20
-4935.341796875
 10
714.70703125
 20
-4935.341796875
 10
724.365234375
 20
-4935.341796875
 10
734.0234375
 20
-4935.341796875
 10
743.681640625
 20
-4935.341796875
 10
753.33984375
 20
-4935.341796875
 10
762.998046875
 20
-4935.341796875
 10
772.65625
 20
-4935.341796875
 10
782.314453125
 20
-4935.341796875
 10
791.97265625
 20
-4935.341796875
 10
801.630859375
 20
-4935.341796875
 10
811.2890625
 20
-4935.341796875
 10
820.947265625
 20
-4935.341796875
 10
830.60546875
 20
-4935.341796875
 10
840.263671875
 20
-4935.341796875
 10
849.921875
 20
-4935.341796875
 10
859.580078125
 20
-4935.341796875
 10
869.23828125
 20
-4935.341796875
 10
878.896484375
 20
-4935.341796875
 10
888.5546875
 20
-4935.341796875
 10
898.212890625
 20
-4935.341796875
 10
907.87109375
 20
-4935.341796875
 10
917.529296875
 20
-4935.341796875
 10
927.1875
 20
-4935.341796875
 10
936.845703125
 20
-4935.341796875
 10
946.50390625
 20
-4935.341796875
 10
956.162109375
 20
-4935.341796875
 10
965.8203125
 20
-4935.341796875
 10
975.478515625
 20
-4935.341796875
 10
985.13671875
 20
-4935.341796875
 10
994.794921875
 20
-4935.341796875
 10
1004.453125
 20
-4935.341796875
 10
1014.111328125
 20
-4935.341796875
 10
1023.76953125
 20
-4935.341796875
 10
1033.427734375
 20
-4935.341796875
 10
1043.0859375
 20
-4935.341796875
 10
1052.744140625
 20
-4935.341796875
 10
1062.40234375
 20
-4935.341796875
 10
1072.060546875
 20
-4935.341796875
 10
1081.71875
 20
-4935.341796875
 10
1091.376953125
 20
-4935.341796875
 10
1101.03515625
 20
-4935.341796875
 10
1110.693359375
 20
-4935.341796875
 10
1120.3515625
 20
-4935.341796875
 10
1130.009765625
 20
-4935.341796875
 10
1139.66796875
 20
-4935.341796875
 10
1149.326171875
 20
-4935.341796875
 10
1158.984375
 20
-4935.341796875
 10
1168.642578125
 20
-4935.341796875
 10
1178.30078125
 20
-4935.341796875
 10
1187.958984375
 20
-4935.341796875
 10
1197.6171875
 20
-4935.341796875
 10
1207.275390625
 20
-4935.341796875
 10
1216.93359375
 20
-4935.341796875
 10
1226.591796875
 20
-4935.341796875
 10
1236.25
 20
-4935.341796875
 10
1245.908203125
 20
-4935.341796875
 10
1255.56640625
 20
-4935.341796875
 10
1265.224609375
 20
-4935.341796875
 10
1274.8828125
 20
-4935.341796875
 10
1284.541015625
 20
-4935.341796875
 10
1294.19921875
 20
-4935.341796875
 10
1303.857421875
 20
-4935.341796875
 10
1313.515625
 20
-4935.341796875
 10
1323.173828125
 20
-4935.341796875
 10
1332.83203125
 20
-4935.341796875
 10
1342.490234375
 20
-4935.341796875
 10
1352.1484375
 20
-4935.341796875
 10
1361.806640625
 20
-4935.341796875
 10
1371.46484375
 20
-4935.341796875
 10
1381.123046875
 20
-4935.341796875
 10
1390.78125
 20
-4935.341796875
 10
1400.439453125
 20
-4935.341796875
 10
1410.09765625
 20
-4935.341796875
 10
1419.755859375
 20
-4935.341796875
 10
1429.4140625
 20
-4935.341796875
 10
1439.072265625
 20
-4935.341796875
 10
1448.73046875
 20
-4935.341796875
 10
1458.388671875
 20
-4935.341796875
 10
1468.046875
 20
-4935.341796875
 10
1477.705078125
 20
-4935.341796875
 10
1487.36328125
 20
-4935.341796875
 10
1497.021484375
 20
-4935.341796875
 10
1506.6796875
 20
-4935.341796875
 10
1516.337890625
 20
-4935.341796875
 10
1525.99609375
 20
-4935.341796875
 10
1535.654296875
 20
-4935.341796875
 10
1545.3125
 20
-4935.341796875
 10
1554.970703125
 20
-4935.341796875
 10
1564.62890625
 20
-4935.341796875
 10
1574.287109375
 20
-4935.341796875
 10
1583.9453125
 20
-4935.341796875
 10
1593.603515625
 20
-4935.341796875
 10
1603.26171875
 20
-4935.341796875
 10
1612.919921875
 20
-4935.341796875
 10
1622.578125
 20
-4935.341796875
 10
1632.236328125
 20
-4935.341796875
 10
1641.89453125
 20
-4935.341796875
 10
1651.552734375
 20
-4935.341796875
 10
1661.2109375
 20
-4935.341796875
 10
1670.869140625
 20
-4935.341796875
 10
1680.52734375
 20
-4935.341796875
 10
1690.185546875
 20
-4935.341796875
 10
1699.84375
 20
-4935.341796875
 10
1709.501953125
 20
-4935.341796875
 10
1719.16015625
 20
-4935.341796875
 10
1728.818359375
 20
-4935.341796875
 10
1738.4765625
 20
-4935.341796875
 10
1748.134765625
 20
-4935.341796875
 10
1757.79296875
 20
-4935.341796875
 10
1767.451171875
 20
-4935.341796875
 10
1777.109375
 20
-4935.341796875
 10
1786.767578125
 20
-4935.341796875
 10
1796.42578125
 20
-4935.341796875
 10
1806.083984375
 20
-4935.341796875
 10
1815.7421875
 20
-4935.341796875
 10
1825.400390625
 20
-4935.341796875
 10
1835.05859375
 20
-4935.341796875
 10
1844.716796875
 20
-4935.341796875
 10
1854.375
 20
-4935.341796875
 10
1864.033203125
 20
-4935.341796875
 10
1873.69140625
 20
-4935.341796875
 10
1883.349609375
 20
-4935.341796875
 10
1893.0078125
 20
-4935.341796875
 10
1902.666015625
 20
-4935.341796875
 10
1912.32421875
 20
-4935.341796875
 10
1921.982421875
 20
-4935.341796875
 10
1931.640625
 20
-4935.341796875
 10
1941.298828125
 20
-4935.341796875
 10
1950.95703125
 20
-4935.341796875
 10
1960.615234375
 20
-4935.341796875
 10
1970.2734375
 20
-4935.341796875
 10
1979.931640625
 20
-4935.341796875
 10
1989.58984375
 20
-4935.341796875
 10
1999.248046875
 20
-4935.341796875
 10
2008.90625
 20
-4935.341796875
 10
2018.564453125
 20
-4935.341796875
 10
2028.22265625
 20
-4935.341796875
 10
2037.880859375
 20
-4935.341796875
 10
2047.5390625
 20
-4935.341796875
 10
2057.197265625
 20
-4935.341796875
 10
2066.85546875
 20
-4935.341796875
 10
2076.513671875
 20
-4935.341796875
 10
2086.171875
 20
-4935.341796875
 10
2095.830078125
 20
-4935.341796875
 10
2105.48828125
 20
-4935.341796875
 10
2115.146484375
 20
-4935.341796875
 10
2124.8046875
 20
-4935.341796875
 10
2134.462890625
 20
-4935.341796875
 10
2144.12109375
 20
-4935.341796875
 10
2153.779296875
 20
-4935.341796875
 10
2163.4375
 20
-4935.341796875
 10
2173.095703125
 20
-4935.341796875
 10
2182.75390625
 20
-4935.341796875
 10
2192.412109375
 20
-4935.341796875
 10
2202.0703125
 20
-4935.341796875
 10
2211.728515625
 20
-4935.341796875
 10
2221.38671875
 20
-4935.341796875
 10
2231.044921875
 20
-4935.341796875
 10
2240.703125
 20
-4935.341796875
 10
2250.361328125
 20
-4935.341796875
 10
2260.01953125
 20
-4935.341796875
 10
2269.677734375
 20
-4935.341796875
 10
2279.3359375
 20
-4935.341796875
 10
2288.994140625
 20
-4935.341796875
 10
2298.65234375
 20
-4935.341796875
 10
2308.310546875
 20
-4935.341796875
 10
2317.96875
 20
-4935.341796875
 10
2327.626953125
 20
-4935.341796875
 10
2337.28515625
 20
-4935.341796875
 10
2346.943359375
 20
-4935.341796875
 10
2356.6015625
 20
-4935.341796875
 10
2366.259765625
 20
-4935.341796875
 10
2375.91796875
 20
-4935.341796875
 10
2385.576171875
 20
-4935.341796875
 10
2395.234375
 20
-4935.341796875
 10
2404.892578125
 20
-4935.341796875
 10
2414.55078125
 20
-4935.341796875
 10
2424.208984375
 20
-4935.341796875
 10
2433.8671875
 20
-4935.341796875
 10
2443.525390625
 20
-4935.341796875
 10
2453.18359375
 20
-4935.341796875
 10
2462.841796875
 20
-4935.341796875
 10
2472.5
 20
-4935.341796875
 10
2482.158203125
 20
-4935.341796875
 10
2491.81640625
 20
-4935.341796875
 10
2501.474609375
 20
-4935.341796875
 10
2511.1328125
 20
-4935.341796875
 10
2520.791015625
 20
-4935.341796875
 10
2530.44921875
 20
-4935.341796875
 10
2540.107421875
 20
-4935.341796875
 10
2549.765625
 20
-4935.341796875
 10
2559.423828125
 20
-4935.341796875
 10
2569.08203125
 20
-4935.341796875
 10
2578.740234375
 20
-4935.341796875
 10
2588.3984375
 20
-4935.341796875
 10
2598.056640625
 20
-4935.341796875
 10
2607.71484375
 20
-4935.341796875
 10
2617.373046875
 20
-4935.341796875
 10
2627.03125
 20
-4935.341796875
 10
2636.689453125
 20
-4935.341796875
 10
2646.34765625
 20
-4935.341796875
 10
2656.005859375
 20
-4935.341796875
 10
2665.6640625
 20
-4935.341796875
 10
2675.322265625
 20
-4935.341796875
 10
2684.98046875
 20
-4935.341796875
 10
2694.638671875
 20
-4935.341796875
 10
2704.296875
 20
-4935.341796875
 10
2713.955078125
 20
-4935.341796875
 10
2723.61328125
 20
-4935.341796875
 10
2733.271484375
 20
-4935.341796875
 10
2742.9296875
 20
-4935.341796875
 10
2752.587890625
 20
-4935.341796875
 10
2762.24609375
 20
-4935.341796875
 10
2771.904296875
 20
-4935.341796875
 10
2781.5625
 20
-4935.341796875
 10
2791.220703125
 20
-4935.341796875
 10
2800.87890625
 20
-4935.341796875
 10
2810.537109375
 20
-4935.341796875
 10
2820.1953125
 20
-4935.341796875
 10
2829.853515625
 20
-4935.341796875
 10
2839.51171875
 20
-4935.341796875
 10
2849.169921875
 20
-4935.341796875
 10
2858.828125
 20
-4935.341796875
 10
2868.486328125
 20
-4935.341796875
 10
2878.14453125
 20
-4935.341796875
 10
2887.802734375
 20
-4935.341796875
 10
2897.4609375
 20
-4935.341796875
 10
2907.119140625
 20
-4935.341796875
 10
2916.77734375
 20
-4935.341796875
 10
2926.435546875
 20
-4935.341796875
 10
2936.09375
 20
-4935.341796875
 10
2945.751953125
 20
-4935.341796875
 10
2955.41015625
 20
-4935.341796875
 10
2965.068359375
 20
-4935.341796875
 10
2974.7265625
 20
-4935.341796875
 10
2984.384765625
 20
-4935.341796875
 10
2994.04296875
 20
-4935.341796875
 10
3003.701171875
 20
-4935.341796875
 10
3013.359375
 20
-4935.341796875
 10
3023.017578125
 20
-4935.341796875
 10
3032.67578125
 20
-4935.341796875
 10
3042.333984375
 20
-4935.341796875
 10
3051.9921875
 20
-4935.341796875
 10
3061.650390625
 20
-4935.341796875
 10
3071.30859375
 20
-4935.341796875
 10
3080.966796875
 20
-4935.341796875
 10
3090.625
 20
-4935.341796875
 10
3100.283203125
 20
-4935.341796875
 10
3109.94140625
 20
-4935.341796875
 10
3119.599609375
 20
-4935.341796875
 10
3129.2578125
 20
-4935.341796875
 10
3138.916015625
 20
-4935.341796875
 10
3148.57421875
 20
-4935.341796875
 10
3158.232421875
 20
-4935.341796875
 10
3167.890625
 20
-4935.341796875
 10
3177.548828125
 20
-4935.341796875
 10
3187.20703125
 20
-4935.341796875
 10
3196.865234375
 20
-4935.341796875
 10
3206.5234375
 20
-4935.341796875
 10
3216.181640625
 20
-4935.341796875
 10
3225.83984375
 20
-4935.341796875
 10
3235.498046875
 20
-4935.341796875
 10
3245.15625
 20
-4935.341796875
 10
3254.814453125
 20
-4935.341796875
 10
3264.47265625
 20
-4935.341796875
 10
3274.130859375
 20
-4935.341796875
 10
3283.7890625
 20
-4935.341796875
 10
3293.447265625
 20
-4935.341796875
 10
3303.10546875
 20
-4935.341796875
 10
3312.763671875
 20
-4935.341796875
 10
3322.421875
 20
-4935.341796875
 10
3332.080078125
 20
-4935.341796875
 10
3341.73828125
 20
-4935.341796875
 10
3351.396484375
 20
-4935.341796875
 10
3361.0546875
 20
-4935.341796875
 10
3370.712890625
 20
-4935.341796875
 10
3380.37109375
 20
-4935.341796875
 10
3390.029296875
 20
-4935.341796875
 10
3399.6875
 20
-4935.341796875
 10
3409.345703125
 20
-4935.341796875
 10
3419.00390625
 20
-4935.341796875
 10
3428.662109375
 20
-4935.341796875
 10
3438.3203125
 20
-4935.341796875
 10
3447.978515625
 20
-4935.341796875
 10
3457.63671875
 20
-4935.341796875
 10
3467.294921875
 20
-4935.341796875
 10
3476.953125
 20
-4935.341796875
 10
3486.611328125
 20
-4935.341796875
 10
3496.26953125
 20
-4935.341796875
 10
3505.927734375
 20
-4935.341796875
 10
3515.5859375
 20
-4935.341796875
 10
3525.244140625
 20
-4935.341796875
 10
3534.90234375
 20
-4935.341796875
 10
3544.560546875
 20
-4935.341796875
 10
3554.21875
 20
-4935.341796875
 10
3563.876953125
 20
-4935.341796875
 10
3573.53515625
 20
-4935.341796875
 10
3583.193359375
 20
-4935.341796875
 10
3592.8515625
 20
-4935.341796875
 10
3602.509765625
 20
-4935.341796875
 10
3612.16796875
 20
-4935.341796875
 10
3621.826171875
 20
-4935.341796875
 10
3631.484375
 20
-4935.341796875
 10
3641.142578125
 20
-4935.341796875
 10
3650.80078125
 20
-4935.341796875
 10
3660.458984375
 20
-4935.341796875
 10
3670.1171875
 20
-4935.341796875
 10
3679.775390625
 20
-4935.341796875
 10
3689.43359375
 20
-4935.341796875
 10
3699.091796875
 20
-4935.341796875
 10
3708.75
 20
-4935.341796875
 10
3718.408203125
 20
-4935.341796875
 10
3728.06640625
 20
-4935.341796875
 10
3737.724609375
 20
-4935.341796875
 10
3747.3828125
 20
-4935.341796875
 10
3757.041015625
 20
-4935.341796875
 10
3766.69921875
 20
-4935.341796875
 10
3776.357421875
 20
-4935.341796875
 10
3786.015625
 20
-4935.341796875
 10
3795.673828125
 20
-4935.341796875
 10
3805.33203125
 20
-4935.341796875
 10
3814.990234375
 20
-4935.341796875
 10
3824.6484375
 20
-4935.341796875
 10
3834.306640625
 20
-4935.341796875
 10
3843.96484375
 20
-4935.341796875
 10
3853.623046875
 20
-4935.341796875
 10
3863.28125
 20
-4935.341796875
 10
3872.939453125
 20
-4935.341796875
 10
3882.59765625
 20
-4935.341796875
 10
3892.255859375
 20
-4935.341796875
 10
3901.9140625
 20
-4935.341796875
 10
3911.572265625
 20
-4935.341796875
 10
3921.23046875
 20
-4935.341796875
 10
3930.888671875
 20
-4935.341796875
 10
3940.546875
 20
-4935.341796875
 10
3950.205078125
 20
-4935.341796875
 10
3959.86328125
 20
-4935.341796875
 10
3969.521484375
 20
-4935.341796875
 10
3979.1796875
 20
-4935.341796875
 10
3988.837890625
 20
-4935.341796875
 10
3998.49609375
 20
-4935.341796875
 10
4008.154296875
 20
-4935.341796875
 10
4017.8125
 20
-4935.341796875
 10
4027.470703125
 20
-4935.341796875
 10
4037.12890625
 20
-4935.341796875
 10
4046.787109375
 20
-4935.341796875
 10
4056.4453125
 20
-4935.341796875
 10
4066.103515625
 20
-4935.341796875
 10
4075.76171875
 20
-4935.341796875
 10
4085.419921875
 20
-4935.341796875
 10
4095.078125
 20
-4935.341796875
 10
4104.736328125
 20
-4935.341796875
 10
4114.39453125
 20
-4935.341796875
 10
4124.052734375
 20
-4935.341796875
 10
4133.7109375
 20
-4935.341796875
 10
4143.369140625
 20
-4935.341796875
 10
4153.02734375
 20
-4935.341796875
 10
4162.685546875
 20
-4935.341796875
 10
4172.34375
 20
-4935.341796875
 10
4182.001953125
 20
-4935.341796875
 10
4191.66015625
 20
-4935.341796875
 10
4201.318359375
 20
-4935.341796875
 10
4210.9765625
 20
-4935.341796875
 10
4220.634765625
 20
-4935.341796875
 10
4230.29296875
 20
-4935.341796875
 10
4239.951171875
 20
-4935.341796875
 10
4249.609375
 20
-4935.341796875
 10
4259.267578125
 20
-4935.341796875
 10
4268.92578125
 20
-4935.341796875
 10
4278.583984375
 20
-4935.341796875
 10
4288.2421875
 20
-4935.341796875
 10
4297.900390625
 20
-4935.341796875
 10
4307.55859375
 20
-4935.341796875
 10
4317.216796875
 20
-4935.341796875
 10
4326.875
 20
-4935.341796875
 10
4336.533203125
 20
-4935.341796875
 10
4346.19140625
 20
-4935.341796875
 10
4355.849609375
 20
-4935.341796875
 10
4365.5078125
 20
-4935.341796875
 10
4375.166015625
 20
-4935.341796875
 10
4384.82421875
 20
-4935.341796875
 10
4394.482421875
 20
-4935.341796875
 10
4404.140625
 20
-4935.341796875
 10
4413.798828125
 20
-4935.341796875
 10
4423.45703125
 20
-4935.341796875
 10
4433.115234375
 20
-4935.341796875
 10
4442.7734375
 20
-4935.341796875
 10
4452.431640625
 20
-4935.341796875
 10
4462.08984375
 20
-4935.341796875
 10
4471.748046875
 20
-4935.341796875
 10
4481.40625
 20
-4935.341796875
 10
4491.064453125
 20
-4935.341796875
 10
4500.72265625
 20
-4935.341796875
 10
4510.380859375
 20
-4935.341796875
 10
4520.0390625
 20
-4935.341796875
 10
4529.697265625
 20
-4935.341796875
 10
4539.35546875
 20
-4935.341796875
 10
4549.013671875
 20
-4935.341796875
 10
4558.671875
 20
-4935.341796875
 10
4568.330078125
 20
-4935.341796875
 10
4577.98828125
 20
-4935.341796875
 10
4587.646484375
 20
-4935.341796875
 10
4597.3046875
 20
-4935.341796875
 10
4606.962890625
 20
-4935.341796875
 10
4616.62109375
 20
-4935.341796875
 10
4626.279296875
 20
-4935.341796875
 10
4635.9375
 20
-4935.341796875
 10
4645.595703125
 20
-4935.341796875
 10
4655.25390625
 20
-4935.341796875
 10
4664.912109375
 20
-4935.341796875
 10
4674.5703125
 20
-4935.341796875
 10
4684.228515625
 20
-4935.341796875
 10
4693.88671875
 20
-4935.341796875
 10
4703.544921875
 20
-4935.341796875
 10
4713.203125
 20
-4935.341796875
 10
4722.861328125
 20
-4935.341796875
 10
4732.51953125
 20
-4935.341796875
 10
4742.177734375
 20
-4935.341796875
 10
4751.8359375
 20
-4935.341796875
 10
4761.494140625
 20
-4935.341796875
 10
4771.15234375
 20
-4935.341796875
 10
4780.810546875
 20
-4935.341796875
 10
4790.46875
 20
-4935.341796875
 10
4800.126953125
 20
-4935.341796875
 10
4809.78515625
 20
-4935.341796875
 10
4819.443359375
 20
-4935.341796875
 10
4829.1015625
 20
-4935.341796875
 10
4838.759765625
 20
-4935.341796875
 10
4848.41796875
 20
-4935.341796875
 10
4858.076171875
 20
-4935.341796875
 10
4867.734375
 20
-4935.341796875
 10
4877.392578125
 20
-4935.341796875
 10
4887.05078125
 20
-4935.341796875
 10
4896.708984375
 20
-4935.341796875
 10
4906.3671875
 20
-4935.341796875
 10
4916.025390625
 20
-4935.341796875
 10
4925.68359375
 20
-4935.341796875
 10
4935.341796875
 20
-4935.341796875
 10
4935.341796875
 20
-4925.68359375
 10
4935.341796875
 20
-4916.025390625
 10
4935.341796875
 20
-4906.3671875
 10
4935.341796875
 20
-4896.708984375
 10
4935.341796875
 20
-4887.05078125
 10
4935.341796875
 20
-4877.392578125
 10
4935.341796875
 20
-4867.734375
 10
4935.341796875
 20
-4858.076171875
 10
4935.341796875
 20
-4848.41796875
 10
4935.341796875
 20
-4838.759765625
 10
4935.341796875
 20
-4829.1015625
 10
4935.341796875
 20
-4819.443359375
 10
4935.341796875
 20
-4809.78515625
 10
4935.341796875
 20
-4800.126953125
 10
4935.341796875
 20
-4790.46875
 10
4935.341796875
 20
-4780.810546875
 10
4935.341796875
 20
-4771.15234375
 10
4935.341796875
 20
-4761.494140625
 10
4935.341796875
 20
-4751.8359375
 10
4935.341796875
 20
-4742.177734375
 10
4935.341796875
 20
-4732.51953125
 10
4935.341796875
 20
-4722.861328125
 10
4935.341796875
 20
-4713.203125
 10
4935.341796875
 20
-4703.544921875
 10
4935.341796875
 20
-4693.88671875
 10
4935.341796875
 20
-4684.228515625
 10
4935.341796875
 20
-4674.5703125
 10
4935.341796875
 20
-4664.912109375
 10
4935.341796875
 20
-4655.25390625
 10
4935.341796875
 20
-4645.595703125
 10
4935.341796875
 20
-4635.9375
 10
4935.341796875
 20
-4626.279296875
 10
4935.341796875
 20
-4616.62109375
 10
4935.341796875
 20
-4606.962890625
 10
4935.341796875
 20
-4597.3046875
 10
4935.341796875
 20
-4587.646484375
 10
4935.341796875
 20
-4577.98828125
 10
4935.341796875
 20
-4568.330078125
 10
4935.341796875
 20
-4558.671875
 10
4935.341796875
 20
-4549.013671875
 10
4935.341796875
 20
-4539.35546875
 10
4935.341796875
 20
-4529.697265625
 10
4935.341796875
 20
-4520.0390625
 10
4935.341796875
 20
-4510.380859375
 10
4935.341796875
 20
-4500.72265625
 10
4935.341796875
 20
-4491.064453125
 10
4935.341796875
 20
-4481.40625
 10
4935.341796875
 20
-4471.748046875
 10
4935.341796875
 20
-4462.08984375
 10
4935.341796875
 20
-4452.431640625
 10
4935.341796875
 20
-4442.7734375
 10
4935.341796875
 20
-4433.115234375
 10
4935.341796875
 20
-4423.45703125
 10
4935.341796875
 20
-4413.798828125
 10
4935.341796875
 20
-4404.140625
 10
4935.341796875
 20
-4394.482421875
 10
4935.341796875
 20
-4384.82421875
 10
4935.341796875
 20
-4375.166015625
 10
4935.341796875
 20
-4365.5078125
 10
4935.341796875
 20
-4355.849609375
 10
4935.341796875
 20
-4346.19140625
 10
4935.341796875
 20
-4336.533203125
 10
4935.341796875
 20
-4326.875
 10
4935.341796875
 20
-4317.216796875
 10
4935.341796875
 20
-4307.55859375
 10
4935.341796875
 20
-4297.900390625
 10
4935.341796875
 20
-4288.2421875
 10
4935.341796875
 20
-4278.583984375
 10
4935.341796875
 20
-4268.92578125
 10
4935.341796875
 20
-4259.267578125
 10
4935.341796875
 20
-4249.609375
 10
4935.341796875
 20
-4239.951171875
 10
4935.341796875
 20
-4230.29296875
 10
4935.341796875
 20
-4220.634765625
 10
4935.341796875
 20
-4210.9765625
 10
4935.341796875
 20
-4201.318359375
 10
4935.341796875
 20
-4191.66015625
 10
4935.341796875
 20
-4182.001953125
 10
4935.341796875
 20
-4172.34375
 10
4935.341796875
 20
-4162.685546875
 10
4935.341796875
 20
-4153.02734375
 10
4935.341796875
 20
-4143.369140625
 10
4935.341796875
 20
-4133.7109375
 10
4935.341796875
 20
-4124.052734375
 10
4935.341796875
 20
-4114.39453125
 10
4935.341796875
 20
-4104.736328125
 10
4935.341796875
 20
-4095.078125
 10
4935.341796875
 20
-4085.419921875
 10
4935.341796875
 20
-4075.76171875
 10
4935.341796875
 20
-4066.103515625
 10
4935.341796875
 20
-4056.4453125
 10
4935.341796875
 20
-4046.787109375
 10
4935.341796875
 20
-4037.12890625
 10
4935.341796875
 20
-4027.470703125
 10
4935.341796875
 20
-4017.8125
 10
4935.341796875
 20
-4008.154296875
 10
4935.341796875
 20
-3998.49609375
 10
4935.341796875
 20
-3988.837890625
 10
4935.341796875
 20
-3979.1796875
 10
4935.341796875
 20
-3969.521484375
 10
4935.341796875
 20
-3959.86328125
 10
4935.341796875
 20
-3950.205078125
 10
4935.341796875
 20
-3940.546875
 10
4935.341796875
 20
-3930.888671875
 10
4935.341796875
 20
-3921.23046875
 10
4935.341796875
 20
-3911.572265625
 10
4935.341796875
 20
-3901.9140625
 10
4935.341796875
 20
-3892.255859375
 10
4935.341796875
 20
-3882.59765625
 10
4935.341796875
 20
-3872.939453125
 10
4935.341796875
 20
-3863.28125
 10
4935.341796875
 20
-3853.623046875
 10
4935.341796875
 20
-3843.96484375
 10
4935.341796875
 20
-3834.306640625
 10
4935.341796875
 20
-3824.6484375
 10
4935.341796875
 20
-3814.990234375
 10
4935.341796875
 20
-3805.33203125
 10
4935.341796875
 20
-3795.673828125
 10
4935.341796875
 20
-3786.015625
 10
4935.341796875
 20
-3776.357421875
 10
4935.341796875
 20
-3766.69921875
 10
4935.341796875
 20
-3757.041015625
 10
4935.341796875
 20
-3747.3828125
 10
4935.341796875
 20
-3737.724609375
 10
4935.341796875
 20
-3728.06640625
 10
4935.341796875
 20
-3718.408203125
 10
4935.341796875
 20
-3708.75
 10
4935.341796875
 20
-3699.091796875
 10
4935.341796875
 20
-3689.43359375
 10
4935.341796875
 20
-3679.775390625
 10
4935.341796875
 20
-3670.1171875
 10
4935.341796875
 20
-3660.458984375
 10
4935.341796875
 20
-3650.80078125
 10
4935.341796875
 20
-3641.142578125
 10
4935.341796875
 20
-3631.484375
 10
4935.341796875
 20
-3621.826171875
 10
4935.341796875
 20
-3612.16796875
 10
4935.341796875
 20
-3602.509765625
 10
4935.341796875
 20
-3592.8515625
 10
4935.341796875
 20
-3583.193359375
 10
4935.341796875
 20
-3573.53515625
 10
4935.341796875
 20
-3563.876953125
 10
4935.341796875
 20
-3554.21875
 10
4935.341796875
 20
-3544.560546875
 10
4935.341796875
 20
-3534.90234375
 10
4935.341796875
 20
-3525.244140625
 10
4935.341796875
 20
-3515.5859375
 10
4935.341796875
 20
-3505.927734375
 10
4935.341796875
 20
-3496.26953125
 10
4935.341796875
 20
-3486.611328125
 10
4935.341796875
 20
-3476.953125
 10
4935.341796875
 20
-3467.294921875
 10
4935.341796875
 20
-3457.63671875
 10
4935.341796875
 20
-3447.978515625
 10
4935.341796875
 20
-3438.3203125
 10
4935.341796875
 20
-3428.662109375
 10
4935.341796875
 20
-3419.00390625
 10
4935.341796875
 20
-3409.345703125
 10
4935.341796875
 20
-3399.6875
 10
4935.341796875
 20
-3390.029296875
 10
4935.341796875
 20
-3380.37109375
 10
4935.341796875
 20
-3370.712890625
 10
4935.341796875
 20
-3361.0546875
 10
4935.341796875
 20
-3351.396484375
 10
4935.341796875
 20
-3341.73828125
 10
4935.341796875
 20
-3332.080078125
 10
4935.341796875
 20
-3322.421875
 10
4935.341796875
 20
-3312.763671875
 10
4935.341796875
 20
-3303.10546875
 10
4935.341796875
 20
-3293.447265625
 10
4935.341796875
 20
-3283.7890625
 10
4935.341796875
 20
-3274.130859375
 10
4935.341796875
 20
-3264.47265625
 10
4935.341796875
 20
-3254.814453125
 10
4935.341796875
 20
-3245.15625
 10
4935.341796875
 20
-3235.498046875
 10
4935.341796875
 20
-3225.83984375
 10
4935.341796875
 20
-3216.181640625
 10
4935.341796875
 20
-3206.5234375
 10
4935.341796875
 20
-3196.865234375
 10
4935.341796875
 20
-3187.20703125
 10
4935.341796875
 20
-3177.548828125
 10
4935.341796875
 20
-3167.890625
 10
4935.341796875
 20
-3158.232421875
 10
4935.341796875
 20
-3148.57421875
 10
4935.341796875
 20
-3138.916015625
 10
4935.341796875
 20
-3129.2578125
 10
4935.341796875
 20
-3119.599609375
 10
4935.341796875
 20
-3109.94140625
 10
4935.341796875
 20
-3100.283203125
 10
4935.341796875
 20
-3090.625
 10
4935.341796875
 20
-3080.966796875
 10
4935.341796875
 20
-3071.30859375
 10
4935.341796875
 20
-3061.650390625
 10
4935.341796875
 20
-3051.9921875
 10
4935.341796875
 20
-3042.333984375
 10
4935.341796875
 20
-3032.67578125
 10
4935.341796875
 20
-3023.017578125
 10
4935.341796875
 20
-3013.359375
 10
4935.341796875
 20
-3003.701171875
 10
4935.341796875
 20
-2994.04296875
 10
4935.341796875
 20
-2984.384765625
 10
4935.341796875
 20
-2974.7265625
 10
4935.341796875
 20
-2965.068359375
 10
4935.341796875
 20
-2955.41015625
 10
4935.341796875
 20
-2945.751953125
 10
4935.341796875
 20
-2936.09375
 10
4935.341796875
 20
-2926.435546875
 10
4935.341796875
 20
-2916.77734375
 10
4935.341796875
 20
-2907.119140625
 10
4935.341796875
 20
-2897.4609375
 10
4935.341796875
 20
-2887.802734375
 10
4935.341796875
 20
-2878.14453125
 10
4935.341796875
 20
-2868.486328125
 10
4935.341796875
 20
-2858.828125
 10
4935.341796875
 20
-2849.169921875
 10
4935.341796875
 20
-2839.51171875
 10
4935.341796875
 20
-2829.853515625
 10
4935.341796875
 20
-2820.1953125
 10
4935.341796875
 20
-2810.537109375
 10
4935.341796875
 20
-2800.87890625
 10
4935.341796875
 20
-2791.220703125
 10
4935.341796875
 20
-2781.5625
 10
4935.341796875
 20
-2771.904296875
 10
4935.341796875
 20
-2762.24609375
 10
4935.341796875
 20
-2752.587890625
 10
4935.341796875
 20
-2742.9296875
 10
4935.341796875
 20
-2733.271484375
 10
4935.341796875
 20
-2723.61328125
 10
4935.341796875
 20
-2713.955078125
 10
4935.341796875
 20
-2704.296875
 10
4935.341796875
 20
-2694.638671875
 10
4935.341796875
 20
-2684.98046875
 10
4935.341796875
 20
-2675.322265625
 10
4935.341796875
 20
-2665.6640625
 10
4935.341796875
 20
-2656.005859375
 10
4935.341796875
 20
-2646.34765625
 10
4935.341796875
 20
-2636.689453125
 10
4935.341796875
 20
-2627.03125
 10
4935.341796875
 20
-2617.373046875
 10
4935.341796875
 20
-2607.71484375
 10
4935.341796875
 20
-2598.056640625
 10
4935.341796875
 20
-2588.3984375
 10
4935.341796875
 20
-2578.740234375
 10
4935.341796875
 20
-2569.08203125
 10
4935.341796875
 20
-2559.423828125
 10
4935.341796875
 20
-2549.765625
 10
4935.341796875
 20
-2540.107421875
 10
4935.341796875
 20
-2530.44921875
 10
4935.341796875
 20
-2520.791015625
 10
4935.341796875
 20
-2511.1328125
 10
4935.341796875
 20
-2501.474609375
 10
4935.341796875
 20
-2491.81640625
 10
4935.341796875
 20
-2482.158203125
 10
4935.341796875
 20
-2472.5
 10
4935.341796875
 20
-2462.841796875
 10
4935.341796875
 20
-2453.18359375
 10
4935.341796875
 20
-2443.525390625
 10
4935.341796875
 20
-2433.8671875
 10
4935.341796875
 20
-2424.208984375
 10
4935.341796875
 20
-2414.55078125
 10
4935.341796875
 20
-2404.892578125
 10
4935.341796875
 20
-2395.234375
 10
4935.341796875
 20
-2385.576171875
 10
4935.341796875
 20
-2375.91796875
 10
4935.341796875
 20
-2366.259765625
 10
4935.341796875
 20
-2356.6015625
 10
4935.341796875
 20
-2346.943359375
 10
4935.341796875
 20
-2337.28515625
 10
4935.341796875
 20
-2327.626953125
 10
4935.341796875
 20
-2317.96875
 10
4935.341796875
 20
-2308.310546875
 10
4935.341796875
 20
-2298.65234375
 10
4935.341796875
 20
-2288.994140625
 10
4935.341796875
 20
-2279.3359375
 10
4935.341796875
 20
-2269.677734375
 10
4935.341796875
 20
-2260.01953125
 10
4935.341796875
 20
-2250.361328125
 10
4935.341796875
 20
-2240.703125
 10
4935.341796875
 20
-2231.044921875
 10
4935.341796875
 20
-2221.38671875
 10
4935.341796875
 20
-2211.728515625
 10
4935.341796875
 20
-2202.0703125
 10
4935.341796875
 20
-2192.412109375
 10
4935.341796875
 20
-2182.75390625
 10
4935.341796875
 20
-2173.095703125
 10
4935.341796875
 20
-2163.4375
 10
4935.341796875
 20
-2153.779296875
 10
4935.341796875
 20
-2144.12109375
 10
4935.341796875
 20
-2134.462890625
 10
4935.341796875
 20
-2124.8046875
 10
4935.341796875
 20
-2115.146484375
 10
4935.341796875
 20
-2105.48828125
 10
4935.341796875
 20
-2095.830078125
 10
4935.341796875
 20
-2086.171875
 10
4935.341796875
 20
-2076.513671875
 10
4935.341796875
 20
-2066.85546875
 10
4935.341796875
 20
-2057.197265625
 10
4935.341796875
 20
-2047.5390625
 10
4935.341796875
 20
-2037.880859375
 10
4935.341796875
 20
-2028.22265625
 10
4935.341796875
 20
-2018.564453125
 10
4935.341796875
 20
-2008.90625
 10
4935.341796875
 20
-1999.248046875
 10
4935.341796875
 20
-1989.58984375
 10
4935.341796875
 20
-1979.931640625
 10
4935.341796875
 20
-1970.2734375
 10
4935.341796875
 20
-1960.615234375
 10
4935.341796875
 20
-1950.95703125
 10
4935.341796875
 20
-1941.298828125
 10
4935.341796875
 20
-1931.640625
 10
4935.341796875
 20
-1921.982421875
 10
4935.341796875
 20
-1912.32421875
 10
4935.341796875
 20
-1902.666015625
 10
4935.341796875
 20
-1893.0078125
 10
4935.341796875
 20
-1883.349609375
 10
4935.341796875
 20
-1873.69140625
 10
4935.341796875
 20
-1864.033203125
 10
4935.341796875
 20
-1854.375
 10
4935.341796875
 20
-1844.716796875
 10
4935.341796875
 20
-1835.05859375
 10
4935.341796875
 20
-1825.400390625
 10
4935.341796875
 20
-1815.7421875
 10
4935.341796875
 20
-1806.083984375
 10
4935.341796875
 20
-1796.42578125
 10
4935.341796875
 20
-1786.767578125
 10
4935.341796875
 20
-1777.109375
 10
4935.341796875
 20
-1767.451171875
 10
4935.341796875
 20
-1757.79296875
 10
4935.341796875
 20
-1748.134765625
 10
4935.341796875
 20
-1738.4765625
 10
4935.341796875
 20
-1728.818359375
 10
4935.341796875
 20
-1719.16015625
 10
4935.341796875
 20
-1709.501953125
 10
4935.341796875
 20
-1699.84375
 10
4935.341796875
 20
-1690.185546875
 10
4935.341796875
 20
-1680.52734375
 10
4935.341796875
 20
-1670.869140625
 10
4935.341796875
 20
-1661.2109375
 10
4935.341796875
 20
-1651.552734375
 10
4935.341796875
 20
-1641.89453125
 10
4935.341796875
 20
-1632.236328125
 10
4935.341796875
 20
-1622.578125
 10
4935.341796875
 20
-1612.919921875
 10
4935.341796875
 20
-1603.26171875
 10
4935.341796875
 20
-1593.603515625
 10
4935.341796875
 20
-1583.9453125
 10
4935.341796875
 20
-1574.287109375
 10
4935.341796875
 20
-1564.62890625
 10
4935.341796875
 20
-1554.970703125
 10
4935.341796875
 20
-1545.3125
 10
4935.341796875
 20
-1535.654296875
 10
4935.341796875
 20
-1525.99609375
 10
4935.341796875
 20
-1516.337890625
 10
4935.341796875
 20
-1506.6796875
 10
4935.341796875
 20
-1497.021484375
 10
4935.341796875
 20
-1487.36328125
 10
4935.341796875
 20
-1477.705078125
 10
4935.341796875
 20
-1468.046875
 10
4935.341796875
 20
-1458.388671875
 10
4935.341796875
 20
-1448.73046875
 10
4935.341796875
 20
-1439.072265625
 10
4935.341796875
 20
-1429.4140625
 10
4935.341796875
 20
-1419.755859375
 10
4935.341796875
 20
-1410.09765625
 10
4935.341796875
 20
-1400.439453125
 10
4935.341796875
 20
-1390.78125
 10
4935.341796875
 20
-1381.123046875
 10
4935.341796875
 20
-1371.46484375
 10
4935.341796875
 20
-1361.806640625
 10
4935.341796875
 20
-1352.1484375
 10
4935.341796875
 20
-1342.490234375
 10
4935.341796875
 20
-1332.83203125
 10
4935.341796875
 20
-1323.173828125
 10
4935.341796875
 20
-1313.515625
 10
4935.341796875
 20
-1303.857421875
 10
4935.341796875
 20
-1294.19921875
 10
4935.341796875
 20
-1284.541015625
 10
4935.341796875
 20
-1274.8828125
 10
4935.341796875
 20
-1265.224609375
 10
4935.341796875
 20
-1255.56640625
 10
4935.341796875
 20
-1245.908203125
 10
4935.341796875
 20
-1236.25
 10
4935.341796875
 20
-1226.591796875
 10
4935.341796875
 20
-1216.93359375
 10
4935.341796875
 20
-1207.275390625
 10
4935.341796875
 20
-1197.6171875
 10
4935.341796875
 20
-1187.958984375
 10
4935.341796875
 20
-1178.30078125
 10
4935.341796875
 20
-1168.642578125
 10
4935.341796875
 20
-1158.984375
 10
4935.341796875
 20
-1149.326171875
 10
4935.341796875
 20
-1139.66796875
 10
4935.341796875
 20
-1130.009765625
 10
4935.341796875
 20
-1120.3515625
 10
4935.341796875
 20
-1110.693359375
 10
4935.341796875
 20
-1101.03515625
 10
4935.341796875
 20
-1091.376953125
 10
4935.341796875
 20
-1081.71875
 10
4935.341796875
 20
-1072.060546875
 10
4935.341796875
 20
-1062.40234375
 10
4935.341796875
 20
-1052.744140625
 10
4935.341796875
 20
-1043.0859375
 10
4935.341796875
 20
-1033.427734375
 10
4935.341796875
 20
-1023.76953125
 10
4935.341796875
 20
-1014.111328125
 10
4935.341796875
 20
-1004.453125
 10
4935.341796875
 20
-994.794921875
 10
4935.341796875
 20
-985.13671875
 10
4935.341796875
 20
-975.478515625
 10
4935.341796875
 20
-965.8203125
 10
4935.341796875
 20
-956.162109375
 10
4935.341796875
 20
-946.50390625
 10
4935.341796875
 20
-936.845703125
 10
4935.341796875
 20
-927.1875
 10
4935.341796875
 20
-917.529296875
 10
4935.341796875
 20
-907.87109375
 10
4935.341796875
 20
-898.212890625
 10
4935.341796875
 20
-888.5546875
 10
4935.341796875
 20
-878.896484375
 10
4935.341796875
 20
-869.23828125
 10
4935.341796875
 20
-859.580078125
 10
4935.341796875
 20
-849.921875
 10
4935.341796875
 20
-840.263671875
 10
4935.341796875
 20
-830.60546875
 10
4935.341796875
 20
-820.947265625
 10
4935.341796875
 20
-811.2890625
 10
4935.341796875
 20
-801.630859375
 10
4935.341796875
 20
-791.97265625
 10
4935.341796875
 20
-782.314453125
 10
4935.341796875
 20
-772.65625
 10
4935.341796875
 20
-762.998046875
 10
4935.341796875
 20
-753.33984375
 10
4935.341796875
 20
-743.681640625
 10
4935.341796875
 20
-734.0234375
 10
4935.341796875
 20
-724.365234375
 10
4935.341796875
 20
-714.70703125
 10
4935.341796875
 20
-705.048828125
 10
4935.341796875
 20
-695.390625
 10
4935.341796875
 20
-685.732421875
 10
4935.341796875
 20
-676.07421875
 10
4935.341796875
 20
-666.416015625
 10
4935.341796875
 20
-656.7578125
 10
4935.341796875
 20
-647.099609375
 10
4935.341796875
 20
-637.44140625
 10
4935.341796875
 20
-627.783203125
 10
4935.341796875
 20
-618.125
 10
4935.341796875
 20
-608.466796875
 10
4935.341796875
 20
-598.80859375
 10
4935.341796875
 20
-589.150390625
 10
4935.341796875
 20
-579.4921875
 10
4935.341796875
 20
-569.833984375
 10
4935.341796875
 20
-560.17578125
 10
4935.341796875
 20
-550.517578125
 10
4935.341796875
 20
-540.859375
 10
4935.341796875
 20
-531.201171875
 10
4935.341796875
 20
-521.54296875
 10
4935.341796875
 20
-511.884765625
 10
4935.341796875
 20
-502.2265625
 10
4935.341796875
 20
-492.568359375
 10
4935.341796875
 20
-482.91015625
 10
4935.341796875
 20
-473.251953125
 10
4935.341796875
 20
-463.59375
 10
4935.341796875
 20
-453.935546875
 10
4935.341796875
 20
-444.27734375
 10
4935.341796875
 20
-434.619140625
 10
4935.341796875
 20
-424.9609375
 10
4935.341796875
 20
-415.302734375
 10
4935.341796875
 20
-405.64453125
 10
4935.341796875
 20
-395.986328125
 10
4935.341796875
 20
-386.328125
 10
4935.341796875
 20
-376.669921875
 10
4935.341796875
 20
-367.01171875
 10
4935.341796875
 20
-357.353515625
 10
4935.341796875
 20
-347.6953125
 10
4935.341796875
 20
-338.037109375
 10
4935.341796875
 20
-328.37890625
 10
4935.341796875
 20
-318.720703125
 10
4935.341796875
 20
-309.0625
 10
4935.341796875
 20
-299.404296875
 10
4935.341796875
 20
-289.74609375
 10
4935.341796875
 20
-280.087890625
 10
4935.341796875
 20
-270.4296875
 10
4935.341796875
 20
-260.771484375
 10
4935.341796875
 20
-251.11328125
 10
4935.341796875
 20
-241.455078125
 10
4935.341796875
 20
-231.796875
 10
4935.341796875
 20
-222.138671875
 10
4935.341796875
 20
-212.48046875
 10
4935.341796875
 20
-202.822265625
 10
4935.341796875
 20
-193.1640625
 10
4935.341796875
 20
-183.505859375
 10
4935.341796875
 20
-173.84765625
 10
4935.341796875
 20
-164.189453125
 10
4935.341796875
 20
-154.53125
 10
4935.341796875
 20
-144.873046875
 10
4935.341796875
 20
-135.21484375
 10
4935.341796875
 20
-125.556640625
 10
4935.341796875
 20
-115.8984375
 10
4935.341796875
 20
-106.240234375
 10
4935.341796875
 20
-96.58203125
 10
4935.341796875
 20
-86.923828125
 10
4935.341796875
 20
-77.265625
 10
4935.341796875
 20
-67.607421875
 10
4935.341796875
 20
-57.94921875
 10
4935.341796875
 20
-48.291015625
 10
4935.341796875
 20
-38.6328125
 10
4935.341796875
 20
-28.974609375
 10
4935.341796875
 20
-19.31640625
 10
4935.341796875
 20
-9.658203125
 10
4935.341796875
 20
-0.0
 10
4925.68359375
 20
-0.0
 10
4916.025390625
 20
-0.0
 10
4906.3671875
 20
-0.0
 10
4896.708984375
 20
-0.0
 10
4887.05078125
 20
-0.0
 10
4877.392578125
 20
-0.0
 10
4867.734375
 20
-0.0
 10
4858.076171875
 20
-0.0
 10
4848.41796875
 20
-0.0
 10
4838.759765625
 20
-0.0
 10
4829.1015625
 20
-0.0
 10
4819.443359375
 20
-0.0
 10
4809.78515625
 20
-0.0
 10
4800.126953125
 20
-0.0
 10
4790.46875
 20
-0.0
 10
4780.810546875
 20
-0.0
 10
4771.15234375
 20
-0.0
 10
4761.494140625
 20
-0.0
 10
4751.8359375
 20
-0.0
 10
4742.177734375
 20
-0.0
 10
4732.51953125
 20
-0.0
 10
4722.861328125
 20
-0.0
 10
4713.203125
 20
-0.0
 10
4703.544921875
 20
-0.0
 10
4693.88671875
 20
-0.0
 10
4684.228515625
 20
-0.0
 10
4674.5703125
 20
-0.0
 10
4664.912109375
 20
-0.0
 10
4655.25390625
 20
-0.0
 10
4645.595703125
 20
-0.0
 10
4635.9375
 20
-0.0
 10
4626.279296875
 20
-0.0
 10
4616.62109375
 20
-0.0
 10
4606.962890625
 20
-0.0
 10
4597.3046875
 20
-0.0
 10
4587.646484375
 20
-0.0
 10
4577.98828125
 20
-0.0
 10
4568.330078125
 20
-0.0
 10
4558.671875
 20
-0.0
 10
4549.013671875
 20
-0.0
 10
4539.35546875
 20
-0.0
 10
4529.697265625
 20
-0.0
 10
4520.0390625
 20
-0.0
 10
4510.380859375
 20
-0.0
 10
4500.72265625
 20
-0.0
 10
4491.064453125
 20
-0.0
 10
4481.40625
 20
-0.0
 10
4471.748046875
 20
-0.0
 10
4462.08984375
 20
-0.0
 10
4452.431640625
 20
-0.0
 10
4442.7734375
 20
-0.0
 10
4433.115234375
 20
-0.0
 10
4423.45703125
 20
-0.0
 10
4413.798828125
 20
-0.0
 10
4404.140625
 20
-0.0
 10
4394.482421875
 20
-0.0
 10
4384.82421875
 20
-0.0
 10
4375.166015625
 20
-0.0
 10
4365.5078125
 20
-0.0
 10
4355.849609375
 20
-0.0
 10
4346.19140625
 20
-0.0
 10
4336.533203125
 20
-0.0
 10
4326.875
 20
-0.0
 10
4317.216796875
 20
-0.0
 10
4307.55859375
 20
-0.0
 10
4297.900390625
 20
-0.0
 10
4288.2421875
 20
-0.0
 10
4278.583984375
 20
-0.0
 10
4268.92578125
 20
-0.0
 10
4259.267578125
 20
-0.0
 10
4249.609375
 20
-0.0
 10
4239.951171875
 20
-0.0
 10
4230.29296875
 20
-0.0
 10
4220.634765625
 20
-0.0
 10
4210.9765625
 20
-0.0
 10
4201.318359375
 20
-0.0
 10
4191.66015625
 20
-0.0
 10
4182.001953125
 20
-0.0
 10
4172.34375
 20
-0.0
 10
4162.685546875
 20
-0.0
 10
4153.02734375
 20
-0.0
 10
4143.369140625
 20
-0.0
 10
4133.7109375
 20
-0.0
 10
4124.052734375
 20
-0.0
 10
4114.39453125
 20
-0.0
 10
4104.736328125
 20
-0.0
 10
4095.078125
 20
-0.0
 10
4085.419921875
 20
-0.0
 10
4075.76171875
 20
-0.0
 10
4066.103515625
 20
-0.0
 10
4056.4453125
 20
-0.0
 10
4046.787109375
 20
-0.0
 10
4037.12890625
 20
-0.0
 10
4027.470703125
 20
-0.0
 10
4017.8125
 20
-0.0
 10
4008.154296875
 20
-0.0
 10
3998.49609375
 20
-0.0
 10
3988.837890625
 20
-0.0
 10
3979.1796875
 20
-0.0
 10
3969.521484375
 20
-0.0
 10
3959.86328125
 20
-0.0
 10
3950.205078125
 20
-0.0
 10
3940.546875
 20
-0.0
 10
3930.888671875
 20
-0.0
 10
3921.23046875
 20
-0.0
 10
3911.572265625
 20
-0.0
 10
3901.9140625
 20
-0.0
 10
3892.255859375
 20
-0.0
 10
3882.59765625
 20
-0.0
 10
3872.939453125
 20
-0.0
 10
3863.28125
 20
-0.0
 10
3853.623046875
 20
-0.0
 10
3843.96484375
 20
-0.0
 10
3834.306640625
 20
-0.0
 10
3824.6484375
 20
-0.0
 10
3814.990234375
 20
-0.0
 10
3805.33203125
 20
-0.0
 10
3795.673828125
 20
-0.0
 10
3786.015625
 20
-0.0
 10
3776.357421875
 20
-0.0
 10
3766.69921875
 20
-0.0
 10
3757.041015625
 20
-0.0
 10
3747.3828125
 20
-0.0
 10
3737.724609375
 20
-0.0
 10
3728.06640625
 20
-0.0
 10
3718.408203125
 20
-0.0
 10
3708.75
 20
-0.0
 10
3699.091796875
 20
-0.0
 10
3689.43359375
 20
-0.0
 10
3679.775390625
 20
-0.0
 10
3670.1171875
 20
-0.0
 10
3660.458984375
 20
-0.0
 10
3650.80078125
 20
-0.0
 10
3641.142578125
 20
-0.0
 10
3631.484375
 20
-0.0
 10
3621.826171875
 20
-0.0
 10
3612.16796875
 20
-0.0
 10
3602.509765625
 20
-0.0
 10
3592.8515625
 20
-0.0
 10
3583.193359375
 20
-0.0
 10
3573.53515625
 20
-0.0
 10
3563.876953125
 20
-0.0
 10
3554.21875
 20
-0.0
 10
3544.560546875
 20
-0.0
 10
3534.90234375
 20
-0.0
 10
3525.244140625
 20
-0.0
 10
3515.5859375
 20
-0.0
 10
3505.927734375
 20
-0.0
 10
3496.26953125
 20
-0.0
 10
3486.611328125
 20
-0.0
 10
3476.953125
 20
-0.0
 10
3467.294921875
 20
-0.0
 10
3457.63671875
 20
-0.0
 10
3447.978515625
 20
-0.0
 10
3438.3203125
 20
-0.0
 10
3428.662109375
 20
-0.0
 10
3419.00390625
 20
-0.0
 10
3409.345703125
 20
-0.0
 10
3399.6875
 20
-0.0
 10
3390.029296875
 20
-0.0
 10
3380.37109375
 20
-0.0
 10
3370.712890625
 20
-0.0
 10
3361.0546875
 20
-0.0
 10
3351.396484375
 20
-0.0
 10
3341.73828125
 20
-0.0
 10
3332.080078125
 20
-0.0
 10
3322.421875
 20
-0.0
 10
3312.763671875
 20
-0.0
 10
3303.10546875
 20
-0.0
 10
3293.447265625
 20
-0.0
 10
3283.7890625
 20
-0.0
 10
3274.130859375
 20
-0.0
 10
3264.47265625
 20
-0.0
 10
3254.814453125
 20
-0.0
 10
3245.15625
 20
-0.0
 10
3235.498046875
 20
-0.0
 10
3225.83984375
 20
-0.0
 10
3216.181640625
 20
-0.0
 10
3206.5234375
 20
-0.0
 10
3196.865234375
 20
-0.0
 10
3187.20703125
 20
-0.0
 10
3177.548828125
 20
-0.0
 10
3167.890625
 20
-0.0
 10
3158.232421875
 20
-0.0
 10
3148.57421875
 20
-0.0
 10
3138.916015625
 20
-0.0
 10
3129.2578125
 20
-0.0
 10
3119.599609375
 20
-0.0
 10
3109.94140625
 20
-0.0
 10
3100.283203125
 20
-0.0
 10
3090.625
 20
-0.0
 10
3080.966796875
 20
-0.0
 10
3071.30859375
 20
-0.0
 10
3061.650390625
 20
-0.0
 10
3051.9921875
 20
-0.0
 10
3042.333984375
 20
-0.0
 10
3032.67578125
 20
-0.0
 10
3023.017578125
 20
-0.0
 10
3013.359375
 20
-0.0
 10
3003.701171875
 20
-0.0
 10
2994.04296875
 20
-0.0
 10
2984.384765625
 20
-0.0
 10
2974.7265625
 20
-0.0
 10
2965.068359375
 20
-0.0
 10
2955.41015625
 20
-0.0
 10
2945.751953125
 20
-0.0
 10
2936.09375
 20
-0.0
 10
2926.435546875
 20
-0.0
 10
2916.77734375
 20
-0.0
 10
2907.119140625
 20
-0.0
 10
2897.4609375
 20
-0.0
 10
2887.802734375
 20
-0.0
 10
2878.14453125
 20
-0.0
 10
2868.486328125
 20
-0.0
 10
2858.828125
 20
-0.0
 10
2849.169921875
 20
-0.0
 10
2839.51171875
 20
-0.0
 10
2829.853515625
 20
-0.0
 10
2820.1953125
 20
-0.0
 10
2810.537109375
 20
-0.0
 10
2800.87890625
 20
-0.0
 10
2791.220703125
 20
-0.0
 10
2781.5625
 20
-0.0
 10
2771.904296875
 20
-0.0
 10
2762.24609375
 20
-0.0
 10
2752.587890625
 20
-0.0
 10
2742.9296875
 20
-0.0
 10
2733.271484375
 20
-0.0
 10
2723.61328125
 20
-0.0
 10
2713.955078125
 20
-0.0
 10
2704.296875
 20
-0.0
 10
2694.638671875
 20
-0.0
 10
2684.98046875
 20
-0.0
 10
2675.322265625
 20
-0.0
 10
2665.6640625
 20
-0.0
 10
2656.005859375
 20
-0.0
 10
2646.34765625
 20
-0.0
 10
2636.689453125
 20
-0.0
 10
2627.03125
 20
-0.0
 10
2617.373046875
 20
-0.0
 10
2607.71484375
 20
-0.0
 10
2598.056640625
 20
-0.0
 10
2588.3984375
 20
-0.0
 10
2578.740234375
 20
-0.0
 10
2569.08203125
 20
-0.0
 10
2559.423828125
 20
-0.0
 10
2549.765625
 20
-0.0
 10
2540.107421875
 20
-0.0
 10
2530.44921875
 20
-0.0
 10
2520.791015625
 20
-0.0
 10
2511.1328125
 20
-0.0
 10
2501.474609375
 20
-0.0
 10
2491.81640625
 20
-0.0
 10
2482.158203125
 20
-0.0
 10
2472.5
 20
-0.0
 10
2462.841796875
 20
-0.0
 10
2453.18359375
 20
-0.0
 10
2443.525390625
 20
-0.0
 10
2433.8671875
 20
-0.0
 10
2424.208984375
 20
-0.0
 10
2414.55078125
 20
-0.0
 10
2404.892578125
 20
-0.0
 10
2395.234375
 20
-0.0
 10
2385.576171875
 20
-0.0
 10
2375.91796875
 20
-0.0
 10
2366.259765625
 20
-0.0
 10
2356.6015625
 20
-0.0
 10
2346.943359375
 20
-0.0
 10
2337.28515625
 20
-0.0
 10
2327.626953125
 20
-0.0
 10
2317.96875
 20
-0.0
 10
2308.310546875
 20
-0.0
 10
2298.65234375
 20
-0.0
 10
2288.994140625
 20
-0.0
 10
2279.3359375
 20
-0.0
 10
2269.677734375
 20
-0.0
 10
2260.01953125
 20
-0.0
 10
2250.361328125
 20
-0.0
 10
2240.703125
 20
-0.0
 10
2231.044921875
 20
-0.0
 10
2221.38671875
 20
-0.0
 10
2211.728515625
 20
-0.0
 10
2202.0703125
 20
-0.0
 10
2192.412109375
 20
-0.0
 10
2182.75390625
 20
-0.0
 10
2173.095703125
 20
-0.0
 10
2163.4375
 20
-0.0
 10
2153.779296875
 20
-0.0
 10
2144.12109375
 20
-0.0
 10
2134.462890625
 20
-0.0
 10
2124.8046875
 20
-0.0
 10
2115.146484375
 20
-0.0
 10
2105.48828125
 20
-0.0
 10
2095.830078125
 20
-0.0
 10
2086.171875
 20
-0.0
 10
2076.513671875
 20
-0.0
 10
2066.85546875
 20
-0.0
 10
2057.197265625
 20
-0.0
 10
2047.5390625
 20
-0.0
 10
2037.880859375
 20
-0.0
 10
2028.22265625
 20
-0.0
 10
2018.564453125
 20
-0.0
 10
2008.90625
 20
-0.0
 10
1999.248046875
 20
-0.0
 10
1989.58984375
 20
-0.0
 10
1979.931640625
 20
-0.0
 10
1970.2734375
 20
-0.0
 10
1960.615234375
 20
-0.0
 10
1950.95703125
 20
-0.0
 10
1941.298828125
 20
-0.0
 10
1931.640625
 20
-0.0
 10
1921.982421875
 20
-0.0
 10
1912.32421875
 20
-0.0
 10
1902.666015625
 20
-0.0
 10
1893.0078125
 20
-0.0
 10
1883.349609375
 20
-0.0
 10
1873.69140625
 20
-0.0
 10
1864.033203125
 20
-0.0
 10
1854.375
 20
-0.0
 10
1844.716796875
 20
-0.0
 10
1835.05859375
 20
-0.0
 10
1825.400390625
 20
-0.0
 10
1815.7421875
 20
-0.0
 10
1806.083984375
 20
-0.0
 10
1796.42578125
 20
-0.0
 10
1786.767578125
 20
-0.0
 10
1777.109375
 20
-0.0
 10
1767.451171875
 20
-0.0
 10
1757.79296875
 20
-0.0
 10
1748.134765625
 20
-0.0
 10
1738.4765625
 20
-0.0
 10
1728.818359375
 20
-0.0
 10
1719.16015625
 20
-0.0
 10
1709.501953125
 20
-0.0
 10
1699.84375
 20
-0.0
 10
1690.185546875
 20
-0.0
 10
1680.52734375
 20
-0.0
 10
1670.869140625
 20
-0.0
 10
1661.2109375
 20
-0.0
 10
1651.552734375
 20
-0.0
 10
1641.89453125
 20
-0.0
 10
1632.236328125
 20
-0.0
 10
1622.578125
 20
-0.0
 10
1612.919921875
 20
-0.0
 10
1603.26171875
 20
-0.0
 10
1593.603515625
 20
-0.0
 10
1583.9453125
 20
-0.0
 10
1574.287109375
 20
-0.0
 10
1564.62890625
 20
-0.0
 10
1554.970703125
 20
-0.0
 10
1545.3125
 20
-0.0
 10
1535.654296875
 20
-0.0
 10
1525.99609375
 20
-0.0
 10
1516.337890625
 20
-0.0
 10
1506.6796875
 20
-0.0
 10
1497.021484375
 20
-0.0
 10
1487.36328125
 20
-0.0
 10
1477.705078125
 20
-0.0
 10
1468.046875
 20
-0.0
 10
1458.388671875
 20
-0.0
 10
1448.73046875
 20
-0.0
 10
1439.072265625
 20
-0.0
 10
1429.4140625
 20
-0.0
 10
1419.755859375
 20
-0.0
 10
1410.09765625
 20
-0.0
 10
1400.439453125
 20
-0.0
 10
1390.78125
 20
-0.0
 10
1381.123046875
 20
-0.0
 10
1371.46484375
 20
-0.0
 10
1361.806640625
 20
-0.0
 10
1352.1484375
 20
-0.0
 10
1342.490234375
 20
-0.0
 10
1332.83203125
 20
-0.0
 10
1323.173828125
 20
-0.0
 10
1313.515625
 20
-0.0
 10
1303.857421875
 20
-0.0
 10
1294.19921875
 20
-0.0
 10
1284.541015625
 20
-0.0
 10
1274.8828125
 20
-0.0
 10
1265.224609375
 20
-0.0
 10
1255.56640625
 20
-0.0
 10
1245.908203125
 20
-0.0
 10
1236.25
 20
-0.0
 10
1226.591796875
 20
-0.0
 10
1216.93359375
 20
-0.0
 10
1207.275390625
 20
-0.0
 10
1197.6171875
 20
-0.0
 10
1187.958984375
 20
-0.0
 10
1178.30078125
 20
-0.0
 10
1168.642578125
 20
-0.0
 10
1158.984375
 20
-0.0
 10
1149.326171875
 20
-0.0
 10
1139.66796875
 20
-0.0
 10
1130.009765625
 20
-0.0
 10
1120.3515625
 20
-0.0
 10
1110.693359375
 20
-0.0
 10
1101.03515625
 20
-0.0
 10
1091.376953125
 20
-0.0
 10
1081.71875
 20
-0.0
 10
1072.060546875
 20
-0.0
 10
1062.40234375
 20
-0.0
 10
1052.744140625
 20
-0.0
 10
1043.0859375
 20
-0.0
 10
1033.427734375
 20
-0.0
 10
1023.76953125
 20
-0.0
 10
1014.111328125
 20
-0.0
 10
1004.453125
 20
-0.0
 10
994.794921875
 20
-0.0
 10
985.13671875
 20
-0.0
 10
975.478515625
 20
-0.0
 10
965.8203125
 20
-0.0
 10
956.162109375
 20
-0.0
 10
946.50390625
 20
-0.0
 10
936.845703125
 20
-0.0
 10
927.1875
 20
-0.0
 10
917.529296875
 20
-0.0
 10
907.87109375
 20
-0.0
 10
898.212890625
 20
-0.0
 10
888.5546875
 20
-0.0
 10
878.896484375
 20
-0.0
 10
869.23828125
 20
-0.0
 10
859.580078125
 20
-0.0
 10
849.921875
 20
-0.0
 10
840.263671875
 20
-0.0
 10
830.60546875
 20
-0.0
 10
820.947265625
 20
-0.0
 10
811.2890625
 20
-0.0
 10
801.630859375
 20
-0.0
 10
791.97265625
 20
-0.0
 10
782.314453125
 20
-0.0
 10
772.65625
 20
-0.0
 10
762.998046875
 20
-0.0
 10
753.33984375
 20
-0.0
 10
743.681640625
 20
-0.0
 10
734.0234375
 20
-0.0
 10
724.365234375
 20
-0.0
 10
714.70703125
 20
-0.0
 10
705.048828125
 20
-0.0
 10
695.390625
 20
-0.0
 10
685.732421875
 20
-0.0
 10
676.07421875
 20
-0.0
 10
666.416015625
 20
-0.0
 10
656.7578125
 20
-0.0
 10
647.099609375
 20
-0.0
 10
637.44140625
 20
-0.0
 10
627.783203125
 20
-0.0
 10
618.125
 20
-0.0
 10
608.466796875
 20
-0.0
 10
598.80859375
 20
-0.0
 10
589.150390625
 20
-0.0
 10
579.4921875
 20
-0.0
 10
569.833984375
 20
-0.0
 10
560.17578125
 20
-0.0
 10
550.517578125
 20
-0.0
 10
540.859375
 20
-0.0
 10
531.201171875
 20
-0.0
 10
521.54296875
 20
-0.0
 10
511.884765625
 20
-0.0
 10
502.2265625
 20
-0.0
 10
492.568359375
 20
-0.0
 10
482.91015625
 20
-0.0
 10
473.251953125
 20
-0.0
 10
463.59375
 20
-0.0
 10
453.935546875
 20
-0.0
 10
444.27734375
 20
-0.0
 10
434.619140625
 20
-0.0
 10
424.9609375
 20
-0.0
 10
415.302734375
 20
-0.0
 10
405.64453125
 20
-0.0
 10
395.986328125
 20
-0.0
 10
386.328125
 20
-0.0
 10
376.669921875
 20
-0.0
 10
367.01171875
 20
-0.0
 10
357.353515625
 20
-0.0
 10
347.6953125
 20
-0.0
 10
338.037109375
 20
-0.0
 10
328.37890625
 20
-0.0
 10
318.720703125
 20
-0.0
 10
309.0625
 20
-0.0
 10
299.404296875
 20
-0.0
 10
289.74609375
 20
-0.0
 10
280.087890625
 20
-0.0
 10
270.4296875
 20
-0.0
 10
260.771484375
 20
-0.0
 10
251.11328125
 20
-0.0
 10
241.455078125
 20
-0.0
 10
231.796875
 20
-0.0
 10
222.138671875
 20
-0.0
 10
212.48046875
 20
-0.0
 10
202.822265625
 20
-0.0
 10
193.1640625
 20
-0.0
 10
183.505859375
 20
-0.0
 10
173.84765625
 20
-0.0
 10
164.189453125
 20
-0.0
 10
154.53125
 20
-0.0
 10
144.873046875
 20
-0.0
 10
135.21484375
 20
-0.0
 10
125.556640625
 20
-0.0
 10
115.8984375
 20
-0.0
 10
106.240234375
 20
-0.0
 10
96.58203125
 20
-0.0
 10
86.923828125
 20
-0.0
 10
77.265625
 20
-0.0
 10
67.607421875
 20
-0.0
 10
57.94921875
 20
-0.0
 10
48.291015625
 20
-0.0
 10
38.6328125
 20
-0.0
 10
28.974609375
 20
-0.0
 10
19.31640625
 20
-0.0
 10
9.658203125
 20
-0.0
  0
LWPOLYLINE
  5
40
330
17
100
AcDbEntity
  8
substrate
100
AcDbPolyline
 90
4
 70
1
 43
0.5
 10
4896.708984375
 20
-4790.46875
 10
4906.3671875
 20
-4780.810546875
 10
4916.025390625
 20
-4790.46875
 10
4906.3671875
 20
-4800.126953125
  0
LWPOLYLINE
  5
41
330
17
100
AcDbEntity
  8
substrate
100
AcDbPolyline
 90
7
 70
1
 43
0.5
 10
627.783203125
 20
-1864.033203125
 10
637.44140625
 20
-1854.375
 10
647.099609375
 20
-1864.033203125
 10
656.7578125
 20
-1873.69140625
 10
647.099609375
 20
-1883.349609375
 10
637.44140625
 20
-1883.349609375
 10
627.783203125
 20
-1873.69140625
  0
LWPOLYLINE
  5
42
330
17
100
AcDbEntity
  8
substrate
100
AcDbPolyline
 90
8
 70
1
 43
0.5
 10
3699.091796875
 20
-1313.515625
 10
3708.75
 20
-1303.857421875
 10
3718.408203125
 20
-1313.515625
 10
3718.408203125
 20
-1323.173828125
 10
3718.408203125
 20
-1332.83203125
 10
3708.75
 20
-1342.490234375
 10
3699.091796875
 20
-1332.83203125
 10
3699.091796875
 20
-1323.173828125
  0
LWPOLYLINE
  5
43
330
17
100
AcDbEntity
  8
substrate
100
AcDbPolyline
 90
1493
 70
1
 43
0.5
 10
3061.650390625
 20
-666.416015625
 10
3071.30859375
 20
-656.7578125
 10
3080.966796875
 20
-656.7578125
 10
3090.625
 20
-656.7578125
 10
3100.283203125
 20
-666.416015625
 10
3100.283203125
 20
-676.07421875
 10
3100.283203125
 20
-685.732421875
 10
3100.283203125
 20
-695.390625
 10
3100.283203125
 20
-705.048828125
 10
3100.283203125
 20
-714.70703125
 10
3100.283203125
 20
-724.365234375
 10
3100.283203125
 20
-734.0234375
 10
3100.283203125
 20
-743.681640625
 10
3100.283203125
 20
-753.33984375
 10
3100.283203125
 20
-762.998046875
 10
3100.283203125
 20
-772.65625
 10
3100.283203125
 20
-782.314453125
 10
3100.283203125
 20
-791.97265625
 10
3100.283203125
 20
-801.630859375
 10
3100.283203125
 20
-811.2890625
 10
3100.283203125
 20
-820.947265625
 10
3100.283203125
 20
-830.60546875
 10
3109.94140625
 20
-840.263671875
 10
3109.94140625
 20
-849.921875
 10
3109.94140625
 20
-859.580078125
 10
3100.283203125
 20
-869.23828125
 10
3100.283203125
 20
-878.896484375
 10
3100.283203125
 20
-888.5546875
 10
3100.283203125
 20
-898.212890625
 10
3100.283203125
 20
-907.87109375
 10
3100.283203125
 20
-917.529296875
 10
3100.283203125
 20
-927.1875
 10
3100.283203125
 20
-936.845703125
 10
3100.283203125
 20
-946.50390625
 10
3100.283203125
 20
-956.162109375
 10
3100.283203125
 20
-965.8203125
 10
3090.625
 20
-975.478515625
 10
3100.283203125
 20
-985.13671875
 10
3100.283203125
 20
-994.794921875
 10
3100.283203125
 20
-1004.453125
 10
3100.283203125
 20
-1014.111328125
 10
3100.283203125
 20
-1023.76953125
 10
3100.283203125
 20
-1033.427734375
 10
3100.283203125
 20
-1043.0859375
 10
3090.625
 20
-1052.744140625
 10
3090.625
 20
-1062.40234375
 10
3090.625
 20
-1072.060546875
 10
3100.283203125
 20
-1081.71875
 10
3100.283203125
 20
-1091.376953125
 10
3100.283203125
 20
-1101.03515625
 10
3100.283203125
 20
-1110.693359375
 10
3100.283203125
 20
-1120.3515625
 10
3100.283203125
 20
-1130.009765625
 10
3100.283203125
 20
-1139.66796875
 10
3100.283203125
 20
-1149.326171875
 10
3100.283203125
 20
-1158.984375
 10
3100.283203125
 20
-1168.642578125
 10
3100.283203125
 20
-1178.30078125
 10
3090.625
 20
-1187.958984375
 10
3100.283203125
 20
-1197.6171875
 10
3090.625
 20
-1207.275390625
 10
3090.625
 20
-1216.93359375
 10
3090.625
 20
-1226.591796875
 10
3090.625
 20
-1236.25
 10
3090.625
 20
-1245.908203125
 10
3090.625
 20
-1255.56640625
 10
3090.625
 20
-1265.224609375
 10
3090.625
 20
-1274.8828125
 10
3090.625
 20
-1284.541015625
 10
3090.625
 20
-1294.19921875
 10
3100.283203125
 20
-1303.857421875
 10
3100.283203125
 20
-1313.515625
 10
3100.283203125
 20
-1323.173828125
 10
3100.283203125
 20
-1332.83203125
 10
3100.283203125
 20
-1342.490234375
 10
3100.283203125
 20
-1352.1484375
 10
3090.625
 20
-1361.806640625
 10
3090.625
 20
-1371.46484375
 10
3100.283203125
 20
-1381.123046875
 10
3100.283203125
 20
-1390.78125
 10
3100.283203125
 20
-1400.439453125
 10
3100.283203125
 20
-1410.09765625
 10
3100.283203125
 20
-1419.755859375
 10
3100.283203125
 20
-1429.4140625
 10
3100.283203125
 20
-1439.072265625
 10
3100.283203125
 20
-1448.73046875
 10
3100.283203125
 20
-1458.388671875
 10
3100.283203125
 20
-1468.046875
 10
3109.94140625
 20
-1477.705078125
 10
3100.283203125
 20
-1487.36328125
 10
3100.283203125
 20
-1497.021484375
 10
3100.283203125
 20
-1506.6796875
 10
3100.283203125
 20
-1516.337890625
 10
3100.283203125
 20
-1525.99609375
 10
3100.283203125
 20
-1535.654296875
 10
3100.283203125
 20
-1545.3125
 10
3100.283203125
 20
-1554.970703125
 10
3100.283203125
 20
-1564.62890625
 10
3100.283203125
 20
-1574.287109375
 10
3100.283203125
 20
-1583.9453125
 10
3100.283203125
 20
-1593.603515625
 10
3100.283203125
 20
-1603.26171875
 10
3100.283203125
 20
-1612.919921875
 10
3109.94140625
 20
-1622.578125
 10
3109.94140625
 20
-1632.236328125
 10
3100.283203125
 20
-1641.89453125
 10
3100.283203125
 20
-1651.552734375
 10
3100.283203125
 20
-1661.2109375
 10
3100.283203125
 20
-1670.869140625
 10
3100.283203125
 20
-1680.52734375
 10
3100.283203125
 20
-1690.185546875
 10
3100.283203125
 20
-1699.84375
 10
3100.283203125
 20
-1709.501953125
 10
3100.283203125
 20
-1719.16015625
 10
3100.283203125
 20
-1728.818359375
 10
3100.283203125
 20
-1738.4765625
 10
3109.94140625
 20
-1748.134765625
 10
3109.94140625
 20
-1757.79296875
 10
3109.94140625
 20
-1767.451171875
 10
3109.94140625
 20
-1777.109375
 10
3109.94140625
 20
-1786.767578125
 10
3109.94140625
 20
-1796.42578125
 10
3109.94140625
 20
-1806.083984375
 10
3119.599609375
 20
-1815.7421875
 10
3129.2578125
 20
-1825.400390625
 10
3138.916015625
 20
-1825.400390625
 10
3148.57421875
 20
-1825.400390625
 10
3158.232421875
 20
-1825.400390625
 10
3167.890625
 20
-1835.05859375
 10
3177.548828125
 20
-1835.05859375
 10
3187.20703125
 20
-1825.400390625
 10
3196.865234375
 20
-1825.400390625
 10
3206.5234375
 20
-1815.7421875
 10
3216.181640625
 20
-1815.7421875
 10
3225.83984375
 20
-1815.7421875
 10
3235.498046875
 20
-1815.7421875
 10
3245.15625
 20
-1815.7421875
 10
3254.814453125
 20
-1815.7421875
 10
3264.47265625
 20
-1815.7421875
 10
3274.130859375
 20
-1815.7421875
 10
3283.7890625
 20
-1815.7421875
 10
3293.447265625
 20
-1815.7421875
 10
3303.10546875
 20
-1815.7421875
 10
3312.763671875
 20
-1815.7421875
 10
3322.421875
 20
-1815.7421875
 10
3332.080078125
 20
-1815.7421875
 10
3341.73828125
 20
-1815.7421875
 10
3351.396484375
 20
-1815.7421875
 10
3361.0546875
 20
-1815.7421875
 10
3370.712890625
 20
-1815.7421875
 10
3380.37109375
 20
-1815.7421875
 10
3390.029296875
 20
-1815.7421875
 10
3399.6875
 20
-1815.7421875
 10
3409.345703125
 20
-1815.7421875
 10
3419.00390625
 20
-1815.7421875
 10
3428.662109375
 20
-1815.7421875
 10
3438.3203125
 20
-1815.7421875
 10
3447.978515625
 20
-1815.7421875
 10
3457.63671875
 20
-1815.7421875
 10
3467.294921875
 20
-1815.7421875
 10
3476.953125
 20
-1815.7421875
 10
3486.611328125
 20
-1815.7421875
 10
3496.26953125
 20
-1815.7421875
 10
3505.927734375
 20
-1815.7421875
 10
3515.5859375
 20
-1815.7421875
 10
3525.244140625
 20
-1815.7421875
 10
3534.90234375
 20
-1815.7421875
 10
3544.560546875
 20
-1815.7421875
 10
3554.21875
 20
-1815.7421875
 10
3563.876953125
 20
-1815.7421875
 10
3573.53515625
 20
-1815.7421875
 10
3583.193359375
 20
-1815.7421875
 10
3592.8515625
 20
-1815.7421875
 10
3602.509765625
 20
-1815.7421875
 10
3612.16796875
 20
-1815.7421875
 10
3621.826171875
 20
-1815.7421875
 10
3631.484375
 20
-1815.7421875
 10
3641.142578125
 20
-1815.7421875
 10
3650.80078125
 20
-1815.7421875
 10
3660.458984375
 20
-1815.7421875
 10
3670.1171875
 20
-1815.7421875
 10
3679.775390625
 20
-1815.7421875
 10
3689.43359375
 20
-1815.7421875
 10
3699.091796875
 20
-1815.7421875
 10
3708.75
 20
-1815.7421875
 10
3718.408203125
 20
-1815.7421875
 10
3728.06640625
 20
-1815.7421875
 10
3737.724609375
 20
-1815.7421875
 10
3747.3828125
 20
-1815.7421875
 10
3757.041015625
 20
-1815.7421875
 10
3766.69921875
 20
-1815.7421875
 10
3776.357421875
 20
-1815.7421875
 10
3786.015625
 20
-1815.7421875
 10
3795.673828125
 20
-1815.7421875
 10
3805.33203125
 20
-1815.7421875
 10
3814.990234375
 20
-1815.7421875
 10
3824.6484375
 20
-1815.7421875
 10
3834.306640625
 20
-1815.7421875
 10
3843.96484375
 20
-1815.7421875
 10
3853.623046875
 20
-1815.7421875
 10
3863.28125
 20
-1815.7421875
 10
3872.939453125
 20
-1815.7421875
 10
3882.59765625
 20
-1815.7421875
 10
3892.255859375
 20
-1815.7421875
 10
3901.9140625
 20
-1815.7421875
 10
3911.572265625
 20
-1815.7421875
 10
3921.23046875
 20
-1815.7421875
 10
3930.888671875
 20
-1815.7421875
 10
3940.546875
 20
-1815.7421875
 10
3950.205078125
 20
-1815.7421875
 10
3959.86328125
 20
-1815.7421875
 10
3969.521484375
 20
-1815.7421875
 10
3979.1796875
 20
-1815.7421875
 10
3988.837890625
 20
-1815.7421875
 10
3998.49609375
 20
-1815.7421875
 10
4008.154296875
 20
-1815.7421875
 10
4017.8125
 20
-1815.7421875
 10
4027.470703125
 20
-1815.7421875
 10
4037.12890625
 20
-1815.7421875
 10
4046.787109375
 20
-1815.7421875
 10
4056.4453125
 20
-1815.7421875
 10
4066.103515625
 20
-1815.7421875
 10
4075.76171875
 20
-1815.7421875
 10
4085.419921875
 20
-1815.7421875
 10
4095.078125
 20
-1815.7421875
 10
4104.736328125
 20
-1815.7421875
 10
4114.39453125
 20
-1815.7421875
 10
4124.052734375
 20
-1815.7421875
 10
4133.7109375
 20
-1815.7421875
 10
4143.369140625
 20
-1815.7421875
 10
4153.02734375
 20
-1815.7421875
 10
4162.685546875
 20
-1815.7421875
 10
4172.34375
 20
-1815.7421875
 10
4182.001953125
 20
-1825.400390625
 10
4191.66015625
 20
-1815.7421875
 10
4201.318359375
 20
-1815.7421875
 10
4210.9765625
 20
-1815.7421875
 10
4220.634765625
 20
-1815.7421875
 10
4230.29296875
 20
-1815.7421875
 10
4239.951171875
 20
-1815.7421875
 10
4249.609375
 20
-1815.7421875
 10
4259.267578125
 20
-1815.7421875
 10
4268.92578125
 20
-1815.7421875
 10
4278.583984375
 20
-1815.7421875
 10
4288.2421875
 20
-1815.7421875
 10
4297.900390625
 20
-1815.7421875
 10
4307.55859375
 20
-1825.400390625
 10
4317.216796875
 20
-1835.05859375
 10
4317.216796875
 20
-1844.716796875
 10
4326.875
 20
-1854.375
 10
4326.875
 20
-1864.033203125
 10
4326.875
 20
-1873.69140625
 10
4326.875
 20
-1883.349609375
 10
4326.875
 20
-1893.0078125
 10
4326.875
 20
-1902.666015625
 10
4326.875
 20
-1912.32421875
 10
4326.875
 20
-1921.982421875
 10
4326.875
 20
-1931.640625
 10
4326.875
 20
-1941.298828125
 10
4317.216796875
 20
-1950.95703125
 10
4317.216796875
 20
-1960.615234375
 10
4317.216796875
 20
-1970.2734375
 10
4317.216796875
 20
-1979.931640625
 10
4326.875
 20
-1989.58984375
 10
4326.875
 20
-1999.248046875
 10
4326.875
 20
-2008.90625
 10
4326.875
 20
-2018.564453125
 10
4326.875
 20
-2028.22265625
 10
4326.875
 20
-2037.880859375
 10
4326.875
 20
-2047.5390625
 10
4326.875
 20
-2057.197265625
 10
4336.533203125
 20
-2066.85546875
 10
4326.875
 20
-2076.513671875
 10
4336.533203125
 20
-2086.171875
 10
4326.875
 20
-2095.830078125
 10
4326.875
 20
-2105.48828125
 10
4326.875
 20
-2115.146484375
 10
4326.875
 20
-2124.8046875
 10
4326.875
 20
-2134.462890625
 10
4326.875
 20
-2144.12109375
 10
4326.875
 20
-2153.779296875
 10
4326.875
 20
-2163.4375
 10
4326.875
 20
-2173.095703125
 10
4326.875
 20
-2182.75390625
 10
4326.875
 20
-2192.412109375
 10
4326.875
 20
-2202.0703125
 10
4326.875
 20
-2211.728515625
 10
4326.875
 20
-2221.38671875
 10
4326.875
 20
-2231.044921875
 10
4326.875
 20
-2240.703125
 10
4326.875
 20
-2250.361328125
 10
4326.875
 20
-2260.01953125
 10
4326.875
 20
-2269.677734375
 10
4326.875
 20
-2279.3359375
 10
4326.875
 20
-2288.994140625
 10
4326.875
 20
-2298.65234375
 10
4326.875
 20
-2308.310546875
 10
4326.875
 20
-2317.96875
 10
4326.875
 20
-2327.626953125
 10
4336.533203125
 20
-2337.28515625
 10
4336.533203125
 20
-2346.943359375
 10
4336.533203125
 20
-2356.6015625
 10
4336.533203125
 20
-2366.259765625
 10
4336.533203125
 20
-2375.91796875
 10
4336.533203125
 20
-2385.576171875
 10
4336.533203125
 20
-2395.234375
 10
4336.533203125
 20
-2404.892578125
 10
4326.875
 20
-2414.55078125
 10
4326.875
 20
-2424.208984375
 10
4326.875
 20
-2433.8671875
 10
4326.875
 20
-2443.525390625
 10
4326.875
 20
-2453.18359375
 10
4326.875
 20
-2462.841796875
 10
4326.875
 20
-2472.5
 10
4326.875
 20
-2482.158203125
 10
4326.875
 20
-2491.81640625
 10
4326.875
 20
-2501.474609375
 10
4336.533203125
 20
-2511.1328125
 10
4336.533203125
 20
-2520.791015625
 10
4336.533203125
 20
-2530.44921875
 10
4336.533203125
 20
-2540.107421875
 10
4336.533203125
 20
-2549.765625
 10
4336.533203125
 20
-2559.423828125
 10
4326.875
 20
-2569.08203125
 10
4326.875
 20
-2578.740234375
 10
4326.875
 20
-2588.3984375
 10
4326.875
 20
-2598.056640625
 10
4326.875
 20
-2607.71484375
 10
4326.875
 20
-2617.373046875
 10
4336.533203125
 20
-2627.03125
 10
4336.533203125
 20
-2636.689453125
 10
4336.533203125
 20
-2646.34765625
 10
4336.533203125
 20
-2656.005859375
 10
4336.533203125
 20
-2665.6640625
 10
4336.533203125
 20
-2675.322265625
 10
4336.533203125
 20
-2684.98046875
 10
4336.533203125
 20
-2694.638671875
 10
4336.533203125
 20
-2704.296875
 10
4336.533203125
 20
-2713.955078125
 10
4336.533203125
 20
-2723.61328125
 10
4326.875
 20
-2733.271484375
 10
4336.533203125
 20
-2742.9296875
 10
4326.875
 20
-2752.587890625
 10
4326.875
 20
-2762.24609375
 10
4326.875
 20
-2771.904296875
 10
4336.533203125
 20
-2781.5625
 10
4336.533203125
 20
-2791.220703125
 10
4336.533203125
 20
-2800.87890625
 10
4336.533203125
 20
-2810.537109375
 10
4336.533203125
 20
-2820.1953125
 10
4336.533203125
 20
-2829.853515625
 10
4336.533203125
 20
-2839.51171875
 10
4336.533203125
 20
-2849.169921875
 10
4336.533203125
 20
-2858.828125
 10
4336.533203125
 20
-2868.486328125
 10
4336.533203125
 20
-2878.14453125
 10
4336.533203125
 20
-2887.802734375
 10
4336.533203125
 20
-2897.4609375
 10
4336.533203125
 20
-2907.119140625
 10
4336.533203125
 20
-2916.77734375
 10
4336.533203125
 20
-2926.435546875
 10
4336.533203125
 20
-2936.09375
 10
4336.533203125
 20
-2945.751953125
 10
4336.533203125
 20
-2955.41015625
 10
4326.875
 20
-2965.068359375
 10
4336.533203125
 20
-2974.7265625
 10
4336.533203125
 20
-2984.384765625
 10
4336.533203125
 20
-2994.04296875
 10
4326.875
 20
-3003.701171875
 10
4336.533203125
 20
-3013.359375
 10
4326.875
 20
-3023.017578125
 10
4326.875
 20
-3032.67578125
 10
4326.875
 20
-3042.333984375
 10
4326.875
 20
-3051.9921875
 10
4326.875
 20
-3061.650390625
 10
4317.216796875
 20
-3071.30859375
 10
4317.216796875
 20
-3080.966796875
 10
4317.216796875
 20
-3090.625
 10
4307.55859375
 20
-3100.283203125
 10
4307.55859375
 20
-3109.94140625
 10
4297.900390625
 20
-3119.599609375
 10
4288.2421875
 20
-3119.599609375
 10
4278.583984375
 20
-3119.599609375
 10
4268.92578125
 20
-3119.599609375
 10
4259.267578125
 20
-3119.599609375
 10
4249.609375
 20
-3119.599609375
 10
4239.951171875
 20
-3119.599609375
 10
4230.29296875
 20
-3119.599609375
 10
4220.634765625
 20
-3119.599609375
 10
4210.9765625
 20
-3109.94140625
 10
4201.318359375
 20
-3109.94140625
 10
4191.66015625
 20
-3109.94140625
 10
4182.001953125
 20
-3109.94140625
 10
4172.34375
 20
-3109.94140625
 10
4162.685546875
 20
-3119.599609375
 10
4153.02734375
 20
-3119.599609375
 10
4143.369140625
 20
-3119.599609375
 10
4133.7109375
 20
-3119.599609375
 10
4124.052734375
 20
-3109.94140625
 10
4114.39453125
 20
-3109.94140625
 10
4104.736328125
 20
-3109.94140625
 10
4095.078125
 20
-3109.94140625
 10
4085.419921875
 20
-3109.94140625
 10
4075.76171875
 20
-3109.94140625
 10
4066.103515625
 20
-3109.94140625
 10
4056.4453125
 20
-3109.94140625
 10
4046.787109375
 20
-3109.94140625
 10
4037.12890625
 20
-3100.283203125
 10
4027.470703125
 20
-3100.283203125
 10
4017.8125
 20
-3100.283203125
 10
4008.154296875
 20
-3100.283203125
 10
3998.49609375
 20
-3100.283203125
 10
3988.837890625
 20
-3100.283203125
 10
3979.1796875
 20
-3109.94140625
 10
3969.521484375
 20
-3100.283203125
 10
3959.86328125
 20
-3100.283203125
 10
3950.205078125
 20
-3100.283203125
 10
3940.546875
 20
-3100.283203125
 10
3930.888671875
 20
-3100.283203125
 10
3921.23046875
 20
-3100.283203125
 10
3911.572265625
 20
-3100.283203125
 10
3901.9140625
 20
-3100.283203125
 10
3892.255859375
 20
-3100.283203125
 10
3882.59765625
 20
-3100.283203125
 10
3872.939453125
 20
-3100.283203125
 10
3863.28125
 20
-3100.283203125
 10
3853.623046875
 20
-3100.283203125
 10
3843.96484375
 20
-3100.283203125
 10
3834.306640625
 20
-3100.283203125
 10
3824.6484375
 20
-3109.94140625
 10
3814.990234375
 20
-3100.283203125
 10
3805.33203125
 20
-3100.283203125
 10
3795.673828125
 20
-3090.625
 10
3786.015625
 20
-3090.625
 10
3776.357421875
 20
-3090.625
 10
3766.69921875
 20
-3090.625
 10
3757.041015625
 20
-3080.966796875
 10
3747.3828125
 20
-3080.966796875
 10
3737.724609375
 20
-3080.966796875
 10
3728.06640625
 20
-3080.966796875
 10
3718.408203125
 20
-3080.966796875
 10
3708.75
 20
-3080.966796875
 10
3699.091796875
 20
-3080.966796875
 10
3689.43359375
 20
-3080.966796875
 10
3679.775390625
 20
-3080.966796875
 10
3670.1171875
 20
-3090.625
 10
3660.458984375
 20
-3080.966796875
 10
3650.80078125
 20
-3080.966796875
 10
3641.142578125
 20
-3080.966796875
 10
3631.484375
 20
-3080.966796875
 10
3621.826171875
 20
-3080.966796875
 10
3612.16796875
 20
-3090.625
 10
3602.509765625
 20
-3080.966796875
 10
3592.8515625
 20
-3080.966796875
 10
3583.193359375
 20
-3080.966796875
 10
3573.53515625
 20
-3080.966796875
 10
3563.876953125
 20
-3080.966796875
 10
3554.21875
 20
-3080.966796875
 10
3544.560546875
 20
-3071.30859375
 10
3534.90234375
 20
-3080.966796875
 10
3525.244140625
 20
-3071.30859375
 10
3515.5859375
 20
-3071.30859375
 10
3505.927734375
 20
-3071.30859375
 10
3496.26953125
 20
-3080.966796875
 10
3486.611328125
 20
-3071.30859375
 10
3476.953125
 20
-3071.30859375
 10
3467.294921875
 20
-3080.966796875
 10
3457.63671875
 20
-3080.966796875
 10
3447.978515625
 20
-3071.30859375
 10
3438.3203125
 20
-3071.30859375
 10
3428.662109375
 20
-3071.30859375
 10
3419.00390625
 20
-3071.30859375
 10
3409.345703125
 20
-3071.30859375
 10
3399.6875
 20
-3071.30859375
 10
3390.029296875
 20
-3071.30859375
 10
3380.37109375
 20
-3080.966796875
 10
3370.712890625
 20
-3080.966796875
 10
3361.0546875
 20
-3080.966796875
 10
3351.396484375
 20
-3080.966796875
 10
3341.73828125
 20
-3080.966796875
 10
3332.080078125
 20
-3080.966796875
 10
3322.421875
 20
-3080.966796875
 10
3312.763671875
 20
-3080.966796875
 10
3303.10546875
 20
-3080.966796875
 10
3293.447265625
 20
-3080.966796875
 10
3283.7890625
 20
-3080.966796875
 10
3274.130859375
 20
-3080.966796875
 10
3264.47265625
 20
-3080.966796875
 10
3254.814453125
 20
-3080.966796875
 10
3245.15625
 20
-3080.966796875
 10
3235.498046875
 20
-3080.966796875
 10
3225.83984375
 20
-3080.966796875
 10
3216.181640625
 20
-3080.966796875
 10
3206.5234375
 20
-3090.625
 10
3196.865234375
 20
-3090.625
 10
3187.20703125
 20
-3080.966796875
 10
3177.548828125
 20
-3080.966796875
 10
3167.890625
 20
-3090.625
 10
3158.232421875
 20
-3080.966796875
 10
3148.57421875
 20
-3080.966796875
 10
3138.916015625
 20
-3080.966796875
 10
3129.2578125
 20
-3080.966796875
 10
3119.599609375
 20
-3080.966796875
 10
3109.94140625
 20
-3080.966796875
 10
3100.283203125
 20
-3080.966796875
 10
3100.283203125
 20
-3090.625
 10
3090.625
 20
-3100.283203125
 10
3090.625
 20
-3109.94140625
 10
3090.625
 20
-3119.599609375
 10
3080.966796875
 20
-3129.2578125
 10
3090.625
 20
-3138.916015625
 10
3090.625
 20
-3148.57421875
 10
3090.625
 20
-3158.232421875
 10
3100.283203125
 20
-3167.890625
 10
3100.283203125
 20
-3177.548828125
 10
3100.283203125
 20
-3187.20703125
 10
3100.283203125
 20
-3196.865234375
 10
3100.283203125
 20
-3206.5234375
 10
3100.283203125
 20
-3216.181640625
 10
3090.625
 20
-3225.83984375
 10
3090.625
 20
-3235.498046875
 10
3090.625
 20
-3245.15625
 10
3090.625
 20
-3254.814453125
 10
3090.625
 20
-3264.47265625
 10
3080.966796875
 20
-3274.130859375
 10
3080.966796875
 20
-3283.7890625
 10
3080.966796875
 20
-3293.447265625
 10
3080.966796875
 20
-3303.10546875
 10
3080.966796875
 20
-3312.763671875
 10
3080.966796875
 20
-3322.421875
 10
3090.625
 20
-3332.080078125
 10
3080.966796875
 20
-3341.73828125
 10
3090.625
 20
-3351.396484375
 10
3090.625
 20
-3361.0546875
 10
3080.966796875
 20
-3370.712890625
 10
3080.966796875
 20
-3380.37109375
 10
3080.966796875
 20
-3390.029296875
 10
3090.625
 20
-3399.6875
 10
3080.966796875
 20
-3409.345703125
 10
3080.966796875
 20
-3419.00390625
 10
3080.966796875
 20
-3428.662109375
 10
3080.966796875
 20
-3438.3203125
 10
3080.966796875
 20
-3447.978515625
 10
3080.966796875
 20
-3457.63671875
 10
3080.966796875
 20
-3467.294921875
 10
3080.966796875
 20
-3476.953125
 10
3080.966796875
 20
-3486.611328125
 10
3080.966796875
 20
-3496.26953125
 10
3080.966796875
 20
-3505.927734375
 10
3080.966796875
 20
-3515.5859375
 10
3071.30859375
 20
-3525.244140625
 10
3080.966796875
 20
-3534.90234375
 10
3080.966796875
 20
-3544.560546875
 10
3080.966796875
 20
-3554.21875
 10
3080.966796875
 20
-3563.876953125
 10
3080.966796875
 20
-3573.53515625
 10
3071.30859375
 20
-3583.193359375
 10
3071.30859375
 20
-3592.8515625
 10
3071.30859375
 20
-3602.509765625
 10
3071.30859375
 20
-3612.16796875
 10
3071.30859375
 20
-3621.826171875
 10
3080.966796875
 20
-3631.484375
 10
3071.30859375
 20
-3641.142578125
 10
3071.30859375
 20
-3650.80078125
 10
3071.30859375
 20
-3660.458984375
 10
3071.30859375
 20
-3670.1171875
 10
3071.30859375
 20
-3679.775390625
 10
3080.966796875
 20
-3689.43359375
 10
3071.30859375
 20
-3699.091796875
 10
3080.966796875
 20
-3708.75
 10
3080.966796875
 20
-3718.408203125
 10
3080.966796875
 20
-3728.06640625
 10
3071.30859375
 20
-3737.724609375
 10
3071.30859375
 20
-3747.3828125
 10
3071.30859375
 20
-3757.041015625
 10
3080.966796875
 20
-3766.69921875
 10
3071.30859375
 20
-3776.357421875
 10
3080.966796875
 20
-3786.015625
 10
3080.966796875
 20
-3795.673828125
 10
3080.966796875
 20
-3805.33203125
 10
3071.30859375
 20
-3814.990234375
 10
3071.30859375
 20
-3824.6484375
 10
3071.30859375
 20
-3834.306640625
 10
3080.966796875
 20
-3843.96484375
 10
3071.30859375
 20
-3853.623046875
 10
3080.966796875
 20
-3863.28125
 10
3080.966796875
 20
-3872.939453125
 10
3080.966796875
 20
-3882.59765625
 10
3071.30859375
 20
-3892.255859375
 10
3080.966796875
 20
-3901.9140625
 10
3071.30859375
 20
-3911.572265625
 10
3080.966796875
 20
-3921.23046875
 10
3071.30859375
 20
-3930.888671875
 10
3080.966796875
 20
-3940.546875
 10
3080.966796875
 20
-3950.205078125
 10
3080.966796875
 20
-3959.86328125
 10
3080.966796875
 20
-3969.521484375
 10
3080.966796875
 20
-3979.1796875
 10
3080.966796875
 20
-3988.837890625
 10
3080.966796875
 20
-3998.49609375
 10
3080.966796875
 20
-4008.154296875
 10
3080.966796875
 20
-4017.8125
 10
3080.966796875
 20
-4027.470703125
 10
3080.966796875
 20
-4037.12890625
 10
3080.966796875
 20
-4046.787109375
 10
3080.966796875
 20
-4056.4453125
 10
3080.966796875
 20
-4066.103515625
 10
3080.966796875
 20
-4075.76171875
 10
3080.966796875
 20
-4085.419921875
 10
3080.966796875
 20
-4095.078125
 10
3080.966796875
 20
-4104.736328125
 10
3080.966796875
 20
-4114.39453125
 10
3080.966796875
 20
-4124.052734375
 10
3080.966796875
 20
-4133.7109375
 10
3090.625
 20
-4143.369140625
 10
3090.625
 20
-4153.02734375
 10
3090.625
 20
-4162.685546875
 10
3090.625
 20
-4172.34375
 10
3090.625
 20
-4182.001953125
 10
3080.966796875
 20
-4191.66015625
 10
3080.966796875
 20
-4201.318359375
 10
3080.966796875
 20
-4210.9765625
 10
3090.625
 20
-4220.634765625
 10
3090.625
 20
-4230.29296875
 10
3090.625
 20
-4239.951171875
 10
3090.625
 20
-4249.609375
 10
3090.625
 20
-4259.267578125
 10
3080.966796875
 20
-4268.92578125
 10
3080.966796875
 20
-4278.583984375
 10
3080.966796875
 20
-4288.2421875
 10
3071.30859375
 20
-4297.900390625
 10
3061.650390625
 20
-4307.55859375
 10
3051.9921875
 20
-4307.55859375
 10
3042.333984375
 20
-4307.55859375
 10
3032.67578125
 20
-4307.55859375
 10
3023.017578125
 20
-4307.55859375
 10
3013.359375
 20
-4307.55859375
 10
3003.701171875
 20
-4307.55859375
 10
2994.04296875
 20
-4307.55859375
 10
2984.384765625
 20
-4297.900390625
 10
2974.7265625
 20
-4297.900390625
 10
2965.068359375
 20
-4297.900390625
 10
2955.41015625
 20
-4297.900390625
 10
2945.751953125
 20
-4297.900390625
 10
2936.09375
 20
-4297.900390625
 10
2926.435546875
 20
-4297.900390625
 10
2916.77734375
 20
-4297.900390625
 10
2907.119140625
 20
-4297.900390625
 10
2897.4609375
 20
-4297.900390625
 10
2887.802734375
 20
-4297.900390625
 10
2878.14453125
 20
-4297.900390625
 10
2868.486328125
 20
-4297.900390625
 10
2858.828125
 20
-4307.55859375
 10
2849.169921875
 20
-4307.55859375
 10
2839.51171875
 20
-4307.55859375
 10
2829.853515625
 20
-4307.55859375
 10
2820.1953125
 20
-4307.55859375
 10
2810.537109375
 20
-4307.55859375
 10
2800.87890625
 20
-4307.55859375
 10
2791.220703125
 20
-4307.55859375
 10
2781.5625
 20
-4307.55859375
 10
2771.904296875
 20
-4307.55859375
 10
2762.24609375
 20
-4307.55859375
 10
2752.587890625
 20
-4307.55859375
 10
2742.9296875
 20
-4307.55859375
 10
2733.271484375
 20
-4307.55859375
 10
2723.61328125
 20
-4307.55859375
 10
2713.955078125
 20
-4307.55859375
 10
2704.296875
 20
-4307.55859375
 10
2694.638671875
 20
-4307.55859375
 10
2684.98046875
 20
-4307.55859375
 10
2675.322265625
 20
-4307.55859375
 10
2665.6640625
 20
-4307.55859375
 10
2656.005859375
 20
-4307.55859375
 10
2646.34765625
 20
-4307.55859375
 10
2636.689453125
 20
-4307.55859375
 10
2627.03125
 20
-4307.55859375
 10
2617.373046875
 20
-4307.55859375
 10
2607.71484375
 20
-4307.55859375
 10
2598.056640625
 20
-4307.55859375
 10
2588.3984375
 20
-4307.55859375
 10
2578.740234375
 20
-4307.55859375
 10
2569.08203125
 20
-4307.55859375
 10
2559.423828125
 20
-4307.55859375
 10
2549.765625
 20
-4307.55859375
 10
2540.107421875
 20
-4307.55859375
 10
2530.44921875
 20
-4307.55859375
 10
2520.791015625
 20
-4307.55859375
 10
2511.1328125
 20
-4307.55859375
 10
2501.474609375
 20
-4307.55859375
 10
2491.81640625
 20
-4307.55859375
 10
2482.158203125
 20
-4307.55859375
 10
2472.5
 20
-4307.55859375
 10
2462.841796875
 20
-4307.55859375
 10
2453.18359375
 20
-4307.55859375
 10
2443.525390625
 20
-4307.55859375
 10
2433.8671875
 20
-4307.55859375
 10
2424.208984375
 20
-4307.55859375
 10
2414.55078125
 20
-4307.55859375
 10
2404.892578125
 20
-4307.55859375
 10
2395.234375
 20
-4307.55859375
 10
2385.576171875
 20
-4307.55859375
 10
2375.91796875
 20
-4307.55859375
 10
2366.259765625
 20
-4307.55859375
 10
2356.6015625
 20
-4307.55859375
 10
2346.943359375
 20
-4307.55859375
 10
2337.28515625
 20
-4317.216796875
 10
2327.626953125
 20
-4317.216796875
 10
2317.96875
 20
-4317.216796875
 10
2308.310546875
 20
-4307.55859375
 10
2298.65234375
 20
-4317.216796875
 10
2288.994140625
 20
-4307.55859375
 10
2279.3359375
 20
-4307.55859375
 10
2269.677734375
 20
-4307.55859375
 10
2260.01953125
 20
-4307.55859375
 10
2250.361328125
 20
-4307.55859375
 10
2240.703125
 20
-4307.55859375
 10
2231.044921875
 20
-4307.55859375
 10
2221.38671875
 20
-4307.55859375
 10
2211.728515625
 20
-4307.55859375
 10
2202.0703125
 20
-4307.55859375
 10
2192.412109375
 20
-4307.55859375
 10
2182.75390625
 20
-4317.216796875
 10
2173.095703125
 20
-4317.216796875
 10
2163.4375
 20
-4317.216796875
 10
2153.779296875
 20
-4307.55859375
 10
2144.12109375
 20
-4317.216796875
 10
2134.462890625
 20
-4317.216796875
 10
2124.8046875
 20
-4317.216796875
 10
2115.146484375
 20
-4307.55859375
 10
2105.48828125
 20
-4317.216796875
 10
2095.830078125
 20
-4317.216796875
 10
2086.171875
 20
-4317.216796875
 10
2076.513671875
 20
-4307.55859375
 10
2066.85546875
 20
-4317.216796875
 10
2057.197265625
 20
-4307.55859375
 10
2047.5390625
 20
-4317.216796875
 10
2037.880859375
 20
-4317.216796875
 10
2028.22265625
 20
-4317.216796875
 10
2018.564453125
 20
-4317.216796875
 10
2008.90625
 20
-4317.216796875
 10
1999.248046875
 20
-4307.55859375
 10
1989.58984375
 20
-4307.55859375
 10
1979.931640625
 20
-4307.55859375
 10
1970.2734375
 20
-4307.55859375
 10
1960.615234375
 20
-4307.55859375
 10
1950.95703125
 20
-4307.55859375
 10
1941.298828125
 20
-4307.55859375
 10
1931.640625
 20
-4307.55859375
 10
1921.982421875
 20
-4307.55859375
 10
1912.32421875
 20
-4307.55859375
 10
1902.666015625
 20
-4307.55859375
 10
1893.0078125
 20
-4307.55859375
 10
1883.349609375
 20
-4307.55859375
 10
1873.69140625
 20
-4307.55859375
 10
1864.033203125
 20
-4317.216796875
 10
1854.375
 20
-4307.55859375
 10
1844.716796875
 20
-4297.900390625
 10
1844.716796875
 20
-4288.2421875
 10
1844.716796875
 20
-4278.583984375
 10
1844.716796875
 20
-4268.92578125
 10
1844.716796875
 20
-4259.267578125
 10
1844.716796875
 20
-4249.609375
 10
1844.716796875
 20
-4239.951171875
 10
1844.716796875
 20
-4230.29296875
 10
1844.716796875
 20
-4220.634765625
 10
1844.716796875
 20
-4210.9765625
 10
1844.716796875
 20
-4201.318359375
 10
1835.05859375
 20
-4191.66015625
 10
1835.05859375
 20
-4182.001953125
 10
1835.05859375
 20
-4172.34375
 10
1835.05859375
 20
-4162.685546875
 10
1835.05859375
 20
-4153.02734375
 10
1835.05859375
 20
-4143.369140625
 10
1835.05859375
 20
-4133.7109375
 10
1835.05859375
 20
-4124.052734375
 10
1835.05859375
 20
-4114.39453125
 10
1835.05859375
 20
-4104.736328125
 10
1835.05859375
 20
-4095.078125
 10
1844.716796875
 20
-4085.419921875
 10
1844.716796875
 20
-4075.76171875
 10
1844.716796875
 20
-4066.103515625
 10
1844.716796875
 20
-4056.4453125
 10
1844.716796875
 20
-4046.787109375
 10
1844.716796875
 20
-4037.12890625
 10
1844.716796875
 20
-4027.470703125
 10
1835.05859375
 20
-4017.8125
 10
1835.05859375
 20
-4008.154296875
 10
1835.05859375
 20
-3998.49609375
 10
1835.05859375
 20
-3988.837890625
 10
1835.05859375
 20
-3979.1796875
 10
1835.05859375
 20
-3969.521484375
 10
1835.05859375
 20
-3959.86328125
 10
1844.716796875
 20
-3950.205078125
 10
1835.05859375
 20
-3940.546875
 10
1844.716796875
 20
-3930.888671875
 10
1844.716796875
 20
-3921.23046875
 10
1835.05859375
 20
-3911.572265625
 10
1844.716796875
 20
-3901.9140625
 10
1844.716796875
 20
-3892.255859375
 10
1835.05859375
 20
-3882.59765625
 10
1844.716796875
 20
-3872.939453125
 10
1844.716796875
 20
-3863.28125
 10
1844.716796875
 20
-3853.623046875
 10
1835.05859375
 20
-3843.96484375
 10
1835.05859375
 20
-3834.306640625
 10
1844.716796875
 20
-3824.6484375
 10
1835.05859375
 20
-3814.990234375
 10
1835.05859375
 20
-3805.33203125
 10
1835.05859375
 20
-3795.673828125
 10
1835.05859375
 20
-3786.015625
 10
1844.716796875
 20
-3776.357421875
 10
1844.716796875
 20
-3766.69921875
 10
1844.716796875
 20
-3757.041015625
 10
1854.375
 20
-3747.3828125
 10
1844.716796875
 20
-3737.724609375
 10
1844.716796875
 20
-3728.06640625
 10
1844.716796875
 20
-3718.408203125
 10
1844.716796875
 20
-3708.75
 10
1844.716796875
 20
-3699.091796875
 10
1835.05859375
 20
-3689.43359375
 10
1844.716796875
 20
-3679.775390625
 10
1844.716796875
 20
-3670.1171875
 10
1844.716796875
 20
-3660.458984375
 10
1844.716796875
 20
-3650.80078125
 10
1844.716796875
 20
-3641.142578125
 10
1844.716796875
 20
-3631.484375
 10
1844.716796875
 20
-3621.826171875
 10
1844.716796875
 20
-3612.16796875
 10
1844.716796875
 20
-3602.509765625
 10
1844.716796875
 20
-3592.8515625
 10
1844.716796875
 20
-3583.193359375
 10
1835.05859375
 20
-3573.53515625
 10
1844.716796875
 20
-3563.876953125
 10
1835.05859375
 20
-3554.21875
 10
1835.05859375
 20
-3544.560546875
 10
1825.400390625
 20
-3534.90234375
 10
1825.400390625
 20
-3525.244140625
 10
1835.05859375
 20
-3515.5859375
 10
1835.05859375
 20
-3505.927734375
 10
1835.05859375
 20
-3496.26953125
 10
1835.05859375
 20
-3486.611328125
 10
1835.05859375
 20
-3476.953125
 10
1844.716796875
 20
-3467.294921875
 10
1844.716796875
 20
-3457.63671875
 10
1844.716796875
 20
-3447.978515625
 10
1844.716796875
 20
-3438.3203125
 10
1844.716796875
 20
-3428.662109375
 10
1844.716796875
 20
-3419.00390625
 10
1844.716796875
 20
-3409.345703125
 10
1844.716796875
 20
-3399.6875
 10
1835.05859375
 20
-3390.029296875
 10
1835.05859375
 20
-3380.37109375
 10
1825.400390625
 20
-3370.712890625
 10
1835.05859375
 20
-3361.0546875
 10
1835.05859375
 20
-3351.396484375
 10
1835.05859375
 20
-3341.73828125
 10
1835.05859375
 20
-3332.080078125
 10
1835.05859375
 20
-3322.421875
 10
1844.716796875
 20
-3312.763671875
 10
1835.05859375
 20
-3312.763671875
 10
1825.400390625
 20
-3303.10546875
 10
1835.05859375
 20
-3293.447265625
 10
1844.716796875
 20
-3283.7890625
 10
1854.375
 20
-3283.7890625
 10
1844.716796875
 20
-3274.130859375
 10
1835.05859375
 20
-3264.47265625
 10
1844.716796875
 20
-3254.814453125
 10
1835.05859375
 20
-3245.15625
 10
1835.05859375
 20
-3235.498046875
 10
1825.400390625
 20
-3225.83984375
 10
1835.05859375
 20
-3216.181640625
 10
1844.716796875
 20
-3206.5234375
 10
1844.716796875
 20
-3196.865234375
 10
1844.716796875
 20
-3187.20703125
 10
1844.716796875
 20
-3177.548828125
 10
1854.375
 20
-3167.890625
 10
1854.375
 20
-3158.232421875
 10
1854.375
 20
-3148.57421875
 10
1854.375
 20
-3138.916015625
 10
1864.033203125
 20
-3129.2578125
 10
1864.033203125
 20
-3119.599609375
 10
1854.375
 20
-3109.94140625
 10
1854.375
 20
-3100.283203125
 10
1854.375
 20
-3090.625
 10
1844.716796875
 20
-3080.966796875
 10
1835.05859375
 20
-3080.966796875
 10
1825.400390625
 20
-3071.30859375
 10
1815.7421875
 20
-3071.30859375
 10
1806.083984375
 20
-3071.30859375
 10
1796.42578125
 20
-3071.30859375
 10
1786.767578125
 20
-3071.30859375
 10
1777.109375
 20
-3071.30859375
 10
1767.451171875
 20
-3071.30859375
 10
1757.79296875
 20
-3071.30859375
 10
1748.134765625
 20
-3071.30859375
 10
1738.4765625
 20
-3071.30859375
 10
1728.818359375
 20
-3071.30859375
 10
1719.16015625
 20
-3071.30859375
 10
1709.501953125
 20
-3071.30859375
 10
1699.84375
 20
-3071.30859375
 10
1690.185546875
 20
-3071.30859375
 10
1680.52734375
 20
-3071.30859375
 10
1670.869140625
 20
-3071.30859375
 10
1661.2109375
 20
-3071.30859375
 10
1651.552734375
 20
-3071.30859375
 10
1641.89453125
 20
-3071.30859375
 10
1632.236328125
 20
-3071.30859375
 10
1622.578125
 20
-3071.30859375
 10
1612.919921875
 20
-3071.30859375
 10
1603.26171875
 20
-3071.30859375
 10
1593.603515625
 20
-3071.30859375
 10
1583.9453125
 20
-3071.30859375
 10
1574.287109375
 20
-3071.30859375
 10
1564.62890625
 20
-3071.30859375
 10
1554.970703125
 20
-3071.30859375
 10
1545.3125
 20
-3071.30859375
 10
1535.654296875
 20
-3071.30859375
 10
1525.99609375
 20
-3071.30859375
 10
1516.337890625
 20
-3071.30859375
 10
1506.6796875
 20
-3071.30859375
 10
1497.021484375
 20
-3071.30859375
 10
1487.36328125
 20
-3071.30859375
 10
1477.705078125
 20
-3071.30859375
 10
1468.046875
 20
-3080.966796875
 10
1458.388671875
 20
-3080.966796875
 10
1448.73046875
 20
-3080.966796875
 10
1439.072265625
 20
-3080.966796875
 10
1429.4140625
 20
-3080.966796875
 10
1419.755859375
 20
-3080.966796875
 10
1410.09765625
 20
-3080.966796875
 10
1400.439453125
 20
-3080.966796875
 10
1390.78125
 20
-3080.966796875
 10
1381.123046875
 20
-3080.966796875
 10
1371.46484375
 20
-3080.966796875
 10
1361.806640625
 20
-3080.966796875
 10
1352.1484375
 20
-3080.966796875
 10
1342.490234375
 20
-3071.30859375
 10
1332.83203125
 20
-3080.966796875
 10
1323.173828125
 20
-3071.30859375
 10
1313.515625
 20
-3080.966796875
 10
1303.857421875
 20
-3080.966796875
 10
1294.19921875
 20
-3080.966796875
 10
1284.541015625
 20
-3080.966796875
 10
1274.8828125
 20
-3080.966796875
 10
1265.224609375
 20
-3080.966796875
 10
1255.56640625
 20
-3080.966796875
 10
1245.908203125
 20
-3080.966796875
 10
1236.25
 20
-3080.966796875
 10
1226.591796875
 20
-3080.966796875
 10
1216.93359375
 20
-3080.966796875
 10
1207.275390625
 20
-3080.966796875
 10
1197.6171875
 20
-3080.966796875
 10
1187.958984375
 20
-3080.966796875
 10
1178.30078125
 20
-3080.966796875
 10
1168.642578125
 20
-3080.966796875
 10
1158.984375
 20
-3080.966796875
 10
1149.326171875
 20
-3080.966796875
 10
1139.66796875
 20
-3090.625
 10
1130.009765625
 20
-3090.625
 10
1120.3515625
 20
-3080.966796875
 10
1110.693359375
 20
-3080.966796875
 10
1101.03515625
 20
-3080.966796875
 10
1091.376953125
 20
-3080.966796875
 10
1081.71875
 20
-3080.966796875
 10
1072.060546875
 20
-3080.966796875
 10
1062.40234375
 20
-3080.966796875
 10
1052.744140625
 20
-3080.966796875
 10
1043.0859375
 20
-3080.966796875
 10
1033.427734375
 20
-3080.966796875
 10
1023.76953125
 20
-3080.966796875
 10
1014.111328125
 20
-3080.966796875
 10
1004.453125
 20
-3080.966796875
 10
994.794921875
 20
-3090.625
 10
985.13671875
 20
-3090.625
 10
975.478515625
 20
-3090.625
 10
965.8203125
 20
-3090.625
 10
956.162109375
 20
-3090.625
 10
946.50390625
 20
-3090.625
 10
936.845703125
 20
-3090.625
 10
927.1875
 20
-3090.625
 10
917.529296875
 20
-3090.625
 10
907.87109375
 20
-3090.625
 10
898.212890625
 20
-3090.625
 10
888.5546875
 20
-3100.283203125
 10
878.896484375
 20
-3100.283203125
 10
869.23828125
 20
-3100.283203125
 10
859.580078125
 20
-3100.283203125
 10
849.921875
 20
-3100.283203125
 10
840.263671875
 20
-3100.283203125
 10
830.60546875
 20
-3100.283203125
 10
820.947265625
 20
-3100.283203125
 10
811.2890625
 20
-3109.94140625
 10
801.630859375
 20
-3100.283203125
 10
791.97265625
 20
-3100.283203125
 10
782.314453125
 20
-3100.283203125
 10
772.65625
 20
-3100.283203125
 10
762.998046875
 20
-3100.283203125
 10
753.33984375
 20
-3090.625
 10
743.681640625
 20
-3080.966796875
 10
734.0234375
 20
-3080.966796875
 10
724.365234375
 20
-3071.30859375
 10
714.70703125
 20
-3071.30859375
 10
705.048828125
 20
-3061.650390625
 10
705.048828125
 20
-3051.9921875
 10
714.70703125
 20
-3042.333984375
 10
724.365234375
 20
-3032.67578125
 10
724.365234375
 20
-3023.017578125
 10
734.0234375
 20
-3013.359375
 10
734.0234375
 20
-3003.701171875
 10
734.0234375
 20
-2994.04296875
 10
743.681640625
 20
-2984.384765625
 10
743.681640625
 20
-2974.7265625
 10
743.681640625
 20
-2965.068359375
 10
734.0234375
 20
-2955.41015625
 10
734.0234375
 20
-2945.751953125
 10
734.0234375
 20
-2936.09375
 10
724.365234375
 20
-2926.435546875
 10
724.365234375
 20
-2916.77734375
 10
724.365234375
 20
-2907.119140625
 10
724.365234375
 20
-2897.4609375
 10
724.365234375
 20
-2887.802734375
 10
724.365234375
 20
-2878.14453125
 10
724.365234375
 20
-2868.486328125
 10
714.70703125
 20
-2858.828125
 10
714.70703125
 20
-2849.169921875
 10
714.70703125
 20
-2839.51171875
 10
714.70703125
 20
-2829.853515625
 10
714.70703125
 20
-2820.1953125
 10
724.365234375
 20
-2810.537109375
 10
724.365234375
 20
-2800.87890625
 10
724.365234375
 20
-2791.220703125
 10
724.365234375
 20
-2781.5625
 10
724.365234375
 20
-2771.904296875
 10
714.70703125
 20
-2762.24609375
 10
714.70703125
 20
-2752.587890625
 10
714.70703125
 20
-2742.9296875
 10
724.365234375
 20
-2733.271484375
 10
724.365234375
 20
-2723.61328125
 10
724.365234375
 20
-2713.955078125
 10
724.365234375
 20
-2704.296875
 10
724.365234375
 20
-2694.638671875
 10
714.70703125
 20
-2684.98046875
 10
714.70703125
 20
-2675.322265625
 10
714.70703125
 20
-2665.6640625
 10
714.70703125
 20
-2656.005859375
 10
714.70703125
 20
-2646.34765625
 10
714.70703125
 20
-2636.689453125
 10
714.70703125
 20
-2627.03125
 10
705.048828125
 20
-2617.373046875
 10
705.048828125
 20
-2607.71484375
 10
705.048828125
 20
-2598.056640625
 10
705.048828125
 20
-2588.3984375
 10
705.048828125
 20
-2578.740234375
 10
705.048828125
 20
-2569.08203125
 10
705.048828125
 20
-2559.423828125
 10
705.048828125
 20
-2549.765625
 10
705.048828125
 20
-2540.107421875
 10
695.390625
 20
-2530.44921875
 10
695.390625
 20
-2520.791015625
 10
695.390625
 20
-2511.1328125
 10
695.390625
 20
-2501.474609375
 10
695.390625
 20
-2491.81640625
 10
695.390625
 20
-2482.158203125
 10
695.390625
 20
-2472.5
 10
705.048828125
 20
-2462.841796875
 10
705.048828125
 20
-2453.18359375
 10
705.048828125
 20
-2443.525390625
 10
705.048828125
 20
-2433.8671875
 10
705.048828125
 20
-2424.208984375
 10
705.048828125
 20
-2414.55078125
 10
705.048828125
 20
-2404.892578125
 10
695.390625
 20
-2395.234375
 10
695.390625
 20
-2385.576171875
 10
695.390625
 20
-2375.91796875
 10
695.390625
 20
-2366.259765625
 10
695.390625
 20
-2356.6015625
 10
685.732421875
 20
-2346.943359375
 10
685.732421875
 20
-2337.28515625
 10
685.732421875
 20
-2327.626953125
 10
676.07421875
 20
-2317.96875
 10
676.07421875
 20
-2308.310546875
 10
666.416015625
 20
-2298.65234375
 10
666.416015625
 20
-2288.994140625
 10
676.07421875
 20
-2279.3359375
 10
676.07421875
 20
-2269.677734375
 10
676.07421875
 20
-2260.01953125
 10
676.07421875
 20
-2250.361328125
 10
676.07421875
 20
-2240.703125
 10
666.416015625
 20
-2231.044921875
 10
676.07421875
 20
-2221.38671875
 10
666.416015625
 20
-2211.728515625
 10
676.07421875
 20
-2202.0703125
 10
676.07421875
 20
-2192.412109375
 10
676.07421875
 20
-2182.75390625
 10
666.416015625
 20
-2173.095703125
 10
666.416015625
 20
-2163.4375
 10
666.416015625
 20
-2153.779296875
 10
666.416015625
 20
-2144.12109375
 10
666.416015625
 20
-2134.462890625
 10
676.07421875
 20
-2124.8046875
 10
676.07421875
 20
-2115.146484375
 10
676.07421875
 20
-2105.48828125
 10
676.07421875
 20
-2095.830078125
 10
676.07421875
 20
-2086.171875
 10
676.07421875
 20
-2076.513671875
 10
666.416015625
 20
-2066.85546875
 10
666.416015625
 20
-2057.197265625
 10
666.416015625
 20
-2047.5390625
 10
666.416015625
 20
-2037.880859375
 10
656.7578125
 20
-2028.22265625
 10
656.7578125
 20
-2018.564453125
 10
656.7578125
 20
-2008.90625
 10
656.7578125
 20
-1999.248046875
 10
656.7578125
 20
-1989.58984375
 10
656.7578125
 20
-1979.931640625
 10
656.7578125
 20
-1970.2734375
 10
656.7578125
 20
-1960.615234375
 10
656.7578125
 20
-1950.95703125
 10
656.7578125
 20
-1941.298828125
 10
656.7578125
 20
-1931.640625
 10
656.7578125
 20
-1921.982421875
 10
656.7578125
 20
-1912.32421875
 10
647.099609375
 20
-1902.666015625
 10
647.099609375
 20
-1893.0078125
 10
647.099609375
 20
-1883.349609375
 10
656.7578125
 20
-1873.69140625
 10
647.099609375
 20
-1864.033203125
 10
647.099609375
 20
-1854.375
 10
656.7578125
 20
-1844.716796875
 10
666.416015625
 20
-1844.716796875
 10
676.07421875
 20
-1844.716796875
 10
685.732421875
 20
-1835.05859375
 10
695.390625
 20
-1844.716796875
 10
705.048828125
 20
-1844.716796875
 10
714.70703125
 20
-1844.716796875
 10
724.365234375
 20
-1844.716796875
 10
734.0234375
 20
-1844.716796875
 10
743.681640625
 20
-1835.05859375
 10
753.33984375
 20
-1835.05859375
 10
762.998046875
 20
-1835.05859375
 10
772.65625
 20
-1835.05859375
 10
782.314453125
 20
-1835.05859375
 10
791.97265625
 20
-1835.05859375
 10
801.630859375
 20
-1835.05859375
 10
811.2890625
 20
-1825.400390625
 10
820.947265625
 20
-1825.400390625
 10
830.60546875
 20
-1825.400390625
 10
840.263671875
 20
-1825.400390625
 10
849.921875
 20
-1835.05859375
 10
859.580078125
 20
-1835.05859375
 10
869.23828125
 20
-1825.400390625
 10
878.896484375
 20
-1825.400390625
 10
888.5546875
 20
-1825.400390625
 10
898.212890625
 20
-1825.400390625
 10
907.87109375
 20
-1825.400390625
 10
917.529296875
 20
-1825.400390625
 10
927.1875
 20
-1825.400390625
 10
936.845703125
 20
-1825.400390625
 10
946.50390625
 20
-1825.400390625
 10
956.162109375
 20
-1825.400390625
 10
965.8203125
 20
-1815.7421875
 10
975.478515625
 20
-1815.7421875
 10
985.13671875
 20
-1815.7421875
 10
994.794921875
 20
-1815.7421875
 10
1004.453125
 20
-1825.400390625
 10
1014.111328125
 20
-1825.400390625
 10
1023.76953125
 20
-1815.7421875
 10
1033.427734375
 20
-1825.400390625
 10
1043.0859375
 20
-1825.400390625
 10
1052.744140625
 20
-1825.400390625
 10
1062.40234375
 20
-1825.400390625
 10
1072.060546875
 20
-1825.400390625
 10
1081.71875
 20
-1825.400390625
 10
1091.376953125
 20
-1825.400390625
 10
1101.03515625
 20
-1825.400390625
 10
1110.693359375
 20
-1815.7421875
 10
1120.3515625
 20
-1815.7421875
 10
1130.009765625
 20
-1815.7421875
 10
1139.66796875
 20
-1815.7421875
 10
1149.326171875
 20
-1815.7421875
 10
1158.984375
 20
-1815.7421875
 10
1168.642578125
 20
-1815.7421875
 10
1178.30078125
 20
-1815.7421875
 10
1187.958984375
 20
-1815.7421875
 10
1197.6171875
 20
-1815.7421875
 10
1207.275390625
 20
-1815.7421875
 10
1216.93359375
 20
-1815.7421875
 10
1226.591796875
 20
-1815.7421875
 10
1236.25
 20
-1815.7421875
 10
1245.908203125
 20
-1815.7421875
 10
1255.56640625
 20
-1815.7421875
 10
1265.224609375
 20
-1815.7421875
 10
1274.8828125
 20
-1815.7421875
 10
1284.541015625
 20
-1815.7421875
 10
1294.19921875
 20
-1815.7421875
 10
1303.857421875
 20
-1825.400390625
 10
1313.515625
 20
-1825.400390625
 10
1323.173828125
 20
-1825.400390625
 10
1332.83203125
 20
-1825.400390625
 10
1342.490234375
 20
-1825.400390625
 10
1352.1484375
 20
-1815.7421875
 10
1361.806640625
 20
-1815.7421875
 10
1371.46484375
 20
-1815.7421875
 10
1381.123046875
 20
-1825.400390625
 10
1390.78125
 20
-1825.400390625
 10
1400.439453125
 20
-1825.400390625
 10
1410.09765625
 20
-1825.400390625
 10
1419.755859375
 20
-1825.400390625
 10
1429.4140625
 20
-1825.400390625
 10
1439.072265625
 20
-1815.7421875
 10
1448.73046875
 20
-1815.7421875
 10
1458.388671875
 20
-1825.400390625
 10
1468.046875
 20
-1815.7421875
 10
1477.705078125
 20
-1815.7421875
 10
1487.36328125
 20
-1815.7421875
 10
1497.021484375
 20
-1815.7421875
 10
1506.6796875
 20
-1815.7421875
 10
1516.337890625
 20
-1815.7421875
 10
1525.99609375
 20
-1815.7421875
 10
1535.654296875
 20
-1825.400390625
 10
1545.3125
 20
-1825.400390625
 10
1554.970703125
 20
-1825.400390625
 10
1564.62890625
 20
-1815.7421875
 10
1574.287109375
 20
-1815.7421875
 10
1583.9453125
 20
-1815.7421875
 10
1593.603515625
 20
-1815.7421875
 10
1603.26171875
 20
-1825.400390625
 10
1612.919921875
 20
-1825.400390625
 10
1622.578125
 20
-1825.400390625
 10
1632.236328125
 20
-1825.400390625
 10
1641.89453125
 20
-1825.400390625
 10
1651.552734375
 20
-1825.400390625
 10
1661.2109375
 20
-1815.7421875
 10
1670.869140625
 20
-1815.7421875
 10
1680.52734375
 20
-1815.7421875
 10
1690.185546875
 20
-1815.7421875
 10
1699.84375
 20
-1815.7421875
 10
1709.501953125
 20
-1825.400390625
 10
1719.16015625
 20
-1825.400390625
 10
1728.818359375
 20
-1825.400390625
 10
1738.4765625
 20
-1825.400390625
 10
1748.134765625
 20
-1825.400390625
 10
1757.79296875
 20
-1825.400390625
 10
1767.451171875
 20
-1825.400390625
 10
1777.109375
 20
-1835.05859375
 10
1786.767578125
 20
-1835.05859375
 10
1796.42578125
 20
-1835.05859375
 10
1806.083984375
 20
-1835.05859375
 10
1815.7421875
 20
-1825.400390625
 10
1825.400390625
 20
-1825.400390625
 10
1835.05859375
 20
-1815.7421875
 10
1844.716796875
 20
-1815.7421875
 10
1844.716796875
 20
-1806.083984375
 10
1844.716796875
 20
-1796.42578125
 10
1844.716796875
 20
-1786.767578125
 10
1844.716796875
 20
-1777.109375
 10
1844.716796875
 20
-1767.451171875
 10
1844.716796875
 20
-1757.79296875
 10
1835.05859375
 20
-1748.134765625
 10
1844.716796875
 20
-1738.4765625
 10
1844.716796875
 20
-1728.818359375
 10
1835.05859375
 20
-1719.16015625
 10
1835.05859375
 20
-1709.501953125
 10
1835.05859375
 20
-1699.84375
 10
1825.400390625
 20
-1690.185546875
 10
1825.400390625
 20
-1680.52734375
 10
1825.400390625
 20
-1670.869140625
 10
1835.05859375
 20
-1661.2109375
 10
1835.05859375
 20
-1651.552734375
 10
1835.05859375
 20
-1641.89453125
 10
1835.05859375
 20
-1632.236328125
 10
1835.05859375
 20
-1622.578125
 10
1844.716796875
 20
-1612.919921875
 10
1844.716796875
 20
-1603.26171875
 10
1844.716796875
 20
-1593.603515625
 10
1844.716796875
 20
-1583.9453125
 10
1844.716796875
 20
-1574.287109375
 10
1835.05859375
 20
-1564.62890625
 10
1844.716796875
 20
-1554.970703125
 10
1844.716796875
 20
-1545.3125
 10
1844.716796875
 20
-1535.654296875
 10
1835.05859375
 20
-1525.99609375
 10
1835.05859375
 20
-1516.337890625
 10
1835.05859375
 20
-1506.6796875
 10
1835.05859375
 20
-1497.021484375
 10
1835.05859375
 20
-1487.36328125
 10
1835.05859375
 20
-1477.705078125
 10
1835.05859375
 20
-1468.046875
 10
1844.716796875
 20
-1458.388671875
 10
1844.716796875
 20
-1448.73046875
 10
1844.716796875
 20
-1439.072265625
 10
1844.716796875
 20
-1429.4140625
 10
1844.716796875
 20
-1419.755859375
 10
1835.05859375
 20
-1410.09765625
 10
1825.400390625
 20
-1400.439453125
 10
1825.400390625
 20
-1390.78125
 10
1825.400390625
 20
-1381.123046875
 10
1825.400390625
 20
-1371.46484375
 10
1825.400390625
 20
-1361.806640625
 10
1825.400390625
 20
-1352.1484375
 10
1825.400390625
 20
-1342.490234375
 10
1825.400390625
 20
-1332.83203125
 10
1825.400390625
 20
-1323.173828125
 10
1825.400390625
 20
-1313.515625
 10
1825.400390625
 20
-1303.857421875
 10
1825.400390625
 20
-1294.19921875
 10
1835.05859375
 20
-1284.541015625
 10
1844.716796875
 20
-1274.8828125
 10
1844.716796875
 20
-1265.224609375
 10
1835.05859375
 20
-1255.56640625
 10
1835.05859375
 20
-1245.908203125
 10
1835.05859375
 20
-1236.25
 10
1825.400390625
 20
-1226.591796875
 10
1825.400390625
 20
-1216.93359375
 10
1825.400390625
 20
-1207.275390625
 10
1835.05859375
 20
-1197.6171875
 10
1835.05859375
 20
-1187.958984375
 10
1835.05859375
 20
-1178.30078125
 10
1835.05859375
 20
-1168.642578125
 10
1844.716796875
 20
-1158.984375
 10
1844.716796875
 20
-1149.326171875
 10
1844.716796875
 20
-1139.66796875
 10
1844.716796875
 20
-1130.009765625
 10
1854.375
 20
-1120.3515625
 10
1844.716796875
 20
-1110.693359375
 10
1835.05859375
 20
-1101.03515625
 10
1835.05859375
 20
-1091.376953125
 10
1835.05859375
 20
-1081.71875
 10
1835.05859375
 20
-1072.060546875
 10
1835.05859375
 20
-1062.40234375
 10
1825.400390625
 20
-1052.744140625
 10
1835.05859375
 20
-1043.0859375
 10
1835.05859375
 20
-1033.427734375
 10
1835.05859375
 20
-1023.76953125
 10
1844.716796875
 20
-1014.111328125
 10
1844.716796875
 20
-1004.453125
 10
1844.716796875
 20
-994.794921875
 10
1854.375
 20
-985.13671875
 10
1854.375
 20
-975.478515625
 10
1864.033203125
 20
-965.8203125
 10
1864.033203125
 20
-956.162109375
 10
1854.375
 20
-946.50390625
 10
1854.375
 20
-936.845703125
 10
1854.375
 20
-927.1875
 10
1854.375
 20
-917.529296875
 10
1854.375
 20
-907.87109375
 10
1854.375
 20
-898.212890625
 10
1854.375
 20
-888.5546875
 10
1854.375
 20
-878.896484375
 10
1854.375
 20
-869.23828125
 10
1854.375
 20
-859.580078125
 10
1854.375
 20
-849.921875
 10
1864.033203125
 20
-840.263671875
 10
1864.033203125
 20
-830.60546875
 10
1864.033203125
 20
-820.947265625
 10
1864.033203125
 20
-811.2890625
 10
1864.033203125
 20
-801.630859375
 10
1854.375
 20
-791.97265625
 10
1854.375
 20
-782.314453125
 10
1854.375
 20
-772.65625
 10
1854.375
 20
-762.998046875
 10
1864.033203125
 20
-753.33984375
 10
1854.375
 20
-743.681640625
 10
1854.375
 20
-734.0234375
 10
1854.375
 20
-724.365234375
 10
1854.375
 20
-714.70703125
 10
1864.033203125
 20
-705.048828125
 10
1873.69140625
 20
-695.390625
 10
1883.349609375
 20
-695.390625
 10
1893.0078125
 20
-695.390625
 10
1902.666015625
 20
-695.390625
 10
1912.32421875
 20
-705.048828125
 10
1921.982421875
 20
-705.048828125
 10
1931.640625
 20
-714.70703125
 10
1941.298828125
 20
-714.70703125
 10
1950.95703125
 20
-724.365234375
 10
1960.615234375
 20
-734.0234375
 10
1970.2734375
 20
-734.0234375
 10
1979.931640625
 20
-743.681640625
 10
1989.58984375
 20
-743.681640625
 10
1999.248046875
 20
-743.681640625
 10
2008.90625
 20
-743.681640625
 10
2018.564453125
 20
-743.681640625
 10
2028.22265625
 20
-743.681640625
 10
2037.880859375
 20
-743.681640625
 10
2047.5390625
 20
-743.681640625
 10
2057.197265625
 20
-743.681640625
 10
2066.85546875
 20
-743.681640625
 10
2076.513671875
 20
-753.33984375
 10
2086.171875
 20
-762.998046875
 10
2095.830078125
 20
-762.998046875
 10
2105.48828125
 20
-762.998046875
 10
2115.146484375
 20
-762.998046875
 10
2124.8046875
 20
-762.998046875
 10
2134.462890625
 20
-772.65625
 10
2144.12109375
 20
-772.65625
 10
2153.779296875
 20
-772.65625
 10
2163.4375
 20
-772.65625
 10
2173.095703125
 20
-762.998046875
 10
2182.75390625
 20
-753.33984375
 10
2192.412109375
 20
-753.33984375
 10
2202.0703125
 20
-753.33984375
 10
2211.728515625
 20
-753.33984375
 10
2221.38671875
 20
-753.33984375
 10
2231.044921875
 20
-753.33984375
 10
2240.703125
 20
-753.33984375
 10
2250.361328125
 20
-743.681640625
 10
2260.01953125
 20
-743.681640625
 10
2269.677734375
 20
-743.681640625
 10
2279.3359375
 20
-734.0234375
 10
2288.994140625
 20
-734.0234375
 10
2298.65234375
 20
-734.0234375
 10
2308.310546875
 20
-743.681640625
 10
2317.96875
 20
-743.681640625
 10
2327.626953125
 20
-743.681640625
 10
2337.28515625
 20
-743.681640625
 10
2346.943359375
 20
-743.681640625
 10
2356.6015625
 20
-743.681640625
 10
2366.259765625
 20
-743.681640625
 10
2375.91796875
 20
-743.681640625
 10
2385.576171875
 20
-743.681640625
 10
2395.234375
 20
-753.33984375
 10
2404.892578125
 20
-753.33984375
 10
2414.55078125
 20
-743.681640625
 10
2424.208984375
 20
-743.681640625
 10
2433.8671875
 20
-743.681640625
 10
2443.525390625
 20
-743.681640625
 10
2453.18359375
 20
-743.681640625
 10
2462.841796875
 20
-743.681640625
 10
2472.5
 20
-743.681640625
 10
2482.158203125
 20
-743.681640625
 10
2491.81640625
 20
-734.0234375
 10
2501.474609375
 20
-734.0234375
 10
2511.1328125
 20
-724.365234375
 10
2520.791015625
 20
-724.365234375
 10
2530.44921875
 20
-724.365234375
 10
2540.107421875
 20
-724.365234375
 10
2549.765625
 20
-734.0234375
 10
2559.423828125
 20
-724.365234375
 10
2569.08203125
 20
-724.365234375
 10
2578.740234375
 20
-724.365234375
 10
2588.3984375
 20
-724.365234375
 10
2598.056640625
 20
-724.365234375
 10
2607.71484375
 20
-724.365234375
 10
2617.373046875
 20
-724.365234375
 10
2627.03125
 20
-724.365234375
 10
2636.689453125
 20
-724.365234375
 10
2646.34765625
 20
-724.365234375
 10
2656.005859375
 20
-724.365234375
 10
2665.6640625
 20
-724.365234375
 10
2675.322265625
 20
-734.0234375
 10
2684.98046875
 20
-734.0234375
 10
2694.638671875
 20
-734.0234375
 10
2704.296875
 20
-734.0234375
 10
2713.955078125
 20
-734.0234375
 10
2723.61328125
 20
-734.0234375
 10
2733.271484375
 20
-734.0234375
 10
2742.9296875
 20
-724.365234375
 10
2752.587890625
 20
-724.365234375
 10
2762.24609375
 20
-724.365234375
 10
2771.904296875
 20
-734.0234375
 10
2781.5625
 20
-724.365234375
 10
2791.220703125
 20
-724.365234375
 10
2800.87890625
 20
-724.365234375
 10
2810.537109375
 20
-724.365234375
 10
2820.1953125
 20
-724.365234375
 10
2829.853515625
 20
-714.70703125
 10
2839.51171875
 20
-714.70703125
 10
2849.169921875
 20
-714.70703125
 10
2858.828125
 20
-714.70703125
 10
2868.486328125
 20
-705.048828125
 10
2878.14453125
 20
-705.048828125
 10
2887.802734375
 20
-705.048828125
 10
2897.4609375
 20
-705.048828125
 10
2907.119140625
 20
-705.048828125
 10
2916.77734375
 20
-714.70703125
 10
2926.435546875
 20
-724.365234375
 10
2936.09375
 20
-724.365234375
 10
2945.751953125
 20
-724.365234375
 10
2955.41015625
 20
-724.365234375
 10
2965.068359375
 20
-714.70703125
 10
2974.7265625
 20
-714.70703125
 10
2984.384765625
 20
-714.70703125
 10
2994.04296875
 20
-724.365234375
 10
3003.701171875
 20
-724.365234375
 10
3013.359375
 20
-724.365234375
 10
3023.017578125
 20
-724.365234375
 10
3032.67578125
 20
-714.70703125
 10
3042.333984375
 20
-705.048828125
 10
3042.333984375
 20
-695.390625
 10
3042.333984375
 20
-685.732421875
 10
3051.9921875
 20
-676.07421875
  0
LWPOLYLINE
  5
44
330
17
100
AcDbEntity
  8
substrate
100
AcDbPolyline
 90
1
 70
1
 43
0.5
 10
2018.564453125
 20
-3080.966796875
  0
LWPOLYLINE
  5
45
330
17
100
AcDbEntity
  8
substrate
100
AcDbPolyline
 90
3
 70
1
 43
0.5
 10
1632.236328125
 20
-2916.77734375
 10
1622.578125
 20
-2926.435546875
 10
1632.236328125
 20
-2926.435546875
  0
LWPOLYLINE
  5
46
330
17
100
AcDbEntity
  8
substrate
100
AcDbPolyline
 90
1
 70
1
 43
0.5
 10
1458.388671875
 20
-2868.486328125
  0
LWPOLYLINE
  5
47
330
17
100
AcDbEntity
  8
substrate
100
AcDbPolyline
 90
7
 70
1
 43
0.5
 10
1168.642578125
 20
-2607.71484375
 10
1158.984375
 20
-2617.373046875
 10
1158.984375
 20
-2627.03125
 10
1158.984375
 20
-2636.689453125
 10
1168.642578125
 20
-2636.689453125
 10
1168.642578125
 20
-2627.03125
 10
1178.30078125
 20
-2617.373046875
  0
LWPOLYLINE
  5
48
330
17
100
AcDbEntity
  8
substrate
100
AcDbPolyline
 90
4
 70
1
 43
0.5
 10
1864.033203125
 20
-2453.18359375
 10
1854.375
 20
-2462.841796875
 10
1864.033203125
 20
-2472.5
 10
1864.033203125
 20
-2462.841796875
  0
LWPOLYLINE
  5
49
330
17
100
AcDbEntity
  8
substrate
100
AcDbPolyline
 90
12
 70
1
 43
0.5
 10
1622.578125
 20
-2288.994140625
 10
1612.919921875
 20
-2298.65234375
 10
1603.26171875
 20
-2308.310546875
 10
1612.919921875
 20
-2317.96875
 10
1612.919921875
 20
-2327.626953125
 10
1622.578125
 20
-2327.626953125
 10
1632.236328125
 20
-2327.626953125
 10
1641.89453125
 20
-2317.96875
 10
1651.552734375
 20
-2308.310546875
 10
1651.552734375
 20
-2298.65234375
 10
1641.89453125
 20
-2298.65234375
 10
1632.236328125
 20
-2288.994140625
  0
LWPOLYLINE
  5
4A
330
17
100
AcDbEntity
  8
substrate
100
AcDbPolyline
 90
6
 70
1
 43
0.5
 10
2868.486328125
 20
-1989.58984375
 10
2868.486328125
 20
-1999.248046875
 10
2878.14453125
 20
-1999.248046875
 10
2887.802734375
 20
-1999.248046875
 10
2887.802734375
 20
-1989.58984375
 10
2878.14453125
 20
-1999.248046875
  0
LWPOLYLINE
  5
4B
330
17
100
AcDbEntity
  8
substrate
100
AcDbPolyline
 90
8
 70
1
 43
0.5
 10
4896.708984375
 20
-444.27734375
 10
4906.3671875
 20
-434.619140625
 10
4916.025390625
 20
-444.27734375
 10
4916.025390625
 20
-453.935546875
 10
4916.025390625
 20
-463.59375
 10
4906.3671875
 20
-473.251953125
 10
4896.708984375
 20
-463.59375
 10
4896.708984375
 20
-453.935546875
  0
ENDSEC
  0
SECTION
  2
OBJECTS
  0
DICTIONARY
  5
A
330
0
100
AcDbDictionary
280
0
281
1
  3
ACAD_COLOR
350
B
  3
ACAD_GROUP
350
C
  3
ACAD_LAYOUT
350
D
  3
ACAD_MATERIAL
350
E
  3
ACAD_MLEADERSTYLE
350
F
  3
ACAD_MLINESTYLE
350
10
  3
ACAD_PLOTSETTINGS
350
11
  3
ACAD_PLOTSTYLENAME
350
12
  3
ACAD_SCALELIST
350
14
  3
ACAD_TABLESTYLE
350
15
  3
ACAD_VISUALSTYLE
350
16
  3
EZDXF_META
350
2D
  0
DICTIONARY
  5
B
330
A
100
AcDbDictionary
280
0
281
1
  0
DICTIONARY
  5
C
330
A
100
AcDbDictionary
280
0
281
1
  0
DICTIONARY
  5
D
330
A
100
AcDbDictionary
280
0
281
1
  3
Model
350
1A
  3
Layout1
350
1E
  0
DICTIONARY
  5
E
330
A
100
AcDbDictionary
280
0
281
1
  3
ByBlock
350
1F
  3
ByLayer
350
20
  3
Global
350
21
  0
DICTIONARY
  5
F
330
A
100
AcDbDictionary
280
0
281
1
  3
Standard
350
2C
  0
DICTIONARY
  5
10
330
A
100
AcDbDictionary
280
0
281
1
  3
Standard
350
22
  0
DICTIONARY
  5
11
330
A
100
AcDbDictionary
280
0
281
1
  0
ACDBDICTIONARYWDFLT
  5
12
330
A
100
AcDbDictionary
280
0
281
1
  3
Normal
350
13
100
AcDbDictionaryWithDefault
340
13
  0
ACDBPLACEHOLDER
  5
13
330
12
  0
DICTIONARY
  5
14
330
A
100
AcDbDictionary
280
0
281
1
  0
DICTIONARY
  5
15
330
A
100
AcDbDictionary
280
0
281
1
  0
DICTIONARY
  5
16
330
A
100
AcDbDictionary
280
0
281
1
  0
LAYOUT
  5
1A
330
D
100
AcDbPlotSettings
  1

  2
Adobe PDF
  4
A3
  6

 40
7.5
 41
20.0
 42
7.5
 43
20.0
 44
420.0
 45
297.0
 46
0.0
 47
0.0
 48
0.0
 49
0.0
140
0.0
141
0.0
142
1.0
143
1.0
 70
1024
 72
1
 73
0
 74
5
  7

 75
16
 76
0
 77
2
 78
300
147
1.0
148
0.0
149
0.0
100
AcDbLayout
  1
Model
 70
1
 71
0
 10
0.0
 20
0.0
 11
420.0
 21
297.0
 12
0.0
 22
0.0
 32
0.0
 14
1e+20
 24
1e+20
 34
1e+20
 15
-1e+20
 25
-1e+20
 35
-1e+20
146
0.0
 13
0.0
 23
0.0
 33
0.0
 16
1.0
 26
0.0
 36
0.0
 17
0.0
 27
1.0
 37
0.0
 76
1
330
17
  0
LAYOUT
  5
1E
330
D
100
AcDbPlotSettings
  1

  2
Adobe PDF
  4
A3
  6

 40
7.5
 41
20.0
 42
7.5
 43
20.0
 44
420.0
 45
297.0
 46
0.0
 47
0.0
 48
0.0
 49
0.0
140
0.0
141
0.0
142
1.0
143
1.0
 70
0
 72
1
 73
0
 74
5
  7

 75
16
 76
0
 77
2
 78
300
147
1.0
148
0.0
149
0.0
100
AcDbLayout
  1
Layout1
 70
1
 71
1
 10
0.0
 20
0.0
 11
420.0
 21
297.0
 12
0.0
 22
0.0
 32
0.0
 14
1e+20
 24
1e+20
 34
1e+20
 15
-1e+20
 25
-1e+20
 35
-1e+20
146
0.0
 13
0.0
 23
0.0
 33
0.0
 16
1.0
 26
0.0
 36
0.0
 17
0.0
 27
1.0
 37
0.0
 76
1
330
1B
  0
MATERIAL
  5
1F
102
{ACAD_REACTORS
330
E
102
}
330
E
100
AcDbMaterial
  1
ByBlock
  2

 70
0
 40
1.0
 71
1
 41
1.0
 91
-1023410177
 42
1.0
 72
1
  3

 73
1
 74
1
 75
1
 44
0.5
 73
0
 45
1.0
 46
1.0
 77
1
  4

 78
1
 79
1
170
1
 48
1.0
171
1
  6

172
1
173
1
174
1
140
1.0
141
1.0
175
1
  7

176
1
177
1
178
1
143
1.0
179
1
  8

270
1
271
1
272
1
145
1.0
146
1.0
273
1
  9

274
1
275
1
276
1
 42
1.0
 72
1
  3

 73
1
 74
1
 75
1
 94
63
  0
MATERIAL
  5
20
102
{ACAD_REACTORS
330
E
102
}
330
E
100
AcDbMaterial
  1
ByLayer
  2

 70
0
 40
1.0
 71
1
 41
1.0
 91
-1023410177
 42
1.0
 72
1
  3

 73
1
 74
1
 75
1
 44
0.5
 73
0
 45
1.0
 46
1.0
 77
1
  4

 78
1
 79
1
170
1
 48
1.0
171
1
  6

172
1
173
1
174
1
140
1.0
141
1.0
175
1
  7

176
1
177
1
178
1
143
1.0
179
1
  8

270
1
271
1
272
1
145
1.0
146
1.0
273
1
  9

274
1
275
1
276
1
 42
1.0
 72
1
  3

 73
1
 74
1
 75
1
 94
63
  0
MATERIAL
  5
21
102
{ACAD_REACTORS
330
E
102
}
330
E
100
AcDbMaterial
  1
Global
  2

 70
0
 40
1.0
 71
1
 41
1.0
 91
-1023410177
 42
1.0
 72
1
  3

 73
1
 74
1
 75
1
 44
0.5
 73
0
 45
1.0
 46
1.0
 77
1
  4

 78
1
 79
1
170
1
 48
1.0
171
1
  6

172
1
173
1
174
1
140
1.0
141
1.0
175
1
  7

176
1
177
1
178
1
143
1.0
179
1
  8

270
1
271
1
272
1
145
1.0
146
1.0
273
1
  9

274
1
275
1
276
1
 42
1.0
 72
1
  3

 73
1
 74
1
 75
1
 94
63
  0
MLINESTYLE
  5
22
102
{ACAD_REACTORS
330
10
102
}
330
10
100
AcDbMlineStyle
  2
Standard
 70
0
  3

 62
256
 51
90.0
 52
90.0
 71
2
 49
0.5
 62
256
  6
BYLAYER
 49
-0.5
 62
256
  6
BYLAYER
  0
MLEADERSTYLE
  5
2C
102
{ACAD_REACTORS
330
F
102
}
330
F
100
AcDbMLeaderStyle
179
2
170
2
171
1
172
0
 90
2
 40
0.0
 41
0.0
173
1
 91
-1056964608
 92
-2
290
1
 42
2.0
291
1
 43
8.0
  3
Standard
 44
4.0
300

342
29
174
1
175
1
176
0
178
1
 93
-1056964608
 45
4.0
292
0
297
0
 46
4.0
 94
-1056964608
 47
1.0
 49
1.0
140
1.0
294
1
141
0.0
177
0
142
1.0
295
0
296
0
143
3.75
271
0
272
9
273
9
  0
DICTIONARY
  5
2D
330
A
100
AcDbDictionary
281
1
  3
CREATED_BY_EZDXF
350
2E
  3
WRITTEN_BY_EZDXF
350
4E
  0
DICTIONARYVAR
  5
2E
330
2D
100
DictionaryVariables
280
0
  1
1.1.0 @ 2025-02-17T18:09:08.267151+00:00
  0
DICTIONARYVAR
  5
4E
330
2D
100
DictionaryVariables
280
0
  1
1.1.0 @ 2025-02-17T18:09:08.281055+00:00
  0
ENDSEC
  0
EOF
